%TF.GenerationSoftware,KiCad,Pcbnew,6.0.4-6f826c9f35~116~ubuntu20.04.1*%
%TF.CreationDate,2022-05-15T21:25:10+00:00*%
%TF.ProjectId,OLED01A,4f4c4544-3031-4412-9e6b-696361645f70,rev?*%
%TF.SameCoordinates,PX72ba1e0PY737d6e0*%
%TF.FileFunction,Legend,Top*%
%TF.FilePolarity,Positive*%
%FSLAX46Y46*%
G04 Gerber Fmt 4.6, Leading zero omitted, Abs format (unit mm)*
G04 Created by KiCad (PCBNEW 6.0.4-6f826c9f35~116~ubuntu20.04.1) date 2022-05-15 21:25:10*
%MOMM*%
%LPD*%
G01*
G04 APERTURE LIST*
%ADD10C,0.100000*%
%ADD11C,0.120000*%
%ADD12C,0.150000*%
%ADD13C,0.200000*%
%ADD14C,0.050000*%
%ADD15R,1.524000X1.524000*%
G04 APERTURE END LIST*
D10*
X44600000Y57300000D02*
X51900000Y57300000D01*
X51900000Y57300000D02*
X51900000Y52900000D01*
X51900000Y52900000D02*
X44600000Y52900000D01*
X44600000Y52900000D02*
X44600000Y57300000D01*
D11*
X44600000Y55900000D02*
X43485000Y55000000D01*
D10*
X5242857Y57371429D02*
X5814285Y57371429D01*
X5471428Y57714286D02*
X5242857Y56685715D01*
X5738095Y57028572D02*
X5166666Y57028572D01*
X5509523Y56685715D02*
X5738095Y57714286D01*
X6538095Y56838096D02*
X6271428Y57219048D01*
X6080952Y56838096D02*
X6080952Y57638096D01*
X6385714Y57638096D01*
X6461904Y57600000D01*
X6500000Y57561905D01*
X6538095Y57485715D01*
X6538095Y57371429D01*
X6500000Y57295239D01*
X6461904Y57257143D01*
X6385714Y57219048D01*
X6080952Y57219048D01*
X6880952Y57257143D02*
X7147619Y57257143D01*
X7261904Y56838096D02*
X6880952Y56838096D01*
X6880952Y57638096D01*
X7261904Y57638096D01*
X7566666Y56876191D02*
X7680952Y56838096D01*
X7871428Y56838096D01*
X7947619Y56876191D01*
X7985714Y56914286D01*
X8023809Y56990477D01*
X8023809Y57066667D01*
X7985714Y57142858D01*
X7947619Y57180953D01*
X7871428Y57219048D01*
X7719047Y57257143D01*
X7642857Y57295239D01*
X7604761Y57333334D01*
X7566666Y57409524D01*
X7566666Y57485715D01*
X7604761Y57561905D01*
X7642857Y57600000D01*
X7719047Y57638096D01*
X7909523Y57638096D01*
X8023809Y57600000D01*
X8938095Y57371429D02*
X9509523Y57371429D01*
X9166666Y57714286D02*
X8938095Y56685715D01*
X9433333Y57028572D02*
X8861904Y57028572D01*
X9204761Y56685715D02*
X9433333Y57714286D01*
X10233333Y56914286D02*
X10195238Y56876191D01*
X10080952Y56838096D01*
X10004761Y56838096D01*
X9890476Y56876191D01*
X9814285Y56952381D01*
X9776190Y57028572D01*
X9738095Y57180953D01*
X9738095Y57295239D01*
X9776190Y57447620D01*
X9814285Y57523810D01*
X9890476Y57600000D01*
X10004761Y57638096D01*
X10080952Y57638096D01*
X10195238Y57600000D01*
X10233333Y57561905D01*
X10538095Y56876191D02*
X10652380Y56838096D01*
X10842857Y56838096D01*
X10919047Y56876191D01*
X10957142Y56914286D01*
X10995238Y56990477D01*
X10995238Y57066667D01*
X10957142Y57142858D01*
X10919047Y57180953D01*
X10842857Y57219048D01*
X10690476Y57257143D01*
X10614285Y57295239D01*
X10576190Y57333334D01*
X10538095Y57409524D01*
X10538095Y57485715D01*
X10576190Y57561905D01*
X10614285Y57600000D01*
X10690476Y57638096D01*
X10880952Y57638096D01*
X10995238Y57600000D01*
X12404761Y56914286D02*
X12366666Y56876191D01*
X12252380Y56838096D01*
X12176190Y56838096D01*
X12061904Y56876191D01*
X11985714Y56952381D01*
X11947619Y57028572D01*
X11909523Y57180953D01*
X11909523Y57295239D01*
X11947619Y57447620D01*
X11985714Y57523810D01*
X12061904Y57600000D01*
X12176190Y57638096D01*
X12252380Y57638096D01*
X12366666Y57600000D01*
X12404761Y57561905D01*
X13128571Y56838096D02*
X12747619Y56838096D01*
X12747619Y57638096D01*
X13395238Y56838096D02*
X13395238Y57638096D01*
X13852380Y56838096D02*
X13509523Y57295239D01*
X13852380Y57638096D02*
X13395238Y57180953D01*
X14804761Y56838096D02*
X14804761Y57638096D01*
X15071428Y57066667D01*
X15338095Y57638096D01*
X15338095Y56838096D01*
X15871428Y57638096D02*
X16023809Y57638096D01*
X16100000Y57600000D01*
X16176190Y57523810D01*
X16214285Y57371429D01*
X16214285Y57104762D01*
X16176190Y56952381D01*
X16100000Y56876191D01*
X16023809Y56838096D01*
X15871428Y56838096D01*
X15795238Y56876191D01*
X15719047Y56952381D01*
X15680952Y57104762D01*
X15680952Y57371429D01*
X15719047Y57523810D01*
X15795238Y57600000D01*
X15871428Y57638096D01*
X16519047Y56876191D02*
X16633333Y56838096D01*
X16823809Y56838096D01*
X16900000Y56876191D01*
X16938095Y56914286D01*
X16976190Y56990477D01*
X16976190Y57066667D01*
X16938095Y57142858D01*
X16900000Y57180953D01*
X16823809Y57219048D01*
X16671428Y57257143D01*
X16595238Y57295239D01*
X16557142Y57333334D01*
X16519047Y57409524D01*
X16519047Y57485715D01*
X16557142Y57561905D01*
X16595238Y57600000D01*
X16671428Y57638096D01*
X16861904Y57638096D01*
X16976190Y57600000D01*
X17319047Y56838096D02*
X17319047Y57638096D01*
D12*
X10271428Y63714286D02*
X10442857Y63657143D01*
X10728571Y63657143D01*
X10842857Y63714286D01*
X10900000Y63771429D01*
X10957142Y63885715D01*
X10957142Y64000000D01*
X10900000Y64114286D01*
X10842857Y64171429D01*
X10728571Y64228572D01*
X10500000Y64285715D01*
X10385714Y64342858D01*
X10328571Y64400000D01*
X10271428Y64514286D01*
X10271428Y64628572D01*
X10328571Y64742858D01*
X10385714Y64800000D01*
X10500000Y64857143D01*
X10785714Y64857143D01*
X10957142Y64800000D01*
X11471428Y63657143D02*
X11471428Y64857143D01*
X11928571Y64857143D01*
X12042857Y64800000D01*
X12100000Y64742858D01*
X12157142Y64628572D01*
X12157142Y64457143D01*
X12100000Y64342858D01*
X12042857Y64285715D01*
X11928571Y64228572D01*
X11471428Y64228572D01*
X12671428Y63657143D02*
X12671428Y64857143D01*
D10*
X45266666Y54138096D02*
X45342857Y54138096D01*
X45419047Y54100000D01*
X45457142Y54061905D01*
X45495238Y53985715D01*
X45533333Y53833334D01*
X45533333Y53642858D01*
X45495238Y53490477D01*
X45457142Y53414286D01*
X45419047Y53376191D01*
X45342857Y53338096D01*
X45266666Y53338096D01*
X45190476Y53376191D01*
X45152380Y53414286D01*
X45114285Y53490477D01*
X45076190Y53642858D01*
X45076190Y53833334D01*
X45114285Y53985715D01*
X45152380Y54061905D01*
X45190476Y54100000D01*
X45266666Y54138096D01*
X45800000Y53338096D02*
X46219047Y53871429D01*
X45800000Y53871429D02*
X46219047Y53338096D01*
X46447619Y54138096D02*
X46942857Y54138096D01*
X46676190Y53833334D01*
X46790476Y53833334D01*
X46866666Y53795239D01*
X46904761Y53757143D01*
X46942857Y53680953D01*
X46942857Y53490477D01*
X46904761Y53414286D01*
X46866666Y53376191D01*
X46790476Y53338096D01*
X46561904Y53338096D01*
X46485714Y53376191D01*
X46447619Y53414286D01*
X47285714Y53338096D02*
X47285714Y54138096D01*
X47476190Y54138096D01*
X47590476Y54100000D01*
X47666666Y54023810D01*
X47704761Y53947620D01*
X47742857Y53795239D01*
X47742857Y53680953D01*
X47704761Y53528572D01*
X47666666Y53452381D01*
X47590476Y53376191D01*
X47476190Y53338096D01*
X47285714Y53338096D01*
X48847619Y54138096D02*
X48923809Y54138096D01*
X49000000Y54100000D01*
X49038095Y54061905D01*
X49076190Y53985715D01*
X49114285Y53833334D01*
X49114285Y53642858D01*
X49076190Y53490477D01*
X49038095Y53414286D01*
X49000000Y53376191D01*
X48923809Y53338096D01*
X48847619Y53338096D01*
X48771428Y53376191D01*
X48733333Y53414286D01*
X48695238Y53490477D01*
X48657142Y53642858D01*
X48657142Y53833334D01*
X48695238Y53985715D01*
X48733333Y54061905D01*
X48771428Y54100000D01*
X48847619Y54138096D01*
X49380952Y53338096D02*
X49800000Y53871429D01*
X49380952Y53871429D02*
X49800000Y53338096D01*
X50028571Y54138096D02*
X50523809Y54138096D01*
X50257142Y53833334D01*
X50371428Y53833334D01*
X50447619Y53795239D01*
X50485714Y53757143D01*
X50523809Y53680953D01*
X50523809Y53490477D01*
X50485714Y53414286D01*
X50447619Y53376191D01*
X50371428Y53338096D01*
X50142857Y53338096D01*
X50066666Y53376191D01*
X50028571Y53414286D01*
X51323809Y53414286D02*
X51285714Y53376191D01*
X51171428Y53338096D01*
X51095238Y53338096D01*
X50980952Y53376191D01*
X50904761Y53452381D01*
X50866666Y53528572D01*
X50828571Y53680953D01*
X50828571Y53795239D01*
X50866666Y53947620D01*
X50904761Y54023810D01*
X50980952Y54100000D01*
X51095238Y54138096D01*
X51171428Y54138096D01*
X51285714Y54100000D01*
X51323809Y54061905D01*
X7703095Y1152620D02*
X7703095Y2152620D01*
X8036428Y1438334D01*
X8369761Y2152620D01*
X8369761Y1152620D01*
X9322142Y1152620D02*
X8845952Y1152620D01*
X8845952Y2152620D01*
X9607857Y1438334D02*
X10084047Y1438334D01*
X9512619Y1152620D02*
X9845952Y2152620D01*
X10179285Y1152620D01*
X10845952Y1676429D02*
X10988809Y1628810D01*
X11036428Y1581191D01*
X11084047Y1485953D01*
X11084047Y1343096D01*
X11036428Y1247858D01*
X10988809Y1200239D01*
X10893571Y1152620D01*
X10512619Y1152620D01*
X10512619Y2152620D01*
X10845952Y2152620D01*
X10941190Y2105000D01*
X10988809Y2057381D01*
X11036428Y1962143D01*
X11036428Y1866905D01*
X10988809Y1771667D01*
X10941190Y1724048D01*
X10845952Y1676429D01*
X10512619Y1676429D01*
X11512619Y1247858D02*
X11560238Y1200239D01*
X11512619Y1152620D01*
X11465000Y1200239D01*
X11512619Y1247858D01*
X11512619Y1152620D01*
X12417380Y1200239D02*
X12322142Y1152620D01*
X12131666Y1152620D01*
X12036428Y1200239D01*
X11988809Y1247858D01*
X11941190Y1343096D01*
X11941190Y1628810D01*
X11988809Y1724048D01*
X12036428Y1771667D01*
X12131666Y1819286D01*
X12322142Y1819286D01*
X12417380Y1771667D01*
X12750714Y1819286D02*
X13274523Y1819286D01*
X12750714Y1152620D01*
X13274523Y1152620D01*
X7655476Y447381D02*
X7703095Y495000D01*
X7798333Y542620D01*
X8036428Y542620D01*
X8131666Y495000D01*
X8179285Y447381D01*
X8226904Y352143D01*
X8226904Y256905D01*
X8179285Y114048D01*
X7607857Y-457380D01*
X8226904Y-457380D01*
X8845952Y542620D02*
X8941190Y542620D01*
X9036428Y495000D01*
X9084047Y447381D01*
X9131666Y352143D01*
X9179285Y161667D01*
X9179285Y-76428D01*
X9131666Y-266904D01*
X9084047Y-362142D01*
X9036428Y-409761D01*
X8941190Y-457380D01*
X8845952Y-457380D01*
X8750714Y-409761D01*
X8703095Y-362142D01*
X8655476Y-266904D01*
X8607857Y-76428D01*
X8607857Y161667D01*
X8655476Y352143D01*
X8703095Y447381D01*
X8750714Y495000D01*
X8845952Y542620D01*
X9560238Y447381D02*
X9607857Y495000D01*
X9703095Y542620D01*
X9941190Y542620D01*
X10036428Y495000D01*
X10084047Y447381D01*
X10131666Y352143D01*
X10131666Y256905D01*
X10084047Y114048D01*
X9512619Y-457380D01*
X10131666Y-457380D01*
X10512619Y447381D02*
X10560238Y495000D01*
X10655476Y542620D01*
X10893571Y542620D01*
X10988809Y495000D01*
X11036428Y447381D01*
X11084047Y352143D01*
X11084047Y256905D01*
X11036428Y114048D01*
X10465000Y-457380D01*
X11084047Y-457380D01*
X30638095Y57700000D02*
X30561904Y57738096D01*
X30447619Y57738096D01*
X30333333Y57700000D01*
X30257142Y57623810D01*
X30219047Y57547620D01*
X30180952Y57395239D01*
X30180952Y57280953D01*
X30219047Y57128572D01*
X30257142Y57052381D01*
X30333333Y56976191D01*
X30447619Y56938096D01*
X30523809Y56938096D01*
X30638095Y56976191D01*
X30676190Y57014286D01*
X30676190Y57280953D01*
X30523809Y57280953D01*
X31019047Y56938096D02*
X31019047Y57738096D01*
X31476190Y56938096D01*
X31476190Y57738096D01*
X31857142Y56938096D02*
X31857142Y57738096D01*
X32047619Y57738096D01*
X32161904Y57700000D01*
X32238095Y57623810D01*
X32276190Y57547620D01*
X32314285Y57395239D01*
X32314285Y57280953D01*
X32276190Y57128572D01*
X32238095Y57052381D01*
X32161904Y56976191D01*
X32047619Y56938096D01*
X31857142Y56938096D01*
X33723809Y57014286D02*
X33685714Y56976191D01*
X33571428Y56938096D01*
X33495238Y56938096D01*
X33380952Y56976191D01*
X33304761Y57052381D01*
X33266666Y57128572D01*
X33228571Y57280953D01*
X33228571Y57395239D01*
X33266666Y57547620D01*
X33304761Y57623810D01*
X33380952Y57700000D01*
X33495238Y57738096D01*
X33571428Y57738096D01*
X33685714Y57700000D01*
X33723809Y57661905D01*
X34447619Y56938096D02*
X34066666Y56938096D01*
X34066666Y57738096D01*
X34714285Y56938096D02*
X34714285Y57738096D01*
X35171428Y56938096D02*
X34828571Y57395239D01*
X35171428Y57738096D02*
X34714285Y57280953D01*
X36047619Y57738096D02*
X36542857Y57738096D01*
X36276190Y57433334D01*
X36390476Y57433334D01*
X36466666Y57395239D01*
X36504761Y57357143D01*
X36542857Y57280953D01*
X36542857Y57090477D01*
X36504761Y57014286D01*
X36466666Y56976191D01*
X36390476Y56938096D01*
X36161904Y56938096D01*
X36085714Y56976191D01*
X36047619Y57014286D01*
X36809523Y57471429D02*
X37000000Y56938096D01*
X37190476Y57471429D01*
X37419047Y57738096D02*
X37914285Y57738096D01*
X37647619Y57433334D01*
X37761904Y57433334D01*
X37838095Y57395239D01*
X37876190Y57357143D01*
X37914285Y57280953D01*
X37914285Y57090477D01*
X37876190Y57014286D01*
X37838095Y56976191D01*
X37761904Y56938096D01*
X37533333Y56938096D01*
X37457142Y56976191D01*
X37419047Y57014286D01*
X38828571Y56976191D02*
X38942857Y56938096D01*
X39133333Y56938096D01*
X39209523Y56976191D01*
X39247619Y57014286D01*
X39285714Y57090477D01*
X39285714Y57166667D01*
X39247619Y57242858D01*
X39209523Y57280953D01*
X39133333Y57319048D01*
X38980952Y57357143D01*
X38904761Y57395239D01*
X38866666Y57433334D01*
X38828571Y57509524D01*
X38828571Y57585715D01*
X38866666Y57661905D01*
X38904761Y57700000D01*
X38980952Y57738096D01*
X39171428Y57738096D01*
X39285714Y57700000D01*
X39628571Y56938096D02*
X39628571Y57738096D01*
X39819047Y57738096D01*
X39933333Y57700000D01*
X40009523Y57623810D01*
X40047619Y57547620D01*
X40085714Y57395239D01*
X40085714Y57280953D01*
X40047619Y57128572D01*
X40009523Y57052381D01*
X39933333Y56976191D01*
X39819047Y56938096D01*
X39628571Y56938096D01*
X40390476Y57166667D02*
X40771428Y57166667D01*
X40314285Y56938096D02*
X40580952Y57738096D01*
X40847619Y56938096D01*
X42142857Y57700000D02*
X42066666Y57738096D01*
X41952380Y57738096D01*
X41838095Y57700000D01*
X41761904Y57623810D01*
X41723809Y57547620D01*
X41685714Y57395239D01*
X41685714Y57280953D01*
X41723809Y57128572D01*
X41761904Y57052381D01*
X41838095Y56976191D01*
X41952380Y56938096D01*
X42028571Y56938096D01*
X42142857Y56976191D01*
X42180952Y57014286D01*
X42180952Y57280953D01*
X42028571Y57280953D01*
X42523809Y56938096D02*
X42523809Y57738096D01*
X42980952Y56938096D01*
X42980952Y57738096D01*
X43361904Y56938096D02*
X43361904Y57738096D01*
X43552380Y57738096D01*
X43666666Y57700000D01*
X43742857Y57623810D01*
X43780952Y57547620D01*
X43819047Y57395239D01*
X43819047Y57280953D01*
X43780952Y57128572D01*
X43742857Y57052381D01*
X43666666Y56976191D01*
X43552380Y56938096D01*
X43361904Y56938096D01*
D13*
X7844285Y4557143D02*
X8072857Y4557143D01*
X8187142Y4500000D01*
X8301428Y4385715D01*
X8358571Y4157143D01*
X8358571Y3757143D01*
X8301428Y3528572D01*
X8187142Y3414286D01*
X8072857Y3357143D01*
X7844285Y3357143D01*
X7730000Y3414286D01*
X7615714Y3528572D01*
X7558571Y3757143D01*
X7558571Y4157143D01*
X7615714Y4385715D01*
X7730000Y4500000D01*
X7844285Y4557143D01*
X9444285Y3357143D02*
X8872857Y3357143D01*
X8872857Y4557143D01*
X9844285Y3985715D02*
X10244285Y3985715D01*
X10415714Y3357143D02*
X9844285Y3357143D01*
X9844285Y4557143D01*
X10415714Y4557143D01*
X10930000Y3357143D02*
X10930000Y4557143D01*
X11215714Y4557143D01*
X11387142Y4500000D01*
X11501428Y4385715D01*
X11558571Y4271429D01*
X11615714Y4042858D01*
X11615714Y3871429D01*
X11558571Y3642858D01*
X11501428Y3528572D01*
X11387142Y3414286D01*
X11215714Y3357143D01*
X10930000Y3357143D01*
X12358571Y4557143D02*
X12472857Y4557143D01*
X12587142Y4500000D01*
X12644285Y4442858D01*
X12701428Y4328572D01*
X12758571Y4100000D01*
X12758571Y3814286D01*
X12701428Y3585715D01*
X12644285Y3471429D01*
X12587142Y3414286D01*
X12472857Y3357143D01*
X12358571Y3357143D01*
X12244285Y3414286D01*
X12187142Y3471429D01*
X12130000Y3585715D01*
X12072857Y3814286D01*
X12072857Y4100000D01*
X12130000Y4328572D01*
X12187142Y4442858D01*
X12244285Y4500000D01*
X12358571Y4557143D01*
X13901428Y3357143D02*
X13215714Y3357143D01*
X13558571Y3357143D02*
X13558571Y4557143D01*
X13444285Y4385715D01*
X13330000Y4271429D01*
X13215714Y4214286D01*
X14358571Y3700000D02*
X14930000Y3700000D01*
X14244285Y3357143D02*
X14644285Y4557143D01*
X15044285Y3357143D01*
D12*
X35828571Y63857143D02*
X35828571Y65057143D01*
X36342857Y64942858D02*
X36400000Y65000000D01*
X36514285Y65057143D01*
X36800000Y65057143D01*
X36914285Y65000000D01*
X36971428Y64942858D01*
X37028571Y64828572D01*
X37028571Y64714286D01*
X36971428Y64542858D01*
X36285714Y63857143D01*
X37028571Y63857143D01*
X38228571Y63971429D02*
X38171428Y63914286D01*
X38000000Y63857143D01*
X37885714Y63857143D01*
X37714285Y63914286D01*
X37600000Y64028572D01*
X37542857Y64142858D01*
X37485714Y64371429D01*
X37485714Y64542858D01*
X37542857Y64771429D01*
X37600000Y64885715D01*
X37714285Y65000000D01*
X37885714Y65057143D01*
X38000000Y65057143D01*
X38171428Y65000000D01*
X38228571Y64942858D01*
D10*
X20261904Y56747620D02*
X20261904Y57414286D01*
X20261904Y57319048D02*
X20309523Y57366667D01*
X20404761Y57414286D01*
X20547619Y57414286D01*
X20642857Y57366667D01*
X20690476Y57271429D01*
X20690476Y56747620D01*
X20690476Y57271429D02*
X20738095Y57366667D01*
X20833333Y57414286D01*
X20976190Y57414286D01*
X21071428Y57366667D01*
X21119047Y57271429D01*
X21119047Y56747620D01*
X22023809Y56747620D02*
X22023809Y57271429D01*
X21976190Y57366667D01*
X21880952Y57414286D01*
X21690476Y57414286D01*
X21595238Y57366667D01*
X22023809Y56795239D02*
X21928571Y56747620D01*
X21690476Y56747620D01*
X21595238Y56795239D01*
X21547619Y56890477D01*
X21547619Y56985715D01*
X21595238Y57080953D01*
X21690476Y57128572D01*
X21928571Y57128572D01*
X22023809Y57176191D01*
X22404761Y56747620D02*
X22928571Y57414286D01*
X22404761Y57414286D02*
X22928571Y56747620D01*
X23309523Y56842858D02*
X23357142Y56795239D01*
X23309523Y56747620D01*
X23261904Y56795239D01*
X23309523Y56842858D01*
X23309523Y56747620D01*
X24452380Y57747620D02*
X25071428Y57747620D01*
X24738095Y57366667D01*
X24880952Y57366667D01*
X24976190Y57319048D01*
X25023809Y57271429D01*
X25071428Y57176191D01*
X25071428Y56938096D01*
X25023809Y56842858D01*
X24976190Y56795239D01*
X24880952Y56747620D01*
X24595238Y56747620D01*
X24500000Y56795239D01*
X24452380Y56842858D01*
X25404761Y57414286D02*
X25642857Y56747620D01*
X25880952Y57414286D01*
X26166666Y57747620D02*
X26785714Y57747620D01*
X26452380Y57366667D01*
X26595238Y57366667D01*
X26690476Y57319048D01*
X26738095Y57271429D01*
X26785714Y57176191D01*
X26785714Y56938096D01*
X26738095Y56842858D01*
X26690476Y56795239D01*
X26595238Y56747620D01*
X26309523Y56747620D01*
X26214285Y56795239D01*
X26166666Y56842858D01*
X45117380Y56310667D02*
X45498333Y56310667D01*
X45041190Y56082096D02*
X45307857Y56882096D01*
X45574523Y56082096D01*
X46184047Y56082096D02*
X46184047Y56882096D01*
X46184047Y56120191D02*
X46107857Y56082096D01*
X45955476Y56082096D01*
X45879285Y56120191D01*
X45841190Y56158286D01*
X45803095Y56234477D01*
X45803095Y56463048D01*
X45841190Y56539239D01*
X45879285Y56577334D01*
X45955476Y56615429D01*
X46107857Y56615429D01*
X46184047Y56577334D01*
X46907857Y56082096D02*
X46907857Y56882096D01*
X46907857Y56120191D02*
X46831666Y56082096D01*
X46679285Y56082096D01*
X46603095Y56120191D01*
X46565000Y56158286D01*
X46526904Y56234477D01*
X46526904Y56463048D01*
X46565000Y56539239D01*
X46603095Y56577334D01*
X46679285Y56615429D01*
X46831666Y56615429D01*
X46907857Y56577334D01*
X47288809Y56082096D02*
X47288809Y56615429D01*
X47288809Y56463048D02*
X47326904Y56539239D01*
X47365000Y56577334D01*
X47441190Y56615429D01*
X47517380Y56615429D01*
X47784047Y56158286D02*
X47822142Y56120191D01*
X47784047Y56082096D01*
X47745952Y56120191D01*
X47784047Y56158286D01*
X47784047Y56082096D01*
X47784047Y56577334D02*
X47822142Y56539239D01*
X47784047Y56501143D01*
X47745952Y56539239D01*
X47784047Y56577334D01*
X47784047Y56501143D01*
X45384047Y54527429D02*
X45193571Y54527429D01*
X45193571Y55670286D01*
X45384047Y55670286D01*
X45688809Y55098858D02*
X46298333Y55098858D01*
X46603095Y54527429D02*
X46793571Y54527429D01*
X46793571Y55670286D01*
X46603095Y55670286D01*
X47326904Y55136953D02*
X47288809Y55098858D01*
X47326904Y55060762D01*
X47365000Y55098858D01*
X47326904Y55136953D01*
X47326904Y55060762D01*
X49155476Y55136953D02*
X49117380Y55098858D01*
X49155476Y55060762D01*
X49193571Y55098858D01*
X49155476Y55136953D01*
X49155476Y55060762D01*
X49879285Y54527429D02*
X49688809Y54527429D01*
X49688809Y55670286D01*
X49879285Y55670286D01*
X50184047Y55098858D02*
X50793571Y55098858D01*
X51098333Y54527429D02*
X51288809Y54527429D01*
X51288809Y55670286D01*
X51098333Y55670286D01*
D12*
X21900000Y63857143D02*
X21900000Y65057143D01*
X22357142Y65057143D01*
X22471428Y65000000D01*
X22528571Y64942858D01*
X22585714Y64828572D01*
X22585714Y64657143D01*
X22528571Y64542858D01*
X22471428Y64485715D01*
X22357142Y64428572D01*
X21900000Y64428572D01*
X22985714Y65057143D02*
X23271428Y63857143D01*
X23500000Y64714286D01*
X23728571Y63857143D01*
X24014285Y65057143D01*
X25157142Y63857143D02*
X24757142Y64428572D01*
X24471428Y63857143D02*
X24471428Y65057143D01*
X24928571Y65057143D01*
X25042857Y65000000D01*
X25100000Y64942858D01*
X25157142Y64828572D01*
X25157142Y64657143D01*
X25100000Y64542858D01*
X25042857Y64485715D01*
X24928571Y64428572D01*
X24471428Y64428572D01*
D10*
%TO.C,J4*%
X31133333Y64738096D02*
X31133333Y64166667D01*
X31095238Y64052381D01*
X31019047Y63976191D01*
X30904761Y63938096D01*
X30828571Y63938096D01*
X31857142Y64471429D02*
X31857142Y63938096D01*
X31666666Y64776191D02*
X31476190Y64204762D01*
X31971428Y64204762D01*
%TO.C,J2*%
X35966666Y53483334D02*
X35966666Y52983334D01*
X35933333Y52883334D01*
X35866666Y52816667D01*
X35766666Y52783334D01*
X35700000Y52783334D01*
X36266666Y53416667D02*
X36300000Y53450000D01*
X36366666Y53483334D01*
X36533333Y53483334D01*
X36600000Y53450000D01*
X36633333Y53416667D01*
X36666666Y53350000D01*
X36666666Y53283334D01*
X36633333Y53183334D01*
X36233333Y52783334D01*
X36666666Y52783334D01*
%TO.C,J1*%
X15078333Y64538096D02*
X15078333Y63966667D01*
X15040238Y63852381D01*
X14964047Y63776191D01*
X14849761Y63738096D01*
X14773571Y63738096D01*
X15878333Y63738096D02*
X15421190Y63738096D01*
X15649761Y63738096D02*
X15649761Y64538096D01*
X15573571Y64423810D01*
X15497380Y64347620D01*
X15421190Y64309524D01*
D12*
%TO.C,DISP1*%
X26247619Y21197620D02*
X26247619Y22197620D01*
X26485714Y22197620D01*
X26628571Y22150000D01*
X26723809Y22054762D01*
X26771428Y21959524D01*
X26819047Y21769048D01*
X26819047Y21626191D01*
X26771428Y21435715D01*
X26723809Y21340477D01*
X26628571Y21245239D01*
X26485714Y21197620D01*
X26247619Y21197620D01*
X27247619Y21197620D02*
X27247619Y22197620D01*
X27676190Y21245239D02*
X27819047Y21197620D01*
X28057142Y21197620D01*
X28152380Y21245239D01*
X28200000Y21292858D01*
X28247619Y21388096D01*
X28247619Y21483334D01*
X28200000Y21578572D01*
X28152380Y21626191D01*
X28057142Y21673810D01*
X27866666Y21721429D01*
X27771428Y21769048D01*
X27723809Y21816667D01*
X27676190Y21911905D01*
X27676190Y22007143D01*
X27723809Y22102381D01*
X27771428Y22150000D01*
X27866666Y22197620D01*
X28104761Y22197620D01*
X28247619Y22150000D01*
X28676190Y21197620D02*
X28676190Y22197620D01*
X29057142Y22197620D01*
X29152380Y22150000D01*
X29200000Y22102381D01*
X29247619Y22007143D01*
X29247619Y21864286D01*
X29200000Y21769048D01*
X29152380Y21721429D01*
X29057142Y21673810D01*
X28676190Y21673810D01*
X30200000Y21197620D02*
X29628571Y21197620D01*
X29914285Y21197620D02*
X29914285Y22197620D01*
X29819047Y22054762D01*
X29723809Y21959524D01*
X29628571Y21911905D01*
D14*
X1396190Y6991858D02*
X1396190Y6706143D01*
X1396190Y6849000D02*
X896190Y6849000D01*
X967619Y6801381D01*
X1015238Y6753762D01*
X1039047Y6706143D01*
X1052857Y49187143D02*
X1386190Y49187143D01*
X862380Y49068096D02*
X1219523Y48949048D01*
X1219523Y49258572D01*
X886190Y49544286D02*
X886190Y49591905D01*
X910000Y49639524D01*
X933809Y49663334D01*
X981428Y49687143D01*
X1076666Y49710953D01*
X1195714Y49710953D01*
X1290952Y49687143D01*
X1338571Y49663334D01*
X1362380Y49639524D01*
X1386190Y49591905D01*
X1386190Y49544286D01*
X1362380Y49496667D01*
X1338571Y49472858D01*
X1290952Y49449048D01*
X1195714Y49425239D01*
X1076666Y49425239D01*
X981428Y49449048D01*
X933809Y49472858D01*
X910000Y49496667D01*
X886190Y49544286D01*
D10*
%TO.C,J3*%
X25833333Y64738096D02*
X25833333Y64166667D01*
X25795238Y64052381D01*
X25719047Y63976191D01*
X25604761Y63938096D01*
X25528571Y63938096D01*
X26138095Y64738096D02*
X26633333Y64738096D01*
X26366666Y64433334D01*
X26480952Y64433334D01*
X26557142Y64395239D01*
X26595238Y64357143D01*
X26633333Y64280953D01*
X26633333Y64090477D01*
X26595238Y64014286D01*
X26557142Y63976191D01*
X26480952Y63938096D01*
X26252380Y63938096D01*
X26176190Y63976191D01*
X26138095Y64014286D01*
D11*
%TO.C,J4*%
X30620000Y63445000D02*
X43440000Y63445000D01*
X30620000Y58245000D02*
X30620000Y59575000D01*
X43440000Y58245000D02*
X43440000Y63445000D01*
X31950000Y58245000D02*
X30620000Y58245000D01*
X33220000Y58245000D02*
X43440000Y58245000D01*
X33220000Y60845000D02*
X30620000Y60845000D01*
X33220000Y58245000D02*
X33220000Y60845000D01*
X30620000Y60845000D02*
X30620000Y63445000D01*
%TO.C,J2*%
X37075000Y53670000D02*
X35745000Y53670000D01*
X35745000Y53670000D02*
X35745000Y55000000D01*
X38345000Y53670000D02*
X38345000Y56330000D01*
X38345000Y53670000D02*
X43485000Y53670000D01*
X38345000Y56330000D02*
X43485000Y56330000D01*
X43485000Y53670000D02*
X43485000Y56330000D01*
%TO.C,J1*%
X14050000Y60730000D02*
X16650000Y60730000D01*
X16650000Y60730000D02*
X16650000Y58130000D01*
X16650000Y58130000D02*
X6370000Y58130000D01*
X15320000Y63330000D02*
X16650000Y63330000D01*
X14050000Y63330000D02*
X14050000Y60730000D01*
X16650000Y63330000D02*
X16650000Y62000000D01*
X6370000Y63330000D02*
X6370000Y58130000D01*
X14050000Y63330000D02*
X6370000Y63330000D01*
D12*
%TO.C,DISP1*%
X-100000Y9770000D02*
X50700000Y9770000D01*
X50690000Y52570000D02*
X50690000Y50030000D01*
X50700000Y9770000D02*
X50700000Y7230000D01*
X50690000Y50030000D02*
X-110000Y50030000D01*
X50700000Y7230000D02*
X-100000Y7230000D01*
X-100000Y7230000D02*
X-100000Y9770000D01*
X-110000Y50030000D02*
X-110000Y52570000D01*
X-110000Y52570000D02*
X50690000Y52570000D01*
D11*
X-200000Y43200000D02*
X50800000Y43200000D01*
X50800000Y43200000D02*
X50800000Y12200000D01*
X50800000Y12200000D02*
X-200000Y12200000D01*
X-200000Y12200000D02*
X-200000Y43200000D01*
D13*
X-2000000Y51300000D02*
X52600000Y51300000D01*
X52600000Y51300000D02*
X52600000Y8500000D01*
X52600000Y8500000D02*
X-2000000Y8500000D01*
X-2000000Y8500000D02*
X-2000000Y51300000D01*
D11*
X-200000Y43200000D02*
X50800000Y43200000D01*
X50800000Y43200000D02*
X50800000Y12200000D01*
X50800000Y12200000D02*
X-200000Y12200000D01*
X-200000Y12200000D02*
X-200000Y43200000D01*
D13*
X-2000000Y51300000D02*
X52600000Y51300000D01*
X52600000Y51300000D02*
X52600000Y8500000D01*
X52600000Y8500000D02*
X-2000000Y8500000D01*
X-2000000Y8500000D02*
X-2000000Y51300000D01*
D11*
%TO.C,J3*%
X24830000Y63430000D02*
X24830000Y60830000D01*
X27430000Y60830000D02*
X27430000Y58230000D01*
X19690000Y63430000D02*
X19690000Y58230000D01*
X27430000Y58230000D02*
X19690000Y58230000D01*
X24830000Y63430000D02*
X19690000Y63430000D01*
X24830000Y60830000D02*
X27430000Y60830000D01*
X26100000Y63430000D02*
X27430000Y63430000D01*
X27430000Y63430000D02*
X27430000Y62100000D01*
%TD*%
D15*
%TO.C,DISP1*%
X1170000Y8500000D03*
X3710000Y8500000D03*
X6250000Y8500000D03*
X44350000Y8500000D03*
X46890000Y8500000D03*
X49430000Y8500000D03*
X49420000Y51300000D03*
X46880000Y51300000D03*
X44340000Y51300000D03*
X41800000Y51300000D03*
X39260000Y51300000D03*
X36720000Y51300000D03*
X34180000Y51300000D03*
X31640000Y51300000D03*
X29100000Y51300000D03*
X26560000Y51300000D03*
X24020000Y51300000D03*
X21480000Y51300000D03*
X18940000Y51300000D03*
X16400000Y51300000D03*
X13860000Y51300000D03*
X11320000Y51300000D03*
X8780000Y51300000D03*
X6240000Y51300000D03*
X3700000Y51300000D03*
X1160000Y51300000D03*
%TD*%
M02*
