M48
; DRILL file {KiCad 6.0.4-6f826c9f35~116~ubuntu20.04.1} date Mon May 16 07:56:39 2022
; FORMAT={-:-/ absolute / metric / decimal}
; #@! TF.CreationDate,2022-05-16T07:56:39+00:00
; #@! TF.GenerationSoftware,Kicad,Pcbnew,6.0.4-6f826c9f35~116~ubuntu20.04.1
; #@! TF.FileFunction,Plated,1,2,PTH
FMAT,2
METRIC
; #@! TA.AperFunction,Plated,PTH,ViaDrill
T1C0.400
; #@! TA.AperFunction,Plated,PTH,ComponentDrill
T2C0.889
; #@! TA.AperFunction,Plated,PTH,ComponentDrill
T3C3.000
%
G90
G05
T1
X5.0Y48.8
X5.9Y48.7
X8.8Y55.7
X8.8Y54.7
X14.2Y55.4
X15.1Y54.6
X20.0Y38.0
X20.1Y45.4
X20.3Y53.7
X21.1Y38.0
X21.5Y44.7
X22.2Y20.6
X22.2Y17.8
X23.4Y20.6
X23.4Y17.8
X24.9Y30.4
X25.0Y38.0
X26.0Y38.0
X26.5Y25.9
X27.1Y38.0
X27.5Y25.9
X29.5Y31.2
X35.4Y49.3
X40.5Y45.0
X41.9Y35.0
X41.9Y31.6
X43.1Y35.0
X43.1Y31.6
X44.3Y35.0
X44.3Y31.6
T2
X1.16Y51.3
X1.17Y8.5
X3.7Y51.3
X3.71Y8.5
X6.24Y51.3
X6.25Y8.5
X7.69Y62.17
X7.69Y59.63
X8.78Y51.3
X10.23Y62.17
X10.23Y59.63
X11.32Y51.3
X12.77Y62.17
X12.77Y59.63
X13.86Y51.3
X15.31Y62.17
X15.31Y59.63
X16.4Y51.3
X18.94Y51.3
X21.06Y62.17
X21.06Y59.63
X21.48Y51.3
X23.6Y62.17
X23.6Y59.63
X24.02Y51.3
X26.14Y62.17
X26.14Y59.63
X26.56Y51.3
X29.1Y51.3
X31.64Y51.3
X31.92Y62.17
X31.92Y59.63
X34.18Y51.3
X34.46Y62.17
X34.46Y59.63
X36.72Y51.3
X37.0Y62.17
X37.0Y59.63
X37.06Y55.0
X39.26Y51.3
X39.54Y62.17
X39.54Y59.63
X39.6Y55.0
X41.8Y51.3
X42.08Y62.17
X42.08Y59.63
X42.14Y55.0
X44.34Y51.3
X44.35Y8.5
X46.88Y51.3
X46.89Y8.5
X49.42Y51.3
X49.43Y8.5
T3
X0.0Y60.96
X0.0Y0.0
X50.8Y60.96
X50.8Y0.0
T0
M30
