%TF.GenerationSoftware,KiCad,Pcbnew,6.0.4-6f826c9f35~116~ubuntu20.04.1*%
%TF.CreationDate,2022-05-15T20:00:56+00:00*%
%TF.ProjectId,OLED01A,4f4c4544-3031-4412-9e6b-696361645f70,rev?*%
%TF.SameCoordinates,PX72ba1e0PY737d6e0*%
%TF.FileFunction,Soldermask,Top*%
%TF.FilePolarity,Negative*%
%FSLAX46Y46*%
G04 Gerber Fmt 4.6, Leading zero omitted, Abs format (unit mm)*
G04 Created by KiCad (PCBNEW 6.0.4-6f826c9f35~116~ubuntu20.04.1) date 2022-05-15 20:00:56*
%MOMM*%
%LPD*%
G01*
G04 APERTURE LIST*
%ADD10C,6.000000*%
%ADD11R,1.700000X1.700000*%
%ADD12O,1.700000X1.700000*%
%ADD13R,1.524000X1.524000*%
G04 APERTURE END LIST*
D10*
%TO.C,H2*%
X50800000Y0D03*
%TD*%
%TO.C,H4*%
X0Y0D03*
%TD*%
D11*
%TO.C,J4*%
X31950000Y59575000D03*
D12*
X31950000Y62115000D03*
X34490000Y59575000D03*
X34490000Y62115000D03*
X37030000Y59575000D03*
X37030000Y62115000D03*
X39570000Y59575000D03*
X39570000Y62115000D03*
X42110000Y59575000D03*
X42110000Y62115000D03*
%TD*%
D11*
%TO.C,J2*%
X37075000Y55000000D03*
D12*
X39615000Y55000000D03*
X42155000Y55000000D03*
%TD*%
D11*
%TO.C,J1*%
X15320000Y62000000D03*
D12*
X15320000Y59460000D03*
X12780000Y62000000D03*
X12780000Y59460000D03*
X10240000Y62000000D03*
X10240000Y59460000D03*
X7700000Y62000000D03*
X7700000Y59460000D03*
%TD*%
D10*
%TO.C,H3*%
X0Y60960000D03*
%TD*%
%TO.C,H1*%
X50800000Y60960000D03*
%TD*%
D13*
%TO.C,DISP1*%
X1170000Y8500000D03*
X3710000Y8500000D03*
X6250000Y8500000D03*
X44350000Y8500000D03*
X46890000Y8500000D03*
X49430000Y8500000D03*
X49420000Y51300000D03*
X46880000Y51300000D03*
X44340000Y51300000D03*
X41800000Y51300000D03*
X39260000Y51300000D03*
X36720000Y51300000D03*
X34180000Y51300000D03*
X31640000Y51300000D03*
X29100000Y51300000D03*
X26560000Y51300000D03*
X24020000Y51300000D03*
X21480000Y51300000D03*
X18940000Y51300000D03*
X16400000Y51300000D03*
X13860000Y51300000D03*
X11320000Y51300000D03*
X8780000Y51300000D03*
X6240000Y51300000D03*
X3700000Y51300000D03*
X1160000Y51300000D03*
%TD*%
D11*
%TO.C,J3*%
X26100000Y62100000D03*
D12*
X26100000Y59560000D03*
X23560000Y62100000D03*
X23560000Y59560000D03*
X21020000Y62100000D03*
X21020000Y59560000D03*
%TD*%
M02*
