%TF.GenerationSoftware,KiCad,Pcbnew,6.0.4-6f826c9f35~116~ubuntu20.04.1*%
%TF.CreationDate,2022-05-16T08:47:42+00:00*%
%TF.ProjectId,OLED01A,4f4c4544-3031-4412-9e6b-696361645f70,rev?*%
%TF.SameCoordinates,PX72ba1e0PY737d6e0*%
%TF.FileFunction,Copper,L1,Top*%
%TF.FilePolarity,Positive*%
%FSLAX46Y46*%
G04 Gerber Fmt 4.6, Leading zero omitted, Abs format (unit mm)*
G04 Created by KiCad (PCBNEW 6.0.4-6f826c9f35~116~ubuntu20.04.1) date 2022-05-16 08:47:42*
%MOMM*%
%LPD*%
G01*
G04 APERTURE LIST*
%TA.AperFunction,ComponentPad*%
%ADD10C,6.000000*%
%TD*%
%TA.AperFunction,ComponentPad*%
%ADD11R,1.524000X1.524000*%
%TD*%
%TA.AperFunction,ViaPad*%
%ADD12C,0.800000*%
%TD*%
%TA.AperFunction,Conductor*%
%ADD13C,0.400000*%
%TD*%
G04 APERTURE END LIST*
D10*
%TO.P,H2,1,1*%
%TO.N,GND*%
X50800000Y0D03*
%TD*%
%TO.P,H4,1,1*%
%TO.N,GND*%
X0Y0D03*
%TD*%
D11*
%TO.P,J4,1*%
%TO.N,GND*%
X31920000Y59630000D03*
%TO.P,J4,2*%
X31920000Y62170000D03*
%TO.P,J4,3*%
%TO.N,/D1*%
X34460000Y59630000D03*
%TO.P,J4,4*%
X34460000Y62170000D03*
%TO.P,J4,5*%
%TO.N,+3V3*%
X37000000Y59630000D03*
%TO.P,J4,6*%
X37000000Y62170000D03*
%TO.P,J4,7*%
%TO.N,/CLK*%
X39540000Y59630000D03*
%TO.P,J4,8*%
X39540000Y62170000D03*
%TO.P,J4,9*%
%TO.N,GND*%
X42080000Y59630000D03*
%TO.P,J4,10*%
X42080000Y62170000D03*
%TD*%
%TO.P,J3,1*%
%TO.N,+3V3*%
X37060000Y55000000D03*
%TO.P,J3,2*%
%TO.N,/DC*%
X39600000Y55000000D03*
%TO.P,J3,3*%
%TO.N,GND*%
X42140000Y55000000D03*
%TD*%
%TO.P,J2,1*%
%TO.N,/D1*%
X15310000Y62170000D03*
%TO.P,J2,2*%
X15310000Y59630000D03*
%TO.P,J2,3*%
%TO.N,/CLK*%
X12770000Y62170000D03*
%TO.P,J2,4*%
X12770000Y59630000D03*
%TO.P,J2,5*%
%TO.N,/#CS*%
X10230000Y62170000D03*
%TO.P,J2,6*%
X10230000Y59630000D03*
%TO.P,J2,7*%
%TO.N,/#RES*%
X7690000Y62170000D03*
%TO.P,J2,8*%
X7690000Y59630000D03*
%TD*%
D10*
%TO.P,H3,1,1*%
%TO.N,GND*%
X0Y60960000D03*
%TD*%
%TO.P,H1,1,1*%
%TO.N,GND*%
X50800000Y60960000D03*
%TD*%
D11*
%TO.P,DISP1,1,ESD_GND*%
%TO.N,GND*%
X1170000Y8500000D03*
%TO.P,DISP1,2*%
%TO.N,unconnected-(DISP1-Pad2)*%
X3710000Y8500000D03*
%TO.P,DISP1,3*%
%TO.N,unconnected-(DISP1-Pad3)*%
X6250000Y8500000D03*
%TO.P,DISP1,18*%
%TO.N,unconnected-(DISP1-Pad18)*%
X44350000Y8500000D03*
%TO.P,DISP1,19*%
%TO.N,unconnected-(DISP1-Pad19)*%
X46890000Y8500000D03*
%TO.P,DISP1,20,ESD_GND*%
%TO.N,GND*%
X49430000Y8500000D03*
%TO.P,DISP1,21,VCC*%
%TO.N,+12V*%
X49420000Y51300000D03*
%TO.P,DISP1,22,VCC*%
X46880000Y51300000D03*
%TO.P,DISP1,23,GND*%
%TO.N,GND*%
X44340000Y51300000D03*
%TO.P,DISP1,24,GND*%
X41800000Y51300000D03*
%TO.P,DISP1,25,VDD*%
%TO.N,+3V3*%
X39260000Y51300000D03*
%TO.P,DISP1,26,BS0*%
%TO.N,/BS0*%
X36720000Y51300000D03*
%TO.P,DISP1,27,BS1*%
%TO.N,/BS1*%
X34180000Y51300000D03*
%TO.P,DISP1,28,GND*%
%TO.N,GND*%
X31640000Y51300000D03*
%TO.P,DISP1,29,#CS*%
%TO.N,/#CS*%
X29100000Y51300000D03*
%TO.P,DISP1,30,#RES*%
%TO.N,/#RES*%
X26560000Y51300000D03*
%TO.P,DISP1,31,D/C*%
%TO.N,/DC*%
X24020000Y51300000D03*
%TO.P,DISP1,32,D0*%
%TO.N,/CLK*%
X21480000Y51300000D03*
%TO.P,DISP1,33,D1*%
%TO.N,/D1*%
X18940000Y51300000D03*
%TO.P,DISP1,34,D2*%
%TO.N,/D2*%
X16400000Y51300000D03*
%TO.P,DISP1,35,GND*%
%TO.N,GND*%
X13860000Y51300000D03*
%TO.P,DISP1,36,IRef*%
%TO.N,Net-(DISP1-Pad36)*%
X11320000Y51300000D03*
%TO.P,DISP1,37,VCOMH*%
%TO.N,Net-(C4-Pad1)*%
X8780000Y51300000D03*
%TO.P,DISP1,38,VCOMH*%
X6240000Y51300000D03*
%TO.P,DISP1,39,VCC*%
%TO.N,+12V*%
X3700000Y51300000D03*
%TO.P,DISP1,40,VCC*%
X1160000Y51300000D03*
%TD*%
%TO.P,J1,1*%
%TO.N,GND*%
X26140000Y62170000D03*
%TO.P,J1,2*%
X26140000Y59630000D03*
%TO.P,J1,3*%
%TO.N,+3V3*%
X23600000Y62170000D03*
%TO.P,J1,4*%
X23600000Y59630000D03*
%TO.P,J1,5*%
%TO.N,GND*%
X21060000Y62170000D03*
%TO.P,J1,6*%
X21060000Y59630000D03*
%TD*%
D12*
%TO.N,GND*%
X14200000Y55400000D03*
X8800000Y55700000D03*
X20000000Y38000000D03*
X26000000Y38000000D03*
X25000000Y38000000D03*
X23400000Y20600000D03*
X8800000Y54700000D03*
X41900000Y31600000D03*
X29500000Y31200000D03*
X5000000Y48800000D03*
X27100000Y38000000D03*
X15100000Y54600000D03*
X22200000Y17800000D03*
X43100000Y31600000D03*
X21100000Y38000000D03*
X44300000Y31600000D03*
X41900000Y35000000D03*
X27500000Y25900000D03*
X35400000Y49300000D03*
X23400000Y17800000D03*
X44300000Y35000000D03*
X22200000Y20600000D03*
X26500000Y25900000D03*
X5900000Y48700000D03*
X43100000Y35000000D03*
X24900000Y30400000D03*
%TO.N,/BS0*%
X40500000Y45000000D03*
%TO.N,/#CS*%
X21500000Y44700000D03*
%TO.N,/#RES*%
X20100000Y45400000D03*
%TO.N,/CLK*%
X20300000Y53700000D03*
%TD*%
D13*
%TO.N,/BS0*%
X40500000Y45000000D02*
X36720000Y48780000D01*
X36720000Y48780000D02*
X36720000Y51300000D01*
%TO.N,/#CS*%
X21500000Y44700000D02*
X24100000Y44700000D01*
X10240000Y59460000D02*
X10240000Y62000000D01*
X24100000Y44700000D02*
X29100000Y49700000D01*
X29100000Y49700000D02*
X29100000Y51300000D01*
%TO.N,/#RES*%
X23600000Y45600000D02*
X26560000Y48560000D01*
X20100000Y45400000D02*
X20300000Y45600000D01*
X26560000Y48560000D02*
X26560000Y51300000D01*
X20300000Y45600000D02*
X23600000Y45600000D01*
%TO.N,/DC*%
X35375978Y54200000D02*
X35825489Y53750489D01*
X24120000Y51880000D02*
X26440000Y54200000D01*
X38365489Y53750489D02*
X39615000Y55000000D01*
X35825489Y53750489D02*
X38365489Y53750489D01*
X26440000Y54200000D02*
X35375978Y54200000D01*
%TO.N,/CLK*%
X20500000Y53900000D02*
X20300000Y53700000D01*
X12780000Y62000000D02*
X12780000Y59460000D01*
X37595000Y57600000D02*
X35600000Y57600000D01*
X39570000Y62115000D02*
X39570000Y59575000D01*
X21580000Y53180000D02*
X21580000Y51880000D01*
X39570000Y59575000D02*
X37595000Y57600000D01*
X33200000Y55200000D02*
X23600000Y55200000D01*
X23600000Y55200000D02*
X22300000Y53900000D01*
X22300000Y53900000D02*
X20500000Y53900000D01*
X22300000Y53900000D02*
X21580000Y53180000D01*
X35600000Y57600000D02*
X33200000Y55200000D01*
%TO.N,/D1*%
X20400000Y56100000D02*
X20150000Y55850000D01*
X34400000Y59485000D02*
X34400000Y58400000D01*
X19550000Y55250000D02*
X19040000Y54740000D01*
X34400000Y58400000D02*
X32100000Y56100000D01*
X19530000Y55250000D02*
X19550000Y55250000D01*
X34490000Y59575000D02*
X34400000Y59485000D01*
X20150000Y55850000D02*
X19550000Y55250000D01*
X15320000Y59460000D02*
X19530000Y55250000D01*
X32100000Y56100000D02*
X20400000Y56100000D01*
X19040000Y54740000D02*
X19040000Y51880000D01*
%TD*%
%TA.AperFunction,Conductor*%
%TO.N,GND*%
G36*
X55231191Y65413093D02*
G01*
X55267155Y65363593D01*
X55272000Y65333000D01*
X55272000Y-4373000D01*
X55253093Y-4431191D01*
X55203593Y-4467155D01*
X55173000Y-4472000D01*
X-4373000Y-4472000D01*
X-4431191Y-4453093D01*
X-4467155Y-4403593D01*
X-4472000Y-4373000D01*
X-4472000Y7718234D01*
X158000Y7718234D01*
X158948Y7708612D01*
X170603Y7650017D01*
X177922Y7632349D01*
X222341Y7565870D01*
X235870Y7552341D01*
X302349Y7507922D01*
X320017Y7500603D01*
X378612Y7488948D01*
X388234Y7488000D01*
X900320Y7488000D01*
X913005Y7492122D01*
X916000Y7496243D01*
X916000Y7503680D01*
X1424000Y7503680D01*
X1428122Y7490995D01*
X1432243Y7488000D01*
X1951766Y7488000D01*
X1961388Y7488948D01*
X2019983Y7500603D01*
X2037651Y7507922D01*
X2104130Y7552341D01*
X2117659Y7565870D01*
X2162078Y7632349D01*
X2169397Y7650017D01*
X2177323Y7689866D01*
X2439500Y7689866D01*
X2446255Y7627684D01*
X2448435Y7621869D01*
X2493896Y7500603D01*
X2497385Y7491295D01*
X2584739Y7374739D01*
X2701295Y7287385D01*
X2837684Y7236255D01*
X2843856Y7235585D01*
X2843858Y7235584D01*
X2879837Y7231676D01*
X2899866Y7229500D01*
X4520134Y7229500D01*
X4540163Y7231676D01*
X4576142Y7235584D01*
X4576144Y7235585D01*
X4582316Y7236255D01*
X4718705Y7287385D01*
X4835261Y7374739D01*
X4839491Y7380383D01*
X4839495Y7380387D01*
X4900780Y7462159D01*
X4950808Y7497384D01*
X5011986Y7496476D01*
X5059220Y7462159D01*
X5120505Y7380387D01*
X5120509Y7380383D01*
X5124739Y7374739D01*
X5241295Y7287385D01*
X5377684Y7236255D01*
X5383856Y7235585D01*
X5383858Y7235584D01*
X5419837Y7231676D01*
X5439866Y7229500D01*
X7060134Y7229500D01*
X7080163Y7231676D01*
X7116142Y7235584D01*
X7116144Y7235585D01*
X7122316Y7236255D01*
X7258705Y7287385D01*
X7375261Y7374739D01*
X7462615Y7491295D01*
X7466105Y7500603D01*
X7511565Y7621869D01*
X7513745Y7627684D01*
X7520500Y7689866D01*
X43079500Y7689866D01*
X43086255Y7627684D01*
X43088435Y7621869D01*
X43133896Y7500603D01*
X43137385Y7491295D01*
X43224739Y7374739D01*
X43341295Y7287385D01*
X43477684Y7236255D01*
X43483856Y7235585D01*
X43483858Y7235584D01*
X43519837Y7231676D01*
X43539866Y7229500D01*
X45160134Y7229500D01*
X45180163Y7231676D01*
X45216142Y7235584D01*
X45216144Y7235585D01*
X45222316Y7236255D01*
X45358705Y7287385D01*
X45475261Y7374739D01*
X45479491Y7380383D01*
X45479495Y7380387D01*
X45540780Y7462159D01*
X45590808Y7497384D01*
X45651986Y7496476D01*
X45699220Y7462159D01*
X45760505Y7380387D01*
X45760509Y7380383D01*
X45764739Y7374739D01*
X45881295Y7287385D01*
X46017684Y7236255D01*
X46023856Y7235585D01*
X46023858Y7235584D01*
X46059837Y7231676D01*
X46079866Y7229500D01*
X47700134Y7229500D01*
X47720163Y7231676D01*
X47756142Y7235584D01*
X47756144Y7235585D01*
X47762316Y7236255D01*
X47898705Y7287385D01*
X48015261Y7374739D01*
X48102615Y7491295D01*
X48106105Y7500603D01*
X48151565Y7621869D01*
X48153745Y7627684D01*
X48160500Y7689866D01*
X48160500Y7718234D01*
X48418000Y7718234D01*
X48418948Y7708612D01*
X48430603Y7650017D01*
X48437922Y7632349D01*
X48482341Y7565870D01*
X48495870Y7552341D01*
X48562349Y7507922D01*
X48580017Y7500603D01*
X48638612Y7488948D01*
X48648234Y7488000D01*
X49160320Y7488000D01*
X49173005Y7492122D01*
X49176000Y7496243D01*
X49176000Y7503680D01*
X49684000Y7503680D01*
X49688122Y7490995D01*
X49692243Y7488000D01*
X50211766Y7488000D01*
X50221388Y7488948D01*
X50279983Y7500603D01*
X50297651Y7507922D01*
X50364130Y7552341D01*
X50377659Y7565870D01*
X50422078Y7632349D01*
X50429397Y7650017D01*
X50441052Y7708612D01*
X50442000Y7718234D01*
X50442000Y8230320D01*
X50437878Y8243005D01*
X50433757Y8246000D01*
X49699680Y8246000D01*
X49686995Y8241878D01*
X49684000Y8237757D01*
X49684000Y7503680D01*
X49176000Y7503680D01*
X49176000Y8230320D01*
X49171878Y8243005D01*
X49167757Y8246000D01*
X48433680Y8246000D01*
X48420995Y8241878D01*
X48418000Y8237757D01*
X48418000Y7718234D01*
X48160500Y7718234D01*
X48160500Y8769680D01*
X48418000Y8769680D01*
X48422122Y8756995D01*
X48426243Y8754000D01*
X49160320Y8754000D01*
X49173005Y8758122D01*
X49176000Y8762243D01*
X49176000Y8769680D01*
X49684000Y8769680D01*
X49688122Y8756995D01*
X49692243Y8754000D01*
X50426320Y8754000D01*
X50439005Y8758122D01*
X50442000Y8762243D01*
X50442000Y9281766D01*
X50441052Y9291388D01*
X50429397Y9349983D01*
X50422078Y9367651D01*
X50377659Y9434130D01*
X50364130Y9447659D01*
X50297651Y9492078D01*
X50279983Y9499397D01*
X50221388Y9511052D01*
X50211766Y9512000D01*
X49699680Y9512000D01*
X49686995Y9507878D01*
X49684000Y9503757D01*
X49684000Y8769680D01*
X49176000Y8769680D01*
X49176000Y9496320D01*
X49171878Y9509005D01*
X49167757Y9512000D01*
X48648234Y9512000D01*
X48638612Y9511052D01*
X48580017Y9499397D01*
X48562349Y9492078D01*
X48495870Y9447659D01*
X48482341Y9434130D01*
X48437922Y9367651D01*
X48430603Y9349983D01*
X48418948Y9291388D01*
X48418000Y9281766D01*
X48418000Y8769680D01*
X48160500Y8769680D01*
X48160500Y9310134D01*
X48153745Y9372316D01*
X48107258Y9496320D01*
X48105089Y9502106D01*
X48105089Y9502107D01*
X48102615Y9508705D01*
X48015261Y9625261D01*
X47898705Y9712615D01*
X47762316Y9763745D01*
X47756144Y9764415D01*
X47756142Y9764416D01*
X47720163Y9768324D01*
X47700134Y9770500D01*
X46079866Y9770500D01*
X46059837Y9768324D01*
X46023858Y9764416D01*
X46023856Y9764415D01*
X46017684Y9763745D01*
X45881295Y9712615D01*
X45764739Y9625261D01*
X45760509Y9619617D01*
X45760505Y9619613D01*
X45699220Y9537841D01*
X45649192Y9502616D01*
X45588014Y9503524D01*
X45540780Y9537841D01*
X45479495Y9619613D01*
X45479491Y9619617D01*
X45475261Y9625261D01*
X45358705Y9712615D01*
X45222316Y9763745D01*
X45216144Y9764415D01*
X45216142Y9764416D01*
X45180163Y9768324D01*
X45160134Y9770500D01*
X43539866Y9770500D01*
X43519837Y9768324D01*
X43483858Y9764416D01*
X43483856Y9764415D01*
X43477684Y9763745D01*
X43341295Y9712615D01*
X43224739Y9625261D01*
X43137385Y9508705D01*
X43134911Y9502107D01*
X43134911Y9502106D01*
X43132742Y9496320D01*
X43086255Y9372316D01*
X43079500Y9310134D01*
X43079500Y7689866D01*
X7520500Y7689866D01*
X7520500Y9310134D01*
X7513745Y9372316D01*
X7467258Y9496320D01*
X7465089Y9502106D01*
X7465089Y9502107D01*
X7462615Y9508705D01*
X7375261Y9625261D01*
X7258705Y9712615D01*
X7122316Y9763745D01*
X7116144Y9764415D01*
X7116142Y9764416D01*
X7080163Y9768324D01*
X7060134Y9770500D01*
X5439866Y9770500D01*
X5419837Y9768324D01*
X5383858Y9764416D01*
X5383856Y9764415D01*
X5377684Y9763745D01*
X5241295Y9712615D01*
X5124739Y9625261D01*
X5120509Y9619617D01*
X5120505Y9619613D01*
X5059220Y9537841D01*
X5009192Y9502616D01*
X4948014Y9503524D01*
X4900780Y9537841D01*
X4839495Y9619613D01*
X4839491Y9619617D01*
X4835261Y9625261D01*
X4718705Y9712615D01*
X4582316Y9763745D01*
X4576144Y9764415D01*
X4576142Y9764416D01*
X4540163Y9768324D01*
X4520134Y9770500D01*
X2899866Y9770500D01*
X2879837Y9768324D01*
X2843858Y9764416D01*
X2843856Y9764415D01*
X2837684Y9763745D01*
X2701295Y9712615D01*
X2584739Y9625261D01*
X2497385Y9508705D01*
X2494911Y9502107D01*
X2494911Y9502106D01*
X2492742Y9496320D01*
X2446255Y9372316D01*
X2439500Y9310134D01*
X2439500Y7689866D01*
X2177323Y7689866D01*
X2181052Y7708612D01*
X2182000Y7718234D01*
X2182000Y8230320D01*
X2177878Y8243005D01*
X2173757Y8246000D01*
X1439680Y8246000D01*
X1426995Y8241878D01*
X1424000Y8237757D01*
X1424000Y7503680D01*
X916000Y7503680D01*
X916000Y8230320D01*
X911878Y8243005D01*
X907757Y8246000D01*
X173680Y8246000D01*
X160995Y8241878D01*
X158000Y8237757D01*
X158000Y7718234D01*
X-4472000Y7718234D01*
X-4472000Y8769680D01*
X158000Y8769680D01*
X162122Y8756995D01*
X166243Y8754000D01*
X900320Y8754000D01*
X913005Y8758122D01*
X916000Y8762243D01*
X916000Y8769680D01*
X1424000Y8769680D01*
X1428122Y8756995D01*
X1432243Y8754000D01*
X2166320Y8754000D01*
X2179005Y8758122D01*
X2182000Y8762243D01*
X2182000Y9281766D01*
X2181052Y9291388D01*
X2169397Y9349983D01*
X2162078Y9367651D01*
X2117659Y9434130D01*
X2104130Y9447659D01*
X2037651Y9492078D01*
X2019983Y9499397D01*
X1961388Y9511052D01*
X1951766Y9512000D01*
X1439680Y9512000D01*
X1426995Y9507878D01*
X1424000Y9503757D01*
X1424000Y8769680D01*
X916000Y8769680D01*
X916000Y9496320D01*
X911878Y9509005D01*
X907757Y9512000D01*
X388234Y9512000D01*
X378612Y9511052D01*
X320017Y9499397D01*
X302349Y9492078D01*
X235870Y9447659D01*
X222341Y9434130D01*
X177922Y9367651D01*
X170603Y9349983D01*
X158948Y9291388D01*
X158000Y9281766D01*
X158000Y8769680D01*
X-4472000Y8769680D01*
X-4472000Y50489866D01*
X-110500Y50489866D01*
X-103745Y50427684D01*
X-101565Y50421869D01*
X-56104Y50300603D01*
X-52615Y50291295D01*
X34739Y50174739D01*
X151295Y50087385D01*
X287684Y50036255D01*
X293856Y50035585D01*
X293858Y50035584D01*
X329837Y50031676D01*
X349866Y50029500D01*
X1970134Y50029500D01*
X1990163Y50031676D01*
X2026142Y50035584D01*
X2026144Y50035585D01*
X2032316Y50036255D01*
X2168705Y50087385D01*
X2285261Y50174739D01*
X2289491Y50180383D01*
X2289495Y50180387D01*
X2350780Y50262159D01*
X2400808Y50297384D01*
X2461986Y50296476D01*
X2509220Y50262159D01*
X2570505Y50180387D01*
X2570509Y50180383D01*
X2574739Y50174739D01*
X2691295Y50087385D01*
X2827684Y50036255D01*
X2833856Y50035585D01*
X2833858Y50035584D01*
X2869837Y50031676D01*
X2889866Y50029500D01*
X4510134Y50029500D01*
X4530163Y50031676D01*
X4566142Y50035584D01*
X4566144Y50035585D01*
X4572316Y50036255D01*
X4708705Y50087385D01*
X4825261Y50174739D01*
X4829491Y50180383D01*
X4829495Y50180387D01*
X4890780Y50262159D01*
X4940808Y50297384D01*
X5001986Y50296476D01*
X5049220Y50262159D01*
X5110505Y50180387D01*
X5110509Y50180383D01*
X5114739Y50174739D01*
X5231295Y50087385D01*
X5367684Y50036255D01*
X5373856Y50035585D01*
X5373858Y50035584D01*
X5409837Y50031676D01*
X5429866Y50029500D01*
X7050134Y50029500D01*
X7070163Y50031676D01*
X7106142Y50035584D01*
X7106144Y50035585D01*
X7112316Y50036255D01*
X7248705Y50087385D01*
X7365261Y50174739D01*
X7369491Y50180383D01*
X7369495Y50180387D01*
X7430780Y50262159D01*
X7480808Y50297384D01*
X7541986Y50296476D01*
X7589220Y50262159D01*
X7650505Y50180387D01*
X7650509Y50180383D01*
X7654739Y50174739D01*
X7771295Y50087385D01*
X7907684Y50036255D01*
X7913856Y50035585D01*
X7913858Y50035584D01*
X7949837Y50031676D01*
X7969866Y50029500D01*
X9590134Y50029500D01*
X9610163Y50031676D01*
X9646142Y50035584D01*
X9646144Y50035585D01*
X9652316Y50036255D01*
X9788705Y50087385D01*
X9905261Y50174739D01*
X9909491Y50180383D01*
X9909495Y50180387D01*
X9970780Y50262159D01*
X10020808Y50297384D01*
X10081986Y50296476D01*
X10129220Y50262159D01*
X10190505Y50180387D01*
X10190509Y50180383D01*
X10194739Y50174739D01*
X10311295Y50087385D01*
X10447684Y50036255D01*
X10453856Y50035585D01*
X10453858Y50035584D01*
X10489837Y50031676D01*
X10509866Y50029500D01*
X12130134Y50029500D01*
X12150163Y50031676D01*
X12186142Y50035584D01*
X12186144Y50035585D01*
X12192316Y50036255D01*
X12328705Y50087385D01*
X12445261Y50174739D01*
X12532615Y50291295D01*
X12536105Y50300603D01*
X12581565Y50421869D01*
X12583745Y50427684D01*
X12590500Y50489866D01*
X12590500Y50518234D01*
X12848000Y50518234D01*
X12848948Y50508612D01*
X12860603Y50450017D01*
X12867922Y50432349D01*
X12912341Y50365870D01*
X12925870Y50352341D01*
X12992349Y50307922D01*
X13010017Y50300603D01*
X13068612Y50288948D01*
X13078234Y50288000D01*
X13590320Y50288000D01*
X13603005Y50292122D01*
X13606000Y50296243D01*
X13606000Y50303680D01*
X14114000Y50303680D01*
X14118122Y50290995D01*
X14122243Y50288000D01*
X14641766Y50288000D01*
X14651388Y50288948D01*
X14709983Y50300603D01*
X14727651Y50307922D01*
X14794130Y50352341D01*
X14807659Y50365870D01*
X14852078Y50432349D01*
X14859397Y50450017D01*
X14871052Y50508612D01*
X14872000Y50518234D01*
X14872000Y51030320D01*
X14867878Y51043005D01*
X14863757Y51046000D01*
X14129680Y51046000D01*
X14116995Y51041878D01*
X14114000Y51037757D01*
X14114000Y50303680D01*
X13606000Y50303680D01*
X13606000Y51030320D01*
X13601878Y51043005D01*
X13597757Y51046000D01*
X12863680Y51046000D01*
X12850995Y51041878D01*
X12848000Y51037757D01*
X12848000Y50518234D01*
X12590500Y50518234D01*
X12590500Y51569680D01*
X12848000Y51569680D01*
X12852122Y51556995D01*
X12856243Y51554000D01*
X13590320Y51554000D01*
X13603005Y51558122D01*
X13606000Y51562243D01*
X13606000Y51569680D01*
X14114000Y51569680D01*
X14118122Y51556995D01*
X14122243Y51554000D01*
X14856320Y51554000D01*
X14869005Y51558122D01*
X14872000Y51562243D01*
X14872000Y52081766D01*
X14871052Y52091388D01*
X14859397Y52149983D01*
X14852078Y52167651D01*
X14807659Y52234130D01*
X14794130Y52247659D01*
X14727651Y52292078D01*
X14709983Y52299397D01*
X14651388Y52311052D01*
X14641766Y52312000D01*
X14129680Y52312000D01*
X14116995Y52307878D01*
X14114000Y52303757D01*
X14114000Y51569680D01*
X13606000Y51569680D01*
X13606000Y52296320D01*
X13601878Y52309005D01*
X13597757Y52312000D01*
X13078234Y52312000D01*
X13068612Y52311052D01*
X13010017Y52299397D01*
X12992349Y52292078D01*
X12925870Y52247659D01*
X12912341Y52234130D01*
X12867922Y52167651D01*
X12860603Y52149983D01*
X12848948Y52091388D01*
X12848000Y52081766D01*
X12848000Y51569680D01*
X12590500Y51569680D01*
X12590500Y52110134D01*
X12583745Y52172316D01*
X12537258Y52296320D01*
X12535089Y52302106D01*
X12535089Y52302107D01*
X12532615Y52308705D01*
X12445261Y52425261D01*
X12328705Y52512615D01*
X12192316Y52563745D01*
X12186144Y52564415D01*
X12186142Y52564416D01*
X12150163Y52568324D01*
X12130134Y52570500D01*
X10509866Y52570500D01*
X10489837Y52568324D01*
X10453858Y52564416D01*
X10453856Y52564415D01*
X10447684Y52563745D01*
X10311295Y52512615D01*
X10194739Y52425261D01*
X10190509Y52419617D01*
X10190505Y52419613D01*
X10129220Y52337841D01*
X10079192Y52302616D01*
X10018014Y52303524D01*
X9970780Y52337841D01*
X9909495Y52419613D01*
X9909491Y52419617D01*
X9905261Y52425261D01*
X9788705Y52512615D01*
X9652316Y52563745D01*
X9646144Y52564415D01*
X9646142Y52564416D01*
X9610163Y52568324D01*
X9590134Y52570500D01*
X7969866Y52570500D01*
X7949837Y52568324D01*
X7913858Y52564416D01*
X7913856Y52564415D01*
X7907684Y52563745D01*
X7771295Y52512615D01*
X7654739Y52425261D01*
X7650509Y52419617D01*
X7650505Y52419613D01*
X7589220Y52337841D01*
X7539192Y52302616D01*
X7478014Y52303524D01*
X7430780Y52337841D01*
X7369495Y52419613D01*
X7369491Y52419617D01*
X7365261Y52425261D01*
X7248705Y52512615D01*
X7112316Y52563745D01*
X7106144Y52564415D01*
X7106142Y52564416D01*
X7070163Y52568324D01*
X7050134Y52570500D01*
X5429866Y52570500D01*
X5409837Y52568324D01*
X5373858Y52564416D01*
X5373856Y52564415D01*
X5367684Y52563745D01*
X5231295Y52512615D01*
X5114739Y52425261D01*
X5110509Y52419617D01*
X5110505Y52419613D01*
X5049220Y52337841D01*
X4999192Y52302616D01*
X4938014Y52303524D01*
X4890780Y52337841D01*
X4829495Y52419613D01*
X4829491Y52419617D01*
X4825261Y52425261D01*
X4708705Y52512615D01*
X4572316Y52563745D01*
X4566144Y52564415D01*
X4566142Y52564416D01*
X4530163Y52568324D01*
X4510134Y52570500D01*
X2889866Y52570500D01*
X2869837Y52568324D01*
X2833858Y52564416D01*
X2833856Y52564415D01*
X2827684Y52563745D01*
X2691295Y52512615D01*
X2574739Y52425261D01*
X2570509Y52419617D01*
X2570505Y52419613D01*
X2509220Y52337841D01*
X2459192Y52302616D01*
X2398014Y52303524D01*
X2350780Y52337841D01*
X2289495Y52419613D01*
X2289491Y52419617D01*
X2285261Y52425261D01*
X2168705Y52512615D01*
X2032316Y52563745D01*
X2026144Y52564415D01*
X2026142Y52564416D01*
X1990163Y52568324D01*
X1970134Y52570500D01*
X349866Y52570500D01*
X329837Y52568324D01*
X293858Y52564416D01*
X293856Y52564415D01*
X287684Y52563745D01*
X151295Y52512615D01*
X34739Y52425261D01*
X-52615Y52308705D01*
X-55089Y52302107D01*
X-55089Y52302106D01*
X-57258Y52296320D01*
X-103745Y52172316D01*
X-110500Y52110134D01*
X-110500Y50489866D01*
X-4472000Y50489866D01*
X-4472000Y58819866D01*
X6419500Y58819866D01*
X6426255Y58757684D01*
X6428435Y58751869D01*
X6473896Y58630603D01*
X6477385Y58621295D01*
X6564739Y58504739D01*
X6681295Y58417385D01*
X6817684Y58366255D01*
X6823856Y58365585D01*
X6823858Y58365584D01*
X6859837Y58361676D01*
X6879866Y58359500D01*
X8500134Y58359500D01*
X8520163Y58361676D01*
X8556142Y58365584D01*
X8556144Y58365585D01*
X8562316Y58366255D01*
X8698705Y58417385D01*
X8815261Y58504739D01*
X8819491Y58510383D01*
X8819495Y58510387D01*
X8880780Y58592159D01*
X8930808Y58627384D01*
X8991986Y58626476D01*
X9039220Y58592159D01*
X9100505Y58510387D01*
X9100509Y58510383D01*
X9104739Y58504739D01*
X9221295Y58417385D01*
X9357684Y58366255D01*
X9363856Y58365585D01*
X9363858Y58365584D01*
X9399837Y58361676D01*
X9419866Y58359500D01*
X11040134Y58359500D01*
X11060163Y58361676D01*
X11096142Y58365584D01*
X11096144Y58365585D01*
X11102316Y58366255D01*
X11238705Y58417385D01*
X11355261Y58504739D01*
X11359491Y58510383D01*
X11359495Y58510387D01*
X11420780Y58592159D01*
X11470808Y58627384D01*
X11531986Y58626476D01*
X11579220Y58592159D01*
X11640505Y58510387D01*
X11640509Y58510383D01*
X11644739Y58504739D01*
X11761295Y58417385D01*
X11897684Y58366255D01*
X11903856Y58365585D01*
X11903858Y58365584D01*
X11939837Y58361676D01*
X11959866Y58359500D01*
X13580134Y58359500D01*
X13600163Y58361676D01*
X13636142Y58365584D01*
X13636144Y58365585D01*
X13642316Y58366255D01*
X13778705Y58417385D01*
X13895261Y58504739D01*
X13899491Y58510383D01*
X13899495Y58510387D01*
X13960780Y58592159D01*
X14010808Y58627384D01*
X14071986Y58626476D01*
X14119220Y58592159D01*
X14180505Y58510387D01*
X14180509Y58510383D01*
X14184739Y58504739D01*
X14301295Y58417385D01*
X14437684Y58366255D01*
X14443856Y58365585D01*
X14443858Y58365584D01*
X14479837Y58361676D01*
X14499866Y58359500D01*
X15377522Y58359500D01*
X15435713Y58340593D01*
X15447526Y58330504D01*
X18471759Y55306270D01*
X18499536Y55251753D01*
X18489965Y55191321D01*
X18482755Y55179344D01*
X18472469Y55164707D01*
X18469376Y55160543D01*
X18429524Y55109718D01*
X18427069Y55104280D01*
X18425653Y55101145D01*
X18416421Y55084959D01*
X18411010Y55077261D01*
X18387534Y55017047D01*
X18385543Y55012313D01*
X18358955Y54953427D01*
X18357868Y54947562D01*
X18357866Y54947556D01*
X18357240Y54944176D01*
X18352137Y54926262D01*
X18348718Y54917491D01*
X18346422Y54900052D01*
X18340286Y54853445D01*
X18339475Y54848326D01*
X18333891Y54818197D01*
X18327704Y54784814D01*
X18330846Y54730320D01*
X18331336Y54721828D01*
X18331500Y54716129D01*
X18331500Y52669500D01*
X18312593Y52611309D01*
X18263093Y52575345D01*
X18232500Y52570500D01*
X18129866Y52570500D01*
X18109837Y52568324D01*
X18073858Y52564416D01*
X18073856Y52564415D01*
X18067684Y52563745D01*
X17931295Y52512615D01*
X17814739Y52425261D01*
X17810509Y52419617D01*
X17810505Y52419613D01*
X17749220Y52337841D01*
X17699192Y52302616D01*
X17638014Y52303524D01*
X17590780Y52337841D01*
X17529495Y52419613D01*
X17529491Y52419617D01*
X17525261Y52425261D01*
X17408705Y52512615D01*
X17272316Y52563745D01*
X17266144Y52564415D01*
X17266142Y52564416D01*
X17230163Y52568324D01*
X17210134Y52570500D01*
X15589866Y52570500D01*
X15569837Y52568324D01*
X15533858Y52564416D01*
X15533856Y52564415D01*
X15527684Y52563745D01*
X15391295Y52512615D01*
X15274739Y52425261D01*
X15187385Y52308705D01*
X15184911Y52302107D01*
X15184911Y52302106D01*
X15182742Y52296320D01*
X15136255Y52172316D01*
X15129500Y52110134D01*
X15129500Y50489866D01*
X15136255Y50427684D01*
X15138435Y50421869D01*
X15183896Y50300603D01*
X15187385Y50291295D01*
X15274739Y50174739D01*
X15391295Y50087385D01*
X15527684Y50036255D01*
X15533856Y50035585D01*
X15533858Y50035584D01*
X15569837Y50031676D01*
X15589866Y50029500D01*
X17210134Y50029500D01*
X17230163Y50031676D01*
X17266142Y50035584D01*
X17266144Y50035585D01*
X17272316Y50036255D01*
X17408705Y50087385D01*
X17525261Y50174739D01*
X17529491Y50180383D01*
X17529495Y50180387D01*
X17590780Y50262159D01*
X17640808Y50297384D01*
X17701986Y50296476D01*
X17749220Y50262159D01*
X17810505Y50180387D01*
X17810509Y50180383D01*
X17814739Y50174739D01*
X17931295Y50087385D01*
X18067684Y50036255D01*
X18073856Y50035585D01*
X18073858Y50035584D01*
X18109837Y50031676D01*
X18129866Y50029500D01*
X19750134Y50029500D01*
X19770163Y50031676D01*
X19806142Y50035584D01*
X19806144Y50035585D01*
X19812316Y50036255D01*
X19948705Y50087385D01*
X20065261Y50174739D01*
X20069491Y50180383D01*
X20069495Y50180387D01*
X20130780Y50262159D01*
X20180808Y50297384D01*
X20241986Y50296476D01*
X20289220Y50262159D01*
X20350505Y50180387D01*
X20350509Y50180383D01*
X20354739Y50174739D01*
X20471295Y50087385D01*
X20607684Y50036255D01*
X20613856Y50035585D01*
X20613858Y50035584D01*
X20649837Y50031676D01*
X20669866Y50029500D01*
X22290134Y50029500D01*
X22310163Y50031676D01*
X22346142Y50035584D01*
X22346144Y50035585D01*
X22352316Y50036255D01*
X22488705Y50087385D01*
X22605261Y50174739D01*
X22609491Y50180383D01*
X22609495Y50180387D01*
X22670780Y50262159D01*
X22720808Y50297384D01*
X22781986Y50296476D01*
X22829220Y50262159D01*
X22890505Y50180387D01*
X22890509Y50180383D01*
X22894739Y50174739D01*
X23011295Y50087385D01*
X23147684Y50036255D01*
X23153856Y50035585D01*
X23153858Y50035584D01*
X23189837Y50031676D01*
X23209866Y50029500D01*
X24830134Y50029500D01*
X24850163Y50031676D01*
X24886142Y50035584D01*
X24886144Y50035585D01*
X24892316Y50036255D01*
X25028705Y50087385D01*
X25145261Y50174739D01*
X25149491Y50180383D01*
X25149495Y50180387D01*
X25210780Y50262159D01*
X25260808Y50297384D01*
X25321986Y50296476D01*
X25369220Y50262159D01*
X25430505Y50180387D01*
X25430509Y50180383D01*
X25434739Y50174739D01*
X25551295Y50087385D01*
X25687684Y50036255D01*
X25693856Y50035585D01*
X25693858Y50035584D01*
X25729837Y50031676D01*
X25749866Y50029500D01*
X25752542Y50029500D01*
X25755219Y50029355D01*
X25755180Y50028629D01*
X25810691Y50010593D01*
X25846655Y49961093D01*
X25851500Y49930500D01*
X25851500Y48894478D01*
X25832593Y48836287D01*
X25822504Y48824474D01*
X23335526Y46337496D01*
X23281009Y46309719D01*
X23265522Y46308500D01*
X20328014Y46308500D01*
X20321281Y46308729D01*
X20319110Y46308877D01*
X20262648Y46312726D01*
X20233719Y46307677D01*
X20205863Y46308194D01*
X20205725Y46306879D01*
X20200559Y46307422D01*
X20195487Y46308500D01*
X20004513Y46308500D01*
X19857917Y46277340D01*
X19822783Y46269872D01*
X19822782Y46269872D01*
X19817712Y46268794D01*
X19812978Y46266686D01*
X19812974Y46266685D01*
X19745723Y46236742D01*
X19643248Y46191118D01*
X19488747Y46078866D01*
X19485281Y46075017D01*
X19485277Y46075013D01*
X19371424Y45948566D01*
X19360960Y45936944D01*
X19358365Y45932449D01*
X19268067Y45776050D01*
X19268065Y45776045D01*
X19265473Y45771556D01*
X19263871Y45766625D01*
X19208060Y45594860D01*
X19208059Y45594855D01*
X19206458Y45589928D01*
X19186496Y45400000D01*
X19206458Y45210072D01*
X19208059Y45205145D01*
X19208060Y45205140D01*
X19213003Y45189928D01*
X19265473Y45028444D01*
X19268065Y45023955D01*
X19268067Y45023950D01*
X19324658Y44925932D01*
X19360960Y44863056D01*
X19364432Y44859200D01*
X19485277Y44724987D01*
X19485281Y44724983D01*
X19488747Y44721134D01*
X19643248Y44608882D01*
X19728205Y44571057D01*
X19812974Y44533315D01*
X19812978Y44533314D01*
X19817712Y44531206D01*
X19822782Y44530128D01*
X19822783Y44530128D01*
X19857917Y44522660D01*
X20004513Y44491500D01*
X20195487Y44491500D01*
X20342083Y44522660D01*
X20377217Y44530128D01*
X20377218Y44530128D01*
X20382288Y44531206D01*
X20471796Y44571057D01*
X20532644Y44577453D01*
X20585632Y44546860D01*
X20604678Y44509494D01*
X20606458Y44510072D01*
X20665473Y44328444D01*
X20668065Y44323955D01*
X20668067Y44323950D01*
X20730459Y44215885D01*
X20760960Y44163056D01*
X20764432Y44159200D01*
X20885277Y44024987D01*
X20885281Y44024983D01*
X20888747Y44021134D01*
X21043248Y43908882D01*
X21145723Y43863258D01*
X21212974Y43833315D01*
X21212978Y43833314D01*
X21217712Y43831206D01*
X21222782Y43830128D01*
X21222783Y43830128D01*
X21257917Y43822660D01*
X21404513Y43791500D01*
X21595487Y43791500D01*
X21742083Y43822660D01*
X21777217Y43830128D01*
X21777218Y43830128D01*
X21782288Y43831206D01*
X21787022Y43833314D01*
X21787026Y43833315D01*
X21869520Y43870044D01*
X21956752Y43908882D01*
X22044443Y43972594D01*
X22102632Y43991500D01*
X24072001Y43991500D01*
X24078734Y43991271D01*
X24137352Y43987275D01*
X24143224Y43988300D01*
X24143228Y43988300D01*
X24200987Y43998381D01*
X24206115Y43999138D01*
X24264320Y44006181D01*
X24264323Y44006182D01*
X24270242Y44006898D01*
X24275820Y44009006D01*
X24275825Y44009007D01*
X24279040Y44010222D01*
X24297013Y44015139D01*
X24297811Y44015278D01*
X24306284Y44016757D01*
X24365436Y44042723D01*
X24370232Y44044681D01*
X24425072Y44065403D01*
X24430656Y44067513D01*
X24438413Y44072844D01*
X24454683Y44081900D01*
X24463305Y44085685D01*
X24514552Y44125009D01*
X24518747Y44128057D01*
X24567064Y44161264D01*
X24571981Y44164643D01*
X24613942Y44211739D01*
X24617855Y44215885D01*
X29581187Y49179217D01*
X29586111Y49183816D01*
X29625888Y49218516D01*
X29630385Y49222439D01*
X29667532Y49275294D01*
X29670595Y49279420D01*
X29710477Y49330282D01*
X29714351Y49338861D01*
X29723579Y49355040D01*
X29728990Y49362739D01*
X29752456Y49422926D01*
X29754460Y49427694D01*
X29778590Y49481136D01*
X29781045Y49486573D01*
X29782760Y49495824D01*
X29787863Y49513738D01*
X29791282Y49522509D01*
X29799714Y49586557D01*
X29800525Y49591676D01*
X29811207Y49649312D01*
X29812296Y49655187D01*
X29808664Y49718173D01*
X29808500Y49723872D01*
X29808500Y49930500D01*
X29827407Y49988691D01*
X29876907Y50024655D01*
X29904796Y50029072D01*
X29904781Y50029355D01*
X29907458Y50029500D01*
X29910134Y50029500D01*
X29930163Y50031676D01*
X29966142Y50035584D01*
X29966144Y50035585D01*
X29972316Y50036255D01*
X30108705Y50087385D01*
X30225261Y50174739D01*
X30312615Y50291295D01*
X30316105Y50300603D01*
X30361565Y50421869D01*
X30363745Y50427684D01*
X30370500Y50489866D01*
X30370500Y50518234D01*
X30628000Y50518234D01*
X30628948Y50508612D01*
X30640603Y50450017D01*
X30647922Y50432349D01*
X30692341Y50365870D01*
X30705870Y50352341D01*
X30772349Y50307922D01*
X30790017Y50300603D01*
X30848612Y50288948D01*
X30858234Y50288000D01*
X31370320Y50288000D01*
X31383005Y50292122D01*
X31386000Y50296243D01*
X31386000Y50303680D01*
X31894000Y50303680D01*
X31898122Y50290995D01*
X31902243Y50288000D01*
X32421766Y50288000D01*
X32431388Y50288948D01*
X32489983Y50300603D01*
X32507651Y50307922D01*
X32574130Y50352341D01*
X32587659Y50365870D01*
X32632078Y50432349D01*
X32639397Y50450017D01*
X32647323Y50489866D01*
X32909500Y50489866D01*
X32916255Y50427684D01*
X32918435Y50421869D01*
X32963896Y50300603D01*
X32967385Y50291295D01*
X33054739Y50174739D01*
X33171295Y50087385D01*
X33307684Y50036255D01*
X33313856Y50035585D01*
X33313858Y50035584D01*
X33349837Y50031676D01*
X33369866Y50029500D01*
X34990134Y50029500D01*
X35010163Y50031676D01*
X35046142Y50035584D01*
X35046144Y50035585D01*
X35052316Y50036255D01*
X35188705Y50087385D01*
X35305261Y50174739D01*
X35309491Y50180383D01*
X35309495Y50180387D01*
X35370780Y50262159D01*
X35420808Y50297384D01*
X35481986Y50296476D01*
X35529220Y50262159D01*
X35590505Y50180387D01*
X35590509Y50180383D01*
X35594739Y50174739D01*
X35711295Y50087385D01*
X35847684Y50036255D01*
X35853856Y50035585D01*
X35853858Y50035584D01*
X35889837Y50031676D01*
X35909866Y50029500D01*
X35912542Y50029500D01*
X35915219Y50029355D01*
X35915180Y50028629D01*
X35970691Y50010593D01*
X36006655Y49961093D01*
X36011500Y49930500D01*
X36011500Y48807999D01*
X36011271Y48801266D01*
X36007275Y48742648D01*
X36008300Y48736776D01*
X36008300Y48736772D01*
X36018381Y48679013D01*
X36019138Y48673886D01*
X36026898Y48609758D01*
X36029006Y48604180D01*
X36029007Y48604175D01*
X36030222Y48600960D01*
X36035139Y48582987D01*
X36036757Y48573716D01*
X36039157Y48568249D01*
X36062722Y48514567D01*
X36064680Y48509771D01*
X36087513Y48449344D01*
X36092844Y48441587D01*
X36101900Y48425317D01*
X36105685Y48416695D01*
X36109321Y48411957D01*
X36145009Y48365448D01*
X36148057Y48361253D01*
X36184643Y48308019D01*
X36189097Y48304051D01*
X36231739Y48266058D01*
X36235885Y48262145D01*
X39572097Y44925932D01*
X39600551Y44866277D01*
X39606458Y44810072D01*
X39608059Y44805145D01*
X39608060Y44805140D01*
X39634104Y44724987D01*
X39665473Y44628444D01*
X39668065Y44623955D01*
X39668067Y44623950D01*
X39720396Y44533315D01*
X39760960Y44463056D01*
X39764432Y44459200D01*
X39885277Y44324987D01*
X39885281Y44324983D01*
X39888747Y44321134D01*
X40043248Y44208882D01*
X40142611Y44164643D01*
X40212974Y44133315D01*
X40212978Y44133314D01*
X40217712Y44131206D01*
X40222782Y44130128D01*
X40222783Y44130128D01*
X40239433Y44126589D01*
X40404513Y44091500D01*
X40595487Y44091500D01*
X40760567Y44126589D01*
X40777217Y44130128D01*
X40777218Y44130128D01*
X40782288Y44131206D01*
X40787022Y44133314D01*
X40787026Y44133315D01*
X40857389Y44164643D01*
X40956752Y44208882D01*
X41111253Y44321134D01*
X41114719Y44324983D01*
X41114723Y44324987D01*
X41235568Y44459200D01*
X41239040Y44463056D01*
X41279604Y44533315D01*
X41331933Y44623950D01*
X41331935Y44623955D01*
X41334527Y44628444D01*
X41365896Y44724987D01*
X41391940Y44805140D01*
X41391941Y44805145D01*
X41393542Y44810072D01*
X41413504Y45000000D01*
X41393542Y45189928D01*
X41391941Y45194855D01*
X41391940Y45194860D01*
X41336129Y45366625D01*
X41334527Y45371556D01*
X41331935Y45376045D01*
X41331933Y45376050D01*
X41241635Y45532449D01*
X41239040Y45536944D01*
X41228576Y45548566D01*
X41114723Y45675013D01*
X41114719Y45675017D01*
X41111253Y45678866D01*
X40956752Y45791118D01*
X40854277Y45836742D01*
X40787026Y45866685D01*
X40787022Y45866686D01*
X40782288Y45868794D01*
X40777218Y45869872D01*
X40777217Y45869872D01*
X40705887Y45885034D01*
X40621611Y45902947D01*
X40572190Y45929780D01*
X37457496Y49044474D01*
X37429719Y49098991D01*
X37428500Y49114478D01*
X37428500Y49930500D01*
X37447407Y49988691D01*
X37496907Y50024655D01*
X37524796Y50029072D01*
X37524781Y50029355D01*
X37527458Y50029500D01*
X37530134Y50029500D01*
X37550163Y50031676D01*
X37586142Y50035584D01*
X37586144Y50035585D01*
X37592316Y50036255D01*
X37728705Y50087385D01*
X37845261Y50174739D01*
X37849491Y50180383D01*
X37849495Y50180387D01*
X37910780Y50262159D01*
X37960808Y50297384D01*
X38021986Y50296476D01*
X38069220Y50262159D01*
X38130505Y50180387D01*
X38130509Y50180383D01*
X38134739Y50174739D01*
X38251295Y50087385D01*
X38387684Y50036255D01*
X38393856Y50035585D01*
X38393858Y50035584D01*
X38429837Y50031676D01*
X38449866Y50029500D01*
X40070134Y50029500D01*
X40090163Y50031676D01*
X40126142Y50035584D01*
X40126144Y50035585D01*
X40132316Y50036255D01*
X40268705Y50087385D01*
X40385261Y50174739D01*
X40472615Y50291295D01*
X40476105Y50300603D01*
X40521565Y50421869D01*
X40523745Y50427684D01*
X40530500Y50489866D01*
X40530500Y50518234D01*
X40788000Y50518234D01*
X40788948Y50508612D01*
X40800603Y50450017D01*
X40807922Y50432349D01*
X40852341Y50365870D01*
X40865870Y50352341D01*
X40932349Y50307922D01*
X40950017Y50300603D01*
X41008612Y50288948D01*
X41018234Y50288000D01*
X41530320Y50288000D01*
X41543005Y50292122D01*
X41546000Y50296243D01*
X41546000Y50303680D01*
X42054000Y50303680D01*
X42058122Y50290995D01*
X42062243Y50288000D01*
X42581766Y50288000D01*
X42591388Y50288948D01*
X42649983Y50300603D01*
X42667651Y50307922D01*
X42734130Y50352341D01*
X42747659Y50365870D01*
X42792078Y50432349D01*
X42799397Y50450017D01*
X42811052Y50508612D01*
X42812000Y50518234D01*
X43328000Y50518234D01*
X43328948Y50508612D01*
X43340603Y50450017D01*
X43347922Y50432349D01*
X43392341Y50365870D01*
X43405870Y50352341D01*
X43472349Y50307922D01*
X43490017Y50300603D01*
X43548612Y50288948D01*
X43558234Y50288000D01*
X44070320Y50288000D01*
X44083005Y50292122D01*
X44086000Y50296243D01*
X44086000Y50303680D01*
X44594000Y50303680D01*
X44598122Y50290995D01*
X44602243Y50288000D01*
X45121766Y50288000D01*
X45131388Y50288948D01*
X45189983Y50300603D01*
X45207651Y50307922D01*
X45274130Y50352341D01*
X45287659Y50365870D01*
X45332078Y50432349D01*
X45339397Y50450017D01*
X45347323Y50489866D01*
X45609500Y50489866D01*
X45616255Y50427684D01*
X45618435Y50421869D01*
X45663896Y50300603D01*
X45667385Y50291295D01*
X45754739Y50174739D01*
X45871295Y50087385D01*
X46007684Y50036255D01*
X46013856Y50035585D01*
X46013858Y50035584D01*
X46049837Y50031676D01*
X46069866Y50029500D01*
X47690134Y50029500D01*
X47710163Y50031676D01*
X47746142Y50035584D01*
X47746144Y50035585D01*
X47752316Y50036255D01*
X47888705Y50087385D01*
X48005261Y50174739D01*
X48009491Y50180383D01*
X48009495Y50180387D01*
X48070780Y50262159D01*
X48120808Y50297384D01*
X48181986Y50296476D01*
X48229220Y50262159D01*
X48290505Y50180387D01*
X48290509Y50180383D01*
X48294739Y50174739D01*
X48411295Y50087385D01*
X48547684Y50036255D01*
X48553856Y50035585D01*
X48553858Y50035584D01*
X48589837Y50031676D01*
X48609866Y50029500D01*
X50230134Y50029500D01*
X50250163Y50031676D01*
X50286142Y50035584D01*
X50286144Y50035585D01*
X50292316Y50036255D01*
X50428705Y50087385D01*
X50545261Y50174739D01*
X50632615Y50291295D01*
X50636105Y50300603D01*
X50681565Y50421869D01*
X50683745Y50427684D01*
X50690500Y50489866D01*
X50690500Y52110134D01*
X50683745Y52172316D01*
X50637258Y52296320D01*
X50635089Y52302106D01*
X50635089Y52302107D01*
X50632615Y52308705D01*
X50545261Y52425261D01*
X50428705Y52512615D01*
X50292316Y52563745D01*
X50286144Y52564415D01*
X50286142Y52564416D01*
X50250163Y52568324D01*
X50230134Y52570500D01*
X48609866Y52570500D01*
X48589837Y52568324D01*
X48553858Y52564416D01*
X48553856Y52564415D01*
X48547684Y52563745D01*
X48411295Y52512615D01*
X48294739Y52425261D01*
X48290509Y52419617D01*
X48290505Y52419613D01*
X48229220Y52337841D01*
X48179192Y52302616D01*
X48118014Y52303524D01*
X48070780Y52337841D01*
X48009495Y52419613D01*
X48009491Y52419617D01*
X48005261Y52425261D01*
X47888705Y52512615D01*
X47752316Y52563745D01*
X47746144Y52564415D01*
X47746142Y52564416D01*
X47710163Y52568324D01*
X47690134Y52570500D01*
X46069866Y52570500D01*
X46049837Y52568324D01*
X46013858Y52564416D01*
X46013856Y52564415D01*
X46007684Y52563745D01*
X45871295Y52512615D01*
X45754739Y52425261D01*
X45667385Y52308705D01*
X45664911Y52302107D01*
X45664911Y52302106D01*
X45662742Y52296320D01*
X45616255Y52172316D01*
X45609500Y52110134D01*
X45609500Y50489866D01*
X45347323Y50489866D01*
X45351052Y50508612D01*
X45352000Y50518234D01*
X45352000Y51030320D01*
X45347878Y51043005D01*
X45343757Y51046000D01*
X44609680Y51046000D01*
X44596995Y51041878D01*
X44594000Y51037757D01*
X44594000Y50303680D01*
X44086000Y50303680D01*
X44086000Y51030320D01*
X44081878Y51043005D01*
X44077757Y51046000D01*
X43343680Y51046000D01*
X43330995Y51041878D01*
X43328000Y51037757D01*
X43328000Y50518234D01*
X42812000Y50518234D01*
X42812000Y51030320D01*
X42807878Y51043005D01*
X42803757Y51046000D01*
X42069680Y51046000D01*
X42056995Y51041878D01*
X42054000Y51037757D01*
X42054000Y50303680D01*
X41546000Y50303680D01*
X41546000Y51030320D01*
X41541878Y51043005D01*
X41537757Y51046000D01*
X40803680Y51046000D01*
X40790995Y51041878D01*
X40788000Y51037757D01*
X40788000Y50518234D01*
X40530500Y50518234D01*
X40530500Y51569680D01*
X40788000Y51569680D01*
X40792122Y51556995D01*
X40796243Y51554000D01*
X41530320Y51554000D01*
X41543005Y51558122D01*
X41546000Y51562243D01*
X41546000Y51569680D01*
X42054000Y51569680D01*
X42058122Y51556995D01*
X42062243Y51554000D01*
X42796320Y51554000D01*
X42809005Y51558122D01*
X42812000Y51562243D01*
X42812000Y51569680D01*
X43328000Y51569680D01*
X43332122Y51556995D01*
X43336243Y51554000D01*
X44070320Y51554000D01*
X44083005Y51558122D01*
X44086000Y51562243D01*
X44086000Y51569680D01*
X44594000Y51569680D01*
X44598122Y51556995D01*
X44602243Y51554000D01*
X45336320Y51554000D01*
X45349005Y51558122D01*
X45352000Y51562243D01*
X45352000Y52081766D01*
X45351052Y52091388D01*
X45339397Y52149983D01*
X45332078Y52167651D01*
X45287659Y52234130D01*
X45274130Y52247659D01*
X45207651Y52292078D01*
X45189983Y52299397D01*
X45131388Y52311052D01*
X45121766Y52312000D01*
X44609680Y52312000D01*
X44596995Y52307878D01*
X44594000Y52303757D01*
X44594000Y51569680D01*
X44086000Y51569680D01*
X44086000Y52296320D01*
X44081878Y52309005D01*
X44077757Y52312000D01*
X43558234Y52312000D01*
X43548612Y52311052D01*
X43490017Y52299397D01*
X43472349Y52292078D01*
X43405870Y52247659D01*
X43392341Y52234130D01*
X43347922Y52167651D01*
X43340603Y52149983D01*
X43328948Y52091388D01*
X43328000Y52081766D01*
X43328000Y51569680D01*
X42812000Y51569680D01*
X42812000Y52081766D01*
X42811052Y52091388D01*
X42799397Y52149983D01*
X42792078Y52167651D01*
X42747659Y52234130D01*
X42734130Y52247659D01*
X42667651Y52292078D01*
X42649983Y52299397D01*
X42591388Y52311052D01*
X42581766Y52312000D01*
X42069680Y52312000D01*
X42056995Y52307878D01*
X42054000Y52303757D01*
X42054000Y51569680D01*
X41546000Y51569680D01*
X41546000Y52296320D01*
X41541878Y52309005D01*
X41537757Y52312000D01*
X41018234Y52312000D01*
X41008612Y52311052D01*
X40950017Y52299397D01*
X40932349Y52292078D01*
X40865870Y52247659D01*
X40852341Y52234130D01*
X40807922Y52167651D01*
X40800603Y52149983D01*
X40788948Y52091388D01*
X40788000Y52081766D01*
X40788000Y51569680D01*
X40530500Y51569680D01*
X40530500Y52110134D01*
X40523745Y52172316D01*
X40477258Y52296320D01*
X40475089Y52302106D01*
X40475089Y52302107D01*
X40472615Y52308705D01*
X40385261Y52425261D01*
X40268705Y52512615D01*
X40132316Y52563745D01*
X40126144Y52564415D01*
X40126142Y52564416D01*
X40090163Y52568324D01*
X40070134Y52570500D01*
X38449866Y52570500D01*
X38429837Y52568324D01*
X38393858Y52564416D01*
X38393856Y52564415D01*
X38387684Y52563745D01*
X38251295Y52512615D01*
X38134739Y52425261D01*
X38130509Y52419617D01*
X38130505Y52419613D01*
X38069220Y52337841D01*
X38019192Y52302616D01*
X37958014Y52303524D01*
X37910780Y52337841D01*
X37849495Y52419613D01*
X37849491Y52419617D01*
X37845261Y52425261D01*
X37728705Y52512615D01*
X37592316Y52563745D01*
X37586144Y52564415D01*
X37586142Y52564416D01*
X37550163Y52568324D01*
X37530134Y52570500D01*
X35909866Y52570500D01*
X35889837Y52568324D01*
X35853858Y52564416D01*
X35853856Y52564415D01*
X35847684Y52563745D01*
X35711295Y52512615D01*
X35594739Y52425261D01*
X35590509Y52419617D01*
X35590505Y52419613D01*
X35529220Y52337841D01*
X35479192Y52302616D01*
X35418014Y52303524D01*
X35370780Y52337841D01*
X35309495Y52419613D01*
X35309491Y52419617D01*
X35305261Y52425261D01*
X35188705Y52512615D01*
X35052316Y52563745D01*
X35046144Y52564415D01*
X35046142Y52564416D01*
X35010163Y52568324D01*
X34990134Y52570500D01*
X33369866Y52570500D01*
X33349837Y52568324D01*
X33313858Y52564416D01*
X33313856Y52564415D01*
X33307684Y52563745D01*
X33171295Y52512615D01*
X33054739Y52425261D01*
X32967385Y52308705D01*
X32964911Y52302107D01*
X32964911Y52302106D01*
X32962742Y52296320D01*
X32916255Y52172316D01*
X32909500Y52110134D01*
X32909500Y50489866D01*
X32647323Y50489866D01*
X32651052Y50508612D01*
X32652000Y50518234D01*
X32652000Y51030320D01*
X32647878Y51043005D01*
X32643757Y51046000D01*
X31909680Y51046000D01*
X31896995Y51041878D01*
X31894000Y51037757D01*
X31894000Y50303680D01*
X31386000Y50303680D01*
X31386000Y51030320D01*
X31381878Y51043005D01*
X31377757Y51046000D01*
X30643680Y51046000D01*
X30630995Y51041878D01*
X30628000Y51037757D01*
X30628000Y50518234D01*
X30370500Y50518234D01*
X30370500Y51569680D01*
X30628000Y51569680D01*
X30632122Y51556995D01*
X30636243Y51554000D01*
X31370320Y51554000D01*
X31383005Y51558122D01*
X31386000Y51562243D01*
X31386000Y51569680D01*
X31894000Y51569680D01*
X31898122Y51556995D01*
X31902243Y51554000D01*
X32636320Y51554000D01*
X32649005Y51558122D01*
X32652000Y51562243D01*
X32652000Y52081766D01*
X32651052Y52091388D01*
X32639397Y52149983D01*
X32632078Y52167651D01*
X32587659Y52234130D01*
X32574130Y52247659D01*
X32507651Y52292078D01*
X32489983Y52299397D01*
X32431388Y52311052D01*
X32421766Y52312000D01*
X31909680Y52312000D01*
X31896995Y52307878D01*
X31894000Y52303757D01*
X31894000Y51569680D01*
X31386000Y51569680D01*
X31386000Y52296320D01*
X31381878Y52309005D01*
X31377757Y52312000D01*
X30858234Y52312000D01*
X30848612Y52311052D01*
X30790017Y52299397D01*
X30772349Y52292078D01*
X30705870Y52247659D01*
X30692341Y52234130D01*
X30647922Y52167651D01*
X30640603Y52149983D01*
X30628948Y52091388D01*
X30628000Y52081766D01*
X30628000Y51569680D01*
X30370500Y51569680D01*
X30370500Y52110134D01*
X30363745Y52172316D01*
X30317258Y52296320D01*
X30315089Y52302106D01*
X30315089Y52302107D01*
X30312615Y52308705D01*
X30225261Y52425261D01*
X30108705Y52512615D01*
X29972316Y52563745D01*
X29966144Y52564415D01*
X29966142Y52564416D01*
X29930163Y52568324D01*
X29910134Y52570500D01*
X28289866Y52570500D01*
X28269837Y52568324D01*
X28233858Y52564416D01*
X28233856Y52564415D01*
X28227684Y52563745D01*
X28091295Y52512615D01*
X27974739Y52425261D01*
X27970509Y52419617D01*
X27970505Y52419613D01*
X27909220Y52337841D01*
X27859192Y52302616D01*
X27798014Y52303524D01*
X27750780Y52337841D01*
X27689495Y52419613D01*
X27689491Y52419617D01*
X27685261Y52425261D01*
X27568705Y52512615D01*
X27432316Y52563745D01*
X27426144Y52564415D01*
X27426142Y52564416D01*
X27390163Y52568324D01*
X27370134Y52570500D01*
X26051479Y52570500D01*
X25993288Y52589407D01*
X25957324Y52638907D01*
X25957324Y52700093D01*
X25981475Y52739504D01*
X26704475Y53462504D01*
X26758992Y53490281D01*
X26774479Y53491500D01*
X35041500Y53491500D01*
X35099691Y53472593D01*
X35111504Y53462504D01*
X35304706Y53269302D01*
X35309305Y53264378D01*
X35347928Y53220104D01*
X35352810Y53216673D01*
X35352811Y53216672D01*
X35359810Y53211753D01*
X35400783Y53182957D01*
X35404909Y53179894D01*
X35455771Y53140012D01*
X35464350Y53136138D01*
X35480528Y53126911D01*
X35488228Y53121499D01*
X35502609Y53115892D01*
X35548417Y53098032D01*
X35553193Y53096024D01*
X35612063Y53069444D01*
X35617927Y53068357D01*
X35617931Y53068356D01*
X35621314Y53067729D01*
X35639228Y53062626D01*
X35642437Y53061375D01*
X35642439Y53061374D01*
X35647998Y53059207D01*
X35712053Y53050774D01*
X35717154Y53049967D01*
X35736034Y53046467D01*
X35774803Y53039281D01*
X35774807Y53039281D01*
X35780676Y53038193D01*
X35839402Y53041579D01*
X35843668Y53041825D01*
X35849367Y53041989D01*
X38337490Y53041989D01*
X38344223Y53041760D01*
X38402841Y53037764D01*
X38408713Y53038789D01*
X38408717Y53038789D01*
X38466476Y53048870D01*
X38471604Y53049627D01*
X38529809Y53056670D01*
X38529812Y53056671D01*
X38535731Y53057387D01*
X38541309Y53059495D01*
X38541314Y53059496D01*
X38544529Y53060711D01*
X38562502Y53065628D01*
X38563300Y53065767D01*
X38571773Y53067246D01*
X38630925Y53093212D01*
X38635721Y53095170D01*
X38690561Y53115892D01*
X38696145Y53118002D01*
X38703902Y53123333D01*
X38720172Y53132389D01*
X38728794Y53136174D01*
X38780041Y53175498D01*
X38784236Y53178546D01*
X38832553Y53211753D01*
X38837470Y53215132D01*
X38879431Y53262228D01*
X38883344Y53266374D01*
X39317474Y53700504D01*
X39371991Y53728281D01*
X39387478Y53729500D01*
X40410134Y53729500D01*
X40430163Y53731676D01*
X40466142Y53735584D01*
X40466144Y53735585D01*
X40472316Y53736255D01*
X40608705Y53787385D01*
X40725261Y53874739D01*
X40812615Y53991295D01*
X40816105Y54000603D01*
X40861565Y54121869D01*
X40863745Y54127684D01*
X40870500Y54189866D01*
X40870500Y54218234D01*
X41128000Y54218234D01*
X41128948Y54208612D01*
X41140603Y54150017D01*
X41147922Y54132349D01*
X41192341Y54065870D01*
X41205870Y54052341D01*
X41272349Y54007922D01*
X41290017Y54000603D01*
X41348612Y53988948D01*
X41358234Y53988000D01*
X41870320Y53988000D01*
X41883005Y53992122D01*
X41886000Y53996243D01*
X41886000Y54003680D01*
X42394000Y54003680D01*
X42398122Y53990995D01*
X42402243Y53988000D01*
X42921766Y53988000D01*
X42931388Y53988948D01*
X42989983Y54000603D01*
X43007651Y54007922D01*
X43074130Y54052341D01*
X43087659Y54065870D01*
X43132078Y54132349D01*
X43139397Y54150017D01*
X43151052Y54208612D01*
X43152000Y54218234D01*
X43152000Y54730320D01*
X43147878Y54743005D01*
X43143757Y54746000D01*
X42409680Y54746000D01*
X42396995Y54741878D01*
X42394000Y54737757D01*
X42394000Y54003680D01*
X41886000Y54003680D01*
X41886000Y54730320D01*
X41881878Y54743005D01*
X41877757Y54746000D01*
X41143680Y54746000D01*
X41130995Y54741878D01*
X41128000Y54737757D01*
X41128000Y54218234D01*
X40870500Y54218234D01*
X40870500Y55269680D01*
X41128000Y55269680D01*
X41132122Y55256995D01*
X41136243Y55254000D01*
X41870320Y55254000D01*
X41883005Y55258122D01*
X41886000Y55262243D01*
X41886000Y55269680D01*
X42394000Y55269680D01*
X42398122Y55256995D01*
X42402243Y55254000D01*
X43136320Y55254000D01*
X43149005Y55258122D01*
X43152000Y55262243D01*
X43152000Y55781766D01*
X43151052Y55791388D01*
X43139397Y55849983D01*
X43132078Y55867651D01*
X43087659Y55934130D01*
X43074130Y55947659D01*
X43007651Y55992078D01*
X42989983Y55999397D01*
X42931388Y56011052D01*
X42921766Y56012000D01*
X42409680Y56012000D01*
X42396995Y56007878D01*
X42394000Y56003757D01*
X42394000Y55269680D01*
X41886000Y55269680D01*
X41886000Y55996320D01*
X41881878Y56009005D01*
X41877757Y56012000D01*
X41358234Y56012000D01*
X41348612Y56011052D01*
X41290017Y55999397D01*
X41272349Y55992078D01*
X41205870Y55947659D01*
X41192341Y55934130D01*
X41147922Y55867651D01*
X41140603Y55849983D01*
X41128948Y55791388D01*
X41128000Y55781766D01*
X41128000Y55269680D01*
X40870500Y55269680D01*
X40870500Y55810134D01*
X40863745Y55872316D01*
X40817258Y55996320D01*
X40815089Y56002106D01*
X40815089Y56002107D01*
X40812615Y56008705D01*
X40725261Y56125261D01*
X40608705Y56212615D01*
X40472316Y56263745D01*
X40466144Y56264415D01*
X40466142Y56264416D01*
X40430163Y56268324D01*
X40410134Y56270500D01*
X38789866Y56270500D01*
X38769837Y56268324D01*
X38733858Y56264416D01*
X38733856Y56264415D01*
X38727684Y56263745D01*
X38591295Y56212615D01*
X38474739Y56125261D01*
X38470509Y56119617D01*
X38470505Y56119613D01*
X38409220Y56037841D01*
X38359192Y56002616D01*
X38298014Y56003524D01*
X38250780Y56037841D01*
X38189495Y56119613D01*
X38189491Y56119617D01*
X38185261Y56125261D01*
X38068705Y56212615D01*
X37932316Y56263745D01*
X37926144Y56264415D01*
X37926142Y56264416D01*
X37890163Y56268324D01*
X37870134Y56270500D01*
X36249866Y56270500D01*
X36229837Y56268324D01*
X36193858Y56264416D01*
X36193856Y56264415D01*
X36187684Y56263745D01*
X36051295Y56212615D01*
X35934739Y56125261D01*
X35847385Y56008705D01*
X35844911Y56002107D01*
X35844911Y56002106D01*
X35842742Y55996320D01*
X35796255Y55872316D01*
X35789500Y55810134D01*
X35789500Y54944114D01*
X35770593Y54885923D01*
X35721093Y54849959D01*
X35654576Y54851862D01*
X35653916Y54852119D01*
X35653089Y54852441D01*
X35648285Y54854459D01*
X35594845Y54878589D01*
X35594843Y54878590D01*
X35589405Y54881045D01*
X35583540Y54882132D01*
X35583534Y54882134D01*
X35580154Y54882760D01*
X35562240Y54887863D01*
X35553469Y54891282D01*
X35516331Y54896171D01*
X35489423Y54899714D01*
X35484304Y54900525D01*
X35440388Y54908664D01*
X35420792Y54912296D01*
X35359006Y54908733D01*
X35357806Y54908664D01*
X35352107Y54908500D01*
X34149478Y54908500D01*
X34091287Y54927407D01*
X34055323Y54976907D01*
X34055323Y55038093D01*
X34079474Y55077504D01*
X35864474Y56862504D01*
X35918991Y56890281D01*
X35934478Y56891500D01*
X37567001Y56891500D01*
X37573734Y56891271D01*
X37632352Y56887275D01*
X37638224Y56888300D01*
X37638228Y56888300D01*
X37695987Y56898381D01*
X37701115Y56899138D01*
X37759320Y56906181D01*
X37759323Y56906182D01*
X37765242Y56906898D01*
X37770820Y56909006D01*
X37770825Y56909007D01*
X37774040Y56910222D01*
X37792013Y56915139D01*
X37792811Y56915278D01*
X37801284Y56916757D01*
X37860436Y56942723D01*
X37865232Y56944681D01*
X37920072Y56965403D01*
X37925656Y56967513D01*
X37933413Y56972844D01*
X37949683Y56981900D01*
X37958305Y56985685D01*
X38009552Y57025009D01*
X38013747Y57028057D01*
X38062064Y57061264D01*
X38066981Y57064643D01*
X38108942Y57111739D01*
X38112855Y57115885D01*
X39327474Y58330504D01*
X39381991Y58358281D01*
X39397478Y58359500D01*
X40350134Y58359500D01*
X40370163Y58361676D01*
X40406142Y58365584D01*
X40406144Y58365585D01*
X40412316Y58366255D01*
X40548705Y58417385D01*
X40665261Y58504739D01*
X40752615Y58621295D01*
X40756105Y58630603D01*
X40801565Y58751869D01*
X40803745Y58757684D01*
X40810500Y58819866D01*
X40810500Y58848234D01*
X41068000Y58848234D01*
X41068948Y58838612D01*
X41080603Y58780017D01*
X41087922Y58762349D01*
X41132341Y58695870D01*
X41145870Y58682341D01*
X41212349Y58637922D01*
X41230017Y58630603D01*
X41288612Y58618948D01*
X41298234Y58618000D01*
X41810320Y58618000D01*
X41823005Y58622122D01*
X41826000Y58626243D01*
X41826000Y58633680D01*
X42334000Y58633680D01*
X42338122Y58620995D01*
X42342243Y58618000D01*
X42861766Y58618000D01*
X42871388Y58618948D01*
X42929983Y58630603D01*
X42947651Y58637922D01*
X43014130Y58682341D01*
X43027659Y58695870D01*
X43072078Y58762349D01*
X43079397Y58780017D01*
X43091052Y58838612D01*
X43092000Y58848234D01*
X43092000Y59360320D01*
X43087878Y59373005D01*
X43083757Y59376000D01*
X42349680Y59376000D01*
X42336995Y59371878D01*
X42334000Y59367757D01*
X42334000Y58633680D01*
X41826000Y58633680D01*
X41826000Y59360320D01*
X41821878Y59373005D01*
X41817757Y59376000D01*
X41083680Y59376000D01*
X41070995Y59371878D01*
X41068000Y59367757D01*
X41068000Y58848234D01*
X40810500Y58848234D01*
X40810500Y59899680D01*
X41068000Y59899680D01*
X41072122Y59886995D01*
X41076243Y59884000D01*
X41810320Y59884000D01*
X41823005Y59888122D01*
X41826000Y59892243D01*
X41826000Y59899680D01*
X42334000Y59899680D01*
X42338122Y59886995D01*
X42342243Y59884000D01*
X43076320Y59884000D01*
X43089005Y59888122D01*
X43092000Y59892243D01*
X43092000Y60411766D01*
X43091052Y60421388D01*
X43079397Y60479983D01*
X43072078Y60497651D01*
X43027659Y60564130D01*
X43014130Y60577659D01*
X42947651Y60622078D01*
X42929983Y60629397D01*
X42871388Y60641052D01*
X42861766Y60642000D01*
X42349680Y60642000D01*
X42336995Y60637878D01*
X42334000Y60633757D01*
X42334000Y59899680D01*
X41826000Y59899680D01*
X41826000Y60626320D01*
X41821878Y60639005D01*
X41817757Y60642000D01*
X41298234Y60642000D01*
X41288612Y60641052D01*
X41230017Y60629397D01*
X41212349Y60622078D01*
X41145870Y60577659D01*
X41132341Y60564130D01*
X41087922Y60497651D01*
X41080603Y60479983D01*
X41068948Y60421388D01*
X41068000Y60411766D01*
X41068000Y59899680D01*
X40810500Y59899680D01*
X40810500Y60440134D01*
X40803745Y60502316D01*
X40757258Y60626320D01*
X40755089Y60632106D01*
X40755089Y60632107D01*
X40752615Y60638705D01*
X40665261Y60755261D01*
X40659617Y60759491D01*
X40659613Y60759495D01*
X40577841Y60820780D01*
X40542616Y60870808D01*
X40543524Y60931986D01*
X40577841Y60979220D01*
X40659613Y61040505D01*
X40659617Y61040509D01*
X40665261Y61044739D01*
X40752615Y61161295D01*
X40756105Y61170603D01*
X40801565Y61291869D01*
X40803745Y61297684D01*
X40810500Y61359866D01*
X40810500Y61388234D01*
X41068000Y61388234D01*
X41068948Y61378612D01*
X41080603Y61320017D01*
X41087922Y61302349D01*
X41132341Y61235870D01*
X41145870Y61222341D01*
X41212349Y61177922D01*
X41230017Y61170603D01*
X41288612Y61158948D01*
X41298234Y61158000D01*
X41810320Y61158000D01*
X41823005Y61162122D01*
X41826000Y61166243D01*
X41826000Y61173680D01*
X42334000Y61173680D01*
X42338122Y61160995D01*
X42342243Y61158000D01*
X42861766Y61158000D01*
X42871388Y61158948D01*
X42929983Y61170603D01*
X42947651Y61177922D01*
X43014130Y61222341D01*
X43027659Y61235870D01*
X43072078Y61302349D01*
X43079397Y61320017D01*
X43091052Y61378612D01*
X43092000Y61388234D01*
X43092000Y61900320D01*
X43087878Y61913005D01*
X43083757Y61916000D01*
X42349680Y61916000D01*
X42336995Y61911878D01*
X42334000Y61907757D01*
X42334000Y61173680D01*
X41826000Y61173680D01*
X41826000Y61900320D01*
X41821878Y61913005D01*
X41817757Y61916000D01*
X41083680Y61916000D01*
X41070995Y61911878D01*
X41068000Y61907757D01*
X41068000Y61388234D01*
X40810500Y61388234D01*
X40810500Y62439680D01*
X41068000Y62439680D01*
X41072122Y62426995D01*
X41076243Y62424000D01*
X41810320Y62424000D01*
X41823005Y62428122D01*
X41826000Y62432243D01*
X41826000Y62439680D01*
X42334000Y62439680D01*
X42338122Y62426995D01*
X42342243Y62424000D01*
X43076320Y62424000D01*
X43089005Y62428122D01*
X43092000Y62432243D01*
X43092000Y62951766D01*
X43091052Y62961388D01*
X43079397Y63019983D01*
X43072078Y63037651D01*
X43027659Y63104130D01*
X43014130Y63117659D01*
X42947651Y63162078D01*
X42929983Y63169397D01*
X42871388Y63181052D01*
X42861766Y63182000D01*
X42349680Y63182000D01*
X42336995Y63177878D01*
X42334000Y63173757D01*
X42334000Y62439680D01*
X41826000Y62439680D01*
X41826000Y63166320D01*
X41821878Y63179005D01*
X41817757Y63182000D01*
X41298234Y63182000D01*
X41288612Y63181052D01*
X41230017Y63169397D01*
X41212349Y63162078D01*
X41145870Y63117659D01*
X41132341Y63104130D01*
X41087922Y63037651D01*
X41080603Y63019983D01*
X41068948Y62961388D01*
X41068000Y62951766D01*
X41068000Y62439680D01*
X40810500Y62439680D01*
X40810500Y62980134D01*
X40803745Y63042316D01*
X40757258Y63166320D01*
X40755089Y63172106D01*
X40755089Y63172107D01*
X40752615Y63178705D01*
X40665261Y63295261D01*
X40548705Y63382615D01*
X40412316Y63433745D01*
X40406144Y63434415D01*
X40406142Y63434416D01*
X40370163Y63438324D01*
X40350134Y63440500D01*
X38729866Y63440500D01*
X38709837Y63438324D01*
X38673858Y63434416D01*
X38673856Y63434415D01*
X38667684Y63433745D01*
X38531295Y63382615D01*
X38414739Y63295261D01*
X38410509Y63289617D01*
X38410505Y63289613D01*
X38349220Y63207841D01*
X38299192Y63172616D01*
X38238014Y63173524D01*
X38190780Y63207841D01*
X38129495Y63289613D01*
X38129491Y63289617D01*
X38125261Y63295261D01*
X38008705Y63382615D01*
X37872316Y63433745D01*
X37866144Y63434415D01*
X37866142Y63434416D01*
X37830163Y63438324D01*
X37810134Y63440500D01*
X36189866Y63440500D01*
X36169837Y63438324D01*
X36133858Y63434416D01*
X36133856Y63434415D01*
X36127684Y63433745D01*
X35991295Y63382615D01*
X35874739Y63295261D01*
X35870509Y63289617D01*
X35870505Y63289613D01*
X35809220Y63207841D01*
X35759192Y63172616D01*
X35698014Y63173524D01*
X35650780Y63207841D01*
X35589495Y63289613D01*
X35589491Y63289617D01*
X35585261Y63295261D01*
X35468705Y63382615D01*
X35332316Y63433745D01*
X35326144Y63434415D01*
X35326142Y63434416D01*
X35290163Y63438324D01*
X35270134Y63440500D01*
X33649866Y63440500D01*
X33629837Y63438324D01*
X33593858Y63434416D01*
X33593856Y63434415D01*
X33587684Y63433745D01*
X33451295Y63382615D01*
X33334739Y63295261D01*
X33247385Y63178705D01*
X33244911Y63172107D01*
X33244911Y63172106D01*
X33242742Y63166320D01*
X33196255Y63042316D01*
X33189500Y62980134D01*
X33189500Y61359866D01*
X33196255Y61297684D01*
X33198435Y61291869D01*
X33243896Y61170603D01*
X33247385Y61161295D01*
X33334739Y61044739D01*
X33340383Y61040509D01*
X33340387Y61040505D01*
X33422159Y60979220D01*
X33457384Y60929192D01*
X33456476Y60868014D01*
X33422159Y60820780D01*
X33340387Y60759495D01*
X33340383Y60759491D01*
X33334739Y60755261D01*
X33247385Y60638705D01*
X33244911Y60632107D01*
X33244911Y60632106D01*
X33242742Y60626320D01*
X33196255Y60502316D01*
X33189500Y60440134D01*
X33189500Y58819866D01*
X33196255Y58757684D01*
X33198435Y58751869D01*
X33243896Y58630603D01*
X33247385Y58621295D01*
X33334739Y58504739D01*
X33340381Y58500510D01*
X33345369Y58495523D01*
X33344233Y58494387D01*
X33374635Y58451216D01*
X33373731Y58390037D01*
X33350043Y58352013D01*
X31835526Y56837496D01*
X31781009Y56809719D01*
X31765522Y56808500D01*
X20427999Y56808500D01*
X20421266Y56808729D01*
X20419237Y56808867D01*
X20362648Y56812725D01*
X20356776Y56811700D01*
X20356773Y56811700D01*
X20299020Y56801620D01*
X20293893Y56800863D01*
X20229758Y56793102D01*
X20224178Y56790994D01*
X20224176Y56790993D01*
X20222859Y56790495D01*
X20220956Y56789776D01*
X20202980Y56784859D01*
X20193716Y56783242D01*
X20188253Y56780844D01*
X20134567Y56757278D01*
X20129769Y56755320D01*
X20104729Y56745858D01*
X20069344Y56732487D01*
X20061587Y56727156D01*
X20045309Y56718096D01*
X20036695Y56714315D01*
X19988241Y56677134D01*
X19985448Y56674991D01*
X19981253Y56671943D01*
X19928019Y56635357D01*
X19924051Y56630903D01*
X19886058Y56588261D01*
X19882145Y56584115D01*
X19610004Y56311974D01*
X19555487Y56284197D01*
X19495055Y56293768D01*
X19469996Y56311974D01*
X16933736Y58848234D01*
X20048000Y58848234D01*
X20048948Y58838612D01*
X20060603Y58780017D01*
X20067922Y58762349D01*
X20112341Y58695870D01*
X20125870Y58682341D01*
X20192349Y58637922D01*
X20210017Y58630603D01*
X20268612Y58618948D01*
X20278234Y58618000D01*
X20790320Y58618000D01*
X20803005Y58622122D01*
X20806000Y58626243D01*
X20806000Y58633680D01*
X21314000Y58633680D01*
X21318122Y58620995D01*
X21322243Y58618000D01*
X21841766Y58618000D01*
X21851388Y58618948D01*
X21909983Y58630603D01*
X21927651Y58637922D01*
X21994130Y58682341D01*
X22007659Y58695870D01*
X22052078Y58762349D01*
X22059397Y58780017D01*
X22067323Y58819866D01*
X22329500Y58819866D01*
X22336255Y58757684D01*
X22338435Y58751869D01*
X22383896Y58630603D01*
X22387385Y58621295D01*
X22474739Y58504739D01*
X22591295Y58417385D01*
X22727684Y58366255D01*
X22733856Y58365585D01*
X22733858Y58365584D01*
X22769837Y58361676D01*
X22789866Y58359500D01*
X24410134Y58359500D01*
X24430163Y58361676D01*
X24466142Y58365584D01*
X24466144Y58365585D01*
X24472316Y58366255D01*
X24608705Y58417385D01*
X24725261Y58504739D01*
X24812615Y58621295D01*
X24816105Y58630603D01*
X24861565Y58751869D01*
X24863745Y58757684D01*
X24870500Y58819866D01*
X24870500Y58848234D01*
X25128000Y58848234D01*
X25128948Y58838612D01*
X25140603Y58780017D01*
X25147922Y58762349D01*
X25192341Y58695870D01*
X25205870Y58682341D01*
X25272349Y58637922D01*
X25290017Y58630603D01*
X25348612Y58618948D01*
X25358234Y58618000D01*
X25870320Y58618000D01*
X25883005Y58622122D01*
X25886000Y58626243D01*
X25886000Y58633680D01*
X26394000Y58633680D01*
X26398122Y58620995D01*
X26402243Y58618000D01*
X26921766Y58618000D01*
X26931388Y58618948D01*
X26989983Y58630603D01*
X27007651Y58637922D01*
X27074130Y58682341D01*
X27087659Y58695870D01*
X27132078Y58762349D01*
X27139397Y58780017D01*
X27151052Y58838612D01*
X27152000Y58848234D01*
X30908000Y58848234D01*
X30908948Y58838612D01*
X30920603Y58780017D01*
X30927922Y58762349D01*
X30972341Y58695870D01*
X30985870Y58682341D01*
X31052349Y58637922D01*
X31070017Y58630603D01*
X31128612Y58618948D01*
X31138234Y58618000D01*
X31650320Y58618000D01*
X31663005Y58622122D01*
X31666000Y58626243D01*
X31666000Y58633680D01*
X32174000Y58633680D01*
X32178122Y58620995D01*
X32182243Y58618000D01*
X32701766Y58618000D01*
X32711388Y58618948D01*
X32769983Y58630603D01*
X32787651Y58637922D01*
X32854130Y58682341D01*
X32867659Y58695870D01*
X32912078Y58762349D01*
X32919397Y58780017D01*
X32931052Y58838612D01*
X32932000Y58848234D01*
X32932000Y59360320D01*
X32927878Y59373005D01*
X32923757Y59376000D01*
X32189680Y59376000D01*
X32176995Y59371878D01*
X32174000Y59367757D01*
X32174000Y58633680D01*
X31666000Y58633680D01*
X31666000Y59360320D01*
X31661878Y59373005D01*
X31657757Y59376000D01*
X30923680Y59376000D01*
X30910995Y59371878D01*
X30908000Y59367757D01*
X30908000Y58848234D01*
X27152000Y58848234D01*
X27152000Y59360320D01*
X27147878Y59373005D01*
X27143757Y59376000D01*
X26409680Y59376000D01*
X26396995Y59371878D01*
X26394000Y59367757D01*
X26394000Y58633680D01*
X25886000Y58633680D01*
X25886000Y59360320D01*
X25881878Y59373005D01*
X25877757Y59376000D01*
X25143680Y59376000D01*
X25130995Y59371878D01*
X25128000Y59367757D01*
X25128000Y58848234D01*
X24870500Y58848234D01*
X24870500Y59899680D01*
X25128000Y59899680D01*
X25132122Y59886995D01*
X25136243Y59884000D01*
X25870320Y59884000D01*
X25883005Y59888122D01*
X25886000Y59892243D01*
X25886000Y59899680D01*
X26394000Y59899680D01*
X26398122Y59886995D01*
X26402243Y59884000D01*
X27136320Y59884000D01*
X27149005Y59888122D01*
X27152000Y59892243D01*
X27152000Y59899680D01*
X30908000Y59899680D01*
X30912122Y59886995D01*
X30916243Y59884000D01*
X31650320Y59884000D01*
X31663005Y59888122D01*
X31666000Y59892243D01*
X31666000Y59899680D01*
X32174000Y59899680D01*
X32178122Y59886995D01*
X32182243Y59884000D01*
X32916320Y59884000D01*
X32929005Y59888122D01*
X32932000Y59892243D01*
X32932000Y60411766D01*
X32931052Y60421388D01*
X32919397Y60479983D01*
X32912078Y60497651D01*
X32867659Y60564130D01*
X32854130Y60577659D01*
X32787651Y60622078D01*
X32769983Y60629397D01*
X32711388Y60641052D01*
X32701766Y60642000D01*
X32189680Y60642000D01*
X32176995Y60637878D01*
X32174000Y60633757D01*
X32174000Y59899680D01*
X31666000Y59899680D01*
X31666000Y60626320D01*
X31661878Y60639005D01*
X31657757Y60642000D01*
X31138234Y60642000D01*
X31128612Y60641052D01*
X31070017Y60629397D01*
X31052349Y60622078D01*
X30985870Y60577659D01*
X30972341Y60564130D01*
X30927922Y60497651D01*
X30920603Y60479983D01*
X30908948Y60421388D01*
X30908000Y60411766D01*
X30908000Y59899680D01*
X27152000Y59899680D01*
X27152000Y60411766D01*
X27151052Y60421388D01*
X27139397Y60479983D01*
X27132078Y60497651D01*
X27087659Y60564130D01*
X27074130Y60577659D01*
X27007651Y60622078D01*
X26989983Y60629397D01*
X26931388Y60641052D01*
X26921766Y60642000D01*
X26409680Y60642000D01*
X26396995Y60637878D01*
X26394000Y60633757D01*
X26394000Y59899680D01*
X25886000Y59899680D01*
X25886000Y60626320D01*
X25881878Y60639005D01*
X25877757Y60642000D01*
X25358234Y60642000D01*
X25348612Y60641052D01*
X25290017Y60629397D01*
X25272349Y60622078D01*
X25205870Y60577659D01*
X25192341Y60564130D01*
X25147922Y60497651D01*
X25140603Y60479983D01*
X25128948Y60421388D01*
X25128000Y60411766D01*
X25128000Y59899680D01*
X24870500Y59899680D01*
X24870500Y60440134D01*
X24863745Y60502316D01*
X24817258Y60626320D01*
X24815089Y60632106D01*
X24815089Y60632107D01*
X24812615Y60638705D01*
X24725261Y60755261D01*
X24719617Y60759491D01*
X24719613Y60759495D01*
X24637841Y60820780D01*
X24602616Y60870808D01*
X24603524Y60931986D01*
X24637841Y60979220D01*
X24719613Y61040505D01*
X24719617Y61040509D01*
X24725261Y61044739D01*
X24812615Y61161295D01*
X24816105Y61170603D01*
X24861565Y61291869D01*
X24863745Y61297684D01*
X24870500Y61359866D01*
X24870500Y61388234D01*
X25128000Y61388234D01*
X25128948Y61378612D01*
X25140603Y61320017D01*
X25147922Y61302349D01*
X25192341Y61235870D01*
X25205870Y61222341D01*
X25272349Y61177922D01*
X25290017Y61170603D01*
X25348612Y61158948D01*
X25358234Y61158000D01*
X25870320Y61158000D01*
X25883005Y61162122D01*
X25886000Y61166243D01*
X25886000Y61173680D01*
X26394000Y61173680D01*
X26398122Y61160995D01*
X26402243Y61158000D01*
X26921766Y61158000D01*
X26931388Y61158948D01*
X26989983Y61170603D01*
X27007651Y61177922D01*
X27074130Y61222341D01*
X27087659Y61235870D01*
X27132078Y61302349D01*
X27139397Y61320017D01*
X27151052Y61378612D01*
X27152000Y61388234D01*
X30908000Y61388234D01*
X30908948Y61378612D01*
X30920603Y61320017D01*
X30927922Y61302349D01*
X30972341Y61235870D01*
X30985870Y61222341D01*
X31052349Y61177922D01*
X31070017Y61170603D01*
X31128612Y61158948D01*
X31138234Y61158000D01*
X31650320Y61158000D01*
X31663005Y61162122D01*
X31666000Y61166243D01*
X31666000Y61173680D01*
X32174000Y61173680D01*
X32178122Y61160995D01*
X32182243Y61158000D01*
X32701766Y61158000D01*
X32711388Y61158948D01*
X32769983Y61170603D01*
X32787651Y61177922D01*
X32854130Y61222341D01*
X32867659Y61235870D01*
X32912078Y61302349D01*
X32919397Y61320017D01*
X32931052Y61378612D01*
X32932000Y61388234D01*
X32932000Y61900320D01*
X32927878Y61913005D01*
X32923757Y61916000D01*
X32189680Y61916000D01*
X32176995Y61911878D01*
X32174000Y61907757D01*
X32174000Y61173680D01*
X31666000Y61173680D01*
X31666000Y61900320D01*
X31661878Y61913005D01*
X31657757Y61916000D01*
X30923680Y61916000D01*
X30910995Y61911878D01*
X30908000Y61907757D01*
X30908000Y61388234D01*
X27152000Y61388234D01*
X27152000Y61900320D01*
X27147878Y61913005D01*
X27143757Y61916000D01*
X26409680Y61916000D01*
X26396995Y61911878D01*
X26394000Y61907757D01*
X26394000Y61173680D01*
X25886000Y61173680D01*
X25886000Y61900320D01*
X25881878Y61913005D01*
X25877757Y61916000D01*
X25143680Y61916000D01*
X25130995Y61911878D01*
X25128000Y61907757D01*
X25128000Y61388234D01*
X24870500Y61388234D01*
X24870500Y62439680D01*
X25128000Y62439680D01*
X25132122Y62426995D01*
X25136243Y62424000D01*
X25870320Y62424000D01*
X25883005Y62428122D01*
X25886000Y62432243D01*
X25886000Y62439680D01*
X26394000Y62439680D01*
X26398122Y62426995D01*
X26402243Y62424000D01*
X27136320Y62424000D01*
X27149005Y62428122D01*
X27152000Y62432243D01*
X27152000Y62439680D01*
X30908000Y62439680D01*
X30912122Y62426995D01*
X30916243Y62424000D01*
X31650320Y62424000D01*
X31663005Y62428122D01*
X31666000Y62432243D01*
X31666000Y62439680D01*
X32174000Y62439680D01*
X32178122Y62426995D01*
X32182243Y62424000D01*
X32916320Y62424000D01*
X32929005Y62428122D01*
X32932000Y62432243D01*
X32932000Y62951766D01*
X32931052Y62961388D01*
X32919397Y63019983D01*
X32912078Y63037651D01*
X32867659Y63104130D01*
X32854130Y63117659D01*
X32787651Y63162078D01*
X32769983Y63169397D01*
X32711388Y63181052D01*
X32701766Y63182000D01*
X32189680Y63182000D01*
X32176995Y63177878D01*
X32174000Y63173757D01*
X32174000Y62439680D01*
X31666000Y62439680D01*
X31666000Y63166320D01*
X31661878Y63179005D01*
X31657757Y63182000D01*
X31138234Y63182000D01*
X31128612Y63181052D01*
X31070017Y63169397D01*
X31052349Y63162078D01*
X30985870Y63117659D01*
X30972341Y63104130D01*
X30927922Y63037651D01*
X30920603Y63019983D01*
X30908948Y62961388D01*
X30908000Y62951766D01*
X30908000Y62439680D01*
X27152000Y62439680D01*
X27152000Y62951766D01*
X27151052Y62961388D01*
X27139397Y63019983D01*
X27132078Y63037651D01*
X27087659Y63104130D01*
X27074130Y63117659D01*
X27007651Y63162078D01*
X26989983Y63169397D01*
X26931388Y63181052D01*
X26921766Y63182000D01*
X26409680Y63182000D01*
X26396995Y63177878D01*
X26394000Y63173757D01*
X26394000Y62439680D01*
X25886000Y62439680D01*
X25886000Y63166320D01*
X25881878Y63179005D01*
X25877757Y63182000D01*
X25358234Y63182000D01*
X25348612Y63181052D01*
X25290017Y63169397D01*
X25272349Y63162078D01*
X25205870Y63117659D01*
X25192341Y63104130D01*
X25147922Y63037651D01*
X25140603Y63019983D01*
X25128948Y62961388D01*
X25128000Y62951766D01*
X25128000Y62439680D01*
X24870500Y62439680D01*
X24870500Y62980134D01*
X24863745Y63042316D01*
X24817258Y63166320D01*
X24815089Y63172106D01*
X24815089Y63172107D01*
X24812615Y63178705D01*
X24725261Y63295261D01*
X24608705Y63382615D01*
X24472316Y63433745D01*
X24466144Y63434415D01*
X24466142Y63434416D01*
X24430163Y63438324D01*
X24410134Y63440500D01*
X22789866Y63440500D01*
X22769837Y63438324D01*
X22733858Y63434416D01*
X22733856Y63434415D01*
X22727684Y63433745D01*
X22591295Y63382615D01*
X22474739Y63295261D01*
X22387385Y63178705D01*
X22384911Y63172107D01*
X22384911Y63172106D01*
X22382742Y63166320D01*
X22336255Y63042316D01*
X22329500Y62980134D01*
X22329500Y61359866D01*
X22336255Y61297684D01*
X22338435Y61291869D01*
X22383896Y61170603D01*
X22387385Y61161295D01*
X22474739Y61044739D01*
X22480383Y61040509D01*
X22480387Y61040505D01*
X22562159Y60979220D01*
X22597384Y60929192D01*
X22596476Y60868014D01*
X22562159Y60820780D01*
X22480387Y60759495D01*
X22480383Y60759491D01*
X22474739Y60755261D01*
X22387385Y60638705D01*
X22384911Y60632107D01*
X22384911Y60632106D01*
X22382742Y60626320D01*
X22336255Y60502316D01*
X22329500Y60440134D01*
X22329500Y58819866D01*
X22067323Y58819866D01*
X22071052Y58838612D01*
X22072000Y58848234D01*
X22072000Y59360320D01*
X22067878Y59373005D01*
X22063757Y59376000D01*
X21329680Y59376000D01*
X21316995Y59371878D01*
X21314000Y59367757D01*
X21314000Y58633680D01*
X20806000Y58633680D01*
X20806000Y59360320D01*
X20801878Y59373005D01*
X20797757Y59376000D01*
X20063680Y59376000D01*
X20050995Y59371878D01*
X20048000Y59367757D01*
X20048000Y58848234D01*
X16933736Y58848234D01*
X16609496Y59172474D01*
X16581719Y59226991D01*
X16580500Y59242478D01*
X16580500Y59899680D01*
X20048000Y59899680D01*
X20052122Y59886995D01*
X20056243Y59884000D01*
X20790320Y59884000D01*
X20803005Y59888122D01*
X20806000Y59892243D01*
X20806000Y59899680D01*
X21314000Y59899680D01*
X21318122Y59886995D01*
X21322243Y59884000D01*
X22056320Y59884000D01*
X22069005Y59888122D01*
X22072000Y59892243D01*
X22072000Y60411766D01*
X22071052Y60421388D01*
X22059397Y60479983D01*
X22052078Y60497651D01*
X22007659Y60564130D01*
X21994130Y60577659D01*
X21927651Y60622078D01*
X21909983Y60629397D01*
X21851388Y60641052D01*
X21841766Y60642000D01*
X21329680Y60642000D01*
X21316995Y60637878D01*
X21314000Y60633757D01*
X21314000Y59899680D01*
X20806000Y59899680D01*
X20806000Y60626320D01*
X20801878Y60639005D01*
X20797757Y60642000D01*
X20278234Y60642000D01*
X20268612Y60641052D01*
X20210017Y60629397D01*
X20192349Y60622078D01*
X20125870Y60577659D01*
X20112341Y60564130D01*
X20067922Y60497651D01*
X20060603Y60479983D01*
X20048948Y60421388D01*
X20048000Y60411766D01*
X20048000Y59899680D01*
X16580500Y59899680D01*
X16580500Y60440134D01*
X16573745Y60502316D01*
X16527258Y60626320D01*
X16525089Y60632106D01*
X16525089Y60632107D01*
X16522615Y60638705D01*
X16435261Y60755261D01*
X16429617Y60759491D01*
X16429613Y60759495D01*
X16347841Y60820780D01*
X16312616Y60870808D01*
X16313524Y60931986D01*
X16347841Y60979220D01*
X16429613Y61040505D01*
X16429617Y61040509D01*
X16435261Y61044739D01*
X16522615Y61161295D01*
X16526105Y61170603D01*
X16571565Y61291869D01*
X16573745Y61297684D01*
X16580500Y61359866D01*
X16580500Y61388234D01*
X20048000Y61388234D01*
X20048948Y61378612D01*
X20060603Y61320017D01*
X20067922Y61302349D01*
X20112341Y61235870D01*
X20125870Y61222341D01*
X20192349Y61177922D01*
X20210017Y61170603D01*
X20268612Y61158948D01*
X20278234Y61158000D01*
X20790320Y61158000D01*
X20803005Y61162122D01*
X20806000Y61166243D01*
X20806000Y61173680D01*
X21314000Y61173680D01*
X21318122Y61160995D01*
X21322243Y61158000D01*
X21841766Y61158000D01*
X21851388Y61158948D01*
X21909983Y61170603D01*
X21927651Y61177922D01*
X21994130Y61222341D01*
X22007659Y61235870D01*
X22052078Y61302349D01*
X22059397Y61320017D01*
X22071052Y61378612D01*
X22072000Y61388234D01*
X22072000Y61900320D01*
X22067878Y61913005D01*
X22063757Y61916000D01*
X21329680Y61916000D01*
X21316995Y61911878D01*
X21314000Y61907757D01*
X21314000Y61173680D01*
X20806000Y61173680D01*
X20806000Y61900320D01*
X20801878Y61913005D01*
X20797757Y61916000D01*
X20063680Y61916000D01*
X20050995Y61911878D01*
X20048000Y61907757D01*
X20048000Y61388234D01*
X16580500Y61388234D01*
X16580500Y62439680D01*
X20048000Y62439680D01*
X20052122Y62426995D01*
X20056243Y62424000D01*
X20790320Y62424000D01*
X20803005Y62428122D01*
X20806000Y62432243D01*
X20806000Y62439680D01*
X21314000Y62439680D01*
X21318122Y62426995D01*
X21322243Y62424000D01*
X22056320Y62424000D01*
X22069005Y62428122D01*
X22072000Y62432243D01*
X22072000Y62951766D01*
X22071052Y62961388D01*
X22059397Y63019983D01*
X22052078Y63037651D01*
X22007659Y63104130D01*
X21994130Y63117659D01*
X21927651Y63162078D01*
X21909983Y63169397D01*
X21851388Y63181052D01*
X21841766Y63182000D01*
X21329680Y63182000D01*
X21316995Y63177878D01*
X21314000Y63173757D01*
X21314000Y62439680D01*
X20806000Y62439680D01*
X20806000Y63166320D01*
X20801878Y63179005D01*
X20797757Y63182000D01*
X20278234Y63182000D01*
X20268612Y63181052D01*
X20210017Y63169397D01*
X20192349Y63162078D01*
X20125870Y63117659D01*
X20112341Y63104130D01*
X20067922Y63037651D01*
X20060603Y63019983D01*
X20048948Y62961388D01*
X20048000Y62951766D01*
X20048000Y62439680D01*
X16580500Y62439680D01*
X16580500Y62980134D01*
X16573745Y63042316D01*
X16527258Y63166320D01*
X16525089Y63172106D01*
X16525089Y63172107D01*
X16522615Y63178705D01*
X16435261Y63295261D01*
X16318705Y63382615D01*
X16182316Y63433745D01*
X16176144Y63434415D01*
X16176142Y63434416D01*
X16140163Y63438324D01*
X16120134Y63440500D01*
X14499866Y63440500D01*
X14479837Y63438324D01*
X14443858Y63434416D01*
X14443856Y63434415D01*
X14437684Y63433745D01*
X14301295Y63382615D01*
X14184739Y63295261D01*
X14180509Y63289617D01*
X14180505Y63289613D01*
X14119220Y63207841D01*
X14069192Y63172616D01*
X14008014Y63173524D01*
X13960780Y63207841D01*
X13899495Y63289613D01*
X13899491Y63289617D01*
X13895261Y63295261D01*
X13778705Y63382615D01*
X13642316Y63433745D01*
X13636144Y63434415D01*
X13636142Y63434416D01*
X13600163Y63438324D01*
X13580134Y63440500D01*
X11959866Y63440500D01*
X11939837Y63438324D01*
X11903858Y63434416D01*
X11903856Y63434415D01*
X11897684Y63433745D01*
X11761295Y63382615D01*
X11644739Y63295261D01*
X11640509Y63289617D01*
X11640505Y63289613D01*
X11579220Y63207841D01*
X11529192Y63172616D01*
X11468014Y63173524D01*
X11420780Y63207841D01*
X11359495Y63289613D01*
X11359491Y63289617D01*
X11355261Y63295261D01*
X11238705Y63382615D01*
X11102316Y63433745D01*
X11096144Y63434415D01*
X11096142Y63434416D01*
X11060163Y63438324D01*
X11040134Y63440500D01*
X9419866Y63440500D01*
X9399837Y63438324D01*
X9363858Y63434416D01*
X9363856Y63434415D01*
X9357684Y63433745D01*
X9221295Y63382615D01*
X9104739Y63295261D01*
X9100509Y63289617D01*
X9100505Y63289613D01*
X9039220Y63207841D01*
X8989192Y63172616D01*
X8928014Y63173524D01*
X8880780Y63207841D01*
X8819495Y63289613D01*
X8819491Y63289617D01*
X8815261Y63295261D01*
X8698705Y63382615D01*
X8562316Y63433745D01*
X8556144Y63434415D01*
X8556142Y63434416D01*
X8520163Y63438324D01*
X8500134Y63440500D01*
X6879866Y63440500D01*
X6859837Y63438324D01*
X6823858Y63434416D01*
X6823856Y63434415D01*
X6817684Y63433745D01*
X6681295Y63382615D01*
X6564739Y63295261D01*
X6477385Y63178705D01*
X6474911Y63172107D01*
X6474911Y63172106D01*
X6472742Y63166320D01*
X6426255Y63042316D01*
X6419500Y62980134D01*
X6419500Y61359866D01*
X6426255Y61297684D01*
X6428435Y61291869D01*
X6473896Y61170603D01*
X6477385Y61161295D01*
X6564739Y61044739D01*
X6570383Y61040509D01*
X6570387Y61040505D01*
X6652159Y60979220D01*
X6687384Y60929192D01*
X6686476Y60868014D01*
X6652159Y60820780D01*
X6570387Y60759495D01*
X6570383Y60759491D01*
X6564739Y60755261D01*
X6477385Y60638705D01*
X6474911Y60632107D01*
X6474911Y60632106D01*
X6472742Y60626320D01*
X6426255Y60502316D01*
X6419500Y60440134D01*
X6419500Y58819866D01*
X-4472000Y58819866D01*
X-4472000Y65333000D01*
X-4453093Y65391191D01*
X-4403593Y65427155D01*
X-4373000Y65432000D01*
X55173000Y65432000D01*
X55231191Y65413093D01*
G37*
%TD.AperFunction*%
%TD*%
M02*
