M48
; DRILL file {KiCad 6.0.4-6f826c9f35~116~ubuntu20.04.1} date Sun May 15 20:00:56 2022
; FORMAT={-:-/ absolute / metric / decimal}
; #@! TF.CreationDate,2022-05-15T20:00:56+00:00
; #@! TF.GenerationSoftware,Kicad,Pcbnew,6.0.4-6f826c9f35~116~ubuntu20.04.1
; #@! TF.FileFunction,Plated,1,2,PTH
FMAT,2
METRIC
; #@! TA.AperFunction,Plated,PTH,ViaDrill
T1C0.400
; #@! TA.AperFunction,Plated,PTH,ComponentDrill
T2C0.889
; #@! TA.AperFunction,Plated,PTH,ComponentDrill
T3C1.000
; #@! TA.AperFunction,Plated,PTH,ComponentDrill
T4C3.000
%
G90
G05
T1
X5.0Y48.8
X5.9Y48.7
X8.8Y55.7
X8.8Y54.7
X14.2Y55.4
X15.1Y54.6
X20.0Y38.0
X20.1Y45.4
X20.3Y53.7
X21.1Y38.0
X21.5Y44.7
X22.2Y20.6
X22.2Y17.8
X23.4Y20.6
X23.4Y17.8
X24.4Y25.4
X24.5Y27.6
X25.0Y38.0
X26.0Y38.0
X26.9Y27.675
X27.1Y38.0
X27.5Y29.7
X27.5Y28.8
X28.6Y27.9
X35.4Y49.3
X40.5Y45.0
X41.9Y35.0
X41.9Y31.6
X43.1Y35.0
X43.1Y31.6
X44.3Y35.0
X44.3Y31.6
T2
X1.16Y51.3
X1.17Y8.5
X3.7Y51.3
X3.71Y8.5
X6.24Y51.3
X6.25Y8.5
X8.78Y51.3
X11.32Y51.3
X13.86Y51.3
X16.4Y51.3
X18.94Y51.3
X21.48Y51.3
X24.02Y51.3
X26.56Y51.3
X29.1Y51.3
X31.64Y51.3
X34.18Y51.3
X36.72Y51.3
X39.26Y51.3
X41.8Y51.3
X44.34Y51.3
X44.35Y8.5
X46.88Y51.3
X46.89Y8.5
X49.42Y51.3
X49.43Y8.5
T3
X7.7Y62.0
X7.7Y59.46
X10.24Y62.0
X10.24Y59.46
X12.78Y62.0
X12.78Y59.46
X15.32Y62.0
X15.32Y59.46
X21.02Y62.1
X21.02Y59.56
X23.56Y62.1
X23.56Y59.56
X26.1Y62.1
X26.1Y59.56
X31.95Y62.115
X31.95Y59.575
X34.49Y62.115
X34.49Y59.575
X37.03Y62.115
X37.03Y59.575
X37.075Y55.0
X39.57Y62.115
X39.57Y59.575
X39.615Y55.0
X42.11Y62.115
X42.11Y59.575
X42.155Y55.0
T4
X0.0Y60.96
X0.0Y0.0
X50.8Y60.96
X50.8Y0.0
T0
M30
