%TF.GenerationSoftware,KiCad,Pcbnew,6.0.10+dfsg-1~bpo11+1*%
%TF.CreationDate,2023-03-05T01:48:00+00:00*%
%TF.ProjectId,OLED01,4f4c4544-3031-42e6-9b69-6361645f7063,rev?*%
%TF.SameCoordinates,PX72ba1e0PY737d6e0*%
%TF.FileFunction,Legend,Bot*%
%TF.FilePolarity,Positive*%
%FSLAX46Y46*%
G04 Gerber Fmt 4.6, Leading zero omitted, Abs format (unit mm)*
G04 Created by KiCad (PCBNEW 6.0.10+dfsg-1~bpo11+1) date 2023-03-05 01:48:00*
%MOMM*%
%LPD*%
G01*
G04 APERTURE LIST*
%ADD10C,0.120000*%
%ADD11C,0.660000*%
%ADD12C,0.100000*%
%ADD13C,0.150000*%
G04 APERTURE END LIST*
D10*
X50700000Y19800000D02*
X49500000Y19800000D01*
X49500000Y19800000D02*
X49500000Y18500000D01*
X49500000Y18500000D02*
X50700000Y18500000D01*
X50700000Y18500000D02*
X50700000Y19800000D01*
G36*
X50700000Y19800000D02*
G01*
X49500000Y19800000D01*
X49500000Y18500000D01*
X50700000Y18500000D01*
X50700000Y19800000D01*
G37*
D11*
X16630000Y45400000D02*
G75*
G03*
X16630000Y45400000I-330000J0D01*
G01*
D10*
X25800000Y46050000D02*
X24600000Y46050000D01*
X24600000Y46050000D02*
X24600000Y44750000D01*
X24600000Y44750000D02*
X25800000Y44750000D01*
X25800000Y44750000D02*
X25800000Y46050000D01*
G36*
X25800000Y46050000D02*
G01*
X24600000Y46050000D01*
X24600000Y44750000D01*
X25800000Y44750000D01*
X25800000Y46050000D01*
G37*
X52300000Y47300000D02*
X35300000Y47300000D01*
X35300000Y47300000D02*
X35300000Y39700000D01*
X35300000Y39700000D02*
X52300000Y39700000D01*
X52300000Y39700000D02*
X52300000Y47300000D01*
X49800000Y46500000D02*
X49800000Y40400000D01*
X-1875000Y24900000D02*
X16900000Y24900000D01*
X16900000Y24900000D02*
X16900000Y38800000D01*
X16900000Y38800000D02*
X-1875000Y38800000D01*
X-1875000Y38800000D02*
X-1875000Y24900000D01*
D11*
X46230000Y62200000D02*
G75*
G03*
X46230000Y62200000I-330000J0D01*
G01*
D10*
X51400000Y41750000D02*
X50200000Y41750000D01*
X50200000Y41750000D02*
X50200000Y40450000D01*
X50200000Y40450000D02*
X51400000Y40450000D01*
X51400000Y40450000D02*
X51400000Y41750000D01*
G36*
X51400000Y41750000D02*
G01*
X50200000Y41750000D01*
X50200000Y40450000D01*
X51400000Y40450000D01*
X51400000Y41750000D01*
G37*
X51300000Y22300000D02*
X46100000Y22300000D01*
X46100000Y22300000D02*
X46100000Y17900000D01*
X46100000Y17900000D02*
X51300000Y17900000D01*
X51300000Y17900000D02*
X51300000Y22300000D01*
D11*
X35230000Y54900000D02*
G75*
G03*
X35230000Y54900000I-330000J0D01*
G01*
X22330000Y45400000D02*
G75*
G03*
X22330000Y45400000I-330000J0D01*
G01*
X19230000Y45400000D02*
G75*
G03*
X19230000Y45400000I-330000J0D01*
G01*
X51130000Y43050000D02*
G75*
G03*
X51130000Y43050000I-330000J0D01*
G01*
X50430000Y21100000D02*
G75*
G03*
X50430000Y21100000I-330000J0D01*
G01*
X29530000Y45400000D02*
G75*
G03*
X29530000Y45400000I-330000J0D01*
G01*
D10*
X51500000Y44000000D02*
X47100000Y44000000D01*
D12*
X51900000Y48171429D02*
X51757142Y48123810D01*
X51709523Y48076191D01*
X51661904Y47980953D01*
X51661904Y47838096D01*
X51709523Y47742858D01*
X51757142Y47695239D01*
X51852380Y47647620D01*
X52233333Y47647620D01*
X52233333Y48647620D01*
X51900000Y48647620D01*
X51804761Y48600000D01*
X51757142Y48552381D01*
X51709523Y48457143D01*
X51709523Y48361905D01*
X51757142Y48266667D01*
X51804761Y48219048D01*
X51900000Y48171429D01*
X52233333Y48171429D01*
X50804761Y48314286D02*
X50804761Y47647620D01*
X51233333Y48314286D02*
X51233333Y47790477D01*
X51185714Y47695239D01*
X51090476Y47647620D01*
X50947619Y47647620D01*
X50852380Y47695239D01*
X50804761Y47742858D01*
X50376190Y47695239D02*
X50280952Y47647620D01*
X50090476Y47647620D01*
X49995238Y47695239D01*
X49947619Y47790477D01*
X49947619Y47838096D01*
X49995238Y47933334D01*
X50090476Y47980953D01*
X50233333Y47980953D01*
X50328571Y48028572D01*
X50376190Y48123810D01*
X50376190Y48171429D01*
X50328571Y48266667D01*
X50233333Y48314286D01*
X50090476Y48314286D01*
X49995238Y48266667D01*
X48804761Y47695239D02*
X48709523Y47647620D01*
X48519047Y47647620D01*
X48423809Y47695239D01*
X48376190Y47790477D01*
X48376190Y47838096D01*
X48423809Y47933334D01*
X48519047Y47980953D01*
X48661904Y47980953D01*
X48757142Y48028572D01*
X48804761Y48123810D01*
X48804761Y48171429D01*
X48757142Y48266667D01*
X48661904Y48314286D01*
X48519047Y48314286D01*
X48423809Y48266667D01*
X47566666Y47695239D02*
X47661904Y47647620D01*
X47852380Y47647620D01*
X47947619Y47695239D01*
X47995238Y47790477D01*
X47995238Y48171429D01*
X47947619Y48266667D01*
X47852380Y48314286D01*
X47661904Y48314286D01*
X47566666Y48266667D01*
X47519047Y48171429D01*
X47519047Y48076191D01*
X47995238Y47980953D01*
X46947619Y47647620D02*
X47042857Y47695239D01*
X47090476Y47790477D01*
X47090476Y48647620D01*
X46566666Y47742858D02*
X46519047Y47695239D01*
X46566666Y47647620D01*
X46614285Y47695239D01*
X46566666Y47742858D01*
X46566666Y47647620D01*
D13*
X45900000Y57900000D02*
X45985714Y57947620D01*
X46114285Y57947620D01*
X46242857Y57900000D01*
X46328571Y57804762D01*
X46371428Y57709524D01*
X46414285Y57519048D01*
X46414285Y57376191D01*
X46371428Y57185715D01*
X46328571Y57090477D01*
X46242857Y56995239D01*
X46114285Y56947620D01*
X46028571Y56947620D01*
X45900000Y56995239D01*
X45857142Y57042858D01*
X45857142Y57376191D01*
X46028571Y57376191D01*
X45471428Y56947620D02*
X45471428Y57947620D01*
X44957142Y56947620D01*
X44957142Y57947620D01*
X44528571Y56947620D02*
X44528571Y57947620D01*
X44314285Y57947620D01*
X44185714Y57900000D01*
X44100000Y57804762D01*
X44057142Y57709524D01*
X44014285Y57519048D01*
X44014285Y57376191D01*
X44057142Y57185715D01*
X44100000Y57090477D01*
X44185714Y56995239D01*
X44314285Y56947620D01*
X44528571Y56947620D01*
X42985714Y56995239D02*
X42857142Y56947620D01*
X42642857Y56947620D01*
X42557142Y56995239D01*
X42514285Y57042858D01*
X42471428Y57138096D01*
X42471428Y57233334D01*
X42514285Y57328572D01*
X42557142Y57376191D01*
X42642857Y57423810D01*
X42814285Y57471429D01*
X42900000Y57519048D01*
X42942857Y57566667D01*
X42985714Y57661905D01*
X42985714Y57757143D01*
X42942857Y57852381D01*
X42900000Y57900000D01*
X42814285Y57947620D01*
X42600000Y57947620D01*
X42471428Y57900000D01*
X41571428Y57042858D02*
X41614285Y56995239D01*
X41742857Y56947620D01*
X41828571Y56947620D01*
X41957142Y56995239D01*
X42042857Y57090477D01*
X42085714Y57185715D01*
X42128571Y57376191D01*
X42128571Y57519048D01*
X42085714Y57709524D01*
X42042857Y57804762D01*
X41957142Y57900000D01*
X41828571Y57947620D01*
X41742857Y57947620D01*
X41614285Y57900000D01*
X41571428Y57852381D01*
X40757142Y56947620D02*
X41185714Y56947620D01*
X41185714Y57947620D01*
X39900000Y57947620D02*
X39600000Y56947620D01*
X39300000Y57947620D01*
X38485714Y57042858D02*
X38528571Y56995239D01*
X38657142Y56947620D01*
X38742857Y56947620D01*
X38871428Y56995239D01*
X38957142Y57090477D01*
X39000000Y57185715D01*
X39042857Y57376191D01*
X39042857Y57519048D01*
X39000000Y57709524D01*
X38957142Y57804762D01*
X38871428Y57900000D01*
X38742857Y57947620D01*
X38657142Y57947620D01*
X38528571Y57900000D01*
X38485714Y57852381D01*
X37585714Y57042858D02*
X37628571Y56995239D01*
X37757142Y56947620D01*
X37842857Y56947620D01*
X37971428Y56995239D01*
X38057142Y57090477D01*
X38100000Y57185715D01*
X38142857Y57376191D01*
X38142857Y57519048D01*
X38100000Y57709524D01*
X38057142Y57804762D01*
X37971428Y57900000D01*
X37842857Y57947620D01*
X37757142Y57947620D01*
X37628571Y57900000D01*
X37585714Y57852381D01*
X36557142Y56995239D02*
X36428571Y56947620D01*
X36214285Y56947620D01*
X36128571Y56995239D01*
X36085714Y57042858D01*
X36042857Y57138096D01*
X36042857Y57233334D01*
X36085714Y57328572D01*
X36128571Y57376191D01*
X36214285Y57423810D01*
X36385714Y57471429D01*
X36471428Y57519048D01*
X36514285Y57566667D01*
X36557142Y57661905D01*
X36557142Y57757143D01*
X36514285Y57852381D01*
X36471428Y57900000D01*
X36385714Y57947620D01*
X36171428Y57947620D01*
X36042857Y57900000D01*
X35657142Y56947620D02*
X35657142Y57947620D01*
X35442857Y57947620D01*
X35314285Y57900000D01*
X35228571Y57804762D01*
X35185714Y57709524D01*
X35142857Y57519048D01*
X35142857Y57376191D01*
X35185714Y57185715D01*
X35228571Y57090477D01*
X35314285Y56995239D01*
X35442857Y56947620D01*
X35657142Y56947620D01*
X34800000Y57233334D02*
X34371428Y57233334D01*
X34885714Y56947620D02*
X34585714Y57947620D01*
X34285714Y56947620D01*
X32828571Y57900000D02*
X32914285Y57947620D01*
X33042857Y57947620D01*
X33171428Y57900000D01*
X33257142Y57804762D01*
X33300000Y57709524D01*
X33342857Y57519048D01*
X33342857Y57376191D01*
X33300000Y57185715D01*
X33257142Y57090477D01*
X33171428Y56995239D01*
X33042857Y56947620D01*
X32957142Y56947620D01*
X32828571Y56995239D01*
X32785714Y57042858D01*
X32785714Y57376191D01*
X32957142Y57376191D01*
X11223809Y63895239D02*
X11080952Y63847620D01*
X10842857Y63847620D01*
X10747619Y63895239D01*
X10700000Y63942858D01*
X10652380Y64038096D01*
X10652380Y64133334D01*
X10700000Y64228572D01*
X10747619Y64276191D01*
X10842857Y64323810D01*
X11033333Y64371429D01*
X11128571Y64419048D01*
X11176190Y64466667D01*
X11223809Y64561905D01*
X11223809Y64657143D01*
X11176190Y64752381D01*
X11128571Y64800000D01*
X11033333Y64847620D01*
X10795238Y64847620D01*
X10652380Y64800000D01*
X10223809Y63847620D02*
X10223809Y64847620D01*
X9842857Y64847620D01*
X9747619Y64800000D01*
X9700000Y64752381D01*
X9652380Y64657143D01*
X9652380Y64514286D01*
X9700000Y64419048D01*
X9747619Y64371429D01*
X9842857Y64323810D01*
X10223809Y64323810D01*
X9223809Y63847620D02*
X9223809Y64847620D01*
D12*
X-4376191Y24552381D02*
X-4947620Y24552381D01*
X-4661905Y24552381D02*
X-4661905Y23552381D01*
X-4757143Y23695239D01*
X-4852381Y23790477D01*
X-4947620Y23838096D01*
X-3995239Y23647620D02*
X-3947620Y23600000D01*
X-3852381Y23552381D01*
X-3614286Y23552381D01*
X-3519048Y23600000D01*
X-3471429Y23647620D01*
X-3423810Y23742858D01*
X-3423810Y23838096D01*
X-3471429Y23980953D01*
X-4042858Y24552381D01*
X-3423810Y24552381D01*
X-3138096Y23552381D02*
X-2804762Y24552381D01*
X-2471429Y23552381D01*
X-1423810Y24504762D02*
X-1328572Y24552381D01*
X-1138096Y24552381D01*
X-1042858Y24504762D01*
X-995239Y24409524D01*
X-995239Y24361905D01*
X-1042858Y24266667D01*
X-1138096Y24219048D01*
X-1280953Y24219048D01*
X-1376191Y24171429D01*
X-1423810Y24076191D01*
X-1423810Y24028572D01*
X-1376191Y23933334D01*
X-1280953Y23885715D01*
X-1138096Y23885715D01*
X-1042858Y23933334D01*
X-423810Y24552381D02*
X-519048Y24504762D01*
X-566667Y24457143D01*
X-614286Y24361905D01*
X-614286Y24076191D01*
X-566667Y23980953D01*
X-519048Y23933334D01*
X-423810Y23885715D01*
X-280953Y23885715D01*
X-185715Y23933334D01*
X-138096Y23980953D01*
X-90477Y24076191D01*
X-90477Y24361905D01*
X-138096Y24457143D01*
X-185715Y24504762D01*
X-280953Y24552381D01*
X-423810Y24552381D01*
X766666Y23885715D02*
X766666Y24552381D01*
X338095Y23885715D02*
X338095Y24409524D01*
X385714Y24504762D01*
X480952Y24552381D01*
X623809Y24552381D01*
X719047Y24504762D01*
X766666Y24457143D01*
X1242857Y24552381D02*
X1242857Y23885715D01*
X1242857Y24076191D02*
X1290476Y23980953D01*
X1338095Y23933334D01*
X1433333Y23885715D01*
X1528571Y23885715D01*
X2290476Y24504762D02*
X2195238Y24552381D01*
X2004761Y24552381D01*
X1909523Y24504762D01*
X1861904Y24457143D01*
X1814285Y24361905D01*
X1814285Y24076191D01*
X1861904Y23980953D01*
X1909523Y23933334D01*
X2004761Y23885715D01*
X2195238Y23885715D01*
X2290476Y23933334D01*
X3100000Y24504762D02*
X3004761Y24552381D01*
X2814285Y24552381D01*
X2719047Y24504762D01*
X2671428Y24409524D01*
X2671428Y24028572D01*
X2719047Y23933334D01*
X2814285Y23885715D01*
X3004761Y23885715D01*
X3100000Y23933334D01*
X3147619Y24028572D01*
X3147619Y24123810D01*
X2671428Y24219048D01*
D13*
X32052380Y63847620D02*
X32052380Y64847620D01*
X31671428Y64847620D01*
X31576190Y64800000D01*
X31528571Y64752381D01*
X31480952Y64657143D01*
X31480952Y64514286D01*
X31528571Y64419048D01*
X31576190Y64371429D01*
X31671428Y64323810D01*
X32052380Y64323810D01*
X31147619Y64847620D02*
X30909523Y63847620D01*
X30719047Y64561905D01*
X30528571Y63847620D01*
X30290476Y64847620D01*
X29338095Y63847620D02*
X29671428Y64323810D01*
X29909523Y63847620D02*
X29909523Y64847620D01*
X29528571Y64847620D01*
X29433333Y64800000D01*
X29385714Y64752381D01*
X29338095Y64657143D01*
X29338095Y64514286D01*
X29385714Y64419048D01*
X29433333Y64371429D01*
X29528571Y64323810D01*
X29909523Y64323810D01*
X28147619Y63847620D02*
X28147619Y64514286D01*
X28147619Y64419048D02*
X28100000Y64466667D01*
X28004761Y64514286D01*
X27861904Y64514286D01*
X27766666Y64466667D01*
X27719047Y64371429D01*
X27719047Y63847620D01*
X27719047Y64371429D02*
X27671428Y64466667D01*
X27576190Y64514286D01*
X27433333Y64514286D01*
X27338095Y64466667D01*
X27290476Y64371429D01*
X27290476Y63847620D01*
X26385714Y63847620D02*
X26385714Y64371429D01*
X26433333Y64466667D01*
X26528571Y64514286D01*
X26719047Y64514286D01*
X26814285Y64466667D01*
X26385714Y63895239D02*
X26480952Y63847620D01*
X26719047Y63847620D01*
X26814285Y63895239D01*
X26861904Y63990477D01*
X26861904Y64085715D01*
X26814285Y64180953D01*
X26719047Y64228572D01*
X26480952Y64228572D01*
X26385714Y64276191D01*
X26004761Y63847620D02*
X25480952Y64514286D01*
X26004761Y64514286D02*
X25480952Y63847620D01*
X24433333Y64847620D02*
X23814285Y64847620D01*
X24147619Y64466667D01*
X24004761Y64466667D01*
X23909523Y64419048D01*
X23861904Y64371429D01*
X23814285Y64276191D01*
X23814285Y64038096D01*
X23861904Y63942858D01*
X23909523Y63895239D01*
X24004761Y63847620D01*
X24290476Y63847620D01*
X24385714Y63895239D01*
X24433333Y63942858D01*
X23480952Y64514286D02*
X23242857Y63847620D01*
X23004761Y64514286D01*
X22719047Y64847620D02*
X22100000Y64847620D01*
X22433333Y64466667D01*
X22290476Y64466667D01*
X22195238Y64419048D01*
X22147619Y64371429D01*
X22100000Y64276191D01*
X22100000Y64038096D01*
X22147619Y63942858D01*
X22195238Y63895239D01*
X22290476Y63847620D01*
X22576190Y63847620D01*
X22671428Y63895239D01*
X22719047Y63942858D01*
X47698857Y46104762D02*
X47736952Y45990477D01*
X47775047Y45952381D01*
X47851238Y45914286D01*
X47965523Y45914286D01*
X48041714Y45952381D01*
X48079809Y45990477D01*
X48117904Y46066667D01*
X48117904Y46371429D01*
X47317904Y46371429D01*
X47317904Y46104762D01*
X47356000Y46028572D01*
X47394095Y45990477D01*
X47470285Y45952381D01*
X47546476Y45952381D01*
X47622666Y45990477D01*
X47660761Y46028572D01*
X47698857Y46104762D01*
X47698857Y46371429D01*
X48079809Y45609524D02*
X48117904Y45495239D01*
X48117904Y45304762D01*
X48079809Y45228572D01*
X48041714Y45190477D01*
X47965523Y45152381D01*
X47889333Y45152381D01*
X47813142Y45190477D01*
X47775047Y45228572D01*
X47736952Y45304762D01*
X47698857Y45457143D01*
X47660761Y45533334D01*
X47622666Y45571429D01*
X47546476Y45609524D01*
X47470285Y45609524D01*
X47394095Y45571429D01*
X47356000Y45533334D01*
X47317904Y45457143D01*
X47317904Y45266667D01*
X47356000Y45152381D01*
X48117904Y44390477D02*
X48117904Y44847620D01*
X48117904Y44619048D02*
X47317904Y44619048D01*
X47432190Y44695239D01*
X47508380Y44771429D01*
X47546476Y44847620D01*
X48986857Y46104762D02*
X49024952Y45990477D01*
X49063047Y45952381D01*
X49139238Y45914286D01*
X49253523Y45914286D01*
X49329714Y45952381D01*
X49367809Y45990477D01*
X49405904Y46066667D01*
X49405904Y46371429D01*
X48605904Y46371429D01*
X48605904Y46104762D01*
X48644000Y46028572D01*
X48682095Y45990477D01*
X48758285Y45952381D01*
X48834476Y45952381D01*
X48910666Y45990477D01*
X48948761Y46028572D01*
X48986857Y46104762D01*
X48986857Y46371429D01*
X49367809Y45609524D02*
X49405904Y45495239D01*
X49405904Y45304762D01*
X49367809Y45228572D01*
X49329714Y45190477D01*
X49253523Y45152381D01*
X49177333Y45152381D01*
X49101142Y45190477D01*
X49063047Y45228572D01*
X49024952Y45304762D01*
X48986857Y45457143D01*
X48948761Y45533334D01*
X48910666Y45571429D01*
X48834476Y45609524D01*
X48758285Y45609524D01*
X48682095Y45571429D01*
X48644000Y45533334D01*
X48605904Y45457143D01*
X48605904Y45266667D01*
X48644000Y45152381D01*
X48605904Y44657143D02*
X48605904Y44580953D01*
X48644000Y44504762D01*
X48682095Y44466667D01*
X48758285Y44428572D01*
X48910666Y44390477D01*
X49101142Y44390477D01*
X49253523Y44428572D01*
X49329714Y44466667D01*
X49367809Y44504762D01*
X49405904Y44580953D01*
X49405904Y44657143D01*
X49367809Y44733334D01*
X49329714Y44771429D01*
X49253523Y44809524D01*
X49101142Y44847620D01*
X48910666Y44847620D01*
X48758285Y44809524D01*
X48682095Y44771429D01*
X48644000Y44733334D01*
X48605904Y44657143D01*
D12*
X40990476Y53066667D02*
X40609523Y53066667D01*
X41066666Y52838096D02*
X40800000Y53638096D01*
X40533333Y52838096D01*
X40266666Y52838096D02*
X40266666Y53638096D01*
X40076190Y53638096D01*
X39961904Y53600000D01*
X39885714Y53523810D01*
X39847619Y53447620D01*
X39809523Y53295239D01*
X39809523Y53180953D01*
X39847619Y53028572D01*
X39885714Y52952381D01*
X39961904Y52876191D01*
X40076190Y52838096D01*
X40266666Y52838096D01*
X39466666Y52838096D02*
X39466666Y53638096D01*
X39276190Y53638096D01*
X39161904Y53600000D01*
X39085714Y53523810D01*
X39047619Y53447620D01*
X39009523Y53295239D01*
X39009523Y53180953D01*
X39047619Y53028572D01*
X39085714Y52952381D01*
X39161904Y52876191D01*
X39276190Y52838096D01*
X39466666Y52838096D01*
X38209523Y52838096D02*
X38476190Y53219048D01*
X38666666Y52838096D02*
X38666666Y53638096D01*
X38361904Y53638096D01*
X38285714Y53600000D01*
X38247619Y53561905D01*
X38209523Y53485715D01*
X38209523Y53371429D01*
X38247619Y53295239D01*
X38285714Y53257143D01*
X38361904Y53219048D01*
X38666666Y53219048D01*
D13*
X48776190Y20647620D02*
X48776190Y21647620D01*
X48347619Y21552381D02*
X48300000Y21600000D01*
X48204761Y21647620D01*
X47966666Y21647620D01*
X47871428Y21600000D01*
X47823809Y21552381D01*
X47776190Y21457143D01*
X47776190Y21361905D01*
X47823809Y21219048D01*
X48395238Y20647620D01*
X47776190Y20647620D01*
X46776190Y20742858D02*
X46823809Y20695239D01*
X46966666Y20647620D01*
X47061904Y20647620D01*
X47204761Y20695239D01*
X47300000Y20790477D01*
X47347619Y20885715D01*
X47395238Y21076191D01*
X47395238Y21219048D01*
X47347619Y21409524D01*
X47300000Y21504762D01*
X47204761Y21600000D01*
X47061904Y21647620D01*
X46966666Y21647620D01*
X46823809Y21600000D01*
X46776190Y21552381D01*
D12*
X40507142Y41271429D02*
X40507142Y40128572D01*
X40607142Y46771429D02*
X40607142Y45628572D01*
X41178571Y46200000D02*
X40035714Y46200000D01*
D13*
X39576190Y63847620D02*
X39576190Y64847620D01*
X39147619Y64752381D02*
X39100000Y64800000D01*
X39004761Y64847620D01*
X38766666Y64847620D01*
X38671428Y64800000D01*
X38623809Y64752381D01*
X38576190Y64657143D01*
X38576190Y64561905D01*
X38623809Y64419048D01*
X39195238Y63847620D01*
X38576190Y63847620D01*
X37576190Y63942858D02*
X37623809Y63895239D01*
X37766666Y63847620D01*
X37861904Y63847620D01*
X38004761Y63895239D01*
X38100000Y63990477D01*
X38147619Y64085715D01*
X38195238Y64276191D01*
X38195238Y64419048D01*
X38147619Y64609524D01*
X38100000Y64704762D01*
X38004761Y64800000D01*
X37861904Y64847620D01*
X37766666Y64847620D01*
X37623809Y64800000D01*
X37576190Y64752381D01*
X16771428Y56747620D02*
X16771428Y57747620D01*
X16471428Y57033334D01*
X16171428Y57747620D01*
X16171428Y56747620D01*
X15571428Y57747620D02*
X15400000Y57747620D01*
X15314285Y57700000D01*
X15228571Y57604762D01*
X15185714Y57414286D01*
X15185714Y57080953D01*
X15228571Y56890477D01*
X15314285Y56795239D01*
X15400000Y56747620D01*
X15571428Y56747620D01*
X15657142Y56795239D01*
X15742857Y56890477D01*
X15785714Y57080953D01*
X15785714Y57414286D01*
X15742857Y57604762D01*
X15657142Y57700000D01*
X15571428Y57747620D01*
X14842857Y56795239D02*
X14714285Y56747620D01*
X14500000Y56747620D01*
X14414285Y56795239D01*
X14371428Y56842858D01*
X14328571Y56938096D01*
X14328571Y57033334D01*
X14371428Y57128572D01*
X14414285Y57176191D01*
X14500000Y57223810D01*
X14671428Y57271429D01*
X14757142Y57319048D01*
X14800000Y57366667D01*
X14842857Y57461905D01*
X14842857Y57557143D01*
X14800000Y57652381D01*
X14757142Y57700000D01*
X14671428Y57747620D01*
X14457142Y57747620D01*
X14328571Y57700000D01*
X13942857Y56747620D02*
X13942857Y57747620D01*
X12314285Y56842858D02*
X12357142Y56795239D01*
X12485714Y56747620D01*
X12571428Y56747620D01*
X12700000Y56795239D01*
X12785714Y56890477D01*
X12828571Y56985715D01*
X12871428Y57176191D01*
X12871428Y57319048D01*
X12828571Y57509524D01*
X12785714Y57604762D01*
X12700000Y57700000D01*
X12571428Y57747620D01*
X12485714Y57747620D01*
X12357142Y57700000D01*
X12314285Y57652381D01*
X11500000Y56747620D02*
X11928571Y56747620D01*
X11928571Y57747620D01*
X11200000Y56747620D02*
X11200000Y57747620D01*
X10685714Y56747620D02*
X11071428Y57319048D01*
X10685714Y57747620D02*
X11200000Y57176191D01*
X9657142Y57414286D02*
X9014285Y57414286D01*
X9400000Y57842858D02*
X9657142Y56557143D01*
X9100000Y56985715D02*
X9742857Y56985715D01*
X9357142Y56557143D02*
X9100000Y57842858D01*
X8200000Y56842858D02*
X8242857Y56795239D01*
X8371428Y56747620D01*
X8457142Y56747620D01*
X8585714Y56795239D01*
X8671428Y56890477D01*
X8714285Y56985715D01*
X8757142Y57176191D01*
X8757142Y57319048D01*
X8714285Y57509524D01*
X8671428Y57604762D01*
X8585714Y57700000D01*
X8457142Y57747620D01*
X8371428Y57747620D01*
X8242857Y57700000D01*
X8200000Y57652381D01*
X7857142Y56795239D02*
X7728571Y56747620D01*
X7514285Y56747620D01*
X7428571Y56795239D01*
X7385714Y56842858D01*
X7342857Y56938096D01*
X7342857Y57033334D01*
X7385714Y57128572D01*
X7428571Y57176191D01*
X7514285Y57223810D01*
X7685714Y57271429D01*
X7771428Y57319048D01*
X7814285Y57366667D01*
X7857142Y57461905D01*
X7857142Y57557143D01*
X7814285Y57652381D01*
X7771428Y57700000D01*
X7685714Y57747620D01*
X7471428Y57747620D01*
X7342857Y57700000D01*
X6314285Y57414286D02*
X5671428Y57414286D01*
X6057142Y57842858D02*
X6314285Y56557143D01*
X5757142Y56985715D02*
X6400000Y56985715D01*
X6014285Y56557143D02*
X5757142Y57842858D01*
X4857142Y56747620D02*
X5157142Y57223810D01*
X5371428Y56747620D02*
X5371428Y57747620D01*
X5028571Y57747620D01*
X4942857Y57700000D01*
X4900000Y57652381D01*
X4857142Y57557143D01*
X4857142Y57414286D01*
X4900000Y57319048D01*
X4942857Y57271429D01*
X5028571Y57223810D01*
X5371428Y57223810D01*
X4471428Y57271429D02*
X4171428Y57271429D01*
X4042857Y56747620D02*
X4471428Y56747620D01*
X4471428Y57747620D01*
X4042857Y57747620D01*
X3700000Y56795239D02*
X3571428Y56747620D01*
X3357142Y56747620D01*
X3271428Y56795239D01*
X3228571Y56842858D01*
X3185714Y56938096D01*
X3185714Y57033334D01*
X3228571Y57128572D01*
X3271428Y57176191D01*
X3357142Y57223810D01*
X3528571Y57271429D01*
X3614285Y57319048D01*
X3657142Y57366667D01*
X3700000Y57461905D01*
X3700000Y57557143D01*
X3657142Y57652381D01*
X3614285Y57700000D01*
X3528571Y57747620D01*
X3314285Y57747620D01*
X3185714Y57700000D01*
X48823809Y18795239D02*
X48680952Y18747620D01*
X48442857Y18747620D01*
X48347619Y18795239D01*
X48300000Y18842858D01*
X48252380Y18938096D01*
X48252380Y19033334D01*
X48300000Y19128572D01*
X48347619Y19176191D01*
X48442857Y19223810D01*
X48633333Y19271429D01*
X48728571Y19319048D01*
X48776190Y19366667D01*
X48823809Y19461905D01*
X48823809Y19557143D01*
X48776190Y19652381D01*
X48728571Y19700000D01*
X48633333Y19747620D01*
X48395238Y19747620D01*
X48252380Y19700000D01*
X47823809Y18747620D02*
X47823809Y19747620D01*
X47442857Y19747620D01*
X47347619Y19700000D01*
X47300000Y19652381D01*
X47252380Y19557143D01*
X47252380Y19414286D01*
X47300000Y19319048D01*
X47347619Y19271429D01*
X47442857Y19223810D01*
X47823809Y19223810D01*
X46823809Y18747620D02*
X46823809Y19747620D01*
X39698857Y43904762D02*
X39736952Y43790477D01*
X39775047Y43752381D01*
X39851238Y43714286D01*
X39965523Y43714286D01*
X40041714Y43752381D01*
X40079809Y43790477D01*
X40117904Y43866667D01*
X40117904Y44171429D01*
X39317904Y44171429D01*
X39317904Y43904762D01*
X39356000Y43828572D01*
X39394095Y43790477D01*
X39470285Y43752381D01*
X39546476Y43752381D01*
X39622666Y43790477D01*
X39660761Y43828572D01*
X39698857Y43904762D01*
X39698857Y44171429D01*
X40079809Y43409524D02*
X40117904Y43295239D01*
X40117904Y43104762D01*
X40079809Y43028572D01*
X40041714Y42990477D01*
X39965523Y42952381D01*
X39889333Y42952381D01*
X39813142Y42990477D01*
X39775047Y43028572D01*
X39736952Y43104762D01*
X39698857Y43257143D01*
X39660761Y43333334D01*
X39622666Y43371429D01*
X39546476Y43409524D01*
X39470285Y43409524D01*
X39394095Y43371429D01*
X39356000Y43333334D01*
X39317904Y43257143D01*
X39317904Y43066667D01*
X39356000Y42952381D01*
X40117904Y42190477D02*
X40117904Y42647620D01*
X40117904Y42419048D02*
X39317904Y42419048D01*
X39432190Y42495239D01*
X39508380Y42571429D01*
X39546476Y42647620D01*
X40986857Y43904762D02*
X41024952Y43790477D01*
X41063047Y43752381D01*
X41139238Y43714286D01*
X41253523Y43714286D01*
X41329714Y43752381D01*
X41367809Y43790477D01*
X41405904Y43866667D01*
X41405904Y44171429D01*
X40605904Y44171429D01*
X40605904Y43904762D01*
X40644000Y43828572D01*
X40682095Y43790477D01*
X40758285Y43752381D01*
X40834476Y43752381D01*
X40910666Y43790477D01*
X40948761Y43828572D01*
X40986857Y43904762D01*
X40986857Y44171429D01*
X41367809Y43409524D02*
X41405904Y43295239D01*
X41405904Y43104762D01*
X41367809Y43028572D01*
X41329714Y42990477D01*
X41253523Y42952381D01*
X41177333Y42952381D01*
X41101142Y42990477D01*
X41063047Y43028572D01*
X41024952Y43104762D01*
X40986857Y43257143D01*
X40948761Y43333334D01*
X40910666Y43371429D01*
X40834476Y43409524D01*
X40758285Y43409524D01*
X40682095Y43371429D01*
X40644000Y43333334D01*
X40605904Y43257143D01*
X40605904Y43066667D01*
X40644000Y42952381D01*
X40605904Y42457143D02*
X40605904Y42380953D01*
X40644000Y42304762D01*
X40682095Y42266667D01*
X40758285Y42228572D01*
X40910666Y42190477D01*
X41101142Y42190477D01*
X41253523Y42228572D01*
X41329714Y42266667D01*
X41367809Y42304762D01*
X41405904Y42380953D01*
X41405904Y42457143D01*
X41367809Y42533334D01*
X41329714Y42571429D01*
X41253523Y42609524D01*
X41101142Y42647620D01*
X40910666Y42647620D01*
X40758285Y42609524D01*
X40682095Y42571429D01*
X40644000Y42533334D01*
X40605904Y42457143D01*
X49400000Y42833572D02*
X48638095Y42833572D01*
X48161904Y42833572D02*
X47400000Y42833572D01*
X47780952Y42452620D02*
X47780952Y43214524D01*
X49400000Y41223572D02*
X48638095Y41223572D01*
X49019047Y40842620D02*
X49019047Y41604524D01*
X48161904Y41223572D02*
X47400000Y41223572D01*
%TO.C,L1*%
X15652380Y26466667D02*
X15652380Y26942858D01*
X14652380Y26942858D01*
X15652380Y25609524D02*
X15652380Y26180953D01*
X15652380Y25895239D02*
X14652380Y25895239D01*
X14795238Y25990477D01*
X14890476Y26085715D01*
X14938095Y26180953D01*
%TO.C,R10*%
X16752380Y43442858D02*
X16276190Y43776191D01*
X16752380Y44014286D02*
X15752380Y44014286D01*
X15752380Y43633334D01*
X15800000Y43538096D01*
X15847619Y43490477D01*
X15942857Y43442858D01*
X16085714Y43442858D01*
X16180952Y43490477D01*
X16228571Y43538096D01*
X16276190Y43633334D01*
X16276190Y44014286D01*
X16752380Y42490477D02*
X16752380Y43061905D01*
X16752380Y42776191D02*
X15752380Y42776191D01*
X15895238Y42871429D01*
X15990476Y42966667D01*
X16038095Y43061905D01*
X15752380Y41871429D02*
X15752380Y41776191D01*
X15800000Y41680953D01*
X15847619Y41633334D01*
X15942857Y41585715D01*
X16133333Y41538096D01*
X16371428Y41538096D01*
X16561904Y41585715D01*
X16657142Y41633334D01*
X16704761Y41680953D01*
X16752380Y41776191D01*
X16752380Y41871429D01*
X16704761Y41966667D01*
X16657142Y42014286D01*
X16561904Y42061905D01*
X16371428Y42109524D01*
X16133333Y42109524D01*
X15942857Y42061905D01*
X15847619Y42014286D01*
X15800000Y41966667D01*
X15752380Y41871429D01*
%TO.C,R3*%
X44852380Y41266667D02*
X44376190Y41600000D01*
X44852380Y41838096D02*
X43852380Y41838096D01*
X43852380Y41457143D01*
X43900000Y41361905D01*
X43947619Y41314286D01*
X44042857Y41266667D01*
X44185714Y41266667D01*
X44280952Y41314286D01*
X44328571Y41361905D01*
X44376190Y41457143D01*
X44376190Y41838096D01*
X43852380Y40933334D02*
X43852380Y40314286D01*
X44233333Y40647620D01*
X44233333Y40504762D01*
X44280952Y40409524D01*
X44328571Y40361905D01*
X44423809Y40314286D01*
X44661904Y40314286D01*
X44757142Y40361905D01*
X44804761Y40409524D01*
X44852380Y40504762D01*
X44852380Y40790477D01*
X44804761Y40885715D01*
X44757142Y40933334D01*
%TO.C,U3*%
X8952721Y35385552D02*
X9762245Y35385552D01*
X9857483Y35337933D01*
X9905102Y35290314D01*
X9952721Y35195076D01*
X9952721Y35004600D01*
X9905102Y34909362D01*
X9857483Y34861743D01*
X9762245Y34814124D01*
X8952721Y34814124D01*
X8952721Y34433171D02*
X8952721Y33814124D01*
X9333674Y34147457D01*
X9333674Y34004600D01*
X9381293Y33909362D01*
X9428912Y33861743D01*
X9524150Y33814124D01*
X9762245Y33814124D01*
X9857483Y33861743D01*
X9905102Y33909362D01*
X9952721Y34004600D01*
X9952721Y34290314D01*
X9905102Y34385552D01*
X9857483Y34433171D01*
%TO.C,R1*%
X11852380Y44966667D02*
X11376190Y45300000D01*
X11852380Y45538096D02*
X10852380Y45538096D01*
X10852380Y45157143D01*
X10900000Y45061905D01*
X10947619Y45014286D01*
X11042857Y44966667D01*
X11185714Y44966667D01*
X11280952Y45014286D01*
X11328571Y45061905D01*
X11376190Y45157143D01*
X11376190Y45538096D01*
X11852380Y44014286D02*
X11852380Y44585715D01*
X11852380Y44300000D02*
X10852380Y44300000D01*
X10995238Y44395239D01*
X11090476Y44490477D01*
X11138095Y44585715D01*
%TO.C,J1*%
X25633333Y27797620D02*
X25633333Y27083334D01*
X25680952Y26940477D01*
X25776190Y26845239D01*
X25919047Y26797620D01*
X26014285Y26797620D01*
X24633333Y26797620D02*
X25204761Y26797620D01*
X24919047Y26797620D02*
X24919047Y27797620D01*
X25014285Y27654762D01*
X25109523Y27559524D01*
X25204761Y27511905D01*
%TO.C,R4*%
X36952380Y46066667D02*
X36476190Y46400000D01*
X36952380Y46638096D02*
X35952380Y46638096D01*
X35952380Y46257143D01*
X36000000Y46161905D01*
X36047619Y46114286D01*
X36142857Y46066667D01*
X36285714Y46066667D01*
X36380952Y46114286D01*
X36428571Y46161905D01*
X36476190Y46257143D01*
X36476190Y46638096D01*
X36285714Y45209524D02*
X36952380Y45209524D01*
X35904761Y45447620D02*
X36619047Y45685715D01*
X36619047Y45066667D01*
%TO.C,D2*%
X19752380Y56438096D02*
X18752380Y56438096D01*
X18752380Y56200000D01*
X18800000Y56057143D01*
X18895238Y55961905D01*
X18990476Y55914286D01*
X19180952Y55866667D01*
X19323809Y55866667D01*
X19514285Y55914286D01*
X19609523Y55961905D01*
X19704761Y56057143D01*
X19752380Y56200000D01*
X19752380Y56438096D01*
X18847619Y55485715D02*
X18800000Y55438096D01*
X18752380Y55342858D01*
X18752380Y55104762D01*
X18800000Y55009524D01*
X18847619Y54961905D01*
X18942857Y54914286D01*
X19038095Y54914286D01*
X19180952Y54961905D01*
X19752380Y55533334D01*
X19752380Y54914286D01*
%TO.C,C8*%
X34457142Y55366667D02*
X34504761Y55414286D01*
X34552380Y55557143D01*
X34552380Y55652381D01*
X34504761Y55795239D01*
X34409523Y55890477D01*
X34314285Y55938096D01*
X34123809Y55985715D01*
X33980952Y55985715D01*
X33790476Y55938096D01*
X33695238Y55890477D01*
X33600000Y55795239D01*
X33552380Y55652381D01*
X33552380Y55557143D01*
X33600000Y55414286D01*
X33647619Y55366667D01*
X33980952Y54795239D02*
X33933333Y54890477D01*
X33885714Y54938096D01*
X33790476Y54985715D01*
X33742857Y54985715D01*
X33647619Y54938096D01*
X33600000Y54890477D01*
X33552380Y54795239D01*
X33552380Y54604762D01*
X33600000Y54509524D01*
X33647619Y54461905D01*
X33742857Y54414286D01*
X33790476Y54414286D01*
X33885714Y54461905D01*
X33933333Y54509524D01*
X33980952Y54604762D01*
X33980952Y54795239D01*
X34028571Y54890477D01*
X34076190Y54938096D01*
X34171428Y54985715D01*
X34361904Y54985715D01*
X34457142Y54938096D01*
X34504761Y54890477D01*
X34552380Y54795239D01*
X34552380Y54604762D01*
X34504761Y54509524D01*
X34457142Y54461905D01*
X34361904Y54414286D01*
X34171428Y54414286D01*
X34076190Y54461905D01*
X34028571Y54509524D01*
X33980952Y54604762D01*
%TO.C,R13*%
X19252380Y43442858D02*
X18776190Y43776191D01*
X19252380Y44014286D02*
X18252380Y44014286D01*
X18252380Y43633334D01*
X18300000Y43538096D01*
X18347619Y43490477D01*
X18442857Y43442858D01*
X18585714Y43442858D01*
X18680952Y43490477D01*
X18728571Y43538096D01*
X18776190Y43633334D01*
X18776190Y44014286D01*
X19252380Y42490477D02*
X19252380Y43061905D01*
X19252380Y42776191D02*
X18252380Y42776191D01*
X18395238Y42871429D01*
X18490476Y42966667D01*
X18538095Y43061905D01*
X18252380Y42157143D02*
X18252380Y41538096D01*
X18633333Y41871429D01*
X18633333Y41728572D01*
X18680952Y41633334D01*
X18728571Y41585715D01*
X18823809Y41538096D01*
X19061904Y41538096D01*
X19157142Y41585715D01*
X19204761Y41633334D01*
X19252380Y41728572D01*
X19252380Y42014286D01*
X19204761Y42109524D01*
X19157142Y42157143D01*
%TO.C,D1*%
X1538095Y26947620D02*
X1538095Y27947620D01*
X1300000Y27947620D01*
X1157142Y27900000D01*
X1061904Y27804762D01*
X1014285Y27709524D01*
X966666Y27519048D01*
X966666Y27376191D01*
X1014285Y27185715D01*
X1061904Y27090477D01*
X1157142Y26995239D01*
X1300000Y26947620D01*
X1538095Y26947620D01*
X14285Y26947620D02*
X585714Y26947620D01*
X300000Y26947620D02*
X300000Y27947620D01*
X395238Y27804762D01*
X490476Y27709524D01*
X585714Y27661905D01*
%TO.C,U2*%
X29461904Y7747620D02*
X29461904Y6938096D01*
X29414285Y6842858D01*
X29366666Y6795239D01*
X29271428Y6747620D01*
X29080952Y6747620D01*
X28985714Y6795239D01*
X28938095Y6842858D01*
X28890476Y6938096D01*
X28890476Y7747620D01*
X28461904Y7652381D02*
X28414285Y7700000D01*
X28319047Y7747620D01*
X28080952Y7747620D01*
X27985714Y7700000D01*
X27938095Y7652381D01*
X27890476Y7557143D01*
X27890476Y7461905D01*
X27938095Y7319048D01*
X28509523Y6747620D01*
X27890476Y6747620D01*
%TO.C,U5*%
X37861904Y10497620D02*
X37861904Y9688096D01*
X37814285Y9592858D01*
X37766666Y9545239D01*
X37671428Y9497620D01*
X37480952Y9497620D01*
X37385714Y9545239D01*
X37338095Y9592858D01*
X37290476Y9688096D01*
X37290476Y10497620D01*
X36338095Y10497620D02*
X36814285Y10497620D01*
X36861904Y10021429D01*
X36814285Y10069048D01*
X36719047Y10116667D01*
X36480952Y10116667D01*
X36385714Y10069048D01*
X36338095Y10021429D01*
X36290476Y9926191D01*
X36290476Y9688096D01*
X36338095Y9592858D01*
X36385714Y9545239D01*
X36480952Y9497620D01*
X36719047Y9497620D01*
X36814285Y9545239D01*
X36861904Y9592858D01*
%TO.C,R7*%
X7902380Y33566667D02*
X7426190Y33900000D01*
X7902380Y34138096D02*
X6902380Y34138096D01*
X6902380Y33757143D01*
X6950000Y33661905D01*
X6997619Y33614286D01*
X7092857Y33566667D01*
X7235714Y33566667D01*
X7330952Y33614286D01*
X7378571Y33661905D01*
X7426190Y33757143D01*
X7426190Y34138096D01*
X6902380Y33233334D02*
X6902380Y32566667D01*
X7902380Y32995239D01*
%TO.C,C11*%
X-1242858Y36442858D02*
X-1195239Y36490477D01*
X-1147620Y36633334D01*
X-1147620Y36728572D01*
X-1195239Y36871429D01*
X-1290477Y36966667D01*
X-1385715Y37014286D01*
X-1576191Y37061905D01*
X-1719048Y37061905D01*
X-1909524Y37014286D01*
X-2004762Y36966667D01*
X-2100000Y36871429D01*
X-2147620Y36728572D01*
X-2147620Y36633334D01*
X-2100000Y36490477D01*
X-2052381Y36442858D01*
X-1147620Y35490477D02*
X-1147620Y36061905D01*
X-1147620Y35776191D02*
X-2147620Y35776191D01*
X-2004762Y35871429D01*
X-1909524Y35966667D01*
X-1861905Y36061905D01*
X-1147620Y34538096D02*
X-1147620Y35109524D01*
X-1147620Y34823810D02*
X-2147620Y34823810D01*
X-2004762Y34919048D01*
X-1909524Y35014286D01*
X-1861905Y35109524D01*
%TO.C,U4*%
X40561904Y25997620D02*
X40561904Y25188096D01*
X40514285Y25092858D01*
X40466666Y25045239D01*
X40371428Y24997620D01*
X40180952Y24997620D01*
X40085714Y25045239D01*
X40038095Y25092858D01*
X39990476Y25188096D01*
X39990476Y25997620D01*
X39085714Y25664286D02*
X39085714Y24997620D01*
X39323809Y26045239D02*
X39561904Y25330953D01*
X38942857Y25330953D01*
%TO.C,R6*%
X4052380Y62766667D02*
X3576190Y63100000D01*
X4052380Y63338096D02*
X3052380Y63338096D01*
X3052380Y62957143D01*
X3100000Y62861905D01*
X3147619Y62814286D01*
X3242857Y62766667D01*
X3385714Y62766667D01*
X3480952Y62814286D01*
X3528571Y62861905D01*
X3576190Y62957143D01*
X3576190Y63338096D01*
X3052380Y61909524D02*
X3052380Y62100000D01*
X3100000Y62195239D01*
X3147619Y62242858D01*
X3290476Y62338096D01*
X3480952Y62385715D01*
X3861904Y62385715D01*
X3957142Y62338096D01*
X4004761Y62290477D01*
X4052380Y62195239D01*
X4052380Y62004762D01*
X4004761Y61909524D01*
X3957142Y61861905D01*
X3861904Y61814286D01*
X3623809Y61814286D01*
X3528571Y61861905D01*
X3480952Y61909524D01*
X3433333Y62004762D01*
X3433333Y62195239D01*
X3480952Y62290477D01*
X3528571Y62338096D01*
X3623809Y62385715D01*
%TO.C,R2*%
X44852380Y46066667D02*
X44376190Y46400000D01*
X44852380Y46638096D02*
X43852380Y46638096D01*
X43852380Y46257143D01*
X43900000Y46161905D01*
X43947619Y46114286D01*
X44042857Y46066667D01*
X44185714Y46066667D01*
X44280952Y46114286D01*
X44328571Y46161905D01*
X44376190Y46257143D01*
X44376190Y46638096D01*
X43947619Y45685715D02*
X43900000Y45638096D01*
X43852380Y45542858D01*
X43852380Y45304762D01*
X43900000Y45209524D01*
X43947619Y45161905D01*
X44042857Y45114286D01*
X44138095Y45114286D01*
X44280952Y45161905D01*
X44852380Y45733334D01*
X44852380Y45114286D01*
%TO.C,JP1*%
X35733333Y4247620D02*
X35733333Y3533334D01*
X35780952Y3390477D01*
X35876190Y3295239D01*
X36019047Y3247620D01*
X36114285Y3247620D01*
X35257142Y3247620D02*
X35257142Y4247620D01*
X34876190Y4247620D01*
X34780952Y4200000D01*
X34733333Y4152381D01*
X34685714Y4057143D01*
X34685714Y3914286D01*
X34733333Y3819048D01*
X34780952Y3771429D01*
X34876190Y3723810D01*
X35257142Y3723810D01*
X33733333Y3247620D02*
X34304761Y3247620D01*
X34019047Y3247620D02*
X34019047Y4247620D01*
X34114285Y4104762D01*
X34209523Y4009524D01*
X34304761Y3961905D01*
%TO.C,C2*%
X8057142Y44966667D02*
X8104761Y45014286D01*
X8152380Y45157143D01*
X8152380Y45252381D01*
X8104761Y45395239D01*
X8009523Y45490477D01*
X7914285Y45538096D01*
X7723809Y45585715D01*
X7580952Y45585715D01*
X7390476Y45538096D01*
X7295238Y45490477D01*
X7200000Y45395239D01*
X7152380Y45252381D01*
X7152380Y45157143D01*
X7200000Y45014286D01*
X7247619Y44966667D01*
X7247619Y44585715D02*
X7200000Y44538096D01*
X7152380Y44442858D01*
X7152380Y44204762D01*
X7200000Y44109524D01*
X7247619Y44061905D01*
X7342857Y44014286D01*
X7438095Y44014286D01*
X7580952Y44061905D01*
X8152380Y44633334D01*
X8152380Y44014286D01*
%TO.C,R12*%
X29652380Y43642858D02*
X29176190Y43976191D01*
X29652380Y44214286D02*
X28652380Y44214286D01*
X28652380Y43833334D01*
X28700000Y43738096D01*
X28747619Y43690477D01*
X28842857Y43642858D01*
X28985714Y43642858D01*
X29080952Y43690477D01*
X29128571Y43738096D01*
X29176190Y43833334D01*
X29176190Y44214286D01*
X29652380Y42690477D02*
X29652380Y43261905D01*
X29652380Y42976191D02*
X28652380Y42976191D01*
X28795238Y43071429D01*
X28890476Y43166667D01*
X28938095Y43261905D01*
X28747619Y42309524D02*
X28700000Y42261905D01*
X28652380Y42166667D01*
X28652380Y41928572D01*
X28700000Y41833334D01*
X28747619Y41785715D01*
X28842857Y41738096D01*
X28938095Y41738096D01*
X29080952Y41785715D01*
X29652380Y42357143D01*
X29652380Y41738096D01*
%TO.C,R5*%
X36877380Y41166667D02*
X36401190Y41500000D01*
X36877380Y41738096D02*
X35877380Y41738096D01*
X35877380Y41357143D01*
X35925000Y41261905D01*
X35972619Y41214286D01*
X36067857Y41166667D01*
X36210714Y41166667D01*
X36305952Y41214286D01*
X36353571Y41261905D01*
X36401190Y41357143D01*
X36401190Y41738096D01*
X35877380Y40261905D02*
X35877380Y40738096D01*
X36353571Y40785715D01*
X36305952Y40738096D01*
X36258333Y40642858D01*
X36258333Y40404762D01*
X36305952Y40309524D01*
X36353571Y40261905D01*
X36448809Y40214286D01*
X36686904Y40214286D01*
X36782142Y40261905D01*
X36829761Y40309524D01*
X36877380Y40404762D01*
X36877380Y40642858D01*
X36829761Y40738096D01*
X36782142Y40785715D01*
%TO.C,R8*%
X7902380Y36929167D02*
X7426190Y37262500D01*
X7902380Y37500596D02*
X6902380Y37500596D01*
X6902380Y37119643D01*
X6950000Y37024405D01*
X6997619Y36976786D01*
X7092857Y36929167D01*
X7235714Y36929167D01*
X7330952Y36976786D01*
X7378571Y37024405D01*
X7426190Y37119643D01*
X7426190Y37500596D01*
X7330952Y36357739D02*
X7283333Y36452977D01*
X7235714Y36500596D01*
X7140476Y36548215D01*
X7092857Y36548215D01*
X6997619Y36500596D01*
X6950000Y36452977D01*
X6902380Y36357739D01*
X6902380Y36167262D01*
X6950000Y36072024D01*
X6997619Y36024405D01*
X7092857Y35976786D01*
X7140476Y35976786D01*
X7235714Y36024405D01*
X7283333Y36072024D01*
X7330952Y36167262D01*
X7330952Y36357739D01*
X7378571Y36452977D01*
X7426190Y36500596D01*
X7521428Y36548215D01*
X7711904Y36548215D01*
X7807142Y36500596D01*
X7854761Y36452977D01*
X7902380Y36357739D01*
X7902380Y36167262D01*
X7854761Y36072024D01*
X7807142Y36024405D01*
X7711904Y35976786D01*
X7521428Y35976786D01*
X7426190Y36024405D01*
X7378571Y36072024D01*
X7330952Y36167262D01*
%TO.C,C1*%
X49316666Y50422858D02*
X49364285Y50375239D01*
X49507142Y50327620D01*
X49602380Y50327620D01*
X49745238Y50375239D01*
X49840476Y50470477D01*
X49888095Y50565715D01*
X49935714Y50756191D01*
X49935714Y50899048D01*
X49888095Y51089524D01*
X49840476Y51184762D01*
X49745238Y51280000D01*
X49602380Y51327620D01*
X49507142Y51327620D01*
X49364285Y51280000D01*
X49316666Y51232381D01*
X48364285Y50327620D02*
X48935714Y50327620D01*
X48650000Y50327620D02*
X48650000Y51327620D01*
X48745238Y51184762D01*
X48840476Y51089524D01*
X48935714Y51041905D01*
%TO.C,R11*%
X25652380Y43542858D02*
X25176190Y43876191D01*
X25652380Y44114286D02*
X24652380Y44114286D01*
X24652380Y43733334D01*
X24700000Y43638096D01*
X24747619Y43590477D01*
X24842857Y43542858D01*
X24985714Y43542858D01*
X25080952Y43590477D01*
X25128571Y43638096D01*
X25176190Y43733334D01*
X25176190Y44114286D01*
X25652380Y42590477D02*
X25652380Y43161905D01*
X25652380Y42876191D02*
X24652380Y42876191D01*
X24795238Y42971429D01*
X24890476Y43066667D01*
X24938095Y43161905D01*
X25652380Y41638096D02*
X25652380Y42209524D01*
X25652380Y41923810D02*
X24652380Y41923810D01*
X24795238Y42019048D01*
X24890476Y42114286D01*
X24938095Y42209524D01*
%TO.C,R14*%
X22452380Y43442858D02*
X21976190Y43776191D01*
X22452380Y44014286D02*
X21452380Y44014286D01*
X21452380Y43633334D01*
X21500000Y43538096D01*
X21547619Y43490477D01*
X21642857Y43442858D01*
X21785714Y43442858D01*
X21880952Y43490477D01*
X21928571Y43538096D01*
X21976190Y43633334D01*
X21976190Y44014286D01*
X22452380Y42490477D02*
X22452380Y43061905D01*
X22452380Y42776191D02*
X21452380Y42776191D01*
X21595238Y42871429D01*
X21690476Y42966667D01*
X21738095Y43061905D01*
X21785714Y41633334D02*
X22452380Y41633334D01*
X21404761Y41871429D02*
X22119047Y42109524D01*
X22119047Y41490477D01*
%TO.C,C9*%
X29357142Y56529167D02*
X29404761Y56576786D01*
X29452380Y56719643D01*
X29452380Y56814881D01*
X29404761Y56957739D01*
X29309523Y57052977D01*
X29214285Y57100596D01*
X29023809Y57148215D01*
X28880952Y57148215D01*
X28690476Y57100596D01*
X28595238Y57052977D01*
X28500000Y56957739D01*
X28452380Y56814881D01*
X28452380Y56719643D01*
X28500000Y56576786D01*
X28547619Y56529167D01*
X29452380Y56052977D02*
X29452380Y55862500D01*
X29404761Y55767262D01*
X29357142Y55719643D01*
X29214285Y55624405D01*
X29023809Y55576786D01*
X28642857Y55576786D01*
X28547619Y55624405D01*
X28500000Y55672024D01*
X28452380Y55767262D01*
X28452380Y55957739D01*
X28500000Y56052977D01*
X28547619Y56100596D01*
X28642857Y56148215D01*
X28880952Y56148215D01*
X28976190Y56100596D01*
X29023809Y56052977D01*
X29071428Y55957739D01*
X29071428Y55767262D01*
X29023809Y55672024D01*
X28976190Y55624405D01*
X28880952Y55576786D01*
%TO.C,U1*%
X50299404Y49797620D02*
X50299404Y48988096D01*
X50251785Y48892858D01*
X50204166Y48845239D01*
X50108928Y48797620D01*
X49918452Y48797620D01*
X49823214Y48845239D01*
X49775595Y48892858D01*
X49727976Y48988096D01*
X49727976Y49797620D01*
X48727976Y48797620D02*
X49299404Y48797620D01*
X49013690Y48797620D02*
X49013690Y49797620D01*
X49108928Y49654762D01*
X49204166Y49559524D01*
X49299404Y49511905D01*
%TO.C,R9*%
X952380Y35741667D02*
X476190Y36075000D01*
X952380Y36313096D02*
X-47620Y36313096D01*
X-47620Y35932143D01*
X0Y35836905D01*
X47619Y35789286D01*
X142857Y35741667D01*
X285714Y35741667D01*
X380952Y35789286D01*
X428571Y35836905D01*
X476190Y35932143D01*
X476190Y36313096D01*
X952380Y35265477D02*
X952380Y35075000D01*
X904761Y34979762D01*
X857142Y34932143D01*
X714285Y34836905D01*
X523809Y34789286D01*
X142857Y34789286D01*
X47619Y34836905D01*
X0Y34884524D01*
X-47620Y34979762D01*
X-47620Y35170239D01*
X0Y35265477D01*
X47619Y35313096D01*
X142857Y35360715D01*
X380952Y35360715D01*
X476190Y35313096D01*
X523809Y35265477D01*
X571428Y35170239D01*
X571428Y34979762D01*
X523809Y34884524D01*
X476190Y34836905D01*
X380952Y34789286D01*
%TO.C,C10*%
X2007142Y32880358D02*
X2054761Y32927977D01*
X2102380Y33070834D01*
X2102380Y33166072D01*
X2054761Y33308929D01*
X1959523Y33404167D01*
X1864285Y33451786D01*
X1673809Y33499405D01*
X1530952Y33499405D01*
X1340476Y33451786D01*
X1245238Y33404167D01*
X1150000Y33308929D01*
X1102380Y33166072D01*
X1102380Y33070834D01*
X1150000Y32927977D01*
X1197619Y32880358D01*
X2102380Y31927977D02*
X2102380Y32499405D01*
X2102380Y32213691D02*
X1102380Y32213691D01*
X1245238Y32308929D01*
X1340476Y32404167D01*
X1388095Y32499405D01*
X1102380Y31308929D02*
X1102380Y31213691D01*
X1150000Y31118453D01*
X1197619Y31070834D01*
X1292857Y31023215D01*
X1483333Y30975596D01*
X1721428Y30975596D01*
X1911904Y31023215D01*
X2007142Y31070834D01*
X2054761Y31118453D01*
X2102380Y31213691D01*
X2102380Y31308929D01*
X2054761Y31404167D01*
X2007142Y31451786D01*
X1911904Y31499405D01*
X1721428Y31547024D01*
X1483333Y31547024D01*
X1292857Y31499405D01*
X1197619Y31451786D01*
X1150000Y31404167D01*
X1102380Y31308929D01*
%TO.C,C5*%
X17657142Y30366667D02*
X17704761Y30414286D01*
X17752380Y30557143D01*
X17752380Y30652381D01*
X17704761Y30795239D01*
X17609523Y30890477D01*
X17514285Y30938096D01*
X17323809Y30985715D01*
X17180952Y30985715D01*
X16990476Y30938096D01*
X16895238Y30890477D01*
X16800000Y30795239D01*
X16752380Y30652381D01*
X16752380Y30557143D01*
X16800000Y30414286D01*
X16847619Y30366667D01*
X16752380Y29461905D02*
X16752380Y29938096D01*
X17228571Y29985715D01*
X17180952Y29938096D01*
X17133333Y29842858D01*
X17133333Y29604762D01*
X17180952Y29509524D01*
X17228571Y29461905D01*
X17323809Y29414286D01*
X17561904Y29414286D01*
X17657142Y29461905D01*
X17704761Y29509524D01*
X17752380Y29604762D01*
X17752380Y29842858D01*
X17704761Y29938096D01*
X17657142Y29985715D01*
D10*
%TO.C,L1*%
X7500000Y25600000D02*
X7500000Y26050000D01*
X13700000Y25600000D02*
X13700000Y26050000D01*
X13700000Y31800000D02*
X7500000Y31800000D01*
X13700000Y31800000D02*
X13700000Y31350000D01*
X7500000Y25600000D02*
X13700000Y25600000D01*
X7500000Y31800000D02*
X7500000Y31350000D01*
%TO.C,R10*%
X15590000Y48021078D02*
X15590000Y47503922D01*
X17010000Y48021078D02*
X17010000Y47503922D01*
%TO.C,R3*%
X43210000Y41958578D02*
X43210000Y41441422D01*
X41790000Y41958578D02*
X41790000Y41441422D01*
%TO.C,U3*%
X10440341Y33743647D02*
X10440341Y36173647D01*
X13510341Y35503647D02*
X13510341Y33743647D01*
%TO.C,R1*%
X10690000Y48258578D02*
X10690000Y47741422D01*
X12110000Y48258578D02*
X12110000Y47741422D01*
%TO.C,J1*%
X20255000Y20190000D02*
X20255000Y19650000D01*
X20255000Y19650000D02*
X19230000Y19650000D01*
X19230000Y18540000D02*
X31370000Y18540000D01*
X31370000Y19650000D02*
X30345000Y19650000D01*
X27365000Y24160000D02*
X27365000Y25960000D01*
X23235000Y24160000D02*
X22410000Y24160000D01*
X28190000Y24160000D02*
X27365000Y24160000D01*
X30345000Y19650000D02*
X30345000Y20190000D01*
X19230000Y19650000D02*
X19230000Y18540000D01*
X31370000Y18540000D02*
X31370000Y19650000D01*
%TO.C,R4*%
X37490000Y45358578D02*
X37490000Y44841422D01*
X38910000Y45358578D02*
X38910000Y44841422D01*
%TO.C,D2*%
X25050000Y56700000D02*
X25050000Y54700000D01*
X25050000Y54700000D02*
X20750000Y54700000D01*
X20750000Y56700000D02*
X25050000Y56700000D01*
%TO.C,C8*%
X31790000Y56103922D02*
X31790000Y56621078D01*
X33210000Y56103922D02*
X33210000Y56621078D01*
%TO.C,R13*%
X18190000Y47503922D02*
X18190000Y48021078D01*
X19610000Y47503922D02*
X19610000Y48021078D01*
%TO.C,D1*%
X1350000Y33800000D02*
X4650000Y33800000D01*
X1350000Y33800000D02*
X1350000Y28400000D01*
X4650000Y33800000D02*
X4650000Y28400000D01*
%TO.C,U2*%
X28700000Y3240000D02*
X27900000Y3240000D01*
X28700000Y6360000D02*
X27900000Y6360000D01*
X28700000Y3240000D02*
X29500000Y3240000D01*
X28700000Y6360000D02*
X30500000Y6360000D01*
D13*
%TO.C,U5*%
X38725000Y9025000D02*
X35475000Y9025000D01*
X38725000Y5775000D02*
X35475000Y5775000D01*
X38725000Y8900000D02*
X39800000Y8900000D01*
X35475000Y5775000D02*
X35475000Y6000000D01*
X38725000Y5775000D02*
X38725000Y6000000D01*
X35475000Y9025000D02*
X35475000Y8800000D01*
X38725000Y9025000D02*
X38725000Y8900000D01*
D10*
%TO.C,R7*%
X5090000Y33141422D02*
X5090000Y33658578D01*
X6510000Y33141422D02*
X6510000Y33658578D01*
%TO.C,C11*%
X710000Y36058578D02*
X710000Y35541422D01*
X-710000Y36058578D02*
X-710000Y35541422D01*
%TO.C,U4*%
X39800000Y31635000D02*
X42000000Y31635000D01*
X39800000Y26165000D02*
X36200000Y26165000D01*
X39800000Y31635000D02*
X37600000Y31635000D01*
X39800000Y26165000D02*
X42000000Y26165000D01*
%TO.C,R6*%
X5960000Y62071078D02*
X5960000Y61553922D01*
X4540000Y62071078D02*
X4540000Y61553922D01*
%TO.C,R2*%
X43210000Y45396078D02*
X43210000Y44878922D01*
X41790000Y45396078D02*
X41790000Y44878922D01*
%TO.C,JP1*%
X36100000Y700000D02*
X35800000Y400000D01*
X36950000Y1600000D02*
X36950000Y2200000D01*
X32850000Y2200000D02*
X32850000Y1600000D01*
X36300000Y2900000D02*
X33500000Y2900000D01*
X36100000Y700000D02*
X36400000Y400000D01*
X33500000Y900000D02*
X36300000Y900000D01*
X36400000Y400000D02*
X35800000Y400000D01*
X36250000Y900000D02*
G75*
G03*
X36950000Y1600000I1J699999D01*
G01*
X36950000Y2200000D02*
G75*
G03*
X36250000Y2900000I-699999J1D01*
G01*
X32850000Y1600000D02*
G75*
G03*
X33550000Y900000I700000J0D01*
G01*
X33550000Y2900000D02*
G75*
G03*
X32850000Y2200000I0J-700000D01*
G01*
%TO.C,C2*%
X8410000Y48321078D02*
X8410000Y47803922D01*
X6990000Y48321078D02*
X6990000Y47803922D01*
%TO.C,R12*%
X28490000Y47921078D02*
X28490000Y47403922D01*
X29910000Y47921078D02*
X29910000Y47403922D01*
%TO.C,R5*%
X37490000Y41921078D02*
X37490000Y41403922D01*
X38910000Y41921078D02*
X38910000Y41403922D01*
%TO.C,R8*%
X6510000Y36503922D02*
X6510000Y37021078D01*
X5090000Y36503922D02*
X5090000Y37021078D01*
%TO.C,C1*%
X49411252Y48365000D02*
X48888748Y48365000D01*
X49411252Y49835000D02*
X48888748Y49835000D01*
%TO.C,R11*%
X25910000Y48058578D02*
X25910000Y47541422D01*
X24490000Y48058578D02*
X24490000Y47541422D01*
%TO.C,R14*%
X21290000Y47503922D02*
X21290000Y48021078D01*
X22710000Y47503922D02*
X22710000Y48021078D01*
%TO.C,C9*%
X29790000Y56103922D02*
X29790000Y56621078D01*
X31210000Y56103922D02*
X31210000Y56621078D01*
%TO.C,U1*%
X49537500Y45290000D02*
X48737500Y45290000D01*
X49537500Y45290000D02*
X50337500Y45290000D01*
X49537500Y48410000D02*
X51337500Y48410000D01*
X49537500Y48410000D02*
X48737500Y48410000D01*
%TO.C,R9*%
X3110000Y35478922D02*
X3110000Y35996078D01*
X1690000Y35478922D02*
X1690000Y35996078D01*
%TO.C,C10*%
X710000Y31978922D02*
X710000Y32496078D01*
X-710000Y31978922D02*
X-710000Y32496078D01*
%TO.C,C5*%
X14790000Y30496078D02*
X14790000Y29978922D01*
X16210000Y30496078D02*
X16210000Y29978922D01*
%TD*%
M02*
