%TF.GenerationSoftware,KiCad,Pcbnew,6.0.4-6f826c9f35~116~ubuntu20.04.1*%
%TF.CreationDate,2022-05-16T10:16:55+00:00*%
%TF.ProjectId,OLED01A,4f4c4544-3031-4412-9e6b-696361645f70,rev?*%
%TF.SameCoordinates,PX72ba1e0PY737d6e0*%
%TF.FileFunction,Paste,Bot*%
%TF.FilePolarity,Positive*%
%FSLAX46Y46*%
G04 Gerber Fmt 4.6, Leading zero omitted, Abs format (unit mm)*
G04 Created by KiCad (PCBNEW 6.0.4-6f826c9f35~116~ubuntu20.04.1) date 2022-05-16 10:16:55*
%MOMM*%
%LPD*%
G01*
G04 APERTURE LIST*
G04 Aperture macros list*
%AMRoundRect*
0 Rectangle with rounded corners*
0 $1 Rounding radius*
0 $2 $3 $4 $5 $6 $7 $8 $9 X,Y pos of 4 corners*
0 Add a 4 corners polygon primitive as box body*
4,1,4,$2,$3,$4,$5,$6,$7,$8,$9,$2,$3,0*
0 Add four circle primitives for the rounded corners*
1,1,$1+$1,$2,$3*
1,1,$1+$1,$4,$5*
1,1,$1+$1,$6,$7*
1,1,$1+$1,$8,$9*
0 Add four rect primitives between the rounded corners*
20,1,$1+$1,$2,$3,$4,$5,0*
20,1,$1+$1,$4,$5,$6,$7,0*
20,1,$1+$1,$6,$7,$8,$9,0*
20,1,$1+$1,$8,$9,$2,$3,0*%
G04 Aperture macros list end*
%ADD10R,2.350000X5.100000*%
%ADD11RoundRect,0.243750X-0.456250X0.243750X-0.456250X-0.243750X0.456250X-0.243750X0.456250X0.243750X0*%
%ADD12R,0.650000X1.220000*%
%ADD13R,1.300000X1.700000*%
%ADD14RoundRect,0.243750X0.456250X-0.243750X0.456250X0.243750X-0.456250X0.243750X-0.456250X-0.243750X0*%
%ADD15R,2.500000X1.800000*%
%ADD16RoundRect,0.243750X-0.243750X-0.456250X0.243750X-0.456250X0.243750X0.456250X-0.243750X0.456250X0*%
G04 APERTURE END LIST*
D10*
%TO.C,L1*%
X22825000Y33300000D03*
X26975000Y33300000D03*
%TD*%
D11*
%TO.C,R10*%
X16300000Y48700000D03*
X16300000Y46825000D03*
%TD*%
%TO.C,R2*%
X42500000Y42637500D03*
X42500000Y40762500D03*
%TD*%
D12*
%TO.C,U1*%
X24499659Y26066353D03*
X23549659Y26066353D03*
X22599659Y26066353D03*
X22599659Y28686353D03*
X23549659Y28686353D03*
X24499659Y28686353D03*
%TD*%
D11*
%TO.C,R7*%
X11400000Y48937500D03*
X11400000Y47062500D03*
%TD*%
%TO.C,R3*%
X38200000Y46037500D03*
X38200000Y44162500D03*
%TD*%
D13*
%TO.C,D2*%
X24250000Y55700000D03*
X20750000Y55700000D03*
%TD*%
D14*
%TO.C,C3*%
X30300000Y55425000D03*
X30300000Y57300000D03*
%TD*%
%TO.C,R13*%
X18900000Y46825000D03*
X18900000Y48700000D03*
%TD*%
D15*
%TO.C,D1*%
X34700000Y33300000D03*
X30700000Y33300000D03*
%TD*%
D11*
%TO.C,R5*%
X29700000Y29537500D03*
X29700000Y27662500D03*
%TD*%
%TO.C,C5*%
X39000000Y31000000D03*
X39000000Y29125000D03*
%TD*%
%TO.C,R9*%
X5250000Y62750000D03*
X5250000Y60875000D03*
%TD*%
%TO.C,R1*%
X42500000Y46075000D03*
X42500000Y44200000D03*
%TD*%
%TO.C,C4*%
X7700000Y49000000D03*
X7700000Y47125000D03*
%TD*%
%TO.C,R11*%
X29200000Y48600000D03*
X29200000Y46725000D03*
%TD*%
%TO.C,R4*%
X38200000Y42600000D03*
X38200000Y40725000D03*
%TD*%
%TO.C,R6*%
X29700000Y26175000D03*
X29700000Y24300000D03*
%TD*%
%TO.C,R12*%
X25200000Y48737500D03*
X25200000Y46862500D03*
%TD*%
D14*
%TO.C,R14*%
X22000000Y46825000D03*
X22000000Y48700000D03*
%TD*%
%TO.C,C6*%
X28300000Y55425000D03*
X28300000Y57300000D03*
%TD*%
D16*
%TO.C,R8*%
X37025000Y33300000D03*
X38900000Y33300000D03*
%TD*%
D11*
%TO.C,C2*%
X35200000Y30037500D03*
X35200000Y28162500D03*
%TD*%
D14*
%TO.C,C1*%
X19700000Y30525000D03*
X19700000Y32400000D03*
%TD*%
M02*
