%TF.GenerationSoftware,KiCad,Pcbnew,6.0.4-6f826c9f35~116~ubuntu20.04.1*%
%TF.CreationDate,2022-05-16T10:16:55+00:00*%
%TF.ProjectId,OLED01A,4f4c4544-3031-4412-9e6b-696361645f70,rev?*%
%TF.SameCoordinates,PX72ba1e0PY737d6e0*%
%TF.FileFunction,Soldermask,Top*%
%TF.FilePolarity,Negative*%
%FSLAX46Y46*%
G04 Gerber Fmt 4.6, Leading zero omitted, Abs format (unit mm)*
G04 Created by KiCad (PCBNEW 6.0.4-6f826c9f35~116~ubuntu20.04.1) date 2022-05-16 10:16:55*
%MOMM*%
%LPD*%
G01*
G04 APERTURE LIST*
%ADD10C,6.000000*%
%ADD11R,1.524000X1.524000*%
G04 APERTURE END LIST*
D10*
%TO.C,H2*%
X50800000Y0D03*
%TD*%
%TO.C,H4*%
X0Y0D03*
%TD*%
D11*
%TO.C,J4*%
X31920000Y59630000D03*
X31920000Y62170000D03*
X34460000Y59630000D03*
X34460000Y62170000D03*
X37000000Y59630000D03*
X37000000Y62170000D03*
X39540000Y59630000D03*
X39540000Y62170000D03*
X42080000Y59630000D03*
X42080000Y62170000D03*
%TD*%
%TO.C,J3*%
X37060000Y55000000D03*
X39600000Y55000000D03*
X42140000Y55000000D03*
%TD*%
%TO.C,J2*%
X15310000Y62170000D03*
X15310000Y59630000D03*
X12770000Y62170000D03*
X12770000Y59630000D03*
X10230000Y62170000D03*
X10230000Y59630000D03*
X7690000Y62170000D03*
X7690000Y59630000D03*
%TD*%
D10*
%TO.C,H3*%
X0Y60960000D03*
%TD*%
%TO.C,H1*%
X50800000Y60960000D03*
%TD*%
D11*
%TO.C,DISP1*%
X1170000Y8500000D03*
X3710000Y8500000D03*
X6250000Y8500000D03*
X44350000Y8500000D03*
X46890000Y8500000D03*
X49430000Y8500000D03*
X49420000Y51300000D03*
X46880000Y51300000D03*
X44340000Y51300000D03*
X41800000Y51300000D03*
X39260000Y51300000D03*
X36720000Y51300000D03*
X34180000Y51300000D03*
X31640000Y51300000D03*
X29100000Y51300000D03*
X26560000Y51300000D03*
X24020000Y51300000D03*
X21480000Y51300000D03*
X18940000Y51300000D03*
X16400000Y51300000D03*
X13860000Y51300000D03*
X11320000Y51300000D03*
X8780000Y51300000D03*
X6240000Y51300000D03*
X3700000Y51300000D03*
X1160000Y51300000D03*
%TD*%
%TO.C,J1*%
X26140000Y62170000D03*
X26140000Y59630000D03*
X23600000Y62170000D03*
X23600000Y59630000D03*
X21060000Y62170000D03*
X21060000Y59630000D03*
%TD*%
M02*
