M48
; DRILL file {KiCad 6.0.10+dfsg-1~bpo11+1} date Mon Feb 13 23:27:50 2023
; FORMAT={-:-/ absolute / metric / decimal}
; #@! TF.CreationDate,2023-02-13T23:27:50+00:00
; #@! TF.GenerationSoftware,Kicad,Pcbnew,6.0.10+dfsg-1~bpo11+1
; #@! TF.FileFunction,Plated,1,2,PTH
FMAT,2
METRIC
; #@! TA.AperFunction,Plated,PTH,ViaDrill
T1C0.400
; #@! TA.AperFunction,Plated,PTH,ComponentDrill
T2C0.889
; #@! TA.AperFunction,Plated,PTH,ComponentDrill
T3C3.000
%
G90
G05
T1
X-3.2Y29.8
X-1.3Y38.1
X-0.9Y34.0
X-0.8Y29.8
X0.9Y34.0
X1.3Y38.1
X5.0Y48.8
X5.9Y48.7
X6.0Y30.8
X8.0Y36.1
X8.4Y24.0
X8.8Y55.7
X8.8Y54.7
X9.0Y36.1
X9.5Y24.0
X10.5Y24.0
X10.6Y31.6
X14.2Y55.4
X14.4Y24.0
X15.1Y54.6
X15.5Y24.0
X20.1Y45.4
X20.3Y53.7
X21.5Y44.7
X22.2Y35.0
X22.2Y31.6
X22.3Y54.9
X23.4Y35.0
X23.4Y31.6
X24.6Y35.0
X24.6Y31.6
X35.4Y49.3
X40.5Y45.0
T2
X1.16Y51.3
X1.17Y8.5
X3.7Y51.3
X3.71Y8.5
X6.24Y51.3
X6.25Y8.5
X7.66Y62.17
X7.66Y59.63
X8.78Y51.3
X10.2Y62.17
X10.2Y59.63
X11.32Y51.3
X12.74Y62.17
X12.74Y59.63
X13.86Y51.3
X16.28Y62.17
X16.28Y59.63
X16.4Y51.3
X18.82Y62.17
X18.82Y59.63
X18.94Y51.3
X21.36Y62.17
X21.36Y59.63
X21.48Y51.3
X24.02Y51.3
X24.9Y62.17
X24.9Y59.63
X26.56Y51.3
X27.44Y62.17
X27.44Y59.63
X29.1Y51.3
X29.98Y62.17
X29.98Y59.63
X31.64Y51.3
X33.52Y62.17
X33.52Y59.63
X34.18Y51.3
X36.06Y62.17
X36.06Y59.63
X36.72Y51.3
X37.06Y55.0
X38.6Y62.17
X38.6Y59.63
X39.26Y51.3
X39.6Y55.0
X41.14Y62.17
X41.14Y59.63
X41.8Y51.3
X42.14Y55.0
X43.68Y62.17
X43.68Y59.63
X44.34Y51.3
X44.35Y8.5
X46.88Y51.3
X46.89Y8.5
X49.42Y51.3
X49.43Y8.5
T3
X0.0Y60.96
X0.0Y0.0
X50.8Y60.96
X50.8Y0.0
T0
M30
