%TF.GenerationSoftware,KiCad,Pcbnew,6.0.4-6f826c9f35~116~ubuntu20.04.1*%
%TF.CreationDate,2022-05-16T08:47:42+00:00*%
%TF.ProjectId,OLED01A,4f4c4544-3031-4412-9e6b-696361645f70,rev?*%
%TF.SameCoordinates,PX72ba1e0PY737d6e0*%
%TF.FileFunction,Legend,Top*%
%TF.FilePolarity,Positive*%
%FSLAX46Y46*%
G04 Gerber Fmt 4.6, Leading zero omitted, Abs format (unit mm)*
G04 Created by KiCad (PCBNEW 6.0.4-6f826c9f35~116~ubuntu20.04.1) date 2022-05-16 08:47:42*
%MOMM*%
%LPD*%
G01*
G04 APERTURE LIST*
%ADD10C,0.100000*%
%ADD11C,0.120000*%
%ADD12C,0.300000*%
%ADD13C,0.050000*%
%ADD14C,0.150000*%
%ADD15R,1.524000X1.524000*%
G04 APERTURE END LIST*
D10*
X44600000Y57300000D02*
X51900000Y57300000D01*
X51900000Y57300000D02*
X51900000Y52900000D01*
X51900000Y52900000D02*
X44600000Y52900000D01*
X44600000Y52900000D02*
X44600000Y57300000D01*
D11*
X44600000Y55900000D02*
X43485000Y55000000D01*
D10*
X5242857Y57371429D02*
X5814285Y57371429D01*
X5471428Y57714286D02*
X5242857Y56685715D01*
X5738095Y57028572D02*
X5166666Y57028572D01*
X5509523Y56685715D02*
X5738095Y57714286D01*
X6538095Y56838096D02*
X6271428Y57219048D01*
X6080952Y56838096D02*
X6080952Y57638096D01*
X6385714Y57638096D01*
X6461904Y57600000D01*
X6500000Y57561905D01*
X6538095Y57485715D01*
X6538095Y57371429D01*
X6500000Y57295239D01*
X6461904Y57257143D01*
X6385714Y57219048D01*
X6080952Y57219048D01*
X6880952Y57257143D02*
X7147619Y57257143D01*
X7261904Y56838096D02*
X6880952Y56838096D01*
X6880952Y57638096D01*
X7261904Y57638096D01*
X7566666Y56876191D02*
X7680952Y56838096D01*
X7871428Y56838096D01*
X7947619Y56876191D01*
X7985714Y56914286D01*
X8023809Y56990477D01*
X8023809Y57066667D01*
X7985714Y57142858D01*
X7947619Y57180953D01*
X7871428Y57219048D01*
X7719047Y57257143D01*
X7642857Y57295239D01*
X7604761Y57333334D01*
X7566666Y57409524D01*
X7566666Y57485715D01*
X7604761Y57561905D01*
X7642857Y57600000D01*
X7719047Y57638096D01*
X7909523Y57638096D01*
X8023809Y57600000D01*
X8938095Y57371429D02*
X9509523Y57371429D01*
X9166666Y57714286D02*
X8938095Y56685715D01*
X9433333Y57028572D02*
X8861904Y57028572D01*
X9204761Y56685715D02*
X9433333Y57714286D01*
X10233333Y56914286D02*
X10195238Y56876191D01*
X10080952Y56838096D01*
X10004761Y56838096D01*
X9890476Y56876191D01*
X9814285Y56952381D01*
X9776190Y57028572D01*
X9738095Y57180953D01*
X9738095Y57295239D01*
X9776190Y57447620D01*
X9814285Y57523810D01*
X9890476Y57600000D01*
X10004761Y57638096D01*
X10080952Y57638096D01*
X10195238Y57600000D01*
X10233333Y57561905D01*
X10538095Y56876191D02*
X10652380Y56838096D01*
X10842857Y56838096D01*
X10919047Y56876191D01*
X10957142Y56914286D01*
X10995238Y56990477D01*
X10995238Y57066667D01*
X10957142Y57142858D01*
X10919047Y57180953D01*
X10842857Y57219048D01*
X10690476Y57257143D01*
X10614285Y57295239D01*
X10576190Y57333334D01*
X10538095Y57409524D01*
X10538095Y57485715D01*
X10576190Y57561905D01*
X10614285Y57600000D01*
X10690476Y57638096D01*
X10880952Y57638096D01*
X10995238Y57600000D01*
X12404761Y56914286D02*
X12366666Y56876191D01*
X12252380Y56838096D01*
X12176190Y56838096D01*
X12061904Y56876191D01*
X11985714Y56952381D01*
X11947619Y57028572D01*
X11909523Y57180953D01*
X11909523Y57295239D01*
X11947619Y57447620D01*
X11985714Y57523810D01*
X12061904Y57600000D01*
X12176190Y57638096D01*
X12252380Y57638096D01*
X12366666Y57600000D01*
X12404761Y57561905D01*
X13128571Y56838096D02*
X12747619Y56838096D01*
X12747619Y57638096D01*
X13395238Y56838096D02*
X13395238Y57638096D01*
X13852380Y56838096D02*
X13509523Y57295239D01*
X13852380Y57638096D02*
X13395238Y57180953D01*
X14804761Y56838096D02*
X14804761Y57638096D01*
X15071428Y57066667D01*
X15338095Y57638096D01*
X15338095Y56838096D01*
X15871428Y57638096D02*
X16023809Y57638096D01*
X16100000Y57600000D01*
X16176190Y57523810D01*
X16214285Y57371429D01*
X16214285Y57104762D01*
X16176190Y56952381D01*
X16100000Y56876191D01*
X16023809Y56838096D01*
X15871428Y56838096D01*
X15795238Y56876191D01*
X15719047Y56952381D01*
X15680952Y57104762D01*
X15680952Y57371429D01*
X15719047Y57523810D01*
X15795238Y57600000D01*
X15871428Y57638096D01*
X16519047Y56876191D02*
X16633333Y56838096D01*
X16823809Y56838096D01*
X16900000Y56876191D01*
X16938095Y56914286D01*
X16976190Y56990477D01*
X16976190Y57066667D01*
X16938095Y57142858D01*
X16900000Y57180953D01*
X16823809Y57219048D01*
X16671428Y57257143D01*
X16595238Y57295239D01*
X16557142Y57333334D01*
X16519047Y57409524D01*
X16519047Y57485715D01*
X16557142Y57561905D01*
X16595238Y57600000D01*
X16671428Y57638096D01*
X16861904Y57638096D01*
X16976190Y57600000D01*
X17319047Y56838096D02*
X17319047Y57638096D01*
D12*
X10169047Y63773810D02*
X10354761Y63711905D01*
X10664285Y63711905D01*
X10788095Y63773810D01*
X10850000Y63835715D01*
X10911904Y63959524D01*
X10911904Y64083334D01*
X10850000Y64207143D01*
X10788095Y64269048D01*
X10664285Y64330953D01*
X10416666Y64392858D01*
X10292857Y64454762D01*
X10230952Y64516667D01*
X10169047Y64640477D01*
X10169047Y64764286D01*
X10230952Y64888096D01*
X10292857Y64950000D01*
X10416666Y65011905D01*
X10726190Y65011905D01*
X10911904Y64950000D01*
X11469047Y63711905D02*
X11469047Y65011905D01*
X11964285Y65011905D01*
X12088095Y64950000D01*
X12150000Y64888096D01*
X12211904Y64764286D01*
X12211904Y64578572D01*
X12150000Y64454762D01*
X12088095Y64392858D01*
X11964285Y64330953D01*
X11469047Y64330953D01*
X12769047Y63711905D02*
X12769047Y65011905D01*
D10*
X45266666Y54138096D02*
X45342857Y54138096D01*
X45419047Y54100000D01*
X45457142Y54061905D01*
X45495238Y53985715D01*
X45533333Y53833334D01*
X45533333Y53642858D01*
X45495238Y53490477D01*
X45457142Y53414286D01*
X45419047Y53376191D01*
X45342857Y53338096D01*
X45266666Y53338096D01*
X45190476Y53376191D01*
X45152380Y53414286D01*
X45114285Y53490477D01*
X45076190Y53642858D01*
X45076190Y53833334D01*
X45114285Y53985715D01*
X45152380Y54061905D01*
X45190476Y54100000D01*
X45266666Y54138096D01*
X45800000Y53338096D02*
X46219047Y53871429D01*
X45800000Y53871429D02*
X46219047Y53338096D01*
X46447619Y54138096D02*
X46942857Y54138096D01*
X46676190Y53833334D01*
X46790476Y53833334D01*
X46866666Y53795239D01*
X46904761Y53757143D01*
X46942857Y53680953D01*
X46942857Y53490477D01*
X46904761Y53414286D01*
X46866666Y53376191D01*
X46790476Y53338096D01*
X46561904Y53338096D01*
X46485714Y53376191D01*
X46447619Y53414286D01*
X47285714Y53338096D02*
X47285714Y54138096D01*
X47476190Y54138096D01*
X47590476Y54100000D01*
X47666666Y54023810D01*
X47704761Y53947620D01*
X47742857Y53795239D01*
X47742857Y53680953D01*
X47704761Y53528572D01*
X47666666Y53452381D01*
X47590476Y53376191D01*
X47476190Y53338096D01*
X47285714Y53338096D01*
X48847619Y54138096D02*
X48923809Y54138096D01*
X49000000Y54100000D01*
X49038095Y54061905D01*
X49076190Y53985715D01*
X49114285Y53833334D01*
X49114285Y53642858D01*
X49076190Y53490477D01*
X49038095Y53414286D01*
X49000000Y53376191D01*
X48923809Y53338096D01*
X48847619Y53338096D01*
X48771428Y53376191D01*
X48733333Y53414286D01*
X48695238Y53490477D01*
X48657142Y53642858D01*
X48657142Y53833334D01*
X48695238Y53985715D01*
X48733333Y54061905D01*
X48771428Y54100000D01*
X48847619Y54138096D01*
X49380952Y53338096D02*
X49800000Y53871429D01*
X49380952Y53871429D02*
X49800000Y53338096D01*
X50028571Y54138096D02*
X50523809Y54138096D01*
X50257142Y53833334D01*
X50371428Y53833334D01*
X50447619Y53795239D01*
X50485714Y53757143D01*
X50523809Y53680953D01*
X50523809Y53490477D01*
X50485714Y53414286D01*
X50447619Y53376191D01*
X50371428Y53338096D01*
X50142857Y53338096D01*
X50066666Y53376191D01*
X50028571Y53414286D01*
X51323809Y53414286D02*
X51285714Y53376191D01*
X51171428Y53338096D01*
X51095238Y53338096D01*
X50980952Y53376191D01*
X50904761Y53452381D01*
X50866666Y53528572D01*
X50828571Y53680953D01*
X50828571Y53795239D01*
X50866666Y53947620D01*
X50904761Y54023810D01*
X50980952Y54100000D01*
X51095238Y54138096D01*
X51171428Y54138096D01*
X51285714Y54100000D01*
X51323809Y54061905D01*
D12*
X7904523Y1258405D02*
X7904523Y2558405D01*
X8337857Y1629834D01*
X8771190Y2558405D01*
X8771190Y1258405D01*
X10009285Y1258405D02*
X9390238Y1258405D01*
X9390238Y2558405D01*
X10380714Y1629834D02*
X10999761Y1629834D01*
X10256904Y1258405D02*
X10690238Y2558405D01*
X11123571Y1258405D01*
X11990238Y1939358D02*
X12175952Y1877453D01*
X12237857Y1815548D01*
X12299761Y1691739D01*
X12299761Y1506024D01*
X12237857Y1382215D01*
X12175952Y1320310D01*
X12052142Y1258405D01*
X11556904Y1258405D01*
X11556904Y2558405D01*
X11990238Y2558405D01*
X12114047Y2496500D01*
X12175952Y2434596D01*
X12237857Y2310786D01*
X12237857Y2186977D01*
X12175952Y2063167D01*
X12114047Y2001262D01*
X11990238Y1939358D01*
X11556904Y1939358D01*
X12856904Y1382215D02*
X12918809Y1320310D01*
X12856904Y1258405D01*
X12795000Y1320310D01*
X12856904Y1382215D01*
X12856904Y1258405D01*
X14033095Y1320310D02*
X13909285Y1258405D01*
X13661666Y1258405D01*
X13537857Y1320310D01*
X13475952Y1382215D01*
X13414047Y1506024D01*
X13414047Y1877453D01*
X13475952Y2001262D01*
X13537857Y2063167D01*
X13661666Y2125072D01*
X13909285Y2125072D01*
X14033095Y2063167D01*
X14466428Y2125072D02*
X15147380Y2125072D01*
X14466428Y1258405D01*
X15147380Y1258405D01*
X7842619Y341596D02*
X7904523Y403500D01*
X8028333Y465405D01*
X8337857Y465405D01*
X8461666Y403500D01*
X8523571Y341596D01*
X8585476Y217786D01*
X8585476Y93977D01*
X8523571Y-91738D01*
X7780714Y-834595D01*
X8585476Y-834595D01*
X9390238Y465405D02*
X9514047Y465405D01*
X9637857Y403500D01*
X9699761Y341596D01*
X9761666Y217786D01*
X9823571Y-29833D01*
X9823571Y-339357D01*
X9761666Y-586976D01*
X9699761Y-710785D01*
X9637857Y-772690D01*
X9514047Y-834595D01*
X9390238Y-834595D01*
X9266428Y-772690D01*
X9204523Y-710785D01*
X9142619Y-586976D01*
X9080714Y-339357D01*
X9080714Y-29833D01*
X9142619Y217786D01*
X9204523Y341596D01*
X9266428Y403500D01*
X9390238Y465405D01*
X10318809Y341596D02*
X10380714Y403500D01*
X10504523Y465405D01*
X10814047Y465405D01*
X10937857Y403500D01*
X10999761Y341596D01*
X11061666Y217786D01*
X11061666Y93977D01*
X10999761Y-91738D01*
X10256904Y-834595D01*
X11061666Y-834595D01*
X11556904Y341596D02*
X11618809Y403500D01*
X11742619Y465405D01*
X12052142Y465405D01*
X12175952Y403500D01*
X12237857Y341596D01*
X12299761Y217786D01*
X12299761Y93977D01*
X12237857Y-91738D01*
X11495000Y-834595D01*
X12299761Y-834595D01*
D10*
X30638095Y57700000D02*
X30561904Y57738096D01*
X30447619Y57738096D01*
X30333333Y57700000D01*
X30257142Y57623810D01*
X30219047Y57547620D01*
X30180952Y57395239D01*
X30180952Y57280953D01*
X30219047Y57128572D01*
X30257142Y57052381D01*
X30333333Y56976191D01*
X30447619Y56938096D01*
X30523809Y56938096D01*
X30638095Y56976191D01*
X30676190Y57014286D01*
X30676190Y57280953D01*
X30523809Y57280953D01*
X31019047Y56938096D02*
X31019047Y57738096D01*
X31476190Y56938096D01*
X31476190Y57738096D01*
X31857142Y56938096D02*
X31857142Y57738096D01*
X32047619Y57738096D01*
X32161904Y57700000D01*
X32238095Y57623810D01*
X32276190Y57547620D01*
X32314285Y57395239D01*
X32314285Y57280953D01*
X32276190Y57128572D01*
X32238095Y57052381D01*
X32161904Y56976191D01*
X32047619Y56938096D01*
X31857142Y56938096D01*
X33228571Y56976191D02*
X33342857Y56938096D01*
X33533333Y56938096D01*
X33609523Y56976191D01*
X33647619Y57014286D01*
X33685714Y57090477D01*
X33685714Y57166667D01*
X33647619Y57242858D01*
X33609523Y57280953D01*
X33533333Y57319048D01*
X33380952Y57357143D01*
X33304761Y57395239D01*
X33266666Y57433334D01*
X33228571Y57509524D01*
X33228571Y57585715D01*
X33266666Y57661905D01*
X33304761Y57700000D01*
X33380952Y57738096D01*
X33571428Y57738096D01*
X33685714Y57700000D01*
X34028571Y56938096D02*
X34028571Y57738096D01*
X34219047Y57738096D01*
X34333333Y57700000D01*
X34409523Y57623810D01*
X34447619Y57547620D01*
X34485714Y57395239D01*
X34485714Y57280953D01*
X34447619Y57128572D01*
X34409523Y57052381D01*
X34333333Y56976191D01*
X34219047Y56938096D01*
X34028571Y56938096D01*
X34790476Y57166667D02*
X35171428Y57166667D01*
X34714285Y56938096D02*
X34980952Y57738096D01*
X35247619Y56938096D01*
X36047619Y57738096D02*
X36542857Y57738096D01*
X36276190Y57433334D01*
X36390476Y57433334D01*
X36466666Y57395239D01*
X36504761Y57357143D01*
X36542857Y57280953D01*
X36542857Y57090477D01*
X36504761Y57014286D01*
X36466666Y56976191D01*
X36390476Y56938096D01*
X36161904Y56938096D01*
X36085714Y56976191D01*
X36047619Y57014286D01*
X36809523Y57471429D02*
X37000000Y56938096D01*
X37190476Y57471429D01*
X37419047Y57738096D02*
X37914285Y57738096D01*
X37647619Y57433334D01*
X37761904Y57433334D01*
X37838095Y57395239D01*
X37876190Y57357143D01*
X37914285Y57280953D01*
X37914285Y57090477D01*
X37876190Y57014286D01*
X37838095Y56976191D01*
X37761904Y56938096D01*
X37533333Y56938096D01*
X37457142Y56976191D01*
X37419047Y57014286D01*
X39323809Y57014286D02*
X39285714Y56976191D01*
X39171428Y56938096D01*
X39095238Y56938096D01*
X38980952Y56976191D01*
X38904761Y57052381D01*
X38866666Y57128572D01*
X38828571Y57280953D01*
X38828571Y57395239D01*
X38866666Y57547620D01*
X38904761Y57623810D01*
X38980952Y57700000D01*
X39095238Y57738096D01*
X39171428Y57738096D01*
X39285714Y57700000D01*
X39323809Y57661905D01*
X40047619Y56938096D02*
X39666666Y56938096D01*
X39666666Y57738096D01*
X40314285Y56938096D02*
X40314285Y57738096D01*
X40771428Y56938096D02*
X40428571Y57395239D01*
X40771428Y57738096D02*
X40314285Y57280953D01*
X42142857Y57700000D02*
X42066666Y57738096D01*
X41952380Y57738096D01*
X41838095Y57700000D01*
X41761904Y57623810D01*
X41723809Y57547620D01*
X41685714Y57395239D01*
X41685714Y57280953D01*
X41723809Y57128572D01*
X41761904Y57052381D01*
X41838095Y56976191D01*
X41952380Y56938096D01*
X42028571Y56938096D01*
X42142857Y56976191D01*
X42180952Y57014286D01*
X42180952Y57280953D01*
X42028571Y57280953D01*
X42523809Y56938096D02*
X42523809Y57738096D01*
X42980952Y56938096D01*
X42980952Y57738096D01*
X43361904Y56938096D02*
X43361904Y57738096D01*
X43552380Y57738096D01*
X43666666Y57700000D01*
X43742857Y57623810D01*
X43780952Y57547620D01*
X43819047Y57395239D01*
X43819047Y57280953D01*
X43780952Y57128572D01*
X43742857Y57052381D01*
X43666666Y56976191D01*
X43552380Y56938096D01*
X43361904Y56938096D01*
D12*
X8037857Y4721429D02*
X8323571Y4721429D01*
X8466428Y4650000D01*
X8609285Y4507143D01*
X8680714Y4221429D01*
X8680714Y3721429D01*
X8609285Y3435715D01*
X8466428Y3292858D01*
X8323571Y3221429D01*
X8037857Y3221429D01*
X7895000Y3292858D01*
X7752142Y3435715D01*
X7680714Y3721429D01*
X7680714Y4221429D01*
X7752142Y4507143D01*
X7895000Y4650000D01*
X8037857Y4721429D01*
X10037857Y3221429D02*
X9323571Y3221429D01*
X9323571Y4721429D01*
X10537857Y4007143D02*
X11037857Y4007143D01*
X11252142Y3221429D02*
X10537857Y3221429D01*
X10537857Y4721429D01*
X11252142Y4721429D01*
X11895000Y3221429D02*
X11895000Y4721429D01*
X12252142Y4721429D01*
X12466428Y4650000D01*
X12609285Y4507143D01*
X12680714Y4364286D01*
X12752142Y4078572D01*
X12752142Y3864286D01*
X12680714Y3578572D01*
X12609285Y3435715D01*
X12466428Y3292858D01*
X12252142Y3221429D01*
X11895000Y3221429D01*
X13680714Y4721429D02*
X13823571Y4721429D01*
X13966428Y4650000D01*
X14037857Y4578572D01*
X14109285Y4435715D01*
X14180714Y4150000D01*
X14180714Y3792858D01*
X14109285Y3507143D01*
X14037857Y3364286D01*
X13966428Y3292858D01*
X13823571Y3221429D01*
X13680714Y3221429D01*
X13537857Y3292858D01*
X13466428Y3364286D01*
X13395000Y3507143D01*
X13323571Y3792858D01*
X13323571Y4150000D01*
X13395000Y4435715D01*
X13466428Y4578572D01*
X13537857Y4650000D01*
X13680714Y4721429D01*
X15609285Y3221429D02*
X14752142Y3221429D01*
X15180714Y3221429D02*
X15180714Y4721429D01*
X15037857Y4507143D01*
X14895000Y4364286D01*
X14752142Y4292858D01*
X16180714Y3650000D02*
X16895000Y3650000D01*
X16037857Y3221429D02*
X16537857Y4721429D01*
X17037857Y3221429D01*
X35730952Y63711905D02*
X35730952Y65011905D01*
X36288095Y64888096D02*
X36350000Y64950000D01*
X36473809Y65011905D01*
X36783333Y65011905D01*
X36907142Y64950000D01*
X36969047Y64888096D01*
X37030952Y64764286D01*
X37030952Y64640477D01*
X36969047Y64454762D01*
X36226190Y63711905D01*
X37030952Y63711905D01*
X38330952Y63835715D02*
X38269047Y63773810D01*
X38083333Y63711905D01*
X37959523Y63711905D01*
X37773809Y63773810D01*
X37650000Y63897620D01*
X37588095Y64021429D01*
X37526190Y64269048D01*
X37526190Y64454762D01*
X37588095Y64702381D01*
X37650000Y64826191D01*
X37773809Y64950000D01*
X37959523Y65011905D01*
X38083333Y65011905D01*
X38269047Y64950000D01*
X38330952Y64888096D01*
D10*
X20261904Y56747620D02*
X20261904Y57414286D01*
X20261904Y57319048D02*
X20309523Y57366667D01*
X20404761Y57414286D01*
X20547619Y57414286D01*
X20642857Y57366667D01*
X20690476Y57271429D01*
X20690476Y56747620D01*
X20690476Y57271429D02*
X20738095Y57366667D01*
X20833333Y57414286D01*
X20976190Y57414286D01*
X21071428Y57366667D01*
X21119047Y57271429D01*
X21119047Y56747620D01*
X22023809Y56747620D02*
X22023809Y57271429D01*
X21976190Y57366667D01*
X21880952Y57414286D01*
X21690476Y57414286D01*
X21595238Y57366667D01*
X22023809Y56795239D02*
X21928571Y56747620D01*
X21690476Y56747620D01*
X21595238Y56795239D01*
X21547619Y56890477D01*
X21547619Y56985715D01*
X21595238Y57080953D01*
X21690476Y57128572D01*
X21928571Y57128572D01*
X22023809Y57176191D01*
X22404761Y56747620D02*
X22928571Y57414286D01*
X22404761Y57414286D02*
X22928571Y56747620D01*
X23309523Y56842858D02*
X23357142Y56795239D01*
X23309523Y56747620D01*
X23261904Y56795239D01*
X23309523Y56842858D01*
X23309523Y56747620D01*
X24452380Y57747620D02*
X25071428Y57747620D01*
X24738095Y57366667D01*
X24880952Y57366667D01*
X24976190Y57319048D01*
X25023809Y57271429D01*
X25071428Y57176191D01*
X25071428Y56938096D01*
X25023809Y56842858D01*
X24976190Y56795239D01*
X24880952Y56747620D01*
X24595238Y56747620D01*
X24500000Y56795239D01*
X24452380Y56842858D01*
X25404761Y57414286D02*
X25642857Y56747620D01*
X25880952Y57414286D01*
X26166666Y57747620D02*
X26785714Y57747620D01*
X26452380Y57366667D01*
X26595238Y57366667D01*
X26690476Y57319048D01*
X26738095Y57271429D01*
X26785714Y57176191D01*
X26785714Y56938096D01*
X26738095Y56842858D01*
X26690476Y56795239D01*
X26595238Y56747620D01*
X26309523Y56747620D01*
X26214285Y56795239D01*
X26166666Y56842858D01*
X45117380Y56310667D02*
X45498333Y56310667D01*
X45041190Y56082096D02*
X45307857Y56882096D01*
X45574523Y56082096D01*
X46184047Y56082096D02*
X46184047Y56882096D01*
X46184047Y56120191D02*
X46107857Y56082096D01*
X45955476Y56082096D01*
X45879285Y56120191D01*
X45841190Y56158286D01*
X45803095Y56234477D01*
X45803095Y56463048D01*
X45841190Y56539239D01*
X45879285Y56577334D01*
X45955476Y56615429D01*
X46107857Y56615429D01*
X46184047Y56577334D01*
X46907857Y56082096D02*
X46907857Y56882096D01*
X46907857Y56120191D02*
X46831666Y56082096D01*
X46679285Y56082096D01*
X46603095Y56120191D01*
X46565000Y56158286D01*
X46526904Y56234477D01*
X46526904Y56463048D01*
X46565000Y56539239D01*
X46603095Y56577334D01*
X46679285Y56615429D01*
X46831666Y56615429D01*
X46907857Y56577334D01*
X47288809Y56082096D02*
X47288809Y56615429D01*
X47288809Y56463048D02*
X47326904Y56539239D01*
X47365000Y56577334D01*
X47441190Y56615429D01*
X47517380Y56615429D01*
X47784047Y56158286D02*
X47822142Y56120191D01*
X47784047Y56082096D01*
X47745952Y56120191D01*
X47784047Y56158286D01*
X47784047Y56082096D01*
X47784047Y56577334D02*
X47822142Y56539239D01*
X47784047Y56501143D01*
X47745952Y56539239D01*
X47784047Y56577334D01*
X47784047Y56501143D01*
X45384047Y54527429D02*
X45193571Y54527429D01*
X45193571Y55670286D01*
X45384047Y55670286D01*
X45688809Y55098858D02*
X46298333Y55098858D01*
X46603095Y54527429D02*
X46793571Y54527429D01*
X46793571Y55670286D01*
X46603095Y55670286D01*
X47326904Y55136953D02*
X47288809Y55098858D01*
X47326904Y55060762D01*
X47365000Y55098858D01*
X47326904Y55136953D01*
X47326904Y55060762D01*
X49155476Y55136953D02*
X49117380Y55098858D01*
X49155476Y55060762D01*
X49193571Y55098858D01*
X49155476Y55136953D01*
X49155476Y55060762D01*
X49879285Y54527429D02*
X49688809Y54527429D01*
X49688809Y55670286D01*
X49879285Y55670286D01*
X50184047Y55098858D02*
X50793571Y55098858D01*
X51098333Y54527429D02*
X51288809Y54527429D01*
X51288809Y55670286D01*
X51098333Y55670286D01*
D12*
X21866666Y63711905D02*
X21866666Y65011905D01*
X22361904Y65011905D01*
X22485714Y64950000D01*
X22547619Y64888096D01*
X22609523Y64764286D01*
X22609523Y64578572D01*
X22547619Y64454762D01*
X22485714Y64392858D01*
X22361904Y64330953D01*
X21866666Y64330953D01*
X23042857Y65011905D02*
X23352380Y63711905D01*
X23600000Y64640477D01*
X23847619Y63711905D01*
X24157142Y65011905D01*
X25395238Y63711905D02*
X24961904Y64330953D01*
X24652380Y63711905D02*
X24652380Y65011905D01*
X25147619Y65011905D01*
X25271428Y64950000D01*
X25333333Y64888096D01*
X25395238Y64764286D01*
X25395238Y64578572D01*
X25333333Y64454762D01*
X25271428Y64392858D01*
X25147619Y64330953D01*
X24652380Y64330953D01*
D13*
%TO.C,J4*%
X32146190Y58121858D02*
X32146190Y57836143D01*
X32146190Y57979000D02*
X31646190Y57979000D01*
X31717619Y57931381D01*
X31765238Y57883762D01*
X31789047Y57836143D01*
%TO.C,J3*%
X37286190Y53491858D02*
X37286190Y53206143D01*
X37286190Y53349000D02*
X36786190Y53349000D01*
X36857619Y53301381D01*
X36905238Y53253762D01*
X36929047Y53206143D01*
%TO.C,J2*%
X15536190Y63963858D02*
X15536190Y63678143D01*
X15536190Y63821000D02*
X15036190Y63821000D01*
X15107619Y63773381D01*
X15155238Y63725762D01*
X15179047Y63678143D01*
D14*
%TO.C,DISP1*%
X26247619Y21197620D02*
X26247619Y22197620D01*
X26485714Y22197620D01*
X26628571Y22150000D01*
X26723809Y22054762D01*
X26771428Y21959524D01*
X26819047Y21769048D01*
X26819047Y21626191D01*
X26771428Y21435715D01*
X26723809Y21340477D01*
X26628571Y21245239D01*
X26485714Y21197620D01*
X26247619Y21197620D01*
X27247619Y21197620D02*
X27247619Y22197620D01*
X27676190Y21245239D02*
X27819047Y21197620D01*
X28057142Y21197620D01*
X28152380Y21245239D01*
X28200000Y21292858D01*
X28247619Y21388096D01*
X28247619Y21483334D01*
X28200000Y21578572D01*
X28152380Y21626191D01*
X28057142Y21673810D01*
X27866666Y21721429D01*
X27771428Y21769048D01*
X27723809Y21816667D01*
X27676190Y21911905D01*
X27676190Y22007143D01*
X27723809Y22102381D01*
X27771428Y22150000D01*
X27866666Y22197620D01*
X28104761Y22197620D01*
X28247619Y22150000D01*
X28676190Y21197620D02*
X28676190Y22197620D01*
X29057142Y22197620D01*
X29152380Y22150000D01*
X29200000Y22102381D01*
X29247619Y22007143D01*
X29247619Y21864286D01*
X29200000Y21769048D01*
X29152380Y21721429D01*
X29057142Y21673810D01*
X28676190Y21673810D01*
X30200000Y21197620D02*
X29628571Y21197620D01*
X29914285Y21197620D02*
X29914285Y22197620D01*
X29819047Y22054762D01*
X29723809Y21959524D01*
X29628571Y21911905D01*
D13*
X1052857Y49187143D02*
X1386190Y49187143D01*
X862380Y49068096D02*
X1219523Y48949048D01*
X1219523Y49258572D01*
X886190Y49544286D02*
X886190Y49591905D01*
X910000Y49639524D01*
X933809Y49663334D01*
X981428Y49687143D01*
X1076666Y49710953D01*
X1195714Y49710953D01*
X1290952Y49687143D01*
X1338571Y49663334D01*
X1362380Y49639524D01*
X1386190Y49591905D01*
X1386190Y49544286D01*
X1362380Y49496667D01*
X1338571Y49472858D01*
X1290952Y49449048D01*
X1195714Y49425239D01*
X1076666Y49425239D01*
X981428Y49449048D01*
X933809Y49472858D01*
X910000Y49496667D01*
X886190Y49544286D01*
X49273809Y6019048D02*
X49250000Y6042858D01*
X49226190Y6090477D01*
X49226190Y6209524D01*
X49250000Y6257143D01*
X49273809Y6280953D01*
X49321428Y6304762D01*
X49369047Y6304762D01*
X49440476Y6280953D01*
X49726190Y5995239D01*
X49726190Y6304762D01*
X49226190Y6614286D02*
X49226190Y6661905D01*
X49250000Y6709524D01*
X49273809Y6733334D01*
X49321428Y6757143D01*
X49416666Y6780953D01*
X49535714Y6780953D01*
X49630952Y6757143D01*
X49678571Y6733334D01*
X49702380Y6709524D01*
X49726190Y6661905D01*
X49726190Y6614286D01*
X49702380Y6566667D01*
X49678571Y6542858D01*
X49630952Y6519048D01*
X49535714Y6495239D01*
X49416666Y6495239D01*
X49321428Y6519048D01*
X49273809Y6542858D01*
X49250000Y6566667D01*
X49226190Y6614286D01*
X1396190Y6991858D02*
X1396190Y6706143D01*
X1396190Y6849000D02*
X896190Y6849000D01*
X967619Y6801381D01*
X1015238Y6753762D01*
X1039047Y6706143D01*
X49173809Y49019048D02*
X49150000Y49042858D01*
X49126190Y49090477D01*
X49126190Y49209524D01*
X49150000Y49257143D01*
X49173809Y49280953D01*
X49221428Y49304762D01*
X49269047Y49304762D01*
X49340476Y49280953D01*
X49626190Y48995239D01*
X49626190Y49304762D01*
X49626190Y49780953D02*
X49626190Y49495239D01*
X49626190Y49638096D02*
X49126190Y49638096D01*
X49197619Y49590477D01*
X49245238Y49542858D01*
X49269047Y49495239D01*
%TO.C,J1*%
X26366190Y63963858D02*
X26366190Y63678143D01*
X26366190Y63821000D02*
X25866190Y63821000D01*
X25937619Y63773381D01*
X25985238Y63725762D01*
X26009047Y63678143D01*
D14*
%TO.C,J4*%
X30650000Y63440000D02*
X43350000Y63440000D01*
X43350000Y58360000D02*
X30650000Y58360000D01*
X30650000Y58360000D02*
X30650000Y63440000D01*
X43350000Y63440000D02*
X43350000Y58360000D01*
%TO.C,J3*%
X35790000Y53730000D02*
X35790000Y56270000D01*
X43410000Y56270000D02*
X43410000Y53730000D01*
X43410000Y53730000D02*
X35790000Y53730000D01*
X35790000Y56270000D02*
X43410000Y56270000D01*
%TO.C,J2*%
X6420000Y58360000D02*
X6420000Y63440000D01*
X16580000Y58360000D02*
X6420000Y58360000D01*
X16580000Y63440000D02*
X16580000Y58360000D01*
X6420000Y63440000D02*
X16580000Y63440000D01*
%TO.C,DISP1*%
X50690000Y50030000D02*
X-110000Y50030000D01*
D11*
X-2000000Y8500000D02*
X-100000Y8500000D01*
X52600000Y51300000D02*
X50690000Y51300000D01*
D14*
X50700000Y7230000D02*
X-100000Y7230000D01*
X-110000Y52570000D02*
X50690000Y52570000D01*
X-100000Y9770000D02*
X50700000Y9770000D01*
D11*
X-2000000Y51300000D02*
X-2000000Y8500000D01*
D14*
X-100000Y7230000D02*
X-100000Y9770000D01*
X-110000Y50030000D02*
X-110000Y52570000D01*
D11*
X52600000Y8500000D02*
X52600000Y51300000D01*
D14*
X50690000Y52570000D02*
X50690000Y50030000D01*
X50700000Y9770000D02*
X50700000Y7230000D01*
D11*
X-110000Y51300000D02*
X-2000000Y51300000D01*
X50700000Y8500000D02*
X52600000Y8500000D01*
X-200000Y43200000D02*
X50800000Y43200000D01*
X50800000Y43200000D02*
X50800000Y12200000D01*
X50800000Y12200000D02*
X-200000Y12200000D01*
X-200000Y12200000D02*
X-200000Y43200000D01*
X-200000Y43200000D02*
X50800000Y43200000D01*
X50800000Y43200000D02*
X50800000Y12200000D01*
X50800000Y12200000D02*
X-200000Y12200000D01*
X-200000Y12200000D02*
X-200000Y43200000D01*
D14*
%TO.C,J1*%
X27410000Y58360000D02*
X19790000Y58360000D01*
X27410000Y63440000D02*
X27410000Y58360000D01*
X19790000Y63440000D02*
X27410000Y63440000D01*
X19790000Y58360000D02*
X19790000Y63440000D01*
%TD*%
D15*
%TO.C,J4*%
X31920000Y59630000D03*
X31920000Y62170000D03*
X34460000Y59630000D03*
X34460000Y62170000D03*
X37000000Y59630000D03*
X37000000Y62170000D03*
X39540000Y59630000D03*
X39540000Y62170000D03*
X42080000Y59630000D03*
X42080000Y62170000D03*
%TD*%
%TO.C,J2*%
X15310000Y62170000D03*
X15310000Y59630000D03*
X12770000Y62170000D03*
X12770000Y59630000D03*
X10230000Y62170000D03*
X10230000Y59630000D03*
X7690000Y62170000D03*
X7690000Y59630000D03*
%TD*%
%TO.C,DISP1*%
X1170000Y8500000D03*
X3710000Y8500000D03*
X6250000Y8500000D03*
X44350000Y8500000D03*
X46890000Y8500000D03*
X49430000Y8500000D03*
X49420000Y51300000D03*
X46880000Y51300000D03*
X44340000Y51300000D03*
X41800000Y51300000D03*
X39260000Y51300000D03*
X36720000Y51300000D03*
X34180000Y51300000D03*
X31640000Y51300000D03*
X29100000Y51300000D03*
X26560000Y51300000D03*
X24020000Y51300000D03*
X21480000Y51300000D03*
X18940000Y51300000D03*
X16400000Y51300000D03*
X13860000Y51300000D03*
X11320000Y51300000D03*
X8780000Y51300000D03*
X6240000Y51300000D03*
X3700000Y51300000D03*
X1160000Y51300000D03*
%TD*%
M02*
