%TF.GenerationSoftware,KiCad,Pcbnew,6.0.4-6f826c9f35~116~ubuntu20.04.1*%
%TF.CreationDate,2022-05-16T22:43:07+00:00*%
%TF.ProjectId,OLED01A,4f4c4544-3031-4412-9e6b-696361645f70,rev?*%
%TF.SameCoordinates,PX72ba1e0PY737d6e0*%
%TF.FileFunction,Soldermask,Bot*%
%TF.FilePolarity,Negative*%
%FSLAX46Y46*%
G04 Gerber Fmt 4.6, Leading zero omitted, Abs format (unit mm)*
G04 Created by KiCad (PCBNEW 6.0.4-6f826c9f35~116~ubuntu20.04.1) date 2022-05-16 22:43:07*
%MOMM*%
%LPD*%
G01*
G04 APERTURE LIST*
G04 Aperture macros list*
%AMRoundRect*
0 Rectangle with rounded corners*
0 $1 Rounding radius*
0 $2 $3 $4 $5 $6 $7 $8 $9 X,Y pos of 4 corners*
0 Add a 4 corners polygon primitive as box body*
4,1,4,$2,$3,$4,$5,$6,$7,$8,$9,$2,$3,0*
0 Add four circle primitives for the rounded corners*
1,1,$1+$1,$2,$3*
1,1,$1+$1,$4,$5*
1,1,$1+$1,$6,$7*
1,1,$1+$1,$8,$9*
0 Add four rect primitives between the rounded corners*
20,1,$1+$1,$2,$3,$4,$5,0*
20,1,$1+$1,$4,$5,$6,$7,0*
20,1,$1+$1,$6,$7,$8,$9,0*
20,1,$1+$1,$8,$9,$2,$3,0*%
G04 Aperture macros list end*
%ADD10C,6.000000*%
%ADD11R,1.524000X1.524000*%
%ADD12R,2.350000X5.100000*%
%ADD13RoundRect,0.243750X-0.456250X0.243750X-0.456250X-0.243750X0.456250X-0.243750X0.456250X0.243750X0*%
%ADD14R,0.650000X1.220000*%
%ADD15R,1.300000X1.700000*%
%ADD16RoundRect,0.243750X0.456250X-0.243750X0.456250X0.243750X-0.456250X0.243750X-0.456250X-0.243750X0*%
%ADD17R,2.500000X1.800000*%
%ADD18RoundRect,0.243750X-0.243750X-0.456250X0.243750X-0.456250X0.243750X0.456250X-0.243750X0.456250X0*%
G04 APERTURE END LIST*
D10*
%TO.C,H2*%
X50800000Y0D03*
%TD*%
%TO.C,H4*%
X0Y0D03*
%TD*%
D11*
%TO.C,J4*%
X31920000Y59630000D03*
X31920000Y62170000D03*
X34460000Y59630000D03*
X34460000Y62170000D03*
X37000000Y59630000D03*
X37000000Y62170000D03*
X39540000Y59630000D03*
X39540000Y62170000D03*
X42080000Y59630000D03*
X42080000Y62170000D03*
%TD*%
%TO.C,J3*%
X37060000Y55000000D03*
X39600000Y55000000D03*
X42140000Y55000000D03*
%TD*%
%TO.C,J2*%
X15310000Y62170000D03*
X15310000Y59630000D03*
X12770000Y62170000D03*
X12770000Y59630000D03*
X10230000Y62170000D03*
X10230000Y59630000D03*
X7690000Y62170000D03*
X7690000Y59630000D03*
%TD*%
D10*
%TO.C,H3*%
X0Y60960000D03*
%TD*%
%TO.C,H1*%
X50800000Y60960000D03*
%TD*%
D11*
%TO.C,DISP1*%
X1170000Y8500000D03*
X3710000Y8500000D03*
X6250000Y8500000D03*
X44350000Y8500000D03*
X46890000Y8500000D03*
X49430000Y8500000D03*
X49420000Y51300000D03*
X46880000Y51300000D03*
X44340000Y51300000D03*
X41800000Y51300000D03*
X39260000Y51300000D03*
X36720000Y51300000D03*
X34180000Y51300000D03*
X31640000Y51300000D03*
X29100000Y51300000D03*
X26560000Y51300000D03*
X24020000Y51300000D03*
X21480000Y51300000D03*
X18940000Y51300000D03*
X16400000Y51300000D03*
X13860000Y51300000D03*
X11320000Y51300000D03*
X8780000Y51300000D03*
X6240000Y51300000D03*
X3700000Y51300000D03*
X1160000Y51300000D03*
%TD*%
%TO.C,J1*%
X26140000Y62170000D03*
X26140000Y59630000D03*
X23600000Y62170000D03*
X23600000Y59630000D03*
X21060000Y62170000D03*
X21060000Y59630000D03*
%TD*%
D12*
%TO.C,L1*%
X22825000Y33300000D03*
X26975000Y33300000D03*
%TD*%
D13*
%TO.C,R10*%
X16300000Y48700000D03*
X16300000Y46825000D03*
%TD*%
%TO.C,R2*%
X42500000Y42637500D03*
X42500000Y40762500D03*
%TD*%
D14*
%TO.C,U1*%
X24499659Y26066353D03*
X23549659Y26066353D03*
X22599659Y26066353D03*
X22599659Y28686353D03*
X23549659Y28686353D03*
X24499659Y28686353D03*
%TD*%
D13*
%TO.C,R7*%
X11400000Y48937500D03*
X11400000Y47062500D03*
%TD*%
%TO.C,R3*%
X38200000Y46037500D03*
X38200000Y44162500D03*
%TD*%
D15*
%TO.C,D2*%
X24250000Y55700000D03*
X20750000Y55700000D03*
%TD*%
D16*
%TO.C,C3*%
X30300000Y55425000D03*
X30300000Y57300000D03*
%TD*%
%TO.C,R13*%
X18900000Y46825000D03*
X18900000Y48700000D03*
%TD*%
D17*
%TO.C,D1*%
X34700000Y33300000D03*
X30700000Y33300000D03*
%TD*%
D13*
%TO.C,R5*%
X29700000Y29537500D03*
X29700000Y27662500D03*
%TD*%
%TO.C,C5*%
X39000000Y31000000D03*
X39000000Y29125000D03*
%TD*%
%TO.C,R9*%
X5250000Y62750000D03*
X5250000Y60875000D03*
%TD*%
%TO.C,R1*%
X42500000Y46075000D03*
X42500000Y44200000D03*
%TD*%
%TO.C,C4*%
X7700000Y49000000D03*
X7700000Y47125000D03*
%TD*%
%TO.C,R11*%
X29200000Y48600000D03*
X29200000Y46725000D03*
%TD*%
%TO.C,R4*%
X38200000Y42600000D03*
X38200000Y40725000D03*
%TD*%
%TO.C,R6*%
X29700000Y26175000D03*
X29700000Y24300000D03*
%TD*%
%TO.C,R12*%
X25200000Y48737500D03*
X25200000Y46862500D03*
%TD*%
D16*
%TO.C,R14*%
X22000000Y46825000D03*
X22000000Y48700000D03*
%TD*%
%TO.C,C6*%
X28300000Y55425000D03*
X28300000Y57300000D03*
%TD*%
D18*
%TO.C,R8*%
X37025000Y33300000D03*
X38900000Y33300000D03*
%TD*%
D13*
%TO.C,C2*%
X35200000Y30037500D03*
X35200000Y28162500D03*
%TD*%
D16*
%TO.C,C1*%
X19700000Y30525000D03*
X19700000Y32400000D03*
%TD*%
M02*
