%TF.GenerationSoftware,KiCad,Pcbnew,6.0.10+dfsg-1~bpo11+1*%
%TF.CreationDate,2023-02-13T23:46:06+00:00*%
%TF.ProjectId,OLED01,4f4c4544-3031-42e6-9b69-6361645f7063,rev?*%
%TF.SameCoordinates,PX72ba1e0PY737d6e0*%
%TF.FileFunction,Soldermask,Top*%
%TF.FilePolarity,Negative*%
%FSLAX46Y46*%
G04 Gerber Fmt 4.6, Leading zero omitted, Abs format (unit mm)*
G04 Created by KiCad (PCBNEW 6.0.10+dfsg-1~bpo11+1) date 2023-02-13 23:46:06*
%MOMM*%
%LPD*%
G01*
G04 APERTURE LIST*
G04 Aperture macros list*
%AMRoundRect*
0 Rectangle with rounded corners*
0 $1 Rounding radius*
0 $2 $3 $4 $5 $6 $7 $8 $9 X,Y pos of 4 corners*
0 Add a 4 corners polygon primitive as box body*
4,1,4,$2,$3,$4,$5,$6,$7,$8,$9,$2,$3,0*
0 Add four circle primitives for the rounded corners*
1,1,$1+$1,$2,$3*
1,1,$1+$1,$4,$5*
1,1,$1+$1,$6,$7*
1,1,$1+$1,$8,$9*
0 Add four rect primitives between the rounded corners*
20,1,$1+$1,$2,$3,$4,$5,0*
20,1,$1+$1,$4,$5,$6,$7,0*
20,1,$1+$1,$6,$7,$8,$9,0*
20,1,$1+$1,$8,$9,$2,$3,0*%
G04 Aperture macros list end*
%ADD10C,6.400000*%
%ADD11RoundRect,0.200000X0.762000X-0.762000X0.762000X0.762000X-0.762000X0.762000X-0.762000X-0.762000X0*%
%ADD12RoundRect,0.200000X-0.762000X0.762000X-0.762000X-0.762000X0.762000X-0.762000X0.762000X0.762000X0*%
G04 APERTURE END LIST*
D10*
%TO.C,H2*%
X50800000Y0D03*
%TD*%
%TO.C,H4*%
X0Y0D03*
%TD*%
D11*
%TO.C,J6*%
X33520000Y59630000D03*
X33520000Y62170000D03*
X36060000Y59630000D03*
X36060000Y62170000D03*
X38600000Y59630000D03*
X38600000Y62170000D03*
X41140000Y59630000D03*
X41140000Y62170000D03*
X43680000Y59630000D03*
X43680000Y62170000D03*
%TD*%
%TO.C,J5*%
X37060000Y55000000D03*
X39600000Y55000000D03*
X42140000Y55000000D03*
%TD*%
D12*
%TO.C,J4*%
X12740000Y62170000D03*
X12740000Y59630000D03*
X10200000Y62170000D03*
X10200000Y59630000D03*
X7660000Y62170000D03*
X7660000Y59630000D03*
%TD*%
D10*
%TO.C,H3*%
X0Y60960000D03*
%TD*%
%TO.C,H1*%
X50800000Y60960000D03*
%TD*%
D11*
%TO.C,DISP1*%
X1170000Y8500000D03*
X3710000Y8500000D03*
X6250000Y8500000D03*
X44350000Y8500000D03*
X46890000Y8500000D03*
X49430000Y8500000D03*
X49420000Y51300000D03*
X46880000Y51300000D03*
X44340000Y51300000D03*
X41800000Y51300000D03*
X39260000Y51300000D03*
X36720000Y51300000D03*
X34180000Y51300000D03*
X31640000Y51300000D03*
X29100000Y51300000D03*
X26560000Y51300000D03*
X24020000Y51300000D03*
X21480000Y51300000D03*
X18940000Y51300000D03*
X16400000Y51300000D03*
X13860000Y51300000D03*
X11320000Y51300000D03*
X8780000Y51300000D03*
X6240000Y51300000D03*
X3700000Y51300000D03*
X1160000Y51300000D03*
%TD*%
D12*
%TO.C,J2*%
X29980000Y62170000D03*
X29980000Y59630000D03*
X27440000Y62170000D03*
X27440000Y59630000D03*
X24900000Y62170000D03*
X24900000Y59630000D03*
%TD*%
D11*
%TO.C,J3*%
X16280000Y59630000D03*
X16280000Y62170000D03*
X18820000Y59630000D03*
X18820000Y62170000D03*
X21360000Y59630000D03*
X21360000Y62170000D03*
%TD*%
M02*
