%TF.GenerationSoftware,KiCad,Pcbnew,6.0.10+dfsg-1~bpo11+1*%
%TF.CreationDate,2023-02-13T13:22:35+00:00*%
%TF.ProjectId,OLED01,4f4c4544-3031-42e6-9b69-6361645f7063,rev?*%
%TF.SameCoordinates,PX72ba1e0PY737d6e0*%
%TF.FileFunction,Copper,L2,Bot*%
%TF.FilePolarity,Positive*%
%FSLAX46Y46*%
G04 Gerber Fmt 4.6, Leading zero omitted, Abs format (unit mm)*
G04 Created by KiCad (PCBNEW 6.0.10+dfsg-1~bpo11+1) date 2023-02-13 13:22:35*
%MOMM*%
%LPD*%
G01*
G04 APERTURE LIST*
G04 Aperture macros list*
%AMRoundRect*
0 Rectangle with rounded corners*
0 $1 Rounding radius*
0 $2 $3 $4 $5 $6 $7 $8 $9 X,Y pos of 4 corners*
0 Add a 4 corners polygon primitive as box body*
4,1,4,$2,$3,$4,$5,$6,$7,$8,$9,$2,$3,0*
0 Add four circle primitives for the rounded corners*
1,1,$1+$1,$2,$3*
1,1,$1+$1,$4,$5*
1,1,$1+$1,$6,$7*
1,1,$1+$1,$8,$9*
0 Add four rect primitives between the rounded corners*
20,1,$1+$1,$2,$3,$4,$5,0*
20,1,$1+$1,$4,$5,$6,$7,0*
20,1,$1+$1,$6,$7,$8,$9,0*
20,1,$1+$1,$8,$9,$2,$3,0*%
%AMFreePoly0*
4,1,22,0.550000,-0.750000,0.000000,-0.750000,0.000000,-0.745033,-0.079941,-0.743568,-0.215256,-0.701293,-0.333266,-0.622738,-0.424486,-0.514219,-0.481581,-0.384460,-0.499164,-0.250000,-0.500000,-0.250000,-0.500000,0.250000,-0.499164,0.250000,-0.499963,0.256109,-0.478152,0.396186,-0.417904,0.524511,-0.324060,0.630769,-0.204165,0.706417,-0.067858,0.745374,0.000000,0.744959,0.000000,0.750000,
0.550000,0.750000,0.550000,-0.750000,0.550000,-0.750000,$1*%
%AMFreePoly1*
4,1,20,0.000000,0.744959,0.073905,0.744508,0.209726,0.703889,0.328688,0.626782,0.421226,0.519385,0.479903,0.390333,0.500000,0.250000,0.500000,-0.250000,0.499851,-0.262216,0.476331,-0.402017,0.414519,-0.529596,0.319384,-0.634700,0.198574,-0.708877,0.061801,-0.746166,0.000000,-0.745033,0.000000,-0.750000,-0.550000,-0.750000,-0.550000,0.750000,0.000000,0.750000,0.000000,0.744959,
0.000000,0.744959,$1*%
G04 Aperture macros list end*
%TA.AperFunction,ComponentPad*%
%ADD10C,6.000000*%
%TD*%
%TA.AperFunction,ComponentPad*%
%ADD11R,1.524000X1.524000*%
%TD*%
%TA.AperFunction,SMDPad,CuDef*%
%ADD12R,2.350000X5.100000*%
%TD*%
%TA.AperFunction,SMDPad,CuDef*%
%ADD13RoundRect,0.243750X-0.456250X0.243750X-0.456250X-0.243750X0.456250X-0.243750X0.456250X0.243750X0*%
%TD*%
%TA.AperFunction,SMDPad,CuDef*%
%ADD14R,0.650000X1.220000*%
%TD*%
%TA.AperFunction,SMDPad,CuDef*%
%ADD15R,0.610000X2.000000*%
%TD*%
%TA.AperFunction,SMDPad,CuDef*%
%ADD16R,2.680000X3.600000*%
%TD*%
%TA.AperFunction,SMDPad,CuDef*%
%ADD17R,1.300000X1.700000*%
%TD*%
%TA.AperFunction,SMDPad,CuDef*%
%ADD18RoundRect,0.243750X0.456250X-0.243750X0.456250X0.243750X-0.456250X0.243750X-0.456250X-0.243750X0*%
%TD*%
%TA.AperFunction,SMDPad,CuDef*%
%ADD19R,1.800000X2.500000*%
%TD*%
%TA.AperFunction,SMDPad,CuDef*%
%ADD20RoundRect,0.150000X0.512500X0.150000X-0.512500X0.150000X-0.512500X-0.150000X0.512500X-0.150000X0*%
%TD*%
%TA.AperFunction,SMDPad,CuDef*%
%ADD21R,1.100000X0.400000*%
%TD*%
%TA.AperFunction,SMDPad,CuDef*%
%ADD22RoundRect,0.100000X-0.637500X-0.100000X0.637500X-0.100000X0.637500X0.100000X-0.637500X0.100000X0*%
%TD*%
%TA.AperFunction,SMDPad,CuDef*%
%ADD23FreePoly0,180.000000*%
%TD*%
%TA.AperFunction,SMDPad,CuDef*%
%ADD24R,1.000000X1.500000*%
%TD*%
%TA.AperFunction,SMDPad,CuDef*%
%ADD25FreePoly1,180.000000*%
%TD*%
%TA.AperFunction,SMDPad,CuDef*%
%ADD26RoundRect,0.250000X0.250000X0.475000X-0.250000X0.475000X-0.250000X-0.475000X0.250000X-0.475000X0*%
%TD*%
%TA.AperFunction,ViaPad*%
%ADD27C,0.800000*%
%TD*%
%TA.AperFunction,Conductor*%
%ADD28C,0.400000*%
%TD*%
%TA.AperFunction,Conductor*%
%ADD29C,1.000000*%
%TD*%
%TA.AperFunction,Conductor*%
%ADD30C,0.600000*%
%TD*%
%TA.AperFunction,Conductor*%
%ADD31C,1.100000*%
%TD*%
G04 APERTURE END LIST*
%TO.C,JP1*%
G36*
X35800000Y1600000D02*
G01*
X35300000Y1600000D01*
X35300000Y2200000D01*
X35800000Y2200000D01*
X35800000Y1600000D01*
G37*
%TD*%
D10*
%TO.P,H2,1,1*%
%TO.N,GND*%
X50800000Y0D03*
%TD*%
%TO.P,H4,1,1*%
%TO.N,GND*%
X0Y0D03*
%TD*%
D11*
%TO.P,J6,1*%
%TO.N,GND*%
X33520000Y59630000D03*
%TO.P,J6,2*%
X33520000Y62170000D03*
%TO.P,J6,3*%
%TO.N,/SDAIN*%
X36060000Y59630000D03*
%TO.P,J6,4*%
X36060000Y62170000D03*
%TO.P,J6,5*%
%TO.N,+5V*%
X38600000Y59630000D03*
%TO.P,J6,6*%
X38600000Y62170000D03*
%TO.P,J6,7*%
%TO.N,/SCLIN*%
X41140000Y59630000D03*
%TO.P,J6,8*%
X41140000Y62170000D03*
%TO.P,J6,9*%
%TO.N,GND*%
X43680000Y59630000D03*
%TO.P,J6,10*%
X43680000Y62170000D03*
%TD*%
%TO.P,J5,1*%
%TO.N,+2V5*%
X37060000Y55000000D03*
%TO.P,J5,2*%
%TO.N,/DC*%
X39600000Y55000000D03*
%TO.P,J5,3*%
%TO.N,GND*%
X42140000Y55000000D03*
%TD*%
%TO.P,J4,1*%
%TO.N,/D1*%
X12740000Y62170000D03*
%TO.P,J4,2*%
X12740000Y59630000D03*
%TO.P,J4,3*%
%TO.N,/CLK*%
X10200000Y62170000D03*
%TO.P,J4,4*%
X10200000Y59630000D03*
%TO.P,J4,5*%
%TO.N,/#CS*%
X7660000Y62170000D03*
%TO.P,J4,6*%
X7660000Y59630000D03*
%TD*%
D10*
%TO.P,H3,1,1*%
%TO.N,GND*%
X0Y60960000D03*
%TD*%
%TO.P,H1,1,1*%
%TO.N,GND*%
X50800000Y60960000D03*
%TD*%
D11*
%TO.P,DISP1,1,ESD_GND*%
%TO.N,GND*%
X1170000Y8500000D03*
%TO.P,DISP1,2*%
%TO.N,unconnected-(DISP1-Pad2)*%
X3710000Y8500000D03*
%TO.P,DISP1,3*%
%TO.N,unconnected-(DISP1-Pad3)*%
X6250000Y8500000D03*
%TO.P,DISP1,18*%
%TO.N,unconnected-(DISP1-Pad18)*%
X44350000Y8500000D03*
%TO.P,DISP1,19*%
%TO.N,unconnected-(DISP1-Pad19)*%
X46890000Y8500000D03*
%TO.P,DISP1,20,ESD_GND*%
%TO.N,GND*%
X49430000Y8500000D03*
%TO.P,DISP1,21,VCC*%
%TO.N,+12V*%
X49420000Y51300000D03*
%TO.P,DISP1,22,VCC*%
X46880000Y51300000D03*
%TO.P,DISP1,23,GND*%
%TO.N,GND*%
X44340000Y51300000D03*
%TO.P,DISP1,24,GND*%
X41800000Y51300000D03*
%TO.P,DISP1,25,VDD*%
%TO.N,+2V5*%
X39260000Y51300000D03*
%TO.P,DISP1,26,BS0*%
%TO.N,/BS0*%
X36720000Y51300000D03*
%TO.P,DISP1,27,BS1*%
%TO.N,/BS1*%
X34180000Y51300000D03*
%TO.P,DISP1,28,GND*%
%TO.N,GND*%
X31640000Y51300000D03*
%TO.P,DISP1,29,#CS*%
%TO.N,/#CS*%
X29100000Y51300000D03*
%TO.P,DISP1,30,#RES*%
%TO.N,/#RES*%
X26560000Y51300000D03*
%TO.P,DISP1,31,D/C*%
%TO.N,/DC*%
X24020000Y51300000D03*
%TO.P,DISP1,32,D0*%
%TO.N,/CLK*%
X21480000Y51300000D03*
%TO.P,DISP1,33,D1*%
%TO.N,/D1*%
X18940000Y51300000D03*
%TO.P,DISP1,34,D2*%
%TO.N,/D2*%
X16400000Y51300000D03*
%TO.P,DISP1,35,GND*%
%TO.N,GND*%
X13860000Y51300000D03*
%TO.P,DISP1,36,IRef*%
%TO.N,Net-(DISP1-Pad36)*%
X11320000Y51300000D03*
%TO.P,DISP1,37,VCOMH*%
%TO.N,Net-(C2-Pad1)*%
X8780000Y51300000D03*
%TO.P,DISP1,38,VCOMH*%
X6240000Y51300000D03*
%TO.P,DISP1,39,VCC*%
%TO.N,+12V*%
X3700000Y51300000D03*
%TO.P,DISP1,40,VCC*%
X1160000Y51300000D03*
%TD*%
%TO.P,J2,1*%
%TO.N,GND*%
X29980000Y62170000D03*
%TO.P,J2,2*%
X29980000Y59630000D03*
%TO.P,J2,3*%
%TO.N,+5V*%
X27440000Y62170000D03*
%TO.P,J2,4*%
X27440000Y59630000D03*
%TO.P,J2,5*%
%TO.N,GND*%
X24900000Y62170000D03*
%TO.P,J2,6*%
X24900000Y59630000D03*
%TD*%
%TO.P,J3,1*%
%TO.N,/#RES*%
X16280000Y59630000D03*
%TO.P,J3,2*%
X16280000Y62170000D03*
%TO.P,J3,3*%
%TO.N,/#INT*%
X18820000Y59630000D03*
%TO.P,J3,4*%
X18820000Y62170000D03*
%TO.P,J3,5*%
%TO.N,/AUX*%
X21360000Y59630000D03*
%TO.P,J3,6*%
X21360000Y62170000D03*
%TD*%
D12*
%TO.P,L1,1*%
%TO.N,+5V*%
X12675000Y28700000D03*
%TO.P,L1,2*%
%TO.N,Net-(D1-Pad2)*%
X8525000Y28700000D03*
%TD*%
D13*
%TO.P,R10,1*%
%TO.N,/D2*%
X16300000Y48700000D03*
%TO.P,R10,2*%
%TO.N,/D1*%
X16300000Y46825000D03*
%TD*%
%TO.P,R3,1*%
%TO.N,/BS0*%
X42500000Y42637500D03*
%TO.P,R3,2*%
%TO.N,GND*%
X42500000Y40762500D03*
%TD*%
D14*
%TO.P,U3,1,PGND*%
%TO.N,GND*%
X11000341Y35933647D03*
%TO.P,U3,2,GND*%
X11950341Y35933647D03*
%TO.P,U3,3,FB*%
%TO.N,/B_FB*%
X12900341Y35933647D03*
%TO.P,U3,4,SHDN*%
%TO.N,+5V*%
X12900341Y33313647D03*
%TO.P,U3,5,VCC*%
X11950341Y33313647D03*
%TO.P,U3,6,LX*%
%TO.N,Net-(D1-Pad2)*%
X11000341Y33313647D03*
%TD*%
D13*
%TO.P,R1,1*%
%TO.N,Net-(DISP1-Pad36)*%
X11400000Y48937500D03*
%TO.P,R1,2*%
%TO.N,GND*%
X11400000Y47062500D03*
%TD*%
D15*
%TO.P,J1,1,Pin_1*%
%TO.N,Net-(U4-Pad2)*%
X26800000Y25050000D03*
%TO.P,J1,2,Pin_2*%
%TO.N,Net-(U4-Pad3)*%
X25800000Y25050000D03*
%TO.P,J1,3,Pin_3*%
%TO.N,Net-(U4-Pad4)*%
X24800000Y25050000D03*
%TO.P,J1,4,Pin_4*%
%TO.N,Net-(U4-Pad5)*%
X23800000Y25050000D03*
D16*
%TO.P,J1,MP*%
%TO.N,N/C*%
X29790000Y22250000D03*
X20810000Y22250000D03*
%TD*%
D13*
%TO.P,R4,1*%
%TO.N,+2V5*%
X38200000Y46037500D03*
%TO.P,R4,2*%
%TO.N,/BS1*%
X38200000Y44162500D03*
%TD*%
D17*
%TO.P,D2,1,K*%
%TO.N,+5V*%
X24250000Y55700000D03*
%TO.P,D2,2,A*%
%TO.N,GND*%
X20750000Y55700000D03*
%TD*%
D18*
%TO.P,C8,1*%
%TO.N,+5V*%
X32500000Y55425000D03*
%TO.P,C8,2*%
%TO.N,GND*%
X32500000Y57300000D03*
%TD*%
%TO.P,R13,1*%
%TO.N,+5V*%
X18900000Y46825000D03*
%TO.P,R13,2*%
%TO.N,/SDAIN*%
X18900000Y48700000D03*
%TD*%
D19*
%TO.P,D1,1,K*%
%TO.N,Net-(C10-Pad1)*%
X3000000Y32400000D03*
%TO.P,D1,2,A*%
%TO.N,Net-(D1-Pad2)*%
X3000000Y28400000D03*
%TD*%
D20*
%TO.P,U2,1,VIN*%
%TO.N,+5V*%
X29837500Y5750000D03*
%TO.P,U2,2,GND*%
%TO.N,GND*%
X29837500Y4800000D03*
%TO.P,U2,3,EN*%
X29837500Y3850000D03*
%TO.P,U2,4,NC*%
%TO.N,unconnected-(U2-Pad4)*%
X27562500Y3850000D03*
%TO.P,U2,5,VOUT*%
%TO.N,+2V5*%
X27562500Y5750000D03*
%TD*%
D21*
%TO.P,U5,1,GND*%
%TO.N,GND*%
X39250000Y8375000D03*
%TO.P,U5,2,VREF1*%
%TO.N,+5V*%
X39250000Y7725000D03*
%TO.P,U5,3,SCL1*%
%TO.N,/SDAIN*%
X39250000Y7075000D03*
%TO.P,U5,4,SDA1*%
%TO.N,/SCLIN*%
X39250000Y6425000D03*
%TO.P,U5,5,SDA2*%
%TO.N,/CLK*%
X34950000Y6425000D03*
%TO.P,U5,6,SCL2*%
%TO.N,/D1*%
X34950000Y7075000D03*
%TO.P,U5,7,VREF2*%
%TO.N,+2V5*%
X34950000Y7725000D03*
%TO.P,U5,8,EN*%
%TO.N,Net-(JP1-Pad2)*%
X34950000Y8375000D03*
%TD*%
D18*
%TO.P,R7,1*%
%TO.N,Net-(C10-Pad1)*%
X5800000Y32462500D03*
%TO.P,R7,2*%
%TO.N,/B_FB*%
X5800000Y34337500D03*
%TD*%
D13*
%TO.P,C11,1*%
%TO.N,+12V*%
X0Y36737500D03*
%TO.P,C11,2*%
%TO.N,GND*%
X0Y34862500D03*
%TD*%
D22*
%TO.P,U4,1,VDD*%
%TO.N,+2V5*%
X36937500Y26625000D03*
%TO.P,U4,2,X+*%
%TO.N,Net-(U4-Pad2)*%
X36937500Y27275000D03*
%TO.P,U4,3,Y+*%
%TO.N,Net-(U4-Pad3)*%
X36937500Y27925000D03*
%TO.P,U4,4,X-*%
%TO.N,Net-(U4-Pad4)*%
X36937500Y28575000D03*
%TO.P,U4,5,Y-*%
%TO.N,Net-(U4-Pad5)*%
X36937500Y29225000D03*
%TO.P,U4,6,GND*%
%TO.N,GND*%
X36937500Y29875000D03*
%TO.P,U4,7*%
%TO.N,N/C*%
X36937500Y30525000D03*
%TO.P,U4,8*%
X36937500Y31175000D03*
%TO.P,U4,9*%
X42662500Y31175000D03*
%TO.P,U4,10,#IRQ*%
%TO.N,/#INT*%
X42662500Y30525000D03*
%TO.P,U4,11,SDA*%
%TO.N,/D1*%
X42662500Y29875000D03*
%TO.P,U4,12,SCL*%
%TO.N,/CLK*%
X42662500Y29225000D03*
%TO.P,U4,13,A1*%
%TO.N,GND*%
X42662500Y28575000D03*
%TO.P,U4,14,A0*%
%TO.N,/DC*%
X42662500Y27925000D03*
%TO.P,U4,15*%
%TO.N,N/C*%
X42662500Y27275000D03*
%TO.P,U4,16,AUX*%
%TO.N,/AUX*%
X42662500Y26625000D03*
%TD*%
D13*
%TO.P,R6,1*%
%TO.N,/#RES*%
X5250000Y62750000D03*
%TO.P,R6,2*%
%TO.N,+2V5*%
X5250000Y60875000D03*
%TD*%
%TO.P,R2,1*%
%TO.N,+2V5*%
X42500000Y46075000D03*
%TO.P,R2,2*%
%TO.N,/BS0*%
X42500000Y44200000D03*
%TD*%
D23*
%TO.P,JP1,1,A*%
%TO.N,/#RES*%
X36200000Y1900000D03*
D24*
%TO.P,JP1,2,C*%
%TO.N,Net-(JP1-Pad2)*%
X34900000Y1900000D03*
D25*
%TO.P,JP1,3,B*%
%TO.N,+2V5*%
X33600000Y1900000D03*
%TD*%
D13*
%TO.P,C2,1*%
%TO.N,Net-(C2-Pad1)*%
X7700000Y49000000D03*
%TO.P,C2,2*%
%TO.N,GND*%
X7700000Y47125000D03*
%TD*%
%TO.P,R12,1*%
%TO.N,/#CS*%
X29200000Y48600000D03*
%TO.P,R12,2*%
%TO.N,GND*%
X29200000Y46725000D03*
%TD*%
%TO.P,R5,1*%
%TO.N,/BS1*%
X38200000Y42600000D03*
%TO.P,R5,2*%
%TO.N,GND*%
X38200000Y40725000D03*
%TD*%
D18*
%TO.P,R8,1*%
%TO.N,/B_FB*%
X5800000Y35825000D03*
%TO.P,R8,2*%
%TO.N,GND*%
X5800000Y37700000D03*
%TD*%
D26*
%TO.P,C1,1*%
%TO.N,Net-(C1-Pad1)*%
X50100000Y49100000D03*
%TO.P,C1,2*%
%TO.N,GND*%
X48200000Y49100000D03*
%TD*%
D13*
%TO.P,R11,1*%
%TO.N,/DC*%
X25200000Y48737500D03*
%TO.P,R11,2*%
%TO.N,GND*%
X25200000Y46862500D03*
%TD*%
D18*
%TO.P,R14,1*%
%TO.N,+5V*%
X22000000Y46825000D03*
%TO.P,R14,2*%
%TO.N,/SCLIN*%
X22000000Y48700000D03*
%TD*%
%TO.P,C9,1*%
%TO.N,+5V*%
X30500000Y55425000D03*
%TO.P,C9,2*%
%TO.N,GND*%
X30500000Y57300000D03*
%TD*%
D20*
%TO.P,U1,1,#RESET*%
%TO.N,/#RES*%
X50675000Y47800000D03*
%TO.P,U1,2,VDD*%
%TO.N,+2V5*%
X50675000Y46850000D03*
%TO.P,U1,3,GND*%
%TO.N,GND*%
X50675000Y45900000D03*
%TO.P,U1,4,MR*%
%TO.N,unconnected-(U1-Pad4)*%
X48400000Y45900000D03*
%TO.P,U1,5,CT*%
%TO.N,Net-(C1-Pad1)*%
X48400000Y47800000D03*
%TD*%
D18*
%TO.P,R9,1*%
%TO.N,Net-(C10-Pad1)*%
X2400000Y34800000D03*
%TO.P,R9,2*%
%TO.N,+12V*%
X2400000Y36675000D03*
%TD*%
%TO.P,C10,1*%
%TO.N,Net-(C10-Pad1)*%
X0Y31300000D03*
%TO.P,C10,2*%
%TO.N,GND*%
X0Y33175000D03*
%TD*%
D13*
%TO.P,C5,1*%
%TO.N,+5V*%
X15500000Y31175000D03*
%TO.P,C5,2*%
%TO.N,GND*%
X15500000Y29300000D03*
%TD*%
D27*
%TO.N,GND*%
X14200000Y55400000D03*
X-3200000Y29800000D03*
X8800000Y55700000D03*
X15500000Y24000000D03*
X9500000Y24000000D03*
X10500000Y24000000D03*
X8800000Y54700000D03*
X22200000Y31600000D03*
X6000000Y30800000D03*
X5000000Y48800000D03*
X-800000Y29800000D03*
X8400000Y24000000D03*
X15100000Y54600000D03*
X900000Y34000000D03*
X23400000Y31600000D03*
X22300000Y54900000D03*
X14400000Y24000000D03*
X24600000Y31600000D03*
X22200000Y35000000D03*
X8000000Y36100000D03*
X35400000Y49300000D03*
X24600000Y35000000D03*
X-1300000Y38100000D03*
X9000000Y36100000D03*
X5900000Y48700000D03*
X-900000Y34000000D03*
X1300000Y38100000D03*
X23400000Y35000000D03*
X10600000Y31600000D03*
%TO.N,/BS0*%
X40500000Y45000000D03*
%TO.N,/#CS*%
X21500000Y44700000D03*
%TO.N,/#RES*%
X20100000Y45400000D03*
%TO.N,/SCLIN*%
X20300000Y53700000D03*
%TD*%
D28*
%TO.N,Net-(C2-Pad1)*%
X8780000Y51300000D02*
X6240000Y51300000D01*
X8780000Y50080000D02*
X7700000Y49000000D01*
X8780000Y51300000D02*
X8780000Y50080000D01*
D29*
%TO.N,Net-(C10-Pad1)*%
X2400000Y34800000D02*
X2400000Y32800000D01*
X4000000Y32237500D02*
X5575000Y32237500D01*
X100000Y31400000D02*
X2000000Y31400000D01*
X5575000Y32237500D02*
X5800000Y32462500D01*
D30*
%TO.N,+12V*%
X7100000Y19300000D02*
X-2000000Y28400000D01*
X46880000Y28180000D02*
X38000000Y19300000D01*
X2325000Y36600000D02*
X2400000Y36675000D01*
X3700000Y42700000D02*
X600000Y39600000D01*
X700000Y39700000D02*
X0Y39000000D01*
X3700000Y51300000D02*
X3700000Y42700000D01*
X46880000Y51300000D02*
X49420000Y51300000D01*
X38000000Y19300000D02*
X7100000Y19300000D01*
X-2000000Y36000000D02*
X-1400000Y36600000D01*
X-2000000Y28400000D02*
X-2000000Y36000000D01*
X-1400000Y36600000D02*
X2325000Y36600000D01*
X0Y39000000D02*
X0Y36737500D01*
X3700000Y51300000D02*
X1160000Y51300000D01*
X46880000Y51300000D02*
X46880000Y28180000D01*
D28*
%TO.N,/BS0*%
X41300000Y44200000D02*
X42500000Y44200000D01*
X40500000Y45000000D02*
X41300000Y44200000D01*
X42500000Y42637500D02*
X42500000Y44200000D01*
%TO.N,/BS1*%
X34180000Y47620000D02*
X34180000Y51300000D01*
X38275000Y44087500D02*
X38200000Y44162500D01*
X38200000Y44162500D02*
X37637500Y44162500D01*
X37637500Y44162500D02*
X34180000Y47620000D01*
X38275000Y42700000D02*
X38275000Y44087500D01*
%TO.N,/#CS*%
X29100000Y48700000D02*
X29200000Y48600000D01*
X12499520Y46300480D02*
X12499520Y52443502D01*
X21300000Y44500000D02*
X14300000Y44500000D01*
X12499520Y52443502D02*
X10240000Y54703022D01*
X21500000Y44700000D02*
X21300000Y44500000D01*
X29100000Y51300000D02*
X29100000Y48700000D01*
X14300000Y44500000D02*
X12499520Y46300480D01*
%TO.N,/#RES*%
X15100000Y52600000D02*
X11489511Y56210489D01*
X15100000Y46300000D02*
X15100000Y52600000D01*
X20100000Y45400000D02*
X16000000Y45400000D01*
X16000000Y45400000D02*
X15100000Y46300000D01*
%TO.N,/DC*%
X24000000Y51280000D02*
X24020000Y51300000D01*
X24000000Y50200000D02*
X24000000Y51280000D01*
X25200000Y49000000D02*
X24000000Y50200000D01*
X25200000Y48737500D02*
X25200000Y49000000D01*
%TO.N,/D2*%
X16400000Y51300000D02*
X16400000Y48800000D01*
X16400000Y48800000D02*
X16300000Y48700000D01*
%TO.N,Net-(DISP1-Pad36)*%
X11320000Y51300000D02*
X11320000Y49017500D01*
X11320000Y49017500D02*
X11400000Y48937500D01*
D31*
%TO.N,Net-(D1-Pad2)*%
X9600000Y33300000D02*
X10600000Y33300000D01*
X8500000Y32000000D02*
X9600000Y33300000D01*
X8525000Y28700000D02*
X8500000Y32000000D01*
D29*
X3000000Y28400000D02*
X3300000Y28700000D01*
X3300000Y28700000D02*
X8525000Y28700000D01*
D30*
%TO.N,+5V*%
X37300000Y55000000D02*
X39360000Y52940000D01*
X36375000Y55700000D02*
X27500000Y55700000D01*
X27500000Y55700000D02*
X24250000Y55700000D01*
X22758489Y49941511D02*
X23400000Y49300000D01*
X42500000Y46075000D02*
X40282500Y46075000D01*
X37075000Y55000000D02*
X36375000Y55700000D01*
X27500000Y55700000D02*
X27500000Y62110000D01*
X39360000Y52940000D02*
X39360000Y51880000D01*
X24250000Y54350000D02*
X22758489Y52858489D01*
X39260000Y47097500D02*
X38200000Y46037500D01*
X24250000Y55700000D02*
X24250000Y54350000D01*
X37075000Y55000000D02*
X37300000Y55000000D01*
X37055000Y55270000D02*
X37075000Y55250000D01*
X22758489Y52858489D02*
X22758489Y49941511D01*
X39260000Y51300000D02*
X39260000Y47097500D01*
X40282500Y46075000D02*
X39260000Y47097500D01*
D28*
%TO.N,/SDAIN*%
X16625000Y46825000D02*
X18500000Y48700000D01*
X18940000Y51300000D02*
X18940000Y48740000D01*
X18500000Y48700000D02*
X18900000Y48700000D01*
X18940000Y48740000D02*
X18900000Y48700000D01*
X16300000Y46825000D02*
X16625000Y46825000D01*
%TO.N,/SCLIN*%
X20300000Y53700000D02*
X18540000Y53700000D01*
X21480000Y51300000D02*
X21480000Y49220000D01*
X21480000Y49220000D02*
X22000000Y48700000D01*
%TD*%
%TA.AperFunction,Conductor*%
%TO.N,GND*%
G36*
X55230691Y65412593D02*
G01*
X55266655Y65363093D01*
X55271500Y65332500D01*
X55271500Y-4372500D01*
X55252593Y-4430691D01*
X55203093Y-4466655D01*
X55172500Y-4471500D01*
X-4372500Y-4471500D01*
X-4430691Y-4452593D01*
X-4466655Y-4403093D01*
X-4471500Y-4372500D01*
X-4471500Y7718234D01*
X158000Y7718234D01*
X158948Y7708612D01*
X170603Y7650017D01*
X177922Y7632349D01*
X222341Y7565870D01*
X235870Y7552341D01*
X302349Y7507922D01*
X320017Y7500603D01*
X378612Y7488948D01*
X388234Y7488000D01*
X900320Y7488000D01*
X913005Y7492122D01*
X916000Y7496243D01*
X916000Y7503680D01*
X1424000Y7503680D01*
X1428122Y7490995D01*
X1432243Y7488000D01*
X1951766Y7488000D01*
X1961388Y7488948D01*
X2019983Y7500603D01*
X2037651Y7507922D01*
X2104130Y7552341D01*
X2117659Y7565870D01*
X2162078Y7632349D01*
X2169397Y7650017D01*
X2177323Y7689866D01*
X2439500Y7689866D01*
X2446255Y7627684D01*
X2448435Y7621869D01*
X2493896Y7500603D01*
X2497385Y7491295D01*
X2584739Y7374739D01*
X2701295Y7287385D01*
X2837684Y7236255D01*
X2843856Y7235585D01*
X2843858Y7235584D01*
X2879837Y7231676D01*
X2899866Y7229500D01*
X4520134Y7229500D01*
X4540163Y7231676D01*
X4576142Y7235584D01*
X4576144Y7235585D01*
X4582316Y7236255D01*
X4718705Y7287385D01*
X4835261Y7374739D01*
X4839491Y7380383D01*
X4839495Y7380387D01*
X4900780Y7462159D01*
X4950808Y7497384D01*
X5011986Y7496476D01*
X5059220Y7462159D01*
X5120505Y7380387D01*
X5120509Y7380383D01*
X5124739Y7374739D01*
X5241295Y7287385D01*
X5377684Y7236255D01*
X5383856Y7235585D01*
X5383858Y7235584D01*
X5419837Y7231676D01*
X5439866Y7229500D01*
X7060134Y7229500D01*
X7080163Y7231676D01*
X7116142Y7235584D01*
X7116144Y7235585D01*
X7122316Y7236255D01*
X7258705Y7287385D01*
X7375261Y7374739D01*
X7462615Y7491295D01*
X7466105Y7500603D01*
X7511565Y7621869D01*
X7513745Y7627684D01*
X7520500Y7689866D01*
X43079500Y7689866D01*
X43086255Y7627684D01*
X43088435Y7621869D01*
X43133896Y7500603D01*
X43137385Y7491295D01*
X43224739Y7374739D01*
X43341295Y7287385D01*
X43477684Y7236255D01*
X43483856Y7235585D01*
X43483858Y7235584D01*
X43519837Y7231676D01*
X43539866Y7229500D01*
X45160134Y7229500D01*
X45180163Y7231676D01*
X45216142Y7235584D01*
X45216144Y7235585D01*
X45222316Y7236255D01*
X45358705Y7287385D01*
X45475261Y7374739D01*
X45479491Y7380383D01*
X45479495Y7380387D01*
X45540780Y7462159D01*
X45590808Y7497384D01*
X45651986Y7496476D01*
X45699220Y7462159D01*
X45760505Y7380387D01*
X45760509Y7380383D01*
X45764739Y7374739D01*
X45881295Y7287385D01*
X46017684Y7236255D01*
X46023856Y7235585D01*
X46023858Y7235584D01*
X46059837Y7231676D01*
X46079866Y7229500D01*
X47700134Y7229500D01*
X47720163Y7231676D01*
X47756142Y7235584D01*
X47756144Y7235585D01*
X47762316Y7236255D01*
X47898705Y7287385D01*
X48015261Y7374739D01*
X48102615Y7491295D01*
X48106105Y7500603D01*
X48151565Y7621869D01*
X48153745Y7627684D01*
X48160500Y7689866D01*
X48160500Y7718234D01*
X48418000Y7718234D01*
X48418948Y7708612D01*
X48430603Y7650017D01*
X48437922Y7632349D01*
X48482341Y7565870D01*
X48495870Y7552341D01*
X48562349Y7507922D01*
X48580017Y7500603D01*
X48638612Y7488948D01*
X48648234Y7488000D01*
X49160320Y7488000D01*
X49173005Y7492122D01*
X49176000Y7496243D01*
X49176000Y7503680D01*
X49684000Y7503680D01*
X49688122Y7490995D01*
X49692243Y7488000D01*
X50211766Y7488000D01*
X50221388Y7488948D01*
X50279983Y7500603D01*
X50297651Y7507922D01*
X50364130Y7552341D01*
X50377659Y7565870D01*
X50422078Y7632349D01*
X50429397Y7650017D01*
X50441052Y7708612D01*
X50442000Y7718234D01*
X50442000Y8230320D01*
X50437878Y8243005D01*
X50433757Y8246000D01*
X49699680Y8246000D01*
X49686995Y8241878D01*
X49684000Y8237757D01*
X49684000Y7503680D01*
X49176000Y7503680D01*
X49176000Y8230320D01*
X49171878Y8243005D01*
X49167757Y8246000D01*
X48433680Y8246000D01*
X48420995Y8241878D01*
X48418000Y8237757D01*
X48418000Y7718234D01*
X48160500Y7718234D01*
X48160500Y8769680D01*
X48418000Y8769680D01*
X48422122Y8756995D01*
X48426243Y8754000D01*
X49160320Y8754000D01*
X49173005Y8758122D01*
X49176000Y8762243D01*
X49176000Y8769680D01*
X49684000Y8769680D01*
X49688122Y8756995D01*
X49692243Y8754000D01*
X50426320Y8754000D01*
X50439005Y8758122D01*
X50442000Y8762243D01*
X50442000Y9281766D01*
X50441052Y9291388D01*
X50429397Y9349983D01*
X50422078Y9367651D01*
X50377659Y9434130D01*
X50364130Y9447659D01*
X50297651Y9492078D01*
X50279983Y9499397D01*
X50221388Y9511052D01*
X50211766Y9512000D01*
X49699680Y9512000D01*
X49686995Y9507878D01*
X49684000Y9503757D01*
X49684000Y8769680D01*
X49176000Y8769680D01*
X49176000Y9496320D01*
X49171878Y9509005D01*
X49167757Y9512000D01*
X48648234Y9512000D01*
X48638612Y9511052D01*
X48580017Y9499397D01*
X48562349Y9492078D01*
X48495870Y9447659D01*
X48482341Y9434130D01*
X48437922Y9367651D01*
X48430603Y9349983D01*
X48418948Y9291388D01*
X48418000Y9281766D01*
X48418000Y8769680D01*
X48160500Y8769680D01*
X48160500Y9310134D01*
X48153745Y9372316D01*
X48107258Y9496320D01*
X48105089Y9502106D01*
X48105089Y9502107D01*
X48102615Y9508705D01*
X48015261Y9625261D01*
X47898705Y9712615D01*
X47762316Y9763745D01*
X47756144Y9764415D01*
X47756142Y9764416D01*
X47720163Y9768324D01*
X47700134Y9770500D01*
X46079866Y9770500D01*
X46059837Y9768324D01*
X46023858Y9764416D01*
X46023856Y9764415D01*
X46017684Y9763745D01*
X45881295Y9712615D01*
X45764739Y9625261D01*
X45760509Y9619617D01*
X45760505Y9619613D01*
X45699220Y9537841D01*
X45649192Y9502616D01*
X45588014Y9503524D01*
X45540780Y9537841D01*
X45479495Y9619613D01*
X45479491Y9619617D01*
X45475261Y9625261D01*
X45358705Y9712615D01*
X45222316Y9763745D01*
X45216144Y9764415D01*
X45216142Y9764416D01*
X45180163Y9768324D01*
X45160134Y9770500D01*
X43539866Y9770500D01*
X43519837Y9768324D01*
X43483858Y9764416D01*
X43483856Y9764415D01*
X43477684Y9763745D01*
X43341295Y9712615D01*
X43224739Y9625261D01*
X43137385Y9508705D01*
X43134911Y9502107D01*
X43134911Y9502106D01*
X43132742Y9496320D01*
X43086255Y9372316D01*
X43079500Y9310134D01*
X43079500Y7689866D01*
X7520500Y7689866D01*
X7520500Y9310134D01*
X7513745Y9372316D01*
X7467258Y9496320D01*
X7465089Y9502106D01*
X7465089Y9502107D01*
X7462615Y9508705D01*
X7375261Y9625261D01*
X7258705Y9712615D01*
X7122316Y9763745D01*
X7116144Y9764415D01*
X7116142Y9764416D01*
X7080163Y9768324D01*
X7060134Y9770500D01*
X5439866Y9770500D01*
X5419837Y9768324D01*
X5383858Y9764416D01*
X5383856Y9764415D01*
X5377684Y9763745D01*
X5241295Y9712615D01*
X5124739Y9625261D01*
X5120509Y9619617D01*
X5120505Y9619613D01*
X5059220Y9537841D01*
X5009192Y9502616D01*
X4948014Y9503524D01*
X4900780Y9537841D01*
X4839495Y9619613D01*
X4839491Y9619617D01*
X4835261Y9625261D01*
X4718705Y9712615D01*
X4582316Y9763745D01*
X4576144Y9764415D01*
X4576142Y9764416D01*
X4540163Y9768324D01*
X4520134Y9770500D01*
X2899866Y9770500D01*
X2879837Y9768324D01*
X2843858Y9764416D01*
X2843856Y9764415D01*
X2837684Y9763745D01*
X2701295Y9712615D01*
X2584739Y9625261D01*
X2497385Y9508705D01*
X2494911Y9502107D01*
X2494911Y9502106D01*
X2492742Y9496320D01*
X2446255Y9372316D01*
X2439500Y9310134D01*
X2439500Y7689866D01*
X2177323Y7689866D01*
X2181052Y7708612D01*
X2182000Y7718234D01*
X2182000Y8230320D01*
X2177878Y8243005D01*
X2173757Y8246000D01*
X1439680Y8246000D01*
X1426995Y8241878D01*
X1424000Y8237757D01*
X1424000Y7503680D01*
X916000Y7503680D01*
X916000Y8230320D01*
X911878Y8243005D01*
X907757Y8246000D01*
X173680Y8246000D01*
X160995Y8241878D01*
X158000Y8237757D01*
X158000Y7718234D01*
X-4471500Y7718234D01*
X-4471500Y8769680D01*
X158000Y8769680D01*
X162122Y8756995D01*
X166243Y8754000D01*
X900320Y8754000D01*
X913005Y8758122D01*
X916000Y8762243D01*
X916000Y8769680D01*
X1424000Y8769680D01*
X1428122Y8756995D01*
X1432243Y8754000D01*
X2166320Y8754000D01*
X2179005Y8758122D01*
X2182000Y8762243D01*
X2182000Y9281766D01*
X2181052Y9291388D01*
X2169397Y9349983D01*
X2162078Y9367651D01*
X2117659Y9434130D01*
X2104130Y9447659D01*
X2037651Y9492078D01*
X2019983Y9499397D01*
X1961388Y9511052D01*
X1951766Y9512000D01*
X1439680Y9512000D01*
X1426995Y9507878D01*
X1424000Y9503757D01*
X1424000Y8769680D01*
X916000Y8769680D01*
X916000Y9496320D01*
X911878Y9509005D01*
X907757Y9512000D01*
X388234Y9512000D01*
X378612Y9511052D01*
X320017Y9499397D01*
X302349Y9492078D01*
X235870Y9447659D01*
X222341Y9434130D01*
X177922Y9367651D01*
X170603Y9349983D01*
X158948Y9291388D01*
X158000Y9281766D01*
X158000Y8769680D01*
X-4471500Y8769680D01*
X-4471500Y28317779D01*
X-2809451Y28317779D01*
X-2800001Y28274073D01*
X-2798382Y28264186D01*
X-2794198Y28226890D01*
X-2793397Y28219745D01*
X-2791578Y28214522D01*
X-2791577Y28214517D01*
X-2781826Y28186516D01*
X-2778555Y28174881D01*
X-2771119Y28140490D01*
X-2768780Y28135474D01*
X-2768779Y28135471D01*
X-2752219Y28099958D01*
X-2748451Y28090677D01*
X-2733745Y28048448D01*
X-2715093Y28018598D01*
X-2709337Y28007996D01*
X-2694462Y27976098D01*
X-2669584Y27944027D01*
X-2667061Y27940774D01*
X-2661327Y27932555D01*
X-2640558Y27899315D01*
X-2640554Y27899310D01*
X-2637626Y27894624D01*
X-2633728Y27890699D01*
X-2609109Y27865906D01*
X-2608413Y27865162D01*
X-2607922Y27864530D01*
X-2581932Y27838540D01*
X-2509815Y27765918D01*
X-2508802Y27765275D01*
X-2507491Y27764099D01*
X6521918Y18734690D01*
X6522647Y18733953D01*
X6585771Y18669493D01*
X6596818Y18662374D01*
X6623353Y18645273D01*
X6631487Y18639429D01*
X6666443Y18611524D01*
X6698129Y18596206D01*
X6708662Y18590295D01*
X6738238Y18571235D01*
X6743434Y18569344D01*
X6780256Y18555942D01*
X6789484Y18552043D01*
X6824762Y18534989D01*
X6824765Y18534988D01*
X6829748Y18532579D01*
X6864046Y18524661D01*
X6875618Y18521232D01*
X6903480Y18511091D01*
X6903484Y18511090D01*
X6908685Y18509197D01*
X6914177Y18508503D01*
X6914178Y18508503D01*
X6953052Y18503592D01*
X6962908Y18501837D01*
X7006485Y18491776D01*
X7046966Y18491635D01*
X7047965Y18491602D01*
X7048769Y18491500D01*
X7085514Y18491500D01*
X7085856Y18491499D01*
X7187870Y18491143D01*
X7189040Y18491405D01*
X7190802Y18491500D01*
X37990878Y18491500D01*
X37991916Y18491495D01*
X38082221Y18490549D01*
X38125936Y18500001D01*
X38135811Y18501618D01*
X38153413Y18503592D01*
X38174757Y18505986D01*
X38174759Y18505987D01*
X38180255Y18506603D01*
X38185478Y18508422D01*
X38185483Y18508423D01*
X38213484Y18518174D01*
X38225119Y18521445D01*
X38254096Y18527710D01*
X38254099Y18527711D01*
X38259510Y18528881D01*
X38264526Y18531220D01*
X38264529Y18531221D01*
X38300042Y18547781D01*
X38309323Y18551549D01*
X38317013Y18554227D01*
X38351552Y18566255D01*
X38381402Y18584907D01*
X38392004Y18590663D01*
X38423902Y18605538D01*
X38428275Y18608930D01*
X38428278Y18608932D01*
X38442579Y18620026D01*
X38459232Y18632943D01*
X38467445Y18638673D01*
X38500685Y18659442D01*
X38500690Y18659446D01*
X38505376Y18662374D01*
X38517032Y18673949D01*
X38534094Y18690891D01*
X38534838Y18691587D01*
X38535470Y18692078D01*
X38561460Y18718068D01*
X38578199Y18734690D01*
X38631646Y18787766D01*
X38634082Y18790185D01*
X38634725Y18791198D01*
X38635901Y18792509D01*
X47445310Y27601918D01*
X47446047Y27602647D01*
X47506554Y27661900D01*
X47510507Y27665771D01*
X47534727Y27703353D01*
X47540572Y27711488D01*
X47565023Y27742117D01*
X47565024Y27742119D01*
X47568476Y27746443D01*
X47583794Y27778129D01*
X47589705Y27788662D01*
X47605769Y27813589D01*
X47608765Y27818238D01*
X47624058Y27860256D01*
X47627957Y27869484D01*
X47645011Y27904762D01*
X47645012Y27904765D01*
X47647421Y27909748D01*
X47655339Y27944046D01*
X47658768Y27955618D01*
X47668909Y27983480D01*
X47668910Y27983484D01*
X47670803Y27988685D01*
X47676408Y28033052D01*
X47678164Y28042913D01*
X47682488Y28061642D01*
X47688224Y28086485D01*
X47688365Y28126966D01*
X47688398Y28127965D01*
X47688500Y28128769D01*
X47688500Y28165572D01*
X47688857Y28267870D01*
X47688595Y28269040D01*
X47688500Y28270802D01*
X47688500Y49943717D01*
X47707407Y50001908D01*
X47752748Y50036417D01*
X47882106Y50084911D01*
X47882107Y50084911D01*
X47888705Y50087385D01*
X48005261Y50174739D01*
X48009491Y50180383D01*
X48009495Y50180387D01*
X48070780Y50262159D01*
X48120808Y50297384D01*
X48181986Y50296476D01*
X48229220Y50262159D01*
X48290505Y50180387D01*
X48290509Y50180383D01*
X48294739Y50174739D01*
X48411295Y50087385D01*
X48417893Y50084911D01*
X48417894Y50084911D01*
X48472591Y50064406D01*
X48547684Y50036255D01*
X48553856Y50035585D01*
X48553858Y50035584D01*
X48589837Y50031676D01*
X48609866Y50029500D01*
X50230134Y50029500D01*
X50250163Y50031676D01*
X50286142Y50035584D01*
X50286144Y50035585D01*
X50292316Y50036255D01*
X50367409Y50064406D01*
X50422106Y50084911D01*
X50422107Y50084911D01*
X50428705Y50087385D01*
X50545261Y50174739D01*
X50632615Y50291295D01*
X50636105Y50300603D01*
X50681565Y50421869D01*
X50683745Y50427684D01*
X50690500Y50489866D01*
X50690500Y52110134D01*
X50683745Y52172316D01*
X50637258Y52296320D01*
X50635089Y52302106D01*
X50635089Y52302107D01*
X50632615Y52308705D01*
X50545261Y52425261D01*
X50428705Y52512615D01*
X50336853Y52547049D01*
X50298131Y52561565D01*
X50292316Y52563745D01*
X50286144Y52564415D01*
X50286142Y52564416D01*
X50250163Y52568324D01*
X50230134Y52570500D01*
X48609866Y52570500D01*
X48589837Y52568324D01*
X48553858Y52564416D01*
X48553856Y52564415D01*
X48547684Y52563745D01*
X48541869Y52561565D01*
X48503148Y52547049D01*
X48411295Y52512615D01*
X48294739Y52425261D01*
X48290509Y52419617D01*
X48290505Y52419613D01*
X48229220Y52337841D01*
X48179192Y52302616D01*
X48118014Y52303524D01*
X48070780Y52337841D01*
X48009495Y52419613D01*
X48009491Y52419617D01*
X48005261Y52425261D01*
X47888705Y52512615D01*
X47796853Y52547049D01*
X47758131Y52561565D01*
X47752316Y52563745D01*
X47746144Y52564415D01*
X47746142Y52564416D01*
X47710163Y52568324D01*
X47690134Y52570500D01*
X46069866Y52570500D01*
X46049837Y52568324D01*
X46013858Y52564416D01*
X46013856Y52564415D01*
X46007684Y52563745D01*
X46001869Y52561565D01*
X45963148Y52547049D01*
X45871295Y52512615D01*
X45754739Y52425261D01*
X45667385Y52308705D01*
X45664911Y52302107D01*
X45664911Y52302106D01*
X45662742Y52296320D01*
X45616255Y52172316D01*
X45609500Y52110134D01*
X45609500Y50489866D01*
X45616255Y50427684D01*
X45618435Y50421869D01*
X45663896Y50300603D01*
X45667385Y50291295D01*
X45754739Y50174739D01*
X45871295Y50087385D01*
X45877893Y50084911D01*
X45877894Y50084911D01*
X46007252Y50036417D01*
X46055103Y49998286D01*
X46071500Y49943717D01*
X46071500Y28555899D01*
X46052593Y28497708D01*
X46042504Y28485895D01*
X44077504Y26520895D01*
X44022987Y26493118D01*
X43962555Y26502689D01*
X43919290Y26545954D01*
X43908500Y26590898D01*
X43908499Y26761642D01*
X43908499Y26764884D01*
X43892838Y26883850D01*
X43881130Y26912116D01*
X43876329Y26973110D01*
X43881127Y26987877D01*
X43892838Y27016150D01*
X43893686Y27022587D01*
X43908077Y27131902D01*
X43908500Y27135115D01*
X43908499Y27414884D01*
X43892838Y27533850D01*
X43881130Y27562116D01*
X43876329Y27623110D01*
X43881127Y27637877D01*
X43892838Y27666150D01*
X43893686Y27672587D01*
X43908077Y27781902D01*
X43908500Y27785115D01*
X43908499Y28064884D01*
X43906366Y28081092D01*
X43895244Y28165572D01*
X43892838Y28183850D01*
X43859562Y28264186D01*
X43834009Y28325878D01*
X43834007Y28325882D01*
X43831524Y28331876D01*
X43733987Y28458987D01*
X43685154Y28496458D01*
X43650499Y28546883D01*
X43652101Y28608047D01*
X43685154Y28653542D01*
X43728838Y28687062D01*
X43733987Y28691013D01*
X43767657Y28734892D01*
X43827576Y28812979D01*
X43827578Y28812983D01*
X43831524Y28818125D01*
X43892838Y28966150D01*
X43908500Y29085115D01*
X43908499Y29364884D01*
X43892838Y29483850D01*
X43881130Y29512116D01*
X43876329Y29573110D01*
X43881127Y29587877D01*
X43892838Y29616150D01*
X43893686Y29622587D01*
X43908077Y29731902D01*
X43908500Y29735115D01*
X43908499Y30014884D01*
X43892838Y30133850D01*
X43881130Y30162116D01*
X43876329Y30223110D01*
X43881127Y30237877D01*
X43892838Y30266150D01*
X43893686Y30272586D01*
X43908077Y30381902D01*
X43908500Y30385115D01*
X43908499Y30664884D01*
X43892838Y30783850D01*
X43881130Y30812116D01*
X43876329Y30873110D01*
X43881127Y30887877D01*
X43892838Y30916150D01*
X43893686Y30922587D01*
X43908077Y31031902D01*
X43908500Y31035115D01*
X43908499Y31314884D01*
X43892838Y31433850D01*
X43866803Y31496705D01*
X43834009Y31575878D01*
X43834007Y31575882D01*
X43831524Y31581876D01*
X43733987Y31708987D01*
X43708234Y31728748D01*
X43612021Y31802576D01*
X43612017Y31802578D01*
X43606875Y31806524D01*
X43458850Y31867838D01*
X43339885Y31883500D01*
X42662605Y31883500D01*
X41985116Y31883499D01*
X41981905Y31883076D01*
X41981900Y31883076D01*
X41928780Y31876083D01*
X41866150Y31867838D01*
X41842998Y31858248D01*
X41724122Y31809009D01*
X41724119Y31809007D01*
X41718124Y31806524D01*
X41591013Y31708987D01*
X41587062Y31703838D01*
X41497424Y31587021D01*
X41497422Y31587017D01*
X41493476Y31581875D01*
X41432162Y31433850D01*
X41416500Y31314885D01*
X41416501Y31035116D01*
X41432162Y30916150D01*
X41443870Y30887884D01*
X41448671Y30826890D01*
X41443873Y30812123D01*
X41432162Y30783850D01*
X41431316Y30777422D01*
X41431315Y30777419D01*
X41430672Y30772534D01*
X41416500Y30664885D01*
X41416501Y30385116D01*
X41416924Y30381905D01*
X41416924Y30381900D01*
X41422207Y30341773D01*
X41432162Y30266150D01*
X41443870Y30237884D01*
X41448671Y30176890D01*
X41443873Y30162123D01*
X41432162Y30133850D01*
X41431316Y30127422D01*
X41431315Y30127419D01*
X41427230Y30096389D01*
X41416500Y30014885D01*
X41416501Y29735116D01*
X41416924Y29731905D01*
X41416924Y29731900D01*
X41423917Y29678780D01*
X41432162Y29616150D01*
X41443870Y29587884D01*
X41448671Y29526890D01*
X41443873Y29512123D01*
X41432162Y29483850D01*
X41431316Y29477422D01*
X41431315Y29477419D01*
X41428364Y29455000D01*
X41416500Y29364885D01*
X41416501Y29085116D01*
X41432162Y28966150D01*
X41434646Y28960154D01*
X41434647Y28960151D01*
X41490991Y28824122D01*
X41490993Y28824119D01*
X41493476Y28818124D01*
X41591013Y28691013D01*
X41596162Y28687062D01*
X41639846Y28653542D01*
X41674501Y28603117D01*
X41672899Y28541953D01*
X41639847Y28496459D01*
X41591013Y28458987D01*
X41587062Y28453838D01*
X41497424Y28337021D01*
X41497422Y28337017D01*
X41493476Y28331875D01*
X41432162Y28183850D01*
X41416500Y28064885D01*
X41416501Y27785116D01*
X41416924Y27781905D01*
X41416924Y27781900D01*
X41423917Y27728780D01*
X41432162Y27666150D01*
X41443870Y27637884D01*
X41448671Y27576890D01*
X41443873Y27562123D01*
X41432162Y27533850D01*
X41431316Y27527422D01*
X41431315Y27527419D01*
X41416989Y27418599D01*
X41416500Y27414885D01*
X41416501Y27135116D01*
X41432162Y27016150D01*
X41443870Y26987884D01*
X41448671Y26926890D01*
X41443873Y26912123D01*
X41432162Y26883850D01*
X41431316Y26877422D01*
X41431315Y26877419D01*
X41420120Y26792383D01*
X41416500Y26764885D01*
X41416501Y26485116D01*
X41432162Y26366150D01*
X41434646Y26360153D01*
X41434647Y26360151D01*
X41490991Y26224122D01*
X41490993Y26224119D01*
X41493476Y26218124D01*
X41591013Y26091013D01*
X41596162Y26087062D01*
X41712979Y25997424D01*
X41712983Y25997422D01*
X41718125Y25993476D01*
X41866150Y25932162D01*
X41985115Y25916500D01*
X42025389Y25916500D01*
X43234102Y25916501D01*
X43292293Y25897594D01*
X43328257Y25848094D01*
X43328257Y25786908D01*
X43304106Y25747497D01*
X37694104Y20137496D01*
X37639587Y20109719D01*
X37624100Y20108500D01*
X31687919Y20108500D01*
X31629728Y20127407D01*
X31593764Y20176907D01*
X31595219Y20242252D01*
X31629565Y20333869D01*
X31631745Y20339684D01*
X31638500Y20401866D01*
X31638500Y24098134D01*
X31631745Y24160316D01*
X31580615Y24296705D01*
X31493261Y24413261D01*
X31376705Y24500615D01*
X31240316Y24551745D01*
X31234144Y24552415D01*
X31234142Y24552416D01*
X31198163Y24556324D01*
X31178134Y24558500D01*
X28401866Y24558500D01*
X28381837Y24556324D01*
X28345858Y24552416D01*
X28345856Y24552415D01*
X28339684Y24551745D01*
X28203295Y24500615D01*
X28086739Y24413261D01*
X27999385Y24296705D01*
X27948255Y24160316D01*
X27941500Y24098134D01*
X27941500Y20401866D01*
X27948255Y20339684D01*
X27950435Y20333869D01*
X27984781Y20242252D01*
X27987504Y20181127D01*
X27953778Y20130076D01*
X27892081Y20108500D01*
X22707919Y20108500D01*
X22649728Y20127407D01*
X22613764Y20176907D01*
X22615219Y20242252D01*
X22649565Y20333869D01*
X22651745Y20339684D01*
X22658500Y20401866D01*
X22658500Y24001866D01*
X22986500Y24001866D01*
X22993255Y23939684D01*
X23044385Y23803295D01*
X23131739Y23686739D01*
X23248295Y23599385D01*
X23384684Y23548255D01*
X23390856Y23547585D01*
X23390858Y23547584D01*
X23426837Y23543676D01*
X23446866Y23541500D01*
X24153134Y23541500D01*
X24173163Y23543676D01*
X24209142Y23547584D01*
X24209144Y23547585D01*
X24215316Y23548255D01*
X24265248Y23566974D01*
X24326372Y23569697D01*
X24334750Y23566975D01*
X24384684Y23548255D01*
X24390856Y23547585D01*
X24390858Y23547584D01*
X24426837Y23543676D01*
X24446866Y23541500D01*
X25153134Y23541500D01*
X25173163Y23543676D01*
X25209142Y23547584D01*
X25209144Y23547585D01*
X25215316Y23548255D01*
X25265248Y23566974D01*
X25326372Y23569697D01*
X25334750Y23566975D01*
X25384684Y23548255D01*
X25390856Y23547585D01*
X25390858Y23547584D01*
X25426837Y23543676D01*
X25446866Y23541500D01*
X26153134Y23541500D01*
X26173163Y23543676D01*
X26209142Y23547584D01*
X26209144Y23547585D01*
X26215316Y23548255D01*
X26265248Y23566974D01*
X26326372Y23569697D01*
X26334750Y23566975D01*
X26384684Y23548255D01*
X26390856Y23547585D01*
X26390858Y23547584D01*
X26426837Y23543676D01*
X26446866Y23541500D01*
X27153134Y23541500D01*
X27173163Y23543676D01*
X27209142Y23547584D01*
X27209144Y23547585D01*
X27215316Y23548255D01*
X27351705Y23599385D01*
X27468261Y23686739D01*
X27555615Y23803295D01*
X27606745Y23939684D01*
X27613500Y24001866D01*
X27613500Y26098134D01*
X27606745Y26160316D01*
X27555615Y26296705D01*
X27468261Y26413261D01*
X27351705Y26500615D01*
X27215316Y26551745D01*
X27209144Y26552415D01*
X27209142Y26552416D01*
X27173163Y26556324D01*
X27153134Y26558500D01*
X26446866Y26558500D01*
X26426837Y26556324D01*
X26390858Y26552416D01*
X26390856Y26552415D01*
X26384684Y26551745D01*
X26378869Y26549565D01*
X26334752Y26533026D01*
X26273628Y26530303D01*
X26265248Y26533026D01*
X26221131Y26549565D01*
X26215316Y26551745D01*
X26209144Y26552415D01*
X26209142Y26552416D01*
X26173163Y26556324D01*
X26153134Y26558500D01*
X25446866Y26558500D01*
X25426837Y26556324D01*
X25390858Y26552416D01*
X25390856Y26552415D01*
X25384684Y26551745D01*
X25378869Y26549565D01*
X25334752Y26533026D01*
X25273628Y26530303D01*
X25265248Y26533026D01*
X25221131Y26549565D01*
X25215316Y26551745D01*
X25209144Y26552415D01*
X25209142Y26552416D01*
X25173163Y26556324D01*
X25153134Y26558500D01*
X24446866Y26558500D01*
X24426837Y26556324D01*
X24390858Y26552416D01*
X24390856Y26552415D01*
X24384684Y26551745D01*
X24378869Y26549565D01*
X24334752Y26533026D01*
X24273628Y26530303D01*
X24265248Y26533026D01*
X24221131Y26549565D01*
X24215316Y26551745D01*
X24209144Y26552415D01*
X24209142Y26552416D01*
X24173163Y26556324D01*
X24153134Y26558500D01*
X23446866Y26558500D01*
X23426837Y26556324D01*
X23390858Y26552416D01*
X23390856Y26552415D01*
X23384684Y26551745D01*
X23248295Y26500615D01*
X23131739Y26413261D01*
X23044385Y26296705D01*
X22993255Y26160316D01*
X22986500Y26098134D01*
X22986500Y24001866D01*
X22658500Y24001866D01*
X22658500Y24098134D01*
X22651745Y24160316D01*
X22600615Y24296705D01*
X22513261Y24413261D01*
X22396705Y24500615D01*
X22260316Y24551745D01*
X22254144Y24552415D01*
X22254142Y24552416D01*
X22218163Y24556324D01*
X22198134Y24558500D01*
X19421866Y24558500D01*
X19401837Y24556324D01*
X19365858Y24552416D01*
X19365856Y24552415D01*
X19359684Y24551745D01*
X19223295Y24500615D01*
X19106739Y24413261D01*
X19019385Y24296705D01*
X18968255Y24160316D01*
X18961500Y24098134D01*
X18961500Y20401866D01*
X18968255Y20339684D01*
X18970435Y20333869D01*
X19004781Y20242252D01*
X19007504Y20181127D01*
X18973778Y20130076D01*
X18912081Y20108500D01*
X7475899Y20108500D01*
X7417708Y20127407D01*
X7405895Y20137496D01*
X-1162504Y28705896D01*
X-1190281Y28760413D01*
X-1191500Y28775900D01*
X-1191500Y30488554D01*
X-1172593Y30546745D01*
X-1123093Y30582709D01*
X-1061907Y30582709D01*
X-1022558Y30558619D01*
X-945643Y30481838D01*
X-925653Y30461883D01*
X-850991Y30415861D01*
X-801111Y30385115D01*
X-776329Y30369839D01*
X-770872Y30368029D01*
X-770870Y30368028D01*
X-679443Y30337703D01*
X-609835Y30314615D01*
X-506231Y30304000D01*
X-3769Y30304000D01*
X506230Y30304001D01*
X611129Y30314884D01*
X616270Y30316599D01*
X772069Y30368577D01*
X772072Y30368578D01*
X777526Y30370398D01*
X782412Y30373422D01*
X782417Y30373424D01*
X787688Y30376686D01*
X839782Y30391500D01*
X2049769Y30391500D01*
X2196833Y30405920D01*
X2386169Y30463084D01*
X2560796Y30555934D01*
X2564548Y30558994D01*
X2564551Y30558996D01*
X2638391Y30619219D01*
X2700962Y30641500D01*
X3948134Y30641500D01*
X3968163Y30643676D01*
X4004142Y30647584D01*
X4004144Y30647585D01*
X4010316Y30648255D01*
X4146705Y30699385D01*
X4263261Y30786739D01*
X4350615Y30903295D01*
X4401745Y31039684D01*
X4408500Y31101866D01*
X4408500Y31130000D01*
X4427407Y31188191D01*
X4476907Y31224155D01*
X4507500Y31229000D01*
X5514619Y31229000D01*
X5525311Y31228421D01*
X5559570Y31224699D01*
X5559574Y31224699D01*
X5564388Y31224176D01*
X5615219Y31228623D01*
X5619931Y31228829D01*
X5619928Y31228882D01*
X5622336Y31229000D01*
X5624769Y31229000D01*
X5667663Y31233206D01*
X5668633Y31233296D01*
X5761413Y31241413D01*
X5766009Y31242748D01*
X5767036Y31242946D01*
X5767075Y31242953D01*
X5771833Y31243420D01*
X5776468Y31244819D01*
X5776471Y31244820D01*
X5860930Y31270319D01*
X5861922Y31270613D01*
X5885913Y31277583D01*
X5951336Y31296591D01*
X5955586Y31298794D01*
X5955622Y31298809D01*
X5956584Y31299200D01*
X5961169Y31300584D01*
X6043404Y31344308D01*
X6044321Y31344789D01*
X6122628Y31385380D01*
X6122629Y31385380D01*
X6126926Y31387608D01*
X6130657Y31390586D01*
X6130711Y31390622D01*
X6131564Y31391184D01*
X6135796Y31393434D01*
X6198066Y31444220D01*
X6260636Y31466501D01*
X6306230Y31466501D01*
X6411129Y31477384D01*
X6446298Y31489117D01*
X6572068Y31531077D01*
X6572069Y31531077D01*
X6577526Y31532898D01*
X6582413Y31535922D01*
X6582417Y31535924D01*
X6721799Y31622177D01*
X6726689Y31625203D01*
X6730752Y31629273D01*
X6818161Y31716834D01*
X6841493Y31728748D01*
X6851447Y31750693D01*
X6939644Y31893776D01*
X6939645Y31893778D01*
X6942661Y31898671D01*
X6965627Y31967909D01*
X6996183Y32060034D01*
X6997885Y32065165D01*
X7008500Y32168769D01*
X7008499Y32756230D01*
X6997616Y32861129D01*
X6957140Y32982453D01*
X6943923Y33022068D01*
X6943923Y33022069D01*
X6942102Y33027526D01*
X6939078Y33032413D01*
X6939076Y33032417D01*
X6852823Y33171799D01*
X6849797Y33176689D01*
X6814104Y33212320D01*
X6786280Y33266810D01*
X6795798Y33327250D01*
X6839024Y33370553D01*
X6852740Y33376303D01*
X7768090Y33681420D01*
X7799397Y33686500D01*
X8327000Y33686500D01*
X8385191Y33667593D01*
X8421155Y33618093D01*
X8421155Y33556907D01*
X8402575Y33523552D01*
X8351177Y33462809D01*
X7759099Y32763081D01*
X7753666Y32757192D01*
X7750087Y32754270D01*
X7747002Y32750536D01*
X7685767Y32676427D01*
X7685067Y32675589D01*
X7658214Y32643853D01*
X7656842Y32641867D01*
X7655365Y32639938D01*
X7655344Y32639954D01*
X7652240Y32635849D01*
X7617864Y32594245D01*
X7608825Y32577504D01*
X7598673Y32558702D01*
X7593015Y32549470D01*
X7579530Y32529948D01*
X7570063Y32516244D01*
X7548591Y32466713D01*
X7544883Y32459078D01*
X7519241Y32411587D01*
X7517812Y32406960D01*
X7517810Y32406956D01*
X7507324Y32373008D01*
X7503566Y32362850D01*
X7489425Y32330231D01*
X7489421Y32330218D01*
X7487500Y32325787D01*
X7486476Y32321065D01*
X7486474Y32321059D01*
X7476060Y32273035D01*
X7473903Y32264813D01*
X7457976Y32213251D01*
X7457474Y32208444D01*
X7457473Y32208441D01*
X7453778Y32173084D01*
X7452065Y32162394D01*
X7444532Y32127658D01*
X7444531Y32127653D01*
X7443505Y32122920D01*
X7443417Y32118080D01*
X7443417Y32118076D01*
X7442529Y32068966D01*
X7442009Y32060466D01*
X7441079Y32051567D01*
X7441100Y32048798D01*
X7441404Y32008630D01*
X7441391Y32006090D01*
X7440965Y31982551D01*
X7439750Y31915372D01*
X7440729Y31909910D01*
X7442279Y31893197D01*
X7442543Y31858248D01*
X7424076Y31799916D01*
X7374849Y31763579D01*
X7343546Y31758500D01*
X7301866Y31758500D01*
X7281837Y31756324D01*
X7245858Y31752416D01*
X7245856Y31752415D01*
X7239684Y31751745D01*
X7233869Y31749565D01*
X7123643Y31708243D01*
X7103295Y31700615D01*
X7097658Y31696390D01*
X7097652Y31696387D01*
X6995096Y31619525D01*
X6978585Y31613888D01*
X6967445Y31587518D01*
X6903613Y31502348D01*
X6903610Y31502343D01*
X6899385Y31496705D01*
X6896911Y31490107D01*
X6896911Y31490106D01*
X6878071Y31439849D01*
X6848255Y31360316D01*
X6847585Y31354144D01*
X6847584Y31354142D01*
X6846516Y31344308D01*
X6841500Y31298134D01*
X6841500Y29807500D01*
X6822593Y29749309D01*
X6773093Y29713345D01*
X6742500Y29708500D01*
X4489784Y29708500D01*
X4431593Y29727407D01*
X4397084Y29772749D01*
X4353090Y29890103D01*
X4350615Y29896705D01*
X4263261Y30013261D01*
X4146705Y30100615D01*
X4075222Y30127413D01*
X4049100Y30137206D01*
X4010316Y30151745D01*
X4004144Y30152415D01*
X4004142Y30152416D01*
X3968163Y30156324D01*
X3948134Y30158500D01*
X2051866Y30158500D01*
X2031837Y30156324D01*
X1995858Y30152416D01*
X1995856Y30152415D01*
X1989684Y30151745D01*
X1950900Y30137206D01*
X1924779Y30127413D01*
X1853295Y30100615D01*
X1736739Y30013261D01*
X1649385Y29896705D01*
X1646911Y29890107D01*
X1646911Y29890106D01*
X1612794Y29799100D01*
X1598255Y29760316D01*
X1597585Y29754144D01*
X1597584Y29754142D01*
X1595869Y29738356D01*
X1591500Y29698134D01*
X1591500Y27101866D01*
X1598255Y27039684D01*
X1600435Y27033869D01*
X1623213Y26973110D01*
X1649385Y26903295D01*
X1736739Y26786739D01*
X1853295Y26699385D01*
X1989684Y26648255D01*
X1995856Y26647585D01*
X1995858Y26647584D01*
X2031837Y26643676D01*
X2051866Y26641500D01*
X3948134Y26641500D01*
X3968163Y26643676D01*
X4004142Y26647584D01*
X4004144Y26647585D01*
X4010316Y26648255D01*
X4146705Y26699385D01*
X4263261Y26786739D01*
X4350615Y26903295D01*
X4376788Y26973110D01*
X4399565Y27033869D01*
X4401745Y27039684D01*
X4408500Y27101866D01*
X4408500Y27592500D01*
X4427407Y27650691D01*
X4476907Y27686655D01*
X4507500Y27691500D01*
X6742500Y27691500D01*
X6800691Y27672593D01*
X6836655Y27623093D01*
X6841500Y27592500D01*
X6841500Y26101866D01*
X6848255Y26039684D01*
X6899385Y25903295D01*
X6986739Y25786739D01*
X7103295Y25699385D01*
X7239684Y25648255D01*
X7245856Y25647585D01*
X7245858Y25647584D01*
X7281837Y25643676D01*
X7301866Y25641500D01*
X9748134Y25641500D01*
X9768163Y25643676D01*
X9804142Y25647584D01*
X9804144Y25647585D01*
X9810316Y25648255D01*
X9946705Y25699385D01*
X10063261Y25786739D01*
X10150615Y25903295D01*
X10201745Y26039684D01*
X10208500Y26101866D01*
X10208500Y31298134D01*
X10203484Y31344308D01*
X10202416Y31354142D01*
X10202415Y31354144D01*
X10201745Y31360316D01*
X10171929Y31439849D01*
X10153089Y31490106D01*
X10153089Y31490107D01*
X10150615Y31496705D01*
X10063261Y31613261D01*
X9946705Y31700615D01*
X9856136Y31734568D01*
X9840363Y31740481D01*
X9792512Y31778612D01*
X9776213Y31837586D01*
X9799539Y31897127D01*
X10061274Y32206450D01*
X10113294Y32238657D01*
X10136848Y32241500D01*
X10441451Y32241500D01*
X10476203Y32235200D01*
X10522428Y32217871D01*
X10565025Y32201902D01*
X10571197Y32201232D01*
X10571199Y32201231D01*
X10607178Y32197323D01*
X10627207Y32195147D01*
X10955911Y32195147D01*
X11014102Y32176240D01*
X11050066Y32126740D01*
X11054911Y32096147D01*
X11054911Y31529392D01*
X11048611Y31494641D01*
X10998255Y31360316D01*
X10997585Y31354144D01*
X10997584Y31354142D01*
X10996516Y31344308D01*
X10991500Y31298134D01*
X10991500Y26101866D01*
X10998255Y26039684D01*
X11049385Y25903295D01*
X11053610Y25897658D01*
X11053613Y25897652D01*
X11068057Y25878380D01*
X11082771Y25850272D01*
X11112702Y25760343D01*
X11191720Y25637388D01*
X11238213Y25583732D01*
X11348673Y25488018D01*
X11355110Y25485078D01*
X11355112Y25485077D01*
X11478411Y25428768D01*
X11478416Y25428766D01*
X11481622Y25427302D01*
X11549743Y25407300D01*
X11694412Y25386500D01*
X13874000Y25386500D01*
X13947377Y25394388D01*
X13980527Y25397952D01*
X13980529Y25397952D01*
X13983149Y25398234D01*
X13985719Y25398793D01*
X13985725Y25398794D01*
X14014520Y25405058D01*
X14035491Y25409620D01*
X14139657Y25444290D01*
X14262612Y25523308D01*
X14316268Y25569801D01*
X14411982Y25680261D01*
X14442688Y25747497D01*
X14471232Y25809999D01*
X14471234Y25810004D01*
X14472698Y25813210D01*
X14492700Y25881331D01*
X14513500Y26026000D01*
X14513500Y26764885D01*
X35691500Y26764885D01*
X35691501Y26485116D01*
X35707162Y26366150D01*
X35709646Y26360153D01*
X35709647Y26360151D01*
X35765991Y26224122D01*
X35765993Y26224119D01*
X35768476Y26218124D01*
X35866013Y26091013D01*
X35871162Y26087062D01*
X35987979Y25997424D01*
X35987983Y25997422D01*
X35993125Y25993476D01*
X36141150Y25932162D01*
X36260115Y25916500D01*
X36937395Y25916500D01*
X37614884Y25916501D01*
X37618095Y25916924D01*
X37618100Y25916924D01*
X37671220Y25923917D01*
X37733850Y25932162D01*
X37784928Y25953319D01*
X37875878Y25990991D01*
X37875881Y25990993D01*
X37881876Y25993476D01*
X38008987Y26091013D01*
X38015275Y26099207D01*
X38102576Y26212979D01*
X38102578Y26212983D01*
X38106524Y26218125D01*
X38167838Y26366150D01*
X38183500Y26485115D01*
X38183499Y26764884D01*
X38167838Y26883850D01*
X38156130Y26912116D01*
X38151329Y26973110D01*
X38156127Y26987877D01*
X38167838Y27016150D01*
X38168686Y27022587D01*
X38183077Y27131902D01*
X38183500Y27135115D01*
X38183499Y27414884D01*
X38167838Y27533850D01*
X38156130Y27562116D01*
X38151329Y27623110D01*
X38156127Y27637877D01*
X38167838Y27666150D01*
X38168686Y27672587D01*
X38183077Y27781902D01*
X38183500Y27785115D01*
X38183499Y28064884D01*
X38181366Y28081092D01*
X38170244Y28165572D01*
X38167838Y28183850D01*
X38156130Y28212116D01*
X38151329Y28273110D01*
X38156127Y28287877D01*
X38167838Y28316150D01*
X38168686Y28322587D01*
X38183077Y28431902D01*
X38183500Y28435115D01*
X38183499Y28714884D01*
X38177506Y28760413D01*
X38175467Y28775900D01*
X38167838Y28833850D01*
X38156130Y28862116D01*
X38151329Y28923110D01*
X38156127Y28937877D01*
X38167838Y28966150D01*
X38168686Y28972586D01*
X38183077Y29081902D01*
X38183500Y29085115D01*
X38183499Y29364884D01*
X38167838Y29483850D01*
X38124777Y29587809D01*
X38109009Y29625878D01*
X38109007Y29625882D01*
X38106524Y29631876D01*
X38008987Y29758987D01*
X37960154Y29796458D01*
X37925499Y29846883D01*
X37927101Y29908047D01*
X37960154Y29953542D01*
X37964063Y29956541D01*
X38008987Y29991013D01*
X38027305Y30014885D01*
X38102576Y30112979D01*
X38102578Y30112983D01*
X38106524Y30118125D01*
X38167838Y30266150D01*
X38183500Y30385115D01*
X38183499Y30664884D01*
X38167838Y30783850D01*
X38156130Y30812116D01*
X38151329Y30873110D01*
X38156127Y30887877D01*
X38167838Y30916150D01*
X38168686Y30922587D01*
X38183077Y31031902D01*
X38183500Y31035115D01*
X38183499Y31314884D01*
X38167838Y31433850D01*
X38141803Y31496705D01*
X38109009Y31575878D01*
X38109007Y31575882D01*
X38106524Y31581876D01*
X38008987Y31708987D01*
X37983234Y31728748D01*
X37887021Y31802576D01*
X37887017Y31802578D01*
X37881875Y31806524D01*
X37733850Y31867838D01*
X37614885Y31883500D01*
X36937605Y31883500D01*
X36260116Y31883499D01*
X36256905Y31883076D01*
X36256900Y31883076D01*
X36203780Y31876083D01*
X36141150Y31867838D01*
X36117998Y31858248D01*
X35999122Y31809009D01*
X35999119Y31809007D01*
X35993124Y31806524D01*
X35866013Y31708987D01*
X35862062Y31703838D01*
X35772424Y31587021D01*
X35772422Y31587017D01*
X35768476Y31581875D01*
X35707162Y31433850D01*
X35691500Y31314885D01*
X35691501Y31035116D01*
X35707162Y30916150D01*
X35718870Y30887884D01*
X35723671Y30826890D01*
X35718873Y30812123D01*
X35707162Y30783850D01*
X35706316Y30777422D01*
X35706315Y30777419D01*
X35705672Y30772534D01*
X35691500Y30664885D01*
X35691501Y30385116D01*
X35691924Y30381905D01*
X35691924Y30381900D01*
X35697207Y30341773D01*
X35707162Y30266150D01*
X35709646Y30260154D01*
X35709647Y30260151D01*
X35765991Y30124122D01*
X35765993Y30124119D01*
X35768476Y30118124D01*
X35866013Y29991013D01*
X35871162Y29987062D01*
X35914846Y29953542D01*
X35949501Y29903117D01*
X35947899Y29841953D01*
X35914847Y29796459D01*
X35866013Y29758987D01*
X35862062Y29753838D01*
X35772424Y29637021D01*
X35772422Y29637017D01*
X35768476Y29631875D01*
X35707162Y29483850D01*
X35691500Y29364885D01*
X35691501Y29085116D01*
X35707162Y28966150D01*
X35718870Y28937884D01*
X35723671Y28876890D01*
X35718873Y28862123D01*
X35707162Y28833850D01*
X35706316Y28827422D01*
X35706315Y28827419D01*
X35704414Y28812979D01*
X35691500Y28714885D01*
X35691501Y28435116D01*
X35691924Y28431905D01*
X35691924Y28431900D01*
X35695059Y28408085D01*
X35707162Y28316150D01*
X35718870Y28287884D01*
X35723671Y28226890D01*
X35718873Y28212123D01*
X35707162Y28183850D01*
X35706316Y28177422D01*
X35706315Y28177419D01*
X35696117Y28099958D01*
X35691500Y28064885D01*
X35691501Y27785116D01*
X35691924Y27781905D01*
X35691924Y27781900D01*
X35698917Y27728780D01*
X35707162Y27666150D01*
X35718870Y27637884D01*
X35723671Y27576890D01*
X35718873Y27562123D01*
X35707162Y27533850D01*
X35706316Y27527422D01*
X35706315Y27527419D01*
X35691989Y27418599D01*
X35691500Y27414885D01*
X35691501Y27135116D01*
X35707162Y27016150D01*
X35718870Y26987884D01*
X35723671Y26926890D01*
X35718873Y26912123D01*
X35707162Y26883850D01*
X35706316Y26877422D01*
X35706315Y26877419D01*
X35695120Y26792383D01*
X35691500Y26764885D01*
X14513500Y26764885D01*
X14513500Y28643459D01*
X14532407Y28701650D01*
X14581907Y28737614D01*
X14643093Y28737614D01*
X14682504Y28713463D01*
X14696674Y28699293D01*
X14798556Y28622937D01*
X14810809Y28616229D01*
X14930819Y28571239D01*
X14942807Y28568388D01*
X14994354Y28562789D01*
X14999688Y28562500D01*
X15230320Y28562500D01*
X15243005Y28566622D01*
X15246000Y28570743D01*
X15246000Y28578181D01*
X15754000Y28578181D01*
X15758122Y28565496D01*
X15762243Y28562501D01*
X16000309Y28562501D01*
X16005649Y28562790D01*
X16057194Y28568389D01*
X16069179Y28571238D01*
X16189191Y28616229D01*
X16201444Y28622937D01*
X16303326Y28699293D01*
X16313207Y28709174D01*
X16389563Y28811056D01*
X16396271Y28823309D01*
X16441261Y28943319D01*
X16444112Y28955307D01*
X16449711Y29006854D01*
X16450000Y29012188D01*
X16450000Y29030320D01*
X16445878Y29043005D01*
X16441757Y29046000D01*
X15769680Y29046000D01*
X15756995Y29041878D01*
X15754000Y29037757D01*
X15754000Y28578181D01*
X15246000Y28578181D01*
X15246000Y29455000D01*
X15264907Y29513191D01*
X15314407Y29549155D01*
X15345000Y29554000D01*
X16434319Y29554000D01*
X16447004Y29558122D01*
X16449999Y29562243D01*
X16449999Y29587809D01*
X16449710Y29593149D01*
X16444111Y29644694D01*
X16441262Y29656679D01*
X16396271Y29776691D01*
X16389563Y29788944D01*
X16313207Y29890826D01*
X16303326Y29900707D01*
X16201444Y29977063D01*
X16189191Y29983771D01*
X16123297Y30008474D01*
X16075446Y30046605D01*
X16059147Y30105580D01*
X16080625Y30162871D01*
X16126718Y30195085D01*
X16141451Y30200000D01*
X16277526Y30245398D01*
X16282413Y30248422D01*
X16282417Y30248424D01*
X16421799Y30334677D01*
X16426689Y30337703D01*
X16550617Y30461847D01*
X16642661Y30611171D01*
X16645331Y30619219D01*
X16696183Y30772534D01*
X16697885Y30777665D01*
X16708500Y30881269D01*
X16708499Y31468730D01*
X16697616Y31573629D01*
X16655253Y31700609D01*
X16643923Y31734568D01*
X16643923Y31734569D01*
X16642102Y31740026D01*
X16639078Y31744913D01*
X16639076Y31744917D01*
X16552823Y31884299D01*
X16549797Y31889189D01*
X16540299Y31898671D01*
X16470939Y31967910D01*
X16442558Y31996242D01*
X16423533Y32033498D01*
X28491500Y32033498D01*
X28494438Y31996169D01*
X28540855Y31836399D01*
X28587095Y31758211D01*
X28621158Y31700615D01*
X28625547Y31693193D01*
X28743193Y31575547D01*
X28886399Y31490855D01*
X29046169Y31444438D01*
X29051211Y31444041D01*
X29051212Y31444041D01*
X29057892Y31443515D01*
X29083498Y31441500D01*
X30241502Y31441500D01*
X30267108Y31443515D01*
X30273788Y31444041D01*
X30273789Y31444041D01*
X30278831Y31444438D01*
X30438601Y31490855D01*
X30581807Y31575547D01*
X30699453Y31693193D01*
X30703843Y31700615D01*
X30737905Y31758211D01*
X30784145Y31836399D01*
X30830562Y31996169D01*
X30832486Y32020608D01*
X30833284Y32030753D01*
X30856699Y32087281D01*
X30908868Y32119250D01*
X30969865Y32114449D01*
X31016391Y32074712D01*
X31029760Y32038470D01*
X31038616Y31982551D01*
X31043373Y31967909D01*
X31093823Y31868894D01*
X31102865Y31856449D01*
X31181449Y31777865D01*
X31193894Y31768823D01*
X31292912Y31718371D01*
X31307547Y31713616D01*
X31389673Y31700609D01*
X31397412Y31700000D01*
X31667820Y31700000D01*
X31680505Y31704122D01*
X31683500Y31708243D01*
X31683500Y31715681D01*
X32191500Y31715681D01*
X32195622Y31702996D01*
X32199743Y31700001D01*
X32477585Y31700001D01*
X32485329Y31700611D01*
X32567449Y31713616D01*
X32582091Y31718373D01*
X32681106Y31768823D01*
X32693551Y31777865D01*
X32772135Y31856449D01*
X32781177Y31868894D01*
X32831628Y31967910D01*
X32835951Y31981214D01*
X32833975Y31993687D01*
X32833198Y31994464D01*
X32826798Y31996000D01*
X32207180Y31996000D01*
X32194495Y31991878D01*
X32191500Y31987757D01*
X32191500Y31715681D01*
X31683500Y31715681D01*
X31683500Y32292500D01*
X31702407Y32350691D01*
X31751907Y32386655D01*
X31782500Y32391500D01*
X32516502Y32391500D01*
X32542108Y32393515D01*
X32548788Y32394041D01*
X32548789Y32394041D01*
X32553831Y32394438D01*
X32713601Y32440855D01*
X32807961Y32496660D01*
X32827764Y32505602D01*
X32838014Y32508932D01*
X32849822Y32521117D01*
X32851446Y32522376D01*
X32856807Y32525547D01*
X32974453Y32643193D01*
X33059145Y32786399D01*
X33066354Y32811211D01*
X33087992Y32885691D01*
X33105562Y32946169D01*
X33108500Y32983498D01*
X33108500Y33416502D01*
X33105562Y33453831D01*
X33066584Y33587997D01*
X33060884Y33607616D01*
X33060883Y33607618D01*
X33059145Y33613601D01*
X33052638Y33624604D01*
X33039290Y33684315D01*
X33052638Y33725397D01*
X33055973Y33731036D01*
X33059145Y33736399D01*
X33066094Y33760316D01*
X33104150Y33891310D01*
X33105562Y33896169D01*
X33108500Y33933498D01*
X33108500Y34366502D01*
X33105562Y34403831D01*
X33059145Y34563601D01*
X32974453Y34706807D01*
X32856807Y34824453D01*
X32848764Y34829210D01*
X32727657Y34900832D01*
X32713601Y34909145D01*
X32553831Y34955562D01*
X32548789Y34955959D01*
X32548788Y34955959D01*
X32542108Y34956485D01*
X32516502Y34958500D01*
X31358498Y34958500D01*
X31332892Y34956485D01*
X31326212Y34955959D01*
X31326211Y34955959D01*
X31321169Y34955562D01*
X31161399Y34909145D01*
X31147343Y34900832D01*
X31026237Y34829210D01*
X31018193Y34824453D01*
X30900547Y34706807D01*
X30897376Y34701445D01*
X30885213Y34680878D01*
X30839317Y34640416D01*
X30778403Y34634658D01*
X30725739Y34665805D01*
X30714787Y34680878D01*
X30702624Y34701445D01*
X30699453Y34706807D01*
X30581807Y34824453D01*
X30573764Y34829210D01*
X30452657Y34900832D01*
X30438601Y34909145D01*
X30278831Y34955562D01*
X30273789Y34955959D01*
X30273788Y34955959D01*
X30267108Y34956485D01*
X30241502Y34958500D01*
X29083498Y34958500D01*
X29057892Y34956485D01*
X29051212Y34955959D01*
X29051211Y34955959D01*
X29046169Y34955562D01*
X28886399Y34909145D01*
X28872343Y34900832D01*
X28751237Y34829210D01*
X28743193Y34824453D01*
X28625547Y34706807D01*
X28540855Y34563601D01*
X28494438Y34403831D01*
X28491500Y34366502D01*
X28491500Y33933498D01*
X28494438Y33896169D01*
X28540855Y33736399D01*
X28625547Y33593193D01*
X28743193Y33475547D01*
X28748557Y33472375D01*
X28748558Y33472374D01*
X28779913Y33453831D01*
X28886399Y33390855D01*
X29046169Y33344438D01*
X29051211Y33344041D01*
X29051212Y33344041D01*
X29057892Y33343515D01*
X29083498Y33341500D01*
X30241502Y33341500D01*
X30267108Y33343515D01*
X30273788Y33344041D01*
X30273789Y33344041D01*
X30278831Y33344438D01*
X30438601Y33390855D01*
X30545087Y33453831D01*
X30576442Y33472374D01*
X30576443Y33472375D01*
X30581807Y33475547D01*
X30597689Y33491429D01*
X30652206Y33519206D01*
X30712638Y33509635D01*
X30755903Y33466370D01*
X30766591Y33417664D01*
X30766500Y33416502D01*
X30766500Y32983498D01*
X30766590Y32982357D01*
X30750004Y32923566D01*
X30701951Y32885691D01*
X30640812Y32883294D01*
X30597689Y32908571D01*
X30581807Y32924453D01*
X30553304Y32941310D01*
X30485248Y32981558D01*
X30438601Y33009145D01*
X30278831Y33055562D01*
X30273789Y33055959D01*
X30273788Y33055959D01*
X30267108Y33056485D01*
X30241502Y33058500D01*
X29083498Y33058500D01*
X29057892Y33056485D01*
X29051212Y33055959D01*
X29051211Y33055959D01*
X29046169Y33055562D01*
X28886399Y33009145D01*
X28839752Y32981558D01*
X28771697Y32941310D01*
X28743193Y32924453D01*
X28625547Y32806807D01*
X28540855Y32663601D01*
X28539117Y32657620D01*
X28539117Y32657619D01*
X28532792Y32635848D01*
X28494438Y32503831D01*
X28491500Y32466502D01*
X28491500Y32033498D01*
X16423533Y32033498D01*
X16414732Y32050734D01*
X16413500Y32066306D01*
X16413499Y33835101D01*
X16413499Y33837748D01*
X16403414Y33931558D01*
X16402047Y33944275D01*
X16402047Y33944277D01*
X16401765Y33946897D01*
X16400396Y33953194D01*
X16390940Y33996659D01*
X16390379Y33999239D01*
X16355709Y34103405D01*
X16276691Y34226360D01*
X16230198Y34280016D01*
X16119738Y34375730D01*
X16113301Y34378670D01*
X16113299Y34378671D01*
X15990000Y34434980D01*
X15989995Y34434982D01*
X15986789Y34436446D01*
X15918668Y34456448D01*
X15773999Y34477248D01*
X13747811Y34477248D01*
X13689620Y34496155D01*
X13653656Y34545655D01*
X13653656Y34606841D01*
X13668611Y34635648D01*
X13685295Y34657893D01*
X13685308Y34657910D01*
X13685600Y34658300D01*
X13696461Y34673340D01*
X13696729Y34673725D01*
X13701383Y34680421D01*
X13701413Y34680465D01*
X13701659Y34680819D01*
X13711982Y34696261D01*
X13718809Y34711211D01*
X13771232Y34825999D01*
X13771234Y34826004D01*
X13772698Y34829210D01*
X13792700Y34897331D01*
X13813500Y35042000D01*
X13813500Y36474000D01*
X13802389Y36577353D01*
X13802048Y36580527D01*
X13802048Y36580529D01*
X13801766Y36583149D01*
X13790380Y36635491D01*
X13755710Y36739657D01*
X13676692Y36862612D01*
X13630199Y36916268D01*
X13519739Y37011982D01*
X13513302Y37014922D01*
X13513300Y37014923D01*
X13390001Y37071232D01*
X13389996Y37071234D01*
X13386790Y37072698D01*
X13318669Y37092700D01*
X13174000Y37113500D01*
X12626000Y37113500D01*
X12570105Y37107491D01*
X12519473Y37102048D01*
X12519471Y37102048D01*
X12516851Y37101766D01*
X12514281Y37101207D01*
X12514275Y37101206D01*
X12485480Y37094942D01*
X12464509Y37090380D01*
X12360343Y37055710D01*
X12237388Y36976692D01*
X12183732Y36930199D01*
X12088018Y36819739D01*
X12085078Y36813302D01*
X12085077Y36813300D01*
X12038807Y36711982D01*
X12027302Y36686790D01*
X12007300Y36618669D01*
X11986500Y36474000D01*
X11986500Y35778647D01*
X11967593Y35720456D01*
X11918093Y35684492D01*
X11887500Y35679647D01*
X10441021Y35679647D01*
X10428336Y35675525D01*
X10425341Y35671404D01*
X10425341Y35656059D01*
X10406434Y35597868D01*
X10356934Y35561904D01*
X10326504Y35557059D01*
X8717296Y35554413D01*
X7947967Y35553148D01*
X7889745Y35571960D01*
X7878885Y35581076D01*
X7237267Y36203327D01*
X10425341Y36203327D01*
X10429463Y36190642D01*
X10433584Y36187647D01*
X10730661Y36187647D01*
X10743346Y36191769D01*
X10746341Y36195890D01*
X10746341Y36203327D01*
X11254341Y36203327D01*
X11258463Y36190642D01*
X11262584Y36187647D01*
X11680661Y36187647D01*
X11693346Y36191769D01*
X11696341Y36195890D01*
X11696341Y36777967D01*
X11692219Y36790652D01*
X11688098Y36793647D01*
X11605575Y36793647D01*
X11595953Y36792699D01*
X11537361Y36781045D01*
X11513226Y36771048D01*
X11452229Y36766249D01*
X11437456Y36771048D01*
X11413321Y36781045D01*
X11354729Y36792699D01*
X11345107Y36793647D01*
X11270021Y36793647D01*
X11257336Y36789525D01*
X11254341Y36785404D01*
X11254341Y36203327D01*
X10746341Y36203327D01*
X10746341Y36777967D01*
X10742219Y36790652D01*
X10738098Y36793647D01*
X10655575Y36793647D01*
X10645953Y36792699D01*
X10587358Y36781044D01*
X10569690Y36773725D01*
X10503211Y36729306D01*
X10489682Y36715777D01*
X10445263Y36649298D01*
X10437944Y36631630D01*
X10426289Y36573035D01*
X10425341Y36563413D01*
X10425341Y36203327D01*
X7237267Y36203327D01*
X6794149Y36633070D01*
X6755792Y36666736D01*
X6736193Y36682284D01*
X6694675Y36711982D01*
X6656741Y36729306D01*
X6564937Y36771232D01*
X6564932Y36771234D01*
X6561726Y36772698D01*
X6493605Y36792700D01*
X6448576Y36799174D01*
X6431494Y36803201D01*
X6426695Y36804793D01*
X6377417Y36841061D01*
X6358868Y36899367D01*
X6378133Y36957440D01*
X6423114Y36991458D01*
X6489191Y37016229D01*
X6501444Y37022937D01*
X6603326Y37099293D01*
X6613207Y37109174D01*
X6689563Y37211056D01*
X6696271Y37223309D01*
X6741261Y37343319D01*
X6744112Y37355307D01*
X6749711Y37406854D01*
X6750000Y37412193D01*
X6750000Y37430320D01*
X6745878Y37443005D01*
X6741757Y37446000D01*
X4865681Y37446000D01*
X4852996Y37441878D01*
X4850001Y37437757D01*
X4850001Y37412193D01*
X4850290Y37406851D01*
X4855889Y37355306D01*
X4858738Y37343321D01*
X4903729Y37223309D01*
X4910437Y37211056D01*
X4986793Y37109174D01*
X4996674Y37099293D01*
X5098556Y37022937D01*
X5110811Y37016228D01*
X5143619Y37003929D01*
X5191470Y36965799D01*
X5207770Y36906824D01*
X5186292Y36849532D01*
X5135241Y36815807D01*
X5119450Y36812796D01*
X5019473Y36802048D01*
X5019471Y36802048D01*
X5016851Y36801766D01*
X5014281Y36801207D01*
X5014275Y36801206D01*
X4985480Y36794942D01*
X4964509Y36790380D01*
X4860343Y36755710D01*
X4737388Y36676692D01*
X4683732Y36630199D01*
X4588018Y36519739D01*
X4585078Y36513302D01*
X4585077Y36513300D01*
X4534192Y36401876D01*
X4527302Y36386790D01*
X4507300Y36318669D01*
X4486500Y36174000D01*
X4486500Y34012567D01*
X4467593Y33954376D01*
X4418093Y33918412D01*
X4356907Y33918412D01*
X4308280Y33953194D01*
X4267495Y34007613D01*
X4267491Y34007617D01*
X4263261Y34013261D01*
X4146705Y34100615D01*
X4081656Y34125001D01*
X4016131Y34149565D01*
X4010316Y34151745D01*
X4004144Y34152415D01*
X4004142Y34152416D01*
X3968163Y34156324D01*
X3948134Y34158500D01*
X3654039Y34158500D01*
X3595848Y34177407D01*
X3559884Y34226907D01*
X3560073Y34288666D01*
X3597885Y34402665D01*
X3608500Y34506269D01*
X3608499Y35093730D01*
X3597616Y35198629D01*
X3590760Y35219181D01*
X3543923Y35359568D01*
X3543923Y35359569D01*
X3542102Y35365026D01*
X3539078Y35369913D01*
X3539076Y35369917D01*
X3452823Y35509299D01*
X3449797Y35514189D01*
X3325653Y35638117D01*
X3320759Y35641134D01*
X3320756Y35641136D01*
X3301047Y35653285D01*
X3261433Y35699915D01*
X3256792Y35760924D01*
X3288899Y35813009D01*
X3300901Y35821745D01*
X3321799Y35834677D01*
X3326689Y35837703D01*
X3450617Y35961847D01*
X3505714Y36051231D01*
X3539644Y36106276D01*
X3539645Y36106278D01*
X3542661Y36111171D01*
X3562326Y36170457D01*
X3596183Y36272534D01*
X3597885Y36277665D01*
X3608500Y36381269D01*
X3608499Y36968730D01*
X3597616Y37073629D01*
X3592028Y37090380D01*
X3543923Y37234568D01*
X3543923Y37234569D01*
X3542102Y37240026D01*
X3539078Y37244913D01*
X3539076Y37244917D01*
X3452823Y37384299D01*
X3449797Y37389189D01*
X3325653Y37513117D01*
X3176329Y37605161D01*
X3170872Y37606971D01*
X3170870Y37606972D01*
X3047370Y37647935D01*
X3009835Y37660385D01*
X2906231Y37671000D01*
X2403769Y37671000D01*
X1893770Y37670999D01*
X1788871Y37660116D01*
X1783731Y37658401D01*
X1783730Y37658401D01*
X1665115Y37618828D01*
X1622474Y37604602D01*
X1617587Y37601578D01*
X1617583Y37601576D01*
X1478200Y37515323D01*
X1478197Y37515320D01*
X1473311Y37512297D01*
X1417617Y37456506D01*
X1398701Y37437557D01*
X1344209Y37409732D01*
X1328637Y37408500D01*
X1131037Y37408500D01*
X1072846Y37427407D01*
X1053452Y37446006D01*
X1052821Y37446802D01*
X1049797Y37451689D01*
X925653Y37575617D01*
X855552Y37618828D01*
X815937Y37665458D01*
X808500Y37703104D01*
X808500Y37969680D01*
X4850000Y37969680D01*
X4854122Y37956995D01*
X4858243Y37954000D01*
X5530320Y37954000D01*
X5543005Y37958122D01*
X5546000Y37962243D01*
X5546000Y37969680D01*
X6054000Y37969680D01*
X6058122Y37956995D01*
X6062243Y37954000D01*
X6734319Y37954000D01*
X6747004Y37958122D01*
X6749999Y37962243D01*
X6749999Y37987809D01*
X6749710Y37993149D01*
X6744111Y38044694D01*
X6741262Y38056679D01*
X6696271Y38176691D01*
X6689563Y38188944D01*
X6613207Y38290826D01*
X6603326Y38300707D01*
X6501444Y38377063D01*
X6489191Y38383771D01*
X6369181Y38428761D01*
X6357193Y38431612D01*
X6305646Y38437211D01*
X6300312Y38437500D01*
X6069680Y38437500D01*
X6056995Y38433378D01*
X6054000Y38429257D01*
X6054000Y37969680D01*
X5546000Y37969680D01*
X5546000Y38421819D01*
X5541878Y38434504D01*
X5537757Y38437499D01*
X5299691Y38437499D01*
X5294351Y38437210D01*
X5242806Y38431611D01*
X5230821Y38428762D01*
X5110809Y38383771D01*
X5098556Y38377063D01*
X4996674Y38300707D01*
X4986793Y38290826D01*
X4910437Y38188944D01*
X4903729Y38176691D01*
X4858739Y38056681D01*
X4855888Y38044693D01*
X4850289Y37993146D01*
X4850000Y37987812D01*
X4850000Y37969680D01*
X808500Y37969680D01*
X808500Y38624100D01*
X827407Y38682291D01*
X837496Y38694104D01*
X2580583Y40437191D01*
X37250001Y40437191D01*
X37250290Y40431851D01*
X37255889Y40380306D01*
X37258738Y40368321D01*
X37303729Y40248309D01*
X37310437Y40236056D01*
X37386793Y40134174D01*
X37396674Y40124293D01*
X37498556Y40047937D01*
X37510809Y40041229D01*
X37630819Y39996239D01*
X37642807Y39993388D01*
X37694354Y39987789D01*
X37699688Y39987500D01*
X37930320Y39987500D01*
X37943005Y39991622D01*
X37946000Y39995743D01*
X37946000Y40003181D01*
X38454000Y40003181D01*
X38458122Y39990496D01*
X38462243Y39987501D01*
X38700309Y39987501D01*
X38705649Y39987790D01*
X38757194Y39993389D01*
X38769179Y39996238D01*
X38889191Y40041229D01*
X38901444Y40047937D01*
X39003326Y40124293D01*
X39013207Y40134174D01*
X39089563Y40236056D01*
X39096271Y40248309D01*
X39141261Y40368319D01*
X39144112Y40380307D01*
X39149711Y40431854D01*
X39150000Y40437188D01*
X39150000Y40455320D01*
X39145878Y40468005D01*
X39141757Y40471000D01*
X38469680Y40471000D01*
X38456995Y40466878D01*
X38454000Y40462757D01*
X38454000Y40003181D01*
X37946000Y40003181D01*
X37946000Y40455320D01*
X37941878Y40468005D01*
X37937757Y40471000D01*
X37265681Y40471000D01*
X37252996Y40466878D01*
X37250001Y40462757D01*
X37250001Y40437191D01*
X2580583Y40437191D01*
X2618083Y40474691D01*
X41550001Y40474691D01*
X41550290Y40469351D01*
X41555889Y40417806D01*
X41558738Y40405821D01*
X41603729Y40285809D01*
X41610437Y40273556D01*
X41686793Y40171674D01*
X41696674Y40161793D01*
X41798556Y40085437D01*
X41810809Y40078729D01*
X41930819Y40033739D01*
X41942807Y40030888D01*
X41994354Y40025289D01*
X41999688Y40025000D01*
X42230320Y40025000D01*
X42243005Y40029122D01*
X42246000Y40033243D01*
X42246000Y40040681D01*
X42754000Y40040681D01*
X42758122Y40027996D01*
X42762243Y40025001D01*
X43000309Y40025001D01*
X43005649Y40025290D01*
X43057194Y40030889D01*
X43069179Y40033738D01*
X43189191Y40078729D01*
X43201444Y40085437D01*
X43303326Y40161793D01*
X43313207Y40171674D01*
X43389563Y40273556D01*
X43396271Y40285809D01*
X43441261Y40405819D01*
X43444112Y40417807D01*
X43449711Y40469354D01*
X43450000Y40474688D01*
X43450000Y40492820D01*
X43445878Y40505505D01*
X43441757Y40508500D01*
X42769680Y40508500D01*
X42756995Y40504378D01*
X42754000Y40500257D01*
X42754000Y40040681D01*
X42246000Y40040681D01*
X42246000Y40492820D01*
X42241878Y40505505D01*
X42237757Y40508500D01*
X41565681Y40508500D01*
X41552996Y40504378D01*
X41550001Y40500257D01*
X41550001Y40474691D01*
X2618083Y40474691D01*
X4265310Y42121918D01*
X4266047Y42122647D01*
X4326554Y42181900D01*
X4330507Y42185771D01*
X4354727Y42223353D01*
X4360572Y42231488D01*
X4371794Y42245545D01*
X4388476Y42266443D01*
X4403791Y42298124D01*
X4409707Y42308666D01*
X4425768Y42333588D01*
X4428765Y42338238D01*
X4444060Y42380260D01*
X4447956Y42389483D01*
X4465011Y42424764D01*
X4467421Y42429749D01*
X4468665Y42435138D01*
X4468669Y42435149D01*
X4475337Y42464032D01*
X4478769Y42475620D01*
X4488909Y42503481D01*
X4488909Y42503482D01*
X4490803Y42508685D01*
X4496408Y42553052D01*
X4498164Y42562913D01*
X4508224Y42606485D01*
X4508365Y42646966D01*
X4508398Y42647965D01*
X4508500Y42648769D01*
X4508500Y42685572D01*
X4508857Y42787870D01*
X4508595Y42789040D01*
X4508500Y42790802D01*
X4508500Y46837191D01*
X6750001Y46837191D01*
X6750290Y46831851D01*
X6755889Y46780306D01*
X6758738Y46768321D01*
X6803729Y46648309D01*
X6810437Y46636056D01*
X6886793Y46534174D01*
X6896674Y46524293D01*
X6998556Y46447937D01*
X7010809Y46441229D01*
X7130819Y46396239D01*
X7142807Y46393388D01*
X7194354Y46387789D01*
X7199688Y46387500D01*
X7430320Y46387500D01*
X7443005Y46391622D01*
X7446000Y46395743D01*
X7446000Y46403181D01*
X7954000Y46403181D01*
X7958122Y46390496D01*
X7962243Y46387501D01*
X8200309Y46387501D01*
X8205649Y46387790D01*
X8257194Y46393389D01*
X8269179Y46396238D01*
X8389191Y46441229D01*
X8401444Y46447937D01*
X8503326Y46524293D01*
X8513207Y46534174D01*
X8589563Y46636056D01*
X8596271Y46648309D01*
X8641261Y46768319D01*
X8642776Y46774691D01*
X10450001Y46774691D01*
X10450290Y46769351D01*
X10455889Y46717806D01*
X10458738Y46705821D01*
X10503729Y46585809D01*
X10510437Y46573556D01*
X10586793Y46471674D01*
X10596674Y46461793D01*
X10698556Y46385437D01*
X10710809Y46378729D01*
X10830819Y46333739D01*
X10842807Y46330888D01*
X10894354Y46325289D01*
X10899688Y46325000D01*
X11130320Y46325000D01*
X11143005Y46329122D01*
X11146000Y46333243D01*
X11146000Y46792820D01*
X11141878Y46805505D01*
X11137757Y46808500D01*
X10465681Y46808500D01*
X10452996Y46804378D01*
X10450001Y46800257D01*
X10450001Y46774691D01*
X8642776Y46774691D01*
X8644112Y46780307D01*
X8649711Y46831854D01*
X8650000Y46837188D01*
X8650000Y46855320D01*
X8645878Y46868005D01*
X8641757Y46871000D01*
X7969680Y46871000D01*
X7956995Y46866878D01*
X7954000Y46862757D01*
X7954000Y46403181D01*
X7446000Y46403181D01*
X7446000Y46855320D01*
X7441878Y46868005D01*
X7437757Y46871000D01*
X6765681Y46871000D01*
X6752996Y46866878D01*
X6750001Y46862757D01*
X6750001Y46837191D01*
X4508500Y46837191D01*
X4508500Y49943717D01*
X4527407Y50001908D01*
X4572748Y50036417D01*
X4702106Y50084911D01*
X4702107Y50084911D01*
X4708705Y50087385D01*
X4825261Y50174739D01*
X4829491Y50180383D01*
X4829495Y50180387D01*
X4890780Y50262159D01*
X4940808Y50297384D01*
X5001986Y50296476D01*
X5049220Y50262159D01*
X5110505Y50180387D01*
X5110509Y50180383D01*
X5114739Y50174739D01*
X5231295Y50087385D01*
X5237893Y50084911D01*
X5237894Y50084911D01*
X5292591Y50064406D01*
X5367684Y50036255D01*
X5373856Y50035585D01*
X5373858Y50035584D01*
X5409837Y50031676D01*
X5429866Y50029500D01*
X6735789Y50029500D01*
X6793980Y50010593D01*
X6829944Y49961093D01*
X6829944Y49899907D01*
X6793980Y49850407D01*
X6787885Y49846316D01*
X6773311Y49837297D01*
X6649383Y49713153D01*
X6610858Y49650653D01*
X6562101Y49571554D01*
X6557339Y49563829D01*
X6555529Y49558372D01*
X6555528Y49558370D01*
X6534798Y49495870D01*
X6502115Y49397335D01*
X6491500Y49293731D01*
X6491501Y48706270D01*
X6502384Y48601371D01*
X6504099Y48596231D01*
X6504099Y48596230D01*
X6539153Y48491161D01*
X6557898Y48434974D01*
X6560922Y48430087D01*
X6560924Y48430083D01*
X6617368Y48338871D01*
X6650203Y48285811D01*
X6774347Y48161883D01*
X6923671Y48069839D01*
X6929128Y48068029D01*
X7073302Y48020208D01*
X7122581Y47983942D01*
X7141132Y47925637D01*
X7121869Y47867563D01*
X7076886Y47833542D01*
X7010809Y47808771D01*
X6998556Y47802063D01*
X6896674Y47725707D01*
X6886793Y47715826D01*
X6810437Y47613944D01*
X6803729Y47601691D01*
X6758739Y47481681D01*
X6755888Y47469693D01*
X6750289Y47418146D01*
X6750000Y47412812D01*
X6750000Y47394680D01*
X6754122Y47381995D01*
X6758243Y47379000D01*
X8634319Y47379000D01*
X8647004Y47383122D01*
X8649999Y47387243D01*
X8649999Y47412809D01*
X8649710Y47418149D01*
X8644111Y47469694D01*
X8641262Y47481679D01*
X8596271Y47601691D01*
X8589563Y47613944D01*
X8513207Y47715826D01*
X8503326Y47725707D01*
X8401444Y47802063D01*
X8389191Y47808771D01*
X8323297Y47833474D01*
X8275446Y47871605D01*
X8259147Y47930580D01*
X8280625Y47987871D01*
X8326718Y48020085D01*
X8371347Y48034974D01*
X8477526Y48070398D01*
X8482413Y48073422D01*
X8482417Y48073424D01*
X8621799Y48159677D01*
X8626689Y48162703D01*
X8632752Y48168776D01*
X8746554Y48282777D01*
X8750617Y48286847D01*
X8806762Y48377932D01*
X8839644Y48431276D01*
X8839645Y48431278D01*
X8842661Y48436171D01*
X8845182Y48443770D01*
X8886021Y48566897D01*
X8897885Y48602665D01*
X8908500Y48706269D01*
X8908499Y49165521D01*
X8927406Y49223712D01*
X8937495Y49235525D01*
X9261187Y49559217D01*
X9266111Y49563816D01*
X9305888Y49598516D01*
X9310385Y49602439D01*
X9347532Y49655294D01*
X9350595Y49659420D01*
X9390477Y49710282D01*
X9394351Y49718861D01*
X9403579Y49735040D01*
X9405175Y49737311D01*
X9408990Y49742739D01*
X9432457Y49802929D01*
X9434465Y49807705D01*
X9458589Y49861135D01*
X9461045Y49866574D01*
X9462132Y49872438D01*
X9462133Y49872442D01*
X9462760Y49875825D01*
X9467863Y49893739D01*
X9469114Y49896948D01*
X9469115Y49896950D01*
X9471282Y49902509D01*
X9476668Y49943422D01*
X9503009Y49998647D01*
X9556779Y50027842D01*
X9574821Y50029500D01*
X9590134Y50029500D01*
X9610163Y50031676D01*
X9646142Y50035584D01*
X9646144Y50035585D01*
X9652316Y50036255D01*
X9727409Y50064406D01*
X9782106Y50084911D01*
X9782107Y50084911D01*
X9788705Y50087385D01*
X9905261Y50174739D01*
X9909491Y50180383D01*
X9909495Y50180387D01*
X9970780Y50262159D01*
X10020808Y50297384D01*
X10081986Y50296476D01*
X10129220Y50262159D01*
X10190505Y50180387D01*
X10190509Y50180383D01*
X10194739Y50174739D01*
X10311295Y50087385D01*
X10317893Y50084911D01*
X10317894Y50084911D01*
X10372591Y50064406D01*
X10447684Y50036255D01*
X10453856Y50035585D01*
X10453858Y50035584D01*
X10489837Y50031676D01*
X10509866Y50029500D01*
X10512542Y50029500D01*
X10515219Y50029355D01*
X10515180Y50028629D01*
X10570691Y50010593D01*
X10606655Y49961093D01*
X10611500Y49930500D01*
X10611500Y49915470D01*
X10592593Y49857279D01*
X10564596Y49831286D01*
X10473311Y49774797D01*
X10349383Y49650653D01*
X10257339Y49501329D01*
X10255529Y49495872D01*
X10255528Y49495870D01*
X10224547Y49402466D01*
X10202115Y49334835D01*
X10191500Y49231231D01*
X10191501Y48643770D01*
X10202384Y48538871D01*
X10204099Y48533731D01*
X10204099Y48533730D01*
X10247759Y48402864D01*
X10257898Y48372474D01*
X10260922Y48367587D01*
X10260924Y48367583D01*
X10311527Y48285811D01*
X10350203Y48223311D01*
X10474347Y48099383D01*
X10479242Y48096366D01*
X10611431Y48014884D01*
X10623671Y48007339D01*
X10629128Y48005529D01*
X10773302Y47957708D01*
X10822581Y47921442D01*
X10841132Y47863137D01*
X10821869Y47805063D01*
X10776886Y47771042D01*
X10710809Y47746271D01*
X10698556Y47739563D01*
X10596674Y47663207D01*
X10586793Y47653326D01*
X10510437Y47551444D01*
X10503729Y47539191D01*
X10458739Y47419181D01*
X10455888Y47407193D01*
X10450289Y47355646D01*
X10450000Y47350312D01*
X10450000Y47332180D01*
X10454122Y47319495D01*
X10458243Y47316500D01*
X11555000Y47316500D01*
X11613191Y47297593D01*
X11649155Y47248093D01*
X11654000Y47217500D01*
X11654000Y46340681D01*
X11658122Y46327996D01*
X11662243Y46325001D01*
X11692778Y46325001D01*
X11750969Y46306094D01*
X11786933Y46256594D01*
X11790304Y46243022D01*
X11797901Y46199493D01*
X11798658Y46194365D01*
X11800771Y46176907D01*
X11806418Y46130238D01*
X11808526Y46124660D01*
X11808527Y46124655D01*
X11809742Y46121440D01*
X11814659Y46103467D01*
X11816277Y46094196D01*
X11824698Y46075013D01*
X11842242Y46035047D01*
X11844200Y46030251D01*
X11867033Y45969824D01*
X11872364Y45962067D01*
X11881420Y45945797D01*
X11885205Y45937175D01*
X11888841Y45932437D01*
X11924529Y45885928D01*
X11927577Y45881733D01*
X11964163Y45828499D01*
X12011259Y45786538D01*
X12015405Y45782625D01*
X13779224Y44018805D01*
X13783823Y44013881D01*
X13822439Y43969615D01*
X13827321Y43966184D01*
X13827323Y43966182D01*
X13875280Y43932477D01*
X13879439Y43929388D01*
X13925583Y43893207D01*
X13925591Y43893202D01*
X13930282Y43889524D01*
X13935720Y43887069D01*
X13938855Y43885653D01*
X13955042Y43876420D01*
X13957854Y43874443D01*
X13957857Y43874442D01*
X13962739Y43871010D01*
X14022953Y43847534D01*
X14027687Y43845543D01*
X14086573Y43818955D01*
X14092439Y43817868D01*
X14092442Y43817867D01*
X14095815Y43817242D01*
X14113748Y43812134D01*
X14122509Y43808718D01*
X14186572Y43800284D01*
X14191674Y43799476D01*
X14210630Y43795963D01*
X14249313Y43788793D01*
X14249317Y43788793D01*
X14255186Y43787705D01*
X14313754Y43791082D01*
X14318161Y43791336D01*
X14323860Y43791500D01*
X21272001Y43791500D01*
X21278734Y43791271D01*
X21337352Y43787275D01*
X21352904Y43789989D01*
X21366280Y43792323D01*
X21394140Y43791814D01*
X21394277Y43793121D01*
X21399438Y43792579D01*
X21404513Y43791500D01*
X21595487Y43791500D01*
X21749158Y43824164D01*
X21777217Y43830128D01*
X21777218Y43830128D01*
X21782288Y43831206D01*
X21787022Y43833314D01*
X21787026Y43833315D01*
X21866825Y43868844D01*
X21956752Y43908882D01*
X22111253Y44021134D01*
X22114719Y44024983D01*
X22114723Y44024987D01*
X22235568Y44159200D01*
X22239040Y44163056D01*
X22267256Y44211927D01*
X22331933Y44323950D01*
X22331935Y44323955D01*
X22334527Y44328444D01*
X22377013Y44459200D01*
X22391940Y44505140D01*
X22391941Y44505145D01*
X22393542Y44510072D01*
X22413504Y44700000D01*
X22393542Y44889928D01*
X22391941Y44894855D01*
X22391940Y44894860D01*
X22346712Y45034054D01*
X22334527Y45071556D01*
X22331935Y45076045D01*
X22331933Y45076050D01*
X22252859Y45213009D01*
X22239040Y45236944D01*
X22161567Y45322987D01*
X22114723Y45375013D01*
X22114719Y45375017D01*
X22111253Y45378866D01*
X21956752Y45491118D01*
X21817448Y45553140D01*
X21787026Y45566685D01*
X21787022Y45566686D01*
X21782288Y45568794D01*
X21777218Y45569872D01*
X21777217Y45569872D01*
X21742083Y45577340D01*
X21595487Y45608500D01*
X21404513Y45608500D01*
X21257917Y45577340D01*
X21222783Y45569872D01*
X21222782Y45569872D01*
X21217712Y45568794D01*
X21128204Y45528943D01*
X21067356Y45522547D01*
X21014368Y45553140D01*
X20995322Y45590506D01*
X20993542Y45589928D01*
X20961706Y45687909D01*
X20934527Y45771556D01*
X20931935Y45776045D01*
X20931933Y45776050D01*
X20863027Y45895398D01*
X20839040Y45936944D01*
X20823792Y45953879D01*
X20714723Y46075013D01*
X20714719Y46075017D01*
X20711253Y46078866D01*
X20556752Y46191118D01*
X20440173Y46243022D01*
X20387026Y46266685D01*
X20387022Y46266686D01*
X20382288Y46268794D01*
X20377218Y46269872D01*
X20377217Y46269872D01*
X20342083Y46277340D01*
X20195487Y46308500D01*
X20190296Y46308500D01*
X20185140Y46309042D01*
X20185384Y46311367D01*
X20136018Y46327407D01*
X20100054Y46376907D01*
X20097499Y46426502D01*
X20097885Y46427665D01*
X20108500Y46531269D01*
X20108499Y47118730D01*
X20097616Y47223629D01*
X20086585Y47256695D01*
X20043923Y47384568D01*
X20043923Y47384569D01*
X20042102Y47390026D01*
X20039078Y47394913D01*
X20039076Y47394917D01*
X19952823Y47534299D01*
X19949797Y47539189D01*
X19917889Y47571042D01*
X19835461Y47653326D01*
X19825653Y47663117D01*
X19820759Y47666134D01*
X19820756Y47666136D01*
X19801047Y47678285D01*
X19761433Y47724915D01*
X19756792Y47785924D01*
X19788899Y47838009D01*
X19800901Y47846745D01*
X19821799Y47859677D01*
X19826689Y47862703D01*
X19855678Y47891742D01*
X19888653Y47924775D01*
X19950617Y47986847D01*
X20003633Y48072856D01*
X20039644Y48131276D01*
X20039645Y48131278D01*
X20042661Y48136171D01*
X20051190Y48161883D01*
X20094262Y48291742D01*
X20097885Y48302665D01*
X20108500Y48406269D01*
X20108499Y48993730D01*
X20097616Y49098629D01*
X20090816Y49119013D01*
X20043923Y49259568D01*
X20043923Y49259569D01*
X20042102Y49265026D01*
X20039078Y49269913D01*
X20039076Y49269917D01*
X19952823Y49409299D01*
X19949797Y49414189D01*
X19923618Y49440323D01*
X19857602Y49506224D01*
X19825653Y49538117D01*
X19713381Y49607322D01*
X19695552Y49618312D01*
X19655937Y49664942D01*
X19648500Y49702588D01*
X19648500Y49930500D01*
X19667407Y49988691D01*
X19716907Y50024655D01*
X19744796Y50029072D01*
X19744781Y50029355D01*
X19747458Y50029500D01*
X19750134Y50029500D01*
X19770163Y50031676D01*
X19806142Y50035584D01*
X19806144Y50035585D01*
X19812316Y50036255D01*
X19887409Y50064406D01*
X19942106Y50084911D01*
X19942107Y50084911D01*
X19948705Y50087385D01*
X20065261Y50174739D01*
X20069491Y50180383D01*
X20069495Y50180387D01*
X20130780Y50262159D01*
X20180808Y50297384D01*
X20241986Y50296476D01*
X20289220Y50262159D01*
X20350505Y50180387D01*
X20350509Y50180383D01*
X20354739Y50174739D01*
X20471295Y50087385D01*
X20477893Y50084911D01*
X20477894Y50084911D01*
X20532591Y50064406D01*
X20607684Y50036255D01*
X20613856Y50035585D01*
X20613858Y50035584D01*
X20649837Y50031676D01*
X20669866Y50029500D01*
X20672542Y50029500D01*
X20675219Y50029355D01*
X20675180Y50028629D01*
X20730691Y50010593D01*
X20766655Y49961093D01*
X20771500Y49930500D01*
X20771500Y49247999D01*
X20771271Y49241266D01*
X20767275Y49182648D01*
X20768300Y49176776D01*
X20768300Y49176772D01*
X20778381Y49119013D01*
X20779138Y49113886D01*
X20786898Y49049758D01*
X20789007Y49044177D01*
X20790324Y49038815D01*
X20792666Y49005109D01*
X20791500Y48993731D01*
X20791501Y48406270D01*
X20802384Y48301371D01*
X20804099Y48296231D01*
X20804099Y48296230D01*
X20849656Y48159677D01*
X20857898Y48134974D01*
X20860922Y48130087D01*
X20860924Y48130083D01*
X20935014Y48010356D01*
X20950203Y47985811D01*
X21074347Y47861883D01*
X21079241Y47858866D01*
X21079244Y47858864D01*
X21098953Y47846715D01*
X21138567Y47800085D01*
X21143208Y47739076D01*
X21111101Y47686991D01*
X21099100Y47678256D01*
X21073311Y47662297D01*
X20949383Y47538153D01*
X20946366Y47533258D01*
X20860946Y47394680D01*
X20857339Y47388829D01*
X20855529Y47383372D01*
X20855528Y47383370D01*
X20817201Y47267817D01*
X20802115Y47222335D01*
X20791500Y47118731D01*
X20791501Y46531270D01*
X20802384Y46426371D01*
X20804099Y46421231D01*
X20804099Y46421230D01*
X20842511Y46306094D01*
X20857898Y46259974D01*
X20860922Y46255087D01*
X20860924Y46255083D01*
X20936015Y46133739D01*
X20950203Y46110811D01*
X20954273Y46106748D01*
X20966847Y46094196D01*
X21074347Y45986883D01*
X21223671Y45894839D01*
X21229128Y45893029D01*
X21229130Y45893028D01*
X21264631Y45881253D01*
X21390165Y45839615D01*
X21493769Y45829000D01*
X21996231Y45829000D01*
X22506230Y45829001D01*
X22611129Y45839884D01*
X22741531Y45883389D01*
X22772068Y45893577D01*
X22772069Y45893577D01*
X22777526Y45895398D01*
X22782413Y45898422D01*
X22782417Y45898424D01*
X22921799Y45984677D01*
X22926689Y45987703D01*
X23050617Y46111847D01*
X23101186Y46193885D01*
X23139644Y46256276D01*
X23139645Y46256278D01*
X23142661Y46261171D01*
X23145125Y46268598D01*
X23184659Y46387790D01*
X23197885Y46427665D01*
X23208500Y46531269D01*
X23208500Y46574691D01*
X24250001Y46574691D01*
X24250290Y46569351D01*
X24255889Y46517806D01*
X24258738Y46505821D01*
X24303729Y46385809D01*
X24310437Y46373556D01*
X24386793Y46271674D01*
X24396674Y46261793D01*
X24498556Y46185437D01*
X24510809Y46178729D01*
X24630819Y46133739D01*
X24642807Y46130888D01*
X24694354Y46125289D01*
X24699688Y46125000D01*
X24930320Y46125000D01*
X24943005Y46129122D01*
X24946000Y46133243D01*
X24946000Y46140681D01*
X25454000Y46140681D01*
X25458122Y46127996D01*
X25462243Y46125001D01*
X25700309Y46125001D01*
X25705649Y46125290D01*
X25757194Y46130889D01*
X25769179Y46133738D01*
X25889191Y46178729D01*
X25901444Y46185437D01*
X26003326Y46261793D01*
X26013207Y46271674D01*
X26089563Y46373556D01*
X26096271Y46385809D01*
X26115533Y46437191D01*
X28250001Y46437191D01*
X28250290Y46431851D01*
X28255889Y46380306D01*
X28258738Y46368321D01*
X28303729Y46248309D01*
X28310437Y46236056D01*
X28386793Y46134174D01*
X28396674Y46124293D01*
X28498556Y46047937D01*
X28510809Y46041229D01*
X28630819Y45996239D01*
X28642807Y45993388D01*
X28694354Y45987789D01*
X28699688Y45987500D01*
X28930320Y45987500D01*
X28943005Y45991622D01*
X28946000Y45995743D01*
X28946000Y46003181D01*
X29454000Y46003181D01*
X29458122Y45990496D01*
X29462243Y45987501D01*
X29700309Y45987501D01*
X29705649Y45987790D01*
X29757194Y45993389D01*
X29769179Y45996238D01*
X29889191Y46041229D01*
X29901444Y46047937D01*
X30003326Y46124293D01*
X30013207Y46134174D01*
X30089563Y46236056D01*
X30096271Y46248309D01*
X30141261Y46368319D01*
X30144112Y46380307D01*
X30149711Y46431854D01*
X30150000Y46437188D01*
X30150000Y46455320D01*
X30145878Y46468005D01*
X30141757Y46471000D01*
X29469680Y46471000D01*
X29456995Y46466878D01*
X29454000Y46462757D01*
X29454000Y46003181D01*
X28946000Y46003181D01*
X28946000Y46455320D01*
X28941878Y46468005D01*
X28937757Y46471000D01*
X28265681Y46471000D01*
X28252996Y46466878D01*
X28250001Y46462757D01*
X28250001Y46437191D01*
X26115533Y46437191D01*
X26141261Y46505819D01*
X26144112Y46517807D01*
X26149711Y46569354D01*
X26150000Y46574688D01*
X26150000Y46592820D01*
X26145878Y46605505D01*
X26141757Y46608500D01*
X25469680Y46608500D01*
X25456995Y46604378D01*
X25454000Y46600257D01*
X25454000Y46140681D01*
X24946000Y46140681D01*
X24946000Y46592820D01*
X24941878Y46605505D01*
X24937757Y46608500D01*
X24265681Y46608500D01*
X24252996Y46604378D01*
X24250001Y46600257D01*
X24250001Y46574691D01*
X23208500Y46574691D01*
X23208499Y47118730D01*
X23197616Y47223629D01*
X23186585Y47256695D01*
X23143923Y47384568D01*
X23143923Y47384569D01*
X23142102Y47390026D01*
X23139078Y47394913D01*
X23139076Y47394917D01*
X23052823Y47534299D01*
X23049797Y47539189D01*
X23017889Y47571042D01*
X22935461Y47653326D01*
X22925653Y47663117D01*
X22920759Y47666134D01*
X22920756Y47666136D01*
X22901047Y47678285D01*
X22861433Y47724915D01*
X22856792Y47785924D01*
X22888899Y47838009D01*
X22900901Y47846745D01*
X22921799Y47859677D01*
X22926689Y47862703D01*
X22955678Y47891742D01*
X22988653Y47924775D01*
X23050617Y47986847D01*
X23103633Y48072856D01*
X23139644Y48131276D01*
X23139645Y48131278D01*
X23142661Y48136171D01*
X23151190Y48161883D01*
X23194262Y48291742D01*
X23197885Y48302665D01*
X23208151Y48402864D01*
X23232890Y48458825D01*
X23285798Y48489556D01*
X23306980Y48491773D01*
X23482336Y48491161D01*
X23482339Y48491161D01*
X23487870Y48491142D01*
X23664887Y48530711D01*
X23682072Y48538871D01*
X23823741Y48606140D01*
X23823743Y48606141D01*
X23828740Y48608514D01*
X23833089Y48611936D01*
X23837793Y48614853D01*
X23838774Y48613270D01*
X23888701Y48631639D01*
X23947574Y48614980D01*
X23985412Y48566897D01*
X23991501Y48532714D01*
X23991501Y48443770D01*
X24002384Y48338871D01*
X24004099Y48333731D01*
X24004099Y48333730D01*
X24048257Y48201371D01*
X24057898Y48172474D01*
X24060922Y48167587D01*
X24060924Y48167583D01*
X24138867Y48041630D01*
X24150203Y48023311D01*
X24274347Y47899383D01*
X24340081Y47858864D01*
X24381162Y47833542D01*
X24423671Y47807339D01*
X24429128Y47805529D01*
X24573302Y47757708D01*
X24622581Y47721442D01*
X24641132Y47663137D01*
X24621869Y47605063D01*
X24576886Y47571042D01*
X24510809Y47546271D01*
X24498556Y47539563D01*
X24396674Y47463207D01*
X24386793Y47453326D01*
X24310437Y47351444D01*
X24303729Y47339191D01*
X24258739Y47219181D01*
X24255888Y47207193D01*
X24250289Y47155646D01*
X24250000Y47150312D01*
X24250000Y47132180D01*
X24254122Y47119495D01*
X24258243Y47116500D01*
X26134319Y47116500D01*
X26147004Y47120622D01*
X26149999Y47124743D01*
X26149999Y47150309D01*
X26149710Y47155649D01*
X26144111Y47207194D01*
X26141262Y47219179D01*
X26096271Y47339191D01*
X26089563Y47351444D01*
X26013207Y47453326D01*
X26003326Y47463207D01*
X25901444Y47539563D01*
X25889191Y47546271D01*
X25823297Y47570974D01*
X25775446Y47609105D01*
X25759147Y47668080D01*
X25780625Y47725371D01*
X25826718Y47757585D01*
X25841277Y47762442D01*
X25918321Y47788146D01*
X25972068Y47806077D01*
X25972069Y47806077D01*
X25977526Y47807898D01*
X25982413Y47810922D01*
X25982417Y47810924D01*
X26121799Y47897177D01*
X26126689Y47900203D01*
X26250617Y48024347D01*
X26319546Y48136171D01*
X26339644Y48168776D01*
X26339645Y48168778D01*
X26342661Y48173671D01*
X26354063Y48208045D01*
X26383745Y48297534D01*
X26397885Y48340165D01*
X26408500Y48443769D01*
X26408499Y49031230D01*
X26397616Y49136129D01*
X26356834Y49258370D01*
X26343923Y49297068D01*
X26343923Y49297069D01*
X26342102Y49302526D01*
X26339078Y49307413D01*
X26339076Y49307417D01*
X26252823Y49446799D01*
X26249797Y49451689D01*
X26125653Y49575617D01*
X26015688Y49643400D01*
X25981224Y49664644D01*
X25981222Y49664645D01*
X25976329Y49667661D01*
X25970872Y49669471D01*
X25970870Y49669472D01*
X25839176Y49713153D01*
X25809835Y49722885D01*
X25706231Y49733500D01*
X25509478Y49733500D01*
X25451287Y49752407D01*
X25439474Y49762496D01*
X25155390Y50046580D01*
X25127613Y50101097D01*
X25137184Y50161529D01*
X25146174Y50175957D01*
X25210780Y50262159D01*
X25260808Y50297384D01*
X25321987Y50296476D01*
X25369220Y50262159D01*
X25430505Y50180387D01*
X25430509Y50180383D01*
X25434739Y50174739D01*
X25551295Y50087385D01*
X25557893Y50084911D01*
X25557894Y50084911D01*
X25612591Y50064406D01*
X25687684Y50036255D01*
X25693856Y50035585D01*
X25693858Y50035584D01*
X25729837Y50031676D01*
X25749866Y50029500D01*
X27370134Y50029500D01*
X27390163Y50031676D01*
X27426142Y50035584D01*
X27426144Y50035585D01*
X27432316Y50036255D01*
X27507409Y50064406D01*
X27562106Y50084911D01*
X27562107Y50084911D01*
X27568705Y50087385D01*
X27685261Y50174739D01*
X27689491Y50180383D01*
X27689495Y50180387D01*
X27750780Y50262159D01*
X27800808Y50297384D01*
X27861986Y50296476D01*
X27909220Y50262159D01*
X27970505Y50180387D01*
X27970509Y50180383D01*
X27974739Y50174739D01*
X28091295Y50087385D01*
X28097893Y50084911D01*
X28097894Y50084911D01*
X28152591Y50064406D01*
X28227684Y50036255D01*
X28233856Y50035585D01*
X28233858Y50035584D01*
X28269837Y50031676D01*
X28289866Y50029500D01*
X28292542Y50029500D01*
X28295219Y50029355D01*
X28295180Y50028629D01*
X28350691Y50010593D01*
X28386655Y49961093D01*
X28391500Y49930500D01*
X28391500Y49565594D01*
X28372593Y49507403D01*
X28344595Y49481409D01*
X28273311Y49437297D01*
X28269248Y49433227D01*
X28228048Y49391955D01*
X28149383Y49313153D01*
X28116353Y49259568D01*
X28061092Y49169917D01*
X28057339Y49163829D01*
X28055529Y49158372D01*
X28055528Y49158370D01*
X28035713Y49098629D01*
X28002115Y48997335D01*
X27991500Y48893731D01*
X27991501Y48306270D01*
X28002384Y48201371D01*
X28004099Y48196231D01*
X28004099Y48196230D01*
X28025769Y48131276D01*
X28057898Y48034974D01*
X28060922Y48030087D01*
X28060924Y48030083D01*
X28117294Y47938991D01*
X28150203Y47885811D01*
X28154273Y47881748D01*
X28177197Y47858864D01*
X28274347Y47761883D01*
X28290194Y47752115D01*
X28410018Y47678255D01*
X28423671Y47669839D01*
X28429128Y47668029D01*
X28573302Y47620208D01*
X28622581Y47583942D01*
X28641132Y47525637D01*
X28621869Y47467563D01*
X28576886Y47433542D01*
X28510809Y47408771D01*
X28498556Y47402063D01*
X28396674Y47325707D01*
X28386793Y47315826D01*
X28310437Y47213944D01*
X28303729Y47201691D01*
X28258739Y47081681D01*
X28255888Y47069693D01*
X28250289Y47018146D01*
X28250000Y47012812D01*
X28250000Y46994680D01*
X28254122Y46981995D01*
X28258243Y46979000D01*
X30134319Y46979000D01*
X30147004Y46983122D01*
X30149999Y46987243D01*
X30149999Y47012809D01*
X30149710Y47018149D01*
X30144111Y47069694D01*
X30141262Y47081679D01*
X30096271Y47201691D01*
X30089563Y47213944D01*
X30013207Y47315826D01*
X30003326Y47325707D01*
X29901444Y47402063D01*
X29889191Y47408771D01*
X29823297Y47433474D01*
X29775446Y47471605D01*
X29759147Y47530580D01*
X29780625Y47587871D01*
X29826718Y47620085D01*
X29910388Y47647999D01*
X29977526Y47670398D01*
X29982413Y47673422D01*
X29982417Y47673424D01*
X30121799Y47759677D01*
X30126689Y47762703D01*
X30135014Y47771042D01*
X30230578Y47866773D01*
X30250617Y47886847D01*
X30311619Y47985811D01*
X30339644Y48031276D01*
X30339645Y48031278D01*
X30342661Y48036171D01*
X30355018Y48073424D01*
X30390079Y48179130D01*
X30397885Y48202665D01*
X30408500Y48306269D01*
X30408499Y48893730D01*
X30397616Y48998629D01*
X30362539Y49103770D01*
X30343923Y49159568D01*
X30343923Y49159569D01*
X30342102Y49165026D01*
X30339078Y49169913D01*
X30339076Y49169917D01*
X30252823Y49309299D01*
X30249797Y49314189D01*
X30125653Y49438117D01*
X30031960Y49495870D01*
X29981224Y49527144D01*
X29981222Y49527145D01*
X29976329Y49530161D01*
X29970872Y49531971D01*
X29970870Y49531972D01*
X29931059Y49545177D01*
X29876332Y49563329D01*
X29827054Y49599593D01*
X29808500Y49657294D01*
X29808500Y49930500D01*
X29827407Y49988691D01*
X29876907Y50024655D01*
X29904796Y50029072D01*
X29904781Y50029355D01*
X29907458Y50029500D01*
X29910134Y50029500D01*
X29930163Y50031676D01*
X29966142Y50035584D01*
X29966144Y50035585D01*
X29972316Y50036255D01*
X30047409Y50064406D01*
X30102106Y50084911D01*
X30102107Y50084911D01*
X30108705Y50087385D01*
X30225261Y50174739D01*
X30312615Y50291295D01*
X30316105Y50300603D01*
X30361565Y50421869D01*
X30363745Y50427684D01*
X30370500Y50489866D01*
X30370500Y50518234D01*
X30628000Y50518234D01*
X30628948Y50508612D01*
X30640603Y50450017D01*
X30647922Y50432349D01*
X30692341Y50365870D01*
X30705870Y50352341D01*
X30772349Y50307922D01*
X30790017Y50300603D01*
X30848612Y50288948D01*
X30858234Y50288000D01*
X31370320Y50288000D01*
X31383005Y50292122D01*
X31386000Y50296243D01*
X31386000Y50303680D01*
X31894000Y50303680D01*
X31898122Y50290995D01*
X31902243Y50288000D01*
X32421766Y50288000D01*
X32431388Y50288948D01*
X32489983Y50300603D01*
X32507651Y50307922D01*
X32574130Y50352341D01*
X32587659Y50365870D01*
X32632078Y50432349D01*
X32639397Y50450017D01*
X32651052Y50508612D01*
X32652000Y50518234D01*
X32652000Y51030320D01*
X32647878Y51043005D01*
X32643757Y51046000D01*
X31909680Y51046000D01*
X31896995Y51041878D01*
X31894000Y51037757D01*
X31894000Y50303680D01*
X31386000Y50303680D01*
X31386000Y51030320D01*
X31381878Y51043005D01*
X31377757Y51046000D01*
X30643680Y51046000D01*
X30630995Y51041878D01*
X30628000Y51037757D01*
X30628000Y50518234D01*
X30370500Y50518234D01*
X30370500Y51569680D01*
X30628000Y51569680D01*
X30632122Y51556995D01*
X30636243Y51554000D01*
X31370320Y51554000D01*
X31383005Y51558122D01*
X31386000Y51562243D01*
X31386000Y51569680D01*
X31894000Y51569680D01*
X31898122Y51556995D01*
X31902243Y51554000D01*
X32636320Y51554000D01*
X32649005Y51558122D01*
X32652000Y51562243D01*
X32652000Y52081766D01*
X32651052Y52091388D01*
X32639397Y52149983D01*
X32632078Y52167651D01*
X32587659Y52234130D01*
X32574130Y52247659D01*
X32507651Y52292078D01*
X32489983Y52299397D01*
X32431388Y52311052D01*
X32421766Y52312000D01*
X31909680Y52312000D01*
X31896995Y52307878D01*
X31894000Y52303757D01*
X31894000Y51569680D01*
X31386000Y51569680D01*
X31386000Y52296320D01*
X31381878Y52309005D01*
X31377757Y52312000D01*
X30858234Y52312000D01*
X30848612Y52311052D01*
X30790017Y52299397D01*
X30772349Y52292078D01*
X30705870Y52247659D01*
X30692341Y52234130D01*
X30647922Y52167651D01*
X30640603Y52149983D01*
X30628948Y52091388D01*
X30628000Y52081766D01*
X30628000Y51569680D01*
X30370500Y51569680D01*
X30370500Y52110134D01*
X30363745Y52172316D01*
X30317258Y52296320D01*
X30315089Y52302106D01*
X30315089Y52302107D01*
X30312615Y52308705D01*
X30225261Y52425261D01*
X30108705Y52512615D01*
X30016853Y52547049D01*
X29978131Y52561565D01*
X29972316Y52563745D01*
X29966144Y52564415D01*
X29966142Y52564416D01*
X29930163Y52568324D01*
X29910134Y52570500D01*
X28289866Y52570500D01*
X28269837Y52568324D01*
X28233858Y52564416D01*
X28233856Y52564415D01*
X28227684Y52563745D01*
X28221869Y52561565D01*
X28183148Y52547049D01*
X28091295Y52512615D01*
X27974739Y52425261D01*
X27970509Y52419617D01*
X27970505Y52419613D01*
X27909220Y52337841D01*
X27859192Y52302616D01*
X27798014Y52303524D01*
X27750780Y52337841D01*
X27689495Y52419613D01*
X27689491Y52419617D01*
X27685261Y52425261D01*
X27568705Y52512615D01*
X27476853Y52547049D01*
X27438131Y52561565D01*
X27432316Y52563745D01*
X27426144Y52564415D01*
X27426142Y52564416D01*
X27390163Y52568324D01*
X27370134Y52570500D01*
X25749866Y52570500D01*
X25729837Y52568324D01*
X25693858Y52564416D01*
X25693856Y52564415D01*
X25687684Y52563745D01*
X25681869Y52561565D01*
X25643148Y52547049D01*
X25551295Y52512615D01*
X25434739Y52425261D01*
X25430509Y52419617D01*
X25430505Y52419613D01*
X25369220Y52337841D01*
X25319192Y52302616D01*
X25258014Y52303524D01*
X25210780Y52337841D01*
X25149495Y52419613D01*
X25149491Y52419617D01*
X25145261Y52425261D01*
X25028705Y52512615D01*
X24936853Y52547049D01*
X24898131Y52561565D01*
X24892316Y52563745D01*
X24886144Y52564415D01*
X24886142Y52564416D01*
X24850163Y52568324D01*
X24830134Y52570500D01*
X23852900Y52570500D01*
X23794709Y52589407D01*
X23758745Y52638907D01*
X23758745Y52700093D01*
X23782896Y52739504D01*
X24815310Y53771918D01*
X24816047Y53772647D01*
X24876554Y53831900D01*
X24880507Y53835771D01*
X24904727Y53873353D01*
X24910572Y53881488D01*
X24935025Y53912120D01*
X24938476Y53916443D01*
X24953791Y53948124D01*
X24959707Y53958666D01*
X24975768Y53983588D01*
X24978765Y53988238D01*
X24994060Y54030260D01*
X24997956Y54039483D01*
X25015011Y54074764D01*
X25017421Y54079749D01*
X25018665Y54085138D01*
X25018669Y54085149D01*
X25025337Y54114032D01*
X25028769Y54125620D01*
X25038909Y54153481D01*
X25038909Y54153482D01*
X25040803Y54158685D01*
X25046408Y54203052D01*
X25048164Y54212913D01*
X25058224Y54256485D01*
X25058365Y54296966D01*
X25058398Y54297963D01*
X25058500Y54298769D01*
X25058500Y54301046D01*
X25058558Y54302803D01*
X25058625Y54303872D01*
X25081135Y54360766D01*
X25122678Y54390378D01*
X25146705Y54399385D01*
X25263261Y54486739D01*
X25268510Y54493742D01*
X25311906Y54551646D01*
X25350615Y54603295D01*
X25354105Y54612603D01*
X25399565Y54733869D01*
X25401745Y54739684D01*
X25408500Y54801866D01*
X25409635Y54801743D01*
X25430173Y54854948D01*
X25481550Y54888175D01*
X25506993Y54891500D01*
X27445699Y54891500D01*
X27457421Y54890804D01*
X27488824Y54887059D01*
X27488827Y54887059D01*
X27494320Y54886404D01*
X27537648Y54890958D01*
X27547996Y54891500D01*
X29283230Y54891500D01*
X29341421Y54872593D01*
X29367414Y54844596D01*
X29450203Y54710811D01*
X29574347Y54586883D01*
X29603693Y54568794D01*
X29695891Y54511963D01*
X29723671Y54494839D01*
X29729128Y54493029D01*
X29729130Y54493028D01*
X29844683Y54454701D01*
X29890165Y54439615D01*
X29993769Y54429000D01*
X30496231Y54429000D01*
X31006230Y54429001D01*
X31111129Y54439884D01*
X31202622Y54470408D01*
X31272068Y54493577D01*
X31272069Y54493577D01*
X31277526Y54495398D01*
X31282413Y54498422D01*
X31282417Y54498424D01*
X31421800Y54584677D01*
X31421803Y54584680D01*
X31426689Y54587703D01*
X31430752Y54591773D01*
X31435260Y54595346D01*
X31436176Y54594191D01*
X31484526Y54618881D01*
X31544967Y54609364D01*
X31565650Y54594366D01*
X31565764Y54594510D01*
X31569277Y54591736D01*
X31570039Y54591183D01*
X31570275Y54590947D01*
X31570279Y54590944D01*
X31574347Y54586883D01*
X31579239Y54583867D01*
X31579241Y54583866D01*
X31711051Y54502618D01*
X31723671Y54494839D01*
X31729128Y54493029D01*
X31729130Y54493028D01*
X31844683Y54454701D01*
X31890165Y54439615D01*
X31993769Y54429000D01*
X32496231Y54429000D01*
X33006230Y54429001D01*
X33111129Y54439884D01*
X33202622Y54470408D01*
X33272068Y54493577D01*
X33272069Y54493577D01*
X33277526Y54495398D01*
X33282413Y54498422D01*
X33282417Y54498424D01*
X33421799Y54584677D01*
X33426689Y54587703D01*
X33456825Y54617891D01*
X33546554Y54707777D01*
X33550617Y54711847D01*
X33627612Y54836757D01*
X33632353Y54844448D01*
X33678983Y54884063D01*
X33716629Y54891500D01*
X35690500Y54891500D01*
X35748691Y54872593D01*
X35784655Y54823093D01*
X35789500Y54792500D01*
X35789500Y54189866D01*
X35789789Y54187207D01*
X35793453Y54153481D01*
X35796255Y54127684D01*
X35798435Y54121869D01*
X35843896Y54000603D01*
X35847385Y53991295D01*
X35934739Y53874739D01*
X36051295Y53787385D01*
X36057893Y53784911D01*
X36057894Y53784911D01*
X36091617Y53772269D01*
X36187684Y53736255D01*
X36193856Y53735585D01*
X36193858Y53735584D01*
X36229837Y53731676D01*
X36249866Y53729500D01*
X37386100Y53729500D01*
X37444291Y53710593D01*
X37456104Y53700504D01*
X38428771Y52727837D01*
X38456548Y52673320D01*
X38446977Y52612888D01*
X38403712Y52569623D01*
X38387745Y52563752D01*
X38387684Y52563745D01*
X38385459Y52562911D01*
X38385443Y52562905D01*
X38287253Y52526095D01*
X38251295Y52512615D01*
X38134739Y52425261D01*
X38130509Y52419617D01*
X38130505Y52419613D01*
X38069220Y52337841D01*
X38019192Y52302616D01*
X37958014Y52303524D01*
X37910780Y52337841D01*
X37849495Y52419613D01*
X37849491Y52419617D01*
X37845261Y52425261D01*
X37728705Y52512615D01*
X37636853Y52547049D01*
X37598131Y52561565D01*
X37592316Y52563745D01*
X37586144Y52564415D01*
X37586142Y52564416D01*
X37550163Y52568324D01*
X37530134Y52570500D01*
X35909866Y52570500D01*
X35889837Y52568324D01*
X35853858Y52564416D01*
X35853856Y52564415D01*
X35847684Y52563745D01*
X35841869Y52561565D01*
X35803148Y52547049D01*
X35711295Y52512615D01*
X35594739Y52425261D01*
X35590509Y52419617D01*
X35590505Y52419613D01*
X35529220Y52337841D01*
X35479192Y52302616D01*
X35418014Y52303524D01*
X35370780Y52337841D01*
X35309495Y52419613D01*
X35309491Y52419617D01*
X35305261Y52425261D01*
X35188705Y52512615D01*
X35096853Y52547049D01*
X35058131Y52561565D01*
X35052316Y52563745D01*
X35046144Y52564415D01*
X35046142Y52564416D01*
X35010163Y52568324D01*
X34990134Y52570500D01*
X33369866Y52570500D01*
X33349837Y52568324D01*
X33313858Y52564416D01*
X33313856Y52564415D01*
X33307684Y52563745D01*
X33301869Y52561565D01*
X33263148Y52547049D01*
X33171295Y52512615D01*
X33054739Y52425261D01*
X32967385Y52308705D01*
X32964911Y52302107D01*
X32964911Y52302106D01*
X32962742Y52296320D01*
X32916255Y52172316D01*
X32909500Y52110134D01*
X32909500Y50489866D01*
X32916255Y50427684D01*
X32918435Y50421869D01*
X32963896Y50300603D01*
X32967385Y50291295D01*
X33054739Y50174739D01*
X33171295Y50087385D01*
X33177893Y50084911D01*
X33177894Y50084911D01*
X33232591Y50064406D01*
X33307684Y50036255D01*
X33313856Y50035585D01*
X33313858Y50035584D01*
X33349837Y50031676D01*
X33369866Y50029500D01*
X33372542Y50029500D01*
X33375219Y50029355D01*
X33375180Y50028629D01*
X33430691Y50010593D01*
X33466655Y49961093D01*
X33471500Y49930500D01*
X33471500Y47647999D01*
X33471271Y47641266D01*
X33467275Y47582648D01*
X33468300Y47576776D01*
X33468300Y47576772D01*
X33478381Y47519013D01*
X33479138Y47513885D01*
X33485271Y47463207D01*
X33486898Y47449758D01*
X33489006Y47444180D01*
X33489007Y47444175D01*
X33490222Y47440960D01*
X33495139Y47422987D01*
X33496757Y47413716D01*
X33522248Y47355646D01*
X33522722Y47354567D01*
X33524680Y47349771D01*
X33547513Y47289344D01*
X33552844Y47281587D01*
X33561900Y47265317D01*
X33565685Y47256695D01*
X33569321Y47251957D01*
X33605009Y47205448D01*
X33608057Y47201253D01*
X33644643Y47148019D01*
X33674641Y47121292D01*
X33691739Y47106058D01*
X33695885Y47102145D01*
X36973865Y43824164D01*
X36997763Y43773923D01*
X37000682Y43774553D01*
X37001825Y43769261D01*
X37002384Y43763871D01*
X37004099Y43758731D01*
X37004099Y43758730D01*
X37044988Y43636171D01*
X37057898Y43597474D01*
X37060922Y43592587D01*
X37060924Y43592583D01*
X37065214Y43585651D01*
X37150203Y43448311D01*
X37154273Y43444248D01*
X37155457Y43442754D01*
X37176783Y43385406D01*
X37160328Y43326475D01*
X37155563Y43319904D01*
X37153445Y43317222D01*
X37149383Y43313153D01*
X37146366Y43308258D01*
X37061092Y43169917D01*
X37057339Y43163829D01*
X37002115Y42997335D01*
X36991500Y42893731D01*
X36991501Y42306270D01*
X37002384Y42201371D01*
X37004099Y42196231D01*
X37004099Y42196230D01*
X37043566Y42077932D01*
X37057898Y42034974D01*
X37060922Y42030087D01*
X37060924Y42030083D01*
X37143570Y41896529D01*
X37150203Y41885811D01*
X37274347Y41761883D01*
X37423671Y41669839D01*
X37429128Y41668029D01*
X37573302Y41620208D01*
X37622581Y41583942D01*
X37641132Y41525637D01*
X37621869Y41467563D01*
X37576886Y41433542D01*
X37510809Y41408771D01*
X37498556Y41402063D01*
X37396674Y41325707D01*
X37386793Y41315826D01*
X37310437Y41213944D01*
X37303729Y41201691D01*
X37258739Y41081681D01*
X37255888Y41069693D01*
X37250289Y41018146D01*
X37250000Y41012812D01*
X37250000Y40994680D01*
X37254122Y40981995D01*
X37258243Y40979000D01*
X39134319Y40979000D01*
X39147004Y40983122D01*
X39149999Y40987243D01*
X39149999Y41012809D01*
X39149710Y41018149D01*
X39144111Y41069694D01*
X39141262Y41081679D01*
X39096271Y41201691D01*
X39089563Y41213944D01*
X39013207Y41315826D01*
X39003326Y41325707D01*
X38901444Y41402063D01*
X38889191Y41408771D01*
X38823297Y41433474D01*
X38775446Y41471605D01*
X38759147Y41530580D01*
X38780625Y41587871D01*
X38826718Y41620085D01*
X38830786Y41621442D01*
X38923531Y41652384D01*
X38972068Y41668577D01*
X38972069Y41668577D01*
X38977526Y41670398D01*
X38982413Y41673422D01*
X38982417Y41673424D01*
X39121799Y41759677D01*
X39126689Y41762703D01*
X39250617Y41886847D01*
X39296639Y41961509D01*
X39339644Y42031276D01*
X39339645Y42031278D01*
X39342661Y42036171D01*
X39355100Y42073671D01*
X39382799Y42157183D01*
X39397885Y42202665D01*
X39408500Y42306269D01*
X39408499Y42893730D01*
X39397616Y42998629D01*
X39391251Y43017709D01*
X39343923Y43159568D01*
X39343923Y43159569D01*
X39342102Y43165026D01*
X39339078Y43169913D01*
X39339076Y43169917D01*
X39253467Y43308258D01*
X39249797Y43314189D01*
X39245727Y43318252D01*
X39244543Y43319746D01*
X39223217Y43377094D01*
X39239672Y43436025D01*
X39244437Y43442596D01*
X39246555Y43445278D01*
X39250617Y43449347D01*
X39332262Y43581800D01*
X39339644Y43593776D01*
X39339645Y43593778D01*
X39342661Y43598671D01*
X39353874Y43632475D01*
X39382799Y43719683D01*
X39397885Y43765165D01*
X39408500Y43868769D01*
X39408499Y44456230D01*
X39397616Y44561129D01*
X39376658Y44623950D01*
X39343923Y44722068D01*
X39343923Y44722069D01*
X39342102Y44727526D01*
X39339078Y44732413D01*
X39339076Y44732417D01*
X39252823Y44871799D01*
X39249797Y44876689D01*
X39125653Y45000617D01*
X39120759Y45003634D01*
X39120756Y45003636D01*
X39101047Y45015785D01*
X39061433Y45062415D01*
X39056792Y45123424D01*
X39088899Y45175509D01*
X39100901Y45184245D01*
X39101750Y45184770D01*
X39126689Y45200203D01*
X39250617Y45324347D01*
X39296639Y45399009D01*
X39339644Y45468776D01*
X39339645Y45468778D01*
X39342661Y45473671D01*
X39391223Y45620079D01*
X39427489Y45669358D01*
X39485794Y45687909D01*
X39543868Y45668646D01*
X39555193Y45658915D01*
X39676572Y45537536D01*
X39704349Y45483019D01*
X39692305Y45418033D01*
X39668067Y45376051D01*
X39668063Y45376042D01*
X39665473Y45371556D01*
X39663871Y45366627D01*
X39663871Y45366626D01*
X39608060Y45194860D01*
X39608059Y45194855D01*
X39606458Y45189928D01*
X39586496Y45000000D01*
X39606458Y44810072D01*
X39608059Y44805145D01*
X39608060Y44805140D01*
X39619505Y44769917D01*
X39665473Y44628444D01*
X39668065Y44623955D01*
X39668067Y44623950D01*
X39685799Y44593238D01*
X39760960Y44463056D01*
X39764432Y44459200D01*
X39885277Y44324987D01*
X39885281Y44324983D01*
X39888747Y44321134D01*
X40043248Y44208882D01*
X40145723Y44163258D01*
X40212974Y44133315D01*
X40212978Y44133314D01*
X40217712Y44131206D01*
X40222782Y44130128D01*
X40222783Y44130128D01*
X40294113Y44114966D01*
X40378389Y44097053D01*
X40427810Y44070220D01*
X40779217Y43718813D01*
X40783816Y43713889D01*
X40822439Y43669615D01*
X40875294Y43632468D01*
X40879420Y43629405D01*
X40930282Y43589523D01*
X40938861Y43585649D01*
X40955039Y43576422D01*
X40962739Y43571010D01*
X40968297Y43568843D01*
X40968299Y43568842D01*
X40991469Y43559809D01*
X41022926Y43547544D01*
X41027684Y43545544D01*
X41086573Y43518955D01*
X41092436Y43517868D01*
X41092440Y43517867D01*
X41095824Y43517240D01*
X41113738Y43512137D01*
X41122509Y43508718D01*
X41158920Y43503925D01*
X41186557Y43500286D01*
X41191676Y43499475D01*
X41233400Y43491742D01*
X41255187Y43487704D01*
X41318173Y43491336D01*
X41323872Y43491500D01*
X41358881Y43491500D01*
X41417072Y43472593D01*
X41453036Y43423093D01*
X41453036Y43361907D01*
X41443158Y43340554D01*
X41426268Y43313153D01*
X41361092Y43207417D01*
X41357339Y43201329D01*
X41355529Y43195872D01*
X41355528Y43195870D01*
X41343487Y43159568D01*
X41302115Y43034835D01*
X41291500Y42931231D01*
X41291501Y42343770D01*
X41302384Y42238871D01*
X41304099Y42233731D01*
X41304099Y42233730D01*
X41307561Y42223353D01*
X41357898Y42072474D01*
X41360922Y42067587D01*
X41360924Y42067583D01*
X41383392Y42031276D01*
X41450203Y41923311D01*
X41574347Y41799383D01*
X41723671Y41707339D01*
X41729128Y41705529D01*
X41873302Y41657708D01*
X41922581Y41621442D01*
X41941132Y41563137D01*
X41921869Y41505063D01*
X41876886Y41471042D01*
X41810809Y41446271D01*
X41798556Y41439563D01*
X41696674Y41363207D01*
X41686793Y41353326D01*
X41610437Y41251444D01*
X41603729Y41239191D01*
X41558739Y41119181D01*
X41555888Y41107193D01*
X41550289Y41055646D01*
X41550000Y41050312D01*
X41550000Y41032180D01*
X41554122Y41019495D01*
X41558243Y41016500D01*
X43434319Y41016500D01*
X43447004Y41020622D01*
X43449999Y41024743D01*
X43449999Y41050309D01*
X43449710Y41055649D01*
X43444111Y41107194D01*
X43441262Y41119179D01*
X43396271Y41239191D01*
X43389563Y41251444D01*
X43313207Y41353326D01*
X43303326Y41363207D01*
X43201444Y41439563D01*
X43189191Y41446271D01*
X43123297Y41470974D01*
X43075446Y41509105D01*
X43059147Y41568080D01*
X43080625Y41625371D01*
X43126718Y41657585D01*
X43159666Y41668577D01*
X43277526Y41707898D01*
X43282413Y41710922D01*
X43282417Y41710924D01*
X43421799Y41797177D01*
X43426689Y41800203D01*
X43550617Y41924347D01*
X43619546Y42036171D01*
X43639644Y42068776D01*
X43639645Y42068778D01*
X43642661Y42073671D01*
X43658781Y42122269D01*
X43683745Y42197534D01*
X43697885Y42240165D01*
X43708500Y42343769D01*
X43708499Y42931230D01*
X43697616Y43036129D01*
X43684348Y43075900D01*
X43643923Y43197068D01*
X43643923Y43197069D01*
X43642102Y43202526D01*
X43639078Y43207413D01*
X43639076Y43207417D01*
X43573644Y43313153D01*
X43549797Y43351689D01*
X43545727Y43355752D01*
X43544543Y43357246D01*
X43523217Y43414594D01*
X43539672Y43473525D01*
X43544437Y43480096D01*
X43546555Y43482778D01*
X43550617Y43486847D01*
X43601159Y43568842D01*
X43639644Y43631276D01*
X43639645Y43631278D01*
X43642661Y43636171D01*
X43697885Y43802665D01*
X43708500Y43906269D01*
X43708499Y44493730D01*
X43697616Y44598629D01*
X43642102Y44765026D01*
X43639078Y44769913D01*
X43639076Y44769917D01*
X43552823Y44909299D01*
X43549797Y44914189D01*
X43425653Y45038117D01*
X43420759Y45041134D01*
X43420756Y45041136D01*
X43401047Y45053285D01*
X43361433Y45099915D01*
X43356792Y45160924D01*
X43388899Y45213009D01*
X43400901Y45221745D01*
X43421799Y45234677D01*
X43426689Y45237703D01*
X43550617Y45361847D01*
X43625592Y45483480D01*
X43639644Y45506276D01*
X43639645Y45506278D01*
X43642661Y45511171D01*
X43646435Y45522547D01*
X43691666Y45658915D01*
X43697885Y45677665D01*
X43708500Y45781269D01*
X43708499Y46368730D01*
X43697616Y46473629D01*
X43656834Y46595870D01*
X43643923Y46634568D01*
X43643923Y46634569D01*
X43642102Y46640026D01*
X43639078Y46644913D01*
X43639076Y46644917D01*
X43552823Y46784299D01*
X43549797Y46789189D01*
X43425653Y46913117D01*
X43335118Y46968923D01*
X43281224Y47002144D01*
X43281222Y47002145D01*
X43276329Y47005161D01*
X43270872Y47006971D01*
X43270870Y47006972D01*
X43155317Y47045299D01*
X43109835Y47060385D01*
X43006231Y47071000D01*
X42503769Y47071000D01*
X41993770Y47070999D01*
X41888871Y47060116D01*
X41883731Y47058401D01*
X41883730Y47058401D01*
X41729578Y47006972D01*
X41722474Y47004602D01*
X41717587Y47001578D01*
X41717583Y47001576D01*
X41584029Y46918930D01*
X41573311Y46912297D01*
X41569248Y46908227D01*
X41565068Y46904914D01*
X41503575Y46883500D01*
X40658399Y46883500D01*
X40600208Y46902407D01*
X40588395Y46912496D01*
X40097496Y47403396D01*
X40069719Y47457913D01*
X40068500Y47473400D01*
X40068500Y49943717D01*
X40087407Y50001908D01*
X40132748Y50036417D01*
X40262106Y50084911D01*
X40262107Y50084911D01*
X40268705Y50087385D01*
X40385261Y50174739D01*
X40472615Y50291295D01*
X40476105Y50300603D01*
X40521565Y50421869D01*
X40523745Y50427684D01*
X40530500Y50489866D01*
X40530500Y50518234D01*
X40788000Y50518234D01*
X40788948Y50508612D01*
X40800603Y50450017D01*
X40807922Y50432349D01*
X40852341Y50365870D01*
X40865870Y50352341D01*
X40932349Y50307922D01*
X40950017Y50300603D01*
X41008612Y50288948D01*
X41018234Y50288000D01*
X41530320Y50288000D01*
X41543005Y50292122D01*
X41546000Y50296243D01*
X41546000Y50303680D01*
X42054000Y50303680D01*
X42058122Y50290995D01*
X42062243Y50288000D01*
X42581766Y50288000D01*
X42591388Y50288948D01*
X42649983Y50300603D01*
X42667651Y50307922D01*
X42734130Y50352341D01*
X42747659Y50365870D01*
X42792078Y50432349D01*
X42799397Y50450017D01*
X42811052Y50508612D01*
X42812000Y50518234D01*
X43328000Y50518234D01*
X43328948Y50508612D01*
X43340603Y50450017D01*
X43347922Y50432349D01*
X43392341Y50365870D01*
X43405870Y50352341D01*
X43472349Y50307922D01*
X43490017Y50300603D01*
X43548612Y50288948D01*
X43558234Y50288000D01*
X44070320Y50288000D01*
X44083005Y50292122D01*
X44086000Y50296243D01*
X44086000Y50303680D01*
X44594000Y50303680D01*
X44598122Y50290995D01*
X44602243Y50288000D01*
X45121766Y50288000D01*
X45131388Y50288948D01*
X45189983Y50300603D01*
X45207651Y50307922D01*
X45274130Y50352341D01*
X45287659Y50365870D01*
X45332078Y50432349D01*
X45339397Y50450017D01*
X45351052Y50508612D01*
X45352000Y50518234D01*
X45352000Y51030320D01*
X45347878Y51043005D01*
X45343757Y51046000D01*
X44609680Y51046000D01*
X44596995Y51041878D01*
X44594000Y51037757D01*
X44594000Y50303680D01*
X44086000Y50303680D01*
X44086000Y51030320D01*
X44081878Y51043005D01*
X44077757Y51046000D01*
X43343680Y51046000D01*
X43330995Y51041878D01*
X43328000Y51037757D01*
X43328000Y50518234D01*
X42812000Y50518234D01*
X42812000Y51030320D01*
X42807878Y51043005D01*
X42803757Y51046000D01*
X42069680Y51046000D01*
X42056995Y51041878D01*
X42054000Y51037757D01*
X42054000Y50303680D01*
X41546000Y50303680D01*
X41546000Y51030320D01*
X41541878Y51043005D01*
X41537757Y51046000D01*
X40803680Y51046000D01*
X40790995Y51041878D01*
X40788000Y51037757D01*
X40788000Y50518234D01*
X40530500Y50518234D01*
X40530500Y51569680D01*
X40788000Y51569680D01*
X40792122Y51556995D01*
X40796243Y51554000D01*
X41530320Y51554000D01*
X41543005Y51558122D01*
X41546000Y51562243D01*
X41546000Y51569680D01*
X42054000Y51569680D01*
X42058122Y51556995D01*
X42062243Y51554000D01*
X42796320Y51554000D01*
X42809005Y51558122D01*
X42812000Y51562243D01*
X42812000Y51569680D01*
X43328000Y51569680D01*
X43332122Y51556995D01*
X43336243Y51554000D01*
X44070320Y51554000D01*
X44083005Y51558122D01*
X44086000Y51562243D01*
X44086000Y51569680D01*
X44594000Y51569680D01*
X44598122Y51556995D01*
X44602243Y51554000D01*
X45336320Y51554000D01*
X45349005Y51558122D01*
X45352000Y51562243D01*
X45352000Y52081766D01*
X45351052Y52091388D01*
X45339397Y52149983D01*
X45332078Y52167651D01*
X45287659Y52234130D01*
X45274130Y52247659D01*
X45207651Y52292078D01*
X45189983Y52299397D01*
X45131388Y52311052D01*
X45121766Y52312000D01*
X44609680Y52312000D01*
X44596995Y52307878D01*
X44594000Y52303757D01*
X44594000Y51569680D01*
X44086000Y51569680D01*
X44086000Y52296320D01*
X44081878Y52309005D01*
X44077757Y52312000D01*
X43558234Y52312000D01*
X43548612Y52311052D01*
X43490017Y52299397D01*
X43472349Y52292078D01*
X43405870Y52247659D01*
X43392341Y52234130D01*
X43347922Y52167651D01*
X43340603Y52149983D01*
X43328948Y52091388D01*
X43328000Y52081766D01*
X43328000Y51569680D01*
X42812000Y51569680D01*
X42812000Y52081766D01*
X42811052Y52091388D01*
X42799397Y52149983D01*
X42792078Y52167651D01*
X42747659Y52234130D01*
X42734130Y52247659D01*
X42667651Y52292078D01*
X42649983Y52299397D01*
X42591388Y52311052D01*
X42581766Y52312000D01*
X42069680Y52312000D01*
X42056995Y52307878D01*
X42054000Y52303757D01*
X42054000Y51569680D01*
X41546000Y51569680D01*
X41546000Y52296320D01*
X41541878Y52309005D01*
X41537757Y52312000D01*
X41018234Y52312000D01*
X41008612Y52311052D01*
X40950017Y52299397D01*
X40932349Y52292078D01*
X40865870Y52247659D01*
X40852341Y52234130D01*
X40807922Y52167651D01*
X40800603Y52149983D01*
X40788948Y52091388D01*
X40788000Y52081766D01*
X40788000Y51569680D01*
X40530500Y51569680D01*
X40530500Y52110134D01*
X40523745Y52172316D01*
X40477258Y52296320D01*
X40475089Y52302106D01*
X40475089Y52302107D01*
X40472615Y52308705D01*
X40385261Y52425261D01*
X40268705Y52512615D01*
X40251517Y52519059D01*
X40232748Y52526095D01*
X40184897Y52564226D01*
X40168500Y52618795D01*
X40168500Y52930878D01*
X40168505Y52931915D01*
X40169393Y53016688D01*
X40169451Y53022221D01*
X40159999Y53065936D01*
X40158382Y53075814D01*
X40154014Y53114757D01*
X40154013Y53114759D01*
X40153397Y53120255D01*
X40151578Y53125478D01*
X40151577Y53125483D01*
X40141826Y53153484D01*
X40138555Y53165119D01*
X40132290Y53194096D01*
X40132289Y53194099D01*
X40131119Y53199510D01*
X40112219Y53240042D01*
X40108451Y53249323D01*
X40095565Y53286325D01*
X40093745Y53291552D01*
X40075093Y53321402D01*
X40069337Y53332004D01*
X40054462Y53363902D01*
X40027057Y53399232D01*
X40021327Y53407445D01*
X40000558Y53440685D01*
X40000554Y53440690D01*
X39997626Y53445376D01*
X39986051Y53457032D01*
X39969109Y53474094D01*
X39968413Y53474838D01*
X39967922Y53475470D01*
X39941932Y53501460D01*
X39883063Y53560741D01*
X39855475Y53615354D01*
X39865258Y53675752D01*
X39908673Y53718866D01*
X39953310Y53729500D01*
X40410134Y53729500D01*
X40430163Y53731676D01*
X40466142Y53735584D01*
X40466144Y53735585D01*
X40472316Y53736255D01*
X40568383Y53772269D01*
X40602106Y53784911D01*
X40602107Y53784911D01*
X40608705Y53787385D01*
X40725261Y53874739D01*
X40812615Y53991295D01*
X40816105Y54000603D01*
X40861565Y54121869D01*
X40863745Y54127684D01*
X40866548Y54153481D01*
X40870211Y54187207D01*
X40870500Y54189866D01*
X40870500Y54218234D01*
X41128000Y54218234D01*
X41128948Y54208612D01*
X41140603Y54150017D01*
X41147922Y54132349D01*
X41192341Y54065870D01*
X41205870Y54052341D01*
X41272349Y54007922D01*
X41290017Y54000603D01*
X41348612Y53988948D01*
X41358234Y53988000D01*
X41870320Y53988000D01*
X41883005Y53992122D01*
X41886000Y53996243D01*
X41886000Y54003680D01*
X42394000Y54003680D01*
X42398122Y53990995D01*
X42402243Y53988000D01*
X42921766Y53988000D01*
X42931388Y53988948D01*
X42989983Y54000603D01*
X43007651Y54007922D01*
X43074130Y54052341D01*
X43087659Y54065870D01*
X43132078Y54132349D01*
X43139397Y54150017D01*
X43151052Y54208612D01*
X43152000Y54218234D01*
X43152000Y54730320D01*
X43147878Y54743005D01*
X43143757Y54746000D01*
X42409680Y54746000D01*
X42396995Y54741878D01*
X42394000Y54737757D01*
X42394000Y54003680D01*
X41886000Y54003680D01*
X41886000Y54730320D01*
X41881878Y54743005D01*
X41877757Y54746000D01*
X41143680Y54746000D01*
X41130995Y54741878D01*
X41128000Y54737757D01*
X41128000Y54218234D01*
X40870500Y54218234D01*
X40870500Y55269680D01*
X41128000Y55269680D01*
X41132122Y55256995D01*
X41136243Y55254000D01*
X41870320Y55254000D01*
X41883005Y55258122D01*
X41886000Y55262243D01*
X41886000Y55269680D01*
X42394000Y55269680D01*
X42398122Y55256995D01*
X42402243Y55254000D01*
X43136320Y55254000D01*
X43149005Y55258122D01*
X43152000Y55262243D01*
X43152000Y55781766D01*
X43151052Y55791388D01*
X43139397Y55849983D01*
X43132078Y55867651D01*
X43087659Y55934130D01*
X43074130Y55947659D01*
X43007651Y55992078D01*
X42989983Y55999397D01*
X42931388Y56011052D01*
X42921766Y56012000D01*
X42409680Y56012000D01*
X42396995Y56007878D01*
X42394000Y56003757D01*
X42394000Y55269680D01*
X41886000Y55269680D01*
X41886000Y55996320D01*
X41881878Y56009005D01*
X41877757Y56012000D01*
X41358234Y56012000D01*
X41348612Y56011052D01*
X41290017Y55999397D01*
X41272349Y55992078D01*
X41205870Y55947659D01*
X41192341Y55934130D01*
X41147922Y55867651D01*
X41140603Y55849983D01*
X41128948Y55791388D01*
X41128000Y55781766D01*
X41128000Y55269680D01*
X40870500Y55269680D01*
X40870500Y55810134D01*
X40863745Y55872316D01*
X40816352Y55998737D01*
X40815089Y56002106D01*
X40815089Y56002107D01*
X40812615Y56008705D01*
X40725261Y56125261D01*
X40608705Y56212615D01*
X40472316Y56263745D01*
X40466144Y56264415D01*
X40466142Y56264416D01*
X40430163Y56268324D01*
X40410134Y56270500D01*
X38789866Y56270500D01*
X38769837Y56268324D01*
X38733858Y56264416D01*
X38733856Y56264415D01*
X38727684Y56263745D01*
X38591295Y56212615D01*
X38474739Y56125261D01*
X38470509Y56119617D01*
X38470505Y56119613D01*
X38409220Y56037841D01*
X38359192Y56002616D01*
X38298014Y56003524D01*
X38250780Y56037841D01*
X38189495Y56119613D01*
X38189491Y56119617D01*
X38185261Y56125261D01*
X38068705Y56212615D01*
X37932316Y56263745D01*
X37926144Y56264415D01*
X37926142Y56264416D01*
X37890163Y56268324D01*
X37870134Y56270500D01*
X36989608Y56270500D01*
X36931417Y56289407D01*
X36918875Y56300234D01*
X36893104Y56326551D01*
X36893099Y56326555D01*
X36889229Y56330507D01*
X36851647Y56354727D01*
X36843512Y56360572D01*
X36812880Y56385025D01*
X36808557Y56388476D01*
X36776876Y56403791D01*
X36766334Y56409707D01*
X36741412Y56425768D01*
X36736762Y56428765D01*
X36694740Y56444060D01*
X36685517Y56447956D01*
X36650236Y56465011D01*
X36645251Y56467421D01*
X36639862Y56468665D01*
X36639851Y56468669D01*
X36610968Y56475337D01*
X36599380Y56478769D01*
X36571519Y56488909D01*
X36571518Y56488909D01*
X36566315Y56490803D01*
X36560823Y56491497D01*
X36560822Y56491497D01*
X36521948Y56496408D01*
X36512092Y56498163D01*
X36468515Y56508224D01*
X36428034Y56508365D01*
X36427035Y56508398D01*
X36426231Y56508500D01*
X36389486Y56508500D01*
X36389141Y56508501D01*
X36290569Y56508845D01*
X36287130Y56508857D01*
X36285960Y56508595D01*
X36284198Y56508500D01*
X33345923Y56508500D01*
X33287732Y56527407D01*
X33251768Y56576907D01*
X33251768Y56638093D01*
X33286551Y56686721D01*
X33303326Y56699293D01*
X33313207Y56709174D01*
X33389563Y56811056D01*
X33396271Y56823309D01*
X33441261Y56943319D01*
X33444112Y56955307D01*
X33449711Y57006854D01*
X33450000Y57012188D01*
X33450000Y57030320D01*
X33445878Y57043005D01*
X33441757Y57046000D01*
X32345000Y57046000D01*
X32286809Y57064907D01*
X32250845Y57114407D01*
X32246000Y57145000D01*
X32246000Y57569680D01*
X32754000Y57569680D01*
X32758122Y57556995D01*
X32762243Y57554000D01*
X33434319Y57554000D01*
X33447004Y57558122D01*
X33449999Y57562243D01*
X33449999Y57587809D01*
X33449710Y57593149D01*
X33444111Y57644694D01*
X33441262Y57656679D01*
X33396271Y57776691D01*
X33389563Y57788944D01*
X33313207Y57890826D01*
X33303326Y57900707D01*
X33201444Y57977063D01*
X33189191Y57983771D01*
X33069181Y58028761D01*
X33057193Y58031612D01*
X33005646Y58037211D01*
X33000312Y58037500D01*
X32769680Y58037500D01*
X32756995Y58033378D01*
X32754000Y58029257D01*
X32754000Y57569680D01*
X32246000Y57569680D01*
X32246000Y58021819D01*
X32241878Y58034504D01*
X32237757Y58037499D01*
X31999691Y58037499D01*
X31994351Y58037210D01*
X31942806Y58031611D01*
X31930821Y58028762D01*
X31810809Y57983771D01*
X31798556Y57977063D01*
X31696674Y57900707D01*
X31686793Y57890826D01*
X31610437Y57788944D01*
X31603729Y57776691D01*
X31592700Y57747271D01*
X31554569Y57699420D01*
X31495595Y57683121D01*
X31438303Y57704599D01*
X31407300Y57747271D01*
X31396271Y57776691D01*
X31389563Y57788944D01*
X31313207Y57890826D01*
X31303326Y57900707D01*
X31201444Y57977063D01*
X31189191Y57983771D01*
X31069181Y58028761D01*
X31057193Y58031612D01*
X31005646Y58037211D01*
X31000312Y58037500D01*
X30769680Y58037500D01*
X30756995Y58033378D01*
X30754000Y58029257D01*
X30754000Y57145000D01*
X30735093Y57086809D01*
X30685593Y57050845D01*
X30655000Y57046000D01*
X29565681Y57046000D01*
X29552996Y57041878D01*
X29550001Y57037757D01*
X29550001Y57012191D01*
X29550290Y57006851D01*
X29555889Y56955306D01*
X29558738Y56943321D01*
X29603729Y56823309D01*
X29610437Y56811056D01*
X29686793Y56709174D01*
X29696674Y56699293D01*
X29713449Y56686721D01*
X29748675Y56636693D01*
X29747767Y56575514D01*
X29711073Y56526553D01*
X29654077Y56508500D01*
X28407500Y56508500D01*
X28349309Y56527407D01*
X28313345Y56576907D01*
X28308500Y56607500D01*
X28308500Y57569680D01*
X29550000Y57569680D01*
X29554122Y57556995D01*
X29558243Y57554000D01*
X30230320Y57554000D01*
X30243005Y57558122D01*
X30246000Y57562243D01*
X30246000Y58021819D01*
X30241878Y58034504D01*
X30237757Y58037499D01*
X29999691Y58037499D01*
X29994351Y58037210D01*
X29942806Y58031611D01*
X29930821Y58028762D01*
X29810809Y57983771D01*
X29798556Y57977063D01*
X29696674Y57900707D01*
X29686793Y57890826D01*
X29610437Y57788944D01*
X29603729Y57776691D01*
X29558739Y57656681D01*
X29555888Y57644693D01*
X29550289Y57593146D01*
X29550000Y57587812D01*
X29550000Y57569680D01*
X28308500Y57569680D01*
X28308500Y58296210D01*
X28327407Y58354401D01*
X28372748Y58388910D01*
X28442106Y58414911D01*
X28442107Y58414911D01*
X28448705Y58417385D01*
X28565261Y58504739D01*
X28652615Y58621295D01*
X28656105Y58630603D01*
X28701565Y58751869D01*
X28703745Y58757684D01*
X28710500Y58819866D01*
X28710500Y58848234D01*
X28968000Y58848234D01*
X28968948Y58838612D01*
X28980603Y58780017D01*
X28987922Y58762349D01*
X29032341Y58695870D01*
X29045870Y58682341D01*
X29112349Y58637922D01*
X29130017Y58630603D01*
X29188612Y58618948D01*
X29198234Y58618000D01*
X29710320Y58618000D01*
X29723005Y58622122D01*
X29726000Y58626243D01*
X29726000Y58633680D01*
X30234000Y58633680D01*
X30238122Y58620995D01*
X30242243Y58618000D01*
X30761766Y58618000D01*
X30771388Y58618948D01*
X30829983Y58630603D01*
X30847651Y58637922D01*
X30914130Y58682341D01*
X30927659Y58695870D01*
X30972078Y58762349D01*
X30979397Y58780017D01*
X30991052Y58838612D01*
X30992000Y58848234D01*
X32508000Y58848234D01*
X32508948Y58838612D01*
X32520603Y58780017D01*
X32527922Y58762349D01*
X32572341Y58695870D01*
X32585870Y58682341D01*
X32652349Y58637922D01*
X32670017Y58630603D01*
X32728612Y58618948D01*
X32738234Y58618000D01*
X33250320Y58618000D01*
X33263005Y58622122D01*
X33266000Y58626243D01*
X33266000Y58633680D01*
X33774000Y58633680D01*
X33778122Y58620995D01*
X33782243Y58618000D01*
X34301766Y58618000D01*
X34311388Y58618948D01*
X34369983Y58630603D01*
X34387651Y58637922D01*
X34454130Y58682341D01*
X34467659Y58695870D01*
X34512078Y58762349D01*
X34519397Y58780017D01*
X34527323Y58819866D01*
X34789500Y58819866D01*
X34796255Y58757684D01*
X34798435Y58751869D01*
X34843896Y58630603D01*
X34847385Y58621295D01*
X34934739Y58504739D01*
X35051295Y58417385D01*
X35187684Y58366255D01*
X35193856Y58365585D01*
X35193858Y58365584D01*
X35229837Y58361676D01*
X35249866Y58359500D01*
X36870134Y58359500D01*
X36890163Y58361676D01*
X36926142Y58365584D01*
X36926144Y58365585D01*
X36932316Y58366255D01*
X37068705Y58417385D01*
X37185261Y58504739D01*
X37189491Y58510383D01*
X37189495Y58510387D01*
X37250780Y58592159D01*
X37300808Y58627384D01*
X37361986Y58626476D01*
X37409220Y58592159D01*
X37470505Y58510387D01*
X37470509Y58510383D01*
X37474739Y58504739D01*
X37591295Y58417385D01*
X37727684Y58366255D01*
X37733856Y58365585D01*
X37733858Y58365584D01*
X37769837Y58361676D01*
X37789866Y58359500D01*
X39410134Y58359500D01*
X39430163Y58361676D01*
X39466142Y58365584D01*
X39466144Y58365585D01*
X39472316Y58366255D01*
X39608705Y58417385D01*
X39725261Y58504739D01*
X39729491Y58510383D01*
X39729495Y58510387D01*
X39790780Y58592159D01*
X39840808Y58627384D01*
X39901986Y58626476D01*
X39949220Y58592159D01*
X40010505Y58510387D01*
X40010509Y58510383D01*
X40014739Y58504739D01*
X40131295Y58417385D01*
X40267684Y58366255D01*
X40273856Y58365585D01*
X40273858Y58365584D01*
X40309837Y58361676D01*
X40329866Y58359500D01*
X41950134Y58359500D01*
X41970163Y58361676D01*
X42006142Y58365584D01*
X42006144Y58365585D01*
X42012316Y58366255D01*
X42148705Y58417385D01*
X42265261Y58504739D01*
X42352615Y58621295D01*
X42356105Y58630603D01*
X42401565Y58751869D01*
X42403745Y58757684D01*
X42410500Y58819866D01*
X42410500Y58848234D01*
X42668000Y58848234D01*
X42668948Y58838612D01*
X42680603Y58780017D01*
X42687922Y58762349D01*
X42732341Y58695870D01*
X42745870Y58682341D01*
X42812349Y58637922D01*
X42830017Y58630603D01*
X42888612Y58618948D01*
X42898234Y58618000D01*
X43410320Y58618000D01*
X43423005Y58622122D01*
X43426000Y58626243D01*
X43426000Y58633680D01*
X43934000Y58633680D01*
X43938122Y58620995D01*
X43942243Y58618000D01*
X44461766Y58618000D01*
X44471388Y58618948D01*
X44529983Y58630603D01*
X44547651Y58637922D01*
X44614130Y58682341D01*
X44627659Y58695870D01*
X44672078Y58762349D01*
X44679397Y58780017D01*
X44691052Y58838612D01*
X44692000Y58848234D01*
X44692000Y59360320D01*
X44687878Y59373005D01*
X44683757Y59376000D01*
X43949680Y59376000D01*
X43936995Y59371878D01*
X43934000Y59367757D01*
X43934000Y58633680D01*
X43426000Y58633680D01*
X43426000Y59360320D01*
X43421878Y59373005D01*
X43417757Y59376000D01*
X42683680Y59376000D01*
X42670995Y59371878D01*
X42668000Y59367757D01*
X42668000Y58848234D01*
X42410500Y58848234D01*
X42410500Y59899680D01*
X42668000Y59899680D01*
X42672122Y59886995D01*
X42676243Y59884000D01*
X43410320Y59884000D01*
X43423005Y59888122D01*
X43426000Y59892243D01*
X43426000Y59899680D01*
X43934000Y59899680D01*
X43938122Y59886995D01*
X43942243Y59884000D01*
X44676320Y59884000D01*
X44689005Y59888122D01*
X44692000Y59892243D01*
X44692000Y60411766D01*
X44691052Y60421388D01*
X44679397Y60479983D01*
X44672078Y60497651D01*
X44627659Y60564130D01*
X44614130Y60577659D01*
X44547651Y60622078D01*
X44529983Y60629397D01*
X44471388Y60641052D01*
X44461766Y60642000D01*
X43949680Y60642000D01*
X43936995Y60637878D01*
X43934000Y60633757D01*
X43934000Y59899680D01*
X43426000Y59899680D01*
X43426000Y60626320D01*
X43421878Y60639005D01*
X43417757Y60642000D01*
X42898234Y60642000D01*
X42888612Y60641052D01*
X42830017Y60629397D01*
X42812349Y60622078D01*
X42745870Y60577659D01*
X42732341Y60564130D01*
X42687922Y60497651D01*
X42680603Y60479983D01*
X42668948Y60421388D01*
X42668000Y60411766D01*
X42668000Y59899680D01*
X42410500Y59899680D01*
X42410500Y60440134D01*
X42407122Y60471230D01*
X42404416Y60496142D01*
X42404415Y60496144D01*
X42403745Y60502316D01*
X42375107Y60578708D01*
X42355089Y60632106D01*
X42355089Y60632107D01*
X42352615Y60638705D01*
X42265261Y60755261D01*
X42259617Y60759491D01*
X42259613Y60759495D01*
X42177841Y60820780D01*
X42142616Y60870808D01*
X42143524Y60931986D01*
X42177841Y60979220D01*
X42259613Y61040505D01*
X42259617Y61040509D01*
X42265261Y61044739D01*
X42352615Y61161295D01*
X42356105Y61170603D01*
X42401565Y61291869D01*
X42403745Y61297684D01*
X42410500Y61359866D01*
X42410500Y61388234D01*
X42668000Y61388234D01*
X42668948Y61378612D01*
X42680603Y61320017D01*
X42687922Y61302349D01*
X42732341Y61235870D01*
X42745870Y61222341D01*
X42812349Y61177922D01*
X42830017Y61170603D01*
X42888612Y61158948D01*
X42898234Y61158000D01*
X43410320Y61158000D01*
X43423005Y61162122D01*
X43426000Y61166243D01*
X43426000Y61173680D01*
X43934000Y61173680D01*
X43938122Y61160995D01*
X43942243Y61158000D01*
X44461766Y61158000D01*
X44471388Y61158948D01*
X44529983Y61170603D01*
X44547651Y61177922D01*
X44614130Y61222341D01*
X44627659Y61235870D01*
X44672078Y61302349D01*
X44679397Y61320017D01*
X44691052Y61378612D01*
X44692000Y61388234D01*
X44692000Y61900320D01*
X44687878Y61913005D01*
X44683757Y61916000D01*
X43949680Y61916000D01*
X43936995Y61911878D01*
X43934000Y61907757D01*
X43934000Y61173680D01*
X43426000Y61173680D01*
X43426000Y61900320D01*
X43421878Y61913005D01*
X43417757Y61916000D01*
X42683680Y61916000D01*
X42670995Y61911878D01*
X42668000Y61907757D01*
X42668000Y61388234D01*
X42410500Y61388234D01*
X42410500Y62439680D01*
X42668000Y62439680D01*
X42672122Y62426995D01*
X42676243Y62424000D01*
X43410320Y62424000D01*
X43423005Y62428122D01*
X43426000Y62432243D01*
X43426000Y62439680D01*
X43934000Y62439680D01*
X43938122Y62426995D01*
X43942243Y62424000D01*
X44676320Y62424000D01*
X44689005Y62428122D01*
X44692000Y62432243D01*
X44692000Y62951766D01*
X44691052Y62961388D01*
X44679397Y63019983D01*
X44672078Y63037651D01*
X44627659Y63104130D01*
X44614130Y63117659D01*
X44547651Y63162078D01*
X44529983Y63169397D01*
X44471388Y63181052D01*
X44461766Y63182000D01*
X43949680Y63182000D01*
X43936995Y63177878D01*
X43934000Y63173757D01*
X43934000Y62439680D01*
X43426000Y62439680D01*
X43426000Y63166320D01*
X43421878Y63179005D01*
X43417757Y63182000D01*
X42898234Y63182000D01*
X42888612Y63181052D01*
X42830017Y63169397D01*
X42812349Y63162078D01*
X42745870Y63117659D01*
X42732341Y63104130D01*
X42687922Y63037651D01*
X42680603Y63019983D01*
X42668948Y62961388D01*
X42668000Y62951766D01*
X42668000Y62439680D01*
X42410500Y62439680D01*
X42410500Y62980134D01*
X42403745Y63042316D01*
X42357258Y63166320D01*
X42355089Y63172106D01*
X42355089Y63172107D01*
X42352615Y63178705D01*
X42265261Y63295261D01*
X42148705Y63382615D01*
X42012316Y63433745D01*
X42006144Y63434415D01*
X42006142Y63434416D01*
X41970163Y63438324D01*
X41950134Y63440500D01*
X40329866Y63440500D01*
X40309837Y63438324D01*
X40273858Y63434416D01*
X40273856Y63434415D01*
X40267684Y63433745D01*
X40131295Y63382615D01*
X40014739Y63295261D01*
X40010509Y63289617D01*
X40010505Y63289613D01*
X39949220Y63207841D01*
X39899192Y63172616D01*
X39838014Y63173524D01*
X39790780Y63207841D01*
X39729495Y63289613D01*
X39729491Y63289617D01*
X39725261Y63295261D01*
X39608705Y63382615D01*
X39472316Y63433745D01*
X39466144Y63434415D01*
X39466142Y63434416D01*
X39430163Y63438324D01*
X39410134Y63440500D01*
X37789866Y63440500D01*
X37769837Y63438324D01*
X37733858Y63434416D01*
X37733856Y63434415D01*
X37727684Y63433745D01*
X37591295Y63382615D01*
X37474739Y63295261D01*
X37470509Y63289617D01*
X37470505Y63289613D01*
X37409220Y63207841D01*
X37359192Y63172616D01*
X37298014Y63173524D01*
X37250780Y63207841D01*
X37189495Y63289613D01*
X37189491Y63289617D01*
X37185261Y63295261D01*
X37068705Y63382615D01*
X36932316Y63433745D01*
X36926144Y63434415D01*
X36926142Y63434416D01*
X36890163Y63438324D01*
X36870134Y63440500D01*
X35249866Y63440500D01*
X35229837Y63438324D01*
X35193858Y63434416D01*
X35193856Y63434415D01*
X35187684Y63433745D01*
X35051295Y63382615D01*
X34934739Y63295261D01*
X34847385Y63178705D01*
X34844911Y63172107D01*
X34844911Y63172106D01*
X34842742Y63166320D01*
X34796255Y63042316D01*
X34789500Y62980134D01*
X34789500Y61359866D01*
X34796255Y61297684D01*
X34798435Y61291869D01*
X34843896Y61170603D01*
X34847385Y61161295D01*
X34934739Y61044739D01*
X34940383Y61040509D01*
X34940387Y61040505D01*
X35022159Y60979220D01*
X35057384Y60929192D01*
X35056476Y60868014D01*
X35022159Y60820780D01*
X34940387Y60759495D01*
X34940383Y60759491D01*
X34934739Y60755261D01*
X34847385Y60638705D01*
X34844911Y60632107D01*
X34844911Y60632106D01*
X34824893Y60578708D01*
X34796255Y60502316D01*
X34795585Y60496144D01*
X34795584Y60496142D01*
X34792878Y60471230D01*
X34789500Y60440134D01*
X34789500Y58819866D01*
X34527323Y58819866D01*
X34531052Y58838612D01*
X34532000Y58848234D01*
X34532000Y59360320D01*
X34527878Y59373005D01*
X34523757Y59376000D01*
X33789680Y59376000D01*
X33776995Y59371878D01*
X33774000Y59367757D01*
X33774000Y58633680D01*
X33266000Y58633680D01*
X33266000Y59360320D01*
X33261878Y59373005D01*
X33257757Y59376000D01*
X32523680Y59376000D01*
X32510995Y59371878D01*
X32508000Y59367757D01*
X32508000Y58848234D01*
X30992000Y58848234D01*
X30992000Y59360320D01*
X30987878Y59373005D01*
X30983757Y59376000D01*
X30249680Y59376000D01*
X30236995Y59371878D01*
X30234000Y59367757D01*
X30234000Y58633680D01*
X29726000Y58633680D01*
X29726000Y59360320D01*
X29721878Y59373005D01*
X29717757Y59376000D01*
X28983680Y59376000D01*
X28970995Y59371878D01*
X28968000Y59367757D01*
X28968000Y58848234D01*
X28710500Y58848234D01*
X28710500Y59899680D01*
X28968000Y59899680D01*
X28972122Y59886995D01*
X28976243Y59884000D01*
X29710320Y59884000D01*
X29723005Y59888122D01*
X29726000Y59892243D01*
X29726000Y59899680D01*
X30234000Y59899680D01*
X30238122Y59886995D01*
X30242243Y59884000D01*
X30976320Y59884000D01*
X30989005Y59888122D01*
X30992000Y59892243D01*
X30992000Y59899680D01*
X32508000Y59899680D01*
X32512122Y59886995D01*
X32516243Y59884000D01*
X33250320Y59884000D01*
X33263005Y59888122D01*
X33266000Y59892243D01*
X33266000Y59899680D01*
X33774000Y59899680D01*
X33778122Y59886995D01*
X33782243Y59884000D01*
X34516320Y59884000D01*
X34529005Y59888122D01*
X34532000Y59892243D01*
X34532000Y60411766D01*
X34531052Y60421388D01*
X34519397Y60479983D01*
X34512078Y60497651D01*
X34467659Y60564130D01*
X34454130Y60577659D01*
X34387651Y60622078D01*
X34369983Y60629397D01*
X34311388Y60641052D01*
X34301766Y60642000D01*
X33789680Y60642000D01*
X33776995Y60637878D01*
X33774000Y60633757D01*
X33774000Y59899680D01*
X33266000Y59899680D01*
X33266000Y60626320D01*
X33261878Y60639005D01*
X33257757Y60642000D01*
X32738234Y60642000D01*
X32728612Y60641052D01*
X32670017Y60629397D01*
X32652349Y60622078D01*
X32585870Y60577659D01*
X32572341Y60564130D01*
X32527922Y60497651D01*
X32520603Y60479983D01*
X32508948Y60421388D01*
X32508000Y60411766D01*
X32508000Y59899680D01*
X30992000Y59899680D01*
X30992000Y60411766D01*
X30991052Y60421388D01*
X30979397Y60479983D01*
X30972078Y60497651D01*
X30927659Y60564130D01*
X30914130Y60577659D01*
X30847651Y60622078D01*
X30829983Y60629397D01*
X30771388Y60641052D01*
X30761766Y60642000D01*
X30249680Y60642000D01*
X30236995Y60637878D01*
X30234000Y60633757D01*
X30234000Y59899680D01*
X29726000Y59899680D01*
X29726000Y60626320D01*
X29721878Y60639005D01*
X29717757Y60642000D01*
X29198234Y60642000D01*
X29188612Y60641052D01*
X29130017Y60629397D01*
X29112349Y60622078D01*
X29045870Y60577659D01*
X29032341Y60564130D01*
X28987922Y60497651D01*
X28980603Y60479983D01*
X28968948Y60421388D01*
X28968000Y60411766D01*
X28968000Y59899680D01*
X28710500Y59899680D01*
X28710500Y60440134D01*
X28707122Y60471230D01*
X28704416Y60496142D01*
X28704415Y60496144D01*
X28703745Y60502316D01*
X28675107Y60578708D01*
X28655089Y60632106D01*
X28655089Y60632107D01*
X28652615Y60638705D01*
X28565261Y60755261D01*
X28559617Y60759491D01*
X28559613Y60759495D01*
X28477841Y60820780D01*
X28442616Y60870808D01*
X28443524Y60931986D01*
X28477841Y60979220D01*
X28559613Y61040505D01*
X28559617Y61040509D01*
X28565261Y61044739D01*
X28652615Y61161295D01*
X28656105Y61170603D01*
X28701565Y61291869D01*
X28703745Y61297684D01*
X28710500Y61359866D01*
X28710500Y61388234D01*
X28968000Y61388234D01*
X28968948Y61378612D01*
X28980603Y61320017D01*
X28987922Y61302349D01*
X29032341Y61235870D01*
X29045870Y61222341D01*
X29112349Y61177922D01*
X29130017Y61170603D01*
X29188612Y61158948D01*
X29198234Y61158000D01*
X29710320Y61158000D01*
X29723005Y61162122D01*
X29726000Y61166243D01*
X29726000Y61173680D01*
X30234000Y61173680D01*
X30238122Y61160995D01*
X30242243Y61158000D01*
X30761766Y61158000D01*
X30771388Y61158948D01*
X30829983Y61170603D01*
X30847651Y61177922D01*
X30914130Y61222341D01*
X30927659Y61235870D01*
X30972078Y61302349D01*
X30979397Y61320017D01*
X30991052Y61378612D01*
X30992000Y61388234D01*
X32508000Y61388234D01*
X32508948Y61378612D01*
X32520603Y61320017D01*
X32527922Y61302349D01*
X32572341Y61235870D01*
X32585870Y61222341D01*
X32652349Y61177922D01*
X32670017Y61170603D01*
X32728612Y61158948D01*
X32738234Y61158000D01*
X33250320Y61158000D01*
X33263005Y61162122D01*
X33266000Y61166243D01*
X33266000Y61173680D01*
X33774000Y61173680D01*
X33778122Y61160995D01*
X33782243Y61158000D01*
X34301766Y61158000D01*
X34311388Y61158948D01*
X34369983Y61170603D01*
X34387651Y61177922D01*
X34454130Y61222341D01*
X34467659Y61235870D01*
X34512078Y61302349D01*
X34519397Y61320017D01*
X34531052Y61378612D01*
X34532000Y61388234D01*
X34532000Y61900320D01*
X34527878Y61913005D01*
X34523757Y61916000D01*
X33789680Y61916000D01*
X33776995Y61911878D01*
X33774000Y61907757D01*
X33774000Y61173680D01*
X33266000Y61173680D01*
X33266000Y61900320D01*
X33261878Y61913005D01*
X33257757Y61916000D01*
X32523680Y61916000D01*
X32510995Y61911878D01*
X32508000Y61907757D01*
X32508000Y61388234D01*
X30992000Y61388234D01*
X30992000Y61900320D01*
X30987878Y61913005D01*
X30983757Y61916000D01*
X30249680Y61916000D01*
X30236995Y61911878D01*
X30234000Y61907757D01*
X30234000Y61173680D01*
X29726000Y61173680D01*
X29726000Y61900320D01*
X29721878Y61913005D01*
X29717757Y61916000D01*
X28983680Y61916000D01*
X28970995Y61911878D01*
X28968000Y61907757D01*
X28968000Y61388234D01*
X28710500Y61388234D01*
X28710500Y62439680D01*
X28968000Y62439680D01*
X28972122Y62426995D01*
X28976243Y62424000D01*
X29710320Y62424000D01*
X29723005Y62428122D01*
X29726000Y62432243D01*
X29726000Y62439680D01*
X30234000Y62439680D01*
X30238122Y62426995D01*
X30242243Y62424000D01*
X30976320Y62424000D01*
X30989005Y62428122D01*
X30992000Y62432243D01*
X30992000Y62439680D01*
X32508000Y62439680D01*
X32512122Y62426995D01*
X32516243Y62424000D01*
X33250320Y62424000D01*
X33263005Y62428122D01*
X33266000Y62432243D01*
X33266000Y62439680D01*
X33774000Y62439680D01*
X33778122Y62426995D01*
X33782243Y62424000D01*
X34516320Y62424000D01*
X34529005Y62428122D01*
X34532000Y62432243D01*
X34532000Y62951766D01*
X34531052Y62961388D01*
X34519397Y63019983D01*
X34512078Y63037651D01*
X34467659Y63104130D01*
X34454130Y63117659D01*
X34387651Y63162078D01*
X34369983Y63169397D01*
X34311388Y63181052D01*
X34301766Y63182000D01*
X33789680Y63182000D01*
X33776995Y63177878D01*
X33774000Y63173757D01*
X33774000Y62439680D01*
X33266000Y62439680D01*
X33266000Y63166320D01*
X33261878Y63179005D01*
X33257757Y63182000D01*
X32738234Y63182000D01*
X32728612Y63181052D01*
X32670017Y63169397D01*
X32652349Y63162078D01*
X32585870Y63117659D01*
X32572341Y63104130D01*
X32527922Y63037651D01*
X32520603Y63019983D01*
X32508948Y62961388D01*
X32508000Y62951766D01*
X32508000Y62439680D01*
X30992000Y62439680D01*
X30992000Y62951766D01*
X30991052Y62961388D01*
X30979397Y63019983D01*
X30972078Y63037651D01*
X30927659Y63104130D01*
X30914130Y63117659D01*
X30847651Y63162078D01*
X30829983Y63169397D01*
X30771388Y63181052D01*
X30761766Y63182000D01*
X30249680Y63182000D01*
X30236995Y63177878D01*
X30234000Y63173757D01*
X30234000Y62439680D01*
X29726000Y62439680D01*
X29726000Y63166320D01*
X29721878Y63179005D01*
X29717757Y63182000D01*
X29198234Y63182000D01*
X29188612Y63181052D01*
X29130017Y63169397D01*
X29112349Y63162078D01*
X29045870Y63117659D01*
X29032341Y63104130D01*
X28987922Y63037651D01*
X28980603Y63019983D01*
X28968948Y62961388D01*
X28968000Y62951766D01*
X28968000Y62439680D01*
X28710500Y62439680D01*
X28710500Y62980134D01*
X28703745Y63042316D01*
X28657258Y63166320D01*
X28655089Y63172106D01*
X28655089Y63172107D01*
X28652615Y63178705D01*
X28565261Y63295261D01*
X28448705Y63382615D01*
X28312316Y63433745D01*
X28306144Y63434415D01*
X28306142Y63434416D01*
X28270163Y63438324D01*
X28250134Y63440500D01*
X26629866Y63440500D01*
X26609837Y63438324D01*
X26573858Y63434416D01*
X26573856Y63434415D01*
X26567684Y63433745D01*
X26431295Y63382615D01*
X26314739Y63295261D01*
X26227385Y63178705D01*
X26224911Y63172107D01*
X26224911Y63172106D01*
X26222742Y63166320D01*
X26176255Y63042316D01*
X26169500Y62980134D01*
X26169500Y61359866D01*
X26176255Y61297684D01*
X26178435Y61291869D01*
X26223896Y61170603D01*
X26227385Y61161295D01*
X26314739Y61044739D01*
X26320383Y61040509D01*
X26320387Y61040505D01*
X26402159Y60979220D01*
X26437384Y60929192D01*
X26436476Y60868014D01*
X26402159Y60820780D01*
X26320387Y60759495D01*
X26320383Y60759491D01*
X26314739Y60755261D01*
X26227385Y60638705D01*
X26224911Y60632107D01*
X26224911Y60632106D01*
X26204893Y60578708D01*
X26176255Y60502316D01*
X26175585Y60496144D01*
X26175584Y60496142D01*
X26172878Y60471230D01*
X26169500Y60440134D01*
X26169500Y58819866D01*
X26176255Y58757684D01*
X26178435Y58751869D01*
X26223896Y58630603D01*
X26227385Y58621295D01*
X26314739Y58504739D01*
X26431295Y58417385D01*
X26567684Y58366255D01*
X26573856Y58365585D01*
X26573858Y58365584D01*
X26590750Y58363749D01*
X26603192Y58362398D01*
X26659000Y58337317D01*
X26689408Y58284223D01*
X26691500Y58263977D01*
X26691500Y56607500D01*
X26672593Y56549309D01*
X26623093Y56513345D01*
X26592500Y56508500D01*
X25506993Y56508500D01*
X25448802Y56527407D01*
X25412838Y56576907D01*
X25408876Y56598175D01*
X25408500Y56598134D01*
X25402416Y56654142D01*
X25402415Y56654144D01*
X25401745Y56660316D01*
X25355258Y56784320D01*
X25353089Y56790106D01*
X25353089Y56790107D01*
X25350615Y56796705D01*
X25263261Y56913261D01*
X25146705Y57000615D01*
X25010316Y57051745D01*
X25004144Y57052415D01*
X25004142Y57052416D01*
X24968163Y57056324D01*
X24948134Y57058500D01*
X23551866Y57058500D01*
X23531837Y57056324D01*
X23495858Y57052416D01*
X23495856Y57052415D01*
X23489684Y57051745D01*
X23353295Y57000615D01*
X23236739Y56913261D01*
X23149385Y56796705D01*
X23146911Y56790107D01*
X23146911Y56790106D01*
X23144742Y56784320D01*
X23098255Y56660316D01*
X23097585Y56654144D01*
X23097584Y56654142D01*
X23095841Y56638093D01*
X23091500Y56598134D01*
X23091500Y54801866D01*
X23098255Y54739684D01*
X23100435Y54733869D01*
X23145896Y54612603D01*
X23149385Y54603295D01*
X23153610Y54597658D01*
X23153613Y54597652D01*
X23188093Y54551646D01*
X23207862Y54493742D01*
X23189820Y54435277D01*
X23178877Y54422269D01*
X22193179Y53436571D01*
X22192442Y53435842D01*
X22127982Y53372718D01*
X22124984Y53368066D01*
X22103762Y53335136D01*
X22097918Y53327002D01*
X22070013Y53292046D01*
X22067606Y53287066D01*
X22067605Y53287065D01*
X22054698Y53260365D01*
X22048782Y53249823D01*
X22029724Y53220251D01*
X22022175Y53199510D01*
X22014430Y53178232D01*
X22010534Y53169008D01*
X21991068Y53128740D01*
X21989824Y53123351D01*
X21989820Y53123340D01*
X21983152Y53094457D01*
X21979720Y53082869D01*
X21973554Y53065927D01*
X21967686Y53049804D01*
X21966992Y53044312D01*
X21966992Y53044311D01*
X21962081Y53005437D01*
X21960326Y52995581D01*
X21950265Y52952004D01*
X21950125Y52911928D01*
X21950124Y52911534D01*
X21950091Y52910524D01*
X21949989Y52909720D01*
X21949989Y52872917D01*
X21949632Y52770619D01*
X21949894Y52769449D01*
X21949989Y52767687D01*
X21949989Y52669500D01*
X21931082Y52611309D01*
X21881582Y52575345D01*
X21850989Y52570500D01*
X20669866Y52570500D01*
X20649837Y52568324D01*
X20613858Y52564416D01*
X20613856Y52564415D01*
X20607684Y52563745D01*
X20601869Y52561565D01*
X20563148Y52547049D01*
X20471295Y52512615D01*
X20354739Y52425261D01*
X20350509Y52419617D01*
X20350505Y52419613D01*
X20289220Y52337841D01*
X20239192Y52302616D01*
X20178014Y52303524D01*
X20130780Y52337841D01*
X20069495Y52419613D01*
X20069491Y52419617D01*
X20065261Y52425261D01*
X19948705Y52512615D01*
X19856853Y52547049D01*
X19818131Y52561565D01*
X19812316Y52563745D01*
X19806144Y52564415D01*
X19806142Y52564416D01*
X19770163Y52568324D01*
X19750134Y52570500D01*
X18129866Y52570500D01*
X18109837Y52568324D01*
X18073858Y52564416D01*
X18073856Y52564415D01*
X18067684Y52563745D01*
X18061869Y52561565D01*
X18023148Y52547049D01*
X17931295Y52512615D01*
X17814739Y52425261D01*
X17810509Y52419617D01*
X17810505Y52419613D01*
X17749220Y52337841D01*
X17699192Y52302616D01*
X17638014Y52303524D01*
X17590780Y52337841D01*
X17529495Y52419613D01*
X17529491Y52419617D01*
X17525261Y52425261D01*
X17408705Y52512615D01*
X17316853Y52547049D01*
X17278131Y52561565D01*
X17272316Y52563745D01*
X17266144Y52564415D01*
X17266142Y52564416D01*
X17230163Y52568324D01*
X17210134Y52570500D01*
X15907612Y52570500D01*
X15849421Y52589407D01*
X15813457Y52638907D01*
X15810086Y52652478D01*
X15807115Y52669500D01*
X15801615Y52701015D01*
X15800861Y52706123D01*
X15793819Y52764319D01*
X15793819Y52764321D01*
X15793102Y52770242D01*
X15789779Y52779036D01*
X15784861Y52797013D01*
X15784269Y52800404D01*
X15783243Y52806283D01*
X15780845Y52811747D01*
X15780843Y52811752D01*
X15757268Y52865457D01*
X15755309Y52870257D01*
X15741511Y52906775D01*
X15732487Y52930656D01*
X15729109Y52935571D01*
X15729107Y52935575D01*
X15727162Y52938404D01*
X15718101Y52954684D01*
X15716715Y52957840D01*
X15714316Y52963305D01*
X15674954Y53014603D01*
X15671958Y53018726D01*
X15635357Y53071981D01*
X15588270Y53113934D01*
X15584124Y53117847D01*
X15084002Y53617969D01*
X17831026Y53617969D01*
X17871058Y53451223D01*
X17895847Y53403196D01*
X17935418Y53326528D01*
X17949709Y53298839D01*
X18062439Y53169615D01*
X18202739Y53071010D01*
X18362509Y53008718D01*
X18368424Y53007939D01*
X18368425Y53007939D01*
X18462333Y52995576D01*
X18493294Y52991500D01*
X19697368Y52991500D01*
X19755557Y52972594D01*
X19843248Y52908882D01*
X19924027Y52872917D01*
X20012974Y52833315D01*
X20012978Y52833314D01*
X20017712Y52831206D01*
X20022782Y52830128D01*
X20022783Y52830128D01*
X20057917Y52822660D01*
X20204513Y52791500D01*
X20395487Y52791500D01*
X20542083Y52822660D01*
X20577217Y52830128D01*
X20577218Y52830128D01*
X20582288Y52831206D01*
X20587022Y52833314D01*
X20587026Y52833315D01*
X20669998Y52870257D01*
X20756752Y52908882D01*
X20911253Y53021134D01*
X20914719Y53024983D01*
X20914723Y53024987D01*
X21035568Y53159200D01*
X21039040Y53163056D01*
X21086109Y53244582D01*
X21131933Y53323950D01*
X21131935Y53323955D01*
X21134527Y53328444D01*
X21172521Y53445376D01*
X21191940Y53505140D01*
X21191941Y53505145D01*
X21193542Y53510072D01*
X21213504Y53700000D01*
X21193542Y53889928D01*
X21191941Y53894855D01*
X21191940Y53894860D01*
X21140770Y54052341D01*
X21134527Y54071556D01*
X21131935Y54076045D01*
X21131933Y54076050D01*
X21055736Y54208026D01*
X21039040Y54236944D01*
X20985006Y54296955D01*
X20914723Y54375013D01*
X20914719Y54375017D01*
X20911253Y54378866D01*
X20907054Y54381917D01*
X20853389Y54420908D01*
X20817425Y54470408D01*
X20817426Y54531593D01*
X20853390Y54581093D01*
X20911580Y54600000D01*
X21419766Y54600000D01*
X21429388Y54600948D01*
X21487983Y54612603D01*
X21505651Y54619922D01*
X21572130Y54664341D01*
X21585659Y54677870D01*
X21630078Y54744349D01*
X21637397Y54762017D01*
X21649052Y54820612D01*
X21650000Y54830234D01*
X21650000Y55430320D01*
X21645878Y55443005D01*
X21641757Y55446000D01*
X19865680Y55446000D01*
X19852995Y55441878D01*
X19850000Y55437757D01*
X19850000Y54830234D01*
X19850948Y54820612D01*
X19862603Y54762017D01*
X19869922Y54744349D01*
X19914341Y54677870D01*
X19919803Y54672408D01*
X19947580Y54617891D01*
X19938009Y54557459D01*
X19890066Y54511963D01*
X19847986Y54493228D01*
X19847982Y54493226D01*
X19843248Y54491118D01*
X19755557Y54427406D01*
X19697368Y54408500D01*
X18496997Y54408500D01*
X18456614Y54403613D01*
X18375680Y54393819D01*
X18375677Y54393818D01*
X18369758Y54393102D01*
X18209344Y54332487D01*
X18204427Y54329107D01*
X18204424Y54329106D01*
X18106821Y54262025D01*
X18068019Y54235357D01*
X17953943Y54107321D01*
X17951153Y54102051D01*
X17951152Y54102050D01*
X17890766Y53988000D01*
X17873700Y53955769D01*
X17831924Y53789451D01*
X17831026Y53617969D01*
X15084002Y53617969D01*
X12732290Y55969680D01*
X19850000Y55969680D01*
X19854122Y55956995D01*
X19858243Y55954000D01*
X20480320Y55954000D01*
X20493005Y55958122D01*
X20496000Y55962243D01*
X20496000Y55969680D01*
X21004000Y55969680D01*
X21008122Y55956995D01*
X21012243Y55954000D01*
X21634320Y55954000D01*
X21647005Y55958122D01*
X21650000Y55962243D01*
X21650000Y56569766D01*
X21649052Y56579388D01*
X21637397Y56637983D01*
X21630078Y56655651D01*
X21585659Y56722130D01*
X21572130Y56735659D01*
X21505651Y56780078D01*
X21487983Y56787397D01*
X21429388Y56799052D01*
X21419766Y56800000D01*
X21019680Y56800000D01*
X21006995Y56795878D01*
X21004000Y56791757D01*
X21004000Y55969680D01*
X20496000Y55969680D01*
X20496000Y56784320D01*
X20491878Y56797005D01*
X20487757Y56800000D01*
X20080234Y56800000D01*
X20070612Y56799052D01*
X20012017Y56787397D01*
X19994349Y56780078D01*
X19927870Y56735659D01*
X19914341Y56722130D01*
X19869922Y56655651D01*
X19862603Y56637983D01*
X19850948Y56579388D01*
X19850000Y56569766D01*
X19850000Y55969680D01*
X12732290Y55969680D01*
X11962192Y56739778D01*
X11960088Y56741882D01*
X11911375Y56780078D01*
X11882979Y56802343D01*
X11859229Y56820965D01*
X11763376Y56864245D01*
X11708378Y56889078D01*
X11708376Y56889079D01*
X11702938Y56891534D01*
X11534325Y56922785D01*
X11466017Y56918846D01*
X11369086Y56913257D01*
X11369083Y56913257D01*
X11363126Y56912913D01*
X11199222Y56862490D01*
X11123685Y56817282D01*
X11057201Y56777493D01*
X11057199Y56777491D01*
X11052077Y56774426D01*
X11047835Y56770228D01*
X11047831Y56770225D01*
X10934430Y56658005D01*
X10930186Y56653805D01*
X10927068Y56648716D01*
X10927065Y56648713D01*
X10884583Y56579388D01*
X10840586Y56507591D01*
X10788449Y56344224D01*
X10776786Y56173137D01*
X10806268Y56004205D01*
X10808667Y55998739D01*
X10808668Y55998737D01*
X10866874Y55866142D01*
X10875196Y55847184D01*
X10955500Y55742530D01*
X14217026Y52481004D01*
X14244803Y52426487D01*
X14235232Y52366055D01*
X14191967Y52322790D01*
X14147022Y52312000D01*
X14129680Y52312000D01*
X14116995Y52307878D01*
X14114000Y52303757D01*
X14114000Y50303680D01*
X14118122Y50290995D01*
X14122243Y50288000D01*
X14292500Y50288000D01*
X14350691Y50269093D01*
X14386655Y50219593D01*
X14391500Y50189000D01*
X14391500Y46327999D01*
X14391271Y46321266D01*
X14387275Y46262648D01*
X14388300Y46256776D01*
X14388300Y46256772D01*
X14398381Y46199013D01*
X14399138Y46193886D01*
X14406898Y46129758D01*
X14409006Y46124180D01*
X14409007Y46124175D01*
X14410222Y46120960D01*
X14415139Y46102987D01*
X14416757Y46093716D01*
X14442511Y46035047D01*
X14442722Y46034567D01*
X14444680Y46029771D01*
X14467513Y45969344D01*
X14472844Y45961587D01*
X14481900Y45945317D01*
X14485685Y45936695D01*
X14489321Y45931957D01*
X14525009Y45885448D01*
X14528057Y45881253D01*
X14564643Y45828019D01*
X14569097Y45824051D01*
X14611739Y45786058D01*
X14615885Y45782144D01*
X15020525Y45377503D01*
X15048302Y45322987D01*
X15038731Y45262555D01*
X14995466Y45219290D01*
X14950521Y45208500D01*
X14634478Y45208500D01*
X14576287Y45227407D01*
X14564474Y45237496D01*
X13237016Y46564954D01*
X13209239Y46619471D01*
X13208020Y46634958D01*
X13208020Y50189000D01*
X13226927Y50247191D01*
X13276427Y50283155D01*
X13307020Y50288000D01*
X13590320Y50288000D01*
X13603005Y50292122D01*
X13606000Y50296243D01*
X13606000Y52296320D01*
X13601878Y52309005D01*
X13597757Y52312000D01*
X13307020Y52312000D01*
X13248829Y52330907D01*
X13212865Y52380407D01*
X13208020Y52411000D01*
X13208020Y52415488D01*
X13208249Y52422221D01*
X13211840Y52474904D01*
X13212246Y52480854D01*
X13201135Y52544517D01*
X13200381Y52549625D01*
X13198673Y52563745D01*
X13192622Y52613744D01*
X13189299Y52622538D01*
X13184381Y52640515D01*
X13183790Y52643903D01*
X13183789Y52643906D01*
X13182763Y52649785D01*
X13160284Y52700994D01*
X13156796Y52708941D01*
X13154838Y52713738D01*
X13134116Y52768576D01*
X13132007Y52774158D01*
X13126676Y52781915D01*
X13117615Y52798195D01*
X13113835Y52806807D01*
X13074511Y52858054D01*
X13071463Y52862249D01*
X13040863Y52906773D01*
X13034877Y52915483D01*
X12987781Y52957444D01*
X12983635Y52961357D01*
X10710577Y55234415D01*
X10681780Y55256995D01*
X10614415Y55309815D01*
X10614416Y55309815D01*
X10609718Y55313498D01*
X10513865Y55356778D01*
X10458867Y55381611D01*
X10458865Y55381612D01*
X10453427Y55384067D01*
X10284814Y55415318D01*
X10216506Y55411379D01*
X10119575Y55405790D01*
X10119572Y55405790D01*
X10113615Y55405446D01*
X9949711Y55355023D01*
X9874174Y55309815D01*
X9807690Y55270026D01*
X9807688Y55270024D01*
X9802566Y55266959D01*
X9798324Y55262761D01*
X9798320Y55262758D01*
X9769679Y55234415D01*
X9680675Y55146338D01*
X9677557Y55141249D01*
X9677554Y55141246D01*
X9616963Y55042370D01*
X9591075Y55000124D01*
X9538938Y54836757D01*
X9527275Y54665670D01*
X9556757Y54496738D01*
X9559156Y54491272D01*
X9559157Y54491270D01*
X9610191Y54375013D01*
X9625685Y54339717D01*
X9705989Y54235063D01*
X11201548Y52739504D01*
X11229325Y52684987D01*
X11219754Y52624555D01*
X11176489Y52581290D01*
X11131544Y52570500D01*
X10509866Y52570500D01*
X10489837Y52568324D01*
X10453858Y52564416D01*
X10453856Y52564415D01*
X10447684Y52563745D01*
X10441869Y52561565D01*
X10403148Y52547049D01*
X10311295Y52512615D01*
X10194739Y52425261D01*
X10190509Y52419617D01*
X10190505Y52419613D01*
X10129220Y52337841D01*
X10079192Y52302616D01*
X10018014Y52303524D01*
X9970780Y52337841D01*
X9909495Y52419613D01*
X9909491Y52419617D01*
X9905261Y52425261D01*
X9788705Y52512615D01*
X9696853Y52547049D01*
X9658131Y52561565D01*
X9652316Y52563745D01*
X9646144Y52564415D01*
X9646142Y52564416D01*
X9610163Y52568324D01*
X9590134Y52570500D01*
X7969866Y52570500D01*
X7949837Y52568324D01*
X7913858Y52564416D01*
X7913856Y52564415D01*
X7907684Y52563745D01*
X7901869Y52561565D01*
X7863148Y52547049D01*
X7771295Y52512615D01*
X7654739Y52425261D01*
X7650509Y52419617D01*
X7650505Y52419613D01*
X7589220Y52337841D01*
X7539192Y52302616D01*
X7478014Y52303524D01*
X7430780Y52337841D01*
X7369495Y52419613D01*
X7369491Y52419617D01*
X7365261Y52425261D01*
X7248705Y52512615D01*
X7156853Y52547049D01*
X7118131Y52561565D01*
X7112316Y52563745D01*
X7106144Y52564415D01*
X7106142Y52564416D01*
X7070163Y52568324D01*
X7050134Y52570500D01*
X5429866Y52570500D01*
X5409837Y52568324D01*
X5373858Y52564416D01*
X5373856Y52564415D01*
X5367684Y52563745D01*
X5361869Y52561565D01*
X5323148Y52547049D01*
X5231295Y52512615D01*
X5114739Y52425261D01*
X5110509Y52419617D01*
X5110505Y52419613D01*
X5049220Y52337841D01*
X4999192Y52302616D01*
X4938014Y52303524D01*
X4890780Y52337841D01*
X4829495Y52419613D01*
X4829491Y52419617D01*
X4825261Y52425261D01*
X4708705Y52512615D01*
X4616853Y52547049D01*
X4578131Y52561565D01*
X4572316Y52563745D01*
X4566144Y52564415D01*
X4566142Y52564416D01*
X4530163Y52568324D01*
X4510134Y52570500D01*
X2889866Y52570500D01*
X2869837Y52568324D01*
X2833858Y52564416D01*
X2833856Y52564415D01*
X2827684Y52563745D01*
X2821869Y52561565D01*
X2783148Y52547049D01*
X2691295Y52512615D01*
X2574739Y52425261D01*
X2570509Y52419617D01*
X2570505Y52419613D01*
X2509220Y52337841D01*
X2459192Y52302616D01*
X2398014Y52303524D01*
X2350780Y52337841D01*
X2289495Y52419613D01*
X2289491Y52419617D01*
X2285261Y52425261D01*
X2168705Y52512615D01*
X2076853Y52547049D01*
X2038131Y52561565D01*
X2032316Y52563745D01*
X2026144Y52564415D01*
X2026142Y52564416D01*
X1990163Y52568324D01*
X1970134Y52570500D01*
X349866Y52570500D01*
X329837Y52568324D01*
X293858Y52564416D01*
X293856Y52564415D01*
X287684Y52563745D01*
X281869Y52561565D01*
X243148Y52547049D01*
X151295Y52512615D01*
X34739Y52425261D01*
X-52615Y52308705D01*
X-55089Y52302107D01*
X-55089Y52302106D01*
X-57258Y52296320D01*
X-103745Y52172316D01*
X-110500Y52110134D01*
X-110500Y50489866D01*
X-103745Y50427684D01*
X-101565Y50421869D01*
X-56104Y50300603D01*
X-52615Y50291295D01*
X34739Y50174739D01*
X151295Y50087385D01*
X157893Y50084911D01*
X157894Y50084911D01*
X212591Y50064406D01*
X287684Y50036255D01*
X293856Y50035585D01*
X293858Y50035584D01*
X329837Y50031676D01*
X349866Y50029500D01*
X1970134Y50029500D01*
X1990163Y50031676D01*
X2026142Y50035584D01*
X2026144Y50035585D01*
X2032316Y50036255D01*
X2107409Y50064406D01*
X2162106Y50084911D01*
X2162107Y50084911D01*
X2168705Y50087385D01*
X2285261Y50174739D01*
X2289491Y50180383D01*
X2289495Y50180387D01*
X2350780Y50262159D01*
X2400808Y50297384D01*
X2461986Y50296476D01*
X2509220Y50262159D01*
X2570505Y50180387D01*
X2570509Y50180383D01*
X2574739Y50174739D01*
X2691295Y50087385D01*
X2697893Y50084911D01*
X2697894Y50084911D01*
X2827252Y50036417D01*
X2875103Y49998286D01*
X2891500Y49943717D01*
X2891500Y43075900D01*
X2872593Y43017709D01*
X2862504Y43005896D01*
X-3947Y40139445D01*
X-3950Y40139441D01*
X-565308Y39578084D01*
X-566045Y39577355D01*
X-630507Y39514229D01*
X-633505Y39509577D01*
X-654727Y39476647D01*
X-660571Y39468513D01*
X-688476Y39433557D01*
X-690883Y39428577D01*
X-690884Y39428576D01*
X-703791Y39401876D01*
X-709707Y39391334D01*
X-728765Y39361762D01*
X-730657Y39356563D01*
X-744059Y39319743D01*
X-747955Y39310519D01*
X-767421Y39270251D01*
X-768665Y39264862D01*
X-768669Y39264851D01*
X-775337Y39235968D01*
X-778769Y39224380D01*
X-788909Y39196519D01*
X-790803Y39191315D01*
X-791497Y39185823D01*
X-791497Y39185822D01*
X-796408Y39146948D01*
X-798163Y39137092D01*
X-808224Y39093515D01*
X-808243Y39087975D01*
X-808365Y39053045D01*
X-808398Y39052035D01*
X-808500Y39051231D01*
X-808500Y39014428D01*
X-808857Y38912130D01*
X-808595Y38910960D01*
X-808500Y38909198D01*
X-808500Y37703094D01*
X-827407Y37644903D01*
X-855405Y37618909D01*
X-926689Y37574797D01*
X-1050617Y37450653D01*
X-1053445Y37446064D01*
X-1104236Y37412193D01*
X-1131024Y37408500D01*
X-1390927Y37408500D01*
X-1391963Y37408505D01*
X-1482221Y37409450D01*
X-1525932Y37400000D01*
X-1535798Y37398384D01*
X-1558866Y37395796D01*
X-1574757Y37394014D01*
X-1574759Y37394014D01*
X-1580255Y37393397D01*
X-1613495Y37381822D01*
X-1625125Y37378553D01*
X-1654099Y37372289D01*
X-1654100Y37372289D01*
X-1659510Y37371119D01*
X-1664524Y37368781D01*
X-1700042Y37352219D01*
X-1709323Y37348451D01*
X-1751552Y37333745D01*
X-1781402Y37315093D01*
X-1792004Y37309337D01*
X-1823902Y37294462D01*
X-1828275Y37291070D01*
X-1828278Y37291068D01*
X-1842579Y37279974D01*
X-1859232Y37267057D01*
X-1867445Y37261327D01*
X-1900685Y37240558D01*
X-1900690Y37240554D01*
X-1905376Y37237626D01*
X-1909301Y37233728D01*
X-1934094Y37209109D01*
X-1934838Y37208413D01*
X-1935470Y37207922D01*
X-1961460Y37181932D01*
X-2034082Y37109815D01*
X-2034725Y37108802D01*
X-2035901Y37107491D01*
X-2565310Y36578082D01*
X-2566047Y36577353D01*
X-2630507Y36514229D01*
X-2654171Y36477509D01*
X-2654727Y36476647D01*
X-2660571Y36468513D01*
X-2688476Y36433557D01*
X-2690883Y36428577D01*
X-2690884Y36428576D01*
X-2703791Y36401876D01*
X-2709707Y36391334D01*
X-2728765Y36361762D01*
X-2730657Y36356563D01*
X-2744059Y36319743D01*
X-2747955Y36310519D01*
X-2767421Y36270251D01*
X-2768665Y36264862D01*
X-2768669Y36264851D01*
X-2775337Y36235968D01*
X-2778769Y36224380D01*
X-2786431Y36203327D01*
X-2790803Y36191315D01*
X-2791497Y36185823D01*
X-2791497Y36185822D01*
X-2796408Y36146948D01*
X-2798163Y36137092D01*
X-2808224Y36093515D01*
X-2808243Y36087975D01*
X-2808365Y36053045D01*
X-2808398Y36052035D01*
X-2808500Y36051231D01*
X-2808500Y36014428D01*
X-2808857Y35912130D01*
X-2808595Y35910960D01*
X-2808500Y35909198D01*
X-2808500Y28409122D01*
X-2808505Y28408085D01*
X-2809451Y28317779D01*
X-4471500Y28317779D01*
X-4471500Y61168731D01*
X4041500Y61168731D01*
X4041501Y60581270D01*
X4052384Y60476371D01*
X4054099Y60471231D01*
X4054099Y60471230D01*
X4065366Y60437459D01*
X4107898Y60309974D01*
X4110922Y60305087D01*
X4110924Y60305083D01*
X4193570Y60171529D01*
X4200203Y60160811D01*
X4324347Y60036883D01*
X4473671Y59944839D01*
X4479128Y59943029D01*
X4479130Y59943028D01*
X4594683Y59904701D01*
X4640165Y59889615D01*
X4743769Y59879000D01*
X5246231Y59879000D01*
X5756230Y59879001D01*
X5861129Y59889884D01*
X5890492Y59899680D01*
X6022068Y59943577D01*
X6022069Y59943577D01*
X6027526Y59945398D01*
X6032413Y59948422D01*
X6032417Y59948424D01*
X6171799Y60034677D01*
X6176689Y60037703D01*
X6220435Y60081526D01*
X6274928Y60109351D01*
X6335368Y60099832D01*
X6378671Y60056605D01*
X6389500Y60011583D01*
X6389500Y58819866D01*
X6396255Y58757684D01*
X6398435Y58751869D01*
X6443896Y58630603D01*
X6447385Y58621295D01*
X6534739Y58504739D01*
X6651295Y58417385D01*
X6787684Y58366255D01*
X6793856Y58365585D01*
X6793858Y58365584D01*
X6829837Y58361676D01*
X6849866Y58359500D01*
X8470134Y58359500D01*
X8490163Y58361676D01*
X8526142Y58365584D01*
X8526144Y58365585D01*
X8532316Y58366255D01*
X8668705Y58417385D01*
X8785261Y58504739D01*
X8789491Y58510383D01*
X8789495Y58510387D01*
X8850780Y58592159D01*
X8900808Y58627384D01*
X8961986Y58626476D01*
X9009220Y58592159D01*
X9070505Y58510387D01*
X9070509Y58510383D01*
X9074739Y58504739D01*
X9191295Y58417385D01*
X9327684Y58366255D01*
X9333856Y58365585D01*
X9333858Y58365584D01*
X9369837Y58361676D01*
X9389866Y58359500D01*
X11010134Y58359500D01*
X11030163Y58361676D01*
X11066142Y58365584D01*
X11066144Y58365585D01*
X11072316Y58366255D01*
X11208705Y58417385D01*
X11325261Y58504739D01*
X11329491Y58510383D01*
X11329495Y58510387D01*
X11390780Y58592159D01*
X11440808Y58627384D01*
X11501986Y58626476D01*
X11549220Y58592159D01*
X11610505Y58510387D01*
X11610509Y58510383D01*
X11614739Y58504739D01*
X11731295Y58417385D01*
X11867684Y58366255D01*
X11873856Y58365585D01*
X11873858Y58365584D01*
X11909837Y58361676D01*
X11929866Y58359500D01*
X13550134Y58359500D01*
X13570163Y58361676D01*
X13606142Y58365584D01*
X13606144Y58365585D01*
X13612316Y58366255D01*
X13748705Y58417385D01*
X13865261Y58504739D01*
X13952615Y58621295D01*
X13956105Y58630603D01*
X14001565Y58751869D01*
X14003745Y58757684D01*
X14010500Y58819866D01*
X15009500Y58819866D01*
X15016255Y58757684D01*
X15018435Y58751869D01*
X15063896Y58630603D01*
X15067385Y58621295D01*
X15154739Y58504739D01*
X15271295Y58417385D01*
X15407684Y58366255D01*
X15413856Y58365585D01*
X15413858Y58365584D01*
X15449837Y58361676D01*
X15469866Y58359500D01*
X17090134Y58359500D01*
X17110163Y58361676D01*
X17146142Y58365584D01*
X17146144Y58365585D01*
X17152316Y58366255D01*
X17288705Y58417385D01*
X17405261Y58504739D01*
X17409491Y58510383D01*
X17409495Y58510387D01*
X17470780Y58592159D01*
X17520808Y58627384D01*
X17581986Y58626476D01*
X17629220Y58592159D01*
X17690505Y58510387D01*
X17690509Y58510383D01*
X17694739Y58504739D01*
X17811295Y58417385D01*
X17947684Y58366255D01*
X17953856Y58365585D01*
X17953858Y58365584D01*
X17989837Y58361676D01*
X18009866Y58359500D01*
X19630134Y58359500D01*
X19650163Y58361676D01*
X19686142Y58365584D01*
X19686144Y58365585D01*
X19692316Y58366255D01*
X19828705Y58417385D01*
X19945261Y58504739D01*
X19949491Y58510383D01*
X19949495Y58510387D01*
X20010780Y58592159D01*
X20060808Y58627384D01*
X20121986Y58626476D01*
X20169220Y58592159D01*
X20230505Y58510387D01*
X20230509Y58510383D01*
X20234739Y58504739D01*
X20351295Y58417385D01*
X20487684Y58366255D01*
X20493856Y58365585D01*
X20493858Y58365584D01*
X20529837Y58361676D01*
X20549866Y58359500D01*
X22170134Y58359500D01*
X22190163Y58361676D01*
X22226142Y58365584D01*
X22226144Y58365585D01*
X22232316Y58366255D01*
X22368705Y58417385D01*
X22485261Y58504739D01*
X22572615Y58621295D01*
X22576105Y58630603D01*
X22621565Y58751869D01*
X22623745Y58757684D01*
X22630500Y58819866D01*
X22630500Y58848234D01*
X23888000Y58848234D01*
X23888948Y58838612D01*
X23900603Y58780017D01*
X23907922Y58762349D01*
X23952341Y58695870D01*
X23965870Y58682341D01*
X24032349Y58637922D01*
X24050017Y58630603D01*
X24108612Y58618948D01*
X24118234Y58618000D01*
X24630320Y58618000D01*
X24643005Y58622122D01*
X24646000Y58626243D01*
X24646000Y58633680D01*
X25154000Y58633680D01*
X25158122Y58620995D01*
X25162243Y58618000D01*
X25681766Y58618000D01*
X25691388Y58618948D01*
X25749983Y58630603D01*
X25767651Y58637922D01*
X25834130Y58682341D01*
X25847659Y58695870D01*
X25892078Y58762349D01*
X25899397Y58780017D01*
X25911052Y58838612D01*
X25912000Y58848234D01*
X25912000Y59360320D01*
X25907878Y59373005D01*
X25903757Y59376000D01*
X25169680Y59376000D01*
X25156995Y59371878D01*
X25154000Y59367757D01*
X25154000Y58633680D01*
X24646000Y58633680D01*
X24646000Y59360320D01*
X24641878Y59373005D01*
X24637757Y59376000D01*
X23903680Y59376000D01*
X23890995Y59371878D01*
X23888000Y59367757D01*
X23888000Y58848234D01*
X22630500Y58848234D01*
X22630500Y59899680D01*
X23888000Y59899680D01*
X23892122Y59886995D01*
X23896243Y59884000D01*
X24630320Y59884000D01*
X24643005Y59888122D01*
X24646000Y59892243D01*
X24646000Y59899680D01*
X25154000Y59899680D01*
X25158122Y59886995D01*
X25162243Y59884000D01*
X25896320Y59884000D01*
X25909005Y59888122D01*
X25912000Y59892243D01*
X25912000Y60411766D01*
X25911052Y60421388D01*
X25899397Y60479983D01*
X25892078Y60497651D01*
X25847659Y60564130D01*
X25834130Y60577659D01*
X25767651Y60622078D01*
X25749983Y60629397D01*
X25691388Y60641052D01*
X25681766Y60642000D01*
X25169680Y60642000D01*
X25156995Y60637878D01*
X25154000Y60633757D01*
X25154000Y59899680D01*
X24646000Y59899680D01*
X24646000Y60626320D01*
X24641878Y60639005D01*
X24637757Y60642000D01*
X24118234Y60642000D01*
X24108612Y60641052D01*
X24050017Y60629397D01*
X24032349Y60622078D01*
X23965870Y60577659D01*
X23952341Y60564130D01*
X23907922Y60497651D01*
X23900603Y60479983D01*
X23888948Y60421388D01*
X23888000Y60411766D01*
X23888000Y59899680D01*
X22630500Y59899680D01*
X22630500Y60440134D01*
X22627122Y60471230D01*
X22624416Y60496142D01*
X22624415Y60496144D01*
X22623745Y60502316D01*
X22595107Y60578708D01*
X22575089Y60632106D01*
X22575089Y60632107D01*
X22572615Y60638705D01*
X22485261Y60755261D01*
X22479617Y60759491D01*
X22479613Y60759495D01*
X22397841Y60820780D01*
X22362616Y60870808D01*
X22363524Y60931986D01*
X22397841Y60979220D01*
X22479613Y61040505D01*
X22479617Y61040509D01*
X22485261Y61044739D01*
X22572615Y61161295D01*
X22576105Y61170603D01*
X22621565Y61291869D01*
X22623745Y61297684D01*
X22630500Y61359866D01*
X22630500Y61388234D01*
X23888000Y61388234D01*
X23888948Y61378612D01*
X23900603Y61320017D01*
X23907922Y61302349D01*
X23952341Y61235870D01*
X23965870Y61222341D01*
X24032349Y61177922D01*
X24050017Y61170603D01*
X24108612Y61158948D01*
X24118234Y61158000D01*
X24630320Y61158000D01*
X24643005Y61162122D01*
X24646000Y61166243D01*
X24646000Y61173680D01*
X25154000Y61173680D01*
X25158122Y61160995D01*
X25162243Y61158000D01*
X25681766Y61158000D01*
X25691388Y61158948D01*
X25749983Y61170603D01*
X25767651Y61177922D01*
X25834130Y61222341D01*
X25847659Y61235870D01*
X25892078Y61302349D01*
X25899397Y61320017D01*
X25911052Y61378612D01*
X25912000Y61388234D01*
X25912000Y61900320D01*
X25907878Y61913005D01*
X25903757Y61916000D01*
X25169680Y61916000D01*
X25156995Y61911878D01*
X25154000Y61907757D01*
X25154000Y61173680D01*
X24646000Y61173680D01*
X24646000Y61900320D01*
X24641878Y61913005D01*
X24637757Y61916000D01*
X23903680Y61916000D01*
X23890995Y61911878D01*
X23888000Y61907757D01*
X23888000Y61388234D01*
X22630500Y61388234D01*
X22630500Y62439680D01*
X23888000Y62439680D01*
X23892122Y62426995D01*
X23896243Y62424000D01*
X24630320Y62424000D01*
X24643005Y62428122D01*
X24646000Y62432243D01*
X24646000Y62439680D01*
X25154000Y62439680D01*
X25158122Y62426995D01*
X25162243Y62424000D01*
X25896320Y62424000D01*
X25909005Y62428122D01*
X25912000Y62432243D01*
X25912000Y62951766D01*
X25911052Y62961388D01*
X25899397Y63019983D01*
X25892078Y63037651D01*
X25847659Y63104130D01*
X25834130Y63117659D01*
X25767651Y63162078D01*
X25749983Y63169397D01*
X25691388Y63181052D01*
X25681766Y63182000D01*
X25169680Y63182000D01*
X25156995Y63177878D01*
X25154000Y63173757D01*
X25154000Y62439680D01*
X24646000Y62439680D01*
X24646000Y63166320D01*
X24641878Y63179005D01*
X24637757Y63182000D01*
X24118234Y63182000D01*
X24108612Y63181052D01*
X24050017Y63169397D01*
X24032349Y63162078D01*
X23965870Y63117659D01*
X23952341Y63104130D01*
X23907922Y63037651D01*
X23900603Y63019983D01*
X23888948Y62961388D01*
X23888000Y62951766D01*
X23888000Y62439680D01*
X22630500Y62439680D01*
X22630500Y62980134D01*
X22623745Y63042316D01*
X22577258Y63166320D01*
X22575089Y63172106D01*
X22575089Y63172107D01*
X22572615Y63178705D01*
X22485261Y63295261D01*
X22368705Y63382615D01*
X22232316Y63433745D01*
X22226144Y63434415D01*
X22226142Y63434416D01*
X22190163Y63438324D01*
X22170134Y63440500D01*
X20549866Y63440500D01*
X20529837Y63438324D01*
X20493858Y63434416D01*
X20493856Y63434415D01*
X20487684Y63433745D01*
X20351295Y63382615D01*
X20234739Y63295261D01*
X20230509Y63289617D01*
X20230505Y63289613D01*
X20169220Y63207841D01*
X20119192Y63172616D01*
X20058014Y63173524D01*
X20010780Y63207841D01*
X19949495Y63289613D01*
X19949491Y63289617D01*
X19945261Y63295261D01*
X19828705Y63382615D01*
X19692316Y63433745D01*
X19686144Y63434415D01*
X19686142Y63434416D01*
X19650163Y63438324D01*
X19630134Y63440500D01*
X18009866Y63440500D01*
X17989837Y63438324D01*
X17953858Y63434416D01*
X17953856Y63434415D01*
X17947684Y63433745D01*
X17811295Y63382615D01*
X17694739Y63295261D01*
X17690509Y63289617D01*
X17690505Y63289613D01*
X17629220Y63207841D01*
X17579192Y63172616D01*
X17518014Y63173524D01*
X17470780Y63207841D01*
X17409495Y63289613D01*
X17409491Y63289617D01*
X17405261Y63295261D01*
X17288705Y63382615D01*
X17152316Y63433745D01*
X17146144Y63434415D01*
X17146142Y63434416D01*
X17110163Y63438324D01*
X17090134Y63440500D01*
X15469866Y63440500D01*
X15449837Y63438324D01*
X15413858Y63434416D01*
X15413856Y63434415D01*
X15407684Y63433745D01*
X15271295Y63382615D01*
X15154739Y63295261D01*
X15067385Y63178705D01*
X15064911Y63172107D01*
X15064911Y63172106D01*
X15062742Y63166320D01*
X15016255Y63042316D01*
X15009500Y62980134D01*
X15009500Y61359866D01*
X15016255Y61297684D01*
X15018435Y61291869D01*
X15063896Y61170603D01*
X15067385Y61161295D01*
X15154739Y61044739D01*
X15160383Y61040509D01*
X15160387Y61040505D01*
X15242159Y60979220D01*
X15277384Y60929192D01*
X15276476Y60868014D01*
X15242159Y60820780D01*
X15160387Y60759495D01*
X15160383Y60759491D01*
X15154739Y60755261D01*
X15067385Y60638705D01*
X15064911Y60632107D01*
X15064911Y60632106D01*
X15044893Y60578708D01*
X15016255Y60502316D01*
X15015585Y60496144D01*
X15015584Y60496142D01*
X15012878Y60471230D01*
X15009500Y60440134D01*
X15009500Y58819866D01*
X14010500Y58819866D01*
X14010500Y60440134D01*
X14007122Y60471230D01*
X14004416Y60496142D01*
X14004415Y60496144D01*
X14003745Y60502316D01*
X13975107Y60578708D01*
X13955089Y60632106D01*
X13955089Y60632107D01*
X13952615Y60638705D01*
X13865261Y60755261D01*
X13859617Y60759491D01*
X13859613Y60759495D01*
X13777841Y60820780D01*
X13742616Y60870808D01*
X13743524Y60931986D01*
X13777841Y60979220D01*
X13859613Y61040505D01*
X13859617Y61040509D01*
X13865261Y61044739D01*
X13952615Y61161295D01*
X13956105Y61170603D01*
X14001565Y61291869D01*
X14003745Y61297684D01*
X14010500Y61359866D01*
X14010500Y62980134D01*
X14003745Y63042316D01*
X13957258Y63166320D01*
X13955089Y63172106D01*
X13955089Y63172107D01*
X13952615Y63178705D01*
X13865261Y63295261D01*
X13748705Y63382615D01*
X13612316Y63433745D01*
X13606144Y63434415D01*
X13606142Y63434416D01*
X13570163Y63438324D01*
X13550134Y63440500D01*
X11929866Y63440500D01*
X11909837Y63438324D01*
X11873858Y63434416D01*
X11873856Y63434415D01*
X11867684Y63433745D01*
X11731295Y63382615D01*
X11614739Y63295261D01*
X11610509Y63289617D01*
X11610505Y63289613D01*
X11549220Y63207841D01*
X11499192Y63172616D01*
X11438014Y63173524D01*
X11390780Y63207841D01*
X11329495Y63289613D01*
X11329491Y63289617D01*
X11325261Y63295261D01*
X11208705Y63382615D01*
X11072316Y63433745D01*
X11066144Y63434415D01*
X11066142Y63434416D01*
X11030163Y63438324D01*
X11010134Y63440500D01*
X9389866Y63440500D01*
X9369837Y63438324D01*
X9333858Y63434416D01*
X9333856Y63434415D01*
X9327684Y63433745D01*
X9191295Y63382615D01*
X9074739Y63295261D01*
X9070509Y63289617D01*
X9070505Y63289613D01*
X9009220Y63207841D01*
X8959192Y63172616D01*
X8898014Y63173524D01*
X8850780Y63207841D01*
X8789495Y63289613D01*
X8789491Y63289617D01*
X8785261Y63295261D01*
X8668705Y63382615D01*
X8532316Y63433745D01*
X8526144Y63434415D01*
X8526142Y63434416D01*
X8490163Y63438324D01*
X8470134Y63440500D01*
X6849866Y63440500D01*
X6829837Y63438324D01*
X6793858Y63434416D01*
X6793856Y63434415D01*
X6787684Y63433745D01*
X6651295Y63382615D01*
X6534739Y63295261D01*
X6533275Y63297214D01*
X6488608Y63274456D01*
X6428176Y63284027D01*
X6388936Y63320142D01*
X6302823Y63459299D01*
X6299797Y63464189D01*
X6175653Y63588117D01*
X6026329Y63680161D01*
X6020872Y63681971D01*
X6020870Y63681972D01*
X5905317Y63720299D01*
X5859835Y63735385D01*
X5756231Y63746000D01*
X5253769Y63746000D01*
X4743770Y63745999D01*
X4638871Y63735116D01*
X4472474Y63679602D01*
X4467587Y63676578D01*
X4467583Y63676576D01*
X4334029Y63593930D01*
X4323311Y63587297D01*
X4199383Y63463153D01*
X4107339Y63313829D01*
X4052115Y63147335D01*
X4041500Y63043731D01*
X4041501Y62456270D01*
X4052384Y62351371D01*
X4107898Y62184974D01*
X4110922Y62180087D01*
X4110924Y62180083D01*
X4193570Y62046529D01*
X4200203Y62035811D01*
X4324347Y61911883D01*
X4329241Y61908866D01*
X4329244Y61908864D01*
X4348953Y61896715D01*
X4388567Y61850085D01*
X4393208Y61789076D01*
X4361101Y61736991D01*
X4349100Y61728256D01*
X4323311Y61712297D01*
X4199383Y61588153D01*
X4107339Y61438829D01*
X4052115Y61272335D01*
X4041500Y61168731D01*
X-4471500Y61168731D01*
X-4471500Y65332500D01*
X-4452593Y65390691D01*
X-4403093Y65426655D01*
X-4372500Y65431500D01*
X55172500Y65431500D01*
X55230691Y65412593D01*
G37*
%TD.AperFunction*%
%TA.AperFunction,Conductor*%
G36*
X-713400Y35786466D02*
G01*
X-662746Y35769665D01*
X-626698Y35757708D01*
X-577419Y35721442D01*
X-558868Y35663136D01*
X-578131Y35605062D01*
X-623114Y35571042D01*
X-689191Y35546271D01*
X-701444Y35539563D01*
X-803326Y35463207D01*
X-813207Y35453326D01*
X-889563Y35351444D01*
X-896271Y35339191D01*
X-941261Y35219181D01*
X-944112Y35207193D01*
X-949711Y35155646D01*
X-950000Y35150312D01*
X-950000Y35132180D01*
X-945878Y35119495D01*
X-941757Y35116500D01*
X934319Y35116500D01*
X947004Y35120622D01*
X949999Y35124743D01*
X949999Y35150309D01*
X949710Y35155649D01*
X944111Y35207194D01*
X941262Y35219179D01*
X896271Y35339191D01*
X889563Y35351444D01*
X813207Y35453326D01*
X803326Y35463207D01*
X701444Y35539563D01*
X689191Y35546271D01*
X623297Y35570974D01*
X575446Y35609105D01*
X559147Y35668080D01*
X580625Y35725371D01*
X626718Y35757585D01*
X636727Y35760924D01*
X713122Y35786411D01*
X744452Y35791500D01*
X1388533Y35791500D01*
X1446724Y35772593D01*
X1482688Y35723093D01*
X1482688Y35661907D01*
X1458598Y35622558D01*
X1349383Y35513153D01*
X1346366Y35508258D01*
X1261092Y35369917D01*
X1257339Y35363829D01*
X1202115Y35197335D01*
X1191500Y35093731D01*
X1191501Y34506270D01*
X1202384Y34401371D01*
X1204099Y34396231D01*
X1204099Y34396230D01*
X1256077Y34240432D01*
X1257898Y34234974D01*
X1260922Y34230087D01*
X1260924Y34230083D01*
X1347177Y34090700D01*
X1347180Y34090697D01*
X1350203Y34085811D01*
X1354273Y34081748D01*
X1362443Y34073592D01*
X1390268Y34019099D01*
X1391500Y34003528D01*
X1391500Y32750231D01*
X1405920Y32603167D01*
X1407317Y32598540D01*
X1407319Y32598530D01*
X1426164Y32536115D01*
X1424883Y32474943D01*
X1387891Y32426207D01*
X1331390Y32408500D01*
X876541Y32408500D01*
X818350Y32427407D01*
X782386Y32476907D01*
X782386Y32538093D01*
X806537Y32577504D01*
X813207Y32584174D01*
X889563Y32686056D01*
X896271Y32698309D01*
X941261Y32818319D01*
X944112Y32830307D01*
X949711Y32881854D01*
X950000Y32887188D01*
X950000Y32905320D01*
X945878Y32918005D01*
X941757Y32921000D01*
X-934319Y32921000D01*
X-947004Y32916878D01*
X-949999Y32912757D01*
X-949999Y32887191D01*
X-949710Y32881851D01*
X-944111Y32830306D01*
X-941262Y32818321D01*
X-896271Y32698309D01*
X-889563Y32686056D01*
X-813207Y32584174D01*
X-803326Y32574293D01*
X-701444Y32497937D01*
X-689191Y32491229D01*
X-623297Y32466526D01*
X-575446Y32428395D01*
X-559147Y32369420D01*
X-580625Y32312129D01*
X-626718Y32279915D01*
X-777526Y32229602D01*
X-782413Y32226578D01*
X-782417Y32226576D01*
X-886133Y32162394D01*
X-926689Y32137297D01*
X-1022437Y32041382D01*
X-1076928Y32013558D01*
X-1137368Y32023077D01*
X-1180670Y32066304D01*
X-1191500Y32111326D01*
X-1191500Y33444680D01*
X-950000Y33444680D01*
X-945878Y33431995D01*
X-941757Y33429000D01*
X-269680Y33429000D01*
X-256995Y33433122D01*
X-254000Y33437243D01*
X-254000Y33444680D01*
X254000Y33444680D01*
X258122Y33431995D01*
X262243Y33429000D01*
X934319Y33429000D01*
X947004Y33433122D01*
X949999Y33437243D01*
X949999Y33462809D01*
X949710Y33468149D01*
X944111Y33519694D01*
X941262Y33531679D01*
X896271Y33651691D01*
X889563Y33663944D01*
X813207Y33765826D01*
X803326Y33775707D01*
X701444Y33852063D01*
X689191Y33858771D01*
X569181Y33903761D01*
X557193Y33906612D01*
X505646Y33912211D01*
X500312Y33912500D01*
X269680Y33912500D01*
X256995Y33908378D01*
X254000Y33904257D01*
X254000Y33444680D01*
X-254000Y33444680D01*
X-254000Y33896819D01*
X-258122Y33909504D01*
X-262243Y33912499D01*
X-500309Y33912499D01*
X-505649Y33912210D01*
X-557194Y33906611D01*
X-569179Y33903762D01*
X-689191Y33858771D01*
X-701444Y33852063D01*
X-803326Y33775707D01*
X-813207Y33765826D01*
X-889563Y33663944D01*
X-896271Y33651691D01*
X-941261Y33531681D01*
X-944112Y33519693D01*
X-949711Y33468146D01*
X-950000Y33462812D01*
X-950000Y33444680D01*
X-1191500Y33444680D01*
X-1191500Y34574691D01*
X-949999Y34574691D01*
X-949710Y34569351D01*
X-944111Y34517806D01*
X-941262Y34505821D01*
X-896271Y34385809D01*
X-889563Y34373556D01*
X-813207Y34271674D01*
X-803326Y34261793D01*
X-701444Y34185437D01*
X-689191Y34178729D01*
X-569181Y34133739D01*
X-557193Y34130888D01*
X-505646Y34125289D01*
X-500312Y34125000D01*
X-269680Y34125000D01*
X-256995Y34129122D01*
X-254000Y34133243D01*
X-254000Y34140681D01*
X254000Y34140681D01*
X258122Y34127996D01*
X262243Y34125001D01*
X500309Y34125001D01*
X505649Y34125290D01*
X557194Y34130889D01*
X569179Y34133738D01*
X689191Y34178729D01*
X701444Y34185437D01*
X803326Y34261793D01*
X813207Y34271674D01*
X889563Y34373556D01*
X896271Y34385809D01*
X941261Y34505819D01*
X944112Y34517807D01*
X949711Y34569354D01*
X950000Y34574688D01*
X950000Y34592820D01*
X945878Y34605505D01*
X941757Y34608500D01*
X269680Y34608500D01*
X256995Y34604378D01*
X254000Y34600257D01*
X254000Y34140681D01*
X-254000Y34140681D01*
X-254000Y34592820D01*
X-258122Y34605505D01*
X-262243Y34608500D01*
X-934319Y34608500D01*
X-947004Y34604378D01*
X-949999Y34600257D01*
X-949999Y34574691D01*
X-1191500Y34574691D01*
X-1191500Y35624100D01*
X-1172593Y35682291D01*
X-1162504Y35694104D01*
X-1094104Y35762504D01*
X-1039587Y35790281D01*
X-1024100Y35791500D01*
X-744566Y35791500D01*
X-713400Y35786466D01*
G37*
%TD.AperFunction*%
%TA.AperFunction,Conductor*%
G36*
X38021986Y50296476D02*
G01*
X38069220Y50262159D01*
X38130505Y50180387D01*
X38130509Y50180383D01*
X38134739Y50174739D01*
X38251295Y50087385D01*
X38257893Y50084911D01*
X38257894Y50084911D01*
X38387252Y50036417D01*
X38435103Y49998286D01*
X38451500Y49943717D01*
X38451500Y47473399D01*
X38432593Y47415208D01*
X38422504Y47403395D01*
X38081604Y47062495D01*
X38027087Y47034718D01*
X38011600Y47033499D01*
X37693770Y47033499D01*
X37588871Y47022616D01*
X37583731Y47020901D01*
X37583730Y47020901D01*
X37534876Y47004602D01*
X37422474Y46967102D01*
X37417587Y46964078D01*
X37417583Y46964076D01*
X37321979Y46904914D01*
X37273311Y46874797D01*
X37149383Y46750653D01*
X37146366Y46745758D01*
X37077828Y46634568D01*
X37057339Y46601329D01*
X37055529Y46595872D01*
X37055528Y46595870D01*
X37024781Y46503171D01*
X37002115Y46434835D01*
X36991500Y46331231D01*
X36991501Y46075013D01*
X36991501Y46049477D01*
X36972594Y45991287D01*
X36923094Y45955323D01*
X36861909Y45955322D01*
X36822497Y45979473D01*
X34917496Y47884474D01*
X34889719Y47938991D01*
X34888500Y47954478D01*
X34888500Y49930500D01*
X34907407Y49988691D01*
X34956907Y50024655D01*
X34984796Y50029072D01*
X34984781Y50029355D01*
X34987458Y50029500D01*
X34990134Y50029500D01*
X35010163Y50031676D01*
X35046142Y50035584D01*
X35046144Y50035585D01*
X35052316Y50036255D01*
X35127409Y50064406D01*
X35182106Y50084911D01*
X35182107Y50084911D01*
X35188705Y50087385D01*
X35305261Y50174739D01*
X35309491Y50180383D01*
X35309495Y50180387D01*
X35370780Y50262159D01*
X35420808Y50297384D01*
X35481986Y50296476D01*
X35529220Y50262159D01*
X35590505Y50180387D01*
X35590509Y50180383D01*
X35594739Y50174739D01*
X35711295Y50087385D01*
X35717893Y50084911D01*
X35717894Y50084911D01*
X35772591Y50064406D01*
X35847684Y50036255D01*
X35853856Y50035585D01*
X35853858Y50035584D01*
X35889837Y50031676D01*
X35909866Y50029500D01*
X37530134Y50029500D01*
X37550163Y50031676D01*
X37586142Y50035584D01*
X37586144Y50035585D01*
X37592316Y50036255D01*
X37667409Y50064406D01*
X37722106Y50084911D01*
X37722107Y50084911D01*
X37728705Y50087385D01*
X37845261Y50174739D01*
X37849491Y50180383D01*
X37849495Y50180387D01*
X37910780Y50262159D01*
X37960808Y50297384D01*
X38021986Y50296476D01*
G37*
%TD.AperFunction*%
%TD*%
%TA.AperFunction,Conductor*%
%TO.N,/B_FB*%
G36*
X13242121Y36579998D02*
G01*
X13288614Y36526342D01*
X13300000Y36474000D01*
X13300000Y35042000D01*
X13279998Y34973879D01*
X13274800Y34966400D01*
X12737800Y34250400D01*
X12680926Y34207905D01*
X12637000Y34200000D01*
X7700000Y34200000D01*
X6519398Y33806466D01*
X6479553Y33800000D01*
X5126000Y33800000D01*
X5057879Y33820002D01*
X5011386Y33873658D01*
X5000000Y33926000D01*
X5000000Y36174000D01*
X5020002Y36242121D01*
X5073658Y36288614D01*
X5126000Y36300000D01*
X6348936Y36300000D01*
X6417057Y36279998D01*
X6436656Y36264450D01*
X7686994Y35051853D01*
X7700000Y35039240D01*
X8425852Y35040433D01*
X12481883Y35047102D01*
X12481884Y35047102D01*
X12500000Y35047132D01*
X12500000Y36474000D01*
X12520002Y36542121D01*
X12573658Y36588614D01*
X12626000Y36600000D01*
X13174000Y36600000D01*
X13242121Y36579998D01*
G37*
%TD.AperFunction*%
%TD*%
%TA.AperFunction,Conductor*%
%TO.N,GND*%
G36*
X12300000Y36512258D02*
G01*
X12295139Y36478448D01*
X12295138Y36478441D01*
X12294500Y36474000D01*
X12294500Y35378088D01*
X12274498Y35309967D01*
X12262995Y35300000D01*
X10000000Y35300000D01*
X10000000Y37300000D01*
X12300000Y37300000D01*
X12300000Y36512258D01*
G37*
%TD.AperFunction*%
%TD*%
%TA.AperFunction,Conductor*%
%TO.N,+5V*%
G36*
X15842120Y33943746D02*
G01*
X15888613Y33890090D01*
X15899999Y33837748D01*
X15900000Y30926000D01*
X15879998Y30857879D01*
X15826342Y30811386D01*
X15774000Y30800000D01*
X14000000Y30800000D01*
X14000000Y26026000D01*
X13979998Y25957879D01*
X13926342Y25911386D01*
X13874000Y25900000D01*
X11694412Y25900000D01*
X11626291Y25920002D01*
X11579798Y25973658D01*
X11568412Y26026000D01*
X11568411Y33837748D01*
X11588413Y33905869D01*
X11642069Y33952362D01*
X11694411Y33963748D01*
X15773999Y33963748D01*
X15842120Y33943746D01*
G37*
%TD.AperFunction*%
%TD*%
M02*
