%TF.GenerationSoftware,KiCad,Pcbnew,6.0.10+dfsg-1~bpo11+1*%
%TF.CreationDate,2023-02-13T12:21:08+00:00*%
%TF.ProjectId,OLED01,4f4c4544-3031-42e6-9b69-6361645f7063,rev?*%
%TF.SameCoordinates,PX72ba1e0PY737d6e0*%
%TF.FileFunction,Legend,Top*%
%TF.FilePolarity,Positive*%
%FSLAX46Y46*%
G04 Gerber Fmt 4.6, Leading zero omitted, Abs format (unit mm)*
G04 Created by KiCad (PCBNEW 6.0.10+dfsg-1~bpo11+1) date 2023-02-13 12:21:08*
%MOMM*%
%LPD*%
G01*
G04 APERTURE LIST*
%ADD10C,0.100000*%
%ADD11C,0.120000*%
%ADD12C,0.150000*%
%ADD13C,0.300000*%
%ADD14C,0.050000*%
%ADD15R,1.524000X1.524000*%
G04 APERTURE END LIST*
D10*
X45550000Y57300000D02*
X53450000Y57300000D01*
X53450000Y57300000D02*
X53450000Y52900000D01*
X53450000Y52900000D02*
X45550000Y52900000D01*
X45550000Y52900000D02*
X45550000Y57300000D01*
D11*
X45500000Y55800000D02*
X43600000Y55000000D01*
D12*
X3185714Y57414286D02*
X3828571Y57414286D01*
X3442857Y57842858D02*
X3185714Y56557143D01*
X3742857Y56985715D02*
X3100000Y56985715D01*
X3485714Y56557143D02*
X3742857Y57842858D01*
X4642857Y56747620D02*
X4342857Y57223810D01*
X4128571Y56747620D02*
X4128571Y57747620D01*
X4471428Y57747620D01*
X4557142Y57700000D01*
X4600000Y57652381D01*
X4642857Y57557143D01*
X4642857Y57414286D01*
X4600000Y57319048D01*
X4557142Y57271429D01*
X4471428Y57223810D01*
X4128571Y57223810D01*
X5028571Y57271429D02*
X5328571Y57271429D01*
X5457142Y56747620D02*
X5028571Y56747620D01*
X5028571Y57747620D01*
X5457142Y57747620D01*
X5800000Y56795239D02*
X5928571Y56747620D01*
X6142857Y56747620D01*
X6228571Y56795239D01*
X6271428Y56842858D01*
X6314285Y56938096D01*
X6314285Y57033334D01*
X6271428Y57128572D01*
X6228571Y57176191D01*
X6142857Y57223810D01*
X5971428Y57271429D01*
X5885714Y57319048D01*
X5842857Y57366667D01*
X5800000Y57461905D01*
X5800000Y57557143D01*
X5842857Y57652381D01*
X5885714Y57700000D01*
X5971428Y57747620D01*
X6185714Y57747620D01*
X6314285Y57700000D01*
X7342857Y57414286D02*
X7985714Y57414286D01*
X7600000Y57842858D02*
X7342857Y56557143D01*
X7900000Y56985715D02*
X7257142Y56985715D01*
X7642857Y56557143D02*
X7900000Y57842858D01*
X8800000Y56842858D02*
X8757142Y56795239D01*
X8628571Y56747620D01*
X8542857Y56747620D01*
X8414285Y56795239D01*
X8328571Y56890477D01*
X8285714Y56985715D01*
X8242857Y57176191D01*
X8242857Y57319048D01*
X8285714Y57509524D01*
X8328571Y57604762D01*
X8414285Y57700000D01*
X8542857Y57747620D01*
X8628571Y57747620D01*
X8757142Y57700000D01*
X8800000Y57652381D01*
X9142857Y56795239D02*
X9271428Y56747620D01*
X9485714Y56747620D01*
X9571428Y56795239D01*
X9614285Y56842858D01*
X9657142Y56938096D01*
X9657142Y57033334D01*
X9614285Y57128572D01*
X9571428Y57176191D01*
X9485714Y57223810D01*
X9314285Y57271429D01*
X9228571Y57319048D01*
X9185714Y57366667D01*
X9142857Y57461905D01*
X9142857Y57557143D01*
X9185714Y57652381D01*
X9228571Y57700000D01*
X9314285Y57747620D01*
X9528571Y57747620D01*
X9657142Y57700000D01*
X11242857Y56842858D02*
X11200000Y56795239D01*
X11071428Y56747620D01*
X10985714Y56747620D01*
X10857142Y56795239D01*
X10771428Y56890477D01*
X10728571Y56985715D01*
X10685714Y57176191D01*
X10685714Y57319048D01*
X10728571Y57509524D01*
X10771428Y57604762D01*
X10857142Y57700000D01*
X10985714Y57747620D01*
X11071428Y57747620D01*
X11200000Y57700000D01*
X11242857Y57652381D01*
X12057142Y56747620D02*
X11628571Y56747620D01*
X11628571Y57747620D01*
X12357142Y56747620D02*
X12357142Y57747620D01*
X12871428Y56747620D02*
X12485714Y57319048D01*
X12871428Y57747620D02*
X12357142Y57176191D01*
X13942857Y56747620D02*
X13942857Y57747620D01*
X14242857Y57033334D01*
X14542857Y57747620D01*
X14542857Y56747620D01*
X15142857Y57747620D02*
X15314285Y57747620D01*
X15400000Y57700000D01*
X15485714Y57604762D01*
X15528571Y57414286D01*
X15528571Y57080953D01*
X15485714Y56890477D01*
X15400000Y56795239D01*
X15314285Y56747620D01*
X15142857Y56747620D01*
X15057142Y56795239D01*
X14971428Y56890477D01*
X14928571Y57080953D01*
X14928571Y57414286D01*
X14971428Y57604762D01*
X15057142Y57700000D01*
X15142857Y57747620D01*
X15871428Y56795239D02*
X16000000Y56747620D01*
X16214285Y56747620D01*
X16300000Y56795239D01*
X16342857Y56842858D01*
X16385714Y56938096D01*
X16385714Y57033334D01*
X16342857Y57128572D01*
X16300000Y57176191D01*
X16214285Y57223810D01*
X16042857Y57271429D01*
X15957142Y57319048D01*
X15914285Y57366667D01*
X15871428Y57461905D01*
X15871428Y57557143D01*
X15914285Y57652381D01*
X15957142Y57700000D01*
X16042857Y57747620D01*
X16257142Y57747620D01*
X16385714Y57700000D01*
X16771428Y56747620D02*
X16771428Y57747620D01*
D13*
X8869047Y63849456D02*
X9054761Y63787551D01*
X9364285Y63787551D01*
X9488095Y63849456D01*
X9550000Y63911361D01*
X9611904Y64035170D01*
X9611904Y64158980D01*
X9550000Y64282789D01*
X9488095Y64344694D01*
X9364285Y64406599D01*
X9116666Y64468504D01*
X8992857Y64530408D01*
X8930952Y64592313D01*
X8869047Y64716123D01*
X8869047Y64839932D01*
X8930952Y64963742D01*
X8992857Y65025646D01*
X9116666Y65087551D01*
X9426190Y65087551D01*
X9611904Y65025646D01*
X10169047Y63787551D02*
X10169047Y65087551D01*
X10664285Y65087551D01*
X10788095Y65025646D01*
X10850000Y64963742D01*
X10911904Y64839932D01*
X10911904Y64654218D01*
X10850000Y64530408D01*
X10788095Y64468504D01*
X10664285Y64406599D01*
X10169047Y64406599D01*
X11469047Y63787551D02*
X11469047Y65087551D01*
D12*
X46256546Y54058093D02*
X46342260Y54058093D01*
X46427974Y54015235D01*
X46470831Y53972378D01*
X46513688Y53886664D01*
X46556546Y53715235D01*
X46556546Y53500950D01*
X46513688Y53329521D01*
X46470831Y53243807D01*
X46427974Y53200950D01*
X46342260Y53158093D01*
X46256546Y53158093D01*
X46170831Y53200950D01*
X46127974Y53243807D01*
X46085117Y53329521D01*
X46042260Y53500950D01*
X46042260Y53715235D01*
X46085117Y53886664D01*
X46127974Y53972378D01*
X46170831Y54015235D01*
X46256546Y54058093D01*
X46856546Y53158093D02*
X47327974Y53758093D01*
X46856546Y53758093D02*
X47327974Y53158093D01*
X47585117Y54058093D02*
X48142260Y54058093D01*
X47842260Y53715235D01*
X47970831Y53715235D01*
X48056546Y53672378D01*
X48099403Y53629521D01*
X48142260Y53543807D01*
X48142260Y53329521D01*
X48099403Y53243807D01*
X48056546Y53200950D01*
X47970831Y53158093D01*
X47713688Y53158093D01*
X47627974Y53200950D01*
X47585117Y53243807D01*
X48527974Y53158093D02*
X48527974Y54058093D01*
X48742260Y54058093D01*
X48870831Y54015235D01*
X48956546Y53929521D01*
X48999403Y53843807D01*
X49042260Y53672378D01*
X49042260Y53543807D01*
X48999403Y53372378D01*
X48956546Y53286664D01*
X48870831Y53200950D01*
X48742260Y53158093D01*
X48527974Y53158093D01*
X50285117Y54058093D02*
X50370831Y54058093D01*
X50456546Y54015235D01*
X50499403Y53972378D01*
X50542260Y53886664D01*
X50585117Y53715235D01*
X50585117Y53500950D01*
X50542260Y53329521D01*
X50499403Y53243807D01*
X50456546Y53200950D01*
X50370831Y53158093D01*
X50285117Y53158093D01*
X50199403Y53200950D01*
X50156546Y53243807D01*
X50113688Y53329521D01*
X50070831Y53500950D01*
X50070831Y53715235D01*
X50113688Y53886664D01*
X50156546Y53972378D01*
X50199403Y54015235D01*
X50285117Y54058093D01*
X50885117Y53158093D02*
X51356546Y53758093D01*
X50885117Y53758093D02*
X51356546Y53158093D01*
X51613688Y54058093D02*
X52170831Y54058093D01*
X51870831Y53715235D01*
X51999403Y53715235D01*
X52085117Y53672378D01*
X52127974Y53629521D01*
X52170831Y53543807D01*
X52170831Y53329521D01*
X52127974Y53243807D01*
X52085117Y53200950D01*
X51999403Y53158093D01*
X51742260Y53158093D01*
X51656546Y53200950D01*
X51613688Y53243807D01*
X53070831Y53243807D02*
X53027974Y53200950D01*
X52899403Y53158093D01*
X52813688Y53158093D01*
X52685117Y53200950D01*
X52599403Y53286664D01*
X52556546Y53372378D01*
X52513688Y53543807D01*
X52513688Y53672378D01*
X52556546Y53843807D01*
X52599403Y53929521D01*
X52685117Y54015235D01*
X52813688Y54058093D01*
X52899403Y54058093D01*
X53027974Y54015235D01*
X53070831Y53972378D01*
D13*
X7704523Y858405D02*
X7704523Y2158405D01*
X8137857Y1229834D01*
X8571190Y2158405D01*
X8571190Y858405D01*
X9809285Y858405D02*
X9190238Y858405D01*
X9190238Y2158405D01*
X10180714Y1229834D02*
X10799761Y1229834D01*
X10056904Y858405D02*
X10490238Y2158405D01*
X10923571Y858405D01*
X11790238Y1539358D02*
X11975952Y1477453D01*
X12037857Y1415548D01*
X12099761Y1291739D01*
X12099761Y1106024D01*
X12037857Y982215D01*
X11975952Y920310D01*
X11852142Y858405D01*
X11356904Y858405D01*
X11356904Y2158405D01*
X11790238Y2158405D01*
X11914047Y2096500D01*
X11975952Y2034596D01*
X12037857Y1910786D01*
X12037857Y1786977D01*
X11975952Y1663167D01*
X11914047Y1601262D01*
X11790238Y1539358D01*
X11356904Y1539358D01*
X12656904Y982215D02*
X12718809Y920310D01*
X12656904Y858405D01*
X12595000Y920310D01*
X12656904Y982215D01*
X12656904Y858405D01*
X13833095Y920310D02*
X13709285Y858405D01*
X13461666Y858405D01*
X13337857Y920310D01*
X13275952Y982215D01*
X13214047Y1106024D01*
X13214047Y1477453D01*
X13275952Y1601262D01*
X13337857Y1663167D01*
X13461666Y1725072D01*
X13709285Y1725072D01*
X13833095Y1663167D01*
X14266428Y1725072D02*
X14947380Y1725072D01*
X14266428Y858405D01*
X14947380Y858405D01*
X7642619Y-58404D02*
X7704523Y3500D01*
X7828333Y65405D01*
X8137857Y65405D01*
X8261666Y3500D01*
X8323571Y-58404D01*
X8385476Y-182214D01*
X8385476Y-306023D01*
X8323571Y-491738D01*
X7580714Y-1234595D01*
X8385476Y-1234595D01*
X9190238Y65405D02*
X9314047Y65405D01*
X9437857Y3500D01*
X9499761Y-58404D01*
X9561666Y-182214D01*
X9623571Y-429833D01*
X9623571Y-739357D01*
X9561666Y-986976D01*
X9499761Y-1110785D01*
X9437857Y-1172690D01*
X9314047Y-1234595D01*
X9190238Y-1234595D01*
X9066428Y-1172690D01*
X9004523Y-1110785D01*
X8942619Y-986976D01*
X8880714Y-739357D01*
X8880714Y-429833D01*
X8942619Y-182214D01*
X9004523Y-58404D01*
X9066428Y3500D01*
X9190238Y65405D01*
X10118809Y-58404D02*
X10180714Y3500D01*
X10304523Y65405D01*
X10614047Y65405D01*
X10737857Y3500D01*
X10799761Y-58404D01*
X10861666Y-182214D01*
X10861666Y-306023D01*
X10799761Y-491738D01*
X10056904Y-1234595D01*
X10861666Y-1234595D01*
X11356904Y-58404D02*
X11418809Y3500D01*
X11542619Y65405D01*
X11852142Y65405D01*
X11975952Y3500D01*
X12037857Y-58404D01*
X12099761Y-182214D01*
X12099761Y-306023D01*
X12037857Y-491738D01*
X11295000Y-1234595D01*
X12099761Y-1234595D01*
D12*
X31378571Y57900000D02*
X31292857Y57947620D01*
X31164285Y57947620D01*
X31035714Y57900000D01*
X30950000Y57804762D01*
X30907142Y57709524D01*
X30864285Y57519048D01*
X30864285Y57376191D01*
X30907142Y57185715D01*
X30950000Y57090477D01*
X31035714Y56995239D01*
X31164285Y56947620D01*
X31250000Y56947620D01*
X31378571Y56995239D01*
X31421428Y57042858D01*
X31421428Y57376191D01*
X31250000Y57376191D01*
X31807142Y56947620D02*
X31807142Y57947620D01*
X32321428Y56947620D01*
X32321428Y57947620D01*
X32750000Y56947620D02*
X32750000Y57947620D01*
X32964285Y57947620D01*
X33092857Y57900000D01*
X33178571Y57804762D01*
X33221428Y57709524D01*
X33264285Y57519048D01*
X33264285Y57376191D01*
X33221428Y57185715D01*
X33178571Y57090477D01*
X33092857Y56995239D01*
X32964285Y56947620D01*
X32750000Y56947620D01*
X34292857Y56995239D02*
X34421428Y56947620D01*
X34635714Y56947620D01*
X34721428Y56995239D01*
X34764285Y57042858D01*
X34807142Y57138096D01*
X34807142Y57233334D01*
X34764285Y57328572D01*
X34721428Y57376191D01*
X34635714Y57423810D01*
X34464285Y57471429D01*
X34378571Y57519048D01*
X34335714Y57566667D01*
X34292857Y57661905D01*
X34292857Y57757143D01*
X34335714Y57852381D01*
X34378571Y57900000D01*
X34464285Y57947620D01*
X34678571Y57947620D01*
X34807142Y57900000D01*
X35192857Y56947620D02*
X35192857Y57947620D01*
X35407142Y57947620D01*
X35535714Y57900000D01*
X35621428Y57804762D01*
X35664285Y57709524D01*
X35707142Y57519048D01*
X35707142Y57376191D01*
X35664285Y57185715D01*
X35621428Y57090477D01*
X35535714Y56995239D01*
X35407142Y56947620D01*
X35192857Y56947620D01*
X36050000Y57233334D02*
X36478571Y57233334D01*
X35964285Y56947620D02*
X36264285Y57947620D01*
X36564285Y56947620D01*
X37421428Y57947620D02*
X37721428Y56947620D01*
X38021428Y57947620D01*
X38835714Y57042858D02*
X38792857Y56995239D01*
X38664285Y56947620D01*
X38578571Y56947620D01*
X38450000Y56995239D01*
X38364285Y57090477D01*
X38321428Y57185715D01*
X38278571Y57376191D01*
X38278571Y57519048D01*
X38321428Y57709524D01*
X38364285Y57804762D01*
X38450000Y57900000D01*
X38578571Y57947620D01*
X38664285Y57947620D01*
X38792857Y57900000D01*
X38835714Y57852381D01*
X39735714Y57042858D02*
X39692857Y56995239D01*
X39564285Y56947620D01*
X39478571Y56947620D01*
X39350000Y56995239D01*
X39264285Y57090477D01*
X39221428Y57185715D01*
X39178571Y57376191D01*
X39178571Y57519048D01*
X39221428Y57709524D01*
X39264285Y57804762D01*
X39350000Y57900000D01*
X39478571Y57947620D01*
X39564285Y57947620D01*
X39692857Y57900000D01*
X39735714Y57852381D01*
X40764285Y56995239D02*
X40892857Y56947620D01*
X41107142Y56947620D01*
X41192857Y56995239D01*
X41235714Y57042858D01*
X41278571Y57138096D01*
X41278571Y57233334D01*
X41235714Y57328572D01*
X41192857Y57376191D01*
X41107142Y57423810D01*
X40935714Y57471429D01*
X40850000Y57519048D01*
X40807142Y57566667D01*
X40764285Y57661905D01*
X40764285Y57757143D01*
X40807142Y57852381D01*
X40850000Y57900000D01*
X40935714Y57947620D01*
X41150000Y57947620D01*
X41278571Y57900000D01*
X42178571Y57042858D02*
X42135714Y56995239D01*
X42007142Y56947620D01*
X41921428Y56947620D01*
X41792857Y56995239D01*
X41707142Y57090477D01*
X41664285Y57185715D01*
X41621428Y57376191D01*
X41621428Y57519048D01*
X41664285Y57709524D01*
X41707142Y57804762D01*
X41792857Y57900000D01*
X41921428Y57947620D01*
X42007142Y57947620D01*
X42135714Y57900000D01*
X42178571Y57852381D01*
X42992857Y56947620D02*
X42564285Y56947620D01*
X42564285Y57947620D01*
X44450000Y57900000D02*
X44364285Y57947620D01*
X44235714Y57947620D01*
X44107142Y57900000D01*
X44021428Y57804762D01*
X43978571Y57709524D01*
X43935714Y57519048D01*
X43935714Y57376191D01*
X43978571Y57185715D01*
X44021428Y57090477D01*
X44107142Y56995239D01*
X44235714Y56947620D01*
X44321428Y56947620D01*
X44450000Y56995239D01*
X44492857Y57042858D01*
X44492857Y57376191D01*
X44321428Y57376191D01*
X44878571Y56947620D02*
X44878571Y57947620D01*
X45392857Y56947620D01*
X45392857Y57947620D01*
X45821428Y56947620D02*
X45821428Y57947620D01*
X46035714Y57947620D01*
X46164285Y57900000D01*
X46250000Y57804762D01*
X46292857Y57709524D01*
X46335714Y57519048D01*
X46335714Y57376191D01*
X46292857Y57185715D01*
X46250000Y57090477D01*
X46164285Y56995239D01*
X46035714Y56947620D01*
X45821428Y56947620D01*
D13*
X8012857Y5221429D02*
X8298571Y5221429D01*
X8441428Y5150000D01*
X8584285Y5007143D01*
X8655714Y4721429D01*
X8655714Y4221429D01*
X8584285Y3935715D01*
X8441428Y3792858D01*
X8298571Y3721429D01*
X8012857Y3721429D01*
X7870000Y3792858D01*
X7727142Y3935715D01*
X7655714Y4221429D01*
X7655714Y4721429D01*
X7727142Y5007143D01*
X7870000Y5150000D01*
X8012857Y5221429D01*
X10012857Y3721429D02*
X9298571Y3721429D01*
X9298571Y5221429D01*
X10512857Y4507143D02*
X11012857Y4507143D01*
X11227142Y3721429D02*
X10512857Y3721429D01*
X10512857Y5221429D01*
X11227142Y5221429D01*
X11870000Y3721429D02*
X11870000Y5221429D01*
X12227142Y5221429D01*
X12441428Y5150000D01*
X12584285Y5007143D01*
X12655714Y4864286D01*
X12727142Y4578572D01*
X12727142Y4364286D01*
X12655714Y4078572D01*
X12584285Y3935715D01*
X12441428Y3792858D01*
X12227142Y3721429D01*
X11870000Y3721429D01*
X13655714Y5221429D02*
X13798571Y5221429D01*
X13941428Y5150000D01*
X14012857Y5078572D01*
X14084285Y4935715D01*
X14155714Y4650000D01*
X14155714Y4292858D01*
X14084285Y4007143D01*
X14012857Y3864286D01*
X13941428Y3792858D01*
X13798571Y3721429D01*
X13655714Y3721429D01*
X13512857Y3792858D01*
X13441428Y3864286D01*
X13370000Y4007143D01*
X13298571Y4292858D01*
X13298571Y4650000D01*
X13370000Y4935715D01*
X13441428Y5078572D01*
X13512857Y5150000D01*
X13655714Y5221429D01*
X15584285Y3721429D02*
X14727142Y3721429D01*
X15155714Y3721429D02*
X15155714Y5221429D01*
X15012857Y5007143D01*
X14870000Y4864286D01*
X14727142Y4792858D01*
X16155714Y4150000D02*
X16870000Y4150000D01*
X16012857Y3721429D02*
X16512857Y5221429D01*
X17012857Y3721429D01*
X37330952Y63787551D02*
X37330952Y65087551D01*
X37888095Y64963742D02*
X37950000Y65025646D01*
X38073809Y65087551D01*
X38383333Y65087551D01*
X38507142Y65025646D01*
X38569047Y64963742D01*
X38630952Y64839932D01*
X38630952Y64716123D01*
X38569047Y64530408D01*
X37826190Y63787551D01*
X38630952Y63787551D01*
X39930952Y63911361D02*
X39869047Y63849456D01*
X39683333Y63787551D01*
X39559523Y63787551D01*
X39373809Y63849456D01*
X39250000Y63973266D01*
X39188095Y64097075D01*
X39126190Y64344694D01*
X39126190Y64530408D01*
X39188095Y64778027D01*
X39250000Y64901837D01*
X39373809Y65025646D01*
X39559523Y65087551D01*
X39683333Y65087551D01*
X39869047Y65025646D01*
X39930952Y64963742D01*
D12*
X46118928Y56374500D02*
X46547500Y56374500D01*
X46033214Y56117358D02*
X46333214Y57017358D01*
X46633214Y56117358D01*
X47318928Y56117358D02*
X47318928Y57017358D01*
X47318928Y56160215D02*
X47233214Y56117358D01*
X47061785Y56117358D01*
X46976071Y56160215D01*
X46933214Y56203072D01*
X46890357Y56288786D01*
X46890357Y56545929D01*
X46933214Y56631643D01*
X46976071Y56674500D01*
X47061785Y56717358D01*
X47233214Y56717358D01*
X47318928Y56674500D01*
X48133214Y56117358D02*
X48133214Y57017358D01*
X48133214Y56160215D02*
X48047500Y56117358D01*
X47876071Y56117358D01*
X47790357Y56160215D01*
X47747500Y56203072D01*
X47704642Y56288786D01*
X47704642Y56545929D01*
X47747500Y56631643D01*
X47790357Y56674500D01*
X47876071Y56717358D01*
X48047500Y56717358D01*
X48133214Y56674500D01*
X48561785Y56117358D02*
X48561785Y56717358D01*
X48561785Y56545929D02*
X48604642Y56631643D01*
X48647500Y56674500D01*
X48733214Y56717358D01*
X48818928Y56717358D01*
X49461785Y56160215D02*
X49376071Y56117358D01*
X49204642Y56117358D01*
X49118928Y56160215D01*
X49076071Y56245929D01*
X49076071Y56588786D01*
X49118928Y56674500D01*
X49204642Y56717358D01*
X49376071Y56717358D01*
X49461785Y56674500D01*
X49504642Y56588786D01*
X49504642Y56503072D01*
X49076071Y56417358D01*
X49847500Y56160215D02*
X49933214Y56117358D01*
X50104642Y56117358D01*
X50190357Y56160215D01*
X50233214Y56245929D01*
X50233214Y56288786D01*
X50190357Y56374500D01*
X50104642Y56417358D01*
X49976071Y56417358D01*
X49890357Y56460215D01*
X49847500Y56545929D01*
X49847500Y56588786D01*
X49890357Y56674500D01*
X49976071Y56717358D01*
X50104642Y56717358D01*
X50190357Y56674500D01*
X50576071Y56160215D02*
X50661785Y56117358D01*
X50833214Y56117358D01*
X50918928Y56160215D01*
X50961785Y56245929D01*
X50961785Y56288786D01*
X50918928Y56374500D01*
X50833214Y56417358D01*
X50704642Y56417358D01*
X50618928Y56460215D01*
X50576071Y56545929D01*
X50576071Y56588786D01*
X50618928Y56674500D01*
X50704642Y56717358D01*
X50833214Y56717358D01*
X50918928Y56674500D01*
X46418928Y54368358D02*
X46204642Y54368358D01*
X46204642Y55654072D01*
X46418928Y55654072D01*
X46761785Y55011215D02*
X47447500Y55011215D01*
X47790357Y54368358D02*
X48004642Y54368358D01*
X48004642Y55654072D01*
X47790357Y55654072D01*
X48604642Y55054072D02*
X48561785Y55011215D01*
X48604642Y54968358D01*
X48647500Y55011215D01*
X48604642Y55054072D01*
X48604642Y54968358D01*
X50661785Y55054072D02*
X50618928Y55011215D01*
X50661785Y54968358D01*
X50704642Y55011215D01*
X50661785Y55054072D01*
X50661785Y54968358D01*
X51476071Y54368358D02*
X51261785Y54368358D01*
X51261785Y55654072D01*
X51476071Y55654072D01*
X51818928Y55011215D02*
X52504642Y55011215D01*
X52847500Y54368358D02*
X53061785Y54368358D01*
X53061785Y55654072D01*
X52847500Y55654072D01*
D13*
X25466666Y63787551D02*
X25466666Y65087551D01*
X25961904Y65087551D01*
X26085714Y65025646D01*
X26147619Y64963742D01*
X26209523Y64839932D01*
X26209523Y64654218D01*
X26147619Y64530408D01*
X26085714Y64468504D01*
X25961904Y64406599D01*
X25466666Y64406599D01*
X26642857Y65087551D02*
X26952380Y63787551D01*
X27200000Y64716123D01*
X27447619Y63787551D01*
X27757142Y65087551D01*
X28995238Y63787551D02*
X28561904Y64406599D01*
X28252380Y63787551D02*
X28252380Y65087551D01*
X28747619Y65087551D01*
X28871428Y65025646D01*
X28933333Y64963742D01*
X28995238Y64839932D01*
X28995238Y64654218D01*
X28933333Y64530408D01*
X28871428Y64468504D01*
X28747619Y64406599D01*
X28252380Y64406599D01*
D14*
%TO.C,J4*%
X12966190Y63963858D02*
X12966190Y63678143D01*
X12966190Y63821000D02*
X12466190Y63821000D01*
X12537619Y63773381D01*
X12585238Y63725762D01*
X12609047Y63678143D01*
D12*
%TO.C,DISP1*%
X26247619Y21197620D02*
X26247619Y22197620D01*
X26485714Y22197620D01*
X26628571Y22150000D01*
X26723809Y22054762D01*
X26771428Y21959524D01*
X26819047Y21769048D01*
X26819047Y21626191D01*
X26771428Y21435715D01*
X26723809Y21340477D01*
X26628571Y21245239D01*
X26485714Y21197620D01*
X26247619Y21197620D01*
X27247619Y21197620D02*
X27247619Y22197620D01*
X27676190Y21245239D02*
X27819047Y21197620D01*
X28057142Y21197620D01*
X28152380Y21245239D01*
X28200000Y21292858D01*
X28247619Y21388096D01*
X28247619Y21483334D01*
X28200000Y21578572D01*
X28152380Y21626191D01*
X28057142Y21673810D01*
X27866666Y21721429D01*
X27771428Y21769048D01*
X27723809Y21816667D01*
X27676190Y21911905D01*
X27676190Y22007143D01*
X27723809Y22102381D01*
X27771428Y22150000D01*
X27866666Y22197620D01*
X28104761Y22197620D01*
X28247619Y22150000D01*
X28676190Y21197620D02*
X28676190Y22197620D01*
X29057142Y22197620D01*
X29152380Y22150000D01*
X29200000Y22102381D01*
X29247619Y22007143D01*
X29247619Y21864286D01*
X29200000Y21769048D01*
X29152380Y21721429D01*
X29057142Y21673810D01*
X28676190Y21673810D01*
X30200000Y21197620D02*
X29628571Y21197620D01*
X29914285Y21197620D02*
X29914285Y22197620D01*
X29819047Y22054762D01*
X29723809Y21959524D01*
X29628571Y21911905D01*
D14*
X1052857Y49187143D02*
X1386190Y49187143D01*
X862380Y49068096D02*
X1219523Y48949048D01*
X1219523Y49258572D01*
X886190Y49544286D02*
X886190Y49591905D01*
X910000Y49639524D01*
X933809Y49663334D01*
X981428Y49687143D01*
X1076666Y49710953D01*
X1195714Y49710953D01*
X1290952Y49687143D01*
X1338571Y49663334D01*
X1362380Y49639524D01*
X1386190Y49591905D01*
X1386190Y49544286D01*
X1362380Y49496667D01*
X1338571Y49472858D01*
X1290952Y49449048D01*
X1195714Y49425239D01*
X1076666Y49425239D01*
X981428Y49449048D01*
X933809Y49472858D01*
X910000Y49496667D01*
X886190Y49544286D01*
X49273809Y6019048D02*
X49250000Y6042858D01*
X49226190Y6090477D01*
X49226190Y6209524D01*
X49250000Y6257143D01*
X49273809Y6280953D01*
X49321428Y6304762D01*
X49369047Y6304762D01*
X49440476Y6280953D01*
X49726190Y5995239D01*
X49726190Y6304762D01*
X49226190Y6614286D02*
X49226190Y6661905D01*
X49250000Y6709524D01*
X49273809Y6733334D01*
X49321428Y6757143D01*
X49416666Y6780953D01*
X49535714Y6780953D01*
X49630952Y6757143D01*
X49678571Y6733334D01*
X49702380Y6709524D01*
X49726190Y6661905D01*
X49726190Y6614286D01*
X49702380Y6566667D01*
X49678571Y6542858D01*
X49630952Y6519048D01*
X49535714Y6495239D01*
X49416666Y6495239D01*
X49321428Y6519048D01*
X49273809Y6542858D01*
X49250000Y6566667D01*
X49226190Y6614286D01*
X1396190Y6991858D02*
X1396190Y6706143D01*
X1396190Y6849000D02*
X896190Y6849000D01*
X967619Y6801381D01*
X1015238Y6753762D01*
X1039047Y6706143D01*
X49173809Y49019048D02*
X49150000Y49042858D01*
X49126190Y49090477D01*
X49126190Y49209524D01*
X49150000Y49257143D01*
X49173809Y49280953D01*
X49221428Y49304762D01*
X49269047Y49304762D01*
X49340476Y49280953D01*
X49626190Y48995239D01*
X49626190Y49304762D01*
X49626190Y49780953D02*
X49626190Y49495239D01*
X49626190Y49638096D02*
X49126190Y49638096D01*
X49197619Y49590477D01*
X49245238Y49542858D01*
X49269047Y49495239D01*
%TO.C,J3*%
X16506190Y58121858D02*
X16506190Y57836143D01*
X16506190Y57979000D02*
X16006190Y57979000D01*
X16077619Y57931381D01*
X16125238Y57883762D01*
X16149047Y57836143D01*
D12*
%TO.C,J6*%
X32250000Y63440000D02*
X44950000Y63440000D01*
X44950000Y58360000D02*
X32250000Y58360000D01*
X32250000Y58360000D02*
X32250000Y63440000D01*
X44950000Y63440000D02*
X44950000Y58360000D01*
%TO.C,J5*%
X35790000Y53730000D02*
X35790000Y56270000D01*
X43410000Y56270000D02*
X43410000Y53730000D01*
X43410000Y53730000D02*
X35790000Y53730000D01*
X35790000Y56270000D02*
X43410000Y56270000D01*
%TO.C,J4*%
X14010000Y58360000D02*
X6390000Y58360000D01*
X6390000Y58360000D02*
X6390000Y63440000D01*
X14010000Y63440000D02*
X14010000Y58360000D01*
X6390000Y63440000D02*
X14010000Y63440000D01*
%TO.C,DISP1*%
X50690000Y50030000D02*
X-110000Y50030000D01*
D11*
X-2000000Y8500000D02*
X-100000Y8500000D01*
X52600000Y51300000D02*
X50690000Y51300000D01*
D12*
X50700000Y7230000D02*
X-100000Y7230000D01*
X-110000Y52570000D02*
X50690000Y52570000D01*
X-100000Y9770000D02*
X50700000Y9770000D01*
D11*
X-2000000Y51300000D02*
X-2000000Y8500000D01*
D12*
X-100000Y7230000D02*
X-100000Y9770000D01*
X-110000Y50030000D02*
X-110000Y52570000D01*
D11*
X52600000Y8500000D02*
X52600000Y51300000D01*
D12*
X50690000Y52570000D02*
X50690000Y50030000D01*
X50700000Y9770000D02*
X50700000Y7230000D01*
D11*
X-110000Y51300000D02*
X-2000000Y51300000D01*
X50700000Y8500000D02*
X52600000Y8500000D01*
X-200000Y43200000D02*
X50800000Y43200000D01*
X50800000Y43200000D02*
X50800000Y12200000D01*
X50800000Y12200000D02*
X-200000Y12200000D01*
X-200000Y12200000D02*
X-200000Y43200000D01*
X-200000Y43200000D02*
X50800000Y43200000D01*
X50800000Y43200000D02*
X50800000Y12200000D01*
X50800000Y12200000D02*
X-200000Y12200000D01*
X-200000Y12200000D02*
X-200000Y43200000D01*
D12*
%TO.C,J2*%
X31250000Y58360000D02*
X23630000Y58360000D01*
X31250000Y63440000D02*
X31250000Y58360000D01*
X23630000Y63440000D02*
X31250000Y63440000D01*
X23630000Y58360000D02*
X23630000Y63440000D01*
%TO.C,J3*%
X15010000Y58360000D02*
X15010000Y63440000D01*
X22630000Y58360000D02*
X15010000Y58360000D01*
X22630000Y63440000D02*
X22630000Y58360000D01*
X15010000Y63440000D02*
X22630000Y63440000D01*
%TD*%
D15*
%TO.C,J6*%
X33520000Y59630000D03*
X33520000Y62170000D03*
X36060000Y59630000D03*
X36060000Y62170000D03*
X38600000Y59630000D03*
X38600000Y62170000D03*
X41140000Y59630000D03*
X41140000Y62170000D03*
X43680000Y59630000D03*
X43680000Y62170000D03*
%TD*%
%TO.C,DISP1*%
X1170000Y8500000D03*
X3710000Y8500000D03*
X6250000Y8500000D03*
X44350000Y8500000D03*
X46890000Y8500000D03*
X49430000Y8500000D03*
X49420000Y51300000D03*
X46880000Y51300000D03*
X44340000Y51300000D03*
X41800000Y51300000D03*
X39260000Y51300000D03*
X36720000Y51300000D03*
X34180000Y51300000D03*
X31640000Y51300000D03*
X29100000Y51300000D03*
X26560000Y51300000D03*
X24020000Y51300000D03*
X21480000Y51300000D03*
X18940000Y51300000D03*
X16400000Y51300000D03*
X13860000Y51300000D03*
X11320000Y51300000D03*
X8780000Y51300000D03*
X6240000Y51300000D03*
X3700000Y51300000D03*
X1160000Y51300000D03*
%TD*%
M02*
