%TF.GenerationSoftware,KiCad,Pcbnew,6.0.10+dfsg-1~bpo11+1*%
%TF.CreationDate,2023-02-15T22:15:19+00:00*%
%TF.ProjectId,OLED01,4f4c4544-3031-42e6-9b69-6361645f7063,rev?*%
%TF.SameCoordinates,PX72ba1e0PY737d6e0*%
%TF.FileFunction,Copper,L1,Top*%
%TF.FilePolarity,Positive*%
%FSLAX46Y46*%
G04 Gerber Fmt 4.6, Leading zero omitted, Abs format (unit mm)*
G04 Created by KiCad (PCBNEW 6.0.10+dfsg-1~bpo11+1) date 2023-02-15 22:15:19*
%MOMM*%
%LPD*%
G01*
G04 APERTURE LIST*
%TA.AperFunction,ComponentPad*%
%ADD10C,6.000000*%
%TD*%
%TA.AperFunction,ComponentPad*%
%ADD11R,1.524000X1.524000*%
%TD*%
%TA.AperFunction,ViaPad*%
%ADD12C,0.800000*%
%TD*%
%TA.AperFunction,Conductor*%
%ADD13C,0.400000*%
%TD*%
G04 APERTURE END LIST*
D10*
%TO.P,H2,1,1*%
%TO.N,GND*%
X50800000Y0D03*
%TD*%
%TO.P,H4,1,1*%
%TO.N,GND*%
X0Y0D03*
%TD*%
D11*
%TO.P,J6,1*%
%TO.N,GND*%
X33520000Y59630000D03*
%TO.P,J6,2*%
X33520000Y62170000D03*
%TO.P,J6,3*%
%TO.N,/SDAIN*%
X36060000Y59630000D03*
%TO.P,J6,4*%
X36060000Y62170000D03*
%TO.P,J6,5*%
%TO.N,+5V*%
X38600000Y59630000D03*
%TO.P,J6,6*%
X38600000Y62170000D03*
%TO.P,J6,7*%
%TO.N,/SCLIN*%
X41140000Y59630000D03*
%TO.P,J6,8*%
X41140000Y62170000D03*
%TO.P,J6,9*%
%TO.N,GND*%
X43680000Y59630000D03*
%TO.P,J6,10*%
X43680000Y62170000D03*
%TD*%
%TO.P,J5,1*%
%TO.N,+2V5*%
X37060000Y55000000D03*
%TO.P,J5,2*%
%TO.N,/DC*%
X39600000Y55000000D03*
%TO.P,J5,3*%
%TO.N,GND*%
X42140000Y55000000D03*
%TD*%
%TO.P,J4,1*%
%TO.N,/D1*%
X12740000Y62170000D03*
%TO.P,J4,2*%
X12740000Y59630000D03*
%TO.P,J4,3*%
%TO.N,/CLK*%
X10200000Y62170000D03*
%TO.P,J4,4*%
X10200000Y59630000D03*
%TO.P,J4,5*%
%TO.N,/#CS*%
X7660000Y62170000D03*
%TO.P,J4,6*%
X7660000Y59630000D03*
%TD*%
D10*
%TO.P,H3,1,1*%
%TO.N,GND*%
X0Y60960000D03*
%TD*%
%TO.P,H1,1,1*%
%TO.N,GND*%
X50800000Y60960000D03*
%TD*%
D11*
%TO.P,DISP1,1,ESD_GND*%
%TO.N,GND*%
X1170000Y8500000D03*
%TO.P,DISP1,2*%
%TO.N,unconnected-(DISP1-Pad2)*%
X3710000Y8500000D03*
%TO.P,DISP1,3*%
%TO.N,unconnected-(DISP1-Pad3)*%
X6250000Y8500000D03*
%TO.P,DISP1,18*%
%TO.N,unconnected-(DISP1-Pad18)*%
X44350000Y8500000D03*
%TO.P,DISP1,19*%
%TO.N,unconnected-(DISP1-Pad19)*%
X46890000Y8500000D03*
%TO.P,DISP1,20,ESD_GND*%
%TO.N,GND*%
X49430000Y8500000D03*
%TO.P,DISP1,21,VCC*%
%TO.N,+12V*%
X49420000Y51300000D03*
%TO.P,DISP1,22,VCC*%
X46880000Y51300000D03*
%TO.P,DISP1,23,GND*%
%TO.N,GND*%
X44340000Y51300000D03*
%TO.P,DISP1,24,GND*%
X41800000Y51300000D03*
%TO.P,DISP1,25,VDD*%
%TO.N,+2V5*%
X39260000Y51300000D03*
%TO.P,DISP1,26,BS0*%
%TO.N,/BS0*%
X36720000Y51300000D03*
%TO.P,DISP1,27,BS1*%
%TO.N,/BS1*%
X34180000Y51300000D03*
%TO.P,DISP1,28,GND*%
%TO.N,GND*%
X31640000Y51300000D03*
%TO.P,DISP1,29,#CS*%
%TO.N,/#CS*%
X29100000Y51300000D03*
%TO.P,DISP1,30,#RES*%
%TO.N,/#RES*%
X26560000Y51300000D03*
%TO.P,DISP1,31,D/C*%
%TO.N,/DC*%
X24020000Y51300000D03*
%TO.P,DISP1,32,D0*%
%TO.N,/CLK*%
X21480000Y51300000D03*
%TO.P,DISP1,33,D1*%
%TO.N,/D1*%
X18940000Y51300000D03*
%TO.P,DISP1,34,D2*%
%TO.N,/D2*%
X16400000Y51300000D03*
%TO.P,DISP1,35,GND*%
%TO.N,GND*%
X13860000Y51300000D03*
%TO.P,DISP1,36,IRef*%
%TO.N,Net-(DISP1-Pad36)*%
X11320000Y51300000D03*
%TO.P,DISP1,37,VCOMH*%
%TO.N,Net-(C2-Pad1)*%
X8780000Y51300000D03*
%TO.P,DISP1,38,VCOMH*%
X6240000Y51300000D03*
%TO.P,DISP1,39,VCC*%
%TO.N,+12V*%
X3700000Y51300000D03*
%TO.P,DISP1,40,VCC*%
X1160000Y51300000D03*
%TD*%
%TO.P,J2,1*%
%TO.N,GND*%
X29980000Y62170000D03*
%TO.P,J2,2*%
X29980000Y59630000D03*
%TO.P,J2,3*%
%TO.N,+5V*%
X27440000Y62170000D03*
%TO.P,J2,4*%
X27440000Y59630000D03*
%TO.P,J2,5*%
%TO.N,GND*%
X24900000Y62170000D03*
%TO.P,J2,6*%
X24900000Y59630000D03*
%TD*%
%TO.P,J3,1*%
%TO.N,/#RES*%
X16280000Y59630000D03*
%TO.P,J3,2*%
X16280000Y62170000D03*
%TO.P,J3,3*%
%TO.N,/#INT*%
X18820000Y59630000D03*
%TO.P,J3,4*%
X18820000Y62170000D03*
%TO.P,J3,5*%
%TO.N,/AUX*%
X21360000Y59630000D03*
%TO.P,J3,6*%
X21360000Y62170000D03*
%TD*%
D12*
%TO.N,GND*%
X14200000Y55400000D03*
X-3200000Y29800000D03*
X8800000Y55700000D03*
X15500000Y24000000D03*
X9500000Y24000000D03*
X10500000Y24000000D03*
X8800000Y54700000D03*
X22200000Y31600000D03*
X6000000Y30800000D03*
X5000000Y48800000D03*
X-800000Y29800000D03*
X8400000Y24000000D03*
X15100000Y54600000D03*
X900000Y34000000D03*
X23400000Y31600000D03*
X22300000Y54900000D03*
X14400000Y24000000D03*
X24600000Y31600000D03*
X22200000Y35000000D03*
X8000000Y36100000D03*
X35400000Y49300000D03*
X24600000Y35000000D03*
X-1300000Y38100000D03*
X9000000Y36100000D03*
X5900000Y48700000D03*
X-900000Y34000000D03*
X1300000Y38100000D03*
X23400000Y35000000D03*
X10600000Y31600000D03*
%TO.N,/BS0*%
X40500000Y45000000D03*
%TO.N,/#CS*%
X21500000Y44700000D03*
%TO.N,/#RES*%
X20100000Y45400000D03*
%TO.N,/SCLIN*%
X20300000Y53700000D03*
%TD*%
D13*
%TO.N,/BS0*%
X40500000Y45000000D02*
X36720000Y48780000D01*
X36720000Y48780000D02*
X36720000Y51300000D01*
%TO.N,/#CS*%
X21500000Y44700000D02*
X24100000Y44700000D01*
X24100000Y44700000D02*
X29100000Y49700000D01*
X29100000Y49700000D02*
X29100000Y51300000D01*
%TO.N,/#RES*%
X23600000Y45600000D02*
X26560000Y48560000D01*
X20100000Y45400000D02*
X20300000Y45600000D01*
X26560000Y48560000D02*
X26560000Y51300000D01*
X20300000Y45600000D02*
X23600000Y45600000D01*
%TO.N,/DC*%
X35375978Y54200000D02*
X35825489Y53750489D01*
X24120000Y51880000D02*
X26440000Y54200000D01*
X38365489Y53750489D02*
X39615000Y55000000D01*
X35825489Y53750489D02*
X38365489Y53750489D01*
X26440000Y54200000D02*
X35375978Y54200000D01*
%TO.N,/SDAIN*%
X33000000Y57000000D02*
X21300000Y57000000D01*
X34400000Y59485000D02*
X34400000Y58400000D01*
X19550000Y55250000D02*
X19040000Y54740000D01*
X34400000Y58400000D02*
X33000000Y57000000D01*
X19530000Y55250000D02*
X19550000Y55250000D01*
X34490000Y59575000D02*
X34400000Y59485000D01*
X21300000Y57000000D02*
X19550000Y55250000D01*
X19040000Y54740000D02*
X19040000Y51880000D01*
%TO.N,/SCLIN*%
X21700000Y53700000D02*
X22500000Y52900000D01*
X22500000Y52900000D02*
X21480000Y51880000D01*
X24800000Y55200000D02*
X22500000Y52900000D01*
X36500000Y57600000D02*
X34100000Y55200000D01*
X34100000Y55200000D02*
X24800000Y55200000D01*
X37595000Y57600000D02*
X36500000Y57600000D01*
X20300000Y53700000D02*
X21700000Y53700000D01*
%TD*%
%TA.AperFunction,Conductor*%
%TO.N,GND*%
G36*
X55230691Y65412593D02*
G01*
X55266655Y65363093D01*
X55271500Y65332500D01*
X55271500Y-4372500D01*
X55252593Y-4430691D01*
X55203093Y-4466655D01*
X55172500Y-4471500D01*
X-4372500Y-4471500D01*
X-4430691Y-4452593D01*
X-4466655Y-4403093D01*
X-4471500Y-4372500D01*
X-4471500Y7718234D01*
X158000Y7718234D01*
X158948Y7708612D01*
X170603Y7650017D01*
X177922Y7632349D01*
X222341Y7565870D01*
X235870Y7552341D01*
X302349Y7507922D01*
X320017Y7500603D01*
X378612Y7488948D01*
X388234Y7488000D01*
X900320Y7488000D01*
X913005Y7492122D01*
X916000Y7496243D01*
X916000Y7503680D01*
X1424000Y7503680D01*
X1428122Y7490995D01*
X1432243Y7488000D01*
X1951766Y7488000D01*
X1961388Y7488948D01*
X2019983Y7500603D01*
X2037651Y7507922D01*
X2104130Y7552341D01*
X2117659Y7565870D01*
X2162078Y7632349D01*
X2169397Y7650017D01*
X2177323Y7689866D01*
X2439500Y7689866D01*
X2446255Y7627684D01*
X2448435Y7621869D01*
X2493896Y7500603D01*
X2497385Y7491295D01*
X2584739Y7374739D01*
X2701295Y7287385D01*
X2837684Y7236255D01*
X2843856Y7235585D01*
X2843858Y7235584D01*
X2879837Y7231676D01*
X2899866Y7229500D01*
X4520134Y7229500D01*
X4540163Y7231676D01*
X4576142Y7235584D01*
X4576144Y7235585D01*
X4582316Y7236255D01*
X4718705Y7287385D01*
X4835261Y7374739D01*
X4839491Y7380383D01*
X4839495Y7380387D01*
X4900780Y7462159D01*
X4950808Y7497384D01*
X5011986Y7496476D01*
X5059220Y7462159D01*
X5120505Y7380387D01*
X5120509Y7380383D01*
X5124739Y7374739D01*
X5241295Y7287385D01*
X5377684Y7236255D01*
X5383856Y7235585D01*
X5383858Y7235584D01*
X5419837Y7231676D01*
X5439866Y7229500D01*
X7060134Y7229500D01*
X7080163Y7231676D01*
X7116142Y7235584D01*
X7116144Y7235585D01*
X7122316Y7236255D01*
X7258705Y7287385D01*
X7375261Y7374739D01*
X7462615Y7491295D01*
X7466105Y7500603D01*
X7511565Y7621869D01*
X7513745Y7627684D01*
X7520500Y7689866D01*
X43079500Y7689866D01*
X43086255Y7627684D01*
X43088435Y7621869D01*
X43133896Y7500603D01*
X43137385Y7491295D01*
X43224739Y7374739D01*
X43341295Y7287385D01*
X43477684Y7236255D01*
X43483856Y7235585D01*
X43483858Y7235584D01*
X43519837Y7231676D01*
X43539866Y7229500D01*
X45160134Y7229500D01*
X45180163Y7231676D01*
X45216142Y7235584D01*
X45216144Y7235585D01*
X45222316Y7236255D01*
X45358705Y7287385D01*
X45475261Y7374739D01*
X45479491Y7380383D01*
X45479495Y7380387D01*
X45540780Y7462159D01*
X45590808Y7497384D01*
X45651986Y7496476D01*
X45699220Y7462159D01*
X45760505Y7380387D01*
X45760509Y7380383D01*
X45764739Y7374739D01*
X45881295Y7287385D01*
X46017684Y7236255D01*
X46023856Y7235585D01*
X46023858Y7235584D01*
X46059837Y7231676D01*
X46079866Y7229500D01*
X47700134Y7229500D01*
X47720163Y7231676D01*
X47756142Y7235584D01*
X47756144Y7235585D01*
X47762316Y7236255D01*
X47898705Y7287385D01*
X48015261Y7374739D01*
X48102615Y7491295D01*
X48106105Y7500603D01*
X48151565Y7621869D01*
X48153745Y7627684D01*
X48160500Y7689866D01*
X48160500Y7718234D01*
X48418000Y7718234D01*
X48418948Y7708612D01*
X48430603Y7650017D01*
X48437922Y7632349D01*
X48482341Y7565870D01*
X48495870Y7552341D01*
X48562349Y7507922D01*
X48580017Y7500603D01*
X48638612Y7488948D01*
X48648234Y7488000D01*
X49160320Y7488000D01*
X49173005Y7492122D01*
X49176000Y7496243D01*
X49176000Y7503680D01*
X49684000Y7503680D01*
X49688122Y7490995D01*
X49692243Y7488000D01*
X50211766Y7488000D01*
X50221388Y7488948D01*
X50279983Y7500603D01*
X50297651Y7507922D01*
X50364130Y7552341D01*
X50377659Y7565870D01*
X50422078Y7632349D01*
X50429397Y7650017D01*
X50441052Y7708612D01*
X50442000Y7718234D01*
X50442000Y8230320D01*
X50437878Y8243005D01*
X50433757Y8246000D01*
X49699680Y8246000D01*
X49686995Y8241878D01*
X49684000Y8237757D01*
X49684000Y7503680D01*
X49176000Y7503680D01*
X49176000Y8230320D01*
X49171878Y8243005D01*
X49167757Y8246000D01*
X48433680Y8246000D01*
X48420995Y8241878D01*
X48418000Y8237757D01*
X48418000Y7718234D01*
X48160500Y7718234D01*
X48160500Y8769680D01*
X48418000Y8769680D01*
X48422122Y8756995D01*
X48426243Y8754000D01*
X49160320Y8754000D01*
X49173005Y8758122D01*
X49176000Y8762243D01*
X49176000Y8769680D01*
X49684000Y8769680D01*
X49688122Y8756995D01*
X49692243Y8754000D01*
X50426320Y8754000D01*
X50439005Y8758122D01*
X50442000Y8762243D01*
X50442000Y9281766D01*
X50441052Y9291388D01*
X50429397Y9349983D01*
X50422078Y9367651D01*
X50377659Y9434130D01*
X50364130Y9447659D01*
X50297651Y9492078D01*
X50279983Y9499397D01*
X50221388Y9511052D01*
X50211766Y9512000D01*
X49699680Y9512000D01*
X49686995Y9507878D01*
X49684000Y9503757D01*
X49684000Y8769680D01*
X49176000Y8769680D01*
X49176000Y9496320D01*
X49171878Y9509005D01*
X49167757Y9512000D01*
X48648234Y9512000D01*
X48638612Y9511052D01*
X48580017Y9499397D01*
X48562349Y9492078D01*
X48495870Y9447659D01*
X48482341Y9434130D01*
X48437922Y9367651D01*
X48430603Y9349983D01*
X48418948Y9291388D01*
X48418000Y9281766D01*
X48418000Y8769680D01*
X48160500Y8769680D01*
X48160500Y9310134D01*
X48153745Y9372316D01*
X48107258Y9496320D01*
X48105089Y9502106D01*
X48105089Y9502107D01*
X48102615Y9508705D01*
X48015261Y9625261D01*
X47898705Y9712615D01*
X47762316Y9763745D01*
X47756144Y9764415D01*
X47756142Y9764416D01*
X47720163Y9768324D01*
X47700134Y9770500D01*
X46079866Y9770500D01*
X46059837Y9768324D01*
X46023858Y9764416D01*
X46023856Y9764415D01*
X46017684Y9763745D01*
X45881295Y9712615D01*
X45764739Y9625261D01*
X45760509Y9619617D01*
X45760505Y9619613D01*
X45699220Y9537841D01*
X45649192Y9502616D01*
X45588014Y9503524D01*
X45540780Y9537841D01*
X45479495Y9619613D01*
X45479491Y9619617D01*
X45475261Y9625261D01*
X45358705Y9712615D01*
X45222316Y9763745D01*
X45216144Y9764415D01*
X45216142Y9764416D01*
X45180163Y9768324D01*
X45160134Y9770500D01*
X43539866Y9770500D01*
X43519837Y9768324D01*
X43483858Y9764416D01*
X43483856Y9764415D01*
X43477684Y9763745D01*
X43341295Y9712615D01*
X43224739Y9625261D01*
X43137385Y9508705D01*
X43134911Y9502107D01*
X43134911Y9502106D01*
X43132742Y9496320D01*
X43086255Y9372316D01*
X43079500Y9310134D01*
X43079500Y7689866D01*
X7520500Y7689866D01*
X7520500Y9310134D01*
X7513745Y9372316D01*
X7467258Y9496320D01*
X7465089Y9502106D01*
X7465089Y9502107D01*
X7462615Y9508705D01*
X7375261Y9625261D01*
X7258705Y9712615D01*
X7122316Y9763745D01*
X7116144Y9764415D01*
X7116142Y9764416D01*
X7080163Y9768324D01*
X7060134Y9770500D01*
X5439866Y9770500D01*
X5419837Y9768324D01*
X5383858Y9764416D01*
X5383856Y9764415D01*
X5377684Y9763745D01*
X5241295Y9712615D01*
X5124739Y9625261D01*
X5120509Y9619617D01*
X5120505Y9619613D01*
X5059220Y9537841D01*
X5009192Y9502616D01*
X4948014Y9503524D01*
X4900780Y9537841D01*
X4839495Y9619613D01*
X4839491Y9619617D01*
X4835261Y9625261D01*
X4718705Y9712615D01*
X4582316Y9763745D01*
X4576144Y9764415D01*
X4576142Y9764416D01*
X4540163Y9768324D01*
X4520134Y9770500D01*
X2899866Y9770500D01*
X2879837Y9768324D01*
X2843858Y9764416D01*
X2843856Y9764415D01*
X2837684Y9763745D01*
X2701295Y9712615D01*
X2584739Y9625261D01*
X2497385Y9508705D01*
X2494911Y9502107D01*
X2494911Y9502106D01*
X2492742Y9496320D01*
X2446255Y9372316D01*
X2439500Y9310134D01*
X2439500Y7689866D01*
X2177323Y7689866D01*
X2181052Y7708612D01*
X2182000Y7718234D01*
X2182000Y8230320D01*
X2177878Y8243005D01*
X2173757Y8246000D01*
X1439680Y8246000D01*
X1426995Y8241878D01*
X1424000Y8237757D01*
X1424000Y7503680D01*
X916000Y7503680D01*
X916000Y8230320D01*
X911878Y8243005D01*
X907757Y8246000D01*
X173680Y8246000D01*
X160995Y8241878D01*
X158000Y8237757D01*
X158000Y7718234D01*
X-4471500Y7718234D01*
X-4471500Y8769680D01*
X158000Y8769680D01*
X162122Y8756995D01*
X166243Y8754000D01*
X900320Y8754000D01*
X913005Y8758122D01*
X916000Y8762243D01*
X916000Y8769680D01*
X1424000Y8769680D01*
X1428122Y8756995D01*
X1432243Y8754000D01*
X2166320Y8754000D01*
X2179005Y8758122D01*
X2182000Y8762243D01*
X2182000Y9281766D01*
X2181052Y9291388D01*
X2169397Y9349983D01*
X2162078Y9367651D01*
X2117659Y9434130D01*
X2104130Y9447659D01*
X2037651Y9492078D01*
X2019983Y9499397D01*
X1961388Y9511052D01*
X1951766Y9512000D01*
X1439680Y9512000D01*
X1426995Y9507878D01*
X1424000Y9503757D01*
X1424000Y8769680D01*
X916000Y8769680D01*
X916000Y9496320D01*
X911878Y9509005D01*
X907757Y9512000D01*
X388234Y9512000D01*
X378612Y9511052D01*
X320017Y9499397D01*
X302349Y9492078D01*
X235870Y9447659D01*
X222341Y9434130D01*
X177922Y9367651D01*
X170603Y9349983D01*
X158948Y9291388D01*
X158000Y9281766D01*
X158000Y8769680D01*
X-4471500Y8769680D01*
X-4471500Y50489866D01*
X-110500Y50489866D01*
X-103745Y50427684D01*
X-101565Y50421869D01*
X-56104Y50300603D01*
X-52615Y50291295D01*
X34739Y50174739D01*
X151295Y50087385D01*
X287684Y50036255D01*
X293856Y50035585D01*
X293858Y50035584D01*
X329837Y50031676D01*
X349866Y50029500D01*
X1970134Y50029500D01*
X1990163Y50031676D01*
X2026142Y50035584D01*
X2026144Y50035585D01*
X2032316Y50036255D01*
X2168705Y50087385D01*
X2285261Y50174739D01*
X2289491Y50180383D01*
X2289495Y50180387D01*
X2350780Y50262159D01*
X2400808Y50297384D01*
X2461986Y50296476D01*
X2509220Y50262159D01*
X2570505Y50180387D01*
X2570509Y50180383D01*
X2574739Y50174739D01*
X2691295Y50087385D01*
X2827684Y50036255D01*
X2833856Y50035585D01*
X2833858Y50035584D01*
X2869837Y50031676D01*
X2889866Y50029500D01*
X4510134Y50029500D01*
X4530163Y50031676D01*
X4566142Y50035584D01*
X4566144Y50035585D01*
X4572316Y50036255D01*
X4708705Y50087385D01*
X4825261Y50174739D01*
X4829491Y50180383D01*
X4829495Y50180387D01*
X4890780Y50262159D01*
X4940808Y50297384D01*
X5001986Y50296476D01*
X5049220Y50262159D01*
X5110505Y50180387D01*
X5110509Y50180383D01*
X5114739Y50174739D01*
X5231295Y50087385D01*
X5367684Y50036255D01*
X5373856Y50035585D01*
X5373858Y50035584D01*
X5409837Y50031676D01*
X5429866Y50029500D01*
X7050134Y50029500D01*
X7070163Y50031676D01*
X7106142Y50035584D01*
X7106144Y50035585D01*
X7112316Y50036255D01*
X7248705Y50087385D01*
X7365261Y50174739D01*
X7369491Y50180383D01*
X7369495Y50180387D01*
X7430780Y50262159D01*
X7480808Y50297384D01*
X7541986Y50296476D01*
X7589220Y50262159D01*
X7650505Y50180387D01*
X7650509Y50180383D01*
X7654739Y50174739D01*
X7771295Y50087385D01*
X7907684Y50036255D01*
X7913856Y50035585D01*
X7913858Y50035584D01*
X7949837Y50031676D01*
X7969866Y50029500D01*
X9590134Y50029500D01*
X9610163Y50031676D01*
X9646142Y50035584D01*
X9646144Y50035585D01*
X9652316Y50036255D01*
X9788705Y50087385D01*
X9905261Y50174739D01*
X9909491Y50180383D01*
X9909495Y50180387D01*
X9970780Y50262159D01*
X10020808Y50297384D01*
X10081986Y50296476D01*
X10129220Y50262159D01*
X10190505Y50180387D01*
X10190509Y50180383D01*
X10194739Y50174739D01*
X10311295Y50087385D01*
X10447684Y50036255D01*
X10453856Y50035585D01*
X10453858Y50035584D01*
X10489837Y50031676D01*
X10509866Y50029500D01*
X12130134Y50029500D01*
X12150163Y50031676D01*
X12186142Y50035584D01*
X12186144Y50035585D01*
X12192316Y50036255D01*
X12328705Y50087385D01*
X12445261Y50174739D01*
X12532615Y50291295D01*
X12536105Y50300603D01*
X12581565Y50421869D01*
X12583745Y50427684D01*
X12590500Y50489866D01*
X12590500Y50518234D01*
X12848000Y50518234D01*
X12848948Y50508612D01*
X12860603Y50450017D01*
X12867922Y50432349D01*
X12912341Y50365870D01*
X12925870Y50352341D01*
X12992349Y50307922D01*
X13010017Y50300603D01*
X13068612Y50288948D01*
X13078234Y50288000D01*
X13590320Y50288000D01*
X13603005Y50292122D01*
X13606000Y50296243D01*
X13606000Y50303680D01*
X14114000Y50303680D01*
X14118122Y50290995D01*
X14122243Y50288000D01*
X14641766Y50288000D01*
X14651388Y50288948D01*
X14709983Y50300603D01*
X14727651Y50307922D01*
X14794130Y50352341D01*
X14807659Y50365870D01*
X14852078Y50432349D01*
X14859397Y50450017D01*
X14867323Y50489866D01*
X15129500Y50489866D01*
X15136255Y50427684D01*
X15138435Y50421869D01*
X15183896Y50300603D01*
X15187385Y50291295D01*
X15274739Y50174739D01*
X15391295Y50087385D01*
X15527684Y50036255D01*
X15533856Y50035585D01*
X15533858Y50035584D01*
X15569837Y50031676D01*
X15589866Y50029500D01*
X17210134Y50029500D01*
X17230163Y50031676D01*
X17266142Y50035584D01*
X17266144Y50035585D01*
X17272316Y50036255D01*
X17408705Y50087385D01*
X17525261Y50174739D01*
X17529491Y50180383D01*
X17529495Y50180387D01*
X17590780Y50262159D01*
X17640808Y50297384D01*
X17701986Y50296476D01*
X17749220Y50262159D01*
X17810505Y50180387D01*
X17810509Y50180383D01*
X17814739Y50174739D01*
X17931295Y50087385D01*
X18067684Y50036255D01*
X18073856Y50035585D01*
X18073858Y50035584D01*
X18109837Y50031676D01*
X18129866Y50029500D01*
X19750134Y50029500D01*
X19770163Y50031676D01*
X19806142Y50035584D01*
X19806144Y50035585D01*
X19812316Y50036255D01*
X19948705Y50087385D01*
X20065261Y50174739D01*
X20069491Y50180383D01*
X20069495Y50180387D01*
X20130780Y50262159D01*
X20180808Y50297384D01*
X20241986Y50296476D01*
X20289220Y50262159D01*
X20350505Y50180387D01*
X20350509Y50180383D01*
X20354739Y50174739D01*
X20471295Y50087385D01*
X20607684Y50036255D01*
X20613856Y50035585D01*
X20613858Y50035584D01*
X20649837Y50031676D01*
X20669866Y50029500D01*
X22290134Y50029500D01*
X22310163Y50031676D01*
X22346142Y50035584D01*
X22346144Y50035585D01*
X22352316Y50036255D01*
X22488705Y50087385D01*
X22605261Y50174739D01*
X22609491Y50180383D01*
X22609495Y50180387D01*
X22670780Y50262159D01*
X22720808Y50297384D01*
X22781986Y50296476D01*
X22829220Y50262159D01*
X22890505Y50180387D01*
X22890509Y50180383D01*
X22894739Y50174739D01*
X23011295Y50087385D01*
X23147684Y50036255D01*
X23153856Y50035585D01*
X23153858Y50035584D01*
X23189837Y50031676D01*
X23209866Y50029500D01*
X24830134Y50029500D01*
X24850163Y50031676D01*
X24886142Y50035584D01*
X24886144Y50035585D01*
X24892316Y50036255D01*
X25028705Y50087385D01*
X25145261Y50174739D01*
X25149491Y50180383D01*
X25149495Y50180387D01*
X25210780Y50262159D01*
X25260808Y50297384D01*
X25321986Y50296476D01*
X25369220Y50262159D01*
X25430505Y50180387D01*
X25430509Y50180383D01*
X25434739Y50174739D01*
X25551295Y50087385D01*
X25687684Y50036255D01*
X25693856Y50035585D01*
X25693858Y50035584D01*
X25729837Y50031676D01*
X25749866Y50029500D01*
X25752542Y50029500D01*
X25755219Y50029355D01*
X25755180Y50028629D01*
X25810691Y50010593D01*
X25846655Y49961093D01*
X25851500Y49930500D01*
X25851500Y48894478D01*
X25832593Y48836287D01*
X25822504Y48824474D01*
X23335526Y46337496D01*
X23281009Y46309719D01*
X23265522Y46308500D01*
X20328014Y46308500D01*
X20321281Y46308729D01*
X20319110Y46308877D01*
X20262648Y46312726D01*
X20233719Y46307677D01*
X20205863Y46308194D01*
X20205725Y46306879D01*
X20200559Y46307422D01*
X20195487Y46308500D01*
X20004513Y46308500D01*
X19857917Y46277340D01*
X19822783Y46269872D01*
X19822782Y46269872D01*
X19817712Y46268794D01*
X19812978Y46266686D01*
X19812974Y46266685D01*
X19745723Y46236742D01*
X19643248Y46191118D01*
X19488747Y46078866D01*
X19485281Y46075017D01*
X19485277Y46075013D01*
X19371424Y45948566D01*
X19360960Y45936944D01*
X19358365Y45932449D01*
X19268067Y45776050D01*
X19268065Y45776045D01*
X19265473Y45771556D01*
X19263871Y45766625D01*
X19208060Y45594860D01*
X19208059Y45594855D01*
X19206458Y45589928D01*
X19186496Y45400000D01*
X19206458Y45210072D01*
X19208059Y45205145D01*
X19208060Y45205140D01*
X19213003Y45189928D01*
X19265473Y45028444D01*
X19268065Y45023955D01*
X19268067Y45023950D01*
X19324658Y44925932D01*
X19360960Y44863056D01*
X19364432Y44859200D01*
X19485277Y44724987D01*
X19485281Y44724983D01*
X19488747Y44721134D01*
X19643248Y44608882D01*
X19728205Y44571057D01*
X19812974Y44533315D01*
X19812978Y44533314D01*
X19817712Y44531206D01*
X19822782Y44530128D01*
X19822783Y44530128D01*
X19857917Y44522660D01*
X20004513Y44491500D01*
X20195487Y44491500D01*
X20342083Y44522660D01*
X20377217Y44530128D01*
X20377218Y44530128D01*
X20382288Y44531206D01*
X20471796Y44571057D01*
X20532644Y44577453D01*
X20585632Y44546860D01*
X20604678Y44509494D01*
X20606458Y44510072D01*
X20665473Y44328444D01*
X20668065Y44323955D01*
X20668067Y44323950D01*
X20730459Y44215885D01*
X20760960Y44163056D01*
X20764432Y44159200D01*
X20885277Y44024987D01*
X20885281Y44024983D01*
X20888747Y44021134D01*
X21043248Y43908882D01*
X21145723Y43863258D01*
X21212974Y43833315D01*
X21212978Y43833314D01*
X21217712Y43831206D01*
X21222782Y43830128D01*
X21222783Y43830128D01*
X21257917Y43822660D01*
X21404513Y43791500D01*
X21595487Y43791500D01*
X21742083Y43822660D01*
X21777217Y43830128D01*
X21777218Y43830128D01*
X21782288Y43831206D01*
X21787022Y43833314D01*
X21787026Y43833315D01*
X21869520Y43870044D01*
X21956752Y43908882D01*
X22044443Y43972594D01*
X22102632Y43991500D01*
X24072001Y43991500D01*
X24078734Y43991271D01*
X24137352Y43987275D01*
X24143224Y43988300D01*
X24143228Y43988300D01*
X24200987Y43998381D01*
X24206115Y43999138D01*
X24264320Y44006181D01*
X24264323Y44006182D01*
X24270242Y44006898D01*
X24275820Y44009006D01*
X24275825Y44009007D01*
X24279040Y44010222D01*
X24297013Y44015139D01*
X24297811Y44015278D01*
X24306284Y44016757D01*
X24365436Y44042723D01*
X24370232Y44044681D01*
X24425072Y44065403D01*
X24430656Y44067513D01*
X24438413Y44072844D01*
X24454683Y44081900D01*
X24463305Y44085685D01*
X24514552Y44125009D01*
X24518747Y44128057D01*
X24567064Y44161264D01*
X24571981Y44164643D01*
X24613942Y44211739D01*
X24617855Y44215885D01*
X29581187Y49179217D01*
X29586111Y49183816D01*
X29625888Y49218516D01*
X29630385Y49222439D01*
X29667532Y49275294D01*
X29670595Y49279420D01*
X29710477Y49330282D01*
X29714351Y49338861D01*
X29723579Y49355040D01*
X29728990Y49362739D01*
X29752456Y49422926D01*
X29754460Y49427694D01*
X29778590Y49481136D01*
X29781045Y49486573D01*
X29782760Y49495824D01*
X29787863Y49513738D01*
X29791282Y49522509D01*
X29799714Y49586557D01*
X29800525Y49591676D01*
X29811207Y49649312D01*
X29812296Y49655187D01*
X29808664Y49718173D01*
X29808500Y49723872D01*
X29808500Y49930500D01*
X29827407Y49988691D01*
X29876907Y50024655D01*
X29904796Y50029072D01*
X29904781Y50029355D01*
X29907458Y50029500D01*
X29910134Y50029500D01*
X29930163Y50031676D01*
X29966142Y50035584D01*
X29966144Y50035585D01*
X29972316Y50036255D01*
X30108705Y50087385D01*
X30225261Y50174739D01*
X30312615Y50291295D01*
X30316105Y50300603D01*
X30361565Y50421869D01*
X30363745Y50427684D01*
X30370500Y50489866D01*
X30370500Y50518234D01*
X30628000Y50518234D01*
X30628948Y50508612D01*
X30640603Y50450017D01*
X30647922Y50432349D01*
X30692341Y50365870D01*
X30705870Y50352341D01*
X30772349Y50307922D01*
X30790017Y50300603D01*
X30848612Y50288948D01*
X30858234Y50288000D01*
X31370320Y50288000D01*
X31383005Y50292122D01*
X31386000Y50296243D01*
X31386000Y50303680D01*
X31894000Y50303680D01*
X31898122Y50290995D01*
X31902243Y50288000D01*
X32421766Y50288000D01*
X32431388Y50288948D01*
X32489983Y50300603D01*
X32507651Y50307922D01*
X32574130Y50352341D01*
X32587659Y50365870D01*
X32632078Y50432349D01*
X32639397Y50450017D01*
X32647323Y50489866D01*
X32909500Y50489866D01*
X32916255Y50427684D01*
X32918435Y50421869D01*
X32963896Y50300603D01*
X32967385Y50291295D01*
X33054739Y50174739D01*
X33171295Y50087385D01*
X33307684Y50036255D01*
X33313856Y50035585D01*
X33313858Y50035584D01*
X33349837Y50031676D01*
X33369866Y50029500D01*
X34990134Y50029500D01*
X35010163Y50031676D01*
X35046142Y50035584D01*
X35046144Y50035585D01*
X35052316Y50036255D01*
X35188705Y50087385D01*
X35305261Y50174739D01*
X35309491Y50180383D01*
X35309495Y50180387D01*
X35370780Y50262159D01*
X35420808Y50297384D01*
X35481986Y50296476D01*
X35529220Y50262159D01*
X35590505Y50180387D01*
X35590509Y50180383D01*
X35594739Y50174739D01*
X35711295Y50087385D01*
X35847684Y50036255D01*
X35853856Y50035585D01*
X35853858Y50035584D01*
X35889837Y50031676D01*
X35909866Y50029500D01*
X35912542Y50029500D01*
X35915219Y50029355D01*
X35915180Y50028629D01*
X35970691Y50010593D01*
X36006655Y49961093D01*
X36011500Y49930500D01*
X36011500Y48807999D01*
X36011271Y48801266D01*
X36007275Y48742648D01*
X36008300Y48736776D01*
X36008300Y48736772D01*
X36018381Y48679013D01*
X36019138Y48673886D01*
X36026898Y48609758D01*
X36029006Y48604180D01*
X36029007Y48604175D01*
X36030222Y48600960D01*
X36035139Y48582987D01*
X36036757Y48573716D01*
X36039157Y48568249D01*
X36062722Y48514567D01*
X36064680Y48509771D01*
X36087513Y48449344D01*
X36092844Y48441587D01*
X36101900Y48425317D01*
X36105685Y48416695D01*
X36109321Y48411957D01*
X36145009Y48365448D01*
X36148057Y48361253D01*
X36184643Y48308019D01*
X36189097Y48304051D01*
X36231739Y48266058D01*
X36235885Y48262145D01*
X39572097Y44925932D01*
X39600551Y44866277D01*
X39606458Y44810072D01*
X39608059Y44805145D01*
X39608060Y44805140D01*
X39634104Y44724987D01*
X39665473Y44628444D01*
X39668065Y44623955D01*
X39668067Y44623950D01*
X39720396Y44533315D01*
X39760960Y44463056D01*
X39764432Y44459200D01*
X39885277Y44324987D01*
X39885281Y44324983D01*
X39888747Y44321134D01*
X40043248Y44208882D01*
X40142611Y44164643D01*
X40212974Y44133315D01*
X40212978Y44133314D01*
X40217712Y44131206D01*
X40222782Y44130128D01*
X40222783Y44130128D01*
X40239433Y44126589D01*
X40404513Y44091500D01*
X40595487Y44091500D01*
X40760567Y44126589D01*
X40777217Y44130128D01*
X40777218Y44130128D01*
X40782288Y44131206D01*
X40787022Y44133314D01*
X40787026Y44133315D01*
X40857389Y44164643D01*
X40956752Y44208882D01*
X41111253Y44321134D01*
X41114719Y44324983D01*
X41114723Y44324987D01*
X41235568Y44459200D01*
X41239040Y44463056D01*
X41279604Y44533315D01*
X41331933Y44623950D01*
X41331935Y44623955D01*
X41334527Y44628444D01*
X41365896Y44724987D01*
X41391940Y44805140D01*
X41391941Y44805145D01*
X41393542Y44810072D01*
X41413504Y45000000D01*
X41393542Y45189928D01*
X41391941Y45194855D01*
X41391940Y45194860D01*
X41336129Y45366625D01*
X41334527Y45371556D01*
X41331935Y45376045D01*
X41331933Y45376050D01*
X41241635Y45532449D01*
X41239040Y45536944D01*
X41228576Y45548566D01*
X41114723Y45675013D01*
X41114719Y45675017D01*
X41111253Y45678866D01*
X40956752Y45791118D01*
X40854277Y45836742D01*
X40787026Y45866685D01*
X40787022Y45866686D01*
X40782288Y45868794D01*
X40777218Y45869872D01*
X40777217Y45869872D01*
X40705887Y45885034D01*
X40621611Y45902947D01*
X40572190Y45929780D01*
X37457496Y49044474D01*
X37429719Y49098991D01*
X37428500Y49114478D01*
X37428500Y49930500D01*
X37447407Y49988691D01*
X37496907Y50024655D01*
X37524796Y50029072D01*
X37524781Y50029355D01*
X37527458Y50029500D01*
X37530134Y50029500D01*
X37550163Y50031676D01*
X37586142Y50035584D01*
X37586144Y50035585D01*
X37592316Y50036255D01*
X37728705Y50087385D01*
X37845261Y50174739D01*
X37849491Y50180383D01*
X37849495Y50180387D01*
X37910780Y50262159D01*
X37960808Y50297384D01*
X38021986Y50296476D01*
X38069220Y50262159D01*
X38130505Y50180387D01*
X38130509Y50180383D01*
X38134739Y50174739D01*
X38251295Y50087385D01*
X38387684Y50036255D01*
X38393856Y50035585D01*
X38393858Y50035584D01*
X38429837Y50031676D01*
X38449866Y50029500D01*
X40070134Y50029500D01*
X40090163Y50031676D01*
X40126142Y50035584D01*
X40126144Y50035585D01*
X40132316Y50036255D01*
X40268705Y50087385D01*
X40385261Y50174739D01*
X40472615Y50291295D01*
X40476105Y50300603D01*
X40521565Y50421869D01*
X40523745Y50427684D01*
X40530500Y50489866D01*
X40530500Y50518234D01*
X40788000Y50518234D01*
X40788948Y50508612D01*
X40800603Y50450017D01*
X40807922Y50432349D01*
X40852341Y50365870D01*
X40865870Y50352341D01*
X40932349Y50307922D01*
X40950017Y50300603D01*
X41008612Y50288948D01*
X41018234Y50288000D01*
X41530320Y50288000D01*
X41543005Y50292122D01*
X41546000Y50296243D01*
X41546000Y50303680D01*
X42054000Y50303680D01*
X42058122Y50290995D01*
X42062243Y50288000D01*
X42581766Y50288000D01*
X42591388Y50288948D01*
X42649983Y50300603D01*
X42667651Y50307922D01*
X42734130Y50352341D01*
X42747659Y50365870D01*
X42792078Y50432349D01*
X42799397Y50450017D01*
X42811052Y50508612D01*
X42812000Y50518234D01*
X43328000Y50518234D01*
X43328948Y50508612D01*
X43340603Y50450017D01*
X43347922Y50432349D01*
X43392341Y50365870D01*
X43405870Y50352341D01*
X43472349Y50307922D01*
X43490017Y50300603D01*
X43548612Y50288948D01*
X43558234Y50288000D01*
X44070320Y50288000D01*
X44083005Y50292122D01*
X44086000Y50296243D01*
X44086000Y50303680D01*
X44594000Y50303680D01*
X44598122Y50290995D01*
X44602243Y50288000D01*
X45121766Y50288000D01*
X45131388Y50288948D01*
X45189983Y50300603D01*
X45207651Y50307922D01*
X45274130Y50352341D01*
X45287659Y50365870D01*
X45332078Y50432349D01*
X45339397Y50450017D01*
X45347323Y50489866D01*
X45609500Y50489866D01*
X45616255Y50427684D01*
X45618435Y50421869D01*
X45663896Y50300603D01*
X45667385Y50291295D01*
X45754739Y50174739D01*
X45871295Y50087385D01*
X46007684Y50036255D01*
X46013856Y50035585D01*
X46013858Y50035584D01*
X46049837Y50031676D01*
X46069866Y50029500D01*
X47690134Y50029500D01*
X47710163Y50031676D01*
X47746142Y50035584D01*
X47746144Y50035585D01*
X47752316Y50036255D01*
X47888705Y50087385D01*
X48005261Y50174739D01*
X48009491Y50180383D01*
X48009495Y50180387D01*
X48070780Y50262159D01*
X48120808Y50297384D01*
X48181986Y50296476D01*
X48229220Y50262159D01*
X48290505Y50180387D01*
X48290509Y50180383D01*
X48294739Y50174739D01*
X48411295Y50087385D01*
X48547684Y50036255D01*
X48553856Y50035585D01*
X48553858Y50035584D01*
X48589837Y50031676D01*
X48609866Y50029500D01*
X50230134Y50029500D01*
X50250163Y50031676D01*
X50286142Y50035584D01*
X50286144Y50035585D01*
X50292316Y50036255D01*
X50428705Y50087385D01*
X50545261Y50174739D01*
X50632615Y50291295D01*
X50636105Y50300603D01*
X50681565Y50421869D01*
X50683745Y50427684D01*
X50690500Y50489866D01*
X50690500Y52110134D01*
X50686171Y52149983D01*
X50684416Y52166142D01*
X50684415Y52166144D01*
X50683745Y52172316D01*
X50637258Y52296320D01*
X50635089Y52302106D01*
X50635089Y52302107D01*
X50632615Y52308705D01*
X50545261Y52425261D01*
X50428705Y52512615D01*
X50292316Y52563745D01*
X50286144Y52564415D01*
X50286142Y52564416D01*
X50250163Y52568324D01*
X50230134Y52570500D01*
X48609866Y52570500D01*
X48589837Y52568324D01*
X48553858Y52564416D01*
X48553856Y52564415D01*
X48547684Y52563745D01*
X48411295Y52512615D01*
X48294739Y52425261D01*
X48290509Y52419617D01*
X48290505Y52419613D01*
X48229220Y52337841D01*
X48179192Y52302616D01*
X48118014Y52303524D01*
X48070780Y52337841D01*
X48009495Y52419613D01*
X48009491Y52419617D01*
X48005261Y52425261D01*
X47888705Y52512615D01*
X47752316Y52563745D01*
X47746144Y52564415D01*
X47746142Y52564416D01*
X47710163Y52568324D01*
X47690134Y52570500D01*
X46069866Y52570500D01*
X46049837Y52568324D01*
X46013858Y52564416D01*
X46013856Y52564415D01*
X46007684Y52563745D01*
X45871295Y52512615D01*
X45754739Y52425261D01*
X45667385Y52308705D01*
X45664911Y52302107D01*
X45664911Y52302106D01*
X45662742Y52296320D01*
X45616255Y52172316D01*
X45615585Y52166144D01*
X45615584Y52166142D01*
X45613829Y52149983D01*
X45609500Y52110134D01*
X45609500Y50489866D01*
X45347323Y50489866D01*
X45351052Y50508612D01*
X45352000Y50518234D01*
X45352000Y51030320D01*
X45347878Y51043005D01*
X45343757Y51046000D01*
X44609680Y51046000D01*
X44596995Y51041878D01*
X44594000Y51037757D01*
X44594000Y50303680D01*
X44086000Y50303680D01*
X44086000Y51030320D01*
X44081878Y51043005D01*
X44077757Y51046000D01*
X43343680Y51046000D01*
X43330995Y51041878D01*
X43328000Y51037757D01*
X43328000Y50518234D01*
X42812000Y50518234D01*
X42812000Y51030320D01*
X42807878Y51043005D01*
X42803757Y51046000D01*
X42069680Y51046000D01*
X42056995Y51041878D01*
X42054000Y51037757D01*
X42054000Y50303680D01*
X41546000Y50303680D01*
X41546000Y51030320D01*
X41541878Y51043005D01*
X41537757Y51046000D01*
X40803680Y51046000D01*
X40790995Y51041878D01*
X40788000Y51037757D01*
X40788000Y50518234D01*
X40530500Y50518234D01*
X40530500Y51569680D01*
X40788000Y51569680D01*
X40792122Y51556995D01*
X40796243Y51554000D01*
X41530320Y51554000D01*
X41543005Y51558122D01*
X41546000Y51562243D01*
X41546000Y51569680D01*
X42054000Y51569680D01*
X42058122Y51556995D01*
X42062243Y51554000D01*
X42796320Y51554000D01*
X42809005Y51558122D01*
X42812000Y51562243D01*
X42812000Y51569680D01*
X43328000Y51569680D01*
X43332122Y51556995D01*
X43336243Y51554000D01*
X44070320Y51554000D01*
X44083005Y51558122D01*
X44086000Y51562243D01*
X44086000Y51569680D01*
X44594000Y51569680D01*
X44598122Y51556995D01*
X44602243Y51554000D01*
X45336320Y51554000D01*
X45349005Y51558122D01*
X45352000Y51562243D01*
X45352000Y52081766D01*
X45351052Y52091388D01*
X45339397Y52149983D01*
X45332078Y52167651D01*
X45287659Y52234130D01*
X45274130Y52247659D01*
X45207651Y52292078D01*
X45189983Y52299397D01*
X45131388Y52311052D01*
X45121766Y52312000D01*
X44609680Y52312000D01*
X44596995Y52307878D01*
X44594000Y52303757D01*
X44594000Y51569680D01*
X44086000Y51569680D01*
X44086000Y52296320D01*
X44081878Y52309005D01*
X44077757Y52312000D01*
X43558234Y52312000D01*
X43548612Y52311052D01*
X43490017Y52299397D01*
X43472349Y52292078D01*
X43405870Y52247659D01*
X43392341Y52234130D01*
X43347922Y52167651D01*
X43340603Y52149983D01*
X43328948Y52091388D01*
X43328000Y52081766D01*
X43328000Y51569680D01*
X42812000Y51569680D01*
X42812000Y52081766D01*
X42811052Y52091388D01*
X42799397Y52149983D01*
X42792078Y52167651D01*
X42747659Y52234130D01*
X42734130Y52247659D01*
X42667651Y52292078D01*
X42649983Y52299397D01*
X42591388Y52311052D01*
X42581766Y52312000D01*
X42069680Y52312000D01*
X42056995Y52307878D01*
X42054000Y52303757D01*
X42054000Y51569680D01*
X41546000Y51569680D01*
X41546000Y52296320D01*
X41541878Y52309005D01*
X41537757Y52312000D01*
X41018234Y52312000D01*
X41008612Y52311052D01*
X40950017Y52299397D01*
X40932349Y52292078D01*
X40865870Y52247659D01*
X40852341Y52234130D01*
X40807922Y52167651D01*
X40800603Y52149983D01*
X40788948Y52091388D01*
X40788000Y52081766D01*
X40788000Y51569680D01*
X40530500Y51569680D01*
X40530500Y52110134D01*
X40526171Y52149983D01*
X40524416Y52166142D01*
X40524415Y52166144D01*
X40523745Y52172316D01*
X40477258Y52296320D01*
X40475089Y52302106D01*
X40475089Y52302107D01*
X40472615Y52308705D01*
X40385261Y52425261D01*
X40268705Y52512615D01*
X40132316Y52563745D01*
X40126144Y52564415D01*
X40126142Y52564416D01*
X40090163Y52568324D01*
X40070134Y52570500D01*
X38449866Y52570500D01*
X38429837Y52568324D01*
X38393858Y52564416D01*
X38393856Y52564415D01*
X38387684Y52563745D01*
X38251295Y52512615D01*
X38134739Y52425261D01*
X38130509Y52419617D01*
X38130505Y52419613D01*
X38069220Y52337841D01*
X38019192Y52302616D01*
X37958014Y52303524D01*
X37910780Y52337841D01*
X37849495Y52419613D01*
X37849491Y52419617D01*
X37845261Y52425261D01*
X37728705Y52512615D01*
X37592316Y52563745D01*
X37586144Y52564415D01*
X37586142Y52564416D01*
X37550163Y52568324D01*
X37530134Y52570500D01*
X35909866Y52570500D01*
X35889837Y52568324D01*
X35853858Y52564416D01*
X35853856Y52564415D01*
X35847684Y52563745D01*
X35711295Y52512615D01*
X35594739Y52425261D01*
X35590509Y52419617D01*
X35590505Y52419613D01*
X35529220Y52337841D01*
X35479192Y52302616D01*
X35418014Y52303524D01*
X35370780Y52337841D01*
X35309495Y52419613D01*
X35309491Y52419617D01*
X35305261Y52425261D01*
X35188705Y52512615D01*
X35052316Y52563745D01*
X35046144Y52564415D01*
X35046142Y52564416D01*
X35010163Y52568324D01*
X34990134Y52570500D01*
X33369866Y52570500D01*
X33349837Y52568324D01*
X33313858Y52564416D01*
X33313856Y52564415D01*
X33307684Y52563745D01*
X33171295Y52512615D01*
X33054739Y52425261D01*
X32967385Y52308705D01*
X32964911Y52302107D01*
X32964911Y52302106D01*
X32962742Y52296320D01*
X32916255Y52172316D01*
X32915585Y52166144D01*
X32915584Y52166142D01*
X32913829Y52149983D01*
X32909500Y52110134D01*
X32909500Y50489866D01*
X32647323Y50489866D01*
X32651052Y50508612D01*
X32652000Y50518234D01*
X32652000Y51030320D01*
X32647878Y51043005D01*
X32643757Y51046000D01*
X31909680Y51046000D01*
X31896995Y51041878D01*
X31894000Y51037757D01*
X31894000Y50303680D01*
X31386000Y50303680D01*
X31386000Y51030320D01*
X31381878Y51043005D01*
X31377757Y51046000D01*
X30643680Y51046000D01*
X30630995Y51041878D01*
X30628000Y51037757D01*
X30628000Y50518234D01*
X30370500Y50518234D01*
X30370500Y51569680D01*
X30628000Y51569680D01*
X30632122Y51556995D01*
X30636243Y51554000D01*
X31370320Y51554000D01*
X31383005Y51558122D01*
X31386000Y51562243D01*
X31386000Y51569680D01*
X31894000Y51569680D01*
X31898122Y51556995D01*
X31902243Y51554000D01*
X32636320Y51554000D01*
X32649005Y51558122D01*
X32652000Y51562243D01*
X32652000Y52081766D01*
X32651052Y52091388D01*
X32639397Y52149983D01*
X32632078Y52167651D01*
X32587659Y52234130D01*
X32574130Y52247659D01*
X32507651Y52292078D01*
X32489983Y52299397D01*
X32431388Y52311052D01*
X32421766Y52312000D01*
X31909680Y52312000D01*
X31896995Y52307878D01*
X31894000Y52303757D01*
X31894000Y51569680D01*
X31386000Y51569680D01*
X31386000Y52296320D01*
X31381878Y52309005D01*
X31377757Y52312000D01*
X30858234Y52312000D01*
X30848612Y52311052D01*
X30790017Y52299397D01*
X30772349Y52292078D01*
X30705870Y52247659D01*
X30692341Y52234130D01*
X30647922Y52167651D01*
X30640603Y52149983D01*
X30628948Y52091388D01*
X30628000Y52081766D01*
X30628000Y51569680D01*
X30370500Y51569680D01*
X30370500Y52110134D01*
X30366171Y52149983D01*
X30364416Y52166142D01*
X30364415Y52166144D01*
X30363745Y52172316D01*
X30317258Y52296320D01*
X30315089Y52302106D01*
X30315089Y52302107D01*
X30312615Y52308705D01*
X30225261Y52425261D01*
X30108705Y52512615D01*
X29972316Y52563745D01*
X29966144Y52564415D01*
X29966142Y52564416D01*
X29930163Y52568324D01*
X29910134Y52570500D01*
X28289866Y52570500D01*
X28269837Y52568324D01*
X28233858Y52564416D01*
X28233856Y52564415D01*
X28227684Y52563745D01*
X28091295Y52512615D01*
X27974739Y52425261D01*
X27970509Y52419617D01*
X27970505Y52419613D01*
X27909220Y52337841D01*
X27859192Y52302616D01*
X27798014Y52303524D01*
X27750780Y52337841D01*
X27689495Y52419613D01*
X27689491Y52419617D01*
X27685261Y52425261D01*
X27568705Y52512615D01*
X27432316Y52563745D01*
X27426144Y52564415D01*
X27426142Y52564416D01*
X27390163Y52568324D01*
X27370134Y52570500D01*
X26051479Y52570500D01*
X25993288Y52589407D01*
X25957324Y52638907D01*
X25957324Y52700093D01*
X25981475Y52739504D01*
X26704475Y53462504D01*
X26758992Y53490281D01*
X26774479Y53491500D01*
X35041500Y53491500D01*
X35099691Y53472593D01*
X35111504Y53462504D01*
X35304706Y53269302D01*
X35309305Y53264378D01*
X35347928Y53220104D01*
X35352810Y53216673D01*
X35352811Y53216672D01*
X35359810Y53211753D01*
X35400783Y53182957D01*
X35404909Y53179894D01*
X35455771Y53140012D01*
X35464350Y53136138D01*
X35480528Y53126911D01*
X35488228Y53121499D01*
X35502609Y53115892D01*
X35548417Y53098032D01*
X35553193Y53096024D01*
X35612063Y53069444D01*
X35617927Y53068357D01*
X35617931Y53068356D01*
X35621314Y53067729D01*
X35639228Y53062626D01*
X35642437Y53061375D01*
X35642439Y53061374D01*
X35647998Y53059207D01*
X35712053Y53050774D01*
X35717154Y53049967D01*
X35736034Y53046467D01*
X35774803Y53039281D01*
X35774807Y53039281D01*
X35780676Y53038193D01*
X35839402Y53041579D01*
X35843668Y53041825D01*
X35849367Y53041989D01*
X38337490Y53041989D01*
X38344223Y53041760D01*
X38402841Y53037764D01*
X38408713Y53038789D01*
X38408717Y53038789D01*
X38466476Y53048870D01*
X38471604Y53049627D01*
X38529809Y53056670D01*
X38529812Y53056671D01*
X38535731Y53057387D01*
X38541309Y53059495D01*
X38541314Y53059496D01*
X38544529Y53060711D01*
X38562502Y53065628D01*
X38563300Y53065767D01*
X38571773Y53067246D01*
X38630925Y53093212D01*
X38635721Y53095170D01*
X38690561Y53115892D01*
X38696145Y53118002D01*
X38703902Y53123333D01*
X38720172Y53132389D01*
X38728794Y53136174D01*
X38780041Y53175498D01*
X38784236Y53178546D01*
X38832553Y53211753D01*
X38837470Y53215132D01*
X38879431Y53262228D01*
X38883344Y53266374D01*
X39317474Y53700504D01*
X39371991Y53728281D01*
X39387478Y53729500D01*
X40410134Y53729500D01*
X40430163Y53731676D01*
X40466142Y53735584D01*
X40466144Y53735585D01*
X40472316Y53736255D01*
X40608705Y53787385D01*
X40725261Y53874739D01*
X40812615Y53991295D01*
X40816105Y54000603D01*
X40861565Y54121869D01*
X40863745Y54127684D01*
X40870500Y54189866D01*
X40870500Y54218234D01*
X41128000Y54218234D01*
X41128948Y54208612D01*
X41140603Y54150017D01*
X41147922Y54132349D01*
X41192341Y54065870D01*
X41205870Y54052341D01*
X41272349Y54007922D01*
X41290017Y54000603D01*
X41348612Y53988948D01*
X41358234Y53988000D01*
X41870320Y53988000D01*
X41883005Y53992122D01*
X41886000Y53996243D01*
X41886000Y54003680D01*
X42394000Y54003680D01*
X42398122Y53990995D01*
X42402243Y53988000D01*
X42921766Y53988000D01*
X42931388Y53988948D01*
X42989983Y54000603D01*
X43007651Y54007922D01*
X43074130Y54052341D01*
X43087659Y54065870D01*
X43132078Y54132349D01*
X43139397Y54150017D01*
X43151052Y54208612D01*
X43152000Y54218234D01*
X43152000Y54730320D01*
X43147878Y54743005D01*
X43143757Y54746000D01*
X42409680Y54746000D01*
X42396995Y54741878D01*
X42394000Y54737757D01*
X42394000Y54003680D01*
X41886000Y54003680D01*
X41886000Y54730320D01*
X41881878Y54743005D01*
X41877757Y54746000D01*
X41143680Y54746000D01*
X41130995Y54741878D01*
X41128000Y54737757D01*
X41128000Y54218234D01*
X40870500Y54218234D01*
X40870500Y55269680D01*
X41128000Y55269680D01*
X41132122Y55256995D01*
X41136243Y55254000D01*
X41870320Y55254000D01*
X41883005Y55258122D01*
X41886000Y55262243D01*
X41886000Y55269680D01*
X42394000Y55269680D01*
X42398122Y55256995D01*
X42402243Y55254000D01*
X43136320Y55254000D01*
X43149005Y55258122D01*
X43152000Y55262243D01*
X43152000Y55781766D01*
X43151052Y55791388D01*
X43139397Y55849983D01*
X43132078Y55867651D01*
X43087659Y55934130D01*
X43074130Y55947659D01*
X43007651Y55992078D01*
X42989983Y55999397D01*
X42931388Y56011052D01*
X42921766Y56012000D01*
X42409680Y56012000D01*
X42396995Y56007878D01*
X42394000Y56003757D01*
X42394000Y55269680D01*
X41886000Y55269680D01*
X41886000Y55996320D01*
X41881878Y56009005D01*
X41877757Y56012000D01*
X41358234Y56012000D01*
X41348612Y56011052D01*
X41290017Y55999397D01*
X41272349Y55992078D01*
X41205870Y55947659D01*
X41192341Y55934130D01*
X41147922Y55867651D01*
X41140603Y55849983D01*
X41128948Y55791388D01*
X41128000Y55781766D01*
X41128000Y55269680D01*
X40870500Y55269680D01*
X40870500Y55810134D01*
X40866171Y55849983D01*
X40864416Y55866142D01*
X40864415Y55866144D01*
X40863745Y55872316D01*
X40817258Y55996320D01*
X40815089Y56002106D01*
X40815089Y56002107D01*
X40812615Y56008705D01*
X40725261Y56125261D01*
X40608705Y56212615D01*
X40472316Y56263745D01*
X40466144Y56264415D01*
X40466142Y56264416D01*
X40430163Y56268324D01*
X40410134Y56270500D01*
X38789866Y56270500D01*
X38769837Y56268324D01*
X38733858Y56264416D01*
X38733856Y56264415D01*
X38727684Y56263745D01*
X38591295Y56212615D01*
X38474739Y56125261D01*
X38470509Y56119617D01*
X38470505Y56119613D01*
X38409220Y56037841D01*
X38359192Y56002616D01*
X38298014Y56003524D01*
X38250780Y56037841D01*
X38189495Y56119613D01*
X38189491Y56119617D01*
X38185261Y56125261D01*
X38068705Y56212615D01*
X37932316Y56263745D01*
X37926144Y56264415D01*
X37926142Y56264416D01*
X37890163Y56268324D01*
X37870134Y56270500D01*
X36411478Y56270500D01*
X36353287Y56289407D01*
X36317323Y56338907D01*
X36317323Y56400093D01*
X36341474Y56439504D01*
X36764474Y56862504D01*
X36818991Y56890281D01*
X36834478Y56891500D01*
X37638003Y56891500D01*
X37682801Y56896921D01*
X37759320Y56906181D01*
X37759323Y56906182D01*
X37765242Y56906898D01*
X37925656Y56967513D01*
X37930573Y56970893D01*
X37930576Y56970894D01*
X38062063Y57061263D01*
X38066981Y57064643D01*
X38181057Y57192679D01*
X38261300Y57344231D01*
X38282188Y57427390D01*
X38301622Y57504759D01*
X38301622Y57504762D01*
X38303076Y57510549D01*
X38303839Y57656234D01*
X38303943Y57676065D01*
X38303943Y57676067D01*
X38303974Y57682031D01*
X38263942Y57848777D01*
X38198641Y57975296D01*
X38188030Y57995855D01*
X38188028Y57995857D01*
X38185291Y58001161D01*
X38072561Y58130385D01*
X38067684Y58133812D01*
X38067677Y58133819D01*
X38002674Y58179504D01*
X37965937Y58228433D01*
X37964977Y58289611D01*
X38000159Y58339669D01*
X38059600Y58359500D01*
X39410134Y58359500D01*
X39430163Y58361676D01*
X39466142Y58365584D01*
X39466144Y58365585D01*
X39472316Y58366255D01*
X39608705Y58417385D01*
X39725261Y58504739D01*
X39729491Y58510383D01*
X39729495Y58510387D01*
X39790780Y58592159D01*
X39840808Y58627384D01*
X39901986Y58626476D01*
X39949220Y58592159D01*
X40010505Y58510387D01*
X40010509Y58510383D01*
X40014739Y58504739D01*
X40131295Y58417385D01*
X40267684Y58366255D01*
X40273856Y58365585D01*
X40273858Y58365584D01*
X40309837Y58361676D01*
X40329866Y58359500D01*
X41950134Y58359500D01*
X41970163Y58361676D01*
X42006142Y58365584D01*
X42006144Y58365585D01*
X42012316Y58366255D01*
X42148705Y58417385D01*
X42265261Y58504739D01*
X42352615Y58621295D01*
X42356105Y58630603D01*
X42401565Y58751869D01*
X42403745Y58757684D01*
X42410500Y58819866D01*
X42410500Y58848234D01*
X42668000Y58848234D01*
X42668948Y58838612D01*
X42680603Y58780017D01*
X42687922Y58762349D01*
X42732341Y58695870D01*
X42745870Y58682341D01*
X42812349Y58637922D01*
X42830017Y58630603D01*
X42888612Y58618948D01*
X42898234Y58618000D01*
X43410320Y58618000D01*
X43423005Y58622122D01*
X43426000Y58626243D01*
X43426000Y58633680D01*
X43934000Y58633680D01*
X43938122Y58620995D01*
X43942243Y58618000D01*
X44461766Y58618000D01*
X44471388Y58618948D01*
X44529983Y58630603D01*
X44547651Y58637922D01*
X44614130Y58682341D01*
X44627659Y58695870D01*
X44672078Y58762349D01*
X44679397Y58780017D01*
X44691052Y58838612D01*
X44692000Y58848234D01*
X44692000Y59360320D01*
X44687878Y59373005D01*
X44683757Y59376000D01*
X43949680Y59376000D01*
X43936995Y59371878D01*
X43934000Y59367757D01*
X43934000Y58633680D01*
X43426000Y58633680D01*
X43426000Y59360320D01*
X43421878Y59373005D01*
X43417757Y59376000D01*
X42683680Y59376000D01*
X42670995Y59371878D01*
X42668000Y59367757D01*
X42668000Y58848234D01*
X42410500Y58848234D01*
X42410500Y59899680D01*
X42668000Y59899680D01*
X42672122Y59886995D01*
X42676243Y59884000D01*
X43410320Y59884000D01*
X43423005Y59888122D01*
X43426000Y59892243D01*
X43426000Y59899680D01*
X43934000Y59899680D01*
X43938122Y59886995D01*
X43942243Y59884000D01*
X44676320Y59884000D01*
X44689005Y59888122D01*
X44692000Y59892243D01*
X44692000Y60411766D01*
X44691052Y60421388D01*
X44679397Y60479983D01*
X44672078Y60497651D01*
X44627659Y60564130D01*
X44614130Y60577659D01*
X44547651Y60622078D01*
X44529983Y60629397D01*
X44471388Y60641052D01*
X44461766Y60642000D01*
X43949680Y60642000D01*
X43936995Y60637878D01*
X43934000Y60633757D01*
X43934000Y59899680D01*
X43426000Y59899680D01*
X43426000Y60626320D01*
X43421878Y60639005D01*
X43417757Y60642000D01*
X42898234Y60642000D01*
X42888612Y60641052D01*
X42830017Y60629397D01*
X42812349Y60622078D01*
X42745870Y60577659D01*
X42732341Y60564130D01*
X42687922Y60497651D01*
X42680603Y60479983D01*
X42668948Y60421388D01*
X42668000Y60411766D01*
X42668000Y59899680D01*
X42410500Y59899680D01*
X42410500Y60440134D01*
X42403745Y60502316D01*
X42357258Y60626320D01*
X42355089Y60632106D01*
X42355089Y60632107D01*
X42352615Y60638705D01*
X42265261Y60755261D01*
X42259617Y60759491D01*
X42259613Y60759495D01*
X42177841Y60820780D01*
X42142616Y60870808D01*
X42143524Y60931986D01*
X42177841Y60979220D01*
X42259613Y61040505D01*
X42259617Y61040509D01*
X42265261Y61044739D01*
X42352615Y61161295D01*
X42356105Y61170603D01*
X42401565Y61291869D01*
X42403745Y61297684D01*
X42410500Y61359866D01*
X42410500Y61388234D01*
X42668000Y61388234D01*
X42668948Y61378612D01*
X42680603Y61320017D01*
X42687922Y61302349D01*
X42732341Y61235870D01*
X42745870Y61222341D01*
X42812349Y61177922D01*
X42830017Y61170603D01*
X42888612Y61158948D01*
X42898234Y61158000D01*
X43410320Y61158000D01*
X43423005Y61162122D01*
X43426000Y61166243D01*
X43426000Y61173680D01*
X43934000Y61173680D01*
X43938122Y61160995D01*
X43942243Y61158000D01*
X44461766Y61158000D01*
X44471388Y61158948D01*
X44529983Y61170603D01*
X44547651Y61177922D01*
X44614130Y61222341D01*
X44627659Y61235870D01*
X44672078Y61302349D01*
X44679397Y61320017D01*
X44691052Y61378612D01*
X44692000Y61388234D01*
X44692000Y61900320D01*
X44687878Y61913005D01*
X44683757Y61916000D01*
X43949680Y61916000D01*
X43936995Y61911878D01*
X43934000Y61907757D01*
X43934000Y61173680D01*
X43426000Y61173680D01*
X43426000Y61900320D01*
X43421878Y61913005D01*
X43417757Y61916000D01*
X42683680Y61916000D01*
X42670995Y61911878D01*
X42668000Y61907757D01*
X42668000Y61388234D01*
X42410500Y61388234D01*
X42410500Y62439680D01*
X42668000Y62439680D01*
X42672122Y62426995D01*
X42676243Y62424000D01*
X43410320Y62424000D01*
X43423005Y62428122D01*
X43426000Y62432243D01*
X43426000Y62439680D01*
X43934000Y62439680D01*
X43938122Y62426995D01*
X43942243Y62424000D01*
X44676320Y62424000D01*
X44689005Y62428122D01*
X44692000Y62432243D01*
X44692000Y62951766D01*
X44691052Y62961388D01*
X44679397Y63019983D01*
X44672078Y63037651D01*
X44627659Y63104130D01*
X44614130Y63117659D01*
X44547651Y63162078D01*
X44529983Y63169397D01*
X44471388Y63181052D01*
X44461766Y63182000D01*
X43949680Y63182000D01*
X43936995Y63177878D01*
X43934000Y63173757D01*
X43934000Y62439680D01*
X43426000Y62439680D01*
X43426000Y63166320D01*
X43421878Y63179005D01*
X43417757Y63182000D01*
X42898234Y63182000D01*
X42888612Y63181052D01*
X42830017Y63169397D01*
X42812349Y63162078D01*
X42745870Y63117659D01*
X42732341Y63104130D01*
X42687922Y63037651D01*
X42680603Y63019983D01*
X42668948Y62961388D01*
X42668000Y62951766D01*
X42668000Y62439680D01*
X42410500Y62439680D01*
X42410500Y62980134D01*
X42403745Y63042316D01*
X42357258Y63166320D01*
X42355089Y63172106D01*
X42355089Y63172107D01*
X42352615Y63178705D01*
X42265261Y63295261D01*
X42148705Y63382615D01*
X42012316Y63433745D01*
X42006144Y63434415D01*
X42006142Y63434416D01*
X41970163Y63438324D01*
X41950134Y63440500D01*
X40329866Y63440500D01*
X40309837Y63438324D01*
X40273858Y63434416D01*
X40273856Y63434415D01*
X40267684Y63433745D01*
X40131295Y63382615D01*
X40014739Y63295261D01*
X40010509Y63289617D01*
X40010505Y63289613D01*
X39949220Y63207841D01*
X39899192Y63172616D01*
X39838014Y63173524D01*
X39790780Y63207841D01*
X39729495Y63289613D01*
X39729491Y63289617D01*
X39725261Y63295261D01*
X39608705Y63382615D01*
X39472316Y63433745D01*
X39466144Y63434415D01*
X39466142Y63434416D01*
X39430163Y63438324D01*
X39410134Y63440500D01*
X37789866Y63440500D01*
X37769837Y63438324D01*
X37733858Y63434416D01*
X37733856Y63434415D01*
X37727684Y63433745D01*
X37591295Y63382615D01*
X37474739Y63295261D01*
X37470509Y63289617D01*
X37470505Y63289613D01*
X37409220Y63207841D01*
X37359192Y63172616D01*
X37298014Y63173524D01*
X37250780Y63207841D01*
X37189495Y63289613D01*
X37189491Y63289617D01*
X37185261Y63295261D01*
X37068705Y63382615D01*
X36932316Y63433745D01*
X36926144Y63434415D01*
X36926142Y63434416D01*
X36890163Y63438324D01*
X36870134Y63440500D01*
X35249866Y63440500D01*
X35229837Y63438324D01*
X35193858Y63434416D01*
X35193856Y63434415D01*
X35187684Y63433745D01*
X35051295Y63382615D01*
X34934739Y63295261D01*
X34847385Y63178705D01*
X34844911Y63172107D01*
X34844911Y63172106D01*
X34842742Y63166320D01*
X34796255Y63042316D01*
X34789500Y62980134D01*
X34789500Y61359866D01*
X34796255Y61297684D01*
X34798435Y61291869D01*
X34843896Y61170603D01*
X34847385Y61161295D01*
X34934739Y61044739D01*
X34940383Y61040509D01*
X34940387Y61040505D01*
X35022159Y60979220D01*
X35057384Y60929192D01*
X35056476Y60868014D01*
X35022159Y60820780D01*
X34940387Y60759495D01*
X34940383Y60759491D01*
X34934739Y60755261D01*
X34847385Y60638705D01*
X34844911Y60632107D01*
X34844911Y60632106D01*
X34842742Y60626320D01*
X34796255Y60502316D01*
X34789500Y60440134D01*
X34789500Y60358673D01*
X34770593Y60300482D01*
X34721093Y60264518D01*
X34660402Y60264360D01*
X34623735Y60276062D01*
X34617779Y60276468D01*
X34612444Y60277486D01*
X34558829Y60306965D01*
X34532780Y60362329D01*
X34532000Y60374732D01*
X34532000Y60411766D01*
X34531052Y60421388D01*
X34519397Y60479983D01*
X34512078Y60497651D01*
X34467659Y60564130D01*
X34454130Y60577659D01*
X34387651Y60622078D01*
X34369983Y60629397D01*
X34311388Y60641052D01*
X34301766Y60642000D01*
X33789680Y60642000D01*
X33776995Y60637878D01*
X33774000Y60633757D01*
X33774000Y59848546D01*
X33767238Y59812588D01*
X33747539Y59762061D01*
X33745543Y59757313D01*
X33718955Y59698427D01*
X33717868Y59692562D01*
X33717866Y59692556D01*
X33717240Y59689176D01*
X33712137Y59671262D01*
X33708718Y59662491D01*
X33707939Y59656572D01*
X33700286Y59598445D01*
X33699475Y59593326D01*
X33687704Y59529814D01*
X33688048Y59523852D01*
X33690536Y59480699D01*
X33675010Y59421516D01*
X33627662Y59382763D01*
X33591700Y59376000D01*
X32523680Y59376000D01*
X32510995Y59371878D01*
X32508000Y59367757D01*
X32508000Y58848234D01*
X32508948Y58838612D01*
X32520603Y58780017D01*
X32527922Y58762349D01*
X32572341Y58695870D01*
X32585870Y58682341D01*
X32652349Y58637922D01*
X32670017Y58630603D01*
X32728612Y58618948D01*
X32738234Y58618000D01*
X33377022Y58618000D01*
X33435213Y58599093D01*
X33471177Y58549593D01*
X33471177Y58488407D01*
X33447026Y58448996D01*
X32735526Y57737496D01*
X32681009Y57709719D01*
X32665522Y57708500D01*
X21328014Y57708500D01*
X21321281Y57708729D01*
X21319110Y57708877D01*
X21262648Y57712726D01*
X21256776Y57711701D01*
X21256774Y57711701D01*
X21245419Y57709719D01*
X21198985Y57701615D01*
X21193887Y57700862D01*
X21162914Y57697114D01*
X21135681Y57693819D01*
X21135679Y57693819D01*
X21129758Y57693102D01*
X21124176Y57690993D01*
X21124177Y57690993D01*
X21120964Y57689779D01*
X21102987Y57684861D01*
X21099599Y57684270D01*
X21099596Y57684269D01*
X21093717Y57683243D01*
X21088249Y57680843D01*
X21088250Y57680843D01*
X21034561Y57657276D01*
X21029765Y57655319D01*
X20969344Y57632487D01*
X20961587Y57627156D01*
X20945309Y57618096D01*
X20936695Y57614315D01*
X20888241Y57577134D01*
X20885448Y57574991D01*
X20881253Y57571943D01*
X20828019Y57535357D01*
X20805916Y57510549D01*
X20786058Y57488261D01*
X20782145Y57484115D01*
X19145568Y55847538D01*
X19131638Y55835954D01*
X19058019Y55785357D01*
X18943943Y55657321D01*
X18941152Y55652050D01*
X18941150Y55652047D01*
X18938070Y55646230D01*
X18920582Y55622552D01*
X18558813Y55260783D01*
X18553889Y55256184D01*
X18509615Y55217561D01*
X18506187Y55212683D01*
X18506183Y55212679D01*
X18472466Y55164704D01*
X18469376Y55160543D01*
X18429524Y55109718D01*
X18427069Y55104280D01*
X18425653Y55101145D01*
X18416421Y55084959D01*
X18411010Y55077261D01*
X18387534Y55017047D01*
X18385543Y55012313D01*
X18358955Y54953427D01*
X18357868Y54947562D01*
X18357866Y54947556D01*
X18357240Y54944176D01*
X18352137Y54926262D01*
X18348718Y54917491D01*
X18346422Y54900052D01*
X18340286Y54853445D01*
X18339475Y54848326D01*
X18333891Y54818197D01*
X18327704Y54784814D01*
X18330846Y54730320D01*
X18331336Y54721828D01*
X18331500Y54716129D01*
X18331500Y52669500D01*
X18312593Y52611309D01*
X18263093Y52575345D01*
X18232500Y52570500D01*
X18129866Y52570500D01*
X18109837Y52568324D01*
X18073858Y52564416D01*
X18073856Y52564415D01*
X18067684Y52563745D01*
X17931295Y52512615D01*
X17814739Y52425261D01*
X17810509Y52419617D01*
X17810505Y52419613D01*
X17749220Y52337841D01*
X17699192Y52302616D01*
X17638014Y52303524D01*
X17590780Y52337841D01*
X17529495Y52419613D01*
X17529491Y52419617D01*
X17525261Y52425261D01*
X17408705Y52512615D01*
X17272316Y52563745D01*
X17266144Y52564415D01*
X17266142Y52564416D01*
X17230163Y52568324D01*
X17210134Y52570500D01*
X15589866Y52570500D01*
X15569837Y52568324D01*
X15533858Y52564416D01*
X15533856Y52564415D01*
X15527684Y52563745D01*
X15391295Y52512615D01*
X15274739Y52425261D01*
X15187385Y52308705D01*
X15184911Y52302107D01*
X15184911Y52302106D01*
X15182742Y52296320D01*
X15136255Y52172316D01*
X15135585Y52166144D01*
X15135584Y52166142D01*
X15133829Y52149983D01*
X15129500Y52110134D01*
X15129500Y50489866D01*
X14867323Y50489866D01*
X14871052Y50508612D01*
X14872000Y50518234D01*
X14872000Y51030320D01*
X14867878Y51043005D01*
X14863757Y51046000D01*
X14129680Y51046000D01*
X14116995Y51041878D01*
X14114000Y51037757D01*
X14114000Y50303680D01*
X13606000Y50303680D01*
X13606000Y51030320D01*
X13601878Y51043005D01*
X13597757Y51046000D01*
X12863680Y51046000D01*
X12850995Y51041878D01*
X12848000Y51037757D01*
X12848000Y50518234D01*
X12590500Y50518234D01*
X12590500Y51569680D01*
X12848000Y51569680D01*
X12852122Y51556995D01*
X12856243Y51554000D01*
X13590320Y51554000D01*
X13603005Y51558122D01*
X13606000Y51562243D01*
X13606000Y51569680D01*
X14114000Y51569680D01*
X14118122Y51556995D01*
X14122243Y51554000D01*
X14856320Y51554000D01*
X14869005Y51558122D01*
X14872000Y51562243D01*
X14872000Y52081766D01*
X14871052Y52091388D01*
X14859397Y52149983D01*
X14852078Y52167651D01*
X14807659Y52234130D01*
X14794130Y52247659D01*
X14727651Y52292078D01*
X14709983Y52299397D01*
X14651388Y52311052D01*
X14641766Y52312000D01*
X14129680Y52312000D01*
X14116995Y52307878D01*
X14114000Y52303757D01*
X14114000Y51569680D01*
X13606000Y51569680D01*
X13606000Y52296320D01*
X13601878Y52309005D01*
X13597757Y52312000D01*
X13078234Y52312000D01*
X13068612Y52311052D01*
X13010017Y52299397D01*
X12992349Y52292078D01*
X12925870Y52247659D01*
X12912341Y52234130D01*
X12867922Y52167651D01*
X12860603Y52149983D01*
X12848948Y52091388D01*
X12848000Y52081766D01*
X12848000Y51569680D01*
X12590500Y51569680D01*
X12590500Y52110134D01*
X12586171Y52149983D01*
X12584416Y52166142D01*
X12584415Y52166144D01*
X12583745Y52172316D01*
X12537258Y52296320D01*
X12535089Y52302106D01*
X12535089Y52302107D01*
X12532615Y52308705D01*
X12445261Y52425261D01*
X12328705Y52512615D01*
X12192316Y52563745D01*
X12186144Y52564415D01*
X12186142Y52564416D01*
X12150163Y52568324D01*
X12130134Y52570500D01*
X10509866Y52570500D01*
X10489837Y52568324D01*
X10453858Y52564416D01*
X10453856Y52564415D01*
X10447684Y52563745D01*
X10311295Y52512615D01*
X10194739Y52425261D01*
X10190509Y52419617D01*
X10190505Y52419613D01*
X10129220Y52337841D01*
X10079192Y52302616D01*
X10018014Y52303524D01*
X9970780Y52337841D01*
X9909495Y52419613D01*
X9909491Y52419617D01*
X9905261Y52425261D01*
X9788705Y52512615D01*
X9652316Y52563745D01*
X9646144Y52564415D01*
X9646142Y52564416D01*
X9610163Y52568324D01*
X9590134Y52570500D01*
X7969866Y52570500D01*
X7949837Y52568324D01*
X7913858Y52564416D01*
X7913856Y52564415D01*
X7907684Y52563745D01*
X7771295Y52512615D01*
X7654739Y52425261D01*
X7650509Y52419617D01*
X7650505Y52419613D01*
X7589220Y52337841D01*
X7539192Y52302616D01*
X7478014Y52303524D01*
X7430780Y52337841D01*
X7369495Y52419613D01*
X7369491Y52419617D01*
X7365261Y52425261D01*
X7248705Y52512615D01*
X7112316Y52563745D01*
X7106144Y52564415D01*
X7106142Y52564416D01*
X7070163Y52568324D01*
X7050134Y52570500D01*
X5429866Y52570500D01*
X5409837Y52568324D01*
X5373858Y52564416D01*
X5373856Y52564415D01*
X5367684Y52563745D01*
X5231295Y52512615D01*
X5114739Y52425261D01*
X5110509Y52419617D01*
X5110505Y52419613D01*
X5049220Y52337841D01*
X4999192Y52302616D01*
X4938014Y52303524D01*
X4890780Y52337841D01*
X4829495Y52419613D01*
X4829491Y52419617D01*
X4825261Y52425261D01*
X4708705Y52512615D01*
X4572316Y52563745D01*
X4566144Y52564415D01*
X4566142Y52564416D01*
X4530163Y52568324D01*
X4510134Y52570500D01*
X2889866Y52570500D01*
X2869837Y52568324D01*
X2833858Y52564416D01*
X2833856Y52564415D01*
X2827684Y52563745D01*
X2691295Y52512615D01*
X2574739Y52425261D01*
X2570509Y52419617D01*
X2570505Y52419613D01*
X2509220Y52337841D01*
X2459192Y52302616D01*
X2398014Y52303524D01*
X2350780Y52337841D01*
X2289495Y52419613D01*
X2289491Y52419617D01*
X2285261Y52425261D01*
X2168705Y52512615D01*
X2032316Y52563745D01*
X2026144Y52564415D01*
X2026142Y52564416D01*
X1990163Y52568324D01*
X1970134Y52570500D01*
X349866Y52570500D01*
X329837Y52568324D01*
X293858Y52564416D01*
X293856Y52564415D01*
X287684Y52563745D01*
X151295Y52512615D01*
X34739Y52425261D01*
X-52615Y52308705D01*
X-55089Y52302107D01*
X-55089Y52302106D01*
X-57258Y52296320D01*
X-103745Y52172316D01*
X-104415Y52166144D01*
X-104416Y52166142D01*
X-106171Y52149983D01*
X-110500Y52110134D01*
X-110500Y50489866D01*
X-4471500Y50489866D01*
X-4471500Y58819866D01*
X6389500Y58819866D01*
X6396255Y58757684D01*
X6398435Y58751869D01*
X6443896Y58630603D01*
X6447385Y58621295D01*
X6534739Y58504739D01*
X6651295Y58417385D01*
X6787684Y58366255D01*
X6793856Y58365585D01*
X6793858Y58365584D01*
X6829837Y58361676D01*
X6849866Y58359500D01*
X8470134Y58359500D01*
X8490163Y58361676D01*
X8526142Y58365584D01*
X8526144Y58365585D01*
X8532316Y58366255D01*
X8668705Y58417385D01*
X8785261Y58504739D01*
X8789491Y58510383D01*
X8789495Y58510387D01*
X8850780Y58592159D01*
X8900808Y58627384D01*
X8961986Y58626476D01*
X9009220Y58592159D01*
X9070505Y58510387D01*
X9070509Y58510383D01*
X9074739Y58504739D01*
X9191295Y58417385D01*
X9327684Y58366255D01*
X9333856Y58365585D01*
X9333858Y58365584D01*
X9369837Y58361676D01*
X9389866Y58359500D01*
X11010134Y58359500D01*
X11030163Y58361676D01*
X11066142Y58365584D01*
X11066144Y58365585D01*
X11072316Y58366255D01*
X11208705Y58417385D01*
X11325261Y58504739D01*
X11329491Y58510383D01*
X11329495Y58510387D01*
X11390780Y58592159D01*
X11440808Y58627384D01*
X11501986Y58626476D01*
X11549220Y58592159D01*
X11610505Y58510387D01*
X11610509Y58510383D01*
X11614739Y58504739D01*
X11731295Y58417385D01*
X11867684Y58366255D01*
X11873856Y58365585D01*
X11873858Y58365584D01*
X11909837Y58361676D01*
X11929866Y58359500D01*
X13550134Y58359500D01*
X13570163Y58361676D01*
X13606142Y58365584D01*
X13606144Y58365585D01*
X13612316Y58366255D01*
X13748705Y58417385D01*
X13865261Y58504739D01*
X13952615Y58621295D01*
X13956105Y58630603D01*
X14001565Y58751869D01*
X14003745Y58757684D01*
X14010500Y58819866D01*
X15009500Y58819866D01*
X15016255Y58757684D01*
X15018435Y58751869D01*
X15063896Y58630603D01*
X15067385Y58621295D01*
X15154739Y58504739D01*
X15271295Y58417385D01*
X15407684Y58366255D01*
X15413856Y58365585D01*
X15413858Y58365584D01*
X15449837Y58361676D01*
X15469866Y58359500D01*
X17090134Y58359500D01*
X17110163Y58361676D01*
X17146142Y58365584D01*
X17146144Y58365585D01*
X17152316Y58366255D01*
X17288705Y58417385D01*
X17405261Y58504739D01*
X17409491Y58510383D01*
X17409495Y58510387D01*
X17470780Y58592159D01*
X17520808Y58627384D01*
X17581986Y58626476D01*
X17629220Y58592159D01*
X17690505Y58510387D01*
X17690509Y58510383D01*
X17694739Y58504739D01*
X17811295Y58417385D01*
X17947684Y58366255D01*
X17953856Y58365585D01*
X17953858Y58365584D01*
X17989837Y58361676D01*
X18009866Y58359500D01*
X19630134Y58359500D01*
X19650163Y58361676D01*
X19686142Y58365584D01*
X19686144Y58365585D01*
X19692316Y58366255D01*
X19828705Y58417385D01*
X19945261Y58504739D01*
X19949491Y58510383D01*
X19949495Y58510387D01*
X20010780Y58592159D01*
X20060808Y58627384D01*
X20121986Y58626476D01*
X20169220Y58592159D01*
X20230505Y58510387D01*
X20230509Y58510383D01*
X20234739Y58504739D01*
X20351295Y58417385D01*
X20487684Y58366255D01*
X20493856Y58365585D01*
X20493858Y58365584D01*
X20529837Y58361676D01*
X20549866Y58359500D01*
X22170134Y58359500D01*
X22190163Y58361676D01*
X22226142Y58365584D01*
X22226144Y58365585D01*
X22232316Y58366255D01*
X22368705Y58417385D01*
X22485261Y58504739D01*
X22572615Y58621295D01*
X22576105Y58630603D01*
X22621565Y58751869D01*
X22623745Y58757684D01*
X22630500Y58819866D01*
X22630500Y58848234D01*
X23888000Y58848234D01*
X23888948Y58838612D01*
X23900603Y58780017D01*
X23907922Y58762349D01*
X23952341Y58695870D01*
X23965870Y58682341D01*
X24032349Y58637922D01*
X24050017Y58630603D01*
X24108612Y58618948D01*
X24118234Y58618000D01*
X24630320Y58618000D01*
X24643005Y58622122D01*
X24646000Y58626243D01*
X24646000Y58633680D01*
X25154000Y58633680D01*
X25158122Y58620995D01*
X25162243Y58618000D01*
X25681766Y58618000D01*
X25691388Y58618948D01*
X25749983Y58630603D01*
X25767651Y58637922D01*
X25834130Y58682341D01*
X25847659Y58695870D01*
X25892078Y58762349D01*
X25899397Y58780017D01*
X25907323Y58819866D01*
X26169500Y58819866D01*
X26176255Y58757684D01*
X26178435Y58751869D01*
X26223896Y58630603D01*
X26227385Y58621295D01*
X26314739Y58504739D01*
X26431295Y58417385D01*
X26567684Y58366255D01*
X26573856Y58365585D01*
X26573858Y58365584D01*
X26609837Y58361676D01*
X26629866Y58359500D01*
X28250134Y58359500D01*
X28270163Y58361676D01*
X28306142Y58365584D01*
X28306144Y58365585D01*
X28312316Y58366255D01*
X28448705Y58417385D01*
X28565261Y58504739D01*
X28652615Y58621295D01*
X28656105Y58630603D01*
X28701565Y58751869D01*
X28703745Y58757684D01*
X28710500Y58819866D01*
X28710500Y58848234D01*
X28968000Y58848234D01*
X28968948Y58838612D01*
X28980603Y58780017D01*
X28987922Y58762349D01*
X29032341Y58695870D01*
X29045870Y58682341D01*
X29112349Y58637922D01*
X29130017Y58630603D01*
X29188612Y58618948D01*
X29198234Y58618000D01*
X29710320Y58618000D01*
X29723005Y58622122D01*
X29726000Y58626243D01*
X29726000Y58633680D01*
X30234000Y58633680D01*
X30238122Y58620995D01*
X30242243Y58618000D01*
X30761766Y58618000D01*
X30771388Y58618948D01*
X30829983Y58630603D01*
X30847651Y58637922D01*
X30914130Y58682341D01*
X30927659Y58695870D01*
X30972078Y58762349D01*
X30979397Y58780017D01*
X30991052Y58838612D01*
X30992000Y58848234D01*
X30992000Y59360320D01*
X30987878Y59373005D01*
X30983757Y59376000D01*
X30249680Y59376000D01*
X30236995Y59371878D01*
X30234000Y59367757D01*
X30234000Y58633680D01*
X29726000Y58633680D01*
X29726000Y59360320D01*
X29721878Y59373005D01*
X29717757Y59376000D01*
X28983680Y59376000D01*
X28970995Y59371878D01*
X28968000Y59367757D01*
X28968000Y58848234D01*
X28710500Y58848234D01*
X28710500Y59899680D01*
X28968000Y59899680D01*
X28972122Y59886995D01*
X28976243Y59884000D01*
X29710320Y59884000D01*
X29723005Y59888122D01*
X29726000Y59892243D01*
X29726000Y59899680D01*
X30234000Y59899680D01*
X30238122Y59886995D01*
X30242243Y59884000D01*
X30976320Y59884000D01*
X30989005Y59888122D01*
X30992000Y59892243D01*
X30992000Y59899680D01*
X32508000Y59899680D01*
X32512122Y59886995D01*
X32516243Y59884000D01*
X33250320Y59884000D01*
X33263005Y59888122D01*
X33266000Y59892243D01*
X33266000Y60626320D01*
X33261878Y60639005D01*
X33257757Y60642000D01*
X32738234Y60642000D01*
X32728612Y60641052D01*
X32670017Y60629397D01*
X32652349Y60622078D01*
X32585870Y60577659D01*
X32572341Y60564130D01*
X32527922Y60497651D01*
X32520603Y60479983D01*
X32508948Y60421388D01*
X32508000Y60411766D01*
X32508000Y59899680D01*
X30992000Y59899680D01*
X30992000Y60411766D01*
X30991052Y60421388D01*
X30979397Y60479983D01*
X30972078Y60497651D01*
X30927659Y60564130D01*
X30914130Y60577659D01*
X30847651Y60622078D01*
X30829983Y60629397D01*
X30771388Y60641052D01*
X30761766Y60642000D01*
X30249680Y60642000D01*
X30236995Y60637878D01*
X30234000Y60633757D01*
X30234000Y59899680D01*
X29726000Y59899680D01*
X29726000Y60626320D01*
X29721878Y60639005D01*
X29717757Y60642000D01*
X29198234Y60642000D01*
X29188612Y60641052D01*
X29130017Y60629397D01*
X29112349Y60622078D01*
X29045870Y60577659D01*
X29032341Y60564130D01*
X28987922Y60497651D01*
X28980603Y60479983D01*
X28968948Y60421388D01*
X28968000Y60411766D01*
X28968000Y59899680D01*
X28710500Y59899680D01*
X28710500Y60440134D01*
X28703745Y60502316D01*
X28657258Y60626320D01*
X28655089Y60632106D01*
X28655089Y60632107D01*
X28652615Y60638705D01*
X28565261Y60755261D01*
X28559617Y60759491D01*
X28559613Y60759495D01*
X28477841Y60820780D01*
X28442616Y60870808D01*
X28443524Y60931986D01*
X28477841Y60979220D01*
X28559613Y61040505D01*
X28559617Y61040509D01*
X28565261Y61044739D01*
X28652615Y61161295D01*
X28656105Y61170603D01*
X28701565Y61291869D01*
X28703745Y61297684D01*
X28710500Y61359866D01*
X28710500Y61388234D01*
X28968000Y61388234D01*
X28968948Y61378612D01*
X28980603Y61320017D01*
X28987922Y61302349D01*
X29032341Y61235870D01*
X29045870Y61222341D01*
X29112349Y61177922D01*
X29130017Y61170603D01*
X29188612Y61158948D01*
X29198234Y61158000D01*
X29710320Y61158000D01*
X29723005Y61162122D01*
X29726000Y61166243D01*
X29726000Y61173680D01*
X30234000Y61173680D01*
X30238122Y61160995D01*
X30242243Y61158000D01*
X30761766Y61158000D01*
X30771388Y61158948D01*
X30829983Y61170603D01*
X30847651Y61177922D01*
X30914130Y61222341D01*
X30927659Y61235870D01*
X30972078Y61302349D01*
X30979397Y61320017D01*
X30991052Y61378612D01*
X30992000Y61388234D01*
X32508000Y61388234D01*
X32508948Y61378612D01*
X32520603Y61320017D01*
X32527922Y61302349D01*
X32572341Y61235870D01*
X32585870Y61222341D01*
X32652349Y61177922D01*
X32670017Y61170603D01*
X32728612Y61158948D01*
X32738234Y61158000D01*
X33250320Y61158000D01*
X33263005Y61162122D01*
X33266000Y61166243D01*
X33266000Y61173680D01*
X33774000Y61173680D01*
X33778122Y61160995D01*
X33782243Y61158000D01*
X34301766Y61158000D01*
X34311388Y61158948D01*
X34369983Y61170603D01*
X34387651Y61177922D01*
X34454130Y61222341D01*
X34467659Y61235870D01*
X34512078Y61302349D01*
X34519397Y61320017D01*
X34531052Y61378612D01*
X34532000Y61388234D01*
X34532000Y61900320D01*
X34527878Y61913005D01*
X34523757Y61916000D01*
X33789680Y61916000D01*
X33776995Y61911878D01*
X33774000Y61907757D01*
X33774000Y61173680D01*
X33266000Y61173680D01*
X33266000Y61900320D01*
X33261878Y61913005D01*
X33257757Y61916000D01*
X32523680Y61916000D01*
X32510995Y61911878D01*
X32508000Y61907757D01*
X32508000Y61388234D01*
X30992000Y61388234D01*
X30992000Y61900320D01*
X30987878Y61913005D01*
X30983757Y61916000D01*
X30249680Y61916000D01*
X30236995Y61911878D01*
X30234000Y61907757D01*
X30234000Y61173680D01*
X29726000Y61173680D01*
X29726000Y61900320D01*
X29721878Y61913005D01*
X29717757Y61916000D01*
X28983680Y61916000D01*
X28970995Y61911878D01*
X28968000Y61907757D01*
X28968000Y61388234D01*
X28710500Y61388234D01*
X28710500Y62439680D01*
X28968000Y62439680D01*
X28972122Y62426995D01*
X28976243Y62424000D01*
X29710320Y62424000D01*
X29723005Y62428122D01*
X29726000Y62432243D01*
X29726000Y62439680D01*
X30234000Y62439680D01*
X30238122Y62426995D01*
X30242243Y62424000D01*
X30976320Y62424000D01*
X30989005Y62428122D01*
X30992000Y62432243D01*
X30992000Y62439680D01*
X32508000Y62439680D01*
X32512122Y62426995D01*
X32516243Y62424000D01*
X33250320Y62424000D01*
X33263005Y62428122D01*
X33266000Y62432243D01*
X33266000Y62439680D01*
X33774000Y62439680D01*
X33778122Y62426995D01*
X33782243Y62424000D01*
X34516320Y62424000D01*
X34529005Y62428122D01*
X34532000Y62432243D01*
X34532000Y62951766D01*
X34531052Y62961388D01*
X34519397Y63019983D01*
X34512078Y63037651D01*
X34467659Y63104130D01*
X34454130Y63117659D01*
X34387651Y63162078D01*
X34369983Y63169397D01*
X34311388Y63181052D01*
X34301766Y63182000D01*
X33789680Y63182000D01*
X33776995Y63177878D01*
X33774000Y63173757D01*
X33774000Y62439680D01*
X33266000Y62439680D01*
X33266000Y63166320D01*
X33261878Y63179005D01*
X33257757Y63182000D01*
X32738234Y63182000D01*
X32728612Y63181052D01*
X32670017Y63169397D01*
X32652349Y63162078D01*
X32585870Y63117659D01*
X32572341Y63104130D01*
X32527922Y63037651D01*
X32520603Y63019983D01*
X32508948Y62961388D01*
X32508000Y62951766D01*
X32508000Y62439680D01*
X30992000Y62439680D01*
X30992000Y62951766D01*
X30991052Y62961388D01*
X30979397Y63019983D01*
X30972078Y63037651D01*
X30927659Y63104130D01*
X30914130Y63117659D01*
X30847651Y63162078D01*
X30829983Y63169397D01*
X30771388Y63181052D01*
X30761766Y63182000D01*
X30249680Y63182000D01*
X30236995Y63177878D01*
X30234000Y63173757D01*
X30234000Y62439680D01*
X29726000Y62439680D01*
X29726000Y63166320D01*
X29721878Y63179005D01*
X29717757Y63182000D01*
X29198234Y63182000D01*
X29188612Y63181052D01*
X29130017Y63169397D01*
X29112349Y63162078D01*
X29045870Y63117659D01*
X29032341Y63104130D01*
X28987922Y63037651D01*
X28980603Y63019983D01*
X28968948Y62961388D01*
X28968000Y62951766D01*
X28968000Y62439680D01*
X28710500Y62439680D01*
X28710500Y62980134D01*
X28703745Y63042316D01*
X28657258Y63166320D01*
X28655089Y63172106D01*
X28655089Y63172107D01*
X28652615Y63178705D01*
X28565261Y63295261D01*
X28448705Y63382615D01*
X28312316Y63433745D01*
X28306144Y63434415D01*
X28306142Y63434416D01*
X28270163Y63438324D01*
X28250134Y63440500D01*
X26629866Y63440500D01*
X26609837Y63438324D01*
X26573858Y63434416D01*
X26573856Y63434415D01*
X26567684Y63433745D01*
X26431295Y63382615D01*
X26314739Y63295261D01*
X26227385Y63178705D01*
X26224911Y63172107D01*
X26224911Y63172106D01*
X26222742Y63166320D01*
X26176255Y63042316D01*
X26169500Y62980134D01*
X26169500Y61359866D01*
X26176255Y61297684D01*
X26178435Y61291869D01*
X26223896Y61170603D01*
X26227385Y61161295D01*
X26314739Y61044739D01*
X26320383Y61040509D01*
X26320387Y61040505D01*
X26402159Y60979220D01*
X26437384Y60929192D01*
X26436476Y60868014D01*
X26402159Y60820780D01*
X26320387Y60759495D01*
X26320383Y60759491D01*
X26314739Y60755261D01*
X26227385Y60638705D01*
X26224911Y60632107D01*
X26224911Y60632106D01*
X26222742Y60626320D01*
X26176255Y60502316D01*
X26169500Y60440134D01*
X26169500Y58819866D01*
X25907323Y58819866D01*
X25911052Y58838612D01*
X25912000Y58848234D01*
X25912000Y59360320D01*
X25907878Y59373005D01*
X25903757Y59376000D01*
X25169680Y59376000D01*
X25156995Y59371878D01*
X25154000Y59367757D01*
X25154000Y58633680D01*
X24646000Y58633680D01*
X24646000Y59360320D01*
X24641878Y59373005D01*
X24637757Y59376000D01*
X23903680Y59376000D01*
X23890995Y59371878D01*
X23888000Y59367757D01*
X23888000Y58848234D01*
X22630500Y58848234D01*
X22630500Y59899680D01*
X23888000Y59899680D01*
X23892122Y59886995D01*
X23896243Y59884000D01*
X24630320Y59884000D01*
X24643005Y59888122D01*
X24646000Y59892243D01*
X24646000Y59899680D01*
X25154000Y59899680D01*
X25158122Y59886995D01*
X25162243Y59884000D01*
X25896320Y59884000D01*
X25909005Y59888122D01*
X25912000Y59892243D01*
X25912000Y60411766D01*
X25911052Y60421388D01*
X25899397Y60479983D01*
X25892078Y60497651D01*
X25847659Y60564130D01*
X25834130Y60577659D01*
X25767651Y60622078D01*
X25749983Y60629397D01*
X25691388Y60641052D01*
X25681766Y60642000D01*
X25169680Y60642000D01*
X25156995Y60637878D01*
X25154000Y60633757D01*
X25154000Y59899680D01*
X24646000Y59899680D01*
X24646000Y60626320D01*
X24641878Y60639005D01*
X24637757Y60642000D01*
X24118234Y60642000D01*
X24108612Y60641052D01*
X24050017Y60629397D01*
X24032349Y60622078D01*
X23965870Y60577659D01*
X23952341Y60564130D01*
X23907922Y60497651D01*
X23900603Y60479983D01*
X23888948Y60421388D01*
X23888000Y60411766D01*
X23888000Y59899680D01*
X22630500Y59899680D01*
X22630500Y60440134D01*
X22623745Y60502316D01*
X22577258Y60626320D01*
X22575089Y60632106D01*
X22575089Y60632107D01*
X22572615Y60638705D01*
X22485261Y60755261D01*
X22479617Y60759491D01*
X22479613Y60759495D01*
X22397841Y60820780D01*
X22362616Y60870808D01*
X22363524Y60931986D01*
X22397841Y60979220D01*
X22479613Y61040505D01*
X22479617Y61040509D01*
X22485261Y61044739D01*
X22572615Y61161295D01*
X22576105Y61170603D01*
X22621565Y61291869D01*
X22623745Y61297684D01*
X22630500Y61359866D01*
X22630500Y61388234D01*
X23888000Y61388234D01*
X23888948Y61378612D01*
X23900603Y61320017D01*
X23907922Y61302349D01*
X23952341Y61235870D01*
X23965870Y61222341D01*
X24032349Y61177922D01*
X24050017Y61170603D01*
X24108612Y61158948D01*
X24118234Y61158000D01*
X24630320Y61158000D01*
X24643005Y61162122D01*
X24646000Y61166243D01*
X24646000Y61173680D01*
X25154000Y61173680D01*
X25158122Y61160995D01*
X25162243Y61158000D01*
X25681766Y61158000D01*
X25691388Y61158948D01*
X25749983Y61170603D01*
X25767651Y61177922D01*
X25834130Y61222341D01*
X25847659Y61235870D01*
X25892078Y61302349D01*
X25899397Y61320017D01*
X25911052Y61378612D01*
X25912000Y61388234D01*
X25912000Y61900320D01*
X25907878Y61913005D01*
X25903757Y61916000D01*
X25169680Y61916000D01*
X25156995Y61911878D01*
X25154000Y61907757D01*
X25154000Y61173680D01*
X24646000Y61173680D01*
X24646000Y61900320D01*
X24641878Y61913005D01*
X24637757Y61916000D01*
X23903680Y61916000D01*
X23890995Y61911878D01*
X23888000Y61907757D01*
X23888000Y61388234D01*
X22630500Y61388234D01*
X22630500Y62439680D01*
X23888000Y62439680D01*
X23892122Y62426995D01*
X23896243Y62424000D01*
X24630320Y62424000D01*
X24643005Y62428122D01*
X24646000Y62432243D01*
X24646000Y62439680D01*
X25154000Y62439680D01*
X25158122Y62426995D01*
X25162243Y62424000D01*
X25896320Y62424000D01*
X25909005Y62428122D01*
X25912000Y62432243D01*
X25912000Y62951766D01*
X25911052Y62961388D01*
X25899397Y63019983D01*
X25892078Y63037651D01*
X25847659Y63104130D01*
X25834130Y63117659D01*
X25767651Y63162078D01*
X25749983Y63169397D01*
X25691388Y63181052D01*
X25681766Y63182000D01*
X25169680Y63182000D01*
X25156995Y63177878D01*
X25154000Y63173757D01*
X25154000Y62439680D01*
X24646000Y62439680D01*
X24646000Y63166320D01*
X24641878Y63179005D01*
X24637757Y63182000D01*
X24118234Y63182000D01*
X24108612Y63181052D01*
X24050017Y63169397D01*
X24032349Y63162078D01*
X23965870Y63117659D01*
X23952341Y63104130D01*
X23907922Y63037651D01*
X23900603Y63019983D01*
X23888948Y62961388D01*
X23888000Y62951766D01*
X23888000Y62439680D01*
X22630500Y62439680D01*
X22630500Y62980134D01*
X22623745Y63042316D01*
X22577258Y63166320D01*
X22575089Y63172106D01*
X22575089Y63172107D01*
X22572615Y63178705D01*
X22485261Y63295261D01*
X22368705Y63382615D01*
X22232316Y63433745D01*
X22226144Y63434415D01*
X22226142Y63434416D01*
X22190163Y63438324D01*
X22170134Y63440500D01*
X20549866Y63440500D01*
X20529837Y63438324D01*
X20493858Y63434416D01*
X20493856Y63434415D01*
X20487684Y63433745D01*
X20351295Y63382615D01*
X20234739Y63295261D01*
X20230509Y63289617D01*
X20230505Y63289613D01*
X20169220Y63207841D01*
X20119192Y63172616D01*
X20058014Y63173524D01*
X20010780Y63207841D01*
X19949495Y63289613D01*
X19949491Y63289617D01*
X19945261Y63295261D01*
X19828705Y63382615D01*
X19692316Y63433745D01*
X19686144Y63434415D01*
X19686142Y63434416D01*
X19650163Y63438324D01*
X19630134Y63440500D01*
X18009866Y63440500D01*
X17989837Y63438324D01*
X17953858Y63434416D01*
X17953856Y63434415D01*
X17947684Y63433745D01*
X17811295Y63382615D01*
X17694739Y63295261D01*
X17690509Y63289617D01*
X17690505Y63289613D01*
X17629220Y63207841D01*
X17579192Y63172616D01*
X17518014Y63173524D01*
X17470780Y63207841D01*
X17409495Y63289613D01*
X17409491Y63289617D01*
X17405261Y63295261D01*
X17288705Y63382615D01*
X17152316Y63433745D01*
X17146144Y63434415D01*
X17146142Y63434416D01*
X17110163Y63438324D01*
X17090134Y63440500D01*
X15469866Y63440500D01*
X15449837Y63438324D01*
X15413858Y63434416D01*
X15413856Y63434415D01*
X15407684Y63433745D01*
X15271295Y63382615D01*
X15154739Y63295261D01*
X15067385Y63178705D01*
X15064911Y63172107D01*
X15064911Y63172106D01*
X15062742Y63166320D01*
X15016255Y63042316D01*
X15009500Y62980134D01*
X15009500Y61359866D01*
X15016255Y61297684D01*
X15018435Y61291869D01*
X15063896Y61170603D01*
X15067385Y61161295D01*
X15154739Y61044739D01*
X15160383Y61040509D01*
X15160387Y61040505D01*
X15242159Y60979220D01*
X15277384Y60929192D01*
X15276476Y60868014D01*
X15242159Y60820780D01*
X15160387Y60759495D01*
X15160383Y60759491D01*
X15154739Y60755261D01*
X15067385Y60638705D01*
X15064911Y60632107D01*
X15064911Y60632106D01*
X15062742Y60626320D01*
X15016255Y60502316D01*
X15009500Y60440134D01*
X15009500Y58819866D01*
X14010500Y58819866D01*
X14010500Y60440134D01*
X14003745Y60502316D01*
X13957258Y60626320D01*
X13955089Y60632106D01*
X13955089Y60632107D01*
X13952615Y60638705D01*
X13865261Y60755261D01*
X13859617Y60759491D01*
X13859613Y60759495D01*
X13777841Y60820780D01*
X13742616Y60870808D01*
X13743524Y60931986D01*
X13777841Y60979220D01*
X13859613Y61040505D01*
X13859617Y61040509D01*
X13865261Y61044739D01*
X13952615Y61161295D01*
X13956105Y61170603D01*
X14001565Y61291869D01*
X14003745Y61297684D01*
X14010500Y61359866D01*
X14010500Y62980134D01*
X14003745Y63042316D01*
X13957258Y63166320D01*
X13955089Y63172106D01*
X13955089Y63172107D01*
X13952615Y63178705D01*
X13865261Y63295261D01*
X13748705Y63382615D01*
X13612316Y63433745D01*
X13606144Y63434415D01*
X13606142Y63434416D01*
X13570163Y63438324D01*
X13550134Y63440500D01*
X11929866Y63440500D01*
X11909837Y63438324D01*
X11873858Y63434416D01*
X11873856Y63434415D01*
X11867684Y63433745D01*
X11731295Y63382615D01*
X11614739Y63295261D01*
X11610509Y63289617D01*
X11610505Y63289613D01*
X11549220Y63207841D01*
X11499192Y63172616D01*
X11438014Y63173524D01*
X11390780Y63207841D01*
X11329495Y63289613D01*
X11329491Y63289617D01*
X11325261Y63295261D01*
X11208705Y63382615D01*
X11072316Y63433745D01*
X11066144Y63434415D01*
X11066142Y63434416D01*
X11030163Y63438324D01*
X11010134Y63440500D01*
X9389866Y63440500D01*
X9369837Y63438324D01*
X9333858Y63434416D01*
X9333856Y63434415D01*
X9327684Y63433745D01*
X9191295Y63382615D01*
X9074739Y63295261D01*
X9070509Y63289617D01*
X9070505Y63289613D01*
X9009220Y63207841D01*
X8959192Y63172616D01*
X8898014Y63173524D01*
X8850780Y63207841D01*
X8789495Y63289613D01*
X8789491Y63289617D01*
X8785261Y63295261D01*
X8668705Y63382615D01*
X8532316Y63433745D01*
X8526144Y63434415D01*
X8526142Y63434416D01*
X8490163Y63438324D01*
X8470134Y63440500D01*
X6849866Y63440500D01*
X6829837Y63438324D01*
X6793858Y63434416D01*
X6793856Y63434415D01*
X6787684Y63433745D01*
X6651295Y63382615D01*
X6534739Y63295261D01*
X6447385Y63178705D01*
X6444911Y63172107D01*
X6444911Y63172106D01*
X6442742Y63166320D01*
X6396255Y63042316D01*
X6389500Y62980134D01*
X6389500Y61359866D01*
X6396255Y61297684D01*
X6398435Y61291869D01*
X6443896Y61170603D01*
X6447385Y61161295D01*
X6534739Y61044739D01*
X6540383Y61040509D01*
X6540387Y61040505D01*
X6622159Y60979220D01*
X6657384Y60929192D01*
X6656476Y60868014D01*
X6622159Y60820780D01*
X6540387Y60759495D01*
X6540383Y60759491D01*
X6534739Y60755261D01*
X6447385Y60638705D01*
X6444911Y60632107D01*
X6444911Y60632106D01*
X6442742Y60626320D01*
X6396255Y60502316D01*
X6389500Y60440134D01*
X6389500Y58819866D01*
X-4471500Y58819866D01*
X-4471500Y65332500D01*
X-4452593Y65390691D01*
X-4403093Y65426655D01*
X-4372500Y65431500D01*
X55172500Y65431500D01*
X55230691Y65412593D01*
G37*
%TD.AperFunction*%
%TA.AperFunction,Conductor*%
G36*
X35249866Y58359500D02*
G01*
X36034258Y58359500D01*
X36092449Y58340593D01*
X36128413Y58291093D01*
X36128413Y58229907D01*
X36094529Y58181961D01*
X36085417Y58174969D01*
X36081274Y58171958D01*
X36028019Y58135357D01*
X36019099Y58125345D01*
X35986066Y58088270D01*
X35982153Y58084124D01*
X33835526Y55937496D01*
X33781009Y55909719D01*
X33765522Y55908500D01*
X24827999Y55908500D01*
X24821266Y55908729D01*
X24819237Y55908867D01*
X24762648Y55912725D01*
X24756776Y55911700D01*
X24756773Y55911700D01*
X24699020Y55901620D01*
X24693893Y55900863D01*
X24629758Y55893102D01*
X24624178Y55890994D01*
X24624176Y55890993D01*
X24622859Y55890495D01*
X24620956Y55889776D01*
X24602980Y55884859D01*
X24593716Y55883242D01*
X24588253Y55880844D01*
X24534567Y55857278D01*
X24529769Y55855320D01*
X24515646Y55849983D01*
X24469344Y55832487D01*
X24461587Y55827156D01*
X24445309Y55818096D01*
X24436695Y55814315D01*
X24406817Y55791388D01*
X24385448Y55774991D01*
X24381253Y55771943D01*
X24328019Y55735357D01*
X24324051Y55730903D01*
X24286058Y55688261D01*
X24282145Y55684115D01*
X22570004Y53971974D01*
X22515487Y53944197D01*
X22455055Y53953768D01*
X22429996Y53971974D01*
X22220783Y54181187D01*
X22216184Y54186111D01*
X22181482Y54225890D01*
X22177561Y54230385D01*
X22172683Y54233813D01*
X22172679Y54233817D01*
X22124704Y54267534D01*
X22120542Y54270625D01*
X22074413Y54306795D01*
X22074411Y54306796D01*
X22069718Y54310476D01*
X22063036Y54313493D01*
X22061145Y54314347D01*
X22044958Y54323580D01*
X22042146Y54325557D01*
X22042143Y54325558D01*
X22037261Y54328990D01*
X21977047Y54352466D01*
X21972307Y54354459D01*
X21918867Y54378589D01*
X21918865Y54378590D01*
X21913427Y54381045D01*
X21907562Y54382132D01*
X21907556Y54382134D01*
X21904176Y54382760D01*
X21886262Y54387863D01*
X21877491Y54391282D01*
X21840353Y54396171D01*
X21813445Y54399714D01*
X21808326Y54400525D01*
X21764410Y54408664D01*
X21744814Y54412296D01*
X21683028Y54408733D01*
X21681828Y54408664D01*
X21676129Y54408500D01*
X20902632Y54408500D01*
X20844443Y54427406D01*
X20756752Y54491118D01*
X20669520Y54529956D01*
X20587026Y54566685D01*
X20587022Y54566686D01*
X20582288Y54568794D01*
X20577218Y54569872D01*
X20577217Y54569872D01*
X20542083Y54577340D01*
X20395487Y54608500D01*
X20204513Y54608500D01*
X20188165Y54605025D01*
X20158072Y54598629D01*
X20097221Y54605025D01*
X20051752Y54645967D01*
X20039031Y54705815D01*
X20063594Y54761348D01*
X20063964Y54761763D01*
X20067855Y54765885D01*
X21564474Y56262504D01*
X21618991Y56290281D01*
X21634478Y56291500D01*
X32972001Y56291500D01*
X32978734Y56291271D01*
X33037352Y56287275D01*
X33043224Y56288300D01*
X33043228Y56288300D01*
X33100987Y56298381D01*
X33106115Y56299138D01*
X33164320Y56306181D01*
X33164323Y56306182D01*
X33170242Y56306898D01*
X33175820Y56309006D01*
X33175825Y56309007D01*
X33179040Y56310222D01*
X33197013Y56315139D01*
X33197811Y56315278D01*
X33206284Y56316757D01*
X33265436Y56342723D01*
X33270232Y56344681D01*
X33325072Y56365403D01*
X33330656Y56367513D01*
X33338413Y56372844D01*
X33354683Y56381900D01*
X33363305Y56385685D01*
X33414552Y56425009D01*
X33418747Y56428057D01*
X33467064Y56461264D01*
X33471981Y56464643D01*
X33513942Y56511739D01*
X33517855Y56515885D01*
X34881187Y57879217D01*
X34886111Y57883816D01*
X34925890Y57918518D01*
X34930385Y57922439D01*
X34933813Y57927317D01*
X34933817Y57927321D01*
X34967534Y57975296D01*
X34970625Y57979458D01*
X35006795Y58025587D01*
X35006796Y58025589D01*
X35010476Y58030282D01*
X35014347Y58038855D01*
X35023580Y58055042D01*
X35025557Y58057854D01*
X35025558Y58057857D01*
X35028990Y58062739D01*
X35052466Y58122953D01*
X35054459Y58127693D01*
X35055909Y58130903D01*
X35063592Y58147920D01*
X35078589Y58181133D01*
X35078590Y58181135D01*
X35081045Y58186573D01*
X35082132Y58192438D01*
X35082134Y58192444D01*
X35082760Y58195824D01*
X35087863Y58213738D01*
X35091282Y58222509D01*
X35098667Y58278602D01*
X35125008Y58333827D01*
X35178779Y58363022D01*
X35207512Y58364101D01*
X35249866Y58359500D01*
G37*
%TD.AperFunction*%
%TD*%
M02*
