%TF.GenerationSoftware,KiCad,Pcbnew,6.0.10+dfsg-1~bpo11+1*%
%TF.CreationDate,2023-02-12T13:39:57+00:00*%
%TF.ProjectId,OLED01,4f4c4544-3031-42e6-9b69-6361645f7063,rev?*%
%TF.SameCoordinates,PX72ba1e0PY737d6e0*%
%TF.FileFunction,Paste,Bot*%
%TF.FilePolarity,Positive*%
%FSLAX46Y46*%
G04 Gerber Fmt 4.6, Leading zero omitted, Abs format (unit mm)*
G04 Created by KiCad (PCBNEW 6.0.10+dfsg-1~bpo11+1) date 2023-02-12 13:39:57*
%MOMM*%
%LPD*%
G01*
G04 APERTURE LIST*
G04 Aperture macros list*
%AMRoundRect*
0 Rectangle with rounded corners*
0 $1 Rounding radius*
0 $2 $3 $4 $5 $6 $7 $8 $9 X,Y pos of 4 corners*
0 Add a 4 corners polygon primitive as box body*
4,1,4,$2,$3,$4,$5,$6,$7,$8,$9,$2,$3,0*
0 Add four circle primitives for the rounded corners*
1,1,$1+$1,$2,$3*
1,1,$1+$1,$4,$5*
1,1,$1+$1,$6,$7*
1,1,$1+$1,$8,$9*
0 Add four rect primitives between the rounded corners*
20,1,$1+$1,$2,$3,$4,$5,0*
20,1,$1+$1,$4,$5,$6,$7,0*
20,1,$1+$1,$6,$7,$8,$9,0*
20,1,$1+$1,$8,$9,$2,$3,0*%
G04 Aperture macros list end*
%ADD10R,2.350000X5.100000*%
%ADD11RoundRect,0.243750X-0.456250X0.243750X-0.456250X-0.243750X0.456250X-0.243750X0.456250X0.243750X0*%
%ADD12R,0.650000X1.220000*%
%ADD13R,0.610000X2.000000*%
%ADD14R,2.680000X3.600000*%
%ADD15R,1.300000X1.700000*%
%ADD16RoundRect,0.243750X0.456250X-0.243750X0.456250X0.243750X-0.456250X0.243750X-0.456250X-0.243750X0*%
%ADD17R,1.800000X2.500000*%
%ADD18RoundRect,0.150000X0.512500X0.150000X-0.512500X0.150000X-0.512500X-0.150000X0.512500X-0.150000X0*%
%ADD19R,1.100000X0.400000*%
%ADD20RoundRect,0.100000X-0.637500X-0.100000X0.637500X-0.100000X0.637500X0.100000X-0.637500X0.100000X0*%
%ADD21RoundRect,0.250000X0.250000X0.475000X-0.250000X0.475000X-0.250000X-0.475000X0.250000X-0.475000X0*%
G04 APERTURE END LIST*
D10*
%TO.C,L1*%
X12675000Y28700000D03*
X8525000Y28700000D03*
%TD*%
D11*
%TO.C,R10*%
X16300000Y48700000D03*
X16300000Y46825000D03*
%TD*%
%TO.C,R3*%
X42500000Y42637500D03*
X42500000Y40762500D03*
%TD*%
D12*
%TO.C,U3*%
X11000341Y35933647D03*
X11950341Y35933647D03*
X12900341Y35933647D03*
X12900341Y33313647D03*
X11950341Y33313647D03*
X11000341Y33313647D03*
%TD*%
D11*
%TO.C,R1*%
X11400000Y48937500D03*
X11400000Y47062500D03*
%TD*%
D13*
%TO.C,J1*%
X26800000Y25050000D03*
X25800000Y25050000D03*
X24800000Y25050000D03*
X23800000Y25050000D03*
D14*
X29790000Y22250000D03*
X20810000Y22250000D03*
%TD*%
D11*
%TO.C,R4*%
X38200000Y46037500D03*
X38200000Y44162500D03*
%TD*%
D15*
%TO.C,D2*%
X24250000Y55700000D03*
X20750000Y55700000D03*
%TD*%
D16*
%TO.C,C8*%
X32500000Y55425000D03*
X32500000Y57300000D03*
%TD*%
%TO.C,R13*%
X18900000Y46825000D03*
X18900000Y48700000D03*
%TD*%
D17*
%TO.C,D1*%
X3000000Y32400000D03*
X3000000Y28400000D03*
%TD*%
D18*
%TO.C,U2*%
X29837500Y5750000D03*
X29837500Y4800000D03*
X29837500Y3850000D03*
X27562500Y3850000D03*
X27562500Y5750000D03*
%TD*%
D19*
%TO.C,U5*%
X39250000Y8375000D03*
X39250000Y7725000D03*
X39250000Y7075000D03*
X39250000Y6425000D03*
X34950000Y6425000D03*
X34950000Y7075000D03*
X34950000Y7725000D03*
X34950000Y8375000D03*
%TD*%
D16*
%TO.C,R7*%
X5800000Y32462500D03*
X5800000Y34337500D03*
%TD*%
D11*
%TO.C,C11*%
X0Y36737500D03*
X0Y34862500D03*
%TD*%
D20*
%TO.C,U4*%
X36937500Y26625000D03*
X36937500Y27275000D03*
X36937500Y27925000D03*
X36937500Y28575000D03*
X36937500Y29225000D03*
X36937500Y29875000D03*
X36937500Y30525000D03*
X36937500Y31175000D03*
X42662500Y31175000D03*
X42662500Y30525000D03*
X42662500Y29875000D03*
X42662500Y29225000D03*
X42662500Y28575000D03*
X42662500Y27925000D03*
X42662500Y27275000D03*
X42662500Y26625000D03*
%TD*%
D11*
%TO.C,R6*%
X5250000Y62750000D03*
X5250000Y60875000D03*
%TD*%
%TO.C,R2*%
X42500000Y46075000D03*
X42500000Y44200000D03*
%TD*%
%TO.C,C2*%
X7700000Y49000000D03*
X7700000Y47125000D03*
%TD*%
%TO.C,R12*%
X29200000Y48600000D03*
X29200000Y46725000D03*
%TD*%
%TO.C,R5*%
X38200000Y42600000D03*
X38200000Y40725000D03*
%TD*%
D16*
%TO.C,R8*%
X5800000Y35825000D03*
X5800000Y37700000D03*
%TD*%
D21*
%TO.C,C1*%
X50100000Y49100000D03*
X48200000Y49100000D03*
%TD*%
D11*
%TO.C,R11*%
X25200000Y48737500D03*
X25200000Y46862500D03*
%TD*%
D16*
%TO.C,R14*%
X22000000Y46825000D03*
X22000000Y48700000D03*
%TD*%
%TO.C,C9*%
X30500000Y55425000D03*
X30500000Y57300000D03*
%TD*%
D18*
%TO.C,U1*%
X50675000Y47800000D03*
X50675000Y46850000D03*
X50675000Y45900000D03*
X48400000Y45900000D03*
X48400000Y47800000D03*
%TD*%
D16*
%TO.C,R9*%
X2400000Y34800000D03*
X2400000Y36675000D03*
%TD*%
%TO.C,C10*%
X0Y31300000D03*
X0Y33175000D03*
%TD*%
D11*
%TO.C,C5*%
X15500000Y31175000D03*
X15500000Y29300000D03*
%TD*%
M02*
