%TF.GenerationSoftware,KiCad,Pcbnew,6.0.4-6f826c9f35~116~ubuntu20.04.1*%
%TF.CreationDate,2022-05-15T20:00:56+00:00*%
%TF.ProjectId,OLED01A,4f4c4544-3031-4412-9e6b-696361645f70,rev?*%
%TF.SameCoordinates,PX72ba1e0PY737d6e0*%
%TF.FileFunction,Legend,Bot*%
%TF.FilePolarity,Positive*%
%FSLAX46Y46*%
G04 Gerber Fmt 4.6, Leading zero omitted, Abs format (unit mm)*
G04 Created by KiCad (PCBNEW 6.0.4-6f826c9f35~116~ubuntu20.04.1) date 2022-05-15 20:00:56*
%MOMM*%
%LPD*%
G01*
G04 APERTURE LIST*
%ADD10C,0.120000*%
%ADD11C,0.660000*%
%ADD12C,0.100000*%
%ADD13C,0.150000*%
G04 APERTURE END LIST*
D10*
X50700000Y19800000D02*
X49500000Y19800000D01*
X49500000Y19800000D02*
X49500000Y18500000D01*
X49500000Y18500000D02*
X50700000Y18500000D01*
X50700000Y18500000D02*
X50700000Y19800000D01*
G36*
X50700000Y19800000D02*
G01*
X49500000Y19800000D01*
X49500000Y18500000D01*
X50700000Y18500000D01*
X50700000Y19800000D01*
G37*
D11*
X16630000Y45400000D02*
G75*
G03*
X16630000Y45400000I-330000J0D01*
G01*
D10*
X25800000Y46050000D02*
X24600000Y46050000D01*
X24600000Y46050000D02*
X24600000Y44750000D01*
X24600000Y44750000D02*
X25800000Y44750000D01*
X25800000Y44750000D02*
X25800000Y46050000D01*
G36*
X25800000Y46050000D02*
G01*
X24600000Y46050000D01*
X24600000Y44750000D01*
X25800000Y44750000D01*
X25800000Y46050000D01*
G37*
X52300000Y47300000D02*
X35300000Y47300000D01*
X35300000Y47300000D02*
X35300000Y39700000D01*
X35300000Y39700000D02*
X52300000Y39700000D01*
X52300000Y39700000D02*
X52300000Y47300000D01*
X49800000Y46500000D02*
X49800000Y40400000D01*
X38875000Y37100000D02*
X16600000Y37100000D01*
X16600000Y37100000D02*
X16600000Y21700000D01*
X16600000Y21700000D02*
X38875000Y21700000D01*
X38875000Y21700000D02*
X38875000Y37100000D01*
D11*
X44630000Y62200000D02*
G75*
G03*
X44630000Y62200000I-330000J0D01*
G01*
D10*
X51400000Y41750000D02*
X50200000Y41750000D01*
X50200000Y41750000D02*
X50200000Y40450000D01*
X50200000Y40450000D02*
X51400000Y40450000D01*
X51400000Y40450000D02*
X51400000Y41750000D01*
G36*
X51400000Y41750000D02*
G01*
X50200000Y41750000D01*
X50200000Y40450000D01*
X51400000Y40450000D01*
X51400000Y41750000D01*
G37*
X51300000Y22300000D02*
X46100000Y22300000D01*
X46100000Y22300000D02*
X46100000Y17900000D01*
X46100000Y17900000D02*
X51300000Y17900000D01*
X51300000Y17900000D02*
X51300000Y22300000D01*
X18200000Y62600000D02*
X17000000Y62600000D01*
X17000000Y62600000D02*
X17000000Y61300000D01*
X17000000Y61300000D02*
X18200000Y61300000D01*
X18200000Y61300000D02*
X18200000Y62600000D01*
G36*
X18200000Y62600000D02*
G01*
X17000000Y62600000D01*
X17000000Y61300000D01*
X18200000Y61300000D01*
X18200000Y62600000D01*
G37*
D11*
X44430000Y55000000D02*
G75*
G03*
X44430000Y55000000I-330000J0D01*
G01*
X22330000Y45400000D02*
G75*
G03*
X22330000Y45400000I-330000J0D01*
G01*
X19230000Y45400000D02*
G75*
G03*
X19230000Y45400000I-330000J0D01*
G01*
X51130000Y43050000D02*
G75*
G03*
X51130000Y43050000I-330000J0D01*
G01*
X50430000Y21100000D02*
G75*
G03*
X50430000Y21100000I-330000J0D01*
G01*
X29530000Y45400000D02*
G75*
G03*
X29530000Y45400000I-330000J0D01*
G01*
D10*
X51500000Y44000000D02*
X47100000Y44000000D01*
D12*
X51900000Y48171429D02*
X51757142Y48123810D01*
X51709523Y48076191D01*
X51661904Y47980953D01*
X51661904Y47838096D01*
X51709523Y47742858D01*
X51757142Y47695239D01*
X51852380Y47647620D01*
X52233333Y47647620D01*
X52233333Y48647620D01*
X51900000Y48647620D01*
X51804761Y48600000D01*
X51757142Y48552381D01*
X51709523Y48457143D01*
X51709523Y48361905D01*
X51757142Y48266667D01*
X51804761Y48219048D01*
X51900000Y48171429D01*
X52233333Y48171429D01*
X50804761Y48314286D02*
X50804761Y47647620D01*
X51233333Y48314286D02*
X51233333Y47790477D01*
X51185714Y47695239D01*
X51090476Y47647620D01*
X50947619Y47647620D01*
X50852380Y47695239D01*
X50804761Y47742858D01*
X50376190Y47695239D02*
X50280952Y47647620D01*
X50090476Y47647620D01*
X49995238Y47695239D01*
X49947619Y47790477D01*
X49947619Y47838096D01*
X49995238Y47933334D01*
X50090476Y47980953D01*
X50233333Y47980953D01*
X50328571Y48028572D01*
X50376190Y48123810D01*
X50376190Y48171429D01*
X50328571Y48266667D01*
X50233333Y48314286D01*
X50090476Y48314286D01*
X49995238Y48266667D01*
X48804761Y47695239D02*
X48709523Y47647620D01*
X48519047Y47647620D01*
X48423809Y47695239D01*
X48376190Y47790477D01*
X48376190Y47838096D01*
X48423809Y47933334D01*
X48519047Y47980953D01*
X48661904Y47980953D01*
X48757142Y48028572D01*
X48804761Y48123810D01*
X48804761Y48171429D01*
X48757142Y48266667D01*
X48661904Y48314286D01*
X48519047Y48314286D01*
X48423809Y48266667D01*
X47566666Y47695239D02*
X47661904Y47647620D01*
X47852380Y47647620D01*
X47947619Y47695239D01*
X47995238Y47790477D01*
X47995238Y48171429D01*
X47947619Y48266667D01*
X47852380Y48314286D01*
X47661904Y48314286D01*
X47566666Y48266667D01*
X47519047Y48171429D01*
X47519047Y48076191D01*
X47995238Y47980953D01*
X46947619Y47647620D02*
X47042857Y47695239D01*
X47090476Y47790477D01*
X47090476Y48647620D01*
X46566666Y47742858D02*
X46519047Y47695239D01*
X46566666Y47647620D01*
X46614285Y47695239D01*
X46566666Y47742858D01*
X46566666Y47647620D01*
X43242857Y57800000D02*
X43319047Y57838096D01*
X43433333Y57838096D01*
X43547619Y57800000D01*
X43623809Y57723810D01*
X43661904Y57647620D01*
X43700000Y57495239D01*
X43700000Y57380953D01*
X43661904Y57228572D01*
X43623809Y57152381D01*
X43547619Y57076191D01*
X43433333Y57038096D01*
X43357142Y57038096D01*
X43242857Y57076191D01*
X43204761Y57114286D01*
X43204761Y57380953D01*
X43357142Y57380953D01*
X42861904Y57038096D02*
X42861904Y57838096D01*
X42404761Y57038096D01*
X42404761Y57838096D01*
X42023809Y57038096D02*
X42023809Y57838096D01*
X41833333Y57838096D01*
X41719047Y57800000D01*
X41642857Y57723810D01*
X41604761Y57647620D01*
X41566666Y57495239D01*
X41566666Y57380953D01*
X41604761Y57228572D01*
X41642857Y57152381D01*
X41719047Y57076191D01*
X41833333Y57038096D01*
X42023809Y57038096D01*
X40652380Y57076191D02*
X40538095Y57038096D01*
X40347619Y57038096D01*
X40271428Y57076191D01*
X40233333Y57114286D01*
X40195238Y57190477D01*
X40195238Y57266667D01*
X40233333Y57342858D01*
X40271428Y57380953D01*
X40347619Y57419048D01*
X40500000Y57457143D01*
X40576190Y57495239D01*
X40614285Y57533334D01*
X40652380Y57609524D01*
X40652380Y57685715D01*
X40614285Y57761905D01*
X40576190Y57800000D01*
X40500000Y57838096D01*
X40309523Y57838096D01*
X40195238Y57800000D01*
X39852380Y57038096D02*
X39852380Y57838096D01*
X39661904Y57838096D01*
X39547619Y57800000D01*
X39471428Y57723810D01*
X39433333Y57647620D01*
X39395238Y57495239D01*
X39395238Y57380953D01*
X39433333Y57228572D01*
X39471428Y57152381D01*
X39547619Y57076191D01*
X39661904Y57038096D01*
X39852380Y57038096D01*
X39090476Y57266667D02*
X38709523Y57266667D01*
X39166666Y57038096D02*
X38900000Y57838096D01*
X38633333Y57038096D01*
X37833333Y57838096D02*
X37338095Y57838096D01*
X37604761Y57533334D01*
X37490476Y57533334D01*
X37414285Y57495239D01*
X37376190Y57457143D01*
X37338095Y57380953D01*
X37338095Y57190477D01*
X37376190Y57114286D01*
X37414285Y57076191D01*
X37490476Y57038096D01*
X37719047Y57038096D01*
X37795238Y57076191D01*
X37833333Y57114286D01*
X37071428Y57571429D02*
X36880952Y57038096D01*
X36690476Y57571429D01*
X36461904Y57838096D02*
X35966666Y57838096D01*
X36233333Y57533334D01*
X36119047Y57533334D01*
X36042857Y57495239D01*
X36004761Y57457143D01*
X35966666Y57380953D01*
X35966666Y57190477D01*
X36004761Y57114286D01*
X36042857Y57076191D01*
X36119047Y57038096D01*
X36347619Y57038096D01*
X36423809Y57076191D01*
X36461904Y57114286D01*
X34557142Y57114286D02*
X34595238Y57076191D01*
X34709523Y57038096D01*
X34785714Y57038096D01*
X34900000Y57076191D01*
X34976190Y57152381D01*
X35014285Y57228572D01*
X35052380Y57380953D01*
X35052380Y57495239D01*
X35014285Y57647620D01*
X34976190Y57723810D01*
X34900000Y57800000D01*
X34785714Y57838096D01*
X34709523Y57838096D01*
X34595238Y57800000D01*
X34557142Y57761905D01*
X33833333Y57038096D02*
X34214285Y57038096D01*
X34214285Y57838096D01*
X33566666Y57038096D02*
X33566666Y57838096D01*
X33109523Y57038096D02*
X33452380Y57495239D01*
X33109523Y57838096D02*
X33566666Y57380953D01*
X31738095Y57800000D02*
X31814285Y57838096D01*
X31928571Y57838096D01*
X32042857Y57800000D01*
X32119047Y57723810D01*
X32157142Y57647620D01*
X32195238Y57495239D01*
X32195238Y57380953D01*
X32157142Y57228572D01*
X32119047Y57152381D01*
X32042857Y57076191D01*
X31928571Y57038096D01*
X31852380Y57038096D01*
X31738095Y57076191D01*
X31700000Y57114286D01*
X31700000Y57380953D01*
X31852380Y57380953D01*
X12523809Y63795239D02*
X12380952Y63747620D01*
X12142857Y63747620D01*
X12047619Y63795239D01*
X12000000Y63842858D01*
X11952380Y63938096D01*
X11952380Y64033334D01*
X12000000Y64128572D01*
X12047619Y64176191D01*
X12142857Y64223810D01*
X12333333Y64271429D01*
X12428571Y64319048D01*
X12476190Y64366667D01*
X12523809Y64461905D01*
X12523809Y64557143D01*
X12476190Y64652381D01*
X12428571Y64700000D01*
X12333333Y64747620D01*
X12095238Y64747620D01*
X11952380Y64700000D01*
X11523809Y63747620D02*
X11523809Y64747620D01*
X11142857Y64747620D01*
X11047619Y64700000D01*
X11000000Y64652381D01*
X10952380Y64557143D01*
X10952380Y64414286D01*
X11000000Y64319048D01*
X11047619Y64271429D01*
X11142857Y64223810D01*
X11523809Y64223810D01*
X10523809Y63747620D02*
X10523809Y64747620D01*
X38201190Y37422620D02*
X38772619Y37422620D01*
X38486904Y37422620D02*
X38486904Y38422620D01*
X38582142Y38279762D01*
X38677380Y38184524D01*
X38772619Y38136905D01*
X37820238Y38327381D02*
X37772619Y38375000D01*
X37677380Y38422620D01*
X37439285Y38422620D01*
X37344047Y38375000D01*
X37296428Y38327381D01*
X37248809Y38232143D01*
X37248809Y38136905D01*
X37296428Y37994048D01*
X37867857Y37422620D01*
X37248809Y37422620D01*
X36963095Y38422620D02*
X36629761Y37422620D01*
X36296428Y38422620D01*
X35248809Y37470239D02*
X35153571Y37422620D01*
X34963095Y37422620D01*
X34867857Y37470239D01*
X34820238Y37565477D01*
X34820238Y37613096D01*
X34867857Y37708334D01*
X34963095Y37755953D01*
X35105952Y37755953D01*
X35201190Y37803572D01*
X35248809Y37898810D01*
X35248809Y37946429D01*
X35201190Y38041667D01*
X35105952Y38089286D01*
X34963095Y38089286D01*
X34867857Y38041667D01*
X34248809Y37422620D02*
X34344047Y37470239D01*
X34391666Y37517858D01*
X34439285Y37613096D01*
X34439285Y37898810D01*
X34391666Y37994048D01*
X34344047Y38041667D01*
X34248809Y38089286D01*
X34105952Y38089286D01*
X34010714Y38041667D01*
X33963095Y37994048D01*
X33915476Y37898810D01*
X33915476Y37613096D01*
X33963095Y37517858D01*
X34010714Y37470239D01*
X34105952Y37422620D01*
X34248809Y37422620D01*
X33058333Y38089286D02*
X33058333Y37422620D01*
X33486904Y38089286D02*
X33486904Y37565477D01*
X33439285Y37470239D01*
X33344047Y37422620D01*
X33201190Y37422620D01*
X33105952Y37470239D01*
X33058333Y37517858D01*
X32582142Y37422620D02*
X32582142Y38089286D01*
X32582142Y37898810D02*
X32534523Y37994048D01*
X32486904Y38041667D01*
X32391666Y38089286D01*
X32296428Y38089286D01*
X31534523Y37470239D02*
X31629761Y37422620D01*
X31820238Y37422620D01*
X31915476Y37470239D01*
X31963095Y37517858D01*
X32010714Y37613096D01*
X32010714Y37898810D01*
X31963095Y37994048D01*
X31915476Y38041667D01*
X31820238Y38089286D01*
X31629761Y38089286D01*
X31534523Y38041667D01*
X30725000Y37470239D02*
X30820238Y37422620D01*
X31010714Y37422620D01*
X31105952Y37470239D01*
X31153571Y37565477D01*
X31153571Y37946429D01*
X31105952Y38041667D01*
X31010714Y38089286D01*
X30820238Y38089286D01*
X30725000Y38041667D01*
X30677380Y37946429D01*
X30677380Y37851191D01*
X31153571Y37755953D01*
X28352380Y63847620D02*
X28352380Y64847620D01*
X27971428Y64847620D01*
X27876190Y64800000D01*
X27828571Y64752381D01*
X27780952Y64657143D01*
X27780952Y64514286D01*
X27828571Y64419048D01*
X27876190Y64371429D01*
X27971428Y64323810D01*
X28352380Y64323810D01*
X27447619Y64847620D02*
X27209523Y63847620D01*
X27019047Y64561905D01*
X26828571Y63847620D01*
X26590476Y64847620D01*
X25638095Y63847620D02*
X25971428Y64323810D01*
X26209523Y63847620D02*
X26209523Y64847620D01*
X25828571Y64847620D01*
X25733333Y64800000D01*
X25685714Y64752381D01*
X25638095Y64657143D01*
X25638095Y64514286D01*
X25685714Y64419048D01*
X25733333Y64371429D01*
X25828571Y64323810D01*
X26209523Y64323810D01*
X24447619Y63847620D02*
X24447619Y64514286D01*
X24447619Y64419048D02*
X24400000Y64466667D01*
X24304761Y64514286D01*
X24161904Y64514286D01*
X24066666Y64466667D01*
X24019047Y64371429D01*
X24019047Y63847620D01*
X24019047Y64371429D02*
X23971428Y64466667D01*
X23876190Y64514286D01*
X23733333Y64514286D01*
X23638095Y64466667D01*
X23590476Y64371429D01*
X23590476Y63847620D01*
X22685714Y63847620D02*
X22685714Y64371429D01*
X22733333Y64466667D01*
X22828571Y64514286D01*
X23019047Y64514286D01*
X23114285Y64466667D01*
X22685714Y63895239D02*
X22780952Y63847620D01*
X23019047Y63847620D01*
X23114285Y63895239D01*
X23161904Y63990477D01*
X23161904Y64085715D01*
X23114285Y64180953D01*
X23019047Y64228572D01*
X22780952Y64228572D01*
X22685714Y64276191D01*
X22304761Y63847620D02*
X21780952Y64514286D01*
X22304761Y64514286D02*
X21780952Y63847620D01*
X20733333Y64847620D02*
X20114285Y64847620D01*
X20447619Y64466667D01*
X20304761Y64466667D01*
X20209523Y64419048D01*
X20161904Y64371429D01*
X20114285Y64276191D01*
X20114285Y64038096D01*
X20161904Y63942858D01*
X20209523Y63895239D01*
X20304761Y63847620D01*
X20590476Y63847620D01*
X20685714Y63895239D01*
X20733333Y63942858D01*
X19780952Y64514286D02*
X19542857Y63847620D01*
X19304761Y64514286D01*
X19019047Y64847620D02*
X18400000Y64847620D01*
X18733333Y64466667D01*
X18590476Y64466667D01*
X18495238Y64419048D01*
X18447619Y64371429D01*
X18400000Y64276191D01*
X18400000Y64038096D01*
X18447619Y63942858D01*
X18495238Y63895239D01*
X18590476Y63847620D01*
X18876190Y63847620D01*
X18971428Y63895239D01*
X19019047Y63942858D01*
D13*
X47698857Y46104762D02*
X47736952Y45990477D01*
X47775047Y45952381D01*
X47851238Y45914286D01*
X47965523Y45914286D01*
X48041714Y45952381D01*
X48079809Y45990477D01*
X48117904Y46066667D01*
X48117904Y46371429D01*
X47317904Y46371429D01*
X47317904Y46104762D01*
X47356000Y46028572D01*
X47394095Y45990477D01*
X47470285Y45952381D01*
X47546476Y45952381D01*
X47622666Y45990477D01*
X47660761Y46028572D01*
X47698857Y46104762D01*
X47698857Y46371429D01*
X48079809Y45609524D02*
X48117904Y45495239D01*
X48117904Y45304762D01*
X48079809Y45228572D01*
X48041714Y45190477D01*
X47965523Y45152381D01*
X47889333Y45152381D01*
X47813142Y45190477D01*
X47775047Y45228572D01*
X47736952Y45304762D01*
X47698857Y45457143D01*
X47660761Y45533334D01*
X47622666Y45571429D01*
X47546476Y45609524D01*
X47470285Y45609524D01*
X47394095Y45571429D01*
X47356000Y45533334D01*
X47317904Y45457143D01*
X47317904Y45266667D01*
X47356000Y45152381D01*
X48117904Y44390477D02*
X48117904Y44847620D01*
X48117904Y44619048D02*
X47317904Y44619048D01*
X47432190Y44695239D01*
X47508380Y44771429D01*
X47546476Y44847620D01*
X48986857Y46104762D02*
X49024952Y45990477D01*
X49063047Y45952381D01*
X49139238Y45914286D01*
X49253523Y45914286D01*
X49329714Y45952381D01*
X49367809Y45990477D01*
X49405904Y46066667D01*
X49405904Y46371429D01*
X48605904Y46371429D01*
X48605904Y46104762D01*
X48644000Y46028572D01*
X48682095Y45990477D01*
X48758285Y45952381D01*
X48834476Y45952381D01*
X48910666Y45990477D01*
X48948761Y46028572D01*
X48986857Y46104762D01*
X48986857Y46371429D01*
X49367809Y45609524D02*
X49405904Y45495239D01*
X49405904Y45304762D01*
X49367809Y45228572D01*
X49329714Y45190477D01*
X49253523Y45152381D01*
X49177333Y45152381D01*
X49101142Y45190477D01*
X49063047Y45228572D01*
X49024952Y45304762D01*
X48986857Y45457143D01*
X48948761Y45533334D01*
X48910666Y45571429D01*
X48834476Y45609524D01*
X48758285Y45609524D01*
X48682095Y45571429D01*
X48644000Y45533334D01*
X48605904Y45457143D01*
X48605904Y45266667D01*
X48644000Y45152381D01*
X48605904Y44657143D02*
X48605904Y44580953D01*
X48644000Y44504762D01*
X48682095Y44466667D01*
X48758285Y44428572D01*
X48910666Y44390477D01*
X49101142Y44390477D01*
X49253523Y44428572D01*
X49329714Y44466667D01*
X49367809Y44504762D01*
X49405904Y44580953D01*
X49405904Y44657143D01*
X49367809Y44733334D01*
X49329714Y44771429D01*
X49253523Y44809524D01*
X49101142Y44847620D01*
X48910666Y44847620D01*
X48758285Y44809524D01*
X48682095Y44771429D01*
X48644000Y44733334D01*
X48605904Y44657143D01*
D12*
X40990476Y53066667D02*
X40609523Y53066667D01*
X41066666Y52838096D02*
X40800000Y53638096D01*
X40533333Y52838096D01*
X40266666Y52838096D02*
X40266666Y53638096D01*
X40076190Y53638096D01*
X39961904Y53600000D01*
X39885714Y53523810D01*
X39847619Y53447620D01*
X39809523Y53295239D01*
X39809523Y53180953D01*
X39847619Y53028572D01*
X39885714Y52952381D01*
X39961904Y52876191D01*
X40076190Y52838096D01*
X40266666Y52838096D01*
X39466666Y52838096D02*
X39466666Y53638096D01*
X39276190Y53638096D01*
X39161904Y53600000D01*
X39085714Y53523810D01*
X39047619Y53447620D01*
X39009523Y53295239D01*
X39009523Y53180953D01*
X39047619Y53028572D01*
X39085714Y52952381D01*
X39161904Y52876191D01*
X39276190Y52838096D01*
X39466666Y52838096D01*
X38209523Y52838096D02*
X38476190Y53219048D01*
X38666666Y52838096D02*
X38666666Y53638096D01*
X38361904Y53638096D01*
X38285714Y53600000D01*
X38247619Y53561905D01*
X38209523Y53485715D01*
X38209523Y53371429D01*
X38247619Y53295239D01*
X38285714Y53257143D01*
X38361904Y53219048D01*
X38666666Y53219048D01*
D13*
X48776190Y20647620D02*
X48776190Y21647620D01*
X48347619Y21552381D02*
X48300000Y21600000D01*
X48204761Y21647620D01*
X47966666Y21647620D01*
X47871428Y21600000D01*
X47823809Y21552381D01*
X47776190Y21457143D01*
X47776190Y21361905D01*
X47823809Y21219048D01*
X48395238Y20647620D01*
X47776190Y20647620D01*
X46776190Y20742858D02*
X46823809Y20695239D01*
X46966666Y20647620D01*
X47061904Y20647620D01*
X47204761Y20695239D01*
X47300000Y20790477D01*
X47347619Y20885715D01*
X47395238Y21076191D01*
X47395238Y21219048D01*
X47347619Y21409524D01*
X47300000Y21504762D01*
X47204761Y21600000D01*
X47061904Y21647620D01*
X46966666Y21647620D01*
X46823809Y21600000D01*
X46776190Y21552381D01*
D12*
X40507142Y41271429D02*
X40507142Y40128572D01*
X40607142Y46771429D02*
X40607142Y45628572D01*
X41178571Y46200000D02*
X40035714Y46200000D01*
X37976190Y63947620D02*
X37976190Y64947620D01*
X37547619Y64852381D02*
X37500000Y64900000D01*
X37404761Y64947620D01*
X37166666Y64947620D01*
X37071428Y64900000D01*
X37023809Y64852381D01*
X36976190Y64757143D01*
X36976190Y64661905D01*
X37023809Y64519048D01*
X37595238Y63947620D01*
X36976190Y63947620D01*
X35976190Y64042858D02*
X36023809Y63995239D01*
X36166666Y63947620D01*
X36261904Y63947620D01*
X36404761Y63995239D01*
X36500000Y64090477D01*
X36547619Y64185715D01*
X36595238Y64376191D01*
X36595238Y64519048D01*
X36547619Y64709524D01*
X36500000Y64804762D01*
X36404761Y64900000D01*
X36261904Y64947620D01*
X36166666Y64947620D01*
X36023809Y64900000D01*
X35976190Y64852381D01*
X17319047Y56838096D02*
X17319047Y57638096D01*
X17052380Y57066667D01*
X16785714Y57638096D01*
X16785714Y56838096D01*
X16252380Y57638096D02*
X16100000Y57638096D01*
X16023809Y57600000D01*
X15947619Y57523810D01*
X15909523Y57371429D01*
X15909523Y57104762D01*
X15947619Y56952381D01*
X16023809Y56876191D01*
X16100000Y56838096D01*
X16252380Y56838096D01*
X16328571Y56876191D01*
X16404761Y56952381D01*
X16442857Y57104762D01*
X16442857Y57371429D01*
X16404761Y57523810D01*
X16328571Y57600000D01*
X16252380Y57638096D01*
X15604761Y56876191D02*
X15490476Y56838096D01*
X15300000Y56838096D01*
X15223809Y56876191D01*
X15185714Y56914286D01*
X15147619Y56990477D01*
X15147619Y57066667D01*
X15185714Y57142858D01*
X15223809Y57180953D01*
X15300000Y57219048D01*
X15452380Y57257143D01*
X15528571Y57295239D01*
X15566666Y57333334D01*
X15604761Y57409524D01*
X15604761Y57485715D01*
X15566666Y57561905D01*
X15528571Y57600000D01*
X15452380Y57638096D01*
X15261904Y57638096D01*
X15147619Y57600000D01*
X14804761Y56838096D02*
X14804761Y57638096D01*
X13357142Y56914286D02*
X13395238Y56876191D01*
X13509523Y56838096D01*
X13585714Y56838096D01*
X13700000Y56876191D01*
X13776190Y56952381D01*
X13814285Y57028572D01*
X13852380Y57180953D01*
X13852380Y57295239D01*
X13814285Y57447620D01*
X13776190Y57523810D01*
X13700000Y57600000D01*
X13585714Y57638096D01*
X13509523Y57638096D01*
X13395238Y57600000D01*
X13357142Y57561905D01*
X12633333Y56838096D02*
X13014285Y56838096D01*
X13014285Y57638096D01*
X12366666Y56838096D02*
X12366666Y57638096D01*
X11909523Y56838096D02*
X12252380Y57295239D01*
X11909523Y57638096D02*
X12366666Y57180953D01*
X10995238Y57371429D02*
X10423809Y57371429D01*
X10766666Y57714286D02*
X10995238Y56685715D01*
X10500000Y57028572D02*
X11071428Y57028572D01*
X10728571Y56685715D02*
X10500000Y57714286D01*
X9700000Y56914286D02*
X9738095Y56876191D01*
X9852380Y56838096D01*
X9928571Y56838096D01*
X10042857Y56876191D01*
X10119047Y56952381D01*
X10157142Y57028572D01*
X10195238Y57180953D01*
X10195238Y57295239D01*
X10157142Y57447620D01*
X10119047Y57523810D01*
X10042857Y57600000D01*
X9928571Y57638096D01*
X9852380Y57638096D01*
X9738095Y57600000D01*
X9700000Y57561905D01*
X9395238Y56876191D02*
X9280952Y56838096D01*
X9090476Y56838096D01*
X9014285Y56876191D01*
X8976190Y56914286D01*
X8938095Y56990477D01*
X8938095Y57066667D01*
X8976190Y57142858D01*
X9014285Y57180953D01*
X9090476Y57219048D01*
X9242857Y57257143D01*
X9319047Y57295239D01*
X9357142Y57333334D01*
X9395238Y57409524D01*
X9395238Y57485715D01*
X9357142Y57561905D01*
X9319047Y57600000D01*
X9242857Y57638096D01*
X9052380Y57638096D01*
X8938095Y57600000D01*
X8023809Y57371429D02*
X7452380Y57371429D01*
X7795238Y57714286D02*
X8023809Y56685715D01*
X7528571Y57028572D02*
X8100000Y57028572D01*
X7757142Y56685715D02*
X7528571Y57714286D01*
X6728571Y56838096D02*
X6995238Y57219048D01*
X7185714Y56838096D02*
X7185714Y57638096D01*
X6880952Y57638096D01*
X6804761Y57600000D01*
X6766666Y57561905D01*
X6728571Y57485715D01*
X6728571Y57371429D01*
X6766666Y57295239D01*
X6804761Y57257143D01*
X6880952Y57219048D01*
X7185714Y57219048D01*
X6385714Y57257143D02*
X6119047Y57257143D01*
X6004761Y56838096D02*
X6385714Y56838096D01*
X6385714Y57638096D01*
X6004761Y57638096D01*
X5700000Y56876191D02*
X5585714Y56838096D01*
X5395238Y56838096D01*
X5319047Y56876191D01*
X5280952Y56914286D01*
X5242857Y56990477D01*
X5242857Y57066667D01*
X5280952Y57142858D01*
X5319047Y57180953D01*
X5395238Y57219048D01*
X5547619Y57257143D01*
X5623809Y57295239D01*
X5661904Y57333334D01*
X5700000Y57409524D01*
X5700000Y57485715D01*
X5661904Y57561905D01*
X5623809Y57600000D01*
X5547619Y57638096D01*
X5357142Y57638096D01*
X5242857Y57600000D01*
D13*
X48823809Y18795239D02*
X48680952Y18747620D01*
X48442857Y18747620D01*
X48347619Y18795239D01*
X48300000Y18842858D01*
X48252380Y18938096D01*
X48252380Y19033334D01*
X48300000Y19128572D01*
X48347619Y19176191D01*
X48442857Y19223810D01*
X48633333Y19271429D01*
X48728571Y19319048D01*
X48776190Y19366667D01*
X48823809Y19461905D01*
X48823809Y19557143D01*
X48776190Y19652381D01*
X48728571Y19700000D01*
X48633333Y19747620D01*
X48395238Y19747620D01*
X48252380Y19700000D01*
X47823809Y18747620D02*
X47823809Y19747620D01*
X47442857Y19747620D01*
X47347619Y19700000D01*
X47300000Y19652381D01*
X47252380Y19557143D01*
X47252380Y19414286D01*
X47300000Y19319048D01*
X47347619Y19271429D01*
X47442857Y19223810D01*
X47823809Y19223810D01*
X46823809Y18747620D02*
X46823809Y19747620D01*
X39698857Y43904762D02*
X39736952Y43790477D01*
X39775047Y43752381D01*
X39851238Y43714286D01*
X39965523Y43714286D01*
X40041714Y43752381D01*
X40079809Y43790477D01*
X40117904Y43866667D01*
X40117904Y44171429D01*
X39317904Y44171429D01*
X39317904Y43904762D01*
X39356000Y43828572D01*
X39394095Y43790477D01*
X39470285Y43752381D01*
X39546476Y43752381D01*
X39622666Y43790477D01*
X39660761Y43828572D01*
X39698857Y43904762D01*
X39698857Y44171429D01*
X40079809Y43409524D02*
X40117904Y43295239D01*
X40117904Y43104762D01*
X40079809Y43028572D01*
X40041714Y42990477D01*
X39965523Y42952381D01*
X39889333Y42952381D01*
X39813142Y42990477D01*
X39775047Y43028572D01*
X39736952Y43104762D01*
X39698857Y43257143D01*
X39660761Y43333334D01*
X39622666Y43371429D01*
X39546476Y43409524D01*
X39470285Y43409524D01*
X39394095Y43371429D01*
X39356000Y43333334D01*
X39317904Y43257143D01*
X39317904Y43066667D01*
X39356000Y42952381D01*
X40117904Y42190477D02*
X40117904Y42647620D01*
X40117904Y42419048D02*
X39317904Y42419048D01*
X39432190Y42495239D01*
X39508380Y42571429D01*
X39546476Y42647620D01*
X40986857Y43904762D02*
X41024952Y43790477D01*
X41063047Y43752381D01*
X41139238Y43714286D01*
X41253523Y43714286D01*
X41329714Y43752381D01*
X41367809Y43790477D01*
X41405904Y43866667D01*
X41405904Y44171429D01*
X40605904Y44171429D01*
X40605904Y43904762D01*
X40644000Y43828572D01*
X40682095Y43790477D01*
X40758285Y43752381D01*
X40834476Y43752381D01*
X40910666Y43790477D01*
X40948761Y43828572D01*
X40986857Y43904762D01*
X40986857Y44171429D01*
X41367809Y43409524D02*
X41405904Y43295239D01*
X41405904Y43104762D01*
X41367809Y43028572D01*
X41329714Y42990477D01*
X41253523Y42952381D01*
X41177333Y42952381D01*
X41101142Y42990477D01*
X41063047Y43028572D01*
X41024952Y43104762D01*
X40986857Y43257143D01*
X40948761Y43333334D01*
X40910666Y43371429D01*
X40834476Y43409524D01*
X40758285Y43409524D01*
X40682095Y43371429D01*
X40644000Y43333334D01*
X40605904Y43257143D01*
X40605904Y43066667D01*
X40644000Y42952381D01*
X40605904Y42457143D02*
X40605904Y42380953D01*
X40644000Y42304762D01*
X40682095Y42266667D01*
X40758285Y42228572D01*
X40910666Y42190477D01*
X41101142Y42190477D01*
X41253523Y42228572D01*
X41329714Y42266667D01*
X41367809Y42304762D01*
X41405904Y42380953D01*
X41405904Y42457143D01*
X41367809Y42533334D01*
X41329714Y42571429D01*
X41253523Y42609524D01*
X41101142Y42647620D01*
X40910666Y42647620D01*
X40758285Y42609524D01*
X40682095Y42571429D01*
X40644000Y42533334D01*
X40605904Y42457143D01*
X49400000Y42833572D02*
X48638095Y42833572D01*
X48161904Y42833572D02*
X47400000Y42833572D01*
X47780952Y42452620D02*
X47780952Y43214524D01*
X49400000Y41223572D02*
X48638095Y41223572D01*
X49019047Y40842620D02*
X49019047Y41604524D01*
X48161904Y41223572D02*
X47400000Y41223572D01*
%TO.C,L1*%
X20752380Y35866667D02*
X20752380Y36342858D01*
X19752380Y36342858D01*
X20752380Y35009524D02*
X20752380Y35580953D01*
X20752380Y35295239D02*
X19752380Y35295239D01*
X19895238Y35390477D01*
X19990476Y35485715D01*
X20038095Y35580953D01*
%TO.C,R10*%
X16752380Y43442858D02*
X16276190Y43776191D01*
X16752380Y44014286D02*
X15752380Y44014286D01*
X15752380Y43633334D01*
X15800000Y43538096D01*
X15847619Y43490477D01*
X15942857Y43442858D01*
X16085714Y43442858D01*
X16180952Y43490477D01*
X16228571Y43538096D01*
X16276190Y43633334D01*
X16276190Y44014286D01*
X16752380Y42490477D02*
X16752380Y43061905D01*
X16752380Y42776191D02*
X15752380Y42776191D01*
X15895238Y42871429D01*
X15990476Y42966667D01*
X16038095Y43061905D01*
X15752380Y41871429D02*
X15752380Y41776191D01*
X15800000Y41680953D01*
X15847619Y41633334D01*
X15942857Y41585715D01*
X16133333Y41538096D01*
X16371428Y41538096D01*
X16561904Y41585715D01*
X16657142Y41633334D01*
X16704761Y41680953D01*
X16752380Y41776191D01*
X16752380Y41871429D01*
X16704761Y41966667D01*
X16657142Y42014286D01*
X16561904Y42061905D01*
X16371428Y42109524D01*
X16133333Y42109524D01*
X15942857Y42061905D01*
X15847619Y42014286D01*
X15800000Y41966667D01*
X15752380Y41871429D01*
%TO.C,R4*%
X44852380Y41266667D02*
X44376190Y41600000D01*
X44852380Y41838096D02*
X43852380Y41838096D01*
X43852380Y41457143D01*
X43900000Y41361905D01*
X43947619Y41314286D01*
X44042857Y41266667D01*
X44185714Y41266667D01*
X44280952Y41314286D01*
X44328571Y41361905D01*
X44376190Y41457143D01*
X44376190Y41838096D01*
X44185714Y40409524D02*
X44852380Y40409524D01*
X43804761Y40647620D02*
X44519047Y40885715D01*
X44519047Y40266667D01*
%TO.C,R9*%
X11852380Y44966667D02*
X11376190Y45300000D01*
X11852380Y45538096D02*
X10852380Y45538096D01*
X10852380Y45157143D01*
X10900000Y45061905D01*
X10947619Y45014286D01*
X11042857Y44966667D01*
X11185714Y44966667D01*
X11280952Y45014286D01*
X11328571Y45061905D01*
X11376190Y45157143D01*
X11376190Y45538096D01*
X11852380Y44490477D02*
X11852380Y44300000D01*
X11804761Y44204762D01*
X11757142Y44157143D01*
X11614285Y44061905D01*
X11423809Y44014286D01*
X11042857Y44014286D01*
X10947619Y44061905D01*
X10900000Y44109524D01*
X10852380Y44204762D01*
X10852380Y44395239D01*
X10900000Y44490477D01*
X10947619Y44538096D01*
X11042857Y44585715D01*
X11280952Y44585715D01*
X11376190Y44538096D01*
X11423809Y44490477D01*
X11471428Y44395239D01*
X11471428Y44204762D01*
X11423809Y44109524D01*
X11376190Y44061905D01*
X11280952Y44014286D01*
%TO.C,U1*%
X21152380Y29661905D02*
X21961904Y29661905D01*
X22057142Y29614286D01*
X22104761Y29566667D01*
X22152380Y29471429D01*
X22152380Y29280953D01*
X22104761Y29185715D01*
X22057142Y29138096D01*
X21961904Y29090477D01*
X21152380Y29090477D01*
X22152380Y28090477D02*
X22152380Y28661905D01*
X22152380Y28376191D02*
X21152380Y28376191D01*
X21295238Y28471429D01*
X21390476Y28566667D01*
X21438095Y28661905D01*
%TO.C,C3*%
X34757142Y28229167D02*
X34804761Y28276786D01*
X34852380Y28419643D01*
X34852380Y28514881D01*
X34804761Y28657739D01*
X34709523Y28752977D01*
X34614285Y28800596D01*
X34423809Y28848215D01*
X34280952Y28848215D01*
X34090476Y28800596D01*
X33995238Y28752977D01*
X33900000Y28657739D01*
X33852380Y28514881D01*
X33852380Y28419643D01*
X33900000Y28276786D01*
X33947619Y28229167D01*
X33852380Y27895834D02*
X33852380Y27276786D01*
X34233333Y27610120D01*
X34233333Y27467262D01*
X34280952Y27372024D01*
X34328571Y27324405D01*
X34423809Y27276786D01*
X34661904Y27276786D01*
X34757142Y27324405D01*
X34804761Y27372024D01*
X34852380Y27467262D01*
X34852380Y27752977D01*
X34804761Y27848215D01*
X34757142Y27895834D01*
%TO.C,R5*%
X36952380Y46066667D02*
X36476190Y46400000D01*
X36952380Y46638096D02*
X35952380Y46638096D01*
X35952380Y46257143D01*
X36000000Y46161905D01*
X36047619Y46114286D01*
X36142857Y46066667D01*
X36285714Y46066667D01*
X36380952Y46114286D01*
X36428571Y46161905D01*
X36476190Y46257143D01*
X36476190Y46638096D01*
X35952380Y45161905D02*
X35952380Y45638096D01*
X36428571Y45685715D01*
X36380952Y45638096D01*
X36333333Y45542858D01*
X36333333Y45304762D01*
X36380952Y45209524D01*
X36428571Y45161905D01*
X36523809Y45114286D01*
X36761904Y45114286D01*
X36857142Y45161905D01*
X36904761Y45209524D01*
X36952380Y45304762D01*
X36952380Y45542858D01*
X36904761Y45638096D01*
X36857142Y45685715D01*
%TO.C,D2*%
X19752380Y56438096D02*
X18752380Y56438096D01*
X18752380Y56200000D01*
X18800000Y56057143D01*
X18895238Y55961905D01*
X18990476Y55914286D01*
X19180952Y55866667D01*
X19323809Y55866667D01*
X19514285Y55914286D01*
X19609523Y55961905D01*
X19704761Y56057143D01*
X19752380Y56200000D01*
X19752380Y56438096D01*
X18847619Y55485715D02*
X18800000Y55438096D01*
X18752380Y55342858D01*
X18752380Y55104762D01*
X18800000Y55009524D01*
X18847619Y54961905D01*
X18942857Y54914286D01*
X19038095Y54914286D01*
X19180952Y54961905D01*
X19752380Y55533334D01*
X19752380Y54914286D01*
%TO.C,C4*%
X32257142Y55366667D02*
X32304761Y55414286D01*
X32352380Y55557143D01*
X32352380Y55652381D01*
X32304761Y55795239D01*
X32209523Y55890477D01*
X32114285Y55938096D01*
X31923809Y55985715D01*
X31780952Y55985715D01*
X31590476Y55938096D01*
X31495238Y55890477D01*
X31400000Y55795239D01*
X31352380Y55652381D01*
X31352380Y55557143D01*
X31400000Y55414286D01*
X31447619Y55366667D01*
X31685714Y54509524D02*
X32352380Y54509524D01*
X31304761Y54747620D02*
X32019047Y54985715D01*
X32019047Y54366667D01*
%TO.C,R13*%
X19252380Y43442858D02*
X18776190Y43776191D01*
X19252380Y44014286D02*
X18252380Y44014286D01*
X18252380Y43633334D01*
X18300000Y43538096D01*
X18347619Y43490477D01*
X18442857Y43442858D01*
X18585714Y43442858D01*
X18680952Y43490477D01*
X18728571Y43538096D01*
X18776190Y43633334D01*
X18776190Y44014286D01*
X19252380Y42490477D02*
X19252380Y43061905D01*
X19252380Y42776191D02*
X18252380Y42776191D01*
X18395238Y42871429D01*
X18490476Y42966667D01*
X18538095Y43061905D01*
X18252380Y42157143D02*
X18252380Y41538096D01*
X18633333Y41871429D01*
X18633333Y41728572D01*
X18680952Y41633334D01*
X18728571Y41585715D01*
X18823809Y41538096D01*
X19061904Y41538096D01*
X19157142Y41585715D01*
X19204761Y41633334D01*
X19252380Y41728572D01*
X19252380Y42014286D01*
X19204761Y42109524D01*
X19157142Y42157143D01*
%TO.C,D1*%
X30152380Y36238096D02*
X29152380Y36238096D01*
X29152380Y36000000D01*
X29200000Y35857143D01*
X29295238Y35761905D01*
X29390476Y35714286D01*
X29580952Y35666667D01*
X29723809Y35666667D01*
X29914285Y35714286D01*
X30009523Y35761905D01*
X30104761Y35857143D01*
X30152380Y36000000D01*
X30152380Y36238096D01*
X30152380Y34714286D02*
X30152380Y35285715D01*
X30152380Y35000000D02*
X29152380Y35000000D01*
X29295238Y35095239D01*
X29390476Y35190477D01*
X29438095Y35285715D01*
%TO.C,R1*%
X18452380Y27966667D02*
X17976190Y28300000D01*
X18452380Y28538096D02*
X17452380Y28538096D01*
X17452380Y28157143D01*
X17500000Y28061905D01*
X17547619Y28014286D01*
X17642857Y27966667D01*
X17785714Y27966667D01*
X17880952Y28014286D01*
X17928571Y28061905D01*
X17976190Y28157143D01*
X17976190Y28538096D01*
X18452380Y27014286D02*
X18452380Y27585715D01*
X18452380Y27300000D02*
X17452380Y27300000D01*
X17595238Y27395239D01*
X17690476Y27490477D01*
X17738095Y27585715D01*
%TO.C,R7*%
X29202380Y28229167D02*
X28726190Y28562500D01*
X29202380Y28800596D02*
X28202380Y28800596D01*
X28202380Y28419643D01*
X28250000Y28324405D01*
X28297619Y28276786D01*
X28392857Y28229167D01*
X28535714Y28229167D01*
X28630952Y28276786D01*
X28678571Y28324405D01*
X28726190Y28419643D01*
X28726190Y28800596D01*
X28202380Y27895834D02*
X28202380Y27229167D01*
X29202380Y27657739D01*
%TO.C,C7*%
X38032142Y35166667D02*
X38079761Y35214286D01*
X38127380Y35357143D01*
X38127380Y35452381D01*
X38079761Y35595239D01*
X37984523Y35690477D01*
X37889285Y35738096D01*
X37698809Y35785715D01*
X37555952Y35785715D01*
X37365476Y35738096D01*
X37270238Y35690477D01*
X37175000Y35595239D01*
X37127380Y35452381D01*
X37127380Y35357143D01*
X37175000Y35214286D01*
X37222619Y35166667D01*
X37127380Y34833334D02*
X37127380Y34166667D01*
X38127380Y34595239D01*
%TO.C,R2*%
X44852380Y46066667D02*
X44376190Y46400000D01*
X44852380Y46638096D02*
X43852380Y46638096D01*
X43852380Y46257143D01*
X43900000Y46161905D01*
X43947619Y46114286D01*
X44042857Y46066667D01*
X44185714Y46066667D01*
X44280952Y46114286D01*
X44328571Y46161905D01*
X44376190Y46257143D01*
X44376190Y46638096D01*
X43947619Y45685715D02*
X43900000Y45638096D01*
X43852380Y45542858D01*
X43852380Y45304762D01*
X43900000Y45209524D01*
X43947619Y45161905D01*
X44042857Y45114286D01*
X44138095Y45114286D01*
X44280952Y45161905D01*
X44852380Y45733334D01*
X44852380Y45114286D01*
%TO.C,C6*%
X8057142Y44966667D02*
X8104761Y45014286D01*
X8152380Y45157143D01*
X8152380Y45252381D01*
X8104761Y45395239D01*
X8009523Y45490477D01*
X7914285Y45538096D01*
X7723809Y45585715D01*
X7580952Y45585715D01*
X7390476Y45538096D01*
X7295238Y45490477D01*
X7200000Y45395239D01*
X7152380Y45252381D01*
X7152380Y45157143D01*
X7200000Y45014286D01*
X7247619Y44966667D01*
X7152380Y44109524D02*
X7152380Y44300000D01*
X7200000Y44395239D01*
X7247619Y44442858D01*
X7390476Y44538096D01*
X7580952Y44585715D01*
X7961904Y44585715D01*
X8057142Y44538096D01*
X8104761Y44490477D01*
X8152380Y44395239D01*
X8152380Y44204762D01*
X8104761Y44109524D01*
X8057142Y44061905D01*
X7961904Y44014286D01*
X7723809Y44014286D01*
X7628571Y44061905D01*
X7580952Y44109524D01*
X7533333Y44204762D01*
X7533333Y44395239D01*
X7580952Y44490477D01*
X7628571Y44538096D01*
X7723809Y44585715D01*
%TO.C,R11*%
X29652380Y43642858D02*
X29176190Y43976191D01*
X29652380Y44214286D02*
X28652380Y44214286D01*
X28652380Y43833334D01*
X28700000Y43738096D01*
X28747619Y43690477D01*
X28842857Y43642858D01*
X28985714Y43642858D01*
X29080952Y43690477D01*
X29128571Y43738096D01*
X29176190Y43833334D01*
X29176190Y44214286D01*
X29652380Y42690477D02*
X29652380Y43261905D01*
X29652380Y42976191D02*
X28652380Y42976191D01*
X28795238Y43071429D01*
X28890476Y43166667D01*
X28938095Y43261905D01*
X29652380Y41738096D02*
X29652380Y42309524D01*
X29652380Y42023810D02*
X28652380Y42023810D01*
X28795238Y42119048D01*
X28890476Y42214286D01*
X28938095Y42309524D01*
%TO.C,C2*%
X18257142Y24366667D02*
X18304761Y24414286D01*
X18352380Y24557143D01*
X18352380Y24652381D01*
X18304761Y24795239D01*
X18209523Y24890477D01*
X18114285Y24938096D01*
X17923809Y24985715D01*
X17780952Y24985715D01*
X17590476Y24938096D01*
X17495238Y24890477D01*
X17400000Y24795239D01*
X17352380Y24652381D01*
X17352380Y24557143D01*
X17400000Y24414286D01*
X17447619Y24366667D01*
X17447619Y23985715D02*
X17400000Y23938096D01*
X17352380Y23842858D01*
X17352380Y23604762D01*
X17400000Y23509524D01*
X17447619Y23461905D01*
X17542857Y23414286D01*
X17638095Y23414286D01*
X17780952Y23461905D01*
X18352380Y24033334D01*
X18352380Y23414286D01*
%TO.C,R6*%
X36952380Y41266667D02*
X36476190Y41600000D01*
X36952380Y41838096D02*
X35952380Y41838096D01*
X35952380Y41457143D01*
X36000000Y41361905D01*
X36047619Y41314286D01*
X36142857Y41266667D01*
X36285714Y41266667D01*
X36380952Y41314286D01*
X36428571Y41361905D01*
X36476190Y41457143D01*
X36476190Y41838096D01*
X35952380Y40409524D02*
X35952380Y40600000D01*
X36000000Y40695239D01*
X36047619Y40742858D01*
X36190476Y40838096D01*
X36380952Y40885715D01*
X36761904Y40885715D01*
X36857142Y40838096D01*
X36904761Y40790477D01*
X36952380Y40695239D01*
X36952380Y40504762D01*
X36904761Y40409524D01*
X36857142Y40361905D01*
X36761904Y40314286D01*
X36523809Y40314286D01*
X36428571Y40361905D01*
X36380952Y40409524D01*
X36333333Y40504762D01*
X36333333Y40695239D01*
X36380952Y40790477D01*
X36428571Y40838096D01*
X36523809Y40885715D01*
%TO.C,R8*%
X30302380Y24866667D02*
X29826190Y25200000D01*
X30302380Y25438096D02*
X29302380Y25438096D01*
X29302380Y25057143D01*
X29350000Y24961905D01*
X29397619Y24914286D01*
X29492857Y24866667D01*
X29635714Y24866667D01*
X29730952Y24914286D01*
X29778571Y24961905D01*
X29826190Y25057143D01*
X29826190Y25438096D01*
X29730952Y24295239D02*
X29683333Y24390477D01*
X29635714Y24438096D01*
X29540476Y24485715D01*
X29492857Y24485715D01*
X29397619Y24438096D01*
X29350000Y24390477D01*
X29302380Y24295239D01*
X29302380Y24104762D01*
X29350000Y24009524D01*
X29397619Y23961905D01*
X29492857Y23914286D01*
X29540476Y23914286D01*
X29635714Y23961905D01*
X29683333Y24009524D01*
X29730952Y24104762D01*
X29730952Y24295239D01*
X29778571Y24390477D01*
X29826190Y24438096D01*
X29921428Y24485715D01*
X30111904Y24485715D01*
X30207142Y24438096D01*
X30254761Y24390477D01*
X30302380Y24295239D01*
X30302380Y24104762D01*
X30254761Y24009524D01*
X30207142Y23961905D01*
X30111904Y23914286D01*
X29921428Y23914286D01*
X29826190Y23961905D01*
X29778571Y24009524D01*
X29730952Y24104762D01*
%TO.C,R12*%
X25652380Y43542858D02*
X25176190Y43876191D01*
X25652380Y44114286D02*
X24652380Y44114286D01*
X24652380Y43733334D01*
X24700000Y43638096D01*
X24747619Y43590477D01*
X24842857Y43542858D01*
X24985714Y43542858D01*
X25080952Y43590477D01*
X25128571Y43638096D01*
X25176190Y43733334D01*
X25176190Y44114286D01*
X25652380Y42590477D02*
X25652380Y43161905D01*
X25652380Y42876191D02*
X24652380Y42876191D01*
X24795238Y42971429D01*
X24890476Y43066667D01*
X24938095Y43161905D01*
X24747619Y42209524D02*
X24700000Y42161905D01*
X24652380Y42066667D01*
X24652380Y41828572D01*
X24700000Y41733334D01*
X24747619Y41685715D01*
X24842857Y41638096D01*
X24938095Y41638096D01*
X25080952Y41685715D01*
X25652380Y42257143D01*
X25652380Y41638096D01*
%TO.C,R14*%
X22452380Y43442858D02*
X21976190Y43776191D01*
X22452380Y44014286D02*
X21452380Y44014286D01*
X21452380Y43633334D01*
X21500000Y43538096D01*
X21547619Y43490477D01*
X21642857Y43442858D01*
X21785714Y43442858D01*
X21880952Y43490477D01*
X21928571Y43538096D01*
X21976190Y43633334D01*
X21976190Y44014286D01*
X22452380Y42490477D02*
X22452380Y43061905D01*
X22452380Y42776191D02*
X21452380Y42776191D01*
X21595238Y42871429D01*
X21690476Y42966667D01*
X21738095Y43061905D01*
X21785714Y41633334D02*
X22452380Y41633334D01*
X21404761Y41871429D02*
X22119047Y42109524D01*
X22119047Y41490477D01*
%TO.C,C5*%
X27157142Y56529167D02*
X27204761Y56576786D01*
X27252380Y56719643D01*
X27252380Y56814881D01*
X27204761Y56957739D01*
X27109523Y57052977D01*
X27014285Y57100596D01*
X26823809Y57148215D01*
X26680952Y57148215D01*
X26490476Y57100596D01*
X26395238Y57052977D01*
X26300000Y56957739D01*
X26252380Y56814881D01*
X26252380Y56719643D01*
X26300000Y56576786D01*
X26347619Y56529167D01*
X26252380Y55624405D02*
X26252380Y56100596D01*
X26728571Y56148215D01*
X26680952Y56100596D01*
X26633333Y56005358D01*
X26633333Y55767262D01*
X26680952Y55672024D01*
X26728571Y55624405D01*
X26823809Y55576786D01*
X27061904Y55576786D01*
X27157142Y55624405D01*
X27204761Y55672024D01*
X27252380Y55767262D01*
X27252380Y56005358D01*
X27204761Y56100596D01*
X27157142Y56148215D01*
%TO.C,C1*%
X18257142Y31666667D02*
X18304761Y31714286D01*
X18352380Y31857143D01*
X18352380Y31952381D01*
X18304761Y32095239D01*
X18209523Y32190477D01*
X18114285Y32238096D01*
X17923809Y32285715D01*
X17780952Y32285715D01*
X17590476Y32238096D01*
X17495238Y32190477D01*
X17400000Y32095239D01*
X17352380Y31952381D01*
X17352380Y31857143D01*
X17400000Y31714286D01*
X17447619Y31666667D01*
X18352380Y30714286D02*
X18352380Y31285715D01*
X18352380Y31000000D02*
X17352380Y31000000D01*
X17495238Y31095239D01*
X17590476Y31190477D01*
X17638095Y31285715D01*
D10*
%TO.C,L1*%
X28000000Y36400000D02*
X28000000Y35950000D01*
X21800000Y36400000D02*
X21800000Y35950000D01*
X21800000Y30200000D02*
X28000000Y30200000D01*
X21800000Y30200000D02*
X21800000Y30650000D01*
X28000000Y36400000D02*
X21800000Y36400000D01*
X28000000Y30200000D02*
X28000000Y30650000D01*
%TO.C,R10*%
X15590000Y48021078D02*
X15590000Y47503922D01*
X17010000Y48021078D02*
X17010000Y47503922D01*
%TO.C,R4*%
X43210000Y41958578D02*
X43210000Y41441422D01*
X41790000Y41958578D02*
X41790000Y41441422D01*
%TO.C,R9*%
X10690000Y48258578D02*
X10690000Y47741422D01*
X12110000Y48258578D02*
X12110000Y47741422D01*
%TO.C,U1*%
X25380000Y26040000D02*
X23620000Y26040000D01*
X23620000Y29110000D02*
X26050000Y29110000D01*
%TO.C,C3*%
X31990000Y28321078D02*
X31990000Y27803922D01*
X33410000Y28321078D02*
X33410000Y27803922D01*
%TO.C,R5*%
X37490000Y45358578D02*
X37490000Y44841422D01*
X38910000Y45358578D02*
X38910000Y44841422D01*
%TO.C,D2*%
X25050000Y56700000D02*
X25050000Y54700000D01*
X25050000Y54700000D02*
X20750000Y54700000D01*
X20750000Y56700000D02*
X25050000Y56700000D01*
%TO.C,C4*%
X29590000Y56103922D02*
X29590000Y56621078D01*
X31010000Y56103922D02*
X31010000Y56621078D01*
%TO.C,R13*%
X18190000Y47503922D02*
X18190000Y48021078D01*
X19610000Y47503922D02*
X19610000Y48021078D01*
%TO.C,D1*%
X36100000Y34950000D02*
X36100000Y31650000D01*
X36100000Y34950000D02*
X30700000Y34950000D01*
X36100000Y31650000D02*
X30700000Y31650000D01*
%TO.C,R1*%
X18990000Y28058578D02*
X18990000Y27541422D01*
X20410000Y28058578D02*
X20410000Y27541422D01*
%TO.C,R7*%
X31110000Y28321078D02*
X31110000Y27803922D01*
X29690000Y28321078D02*
X29690000Y27803922D01*
%TO.C,C7*%
X38360000Y32583578D02*
X38360000Y32066422D01*
X36940000Y32583578D02*
X36940000Y32066422D01*
%TO.C,R2*%
X43210000Y45396078D02*
X43210000Y44878922D01*
X41790000Y45396078D02*
X41790000Y44878922D01*
%TO.C,C6*%
X8410000Y48321078D02*
X8410000Y47803922D01*
X6990000Y48321078D02*
X6990000Y47803922D01*
%TO.C,R11*%
X28490000Y47921078D02*
X28490000Y47403922D01*
X29910000Y47921078D02*
X29910000Y47403922D01*
%TO.C,C2*%
X18990000Y24558578D02*
X18990000Y24041422D01*
X20410000Y24558578D02*
X20410000Y24041422D01*
%TO.C,R6*%
X37565000Y42021078D02*
X37565000Y41503922D01*
X38985000Y42021078D02*
X38985000Y41503922D01*
%TO.C,R8*%
X30790000Y24958578D02*
X30790000Y24441422D01*
X32210000Y24958578D02*
X32210000Y24441422D01*
%TO.C,R12*%
X25910000Y48058578D02*
X25910000Y47541422D01*
X24490000Y48058578D02*
X24490000Y47541422D01*
%TO.C,R14*%
X21290000Y47503922D02*
X21290000Y48021078D01*
X22710000Y47503922D02*
X22710000Y48021078D01*
%TO.C,C5*%
X27590000Y56103922D02*
X27590000Y56621078D01*
X29010000Y56103922D02*
X29010000Y56621078D01*
%TO.C,C1*%
X20410000Y31203922D02*
X20410000Y31721078D01*
X18990000Y31203922D02*
X18990000Y31721078D01*
%TD*%
M02*
