  0
SECTION
  2
HEADER
  9
$ANGBASE
  50
0.0
  9
$ANGDIR
  70
1
  9
$MEASUREMENT
  70
0
  0
ENDSEC
  0
SECTION
  2
TABLES
  0
TABLE
  2
LTYPE
  70
4
  0
LTYPE
  5
40F
  2
CONTINUOUS
  70
0
  3
Solid line
  72
65
  73
0
  40
0.0
  0
LTYPE
  5
410
  2
DASHDOT
 70
0
  3
Dash Dot ____ _ ____ _
 72
65
 73
4
 40
2.0
 49
1.25
 49
-0.25
 49
0.25
 49
-0.25
  0
LTYPE
  5
411
  2
DASHED
 70
0
  3
Dashed __ __ __ __ __
 72
65
 73
2
 40
0.75
 49
0.5
 49
-0.25
  0
LTYPE
  5
43B
  2
DOTTED
 70
0
  3
Dotted .  .  .  .
 72
65
 73
2
 40
0.2
 49
0.0
 49
-0.2
  0
ENDTAB
  0
TABLE
  2
STYLE
  70
4
  0
STYLE
  2
KICAD
  70
0
  40
0
  41
1
  42
1
  50
0
  71
0
  3
isocp.shx
  0
STYLE
  2
KICADB
  70
0
  40
0
  41
1
  42
1
  50
0
  71
0
  3
isocp.shx
  0
STYLE
  2
KICADI
  70
0
  40
0
  41
1
  42
1
  50
15
  71
0
  3
isocp.shx
  0
STYLE
  2
KICADBI
  70
0
  40
0
  41
1
  42
1
  50
15
  71
0
  3
isocp.shx
  0
ENDTAB
  0
TABLE
  2
LAYER
  70
1
  0
LAYER
  2
BLACK
  70
0
  62
7
  6
CONTINUOUS
  0
ENDTAB
  0
ENDSEC
  0
SECTION
  2
ENTITIES
0
LINE
8
BLACK
6
CONTINUOUS
10
0.0086502
20
0.117793
11
0.0221317
21
0.116018
0
LINE
8
BLACK
6
CONTINUOUS
10
0.0221317
20
0.116018
11
0.0353198
21
0.112706
0
LINE
8
BLACK
6
CONTINUOUS
10
0.0353198
20
0.112706
11
0.0480398
21
0.107899
0
LINE
8
BLACK
6
CONTINUOUS
10
0.0480398
20
0.107899
11
0.060123
21
0.101662
0
LINE
8
BLACK
6
CONTINUOUS
10
0.060123
20
0.101662
11
0.0714093
21
0.0940783
0
LINE
8
BLACK
6
CONTINUOUS
10
0.0714093
20
0.0940783
11
0.0817492
21
0.0852473
0
LINE
8
BLACK
6
CONTINUOUS
10
0.0817492
20
0.0852473
11
0.0910055
21
0.0752863
0
LINE
8
BLACK
6
CONTINUOUS
10
0.0910055
20
0.0752863
11
0.0990556
21
0.0643274
0
LINE
8
BLACK
6
CONTINUOUS
10
0.0990556
20
0.0643274
11
0.105793
21
0.052516
0
LINE
8
BLACK
6
CONTINUOUS
10
0.105793
20
0.052516
11
0.111128
21
0.0400084
0
LINE
8
BLACK
6
CONTINUOUS
10
0.111128
20
0.0400084
11
0.11499
21
0.0269706
0
LINE
8
BLACK
6
CONTINUOUS
10
0.11499
20
0.0269706
11
0.117327
21
0.0135752
0
LINE
8
BLACK
6
CONTINUOUS
10
0.117327
20
0.0135752
11
0.11811
21
0
0
LINE
8
BLACK
6
CONTINUOUS
10
0.11811
20
0
11
0.117877
21
-0.00741622
0
LINE
8
BLACK
6
CONTINUOUS
10
0.117877
20
-0.00741622
11
0.116244
21
-0.0209155
0
LINE
8
BLACK
6
CONTINUOUS
10
0.116244
20
-0.0209155
11
0.113069
21
-0.0341376
0
LINE
8
BLACK
6
CONTINUOUS
10
0.113069
20
-0.0341376
11
0.108396
21
-0.0469072
0
LINE
8
BLACK
6
CONTINUOUS
10
0.108396
20
-0.0469072
11
0.102286
21
-0.0590551
0
LINE
8
BLACK
6
CONTINUOUS
10
0.102286
20
-0.0590551
11
0.0948209
21
-0.0704203
0
LINE
8
BLACK
6
CONTINUOUS
10
0.0948209
20
-0.0704203
11
0.0860987
21
-0.080852
0
LINE
8
BLACK
6
CONTINUOUS
10
0.0860987
20
-0.080852
11
0.0762352
21
-0.0902121
0
LINE
8
BLACK
6
CONTINUOUS
10
0.0762352
20
-0.0902121
11
0.0653612
21
-0.0983765
0
LINE
8
BLACK
6
CONTINUOUS
10
0.0653612
20
-0.0983765
11
0.0536209
21
-0.105237
0
LINE
8
BLACK
6
CONTINUOUS
10
0.0536209
20
-0.105237
11
0.0411699
21
-0.110703
0
LINE
8
BLACK
6
CONTINUOUS
10
0.0411699
20
-0.110703
11
0.0281732
21
-0.114701
0
LINE
8
BLACK
6
CONTINUOUS
10
0.0281732
20
-0.114701
11
0.0148031
21
-0.117179
0
LINE
8
BLACK
6
CONTINUOUS
10
0.0148031
20
-0.117179
11
0.00123681
21
-0.118104
0
LINE
8
BLACK
6
CONTINUOUS
10
0.00123681
20
-0.118104
11
-0.0123459
21
-0.117463
0
LINE
8
BLACK
6
CONTINUOUS
10
-0.0123459
20
-0.117463
11
-0.025765
21
-0.115266
0
LINE
8
BLACK
6
CONTINUOUS
10
-0.025765
20
-0.115266
11
-0.0388425
21
-0.111541
0
LINE
8
BLACK
6
CONTINUOUS
10
-0.0388425
20
-0.111541
11
-0.0514052
21
-0.106337
0
LINE
8
BLACK
6
CONTINUOUS
10
-0.0514052
20
-0.106337
11
-0.0632866
21
-0.0997238
0
LINE
8
BLACK
6
CONTINUOUS
10
-0.0632866
20
-0.0997238
11
-0.0743292
21
-0.0917889
0
LINE
8
BLACK
6
CONTINUOUS
10
-0.0743292
20
-0.0917889
11
-0.0843865
21
-0.0826374
0
LINE
8
BLACK
6
CONTINUOUS
10
-0.0843865
20
-0.0826374
11
-0.0933254
21
-0.0723906
0
LINE
8
BLACK
6
CONTINUOUS
10
-0.0933254
20
-0.0723906
11
-0.101027
21
-0.0611843
0
LINE
8
BLACK
6
CONTINUOUS
10
-0.101027
20
-0.0611843
11
-0.10739
21
-0.049167
0
LINE
8
BLACK
6
CONTINUOUS
10
-0.10739
20
-0.049167
11
-0.11233
21
-0.0364981
0
LINE
8
BLACK
6
CONTINUOUS
10
-0.11233
20
-0.0364981
11
-0.11578
21
-0.0233454
0
LINE
8
BLACK
6
CONTINUOUS
10
-0.11578
20
-0.0233454
11
-0.117696
21
-0.00988323
0
LINE
8
BLACK
6
CONTINUOUS
10
-0.117696
20
-0.00988323
11
-0.118052
21
0.00370992
0
LINE
8
BLACK
6
CONTINUOUS
10
-0.118052
20
0.00370992
11
-0.116843
21
0.0172539
0
LINE
8
BLACK
6
CONTINUOUS
10
-0.116843
20
0.0172539
11
-0.114086
21
0.0305692
0
LINE
8
BLACK
6
CONTINUOUS
10
-0.114086
20
0.0305692
11
-0.109816
21
0.0434793
0
LINE
8
BLACK
6
CONTINUOUS
10
-0.109816
20
0.0434793
11
-0.104091
21
0.0558131
0
LINE
8
BLACK
6
CONTINUOUS
10
-0.104091
20
0.0558131
11
-0.0969861
21
0.0674071
0
LINE
8
BLACK
6
CONTINUOUS
10
-0.0969861
20
0.0674071
11
-0.0885958
21
0.0781077
0
LINE
8
BLACK
6
CONTINUOUS
10
-0.0885958
20
0.0781077
11
-0.0790312
21
0.087773
0
LINE
8
BLACK
6
CONTINUOUS
10
-0.0790312
20
0.087773
11
-0.0684191
21
0.0962749
0
LINE
8
BLACK
6
CONTINUOUS
10
-0.0684191
20
0.0962749
11
-0.0569
21
0.103501
0
LINE
8
BLACK
6
CONTINUOUS
10
-0.0569
20
0.103501
11
-0.0446269
21
0.109355
0
LINE
8
BLACK
6
CONTINUOUS
10
-0.0446269
20
0.109355
11
-0.0317622
21
0.113759
0
LINE
8
BLACK
6
CONTINUOUS
10
-0.0317622
20
0.113759
11
-0.0184765
21
0.116656
0
LINE
8
BLACK
6
CONTINUOUS
10
-0.0184765
20
0.116656
11
-0.00494594
21
0.118007
0
LINE
8
BLACK
6
CONTINUOUS
10
-0.00494594
20
0.118007
11
0.0086502
21
0.117793
0
LINE
8
BLACK
6
CONTINUOUS
10
2.00865
20
0.117793
11
2.02213
21
0.116018
0
LINE
8
BLACK
6
CONTINUOUS
10
2.02213
20
0.116018
11
2.03532
21
0.112706
0
LINE
8
BLACK
6
CONTINUOUS
10
2.03532
20
0.112706
11
2.04804
21
0.107899
0
LINE
8
BLACK
6
CONTINUOUS
10
2.04804
20
0.107899
11
2.06012
21
0.101662
0
LINE
8
BLACK
6
CONTINUOUS
10
2.06012
20
0.101662
11
2.07141
21
0.0940783
0
LINE
8
BLACK
6
CONTINUOUS
10
2.07141
20
0.0940783
11
2.08175
21
0.0852473
0
LINE
8
BLACK
6
CONTINUOUS
10
2.08175
20
0.0852473
11
2.09101
21
0.0752863
0
LINE
8
BLACK
6
CONTINUOUS
10
2.09101
20
0.0752863
11
2.09906
21
0.0643274
0
LINE
8
BLACK
6
CONTINUOUS
10
2.09906
20
0.0643274
11
2.10579
21
0.052516
0
LINE
8
BLACK
6
CONTINUOUS
10
2.10579
20
0.052516
11
2.11113
21
0.0400084
0
LINE
8
BLACK
6
CONTINUOUS
10
2.11113
20
0.0400084
11
2.11499
21
0.0269706
0
LINE
8
BLACK
6
CONTINUOUS
10
2.11499
20
0.0269706
11
2.11733
21
0.0135752
0
LINE
8
BLACK
6
CONTINUOUS
10
2.11733
20
0.0135752
11
2.11811
21
0
0
LINE
8
BLACK
6
CONTINUOUS
10
2.11811
20
0
11
2.11788
21
-0.00741622
0
LINE
8
BLACK
6
CONTINUOUS
10
2.11788
20
-0.00741622
11
2.11624
21
-0.0209155
0
LINE
8
BLACK
6
CONTINUOUS
10
2.11624
20
-0.0209155
11
2.11307
21
-0.0341376
0
LINE
8
BLACK
6
CONTINUOUS
10
2.11307
20
-0.0341376
11
2.1084
21
-0.0469072
0
LINE
8
BLACK
6
CONTINUOUS
10
2.1084
20
-0.0469072
11
2.10229
21
-0.0590551
0
LINE
8
BLACK
6
CONTINUOUS
10
2.10229
20
-0.0590551
11
2.09482
21
-0.0704203
0
LINE
8
BLACK
6
CONTINUOUS
10
2.09482
20
-0.0704203
11
2.0861
21
-0.080852
0
LINE
8
BLACK
6
CONTINUOUS
10
2.0861
20
-0.080852
11
2.07624
21
-0.0902121
0
LINE
8
BLACK
6
CONTINUOUS
10
2.07624
20
-0.0902121
11
2.06536
21
-0.0983765
0
LINE
8
BLACK
6
CONTINUOUS
10
2.06536
20
-0.0983765
11
2.05362
21
-0.105237
0
LINE
8
BLACK
6
CONTINUOUS
10
2.05362
20
-0.105237
11
2.04117
21
-0.110703
0
LINE
8
BLACK
6
CONTINUOUS
10
2.04117
20
-0.110703
11
2.02817
21
-0.114701
0
LINE
8
BLACK
6
CONTINUOUS
10
2.02817
20
-0.114701
11
2.0148
21
-0.117179
0
LINE
8
BLACK
6
CONTINUOUS
10
2.0148
20
-0.117179
11
2.00124
21
-0.118104
0
LINE
8
BLACK
6
CONTINUOUS
10
2.00124
20
-0.118104
11
1.98765
21
-0.117463
0
LINE
8
BLACK
6
CONTINUOUS
10
1.98765
20
-0.117463
11
1.97424
21
-0.115266
0
LINE
8
BLACK
6
CONTINUOUS
10
1.97424
20
-0.115266
11
1.96116
21
-0.111541
0
LINE
8
BLACK
6
CONTINUOUS
10
1.96116
20
-0.111541
11
1.94859
21
-0.106337
0
LINE
8
BLACK
6
CONTINUOUS
10
1.94859
20
-0.106337
11
1.93671
21
-0.0997238
0
LINE
8
BLACK
6
CONTINUOUS
10
1.93671
20
-0.0997238
11
1.92567
21
-0.0917889
0
LINE
8
BLACK
6
CONTINUOUS
10
1.92567
20
-0.0917889
11
1.91561
21
-0.0826374
0
LINE
8
BLACK
6
CONTINUOUS
10
1.91561
20
-0.0826374
11
1.90667
21
-0.0723906
0
LINE
8
BLACK
6
CONTINUOUS
10
1.90667
20
-0.0723906
11
1.89897
21
-0.0611843
0
LINE
8
BLACK
6
CONTINUOUS
10
1.89897
20
-0.0611843
11
1.89261
21
-0.049167
0
LINE
8
BLACK
6
CONTINUOUS
10
1.89261
20
-0.049167
11
1.88767
21
-0.0364981
0
LINE
8
BLACK
6
CONTINUOUS
10
1.88767
20
-0.0364981
11
1.88422
21
-0.0233454
0
LINE
8
BLACK
6
CONTINUOUS
10
1.88422
20
-0.0233454
11
1.8823
21
-0.00988323
0
LINE
8
BLACK
6
CONTINUOUS
10
1.8823
20
-0.00988323
11
1.88195
21
0.00370992
0
LINE
8
BLACK
6
CONTINUOUS
10
1.88195
20
0.00370992
11
1.88316
21
0.0172539
0
LINE
8
BLACK
6
CONTINUOUS
10
1.88316
20
0.0172539
11
1.88591
21
0.0305692
0
LINE
8
BLACK
6
CONTINUOUS
10
1.88591
20
0.0305692
11
1.89018
21
0.0434793
0
LINE
8
BLACK
6
CONTINUOUS
10
1.89018
20
0.0434793
11
1.89591
21
0.0558131
0
LINE
8
BLACK
6
CONTINUOUS
10
1.89591
20
0.0558131
11
1.90301
21
0.0674071
0
LINE
8
BLACK
6
CONTINUOUS
10
1.90301
20
0.0674071
11
1.9114
21
0.0781077
0
LINE
8
BLACK
6
CONTINUOUS
10
1.9114
20
0.0781077
11
1.92097
21
0.087773
0
LINE
8
BLACK
6
CONTINUOUS
10
1.92097
20
0.087773
11
1.93158
21
0.0962749
0
LINE
8
BLACK
6
CONTINUOUS
10
1.93158
20
0.0962749
11
1.9431
21
0.103501
0
LINE
8
BLACK
6
CONTINUOUS
10
1.9431
20
0.103501
11
1.95537
21
0.109355
0
LINE
8
BLACK
6
CONTINUOUS
10
1.95537
20
0.109355
11
1.96824
21
0.113759
0
LINE
8
BLACK
6
CONTINUOUS
10
1.96824
20
0.113759
11
1.98152
21
0.116656
0
LINE
8
BLACK
6
CONTINUOUS
10
1.98152
20
0.116656
11
1.99505
21
0.118007
0
LINE
8
BLACK
6
CONTINUOUS
10
1.99505
20
0.118007
11
2.00865
21
0.117793
0
LINE
8
BLACK
6
CONTINUOUS
10
0.076063
20
0.304646
11
0.016063
21
0.304646
0
LINE
8
BLACK
6
CONTINUOUS
10
0.016063
20
0.304646
11
0.016063
21
0.364646
0
LINE
8
BLACK
6
CONTINUOUS
10
0.016063
20
0.364646
11
0.076063
21
0.364646
0
LINE
8
BLACK
6
CONTINUOUS
10
0.076063
20
0.364646
11
0.076063
21
0.304646
0
LINE
8
BLACK
6
CONTINUOUS
10
0.176063
20
0.304646
11
0.116063
21
0.304646
0
LINE
8
BLACK
6
CONTINUOUS
10
0.116063
20
0.304646
11
0.116063
21
0.364646
0
LINE
8
BLACK
6
CONTINUOUS
10
0.116063
20
0.364646
11
0.176063
21
0.364646
0
LINE
8
BLACK
6
CONTINUOUS
10
0.176063
20
0.364646
11
0.176063
21
0.304646
0
LINE
8
BLACK
6
CONTINUOUS
10
0.276063
20
0.304646
11
0.216063
21
0.304646
0
LINE
8
BLACK
6
CONTINUOUS
10
0.216063
20
0.304646
11
0.216063
21
0.364646
0
LINE
8
BLACK
6
CONTINUOUS
10
0.216063
20
0.364646
11
0.276063
21
0.364646
0
LINE
8
BLACK
6
CONTINUOUS
10
0.276063
20
0.364646
11
0.276063
21
0.304646
0
LINE
8
BLACK
6
CONTINUOUS
10
1.77606
20
0.304646
11
1.71606
21
0.304646
0
LINE
8
BLACK
6
CONTINUOUS
10
1.71606
20
0.304646
11
1.71606
21
0.364646
0
LINE
8
BLACK
6
CONTINUOUS
10
1.71606
20
0.364646
11
1.77606
21
0.364646
0
LINE
8
BLACK
6
CONTINUOUS
10
1.77606
20
0.364646
11
1.77606
21
0.304646
0
LINE
8
BLACK
6
CONTINUOUS
10
1.87606
20
0.304646
11
1.81606
21
0.304646
0
LINE
8
BLACK
6
CONTINUOUS
10
1.81606
20
0.304646
11
1.81606
21
0.364646
0
LINE
8
BLACK
6
CONTINUOUS
10
1.81606
20
0.364646
11
1.87606
21
0.364646
0
LINE
8
BLACK
6
CONTINUOUS
10
1.87606
20
0.364646
11
1.87606
21
0.304646
0
LINE
8
BLACK
6
CONTINUOUS
10
1.97606
20
0.304646
11
1.91606
21
0.304646
0
LINE
8
BLACK
6
CONTINUOUS
10
1.91606
20
0.304646
11
1.91606
21
0.364646
0
LINE
8
BLACK
6
CONTINUOUS
10
1.91606
20
0.364646
11
1.97606
21
0.364646
0
LINE
8
BLACK
6
CONTINUOUS
10
1.97606
20
0.364646
11
1.97606
21
0.304646
0
LINE
8
BLACK
6
CONTINUOUS
10
1.19093
20
0.975155
11
1.19404
21
0.973075
0
LINE
8
BLACK
6
CONTINUOUS
10
1.19404
20
0.973075
11
1.19612
21
0.969962
0
LINE
8
BLACK
6
CONTINUOUS
10
1.19612
20
0.969962
11
1.19685
21
0.966289
0
LINE
8
BLACK
6
CONTINUOUS
10
1.19685
20
0.966289
11
1.19685
21
0.947096
0
LINE
8
BLACK
6
CONTINUOUS
10
1.19685
20
0.947096
11
1.19612
21
0.943424
0
LINE
8
BLACK
6
CONTINUOUS
10
1.19612
20
0.943424
11
1.19404
21
0.940311
0
LINE
8
BLACK
6
CONTINUOUS
10
1.19404
20
0.940311
11
1.19093
21
0.93823
0
LINE
8
BLACK
6
CONTINUOUS
10
1.19093
20
0.93823
11
1.18725
21
0.9375
0
LINE
8
BLACK
6
CONTINUOUS
10
1.18725
20
0.9375
11
1.15133
21
0.9375
0
LINE
8
BLACK
6
CONTINUOUS
10
1.15133
20
0.9375
11
1.14766
21
0.93823
0
LINE
8
BLACK
6
CONTINUOUS
10
1.14766
20
0.93823
11
1.14454
21
0.940311
0
LINE
8
BLACK
6
CONTINUOUS
10
1.14454
20
0.940311
11
1.14246
21
0.943424
0
LINE
8
BLACK
6
CONTINUOUS
10
1.14246
20
0.943424
11
1.14173
21
0.947096
0
LINE
8
BLACK
6
CONTINUOUS
10
1.14173
20
0.947096
11
1.14173
21
0.966289
0
LINE
8
BLACK
6
CONTINUOUS
10
1.14173
20
0.966289
11
1.14246
21
0.969962
0
LINE
8
BLACK
6
CONTINUOUS
10
1.14246
20
0.969962
11
1.14454
21
0.973075
0
LINE
8
BLACK
6
CONTINUOUS
10
1.14454
20
0.973075
11
1.14766
21
0.975155
0
LINE
8
BLACK
6
CONTINUOUS
10
1.14766
20
0.975155
11
1.15133
21
0.975886
0
LINE
8
BLACK
6
CONTINUOUS
10
1.15133
20
0.975886
11
1.18725
21
0.975886
0
LINE
8
BLACK
6
CONTINUOUS
10
1.18725
20
0.975886
11
1.19093
21
0.975155
0
LINE
8
BLACK
6
CONTINUOUS
10
0.902546
20
1.00222
11
0.876955
21
1.00222
0
LINE
8
BLACK
6
CONTINUOUS
10
0.876955
20
1.00222
11
0.876955
21
1.05025
0
LINE
8
BLACK
6
CONTINUOUS
10
0.876955
20
1.05025
11
0.902546
21
1.05025
0
LINE
8
BLACK
6
CONTINUOUS
10
0.902546
20
1.05025
11
0.902546
21
1.00222
0
LINE
8
BLACK
6
CONTINUOUS
10
0.939947
20
1.00222
11
0.914357
21
1.00222
0
LINE
8
BLACK
6
CONTINUOUS
10
0.914357
20
1.00222
11
0.914357
21
1.05025
0
LINE
8
BLACK
6
CONTINUOUS
10
0.914357
20
1.05025
11
0.939947
21
1.05025
0
LINE
8
BLACK
6
CONTINUOUS
10
0.939947
20
1.05025
11
0.939947
21
1.00222
0
LINE
8
BLACK
6
CONTINUOUS
10
0.977349
20
1.00222
11
0.951758
21
1.00222
0
LINE
8
BLACK
6
CONTINUOUS
10
0.951758
20
1.00222
11
0.951758
21
1.05025
0
LINE
8
BLACK
6
CONTINUOUS
10
0.951758
20
1.05025
11
0.977349
21
1.05025
0
LINE
8
BLACK
6
CONTINUOUS
10
0.977349
20
1.05025
11
0.977349
21
1.00222
0
LINE
8
BLACK
6
CONTINUOUS
10
1.19093
20
1.04897
11
1.19404
21
1.04689
0
LINE
8
BLACK
6
CONTINUOUS
10
1.19404
20
1.04689
11
1.19612
21
1.04378
0
LINE
8
BLACK
6
CONTINUOUS
10
1.19612
20
1.04378
11
1.19685
21
1.04011
0
LINE
8
BLACK
6
CONTINUOUS
10
1.19685
20
1.04011
11
1.19685
21
1.02092
0
LINE
8
BLACK
6
CONTINUOUS
10
1.19685
20
1.02092
11
1.19612
21
1.01724
0
LINE
8
BLACK
6
CONTINUOUS
10
1.19612
20
1.01724
11
1.19404
21
1.01413
0
LINE
8
BLACK
6
CONTINUOUS
10
1.19404
20
1.01413
11
1.19093
21
1.01205
0
LINE
8
BLACK
6
CONTINUOUS
10
1.19093
20
1.01205
11
1.18725
21
1.01132
0
LINE
8
BLACK
6
CONTINUOUS
10
1.18725
20
1.01132
11
1.15133
21
1.01132
0
LINE
8
BLACK
6
CONTINUOUS
10
1.15133
20
1.01132
11
1.14766
21
1.01205
0
LINE
8
BLACK
6
CONTINUOUS
10
1.14766
20
1.01205
11
1.14454
21
1.01413
0
LINE
8
BLACK
6
CONTINUOUS
10
1.14454
20
1.01413
11
1.14246
21
1.01724
0
LINE
8
BLACK
6
CONTINUOUS
10
1.14246
20
1.01724
11
1.14173
21
1.02092
0
LINE
8
BLACK
6
CONTINUOUS
10
1.14173
20
1.02092
11
1.14173
21
1.04011
0
LINE
8
BLACK
6
CONTINUOUS
10
1.14173
20
1.04011
11
1.14246
21
1.04378
0
LINE
8
BLACK
6
CONTINUOUS
10
1.14246
20
1.04378
11
1.14454
21
1.04689
0
LINE
8
BLACK
6
CONTINUOUS
10
1.14454
20
1.04689
11
1.14766
21
1.04897
0
LINE
8
BLACK
6
CONTINUOUS
10
1.14766
20
1.04897
11
1.15133
21
1.0497
0
LINE
8
BLACK
6
CONTINUOUS
10
1.15133
20
1.0497
11
1.18725
21
1.0497
0
LINE
8
BLACK
6
CONTINUOUS
10
1.18725
20
1.0497
11
1.19093
21
1.04897
0
LINE
8
BLACK
6
CONTINUOUS
10
1.19093
20
1.10754
11
1.19404
21
1.10546
0
LINE
8
BLACK
6
CONTINUOUS
10
1.19404
20
1.10546
11
1.19612
21
1.10234
0
LINE
8
BLACK
6
CONTINUOUS
10
1.19612
20
1.10234
11
1.19685
21
1.09867
0
LINE
8
BLACK
6
CONTINUOUS
10
1.19685
20
1.09867
11
1.19685
21
1.07948
0
LINE
8
BLACK
6
CONTINUOUS
10
1.19685
20
1.07948
11
1.19612
21
1.07581
0
LINE
8
BLACK
6
CONTINUOUS
10
1.19612
20
1.07581
11
1.19404
21
1.07269
0
LINE
8
BLACK
6
CONTINUOUS
10
1.19404
20
1.07269
11
1.19093
21
1.07061
0
LINE
8
BLACK
6
CONTINUOUS
10
1.19093
20
1.07061
11
1.18725
21
1.06988
0
LINE
8
BLACK
6
CONTINUOUS
10
1.18725
20
1.06988
11
1.15133
21
1.06988
0
LINE
8
BLACK
6
CONTINUOUS
10
1.15133
20
1.06988
11
1.14766
21
1.07061
0
LINE
8
BLACK
6
CONTINUOUS
10
1.14766
20
1.07061
11
1.14454
21
1.07269
0
LINE
8
BLACK
6
CONTINUOUS
10
1.14454
20
1.07269
11
1.14246
21
1.07581
0
LINE
8
BLACK
6
CONTINUOUS
10
1.14246
20
1.07581
11
1.14173
21
1.07948
0
LINE
8
BLACK
6
CONTINUOUS
10
1.14173
20
1.07948
11
1.14173
21
1.09867
0
LINE
8
BLACK
6
CONTINUOUS
10
1.14173
20
1.09867
11
1.14246
21
1.10234
0
LINE
8
BLACK
6
CONTINUOUS
10
1.14246
20
1.10234
11
1.14454
21
1.10546
0
LINE
8
BLACK
6
CONTINUOUS
10
1.14454
20
1.10546
11
1.14766
21
1.10754
0
LINE
8
BLACK
6
CONTINUOUS
10
1.14766
20
1.10754
11
1.15133
21
1.10827
0
LINE
8
BLACK
6
CONTINUOUS
10
1.15133
20
1.10827
11
1.18725
21
1.10827
0
LINE
8
BLACK
6
CONTINUOUS
10
1.18725
20
1.10827
11
1.19093
21
1.10754
0
LINE
8
BLACK
6
CONTINUOUS
10
1.40746
20
1.12722
11
1.41058
21
1.12514
0
LINE
8
BLACK
6
CONTINUOUS
10
1.41058
20
1.12514
11
1.41266
21
1.12203
0
LINE
8
BLACK
6
CONTINUOUS
10
1.41266
20
1.12203
11
1.41339
21
1.11836
0
LINE
8
BLACK
6
CONTINUOUS
10
1.41339
20
1.11836
11
1.41339
21
1.09916
0
LINE
8
BLACK
6
CONTINUOUS
10
1.41339
20
1.09916
11
1.41266
21
1.09549
0
LINE
8
BLACK
6
CONTINUOUS
10
1.41266
20
1.09549
11
1.41058
21
1.09238
0
LINE
8
BLACK
6
CONTINUOUS
10
1.41058
20
1.09238
11
1.40746
21
1.0903
0
LINE
8
BLACK
6
CONTINUOUS
10
1.40746
20
1.0903
11
1.40379
21
1.08957
0
LINE
8
BLACK
6
CONTINUOUS
10
1.40379
20
1.08957
11
1.36786
21
1.08957
0
LINE
8
BLACK
6
CONTINUOUS
10
1.36786
20
1.08957
11
1.36419
21
1.0903
0
LINE
8
BLACK
6
CONTINUOUS
10
1.36419
20
1.0903
11
1.36108
21
1.09238
0
LINE
8
BLACK
6
CONTINUOUS
10
1.36108
20
1.09238
11
1.359
21
1.09549
0
LINE
8
BLACK
6
CONTINUOUS
10
1.359
20
1.09549
11
1.35827
21
1.09916
0
LINE
8
BLACK
6
CONTINUOUS
10
1.35827
20
1.09916
11
1.35827
21
1.11836
0
LINE
8
BLACK
6
CONTINUOUS
10
1.35827
20
1.11836
11
1.359
21
1.12203
0
LINE
8
BLACK
6
CONTINUOUS
10
1.359
20
1.12203
11
1.36108
21
1.12514
0
LINE
8
BLACK
6
CONTINUOUS
10
1.36108
20
1.12514
11
1.36419
21
1.12722
0
LINE
8
BLACK
6
CONTINUOUS
10
1.36419
20
1.12722
11
1.36786
21
1.12795
0
LINE
8
BLACK
6
CONTINUOUS
10
1.36786
20
1.12795
11
1.40379
21
1.12795
0
LINE
8
BLACK
6
CONTINUOUS
10
1.40379
20
1.12795
11
1.40746
21
1.12722
0
LINE
8
BLACK
6
CONTINUOUS
10
0.977349
20
1.10537
11
0.951758
21
1.10537
0
LINE
8
BLACK
6
CONTINUOUS
10
0.951758
20
1.10537
11
0.951758
21
1.1534
0
LINE
8
BLACK
6
CONTINUOUS
10
0.951758
20
1.1534
11
0.977349
21
1.1534
0
LINE
8
BLACK
6
CONTINUOUS
10
0.977349
20
1.1534
11
0.977349
21
1.10537
0
LINE
8
BLACK
6
CONTINUOUS
10
0.939947
20
1.10537
11
0.914357
21
1.10537
0
LINE
8
BLACK
6
CONTINUOUS
10
0.914357
20
1.10537
11
0.914357
21
1.1534
0
LINE
8
BLACK
6
CONTINUOUS
10
0.914357
20
1.1534
11
0.939947
21
1.1534
0
LINE
8
BLACK
6
CONTINUOUS
10
0.939947
20
1.1534
11
0.939947
21
1.10537
0
LINE
8
BLACK
6
CONTINUOUS
10
0.902546
20
1.10537
11
0.876955
21
1.10537
0
LINE
8
BLACK
6
CONTINUOUS
10
0.876955
20
1.10537
11
0.876955
21
1.1534
0
LINE
8
BLACK
6
CONTINUOUS
10
0.876955
20
1.1534
11
0.902546
21
1.1534
0
LINE
8
BLACK
6
CONTINUOUS
10
0.902546
20
1.1534
11
0.902546
21
1.10537
0
LINE
8
BLACK
6
CONTINUOUS
10
1.55707
20
1.16512
11
1.56018
21
1.16304
0
LINE
8
BLACK
6
CONTINUOUS
10
1.56018
20
1.16304
11
1.56226
21
1.15992
0
LINE
8
BLACK
6
CONTINUOUS
10
1.56226
20
1.15992
11
1.56299
21
1.15625
0
LINE
8
BLACK
6
CONTINUOUS
10
1.56299
20
1.15625
11
1.56299
21
1.13706
0
LINE
8
BLACK
6
CONTINUOUS
10
1.56299
20
1.13706
11
1.56226
21
1.13338
0
LINE
8
BLACK
6
CONTINUOUS
10
1.56226
20
1.13338
11
1.56018
21
1.13027
0
LINE
8
BLACK
6
CONTINUOUS
10
1.56018
20
1.13027
11
1.55707
21
1.12819
0
LINE
8
BLACK
6
CONTINUOUS
10
1.55707
20
1.12819
11
1.5534
21
1.12746
0
LINE
8
BLACK
6
CONTINUOUS
10
1.5534
20
1.12746
11
1.51747
21
1.12746
0
LINE
8
BLACK
6
CONTINUOUS
10
1.51747
20
1.12746
11
1.5138
21
1.12819
0
LINE
8
BLACK
6
CONTINUOUS
10
1.5138
20
1.12819
11
1.51068
21
1.13027
0
LINE
8
BLACK
6
CONTINUOUS
10
1.51068
20
1.13027
11
1.5086
21
1.13338
0
LINE
8
BLACK
6
CONTINUOUS
10
1.5086
20
1.13338
11
1.50787
21
1.13706
0
LINE
8
BLACK
6
CONTINUOUS
10
1.50787
20
1.13706
11
1.50787
21
1.15625
0
LINE
8
BLACK
6
CONTINUOUS
10
1.50787
20
1.15625
11
1.5086
21
1.15992
0
LINE
8
BLACK
6
CONTINUOUS
10
1.5086
20
1.15992
11
1.51068
21
1.16304
0
LINE
8
BLACK
6
CONTINUOUS
10
1.51068
20
1.16304
11
1.5138
21
1.16512
0
LINE
8
BLACK
6
CONTINUOUS
10
1.5138
20
1.16512
11
1.51747
21
1.16585
0
LINE
8
BLACK
6
CONTINUOUS
10
1.51747
20
1.16585
11
1.5534
21
1.16585
0
LINE
8
BLACK
6
CONTINUOUS
10
1.5534
20
1.16585
11
1.55707
21
1.16512
0
LINE
8
BLACK
6
CONTINUOUS
10
1.19093
20
1.18136
11
1.19404
21
1.17928
0
LINE
8
BLACK
6
CONTINUOUS
10
1.19404
20
1.17928
11
1.19612
21
1.17616
0
LINE
8
BLACK
6
CONTINUOUS
10
1.19612
20
1.17616
11
1.19685
21
1.17249
0
LINE
8
BLACK
6
CONTINUOUS
10
1.19685
20
1.17249
11
1.19685
21
1.1533
0
LINE
8
BLACK
6
CONTINUOUS
10
1.19685
20
1.1533
11
1.19612
21
1.14962
0
LINE
8
BLACK
6
CONTINUOUS
10
1.19612
20
1.14962
11
1.19404
21
1.14651
0
LINE
8
BLACK
6
CONTINUOUS
10
1.19404
20
1.14651
11
1.19093
21
1.14443
0
LINE
8
BLACK
6
CONTINUOUS
10
1.19093
20
1.14443
11
1.18725
21
1.1437
0
LINE
8
BLACK
6
CONTINUOUS
10
1.18725
20
1.1437
11
1.15133
21
1.1437
0
LINE
8
BLACK
6
CONTINUOUS
10
1.15133
20
1.1437
11
1.14766
21
1.14443
0
LINE
8
BLACK
6
CONTINUOUS
10
1.14766
20
1.14443
11
1.14454
21
1.14651
0
LINE
8
BLACK
6
CONTINUOUS
10
1.14454
20
1.14651
11
1.14246
21
1.14962
0
LINE
8
BLACK
6
CONTINUOUS
10
1.14246
20
1.14962
11
1.14173
21
1.1533
0
LINE
8
BLACK
6
CONTINUOUS
10
1.14173
20
1.1533
11
1.14173
21
1.17249
0
LINE
8
BLACK
6
CONTINUOUS
10
1.14173
20
1.17249
11
1.14246
21
1.17616
0
LINE
8
BLACK
6
CONTINUOUS
10
1.14246
20
1.17616
11
1.14454
21
1.17928
0
LINE
8
BLACK
6
CONTINUOUS
10
1.14454
20
1.17928
11
1.14766
21
1.18136
0
LINE
8
BLACK
6
CONTINUOUS
10
1.14766
20
1.18136
11
1.15133
21
1.18209
0
LINE
8
BLACK
6
CONTINUOUS
10
1.15133
20
1.18209
11
1.18725
21
1.18209
0
LINE
8
BLACK
6
CONTINUOUS
10
1.18725
20
1.18209
11
1.19093
21
1.18136
0
LINE
8
BLACK
6
CONTINUOUS
10
1.40746
20
1.20104
11
1.41058
21
1.19896
0
LINE
8
BLACK
6
CONTINUOUS
10
1.41058
20
1.19896
11
1.41266
21
1.19585
0
LINE
8
BLACK
6
CONTINUOUS
10
1.41266
20
1.19585
11
1.41339
21
1.19218
0
LINE
8
BLACK
6
CONTINUOUS
10
1.41339
20
1.19218
11
1.41339
21
1.17298
0
LINE
8
BLACK
6
CONTINUOUS
10
1.41339
20
1.17298
11
1.41266
21
1.16931
0
LINE
8
BLACK
6
CONTINUOUS
10
1.41266
20
1.16931
11
1.41058
21
1.1662
0
LINE
8
BLACK
6
CONTINUOUS
10
1.41058
20
1.1662
11
1.40746
21
1.16412
0
LINE
8
BLACK
6
CONTINUOUS
10
1.40746
20
1.16412
11
1.40379
21
1.16339
0
LINE
8
BLACK
6
CONTINUOUS
10
1.40379
20
1.16339
11
1.36786
21
1.16339
0
LINE
8
BLACK
6
CONTINUOUS
10
1.36786
20
1.16339
11
1.36419
21
1.16412
0
LINE
8
BLACK
6
CONTINUOUS
10
1.36419
20
1.16412
11
1.36108
21
1.1662
0
LINE
8
BLACK
6
CONTINUOUS
10
1.36108
20
1.1662
11
1.359
21
1.16931
0
LINE
8
BLACK
6
CONTINUOUS
10
1.359
20
1.16931
11
1.35827
21
1.17298
0
LINE
8
BLACK
6
CONTINUOUS
10
1.35827
20
1.17298
11
1.35827
21
1.19218
0
LINE
8
BLACK
6
CONTINUOUS
10
1.35827
20
1.19218
11
1.359
21
1.19585
0
LINE
8
BLACK
6
CONTINUOUS
10
1.359
20
1.19585
11
1.36108
21
1.19896
0
LINE
8
BLACK
6
CONTINUOUS
10
1.36108
20
1.19896
11
1.36419
21
1.20104
0
LINE
8
BLACK
6
CONTINUOUS
10
1.36419
20
1.20104
11
1.36786
21
1.20177
0
LINE
8
BLACK
6
CONTINUOUS
10
1.36786
20
1.20177
11
1.40379
21
1.20177
0
LINE
8
BLACK
6
CONTINUOUS
10
1.40379
20
1.20177
11
1.40746
21
1.20104
0
LINE
8
BLACK
6
CONTINUOUS
10
0.797226
20
1.22023
11
0.800339
21
1.21815
0
LINE
8
BLACK
6
CONTINUOUS
10
0.800339
20
1.21815
11
0.802419
21
1.21504
0
LINE
8
BLACK
6
CONTINUOUS
10
0.802419
20
1.21504
11
0.80315
21
1.21137
0
LINE
8
BLACK
6
CONTINUOUS
10
0.80315
20
1.21137
11
0.80315
21
1.19218
0
LINE
8
BLACK
6
CONTINUOUS
10
0.80315
20
1.19218
11
0.802419
21
1.1885
0
LINE
8
BLACK
6
CONTINUOUS
10
0.802419
20
1.1885
11
0.800339
21
1.18539
0
LINE
8
BLACK
6
CONTINUOUS
10
0.800339
20
1.18539
11
0.797226
21
1.18331
0
LINE
8
BLACK
6
CONTINUOUS
10
0.797226
20
1.18331
11
0.793553
21
1.18258
0
LINE
8
BLACK
6
CONTINUOUS
10
0.793553
20
1.18258
11
0.757628
21
1.18258
0
LINE
8
BLACK
6
CONTINUOUS
10
0.757628
20
1.18258
11
0.753956
21
1.18331
0
LINE
8
BLACK
6
CONTINUOUS
10
0.753956
20
1.18331
11
0.750842
21
1.18539
0
LINE
8
BLACK
6
CONTINUOUS
10
0.750842
20
1.18539
11
0.748762
21
1.1885
0
LINE
8
BLACK
6
CONTINUOUS
10
0.748762
20
1.1885
11
0.748031
21
1.19218
0
LINE
8
BLACK
6
CONTINUOUS
10
0.748031
20
1.19218
11
0.748031
21
1.21137
0
LINE
8
BLACK
6
CONTINUOUS
10
0.748031
20
1.21137
11
0.748762
21
1.21504
0
LINE
8
BLACK
6
CONTINUOUS
10
0.748762
20
1.21504
11
0.750842
21
1.21815
0
LINE
8
BLACK
6
CONTINUOUS
10
0.750842
20
1.21815
11
0.753956
21
1.22023
0
LINE
8
BLACK
6
CONTINUOUS
10
0.753956
20
1.22023
11
0.757628
21
1.22096
0
LINE
8
BLACK
6
CONTINUOUS
10
0.757628
20
1.22096
11
0.793553
21
1.22096
0
LINE
8
BLACK
6
CONTINUOUS
10
0.793553
20
1.22096
11
0.797226
21
1.22023
0
LINE
8
BLACK
6
CONTINUOUS
10
1.55707
20
1.23893
11
1.56018
21
1.23685
0
LINE
8
BLACK
6
CONTINUOUS
10
1.56018
20
1.23685
11
1.56226
21
1.23374
0
LINE
8
BLACK
6
CONTINUOUS
10
1.56226
20
1.23374
11
1.56299
21
1.23007
0
LINE
8
BLACK
6
CONTINUOUS
10
1.56299
20
1.23007
11
1.56299
21
1.21088
0
LINE
8
BLACK
6
CONTINUOUS
10
1.56299
20
1.21088
11
1.56226
21
1.2072
0
LINE
8
BLACK
6
CONTINUOUS
10
1.56226
20
1.2072
11
1.56018
21
1.20409
0
LINE
8
BLACK
6
CONTINUOUS
10
1.56018
20
1.20409
11
1.55707
21
1.20201
0
LINE
8
BLACK
6
CONTINUOUS
10
1.55707
20
1.20201
11
1.5534
21
1.20128
0
LINE
8
BLACK
6
CONTINUOUS
10
1.5534
20
1.20128
11
1.51747
21
1.20128
0
LINE
8
BLACK
6
CONTINUOUS
10
1.51747
20
1.20128
11
1.5138
21
1.20201
0
LINE
8
BLACK
6
CONTINUOUS
10
1.5138
20
1.20201
11
1.51068
21
1.20409
0
LINE
8
BLACK
6
CONTINUOUS
10
1.51068
20
1.20409
11
1.5086
21
1.2072
0
LINE
8
BLACK
6
CONTINUOUS
10
1.5086
20
1.2072
11
1.50787
21
1.21088
0
LINE
8
BLACK
6
CONTINUOUS
10
1.50787
20
1.21088
11
1.50787
21
1.23007
0
LINE
8
BLACK
6
CONTINUOUS
10
1.50787
20
1.23007
11
1.5086
21
1.23374
0
LINE
8
BLACK
6
CONTINUOUS
10
1.5086
20
1.23374
11
1.51068
21
1.23685
0
LINE
8
BLACK
6
CONTINUOUS
10
1.51068
20
1.23685
11
1.5138
21
1.23893
0
LINE
8
BLACK
6
CONTINUOUS
10
1.5138
20
1.23893
11
1.51747
21
1.23967
0
LINE
8
BLACK
6
CONTINUOUS
10
1.51747
20
1.23967
11
1.5534
21
1.23967
0
LINE
8
BLACK
6
CONTINUOUS
10
1.5534
20
1.23967
11
1.55707
21
1.23893
0
LINE
8
BLACK
6
CONTINUOUS
10
0.944882
20
1.21063
11
0.852362
21
1.21063
0
LINE
8
BLACK
6
CONTINUOUS
10
0.852362
20
1.21063
11
0.852362
21
1.41142
0
LINE
8
BLACK
6
CONTINUOUS
10
0.852362
20
1.41142
11
0.944882
21
1.41142
0
LINE
8
BLACK
6
CONTINUOUS
10
0.944882
20
1.41142
11
0.944882
21
1.21063
0
LINE
8
BLACK
6
CONTINUOUS
10
1.10827
20
1.21063
11
1.01575
21
1.21063
0
LINE
8
BLACK
6
CONTINUOUS
10
1.01575
20
1.21063
11
1.01575
21
1.41142
0
LINE
8
BLACK
6
CONTINUOUS
10
1.01575
20
1.41142
11
1.10827
21
1.41142
0
LINE
8
BLACK
6
CONTINUOUS
10
1.10827
20
1.41142
11
1.10827
21
1.21063
0
LINE
8
BLACK
6
CONTINUOUS
10
0.797226
20
1.29405
11
0.800339
21
1.29197
0
LINE
8
BLACK
6
CONTINUOUS
10
0.800339
20
1.29197
11
0.802419
21
1.28886
0
LINE
8
BLACK
6
CONTINUOUS
10
0.802419
20
1.28886
11
0.80315
21
1.28519
0
LINE
8
BLACK
6
CONTINUOUS
10
0.80315
20
1.28519
11
0.80315
21
1.26599
0
LINE
8
BLACK
6
CONTINUOUS
10
0.80315
20
1.26599
11
0.802419
21
1.26232
0
LINE
8
BLACK
6
CONTINUOUS
10
0.802419
20
1.26232
11
0.800339
21
1.25921
0
LINE
8
BLACK
6
CONTINUOUS
10
0.800339
20
1.25921
11
0.797226
21
1.25713
0
LINE
8
BLACK
6
CONTINUOUS
10
0.797226
20
1.25713
11
0.793553
21
1.2564
0
LINE
8
BLACK
6
CONTINUOUS
10
0.793553
20
1.2564
11
0.757628
21
1.2564
0
LINE
8
BLACK
6
CONTINUOUS
10
0.757628
20
1.2564
11
0.753956
21
1.25713
0
LINE
8
BLACK
6
CONTINUOUS
10
0.753956
20
1.25713
11
0.750842
21
1.25921
0
LINE
8
BLACK
6
CONTINUOUS
10
0.750842
20
1.25921
11
0.748762
21
1.26232
0
LINE
8
BLACK
6
CONTINUOUS
10
0.748762
20
1.26232
11
0.748031
21
1.26599
0
LINE
8
BLACK
6
CONTINUOUS
10
0.748031
20
1.26599
11
0.748031
21
1.28519
0
LINE
8
BLACK
6
CONTINUOUS
10
0.748031
20
1.28519
11
0.748762
21
1.28886
0
LINE
8
BLACK
6
CONTINUOUS
10
0.748762
20
1.28886
11
0.750842
21
1.29197
0
LINE
8
BLACK
6
CONTINUOUS
10
0.750842
20
1.29197
11
0.753956
21
1.29405
0
LINE
8
BLACK
6
CONTINUOUS
10
0.753956
20
1.29405
11
0.757628
21
1.29478
0
LINE
8
BLACK
6
CONTINUOUS
10
0.757628
20
1.29478
11
0.793553
21
1.29478
0
LINE
8
BLACK
6
CONTINUOUS
10
0.793553
20
1.29478
11
0.797226
21
1.29405
0
LINE
8
BLACK
6
CONTINUOUS
10
1.25787
20
1.27559
11
1.15945
21
1.27559
0
LINE
8
BLACK
6
CONTINUOUS
10
1.15945
20
1.27559
11
1.15945
21
1.34646
0
LINE
8
BLACK
6
CONTINUOUS
10
1.15945
20
1.34646
11
1.25787
21
1.34646
0
LINE
8
BLACK
6
CONTINUOUS
10
1.25787
20
1.34646
11
1.25787
21
1.27559
0
LINE
8
BLACK
6
CONTINUOUS
10
1.41535
20
1.27559
11
1.31693
21
1.27559
0
LINE
8
BLACK
6
CONTINUOUS
10
1.31693
20
1.27559
11
1.31693
21
1.34646
0
LINE
8
BLACK
6
CONTINUOUS
10
1.31693
20
1.34646
11
1.41535
21
1.34646
0
LINE
8
BLACK
6
CONTINUOUS
10
1.41535
20
1.34646
11
1.41535
21
1.27559
0
LINE
8
BLACK
6
CONTINUOUS
10
1.54476
20
1.33785
11
1.54788
21
1.33577
0
LINE
8
BLACK
6
CONTINUOUS
10
1.54788
20
1.33577
11
1.54996
21
1.33266
0
LINE
8
BLACK
6
CONTINUOUS
10
1.54996
20
1.33266
11
1.55069
21
1.32899
0
LINE
8
BLACK
6
CONTINUOUS
10
1.55069
20
1.32899
11
1.55069
21
1.29306
0
LINE
8
BLACK
6
CONTINUOUS
10
1.55069
20
1.29306
11
1.54996
21
1.28939
0
LINE
8
BLACK
6
CONTINUOUS
10
1.54996
20
1.28939
11
1.54788
21
1.28628
0
LINE
8
BLACK
6
CONTINUOUS
10
1.54788
20
1.28628
11
1.54476
21
1.2842
0
LINE
8
BLACK
6
CONTINUOUS
10
1.54476
20
1.2842
11
1.54109
21
1.28346
0
LINE
8
BLACK
6
CONTINUOUS
10
1.54109
20
1.28346
11
1.5219
21
1.28346
0
LINE
8
BLACK
6
CONTINUOUS
10
1.5219
20
1.28346
11
1.51823
21
1.2842
0
LINE
8
BLACK
6
CONTINUOUS
10
1.51823
20
1.2842
11
1.51511
21
1.28628
0
LINE
8
BLACK
6
CONTINUOUS
10
1.51511
20
1.28628
11
1.51303
21
1.28939
0
LINE
8
BLACK
6
CONTINUOUS
10
1.51303
20
1.28939
11
1.5123
21
1.29306
0
LINE
8
BLACK
6
CONTINUOUS
10
1.5123
20
1.29306
11
1.5123
21
1.32899
0
LINE
8
BLACK
6
CONTINUOUS
10
1.5123
20
1.32899
11
1.51303
21
1.33266
0
LINE
8
BLACK
6
CONTINUOUS
10
1.51303
20
1.33266
11
1.51511
21
1.33577
0
LINE
8
BLACK
6
CONTINUOUS
10
1.51511
20
1.33577
11
1.51823
21
1.33785
0
LINE
8
BLACK
6
CONTINUOUS
10
1.51823
20
1.33785
11
1.5219
21
1.33858
0
LINE
8
BLACK
6
CONTINUOUS
10
1.5219
20
1.33858
11
1.54109
21
1.33858
0
LINE
8
BLACK
6
CONTINUOUS
10
1.54109
20
1.33858
11
1.54476
21
1.33785
0
LINE
8
BLACK
6
CONTINUOUS
10
1.47095
20
1.33785
11
1.47406
21
1.33577
0
LINE
8
BLACK
6
CONTINUOUS
10
1.47406
20
1.33577
11
1.47614
21
1.33266
0
LINE
8
BLACK
6
CONTINUOUS
10
1.47614
20
1.33266
11
1.47687
21
1.32899
0
LINE
8
BLACK
6
CONTINUOUS
10
1.47687
20
1.32899
11
1.47687
21
1.29306
0
LINE
8
BLACK
6
CONTINUOUS
10
1.47687
20
1.29306
11
1.47614
21
1.28939
0
LINE
8
BLACK
6
CONTINUOUS
10
1.47614
20
1.28939
11
1.47406
21
1.28628
0
LINE
8
BLACK
6
CONTINUOUS
10
1.47406
20
1.28628
11
1.47095
21
1.2842
0
LINE
8
BLACK
6
CONTINUOUS
10
1.47095
20
1.2842
11
1.46727
21
1.28346
0
LINE
8
BLACK
6
CONTINUOUS
10
1.46727
20
1.28346
11
1.44808
21
1.28346
0
LINE
8
BLACK
6
CONTINUOUS
10
1.44808
20
1.28346
11
1.44441
21
1.2842
0
LINE
8
BLACK
6
CONTINUOUS
10
1.44441
20
1.2842
11
1.44129
21
1.28628
0
LINE
8
BLACK
6
CONTINUOUS
10
1.44129
20
1.28628
11
1.43921
21
1.28939
0
LINE
8
BLACK
6
CONTINUOUS
10
1.43921
20
1.28939
11
1.43848
21
1.29306
0
LINE
8
BLACK
6
CONTINUOUS
10
1.43848
20
1.29306
11
1.43848
21
1.32899
0
LINE
8
BLACK
6
CONTINUOUS
10
1.43848
20
1.32899
11
1.43921
21
1.33266
0
LINE
8
BLACK
6
CONTINUOUS
10
1.43921
20
1.33266
11
1.44129
21
1.33577
0
LINE
8
BLACK
6
CONTINUOUS
10
1.44129
20
1.33577
11
1.44441
21
1.33785
0
LINE
8
BLACK
6
CONTINUOUS
10
1.44441
20
1.33785
11
1.44808
21
1.33858
0
LINE
8
BLACK
6
CONTINUOUS
10
1.44808
20
1.33858
11
1.46727
21
1.33858
0
LINE
8
BLACK
6
CONTINUOUS
10
1.46727
20
1.33858
11
1.47095
21
1.33785
0
LINE
8
BLACK
6
CONTINUOUS
10
1.52557
20
1.62181
11
1.52869
21
1.61973
0
LINE
8
BLACK
6
CONTINUOUS
10
1.52869
20
1.61973
11
1.53077
21
1.61662
0
LINE
8
BLACK
6
CONTINUOUS
10
1.53077
20
1.61662
11
1.5315
21
1.61294
0
LINE
8
BLACK
6
CONTINUOUS
10
1.5315
20
1.61294
11
1.5315
21
1.59375
0
LINE
8
BLACK
6
CONTINUOUS
10
1.5315
20
1.59375
11
1.53077
21
1.59008
0
LINE
8
BLACK
6
CONTINUOUS
10
1.53077
20
1.59008
11
1.52869
21
1.58696
0
LINE
8
BLACK
6
CONTINUOUS
10
1.52869
20
1.58696
11
1.52557
21
1.58488
0
LINE
8
BLACK
6
CONTINUOUS
10
1.52557
20
1.58488
11
1.5219
21
1.58415
0
LINE
8
BLACK
6
CONTINUOUS
10
1.5219
20
1.58415
11
1.48597
21
1.58415
0
LINE
8
BLACK
6
CONTINUOUS
10
1.48597
20
1.58415
11
1.4823
21
1.58488
0
LINE
8
BLACK
6
CONTINUOUS
10
1.4823
20
1.58488
11
1.47919
21
1.58696
0
LINE
8
BLACK
6
CONTINUOUS
10
1.47919
20
1.58696
11
1.47711
21
1.59008
0
LINE
8
BLACK
6
CONTINUOUS
10
1.47711
20
1.59008
11
1.47638
21
1.59375
0
LINE
8
BLACK
6
CONTINUOUS
10
1.47638
20
1.59375
11
1.47638
21
1.61294
0
LINE
8
BLACK
6
CONTINUOUS
10
1.47638
20
1.61294
11
1.47711
21
1.61662
0
LINE
8
BLACK
6
CONTINUOUS
10
1.47711
20
1.61662
11
1.47919
21
1.61973
0
LINE
8
BLACK
6
CONTINUOUS
10
1.47919
20
1.61973
11
1.4823
21
1.62181
0
LINE
8
BLACK
6
CONTINUOUS
10
1.4823
20
1.62181
11
1.48597
21
1.62254
0
LINE
8
BLACK
6
CONTINUOUS
10
1.48597
20
1.62254
11
1.5219
21
1.62254
0
LINE
8
BLACK
6
CONTINUOUS
10
1.5219
20
1.62254
11
1.52557
21
1.62181
0
LINE
8
BLACK
6
CONTINUOUS
10
1.69486
20
1.62329
11
1.69798
21
1.62121
0
LINE
8
BLACK
6
CONTINUOUS
10
1.69798
20
1.62121
11
1.70006
21
1.61809
0
LINE
8
BLACK
6
CONTINUOUS
10
1.70006
20
1.61809
11
1.70079
21
1.61442
0
LINE
8
BLACK
6
CONTINUOUS
10
1.70079
20
1.61442
11
1.70079
21
1.59523
0
LINE
8
BLACK
6
CONTINUOUS
10
1.70079
20
1.59523
11
1.70006
21
1.59155
0
LINE
8
BLACK
6
CONTINUOUS
10
1.70006
20
1.59155
11
1.69798
21
1.58844
0
LINE
8
BLACK
6
CONTINUOUS
10
1.69798
20
1.58844
11
1.69486
21
1.58636
0
LINE
8
BLACK
6
CONTINUOUS
10
1.69486
20
1.58636
11
1.69119
21
1.58563
0
LINE
8
BLACK
6
CONTINUOUS
10
1.69119
20
1.58563
11
1.65527
21
1.58563
0
LINE
8
BLACK
6
CONTINUOUS
10
1.65527
20
1.58563
11
1.65159
21
1.58636
0
LINE
8
BLACK
6
CONTINUOUS
10
1.65159
20
1.58636
11
1.64848
21
1.58844
0
LINE
8
BLACK
6
CONTINUOUS
10
1.64848
20
1.58844
11
1.6464
21
1.59155
0
LINE
8
BLACK
6
CONTINUOUS
10
1.6464
20
1.59155
11
1.64567
21
1.59523
0
LINE
8
BLACK
6
CONTINUOUS
10
1.64567
20
1.59523
11
1.64567
21
1.61442
0
LINE
8
BLACK
6
CONTINUOUS
10
1.64567
20
1.61442
11
1.6464
21
1.61809
0
LINE
8
BLACK
6
CONTINUOUS
10
1.6464
20
1.61809
11
1.64848
21
1.62121
0
LINE
8
BLACK
6
CONTINUOUS
10
1.64848
20
1.62121
11
1.65159
21
1.62329
0
LINE
8
BLACK
6
CONTINUOUS
10
1.65159
20
1.62329
11
1.65527
21
1.62402
0
LINE
8
BLACK
6
CONTINUOUS
10
1.65527
20
1.62402
11
1.69119
21
1.62402
0
LINE
8
BLACK
6
CONTINUOUS
10
1.69119
20
1.62402
11
1.69486
21
1.62329
0
LINE
8
BLACK
6
CONTINUOUS
10
1.52557
20
1.69563
11
1.52869
21
1.69355
0
LINE
8
BLACK
6
CONTINUOUS
10
1.52869
20
1.69355
11
1.53077
21
1.69043
0
LINE
8
BLACK
6
CONTINUOUS
10
1.53077
20
1.69043
11
1.5315
21
1.68676
0
LINE
8
BLACK
6
CONTINUOUS
10
1.5315
20
1.68676
11
1.5315
21
1.66757
0
LINE
8
BLACK
6
CONTINUOUS
10
1.5315
20
1.66757
11
1.53077
21
1.6639
0
LINE
8
BLACK
6
CONTINUOUS
10
1.53077
20
1.6639
11
1.52869
21
1.66078
0
LINE
8
BLACK
6
CONTINUOUS
10
1.52869
20
1.66078
11
1.52557
21
1.6587
0
LINE
8
BLACK
6
CONTINUOUS
10
1.52557
20
1.6587
11
1.5219
21
1.65797
0
LINE
8
BLACK
6
CONTINUOUS
10
1.5219
20
1.65797
11
1.48597
21
1.65797
0
LINE
8
BLACK
6
CONTINUOUS
10
1.48597
20
1.65797
11
1.4823
21
1.6587
0
LINE
8
BLACK
6
CONTINUOUS
10
1.4823
20
1.6587
11
1.47919
21
1.66078
0
LINE
8
BLACK
6
CONTINUOUS
10
1.47919
20
1.66078
11
1.47711
21
1.6639
0
LINE
8
BLACK
6
CONTINUOUS
10
1.47711
20
1.6639
11
1.47638
21
1.66757
0
LINE
8
BLACK
6
CONTINUOUS
10
1.47638
20
1.66757
11
1.47638
21
1.68676
0
LINE
8
BLACK
6
CONTINUOUS
10
1.47638
20
1.68676
11
1.47711
21
1.69043
0
LINE
8
BLACK
6
CONTINUOUS
10
1.47711
20
1.69043
11
1.47919
21
1.69355
0
LINE
8
BLACK
6
CONTINUOUS
10
1.47919
20
1.69355
11
1.4823
21
1.69563
0
LINE
8
BLACK
6
CONTINUOUS
10
1.4823
20
1.69563
11
1.48597
21
1.69636
0
LINE
8
BLACK
6
CONTINUOUS
10
1.48597
20
1.69636
11
1.5219
21
1.69636
0
LINE
8
BLACK
6
CONTINUOUS
10
1.5219
20
1.69636
11
1.52557
21
1.69563
0
LINE
8
BLACK
6
CONTINUOUS
10
1.69486
20
1.6971
11
1.69798
21
1.69502
0
LINE
8
BLACK
6
CONTINUOUS
10
1.69798
20
1.69502
11
1.70006
21
1.69191
0
LINE
8
BLACK
6
CONTINUOUS
10
1.70006
20
1.69191
11
1.70079
21
1.68824
0
LINE
8
BLACK
6
CONTINUOUS
10
1.70079
20
1.68824
11
1.70079
21
1.66905
0
LINE
8
BLACK
6
CONTINUOUS
10
1.70079
20
1.66905
11
1.70006
21
1.66537
0
LINE
8
BLACK
6
CONTINUOUS
10
1.70006
20
1.66537
11
1.69798
21
1.66226
0
LINE
8
BLACK
6
CONTINUOUS
10
1.69798
20
1.66226
11
1.69486
21
1.66018
0
LINE
8
BLACK
6
CONTINUOUS
10
1.69486
20
1.66018
11
1.69119
21
1.65945
0
LINE
8
BLACK
6
CONTINUOUS
10
1.69119
20
1.65945
11
1.65527
21
1.65945
0
LINE
8
BLACK
6
CONTINUOUS
10
1.65527
20
1.65945
11
1.65159
21
1.66018
0
LINE
8
BLACK
6
CONTINUOUS
10
1.65159
20
1.66018
11
1.64848
21
1.66226
0
LINE
8
BLACK
6
CONTINUOUS
10
1.64848
20
1.66226
11
1.6464
21
1.66537
0
LINE
8
BLACK
6
CONTINUOUS
10
1.6464
20
1.66537
11
1.64567
21
1.66905
0
LINE
8
BLACK
6
CONTINUOUS
10
1.64567
20
1.66905
11
1.64567
21
1.68824
0
LINE
8
BLACK
6
CONTINUOUS
10
1.64567
20
1.68824
11
1.6464
21
1.69191
0
LINE
8
BLACK
6
CONTINUOUS
10
1.6464
20
1.69191
11
1.64848
21
1.69502
0
LINE
8
BLACK
6
CONTINUOUS
10
1.64848
20
1.69502
11
1.65159
21
1.6971
0
LINE
8
BLACK
6
CONTINUOUS
10
1.65159
20
1.6971
11
1.65527
21
1.69783
0
LINE
8
BLACK
6
CONTINUOUS
10
1.65527
20
1.69783
11
1.69119
21
1.69783
0
LINE
8
BLACK
6
CONTINUOUS
10
1.69119
20
1.69783
11
1.69486
21
1.6971
0
LINE
8
BLACK
6
CONTINUOUS
10
1.52557
20
1.75714
11
1.52869
21
1.75506
0
LINE
8
BLACK
6
CONTINUOUS
10
1.52869
20
1.75506
11
1.53077
21
1.75195
0
LINE
8
BLACK
6
CONTINUOUS
10
1.53077
20
1.75195
11
1.5315
21
1.74828
0
LINE
8
BLACK
6
CONTINUOUS
10
1.5315
20
1.74828
11
1.5315
21
1.72908
0
LINE
8
BLACK
6
CONTINUOUS
10
1.5315
20
1.72908
11
1.53077
21
1.72541
0
LINE
8
BLACK
6
CONTINUOUS
10
1.53077
20
1.72541
11
1.52869
21
1.7223
0
LINE
8
BLACK
6
CONTINUOUS
10
1.52869
20
1.7223
11
1.52557
21
1.72022
0
LINE
8
BLACK
6
CONTINUOUS
10
1.52557
20
1.72022
11
1.5219
21
1.71949
0
LINE
8
BLACK
6
CONTINUOUS
10
1.5219
20
1.71949
11
1.48597
21
1.71949
0
LINE
8
BLACK
6
CONTINUOUS
10
1.48597
20
1.71949
11
1.4823
21
1.72022
0
LINE
8
BLACK
6
CONTINUOUS
10
1.4823
20
1.72022
11
1.47919
21
1.7223
0
LINE
8
BLACK
6
CONTINUOUS
10
1.47919
20
1.7223
11
1.47711
21
1.72541
0
LINE
8
BLACK
6
CONTINUOUS
10
1.47711
20
1.72541
11
1.47638
21
1.72908
0
LINE
8
BLACK
6
CONTINUOUS
10
1.47638
20
1.72908
11
1.47638
21
1.74828
0
LINE
8
BLACK
6
CONTINUOUS
10
1.47638
20
1.74828
11
1.47711
21
1.75195
0
LINE
8
BLACK
6
CONTINUOUS
10
1.47711
20
1.75195
11
1.47919
21
1.75506
0
LINE
8
BLACK
6
CONTINUOUS
10
1.47919
20
1.75506
11
1.4823
21
1.75714
0
LINE
8
BLACK
6
CONTINUOUS
10
1.4823
20
1.75714
11
1.48597
21
1.75787
0
LINE
8
BLACK
6
CONTINUOUS
10
1.48597
20
1.75787
11
1.5219
21
1.75787
0
LINE
8
BLACK
6
CONTINUOUS
10
1.5219
20
1.75787
11
1.52557
21
1.75714
0
LINE
8
BLACK
6
CONTINUOUS
10
1.69486
20
1.75862
11
1.69798
21
1.75654
0
LINE
8
BLACK
6
CONTINUOUS
10
1.69798
20
1.75654
11
1.70006
21
1.75343
0
LINE
8
BLACK
6
CONTINUOUS
10
1.70006
20
1.75343
11
1.70079
21
1.74975
0
LINE
8
BLACK
6
CONTINUOUS
10
1.70079
20
1.74975
11
1.70079
21
1.73056
0
LINE
8
BLACK
6
CONTINUOUS
10
1.70079
20
1.73056
11
1.70006
21
1.72689
0
LINE
8
BLACK
6
CONTINUOUS
10
1.70006
20
1.72689
11
1.69798
21
1.72378
0
LINE
8
BLACK
6
CONTINUOUS
10
1.69798
20
1.72378
11
1.69486
21
1.7217
0
LINE
8
BLACK
6
CONTINUOUS
10
1.69486
20
1.7217
11
1.69119
21
1.72096
0
LINE
8
BLACK
6
CONTINUOUS
10
1.69119
20
1.72096
11
1.65527
21
1.72096
0
LINE
8
BLACK
6
CONTINUOUS
10
1.65527
20
1.72096
11
1.65159
21
1.7217
0
LINE
8
BLACK
6
CONTINUOUS
10
1.65159
20
1.7217
11
1.64848
21
1.72378
0
LINE
8
BLACK
6
CONTINUOUS
10
1.64848
20
1.72378
11
1.6464
21
1.72689
0
LINE
8
BLACK
6
CONTINUOUS
10
1.6464
20
1.72689
11
1.64567
21
1.73056
0
LINE
8
BLACK
6
CONTINUOUS
10
1.64567
20
1.73056
11
1.64567
21
1.74975
0
LINE
8
BLACK
6
CONTINUOUS
10
1.64567
20
1.74975
11
1.6464
21
1.75343
0
LINE
8
BLACK
6
CONTINUOUS
10
1.6464
20
1.75343
11
1.64848
21
1.75654
0
LINE
8
BLACK
6
CONTINUOUS
10
1.64848
20
1.75654
11
1.65159
21
1.75862
0
LINE
8
BLACK
6
CONTINUOUS
10
1.65159
20
1.75862
11
1.65527
21
1.75935
0
LINE
8
BLACK
6
CONTINUOUS
10
1.65527
20
1.75935
11
1.69119
21
1.75935
0
LINE
8
BLACK
6
CONTINUOUS
10
1.69119
20
1.75935
11
1.69486
21
1.75862
0
LINE
8
BLACK
6
CONTINUOUS
10
1.52557
20
1.83096
11
1.52869
21
1.82888
0
LINE
8
BLACK
6
CONTINUOUS
10
1.52869
20
1.82888
11
1.53077
21
1.82577
0
LINE
8
BLACK
6
CONTINUOUS
10
1.53077
20
1.82577
11
1.5315
21
1.8221
0
LINE
8
BLACK
6
CONTINUOUS
10
1.5315
20
1.8221
11
1.5315
21
1.8029
0
LINE
8
BLACK
6
CONTINUOUS
10
1.5315
20
1.8029
11
1.53077
21
1.79923
0
LINE
8
BLACK
6
CONTINUOUS
10
1.53077
20
1.79923
11
1.52869
21
1.79612
0
LINE
8
BLACK
6
CONTINUOUS
10
1.52869
20
1.79612
11
1.52557
21
1.79404
0
LINE
8
BLACK
6
CONTINUOUS
10
1.52557
20
1.79404
11
1.5219
21
1.79331
0
LINE
8
BLACK
6
CONTINUOUS
10
1.5219
20
1.79331
11
1.48597
21
1.79331
0
LINE
8
BLACK
6
CONTINUOUS
10
1.48597
20
1.79331
11
1.4823
21
1.79404
0
LINE
8
BLACK
6
CONTINUOUS
10
1.4823
20
1.79404
11
1.47919
21
1.79612
0
LINE
8
BLACK
6
CONTINUOUS
10
1.47919
20
1.79612
11
1.47711
21
1.79923
0
LINE
8
BLACK
6
CONTINUOUS
10
1.47711
20
1.79923
11
1.47638
21
1.8029
0
LINE
8
BLACK
6
CONTINUOUS
10
1.47638
20
1.8029
11
1.47638
21
1.8221
0
LINE
8
BLACK
6
CONTINUOUS
10
1.47638
20
1.8221
11
1.47711
21
1.82577
0
LINE
8
BLACK
6
CONTINUOUS
10
1.47711
20
1.82577
11
1.47919
21
1.82888
0
LINE
8
BLACK
6
CONTINUOUS
10
1.47919
20
1.82888
11
1.4823
21
1.83096
0
LINE
8
BLACK
6
CONTINUOUS
10
1.4823
20
1.83096
11
1.48597
21
1.83169
0
LINE
8
BLACK
6
CONTINUOUS
10
1.48597
20
1.83169
11
1.5219
21
1.83169
0
LINE
8
BLACK
6
CONTINUOUS
10
1.5219
20
1.83169
11
1.52557
21
1.83096
0
LINE
8
BLACK
6
CONTINUOUS
10
1.69486
20
1.83244
11
1.69798
21
1.83036
0
LINE
8
BLACK
6
CONTINUOUS
10
1.69798
20
1.83036
11
1.70006
21
1.82725
0
LINE
8
BLACK
6
CONTINUOUS
10
1.70006
20
1.82725
11
1.70079
21
1.82357
0
LINE
8
BLACK
6
CONTINUOUS
10
1.70079
20
1.82357
11
1.70079
21
1.80438
0
LINE
8
BLACK
6
CONTINUOUS
10
1.70079
20
1.80438
11
1.70006
21
1.80071
0
LINE
8
BLACK
6
CONTINUOUS
10
1.70006
20
1.80071
11
1.69798
21
1.79759
0
LINE
8
BLACK
6
CONTINUOUS
10
1.69798
20
1.79759
11
1.69486
21
1.79551
0
LINE
8
BLACK
6
CONTINUOUS
10
1.69486
20
1.79551
11
1.69119
21
1.79478
0
LINE
8
BLACK
6
CONTINUOUS
10
1.69119
20
1.79478
11
1.65527
21
1.79478
0
LINE
8
BLACK
6
CONTINUOUS
10
1.65527
20
1.79478
11
1.65159
21
1.79551
0
LINE
8
BLACK
6
CONTINUOUS
10
1.65159
20
1.79551
11
1.64848
21
1.79759
0
LINE
8
BLACK
6
CONTINUOUS
10
1.64848
20
1.79759
11
1.6464
21
1.80071
0
LINE
8
BLACK
6
CONTINUOUS
10
1.6464
20
1.80071
11
1.64567
21
1.80438
0
LINE
8
BLACK
6
CONTINUOUS
10
1.64567
20
1.80438
11
1.64567
21
1.82357
0
LINE
8
BLACK
6
CONTINUOUS
10
1.64567
20
1.82357
11
1.6464
21
1.82725
0
LINE
8
BLACK
6
CONTINUOUS
10
1.6464
20
1.82725
11
1.64848
21
1.83036
0
LINE
8
BLACK
6
CONTINUOUS
10
1.64848
20
1.83036
11
1.65159
21
1.83244
0
LINE
8
BLACK
6
CONTINUOUS
10
1.65159
20
1.83244
11
1.65527
21
1.83317
0
LINE
8
BLACK
6
CONTINUOUS
10
1.65527
20
1.83317
11
1.69119
21
1.83317
0
LINE
8
BLACK
6
CONTINUOUS
10
1.69119
20
1.83317
11
1.69486
21
1.83244
0
LINE
8
BLACK
6
CONTINUOUS
10
1.17124
20
1.85803
11
1.17435
21
1.85595
0
LINE
8
BLACK
6
CONTINUOUS
10
1.17435
20
1.85595
11
1.17643
21
1.85284
0
LINE
8
BLACK
6
CONTINUOUS
10
1.17643
20
1.85284
11
1.17717
21
1.84916
0
LINE
8
BLACK
6
CONTINUOUS
10
1.17717
20
1.84916
11
1.17717
21
1.82997
0
LINE
8
BLACK
6
CONTINUOUS
10
1.17717
20
1.82997
11
1.17643
21
1.8263
0
LINE
8
BLACK
6
CONTINUOUS
10
1.17643
20
1.8263
11
1.17435
21
1.82318
0
LINE
8
BLACK
6
CONTINUOUS
10
1.17435
20
1.82318
11
1.17124
21
1.8211
0
LINE
8
BLACK
6
CONTINUOUS
10
1.17124
20
1.8211
11
1.16757
21
1.82037
0
LINE
8
BLACK
6
CONTINUOUS
10
1.16757
20
1.82037
11
1.13164
21
1.82037
0
LINE
8
BLACK
6
CONTINUOUS
10
1.13164
20
1.82037
11
1.12797
21
1.8211
0
LINE
8
BLACK
6
CONTINUOUS
10
1.12797
20
1.8211
11
1.12486
21
1.82318
0
LINE
8
BLACK
6
CONTINUOUS
10
1.12486
20
1.82318
11
1.12278
21
1.8263
0
LINE
8
BLACK
6
CONTINUOUS
10
1.12278
20
1.8263
11
1.12205
21
1.82997
0
LINE
8
BLACK
6
CONTINUOUS
10
1.12205
20
1.82997
11
1.12205
21
1.84916
0
LINE
8
BLACK
6
CONTINUOUS
10
1.12205
20
1.84916
11
1.12278
21
1.85284
0
LINE
8
BLACK
6
CONTINUOUS
10
1.12278
20
1.85284
11
1.12486
21
1.85595
0
LINE
8
BLACK
6
CONTINUOUS
10
1.12486
20
1.85595
11
1.12797
21
1.85803
0
LINE
8
BLACK
6
CONTINUOUS
10
1.12797
20
1.85803
11
1.13164
21
1.85876
0
LINE
8
BLACK
6
CONTINUOUS
10
1.13164
20
1.85876
11
1.16757
21
1.85876
0
LINE
8
BLACK
6
CONTINUOUS
10
1.16757
20
1.85876
11
1.17124
21
1.85803
0
LINE
8
BLACK
6
CONTINUOUS
10
0.765729
20
1.86197
11
0.768843
21
1.85989
0
LINE
8
BLACK
6
CONTINUOUS
10
0.768843
20
1.85989
11
0.770923
21
1.85677
0
LINE
8
BLACK
6
CONTINUOUS
10
0.770923
20
1.85677
11
0.771654
21
1.8531
0
LINE
8
BLACK
6
CONTINUOUS
10
0.771654
20
1.8531
11
0.771654
21
1.83391
0
LINE
8
BLACK
6
CONTINUOUS
10
0.771654
20
1.83391
11
0.770923
21
1.83024
0
LINE
8
BLACK
6
CONTINUOUS
10
0.770923
20
1.83024
11
0.768843
21
1.82712
0
LINE
8
BLACK
6
CONTINUOUS
10
0.768843
20
1.82712
11
0.765729
21
1.82504
0
LINE
8
BLACK
6
CONTINUOUS
10
0.765729
20
1.82504
11
0.762057
21
1.82431
0
LINE
8
BLACK
6
CONTINUOUS
10
0.762057
20
1.82431
11
0.726132
21
1.82431
0
LINE
8
BLACK
6
CONTINUOUS
10
0.726132
20
1.82431
11
0.722459
21
1.82504
0
LINE
8
BLACK
6
CONTINUOUS
10
0.722459
20
1.82504
11
0.719346
21
1.82712
0
LINE
8
BLACK
6
CONTINUOUS
10
0.719346
20
1.82712
11
0.717266
21
1.83024
0
LINE
8
BLACK
6
CONTINUOUS
10
0.717266
20
1.83024
11
0.716535
21
1.83391
0
LINE
8
BLACK
6
CONTINUOUS
10
0.716535
20
1.83391
11
0.716535
21
1.8531
0
LINE
8
BLACK
6
CONTINUOUS
10
0.716535
20
1.8531
11
0.717266
21
1.85677
0
LINE
8
BLACK
6
CONTINUOUS
10
0.717266
20
1.85677
11
0.719346
21
1.85989
0
LINE
8
BLACK
6
CONTINUOUS
10
0.719346
20
1.85989
11
0.722459
21
1.86197
0
LINE
8
BLACK
6
CONTINUOUS
10
0.722459
20
1.86197
11
0.726132
21
1.8627
0
LINE
8
BLACK
6
CONTINUOUS
10
0.726132
20
1.8627
11
0.762057
21
1.8627
0
LINE
8
BLACK
6
CONTINUOUS
10
0.762057
20
1.8627
11
0.765729
21
1.86197
0
LINE
8
BLACK
6
CONTINUOUS
10
0.887777
20
1.86197
11
0.89089
21
1.85989
0
LINE
8
BLACK
6
CONTINUOUS
10
0.89089
20
1.85989
11
0.89297
21
1.85677
0
LINE
8
BLACK
6
CONTINUOUS
10
0.89297
20
1.85677
11
0.893701
21
1.8531
0
LINE
8
BLACK
6
CONTINUOUS
10
0.893701
20
1.8531
11
0.893701
21
1.83391
0
LINE
8
BLACK
6
CONTINUOUS
10
0.893701
20
1.83391
11
0.89297
21
1.83024
0
LINE
8
BLACK
6
CONTINUOUS
10
0.89297
20
1.83024
11
0.89089
21
1.82712
0
LINE
8
BLACK
6
CONTINUOUS
10
0.89089
20
1.82712
11
0.887777
21
1.82504
0
LINE
8
BLACK
6
CONTINUOUS
10
0.887777
20
1.82504
11
0.884104
21
1.82431
0
LINE
8
BLACK
6
CONTINUOUS
10
0.884104
20
1.82431
11
0.848179
21
1.82431
0
LINE
8
BLACK
6
CONTINUOUS
10
0.848179
20
1.82431
11
0.844507
21
1.82504
0
LINE
8
BLACK
6
CONTINUOUS
10
0.844507
20
1.82504
11
0.841393
21
1.82712
0
LINE
8
BLACK
6
CONTINUOUS
10
0.841393
20
1.82712
11
0.839313
21
1.83024
0
LINE
8
BLACK
6
CONTINUOUS
10
0.839313
20
1.83024
11
0.838583
21
1.83391
0
LINE
8
BLACK
6
CONTINUOUS
10
0.838583
20
1.83391
11
0.838583
21
1.8531
0
LINE
8
BLACK
6
CONTINUOUS
10
0.838583
20
1.8531
11
0.839313
21
1.85677
0
LINE
8
BLACK
6
CONTINUOUS
10
0.839313
20
1.85677
11
0.841393
21
1.85989
0
LINE
8
BLACK
6
CONTINUOUS
10
0.841393
20
1.85989
11
0.844507
21
1.86197
0
LINE
8
BLACK
6
CONTINUOUS
10
0.844507
20
1.86197
11
0.848179
21
1.8627
0
LINE
8
BLACK
6
CONTINUOUS
10
0.848179
20
1.8627
11
0.884104
21
1.8627
0
LINE
8
BLACK
6
CONTINUOUS
10
0.884104
20
1.8627
11
0.887777
21
1.86197
0
LINE
8
BLACK
6
CONTINUOUS
10
0.663367
20
1.86197
11
0.666481
21
1.85989
0
LINE
8
BLACK
6
CONTINUOUS
10
0.666481
20
1.85989
11
0.668561
21
1.85677
0
LINE
8
BLACK
6
CONTINUOUS
10
0.668561
20
1.85677
11
0.669291
21
1.8531
0
LINE
8
BLACK
6
CONTINUOUS
10
0.669291
20
1.8531
11
0.669291
21
1.83391
0
LINE
8
BLACK
6
CONTINUOUS
10
0.669291
20
1.83391
11
0.668561
21
1.83024
0
LINE
8
BLACK
6
CONTINUOUS
10
0.668561
20
1.83024
11
0.666481
21
1.82712
0
LINE
8
BLACK
6
CONTINUOUS
10
0.666481
20
1.82712
11
0.663367
21
1.82504
0
LINE
8
BLACK
6
CONTINUOUS
10
0.663367
20
1.82504
11
0.659695
21
1.82431
0
LINE
8
BLACK
6
CONTINUOUS
10
0.659695
20
1.82431
11
0.62377
21
1.82431
0
LINE
8
BLACK
6
CONTINUOUS
10
0.62377
20
1.82431
11
0.620097
21
1.82504
0
LINE
8
BLACK
6
CONTINUOUS
10
0.620097
20
1.82504
11
0.616984
21
1.82712
0
LINE
8
BLACK
6
CONTINUOUS
10
0.616984
20
1.82712
11
0.614904
21
1.83024
0
LINE
8
BLACK
6
CONTINUOUS
10
0.614904
20
1.83024
11
0.614173
21
1.83391
0
LINE
8
BLACK
6
CONTINUOUS
10
0.614173
20
1.83391
11
0.614173
21
1.8531
0
LINE
8
BLACK
6
CONTINUOUS
10
0.614173
20
1.8531
11
0.614904
21
1.85677
0
LINE
8
BLACK
6
CONTINUOUS
10
0.614904
20
1.85677
11
0.616984
21
1.85989
0
LINE
8
BLACK
6
CONTINUOUS
10
0.616984
20
1.85989
11
0.620097
21
1.86197
0
LINE
8
BLACK
6
CONTINUOUS
10
0.620097
20
1.86197
11
0.62377
21
1.8627
0
LINE
8
BLACK
6
CONTINUOUS
10
0.62377
20
1.8627
11
0.659695
21
1.8627
0
LINE
8
BLACK
6
CONTINUOUS
10
0.659695
20
1.8627
11
0.663367
21
1.86197
0
LINE
8
BLACK
6
CONTINUOUS
10
1.01376
20
1.86344
11
1.01687
21
1.86136
0
LINE
8
BLACK
6
CONTINUOUS
10
1.01687
20
1.86136
11
1.01895
21
1.85825
0
LINE
8
BLACK
6
CONTINUOUS
10
1.01895
20
1.85825
11
1.01969
21
1.85458
0
LINE
8
BLACK
6
CONTINUOUS
10
1.01969
20
1.85458
11
1.01969
21
1.83538
0
LINE
8
BLACK
6
CONTINUOUS
10
1.01969
20
1.83538
11
1.01895
21
1.83171
0
LINE
8
BLACK
6
CONTINUOUS
10
1.01895
20
1.83171
11
1.01687
21
1.8286
0
LINE
8
BLACK
6
CONTINUOUS
10
1.01687
20
1.8286
11
1.01376
21
1.82652
0
LINE
8
BLACK
6
CONTINUOUS
10
1.01376
20
1.82652
11
1.01009
21
1.82579
0
LINE
8
BLACK
6
CONTINUOUS
10
1.01009
20
1.82579
11
0.974163
21
1.82579
0
LINE
8
BLACK
6
CONTINUOUS
10
0.974163
20
1.82579
11
0.970491
21
1.82652
0
LINE
8
BLACK
6
CONTINUOUS
10
0.970491
20
1.82652
11
0.967378
21
1.8286
0
LINE
8
BLACK
6
CONTINUOUS
10
0.967378
20
1.8286
11
0.965297
21
1.83171
0
LINE
8
BLACK
6
CONTINUOUS
10
0.965297
20
1.83171
11
0.964567
21
1.83538
0
LINE
8
BLACK
6
CONTINUOUS
10
0.964567
20
1.83538
11
0.964567
21
1.85458
0
LINE
8
BLACK
6
CONTINUOUS
10
0.964567
20
1.85458
11
0.965297
21
1.85825
0
LINE
8
BLACK
6
CONTINUOUS
10
0.965297
20
1.85825
11
0.967378
21
1.86136
0
LINE
8
BLACK
6
CONTINUOUS
10
0.967378
20
1.86136
11
0.970491
21
1.86344
0
LINE
8
BLACK
6
CONTINUOUS
10
0.970491
20
1.86344
11
0.974163
21
1.86417
0
LINE
8
BLACK
6
CONTINUOUS
10
0.974163
20
1.86417
11
1.01009
21
1.86417
0
LINE
8
BLACK
6
CONTINUOUS
10
1.01009
20
1.86417
11
1.01376
21
1.86344
0
LINE
8
BLACK
6
CONTINUOUS
10
0.470454
20
1.87132
11
0.473567
21
1.86924
0
LINE
8
BLACK
6
CONTINUOUS
10
0.473567
20
1.86924
11
0.475647
21
1.86612
0
LINE
8
BLACK
6
CONTINUOUS
10
0.475647
20
1.86612
11
0.476378
21
1.86245
0
LINE
8
BLACK
6
CONTINUOUS
10
0.476378
20
1.86245
11
0.476378
21
1.84326
0
LINE
8
BLACK
6
CONTINUOUS
10
0.476378
20
1.84326
11
0.475647
21
1.83959
0
LINE
8
BLACK
6
CONTINUOUS
10
0.475647
20
1.83959
11
0.473567
21
1.83647
0
LINE
8
BLACK
6
CONTINUOUS
10
0.473567
20
1.83647
11
0.470454
21
1.83439
0
LINE
8
BLACK
6
CONTINUOUS
10
0.470454
20
1.83439
11
0.466781
21
1.83366
0
LINE
8
BLACK
6
CONTINUOUS
10
0.466781
20
1.83366
11
0.430856
21
1.83366
0
LINE
8
BLACK
6
CONTINUOUS
10
0.430856
20
1.83366
11
0.427184
21
1.83439
0
LINE
8
BLACK
6
CONTINUOUS
10
0.427184
20
1.83439
11
0.424071
21
1.83647
0
LINE
8
BLACK
6
CONTINUOUS
10
0.424071
20
1.83647
11
0.42199
21
1.83959
0
LINE
8
BLACK
6
CONTINUOUS
10
0.42199
20
1.83959
11
0.42126
21
1.84326
0
LINE
8
BLACK
6
CONTINUOUS
10
0.42126
20
1.84326
11
0.42126
21
1.86245
0
LINE
8
BLACK
6
CONTINUOUS
10
0.42126
20
1.86245
11
0.42199
21
1.86612
0
LINE
8
BLACK
6
CONTINUOUS
10
0.42199
20
1.86612
11
0.424071
21
1.86924
0
LINE
8
BLACK
6
CONTINUOUS
10
0.424071
20
1.86924
11
0.427184
21
1.87132
0
LINE
8
BLACK
6
CONTINUOUS
10
0.427184
20
1.87132
11
0.430856
21
1.87205
0
LINE
8
BLACK
6
CONTINUOUS
10
0.430856
20
1.87205
11
0.466781
21
1.87205
0
LINE
8
BLACK
6
CONTINUOUS
10
0.466781
20
1.87205
11
0.470454
21
1.87132
0
LINE
8
BLACK
6
CONTINUOUS
10
0.324785
20
1.87378
11
0.327898
21
1.8717
0
LINE
8
BLACK
6
CONTINUOUS
10
0.327898
20
1.8717
11
0.329978
21
1.86858
0
LINE
8
BLACK
6
CONTINUOUS
10
0.329978
20
1.86858
11
0.330709
21
1.86491
0
LINE
8
BLACK
6
CONTINUOUS
10
0.330709
20
1.86491
11
0.330709
21
1.84572
0
LINE
8
BLACK
6
CONTINUOUS
10
0.330709
20
1.84572
11
0.329978
21
1.84205
0
LINE
8
BLACK
6
CONTINUOUS
10
0.329978
20
1.84205
11
0.327898
21
1.83893
0
LINE
8
BLACK
6
CONTINUOUS
10
0.327898
20
1.83893
11
0.324785
21
1.83685
0
LINE
8
BLACK
6
CONTINUOUS
10
0.324785
20
1.83685
11
0.321112
21
1.83612
0
LINE
8
BLACK
6
CONTINUOUS
10
0.321112
20
1.83612
11
0.285187
21
1.83612
0
LINE
8
BLACK
6
CONTINUOUS
10
0.285187
20
1.83612
11
0.281515
21
1.83685
0
LINE
8
BLACK
6
CONTINUOUS
10
0.281515
20
1.83685
11
0.278401
21
1.83893
0
LINE
8
BLACK
6
CONTINUOUS
10
0.278401
20
1.83893
11
0.276321
21
1.84205
0
LINE
8
BLACK
6
CONTINUOUS
10
0.276321
20
1.84205
11
0.275591
21
1.84572
0
LINE
8
BLACK
6
CONTINUOUS
10
0.275591
20
1.84572
11
0.275591
21
1.86491
0
LINE
8
BLACK
6
CONTINUOUS
10
0.275591
20
1.86491
11
0.276321
21
1.86858
0
LINE
8
BLACK
6
CONTINUOUS
10
0.276321
20
1.86858
11
0.278401
21
1.8717
0
LINE
8
BLACK
6
CONTINUOUS
10
0.278401
20
1.8717
11
0.281515
21
1.87378
0
LINE
8
BLACK
6
CONTINUOUS
10
0.281515
20
1.87378
11
0.285187
21
1.87451
0
LINE
8
BLACK
6
CONTINUOUS
10
0.285187
20
1.87451
11
0.321112
21
1.87451
0
LINE
8
BLACK
6
CONTINUOUS
10
0.321112
20
1.87451
11
0.324785
21
1.87378
0
LINE
8
BLACK
6
CONTINUOUS
10
1.17124
20
1.93185
11
1.17435
21
1.92977
0
LINE
8
BLACK
6
CONTINUOUS
10
1.17435
20
1.92977
11
1.17643
21
1.92665
0
LINE
8
BLACK
6
CONTINUOUS
10
1.17643
20
1.92665
11
1.17717
21
1.92298
0
LINE
8
BLACK
6
CONTINUOUS
10
1.17717
20
1.92298
11
1.17717
21
1.90379
0
LINE
8
BLACK
6
CONTINUOUS
10
1.17717
20
1.90379
11
1.17643
21
1.90012
0
LINE
8
BLACK
6
CONTINUOUS
10
1.17643
20
1.90012
11
1.17435
21
1.897
0
LINE
8
BLACK
6
CONTINUOUS
10
1.17435
20
1.897
11
1.17124
21
1.89492
0
LINE
8
BLACK
6
CONTINUOUS
10
1.17124
20
1.89492
11
1.16757
21
1.89419
0
LINE
8
BLACK
6
CONTINUOUS
10
1.16757
20
1.89419
11
1.13164
21
1.89419
0
LINE
8
BLACK
6
CONTINUOUS
10
1.13164
20
1.89419
11
1.12797
21
1.89492
0
LINE
8
BLACK
6
CONTINUOUS
10
1.12797
20
1.89492
11
1.12486
21
1.897
0
LINE
8
BLACK
6
CONTINUOUS
10
1.12486
20
1.897
11
1.12278
21
1.90012
0
LINE
8
BLACK
6
CONTINUOUS
10
1.12278
20
1.90012
11
1.12205
21
1.90379
0
LINE
8
BLACK
6
CONTINUOUS
10
1.12205
20
1.90379
11
1.12205
21
1.92298
0
LINE
8
BLACK
6
CONTINUOUS
10
1.12205
20
1.92298
11
1.12278
21
1.92665
0
LINE
8
BLACK
6
CONTINUOUS
10
1.12278
20
1.92665
11
1.12486
21
1.92977
0
LINE
8
BLACK
6
CONTINUOUS
10
1.12486
20
1.92977
11
1.12797
21
1.93185
0
LINE
8
BLACK
6
CONTINUOUS
10
1.12797
20
1.93185
11
1.13164
21
1.93258
0
LINE
8
BLACK
6
CONTINUOUS
10
1.13164
20
1.93258
11
1.16757
21
1.93258
0
LINE
8
BLACK
6
CONTINUOUS
10
1.16757
20
1.93258
11
1.17124
21
1.93185
0
LINE
8
BLACK
6
CONTINUOUS
10
0.765729
20
1.93579
11
0.768843
21
1.93371
0
LINE
8
BLACK
6
CONTINUOUS
10
0.768843
20
1.93371
11
0.770923
21
1.93059
0
LINE
8
BLACK
6
CONTINUOUS
10
0.770923
20
1.93059
11
0.771654
21
1.92692
0
LINE
8
BLACK
6
CONTINUOUS
10
0.771654
20
1.92692
11
0.771654
21
1.90773
0
LINE
8
BLACK
6
CONTINUOUS
10
0.771654
20
1.90773
11
0.770923
21
1.90405
0
LINE
8
BLACK
6
CONTINUOUS
10
0.770923
20
1.90405
11
0.768843
21
1.90094
0
LINE
8
BLACK
6
CONTINUOUS
10
0.768843
20
1.90094
11
0.765729
21
1.89886
0
LINE
8
BLACK
6
CONTINUOUS
10
0.765729
20
1.89886
11
0.762057
21
1.89813
0
LINE
8
BLACK
6
CONTINUOUS
10
0.762057
20
1.89813
11
0.726132
21
1.89813
0
LINE
8
BLACK
6
CONTINUOUS
10
0.726132
20
1.89813
11
0.722459
21
1.89886
0
LINE
8
BLACK
6
CONTINUOUS
10
0.722459
20
1.89886
11
0.719346
21
1.90094
0
LINE
8
BLACK
6
CONTINUOUS
10
0.719346
20
1.90094
11
0.717266
21
1.90405
0
LINE
8
BLACK
6
CONTINUOUS
10
0.717266
20
1.90405
11
0.716535
21
1.90773
0
LINE
8
BLACK
6
CONTINUOUS
10
0.716535
20
1.90773
11
0.716535
21
1.92692
0
LINE
8
BLACK
6
CONTINUOUS
10
0.716535
20
1.92692
11
0.717266
21
1.93059
0
LINE
8
BLACK
6
CONTINUOUS
10
0.717266
20
1.93059
11
0.719346
21
1.93371
0
LINE
8
BLACK
6
CONTINUOUS
10
0.719346
20
1.93371
11
0.722459
21
1.93579
0
LINE
8
BLACK
6
CONTINUOUS
10
0.722459
20
1.93579
11
0.726132
21
1.93652
0
LINE
8
BLACK
6
CONTINUOUS
10
0.726132
20
1.93652
11
0.762057
21
1.93652
0
LINE
8
BLACK
6
CONTINUOUS
10
0.762057
20
1.93652
11
0.765729
21
1.93579
0
LINE
8
BLACK
6
CONTINUOUS
10
0.663367
20
1.93579
11
0.666481
21
1.93371
0
LINE
8
BLACK
6
CONTINUOUS
10
0.666481
20
1.93371
11
0.668561
21
1.93059
0
LINE
8
BLACK
6
CONTINUOUS
10
0.668561
20
1.93059
11
0.669291
21
1.92692
0
LINE
8
BLACK
6
CONTINUOUS
10
0.669291
20
1.92692
11
0.669291
21
1.90773
0
LINE
8
BLACK
6
CONTINUOUS
10
0.669291
20
1.90773
11
0.668561
21
1.90405
0
LINE
8
BLACK
6
CONTINUOUS
10
0.668561
20
1.90405
11
0.666481
21
1.90094
0
LINE
8
BLACK
6
CONTINUOUS
10
0.666481
20
1.90094
11
0.663367
21
1.89886
0
LINE
8
BLACK
6
CONTINUOUS
10
0.663367
20
1.89886
11
0.659695
21
1.89813
0
LINE
8
BLACK
6
CONTINUOUS
10
0.659695
20
1.89813
11
0.62377
21
1.89813
0
LINE
8
BLACK
6
CONTINUOUS
10
0.62377
20
1.89813
11
0.620097
21
1.89886
0
LINE
8
BLACK
6
CONTINUOUS
10
0.620097
20
1.89886
11
0.616984
21
1.90094
0
LINE
8
BLACK
6
CONTINUOUS
10
0.616984
20
1.90094
11
0.614904
21
1.90405
0
LINE
8
BLACK
6
CONTINUOUS
10
0.614904
20
1.90405
11
0.614173
21
1.90773
0
LINE
8
BLACK
6
CONTINUOUS
10
0.614173
20
1.90773
11
0.614173
21
1.92692
0
LINE
8
BLACK
6
CONTINUOUS
10
0.614173
20
1.92692
11
0.614904
21
1.93059
0
LINE
8
BLACK
6
CONTINUOUS
10
0.614904
20
1.93059
11
0.616984
21
1.93371
0
LINE
8
BLACK
6
CONTINUOUS
10
0.616984
20
1.93371
11
0.620097
21
1.93579
0
LINE
8
BLACK
6
CONTINUOUS
10
0.620097
20
1.93579
11
0.62377
21
1.93652
0
LINE
8
BLACK
6
CONTINUOUS
10
0.62377
20
1.93652
11
0.659695
21
1.93652
0
LINE
8
BLACK
6
CONTINUOUS
10
0.659695
20
1.93652
11
0.663367
21
1.93579
0
LINE
8
BLACK
6
CONTINUOUS
10
0.887777
20
1.93579
11
0.89089
21
1.93371
0
LINE
8
BLACK
6
CONTINUOUS
10
0.89089
20
1.93371
11
0.89297
21
1.93059
0
LINE
8
BLACK
6
CONTINUOUS
10
0.89297
20
1.93059
11
0.893701
21
1.92692
0
LINE
8
BLACK
6
CONTINUOUS
10
0.893701
20
1.92692
11
0.893701
21
1.90773
0
LINE
8
BLACK
6
CONTINUOUS
10
0.893701
20
1.90773
11
0.89297
21
1.90405
0
LINE
8
BLACK
6
CONTINUOUS
10
0.89297
20
1.90405
11
0.89089
21
1.90094
0
LINE
8
BLACK
6
CONTINUOUS
10
0.89089
20
1.90094
11
0.887777
21
1.89886
0
LINE
8
BLACK
6
CONTINUOUS
10
0.887777
20
1.89886
11
0.884104
21
1.89813
0
LINE
8
BLACK
6
CONTINUOUS
10
0.884104
20
1.89813
11
0.848179
21
1.89813
0
LINE
8
BLACK
6
CONTINUOUS
10
0.848179
20
1.89813
11
0.844507
21
1.89886
0
LINE
8
BLACK
6
CONTINUOUS
10
0.844507
20
1.89886
11
0.841393
21
1.90094
0
LINE
8
BLACK
6
CONTINUOUS
10
0.841393
20
1.90094
11
0.839313
21
1.90405
0
LINE
8
BLACK
6
CONTINUOUS
10
0.839313
20
1.90405
11
0.838583
21
1.90773
0
LINE
8
BLACK
6
CONTINUOUS
10
0.838583
20
1.90773
11
0.838583
21
1.92692
0
LINE
8
BLACK
6
CONTINUOUS
10
0.838583
20
1.92692
11
0.839313
21
1.93059
0
LINE
8
BLACK
6
CONTINUOUS
10
0.839313
20
1.93059
11
0.841393
21
1.93371
0
LINE
8
BLACK
6
CONTINUOUS
10
0.841393
20
1.93371
11
0.844507
21
1.93579
0
LINE
8
BLACK
6
CONTINUOUS
10
0.844507
20
1.93579
11
0.848179
21
1.93652
0
LINE
8
BLACK
6
CONTINUOUS
10
0.848179
20
1.93652
11
0.884104
21
1.93652
0
LINE
8
BLACK
6
CONTINUOUS
10
0.884104
20
1.93652
11
0.887777
21
1.93579
0
LINE
8
BLACK
6
CONTINUOUS
10
1.01376
20
1.93726
11
1.01687
21
1.93518
0
LINE
8
BLACK
6
CONTINUOUS
10
1.01687
20
1.93518
11
1.01895
21
1.93207
0
LINE
8
BLACK
6
CONTINUOUS
10
1.01895
20
1.93207
11
1.01969
21
1.9284
0
LINE
8
BLACK
6
CONTINUOUS
10
1.01969
20
1.9284
11
1.01969
21
1.9092
0
LINE
8
BLACK
6
CONTINUOUS
10
1.01969
20
1.9092
11
1.01895
21
1.90553
0
LINE
8
BLACK
6
CONTINUOUS
10
1.01895
20
1.90553
11
1.01687
21
1.90242
0
LINE
8
BLACK
6
CONTINUOUS
10
1.01687
20
1.90242
11
1.01376
21
1.90034
0
LINE
8
BLACK
6
CONTINUOUS
10
1.01376
20
1.90034
11
1.01009
21
1.89961
0
LINE
8
BLACK
6
CONTINUOUS
10
1.01009
20
1.89961
11
0.974163
21
1.89961
0
LINE
8
BLACK
6
CONTINUOUS
10
0.974163
20
1.89961
11
0.970491
21
1.90034
0
LINE
8
BLACK
6
CONTINUOUS
10
0.970491
20
1.90034
11
0.967378
21
1.90242
0
LINE
8
BLACK
6
CONTINUOUS
10
0.967378
20
1.90242
11
0.965297
21
1.90553
0
LINE
8
BLACK
6
CONTINUOUS
10
0.965297
20
1.90553
11
0.964567
21
1.9092
0
LINE
8
BLACK
6
CONTINUOUS
10
0.964567
20
1.9092
11
0.964567
21
1.9284
0
LINE
8
BLACK
6
CONTINUOUS
10
0.964567
20
1.9284
11
0.965297
21
1.93207
0
LINE
8
BLACK
6
CONTINUOUS
10
0.965297
20
1.93207
11
0.967378
21
1.93518
0
LINE
8
BLACK
6
CONTINUOUS
10
0.967378
20
1.93518
11
0.970491
21
1.93726
0
LINE
8
BLACK
6
CONTINUOUS
10
0.970491
20
1.93726
11
0.974163
21
1.93799
0
LINE
8
BLACK
6
CONTINUOUS
10
0.974163
20
1.93799
11
1.01009
21
1.93799
0
LINE
8
BLACK
6
CONTINUOUS
10
1.01009
20
1.93799
11
1.01376
21
1.93726
0
LINE
8
BLACK
6
CONTINUOUS
10
0.470454
20
1.94514
11
0.473567
21
1.94306
0
LINE
8
BLACK
6
CONTINUOUS
10
0.473567
20
1.94306
11
0.475647
21
1.93994
0
LINE
8
BLACK
6
CONTINUOUS
10
0.475647
20
1.93994
11
0.476378
21
1.93627
0
LINE
8
BLACK
6
CONTINUOUS
10
0.476378
20
1.93627
11
0.476378
21
1.91708
0
LINE
8
BLACK
6
CONTINUOUS
10
0.476378
20
1.91708
11
0.475647
21
1.9134
0
LINE
8
BLACK
6
CONTINUOUS
10
0.475647
20
1.9134
11
0.473567
21
1.91029
0
LINE
8
BLACK
6
CONTINUOUS
10
0.473567
20
1.91029
11
0.470454
21
1.90821
0
LINE
8
BLACK
6
CONTINUOUS
10
0.470454
20
1.90821
11
0.466781
21
1.90748
0
LINE
8
BLACK
6
CONTINUOUS
10
0.466781
20
1.90748
11
0.430856
21
1.90748
0
LINE
8
BLACK
6
CONTINUOUS
10
0.430856
20
1.90748
11
0.427184
21
1.90821
0
LINE
8
BLACK
6
CONTINUOUS
10
0.427184
20
1.90821
11
0.424071
21
1.91029
0
LINE
8
BLACK
6
CONTINUOUS
10
0.424071
20
1.91029
11
0.42199
21
1.9134
0
LINE
8
BLACK
6
CONTINUOUS
10
0.42199
20
1.9134
11
0.42126
21
1.91708
0
LINE
8
BLACK
6
CONTINUOUS
10
0.42126
20
1.91708
11
0.42126
21
1.93627
0
LINE
8
BLACK
6
CONTINUOUS
10
0.42126
20
1.93627
11
0.42199
21
1.93994
0
LINE
8
BLACK
6
CONTINUOUS
10
0.42199
20
1.93994
11
0.424071
21
1.94306
0
LINE
8
BLACK
6
CONTINUOUS
10
0.424071
20
1.94306
11
0.427184
21
1.94514
0
LINE
8
BLACK
6
CONTINUOUS
10
0.427184
20
1.94514
11
0.430856
21
1.94587
0
LINE
8
BLACK
6
CONTINUOUS
10
0.430856
20
1.94587
11
0.466781
21
1.94587
0
LINE
8
BLACK
6
CONTINUOUS
10
0.466781
20
1.94587
11
0.470454
21
1.94514
0
LINE
8
BLACK
6
CONTINUOUS
10
0.324785
20
1.9476
11
0.327898
21
1.94552
0
LINE
8
BLACK
6
CONTINUOUS
10
0.327898
20
1.94552
11
0.329978
21
1.9424
0
LINE
8
BLACK
6
CONTINUOUS
10
0.329978
20
1.9424
11
0.330709
21
1.93873
0
LINE
8
BLACK
6
CONTINUOUS
10
0.330709
20
1.93873
11
0.330709
21
1.91954
0
LINE
8
BLACK
6
CONTINUOUS
10
0.330709
20
1.91954
11
0.329978
21
1.91586
0
LINE
8
BLACK
6
CONTINUOUS
10
0.329978
20
1.91586
11
0.327898
21
1.91275
0
LINE
8
BLACK
6
CONTINUOUS
10
0.327898
20
1.91275
11
0.324785
21
1.91067
0
LINE
8
BLACK
6
CONTINUOUS
10
0.324785
20
1.91067
11
0.321112
21
1.90994
0
LINE
8
BLACK
6
CONTINUOUS
10
0.321112
20
1.90994
11
0.285187
21
1.90994
0
LINE
8
BLACK
6
CONTINUOUS
10
0.285187
20
1.90994
11
0.281515
21
1.91067
0
LINE
8
BLACK
6
CONTINUOUS
10
0.281515
20
1.91067
11
0.278401
21
1.91275
0
LINE
8
BLACK
6
CONTINUOUS
10
0.278401
20
1.91275
11
0.276321
21
1.91586
0
LINE
8
BLACK
6
CONTINUOUS
10
0.276321
20
1.91586
11
0.275591
21
1.91954
0
LINE
8
BLACK
6
CONTINUOUS
10
0.275591
20
1.91954
11
0.275591
21
1.93873
0
LINE
8
BLACK
6
CONTINUOUS
10
0.275591
20
1.93873
11
0.276321
21
1.9424
0
LINE
8
BLACK
6
CONTINUOUS
10
0.276321
20
1.9424
11
0.278401
21
1.94552
0
LINE
8
BLACK
6
CONTINUOUS
10
0.278401
20
1.94552
11
0.281515
21
1.9476
0
LINE
8
BLACK
6
CONTINUOUS
10
0.281515
20
1.9476
11
0.285187
21
1.94833
0
LINE
8
BLACK
6
CONTINUOUS
10
0.285187
20
1.94833
11
0.321112
21
1.94833
0
LINE
8
BLACK
6
CONTINUOUS
10
0.321112
20
1.94833
11
0.324785
21
1.9476
0
LINE
8
BLACK
6
CONTINUOUS
10
1.57567
20
1.98969
11
1.51567
21
1.98969
0
LINE
8
BLACK
6
CONTINUOUS
10
1.51567
20
1.98969
11
1.51567
21
2.04969
0
LINE
8
BLACK
6
CONTINUOUS
10
1.51567
20
2.04969
11
1.57567
21
2.04969
0
LINE
8
BLACK
6
CONTINUOUS
10
1.57567
20
2.04969
11
1.57567
21
1.98969
0
LINE
8
BLACK
6
CONTINUOUS
10
1.67567
20
1.98969
11
1.61567
21
1.98969
0
LINE
8
BLACK
6
CONTINUOUS
10
1.61567
20
1.98969
11
1.61567
21
2.04969
0
LINE
8
BLACK
6
CONTINUOUS
10
1.61567
20
2.04969
11
1.67567
21
2.04969
0
LINE
8
BLACK
6
CONTINUOUS
10
1.67567
20
2.04969
11
1.67567
21
1.98969
0
LINE
8
BLACK
6
CONTINUOUS
10
1.77567
20
1.98969
11
1.71567
21
1.98969
0
LINE
8
BLACK
6
CONTINUOUS
10
1.71567
20
1.98969
11
1.71567
21
2.04969
0
LINE
8
BLACK
6
CONTINUOUS
10
1.71567
20
2.04969
11
1.77567
21
2.04969
0
LINE
8
BLACK
6
CONTINUOUS
10
1.77567
20
2.04969
11
1.77567
21
1.98969
0
LINE
8
BLACK
6
CONTINUOUS
10
1.87567
20
1.98969
11
1.81567
21
1.98969
0
LINE
8
BLACK
6
CONTINUOUS
10
1.81567
20
1.98969
11
1.81567
21
2.04969
0
LINE
8
BLACK
6
CONTINUOUS
10
1.81567
20
2.04969
11
1.87567
21
2.04969
0
LINE
8
BLACK
6
CONTINUOUS
10
1.87567
20
2.04969
11
1.87567
21
1.98969
0
LINE
8
BLACK
6
CONTINUOUS
10
1.97567
20
1.98969
11
1.91567
21
1.98969
0
LINE
8
BLACK
6
CONTINUOUS
10
1.91567
20
1.98969
11
1.91567
21
2.04969
0
LINE
8
BLACK
6
CONTINUOUS
10
1.91567
20
2.04969
11
1.97567
21
2.04969
0
LINE
8
BLACK
6
CONTINUOUS
10
1.97567
20
2.04969
11
1.97567
21
1.98969
0
LINE
8
BLACK
6
CONTINUOUS
10
1.17567
20
1.98969
11
1.11567
21
1.98969
0
LINE
8
BLACK
6
CONTINUOUS
10
1.11567
20
1.98969
11
1.11567
21
2.04969
0
LINE
8
BLACK
6
CONTINUOUS
10
1.11567
20
2.04969
11
1.17567
21
2.04969
0
LINE
8
BLACK
6
CONTINUOUS
10
1.17567
20
2.04969
11
1.17567
21
1.98969
0
LINE
8
BLACK
6
CONTINUOUS
10
1.37567
20
1.98969
11
1.31567
21
1.98969
0
LINE
8
BLACK
6
CONTINUOUS
10
1.31567
20
1.98969
11
1.31567
21
2.04969
0
LINE
8
BLACK
6
CONTINUOUS
10
1.31567
20
2.04969
11
1.37567
21
2.04969
0
LINE
8
BLACK
6
CONTINUOUS
10
1.37567
20
2.04969
11
1.37567
21
1.98969
0
LINE
8
BLACK
6
CONTINUOUS
10
1.27567
20
1.98969
11
1.21567
21
1.98969
0
LINE
8
BLACK
6
CONTINUOUS
10
1.21567
20
1.98969
11
1.21567
21
2.04969
0
LINE
8
BLACK
6
CONTINUOUS
10
1.21567
20
2.04969
11
1.27567
21
2.04969
0
LINE
8
BLACK
6
CONTINUOUS
10
1.27567
20
2.04969
11
1.27567
21
1.98969
0
LINE
8
BLACK
6
CONTINUOUS
10
1.07567
20
1.98969
11
1.01567
21
1.98969
0
LINE
8
BLACK
6
CONTINUOUS
10
1.01567
20
1.98969
11
1.01567
21
2.04969
0
LINE
8
BLACK
6
CONTINUOUS
10
1.01567
20
2.04969
11
1.07567
21
2.04969
0
LINE
8
BLACK
6
CONTINUOUS
10
1.07567
20
2.04969
11
1.07567
21
1.98969
0
LINE
8
BLACK
6
CONTINUOUS
10
0.975669
20
1.98969
11
0.915669
21
1.98969
0
LINE
8
BLACK
6
CONTINUOUS
10
0.915669
20
1.98969
11
0.915669
21
2.04969
0
LINE
8
BLACK
6
CONTINUOUS
10
0.915669
20
2.04969
11
0.975669
21
2.04969
0
LINE
8
BLACK
6
CONTINUOUS
10
0.975669
20
2.04969
11
0.975669
21
1.98969
0
LINE
8
BLACK
6
CONTINUOUS
10
0.875669
20
1.98969
11
0.815669
21
1.98969
0
LINE
8
BLACK
6
CONTINUOUS
10
0.815669
20
1.98969
11
0.815669
21
2.04969
0
LINE
8
BLACK
6
CONTINUOUS
10
0.815669
20
2.04969
11
0.875669
21
2.04969
0
LINE
8
BLACK
6
CONTINUOUS
10
0.875669
20
2.04969
11
0.875669
21
1.98969
0
LINE
8
BLACK
6
CONTINUOUS
10
0.775669
20
1.98969
11
0.715669
21
1.98969
0
LINE
8
BLACK
6
CONTINUOUS
10
0.715669
20
1.98969
11
0.715669
21
2.04969
0
LINE
8
BLACK
6
CONTINUOUS
10
0.715669
20
2.04969
11
0.775669
21
2.04969
0
LINE
8
BLACK
6
CONTINUOUS
10
0.775669
20
2.04969
11
0.775669
21
1.98969
0
LINE
8
BLACK
6
CONTINUOUS
10
0.675669
20
1.98969
11
0.615669
21
1.98969
0
LINE
8
BLACK
6
CONTINUOUS
10
0.615669
20
1.98969
11
0.615669
21
2.04969
0
LINE
8
BLACK
6
CONTINUOUS
10
0.615669
20
2.04969
11
0.675669
21
2.04969
0
LINE
8
BLACK
6
CONTINUOUS
10
0.675669
20
2.04969
11
0.675669
21
1.98969
0
LINE
8
BLACK
6
CONTINUOUS
10
0.475669
20
1.98969
11
0.415669
21
1.98969
0
LINE
8
BLACK
6
CONTINUOUS
10
0.415669
20
1.98969
11
0.415669
21
2.04969
0
LINE
8
BLACK
6
CONTINUOUS
10
0.415669
20
2.04969
11
0.475669
21
2.04969
0
LINE
8
BLACK
6
CONTINUOUS
10
0.475669
20
2.04969
11
0.475669
21
1.98969
0
LINE
8
BLACK
6
CONTINUOUS
10
0.375669
20
1.98969
11
0.315669
21
1.98969
0
LINE
8
BLACK
6
CONTINUOUS
10
0.315669
20
1.98969
11
0.315669
21
2.04969
0
LINE
8
BLACK
6
CONTINUOUS
10
0.315669
20
2.04969
11
0.375669
21
2.04969
0
LINE
8
BLACK
6
CONTINUOUS
10
0.375669
20
2.04969
11
0.375669
21
1.98969
0
LINE
8
BLACK
6
CONTINUOUS
10
0.275669
20
1.98969
11
0.215669
21
1.98969
0
LINE
8
BLACK
6
CONTINUOUS
10
0.215669
20
1.98969
11
0.215669
21
2.04969
0
LINE
8
BLACK
6
CONTINUOUS
10
0.215669
20
2.04969
11
0.275669
21
2.04969
0
LINE
8
BLACK
6
CONTINUOUS
10
0.275669
20
2.04969
11
0.275669
21
1.98969
0
LINE
8
BLACK
6
CONTINUOUS
10
0.175669
20
1.98969
11
0.115669
21
1.98969
0
LINE
8
BLACK
6
CONTINUOUS
10
0.115669
20
1.98969
11
0.115669
21
2.04969
0
LINE
8
BLACK
6
CONTINUOUS
10
0.115669
20
2.04969
11
0.175669
21
2.04969
0
LINE
8
BLACK
6
CONTINUOUS
10
0.175669
20
2.04969
11
0.175669
21
1.98969
0
LINE
8
BLACK
6
CONTINUOUS
10
0.575669
20
1.98969
11
0.515669
21
1.98969
0
LINE
8
BLACK
6
CONTINUOUS
10
0.515669
20
1.98969
11
0.515669
21
2.04969
0
LINE
8
BLACK
6
CONTINUOUS
10
0.515669
20
2.04969
11
0.575669
21
2.04969
0
LINE
8
BLACK
6
CONTINUOUS
10
0.575669
20
2.04969
11
0.575669
21
1.98969
0
LINE
8
BLACK
6
CONTINUOUS
10
1.47567
20
1.98969
11
1.41567
21
1.98969
0
LINE
8
BLACK
6
CONTINUOUS
10
1.41567
20
1.98969
11
1.41567
21
2.04969
0
LINE
8
BLACK
6
CONTINUOUS
10
1.41567
20
2.04969
11
1.47567
21
2.04969
0
LINE
8
BLACK
6
CONTINUOUS
10
1.47567
20
2.04969
11
1.47567
21
1.98969
0
LINE
8
BLACK
6
CONTINUOUS
10
0.0756693
20
1.98969
11
0.0156693
21
1.98969
0
LINE
8
BLACK
6
CONTINUOUS
10
0.0156693
20
1.98969
11
0.0156693
21
2.04969
0
LINE
8
BLACK
6
CONTINUOUS
10
0.0156693
20
2.04969
11
0.0756693
21
2.04969
0
LINE
8
BLACK
6
CONTINUOUS
10
0.0756693
20
2.04969
11
0.0756693
21
1.98969
0
LINE
8
BLACK
6
CONTINUOUS
10
1.68906
20
2.13535
11
1.62906
21
2.13535
0
LINE
8
BLACK
6
CONTINUOUS
10
1.62906
20
2.13535
11
1.62906
21
2.19535
0
LINE
8
BLACK
6
CONTINUOUS
10
1.62906
20
2.19535
11
1.68906
21
2.19535
0
LINE
8
BLACK
6
CONTINUOUS
10
1.68906
20
2.19535
11
1.68906
21
2.13535
0
LINE
8
BLACK
6
CONTINUOUS
10
1.58906
20
2.13535
11
1.52906
21
2.13535
0
LINE
8
BLACK
6
CONTINUOUS
10
1.52906
20
2.13535
11
1.52906
21
2.19535
0
LINE
8
BLACK
6
CONTINUOUS
10
1.52906
20
2.19535
11
1.58906
21
2.19535
0
LINE
8
BLACK
6
CONTINUOUS
10
1.58906
20
2.19535
11
1.58906
21
2.13535
0
LINE
8
BLACK
6
CONTINUOUS
10
1.48906
20
2.13535
11
1.42906
21
2.13535
0
LINE
8
BLACK
6
CONTINUOUS
10
1.42906
20
2.13535
11
1.42906
21
2.19535
0
LINE
8
BLACK
6
CONTINUOUS
10
1.42906
20
2.19535
11
1.48906
21
2.19535
0
LINE
8
BLACK
6
CONTINUOUS
10
1.48906
20
2.19535
11
1.48906
21
2.13535
0
LINE
8
BLACK
6
CONTINUOUS
10
0.980315
20
2.15945
11
0.929134
21
2.15945
0
LINE
8
BLACK
6
CONTINUOUS
10
0.929134
20
2.15945
11
0.929134
21
2.22638
0
LINE
8
BLACK
6
CONTINUOUS
10
0.929134
20
2.22638
11
0.980315
21
2.22638
0
LINE
8
BLACK
6
CONTINUOUS
10
0.980315
20
2.22638
11
0.980315
21
2.15945
0
LINE
8
BLACK
6
CONTINUOUS
10
0.84252
20
2.15945
11
0.791339
21
2.15945
0
LINE
8
BLACK
6
CONTINUOUS
10
0.791339
20
2.15945
11
0.791339
21
2.22638
0
LINE
8
BLACK
6
CONTINUOUS
10
0.791339
20
2.22638
11
0.84252
21
2.22638
0
LINE
8
BLACK
6
CONTINUOUS
10
0.84252
20
2.22638
11
0.84252
21
2.15945
0
LINE
8
BLACK
6
CONTINUOUS
10
1.21455
20
2.20055
11
1.21766
21
2.19847
0
LINE
8
BLACK
6
CONTINUOUS
10
1.21766
20
2.19847
11
1.21974
21
2.19536
0
LINE
8
BLACK
6
CONTINUOUS
10
1.21974
20
2.19536
11
1.22047
21
2.19168
0
LINE
8
BLACK
6
CONTINUOUS
10
1.22047
20
2.19168
11
1.22047
21
2.17249
0
LINE
8
BLACK
6
CONTINUOUS
10
1.22047
20
2.17249
11
1.21974
21
2.16882
0
LINE
8
BLACK
6
CONTINUOUS
10
1.21974
20
2.16882
11
1.21766
21
2.1657
0
LINE
8
BLACK
6
CONTINUOUS
10
1.21766
20
2.1657
11
1.21455
21
2.16362
0
LINE
8
BLACK
6
CONTINUOUS
10
1.21455
20
2.16362
11
1.21088
21
2.16289
0
LINE
8
BLACK
6
CONTINUOUS
10
1.21088
20
2.16289
11
1.17495
21
2.16289
0
LINE
8
BLACK
6
CONTINUOUS
10
1.17495
20
2.16289
11
1.17128
21
2.16362
0
LINE
8
BLACK
6
CONTINUOUS
10
1.17128
20
2.16362
11
1.16817
21
2.1657
0
LINE
8
BLACK
6
CONTINUOUS
10
1.16817
20
2.1657
11
1.16608
21
2.16882
0
LINE
8
BLACK
6
CONTINUOUS
10
1.16608
20
2.16882
11
1.16535
21
2.17249
0
LINE
8
BLACK
6
CONTINUOUS
10
1.16535
20
2.17249
11
1.16535
21
2.19168
0
LINE
8
BLACK
6
CONTINUOUS
10
1.16535
20
2.19168
11
1.16608
21
2.19536
0
LINE
8
BLACK
6
CONTINUOUS
10
1.16608
20
2.19536
11
1.16817
21
2.19847
0
LINE
8
BLACK
6
CONTINUOUS
10
1.16817
20
2.19847
11
1.17128
21
2.20055
0
LINE
8
BLACK
6
CONTINUOUS
10
1.17128
20
2.20055
11
1.17495
21
2.20128
0
LINE
8
BLACK
6
CONTINUOUS
10
1.17495
20
2.20128
11
1.21088
21
2.20128
0
LINE
8
BLACK
6
CONTINUOUS
10
1.21088
20
2.20128
11
1.21455
21
2.20055
0
LINE
8
BLACK
6
CONTINUOUS
10
1.13581
20
2.20055
11
1.13892
21
2.19847
0
LINE
8
BLACK
6
CONTINUOUS
10
1.13892
20
2.19847
11
1.141
21
2.19536
0
LINE
8
BLACK
6
CONTINUOUS
10
1.141
20
2.19536
11
1.14173
21
2.19168
0
LINE
8
BLACK
6
CONTINUOUS
10
1.14173
20
2.19168
11
1.14173
21
2.17249
0
LINE
8
BLACK
6
CONTINUOUS
10
1.14173
20
2.17249
11
1.141
21
2.16882
0
LINE
8
BLACK
6
CONTINUOUS
10
1.141
20
2.16882
11
1.13892
21
2.1657
0
LINE
8
BLACK
6
CONTINUOUS
10
1.13892
20
2.1657
11
1.13581
21
2.16362
0
LINE
8
BLACK
6
CONTINUOUS
10
1.13581
20
2.16362
11
1.13214
21
2.16289
0
LINE
8
BLACK
6
CONTINUOUS
10
1.13214
20
2.16289
11
1.09621
21
2.16289
0
LINE
8
BLACK
6
CONTINUOUS
10
1.09621
20
2.16289
11
1.09254
21
2.16362
0
LINE
8
BLACK
6
CONTINUOUS
10
1.09254
20
2.16362
11
1.08942
21
2.1657
0
LINE
8
BLACK
6
CONTINUOUS
10
1.08942
20
2.1657
11
1.08734
21
2.16882
0
LINE
8
BLACK
6
CONTINUOUS
10
1.08734
20
2.16882
11
1.08661
21
2.17249
0
LINE
8
BLACK
6
CONTINUOUS
10
1.08661
20
2.17249
11
1.08661
21
2.19168
0
LINE
8
BLACK
6
CONTINUOUS
10
1.08661
20
2.19168
11
1.08734
21
2.19536
0
LINE
8
BLACK
6
CONTINUOUS
10
1.08734
20
2.19536
11
1.08942
21
2.19847
0
LINE
8
BLACK
6
CONTINUOUS
10
1.08942
20
2.19847
11
1.09254
21
2.20055
0
LINE
8
BLACK
6
CONTINUOUS
10
1.09254
20
2.20055
11
1.09621
21
2.20128
0
LINE
8
BLACK
6
CONTINUOUS
10
1.09621
20
2.20128
11
1.13214
21
2.20128
0
LINE
8
BLACK
6
CONTINUOUS
10
1.13214
20
2.20128
11
1.13581
21
2.20055
0
LINE
8
BLACK
6
CONTINUOUS
10
1.21455
20
2.27437
11
1.21766
21
2.27229
0
LINE
8
BLACK
6
CONTINUOUS
10
1.21766
20
2.27229
11
1.21974
21
2.26917
0
LINE
8
BLACK
6
CONTINUOUS
10
1.21974
20
2.26917
11
1.22047
21
2.2655
0
LINE
8
BLACK
6
CONTINUOUS
10
1.22047
20
2.2655
11
1.22047
21
2.24631
0
LINE
8
BLACK
6
CONTINUOUS
10
1.22047
20
2.24631
11
1.21974
21
2.24264
0
LINE
8
BLACK
6
CONTINUOUS
10
1.21974
20
2.24264
11
1.21766
21
2.23952
0
LINE
8
BLACK
6
CONTINUOUS
10
1.21766
20
2.23952
11
1.21455
21
2.23744
0
LINE
8
BLACK
6
CONTINUOUS
10
1.21455
20
2.23744
11
1.21088
21
2.23671
0
LINE
8
BLACK
6
CONTINUOUS
10
1.21088
20
2.23671
11
1.17495
21
2.23671
0
LINE
8
BLACK
6
CONTINUOUS
10
1.17495
20
2.23671
11
1.17128
21
2.23744
0
LINE
8
BLACK
6
CONTINUOUS
10
1.17128
20
2.23744
11
1.16817
21
2.23952
0
LINE
8
BLACK
6
CONTINUOUS
10
1.16817
20
2.23952
11
1.16608
21
2.24264
0
LINE
8
BLACK
6
CONTINUOUS
10
1.16608
20
2.24264
11
1.16535
21
2.24631
0
LINE
8
BLACK
6
CONTINUOUS
10
1.16535
20
2.24631
11
1.16535
21
2.2655
0
LINE
8
BLACK
6
CONTINUOUS
10
1.16535
20
2.2655
11
1.16608
21
2.26917
0
LINE
8
BLACK
6
CONTINUOUS
10
1.16608
20
2.26917
11
1.16817
21
2.27229
0
LINE
8
BLACK
6
CONTINUOUS
10
1.16817
20
2.27229
11
1.17128
21
2.27437
0
LINE
8
BLACK
6
CONTINUOUS
10
1.17128
20
2.27437
11
1.17495
21
2.2751
0
LINE
8
BLACK
6
CONTINUOUS
10
1.17495
20
2.2751
11
1.21088
21
2.2751
0
LINE
8
BLACK
6
CONTINUOUS
10
1.21088
20
2.2751
11
1.21455
21
2.27437
0
LINE
8
BLACK
6
CONTINUOUS
10
1.13581
20
2.27437
11
1.13892
21
2.27229
0
LINE
8
BLACK
6
CONTINUOUS
10
1.13892
20
2.27229
11
1.141
21
2.26917
0
LINE
8
BLACK
6
CONTINUOUS
10
1.141
20
2.26917
11
1.14173
21
2.2655
0
LINE
8
BLACK
6
CONTINUOUS
10
1.14173
20
2.2655
11
1.14173
21
2.24631
0
LINE
8
BLACK
6
CONTINUOUS
10
1.14173
20
2.24631
11
1.141
21
2.24264
0
LINE
8
BLACK
6
CONTINUOUS
10
1.141
20
2.24264
11
1.13892
21
2.23952
0
LINE
8
BLACK
6
CONTINUOUS
10
1.13892
20
2.23952
11
1.13581
21
2.23744
0
LINE
8
BLACK
6
CONTINUOUS
10
1.13581
20
2.23744
11
1.13214
21
2.23671
0
LINE
8
BLACK
6
CONTINUOUS
10
1.13214
20
2.23671
11
1.09621
21
2.23671
0
LINE
8
BLACK
6
CONTINUOUS
10
1.09621
20
2.23671
11
1.09254
21
2.23744
0
LINE
8
BLACK
6
CONTINUOUS
10
1.09254
20
2.23744
11
1.08942
21
2.23952
0
LINE
8
BLACK
6
CONTINUOUS
10
1.08942
20
2.23952
11
1.08734
21
2.24264
0
LINE
8
BLACK
6
CONTINUOUS
10
1.08734
20
2.24264
11
1.08661
21
2.24631
0
LINE
8
BLACK
6
CONTINUOUS
10
1.08661
20
2.24631
11
1.08661
21
2.2655
0
LINE
8
BLACK
6
CONTINUOUS
10
1.08661
20
2.2655
11
1.08734
21
2.26917
0
LINE
8
BLACK
6
CONTINUOUS
10
1.08734
20
2.26917
11
1.08942
21
2.27229
0
LINE
8
BLACK
6
CONTINUOUS
10
1.08942
20
2.27229
11
1.09254
21
2.27437
0
LINE
8
BLACK
6
CONTINUOUS
10
1.09254
20
2.27437
11
1.09621
21
2.2751
0
LINE
8
BLACK
6
CONTINUOUS
10
1.09621
20
2.2751
11
1.13214
21
2.2751
0
LINE
8
BLACK
6
CONTINUOUS
10
1.13214
20
2.2751
11
1.13581
21
2.27437
0
LINE
8
BLACK
6
CONTINUOUS
10
0.0086502
20
2.51779
11
0.0221317
21
2.51602
0
LINE
8
BLACK
6
CONTINUOUS
10
0.0221317
20
2.51602
11
0.0353198
21
2.51271
0
LINE
8
BLACK
6
CONTINUOUS
10
0.0353198
20
2.51271
11
0.0480398
21
2.5079
0
LINE
8
BLACK
6
CONTINUOUS
10
0.0480398
20
2.5079
11
0.060123
21
2.50166
0
LINE
8
BLACK
6
CONTINUOUS
10
0.060123
20
2.50166
11
0.0714093
21
2.49408
0
LINE
8
BLACK
6
CONTINUOUS
10
0.0714093
20
2.49408
11
0.0817492
21
2.48525
0
LINE
8
BLACK
6
CONTINUOUS
10
0.0817492
20
2.48525
11
0.0910055
21
2.47529
0
LINE
8
BLACK
6
CONTINUOUS
10
0.0910055
20
2.47529
11
0.0990556
21
2.46433
0
LINE
8
BLACK
6
CONTINUOUS
10
0.0990556
20
2.46433
11
0.105793
21
2.45252
0
LINE
8
BLACK
6
CONTINUOUS
10
0.105793
20
2.45252
11
0.111128
21
2.44001
0
LINE
8
BLACK
6
CONTINUOUS
10
0.111128
20
2.44001
11
0.11499
21
2.42697
0
LINE
8
BLACK
6
CONTINUOUS
10
0.11499
20
2.42697
11
0.117327
21
2.41358
0
LINE
8
BLACK
6
CONTINUOUS
10
0.117327
20
2.41358
11
0.11811
21
2.4
0
LINE
8
BLACK
6
CONTINUOUS
10
0.11811
20
2.4
11
0.117877
21
2.39258
0
LINE
8
BLACK
6
CONTINUOUS
10
0.117877
20
2.39258
11
0.116244
21
2.37908
0
LINE
8
BLACK
6
CONTINUOUS
10
0.116244
20
2.37908
11
0.113069
21
2.36586
0
LINE
8
BLACK
6
CONTINUOUS
10
0.113069
20
2.36586
11
0.108396
21
2.35309
0
LINE
8
BLACK
6
CONTINUOUS
10
0.108396
20
2.35309
11
0.102286
21
2.34094
0
LINE
8
BLACK
6
CONTINUOUS
10
0.102286
20
2.34094
11
0.0948209
21
2.32958
0
LINE
8
BLACK
6
CONTINUOUS
10
0.0948209
20
2.32958
11
0.0860987
21
2.31915
0
LINE
8
BLACK
6
CONTINUOUS
10
0.0860987
20
2.31915
11
0.0762352
21
2.30979
0
LINE
8
BLACK
6
CONTINUOUS
10
0.0762352
20
2.30979
11
0.0653612
21
2.30162
0
LINE
8
BLACK
6
CONTINUOUS
10
0.0653612
20
2.30162
11
0.0536209
21
2.29476
0
LINE
8
BLACK
6
CONTINUOUS
10
0.0536209
20
2.29476
11
0.0411699
21
2.2893
0
LINE
8
BLACK
6
CONTINUOUS
10
0.0411699
20
2.2893
11
0.0281732
21
2.2853
0
LINE
8
BLACK
6
CONTINUOUS
10
0.0281732
20
2.2853
11
0.0148031
21
2.28282
0
LINE
8
BLACK
6
CONTINUOUS
10
0.0148031
20
2.28282
11
0.00123681
21
2.2819
0
LINE
8
BLACK
6
CONTINUOUS
10
0.00123681
20
2.2819
11
-0.0123459
21
2.28254
0
LINE
8
BLACK
6
CONTINUOUS
10
-0.0123459
20
2.28254
11
-0.025765
21
2.28473
0
LINE
8
BLACK
6
CONTINUOUS
10
-0.025765
20
2.28473
11
-0.0388425
21
2.28846
0
LINE
8
BLACK
6
CONTINUOUS
10
-0.0388425
20
2.28846
11
-0.0514052
21
2.29366
0
LINE
8
BLACK
6
CONTINUOUS
10
-0.0514052
20
2.29366
11
-0.0632866
21
2.30028
0
LINE
8
BLACK
6
CONTINUOUS
10
-0.0632866
20
2.30028
11
-0.0743292
21
2.30821
0
LINE
8
BLACK
6
CONTINUOUS
10
-0.0743292
20
2.30821
11
-0.0843865
21
2.31736
0
LINE
8
BLACK
6
CONTINUOUS
10
-0.0843865
20
2.31736
11
-0.0933254
21
2.32761
0
LINE
8
BLACK
6
CONTINUOUS
10
-0.0933254
20
2.32761
11
-0.101027
21
2.33882
0
LINE
8
BLACK
6
CONTINUOUS
10
-0.101027
20
2.33882
11
-0.10739
21
2.35083
0
LINE
8
BLACK
6
CONTINUOUS
10
-0.10739
20
2.35083
11
-0.11233
21
2.3635
0
LINE
8
BLACK
6
CONTINUOUS
10
-0.11233
20
2.3635
11
-0.11578
21
2.37665
0
LINE
8
BLACK
6
CONTINUOUS
10
-0.11578
20
2.37665
11
-0.117696
21
2.39012
0
LINE
8
BLACK
6
CONTINUOUS
10
-0.117696
20
2.39012
11
-0.118052
21
2.40371
0
LINE
8
BLACK
6
CONTINUOUS
10
-0.118052
20
2.40371
11
-0.116843
21
2.41725
0
LINE
8
BLACK
6
CONTINUOUS
10
-0.116843
20
2.41725
11
-0.114086
21
2.43057
0
LINE
8
BLACK
6
CONTINUOUS
10
-0.114086
20
2.43057
11
-0.109816
21
2.44348
0
LINE
8
BLACK
6
CONTINUOUS
10
-0.109816
20
2.44348
11
-0.104091
21
2.45581
0
LINE
8
BLACK
6
CONTINUOUS
10
-0.104091
20
2.45581
11
-0.0969861
21
2.46741
0
LINE
8
BLACK
6
CONTINUOUS
10
-0.0969861
20
2.46741
11
-0.0885958
21
2.47811
0
LINE
8
BLACK
6
CONTINUOUS
10
-0.0885958
20
2.47811
11
-0.0790312
21
2.48777
0
LINE
8
BLACK
6
CONTINUOUS
10
-0.0790312
20
2.48777
11
-0.0684191
21
2.49627
0
LINE
8
BLACK
6
CONTINUOUS
10
-0.0684191
20
2.49627
11
-0.0569
21
2.5035
0
LINE
8
BLACK
6
CONTINUOUS
10
-0.0569
20
2.5035
11
-0.0446269
21
2.50935
0
LINE
8
BLACK
6
CONTINUOUS
10
-0.0446269
20
2.50935
11
-0.0317622
21
2.51376
0
LINE
8
BLACK
6
CONTINUOUS
10
-0.0317622
20
2.51376
11
-0.0184765
21
2.51666
0
LINE
8
BLACK
6
CONTINUOUS
10
-0.0184765
20
2.51666
11
-0.00494594
21
2.51801
0
LINE
8
BLACK
6
CONTINUOUS
10
-0.00494594
20
2.51801
11
0.0086502
21
2.51779
0
LINE
8
BLACK
6
CONTINUOUS
10
2.00865
20
2.51779
11
2.02213
21
2.51602
0
LINE
8
BLACK
6
CONTINUOUS
10
2.02213
20
2.51602
11
2.03532
21
2.51271
0
LINE
8
BLACK
6
CONTINUOUS
10
2.03532
20
2.51271
11
2.04804
21
2.5079
0
LINE
8
BLACK
6
CONTINUOUS
10
2.04804
20
2.5079
11
2.06012
21
2.50166
0
LINE
8
BLACK
6
CONTINUOUS
10
2.06012
20
2.50166
11
2.07141
21
2.49408
0
LINE
8
BLACK
6
CONTINUOUS
10
2.07141
20
2.49408
11
2.08175
21
2.48525
0
LINE
8
BLACK
6
CONTINUOUS
10
2.08175
20
2.48525
11
2.09101
21
2.47529
0
LINE
8
BLACK
6
CONTINUOUS
10
2.09101
20
2.47529
11
2.09906
21
2.46433
0
LINE
8
BLACK
6
CONTINUOUS
10
2.09906
20
2.46433
11
2.10579
21
2.45252
0
LINE
8
BLACK
6
CONTINUOUS
10
2.10579
20
2.45252
11
2.11113
21
2.44001
0
LINE
8
BLACK
6
CONTINUOUS
10
2.11113
20
2.44001
11
2.11499
21
2.42697
0
LINE
8
BLACK
6
CONTINUOUS
10
2.11499
20
2.42697
11
2.11733
21
2.41358
0
LINE
8
BLACK
6
CONTINUOUS
10
2.11733
20
2.41358
11
2.11811
21
2.4
0
LINE
8
BLACK
6
CONTINUOUS
10
2.11811
20
2.4
11
2.11788
21
2.39258
0
LINE
8
BLACK
6
CONTINUOUS
10
2.11788
20
2.39258
11
2.11624
21
2.37908
0
LINE
8
BLACK
6
CONTINUOUS
10
2.11624
20
2.37908
11
2.11307
21
2.36586
0
LINE
8
BLACK
6
CONTINUOUS
10
2.11307
20
2.36586
11
2.1084
21
2.35309
0
LINE
8
BLACK
6
CONTINUOUS
10
2.1084
20
2.35309
11
2.10229
21
2.34094
0
LINE
8
BLACK
6
CONTINUOUS
10
2.10229
20
2.34094
11
2.09482
21
2.32958
0
LINE
8
BLACK
6
CONTINUOUS
10
2.09482
20
2.32958
11
2.0861
21
2.31915
0
LINE
8
BLACK
6
CONTINUOUS
10
2.0861
20
2.31915
11
2.07624
21
2.30979
0
LINE
8
BLACK
6
CONTINUOUS
10
2.07624
20
2.30979
11
2.06536
21
2.30162
0
LINE
8
BLACK
6
CONTINUOUS
10
2.06536
20
2.30162
11
2.05362
21
2.29476
0
LINE
8
BLACK
6
CONTINUOUS
10
2.05362
20
2.29476
11
2.04117
21
2.2893
0
LINE
8
BLACK
6
CONTINUOUS
10
2.04117
20
2.2893
11
2.02817
21
2.2853
0
LINE
8
BLACK
6
CONTINUOUS
10
2.02817
20
2.2853
11
2.0148
21
2.28282
0
LINE
8
BLACK
6
CONTINUOUS
10
2.0148
20
2.28282
11
2.00124
21
2.2819
0
LINE
8
BLACK
6
CONTINUOUS
10
2.00124
20
2.2819
11
1.98765
21
2.28254
0
LINE
8
BLACK
6
CONTINUOUS
10
1.98765
20
2.28254
11
1.97424
21
2.28473
0
LINE
8
BLACK
6
CONTINUOUS
10
1.97424
20
2.28473
11
1.96116
21
2.28846
0
LINE
8
BLACK
6
CONTINUOUS
10
1.96116
20
2.28846
11
1.94859
21
2.29366
0
LINE
8
BLACK
6
CONTINUOUS
10
1.94859
20
2.29366
11
1.93671
21
2.30028
0
LINE
8
BLACK
6
CONTINUOUS
10
1.93671
20
2.30028
11
1.92567
21
2.30821
0
LINE
8
BLACK
6
CONTINUOUS
10
1.92567
20
2.30821
11
1.91561
21
2.31736
0
LINE
8
BLACK
6
CONTINUOUS
10
1.91561
20
2.31736
11
1.90667
21
2.32761
0
LINE
8
BLACK
6
CONTINUOUS
10
1.90667
20
2.32761
11
1.89897
21
2.33882
0
LINE
8
BLACK
6
CONTINUOUS
10
1.89897
20
2.33882
11
1.89261
21
2.35083
0
LINE
8
BLACK
6
CONTINUOUS
10
1.89261
20
2.35083
11
1.88767
21
2.3635
0
LINE
8
BLACK
6
CONTINUOUS
10
1.88767
20
2.3635
11
1.88422
21
2.37665
0
LINE
8
BLACK
6
CONTINUOUS
10
1.88422
20
2.37665
11
1.8823
21
2.39012
0
LINE
8
BLACK
6
CONTINUOUS
10
1.8823
20
2.39012
11
1.88195
21
2.40371
0
LINE
8
BLACK
6
CONTINUOUS
10
1.88195
20
2.40371
11
1.88316
21
2.41725
0
LINE
8
BLACK
6
CONTINUOUS
10
1.88316
20
2.41725
11
1.88591
21
2.43057
0
LINE
8
BLACK
6
CONTINUOUS
10
1.88591
20
2.43057
11
1.89018
21
2.44348
0
LINE
8
BLACK
6
CONTINUOUS
10
1.89018
20
2.44348
11
1.89591
21
2.45581
0
LINE
8
BLACK
6
CONTINUOUS
10
1.89591
20
2.45581
11
1.90301
21
2.46741
0
LINE
8
BLACK
6
CONTINUOUS
10
1.90301
20
2.46741
11
1.9114
21
2.47811
0
LINE
8
BLACK
6
CONTINUOUS
10
1.9114
20
2.47811
11
1.92097
21
2.48777
0
LINE
8
BLACK
6
CONTINUOUS
10
1.92097
20
2.48777
11
1.93158
21
2.49627
0
LINE
8
BLACK
6
CONTINUOUS
10
1.93158
20
2.49627
11
1.9431
21
2.5035
0
LINE
8
BLACK
6
CONTINUOUS
10
1.9431
20
2.5035
11
1.95537
21
2.50935
0
LINE
8
BLACK
6
CONTINUOUS
10
1.95537
20
2.50935
11
1.96824
21
2.51376
0
LINE
8
BLACK
6
CONTINUOUS
10
1.96824
20
2.51376
11
1.98152
21
2.51666
0
LINE
8
BLACK
6
CONTINUOUS
10
1.98152
20
2.51666
11
1.99505
21
2.51801
0
LINE
8
BLACK
6
CONTINUOUS
10
1.99505
20
2.51801
11
2.00865
21
2.51779
0
LINE
8
BLACK
6
CONTINUOUS
10
0.532756
20
2.31764
11
0.472756
21
2.31764
0
LINE
8
BLACK
6
CONTINUOUS
10
0.472756
20
2.31764
11
0.472756
21
2.37764
0
LINE
8
BLACK
6
CONTINUOUS
10
0.472756
20
2.37764
11
0.532756
21
2.37764
0
LINE
8
BLACK
6
CONTINUOUS
10
0.532756
20
2.37764
11
0.532756
21
2.31764
0
LINE
8
BLACK
6
CONTINUOUS
10
1.05913
20
2.31764
11
0.999134
21
2.31764
0
LINE
8
BLACK
6
CONTINUOUS
10
0.999134
20
2.31764
11
0.999134
21
2.37764
0
LINE
8
BLACK
6
CONTINUOUS
10
0.999134
20
2.37764
11
1.05913
21
2.37764
0
LINE
8
BLACK
6
CONTINUOUS
10
1.05913
20
2.37764
11
1.05913
21
2.31764
0
LINE
8
BLACK
6
CONTINUOUS
10
0.432756
20
2.31764
11
0.372756
21
2.31764
0
LINE
8
BLACK
6
CONTINUOUS
10
0.372756
20
2.31764
11
0.372756
21
2.37764
0
LINE
8
BLACK
6
CONTINUOUS
10
0.372756
20
2.37764
11
0.432756
21
2.37764
0
LINE
8
BLACK
6
CONTINUOUS
10
0.432756
20
2.37764
11
0.432756
21
2.31764
0
LINE
8
BLACK
6
CONTINUOUS
10
0.959134
20
2.31764
11
0.899134
21
2.31764
0
LINE
8
BLACK
6
CONTINUOUS
10
0.899134
20
2.31764
11
0.899134
21
2.37764
0
LINE
8
BLACK
6
CONTINUOUS
10
0.899134
20
2.37764
11
0.959134
21
2.37764
0
LINE
8
BLACK
6
CONTINUOUS
10
0.959134
20
2.37764
11
0.959134
21
2.31764
0
LINE
8
BLACK
6
CONTINUOUS
10
1.48669
20
2.31764
11
1.42669
21
2.31764
0
LINE
8
BLACK
6
CONTINUOUS
10
1.42669
20
2.31764
11
1.42669
21
2.37764
0
LINE
8
BLACK
6
CONTINUOUS
10
1.42669
20
2.37764
11
1.48669
21
2.37764
0
LINE
8
BLACK
6
CONTINUOUS
10
1.48669
20
2.37764
11
1.48669
21
2.31764
0
LINE
8
BLACK
6
CONTINUOUS
10
1.68669
20
2.31764
11
1.62669
21
2.31764
0
LINE
8
BLACK
6
CONTINUOUS
10
1.62669
20
2.31764
11
1.62669
21
2.37764
0
LINE
8
BLACK
6
CONTINUOUS
10
1.62669
20
2.37764
11
1.68669
21
2.37764
0
LINE
8
BLACK
6
CONTINUOUS
10
1.68669
20
2.37764
11
1.68669
21
2.31764
0
LINE
8
BLACK
6
CONTINUOUS
10
0.859134
20
2.31764
11
0.799134
21
2.31764
0
LINE
8
BLACK
6
CONTINUOUS
10
0.799134
20
2.31764
11
0.799134
21
2.37764
0
LINE
8
BLACK
6
CONTINUOUS
10
0.799134
20
2.37764
11
0.859134
21
2.37764
0
LINE
8
BLACK
6
CONTINUOUS
10
0.859134
20
2.37764
11
0.859134
21
2.31764
0
LINE
8
BLACK
6
CONTINUOUS
10
0.332756
20
2.31764
11
0.272756
21
2.31764
0
LINE
8
BLACK
6
CONTINUOUS
10
0.272756
20
2.31764
11
0.272756
21
2.37764
0
LINE
8
BLACK
6
CONTINUOUS
10
0.272756
20
2.37764
11
0.332756
21
2.37764
0
LINE
8
BLACK
6
CONTINUOUS
10
0.332756
20
2.37764
11
0.332756
21
2.31764
0
LINE
8
BLACK
6
CONTINUOUS
10
0.632756
20
2.31764
11
0.572756
21
2.31764
0
LINE
8
BLACK
6
CONTINUOUS
10
0.572756
20
2.31764
11
0.572756
21
2.37764
0
LINE
8
BLACK
6
CONTINUOUS
10
0.572756
20
2.37764
11
0.632756
21
2.37764
0
LINE
8
BLACK
6
CONTINUOUS
10
0.632756
20
2.37764
11
0.632756
21
2.31764
0
LINE
8
BLACK
6
CONTINUOUS
10
1.38669
20
2.31764
11
1.32669
21
2.31764
0
LINE
8
BLACK
6
CONTINUOUS
10
1.32669
20
2.31764
11
1.32669
21
2.37764
0
LINE
8
BLACK
6
CONTINUOUS
10
1.32669
20
2.37764
11
1.38669
21
2.37764
0
LINE
8
BLACK
6
CONTINUOUS
10
1.38669
20
2.37764
11
1.38669
21
2.31764
0
LINE
8
BLACK
6
CONTINUOUS
10
1.58669
20
2.31764
11
1.52669
21
2.31764
0
LINE
8
BLACK
6
CONTINUOUS
10
1.52669
20
2.31764
11
1.52669
21
2.37764
0
LINE
8
BLACK
6
CONTINUOUS
10
1.52669
20
2.37764
11
1.58669
21
2.37764
0
LINE
8
BLACK
6
CONTINUOUS
10
1.58669
20
2.37764
11
1.58669
21
2.31764
0
LINE
8
BLACK
6
CONTINUOUS
10
1.28669
20
2.31764
11
1.22669
21
2.31764
0
LINE
8
BLACK
6
CONTINUOUS
10
1.22669
20
2.31764
11
1.22669
21
2.37764
0
LINE
8
BLACK
6
CONTINUOUS
10
1.22669
20
2.37764
11
1.28669
21
2.37764
0
LINE
8
BLACK
6
CONTINUOUS
10
1.28669
20
2.37764
11
1.28669
21
2.31764
0
LINE
8
BLACK
6
CONTINUOUS
10
0.228328
20
2.41512
11
0.231441
21
2.41304
0
LINE
8
BLACK
6
CONTINUOUS
10
0.231441
20
2.41304
11
0.233521
21
2.40992
0
LINE
8
BLACK
6
CONTINUOUS
10
0.233521
20
2.40992
11
0.234252
21
2.40625
0
LINE
8
BLACK
6
CONTINUOUS
10
0.234252
20
2.40625
11
0.234252
21
2.38706
0
LINE
8
BLACK
6
CONTINUOUS
10
0.234252
20
2.38706
11
0.233521
21
2.38338
0
LINE
8
BLACK
6
CONTINUOUS
10
0.233521
20
2.38338
11
0.231441
21
2.38027
0
LINE
8
BLACK
6
CONTINUOUS
10
0.231441
20
2.38027
11
0.228328
21
2.37819
0
LINE
8
BLACK
6
CONTINUOUS
10
0.228328
20
2.37819
11
0.224656
21
2.37746
0
LINE
8
BLACK
6
CONTINUOUS
10
0.224656
20
2.37746
11
0.18873
21
2.37746
0
LINE
8
BLACK
6
CONTINUOUS
10
0.18873
20
2.37746
11
0.185058
21
2.37819
0
LINE
8
BLACK
6
CONTINUOUS
10
0.185058
20
2.37819
11
0.181945
21
2.38027
0
LINE
8
BLACK
6
CONTINUOUS
10
0.181945
20
2.38027
11
0.179864
21
2.38338
0
LINE
8
BLACK
6
CONTINUOUS
10
0.179864
20
2.38338
11
0.179134
21
2.38706
0
LINE
8
BLACK
6
CONTINUOUS
10
0.179134
20
2.38706
11
0.179134
21
2.40625
0
LINE
8
BLACK
6
CONTINUOUS
10
0.179134
20
2.40625
11
0.179864
21
2.40992
0
LINE
8
BLACK
6
CONTINUOUS
10
0.179864
20
2.40992
11
0.181945
21
2.41304
0
LINE
8
BLACK
6
CONTINUOUS
10
0.181945
20
2.41304
11
0.185058
21
2.41512
0
LINE
8
BLACK
6
CONTINUOUS
10
0.185058
20
2.41512
11
0.18873
21
2.41585
0
LINE
8
BLACK
6
CONTINUOUS
10
0.18873
20
2.41585
11
0.224656
21
2.41585
0
LINE
8
BLACK
6
CONTINUOUS
10
0.224656
20
2.41585
11
0.228328
21
2.41512
0
LINE
8
BLACK
6
CONTINUOUS
10
1.48669
20
2.41764
11
1.42669
21
2.41764
0
LINE
8
BLACK
6
CONTINUOUS
10
1.42669
20
2.41764
11
1.42669
21
2.47764
0
LINE
8
BLACK
6
CONTINUOUS
10
1.42669
20
2.47764
11
1.48669
21
2.47764
0
LINE
8
BLACK
6
CONTINUOUS
10
1.48669
20
2.47764
11
1.48669
21
2.41764
0
LINE
8
BLACK
6
CONTINUOUS
10
1.38669
20
2.41764
11
1.32669
21
2.41764
0
LINE
8
BLACK
6
CONTINUOUS
10
1.32669
20
2.41764
11
1.32669
21
2.47764
0
LINE
8
BLACK
6
CONTINUOUS
10
1.32669
20
2.47764
11
1.38669
21
2.47764
0
LINE
8
BLACK
6
CONTINUOUS
10
1.38669
20
2.47764
11
1.38669
21
2.41764
0
LINE
8
BLACK
6
CONTINUOUS
10
0.332756
20
2.41764
11
0.272756
21
2.41764
0
LINE
8
BLACK
6
CONTINUOUS
10
0.272756
20
2.41764
11
0.272756
21
2.47764
0
LINE
8
BLACK
6
CONTINUOUS
10
0.272756
20
2.47764
11
0.332756
21
2.47764
0
LINE
8
BLACK
6
CONTINUOUS
10
0.332756
20
2.47764
11
0.332756
21
2.41764
0
LINE
8
BLACK
6
CONTINUOUS
10
1.28669
20
2.41764
11
1.22669
21
2.41764
0
LINE
8
BLACK
6
CONTINUOUS
10
1.22669
20
2.41764
11
1.22669
21
2.47764
0
LINE
8
BLACK
6
CONTINUOUS
10
1.22669
20
2.47764
11
1.28669
21
2.47764
0
LINE
8
BLACK
6
CONTINUOUS
10
1.28669
20
2.47764
11
1.28669
21
2.41764
0
LINE
8
BLACK
6
CONTINUOUS
10
1.05913
20
2.41764
11
0.999134
21
2.41764
0
LINE
8
BLACK
6
CONTINUOUS
10
0.999134
20
2.41764
11
0.999134
21
2.47764
0
LINE
8
BLACK
6
CONTINUOUS
10
0.999134
20
2.47764
11
1.05913
21
2.47764
0
LINE
8
BLACK
6
CONTINUOUS
10
1.05913
20
2.47764
11
1.05913
21
2.41764
0
LINE
8
BLACK
6
CONTINUOUS
10
0.959134
20
2.41764
11
0.899134
21
2.41764
0
LINE
8
BLACK
6
CONTINUOUS
10
0.899134
20
2.41764
11
0.899134
21
2.47764
0
LINE
8
BLACK
6
CONTINUOUS
10
0.899134
20
2.47764
11
0.959134
21
2.47764
0
LINE
8
BLACK
6
CONTINUOUS
10
0.959134
20
2.47764
11
0.959134
21
2.41764
0
LINE
8
BLACK
6
CONTINUOUS
10
0.859134
20
2.41764
11
0.799134
21
2.41764
0
LINE
8
BLACK
6
CONTINUOUS
10
0.799134
20
2.41764
11
0.799134
21
2.47764
0
LINE
8
BLACK
6
CONTINUOUS
10
0.799134
20
2.47764
11
0.859134
21
2.47764
0
LINE
8
BLACK
6
CONTINUOUS
10
0.859134
20
2.47764
11
0.859134
21
2.41764
0
LINE
8
BLACK
6
CONTINUOUS
10
0.432756
20
2.41764
11
0.372756
21
2.41764
0
LINE
8
BLACK
6
CONTINUOUS
10
0.372756
20
2.41764
11
0.372756
21
2.47764
0
LINE
8
BLACK
6
CONTINUOUS
10
0.372756
20
2.47764
11
0.432756
21
2.47764
0
LINE
8
BLACK
6
CONTINUOUS
10
0.432756
20
2.47764
11
0.432756
21
2.41764
0
LINE
8
BLACK
6
CONTINUOUS
10
0.532756
20
2.41764
11
0.472756
21
2.41764
0
LINE
8
BLACK
6
CONTINUOUS
10
0.472756
20
2.41764
11
0.472756
21
2.47764
0
LINE
8
BLACK
6
CONTINUOUS
10
0.472756
20
2.47764
11
0.532756
21
2.47764
0
LINE
8
BLACK
6
CONTINUOUS
10
0.532756
20
2.47764
11
0.532756
21
2.41764
0
LINE
8
BLACK
6
CONTINUOUS
10
0.632756
20
2.41764
11
0.572756
21
2.41764
0
LINE
8
BLACK
6
CONTINUOUS
10
0.572756
20
2.41764
11
0.572756
21
2.47764
0
LINE
8
BLACK
6
CONTINUOUS
10
0.572756
20
2.47764
11
0.632756
21
2.47764
0
LINE
8
BLACK
6
CONTINUOUS
10
0.632756
20
2.47764
11
0.632756
21
2.41764
0
LINE
8
BLACK
6
CONTINUOUS
10
1.68669
20
2.41764
11
1.62669
21
2.41764
0
LINE
8
BLACK
6
CONTINUOUS
10
1.62669
20
2.41764
11
1.62669
21
2.47764
0
LINE
8
BLACK
6
CONTINUOUS
10
1.62669
20
2.47764
11
1.68669
21
2.47764
0
LINE
8
BLACK
6
CONTINUOUS
10
1.68669
20
2.47764
11
1.68669
21
2.41764
0
LINE
8
BLACK
6
CONTINUOUS
10
1.58669
20
2.41764
11
1.52669
21
2.41764
0
LINE
8
BLACK
6
CONTINUOUS
10
1.52669
20
2.41764
11
1.52669
21
2.47764
0
LINE
8
BLACK
6
CONTINUOUS
10
1.52669
20
2.47764
11
1.58669
21
2.47764
0
LINE
8
BLACK
6
CONTINUOUS
10
1.58669
20
2.47764
11
1.58669
21
2.41764
0
LINE
8
BLACK
6
CONTINUOUS
10
0.228328
20
2.48893
11
0.231441
21
2.48685
0
LINE
8
BLACK
6
CONTINUOUS
10
0.231441
20
2.48685
11
0.233521
21
2.48374
0
LINE
8
BLACK
6
CONTINUOUS
10
0.233521
20
2.48374
11
0.234252
21
2.48007
0
LINE
8
BLACK
6
CONTINUOUS
10
0.234252
20
2.48007
11
0.234252
21
2.46088
0
LINE
8
BLACK
6
CONTINUOUS
10
0.234252
20
2.46088
11
0.233521
21
2.4572
0
LINE
8
BLACK
6
CONTINUOUS
10
0.233521
20
2.4572
11
0.231441
21
2.45409
0
LINE
8
BLACK
6
CONTINUOUS
10
0.231441
20
2.45409
11
0.228328
21
2.45201
0
LINE
8
BLACK
6
CONTINUOUS
10
0.228328
20
2.45201
11
0.224656
21
2.45128
0
LINE
8
BLACK
6
CONTINUOUS
10
0.224656
20
2.45128
11
0.18873
21
2.45128
0
LINE
8
BLACK
6
CONTINUOUS
10
0.18873
20
2.45128
11
0.185058
21
2.45201
0
LINE
8
BLACK
6
CONTINUOUS
10
0.185058
20
2.45201
11
0.181945
21
2.45409
0
LINE
8
BLACK
6
CONTINUOUS
10
0.181945
20
2.45409
11
0.179864
21
2.4572
0
LINE
8
BLACK
6
CONTINUOUS
10
0.179864
20
2.4572
11
0.179134
21
2.46088
0
LINE
8
BLACK
6
CONTINUOUS
10
0.179134
20
2.46088
11
0.179134
21
2.48007
0
LINE
8
BLACK
6
CONTINUOUS
10
0.179134
20
2.48007
11
0.179864
21
2.48374
0
LINE
8
BLACK
6
CONTINUOUS
10
0.179864
20
2.48374
11
0.181945
21
2.48685
0
LINE
8
BLACK
6
CONTINUOUS
10
0.181945
20
2.48685
11
0.185058
21
2.48893
0
LINE
8
BLACK
6
CONTINUOUS
10
0.185058
20
2.48893
11
0.18873
21
2.48967
0
LINE
8
BLACK
6
CONTINUOUS
10
0.18873
20
2.48967
11
0.224656
21
2.48967
0
LINE
8
BLACK
6
CONTINUOUS
10
0.224656
20
2.48967
11
0.228328
21
2.48893
  0
ENDSEC
  0
EOF
