  0
SECTION
  2
HEADER
  9
$ANGBASE
  50
0.0
  9
$ANGDIR
  70
1
  9
$MEASUREMENT
  70
0
  0
ENDSEC
  0
SECTION
  2
TABLES
  0
TABLE
  2
LTYPE
  70
4
  0
LTYPE
  5
40F
  2
CONTINUOUS
  70
0
  3
Solid line
  72
65
  73
0
  40
0.0
  0
LTYPE
  5
410
  2
DASHDOT
 70
0
  3
Dash Dot ____ _ ____ _
 72
65
 73
4
 40
2.0
 49
1.25
 49
-0.25
 49
0.25
 49
-0.25
  0
LTYPE
  5
411
  2
DASHED
 70
0
  3
Dashed __ __ __ __ __
 72
65
 73
2
 40
0.75
 49
0.5
 49
-0.25
  0
LTYPE
  5
43B
  2
DOTTED
 70
0
  3
Dotted .  .  .  .
 72
65
 73
2
 40
0.2
 49
0.0
 49
-0.2
  0
ENDTAB
  0
TABLE
  2
STYLE
  70
4
  0
STYLE
  2
KICAD
  70
0
  40
0
  41
1
  42
1
  50
0
  71
0
  3
isocp.shx
  0
STYLE
  2
KICADB
  70
0
  40
0
  41
1
  42
1
  50
0
  71
0
  3
isocp.shx
  0
STYLE
  2
KICADI
  70
0
  40
0
  41
1
  42
1
  50
15
  71
0
  3
isocp.shx
  0
STYLE
  2
KICADBI
  70
0
  40
0
  41
1
  42
1
  50
15
  71
0
  3
isocp.shx
  0
ENDTAB
  0
TABLE
  2
LAYER
  70
1
  0
LAYER
  2
BLACK
  70
0
  62
7
  6
CONTINUOUS
  0
ENDTAB
  0
ENDSEC
  0
SECTION
  2
ENTITIES
0
LINE
8
BLACK
6
CONTINUOUS
10
-0.196759
20
-0.196759
11
-0.197047
21
-0.196063
0
LINE
8
BLACK
6
CONTINUOUS
10
-0.197047
20
-0.196063
11
-0.197047
21
2.59606
0
LINE
8
BLACK
6
CONTINUOUS
10
-0.197047
20
2.59606
11
-0.196759
21
2.59676
0
LINE
8
BLACK
6
CONTINUOUS
10
-0.196759
20
2.59676
11
-0.196063
21
2.59705
0
LINE
8
BLACK
6
CONTINUOUS
10
-0.196063
20
2.59705
11
2.19606
21
2.59705
0
LINE
8
BLACK
6
CONTINUOUS
10
2.19606
20
2.59705
11
2.19676
21
2.59676
0
LINE
8
BLACK
6
CONTINUOUS
10
2.19676
20
2.59676
11
2.19705
21
2.59606
0
LINE
8
BLACK
6
CONTINUOUS
10
2.19705
20
2.59606
11
2.19705
21
-0.196063
0
LINE
8
BLACK
6
CONTINUOUS
10
2.19705
20
-0.196063
11
2.19676
21
-0.196759
0
LINE
8
BLACK
6
CONTINUOUS
10
2.19676
20
-0.196759
11
2.19606
21
-0.197047
0
LINE
8
BLACK
6
CONTINUOUS
10
2.19606
20
-0.197047
11
-0.196063
21
-0.197047
0
LINE
8
BLACK
6
CONTINUOUS
10
-0.196063
20
-0.197047
11
-0.196759
21
-0.196759
0
LINE
8
BLACK
6
CONTINUOUS
10
-0.195079
20
2.59508
11
-0.195079
21
-0.195079
0
LINE
8
BLACK
6
CONTINUOUS
10
-0.195079
20
-0.195079
11
2.19508
21
-0.195079
0
LINE
8
BLACK
6
CONTINUOUS
10
2.19508
20
-0.195079
11
2.19508
21
2.59508
0
LINE
8
BLACK
6
CONTINUOUS
10
2.19508
20
2.59508
11
-0.195079
21
2.59508
0
LINE
8
BLACK
6
CONTINUOUS
10
1.17207
20
-0.0376707
11
1.16771
21
-0.0361421
0
LINE
8
BLACK
6
CONTINUOUS
10
1.16771
20
-0.0361421
11
1.16379
21
-0.0336796
0
LINE
8
BLACK
6
CONTINUOUS
10
1.16379
20
-0.0336796
11
1.16051
21
-0.0304068
0
LINE
8
BLACK
6
CONTINUOUS
10
1.16051
20
-0.0304068
11
1.15805
21
-0.0264878
0
LINE
8
BLACK
6
CONTINUOUS
10
1.15805
20
-0.0264878
11
1.15652
21
-0.022119
0
LINE
8
BLACK
6
CONTINUOUS
10
1.15652
20
-0.022119
11
1.156
21
-0.0175197
0
LINE
8
BLACK
6
CONTINUOUS
10
1.156
20
-0.0175197
11
1.156
21
0.0297244
0
LINE
8
BLACK
6
CONTINUOUS
10
1.156
20
0.0297244
11
1.15652
21
0.0343237
0
LINE
8
BLACK
6
CONTINUOUS
10
1.15652
20
0.0343237
11
1.15805
21
0.0386925
0
LINE
8
BLACK
6
CONTINUOUS
10
1.15805
20
0.0386925
11
1.16051
21
0.0426115
0
LINE
8
BLACK
6
CONTINUOUS
10
1.16051
20
0.0426115
11
1.16379
21
0.0458843
0
LINE
8
BLACK
6
CONTINUOUS
10
1.16379
20
0.0458843
11
1.16771
21
0.0483468
0
LINE
8
BLACK
6
CONTINUOUS
10
1.16771
20
0.0483468
11
1.17207
21
0.0498755
0
LINE
8
BLACK
6
CONTINUOUS
10
1.17207
20
0.0498755
11
1.17667
21
0.0503937
0
LINE
8
BLACK
6
CONTINUOUS
10
1.17667
20
0.0503937
11
1.23179
21
0.0503937
0
LINE
8
BLACK
6
CONTINUOUS
10
1.23179
20
0.0503937
11
1.23639
21
0.0498755
0
LINE
8
BLACK
6
CONTINUOUS
10
1.23639
20
0.0498755
11
1.24076
21
0.0483468
0
LINE
8
BLACK
6
CONTINUOUS
10
1.24076
20
0.0483468
11
1.24468
21
0.0458843
0
LINE
8
BLACK
6
CONTINUOUS
10
1.24468
20
0.0458843
11
1.24795
21
0.0426115
0
LINE
8
BLACK
6
CONTINUOUS
10
1.24795
20
0.0426115
11
1.25041
21
0.0386925
0
LINE
8
BLACK
6
CONTINUOUS
10
1.25041
20
0.0386925
11
1.25194
21
0.0343237
0
LINE
8
BLACK
6
CONTINUOUS
10
1.25194
20
0.0343237
11
1.25246
21
0.0297244
0
LINE
8
BLACK
6
CONTINUOUS
10
1.25246
20
0.0297244
11
1.25246
21
-0.0175197
0
LINE
8
BLACK
6
CONTINUOUS
10
1.25246
20
-0.0175197
11
1.25194
21
-0.022119
0
LINE
8
BLACK
6
CONTINUOUS
10
1.25194
20
-0.022119
11
1.25041
21
-0.0264878
0
LINE
8
BLACK
6
CONTINUOUS
10
1.25041
20
-0.0264878
11
1.24795
21
-0.0304068
0
LINE
8
BLACK
6
CONTINUOUS
10
1.24795
20
-0.0304068
11
1.24468
21
-0.0336796
0
LINE
8
BLACK
6
CONTINUOUS
10
1.24468
20
-0.0336796
11
1.24076
21
-0.0361421
0
LINE
8
BLACK
6
CONTINUOUS
10
1.24076
20
-0.0361421
11
1.23639
21
-0.0376707
0
LINE
8
BLACK
6
CONTINUOUS
10
1.23639
20
-0.0376707
11
1.23179
21
-0.038189
0
LINE
8
BLACK
6
CONTINUOUS
10
1.23179
20
-0.038189
11
1.17667
21
-0.038189
0
LINE
8
BLACK
6
CONTINUOUS
10
1.17667
20
-0.038189
11
1.17207
21
-0.0376707
0
LINE
8
BLACK
6
CONTINUOUS
10
1.17638
20
0.0485476
11
1.17179
21
0.0479439
0
LINE
8
BLACK
6
CONTINUOUS
10
1.17179
20
0.0479439
11
1.16724
21
0.0460595
0
LINE
8
BLACK
6
CONTINUOUS
10
1.16724
20
0.0460595
11
1.16334
21
0.043062
0
LINE
8
BLACK
6
CONTINUOUS
10
1.16334
20
0.043062
11
1.16034
21
0.0391555
0
LINE
8
BLACK
6
CONTINUOUS
10
1.16034
20
0.0391555
11
1.15845
21
0.0346063
0
LINE
8
BLACK
6
CONTINUOUS
10
1.15845
20
0.0346063
11
1.15785
21
0.0300201
0
LINE
8
BLACK
6
CONTINUOUS
10
1.15785
20
0.0300201
11
1.15797
21
0.0297244
0
LINE
8
BLACK
6
CONTINUOUS
10
1.15797
20
0.0297244
11
1.15797
21
-0.0175197
0
LINE
8
BLACK
6
CONTINUOUS
10
1.15797
20
-0.0175197
11
1.15785
21
-0.0178154
0
LINE
8
BLACK
6
CONTINUOUS
10
1.15785
20
-0.0178154
11
1.15845
21
-0.0224016
0
LINE
8
BLACK
6
CONTINUOUS
10
1.15845
20
-0.0224016
11
1.16034
21
-0.0269508
0
LINE
8
BLACK
6
CONTINUOUS
10
1.16034
20
-0.0269508
11
1.16334
21
-0.0308572
0
LINE
8
BLACK
6
CONTINUOUS
10
1.16334
20
-0.0308572
11
1.16724
21
-0.0338548
0
LINE
8
BLACK
6
CONTINUOUS
10
1.16724
20
-0.0338548
11
1.17179
21
-0.0357391
0
LINE
8
BLACK
6
CONTINUOUS
10
1.17179
20
-0.0357391
11
1.17638
21
-0.0363429
0
LINE
8
BLACK
6
CONTINUOUS
10
1.17638
20
-0.0363429
11
1.17667
21
-0.0362205
0
LINE
8
BLACK
6
CONTINUOUS
10
1.17667
20
-0.0362205
11
1.23179
21
-0.0362205
0
LINE
8
BLACK
6
CONTINUOUS
10
1.23179
20
-0.0362205
11
1.23209
21
-0.0363429
0
LINE
8
BLACK
6
CONTINUOUS
10
1.23209
20
-0.0363429
11
1.23667
21
-0.0357391
0
LINE
8
BLACK
6
CONTINUOUS
10
1.23667
20
-0.0357391
11
1.24122
21
-0.0338548
0
LINE
8
BLACK
6
CONTINUOUS
10
1.24122
20
-0.0338548
11
1.24513
21
-0.0308572
0
LINE
8
BLACK
6
CONTINUOUS
10
1.24513
20
-0.0308572
11
1.24813
21
-0.0269508
0
LINE
8
BLACK
6
CONTINUOUS
10
1.24813
20
-0.0269508
11
1.25001
21
-0.0224016
0
LINE
8
BLACK
6
CONTINUOUS
10
1.25001
20
-0.0224016
11
1.25061
21
-0.0178154
0
LINE
8
BLACK
6
CONTINUOUS
10
1.25061
20
-0.0178154
11
1.25049
21
-0.0175197
0
LINE
8
BLACK
6
CONTINUOUS
10
1.25049
20
-0.0175197
11
1.25049
21
0.0297244
0
LINE
8
BLACK
6
CONTINUOUS
10
1.25049
20
0.0297244
11
1.25061
21
0.0300201
0
LINE
8
BLACK
6
CONTINUOUS
10
1.25061
20
0.0300201
11
1.25001
21
0.0346063
0
LINE
8
BLACK
6
CONTINUOUS
10
1.25001
20
0.0346063
11
1.24813
21
0.0391555
0
LINE
8
BLACK
6
CONTINUOUS
10
1.24813
20
0.0391555
11
1.24513
21
0.043062
0
LINE
8
BLACK
6
CONTINUOUS
10
1.24513
20
0.043062
11
1.24122
21
0.0460595
0
LINE
8
BLACK
6
CONTINUOUS
10
1.24122
20
0.0460595
11
1.23667
21
0.0479439
0
LINE
8
BLACK
6
CONTINUOUS
10
1.23667
20
0.0479439
11
1.23209
21
0.0485476
0
LINE
8
BLACK
6
CONTINUOUS
10
1.23209
20
0.0485476
11
1.23179
21
0.0484252
0
LINE
8
BLACK
6
CONTINUOUS
10
1.23179
20
0.0484252
11
1.17667
21
0.0484252
0
LINE
8
BLACK
6
CONTINUOUS
10
1.17667
20
0.0484252
11
1.17638
21
0.0485476
0
LINE
8
BLACK
6
CONTINUOUS
10
1.34579
20
-0.0339306
11
1.34143
21
-0.0324019
0
LINE
8
BLACK
6
CONTINUOUS
10
1.34143
20
-0.0324019
11
1.33751
21
-0.0299394
0
LINE
8
BLACK
6
CONTINUOUS
10
1.33751
20
-0.0299394
11
1.33423
21
-0.0266666
0
LINE
8
BLACK
6
CONTINUOUS
10
1.33423
20
-0.0266666
11
1.33177
21
-0.0227476
0
LINE
8
BLACK
6
CONTINUOUS
10
1.33177
20
-0.0227476
11
1.33024
21
-0.0183789
0
LINE
8
BLACK
6
CONTINUOUS
10
1.33024
20
-0.0183789
11
1.32972
21
-0.0137795
0
LINE
8
BLACK
6
CONTINUOUS
10
1.32972
20
-0.0137795
11
1.32972
21
0.0334646
0
LINE
8
BLACK
6
CONTINUOUS
10
1.32972
20
0.0334646
11
1.33024
21
0.0380639
0
LINE
8
BLACK
6
CONTINUOUS
10
1.33024
20
0.0380639
11
1.33177
21
0.0424326
0
LINE
8
BLACK
6
CONTINUOUS
10
1.33177
20
0.0424326
11
1.33423
21
0.0463517
0
LINE
8
BLACK
6
CONTINUOUS
10
1.33423
20
0.0463517
11
1.33751
21
0.0496245
0
LINE
8
BLACK
6
CONTINUOUS
10
1.33751
20
0.0496245
11
1.34143
21
0.052087
0
LINE
8
BLACK
6
CONTINUOUS
10
1.34143
20
0.052087
11
1.34579
21
0.0536156
0
LINE
8
BLACK
6
CONTINUOUS
10
1.34579
20
0.0536156
11
1.35039
21
0.0541339
0
LINE
8
BLACK
6
CONTINUOUS
10
1.35039
20
0.0541339
11
1.40551
21
0.0541339
0
LINE
8
BLACK
6
CONTINUOUS
10
1.40551
20
0.0541339
11
1.41011
21
0.0536156
0
LINE
8
BLACK
6
CONTINUOUS
10
1.41011
20
0.0536156
11
1.41448
21
0.052087
0
LINE
8
BLACK
6
CONTINUOUS
10
1.41448
20
0.052087
11
1.4184
21
0.0496245
0
LINE
8
BLACK
6
CONTINUOUS
10
1.4184
20
0.0496245
11
1.42167
21
0.0463517
0
LINE
8
BLACK
6
CONTINUOUS
10
1.42167
20
0.0463517
11
1.42413
21
0.0424326
0
LINE
8
BLACK
6
CONTINUOUS
10
1.42413
20
0.0424326
11
1.42566
21
0.0380639
0
LINE
8
BLACK
6
CONTINUOUS
10
1.42566
20
0.0380639
11
1.42618
21
0.0334646
0
LINE
8
BLACK
6
CONTINUOUS
10
1.42618
20
0.0334646
11
1.42618
21
-0.0137795
0
LINE
8
BLACK
6
CONTINUOUS
10
1.42618
20
-0.0137795
11
1.42566
21
-0.0183789
0
LINE
8
BLACK
6
CONTINUOUS
10
1.42566
20
-0.0183789
11
1.42413
21
-0.0227476
0
LINE
8
BLACK
6
CONTINUOUS
10
1.42413
20
-0.0227476
11
1.42167
21
-0.0266666
0
LINE
8
BLACK
6
CONTINUOUS
10
1.42167
20
-0.0266666
11
1.4184
21
-0.0299394
0
LINE
8
BLACK
6
CONTINUOUS
10
1.4184
20
-0.0299394
11
1.41448
21
-0.0324019
0
LINE
8
BLACK
6
CONTINUOUS
10
1.41448
20
-0.0324019
11
1.41011
21
-0.0339306
0
LINE
8
BLACK
6
CONTINUOUS
10
1.41011
20
-0.0339306
11
1.40551
21
-0.0344488
0
LINE
8
BLACK
6
CONTINUOUS
10
1.40551
20
-0.0344488
11
1.35039
21
-0.0344488
0
LINE
8
BLACK
6
CONTINUOUS
10
1.35039
20
-0.0344488
11
1.34579
21
-0.0339306
0
LINE
8
BLACK
6
CONTINUOUS
10
1.3501
20
0.0522878
11
1.34551
21
0.051684
0
LINE
8
BLACK
6
CONTINUOUS
10
1.34551
20
0.051684
11
1.34096
21
0.0497997
0
LINE
8
BLACK
6
CONTINUOUS
10
1.34096
20
0.0497997
11
1.33706
21
0.0468021
0
LINE
8
BLACK
6
CONTINUOUS
10
1.33706
20
0.0468021
11
1.33406
21
0.0428956
0
LINE
8
BLACK
6
CONTINUOUS
10
1.33406
20
0.0428956
11
1.33217
21
0.0383465
0
LINE
8
BLACK
6
CONTINUOUS
10
1.33217
20
0.0383465
11
1.33157
21
0.0337602
0
LINE
8
BLACK
6
CONTINUOUS
10
1.33157
20
0.0337602
11
1.33169
21
0.0334646
0
LINE
8
BLACK
6
CONTINUOUS
10
1.33169
20
0.0334646
11
1.33169
21
-0.0137795
0
LINE
8
BLACK
6
CONTINUOUS
10
1.33169
20
-0.0137795
11
1.33157
21
-0.0140752
0
LINE
8
BLACK
6
CONTINUOUS
10
1.33157
20
-0.0140752
11
1.33217
21
-0.0186614
0
LINE
8
BLACK
6
CONTINUOUS
10
1.33217
20
-0.0186614
11
1.33406
21
-0.0232106
0
LINE
8
BLACK
6
CONTINUOUS
10
1.33406
20
-0.0232106
11
1.33706
21
-0.0271171
0
LINE
8
BLACK
6
CONTINUOUS
10
1.33706
20
-0.0271171
11
1.34096
21
-0.0301146
0
LINE
8
BLACK
6
CONTINUOUS
10
1.34096
20
-0.0301146
11
1.34551
21
-0.031999
0
LINE
8
BLACK
6
CONTINUOUS
10
1.34551
20
-0.031999
11
1.3501
21
-0.0326028
0
LINE
8
BLACK
6
CONTINUOUS
10
1.3501
20
-0.0326028
11
1.35039
21
-0.0324803
0
LINE
8
BLACK
6
CONTINUOUS
10
1.35039
20
-0.0324803
11
1.40551
21
-0.0324803
0
LINE
8
BLACK
6
CONTINUOUS
10
1.40551
20
-0.0324803
11
1.40581
21
-0.0326028
0
LINE
8
BLACK
6
CONTINUOUS
10
1.40581
20
-0.0326028
11
1.41039
21
-0.031999
0
LINE
8
BLACK
6
CONTINUOUS
10
1.41039
20
-0.031999
11
1.41494
21
-0.0301146
0
LINE
8
BLACK
6
CONTINUOUS
10
1.41494
20
-0.0301146
11
1.41885
21
-0.0271171
0
LINE
8
BLACK
6
CONTINUOUS
10
1.41885
20
-0.0271171
11
1.42185
21
-0.0232106
0
LINE
8
BLACK
6
CONTINUOUS
10
1.42185
20
-0.0232106
11
1.42373
21
-0.0186614
0
LINE
8
BLACK
6
CONTINUOUS
10
1.42373
20
-0.0186614
11
1.42434
21
-0.0140752
0
LINE
8
BLACK
6
CONTINUOUS
10
1.42434
20
-0.0140752
11
1.42421
21
-0.0137795
0
LINE
8
BLACK
6
CONTINUOUS
10
1.42421
20
-0.0137795
11
1.42421
21
0.0334646
0
LINE
8
BLACK
6
CONTINUOUS
10
1.42421
20
0.0334646
11
1.42434
21
0.0337602
0
LINE
8
BLACK
6
CONTINUOUS
10
1.42434
20
0.0337602
11
1.42373
21
0.0383465
0
LINE
8
BLACK
6
CONTINUOUS
10
1.42373
20
0.0383465
11
1.42185
21
0.0428956
0
LINE
8
BLACK
6
CONTINUOUS
10
1.42185
20
0.0428956
11
1.41885
21
0.0468021
0
LINE
8
BLACK
6
CONTINUOUS
10
1.41885
20
0.0468021
11
1.41494
21
0.0497997
0
LINE
8
BLACK
6
CONTINUOUS
10
1.41494
20
0.0497997
11
1.41039
21
0.051684
0
LINE
8
BLACK
6
CONTINUOUS
10
1.41039
20
0.051684
11
1.40581
21
0.0522878
0
LINE
8
BLACK
6
CONTINUOUS
10
1.40581
20
0.0522878
11
1.40551
21
0.0521654
0
LINE
8
BLACK
6
CONTINUOUS
10
1.40551
20
0.0521654
11
1.35039
21
0.0521654
0
LINE
8
BLACK
6
CONTINUOUS
10
1.35039
20
0.0521654
11
1.3501
21
0.0522878
  0
ENDSEC
  0
EOF
