  0
SECTION
  2
HEADER
  9
$ANGBASE
  50
0.0
  9
$ANGDIR
  70
1
  9
$MEASUREMENT
  70
0
  0
ENDSEC
  0
SECTION
  2
TABLES
  0
TABLE
  2
LTYPE
  70
4
  0
LTYPE
  5
40F
  2
CONTINUOUS
  70
0
  3
Solid line
  72
65
  73
0
  40
0.0
  0
LTYPE
  5
410
  2
DASHDOT
 70
0
  3
Dash Dot ____ _ ____ _
 72
65
 73
4
 40
2.0
 49
1.25
 49
-0.25
 49
0.25
 49
-0.25
  0
LTYPE
  5
411
  2
DASHED
 70
0
  3
Dashed __ __ __ __ __
 72
65
 73
2
 40
0.75
 49
0.5
 49
-0.25
  0
LTYPE
  5
43B
  2
DOTTED
 70
0
  3
Dotted .  .  .  .
 72
65
 73
2
 40
0.2
 49
0.0
 49
-0.2
  0
ENDTAB
  0
TABLE
  2
STYLE
  70
4
  0
STYLE
  2
KICAD
  70
0
  40
0
  41
1
  42
1
  50
0
  71
0
  3
isocp.shx
  0
STYLE
  2
KICADB
  70
0
  40
0
  41
1
  42
1
  50
0
  71
0
  3
isocp.shx
  0
STYLE
  2
KICADI
  70
0
  40
0
  41
1
  42
1
  50
15
  71
0
  3
isocp.shx
  0
STYLE
  2
KICADBI
  70
0
  40
0
  41
1
  42
1
  50
15
  71
0
  3
isocp.shx
  0
ENDTAB
  0
TABLE
  2
LAYER
  70
1
  0
LAYER
  2
BLACK
  70
0
  62
7
  6
CONTINUOUS
  0
ENDTAB
  0
ENDSEC
  0
SECTION
  2
ENTITIES
0
LINE
8
BLACK
6
CONTINUOUS
10
1.07463
20
-0.0657098
11
1.07783
21
-0.0678434
0
LINE
8
BLACK
6
CONTINUOUS
10
1.07783
20
-0.0678434
11
1.07996
21
-0.0710366
0
LINE
8
BLACK
6
CONTINUOUS
10
1.07996
20
-0.0710366
11
1.08071
21
-0.0748031
0
LINE
8
BLACK
6
CONTINUOUS
10
1.08071
20
-0.0748031
11
1.08071
21
-0.0954724
0
LINE
8
BLACK
6
CONTINUOUS
10
1.08071
20
-0.0954724
11
1.07996
21
-0.099239
0
LINE
8
BLACK
6
CONTINUOUS
10
1.07996
20
-0.099239
11
1.07783
21
-0.102432
0
LINE
8
BLACK
6
CONTINUOUS
10
1.07783
20
-0.102432
11
1.07463
21
-0.104566
0
LINE
8
BLACK
6
CONTINUOUS
10
1.07463
20
-0.104566
11
1.07087
21
-0.105315
0
LINE
8
BLACK
6
CONTINUOUS
10
1.07087
20
-0.105315
11
1.03543
21
-0.105315
0
LINE
8
BLACK
6
CONTINUOUS
10
1.03543
20
-0.105315
11
1.03167
21
-0.104566
0
LINE
8
BLACK
6
CONTINUOUS
10
1.03167
20
-0.104566
11
1.02847
21
-0.102432
0
LINE
8
BLACK
6
CONTINUOUS
10
1.02847
20
-0.102432
11
1.02634
21
-0.099239
0
LINE
8
BLACK
6
CONTINUOUS
10
1.02634
20
-0.099239
11
1.02559
21
-0.0954724
0
LINE
8
BLACK
6
CONTINUOUS
10
1.02559
20
-0.0954724
11
1.02559
21
-0.0748031
0
LINE
8
BLACK
6
CONTINUOUS
10
1.02559
20
-0.0748031
11
1.02634
21
-0.0710366
0
LINE
8
BLACK
6
CONTINUOUS
10
1.02634
20
-0.0710366
11
1.02847
21
-0.0678434
0
LINE
8
BLACK
6
CONTINUOUS
10
1.02847
20
-0.0678434
11
1.03167
21
-0.0657098
0
LINE
8
BLACK
6
CONTINUOUS
10
1.03167
20
-0.0657098
11
1.03543
21
-0.0649606
0
LINE
8
BLACK
6
CONTINUOUS
10
1.03543
20
-0.0649606
11
1.07087
21
-0.0649606
0
LINE
8
BLACK
6
CONTINUOUS
10
1.07087
20
-0.0649606
11
1.07463
21
-0.0657098
0
LINE
8
BLACK
6
CONTINUOUS
10
0.98605
20
-0.0657098
11
0.989243
21
-0.0678434
0
LINE
8
BLACK
6
CONTINUOUS
10
0.989243
20
-0.0678434
11
0.991377
21
-0.0710366
0
LINE
8
BLACK
6
CONTINUOUS
10
0.991377
20
-0.0710366
11
0.992126
21
-0.0748031
0
LINE
8
BLACK
6
CONTINUOUS
10
0.992126
20
-0.0748031
11
0.992126
21
-0.0954724
0
LINE
8
BLACK
6
CONTINUOUS
10
0.992126
20
-0.0954724
11
0.991377
21
-0.099239
0
LINE
8
BLACK
6
CONTINUOUS
10
0.991377
20
-0.099239
11
0.989243
21
-0.102432
0
LINE
8
BLACK
6
CONTINUOUS
10
0.989243
20
-0.102432
11
0.98605
21
-0.104566
0
LINE
8
BLACK
6
CONTINUOUS
10
0.98605
20
-0.104566
11
0.982283
21
-0.105315
0
LINE
8
BLACK
6
CONTINUOUS
10
0.982283
20
-0.105315
11
0.94685
21
-0.105315
0
LINE
8
BLACK
6
CONTINUOUS
10
0.94685
20
-0.105315
11
0.943084
21
-0.104566
0
LINE
8
BLACK
6
CONTINUOUS
10
0.943084
20
-0.104566
11
0.939891
21
-0.102432
0
LINE
8
BLACK
6
CONTINUOUS
10
0.939891
20
-0.102432
11
0.937757
21
-0.099239
0
LINE
8
BLACK
6
CONTINUOUS
10
0.937757
20
-0.099239
11
0.937008
21
-0.0954724
0
LINE
8
BLACK
6
CONTINUOUS
10
0.937008
20
-0.0954724
11
0.937008
21
-0.0748031
0
LINE
8
BLACK
6
CONTINUOUS
10
0.937008
20
-0.0748031
11
0.937757
21
-0.0710366
0
LINE
8
BLACK
6
CONTINUOUS
10
0.937757
20
-0.0710366
11
0.939891
21
-0.0678434
0
LINE
8
BLACK
6
CONTINUOUS
10
0.939891
20
-0.0678434
11
0.943084
21
-0.0657098
0
LINE
8
BLACK
6
CONTINUOUS
10
0.943084
20
-0.0657098
11
0.94685
21
-0.0649606
0
LINE
8
BLACK
6
CONTINUOUS
10
0.94685
20
-0.0649606
11
0.982283
21
-0.0649606
0
LINE
8
BLACK
6
CONTINUOUS
10
0.982283
20
-0.0649606
11
0.98605
21
-0.0657098
0
LINE
8
BLACK
6
CONTINUOUS
10
1.23376
20
-0.0974409
11
1.1747
21
-0.0974409
0
LINE
8
BLACK
6
CONTINUOUS
10
1.1747
20
-0.0974409
11
1.1747
21
-0.0383858
0
LINE
8
BLACK
6
CONTINUOUS
10
1.1747
20
-0.0383858
11
1.23376
21
-0.0383858
0
LINE
8
BLACK
6
CONTINUOUS
10
1.23376
20
-0.0383858
11
1.23376
21
-0.0974409
0
LINE
8
BLACK
6
CONTINUOUS
10
1.40748
20
-0.0937008
11
1.34843
21
-0.0937008
0
LINE
8
BLACK
6
CONTINUOUS
10
1.34843
20
-0.0937008
11
1.34843
21
-0.0346457
0
LINE
8
BLACK
6
CONTINUOUS
10
1.34843
20
-0.0346457
11
1.40748
21
-0.0346457
0
LINE
8
BLACK
6
CONTINUOUS
10
1.40748
20
-0.0346457
11
1.40748
21
-0.0937008
0
LINE
8
BLACK
6
CONTINUOUS
10
0.98605
20
0.00614055
11
0.989243
21
0.00400697
0
LINE
8
BLACK
6
CONTINUOUS
10
0.989243
20
0.00400697
11
0.991377
21
0.000813819
0
LINE
8
BLACK
6
CONTINUOUS
10
0.991377
20
0.000813819
11
0.992126
21
-0.00295276
0
LINE
8
BLACK
6
CONTINUOUS
10
0.992126
20
-0.00295276
11
0.992126
21
-0.023622
0
LINE
8
BLACK
6
CONTINUOUS
10
0.992126
20
-0.023622
11
0.991377
21
-0.0273886
0
LINE
8
BLACK
6
CONTINUOUS
10
0.991377
20
-0.0273886
11
0.989243
21
-0.0305818
0
LINE
8
BLACK
6
CONTINUOUS
10
0.989243
20
-0.0305818
11
0.98605
21
-0.0327154
0
LINE
8
BLACK
6
CONTINUOUS
10
0.98605
20
-0.0327154
11
0.982283
21
-0.0334646
0
LINE
8
BLACK
6
CONTINUOUS
10
0.982283
20
-0.0334646
11
0.94685
21
-0.0334646
0
LINE
8
BLACK
6
CONTINUOUS
10
0.94685
20
-0.0334646
11
0.943084
21
-0.0327154
0
LINE
8
BLACK
6
CONTINUOUS
10
0.943084
20
-0.0327154
11
0.939891
21
-0.0305818
0
LINE
8
BLACK
6
CONTINUOUS
10
0.939891
20
-0.0305818
11
0.937757
21
-0.0273886
0
LINE
8
BLACK
6
CONTINUOUS
10
0.937757
20
-0.0273886
11
0.937008
21
-0.023622
0
LINE
8
BLACK
6
CONTINUOUS
10
0.937008
20
-0.023622
11
0.937008
21
-0.00295276
0
LINE
8
BLACK
6
CONTINUOUS
10
0.937008
20
-0.00295276
11
0.937757
21
0.000813819
0
LINE
8
BLACK
6
CONTINUOUS
10
0.937757
20
0.000813819
11
0.939891
21
0.00400697
0
LINE
8
BLACK
6
CONTINUOUS
10
0.939891
20
0.00400697
11
0.943084
21
0.00614055
0
LINE
8
BLACK
6
CONTINUOUS
10
0.943084
20
0.00614055
11
0.94685
21
0.00688976
0
LINE
8
BLACK
6
CONTINUOUS
10
0.94685
20
0.00688976
11
0.982283
21
0.00688976
0
LINE
8
BLACK
6
CONTINUOUS
10
0.982283
20
0.00688976
11
0.98605
21
0.00614055
0
LINE
8
BLACK
6
CONTINUOUS
10
1.07463
20
0.00614055
11
1.07783
21
0.00400697
0
LINE
8
BLACK
6
CONTINUOUS
10
1.07783
20
0.00400697
11
1.07996
21
0.000813819
0
LINE
8
BLACK
6
CONTINUOUS
10
1.07996
20
0.000813819
11
1.08071
21
-0.00295276
0
LINE
8
BLACK
6
CONTINUOUS
10
1.08071
20
-0.00295276
11
1.08071
21
-0.023622
0
LINE
8
BLACK
6
CONTINUOUS
10
1.08071
20
-0.023622
11
1.07996
21
-0.0273886
0
LINE
8
BLACK
6
CONTINUOUS
10
1.07996
20
-0.0273886
11
1.07783
21
-0.0305818
0
LINE
8
BLACK
6
CONTINUOUS
10
1.07783
20
-0.0305818
11
1.07463
21
-0.0327154
0
LINE
8
BLACK
6
CONTINUOUS
10
1.07463
20
-0.0327154
11
1.07087
21
-0.0334646
0
LINE
8
BLACK
6
CONTINUOUS
10
1.07087
20
-0.0334646
11
1.03543
21
-0.0334646
0
LINE
8
BLACK
6
CONTINUOUS
10
1.03543
20
-0.0334646
11
1.03167
21
-0.0327154
0
LINE
8
BLACK
6
CONTINUOUS
10
1.03167
20
-0.0327154
11
1.02847
21
-0.0305818
0
LINE
8
BLACK
6
CONTINUOUS
10
1.02847
20
-0.0305818
11
1.02634
21
-0.0273886
0
LINE
8
BLACK
6
CONTINUOUS
10
1.02634
20
-0.0273886
11
1.02559
21
-0.023622
0
LINE
8
BLACK
6
CONTINUOUS
10
1.02559
20
-0.023622
11
1.02559
21
-0.00295276
0
LINE
8
BLACK
6
CONTINUOUS
10
1.02559
20
-0.00295276
11
1.02634
21
0.000813819
0
LINE
8
BLACK
6
CONTINUOUS
10
1.02634
20
0.000813819
11
1.02847
21
0.00400697
0
LINE
8
BLACK
6
CONTINUOUS
10
1.02847
20
0.00400697
11
1.03167
21
0.00614055
0
LINE
8
BLACK
6
CONTINUOUS
10
1.03167
20
0.00614055
11
1.03543
21
0.00688976
0
LINE
8
BLACK
6
CONTINUOUS
10
1.03543
20
0.00688976
11
1.07087
21
0.00688976
0
LINE
8
BLACK
6
CONTINUOUS
10
1.07087
20
0.00688976
11
1.07463
21
0.00614055
0
LINE
8
BLACK
6
CONTINUOUS
10
0.562992
20
0.0294149
11
0.442913
21
0.0294149
0
LINE
8
BLACK
6
CONTINUOUS
10
0.442913
20
0.0294149
11
0.442913
21
0.12784
0
LINE
8
BLACK
6
CONTINUOUS
10
0.442913
20
0.12784
11
0.562992
21
0.12784
0
LINE
8
BLACK
6
CONTINUOUS
10
0.562992
20
0.12784
11
0.562992
21
0.0294149
0
LINE
8
BLACK
6
CONTINUOUS
10
0.895669
20
0.0294149
11
0.775591
21
0.0294149
0
LINE
8
BLACK
6
CONTINUOUS
10
0.775591
20
0.0294149
11
0.775591
21
0.12784
0
LINE
8
BLACK
6
CONTINUOUS
10
0.775591
20
0.12784
11
0.895669
21
0.12784
0
LINE
8
BLACK
6
CONTINUOUS
10
0.895669
20
0.12784
11
0.895669
21
0.0294149
0
LINE
8
BLACK
6
CONTINUOUS
10
1.23376
20
0.0505906
11
1.1747
21
0.0505906
0
LINE
8
BLACK
6
CONTINUOUS
10
1.1747
20
0.0505906
11
1.1747
21
0.109646
0
LINE
8
BLACK
6
CONTINUOUS
10
1.1747
20
0.109646
11
1.23376
21
0.109646
0
LINE
8
BLACK
6
CONTINUOUS
10
1.23376
20
0.109646
11
1.23376
21
0.0505906
0
LINE
8
BLACK
6
CONTINUOUS
10
1.40748
20
0.0543307
11
1.34843
21
0.0543307
0
LINE
8
BLACK
6
CONTINUOUS
10
1.34843
20
0.0543307
11
1.34843
21
0.113386
0
LINE
8
BLACK
6
CONTINUOUS
10
1.34843
20
0.113386
11
1.40748
21
0.113386
0
LINE
8
BLACK
6
CONTINUOUS
10
1.40748
20
0.113386
11
1.40748
21
0.0543307
0
LINE
8
BLACK
6
CONTINUOUS
10
1.38612
20
0.237739
11
1.38803
21
0.236459
0
LINE
8
BLACK
6
CONTINUOUS
10
1.38803
20
0.236459
11
1.38931
21
0.234543
0
LINE
8
BLACK
6
CONTINUOUS
10
1.38931
20
0.234543
11
1.38976
21
0.232283
0
LINE
8
BLACK
6
CONTINUOUS
10
1.38976
20
0.232283
11
1.38976
21
0.186024
0
LINE
8
BLACK
6
CONTINUOUS
10
1.38976
20
0.186024
11
1.38931
21
0.183764
0
LINE
8
BLACK
6
CONTINUOUS
10
1.38931
20
0.183764
11
1.38803
21
0.181848
0
LINE
8
BLACK
6
CONTINUOUS
10
1.38803
20
0.181848
11
1.38612
21
0.180568
0
LINE
8
BLACK
6
CONTINUOUS
10
1.38612
20
0.180568
11
1.38386
21
0.180118
0
LINE
8
BLACK
6
CONTINUOUS
10
1.38386
20
0.180118
11
1.37205
21
0.180118
0
LINE
8
BLACK
6
CONTINUOUS
10
1.37205
20
0.180118
11
1.36979
21
0.180568
0
LINE
8
BLACK
6
CONTINUOUS
10
1.36979
20
0.180568
11
1.36787
21
0.181848
0
LINE
8
BLACK
6
CONTINUOUS
10
1.36787
20
0.181848
11
1.36659
21
0.183764
0
LINE
8
BLACK
6
CONTINUOUS
10
1.36659
20
0.183764
11
1.36614
21
0.186024
0
LINE
8
BLACK
6
CONTINUOUS
10
1.36614
20
0.186024
11
1.36614
21
0.232283
0
LINE
8
BLACK
6
CONTINUOUS
10
1.36614
20
0.232283
11
1.36659
21
0.234543
0
LINE
8
BLACK
6
CONTINUOUS
10
1.36659
20
0.234543
11
1.36787
21
0.236459
0
LINE
8
BLACK
6
CONTINUOUS
10
1.36787
20
0.236459
11
1.36979
21
0.237739
0
LINE
8
BLACK
6
CONTINUOUS
10
1.36979
20
0.237739
11
1.37205
21
0.238189
0
LINE
8
BLACK
6
CONTINUOUS
10
1.37205
20
0.238189
11
1.38386
21
0.238189
0
LINE
8
BLACK
6
CONTINUOUS
10
1.38386
20
0.238189
11
1.38612
21
0.237739
0
LINE
8
BLACK
6
CONTINUOUS
10
1.04163
20
0.237739
11
1.04355
21
0.236459
0
LINE
8
BLACK
6
CONTINUOUS
10
1.04355
20
0.236459
11
1.04483
21
0.234543
0
LINE
8
BLACK
6
CONTINUOUS
10
1.04483
20
0.234543
11
1.04528
21
0.232283
0
LINE
8
BLACK
6
CONTINUOUS
10
1.04528
20
0.232283
11
1.04528
21
0.186024
0
LINE
8
BLACK
6
CONTINUOUS
10
1.04528
20
0.186024
11
1.04483
21
0.183764
0
LINE
8
BLACK
6
CONTINUOUS
10
1.04483
20
0.183764
11
1.04355
21
0.181848
0
LINE
8
BLACK
6
CONTINUOUS
10
1.04355
20
0.181848
11
1.04163
21
0.180568
0
LINE
8
BLACK
6
CONTINUOUS
10
1.04163
20
0.180568
11
1.03937
21
0.180118
0
LINE
8
BLACK
6
CONTINUOUS
10
1.03937
20
0.180118
11
1.02756
21
0.180118
0
LINE
8
BLACK
6
CONTINUOUS
10
1.02756
20
0.180118
11
1.0253
21
0.180568
0
LINE
8
BLACK
6
CONTINUOUS
10
1.0253
20
0.180568
11
1.02338
21
0.181848
0
LINE
8
BLACK
6
CONTINUOUS
10
1.02338
20
0.181848
11
1.0221
21
0.183764
0
LINE
8
BLACK
6
CONTINUOUS
10
1.0221
20
0.183764
11
1.02165
21
0.186024
0
LINE
8
BLACK
6
CONTINUOUS
10
1.02165
20
0.186024
11
1.02165
21
0.232283
0
LINE
8
BLACK
6
CONTINUOUS
10
1.02165
20
0.232283
11
1.0221
21
0.234543
0
LINE
8
BLACK
6
CONTINUOUS
10
1.0221
20
0.234543
11
1.02338
21
0.236459
0
LINE
8
BLACK
6
CONTINUOUS
10
1.02338
20
0.236459
11
1.0253
21
0.237739
0
LINE
8
BLACK
6
CONTINUOUS
10
1.0253
20
0.237739
11
1.02756
21
0.238189
0
LINE
8
BLACK
6
CONTINUOUS
10
1.02756
20
0.238189
11
1.03937
21
0.238189
0
LINE
8
BLACK
6
CONTINUOUS
10
1.03937
20
0.238189
11
1.04163
21
0.237739
0
LINE
8
BLACK
6
CONTINUOUS
10
1.2124
20
0.237739
11
1.21431
21
0.236459
0
LINE
8
BLACK
6
CONTINUOUS
10
1.21431
20
0.236459
11
1.21559
21
0.234543
0
LINE
8
BLACK
6
CONTINUOUS
10
1.21559
20
0.234543
11
1.21604
21
0.232283
0
LINE
8
BLACK
6
CONTINUOUS
10
1.21604
20
0.232283
11
1.21604
21
0.186024
0
LINE
8
BLACK
6
CONTINUOUS
10
1.21604
20
0.186024
11
1.21559
21
0.183764
0
LINE
8
BLACK
6
CONTINUOUS
10
1.21559
20
0.183764
11
1.21431
21
0.181848
0
LINE
8
BLACK
6
CONTINUOUS
10
1.21431
20
0.181848
11
1.2124
21
0.180568
0
LINE
8
BLACK
6
CONTINUOUS
10
1.2124
20
0.180568
11
1.21014
21
0.180118
0
LINE
8
BLACK
6
CONTINUOUS
10
1.21014
20
0.180118
11
1.19833
21
0.180118
0
LINE
8
BLACK
6
CONTINUOUS
10
1.19833
20
0.180118
11
1.19607
21
0.180568
0
LINE
8
BLACK
6
CONTINUOUS
10
1.19607
20
0.180568
11
1.19415
21
0.181848
0
LINE
8
BLACK
6
CONTINUOUS
10
1.19415
20
0.181848
11
1.19287
21
0.183764
0
LINE
8
BLACK
6
CONTINUOUS
10
1.19287
20
0.183764
11
1.19242
21
0.186024
0
LINE
8
BLACK
6
CONTINUOUS
10
1.19242
20
0.186024
11
1.19242
21
0.232283
0
LINE
8
BLACK
6
CONTINUOUS
10
1.19242
20
0.232283
11
1.19287
21
0.234543
0
LINE
8
BLACK
6
CONTINUOUS
10
1.19287
20
0.234543
11
1.19415
21
0.236459
0
LINE
8
BLACK
6
CONTINUOUS
10
1.19415
20
0.236459
11
1.19607
21
0.237739
0
LINE
8
BLACK
6
CONTINUOUS
10
1.19607
20
0.237739
11
1.19833
21
0.238189
0
LINE
8
BLACK
6
CONTINUOUS
10
1.19833
20
0.238189
11
1.21014
21
0.238189
0
LINE
8
BLACK
6
CONTINUOUS
10
1.21014
20
0.238189
11
1.2124
21
0.237739
0
LINE
8
BLACK
6
CONTINUOUS
10
1.07903
20
0.311558
11
1.08095
21
0.310278
0
LINE
8
BLACK
6
CONTINUOUS
10
1.08095
20
0.310278
11
1.08223
21
0.308362
0
LINE
8
BLACK
6
CONTINUOUS
10
1.08223
20
0.308362
11
1.08268
21
0.306102
0
LINE
8
BLACK
6
CONTINUOUS
10
1.08268
20
0.306102
11
1.08268
21
0.259843
0
LINE
8
BLACK
6
CONTINUOUS
10
1.08268
20
0.259843
11
1.08223
21
0.257583
0
LINE
8
BLACK
6
CONTINUOUS
10
1.08223
20
0.257583
11
1.08095
21
0.255667
0
LINE
8
BLACK
6
CONTINUOUS
10
1.08095
20
0.255667
11
1.07903
21
0.254387
0
LINE
8
BLACK
6
CONTINUOUS
10
1.07903
20
0.254387
11
1.07677
21
0.253937
0
LINE
8
BLACK
6
CONTINUOUS
10
1.07677
20
0.253937
11
1.06496
21
0.253937
0
LINE
8
BLACK
6
CONTINUOUS
10
1.06496
20
0.253937
11
1.0627
21
0.254387
0
LINE
8
BLACK
6
CONTINUOUS
10
1.0627
20
0.254387
11
1.06078
21
0.255667
0
LINE
8
BLACK
6
CONTINUOUS
10
1.06078
20
0.255667
11
1.0595
21
0.257583
0
LINE
8
BLACK
6
CONTINUOUS
10
1.0595
20
0.257583
11
1.05906
21
0.259843
0
LINE
8
BLACK
6
CONTINUOUS
10
1.05906
20
0.259843
11
1.05906
21
0.306102
0
LINE
8
BLACK
6
CONTINUOUS
10
1.05906
20
0.306102
11
1.0595
21
0.308362
0
LINE
8
BLACK
6
CONTINUOUS
10
1.0595
20
0.308362
11
1.06078
21
0.310278
0
LINE
8
BLACK
6
CONTINUOUS
10
1.06078
20
0.310278
11
1.0627
21
0.311558
0
LINE
8
BLACK
6
CONTINUOUS
10
1.0627
20
0.311558
11
1.06496
21
0.312008
0
LINE
8
BLACK
6
CONTINUOUS
10
1.06496
20
0.312008
11
1.07677
21
0.312008
0
LINE
8
BLACK
6
CONTINUOUS
10
1.07677
20
0.312008
11
1.07903
21
0.311558
0
LINE
8
BLACK
6
CONTINUOUS
10
1.34872
20
0.311558
11
1.35063
21
0.310278
0
LINE
8
BLACK
6
CONTINUOUS
10
1.35063
20
0.310278
11
1.35191
21
0.308362
0
LINE
8
BLACK
6
CONTINUOUS
10
1.35191
20
0.308362
11
1.35236
21
0.306102
0
LINE
8
BLACK
6
CONTINUOUS
10
1.35236
20
0.306102
11
1.35236
21
0.259843
0
LINE
8
BLACK
6
CONTINUOUS
10
1.35236
20
0.259843
11
1.35191
21
0.257583
0
LINE
8
BLACK
6
CONTINUOUS
10
1.35191
20
0.257583
11
1.35063
21
0.255667
0
LINE
8
BLACK
6
CONTINUOUS
10
1.35063
20
0.255667
11
1.34872
21
0.254387
0
LINE
8
BLACK
6
CONTINUOUS
10
1.34872
20
0.254387
11
1.34646
21
0.253937
0
LINE
8
BLACK
6
CONTINUOUS
10
1.34646
20
0.253937
11
1.33465
21
0.253937
0
LINE
8
BLACK
6
CONTINUOUS
10
1.33465
20
0.253937
11
1.33239
21
0.254387
0
LINE
8
BLACK
6
CONTINUOUS
10
1.33239
20
0.254387
11
1.33047
21
0.255667
0
LINE
8
BLACK
6
CONTINUOUS
10
1.33047
20
0.255667
11
1.32919
21
0.257583
0
LINE
8
BLACK
6
CONTINUOUS
10
1.32919
20
0.257583
11
1.32874
21
0.259843
0
LINE
8
BLACK
6
CONTINUOUS
10
1.32874
20
0.259843
11
1.32874
21
0.306102
0
LINE
8
BLACK
6
CONTINUOUS
10
1.32874
20
0.306102
11
1.32919
21
0.308362
0
LINE
8
BLACK
6
CONTINUOUS
10
1.32919
20
0.308362
11
1.33047
21
0.310278
0
LINE
8
BLACK
6
CONTINUOUS
10
1.33047
20
0.310278
11
1.33239
21
0.311558
0
LINE
8
BLACK
6
CONTINUOUS
10
1.33239
20
0.311558
11
1.33465
21
0.312008
0
LINE
8
BLACK
6
CONTINUOUS
10
1.33465
20
0.312008
11
1.34646
21
0.312008
0
LINE
8
BLACK
6
CONTINUOUS
10
1.34646
20
0.312008
11
1.34872
21
0.311558
0
LINE
8
BLACK
6
CONTINUOUS
10
1.42352
20
0.311558
11
1.42544
21
0.310278
0
LINE
8
BLACK
6
CONTINUOUS
10
1.42544
20
0.310278
11
1.42672
21
0.308362
0
LINE
8
BLACK
6
CONTINUOUS
10
1.42672
20
0.308362
11
1.42717
21
0.306102
0
LINE
8
BLACK
6
CONTINUOUS
10
1.42717
20
0.306102
11
1.42717
21
0.259843
0
LINE
8
BLACK
6
CONTINUOUS
10
1.42717
20
0.259843
11
1.42672
21
0.257583
0
LINE
8
BLACK
6
CONTINUOUS
10
1.42672
20
0.257583
11
1.42544
21
0.255667
0
LINE
8
BLACK
6
CONTINUOUS
10
1.42544
20
0.255667
11
1.42352
21
0.254387
0
LINE
8
BLACK
6
CONTINUOUS
10
1.42352
20
0.254387
11
1.42126
21
0.253937
0
LINE
8
BLACK
6
CONTINUOUS
10
1.42126
20
0.253937
11
1.40945
21
0.253937
0
LINE
8
BLACK
6
CONTINUOUS
10
1.40945
20
0.253937
11
1.40719
21
0.254387
0
LINE
8
BLACK
6
CONTINUOUS
10
1.40719
20
0.254387
11
1.40527
21
0.255667
0
LINE
8
BLACK
6
CONTINUOUS
10
1.40527
20
0.255667
11
1.40399
21
0.257583
0
LINE
8
BLACK
6
CONTINUOUS
10
1.40399
20
0.257583
11
1.40354
21
0.259843
0
LINE
8
BLACK
6
CONTINUOUS
10
1.40354
20
0.259843
11
1.40354
21
0.306102
0
LINE
8
BLACK
6
CONTINUOUS
10
1.40354
20
0.306102
11
1.40399
21
0.308362
0
LINE
8
BLACK
6
CONTINUOUS
10
1.40399
20
0.308362
11
1.40527
21
0.310278
0
LINE
8
BLACK
6
CONTINUOUS
10
1.40527
20
0.310278
11
1.40719
21
0.311558
0
LINE
8
BLACK
6
CONTINUOUS
10
1.40719
20
0.311558
11
1.40945
21
0.312008
0
LINE
8
BLACK
6
CONTINUOUS
10
1.40945
20
0.312008
11
1.42126
21
0.312008
0
LINE
8
BLACK
6
CONTINUOUS
10
1.42126
20
0.312008
11
1.42352
21
0.311558
0
LINE
8
BLACK
6
CONTINUOUS
10
1.2498
20
0.311558
11
1.25172
21
0.310278
0
LINE
8
BLACK
6
CONTINUOUS
10
1.25172
20
0.310278
11
1.253
21
0.308362
0
LINE
8
BLACK
6
CONTINUOUS
10
1.253
20
0.308362
11
1.25344
21
0.306102
0
LINE
8
BLACK
6
CONTINUOUS
10
1.25344
20
0.306102
11
1.25344
21
0.259843
0
LINE
8
BLACK
6
CONTINUOUS
10
1.25344
20
0.259843
11
1.253
21
0.257583
0
LINE
8
BLACK
6
CONTINUOUS
10
1.253
20
0.257583
11
1.25172
21
0.255667
0
LINE
8
BLACK
6
CONTINUOUS
10
1.25172
20
0.255667
11
1.2498
21
0.254387
0
LINE
8
BLACK
6
CONTINUOUS
10
1.2498
20
0.254387
11
1.24754
21
0.253937
0
LINE
8
BLACK
6
CONTINUOUS
10
1.24754
20
0.253937
11
1.23573
21
0.253937
0
LINE
8
BLACK
6
CONTINUOUS
10
1.23573
20
0.253937
11
1.23347
21
0.254387
0
LINE
8
BLACK
6
CONTINUOUS
10
1.23347
20
0.254387
11
1.23155
21
0.255667
0
LINE
8
BLACK
6
CONTINUOUS
10
1.23155
20
0.255667
11
1.23027
21
0.257583
0
LINE
8
BLACK
6
CONTINUOUS
10
1.23027
20
0.257583
11
1.22982
21
0.259843
0
LINE
8
BLACK
6
CONTINUOUS
10
1.22982
20
0.259843
11
1.22982
21
0.306102
0
LINE
8
BLACK
6
CONTINUOUS
10
1.22982
20
0.306102
11
1.23027
21
0.308362
0
LINE
8
BLACK
6
CONTINUOUS
10
1.23027
20
0.308362
11
1.23155
21
0.310278
0
LINE
8
BLACK
6
CONTINUOUS
10
1.23155
20
0.310278
11
1.23347
21
0.311558
0
LINE
8
BLACK
6
CONTINUOUS
10
1.23347
20
0.311558
11
1.23573
21
0.312008
0
LINE
8
BLACK
6
CONTINUOUS
10
1.23573
20
0.312008
11
1.24754
21
0.312008
0
LINE
8
BLACK
6
CONTINUOUS
10
1.24754
20
0.312008
11
1.2498
21
0.311558
0
LINE
8
BLACK
6
CONTINUOUS
10
1.175
20
0.311558
11
1.17691
21
0.310278
0
LINE
8
BLACK
6
CONTINUOUS
10
1.17691
20
0.310278
11
1.17819
21
0.308362
0
LINE
8
BLACK
6
CONTINUOUS
10
1.17819
20
0.308362
11
1.17864
21
0.306102
0
LINE
8
BLACK
6
CONTINUOUS
10
1.17864
20
0.306102
11
1.17864
21
0.259843
0
LINE
8
BLACK
6
CONTINUOUS
10
1.17864
20
0.259843
11
1.17819
21
0.257583
0
LINE
8
BLACK
6
CONTINUOUS
10
1.17819
20
0.257583
11
1.17691
21
0.255667
0
LINE
8
BLACK
6
CONTINUOUS
10
1.17691
20
0.255667
11
1.175
21
0.254387
0
LINE
8
BLACK
6
CONTINUOUS
10
1.175
20
0.254387
11
1.17274
21
0.253937
0
LINE
8
BLACK
6
CONTINUOUS
10
1.17274
20
0.253937
11
1.16093
21
0.253937
0
LINE
8
BLACK
6
CONTINUOUS
10
1.16093
20
0.253937
11
1.15867
21
0.254387
0
LINE
8
BLACK
6
CONTINUOUS
10
1.15867
20
0.254387
11
1.15675
21
0.255667
0
LINE
8
BLACK
6
CONTINUOUS
10
1.15675
20
0.255667
11
1.15547
21
0.257583
0
LINE
8
BLACK
6
CONTINUOUS
10
1.15547
20
0.257583
11
1.15502
21
0.259843
0
LINE
8
BLACK
6
CONTINUOUS
10
1.15502
20
0.259843
11
1.15502
21
0.306102
0
LINE
8
BLACK
6
CONTINUOUS
10
1.15502
20
0.306102
11
1.15547
21
0.308362
0
LINE
8
BLACK
6
CONTINUOUS
10
1.15547
20
0.308362
11
1.15675
21
0.310278
0
LINE
8
BLACK
6
CONTINUOUS
10
1.15675
20
0.310278
11
1.15867
21
0.311558
0
LINE
8
BLACK
6
CONTINUOUS
10
1.15867
20
0.311558
11
1.16093
21
0.312008
0
LINE
8
BLACK
6
CONTINUOUS
10
1.16093
20
0.312008
11
1.17274
21
0.312008
0
LINE
8
BLACK
6
CONTINUOUS
10
1.17274
20
0.312008
11
1.175
21
0.311558
0
LINE
8
BLACK
6
CONTINUOUS
10
1.00423
20
0.311558
11
1.00614
21
0.310278
0
LINE
8
BLACK
6
CONTINUOUS
10
1.00614
20
0.310278
11
1.00742
21
0.308362
0
LINE
8
BLACK
6
CONTINUOUS
10
1.00742
20
0.308362
11
1.00787
21
0.306102
0
LINE
8
BLACK
6
CONTINUOUS
10
1.00787
20
0.306102
11
1.00787
21
0.259843
0
LINE
8
BLACK
6
CONTINUOUS
10
1.00787
20
0.259843
11
1.00742
21
0.257583
0
LINE
8
BLACK
6
CONTINUOUS
10
1.00742
20
0.257583
11
1.00614
21
0.255667
0
LINE
8
BLACK
6
CONTINUOUS
10
1.00614
20
0.255667
11
1.00423
21
0.254387
0
LINE
8
BLACK
6
CONTINUOUS
10
1.00423
20
0.254387
11
1.00197
21
0.253937
0
LINE
8
BLACK
6
CONTINUOUS
10
1.00197
20
0.253937
11
0.990157
21
0.253937
0
LINE
8
BLACK
6
CONTINUOUS
10
0.990157
20
0.253937
11
0.987898
21
0.254387
0
LINE
8
BLACK
6
CONTINUOUS
10
0.987898
20
0.254387
11
0.985982
21
0.255667
0
LINE
8
BLACK
6
CONTINUOUS
10
0.985982
20
0.255667
11
0.984701
21
0.257583
0
LINE
8
BLACK
6
CONTINUOUS
10
0.984701
20
0.257583
11
0.984252
21
0.259843
0
LINE
8
BLACK
6
CONTINUOUS
10
0.984252
20
0.259843
11
0.984252
21
0.306102
0
LINE
8
BLACK
6
CONTINUOUS
10
0.984252
20
0.306102
11
0.984701
21
0.308362
0
LINE
8
BLACK
6
CONTINUOUS
10
0.984701
20
0.308362
11
0.985982
21
0.310278
0
LINE
8
BLACK
6
CONTINUOUS
10
0.985982
20
0.310278
11
0.987898
21
0.311558
0
LINE
8
BLACK
6
CONTINUOUS
10
0.987898
20
0.311558
11
0.990157
21
0.312008
0
LINE
8
BLACK
6
CONTINUOUS
10
0.990157
20
0.312008
11
1.00197
21
0.312008
0
LINE
8
BLACK
6
CONTINUOUS
10
1.00197
20
0.312008
11
1.00423
21
0.311558
0
LINE
8
BLACK
6
CONTINUOUS
10
1.0082
20
0.479566
11
1.01139
21
0.477432
0
LINE
8
BLACK
6
CONTINUOUS
10
1.01139
20
0.477432
11
1.01352
21
0.474239
0
LINE
8
BLACK
6
CONTINUOUS
10
1.01352
20
0.474239
11
1.01427
21
0.470472
0
LINE
8
BLACK
6
CONTINUOUS
10
1.01427
20
0.470472
11
1.01427
21
0.435039
0
LINE
8
BLACK
6
CONTINUOUS
10
1.01427
20
0.435039
11
1.01352
21
0.431273
0
LINE
8
BLACK
6
CONTINUOUS
10
1.01352
20
0.431273
11
1.01139
21
0.42808
0
LINE
8
BLACK
6
CONTINUOUS
10
1.01139
20
0.42808
11
1.0082
21
0.425946
0
LINE
8
BLACK
6
CONTINUOUS
10
1.0082
20
0.425946
11
1.00443
21
0.425197
0
LINE
8
BLACK
6
CONTINUOUS
10
1.00443
20
0.425197
11
0.98376
21
0.425197
0
LINE
8
BLACK
6
CONTINUOUS
10
0.98376
20
0.425197
11
0.979993
21
0.425946
0
LINE
8
BLACK
6
CONTINUOUS
10
0.979993
20
0.425946
11
0.9768
21
0.42808
0
LINE
8
BLACK
6
CONTINUOUS
10
0.9768
20
0.42808
11
0.974667
21
0.431273
0
LINE
8
BLACK
6
CONTINUOUS
10
0.974667
20
0.431273
11
0.973917
21
0.435039
0
LINE
8
BLACK
6
CONTINUOUS
10
0.973917
20
0.435039
11
0.973917
21
0.470472
0
LINE
8
BLACK
6
CONTINUOUS
10
0.973917
20
0.470472
11
0.974667
21
0.474239
0
LINE
8
BLACK
6
CONTINUOUS
10
0.974667
20
0.474239
11
0.9768
21
0.477432
0
LINE
8
BLACK
6
CONTINUOUS
10
0.9768
20
0.477432
11
0.979993
21
0.479566
0
LINE
8
BLACK
6
CONTINUOUS
10
0.979993
20
0.479566
11
0.98376
21
0.480315
0
LINE
8
BLACK
6
CONTINUOUS
10
0.98376
20
0.480315
11
1.00443
21
0.480315
0
LINE
8
BLACK
6
CONTINUOUS
10
1.00443
20
0.480315
11
1.0082
21
0.479566
0
LINE
8
BLACK
6
CONTINUOUS
10
1.17896
20
0.479566
11
1.18216
21
0.477432
0
LINE
8
BLACK
6
CONTINUOUS
10
1.18216
20
0.477432
11
1.18429
21
0.474239
0
LINE
8
BLACK
6
CONTINUOUS
10
1.18429
20
0.474239
11
1.18504
21
0.470472
0
LINE
8
BLACK
6
CONTINUOUS
10
1.18504
20
0.470472
11
1.18504
21
0.435039
0
LINE
8
BLACK
6
CONTINUOUS
10
1.18504
20
0.435039
11
1.18429
21
0.431273
0
LINE
8
BLACK
6
CONTINUOUS
10
1.18429
20
0.431273
11
1.18216
21
0.42808
0
LINE
8
BLACK
6
CONTINUOUS
10
1.18216
20
0.42808
11
1.17896
21
0.425946
0
LINE
8
BLACK
6
CONTINUOUS
10
1.17896
20
0.425946
11
1.1752
21
0.425197
0
LINE
8
BLACK
6
CONTINUOUS
10
1.1752
20
0.425197
11
1.15453
21
0.425197
0
LINE
8
BLACK
6
CONTINUOUS
10
1.15453
20
0.425197
11
1.15076
21
0.425946
0
LINE
8
BLACK
6
CONTINUOUS
10
1.15076
20
0.425946
11
1.14757
21
0.42808
0
LINE
8
BLACK
6
CONTINUOUS
10
1.14757
20
0.42808
11
1.14543
21
0.431273
0
LINE
8
BLACK
6
CONTINUOUS
10
1.14543
20
0.431273
11
1.14469
21
0.435039
0
LINE
8
BLACK
6
CONTINUOUS
10
1.14469
20
0.435039
11
1.14469
21
0.470472
0
LINE
8
BLACK
6
CONTINUOUS
10
1.14469
20
0.470472
11
1.14543
21
0.474239
0
LINE
8
BLACK
6
CONTINUOUS
10
1.14543
20
0.474239
11
1.14757
21
0.477432
0
LINE
8
BLACK
6
CONTINUOUS
10
1.14757
20
0.477432
11
1.15076
21
0.479566
0
LINE
8
BLACK
6
CONTINUOUS
10
1.15076
20
0.479566
11
1.15453
21
0.480315
0
LINE
8
BLACK
6
CONTINUOUS
10
1.15453
20
0.480315
11
1.1752
21
0.480315
0
LINE
8
BLACK
6
CONTINUOUS
10
1.1752
20
0.480315
11
1.17896
21
0.479566
0
LINE
8
BLACK
6
CONTINUOUS
10
1.25081
20
0.479566
11
1.25401
21
0.477432
0
LINE
8
BLACK
6
CONTINUOUS
10
1.25401
20
0.477432
11
1.25614
21
0.474239
0
LINE
8
BLACK
6
CONTINUOUS
10
1.25614
20
0.474239
11
1.25689
21
0.470472
0
LINE
8
BLACK
6
CONTINUOUS
10
1.25689
20
0.470472
11
1.25689
21
0.435039
0
LINE
8
BLACK
6
CONTINUOUS
10
1.25689
20
0.435039
11
1.25614
21
0.431273
0
LINE
8
BLACK
6
CONTINUOUS
10
1.25614
20
0.431273
11
1.25401
21
0.42808
0
LINE
8
BLACK
6
CONTINUOUS
10
1.25401
20
0.42808
11
1.25081
21
0.425946
0
LINE
8
BLACK
6
CONTINUOUS
10
1.25081
20
0.425946
11
1.24705
21
0.425197
0
LINE
8
BLACK
6
CONTINUOUS
10
1.24705
20
0.425197
11
1.22638
21
0.425197
0
LINE
8
BLACK
6
CONTINUOUS
10
1.22638
20
0.425197
11
1.22261
21
0.425946
0
LINE
8
BLACK
6
CONTINUOUS
10
1.22261
20
0.425946
11
1.21942
21
0.42808
0
LINE
8
BLACK
6
CONTINUOUS
10
1.21942
20
0.42808
11
1.21728
21
0.431273
0
LINE
8
BLACK
6
CONTINUOUS
10
1.21728
20
0.431273
11
1.21654
21
0.435039
0
LINE
8
BLACK
6
CONTINUOUS
10
1.21654
20
0.435039
11
1.21654
21
0.470472
0
LINE
8
BLACK
6
CONTINUOUS
10
1.21654
20
0.470472
11
1.21728
21
0.474239
0
LINE
8
BLACK
6
CONTINUOUS
10
1.21728
20
0.474239
11
1.21942
21
0.477432
0
LINE
8
BLACK
6
CONTINUOUS
10
1.21942
20
0.477432
11
1.22261
21
0.479566
0
LINE
8
BLACK
6
CONTINUOUS
10
1.22261
20
0.479566
11
1.22638
21
0.480315
0
LINE
8
BLACK
6
CONTINUOUS
10
1.22638
20
0.480315
11
1.24705
21
0.480315
0
LINE
8
BLACK
6
CONTINUOUS
10
1.24705
20
0.480315
11
1.25081
21
0.479566
0
LINE
8
BLACK
6
CONTINUOUS
10
1.08005
20
0.479566
11
1.08324
21
0.477432
0
LINE
8
BLACK
6
CONTINUOUS
10
1.08324
20
0.477432
11
1.08537
21
0.474239
0
LINE
8
BLACK
6
CONTINUOUS
10
1.08537
20
0.474239
11
1.08612
21
0.470472
0
LINE
8
BLACK
6
CONTINUOUS
10
1.08612
20
0.470472
11
1.08612
21
0.435039
0
LINE
8
BLACK
6
CONTINUOUS
10
1.08612
20
0.435039
11
1.08537
21
0.431273
0
LINE
8
BLACK
6
CONTINUOUS
10
1.08537
20
0.431273
11
1.08324
21
0.42808
0
LINE
8
BLACK
6
CONTINUOUS
10
1.08324
20
0.42808
11
1.08005
21
0.425946
0
LINE
8
BLACK
6
CONTINUOUS
10
1.08005
20
0.425946
11
1.07628
21
0.425197
0
LINE
8
BLACK
6
CONTINUOUS
10
1.07628
20
0.425197
11
1.05561
21
0.425197
0
LINE
8
BLACK
6
CONTINUOUS
10
1.05561
20
0.425197
11
1.05184
21
0.425946
0
LINE
8
BLACK
6
CONTINUOUS
10
1.05184
20
0.425946
11
1.04865
21
0.42808
0
LINE
8
BLACK
6
CONTINUOUS
10
1.04865
20
0.42808
11
1.04652
21
0.431273
0
LINE
8
BLACK
6
CONTINUOUS
10
1.04652
20
0.431273
11
1.04577
21
0.435039
0
LINE
8
BLACK
6
CONTINUOUS
10
1.04577
20
0.435039
11
1.04577
21
0.470472
0
LINE
8
BLACK
6
CONTINUOUS
10
1.04577
20
0.470472
11
1.04652
21
0.474239
0
LINE
8
BLACK
6
CONTINUOUS
10
1.04652
20
0.474239
11
1.04865
21
0.477432
0
LINE
8
BLACK
6
CONTINUOUS
10
1.04865
20
0.477432
11
1.05184
21
0.479566
0
LINE
8
BLACK
6
CONTINUOUS
10
1.05184
20
0.479566
11
1.05561
21
0.480315
0
LINE
8
BLACK
6
CONTINUOUS
10
1.05561
20
0.480315
11
1.07628
21
0.480315
0
LINE
8
BLACK
6
CONTINUOUS
10
1.07628
20
0.480315
11
1.08005
21
0.479566
0
LINE
8
BLACK
6
CONTINUOUS
10
1.40829
20
0.479566
11
1.41149
21
0.477432
0
LINE
8
BLACK
6
CONTINUOUS
10
1.41149
20
0.477432
11
1.41362
21
0.474239
0
LINE
8
BLACK
6
CONTINUOUS
10
1.41362
20
0.474239
11
1.41437
21
0.470472
0
LINE
8
BLACK
6
CONTINUOUS
10
1.41437
20
0.470472
11
1.41437
21
0.435039
0
LINE
8
BLACK
6
CONTINUOUS
10
1.41437
20
0.435039
11
1.41362
21
0.431273
0
LINE
8
BLACK
6
CONTINUOUS
10
1.41362
20
0.431273
11
1.41149
21
0.42808
0
LINE
8
BLACK
6
CONTINUOUS
10
1.41149
20
0.42808
11
1.40829
21
0.425946
0
LINE
8
BLACK
6
CONTINUOUS
10
1.40829
20
0.425946
11
1.40453
21
0.425197
0
LINE
8
BLACK
6
CONTINUOUS
10
1.40453
20
0.425197
11
1.38386
21
0.425197
0
LINE
8
BLACK
6
CONTINUOUS
10
1.38386
20
0.425197
11
1.38009
21
0.425946
0
LINE
8
BLACK
6
CONTINUOUS
10
1.38009
20
0.425946
11
1.3769
21
0.42808
0
LINE
8
BLACK
6
CONTINUOUS
10
1.3769
20
0.42808
11
1.37476
21
0.431273
0
LINE
8
BLACK
6
CONTINUOUS
10
1.37476
20
0.431273
11
1.37402
21
0.435039
0
LINE
8
BLACK
6
CONTINUOUS
10
1.37402
20
0.435039
11
1.37402
21
0.470472
0
LINE
8
BLACK
6
CONTINUOUS
10
1.37402
20
0.470472
11
1.37476
21
0.474239
0
LINE
8
BLACK
6
CONTINUOUS
10
1.37476
20
0.474239
11
1.3769
21
0.477432
0
LINE
8
BLACK
6
CONTINUOUS
10
1.3769
20
0.477432
11
1.38009
21
0.479566
0
LINE
8
BLACK
6
CONTINUOUS
10
1.38009
20
0.479566
11
1.38386
21
0.480315
0
LINE
8
BLACK
6
CONTINUOUS
10
1.38386
20
0.480315
11
1.40453
21
0.480315
0
LINE
8
BLACK
6
CONTINUOUS
10
1.40453
20
0.480315
11
1.40829
21
0.479566
0
LINE
8
BLACK
6
CONTINUOUS
10
1.33644
20
0.479566
11
1.33964
21
0.477432
0
LINE
8
BLACK
6
CONTINUOUS
10
1.33964
20
0.477432
11
1.34177
21
0.474239
0
LINE
8
BLACK
6
CONTINUOUS
10
1.34177
20
0.474239
11
1.34252
21
0.470472
0
LINE
8
BLACK
6
CONTINUOUS
10
1.34252
20
0.470472
11
1.34252
21
0.435039
0
LINE
8
BLACK
6
CONTINUOUS
10
1.34252
20
0.435039
11
1.34177
21
0.431273
0
LINE
8
BLACK
6
CONTINUOUS
10
1.34177
20
0.431273
11
1.33964
21
0.42808
0
LINE
8
BLACK
6
CONTINUOUS
10
1.33964
20
0.42808
11
1.33644
21
0.425946
0
LINE
8
BLACK
6
CONTINUOUS
10
1.33644
20
0.425946
11
1.33268
21
0.425197
0
LINE
8
BLACK
6
CONTINUOUS
10
1.33268
20
0.425197
11
1.31201
21
0.425197
0
LINE
8
BLACK
6
CONTINUOUS
10
1.31201
20
0.425197
11
1.30824
21
0.425946
0
LINE
8
BLACK
6
CONTINUOUS
10
1.30824
20
0.425946
11
1.30505
21
0.42808
0
LINE
8
BLACK
6
CONTINUOUS
10
1.30505
20
0.42808
11
1.30291
21
0.431273
0
LINE
8
BLACK
6
CONTINUOUS
10
1.30291
20
0.431273
11
1.30217
21
0.435039
0
LINE
8
BLACK
6
CONTINUOUS
10
1.30217
20
0.435039
11
1.30217
21
0.470472
0
LINE
8
BLACK
6
CONTINUOUS
10
1.30217
20
0.470472
11
1.30291
21
0.474239
0
LINE
8
BLACK
6
CONTINUOUS
10
1.30291
20
0.474239
11
1.30505
21
0.477432
0
LINE
8
BLACK
6
CONTINUOUS
10
1.30505
20
0.477432
11
1.30824
21
0.479566
0
LINE
8
BLACK
6
CONTINUOUS
10
1.30824
20
0.479566
11
1.31201
21
0.480315
0
LINE
8
BLACK
6
CONTINUOUS
10
1.31201
20
0.480315
11
1.33268
21
0.480315
0
LINE
8
BLACK
6
CONTINUOUS
10
1.33268
20
0.480315
11
1.33644
21
0.479566
0
LINE
8
BLACK
6
CONTINUOUS
10
1.12205
20
0.574803
11
1.02362
21
0.574803
0
LINE
8
BLACK
6
CONTINUOUS
10
1.02362
20
0.574803
11
1.02362
21
0.645669
0
LINE
8
BLACK
6
CONTINUOUS
10
1.02362
20
0.645669
11
1.12205
21
0.645669
0
LINE
8
BLACK
6
CONTINUOUS
10
1.12205
20
0.645669
11
1.12205
21
0.574803
0
LINE
8
BLACK
6
CONTINUOUS
10
0.964567
20
0.574803
11
0.866142
21
0.574803
0
LINE
8
BLACK
6
CONTINUOUS
10
0.866142
20
0.574803
11
0.866142
21
0.645669
0
LINE
8
BLACK
6
CONTINUOUS
10
0.866142
20
0.645669
11
0.964567
21
0.645669
0
LINE
8
BLACK
6
CONTINUOUS
10
0.964567
20
0.645669
11
0.964567
21
0.574803
0
LINE
8
BLACK
6
CONTINUOUS
10
1.2705
20
0.637046
11
1.27369
21
0.634912
0
LINE
8
BLACK
6
CONTINUOUS
10
1.27369
20
0.634912
11
1.27583
21
0.631719
0
LINE
8
BLACK
6
CONTINUOUS
10
1.27583
20
0.631719
11
1.27657
21
0.627953
0
LINE
8
BLACK
6
CONTINUOUS
10
1.27657
20
0.627953
11
1.27657
21
0.59252
0
LINE
8
BLACK
6
CONTINUOUS
10
1.27657
20
0.59252
11
1.27583
21
0.588753
0
LINE
8
BLACK
6
CONTINUOUS
10
1.27583
20
0.588753
11
1.27369
21
0.58556
0
LINE
8
BLACK
6
CONTINUOUS
10
1.27369
20
0.58556
11
1.2705
21
0.583426
0
LINE
8
BLACK
6
CONTINUOUS
10
1.2705
20
0.583426
11
1.26673
21
0.582677
0
LINE
8
BLACK
6
CONTINUOUS
10
1.26673
20
0.582677
11
1.24606
21
0.582677
0
LINE
8
BLACK
6
CONTINUOUS
10
1.24606
20
0.582677
11
1.2423
21
0.583426
0
LINE
8
BLACK
6
CONTINUOUS
10
1.2423
20
0.583426
11
1.2391
21
0.58556
0
LINE
8
BLACK
6
CONTINUOUS
10
1.2391
20
0.58556
11
1.23697
21
0.588753
0
LINE
8
BLACK
6
CONTINUOUS
10
1.23697
20
0.588753
11
1.23622
21
0.59252
0
LINE
8
BLACK
6
CONTINUOUS
10
1.23622
20
0.59252
11
1.23622
21
0.627953
0
LINE
8
BLACK
6
CONTINUOUS
10
1.23622
20
0.627953
11
1.23697
21
0.631719
0
LINE
8
BLACK
6
CONTINUOUS
10
1.23697
20
0.631719
11
1.2391
21
0.634912
0
LINE
8
BLACK
6
CONTINUOUS
10
1.2391
20
0.634912
11
1.2423
21
0.637046
0
LINE
8
BLACK
6
CONTINUOUS
10
1.2423
20
0.637046
11
1.24606
21
0.637795
0
LINE
8
BLACK
6
CONTINUOUS
10
1.24606
20
0.637795
11
1.26673
21
0.637795
0
LINE
8
BLACK
6
CONTINUOUS
10
1.26673
20
0.637795
11
1.2705
21
0.637046
0
LINE
8
BLACK
6
CONTINUOUS
10
1.19865
20
0.637046
11
1.20184
21
0.634912
0
LINE
8
BLACK
6
CONTINUOUS
10
1.20184
20
0.634912
11
1.20398
21
0.631719
0
LINE
8
BLACK
6
CONTINUOUS
10
1.20398
20
0.631719
11
1.20472
21
0.627953
0
LINE
8
BLACK
6
CONTINUOUS
10
1.20472
20
0.627953
11
1.20472
21
0.59252
0
LINE
8
BLACK
6
CONTINUOUS
10
1.20472
20
0.59252
11
1.20398
21
0.588753
0
LINE
8
BLACK
6
CONTINUOUS
10
1.20398
20
0.588753
11
1.20184
21
0.58556
0
LINE
8
BLACK
6
CONTINUOUS
10
1.20184
20
0.58556
11
1.19865
21
0.583426
0
LINE
8
BLACK
6
CONTINUOUS
10
1.19865
20
0.583426
11
1.19488
21
0.582677
0
LINE
8
BLACK
6
CONTINUOUS
10
1.19488
20
0.582677
11
1.17421
21
0.582677
0
LINE
8
BLACK
6
CONTINUOUS
10
1.17421
20
0.582677
11
1.17045
21
0.583426
0
LINE
8
BLACK
6
CONTINUOUS
10
1.17045
20
0.583426
11
1.16725
21
0.58556
0
LINE
8
BLACK
6
CONTINUOUS
10
1.16725
20
0.58556
11
1.16512
21
0.588753
0
LINE
8
BLACK
6
CONTINUOUS
10
1.16512
20
0.588753
11
1.16437
21
0.59252
0
LINE
8
BLACK
6
CONTINUOUS
10
1.16437
20
0.59252
11
1.16437
21
0.627953
0
LINE
8
BLACK
6
CONTINUOUS
10
1.16437
20
0.627953
11
1.16512
21
0.631719
0
LINE
8
BLACK
6
CONTINUOUS
10
1.16512
20
0.631719
11
1.16725
21
0.634912
0
LINE
8
BLACK
6
CONTINUOUS
10
1.16725
20
0.634912
11
1.17045
21
0.637046
0
LINE
8
BLACK
6
CONTINUOUS
10
1.17045
20
0.637046
11
1.17421
21
0.637795
0
LINE
8
BLACK
6
CONTINUOUS
10
1.17421
20
0.637795
11
1.19488
21
0.637795
0
LINE
8
BLACK
6
CONTINUOUS
10
1.19488
20
0.637795
11
1.19865
21
0.637046
0
LINE
8
BLACK
6
CONTINUOUS
10
0.545276
20
1.02953
11
0.452756
21
1.02953
0
LINE
8
BLACK
6
CONTINUOUS
10
0.452756
20
1.02953
11
0.452756
21
1.23031
0
LINE
8
BLACK
6
CONTINUOUS
10
0.452756
20
1.23031
11
0.545276
21
1.23031
0
LINE
8
BLACK
6
CONTINUOUS
10
0.545276
20
1.23031
11
0.545276
21
1.02953
0
LINE
8
BLACK
6
CONTINUOUS
10
0.38189
20
1.02953
11
0.28937
21
1.02953
0
LINE
8
BLACK
6
CONTINUOUS
10
0.28937
20
1.02953
11
0.28937
21
1.23031
0
LINE
8
BLACK
6
CONTINUOUS
10
0.28937
20
1.23031
11
0.38189
21
1.23031
0
LINE
8
BLACK
6
CONTINUOUS
10
0.38189
20
1.23031
11
0.38189
21
1.02953
0
LINE
8
BLACK
6
CONTINUOUS
10
0.153543
20
1.0689
11
0.0826772
21
1.0689
0
LINE
8
BLACK
6
CONTINUOUS
10
0.0826772
20
1.0689
11
0.0826772
21
1.16732
0
LINE
8
BLACK
6
CONTINUOUS
10
0.0826772
20
1.16732
11
0.153543
21
1.16732
0
LINE
8
BLACK
6
CONTINUOUS
10
0.153543
20
1.16732
11
0.153543
21
1.0689
0
LINE
8
BLACK
6
CONTINUOUS
10
0.631871
20
1.17201
11
0.634985
21
1.16993
0
LINE
8
BLACK
6
CONTINUOUS
10
0.634985
20
1.16993
11
0.637065
21
1.16681
0
LINE
8
BLACK
6
CONTINUOUS
10
0.637065
20
1.16681
11
0.637795
21
1.16314
0
LINE
8
BLACK
6
CONTINUOUS
10
0.637795
20
1.16314
11
0.637795
21
1.14395
0
LINE
8
BLACK
6
CONTINUOUS
10
0.637795
20
1.14395
11
0.637065
21
1.14027
0
LINE
8
BLACK
6
CONTINUOUS
10
0.637065
20
1.14027
11
0.634985
21
1.13716
0
LINE
8
BLACK
6
CONTINUOUS
10
0.634985
20
1.13716
11
0.631871
21
1.13508
0
LINE
8
BLACK
6
CONTINUOUS
10
0.631871
20
1.13508
11
0.628199
21
1.13435
0
LINE
8
BLACK
6
CONTINUOUS
10
0.628199
20
1.13435
11
0.592274
21
1.13435
0
LINE
8
BLACK
6
CONTINUOUS
10
0.592274
20
1.13435
11
0.588601
21
1.13508
0
LINE
8
BLACK
6
CONTINUOUS
10
0.588601
20
1.13508
11
0.585488
21
1.13716
0
LINE
8
BLACK
6
CONTINUOUS
10
0.585488
20
1.13716
11
0.583408
21
1.14027
0
LINE
8
BLACK
6
CONTINUOUS
10
0.583408
20
1.14027
11
0.582677
21
1.14395
0
LINE
8
BLACK
6
CONTINUOUS
10
0.582677
20
1.14395
11
0.582677
21
1.16314
0
LINE
8
BLACK
6
CONTINUOUS
10
0.582677
20
1.16314
11
0.583408
21
1.16681
0
LINE
8
BLACK
6
CONTINUOUS
10
0.583408
20
1.16681
11
0.585488
21
1.16993
0
LINE
8
BLACK
6
CONTINUOUS
10
0.585488
20
1.16993
11
0.588601
21
1.17201
0
LINE
8
BLACK
6
CONTINUOUS
10
0.588601
20
1.17201
11
0.592274
21
1.17274
0
LINE
8
BLACK
6
CONTINUOUS
10
0.592274
20
1.17274
11
0.628199
21
1.17274
0
LINE
8
BLACK
6
CONTINUOUS
10
0.628199
20
1.17274
11
0.631871
21
1.17201
0
LINE
8
BLACK
6
CONTINUOUS
10
0.631871
20
1.24582
11
0.634985
21
1.24374
0
LINE
8
BLACK
6
CONTINUOUS
10
0.634985
20
1.24374
11
0.637065
21
1.24063
0
LINE
8
BLACK
6
CONTINUOUS
10
0.637065
20
1.24063
11
0.637795
21
1.23696
0
LINE
8
BLACK
6
CONTINUOUS
10
0.637795
20
1.23696
11
0.637795
21
1.21777
0
LINE
8
BLACK
6
CONTINUOUS
10
0.637795
20
1.21777
11
0.637065
21
1.21409
0
LINE
8
BLACK
6
CONTINUOUS
10
0.637065
20
1.21409
11
0.634985
21
1.21098
0
LINE
8
BLACK
6
CONTINUOUS
10
0.634985
20
1.21098
11
0.631871
21
1.2089
0
LINE
8
BLACK
6
CONTINUOUS
10
0.631871
20
1.2089
11
0.628199
21
1.20817
0
LINE
8
BLACK
6
CONTINUOUS
10
0.628199
20
1.20817
11
0.592274
21
1.20817
0
LINE
8
BLACK
6
CONTINUOUS
10
0.592274
20
1.20817
11
0.588601
21
1.2089
0
LINE
8
BLACK
6
CONTINUOUS
10
0.588601
20
1.2089
11
0.585488
21
1.21098
0
LINE
8
BLACK
6
CONTINUOUS
10
0.585488
20
1.21098
11
0.583408
21
1.21409
0
LINE
8
BLACK
6
CONTINUOUS
10
0.583408
20
1.21409
11
0.582677
21
1.21777
0
LINE
8
BLACK
6
CONTINUOUS
10
0.582677
20
1.21777
11
0.582677
21
1.23696
0
LINE
8
BLACK
6
CONTINUOUS
10
0.582677
20
1.23696
11
0.583408
21
1.24063
0
LINE
8
BLACK
6
CONTINUOUS
10
0.583408
20
1.24063
11
0.585488
21
1.24374
0
LINE
8
BLACK
6
CONTINUOUS
10
0.585488
20
1.24374
11
0.588601
21
1.24582
0
LINE
8
BLACK
6
CONTINUOUS
10
0.588601
20
1.24582
11
0.592274
21
1.24656
0
LINE
8
BLACK
6
CONTINUOUS
10
0.592274
20
1.24656
11
0.628199
21
1.24656
0
LINE
8
BLACK
6
CONTINUOUS
10
0.628199
20
1.24656
11
0.631871
21
1.24582
0
LINE
8
BLACK
6
CONTINUOUS
10
0.021635
20
1.25075
11
0.0247483
21
1.24867
0
LINE
8
BLACK
6
CONTINUOUS
10
0.0247483
20
1.24867
11
0.0268286
21
1.24555
0
LINE
8
BLACK
6
CONTINUOUS
10
0.0268286
20
1.24555
11
0.0275591
21
1.24188
0
LINE
8
BLACK
6
CONTINUOUS
10
0.0275591
20
1.24188
11
0.0275591
21
1.22269
0
LINE
8
BLACK
6
CONTINUOUS
10
0.0275591
20
1.22269
11
0.0268286
21
1.21901
0
LINE
8
BLACK
6
CONTINUOUS
10
0.0268286
20
1.21901
11
0.0247483
21
1.2159
0
LINE
8
BLACK
6
CONTINUOUS
10
0.0247483
20
1.2159
11
0.021635
21
1.21382
0
LINE
8
BLACK
6
CONTINUOUS
10
0.021635
20
1.21382
11
0.0179626
21
1.21309
0
LINE
8
BLACK
6
CONTINUOUS
10
0.0179626
20
1.21309
11
-0.0179626
21
1.21309
0
LINE
8
BLACK
6
CONTINUOUS
10
-0.0179626
20
1.21309
11
-0.021635
21
1.21382
0
LINE
8
BLACK
6
CONTINUOUS
10
-0.021635
20
1.21382
11
-0.0247483
21
1.2159
0
LINE
8
BLACK
6
CONTINUOUS
10
-0.0247483
20
1.2159
11
-0.0268286
21
1.21901
0
LINE
8
BLACK
6
CONTINUOUS
10
-0.0268286
20
1.21901
11
-0.0275591
21
1.22269
0
LINE
8
BLACK
6
CONTINUOUS
10
-0.0275591
20
1.22269
11
-0.0275591
21
1.24188
0
LINE
8
BLACK
6
CONTINUOUS
10
-0.0275591
20
1.24188
11
-0.0268286
21
1.24555
0
LINE
8
BLACK
6
CONTINUOUS
10
-0.0268286
20
1.24555
11
-0.0247483
21
1.24867
0
LINE
8
BLACK
6
CONTINUOUS
10
-0.0247483
20
1.24867
11
-0.021635
21
1.25075
0
LINE
8
BLACK
6
CONTINUOUS
10
-0.021635
20
1.25075
11
-0.0179626
21
1.25148
0
LINE
8
BLACK
6
CONTINUOUS
10
-0.0179626
20
1.25148
11
0.0179626
21
1.25148
0
LINE
8
BLACK
6
CONTINUOUS
10
0.0179626
20
1.25148
11
0.021635
21
1.25075
0
LINE
8
BLACK
6
CONTINUOUS
10
0.153543
20
1.22638
11
0.0826772
21
1.22638
0
LINE
8
BLACK
6
CONTINUOUS
10
0.0826772
20
1.22638
11
0.0826772
21
1.3248
0
LINE
8
BLACK
6
CONTINUOUS
10
0.0826772
20
1.3248
11
0.153543
21
1.3248
0
LINE
8
BLACK
6
CONTINUOUS
10
0.153543
20
1.3248
11
0.153543
21
1.22638
0
LINE
8
BLACK
6
CONTINUOUS
10
0.249981
20
1.29651
11
0.253095
21
1.29443
0
LINE
8
BLACK
6
CONTINUOUS
10
0.253095
20
1.29443
11
0.255175
21
1.29132
0
LINE
8
BLACK
6
CONTINUOUS
10
0.255175
20
1.29132
11
0.255906
21
1.28765
0
LINE
8
BLACK
6
CONTINUOUS
10
0.255906
20
1.28765
11
0.255906
21
1.26845
0
LINE
8
BLACK
6
CONTINUOUS
10
0.255906
20
1.26845
11
0.255175
21
1.26478
0
LINE
8
BLACK
6
CONTINUOUS
10
0.255175
20
1.26478
11
0.253095
21
1.26167
0
LINE
8
BLACK
6
CONTINUOUS
10
0.253095
20
1.26167
11
0.249981
21
1.25959
0
LINE
8
BLACK
6
CONTINUOUS
10
0.249981
20
1.25959
11
0.246309
21
1.25886
0
LINE
8
BLACK
6
CONTINUOUS
10
0.246309
20
1.25886
11
0.210384
21
1.25886
0
LINE
8
BLACK
6
CONTINUOUS
10
0.210384
20
1.25886
11
0.206711
21
1.25959
0
LINE
8
BLACK
6
CONTINUOUS
10
0.206711
20
1.25959
11
0.203598
21
1.26167
0
LINE
8
BLACK
6
CONTINUOUS
10
0.203598
20
1.26167
11
0.201518
21
1.26478
0
LINE
8
BLACK
6
CONTINUOUS
10
0.201518
20
1.26478
11
0.200787
21
1.26845
0
LINE
8
BLACK
6
CONTINUOUS
10
0.200787
20
1.26845
11
0.200787
21
1.28765
0
LINE
8
BLACK
6
CONTINUOUS
10
0.200787
20
1.28765
11
0.201518
21
1.29132
0
LINE
8
BLACK
6
CONTINUOUS
10
0.201518
20
1.29132
11
0.203598
21
1.29443
0
LINE
8
BLACK
6
CONTINUOUS
10
0.203598
20
1.29443
11
0.206711
21
1.29651
0
LINE
8
BLACK
6
CONTINUOUS
10
0.206711
20
1.29651
11
0.210384
21
1.29724
0
LINE
8
BLACK
6
CONTINUOUS
10
0.210384
20
1.29724
11
0.246309
21
1.29724
0
LINE
8
BLACK
6
CONTINUOUS
10
0.246309
20
1.29724
11
0.249981
21
1.29651
0
LINE
8
BLACK
6
CONTINUOUS
10
0.021635
20
1.32456
11
0.0247483
21
1.32248
0
LINE
8
BLACK
6
CONTINUOUS
10
0.0247483
20
1.32248
11
0.0268286
21
1.31937
0
LINE
8
BLACK
6
CONTINUOUS
10
0.0268286
20
1.31937
11
0.0275591
21
1.3157
0
LINE
8
BLACK
6
CONTINUOUS
10
0.0275591
20
1.3157
11
0.0275591
21
1.29651
0
LINE
8
BLACK
6
CONTINUOUS
10
0.0275591
20
1.29651
11
0.0268286
21
1.29283
0
LINE
8
BLACK
6
CONTINUOUS
10
0.0268286
20
1.29283
11
0.0247483
21
1.28972
0
LINE
8
BLACK
6
CONTINUOUS
10
0.0247483
20
1.28972
11
0.021635
21
1.28764
0
LINE
8
BLACK
6
CONTINUOUS
10
0.021635
20
1.28764
11
0.0179626
21
1.28691
0
LINE
8
BLACK
6
CONTINUOUS
10
0.0179626
20
1.28691
11
-0.0179626
21
1.28691
0
LINE
8
BLACK
6
CONTINUOUS
10
-0.0179626
20
1.28691
11
-0.021635
21
1.28764
0
LINE
8
BLACK
6
CONTINUOUS
10
-0.021635
20
1.28764
11
-0.0247483
21
1.28972
0
LINE
8
BLACK
6
CONTINUOUS
10
-0.0247483
20
1.28972
11
-0.0268286
21
1.29283
0
LINE
8
BLACK
6
CONTINUOUS
10
-0.0268286
20
1.29283
11
-0.0275591
21
1.29651
0
LINE
8
BLACK
6
CONTINUOUS
10
-0.0275591
20
1.29651
11
-0.0275591
21
1.3157
0
LINE
8
BLACK
6
CONTINUOUS
10
-0.0275591
20
1.3157
11
-0.0268286
21
1.31937
0
LINE
8
BLACK
6
CONTINUOUS
10
-0.0268286
20
1.31937
11
-0.0247483
21
1.32248
0
LINE
8
BLACK
6
CONTINUOUS
10
-0.0247483
20
1.32248
11
-0.021635
21
1.32456
0
LINE
8
BLACK
6
CONTINUOUS
10
-0.021635
20
1.32456
11
-0.0179626
21
1.3253
0
LINE
8
BLACK
6
CONTINUOUS
10
-0.0179626
20
1.3253
11
0.0179626
21
1.3253
0
LINE
8
BLACK
6
CONTINUOUS
10
0.0179626
20
1.3253
11
0.021635
21
1.32456
0
LINE
8
BLACK
6
CONTINUOUS
10
0.483281
20
1.28755
11
0.457691
21
1.28755
0
LINE
8
BLACK
6
CONTINUOUS
10
0.457691
20
1.28755
11
0.457691
21
1.33558
0
LINE
8
BLACK
6
CONTINUOUS
10
0.457691
20
1.33558
11
0.483281
21
1.33558
0
LINE
8
BLACK
6
CONTINUOUS
10
0.483281
20
1.33558
11
0.483281
21
1.28755
0
LINE
8
BLACK
6
CONTINUOUS
10
0.520683
20
1.28755
11
0.495092
21
1.28755
0
LINE
8
BLACK
6
CONTINUOUS
10
0.495092
20
1.28755
11
0.495092
21
1.33558
0
LINE
8
BLACK
6
CONTINUOUS
10
0.495092
20
1.33558
11
0.520683
21
1.33558
0
LINE
8
BLACK
6
CONTINUOUS
10
0.520683
20
1.33558
11
0.520683
21
1.28755
0
LINE
8
BLACK
6
CONTINUOUS
10
0.44588
20
1.28755
11
0.420289
21
1.28755
0
LINE
8
BLACK
6
CONTINUOUS
10
0.420289
20
1.28755
11
0.420289
21
1.33558
0
LINE
8
BLACK
6
CONTINUOUS
10
0.420289
20
1.33558
11
0.44588
21
1.33558
0
LINE
8
BLACK
6
CONTINUOUS
10
0.44588
20
1.33558
11
0.44588
21
1.28755
0
LINE
8
BLACK
6
CONTINUOUS
10
0.249981
20
1.37033
11
0.253095
21
1.36825
0
LINE
8
BLACK
6
CONTINUOUS
10
0.253095
20
1.36825
11
0.255175
21
1.36514
0
LINE
8
BLACK
6
CONTINUOUS
10
0.255175
20
1.36514
11
0.255906
21
1.36147
0
LINE
8
BLACK
6
CONTINUOUS
10
0.255906
20
1.36147
11
0.255906
21
1.34227
0
LINE
8
BLACK
6
CONTINUOUS
10
0.255906
20
1.34227
11
0.255175
21
1.3386
0
LINE
8
BLACK
6
CONTINUOUS
10
0.255175
20
1.3386
11
0.253095
21
1.33549
0
LINE
8
BLACK
6
CONTINUOUS
10
0.253095
20
1.33549
11
0.249981
21
1.33341
0
LINE
8
BLACK
6
CONTINUOUS
10
0.249981
20
1.33341
11
0.246309
21
1.33268
0
LINE
8
BLACK
6
CONTINUOUS
10
0.246309
20
1.33268
11
0.210384
21
1.33268
0
LINE
8
BLACK
6
CONTINUOUS
10
0.210384
20
1.33268
11
0.206711
21
1.33341
0
LINE
8
BLACK
6
CONTINUOUS
10
0.206711
20
1.33341
11
0.203598
21
1.33549
0
LINE
8
BLACK
6
CONTINUOUS
10
0.203598
20
1.33549
11
0.201518
21
1.3386
0
LINE
8
BLACK
6
CONTINUOUS
10
0.201518
20
1.3386
11
0.200787
21
1.34227
0
LINE
8
BLACK
6
CONTINUOUS
10
0.200787
20
1.34227
11
0.200787
21
1.36147
0
LINE
8
BLACK
6
CONTINUOUS
10
0.200787
20
1.36147
11
0.201518
21
1.36514
0
LINE
8
BLACK
6
CONTINUOUS
10
0.201518
20
1.36514
11
0.203598
21
1.36825
0
LINE
8
BLACK
6
CONTINUOUS
10
0.203598
20
1.36825
11
0.206711
21
1.37033
0
LINE
8
BLACK
6
CONTINUOUS
10
0.206711
20
1.37033
11
0.210384
21
1.37106
0
LINE
8
BLACK
6
CONTINUOUS
10
0.210384
20
1.37106
11
0.246309
21
1.37106
0
LINE
8
BLACK
6
CONTINUOUS
10
0.246309
20
1.37106
11
0.249981
21
1.37033
0
LINE
8
BLACK
6
CONTINUOUS
10
0.116123
20
1.38854
11
0.119236
21
1.38646
0
LINE
8
BLACK
6
CONTINUOUS
10
0.119236
20
1.38646
11
0.121317
21
1.38335
0
LINE
8
BLACK
6
CONTINUOUS
10
0.121317
20
1.38335
11
0.122047
21
1.37968
0
LINE
8
BLACK
6
CONTINUOUS
10
0.122047
20
1.37968
11
0.122047
21
1.36048
0
LINE
8
BLACK
6
CONTINUOUS
10
0.122047
20
1.36048
11
0.121317
21
1.35681
0
LINE
8
BLACK
6
CONTINUOUS
10
0.121317
20
1.35681
11
0.119236
21
1.3537
0
LINE
8
BLACK
6
CONTINUOUS
10
0.119236
20
1.3537
11
0.116123
21
1.35162
0
LINE
8
BLACK
6
CONTINUOUS
10
0.116123
20
1.35162
11
0.112451
21
1.35089
0
LINE
8
BLACK
6
CONTINUOUS
10
0.112451
20
1.35089
11
0.0765256
21
1.35089
0
LINE
8
BLACK
6
CONTINUOUS
10
0.0765256
20
1.35089
11
0.0728532
21
1.35162
0
LINE
8
BLACK
6
CONTINUOUS
10
0.0728532
20
1.35162
11
0.0697399
21
1.3537
0
LINE
8
BLACK
6
CONTINUOUS
10
0.0697399
20
1.3537
11
0.0676596
21
1.35681
0
LINE
8
BLACK
6
CONTINUOUS
10
0.0676596
20
1.35681
11
0.0669291
21
1.36048
0
LINE
8
BLACK
6
CONTINUOUS
10
0.0669291
20
1.36048
11
0.0669291
21
1.37968
0
LINE
8
BLACK
6
CONTINUOUS
10
0.0669291
20
1.37968
11
0.0676596
21
1.38335
0
LINE
8
BLACK
6
CONTINUOUS
10
0.0676596
20
1.38335
11
0.0697399
21
1.38646
0
LINE
8
BLACK
6
CONTINUOUS
10
0.0697399
20
1.38646
11
0.0728532
21
1.38854
0
LINE
8
BLACK
6
CONTINUOUS
10
0.0728532
20
1.38854
11
0.0765256
21
1.38927
0
LINE
8
BLACK
6
CONTINUOUS
10
0.0765256
20
1.38927
11
0.112451
21
1.38927
0
LINE
8
BLACK
6
CONTINUOUS
10
0.112451
20
1.38927
11
0.116123
21
1.38854
0
LINE
8
BLACK
6
CONTINUOUS
10
0.021635
20
1.391
11
0.0247483
21
1.38892
0
LINE
8
BLACK
6
CONTINUOUS
10
0.0247483
20
1.38892
11
0.0268286
21
1.38581
0
LINE
8
BLACK
6
CONTINUOUS
10
0.0268286
20
1.38581
11
0.0275591
21
1.38214
0
LINE
8
BLACK
6
CONTINUOUS
10
0.0275591
20
1.38214
11
0.0275591
21
1.36294
0
LINE
8
BLACK
6
CONTINUOUS
10
0.0275591
20
1.36294
11
0.0268286
21
1.35927
0
LINE
8
BLACK
6
CONTINUOUS
10
0.0268286
20
1.35927
11
0.0247483
21
1.35616
0
LINE
8
BLACK
6
CONTINUOUS
10
0.0247483
20
1.35616
11
0.021635
21
1.35408
0
LINE
8
BLACK
6
CONTINUOUS
10
0.021635
20
1.35408
11
0.0179626
21
1.35335
0
LINE
8
BLACK
6
CONTINUOUS
10
0.0179626
20
1.35335
11
-0.0179626
21
1.35335
0
LINE
8
BLACK
6
CONTINUOUS
10
-0.0179626
20
1.35335
11
-0.021635
21
1.35408
0
LINE
8
BLACK
6
CONTINUOUS
10
-0.021635
20
1.35408
11
-0.0247483
21
1.35616
0
LINE
8
BLACK
6
CONTINUOUS
10
-0.0247483
20
1.35616
11
-0.0268286
21
1.35927
0
LINE
8
BLACK
6
CONTINUOUS
10
-0.0268286
20
1.35927
11
-0.0275591
21
1.36294
0
LINE
8
BLACK
6
CONTINUOUS
10
-0.0275591
20
1.36294
11
-0.0275591
21
1.38214
0
LINE
8
BLACK
6
CONTINUOUS
10
-0.0275591
20
1.38214
11
-0.0268286
21
1.38581
0
LINE
8
BLACK
6
CONTINUOUS
10
-0.0268286
20
1.38581
11
-0.0247483
21
1.38892
0
LINE
8
BLACK
6
CONTINUOUS
10
-0.0247483
20
1.38892
11
-0.021635
21
1.391
0
LINE
8
BLACK
6
CONTINUOUS
10
-0.021635
20
1.391
11
-0.0179626
21
1.39173
0
LINE
8
BLACK
6
CONTINUOUS
10
-0.0179626
20
1.39173
11
0.0179626
21
1.39173
0
LINE
8
BLACK
6
CONTINUOUS
10
0.0179626
20
1.39173
11
0.021635
21
1.391
0
LINE
8
BLACK
6
CONTINUOUS
10
1.27247
20
1.41854
11
1.27566
21
1.41641
0
LINE
8
BLACK
6
CONTINUOUS
10
1.27566
20
1.41641
11
1.27779
21
1.41322
0
LINE
8
BLACK
6
CONTINUOUS
10
1.27779
20
1.41322
11
1.27854
21
1.40945
0
LINE
8
BLACK
6
CONTINUOUS
10
1.27854
20
1.40945
11
1.27854
21
1.38976
0
LINE
8
BLACK
6
CONTINUOUS
10
1.27854
20
1.38976
11
1.27779
21
1.386
0
LINE
8
BLACK
6
CONTINUOUS
10
1.27779
20
1.386
11
1.27566
21
1.3828
0
LINE
8
BLACK
6
CONTINUOUS
10
1.27566
20
1.3828
11
1.27247
21
1.38067
0
LINE
8
BLACK
6
CONTINUOUS
10
1.27247
20
1.38067
11
1.2687
21
1.37992
0
LINE
8
BLACK
6
CONTINUOUS
10
1.2687
20
1.37992
11
1.2313
21
1.37992
0
LINE
8
BLACK
6
CONTINUOUS
10
1.2313
20
1.37992
11
1.22753
21
1.38067
0
LINE
8
BLACK
6
CONTINUOUS
10
1.22753
20
1.38067
11
1.22434
21
1.3828
0
LINE
8
BLACK
6
CONTINUOUS
10
1.22434
20
1.3828
11
1.22221
21
1.386
0
LINE
8
BLACK
6
CONTINUOUS
10
1.22221
20
1.386
11
1.22146
21
1.38976
0
LINE
8
BLACK
6
CONTINUOUS
10
1.22146
20
1.38976
11
1.22146
21
1.40945
0
LINE
8
BLACK
6
CONTINUOUS
10
1.22146
20
1.40945
11
1.22221
21
1.41322
0
LINE
8
BLACK
6
CONTINUOUS
10
1.22221
20
1.41322
11
1.22434
21
1.41641
0
LINE
8
BLACK
6
CONTINUOUS
10
1.22434
20
1.41641
11
1.22753
21
1.41854
0
LINE
8
BLACK
6
CONTINUOUS
10
1.22753
20
1.41854
11
1.2313
21
1.41929
0
LINE
8
BLACK
6
CONTINUOUS
10
1.2313
20
1.41929
11
1.2687
21
1.41929
0
LINE
8
BLACK
6
CONTINUOUS
10
1.2687
20
1.41929
11
1.27247
21
1.41854
0
LINE
8
BLACK
6
CONTINUOUS
10
1.39058
20
1.41854
11
1.39377
21
1.41641
0
LINE
8
BLACK
6
CONTINUOUS
10
1.39377
20
1.41641
11
1.3959
21
1.41322
0
LINE
8
BLACK
6
CONTINUOUS
10
1.3959
20
1.41322
11
1.39665
21
1.40945
0
LINE
8
BLACK
6
CONTINUOUS
10
1.39665
20
1.40945
11
1.39665
21
1.38976
0
LINE
8
BLACK
6
CONTINUOUS
10
1.39665
20
1.38976
11
1.3959
21
1.386
0
LINE
8
BLACK
6
CONTINUOUS
10
1.3959
20
1.386
11
1.39377
21
1.3828
0
LINE
8
BLACK
6
CONTINUOUS
10
1.39377
20
1.3828
11
1.39058
21
1.38067
0
LINE
8
BLACK
6
CONTINUOUS
10
1.39058
20
1.38067
11
1.38681
21
1.37992
0
LINE
8
BLACK
6
CONTINUOUS
10
1.38681
20
1.37992
11
1.34941
21
1.37992
0
LINE
8
BLACK
6
CONTINUOUS
10
1.34941
20
1.37992
11
1.34564
21
1.38067
0
LINE
8
BLACK
6
CONTINUOUS
10
1.34564
20
1.38067
11
1.34245
21
1.3828
0
LINE
8
BLACK
6
CONTINUOUS
10
1.34245
20
1.3828
11
1.34032
21
1.386
0
LINE
8
BLACK
6
CONTINUOUS
10
1.34032
20
1.386
11
1.33957
21
1.38976
0
LINE
8
BLACK
6
CONTINUOUS
10
1.33957
20
1.38976
11
1.33957
21
1.40945
0
LINE
8
BLACK
6
CONTINUOUS
10
1.33957
20
1.40945
11
1.34032
21
1.41322
0
LINE
8
BLACK
6
CONTINUOUS
10
1.34032
20
1.41322
11
1.34245
21
1.41641
0
LINE
8
BLACK
6
CONTINUOUS
10
1.34245
20
1.41641
11
1.34564
21
1.41854
0
LINE
8
BLACK
6
CONTINUOUS
10
1.34564
20
1.41854
11
1.34941
21
1.41929
0
LINE
8
BLACK
6
CONTINUOUS
10
1.34941
20
1.41929
11
1.38681
21
1.41929
0
LINE
8
BLACK
6
CONTINUOUS
10
1.38681
20
1.41929
11
1.39058
21
1.41854
0
LINE
8
BLACK
6
CONTINUOUS
10
0.520683
20
1.39069
11
0.495092
21
1.39069
0
LINE
8
BLACK
6
CONTINUOUS
10
0.495092
20
1.39069
11
0.495092
21
1.43873
0
LINE
8
BLACK
6
CONTINUOUS
10
0.495092
20
1.43873
11
0.520683
21
1.43873
0
LINE
8
BLACK
6
CONTINUOUS
10
0.520683
20
1.43873
11
0.520683
21
1.39069
0
LINE
8
BLACK
6
CONTINUOUS
10
0.483281
20
1.39069
11
0.457691
21
1.39069
0
LINE
8
BLACK
6
CONTINUOUS
10
0.457691
20
1.39069
11
0.457691
21
1.43873
0
LINE
8
BLACK
6
CONTINUOUS
10
0.457691
20
1.43873
11
0.483281
21
1.43873
0
LINE
8
BLACK
6
CONTINUOUS
10
0.483281
20
1.43873
11
0.483281
21
1.39069
0
LINE
8
BLACK
6
CONTINUOUS
10
0.44588
20
1.39069
11
0.420289
21
1.39069
0
LINE
8
BLACK
6
CONTINUOUS
10
0.420289
20
1.39069
11
0.420289
21
1.43873
0
LINE
8
BLACK
6
CONTINUOUS
10
0.420289
20
1.43873
11
0.44588
21
1.43873
0
LINE
8
BLACK
6
CONTINUOUS
10
0.44588
20
1.43873
11
0.44588
21
1.39069
0
LINE
8
BLACK
6
CONTINUOUS
10
0.249981
20
1.4289
11
0.253095
21
1.42682
0
LINE
8
BLACK
6
CONTINUOUS
10
0.253095
20
1.42682
11
0.255175
21
1.4237
0
LINE
8
BLACK
6
CONTINUOUS
10
0.255175
20
1.4237
11
0.255906
21
1.42003
0
LINE
8
BLACK
6
CONTINUOUS
10
0.255906
20
1.42003
11
0.255906
21
1.40084
0
LINE
8
BLACK
6
CONTINUOUS
10
0.255906
20
1.40084
11
0.255175
21
1.39716
0
LINE
8
BLACK
6
CONTINUOUS
10
0.255175
20
1.39716
11
0.253095
21
1.39405
0
LINE
8
BLACK
6
CONTINUOUS
10
0.253095
20
1.39405
11
0.249981
21
1.39197
0
LINE
8
BLACK
6
CONTINUOUS
10
0.249981
20
1.39197
11
0.246309
21
1.39124
0
LINE
8
BLACK
6
CONTINUOUS
10
0.246309
20
1.39124
11
0.210384
21
1.39124
0
LINE
8
BLACK
6
CONTINUOUS
10
0.210384
20
1.39124
11
0.206711
21
1.39197
0
LINE
8
BLACK
6
CONTINUOUS
10
0.206711
20
1.39197
11
0.203598
21
1.39405
0
LINE
8
BLACK
6
CONTINUOUS
10
0.203598
20
1.39405
11
0.201518
21
1.39716
0
LINE
8
BLACK
6
CONTINUOUS
10
0.201518
20
1.39716
11
0.200787
21
1.40084
0
LINE
8
BLACK
6
CONTINUOUS
10
0.200787
20
1.40084
11
0.200787
21
1.42003
0
LINE
8
BLACK
6
CONTINUOUS
10
0.200787
20
1.42003
11
0.201518
21
1.4237
0
LINE
8
BLACK
6
CONTINUOUS
10
0.201518
20
1.4237
11
0.203598
21
1.42682
0
LINE
8
BLACK
6
CONTINUOUS
10
0.203598
20
1.42682
11
0.206711
21
1.4289
0
LINE
8
BLACK
6
CONTINUOUS
10
0.206711
20
1.4289
11
0.210384
21
1.42963
0
LINE
8
BLACK
6
CONTINUOUS
10
0.210384
20
1.42963
11
0.246309
21
1.42963
0
LINE
8
BLACK
6
CONTINUOUS
10
0.246309
20
1.42963
11
0.249981
21
1.4289
0
LINE
8
BLACK
6
CONTINUOUS
10
0.116123
20
1.46236
11
0.119236
21
1.46028
0
LINE
8
BLACK
6
CONTINUOUS
10
0.119236
20
1.46028
11
0.121317
21
1.45717
0
LINE
8
BLACK
6
CONTINUOUS
10
0.121317
20
1.45717
11
0.122047
21
1.45349
0
LINE
8
BLACK
6
CONTINUOUS
10
0.122047
20
1.45349
11
0.122047
21
1.4343
0
LINE
8
BLACK
6
CONTINUOUS
10
0.122047
20
1.4343
11
0.121317
21
1.43063
0
LINE
8
BLACK
6
CONTINUOUS
10
0.121317
20
1.43063
11
0.119236
21
1.42752
0
LINE
8
BLACK
6
CONTINUOUS
10
0.119236
20
1.42752
11
0.116123
21
1.42544
0
LINE
8
BLACK
6
CONTINUOUS
10
0.116123
20
1.42544
11
0.112451
21
1.4247
0
LINE
8
BLACK
6
CONTINUOUS
10
0.112451
20
1.4247
11
0.0765256
21
1.4247
0
LINE
8
BLACK
6
CONTINUOUS
10
0.0765256
20
1.4247
11
0.0728532
21
1.42544
0
LINE
8
BLACK
6
CONTINUOUS
10
0.0728532
20
1.42544
11
0.0697399
21
1.42752
0
LINE
8
BLACK
6
CONTINUOUS
10
0.0697399
20
1.42752
11
0.0676596
21
1.43063
0
LINE
8
BLACK
6
CONTINUOUS
10
0.0676596
20
1.43063
11
0.0669291
21
1.4343
0
LINE
8
BLACK
6
CONTINUOUS
10
0.0669291
20
1.4343
11
0.0669291
21
1.45349
0
LINE
8
BLACK
6
CONTINUOUS
10
0.0669291
20
1.45349
11
0.0676596
21
1.45717
0
LINE
8
BLACK
6
CONTINUOUS
10
0.0676596
20
1.45717
11
0.0697399
21
1.46028
0
LINE
8
BLACK
6
CONTINUOUS
10
0.0697399
20
1.46028
11
0.0728532
21
1.46236
0
LINE
8
BLACK
6
CONTINUOUS
10
0.0728532
20
1.46236
11
0.0765256
21
1.46309
0
LINE
8
BLACK
6
CONTINUOUS
10
0.0765256
20
1.46309
11
0.112451
21
1.46309
0
LINE
8
BLACK
6
CONTINUOUS
10
0.112451
20
1.46309
11
0.116123
21
1.46236
0
LINE
8
BLACK
6
CONTINUOUS
10
0.021635
20
1.46482
11
0.0247483
21
1.46274
0
LINE
8
BLACK
6
CONTINUOUS
10
0.0247483
20
1.46274
11
0.0268286
21
1.45963
0
LINE
8
BLACK
6
CONTINUOUS
10
0.0268286
20
1.45963
11
0.0275591
21
1.45595
0
LINE
8
BLACK
6
CONTINUOUS
10
0.0275591
20
1.45595
11
0.0275591
21
1.43676
0
LINE
8
BLACK
6
CONTINUOUS
10
0.0275591
20
1.43676
11
0.0268286
21
1.43309
0
LINE
8
BLACK
6
CONTINUOUS
10
0.0268286
20
1.43309
11
0.0247483
21
1.42998
0
LINE
8
BLACK
6
CONTINUOUS
10
0.0247483
20
1.42998
11
0.021635
21
1.4279
0
LINE
8
BLACK
6
CONTINUOUS
10
0.021635
20
1.4279
11
0.0179626
21
1.42717
0
LINE
8
BLACK
6
CONTINUOUS
10
0.0179626
20
1.42717
11
-0.0179626
21
1.42717
0
LINE
8
BLACK
6
CONTINUOUS
10
-0.0179626
20
1.42717
11
-0.021635
21
1.4279
0
LINE
8
BLACK
6
CONTINUOUS
10
-0.021635
20
1.4279
11
-0.0247483
21
1.42998
0
LINE
8
BLACK
6
CONTINUOUS
10
-0.0247483
20
1.42998
11
-0.0268286
21
1.43309
0
LINE
8
BLACK
6
CONTINUOUS
10
-0.0268286
20
1.43309
11
-0.0275591
21
1.43676
0
LINE
8
BLACK
6
CONTINUOUS
10
-0.0275591
20
1.43676
11
-0.0275591
21
1.45595
0
LINE
8
BLACK
6
CONTINUOUS
10
-0.0275591
20
1.45595
11
-0.0268286
21
1.45963
0
LINE
8
BLACK
6
CONTINUOUS
10
-0.0268286
20
1.45963
11
-0.0247483
21
1.46274
0
LINE
8
BLACK
6
CONTINUOUS
10
-0.0247483
20
1.46274
11
-0.021635
21
1.46482
0
LINE
8
BLACK
6
CONTINUOUS
10
-0.021635
20
1.46482
11
-0.0179626
21
1.46555
0
LINE
8
BLACK
6
CONTINUOUS
10
-0.0179626
20
1.46555
11
0.0179626
21
1.46555
0
LINE
8
BLACK
6
CONTINUOUS
10
0.0179626
20
1.46555
11
0.021635
21
1.46482
0
LINE
8
BLACK
6
CONTINUOUS
10
1.39058
20
1.49335
11
1.39377
21
1.49121
0
LINE
8
BLACK
6
CONTINUOUS
10
1.39377
20
1.49121
11
1.3959
21
1.48802
0
LINE
8
BLACK
6
CONTINUOUS
10
1.3959
20
1.48802
11
1.39665
21
1.48425
0
LINE
8
BLACK
6
CONTINUOUS
10
1.39665
20
1.48425
11
1.39665
21
1.46457
0
LINE
8
BLACK
6
CONTINUOUS
10
1.39665
20
1.46457
11
1.3959
21
1.4608
0
LINE
8
BLACK
6
CONTINUOUS
10
1.3959
20
1.4608
11
1.39377
21
1.45761
0
LINE
8
BLACK
6
CONTINUOUS
10
1.39377
20
1.45761
11
1.39058
21
1.45547
0
LINE
8
BLACK
6
CONTINUOUS
10
1.39058
20
1.45547
11
1.38681
21
1.45472
0
LINE
8
BLACK
6
CONTINUOUS
10
1.38681
20
1.45472
11
1.34941
21
1.45472
0
LINE
8
BLACK
6
CONTINUOUS
10
1.34941
20
1.45472
11
1.34564
21
1.45547
0
LINE
8
BLACK
6
CONTINUOUS
10
1.34564
20
1.45547
11
1.34245
21
1.45761
0
LINE
8
BLACK
6
CONTINUOUS
10
1.34245
20
1.45761
11
1.34032
21
1.4608
0
LINE
8
BLACK
6
CONTINUOUS
10
1.34032
20
1.4608
11
1.33957
21
1.46457
0
LINE
8
BLACK
6
CONTINUOUS
10
1.33957
20
1.46457
11
1.33957
21
1.48425
0
LINE
8
BLACK
6
CONTINUOUS
10
1.33957
20
1.48425
11
1.34032
21
1.48802
0
LINE
8
BLACK
6
CONTINUOUS
10
1.34032
20
1.48802
11
1.34245
21
1.49121
0
LINE
8
BLACK
6
CONTINUOUS
10
1.34245
20
1.49121
11
1.34564
21
1.49335
0
LINE
8
BLACK
6
CONTINUOUS
10
1.34564
20
1.49335
11
1.34941
21
1.49409
0
LINE
8
BLACK
6
CONTINUOUS
10
1.34941
20
1.49409
11
1.38681
21
1.49409
0
LINE
8
BLACK
6
CONTINUOUS
10
1.38681
20
1.49409
11
1.39058
21
1.49335
0
LINE
8
BLACK
6
CONTINUOUS
10
1.27247
20
1.49335
11
1.27566
21
1.49121
0
LINE
8
BLACK
6
CONTINUOUS
10
1.27566
20
1.49121
11
1.27779
21
1.48802
0
LINE
8
BLACK
6
CONTINUOUS
10
1.27779
20
1.48802
11
1.27854
21
1.48425
0
LINE
8
BLACK
6
CONTINUOUS
10
1.27854
20
1.48425
11
1.27854
21
1.46457
0
LINE
8
BLACK
6
CONTINUOUS
10
1.27854
20
1.46457
11
1.27779
21
1.4608
0
LINE
8
BLACK
6
CONTINUOUS
10
1.27779
20
1.4608
11
1.27566
21
1.45761
0
LINE
8
BLACK
6
CONTINUOUS
10
1.27566
20
1.45761
11
1.27247
21
1.45547
0
LINE
8
BLACK
6
CONTINUOUS
10
1.27247
20
1.45547
11
1.2687
21
1.45472
0
LINE
8
BLACK
6
CONTINUOUS
10
1.2687
20
1.45472
11
1.2313
21
1.45472
0
LINE
8
BLACK
6
CONTINUOUS
10
1.2313
20
1.45472
11
1.22753
21
1.45547
0
LINE
8
BLACK
6
CONTINUOUS
10
1.22753
20
1.45547
11
1.22434
21
1.45761
0
LINE
8
BLACK
6
CONTINUOUS
10
1.22434
20
1.45761
11
1.22221
21
1.4608
0
LINE
8
BLACK
6
CONTINUOUS
10
1.22221
20
1.4608
11
1.22146
21
1.46457
0
LINE
8
BLACK
6
CONTINUOUS
10
1.22146
20
1.46457
11
1.22146
21
1.48425
0
LINE
8
BLACK
6
CONTINUOUS
10
1.22146
20
1.48425
11
1.22221
21
1.48802
0
LINE
8
BLACK
6
CONTINUOUS
10
1.22221
20
1.48802
11
1.22434
21
1.49121
0
LINE
8
BLACK
6
CONTINUOUS
10
1.22434
20
1.49121
11
1.22753
21
1.49335
0
LINE
8
BLACK
6
CONTINUOUS
10
1.22753
20
1.49335
11
1.2313
21
1.49409
0
LINE
8
BLACK
6
CONTINUOUS
10
1.2313
20
1.49409
11
1.2687
21
1.49409
0
LINE
8
BLACK
6
CONTINUOUS
10
1.2687
20
1.49409
11
1.27247
21
1.49335
0
LINE
8
BLACK
6
CONTINUOUS
10
0.249981
20
1.50271
11
0.253095
21
1.50063
0
LINE
8
BLACK
6
CONTINUOUS
10
0.253095
20
1.50063
11
0.255175
21
1.49752
0
LINE
8
BLACK
6
CONTINUOUS
10
0.255175
20
1.49752
11
0.255906
21
1.49385
0
LINE
8
BLACK
6
CONTINUOUS
10
0.255906
20
1.49385
11
0.255906
21
1.47466
0
LINE
8
BLACK
6
CONTINUOUS
10
0.255906
20
1.47466
11
0.255175
21
1.47098
0
LINE
8
BLACK
6
CONTINUOUS
10
0.255175
20
1.47098
11
0.253095
21
1.46787
0
LINE
8
BLACK
6
CONTINUOUS
10
0.253095
20
1.46787
11
0.249981
21
1.46579
0
LINE
8
BLACK
6
CONTINUOUS
10
0.249981
20
1.46579
11
0.246309
21
1.46506
0
LINE
8
BLACK
6
CONTINUOUS
10
0.246309
20
1.46506
11
0.210384
21
1.46506
0
LINE
8
BLACK
6
CONTINUOUS
10
0.210384
20
1.46506
11
0.206711
21
1.46579
0
LINE
8
BLACK
6
CONTINUOUS
10
0.206711
20
1.46579
11
0.203598
21
1.46787
0
LINE
8
BLACK
6
CONTINUOUS
10
0.203598
20
1.46787
11
0.201518
21
1.47098
0
LINE
8
BLACK
6
CONTINUOUS
10
0.201518
20
1.47098
11
0.200787
21
1.47466
0
LINE
8
BLACK
6
CONTINUOUS
10
0.200787
20
1.47466
11
0.200787
21
1.49385
0
LINE
8
BLACK
6
CONTINUOUS
10
0.200787
20
1.49385
11
0.201518
21
1.49752
0
LINE
8
BLACK
6
CONTINUOUS
10
0.201518
20
1.49752
11
0.203598
21
1.50063
0
LINE
8
BLACK
6
CONTINUOUS
10
0.203598
20
1.50063
11
0.206711
21
1.50271
0
LINE
8
BLACK
6
CONTINUOUS
10
0.206711
20
1.50271
11
0.210384
21
1.50344
0
LINE
8
BLACK
6
CONTINUOUS
10
0.210384
20
1.50344
11
0.246309
21
1.50344
0
LINE
8
BLACK
6
CONTINUOUS
10
0.246309
20
1.50344
11
0.249981
21
1.50271
0
LINE
8
BLACK
6
CONTINUOUS
10
1.2621
20
1.58912
11
1.26402
21
1.58784
0
LINE
8
BLACK
6
CONTINUOUS
10
1.26402
20
1.58784
11
1.2653
21
1.58592
0
LINE
8
BLACK
6
CONTINUOUS
10
1.2653
20
1.58592
11
1.26575
21
1.58366
0
LINE
8
BLACK
6
CONTINUOUS
10
1.26575
20
1.58366
11
1.26575
21
1.54331
0
LINE
8
BLACK
6
CONTINUOUS
10
1.26575
20
1.54331
11
1.2653
21
1.54105
0
LINE
8
BLACK
6
CONTINUOUS
10
1.2653
20
1.54105
11
1.26402
21
1.53913
0
LINE
8
BLACK
6
CONTINUOUS
10
1.26402
20
1.53913
11
1.2621
21
1.53785
0
LINE
8
BLACK
6
CONTINUOUS
10
1.2621
20
1.53785
11
1.25984
21
1.5374
0
LINE
8
BLACK
6
CONTINUOUS
10
1.25984
20
1.5374
11
1.24803
21
1.5374
0
LINE
8
BLACK
6
CONTINUOUS
10
1.24803
20
1.5374
11
1.24577
21
1.53785
0
LINE
8
BLACK
6
CONTINUOUS
10
1.24577
20
1.53785
11
1.24386
21
1.53913
0
LINE
8
BLACK
6
CONTINUOUS
10
1.24386
20
1.53913
11
1.24258
21
1.54105
0
LINE
8
BLACK
6
CONTINUOUS
10
1.24258
20
1.54105
11
1.24213
21
1.54331
0
LINE
8
BLACK
6
CONTINUOUS
10
1.24213
20
1.54331
11
1.24213
21
1.58366
0
LINE
8
BLACK
6
CONTINUOUS
10
1.24213
20
1.58366
11
1.24258
21
1.58592
0
LINE
8
BLACK
6
CONTINUOUS
10
1.24258
20
1.58592
11
1.24386
21
1.58784
0
LINE
8
BLACK
6
CONTINUOUS
10
1.24386
20
1.58784
11
1.24577
21
1.58912
0
LINE
8
BLACK
6
CONTINUOUS
10
1.24577
20
1.58912
11
1.24803
21
1.58957
0
LINE
8
BLACK
6
CONTINUOUS
10
1.24803
20
1.58957
11
1.25984
21
1.58957
0
LINE
8
BLACK
6
CONTINUOUS
10
1.25984
20
1.58957
11
1.2621
21
1.58912
0
LINE
8
BLACK
6
CONTINUOUS
10
1.1873
20
1.58912
11
1.18922
21
1.58784
0
LINE
8
BLACK
6
CONTINUOUS
10
1.18922
20
1.58784
11
1.1905
21
1.58592
0
LINE
8
BLACK
6
CONTINUOUS
10
1.1905
20
1.58592
11
1.19094
21
1.58366
0
LINE
8
BLACK
6
CONTINUOUS
10
1.19094
20
1.58366
11
1.19094
21
1.54331
0
LINE
8
BLACK
6
CONTINUOUS
10
1.19094
20
1.54331
11
1.1905
21
1.54105
0
LINE
8
BLACK
6
CONTINUOUS
10
1.1905
20
1.54105
11
1.18922
21
1.53913
0
LINE
8
BLACK
6
CONTINUOUS
10
1.18922
20
1.53913
11
1.1873
21
1.53785
0
LINE
8
BLACK
6
CONTINUOUS
10
1.1873
20
1.53785
11
1.18504
21
1.5374
0
LINE
8
BLACK
6
CONTINUOUS
10
1.18504
20
1.5374
11
1.17323
21
1.5374
0
LINE
8
BLACK
6
CONTINUOUS
10
1.17323
20
1.5374
11
1.17097
21
1.53785
0
LINE
8
BLACK
6
CONTINUOUS
10
1.17097
20
1.53785
11
1.16905
21
1.53913
0
LINE
8
BLACK
6
CONTINUOUS
10
1.16905
20
1.53913
11
1.16777
21
1.54105
0
LINE
8
BLACK
6
CONTINUOUS
10
1.16777
20
1.54105
11
1.16732
21
1.54331
0
LINE
8
BLACK
6
CONTINUOUS
10
1.16732
20
1.54331
11
1.16732
21
1.58366
0
LINE
8
BLACK
6
CONTINUOUS
10
1.16732
20
1.58366
11
1.16777
21
1.58592
0
LINE
8
BLACK
6
CONTINUOUS
10
1.16777
20
1.58592
11
1.16905
21
1.58784
0
LINE
8
BLACK
6
CONTINUOUS
10
1.16905
20
1.58784
11
1.17097
21
1.58912
0
LINE
8
BLACK
6
CONTINUOUS
10
1.17097
20
1.58912
11
1.17323
21
1.58957
0
LINE
8
BLACK
6
CONTINUOUS
10
1.17323
20
1.58957
11
1.18504
21
1.58957
0
LINE
8
BLACK
6
CONTINUOUS
10
1.18504
20
1.58957
11
1.1873
21
1.58912
0
LINE
8
BLACK
6
CONTINUOUS
10
0.752782
20
1.58586
11
0.755975
21
1.58373
0
LINE
8
BLACK
6
CONTINUOUS
10
0.755975
20
1.58373
11
0.758109
21
1.58054
0
LINE
8
BLACK
6
CONTINUOUS
10
0.758109
20
1.58054
11
0.758858
21
1.57677
0
LINE
8
BLACK
6
CONTINUOUS
10
0.758858
20
1.57677
11
0.758858
21
1.55709
0
LINE
8
BLACK
6
CONTINUOUS
10
0.758858
20
1.55709
11
0.758109
21
1.55332
0
LINE
8
BLACK
6
CONTINUOUS
10
0.758109
20
1.55332
11
0.755975
21
1.55013
0
LINE
8
BLACK
6
CONTINUOUS
10
0.755975
20
1.55013
11
0.752782
21
1.54799
0
LINE
8
BLACK
6
CONTINUOUS
10
0.752782
20
1.54799
11
0.749016
21
1.54724
0
LINE
8
BLACK
6
CONTINUOUS
10
0.749016
20
1.54724
11
0.711614
21
1.54724
0
LINE
8
BLACK
6
CONTINUOUS
10
0.711614
20
1.54724
11
0.707848
21
1.54799
0
LINE
8
BLACK
6
CONTINUOUS
10
0.707848
20
1.54799
11
0.704654
21
1.55013
0
LINE
8
BLACK
6
CONTINUOUS
10
0.704654
20
1.55013
11
0.702521
21
1.55332
0
LINE
8
BLACK
6
CONTINUOUS
10
0.702521
20
1.55332
11
0.701772
21
1.55709
0
LINE
8
BLACK
6
CONTINUOUS
10
0.701772
20
1.55709
11
0.701772
21
1.57677
0
LINE
8
BLACK
6
CONTINUOUS
10
0.701772
20
1.57677
11
0.702521
21
1.58054
0
LINE
8
BLACK
6
CONTINUOUS
10
0.702521
20
1.58054
11
0.704654
21
1.58373
0
LINE
8
BLACK
6
CONTINUOUS
10
0.704654
20
1.58373
11
0.707848
21
1.58586
0
LINE
8
BLACK
6
CONTINUOUS
10
0.707848
20
1.58586
11
0.711614
21
1.58661
0
LINE
8
BLACK
6
CONTINUOUS
10
0.711614
20
1.58661
11
0.749016
21
1.58661
0
LINE
8
BLACK
6
CONTINUOUS
10
0.749016
20
1.58661
11
0.752782
21
1.58586
0
LINE
8
BLACK
6
CONTINUOUS
10
1.05116
20
1.59179
11
1.05428
21
1.58971
0
LINE
8
BLACK
6
CONTINUOUS
10
1.05428
20
1.58971
11
1.05636
21
1.5866
0
LINE
8
BLACK
6
CONTINUOUS
10
1.05636
20
1.5866
11
1.05709
21
1.58292
0
LINE
8
BLACK
6
CONTINUOUS
10
1.05709
20
1.58292
11
1.05709
21
1.56373
0
LINE
8
BLACK
6
CONTINUOUS
10
1.05709
20
1.56373
11
1.05636
21
1.56006
0
LINE
8
BLACK
6
CONTINUOUS
10
1.05636
20
1.56006
11
1.05428
21
1.55694
0
LINE
8
BLACK
6
CONTINUOUS
10
1.05428
20
1.55694
11
1.05116
21
1.55486
0
LINE
8
BLACK
6
CONTINUOUS
10
1.05116
20
1.55486
11
1.04749
21
1.55413
0
LINE
8
BLACK
6
CONTINUOUS
10
1.04749
20
1.55413
11
1.01156
21
1.55413
0
LINE
8
BLACK
6
CONTINUOUS
10
1.01156
20
1.55413
11
1.00789
21
1.55486
0
LINE
8
BLACK
6
CONTINUOUS
10
1.00789
20
1.55486
11
1.00478
21
1.55694
0
LINE
8
BLACK
6
CONTINUOUS
10
1.00478
20
1.55694
11
1.0027
21
1.56006
0
LINE
8
BLACK
6
CONTINUOUS
10
1.0027
20
1.56006
11
1.00197
21
1.56373
0
LINE
8
BLACK
6
CONTINUOUS
10
1.00197
20
1.56373
11
1.00197
21
1.58292
0
LINE
8
BLACK
6
CONTINUOUS
10
1.00197
20
1.58292
11
1.0027
21
1.5866
0
LINE
8
BLACK
6
CONTINUOUS
10
1.0027
20
1.5866
11
1.00478
21
1.58971
0
LINE
8
BLACK
6
CONTINUOUS
10
1.00478
20
1.58971
11
1.00789
21
1.59179
0
LINE
8
BLACK
6
CONTINUOUS
10
1.00789
20
1.59179
11
1.01156
21
1.59252
0
LINE
8
BLACK
6
CONTINUOUS
10
1.01156
20
1.59252
11
1.04749
21
1.59252
0
LINE
8
BLACK
6
CONTINUOUS
10
1.04749
20
1.59252
11
1.05116
21
1.59179
0
LINE
8
BLACK
6
CONTINUOUS
10
0.956984
20
1.58026
11
0.9589
21
1.57898
0
LINE
8
BLACK
6
CONTINUOUS
10
0.9589
20
1.57898
11
0.96018
21
1.57706
0
LINE
8
BLACK
6
CONTINUOUS
10
0.96018
20
1.57706
11
0.96063
21
1.5748
0
LINE
8
BLACK
6
CONTINUOUS
10
0.96063
20
1.5748
11
0.96063
21
1.56299
0
LINE
8
BLACK
6
CONTINUOUS
10
0.96063
20
1.56299
11
0.96018
21
1.56073
0
LINE
8
BLACK
6
CONTINUOUS
10
0.96018
20
1.56073
11
0.9589
21
1.55882
0
LINE
8
BLACK
6
CONTINUOUS
10
0.9589
20
1.55882
11
0.956984
21
1.55754
0
LINE
8
BLACK
6
CONTINUOUS
10
0.956984
20
1.55754
11
0.954724
21
1.55709
0
LINE
8
BLACK
6
CONTINUOUS
10
0.954724
20
1.55709
11
0.91437
21
1.55709
0
LINE
8
BLACK
6
CONTINUOUS
10
0.91437
20
1.55709
11
0.91211
21
1.55754
0
LINE
8
BLACK
6
CONTINUOUS
10
0.91211
20
1.55754
11
0.910194
21
1.55882
0
LINE
8
BLACK
6
CONTINUOUS
10
0.910194
20
1.55882
11
0.908914
21
1.56073
0
LINE
8
BLACK
6
CONTINUOUS
10
0.908914
20
1.56073
11
0.908465
21
1.56299
0
LINE
8
BLACK
6
CONTINUOUS
10
0.908465
20
1.56299
11
0.908465
21
1.5748
0
LINE
8
BLACK
6
CONTINUOUS
10
0.908465
20
1.5748
11
0.908914
21
1.57706
0
LINE
8
BLACK
6
CONTINUOUS
10
0.908914
20
1.57706
11
0.910194
21
1.57898
0
LINE
8
BLACK
6
CONTINUOUS
10
0.910194
20
1.57898
11
0.91211
21
1.58026
0
LINE
8
BLACK
6
CONTINUOUS
10
0.91211
20
1.58026
11
0.91437
21
1.58071
0
LINE
8
BLACK
6
CONTINUOUS
10
0.91437
20
1.58071
11
0.954724
21
1.58071
0
LINE
8
BLACK
6
CONTINUOUS
10
0.954724
20
1.58071
11
0.956984
21
1.58026
0
LINE
8
BLACK
6
CONTINUOUS
10
0.867417
20
1.58026
11
0.869333
21
1.57898
0
LINE
8
BLACK
6
CONTINUOUS
10
0.869333
20
1.57898
11
0.870613
21
1.57706
0
LINE
8
BLACK
6
CONTINUOUS
10
0.870613
20
1.57706
11
0.871063
21
1.5748
0
LINE
8
BLACK
6
CONTINUOUS
10
0.871063
20
1.5748
11
0.871063
21
1.56299
0
LINE
8
BLACK
6
CONTINUOUS
10
0.871063
20
1.56299
11
0.870613
21
1.56073
0
LINE
8
BLACK
6
CONTINUOUS
10
0.870613
20
1.56073
11
0.869333
21
1.55882
0
LINE
8
BLACK
6
CONTINUOUS
10
0.869333
20
1.55882
11
0.867417
21
1.55754
0
LINE
8
BLACK
6
CONTINUOUS
10
0.867417
20
1.55754
11
0.865157
21
1.55709
0
LINE
8
BLACK
6
CONTINUOUS
10
0.865157
20
1.55709
11
0.824803
21
1.55709
0
LINE
8
BLACK
6
CONTINUOUS
10
0.824803
20
1.55709
11
0.822543
21
1.55754
0
LINE
8
BLACK
6
CONTINUOUS
10
0.822543
20
1.55754
11
0.820627
21
1.55882
0
LINE
8
BLACK
6
CONTINUOUS
10
0.820627
20
1.55882
11
0.819347
21
1.56073
0
LINE
8
BLACK
6
CONTINUOUS
10
0.819347
20
1.56073
11
0.818898
21
1.56299
0
LINE
8
BLACK
6
CONTINUOUS
10
0.818898
20
1.56299
11
0.818898
21
1.5748
0
LINE
8
BLACK
6
CONTINUOUS
10
0.818898
20
1.5748
11
0.819347
21
1.57706
0
LINE
8
BLACK
6
CONTINUOUS
10
0.819347
20
1.57706
11
0.820627
21
1.57898
0
LINE
8
BLACK
6
CONTINUOUS
10
0.820627
20
1.57898
11
0.822543
21
1.58026
0
LINE
8
BLACK
6
CONTINUOUS
10
0.822543
20
1.58026
11
0.824803
21
1.58071
0
LINE
8
BLACK
6
CONTINUOUS
10
0.824803
20
1.58071
11
0.865157
21
1.58071
0
LINE
8
BLACK
6
CONTINUOUS
10
0.865157
20
1.58071
11
0.867417
21
1.58026
0
LINE
8
BLACK
6
CONTINUOUS
10
1.52557
20
1.62181
11
1.52869
21
1.61973
0
LINE
8
BLACK
6
CONTINUOUS
10
1.52869
20
1.61973
11
1.53077
21
1.61662
0
LINE
8
BLACK
6
CONTINUOUS
10
1.53077
20
1.61662
11
1.5315
21
1.61294
0
LINE
8
BLACK
6
CONTINUOUS
10
1.5315
20
1.61294
11
1.5315
21
1.59375
0
LINE
8
BLACK
6
CONTINUOUS
10
1.5315
20
1.59375
11
1.53077
21
1.59008
0
LINE
8
BLACK
6
CONTINUOUS
10
1.53077
20
1.59008
11
1.52869
21
1.58696
0
LINE
8
BLACK
6
CONTINUOUS
10
1.52869
20
1.58696
11
1.52557
21
1.58488
0
LINE
8
BLACK
6
CONTINUOUS
10
1.52557
20
1.58488
11
1.5219
21
1.58415
0
LINE
8
BLACK
6
CONTINUOUS
10
1.5219
20
1.58415
11
1.48597
21
1.58415
0
LINE
8
BLACK
6
CONTINUOUS
10
1.48597
20
1.58415
11
1.4823
21
1.58488
0
LINE
8
BLACK
6
CONTINUOUS
10
1.4823
20
1.58488
11
1.47919
21
1.58696
0
LINE
8
BLACK
6
CONTINUOUS
10
1.47919
20
1.58696
11
1.47711
21
1.59008
0
LINE
8
BLACK
6
CONTINUOUS
10
1.47711
20
1.59008
11
1.47638
21
1.59375
0
LINE
8
BLACK
6
CONTINUOUS
10
1.47638
20
1.59375
11
1.47638
21
1.61294
0
LINE
8
BLACK
6
CONTINUOUS
10
1.47638
20
1.61294
11
1.47711
21
1.61662
0
LINE
8
BLACK
6
CONTINUOUS
10
1.47711
20
1.61662
11
1.47919
21
1.61973
0
LINE
8
BLACK
6
CONTINUOUS
10
1.47919
20
1.61973
11
1.4823
21
1.62181
0
LINE
8
BLACK
6
CONTINUOUS
10
1.4823
20
1.62181
11
1.48597
21
1.62254
0
LINE
8
BLACK
6
CONTINUOUS
10
1.48597
20
1.62254
11
1.5219
21
1.62254
0
LINE
8
BLACK
6
CONTINUOUS
10
1.5219
20
1.62254
11
1.52557
21
1.62181
0
LINE
8
BLACK
6
CONTINUOUS
10
1.69486
20
1.62329
11
1.69798
21
1.62121
0
LINE
8
BLACK
6
CONTINUOUS
10
1.69798
20
1.62121
11
1.70006
21
1.61809
0
LINE
8
BLACK
6
CONTINUOUS
10
1.70006
20
1.61809
11
1.70079
21
1.61442
0
LINE
8
BLACK
6
CONTINUOUS
10
1.70079
20
1.61442
11
1.70079
21
1.59523
0
LINE
8
BLACK
6
CONTINUOUS
10
1.70079
20
1.59523
11
1.70006
21
1.59155
0
LINE
8
BLACK
6
CONTINUOUS
10
1.70006
20
1.59155
11
1.69798
21
1.58844
0
LINE
8
BLACK
6
CONTINUOUS
10
1.69798
20
1.58844
11
1.69486
21
1.58636
0
LINE
8
BLACK
6
CONTINUOUS
10
1.69486
20
1.58636
11
1.69119
21
1.58563
0
LINE
8
BLACK
6
CONTINUOUS
10
1.69119
20
1.58563
11
1.65527
21
1.58563
0
LINE
8
BLACK
6
CONTINUOUS
10
1.65527
20
1.58563
11
1.65159
21
1.58636
0
LINE
8
BLACK
6
CONTINUOUS
10
1.65159
20
1.58636
11
1.64848
21
1.58844
0
LINE
8
BLACK
6
CONTINUOUS
10
1.64848
20
1.58844
11
1.6464
21
1.59155
0
LINE
8
BLACK
6
CONTINUOUS
10
1.6464
20
1.59155
11
1.64567
21
1.59523
0
LINE
8
BLACK
6
CONTINUOUS
10
1.64567
20
1.59523
11
1.64567
21
1.61442
0
LINE
8
BLACK
6
CONTINUOUS
10
1.64567
20
1.61442
11
1.6464
21
1.61809
0
LINE
8
BLACK
6
CONTINUOUS
10
1.6464
20
1.61809
11
1.64848
21
1.62121
0
LINE
8
BLACK
6
CONTINUOUS
10
1.64848
20
1.62121
11
1.65159
21
1.62329
0
LINE
8
BLACK
6
CONTINUOUS
10
1.65159
20
1.62329
11
1.65527
21
1.62402
0
LINE
8
BLACK
6
CONTINUOUS
10
1.65527
20
1.62402
11
1.69119
21
1.62402
0
LINE
8
BLACK
6
CONTINUOUS
10
1.69119
20
1.62402
11
1.69486
21
1.62329
0
LINE
8
BLACK
6
CONTINUOUS
10
0.956984
20
1.61766
11
0.9589
21
1.61638
0
LINE
8
BLACK
6
CONTINUOUS
10
0.9589
20
1.61638
11
0.96018
21
1.61446
0
LINE
8
BLACK
6
CONTINUOUS
10
0.96018
20
1.61446
11
0.96063
21
1.6122
0
LINE
8
BLACK
6
CONTINUOUS
10
0.96063
20
1.6122
11
0.96063
21
1.60039
0
LINE
8
BLACK
6
CONTINUOUS
10
0.96063
20
1.60039
11
0.96018
21
1.59813
0
LINE
8
BLACK
6
CONTINUOUS
10
0.96018
20
1.59813
11
0.9589
21
1.59622
0
LINE
8
BLACK
6
CONTINUOUS
10
0.9589
20
1.59622
11
0.956984
21
1.59494
0
LINE
8
BLACK
6
CONTINUOUS
10
0.956984
20
1.59494
11
0.954724
21
1.59449
0
LINE
8
BLACK
6
CONTINUOUS
10
0.954724
20
1.59449
11
0.91437
21
1.59449
0
LINE
8
BLACK
6
CONTINUOUS
10
0.91437
20
1.59449
11
0.91211
21
1.59494
0
LINE
8
BLACK
6
CONTINUOUS
10
0.91211
20
1.59494
11
0.910194
21
1.59622
0
LINE
8
BLACK
6
CONTINUOUS
10
0.910194
20
1.59622
11
0.908914
21
1.59813
0
LINE
8
BLACK
6
CONTINUOUS
10
0.908914
20
1.59813
11
0.908465
21
1.60039
0
LINE
8
BLACK
6
CONTINUOUS
10
0.908465
20
1.60039
11
0.908465
21
1.6122
0
LINE
8
BLACK
6
CONTINUOUS
10
0.908465
20
1.6122
11
0.908914
21
1.61446
0
LINE
8
BLACK
6
CONTINUOUS
10
0.908914
20
1.61446
11
0.910194
21
1.61638
0
LINE
8
BLACK
6
CONTINUOUS
10
0.910194
20
1.61638
11
0.91211
21
1.61766
0
LINE
8
BLACK
6
CONTINUOUS
10
0.91211
20
1.61766
11
0.91437
21
1.61811
0
LINE
8
BLACK
6
CONTINUOUS
10
0.91437
20
1.61811
11
0.954724
21
1.61811
0
LINE
8
BLACK
6
CONTINUOUS
10
0.954724
20
1.61811
11
0.956984
21
1.61766
0
LINE
8
BLACK
6
CONTINUOUS
10
0.752782
20
1.66067
11
0.755975
21
1.65853
0
LINE
8
BLACK
6
CONTINUOUS
10
0.755975
20
1.65853
11
0.758109
21
1.65534
0
LINE
8
BLACK
6
CONTINUOUS
10
0.758109
20
1.65534
11
0.758858
21
1.65157
0
LINE
8
BLACK
6
CONTINUOUS
10
0.758858
20
1.65157
11
0.758858
21
1.63189
0
LINE
8
BLACK
6
CONTINUOUS
10
0.758858
20
1.63189
11
0.758109
21
1.62812
0
LINE
8
BLACK
6
CONTINUOUS
10
0.758109
20
1.62812
11
0.755975
21
1.62493
0
LINE
8
BLACK
6
CONTINUOUS
10
0.755975
20
1.62493
11
0.752782
21
1.6228
0
LINE
8
BLACK
6
CONTINUOUS
10
0.752782
20
1.6228
11
0.749016
21
1.62205
0
LINE
8
BLACK
6
CONTINUOUS
10
0.749016
20
1.62205
11
0.711614
21
1.62205
0
LINE
8
BLACK
6
CONTINUOUS
10
0.711614
20
1.62205
11
0.707848
21
1.6228
0
LINE
8
BLACK
6
CONTINUOUS
10
0.707848
20
1.6228
11
0.704654
21
1.62493
0
LINE
8
BLACK
6
CONTINUOUS
10
0.704654
20
1.62493
11
0.702521
21
1.62812
0
LINE
8
BLACK
6
CONTINUOUS
10
0.702521
20
1.62812
11
0.701772
21
1.63189
0
LINE
8
BLACK
6
CONTINUOUS
10
0.701772
20
1.63189
11
0.701772
21
1.65157
0
LINE
8
BLACK
6
CONTINUOUS
10
0.701772
20
1.65157
11
0.702521
21
1.65534
0
LINE
8
BLACK
6
CONTINUOUS
10
0.702521
20
1.65534
11
0.704654
21
1.65853
0
LINE
8
BLACK
6
CONTINUOUS
10
0.704654
20
1.65853
11
0.707848
21
1.66067
0
LINE
8
BLACK
6
CONTINUOUS
10
0.707848
20
1.66067
11
0.711614
21
1.66142
0
LINE
8
BLACK
6
CONTINUOUS
10
0.711614
20
1.66142
11
0.749016
21
1.66142
0
LINE
8
BLACK
6
CONTINUOUS
10
0.749016
20
1.66142
11
0.752782
21
1.66067
0
LINE
8
BLACK
6
CONTINUOUS
10
1.1873
20
1.67868
11
1.18922
21
1.6774
0
LINE
8
BLACK
6
CONTINUOUS
10
1.18922
20
1.6774
11
1.1905
21
1.67549
0
LINE
8
BLACK
6
CONTINUOUS
10
1.1905
20
1.67549
11
1.19094
21
1.67323
0
LINE
8
BLACK
6
CONTINUOUS
10
1.19094
20
1.67323
11
1.19094
21
1.63287
0
LINE
8
BLACK
6
CONTINUOUS
10
1.19094
20
1.63287
11
1.1905
21
1.63061
0
LINE
8
BLACK
6
CONTINUOUS
10
1.1905
20
1.63061
11
1.18922
21
1.6287
0
LINE
8
BLACK
6
CONTINUOUS
10
1.18922
20
1.6287
11
1.1873
21
1.62742
0
LINE
8
BLACK
6
CONTINUOUS
10
1.1873
20
1.62742
11
1.18504
21
1.62697
0
LINE
8
BLACK
6
CONTINUOUS
10
1.18504
20
1.62697
11
1.17323
21
1.62697
0
LINE
8
BLACK
6
CONTINUOUS
10
1.17323
20
1.62697
11
1.17097
21
1.62742
0
LINE
8
BLACK
6
CONTINUOUS
10
1.17097
20
1.62742
11
1.16905
21
1.6287
0
LINE
8
BLACK
6
CONTINUOUS
10
1.16905
20
1.6287
11
1.16777
21
1.63061
0
LINE
8
BLACK
6
CONTINUOUS
10
1.16777
20
1.63061
11
1.16732
21
1.63287
0
LINE
8
BLACK
6
CONTINUOUS
10
1.16732
20
1.63287
11
1.16732
21
1.67323
0
LINE
8
BLACK
6
CONTINUOUS
10
1.16732
20
1.67323
11
1.16777
21
1.67549
0
LINE
8
BLACK
6
CONTINUOUS
10
1.16777
20
1.67549
11
1.16905
21
1.6774
0
LINE
8
BLACK
6
CONTINUOUS
10
1.16905
20
1.6774
11
1.17097
21
1.67868
0
LINE
8
BLACK
6
CONTINUOUS
10
1.17097
20
1.67868
11
1.17323
21
1.67913
0
LINE
8
BLACK
6
CONTINUOUS
10
1.17323
20
1.67913
11
1.18504
21
1.67913
0
LINE
8
BLACK
6
CONTINUOUS
10
1.18504
20
1.67913
11
1.1873
21
1.67868
0
LINE
8
BLACK
6
CONTINUOUS
10
1.2621
20
1.67868
11
1.26402
21
1.6774
0
LINE
8
BLACK
6
CONTINUOUS
10
1.26402
20
1.6774
11
1.2653
21
1.67549
0
LINE
8
BLACK
6
CONTINUOUS
10
1.2653
20
1.67549
11
1.26575
21
1.67323
0
LINE
8
BLACK
6
CONTINUOUS
10
1.26575
20
1.67323
11
1.26575
21
1.63287
0
LINE
8
BLACK
6
CONTINUOUS
10
1.26575
20
1.63287
11
1.2653
21
1.63061
0
LINE
8
BLACK
6
CONTINUOUS
10
1.2653
20
1.63061
11
1.26402
21
1.6287
0
LINE
8
BLACK
6
CONTINUOUS
10
1.26402
20
1.6287
11
1.2621
21
1.62742
0
LINE
8
BLACK
6
CONTINUOUS
10
1.2621
20
1.62742
11
1.25984
21
1.62697
0
LINE
8
BLACK
6
CONTINUOUS
10
1.25984
20
1.62697
11
1.24803
21
1.62697
0
LINE
8
BLACK
6
CONTINUOUS
10
1.24803
20
1.62697
11
1.24577
21
1.62742
0
LINE
8
BLACK
6
CONTINUOUS
10
1.24577
20
1.62742
11
1.24386
21
1.6287
0
LINE
8
BLACK
6
CONTINUOUS
10
1.24386
20
1.6287
11
1.24258
21
1.63061
0
LINE
8
BLACK
6
CONTINUOUS
10
1.24258
20
1.63061
11
1.24213
21
1.63287
0
LINE
8
BLACK
6
CONTINUOUS
10
1.24213
20
1.63287
11
1.24213
21
1.67323
0
LINE
8
BLACK
6
CONTINUOUS
10
1.24213
20
1.67323
11
1.24258
21
1.67549
0
LINE
8
BLACK
6
CONTINUOUS
10
1.24258
20
1.67549
11
1.24386
21
1.6774
0
LINE
8
BLACK
6
CONTINUOUS
10
1.24386
20
1.6774
11
1.24577
21
1.67868
0
LINE
8
BLACK
6
CONTINUOUS
10
1.24577
20
1.67868
11
1.24803
21
1.67913
0
LINE
8
BLACK
6
CONTINUOUS
10
1.24803
20
1.67913
11
1.25984
21
1.67913
0
LINE
8
BLACK
6
CONTINUOUS
10
1.25984
20
1.67913
11
1.2621
21
1.67868
0
LINE
8
BLACK
6
CONTINUOUS
10
1.2247
20
1.67868
11
1.22662
21
1.6774
0
LINE
8
BLACK
6
CONTINUOUS
10
1.22662
20
1.6774
11
1.2279
21
1.67549
0
LINE
8
BLACK
6
CONTINUOUS
10
1.2279
20
1.67549
11
1.22835
21
1.67323
0
LINE
8
BLACK
6
CONTINUOUS
10
1.22835
20
1.67323
11
1.22835
21
1.63287
0
LINE
8
BLACK
6
CONTINUOUS
10
1.22835
20
1.63287
11
1.2279
21
1.63061
0
LINE
8
BLACK
6
CONTINUOUS
10
1.2279
20
1.63061
11
1.22662
21
1.6287
0
LINE
8
BLACK
6
CONTINUOUS
10
1.22662
20
1.6287
11
1.2247
21
1.62742
0
LINE
8
BLACK
6
CONTINUOUS
10
1.2247
20
1.62742
11
1.22244
21
1.62697
0
LINE
8
BLACK
6
CONTINUOUS
10
1.22244
20
1.62697
11
1.21063
21
1.62697
0
LINE
8
BLACK
6
CONTINUOUS
10
1.21063
20
1.62697
11
1.20837
21
1.62742
0
LINE
8
BLACK
6
CONTINUOUS
10
1.20837
20
1.62742
11
1.20645
21
1.6287
0
LINE
8
BLACK
6
CONTINUOUS
10
1.20645
20
1.6287
11
1.20517
21
1.63061
0
LINE
8
BLACK
6
CONTINUOUS
10
1.20517
20
1.63061
11
1.20472
21
1.63287
0
LINE
8
BLACK
6
CONTINUOUS
10
1.20472
20
1.63287
11
1.20472
21
1.67323
0
LINE
8
BLACK
6
CONTINUOUS
10
1.20472
20
1.67323
11
1.20517
21
1.67549
0
LINE
8
BLACK
6
CONTINUOUS
10
1.20517
20
1.67549
11
1.20645
21
1.6774
0
LINE
8
BLACK
6
CONTINUOUS
10
1.20645
20
1.6774
11
1.20837
21
1.67868
0
LINE
8
BLACK
6
CONTINUOUS
10
1.20837
20
1.67868
11
1.21063
21
1.67913
0
LINE
8
BLACK
6
CONTINUOUS
10
1.21063
20
1.67913
11
1.22244
21
1.67913
0
LINE
8
BLACK
6
CONTINUOUS
10
1.22244
20
1.67913
11
1.2247
21
1.67868
0
LINE
8
BLACK
6
CONTINUOUS
10
1.05116
20
1.66561
11
1.05428
21
1.66353
0
LINE
8
BLACK
6
CONTINUOUS
10
1.05428
20
1.66353
11
1.05636
21
1.66041
0
LINE
8
BLACK
6
CONTINUOUS
10
1.05636
20
1.66041
11
1.05709
21
1.65674
0
LINE
8
BLACK
6
CONTINUOUS
10
1.05709
20
1.65674
11
1.05709
21
1.63755
0
LINE
8
BLACK
6
CONTINUOUS
10
1.05709
20
1.63755
11
1.05636
21
1.63388
0
LINE
8
BLACK
6
CONTINUOUS
10
1.05636
20
1.63388
11
1.05428
21
1.63076
0
LINE
8
BLACK
6
CONTINUOUS
10
1.05428
20
1.63076
11
1.05116
21
1.62868
0
LINE
8
BLACK
6
CONTINUOUS
10
1.05116
20
1.62868
11
1.04749
21
1.62795
0
LINE
8
BLACK
6
CONTINUOUS
10
1.04749
20
1.62795
11
1.01156
21
1.62795
0
LINE
8
BLACK
6
CONTINUOUS
10
1.01156
20
1.62795
11
1.00789
21
1.62868
0
LINE
8
BLACK
6
CONTINUOUS
10
1.00789
20
1.62868
11
1.00478
21
1.63076
0
LINE
8
BLACK
6
CONTINUOUS
10
1.00478
20
1.63076
11
1.0027
21
1.63388
0
LINE
8
BLACK
6
CONTINUOUS
10
1.0027
20
1.63388
11
1.00197
21
1.63755
0
LINE
8
BLACK
6
CONTINUOUS
10
1.00197
20
1.63755
11
1.00197
21
1.65674
0
LINE
8
BLACK
6
CONTINUOUS
10
1.00197
20
1.65674
11
1.0027
21
1.66041
0
LINE
8
BLACK
6
CONTINUOUS
10
1.0027
20
1.66041
11
1.00478
21
1.66353
0
LINE
8
BLACK
6
CONTINUOUS
10
1.00478
20
1.66353
11
1.00789
21
1.66561
0
LINE
8
BLACK
6
CONTINUOUS
10
1.00789
20
1.66561
11
1.01156
21
1.66634
0
LINE
8
BLACK
6
CONTINUOUS
10
1.01156
20
1.66634
11
1.04749
21
1.66634
0
LINE
8
BLACK
6
CONTINUOUS
10
1.04749
20
1.66634
11
1.05116
21
1.66561
0
LINE
8
BLACK
6
CONTINUOUS
10
0.867417
20
1.65506
11
0.869333
21
1.65378
0
LINE
8
BLACK
6
CONTINUOUS
10
0.869333
20
1.65378
11
0.870613
21
1.65187
0
LINE
8
BLACK
6
CONTINUOUS
10
0.870613
20
1.65187
11
0.871063
21
1.64961
0
LINE
8
BLACK
6
CONTINUOUS
10
0.871063
20
1.64961
11
0.871063
21
1.6378
0
LINE
8
BLACK
6
CONTINUOUS
10
0.871063
20
1.6378
11
0.870613
21
1.63554
0
LINE
8
BLACK
6
CONTINUOUS
10
0.870613
20
1.63554
11
0.869333
21
1.63362
0
LINE
8
BLACK
6
CONTINUOUS
10
0.869333
20
1.63362
11
0.867417
21
1.63234
0
LINE
8
BLACK
6
CONTINUOUS
10
0.867417
20
1.63234
11
0.865157
21
1.63189
0
LINE
8
BLACK
6
CONTINUOUS
10
0.865157
20
1.63189
11
0.824803
21
1.63189
0
LINE
8
BLACK
6
CONTINUOUS
10
0.824803
20
1.63189
11
0.822543
21
1.63234
0
LINE
8
BLACK
6
CONTINUOUS
10
0.822543
20
1.63234
11
0.820627
21
1.63362
0
LINE
8
BLACK
6
CONTINUOUS
10
0.820627
20
1.63362
11
0.819347
21
1.63554
0
LINE
8
BLACK
6
CONTINUOUS
10
0.819347
20
1.63554
11
0.818898
21
1.6378
0
LINE
8
BLACK
6
CONTINUOUS
10
0.818898
20
1.6378
11
0.818898
21
1.64961
0
LINE
8
BLACK
6
CONTINUOUS
10
0.818898
20
1.64961
11
0.819347
21
1.65187
0
LINE
8
BLACK
6
CONTINUOUS
10
0.819347
20
1.65187
11
0.820627
21
1.65378
0
LINE
8
BLACK
6
CONTINUOUS
10
0.820627
20
1.65378
11
0.822543
21
1.65506
0
LINE
8
BLACK
6
CONTINUOUS
10
0.822543
20
1.65506
11
0.824803
21
1.65551
0
LINE
8
BLACK
6
CONTINUOUS
10
0.824803
20
1.65551
11
0.865157
21
1.65551
0
LINE
8
BLACK
6
CONTINUOUS
10
0.865157
20
1.65551
11
0.867417
21
1.65506
0
LINE
8
BLACK
6
CONTINUOUS
10
0.956984
20
1.65506
11
0.9589
21
1.65378
0
LINE
8
BLACK
6
CONTINUOUS
10
0.9589
20
1.65378
11
0.96018
21
1.65187
0
LINE
8
BLACK
6
CONTINUOUS
10
0.96018
20
1.65187
11
0.96063
21
1.64961
0
LINE
8
BLACK
6
CONTINUOUS
10
0.96063
20
1.64961
11
0.96063
21
1.6378
0
LINE
8
BLACK
6
CONTINUOUS
10
0.96063
20
1.6378
11
0.96018
21
1.63554
0
LINE
8
BLACK
6
CONTINUOUS
10
0.96018
20
1.63554
11
0.9589
21
1.63362
0
LINE
8
BLACK
6
CONTINUOUS
10
0.9589
20
1.63362
11
0.956984
21
1.63234
0
LINE
8
BLACK
6
CONTINUOUS
10
0.956984
20
1.63234
11
0.954724
21
1.63189
0
LINE
8
BLACK
6
CONTINUOUS
10
0.954724
20
1.63189
11
0.91437
21
1.63189
0
LINE
8
BLACK
6
CONTINUOUS
10
0.91437
20
1.63189
11
0.91211
21
1.63234
0
LINE
8
BLACK
6
CONTINUOUS
10
0.91211
20
1.63234
11
0.910194
21
1.63362
0
LINE
8
BLACK
6
CONTINUOUS
10
0.910194
20
1.63362
11
0.908914
21
1.63554
0
LINE
8
BLACK
6
CONTINUOUS
10
0.908914
20
1.63554
11
0.908465
21
1.6378
0
LINE
8
BLACK
6
CONTINUOUS
10
0.908465
20
1.6378
11
0.908465
21
1.64961
0
LINE
8
BLACK
6
CONTINUOUS
10
0.908465
20
1.64961
11
0.908914
21
1.65187
0
LINE
8
BLACK
6
CONTINUOUS
10
0.908914
20
1.65187
11
0.910194
21
1.65378
0
LINE
8
BLACK
6
CONTINUOUS
10
0.910194
20
1.65378
11
0.91211
21
1.65506
0
LINE
8
BLACK
6
CONTINUOUS
10
0.91211
20
1.65506
11
0.91437
21
1.65551
0
LINE
8
BLACK
6
CONTINUOUS
10
0.91437
20
1.65551
11
0.954724
21
1.65551
0
LINE
8
BLACK
6
CONTINUOUS
10
0.954724
20
1.65551
11
0.956984
21
1.65506
0
LINE
8
BLACK
6
CONTINUOUS
10
1.52557
20
1.69563
11
1.52869
21
1.69355
0
LINE
8
BLACK
6
CONTINUOUS
10
1.52869
20
1.69355
11
1.53077
21
1.69043
0
LINE
8
BLACK
6
CONTINUOUS
10
1.53077
20
1.69043
11
1.5315
21
1.68676
0
LINE
8
BLACK
6
CONTINUOUS
10
1.5315
20
1.68676
11
1.5315
21
1.66757
0
LINE
8
BLACK
6
CONTINUOUS
10
1.5315
20
1.66757
11
1.53077
21
1.6639
0
LINE
8
BLACK
6
CONTINUOUS
10
1.53077
20
1.6639
11
1.52869
21
1.66078
0
LINE
8
BLACK
6
CONTINUOUS
10
1.52869
20
1.66078
11
1.52557
21
1.6587
0
LINE
8
BLACK
6
CONTINUOUS
10
1.52557
20
1.6587
11
1.5219
21
1.65797
0
LINE
8
BLACK
6
CONTINUOUS
10
1.5219
20
1.65797
11
1.48597
21
1.65797
0
LINE
8
BLACK
6
CONTINUOUS
10
1.48597
20
1.65797
11
1.4823
21
1.6587
0
LINE
8
BLACK
6
CONTINUOUS
10
1.4823
20
1.6587
11
1.47919
21
1.66078
0
LINE
8
BLACK
6
CONTINUOUS
10
1.47919
20
1.66078
11
1.47711
21
1.6639
0
LINE
8
BLACK
6
CONTINUOUS
10
1.47711
20
1.6639
11
1.47638
21
1.66757
0
LINE
8
BLACK
6
CONTINUOUS
10
1.47638
20
1.66757
11
1.47638
21
1.68676
0
LINE
8
BLACK
6
CONTINUOUS
10
1.47638
20
1.68676
11
1.47711
21
1.69043
0
LINE
8
BLACK
6
CONTINUOUS
10
1.47711
20
1.69043
11
1.47919
21
1.69355
0
LINE
8
BLACK
6
CONTINUOUS
10
1.47919
20
1.69355
11
1.4823
21
1.69563
0
LINE
8
BLACK
6
CONTINUOUS
10
1.4823
20
1.69563
11
1.48597
21
1.69636
0
LINE
8
BLACK
6
CONTINUOUS
10
1.48597
20
1.69636
11
1.5219
21
1.69636
0
LINE
8
BLACK
6
CONTINUOUS
10
1.5219
20
1.69636
11
1.52557
21
1.69563
0
LINE
8
BLACK
6
CONTINUOUS
10
1.69486
20
1.6971
11
1.69798
21
1.69502
0
LINE
8
BLACK
6
CONTINUOUS
10
1.69798
20
1.69502
11
1.70006
21
1.69191
0
LINE
8
BLACK
6
CONTINUOUS
10
1.70006
20
1.69191
11
1.70079
21
1.68824
0
LINE
8
BLACK
6
CONTINUOUS
10
1.70079
20
1.68824
11
1.70079
21
1.66905
0
LINE
8
BLACK
6
CONTINUOUS
10
1.70079
20
1.66905
11
1.70006
21
1.66537
0
LINE
8
BLACK
6
CONTINUOUS
10
1.70006
20
1.66537
11
1.69798
21
1.66226
0
LINE
8
BLACK
6
CONTINUOUS
10
1.69798
20
1.66226
11
1.69486
21
1.66018
0
LINE
8
BLACK
6
CONTINUOUS
10
1.69486
20
1.66018
11
1.69119
21
1.65945
0
LINE
8
BLACK
6
CONTINUOUS
10
1.69119
20
1.65945
11
1.65527
21
1.65945
0
LINE
8
BLACK
6
CONTINUOUS
10
1.65527
20
1.65945
11
1.65159
21
1.66018
0
LINE
8
BLACK
6
CONTINUOUS
10
1.65159
20
1.66018
11
1.64848
21
1.66226
0
LINE
8
BLACK
6
CONTINUOUS
10
1.64848
20
1.66226
11
1.6464
21
1.66537
0
LINE
8
BLACK
6
CONTINUOUS
10
1.6464
20
1.66537
11
1.64567
21
1.66905
0
LINE
8
BLACK
6
CONTINUOUS
10
1.64567
20
1.66905
11
1.64567
21
1.68824
0
LINE
8
BLACK
6
CONTINUOUS
10
1.64567
20
1.68824
11
1.6464
21
1.69191
0
LINE
8
BLACK
6
CONTINUOUS
10
1.6464
20
1.69191
11
1.64848
21
1.69502
0
LINE
8
BLACK
6
CONTINUOUS
10
1.64848
20
1.69502
11
1.65159
21
1.6971
0
LINE
8
BLACK
6
CONTINUOUS
10
1.65159
20
1.6971
11
1.65527
21
1.69783
0
LINE
8
BLACK
6
CONTINUOUS
10
1.65527
20
1.69783
11
1.69119
21
1.69783
0
LINE
8
BLACK
6
CONTINUOUS
10
1.69119
20
1.69783
11
1.69486
21
1.6971
0
LINE
8
BLACK
6
CONTINUOUS
10
1.52557
20
1.75714
11
1.52869
21
1.75506
0
LINE
8
BLACK
6
CONTINUOUS
10
1.52869
20
1.75506
11
1.53077
21
1.75195
0
LINE
8
BLACK
6
CONTINUOUS
10
1.53077
20
1.75195
11
1.5315
21
1.74828
0
LINE
8
BLACK
6
CONTINUOUS
10
1.5315
20
1.74828
11
1.5315
21
1.72908
0
LINE
8
BLACK
6
CONTINUOUS
10
1.5315
20
1.72908
11
1.53077
21
1.72541
0
LINE
8
BLACK
6
CONTINUOUS
10
1.53077
20
1.72541
11
1.52869
21
1.7223
0
LINE
8
BLACK
6
CONTINUOUS
10
1.52869
20
1.7223
11
1.52557
21
1.72022
0
LINE
8
BLACK
6
CONTINUOUS
10
1.52557
20
1.72022
11
1.5219
21
1.71949
0
LINE
8
BLACK
6
CONTINUOUS
10
1.5219
20
1.71949
11
1.48597
21
1.71949
0
LINE
8
BLACK
6
CONTINUOUS
10
1.48597
20
1.71949
11
1.4823
21
1.72022
0
LINE
8
BLACK
6
CONTINUOUS
10
1.4823
20
1.72022
11
1.47919
21
1.7223
0
LINE
8
BLACK
6
CONTINUOUS
10
1.47919
20
1.7223
11
1.47711
21
1.72541
0
LINE
8
BLACK
6
CONTINUOUS
10
1.47711
20
1.72541
11
1.47638
21
1.72908
0
LINE
8
BLACK
6
CONTINUOUS
10
1.47638
20
1.72908
11
1.47638
21
1.74828
0
LINE
8
BLACK
6
CONTINUOUS
10
1.47638
20
1.74828
11
1.47711
21
1.75195
0
LINE
8
BLACK
6
CONTINUOUS
10
1.47711
20
1.75195
11
1.47919
21
1.75506
0
LINE
8
BLACK
6
CONTINUOUS
10
1.47919
20
1.75506
11
1.4823
21
1.75714
0
LINE
8
BLACK
6
CONTINUOUS
10
1.4823
20
1.75714
11
1.48597
21
1.75787
0
LINE
8
BLACK
6
CONTINUOUS
10
1.48597
20
1.75787
11
1.5219
21
1.75787
0
LINE
8
BLACK
6
CONTINUOUS
10
1.5219
20
1.75787
11
1.52557
21
1.75714
0
LINE
8
BLACK
6
CONTINUOUS
10
1.69486
20
1.75862
11
1.69798
21
1.75654
0
LINE
8
BLACK
6
CONTINUOUS
10
1.69798
20
1.75654
11
1.70006
21
1.75343
0
LINE
8
BLACK
6
CONTINUOUS
10
1.70006
20
1.75343
11
1.70079
21
1.74975
0
LINE
8
BLACK
6
CONTINUOUS
10
1.70079
20
1.74975
11
1.70079
21
1.73056
0
LINE
8
BLACK
6
CONTINUOUS
10
1.70079
20
1.73056
11
1.70006
21
1.72689
0
LINE
8
BLACK
6
CONTINUOUS
10
1.70006
20
1.72689
11
1.69798
21
1.72378
0
LINE
8
BLACK
6
CONTINUOUS
10
1.69798
20
1.72378
11
1.69486
21
1.7217
0
LINE
8
BLACK
6
CONTINUOUS
10
1.69486
20
1.7217
11
1.69119
21
1.72096
0
LINE
8
BLACK
6
CONTINUOUS
10
1.69119
20
1.72096
11
1.65527
21
1.72096
0
LINE
8
BLACK
6
CONTINUOUS
10
1.65527
20
1.72096
11
1.65159
21
1.7217
0
LINE
8
BLACK
6
CONTINUOUS
10
1.65159
20
1.7217
11
1.64848
21
1.72378
0
LINE
8
BLACK
6
CONTINUOUS
10
1.64848
20
1.72378
11
1.6464
21
1.72689
0
LINE
8
BLACK
6
CONTINUOUS
10
1.6464
20
1.72689
11
1.64567
21
1.73056
0
LINE
8
BLACK
6
CONTINUOUS
10
1.64567
20
1.73056
11
1.64567
21
1.74975
0
LINE
8
BLACK
6
CONTINUOUS
10
1.64567
20
1.74975
11
1.6464
21
1.75343
0
LINE
8
BLACK
6
CONTINUOUS
10
1.6464
20
1.75343
11
1.64848
21
1.75654
0
LINE
8
BLACK
6
CONTINUOUS
10
1.64848
20
1.75654
11
1.65159
21
1.75862
0
LINE
8
BLACK
6
CONTINUOUS
10
1.65159
20
1.75862
11
1.65527
21
1.75935
0
LINE
8
BLACK
6
CONTINUOUS
10
1.65527
20
1.75935
11
1.69119
21
1.75935
0
LINE
8
BLACK
6
CONTINUOUS
10
1.69119
20
1.75935
11
1.69486
21
1.75862
0
LINE
8
BLACK
6
CONTINUOUS
10
1.17699
20
1.77976
11
1.18019
21
1.77763
0
LINE
8
BLACK
6
CONTINUOUS
10
1.18019
20
1.77763
11
1.18232
21
1.77444
0
LINE
8
BLACK
6
CONTINUOUS
10
1.18232
20
1.77444
11
1.18307
21
1.77067
0
LINE
8
BLACK
6
CONTINUOUS
10
1.18307
20
1.77067
11
1.18307
21
1.73327
0
LINE
8
BLACK
6
CONTINUOUS
10
1.18307
20
1.73327
11
1.18232
21
1.7295
0
LINE
8
BLACK
6
CONTINUOUS
10
1.18232
20
1.7295
11
1.18019
21
1.72631
0
LINE
8
BLACK
6
CONTINUOUS
10
1.18019
20
1.72631
11
1.17699
21
1.72417
0
LINE
8
BLACK
6
CONTINUOUS
10
1.17699
20
1.72417
11
1.17323
21
1.72343
0
LINE
8
BLACK
6
CONTINUOUS
10
1.17323
20
1.72343
11
1.15354
21
1.72343
0
LINE
8
BLACK
6
CONTINUOUS
10
1.15354
20
1.72343
11
1.14978
21
1.72417
0
LINE
8
BLACK
6
CONTINUOUS
10
1.14978
20
1.72417
11
1.14658
21
1.72631
0
LINE
8
BLACK
6
CONTINUOUS
10
1.14658
20
1.72631
11
1.14445
21
1.7295
0
LINE
8
BLACK
6
CONTINUOUS
10
1.14445
20
1.7295
11
1.1437
21
1.73327
0
LINE
8
BLACK
6
CONTINUOUS
10
1.1437
20
1.73327
11
1.1437
21
1.77067
0
LINE
8
BLACK
6
CONTINUOUS
10
1.1437
20
1.77067
11
1.14445
21
1.77444
0
LINE
8
BLACK
6
CONTINUOUS
10
1.14445
20
1.77444
11
1.14658
21
1.77763
0
LINE
8
BLACK
6
CONTINUOUS
10
1.14658
20
1.77763
11
1.14978
21
1.77976
0
LINE
8
BLACK
6
CONTINUOUS
10
1.14978
20
1.77976
11
1.15354
21
1.78051
0
LINE
8
BLACK
6
CONTINUOUS
10
1.15354
20
1.78051
11
1.17323
21
1.78051
0
LINE
8
BLACK
6
CONTINUOUS
10
1.17323
20
1.78051
11
1.17699
21
1.77976
0
LINE
8
BLACK
6
CONTINUOUS
10
1.2518
20
1.77976
11
1.25499
21
1.77763
0
LINE
8
BLACK
6
CONTINUOUS
10
1.25499
20
1.77763
11
1.25712
21
1.77444
0
LINE
8
BLACK
6
CONTINUOUS
10
1.25712
20
1.77444
11
1.25787
21
1.77067
0
LINE
8
BLACK
6
CONTINUOUS
10
1.25787
20
1.77067
11
1.25787
21
1.73327
0
LINE
8
BLACK
6
CONTINUOUS
10
1.25787
20
1.73327
11
1.25712
21
1.7295
0
LINE
8
BLACK
6
CONTINUOUS
10
1.25712
20
1.7295
11
1.25499
21
1.72631
0
LINE
8
BLACK
6
CONTINUOUS
10
1.25499
20
1.72631
11
1.2518
21
1.72417
0
LINE
8
BLACK
6
CONTINUOUS
10
1.2518
20
1.72417
11
1.24803
21
1.72343
0
LINE
8
BLACK
6
CONTINUOUS
10
1.24803
20
1.72343
11
1.22835
21
1.72343
0
LINE
8
BLACK
6
CONTINUOUS
10
1.22835
20
1.72343
11
1.22458
21
1.72417
0
LINE
8
BLACK
6
CONTINUOUS
10
1.22458
20
1.72417
11
1.22139
21
1.72631
0
LINE
8
BLACK
6
CONTINUOUS
10
1.22139
20
1.72631
11
1.21925
21
1.7295
0
LINE
8
BLACK
6
CONTINUOUS
10
1.21925
20
1.7295
11
1.2185
21
1.73327
0
LINE
8
BLACK
6
CONTINUOUS
10
1.2185
20
1.73327
11
1.2185
21
1.77067
0
LINE
8
BLACK
6
CONTINUOUS
10
1.2185
20
1.77067
11
1.21925
21
1.77444
0
LINE
8
BLACK
6
CONTINUOUS
10
1.21925
20
1.77444
11
1.22139
21
1.77763
0
LINE
8
BLACK
6
CONTINUOUS
10
1.22139
20
1.77763
11
1.22458
21
1.77976
0
LINE
8
BLACK
6
CONTINUOUS
10
1.22458
20
1.77976
11
1.22835
21
1.78051
0
LINE
8
BLACK
6
CONTINUOUS
10
1.22835
20
1.78051
11
1.24803
21
1.78051
0
LINE
8
BLACK
6
CONTINUOUS
10
1.24803
20
1.78051
11
1.2518
21
1.77976
0
LINE
8
BLACK
6
CONTINUOUS
10
1.02936
20
1.77976
11
1.03255
21
1.77763
0
LINE
8
BLACK
6
CONTINUOUS
10
1.03255
20
1.77763
11
1.03468
21
1.77444
0
LINE
8
BLACK
6
CONTINUOUS
10
1.03468
20
1.77444
11
1.03543
21
1.77067
0
LINE
8
BLACK
6
CONTINUOUS
10
1.03543
20
1.77067
11
1.03543
21
1.73327
0
LINE
8
BLACK
6
CONTINUOUS
10
1.03543
20
1.73327
11
1.03468
21
1.7295
0
LINE
8
BLACK
6
CONTINUOUS
10
1.03468
20
1.7295
11
1.03255
21
1.72631
0
LINE
8
BLACK
6
CONTINUOUS
10
1.03255
20
1.72631
11
1.02936
21
1.72417
0
LINE
8
BLACK
6
CONTINUOUS
10
1.02936
20
1.72417
11
1.02559
21
1.72343
0
LINE
8
BLACK
6
CONTINUOUS
10
1.02559
20
1.72343
11
1.00591
21
1.72343
0
LINE
8
BLACK
6
CONTINUOUS
10
1.00591
20
1.72343
11
1.00214
21
1.72417
0
LINE
8
BLACK
6
CONTINUOUS
10
1.00214
20
1.72417
11
0.998946
21
1.72631
0
LINE
8
BLACK
6
CONTINUOUS
10
0.998946
20
1.72631
11
0.996812
21
1.7295
0
LINE
8
BLACK
6
CONTINUOUS
10
0.996812
20
1.7295
11
0.996063
21
1.73327
0
LINE
8
BLACK
6
CONTINUOUS
10
0.996063
20
1.73327
11
0.996063
21
1.77067
0
LINE
8
BLACK
6
CONTINUOUS
10
0.996063
20
1.77067
11
0.996812
21
1.77444
0
LINE
8
BLACK
6
CONTINUOUS
10
0.996812
20
1.77444
11
0.998946
21
1.77763
0
LINE
8
BLACK
6
CONTINUOUS
10
0.998946
20
1.77763
11
1.00214
21
1.77976
0
LINE
8
BLACK
6
CONTINUOUS
10
1.00214
20
1.77976
11
1.00591
21
1.78051
0
LINE
8
BLACK
6
CONTINUOUS
10
1.00591
20
1.78051
11
1.02559
21
1.78051
0
LINE
8
BLACK
6
CONTINUOUS
10
1.02559
20
1.78051
11
1.02936
21
1.77976
0
LINE
8
BLACK
6
CONTINUOUS
10
1.10416
20
1.77976
11
1.10735
21
1.77763
0
LINE
8
BLACK
6
CONTINUOUS
10
1.10735
20
1.77763
11
1.10949
21
1.77444
0
LINE
8
BLACK
6
CONTINUOUS
10
1.10949
20
1.77444
11
1.11024
21
1.77067
0
LINE
8
BLACK
6
CONTINUOUS
10
1.11024
20
1.77067
11
1.11024
21
1.73327
0
LINE
8
BLACK
6
CONTINUOUS
10
1.11024
20
1.73327
11
1.10949
21
1.7295
0
LINE
8
BLACK
6
CONTINUOUS
10
1.10949
20
1.7295
11
1.10735
21
1.72631
0
LINE
8
BLACK
6
CONTINUOUS
10
1.10735
20
1.72631
11
1.10416
21
1.72417
0
LINE
8
BLACK
6
CONTINUOUS
10
1.10416
20
1.72417
11
1.10039
21
1.72343
0
LINE
8
BLACK
6
CONTINUOUS
10
1.10039
20
1.72343
11
1.08071
21
1.72343
0
LINE
8
BLACK
6
CONTINUOUS
10
1.08071
20
1.72343
11
1.07694
21
1.72417
0
LINE
8
BLACK
6
CONTINUOUS
10
1.07694
20
1.72417
11
1.07375
21
1.72631
0
LINE
8
BLACK
6
CONTINUOUS
10
1.07375
20
1.72631
11
1.07162
21
1.7295
0
LINE
8
BLACK
6
CONTINUOUS
10
1.07162
20
1.7295
11
1.07087
21
1.73327
0
LINE
8
BLACK
6
CONTINUOUS
10
1.07087
20
1.73327
11
1.07087
21
1.77067
0
LINE
8
BLACK
6
CONTINUOUS
10
1.07087
20
1.77067
11
1.07162
21
1.77444
0
LINE
8
BLACK
6
CONTINUOUS
10
1.07162
20
1.77444
11
1.07375
21
1.77763
0
LINE
8
BLACK
6
CONTINUOUS
10
1.07375
20
1.77763
11
1.07694
21
1.77976
0
LINE
8
BLACK
6
CONTINUOUS
10
1.07694
20
1.77976
11
1.08071
21
1.78051
0
LINE
8
BLACK
6
CONTINUOUS
10
1.08071
20
1.78051
11
1.10039
21
1.78051
0
LINE
8
BLACK
6
CONTINUOUS
10
1.10039
20
1.78051
11
1.10416
21
1.77976
0
LINE
8
BLACK
6
CONTINUOUS
10
1.52557
20
1.83096
11
1.52869
21
1.82888
0
LINE
8
BLACK
6
CONTINUOUS
10
1.52869
20
1.82888
11
1.53077
21
1.82577
0
LINE
8
BLACK
6
CONTINUOUS
10
1.53077
20
1.82577
11
1.5315
21
1.8221
0
LINE
8
BLACK
6
CONTINUOUS
10
1.5315
20
1.8221
11
1.5315
21
1.8029
0
LINE
8
BLACK
6
CONTINUOUS
10
1.5315
20
1.8029
11
1.53077
21
1.79923
0
LINE
8
BLACK
6
CONTINUOUS
10
1.53077
20
1.79923
11
1.52869
21
1.79612
0
LINE
8
BLACK
6
CONTINUOUS
10
1.52869
20
1.79612
11
1.52557
21
1.79404
0
LINE
8
BLACK
6
CONTINUOUS
10
1.52557
20
1.79404
11
1.5219
21
1.79331
0
LINE
8
BLACK
6
CONTINUOUS
10
1.5219
20
1.79331
11
1.48597
21
1.79331
0
LINE
8
BLACK
6
CONTINUOUS
10
1.48597
20
1.79331
11
1.4823
21
1.79404
0
LINE
8
BLACK
6
CONTINUOUS
10
1.4823
20
1.79404
11
1.47919
21
1.79612
0
LINE
8
BLACK
6
CONTINUOUS
10
1.47919
20
1.79612
11
1.47711
21
1.79923
0
LINE
8
BLACK
6
CONTINUOUS
10
1.47711
20
1.79923
11
1.47638
21
1.8029
0
LINE
8
BLACK
6
CONTINUOUS
10
1.47638
20
1.8029
11
1.47638
21
1.8221
0
LINE
8
BLACK
6
CONTINUOUS
10
1.47638
20
1.8221
11
1.47711
21
1.82577
0
LINE
8
BLACK
6
CONTINUOUS
10
1.47711
20
1.82577
11
1.47919
21
1.82888
0
LINE
8
BLACK
6
CONTINUOUS
10
1.47919
20
1.82888
11
1.4823
21
1.83096
0
LINE
8
BLACK
6
CONTINUOUS
10
1.4823
20
1.83096
11
1.48597
21
1.83169
0
LINE
8
BLACK
6
CONTINUOUS
10
1.48597
20
1.83169
11
1.5219
21
1.83169
0
LINE
8
BLACK
6
CONTINUOUS
10
1.5219
20
1.83169
11
1.52557
21
1.83096
0
LINE
8
BLACK
6
CONTINUOUS
10
1.69486
20
1.83244
11
1.69798
21
1.83036
0
LINE
8
BLACK
6
CONTINUOUS
10
1.69798
20
1.83036
11
1.70006
21
1.82725
0
LINE
8
BLACK
6
CONTINUOUS
10
1.70006
20
1.82725
11
1.70079
21
1.82357
0
LINE
8
BLACK
6
CONTINUOUS
10
1.70079
20
1.82357
11
1.70079
21
1.80438
0
LINE
8
BLACK
6
CONTINUOUS
10
1.70079
20
1.80438
11
1.70006
21
1.80071
0
LINE
8
BLACK
6
CONTINUOUS
10
1.70006
20
1.80071
11
1.69798
21
1.79759
0
LINE
8
BLACK
6
CONTINUOUS
10
1.69798
20
1.79759
11
1.69486
21
1.79551
0
LINE
8
BLACK
6
CONTINUOUS
10
1.69486
20
1.79551
11
1.69119
21
1.79478
0
LINE
8
BLACK
6
CONTINUOUS
10
1.69119
20
1.79478
11
1.65527
21
1.79478
0
LINE
8
BLACK
6
CONTINUOUS
10
1.65527
20
1.79478
11
1.65159
21
1.79551
0
LINE
8
BLACK
6
CONTINUOUS
10
1.65159
20
1.79551
11
1.64848
21
1.79759
0
LINE
8
BLACK
6
CONTINUOUS
10
1.64848
20
1.79759
11
1.6464
21
1.80071
0
LINE
8
BLACK
6
CONTINUOUS
10
1.6464
20
1.80071
11
1.64567
21
1.80438
0
LINE
8
BLACK
6
CONTINUOUS
10
1.64567
20
1.80438
11
1.64567
21
1.82357
0
LINE
8
BLACK
6
CONTINUOUS
10
1.64567
20
1.82357
11
1.6464
21
1.82725
0
LINE
8
BLACK
6
CONTINUOUS
10
1.6464
20
1.82725
11
1.64848
21
1.83036
0
LINE
8
BLACK
6
CONTINUOUS
10
1.64848
20
1.83036
11
1.65159
21
1.83244
0
LINE
8
BLACK
6
CONTINUOUS
10
1.65159
20
1.83244
11
1.65527
21
1.83317
0
LINE
8
BLACK
6
CONTINUOUS
10
1.65527
20
1.83317
11
1.69119
21
1.83317
0
LINE
8
BLACK
6
CONTINUOUS
10
1.69119
20
1.83317
11
1.69486
21
1.83244
0
LINE
8
BLACK
6
CONTINUOUS
10
0.714548
20
1.85754
11
0.717662
21
1.85546
0
LINE
8
BLACK
6
CONTINUOUS
10
0.717662
20
1.85546
11
0.719742
21
1.85234
0
LINE
8
BLACK
6
CONTINUOUS
10
0.719742
20
1.85234
11
0.720472
21
1.84867
0
LINE
8
BLACK
6
CONTINUOUS
10
0.720472
20
1.84867
11
0.720472
21
1.82948
0
LINE
8
BLACK
6
CONTINUOUS
10
0.720472
20
1.82948
11
0.719742
21
1.82581
0
LINE
8
BLACK
6
CONTINUOUS
10
0.719742
20
1.82581
11
0.717662
21
1.82269
0
LINE
8
BLACK
6
CONTINUOUS
10
0.717662
20
1.82269
11
0.714548
21
1.82061
0
LINE
8
BLACK
6
CONTINUOUS
10
0.714548
20
1.82061
11
0.710876
21
1.81988
0
LINE
8
BLACK
6
CONTINUOUS
10
0.710876
20
1.81988
11
0.674951
21
1.81988
0
LINE
8
BLACK
6
CONTINUOUS
10
0.674951
20
1.81988
11
0.671278
21
1.82061
0
LINE
8
BLACK
6
CONTINUOUS
10
0.671278
20
1.82061
11
0.668165
21
1.82269
0
LINE
8
BLACK
6
CONTINUOUS
10
0.668165
20
1.82269
11
0.666085
21
1.82581
0
LINE
8
BLACK
6
CONTINUOUS
10
0.666085
20
1.82581
11
0.665354
21
1.82948
0
LINE
8
BLACK
6
CONTINUOUS
10
0.665354
20
1.82948
11
0.665354
21
1.84867
0
LINE
8
BLACK
6
CONTINUOUS
10
0.665354
20
1.84867
11
0.666085
21
1.85234
0
LINE
8
BLACK
6
CONTINUOUS
10
0.666085
20
1.85234
11
0.668165
21
1.85546
0
LINE
8
BLACK
6
CONTINUOUS
10
0.668165
20
1.85546
11
0.671278
21
1.85754
0
LINE
8
BLACK
6
CONTINUOUS
10
0.671278
20
1.85754
11
0.674951
21
1.85827
0
LINE
8
BLACK
6
CONTINUOUS
10
0.674951
20
1.85827
11
0.710876
21
1.85827
0
LINE
8
BLACK
6
CONTINUOUS
10
0.710876
20
1.85827
11
0.714548
21
1.85754
0
LINE
8
BLACK
6
CONTINUOUS
10
0.966517
20
1.85754
11
0.96963
21
1.85546
0
LINE
8
BLACK
6
CONTINUOUS
10
0.96963
20
1.85546
11
0.97171
21
1.85234
0
LINE
8
BLACK
6
CONTINUOUS
10
0.97171
20
1.85234
11
0.972441
21
1.84867
0
LINE
8
BLACK
6
CONTINUOUS
10
0.972441
20
1.84867
11
0.972441
21
1.82948
0
LINE
8
BLACK
6
CONTINUOUS
10
0.972441
20
1.82948
11
0.97171
21
1.82581
0
LINE
8
BLACK
6
CONTINUOUS
10
0.97171
20
1.82581
11
0.96963
21
1.82269
0
LINE
8
BLACK
6
CONTINUOUS
10
0.96963
20
1.82269
11
0.966517
21
1.82061
0
LINE
8
BLACK
6
CONTINUOUS
10
0.966517
20
1.82061
11
0.962844
21
1.81988
0
LINE
8
BLACK
6
CONTINUOUS
10
0.962844
20
1.81988
11
0.926919
21
1.81988
0
LINE
8
BLACK
6
CONTINUOUS
10
0.926919
20
1.81988
11
0.923247
21
1.82061
0
LINE
8
BLACK
6
CONTINUOUS
10
0.923247
20
1.82061
11
0.920134
21
1.82269
0
LINE
8
BLACK
6
CONTINUOUS
10
0.920134
20
1.82269
11
0.918053
21
1.82581
0
LINE
8
BLACK
6
CONTINUOUS
10
0.918053
20
1.82581
11
0.917323
21
1.82948
0
LINE
8
BLACK
6
CONTINUOUS
10
0.917323
20
1.82948
11
0.917323
21
1.84867
0
LINE
8
BLACK
6
CONTINUOUS
10
0.917323
20
1.84867
11
0.918053
21
1.85234
0
LINE
8
BLACK
6
CONTINUOUS
10
0.918053
20
1.85234
11
0.920134
21
1.85546
0
LINE
8
BLACK
6
CONTINUOUS
10
0.920134
20
1.85546
11
0.923247
21
1.85754
0
LINE
8
BLACK
6
CONTINUOUS
10
0.923247
20
1.85754
11
0.926919
21
1.85827
0
LINE
8
BLACK
6
CONTINUOUS
10
0.926919
20
1.85827
11
0.962844
21
1.85827
0
LINE
8
BLACK
6
CONTINUOUS
10
0.962844
20
1.85827
11
0.966517
21
1.85754
0
LINE
8
BLACK
6
CONTINUOUS
10
1.17124
20
1.85803
11
1.17435
21
1.85595
0
LINE
8
BLACK
6
CONTINUOUS
10
1.17435
20
1.85595
11
1.17643
21
1.85284
0
LINE
8
BLACK
6
CONTINUOUS
10
1.17643
20
1.85284
11
1.17717
21
1.84916
0
LINE
8
BLACK
6
CONTINUOUS
10
1.17717
20
1.84916
11
1.17717
21
1.82997
0
LINE
8
BLACK
6
CONTINUOUS
10
1.17717
20
1.82997
11
1.17643
21
1.8263
0
LINE
8
BLACK
6
CONTINUOUS
10
1.17643
20
1.8263
11
1.17435
21
1.82318
0
LINE
8
BLACK
6
CONTINUOUS
10
1.17435
20
1.82318
11
1.17124
21
1.8211
0
LINE
8
BLACK
6
CONTINUOUS
10
1.17124
20
1.8211
11
1.16757
21
1.82037
0
LINE
8
BLACK
6
CONTINUOUS
10
1.16757
20
1.82037
11
1.13164
21
1.82037
0
LINE
8
BLACK
6
CONTINUOUS
10
1.13164
20
1.82037
11
1.12797
21
1.8211
0
LINE
8
BLACK
6
CONTINUOUS
10
1.12797
20
1.8211
11
1.12486
21
1.82318
0
LINE
8
BLACK
6
CONTINUOUS
10
1.12486
20
1.82318
11
1.12278
21
1.8263
0
LINE
8
BLACK
6
CONTINUOUS
10
1.12278
20
1.8263
11
1.12205
21
1.82997
0
LINE
8
BLACK
6
CONTINUOUS
10
1.12205
20
1.82997
11
1.12205
21
1.84916
0
LINE
8
BLACK
6
CONTINUOUS
10
1.12205
20
1.84916
11
1.12278
21
1.85284
0
LINE
8
BLACK
6
CONTINUOUS
10
1.12278
20
1.85284
11
1.12486
21
1.85595
0
LINE
8
BLACK
6
CONTINUOUS
10
1.12486
20
1.85595
11
1.12797
21
1.85803
0
LINE
8
BLACK
6
CONTINUOUS
10
1.12797
20
1.85803
11
1.13164
21
1.85876
0
LINE
8
BLACK
6
CONTINUOUS
10
1.13164
20
1.85876
11
1.16757
21
1.85876
0
LINE
8
BLACK
6
CONTINUOUS
10
1.16757
20
1.85876
11
1.17124
21
1.85803
0
LINE
8
BLACK
6
CONTINUOUS
10
0.470454
20
1.87132
11
0.473567
21
1.86924
0
LINE
8
BLACK
6
CONTINUOUS
10
0.473567
20
1.86924
11
0.475647
21
1.86612
0
LINE
8
BLACK
6
CONTINUOUS
10
0.475647
20
1.86612
11
0.476378
21
1.86245
0
LINE
8
BLACK
6
CONTINUOUS
10
0.476378
20
1.86245
11
0.476378
21
1.84326
0
LINE
8
BLACK
6
CONTINUOUS
10
0.476378
20
1.84326
11
0.475647
21
1.83959
0
LINE
8
BLACK
6
CONTINUOUS
10
0.475647
20
1.83959
11
0.473567
21
1.83647
0
LINE
8
BLACK
6
CONTINUOUS
10
0.473567
20
1.83647
11
0.470454
21
1.83439
0
LINE
8
BLACK
6
CONTINUOUS
10
0.470454
20
1.83439
11
0.466781
21
1.83366
0
LINE
8
BLACK
6
CONTINUOUS
10
0.466781
20
1.83366
11
0.430856
21
1.83366
0
LINE
8
BLACK
6
CONTINUOUS
10
0.430856
20
1.83366
11
0.427184
21
1.83439
0
LINE
8
BLACK
6
CONTINUOUS
10
0.427184
20
1.83439
11
0.424071
21
1.83647
0
LINE
8
BLACK
6
CONTINUOUS
10
0.424071
20
1.83647
11
0.42199
21
1.83959
0
LINE
8
BLACK
6
CONTINUOUS
10
0.42199
20
1.83959
11
0.42126
21
1.84326
0
LINE
8
BLACK
6
CONTINUOUS
10
0.42126
20
1.84326
11
0.42126
21
1.86245
0
LINE
8
BLACK
6
CONTINUOUS
10
0.42126
20
1.86245
11
0.42199
21
1.86612
0
LINE
8
BLACK
6
CONTINUOUS
10
0.42199
20
1.86612
11
0.424071
21
1.86924
0
LINE
8
BLACK
6
CONTINUOUS
10
0.424071
20
1.86924
11
0.427184
21
1.87132
0
LINE
8
BLACK
6
CONTINUOUS
10
0.427184
20
1.87132
11
0.430856
21
1.87205
0
LINE
8
BLACK
6
CONTINUOUS
10
0.430856
20
1.87205
11
0.466781
21
1.87205
0
LINE
8
BLACK
6
CONTINUOUS
10
0.466781
20
1.87205
11
0.470454
21
1.87132
0
LINE
8
BLACK
6
CONTINUOUS
10
0.366123
20
1.87132
11
0.369236
21
1.86924
0
LINE
8
BLACK
6
CONTINUOUS
10
0.369236
20
1.86924
11
0.371317
21
1.86612
0
LINE
8
BLACK
6
CONTINUOUS
10
0.371317
20
1.86612
11
0.372047
21
1.86245
0
LINE
8
BLACK
6
CONTINUOUS
10
0.372047
20
1.86245
11
0.372047
21
1.84326
0
LINE
8
BLACK
6
CONTINUOUS
10
0.372047
20
1.84326
11
0.371317
21
1.83959
0
LINE
8
BLACK
6
CONTINUOUS
10
0.371317
20
1.83959
11
0.369236
21
1.83647
0
LINE
8
BLACK
6
CONTINUOUS
10
0.369236
20
1.83647
11
0.366123
21
1.83439
0
LINE
8
BLACK
6
CONTINUOUS
10
0.366123
20
1.83439
11
0.362451
21
1.83366
0
LINE
8
BLACK
6
CONTINUOUS
10
0.362451
20
1.83366
11
0.326526
21
1.83366
0
LINE
8
BLACK
6
CONTINUOUS
10
0.326526
20
1.83366
11
0.322853
21
1.83439
0
LINE
8
BLACK
6
CONTINUOUS
10
0.322853
20
1.83439
11
0.31974
21
1.83647
0
LINE
8
BLACK
6
CONTINUOUS
10
0.31974
20
1.83647
11
0.31766
21
1.83959
0
LINE
8
BLACK
6
CONTINUOUS
10
0.31766
20
1.83959
11
0.316929
21
1.84326
0
LINE
8
BLACK
6
CONTINUOUS
10
0.316929
20
1.84326
11
0.316929
21
1.86245
0
LINE
8
BLACK
6
CONTINUOUS
10
0.316929
20
1.86245
11
0.31766
21
1.86612
0
LINE
8
BLACK
6
CONTINUOUS
10
0.31766
20
1.86612
11
0.31974
21
1.86924
0
LINE
8
BLACK
6
CONTINUOUS
10
0.31974
20
1.86924
11
0.322853
21
1.87132
0
LINE
8
BLACK
6
CONTINUOUS
10
0.322853
20
1.87132
11
0.326526
21
1.87205
0
LINE
8
BLACK
6
CONTINUOUS
10
0.326526
20
1.87205
11
0.362451
21
1.87205
0
LINE
8
BLACK
6
CONTINUOUS
10
0.362451
20
1.87205
11
0.366123
21
1.87132
0
LINE
8
BLACK
6
CONTINUOUS
10
0.966517
20
1.93136
11
0.96963
21
1.92928
0
LINE
8
BLACK
6
CONTINUOUS
10
0.96963
20
1.92928
11
0.97171
21
1.92616
0
LINE
8
BLACK
6
CONTINUOUS
10
0.97171
20
1.92616
11
0.972441
21
1.92249
0
LINE
8
BLACK
6
CONTINUOUS
10
0.972441
20
1.92249
11
0.972441
21
1.9033
0
LINE
8
BLACK
6
CONTINUOUS
10
0.972441
20
1.9033
11
0.97171
21
1.89962
0
LINE
8
BLACK
6
CONTINUOUS
10
0.97171
20
1.89962
11
0.96963
21
1.89651
0
LINE
8
BLACK
6
CONTINUOUS
10
0.96963
20
1.89651
11
0.966517
21
1.89443
0
LINE
8
BLACK
6
CONTINUOUS
10
0.966517
20
1.89443
11
0.962844
21
1.8937
0
LINE
8
BLACK
6
CONTINUOUS
10
0.962844
20
1.8937
11
0.926919
21
1.8937
0
LINE
8
BLACK
6
CONTINUOUS
10
0.926919
20
1.8937
11
0.923247
21
1.89443
0
LINE
8
BLACK
6
CONTINUOUS
10
0.923247
20
1.89443
11
0.920134
21
1.89651
0
LINE
8
BLACK
6
CONTINUOUS
10
0.920134
20
1.89651
11
0.918053
21
1.89962
0
LINE
8
BLACK
6
CONTINUOUS
10
0.918053
20
1.89962
11
0.917323
21
1.9033
0
LINE
8
BLACK
6
CONTINUOUS
10
0.917323
20
1.9033
11
0.917323
21
1.92249
0
LINE
8
BLACK
6
CONTINUOUS
10
0.917323
20
1.92249
11
0.918053
21
1.92616
0
LINE
8
BLACK
6
CONTINUOUS
10
0.918053
20
1.92616
11
0.920134
21
1.92928
0
LINE
8
BLACK
6
CONTINUOUS
10
0.920134
20
1.92928
11
0.923247
21
1.93136
0
LINE
8
BLACK
6
CONTINUOUS
10
0.923247
20
1.93136
11
0.926919
21
1.93209
0
LINE
8
BLACK
6
CONTINUOUS
10
0.926919
20
1.93209
11
0.962844
21
1.93209
0
LINE
8
BLACK
6
CONTINUOUS
10
0.962844
20
1.93209
11
0.966517
21
1.93136
0
LINE
8
BLACK
6
CONTINUOUS
10
0.714548
20
1.93136
11
0.717662
21
1.92928
0
LINE
8
BLACK
6
CONTINUOUS
10
0.717662
20
1.92928
11
0.719742
21
1.92616
0
LINE
8
BLACK
6
CONTINUOUS
10
0.719742
20
1.92616
11
0.720472
21
1.92249
0
LINE
8
BLACK
6
CONTINUOUS
10
0.720472
20
1.92249
11
0.720472
21
1.9033
0
LINE
8
BLACK
6
CONTINUOUS
10
0.720472
20
1.9033
11
0.719742
21
1.89962
0
LINE
8
BLACK
6
CONTINUOUS
10
0.719742
20
1.89962
11
0.717662
21
1.89651
0
LINE
8
BLACK
6
CONTINUOUS
10
0.717662
20
1.89651
11
0.714548
21
1.89443
0
LINE
8
BLACK
6
CONTINUOUS
10
0.714548
20
1.89443
11
0.710876
21
1.8937
0
LINE
8
BLACK
6
CONTINUOUS
10
0.710876
20
1.8937
11
0.674951
21
1.8937
0
LINE
8
BLACK
6
CONTINUOUS
10
0.674951
20
1.8937
11
0.671278
21
1.89443
0
LINE
8
BLACK
6
CONTINUOUS
10
0.671278
20
1.89443
11
0.668165
21
1.89651
0
LINE
8
BLACK
6
CONTINUOUS
10
0.668165
20
1.89651
11
0.666085
21
1.89962
0
LINE
8
BLACK
6
CONTINUOUS
10
0.666085
20
1.89962
11
0.665354
21
1.9033
0
LINE
8
BLACK
6
CONTINUOUS
10
0.665354
20
1.9033
11
0.665354
21
1.92249
0
LINE
8
BLACK
6
CONTINUOUS
10
0.665354
20
1.92249
11
0.666085
21
1.92616
0
LINE
8
BLACK
6
CONTINUOUS
10
0.666085
20
1.92616
11
0.668165
21
1.92928
0
LINE
8
BLACK
6
CONTINUOUS
10
0.668165
20
1.92928
11
0.671278
21
1.93136
0
LINE
8
BLACK
6
CONTINUOUS
10
0.671278
20
1.93136
11
0.674951
21
1.93209
0
LINE
8
BLACK
6
CONTINUOUS
10
0.674951
20
1.93209
11
0.710876
21
1.93209
0
LINE
8
BLACK
6
CONTINUOUS
10
0.710876
20
1.93209
11
0.714548
21
1.93136
0
LINE
8
BLACK
6
CONTINUOUS
10
1.17124
20
1.93185
11
1.17435
21
1.92977
0
LINE
8
BLACK
6
CONTINUOUS
10
1.17435
20
1.92977
11
1.17643
21
1.92665
0
LINE
8
BLACK
6
CONTINUOUS
10
1.17643
20
1.92665
11
1.17717
21
1.92298
0
LINE
8
BLACK
6
CONTINUOUS
10
1.17717
20
1.92298
11
1.17717
21
1.90379
0
LINE
8
BLACK
6
CONTINUOUS
10
1.17717
20
1.90379
11
1.17643
21
1.90012
0
LINE
8
BLACK
6
CONTINUOUS
10
1.17643
20
1.90012
11
1.17435
21
1.897
0
LINE
8
BLACK
6
CONTINUOUS
10
1.17435
20
1.897
11
1.17124
21
1.89492
0
LINE
8
BLACK
6
CONTINUOUS
10
1.17124
20
1.89492
11
1.16757
21
1.89419
0
LINE
8
BLACK
6
CONTINUOUS
10
1.16757
20
1.89419
11
1.13164
21
1.89419
0
LINE
8
BLACK
6
CONTINUOUS
10
1.13164
20
1.89419
11
1.12797
21
1.89492
0
LINE
8
BLACK
6
CONTINUOUS
10
1.12797
20
1.89492
11
1.12486
21
1.897
0
LINE
8
BLACK
6
CONTINUOUS
10
1.12486
20
1.897
11
1.12278
21
1.90012
0
LINE
8
BLACK
6
CONTINUOUS
10
1.12278
20
1.90012
11
1.12205
21
1.90379
0
LINE
8
BLACK
6
CONTINUOUS
10
1.12205
20
1.90379
11
1.12205
21
1.92298
0
LINE
8
BLACK
6
CONTINUOUS
10
1.12205
20
1.92298
11
1.12278
21
1.92665
0
LINE
8
BLACK
6
CONTINUOUS
10
1.12278
20
1.92665
11
1.12486
21
1.92977
0
LINE
8
BLACK
6
CONTINUOUS
10
1.12486
20
1.92977
11
1.12797
21
1.93185
0
LINE
8
BLACK
6
CONTINUOUS
10
1.12797
20
1.93185
11
1.13164
21
1.93258
0
LINE
8
BLACK
6
CONTINUOUS
10
1.13164
20
1.93258
11
1.16757
21
1.93258
0
LINE
8
BLACK
6
CONTINUOUS
10
1.16757
20
1.93258
11
1.17124
21
1.93185
0
LINE
8
BLACK
6
CONTINUOUS
10
0.366123
20
1.94514
11
0.369236
21
1.94306
0
LINE
8
BLACK
6
CONTINUOUS
10
0.369236
20
1.94306
11
0.371317
21
1.93994
0
LINE
8
BLACK
6
CONTINUOUS
10
0.371317
20
1.93994
11
0.372047
21
1.93627
0
LINE
8
BLACK
6
CONTINUOUS
10
0.372047
20
1.93627
11
0.372047
21
1.91708
0
LINE
8
BLACK
6
CONTINUOUS
10
0.372047
20
1.91708
11
0.371317
21
1.9134
0
LINE
8
BLACK
6
CONTINUOUS
10
0.371317
20
1.9134
11
0.369236
21
1.91029
0
LINE
8
BLACK
6
CONTINUOUS
10
0.369236
20
1.91029
11
0.366123
21
1.90821
0
LINE
8
BLACK
6
CONTINUOUS
10
0.366123
20
1.90821
11
0.362451
21
1.90748
0
LINE
8
BLACK
6
CONTINUOUS
10
0.362451
20
1.90748
11
0.326526
21
1.90748
0
LINE
8
BLACK
6
CONTINUOUS
10
0.326526
20
1.90748
11
0.322853
21
1.90821
0
LINE
8
BLACK
6
CONTINUOUS
10
0.322853
20
1.90821
11
0.31974
21
1.91029
0
LINE
8
BLACK
6
CONTINUOUS
10
0.31974
20
1.91029
11
0.31766
21
1.9134
0
LINE
8
BLACK
6
CONTINUOUS
10
0.31766
20
1.9134
11
0.316929
21
1.91708
0
LINE
8
BLACK
6
CONTINUOUS
10
0.316929
20
1.91708
11
0.316929
21
1.93627
0
LINE
8
BLACK
6
CONTINUOUS
10
0.316929
20
1.93627
11
0.31766
21
1.93994
0
LINE
8
BLACK
6
CONTINUOUS
10
0.31766
20
1.93994
11
0.31974
21
1.94306
0
LINE
8
BLACK
6
CONTINUOUS
10
0.31974
20
1.94306
11
0.322853
21
1.94514
0
LINE
8
BLACK
6
CONTINUOUS
10
0.322853
20
1.94514
11
0.326526
21
1.94587
0
LINE
8
BLACK
6
CONTINUOUS
10
0.326526
20
1.94587
11
0.362451
21
1.94587
0
LINE
8
BLACK
6
CONTINUOUS
10
0.362451
20
1.94587
11
0.366123
21
1.94514
0
LINE
8
BLACK
6
CONTINUOUS
10
0.470454
20
1.94514
11
0.473567
21
1.94306
0
LINE
8
BLACK
6
CONTINUOUS
10
0.473567
20
1.94306
11
0.475647
21
1.93994
0
LINE
8
BLACK
6
CONTINUOUS
10
0.475647
20
1.93994
11
0.476378
21
1.93627
0
LINE
8
BLACK
6
CONTINUOUS
10
0.476378
20
1.93627
11
0.476378
21
1.91708
0
LINE
8
BLACK
6
CONTINUOUS
10
0.476378
20
1.91708
11
0.475647
21
1.9134
0
LINE
8
BLACK
6
CONTINUOUS
10
0.475647
20
1.9134
11
0.473567
21
1.91029
0
LINE
8
BLACK
6
CONTINUOUS
10
0.473567
20
1.91029
11
0.470454
21
1.90821
0
LINE
8
BLACK
6
CONTINUOUS
10
0.470454
20
1.90821
11
0.466781
21
1.90748
0
LINE
8
BLACK
6
CONTINUOUS
10
0.466781
20
1.90748
11
0.430856
21
1.90748
0
LINE
8
BLACK
6
CONTINUOUS
10
0.430856
20
1.90748
11
0.427184
21
1.90821
0
LINE
8
BLACK
6
CONTINUOUS
10
0.427184
20
1.90821
11
0.424071
21
1.91029
0
LINE
8
BLACK
6
CONTINUOUS
10
0.424071
20
1.91029
11
0.42199
21
1.9134
0
LINE
8
BLACK
6
CONTINUOUS
10
0.42199
20
1.9134
11
0.42126
21
1.91708
0
LINE
8
BLACK
6
CONTINUOUS
10
0.42126
20
1.91708
11
0.42126
21
1.93627
0
LINE
8
BLACK
6
CONTINUOUS
10
0.42126
20
1.93627
11
0.42199
21
1.93994
0
LINE
8
BLACK
6
CONTINUOUS
10
0.42199
20
1.93994
11
0.424071
21
1.94306
0
LINE
8
BLACK
6
CONTINUOUS
10
0.424071
20
1.94306
11
0.427184
21
1.94514
0
LINE
8
BLACK
6
CONTINUOUS
10
0.427184
20
1.94514
11
0.430856
21
1.94587
0
LINE
8
BLACK
6
CONTINUOUS
10
0.430856
20
1.94587
11
0.466781
21
1.94587
0
LINE
8
BLACK
6
CONTINUOUS
10
0.466781
20
1.94587
11
0.470454
21
1.94514
0
LINE
8
BLACK
6
CONTINUOUS
10
1.78246
20
2.1725
11
1.78558
21
2.17042
0
LINE
8
BLACK
6
CONTINUOUS
10
1.78558
20
2.17042
11
1.78766
21
2.1673
0
LINE
8
BLACK
6
CONTINUOUS
10
1.78766
20
2.1673
11
1.78839
21
2.16363
0
LINE
8
BLACK
6
CONTINUOUS
10
1.78839
20
2.16363
11
1.78839
21
2.12771
0
LINE
8
BLACK
6
CONTINUOUS
10
1.78839
20
2.12771
11
1.78766
21
2.12403
0
LINE
8
BLACK
6
CONTINUOUS
10
1.78766
20
2.12403
11
1.78558
21
2.12092
0
LINE
8
BLACK
6
CONTINUOUS
10
1.78558
20
2.12092
11
1.78246
21
2.11884
0
LINE
8
BLACK
6
CONTINUOUS
10
1.78246
20
2.11884
11
1.77879
21
2.11811
0
LINE
8
BLACK
6
CONTINUOUS
10
1.77879
20
2.11811
11
1.7596
21
2.11811
0
LINE
8
BLACK
6
CONTINUOUS
10
1.7596
20
2.11811
11
1.75592
21
2.11884
0
LINE
8
BLACK
6
CONTINUOUS
10
1.75592
20
2.11884
11
1.75281
21
2.12092
0
LINE
8
BLACK
6
CONTINUOUS
10
1.75281
20
2.12092
11
1.75073
21
2.12403
0
LINE
8
BLACK
6
CONTINUOUS
10
1.75073
20
2.12403
11
1.75
21
2.12771
0
LINE
8
BLACK
6
CONTINUOUS
10
1.75
20
2.12771
11
1.75
21
2.16363
0
LINE
8
BLACK
6
CONTINUOUS
10
1.75
20
2.16363
11
1.75073
21
2.1673
0
LINE
8
BLACK
6
CONTINUOUS
10
1.75073
20
2.1673
11
1.75281
21
2.17042
0
LINE
8
BLACK
6
CONTINUOUS
10
1.75281
20
2.17042
11
1.75592
21
2.1725
0
LINE
8
BLACK
6
CONTINUOUS
10
1.75592
20
2.1725
11
1.7596
21
2.17323
0
LINE
8
BLACK
6
CONTINUOUS
10
1.7596
20
2.17323
11
1.77879
21
2.17323
0
LINE
8
BLACK
6
CONTINUOUS
10
1.77879
20
2.17323
11
1.78246
21
2.1725
0
LINE
8
BLACK
6
CONTINUOUS
10
1.70864
20
2.1725
11
1.71176
21
2.17042
0
LINE
8
BLACK
6
CONTINUOUS
10
1.71176
20
2.17042
11
1.71384
21
2.1673
0
LINE
8
BLACK
6
CONTINUOUS
10
1.71384
20
2.1673
11
1.71457
21
2.16363
0
LINE
8
BLACK
6
CONTINUOUS
10
1.71457
20
2.16363
11
1.71457
21
2.12771
0
LINE
8
BLACK
6
CONTINUOUS
10
1.71457
20
2.12771
11
1.71384
21
2.12403
0
LINE
8
BLACK
6
CONTINUOUS
10
1.71384
20
2.12403
11
1.71176
21
2.12092
0
LINE
8
BLACK
6
CONTINUOUS
10
1.71176
20
2.12092
11
1.70864
21
2.11884
0
LINE
8
BLACK
6
CONTINUOUS
10
1.70864
20
2.11884
11
1.70497
21
2.11811
0
LINE
8
BLACK
6
CONTINUOUS
10
1.70497
20
2.11811
11
1.68578
21
2.11811
0
LINE
8
BLACK
6
CONTINUOUS
10
1.68578
20
2.11811
11
1.68211
21
2.11884
0
LINE
8
BLACK
6
CONTINUOUS
10
1.68211
20
2.11884
11
1.67899
21
2.12092
0
LINE
8
BLACK
6
CONTINUOUS
10
1.67899
20
2.12092
11
1.67691
21
2.12403
0
LINE
8
BLACK
6
CONTINUOUS
10
1.67691
20
2.12403
11
1.67618
21
2.12771
0
LINE
8
BLACK
6
CONTINUOUS
10
1.67618
20
2.12771
11
1.67618
21
2.16363
0
LINE
8
BLACK
6
CONTINUOUS
10
1.67618
20
2.16363
11
1.67691
21
2.1673
0
LINE
8
BLACK
6
CONTINUOUS
10
1.67691
20
2.1673
11
1.67899
21
2.17042
0
LINE
8
BLACK
6
CONTINUOUS
10
1.67899
20
2.17042
11
1.68211
21
2.1725
0
LINE
8
BLACK
6
CONTINUOUS
10
1.68211
20
2.1725
11
1.68578
21
2.17323
0
LINE
8
BLACK
6
CONTINUOUS
10
1.68578
20
2.17323
11
1.70497
21
2.17323
0
LINE
8
BLACK
6
CONTINUOUS
10
1.70497
20
2.17323
11
1.70864
21
2.1725
0
LINE
8
BLACK
6
CONTINUOUS
10
0.960611
20
2.18431
11
0.963725
21
2.18223
0
LINE
8
BLACK
6
CONTINUOUS
10
0.963725
20
2.18223
11
0.965805
21
2.17912
0
LINE
8
BLACK
6
CONTINUOUS
10
0.965805
20
2.17912
11
0.966535
21
2.17544
0
LINE
8
BLACK
6
CONTINUOUS
10
0.966535
20
2.17544
11
0.966535
21
2.13952
0
LINE
8
BLACK
6
CONTINUOUS
10
0.966535
20
2.13952
11
0.965805
21
2.13585
0
LINE
8
BLACK
6
CONTINUOUS
10
0.965805
20
2.13585
11
0.963725
21
2.13273
0
LINE
8
BLACK
6
CONTINUOUS
10
0.963725
20
2.13273
11
0.960611
21
2.13065
0
LINE
8
BLACK
6
CONTINUOUS
10
0.960611
20
2.13065
11
0.956939
21
2.12992
0
LINE
8
BLACK
6
CONTINUOUS
10
0.956939
20
2.12992
11
0.937746
21
2.12992
0
LINE
8
BLACK
6
CONTINUOUS
10
0.937746
20
2.12992
11
0.934074
21
2.13065
0
LINE
8
BLACK
6
CONTINUOUS
10
0.934074
20
2.13065
11
0.93096
21
2.13273
0
LINE
8
BLACK
6
CONTINUOUS
10
0.93096
20
2.13273
11
0.92888
21
2.13585
0
LINE
8
BLACK
6
CONTINUOUS
10
0.92888
20
2.13585
11
0.92815
21
2.13952
0
LINE
8
BLACK
6
CONTINUOUS
10
0.92815
20
2.13952
11
0.92815
21
2.17544
0
LINE
8
BLACK
6
CONTINUOUS
10
0.92815
20
2.17544
11
0.92888
21
2.17912
0
LINE
8
BLACK
6
CONTINUOUS
10
0.92888
20
2.17912
11
0.93096
21
2.18223
0
LINE
8
BLACK
6
CONTINUOUS
10
0.93096
20
2.18223
11
0.934074
21
2.18431
0
LINE
8
BLACK
6
CONTINUOUS
10
0.934074
20
2.18431
11
0.937746
21
2.18504
0
LINE
8
BLACK
6
CONTINUOUS
10
0.937746
20
2.18504
11
0.956939
21
2.18504
0
LINE
8
BLACK
6
CONTINUOUS
10
0.956939
20
2.18504
11
0.960611
21
2.18431
0
LINE
8
BLACK
6
CONTINUOUS
10
1.03443
20
2.18431
11
1.03754
21
2.18223
0
LINE
8
BLACK
6
CONTINUOUS
10
1.03754
20
2.18223
11
1.03962
21
2.17912
0
LINE
8
BLACK
6
CONTINUOUS
10
1.03962
20
2.17912
11
1.04035
21
2.17544
0
LINE
8
BLACK
6
CONTINUOUS
10
1.04035
20
2.17544
11
1.04035
21
2.13952
0
LINE
8
BLACK
6
CONTINUOUS
10
1.04035
20
2.13952
11
1.03962
21
2.13585
0
LINE
8
BLACK
6
CONTINUOUS
10
1.03962
20
2.13585
11
1.03754
21
2.13273
0
LINE
8
BLACK
6
CONTINUOUS
10
1.03754
20
2.13273
11
1.03443
21
2.13065
0
LINE
8
BLACK
6
CONTINUOUS
10
1.03443
20
2.13065
11
1.03076
21
2.12992
0
LINE
8
BLACK
6
CONTINUOUS
10
1.03076
20
2.12992
11
1.01156
21
2.12992
0
LINE
8
BLACK
6
CONTINUOUS
10
1.01156
20
2.12992
11
1.00789
21
2.13065
0
LINE
8
BLACK
6
CONTINUOUS
10
1.00789
20
2.13065
11
1.00478
21
2.13273
0
LINE
8
BLACK
6
CONTINUOUS
10
1.00478
20
2.13273
11
1.0027
21
2.13585
0
LINE
8
BLACK
6
CONTINUOUS
10
1.0027
20
2.13585
11
1.00197
21
2.13952
0
LINE
8
BLACK
6
CONTINUOUS
10
1.00197
20
2.13952
11
1.00197
21
2.17544
0
LINE
8
BLACK
6
CONTINUOUS
10
1.00197
20
2.17544
11
1.0027
21
2.17912
0
LINE
8
BLACK
6
CONTINUOUS
10
1.0027
20
2.17912
11
1.00478
21
2.18223
0
LINE
8
BLACK
6
CONTINUOUS
10
1.00478
20
2.18223
11
1.00789
21
2.18431
0
LINE
8
BLACK
6
CONTINUOUS
10
1.00789
20
2.18431
11
1.01156
21
2.18504
0
LINE
8
BLACK
6
CONTINUOUS
10
1.01156
20
2.18504
11
1.03076
21
2.18504
0
LINE
8
BLACK
6
CONTINUOUS
10
1.03076
20
2.18504
11
1.03443
21
2.18431
0
LINE
8
BLACK
6
CONTINUOUS
10
1.61811
20
2.13287
11
1.5748
21
2.13287
0
LINE
8
BLACK
6
CONTINUOUS
10
1.5748
20
2.13287
11
1.5748
21
2.14862
0
LINE
8
BLACK
6
CONTINUOUS
10
1.5748
20
2.14862
11
1.61811
21
2.14862
0
LINE
8
BLACK
6
CONTINUOUS
10
1.61811
20
2.14862
11
1.61811
21
2.13287
0
LINE
8
BLACK
6
CONTINUOUS
10
1.44882
20
2.13287
11
1.40551
21
2.13287
0
LINE
8
BLACK
6
CONTINUOUS
10
1.40551
20
2.13287
11
1.40551
21
2.14862
0
LINE
8
BLACK
6
CONTINUOUS
10
1.40551
20
2.14862
11
1.44882
21
2.14862
0
LINE
8
BLACK
6
CONTINUOUS
10
1.44882
20
2.14862
11
1.44882
21
2.13287
0
LINE
8
BLACK
6
CONTINUOUS
10
1.61811
20
2.15846
11
1.5748
21
2.15846
0
LINE
8
BLACK
6
CONTINUOUS
10
1.5748
20
2.15846
11
1.5748
21
2.17421
0
LINE
8
BLACK
6
CONTINUOUS
10
1.5748
20
2.17421
11
1.61811
21
2.17421
0
LINE
8
BLACK
6
CONTINUOUS
10
1.61811
20
2.17421
11
1.61811
21
2.15846
0
LINE
8
BLACK
6
CONTINUOUS
10
1.44882
20
2.15846
11
1.40551
21
2.15846
0
LINE
8
BLACK
6
CONTINUOUS
10
1.40551
20
2.15846
11
1.40551
21
2.17421
0
LINE
8
BLACK
6
CONTINUOUS
10
1.40551
20
2.17421
11
1.44882
21
2.17421
0
LINE
8
BLACK
6
CONTINUOUS
10
1.44882
20
2.17421
11
1.44882
21
2.15846
0
LINE
8
BLACK
6
CONTINUOUS
10
1.61811
20
2.18406
11
1.5748
21
2.18406
0
LINE
8
BLACK
6
CONTINUOUS
10
1.5748
20
2.18406
11
1.5748
21
2.1998
0
LINE
8
BLACK
6
CONTINUOUS
10
1.5748
20
2.1998
11
1.61811
21
2.1998
0
LINE
8
BLACK
6
CONTINUOUS
10
1.61811
20
2.1998
11
1.61811
21
2.18406
0
LINE
8
BLACK
6
CONTINUOUS
10
1.44882
20
2.18406
11
1.40551
21
2.18406
0
LINE
8
BLACK
6
CONTINUOUS
10
1.40551
20
2.18406
11
1.40551
21
2.1998
0
LINE
8
BLACK
6
CONTINUOUS
10
1.40551
20
2.1998
11
1.44882
21
2.1998
0
LINE
8
BLACK
6
CONTINUOUS
10
1.44882
20
2.1998
11
1.44882
21
2.18406
0
LINE
8
BLACK
6
CONTINUOUS
10
1.78246
20
2.25321
11
1.78558
21
2.25113
0
LINE
8
BLACK
6
CONTINUOUS
10
1.78558
20
2.25113
11
1.78766
21
2.24801
0
LINE
8
BLACK
6
CONTINUOUS
10
1.78766
20
2.24801
11
1.78839
21
2.24434
0
LINE
8
BLACK
6
CONTINUOUS
10
1.78839
20
2.24434
11
1.78839
21
2.20842
0
LINE
8
BLACK
6
CONTINUOUS
10
1.78839
20
2.20842
11
1.78766
21
2.20474
0
LINE
8
BLACK
6
CONTINUOUS
10
1.78766
20
2.20474
11
1.78558
21
2.20163
0
LINE
8
BLACK
6
CONTINUOUS
10
1.78558
20
2.20163
11
1.78246
21
2.19955
0
LINE
8
BLACK
6
CONTINUOUS
10
1.78246
20
2.19955
11
1.77879
21
2.19882
0
LINE
8
BLACK
6
CONTINUOUS
10
1.77879
20
2.19882
11
1.7596
21
2.19882
0
LINE
8
BLACK
6
CONTINUOUS
10
1.7596
20
2.19882
11
1.75592
21
2.19955
0
LINE
8
BLACK
6
CONTINUOUS
10
1.75592
20
2.19955
11
1.75281
21
2.20163
0
LINE
8
BLACK
6
CONTINUOUS
10
1.75281
20
2.20163
11
1.75073
21
2.20474
0
LINE
8
BLACK
6
CONTINUOUS
10
1.75073
20
2.20474
11
1.75
21
2.20842
0
LINE
8
BLACK
6
CONTINUOUS
10
1.75
20
2.20842
11
1.75
21
2.24434
0
LINE
8
BLACK
6
CONTINUOUS
10
1.75
20
2.24434
11
1.75073
21
2.24801
0
LINE
8
BLACK
6
CONTINUOUS
10
1.75073
20
2.24801
11
1.75281
21
2.25113
0
LINE
8
BLACK
6
CONTINUOUS
10
1.75281
20
2.25113
11
1.75592
21
2.25321
0
LINE
8
BLACK
6
CONTINUOUS
10
1.75592
20
2.25321
11
1.7596
21
2.25394
0
LINE
8
BLACK
6
CONTINUOUS
10
1.7596
20
2.25394
11
1.77879
21
2.25394
0
LINE
8
BLACK
6
CONTINUOUS
10
1.77879
20
2.25394
11
1.78246
21
2.25321
0
LINE
8
BLACK
6
CONTINUOUS
10
1.70864
20
2.25321
11
1.71176
21
2.25113
0
LINE
8
BLACK
6
CONTINUOUS
10
1.71176
20
2.25113
11
1.71384
21
2.24801
0
LINE
8
BLACK
6
CONTINUOUS
10
1.71384
20
2.24801
11
1.71457
21
2.24434
0
LINE
8
BLACK
6
CONTINUOUS
10
1.71457
20
2.24434
11
1.71457
21
2.20842
0
LINE
8
BLACK
6
CONTINUOUS
10
1.71457
20
2.20842
11
1.71384
21
2.20474
0
LINE
8
BLACK
6
CONTINUOUS
10
1.71384
20
2.20474
11
1.71176
21
2.20163
0
LINE
8
BLACK
6
CONTINUOUS
10
1.71176
20
2.20163
11
1.70864
21
2.19955
0
LINE
8
BLACK
6
CONTINUOUS
10
1.70864
20
2.19955
11
1.70497
21
2.19882
0
LINE
8
BLACK
6
CONTINUOUS
10
1.70497
20
2.19882
11
1.68578
21
2.19882
0
LINE
8
BLACK
6
CONTINUOUS
10
1.68578
20
2.19882
11
1.68211
21
2.19955
0
LINE
8
BLACK
6
CONTINUOUS
10
1.68211
20
2.19955
11
1.67899
21
2.20163
0
LINE
8
BLACK
6
CONTINUOUS
10
1.67899
20
2.20163
11
1.67691
21
2.20474
0
LINE
8
BLACK
6
CONTINUOUS
10
1.67691
20
2.20474
11
1.67618
21
2.20842
0
LINE
8
BLACK
6
CONTINUOUS
10
1.67618
20
2.20842
11
1.67618
21
2.24434
0
LINE
8
BLACK
6
CONTINUOUS
10
1.67618
20
2.24434
11
1.67691
21
2.24801
0
LINE
8
BLACK
6
CONTINUOUS
10
1.67691
20
2.24801
11
1.67899
21
2.25113
0
LINE
8
BLACK
6
CONTINUOUS
10
1.67899
20
2.25113
11
1.68211
21
2.25321
0
LINE
8
BLACK
6
CONTINUOUS
10
1.68211
20
2.25321
11
1.68578
21
2.25394
0
LINE
8
BLACK
6
CONTINUOUS
10
1.68578
20
2.25394
11
1.70497
21
2.25394
0
LINE
8
BLACK
6
CONTINUOUS
10
1.70497
20
2.25394
11
1.70864
21
2.25321
0
LINE
8
BLACK
6
CONTINUOUS
10
1.44882
20
2.20965
11
1.40551
21
2.20965
0
LINE
8
BLACK
6
CONTINUOUS
10
1.40551
20
2.20965
11
1.40551
21
2.22539
0
LINE
8
BLACK
6
CONTINUOUS
10
1.40551
20
2.22539
11
1.44882
21
2.22539
0
LINE
8
BLACK
6
CONTINUOUS
10
1.44882
20
2.22539
11
1.44882
21
2.20965
0
LINE
8
BLACK
6
CONTINUOUS
10
1.61811
20
2.20965
11
1.5748
21
2.20965
0
LINE
8
BLACK
6
CONTINUOUS
10
1.5748
20
2.20965
11
1.5748
21
2.22539
0
LINE
8
BLACK
6
CONTINUOUS
10
1.5748
20
2.22539
11
1.61811
21
2.22539
0
LINE
8
BLACK
6
CONTINUOUS
10
1.61811
20
2.22539
11
1.61811
21
2.20965
0
LINE
8
BLACK
6
CONTINUOUS
10
0.980315
20
2.2126
11
0.929134
21
2.2126
0
LINE
8
BLACK
6
CONTINUOUS
10
0.929134
20
2.2126
11
0.929134
21
2.27953
0
LINE
8
BLACK
6
CONTINUOUS
10
0.929134
20
2.27953
11
0.980315
21
2.27953
0
LINE
8
BLACK
6
CONTINUOUS
10
0.980315
20
2.27953
11
0.980315
21
2.2126
0
LINE
8
BLACK
6
CONTINUOUS
10
1.11811
20
2.2126
11
1.06693
21
2.2126
0
LINE
8
BLACK
6
CONTINUOUS
10
1.06693
20
2.2126
11
1.06693
21
2.27953
0
LINE
8
BLACK
6
CONTINUOUS
10
1.06693
20
2.27953
11
1.11811
21
2.27953
0
LINE
8
BLACK
6
CONTINUOUS
10
1.11811
20
2.27953
11
1.11811
21
2.2126
0
LINE
8
BLACK
6
CONTINUOUS
10
1.249
20
2.27289
11
1.25211
21
2.27081
0
LINE
8
BLACK
6
CONTINUOUS
10
1.25211
20
2.27081
11
1.25419
21
2.2677
0
LINE
8
BLACK
6
CONTINUOUS
10
1.25419
20
2.2677
11
1.25492
21
2.26403
0
LINE
8
BLACK
6
CONTINUOUS
10
1.25492
20
2.26403
11
1.25492
21
2.2281
0
LINE
8
BLACK
6
CONTINUOUS
10
1.25492
20
2.2281
11
1.25419
21
2.22443
0
LINE
8
BLACK
6
CONTINUOUS
10
1.25419
20
2.22443
11
1.25211
21
2.22131
0
LINE
8
BLACK
6
CONTINUOUS
10
1.25211
20
2.22131
11
1.249
21
2.21923
0
LINE
8
BLACK
6
CONTINUOUS
10
1.249
20
2.21923
11
1.24532
21
2.2185
0
LINE
8
BLACK
6
CONTINUOUS
10
1.24532
20
2.2185
11
1.22613
21
2.2185
0
LINE
8
BLACK
6
CONTINUOUS
10
1.22613
20
2.2185
11
1.22246
21
2.21923
0
LINE
8
BLACK
6
CONTINUOUS
10
1.22246
20
2.21923
11
1.21935
21
2.22131
0
LINE
8
BLACK
6
CONTINUOUS
10
1.21935
20
2.22131
11
1.21727
21
2.22443
0
LINE
8
BLACK
6
CONTINUOUS
10
1.21727
20
2.22443
11
1.21654
21
2.2281
0
LINE
8
BLACK
6
CONTINUOUS
10
1.21654
20
2.2281
11
1.21654
21
2.26403
0
LINE
8
BLACK
6
CONTINUOUS
10
1.21654
20
2.26403
11
1.21727
21
2.2677
0
LINE
8
BLACK
6
CONTINUOUS
10
1.21727
20
2.2677
11
1.21935
21
2.27081
0
LINE
8
BLACK
6
CONTINUOUS
10
1.21935
20
2.27081
11
1.22246
21
2.27289
0
LINE
8
BLACK
6
CONTINUOUS
10
1.22246
20
2.27289
11
1.22613
21
2.27362
0
LINE
8
BLACK
6
CONTINUOUS
10
1.22613
20
2.27362
11
1.24532
21
2.27362
0
LINE
8
BLACK
6
CONTINUOUS
10
1.24532
20
2.27362
11
1.249
21
2.27289
0
LINE
8
BLACK
6
CONTINUOUS
10
1.17518
20
2.27289
11
1.17829
21
2.27081
0
LINE
8
BLACK
6
CONTINUOUS
10
1.17829
20
2.27081
11
1.18037
21
2.2677
0
LINE
8
BLACK
6
CONTINUOUS
10
1.18037
20
2.2677
11
1.1811
21
2.26403
0
LINE
8
BLACK
6
CONTINUOUS
10
1.1811
20
2.26403
11
1.1811
21
2.2281
0
LINE
8
BLACK
6
CONTINUOUS
10
1.1811
20
2.2281
11
1.18037
21
2.22443
0
LINE
8
BLACK
6
CONTINUOUS
10
1.18037
20
2.22443
11
1.17829
21
2.22131
0
LINE
8
BLACK
6
CONTINUOUS
10
1.17829
20
2.22131
11
1.17518
21
2.21923
0
LINE
8
BLACK
6
CONTINUOUS
10
1.17518
20
2.21923
11
1.17151
21
2.2185
0
LINE
8
BLACK
6
CONTINUOUS
10
1.17151
20
2.2185
11
1.15231
21
2.2185
0
LINE
8
BLACK
6
CONTINUOUS
10
1.15231
20
2.2185
11
1.14864
21
2.21923
0
LINE
8
BLACK
6
CONTINUOUS
10
1.14864
20
2.21923
11
1.14553
21
2.22131
0
LINE
8
BLACK
6
CONTINUOUS
10
1.14553
20
2.22131
11
1.14345
21
2.22443
0
LINE
8
BLACK
6
CONTINUOUS
10
1.14345
20
2.22443
11
1.14272
21
2.2281
0
LINE
8
BLACK
6
CONTINUOUS
10
1.14272
20
2.2281
11
1.14272
21
2.26403
0
LINE
8
BLACK
6
CONTINUOUS
10
1.14272
20
2.26403
11
1.14345
21
2.2677
0
LINE
8
BLACK
6
CONTINUOUS
10
1.14345
20
2.2677
11
1.14553
21
2.27081
0
LINE
8
BLACK
6
CONTINUOUS
10
1.14553
20
2.27081
11
1.14864
21
2.27289
0
LINE
8
BLACK
6
CONTINUOUS
10
1.14864
20
2.27289
11
1.15231
21
2.27362
0
LINE
8
BLACK
6
CONTINUOUS
10
1.15231
20
2.27362
11
1.17151
21
2.27362
0
LINE
8
BLACK
6
CONTINUOUS
10
1.17151
20
2.27362
11
1.17518
21
2.27289
  0
ENDSEC
  0
EOF
