  0
SECTION
  2
HEADER
  9
$ANGBASE
  50
0.0
  9
$ANGDIR
  70
1
  9
$MEASUREMENT
  70
0
  0
ENDSEC
  0
SECTION
  2
TABLES
  0
TABLE
  2
LTYPE
  70
4
  0
LTYPE
  5
40F
  2
CONTINUOUS
  70
0
  3
Solid line
  72
65
  73
0
  40
0.0
  0
LTYPE
  5
410
  2
DASHDOT
 70
0
  3
Dash Dot ____ _ ____ _
 72
65
 73
4
 40
2.0
 49
1.25
 49
-0.25
 49
0.25
 49
-0.25
  0
LTYPE
  5
411
  2
DASHED
 70
0
  3
Dashed __ __ __ __ __
 72
65
 73
2
 40
0.75
 49
0.5
 49
-0.25
  0
LTYPE
  5
43B
  2
DOTTED
 70
0
  3
Dotted .  .  .  .
 72
65
 73
2
 40
0.2
 49
0.0
 49
-0.2
  0
ENDTAB
  0
TABLE
  2
STYLE
  70
4
  0
STYLE
  2
KICAD
  70
0
  40
0
  41
1
  42
1
  50
0
  71
0
  3
isocp.shx
  0
STYLE
  2
KICADB
  70
0
  40
0
  41
1
  42
1
  50
0
  71
0
  3
isocp.shx
  0
STYLE
  2
KICADI
  70
0
  40
0
  41
1
  42
1
  50
15
  71
0
  3
isocp.shx
  0
STYLE
  2
KICADBI
  70
0
  40
0
  41
1
  42
1
  50
15
  71
0
  3
isocp.shx
  0
ENDTAB
  0
TABLE
  2
LAYER
  70
1
  0
LAYER
  2
BLACK
  70
0
  62
7
  6
CONTINUOUS
  0
ENDTAB
  0
ENDSEC
  0
SECTION
  2
ENTITIES
0
LINE
8
BLACK
6
CONTINUOUS
10
0.0086502
20
0.117793
11
0.0221317
21
0.116018
0
LINE
8
BLACK
6
CONTINUOUS
10
0.0221317
20
0.116018
11
0.0353198
21
0.112706
0
LINE
8
BLACK
6
CONTINUOUS
10
0.0353198
20
0.112706
11
0.0480398
21
0.107899
0
LINE
8
BLACK
6
CONTINUOUS
10
0.0480398
20
0.107899
11
0.060123
21
0.101662
0
LINE
8
BLACK
6
CONTINUOUS
10
0.060123
20
0.101662
11
0.0714093
21
0.0940783
0
LINE
8
BLACK
6
CONTINUOUS
10
0.0714093
20
0.0940783
11
0.0817492
21
0.0852473
0
LINE
8
BLACK
6
CONTINUOUS
10
0.0817492
20
0.0852473
11
0.0910055
21
0.0752863
0
LINE
8
BLACK
6
CONTINUOUS
10
0.0910055
20
0.0752863
11
0.0990556
21
0.0643274
0
LINE
8
BLACK
6
CONTINUOUS
10
0.0990556
20
0.0643274
11
0.105793
21
0.052516
0
LINE
8
BLACK
6
CONTINUOUS
10
0.105793
20
0.052516
11
0.111128
21
0.0400084
0
LINE
8
BLACK
6
CONTINUOUS
10
0.111128
20
0.0400084
11
0.11499
21
0.0269706
0
LINE
8
BLACK
6
CONTINUOUS
10
0.11499
20
0.0269706
11
0.117327
21
0.0135752
0
LINE
8
BLACK
6
CONTINUOUS
10
0.117327
20
0.0135752
11
0.11811
21
0
0
LINE
8
BLACK
6
CONTINUOUS
10
0.11811
20
0
11
0.117877
21
-0.00741622
0
LINE
8
BLACK
6
CONTINUOUS
10
0.117877
20
-0.00741622
11
0.116244
21
-0.0209155
0
LINE
8
BLACK
6
CONTINUOUS
10
0.116244
20
-0.0209155
11
0.113069
21
-0.0341376
0
LINE
8
BLACK
6
CONTINUOUS
10
0.113069
20
-0.0341376
11
0.108396
21
-0.0469072
0
LINE
8
BLACK
6
CONTINUOUS
10
0.108396
20
-0.0469072
11
0.102286
21
-0.0590551
0
LINE
8
BLACK
6
CONTINUOUS
10
0.102286
20
-0.0590551
11
0.0948209
21
-0.0704203
0
LINE
8
BLACK
6
CONTINUOUS
10
0.0948209
20
-0.0704203
11
0.0860987
21
-0.080852
0
LINE
8
BLACK
6
CONTINUOUS
10
0.0860987
20
-0.080852
11
0.0762352
21
-0.0902121
0
LINE
8
BLACK
6
CONTINUOUS
10
0.0762352
20
-0.0902121
11
0.0653612
21
-0.0983765
0
LINE
8
BLACK
6
CONTINUOUS
10
0.0653612
20
-0.0983765
11
0.0536209
21
-0.105237
0
LINE
8
BLACK
6
CONTINUOUS
10
0.0536209
20
-0.105237
11
0.0411699
21
-0.110703
0
LINE
8
BLACK
6
CONTINUOUS
10
0.0411699
20
-0.110703
11
0.0281732
21
-0.114701
0
LINE
8
BLACK
6
CONTINUOUS
10
0.0281732
20
-0.114701
11
0.0148031
21
-0.117179
0
LINE
8
BLACK
6
CONTINUOUS
10
0.0148031
20
-0.117179
11
0.00123681
21
-0.118104
0
LINE
8
BLACK
6
CONTINUOUS
10
0.00123681
20
-0.118104
11
-0.0123459
21
-0.117463
0
LINE
8
BLACK
6
CONTINUOUS
10
-0.0123459
20
-0.117463
11
-0.025765
21
-0.115266
0
LINE
8
BLACK
6
CONTINUOUS
10
-0.025765
20
-0.115266
11
-0.0388425
21
-0.111541
0
LINE
8
BLACK
6
CONTINUOUS
10
-0.0388425
20
-0.111541
11
-0.0514052
21
-0.106337
0
LINE
8
BLACK
6
CONTINUOUS
10
-0.0514052
20
-0.106337
11
-0.0632866
21
-0.0997238
0
LINE
8
BLACK
6
CONTINUOUS
10
-0.0632866
20
-0.0997238
11
-0.0743292
21
-0.0917889
0
LINE
8
BLACK
6
CONTINUOUS
10
-0.0743292
20
-0.0917889
11
-0.0843865
21
-0.0826374
0
LINE
8
BLACK
6
CONTINUOUS
10
-0.0843865
20
-0.0826374
11
-0.0933254
21
-0.0723906
0
LINE
8
BLACK
6
CONTINUOUS
10
-0.0933254
20
-0.0723906
11
-0.101027
21
-0.0611843
0
LINE
8
BLACK
6
CONTINUOUS
10
-0.101027
20
-0.0611843
11
-0.10739
21
-0.049167
0
LINE
8
BLACK
6
CONTINUOUS
10
-0.10739
20
-0.049167
11
-0.11233
21
-0.0364981
0
LINE
8
BLACK
6
CONTINUOUS
10
-0.11233
20
-0.0364981
11
-0.11578
21
-0.0233454
0
LINE
8
BLACK
6
CONTINUOUS
10
-0.11578
20
-0.0233454
11
-0.117696
21
-0.00988323
0
LINE
8
BLACK
6
CONTINUOUS
10
-0.117696
20
-0.00988323
11
-0.118052
21
0.00370992
0
LINE
8
BLACK
6
CONTINUOUS
10
-0.118052
20
0.00370992
11
-0.116843
21
0.0172539
0
LINE
8
BLACK
6
CONTINUOUS
10
-0.116843
20
0.0172539
11
-0.114086
21
0.0305692
0
LINE
8
BLACK
6
CONTINUOUS
10
-0.114086
20
0.0305692
11
-0.109816
21
0.0434793
0
LINE
8
BLACK
6
CONTINUOUS
10
-0.109816
20
0.0434793
11
-0.104091
21
0.0558131
0
LINE
8
BLACK
6
CONTINUOUS
10
-0.104091
20
0.0558131
11
-0.0969861
21
0.0674071
0
LINE
8
BLACK
6
CONTINUOUS
10
-0.0969861
20
0.0674071
11
-0.0885958
21
0.0781077
0
LINE
8
BLACK
6
CONTINUOUS
10
-0.0885958
20
0.0781077
11
-0.0790312
21
0.087773
0
LINE
8
BLACK
6
CONTINUOUS
10
-0.0790312
20
0.087773
11
-0.0684191
21
0.0962749
0
LINE
8
BLACK
6
CONTINUOUS
10
-0.0684191
20
0.0962749
11
-0.0569
21
0.103501
0
LINE
8
BLACK
6
CONTINUOUS
10
-0.0569
20
0.103501
11
-0.0446269
21
0.109355
0
LINE
8
BLACK
6
CONTINUOUS
10
-0.0446269
20
0.109355
11
-0.0317622
21
0.113759
0
LINE
8
BLACK
6
CONTINUOUS
10
-0.0317622
20
0.113759
11
-0.0184765
21
0.116656
0
LINE
8
BLACK
6
CONTINUOUS
10
-0.0184765
20
0.116656
11
-0.00494594
21
0.118007
0
LINE
8
BLACK
6
CONTINUOUS
10
-0.00494594
20
0.118007
11
0.0086502
21
0.117793
0
LINE
8
BLACK
6
CONTINUOUS
10
2.00865
20
0.117793
11
2.02213
21
0.116018
0
LINE
8
BLACK
6
CONTINUOUS
10
2.02213
20
0.116018
11
2.03532
21
0.112706
0
LINE
8
BLACK
6
CONTINUOUS
10
2.03532
20
0.112706
11
2.04804
21
0.107899
0
LINE
8
BLACK
6
CONTINUOUS
10
2.04804
20
0.107899
11
2.06012
21
0.101662
0
LINE
8
BLACK
6
CONTINUOUS
10
2.06012
20
0.101662
11
2.07141
21
0.0940783
0
LINE
8
BLACK
6
CONTINUOUS
10
2.07141
20
0.0940783
11
2.08175
21
0.0852473
0
LINE
8
BLACK
6
CONTINUOUS
10
2.08175
20
0.0852473
11
2.09101
21
0.0752863
0
LINE
8
BLACK
6
CONTINUOUS
10
2.09101
20
0.0752863
11
2.09906
21
0.0643274
0
LINE
8
BLACK
6
CONTINUOUS
10
2.09906
20
0.0643274
11
2.10579
21
0.052516
0
LINE
8
BLACK
6
CONTINUOUS
10
2.10579
20
0.052516
11
2.11113
21
0.0400084
0
LINE
8
BLACK
6
CONTINUOUS
10
2.11113
20
0.0400084
11
2.11499
21
0.0269706
0
LINE
8
BLACK
6
CONTINUOUS
10
2.11499
20
0.0269706
11
2.11733
21
0.0135752
0
LINE
8
BLACK
6
CONTINUOUS
10
2.11733
20
0.0135752
11
2.11811
21
0
0
LINE
8
BLACK
6
CONTINUOUS
10
2.11811
20
0
11
2.11788
21
-0.00741622
0
LINE
8
BLACK
6
CONTINUOUS
10
2.11788
20
-0.00741622
11
2.11624
21
-0.0209155
0
LINE
8
BLACK
6
CONTINUOUS
10
2.11624
20
-0.0209155
11
2.11307
21
-0.0341376
0
LINE
8
BLACK
6
CONTINUOUS
10
2.11307
20
-0.0341376
11
2.1084
21
-0.0469072
0
LINE
8
BLACK
6
CONTINUOUS
10
2.1084
20
-0.0469072
11
2.10229
21
-0.0590551
0
LINE
8
BLACK
6
CONTINUOUS
10
2.10229
20
-0.0590551
11
2.09482
21
-0.0704203
0
LINE
8
BLACK
6
CONTINUOUS
10
2.09482
20
-0.0704203
11
2.0861
21
-0.080852
0
LINE
8
BLACK
6
CONTINUOUS
10
2.0861
20
-0.080852
11
2.07624
21
-0.0902121
0
LINE
8
BLACK
6
CONTINUOUS
10
2.07624
20
-0.0902121
11
2.06536
21
-0.0983765
0
LINE
8
BLACK
6
CONTINUOUS
10
2.06536
20
-0.0983765
11
2.05362
21
-0.105237
0
LINE
8
BLACK
6
CONTINUOUS
10
2.05362
20
-0.105237
11
2.04117
21
-0.110703
0
LINE
8
BLACK
6
CONTINUOUS
10
2.04117
20
-0.110703
11
2.02817
21
-0.114701
0
LINE
8
BLACK
6
CONTINUOUS
10
2.02817
20
-0.114701
11
2.0148
21
-0.117179
0
LINE
8
BLACK
6
CONTINUOUS
10
2.0148
20
-0.117179
11
2.00124
21
-0.118104
0
LINE
8
BLACK
6
CONTINUOUS
10
2.00124
20
-0.118104
11
1.98765
21
-0.117463
0
LINE
8
BLACK
6
CONTINUOUS
10
1.98765
20
-0.117463
11
1.97424
21
-0.115266
0
LINE
8
BLACK
6
CONTINUOUS
10
1.97424
20
-0.115266
11
1.96116
21
-0.111541
0
LINE
8
BLACK
6
CONTINUOUS
10
1.96116
20
-0.111541
11
1.94859
21
-0.106337
0
LINE
8
BLACK
6
CONTINUOUS
10
1.94859
20
-0.106337
11
1.93671
21
-0.0997238
0
LINE
8
BLACK
6
CONTINUOUS
10
1.93671
20
-0.0997238
11
1.92567
21
-0.0917889
0
LINE
8
BLACK
6
CONTINUOUS
10
1.92567
20
-0.0917889
11
1.91561
21
-0.0826374
0
LINE
8
BLACK
6
CONTINUOUS
10
1.91561
20
-0.0826374
11
1.90667
21
-0.0723906
0
LINE
8
BLACK
6
CONTINUOUS
10
1.90667
20
-0.0723906
11
1.89897
21
-0.0611843
0
LINE
8
BLACK
6
CONTINUOUS
10
1.89897
20
-0.0611843
11
1.89261
21
-0.049167
0
LINE
8
BLACK
6
CONTINUOUS
10
1.89261
20
-0.049167
11
1.88767
21
-0.0364981
0
LINE
8
BLACK
6
CONTINUOUS
10
1.88767
20
-0.0364981
11
1.88422
21
-0.0233454
0
LINE
8
BLACK
6
CONTINUOUS
10
1.88422
20
-0.0233454
11
1.8823
21
-0.00988323
0
LINE
8
BLACK
6
CONTINUOUS
10
1.8823
20
-0.00988323
11
1.88195
21
0.00370992
0
LINE
8
BLACK
6
CONTINUOUS
10
1.88195
20
0.00370992
11
1.88316
21
0.0172539
0
LINE
8
BLACK
6
CONTINUOUS
10
1.88316
20
0.0172539
11
1.88591
21
0.0305692
0
LINE
8
BLACK
6
CONTINUOUS
10
1.88591
20
0.0305692
11
1.89018
21
0.0434793
0
LINE
8
BLACK
6
CONTINUOUS
10
1.89018
20
0.0434793
11
1.89591
21
0.0558131
0
LINE
8
BLACK
6
CONTINUOUS
10
1.89591
20
0.0558131
11
1.90301
21
0.0674071
0
LINE
8
BLACK
6
CONTINUOUS
10
1.90301
20
0.0674071
11
1.9114
21
0.0781077
0
LINE
8
BLACK
6
CONTINUOUS
10
1.9114
20
0.0781077
11
1.92097
21
0.087773
0
LINE
8
BLACK
6
CONTINUOUS
10
1.92097
20
0.087773
11
1.93158
21
0.0962749
0
LINE
8
BLACK
6
CONTINUOUS
10
1.93158
20
0.0962749
11
1.9431
21
0.103501
0
LINE
8
BLACK
6
CONTINUOUS
10
1.9431
20
0.103501
11
1.95537
21
0.109355
0
LINE
8
BLACK
6
CONTINUOUS
10
1.95537
20
0.109355
11
1.96824
21
0.113759
0
LINE
8
BLACK
6
CONTINUOUS
10
1.96824
20
0.113759
11
1.98152
21
0.116656
0
LINE
8
BLACK
6
CONTINUOUS
10
1.98152
20
0.116656
11
1.99505
21
0.118007
0
LINE
8
BLACK
6
CONTINUOUS
10
1.99505
20
0.118007
11
2.00865
21
0.117793
0
LINE
8
BLACK
6
CONTINUOUS
10
0.276063
20
0.304646
11
0.216063
21
0.304646
0
LINE
8
BLACK
6
CONTINUOUS
10
0.216063
20
0.304646
11
0.216063
21
0.364646
0
LINE
8
BLACK
6
CONTINUOUS
10
0.216063
20
0.364646
11
0.276063
21
0.364646
0
LINE
8
BLACK
6
CONTINUOUS
10
0.276063
20
0.364646
11
0.276063
21
0.304646
0
LINE
8
BLACK
6
CONTINUOUS
10
0.176063
20
0.304646
11
0.116063
21
0.304646
0
LINE
8
BLACK
6
CONTINUOUS
10
0.116063
20
0.304646
11
0.116063
21
0.364646
0
LINE
8
BLACK
6
CONTINUOUS
10
0.116063
20
0.364646
11
0.176063
21
0.364646
0
LINE
8
BLACK
6
CONTINUOUS
10
0.176063
20
0.364646
11
0.176063
21
0.304646
0
LINE
8
BLACK
6
CONTINUOUS
10
0.076063
20
0.304646
11
0.016063
21
0.304646
0
LINE
8
BLACK
6
CONTINUOUS
10
0.016063
20
0.304646
11
0.016063
21
0.364646
0
LINE
8
BLACK
6
CONTINUOUS
10
0.016063
20
0.364646
11
0.076063
21
0.364646
0
LINE
8
BLACK
6
CONTINUOUS
10
0.076063
20
0.364646
11
0.076063
21
0.304646
0
LINE
8
BLACK
6
CONTINUOUS
10
1.77606
20
0.304646
11
1.71606
21
0.304646
0
LINE
8
BLACK
6
CONTINUOUS
10
1.71606
20
0.304646
11
1.71606
21
0.364646
0
LINE
8
BLACK
6
CONTINUOUS
10
1.71606
20
0.364646
11
1.77606
21
0.364646
0
LINE
8
BLACK
6
CONTINUOUS
10
1.77606
20
0.364646
11
1.77606
21
0.304646
0
LINE
8
BLACK
6
CONTINUOUS
10
1.87606
20
0.304646
11
1.81606
21
0.304646
0
LINE
8
BLACK
6
CONTINUOUS
10
1.81606
20
0.304646
11
1.81606
21
0.364646
0
LINE
8
BLACK
6
CONTINUOUS
10
1.81606
20
0.364646
11
1.87606
21
0.364646
0
LINE
8
BLACK
6
CONTINUOUS
10
1.87606
20
0.364646
11
1.87606
21
0.304646
0
LINE
8
BLACK
6
CONTINUOUS
10
1.97606
20
0.304646
11
1.91606
21
0.304646
0
LINE
8
BLACK
6
CONTINUOUS
10
1.91606
20
0.304646
11
1.91606
21
0.364646
0
LINE
8
BLACK
6
CONTINUOUS
10
1.91606
20
0.364646
11
1.97606
21
0.364646
0
LINE
8
BLACK
6
CONTINUOUS
10
1.97606
20
0.364646
11
1.97606
21
0.304646
0
LINE
8
BLACK
6
CONTINUOUS
10
0.797226
20
0.938246
11
0.800339
21
0.936166
0
LINE
8
BLACK
6
CONTINUOUS
10
0.800339
20
0.936166
11
0.802419
21
0.933052
0
LINE
8
BLACK
6
CONTINUOUS
10
0.802419
20
0.933052
11
0.80315
21
0.92938
0
LINE
8
BLACK
6
CONTINUOUS
10
0.80315
20
0.92938
11
0.80315
21
0.910187
0
LINE
8
BLACK
6
CONTINUOUS
10
0.80315
20
0.910187
11
0.802419
21
0.906515
0
LINE
8
BLACK
6
CONTINUOUS
10
0.802419
20
0.906515
11
0.800339
21
0.903401
0
LINE
8
BLACK
6
CONTINUOUS
10
0.800339
20
0.903401
11
0.797226
21
0.901321
0
LINE
8
BLACK
6
CONTINUOUS
10
0.797226
20
0.901321
11
0.793553
21
0.900591
0
LINE
8
BLACK
6
CONTINUOUS
10
0.793553
20
0.900591
11
0.757628
21
0.900591
0
LINE
8
BLACK
6
CONTINUOUS
10
0.757628
20
0.900591
11
0.753956
21
0.901321
0
LINE
8
BLACK
6
CONTINUOUS
10
0.753956
20
0.901321
11
0.750842
21
0.903401
0
LINE
8
BLACK
6
CONTINUOUS
10
0.750842
20
0.903401
11
0.748762
21
0.906515
0
LINE
8
BLACK
6
CONTINUOUS
10
0.748762
20
0.906515
11
0.748031
21
0.910187
0
LINE
8
BLACK
6
CONTINUOUS
10
0.748031
20
0.910187
11
0.748031
21
0.92938
0
LINE
8
BLACK
6
CONTINUOUS
10
0.748031
20
0.92938
11
0.748762
21
0.933052
0
LINE
8
BLACK
6
CONTINUOUS
10
0.748762
20
0.933052
11
0.750842
21
0.936166
0
LINE
8
BLACK
6
CONTINUOUS
10
0.750842
20
0.936166
11
0.753956
21
0.938246
0
LINE
8
BLACK
6
CONTINUOUS
10
0.753956
20
0.938246
11
0.757628
21
0.938976
0
LINE
8
BLACK
6
CONTINUOUS
10
0.757628
20
0.938976
11
0.793553
21
0.938976
0
LINE
8
BLACK
6
CONTINUOUS
10
0.793553
20
0.938976
11
0.797226
21
0.938246
0
LINE
8
BLACK
6
CONTINUOUS
10
1.26179
20
0.953994
11
1.26491
21
0.951914
0
LINE
8
BLACK
6
CONTINUOUS
10
1.26491
20
0.951914
11
1.26699
21
0.9488
0
LINE
8
BLACK
6
CONTINUOUS
10
1.26699
20
0.9488
11
1.26772
21
0.945128
0
LINE
8
BLACK
6
CONTINUOUS
10
1.26772
20
0.945128
11
1.26772
21
0.925935
0
LINE
8
BLACK
6
CONTINUOUS
10
1.26772
20
0.925935
11
1.26699
21
0.922263
0
LINE
8
BLACK
6
CONTINUOUS
10
1.26699
20
0.922263
11
1.26491
21
0.919149
0
LINE
8
BLACK
6
CONTINUOUS
10
1.26491
20
0.919149
11
1.26179
21
0.917069
0
LINE
8
BLACK
6
CONTINUOUS
10
1.26179
20
0.917069
11
1.25812
21
0.916339
0
LINE
8
BLACK
6
CONTINUOUS
10
1.25812
20
0.916339
11
1.22219
21
0.916339
0
LINE
8
BLACK
6
CONTINUOUS
10
1.22219
20
0.916339
11
1.21852
21
0.917069
0
LINE
8
BLACK
6
CONTINUOUS
10
1.21852
20
0.917069
11
1.21541
21
0.919149
0
LINE
8
BLACK
6
CONTINUOUS
10
1.21541
20
0.919149
11
1.21333
21
0.922263
0
LINE
8
BLACK
6
CONTINUOUS
10
1.21333
20
0.922263
11
1.2126
21
0.925935
0
LINE
8
BLACK
6
CONTINUOUS
10
1.2126
20
0.925935
11
1.2126
21
0.945128
0
LINE
8
BLACK
6
CONTINUOUS
10
1.2126
20
0.945128
11
1.21333
21
0.9488
0
LINE
8
BLACK
6
CONTINUOUS
10
1.21333
20
0.9488
11
1.21541
21
0.951914
0
LINE
8
BLACK
6
CONTINUOUS
10
1.21541
20
0.951914
11
1.21852
21
0.953994
0
LINE
8
BLACK
6
CONTINUOUS
10
1.21852
20
0.953994
11
1.22219
21
0.954724
0
LINE
8
BLACK
6
CONTINUOUS
10
1.22219
20
0.954724
11
1.25812
21
0.954724
0
LINE
8
BLACK
6
CONTINUOUS
10
1.25812
20
0.954724
11
1.26179
21
0.953994
0
LINE
8
BLACK
6
CONTINUOUS
10
0.797226
20
1.01206
11
0.800339
21
1.00998
0
LINE
8
BLACK
6
CONTINUOUS
10
0.800339
20
1.00998
11
0.802419
21
1.00687
0
LINE
8
BLACK
6
CONTINUOUS
10
0.802419
20
1.00687
11
0.80315
21
1.0032
0
LINE
8
BLACK
6
CONTINUOUS
10
0.80315
20
1.0032
11
0.80315
21
0.984006
0
LINE
8
BLACK
6
CONTINUOUS
10
0.80315
20
0.984006
11
0.802419
21
0.980334
0
LINE
8
BLACK
6
CONTINUOUS
10
0.802419
20
0.980334
11
0.800339
21
0.97722
0
LINE
8
BLACK
6
CONTINUOUS
10
0.800339
20
0.97722
11
0.797226
21
0.97514
0
LINE
8
BLACK
6
CONTINUOUS
10
0.797226
20
0.97514
11
0.793553
21
0.974409
0
LINE
8
BLACK
6
CONTINUOUS
10
0.793553
20
0.974409
11
0.757628
21
0.974409
0
LINE
8
BLACK
6
CONTINUOUS
10
0.757628
20
0.974409
11
0.753956
21
0.97514
0
LINE
8
BLACK
6
CONTINUOUS
10
0.753956
20
0.97514
11
0.750842
21
0.97722
0
LINE
8
BLACK
6
CONTINUOUS
10
0.750842
20
0.97722
11
0.748762
21
0.980334
0
LINE
8
BLACK
6
CONTINUOUS
10
0.748762
20
0.980334
11
0.748031
21
0.984006
0
LINE
8
BLACK
6
CONTINUOUS
10
0.748031
20
0.984006
11
0.748031
21
1.0032
0
LINE
8
BLACK
6
CONTINUOUS
10
0.748031
20
1.0032
11
0.748762
21
1.00687
0
LINE
8
BLACK
6
CONTINUOUS
10
0.748762
20
1.00687
11
0.750842
21
1.00998
0
LINE
8
BLACK
6
CONTINUOUS
10
0.750842
20
1.00998
11
0.753956
21
1.01206
0
LINE
8
BLACK
6
CONTINUOUS
10
0.753956
20
1.01206
11
0.757628
21
1.0128
0
LINE
8
BLACK
6
CONTINUOUS
10
0.757628
20
1.0128
11
0.793553
21
1.0128
0
LINE
8
BLACK
6
CONTINUOUS
10
0.793553
20
1.0128
11
0.797226
21
1.01206
0
LINE
8
BLACK
6
CONTINUOUS
10
1.26179
20
1.02781
11
1.26491
21
1.02573
0
LINE
8
BLACK
6
CONTINUOUS
10
1.26491
20
1.02573
11
1.26699
21
1.02262
0
LINE
8
BLACK
6
CONTINUOUS
10
1.26699
20
1.02262
11
1.26772
21
1.01895
0
LINE
8
BLACK
6
CONTINUOUS
10
1.26772
20
1.01895
11
1.26772
21
0.999754
0
LINE
8
BLACK
6
CONTINUOUS
10
1.26772
20
0.999754
11
1.26699
21
0.996082
0
LINE
8
BLACK
6
CONTINUOUS
10
1.26699
20
0.996082
11
1.26491
21
0.992968
0
LINE
8
BLACK
6
CONTINUOUS
10
1.26491
20
0.992968
11
1.26179
21
0.990888
0
LINE
8
BLACK
6
CONTINUOUS
10
1.26179
20
0.990888
11
1.25812
21
0.990157
0
LINE
8
BLACK
6
CONTINUOUS
10
1.25812
20
0.990157
11
1.22219
21
0.990157
0
LINE
8
BLACK
6
CONTINUOUS
10
1.22219
20
0.990157
11
1.21852
21
0.990888
0
LINE
8
BLACK
6
CONTINUOUS
10
1.21852
20
0.990888
11
1.21541
21
0.992968
0
LINE
8
BLACK
6
CONTINUOUS
10
1.21541
20
0.992968
11
1.21333
21
0.996082
0
LINE
8
BLACK
6
CONTINUOUS
10
1.21333
20
0.996082
11
1.2126
21
0.999754
0
LINE
8
BLACK
6
CONTINUOUS
10
1.2126
20
0.999754
11
1.2126
21
1.01895
0
LINE
8
BLACK
6
CONTINUOUS
10
1.2126
20
1.01895
11
1.21333
21
1.02262
0
LINE
8
BLACK
6
CONTINUOUS
10
1.21333
20
1.02262
11
1.21541
21
1.02573
0
LINE
8
BLACK
6
CONTINUOUS
10
1.21541
20
1.02573
11
1.21852
21
1.02781
0
LINE
8
BLACK
6
CONTINUOUS
10
1.21852
20
1.02781
11
1.22219
21
1.02854
0
LINE
8
BLACK
6
CONTINUOUS
10
1.22219
20
1.02854
11
1.25812
21
1.02854
0
LINE
8
BLACK
6
CONTINUOUS
10
1.25812
20
1.02854
11
1.26179
21
1.02781
0
LINE
8
BLACK
6
CONTINUOUS
10
0.937008
20
1.03642
11
0.888976
21
1.03642
0
LINE
8
BLACK
6
CONTINUOUS
10
0.888976
20
1.03642
11
0.888976
21
1.06201
0
LINE
8
BLACK
6
CONTINUOUS
10
0.888976
20
1.06201
11
0.937008
21
1.06201
0
LINE
8
BLACK
6
CONTINUOUS
10
0.937008
20
1.06201
11
0.937008
21
1.03642
0
LINE
8
BLACK
6
CONTINUOUS
10
1.04016
20
1.03642
11
0.992126
21
1.03642
0
LINE
8
BLACK
6
CONTINUOUS
10
0.992126
20
1.03642
11
0.992126
21
1.06201
0
LINE
8
BLACK
6
CONTINUOUS
10
0.992126
20
1.06201
11
1.04016
21
1.06201
0
LINE
8
BLACK
6
CONTINUOUS
10
1.04016
20
1.06201
11
1.04016
21
1.03642
0
LINE
8
BLACK
6
CONTINUOUS
10
0.797226
20
1.07604
11
0.800339
21
1.07396
0
LINE
8
BLACK
6
CONTINUOUS
10
0.800339
20
1.07396
11
0.802419
21
1.07085
0
LINE
8
BLACK
6
CONTINUOUS
10
0.802419
20
1.07085
11
0.80315
21
1.06718
0
LINE
8
BLACK
6
CONTINUOUS
10
0.80315
20
1.06718
11
0.80315
21
1.04798
0
LINE
8
BLACK
6
CONTINUOUS
10
0.80315
20
1.04798
11
0.802419
21
1.04431
0
LINE
8
BLACK
6
CONTINUOUS
10
0.802419
20
1.04431
11
0.800339
21
1.0412
0
LINE
8
BLACK
6
CONTINUOUS
10
0.800339
20
1.0412
11
0.797226
21
1.03912
0
LINE
8
BLACK
6
CONTINUOUS
10
0.797226
20
1.03912
11
0.793553
21
1.03839
0
LINE
8
BLACK
6
CONTINUOUS
10
0.793553
20
1.03839
11
0.757628
21
1.03839
0
LINE
8
BLACK
6
CONTINUOUS
10
0.757628
20
1.03839
11
0.753956
21
1.03912
0
LINE
8
BLACK
6
CONTINUOUS
10
0.753956
20
1.03912
11
0.750842
21
1.0412
0
LINE
8
BLACK
6
CONTINUOUS
10
0.750842
20
1.0412
11
0.748762
21
1.04431
0
LINE
8
BLACK
6
CONTINUOUS
10
0.748762
20
1.04431
11
0.748031
21
1.04798
0
LINE
8
BLACK
6
CONTINUOUS
10
0.748031
20
1.04798
11
0.748031
21
1.06718
0
LINE
8
BLACK
6
CONTINUOUS
10
0.748031
20
1.06718
11
0.748762
21
1.07085
0
LINE
8
BLACK
6
CONTINUOUS
10
0.748762
20
1.07085
11
0.750842
21
1.07396
0
LINE
8
BLACK
6
CONTINUOUS
10
0.750842
20
1.07396
11
0.753956
21
1.07604
0
LINE
8
BLACK
6
CONTINUOUS
10
0.753956
20
1.07604
11
0.757628
21
1.07677
0
LINE
8
BLACK
6
CONTINUOUS
10
0.757628
20
1.07677
11
0.793553
21
1.07677
0
LINE
8
BLACK
6
CONTINUOUS
10
0.793553
20
1.07677
11
0.797226
21
1.07604
0
LINE
8
BLACK
6
CONTINUOUS
10
1.21849
20
1.08638
11
1.2216
21
1.0843
0
LINE
8
BLACK
6
CONTINUOUS
10
1.2216
20
1.0843
11
1.22368
21
1.08118
0
LINE
8
BLACK
6
CONTINUOUS
10
1.22368
20
1.08118
11
1.22441
21
1.07751
0
LINE
8
BLACK
6
CONTINUOUS
10
1.22441
20
1.07751
11
1.22441
21
1.05832
0
LINE
8
BLACK
6
CONTINUOUS
10
1.22441
20
1.05832
11
1.22368
21
1.05464
0
LINE
8
BLACK
6
CONTINUOUS
10
1.22368
20
1.05464
11
1.2216
21
1.05153
0
LINE
8
BLACK
6
CONTINUOUS
10
1.2216
20
1.05153
11
1.21849
21
1.04945
0
LINE
8
BLACK
6
CONTINUOUS
10
1.21849
20
1.04945
11
1.21481
21
1.04872
0
LINE
8
BLACK
6
CONTINUOUS
10
1.21481
20
1.04872
11
1.17889
21
1.04872
0
LINE
8
BLACK
6
CONTINUOUS
10
1.17889
20
1.04872
11
1.17522
21
1.04945
0
LINE
8
BLACK
6
CONTINUOUS
10
1.17522
20
1.04945
11
1.1721
21
1.05153
0
LINE
8
BLACK
6
CONTINUOUS
10
1.1721
20
1.05153
11
1.17002
21
1.05464
0
LINE
8
BLACK
6
CONTINUOUS
10
1.17002
20
1.05464
11
1.16929
21
1.05832
0
LINE
8
BLACK
6
CONTINUOUS
10
1.16929
20
1.05832
11
1.16929
21
1.07751
0
LINE
8
BLACK
6
CONTINUOUS
10
1.16929
20
1.07751
11
1.17002
21
1.08118
0
LINE
8
BLACK
6
CONTINUOUS
10
1.17002
20
1.08118
11
1.1721
21
1.0843
0
LINE
8
BLACK
6
CONTINUOUS
10
1.1721
20
1.0843
11
1.17522
21
1.08638
0
LINE
8
BLACK
6
CONTINUOUS
10
1.17522
20
1.08638
11
1.17889
21
1.08711
0
LINE
8
BLACK
6
CONTINUOUS
10
1.17889
20
1.08711
11
1.21481
21
1.08711
0
LINE
8
BLACK
6
CONTINUOUS
10
1.21481
20
1.08711
11
1.21849
21
1.08638
0
LINE
8
BLACK
6
CONTINUOUS
10
1.30904
20
1.08638
11
1.31215
21
1.0843
0
LINE
8
BLACK
6
CONTINUOUS
10
1.31215
20
1.0843
11
1.31423
21
1.08118
0
LINE
8
BLACK
6
CONTINUOUS
10
1.31423
20
1.08118
11
1.31496
21
1.07751
0
LINE
8
BLACK
6
CONTINUOUS
10
1.31496
20
1.07751
11
1.31496
21
1.05832
0
LINE
8
BLACK
6
CONTINUOUS
10
1.31496
20
1.05832
11
1.31423
21
1.05464
0
LINE
8
BLACK
6
CONTINUOUS
10
1.31423
20
1.05464
11
1.31215
21
1.05153
0
LINE
8
BLACK
6
CONTINUOUS
10
1.31215
20
1.05153
11
1.30904
21
1.04945
0
LINE
8
BLACK
6
CONTINUOUS
10
1.30904
20
1.04945
11
1.30536
21
1.04872
0
LINE
8
BLACK
6
CONTINUOUS
10
1.30536
20
1.04872
11
1.26944
21
1.04872
0
LINE
8
BLACK
6
CONTINUOUS
10
1.26944
20
1.04872
11
1.26577
21
1.04945
0
LINE
8
BLACK
6
CONTINUOUS
10
1.26577
20
1.04945
11
1.26265
21
1.05153
0
LINE
8
BLACK
6
CONTINUOUS
10
1.26265
20
1.05153
11
1.26057
21
1.05464
0
LINE
8
BLACK
6
CONTINUOUS
10
1.26057
20
1.05464
11
1.25984
21
1.05832
0
LINE
8
BLACK
6
CONTINUOUS
10
1.25984
20
1.05832
11
1.25984
21
1.07751
0
LINE
8
BLACK
6
CONTINUOUS
10
1.25984
20
1.07751
11
1.26057
21
1.08118
0
LINE
8
BLACK
6
CONTINUOUS
10
1.26057
20
1.08118
11
1.26265
21
1.0843
0
LINE
8
BLACK
6
CONTINUOUS
10
1.26265
20
1.0843
11
1.26577
21
1.08638
0
LINE
8
BLACK
6
CONTINUOUS
10
1.26577
20
1.08638
11
1.26944
21
1.08711
0
LINE
8
BLACK
6
CONTINUOUS
10
1.26944
20
1.08711
11
1.30536
21
1.08711
0
LINE
8
BLACK
6
CONTINUOUS
10
1.30536
20
1.08711
11
1.30904
21
1.08638
0
LINE
8
BLACK
6
CONTINUOUS
10
1.04016
20
1.07382
11
0.992126
21
1.07382
0
LINE
8
BLACK
6
CONTINUOUS
10
0.992126
20
1.07382
11
0.992126
21
1.09941
0
LINE
8
BLACK
6
CONTINUOUS
10
0.992126
20
1.09941
11
1.04016
21
1.09941
0
LINE
8
BLACK
6
CONTINUOUS
10
1.04016
20
1.09941
11
1.04016
21
1.07382
0
LINE
8
BLACK
6
CONTINUOUS
10
1.04016
20
1.11122
11
0.992126
21
1.11122
0
LINE
8
BLACK
6
CONTINUOUS
10
0.992126
20
1.11122
11
0.992126
21
1.13681
0
LINE
8
BLACK
6
CONTINUOUS
10
0.992126
20
1.13681
11
1.04016
21
1.13681
0
LINE
8
BLACK
6
CONTINUOUS
10
1.04016
20
1.13681
11
1.04016
21
1.11122
0
LINE
8
BLACK
6
CONTINUOUS
10
0.937008
20
1.11122
11
0.888976
21
1.11122
0
LINE
8
BLACK
6
CONTINUOUS
10
0.888976
20
1.11122
11
0.888976
21
1.13681
0
LINE
8
BLACK
6
CONTINUOUS
10
0.888976
20
1.13681
11
0.937008
21
1.13681
0
LINE
8
BLACK
6
CONTINUOUS
10
0.937008
20
1.13681
11
0.937008
21
1.11122
0
LINE
8
BLACK
6
CONTINUOUS
10
0.797226
20
1.14986
11
0.800339
21
1.14778
0
LINE
8
BLACK
6
CONTINUOUS
10
0.800339
20
1.14778
11
0.802419
21
1.14467
0
LINE
8
BLACK
6
CONTINUOUS
10
0.802419
20
1.14467
11
0.80315
21
1.14099
0
LINE
8
BLACK
6
CONTINUOUS
10
0.80315
20
1.14099
11
0.80315
21
1.1218
0
LINE
8
BLACK
6
CONTINUOUS
10
0.80315
20
1.1218
11
0.802419
21
1.11813
0
LINE
8
BLACK
6
CONTINUOUS
10
0.802419
20
1.11813
11
0.800339
21
1.11502
0
LINE
8
BLACK
6
CONTINUOUS
10
0.800339
20
1.11502
11
0.797226
21
1.11294
0
LINE
8
BLACK
6
CONTINUOUS
10
0.797226
20
1.11294
11
0.793553
21
1.1122
0
LINE
8
BLACK
6
CONTINUOUS
10
0.793553
20
1.1122
11
0.757628
21
1.1122
0
LINE
8
BLACK
6
CONTINUOUS
10
0.757628
20
1.1122
11
0.753956
21
1.11294
0
LINE
8
BLACK
6
CONTINUOUS
10
0.753956
20
1.11294
11
0.750842
21
1.11502
0
LINE
8
BLACK
6
CONTINUOUS
10
0.750842
20
1.11502
11
0.748762
21
1.11813
0
LINE
8
BLACK
6
CONTINUOUS
10
0.748762
20
1.11813
11
0.748031
21
1.1218
0
LINE
8
BLACK
6
CONTINUOUS
10
0.748031
20
1.1218
11
0.748031
21
1.14099
0
LINE
8
BLACK
6
CONTINUOUS
10
0.748031
20
1.14099
11
0.748762
21
1.14467
0
LINE
8
BLACK
6
CONTINUOUS
10
0.748762
20
1.14467
11
0.750842
21
1.14778
0
LINE
8
BLACK
6
CONTINUOUS
10
0.750842
20
1.14778
11
0.753956
21
1.14986
0
LINE
8
BLACK
6
CONTINUOUS
10
0.753956
20
1.14986
11
0.757628
21
1.15059
0
LINE
8
BLACK
6
CONTINUOUS
10
0.757628
20
1.15059
11
0.793553
21
1.15059
0
LINE
8
BLACK
6
CONTINUOUS
10
0.793553
20
1.15059
11
0.797226
21
1.14986
0
LINE
8
BLACK
6
CONTINUOUS
10
1.30904
20
1.16019
11
1.31215
21
1.15811
0
LINE
8
BLACK
6
CONTINUOUS
10
1.31215
20
1.15811
11
1.31423
21
1.155
0
LINE
8
BLACK
6
CONTINUOUS
10
1.31423
20
1.155
11
1.31496
21
1.15133
0
LINE
8
BLACK
6
CONTINUOUS
10
1.31496
20
1.15133
11
1.31496
21
1.13214
0
LINE
8
BLACK
6
CONTINUOUS
10
1.31496
20
1.13214
11
1.31423
21
1.12846
0
LINE
8
BLACK
6
CONTINUOUS
10
1.31423
20
1.12846
11
1.31215
21
1.12535
0
LINE
8
BLACK
6
CONTINUOUS
10
1.31215
20
1.12535
11
1.30904
21
1.12327
0
LINE
8
BLACK
6
CONTINUOUS
10
1.30904
20
1.12327
11
1.30536
21
1.12254
0
LINE
8
BLACK
6
CONTINUOUS
10
1.30536
20
1.12254
11
1.26944
21
1.12254
0
LINE
8
BLACK
6
CONTINUOUS
10
1.26944
20
1.12254
11
1.26577
21
1.12327
0
LINE
8
BLACK
6
CONTINUOUS
10
1.26577
20
1.12327
11
1.26265
21
1.12535
0
LINE
8
BLACK
6
CONTINUOUS
10
1.26265
20
1.12535
11
1.26057
21
1.12846
0
LINE
8
BLACK
6
CONTINUOUS
10
1.26057
20
1.12846
11
1.25984
21
1.13214
0
LINE
8
BLACK
6
CONTINUOUS
10
1.25984
20
1.13214
11
1.25984
21
1.15133
0
LINE
8
BLACK
6
CONTINUOUS
10
1.25984
20
1.15133
11
1.26057
21
1.155
0
LINE
8
BLACK
6
CONTINUOUS
10
1.26057
20
1.155
11
1.26265
21
1.15811
0
LINE
8
BLACK
6
CONTINUOUS
10
1.26265
20
1.15811
11
1.26577
21
1.16019
0
LINE
8
BLACK
6
CONTINUOUS
10
1.26577
20
1.16019
11
1.26944
21
1.16093
0
LINE
8
BLACK
6
CONTINUOUS
10
1.26944
20
1.16093
11
1.30536
21
1.16093
0
LINE
8
BLACK
6
CONTINUOUS
10
1.30536
20
1.16093
11
1.30904
21
1.16019
0
LINE
8
BLACK
6
CONTINUOUS
10
1.21849
20
1.16019
11
1.2216
21
1.15811
0
LINE
8
BLACK
6
CONTINUOUS
10
1.2216
20
1.15811
11
1.22368
21
1.155
0
LINE
8
BLACK
6
CONTINUOUS
10
1.22368
20
1.155
11
1.22441
21
1.15133
0
LINE
8
BLACK
6
CONTINUOUS
10
1.22441
20
1.15133
11
1.22441
21
1.13214
0
LINE
8
BLACK
6
CONTINUOUS
10
1.22441
20
1.13214
11
1.22368
21
1.12846
0
LINE
8
BLACK
6
CONTINUOUS
10
1.22368
20
1.12846
11
1.2216
21
1.12535
0
LINE
8
BLACK
6
CONTINUOUS
10
1.2216
20
1.12535
11
1.21849
21
1.12327
0
LINE
8
BLACK
6
CONTINUOUS
10
1.21849
20
1.12327
11
1.21481
21
1.12254
0
LINE
8
BLACK
6
CONTINUOUS
10
1.21481
20
1.12254
11
1.17889
21
1.12254
0
LINE
8
BLACK
6
CONTINUOUS
10
1.17889
20
1.12254
11
1.17522
21
1.12327
0
LINE
8
BLACK
6
CONTINUOUS
10
1.17522
20
1.12327
11
1.1721
21
1.12535
0
LINE
8
BLACK
6
CONTINUOUS
10
1.1721
20
1.12535
11
1.17002
21
1.12846
0
LINE
8
BLACK
6
CONTINUOUS
10
1.17002
20
1.12846
11
1.16929
21
1.13214
0
LINE
8
BLACK
6
CONTINUOUS
10
1.16929
20
1.13214
11
1.16929
21
1.15133
0
LINE
8
BLACK
6
CONTINUOUS
10
1.16929
20
1.15133
11
1.17002
21
1.155
0
LINE
8
BLACK
6
CONTINUOUS
10
1.17002
20
1.155
11
1.1721
21
1.15811
0
LINE
8
BLACK
6
CONTINUOUS
10
1.1721
20
1.15811
11
1.17522
21
1.16019
0
LINE
8
BLACK
6
CONTINUOUS
10
1.17522
20
1.16019
11
1.17889
21
1.16093
0
LINE
8
BLACK
6
CONTINUOUS
10
1.17889
20
1.16093
11
1.21481
21
1.16093
0
LINE
8
BLACK
6
CONTINUOUS
10
1.21481
20
1.16093
11
1.21849
21
1.16019
0
LINE
8
BLACK
6
CONTINUOUS
10
0.797226
20
1.22023
11
0.800339
21
1.21815
0
LINE
8
BLACK
6
CONTINUOUS
10
0.800339
20
1.21815
11
0.802419
21
1.21504
0
LINE
8
BLACK
6
CONTINUOUS
10
0.802419
20
1.21504
11
0.80315
21
1.21137
0
LINE
8
BLACK
6
CONTINUOUS
10
0.80315
20
1.21137
11
0.80315
21
1.19218
0
LINE
8
BLACK
6
CONTINUOUS
10
0.80315
20
1.19218
11
0.802419
21
1.1885
0
LINE
8
BLACK
6
CONTINUOUS
10
0.802419
20
1.1885
11
0.800339
21
1.18539
0
LINE
8
BLACK
6
CONTINUOUS
10
0.800339
20
1.18539
11
0.797226
21
1.18331
0
LINE
8
BLACK
6
CONTINUOUS
10
0.797226
20
1.18331
11
0.793553
21
1.18258
0
LINE
8
BLACK
6
CONTINUOUS
10
0.793553
20
1.18258
11
0.757628
21
1.18258
0
LINE
8
BLACK
6
CONTINUOUS
10
0.757628
20
1.18258
11
0.753956
21
1.18331
0
LINE
8
BLACK
6
CONTINUOUS
10
0.753956
20
1.18331
11
0.750842
21
1.18539
0
LINE
8
BLACK
6
CONTINUOUS
10
0.750842
20
1.18539
11
0.748762
21
1.1885
0
LINE
8
BLACK
6
CONTINUOUS
10
0.748762
20
1.1885
11
0.748031
21
1.19218
0
LINE
8
BLACK
6
CONTINUOUS
10
0.748031
20
1.19218
11
0.748031
21
1.21137
0
LINE
8
BLACK
6
CONTINUOUS
10
0.748031
20
1.21137
11
0.748762
21
1.21504
0
LINE
8
BLACK
6
CONTINUOUS
10
0.748762
20
1.21504
11
0.750842
21
1.21815
0
LINE
8
BLACK
6
CONTINUOUS
10
0.750842
20
1.21815
11
0.753956
21
1.22023
0
LINE
8
BLACK
6
CONTINUOUS
10
0.753956
20
1.22023
11
0.757628
21
1.22096
0
LINE
8
BLACK
6
CONTINUOUS
10
0.757628
20
1.22096
11
0.793553
21
1.22096
0
LINE
8
BLACK
6
CONTINUOUS
10
0.793553
20
1.22096
11
0.797226
21
1.22023
0
LINE
8
BLACK
6
CONTINUOUS
10
1.10827
20
1.21063
11
1.01575
21
1.21063
0
LINE
8
BLACK
6
CONTINUOUS
10
1.01575
20
1.21063
11
1.01575
21
1.41142
0
LINE
8
BLACK
6
CONTINUOUS
10
1.01575
20
1.41142
11
1.10827
21
1.41142
0
LINE
8
BLACK
6
CONTINUOUS
10
1.10827
20
1.41142
11
1.10827
21
1.21063
0
LINE
8
BLACK
6
CONTINUOUS
10
0.944882
20
1.21063
11
0.852362
21
1.21063
0
LINE
8
BLACK
6
CONTINUOUS
10
0.852362
20
1.21063
11
0.852362
21
1.41142
0
LINE
8
BLACK
6
CONTINUOUS
10
0.852362
20
1.41142
11
0.944882
21
1.41142
0
LINE
8
BLACK
6
CONTINUOUS
10
0.944882
20
1.41142
11
0.944882
21
1.21063
0
LINE
8
BLACK
6
CONTINUOUS
10
1.50392
20
1.25419
11
1.50703
21
1.25211
0
LINE
8
BLACK
6
CONTINUOUS
10
1.50703
20
1.25211
11
1.50911
21
1.249
0
LINE
8
BLACK
6
CONTINUOUS
10
1.50911
20
1.249
11
1.50984
21
1.24532
0
LINE
8
BLACK
6
CONTINUOUS
10
1.50984
20
1.24532
11
1.50984
21
1.22613
0
LINE
8
BLACK
6
CONTINUOUS
10
1.50984
20
1.22613
11
1.50911
21
1.22246
0
LINE
8
BLACK
6
CONTINUOUS
10
1.50911
20
1.22246
11
1.50703
21
1.21935
0
LINE
8
BLACK
6
CONTINUOUS
10
1.50703
20
1.21935
11
1.50392
21
1.21727
0
LINE
8
BLACK
6
CONTINUOUS
10
1.50392
20
1.21727
11
1.50025
21
1.21654
0
LINE
8
BLACK
6
CONTINUOUS
10
1.50025
20
1.21654
11
1.46432
21
1.21654
0
LINE
8
BLACK
6
CONTINUOUS
10
1.46432
20
1.21654
11
1.46065
21
1.21727
0
LINE
8
BLACK
6
CONTINUOUS
10
1.46065
20
1.21727
11
1.45754
21
1.21935
0
LINE
8
BLACK
6
CONTINUOUS
10
1.45754
20
1.21935
11
1.45545
21
1.22246
0
LINE
8
BLACK
6
CONTINUOUS
10
1.45545
20
1.22246
11
1.45472
21
1.22613
0
LINE
8
BLACK
6
CONTINUOUS
10
1.45472
20
1.22613
11
1.45472
21
1.24532
0
LINE
8
BLACK
6
CONTINUOUS
10
1.45472
20
1.24532
11
1.45545
21
1.249
0
LINE
8
BLACK
6
CONTINUOUS
10
1.45545
20
1.249
11
1.45754
21
1.25211
0
LINE
8
BLACK
6
CONTINUOUS
10
1.45754
20
1.25211
11
1.46065
21
1.25419
0
LINE
8
BLACK
6
CONTINUOUS
10
1.46065
20
1.25419
11
1.46432
21
1.25492
0
LINE
8
BLACK
6
CONTINUOUS
10
1.46432
20
1.25492
11
1.50025
21
1.25492
0
LINE
8
BLACK
6
CONTINUOUS
10
1.50025
20
1.25492
11
1.50392
21
1.25419
0
LINE
8
BLACK
6
CONTINUOUS
10
0.797226
20
1.29405
11
0.800339
21
1.29197
0
LINE
8
BLACK
6
CONTINUOUS
10
0.800339
20
1.29197
11
0.802419
21
1.28886
0
LINE
8
BLACK
6
CONTINUOUS
10
0.802419
20
1.28886
11
0.80315
21
1.28519
0
LINE
8
BLACK
6
CONTINUOUS
10
0.80315
20
1.28519
11
0.80315
21
1.26599
0
LINE
8
BLACK
6
CONTINUOUS
10
0.80315
20
1.26599
11
0.802419
21
1.26232
0
LINE
8
BLACK
6
CONTINUOUS
10
0.802419
20
1.26232
11
0.800339
21
1.25921
0
LINE
8
BLACK
6
CONTINUOUS
10
0.800339
20
1.25921
11
0.797226
21
1.25713
0
LINE
8
BLACK
6
CONTINUOUS
10
0.797226
20
1.25713
11
0.793553
21
1.2564
0
LINE
8
BLACK
6
CONTINUOUS
10
0.793553
20
1.2564
11
0.757628
21
1.2564
0
LINE
8
BLACK
6
CONTINUOUS
10
0.757628
20
1.2564
11
0.753956
21
1.25713
0
LINE
8
BLACK
6
CONTINUOUS
10
0.753956
20
1.25713
11
0.750842
21
1.25921
0
LINE
8
BLACK
6
CONTINUOUS
10
0.750842
20
1.25921
11
0.748762
21
1.26232
0
LINE
8
BLACK
6
CONTINUOUS
10
0.748762
20
1.26232
11
0.748031
21
1.26599
0
LINE
8
BLACK
6
CONTINUOUS
10
0.748031
20
1.26599
11
0.748031
21
1.28519
0
LINE
8
BLACK
6
CONTINUOUS
10
0.748031
20
1.28519
11
0.748762
21
1.28886
0
LINE
8
BLACK
6
CONTINUOUS
10
0.748762
20
1.28886
11
0.750842
21
1.29197
0
LINE
8
BLACK
6
CONTINUOUS
10
0.750842
20
1.29197
11
0.753956
21
1.29405
0
LINE
8
BLACK
6
CONTINUOUS
10
0.753956
20
1.29405
11
0.757628
21
1.29478
0
LINE
8
BLACK
6
CONTINUOUS
10
0.757628
20
1.29478
11
0.793553
21
1.29478
0
LINE
8
BLACK
6
CONTINUOUS
10
0.793553
20
1.29478
11
0.797226
21
1.29405
0
LINE
8
BLACK
6
CONTINUOUS
10
1.25787
20
1.27559
11
1.15945
21
1.27559
0
LINE
8
BLACK
6
CONTINUOUS
10
1.15945
20
1.27559
11
1.15945
21
1.34646
0
LINE
8
BLACK
6
CONTINUOUS
10
1.15945
20
1.34646
11
1.25787
21
1.34646
0
LINE
8
BLACK
6
CONTINUOUS
10
1.25787
20
1.34646
11
1.25787
21
1.27559
0
LINE
8
BLACK
6
CONTINUOUS
10
1.41535
20
1.27559
11
1.31693
21
1.27559
0
LINE
8
BLACK
6
CONTINUOUS
10
1.31693
20
1.27559
11
1.31693
21
1.34646
0
LINE
8
BLACK
6
CONTINUOUS
10
1.31693
20
1.34646
11
1.41535
21
1.34646
0
LINE
8
BLACK
6
CONTINUOUS
10
1.41535
20
1.34646
11
1.41535
21
1.27559
0
LINE
8
BLACK
6
CONTINUOUS
10
1.50392
20
1.32801
11
1.50703
21
1.32593
0
LINE
8
BLACK
6
CONTINUOUS
10
1.50703
20
1.32593
11
1.50911
21
1.32282
0
LINE
8
BLACK
6
CONTINUOUS
10
1.50911
20
1.32282
11
1.50984
21
1.31914
0
LINE
8
BLACK
6
CONTINUOUS
10
1.50984
20
1.31914
11
1.50984
21
1.29995
0
LINE
8
BLACK
6
CONTINUOUS
10
1.50984
20
1.29995
11
1.50911
21
1.29628
0
LINE
8
BLACK
6
CONTINUOUS
10
1.50911
20
1.29628
11
1.50703
21
1.29317
0
LINE
8
BLACK
6
CONTINUOUS
10
1.50703
20
1.29317
11
1.50392
21
1.29108
0
LINE
8
BLACK
6
CONTINUOUS
10
1.50392
20
1.29108
11
1.50025
21
1.29035
0
LINE
8
BLACK
6
CONTINUOUS
10
1.50025
20
1.29035
11
1.46432
21
1.29035
0
LINE
8
BLACK
6
CONTINUOUS
10
1.46432
20
1.29035
11
1.46065
21
1.29108
0
LINE
8
BLACK
6
CONTINUOUS
10
1.46065
20
1.29108
11
1.45754
21
1.29317
0
LINE
8
BLACK
6
CONTINUOUS
10
1.45754
20
1.29317
11
1.45545
21
1.29628
0
LINE
8
BLACK
6
CONTINUOUS
10
1.45545
20
1.29628
11
1.45472
21
1.29995
0
LINE
8
BLACK
6
CONTINUOUS
10
1.45472
20
1.29995
11
1.45472
21
1.31914
0
LINE
8
BLACK
6
CONTINUOUS
10
1.45472
20
1.31914
11
1.45545
21
1.32282
0
LINE
8
BLACK
6
CONTINUOUS
10
1.45545
20
1.32282
11
1.45754
21
1.32593
0
LINE
8
BLACK
6
CONTINUOUS
10
1.45754
20
1.32593
11
1.46065
21
1.32801
0
LINE
8
BLACK
6
CONTINUOUS
10
1.46065
20
1.32801
11
1.46432
21
1.32874
0
LINE
8
BLACK
6
CONTINUOUS
10
1.46432
20
1.32874
11
1.50025
21
1.32874
0
LINE
8
BLACK
6
CONTINUOUS
10
1.50025
20
1.32874
11
1.50392
21
1.32801
0
LINE
8
BLACK
6
CONTINUOUS
10
1.69486
20
1.62329
11
1.69798
21
1.62121
0
LINE
8
BLACK
6
CONTINUOUS
10
1.69798
20
1.62121
11
1.70006
21
1.61809
0
LINE
8
BLACK
6
CONTINUOUS
10
1.70006
20
1.61809
11
1.70079
21
1.61442
0
LINE
8
BLACK
6
CONTINUOUS
10
1.70079
20
1.61442
11
1.70079
21
1.59523
0
LINE
8
BLACK
6
CONTINUOUS
10
1.70079
20
1.59523
11
1.70006
21
1.59155
0
LINE
8
BLACK
6
CONTINUOUS
10
1.70006
20
1.59155
11
1.69798
21
1.58844
0
LINE
8
BLACK
6
CONTINUOUS
10
1.69798
20
1.58844
11
1.69486
21
1.58636
0
LINE
8
BLACK
6
CONTINUOUS
10
1.69486
20
1.58636
11
1.69119
21
1.58563
0
LINE
8
BLACK
6
CONTINUOUS
10
1.69119
20
1.58563
11
1.65527
21
1.58563
0
LINE
8
BLACK
6
CONTINUOUS
10
1.65527
20
1.58563
11
1.65159
21
1.58636
0
LINE
8
BLACK
6
CONTINUOUS
10
1.65159
20
1.58636
11
1.64848
21
1.58844
0
LINE
8
BLACK
6
CONTINUOUS
10
1.64848
20
1.58844
11
1.6464
21
1.59155
0
LINE
8
BLACK
6
CONTINUOUS
10
1.6464
20
1.59155
11
1.64567
21
1.59523
0
LINE
8
BLACK
6
CONTINUOUS
10
1.64567
20
1.59523
11
1.64567
21
1.61442
0
LINE
8
BLACK
6
CONTINUOUS
10
1.64567
20
1.61442
11
1.6464
21
1.61809
0
LINE
8
BLACK
6
CONTINUOUS
10
1.6464
20
1.61809
11
1.64848
21
1.62121
0
LINE
8
BLACK
6
CONTINUOUS
10
1.64848
20
1.62121
11
1.65159
21
1.62329
0
LINE
8
BLACK
6
CONTINUOUS
10
1.65159
20
1.62329
11
1.65527
21
1.62402
0
LINE
8
BLACK
6
CONTINUOUS
10
1.65527
20
1.62402
11
1.69119
21
1.62402
0
LINE
8
BLACK
6
CONTINUOUS
10
1.69119
20
1.62402
11
1.69486
21
1.62329
0
LINE
8
BLACK
6
CONTINUOUS
10
1.52852
20
1.62575
11
1.53164
21
1.62367
0
LINE
8
BLACK
6
CONTINUOUS
10
1.53164
20
1.62367
11
1.53372
21
1.62055
0
LINE
8
BLACK
6
CONTINUOUS
10
1.53372
20
1.62055
11
1.53445
21
1.61688
0
LINE
8
BLACK
6
CONTINUOUS
10
1.53445
20
1.61688
11
1.53445
21
1.59769
0
LINE
8
BLACK
6
CONTINUOUS
10
1.53445
20
1.59769
11
1.53372
21
1.59401
0
LINE
8
BLACK
6
CONTINUOUS
10
1.53372
20
1.59401
11
1.53164
21
1.5909
0
LINE
8
BLACK
6
CONTINUOUS
10
1.53164
20
1.5909
11
1.52852
21
1.58882
0
LINE
8
BLACK
6
CONTINUOUS
10
1.52852
20
1.58882
11
1.52485
21
1.58809
0
LINE
8
BLACK
6
CONTINUOUS
10
1.52485
20
1.58809
11
1.48893
21
1.58809
0
LINE
8
BLACK
6
CONTINUOUS
10
1.48893
20
1.58809
11
1.48525
21
1.58882
0
LINE
8
BLACK
6
CONTINUOUS
10
1.48525
20
1.58882
11
1.48214
21
1.5909
0
LINE
8
BLACK
6
CONTINUOUS
10
1.48214
20
1.5909
11
1.48006
21
1.59401
0
LINE
8
BLACK
6
CONTINUOUS
10
1.48006
20
1.59401
11
1.47933
21
1.59769
0
LINE
8
BLACK
6
CONTINUOUS
10
1.47933
20
1.59769
11
1.47933
21
1.61688
0
LINE
8
BLACK
6
CONTINUOUS
10
1.47933
20
1.61688
11
1.48006
21
1.62055
0
LINE
8
BLACK
6
CONTINUOUS
10
1.48006
20
1.62055
11
1.48214
21
1.62367
0
LINE
8
BLACK
6
CONTINUOUS
10
1.48214
20
1.62367
11
1.48525
21
1.62575
0
LINE
8
BLACK
6
CONTINUOUS
10
1.48525
20
1.62575
11
1.48893
21
1.62648
0
LINE
8
BLACK
6
CONTINUOUS
10
1.48893
20
1.62648
11
1.52485
21
1.62648
0
LINE
8
BLACK
6
CONTINUOUS
10
1.52485
20
1.62648
11
1.52852
21
1.62575
0
LINE
8
BLACK
6
CONTINUOUS
10
1.69486
20
1.6971
11
1.69798
21
1.69502
0
LINE
8
BLACK
6
CONTINUOUS
10
1.69798
20
1.69502
11
1.70006
21
1.69191
0
LINE
8
BLACK
6
CONTINUOUS
10
1.70006
20
1.69191
11
1.70079
21
1.68824
0
LINE
8
BLACK
6
CONTINUOUS
10
1.70079
20
1.68824
11
1.70079
21
1.66905
0
LINE
8
BLACK
6
CONTINUOUS
10
1.70079
20
1.66905
11
1.70006
21
1.66537
0
LINE
8
BLACK
6
CONTINUOUS
10
1.70006
20
1.66537
11
1.69798
21
1.66226
0
LINE
8
BLACK
6
CONTINUOUS
10
1.69798
20
1.66226
11
1.69486
21
1.66018
0
LINE
8
BLACK
6
CONTINUOUS
10
1.69486
20
1.66018
11
1.69119
21
1.65945
0
LINE
8
BLACK
6
CONTINUOUS
10
1.69119
20
1.65945
11
1.65527
21
1.65945
0
LINE
8
BLACK
6
CONTINUOUS
10
1.65527
20
1.65945
11
1.65159
21
1.66018
0
LINE
8
BLACK
6
CONTINUOUS
10
1.65159
20
1.66018
11
1.64848
21
1.66226
0
LINE
8
BLACK
6
CONTINUOUS
10
1.64848
20
1.66226
11
1.6464
21
1.66537
0
LINE
8
BLACK
6
CONTINUOUS
10
1.6464
20
1.66537
11
1.64567
21
1.66905
0
LINE
8
BLACK
6
CONTINUOUS
10
1.64567
20
1.66905
11
1.64567
21
1.68824
0
LINE
8
BLACK
6
CONTINUOUS
10
1.64567
20
1.68824
11
1.6464
21
1.69191
0
LINE
8
BLACK
6
CONTINUOUS
10
1.6464
20
1.69191
11
1.64848
21
1.69502
0
LINE
8
BLACK
6
CONTINUOUS
10
1.64848
20
1.69502
11
1.65159
21
1.6971
0
LINE
8
BLACK
6
CONTINUOUS
10
1.65159
20
1.6971
11
1.65527
21
1.69783
0
LINE
8
BLACK
6
CONTINUOUS
10
1.65527
20
1.69783
11
1.69119
21
1.69783
0
LINE
8
BLACK
6
CONTINUOUS
10
1.69119
20
1.69783
11
1.69486
21
1.6971
0
LINE
8
BLACK
6
CONTINUOUS
10
1.52852
20
1.69956
11
1.53164
21
1.69748
0
LINE
8
BLACK
6
CONTINUOUS
10
1.53164
20
1.69748
11
1.53372
21
1.69437
0
LINE
8
BLACK
6
CONTINUOUS
10
1.53372
20
1.69437
11
1.53445
21
1.6907
0
LINE
8
BLACK
6
CONTINUOUS
10
1.53445
20
1.6907
11
1.53445
21
1.67151
0
LINE
8
BLACK
6
CONTINUOUS
10
1.53445
20
1.67151
11
1.53372
21
1.66783
0
LINE
8
BLACK
6
CONTINUOUS
10
1.53372
20
1.66783
11
1.53164
21
1.66472
0
LINE
8
BLACK
6
CONTINUOUS
10
1.53164
20
1.66472
11
1.52852
21
1.66264
0
LINE
8
BLACK
6
CONTINUOUS
10
1.52852
20
1.66264
11
1.52485
21
1.66191
0
LINE
8
BLACK
6
CONTINUOUS
10
1.52485
20
1.66191
11
1.48893
21
1.66191
0
LINE
8
BLACK
6
CONTINUOUS
10
1.48893
20
1.66191
11
1.48525
21
1.66264
0
LINE
8
BLACK
6
CONTINUOUS
10
1.48525
20
1.66264
11
1.48214
21
1.66472
0
LINE
8
BLACK
6
CONTINUOUS
10
1.48214
20
1.66472
11
1.48006
21
1.66783
0
LINE
8
BLACK
6
CONTINUOUS
10
1.48006
20
1.66783
11
1.47933
21
1.67151
0
LINE
8
BLACK
6
CONTINUOUS
10
1.47933
20
1.67151
11
1.47933
21
1.6907
0
LINE
8
BLACK
6
CONTINUOUS
10
1.47933
20
1.6907
11
1.48006
21
1.69437
0
LINE
8
BLACK
6
CONTINUOUS
10
1.48006
20
1.69437
11
1.48214
21
1.69748
0
LINE
8
BLACK
6
CONTINUOUS
10
1.48214
20
1.69748
11
1.48525
21
1.69956
0
LINE
8
BLACK
6
CONTINUOUS
10
1.48525
20
1.69956
11
1.48893
21
1.7003
0
LINE
8
BLACK
6
CONTINUOUS
10
1.48893
20
1.7003
11
1.52485
21
1.7003
0
LINE
8
BLACK
6
CONTINUOUS
10
1.52485
20
1.7003
11
1.52852
21
1.69956
0
LINE
8
BLACK
6
CONTINUOUS
10
1.52557
20
1.75714
11
1.52869
21
1.75506
0
LINE
8
BLACK
6
CONTINUOUS
10
1.52869
20
1.75506
11
1.53077
21
1.75195
0
LINE
8
BLACK
6
CONTINUOUS
10
1.53077
20
1.75195
11
1.5315
21
1.74828
0
LINE
8
BLACK
6
CONTINUOUS
10
1.5315
20
1.74828
11
1.5315
21
1.72908
0
LINE
8
BLACK
6
CONTINUOUS
10
1.5315
20
1.72908
11
1.53077
21
1.72541
0
LINE
8
BLACK
6
CONTINUOUS
10
1.53077
20
1.72541
11
1.52869
21
1.7223
0
LINE
8
BLACK
6
CONTINUOUS
10
1.52869
20
1.7223
11
1.52557
21
1.72022
0
LINE
8
BLACK
6
CONTINUOUS
10
1.52557
20
1.72022
11
1.5219
21
1.71949
0
LINE
8
BLACK
6
CONTINUOUS
10
1.5219
20
1.71949
11
1.48597
21
1.71949
0
LINE
8
BLACK
6
CONTINUOUS
10
1.48597
20
1.71949
11
1.4823
21
1.72022
0
LINE
8
BLACK
6
CONTINUOUS
10
1.4823
20
1.72022
11
1.47919
21
1.7223
0
LINE
8
BLACK
6
CONTINUOUS
10
1.47919
20
1.7223
11
1.47711
21
1.72541
0
LINE
8
BLACK
6
CONTINUOUS
10
1.47711
20
1.72541
11
1.47638
21
1.72908
0
LINE
8
BLACK
6
CONTINUOUS
10
1.47638
20
1.72908
11
1.47638
21
1.74828
0
LINE
8
BLACK
6
CONTINUOUS
10
1.47638
20
1.74828
11
1.47711
21
1.75195
0
LINE
8
BLACK
6
CONTINUOUS
10
1.47711
20
1.75195
11
1.47919
21
1.75506
0
LINE
8
BLACK
6
CONTINUOUS
10
1.47919
20
1.75506
11
1.4823
21
1.75714
0
LINE
8
BLACK
6
CONTINUOUS
10
1.4823
20
1.75714
11
1.48597
21
1.75787
0
LINE
8
BLACK
6
CONTINUOUS
10
1.48597
20
1.75787
11
1.5219
21
1.75787
0
LINE
8
BLACK
6
CONTINUOUS
10
1.5219
20
1.75787
11
1.52557
21
1.75714
0
LINE
8
BLACK
6
CONTINUOUS
10
1.69486
20
1.75862
11
1.69798
21
1.75654
0
LINE
8
BLACK
6
CONTINUOUS
10
1.69798
20
1.75654
11
1.70006
21
1.75343
0
LINE
8
BLACK
6
CONTINUOUS
10
1.70006
20
1.75343
11
1.70079
21
1.74975
0
LINE
8
BLACK
6
CONTINUOUS
10
1.70079
20
1.74975
11
1.70079
21
1.73056
0
LINE
8
BLACK
6
CONTINUOUS
10
1.70079
20
1.73056
11
1.70006
21
1.72689
0
LINE
8
BLACK
6
CONTINUOUS
10
1.70006
20
1.72689
11
1.69798
21
1.72378
0
LINE
8
BLACK
6
CONTINUOUS
10
1.69798
20
1.72378
11
1.69486
21
1.7217
0
LINE
8
BLACK
6
CONTINUOUS
10
1.69486
20
1.7217
11
1.69119
21
1.72096
0
LINE
8
BLACK
6
CONTINUOUS
10
1.69119
20
1.72096
11
1.65527
21
1.72096
0
LINE
8
BLACK
6
CONTINUOUS
10
1.65527
20
1.72096
11
1.65159
21
1.7217
0
LINE
8
BLACK
6
CONTINUOUS
10
1.65159
20
1.7217
11
1.64848
21
1.72378
0
LINE
8
BLACK
6
CONTINUOUS
10
1.64848
20
1.72378
11
1.6464
21
1.72689
0
LINE
8
BLACK
6
CONTINUOUS
10
1.6464
20
1.72689
11
1.64567
21
1.73056
0
LINE
8
BLACK
6
CONTINUOUS
10
1.64567
20
1.73056
11
1.64567
21
1.74975
0
LINE
8
BLACK
6
CONTINUOUS
10
1.64567
20
1.74975
11
1.6464
21
1.75343
0
LINE
8
BLACK
6
CONTINUOUS
10
1.6464
20
1.75343
11
1.64848
21
1.75654
0
LINE
8
BLACK
6
CONTINUOUS
10
1.64848
20
1.75654
11
1.65159
21
1.75862
0
LINE
8
BLACK
6
CONTINUOUS
10
1.65159
20
1.75862
11
1.65527
21
1.75935
0
LINE
8
BLACK
6
CONTINUOUS
10
1.65527
20
1.75935
11
1.69119
21
1.75935
0
LINE
8
BLACK
6
CONTINUOUS
10
1.69119
20
1.75935
11
1.69486
21
1.75862
0
LINE
8
BLACK
6
CONTINUOUS
10
1.52557
20
1.83096
11
1.52869
21
1.82888
0
LINE
8
BLACK
6
CONTINUOUS
10
1.52869
20
1.82888
11
1.53077
21
1.82577
0
LINE
8
BLACK
6
CONTINUOUS
10
1.53077
20
1.82577
11
1.5315
21
1.8221
0
LINE
8
BLACK
6
CONTINUOUS
10
1.5315
20
1.8221
11
1.5315
21
1.8029
0
LINE
8
BLACK
6
CONTINUOUS
10
1.5315
20
1.8029
11
1.53077
21
1.79923
0
LINE
8
BLACK
6
CONTINUOUS
10
1.53077
20
1.79923
11
1.52869
21
1.79612
0
LINE
8
BLACK
6
CONTINUOUS
10
1.52869
20
1.79612
11
1.52557
21
1.79404
0
LINE
8
BLACK
6
CONTINUOUS
10
1.52557
20
1.79404
11
1.5219
21
1.79331
0
LINE
8
BLACK
6
CONTINUOUS
10
1.5219
20
1.79331
11
1.48597
21
1.79331
0
LINE
8
BLACK
6
CONTINUOUS
10
1.48597
20
1.79331
11
1.4823
21
1.79404
0
LINE
8
BLACK
6
CONTINUOUS
10
1.4823
20
1.79404
11
1.47919
21
1.79612
0
LINE
8
BLACK
6
CONTINUOUS
10
1.47919
20
1.79612
11
1.47711
21
1.79923
0
LINE
8
BLACK
6
CONTINUOUS
10
1.47711
20
1.79923
11
1.47638
21
1.8029
0
LINE
8
BLACK
6
CONTINUOUS
10
1.47638
20
1.8029
11
1.47638
21
1.8221
0
LINE
8
BLACK
6
CONTINUOUS
10
1.47638
20
1.8221
11
1.47711
21
1.82577
0
LINE
8
BLACK
6
CONTINUOUS
10
1.47711
20
1.82577
11
1.47919
21
1.82888
0
LINE
8
BLACK
6
CONTINUOUS
10
1.47919
20
1.82888
11
1.4823
21
1.83096
0
LINE
8
BLACK
6
CONTINUOUS
10
1.4823
20
1.83096
11
1.48597
21
1.83169
0
LINE
8
BLACK
6
CONTINUOUS
10
1.48597
20
1.83169
11
1.5219
21
1.83169
0
LINE
8
BLACK
6
CONTINUOUS
10
1.5219
20
1.83169
11
1.52557
21
1.83096
0
LINE
8
BLACK
6
CONTINUOUS
10
1.69486
20
1.83244
11
1.69798
21
1.83036
0
LINE
8
BLACK
6
CONTINUOUS
10
1.69798
20
1.83036
11
1.70006
21
1.82725
0
LINE
8
BLACK
6
CONTINUOUS
10
1.70006
20
1.82725
11
1.70079
21
1.82357
0
LINE
8
BLACK
6
CONTINUOUS
10
1.70079
20
1.82357
11
1.70079
21
1.80438
0
LINE
8
BLACK
6
CONTINUOUS
10
1.70079
20
1.80438
11
1.70006
21
1.80071
0
LINE
8
BLACK
6
CONTINUOUS
10
1.70006
20
1.80071
11
1.69798
21
1.79759
0
LINE
8
BLACK
6
CONTINUOUS
10
1.69798
20
1.79759
11
1.69486
21
1.79551
0
LINE
8
BLACK
6
CONTINUOUS
10
1.69486
20
1.79551
11
1.69119
21
1.79478
0
LINE
8
BLACK
6
CONTINUOUS
10
1.69119
20
1.79478
11
1.65527
21
1.79478
0
LINE
8
BLACK
6
CONTINUOUS
10
1.65527
20
1.79478
11
1.65159
21
1.79551
0
LINE
8
BLACK
6
CONTINUOUS
10
1.65159
20
1.79551
11
1.64848
21
1.79759
0
LINE
8
BLACK
6
CONTINUOUS
10
1.64848
20
1.79759
11
1.6464
21
1.80071
0
LINE
8
BLACK
6
CONTINUOUS
10
1.6464
20
1.80071
11
1.64567
21
1.80438
0
LINE
8
BLACK
6
CONTINUOUS
10
1.64567
20
1.80438
11
1.64567
21
1.82357
0
LINE
8
BLACK
6
CONTINUOUS
10
1.64567
20
1.82357
11
1.6464
21
1.82725
0
LINE
8
BLACK
6
CONTINUOUS
10
1.6464
20
1.82725
11
1.64848
21
1.83036
0
LINE
8
BLACK
6
CONTINUOUS
10
1.64848
20
1.83036
11
1.65159
21
1.83244
0
LINE
8
BLACK
6
CONTINUOUS
10
1.65159
20
1.83244
11
1.65527
21
1.83317
0
LINE
8
BLACK
6
CONTINUOUS
10
1.65527
20
1.83317
11
1.69119
21
1.83317
0
LINE
8
BLACK
6
CONTINUOUS
10
1.69119
20
1.83317
11
1.69486
21
1.83244
0
LINE
8
BLACK
6
CONTINUOUS
10
1.17124
20
1.85803
11
1.17435
21
1.85595
0
LINE
8
BLACK
6
CONTINUOUS
10
1.17435
20
1.85595
11
1.17643
21
1.85284
0
LINE
8
BLACK
6
CONTINUOUS
10
1.17643
20
1.85284
11
1.17717
21
1.84916
0
LINE
8
BLACK
6
CONTINUOUS
10
1.17717
20
1.84916
11
1.17717
21
1.82997
0
LINE
8
BLACK
6
CONTINUOUS
10
1.17717
20
1.82997
11
1.17643
21
1.8263
0
LINE
8
BLACK
6
CONTINUOUS
10
1.17643
20
1.8263
11
1.17435
21
1.82318
0
LINE
8
BLACK
6
CONTINUOUS
10
1.17435
20
1.82318
11
1.17124
21
1.8211
0
LINE
8
BLACK
6
CONTINUOUS
10
1.17124
20
1.8211
11
1.16757
21
1.82037
0
LINE
8
BLACK
6
CONTINUOUS
10
1.16757
20
1.82037
11
1.13164
21
1.82037
0
LINE
8
BLACK
6
CONTINUOUS
10
1.13164
20
1.82037
11
1.12797
21
1.8211
0
LINE
8
BLACK
6
CONTINUOUS
10
1.12797
20
1.8211
11
1.12486
21
1.82318
0
LINE
8
BLACK
6
CONTINUOUS
10
1.12486
20
1.82318
11
1.12278
21
1.8263
0
LINE
8
BLACK
6
CONTINUOUS
10
1.12278
20
1.8263
11
1.12205
21
1.82997
0
LINE
8
BLACK
6
CONTINUOUS
10
1.12205
20
1.82997
11
1.12205
21
1.84916
0
LINE
8
BLACK
6
CONTINUOUS
10
1.12205
20
1.84916
11
1.12278
21
1.85284
0
LINE
8
BLACK
6
CONTINUOUS
10
1.12278
20
1.85284
11
1.12486
21
1.85595
0
LINE
8
BLACK
6
CONTINUOUS
10
1.12486
20
1.85595
11
1.12797
21
1.85803
0
LINE
8
BLACK
6
CONTINUOUS
10
1.12797
20
1.85803
11
1.13164
21
1.85876
0
LINE
8
BLACK
6
CONTINUOUS
10
1.13164
20
1.85876
11
1.16757
21
1.85876
0
LINE
8
BLACK
6
CONTINUOUS
10
1.16757
20
1.85876
11
1.17124
21
1.85803
0
LINE
8
BLACK
6
CONTINUOUS
10
0.663367
20
1.86197
11
0.666481
21
1.85989
0
LINE
8
BLACK
6
CONTINUOUS
10
0.666481
20
1.85989
11
0.668561
21
1.85677
0
LINE
8
BLACK
6
CONTINUOUS
10
0.668561
20
1.85677
11
0.669291
21
1.8531
0
LINE
8
BLACK
6
CONTINUOUS
10
0.669291
20
1.8531
11
0.669291
21
1.83391
0
LINE
8
BLACK
6
CONTINUOUS
10
0.669291
20
1.83391
11
0.668561
21
1.83024
0
LINE
8
BLACK
6
CONTINUOUS
10
0.668561
20
1.83024
11
0.666481
21
1.82712
0
LINE
8
BLACK
6
CONTINUOUS
10
0.666481
20
1.82712
11
0.663367
21
1.82504
0
LINE
8
BLACK
6
CONTINUOUS
10
0.663367
20
1.82504
11
0.659695
21
1.82431
0
LINE
8
BLACK
6
CONTINUOUS
10
0.659695
20
1.82431
11
0.62377
21
1.82431
0
LINE
8
BLACK
6
CONTINUOUS
10
0.62377
20
1.82431
11
0.620097
21
1.82504
0
LINE
8
BLACK
6
CONTINUOUS
10
0.620097
20
1.82504
11
0.616984
21
1.82712
0
LINE
8
BLACK
6
CONTINUOUS
10
0.616984
20
1.82712
11
0.614904
21
1.83024
0
LINE
8
BLACK
6
CONTINUOUS
10
0.614904
20
1.83024
11
0.614173
21
1.83391
0
LINE
8
BLACK
6
CONTINUOUS
10
0.614173
20
1.83391
11
0.614173
21
1.8531
0
LINE
8
BLACK
6
CONTINUOUS
10
0.614173
20
1.8531
11
0.614904
21
1.85677
0
LINE
8
BLACK
6
CONTINUOUS
10
0.614904
20
1.85677
11
0.616984
21
1.85989
0
LINE
8
BLACK
6
CONTINUOUS
10
0.616984
20
1.85989
11
0.620097
21
1.86197
0
LINE
8
BLACK
6
CONTINUOUS
10
0.620097
20
1.86197
11
0.62377
21
1.8627
0
LINE
8
BLACK
6
CONTINUOUS
10
0.62377
20
1.8627
11
0.659695
21
1.8627
0
LINE
8
BLACK
6
CONTINUOUS
10
0.659695
20
1.8627
11
0.663367
21
1.86197
0
LINE
8
BLACK
6
CONTINUOUS
10
0.765729
20
1.86197
11
0.768843
21
1.85989
0
LINE
8
BLACK
6
CONTINUOUS
10
0.768843
20
1.85989
11
0.770923
21
1.85677
0
LINE
8
BLACK
6
CONTINUOUS
10
0.770923
20
1.85677
11
0.771654
21
1.8531
0
LINE
8
BLACK
6
CONTINUOUS
10
0.771654
20
1.8531
11
0.771654
21
1.83391
0
LINE
8
BLACK
6
CONTINUOUS
10
0.771654
20
1.83391
11
0.770923
21
1.83024
0
LINE
8
BLACK
6
CONTINUOUS
10
0.770923
20
1.83024
11
0.768843
21
1.82712
0
LINE
8
BLACK
6
CONTINUOUS
10
0.768843
20
1.82712
11
0.765729
21
1.82504
0
LINE
8
BLACK
6
CONTINUOUS
10
0.765729
20
1.82504
11
0.762057
21
1.82431
0
LINE
8
BLACK
6
CONTINUOUS
10
0.762057
20
1.82431
11
0.726132
21
1.82431
0
LINE
8
BLACK
6
CONTINUOUS
10
0.726132
20
1.82431
11
0.722459
21
1.82504
0
LINE
8
BLACK
6
CONTINUOUS
10
0.722459
20
1.82504
11
0.719346
21
1.82712
0
LINE
8
BLACK
6
CONTINUOUS
10
0.719346
20
1.82712
11
0.717266
21
1.83024
0
LINE
8
BLACK
6
CONTINUOUS
10
0.717266
20
1.83024
11
0.716535
21
1.83391
0
LINE
8
BLACK
6
CONTINUOUS
10
0.716535
20
1.83391
11
0.716535
21
1.8531
0
LINE
8
BLACK
6
CONTINUOUS
10
0.716535
20
1.8531
11
0.717266
21
1.85677
0
LINE
8
BLACK
6
CONTINUOUS
10
0.717266
20
1.85677
11
0.719346
21
1.85989
0
LINE
8
BLACK
6
CONTINUOUS
10
0.719346
20
1.85989
11
0.722459
21
1.86197
0
LINE
8
BLACK
6
CONTINUOUS
10
0.722459
20
1.86197
11
0.726132
21
1.8627
0
LINE
8
BLACK
6
CONTINUOUS
10
0.726132
20
1.8627
11
0.762057
21
1.8627
0
LINE
8
BLACK
6
CONTINUOUS
10
0.762057
20
1.8627
11
0.765729
21
1.86197
0
LINE
8
BLACK
6
CONTINUOUS
10
0.887777
20
1.86197
11
0.89089
21
1.85989
0
LINE
8
BLACK
6
CONTINUOUS
10
0.89089
20
1.85989
11
0.89297
21
1.85677
0
LINE
8
BLACK
6
CONTINUOUS
10
0.89297
20
1.85677
11
0.893701
21
1.8531
0
LINE
8
BLACK
6
CONTINUOUS
10
0.893701
20
1.8531
11
0.893701
21
1.83391
0
LINE
8
BLACK
6
CONTINUOUS
10
0.893701
20
1.83391
11
0.89297
21
1.83024
0
LINE
8
BLACK
6
CONTINUOUS
10
0.89297
20
1.83024
11
0.89089
21
1.82712
0
LINE
8
BLACK
6
CONTINUOUS
10
0.89089
20
1.82712
11
0.887777
21
1.82504
0
LINE
8
BLACK
6
CONTINUOUS
10
0.887777
20
1.82504
11
0.884104
21
1.82431
0
LINE
8
BLACK
6
CONTINUOUS
10
0.884104
20
1.82431
11
0.848179
21
1.82431
0
LINE
8
BLACK
6
CONTINUOUS
10
0.848179
20
1.82431
11
0.844507
21
1.82504
0
LINE
8
BLACK
6
CONTINUOUS
10
0.844507
20
1.82504
11
0.841393
21
1.82712
0
LINE
8
BLACK
6
CONTINUOUS
10
0.841393
20
1.82712
11
0.839313
21
1.83024
0
LINE
8
BLACK
6
CONTINUOUS
10
0.839313
20
1.83024
11
0.838583
21
1.83391
0
LINE
8
BLACK
6
CONTINUOUS
10
0.838583
20
1.83391
11
0.838583
21
1.8531
0
LINE
8
BLACK
6
CONTINUOUS
10
0.838583
20
1.8531
11
0.839313
21
1.85677
0
LINE
8
BLACK
6
CONTINUOUS
10
0.839313
20
1.85677
11
0.841393
21
1.85989
0
LINE
8
BLACK
6
CONTINUOUS
10
0.841393
20
1.85989
11
0.844507
21
1.86197
0
LINE
8
BLACK
6
CONTINUOUS
10
0.844507
20
1.86197
11
0.848179
21
1.8627
0
LINE
8
BLACK
6
CONTINUOUS
10
0.848179
20
1.8627
11
0.884104
21
1.8627
0
LINE
8
BLACK
6
CONTINUOUS
10
0.884104
20
1.8627
11
0.887777
21
1.86197
0
LINE
8
BLACK
6
CONTINUOUS
10
1.01376
20
1.86344
11
1.01687
21
1.86136
0
LINE
8
BLACK
6
CONTINUOUS
10
1.01687
20
1.86136
11
1.01895
21
1.85825
0
LINE
8
BLACK
6
CONTINUOUS
10
1.01895
20
1.85825
11
1.01969
21
1.85458
0
LINE
8
BLACK
6
CONTINUOUS
10
1.01969
20
1.85458
11
1.01969
21
1.83538
0
LINE
8
BLACK
6
CONTINUOUS
10
1.01969
20
1.83538
11
1.01895
21
1.83171
0
LINE
8
BLACK
6
CONTINUOUS
10
1.01895
20
1.83171
11
1.01687
21
1.8286
0
LINE
8
BLACK
6
CONTINUOUS
10
1.01687
20
1.8286
11
1.01376
21
1.82652
0
LINE
8
BLACK
6
CONTINUOUS
10
1.01376
20
1.82652
11
1.01009
21
1.82579
0
LINE
8
BLACK
6
CONTINUOUS
10
1.01009
20
1.82579
11
0.974163
21
1.82579
0
LINE
8
BLACK
6
CONTINUOUS
10
0.974163
20
1.82579
11
0.970491
21
1.82652
0
LINE
8
BLACK
6
CONTINUOUS
10
0.970491
20
1.82652
11
0.967378
21
1.8286
0
LINE
8
BLACK
6
CONTINUOUS
10
0.967378
20
1.8286
11
0.965297
21
1.83171
0
LINE
8
BLACK
6
CONTINUOUS
10
0.965297
20
1.83171
11
0.964567
21
1.83538
0
LINE
8
BLACK
6
CONTINUOUS
10
0.964567
20
1.83538
11
0.964567
21
1.85458
0
LINE
8
BLACK
6
CONTINUOUS
10
0.964567
20
1.85458
11
0.965297
21
1.85825
0
LINE
8
BLACK
6
CONTINUOUS
10
0.965297
20
1.85825
11
0.967378
21
1.86136
0
LINE
8
BLACK
6
CONTINUOUS
10
0.967378
20
1.86136
11
0.970491
21
1.86344
0
LINE
8
BLACK
6
CONTINUOUS
10
0.970491
20
1.86344
11
0.974163
21
1.86417
0
LINE
8
BLACK
6
CONTINUOUS
10
0.974163
20
1.86417
11
1.01009
21
1.86417
0
LINE
8
BLACK
6
CONTINUOUS
10
1.01009
20
1.86417
11
1.01376
21
1.86344
0
LINE
8
BLACK
6
CONTINUOUS
10
0.470454
20
1.87132
11
0.473567
21
1.86924
0
LINE
8
BLACK
6
CONTINUOUS
10
0.473567
20
1.86924
11
0.475647
21
1.86612
0
LINE
8
BLACK
6
CONTINUOUS
10
0.475647
20
1.86612
11
0.476378
21
1.86245
0
LINE
8
BLACK
6
CONTINUOUS
10
0.476378
20
1.86245
11
0.476378
21
1.84326
0
LINE
8
BLACK
6
CONTINUOUS
10
0.476378
20
1.84326
11
0.475647
21
1.83959
0
LINE
8
BLACK
6
CONTINUOUS
10
0.475647
20
1.83959
11
0.473567
21
1.83647
0
LINE
8
BLACK
6
CONTINUOUS
10
0.473567
20
1.83647
11
0.470454
21
1.83439
0
LINE
8
BLACK
6
CONTINUOUS
10
0.470454
20
1.83439
11
0.466781
21
1.83366
0
LINE
8
BLACK
6
CONTINUOUS
10
0.466781
20
1.83366
11
0.430856
21
1.83366
0
LINE
8
BLACK
6
CONTINUOUS
10
0.430856
20
1.83366
11
0.427184
21
1.83439
0
LINE
8
BLACK
6
CONTINUOUS
10
0.427184
20
1.83439
11
0.424071
21
1.83647
0
LINE
8
BLACK
6
CONTINUOUS
10
0.424071
20
1.83647
11
0.42199
21
1.83959
0
LINE
8
BLACK
6
CONTINUOUS
10
0.42199
20
1.83959
11
0.42126
21
1.84326
0
LINE
8
BLACK
6
CONTINUOUS
10
0.42126
20
1.84326
11
0.42126
21
1.86245
0
LINE
8
BLACK
6
CONTINUOUS
10
0.42126
20
1.86245
11
0.42199
21
1.86612
0
LINE
8
BLACK
6
CONTINUOUS
10
0.42199
20
1.86612
11
0.424071
21
1.86924
0
LINE
8
BLACK
6
CONTINUOUS
10
0.424071
20
1.86924
11
0.427184
21
1.87132
0
LINE
8
BLACK
6
CONTINUOUS
10
0.427184
20
1.87132
11
0.430856
21
1.87205
0
LINE
8
BLACK
6
CONTINUOUS
10
0.430856
20
1.87205
11
0.466781
21
1.87205
0
LINE
8
BLACK
6
CONTINUOUS
10
0.466781
20
1.87205
11
0.470454
21
1.87132
0
LINE
8
BLACK
6
CONTINUOUS
10
0.324785
20
1.87378
11
0.327898
21
1.8717
0
LINE
8
BLACK
6
CONTINUOUS
10
0.327898
20
1.8717
11
0.329978
21
1.86858
0
LINE
8
BLACK
6
CONTINUOUS
10
0.329978
20
1.86858
11
0.330709
21
1.86491
0
LINE
8
BLACK
6
CONTINUOUS
10
0.330709
20
1.86491
11
0.330709
21
1.84572
0
LINE
8
BLACK
6
CONTINUOUS
10
0.330709
20
1.84572
11
0.329978
21
1.84205
0
LINE
8
BLACK
6
CONTINUOUS
10
0.329978
20
1.84205
11
0.327898
21
1.83893
0
LINE
8
BLACK
6
CONTINUOUS
10
0.327898
20
1.83893
11
0.324785
21
1.83685
0
LINE
8
BLACK
6
CONTINUOUS
10
0.324785
20
1.83685
11
0.321112
21
1.83612
0
LINE
8
BLACK
6
CONTINUOUS
10
0.321112
20
1.83612
11
0.285187
21
1.83612
0
LINE
8
BLACK
6
CONTINUOUS
10
0.285187
20
1.83612
11
0.281515
21
1.83685
0
LINE
8
BLACK
6
CONTINUOUS
10
0.281515
20
1.83685
11
0.278401
21
1.83893
0
LINE
8
BLACK
6
CONTINUOUS
10
0.278401
20
1.83893
11
0.276321
21
1.84205
0
LINE
8
BLACK
6
CONTINUOUS
10
0.276321
20
1.84205
11
0.275591
21
1.84572
0
LINE
8
BLACK
6
CONTINUOUS
10
0.275591
20
1.84572
11
0.275591
21
1.86491
0
LINE
8
BLACK
6
CONTINUOUS
10
0.275591
20
1.86491
11
0.276321
21
1.86858
0
LINE
8
BLACK
6
CONTINUOUS
10
0.276321
20
1.86858
11
0.278401
21
1.8717
0
LINE
8
BLACK
6
CONTINUOUS
10
0.278401
20
1.8717
11
0.281515
21
1.87378
0
LINE
8
BLACK
6
CONTINUOUS
10
0.281515
20
1.87378
11
0.285187
21
1.87451
0
LINE
8
BLACK
6
CONTINUOUS
10
0.285187
20
1.87451
11
0.321112
21
1.87451
0
LINE
8
BLACK
6
CONTINUOUS
10
0.321112
20
1.87451
11
0.324785
21
1.87378
0
LINE
8
BLACK
6
CONTINUOUS
10
1.17124
20
1.93185
11
1.17435
21
1.92977
0
LINE
8
BLACK
6
CONTINUOUS
10
1.17435
20
1.92977
11
1.17643
21
1.92665
0
LINE
8
BLACK
6
CONTINUOUS
10
1.17643
20
1.92665
11
1.17717
21
1.92298
0
LINE
8
BLACK
6
CONTINUOUS
10
1.17717
20
1.92298
11
1.17717
21
1.90379
0
LINE
8
BLACK
6
CONTINUOUS
10
1.17717
20
1.90379
11
1.17643
21
1.90012
0
LINE
8
BLACK
6
CONTINUOUS
10
1.17643
20
1.90012
11
1.17435
21
1.897
0
LINE
8
BLACK
6
CONTINUOUS
10
1.17435
20
1.897
11
1.17124
21
1.89492
0
LINE
8
BLACK
6
CONTINUOUS
10
1.17124
20
1.89492
11
1.16757
21
1.89419
0
LINE
8
BLACK
6
CONTINUOUS
10
1.16757
20
1.89419
11
1.13164
21
1.89419
0
LINE
8
BLACK
6
CONTINUOUS
10
1.13164
20
1.89419
11
1.12797
21
1.89492
0
LINE
8
BLACK
6
CONTINUOUS
10
1.12797
20
1.89492
11
1.12486
21
1.897
0
LINE
8
BLACK
6
CONTINUOUS
10
1.12486
20
1.897
11
1.12278
21
1.90012
0
LINE
8
BLACK
6
CONTINUOUS
10
1.12278
20
1.90012
11
1.12205
21
1.90379
0
LINE
8
BLACK
6
CONTINUOUS
10
1.12205
20
1.90379
11
1.12205
21
1.92298
0
LINE
8
BLACK
6
CONTINUOUS
10
1.12205
20
1.92298
11
1.12278
21
1.92665
0
LINE
8
BLACK
6
CONTINUOUS
10
1.12278
20
1.92665
11
1.12486
21
1.92977
0
LINE
8
BLACK
6
CONTINUOUS
10
1.12486
20
1.92977
11
1.12797
21
1.93185
0
LINE
8
BLACK
6
CONTINUOUS
10
1.12797
20
1.93185
11
1.13164
21
1.93258
0
LINE
8
BLACK
6
CONTINUOUS
10
1.13164
20
1.93258
11
1.16757
21
1.93258
0
LINE
8
BLACK
6
CONTINUOUS
10
1.16757
20
1.93258
11
1.17124
21
1.93185
0
LINE
8
BLACK
6
CONTINUOUS
10
0.663367
20
1.93579
11
0.666481
21
1.93371
0
LINE
8
BLACK
6
CONTINUOUS
10
0.666481
20
1.93371
11
0.668561
21
1.93059
0
LINE
8
BLACK
6
CONTINUOUS
10
0.668561
20
1.93059
11
0.669291
21
1.92692
0
LINE
8
BLACK
6
CONTINUOUS
10
0.669291
20
1.92692
11
0.669291
21
1.90773
0
LINE
8
BLACK
6
CONTINUOUS
10
0.669291
20
1.90773
11
0.668561
21
1.90405
0
LINE
8
BLACK
6
CONTINUOUS
10
0.668561
20
1.90405
11
0.666481
21
1.90094
0
LINE
8
BLACK
6
CONTINUOUS
10
0.666481
20
1.90094
11
0.663367
21
1.89886
0
LINE
8
BLACK
6
CONTINUOUS
10
0.663367
20
1.89886
11
0.659695
21
1.89813
0
LINE
8
BLACK
6
CONTINUOUS
10
0.659695
20
1.89813
11
0.62377
21
1.89813
0
LINE
8
BLACK
6
CONTINUOUS
10
0.62377
20
1.89813
11
0.620097
21
1.89886
0
LINE
8
BLACK
6
CONTINUOUS
10
0.620097
20
1.89886
11
0.616984
21
1.90094
0
LINE
8
BLACK
6
CONTINUOUS
10
0.616984
20
1.90094
11
0.614904
21
1.90405
0
LINE
8
BLACK
6
CONTINUOUS
10
0.614904
20
1.90405
11
0.614173
21
1.90773
0
LINE
8
BLACK
6
CONTINUOUS
10
0.614173
20
1.90773
11
0.614173
21
1.92692
0
LINE
8
BLACK
6
CONTINUOUS
10
0.614173
20
1.92692
11
0.614904
21
1.93059
0
LINE
8
BLACK
6
CONTINUOUS
10
0.614904
20
1.93059
11
0.616984
21
1.93371
0
LINE
8
BLACK
6
CONTINUOUS
10
0.616984
20
1.93371
11
0.620097
21
1.93579
0
LINE
8
BLACK
6
CONTINUOUS
10
0.620097
20
1.93579
11
0.62377
21
1.93652
0
LINE
8
BLACK
6
CONTINUOUS
10
0.62377
20
1.93652
11
0.659695
21
1.93652
0
LINE
8
BLACK
6
CONTINUOUS
10
0.659695
20
1.93652
11
0.663367
21
1.93579
0
LINE
8
BLACK
6
CONTINUOUS
10
0.887777
20
1.93579
11
0.89089
21
1.93371
0
LINE
8
BLACK
6
CONTINUOUS
10
0.89089
20
1.93371
11
0.89297
21
1.93059
0
LINE
8
BLACK
6
CONTINUOUS
10
0.89297
20
1.93059
11
0.893701
21
1.92692
0
LINE
8
BLACK
6
CONTINUOUS
10
0.893701
20
1.92692
11
0.893701
21
1.90773
0
LINE
8
BLACK
6
CONTINUOUS
10
0.893701
20
1.90773
11
0.89297
21
1.90405
0
LINE
8
BLACK
6
CONTINUOUS
10
0.89297
20
1.90405
11
0.89089
21
1.90094
0
LINE
8
BLACK
6
CONTINUOUS
10
0.89089
20
1.90094
11
0.887777
21
1.89886
0
LINE
8
BLACK
6
CONTINUOUS
10
0.887777
20
1.89886
11
0.884104
21
1.89813
0
LINE
8
BLACK
6
CONTINUOUS
10
0.884104
20
1.89813
11
0.848179
21
1.89813
0
LINE
8
BLACK
6
CONTINUOUS
10
0.848179
20
1.89813
11
0.844507
21
1.89886
0
LINE
8
BLACK
6
CONTINUOUS
10
0.844507
20
1.89886
11
0.841393
21
1.90094
0
LINE
8
BLACK
6
CONTINUOUS
10
0.841393
20
1.90094
11
0.839313
21
1.90405
0
LINE
8
BLACK
6
CONTINUOUS
10
0.839313
20
1.90405
11
0.838583
21
1.90773
0
LINE
8
BLACK
6
CONTINUOUS
10
0.838583
20
1.90773
11
0.838583
21
1.92692
0
LINE
8
BLACK
6
CONTINUOUS
10
0.838583
20
1.92692
11
0.839313
21
1.93059
0
LINE
8
BLACK
6
CONTINUOUS
10
0.839313
20
1.93059
11
0.841393
21
1.93371
0
LINE
8
BLACK
6
CONTINUOUS
10
0.841393
20
1.93371
11
0.844507
21
1.93579
0
LINE
8
BLACK
6
CONTINUOUS
10
0.844507
20
1.93579
11
0.848179
21
1.93652
0
LINE
8
BLACK
6
CONTINUOUS
10
0.848179
20
1.93652
11
0.884104
21
1.93652
0
LINE
8
BLACK
6
CONTINUOUS
10
0.884104
20
1.93652
11
0.887777
21
1.93579
0
LINE
8
BLACK
6
CONTINUOUS
10
0.765729
20
1.93579
11
0.768843
21
1.93371
0
LINE
8
BLACK
6
CONTINUOUS
10
0.768843
20
1.93371
11
0.770923
21
1.93059
0
LINE
8
BLACK
6
CONTINUOUS
10
0.770923
20
1.93059
11
0.771654
21
1.92692
0
LINE
8
BLACK
6
CONTINUOUS
10
0.771654
20
1.92692
11
0.771654
21
1.90773
0
LINE
8
BLACK
6
CONTINUOUS
10
0.771654
20
1.90773
11
0.770923
21
1.90405
0
LINE
8
BLACK
6
CONTINUOUS
10
0.770923
20
1.90405
11
0.768843
21
1.90094
0
LINE
8
BLACK
6
CONTINUOUS
10
0.768843
20
1.90094
11
0.765729
21
1.89886
0
LINE
8
BLACK
6
CONTINUOUS
10
0.765729
20
1.89886
11
0.762057
21
1.89813
0
LINE
8
BLACK
6
CONTINUOUS
10
0.762057
20
1.89813
11
0.726132
21
1.89813
0
LINE
8
BLACK
6
CONTINUOUS
10
0.726132
20
1.89813
11
0.722459
21
1.89886
0
LINE
8
BLACK
6
CONTINUOUS
10
0.722459
20
1.89886
11
0.719346
21
1.90094
0
LINE
8
BLACK
6
CONTINUOUS
10
0.719346
20
1.90094
11
0.717266
21
1.90405
0
LINE
8
BLACK
6
CONTINUOUS
10
0.717266
20
1.90405
11
0.716535
21
1.90773
0
LINE
8
BLACK
6
CONTINUOUS
10
0.716535
20
1.90773
11
0.716535
21
1.92692
0
LINE
8
BLACK
6
CONTINUOUS
10
0.716535
20
1.92692
11
0.717266
21
1.93059
0
LINE
8
BLACK
6
CONTINUOUS
10
0.717266
20
1.93059
11
0.719346
21
1.93371
0
LINE
8
BLACK
6
CONTINUOUS
10
0.719346
20
1.93371
11
0.722459
21
1.93579
0
LINE
8
BLACK
6
CONTINUOUS
10
0.722459
20
1.93579
11
0.726132
21
1.93652
0
LINE
8
BLACK
6
CONTINUOUS
10
0.726132
20
1.93652
11
0.762057
21
1.93652
0
LINE
8
BLACK
6
CONTINUOUS
10
0.762057
20
1.93652
11
0.765729
21
1.93579
0
LINE
8
BLACK
6
CONTINUOUS
10
1.01376
20
1.93726
11
1.01687
21
1.93518
0
LINE
8
BLACK
6
CONTINUOUS
10
1.01687
20
1.93518
11
1.01895
21
1.93207
0
LINE
8
BLACK
6
CONTINUOUS
10
1.01895
20
1.93207
11
1.01969
21
1.9284
0
LINE
8
BLACK
6
CONTINUOUS
10
1.01969
20
1.9284
11
1.01969
21
1.9092
0
LINE
8
BLACK
6
CONTINUOUS
10
1.01969
20
1.9092
11
1.01895
21
1.90553
0
LINE
8
BLACK
6
CONTINUOUS
10
1.01895
20
1.90553
11
1.01687
21
1.90242
0
LINE
8
BLACK
6
CONTINUOUS
10
1.01687
20
1.90242
11
1.01376
21
1.90034
0
LINE
8
BLACK
6
CONTINUOUS
10
1.01376
20
1.90034
11
1.01009
21
1.89961
0
LINE
8
BLACK
6
CONTINUOUS
10
1.01009
20
1.89961
11
0.974163
21
1.89961
0
LINE
8
BLACK
6
CONTINUOUS
10
0.974163
20
1.89961
11
0.970491
21
1.90034
0
LINE
8
BLACK
6
CONTINUOUS
10
0.970491
20
1.90034
11
0.967378
21
1.90242
0
LINE
8
BLACK
6
CONTINUOUS
10
0.967378
20
1.90242
11
0.965297
21
1.90553
0
LINE
8
BLACK
6
CONTINUOUS
10
0.965297
20
1.90553
11
0.964567
21
1.9092
0
LINE
8
BLACK
6
CONTINUOUS
10
0.964567
20
1.9092
11
0.964567
21
1.9284
0
LINE
8
BLACK
6
CONTINUOUS
10
0.964567
20
1.9284
11
0.965297
21
1.93207
0
LINE
8
BLACK
6
CONTINUOUS
10
0.965297
20
1.93207
11
0.967378
21
1.93518
0
LINE
8
BLACK
6
CONTINUOUS
10
0.967378
20
1.93518
11
0.970491
21
1.93726
0
LINE
8
BLACK
6
CONTINUOUS
10
0.970491
20
1.93726
11
0.974163
21
1.93799
0
LINE
8
BLACK
6
CONTINUOUS
10
0.974163
20
1.93799
11
1.01009
21
1.93799
0
LINE
8
BLACK
6
CONTINUOUS
10
1.01009
20
1.93799
11
1.01376
21
1.93726
0
LINE
8
BLACK
6
CONTINUOUS
10
0.470454
20
1.94514
11
0.473567
21
1.94306
0
LINE
8
BLACK
6
CONTINUOUS
10
0.473567
20
1.94306
11
0.475647
21
1.93994
0
LINE
8
BLACK
6
CONTINUOUS
10
0.475647
20
1.93994
11
0.476378
21
1.93627
0
LINE
8
BLACK
6
CONTINUOUS
10
0.476378
20
1.93627
11
0.476378
21
1.91708
0
LINE
8
BLACK
6
CONTINUOUS
10
0.476378
20
1.91708
11
0.475647
21
1.9134
0
LINE
8
BLACK
6
CONTINUOUS
10
0.475647
20
1.9134
11
0.473567
21
1.91029
0
LINE
8
BLACK
6
CONTINUOUS
10
0.473567
20
1.91029
11
0.470454
21
1.90821
0
LINE
8
BLACK
6
CONTINUOUS
10
0.470454
20
1.90821
11
0.466781
21
1.90748
0
LINE
8
BLACK
6
CONTINUOUS
10
0.466781
20
1.90748
11
0.430856
21
1.90748
0
LINE
8
BLACK
6
CONTINUOUS
10
0.430856
20
1.90748
11
0.427184
21
1.90821
0
LINE
8
BLACK
6
CONTINUOUS
10
0.427184
20
1.90821
11
0.424071
21
1.91029
0
LINE
8
BLACK
6
CONTINUOUS
10
0.424071
20
1.91029
11
0.42199
21
1.9134
0
LINE
8
BLACK
6
CONTINUOUS
10
0.42199
20
1.9134
11
0.42126
21
1.91708
0
LINE
8
BLACK
6
CONTINUOUS
10
0.42126
20
1.91708
11
0.42126
21
1.93627
0
LINE
8
BLACK
6
CONTINUOUS
10
0.42126
20
1.93627
11
0.42199
21
1.93994
0
LINE
8
BLACK
6
CONTINUOUS
10
0.42199
20
1.93994
11
0.424071
21
1.94306
0
LINE
8
BLACK
6
CONTINUOUS
10
0.424071
20
1.94306
11
0.427184
21
1.94514
0
LINE
8
BLACK
6
CONTINUOUS
10
0.427184
20
1.94514
11
0.430856
21
1.94587
0
LINE
8
BLACK
6
CONTINUOUS
10
0.430856
20
1.94587
11
0.466781
21
1.94587
0
LINE
8
BLACK
6
CONTINUOUS
10
0.466781
20
1.94587
11
0.470454
21
1.94514
0
LINE
8
BLACK
6
CONTINUOUS
10
0.324785
20
1.9476
11
0.327898
21
1.94552
0
LINE
8
BLACK
6
CONTINUOUS
10
0.327898
20
1.94552
11
0.329978
21
1.9424
0
LINE
8
BLACK
6
CONTINUOUS
10
0.329978
20
1.9424
11
0.330709
21
1.93873
0
LINE
8
BLACK
6
CONTINUOUS
10
0.330709
20
1.93873
11
0.330709
21
1.91954
0
LINE
8
BLACK
6
CONTINUOUS
10
0.330709
20
1.91954
11
0.329978
21
1.91586
0
LINE
8
BLACK
6
CONTINUOUS
10
0.329978
20
1.91586
11
0.327898
21
1.91275
0
LINE
8
BLACK
6
CONTINUOUS
10
0.327898
20
1.91275
11
0.324785
21
1.91067
0
LINE
8
BLACK
6
CONTINUOUS
10
0.324785
20
1.91067
11
0.321112
21
1.90994
0
LINE
8
BLACK
6
CONTINUOUS
10
0.321112
20
1.90994
11
0.285187
21
1.90994
0
LINE
8
BLACK
6
CONTINUOUS
10
0.285187
20
1.90994
11
0.281515
21
1.91067
0
LINE
8
BLACK
6
CONTINUOUS
10
0.281515
20
1.91067
11
0.278401
21
1.91275
0
LINE
8
BLACK
6
CONTINUOUS
10
0.278401
20
1.91275
11
0.276321
21
1.91586
0
LINE
8
BLACK
6
CONTINUOUS
10
0.276321
20
1.91586
11
0.275591
21
1.91954
0
LINE
8
BLACK
6
CONTINUOUS
10
0.275591
20
1.91954
11
0.275591
21
1.93873
0
LINE
8
BLACK
6
CONTINUOUS
10
0.275591
20
1.93873
11
0.276321
21
1.9424
0
LINE
8
BLACK
6
CONTINUOUS
10
0.276321
20
1.9424
11
0.278401
21
1.94552
0
LINE
8
BLACK
6
CONTINUOUS
10
0.278401
20
1.94552
11
0.281515
21
1.9476
0
LINE
8
BLACK
6
CONTINUOUS
10
0.281515
20
1.9476
11
0.285187
21
1.94833
0
LINE
8
BLACK
6
CONTINUOUS
10
0.285187
20
1.94833
11
0.321112
21
1.94833
0
LINE
8
BLACK
6
CONTINUOUS
10
0.321112
20
1.94833
11
0.324785
21
1.9476
0
LINE
8
BLACK
6
CONTINUOUS
10
1.47567
20
1.98969
11
1.41567
21
1.98969
0
LINE
8
BLACK
6
CONTINUOUS
10
1.41567
20
1.98969
11
1.41567
21
2.04969
0
LINE
8
BLACK
6
CONTINUOUS
10
1.41567
20
2.04969
11
1.47567
21
2.04969
0
LINE
8
BLACK
6
CONTINUOUS
10
1.47567
20
2.04969
11
1.47567
21
1.98969
0
LINE
8
BLACK
6
CONTINUOUS
10
1.57567
20
1.98969
11
1.51567
21
1.98969
0
LINE
8
BLACK
6
CONTINUOUS
10
1.51567
20
1.98969
11
1.51567
21
2.04969
0
LINE
8
BLACK
6
CONTINUOUS
10
1.51567
20
2.04969
11
1.57567
21
2.04969
0
LINE
8
BLACK
6
CONTINUOUS
10
1.57567
20
2.04969
11
1.57567
21
1.98969
0
LINE
8
BLACK
6
CONTINUOUS
10
1.37567
20
1.98969
11
1.31567
21
1.98969
0
LINE
8
BLACK
6
CONTINUOUS
10
1.31567
20
1.98969
11
1.31567
21
2.04969
0
LINE
8
BLACK
6
CONTINUOUS
10
1.31567
20
2.04969
11
1.37567
21
2.04969
0
LINE
8
BLACK
6
CONTINUOUS
10
1.37567
20
2.04969
11
1.37567
21
1.98969
0
LINE
8
BLACK
6
CONTINUOUS
10
1.27567
20
1.98969
11
1.21567
21
1.98969
0
LINE
8
BLACK
6
CONTINUOUS
10
1.21567
20
1.98969
11
1.21567
21
2.04969
0
LINE
8
BLACK
6
CONTINUOUS
10
1.21567
20
2.04969
11
1.27567
21
2.04969
0
LINE
8
BLACK
6
CONTINUOUS
10
1.27567
20
2.04969
11
1.27567
21
1.98969
0
LINE
8
BLACK
6
CONTINUOUS
10
1.17567
20
1.98969
11
1.11567
21
1.98969
0
LINE
8
BLACK
6
CONTINUOUS
10
1.11567
20
1.98969
11
1.11567
21
2.04969
0
LINE
8
BLACK
6
CONTINUOUS
10
1.11567
20
2.04969
11
1.17567
21
2.04969
0
LINE
8
BLACK
6
CONTINUOUS
10
1.17567
20
2.04969
11
1.17567
21
1.98969
0
LINE
8
BLACK
6
CONTINUOUS
10
1.67567
20
1.98969
11
1.61567
21
1.98969
0
LINE
8
BLACK
6
CONTINUOUS
10
1.61567
20
1.98969
11
1.61567
21
2.04969
0
LINE
8
BLACK
6
CONTINUOUS
10
1.61567
20
2.04969
11
1.67567
21
2.04969
0
LINE
8
BLACK
6
CONTINUOUS
10
1.67567
20
2.04969
11
1.67567
21
1.98969
0
LINE
8
BLACK
6
CONTINUOUS
10
1.77567
20
1.98969
11
1.71567
21
1.98969
0
LINE
8
BLACK
6
CONTINUOUS
10
1.71567
20
1.98969
11
1.71567
21
2.04969
0
LINE
8
BLACK
6
CONTINUOUS
10
1.71567
20
2.04969
11
1.77567
21
2.04969
0
LINE
8
BLACK
6
CONTINUOUS
10
1.77567
20
2.04969
11
1.77567
21
1.98969
0
LINE
8
BLACK
6
CONTINUOUS
10
1.87567
20
1.98969
11
1.81567
21
1.98969
0
LINE
8
BLACK
6
CONTINUOUS
10
1.81567
20
1.98969
11
1.81567
21
2.04969
0
LINE
8
BLACK
6
CONTINUOUS
10
1.81567
20
2.04969
11
1.87567
21
2.04969
0
LINE
8
BLACK
6
CONTINUOUS
10
1.87567
20
2.04969
11
1.87567
21
1.98969
0
LINE
8
BLACK
6
CONTINUOUS
10
1.97567
20
1.98969
11
1.91567
21
1.98969
0
LINE
8
BLACK
6
CONTINUOUS
10
1.91567
20
1.98969
11
1.91567
21
2.04969
0
LINE
8
BLACK
6
CONTINUOUS
10
1.91567
20
2.04969
11
1.97567
21
2.04969
0
LINE
8
BLACK
6
CONTINUOUS
10
1.97567
20
2.04969
11
1.97567
21
1.98969
0
LINE
8
BLACK
6
CONTINUOUS
10
1.07567
20
1.98969
11
1.01567
21
1.98969
0
LINE
8
BLACK
6
CONTINUOUS
10
1.01567
20
1.98969
11
1.01567
21
2.04969
0
LINE
8
BLACK
6
CONTINUOUS
10
1.01567
20
2.04969
11
1.07567
21
2.04969
0
LINE
8
BLACK
6
CONTINUOUS
10
1.07567
20
2.04969
11
1.07567
21
1.98969
0
LINE
8
BLACK
6
CONTINUOUS
10
0.675669
20
1.98969
11
0.615669
21
1.98969
0
LINE
8
BLACK
6
CONTINUOUS
10
0.615669
20
1.98969
11
0.615669
21
2.04969
0
LINE
8
BLACK
6
CONTINUOUS
10
0.615669
20
2.04969
11
0.675669
21
2.04969
0
LINE
8
BLACK
6
CONTINUOUS
10
0.675669
20
2.04969
11
0.675669
21
1.98969
0
LINE
8
BLACK
6
CONTINUOUS
10
0.875669
20
1.98969
11
0.815669
21
1.98969
0
LINE
8
BLACK
6
CONTINUOUS
10
0.815669
20
1.98969
11
0.815669
21
2.04969
0
LINE
8
BLACK
6
CONTINUOUS
10
0.815669
20
2.04969
11
0.875669
21
2.04969
0
LINE
8
BLACK
6
CONTINUOUS
10
0.875669
20
2.04969
11
0.875669
21
1.98969
0
LINE
8
BLACK
6
CONTINUOUS
10
0.975669
20
1.98969
11
0.915669
21
1.98969
0
LINE
8
BLACK
6
CONTINUOUS
10
0.915669
20
1.98969
11
0.915669
21
2.04969
0
LINE
8
BLACK
6
CONTINUOUS
10
0.915669
20
2.04969
11
0.975669
21
2.04969
0
LINE
8
BLACK
6
CONTINUOUS
10
0.975669
20
2.04969
11
0.975669
21
1.98969
0
LINE
8
BLACK
6
CONTINUOUS
10
0.775669
20
1.98969
11
0.715669
21
1.98969
0
LINE
8
BLACK
6
CONTINUOUS
10
0.715669
20
1.98969
11
0.715669
21
2.04969
0
LINE
8
BLACK
6
CONTINUOUS
10
0.715669
20
2.04969
11
0.775669
21
2.04969
0
LINE
8
BLACK
6
CONTINUOUS
10
0.775669
20
2.04969
11
0.775669
21
1.98969
0
LINE
8
BLACK
6
CONTINUOUS
10
0.575669
20
1.98969
11
0.515669
21
1.98969
0
LINE
8
BLACK
6
CONTINUOUS
10
0.515669
20
1.98969
11
0.515669
21
2.04969
0
LINE
8
BLACK
6
CONTINUOUS
10
0.515669
20
2.04969
11
0.575669
21
2.04969
0
LINE
8
BLACK
6
CONTINUOUS
10
0.575669
20
2.04969
11
0.575669
21
1.98969
0
LINE
8
BLACK
6
CONTINUOUS
10
0.475669
20
1.98969
11
0.415669
21
1.98969
0
LINE
8
BLACK
6
CONTINUOUS
10
0.415669
20
1.98969
11
0.415669
21
2.04969
0
LINE
8
BLACK
6
CONTINUOUS
10
0.415669
20
2.04969
11
0.475669
21
2.04969
0
LINE
8
BLACK
6
CONTINUOUS
10
0.475669
20
2.04969
11
0.475669
21
1.98969
0
LINE
8
BLACK
6
CONTINUOUS
10
0.0756693
20
1.98969
11
0.0156693
21
1.98969
0
LINE
8
BLACK
6
CONTINUOUS
10
0.0156693
20
1.98969
11
0.0156693
21
2.04969
0
LINE
8
BLACK
6
CONTINUOUS
10
0.0156693
20
2.04969
11
0.0756693
21
2.04969
0
LINE
8
BLACK
6
CONTINUOUS
10
0.0756693
20
2.04969
11
0.0756693
21
1.98969
0
LINE
8
BLACK
6
CONTINUOUS
10
0.175669
20
1.98969
11
0.115669
21
1.98969
0
LINE
8
BLACK
6
CONTINUOUS
10
0.115669
20
1.98969
11
0.115669
21
2.04969
0
LINE
8
BLACK
6
CONTINUOUS
10
0.115669
20
2.04969
11
0.175669
21
2.04969
0
LINE
8
BLACK
6
CONTINUOUS
10
0.175669
20
2.04969
11
0.175669
21
1.98969
0
LINE
8
BLACK
6
CONTINUOUS
10
0.375669
20
1.98969
11
0.315669
21
1.98969
0
LINE
8
BLACK
6
CONTINUOUS
10
0.315669
20
1.98969
11
0.315669
21
2.04969
0
LINE
8
BLACK
6
CONTINUOUS
10
0.315669
20
2.04969
11
0.375669
21
2.04969
0
LINE
8
BLACK
6
CONTINUOUS
10
0.375669
20
2.04969
11
0.375669
21
1.98969
0
LINE
8
BLACK
6
CONTINUOUS
10
0.275669
20
1.98969
11
0.215669
21
1.98969
0
LINE
8
BLACK
6
CONTINUOUS
10
0.215669
20
1.98969
11
0.215669
21
2.04969
0
LINE
8
BLACK
6
CONTINUOUS
10
0.215669
20
2.04969
11
0.275669
21
2.04969
0
LINE
8
BLACK
6
CONTINUOUS
10
0.275669
20
2.04969
11
0.275669
21
1.98969
0
LINE
8
BLACK
6
CONTINUOUS
10
1.49311
20
2.13189
11
1.42618
21
2.13189
0
LINE
8
BLACK
6
CONTINUOUS
10
1.42618
20
2.13189
11
1.42618
21
2.19882
0
LINE
8
BLACK
6
CONTINUOUS
10
1.42618
20
2.19882
11
1.49311
21
2.19882
0
LINE
8
BLACK
6
CONTINUOUS
10
1.49311
20
2.19882
11
1.49311
21
2.13189
0
LINE
8
BLACK
6
CONTINUOUS
10
1.56999
20
2.19718
11
1.57638
21
2.19434
0
LINE
8
BLACK
6
CONTINUOUS
10
1.57638
20
2.19434
11
1.58204
21
2.19022
0
LINE
8
BLACK
6
CONTINUOUS
10
1.58204
20
2.19022
11
1.58672
21
2.18502
0
LINE
8
BLACK
6
CONTINUOUS
10
1.58672
20
2.18502
11
1.59022
21
2.17897
0
LINE
8
BLACK
6
CONTINUOUS
10
1.59022
20
2.17897
11
1.59238
21
2.17231
0
LINE
8
BLACK
6
CONTINUOUS
10
1.59238
20
2.17231
11
1.59311
21
2.16535
0
LINE
8
BLACK
6
CONTINUOUS
10
1.59311
20
2.16535
11
1.59238
21
2.1584
0
LINE
8
BLACK
6
CONTINUOUS
10
1.59238
20
2.1584
11
1.59022
21
2.15174
0
LINE
8
BLACK
6
CONTINUOUS
10
1.59022
20
2.15174
11
1.58672
21
2.14568
0
LINE
8
BLACK
6
CONTINUOUS
10
1.58672
20
2.14568
11
1.58204
21
2.14049
0
LINE
8
BLACK
6
CONTINUOUS
10
1.58204
20
2.14049
11
1.57638
21
2.13637
0
LINE
8
BLACK
6
CONTINUOUS
10
1.57638
20
2.13637
11
1.56999
21
2.13353
0
LINE
8
BLACK
6
CONTINUOUS
10
1.56999
20
2.13353
11
1.56314
21
2.13207
0
LINE
8
BLACK
6
CONTINUOUS
10
1.56314
20
2.13207
11
1.55615
21
2.13207
0
LINE
8
BLACK
6
CONTINUOUS
10
1.55615
20
2.13207
11
1.5493
21
2.13353
0
LINE
8
BLACK
6
CONTINUOUS
10
1.5493
20
2.13353
11
1.54291
21
2.13637
0
LINE
8
BLACK
6
CONTINUOUS
10
1.54291
20
2.13637
11
1.53725
21
2.14049
0
LINE
8
BLACK
6
CONTINUOUS
10
1.53725
20
2.14049
11
1.53257
21
2.14568
0
LINE
8
BLACK
6
CONTINUOUS
10
1.53257
20
2.14568
11
1.52907
21
2.15174
0
LINE
8
BLACK
6
CONTINUOUS
10
1.52907
20
2.15174
11
1.52691
21
2.1584
0
LINE
8
BLACK
6
CONTINUOUS
10
1.52691
20
2.1584
11
1.52618
21
2.16535
0
LINE
8
BLACK
6
CONTINUOUS
10
1.52618
20
2.16535
11
1.52691
21
2.17231
0
LINE
8
BLACK
6
CONTINUOUS
10
1.52691
20
2.17231
11
1.52907
21
2.17897
0
LINE
8
BLACK
6
CONTINUOUS
10
1.52907
20
2.17897
11
1.53257
21
2.18502
0
LINE
8
BLACK
6
CONTINUOUS
10
1.53257
20
2.18502
11
1.53725
21
2.19022
0
LINE
8
BLACK
6
CONTINUOUS
10
1.53725
20
2.19022
11
1.54291
21
2.19434
0
LINE
8
BLACK
6
CONTINUOUS
10
1.54291
20
2.19434
11
1.5493
21
2.19718
0
LINE
8
BLACK
6
CONTINUOUS
10
1.5493
20
2.19718
11
1.55615
21
2.19864
0
LINE
8
BLACK
6
CONTINUOUS
10
1.55615
20
2.19864
11
1.56314
21
2.19864
0
LINE
8
BLACK
6
CONTINUOUS
10
1.56314
20
2.19864
11
1.56999
21
2.19718
0
LINE
8
BLACK
6
CONTINUOUS
10
1.66999
20
2.19718
11
1.67638
21
2.19434
0
LINE
8
BLACK
6
CONTINUOUS
10
1.67638
20
2.19434
11
1.68204
21
2.19022
0
LINE
8
BLACK
6
CONTINUOUS
10
1.68204
20
2.19022
11
1.68672
21
2.18502
0
LINE
8
BLACK
6
CONTINUOUS
10
1.68672
20
2.18502
11
1.69022
21
2.17897
0
LINE
8
BLACK
6
CONTINUOUS
10
1.69022
20
2.17897
11
1.69238
21
2.17231
0
LINE
8
BLACK
6
CONTINUOUS
10
1.69238
20
2.17231
11
1.69311
21
2.16535
0
LINE
8
BLACK
6
CONTINUOUS
10
1.69311
20
2.16535
11
1.69238
21
2.1584
0
LINE
8
BLACK
6
CONTINUOUS
10
1.69238
20
2.1584
11
1.69022
21
2.15174
0
LINE
8
BLACK
6
CONTINUOUS
10
1.69022
20
2.15174
11
1.68672
21
2.14568
0
LINE
8
BLACK
6
CONTINUOUS
10
1.68672
20
2.14568
11
1.68204
21
2.14049
0
LINE
8
BLACK
6
CONTINUOUS
10
1.68204
20
2.14049
11
1.67638
21
2.13637
0
LINE
8
BLACK
6
CONTINUOUS
10
1.67638
20
2.13637
11
1.66999
21
2.13353
0
LINE
8
BLACK
6
CONTINUOUS
10
1.66999
20
2.13353
11
1.66314
21
2.13207
0
LINE
8
BLACK
6
CONTINUOUS
10
1.66314
20
2.13207
11
1.65615
21
2.13207
0
LINE
8
BLACK
6
CONTINUOUS
10
1.65615
20
2.13207
11
1.6493
21
2.13353
0
LINE
8
BLACK
6
CONTINUOUS
10
1.6493
20
2.13353
11
1.64291
21
2.13637
0
LINE
8
BLACK
6
CONTINUOUS
10
1.64291
20
2.13637
11
1.63725
21
2.14049
0
LINE
8
BLACK
6
CONTINUOUS
10
1.63725
20
2.14049
11
1.63257
21
2.14568
0
LINE
8
BLACK
6
CONTINUOUS
10
1.63257
20
2.14568
11
1.62907
21
2.15174
0
LINE
8
BLACK
6
CONTINUOUS
10
1.62907
20
2.15174
11
1.62691
21
2.1584
0
LINE
8
BLACK
6
CONTINUOUS
10
1.62691
20
2.1584
11
1.62618
21
2.16535
0
LINE
8
BLACK
6
CONTINUOUS
10
1.62618
20
2.16535
11
1.62691
21
2.17231
0
LINE
8
BLACK
6
CONTINUOUS
10
1.62691
20
2.17231
11
1.62907
21
2.17897
0
LINE
8
BLACK
6
CONTINUOUS
10
1.62907
20
2.17897
11
1.63257
21
2.18502
0
LINE
8
BLACK
6
CONTINUOUS
10
1.63257
20
2.18502
11
1.63725
21
2.19022
0
LINE
8
BLACK
6
CONTINUOUS
10
1.63725
20
2.19022
11
1.64291
21
2.19434
0
LINE
8
BLACK
6
CONTINUOUS
10
1.64291
20
2.19434
11
1.6493
21
2.19718
0
LINE
8
BLACK
6
CONTINUOUS
10
1.6493
20
2.19718
11
1.65615
21
2.19864
0
LINE
8
BLACK
6
CONTINUOUS
10
1.65615
20
2.19864
11
1.66314
21
2.19864
0
LINE
8
BLACK
6
CONTINUOUS
10
1.66314
20
2.19864
11
1.66999
21
2.19718
0
LINE
8
BLACK
6
CONTINUOUS
10
0.980315
20
2.15945
11
0.929134
21
2.15945
0
LINE
8
BLACK
6
CONTINUOUS
10
0.929134
20
2.15945
11
0.929134
21
2.22638
0
LINE
8
BLACK
6
CONTINUOUS
10
0.929134
20
2.22638
11
0.980315
21
2.22638
0
LINE
8
BLACK
6
CONTINUOUS
10
0.980315
20
2.22638
11
0.980315
21
2.15945
0
LINE
8
BLACK
6
CONTINUOUS
10
0.84252
20
2.15945
11
0.791339
21
2.15945
0
LINE
8
BLACK
6
CONTINUOUS
10
0.791339
20
2.15945
11
0.791339
21
2.22638
0
LINE
8
BLACK
6
CONTINUOUS
10
0.791339
20
2.22638
11
0.84252
21
2.22638
0
LINE
8
BLACK
6
CONTINUOUS
10
0.84252
20
2.22638
11
0.84252
21
2.15945
0
LINE
8
BLACK
6
CONTINUOUS
10
1.21455
20
2.20055
11
1.21766
21
2.19847
0
LINE
8
BLACK
6
CONTINUOUS
10
1.21766
20
2.19847
11
1.21974
21
2.19536
0
LINE
8
BLACK
6
CONTINUOUS
10
1.21974
20
2.19536
11
1.22047
21
2.19168
0
LINE
8
BLACK
6
CONTINUOUS
10
1.22047
20
2.19168
11
1.22047
21
2.17249
0
LINE
8
BLACK
6
CONTINUOUS
10
1.22047
20
2.17249
11
1.21974
21
2.16882
0
LINE
8
BLACK
6
CONTINUOUS
10
1.21974
20
2.16882
11
1.21766
21
2.1657
0
LINE
8
BLACK
6
CONTINUOUS
10
1.21766
20
2.1657
11
1.21455
21
2.16362
0
LINE
8
BLACK
6
CONTINUOUS
10
1.21455
20
2.16362
11
1.21088
21
2.16289
0
LINE
8
BLACK
6
CONTINUOUS
10
1.21088
20
2.16289
11
1.17495
21
2.16289
0
LINE
8
BLACK
6
CONTINUOUS
10
1.17495
20
2.16289
11
1.17128
21
2.16362
0
LINE
8
BLACK
6
CONTINUOUS
10
1.17128
20
2.16362
11
1.16817
21
2.1657
0
LINE
8
BLACK
6
CONTINUOUS
10
1.16817
20
2.1657
11
1.16608
21
2.16882
0
LINE
8
BLACK
6
CONTINUOUS
10
1.16608
20
2.16882
11
1.16535
21
2.17249
0
LINE
8
BLACK
6
CONTINUOUS
10
1.16535
20
2.17249
11
1.16535
21
2.19168
0
LINE
8
BLACK
6
CONTINUOUS
10
1.16535
20
2.19168
11
1.16608
21
2.19536
0
LINE
8
BLACK
6
CONTINUOUS
10
1.16608
20
2.19536
11
1.16817
21
2.19847
0
LINE
8
BLACK
6
CONTINUOUS
10
1.16817
20
2.19847
11
1.17128
21
2.20055
0
LINE
8
BLACK
6
CONTINUOUS
10
1.17128
20
2.20055
11
1.17495
21
2.20128
0
LINE
8
BLACK
6
CONTINUOUS
10
1.17495
20
2.20128
11
1.21088
21
2.20128
0
LINE
8
BLACK
6
CONTINUOUS
10
1.21088
20
2.20128
11
1.21455
21
2.20055
0
LINE
8
BLACK
6
CONTINUOUS
10
1.13581
20
2.20055
11
1.13892
21
2.19847
0
LINE
8
BLACK
6
CONTINUOUS
10
1.13892
20
2.19847
11
1.141
21
2.19536
0
LINE
8
BLACK
6
CONTINUOUS
10
1.141
20
2.19536
11
1.14173
21
2.19168
0
LINE
8
BLACK
6
CONTINUOUS
10
1.14173
20
2.19168
11
1.14173
21
2.17249
0
LINE
8
BLACK
6
CONTINUOUS
10
1.14173
20
2.17249
11
1.141
21
2.16882
0
LINE
8
BLACK
6
CONTINUOUS
10
1.141
20
2.16882
11
1.13892
21
2.1657
0
LINE
8
BLACK
6
CONTINUOUS
10
1.13892
20
2.1657
11
1.13581
21
2.16362
0
LINE
8
BLACK
6
CONTINUOUS
10
1.13581
20
2.16362
11
1.13214
21
2.16289
0
LINE
8
BLACK
6
CONTINUOUS
10
1.13214
20
2.16289
11
1.09621
21
2.16289
0
LINE
8
BLACK
6
CONTINUOUS
10
1.09621
20
2.16289
11
1.09254
21
2.16362
0
LINE
8
BLACK
6
CONTINUOUS
10
1.09254
20
2.16362
11
1.08942
21
2.1657
0
LINE
8
BLACK
6
CONTINUOUS
10
1.08942
20
2.1657
11
1.08734
21
2.16882
0
LINE
8
BLACK
6
CONTINUOUS
10
1.08734
20
2.16882
11
1.08661
21
2.17249
0
LINE
8
BLACK
6
CONTINUOUS
10
1.08661
20
2.17249
11
1.08661
21
2.19168
0
LINE
8
BLACK
6
CONTINUOUS
10
1.08661
20
2.19168
11
1.08734
21
2.19536
0
LINE
8
BLACK
6
CONTINUOUS
10
1.08734
20
2.19536
11
1.08942
21
2.19847
0
LINE
8
BLACK
6
CONTINUOUS
10
1.08942
20
2.19847
11
1.09254
21
2.20055
0
LINE
8
BLACK
6
CONTINUOUS
10
1.09254
20
2.20055
11
1.09621
21
2.20128
0
LINE
8
BLACK
6
CONTINUOUS
10
1.09621
20
2.20128
11
1.13214
21
2.20128
0
LINE
8
BLACK
6
CONTINUOUS
10
1.13214
20
2.20128
11
1.13581
21
2.20055
0
LINE
8
BLACK
6
CONTINUOUS
10
1.21455
20
2.27437
11
1.21766
21
2.27229
0
LINE
8
BLACK
6
CONTINUOUS
10
1.21766
20
2.27229
11
1.21974
21
2.26917
0
LINE
8
BLACK
6
CONTINUOUS
10
1.21974
20
2.26917
11
1.22047
21
2.2655
0
LINE
8
BLACK
6
CONTINUOUS
10
1.22047
20
2.2655
11
1.22047
21
2.24631
0
LINE
8
BLACK
6
CONTINUOUS
10
1.22047
20
2.24631
11
1.21974
21
2.24264
0
LINE
8
BLACK
6
CONTINUOUS
10
1.21974
20
2.24264
11
1.21766
21
2.23952
0
LINE
8
BLACK
6
CONTINUOUS
10
1.21766
20
2.23952
11
1.21455
21
2.23744
0
LINE
8
BLACK
6
CONTINUOUS
10
1.21455
20
2.23744
11
1.21088
21
2.23671
0
LINE
8
BLACK
6
CONTINUOUS
10
1.21088
20
2.23671
11
1.17495
21
2.23671
0
LINE
8
BLACK
6
CONTINUOUS
10
1.17495
20
2.23671
11
1.17128
21
2.23744
0
LINE
8
BLACK
6
CONTINUOUS
10
1.17128
20
2.23744
11
1.16817
21
2.23952
0
LINE
8
BLACK
6
CONTINUOUS
10
1.16817
20
2.23952
11
1.16608
21
2.24264
0
LINE
8
BLACK
6
CONTINUOUS
10
1.16608
20
2.24264
11
1.16535
21
2.24631
0
LINE
8
BLACK
6
CONTINUOUS
10
1.16535
20
2.24631
11
1.16535
21
2.2655
0
LINE
8
BLACK
6
CONTINUOUS
10
1.16535
20
2.2655
11
1.16608
21
2.26917
0
LINE
8
BLACK
6
CONTINUOUS
10
1.16608
20
2.26917
11
1.16817
21
2.27229
0
LINE
8
BLACK
6
CONTINUOUS
10
1.16817
20
2.27229
11
1.17128
21
2.27437
0
LINE
8
BLACK
6
CONTINUOUS
10
1.17128
20
2.27437
11
1.17495
21
2.2751
0
LINE
8
BLACK
6
CONTINUOUS
10
1.17495
20
2.2751
11
1.21088
21
2.2751
0
LINE
8
BLACK
6
CONTINUOUS
10
1.21088
20
2.2751
11
1.21455
21
2.27437
0
LINE
8
BLACK
6
CONTINUOUS
10
1.13581
20
2.27437
11
1.13892
21
2.27229
0
LINE
8
BLACK
6
CONTINUOUS
10
1.13892
20
2.27229
11
1.141
21
2.26917
0
LINE
8
BLACK
6
CONTINUOUS
10
1.141
20
2.26917
11
1.14173
21
2.2655
0
LINE
8
BLACK
6
CONTINUOUS
10
1.14173
20
2.2655
11
1.14173
21
2.24631
0
LINE
8
BLACK
6
CONTINUOUS
10
1.14173
20
2.24631
11
1.141
21
2.24264
0
LINE
8
BLACK
6
CONTINUOUS
10
1.141
20
2.24264
11
1.13892
21
2.23952
0
LINE
8
BLACK
6
CONTINUOUS
10
1.13892
20
2.23952
11
1.13581
21
2.23744
0
LINE
8
BLACK
6
CONTINUOUS
10
1.13581
20
2.23744
11
1.13214
21
2.23671
0
LINE
8
BLACK
6
CONTINUOUS
10
1.13214
20
2.23671
11
1.09621
21
2.23671
0
LINE
8
BLACK
6
CONTINUOUS
10
1.09621
20
2.23671
11
1.09254
21
2.23744
0
LINE
8
BLACK
6
CONTINUOUS
10
1.09254
20
2.23744
11
1.08942
21
2.23952
0
LINE
8
BLACK
6
CONTINUOUS
10
1.08942
20
2.23952
11
1.08734
21
2.24264
0
LINE
8
BLACK
6
CONTINUOUS
10
1.08734
20
2.24264
11
1.08661
21
2.24631
0
LINE
8
BLACK
6
CONTINUOUS
10
1.08661
20
2.24631
11
1.08661
21
2.2655
0
LINE
8
BLACK
6
CONTINUOUS
10
1.08661
20
2.2655
11
1.08734
21
2.26917
0
LINE
8
BLACK
6
CONTINUOUS
10
1.08734
20
2.26917
11
1.08942
21
2.27229
0
LINE
8
BLACK
6
CONTINUOUS
10
1.08942
20
2.27229
11
1.09254
21
2.27437
0
LINE
8
BLACK
6
CONTINUOUS
10
1.09254
20
2.27437
11
1.09621
21
2.2751
0
LINE
8
BLACK
6
CONTINUOUS
10
1.09621
20
2.2751
11
1.13214
21
2.2751
0
LINE
8
BLACK
6
CONTINUOUS
10
1.13214
20
2.2751
11
1.13581
21
2.27437
0
LINE
8
BLACK
6
CONTINUOUS
10
0.0086502
20
2.51779
11
0.0221317
21
2.51602
0
LINE
8
BLACK
6
CONTINUOUS
10
0.0221317
20
2.51602
11
0.0353198
21
2.51271
0
LINE
8
BLACK
6
CONTINUOUS
10
0.0353198
20
2.51271
11
0.0480398
21
2.5079
0
LINE
8
BLACK
6
CONTINUOUS
10
0.0480398
20
2.5079
11
0.060123
21
2.50166
0
LINE
8
BLACK
6
CONTINUOUS
10
0.060123
20
2.50166
11
0.0714093
21
2.49408
0
LINE
8
BLACK
6
CONTINUOUS
10
0.0714093
20
2.49408
11
0.0817492
21
2.48525
0
LINE
8
BLACK
6
CONTINUOUS
10
0.0817492
20
2.48525
11
0.0910055
21
2.47529
0
LINE
8
BLACK
6
CONTINUOUS
10
0.0910055
20
2.47529
11
0.0990556
21
2.46433
0
LINE
8
BLACK
6
CONTINUOUS
10
0.0990556
20
2.46433
11
0.105793
21
2.45252
0
LINE
8
BLACK
6
CONTINUOUS
10
0.105793
20
2.45252
11
0.111128
21
2.44001
0
LINE
8
BLACK
6
CONTINUOUS
10
0.111128
20
2.44001
11
0.11499
21
2.42697
0
LINE
8
BLACK
6
CONTINUOUS
10
0.11499
20
2.42697
11
0.117327
21
2.41358
0
LINE
8
BLACK
6
CONTINUOUS
10
0.117327
20
2.41358
11
0.11811
21
2.4
0
LINE
8
BLACK
6
CONTINUOUS
10
0.11811
20
2.4
11
0.117877
21
2.39258
0
LINE
8
BLACK
6
CONTINUOUS
10
0.117877
20
2.39258
11
0.116244
21
2.37908
0
LINE
8
BLACK
6
CONTINUOUS
10
0.116244
20
2.37908
11
0.113069
21
2.36586
0
LINE
8
BLACK
6
CONTINUOUS
10
0.113069
20
2.36586
11
0.108396
21
2.35309
0
LINE
8
BLACK
6
CONTINUOUS
10
0.108396
20
2.35309
11
0.102286
21
2.34094
0
LINE
8
BLACK
6
CONTINUOUS
10
0.102286
20
2.34094
11
0.0948209
21
2.32958
0
LINE
8
BLACK
6
CONTINUOUS
10
0.0948209
20
2.32958
11
0.0860987
21
2.31915
0
LINE
8
BLACK
6
CONTINUOUS
10
0.0860987
20
2.31915
11
0.0762352
21
2.30979
0
LINE
8
BLACK
6
CONTINUOUS
10
0.0762352
20
2.30979
11
0.0653612
21
2.30162
0
LINE
8
BLACK
6
CONTINUOUS
10
0.0653612
20
2.30162
11
0.0536209
21
2.29476
0
LINE
8
BLACK
6
CONTINUOUS
10
0.0536209
20
2.29476
11
0.0411699
21
2.2893
0
LINE
8
BLACK
6
CONTINUOUS
10
0.0411699
20
2.2893
11
0.0281732
21
2.2853
0
LINE
8
BLACK
6
CONTINUOUS
10
0.0281732
20
2.2853
11
0.0148031
21
2.28282
0
LINE
8
BLACK
6
CONTINUOUS
10
0.0148031
20
2.28282
11
0.00123681
21
2.2819
0
LINE
8
BLACK
6
CONTINUOUS
10
0.00123681
20
2.2819
11
-0.0123459
21
2.28254
0
LINE
8
BLACK
6
CONTINUOUS
10
-0.0123459
20
2.28254
11
-0.025765
21
2.28473
0
LINE
8
BLACK
6
CONTINUOUS
10
-0.025765
20
2.28473
11
-0.0388425
21
2.28846
0
LINE
8
BLACK
6
CONTINUOUS
10
-0.0388425
20
2.28846
11
-0.0514052
21
2.29366
0
LINE
8
BLACK
6
CONTINUOUS
10
-0.0514052
20
2.29366
11
-0.0632866
21
2.30028
0
LINE
8
BLACK
6
CONTINUOUS
10
-0.0632866
20
2.30028
11
-0.0743292
21
2.30821
0
LINE
8
BLACK
6
CONTINUOUS
10
-0.0743292
20
2.30821
11
-0.0843865
21
2.31736
0
LINE
8
BLACK
6
CONTINUOUS
10
-0.0843865
20
2.31736
11
-0.0933254
21
2.32761
0
LINE
8
BLACK
6
CONTINUOUS
10
-0.0933254
20
2.32761
11
-0.101027
21
2.33882
0
LINE
8
BLACK
6
CONTINUOUS
10
-0.101027
20
2.33882
11
-0.10739
21
2.35083
0
LINE
8
BLACK
6
CONTINUOUS
10
-0.10739
20
2.35083
11
-0.11233
21
2.3635
0
LINE
8
BLACK
6
CONTINUOUS
10
-0.11233
20
2.3635
11
-0.11578
21
2.37665
0
LINE
8
BLACK
6
CONTINUOUS
10
-0.11578
20
2.37665
11
-0.117696
21
2.39012
0
LINE
8
BLACK
6
CONTINUOUS
10
-0.117696
20
2.39012
11
-0.118052
21
2.40371
0
LINE
8
BLACK
6
CONTINUOUS
10
-0.118052
20
2.40371
11
-0.116843
21
2.41725
0
LINE
8
BLACK
6
CONTINUOUS
10
-0.116843
20
2.41725
11
-0.114086
21
2.43057
0
LINE
8
BLACK
6
CONTINUOUS
10
-0.114086
20
2.43057
11
-0.109816
21
2.44348
0
LINE
8
BLACK
6
CONTINUOUS
10
-0.109816
20
2.44348
11
-0.104091
21
2.45581
0
LINE
8
BLACK
6
CONTINUOUS
10
-0.104091
20
2.45581
11
-0.0969861
21
2.46741
0
LINE
8
BLACK
6
CONTINUOUS
10
-0.0969861
20
2.46741
11
-0.0885958
21
2.47811
0
LINE
8
BLACK
6
CONTINUOUS
10
-0.0885958
20
2.47811
11
-0.0790312
21
2.48777
0
LINE
8
BLACK
6
CONTINUOUS
10
-0.0790312
20
2.48777
11
-0.0684191
21
2.49627
0
LINE
8
BLACK
6
CONTINUOUS
10
-0.0684191
20
2.49627
11
-0.0569
21
2.5035
0
LINE
8
BLACK
6
CONTINUOUS
10
-0.0569
20
2.5035
11
-0.0446269
21
2.50935
0
LINE
8
BLACK
6
CONTINUOUS
10
-0.0446269
20
2.50935
11
-0.0317622
21
2.51376
0
LINE
8
BLACK
6
CONTINUOUS
10
-0.0317622
20
2.51376
11
-0.0184765
21
2.51666
0
LINE
8
BLACK
6
CONTINUOUS
10
-0.0184765
20
2.51666
11
-0.00494594
21
2.51801
0
LINE
8
BLACK
6
CONTINUOUS
10
-0.00494594
20
2.51801
11
0.0086502
21
2.51779
0
LINE
8
BLACK
6
CONTINUOUS
10
2.00865
20
2.51779
11
2.02213
21
2.51602
0
LINE
8
BLACK
6
CONTINUOUS
10
2.02213
20
2.51602
11
2.03532
21
2.51271
0
LINE
8
BLACK
6
CONTINUOUS
10
2.03532
20
2.51271
11
2.04804
21
2.5079
0
LINE
8
BLACK
6
CONTINUOUS
10
2.04804
20
2.5079
11
2.06012
21
2.50166
0
LINE
8
BLACK
6
CONTINUOUS
10
2.06012
20
2.50166
11
2.07141
21
2.49408
0
LINE
8
BLACK
6
CONTINUOUS
10
2.07141
20
2.49408
11
2.08175
21
2.48525
0
LINE
8
BLACK
6
CONTINUOUS
10
2.08175
20
2.48525
11
2.09101
21
2.47529
0
LINE
8
BLACK
6
CONTINUOUS
10
2.09101
20
2.47529
11
2.09906
21
2.46433
0
LINE
8
BLACK
6
CONTINUOUS
10
2.09906
20
2.46433
11
2.10579
21
2.45252
0
LINE
8
BLACK
6
CONTINUOUS
10
2.10579
20
2.45252
11
2.11113
21
2.44001
0
LINE
8
BLACK
6
CONTINUOUS
10
2.11113
20
2.44001
11
2.11499
21
2.42697
0
LINE
8
BLACK
6
CONTINUOUS
10
2.11499
20
2.42697
11
2.11733
21
2.41358
0
LINE
8
BLACK
6
CONTINUOUS
10
2.11733
20
2.41358
11
2.11811
21
2.4
0
LINE
8
BLACK
6
CONTINUOUS
10
2.11811
20
2.4
11
2.11788
21
2.39258
0
LINE
8
BLACK
6
CONTINUOUS
10
2.11788
20
2.39258
11
2.11624
21
2.37908
0
LINE
8
BLACK
6
CONTINUOUS
10
2.11624
20
2.37908
11
2.11307
21
2.36586
0
LINE
8
BLACK
6
CONTINUOUS
10
2.11307
20
2.36586
11
2.1084
21
2.35309
0
LINE
8
BLACK
6
CONTINUOUS
10
2.1084
20
2.35309
11
2.10229
21
2.34094
0
LINE
8
BLACK
6
CONTINUOUS
10
2.10229
20
2.34094
11
2.09482
21
2.32958
0
LINE
8
BLACK
6
CONTINUOUS
10
2.09482
20
2.32958
11
2.0861
21
2.31915
0
LINE
8
BLACK
6
CONTINUOUS
10
2.0861
20
2.31915
11
2.07624
21
2.30979
0
LINE
8
BLACK
6
CONTINUOUS
10
2.07624
20
2.30979
11
2.06536
21
2.30162
0
LINE
8
BLACK
6
CONTINUOUS
10
2.06536
20
2.30162
11
2.05362
21
2.29476
0
LINE
8
BLACK
6
CONTINUOUS
10
2.05362
20
2.29476
11
2.04117
21
2.2893
0
LINE
8
BLACK
6
CONTINUOUS
10
2.04117
20
2.2893
11
2.02817
21
2.2853
0
LINE
8
BLACK
6
CONTINUOUS
10
2.02817
20
2.2853
11
2.0148
21
2.28282
0
LINE
8
BLACK
6
CONTINUOUS
10
2.0148
20
2.28282
11
2.00124
21
2.2819
0
LINE
8
BLACK
6
CONTINUOUS
10
2.00124
20
2.2819
11
1.98765
21
2.28254
0
LINE
8
BLACK
6
CONTINUOUS
10
1.98765
20
2.28254
11
1.97424
21
2.28473
0
LINE
8
BLACK
6
CONTINUOUS
10
1.97424
20
2.28473
11
1.96116
21
2.28846
0
LINE
8
BLACK
6
CONTINUOUS
10
1.96116
20
2.28846
11
1.94859
21
2.29366
0
LINE
8
BLACK
6
CONTINUOUS
10
1.94859
20
2.29366
11
1.93671
21
2.30028
0
LINE
8
BLACK
6
CONTINUOUS
10
1.93671
20
2.30028
11
1.92567
21
2.30821
0
LINE
8
BLACK
6
CONTINUOUS
10
1.92567
20
2.30821
11
1.91561
21
2.31736
0
LINE
8
BLACK
6
CONTINUOUS
10
1.91561
20
2.31736
11
1.90667
21
2.32761
0
LINE
8
BLACK
6
CONTINUOUS
10
1.90667
20
2.32761
11
1.89897
21
2.33882
0
LINE
8
BLACK
6
CONTINUOUS
10
1.89897
20
2.33882
11
1.89261
21
2.35083
0
LINE
8
BLACK
6
CONTINUOUS
10
1.89261
20
2.35083
11
1.88767
21
2.3635
0
LINE
8
BLACK
6
CONTINUOUS
10
1.88767
20
2.3635
11
1.88422
21
2.37665
0
LINE
8
BLACK
6
CONTINUOUS
10
1.88422
20
2.37665
11
1.8823
21
2.39012
0
LINE
8
BLACK
6
CONTINUOUS
10
1.8823
20
2.39012
11
1.88195
21
2.40371
0
LINE
8
BLACK
6
CONTINUOUS
10
1.88195
20
2.40371
11
1.88316
21
2.41725
0
LINE
8
BLACK
6
CONTINUOUS
10
1.88316
20
2.41725
11
1.88591
21
2.43057
0
LINE
8
BLACK
6
CONTINUOUS
10
1.88591
20
2.43057
11
1.89018
21
2.44348
0
LINE
8
BLACK
6
CONTINUOUS
10
1.89018
20
2.44348
11
1.89591
21
2.45581
0
LINE
8
BLACK
6
CONTINUOUS
10
1.89591
20
2.45581
11
1.90301
21
2.46741
0
LINE
8
BLACK
6
CONTINUOUS
10
1.90301
20
2.46741
11
1.9114
21
2.47811
0
LINE
8
BLACK
6
CONTINUOUS
10
1.9114
20
2.47811
11
1.92097
21
2.48777
0
LINE
8
BLACK
6
CONTINUOUS
10
1.92097
20
2.48777
11
1.93158
21
2.49627
0
LINE
8
BLACK
6
CONTINUOUS
10
1.93158
20
2.49627
11
1.9431
21
2.5035
0
LINE
8
BLACK
6
CONTINUOUS
10
1.9431
20
2.5035
11
1.95537
21
2.50935
0
LINE
8
BLACK
6
CONTINUOUS
10
1.95537
20
2.50935
11
1.96824
21
2.51376
0
LINE
8
BLACK
6
CONTINUOUS
10
1.96824
20
2.51376
11
1.98152
21
2.51666
0
LINE
8
BLACK
6
CONTINUOUS
10
1.98152
20
2.51666
11
1.99505
21
2.51801
0
LINE
8
BLACK
6
CONTINUOUS
10
1.99505
20
2.51801
11
2.00865
21
2.51779
0
LINE
8
BLACK
6
CONTINUOUS
10
0.413491
20
2.37277
11
0.419882
21
2.36993
0
LINE
8
BLACK
6
CONTINUOUS
10
0.419882
20
2.36993
11
0.425542
21
2.36581
0
LINE
8
BLACK
6
CONTINUOUS
10
0.425542
20
2.36581
11
0.430223
21
2.36061
0
LINE
8
BLACK
6
CONTINUOUS
10
0.430223
20
2.36061
11
0.433721
21
2.35456
0
LINE
8
BLACK
6
CONTINUOUS
10
0.433721
20
2.35456
11
0.435883
21
2.3479
0
LINE
8
BLACK
6
CONTINUOUS
10
0.435883
20
2.3479
11
0.436614
21
2.34094
0
LINE
8
BLACK
6
CONTINUOUS
10
0.436614
20
2.34094
11
0.435883
21
2.33399
0
LINE
8
BLACK
6
CONTINUOUS
10
0.435883
20
2.33399
11
0.433721
21
2.32733
0
LINE
8
BLACK
6
CONTINUOUS
10
0.433721
20
2.32733
11
0.430223
21
2.32127
0
LINE
8
BLACK
6
CONTINUOUS
10
0.430223
20
2.32127
11
0.425542
21
2.31608
0
LINE
8
BLACK
6
CONTINUOUS
10
0.425542
20
2.31608
11
0.419882
21
2.31196
0
LINE
8
BLACK
6
CONTINUOUS
10
0.419882
20
2.31196
11
0.413491
21
2.30912
0
LINE
8
BLACK
6
CONTINUOUS
10
0.413491
20
2.30912
11
0.406648
21
2.30766
0
LINE
8
BLACK
6
CONTINUOUS
10
0.406648
20
2.30766
11
0.399652
21
2.30766
0
LINE
8
BLACK
6
CONTINUOUS
10
0.399652
20
2.30766
11
0.392809
21
2.30912
0
LINE
8
BLACK
6
CONTINUOUS
10
0.392809
20
2.30912
11
0.386417
21
2.31196
0
LINE
8
BLACK
6
CONTINUOUS
10
0.386417
20
2.31196
11
0.380757
21
2.31608
0
LINE
8
BLACK
6
CONTINUOUS
10
0.380757
20
2.31608
11
0.376076
21
2.32127
0
LINE
8
BLACK
6
CONTINUOUS
10
0.376076
20
2.32127
11
0.372578
21
2.32733
0
LINE
8
BLACK
6
CONTINUOUS
10
0.372578
20
2.32733
11
0.370416
21
2.33399
0
LINE
8
BLACK
6
CONTINUOUS
10
0.370416
20
2.33399
11
0.369685
21
2.34094
0
LINE
8
BLACK
6
CONTINUOUS
10
0.369685
20
2.34094
11
0.370416
21
2.3479
0
LINE
8
BLACK
6
CONTINUOUS
10
0.370416
20
2.3479
11
0.372578
21
2.35456
0
LINE
8
BLACK
6
CONTINUOUS
10
0.372578
20
2.35456
11
0.376076
21
2.36061
0
LINE
8
BLACK
6
CONTINUOUS
10
0.376076
20
2.36061
11
0.380757
21
2.36581
0
LINE
8
BLACK
6
CONTINUOUS
10
0.380757
20
2.36581
11
0.386417
21
2.36993
0
LINE
8
BLACK
6
CONTINUOUS
10
0.386417
20
2.36993
11
0.392809
21
2.37277
0
LINE
8
BLACK
6
CONTINUOUS
10
0.392809
20
2.37277
11
0.399652
21
2.37423
0
LINE
8
BLACK
6
CONTINUOUS
10
0.399652
20
2.37423
11
0.406648
21
2.37423
0
LINE
8
BLACK
6
CONTINUOUS
10
0.406648
20
2.37423
11
0.413491
21
2.37277
0
LINE
8
BLACK
6
CONTINUOUS
10
0.613491
20
2.37277
11
0.619882
21
2.36993
0
LINE
8
BLACK
6
CONTINUOUS
10
0.619882
20
2.36993
11
0.625542
21
2.36581
0
LINE
8
BLACK
6
CONTINUOUS
10
0.625542
20
2.36581
11
0.630223
21
2.36061
0
LINE
8
BLACK
6
CONTINUOUS
10
0.630223
20
2.36061
11
0.633721
21
2.35456
0
LINE
8
BLACK
6
CONTINUOUS
10
0.633721
20
2.35456
11
0.635883
21
2.3479
0
LINE
8
BLACK
6
CONTINUOUS
10
0.635883
20
2.3479
11
0.636614
21
2.34094
0
LINE
8
BLACK
6
CONTINUOUS
10
0.636614
20
2.34094
11
0.635883
21
2.33399
0
LINE
8
BLACK
6
CONTINUOUS
10
0.635883
20
2.33399
11
0.633721
21
2.32733
0
LINE
8
BLACK
6
CONTINUOUS
10
0.633721
20
2.32733
11
0.630223
21
2.32127
0
LINE
8
BLACK
6
CONTINUOUS
10
0.630223
20
2.32127
11
0.625542
21
2.31608
0
LINE
8
BLACK
6
CONTINUOUS
10
0.625542
20
2.31608
11
0.619882
21
2.31196
0
LINE
8
BLACK
6
CONTINUOUS
10
0.619882
20
2.31196
11
0.613491
21
2.30912
0
LINE
8
BLACK
6
CONTINUOUS
10
0.613491
20
2.30912
11
0.606648
21
2.30766
0
LINE
8
BLACK
6
CONTINUOUS
10
0.606648
20
2.30766
11
0.599652
21
2.30766
0
LINE
8
BLACK
6
CONTINUOUS
10
0.599652
20
2.30766
11
0.592809
21
2.30912
0
LINE
8
BLACK
6
CONTINUOUS
10
0.592809
20
2.30912
11
0.586417
21
2.31196
0
LINE
8
BLACK
6
CONTINUOUS
10
0.586417
20
2.31196
11
0.580757
21
2.31608
0
LINE
8
BLACK
6
CONTINUOUS
10
0.580757
20
2.31608
11
0.576076
21
2.32127
0
LINE
8
BLACK
6
CONTINUOUS
10
0.576076
20
2.32127
11
0.572578
21
2.32733
0
LINE
8
BLACK
6
CONTINUOUS
10
0.572578
20
2.32733
11
0.570416
21
2.33399
0
LINE
8
BLACK
6
CONTINUOUS
10
0.570416
20
2.33399
11
0.569685
21
2.34094
0
LINE
8
BLACK
6
CONTINUOUS
10
0.569685
20
2.34094
11
0.570416
21
2.3479
0
LINE
8
BLACK
6
CONTINUOUS
10
0.570416
20
2.3479
11
0.572578
21
2.35456
0
LINE
8
BLACK
6
CONTINUOUS
10
0.572578
20
2.35456
11
0.576076
21
2.36061
0
LINE
8
BLACK
6
CONTINUOUS
10
0.576076
20
2.36061
11
0.580757
21
2.36581
0
LINE
8
BLACK
6
CONTINUOUS
10
0.580757
20
2.36581
11
0.586417
21
2.36993
0
LINE
8
BLACK
6
CONTINUOUS
10
0.586417
20
2.36993
11
0.592809
21
2.37277
0
LINE
8
BLACK
6
CONTINUOUS
10
0.592809
20
2.37277
11
0.599652
21
2.37423
0
LINE
8
BLACK
6
CONTINUOUS
10
0.599652
20
2.37423
11
0.606648
21
2.37423
0
LINE
8
BLACK
6
CONTINUOUS
10
0.606648
20
2.37423
11
0.613491
21
2.37277
0
LINE
8
BLACK
6
CONTINUOUS
10
0.313491
20
2.37277
11
0.319882
21
2.36993
0
LINE
8
BLACK
6
CONTINUOUS
10
0.319882
20
2.36993
11
0.325542
21
2.36581
0
LINE
8
BLACK
6
CONTINUOUS
10
0.325542
20
2.36581
11
0.330223
21
2.36061
0
LINE
8
BLACK
6
CONTINUOUS
10
0.330223
20
2.36061
11
0.333721
21
2.35456
0
LINE
8
BLACK
6
CONTINUOUS
10
0.333721
20
2.35456
11
0.335883
21
2.3479
0
LINE
8
BLACK
6
CONTINUOUS
10
0.335883
20
2.3479
11
0.336614
21
2.34094
0
LINE
8
BLACK
6
CONTINUOUS
10
0.336614
20
2.34094
11
0.335883
21
2.33399
0
LINE
8
BLACK
6
CONTINUOUS
10
0.335883
20
2.33399
11
0.333721
21
2.32733
0
LINE
8
BLACK
6
CONTINUOUS
10
0.333721
20
2.32733
11
0.330223
21
2.32127
0
LINE
8
BLACK
6
CONTINUOUS
10
0.330223
20
2.32127
11
0.325542
21
2.31608
0
LINE
8
BLACK
6
CONTINUOUS
10
0.325542
20
2.31608
11
0.319882
21
2.31196
0
LINE
8
BLACK
6
CONTINUOUS
10
0.319882
20
2.31196
11
0.313491
21
2.30912
0
LINE
8
BLACK
6
CONTINUOUS
10
0.313491
20
2.30912
11
0.306648
21
2.30766
0
LINE
8
BLACK
6
CONTINUOUS
10
0.306648
20
2.30766
11
0.299652
21
2.30766
0
LINE
8
BLACK
6
CONTINUOUS
10
0.299652
20
2.30766
11
0.292809
21
2.30912
0
LINE
8
BLACK
6
CONTINUOUS
10
0.292809
20
2.30912
11
0.286417
21
2.31196
0
LINE
8
BLACK
6
CONTINUOUS
10
0.286417
20
2.31196
11
0.280757
21
2.31608
0
LINE
8
BLACK
6
CONTINUOUS
10
0.280757
20
2.31608
11
0.276076
21
2.32127
0
LINE
8
BLACK
6
CONTINUOUS
10
0.276076
20
2.32127
11
0.272578
21
2.32733
0
LINE
8
BLACK
6
CONTINUOUS
10
0.272578
20
2.32733
11
0.270416
21
2.33399
0
LINE
8
BLACK
6
CONTINUOUS
10
0.270416
20
2.33399
11
0.269685
21
2.34094
0
LINE
8
BLACK
6
CONTINUOUS
10
0.269685
20
2.34094
11
0.270416
21
2.3479
0
LINE
8
BLACK
6
CONTINUOUS
10
0.270416
20
2.3479
11
0.272578
21
2.35456
0
LINE
8
BLACK
6
CONTINUOUS
10
0.272578
20
2.35456
11
0.276076
21
2.36061
0
LINE
8
BLACK
6
CONTINUOUS
10
0.276076
20
2.36061
11
0.280757
21
2.36581
0
LINE
8
BLACK
6
CONTINUOUS
10
0.280757
20
2.36581
11
0.286417
21
2.36993
0
LINE
8
BLACK
6
CONTINUOUS
10
0.286417
20
2.36993
11
0.292809
21
2.37277
0
LINE
8
BLACK
6
CONTINUOUS
10
0.292809
20
2.37277
11
0.299652
21
2.37423
0
LINE
8
BLACK
6
CONTINUOUS
10
0.299652
20
2.37423
11
0.306648
21
2.37423
0
LINE
8
BLACK
6
CONTINUOUS
10
0.306648
20
2.37423
11
0.313491
21
2.37277
0
LINE
8
BLACK
6
CONTINUOUS
10
0.513491
20
2.37277
11
0.519882
21
2.36993
0
LINE
8
BLACK
6
CONTINUOUS
10
0.519882
20
2.36993
11
0.525542
21
2.36581
0
LINE
8
BLACK
6
CONTINUOUS
10
0.525542
20
2.36581
11
0.530223
21
2.36061
0
LINE
8
BLACK
6
CONTINUOUS
10
0.530223
20
2.36061
11
0.533721
21
2.35456
0
LINE
8
BLACK
6
CONTINUOUS
10
0.533721
20
2.35456
11
0.535883
21
2.3479
0
LINE
8
BLACK
6
CONTINUOUS
10
0.535883
20
2.3479
11
0.536614
21
2.34094
0
LINE
8
BLACK
6
CONTINUOUS
10
0.536614
20
2.34094
11
0.535883
21
2.33399
0
LINE
8
BLACK
6
CONTINUOUS
10
0.535883
20
2.33399
11
0.533721
21
2.32733
0
LINE
8
BLACK
6
CONTINUOUS
10
0.533721
20
2.32733
11
0.530223
21
2.32127
0
LINE
8
BLACK
6
CONTINUOUS
10
0.530223
20
2.32127
11
0.525542
21
2.31608
0
LINE
8
BLACK
6
CONTINUOUS
10
0.525542
20
2.31608
11
0.519882
21
2.31196
0
LINE
8
BLACK
6
CONTINUOUS
10
0.519882
20
2.31196
11
0.513491
21
2.30912
0
LINE
8
BLACK
6
CONTINUOUS
10
0.513491
20
2.30912
11
0.506648
21
2.30766
0
LINE
8
BLACK
6
CONTINUOUS
10
0.506648
20
2.30766
11
0.499652
21
2.30766
0
LINE
8
BLACK
6
CONTINUOUS
10
0.499652
20
2.30766
11
0.492809
21
2.30912
0
LINE
8
BLACK
6
CONTINUOUS
10
0.492809
20
2.30912
11
0.486417
21
2.31196
0
LINE
8
BLACK
6
CONTINUOUS
10
0.486417
20
2.31196
11
0.480757
21
2.31608
0
LINE
8
BLACK
6
CONTINUOUS
10
0.480757
20
2.31608
11
0.476076
21
2.32127
0
LINE
8
BLACK
6
CONTINUOUS
10
0.476076
20
2.32127
11
0.472578
21
2.32733
0
LINE
8
BLACK
6
CONTINUOUS
10
0.472578
20
2.32733
11
0.470416
21
2.33399
0
LINE
8
BLACK
6
CONTINUOUS
10
0.470416
20
2.33399
11
0.469685
21
2.34094
0
LINE
8
BLACK
6
CONTINUOUS
10
0.469685
20
2.34094
11
0.470416
21
2.3479
0
LINE
8
BLACK
6
CONTINUOUS
10
0.470416
20
2.3479
11
0.472578
21
2.35456
0
LINE
8
BLACK
6
CONTINUOUS
10
0.472578
20
2.35456
11
0.476076
21
2.36061
0
LINE
8
BLACK
6
CONTINUOUS
10
0.476076
20
2.36061
11
0.480757
21
2.36581
0
LINE
8
BLACK
6
CONTINUOUS
10
0.480757
20
2.36581
11
0.486417
21
2.36993
0
LINE
8
BLACK
6
CONTINUOUS
10
0.486417
20
2.36993
11
0.492809
21
2.37277
0
LINE
8
BLACK
6
CONTINUOUS
10
0.492809
20
2.37277
11
0.499652
21
2.37423
0
LINE
8
BLACK
6
CONTINUOUS
10
0.499652
20
2.37423
11
0.506648
21
2.37423
0
LINE
8
BLACK
6
CONTINUOUS
10
0.506648
20
2.37423
11
0.513491
21
2.37277
0
LINE
8
BLACK
6
CONTINUOUS
10
1.0379
20
2.37671
11
1.04429
21
2.37386
0
LINE
8
BLACK
6
CONTINUOUS
10
1.04429
20
2.37386
11
1.04995
21
2.36975
0
LINE
8
BLACK
6
CONTINUOUS
10
1.04995
20
2.36975
11
1.05463
21
2.36455
0
LINE
8
BLACK
6
CONTINUOUS
10
1.05463
20
2.36455
11
1.05813
21
2.35849
0
LINE
8
BLACK
6
CONTINUOUS
10
1.05813
20
2.35849
11
1.06029
21
2.35184
0
LINE
8
BLACK
6
CONTINUOUS
10
1.06029
20
2.35184
11
1.06102
21
2.34488
0
LINE
8
BLACK
6
CONTINUOUS
10
1.06102
20
2.34488
11
1.06029
21
2.33792
0
LINE
8
BLACK
6
CONTINUOUS
10
1.06029
20
2.33792
11
1.05813
21
2.33127
0
LINE
8
BLACK
6
CONTINUOUS
10
1.05813
20
2.33127
11
1.05463
21
2.32521
0
LINE
8
BLACK
6
CONTINUOUS
10
1.05463
20
2.32521
11
1.04995
21
2.32001
0
LINE
8
BLACK
6
CONTINUOUS
10
1.04995
20
2.32001
11
1.04429
21
2.3159
0
LINE
8
BLACK
6
CONTINUOUS
10
1.04429
20
2.3159
11
1.0379
21
2.31306
0
LINE
8
BLACK
6
CONTINUOUS
10
1.0379
20
2.31306
11
1.03106
21
2.3116
0
LINE
8
BLACK
6
CONTINUOUS
10
1.03106
20
2.3116
11
1.02406
21
2.3116
0
LINE
8
BLACK
6
CONTINUOUS
10
1.02406
20
2.3116
11
1.01722
21
2.31306
0
LINE
8
BLACK
6
CONTINUOUS
10
1.01722
20
2.31306
11
1.01083
21
2.3159
0
LINE
8
BLACK
6
CONTINUOUS
10
1.01083
20
2.3159
11
1.00517
21
2.32001
0
LINE
8
BLACK
6
CONTINUOUS
10
1.00517
20
2.32001
11
1.00049
21
2.32521
0
LINE
8
BLACK
6
CONTINUOUS
10
1.00049
20
2.32521
11
0.996988
21
2.33127
0
LINE
8
BLACK
6
CONTINUOUS
10
0.996988
20
2.33127
11
0.994826
21
2.33792
0
LINE
8
BLACK
6
CONTINUOUS
10
0.994826
20
2.33792
11
0.994094
21
2.34488
0
LINE
8
BLACK
6
CONTINUOUS
10
0.994094
20
2.34488
11
0.994826
21
2.35184
0
LINE
8
BLACK
6
CONTINUOUS
10
0.994826
20
2.35184
11
0.996988
21
2.35849
0
LINE
8
BLACK
6
CONTINUOUS
10
0.996988
20
2.35849
11
1.00049
21
2.36455
0
LINE
8
BLACK
6
CONTINUOUS
10
1.00049
20
2.36455
11
1.00517
21
2.36975
0
LINE
8
BLACK
6
CONTINUOUS
10
1.00517
20
2.36975
11
1.01083
21
2.37386
0
LINE
8
BLACK
6
CONTINUOUS
10
1.01083
20
2.37386
11
1.01722
21
2.37671
0
LINE
8
BLACK
6
CONTINUOUS
10
1.01722
20
2.37671
11
1.02406
21
2.37816
0
LINE
8
BLACK
6
CONTINUOUS
10
1.02406
20
2.37816
11
1.03106
21
2.37816
0
LINE
8
BLACK
6
CONTINUOUS
10
1.03106
20
2.37816
11
1.0379
21
2.37671
0
LINE
8
BLACK
6
CONTINUOUS
10
0.9379
20
2.37671
11
0.944291
21
2.37386
0
LINE
8
BLACK
6
CONTINUOUS
10
0.944291
20
2.37386
11
0.949951
21
2.36975
0
LINE
8
BLACK
6
CONTINUOUS
10
0.949951
20
2.36975
11
0.954632
21
2.36455
0
LINE
8
BLACK
6
CONTINUOUS
10
0.954632
20
2.36455
11
0.95813
21
2.35849
0
LINE
8
BLACK
6
CONTINUOUS
10
0.95813
20
2.35849
11
0.960292
21
2.35184
0
LINE
8
BLACK
6
CONTINUOUS
10
0.960292
20
2.35184
11
0.961024
21
2.34488
0
LINE
8
BLACK
6
CONTINUOUS
10
0.961024
20
2.34488
11
0.960292
21
2.33792
0
LINE
8
BLACK
6
CONTINUOUS
10
0.960292
20
2.33792
11
0.95813
21
2.33127
0
LINE
8
BLACK
6
CONTINUOUS
10
0.95813
20
2.33127
11
0.954632
21
2.32521
0
LINE
8
BLACK
6
CONTINUOUS
10
0.954632
20
2.32521
11
0.949951
21
2.32001
0
LINE
8
BLACK
6
CONTINUOUS
10
0.949951
20
2.32001
11
0.944291
21
2.3159
0
LINE
8
BLACK
6
CONTINUOUS
10
0.944291
20
2.3159
11
0.9379
21
2.31306
0
LINE
8
BLACK
6
CONTINUOUS
10
0.9379
20
2.31306
11
0.931057
21
2.3116
0
LINE
8
BLACK
6
CONTINUOUS
10
0.931057
20
2.3116
11
0.924061
21
2.3116
0
LINE
8
BLACK
6
CONTINUOUS
10
0.924061
20
2.3116
11
0.917218
21
2.31306
0
LINE
8
BLACK
6
CONTINUOUS
10
0.917218
20
2.31306
11
0.910827
21
2.3159
0
LINE
8
BLACK
6
CONTINUOUS
10
0.910827
20
2.3159
11
0.905167
21
2.32001
0
LINE
8
BLACK
6
CONTINUOUS
10
0.905167
20
2.32001
11
0.900486
21
2.32521
0
LINE
8
BLACK
6
CONTINUOUS
10
0.900486
20
2.32521
11
0.896988
21
2.33127
0
LINE
8
BLACK
6
CONTINUOUS
10
0.896988
20
2.33127
11
0.894826
21
2.33792
0
LINE
8
BLACK
6
CONTINUOUS
10
0.894826
20
2.33792
11
0.894094
21
2.34488
0
LINE
8
BLACK
6
CONTINUOUS
10
0.894094
20
2.34488
11
0.894826
21
2.35184
0
LINE
8
BLACK
6
CONTINUOUS
10
0.894826
20
2.35184
11
0.896988
21
2.35849
0
LINE
8
BLACK
6
CONTINUOUS
10
0.896988
20
2.35849
11
0.900486
21
2.36455
0
LINE
8
BLACK
6
CONTINUOUS
10
0.900486
20
2.36455
11
0.905167
21
2.36975
0
LINE
8
BLACK
6
CONTINUOUS
10
0.905167
20
2.36975
11
0.910827
21
2.37386
0
LINE
8
BLACK
6
CONTINUOUS
10
0.910827
20
2.37386
11
0.917218
21
2.37671
0
LINE
8
BLACK
6
CONTINUOUS
10
0.917218
20
2.37671
11
0.924061
21
2.37816
0
LINE
8
BLACK
6
CONTINUOUS
10
0.924061
20
2.37816
11
0.931057
21
2.37816
0
LINE
8
BLACK
6
CONTINUOUS
10
0.931057
20
2.37816
11
0.9379
21
2.37671
0
LINE
8
BLACK
6
CONTINUOUS
10
0.8379
20
2.37671
11
0.844291
21
2.37386
0
LINE
8
BLACK
6
CONTINUOUS
10
0.844291
20
2.37386
11
0.849951
21
2.36975
0
LINE
8
BLACK
6
CONTINUOUS
10
0.849951
20
2.36975
11
0.854632
21
2.36455
0
LINE
8
BLACK
6
CONTINUOUS
10
0.854632
20
2.36455
11
0.85813
21
2.35849
0
LINE
8
BLACK
6
CONTINUOUS
10
0.85813
20
2.35849
11
0.860292
21
2.35184
0
LINE
8
BLACK
6
CONTINUOUS
10
0.860292
20
2.35184
11
0.861024
21
2.34488
0
LINE
8
BLACK
6
CONTINUOUS
10
0.861024
20
2.34488
11
0.860292
21
2.33792
0
LINE
8
BLACK
6
CONTINUOUS
10
0.860292
20
2.33792
11
0.85813
21
2.33127
0
LINE
8
BLACK
6
CONTINUOUS
10
0.85813
20
2.33127
11
0.854632
21
2.32521
0
LINE
8
BLACK
6
CONTINUOUS
10
0.854632
20
2.32521
11
0.849951
21
2.32001
0
LINE
8
BLACK
6
CONTINUOUS
10
0.849951
20
2.32001
11
0.844291
21
2.3159
0
LINE
8
BLACK
6
CONTINUOUS
10
0.844291
20
2.3159
11
0.8379
21
2.31306
0
LINE
8
BLACK
6
CONTINUOUS
10
0.8379
20
2.31306
11
0.831057
21
2.3116
0
LINE
8
BLACK
6
CONTINUOUS
10
0.831057
20
2.3116
11
0.824061
21
2.3116
0
LINE
8
BLACK
6
CONTINUOUS
10
0.824061
20
2.3116
11
0.817218
21
2.31306
0
LINE
8
BLACK
6
CONTINUOUS
10
0.817218
20
2.31306
11
0.810827
21
2.3159
0
LINE
8
BLACK
6
CONTINUOUS
10
0.810827
20
2.3159
11
0.805167
21
2.32001
0
LINE
8
BLACK
6
CONTINUOUS
10
0.805167
20
2.32001
11
0.800486
21
2.32521
0
LINE
8
BLACK
6
CONTINUOUS
10
0.800486
20
2.32521
11
0.796988
21
2.33127
0
LINE
8
BLACK
6
CONTINUOUS
10
0.796988
20
2.33127
11
0.794826
21
2.33792
0
LINE
8
BLACK
6
CONTINUOUS
10
0.794826
20
2.33792
11
0.794094
21
2.34488
0
LINE
8
BLACK
6
CONTINUOUS
10
0.794094
20
2.34488
11
0.794826
21
2.35184
0
LINE
8
BLACK
6
CONTINUOUS
10
0.794826
20
2.35184
11
0.796988
21
2.35849
0
LINE
8
BLACK
6
CONTINUOUS
10
0.796988
20
2.35849
11
0.800486
21
2.36455
0
LINE
8
BLACK
6
CONTINUOUS
10
0.800486
20
2.36455
11
0.805167
21
2.36975
0
LINE
8
BLACK
6
CONTINUOUS
10
0.805167
20
2.36975
11
0.810827
21
2.37386
0
LINE
8
BLACK
6
CONTINUOUS
10
0.810827
20
2.37386
11
0.817218
21
2.37671
0
LINE
8
BLACK
6
CONTINUOUS
10
0.817218
20
2.37671
11
0.824061
21
2.37816
0
LINE
8
BLACK
6
CONTINUOUS
10
0.824061
20
2.37816
11
0.831057
21
2.37816
0
LINE
8
BLACK
6
CONTINUOUS
10
0.831057
20
2.37816
11
0.8379
21
2.37671
0
LINE
8
BLACK
6
CONTINUOUS
10
1.29134
20
2.31201
11
1.22441
21
2.31201
0
LINE
8
BLACK
6
CONTINUOUS
10
1.22441
20
2.31201
11
1.22441
21
2.37894
0
LINE
8
BLACK
6
CONTINUOUS
10
1.22441
20
2.37894
11
1.29134
21
2.37894
0
LINE
8
BLACK
6
CONTINUOUS
10
1.29134
20
2.37894
11
1.29134
21
2.31201
0
LINE
8
BLACK
6
CONTINUOUS
10
1.56822
20
2.3773
11
1.57461
21
2.37445
0
LINE
8
BLACK
6
CONTINUOUS
10
1.57461
20
2.37445
11
1.58027
21
2.37034
0
LINE
8
BLACK
6
CONTINUOUS
10
1.58027
20
2.37034
11
1.58495
21
2.36514
0
LINE
8
BLACK
6
CONTINUOUS
10
1.58495
20
2.36514
11
1.58845
21
2.35908
0
LINE
8
BLACK
6
CONTINUOUS
10
1.58845
20
2.35908
11
1.59061
21
2.35243
0
LINE
8
BLACK
6
CONTINUOUS
10
1.59061
20
2.35243
11
1.59134
21
2.34547
0
LINE
8
BLACK
6
CONTINUOUS
10
1.59134
20
2.34547
11
1.59061
21
2.33851
0
LINE
8
BLACK
6
CONTINUOUS
10
1.59061
20
2.33851
11
1.58845
21
2.33186
0
LINE
8
BLACK
6
CONTINUOUS
10
1.58845
20
2.33186
11
1.58495
21
2.3258
0
LINE
8
BLACK
6
CONTINUOUS
10
1.58495
20
2.3258
11
1.58027
21
2.3206
0
LINE
8
BLACK
6
CONTINUOUS
10
1.58027
20
2.3206
11
1.57461
21
2.31649
0
LINE
8
BLACK
6
CONTINUOUS
10
1.57461
20
2.31649
11
1.56822
21
2.31365
0
LINE
8
BLACK
6
CONTINUOUS
10
1.56822
20
2.31365
11
1.56137
21
2.31219
0
LINE
8
BLACK
6
CONTINUOUS
10
1.56137
20
2.31219
11
1.55438
21
2.31219
0
LINE
8
BLACK
6
CONTINUOUS
10
1.55438
20
2.31219
11
1.54753
21
2.31365
0
LINE
8
BLACK
6
CONTINUOUS
10
1.54753
20
2.31365
11
1.54114
21
2.31649
0
LINE
8
BLACK
6
CONTINUOUS
10
1.54114
20
2.31649
11
1.53548
21
2.3206
0
LINE
8
BLACK
6
CONTINUOUS
10
1.53548
20
2.3206
11
1.5308
21
2.3258
0
LINE
8
BLACK
6
CONTINUOUS
10
1.5308
20
2.3258
11
1.5273
21
2.33186
0
LINE
8
BLACK
6
CONTINUOUS
10
1.5273
20
2.33186
11
1.52514
21
2.33851
0
LINE
8
BLACK
6
CONTINUOUS
10
1.52514
20
2.33851
11
1.52441
21
2.34547
0
LINE
8
BLACK
6
CONTINUOUS
10
1.52441
20
2.34547
11
1.52514
21
2.35243
0
LINE
8
BLACK
6
CONTINUOUS
10
1.52514
20
2.35243
11
1.5273
21
2.35908
0
LINE
8
BLACK
6
CONTINUOUS
10
1.5273
20
2.35908
11
1.5308
21
2.36514
0
LINE
8
BLACK
6
CONTINUOUS
10
1.5308
20
2.36514
11
1.53548
21
2.37034
0
LINE
8
BLACK
6
CONTINUOUS
10
1.53548
20
2.37034
11
1.54114
21
2.37445
0
LINE
8
BLACK
6
CONTINUOUS
10
1.54114
20
2.37445
11
1.54753
21
2.3773
0
LINE
8
BLACK
6
CONTINUOUS
10
1.54753
20
2.3773
11
1.55438
21
2.37875
0
LINE
8
BLACK
6
CONTINUOUS
10
1.55438
20
2.37875
11
1.56137
21
2.37875
0
LINE
8
BLACK
6
CONTINUOUS
10
1.56137
20
2.37875
11
1.56822
21
2.3773
0
LINE
8
BLACK
6
CONTINUOUS
10
1.46822
20
2.3773
11
1.47461
21
2.37445
0
LINE
8
BLACK
6
CONTINUOUS
10
1.47461
20
2.37445
11
1.48027
21
2.37034
0
LINE
8
BLACK
6
CONTINUOUS
10
1.48027
20
2.37034
11
1.48495
21
2.36514
0
LINE
8
BLACK
6
CONTINUOUS
10
1.48495
20
2.36514
11
1.48845
21
2.35908
0
LINE
8
BLACK
6
CONTINUOUS
10
1.48845
20
2.35908
11
1.49061
21
2.35243
0
LINE
8
BLACK
6
CONTINUOUS
10
1.49061
20
2.35243
11
1.49134
21
2.34547
0
LINE
8
BLACK
6
CONTINUOUS
10
1.49134
20
2.34547
11
1.49061
21
2.33851
0
LINE
8
BLACK
6
CONTINUOUS
10
1.49061
20
2.33851
11
1.48845
21
2.33186
0
LINE
8
BLACK
6
CONTINUOUS
10
1.48845
20
2.33186
11
1.48495
21
2.3258
0
LINE
8
BLACK
6
CONTINUOUS
10
1.48495
20
2.3258
11
1.48027
21
2.3206
0
LINE
8
BLACK
6
CONTINUOUS
10
1.48027
20
2.3206
11
1.47461
21
2.31649
0
LINE
8
BLACK
6
CONTINUOUS
10
1.47461
20
2.31649
11
1.46822
21
2.31365
0
LINE
8
BLACK
6
CONTINUOUS
10
1.46822
20
2.31365
11
1.46137
21
2.31219
0
LINE
8
BLACK
6
CONTINUOUS
10
1.46137
20
2.31219
11
1.45438
21
2.31219
0
LINE
8
BLACK
6
CONTINUOUS
10
1.45438
20
2.31219
11
1.44753
21
2.31365
0
LINE
8
BLACK
6
CONTINUOUS
10
1.44753
20
2.31365
11
1.44114
21
2.31649
0
LINE
8
BLACK
6
CONTINUOUS
10
1.44114
20
2.31649
11
1.43548
21
2.3206
0
LINE
8
BLACK
6
CONTINUOUS
10
1.43548
20
2.3206
11
1.4308
21
2.3258
0
LINE
8
BLACK
6
CONTINUOUS
10
1.4308
20
2.3258
11
1.4273
21
2.33186
0
LINE
8
BLACK
6
CONTINUOUS
10
1.4273
20
2.33186
11
1.42514
21
2.33851
0
LINE
8
BLACK
6
CONTINUOUS
10
1.42514
20
2.33851
11
1.42441
21
2.34547
0
LINE
8
BLACK
6
CONTINUOUS
10
1.42441
20
2.34547
11
1.42514
21
2.35243
0
LINE
8
BLACK
6
CONTINUOUS
10
1.42514
20
2.35243
11
1.4273
21
2.35908
0
LINE
8
BLACK
6
CONTINUOUS
10
1.4273
20
2.35908
11
1.4308
21
2.36514
0
LINE
8
BLACK
6
CONTINUOUS
10
1.4308
20
2.36514
11
1.43548
21
2.37034
0
LINE
8
BLACK
6
CONTINUOUS
10
1.43548
20
2.37034
11
1.44114
21
2.37445
0
LINE
8
BLACK
6
CONTINUOUS
10
1.44114
20
2.37445
11
1.44753
21
2.3773
0
LINE
8
BLACK
6
CONTINUOUS
10
1.44753
20
2.3773
11
1.45438
21
2.37875
0
LINE
8
BLACK
6
CONTINUOUS
10
1.45438
20
2.37875
11
1.46137
21
2.37875
0
LINE
8
BLACK
6
CONTINUOUS
10
1.46137
20
2.37875
11
1.46822
21
2.3773
0
LINE
8
BLACK
6
CONTINUOUS
10
1.66822
20
2.3773
11
1.67461
21
2.37445
0
LINE
8
BLACK
6
CONTINUOUS
10
1.67461
20
2.37445
11
1.68027
21
2.37034
0
LINE
8
BLACK
6
CONTINUOUS
10
1.68027
20
2.37034
11
1.68495
21
2.36514
0
LINE
8
BLACK
6
CONTINUOUS
10
1.68495
20
2.36514
11
1.68845
21
2.35908
0
LINE
8
BLACK
6
CONTINUOUS
10
1.68845
20
2.35908
11
1.69061
21
2.35243
0
LINE
8
BLACK
6
CONTINUOUS
10
1.69061
20
2.35243
11
1.69134
21
2.34547
0
LINE
8
BLACK
6
CONTINUOUS
10
1.69134
20
2.34547
11
1.69061
21
2.33851
0
LINE
8
BLACK
6
CONTINUOUS
10
1.69061
20
2.33851
11
1.68845
21
2.33186
0
LINE
8
BLACK
6
CONTINUOUS
10
1.68845
20
2.33186
11
1.68495
21
2.3258
0
LINE
8
BLACK
6
CONTINUOUS
10
1.68495
20
2.3258
11
1.68027
21
2.3206
0
LINE
8
BLACK
6
CONTINUOUS
10
1.68027
20
2.3206
11
1.67461
21
2.31649
0
LINE
8
BLACK
6
CONTINUOUS
10
1.67461
20
2.31649
11
1.66822
21
2.31365
0
LINE
8
BLACK
6
CONTINUOUS
10
1.66822
20
2.31365
11
1.66137
21
2.31219
0
LINE
8
BLACK
6
CONTINUOUS
10
1.66137
20
2.31219
11
1.65438
21
2.31219
0
LINE
8
BLACK
6
CONTINUOUS
10
1.65438
20
2.31219
11
1.64753
21
2.31365
0
LINE
8
BLACK
6
CONTINUOUS
10
1.64753
20
2.31365
11
1.64114
21
2.31649
0
LINE
8
BLACK
6
CONTINUOUS
10
1.64114
20
2.31649
11
1.63548
21
2.3206
0
LINE
8
BLACK
6
CONTINUOUS
10
1.63548
20
2.3206
11
1.6308
21
2.3258
0
LINE
8
BLACK
6
CONTINUOUS
10
1.6308
20
2.3258
11
1.6273
21
2.33186
0
LINE
8
BLACK
6
CONTINUOUS
10
1.6273
20
2.33186
11
1.62514
21
2.33851
0
LINE
8
BLACK
6
CONTINUOUS
10
1.62514
20
2.33851
11
1.62441
21
2.34547
0
LINE
8
BLACK
6
CONTINUOUS
10
1.62441
20
2.34547
11
1.62514
21
2.35243
0
LINE
8
BLACK
6
CONTINUOUS
10
1.62514
20
2.35243
11
1.6273
21
2.35908
0
LINE
8
BLACK
6
CONTINUOUS
10
1.6273
20
2.35908
11
1.6308
21
2.36514
0
LINE
8
BLACK
6
CONTINUOUS
10
1.6308
20
2.36514
11
1.63548
21
2.37034
0
LINE
8
BLACK
6
CONTINUOUS
10
1.63548
20
2.37034
11
1.64114
21
2.37445
0
LINE
8
BLACK
6
CONTINUOUS
10
1.64114
20
2.37445
11
1.64753
21
2.3773
0
LINE
8
BLACK
6
CONTINUOUS
10
1.64753
20
2.3773
11
1.65438
21
2.37875
0
LINE
8
BLACK
6
CONTINUOUS
10
1.65438
20
2.37875
11
1.66137
21
2.37875
0
LINE
8
BLACK
6
CONTINUOUS
10
1.66137
20
2.37875
11
1.66822
21
2.3773
0
LINE
8
BLACK
6
CONTINUOUS
10
1.36822
20
2.3773
11
1.37461
21
2.37445
0
LINE
8
BLACK
6
CONTINUOUS
10
1.37461
20
2.37445
11
1.38027
21
2.37034
0
LINE
8
BLACK
6
CONTINUOUS
10
1.38027
20
2.37034
11
1.38495
21
2.36514
0
LINE
8
BLACK
6
CONTINUOUS
10
1.38495
20
2.36514
11
1.38845
21
2.35908
0
LINE
8
BLACK
6
CONTINUOUS
10
1.38845
20
2.35908
11
1.39061
21
2.35243
0
LINE
8
BLACK
6
CONTINUOUS
10
1.39061
20
2.35243
11
1.39134
21
2.34547
0
LINE
8
BLACK
6
CONTINUOUS
10
1.39134
20
2.34547
11
1.39061
21
2.33851
0
LINE
8
BLACK
6
CONTINUOUS
10
1.39061
20
2.33851
11
1.38845
21
2.33186
0
LINE
8
BLACK
6
CONTINUOUS
10
1.38845
20
2.33186
11
1.38495
21
2.3258
0
LINE
8
BLACK
6
CONTINUOUS
10
1.38495
20
2.3258
11
1.38027
21
2.3206
0
LINE
8
BLACK
6
CONTINUOUS
10
1.38027
20
2.3206
11
1.37461
21
2.31649
0
LINE
8
BLACK
6
CONTINUOUS
10
1.37461
20
2.31649
11
1.36822
21
2.31365
0
LINE
8
BLACK
6
CONTINUOUS
10
1.36822
20
2.31365
11
1.36137
21
2.31219
0
LINE
8
BLACK
6
CONTINUOUS
10
1.36137
20
2.31219
11
1.35438
21
2.31219
0
LINE
8
BLACK
6
CONTINUOUS
10
1.35438
20
2.31219
11
1.34753
21
2.31365
0
LINE
8
BLACK
6
CONTINUOUS
10
1.34753
20
2.31365
11
1.34114
21
2.31649
0
LINE
8
BLACK
6
CONTINUOUS
10
1.34114
20
2.31649
11
1.33548
21
2.3206
0
LINE
8
BLACK
6
CONTINUOUS
10
1.33548
20
2.3206
11
1.3308
21
2.3258
0
LINE
8
BLACK
6
CONTINUOUS
10
1.3308
20
2.3258
11
1.3273
21
2.33186
0
LINE
8
BLACK
6
CONTINUOUS
10
1.3273
20
2.33186
11
1.32514
21
2.33851
0
LINE
8
BLACK
6
CONTINUOUS
10
1.32514
20
2.33851
11
1.32441
21
2.34547
0
LINE
8
BLACK
6
CONTINUOUS
10
1.32441
20
2.34547
11
1.32514
21
2.35243
0
LINE
8
BLACK
6
CONTINUOUS
10
1.32514
20
2.35243
11
1.3273
21
2.35908
0
LINE
8
BLACK
6
CONTINUOUS
10
1.3273
20
2.35908
11
1.3308
21
2.36514
0
LINE
8
BLACK
6
CONTINUOUS
10
1.3308
20
2.36514
11
1.33548
21
2.37034
0
LINE
8
BLACK
6
CONTINUOUS
10
1.33548
20
2.37034
11
1.34114
21
2.37445
0
LINE
8
BLACK
6
CONTINUOUS
10
1.34114
20
2.37445
11
1.34753
21
2.3773
0
LINE
8
BLACK
6
CONTINUOUS
10
1.34753
20
2.3773
11
1.35438
21
2.37875
0
LINE
8
BLACK
6
CONTINUOUS
10
1.35438
20
2.37875
11
1.36137
21
2.37875
0
LINE
8
BLACK
6
CONTINUOUS
10
1.36137
20
2.37875
11
1.36822
21
2.3773
0
LINE
8
BLACK
6
CONTINUOUS
10
0.228328
20
2.41512
11
0.231441
21
2.41304
0
LINE
8
BLACK
6
CONTINUOUS
10
0.231441
20
2.41304
11
0.233521
21
2.40992
0
LINE
8
BLACK
6
CONTINUOUS
10
0.233521
20
2.40992
11
0.234252
21
2.40625
0
LINE
8
BLACK
6
CONTINUOUS
10
0.234252
20
2.40625
11
0.234252
21
2.38706
0
LINE
8
BLACK
6
CONTINUOUS
10
0.234252
20
2.38706
11
0.233521
21
2.38338
0
LINE
8
BLACK
6
CONTINUOUS
10
0.233521
20
2.38338
11
0.231441
21
2.38027
0
LINE
8
BLACK
6
CONTINUOUS
10
0.231441
20
2.38027
11
0.228328
21
2.37819
0
LINE
8
BLACK
6
CONTINUOUS
10
0.228328
20
2.37819
11
0.224656
21
2.37746
0
LINE
8
BLACK
6
CONTINUOUS
10
0.224656
20
2.37746
11
0.18873
21
2.37746
0
LINE
8
BLACK
6
CONTINUOUS
10
0.18873
20
2.37746
11
0.185058
21
2.37819
0
LINE
8
BLACK
6
CONTINUOUS
10
0.185058
20
2.37819
11
0.181945
21
2.38027
0
LINE
8
BLACK
6
CONTINUOUS
10
0.181945
20
2.38027
11
0.179864
21
2.38338
0
LINE
8
BLACK
6
CONTINUOUS
10
0.179864
20
2.38338
11
0.179134
21
2.38706
0
LINE
8
BLACK
6
CONTINUOUS
10
0.179134
20
2.38706
11
0.179134
21
2.40625
0
LINE
8
BLACK
6
CONTINUOUS
10
0.179134
20
2.40625
11
0.179864
21
2.40992
0
LINE
8
BLACK
6
CONTINUOUS
10
0.179864
20
2.40992
11
0.181945
21
2.41304
0
LINE
8
BLACK
6
CONTINUOUS
10
0.181945
20
2.41304
11
0.185058
21
2.41512
0
LINE
8
BLACK
6
CONTINUOUS
10
0.185058
20
2.41512
11
0.18873
21
2.41585
0
LINE
8
BLACK
6
CONTINUOUS
10
0.18873
20
2.41585
11
0.224656
21
2.41585
0
LINE
8
BLACK
6
CONTINUOUS
10
0.224656
20
2.41585
11
0.228328
21
2.41512
0
LINE
8
BLACK
6
CONTINUOUS
10
0.636614
20
2.40748
11
0.569685
21
2.40748
0
LINE
8
BLACK
6
CONTINUOUS
10
0.569685
20
2.40748
11
0.569685
21
2.47441
0
LINE
8
BLACK
6
CONTINUOUS
10
0.569685
20
2.47441
11
0.636614
21
2.47441
0
LINE
8
BLACK
6
CONTINUOUS
10
0.636614
20
2.47441
11
0.636614
21
2.40748
0
LINE
8
BLACK
6
CONTINUOUS
10
0.313491
20
2.47277
11
0.319882
21
2.46993
0
LINE
8
BLACK
6
CONTINUOUS
10
0.319882
20
2.46993
11
0.325542
21
2.46581
0
LINE
8
BLACK
6
CONTINUOUS
10
0.325542
20
2.46581
11
0.330223
21
2.46061
0
LINE
8
BLACK
6
CONTINUOUS
10
0.330223
20
2.46061
11
0.333721
21
2.45456
0
LINE
8
BLACK
6
CONTINUOUS
10
0.333721
20
2.45456
11
0.335883
21
2.4479
0
LINE
8
BLACK
6
CONTINUOUS
10
0.335883
20
2.4479
11
0.336614
21
2.44094
0
LINE
8
BLACK
6
CONTINUOUS
10
0.336614
20
2.44094
11
0.335883
21
2.43399
0
LINE
8
BLACK
6
CONTINUOUS
10
0.335883
20
2.43399
11
0.333721
21
2.42733
0
LINE
8
BLACK
6
CONTINUOUS
10
0.333721
20
2.42733
11
0.330223
21
2.42127
0
LINE
8
BLACK
6
CONTINUOUS
10
0.330223
20
2.42127
11
0.325542
21
2.41608
0
LINE
8
BLACK
6
CONTINUOUS
10
0.325542
20
2.41608
11
0.319882
21
2.41196
0
LINE
8
BLACK
6
CONTINUOUS
10
0.319882
20
2.41196
11
0.313491
21
2.40912
0
LINE
8
BLACK
6
CONTINUOUS
10
0.313491
20
2.40912
11
0.306648
21
2.40766
0
LINE
8
BLACK
6
CONTINUOUS
10
0.306648
20
2.40766
11
0.299652
21
2.40766
0
LINE
8
BLACK
6
CONTINUOUS
10
0.299652
20
2.40766
11
0.292809
21
2.40912
0
LINE
8
BLACK
6
CONTINUOUS
10
0.292809
20
2.40912
11
0.286417
21
2.41196
0
LINE
8
BLACK
6
CONTINUOUS
10
0.286417
20
2.41196
11
0.280757
21
2.41608
0
LINE
8
BLACK
6
CONTINUOUS
10
0.280757
20
2.41608
11
0.276076
21
2.42127
0
LINE
8
BLACK
6
CONTINUOUS
10
0.276076
20
2.42127
11
0.272578
21
2.42733
0
LINE
8
BLACK
6
CONTINUOUS
10
0.272578
20
2.42733
11
0.270416
21
2.43399
0
LINE
8
BLACK
6
CONTINUOUS
10
0.270416
20
2.43399
11
0.269685
21
2.44094
0
LINE
8
BLACK
6
CONTINUOUS
10
0.269685
20
2.44094
11
0.270416
21
2.4479
0
LINE
8
BLACK
6
CONTINUOUS
10
0.270416
20
2.4479
11
0.272578
21
2.45456
0
LINE
8
BLACK
6
CONTINUOUS
10
0.272578
20
2.45456
11
0.276076
21
2.46061
0
LINE
8
BLACK
6
CONTINUOUS
10
0.276076
20
2.46061
11
0.280757
21
2.46581
0
LINE
8
BLACK
6
CONTINUOUS
10
0.280757
20
2.46581
11
0.286417
21
2.46993
0
LINE
8
BLACK
6
CONTINUOUS
10
0.286417
20
2.46993
11
0.292809
21
2.47277
0
LINE
8
BLACK
6
CONTINUOUS
10
0.292809
20
2.47277
11
0.299652
21
2.47423
0
LINE
8
BLACK
6
CONTINUOUS
10
0.299652
20
2.47423
11
0.306648
21
2.47423
0
LINE
8
BLACK
6
CONTINUOUS
10
0.306648
20
2.47423
11
0.313491
21
2.47277
0
LINE
8
BLACK
6
CONTINUOUS
10
0.413491
20
2.47277
11
0.419882
21
2.46993
0
LINE
8
BLACK
6
CONTINUOUS
10
0.419882
20
2.46993
11
0.425542
21
2.46581
0
LINE
8
BLACK
6
CONTINUOUS
10
0.425542
20
2.46581
11
0.430223
21
2.46061
0
LINE
8
BLACK
6
CONTINUOUS
10
0.430223
20
2.46061
11
0.433721
21
2.45456
0
LINE
8
BLACK
6
CONTINUOUS
10
0.433721
20
2.45456
11
0.435883
21
2.4479
0
LINE
8
BLACK
6
CONTINUOUS
10
0.435883
20
2.4479
11
0.436614
21
2.44094
0
LINE
8
BLACK
6
CONTINUOUS
10
0.436614
20
2.44094
11
0.435883
21
2.43399
0
LINE
8
BLACK
6
CONTINUOUS
10
0.435883
20
2.43399
11
0.433721
21
2.42733
0
LINE
8
BLACK
6
CONTINUOUS
10
0.433721
20
2.42733
11
0.430223
21
2.42127
0
LINE
8
BLACK
6
CONTINUOUS
10
0.430223
20
2.42127
11
0.425542
21
2.41608
0
LINE
8
BLACK
6
CONTINUOUS
10
0.425542
20
2.41608
11
0.419882
21
2.41196
0
LINE
8
BLACK
6
CONTINUOUS
10
0.419882
20
2.41196
11
0.413491
21
2.40912
0
LINE
8
BLACK
6
CONTINUOUS
10
0.413491
20
2.40912
11
0.406648
21
2.40766
0
LINE
8
BLACK
6
CONTINUOUS
10
0.406648
20
2.40766
11
0.399652
21
2.40766
0
LINE
8
BLACK
6
CONTINUOUS
10
0.399652
20
2.40766
11
0.392809
21
2.40912
0
LINE
8
BLACK
6
CONTINUOUS
10
0.392809
20
2.40912
11
0.386417
21
2.41196
0
LINE
8
BLACK
6
CONTINUOUS
10
0.386417
20
2.41196
11
0.380757
21
2.41608
0
LINE
8
BLACK
6
CONTINUOUS
10
0.380757
20
2.41608
11
0.376076
21
2.42127
0
LINE
8
BLACK
6
CONTINUOUS
10
0.376076
20
2.42127
11
0.372578
21
2.42733
0
LINE
8
BLACK
6
CONTINUOUS
10
0.372578
20
2.42733
11
0.370416
21
2.43399
0
LINE
8
BLACK
6
CONTINUOUS
10
0.370416
20
2.43399
11
0.369685
21
2.44094
0
LINE
8
BLACK
6
CONTINUOUS
10
0.369685
20
2.44094
11
0.370416
21
2.4479
0
LINE
8
BLACK
6
CONTINUOUS
10
0.370416
20
2.4479
11
0.372578
21
2.45456
0
LINE
8
BLACK
6
CONTINUOUS
10
0.372578
20
2.45456
11
0.376076
21
2.46061
0
LINE
8
BLACK
6
CONTINUOUS
10
0.376076
20
2.46061
11
0.380757
21
2.46581
0
LINE
8
BLACK
6
CONTINUOUS
10
0.380757
20
2.46581
11
0.386417
21
2.46993
0
LINE
8
BLACK
6
CONTINUOUS
10
0.386417
20
2.46993
11
0.392809
21
2.47277
0
LINE
8
BLACK
6
CONTINUOUS
10
0.392809
20
2.47277
11
0.399652
21
2.47423
0
LINE
8
BLACK
6
CONTINUOUS
10
0.399652
20
2.47423
11
0.406648
21
2.47423
0
LINE
8
BLACK
6
CONTINUOUS
10
0.406648
20
2.47423
11
0.413491
21
2.47277
0
LINE
8
BLACK
6
CONTINUOUS
10
0.513491
20
2.47277
11
0.519882
21
2.46993
0
LINE
8
BLACK
6
CONTINUOUS
10
0.519882
20
2.46993
11
0.525542
21
2.46581
0
LINE
8
BLACK
6
CONTINUOUS
10
0.525542
20
2.46581
11
0.530223
21
2.46061
0
LINE
8
BLACK
6
CONTINUOUS
10
0.530223
20
2.46061
11
0.533721
21
2.45456
0
LINE
8
BLACK
6
CONTINUOUS
10
0.533721
20
2.45456
11
0.535883
21
2.4479
0
LINE
8
BLACK
6
CONTINUOUS
10
0.535883
20
2.4479
11
0.536614
21
2.44094
0
LINE
8
BLACK
6
CONTINUOUS
10
0.536614
20
2.44094
11
0.535883
21
2.43399
0
LINE
8
BLACK
6
CONTINUOUS
10
0.535883
20
2.43399
11
0.533721
21
2.42733
0
LINE
8
BLACK
6
CONTINUOUS
10
0.533721
20
2.42733
11
0.530223
21
2.42127
0
LINE
8
BLACK
6
CONTINUOUS
10
0.530223
20
2.42127
11
0.525542
21
2.41608
0
LINE
8
BLACK
6
CONTINUOUS
10
0.525542
20
2.41608
11
0.519882
21
2.41196
0
LINE
8
BLACK
6
CONTINUOUS
10
0.519882
20
2.41196
11
0.513491
21
2.40912
0
LINE
8
BLACK
6
CONTINUOUS
10
0.513491
20
2.40912
11
0.506648
21
2.40766
0
LINE
8
BLACK
6
CONTINUOUS
10
0.506648
20
2.40766
11
0.499652
21
2.40766
0
LINE
8
BLACK
6
CONTINUOUS
10
0.499652
20
2.40766
11
0.492809
21
2.40912
0
LINE
8
BLACK
6
CONTINUOUS
10
0.492809
20
2.40912
11
0.486417
21
2.41196
0
LINE
8
BLACK
6
CONTINUOUS
10
0.486417
20
2.41196
11
0.480757
21
2.41608
0
LINE
8
BLACK
6
CONTINUOUS
10
0.480757
20
2.41608
11
0.476076
21
2.42127
0
LINE
8
BLACK
6
CONTINUOUS
10
0.476076
20
2.42127
11
0.472578
21
2.42733
0
LINE
8
BLACK
6
CONTINUOUS
10
0.472578
20
2.42733
11
0.470416
21
2.43399
0
LINE
8
BLACK
6
CONTINUOUS
10
0.470416
20
2.43399
11
0.469685
21
2.44094
0
LINE
8
BLACK
6
CONTINUOUS
10
0.469685
20
2.44094
11
0.470416
21
2.4479
0
LINE
8
BLACK
6
CONTINUOUS
10
0.470416
20
2.4479
11
0.472578
21
2.45456
0
LINE
8
BLACK
6
CONTINUOUS
10
0.472578
20
2.45456
11
0.476076
21
2.46061
0
LINE
8
BLACK
6
CONTINUOUS
10
0.476076
20
2.46061
11
0.480757
21
2.46581
0
LINE
8
BLACK
6
CONTINUOUS
10
0.480757
20
2.46581
11
0.486417
21
2.46993
0
LINE
8
BLACK
6
CONTINUOUS
10
0.486417
20
2.46993
11
0.492809
21
2.47277
0
LINE
8
BLACK
6
CONTINUOUS
10
0.492809
20
2.47277
11
0.499652
21
2.47423
0
LINE
8
BLACK
6
CONTINUOUS
10
0.499652
20
2.47423
11
0.506648
21
2.47423
0
LINE
8
BLACK
6
CONTINUOUS
10
0.506648
20
2.47423
11
0.513491
21
2.47277
0
LINE
8
BLACK
6
CONTINUOUS
10
1.06102
20
2.41142
11
0.994094
21
2.41142
0
LINE
8
BLACK
6
CONTINUOUS
10
0.994094
20
2.41142
11
0.994094
21
2.47835
0
LINE
8
BLACK
6
CONTINUOUS
10
0.994094
20
2.47835
11
1.06102
21
2.47835
0
LINE
8
BLACK
6
CONTINUOUS
10
1.06102
20
2.47835
11
1.06102
21
2.41142
0
LINE
8
BLACK
6
CONTINUOUS
10
0.8379
20
2.47671
11
0.844291
21
2.47386
0
LINE
8
BLACK
6
CONTINUOUS
10
0.844291
20
2.47386
11
0.849951
21
2.46975
0
LINE
8
BLACK
6
CONTINUOUS
10
0.849951
20
2.46975
11
0.854632
21
2.46455
0
LINE
8
BLACK
6
CONTINUOUS
10
0.854632
20
2.46455
11
0.85813
21
2.45849
0
LINE
8
BLACK
6
CONTINUOUS
10
0.85813
20
2.45849
11
0.860292
21
2.45184
0
LINE
8
BLACK
6
CONTINUOUS
10
0.860292
20
2.45184
11
0.861024
21
2.44488
0
LINE
8
BLACK
6
CONTINUOUS
10
0.861024
20
2.44488
11
0.860292
21
2.43792
0
LINE
8
BLACK
6
CONTINUOUS
10
0.860292
20
2.43792
11
0.85813
21
2.43127
0
LINE
8
BLACK
6
CONTINUOUS
10
0.85813
20
2.43127
11
0.854632
21
2.42521
0
LINE
8
BLACK
6
CONTINUOUS
10
0.854632
20
2.42521
11
0.849951
21
2.42001
0
LINE
8
BLACK
6
CONTINUOUS
10
0.849951
20
2.42001
11
0.844291
21
2.4159
0
LINE
8
BLACK
6
CONTINUOUS
10
0.844291
20
2.4159
11
0.8379
21
2.41306
0
LINE
8
BLACK
6
CONTINUOUS
10
0.8379
20
2.41306
11
0.831057
21
2.4116
0
LINE
8
BLACK
6
CONTINUOUS
10
0.831057
20
2.4116
11
0.824061
21
2.4116
0
LINE
8
BLACK
6
CONTINUOUS
10
0.824061
20
2.4116
11
0.817218
21
2.41306
0
LINE
8
BLACK
6
CONTINUOUS
10
0.817218
20
2.41306
11
0.810827
21
2.4159
0
LINE
8
BLACK
6
CONTINUOUS
10
0.810827
20
2.4159
11
0.805167
21
2.42001
0
LINE
8
BLACK
6
CONTINUOUS
10
0.805167
20
2.42001
11
0.800486
21
2.42521
0
LINE
8
BLACK
6
CONTINUOUS
10
0.800486
20
2.42521
11
0.796988
21
2.43127
0
LINE
8
BLACK
6
CONTINUOUS
10
0.796988
20
2.43127
11
0.794826
21
2.43792
0
LINE
8
BLACK
6
CONTINUOUS
10
0.794826
20
2.43792
11
0.794094
21
2.44488
0
LINE
8
BLACK
6
CONTINUOUS
10
0.794094
20
2.44488
11
0.794826
21
2.45184
0
LINE
8
BLACK
6
CONTINUOUS
10
0.794826
20
2.45184
11
0.796988
21
2.45849
0
LINE
8
BLACK
6
CONTINUOUS
10
0.796988
20
2.45849
11
0.800486
21
2.46455
0
LINE
8
BLACK
6
CONTINUOUS
10
0.800486
20
2.46455
11
0.805167
21
2.46975
0
LINE
8
BLACK
6
CONTINUOUS
10
0.805167
20
2.46975
11
0.810827
21
2.47386
0
LINE
8
BLACK
6
CONTINUOUS
10
0.810827
20
2.47386
11
0.817218
21
2.47671
0
LINE
8
BLACK
6
CONTINUOUS
10
0.817218
20
2.47671
11
0.824061
21
2.47816
0
LINE
8
BLACK
6
CONTINUOUS
10
0.824061
20
2.47816
11
0.831057
21
2.47816
0
LINE
8
BLACK
6
CONTINUOUS
10
0.831057
20
2.47816
11
0.8379
21
2.47671
0
LINE
8
BLACK
6
CONTINUOUS
10
0.9379
20
2.47671
11
0.944291
21
2.47386
0
LINE
8
BLACK
6
CONTINUOUS
10
0.944291
20
2.47386
11
0.949951
21
2.46975
0
LINE
8
BLACK
6
CONTINUOUS
10
0.949951
20
2.46975
11
0.954632
21
2.46455
0
LINE
8
BLACK
6
CONTINUOUS
10
0.954632
20
2.46455
11
0.95813
21
2.45849
0
LINE
8
BLACK
6
CONTINUOUS
10
0.95813
20
2.45849
11
0.960292
21
2.45184
0
LINE
8
BLACK
6
CONTINUOUS
10
0.960292
20
2.45184
11
0.961024
21
2.44488
0
LINE
8
BLACK
6
CONTINUOUS
10
0.961024
20
2.44488
11
0.960292
21
2.43792
0
LINE
8
BLACK
6
CONTINUOUS
10
0.960292
20
2.43792
11
0.95813
21
2.43127
0
LINE
8
BLACK
6
CONTINUOUS
10
0.95813
20
2.43127
11
0.954632
21
2.42521
0
LINE
8
BLACK
6
CONTINUOUS
10
0.954632
20
2.42521
11
0.949951
21
2.42001
0
LINE
8
BLACK
6
CONTINUOUS
10
0.949951
20
2.42001
11
0.944291
21
2.4159
0
LINE
8
BLACK
6
CONTINUOUS
10
0.944291
20
2.4159
11
0.9379
21
2.41306
0
LINE
8
BLACK
6
CONTINUOUS
10
0.9379
20
2.41306
11
0.931057
21
2.4116
0
LINE
8
BLACK
6
CONTINUOUS
10
0.931057
20
2.4116
11
0.924061
21
2.4116
0
LINE
8
BLACK
6
CONTINUOUS
10
0.924061
20
2.4116
11
0.917218
21
2.41306
0
LINE
8
BLACK
6
CONTINUOUS
10
0.917218
20
2.41306
11
0.910827
21
2.4159
0
LINE
8
BLACK
6
CONTINUOUS
10
0.910827
20
2.4159
11
0.905167
21
2.42001
0
LINE
8
BLACK
6
CONTINUOUS
10
0.905167
20
2.42001
11
0.900486
21
2.42521
0
LINE
8
BLACK
6
CONTINUOUS
10
0.900486
20
2.42521
11
0.896988
21
2.43127
0
LINE
8
BLACK
6
CONTINUOUS
10
0.896988
20
2.43127
11
0.894826
21
2.43792
0
LINE
8
BLACK
6
CONTINUOUS
10
0.894826
20
2.43792
11
0.894094
21
2.44488
0
LINE
8
BLACK
6
CONTINUOUS
10
0.894094
20
2.44488
11
0.894826
21
2.45184
0
LINE
8
BLACK
6
CONTINUOUS
10
0.894826
20
2.45184
11
0.896988
21
2.45849
0
LINE
8
BLACK
6
CONTINUOUS
10
0.896988
20
2.45849
11
0.900486
21
2.46455
0
LINE
8
BLACK
6
CONTINUOUS
10
0.900486
20
2.46455
11
0.905167
21
2.46975
0
LINE
8
BLACK
6
CONTINUOUS
10
0.905167
20
2.46975
11
0.910827
21
2.47386
0
LINE
8
BLACK
6
CONTINUOUS
10
0.910827
20
2.47386
11
0.917218
21
2.47671
0
LINE
8
BLACK
6
CONTINUOUS
10
0.917218
20
2.47671
11
0.924061
21
2.47816
0
LINE
8
BLACK
6
CONTINUOUS
10
0.924061
20
2.47816
11
0.931057
21
2.47816
0
LINE
8
BLACK
6
CONTINUOUS
10
0.931057
20
2.47816
11
0.9379
21
2.47671
0
LINE
8
BLACK
6
CONTINUOUS
10
1.36822
20
2.4773
11
1.37461
21
2.47445
0
LINE
8
BLACK
6
CONTINUOUS
10
1.37461
20
2.47445
11
1.38027
21
2.47034
0
LINE
8
BLACK
6
CONTINUOUS
10
1.38027
20
2.47034
11
1.38495
21
2.46514
0
LINE
8
BLACK
6
CONTINUOUS
10
1.38495
20
2.46514
11
1.38845
21
2.45908
0
LINE
8
BLACK
6
CONTINUOUS
10
1.38845
20
2.45908
11
1.39061
21
2.45243
0
LINE
8
BLACK
6
CONTINUOUS
10
1.39061
20
2.45243
11
1.39134
21
2.44547
0
LINE
8
BLACK
6
CONTINUOUS
10
1.39134
20
2.44547
11
1.39061
21
2.43851
0
LINE
8
BLACK
6
CONTINUOUS
10
1.39061
20
2.43851
11
1.38845
21
2.43186
0
LINE
8
BLACK
6
CONTINUOUS
10
1.38845
20
2.43186
11
1.38495
21
2.4258
0
LINE
8
BLACK
6
CONTINUOUS
10
1.38495
20
2.4258
11
1.38027
21
2.4206
0
LINE
8
BLACK
6
CONTINUOUS
10
1.38027
20
2.4206
11
1.37461
21
2.41649
0
LINE
8
BLACK
6
CONTINUOUS
10
1.37461
20
2.41649
11
1.36822
21
2.41365
0
LINE
8
BLACK
6
CONTINUOUS
10
1.36822
20
2.41365
11
1.36137
21
2.41219
0
LINE
8
BLACK
6
CONTINUOUS
10
1.36137
20
2.41219
11
1.35438
21
2.41219
0
LINE
8
BLACK
6
CONTINUOUS
10
1.35438
20
2.41219
11
1.34753
21
2.41365
0
LINE
8
BLACK
6
CONTINUOUS
10
1.34753
20
2.41365
11
1.34114
21
2.41649
0
LINE
8
BLACK
6
CONTINUOUS
10
1.34114
20
2.41649
11
1.33548
21
2.4206
0
LINE
8
BLACK
6
CONTINUOUS
10
1.33548
20
2.4206
11
1.3308
21
2.4258
0
LINE
8
BLACK
6
CONTINUOUS
10
1.3308
20
2.4258
11
1.3273
21
2.43186
0
LINE
8
BLACK
6
CONTINUOUS
10
1.3273
20
2.43186
11
1.32514
21
2.43851
0
LINE
8
BLACK
6
CONTINUOUS
10
1.32514
20
2.43851
11
1.32441
21
2.44547
0
LINE
8
BLACK
6
CONTINUOUS
10
1.32441
20
2.44547
11
1.32514
21
2.45243
0
LINE
8
BLACK
6
CONTINUOUS
10
1.32514
20
2.45243
11
1.3273
21
2.45908
0
LINE
8
BLACK
6
CONTINUOUS
10
1.3273
20
2.45908
11
1.3308
21
2.46514
0
LINE
8
BLACK
6
CONTINUOUS
10
1.3308
20
2.46514
11
1.33548
21
2.47034
0
LINE
8
BLACK
6
CONTINUOUS
10
1.33548
20
2.47034
11
1.34114
21
2.47445
0
LINE
8
BLACK
6
CONTINUOUS
10
1.34114
20
2.47445
11
1.34753
21
2.4773
0
LINE
8
BLACK
6
CONTINUOUS
10
1.34753
20
2.4773
11
1.35438
21
2.47875
0
LINE
8
BLACK
6
CONTINUOUS
10
1.35438
20
2.47875
11
1.36137
21
2.47875
0
LINE
8
BLACK
6
CONTINUOUS
10
1.36137
20
2.47875
11
1.36822
21
2.4773
0
LINE
8
BLACK
6
CONTINUOUS
10
1.66822
20
2.4773
11
1.67461
21
2.47445
0
LINE
8
BLACK
6
CONTINUOUS
10
1.67461
20
2.47445
11
1.68027
21
2.47034
0
LINE
8
BLACK
6
CONTINUOUS
10
1.68027
20
2.47034
11
1.68495
21
2.46514
0
LINE
8
BLACK
6
CONTINUOUS
10
1.68495
20
2.46514
11
1.68845
21
2.45908
0
LINE
8
BLACK
6
CONTINUOUS
10
1.68845
20
2.45908
11
1.69061
21
2.45243
0
LINE
8
BLACK
6
CONTINUOUS
10
1.69061
20
2.45243
11
1.69134
21
2.44547
0
LINE
8
BLACK
6
CONTINUOUS
10
1.69134
20
2.44547
11
1.69061
21
2.43851
0
LINE
8
BLACK
6
CONTINUOUS
10
1.69061
20
2.43851
11
1.68845
21
2.43186
0
LINE
8
BLACK
6
CONTINUOUS
10
1.68845
20
2.43186
11
1.68495
21
2.4258
0
LINE
8
BLACK
6
CONTINUOUS
10
1.68495
20
2.4258
11
1.68027
21
2.4206
0
LINE
8
BLACK
6
CONTINUOUS
10
1.68027
20
2.4206
11
1.67461
21
2.41649
0
LINE
8
BLACK
6
CONTINUOUS
10
1.67461
20
2.41649
11
1.66822
21
2.41365
0
LINE
8
BLACK
6
CONTINUOUS
10
1.66822
20
2.41365
11
1.66137
21
2.41219
0
LINE
8
BLACK
6
CONTINUOUS
10
1.66137
20
2.41219
11
1.65438
21
2.41219
0
LINE
8
BLACK
6
CONTINUOUS
10
1.65438
20
2.41219
11
1.64753
21
2.41365
0
LINE
8
BLACK
6
CONTINUOUS
10
1.64753
20
2.41365
11
1.64114
21
2.41649
0
LINE
8
BLACK
6
CONTINUOUS
10
1.64114
20
2.41649
11
1.63548
21
2.4206
0
LINE
8
BLACK
6
CONTINUOUS
10
1.63548
20
2.4206
11
1.6308
21
2.4258
0
LINE
8
BLACK
6
CONTINUOUS
10
1.6308
20
2.4258
11
1.6273
21
2.43186
0
LINE
8
BLACK
6
CONTINUOUS
10
1.6273
20
2.43186
11
1.62514
21
2.43851
0
LINE
8
BLACK
6
CONTINUOUS
10
1.62514
20
2.43851
11
1.62441
21
2.44547
0
LINE
8
BLACK
6
CONTINUOUS
10
1.62441
20
2.44547
11
1.62514
21
2.45243
0
LINE
8
BLACK
6
CONTINUOUS
10
1.62514
20
2.45243
11
1.6273
21
2.45908
0
LINE
8
BLACK
6
CONTINUOUS
10
1.6273
20
2.45908
11
1.6308
21
2.46514
0
LINE
8
BLACK
6
CONTINUOUS
10
1.6308
20
2.46514
11
1.63548
21
2.47034
0
LINE
8
BLACK
6
CONTINUOUS
10
1.63548
20
2.47034
11
1.64114
21
2.47445
0
LINE
8
BLACK
6
CONTINUOUS
10
1.64114
20
2.47445
11
1.64753
21
2.4773
0
LINE
8
BLACK
6
CONTINUOUS
10
1.64753
20
2.4773
11
1.65438
21
2.47875
0
LINE
8
BLACK
6
CONTINUOUS
10
1.65438
20
2.47875
11
1.66137
21
2.47875
0
LINE
8
BLACK
6
CONTINUOUS
10
1.66137
20
2.47875
11
1.66822
21
2.4773
0
LINE
8
BLACK
6
CONTINUOUS
10
1.46822
20
2.4773
11
1.47461
21
2.47445
0
LINE
8
BLACK
6
CONTINUOUS
10
1.47461
20
2.47445
11
1.48027
21
2.47034
0
LINE
8
BLACK
6
CONTINUOUS
10
1.48027
20
2.47034
11
1.48495
21
2.46514
0
LINE
8
BLACK
6
CONTINUOUS
10
1.48495
20
2.46514
11
1.48845
21
2.45908
0
LINE
8
BLACK
6
CONTINUOUS
10
1.48845
20
2.45908
11
1.49061
21
2.45243
0
LINE
8
BLACK
6
CONTINUOUS
10
1.49061
20
2.45243
11
1.49134
21
2.44547
0
LINE
8
BLACK
6
CONTINUOUS
10
1.49134
20
2.44547
11
1.49061
21
2.43851
0
LINE
8
BLACK
6
CONTINUOUS
10
1.49061
20
2.43851
11
1.48845
21
2.43186
0
LINE
8
BLACK
6
CONTINUOUS
10
1.48845
20
2.43186
11
1.48495
21
2.4258
0
LINE
8
BLACK
6
CONTINUOUS
10
1.48495
20
2.4258
11
1.48027
21
2.4206
0
LINE
8
BLACK
6
CONTINUOUS
10
1.48027
20
2.4206
11
1.47461
21
2.41649
0
LINE
8
BLACK
6
CONTINUOUS
10
1.47461
20
2.41649
11
1.46822
21
2.41365
0
LINE
8
BLACK
6
CONTINUOUS
10
1.46822
20
2.41365
11
1.46137
21
2.41219
0
LINE
8
BLACK
6
CONTINUOUS
10
1.46137
20
2.41219
11
1.45438
21
2.41219
0
LINE
8
BLACK
6
CONTINUOUS
10
1.45438
20
2.41219
11
1.44753
21
2.41365
0
LINE
8
BLACK
6
CONTINUOUS
10
1.44753
20
2.41365
11
1.44114
21
2.41649
0
LINE
8
BLACK
6
CONTINUOUS
10
1.44114
20
2.41649
11
1.43548
21
2.4206
0
LINE
8
BLACK
6
CONTINUOUS
10
1.43548
20
2.4206
11
1.4308
21
2.4258
0
LINE
8
BLACK
6
CONTINUOUS
10
1.4308
20
2.4258
11
1.4273
21
2.43186
0
LINE
8
BLACK
6
CONTINUOUS
10
1.4273
20
2.43186
11
1.42514
21
2.43851
0
LINE
8
BLACK
6
CONTINUOUS
10
1.42514
20
2.43851
11
1.42441
21
2.44547
0
LINE
8
BLACK
6
CONTINUOUS
10
1.42441
20
2.44547
11
1.42514
21
2.45243
0
LINE
8
BLACK
6
CONTINUOUS
10
1.42514
20
2.45243
11
1.4273
21
2.45908
0
LINE
8
BLACK
6
CONTINUOUS
10
1.4273
20
2.45908
11
1.4308
21
2.46514
0
LINE
8
BLACK
6
CONTINUOUS
10
1.4308
20
2.46514
11
1.43548
21
2.47034
0
LINE
8
BLACK
6
CONTINUOUS
10
1.43548
20
2.47034
11
1.44114
21
2.47445
0
LINE
8
BLACK
6
CONTINUOUS
10
1.44114
20
2.47445
11
1.44753
21
2.4773
0
LINE
8
BLACK
6
CONTINUOUS
10
1.44753
20
2.4773
11
1.45438
21
2.47875
0
LINE
8
BLACK
6
CONTINUOUS
10
1.45438
20
2.47875
11
1.46137
21
2.47875
0
LINE
8
BLACK
6
CONTINUOUS
10
1.46137
20
2.47875
11
1.46822
21
2.4773
0
LINE
8
BLACK
6
CONTINUOUS
10
1.56822
20
2.4773
11
1.57461
21
2.47445
0
LINE
8
BLACK
6
CONTINUOUS
10
1.57461
20
2.47445
11
1.58027
21
2.47034
0
LINE
8
BLACK
6
CONTINUOUS
10
1.58027
20
2.47034
11
1.58495
21
2.46514
0
LINE
8
BLACK
6
CONTINUOUS
10
1.58495
20
2.46514
11
1.58845
21
2.45908
0
LINE
8
BLACK
6
CONTINUOUS
10
1.58845
20
2.45908
11
1.59061
21
2.45243
0
LINE
8
BLACK
6
CONTINUOUS
10
1.59061
20
2.45243
11
1.59134
21
2.44547
0
LINE
8
BLACK
6
CONTINUOUS
10
1.59134
20
2.44547
11
1.59061
21
2.43851
0
LINE
8
BLACK
6
CONTINUOUS
10
1.59061
20
2.43851
11
1.58845
21
2.43186
0
LINE
8
BLACK
6
CONTINUOUS
10
1.58845
20
2.43186
11
1.58495
21
2.4258
0
LINE
8
BLACK
6
CONTINUOUS
10
1.58495
20
2.4258
11
1.58027
21
2.4206
0
LINE
8
BLACK
6
CONTINUOUS
10
1.58027
20
2.4206
11
1.57461
21
2.41649
0
LINE
8
BLACK
6
CONTINUOUS
10
1.57461
20
2.41649
11
1.56822
21
2.41365
0
LINE
8
BLACK
6
CONTINUOUS
10
1.56822
20
2.41365
11
1.56137
21
2.41219
0
LINE
8
BLACK
6
CONTINUOUS
10
1.56137
20
2.41219
11
1.55438
21
2.41219
0
LINE
8
BLACK
6
CONTINUOUS
10
1.55438
20
2.41219
11
1.54753
21
2.41365
0
LINE
8
BLACK
6
CONTINUOUS
10
1.54753
20
2.41365
11
1.54114
21
2.41649
0
LINE
8
BLACK
6
CONTINUOUS
10
1.54114
20
2.41649
11
1.53548
21
2.4206
0
LINE
8
BLACK
6
CONTINUOUS
10
1.53548
20
2.4206
11
1.5308
21
2.4258
0
LINE
8
BLACK
6
CONTINUOUS
10
1.5308
20
2.4258
11
1.5273
21
2.43186
0
LINE
8
BLACK
6
CONTINUOUS
10
1.5273
20
2.43186
11
1.52514
21
2.43851
0
LINE
8
BLACK
6
CONTINUOUS
10
1.52514
20
2.43851
11
1.52441
21
2.44547
0
LINE
8
BLACK
6
CONTINUOUS
10
1.52441
20
2.44547
11
1.52514
21
2.45243
0
LINE
8
BLACK
6
CONTINUOUS
10
1.52514
20
2.45243
11
1.5273
21
2.45908
0
LINE
8
BLACK
6
CONTINUOUS
10
1.5273
20
2.45908
11
1.5308
21
2.46514
0
LINE
8
BLACK
6
CONTINUOUS
10
1.5308
20
2.46514
11
1.53548
21
2.47034
0
LINE
8
BLACK
6
CONTINUOUS
10
1.53548
20
2.47034
11
1.54114
21
2.47445
0
LINE
8
BLACK
6
CONTINUOUS
10
1.54114
20
2.47445
11
1.54753
21
2.4773
0
LINE
8
BLACK
6
CONTINUOUS
10
1.54753
20
2.4773
11
1.55438
21
2.47875
0
LINE
8
BLACK
6
CONTINUOUS
10
1.55438
20
2.47875
11
1.56137
21
2.47875
0
LINE
8
BLACK
6
CONTINUOUS
10
1.56137
20
2.47875
11
1.56822
21
2.4773
0
LINE
8
BLACK
6
CONTINUOUS
10
1.26822
20
2.4773
11
1.27461
21
2.47445
0
LINE
8
BLACK
6
CONTINUOUS
10
1.27461
20
2.47445
11
1.28027
21
2.47034
0
LINE
8
BLACK
6
CONTINUOUS
10
1.28027
20
2.47034
11
1.28495
21
2.46514
0
LINE
8
BLACK
6
CONTINUOUS
10
1.28495
20
2.46514
11
1.28845
21
2.45908
0
LINE
8
BLACK
6
CONTINUOUS
10
1.28845
20
2.45908
11
1.29061
21
2.45243
0
LINE
8
BLACK
6
CONTINUOUS
10
1.29061
20
2.45243
11
1.29134
21
2.44547
0
LINE
8
BLACK
6
CONTINUOUS
10
1.29134
20
2.44547
11
1.29061
21
2.43851
0
LINE
8
BLACK
6
CONTINUOUS
10
1.29061
20
2.43851
11
1.28845
21
2.43186
0
LINE
8
BLACK
6
CONTINUOUS
10
1.28845
20
2.43186
11
1.28495
21
2.4258
0
LINE
8
BLACK
6
CONTINUOUS
10
1.28495
20
2.4258
11
1.28027
21
2.4206
0
LINE
8
BLACK
6
CONTINUOUS
10
1.28027
20
2.4206
11
1.27461
21
2.41649
0
LINE
8
BLACK
6
CONTINUOUS
10
1.27461
20
2.41649
11
1.26822
21
2.41365
0
LINE
8
BLACK
6
CONTINUOUS
10
1.26822
20
2.41365
11
1.26137
21
2.41219
0
LINE
8
BLACK
6
CONTINUOUS
10
1.26137
20
2.41219
11
1.25438
21
2.41219
0
LINE
8
BLACK
6
CONTINUOUS
10
1.25438
20
2.41219
11
1.24753
21
2.41365
0
LINE
8
BLACK
6
CONTINUOUS
10
1.24753
20
2.41365
11
1.24114
21
2.41649
0
LINE
8
BLACK
6
CONTINUOUS
10
1.24114
20
2.41649
11
1.23548
21
2.4206
0
LINE
8
BLACK
6
CONTINUOUS
10
1.23548
20
2.4206
11
1.2308
21
2.4258
0
LINE
8
BLACK
6
CONTINUOUS
10
1.2308
20
2.4258
11
1.2273
21
2.43186
0
LINE
8
BLACK
6
CONTINUOUS
10
1.2273
20
2.43186
11
1.22514
21
2.43851
0
LINE
8
BLACK
6
CONTINUOUS
10
1.22514
20
2.43851
11
1.22441
21
2.44547
0
LINE
8
BLACK
6
CONTINUOUS
10
1.22441
20
2.44547
11
1.22514
21
2.45243
0
LINE
8
BLACK
6
CONTINUOUS
10
1.22514
20
2.45243
11
1.2273
21
2.45908
0
LINE
8
BLACK
6
CONTINUOUS
10
1.2273
20
2.45908
11
1.2308
21
2.46514
0
LINE
8
BLACK
6
CONTINUOUS
10
1.2308
20
2.46514
11
1.23548
21
2.47034
0
LINE
8
BLACK
6
CONTINUOUS
10
1.23548
20
2.47034
11
1.24114
21
2.47445
0
LINE
8
BLACK
6
CONTINUOUS
10
1.24114
20
2.47445
11
1.24753
21
2.4773
0
LINE
8
BLACK
6
CONTINUOUS
10
1.24753
20
2.4773
11
1.25438
21
2.47875
0
LINE
8
BLACK
6
CONTINUOUS
10
1.25438
20
2.47875
11
1.26137
21
2.47875
0
LINE
8
BLACK
6
CONTINUOUS
10
1.26137
20
2.47875
11
1.26822
21
2.4773
0
LINE
8
BLACK
6
CONTINUOUS
10
0.228328
20
2.48893
11
0.231441
21
2.48685
0
LINE
8
BLACK
6
CONTINUOUS
10
0.231441
20
2.48685
11
0.233521
21
2.48374
0
LINE
8
BLACK
6
CONTINUOUS
10
0.233521
20
2.48374
11
0.234252
21
2.48007
0
LINE
8
BLACK
6
CONTINUOUS
10
0.234252
20
2.48007
11
0.234252
21
2.46088
0
LINE
8
BLACK
6
CONTINUOUS
10
0.234252
20
2.46088
11
0.233521
21
2.4572
0
LINE
8
BLACK
6
CONTINUOUS
10
0.233521
20
2.4572
11
0.231441
21
2.45409
0
LINE
8
BLACK
6
CONTINUOUS
10
0.231441
20
2.45409
11
0.228328
21
2.45201
0
LINE
8
BLACK
6
CONTINUOUS
10
0.228328
20
2.45201
11
0.224656
21
2.45128
0
LINE
8
BLACK
6
CONTINUOUS
10
0.224656
20
2.45128
11
0.18873
21
2.45128
0
LINE
8
BLACK
6
CONTINUOUS
10
0.18873
20
2.45128
11
0.185058
21
2.45201
0
LINE
8
BLACK
6
CONTINUOUS
10
0.185058
20
2.45201
11
0.181945
21
2.45409
0
LINE
8
BLACK
6
CONTINUOUS
10
0.181945
20
2.45409
11
0.179864
21
2.4572
0
LINE
8
BLACK
6
CONTINUOUS
10
0.179864
20
2.4572
11
0.179134
21
2.46088
0
LINE
8
BLACK
6
CONTINUOUS
10
0.179134
20
2.46088
11
0.179134
21
2.48007
0
LINE
8
BLACK
6
CONTINUOUS
10
0.179134
20
2.48007
11
0.179864
21
2.48374
0
LINE
8
BLACK
6
CONTINUOUS
10
0.179864
20
2.48374
11
0.181945
21
2.48685
0
LINE
8
BLACK
6
CONTINUOUS
10
0.181945
20
2.48685
11
0.185058
21
2.48893
0
LINE
8
BLACK
6
CONTINUOUS
10
0.185058
20
2.48893
11
0.18873
21
2.48967
0
LINE
8
BLACK
6
CONTINUOUS
10
0.18873
20
2.48967
11
0.224656
21
2.48967
0
LINE
8
BLACK
6
CONTINUOUS
10
0.224656
20
2.48967
11
0.228328
21
2.48893
  0
ENDSEC
  0
EOF
