  0
SECTION
  2
HEADER
  9
$ANGBASE
  50
0.0
  9
$ANGDIR
  70
1
  9
$MEASUREMENT
  70
0
  0
ENDSEC
  0
SECTION
  2
TABLES
  0
TABLE
  2
LTYPE
  70
4
  0
LTYPE
  5
40F
  2
CONTINUOUS
  70
0
  3
Solid line
  72
65
  73
0
  40
0.0
  0
LTYPE
  5
410
  2
DASHDOT
 70
0
  3
Dash Dot ____ _ ____ _
 72
65
 73
4
 40
2.0
 49
1.25
 49
-0.25
 49
0.25
 49
-0.25
  0
LTYPE
  5
411
  2
DASHED
 70
0
  3
Dashed __ __ __ __ __
 72
65
 73
2
 40
0.75
 49
0.5
 49
-0.25
  0
LTYPE
  5
43B
  2
DOTTED
 70
0
  3
Dotted .  .  .  .
 72
65
 73
2
 40
0.2
 49
0.0
 49
-0.2
  0
ENDTAB
  0
TABLE
  2
STYLE
  70
4
  0
STYLE
  2
KICAD
  70
0
  40
0
  41
1
  42
1
  50
0
  71
0
  3
isocp.shx
  0
STYLE
  2
KICADB
  70
0
  40
0
  41
1
  42
1
  50
0
  71
0
  3
isocp.shx
  0
STYLE
  2
KICADI
  70
0
  40
0
  41
1
  42
1
  50
15
  71
0
  3
isocp.shx
  0
STYLE
  2
KICADBI
  70
0
  40
0
  41
1
  42
1
  50
15
  71
0
  3
isocp.shx
  0
ENDTAB
  0
TABLE
  2
LAYER
  70
1
  0
LAYER
  2
BLACK
  70
0
  62
7
  6
CONTINUOUS
  0
ENDTAB
  0
ENDSEC
  0
SECTION
  2
ENTITIES
0
LINE
8
BLACK
6
CONTINUOUS
10
0.560328
20
-0.168131
11
0.560039
21
-0.167436
0
LINE
8
BLACK
6
CONTINUOUS
10
0.560039
20
-0.167436
11
0.560039
21
-0.0746344
0
LINE
8
BLACK
6
CONTINUOUS
10
0.560039
20
-0.0746344
11
0.546713
21
-0.0642022
0
LINE
8
BLACK
6
CONTINUOUS
10
0.546713
20
-0.0642022
11
0.534354
21
-0.0525889
0
LINE
8
BLACK
6
CONTINUOUS
10
0.534354
20
-0.0525889
11
0.523091
21
-0.0399102
0
LINE
8
BLACK
6
CONTINUOUS
10
0.523091
20
-0.0399102
11
0.513014
21
-0.0262693
0
LINE
8
BLACK
6
CONTINUOUS
10
0.513014
20
-0.0262693
11
0.504207
21
-0.0117767
0
LINE
8
BLACK
6
CONTINUOUS
10
0.504207
20
-0.0117767
11
0.49674
21
0.0034498
0
LINE
8
BLACK
6
CONTINUOUS
10
0.49674
20
0.0034498
11
0.490673
21
0.0192867
0
LINE
8
BLACK
6
CONTINUOUS
10
0.490673
20
0.0192867
11
0.486057
21
0.0356053
0
LINE
8
BLACK
6
CONTINUOUS
10
0.486057
20
0.0356053
11
0.482928
21
0.0522732
0
LINE
8
BLACK
6
CONTINUOUS
10
0.482928
20
0.0522732
11
0.481312
21
0.0691551
0
LINE
8
BLACK
6
CONTINUOUS
10
0.481312
20
0.0691551
11
0.481223
21
0.0861139
0
LINE
8
BLACK
6
CONTINUOUS
10
0.481223
20
0.0861139
11
0.48266
21
0.103012
0
LINE
8
BLACK
6
CONTINUOUS
10
0.48266
20
0.103012
11
0.485613
21
0.119712
0
LINE
8
BLACK
6
CONTINUOUS
10
0.485613
20
0.119712
11
0.490056
21
0.136078
0
LINE
8
BLACK
6
CONTINUOUS
10
0.490056
20
0.136078
11
0.495955
21
0.151978
0
LINE
8
BLACK
6
CONTINUOUS
10
0.495955
20
0.151978
11
0.503261
21
0.167283
0
LINE
8
BLACK
6
CONTINUOUS
10
0.503261
20
0.167283
11
0.511915
21
0.181868
0
LINE
8
BLACK
6
CONTINUOUS
10
0.511915
20
0.181868
11
0.521847
21
0.195614
0
LINE
8
BLACK
6
CONTINUOUS
10
0.521847
20
0.195614
11
0.532976
21
0.208411
0
LINE
8
BLACK
6
CONTINUOUS
10
0.532976
20
0.208411
11
0.545211
21
0.220155
0
LINE
8
BLACK
6
CONTINUOUS
10
0.545211
20
0.220155
11
0.558454
21
0.230749
0
LINE
8
BLACK
6
CONTINUOUS
10
0.558454
20
0.230749
11
0.572596
21
0.240108
0
LINE
8
BLACK
6
CONTINUOUS
10
0.572596
20
0.240108
11
0.587524
21
0.248156
0
LINE
8
BLACK
6
CONTINUOUS
10
0.587524
20
0.248156
11
0.603116
21
0.254828
0
LINE
8
BLACK
6
CONTINUOUS
10
0.603116
20
0.254828
11
0.619244
21
0.260069
0
LINE
8
BLACK
6
CONTINUOUS
10
0.619244
20
0.260069
11
0.635779
21
0.263838
0
LINE
8
BLACK
6
CONTINUOUS
10
0.635779
20
0.263838
11
0.652586
21
0.266102
0
LINE
8
BLACK
6
CONTINUOUS
10
0.652586
20
0.266102
11
0.669529
21
0.266845
0
LINE
8
BLACK
6
CONTINUOUS
10
0.669529
20
0.266845
11
0.68647
21
0.266059
0
LINE
8
BLACK
6
CONTINUOUS
10
0.68647
20
0.266059
11
0.703271
21
0.263752
0
LINE
8
BLACK
6
CONTINUOUS
10
0.703271
20
0.263752
11
0.719797
21
0.259942
0
LINE
8
BLACK
6
CONTINUOUS
10
0.719797
20
0.259942
11
0.735912
21
0.25466
0
LINE
8
BLACK
6
CONTINUOUS
10
0.735912
20
0.25466
11
0.751487
21
0.247949
0
LINE
8
BLACK
6
CONTINUOUS
10
0.751487
20
0.247949
11
0.766394
21
0.239863
0
LINE
8
BLACK
6
CONTINUOUS
10
0.766394
20
0.239863
11
0.780513
21
0.230468
0
LINE
8
BLACK
6
CONTINUOUS
10
0.780513
20
0.230468
11
0.793729
21
0.21984
0
LINE
8
BLACK
6
CONTINUOUS
10
0.793729
20
0.21984
11
0.805935
21
0.208066
0
LINE
8
BLACK
6
CONTINUOUS
10
0.805935
20
0.208066
11
0.817031
21
0.195241
0
LINE
8
BLACK
6
CONTINUOUS
10
0.817031
20
0.195241
11
0.826928
21
0.18147
0
LINE
8
BLACK
6
CONTINUOUS
10
0.826928
20
0.18147
11
0.835545
21
0.166863
0
LINE
8
BLACK
6
CONTINUOUS
10
0.835545
20
0.166863
11
0.842812
21
0.15154
0
LINE
8
BLACK
6
CONTINUOUS
10
0.842812
20
0.15154
11
0.848671
21
0.135625
0
LINE
8
BLACK
6
CONTINUOUS
10
0.848671
20
0.135625
11
0.853073
21
0.119248
0
LINE
8
BLACK
6
CONTINUOUS
10
0.853073
20
0.119248
11
0.855984
21
0.10254
0
LINE
8
BLACK
6
CONTINUOUS
10
0.855984
20
0.10254
11
0.857378
21
0.0856386
0
LINE
8
BLACK
6
CONTINUOUS
10
0.857378
20
0.0856386
11
0.857246
21
0.0686801
0
LINE
8
BLACK
6
CONTINUOUS
10
0.857246
20
0.0686801
11
0.855587
21
0.0518023
0
LINE
8
BLACK
6
CONTINUOUS
10
0.855587
20
0.0518023
11
0.852417
21
0.0351424
0
LINE
8
BLACK
6
CONTINUOUS
10
0.852417
20
0.0351424
11
0.847759
21
0.0188355
0
LINE
8
BLACK
6
CONTINUOUS
10
0.847759
20
0.0188355
11
0.841653
21
0.00301398
0
LINE
8
BLACK
6
CONTINUOUS
10
0.841653
20
0.00301398
11
0.834147
21
-0.0121936
0
LINE
8
BLACK
6
CONTINUOUS
10
0.834147
20
-0.0121936
11
0.825303
21
-0.0266639
0
LINE
8
BLACK
6
CONTINUOUS
10
0.825303
20
-0.0266639
11
0.815192
21
-0.0402794
0
LINE
8
BLACK
6
CONTINUOUS
10
0.815192
20
-0.0402794
11
0.803897
21
-0.0529294
0
LINE
8
BLACK
6
CONTINUOUS
10
0.803897
20
-0.0529294
11
0.791509
21
-0.0645115
0
LINE
8
BLACK
6
CONTINUOUS
10
0.791509
20
-0.0645115
11
0.778543
21
-0.0746081
0
LINE
8
BLACK
6
CONTINUOUS
10
0.778543
20
-0.0746081
11
0.778543
21
-0.167436
0
LINE
8
BLACK
6
CONTINUOUS
10
0.778543
20
-0.167436
11
0.778255
21
-0.168131
0
LINE
8
BLACK
6
CONTINUOUS
10
0.778255
20
-0.168131
11
0.777559
21
-0.16842
0
LINE
8
BLACK
6
CONTINUOUS
10
0.777559
20
-0.16842
11
0.561024
21
-0.16842
0
LINE
8
BLACK
6
CONTINUOUS
10
0.561024
20
-0.16842
11
0.560328
21
-0.168131
0
LINE
8
BLACK
6
CONTINUOUS
10
0.652744
20
0.264329
11
0.636096
21
0.262085
0
LINE
8
BLACK
6
CONTINUOUS
10
0.636096
20
0.262085
11
0.619718
21
0.258353
0
LINE
8
BLACK
6
CONTINUOUS
10
0.619718
20
0.258353
11
0.603742
21
0.253161
0
LINE
8
BLACK
6
CONTINUOUS
10
0.603742
20
0.253161
11
0.588298
21
0.246552
0
LINE
8
BLACK
6
CONTINUOUS
10
0.588298
20
0.246552
11
0.573511
21
0.23858
0
LINE
8
BLACK
6
CONTINUOUS
10
0.573511
20
0.23858
11
0.559502
21
0.229309
0
LINE
8
BLACK
6
CONTINUOUS
10
0.559502
20
0.229309
11
0.546385
21
0.218815
0
LINE
8
BLACK
6
CONTINUOUS
10
0.546385
20
0.218815
11
0.534265
21
0.207183
0
LINE
8
BLACK
6
CONTINUOUS
10
0.534265
20
0.207183
11
0.523242
21
0.194508
0
LINE
8
BLACK
6
CONTINUOUS
10
0.523242
20
0.194508
11
0.513404
21
0.180891
0
LINE
8
BLACK
6
CONTINUOUS
10
0.513404
20
0.180891
11
0.504832
21
0.166444
0
LINE
8
BLACK
6
CONTINUOUS
10
0.504832
20
0.166444
11
0.497595
21
0.151284
0
LINE
8
BLACK
6
CONTINUOUS
10
0.497595
20
0.151284
11
0.491752
21
0.135535
0
LINE
8
BLACK
6
CONTINUOUS
10
0.491752
20
0.135535
11
0.48735
21
0.119323
0
LINE
8
BLACK
6
CONTINUOUS
10
0.48735
20
0.119323
11
0.484426
21
0.102781
0
LINE
8
BLACK
6
CONTINUOUS
10
0.484426
20
0.102781
11
0.483002
21
0.0860431
0
LINE
8
BLACK
6
CONTINUOUS
10
0.483002
20
0.0860431
11
0.483091
21
0.0692447
0
LINE
8
BLACK
6
CONTINUOUS
10
0.483091
20
0.0692447
11
0.484691
21
0.0525226
0
LINE
8
BLACK
6
CONTINUOUS
10
0.484691
20
0.0525226
11
0.48779
21
0.0360124
0
LINE
8
BLACK
6
CONTINUOUS
10
0.48779
20
0.0360124
11
0.492363
21
0.0198481
0
LINE
8
BLACK
6
CONTINUOUS
10
0.492363
20
0.0198481
11
0.498372
21
0.0041611
0
LINE
8
BLACK
6
CONTINUOUS
10
0.498372
20
0.0041611
11
0.505769
21
-0.0109214
0
LINE
8
BLACK
6
CONTINUOUS
10
0.505769
20
-0.0109214
11
0.514493
21
-0.0252768
0
LINE
8
BLACK
6
CONTINUOUS
10
0.514493
20
-0.0252768
11
0.524474
21
-0.0387887
0
LINE
8
BLACK
6
CONTINUOUS
10
0.524474
20
-0.0387887
11
0.535631
21
-0.0513474
0
LINE
8
BLACK
6
CONTINUOUS
10
0.535631
20
-0.0513474
11
0.547873
21
-0.0628508
0
LINE
8
BLACK
6
CONTINUOUS
10
0.547873
20
-0.0628508
11
0.560778
21
-0.0729534
0
LINE
8
BLACK
6
CONTINUOUS
10
0.560778
20
-0.0729534
11
0.561209
21
-0.0730528
0
LINE
8
BLACK
6
CONTINUOUS
10
0.561209
20
-0.0730528
11
0.561351
21
-0.0732798
0
LINE
8
BLACK
6
CONTINUOUS
10
0.561351
20
-0.0732798
11
0.56172
21
-0.0734324
0
LINE
8
BLACK
6
CONTINUOUS
10
0.56172
20
-0.0734324
11
0.562008
21
-0.0741284
0
LINE
8
BLACK
6
CONTINUOUS
10
0.562008
20
-0.0741284
11
0.562008
21
-0.166451
0
LINE
8
BLACK
6
CONTINUOUS
10
0.562008
20
-0.166451
11
0.776575
21
-0.166451
0
LINE
8
BLACK
6
CONTINUOUS
10
0.776575
20
-0.166451
11
0.776575
21
-0.0741284
0
LINE
8
BLACK
6
CONTINUOUS
10
0.776575
20
-0.0741284
11
0.776608
21
-0.074048
0
LINE
8
BLACK
6
CONTINUOUS
10
0.776608
20
-0.074048
11
0.776589
21
-0.0739631
0
LINE
8
BLACK
6
CONTINUOUS
10
0.776589
20
-0.0739631
11
0.776748
21
-0.0737094
0
LINE
8
BLACK
6
CONTINUOUS
10
0.776748
20
-0.0737094
11
0.776863
21
-0.0734324
0
LINE
8
BLACK
6
CONTINUOUS
10
0.776863
20
-0.0734324
11
0.776944
21
-0.0733991
0
LINE
8
BLACK
6
CONTINUOUS
10
0.776944
20
-0.0733991
11
0.77699
21
-0.0733254
0
LINE
8
BLACK
6
CONTINUOUS
10
0.77699
20
-0.0733254
11
0.777282
21
-0.0732589
0
LINE
8
BLACK
6
CONTINUOUS
10
0.777282
20
-0.0732589
11
0.777492
21
-0.0731718
0
LINE
8
BLACK
6
CONTINUOUS
10
0.777492
20
-0.0731718
11
0.790352
21
-0.0631572
0
LINE
8
BLACK
6
CONTINUOUS
10
0.790352
20
-0.0631572
11
0.802623
21
-0.0516847
0
LINE
8
BLACK
6
CONTINUOUS
10
0.802623
20
-0.0516847
11
0.813811
21
-0.0391543
0
LINE
8
BLACK
6
CONTINUOUS
10
0.813811
20
-0.0391543
11
0.823827
21
-0.0256677
0
LINE
8
BLACK
6
CONTINUOUS
10
0.823827
20
-0.0256677
11
0.832587
21
-0.0113343
0
LINE
8
BLACK
6
CONTINUOUS
10
0.832587
20
-0.0113343
11
0.840022
21
0.00372937
0
LINE
8
BLACK
6
CONTINUOUS
10
0.840022
20
0.00372937
11
0.846071
21
0.0194012
0
LINE
8
BLACK
6
CONTINUOUS
10
0.846071
20
0.0194012
11
0.850684
21
0.0355538
0
LINE
8
BLACK
6
CONTINUOUS
10
0.850684
20
0.0355538
11
0.853825
21
0.0520561
0
LINE
8
BLACK
6
CONTINUOUS
10
0.853825
20
0.0520561
11
0.855467
21
0.0687742
0
LINE
8
BLACK
6
CONTINUOUS
10
0.855467
20
0.0687742
11
0.855599
21
0.0855722
0
LINE
8
BLACK
6
CONTINUOUS
10
0.855599
20
0.0855722
11
0.854217
21
0.102314
0
LINE
8
BLACK
6
CONTINUOUS
10
0.854217
20
0.102314
11
0.851335
21
0.118863
0
LINE
8
BLACK
6
CONTINUOUS
10
0.851335
20
0.118863
11
0.846974
21
0.135086
0
LINE
8
BLACK
6
CONTINUOUS
10
0.846974
20
0.135086
11
0.841171
21
0.15085
0
LINE
8
BLACK
6
CONTINUOUS
10
0.841171
20
0.15085
11
0.833972
21
0.166028
0
LINE
8
BLACK
6
CONTINUOUS
10
0.833972
20
0.166028
11
0.825436
21
0.180497
0
LINE
8
BLACK
6
CONTINUOUS
10
0.825436
20
0.180497
11
0.815633
21
0.194138
0
LINE
8
BLACK
6
CONTINUOUS
10
0.815633
20
0.194138
11
0.804642
21
0.206842
0
LINE
8
BLACK
6
CONTINUOUS
10
0.804642
20
0.206842
11
0.792552
21
0.218504
0
LINE
8
BLACK
6
CONTINUOUS
10
0.792552
20
0.218504
11
0.779461
21
0.229031
0
LINE
8
BLACK
6
CONTINUOUS
10
0.779461
20
0.229031
11
0.765475
21
0.238338
0
LINE
8
BLACK
6
CONTINUOUS
10
0.765475
20
0.238338
11
0.750709
21
0.246347
0
LINE
8
BLACK
6
CONTINUOUS
10
0.750709
20
0.246347
11
0.735282
21
0.252995
0
LINE
8
BLACK
6
CONTINUOUS
10
0.735282
20
0.252995
11
0.719319
21
0.258227
0
LINE
8
BLACK
6
CONTINUOUS
10
0.719319
20
0.258227
11
0.70295
21
0.262001
0
LINE
8
BLACK
6
CONTINUOUS
10
0.70295
20
0.262001
11
0.686307
21
0.264286
0
LINE
8
BLACK
6
CONTINUOUS
10
0.686307
20
0.264286
11
0.669527
21
0.265064
0
LINE
8
BLACK
6
CONTINUOUS
10
0.669527
20
0.265064
11
0.652744
21
0.264329
0
LINE
8
BLACK
6
CONTINUOUS
10
1.01505
20
-0.11605
11
1.01476
21
-0.115354
0
LINE
8
BLACK
6
CONTINUOUS
10
1.01476
20
-0.115354
11
1.01476
21
0.0169291
0
LINE
8
BLACK
6
CONTINUOUS
10
1.01476
20
0.0169291
11
1.01505
21
0.0176251
0
LINE
8
BLACK
6
CONTINUOUS
10
1.01505
20
0.0176251
11
1.01575
21
0.0179134
0
LINE
8
BLACK
6
CONTINUOUS
10
1.01575
20
0.0179134
11
1.09055
21
0.0179134
0
LINE
8
BLACK
6
CONTINUOUS
10
1.09055
20
0.0179134
11
1.09125
21
0.0176251
0
LINE
8
BLACK
6
CONTINUOUS
10
1.09125
20
0.0176251
11
1.09154
21
0.0169291
0
LINE
8
BLACK
6
CONTINUOUS
10
1.09154
20
0.0169291
11
1.09154
21
-0.115354
0
LINE
8
BLACK
6
CONTINUOUS
10
1.09154
20
-0.115354
11
1.09125
21
-0.11605
0
LINE
8
BLACK
6
CONTINUOUS
10
1.09125
20
-0.11605
11
1.09055
21
-0.116339
0
LINE
8
BLACK
6
CONTINUOUS
10
1.09055
20
-0.116339
11
1.01575
21
-0.116339
0
LINE
8
BLACK
6
CONTINUOUS
10
1.01575
20
-0.116339
11
1.01505
21
-0.11605
0
LINE
8
BLACK
6
CONTINUOUS
10
1.01673
20
0.0159449
11
1.01673
21
-0.11437
0
LINE
8
BLACK
6
CONTINUOUS
10
1.01673
20
-0.11437
11
1.08957
21
-0.11437
0
LINE
8
BLACK
6
CONTINUOUS
10
1.08957
20
-0.11437
11
1.08957
21
0.0159449
0
LINE
8
BLACK
6
CONTINUOUS
10
1.08957
20
0.0159449
11
1.01673
21
0.0159449
0
LINE
8
BLACK
6
CONTINUOUS
10
0.926469
20
-0.11605
11
0.926181
21
-0.115354
0
LINE
8
BLACK
6
CONTINUOUS
10
0.926181
20
-0.115354
11
0.926181
21
0.0169291
0
LINE
8
BLACK
6
CONTINUOUS
10
0.926181
20
0.0169291
11
0.926469
21
0.0176251
0
LINE
8
BLACK
6
CONTINUOUS
10
0.926469
20
0.0176251
11
0.927165
21
0.0179134
0
LINE
8
BLACK
6
CONTINUOUS
10
0.927165
20
0.0179134
11
1.00197
21
0.0179134
0
LINE
8
BLACK
6
CONTINUOUS
10
1.00197
20
0.0179134
11
1.00266
21
0.0176251
0
LINE
8
BLACK
6
CONTINUOUS
10
1.00266
20
0.0176251
11
1.00295
21
0.0169291
0
LINE
8
BLACK
6
CONTINUOUS
10
1.00295
20
0.0169291
11
1.00295
21
-0.115354
0
LINE
8
BLACK
6
CONTINUOUS
10
1.00295
20
-0.115354
11
1.00266
21
-0.11605
0
LINE
8
BLACK
6
CONTINUOUS
10
1.00266
20
-0.11605
11
1.00197
21
-0.116339
0
LINE
8
BLACK
6
CONTINUOUS
10
1.00197
20
-0.116339
11
0.927165
21
-0.116339
0
LINE
8
BLACK
6
CONTINUOUS
10
0.927165
20
-0.116339
11
0.926469
21
-0.11605
0
LINE
8
BLACK
6
CONTINUOUS
10
0.92815
20
0.0159449
11
0.92815
21
-0.11437
0
LINE
8
BLACK
6
CONTINUOUS
10
0.92815
20
-0.11437
11
1.00098
21
-0.11437
0
LINE
8
BLACK
6
CONTINUOUS
10
1.00098
20
-0.11437
11
1.00098
21
0.0159449
0
LINE
8
BLACK
6
CONTINUOUS
10
1.00098
20
0.0159449
11
0.92815
21
0.0159449
0
LINE
8
BLACK
6
CONTINUOUS
10
0.965839
20
0.169776
11
0.965551
21
0.170472
0
LINE
8
BLACK
6
CONTINUOUS
10
0.965551
20
0.170472
11
0.965551
21
0.321654
0
LINE
8
BLACK
6
CONTINUOUS
10
0.965551
20
0.321654
11
0.965839
21
0.32235
0
LINE
8
BLACK
6
CONTINUOUS
10
0.965839
20
0.32235
11
0.966535
21
0.322638
0
LINE
8
BLACK
6
CONTINUOUS
10
0.966535
20
0.322638
11
1.10039
21
0.322638
0
LINE
8
BLACK
6
CONTINUOUS
10
1.10039
20
0.322638
11
1.10109
21
0.32235
0
LINE
8
BLACK
6
CONTINUOUS
10
1.10109
20
0.32235
11
1.10138
21
0.321654
0
LINE
8
BLACK
6
CONTINUOUS
10
1.10138
20
0.321654
11
1.10138
21
0.170472
0
LINE
8
BLACK
6
CONTINUOUS
10
1.10138
20
0.170472
11
1.10109
21
0.169776
0
LINE
8
BLACK
6
CONTINUOUS
10
1.10109
20
0.169776
11
1.10039
21
0.169488
0
LINE
8
BLACK
6
CONTINUOUS
10
1.10039
20
0.169488
11
0.966535
21
0.169488
0
LINE
8
BLACK
6
CONTINUOUS
10
0.966535
20
0.169488
11
0.965839
21
0.169776
0
LINE
8
BLACK
6
CONTINUOUS
10
0.96752
20
0.320669
11
0.96752
21
0.171457
0
LINE
8
BLACK
6
CONTINUOUS
10
0.96752
20
0.171457
11
1.09941
21
0.171457
0
LINE
8
BLACK
6
CONTINUOUS
10
1.09941
20
0.171457
11
1.09941
21
0.320669
0
LINE
8
BLACK
6
CONTINUOUS
10
1.09941
20
0.320669
11
0.96752
21
0.320669
0
LINE
8
BLACK
6
CONTINUOUS
10
1.31033
20
0.169776
11
1.31004
21
0.170472
0
LINE
8
BLACK
6
CONTINUOUS
10
1.31004
20
0.170472
11
1.31004
21
0.321654
0
LINE
8
BLACK
6
CONTINUOUS
10
1.31004
20
0.321654
11
1.31033
21
0.32235
0
LINE
8
BLACK
6
CONTINUOUS
10
1.31033
20
0.32235
11
1.31102
21
0.322638
0
LINE
8
BLACK
6
CONTINUOUS
10
1.31102
20
0.322638
11
1.44488
21
0.322638
0
LINE
8
BLACK
6
CONTINUOUS
10
1.44488
20
0.322638
11
1.44558
21
0.32235
0
LINE
8
BLACK
6
CONTINUOUS
10
1.44558
20
0.32235
11
1.44587
21
0.321654
0
LINE
8
BLACK
6
CONTINUOUS
10
1.44587
20
0.321654
11
1.44587
21
0.170472
0
LINE
8
BLACK
6
CONTINUOUS
10
1.44587
20
0.170472
11
1.44558
21
0.169776
0
LINE
8
BLACK
6
CONTINUOUS
10
1.44558
20
0.169776
11
1.44488
21
0.169488
0
LINE
8
BLACK
6
CONTINUOUS
10
1.44488
20
0.169488
11
1.31102
21
0.169488
0
LINE
8
BLACK
6
CONTINUOUS
10
1.31102
20
0.169488
11
1.31033
21
0.169776
0
LINE
8
BLACK
6
CONTINUOUS
10
1.31201
20
0.320669
11
1.31201
21
0.171457
0
LINE
8
BLACK
6
CONTINUOUS
10
1.31201
20
0.171457
11
1.4439
21
0.171457
0
LINE
8
BLACK
6
CONTINUOUS
10
1.4439
20
0.171457
11
1.4439
21
0.320669
0
LINE
8
BLACK
6
CONTINUOUS
10
1.4439
20
0.320669
11
1.31201
21
0.320669
0
LINE
8
BLACK
6
CONTINUOUS
10
1.13661
20
0.169776
11
1.13632
21
0.170472
0
LINE
8
BLACK
6
CONTINUOUS
10
1.13632
20
0.170472
11
1.13632
21
0.321654
0
LINE
8
BLACK
6
CONTINUOUS
10
1.13632
20
0.321654
11
1.13661
21
0.32235
0
LINE
8
BLACK
6
CONTINUOUS
10
1.13661
20
0.32235
11
1.1373
21
0.322638
0
LINE
8
BLACK
6
CONTINUOUS
10
1.1373
20
0.322638
11
1.27116
21
0.322638
0
LINE
8
BLACK
6
CONTINUOUS
10
1.27116
20
0.322638
11
1.27186
21
0.32235
0
LINE
8
BLACK
6
CONTINUOUS
10
1.27186
20
0.32235
11
1.27215
21
0.321654
0
LINE
8
BLACK
6
CONTINUOUS
10
1.27215
20
0.321654
11
1.27215
21
0.170472
0
LINE
8
BLACK
6
CONTINUOUS
10
1.27215
20
0.170472
11
1.27186
21
0.169776
0
LINE
8
BLACK
6
CONTINUOUS
10
1.27186
20
0.169776
11
1.27116
21
0.169488
0
LINE
8
BLACK
6
CONTINUOUS
10
1.27116
20
0.169488
11
1.1373
21
0.169488
0
LINE
8
BLACK
6
CONTINUOUS
10
1.1373
20
0.169488
11
1.13661
21
0.169776
0
LINE
8
BLACK
6
CONTINUOUS
10
1.13829
20
0.320669
11
1.13829
21
0.171457
0
LINE
8
BLACK
6
CONTINUOUS
10
1.13829
20
0.171457
11
1.27018
21
0.171457
0
LINE
8
BLACK
6
CONTINUOUS
10
1.27018
20
0.171457
11
1.27018
21
0.320669
0
LINE
8
BLACK
6
CONTINUOUS
10
1.27018
20
0.320669
11
1.13829
21
0.320669
0
LINE
8
BLACK
6
CONTINUOUS
10
1.13395
20
0.414658
11
1.13366
21
0.415354
0
LINE
8
BLACK
6
CONTINUOUS
10
1.13366
20
0.415354
11
1.13366
21
0.490157
0
LINE
8
BLACK
6
CONTINUOUS
10
1.13366
20
0.490157
11
1.13395
21
0.490853
0
LINE
8
BLACK
6
CONTINUOUS
10
1.13395
20
0.490853
11
1.13465
21
0.491142
0
LINE
8
BLACK
6
CONTINUOUS
10
1.13465
20
0.491142
11
1.26693
21
0.491142
0
LINE
8
BLACK
6
CONTINUOUS
10
1.26693
20
0.491142
11
1.26763
21
0.490853
0
LINE
8
BLACK
6
CONTINUOUS
10
1.26763
20
0.490853
11
1.26791
21
0.490157
0
LINE
8
BLACK
6
CONTINUOUS
10
1.26791
20
0.490157
11
1.26791
21
0.415354
0
LINE
8
BLACK
6
CONTINUOUS
10
1.26791
20
0.415354
11
1.26763
21
0.414658
0
LINE
8
BLACK
6
CONTINUOUS
10
1.26763
20
0.414658
11
1.26693
21
0.41437
0
LINE
8
BLACK
6
CONTINUOUS
10
1.26693
20
0.41437
11
1.13465
21
0.41437
0
LINE
8
BLACK
6
CONTINUOUS
10
1.13465
20
0.41437
11
1.13395
21
0.414658
0
LINE
8
BLACK
6
CONTINUOUS
10
1.13563
20
0.489173
11
1.13563
21
0.416339
0
LINE
8
BLACK
6
CONTINUOUS
10
1.13563
20
0.416339
11
1.26594
21
0.416339
0
LINE
8
BLACK
6
CONTINUOUS
10
1.26594
20
0.416339
11
1.26594
21
0.489173
0
LINE
8
BLACK
6
CONTINUOUS
10
1.26594
20
0.489173
11
1.13563
21
0.489173
0
LINE
8
BLACK
6
CONTINUOUS
10
0.963182
20
0.414658
11
0.962894
21
0.415354
0
LINE
8
BLACK
6
CONTINUOUS
10
0.962894
20
0.415354
11
0.962894
21
0.490157
0
LINE
8
BLACK
6
CONTINUOUS
10
0.962894
20
0.490157
11
0.963182
21
0.490853
0
LINE
8
BLACK
6
CONTINUOUS
10
0.963182
20
0.490853
11
0.963878
21
0.491142
0
LINE
8
BLACK
6
CONTINUOUS
10
0.963878
20
0.491142
11
1.09616
21
0.491142
0
LINE
8
BLACK
6
CONTINUOUS
10
1.09616
20
0.491142
11
1.09686
21
0.490853
0
LINE
8
BLACK
6
CONTINUOUS
10
1.09686
20
0.490853
11
1.09715
21
0.490157
0
LINE
8
BLACK
6
CONTINUOUS
10
1.09715
20
0.490157
11
1.09715
21
0.415354
0
LINE
8
BLACK
6
CONTINUOUS
10
1.09715
20
0.415354
11
1.09686
21
0.414658
0
LINE
8
BLACK
6
CONTINUOUS
10
1.09686
20
0.414658
11
1.09616
21
0.41437
0
LINE
8
BLACK
6
CONTINUOUS
10
1.09616
20
0.41437
11
0.963878
21
0.41437
0
LINE
8
BLACK
6
CONTINUOUS
10
0.963878
20
0.41437
11
0.963182
21
0.414658
0
LINE
8
BLACK
6
CONTINUOUS
10
0.964862
20
0.489173
11
0.964862
21
0.416339
0
LINE
8
BLACK
6
CONTINUOUS
10
0.964862
20
0.416339
11
1.09518
21
0.416339
0
LINE
8
BLACK
6
CONTINUOUS
10
1.09518
20
0.416339
11
1.09518
21
0.489173
0
LINE
8
BLACK
6
CONTINUOUS
10
1.09518
20
0.489173
11
0.964862
21
0.489173
0
LINE
8
BLACK
6
CONTINUOUS
10
1.29143
20
0.414658
11
1.29114
21
0.415354
0
LINE
8
BLACK
6
CONTINUOUS
10
1.29114
20
0.415354
11
1.29114
21
0.490157
0
LINE
8
BLACK
6
CONTINUOUS
10
1.29114
20
0.490157
11
1.29143
21
0.490853
0
LINE
8
BLACK
6
CONTINUOUS
10
1.29143
20
0.490853
11
1.29213
21
0.491142
0
LINE
8
BLACK
6
CONTINUOUS
10
1.29213
20
0.491142
11
1.42441
21
0.491142
0
LINE
8
BLACK
6
CONTINUOUS
10
1.42441
20
0.491142
11
1.42511
21
0.490853
0
LINE
8
BLACK
6
CONTINUOUS
10
1.42511
20
0.490853
11
1.42539
21
0.490157
0
LINE
8
BLACK
6
CONTINUOUS
10
1.42539
20
0.490157
11
1.42539
21
0.415354
0
LINE
8
BLACK
6
CONTINUOUS
10
1.42539
20
0.415354
11
1.42511
21
0.414658
0
LINE
8
BLACK
6
CONTINUOUS
10
1.42511
20
0.414658
11
1.42441
21
0.41437
0
LINE
8
BLACK
6
CONTINUOUS
10
1.42441
20
0.41437
11
1.29213
21
0.41437
0
LINE
8
BLACK
6
CONTINUOUS
10
1.29213
20
0.41437
11
1.29143
21
0.414658
0
LINE
8
BLACK
6
CONTINUOUS
10
1.29311
20
0.489173
11
1.29311
21
0.416339
0
LINE
8
BLACK
6
CONTINUOUS
10
1.29311
20
0.416339
11
1.42343
21
0.416339
0
LINE
8
BLACK
6
CONTINUOUS
10
1.42343
20
0.416339
11
1.42343
21
0.489173
0
LINE
8
BLACK
6
CONTINUOUS
10
1.42343
20
0.489173
11
1.29311
21
0.489173
0
LINE
8
BLACK
6
CONTINUOUS
10
0.855603
20
0.540643
11
0.855315
21
0.541339
0
LINE
8
BLACK
6
CONTINUOUS
10
0.855315
20
0.541339
11
0.855315
21
0.679134
0
LINE
8
BLACK
6
CONTINUOUS
10
0.855315
20
0.679134
11
0.855603
21
0.67983
0
LINE
8
BLACK
6
CONTINUOUS
10
0.855603
20
0.67983
11
0.856299
21
0.680118
0
LINE
8
BLACK
6
CONTINUOUS
10
0.856299
20
0.680118
11
1.13189
21
0.680118
0
LINE
8
BLACK
6
CONTINUOUS
10
1.13189
20
0.680118
11
1.13259
21
0.67983
0
LINE
8
BLACK
6
CONTINUOUS
10
1.13259
20
0.67983
11
1.13287
21
0.679134
0
LINE
8
BLACK
6
CONTINUOUS
10
1.13287
20
0.679134
11
1.13287
21
0.541339
0
LINE
8
BLACK
6
CONTINUOUS
10
1.13287
20
0.541339
11
1.13259
21
0.540643
0
LINE
8
BLACK
6
CONTINUOUS
10
1.13259
20
0.540643
11
1.13189
21
0.540354
0
LINE
8
BLACK
6
CONTINUOUS
10
1.13189
20
0.540354
11
0.856299
21
0.540354
0
LINE
8
BLACK
6
CONTINUOUS
10
0.856299
20
0.540354
11
0.855603
21
0.540643
0
LINE
8
BLACK
6
CONTINUOUS
10
0.857283
20
0.67815
11
0.857283
21
0.542323
0
LINE
8
BLACK
6
CONTINUOUS
10
0.857283
20
0.542323
11
1.13091
21
0.542323
0
LINE
8
BLACK
6
CONTINUOUS
10
1.13091
20
0.542323
11
1.13091
21
0.67815
0
LINE
8
BLACK
6
CONTINUOUS
10
1.13091
20
0.67815
11
0.857283
21
0.67815
0
LINE
8
BLACK
6
CONTINUOUS
10
1.15363
20
0.572139
11
1.15335
21
0.572835
0
LINE
8
BLACK
6
CONTINUOUS
10
1.15335
20
0.572835
11
1.15335
21
0.647638
0
LINE
8
BLACK
6
CONTINUOUS
10
1.15335
20
0.647638
11
1.15363
21
0.648334
0
LINE
8
BLACK
6
CONTINUOUS
10
1.15363
20
0.648334
11
1.15433
21
0.648622
0
LINE
8
BLACK
6
CONTINUOUS
10
1.15433
20
0.648622
11
1.28661
21
0.648622
0
LINE
8
BLACK
6
CONTINUOUS
10
1.28661
20
0.648622
11
1.28731
21
0.648334
0
LINE
8
BLACK
6
CONTINUOUS
10
1.28731
20
0.648334
11
1.2876
21
0.647638
0
LINE
8
BLACK
6
CONTINUOUS
10
1.2876
20
0.647638
11
1.2876
21
0.572835
0
LINE
8
BLACK
6
CONTINUOUS
10
1.2876
20
0.572835
11
1.28731
21
0.572139
0
LINE
8
BLACK
6
CONTINUOUS
10
1.28731
20
0.572139
11
1.28661
21
0.57185
0
LINE
8
BLACK
6
CONTINUOUS
10
1.28661
20
0.57185
11
1.15433
21
0.57185
0
LINE
8
BLACK
6
CONTINUOUS
10
1.15433
20
0.57185
11
1.15363
21
0.572139
0
LINE
8
BLACK
6
CONTINUOUS
10
1.15531
20
0.646654
11
1.15531
21
0.573819
0
LINE
8
BLACK
6
CONTINUOUS
10
1.15531
20
0.573819
11
1.28563
21
0.573819
0
LINE
8
BLACK
6
CONTINUOUS
10
1.28563
20
0.573819
11
1.28563
21
0.646654
0
LINE
8
BLACK
6
CONTINUOUS
10
1.28563
20
0.646654
11
1.15531
21
0.646654
0
LINE
8
BLACK
6
CONTINUOUS
10
0.278832
20
1.00127
11
0.278543
21
1.00197
0
LINE
8
BLACK
6
CONTINUOUS
10
0.278543
20
1.00197
11
0.278543
21
1.25787
0
LINE
8
BLACK
6
CONTINUOUS
10
0.278543
20
1.25787
11
0.278832
21
1.25857
0
LINE
8
BLACK
6
CONTINUOUS
10
0.278832
20
1.25857
11
0.279528
21
1.25886
0
LINE
8
BLACK
6
CONTINUOUS
10
0.279528
20
1.25886
11
0.555118
21
1.25886
0
LINE
8
BLACK
6
CONTINUOUS
10
0.555118
20
1.25886
11
0.555814
21
1.25857
0
LINE
8
BLACK
6
CONTINUOUS
10
0.555814
20
1.25857
11
0.556102
21
1.25787
0
LINE
8
BLACK
6
CONTINUOUS
10
0.556102
20
1.25787
11
0.556102
21
1.00197
0
LINE
8
BLACK
6
CONTINUOUS
10
0.556102
20
1.00197
11
0.555814
21
1.00127
0
LINE
8
BLACK
6
CONTINUOUS
10
0.555814
20
1.00127
11
0.555118
21
1.00098
0
LINE
8
BLACK
6
CONTINUOUS
10
0.555118
20
1.00098
11
0.279528
21
1.00098
0
LINE
8
BLACK
6
CONTINUOUS
10
0.279528
20
1.00098
11
0.278832
21
1.00127
0
LINE
8
BLACK
6
CONTINUOUS
10
0.280512
20
1.25689
11
0.280512
21
1.00295
0
LINE
8
BLACK
6
CONTINUOUS
10
0.280512
20
1.00295
11
0.554134
21
1.00295
0
LINE
8
BLACK
6
CONTINUOUS
10
0.554134
20
1.00295
11
0.554134
21
1.25689
0
LINE
8
BLACK
6
CONTINUOUS
10
0.554134
20
1.25689
11
0.280512
21
1.25689
0
LINE
8
BLACK
6
CONTINUOUS
10
0.0485166
20
1.05836
11
0.0482283
21
1.05906
0
LINE
8
BLACK
6
CONTINUOUS
10
0.0482283
20
1.05906
11
0.0482283
21
1.33465
0
LINE
8
BLACK
6
CONTINUOUS
10
0.0482283
20
1.33465
11
0.0485166
21
1.33534
0
LINE
8
BLACK
6
CONTINUOUS
10
0.0485166
20
1.33534
11
0.0492126
21
1.33563
0
LINE
8
BLACK
6
CONTINUOUS
10
0.0492126
20
1.33563
11
0.187008
21
1.33563
0
LINE
8
BLACK
6
CONTINUOUS
10
0.187008
20
1.33563
11
0.187704
21
1.33534
0
LINE
8
BLACK
6
CONTINUOUS
10
0.187704
20
1.33534
11
0.187992
21
1.33465
0
LINE
8
BLACK
6
CONTINUOUS
10
0.187992
20
1.33465
11
0.187992
21
1.05906
0
LINE
8
BLACK
6
CONTINUOUS
10
0.187992
20
1.05906
11
0.187704
21
1.05836
0
LINE
8
BLACK
6
CONTINUOUS
10
0.187704
20
1.05836
11
0.187008
21
1.05807
0
LINE
8
BLACK
6
CONTINUOUS
10
0.187008
20
1.05807
11
0.0492126
21
1.05807
0
LINE
8
BLACK
6
CONTINUOUS
10
0.0492126
20
1.05807
11
0.0485166
21
1.05836
0
LINE
8
BLACK
6
CONTINUOUS
10
0.0501969
20
1.33366
11
0.0501969
21
1.06004
0
LINE
8
BLACK
6
CONTINUOUS
10
0.0501969
20
1.06004
11
0.186024
21
1.06004
0
LINE
8
BLACK
6
CONTINUOUS
10
0.186024
20
1.06004
11
0.186024
21
1.33366
0
LINE
8
BLACK
6
CONTINUOUS
10
0.186024
20
1.33366
11
0.0501969
21
1.33366
0
LINE
8
BLACK
6
CONTINUOUS
10
0.572139
20
1.12362
11
0.57185
21
1.12431
0
LINE
8
BLACK
6
CONTINUOUS
10
0.57185
20
1.12431
11
0.57185
21
1.25659
0
LINE
8
BLACK
6
CONTINUOUS
10
0.57185
20
1.25659
11
0.572139
21
1.25729
0
LINE
8
BLACK
6
CONTINUOUS
10
0.572139
20
1.25729
11
0.572835
21
1.25758
0
LINE
8
BLACK
6
CONTINUOUS
10
0.572835
20
1.25758
11
0.647638
21
1.25758
0
LINE
8
BLACK
6
CONTINUOUS
10
0.647638
20
1.25758
11
0.648334
21
1.25729
0
LINE
8
BLACK
6
CONTINUOUS
10
0.648334
20
1.25729
11
0.648622
21
1.25659
0
LINE
8
BLACK
6
CONTINUOUS
10
0.648622
20
1.25659
11
0.648622
21
1.12431
0
LINE
8
BLACK
6
CONTINUOUS
10
0.648622
20
1.12431
11
0.648334
21
1.12362
0
LINE
8
BLACK
6
CONTINUOUS
10
0.648334
20
1.12362
11
0.647638
21
1.12333
0
LINE
8
BLACK
6
CONTINUOUS
10
0.647638
20
1.12333
11
0.572835
21
1.12333
0
LINE
8
BLACK
6
CONTINUOUS
10
0.572835
20
1.12333
11
0.572139
21
1.12362
0
LINE
8
BLACK
6
CONTINUOUS
10
0.573819
20
1.25561
11
0.573819
21
1.1253
0
LINE
8
BLACK
6
CONTINUOUS
10
0.573819
20
1.1253
11
0.646654
21
1.1253
0
LINE
8
BLACK
6
CONTINUOUS
10
0.646654
20
1.1253
11
0.646654
21
1.25561
0
LINE
8
BLACK
6
CONTINUOUS
10
0.646654
20
1.25561
11
0.573819
21
1.25561
0
LINE
8
BLACK
6
CONTINUOUS
10
-0.0380976
20
1.20236
11
-0.0383858
21
1.20305
0
LINE
8
BLACK
6
CONTINUOUS
10
-0.0383858
20
1.20305
11
-0.0383858
21
1.33533
0
LINE
8
BLACK
6
CONTINUOUS
10
-0.0383858
20
1.33533
11
-0.0380976
21
1.33603
0
LINE
8
BLACK
6
CONTINUOUS
10
-0.0380976
20
1.33603
11
-0.0374016
21
1.33632
0
LINE
8
BLACK
6
CONTINUOUS
10
-0.0374016
20
1.33632
11
0.0374016
21
1.33632
0
LINE
8
BLACK
6
CONTINUOUS
10
0.0374016
20
1.33632
11
0.0380976
21
1.33603
0
LINE
8
BLACK
6
CONTINUOUS
10
0.0380976
20
1.33603
11
0.0383858
21
1.33533
0
LINE
8
BLACK
6
CONTINUOUS
10
0.0383858
20
1.33533
11
0.0383858
21
1.20305
0
LINE
8
BLACK
6
CONTINUOUS
10
0.0383858
20
1.20305
11
0.0380976
21
1.20236
0
LINE
8
BLACK
6
CONTINUOUS
10
0.0380976
20
1.20236
11
0.0374016
21
1.20207
0
LINE
8
BLACK
6
CONTINUOUS
10
0.0374016
20
1.20207
11
-0.0374016
21
1.20207
0
LINE
8
BLACK
6
CONTINUOUS
10
-0.0374016
20
1.20207
11
-0.0380976
21
1.20236
0
LINE
8
BLACK
6
CONTINUOUS
10
-0.0364173
20
1.33435
11
-0.0364173
21
1.20404
0
LINE
8
BLACK
6
CONTINUOUS
10
-0.0364173
20
1.20404
11
0.0364173
21
1.20404
0
LINE
8
BLACK
6
CONTINUOUS
10
0.0364173
20
1.20404
11
0.0364173
21
1.33435
0
LINE
8
BLACK
6
CONTINUOUS
10
0.0364173
20
1.33435
11
-0.0364173
21
1.33435
0
LINE
8
BLACK
6
CONTINUOUS
10
0.190249
20
1.24812
11
0.189961
21
1.24882
0
LINE
8
BLACK
6
CONTINUOUS
10
0.189961
20
1.24882
11
0.189961
21
1.3811
0
LINE
8
BLACK
6
CONTINUOUS
10
0.189961
20
1.3811
11
0.189981
21
1.38115
0
LINE
8
BLACK
6
CONTINUOUS
10
0.189981
20
1.38115
11
0.189961
21
1.3812
0
LINE
8
BLACK
6
CONTINUOUS
10
0.189961
20
1.3812
11
0.189961
21
1.51348
0
LINE
8
BLACK
6
CONTINUOUS
10
0.189961
20
1.51348
11
0.190249
21
1.51418
0
LINE
8
BLACK
6
CONTINUOUS
10
0.190249
20
1.51418
11
0.190945
21
1.51447
0
LINE
8
BLACK
6
CONTINUOUS
10
0.190945
20
1.51447
11
0.265748
21
1.51447
0
LINE
8
BLACK
6
CONTINUOUS
10
0.265748
20
1.51447
11
0.266444
21
1.51418
0
LINE
8
BLACK
6
CONTINUOUS
10
0.266444
20
1.51418
11
0.266732
21
1.51348
0
LINE
8
BLACK
6
CONTINUOUS
10
0.266732
20
1.51348
11
0.266732
21
1.3812
0
LINE
8
BLACK
6
CONTINUOUS
10
0.266732
20
1.3812
11
0.266712
21
1.38115
0
LINE
8
BLACK
6
CONTINUOUS
10
0.266712
20
1.38115
11
0.266732
21
1.3811
0
LINE
8
BLACK
6
CONTINUOUS
10
0.266732
20
1.3811
11
0.266732
21
1.24882
0
LINE
8
BLACK
6
CONTINUOUS
10
0.266732
20
1.24882
11
0.266444
21
1.24812
0
LINE
8
BLACK
6
CONTINUOUS
10
0.266444
20
1.24812
11
0.265748
21
1.24783
0
LINE
8
BLACK
6
CONTINUOUS
10
0.265748
20
1.24783
11
0.190945
21
1.24783
0
LINE
8
BLACK
6
CONTINUOUS
10
0.190945
20
1.24783
11
0.190249
21
1.24812
0
LINE
8
BLACK
6
CONTINUOUS
10
0.191929
20
1.38012
11
0.191929
21
1.2498
0
LINE
8
BLACK
6
CONTINUOUS
10
0.191929
20
1.2498
11
0.264764
21
1.2498
0
LINE
8
BLACK
6
CONTINUOUS
10
0.264764
20
1.2498
11
0.264764
21
1.38012
0
LINE
8
BLACK
6
CONTINUOUS
10
0.264764
20
1.38012
11
0.191929
21
1.38012
0
LINE
8
BLACK
6
CONTINUOUS
10
0.191929
20
1.5125
11
0.191929
21
1.38219
0
LINE
8
BLACK
6
CONTINUOUS
10
0.191929
20
1.38219
11
0.264764
21
1.38219
0
LINE
8
BLACK
6
CONTINUOUS
10
0.264764
20
1.38219
11
0.264764
21
1.5125
0
LINE
8
BLACK
6
CONTINUOUS
10
0.264764
20
1.5125
11
0.191929
21
1.5125
0
LINE
8
BLACK
6
CONTINUOUS
10
0.402861
20
1.27701
11
0.402572
21
1.2777
0
LINE
8
BLACK
6
CONTINUOUS
10
0.402572
20
1.2777
11
0.402572
21
1.44857
0
LINE
8
BLACK
6
CONTINUOUS
10
0.402572
20
1.44857
11
0.402861
21
1.44926
0
LINE
8
BLACK
6
CONTINUOUS
10
0.402861
20
1.44926
11
0.403557
21
1.44955
0
LINE
8
BLACK
6
CONTINUOUS
10
0.403557
20
1.44955
11
0.537415
21
1.44955
0
LINE
8
BLACK
6
CONTINUOUS
10
0.537415
20
1.44955
11
0.538111
21
1.44926
0
LINE
8
BLACK
6
CONTINUOUS
10
0.538111
20
1.44926
11
0.538399
21
1.44857
0
LINE
8
BLACK
6
CONTINUOUS
10
0.538399
20
1.44857
11
0.538399
21
1.2777
0
LINE
8
BLACK
6
CONTINUOUS
10
0.538399
20
1.2777
11
0.538111
21
1.27701
0
LINE
8
BLACK
6
CONTINUOUS
10
0.538111
20
1.27701
11
0.537415
21
1.27672
0
LINE
8
BLACK
6
CONTINUOUS
10
0.537415
20
1.27672
11
0.403557
21
1.27672
0
LINE
8
BLACK
6
CONTINUOUS
10
0.403557
20
1.27672
11
0.402861
21
1.27701
0
LINE
8
BLACK
6
CONTINUOUS
10
0.404541
20
1.44758
11
0.404541
21
1.27869
0
LINE
8
BLACK
6
CONTINUOUS
10
0.404541
20
1.27869
11
0.536431
21
1.27869
0
LINE
8
BLACK
6
CONTINUOUS
10
0.536431
20
1.27869
11
0.536431
21
1.44758
0
LINE
8
BLACK
6
CONTINUOUS
10
0.536431
20
1.44758
11
0.404541
21
1.44758
0
LINE
8
BLACK
6
CONTINUOUS
10
0.0563906
20
1.34015
11
0.0561024
21
1.34085
0
LINE
8
BLACK
6
CONTINUOUS
10
0.0561024
20
1.34085
11
0.0561024
21
1.47313
0
LINE
8
BLACK
6
CONTINUOUS
10
0.0561024
20
1.47313
11
0.0563906
21
1.47383
0
LINE
8
BLACK
6
CONTINUOUS
10
0.0563906
20
1.47383
11
0.0570866
21
1.47411
0
LINE
8
BLACK
6
CONTINUOUS
10
0.0570866
20
1.47411
11
0.13189
21
1.47411
0
LINE
8
BLACK
6
CONTINUOUS
10
0.13189
20
1.47411
11
0.132586
21
1.47383
0
LINE
8
BLACK
6
CONTINUOUS
10
0.132586
20
1.47383
11
0.132874
21
1.47313
0
LINE
8
BLACK
6
CONTINUOUS
10
0.132874
20
1.47313
11
0.132874
21
1.34085
0
LINE
8
BLACK
6
CONTINUOUS
10
0.132874
20
1.34085
11
0.132586
21
1.34015
0
LINE
8
BLACK
6
CONTINUOUS
10
0.132586
20
1.34015
11
0.13189
21
1.33986
0
LINE
8
BLACK
6
CONTINUOUS
10
0.13189
20
1.33986
11
0.0570866
21
1.33986
0
LINE
8
BLACK
6
CONTINUOUS
10
0.0570866
20
1.33986
11
0.0563906
21
1.34015
0
LINE
8
BLACK
6
CONTINUOUS
10
0.0580709
20
1.47215
11
0.0580709
21
1.34183
0
LINE
8
BLACK
6
CONTINUOUS
10
0.0580709
20
1.34183
11
0.130906
21
1.34183
0
LINE
8
BLACK
6
CONTINUOUS
10
0.130906
20
1.34183
11
0.130906
21
1.47215
0
LINE
8
BLACK
6
CONTINUOUS
10
0.130906
20
1.47215
11
0.0580709
21
1.47215
0
LINE
8
BLACK
6
CONTINUOUS
10
-0.0380976
20
1.34261
11
-0.0383858
21
1.34331
0
LINE
8
BLACK
6
CONTINUOUS
10
-0.0383858
20
1.34331
11
-0.0383858
21
1.47559
0
LINE
8
BLACK
6
CONTINUOUS
10
-0.0383858
20
1.47559
11
-0.0380976
21
1.47629
0
LINE
8
BLACK
6
CONTINUOUS
10
-0.0380976
20
1.47629
11
-0.0374016
21
1.47657
0
LINE
8
BLACK
6
CONTINUOUS
10
-0.0374016
20
1.47657
11
0.0374016
21
1.47657
0
LINE
8
BLACK
6
CONTINUOUS
10
0.0374016
20
1.47657
11
0.0380976
21
1.47629
0
LINE
8
BLACK
6
CONTINUOUS
10
0.0380976
20
1.47629
11
0.0383858
21
1.47559
0
LINE
8
BLACK
6
CONTINUOUS
10
0.0383858
20
1.47559
11
0.0383858
21
1.34331
0
LINE
8
BLACK
6
CONTINUOUS
10
0.0383858
20
1.34331
11
0.0380976
21
1.34261
0
LINE
8
BLACK
6
CONTINUOUS
10
0.0380976
20
1.34261
11
0.0374016
21
1.34232
0
LINE
8
BLACK
6
CONTINUOUS
10
0.0374016
20
1.34232
11
-0.0374016
21
1.34232
0
LINE
8
BLACK
6
CONTINUOUS
10
-0.0374016
20
1.34232
11
-0.0380976
21
1.34261
0
LINE
8
BLACK
6
CONTINUOUS
10
-0.0364173
20
1.47461
11
-0.0364173
21
1.34429
0
LINE
8
BLACK
6
CONTINUOUS
10
-0.0364173
20
1.34429
11
0.0364173
21
1.34429
0
LINE
8
BLACK
6
CONTINUOUS
10
0.0364173
20
1.34429
11
0.0364173
21
1.47461
0
LINE
8
BLACK
6
CONTINUOUS
10
0.0364173
20
1.47461
11
-0.0364173
21
1.47461
0
LINE
8
BLACK
6
CONTINUOUS
10
1.32883
20
1.36938
11
1.32854
21
1.37008
0
LINE
8
BLACK
6
CONTINUOUS
10
1.32854
20
1.37008
11
1.32854
21
1.50394
0
LINE
8
BLACK
6
CONTINUOUS
10
1.32854
20
1.50394
11
1.32883
21
1.50463
0
LINE
8
BLACK
6
CONTINUOUS
10
1.32883
20
1.50463
11
1.32953
21
1.50492
0
LINE
8
BLACK
6
CONTINUOUS
10
1.32953
20
1.50492
11
1.40669
21
1.50492
0
LINE
8
BLACK
6
CONTINUOUS
10
1.40669
20
1.50492
11
1.40739
21
1.50463
0
LINE
8
BLACK
6
CONTINUOUS
10
1.40739
20
1.50463
11
1.40768
21
1.50394
0
LINE
8
BLACK
6
CONTINUOUS
10
1.40768
20
1.50394
11
1.40768
21
1.37008
0
LINE
8
BLACK
6
CONTINUOUS
10
1.40768
20
1.37008
11
1.40739
21
1.36938
0
LINE
8
BLACK
6
CONTINUOUS
10
1.40739
20
1.36938
11
1.40669
21
1.36909
0
LINE
8
BLACK
6
CONTINUOUS
10
1.40669
20
1.36909
11
1.32953
21
1.36909
0
LINE
8
BLACK
6
CONTINUOUS
10
1.32953
20
1.36909
11
1.32883
21
1.36938
0
LINE
8
BLACK
6
CONTINUOUS
10
1.33051
20
1.50295
11
1.33051
21
1.37106
0
LINE
8
BLACK
6
CONTINUOUS
10
1.33051
20
1.37106
11
1.40571
21
1.37106
0
LINE
8
BLACK
6
CONTINUOUS
10
1.40571
20
1.37106
11
1.40571
21
1.50295
0
LINE
8
BLACK
6
CONTINUOUS
10
1.40571
20
1.50295
11
1.33051
21
1.50295
0
LINE
8
BLACK
6
CONTINUOUS
10
1.21072
20
1.36938
11
1.21043
21
1.37008
0
LINE
8
BLACK
6
CONTINUOUS
10
1.21043
20
1.37008
11
1.21043
21
1.50394
0
LINE
8
BLACK
6
CONTINUOUS
10
1.21043
20
1.50394
11
1.21072
21
1.50463
0
LINE
8
BLACK
6
CONTINUOUS
10
1.21072
20
1.50463
11
1.21142
21
1.50492
0
LINE
8
BLACK
6
CONTINUOUS
10
1.21142
20
1.50492
11
1.28858
21
1.50492
0
LINE
8
BLACK
6
CONTINUOUS
10
1.28858
20
1.50492
11
1.28928
21
1.50463
0
LINE
8
BLACK
6
CONTINUOUS
10
1.28928
20
1.50463
11
1.28957
21
1.50394
0
LINE
8
BLACK
6
CONTINUOUS
10
1.28957
20
1.50394
11
1.28957
21
1.37008
0
LINE
8
BLACK
6
CONTINUOUS
10
1.28957
20
1.37008
11
1.28928
21
1.36938
0
LINE
8
BLACK
6
CONTINUOUS
10
1.28928
20
1.36938
11
1.28858
21
1.36909
0
LINE
8
BLACK
6
CONTINUOUS
10
1.28858
20
1.36909
11
1.21142
21
1.36909
0
LINE
8
BLACK
6
CONTINUOUS
10
1.21142
20
1.36909
11
1.21072
21
1.36938
0
LINE
8
BLACK
6
CONTINUOUS
10
1.2124
20
1.50295
11
1.2124
21
1.37106
0
LINE
8
BLACK
6
CONTINUOUS
10
1.2124
20
1.37106
11
1.2876
21
1.37106
0
LINE
8
BLACK
6
CONTINUOUS
10
1.2876
20
1.37106
11
1.2876
21
1.50295
0
LINE
8
BLACK
6
CONTINUOUS
10
1.2876
20
1.50295
11
1.2124
21
1.50295
0
LINE
8
BLACK
6
CONTINUOUS
10
1.14891
20
1.52686
11
1.14862
21
1.52756
0
LINE
8
BLACK
6
CONTINUOUS
10
1.14862
20
1.52756
11
1.14862
21
1.68898
0
LINE
8
BLACK
6
CONTINUOUS
10
1.14862
20
1.68898
11
1.14891
21
1.68967
0
LINE
8
BLACK
6
CONTINUOUS
10
1.14891
20
1.68967
11
1.14961
21
1.68996
0
LINE
8
BLACK
6
CONTINUOUS
10
1.14961
20
1.68996
11
1.28346
21
1.68996
0
LINE
8
BLACK
6
CONTINUOUS
10
1.28346
20
1.68996
11
1.28416
21
1.68967
0
LINE
8
BLACK
6
CONTINUOUS
10
1.28416
20
1.68967
11
1.28445
21
1.68898
0
LINE
8
BLACK
6
CONTINUOUS
10
1.28445
20
1.68898
11
1.28445
21
1.52756
0
LINE
8
BLACK
6
CONTINUOUS
10
1.28445
20
1.52756
11
1.28416
21
1.52686
0
LINE
8
BLACK
6
CONTINUOUS
10
1.28416
20
1.52686
11
1.28346
21
1.52657
0
LINE
8
BLACK
6
CONTINUOUS
10
1.28346
20
1.52657
11
1.14961
21
1.52657
0
LINE
8
BLACK
6
CONTINUOUS
10
1.14961
20
1.52657
11
1.14891
21
1.52686
0
LINE
8
BLACK
6
CONTINUOUS
10
1.15059
20
1.68799
11
1.15059
21
1.52854
0
LINE
8
BLACK
6
CONTINUOUS
10
1.15059
20
1.52854
11
1.28248
21
1.52854
0
LINE
8
BLACK
6
CONTINUOUS
10
1.28248
20
1.52854
11
1.28248
21
1.68799
0
LINE
8
BLACK
6
CONTINUOUS
10
1.28248
20
1.68799
11
1.15059
21
1.68799
0
LINE
8
BLACK
6
CONTINUOUS
10
0.691036
20
1.53671
11
0.690748
21
1.5374
0
LINE
8
BLACK
6
CONTINUOUS
10
0.690748
20
1.5374
11
0.690748
21
1.67126
0
LINE
8
BLACK
6
CONTINUOUS
10
0.690748
20
1.67126
11
0.691036
21
1.67196
0
LINE
8
BLACK
6
CONTINUOUS
10
0.691036
20
1.67196
11
0.691732
21
1.67224
0
LINE
8
BLACK
6
CONTINUOUS
10
0.691732
20
1.67224
11
0.768898
21
1.67224
0
LINE
8
BLACK
6
CONTINUOUS
10
0.768898
20
1.67224
11
0.769594
21
1.67196
0
LINE
8
BLACK
6
CONTINUOUS
10
0.769594
20
1.67196
11
0.769882
21
1.67126
0
LINE
8
BLACK
6
CONTINUOUS
10
0.769882
20
1.67126
11
0.769882
21
1.5374
0
LINE
8
BLACK
6
CONTINUOUS
10
0.769882
20
1.5374
11
0.769594
21
1.53671
0
LINE
8
BLACK
6
CONTINUOUS
10
0.769594
20
1.53671
11
0.768898
21
1.53642
0
LINE
8
BLACK
6
CONTINUOUS
10
0.768898
20
1.53642
11
0.691732
21
1.53642
0
LINE
8
BLACK
6
CONTINUOUS
10
0.691732
20
1.53642
11
0.691036
21
1.53671
0
LINE
8
BLACK
6
CONTINUOUS
10
0.692717
20
1.67028
11
0.692717
21
1.53839
0
LINE
8
BLACK
6
CONTINUOUS
10
0.692717
20
1.53839
11
0.767913
21
1.53839
0
LINE
8
BLACK
6
CONTINUOUS
10
0.767913
20
1.53839
11
0.767913
21
1.67028
0
LINE
8
BLACK
6
CONTINUOUS
10
0.767913
20
1.67028
11
0.692717
21
1.67028
0
LINE
8
BLACK
6
CONTINUOUS
10
0.808359
20
1.53867
11
0.808071
21
1.53937
0
LINE
8
BLACK
6
CONTINUOUS
10
0.808071
20
1.53937
11
0.808071
21
1.67323
0
LINE
8
BLACK
6
CONTINUOUS
10
0.808071
20
1.67323
11
0.808359
21
1.67392
0
LINE
8
BLACK
6
CONTINUOUS
10
0.808359
20
1.67392
11
0.809055
21
1.67421
0
LINE
8
BLACK
6
CONTINUOUS
10
0.809055
20
1.67421
11
0.970472
21
1.67421
0
LINE
8
BLACK
6
CONTINUOUS
10
0.970472
20
1.67421
11
0.971168
21
1.67392
0
LINE
8
BLACK
6
CONTINUOUS
10
0.971168
20
1.67392
11
0.971457
21
1.67323
0
LINE
8
BLACK
6
CONTINUOUS
10
0.971457
20
1.67323
11
0.971457
21
1.53937
0
LINE
8
BLACK
6
CONTINUOUS
10
0.971457
20
1.53937
11
0.971168
21
1.53867
0
LINE
8
BLACK
6
CONTINUOUS
10
0.971168
20
1.53867
11
0.970472
21
1.53839
0
LINE
8
BLACK
6
CONTINUOUS
10
0.970472
20
1.53839
11
0.809055
21
1.53839
0
LINE
8
BLACK
6
CONTINUOUS
10
0.809055
20
1.53839
11
0.808359
21
1.53867
0
LINE
8
BLACK
6
CONTINUOUS
10
0.810039
20
1.67224
11
0.810039
21
1.54035
0
LINE
8
BLACK
6
CONTINUOUS
10
0.810039
20
1.54035
11
0.969488
21
1.54035
0
LINE
8
BLACK
6
CONTINUOUS
10
0.969488
20
1.54035
11
0.969488
21
1.67224
0
LINE
8
BLACK
6
CONTINUOUS
10
0.969488
20
1.67224
11
0.810039
21
1.67224
0
LINE
8
BLACK
6
CONTINUOUS
10
0.99143
20
1.5434
11
0.991142
21
1.54409
0
LINE
8
BLACK
6
CONTINUOUS
10
0.991142
20
1.54409
11
0.991142
21
1.67638
0
LINE
8
BLACK
6
CONTINUOUS
10
0.991142
20
1.67638
11
0.99143
21
1.67707
0
LINE
8
BLACK
6
CONTINUOUS
10
0.99143
20
1.67707
11
0.992126
21
1.67736
0
LINE
8
BLACK
6
CONTINUOUS
10
0.992126
20
1.67736
11
1.06693
21
1.67736
0
LINE
8
BLACK
6
CONTINUOUS
10
1.06693
20
1.67736
11
1.06763
21
1.67707
0
LINE
8
BLACK
6
CONTINUOUS
10
1.06763
20
1.67707
11
1.06791
21
1.67638
0
LINE
8
BLACK
6
CONTINUOUS
10
1.06791
20
1.67638
11
1.06791
21
1.54409
0
LINE
8
BLACK
6
CONTINUOUS
10
1.06791
20
1.54409
11
1.06763
21
1.5434
0
LINE
8
BLACK
6
CONTINUOUS
10
1.06763
20
1.5434
11
1.06693
21
1.54311
0
LINE
8
BLACK
6
CONTINUOUS
10
1.06693
20
1.54311
11
0.992126
21
1.54311
0
LINE
8
BLACK
6
CONTINUOUS
10
0.992126
20
1.54311
11
0.99143
21
1.5434
0
LINE
8
BLACK
6
CONTINUOUS
10
0.99311
20
1.67539
11
0.99311
21
1.54508
0
LINE
8
BLACK
6
CONTINUOUS
10
0.99311
20
1.54508
11
1.06594
21
1.54508
0
LINE
8
BLACK
6
CONTINUOUS
10
1.06594
20
1.54508
11
1.06594
21
1.67539
0
LINE
8
BLACK
6
CONTINUOUS
10
1.06594
20
1.67539
11
0.99311
21
1.67539
0
LINE
8
BLACK
6
CONTINUOUS
10
1.46584
20
1.57342
11
1.46555
21
1.57411
0
LINE
8
BLACK
6
CONTINUOUS
10
1.46555
20
1.57411
11
1.46555
21
1.7064
0
LINE
8
BLACK
6
CONTINUOUS
10
1.46555
20
1.7064
11
1.46584
21
1.70709
0
LINE
8
BLACK
6
CONTINUOUS
10
1.46584
20
1.70709
11
1.46654
21
1.70738
0
LINE
8
BLACK
6
CONTINUOUS
10
1.46654
20
1.70738
11
1.54134
21
1.70738
0
LINE
8
BLACK
6
CONTINUOUS
10
1.54134
20
1.70738
11
1.54203
21
1.70709
0
LINE
8
BLACK
6
CONTINUOUS
10
1.54203
20
1.70709
11
1.54232
21
1.7064
0
LINE
8
BLACK
6
CONTINUOUS
10
1.54232
20
1.7064
11
1.54232
21
1.57411
0
LINE
8
BLACK
6
CONTINUOUS
10
1.54232
20
1.57411
11
1.54203
21
1.57342
0
LINE
8
BLACK
6
CONTINUOUS
10
1.54203
20
1.57342
11
1.54134
21
1.57313
0
LINE
8
BLACK
6
CONTINUOUS
10
1.54134
20
1.57313
11
1.46654
21
1.57313
0
LINE
8
BLACK
6
CONTINUOUS
10
1.46654
20
1.57313
11
1.46584
21
1.57342
0
LINE
8
BLACK
6
CONTINUOUS
10
1.46752
20
1.70541
11
1.46752
21
1.5751
0
LINE
8
BLACK
6
CONTINUOUS
10
1.46752
20
1.5751
11
1.54035
21
1.5751
0
LINE
8
BLACK
6
CONTINUOUS
10
1.54035
20
1.5751
11
1.54035
21
1.70541
0
LINE
8
BLACK
6
CONTINUOUS
10
1.54035
20
1.70541
11
1.46752
21
1.70541
0
LINE
8
BLACK
6
CONTINUOUS
10
1.63513
20
1.57489
11
1.63484
21
1.57559
0
LINE
8
BLACK
6
CONTINUOUS
10
1.63484
20
1.57559
11
1.63484
21
1.70787
0
LINE
8
BLACK
6
CONTINUOUS
10
1.63484
20
1.70787
11
1.63513
21
1.70857
0
LINE
8
BLACK
6
CONTINUOUS
10
1.63513
20
1.70857
11
1.63583
21
1.70886
0
LINE
8
BLACK
6
CONTINUOUS
10
1.63583
20
1.70886
11
1.71063
21
1.70886
0
LINE
8
BLACK
6
CONTINUOUS
10
1.71063
20
1.70886
11
1.71133
21
1.70857
0
LINE
8
BLACK
6
CONTINUOUS
10
1.71133
20
1.70857
11
1.71161
21
1.70787
0
LINE
8
BLACK
6
CONTINUOUS
10
1.71161
20
1.70787
11
1.71161
21
1.57559
0
LINE
8
BLACK
6
CONTINUOUS
10
1.71161
20
1.57559
11
1.71133
21
1.57489
0
LINE
8
BLACK
6
CONTINUOUS
10
1.71133
20
1.57489
11
1.71063
21
1.57461
0
LINE
8
BLACK
6
CONTINUOUS
10
1.71063
20
1.57461
11
1.63583
21
1.57461
0
LINE
8
BLACK
6
CONTINUOUS
10
1.63583
20
1.57461
11
1.63513
21
1.57489
0
LINE
8
BLACK
6
CONTINUOUS
10
1.63681
20
1.70689
11
1.63681
21
1.57657
0
LINE
8
BLACK
6
CONTINUOUS
10
1.63681
20
1.57657
11
1.70965
21
1.57657
0
LINE
8
BLACK
6
CONTINUOUS
10
1.70965
20
1.57657
11
1.70965
21
1.70689
0
LINE
8
BLACK
6
CONTINUOUS
10
1.70965
20
1.70689
11
1.63681
21
1.70689
0
LINE
8
BLACK
6
CONTINUOUS
10
1.46584
20
1.70875
11
1.46555
21
1.70945
0
LINE
8
BLACK
6
CONTINUOUS
10
1.46555
20
1.70945
11
1.46555
21
1.84173
0
LINE
8
BLACK
6
CONTINUOUS
10
1.46555
20
1.84173
11
1.46584
21
1.84243
0
LINE
8
BLACK
6
CONTINUOUS
10
1.46584
20
1.84243
11
1.46654
21
1.84272
0
LINE
8
BLACK
6
CONTINUOUS
10
1.46654
20
1.84272
11
1.54134
21
1.84272
0
LINE
8
BLACK
6
CONTINUOUS
10
1.54134
20
1.84272
11
1.54203
21
1.84243
0
LINE
8
BLACK
6
CONTINUOUS
10
1.54203
20
1.84243
11
1.54232
21
1.84173
0
LINE
8
BLACK
6
CONTINUOUS
10
1.54232
20
1.84173
11
1.54232
21
1.70945
0
LINE
8
BLACK
6
CONTINUOUS
10
1.54232
20
1.70945
11
1.54203
21
1.70875
0
LINE
8
BLACK
6
CONTINUOUS
10
1.54203
20
1.70875
11
1.54134
21
1.70846
0
LINE
8
BLACK
6
CONTINUOUS
10
1.54134
20
1.70846
11
1.46654
21
1.70846
0
LINE
8
BLACK
6
CONTINUOUS
10
1.46654
20
1.70846
11
1.46584
21
1.70875
0
LINE
8
BLACK
6
CONTINUOUS
10
1.46752
20
1.84075
11
1.46752
21
1.71043
0
LINE
8
BLACK
6
CONTINUOUS
10
1.46752
20
1.71043
11
1.54035
21
1.71043
0
LINE
8
BLACK
6
CONTINUOUS
10
1.54035
20
1.71043
11
1.54035
21
1.84075
0
LINE
8
BLACK
6
CONTINUOUS
10
1.54035
20
1.84075
11
1.46752
21
1.84075
0
LINE
8
BLACK
6
CONTINUOUS
10
1.63513
20
1.71023
11
1.63484
21
1.71093
0
LINE
8
BLACK
6
CONTINUOUS
10
1.63484
20
1.71093
11
1.63484
21
1.84321
0
LINE
8
BLACK
6
CONTINUOUS
10
1.63484
20
1.84321
11
1.63513
21
1.8439
0
LINE
8
BLACK
6
CONTINUOUS
10
1.63513
20
1.8439
11
1.63583
21
1.84419
0
LINE
8
BLACK
6
CONTINUOUS
10
1.63583
20
1.84419
11
1.71063
21
1.84419
0
LINE
8
BLACK
6
CONTINUOUS
10
1.71063
20
1.84419
11
1.71133
21
1.8439
0
LINE
8
BLACK
6
CONTINUOUS
10
1.71133
20
1.8439
11
1.71161
21
1.84321
0
LINE
8
BLACK
6
CONTINUOUS
10
1.71161
20
1.84321
11
1.71161
21
1.71093
0
LINE
8
BLACK
6
CONTINUOUS
10
1.71161
20
1.71093
11
1.71133
21
1.71023
0
LINE
8
BLACK
6
CONTINUOUS
10
1.71133
20
1.71023
11
1.71063
21
1.70994
0
LINE
8
BLACK
6
CONTINUOUS
10
1.71063
20
1.70994
11
1.63583
21
1.70994
0
LINE
8
BLACK
6
CONTINUOUS
10
1.63583
20
1.70994
11
1.63513
21
1.71023
0
LINE
8
BLACK
6
CONTINUOUS
10
1.63681
20
1.84222
11
1.63681
21
1.71191
0
LINE
8
BLACK
6
CONTINUOUS
10
1.63681
20
1.71191
11
1.70965
21
1.71191
0
LINE
8
BLACK
6
CONTINUOUS
10
1.70965
20
1.71191
11
1.70965
21
1.84222
0
LINE
8
BLACK
6
CONTINUOUS
10
1.70965
20
1.84222
11
1.63681
21
1.84222
0
LINE
8
BLACK
6
CONTINUOUS
10
1.13316
20
1.71269
11
1.13287
21
1.71339
0
LINE
8
BLACK
6
CONTINUOUS
10
1.13287
20
1.71339
11
1.13287
21
1.79055
0
LINE
8
BLACK
6
CONTINUOUS
10
1.13287
20
1.79055
11
1.13316
21
1.79125
0
LINE
8
BLACK
6
CONTINUOUS
10
1.13316
20
1.79125
11
1.13386
21
1.79154
0
LINE
8
BLACK
6
CONTINUOUS
10
1.13386
20
1.79154
11
1.26772
21
1.79154
0
LINE
8
BLACK
6
CONTINUOUS
10
1.26772
20
1.79154
11
1.26841
21
1.79125
0
LINE
8
BLACK
6
CONTINUOUS
10
1.26841
20
1.79125
11
1.2687
21
1.79055
0
LINE
8
BLACK
6
CONTINUOUS
10
1.2687
20
1.79055
11
1.2687
21
1.71339
0
LINE
8
BLACK
6
CONTINUOUS
10
1.2687
20
1.71339
11
1.26841
21
1.71269
0
LINE
8
BLACK
6
CONTINUOUS
10
1.26841
20
1.71269
11
1.26772
21
1.7124
0
LINE
8
BLACK
6
CONTINUOUS
10
1.26772
20
1.7124
11
1.13386
21
1.7124
0
LINE
8
BLACK
6
CONTINUOUS
10
1.13386
20
1.7124
11
1.13316
21
1.71269
0
LINE
8
BLACK
6
CONTINUOUS
10
1.13484
20
1.78957
11
1.13484
21
1.71437
0
LINE
8
BLACK
6
CONTINUOUS
10
1.13484
20
1.71437
11
1.26673
21
1.71437
0
LINE
8
BLACK
6
CONTINUOUS
10
1.26673
20
1.71437
11
1.26673
21
1.78957
0
LINE
8
BLACK
6
CONTINUOUS
10
1.26673
20
1.78957
11
1.13484
21
1.78957
0
LINE
8
BLACK
6
CONTINUOUS
10
0.985524
20
1.71269
11
0.985236
21
1.71339
0
LINE
8
BLACK
6
CONTINUOUS
10
0.985236
20
1.71339
11
0.985236
21
1.79055
0
LINE
8
BLACK
6
CONTINUOUS
10
0.985236
20
1.79055
11
0.985524
21
1.79125
0
LINE
8
BLACK
6
CONTINUOUS
10
0.985524
20
1.79125
11
0.98622
21
1.79154
0
LINE
8
BLACK
6
CONTINUOUS
10
0.98622
20
1.79154
11
1.12008
21
1.79154
0
LINE
8
BLACK
6
CONTINUOUS
10
1.12008
20
1.79154
11
1.12077
21
1.79125
0
LINE
8
BLACK
6
CONTINUOUS
10
1.12077
20
1.79125
11
1.12106
21
1.79055
0
LINE
8
BLACK
6
CONTINUOUS
10
1.12106
20
1.79055
11
1.12106
21
1.71339
0
LINE
8
BLACK
6
CONTINUOUS
10
1.12106
20
1.71339
11
1.12077
21
1.71269
0
LINE
8
BLACK
6
CONTINUOUS
10
1.12077
20
1.71269
11
1.12008
21
1.7124
0
LINE
8
BLACK
6
CONTINUOUS
10
1.12008
20
1.7124
11
0.98622
21
1.7124
0
LINE
8
BLACK
6
CONTINUOUS
10
0.98622
20
1.7124
11
0.985524
21
1.71269
0
LINE
8
BLACK
6
CONTINUOUS
10
0.987205
20
1.78957
11
0.987205
21
1.71437
0
LINE
8
BLACK
6
CONTINUOUS
10
0.987205
20
1.71437
11
1.11909
21
1.71437
0
LINE
8
BLACK
6
CONTINUOUS
10
1.11909
20
1.71437
11
1.11909
21
1.78957
0
LINE
8
BLACK
6
CONTINUOUS
10
1.11909
20
1.78957
11
0.987205
21
1.78957
0
LINE
8
BLACK
6
CONTINUOUS
10
0.654816
20
1.80915
11
0.654528
21
1.80984
0
LINE
8
BLACK
6
CONTINUOUS
10
0.654528
20
1.80984
11
0.654528
21
1.94213
0
LINE
8
BLACK
6
CONTINUOUS
10
0.654528
20
1.94213
11
0.654816
21
1.94282
0
LINE
8
BLACK
6
CONTINUOUS
10
0.654816
20
1.94282
11
0.655512
21
1.94311
0
LINE
8
BLACK
6
CONTINUOUS
10
0.655512
20
1.94311
11
0.730315
21
1.94311
0
LINE
8
BLACK
6
CONTINUOUS
10
0.730315
20
1.94311
11
0.731011
21
1.94282
0
LINE
8
BLACK
6
CONTINUOUS
10
0.731011
20
1.94282
11
0.731299
21
1.94213
0
LINE
8
BLACK
6
CONTINUOUS
10
0.731299
20
1.94213
11
0.731299
21
1.80984
0
LINE
8
BLACK
6
CONTINUOUS
10
0.731299
20
1.80984
11
0.731011
21
1.80915
0
LINE
8
BLACK
6
CONTINUOUS
10
0.731011
20
1.80915
11
0.730315
21
1.80886
0
LINE
8
BLACK
6
CONTINUOUS
10
0.730315
20
1.80886
11
0.655512
21
1.80886
0
LINE
8
BLACK
6
CONTINUOUS
10
0.655512
20
1.80886
11
0.654816
21
1.80915
0
LINE
8
BLACK
6
CONTINUOUS
10
0.656496
20
1.94114
11
0.656496
21
1.81083
0
LINE
8
BLACK
6
CONTINUOUS
10
0.656496
20
1.81083
11
0.729331
21
1.81083
0
LINE
8
BLACK
6
CONTINUOUS
10
0.729331
20
1.81083
11
0.729331
21
1.94114
0
LINE
8
BLACK
6
CONTINUOUS
10
0.729331
20
1.94114
11
0.656496
21
1.94114
0
LINE
8
BLACK
6
CONTINUOUS
10
0.906784
20
1.80915
11
0.906496
21
1.80984
0
LINE
8
BLACK
6
CONTINUOUS
10
0.906496
20
1.80984
11
0.906496
21
1.94213
0
LINE
8
BLACK
6
CONTINUOUS
10
0.906496
20
1.94213
11
0.906784
21
1.94282
0
LINE
8
BLACK
6
CONTINUOUS
10
0.906784
20
1.94282
11
0.90748
21
1.94311
0
LINE
8
BLACK
6
CONTINUOUS
10
0.90748
20
1.94311
11
0.982283
21
1.94311
0
LINE
8
BLACK
6
CONTINUOUS
10
0.982283
20
1.94311
11
0.982979
21
1.94282
0
LINE
8
BLACK
6
CONTINUOUS
10
0.982979
20
1.94282
11
0.983268
21
1.94213
0
LINE
8
BLACK
6
CONTINUOUS
10
0.983268
20
1.94213
11
0.983268
21
1.80984
0
LINE
8
BLACK
6
CONTINUOUS
10
0.983268
20
1.80984
11
0.982979
21
1.80915
0
LINE
8
BLACK
6
CONTINUOUS
10
0.982979
20
1.80915
11
0.982283
21
1.80886
0
LINE
8
BLACK
6
CONTINUOUS
10
0.982283
20
1.80886
11
0.90748
21
1.80886
0
LINE
8
BLACK
6
CONTINUOUS
10
0.90748
20
1.80886
11
0.906784
21
1.80915
0
LINE
8
BLACK
6
CONTINUOUS
10
0.908465
20
1.94114
11
0.908465
21
1.81083
0
LINE
8
BLACK
6
CONTINUOUS
10
0.908465
20
1.81083
11
0.981299
21
1.81083
0
LINE
8
BLACK
6
CONTINUOUS
10
0.981299
20
1.81083
11
0.981299
21
1.94114
0
LINE
8
BLACK
6
CONTINUOUS
10
0.981299
20
1.94114
11
0.908465
21
1.94114
0
LINE
8
BLACK
6
CONTINUOUS
10
1.11151
20
1.80964
11
1.11122
21
1.81033
0
LINE
8
BLACK
6
CONTINUOUS
10
1.11122
20
1.81033
11
1.11122
21
1.94262
0
LINE
8
BLACK
6
CONTINUOUS
10
1.11122
20
1.94262
11
1.11151
21
1.94331
0
LINE
8
BLACK
6
CONTINUOUS
10
1.11151
20
1.94331
11
1.1122
21
1.9436
0
LINE
8
BLACK
6
CONTINUOUS
10
1.1122
20
1.9436
11
1.18701
21
1.9436
0
LINE
8
BLACK
6
CONTINUOUS
10
1.18701
20
1.9436
11
1.1877
21
1.94331
0
LINE
8
BLACK
6
CONTINUOUS
10
1.1877
20
1.94331
11
1.18799
21
1.94262
0
LINE
8
BLACK
6
CONTINUOUS
10
1.18799
20
1.94262
11
1.18799
21
1.81033
0
LINE
8
BLACK
6
CONTINUOUS
10
1.18799
20
1.81033
11
1.1877
21
1.80964
0
LINE
8
BLACK
6
CONTINUOUS
10
1.1877
20
1.80964
11
1.18701
21
1.80935
0
LINE
8
BLACK
6
CONTINUOUS
10
1.18701
20
1.80935
11
1.1122
21
1.80935
0
LINE
8
BLACK
6
CONTINUOUS
10
1.1122
20
1.80935
11
1.11151
21
1.80964
0
LINE
8
BLACK
6
CONTINUOUS
10
1.11319
20
1.94163
11
1.11319
21
1.81132
0
LINE
8
BLACK
6
CONTINUOUS
10
1.11319
20
1.81132
11
1.18602
21
1.81132
0
LINE
8
BLACK
6
CONTINUOUS
10
1.18602
20
1.81132
11
1.18602
21
1.94163
0
LINE
8
BLACK
6
CONTINUOUS
10
1.18602
20
1.94163
11
1.11319
21
1.94163
0
LINE
8
BLACK
6
CONTINUOUS
10
0.306391
20
1.82293
11
0.306102
21
1.82362
0
LINE
8
BLACK
6
CONTINUOUS
10
0.306102
20
1.82362
11
0.306102
21
1.95591
0
LINE
8
BLACK
6
CONTINUOUS
10
0.306102
20
1.95591
11
0.306391
21
1.9566
0
LINE
8
BLACK
6
CONTINUOUS
10
0.306391
20
1.9566
11
0.307087
21
1.95689
0
LINE
8
BLACK
6
CONTINUOUS
10
0.307087
20
1.95689
11
0.38189
21
1.95689
0
LINE
8
BLACK
6
CONTINUOUS
10
0.38189
20
1.95689
11
0.382586
21
1.9566
0
LINE
8
BLACK
6
CONTINUOUS
10
0.382586
20
1.9566
11
0.382874
21
1.95591
0
LINE
8
BLACK
6
CONTINUOUS
10
0.382874
20
1.95591
11
0.382874
21
1.82362
0
LINE
8
BLACK
6
CONTINUOUS
10
0.382874
20
1.82362
11
0.382586
21
1.82293
0
LINE
8
BLACK
6
CONTINUOUS
10
0.382586
20
1.82293
11
0.38189
21
1.82264
0
LINE
8
BLACK
6
CONTINUOUS
10
0.38189
20
1.82264
11
0.307087
21
1.82264
0
LINE
8
BLACK
6
CONTINUOUS
10
0.307087
20
1.82264
11
0.306391
21
1.82293
0
LINE
8
BLACK
6
CONTINUOUS
10
0.308071
20
1.95492
11
0.308071
21
1.82461
0
LINE
8
BLACK
6
CONTINUOUS
10
0.308071
20
1.82461
11
0.380906
21
1.82461
0
LINE
8
BLACK
6
CONTINUOUS
10
0.380906
20
1.82461
11
0.380906
21
1.95492
0
LINE
8
BLACK
6
CONTINUOUS
10
0.380906
20
1.95492
11
0.308071
21
1.95492
0
LINE
8
BLACK
6
CONTINUOUS
10
0.410721
20
1.82293
11
0.410433
21
1.82362
0
LINE
8
BLACK
6
CONTINUOUS
10
0.410433
20
1.82362
11
0.410433
21
1.95591
0
LINE
8
BLACK
6
CONTINUOUS
10
0.410433
20
1.95591
11
0.410721
21
1.9566
0
LINE
8
BLACK
6
CONTINUOUS
10
0.410721
20
1.9566
11
0.411417
21
1.95689
0
LINE
8
BLACK
6
CONTINUOUS
10
0.411417
20
1.95689
11
0.48622
21
1.95689
0
LINE
8
BLACK
6
CONTINUOUS
10
0.48622
20
1.95689
11
0.486916
21
1.9566
0
LINE
8
BLACK
6
CONTINUOUS
10
0.486916
20
1.9566
11
0.487205
21
1.95591
0
LINE
8
BLACK
6
CONTINUOUS
10
0.487205
20
1.95591
11
0.487205
21
1.82362
0
LINE
8
BLACK
6
CONTINUOUS
10
0.487205
20
1.82362
11
0.486916
21
1.82293
0
LINE
8
BLACK
6
CONTINUOUS
10
0.486916
20
1.82293
11
0.48622
21
1.82264
0
LINE
8
BLACK
6
CONTINUOUS
10
0.48622
20
1.82264
11
0.411417
21
1.82264
0
LINE
8
BLACK
6
CONTINUOUS
10
0.411417
20
1.82264
11
0.410721
21
1.82293
0
LINE
8
BLACK
6
CONTINUOUS
10
0.412402
20
1.95492
11
0.412402
21
1.82461
0
LINE
8
BLACK
6
CONTINUOUS
10
0.412402
20
1.82461
11
0.485236
21
1.82461
0
LINE
8
BLACK
6
CONTINUOUS
10
0.485236
20
1.82461
11
0.485236
21
1.95492
0
LINE
8
BLACK
6
CONTINUOUS
10
0.485236
20
1.95492
11
0.412402
21
1.95492
0
LINE
8
BLACK
6
CONTINUOUS
10
1.12923
20
2.09212
11
1.12894
21
2.09281
0
LINE
8
BLACK
6
CONTINUOUS
10
1.12894
20
2.09281
11
1.12894
21
2.19124
0
LINE
8
BLACK
6
CONTINUOUS
10
1.12894
20
2.19124
11
1.12923
21
2.19194
0
LINE
8
BLACK
6
CONTINUOUS
10
1.12923
20
2.19194
11
1.12992
21
2.19222
0
LINE
8
BLACK
6
CONTINUOUS
10
1.12992
20
2.19222
11
1.31102
21
2.19222
0
LINE
8
BLACK
6
CONTINUOUS
10
1.31102
20
2.19222
11
1.31172
21
2.19194
0
LINE
8
BLACK
6
CONTINUOUS
10
1.31172
20
2.19194
11
1.31201
21
2.19124
0
LINE
8
BLACK
6
CONTINUOUS
10
1.31201
20
2.19124
11
1.31201
21
2.09281
0
LINE
8
BLACK
6
CONTINUOUS
10
1.31201
20
2.09281
11
1.31172
21
2.09212
0
LINE
8
BLACK
6
CONTINUOUS
10
1.31172
20
2.09212
11
1.31102
21
2.09183
0
LINE
8
BLACK
6
CONTINUOUS
10
1.31102
20
2.09183
11
1.12992
21
2.09183
0
LINE
8
BLACK
6
CONTINUOUS
10
1.12992
20
2.09183
11
1.12923
21
2.09212
0
LINE
8
BLACK
6
CONTINUOUS
10
1.13091
20
2.19026
11
1.13091
21
2.0938
0
LINE
8
BLACK
6
CONTINUOUS
10
1.13091
20
2.0938
11
1.31004
21
2.0938
0
LINE
8
BLACK
6
CONTINUOUS
10
1.31004
20
2.0938
11
1.31004
21
2.19026
0
LINE
8
BLACK
6
CONTINUOUS
10
1.31004
20
2.19026
11
1.13091
21
2.19026
0
LINE
8
BLACK
6
CONTINUOUS
10
1.39497
20
2.10757
11
1.39469
21
2.10827
0
LINE
8
BLACK
6
CONTINUOUS
10
1.39469
20
2.10827
11
1.39469
21
2.25
0
LINE
8
BLACK
6
CONTINUOUS
10
1.39469
20
2.25
11
1.39497
21
2.2507
0
LINE
8
BLACK
6
CONTINUOUS
10
1.39497
20
2.2507
11
1.39567
21
2.25098
0
LINE
8
BLACK
6
CONTINUOUS
10
1.39567
20
2.25098
11
1.62795
21
2.25098
0
LINE
8
BLACK
6
CONTINUOUS
10
1.62795
20
2.25098
11
1.62865
21
2.2507
0
LINE
8
BLACK
6
CONTINUOUS
10
1.62865
20
2.2507
11
1.62894
21
2.25
0
LINE
8
BLACK
6
CONTINUOUS
10
1.62894
20
2.25
11
1.62894
21
2.10827
0
LINE
8
BLACK
6
CONTINUOUS
10
1.62894
20
2.10827
11
1.62865
21
2.10757
0
LINE
8
BLACK
6
CONTINUOUS
10
1.62865
20
2.10757
11
1.62795
21
2.10728
0
LINE
8
BLACK
6
CONTINUOUS
10
1.62795
20
2.10728
11
1.39567
21
2.10728
0
LINE
8
BLACK
6
CONTINUOUS
10
1.39567
20
2.10728
11
1.39497
21
2.10757
0
LINE
8
BLACK
6
CONTINUOUS
10
1.39665
20
2.24902
11
1.39665
21
2.10925
0
LINE
8
BLACK
6
CONTINUOUS
10
1.39665
20
2.10925
11
1.62697
21
2.10925
0
LINE
8
BLACK
6
CONTINUOUS
10
1.62697
20
2.10925
11
1.62697
21
2.24902
0
LINE
8
BLACK
6
CONTINUOUS
10
1.62697
20
2.24902
11
1.39665
21
2.24902
0
LINE
8
BLACK
6
CONTINUOUS
10
1.66545
20
2.10757
11
1.66516
21
2.10827
0
LINE
8
BLACK
6
CONTINUOUS
10
1.66516
20
2.10827
11
1.66516
21
2.18307
0
LINE
8
BLACK
6
CONTINUOUS
10
1.66516
20
2.18307
11
1.66545
21
2.18377
0
LINE
8
BLACK
6
CONTINUOUS
10
1.66545
20
2.18377
11
1.66614
21
2.18406
0
LINE
8
BLACK
6
CONTINUOUS
10
1.66614
20
2.18406
11
1.79843
21
2.18406
0
LINE
8
BLACK
6
CONTINUOUS
10
1.79843
20
2.18406
11
1.79912
21
2.18377
0
LINE
8
BLACK
6
CONTINUOUS
10
1.79912
20
2.18377
11
1.79941
21
2.18307
0
LINE
8
BLACK
6
CONTINUOUS
10
1.79941
20
2.18307
11
1.79941
21
2.10827
0
LINE
8
BLACK
6
CONTINUOUS
10
1.79941
20
2.10827
11
1.79912
21
2.10757
0
LINE
8
BLACK
6
CONTINUOUS
10
1.79912
20
2.10757
11
1.79843
21
2.10728
0
LINE
8
BLACK
6
CONTINUOUS
10
1.79843
20
2.10728
11
1.66614
21
2.10728
0
LINE
8
BLACK
6
CONTINUOUS
10
1.66614
20
2.10728
11
1.66545
21
2.10757
0
LINE
8
BLACK
6
CONTINUOUS
10
1.66713
20
2.18209
11
1.66713
21
2.10925
0
LINE
8
BLACK
6
CONTINUOUS
10
1.66713
20
2.10925
11
1.79744
21
2.10925
0
LINE
8
BLACK
6
CONTINUOUS
10
1.79744
20
2.10925
11
1.79744
21
2.18209
0
LINE
8
BLACK
6
CONTINUOUS
10
1.79744
20
2.18209
11
1.66713
21
2.18209
0
LINE
8
BLACK
6
CONTINUOUS
10
0.917414
20
2.11938
11
0.917126
21
2.12008
0
LINE
8
BLACK
6
CONTINUOUS
10
0.917126
20
2.12008
11
0.917126
21
2.19488
0
LINE
8
BLACK
6
CONTINUOUS
10
0.917126
20
2.19488
11
0.917414
21
2.19558
0
LINE
8
BLACK
6
CONTINUOUS
10
0.917414
20
2.19558
11
0.91811
21
2.19587
0
LINE
8
BLACK
6
CONTINUOUS
10
0.91811
20
2.19587
11
1.05039
21
2.19587
0
LINE
8
BLACK
6
CONTINUOUS
10
1.05039
20
2.19587
11
1.05109
21
2.19558
0
LINE
8
BLACK
6
CONTINUOUS
10
1.05109
20
2.19558
11
1.05138
21
2.19488
0
LINE
8
BLACK
6
CONTINUOUS
10
1.05138
20
2.19488
11
1.05138
21
2.12008
0
LINE
8
BLACK
6
CONTINUOUS
10
1.05138
20
2.12008
11
1.05109
21
2.11938
0
LINE
8
BLACK
6
CONTINUOUS
10
1.05109
20
2.11938
11
1.05039
21
2.11909
0
LINE
8
BLACK
6
CONTINUOUS
10
1.05039
20
2.11909
11
0.91811
21
2.11909
0
LINE
8
BLACK
6
CONTINUOUS
10
0.91811
20
2.11909
11
0.917414
21
2.11938
0
LINE
8
BLACK
6
CONTINUOUS
10
0.919094
20
2.1939
11
0.919094
21
2.12106
0
LINE
8
BLACK
6
CONTINUOUS
10
0.919094
20
2.12106
11
1.04941
21
2.12106
0
LINE
8
BLACK
6
CONTINUOUS
10
1.04941
20
2.12106
11
1.04941
21
2.1939
0
LINE
8
BLACK
6
CONTINUOUS
10
1.04941
20
2.1939
11
0.919094
21
2.1939
0
LINE
8
BLACK
6
CONTINUOUS
10
1.66545
20
2.18828
11
1.66516
21
2.18898
0
LINE
8
BLACK
6
CONTINUOUS
10
1.66516
20
2.18898
11
1.66516
21
2.26378
0
LINE
8
BLACK
6
CONTINUOUS
10
1.66516
20
2.26378
11
1.66545
21
2.26448
0
LINE
8
BLACK
6
CONTINUOUS
10
1.66545
20
2.26448
11
1.66614
21
2.26476
0
LINE
8
BLACK
6
CONTINUOUS
10
1.66614
20
2.26476
11
1.79843
21
2.26476
0
LINE
8
BLACK
6
CONTINUOUS
10
1.79843
20
2.26476
11
1.79912
21
2.26448
0
LINE
8
BLACK
6
CONTINUOUS
10
1.79912
20
2.26448
11
1.79941
21
2.26378
0
LINE
8
BLACK
6
CONTINUOUS
10
1.79941
20
2.26378
11
1.79941
21
2.18898
0
LINE
8
BLACK
6
CONTINUOUS
10
1.79941
20
2.18898
11
1.79912
21
2.18828
0
LINE
8
BLACK
6
CONTINUOUS
10
1.79912
20
2.18828
11
1.79843
21
2.18799
0
LINE
8
BLACK
6
CONTINUOUS
10
1.79843
20
2.18799
11
1.66614
21
2.18799
0
LINE
8
BLACK
6
CONTINUOUS
10
1.66614
20
2.18799
11
1.66545
21
2.18828
0
LINE
8
BLACK
6
CONTINUOUS
10
1.66713
20
2.2628
11
1.66713
21
2.18996
0
LINE
8
BLACK
6
CONTINUOUS
10
1.66713
20
2.18996
11
1.79744
21
2.18996
0
LINE
8
BLACK
6
CONTINUOUS
10
1.79744
20
2.18996
11
1.79744
21
2.2628
0
LINE
8
BLACK
6
CONTINUOUS
10
1.79744
20
2.2628
11
1.66713
21
2.2628
0
LINE
8
BLACK
6
CONTINUOUS
10
0.918595
20
2.20206
11
0.918307
21
2.20276
0
LINE
8
BLACK
6
CONTINUOUS
10
0.918307
20
2.20276
11
0.918307
21
2.28937
0
LINE
8
BLACK
6
CONTINUOUS
10
0.918307
20
2.28937
11
0.918595
21
2.29007
0
LINE
8
BLACK
6
CONTINUOUS
10
0.918595
20
2.29007
11
0.919291
21
2.29035
0
LINE
8
BLACK
6
CONTINUOUS
10
0.919291
20
2.29035
11
1.12795
21
2.29035
0
LINE
8
BLACK
6
CONTINUOUS
10
1.12795
20
2.29035
11
1.12865
21
2.29007
0
LINE
8
BLACK
6
CONTINUOUS
10
1.12865
20
2.29007
11
1.12894
21
2.28937
0
LINE
8
BLACK
6
CONTINUOUS
10
1.12894
20
2.28937
11
1.12894
21
2.20276
0
LINE
8
BLACK
6
CONTINUOUS
10
1.12894
20
2.20276
11
1.12865
21
2.20206
0
LINE
8
BLACK
6
CONTINUOUS
10
1.12865
20
2.20206
11
1.12795
21
2.20177
0
LINE
8
BLACK
6
CONTINUOUS
10
1.12795
20
2.20177
11
0.919291
21
2.20177
0
LINE
8
BLACK
6
CONTINUOUS
10
0.919291
20
2.20177
11
0.918595
21
2.20206
0
LINE
8
BLACK
6
CONTINUOUS
10
0.920276
20
2.28839
11
0.920276
21
2.20374
0
LINE
8
BLACK
6
CONTINUOUS
10
0.920276
20
2.20374
11
1.12697
21
2.20374
0
LINE
8
BLACK
6
CONTINUOUS
10
1.12697
20
2.20374
11
1.12697
21
2.28839
0
LINE
8
BLACK
6
CONTINUOUS
10
1.12697
20
2.28839
11
0.920276
21
2.28839
0
LINE
8
BLACK
6
CONTINUOUS
10
1.13198
20
2.20797
11
1.13169
21
2.20866
0
LINE
8
BLACK
6
CONTINUOUS
10
1.13169
20
2.20866
11
1.13169
21
2.28346
0
LINE
8
BLACK
6
CONTINUOUS
10
1.13169
20
2.28346
11
1.13198
21
2.28416
0
LINE
8
BLACK
6
CONTINUOUS
10
1.13198
20
2.28416
11
1.13268
21
2.28445
0
LINE
8
BLACK
6
CONTINUOUS
10
1.13268
20
2.28445
11
1.26496
21
2.28445
0
LINE
8
BLACK
6
CONTINUOUS
10
1.26496
20
2.28445
11
1.26566
21
2.28416
0
LINE
8
BLACK
6
CONTINUOUS
10
1.26566
20
2.28416
11
1.26594
21
2.28346
0
LINE
8
BLACK
6
CONTINUOUS
10
1.26594
20
2.28346
11
1.26594
21
2.20866
0
LINE
8
BLACK
6
CONTINUOUS
10
1.26594
20
2.20866
11
1.26566
21
2.20797
0
LINE
8
BLACK
6
CONTINUOUS
10
1.26566
20
2.20797
11
1.26496
21
2.20768
0
LINE
8
BLACK
6
CONTINUOUS
10
1.26496
20
2.20768
11
1.13268
21
2.20768
0
LINE
8
BLACK
6
CONTINUOUS
10
1.13268
20
2.20768
11
1.13198
21
2.20797
0
LINE
8
BLACK
6
CONTINUOUS
10
1.13366
20
2.28248
11
1.13366
21
2.20965
0
LINE
8
BLACK
6
CONTINUOUS
10
1.13366
20
2.20965
11
1.26398
21
2.20965
0
LINE
8
BLACK
6
CONTINUOUS
10
1.26398
20
2.20965
11
1.26398
21
2.28248
0
LINE
8
BLACK
6
CONTINUOUS
10
1.26398
20
2.28248
11
1.13366
21
2.28248
  0
ENDSEC
  0
EOF
