  0
SECTION
  2
HEADER
  9
$ANGBASE
  50
0.0
  9
$ANGDIR
  70
1
  9
$MEASUREMENT
  70
0
  0
ENDSEC
  0
SECTION
  2
TABLES
  0
TABLE
  2
LTYPE
  70
4
  0
LTYPE
  5
40F
  2
CONTINUOUS
  70
0
  3
Solid line
  72
65
  73
0
  40
0.0
  0
LTYPE
  5
410
  2
DASHDOT
 70
0
  3
Dash Dot ____ _ ____ _
 72
65
 73
4
 40
2.0
 49
1.25
 49
-0.25
 49
0.25
 49
-0.25
  0
LTYPE
  5
411
  2
DASHED
 70
0
  3
Dashed __ __ __ __ __
 72
65
 73
2
 40
0.75
 49
0.5
 49
-0.25
  0
LTYPE
  5
43B
  2
DOTTED
 70
0
  3
Dotted .  .  .  .
 72
65
 73
2
 40
0.2
 49
0.0
 49
-0.2
  0
ENDTAB
  0
TABLE
  2
STYLE
  70
4
  0
STYLE
  2
KICAD
  70
0
  40
0
  41
1
  42
1
  50
0
  71
0
  3
isocp.shx
  0
STYLE
  2
KICADB
  70
0
  40
0
  41
1
  42
1
  50
0
  71
0
  3
isocp.shx
  0
STYLE
  2
KICADI
  70
0
  40
0
  41
1
  42
1
  50
15
  71
0
  3
isocp.shx
  0
STYLE
  2
KICADBI
  70
0
  40
0
  41
1
  42
1
  50
15
  71
0
  3
isocp.shx
  0
ENDTAB
  0
TABLE
  2
LAYER
  70
1
  0
LAYER
  2
BLACK
  70
0
  62
7
  6
CONTINUOUS
  0
ENDTAB
  0
ENDSEC
  0
SECTION
  2
ENTITIES
0
LINE
8
BLACK
6
CONTINUOUS
10
0.317217
20
-0.167147
11
0.316929
21
-0.166451
0
LINE
8
BLACK
6
CONTINUOUS
10
0.316929
20
-0.166451
11
0.316929
21
-0.0736502
0
LINE
8
BLACK
6
CONTINUOUS
10
0.316929
20
-0.0736502
11
0.303603
21
-0.0632179
0
LINE
8
BLACK
6
CONTINUOUS
10
0.303603
20
-0.0632179
11
0.291244
21
-0.0516046
0
LINE
8
BLACK
6
CONTINUOUS
10
0.291244
20
-0.0516046
11
0.279981
21
-0.038926
0
LINE
8
BLACK
6
CONTINUOUS
10
0.279981
20
-0.038926
11
0.269904
21
-0.025285
0
LINE
8
BLACK
6
CONTINUOUS
10
0.269904
20
-0.025285
11
0.261097
21
-0.0107925
0
LINE
8
BLACK
6
CONTINUOUS
10
0.261097
20
-0.0107925
11
0.253629
21
0.00443406
0
LINE
8
BLACK
6
CONTINUOUS
10
0.253629
20
0.00443406
11
0.247563
21
0.0202709
0
LINE
8
BLACK
6
CONTINUOUS
10
0.247563
20
0.0202709
11
0.242947
21
0.0365896
0
LINE
8
BLACK
6
CONTINUOUS
10
0.242947
20
0.0365896
11
0.239818
21
0.0532575
0
LINE
8
BLACK
6
CONTINUOUS
10
0.239818
20
0.0532575
11
0.238202
21
0.0701394
0
LINE
8
BLACK
6
CONTINUOUS
10
0.238202
20
0.0701394
11
0.238113
21
0.0870981
0
LINE
8
BLACK
6
CONTINUOUS
10
0.238113
20
0.0870981
11
0.23955
21
0.103996
0
LINE
8
BLACK
6
CONTINUOUS
10
0.23955
20
0.103996
11
0.242502
21
0.120696
0
LINE
8
BLACK
6
CONTINUOUS
10
0.242502
20
0.120696
11
0.246946
21
0.137063
0
LINE
8
BLACK
6
CONTINUOUS
10
0.246946
20
0.137063
11
0.252845
21
0.152963
0
LINE
8
BLACK
6
CONTINUOUS
10
0.252845
20
0.152963
11
0.260151
21
0.168267
0
LINE
8
BLACK
6
CONTINUOUS
10
0.260151
20
0.168267
11
0.268805
21
0.182852
0
LINE
8
BLACK
6
CONTINUOUS
10
0.268805
20
0.182852
11
0.278737
21
0.196599
0
LINE
8
BLACK
6
CONTINUOUS
10
0.278737
20
0.196599
11
0.289865
21
0.209396
0
LINE
8
BLACK
6
CONTINUOUS
10
0.289865
20
0.209396
11
0.302101
21
0.221139
0
LINE
8
BLACK
6
CONTINUOUS
10
0.302101
20
0.221139
11
0.315344
21
0.231733
0
LINE
8
BLACK
6
CONTINUOUS
10
0.315344
20
0.231733
11
0.329486
21
0.241092
0
LINE
8
BLACK
6
CONTINUOUS
10
0.329486
20
0.241092
11
0.344414
21
0.24914
0
LINE
8
BLACK
6
CONTINUOUS
10
0.344414
20
0.24914
11
0.360005
21
0.255812
0
LINE
8
BLACK
6
CONTINUOUS
10
0.360005
20
0.255812
11
0.376134
21
0.261054
0
LINE
8
BLACK
6
CONTINUOUS
10
0.376134
20
0.261054
11
0.392669
21
0.264822
0
LINE
8
BLACK
6
CONTINUOUS
10
0.392669
20
0.264822
11
0.409476
21
0.267087
0
LINE
8
BLACK
6
CONTINUOUS
10
0.409476
20
0.267087
11
0.426419
21
0.267829
0
LINE
8
BLACK
6
CONTINUOUS
10
0.426419
20
0.267829
11
0.44336
21
0.267044
0
LINE
8
BLACK
6
CONTINUOUS
10
0.44336
20
0.267044
11
0.460161
21
0.264737
0
LINE
8
BLACK
6
CONTINUOUS
10
0.460161
20
0.264737
11
0.476687
21
0.260926
0
LINE
8
BLACK
6
CONTINUOUS
10
0.476687
20
0.260926
11
0.492802
21
0.255644
0
LINE
8
BLACK
6
CONTINUOUS
10
0.492802
20
0.255644
11
0.508377
21
0.248933
0
LINE
8
BLACK
6
CONTINUOUS
10
0.508377
20
0.248933
11
0.523284
21
0.240847
0
LINE
8
BLACK
6
CONTINUOUS
10
0.523284
20
0.240847
11
0.537403
21
0.231452
0
LINE
8
BLACK
6
CONTINUOUS
10
0.537403
20
0.231452
11
0.550619
21
0.220825
0
LINE
8
BLACK
6
CONTINUOUS
10
0.550619
20
0.220825
11
0.562824
21
0.209051
0
LINE
8
BLACK
6
CONTINUOUS
10
0.562824
20
0.209051
11
0.573921
21
0.196226
0
LINE
8
BLACK
6
CONTINUOUS
10
0.573921
20
0.196226
11
0.583818
21
0.182454
0
LINE
8
BLACK
6
CONTINUOUS
10
0.583818
20
0.182454
11
0.592435
21
0.167847
0
LINE
8
BLACK
6
CONTINUOUS
10
0.592435
20
0.167847
11
0.599702
21
0.152524
0
LINE
8
BLACK
6
CONTINUOUS
10
0.599702
20
0.152524
11
0.605561
21
0.136609
0
LINE
8
BLACK
6
CONTINUOUS
10
0.605561
20
0.136609
11
0.609963
21
0.120232
0
LINE
8
BLACK
6
CONTINUOUS
10
0.609963
20
0.120232
11
0.612873
21
0.103524
0
LINE
8
BLACK
6
CONTINUOUS
10
0.612873
20
0.103524
11
0.614268
21
0.0866228
0
LINE
8
BLACK
6
CONTINUOUS
10
0.614268
20
0.0866228
11
0.614136
21
0.0696643
0
LINE
8
BLACK
6
CONTINUOUS
10
0.614136
20
0.0696643
11
0.612477
21
0.0527866
0
LINE
8
BLACK
6
CONTINUOUS
10
0.612477
20
0.0527866
11
0.609306
21
0.0361266
0
LINE
8
BLACK
6
CONTINUOUS
10
0.609306
20
0.0361266
11
0.604649
21
0.0198197
0
LINE
8
BLACK
6
CONTINUOUS
10
0.604649
20
0.0198197
11
0.598542
21
0.00399823
0
LINE
8
BLACK
6
CONTINUOUS
10
0.598542
20
0.00399823
11
0.591037
21
-0.0112094
0
LINE
8
BLACK
6
CONTINUOUS
10
0.591037
20
-0.0112094
11
0.582192
21
-0.0256796
0
LINE
8
BLACK
6
CONTINUOUS
10
0.582192
20
-0.0256796
11
0.572082
21
-0.0392951
0
LINE
8
BLACK
6
CONTINUOUS
10
0.572082
20
-0.0392951
11
0.560786
21
-0.0519452
0
LINE
8
BLACK
6
CONTINUOUS
10
0.560786
20
-0.0519452
11
0.548398
21
-0.0635272
0
LINE
8
BLACK
6
CONTINUOUS
10
0.548398
20
-0.0635272
11
0.535433
21
-0.0736239
0
LINE
8
BLACK
6
CONTINUOUS
10
0.535433
20
-0.0736239
11
0.535433
21
-0.166451
0
LINE
8
BLACK
6
CONTINUOUS
10
0.535433
20
-0.166451
11
0.535145
21
-0.167147
0
LINE
8
BLACK
6
CONTINUOUS
10
0.535145
20
-0.167147
11
0.534449
21
-0.167436
0
LINE
8
BLACK
6
CONTINUOUS
10
0.534449
20
-0.167436
11
0.317913
21
-0.167436
0
LINE
8
BLACK
6
CONTINUOUS
10
0.317913
20
-0.167436
11
0.317217
21
-0.167147
0
LINE
8
BLACK
6
CONTINUOUS
10
0.409634
20
0.265313
11
0.392986
21
0.26307
0
LINE
8
BLACK
6
CONTINUOUS
10
0.392986
20
0.26307
11
0.376608
21
0.259337
0
LINE
8
BLACK
6
CONTINUOUS
10
0.376608
20
0.259337
11
0.360631
21
0.254145
0
LINE
8
BLACK
6
CONTINUOUS
10
0.360631
20
0.254145
11
0.345187
21
0.247536
0
LINE
8
BLACK
6
CONTINUOUS
10
0.345187
20
0.247536
11
0.330401
21
0.239564
0
LINE
8
BLACK
6
CONTINUOUS
10
0.330401
20
0.239564
11
0.316392
21
0.230294
0
LINE
8
BLACK
6
CONTINUOUS
10
0.316392
20
0.230294
11
0.303275
21
0.2198
0
LINE
8
BLACK
6
CONTINUOUS
10
0.303275
20
0.2198
11
0.291155
21
0.208168
0
LINE
8
BLACK
6
CONTINUOUS
10
0.291155
20
0.208168
11
0.280132
21
0.195492
0
LINE
8
BLACK
6
CONTINUOUS
10
0.280132
20
0.195492
11
0.270294
21
0.181875
0
LINE
8
BLACK
6
CONTINUOUS
10
0.270294
20
0.181875
11
0.261722
21
0.167428
0
LINE
8
BLACK
6
CONTINUOUS
10
0.261722
20
0.167428
11
0.254485
21
0.152269
0
LINE
8
BLACK
6
CONTINUOUS
10
0.254485
20
0.152269
11
0.248642
21
0.136519
0
LINE
8
BLACK
6
CONTINUOUS
10
0.248642
20
0.136519
11
0.24424
21
0.120307
0
LINE
8
BLACK
6
CONTINUOUS
10
0.24424
20
0.120307
11
0.241316
21
0.103765
0
LINE
8
BLACK
6
CONTINUOUS
10
0.241316
20
0.103765
11
0.239892
21
0.0870273
0
LINE
8
BLACK
6
CONTINUOUS
10
0.239892
20
0.0870273
11
0.239981
21
0.070229
0
LINE
8
BLACK
6
CONTINUOUS
10
0.239981
20
0.070229
11
0.241581
21
0.0535068
0
LINE
8
BLACK
6
CONTINUOUS
10
0.241581
20
0.0535068
11
0.24468
21
0.0369966
0
LINE
8
BLACK
6
CONTINUOUS
10
0.24468
20
0.0369966
11
0.249253
21
0.0208324
0
LINE
8
BLACK
6
CONTINUOUS
10
0.249253
20
0.0208324
11
0.255262
21
0.00514535
0
LINE
8
BLACK
6
CONTINUOUS
10
0.255262
20
0.00514535
11
0.262659
21
-0.00993713
0
LINE
8
BLACK
6
CONTINUOUS
10
0.262659
20
-0.00993713
11
0.271383
21
-0.0242926
0
LINE
8
BLACK
6
CONTINUOUS
10
0.271383
20
-0.0242926
11
0.281364
21
-0.0378045
0
LINE
8
BLACK
6
CONTINUOUS
10
0.281364
20
-0.0378045
11
0.29252
21
-0.0503631
0
LINE
8
BLACK
6
CONTINUOUS
10
0.29252
20
-0.0503631
11
0.304762
21
-0.0618665
0
LINE
8
BLACK
6
CONTINUOUS
10
0.304762
20
-0.0618665
11
0.317668
21
-0.0719692
0
LINE
8
BLACK
6
CONTINUOUS
10
0.317668
20
-0.0719692
11
0.318099
21
-0.0720685
0
LINE
8
BLACK
6
CONTINUOUS
10
0.318099
20
-0.0720685
11
0.318241
21
-0.0722956
0
LINE
8
BLACK
6
CONTINUOUS
10
0.318241
20
-0.0722956
11
0.318609
21
-0.0724482
0
LINE
8
BLACK
6
CONTINUOUS
10
0.318609
20
-0.0724482
11
0.318898
21
-0.0731442
0
LINE
8
BLACK
6
CONTINUOUS
10
0.318898
20
-0.0731442
11
0.318898
21
-0.165467
0
LINE
8
BLACK
6
CONTINUOUS
10
0.318898
20
-0.165467
11
0.533465
21
-0.165467
0
LINE
8
BLACK
6
CONTINUOUS
10
0.533465
20
-0.165467
11
0.533465
21
-0.0731442
0
LINE
8
BLACK
6
CONTINUOUS
10
0.533465
20
-0.0731442
11
0.533498
21
-0.0730637
0
LINE
8
BLACK
6
CONTINUOUS
10
0.533498
20
-0.0730637
11
0.533479
21
-0.0729788
0
LINE
8
BLACK
6
CONTINUOUS
10
0.533479
20
-0.0729788
11
0.533638
21
-0.0727252
0
LINE
8
BLACK
6
CONTINUOUS
10
0.533638
20
-0.0727252
11
0.533753
21
-0.0724482
0
LINE
8
BLACK
6
CONTINUOUS
10
0.533753
20
-0.0724482
11
0.533833
21
-0.0724148
0
LINE
8
BLACK
6
CONTINUOUS
10
0.533833
20
-0.0724148
11
0.53388
21
-0.0723412
0
LINE
8
BLACK
6
CONTINUOUS
10
0.53388
20
-0.0723412
11
0.534172
21
-0.0722746
0
LINE
8
BLACK
6
CONTINUOUS
10
0.534172
20
-0.0722746
11
0.534382
21
-0.0721875
0
LINE
8
BLACK
6
CONTINUOUS
10
0.534382
20
-0.0721875
11
0.547242
21
-0.062173
0
LINE
8
BLACK
6
CONTINUOUS
10
0.547242
20
-0.062173
11
0.559513
21
-0.0507005
0
LINE
8
BLACK
6
CONTINUOUS
10
0.559513
20
-0.0507005
11
0.570701
21
-0.0381701
0
LINE
8
BLACK
6
CONTINUOUS
10
0.570701
20
-0.0381701
11
0.580716
21
-0.0246835
0
LINE
8
BLACK
6
CONTINUOUS
10
0.580716
20
-0.0246835
11
0.589477
21
-0.0103501
0
LINE
8
BLACK
6
CONTINUOUS
10
0.589477
20
-0.0103501
11
0.596912
21
0.00471362
0
LINE
8
BLACK
6
CONTINUOUS
10
0.596912
20
0.00471362
11
0.60296
21
0.0203854
0
LINE
8
BLACK
6
CONTINUOUS
10
0.60296
20
0.0203854
11
0.607574
21
0.0365381
0
LINE
8
BLACK
6
CONTINUOUS
10
0.607574
20
0.0365381
11
0.610715
21
0.0530404
0
LINE
8
BLACK
6
CONTINUOUS
10
0.610715
20
0.0530404
11
0.612357
21
0.0697584
0
LINE
8
BLACK
6
CONTINUOUS
10
0.612357
20
0.0697584
11
0.612488
21
0.0865565
0
LINE
8
BLACK
6
CONTINUOUS
10
0.612488
20
0.0865565
11
0.611107
21
0.103298
0
LINE
8
BLACK
6
CONTINUOUS
10
0.611107
20
0.103298
11
0.608224
21
0.119848
0
LINE
8
BLACK
6
CONTINUOUS
10
0.608224
20
0.119848
11
0.603864
21
0.13607
0
LINE
8
BLACK
6
CONTINUOUS
10
0.603864
20
0.13607
11
0.59806
21
0.151835
0
LINE
8
BLACK
6
CONTINUOUS
10
0.59806
20
0.151835
11
0.590862
21
0.167013
0
LINE
8
BLACK
6
CONTINUOUS
10
0.590862
20
0.167013
11
0.582326
21
0.181481
0
LINE
8
BLACK
6
CONTINUOUS
10
0.582326
20
0.181481
11
0.572523
21
0.195122
0
LINE
8
BLACK
6
CONTINUOUS
10
0.572523
20
0.195122
11
0.561532
21
0.207826
0
LINE
8
BLACK
6
CONTINUOUS
10
0.561532
20
0.207826
11
0.549441
21
0.219489
0
LINE
8
BLACK
6
CONTINUOUS
10
0.549441
20
0.219489
11
0.53635
21
0.230016
0
LINE
8
BLACK
6
CONTINUOUS
10
0.53635
20
0.230016
11
0.522365
21
0.239322
0
LINE
8
BLACK
6
CONTINUOUS
10
0.522365
20
0.239322
11
0.507599
21
0.247331
0
LINE
8
BLACK
6
CONTINUOUS
10
0.507599
20
0.247331
11
0.492172
21
0.253979
0
LINE
8
BLACK
6
CONTINUOUS
10
0.492172
20
0.253979
11
0.476209
21
0.259211
0
LINE
8
BLACK
6
CONTINUOUS
10
0.476209
20
0.259211
11
0.45984
21
0.262985
0
LINE
8
BLACK
6
CONTINUOUS
10
0.45984
20
0.262985
11
0.443197
21
0.26527
0
LINE
8
BLACK
6
CONTINUOUS
10
0.443197
20
0.26527
11
0.426417
21
0.266048
0
LINE
8
BLACK
6
CONTINUOUS
10
0.426417
20
0.266048
11
0.409634
21
0.265313
0
LINE
8
BLACK
6
CONTINUOUS
10
0.771942
20
-0.115066
11
0.771654
21
-0.11437
0
LINE
8
BLACK
6
CONTINUOUS
10
0.771654
20
-0.11437
11
0.771654
21
0.0179134
0
LINE
8
BLACK
6
CONTINUOUS
10
0.771654
20
0.0179134
11
0.771942
21
0.0186094
0
LINE
8
BLACK
6
CONTINUOUS
10
0.771942
20
0.0186094
11
0.772638
21
0.0188976
0
LINE
8
BLACK
6
CONTINUOUS
10
0.772638
20
0.0188976
11
0.847441
21
0.0188976
0
LINE
8
BLACK
6
CONTINUOUS
10
0.847441
20
0.0188976
11
0.848137
21
0.0186094
0
LINE
8
BLACK
6
CONTINUOUS
10
0.848137
20
0.0186094
11
0.848425
21
0.0179134
0
LINE
8
BLACK
6
CONTINUOUS
10
0.848425
20
0.0179134
11
0.848425
21
-0.11437
0
LINE
8
BLACK
6
CONTINUOUS
10
0.848425
20
-0.11437
11
0.848137
21
-0.115066
0
LINE
8
BLACK
6
CONTINUOUS
10
0.848137
20
-0.115066
11
0.847441
21
-0.115354
0
LINE
8
BLACK
6
CONTINUOUS
10
0.847441
20
-0.115354
11
0.772638
21
-0.115354
0
LINE
8
BLACK
6
CONTINUOUS
10
0.772638
20
-0.115354
11
0.771942
21
-0.115066
0
LINE
8
BLACK
6
CONTINUOUS
10
0.773622
20
0.0169291
11
0.773622
21
-0.113386
0
LINE
8
BLACK
6
CONTINUOUS
10
0.773622
20
-0.113386
11
0.846457
21
-0.113386
0
LINE
8
BLACK
6
CONTINUOUS
10
0.846457
20
-0.113386
11
0.846457
21
0.0169291
0
LINE
8
BLACK
6
CONTINUOUS
10
0.846457
20
0.0169291
11
0.773622
21
0.0169291
0
LINE
8
BLACK
6
CONTINUOUS
10
0.683359
20
-0.115066
11
0.683071
21
-0.11437
0
LINE
8
BLACK
6
CONTINUOUS
10
0.683071
20
-0.11437
11
0.683071
21
0.0179134
0
LINE
8
BLACK
6
CONTINUOUS
10
0.683071
20
0.0179134
11
0.683359
21
0.0186094
0
LINE
8
BLACK
6
CONTINUOUS
10
0.683359
20
0.0186094
11
0.684055
21
0.0188976
0
LINE
8
BLACK
6
CONTINUOUS
10
0.684055
20
0.0188976
11
0.758858
21
0.0188976
0
LINE
8
BLACK
6
CONTINUOUS
10
0.758858
20
0.0188976
11
0.759554
21
0.0186094
0
LINE
8
BLACK
6
CONTINUOUS
10
0.759554
20
0.0186094
11
0.759843
21
0.0179134
0
LINE
8
BLACK
6
CONTINUOUS
10
0.759843
20
0.0179134
11
0.759843
21
-0.11437
0
LINE
8
BLACK
6
CONTINUOUS
10
0.759843
20
-0.11437
11
0.759554
21
-0.115066
0
LINE
8
BLACK
6
CONTINUOUS
10
0.759554
20
-0.115066
11
0.758858
21
-0.115354
0
LINE
8
BLACK
6
CONTINUOUS
10
0.758858
20
-0.115354
11
0.684055
21
-0.115354
0
LINE
8
BLACK
6
CONTINUOUS
10
0.684055
20
-0.115354
11
0.683359
21
-0.115066
0
LINE
8
BLACK
6
CONTINUOUS
10
0.685039
20
0.0169291
11
0.685039
21
-0.113386
0
LINE
8
BLACK
6
CONTINUOUS
10
0.685039
20
-0.113386
11
0.757874
21
-0.113386
0
LINE
8
BLACK
6
CONTINUOUS
10
0.757874
20
-0.113386
11
0.757874
21
0.0169291
0
LINE
8
BLACK
6
CONTINUOUS
10
0.757874
20
0.0169291
11
0.685039
21
0.0169291
0
LINE
8
BLACK
6
CONTINUOUS
10
0.893497
20
0.170761
11
0.893209
21
0.171457
0
LINE
8
BLACK
6
CONTINUOUS
10
0.893209
20
0.171457
11
0.893209
21
0.322638
0
LINE
8
BLACK
6
CONTINUOUS
10
0.893209
20
0.322638
11
0.893497
21
0.323334
0
LINE
8
BLACK
6
CONTINUOUS
10
0.893497
20
0.323334
11
0.894193
21
0.323622
0
LINE
8
BLACK
6
CONTINUOUS
10
0.894193
20
0.323622
11
1.02805
21
0.323622
0
LINE
8
BLACK
6
CONTINUOUS
10
1.02805
20
0.323622
11
1.02875
21
0.323334
0
LINE
8
BLACK
6
CONTINUOUS
10
1.02875
20
0.323334
11
1.02904
21
0.322638
0
LINE
8
BLACK
6
CONTINUOUS
10
1.02904
20
0.322638
11
1.02904
21
0.171457
0
LINE
8
BLACK
6
CONTINUOUS
10
1.02904
20
0.171457
11
1.02875
21
0.170761
0
LINE
8
BLACK
6
CONTINUOUS
10
1.02875
20
0.170761
11
1.02805
21
0.170472
0
LINE
8
BLACK
6
CONTINUOUS
10
1.02805
20
0.170472
11
0.894193
21
0.170472
0
LINE
8
BLACK
6
CONTINUOUS
10
0.894193
20
0.170472
11
0.893497
21
0.170761
0
LINE
8
BLACK
6
CONTINUOUS
10
0.895177
20
0.321654
11
0.895177
21
0.172441
0
LINE
8
BLACK
6
CONTINUOUS
10
0.895177
20
0.172441
11
1.02707
21
0.172441
0
LINE
8
BLACK
6
CONTINUOUS
10
1.02707
20
0.172441
11
1.02707
21
0.321654
0
LINE
8
BLACK
6
CONTINUOUS
10
1.02707
20
0.321654
11
0.895177
21
0.321654
0
LINE
8
BLACK
6
CONTINUOUS
10
0.722729
20
0.170761
11
0.722441
21
0.171457
0
LINE
8
BLACK
6
CONTINUOUS
10
0.722441
20
0.171457
11
0.722441
21
0.322638
0
LINE
8
BLACK
6
CONTINUOUS
10
0.722441
20
0.322638
11
0.722729
21
0.323334
0
LINE
8
BLACK
6
CONTINUOUS
10
0.722729
20
0.323334
11
0.723425
21
0.323622
0
LINE
8
BLACK
6
CONTINUOUS
10
0.723425
20
0.323622
11
0.857283
21
0.323622
0
LINE
8
BLACK
6
CONTINUOUS
10
0.857283
20
0.323622
11
0.857979
21
0.323334
0
LINE
8
BLACK
6
CONTINUOUS
10
0.857979
20
0.323334
11
0.858268
21
0.322638
0
LINE
8
BLACK
6
CONTINUOUS
10
0.858268
20
0.322638
11
0.858268
21
0.171457
0
LINE
8
BLACK
6
CONTINUOUS
10
0.858268
20
0.171457
11
0.857979
21
0.170761
0
LINE
8
BLACK
6
CONTINUOUS
10
0.857979
20
0.170761
11
0.857283
21
0.170472
0
LINE
8
BLACK
6
CONTINUOUS
10
0.857283
20
0.170472
11
0.723425
21
0.170472
0
LINE
8
BLACK
6
CONTINUOUS
10
0.723425
20
0.170472
11
0.722729
21
0.170761
0
LINE
8
BLACK
6
CONTINUOUS
10
0.724409
20
0.321654
11
0.724409
21
0.172441
0
LINE
8
BLACK
6
CONTINUOUS
10
0.724409
20
0.172441
11
0.856299
21
0.172441
0
LINE
8
BLACK
6
CONTINUOUS
10
0.856299
20
0.172441
11
0.856299
21
0.321654
0
LINE
8
BLACK
6
CONTINUOUS
10
0.856299
20
0.321654
11
0.724409
21
0.321654
0
LINE
8
BLACK
6
CONTINUOUS
10
1.06722
20
0.170761
11
1.06693
21
0.171457
0
LINE
8
BLACK
6
CONTINUOUS
10
1.06693
20
0.171457
11
1.06693
21
0.322638
0
LINE
8
BLACK
6
CONTINUOUS
10
1.06693
20
0.322638
11
1.06722
21
0.323334
0
LINE
8
BLACK
6
CONTINUOUS
10
1.06722
20
0.323334
11
1.06791
21
0.323622
0
LINE
8
BLACK
6
CONTINUOUS
10
1.06791
20
0.323622
11
1.20177
21
0.323622
0
LINE
8
BLACK
6
CONTINUOUS
10
1.20177
20
0.323622
11
1.20247
21
0.323334
0
LINE
8
BLACK
6
CONTINUOUS
10
1.20247
20
0.323334
11
1.20276
21
0.322638
0
LINE
8
BLACK
6
CONTINUOUS
10
1.20276
20
0.322638
11
1.20276
21
0.171457
0
LINE
8
BLACK
6
CONTINUOUS
10
1.20276
20
0.171457
11
1.20247
21
0.170761
0
LINE
8
BLACK
6
CONTINUOUS
10
1.20247
20
0.170761
11
1.20177
21
0.170472
0
LINE
8
BLACK
6
CONTINUOUS
10
1.20177
20
0.170472
11
1.06791
21
0.170472
0
LINE
8
BLACK
6
CONTINUOUS
10
1.06791
20
0.170472
11
1.06722
21
0.170761
0
LINE
8
BLACK
6
CONTINUOUS
10
1.0689
20
0.321654
11
1.0689
21
0.172441
0
LINE
8
BLACK
6
CONTINUOUS
10
1.0689
20
0.172441
11
1.20079
21
0.172441
0
LINE
8
BLACK
6
CONTINUOUS
10
1.20079
20
0.172441
11
1.20079
21
0.321654
0
LINE
8
BLACK
6
CONTINUOUS
10
1.20079
20
0.321654
11
1.0689
21
0.321654
0
LINE
8
BLACK
6
CONTINUOUS
10
1.04832
20
0.415643
11
1.04803
21
0.416339
0
LINE
8
BLACK
6
CONTINUOUS
10
1.04803
20
0.416339
11
1.04803
21
0.491142
0
LINE
8
BLACK
6
CONTINUOUS
10
1.04803
20
0.491142
11
1.04832
21
0.491838
0
LINE
8
BLACK
6
CONTINUOUS
10
1.04832
20
0.491838
11
1.04902
21
0.492126
0
LINE
8
BLACK
6
CONTINUOUS
10
1.04902
20
0.492126
11
1.1813
21
0.492126
0
LINE
8
BLACK
6
CONTINUOUS
10
1.1813
20
0.492126
11
1.182
21
0.491838
0
LINE
8
BLACK
6
CONTINUOUS
10
1.182
20
0.491838
11
1.18228
21
0.491142
0
LINE
8
BLACK
6
CONTINUOUS
10
1.18228
20
0.491142
11
1.18228
21
0.416339
0
LINE
8
BLACK
6
CONTINUOUS
10
1.18228
20
0.416339
11
1.182
21
0.415643
0
LINE
8
BLACK
6
CONTINUOUS
10
1.182
20
0.415643
11
1.1813
21
0.415354
0
LINE
8
BLACK
6
CONTINUOUS
10
1.1813
20
0.415354
11
1.04902
21
0.415354
0
LINE
8
BLACK
6
CONTINUOUS
10
1.04902
20
0.415354
11
1.04832
21
0.415643
0
LINE
8
BLACK
6
CONTINUOUS
10
1.05
20
0.490157
11
1.05
21
0.417323
0
LINE
8
BLACK
6
CONTINUOUS
10
1.05
20
0.417323
11
1.18031
21
0.417323
0
LINE
8
BLACK
6
CONTINUOUS
10
1.18031
20
0.417323
11
1.18031
21
0.490157
0
LINE
8
BLACK
6
CONTINUOUS
10
1.18031
20
0.490157
11
1.05
21
0.490157
0
LINE
8
BLACK
6
CONTINUOUS
10
0.890839
20
0.415643
11
0.890551
21
0.416339
0
LINE
8
BLACK
6
CONTINUOUS
10
0.890551
20
0.416339
11
0.890551
21
0.491142
0
LINE
8
BLACK
6
CONTINUOUS
10
0.890551
20
0.491142
11
0.890839
21
0.491838
0
LINE
8
BLACK
6
CONTINUOUS
10
0.890839
20
0.491838
11
0.891535
21
0.492126
0
LINE
8
BLACK
6
CONTINUOUS
10
0.891535
20
0.492126
11
1.02382
21
0.492126
0
LINE
8
BLACK
6
CONTINUOUS
10
1.02382
20
0.492126
11
1.02451
21
0.491838
0
LINE
8
BLACK
6
CONTINUOUS
10
1.02451
20
0.491838
11
1.0248
21
0.491142
0
LINE
8
BLACK
6
CONTINUOUS
10
1.0248
20
0.491142
11
1.0248
21
0.416339
0
LINE
8
BLACK
6
CONTINUOUS
10
1.0248
20
0.416339
11
1.02451
21
0.415643
0
LINE
8
BLACK
6
CONTINUOUS
10
1.02451
20
0.415643
11
1.02382
21
0.415354
0
LINE
8
BLACK
6
CONTINUOUS
10
1.02382
20
0.415354
11
0.891535
21
0.415354
0
LINE
8
BLACK
6
CONTINUOUS
10
0.891535
20
0.415354
11
0.890839
21
0.415643
0
LINE
8
BLACK
6
CONTINUOUS
10
0.89252
20
0.490157
11
0.89252
21
0.417323
0
LINE
8
BLACK
6
CONTINUOUS
10
0.89252
20
0.417323
11
1.02283
21
0.417323
0
LINE
8
BLACK
6
CONTINUOUS
10
1.02283
20
0.417323
11
1.02283
21
0.490157
0
LINE
8
BLACK
6
CONTINUOUS
10
1.02283
20
0.490157
11
0.89252
21
0.490157
0
LINE
8
BLACK
6
CONTINUOUS
10
0.720072
20
0.415643
11
0.719783
21
0.416339
0
LINE
8
BLACK
6
CONTINUOUS
10
0.719783
20
0.416339
11
0.719783
21
0.491142
0
LINE
8
BLACK
6
CONTINUOUS
10
0.719783
20
0.491142
11
0.720072
21
0.491838
0
LINE
8
BLACK
6
CONTINUOUS
10
0.720072
20
0.491838
11
0.720768
21
0.492126
0
LINE
8
BLACK
6
CONTINUOUS
10
0.720768
20
0.492126
11
0.853051
21
0.492126
0
LINE
8
BLACK
6
CONTINUOUS
10
0.853051
20
0.492126
11
0.853747
21
0.491838
0
LINE
8
BLACK
6
CONTINUOUS
10
0.853747
20
0.491838
11
0.854035
21
0.491142
0
LINE
8
BLACK
6
CONTINUOUS
10
0.854035
20
0.491142
11
0.854035
21
0.416339
0
LINE
8
BLACK
6
CONTINUOUS
10
0.854035
20
0.416339
11
0.853747
21
0.415643
0
LINE
8
BLACK
6
CONTINUOUS
10
0.853747
20
0.415643
11
0.853051
21
0.415354
0
LINE
8
BLACK
6
CONTINUOUS
10
0.853051
20
0.415354
11
0.720768
21
0.415354
0
LINE
8
BLACK
6
CONTINUOUS
10
0.720768
20
0.415354
11
0.720072
21
0.415643
0
LINE
8
BLACK
6
CONTINUOUS
10
0.721752
20
0.490157
11
0.721752
21
0.417323
0
LINE
8
BLACK
6
CONTINUOUS
10
0.721752
20
0.417323
11
0.852067
21
0.417323
0
LINE
8
BLACK
6
CONTINUOUS
10
0.852067
20
0.417323
11
0.852067
21
0.490157
0
LINE
8
BLACK
6
CONTINUOUS
10
0.852067
20
0.490157
11
0.721752
21
0.490157
0
LINE
8
BLACK
6
CONTINUOUS
10
0.612493
20
0.541627
11
0.612205
21
0.542323
0
LINE
8
BLACK
6
CONTINUOUS
10
0.612205
20
0.542323
11
0.612205
21
0.680118
0
LINE
8
BLACK
6
CONTINUOUS
10
0.612205
20
0.680118
11
0.612493
21
0.680814
0
LINE
8
BLACK
6
CONTINUOUS
10
0.612493
20
0.680814
11
0.613189
21
0.681102
0
LINE
8
BLACK
6
CONTINUOUS
10
0.613189
20
0.681102
11
0.88878
21
0.681102
0
LINE
8
BLACK
6
CONTINUOUS
10
0.88878
20
0.681102
11
0.889476
21
0.680814
0
LINE
8
BLACK
6
CONTINUOUS
10
0.889476
20
0.680814
11
0.889764
21
0.680118
0
LINE
8
BLACK
6
CONTINUOUS
10
0.889764
20
0.680118
11
0.889764
21
0.542323
0
LINE
8
BLACK
6
CONTINUOUS
10
0.889764
20
0.542323
11
0.889476
21
0.541627
0
LINE
8
BLACK
6
CONTINUOUS
10
0.889476
20
0.541627
11
0.88878
21
0.541339
0
LINE
8
BLACK
6
CONTINUOUS
10
0.88878
20
0.541339
11
0.613189
21
0.541339
0
LINE
8
BLACK
6
CONTINUOUS
10
0.613189
20
0.541339
11
0.612493
21
0.541627
0
LINE
8
BLACK
6
CONTINUOUS
10
0.614173
20
0.679134
11
0.614173
21
0.543307
0
LINE
8
BLACK
6
CONTINUOUS
10
0.614173
20
0.543307
11
0.887795
21
0.543307
0
LINE
8
BLACK
6
CONTINUOUS
10
0.887795
20
0.543307
11
0.887795
21
0.679134
0
LINE
8
BLACK
6
CONTINUOUS
10
0.887795
20
0.679134
11
0.614173
21
0.679134
0
LINE
8
BLACK
6
CONTINUOUS
10
0.910524
20
0.573123
11
0.910236
21
0.573819
0
LINE
8
BLACK
6
CONTINUOUS
10
0.910236
20
0.573819
11
0.910236
21
0.648622
0
LINE
8
BLACK
6
CONTINUOUS
10
0.910236
20
0.648622
11
0.910524
21
0.649318
0
LINE
8
BLACK
6
CONTINUOUS
10
0.910524
20
0.649318
11
0.91122
21
0.649606
0
LINE
8
BLACK
6
CONTINUOUS
10
0.91122
20
0.649606
11
1.0435
21
0.649606
0
LINE
8
BLACK
6
CONTINUOUS
10
1.0435
20
0.649606
11
1.0442
21
0.649318
0
LINE
8
BLACK
6
CONTINUOUS
10
1.0442
20
0.649318
11
1.04449
21
0.648622
0
LINE
8
BLACK
6
CONTINUOUS
10
1.04449
20
0.648622
11
1.04449
21
0.573819
0
LINE
8
BLACK
6
CONTINUOUS
10
1.04449
20
0.573819
11
1.0442
21
0.573123
0
LINE
8
BLACK
6
CONTINUOUS
10
1.0442
20
0.573123
11
1.0435
21
0.572835
0
LINE
8
BLACK
6
CONTINUOUS
10
1.0435
20
0.572835
11
0.91122
21
0.572835
0
LINE
8
BLACK
6
CONTINUOUS
10
0.91122
20
0.572835
11
0.910524
21
0.573123
0
LINE
8
BLACK
6
CONTINUOUS
10
0.912205
20
0.647638
11
0.912205
21
0.574803
0
LINE
8
BLACK
6
CONTINUOUS
10
0.912205
20
0.574803
11
1.04252
21
0.574803
0
LINE
8
BLACK
6
CONTINUOUS
10
1.04252
20
0.574803
11
1.04252
21
0.647638
0
LINE
8
BLACK
6
CONTINUOUS
10
1.04252
20
0.647638
11
0.912205
21
0.647638
0
LINE
8
BLACK
6
CONTINUOUS
10
0.278832
20
1.00127
11
0.278543
21
1.00197
0
LINE
8
BLACK
6
CONTINUOUS
10
0.278543
20
1.00197
11
0.278543
21
1.25787
0
LINE
8
BLACK
6
CONTINUOUS
10
0.278543
20
1.25787
11
0.278832
21
1.25857
0
LINE
8
BLACK
6
CONTINUOUS
10
0.278832
20
1.25857
11
0.279528
21
1.25886
0
LINE
8
BLACK
6
CONTINUOUS
10
0.279528
20
1.25886
11
0.555118
21
1.25886
0
LINE
8
BLACK
6
CONTINUOUS
10
0.555118
20
1.25886
11
0.555814
21
1.25857
0
LINE
8
BLACK
6
CONTINUOUS
10
0.555814
20
1.25857
11
0.556102
21
1.25787
0
LINE
8
BLACK
6
CONTINUOUS
10
0.556102
20
1.25787
11
0.556102
21
1.00197
0
LINE
8
BLACK
6
CONTINUOUS
10
0.556102
20
1.00197
11
0.555814
21
1.00127
0
LINE
8
BLACK
6
CONTINUOUS
10
0.555814
20
1.00127
11
0.555118
21
1.00098
0
LINE
8
BLACK
6
CONTINUOUS
10
0.555118
20
1.00098
11
0.279528
21
1.00098
0
LINE
8
BLACK
6
CONTINUOUS
10
0.279528
20
1.00098
11
0.278832
21
1.00127
0
LINE
8
BLACK
6
CONTINUOUS
10
0.280512
20
1.25689
11
0.280512
21
1.00295
0
LINE
8
BLACK
6
CONTINUOUS
10
0.280512
20
1.00295
11
0.554134
21
1.00295
0
LINE
8
BLACK
6
CONTINUOUS
10
0.554134
20
1.00295
11
0.554134
21
1.25689
0
LINE
8
BLACK
6
CONTINUOUS
10
0.554134
20
1.25689
11
0.280512
21
1.25689
0
LINE
8
BLACK
6
CONTINUOUS
10
0.0485166
20
1.05836
11
0.0482283
21
1.05906
0
LINE
8
BLACK
6
CONTINUOUS
10
0.0482283
20
1.05906
11
0.0482283
21
1.33465
0
LINE
8
BLACK
6
CONTINUOUS
10
0.0482283
20
1.33465
11
0.0485166
21
1.33534
0
LINE
8
BLACK
6
CONTINUOUS
10
0.0485166
20
1.33534
11
0.0492126
21
1.33563
0
LINE
8
BLACK
6
CONTINUOUS
10
0.0492126
20
1.33563
11
0.187008
21
1.33563
0
LINE
8
BLACK
6
CONTINUOUS
10
0.187008
20
1.33563
11
0.187704
21
1.33534
0
LINE
8
BLACK
6
CONTINUOUS
10
0.187704
20
1.33534
11
0.187992
21
1.33465
0
LINE
8
BLACK
6
CONTINUOUS
10
0.187992
20
1.33465
11
0.187992
21
1.05906
0
LINE
8
BLACK
6
CONTINUOUS
10
0.187992
20
1.05906
11
0.187704
21
1.05836
0
LINE
8
BLACK
6
CONTINUOUS
10
0.187704
20
1.05836
11
0.187008
21
1.05807
0
LINE
8
BLACK
6
CONTINUOUS
10
0.187008
20
1.05807
11
0.0492126
21
1.05807
0
LINE
8
BLACK
6
CONTINUOUS
10
0.0492126
20
1.05807
11
0.0485166
21
1.05836
0
LINE
8
BLACK
6
CONTINUOUS
10
0.0501969
20
1.33366
11
0.0501969
21
1.06004
0
LINE
8
BLACK
6
CONTINUOUS
10
0.0501969
20
1.06004
11
0.186024
21
1.06004
0
LINE
8
BLACK
6
CONTINUOUS
10
0.186024
20
1.06004
11
0.186024
21
1.33366
0
LINE
8
BLACK
6
CONTINUOUS
10
0.186024
20
1.33366
11
0.0501969
21
1.33366
0
LINE
8
BLACK
6
CONTINUOUS
10
0.572139
20
1.12362
11
0.57185
21
1.12431
0
LINE
8
BLACK
6
CONTINUOUS
10
0.57185
20
1.12431
11
0.57185
21
1.25659
0
LINE
8
BLACK
6
CONTINUOUS
10
0.57185
20
1.25659
11
0.572139
21
1.25729
0
LINE
8
BLACK
6
CONTINUOUS
10
0.572139
20
1.25729
11
0.572835
21
1.25758
0
LINE
8
BLACK
6
CONTINUOUS
10
0.572835
20
1.25758
11
0.647638
21
1.25758
0
LINE
8
BLACK
6
CONTINUOUS
10
0.647638
20
1.25758
11
0.648334
21
1.25729
0
LINE
8
BLACK
6
CONTINUOUS
10
0.648334
20
1.25729
11
0.648622
21
1.25659
0
LINE
8
BLACK
6
CONTINUOUS
10
0.648622
20
1.25659
11
0.648622
21
1.12431
0
LINE
8
BLACK
6
CONTINUOUS
10
0.648622
20
1.12431
11
0.648334
21
1.12362
0
LINE
8
BLACK
6
CONTINUOUS
10
0.648334
20
1.12362
11
0.647638
21
1.12333
0
LINE
8
BLACK
6
CONTINUOUS
10
0.647638
20
1.12333
11
0.572835
21
1.12333
0
LINE
8
BLACK
6
CONTINUOUS
10
0.572835
20
1.12333
11
0.572139
21
1.12362
0
LINE
8
BLACK
6
CONTINUOUS
10
0.573819
20
1.25561
11
0.573819
21
1.1253
0
LINE
8
BLACK
6
CONTINUOUS
10
0.573819
20
1.1253
11
0.646654
21
1.1253
0
LINE
8
BLACK
6
CONTINUOUS
10
0.646654
20
1.1253
11
0.646654
21
1.25561
0
LINE
8
BLACK
6
CONTINUOUS
10
0.646654
20
1.25561
11
0.573819
21
1.25561
0
LINE
8
BLACK
6
CONTINUOUS
10
-0.0380976
20
1.20236
11
-0.0383858
21
1.20305
0
LINE
8
BLACK
6
CONTINUOUS
10
-0.0383858
20
1.20305
11
-0.0383858
21
1.33533
0
LINE
8
BLACK
6
CONTINUOUS
10
-0.0383858
20
1.33533
11
-0.0380976
21
1.33603
0
LINE
8
BLACK
6
CONTINUOUS
10
-0.0380976
20
1.33603
11
-0.0374016
21
1.33632
0
LINE
8
BLACK
6
CONTINUOUS
10
-0.0374016
20
1.33632
11
0.0374016
21
1.33632
0
LINE
8
BLACK
6
CONTINUOUS
10
0.0374016
20
1.33632
11
0.0380976
21
1.33603
0
LINE
8
BLACK
6
CONTINUOUS
10
0.0380976
20
1.33603
11
0.0383858
21
1.33533
0
LINE
8
BLACK
6
CONTINUOUS
10
0.0383858
20
1.33533
11
0.0383858
21
1.20305
0
LINE
8
BLACK
6
CONTINUOUS
10
0.0383858
20
1.20305
11
0.0380976
21
1.20236
0
LINE
8
BLACK
6
CONTINUOUS
10
0.0380976
20
1.20236
11
0.0374016
21
1.20207
0
LINE
8
BLACK
6
CONTINUOUS
10
0.0374016
20
1.20207
11
-0.0374016
21
1.20207
0
LINE
8
BLACK
6
CONTINUOUS
10
-0.0374016
20
1.20207
11
-0.0380976
21
1.20236
0
LINE
8
BLACK
6
CONTINUOUS
10
-0.0364173
20
1.33435
11
-0.0364173
21
1.20404
0
LINE
8
BLACK
6
CONTINUOUS
10
-0.0364173
20
1.20404
11
0.0364173
21
1.20404
0
LINE
8
BLACK
6
CONTINUOUS
10
0.0364173
20
1.20404
11
0.0364173
21
1.33435
0
LINE
8
BLACK
6
CONTINUOUS
10
0.0364173
20
1.33435
11
-0.0364173
21
1.33435
0
LINE
8
BLACK
6
CONTINUOUS
10
0.190249
20
1.24812
11
0.189961
21
1.24882
0
LINE
8
BLACK
6
CONTINUOUS
10
0.189961
20
1.24882
11
0.189961
21
1.3811
0
LINE
8
BLACK
6
CONTINUOUS
10
0.189961
20
1.3811
11
0.189981
21
1.38115
0
LINE
8
BLACK
6
CONTINUOUS
10
0.189981
20
1.38115
11
0.189961
21
1.3812
0
LINE
8
BLACK
6
CONTINUOUS
10
0.189961
20
1.3812
11
0.189961
21
1.51348
0
LINE
8
BLACK
6
CONTINUOUS
10
0.189961
20
1.51348
11
0.190249
21
1.51418
0
LINE
8
BLACK
6
CONTINUOUS
10
0.190249
20
1.51418
11
0.190945
21
1.51447
0
LINE
8
BLACK
6
CONTINUOUS
10
0.190945
20
1.51447
11
0.265748
21
1.51447
0
LINE
8
BLACK
6
CONTINUOUS
10
0.265748
20
1.51447
11
0.266444
21
1.51418
0
LINE
8
BLACK
6
CONTINUOUS
10
0.266444
20
1.51418
11
0.266732
21
1.51348
0
LINE
8
BLACK
6
CONTINUOUS
10
0.266732
20
1.51348
11
0.266732
21
1.3812
0
LINE
8
BLACK
6
CONTINUOUS
10
0.266732
20
1.3812
11
0.266712
21
1.38115
0
LINE
8
BLACK
6
CONTINUOUS
10
0.266712
20
1.38115
11
0.266732
21
1.3811
0
LINE
8
BLACK
6
CONTINUOUS
10
0.266732
20
1.3811
11
0.266732
21
1.24882
0
LINE
8
BLACK
6
CONTINUOUS
10
0.266732
20
1.24882
11
0.266444
21
1.24812
0
LINE
8
BLACK
6
CONTINUOUS
10
0.266444
20
1.24812
11
0.265748
21
1.24783
0
LINE
8
BLACK
6
CONTINUOUS
10
0.265748
20
1.24783
11
0.190945
21
1.24783
0
LINE
8
BLACK
6
CONTINUOUS
10
0.190945
20
1.24783
11
0.190249
21
1.24812
0
LINE
8
BLACK
6
CONTINUOUS
10
0.191929
20
1.38012
11
0.191929
21
1.2498
0
LINE
8
BLACK
6
CONTINUOUS
10
0.191929
20
1.2498
11
0.264764
21
1.2498
0
LINE
8
BLACK
6
CONTINUOUS
10
0.264764
20
1.2498
11
0.264764
21
1.38012
0
LINE
8
BLACK
6
CONTINUOUS
10
0.264764
20
1.38012
11
0.191929
21
1.38012
0
LINE
8
BLACK
6
CONTINUOUS
10
0.191929
20
1.5125
11
0.191929
21
1.38219
0
LINE
8
BLACK
6
CONTINUOUS
10
0.191929
20
1.38219
11
0.264764
21
1.38219
0
LINE
8
BLACK
6
CONTINUOUS
10
0.264764
20
1.38219
11
0.264764
21
1.5125
0
LINE
8
BLACK
6
CONTINUOUS
10
0.264764
20
1.5125
11
0.191929
21
1.5125
0
LINE
8
BLACK
6
CONTINUOUS
10
0.402861
20
1.27701
11
0.402572
21
1.2777
0
LINE
8
BLACK
6
CONTINUOUS
10
0.402572
20
1.2777
11
0.402572
21
1.44857
0
LINE
8
BLACK
6
CONTINUOUS
10
0.402572
20
1.44857
11
0.402861
21
1.44926
0
LINE
8
BLACK
6
CONTINUOUS
10
0.402861
20
1.44926
11
0.403557
21
1.44955
0
LINE
8
BLACK
6
CONTINUOUS
10
0.403557
20
1.44955
11
0.537415
21
1.44955
0
LINE
8
BLACK
6
CONTINUOUS
10
0.537415
20
1.44955
11
0.538111
21
1.44926
0
LINE
8
BLACK
6
CONTINUOUS
10
0.538111
20
1.44926
11
0.538399
21
1.44857
0
LINE
8
BLACK
6
CONTINUOUS
10
0.538399
20
1.44857
11
0.538399
21
1.2777
0
LINE
8
BLACK
6
CONTINUOUS
10
0.538399
20
1.2777
11
0.538111
21
1.27701
0
LINE
8
BLACK
6
CONTINUOUS
10
0.538111
20
1.27701
11
0.537415
21
1.27672
0
LINE
8
BLACK
6
CONTINUOUS
10
0.537415
20
1.27672
11
0.403557
21
1.27672
0
LINE
8
BLACK
6
CONTINUOUS
10
0.403557
20
1.27672
11
0.402861
21
1.27701
0
LINE
8
BLACK
6
CONTINUOUS
10
0.404541
20
1.44758
11
0.404541
21
1.27869
0
LINE
8
BLACK
6
CONTINUOUS
10
0.404541
20
1.27869
11
0.536431
21
1.27869
0
LINE
8
BLACK
6
CONTINUOUS
10
0.536431
20
1.27869
11
0.536431
21
1.44758
0
LINE
8
BLACK
6
CONTINUOUS
10
0.536431
20
1.44758
11
0.404541
21
1.44758
0
LINE
8
BLACK
6
CONTINUOUS
10
0.0563906
20
1.34015
11
0.0561024
21
1.34085
0
LINE
8
BLACK
6
CONTINUOUS
10
0.0561024
20
1.34085
11
0.0561024
21
1.47313
0
LINE
8
BLACK
6
CONTINUOUS
10
0.0561024
20
1.47313
11
0.0563906
21
1.47383
0
LINE
8
BLACK
6
CONTINUOUS
10
0.0563906
20
1.47383
11
0.0570866
21
1.47411
0
LINE
8
BLACK
6
CONTINUOUS
10
0.0570866
20
1.47411
11
0.13189
21
1.47411
0
LINE
8
BLACK
6
CONTINUOUS
10
0.13189
20
1.47411
11
0.132586
21
1.47383
0
LINE
8
BLACK
6
CONTINUOUS
10
0.132586
20
1.47383
11
0.132874
21
1.47313
0
LINE
8
BLACK
6
CONTINUOUS
10
0.132874
20
1.47313
11
0.132874
21
1.34085
0
LINE
8
BLACK
6
CONTINUOUS
10
0.132874
20
1.34085
11
0.132586
21
1.34015
0
LINE
8
BLACK
6
CONTINUOUS
10
0.132586
20
1.34015
11
0.13189
21
1.33986
0
LINE
8
BLACK
6
CONTINUOUS
10
0.13189
20
1.33986
11
0.0570866
21
1.33986
0
LINE
8
BLACK
6
CONTINUOUS
10
0.0570866
20
1.33986
11
0.0563906
21
1.34015
0
LINE
8
BLACK
6
CONTINUOUS
10
0.0580709
20
1.47215
11
0.0580709
21
1.34183
0
LINE
8
BLACK
6
CONTINUOUS
10
0.0580709
20
1.34183
11
0.130906
21
1.34183
0
LINE
8
BLACK
6
CONTINUOUS
10
0.130906
20
1.34183
11
0.130906
21
1.47215
0
LINE
8
BLACK
6
CONTINUOUS
10
0.130906
20
1.47215
11
0.0580709
21
1.47215
0
LINE
8
BLACK
6
CONTINUOUS
10
-0.0380976
20
1.34261
11
-0.0383858
21
1.34331
0
LINE
8
BLACK
6
CONTINUOUS
10
-0.0383858
20
1.34331
11
-0.0383858
21
1.47559
0
LINE
8
BLACK
6
CONTINUOUS
10
-0.0383858
20
1.47559
11
-0.0380976
21
1.47629
0
LINE
8
BLACK
6
CONTINUOUS
10
-0.0380976
20
1.47629
11
-0.0374016
21
1.47657
0
LINE
8
BLACK
6
CONTINUOUS
10
-0.0374016
20
1.47657
11
0.0374016
21
1.47657
0
LINE
8
BLACK
6
CONTINUOUS
10
0.0374016
20
1.47657
11
0.0380976
21
1.47629
0
LINE
8
BLACK
6
CONTINUOUS
10
0.0380976
20
1.47629
11
0.0383858
21
1.47559
0
LINE
8
BLACK
6
CONTINUOUS
10
0.0383858
20
1.47559
11
0.0383858
21
1.34331
0
LINE
8
BLACK
6
CONTINUOUS
10
0.0383858
20
1.34331
11
0.0380976
21
1.34261
0
LINE
8
BLACK
6
CONTINUOUS
10
0.0380976
20
1.34261
11
0.0374016
21
1.34232
0
LINE
8
BLACK
6
CONTINUOUS
10
0.0374016
20
1.34232
11
-0.0374016
21
1.34232
0
LINE
8
BLACK
6
CONTINUOUS
10
-0.0374016
20
1.34232
11
-0.0380976
21
1.34261
0
LINE
8
BLACK
6
CONTINUOUS
10
-0.0364173
20
1.47461
11
-0.0364173
21
1.34429
0
LINE
8
BLACK
6
CONTINUOUS
10
-0.0364173
20
1.34429
11
0.0364173
21
1.34429
0
LINE
8
BLACK
6
CONTINUOUS
10
0.0364173
20
1.34429
11
0.0364173
21
1.47461
0
LINE
8
BLACK
6
CONTINUOUS
10
0.0364173
20
1.47461
11
-0.0364173
21
1.47461
0
LINE
8
BLACK
6
CONTINUOUS
10
1.32883
20
1.36938
11
1.32854
21
1.37008
0
LINE
8
BLACK
6
CONTINUOUS
10
1.32854
20
1.37008
11
1.32854
21
1.50394
0
LINE
8
BLACK
6
CONTINUOUS
10
1.32854
20
1.50394
11
1.32883
21
1.50463
0
LINE
8
BLACK
6
CONTINUOUS
10
1.32883
20
1.50463
11
1.32953
21
1.50492
0
LINE
8
BLACK
6
CONTINUOUS
10
1.32953
20
1.50492
11
1.40669
21
1.50492
0
LINE
8
BLACK
6
CONTINUOUS
10
1.40669
20
1.50492
11
1.40739
21
1.50463
0
LINE
8
BLACK
6
CONTINUOUS
10
1.40739
20
1.50463
11
1.40768
21
1.50394
0
LINE
8
BLACK
6
CONTINUOUS
10
1.40768
20
1.50394
11
1.40768
21
1.37008
0
LINE
8
BLACK
6
CONTINUOUS
10
1.40768
20
1.37008
11
1.40739
21
1.36938
0
LINE
8
BLACK
6
CONTINUOUS
10
1.40739
20
1.36938
11
1.40669
21
1.36909
0
LINE
8
BLACK
6
CONTINUOUS
10
1.40669
20
1.36909
11
1.32953
21
1.36909
0
LINE
8
BLACK
6
CONTINUOUS
10
1.32953
20
1.36909
11
1.32883
21
1.36938
0
LINE
8
BLACK
6
CONTINUOUS
10
1.33051
20
1.50295
11
1.33051
21
1.37106
0
LINE
8
BLACK
6
CONTINUOUS
10
1.33051
20
1.37106
11
1.40571
21
1.37106
0
LINE
8
BLACK
6
CONTINUOUS
10
1.40571
20
1.37106
11
1.40571
21
1.50295
0
LINE
8
BLACK
6
CONTINUOUS
10
1.40571
20
1.50295
11
1.33051
21
1.50295
0
LINE
8
BLACK
6
CONTINUOUS
10
1.21072
20
1.36938
11
1.21043
21
1.37008
0
LINE
8
BLACK
6
CONTINUOUS
10
1.21043
20
1.37008
11
1.21043
21
1.50394
0
LINE
8
BLACK
6
CONTINUOUS
10
1.21043
20
1.50394
11
1.21072
21
1.50463
0
LINE
8
BLACK
6
CONTINUOUS
10
1.21072
20
1.50463
11
1.21142
21
1.50492
0
LINE
8
BLACK
6
CONTINUOUS
10
1.21142
20
1.50492
11
1.28858
21
1.50492
0
LINE
8
BLACK
6
CONTINUOUS
10
1.28858
20
1.50492
11
1.28928
21
1.50463
0
LINE
8
BLACK
6
CONTINUOUS
10
1.28928
20
1.50463
11
1.28957
21
1.50394
0
LINE
8
BLACK
6
CONTINUOUS
10
1.28957
20
1.50394
11
1.28957
21
1.37008
0
LINE
8
BLACK
6
CONTINUOUS
10
1.28957
20
1.37008
11
1.28928
21
1.36938
0
LINE
8
BLACK
6
CONTINUOUS
10
1.28928
20
1.36938
11
1.28858
21
1.36909
0
LINE
8
BLACK
6
CONTINUOUS
10
1.28858
20
1.36909
11
1.21142
21
1.36909
0
LINE
8
BLACK
6
CONTINUOUS
10
1.21142
20
1.36909
11
1.21072
21
1.36938
0
LINE
8
BLACK
6
CONTINUOUS
10
1.2124
20
1.50295
11
1.2124
21
1.37106
0
LINE
8
BLACK
6
CONTINUOUS
10
1.2124
20
1.37106
11
1.2876
21
1.37106
0
LINE
8
BLACK
6
CONTINUOUS
10
1.2876
20
1.37106
11
1.2876
21
1.50295
0
LINE
8
BLACK
6
CONTINUOUS
10
1.2876
20
1.50295
11
1.2124
21
1.50295
0
LINE
8
BLACK
6
CONTINUOUS
10
1.14891
20
1.52686
11
1.14862
21
1.52756
0
LINE
8
BLACK
6
CONTINUOUS
10
1.14862
20
1.52756
11
1.14862
21
1.68898
0
LINE
8
BLACK
6
CONTINUOUS
10
1.14862
20
1.68898
11
1.14891
21
1.68967
0
LINE
8
BLACK
6
CONTINUOUS
10
1.14891
20
1.68967
11
1.14961
21
1.68996
0
LINE
8
BLACK
6
CONTINUOUS
10
1.14961
20
1.68996
11
1.28346
21
1.68996
0
LINE
8
BLACK
6
CONTINUOUS
10
1.28346
20
1.68996
11
1.28416
21
1.68967
0
LINE
8
BLACK
6
CONTINUOUS
10
1.28416
20
1.68967
11
1.28445
21
1.68898
0
LINE
8
BLACK
6
CONTINUOUS
10
1.28445
20
1.68898
11
1.28445
21
1.52756
0
LINE
8
BLACK
6
CONTINUOUS
10
1.28445
20
1.52756
11
1.28416
21
1.52686
0
LINE
8
BLACK
6
CONTINUOUS
10
1.28416
20
1.52686
11
1.28346
21
1.52657
0
LINE
8
BLACK
6
CONTINUOUS
10
1.28346
20
1.52657
11
1.14961
21
1.52657
0
LINE
8
BLACK
6
CONTINUOUS
10
1.14961
20
1.52657
11
1.14891
21
1.52686
0
LINE
8
BLACK
6
CONTINUOUS
10
1.15059
20
1.68799
11
1.15059
21
1.52854
0
LINE
8
BLACK
6
CONTINUOUS
10
1.15059
20
1.52854
11
1.28248
21
1.52854
0
LINE
8
BLACK
6
CONTINUOUS
10
1.28248
20
1.52854
11
1.28248
21
1.68799
0
LINE
8
BLACK
6
CONTINUOUS
10
1.28248
20
1.68799
11
1.15059
21
1.68799
0
LINE
8
BLACK
6
CONTINUOUS
10
0.691036
20
1.53671
11
0.690748
21
1.5374
0
LINE
8
BLACK
6
CONTINUOUS
10
0.690748
20
1.5374
11
0.690748
21
1.67126
0
LINE
8
BLACK
6
CONTINUOUS
10
0.690748
20
1.67126
11
0.691036
21
1.67196
0
LINE
8
BLACK
6
CONTINUOUS
10
0.691036
20
1.67196
11
0.691732
21
1.67224
0
LINE
8
BLACK
6
CONTINUOUS
10
0.691732
20
1.67224
11
0.768898
21
1.67224
0
LINE
8
BLACK
6
CONTINUOUS
10
0.768898
20
1.67224
11
0.769594
21
1.67196
0
LINE
8
BLACK
6
CONTINUOUS
10
0.769594
20
1.67196
11
0.769882
21
1.67126
0
LINE
8
BLACK
6
CONTINUOUS
10
0.769882
20
1.67126
11
0.769882
21
1.5374
0
LINE
8
BLACK
6
CONTINUOUS
10
0.769882
20
1.5374
11
0.769594
21
1.53671
0
LINE
8
BLACK
6
CONTINUOUS
10
0.769594
20
1.53671
11
0.768898
21
1.53642
0
LINE
8
BLACK
6
CONTINUOUS
10
0.768898
20
1.53642
11
0.691732
21
1.53642
0
LINE
8
BLACK
6
CONTINUOUS
10
0.691732
20
1.53642
11
0.691036
21
1.53671
0
LINE
8
BLACK
6
CONTINUOUS
10
0.692717
20
1.67028
11
0.692717
21
1.53839
0
LINE
8
BLACK
6
CONTINUOUS
10
0.692717
20
1.53839
11
0.767913
21
1.53839
0
LINE
8
BLACK
6
CONTINUOUS
10
0.767913
20
1.53839
11
0.767913
21
1.67028
0
LINE
8
BLACK
6
CONTINUOUS
10
0.767913
20
1.67028
11
0.692717
21
1.67028
0
LINE
8
BLACK
6
CONTINUOUS
10
0.808359
20
1.53867
11
0.808071
21
1.53937
0
LINE
8
BLACK
6
CONTINUOUS
10
0.808071
20
1.53937
11
0.808071
21
1.67323
0
LINE
8
BLACK
6
CONTINUOUS
10
0.808071
20
1.67323
11
0.808359
21
1.67392
0
LINE
8
BLACK
6
CONTINUOUS
10
0.808359
20
1.67392
11
0.809055
21
1.67421
0
LINE
8
BLACK
6
CONTINUOUS
10
0.809055
20
1.67421
11
0.970472
21
1.67421
0
LINE
8
BLACK
6
CONTINUOUS
10
0.970472
20
1.67421
11
0.971168
21
1.67392
0
LINE
8
BLACK
6
CONTINUOUS
10
0.971168
20
1.67392
11
0.971457
21
1.67323
0
LINE
8
BLACK
6
CONTINUOUS
10
0.971457
20
1.67323
11
0.971457
21
1.53937
0
LINE
8
BLACK
6
CONTINUOUS
10
0.971457
20
1.53937
11
0.971168
21
1.53867
0
LINE
8
BLACK
6
CONTINUOUS
10
0.971168
20
1.53867
11
0.970472
21
1.53839
0
LINE
8
BLACK
6
CONTINUOUS
10
0.970472
20
1.53839
11
0.809055
21
1.53839
0
LINE
8
BLACK
6
CONTINUOUS
10
0.809055
20
1.53839
11
0.808359
21
1.53867
0
LINE
8
BLACK
6
CONTINUOUS
10
0.810039
20
1.67224
11
0.810039
21
1.54035
0
LINE
8
BLACK
6
CONTINUOUS
10
0.810039
20
1.54035
11
0.969488
21
1.54035
0
LINE
8
BLACK
6
CONTINUOUS
10
0.969488
20
1.54035
11
0.969488
21
1.67224
0
LINE
8
BLACK
6
CONTINUOUS
10
0.969488
20
1.67224
11
0.810039
21
1.67224
0
LINE
8
BLACK
6
CONTINUOUS
10
0.99143
20
1.5434
11
0.991142
21
1.54409
0
LINE
8
BLACK
6
CONTINUOUS
10
0.991142
20
1.54409
11
0.991142
21
1.67638
0
LINE
8
BLACK
6
CONTINUOUS
10
0.991142
20
1.67638
11
0.99143
21
1.67707
0
LINE
8
BLACK
6
CONTINUOUS
10
0.99143
20
1.67707
11
0.992126
21
1.67736
0
LINE
8
BLACK
6
CONTINUOUS
10
0.992126
20
1.67736
11
1.06693
21
1.67736
0
LINE
8
BLACK
6
CONTINUOUS
10
1.06693
20
1.67736
11
1.06763
21
1.67707
0
LINE
8
BLACK
6
CONTINUOUS
10
1.06763
20
1.67707
11
1.06791
21
1.67638
0
LINE
8
BLACK
6
CONTINUOUS
10
1.06791
20
1.67638
11
1.06791
21
1.54409
0
LINE
8
BLACK
6
CONTINUOUS
10
1.06791
20
1.54409
11
1.06763
21
1.5434
0
LINE
8
BLACK
6
CONTINUOUS
10
1.06763
20
1.5434
11
1.06693
21
1.54311
0
LINE
8
BLACK
6
CONTINUOUS
10
1.06693
20
1.54311
11
0.992126
21
1.54311
0
LINE
8
BLACK
6
CONTINUOUS
10
0.992126
20
1.54311
11
0.99143
21
1.5434
0
LINE
8
BLACK
6
CONTINUOUS
10
0.99311
20
1.67539
11
0.99311
21
1.54508
0
LINE
8
BLACK
6
CONTINUOUS
10
0.99311
20
1.54508
11
1.06594
21
1.54508
0
LINE
8
BLACK
6
CONTINUOUS
10
1.06594
20
1.54508
11
1.06594
21
1.67539
0
LINE
8
BLACK
6
CONTINUOUS
10
1.06594
20
1.67539
11
0.99311
21
1.67539
0
LINE
8
BLACK
6
CONTINUOUS
10
1.46584
20
1.57342
11
1.46555
21
1.57411
0
LINE
8
BLACK
6
CONTINUOUS
10
1.46555
20
1.57411
11
1.46555
21
1.7064
0
LINE
8
BLACK
6
CONTINUOUS
10
1.46555
20
1.7064
11
1.46584
21
1.70709
0
LINE
8
BLACK
6
CONTINUOUS
10
1.46584
20
1.70709
11
1.46654
21
1.70738
0
LINE
8
BLACK
6
CONTINUOUS
10
1.46654
20
1.70738
11
1.54134
21
1.70738
0
LINE
8
BLACK
6
CONTINUOUS
10
1.54134
20
1.70738
11
1.54203
21
1.70709
0
LINE
8
BLACK
6
CONTINUOUS
10
1.54203
20
1.70709
11
1.54232
21
1.7064
0
LINE
8
BLACK
6
CONTINUOUS
10
1.54232
20
1.7064
11
1.54232
21
1.57411
0
LINE
8
BLACK
6
CONTINUOUS
10
1.54232
20
1.57411
11
1.54203
21
1.57342
0
LINE
8
BLACK
6
CONTINUOUS
10
1.54203
20
1.57342
11
1.54134
21
1.57313
0
LINE
8
BLACK
6
CONTINUOUS
10
1.54134
20
1.57313
11
1.46654
21
1.57313
0
LINE
8
BLACK
6
CONTINUOUS
10
1.46654
20
1.57313
11
1.46584
21
1.57342
0
LINE
8
BLACK
6
CONTINUOUS
10
1.46752
20
1.70541
11
1.46752
21
1.5751
0
LINE
8
BLACK
6
CONTINUOUS
10
1.46752
20
1.5751
11
1.54035
21
1.5751
0
LINE
8
BLACK
6
CONTINUOUS
10
1.54035
20
1.5751
11
1.54035
21
1.70541
0
LINE
8
BLACK
6
CONTINUOUS
10
1.54035
20
1.70541
11
1.46752
21
1.70541
0
LINE
8
BLACK
6
CONTINUOUS
10
1.63513
20
1.57489
11
1.63484
21
1.57559
0
LINE
8
BLACK
6
CONTINUOUS
10
1.63484
20
1.57559
11
1.63484
21
1.70787
0
LINE
8
BLACK
6
CONTINUOUS
10
1.63484
20
1.70787
11
1.63513
21
1.70857
0
LINE
8
BLACK
6
CONTINUOUS
10
1.63513
20
1.70857
11
1.63583
21
1.70886
0
LINE
8
BLACK
6
CONTINUOUS
10
1.63583
20
1.70886
11
1.71063
21
1.70886
0
LINE
8
BLACK
6
CONTINUOUS
10
1.71063
20
1.70886
11
1.71133
21
1.70857
0
LINE
8
BLACK
6
CONTINUOUS
10
1.71133
20
1.70857
11
1.71161
21
1.70787
0
LINE
8
BLACK
6
CONTINUOUS
10
1.71161
20
1.70787
11
1.71161
21
1.57559
0
LINE
8
BLACK
6
CONTINUOUS
10
1.71161
20
1.57559
11
1.71133
21
1.57489
0
LINE
8
BLACK
6
CONTINUOUS
10
1.71133
20
1.57489
11
1.71063
21
1.57461
0
LINE
8
BLACK
6
CONTINUOUS
10
1.71063
20
1.57461
11
1.63583
21
1.57461
0
LINE
8
BLACK
6
CONTINUOUS
10
1.63583
20
1.57461
11
1.63513
21
1.57489
0
LINE
8
BLACK
6
CONTINUOUS
10
1.63681
20
1.70689
11
1.63681
21
1.57657
0
LINE
8
BLACK
6
CONTINUOUS
10
1.63681
20
1.57657
11
1.70965
21
1.57657
0
LINE
8
BLACK
6
CONTINUOUS
10
1.70965
20
1.57657
11
1.70965
21
1.70689
0
LINE
8
BLACK
6
CONTINUOUS
10
1.70965
20
1.70689
11
1.63681
21
1.70689
0
LINE
8
BLACK
6
CONTINUOUS
10
1.46584
20
1.70875
11
1.46555
21
1.70945
0
LINE
8
BLACK
6
CONTINUOUS
10
1.46555
20
1.70945
11
1.46555
21
1.84173
0
LINE
8
BLACK
6
CONTINUOUS
10
1.46555
20
1.84173
11
1.46584
21
1.84243
0
LINE
8
BLACK
6
CONTINUOUS
10
1.46584
20
1.84243
11
1.46654
21
1.84272
0
LINE
8
BLACK
6
CONTINUOUS
10
1.46654
20
1.84272
11
1.54134
21
1.84272
0
LINE
8
BLACK
6
CONTINUOUS
10
1.54134
20
1.84272
11
1.54203
21
1.84243
0
LINE
8
BLACK
6
CONTINUOUS
10
1.54203
20
1.84243
11
1.54232
21
1.84173
0
LINE
8
BLACK
6
CONTINUOUS
10
1.54232
20
1.84173
11
1.54232
21
1.70945
0
LINE
8
BLACK
6
CONTINUOUS
10
1.54232
20
1.70945
11
1.54203
21
1.70875
0
LINE
8
BLACK
6
CONTINUOUS
10
1.54203
20
1.70875
11
1.54134
21
1.70846
0
LINE
8
BLACK
6
CONTINUOUS
10
1.54134
20
1.70846
11
1.46654
21
1.70846
0
LINE
8
BLACK
6
CONTINUOUS
10
1.46654
20
1.70846
11
1.46584
21
1.70875
0
LINE
8
BLACK
6
CONTINUOUS
10
1.46752
20
1.84075
11
1.46752
21
1.71043
0
LINE
8
BLACK
6
CONTINUOUS
10
1.46752
20
1.71043
11
1.54035
21
1.71043
0
LINE
8
BLACK
6
CONTINUOUS
10
1.54035
20
1.71043
11
1.54035
21
1.84075
0
LINE
8
BLACK
6
CONTINUOUS
10
1.54035
20
1.84075
11
1.46752
21
1.84075
0
LINE
8
BLACK
6
CONTINUOUS
10
1.63513
20
1.71023
11
1.63484
21
1.71093
0
LINE
8
BLACK
6
CONTINUOUS
10
1.63484
20
1.71093
11
1.63484
21
1.84321
0
LINE
8
BLACK
6
CONTINUOUS
10
1.63484
20
1.84321
11
1.63513
21
1.8439
0
LINE
8
BLACK
6
CONTINUOUS
10
1.63513
20
1.8439
11
1.63583
21
1.84419
0
LINE
8
BLACK
6
CONTINUOUS
10
1.63583
20
1.84419
11
1.71063
21
1.84419
0
LINE
8
BLACK
6
CONTINUOUS
10
1.71063
20
1.84419
11
1.71133
21
1.8439
0
LINE
8
BLACK
6
CONTINUOUS
10
1.71133
20
1.8439
11
1.71161
21
1.84321
0
LINE
8
BLACK
6
CONTINUOUS
10
1.71161
20
1.84321
11
1.71161
21
1.71093
0
LINE
8
BLACK
6
CONTINUOUS
10
1.71161
20
1.71093
11
1.71133
21
1.71023
0
LINE
8
BLACK
6
CONTINUOUS
10
1.71133
20
1.71023
11
1.71063
21
1.70994
0
LINE
8
BLACK
6
CONTINUOUS
10
1.71063
20
1.70994
11
1.63583
21
1.70994
0
LINE
8
BLACK
6
CONTINUOUS
10
1.63583
20
1.70994
11
1.63513
21
1.71023
0
LINE
8
BLACK
6
CONTINUOUS
10
1.63681
20
1.84222
11
1.63681
21
1.71191
0
LINE
8
BLACK
6
CONTINUOUS
10
1.63681
20
1.71191
11
1.70965
21
1.71191
0
LINE
8
BLACK
6
CONTINUOUS
10
1.70965
20
1.71191
11
1.70965
21
1.84222
0
LINE
8
BLACK
6
CONTINUOUS
10
1.70965
20
1.84222
11
1.63681
21
1.84222
0
LINE
8
BLACK
6
CONTINUOUS
10
0.985524
20
1.71269
11
0.985236
21
1.71339
0
LINE
8
BLACK
6
CONTINUOUS
10
0.985236
20
1.71339
11
0.985236
21
1.79055
0
LINE
8
BLACK
6
CONTINUOUS
10
0.985236
20
1.79055
11
0.985524
21
1.79125
0
LINE
8
BLACK
6
CONTINUOUS
10
0.985524
20
1.79125
11
0.98622
21
1.79154
0
LINE
8
BLACK
6
CONTINUOUS
10
0.98622
20
1.79154
11
1.12008
21
1.79154
0
LINE
8
BLACK
6
CONTINUOUS
10
1.12008
20
1.79154
11
1.12077
21
1.79125
0
LINE
8
BLACK
6
CONTINUOUS
10
1.12077
20
1.79125
11
1.12106
21
1.79055
0
LINE
8
BLACK
6
CONTINUOUS
10
1.12106
20
1.79055
11
1.12106
21
1.71339
0
LINE
8
BLACK
6
CONTINUOUS
10
1.12106
20
1.71339
11
1.12077
21
1.71269
0
LINE
8
BLACK
6
CONTINUOUS
10
1.12077
20
1.71269
11
1.12008
21
1.7124
0
LINE
8
BLACK
6
CONTINUOUS
10
1.12008
20
1.7124
11
0.98622
21
1.7124
0
LINE
8
BLACK
6
CONTINUOUS
10
0.98622
20
1.7124
11
0.985524
21
1.71269
0
LINE
8
BLACK
6
CONTINUOUS
10
0.987205
20
1.78957
11
0.987205
21
1.71437
0
LINE
8
BLACK
6
CONTINUOUS
10
0.987205
20
1.71437
11
1.11909
21
1.71437
0
LINE
8
BLACK
6
CONTINUOUS
10
1.11909
20
1.71437
11
1.11909
21
1.78957
0
LINE
8
BLACK
6
CONTINUOUS
10
1.11909
20
1.78957
11
0.987205
21
1.78957
0
LINE
8
BLACK
6
CONTINUOUS
10
1.13316
20
1.71269
11
1.13287
21
1.71339
0
LINE
8
BLACK
6
CONTINUOUS
10
1.13287
20
1.71339
11
1.13287
21
1.79055
0
LINE
8
BLACK
6
CONTINUOUS
10
1.13287
20
1.79055
11
1.13316
21
1.79125
0
LINE
8
BLACK
6
CONTINUOUS
10
1.13316
20
1.79125
11
1.13386
21
1.79154
0
LINE
8
BLACK
6
CONTINUOUS
10
1.13386
20
1.79154
11
1.26772
21
1.79154
0
LINE
8
BLACK
6
CONTINUOUS
10
1.26772
20
1.79154
11
1.26841
21
1.79125
0
LINE
8
BLACK
6
CONTINUOUS
10
1.26841
20
1.79125
11
1.2687
21
1.79055
0
LINE
8
BLACK
6
CONTINUOUS
10
1.2687
20
1.79055
11
1.2687
21
1.71339
0
LINE
8
BLACK
6
CONTINUOUS
10
1.2687
20
1.71339
11
1.26841
21
1.71269
0
LINE
8
BLACK
6
CONTINUOUS
10
1.26841
20
1.71269
11
1.26772
21
1.7124
0
LINE
8
BLACK
6
CONTINUOUS
10
1.26772
20
1.7124
11
1.13386
21
1.7124
0
LINE
8
BLACK
6
CONTINUOUS
10
1.13386
20
1.7124
11
1.13316
21
1.71269
0
LINE
8
BLACK
6
CONTINUOUS
10
1.13484
20
1.78957
11
1.13484
21
1.71437
0
LINE
8
BLACK
6
CONTINUOUS
10
1.13484
20
1.71437
11
1.26673
21
1.71437
0
LINE
8
BLACK
6
CONTINUOUS
10
1.26673
20
1.71437
11
1.26673
21
1.78957
0
LINE
8
BLACK
6
CONTINUOUS
10
1.26673
20
1.78957
11
1.13484
21
1.78957
0
LINE
8
BLACK
6
CONTINUOUS
10
0.654816
20
1.80915
11
0.654528
21
1.80984
0
LINE
8
BLACK
6
CONTINUOUS
10
0.654528
20
1.80984
11
0.654528
21
1.94213
0
LINE
8
BLACK
6
CONTINUOUS
10
0.654528
20
1.94213
11
0.654816
21
1.94282
0
LINE
8
BLACK
6
CONTINUOUS
10
0.654816
20
1.94282
11
0.655512
21
1.94311
0
LINE
8
BLACK
6
CONTINUOUS
10
0.655512
20
1.94311
11
0.730315
21
1.94311
0
LINE
8
BLACK
6
CONTINUOUS
10
0.730315
20
1.94311
11
0.731011
21
1.94282
0
LINE
8
BLACK
6
CONTINUOUS
10
0.731011
20
1.94282
11
0.731299
21
1.94213
0
LINE
8
BLACK
6
CONTINUOUS
10
0.731299
20
1.94213
11
0.731299
21
1.80984
0
LINE
8
BLACK
6
CONTINUOUS
10
0.731299
20
1.80984
11
0.731011
21
1.80915
0
LINE
8
BLACK
6
CONTINUOUS
10
0.731011
20
1.80915
11
0.730315
21
1.80886
0
LINE
8
BLACK
6
CONTINUOUS
10
0.730315
20
1.80886
11
0.655512
21
1.80886
0
LINE
8
BLACK
6
CONTINUOUS
10
0.655512
20
1.80886
11
0.654816
21
1.80915
0
LINE
8
BLACK
6
CONTINUOUS
10
0.656496
20
1.94114
11
0.656496
21
1.81083
0
LINE
8
BLACK
6
CONTINUOUS
10
0.656496
20
1.81083
11
0.729331
21
1.81083
0
LINE
8
BLACK
6
CONTINUOUS
10
0.729331
20
1.81083
11
0.729331
21
1.94114
0
LINE
8
BLACK
6
CONTINUOUS
10
0.729331
20
1.94114
11
0.656496
21
1.94114
0
LINE
8
BLACK
6
CONTINUOUS
10
0.906784
20
1.80915
11
0.906496
21
1.80984
0
LINE
8
BLACK
6
CONTINUOUS
10
0.906496
20
1.80984
11
0.906496
21
1.94213
0
LINE
8
BLACK
6
CONTINUOUS
10
0.906496
20
1.94213
11
0.906784
21
1.94282
0
LINE
8
BLACK
6
CONTINUOUS
10
0.906784
20
1.94282
11
0.90748
21
1.94311
0
LINE
8
BLACK
6
CONTINUOUS
10
0.90748
20
1.94311
11
0.982283
21
1.94311
0
LINE
8
BLACK
6
CONTINUOUS
10
0.982283
20
1.94311
11
0.982979
21
1.94282
0
LINE
8
BLACK
6
CONTINUOUS
10
0.982979
20
1.94282
11
0.983268
21
1.94213
0
LINE
8
BLACK
6
CONTINUOUS
10
0.983268
20
1.94213
11
0.983268
21
1.80984
0
LINE
8
BLACK
6
CONTINUOUS
10
0.983268
20
1.80984
11
0.982979
21
1.80915
0
LINE
8
BLACK
6
CONTINUOUS
10
0.982979
20
1.80915
11
0.982283
21
1.80886
0
LINE
8
BLACK
6
CONTINUOUS
10
0.982283
20
1.80886
11
0.90748
21
1.80886
0
LINE
8
BLACK
6
CONTINUOUS
10
0.90748
20
1.80886
11
0.906784
21
1.80915
0
LINE
8
BLACK
6
CONTINUOUS
10
0.908465
20
1.94114
11
0.908465
21
1.81083
0
LINE
8
BLACK
6
CONTINUOUS
10
0.908465
20
1.81083
11
0.981299
21
1.81083
0
LINE
8
BLACK
6
CONTINUOUS
10
0.981299
20
1.81083
11
0.981299
21
1.94114
0
LINE
8
BLACK
6
CONTINUOUS
10
0.981299
20
1.94114
11
0.908465
21
1.94114
0
LINE
8
BLACK
6
CONTINUOUS
10
1.11151
20
1.80964
11
1.11122
21
1.81033
0
LINE
8
BLACK
6
CONTINUOUS
10
1.11122
20
1.81033
11
1.11122
21
1.94262
0
LINE
8
BLACK
6
CONTINUOUS
10
1.11122
20
1.94262
11
1.11151
21
1.94331
0
LINE
8
BLACK
6
CONTINUOUS
10
1.11151
20
1.94331
11
1.1122
21
1.9436
0
LINE
8
BLACK
6
CONTINUOUS
10
1.1122
20
1.9436
11
1.18701
21
1.9436
0
LINE
8
BLACK
6
CONTINUOUS
10
1.18701
20
1.9436
11
1.1877
21
1.94331
0
LINE
8
BLACK
6
CONTINUOUS
10
1.1877
20
1.94331
11
1.18799
21
1.94262
0
LINE
8
BLACK
6
CONTINUOUS
10
1.18799
20
1.94262
11
1.18799
21
1.81033
0
LINE
8
BLACK
6
CONTINUOUS
10
1.18799
20
1.81033
11
1.1877
21
1.80964
0
LINE
8
BLACK
6
CONTINUOUS
10
1.1877
20
1.80964
11
1.18701
21
1.80935
0
LINE
8
BLACK
6
CONTINUOUS
10
1.18701
20
1.80935
11
1.1122
21
1.80935
0
LINE
8
BLACK
6
CONTINUOUS
10
1.1122
20
1.80935
11
1.11151
21
1.80964
0
LINE
8
BLACK
6
CONTINUOUS
10
1.11319
20
1.94163
11
1.11319
21
1.81132
0
LINE
8
BLACK
6
CONTINUOUS
10
1.11319
20
1.81132
11
1.18602
21
1.81132
0
LINE
8
BLACK
6
CONTINUOUS
10
1.18602
20
1.81132
11
1.18602
21
1.94163
0
LINE
8
BLACK
6
CONTINUOUS
10
1.18602
20
1.94163
11
1.11319
21
1.94163
0
LINE
8
BLACK
6
CONTINUOUS
10
0.306391
20
1.82293
11
0.306102
21
1.82362
0
LINE
8
BLACK
6
CONTINUOUS
10
0.306102
20
1.82362
11
0.306102
21
1.95591
0
LINE
8
BLACK
6
CONTINUOUS
10
0.306102
20
1.95591
11
0.306391
21
1.9566
0
LINE
8
BLACK
6
CONTINUOUS
10
0.306391
20
1.9566
11
0.307087
21
1.95689
0
LINE
8
BLACK
6
CONTINUOUS
10
0.307087
20
1.95689
11
0.38189
21
1.95689
0
LINE
8
BLACK
6
CONTINUOUS
10
0.38189
20
1.95689
11
0.382586
21
1.9566
0
LINE
8
BLACK
6
CONTINUOUS
10
0.382586
20
1.9566
11
0.382874
21
1.95591
0
LINE
8
BLACK
6
CONTINUOUS
10
0.382874
20
1.95591
11
0.382874
21
1.82362
0
LINE
8
BLACK
6
CONTINUOUS
10
0.382874
20
1.82362
11
0.382586
21
1.82293
0
LINE
8
BLACK
6
CONTINUOUS
10
0.382586
20
1.82293
11
0.38189
21
1.82264
0
LINE
8
BLACK
6
CONTINUOUS
10
0.38189
20
1.82264
11
0.307087
21
1.82264
0
LINE
8
BLACK
6
CONTINUOUS
10
0.307087
20
1.82264
11
0.306391
21
1.82293
0
LINE
8
BLACK
6
CONTINUOUS
10
0.308071
20
1.95492
11
0.308071
21
1.82461
0
LINE
8
BLACK
6
CONTINUOUS
10
0.308071
20
1.82461
11
0.380906
21
1.82461
0
LINE
8
BLACK
6
CONTINUOUS
10
0.380906
20
1.82461
11
0.380906
21
1.95492
0
LINE
8
BLACK
6
CONTINUOUS
10
0.380906
20
1.95492
11
0.308071
21
1.95492
0
LINE
8
BLACK
6
CONTINUOUS
10
0.410721
20
1.82293
11
0.410433
21
1.82362
0
LINE
8
BLACK
6
CONTINUOUS
10
0.410433
20
1.82362
11
0.410433
21
1.95591
0
LINE
8
BLACK
6
CONTINUOUS
10
0.410433
20
1.95591
11
0.410721
21
1.9566
0
LINE
8
BLACK
6
CONTINUOUS
10
0.410721
20
1.9566
11
0.411417
21
1.95689
0
LINE
8
BLACK
6
CONTINUOUS
10
0.411417
20
1.95689
11
0.48622
21
1.95689
0
LINE
8
BLACK
6
CONTINUOUS
10
0.48622
20
1.95689
11
0.486916
21
1.9566
0
LINE
8
BLACK
6
CONTINUOUS
10
0.486916
20
1.9566
11
0.487205
21
1.95591
0
LINE
8
BLACK
6
CONTINUOUS
10
0.487205
20
1.95591
11
0.487205
21
1.82362
0
LINE
8
BLACK
6
CONTINUOUS
10
0.487205
20
1.82362
11
0.486916
21
1.82293
0
LINE
8
BLACK
6
CONTINUOUS
10
0.486916
20
1.82293
11
0.48622
21
1.82264
0
LINE
8
BLACK
6
CONTINUOUS
10
0.48622
20
1.82264
11
0.411417
21
1.82264
0
LINE
8
BLACK
6
CONTINUOUS
10
0.411417
20
1.82264
11
0.410721
21
1.82293
0
LINE
8
BLACK
6
CONTINUOUS
10
0.412402
20
1.95492
11
0.412402
21
1.82461
0
LINE
8
BLACK
6
CONTINUOUS
10
0.412402
20
1.82461
11
0.485236
21
1.82461
0
LINE
8
BLACK
6
CONTINUOUS
10
0.485236
20
1.82461
11
0.485236
21
1.95492
0
LINE
8
BLACK
6
CONTINUOUS
10
0.485236
20
1.95492
11
0.412402
21
1.95492
0
LINE
8
BLACK
6
CONTINUOUS
10
1.22568
20
2.07096
11
1.22539
21
2.07165
0
LINE
8
BLACK
6
CONTINUOUS
10
1.22539
20
2.07165
11
1.22539
21
2.20394
0
LINE
8
BLACK
6
CONTINUOUS
10
1.22539
20
2.20394
11
1.22568
21
2.20463
0
LINE
8
BLACK
6
CONTINUOUS
10
1.22568
20
2.20463
11
1.22638
21
2.20492
0
LINE
8
BLACK
6
CONTINUOUS
10
1.22638
20
2.20492
11
1.30118
21
2.20492
0
LINE
8
BLACK
6
CONTINUOUS
10
1.30118
20
2.20492
11
1.30188
21
2.20463
0
LINE
8
BLACK
6
CONTINUOUS
10
1.30188
20
2.20463
11
1.30217
21
2.20394
0
LINE
8
BLACK
6
CONTINUOUS
10
1.30217
20
2.20394
11
1.30217
21
2.07165
0
LINE
8
BLACK
6
CONTINUOUS
10
1.30217
20
2.07165
11
1.30188
21
2.07096
0
LINE
8
BLACK
6
CONTINUOUS
10
1.30188
20
2.07096
11
1.30118
21
2.07067
0
LINE
8
BLACK
6
CONTINUOUS
10
1.30118
20
2.07067
11
1.22638
21
2.07067
0
LINE
8
BLACK
6
CONTINUOUS
10
1.22638
20
2.07067
11
1.22568
21
2.07096
0
LINE
8
BLACK
6
CONTINUOUS
10
1.22736
20
2.20295
11
1.22736
21
2.07264
0
LINE
8
BLACK
6
CONTINUOUS
10
1.22736
20
2.07264
11
1.3002
21
2.07264
0
LINE
8
BLACK
6
CONTINUOUS
10
1.3002
20
2.07264
11
1.3002
21
2.20295
0
LINE
8
BLACK
6
CONTINUOUS
10
1.3002
20
2.20295
11
1.22736
21
2.20295
0
LINE
8
BLACK
6
CONTINUOUS
10
1.143
20
2.07096
11
1.14272
21
2.07165
0
LINE
8
BLACK
6
CONTINUOUS
10
1.14272
20
2.07165
11
1.14272
21
2.20394
0
LINE
8
BLACK
6
CONTINUOUS
10
1.14272
20
2.20394
11
1.143
21
2.20463
0
LINE
8
BLACK
6
CONTINUOUS
10
1.143
20
2.20463
11
1.1437
21
2.20492
0
LINE
8
BLACK
6
CONTINUOUS
10
1.1437
20
2.20492
11
1.2185
21
2.20492
0
LINE
8
BLACK
6
CONTINUOUS
10
1.2185
20
2.20492
11
1.2192
21
2.20463
0
LINE
8
BLACK
6
CONTINUOUS
10
1.2192
20
2.20463
11
1.21949
21
2.20394
0
LINE
8
BLACK
6
CONTINUOUS
10
1.21949
20
2.20394
11
1.21949
21
2.07165
0
LINE
8
BLACK
6
CONTINUOUS
10
1.21949
20
2.07165
11
1.2192
21
2.07096
0
LINE
8
BLACK
6
CONTINUOUS
10
1.2192
20
2.07096
11
1.2185
21
2.07067
0
LINE
8
BLACK
6
CONTINUOUS
10
1.2185
20
2.07067
11
1.1437
21
2.07067
0
LINE
8
BLACK
6
CONTINUOUS
10
1.1437
20
2.07067
11
1.143
21
2.07096
0
LINE
8
BLACK
6
CONTINUOUS
10
1.14469
20
2.20295
11
1.14469
21
2.07264
0
LINE
8
BLACK
6
CONTINUOUS
10
1.14469
20
2.07264
11
1.21752
21
2.07264
0
LINE
8
BLACK
6
CONTINUOUS
10
1.21752
20
2.07264
11
1.21752
21
2.20295
0
LINE
8
BLACK
6
CONTINUOUS
10
1.21752
20
2.20295
11
1.14469
21
2.20295
0
LINE
8
BLACK
6
CONTINUOUS
10
1.66545
20
2.0997
11
1.66516
21
2.10039
0
LINE
8
BLACK
6
CONTINUOUS
10
1.66516
20
2.10039
11
1.66516
21
2.1752
0
LINE
8
BLACK
6
CONTINUOUS
10
1.66516
20
2.1752
11
1.66545
21
2.17589
0
LINE
8
BLACK
6
CONTINUOUS
10
1.66545
20
2.17589
11
1.66614
21
2.17618
0
LINE
8
BLACK
6
CONTINUOUS
10
1.66614
20
2.17618
11
1.79843
21
2.17618
0
LINE
8
BLACK
6
CONTINUOUS
10
1.79843
20
2.17618
11
1.79912
21
2.17589
0
LINE
8
BLACK
6
CONTINUOUS
10
1.79912
20
2.17589
11
1.79941
21
2.1752
0
LINE
8
BLACK
6
CONTINUOUS
10
1.79941
20
2.1752
11
1.79941
21
2.10039
0
LINE
8
BLACK
6
CONTINUOUS
10
1.79941
20
2.10039
11
1.79912
21
2.0997
0
LINE
8
BLACK
6
CONTINUOUS
10
1.79912
20
2.0997
11
1.79843
21
2.09941
0
LINE
8
BLACK
6
CONTINUOUS
10
1.79843
20
2.09941
11
1.66614
21
2.09941
0
LINE
8
BLACK
6
CONTINUOUS
10
1.66614
20
2.09941
11
1.66545
21
2.0997
0
LINE
8
BLACK
6
CONTINUOUS
10
1.66713
20
2.17421
11
1.66713
21
2.10138
0
LINE
8
BLACK
6
CONTINUOUS
10
1.66713
20
2.10138
11
1.79744
21
2.10138
0
LINE
8
BLACK
6
CONTINUOUS
10
1.79744
20
2.10138
11
1.79744
21
2.17421
0
LINE
8
BLACK
6
CONTINUOUS
10
1.79744
20
2.17421
11
1.66713
21
2.17421
0
LINE
8
BLACK
6
CONTINUOUS
10
1.39497
20
2.10757
11
1.39469
21
2.10827
0
LINE
8
BLACK
6
CONTINUOUS
10
1.39469
20
2.10827
11
1.39469
21
2.25
0
LINE
8
BLACK
6
CONTINUOUS
10
1.39469
20
2.25
11
1.39497
21
2.2507
0
LINE
8
BLACK
6
CONTINUOUS
10
1.39497
20
2.2507
11
1.39567
21
2.25098
0
LINE
8
BLACK
6
CONTINUOUS
10
1.39567
20
2.25098
11
1.62795
21
2.25098
0
LINE
8
BLACK
6
CONTINUOUS
10
1.62795
20
2.25098
11
1.62865
21
2.2507
0
LINE
8
BLACK
6
CONTINUOUS
10
1.62865
20
2.2507
11
1.62894
21
2.25
0
LINE
8
BLACK
6
CONTINUOUS
10
1.62894
20
2.25
11
1.62894
21
2.10827
0
LINE
8
BLACK
6
CONTINUOUS
10
1.62894
20
2.10827
11
1.62865
21
2.10757
0
LINE
8
BLACK
6
CONTINUOUS
10
1.62865
20
2.10757
11
1.62795
21
2.10728
0
LINE
8
BLACK
6
CONTINUOUS
10
1.62795
20
2.10728
11
1.39567
21
2.10728
0
LINE
8
BLACK
6
CONTINUOUS
10
1.39567
20
2.10728
11
1.39497
21
2.10757
0
LINE
8
BLACK
6
CONTINUOUS
10
1.39665
20
2.24902
11
1.39665
21
2.10925
0
LINE
8
BLACK
6
CONTINUOUS
10
1.39665
20
2.10925
11
1.62697
21
2.10925
0
LINE
8
BLACK
6
CONTINUOUS
10
1.62697
20
2.10925
11
1.62697
21
2.24902
0
LINE
8
BLACK
6
CONTINUOUS
10
1.62697
20
2.24902
11
1.39665
21
2.24902
0
LINE
8
BLACK
6
CONTINUOUS
10
1.93041
20
2.11033
11
1.93012
21
2.11102
0
LINE
8
BLACK
6
CONTINUOUS
10
1.93012
20
2.11102
11
1.93012
21
2.24331
0
LINE
8
BLACK
6
CONTINUOUS
10
1.93012
20
2.24331
11
1.93041
21
2.244
0
LINE
8
BLACK
6
CONTINUOUS
10
1.93041
20
2.244
11
1.9311
21
2.24429
0
LINE
8
BLACK
6
CONTINUOUS
10
1.9311
20
2.24429
11
2.00591
21
2.24429
0
LINE
8
BLACK
6
CONTINUOUS
10
2.00591
20
2.24429
11
2.0066
21
2.244
0
LINE
8
BLACK
6
CONTINUOUS
10
2.0066
20
2.244
11
2.00689
21
2.24331
0
LINE
8
BLACK
6
CONTINUOUS
10
2.00689
20
2.24331
11
2.00689
21
2.11102
0
LINE
8
BLACK
6
CONTINUOUS
10
2.00689
20
2.11102
11
2.0066
21
2.11033
0
LINE
8
BLACK
6
CONTINUOUS
10
2.0066
20
2.11033
11
2.00591
21
2.11004
0
LINE
8
BLACK
6
CONTINUOUS
10
2.00591
20
2.11004
11
1.9311
21
2.11004
0
LINE
8
BLACK
6
CONTINUOUS
10
1.9311
20
2.11004
11
1.93041
21
2.11033
0
LINE
8
BLACK
6
CONTINUOUS
10
1.93209
20
2.24232
11
1.93209
21
2.11201
0
LINE
8
BLACK
6
CONTINUOUS
10
1.93209
20
2.11201
11
2.00492
21
2.11201
0
LINE
8
BLACK
6
CONTINUOUS
10
2.00492
20
2.11201
11
2.00492
21
2.24232
0
LINE
8
BLACK
6
CONTINUOUS
10
2.00492
20
2.24232
11
1.93209
21
2.24232
0
LINE
8
BLACK
6
CONTINUOUS
10
0.917414
20
2.11938
11
0.917126
21
2.12008
0
LINE
8
BLACK
6
CONTINUOUS
10
0.917126
20
2.12008
11
0.917126
21
2.19488
0
LINE
8
BLACK
6
CONTINUOUS
10
0.917126
20
2.19488
11
0.917414
21
2.19558
0
LINE
8
BLACK
6
CONTINUOUS
10
0.917414
20
2.19558
11
0.91811
21
2.19587
0
LINE
8
BLACK
6
CONTINUOUS
10
0.91811
20
2.19587
11
1.05039
21
2.19587
0
LINE
8
BLACK
6
CONTINUOUS
10
1.05039
20
2.19587
11
1.05109
21
2.19558
0
LINE
8
BLACK
6
CONTINUOUS
10
1.05109
20
2.19558
11
1.05138
21
2.19488
0
LINE
8
BLACK
6
CONTINUOUS
10
1.05138
20
2.19488
11
1.05138
21
2.12008
0
LINE
8
BLACK
6
CONTINUOUS
10
1.05138
20
2.12008
11
1.05109
21
2.11938
0
LINE
8
BLACK
6
CONTINUOUS
10
1.05109
20
2.11938
11
1.05039
21
2.11909
0
LINE
8
BLACK
6
CONTINUOUS
10
1.05039
20
2.11909
11
0.91811
21
2.11909
0
LINE
8
BLACK
6
CONTINUOUS
10
0.91811
20
2.11909
11
0.917414
21
2.11938
0
LINE
8
BLACK
6
CONTINUOUS
10
0.919094
20
2.1939
11
0.919094
21
2.12106
0
LINE
8
BLACK
6
CONTINUOUS
10
0.919094
20
2.12106
11
1.04941
21
2.12106
0
LINE
8
BLACK
6
CONTINUOUS
10
1.04941
20
2.12106
11
1.04941
21
2.1939
0
LINE
8
BLACK
6
CONTINUOUS
10
1.04941
20
2.1939
11
0.919094
21
2.1939
0
LINE
8
BLACK
6
CONTINUOUS
10
1.66545
20
2.18828
11
1.66516
21
2.18898
0
LINE
8
BLACK
6
CONTINUOUS
10
1.66516
20
2.18898
11
1.66516
21
2.26378
0
LINE
8
BLACK
6
CONTINUOUS
10
1.66516
20
2.26378
11
1.66545
21
2.26448
0
LINE
8
BLACK
6
CONTINUOUS
10
1.66545
20
2.26448
11
1.66614
21
2.26476
0
LINE
8
BLACK
6
CONTINUOUS
10
1.66614
20
2.26476
11
1.79843
21
2.26476
0
LINE
8
BLACK
6
CONTINUOUS
10
1.79843
20
2.26476
11
1.79912
21
2.26448
0
LINE
8
BLACK
6
CONTINUOUS
10
1.79912
20
2.26448
11
1.79941
21
2.26378
0
LINE
8
BLACK
6
CONTINUOUS
10
1.79941
20
2.26378
11
1.79941
21
2.18898
0
LINE
8
BLACK
6
CONTINUOUS
10
1.79941
20
2.18898
11
1.79912
21
2.18828
0
LINE
8
BLACK
6
CONTINUOUS
10
1.79912
20
2.18828
11
1.79843
21
2.18799
0
LINE
8
BLACK
6
CONTINUOUS
10
1.79843
20
2.18799
11
1.66614
21
2.18799
0
LINE
8
BLACK
6
CONTINUOUS
10
1.66614
20
2.18799
11
1.66545
21
2.18828
0
LINE
8
BLACK
6
CONTINUOUS
10
1.66713
20
2.2628
11
1.66713
21
2.18996
0
LINE
8
BLACK
6
CONTINUOUS
10
1.66713
20
2.18996
11
1.79744
21
2.18996
0
LINE
8
BLACK
6
CONTINUOUS
10
1.79744
20
2.18996
11
1.79744
21
2.2628
0
LINE
8
BLACK
6
CONTINUOUS
10
1.79744
20
2.2628
11
1.66713
21
2.2628
0
LINE
8
BLACK
6
CONTINUOUS
10
0.918595
20
2.20206
11
0.918307
21
2.20276
0
LINE
8
BLACK
6
CONTINUOUS
10
0.918307
20
2.20276
11
0.918307
21
2.28937
0
LINE
8
BLACK
6
CONTINUOUS
10
0.918307
20
2.28937
11
0.918595
21
2.29007
0
LINE
8
BLACK
6
CONTINUOUS
10
0.918595
20
2.29007
11
0.919291
21
2.29035
0
LINE
8
BLACK
6
CONTINUOUS
10
0.919291
20
2.29035
11
1.12795
21
2.29035
0
LINE
8
BLACK
6
CONTINUOUS
10
1.12795
20
2.29035
11
1.12865
21
2.29007
0
LINE
8
BLACK
6
CONTINUOUS
10
1.12865
20
2.29007
11
1.12894
21
2.28937
0
LINE
8
BLACK
6
CONTINUOUS
10
1.12894
20
2.28937
11
1.12894
21
2.20276
0
LINE
8
BLACK
6
CONTINUOUS
10
1.12894
20
2.20276
11
1.12865
21
2.20206
0
LINE
8
BLACK
6
CONTINUOUS
10
1.12865
20
2.20206
11
1.12795
21
2.20177
0
LINE
8
BLACK
6
CONTINUOUS
10
1.12795
20
2.20177
11
0.919291
21
2.20177
0
LINE
8
BLACK
6
CONTINUOUS
10
0.919291
20
2.20177
11
0.918595
21
2.20206
0
LINE
8
BLACK
6
CONTINUOUS
10
0.920276
20
2.28839
11
0.920276
21
2.20374
0
LINE
8
BLACK
6
CONTINUOUS
10
0.920276
20
2.20374
11
1.12697
21
2.20374
0
LINE
8
BLACK
6
CONTINUOUS
10
1.12697
20
2.20374
11
1.12697
21
2.28839
0
LINE
8
BLACK
6
CONTINUOUS
10
1.12697
20
2.28839
11
0.920276
21
2.28839
0
LINE
8
BLACK
6
CONTINUOUS
10
1.13198
20
2.21387
11
1.13169
21
2.21457
0
LINE
8
BLACK
6
CONTINUOUS
10
1.13169
20
2.21457
11
1.13169
21
2.28937
0
LINE
8
BLACK
6
CONTINUOUS
10
1.13169
20
2.28937
11
1.13198
21
2.29007
0
LINE
8
BLACK
6
CONTINUOUS
10
1.13198
20
2.29007
11
1.13268
21
2.29035
0
LINE
8
BLACK
6
CONTINUOUS
10
1.13268
20
2.29035
11
1.26496
21
2.29035
0
LINE
8
BLACK
6
CONTINUOUS
10
1.26496
20
2.29035
11
1.26566
21
2.29007
0
LINE
8
BLACK
6
CONTINUOUS
10
1.26566
20
2.29007
11
1.26594
21
2.28937
0
LINE
8
BLACK
6
CONTINUOUS
10
1.26594
20
2.28937
11
1.26594
21
2.21457
0
LINE
8
BLACK
6
CONTINUOUS
10
1.26594
20
2.21457
11
1.26566
21
2.21387
0
LINE
8
BLACK
6
CONTINUOUS
10
1.26566
20
2.21387
11
1.26496
21
2.21358
0
LINE
8
BLACK
6
CONTINUOUS
10
1.26496
20
2.21358
11
1.13268
21
2.21358
0
LINE
8
BLACK
6
CONTINUOUS
10
1.13268
20
2.21358
11
1.13198
21
2.21387
0
LINE
8
BLACK
6
CONTINUOUS
10
1.13366
20
2.28839
11
1.13366
21
2.21555
0
LINE
8
BLACK
6
CONTINUOUS
10
1.13366
20
2.21555
11
1.26398
21
2.21555
0
LINE
8
BLACK
6
CONTINUOUS
10
1.26398
20
2.21555
11
1.26398
21
2.28839
0
LINE
8
BLACK
6
CONTINUOUS
10
1.26398
20
2.28839
11
1.13366
21
2.28839
  0
ENDSEC
  0
EOF
