  0
SECTION
  2
HEADER
  9
$ANGBASE
  50
0.0
  9
$ANGDIR
  70
1
  9
$MEASUREMENT
  70
0
  0
ENDSEC
  0
SECTION
  2
TABLES
  0
TABLE
  2
LTYPE
  70
4
  0
LTYPE
  5
40F
  2
CONTINUOUS
  70
0
  3
Solid line
  72
65
  73
0
  40
0.0
  0
LTYPE
  5
410
  2
DASHDOT
 70
0
  3
Dash Dot ____ _ ____ _
 72
65
 73
4
 40
2.0
 49
1.25
 49
-0.25
 49
0.25
 49
-0.25
  0
LTYPE
  5
411
  2
DASHED
 70
0
  3
Dashed __ __ __ __ __
 72
65
 73
2
 40
0.75
 49
0.5
 49
-0.25
  0
LTYPE
  5
43B
  2
DOTTED
 70
0
  3
Dotted .  .  .  .
 72
65
 73
2
 40
0.2
 49
0.0
 49
-0.2
  0
ENDTAB
  0
TABLE
  2
STYLE
  70
4
  0
STYLE
  2
KICAD
  70
0
  40
0
  41
1
  42
1
  50
0
  71
0
  3
isocp.shx
  0
STYLE
  2
KICADB
  70
0
  40
0
  41
1
  42
1
  50
0
  71
0
  3
isocp.shx
  0
STYLE
  2
KICADI
  70
0
  40
0
  41
1
  42
1
  50
15
  71
0
  3
isocp.shx
  0
STYLE
  2
KICADBI
  70
0
  40
0
  41
1
  42
1
  50
15
  71
0
  3
isocp.shx
  0
ENDTAB
  0
TABLE
  2
LAYER
  70
1
  0
LAYER
  2
BLACK
  70
0
  62
7
  6
CONTINUOUS
  0
ENDTAB
  0
ENDSEC
  0
SECTION
  2
ENTITIES
0
LINE
8
BLACK
6
CONTINUOUS
10
0.0140627559055118
20
0.1248102362204724
11
0.0279486220472441
21
0.1224509448818898
0
LINE
8
BLACK
6
CONTINUOUS
10
0.0279486220472441
20
0.1224509448818898
11
0.041483031496063
21
0.1185517322834646
0
LINE
8
BLACK
6
CONTINUOUS
10
0.041483031496063
20
0.1185517322834646
11
0.0544957874015748
21
0.1131616929133858
0
LINE
8
BLACK
6
CONTINUOUS
10
0.0544957874015748
20
0.1131616929133858
11
0.0668232283464567
21
0.1063485433070866
0
LINE
8
BLACK
6
CONTINUOUS
10
0.0668232283464567
20
0.1063485433070866
11
0.0783103149606299
21
0.098198031496063
0
LINE
8
BLACK
6
CONTINUOUS
10
0.0783103149606299
20
0.098198031496063
11
0.0888125984251968
21
0.0888125984251968
0
LINE
8
BLACK
6
CONTINUOUS
10
0.0888125984251968
20
0.0888125984251968
11
0.098198031496063
21
0.0783103149606299
0
LINE
8
BLACK
6
CONTINUOUS
10
0.098198031496063
20
0.0783103149606299
11
0.1063485433070866
21
0.0668232283464567
0
LINE
8
BLACK
6
CONTINUOUS
10
0.1063485433070866
20
0.0668232283464567
11
0.1131616929133858
21
0.0544957874015748
0
LINE
8
BLACK
6
CONTINUOUS
10
0.1131616929133858
20
0.0544957874015748
11
0.1185517322834646
21
0.041483031496063
0
LINE
8
BLACK
6
CONTINUOUS
10
0.1185517322834646
20
0.041483031496063
11
0.1224509448818898
21
0.0279486220472441
0
LINE
8
BLACK
6
CONTINUOUS
10
0.1224509448818898
20
0.0279486220472441
11
0.1248102362204724
21
0.0140627559055118
0
LINE
8
BLACK
6
CONTINUOUS
10
0.1248102362204724
20
0.0140627559055118
11
0.1256
21
0.
0
LINE
8
BLACK
6
CONTINUOUS
10
0.1256
20
0.
11
0.1248102362204724
21
-0.0140627559055118
0
LINE
8
BLACK
6
CONTINUOUS
10
0.1248102362204724
20
-0.0140627559055118
11
0.1224509448818898
21
-0.0279486220472441
0
LINE
8
BLACK
6
CONTINUOUS
10
0.1224509448818898
20
-0.0279486220472441
11
0.1185517322834646
21
-0.041483031496063
0
LINE
8
BLACK
6
CONTINUOUS
10
0.1185517322834646
20
-0.041483031496063
11
0.1131616929133858
21
-0.0544957874015748
0
LINE
8
BLACK
6
CONTINUOUS
10
0.1131616929133858
20
-0.0544957874015748
11
0.1063485433070866
21
-0.0668232283464567
0
LINE
8
BLACK
6
CONTINUOUS
10
0.1063485433070866
20
-0.0668232283464567
11
0.098198031496063
21
-0.0783103149606299
0
LINE
8
BLACK
6
CONTINUOUS
10
0.098198031496063
20
-0.0783103149606299
11
0.0888125984251968
21
-0.0888125984251968
0
LINE
8
BLACK
6
CONTINUOUS
10
0.0888125984251968
20
-0.0888125984251968
11
0.0783103149606299
21
-0.098198031496063
0
LINE
8
BLACK
6
CONTINUOUS
10
0.0783103149606299
20
-0.098198031496063
11
0.0668232283464567
21
-0.1063485433070866
0
LINE
8
BLACK
6
CONTINUOUS
10
0.0668232283464567
20
-0.1063485433070866
11
0.0544957874015748
21
-0.1131616929133858
0
LINE
8
BLACK
6
CONTINUOUS
10
0.0544957874015748
20
-0.1131616929133858
11
0.041483031496063
21
-0.1185517322834646
0
LINE
8
BLACK
6
CONTINUOUS
10
0.041483031496063
20
-0.1185517322834646
11
0.0279486220472441
21
-0.1224509448818898
0
LINE
8
BLACK
6
CONTINUOUS
10
0.0279486220472441
20
-0.1224509448818898
11
0.0140627559055118
21
-0.1248102362204724
0
LINE
8
BLACK
6
CONTINUOUS
10
0.0140627559055118
20
-0.1248102362204724
11
0.
21
-0.1256
0
LINE
8
BLACK
6
CONTINUOUS
10
0.
20
-0.1256
11
-0.0140627559055118
21
-0.1248102362204724
0
LINE
8
BLACK
6
CONTINUOUS
10
-0.0140627559055118
20
-0.1248102362204724
11
-0.0279486220472441
21
-0.1224509448818898
0
LINE
8
BLACK
6
CONTINUOUS
10
-0.0279486220472441
20
-0.1224509448818898
11
-0.041483031496063
21
-0.1185517322834646
0
LINE
8
BLACK
6
CONTINUOUS
10
-0.041483031496063
20
-0.1185517322834646
11
-0.0544957874015748
21
-0.1131616929133858
0
LINE
8
BLACK
6
CONTINUOUS
10
-0.0544957874015748
20
-0.1131616929133858
11
-0.0668232283464567
21
-0.1063485433070866
0
LINE
8
BLACK
6
CONTINUOUS
10
-0.0668232283464567
20
-0.1063485433070866
11
-0.0783103149606299
21
-0.098198031496063
0
LINE
8
BLACK
6
CONTINUOUS
10
-0.0783103149606299
20
-0.098198031496063
11
-0.0888125984251968
21
-0.0888125984251968
0
LINE
8
BLACK
6
CONTINUOUS
10
-0.0888125984251968
20
-0.0888125984251968
11
-0.098198031496063
21
-0.0783103149606299
0
LINE
8
BLACK
6
CONTINUOUS
10
-0.098198031496063
20
-0.0783103149606299
11
-0.1063485433070866
21
-0.0668232283464567
0
LINE
8
BLACK
6
CONTINUOUS
10
-0.1063485433070866
20
-0.0668232283464567
11
-0.1131616929133858
21
-0.0544957874015748
0
LINE
8
BLACK
6
CONTINUOUS
10
-0.1131616929133858
20
-0.0544957874015748
11
-0.1185517322834646
21
-0.041483031496063
0
LINE
8
BLACK
6
CONTINUOUS
10
-0.1185517322834646
20
-0.041483031496063
11
-0.1224509448818898
21
-0.0279486220472441
0
LINE
8
BLACK
6
CONTINUOUS
10
-0.1224509448818898
20
-0.0279486220472441
11
-0.1248102362204724
21
-0.0140627559055118
0
LINE
8
BLACK
6
CONTINUOUS
10
-0.1248102362204724
20
-0.0140627559055118
11
-0.1256
21
0.
0
LINE
8
BLACK
6
CONTINUOUS
10
-0.1256
20
0.
11
-0.1248102362204724
21
0.0140627559055118
0
LINE
8
BLACK
6
CONTINUOUS
10
-0.1248102362204724
20
0.0140627559055118
11
-0.1224509448818898
21
0.0279486220472441
0
LINE
8
BLACK
6
CONTINUOUS
10
-0.1224509448818898
20
0.0279486220472441
11
-0.1185517322834646
21
0.041483031496063
0
LINE
8
BLACK
6
CONTINUOUS
10
-0.1185517322834646
20
0.041483031496063
11
-0.1131616929133858
21
0.0544957874015748
0
LINE
8
BLACK
6
CONTINUOUS
10
-0.1131616929133858
20
0.0544957874015748
11
-0.1063485433070866
21
0.0668232283464567
0
LINE
8
BLACK
6
CONTINUOUS
10
-0.1063485433070866
20
0.0668232283464567
11
-0.098198031496063
21
0.0783103149606299
0
LINE
8
BLACK
6
CONTINUOUS
10
-0.098198031496063
20
0.0783103149606299
11
-0.0888125984251968
21
0.0888125984251968
0
LINE
8
BLACK
6
CONTINUOUS
10
-0.0888125984251968
20
0.0888125984251968
11
-0.0783103149606299
21
0.098198031496063
0
LINE
8
BLACK
6
CONTINUOUS
10
-0.0783103149606299
20
0.098198031496063
11
-0.0668232283464567
21
0.1063485433070866
0
LINE
8
BLACK
6
CONTINUOUS
10
-0.0668232283464567
20
0.1063485433070866
11
-0.0544957874015748
21
0.1131616929133858
0
LINE
8
BLACK
6
CONTINUOUS
10
-0.0544957874015748
20
0.1131616929133858
11
-0.041483031496063
21
0.1185517322834646
0
LINE
8
BLACK
6
CONTINUOUS
10
-0.041483031496063
20
0.1185517322834646
11
-0.0279486220472441
21
0.1224509448818898
0
LINE
8
BLACK
6
CONTINUOUS
10
-0.0279486220472441
20
0.1224509448818898
11
-0.0140627559055118
21
0.1248102362204724
0
LINE
8
BLACK
6
CONTINUOUS
10
-0.0140627559055118
20
0.1248102362204724
11
0.
21
0.1256
0
LINE
8
BLACK
6
CONTINUOUS
10
0.
20
0.1256
11
0.0140627559055118
21
0.1248102362204724
0
LINE
8
BLACK
6
CONTINUOUS
10
-0.1100383464566929
20
-0.0128616535433071
11
-0.1078011417322835
21
-0.0255493307086614
0
LINE
8
BLACK
6
CONTINUOUS
10
-0.1078011417322835
20
-0.0255493307086614
11
-0.1041061417322835
21
-0.0378915354330709
0
LINE
8
BLACK
6
CONTINUOUS
10
-0.1041061417322835
20
-0.0378915354330709
11
-0.0990032677165354
21
-0.0497212992125984
0
LINE
8
BLACK
6
CONTINUOUS
10
-0.0990032677165354
20
-0.0497212992125984
11
-0.0925615748031496
21
-0.0608787007874016
0
LINE
8
BLACK
6
CONTINUOUS
10
-0.0925615748031496
20
-0.0608787007874016
11
-0.0848681102362205
21
-0.0712127952755905
0
LINE
8
BLACK
6
CONTINUOUS
10
-0.0848681102362205
20
-0.0712127952755905
11
-0.076026968503937
21
-0.0805838582677165
0
LINE
8
BLACK
6
CONTINUOUS
10
-0.076026968503937
20
-0.0805838582677165
11
-0.0661576771653543
21
-0.088865157480315
0
LINE
8
BLACK
6
CONTINUOUS
10
-0.0661576771653543
20
-0.088865157480315
11
-0.0553937401574803
21
-0.0959447244094488
0
LINE
8
BLACK
6
CONTINUOUS
10
-0.0553937401574803
20
-0.0959447244094488
11
-0.0438806692913386
21
-0.101726811023622
0
LINE
8
BLACK
6
CONTINUOUS
10
-0.0438806692913386
20
-0.101726811023622
11
-0.0317742125984252
21
-0.106133188976378
0
LINE
8
BLACK
6
CONTINUOUS
10
-0.0317742125984252
20
-0.106133188976378
11
-0.019238031496063
21
-0.1091043307086614
0
LINE
8
BLACK
6
CONTINUOUS
10
-0.019238031496063
20
-0.1091043307086614
11
-0.0064417322834646
21
-0.1106
0
LINE
8
BLACK
6
CONTINUOUS
10
-0.0064417322834646
20
-0.1106
11
0.0064417322834646
21
-0.1106
0
LINE
8
BLACK
6
CONTINUOUS
10
0.0064417322834646
20
-0.1106
11
0.019238031496063
21
-0.1091043307086614
0
LINE
8
BLACK
6
CONTINUOUS
10
0.019238031496063
20
-0.1091043307086614
11
0.0317742125984252
21
-0.106133188976378
0
LINE
8
BLACK
6
CONTINUOUS
10
0.0317742125984252
20
-0.106133188976378
11
0.0438806692913386
21
-0.101726811023622
0
LINE
8
BLACK
6
CONTINUOUS
10
0.0438806692913386
20
-0.101726811023622
11
0.0553937401574803
21
-0.0959447244094488
0
LINE
8
BLACK
6
CONTINUOUS
10
0.0553937401574803
20
-0.0959447244094488
11
0.0661576771653543
21
-0.088865157480315
0
LINE
8
BLACK
6
CONTINUOUS
10
0.0661576771653543
20
-0.088865157480315
11
0.076026968503937
21
-0.0805838582677165
0
LINE
8
BLACK
6
CONTINUOUS
10
0.076026968503937
20
-0.0805838582677165
11
0.0848681102362205
21
-0.0712127952755905
0
LINE
8
BLACK
6
CONTINUOUS
10
0.0848681102362205
20
-0.0712127952755905
11
0.0925615748031496
21
-0.0608787007874016
0
LINE
8
BLACK
6
CONTINUOUS
10
0.0925615748031496
20
-0.0608787007874016
11
0.0990032677165354
21
-0.0497212992125984
0
LINE
8
BLACK
6
CONTINUOUS
10
0.0990032677165354
20
-0.0497212992125984
11
0.1041061417322835
21
-0.0378915354330709
0
LINE
8
BLACK
6
CONTINUOUS
10
0.1041061417322835
20
-0.0378915354330709
11
0.1078011417322835
21
-0.0255493307086614
0
LINE
8
BLACK
6
CONTINUOUS
10
0.1078011417322835
20
-0.0255493307086614
11
0.1100383464566929
21
-0.0128616535433071
0
LINE
8
BLACK
6
CONTINUOUS
10
0.1100383464566929
20
-0.0128616535433071
11
0.1107874409448819
21
0.
0
LINE
8
BLACK
6
CONTINUOUS
10
0.1107874409448819
20
0.
11
0.1100383464566929
21
0.0128616535433071
0
LINE
8
BLACK
6
CONTINUOUS
10
0.1100383464566929
20
0.0128616535433071
11
0.1078011417322835
21
0.0255493307086614
0
LINE
8
BLACK
6
CONTINUOUS
10
0.1078011417322835
20
0.0255493307086614
11
0.1041061417322835
21
0.0378915354330709
0
LINE
8
BLACK
6
CONTINUOUS
10
0.1041061417322835
20
0.0378915354330709
11
0.0990032677165354
21
0.0497212992125984
0
LINE
8
BLACK
6
CONTINUOUS
10
0.0990032677165354
20
0.0497212992125984
11
0.0925615748031496
21
0.0608787007874016
0
LINE
8
BLACK
6
CONTINUOUS
10
0.0925615748031496
20
0.0608787007874016
11
0.0848681102362205
21
0.0712127952755905
0
LINE
8
BLACK
6
CONTINUOUS
10
0.0848681102362205
20
0.0712127952755905
11
0.076026968503937
21
0.0805838582677165
0
LINE
8
BLACK
6
CONTINUOUS
10
0.076026968503937
20
0.0805838582677165
11
0.0661576771653543
21
0.088865157480315
0
LINE
8
BLACK
6
CONTINUOUS
10
0.0661576771653543
20
0.088865157480315
11
0.0553937401574803
21
0.0959447244094488
0
LINE
8
BLACK
6
CONTINUOUS
10
0.0553937401574803
20
0.0959447244094488
11
0.0438806692913386
21
0.101726811023622
0
LINE
8
BLACK
6
CONTINUOUS
10
0.0438806692913386
20
0.101726811023622
11
0.0317742125984252
21
0.106133188976378
0
LINE
8
BLACK
6
CONTINUOUS
10
0.0317742125984252
20
0.106133188976378
11
0.019238031496063
21
0.1091043307086614
0
LINE
8
BLACK
6
CONTINUOUS
10
0.019238031496063
20
0.1091043307086614
11
0.0064417322834646
21
0.1106
0
LINE
8
BLACK
6
CONTINUOUS
10
0.0064417322834646
20
0.1106
11
-0.0064417322834646
21
0.1106
0
LINE
8
BLACK
6
CONTINUOUS
10
-0.0064417322834646
20
0.1106
11
-0.019238031496063
21
0.1091043307086614
0
LINE
8
BLACK
6
CONTINUOUS
10
-0.019238031496063
20
0.1091043307086614
11
-0.0317742125984252
21
0.106133188976378
0
LINE
8
BLACK
6
CONTINUOUS
10
-0.0317742125984252
20
0.106133188976378
11
-0.0438806692913386
21
0.101726811023622
0
LINE
8
BLACK
6
CONTINUOUS
10
-0.0438806692913386
20
0.101726811023622
11
-0.0553937401574803
21
0.0959447244094488
0
LINE
8
BLACK
6
CONTINUOUS
10
-0.0553937401574803
20
0.0959447244094488
11
-0.0661576771653543
21
0.088865157480315
0
LINE
8
BLACK
6
CONTINUOUS
10
-0.0661576771653543
20
0.088865157480315
11
-0.076026968503937
21
0.0805838582677165
0
LINE
8
BLACK
6
CONTINUOUS
10
-0.076026968503937
20
0.0805838582677165
11
-0.0848681102362205
21
0.0712127952755905
0
LINE
8
BLACK
6
CONTINUOUS
10
-0.0848681102362205
20
0.0712127952755905
11
-0.0925615748031496
21
0.0608787007874016
0
LINE
8
BLACK
6
CONTINUOUS
10
-0.0925615748031496
20
0.0608787007874016
11
-0.0990032677165354
21
0.0497212992125984
0
LINE
8
BLACK
6
CONTINUOUS
10
-0.0990032677165354
20
0.0497212992125984
11
-0.1041061417322835
21
0.0378915354330709
0
LINE
8
BLACK
6
CONTINUOUS
10
-0.1041061417322835
20
0.0378915354330709
11
-0.1078011417322835
21
0.0255493307086614
0
LINE
8
BLACK
6
CONTINUOUS
10
-0.1078011417322835
20
0.0255493307086614
11
-0.1100383464566929
21
0.0128616535433071
0
LINE
8
BLACK
6
CONTINUOUS
10
-0.1100383464566929
20
0.0128616535433071
11
-0.1107874409448819
21
0.
0
LINE
8
BLACK
6
CONTINUOUS
10
-0.1107874409448819
20
0.
11
-0.1100383464566929
21
-0.0128616535433071
0
LINE
8
BLACK
6
CONTINUOUS
10
2.014062755905512
20
0.1248102362204724
11
2.0279486220472442
21
0.1224509448818898
0
LINE
8
BLACK
6
CONTINUOUS
10
2.0279486220472442
20
0.1224509448818898
11
2.041483031496063
21
0.1185517322834646
0
LINE
8
BLACK
6
CONTINUOUS
10
2.041483031496063
20
0.1185517322834646
11
2.0544957874015748
21
0.1131616929133858
0
LINE
8
BLACK
6
CONTINUOUS
10
2.0544957874015748
20
0.1131616929133858
11
2.0668232283464567
21
0.1063485433070866
0
LINE
8
BLACK
6
CONTINUOUS
10
2.0668232283464567
20
0.1063485433070866
11
2.0783103149606297
21
0.098198031496063
0
LINE
8
BLACK
6
CONTINUOUS
10
2.0783103149606297
20
0.098198031496063
11
2.0888125984251968
21
0.0888125984251968
0
LINE
8
BLACK
6
CONTINUOUS
10
2.0888125984251968
20
0.0888125984251968
11
2.0981980314960631
21
0.0783103149606299
0
LINE
8
BLACK
6
CONTINUOUS
10
2.0981980314960631
20
0.0783103149606299
11
2.1063485433070865
21
0.0668232283464567
0
LINE
8
BLACK
6
CONTINUOUS
10
2.1063485433070865
20
0.0668232283464567
11
2.1131616929133856
21
0.0544957874015748
0
LINE
8
BLACK
6
CONTINUOUS
10
2.1131616929133856
20
0.0544957874015748
11
2.1185517322834646
21
0.041483031496063
0
LINE
8
BLACK
6
CONTINUOUS
10
2.1185517322834646
20
0.041483031496063
11
2.1224509448818898
21
0.0279486220472441
0
LINE
8
BLACK
6
CONTINUOUS
10
2.1224509448818898
20
0.0279486220472441
11
2.1248102362204726
21
0.0140627559055118
0
LINE
8
BLACK
6
CONTINUOUS
10
2.1248102362204726
20
0.0140627559055118
11
2.1255999999999999
21
0.
0
LINE
8
BLACK
6
CONTINUOUS
10
2.1255999999999999
20
0.
11
2.1248102362204726
21
-0.0140627559055118
0
LINE
8
BLACK
6
CONTINUOUS
10
2.1248102362204726
20
-0.0140627559055118
11
2.1224509448818898
21
-0.0279486220472441
0
LINE
8
BLACK
6
CONTINUOUS
10
2.1224509448818898
20
-0.0279486220472441
11
2.1185517322834646
21
-0.041483031496063
0
LINE
8
BLACK
6
CONTINUOUS
10
2.1185517322834646
20
-0.041483031496063
11
2.1131616929133856
21
-0.0544957874015748
0
LINE
8
BLACK
6
CONTINUOUS
10
2.1131616929133856
20
-0.0544957874015748
11
2.1063485433070865
21
-0.0668232283464567
0
LINE
8
BLACK
6
CONTINUOUS
10
2.1063485433070865
20
-0.0668232283464567
11
2.0981980314960631
21
-0.0783103149606299
0
LINE
8
BLACK
6
CONTINUOUS
10
2.0981980314960631
20
-0.0783103149606299
11
2.0888125984251968
21
-0.0888125984251968
0
LINE
8
BLACK
6
CONTINUOUS
10
2.0888125984251968
20
-0.0888125984251968
11
2.0783103149606297
21
-0.098198031496063
0
LINE
8
BLACK
6
CONTINUOUS
10
2.0783103149606297
20
-0.098198031496063
11
2.0668232283464567
21
-0.1063485433070866
0
LINE
8
BLACK
6
CONTINUOUS
10
2.0668232283464567
20
-0.1063485433070866
11
2.0544957874015748
21
-0.1131616929133858
0
LINE
8
BLACK
6
CONTINUOUS
10
2.0544957874015748
20
-0.1131616929133858
11
2.041483031496063
21
-0.1185517322834646
0
LINE
8
BLACK
6
CONTINUOUS
10
2.041483031496063
20
-0.1185517322834646
11
2.0279486220472442
21
-0.1224509448818898
0
LINE
8
BLACK
6
CONTINUOUS
10
2.0279486220472442
20
-0.1224509448818898
11
2.014062755905512
21
-0.1248102362204724
0
LINE
8
BLACK
6
CONTINUOUS
10
2.014062755905512
20
-0.1248102362204724
11
2.
21
-0.1256
0
LINE
8
BLACK
6
CONTINUOUS
10
2.
20
-0.1256
11
1.9859372440944882
21
-0.1248102362204724
0
LINE
8
BLACK
6
CONTINUOUS
10
1.9859372440944882
20
-0.1248102362204724
11
1.9720513779527558
21
-0.1224509448818898
0
LINE
8
BLACK
6
CONTINUOUS
10
1.9720513779527558
20
-0.1224509448818898
11
1.958516968503937
21
-0.1185517322834646
0
LINE
8
BLACK
6
CONTINUOUS
10
1.958516968503937
20
-0.1185517322834646
11
1.9455042125984252
21
-0.1131616929133858
0
LINE
8
BLACK
6
CONTINUOUS
10
1.9455042125984252
20
-0.1131616929133858
11
1.9331767716535433
21
-0.1063485433070866
0
LINE
8
BLACK
6
CONTINUOUS
10
1.9331767716535433
20
-0.1063485433070866
11
1.9216896850393701
21
-0.098198031496063
0
LINE
8
BLACK
6
CONTINUOUS
10
1.9216896850393701
20
-0.098198031496063
11
1.9111874015748032
21
-0.0888125984251968
0
LINE
8
BLACK
6
CONTINUOUS
10
1.9111874015748032
20
-0.0888125984251968
11
1.9018019685039369
21
-0.0783103149606299
0
LINE
8
BLACK
6
CONTINUOUS
10
1.9018019685039369
20
-0.0783103149606299
11
1.8936514566929132
21
-0.0668232283464567
0
LINE
8
BLACK
6
CONTINUOUS
10
1.8936514566929132
20
-0.0668232283464567
11
1.8868383070866142
21
-0.0544957874015748
0
LINE
8
BLACK
6
CONTINUOUS
10
1.8868383070866142
20
-0.0544957874015748
11
1.8814482677165354
21
-0.041483031496063
0
LINE
8
BLACK
6
CONTINUOUS
10
1.8814482677165354
20
-0.041483031496063
11
1.8775490551181102
21
-0.0279486220472441
0
LINE
8
BLACK
6
CONTINUOUS
10
1.8775490551181102
20
-0.0279486220472441
11
1.8751897637795276
21
-0.0140627559055118
0
LINE
8
BLACK
6
CONTINUOUS
10
1.8751897637795276
20
-0.0140627559055118
11
1.8744000000000001
21
0.
0
LINE
8
BLACK
6
CONTINUOUS
10
1.8744000000000001
20
0.
11
1.8751897637795276
21
0.0140627559055118
0
LINE
8
BLACK
6
CONTINUOUS
10
1.8751897637795276
20
0.0140627559055118
11
1.8775490551181102
21
0.0279486220472441
0
LINE
8
BLACK
6
CONTINUOUS
10
1.8775490551181102
20
0.0279486220472441
11
1.8814482677165354
21
0.041483031496063
0
LINE
8
BLACK
6
CONTINUOUS
10
1.8814482677165354
20
0.041483031496063
11
1.8868383070866142
21
0.0544957874015748
0
LINE
8
BLACK
6
CONTINUOUS
10
1.8868383070866142
20
0.0544957874015748
11
1.8936514566929132
21
0.0668232283464567
0
LINE
8
BLACK
6
CONTINUOUS
10
1.8936514566929132
20
0.0668232283464567
11
1.9018019685039369
21
0.0783103149606299
0
LINE
8
BLACK
6
CONTINUOUS
10
1.9018019685039369
20
0.0783103149606299
11
1.9111874015748032
21
0.0888125984251968
0
LINE
8
BLACK
6
CONTINUOUS
10
1.9111874015748032
20
0.0888125984251968
11
1.9216896850393701
21
0.098198031496063
0
LINE
8
BLACK
6
CONTINUOUS
10
1.9216896850393701
20
0.098198031496063
11
1.9331767716535433
21
0.1063485433070866
0
LINE
8
BLACK
6
CONTINUOUS
10
1.9331767716535433
20
0.1063485433070866
11
1.9455042125984252
21
0.1131616929133858
0
LINE
8
BLACK
6
CONTINUOUS
10
1.9455042125984252
20
0.1131616929133858
11
1.958516968503937
21
0.1185517322834646
0
LINE
8
BLACK
6
CONTINUOUS
10
1.958516968503937
20
0.1185517322834646
11
1.9720513779527558
21
0.1224509448818898
0
LINE
8
BLACK
6
CONTINUOUS
10
1.9720513779527558
20
0.1224509448818898
11
1.9859372440944882
21
0.1248102362204724
0
LINE
8
BLACK
6
CONTINUOUS
10
1.9859372440944882
20
0.1248102362204724
11
2.
21
0.1256
0
LINE
8
BLACK
6
CONTINUOUS
10
2.
20
0.1256
11
2.014062755905512
21
0.1248102362204724
0
LINE
8
BLACK
6
CONTINUOUS
10
1.889961653543307
20
-0.0128616535433071
11
1.8921988582677165
21
-0.0255493307086614
0
LINE
8
BLACK
6
CONTINUOUS
10
1.8921988582677165
20
-0.0255493307086614
11
1.8958938582677165
21
-0.0378915354330709
0
LINE
8
BLACK
6
CONTINUOUS
10
1.8958938582677165
20
-0.0378915354330709
11
1.9009967322834644
21
-0.0497212992125984
0
LINE
8
BLACK
6
CONTINUOUS
10
1.9009967322834644
20
-0.0497212992125984
11
1.9074384251968504
21
-0.0608787007874016
0
LINE
8
BLACK
6
CONTINUOUS
10
1.9074384251968504
20
-0.0608787007874016
11
1.9151318897637795
21
-0.0712127952755905
0
LINE
8
BLACK
6
CONTINUOUS
10
1.9151318897637795
20
-0.0712127952755905
11
1.923973031496063
21
-0.0805838582677165
0
LINE
8
BLACK
6
CONTINUOUS
10
1.923973031496063
20
-0.0805838582677165
11
1.9338423228346455
21
-0.088865157480315
0
LINE
8
BLACK
6
CONTINUOUS
10
1.9338423228346455
20
-0.088865157480315
11
1.9446062598425196
21
-0.0959447244094488
0
LINE
8
BLACK
6
CONTINUOUS
10
1.9446062598425196
20
-0.0959447244094488
11
1.9561193307086613
21
-0.101726811023622
0
LINE
8
BLACK
6
CONTINUOUS
10
1.9561193307086613
20
-0.101726811023622
11
1.9682257874015747
21
-0.106133188976378
0
LINE
8
BLACK
6
CONTINUOUS
10
1.9682257874015747
20
-0.106133188976378
11
1.980761968503937
21
-0.1091043307086614
0
LINE
8
BLACK
6
CONTINUOUS
10
1.980761968503937
20
-0.1091043307086614
11
1.9935582677165353
21
-0.1106
0
LINE
8
BLACK
6
CONTINUOUS
10
1.9935582677165353
20
-0.1106
11
2.0064417322834647
21
-0.1106
0
LINE
8
BLACK
6
CONTINUOUS
10
2.0064417322834647
20
-0.1106
11
2.0192380314960627
21
-0.1091043307086614
0
LINE
8
BLACK
6
CONTINUOUS
10
2.0192380314960627
20
-0.1091043307086614
11
2.0317742125984251
21
-0.106133188976378
0
LINE
8
BLACK
6
CONTINUOUS
10
2.0317742125984251
20
-0.106133188976378
11
2.0438806692913385
21
-0.101726811023622
0
LINE
8
BLACK
6
CONTINUOUS
10
2.0438806692913385
20
-0.101726811023622
11
2.0553937401574802
21
-0.0959447244094488
0
LINE
8
BLACK
6
CONTINUOUS
10
2.0553937401574802
20
-0.0959447244094488
11
2.0661576771653545
21
-0.088865157480315
0
LINE
8
BLACK
6
CONTINUOUS
10
2.0661576771653545
20
-0.088865157480315
11
2.0760269685039368
21
-0.0805838582677165
0
LINE
8
BLACK
6
CONTINUOUS
10
2.0760269685039368
20
-0.0805838582677165
11
2.0848681102362203
21
-0.0712127952755905
0
LINE
8
BLACK
6
CONTINUOUS
10
2.0848681102362203
20
-0.0712127952755905
11
2.0925615748031494
21
-0.0608787007874016
0
LINE
8
BLACK
6
CONTINUOUS
10
2.0925615748031494
20
-0.0608787007874016
11
2.0990032677165353
21
-0.0497212992125984
0
LINE
8
BLACK
6
CONTINUOUS
10
2.0990032677165353
20
-0.0497212992125984
11
2.1041061417322835
21
-0.0378915354330709
0
LINE
8
BLACK
6
CONTINUOUS
10
2.1041061417322835
20
-0.0378915354330709
11
2.1078011417322835
21
-0.0255493307086614
0
LINE
8
BLACK
6
CONTINUOUS
10
2.1078011417322835
20
-0.0255493307086614
11
2.110038346456693
21
-0.0128616535433071
0
LINE
8
BLACK
6
CONTINUOUS
10
2.110038346456693
20
-0.0128616535433071
11
2.1107874409448817
21
0.
0
LINE
8
BLACK
6
CONTINUOUS
10
2.1107874409448817
20
0.
11
2.110038346456693
21
0.0128616535433071
0
LINE
8
BLACK
6
CONTINUOUS
10
2.110038346456693
20
0.0128616535433071
11
2.1078011417322835
21
0.0255493307086614
0
LINE
8
BLACK
6
CONTINUOUS
10
2.1078011417322835
20
0.0255493307086614
11
2.1041061417322835
21
0.0378915354330709
0
LINE
8
BLACK
6
CONTINUOUS
10
2.1041061417322835
20
0.0378915354330709
11
2.0990032677165353
21
0.0497212992125984
0
LINE
8
BLACK
6
CONTINUOUS
10
2.0990032677165353
20
0.0497212992125984
11
2.0925615748031494
21
0.0608787007874016
0
LINE
8
BLACK
6
CONTINUOUS
10
2.0925615748031494
20
0.0608787007874016
11
2.0848681102362203
21
0.0712127952755905
0
LINE
8
BLACK
6
CONTINUOUS
10
2.0848681102362203
20
0.0712127952755905
11
2.0760269685039368
21
0.0805838582677165
0
LINE
8
BLACK
6
CONTINUOUS
10
2.0760269685039368
20
0.0805838582677165
11
2.0661576771653545
21
0.088865157480315
0
LINE
8
BLACK
6
CONTINUOUS
10
2.0661576771653545
20
0.088865157480315
11
2.0553937401574802
21
0.0959447244094488
0
LINE
8
BLACK
6
CONTINUOUS
10
2.0553937401574802
20
0.0959447244094488
11
2.0438806692913385
21
0.101726811023622
0
LINE
8
BLACK
6
CONTINUOUS
10
2.0438806692913385
20
0.101726811023622
11
2.0317742125984251
21
0.106133188976378
0
LINE
8
BLACK
6
CONTINUOUS
10
2.0317742125984251
20
0.106133188976378
11
2.0192380314960627
21
0.1091043307086614
0
LINE
8
BLACK
6
CONTINUOUS
10
2.0192380314960627
20
0.1091043307086614
11
2.0064417322834647
21
0.1106
0
LINE
8
BLACK
6
CONTINUOUS
10
2.0064417322834647
20
0.1106
11
1.9935582677165353
21
0.1106
0
LINE
8
BLACK
6
CONTINUOUS
10
1.9935582677165353
20
0.1106
11
1.980761968503937
21
0.1091043307086614
0
LINE
8
BLACK
6
CONTINUOUS
10
1.980761968503937
20
0.1091043307086614
11
1.9682257874015747
21
0.106133188976378
0
LINE
8
BLACK
6
CONTINUOUS
10
1.9682257874015747
20
0.106133188976378
11
1.9561193307086613
21
0.101726811023622
0
LINE
8
BLACK
6
CONTINUOUS
10
1.9561193307086613
20
0.101726811023622
11
1.9446062598425196
21
0.0959447244094488
0
LINE
8
BLACK
6
CONTINUOUS
10
1.9446062598425196
20
0.0959447244094488
11
1.9338423228346455
21
0.088865157480315
0
LINE
8
BLACK
6
CONTINUOUS
10
1.9338423228346455
20
0.088865157480315
11
1.923973031496063
21
0.0805838582677165
0
LINE
8
BLACK
6
CONTINUOUS
10
1.923973031496063
20
0.0805838582677165
11
1.9151318897637795
21
0.0712127952755905
0
LINE
8
BLACK
6
CONTINUOUS
10
1.9151318897637795
20
0.0712127952755905
11
1.9074384251968504
21
0.0608787007874016
0
LINE
8
BLACK
6
CONTINUOUS
10
1.9074384251968504
20
0.0608787007874016
11
1.9009967322834644
21
0.0497212992125984
0
LINE
8
BLACK
6
CONTINUOUS
10
1.9009967322834644
20
0.0497212992125984
11
1.8958938582677165
21
0.0378915354330709
0
LINE
8
BLACK
6
CONTINUOUS
10
1.8958938582677165
20
0.0378915354330709
11
1.8921988582677165
21
0.0255493307086614
0
LINE
8
BLACK
6
CONTINUOUS
10
1.8921988582677165
20
0.0255493307086614
11
1.889961653543307
21
0.0128616535433071
0
LINE
8
BLACK
6
CONTINUOUS
10
1.889961653543307
20
0.0128616535433071
11
1.8892125590551181
21
0.
0
LINE
8
BLACK
6
CONTINUOUS
10
1.8892125590551181
20
0.
11
1.889961653543307
21
-0.0128616535433071
0
LINE
8
BLACK
6
CONTINUOUS
10
0.9811618897637795
20
0.1002938582677165
11
0.9822262992125984
21
0.0998529527559055
0
LINE
8
BLACK
6
CONTINUOUS
10
0.9822262992125984
20
0.0998529527559055
11
0.9830409448818898
21
0.0990383070866142
0
LINE
8
BLACK
6
CONTINUOUS
10
0.9830409448818898
20
0.0990383070866142
11
0.9834818503937007
21
0.0979738976377953
0
LINE
8
BLACK
6
CONTINUOUS
10
0.9834818503937007
20
0.0979738976377953
11
0.9834818503937007
21
0.0968217716535433
0
LINE
8
BLACK
6
CONTINUOUS
10
0.9834818503937007
20
0.0968217716535433
11
0.9830409448818898
21
0.0957573622047244
0
LINE
8
BLACK
6
CONTINUOUS
10
0.9830409448818898
20
0.0957573622047244
11
0.9822262992125984
21
0.0949427165354331
0
LINE
8
BLACK
6
CONTINUOUS
10
0.9822262992125984
20
0.0949427165354331
11
0.9811618897637795
21
0.094501811023622
0
LINE
8
BLACK
6
CONTINUOUS
10
0.9811618897637795
20
0.094501811023622
11
0.9805858267716535
21
0.0944450787401575
0
LINE
8
BLACK
6
CONTINUOUS
10
0.9805858267716535
20
0.0944450787401575
11
0.9652172440944882
21
0.0944450787401575
0
LINE
8
BLACK
6
CONTINUOUS
10
0.9652172440944882
20
0.0944450787401575
11
0.9826737401574803
21
0.0769885826771654
0
LINE
8
BLACK
6
CONTINUOUS
10
0.9826737401574803
20
0.0769885826771654
11
0.9830409448818898
21
0.0765411417322835
0
LINE
8
BLACK
6
CONTINUOUS
10
0.9830409448818898
20
0.0765411417322835
11
0.9834818503937007
21
0.0754767322834646
0
LINE
8
BLACK
6
CONTINUOUS
10
0.9834818503937007
20
0.0754767322834646
11
0.9834818503937007
21
0.0743246456692913
0
LINE
8
BLACK
6
CONTINUOUS
10
0.9834818503937007
20
0.0743246456692913
11
0.9830409448818898
21
0.0732601968503937
0
LINE
8
BLACK
6
CONTINUOUS
10
0.9830409448818898
20
0.0732601968503937
11
0.9822262992125984
21
0.0724455511811024
0
LINE
8
BLACK
6
CONTINUOUS
10
0.9822262992125984
20
0.0724455511811024
11
0.9811618503937007
21
0.0720046456692913
0
LINE
8
BLACK
6
CONTINUOUS
10
0.9811618503937007
20
0.0720046456692913
11
0.9800097637795275
21
0.0720046456692913
0
LINE
8
BLACK
6
CONTINUOUS
10
0.9800097637795275
20
0.0720046456692913
11
0.9789453543307086
21
0.0724455511811024
0
LINE
8
BLACK
6
CONTINUOUS
10
0.9789453543307086
20
0.0724455511811024
11
0.9784979133858267
21
0.0728127559055118
0
LINE
8
BLACK
6
CONTINUOUS
10
0.9784979133858267
20
0.0728127559055118
11
0.9634358661417323
21
0.0878748031496063
0
LINE
8
BLACK
6
CONTINUOUS
10
0.9634358661417323
20
0.0878748031496063
11
0.9429874015748031
21
0.0725384645669291
0
LINE
8
BLACK
6
CONTINUOUS
10
0.9429874015748031
20
0.0725384645669291
11
0.9424925196850393
21
0.0722382283464567
0
LINE
8
BLACK
6
CONTINUOUS
10
0.9424925196850393
20
0.0722382283464567
11
0.9413764566929134
21
0.0719522834645669
0
LINE
8
BLACK
6
CONTINUOUS
10
0.9413764566929134
20
0.0719522834645669
11
0.9402359448818898
21
0.0721152362204724
0
LINE
8
BLACK
6
CONTINUOUS
10
0.9402359448818898
20
0.0721152362204724
11
0.9392445669291338
21
0.0727022047244094
0
LINE
8
BLACK
6
CONTINUOUS
10
0.9392445669291338
20
0.0727022047244094
11
0.9385533070866141
21
0.0736238976377953
0
LINE
8
BLACK
6
CONTINUOUS
10
0.9385533070866141
20
0.0736238976377953
11
0.9382673622047244
21
0.0747399606299213
0
LINE
8
BLACK
6
CONTINUOUS
10
0.9382673622047244
20
0.0747399606299213
11
0.9384303149606299
21
0.0758804724409449
0
LINE
8
BLACK
6
CONTINUOUS
10
0.9384303149606299
20
0.0758804724409449
11
0.9390172834645669
21
0.0768718503937008
0
LINE
8
BLACK
6
CONTINUOUS
10
0.9390172834645669
20
0.0768718503937008
11
0.939444094488189
21
0.077262874015748
0
LINE
8
BLACK
6
CONTINUOUS
10
0.939444094488189
20
0.077262874015748
11
0.9592176377952756
21
0.092093031496063
0
LINE
8
BLACK
6
CONTINUOUS
10
0.9592176377952756
20
0.092093031496063
11
0.956865590551181
21
0.0944450787401575
0
LINE
8
BLACK
6
CONTINUOUS
10
0.956865590551181
20
0.0944450787401575
11
0.941215748031496
21
0.0944450787401575
0
LINE
8
BLACK
6
CONTINUOUS
10
0.941215748031496
20
0.0944450787401575
11
0.94063968503937
21
0.094501811023622
0
LINE
8
BLACK
6
CONTINUOUS
10
0.94063968503937
20
0.094501811023622
11
0.9395752755905512
21
0.0949427165354331
0
LINE
8
BLACK
6
CONTINUOUS
10
0.9395752755905512
20
0.0949427165354331
11
0.9387606299212599
21
0.0957573622047244
0
LINE
8
BLACK
6
CONTINUOUS
10
0.9387606299212599
20
0.0957573622047244
11
0.9383197244094488
21
0.0968217716535433
0
LINE
8
BLACK
6
CONTINUOUS
10
0.9383197244094488
20
0.0968217716535433
11
0.9383197244094488
21
0.0979738976377953
0
LINE
8
BLACK
6
CONTINUOUS
10
0.9383197244094488
20
0.0979738976377953
11
0.9387606299212599
21
0.0990383070866142
0
LINE
8
BLACK
6
CONTINUOUS
10
0.9387606299212599
20
0.0990383070866142
11
0.9395752755905512
21
0.0998529527559055
0
LINE
8
BLACK
6
CONTINUOUS
10
0.9395752755905512
20
0.0998529527559055
11
0.94063968503937
21
0.1002938582677165
0
LINE
8
BLACK
6
CONTINUOUS
10
0.94063968503937
20
0.1002938582677165
11
0.941215748031496
21
0.1003505905511811
0
LINE
8
BLACK
6
CONTINUOUS
10
0.941215748031496
20
0.1003505905511811
11
0.9805858267716535
21
0.1003505905511811
0
LINE
8
BLACK
6
CONTINUOUS
10
0.9805858267716535
20
0.1003505905511811
11
0.9811618897637795
21
0.1002938582677165
0
LINE
8
BLACK
6
CONTINUOUS
10
1.1548823622047244
20
0.1040340157480315
11
1.1559467716535432
21
0.1035931102362205
0
LINE
8
BLACK
6
CONTINUOUS
10
1.1559467716535432
20
0.1035931102362205
11
1.1567614173228347
21
0.1027784645669291
0
LINE
8
BLACK
6
CONTINUOUS
10
1.1567614173228347
20
0.1027784645669291
11
1.1572023228346457
21
0.1017140551181102
0
LINE
8
BLACK
6
CONTINUOUS
10
1.1572023228346457
20
0.1017140551181102
11
1.1572023228346457
21
0.1005619291338583
0
LINE
8
BLACK
6
CONTINUOUS
10
1.1572023228346457
20
0.1005619291338583
11
1.1567614173228347
21
0.0994975196850394
0
LINE
8
BLACK
6
CONTINUOUS
10
1.1567614173228347
20
0.0994975196850394
11
1.1559467716535432
21
0.098682874015748
0
LINE
8
BLACK
6
CONTINUOUS
10
1.1559467716535432
20
0.098682874015748
11
1.1548823622047244
21
0.098241968503937
0
LINE
8
BLACK
6
CONTINUOUS
10
1.1548823622047244
20
0.098241968503937
11
1.1543062992125983
21
0.0981852362204724
0
LINE
8
BLACK
6
CONTINUOUS
10
1.1543062992125983
20
0.0981852362204724
11
1.1389377165354331
21
0.0981852362204724
0
LINE
8
BLACK
6
CONTINUOUS
10
1.1389377165354331
20
0.0981852362204724
11
1.1563942125984252
21
0.0807287401574803
0
LINE
8
BLACK
6
CONTINUOUS
10
1.1563942125984252
20
0.0807287401574803
11
1.1567614173228347
21
0.0802812992125984
0
LINE
8
BLACK
6
CONTINUOUS
10
1.1567614173228347
20
0.0802812992125984
11
1.1572023228346457
21
0.0792168897637795
0
LINE
8
BLACK
6
CONTINUOUS
10
1.1572023228346457
20
0.0792168897637795
11
1.1572023228346457
21
0.0780648031496063
0
LINE
8
BLACK
6
CONTINUOUS
10
1.1572023228346457
20
0.0780648031496063
11
1.1567614173228347
21
0.0770003543307087
0
LINE
8
BLACK
6
CONTINUOUS
10
1.1567614173228347
20
0.0770003543307087
11
1.1559467716535432
21
0.0761857086614173
0
LINE
8
BLACK
6
CONTINUOUS
10
1.1559467716535432
20
0.0761857086614173
11
1.1548823228346456
21
0.0757448031496063
0
LINE
8
BLACK
6
CONTINUOUS
10
1.1548823228346456
20
0.0757448031496063
11
1.1537302362204724
21
0.0757448031496063
0
LINE
8
BLACK
6
CONTINUOUS
10
1.1537302362204724
20
0.0757448031496063
11
1.1526658267716534
21
0.0761857086614173
0
LINE
8
BLACK
6
CONTINUOUS
10
1.1526658267716534
20
0.0761857086614173
11
1.1522183858267716
21
0.0765529133858268
0
LINE
8
BLACK
6
CONTINUOUS
10
1.1522183858267716
20
0.0765529133858268
11
1.1371563385826771
21
0.0916149606299213
0
LINE
8
BLACK
6
CONTINUOUS
10
1.1371563385826771
20
0.0916149606299213
11
1.1167078740157481
21
0.0762786220472441
0
LINE
8
BLACK
6
CONTINUOUS
10
1.1167078740157481
20
0.0762786220472441
11
1.1162129921259842
21
0.0759783858267716
0
LINE
8
BLACK
6
CONTINUOUS
10
1.1162129921259842
20
0.0759783858267716
11
1.1150969291338582
21
0.0756924409448819
0
LINE
8
BLACK
6
CONTINUOUS
10
1.1150969291338582
20
0.0756924409448819
11
1.1139564173228347
21
0.0758553937007874
0
LINE
8
BLACK
6
CONTINUOUS
10
1.1139564173228347
20
0.0758553937007874
11
1.1129650393700787
21
0.0764423622047244
0
LINE
8
BLACK
6
CONTINUOUS
10
1.1129650393700787
20
0.0764423622047244
11
1.112273779527559
21
0.0773640551181102
0
LINE
8
BLACK
6
CONTINUOUS
10
1.112273779527559
20
0.0773640551181102
11
1.1119878346456693
21
0.0784801181102362
0
LINE
8
BLACK
6
CONTINUOUS
10
1.1119878346456693
20
0.0784801181102362
11
1.1121507874015748
21
0.0796206299212598
0
LINE
8
BLACK
6
CONTINUOUS
10
1.1121507874015748
20
0.0796206299212598
11
1.1127377559055118
21
0.0806120078740157
0
LINE
8
BLACK
6
CONTINUOUS
10
1.1127377559055118
20
0.0806120078740157
11
1.1131645669291339
21
0.081003031496063
0
LINE
8
BLACK
6
CONTINUOUS
10
1.1131645669291339
20
0.081003031496063
11
1.1329381102362204
21
0.095833188976378
0
LINE
8
BLACK
6
CONTINUOUS
10
1.1329381102362204
20
0.095833188976378
11
1.1305860629921261
21
0.0981852362204724
0
LINE
8
BLACK
6
CONTINUOUS
10
1.1305860629921261
20
0.0981852362204724
11
1.1149362204724409
21
0.0981852362204724
0
LINE
8
BLACK
6
CONTINUOUS
10
1.1149362204724409
20
0.0981852362204724
11
1.114360157480315
21
0.098241968503937
0
LINE
8
BLACK
6
CONTINUOUS
10
1.114360157480315
20
0.098241968503937
11
1.113295748031496
21
0.098682874015748
0
LINE
8
BLACK
6
CONTINUOUS
10
1.113295748031496
20
0.098682874015748
11
1.1124811023622048
21
0.0994975196850394
0
LINE
8
BLACK
6
CONTINUOUS
10
1.1124811023622048
20
0.0994975196850394
11
1.1120401968503937
21
0.1005619291338583
0
LINE
8
BLACK
6
CONTINUOUS
10
1.1120401968503937
20
0.1005619291338583
11
1.1120401968503937
21
0.1017140551181102
0
LINE
8
BLACK
6
CONTINUOUS
10
1.1120401968503937
20
0.1017140551181102
11
1.1124811023622048
21
0.1027784645669291
0
LINE
8
BLACK
6
CONTINUOUS
10
1.1124811023622048
20
0.1027784645669291
11
1.113295748031496
21
0.1035931102362205
0
LINE
8
BLACK
6
CONTINUOUS
10
1.113295748031496
20
0.1035931102362205
11
1.114360157480315
21
0.1040340157480315
0
LINE
8
BLACK
6
CONTINUOUS
10
1.114360157480315
20
0.1040340157480315
11
1.1149362204724409
21
0.1040907480314961
0
LINE
8
BLACK
6
CONTINUOUS
10
1.1149362204724409
20
0.1040907480314961
11
1.1543062992125983
21
0.1040907480314961
0
LINE
8
BLACK
6
CONTINUOUS
10
1.1543062992125983
20
0.1040907480314961
11
1.1548823622047244
21
0.1040340157480315
0
LINE
8
BLACK
6
CONTINUOUS
10
0.8074686220472441
20
1.1621219291338583
11
0.8076790551181102
21
1.1621069685039369
0
LINE
8
BLACK
6
CONTINUOUS
10
0.8076790551181102
20
1.1621069685039369
11
0.8080101574803149
21
1.1619414173228346
0
LINE
8
BLACK
6
CONTINUOUS
10
0.8080101574803149
20
1.1619414173228346
11
0.8083614173228346
21
1.1618243307086613
0
LINE
8
BLACK
6
CONTINUOUS
10
0.8083614173228346
20
1.1618243307086613
11
0.8085207480314961
21
1.1616861417322835
0
LINE
8
BLACK
6
CONTINUOUS
10
0.8085207480314961
20
1.1616861417322835
11
0.8087094881889764
21
1.1615917716535433
0
LINE
8
BLACK
6
CONTINUOUS
10
0.8087094881889764
20
1.1615917716535433
11
0.8089521259842519
21
1.1613120472440945
0
LINE
8
BLACK
6
CONTINUOUS
10
0.8089521259842519
20
1.1613120472440945
11
0.8092318110236221
21
1.1610694488188975
0
LINE
8
BLACK
6
CONTINUOUS
10
0.8092318110236221
20
1.1610694488188975
11
0.8093261023622047
21
1.1608808267716535
0
LINE
8
BLACK
6
CONTINUOUS
10
0.8093261023622047
20
1.1608808267716535
11
0.8094643700787402
21
1.1607214173228346
0
LINE
8
BLACK
6
CONTINUOUS
10
0.8094643700787402
20
1.1607214173228346
11
0.8097003543307086
21
1.1601928346456694
0
LINE
8
BLACK
6
CONTINUOUS
10
0.8097003543307086
20
1.1601928346456694
11
0.8228237007874015
21
1.1208227559055117
0
LINE
8
BLACK
6
CONTINUOUS
10
0.8228237007874015
20
1.1208227559055117
11
0.8229520472440944
21
1.1202583464566929
0
LINE
8
BLACK
6
CONTINUOUS
10
0.8229520472440944
20
1.1202583464566929
11
0.8228703543307087
21
1.1191091338582677
0
LINE
8
BLACK
6
CONTINUOUS
10
0.8228703543307087
20
1.1191091338582677
11
0.8227388582677165
21
1.1188461811023622
0
LINE
8
BLACK
6
CONTINUOUS
10
0.8227388582677165
20
1.1188461811023622
11
0.8231959842519685
21
1.1190355118110236
0
LINE
8
BLACK
6
CONTINUOUS
10
0.8231959842519685
20
1.1190355118110236
11
0.8237720472440945
21
1.1190922440944882
0
LINE
8
BLACK
6
CONTINUOUS
10
0.8237720472440945
20
1.1190922440944882
11
0.8537682677165355
21
1.1190922440944882
0
LINE
8
BLACK
6
CONTINUOUS
10
0.8537682677165355
20
1.1190922440944882
11
0.8543443307086614
21
1.1190355118110236
0
LINE
8
BLACK
6
CONTINUOUS
10
0.8543443307086614
20
1.1190355118110236
11
0.8554087401574803
21
1.1185946062992125
0
LINE
8
BLACK
6
CONTINUOUS
10
0.8554087401574803
20
1.1185946062992125
11
0.8562233858267716
21
1.1177799606299212
0
LINE
8
BLACK
6
CONTINUOUS
10
0.8562233858267716
20
1.1177799606299212
11
0.8566642913385827
21
1.1167155511811024
0
LINE
8
BLACK
6
CONTINUOUS
10
0.8566642913385827
20
1.1167155511811024
11
0.8566642913385827
21
1.1155634251968505
0
LINE
8
BLACK
6
CONTINUOUS
10
0.8566642913385827
20
1.1155634251968505
11
0.8562233858267716
21
1.1144990157480315
0
LINE
8
BLACK
6
CONTINUOUS
10
0.8562233858267716
20
1.1144990157480315
11
0.8554087401574803
21
1.1136843700787402
0
LINE
8
BLACK
6
CONTINUOUS
10
0.8554087401574803
20
1.1136843700787402
11
0.8543443307086614
21
1.1132434645669291
0
LINE
8
BLACK
6
CONTINUOUS
10
0.8543443307086614
20
1.1132434645669291
11
0.8537682677165355
21
1.1131867322834645
0
LINE
8
BLACK
6
CONTINUOUS
10
0.8537682677165355
20
1.1131867322834645
11
0.8237720472440945
21
1.1131867322834645
0
LINE
8
BLACK
6
CONTINUOUS
10
0.8237720472440945
20
1.1131867322834645
11
0.8231959842519685
21
1.1132434645669291
0
LINE
8
BLACK
6
CONTINUOUS
10
0.8231959842519685
20
1.1132434645669291
11
0.8221315748031496
21
1.1136843700787402
0
LINE
8
BLACK
6
CONTINUOUS
10
0.8221315748031496
20
1.1136843700787402
11
0.8213169291338582
21
1.1144990157480315
0
LINE
8
BLACK
6
CONTINUOUS
10
0.8213169291338582
20
1.1144990157480315
11
0.8208760236220473
21
1.1155634251968505
0
LINE
8
BLACK
6
CONTINUOUS
10
0.8208760236220473
20
1.1155634251968505
11
0.8208760236220473
21
1.1167155511811024
0
LINE
8
BLACK
6
CONTINUOUS
10
0.8208760236220473
20
1.1167155511811024
11
0.8210707874015748
21
1.1171858267716535
0
LINE
8
BLACK
6
CONTINUOUS
10
0.8210707874015748
20
1.1171858267716535
11
0.8203917716535433
21
1.1169594488188976
0
LINE
8
BLACK
6
CONTINUOUS
10
0.8203917716535433
20
1.1169594488188976
11
0.8192425590551181
21
1.1170411417322834
0
LINE
8
BLACK
6
CONTINUOUS
10
0.8192425590551181
20
1.1170411417322834
11
0.818212125984252
21
1.117556377952756
0
LINE
8
BLACK
6
CONTINUOUS
10
0.818212125984252
20
1.117556377952756
11
0.8174572440944882
21
1.1184267322834645
0
LINE
8
BLACK
6
CONTINUOUS
10
0.8174572440944882
20
1.1184267322834645
11
0.8172212598425197
21
1.1189552755905512
0
LINE
8
BLACK
6
CONTINUOUS
10
0.8172212598425197
20
1.1189552755905512
11
0.8141447244094489
21
1.1281848818897637
0
LINE
8
BLACK
6
CONTINUOUS
10
0.8141447244094489
20
1.1281848818897637
11
0.7996535433070866
21
1.1281848818897637
0
LINE
8
BLACK
6
CONTINUOUS
10
0.7996535433070866
20
1.1281848818897637
11
0.7965770078740158
21
1.1189552755905512
0
LINE
8
BLACK
6
CONTINUOUS
10
0.7965770078740158
20
1.1189552755905512
11
0.7963410236220472
21
1.1184266929133857
0
LINE
8
BLACK
6
CONTINUOUS
10
0.7963410236220472
20
1.1184266929133857
11
0.7955861417322835
21
1.1175563385826772
0
LINE
8
BLACK
6
CONTINUOUS
10
0.7955861417322835
20
1.1175563385826772
11
0.7945557086614173
21
1.1170411417322834
0
LINE
8
BLACK
6
CONTINUOUS
10
0.7945557086614173
20
1.1170411417322834
11
0.7934064960629921
21
1.1169594488188976
0
LINE
8
BLACK
6
CONTINUOUS
10
0.7934064960629921
20
1.1169594488188976
11
0.7923134645669291
21
1.117323779527559
0
LINE
8
BLACK
6
CONTINUOUS
10
0.7923134645669291
20
1.117323779527559
11
0.7914431102362205
21
1.1180786614173228
0
LINE
8
BLACK
6
CONTINUOUS
10
0.7914431102362205
20
1.1180786614173228
11
0.7909279133858268
21
1.119109094488189
0
LINE
8
BLACK
6
CONTINUOUS
10
0.7909279133858268
20
1.119109094488189
11
0.7908462204724409
21
1.1202583070866141
0
LINE
8
BLACK
6
CONTINUOUS
10
0.7908462204724409
20
1.1202583070866141
11
0.7909745669291338
21
1.1208227559055117
0
LINE
8
BLACK
6
CONTINUOUS
10
0.7909745669291338
20
1.1208227559055117
11
0.8040979133858267
21
1.1601928346456694
0
LINE
8
BLACK
6
CONTINUOUS
10
0.8040979133858267
20
1.1601928346456694
11
0.8043338976377953
21
1.1607213779527559
0
LINE
8
BLACK
6
CONTINUOUS
10
0.8043338976377953
20
1.1607213779527559
11
0.8044720866141732
21
1.160880748031496
0
LINE
8
BLACK
6
CONTINUOUS
10
0.8044720866141732
20
1.160880748031496
11
0.8045664566929134
21
1.1610694488188975
0
LINE
8
BLACK
6
CONTINUOUS
10
0.8045664566929134
20
1.1610694488188975
11
0.8048462992125984
21
1.1613122047244093
0
LINE
8
BLACK
6
CONTINUOUS
10
0.8048462992125984
20
1.1613122047244093
11
0.8050887795275591
21
1.1615917322834646
0
LINE
8
BLACK
6
CONTINUOUS
10
0.8050887795275591
20
1.1615917322834646
11
0.8052773228346457
21
1.1616860236220472
0
LINE
8
BLACK
6
CONTINUOUS
10
0.8052773228346457
20
1.1616860236220472
11
0.8054368110236221
21
1.1618243307086613
0
LINE
8
BLACK
6
CONTINUOUS
10
0.8054368110236221
20
1.1618243307086613
11
0.8057881889763779
21
1.1619414566929134
0
LINE
8
BLACK
6
CONTINUOUS
10
0.8057881889763779
20
1.1619414566929134
11
0.8061192125984252
21
1.1621069685039369
0
LINE
8
BLACK
6
CONTINUOUS
10
0.8061192125984252
20
1.1621069685039369
11
0.8063296062992126
21
1.1621219291338583
0
LINE
8
BLACK
6
CONTINUOUS
10
0.8063296062992126
20
1.1621219291338583
11
0.8065298425196851
21
1.1621886614173229
0
LINE
8
BLACK
6
CONTINUOUS
10
0.8065298425196851
20
1.1621886614173229
11
0.8068991338582677
21
1.1621624409448819
0
LINE
8
BLACK
6
CONTINUOUS
10
0.8068991338582677
20
1.1621624409448819
11
0.8072684251968504
21
1.1621886614173229
0
LINE
8
BLACK
6
CONTINUOUS
10
0.8072684251968504
20
1.1621886614173229
11
0.8074686220472441
21
1.1621219291338583
0
LINE
8
BLACK
6
CONTINUOUS
10
0.8016220472440945
20
1.1340903937007873
11
0.812176220472441
21
1.1340903937007873
0
LINE
8
BLACK
6
CONTINUOUS
10
0.812176220472441
20
1.1340903937007873
11
0.8068991338582677
21
1.1499216929133858
0
LINE
8
BLACK
6
CONTINUOUS
10
0.8068991338582677
20
1.1499216929133858
11
0.8016220472440945
21
1.1340903937007873
0
LINE
8
BLACK
6
CONTINUOUS
10
0.7831032283464566
20
1.1621551181102361
11
0.7841676377952755
21
1.1617142125984252
0
LINE
8
BLACK
6
CONTINUOUS
10
0.7841676377952755
20
1.1617142125984252
11
0.7849822834645669
21
1.1608995669291338
0
LINE
8
BLACK
6
CONTINUOUS
10
0.7849822834645669
20
1.1608995669291338
11
0.785423188976378
21
1.159835157480315
0
LINE
8
BLACK
6
CONTINUOUS
10
0.785423188976378
20
1.159835157480315
11
0.785423188976378
21
1.158683031496063
0
LINE
8
BLACK
6
CONTINUOUS
10
0.785423188976378
20
1.158683031496063
11
0.7849822834645669
21
1.157618622047244
0
LINE
8
BLACK
6
CONTINUOUS
10
0.7849822834645669
20
1.157618622047244
11
0.7841676377952755
21
1.1568039763779527
0
LINE
8
BLACK
6
CONTINUOUS
10
0.7841676377952755
20
1.1568039763779527
11
0.7831032283464566
21
1.1563630708661417
0
LINE
8
BLACK
6
CONTINUOUS
10
0.7831032283464566
20
1.1563630708661417
11
0.7825271653543306
21
1.1563063385826771
0
LINE
8
BLACK
6
CONTINUOUS
10
0.7825271653543306
20
1.1563063385826771
11
0.7667322834645669
21
1.1563063385826771
0
LINE
8
BLACK
6
CONTINUOUS
10
0.7667322834645669
20
1.1563063385826771
11
0.7667322834645669
21
1.1434642125984251
0
LINE
8
BLACK
6
CONTINUOUS
10
0.7667322834645669
20
1.1434642125984251
11
0.776902874015748
21
1.1434642125984251
0
LINE
8
BLACK
6
CONTINUOUS
10
0.776902874015748
20
1.1434642125984251
11
0.777478937007874
21
1.1434074803149605
0
LINE
8
BLACK
6
CONTINUOUS
10
0.777478937007874
20
1.1434074803149605
11
0.7785433464566929
21
1.1429665748031497
0
LINE
8
BLACK
6
CONTINUOUS
10
0.7785433464566929
20
1.1429665748031497
11
0.7793579921259842
21
1.1421519291338582
0
LINE
8
BLACK
6
CONTINUOUS
10
0.7793579921259842
20
1.1421519291338582
11
0.7797988976377953
21
1.1410875196850394
0
LINE
8
BLACK
6
CONTINUOUS
10
0.7797988976377953
20
1.1410875196850394
11
0.7797988976377953
21
1.1399353937007874
0
LINE
8
BLACK
6
CONTINUOUS
10
0.7797988976377953
20
1.1399353937007874
11
0.7793579921259842
21
1.1388709842519684
0
LINE
8
BLACK
6
CONTINUOUS
10
0.7793579921259842
20
1.1388709842519684
11
0.7785433464566929
21
1.1380563385826772
0
LINE
8
BLACK
6
CONTINUOUS
10
0.7785433464566929
20
1.1380563385826772
11
0.777478937007874
21
1.1376154330708661
0
LINE
8
BLACK
6
CONTINUOUS
10
0.777478937007874
20
1.1376154330708661
11
0.776902874015748
21
1.1375587007874015
0
LINE
8
BLACK
6
CONTINUOUS
10
0.776902874015748
20
1.1375587007874015
11
0.7667322834645669
21
1.1375587007874015
0
LINE
8
BLACK
6
CONTINUOUS
10
0.7667322834645669
20
1.1375587007874015
11
0.7667322834645669
21
1.1228417716535433
0
LINE
8
BLACK
6
CONTINUOUS
10
0.7667322834645669
20
1.1228417716535433
11
0.7825271653543306
21
1.1228417716535433
0
LINE
8
BLACK
6
CONTINUOUS
10
0.7825271653543306
20
1.1228417716535433
11
0.7831032283464566
21
1.1227850393700787
0
LINE
8
BLACK
6
CONTINUOUS
10
0.7831032283464566
20
1.1227850393700787
11
0.7841676377952755
21
1.1223441338582676
0
LINE
8
BLACK
6
CONTINUOUS
10
0.7841676377952755
20
1.1223441338582676
11
0.7849822834645669
21
1.1215294881889764
0
LINE
8
BLACK
6
CONTINUOUS
10
0.7849822834645669
20
1.1215294881889764
11
0.785423188976378
21
1.1204650787401575
0
LINE
8
BLACK
6
CONTINUOUS
10
0.785423188976378
20
1.1204650787401575
11
0.785423188976378
21
1.1193129527559056
0
LINE
8
BLACK
6
CONTINUOUS
10
0.785423188976378
20
1.1193129527559056
11
0.7849822834645669
21
1.1182485433070866
0
LINE
8
BLACK
6
CONTINUOUS
10
0.7849822834645669
20
1.1182485433070866
11
0.7841676377952755
21
1.1174338976377953
0
LINE
8
BLACK
6
CONTINUOUS
10
0.7841676377952755
20
1.1174338976377953
11
0.7831032283464566
21
1.1169929921259842
0
LINE
8
BLACK
6
CONTINUOUS
10
0.7831032283464566
20
1.1169929921259842
11
0.7825271653543306
21
1.1169362598425197
0
LINE
8
BLACK
6
CONTINUOUS
10
0.7825271653543306
20
1.1169362598425197
11
0.7637795275590551
21
1.1169362598425197
0
LINE
8
BLACK
6
CONTINUOUS
10
0.7637795275590551
20
1.1169362598425197
11
0.7632034645669291
21
1.1169929921259842
0
LINE
8
BLACK
6
CONTINUOUS
10
0.7632034645669291
20
1.1169929921259842
11
0.7621390551181102
21
1.1174338976377953
0
LINE
8
BLACK
6
CONTINUOUS
10
0.7621390551181102
20
1.1174338976377953
11
0.7613244094488189
21
1.1182485433070866
0
LINE
8
BLACK
6
CONTINUOUS
10
0.7613244094488189
20
1.1182485433070866
11
0.7608835039370079
21
1.1193129527559056
0
LINE
8
BLACK
6
CONTINUOUS
10
0.7608835039370079
20
1.1193129527559056
11
0.7608267716535433
21
1.1198890157480315
0
LINE
8
BLACK
6
CONTINUOUS
10
0.7608267716535433
20
1.1198890157480315
11
0.7608267716535433
21
1.1592590944881889
0
LINE
8
BLACK
6
CONTINUOUS
10
0.7608267716535433
20
1.1592590944881889
11
0.7608835039370079
21
1.159835157480315
0
LINE
8
BLACK
6
CONTINUOUS
10
0.7608835039370079
20
1.159835157480315
11
0.7613244094488189
21
1.1608995669291338
0
LINE
8
BLACK
6
CONTINUOUS
10
0.7613244094488189
20
1.1608995669291338
11
0.7621390551181102
21
1.1617142125984252
0
LINE
8
BLACK
6
CONTINUOUS
10
0.7621390551181102
20
1.1617142125984252
11
0.7632034645669291
21
1.1621551181102361
0
LINE
8
BLACK
6
CONTINUOUS
10
0.7632034645669291
20
1.1621551181102361
11
0.7637795275590551
21
1.1622118503937007
0
LINE
8
BLACK
6
CONTINUOUS
10
0.7637795275590551
20
1.1622118503937007
11
0.7825271653543306
21
1.1622118503937007
0
LINE
8
BLACK
6
CONTINUOUS
10
0.7825271653543306
20
1.1622118503937007
11
0.7831032283464566
21
1.1621551181102361
0
LINE
8
BLACK
6
CONTINUOUS
10
0.8787162992125984
20
1.1621551181102361
11
0.8788142913385827
21
1.1621145275590552
0
LINE
8
BLACK
6
CONTINUOUS
10
0.8788142913385827
20
1.1621145275590552
11
0.8789201181102362
21
1.1621070078740157
0
LINE
8
BLACK
6
CONTINUOUS
10
0.8789201181102362
20
1.1621070078740157
11
0.8794607480314961
21
1.1619001181102362
0
LINE
8
BLACK
6
CONTINUOUS
10
0.8794607480314961
20
1.1619001181102362
11
0.8832102755905512
21
1.1600253543307086
0
LINE
8
BLACK
6
CONTINUOUS
10
0.8832102755905512
20
1.1600253543307086
11
0.8834582677165355
21
1.1598692913385826
0
LINE
8
BLACK
6
CONTINUOUS
10
0.8834582677165355
20
1.1598692913385826
11
0.8835302362204724
21
1.1598394488188977
0
LINE
8
BLACK
6
CONTINUOUS
10
0.8835302362204724
20
1.1598394488188977
11
0.8836111811023621
21
1.1597729921259843
0
LINE
8
BLACK
6
CONTINUOUS
10
0.8836111811023621
20
1.1597729921259843
11
0.8837001574803149
21
1.1597170078740158
0
LINE
8
BLACK
6
CONTINUOUS
10
0.8837001574803149
20
1.1597170078740158
11
0.8837512992125984
21
1.1596580314960629
0
LINE
8
BLACK
6
CONTINUOUS
10
0.8837512992125984
20
1.1596580314960629
11
0.8839776771653544
21
1.1594722440944882
0
LINE
8
BLACK
6
CONTINUOUS
10
0.8839776771653544
20
1.1594722440944882
11
0.8877272047244095
21
1.1557227165354331
0
LINE
8
BLACK
6
CONTINUOUS
10
0.8877272047244095
20
1.1557227165354331
11
0.8880944488188977
21
1.1552752755905511
0
LINE
8
BLACK
6
CONTINUOUS
10
0.8880944488188977
20
1.1552752755905511
11
0.8881784645669291
21
1.1550724015748031
0
LINE
8
BLACK
6
CONTINUOUS
10
0.8881784645669291
20
1.1550724015748031
11
0.8883091338582677
21
1.1548960629921259
0
LINE
8
BLACK
6
CONTINUOUS
10
0.8883091338582677
20
1.1548960629921259
11
0.8885038976377952
21
1.1543509448818898
0
LINE
8
BLACK
6
CONTINUOUS
10
0.8885038976377952
20
1.1543509448818898
11
0.8903786614173228
21
1.1468518897637796
0
LINE
8
BLACK
6
CONTINUOUS
10
0.8903786614173228
20
1.1468518897637796
11
0.8903934251968504
21
1.1467520472440944
0
LINE
8
BLACK
6
CONTINUOUS
10
0.8903934251968504
20
1.1467520472440944
11
0.8904100787401574
21
1.1467118110236221
0
LINE
8
BLACK
6
CONTINUOUS
10
0.8904100787401574
20
1.1467118110236221
11
0.8904314173228346
21
1.1464948031496063
0
LINE
8
BLACK
6
CONTINUOUS
10
0.8904314173228346
20
1.1464948031496063
11
0.8904633070866141
21
1.1462792913385826
0
LINE
8
BLACK
6
CONTINUOUS
10
0.8904633070866141
20
1.1462792913385826
11
0.8904568897637795
21
1.1462362992125985
0
LINE
8
BLACK
6
CONTINUOUS
10
0.8904568897637795
20
1.1462362992125985
11
0.890466811023622
21
1.146135748031496
0
LINE
8
BLACK
6
CONTINUOUS
10
0.890466811023622
20
1.146135748031496
11
0.890466811023622
21
1.1330124015748031
0
LINE
8
BLACK
6
CONTINUOUS
10
0.890466811023622
20
1.1330124015748031
11
0.8904568897637795
21
1.1329118897637795
0
LINE
8
BLACK
6
CONTINUOUS
10
0.8904568897637795
20
1.1329118897637795
11
0.8904633070866141
21
1.1328688582677164
0
LINE
8
BLACK
6
CONTINUOUS
10
0.8904633070866141
20
1.1328688582677164
11
0.8904314173228346
21
1.1326533858267716
0
LINE
8
BLACK
6
CONTINUOUS
10
0.8904314173228346
20
1.1326533858267716
11
0.8904100787401574
21
1.1324363385826772
0
LINE
8
BLACK
6
CONTINUOUS
10
0.8904100787401574
20
1.1324363385826772
11
0.8903934251968504
21
1.1323961417322834
0
LINE
8
BLACK
6
CONTINUOUS
10
0.8903934251968504
20
1.1323961417322834
11
0.8903786614173228
21
1.1322962598425197
0
LINE
8
BLACK
6
CONTINUOUS
10
0.8903786614173228
20
1.1322962598425197
11
0.8885038976377952
21
1.1247972047244095
0
LINE
8
BLACK
6
CONTINUOUS
10
0.8885038976377952
20
1.1247972047244095
11
0.8883091338582677
21
1.1242520866141732
0
LINE
8
BLACK
6
CONTINUOUS
10
0.8883091338582677
20
1.1242520866141732
11
0.8881784251968504
21
1.124075748031496
0
LINE
8
BLACK
6
CONTINUOUS
10
0.8881784251968504
20
1.124075748031496
11
0.8880944488188977
21
1.1238729133858267
0
LINE
8
BLACK
6
CONTINUOUS
10
0.8880944488188977
20
1.1238729133858267
11
0.8877272440944882
21
1.1234254724409449
0
LINE
8
BLACK
6
CONTINUOUS
10
0.8877272440944882
20
1.1234254724409449
11
0.8839776771653544
21
1.1196758661417323
0
LINE
8
BLACK
6
CONTINUOUS
10
0.8839776771653544
20
1.1196758661417323
11
0.8837512992125984
21
1.1194901181102361
0
LINE
8
BLACK
6
CONTINUOUS
10
0.8837512992125984
20
1.1194901181102361
11
0.8837001574803149
21
1.1194311023622048
0
LINE
8
BLACK
6
CONTINUOUS
10
0.8837001574803149
20
1.1194311023622048
11
0.8836111811023621
21
1.119375157480315
0
LINE
8
BLACK
6
CONTINUOUS
10
0.8836111811023621
20
1.119375157480315
11
0.8835302362204724
21
1.1193086614173229
0
LINE
8
BLACK
6
CONTINUOUS
10
0.8835302362204724
20
1.1193086614173229
11
0.8834582677165355
21
1.1192788582677164
0
LINE
8
BLACK
6
CONTINUOUS
10
0.8834582677165355
20
1.1192788582677164
11
0.8832102755905512
21
1.1191227559055117
0
LINE
8
BLACK
6
CONTINUOUS
10
0.8832102755905512
20
1.1191227559055117
11
0.8794607480314961
21
1.1172479921259841
0
LINE
8
BLACK
6
CONTINUOUS
10
0.8794607480314961
20
1.1172479921259841
11
0.8789201181102362
21
1.1170411023622047
0
LINE
8
BLACK
6
CONTINUOUS
10
0.8789201181102362
20
1.1170411023622047
11
0.8788142913385827
21
1.1170336220472441
0
LINE
8
BLACK
6
CONTINUOUS
10
0.8788142913385827
20
1.1170336220472441
11
0.8787162992125984
21
1.1169929921259842
0
LINE
8
BLACK
6
CONTINUOUS
10
0.8787162992125984
20
1.1169929921259842
11
0.8781402362204724
21
1.1169362598425197
0
LINE
8
BLACK
6
CONTINUOUS
10
0.8781402362204724
20
1.1169362598425197
11
0.8706411811023622
21
1.1169362598425197
0
LINE
8
BLACK
6
CONTINUOUS
10
0.8706411811023622
20
1.1169362598425197
11
0.8700651181102362
21
1.1169929921259842
0
LINE
8
BLACK
6
CONTINUOUS
10
0.8700651181102362
20
1.1169929921259842
11
0.869967125984252
21
1.1170335826771653
0
LINE
8
BLACK
6
CONTINUOUS
10
0.869967125984252
20
1.1170335826771653
11
0.8698612598425197
21
1.1170411023622047
0
LINE
8
BLACK
6
CONTINUOUS
10
0.8698612598425197
20
1.1170411023622047
11
0.8693206692913386
21
1.1172479921259841
0
LINE
8
BLACK
6
CONTINUOUS
10
0.8693206692913386
20
1.1172479921259841
11
0.8655711417322834
21
1.1191227559055117
0
LINE
8
BLACK
6
CONTINUOUS
10
0.8655711417322834
20
1.1191227559055117
11
0.8653233070866142
21
1.1192787795275589
0
LINE
8
BLACK
6
CONTINUOUS
10
0.8653233070866142
20
1.1192787795275589
11
0.8652511811023622
21
1.1193086220472441
0
LINE
8
BLACK
6
CONTINUOUS
10
0.8652511811023622
20
1.1193086220472441
11
0.86517
21
1.1193752362204725
0
LINE
8
BLACK
6
CONTINUOUS
10
0.86517
20
1.1193752362204725
11
0.8650812598425197
21
1.1194311023622048
0
LINE
8
BLACK
6
CONTINUOUS
10
0.8650812598425197
20
1.1194311023622048
11
0.8650301181102362
21
1.1194900393700786
0
LINE
8
BLACK
6
CONTINUOUS
10
0.8650301181102362
20
1.1194900393700786
11
0.8648037401574803
21
1.1196758661417323
0
LINE
8
BLACK
6
CONTINUOUS
10
0.8648037401574803
20
1.1196758661417323
11
0.8610542125984252
21
1.1234254330708662
0
LINE
8
BLACK
6
CONTINUOUS
10
0.8610542125984252
20
1.1234254330708662
11
0.860686968503937
21
1.1238729133858267
0
LINE
8
BLACK
6
CONTINUOUS
10
0.860686968503937
20
1.1238729133858267
11
0.8606029527559055
21
1.124075748031496
0
LINE
8
BLACK
6
CONTINUOUS
10
0.8606029527559055
20
1.124075748031496
11
0.8604722834645669
21
1.1242520866141732
0
LINE
8
BLACK
6
CONTINUOUS
10
0.8604722834645669
20
1.1242520866141732
11
0.8602775196850394
21
1.1247972047244095
0
LINE
8
BLACK
6
CONTINUOUS
10
0.8602775196850394
20
1.1247972047244095
11
0.8584027559055117
21
1.1322962598425197
0
LINE
8
BLACK
6
CONTINUOUS
10
0.8584027559055117
20
1.1322962598425197
11
0.8583879527559055
21
1.1323961417322834
0
LINE
8
BLACK
6
CONTINUOUS
10
0.8583879527559055
20
1.1323961417322834
11
0.8583713385826771
21
1.1324363385826772
0
LINE
8
BLACK
6
CONTINUOUS
10
0.8583713385826771
20
1.1324363385826772
11
0.8583499606299212
21
1.1326533858267716
0
LINE
8
BLACK
6
CONTINUOUS
10
0.8583499606299212
20
1.1326533858267716
11
0.8583181102362204
21
1.1328688582677164
0
LINE
8
BLACK
6
CONTINUOUS
10
0.8583181102362204
20
1.1328688582677164
11
0.8583244881889763
21
1.1329118897637795
0
LINE
8
BLACK
6
CONTINUOUS
10
0.8583244881889763
20
1.1329118897637795
11
0.8583146062992125
21
1.1330124015748031
0
LINE
8
BLACK
6
CONTINUOUS
10
0.8583146062992125
20
1.1330124015748031
11
0.8583146062992125
21
1.146135748031496
0
LINE
8
BLACK
6
CONTINUOUS
10
0.8583146062992125
20
1.146135748031496
11
0.8583244881889763
21
1.1462362992125985
0
LINE
8
BLACK
6
CONTINUOUS
10
0.8583244881889763
20
1.1462362992125985
11
0.8583181102362204
21
1.1462792913385826
0
LINE
8
BLACK
6
CONTINUOUS
10
0.8583181102362204
20
1.1462792913385826
11
0.8583499606299212
21
1.1464948031496063
0
LINE
8
BLACK
6
CONTINUOUS
10
0.8583499606299212
20
1.1464948031496063
11
0.8583713385826771
21
1.1467118110236221
0
LINE
8
BLACK
6
CONTINUOUS
10
0.8583713385826771
20
1.1467118110236221
11
0.8583879527559055
21
1.1467520472440944
0
LINE
8
BLACK
6
CONTINUOUS
10
0.8583879527559055
20
1.1467520472440944
11
0.8584027559055117
21
1.1468518897637796
0
LINE
8
BLACK
6
CONTINUOUS
10
0.8584027559055117
20
1.1468518897637796
11
0.8602775196850394
21
1.1543509448818898
0
LINE
8
BLACK
6
CONTINUOUS
10
0.8602775196850394
20
1.1543509448818898
11
0.8604722834645669
21
1.1548960629921259
0
LINE
8
BLACK
6
CONTINUOUS
10
0.8604722834645669
20
1.1548960629921259
11
0.8606029921259842
21
1.1550725196850393
0
LINE
8
BLACK
6
CONTINUOUS
10
0.8606029921259842
20
1.1550725196850393
11
0.8606870078740158
21
1.1552752755905511
0
LINE
8
BLACK
6
CONTINUOUS
10
0.8606870078740158
20
1.1552752755905511
11
0.8610542125984252
21
1.1557227165354331
0
LINE
8
BLACK
6
CONTINUOUS
10
0.8610542125984252
20
1.1557227165354331
11
0.8648037401574803
21
1.1594722440944882
0
LINE
8
BLACK
6
CONTINUOUS
10
0.8648037401574803
20
1.1594722440944882
11
0.8650301181102362
21
1.1596581102362205
0
LINE
8
BLACK
6
CONTINUOUS
10
0.8650301181102362
20
1.1596581102362205
11
0.8650812598425197
21
1.1597170078740158
0
LINE
8
BLACK
6
CONTINUOUS
10
0.8650812598425197
20
1.1597170078740158
11
0.86517
21
1.1597729133858268
0
LINE
8
BLACK
6
CONTINUOUS
10
0.86517
20
1.1597729133858268
11
0.8652511811023622
21
1.1598394881889764
0
LINE
8
BLACK
6
CONTINUOUS
10
0.8652511811023622
20
1.1598394881889764
11
0.8653233070866142
21
1.1598693700787401
0
LINE
8
BLACK
6
CONTINUOUS
10
0.8653233070866142
20
1.1598693700787401
11
0.8655711417322834
21
1.1600253543307086
0
LINE
8
BLACK
6
CONTINUOUS
10
0.8655711417322834
20
1.1600253543307086
11
0.8693206692913386
21
1.1619001181102362
0
LINE
8
BLACK
6
CONTINUOUS
10
0.8693206692913386
20
1.1619001181102362
11
0.8698612598425197
21
1.1621070078740157
0
LINE
8
BLACK
6
CONTINUOUS
10
0.8698612598425197
20
1.1621070078740157
11
0.869967125984252
21
1.1621145669291337
0
LINE
8
BLACK
6
CONTINUOUS
10
0.869967125984252
20
1.1621145669291337
11
0.8700651181102362
21
1.1621551181102361
0
LINE
8
BLACK
6
CONTINUOUS
10
0.8700651181102362
20
1.1621551181102361
11
0.8706411811023622
21
1.1622118503937007
0
LINE
8
BLACK
6
CONTINUOUS
10
0.8706411811023622
20
1.1622118503937007
11
0.8781402362204724
21
1.1622118503937007
0
LINE
8
BLACK
6
CONTINUOUS
10
0.8781402362204724
20
1.1622118503937007
11
0.8787162992125984
21
1.1621551181102361
0
LINE
8
BLACK
6
CONTINUOUS
10
0.868640748031496
20
1.1549575984251967
11
0.8658083464566929
21
1.1521252362204724
0
LINE
8
BLACK
6
CONTINUOUS
10
0.8658083464566929
20
1.1521252362204724
11
0.8642201181102362
21
1.1457722047244094
0
LINE
8
BLACK
6
CONTINUOUS
10
0.8642201181102362
20
1.1457722047244094
11
0.8642201181102362
21
1.1333759448818896
0
LINE
8
BLACK
6
CONTINUOUS
10
0.8642201181102362
20
1.1333759448818896
11
0.8658083464566929
21
1.1270229527559055
0
LINE
8
BLACK
6
CONTINUOUS
10
0.8658083464566929
20
1.1270229527559055
11
0.868640748031496
21
1.1241905118110236
0
LINE
8
BLACK
6
CONTINUOUS
10
0.868640748031496
20
1.1241905118110236
11
0.8713382283464567
21
1.1228417716535433
0
LINE
8
BLACK
6
CONTINUOUS
10
0.8713382283464567
20
1.1228417716535433
11
0.877443188976378
21
1.1228417716535433
0
LINE
8
BLACK
6
CONTINUOUS
10
0.877443188976378
20
1.1228417716535433
11
0.8801406299212599
21
1.1241905118110236
0
LINE
8
BLACK
6
CONTINUOUS
10
0.8801406299212599
20
1.1241905118110236
11
0.882973031496063
21
1.1270229527559055
0
LINE
8
BLACK
6
CONTINUOUS
10
0.882973031496063
20
1.1270229527559055
11
0.8845612992125984
21
1.1333759448818896
0
LINE
8
BLACK
6
CONTINUOUS
10
0.8845612992125984
20
1.1333759448818896
11
0.8845612992125984
21
1.1457722047244094
0
LINE
8
BLACK
6
CONTINUOUS
10
0.8845612992125984
20
1.1457722047244094
11
0.882973031496063
21
1.1521252362204724
0
LINE
8
BLACK
6
CONTINUOUS
10
0.882973031496063
20
1.1521252362204724
11
0.8801406692913386
21
1.1549575984251967
0
LINE
8
BLACK
6
CONTINUOUS
10
0.8801406692913386
20
1.1549575984251967
11
0.877443188976378
21
1.1563063385826771
0
LINE
8
BLACK
6
CONTINUOUS
10
0.877443188976378
20
1.1563063385826771
11
0.8713382283464567
21
1.1563063385826771
0
LINE
8
BLACK
6
CONTINUOUS
10
0.8713382283464567
20
1.1563063385826771
11
0.868640748031496
21
1.1549575984251967
0
LINE
8
BLACK
6
CONTINUOUS
10
0.9060274409448819
20
1.1617142125984252
11
0.9068420866141732
21
1.1608995669291338
0
LINE
8
BLACK
6
CONTINUOUS
10
0.9068420866141732
20
1.1608995669291338
11
0.9072829921259842
21
1.159835157480315
0
LINE
8
BLACK
6
CONTINUOUS
10
0.9072829921259842
20
1.159835157480315
11
0.9073397244094488
21
1.1592590944881889
0
LINE
8
BLACK
6
CONTINUOUS
10
0.9073397244094488
20
1.1592590944881889
11
0.9073397244094488
21
1.1228417716535433
0
LINE
8
BLACK
6
CONTINUOUS
10
0.9073397244094488
20
1.1228417716535433
11
0.9231346062992126
21
1.1228417716535433
0
LINE
8
BLACK
6
CONTINUOUS
10
0.9231346062992126
20
1.1228417716535433
11
0.9237106692913386
21
1.1227850393700787
0
LINE
8
BLACK
6
CONTINUOUS
10
0.9237106692913386
20
1.1227850393700787
11
0.9247750787401574
21
1.1223441338582676
0
LINE
8
BLACK
6
CONTINUOUS
10
0.9247750787401574
20
1.1223441338582676
11
0.9255897244094488
21
1.1215294881889764
0
LINE
8
BLACK
6
CONTINUOUS
10
0.9255897244094488
20
1.1215294881889764
11
0.9260306299212598
21
1.1204650787401575
0
LINE
8
BLACK
6
CONTINUOUS
10
0.9260306299212598
20
1.1204650787401575
11
0.9260306299212598
21
1.1193129527559056
0
LINE
8
BLACK
6
CONTINUOUS
10
0.9260306299212598
20
1.1193129527559056
11
0.9255897244094488
21
1.1182485433070866
0
LINE
8
BLACK
6
CONTINUOUS
10
0.9255897244094488
20
1.1182485433070866
11
0.9247750787401574
21
1.1174338976377953
0
LINE
8
BLACK
6
CONTINUOUS
10
0.9247750787401574
20
1.1174338976377953
11
0.9237106692913386
21
1.1169929921259842
0
LINE
8
BLACK
6
CONTINUOUS
10
0.9237106692913386
20
1.1169929921259842
11
0.9231346062992126
21
1.1169362598425197
0
LINE
8
BLACK
6
CONTINUOUS
10
0.9231346062992126
20
1.1169362598425197
11
0.904386968503937
21
1.1169362598425197
0
LINE
8
BLACK
6
CONTINUOUS
10
0.904386968503937
20
1.1169362598425197
11
0.903810905511811
21
1.1169929921259842
0
LINE
8
BLACK
6
CONTINUOUS
10
0.903810905511811
20
1.1169929921259842
11
0.9027464960629921
21
1.1174338976377953
0
LINE
8
BLACK
6
CONTINUOUS
10
0.9027464960629921
20
1.1174338976377953
11
0.9019318503937007
21
1.1182485433070866
0
LINE
8
BLACK
6
CONTINUOUS
10
0.9019318503937007
20
1.1182485433070866
11
0.9014909448818897
21
1.1193129527559056
0
LINE
8
BLACK
6
CONTINUOUS
10
0.9014909448818897
20
1.1193129527559056
11
0.9014342125984252
21
1.1198890157480315
0
LINE
8
BLACK
6
CONTINUOUS
10
0.9014342125984252
20
1.1198890157480315
11
0.9014342125984252
21
1.1592590944881889
0
LINE
8
BLACK
6
CONTINUOUS
10
0.9014342125984252
20
1.1592590944881889
11
0.9014909448818897
21
1.159835157480315
0
LINE
8
BLACK
6
CONTINUOUS
10
0.9014909448818897
20
1.159835157480315
11
0.9019318503937007
21
1.1608995669291338
0
LINE
8
BLACK
6
CONTINUOUS
10
0.9019318503937007
20
1.1608995669291338
11
0.9027464960629921
21
1.1617142125984252
0
LINE
8
BLACK
6
CONTINUOUS
10
0.9027464960629921
20
1.1617142125984252
11
0.903810905511811
21
1.1621551181102361
0
LINE
8
BLACK
6
CONTINUOUS
10
0.903810905511811
20
1.1621551181102361
11
0.9049630314960629
21
1.1621551181102361
0
LINE
8
BLACK
6
CONTINUOUS
10
0.9049630314960629
20
1.1621551181102361
11
0.9060274409448819
21
1.1617142125984252
0
LINE
8
BLACK
6
CONTINUOUS
10
0.9555816929133858
20
1.1621551181102361
11
0.9566461023622047
21
1.1617142125984252
0
LINE
8
BLACK
6
CONTINUOUS
10
0.9566461023622047
20
1.1617142125984252
11
0.9574607480314961
21
1.1608995669291338
0
LINE
8
BLACK
6
CONTINUOUS
10
0.9574607480314961
20
1.1608995669291338
11
0.957901653543307
21
1.159835157480315
0
LINE
8
BLACK
6
CONTINUOUS
10
0.957901653543307
20
1.159835157480315
11
0.957901653543307
21
1.158683031496063
0
LINE
8
BLACK
6
CONTINUOUS
10
0.957901653543307
20
1.158683031496063
11
0.9574607480314961
21
1.157618622047244
0
LINE
8
BLACK
6
CONTINUOUS
10
0.9574607480314961
20
1.157618622047244
11
0.9566461023622047
21
1.1568039763779527
0
LINE
8
BLACK
6
CONTINUOUS
10
0.9566461023622047
20
1.1568039763779527
11
0.9555816929133858
21
1.1563630708661417
0
LINE
8
BLACK
6
CONTINUOUS
10
0.9555816929133858
20
1.1563630708661417
11
0.9550056299212598
21
1.1563063385826771
0
LINE
8
BLACK
6
CONTINUOUS
10
0.9550056299212598
20
1.1563063385826771
11
0.9392107480314961
21
1.1563063385826771
0
LINE
8
BLACK
6
CONTINUOUS
10
0.9392107480314961
20
1.1563063385826771
11
0.9392107480314961
21
1.1434642125984251
0
LINE
8
BLACK
6
CONTINUOUS
10
0.9392107480314961
20
1.1434642125984251
11
0.9493813385826771
21
1.1434642125984251
0
LINE
8
BLACK
6
CONTINUOUS
10
0.9493813385826771
20
1.1434642125984251
11
0.9499574015748031
21
1.1434074803149605
0
LINE
8
BLACK
6
CONTINUOUS
10
0.9499574015748031
20
1.1434074803149605
11
0.951021811023622
21
1.1429665748031497
0
LINE
8
BLACK
6
CONTINUOUS
10
0.951021811023622
20
1.1429665748031497
11
0.9518364566929134
21
1.1421519291338582
0
LINE
8
BLACK
6
CONTINUOUS
10
0.9518364566929134
20
1.1421519291338582
11
0.9522773622047244
21
1.1410875196850394
0
LINE
8
BLACK
6
CONTINUOUS
10
0.9522773622047244
20
1.1410875196850394
11
0.9522773622047244
21
1.1399353937007874
0
LINE
8
BLACK
6
CONTINUOUS
10
0.9522773622047244
20
1.1399353937007874
11
0.9518364566929134
21
1.1388709842519684
0
LINE
8
BLACK
6
CONTINUOUS
10
0.9518364566929134
20
1.1388709842519684
11
0.951021811023622
21
1.1380563385826772
0
LINE
8
BLACK
6
CONTINUOUS
10
0.951021811023622
20
1.1380563385826772
11
0.9499574015748031
21
1.1376154330708661
0
LINE
8
BLACK
6
CONTINUOUS
10
0.9499574015748031
20
1.1376154330708661
11
0.9493813385826771
21
1.1375587007874015
0
LINE
8
BLACK
6
CONTINUOUS
10
0.9493813385826771
20
1.1375587007874015
11
0.9392107480314961
21
1.1375587007874015
0
LINE
8
BLACK
6
CONTINUOUS
10
0.9392107480314961
20
1.1375587007874015
11
0.9392107480314961
21
1.1228417716535433
0
LINE
8
BLACK
6
CONTINUOUS
10
0.9392107480314961
20
1.1228417716535433
11
0.9550056299212598
21
1.1228417716535433
0
LINE
8
BLACK
6
CONTINUOUS
10
0.9550056299212598
20
1.1228417716535433
11
0.9555816929133858
21
1.1227850393700787
0
LINE
8
BLACK
6
CONTINUOUS
10
0.9555816929133858
20
1.1227850393700787
11
0.9566461023622047
21
1.1223441338582676
0
LINE
8
BLACK
6
CONTINUOUS
10
0.9566461023622047
20
1.1223441338582676
11
0.9574607480314961
21
1.1215294881889764
0
LINE
8
BLACK
6
CONTINUOUS
10
0.9574607480314961
20
1.1215294881889764
11
0.957901653543307
21
1.1204650787401575
0
LINE
8
BLACK
6
CONTINUOUS
10
0.957901653543307
20
1.1204650787401575
11
0.957901653543307
21
1.1193129527559056
0
LINE
8
BLACK
6
CONTINUOUS
10
0.957901653543307
20
1.1193129527559056
11
0.9574607480314961
21
1.1182485433070866
0
LINE
8
BLACK
6
CONTINUOUS
10
0.9574607480314961
20
1.1182485433070866
11
0.9566461023622047
21
1.1174338976377953
0
LINE
8
BLACK
6
CONTINUOUS
10
0.9566461023622047
20
1.1174338976377953
11
0.9555816929133858
21
1.1169929921259842
0
LINE
8
BLACK
6
CONTINUOUS
10
0.9555816929133858
20
1.1169929921259842
11
0.9550056299212598
21
1.1169362598425197
0
LINE
8
BLACK
6
CONTINUOUS
10
0.9550056299212598
20
1.1169362598425197
11
0.9362579921259843
21
1.1169362598425197
0
LINE
8
BLACK
6
CONTINUOUS
10
0.9362579921259843
20
1.1169362598425197
11
0.9356819291338583
21
1.1169929921259842
0
LINE
8
BLACK
6
CONTINUOUS
10
0.9356819291338583
20
1.1169929921259842
11
0.9346175196850394
21
1.1174338976377953
0
LINE
8
BLACK
6
CONTINUOUS
10
0.9346175196850394
20
1.1174338976377953
11
0.933802874015748
21
1.1182485433070866
0
LINE
8
BLACK
6
CONTINUOUS
10
0.933802874015748
20
1.1182485433070866
11
0.9333619685039369
21
1.1193129527559056
0
LINE
8
BLACK
6
CONTINUOUS
10
0.9333619685039369
20
1.1193129527559056
11
0.9333052362204725
21
1.1198890157480315
0
LINE
8
BLACK
6
CONTINUOUS
10
0.9333052362204725
20
1.1198890157480315
11
0.9333052362204725
21
1.1592590944881889
0
LINE
8
BLACK
6
CONTINUOUS
10
0.9333052362204725
20
1.1592590944881889
11
0.9333619685039369
21
1.159835157480315
0
LINE
8
BLACK
6
CONTINUOUS
10
0.9333619685039369
20
1.159835157480315
11
0.933802874015748
21
1.1608995669291338
0
LINE
8
BLACK
6
CONTINUOUS
10
0.933802874015748
20
1.1608995669291338
11
0.9346175196850394
21
1.1617142125984252
0
LINE
8
BLACK
6
CONTINUOUS
10
0.9346175196850394
20
1.1617142125984252
11
0.9356819291338583
21
1.1621551181102361
0
LINE
8
BLACK
6
CONTINUOUS
10
0.9356819291338583
20
1.1621551181102361
11
0.9362579921259843
21
1.1622118503937007
0
LINE
8
BLACK
6
CONTINUOUS
10
0.9362579921259843
20
1.1622118503937007
11
0.9550056299212598
21
1.1622118503937007
0
LINE
8
BLACK
6
CONTINUOUS
10
0.9550056299212598
20
1.1622118503937007
11
0.9555816929133858
21
1.1621551181102361
0
LINE
8
BLACK
6
CONTINUOUS
10
0.9815438976377953
20
1.1621831496062991
11
0.9816216535433071
21
1.1621886614173229
0
LINE
8
BLACK
6
CONTINUOUS
10
0.9816216535433071
20
1.1621886614173229
11
0.9817238976377952
21
1.1621654330708662
0
LINE
8
BLACK
6
CONTINUOUS
10
0.9817238976377952
20
1.1621654330708662
11
0.9818284251968503
21
1.1621551181102361
0
LINE
8
BLACK
6
CONTINUOUS
10
0.9818284251968503
20
1.1621551181102361
11
0.9819005118110236
21
1.1621252755905511
0
LINE
8
BLACK
6
CONTINUOUS
10
0.9819005118110236
20
1.1621252755905511
11
0.9821861023622047
21
1.1620603149606299
0
LINE
8
BLACK
6
CONTINUOUS
10
0.9821861023622047
20
1.1620603149606299
11
0.9878103937007874
21
1.1601855511811023
0
LINE
8
BLACK
6
CONTINUOUS
10
0.9878103937007874
20
1.1601855511811023
11
0.988338937007874
21
1.1599495669291338
0
LINE
8
BLACK
6
CONTINUOUS
10
0.988338937007874
20
1.1599495669291338
11
0.9884190551181102
21
1.1598800787401575
0
LINE
8
BLACK
6
CONTINUOUS
10
0.9884190551181102
20
1.1598800787401575
11
0.9885171259842519
21
1.1598394488188977
0
LINE
8
BLACK
6
CONTINUOUS
10
0.9885171259842519
20
1.1598394488188977
11
0.9889645669291338
21
1.1594722440944882
0
LINE
8
BLACK
6
CONTINUOUS
10
0.9889645669291338
20
1.1594722440944882
11
0.9927140944881889
21
1.1557227165354331
0
LINE
8
BLACK
6
CONTINUOUS
10
0.9927140944881889
20
1.1557227165354331
11
0.9928999212598425
21
1.1554963385826771
0
LINE
8
BLACK
6
CONTINUOUS
10
0.9928999212598425
20
1.1554963385826771
11
0.9929588582677165
21
1.1554451968503936
0
LINE
8
BLACK
6
CONTINUOUS
10
0.9929588582677165
20
1.1554451968503936
11
0.9930147244094488
21
1.1553564566929133
0
LINE
8
BLACK
6
CONTINUOUS
10
0.9930147244094488
20
1.1553564566929133
11
0.9930813385826771
21
1.1552752755905511
0
LINE
8
BLACK
6
CONTINUOUS
10
0.9930813385826771
20
1.1552752755905511
11
0.9931111811023622
21
1.1552031496062991
0
LINE
8
BLACK
6
CONTINUOUS
10
0.9931111811023622
20
1.1552031496062991
11
0.9932672047244094
21
1.15495531496063
0
LINE
8
BLACK
6
CONTINUOUS
10
0.9932672047244094
20
1.15495531496063
11
0.995141968503937
21
1.1512057874015749
0
LINE
8
BLACK
6
CONTINUOUS
10
0.995141968503937
20
1.1512057874015749
11
0.9951580708661417
21
1.1511637007874016
0
LINE
8
BLACK
6
CONTINUOUS
10
0.9951580708661417
20
1.1511637007874016
11
0.9951707874015748
21
1.1511465354330708
0
LINE
8
BLACK
6
CONTINUOUS
10
0.9951707874015748
20
1.1511465354330708
11
0.9952568503937007
21
1.1509056299212599
0
LINE
8
BLACK
6
CONTINUOUS
10
0.9952568503937007
20
1.1509056299212599
11
0.9953488582677165
21
1.1506651968503936
0
LINE
8
BLACK
6
CONTINUOUS
10
0.9953488582677165
20
1.1506651968503936
11
0.9953503543307086
21
1.150643937007874
0
LINE
8
BLACK
6
CONTINUOUS
10
0.9953503543307086
20
1.150643937007874
11
0.9953655511811024
21
1.1506014173228347
0
LINE
8
BLACK
6
CONTINUOUS
10
0.9953655511811024
20
1.1506014173228347
11
0.9972403149606299
21
1.1431023622047243
0
LINE
8
BLACK
6
CONTINUOUS
10
0.9972403149606299
20
1.1431023622047243
11
0.9972550787401575
21
1.1430025196850393
0
LINE
8
BLACK
6
CONTINUOUS
10
0.9972550787401575
20
1.1430025196850393
11
0.9972717322834646
21
1.142962283464567
0
LINE
8
BLACK
6
CONTINUOUS
10
0.9972717322834646
20
1.142962283464567
11
0.9972930708661417
21
1.1427452755905512
0
LINE
8
BLACK
6
CONTINUOUS
10
0.9972930708661417
20
1.1427452755905512
11
0.9973249606299213
21
1.1425297637795275
0
LINE
8
BLACK
6
CONTINUOUS
10
0.9973249606299213
20
1.1425297637795275
11
0.9973185433070866
21
1.1424867716535432
0
LINE
8
BLACK
6
CONTINUOUS
10
0.9973185433070866
20
1.1424867716535432
11
0.9973284645669291
21
1.1423862204724409
0
LINE
8
BLACK
6
CONTINUOUS
10
0.9973284645669291
20
1.1423862204724409
11
0.9973284645669291
21
1.1367619291338582
0
LINE
8
BLACK
6
CONTINUOUS
10
0.9973284645669291
20
1.1367619291338582
11
0.9973185433070866
21
1.1366614173228347
0
LINE
8
BLACK
6
CONTINUOUS
10
0.9973185433070866
20
1.1366614173228347
11
0.9973249606299213
21
1.1366183858267715
0
LINE
8
BLACK
6
CONTINUOUS
10
0.9973249606299213
20
1.1366183858267715
11
0.9972930708661417
21
1.1364029133858267
0
LINE
8
BLACK
6
CONTINUOUS
10
0.9972930708661417
20
1.1364029133858267
11
0.9972717322834646
21
1.1361858661417323
0
LINE
8
BLACK
6
CONTINUOUS
10
0.9972717322834646
20
1.1361858661417323
11
0.9972550787401575
21
1.1361456692913385
0
LINE
8
BLACK
6
CONTINUOUS
10
0.9972550787401575
20
1.1361456692913385
11
0.9972403149606299
21
1.1360457874015748
0
LINE
8
BLACK
6
CONTINUOUS
10
0.9972403149606299
20
1.1360457874015748
11
0.9953655511811024
21
1.1285467322834646
0
LINE
8
BLACK
6
CONTINUOUS
10
0.9953655511811024
20
1.1285467322834646
11
0.9953503543307086
21
1.128504251968504
0
LINE
8
BLACK
6
CONTINUOUS
10
0.9953503543307086
20
1.128504251968504
11
0.9953488582677165
21
1.1284829527559055
0
LINE
8
BLACK
6
CONTINUOUS
10
0.9953488582677165
20
1.1284829527559055
11
0.9952570866141732
21
1.1282432283464567
0
LINE
8
BLACK
6
CONTINUOUS
10
0.9952570866141732
20
1.1282432283464567
11
0.9951707874015748
21
1.1280016141732283
0
LINE
8
BLACK
6
CONTINUOUS
10
0.9951707874015748
20
1.1280016141732283
11
0.9951580708661417
21
1.1279844881889765
0
LINE
8
BLACK
6
CONTINUOUS
10
0.9951580708661417
20
1.1279844881889765
11
0.995141968503937
21
1.1279423622047244
0
LINE
8
BLACK
6
CONTINUOUS
10
0.995141968503937
20
1.1279423622047244
11
0.9932672047244094
21
1.1241928346456693
0
LINE
8
BLACK
6
CONTINUOUS
10
0.9932672047244094
20
1.1241928346456693
11
0.9931111417322834
21
1.1239449606299212
0
LINE
8
BLACK
6
CONTINUOUS
10
0.9931111417322834
20
1.1239449606299212
11
0.9930813385826771
21
1.1238729133858267
0
LINE
8
BLACK
6
CONTINUOUS
10
0.9930813385826771
20
1.1238729133858267
11
0.9930148031496063
21
1.1237918897637795
0
LINE
8
BLACK
6
CONTINUOUS
10
0.9930148031496063
20
1.1237918897637795
11
0.9929588582677165
21
1.1237029527559055
0
LINE
8
BLACK
6
CONTINUOUS
10
0.9929588582677165
20
1.1237029527559055
11
0.992899842519685
21
1.123651811023622
0
LINE
8
BLACK
6
CONTINUOUS
10
0.992899842519685
20
1.123651811023622
11
0.9927141338582677
21
1.1234254724409449
0
LINE
8
BLACK
6
CONTINUOUS
10
0.9927141338582677
20
1.1234254724409449
11
0.9889645669291338
21
1.1196758661417323
0
LINE
8
BLACK
6
CONTINUOUS
10
0.9889645669291338
20
1.1196758661417323
11
0.9885171259842519
21
1.1193086614173229
0
LINE
8
BLACK
6
CONTINUOUS
10
0.9885171259842519
20
1.1193086614173229
11
0.9884190551181102
21
1.1192680708661418
0
LINE
8
BLACK
6
CONTINUOUS
10
0.9884190551181102
20
1.1192680708661418
11
0.988338937007874
21
1.1191985433070866
0
LINE
8
BLACK
6
CONTINUOUS
10
0.988338937007874
20
1.1191985433070866
11
0.9878103937007874
21
1.118962559055118
0
LINE
8
BLACK
6
CONTINUOUS
10
0.9878103937007874
20
1.118962559055118
11
0.9821861023622047
21
1.1170877952755904
0
LINE
8
BLACK
6
CONTINUOUS
10
0.9821861023622047
20
1.1170877952755904
11
0.9819005118110236
21
1.117022874015748
0
LINE
8
BLACK
6
CONTINUOUS
10
0.9819005118110236
20
1.117022874015748
11
0.9818284251968503
21
1.1169929921259842
0
LINE
8
BLACK
6
CONTINUOUS
10
0.9818284251968503
20
1.1169929921259842
11
0.9817238976377952
21
1.1169827165354331
0
LINE
8
BLACK
6
CONTINUOUS
10
0.9817238976377952
20
1.1169827165354331
11
0.9816216535433071
21
1.1169594488188976
0
LINE
8
BLACK
6
CONTINUOUS
10
0.9816216535433071
20
1.1169594488188976
11
0.9815438976377953
21
1.116965
0
LINE
8
BLACK
6
CONTINUOUS
10
0.9815438976377953
20
1.116965
11
0.9812523622047243
21
1.1169362598425197
0
LINE
8
BLACK
6
CONTINUOUS
10
0.9812523622047243
20
1.1169362598425197
11
0.9718785433070866
21
1.1169362598425197
0
LINE
8
BLACK
6
CONTINUOUS
10
0.9718785433070866
20
1.1169362598425197
11
0.9713024803149606
21
1.1169929921259842
0
LINE
8
BLACK
6
CONTINUOUS
10
0.9713024803149606
20
1.1169929921259842
11
0.9702380708661417
21
1.1174338976377953
0
LINE
8
BLACK
6
CONTINUOUS
10
0.9702380708661417
20
1.1174338976377953
11
0.9694234251968503
21
1.1182485433070866
0
LINE
8
BLACK
6
CONTINUOUS
10
0.9694234251968503
20
1.1182485433070866
11
0.9689825196850393
21
1.1193129527559056
0
LINE
8
BLACK
6
CONTINUOUS
10
0.9689825196850393
20
1.1193129527559056
11
0.9689257874015748
21
1.1198890157480315
0
LINE
8
BLACK
6
CONTINUOUS
10
0.9689257874015748
20
1.1198890157480315
11
0.9689257874015748
21
1.1592590944881889
0
LINE
8
BLACK
6
CONTINUOUS
10
0.9689257874015748
20
1.1592590944881889
11
0.9689825196850393
21
1.159835157480315
0
LINE
8
BLACK
6
CONTINUOUS
10
0.9689825196850393
20
1.159835157480315
11
0.9694234251968503
21
1.1608995669291338
0
LINE
8
BLACK
6
CONTINUOUS
10
0.9694234251968503
20
1.1608995669291338
11
0.9702380708661417
21
1.1617142125984252
0
LINE
8
BLACK
6
CONTINUOUS
10
0.9702380708661417
20
1.1617142125984252
11
0.9713024803149606
21
1.1621551181102361
0
LINE
8
BLACK
6
CONTINUOUS
10
0.9713024803149606
20
1.1621551181102361
11
0.9718785433070866
21
1.1622118503937007
0
LINE
8
BLACK
6
CONTINUOUS
10
0.9718785433070866
20
1.1622118503937007
11
0.9812523622047243
21
1.1622118503937007
0
LINE
8
BLACK
6
CONTINUOUS
10
0.9812523622047243
20
1.1622118503937007
11
0.9815438976377953
21
1.1621831496062991
0
LINE
8
BLACK
6
CONTINUOUS
10
0.9748312992125984
20
1.1228417716535433
11
0.9807732283464566
21
1.1228417716535433
0
LINE
8
BLACK
6
CONTINUOUS
10
0.9807732283464566
20
1.1228417716535433
11
0.9852816141732283
21
1.1243446062992126
0
LINE
8
BLACK
6
CONTINUOUS
10
0.9852816141732283
20
1.1243446062992126
11
0.9881994094488189
21
1.1272624409448819
0
LINE
8
BLACK
6
CONTINUOUS
10
0.9881994094488189
20
1.1272624409448819
11
0.9897149212598425
21
1.1302934251968504
0
LINE
8
BLACK
6
CONTINUOUS
10
0.9897149212598425
20
1.1302934251968504
11
0.9914229527559055
21
1.1371254724409448
0
LINE
8
BLACK
6
CONTINUOUS
10
0.9914229527559055
20
1.1371254724409448
11
0.9914229527559055
21
1.1420226771653543
0
LINE
8
BLACK
6
CONTINUOUS
10
0.9914229527559055
20
1.1420226771653543
11
0.9897149212598425
21
1.1488547244094487
0
LINE
8
BLACK
6
CONTINUOUS
10
0.9897149212598425
20
1.1488547244094487
11
0.9881994488188977
21
1.1518857086614174
0
LINE
8
BLACK
6
CONTINUOUS
10
0.9881994488188977
20
1.1518857086614174
11
0.9852816141732283
21
1.1548035433070867
0
LINE
8
BLACK
6
CONTINUOUS
10
0.9852816141732283
20
1.1548035433070867
11
0.9807732283464566
21
1.1563063385826771
0
LINE
8
BLACK
6
CONTINUOUS
10
0.9807732283464566
20
1.1563063385826771
11
0.9748312992125984
21
1.1563063385826771
0
LINE
8
BLACK
6
CONTINUOUS
10
0.9748312992125984
20
1.1563063385826771
11
0.9748312992125984
21
1.1228417716535433
0
LINE
8
BLACK
6
CONTINUOUS
10
1.0659004724409449
20
1.1621551181102361
11
1.066192874015748
21
1.1621551181102361
0
LINE
8
BLACK
6
CONTINUOUS
10
1.066192874015748
20
1.1621551181102361
11
1.0664601181102362
21
1.1620444094488189
0
LINE
8
BLACK
6
CONTINUOUS
10
1.0664601181102362
20
1.1620444094488189
11
1.066743937007874
21
1.1619882677165354
0
LINE
8
BLACK
6
CONTINUOUS
10
1.066743937007874
20
1.1619882677165354
11
1.0669872047244093
21
1.1618261023622047
0
LINE
8
BLACK
6
CONTINUOUS
10
1.0669872047244093
20
1.1618261023622047
11
1.0672572834645668
21
1.1617142125984252
0
LINE
8
BLACK
6
CONTINUOUS
10
1.0672572834645668
20
1.1617142125984252
11
1.0674617322834645
21
1.1615097637795275
0
LINE
8
BLACK
6
CONTINUOUS
10
1.0674617322834645
20
1.1615097637795275
11
1.0677025590551181
21
1.1613492125984253
0
LINE
8
BLACK
6
CONTINUOUS
10
1.0677025590551181
20
1.1613492125984253
11
1.0678652755905511
21
1.1611062204724409
0
LINE
8
BLACK
6
CONTINUOUS
10
1.0678652755905511
20
1.1611062204724409
11
1.0680719291338583
21
1.1608995669291338
0
LINE
8
BLACK
6
CONTINUOUS
10
1.0680719291338583
20
1.1608995669291338
11
1.0681825984251969
21
1.1606323622047243
0
LINE
8
BLACK
6
CONTINUOUS
10
1.0681825984251969
20
1.1606323622047243
11
1.068343622047244
21
1.1603919291338582
0
LINE
8
BLACK
6
CONTINUOUS
10
1.068343622047244
20
1.1603919291338582
11
1.0684009448818896
21
1.1601052755905512
0
LINE
8
BLACK
6
CONTINUOUS
10
1.0684009448818896
20
1.1601052755905512
11
1.0685128346456694
21
1.159835157480315
0
LINE
8
BLACK
6
CONTINUOUS
10
1.0685128346456694
20
1.159835157480315
11
1.0685689370078739
21
1.1592652362204725
0
LINE
8
BLACK
6
CONTINUOUS
10
1.0685689370078739
20
1.1592652362204725
11
1.0685695669291337
21
1.1592622047244094
0
LINE
8
BLACK
6
CONTINUOUS
10
1.0685695669291337
20
1.1592622047244094
11
1.0685693307086614
21
1.1592611811023621
0
LINE
8
BLACK
6
CONTINUOUS
10
1.0685693307086614
20
1.1592611811023621
11
1.0685695669291337
21
1.1592590944881889
0
LINE
8
BLACK
6
CONTINUOUS
10
1.0685695669291337
20
1.1592590944881889
11
1.0685695669291337
21
1.1228417716535433
0
LINE
8
BLACK
6
CONTINUOUS
10
1.0685695669291337
20
1.1228417716535433
11
1.0768653937007875
21
1.1228417716535433
0
LINE
8
BLACK
6
CONTINUOUS
10
1.0768653937007875
20
1.1228417716535433
11
1.0774414566929134
21
1.1227850393700787
0
LINE
8
BLACK
6
CONTINUOUS
10
1.0774414566929134
20
1.1227850393700787
11
1.0785058661417322
21
1.1223441338582676
0
LINE
8
BLACK
6
CONTINUOUS
10
1.0785058661417322
20
1.1223441338582676
11
1.0793205118110236
21
1.1215294881889764
0
LINE
8
BLACK
6
CONTINUOUS
10
1.0793205118110236
20
1.1215294881889764
11
1.0797614173228347
21
1.1204650787401575
0
LINE
8
BLACK
6
CONTINUOUS
10
1.0797614173228347
20
1.1204650787401575
11
1.0797614173228347
21
1.1193129527559056
0
LINE
8
BLACK
6
CONTINUOUS
10
1.0797614173228347
20
1.1193129527559056
11
1.0793205118110236
21
1.1182485433070866
0
LINE
8
BLACK
6
CONTINUOUS
10
1.0793205118110236
20
1.1182485433070866
11
1.0785058661417322
21
1.1174338976377953
0
LINE
8
BLACK
6
CONTINUOUS
10
1.0785058661417322
20
1.1174338976377953
11
1.0774414566929134
21
1.1169929921259842
0
LINE
8
BLACK
6
CONTINUOUS
10
1.0774414566929134
20
1.1169929921259842
11
1.0768653937007875
21
1.1169362598425197
0
LINE
8
BLACK
6
CONTINUOUS
10
1.0768653937007875
20
1.1169362598425197
11
1.0543682283464566
21
1.1169362598425197
0
LINE
8
BLACK
6
CONTINUOUS
10
1.0543682283464566
20
1.1169362598425197
11
1.0537921653543307
21
1.1169929921259842
0
LINE
8
BLACK
6
CONTINUOUS
10
1.0537921653543307
20
1.1169929921259842
11
1.0527277559055117
21
1.1174338976377953
0
LINE
8
BLACK
6
CONTINUOUS
10
1.0527277559055117
20
1.1174338976377953
11
1.0519131102362205
21
1.1182485433070866
0
LINE
8
BLACK
6
CONTINUOUS
10
1.0519131102362205
20
1.1182485433070866
11
1.0514722047244094
21
1.1193129527559056
0
LINE
8
BLACK
6
CONTINUOUS
10
1.0514722047244094
20
1.1193129527559056
11
1.0514722047244094
21
1.1204650787401575
0
LINE
8
BLACK
6
CONTINUOUS
10
1.0514722047244094
20
1.1204650787401575
11
1.0519131102362205
21
1.1215294881889764
0
LINE
8
BLACK
6
CONTINUOUS
10
1.0519131102362205
20
1.1215294881889764
11
1.0527277559055117
21
1.1223441338582676
0
LINE
8
BLACK
6
CONTINUOUS
10
1.0527277559055117
20
1.1223441338582676
11
1.0537921653543307
21
1.1227850393700787
0
LINE
8
BLACK
6
CONTINUOUS
10
1.0537921653543307
20
1.1227850393700787
11
1.0543682283464566
21
1.1228417716535433
0
LINE
8
BLACK
6
CONTINUOUS
10
1.0543682283464566
20
1.1228417716535433
11
1.0626640551181101
21
1.1228417716535433
0
LINE
8
BLACK
6
CONTINUOUS
10
1.0626640551181101
20
1.1228417716535433
11
1.0626640551181101
21
1.1502557480314961
0
LINE
8
BLACK
6
CONTINUOUS
10
1.0626640551181101
20
1.1502557480314961
11
1.0602056692913386
21
1.1477973622047244
0
LINE
8
BLACK
6
CONTINUOUS
10
1.0602056692913386
20
1.1477973622047244
11
1.0599792913385826
21
1.1476116141732282
0
LINE
8
BLACK
6
CONTINUOUS
10
1.0599792913385826
20
1.1476116141732282
11
1.0599281496062991
21
1.1475525984251969
0
LINE
8
BLACK
6
CONTINUOUS
10
1.0599281496062991
20
1.1475525984251969
11
1.0598391732283465
21
1.1474966535433071
0
LINE
8
BLACK
6
CONTINUOUS
10
1.0598391732283465
20
1.1474966535433071
11
1.0597582283464566
21
1.147430157480315
0
LINE
8
BLACK
6
CONTINUOUS
10
1.0597582283464566
20
1.147430157480315
11
1.0596862598425196
21
1.1474003543307085
0
LINE
8
BLACK
6
CONTINUOUS
10
1.0596862598425196
20
1.1474003543307085
11
1.0594382677165355
21
1.147244251968504
0
LINE
8
BLACK
6
CONTINUOUS
10
1.0594382677165355
20
1.147244251968504
11
1.0556887401574804
21
1.1453694881889764
0
LINE
8
BLACK
6
CONTINUOUS
10
1.0556887401574804
20
1.1453694881889764
11
1.0551481102362203
21
1.1451625984251967
0
LINE
8
BLACK
6
CONTINUOUS
10
1.0551481102362203
20
1.1451625984251967
11
1.0539988976377952
21
1.1450809448818897
0
LINE
8
BLACK
6
CONTINUOUS
10
1.0539988976377952
20
1.1450809448818897
11
1.0529059448818898
21
1.1454452755905511
0
LINE
8
BLACK
6
CONTINUOUS
10
1.0529059448818898
20
1.1454452755905511
11
1.0520355511811024
21
1.1462001181102361
0
LINE
8
BLACK
6
CONTINUOUS
10
1.0520355511811024
20
1.1462001181102361
11
1.0515203149606298
21
1.1472306299212598
0
LINE
8
BLACK
6
CONTINUOUS
10
1.0515203149606298
20
1.1472306299212598
11
1.0514386614173228
21
1.1483798425196849
0
LINE
8
BLACK
6
CONTINUOUS
10
1.0514386614173228
20
1.1483798425196849
11
1.0518029921259842
21
1.1494727952755905
0
LINE
8
BLACK
6
CONTINUOUS
10
1.0518029921259842
20
1.1494727952755905
11
1.0525578346456692
21
1.150343188976378
0
LINE
8
BLACK
6
CONTINUOUS
10
1.0525578346456692
20
1.150343188976378
11
1.0530477165354331
21
1.1506515354330709
0
LINE
8
BLACK
6
CONTINUOUS
10
1.0530477165354331
20
1.1506515354330709
11
1.0563686614173229
21
1.1523120078740157
0
LINE
8
BLACK
6
CONTINUOUS
10
1.0563686614173229
20
1.1523120078740157
11
1.0595725590551182
21
1.1555159055118109
0
LINE
8
BLACK
6
CONTINUOUS
10
1.0595725590551182
20
1.1555159055118109
11
1.0631599606299211
21
1.1608970078740157
0
LINE
8
BLACK
6
CONTINUOUS
10
1.0631599606299211
20
1.1608970078740157
11
1.0631612992125985
21
1.1608987007874016
0
LINE
8
BLACK
6
CONTINUOUS
10
1.0631612992125985
20
1.1608987007874016
11
1.0631616929133858
21
1.1608995669291338
0
LINE
8
BLACK
6
CONTINUOUS
10
1.0631616929133858
20
1.1608995669291338
11
1.0631637007874015
21
1.1609016141732282
0
LINE
8
BLACK
6
CONTINUOUS
10
1.0631637007874015
20
1.1609016141732282
11
1.0635267322834645
21
1.1613448425196851
0
LINE
8
BLACK
6
CONTINUOUS
10
1.0635267322834645
20
1.1613448425196851
11
1.0637696062992126
21
1.1615075196850393
0
LINE
8
BLACK
6
CONTINUOUS
10
1.0637696062992126
20
1.1615075196850393
11
1.063976338582677
21
1.1617142125984252
0
LINE
8
BLACK
6
CONTINUOUS
10
1.063976338582677
20
1.1617142125984252
11
1.064243622047244
21
1.1618249606299211
0
LINE
8
BLACK
6
CONTINUOUS
10
1.064243622047244
20
1.1618249606299211
11
1.0644840157480315
21
1.1619859055118109
0
LINE
8
BLACK
6
CONTINUOUS
10
1.0644840157480315
20
1.1619859055118109
11
1.0647706299212598
21
1.1620432677165353
0
LINE
8
BLACK
6
CONTINUOUS
10
1.0647706299212598
20
1.1620432677165353
11
1.0650407480314961
21
1.1621551181102361
0
LINE
8
BLACK
6
CONTINUOUS
10
1.0650407480314961
20
1.1621551181102361
11
1.0653300393700786
21
1.1621551181102361
0
LINE
8
BLACK
6
CONTINUOUS
10
1.0653300393700786
20
1.1621551181102361
11
1.0656137007874016
21
1.1622118503937007
0
LINE
8
BLACK
6
CONTINUOUS
10
1.0656137007874016
20
1.1622118503937007
11
1.0659004724409449
21
1.1621551181102361
0
LINE
8
BLACK
6
CONTINUOUS
10
1.107437716535433
20
1.1621551181102361
11
1.1075357086614173
21
1.1621145275590552
0
LINE
8
BLACK
6
CONTINUOUS
10
1.1075357086614173
20
1.1621145275590552
11
1.1076415354330709
21
1.1621070078740157
0
LINE
8
BLACK
6
CONTINUOUS
10
1.1076415354330709
20
1.1621070078740157
11
1.1081821653543307
21
1.1619001181102362
0
LINE
8
BLACK
6
CONTINUOUS
10
1.1081821653543307
20
1.1619001181102362
11
1.1119316929133858
21
1.1600253543307086
0
LINE
8
BLACK
6
CONTINUOUS
10
1.1119316929133858
20
1.1600253543307086
11
1.1121796850393701
21
1.1598692913385826
0
LINE
8
BLACK
6
CONTINUOUS
10
1.1121796850393701
20
1.1598692913385826
11
1.1122516535433071
21
1.1598394488188977
0
LINE
8
BLACK
6
CONTINUOUS
10
1.1122516535433071
20
1.1598394488188977
11
1.1123325984251968
21
1.1597729921259843
0
LINE
8
BLACK
6
CONTINUOUS
10
1.1123325984251968
20
1.1597729921259843
11
1.1124215748031496
21
1.1597170078740158
0
LINE
8
BLACK
6
CONTINUOUS
10
1.1124215748031496
20
1.1597170078740158
11
1.1124727165354331
21
1.1596580314960629
0
LINE
8
BLACK
6
CONTINUOUS
10
1.1124727165354331
20
1.1596580314960629
11
1.1126990944881889
21
1.1594722440944882
0
LINE
8
BLACK
6
CONTINUOUS
10
1.1126990944881889
20
1.1594722440944882
11
1.1145738582677165
21
1.1575974803149607
0
LINE
8
BLACK
6
CONTINUOUS
10
1.1145738582677165
20
1.1575974803149607
11
1.1147596062992127
21
1.1573711417322834
0
LINE
8
BLACK
6
CONTINUOUS
10
1.1147596062992127
20
1.1573711417322834
11
1.114818622047244
21
1.1573199606299212
0
LINE
8
BLACK
6
CONTINUOUS
10
1.114818622047244
20
1.1573199606299212
11
1.1148745669291338
21
1.1572310236220473
0
LINE
8
BLACK
6
CONTINUOUS
10
1.1148745669291338
20
1.1572310236220473
11
1.1149410629921259
21
1.1571500393700787
0
LINE
8
BLACK
6
CONTINUOUS
10
1.1149410629921259
20
1.1571500393700787
11
1.1149708661417324
21
1.1570781102362204
0
LINE
8
BLACK
6
CONTINUOUS
10
1.1149708661417324
20
1.1570781102362204
11
1.1151269685039369
21
1.1568300787401575
0
LINE
8
BLACK
6
CONTINUOUS
10
1.1151269685039369
20
1.1568300787401575
11
1.1170017322834644
21
1.1530805511811024
0
LINE
8
BLACK
6
CONTINUOUS
10
1.1170017322834644
20
1.1530805511811024
11
1.1172086220472441
21
1.1525399606299211
0
LINE
8
BLACK
6
CONTINUOUS
10
1.1172086220472441
20
1.1525399606299211
11
1.1172161417322835
21
1.152434094488189
0
LINE
8
BLACK
6
CONTINUOUS
10
1.1172161417322835
20
1.152434094488189
11
1.1172567322834646
21
1.1523361023622047
0
LINE
8
BLACK
6
CONTINUOUS
10
1.1172567322834646
20
1.1523361023622047
11
1.1173134645669291
21
1.1517600393700786
0
LINE
8
BLACK
6
CONTINUOUS
10
1.1173134645669291
20
1.1517600393700786
11
1.1173134645669291
21
1.1480105118110235
0
LINE
8
BLACK
6
CONTINUOUS
10
1.1173134645669291
20
1.1480105118110235
11
1.1172847244094488
21
1.147718937007874
0
LINE
8
BLACK
6
CONTINUOUS
10
1.1172847244094488
20
1.147718937007874
11
1.1172902755905512
21
1.1476411811023621
0
LINE
8
BLACK
6
CONTINUOUS
10
1.1172902755905512
20
1.1476411811023621
11
1.1172670078740157
21
1.1475389370078739
0
LINE
8
BLACK
6
CONTINUOUS
10
1.1172670078740157
20
1.1475389370078739
11
1.1172567322834646
21
1.1474344488188977
0
LINE
8
BLACK
6
CONTINUOUS
10
1.1172567322834646
20
1.1474344488188977
11
1.1172268503937008
21
1.1473624015748032
0
LINE
8
BLACK
6
CONTINUOUS
10
1.1172268503937008
20
1.1473624015748032
11
1.1171619291338581
21
1.1470767322834645
0
LINE
8
BLACK
6
CONTINUOUS
10
1.1171619291338581
20
1.1470767322834645
11
1.1152871653543306
21
1.1414524803149606
0
LINE
8
BLACK
6
CONTINUOUS
10
1.1152871653543306
20
1.1414524803149606
11
1.1150511811023622
21
1.1409238976377953
0
LINE
8
BLACK
6
CONTINUOUS
10
1.1150511811023622
20
1.1409238976377953
11
1.1149816929133858
21
1.1408438188976378
0
LINE
8
BLACK
6
CONTINUOUS
10
1.1149816929133858
20
1.1408438188976378
11
1.1149411023622047
21
1.140745748031496
0
LINE
8
BLACK
6
CONTINUOUS
10
1.1149411023622047
20
1.140745748031496
11
1.1145738582677165
21
1.1402983070866142
0
LINE
8
BLACK
6
CONTINUOUS
10
1.1145738582677165
20
1.1402983070866142
11
1.0971173622047243
21
1.1228417716535433
0
LINE
8
BLACK
6
CONTINUOUS
10
1.0971173622047243
20
1.1228417716535433
11
1.1143607086614173
21
1.1228417716535433
0
LINE
8
BLACK
6
CONTINUOUS
10
1.1143607086614173
20
1.1228417716535433
11
1.1149367716535432
21
1.1227850393700787
0
LINE
8
BLACK
6
CONTINUOUS
10
1.1149367716535432
20
1.1227850393700787
11
1.1160011811023622
21
1.1223441338582676
0
LINE
8
BLACK
6
CONTINUOUS
10
1.1160011811023622
20
1.1223441338582676
11
1.1168158267716535
21
1.1215294881889764
0
LINE
8
BLACK
6
CONTINUOUS
10
1.1168158267716535
20
1.1215294881889764
11
1.1172567322834646
21
1.1204650787401575
0
LINE
8
BLACK
6
CONTINUOUS
10
1.1172567322834646
20
1.1204650787401575
11
1.1172567322834646
21
1.1193129527559056
0
LINE
8
BLACK
6
CONTINUOUS
10
1.1172567322834646
20
1.1193129527559056
11
1.1168158267716535
21
1.1182485433070866
0
LINE
8
BLACK
6
CONTINUOUS
10
1.1168158267716535
20
1.1182485433070866
11
1.1160011811023622
21
1.1174338976377953
0
LINE
8
BLACK
6
CONTINUOUS
10
1.1160011811023622
20
1.1174338976377953
11
1.1149367716535432
21
1.1169929921259842
0
LINE
8
BLACK
6
CONTINUOUS
10
1.1149367716535432
20
1.1169929921259842
11
1.1143607086614173
21
1.1169362598425197
0
LINE
8
BLACK
6
CONTINUOUS
10
1.1143607086614173
20
1.1169362598425197
11
1.0899887795275591
21
1.1169362598425197
0
LINE
8
BLACK
6
CONTINUOUS
10
1.0899887795275591
20
1.1169362598425197
11
1.089412716535433
21
1.1169929921259842
0
LINE
8
BLACK
6
CONTINUOUS
10
1.089412716535433
20
1.1169929921259842
11
1.0883483070866142
21
1.1174338976377953
0
LINE
8
BLACK
6
CONTINUOUS
10
1.0883483070866142
20
1.1174338976377953
11
1.0875336614173228
21
1.1182485433070866
0
LINE
8
BLACK
6
CONTINUOUS
10
1.0875336614173228
20
1.1182485433070866
11
1.0870927559055117
21
1.1193129527559056
0
LINE
8
BLACK
6
CONTINUOUS
10
1.0870927559055117
20
1.1193129527559056
11
1.0870927559055117
21
1.1204650787401575
0
LINE
8
BLACK
6
CONTINUOUS
10
1.0870927559055117
20
1.1204650787401575
11
1.0875336614173228
21
1.1215294881889764
0
LINE
8
BLACK
6
CONTINUOUS
10
1.0875336614173228
20
1.1215294881889764
11
1.0879008661417322
21
1.1219769291338582
0
LINE
8
BLACK
6
CONTINUOUS
10
1.0879008661417322
20
1.1219769291338582
11
1.1099051181102362
21
1.1439812598425196
0
LINE
8
BLACK
6
CONTINUOUS
10
1.1099051181102362
20
1.1439812598425196
11
1.1114079527559055
21
1.1484896456692912
0
LINE
8
BLACK
6
CONTINUOUS
10
1.1114079527559055
20
1.1484896456692912
11
1.1114079527559055
21
1.1510629921259843
0
LINE
8
BLACK
6
CONTINUOUS
10
1.1114079527559055
20
1.1510629921259843
11
1.1100592125984252
21
1.1537604724409449
0
LINE
8
BLACK
6
CONTINUOUS
10
1.1100592125984252
20
1.1537604724409449
11
1.1088620866141732
21
1.1549575984251967
0
LINE
8
BLACK
6
CONTINUOUS
10
1.1088620866141732
20
1.1549575984251967
11
1.1061646062992125
21
1.1563063385826771
0
LINE
8
BLACK
6
CONTINUOUS
10
1.1061646062992125
20
1.1563063385826771
11
1.0981848818897637
21
1.1563063385826771
0
LINE
8
BLACK
6
CONTINUOUS
10
1.0981848818897637
20
1.1563063385826771
11
1.0954874015748031
21
1.1549575984251967
0
LINE
8
BLACK
6
CONTINUOUS
10
1.0954874015748031
20
1.1549575984251967
11
1.0939514566929134
21
1.1534216535433071
0
LINE
8
BLACK
6
CONTINUOUS
10
1.0939514566929134
20
1.1534216535433071
11
1.0935040157480316
21
1.1530544488188976
0
LINE
8
BLACK
6
CONTINUOUS
10
1.0935040157480316
20
1.1530544488188976
11
1.0924395669291338
21
1.1526135433070865
0
LINE
8
BLACK
6
CONTINUOUS
10
1.0924395669291338
20
1.1526135433070865
11
1.0912875196850393
21
1.1526135433070865
0
LINE
8
BLACK
6
CONTINUOUS
10
1.0912875196850393
20
1.1526135433070865
11
1.0902230708661418
21
1.1530544488188976
0
LINE
8
BLACK
6
CONTINUOUS
10
1.0902230708661418
20
1.1530544488188976
11
1.0894084251968503
21
1.1538690944881889
0
LINE
8
BLACK
6
CONTINUOUS
10
1.0894084251968503
20
1.1538690944881889
11
1.0889675196850392
21
1.1549335433070866
0
LINE
8
BLACK
6
CONTINUOUS
10
1.0889675196850392
20
1.1549335433070866
11
1.0889675196850392
21
1.1560855905511811
0
LINE
8
BLACK
6
CONTINUOUS
10
1.0889675196850392
20
1.1560855905511811
11
1.0894084251968503
21
1.1571500393700787
0
LINE
8
BLACK
6
CONTINUOUS
10
1.0894084251968503
20
1.1571500393700787
11
1.0897756299212598
21
1.1575974803149607
0
LINE
8
BLACK
6
CONTINUOUS
10
1.0897756299212598
20
1.1575974803149607
11
1.0916503937007873
21
1.1594722440944882
0
LINE
8
BLACK
6
CONTINUOUS
10
1.0916503937007873
20
1.1594722440944882
11
1.0918767322834646
21
1.1596580314960629
0
LINE
8
BLACK
6
CONTINUOUS
10
1.0918767322834646
20
1.1596580314960629
11
1.0919279133858268
21
1.1597170078740158
0
LINE
8
BLACK
6
CONTINUOUS
10
1.0919279133858268
20
1.1597170078740158
11
1.0920168503937007
21
1.1597729921259843
0
LINE
8
BLACK
6
CONTINUOUS
10
1.0920168503937007
20
1.1597729921259843
11
1.0920978346456693
21
1.1598394488188977
0
LINE
8
BLACK
6
CONTINUOUS
10
1.0920978346456693
20
1.1598394488188977
11
1.0921697637795276
21
1.1598692913385826
0
LINE
8
BLACK
6
CONTINUOUS
10
1.0921697637795276
20
1.1598692913385826
11
1.0924177952755905
21
1.1600253543307086
0
LINE
8
BLACK
6
CONTINUOUS
10
1.0924177952755905
20
1.1600253543307086
11
1.0961673228346456
21
1.1619001181102362
0
LINE
8
BLACK
6
CONTINUOUS
10
1.0961673228346456
20
1.1619001181102362
11
1.0967079133858268
21
1.1621070078740157
0
LINE
8
BLACK
6
CONTINUOUS
10
1.0967079133858268
20
1.1621070078740157
11
1.096813779527559
21
1.1621145669291337
0
LINE
8
BLACK
6
CONTINUOUS
10
1.096813779527559
20
1.1621145669291337
11
1.0969117716535433
21
1.1621551181102361
0
LINE
8
BLACK
6
CONTINUOUS
10
1.0969117716535433
20
1.1621551181102361
11
1.0974878346456693
21
1.1622118503937007
0
LINE
8
BLACK
6
CONTINUOUS
10
1.0974878346456693
20
1.1622118503937007
11
1.1068616535433071
21
1.1622118503937007
0
LINE
8
BLACK
6
CONTINUOUS
10
1.1068616535433071
20
1.1622118503937007
11
1.107437716535433
21
1.1621551181102361
0
LINE
8
BLACK
6
CONTINUOUS
10
1.1449330314960631
20
1.1621551181102361
11
1.1450310236220471
21
1.1621145275590552
0
LINE
8
BLACK
6
CONTINUOUS
10
1.1450310236220471
20
1.1621145275590552
11
1.1451368503937007
21
1.1621070078740157
0
LINE
8
BLACK
6
CONTINUOUS
10
1.1451368503937007
20
1.1621070078740157
11
1.1456774803149605
21
1.1619001181102362
0
LINE
8
BLACK
6
CONTINUOUS
10
1.1456774803149605
20
1.1619001181102362
11
1.1494270078740156
21
1.1600253543307086
0
LINE
8
BLACK
6
CONTINUOUS
10
1.1494270078740156
20
1.1600253543307086
11
1.149675
21
1.1598692913385826
0
LINE
8
BLACK
6
CONTINUOUS
10
1.149675
20
1.1598692913385826
11
1.149746968503937
21
1.1598394488188977
0
LINE
8
BLACK
6
CONTINUOUS
10
1.149746968503937
20
1.1598394488188977
11
1.1498279133858267
21
1.1597729921259843
0
LINE
8
BLACK
6
CONTINUOUS
10
1.1498279133858267
20
1.1597729921259843
11
1.1499168897637795
21
1.1597170078740158
0
LINE
8
BLACK
6
CONTINUOUS
10
1.1499168897637795
20
1.1597170078740158
11
1.149968031496063
21
1.1596580314960629
0
LINE
8
BLACK
6
CONTINUOUS
10
1.149968031496063
20
1.1596580314960629
11
1.1501944094488188
21
1.1594722440944882
0
LINE
8
BLACK
6
CONTINUOUS
10
1.1501944094488188
20
1.1594722440944882
11
1.1520691732283463
21
1.1575974803149607
0
LINE
8
BLACK
6
CONTINUOUS
10
1.1520691732283463
20
1.1575974803149607
11
1.1522549212598425
21
1.1573711417322834
0
LINE
8
BLACK
6
CONTINUOUS
10
1.1522549212598425
20
1.1573711417322834
11
1.1523139370078739
21
1.1573199606299212
0
LINE
8
BLACK
6
CONTINUOUS
10
1.1523139370078739
20
1.1573199606299212
11
1.1523698818897639
21
1.1572310236220473
0
LINE
8
BLACK
6
CONTINUOUS
10
1.1523698818897639
20
1.1572310236220473
11
1.1524363779527558
21
1.1571500393700787
0
LINE
8
BLACK
6
CONTINUOUS
10
1.1524363779527558
20
1.1571500393700787
11
1.1524661811023622
21
1.1570781102362204
0
LINE
8
BLACK
6
CONTINUOUS
10
1.1524661811023622
20
1.1570781102362204
11
1.152622283464567
21
1.1568300787401575
0
LINE
8
BLACK
6
CONTINUOUS
10
1.152622283464567
20
1.1568300787401575
11
1.1544970472440945
21
1.1530805511811024
0
LINE
8
BLACK
6
CONTINUOUS
10
1.1544970472440945
20
1.1530805511811024
11
1.154703937007874
21
1.1525399606299211
0
LINE
8
BLACK
6
CONTINUOUS
10
1.154703937007874
20
1.1525399606299211
11
1.1547114566929133
21
1.152434094488189
0
LINE
8
BLACK
6
CONTINUOUS
10
1.1547114566929133
20
1.152434094488189
11
1.1547520472440944
21
1.1523361023622047
0
LINE
8
BLACK
6
CONTINUOUS
10
1.1547520472440944
20
1.1523361023622047
11
1.154808779527559
21
1.1517600393700786
0
LINE
8
BLACK
6
CONTINUOUS
10
1.154808779527559
20
1.1517600393700786
11
1.154808779527559
21
1.1498852755905511
0
LINE
8
BLACK
6
CONTINUOUS
10
1.154808779527559
20
1.1498852755905511
11
1.1547520472440944
21
1.1493092125984252
0
LINE
8
BLACK
6
CONTINUOUS
10
1.1547520472440944
20
1.1493092125984252
11
1.1547114566929133
21
1.1492112598425197
0
LINE
8
BLACK
6
CONTINUOUS
10
1.1547114566929133
20
1.1492112598425197
11
1.154703937007874
21
1.1491053543307086
0
LINE
8
BLACK
6
CONTINUOUS
10
1.154703937007874
20
1.1491053543307086
11
1.1544970472440945
21
1.1485647637795275
0
LINE
8
BLACK
6
CONTINUOUS
10
1.1544970472440945
20
1.1485647637795275
11
1.152622283464567
21
1.1448152362204724
0
LINE
8
BLACK
6
CONTINUOUS
10
1.152622283464567
20
1.1448152362204724
11
1.1524661811023622
21
1.1445672440944881
0
LINE
8
BLACK
6
CONTINUOUS
10
1.1524661811023622
20
1.1445672440944881
11
1.1524363779527558
21
1.1444952755905511
0
LINE
8
BLACK
6
CONTINUOUS
10
1.1524363779527558
20
1.1444952755905511
11
1.1523698818897639
21
1.1444143307086614
0
LINE
8
BLACK
6
CONTINUOUS
10
1.1523698818897639
20
1.1444143307086614
11
1.1523139370078739
21
1.1443253543307086
0
LINE
8
BLACK
6
CONTINUOUS
10
1.1523139370078739
20
1.1443253543307086
11
1.1522549212598425
21
1.1442742125984251
0
LINE
8
BLACK
6
CONTINUOUS
10
1.1522549212598425
20
1.1442742125984251
11
1.1520691732283463
21
1.1440478346456693
0
LINE
8
BLACK
6
CONTINUOUS
10
1.1520691732283463
20
1.1440478346456693
11
1.1504075590551182
21
1.1423862204724409
0
LINE
8
BLACK
6
CONTINUOUS
10
1.1504075590551182
20
1.1423862204724409
11
1.1520691732283463
21
1.1407246062992125
0
LINE
8
BLACK
6
CONTINUOUS
10
1.1520691732283463
20
1.1407246062992125
11
1.1522549212598425
21
1.1404982677165354
0
LINE
8
BLACK
6
CONTINUOUS
10
1.1522549212598425
20
1.1404982677165354
11
1.1523139370078739
21
1.1404470866141732
0
LINE
8
BLACK
6
CONTINUOUS
10
1.1523139370078739
20
1.1404470866141732
11
1.1523698818897639
21
1.1403581496062991
0
LINE
8
BLACK
6
CONTINUOUS
10
1.1523698818897639
20
1.1403581496062991
11
1.1524363779527558
21
1.1402771653543307
0
LINE
8
BLACK
6
CONTINUOUS
10
1.1524363779527558
20
1.1402771653543307
11
1.1524661811023622
21
1.1402052362204724
0
LINE
8
BLACK
6
CONTINUOUS
10
1.1524661811023622
20
1.1402052362204724
11
1.152622283464567
21
1.1399572047244093
0
LINE
8
BLACK
6
CONTINUOUS
10
1.152622283464567
20
1.1399572047244093
11
1.1544970472440945
21
1.1362076771653542
0
LINE
8
BLACK
6
CONTINUOUS
10
1.1544970472440945
20
1.1362076771653542
11
1.154703937007874
21
1.1356670866141731
0
LINE
8
BLACK
6
CONTINUOUS
10
1.154703937007874
20
1.1356670866141731
11
1.1547114566929133
21
1.135561220472441
0
LINE
8
BLACK
6
CONTINUOUS
10
1.1547114566929133
20
1.135561220472441
11
1.1547520472440944
21
1.1354632283464567
0
LINE
8
BLACK
6
CONTINUOUS
10
1.1547520472440944
20
1.1354632283464567
11
1.154808779527559
21
1.1348871653543307
0
LINE
8
BLACK
6
CONTINUOUS
10
1.154808779527559
20
1.1348871653543307
11
1.154808779527559
21
1.1273881102362204
0
LINE
8
BLACK
6
CONTINUOUS
10
1.154808779527559
20
1.1273881102362204
11
1.1547520472440944
21
1.1268120472440946
0
LINE
8
BLACK
6
CONTINUOUS
10
1.1547520472440944
20
1.1268120472440946
11
1.1547114566929133
21
1.126714094488189
0
LINE
8
BLACK
6
CONTINUOUS
10
1.1547114566929133
20
1.126714094488189
11
1.154703937007874
21
1.1266081889763779
0
LINE
8
BLACK
6
CONTINUOUS
10
1.154703937007874
20
1.1266081889763779
11
1.1544970472440945
21
1.1260675984251969
0
LINE
8
BLACK
6
CONTINUOUS
10
1.1544970472440945
20
1.1260675984251969
11
1.152622283464567
21
1.1223180708661418
0
LINE
8
BLACK
6
CONTINUOUS
10
1.152622283464567
20
1.1223180708661418
11
1.152466220472441
21
1.1220701968503937
0
LINE
8
BLACK
6
CONTINUOUS
10
1.152466220472441
20
1.1220701968503937
11
1.1524364173228345
21
1.1219981496062992
0
LINE
8
BLACK
6
CONTINUOUS
10
1.1524364173228345
20
1.1219981496062992
11
1.1523698818897639
21
1.121917125984252
0
LINE
8
BLACK
6
CONTINUOUS
10
1.1523698818897639
20
1.121917125984252
11
1.1523139370078739
21
1.1218281889763779
0
LINE
8
BLACK
6
CONTINUOUS
10
1.1523139370078739
20
1.1218281889763779
11
1.1522549212598425
21
1.1217770472440944
0
LINE
8
BLACK
6
CONTINUOUS
10
1.1522549212598425
20
1.1217770472440944
11
1.1520691732283463
21
1.1215506692913386
0
LINE
8
BLACK
6
CONTINUOUS
10
1.1520691732283463
20
1.1215506692913386
11
1.1501944488188975
21
1.1196759055118111
0
LINE
8
BLACK
6
CONTINUOUS
10
1.1501944488188975
20
1.1196759055118111
11
1.1499680708661417
21
1.1194901574803149
0
LINE
8
BLACK
6
CONTINUOUS
10
1.1499680708661417
20
1.1194901574803149
11
1.1499168897637795
21
1.1194311023622048
0
LINE
8
BLACK
6
CONTINUOUS
10
1.1499168897637795
20
1.1194311023622048
11
1.1498279133858267
21
1.1193751181102363
0
LINE
8
BLACK
6
CONTINUOUS
10
1.1498279133858267
20
1.1193751181102363
11
1.149746968503937
21
1.1193086614173229
0
LINE
8
BLACK
6
CONTINUOUS
10
1.149746968503937
20
1.1193086614173229
11
1.149675
21
1.1192788582677164
0
LINE
8
BLACK
6
CONTINUOUS
10
1.149675
20
1.1192788582677164
11
1.1494270078740156
21
1.1191227559055117
0
LINE
8
BLACK
6
CONTINUOUS
10
1.1494270078740156
20
1.1191227559055117
11
1.1456774803149605
21
1.1172479921259841
0
LINE
8
BLACK
6
CONTINUOUS
10
1.1456774803149605
20
1.1172479921259841
11
1.1451368503937007
21
1.1170411023622047
0
LINE
8
BLACK
6
CONTINUOUS
10
1.1451368503937007
20
1.1170411023622047
11
1.1450310236220471
21
1.1170336220472441
0
LINE
8
BLACK
6
CONTINUOUS
10
1.1450310236220471
20
1.1170336220472441
11
1.1449330314960631
21
1.1169929921259842
0
LINE
8
BLACK
6
CONTINUOUS
10
1.1449330314960631
20
1.1169929921259842
11
1.144356968503937
21
1.1169362598425197
0
LINE
8
BLACK
6
CONTINUOUS
10
1.144356968503937
20
1.1169362598425197
11
1.1368579133858268
21
1.1169362598425197
0
LINE
8
BLACK
6
CONTINUOUS
10
1.1368579133858268
20
1.1169362598425197
11
1.1362818503937007
21
1.1169929921259842
0
LINE
8
BLACK
6
CONTINUOUS
10
1.1362818503937007
20
1.1169929921259842
11
1.1361838582677166
21
1.1170335826771653
0
LINE
8
BLACK
6
CONTINUOUS
10
1.1361838582677166
20
1.1170335826771653
11
1.1360779921259843
21
1.1170411023622047
0
LINE
8
BLACK
6
CONTINUOUS
10
1.1360779921259843
20
1.1170411023622047
11
1.1355374015748032
21
1.1172479921259841
0
LINE
8
BLACK
6
CONTINUOUS
10
1.1355374015748032
20
1.1172479921259841
11
1.1317878740157481
21
1.1191227559055117
0
LINE
8
BLACK
6
CONTINUOUS
10
1.1317878740157481
20
1.1191227559055117
11
1.131539842519685
21
1.1192788582677164
0
LINE
8
BLACK
6
CONTINUOUS
10
1.131539842519685
20
1.1192788582677164
11
1.1314679133858268
21
1.1193086614173229
0
LINE
8
BLACK
6
CONTINUOUS
10
1.1314679133858268
20
1.1193086614173229
11
1.1313869291338583
21
1.1193751181102363
0
LINE
8
BLACK
6
CONTINUOUS
10
1.1313869291338583
20
1.1193751181102363
11
1.1312979921259843
21
1.1194311023622048
0
LINE
8
BLACK
6
CONTINUOUS
10
1.1312979921259843
20
1.1194311023622048
11
1.1312467716535433
21
1.1194901574803149
0
LINE
8
BLACK
6
CONTINUOUS
10
1.1312467716535433
20
1.1194901574803149
11
1.1310204330708662
21
1.1196759055118111
0
LINE
8
BLACK
6
CONTINUOUS
10
1.1310204330708662
20
1.1196759055118111
11
1.1291456692913386
21
1.1215507086614174
0
LINE
8
BLACK
6
CONTINUOUS
10
1.1291456692913386
20
1.1215507086614174
11
1.1289599212598425
21
1.1217770472440944
0
LINE
8
BLACK
6
CONTINUOUS
10
1.1289599212598425
20
1.1217770472440944
11
1.1289009448818896
21
1.1218281889763779
0
LINE
8
BLACK
6
CONTINUOUS
10
1.1289009448818896
20
1.1218281889763779
11
1.1288449606299211
21
1.121917125984252
0
LINE
8
BLACK
6
CONTINUOUS
10
1.1288449606299211
20
1.121917125984252
11
1.1287784645669292
21
1.1219981496062992
0
LINE
8
BLACK
6
CONTINUOUS
10
1.1287784645669292
20
1.1219981496062992
11
1.128748622047244
21
1.1220701968503937
0
LINE
8
BLACK
6
CONTINUOUS
10
1.128748622047244
20
1.1220701968503937
11
1.1285925984251968
21
1.1223180708661418
0
LINE
8
BLACK
6
CONTINUOUS
10
1.1285925984251968
20
1.1223180708661418
11
1.1267178346456692
21
1.1260675984251969
0
LINE
8
BLACK
6
CONTINUOUS
10
1.1267178346456692
20
1.1260675984251969
11
1.1265109448818897
21
1.1266082283464567
0
LINE
8
BLACK
6
CONTINUOUS
10
1.1265109448818897
20
1.1266082283464567
11
1.1265034251968504
21
1.1267140551181103
0
LINE
8
BLACK
6
CONTINUOUS
10
1.1265034251968504
20
1.1267140551181103
11
1.1264628346456693
21
1.1268120472440946
0
LINE
8
BLACK
6
CONTINUOUS
10
1.1264628346456693
20
1.1268120472440946
11
1.1264061023622047
21
1.1273881102362204
0
LINE
8
BLACK
6
CONTINUOUS
10
1.1264061023622047
20
1.1273881102362204
11
1.1264061023622047
21
1.1348871653543307
0
LINE
8
BLACK
6
CONTINUOUS
10
1.1264061023622047
20
1.1348871653543307
11
1.1264628346456693
21
1.1354632283464567
0
LINE
8
BLACK
6
CONTINUOUS
10
1.1264628346456693
20
1.1354632283464567
11
1.1265034251968504
21
1.1355612598425198
0
LINE
8
BLACK
6
CONTINUOUS
10
1.1265034251968504
20
1.1355612598425198
11
1.1265109448818897
21
1.1356670472440944
0
LINE
8
BLACK
6
CONTINUOUS
10
1.1265109448818897
20
1.1356670472440944
11
1.1267178346456692
21
1.1362076771653542
0
LINE
8
BLACK
6
CONTINUOUS
10
1.1267178346456692
20
1.1362076771653542
11
1.1285925984251968
21
1.1399572047244093
0
LINE
8
BLACK
6
CONTINUOUS
10
1.1285925984251968
20
1.1399572047244093
11
1.1287486614173228
21
1.1402052362204724
0
LINE
8
BLACK
6
CONTINUOUS
10
1.1287486614173228
20
1.1402052362204724
11
1.1287785039370077
21
1.1402771653543307
0
LINE
8
BLACK
6
CONTINUOUS
10
1.1287785039370077
20
1.1402771653543307
11
1.1288449606299211
21
1.1403581496062991
0
LINE
8
BLACK
6
CONTINUOUS
10
1.1288449606299211
20
1.1403581496062991
11
1.1289009448818896
21
1.1404470866141732
0
LINE
8
BLACK
6
CONTINUOUS
10
1.1289009448818896
20
1.1404470866141732
11
1.1289599212598425
21
1.1404982677165354
0
LINE
8
BLACK
6
CONTINUOUS
10
1.1289599212598425
20
1.1404982677165354
11
1.1291457086614174
21
1.1407246062992125
0
LINE
8
BLACK
6
CONTINUOUS
10
1.1291457086614174
20
1.1407246062992125
11
1.1308073228346456
21
1.1423862204724409
0
LINE
8
BLACK
6
CONTINUOUS
10
1.1308073228346456
20
1.1423862204724409
11
1.1291457086614174
21
1.1440478346456693
0
LINE
8
BLACK
6
CONTINUOUS
10
1.1291457086614174
20
1.1440478346456693
11
1.1289599212598425
21
1.1442742125984251
0
LINE
8
BLACK
6
CONTINUOUS
10
1.1289599212598425
20
1.1442742125984251
11
1.1289009448818896
21
1.1443253543307086
0
LINE
8
BLACK
6
CONTINUOUS
10
1.1289009448818896
20
1.1443253543307086
11
1.1288449606299211
21
1.1444143307086614
0
LINE
8
BLACK
6
CONTINUOUS
10
1.1288449606299211
20
1.1444143307086614
11
1.1287785039370077
21
1.1444952755905511
0
LINE
8
BLACK
6
CONTINUOUS
10
1.1287785039370077
20
1.1444952755905511
11
1.1287486614173228
21
1.1445672440944881
0
LINE
8
BLACK
6
CONTINUOUS
10
1.1287486614173228
20
1.1445672440944881
11
1.1285925984251968
21
1.1448152362204724
0
LINE
8
BLACK
6
CONTINUOUS
10
1.1285925984251968
20
1.1448152362204724
11
1.1267178346456692
21
1.1485647637795275
0
LINE
8
BLACK
6
CONTINUOUS
10
1.1267178346456692
20
1.1485647637795275
11
1.1265109448818897
21
1.1491053937007873
0
LINE
8
BLACK
6
CONTINUOUS
10
1.1265109448818897
20
1.1491053937007873
11
1.1265034251968504
21
1.149211220472441
0
LINE
8
BLACK
6
CONTINUOUS
10
1.1265034251968504
20
1.149211220472441
11
1.1264628346456693
21
1.1493092125984252
0
LINE
8
BLACK
6
CONTINUOUS
10
1.1264628346456693
20
1.1493092125984252
11
1.1264061023622047
21
1.1498852755905511
0
LINE
8
BLACK
6
CONTINUOUS
10
1.1264061023622047
20
1.1498852755905511
11
1.1264061023622047
21
1.1517600393700786
0
LINE
8
BLACK
6
CONTINUOUS
10
1.1264061023622047
20
1.1517600393700786
11
1.1264628346456693
21
1.1523361023622047
0
LINE
8
BLACK
6
CONTINUOUS
10
1.1264628346456693
20
1.1523361023622047
11
1.1265034251968504
21
1.1524341338582678
0
LINE
8
BLACK
6
CONTINUOUS
10
1.1265034251968504
20
1.1524341338582678
11
1.1265109448818897
21
1.1525399212598424
0
LINE
8
BLACK
6
CONTINUOUS
10
1.1265109448818897
20
1.1525399212598424
11
1.1267178346456692
21
1.1530805511811024
0
LINE
8
BLACK
6
CONTINUOUS
10
1.1267178346456692
20
1.1530805511811024
11
1.1285925984251968
21
1.1568300787401575
0
LINE
8
BLACK
6
CONTINUOUS
10
1.1285925984251968
20
1.1568300787401575
11
1.1287486614173228
21
1.1570781102362204
0
LINE
8
BLACK
6
CONTINUOUS
10
1.1287486614173228
20
1.1570781102362204
11
1.1287785039370077
21
1.1571500393700787
0
LINE
8
BLACK
6
CONTINUOUS
10
1.1287785039370077
20
1.1571500393700787
11
1.1288449606299211
21
1.1572310236220473
0
LINE
8
BLACK
6
CONTINUOUS
10
1.1288449606299211
20
1.1572310236220473
11
1.1289009448818896
21
1.1573199606299212
0
LINE
8
BLACK
6
CONTINUOUS
10
1.1289009448818896
20
1.1573199606299212
11
1.1289599212598425
21
1.1573711417322834
0
LINE
8
BLACK
6
CONTINUOUS
10
1.1289599212598425
20
1.1573711417322834
11
1.1291457086614174
21
1.1575974803149607
0
LINE
8
BLACK
6
CONTINUOUS
10
1.1291457086614174
20
1.1575974803149607
11
1.1310204724409449
21
1.1594722440944882
0
LINE
8
BLACK
6
CONTINUOUS
10
1.1310204724409449
20
1.1594722440944882
11
1.131246811023622
21
1.1596580314960629
0
LINE
8
BLACK
6
CONTINUOUS
10
1.131246811023622
20
1.1596580314960629
11
1.1312979921259843
21
1.1597170078740158
0
LINE
8
BLACK
6
CONTINUOUS
10
1.1312979921259843
20
1.1597170078740158
11
1.1313869291338583
21
1.1597729921259843
0
LINE
8
BLACK
6
CONTINUOUS
10
1.1313869291338583
20
1.1597729921259843
11
1.1314679133858268
21
1.1598394488188977
0
LINE
8
BLACK
6
CONTINUOUS
10
1.1314679133858268
20
1.1598394488188977
11
1.131539842519685
21
1.1598692913385826
0
LINE
8
BLACK
6
CONTINUOUS
10
1.131539842519685
20
1.1598692913385826
11
1.1317878740157481
21
1.1600253543307086
0
LINE
8
BLACK
6
CONTINUOUS
10
1.1317878740157481
20
1.1600253543307086
11
1.1355374015748032
21
1.1619001181102362
0
LINE
8
BLACK
6
CONTINUOUS
10
1.1355374015748032
20
1.1619001181102362
11
1.1360779921259843
21
1.1621070078740157
0
LINE
8
BLACK
6
CONTINUOUS
10
1.1360779921259843
20
1.1621070078740157
11
1.1361838582677166
21
1.1621145669291337
0
LINE
8
BLACK
6
CONTINUOUS
10
1.1361838582677166
20
1.1621145669291337
11
1.1362818503937007
21
1.1621551181102361
0
LINE
8
BLACK
6
CONTINUOUS
10
1.1362818503937007
20
1.1621551181102361
11
1.1368579133858268
21
1.1622118503937007
0
LINE
8
BLACK
6
CONTINUOUS
10
1.1368579133858268
20
1.1622118503937007
11
1.144356968503937
21
1.1622118503937007
0
LINE
8
BLACK
6
CONTINUOUS
10
1.144356968503937
20
1.1622118503937007
11
1.1449330314960631
21
1.1621551181102361
0
LINE
8
BLACK
6
CONTINUOUS
10
1.1348574803149607
20
1.1380847244094487
11
1.1336603543307087
21
1.1368875984251969
0
LINE
8
BLACK
6
CONTINUOUS
10
1.1336603543307087
20
1.1368875984251969
11
1.1323116141732283
21
1.1341901181102363
0
LINE
8
BLACK
6
CONTINUOUS
10
1.1323116141732283
20
1.1341901181102363
11
1.1323116141732283
21
1.128085157480315
0
LINE
8
BLACK
6
CONTINUOUS
10
1.1323116141732283
20
1.128085157480315
11
1.1336603543307087
21
1.1253876771653544
0
LINE
8
BLACK
6
CONTINUOUS
10
1.1336603543307087
20
1.1253876771653544
11
1.1348574803149607
21
1.1241905118110236
0
LINE
8
BLACK
6
CONTINUOUS
10
1.1348574803149607
20
1.1241905118110236
11
1.1375549606299213
21
1.1228417716535433
0
LINE
8
BLACK
6
CONTINUOUS
10
1.1375549606299213
20
1.1228417716535433
11
1.1436599212598424
21
1.1228417716535433
0
LINE
8
BLACK
6
CONTINUOUS
10
1.1436599212598424
20
1.1228417716535433
11
1.1463573622047243
21
1.1241905118110236
0
LINE
8
BLACK
6
CONTINUOUS
10
1.1463573622047243
20
1.1241905118110236
11
1.1475544881889763
21
1.1253876771653544
0
LINE
8
BLACK
6
CONTINUOUS
10
1.1475544881889763
20
1.1253876771653544
11
1.1489032677165354
21
1.128085157480315
0
LINE
8
BLACK
6
CONTINUOUS
10
1.1489032677165354
20
1.128085157480315
11
1.1489032677165354
21
1.1341901181102363
0
LINE
8
BLACK
6
CONTINUOUS
10
1.1489032677165354
20
1.1341901181102363
11
1.1475545275590551
21
1.1368875984251969
0
LINE
8
BLACK
6
CONTINUOUS
10
1.1475545275590551
20
1.1368875984251969
11
1.146357401574803
21
1.1380847244094487
0
LINE
8
BLACK
6
CONTINUOUS
10
1.146357401574803
20
1.1380847244094487
11
1.1436599212598424
21
1.1394334645669291
0
LINE
8
BLACK
6
CONTINUOUS
10
1.1436599212598424
20
1.1394334645669291
11
1.1375549606299213
21
1.1394334645669291
0
LINE
8
BLACK
6
CONTINUOUS
10
1.1375549606299213
20
1.1394334645669291
11
1.1348574803149607
21
1.1380847244094487
0
LINE
8
BLACK
6
CONTINUOUS
10
1.1348574803149607
20
1.1549575984251967
11
1.1336603543307087
21
1.1537604724409449
0
LINE
8
BLACK
6
CONTINUOUS
10
1.1336603543307087
20
1.1537604724409449
11
1.1323116141732283
21
1.1510629921259843
0
LINE
8
BLACK
6
CONTINUOUS
10
1.1323116141732283
20
1.1510629921259843
11
1.1323116141732283
21
1.1505823228346457
0
LINE
8
BLACK
6
CONTINUOUS
10
1.1323116141732283
20
1.1505823228346457
11
1.1336603543307087
21
1.147884842519685
0
LINE
8
BLACK
6
CONTINUOUS
10
1.1336603543307087
20
1.147884842519685
11
1.1348574803149607
21
1.146687716535433
0
LINE
8
BLACK
6
CONTINUOUS
10
1.1348574803149607
20
1.146687716535433
11
1.1375549606299213
21
1.1453389763779527
0
LINE
8
BLACK
6
CONTINUOUS
10
1.1375549606299213
20
1.1453389763779527
11
1.1436599212598424
21
1.1453389763779527
0
LINE
8
BLACK
6
CONTINUOUS
10
1.1436599212598424
20
1.1453389763779527
11
1.146357401574803
21
1.146687716535433
0
LINE
8
BLACK
6
CONTINUOUS
10
1.146357401574803
20
1.146687716535433
11
1.1475545275590551
21
1.147884842519685
0
LINE
8
BLACK
6
CONTINUOUS
10
1.1475545275590551
20
1.147884842519685
11
1.1489032677165354
21
1.1505823228346457
0
LINE
8
BLACK
6
CONTINUOUS
10
1.1489032677165354
20
1.1505823228346457
11
1.1489032677165354
21
1.1510629921259843
0
LINE
8
BLACK
6
CONTINUOUS
10
1.1489032677165354
20
1.1510629921259843
11
1.1475545275590551
21
1.1537604724409449
0
LINE
8
BLACK
6
CONTINUOUS
10
1.1475545275590551
20
1.1537604724409449
11
1.146357401574803
21
1.1549575984251967
0
LINE
8
BLACK
6
CONTINUOUS
10
1.146357401574803
20
1.1549575984251967
11
1.1436599212598424
21
1.1563063385826771
0
LINE
8
BLACK
6
CONTINUOUS
10
1.1436599212598424
20
1.1563063385826771
11
1.1375549606299213
21
1.1563063385826771
0
LINE
8
BLACK
6
CONTINUOUS
10
1.1375549606299213
20
1.1563063385826771
11
1.1348574803149607
21
1.1549575984251967
0
LINE
8
BLACK
6
CONTINUOUS
10
1.2349217716535432
20
1.1621551181102361
11
1.2359861811023622
21
1.1617142125984252
0
LINE
8
BLACK
6
CONTINUOUS
10
1.2359861811023622
20
1.1617142125984252
11
1.2368008267716535
21
1.1608995669291338
0
LINE
8
BLACK
6
CONTINUOUS
10
1.2368008267716535
20
1.1608995669291338
11
1.2372417322834646
21
1.159835157480315
0
LINE
8
BLACK
6
CONTINUOUS
10
1.2372417322834646
20
1.159835157480315
11
1.2372417322834646
21
1.158683031496063
0
LINE
8
BLACK
6
CONTINUOUS
10
1.2372417322834646
20
1.158683031496063
11
1.2368008267716535
21
1.157618622047244
0
LINE
8
BLACK
6
CONTINUOUS
10
1.2368008267716535
20
1.157618622047244
11
1.2359861811023622
21
1.1568039763779527
0
LINE
8
BLACK
6
CONTINUOUS
10
1.2359861811023622
20
1.1568039763779527
11
1.2349217716535432
21
1.1563630708661417
0
LINE
8
BLACK
6
CONTINUOUS
10
1.2349217716535432
20
1.1563630708661417
11
1.2343457086614174
21
1.1563063385826771
0
LINE
8
BLACK
6
CONTINUOUS
10
1.2343457086614174
20
1.1563063385826771
11
1.2275437007874015
21
1.1563063385826771
0
LINE
8
BLACK
6
CONTINUOUS
10
1.2275437007874015
20
1.1563063385826771
11
1.2248462204724408
21
1.1549575984251967
0
LINE
8
BLACK
6
CONTINUOUS
10
1.2248462204724408
20
1.1549575984251967
11
1.2235170078740156
21
1.1536284251968503
0
LINE
8
BLACK
6
CONTINUOUS
10
1.2235170078740156
20
1.1536284251968503
11
1.2202133858267716
21
1.1486729527559054
0
LINE
8
BLACK
6
CONTINUOUS
10
1.2202133858267716
20
1.1486729527559054
11
1.2194840944881888
21
1.1457557480314959
0
LINE
8
BLACK
6
CONTINUOUS
10
1.2194840944881888
20
1.1457557480314959
11
1.2217766141732282
21
1.1469020078740157
0
LINE
8
BLACK
6
CONTINUOUS
10
1.2217766141732282
20
1.1469020078740157
11
1.2223172047244095
21
1.1471088976377952
0
LINE
8
BLACK
6
CONTINUOUS
10
1.2223172047244095
20
1.1471088976377952
11
1.2224230708661417
21
1.1471164566929133
0
LINE
8
BLACK
6
CONTINUOUS
10
1.2224230708661417
20
1.1471164566929133
11
1.2225210629921259
21
1.1471570078740156
0
LINE
8
BLACK
6
CONTINUOUS
10
1.2225210629921259
20
1.1471570078740156
11
1.223097125984252
21
1.1472137401574802
0
LINE
8
BLACK
6
CONTINUOUS
10
1.223097125984252
20
1.1472137401574802
11
1.2305961811023622
21
1.1472137401574802
0
LINE
8
BLACK
6
CONTINUOUS
10
1.2305961811023622
20
1.1472137401574802
11
1.2311722440944881
21
1.1471570078740156
0
LINE
8
BLACK
6
CONTINUOUS
10
1.2311722440944881
20
1.1471570078740156
11
1.2312702362204724
21
1.1471164173228345
0
LINE
8
BLACK
6
CONTINUOUS
10
1.2312702362204724
20
1.1471164173228345
11
1.231376062992126
21
1.1471088976377952
0
LINE
8
BLACK
6
CONTINUOUS
10
1.231376062992126
20
1.1471088976377952
11
1.2319166929133858
21
1.1469020078740157
0
LINE
8
BLACK
6
CONTINUOUS
10
1.2319166929133858
20
1.1469020078740157
11
1.2356662204724409
21
1.1450272440944882
0
LINE
8
BLACK
6
CONTINUOUS
10
1.2356662204724409
20
1.1450272440944882
11
1.2359142125984253
21
1.1448711811023622
0
LINE
8
BLACK
6
CONTINUOUS
10
1.2359142125984253
20
1.1448711811023622
11
1.2359861811023622
21
1.1448413385826772
0
LINE
8
BLACK
6
CONTINUOUS
10
1.2359861811023622
20
1.1448413385826772
11
1.2360671259842519
21
1.1447748818897638
0
LINE
8
BLACK
6
CONTINUOUS
10
1.2360671259842519
20
1.1447748818897638
11
1.2361561023622047
21
1.1447188976377953
0
LINE
8
BLACK
6
CONTINUOUS
10
1.2361561023622047
20
1.1447188976377953
11
1.2362072440944882
21
1.1446599212598425
0
LINE
8
BLACK
6
CONTINUOUS
10
1.2362072440944882
20
1.1446599212598425
11
1.2364336220472441
21
1.1444741338582678
0
LINE
8
BLACK
6
CONTINUOUS
10
1.2364336220472441
20
1.1444741338582678
11
1.2383083858267716
21
1.1425993700787402
0
LINE
8
BLACK
6
CONTINUOUS
10
1.2383083858267716
20
1.1425993700787402
11
1.2384941338582678
21
1.142373031496063
0
LINE
8
BLACK
6
CONTINUOUS
10
1.2384941338582678
20
1.142373031496063
11
1.2385531496062991
21
1.1423218503937007
0
LINE
8
BLACK
6
CONTINUOUS
10
1.2385531496062991
20
1.1423218503937007
11
1.2386090944881889
21
1.1422329133858267
0
LINE
8
BLACK
6
CONTINUOUS
10
1.2386090944881889
20
1.1422329133858267
11
1.238675590551181
21
1.1421519291338582
0
LINE
8
BLACK
6
CONTINUOUS
10
1.238675590551181
20
1.1421519291338582
11
1.2387053937007875
21
1.14208
0
LINE
8
BLACK
6
CONTINUOUS
10
1.2387053937007875
20
1.14208
11
1.238861496062992
21
1.1418319685039371
0
LINE
8
BLACK
6
CONTINUOUS
10
1.238861496062992
20
1.1418319685039371
11
1.2407362598425196
21
1.1380824409448818
0
LINE
8
BLACK
6
CONTINUOUS
10
1.2407362598425196
20
1.1380824409448818
11
1.2409431496062993
21
1.1375418503937007
0
LINE
8
BLACK
6
CONTINUOUS
10
1.2409431496062993
20
1.1375418503937007
11
1.2409506692913386
21
1.1374359842519686
0
LINE
8
BLACK
6
CONTINUOUS
10
1.2409506692913386
20
1.1374359842519686
11
1.2409912598425197
21
1.1373379921259843
0
LINE
8
BLACK
6
CONTINUOUS
10
1.2409912598425197
20
1.1373379921259843
11
1.2410479921259843
21
1.1367619291338582
0
LINE
8
BLACK
6
CONTINUOUS
10
1.2410479921259843
20
1.1367619291338582
11
1.2410479921259843
21
1.1273881102362204
0
LINE
8
BLACK
6
CONTINUOUS
10
1.2410479921259843
20
1.1273881102362204
11
1.2409912598425197
21
1.1268120472440946
0
LINE
8
BLACK
6
CONTINUOUS
10
1.2409912598425197
20
1.1268120472440946
11
1.2409506692913386
21
1.126714094488189
0
LINE
8
BLACK
6
CONTINUOUS
10
1.2409506692913386
20
1.126714094488189
11
1.2409431496062993
21
1.1266081889763779
0
LINE
8
BLACK
6
CONTINUOUS
10
1.2409431496062993
20
1.1266081889763779
11
1.2407362598425196
21
1.1260675984251969
0
LINE
8
BLACK
6
CONTINUOUS
10
1.2407362598425196
20
1.1260675984251969
11
1.238861496062992
21
1.1223180708661418
0
LINE
8
BLACK
6
CONTINUOUS
10
1.238861496062992
20
1.1223180708661418
11
1.2387054330708662
21
1.1220701968503937
0
LINE
8
BLACK
6
CONTINUOUS
10
1.2387054330708662
20
1.1220701968503937
11
1.2386756299212598
21
1.1219981496062992
0
LINE
8
BLACK
6
CONTINUOUS
10
1.2386756299212598
20
1.1219981496062992
11
1.2386090944881889
21
1.121917125984252
0
LINE
8
BLACK
6
CONTINUOUS
10
1.2386090944881889
20
1.121917125984252
11
1.2385531496062991
21
1.1218281889763779
0
LINE
8
BLACK
6
CONTINUOUS
10
1.2385531496062991
20
1.1218281889763779
11
1.2384941338582678
21
1.1217770472440944
0
LINE
8
BLACK
6
CONTINUOUS
10
1.2384941338582678
20
1.1217770472440944
11
1.2383083858267716
21
1.1215506692913386
0
LINE
8
BLACK
6
CONTINUOUS
10
1.2383083858267716
20
1.1215506692913386
11
1.2364336614173228
21
1.1196759055118111
0
LINE
8
BLACK
6
CONTINUOUS
10
1.2364336614173228
20
1.1196759055118111
11
1.236207283464567
21
1.1194901574803149
0
LINE
8
BLACK
6
CONTINUOUS
10
1.236207283464567
20
1.1194901574803149
11
1.2361561023622047
21
1.1194311023622048
0
LINE
8
BLACK
6
CONTINUOUS
10
1.2361561023622047
20
1.1194311023622048
11
1.2360671259842519
21
1.1193751181102363
0
LINE
8
BLACK
6
CONTINUOUS
10
1.2360671259842519
20
1.1193751181102363
11
1.2359861811023622
21
1.1193086614173229
0
LINE
8
BLACK
6
CONTINUOUS
10
1.2359861811023622
20
1.1193086614173229
11
1.2359142125984253
21
1.1192788582677164
0
LINE
8
BLACK
6
CONTINUOUS
10
1.2359142125984253
20
1.1192788582677164
11
1.2356662204724409
21
1.1191227559055117
0
LINE
8
BLACK
6
CONTINUOUS
10
1.2356662204724409
20
1.1191227559055117
11
1.2319166929133858
21
1.1172479921259841
0
LINE
8
BLACK
6
CONTINUOUS
10
1.2319166929133858
20
1.1172479921259841
11
1.231376062992126
21
1.1170411023622047
0
LINE
8
BLACK
6
CONTINUOUS
10
1.231376062992126
20
1.1170411023622047
11
1.2312702362204724
21
1.1170336220472441
0
LINE
8
BLACK
6
CONTINUOUS
10
1.2312702362204724
20
1.1170336220472441
11
1.2311722440944881
21
1.1169929921259842
0
LINE
8
BLACK
6
CONTINUOUS
10
1.2311722440944881
20
1.1169929921259842
11
1.2305961811023622
21
1.1169362598425197
0
LINE
8
BLACK
6
CONTINUOUS
10
1.2305961811023622
20
1.1169362598425197
11
1.223097125984252
21
1.1169362598425197
0
LINE
8
BLACK
6
CONTINUOUS
10
1.223097125984252
20
1.1169362598425197
11
1.2225210629921259
21
1.1169929921259842
0
LINE
8
BLACK
6
CONTINUOUS
10
1.2225210629921259
20
1.1169929921259842
11
1.2224230708661417
21
1.1170335826771653
0
LINE
8
BLACK
6
CONTINUOUS
10
1.2224230708661417
20
1.1170335826771653
11
1.2223172047244095
21
1.1170411023622047
0
LINE
8
BLACK
6
CONTINUOUS
10
1.2223172047244095
20
1.1170411023622047
11
1.2217766141732282
21
1.1172479921259841
0
LINE
8
BLACK
6
CONTINUOUS
10
1.2217766141732282
20
1.1172479921259841
11
1.2180270866141731
21
1.1191227559055117
0
LINE
8
BLACK
6
CONTINUOUS
10
1.2180270866141731
20
1.1191227559055117
11
1.2177790551181102
21
1.1192788582677164
0
LINE
8
BLACK
6
CONTINUOUS
10
1.2177790551181102
20
1.1192788582677164
11
1.217707125984252
21
1.1193086614173229
0
LINE
8
BLACK
6
CONTINUOUS
10
1.217707125984252
20
1.1193086614173229
11
1.2176261417322833
21
1.1193751181102363
0
LINE
8
BLACK
6
CONTINUOUS
10
1.2176261417322833
20
1.1193751181102363
11
1.2175372047244095
21
1.1194311023622048
0
LINE
8
BLACK
6
CONTINUOUS
10
1.2175372047244095
20
1.1194311023622048
11
1.2174859842519685
21
1.1194901574803149
0
LINE
8
BLACK
6
CONTINUOUS
10
1.2174859842519685
20
1.1194901574803149
11
1.2172596456692912
21
1.1196759055118111
0
LINE
8
BLACK
6
CONTINUOUS
10
1.2172596456692912
20
1.1196759055118111
11
1.2153848818897637
21
1.1215507086614174
0
LINE
8
BLACK
6
CONTINUOUS
10
1.2153848818897637
20
1.1215507086614174
11
1.2151991338582677
21
1.1217770472440944
0
LINE
8
BLACK
6
CONTINUOUS
10
1.2151991338582677
20
1.1217770472440944
11
1.2151401574803149
21
1.1218281889763779
0
LINE
8
BLACK
6
CONTINUOUS
10
1.2151401574803149
20
1.1218281889763779
11
1.2150841732283464
21
1.121917125984252
0
LINE
8
BLACK
6
CONTINUOUS
10
1.2150841732283464
20
1.121917125984252
11
1.2150176771653542
21
1.1219981496062992
0
LINE
8
BLACK
6
CONTINUOUS
10
1.2150176771653542
20
1.1219981496062992
11
1.2149878346456693
21
1.1220701968503937
0
LINE
8
BLACK
6
CONTINUOUS
10
1.2149878346456693
20
1.1220701968503937
11
1.214831811023622
21
1.1223180708661418
0
LINE
8
BLACK
6
CONTINUOUS
10
1.214831811023622
20
1.1223180708661418
11
1.2129570472440945
21
1.1260675984251969
0
LINE
8
BLACK
6
CONTINUOUS
10
1.2129570472440945
20
1.1260675984251969
11
1.212750157480315
21
1.1266082283464567
0
LINE
8
BLACK
6
CONTINUOUS
10
1.212750157480315
20
1.1266082283464567
11
1.2127426377952755
21
1.1267140551181103
0
LINE
8
BLACK
6
CONTINUOUS
10
1.2127426377952755
20
1.1267140551181103
11
1.2127020472440944
21
1.1268120472440946
0
LINE
8
BLACK
6
CONTINUOUS
10
1.2127020472440944
20
1.1268120472440946
11
1.21264531496063
21
1.1273881102362204
0
LINE
8
BLACK
6
CONTINUOUS
10
1.21264531496063
20
1.1273881102362204
11
1.21264531496063
21
1.1423862204724409
0
LINE
8
BLACK
6
CONTINUOUS
10
1.21264531496063
20
1.1423862204724409
11
1.2126551968503936
21
1.1424867716535432
0
LINE
8
BLACK
6
CONTINUOUS
10
1.2126551968503936
20
1.1424867716535432
11
1.2126488188976379
21
1.1425297637795275
0
LINE
8
BLACK
6
CONTINUOUS
10
1.2126488188976379
20
1.1425297637795275
11
1.2126806692913386
21
1.1427452755905512
0
LINE
8
BLACK
6
CONTINUOUS
10
1.2126806692913386
20
1.1427452755905512
11
1.2127020472440944
21
1.142962283464567
0
LINE
8
BLACK
6
CONTINUOUS
10
1.2127020472440944
20
1.142962283464567
11
1.2127186614173229
21
1.1430025196850393
0
LINE
8
BLACK
6
CONTINUOUS
10
1.2127186614173229
20
1.1430025196850393
11
1.2127334645669292
21
1.1431023622047243
0
LINE
8
BLACK
6
CONTINUOUS
10
1.2127334645669292
20
1.1431023622047243
11
1.2146082283464568
21
1.1506014173228347
0
LINE
8
BLACK
6
CONTINUOUS
10
1.2146082283464568
20
1.1506014173228347
11
1.2147294881889763
21
1.1509409055118109
0
LINE
8
BLACK
6
CONTINUOUS
10
1.2147294881889763
20
1.1509409055118109
11
1.2147436614173228
21
1.1510124015748031
0
LINE
8
BLACK
6
CONTINUOUS
10
1.2147436614173228
20
1.1510124015748031
11
1.2147782283464568
21
1.1510772834645668
0
LINE
8
BLACK
6
CONTINUOUS
10
1.2147782283464568
20
1.1510772834645668
11
1.2148029921259842
21
1.1511465354330708
0
LINE
8
BLACK
6
CONTINUOUS
10
1.2148029921259842
20
1.1511465354330708
11
1.2148464173228346
21
1.151205157480315
0
LINE
8
BLACK
6
CONTINUOUS
10
1.2148464173228346
20
1.151205157480315
11
1.2150159842519686
21
1.151523188976378
0
LINE
8
BLACK
6
CONTINUOUS
10
1.2150159842519686
20
1.151523188976378
11
1.2187655118110237
21
1.1571474803149606
0
LINE
8
BLACK
6
CONTINUOUS
10
1.2187655118110237
20
1.1571474803149606
11
1.2187668503937008
21
1.1571491732283465
0
LINE
8
BLACK
6
CONTINUOUS
10
1.2187668503937008
20
1.1571491732283465
11
1.2187672440944881
21
1.1571500393700787
0
LINE
8
BLACK
6
CONTINUOUS
10
1.2187672440944881
20
1.1571500393700787
11
1.2189439370078741
21
1.1573653543307085
0
LINE
8
BLACK
6
CONTINUOUS
10
1.2189439370078741
20
1.1573653543307085
11
1.2191322834645668
21
1.15759531496063
0
LINE
8
BLACK
6
CONTINUOUS
10
1.2191322834645668
20
1.15759531496063
11
1.2191331102362204
21
1.157595905511811
0
LINE
8
BLACK
6
CONTINUOUS
10
1.2191331102362204
20
1.157595905511811
11
1.2191344488188975
21
1.1575974803149607
0
LINE
8
BLACK
6
CONTINUOUS
10
1.2191344488188975
20
1.1575974803149607
11
1.2210092125984251
21
1.1594722440944882
0
LINE
8
BLACK
6
CONTINUOUS
10
1.2210092125984251
20
1.1594722440944882
11
1.2212355511811024
21
1.1596580314960629
0
LINE
8
BLACK
6
CONTINUOUS
10
1.2212355511811024
20
1.1596580314960629
11
1.2212867322834646
21
1.1597170078740158
0
LINE
8
BLACK
6
CONTINUOUS
10
1.2212867322834646
20
1.1597170078740158
11
1.2213756692913385
21
1.1597729921259843
0
LINE
8
BLACK
6
CONTINUOUS
10
1.2213756692913385
20
1.1597729921259843
11
1.2214566535433071
21
1.1598394488188977
0
LINE
8
BLACK
6
CONTINUOUS
10
1.2214566535433071
20
1.1598394488188977
11
1.2215285826771654
21
1.1598692913385826
0
LINE
8
BLACK
6
CONTINUOUS
10
1.2215285826771654
20
1.1598692913385826
11
1.2217766141732282
21
1.1600253543307086
0
LINE
8
BLACK
6
CONTINUOUS
10
1.2217766141732282
20
1.1600253543307086
11
1.2255261417322834
21
1.1619001181102362
0
LINE
8
BLACK
6
CONTINUOUS
10
1.2255261417322834
20
1.1619001181102362
11
1.2260667322834646
21
1.1621070078740157
0
LINE
8
BLACK
6
CONTINUOUS
10
1.2260667322834646
20
1.1621070078740157
11
1.2261725984251968
21
1.1621145669291337
0
LINE
8
BLACK
6
CONTINUOUS
10
1.2261725984251968
20
1.1621145669291337
11
1.226270590551181
21
1.1621551181102361
0
LINE
8
BLACK
6
CONTINUOUS
10
1.226270590551181
20
1.1621551181102361
11
1.2268466535433071
21
1.1622118503937007
0
LINE
8
BLACK
6
CONTINUOUS
10
1.2268466535433071
20
1.1622118503937007
11
1.2343457086614174
21
1.1622118503937007
0
LINE
8
BLACK
6
CONTINUOUS
10
1.2343457086614174
20
1.1622118503937007
11
1.2349217716535432
21
1.1621551181102361
0
LINE
8
BLACK
6
CONTINUOUS
10
1.2210966929133857
20
1.1399594881889763
11
1.2198995669291339
21
1.1387623622047245
0
LINE
8
BLACK
6
CONTINUOUS
10
1.2198995669291339
20
1.1387623622047245
11
1.2185508267716536
21
1.1360648818897638
0
LINE
8
BLACK
6
CONTINUOUS
10
1.2185508267716536
20
1.1360648818897638
11
1.2185508267716536
21
1.128085157480315
0
LINE
8
BLACK
6
CONTINUOUS
10
1.2185508267716536
20
1.128085157480315
11
1.2198995669291339
21
1.1253876771653544
0
LINE
8
BLACK
6
CONTINUOUS
10
1.2198995669291339
20
1.1253876771653544
11
1.2210966929133857
21
1.1241905118110236
0
LINE
8
BLACK
6
CONTINUOUS
10
1.2210966929133857
20
1.1241905118110236
11
1.2237941732283464
21
1.1228417716535433
0
LINE
8
BLACK
6
CONTINUOUS
10
1.2237941732283464
20
1.1228417716535433
11
1.2298991338582677
21
1.1228417716535433
0
LINE
8
BLACK
6
CONTINUOUS
10
1.2298991338582677
20
1.1228417716535433
11
1.2325965748031495
21
1.1241905118110236
0
LINE
8
BLACK
6
CONTINUOUS
10
1.2325965748031495
20
1.1241905118110236
11
1.2337937007874016
21
1.1253876771653544
0
LINE
8
BLACK
6
CONTINUOUS
10
1.2337937007874016
20
1.1253876771653544
11
1.2351424803149607
21
1.128085157480315
0
LINE
8
BLACK
6
CONTINUOUS
10
1.2351424803149607
20
1.128085157480315
11
1.2351424803149607
21
1.1360648818897638
0
LINE
8
BLACK
6
CONTINUOUS
10
1.2351424803149607
20
1.1360648818897638
11
1.2337937401574803
21
1.1387623622047245
0
LINE
8
BLACK
6
CONTINUOUS
10
1.2337937401574803
20
1.1387623622047245
11
1.2325966141732283
21
1.1399594881889763
0
LINE
8
BLACK
6
CONTINUOUS
10
1.2325966141732283
20
1.1399594881889763
11
1.2298991338582677
21
1.1413082283464566
0
LINE
8
BLACK
6
CONTINUOUS
10
1.2298991338582677
20
1.1413082283464566
11
1.2237941732283464
21
1.1413082283464566
0
LINE
8
BLACK
6
CONTINUOUS
10
1.2237941732283464
20
1.1413082283464566
11
1.2210966929133857
21
1.1399594881889763
0
LINE
8
BLACK
6
CONTINUOUS
10
1.0375593307086615
20
1.1621551181102361
11
1.0380713779527559
21
1.1621551181102361
0
LINE
8
BLACK
6
CONTINUOUS
10
1.0380713779527559
20
1.1621551181102361
11
1.038132125984252
21
1.1621299606299211
0
LINE
8
BLACK
6
CONTINUOUS
10
1.038132125984252
20
1.1621299606299211
11
1.0381979921259843
21
1.1621270472440945
0
LINE
8
BLACK
6
CONTINUOUS
10
1.0381979921259843
20
1.1621270472440945
11
1.0386628346456692
21
1.161910157480315
0
LINE
8
BLACK
6
CONTINUOUS
10
1.0386628346456692
20
1.161910157480315
11
1.0391357874015748
21
1.1617142125984252
0
LINE
8
BLACK
6
CONTINUOUS
10
1.0391357874015748
20
1.1617142125984252
11
1.039182283464567
21
1.161667716535433
0
LINE
8
BLACK
6
CONTINUOUS
10
1.039182283464567
20
1.161667716535433
11
1.0392420078740157
21
1.161639842519685
0
LINE
8
BLACK
6
CONTINUOUS
10
1.0392420078740157
20
1.161639842519685
11
1.0395882283464566
21
1.1612617716535434
0
LINE
8
BLACK
6
CONTINUOUS
10
1.0395882283464566
20
1.1612617716535434
11
1.0399504330708662
21
1.1608995669291338
0
LINE
8
BLACK
6
CONTINUOUS
10
1.0399504330708662
20
1.1608995669291338
11
1.0399756299212599
21
1.1608387401574802
0
LINE
8
BLACK
6
CONTINUOUS
10
1.0399756299212599
20
1.1608387401574802
11
1.0400201181102362
21
1.160790157480315
0
LINE
8
BLACK
6
CONTINUOUS
10
1.0400201181102362
20
1.160790157480315
11
1.0401951968503937
21
1.1603086614173228
0
LINE
8
BLACK
6
CONTINUOUS
10
1.0401951968503937
20
1.1603086614173228
11
1.0403913385826771
21
1.159835157480315
0
LINE
8
BLACK
6
CONTINUOUS
10
1.0403913385826771
20
1.159835157480315
11
1.0404002362204725
21
1.1597448031496063
0
LINE
8
BLACK
6
CONTINUOUS
10
1.0404002362204725
20
1.1597448031496063
11
1.0404138188976377
21
1.1597074409448818
0
LINE
8
BLACK
6
CONTINUOUS
10
1.0404138188976377
20
1.1597074409448818
11
1.0404107480314961
21
1.1596379133858268
0
LINE
8
BLACK
6
CONTINUOUS
10
1.0404107480314961
20
1.1596379133858268
11
1.0404480708661417
21
1.1592590944881889
0
LINE
8
BLACK
6
CONTINUOUS
10
1.0404480708661417
20
1.1592590944881889
11
1.0404480708661417
21
1.1198890157480315
0
LINE
8
BLACK
6
CONTINUOUS
10
1.0404480708661417
20
1.1198890157480315
11
1.0403913385826771
21
1.1193129527559056
0
LINE
8
BLACK
6
CONTINUOUS
10
1.0403913385826771
20
1.1193129527559056
11
1.0399504330708662
21
1.1182485433070866
0
LINE
8
BLACK
6
CONTINUOUS
10
1.0399504330708662
20
1.1182485433070866
11
1.0391357874015748
21
1.1174338976377953
0
LINE
8
BLACK
6
CONTINUOUS
10
1.0391357874015748
20
1.1174338976377953
11
1.0380713779527559
21
1.1169929921259842
0
LINE
8
BLACK
6
CONTINUOUS
10
1.0380713779527559
20
1.1169929921259842
11
1.036919251968504
21
1.1169929921259842
0
LINE
8
BLACK
6
CONTINUOUS
10
1.036919251968504
20
1.1169929921259842
11
1.035854842519685
21
1.1174338976377953
0
LINE
8
BLACK
6
CONTINUOUS
10
1.035854842519685
20
1.1174338976377953
11
1.0350401968503937
21
1.1182485433070866
0
LINE
8
BLACK
6
CONTINUOUS
10
1.0350401968503937
20
1.1182485433070866
11
1.0345992913385826
21
1.1193129527559056
0
LINE
8
BLACK
6
CONTINUOUS
10
1.0345992913385826
20
1.1193129527559056
11
1.034542559055118
21
1.1198890157480315
0
LINE
8
BLACK
6
CONTINUOUS
10
1.034542559055118
20
1.1198890157480315
11
1.034542559055118
21
1.1459493700787402
0
LINE
8
BLACK
6
CONTINUOUS
10
1.034542559055118
20
1.1459493700787402
11
1.027047716535433
21
1.1298889763779527
0
LINE
8
BLACK
6
CONTINUOUS
10
1.027047716535433
20
1.1298889763779527
11
1.0269227559055119
21
1.1296780708661418
0
LINE
8
BLACK
6
CONTINUOUS
10
1.0269227559055119
20
1.1296780708661418
11
1.0268967716535433
21
1.1296065748031496
0
LINE
8
BLACK
6
CONTINUOUS
10
1.0268967716535433
20
1.1296065748031496
11
1.0268504330708661
21
1.1295560236220472
0
LINE
8
BLACK
6
CONTINUOUS
10
1.0268504330708661
20
1.1295560236220472
11
1.0267526771653543
21
1.1293909448818897
0
LINE
8
BLACK
6
CONTINUOUS
10
1.0267526771653543
20
1.1293909448818897
11
1.0264218503937008
21
1.129088031496063
0
LINE
8
BLACK
6
CONTINUOUS
10
1.0264218503937008
20
1.129088031496063
11
1.0261186614173228
21
1.1287568897637794
0
LINE
8
BLACK
6
CONTINUOUS
10
1.0261186614173228
20
1.1287568897637794
11
1.02599968503937
21
1.1287014173228347
0
LINE
8
BLACK
6
CONTINUOUS
10
1.02599968503937
20
1.1287014173228347
11
1.0259030314960629
21
1.1286128346456692
0
LINE
8
BLACK
6
CONTINUOUS
10
1.0259030314960629
20
1.1286128346456692
11
1.0254815354330709
21
1.1284596062992125
0
LINE
8
BLACK
6
CONTINUOUS
10
1.0254815354330709
20
1.1284596062992125
11
1.0250746456692914
21
1.1282696850393701
0
LINE
8
BLACK
6
CONTINUOUS
10
1.0250746456692914
20
1.1282696850393701
11
1.0249434645669291
21
1.128263937007874
0
LINE
8
BLACK
6
CONTINUOUS
10
1.0249434645669291
20
1.128263937007874
11
1.0248203149606299
21
1.1282191338582677
0
LINE
8
BLACK
6
CONTINUOUS
10
1.0248203149606299
20
1.1282191338582677
11
1.0243722047244095
21
1.1282388188976378
0
LINE
8
BLACK
6
CONTINUOUS
10
1.0243722047244095
20
1.1282388188976378
11
1.0239236220472441
21
1.1282190944881889
0
LINE
8
BLACK
6
CONTINUOUS
10
1.0239236220472441
20
1.1282190944881889
11
1.0238003149606298
21
1.128263937007874
0
LINE
8
BLACK
6
CONTINUOUS
10
1.0238003149606298
20
1.128263937007874
11
1.0236692913385828
21
1.1282696850393701
0
LINE
8
BLACK
6
CONTINUOUS
10
1.0236692913385828
20
1.1282696850393701
11
1.0232626377952756
21
1.1284594881889765
0
LINE
8
BLACK
6
CONTINUOUS
10
1.0232626377952756
20
1.1284594881889765
11
1.0228409055118111
21
1.1286128346456692
0
LINE
8
BLACK
6
CONTINUOUS
10
1.0228409055118111
20
1.1286128346456692
11
1.0227440944881889
21
1.1287014960629922
0
LINE
8
BLACK
6
CONTINUOUS
10
1.0227440944881889
20
1.1287014960629922
11
1.0226252755905512
21
1.1287569291338582
0
LINE
8
BLACK
6
CONTINUOUS
10
1.0226252755905512
20
1.1287569291338582
11
1.0223223228346456
21
1.1290877559055117
0
LINE
8
BLACK
6
CONTINUOUS
10
1.0223223228346456
20
1.1290877559055117
11
1.0219912598425196
21
1.129390905511811
0
LINE
8
BLACK
6
CONTINUOUS
10
1.0219912598425196
20
1.129390905511811
11
1.0218933858267716
21
1.1295561023622047
0
LINE
8
BLACK
6
CONTINUOUS
10
1.0218933858267716
20
1.1295561023622047
11
1.0218471653543306
21
1.1296065748031496
0
LINE
8
BLACK
6
CONTINUOUS
10
1.0218471653543306
20
1.1296065748031496
11
1.0218211811023621
21
1.1296779527559055
0
LINE
8
BLACK
6
CONTINUOUS
10
1.0218211811023621
20
1.1296779527559055
11
1.0216962204724409
21
1.129888937007874
0
LINE
8
BLACK
6
CONTINUOUS
10
1.0216962204724409
20
1.129888937007874
11
1.0142013779527559
21
1.1459493700787402
0
LINE
8
BLACK
6
CONTINUOUS
10
1.0142013779527559
20
1.1459493700787402
11
1.0142013779527559
21
1.1198890157480315
0
LINE
8
BLACK
6
CONTINUOUS
10
1.0142013779527559
20
1.1198890157480315
11
1.0141446456692913
21
1.1193129527559056
0
LINE
8
BLACK
6
CONTINUOUS
10
1.0141446456692913
20
1.1193129527559056
11
1.0137037401574802
21
1.1182485433070866
0
LINE
8
BLACK
6
CONTINUOUS
10
1.0137037401574802
20
1.1182485433070866
11
1.012889094488189
21
1.1174338976377953
0
LINE
8
BLACK
6
CONTINUOUS
10
1.012889094488189
20
1.1174338976377953
11
1.01182468503937
21
1.1169929921259842
0
LINE
8
BLACK
6
CONTINUOUS
10
1.01182468503937
20
1.1169929921259842
11
1.010672559055118
21
1.1169929921259842
0
LINE
8
BLACK
6
CONTINUOUS
10
1.010672559055118
20
1.1169929921259842
11
1.0096081496062992
21
1.1174338976377953
0
LINE
8
BLACK
6
CONTINUOUS
10
1.0096081496062992
20
1.1174338976377953
11
1.008793503937008
21
1.1182485433070866
0
LINE
8
BLACK
6
CONTINUOUS
10
1.008793503937008
20
1.1182485433070866
11
1.0083525984251969
21
1.1193129527559056
0
LINE
8
BLACK
6
CONTINUOUS
10
1.0083525984251969
20
1.1193129527559056
11
1.0082958661417323
21
1.1198890157480315
0
LINE
8
BLACK
6
CONTINUOUS
10
1.0082958661417323
20
1.1198890157480315
11
1.0082958661417323
21
1.1592590944881889
0
LINE
8
BLACK
6
CONTINUOUS
10
1.0082958661417323
20
1.1592590944881889
11
1.0083331496062993
21
1.1596379133858268
0
LINE
8
BLACK
6
CONTINUOUS
10
1.0083331496062993
20
1.1596379133858268
11
1.0083301181102362
21
1.1597074409448818
0
LINE
8
BLACK
6
CONTINUOUS
10
1.0083301181102362
20
1.1597074409448818
11
1.0083436614173229
21
1.1597448031496063
0
LINE
8
BLACK
6
CONTINUOUS
10
1.0083436614173229
20
1.1597448031496063
11
1.0083525984251969
21
1.159835157480315
0
LINE
8
BLACK
6
CONTINUOUS
10
1.0083525984251969
20
1.159835157480315
11
1.0085487007874014
21
1.1603086614173228
0
LINE
8
BLACK
6
CONTINUOUS
10
1.0085487007874014
20
1.1603086614173228
11
1.0087238188976377
21
1.160790157480315
0
LINE
8
BLACK
6
CONTINUOUS
10
1.0087238188976377
20
1.160790157480315
11
1.0087682677165355
21
1.1608387401574802
0
LINE
8
BLACK
6
CONTINUOUS
10
1.0087682677165355
20
1.1608387401574802
11
1.008793503937008
21
1.1608995669291338
0
LINE
8
BLACK
6
CONTINUOUS
10
1.008793503937008
20
1.1608995669291338
11
1.0091559055118109
21
1.1612620078740157
0
LINE
8
BLACK
6
CONTINUOUS
10
1.0091559055118109
20
1.1612620078740157
11
1.0095019291338583
21
1.1616398031496062
0
LINE
8
BLACK
6
CONTINUOUS
10
1.0095019291338583
20
1.1616398031496062
11
1.0095615748031497
21
1.1616676771653542
0
LINE
8
BLACK
6
CONTINUOUS
10
1.0095615748031497
20
1.1616676771653542
11
1.0096081496062992
21
1.1617142125984252
0
LINE
8
BLACK
6
CONTINUOUS
10
1.0096081496062992
20
1.1617142125984252
11
1.0100814173228345
21
1.161910275590551
0
LINE
8
BLACK
6
CONTINUOUS
10
1.0100814173228345
20
1.161910275590551
11
1.0105459448818896
21
1.1621270472440945
0
LINE
8
BLACK
6
CONTINUOUS
10
1.0105459448818896
20
1.1621270472440945
11
1.0106117322834645
21
1.1621299606299211
0
LINE
8
BLACK
6
CONTINUOUS
10
1.0106117322834645
20
1.1621299606299211
11
1.010672559055118
21
1.1621551181102361
0
LINE
8
BLACK
6
CONTINUOUS
10
1.010672559055118
20
1.1621551181102361
11
1.0111851181102363
21
1.1621551181102361
0
LINE
8
BLACK
6
CONTINUOUS
10
1.0111851181102363
20
1.1621551181102361
11
1.011696968503937
21
1.1621775984251967
0
LINE
8
BLACK
6
CONTINUOUS
10
1.011696968503937
20
1.1621775984251967
11
1.0117587795275591
21
1.1621551181102361
0
LINE
8
BLACK
6
CONTINUOUS
10
1.0117587795275591
20
1.1621551181102361
11
1.01182468503937
21
1.1621551181102361
0
LINE
8
BLACK
6
CONTINUOUS
10
1.01182468503937
20
1.1621551181102361
11
1.0122981496062993
21
1.1619590157480315
0
LINE
8
BLACK
6
CONTINUOUS
10
1.0122981496062993
20
1.1619590157480315
11
1.01277968503937
21
1.1617838976377952
0
LINE
8
BLACK
6
CONTINUOUS
10
1.01277968503937
20
1.1617838976377952
11
1.0128282283464567
21
1.1617394488188977
0
LINE
8
BLACK
6
CONTINUOUS
10
1.0128282283464567
20
1.1617394488188977
11
1.012889094488189
21
1.1617142125984252
0
LINE
8
BLACK
6
CONTINUOUS
10
1.012889094488189
20
1.1617142125984252
11
1.0132514960629921
21
1.1613518110236221
0
LINE
8
BLACK
6
CONTINUOUS
10
1.0132514960629921
20
1.1613518110236221
11
1.0136293307086615
21
1.1610057874015747
0
LINE
8
BLACK
6
CONTINUOUS
10
1.0136293307086615
20
1.1610057874015747
11
1.0136755511811024
21
1.1609277559055118
0
LINE
8
BLACK
6
CONTINUOUS
10
1.0136755511811024
20
1.1609277559055118
11
1.0137037401574802
21
1.1608995669291338
0
LINE
8
BLACK
6
CONTINUOUS
10
1.0137037401574802
20
1.1608995669291338
11
1.0137304330708661
21
1.1608351574803148
0
LINE
8
BLACK
6
CONTINUOUS
10
1.0137304330708661
20
1.1608351574803148
11
1.0139243700787401
21
1.1605077559055117
0
LINE
8
BLACK
6
CONTINUOUS
10
1.0139243700787401
20
1.1605077559055117
11
1.0243719291338582
21
1.1381200787401575
0
LINE
8
BLACK
6
CONTINUOUS
10
1.0243719291338582
20
1.1381200787401575
11
1.0348195669291338
21
1.1605077952755904
0
LINE
8
BLACK
6
CONTINUOUS
10
1.0348195669291338
20
1.1605077952755904
11
1.0350135433070866
21
1.1608352755905511
0
LINE
8
BLACK
6
CONTINUOUS
10
1.0350135433070866
20
1.1608352755905511
11
1.0350401968503937
21
1.1608995669291338
0
LINE
8
BLACK
6
CONTINUOUS
10
1.0350401968503937
20
1.1608995669291338
11
1.0350683070866142
21
1.160927716535433
0
LINE
8
BLACK
6
CONTINUOUS
10
1.0350683070866142
20
1.160927716535433
11
1.0351146062992125
21
1.1610058267716534
0
LINE
8
BLACK
6
CONTINUOUS
10
1.0351146062992125
20
1.1610058267716534
11
1.0354926771653543
21
1.1613520866141731
0
LINE
8
BLACK
6
CONTINUOUS
10
1.0354926771653543
20
1.1613520866141731
11
1.035854842519685
21
1.1617142125984252
0
LINE
8
BLACK
6
CONTINUOUS
10
1.035854842519685
20
1.1617142125984252
11
1.0359156692913385
21
1.1617394094488189
0
LINE
8
BLACK
6
CONTINUOUS
10
1.0359156692913385
20
1.1617394094488189
11
1.0359642519685039
21
1.1617838976377952
0
LINE
8
BLACK
6
CONTINUOUS
10
1.0359642519685039
20
1.1617838976377952
11
1.0364460629921259
21
1.1619591338582678
0
LINE
8
BLACK
6
CONTINUOUS
10
1.0364460629921259
20
1.1619591338582678
11
1.036919251968504
21
1.1621551181102361
0
LINE
8
BLACK
6
CONTINUOUS
10
1.036919251968504
20
1.1621551181102361
11
1.0369850393700788
21
1.1621551181102361
0
LINE
8
BLACK
6
CONTINUOUS
10
1.0369850393700788
20
1.1621551181102361
11
1.037046968503937
21
1.1621776377952755
0
LINE
8
BLACK
6
CONTINUOUS
10
1.037046968503937
20
1.1621776377952755
11
1.0375593307086615
21
1.1621551181102361
0
LINE
8
BLACK
6
CONTINUOUS
10
1.1993012598425197
20
1.1377831889763779
11
1.2003656692913385
21
1.137342283464567
0
LINE
8
BLACK
6
CONTINUOUS
10
1.2003656692913385
20
1.137342283464567
11
1.2011803149606299
21
1.1365276377952755
0
LINE
8
BLACK
6
CONTINUOUS
10
1.2011803149606299
20
1.1365276377952755
11
1.201621220472441
21
1.1354632283464567
0
LINE
8
BLACK
6
CONTINUOUS
10
1.201621220472441
20
1.1354632283464567
11
1.201621220472441
21
1.1343111023622048
0
LINE
8
BLACK
6
CONTINUOUS
10
1.201621220472441
20
1.1343111023622048
11
1.2011803149606299
21
1.1332466929133858
0
LINE
8
BLACK
6
CONTINUOUS
10
1.2011803149606299
20
1.1332466929133858
11
1.2003656692913385
21
1.1324320472440945
0
LINE
8
BLACK
6
CONTINUOUS
10
1.2003656692913385
20
1.1324320472440945
11
1.1993012598425197
21
1.1319911417322834
0
LINE
8
BLACK
6
CONTINUOUS
10
1.1993012598425197
20
1.1319911417322834
11
1.1987251968503936
21
1.1319344094488188
0
LINE
8
BLACK
6
CONTINUOUS
10
1.1987251968503936
20
1.1319344094488188
11
1.1687289370078739
21
1.1319344094488188
0
LINE
8
BLACK
6
CONTINUOUS
10
1.1687289370078739
20
1.1319344094488188
11
1.1681528740157481
21
1.1319911417322834
0
LINE
8
BLACK
6
CONTINUOUS
10
1.1681528740157481
20
1.1319911417322834
11
1.1670884645669291
21
1.1324320472440945
0
LINE
8
BLACK
6
CONTINUOUS
10
1.1670884645669291
20
1.1324320472440945
11
1.1662738188976378
21
1.1332466929133858
0
LINE
8
BLACK
6
CONTINUOUS
10
1.1662738188976378
20
1.1332466929133858
11
1.1658329133858267
21
1.1343111023622048
0
LINE
8
BLACK
6
CONTINUOUS
10
1.1658329133858267
20
1.1343111023622048
11
1.1658329133858267
21
1.1354632283464567
0
LINE
8
BLACK
6
CONTINUOUS
10
1.1658329133858267
20
1.1354632283464567
11
1.1662738188976378
21
1.1365276377952755
0
LINE
8
BLACK
6
CONTINUOUS
10
1.1662738188976378
20
1.1365276377952755
11
1.1670884645669291
21
1.137342283464567
0
LINE
8
BLACK
6
CONTINUOUS
10
1.1670884645669291
20
1.137342283464567
11
1.1681528740157481
21
1.1377831889763779
0
LINE
8
BLACK
6
CONTINUOUS
10
1.1681528740157481
20
1.1377831889763779
11
1.1687289370078739
21
1.1378399212598425
0
LINE
8
BLACK
6
CONTINUOUS
10
1.1687289370078739
20
1.1378399212598425
11
1.1987251968503936
21
1.1378399212598425
0
LINE
8
BLACK
6
CONTINUOUS
10
1.1987251968503936
20
1.1378399212598425
11
1.1993012598425197
21
1.1377831889763779
0
LINE
8
BLACK
6
CONTINUOUS
10
0.8812847244094488
20
2.503289724409449
11
0.8823491338582677
21
2.5028488188976379
0
LINE
8
BLACK
6
CONTINUOUS
10
0.8823491338582677
20
2.5028488188976379
11
0.8831637795275591
21
2.5020341732283464
0
LINE
8
BLACK
6
CONTINUOUS
10
0.8831637795275591
20
2.5020341732283464
11
0.8836046850393701
21
2.5009697637795276
0
LINE
8
BLACK
6
CONTINUOUS
10
0.8836046850393701
20
2.5009697637795276
11
0.8836614173228347
21
2.5003937007874013
0
LINE
8
BLACK
6
CONTINUOUS
10
0.8836614173228347
20
2.5003937007874013
11
0.8836614173228347
21
2.2003937007874015
0
LINE
8
BLACK
6
CONTINUOUS
10
0.8836614173228347
20
2.2003937007874015
11
0.8836046850393701
21
2.1998176377952756
0
LINE
8
BLACK
6
CONTINUOUS
10
0.8836046850393701
20
2.1998176377952756
11
0.8831637795275591
21
2.1987532283464568
0
LINE
8
BLACK
6
CONTINUOUS
10
0.8831637795275591
20
2.1987532283464568
11
0.8823491338582677
21
2.1979385826771654
0
LINE
8
BLACK
6
CONTINUOUS
10
0.8823491338582677
20
2.1979385826771654
11
0.8812847244094488
21
2.1974976771653543
0
LINE
8
BLACK
6
CONTINUOUS
10
0.8812847244094488
20
2.1974976771653543
11
0.8807086614173228
21
2.1974409448818899
0
LINE
8
BLACK
6
CONTINUOUS
10
0.8807086614173228
20
2.1974409448818899
11
0.7807086614173229
21
2.1974409448818899
0
LINE
8
BLACK
6
CONTINUOUS
10
0.7807086614173229
20
2.1974409448818899
11
0.7801325984251969
21
2.1974976771653543
0
LINE
8
BLACK
6
CONTINUOUS
10
0.7801325984251969
20
2.1974976771653543
11
0.779068188976378
21
2.1979385826771654
0
LINE
8
BLACK
6
CONTINUOUS
10
0.779068188976378
20
2.1979385826771654
11
0.7782535433070866
21
2.1987532283464568
0
LINE
8
BLACK
6
CONTINUOUS
10
0.7782535433070866
20
2.1987532283464568
11
0.7778126377952755
21
2.1998176377952756
0
LINE
8
BLACK
6
CONTINUOUS
10
0.7778126377952755
20
2.1998176377952756
11
0.777755905511811
21
2.2003937007874015
0
LINE
8
BLACK
6
CONTINUOUS
10
0.777755905511811
20
2.2003937007874015
11
0.777755905511811
21
2.5003937007874013
0
LINE
8
BLACK
6
CONTINUOUS
10
0.777755905511811
20
2.5003937007874013
11
0.7778126377952755
21
2.5009697637795276
0
LINE
8
BLACK
6
CONTINUOUS
10
0.7778126377952755
20
2.5009697637795276
11
0.7782535433070866
21
2.5020341732283464
0
LINE
8
BLACK
6
CONTINUOUS
10
0.7782535433070866
20
2.5020341732283464
11
0.779068188976378
21
2.5028488188976379
0
LINE
8
BLACK
6
CONTINUOUS
10
0.779068188976378
20
2.5028488188976379
11
0.7801325984251969
21
2.503289724409449
0
LINE
8
BLACK
6
CONTINUOUS
10
0.7801325984251969
20
2.503289724409449
11
0.7807086614173229
21
2.5033464566929133
0
LINE
8
BLACK
6
CONTINUOUS
10
0.7807086614173229
20
2.5033464566929133
11
0.8807086614173228
21
2.5033464566929133
0
LINE
8
BLACK
6
CONTINUOUS
10
0.8807086614173228
20
2.5033464566929133
11
0.8812847244094488
21
2.503289724409449
0
LINE
8
BLACK
6
CONTINUOUS
10
0.7836614173228347
20
2.4974409448818897
11
0.7836614173228347
21
2.2033464566929135
0
LINE
8
BLACK
6
CONTINUOUS
10
0.7836614173228347
20
2.2033464566929135
11
0.877755905511811
21
2.2033464566929135
0
LINE
8
BLACK
6
CONTINUOUS
10
0.877755905511811
20
2.2033464566929135
11
0.877755905511811
21
2.4974409448818897
0
LINE
8
BLACK
6
CONTINUOUS
10
0.877755905511811
20
2.4974409448818897
11
0.7836614173228347
21
2.4974409448818897
0
LINE
8
BLACK
6
CONTINUOUS
10
0.0140627559055118
20
2.5263850393700786
11
0.0279486220472441
21
2.5240257480314958
0
LINE
8
BLACK
6
CONTINUOUS
10
0.0279486220472441
20
2.5240257480314958
11
0.041483031496063
21
2.5201265354330706
0
LINE
8
BLACK
6
CONTINUOUS
10
0.041483031496063
20
2.5201265354330706
11
0.0544957874015748
21
2.5147364960629921
0
LINE
8
BLACK
6
CONTINUOUS
10
0.0544957874015748
20
2.5147364960629921
11
0.0668232283464567
21
2.507923346456693
0
LINE
8
BLACK
6
CONTINUOUS
10
0.0668232283464567
20
2.507923346456693
11
0.0783103149606299
21
2.4997728346456691
0
LINE
8
BLACK
6
CONTINUOUS
10
0.0783103149606299
20
2.4997728346456691
11
0.0888125984251968
21
2.4903874015748029
0
LINE
8
BLACK
6
CONTINUOUS
10
0.0888125984251968
20
2.4903874015748029
11
0.098198031496063
21
2.4798851181102362
0
LINE
8
BLACK
6
CONTINUOUS
10
0.098198031496063
20
2.4798851181102362
11
0.1063485433070866
21
2.4683980314960627
0
LINE
8
BLACK
6
CONTINUOUS
10
0.1063485433070866
20
2.4683980314960627
11
0.1131616929133858
21
2.4560705905511813
0
LINE
8
BLACK
6
CONTINUOUS
10
0.1131616929133858
20
2.4560705905511813
11
0.1185517322834646
21
2.4430578346456691
0
LINE
8
BLACK
6
CONTINUOUS
10
0.1185517322834646
20
2.4430578346456691
11
0.1224509448818898
21
2.4295234251968503
0
LINE
8
BLACK
6
CONTINUOUS
10
0.1224509448818898
20
2.4295234251968503
11
0.1248102362204724
21
2.415637559055118
0
LINE
8
BLACK
6
CONTINUOUS
10
0.1248102362204724
20
2.415637559055118
11
0.1256
21
2.401574803149606
0
LINE
8
BLACK
6
CONTINUOUS
10
0.1256
20
2.401574803149606
11
0.1248102362204724
21
2.3875120472440945
0
LINE
8
BLACK
6
CONTINUOUS
10
0.1248102362204724
20
2.3875120472440945
11
0.1224509448818898
21
2.3736261811023622
0
LINE
8
BLACK
6
CONTINUOUS
10
0.1224509448818898
20
2.3736261811023622
11
0.1185517322834646
21
2.3600917716535434
0
LINE
8
BLACK
6
CONTINUOUS
10
0.1185517322834646
20
2.3600917716535434
11
0.1131616929133858
21
2.3470790157480312
0
LINE
8
BLACK
6
CONTINUOUS
10
0.1131616929133858
20
2.3470790157480312
11
0.1063485433070866
21
2.3347515748031498
0
LINE
8
BLACK
6
CONTINUOUS
10
0.1063485433070866
20
2.3347515748031498
11
0.098198031496063
21
2.3232644881889764
0
LINE
8
BLACK
6
CONTINUOUS
10
0.098198031496063
20
2.3232644881889764
11
0.0888125984251968
21
2.3127622047244092
0
LINE
8
BLACK
6
CONTINUOUS
10
0.0888125984251968
20
2.3127622047244092
11
0.0783103149606299
21
2.3033767716535434
0
LINE
8
BLACK
6
CONTINUOUS
10
0.0783103149606299
20
2.3033767716535434
11
0.0668232283464567
21
2.2952262598425195
0
LINE
8
BLACK
6
CONTINUOUS
10
0.0668232283464567
20
2.2952262598425195
11
0.0544957874015748
21
2.2884131102362204
0
LINE
8
BLACK
6
CONTINUOUS
10
0.0544957874015748
20
2.2884131102362204
11
0.041483031496063
21
2.2830230708661419
0
LINE
8
BLACK
6
CONTINUOUS
10
0.041483031496063
20
2.2830230708661419
11
0.0279486220472441
21
2.2791238582677167
0
LINE
8
BLACK
6
CONTINUOUS
10
0.0279486220472441
20
2.2791238582677167
11
0.0140627559055118
21
2.2767645669291339
0
LINE
8
BLACK
6
CONTINUOUS
10
0.0140627559055118
20
2.2767645669291339
11
0.
21
2.2759748031496061
0
LINE
8
BLACK
6
CONTINUOUS
10
0.
20
2.2759748031496061
11
-0.0140627559055118
21
2.2767645669291339
0
LINE
8
BLACK
6
CONTINUOUS
10
-0.0140627559055118
20
2.2767645669291339
11
-0.0279486220472441
21
2.2791238582677167
0
LINE
8
BLACK
6
CONTINUOUS
10
-0.0279486220472441
20
2.2791238582677167
11
-0.041483031496063
21
2.2830230708661419
0
LINE
8
BLACK
6
CONTINUOUS
10
-0.041483031496063
20
2.2830230708661419
11
-0.0544957874015748
21
2.2884131102362204
0
LINE
8
BLACK
6
CONTINUOUS
10
-0.0544957874015748
20
2.2884131102362204
11
-0.0668232283464567
21
2.2952262598425195
0
LINE
8
BLACK
6
CONTINUOUS
10
-0.0668232283464567
20
2.2952262598425195
11
-0.0783103149606299
21
2.3033767716535434
0
LINE
8
BLACK
6
CONTINUOUS
10
-0.0783103149606299
20
2.3033767716535434
11
-0.0888125984251968
21
2.3127622047244092
0
LINE
8
BLACK
6
CONTINUOUS
10
-0.0888125984251968
20
2.3127622047244092
11
-0.098198031496063
21
2.3232644881889764
0
LINE
8
BLACK
6
CONTINUOUS
10
-0.098198031496063
20
2.3232644881889764
11
-0.1063485433070866
21
2.3347515748031498
0
LINE
8
BLACK
6
CONTINUOUS
10
-0.1063485433070866
20
2.3347515748031498
11
-0.1131616929133858
21
2.3470790157480312
0
LINE
8
BLACK
6
CONTINUOUS
10
-0.1131616929133858
20
2.3470790157480312
11
-0.1185517322834646
21
2.3600917716535434
0
LINE
8
BLACK
6
CONTINUOUS
10
-0.1185517322834646
20
2.3600917716535434
11
-0.1224509448818898
21
2.3736261811023622
0
LINE
8
BLACK
6
CONTINUOUS
10
-0.1224509448818898
20
2.3736261811023622
11
-0.1248102362204724
21
2.3875120472440945
0
LINE
8
BLACK
6
CONTINUOUS
10
-0.1248102362204724
20
2.3875120472440945
11
-0.1256
21
2.401574803149606
0
LINE
8
BLACK
6
CONTINUOUS
10
-0.1256
20
2.401574803149606
11
-0.1248102362204724
21
2.415637559055118
0
LINE
8
BLACK
6
CONTINUOUS
10
-0.1248102362204724
20
2.415637559055118
11
-0.1224509448818898
21
2.4295234251968503
0
LINE
8
BLACK
6
CONTINUOUS
10
-0.1224509448818898
20
2.4295234251968503
11
-0.1185517322834646
21
2.4430578346456691
0
LINE
8
BLACK
6
CONTINUOUS
10
-0.1185517322834646
20
2.4430578346456691
11
-0.1131616929133858
21
2.4560705905511813
0
LINE
8
BLACK
6
CONTINUOUS
10
-0.1131616929133858
20
2.4560705905511813
11
-0.1063485433070866
21
2.4683980314960627
0
LINE
8
BLACK
6
CONTINUOUS
10
-0.1063485433070866
20
2.4683980314960627
11
-0.098198031496063
21
2.4798851181102362
0
LINE
8
BLACK
6
CONTINUOUS
10
-0.098198031496063
20
2.4798851181102362
11
-0.0888125984251968
21
2.4903874015748029
0
LINE
8
BLACK
6
CONTINUOUS
10
-0.0888125984251968
20
2.4903874015748029
11
-0.0783103149606299
21
2.4997728346456691
0
LINE
8
BLACK
6
CONTINUOUS
10
-0.0783103149606299
20
2.4997728346456691
11
-0.0668232283464567
21
2.507923346456693
0
LINE
8
BLACK
6
CONTINUOUS
10
-0.0668232283464567
20
2.507923346456693
11
-0.0544957874015748
21
2.5147364960629921
0
LINE
8
BLACK
6
CONTINUOUS
10
-0.0544957874015748
20
2.5147364960629921
11
-0.041483031496063
21
2.5201265354330706
0
LINE
8
BLACK
6
CONTINUOUS
10
-0.041483031496063
20
2.5201265354330706
11
-0.0279486220472441
21
2.5240257480314958
0
LINE
8
BLACK
6
CONTINUOUS
10
-0.0279486220472441
20
2.5240257480314958
11
-0.0140627559055118
21
2.5263850393700786
0
LINE
8
BLACK
6
CONTINUOUS
10
-0.0140627559055118
20
2.5263850393700786
11
0.
21
2.5271748031496064
0
LINE
8
BLACK
6
CONTINUOUS
10
0.
20
2.5271748031496064
11
0.0140627559055118
21
2.5263850393700786
0
LINE
8
BLACK
6
CONTINUOUS
10
-0.1100383464566929
20
2.388713149606299
11
-0.1078011417322835
21
2.3760254724409449
0
LINE
8
BLACK
6
CONTINUOUS
10
-0.1078011417322835
20
2.3760254724409449
11
-0.1041061417322835
21
2.3636832677165356
0
LINE
8
BLACK
6
CONTINUOUS
10
-0.1041061417322835
20
2.3636832677165356
11
-0.0990032677165354
21
2.3518535039370079
0
LINE
8
BLACK
6
CONTINUOUS
10
-0.0990032677165354
20
2.3518535039370079
11
-0.0925615748031496
21
2.3406961023622048
0
LINE
8
BLACK
6
CONTINUOUS
10
-0.0925615748031496
20
2.3406961023622048
11
-0.0848681102362205
21
2.3303620078740157
0
LINE
8
BLACK
6
CONTINUOUS
10
-0.0848681102362205
20
2.3303620078740157
11
-0.076026968503937
21
2.3209909448818897
0
LINE
8
BLACK
6
CONTINUOUS
10
-0.076026968503937
20
2.3209909448818897
11
-0.0661576771653543
21
2.3127096456692913
0
LINE
8
BLACK
6
CONTINUOUS
10
-0.0661576771653543
20
2.3127096456692913
11
-0.0553937401574803
21
2.3056300787401574
0
LINE
8
BLACK
6
CONTINUOUS
10
-0.0553937401574803
20
2.3056300787401574
11
-0.0438806692913386
21
2.2998479921259842
0
LINE
8
BLACK
6
CONTINUOUS
10
-0.0438806692913386
20
2.2998479921259842
11
-0.0317742125984252
21
2.2954416141732281
0
LINE
8
BLACK
6
CONTINUOUS
10
-0.0317742125984252
20
2.2954416141732281
11
-0.019238031496063
21
2.2924704724409448
0
LINE
8
BLACK
6
CONTINUOUS
10
-0.019238031496063
20
2.2924704724409448
11
-0.0064417322834646
21
2.2909748031496062
0
LINE
8
BLACK
6
CONTINUOUS
10
-0.0064417322834646
20
2.2909748031496062
11
0.0064417322834646
21
2.2909748031496062
0
LINE
8
BLACK
6
CONTINUOUS
10
0.0064417322834646
20
2.2909748031496062
11
0.019238031496063
21
2.2924704724409448
0
LINE
8
BLACK
6
CONTINUOUS
10
0.019238031496063
20
2.2924704724409448
11
0.0317742125984252
21
2.2954416141732281
0
LINE
8
BLACK
6
CONTINUOUS
10
0.0317742125984252
20
2.2954416141732281
11
0.0438806692913386
21
2.2998479921259842
0
LINE
8
BLACK
6
CONTINUOUS
10
0.0438806692913386
20
2.2998479921259842
11
0.0553937401574803
21
2.3056300787401574
0
LINE
8
BLACK
6
CONTINUOUS
10
0.0553937401574803
20
2.3056300787401574
11
0.0661576771653543
21
2.3127096456692913
0
LINE
8
BLACK
6
CONTINUOUS
10
0.0661576771653543
20
2.3127096456692913
11
0.076026968503937
21
2.3209909448818897
0
LINE
8
BLACK
6
CONTINUOUS
10
0.076026968503937
20
2.3209909448818897
11
0.0848681102362205
21
2.3303620078740157
0
LINE
8
BLACK
6
CONTINUOUS
10
0.0848681102362205
20
2.3303620078740157
11
0.0925615748031496
21
2.3406961023622048
0
LINE
8
BLACK
6
CONTINUOUS
10
0.0925615748031496
20
2.3406961023622048
11
0.0990032677165354
21
2.3518535039370079
0
LINE
8
BLACK
6
CONTINUOUS
10
0.0990032677165354
20
2.3518535039370079
11
0.1041061417322835
21
2.3636832677165356
0
LINE
8
BLACK
6
CONTINUOUS
10
0.1041061417322835
20
2.3636832677165356
11
0.1078011417322835
21
2.3760254724409449
0
LINE
8
BLACK
6
CONTINUOUS
10
0.1078011417322835
20
2.3760254724409449
11
0.1100383464566929
21
2.388713149606299
0
LINE
8
BLACK
6
CONTINUOUS
10
0.1100383464566929
20
2.388713149606299
11
0.1107874409448819
21
2.401574803149606
0
LINE
8
BLACK
6
CONTINUOUS
10
0.1107874409448819
20
2.401574803149606
11
0.1100383464566929
21
2.4144364566929135
0
LINE
8
BLACK
6
CONTINUOUS
10
0.1100383464566929
20
2.4144364566929135
11
0.1078011417322835
21
2.4271241338582676
0
LINE
8
BLACK
6
CONTINUOUS
10
0.1078011417322835
20
2.4271241338582676
11
0.1041061417322835
21
2.4394663385826769
0
LINE
8
BLACK
6
CONTINUOUS
10
0.1041061417322835
20
2.4394663385826769
11
0.0990032677165354
21
2.4512961023622046
0
LINE
8
BLACK
6
CONTINUOUS
10
0.0990032677165354
20
2.4512961023622046
11
0.0925615748031496
21
2.4624535039370077
0
LINE
8
BLACK
6
CONTINUOUS
10
0.0925615748031496
20
2.4624535039370077
11
0.0848681102362205
21
2.4727875984251968
0
LINE
8
BLACK
6
CONTINUOUS
10
0.0848681102362205
20
2.4727875984251968
11
0.076026968503937
21
2.4821586614173228
0
LINE
8
BLACK
6
CONTINUOUS
10
0.076026968503937
20
2.4821586614173228
11
0.0661576771653543
21
2.4904399606299212
0
LINE
8
BLACK
6
CONTINUOUS
10
0.0661576771653543
20
2.4904399606299212
11
0.0553937401574803
21
2.4975195275590552
0
LINE
8
BLACK
6
CONTINUOUS
10
0.0553937401574803
20
2.4975195275590552
11
0.0438806692913386
21
2.5033016141732283
0
LINE
8
BLACK
6
CONTINUOUS
10
0.0438806692913386
20
2.5033016141732283
11
0.0317742125984252
21
2.5077079921259844
0
LINE
8
BLACK
6
CONTINUOUS
10
0.0317742125984252
20
2.5077079921259844
11
0.019238031496063
21
2.5106791338582677
0
LINE
8
BLACK
6
CONTINUOUS
10
0.019238031496063
20
2.5106791338582677
11
0.0064417322834646
21
2.5121748031496063
0
LINE
8
BLACK
6
CONTINUOUS
10
0.0064417322834646
20
2.5121748031496063
11
-0.0064417322834646
21
2.5121748031496063
0
LINE
8
BLACK
6
CONTINUOUS
10
-0.0064417322834646
20
2.5121748031496063
11
-0.019238031496063
21
2.5106791338582677
0
LINE
8
BLACK
6
CONTINUOUS
10
-0.019238031496063
20
2.5106791338582677
11
-0.0317742125984252
21
2.5077079921259844
0
LINE
8
BLACK
6
CONTINUOUS
10
-0.0317742125984252
20
2.5077079921259844
11
-0.0438806692913386
21
2.5033016141732283
0
LINE
8
BLACK
6
CONTINUOUS
10
-0.0438806692913386
20
2.5033016141732283
11
-0.0553937401574803
21
2.4975195275590552
0
LINE
8
BLACK
6
CONTINUOUS
10
-0.0553937401574803
20
2.4975195275590552
11
-0.0661576771653543
21
2.4904399606299212
0
LINE
8
BLACK
6
CONTINUOUS
10
-0.0661576771653543
20
2.4904399606299212
11
-0.076026968503937
21
2.4821586614173228
0
LINE
8
BLACK
6
CONTINUOUS
10
-0.076026968503937
20
2.4821586614173228
11
-0.0848681102362205
21
2.4727875984251968
0
LINE
8
BLACK
6
CONTINUOUS
10
-0.0848681102362205
20
2.4727875984251968
11
-0.0925615748031496
21
2.4624535039370077
0
LINE
8
BLACK
6
CONTINUOUS
10
-0.0925615748031496
20
2.4624535039370077
11
-0.0990032677165354
21
2.4512961023622046
0
LINE
8
BLACK
6
CONTINUOUS
10
-0.0990032677165354
20
2.4512961023622046
11
-0.1041061417322835
21
2.4394663385826769
0
LINE
8
BLACK
6
CONTINUOUS
10
-0.1041061417322835
20
2.4394663385826769
11
-0.1078011417322835
21
2.4271241338582676
0
LINE
8
BLACK
6
CONTINUOUS
10
-0.1078011417322835
20
2.4271241338582676
11
-0.1100383464566929
21
2.4144364566929135
0
LINE
8
BLACK
6
CONTINUOUS
10
-0.1100383464566929
20
2.4144364566929135
11
-0.1107874409448819
21
2.401574803149606
0
LINE
8
BLACK
6
CONTINUOUS
10
-0.1107874409448819
20
2.401574803149606
11
-0.1100383464566929
21
2.388713149606299
0
LINE
8
BLACK
6
CONTINUOUS
10
2.014062755905512
20
2.5263850393700786
11
2.0279486220472442
21
2.5240257480314958
0
LINE
8
BLACK
6
CONTINUOUS
10
2.0279486220472442
20
2.5240257480314958
11
2.041483031496063
21
2.5201265354330706
0
LINE
8
BLACK
6
CONTINUOUS
10
2.041483031496063
20
2.5201265354330706
11
2.0544957874015748
21
2.5147364960629921
0
LINE
8
BLACK
6
CONTINUOUS
10
2.0544957874015748
20
2.5147364960629921
11
2.0668232283464567
21
2.507923346456693
0
LINE
8
BLACK
6
CONTINUOUS
10
2.0668232283464567
20
2.507923346456693
11
2.0783103149606297
21
2.4997728346456691
0
LINE
8
BLACK
6
CONTINUOUS
10
2.0783103149606297
20
2.4997728346456691
11
2.0888125984251968
21
2.4903874015748029
0
LINE
8
BLACK
6
CONTINUOUS
10
2.0888125984251968
20
2.4903874015748029
11
2.0981980314960631
21
2.4798851181102362
0
LINE
8
BLACK
6
CONTINUOUS
10
2.0981980314960631
20
2.4798851181102362
11
2.1063485433070865
21
2.4683980314960627
0
LINE
8
BLACK
6
CONTINUOUS
10
2.1063485433070865
20
2.4683980314960627
11
2.1131616929133856
21
2.4560705905511813
0
LINE
8
BLACK
6
CONTINUOUS
10
2.1131616929133856
20
2.4560705905511813
11
2.1185517322834646
21
2.4430578346456691
0
LINE
8
BLACK
6
CONTINUOUS
10
2.1185517322834646
20
2.4430578346456691
11
2.1224509448818898
21
2.4295234251968503
0
LINE
8
BLACK
6
CONTINUOUS
10
2.1224509448818898
20
2.4295234251968503
11
2.1248102362204726
21
2.415637559055118
0
LINE
8
BLACK
6
CONTINUOUS
10
2.1248102362204726
20
2.415637559055118
11
2.1255999999999999
21
2.401574803149606
0
LINE
8
BLACK
6
CONTINUOUS
10
2.1255999999999999
20
2.401574803149606
11
2.1248102362204726
21
2.3875120472440945
0
LINE
8
BLACK
6
CONTINUOUS
10
2.1248102362204726
20
2.3875120472440945
11
2.1224509448818898
21
2.3736261811023622
0
LINE
8
BLACK
6
CONTINUOUS
10
2.1224509448818898
20
2.3736261811023622
11
2.1185517322834646
21
2.3600917716535434
0
LINE
8
BLACK
6
CONTINUOUS
10
2.1185517322834646
20
2.3600917716535434
11
2.1131616929133856
21
2.3470790157480312
0
LINE
8
BLACK
6
CONTINUOUS
10
2.1131616929133856
20
2.3470790157480312
11
2.1063485433070865
21
2.3347515748031498
0
LINE
8
BLACK
6
CONTINUOUS
10
2.1063485433070865
20
2.3347515748031498
11
2.0981980314960631
21
2.3232644881889764
0
LINE
8
BLACK
6
CONTINUOUS
10
2.0981980314960631
20
2.3232644881889764
11
2.0888125984251968
21
2.3127622047244092
0
LINE
8
BLACK
6
CONTINUOUS
10
2.0888125984251968
20
2.3127622047244092
11
2.0783103149606297
21
2.3033767716535434
0
LINE
8
BLACK
6
CONTINUOUS
10
2.0783103149606297
20
2.3033767716535434
11
2.0668232283464567
21
2.2952262598425195
0
LINE
8
BLACK
6
CONTINUOUS
10
2.0668232283464567
20
2.2952262598425195
11
2.0544957874015748
21
2.2884131102362204
0
LINE
8
BLACK
6
CONTINUOUS
10
2.0544957874015748
20
2.2884131102362204
11
2.041483031496063
21
2.2830230708661419
0
LINE
8
BLACK
6
CONTINUOUS
10
2.041483031496063
20
2.2830230708661419
11
2.0279486220472442
21
2.2791238582677167
0
LINE
8
BLACK
6
CONTINUOUS
10
2.0279486220472442
20
2.2791238582677167
11
2.014062755905512
21
2.2767645669291339
0
LINE
8
BLACK
6
CONTINUOUS
10
2.014062755905512
20
2.2767645669291339
11
2.
21
2.2759748031496061
0
LINE
8
BLACK
6
CONTINUOUS
10
2.
20
2.2759748031496061
11
1.9859372440944882
21
2.2767645669291339
0
LINE
8
BLACK
6
CONTINUOUS
10
1.9859372440944882
20
2.2767645669291339
11
1.9720513779527558
21
2.2791238582677167
0
LINE
8
BLACK
6
CONTINUOUS
10
1.9720513779527558
20
2.2791238582677167
11
1.958516968503937
21
2.2830230708661419
0
LINE
8
BLACK
6
CONTINUOUS
10
1.958516968503937
20
2.2830230708661419
11
1.9455042125984252
21
2.2884131102362204
0
LINE
8
BLACK
6
CONTINUOUS
10
1.9455042125984252
20
2.2884131102362204
11
1.9331767716535433
21
2.2952262598425195
0
LINE
8
BLACK
6
CONTINUOUS
10
1.9331767716535433
20
2.2952262598425195
11
1.9216896850393701
21
2.3033767716535434
0
LINE
8
BLACK
6
CONTINUOUS
10
1.9216896850393701
20
2.3033767716535434
11
1.9111874015748032
21
2.3127622047244092
0
LINE
8
BLACK
6
CONTINUOUS
10
1.9111874015748032
20
2.3127622047244092
11
1.9018019685039369
21
2.3232644881889764
0
LINE
8
BLACK
6
CONTINUOUS
10
1.9018019685039369
20
2.3232644881889764
11
1.8936514566929132
21
2.3347515748031498
0
LINE
8
BLACK
6
CONTINUOUS
10
1.8936514566929132
20
2.3347515748031498
11
1.8868383070866142
21
2.3470790157480312
0
LINE
8
BLACK
6
CONTINUOUS
10
1.8868383070866142
20
2.3470790157480312
11
1.8814482677165354
21
2.3600917716535434
0
LINE
8
BLACK
6
CONTINUOUS
10
1.8814482677165354
20
2.3600917716535434
11
1.8775490551181102
21
2.3736261811023622
0
LINE
8
BLACK
6
CONTINUOUS
10
1.8775490551181102
20
2.3736261811023622
11
1.8751897637795276
21
2.3875120472440945
0
LINE
8
BLACK
6
CONTINUOUS
10
1.8751897637795276
20
2.3875120472440945
11
1.8744000000000001
21
2.401574803149606
0
LINE
8
BLACK
6
CONTINUOUS
10
1.8744000000000001
20
2.401574803149606
11
1.8751897637795276
21
2.415637559055118
0
LINE
8
BLACK
6
CONTINUOUS
10
1.8751897637795276
20
2.415637559055118
11
1.8775490551181102
21
2.4295234251968503
0
LINE
8
BLACK
6
CONTINUOUS
10
1.8775490551181102
20
2.4295234251968503
11
1.8814482677165354
21
2.4430578346456691
0
LINE
8
BLACK
6
CONTINUOUS
10
1.8814482677165354
20
2.4430578346456691
11
1.8868383070866142
21
2.4560705905511813
0
LINE
8
BLACK
6
CONTINUOUS
10
1.8868383070866142
20
2.4560705905511813
11
1.8936514566929132
21
2.4683980314960627
0
LINE
8
BLACK
6
CONTINUOUS
10
1.8936514566929132
20
2.4683980314960627
11
1.9018019685039369
21
2.4798851181102362
0
LINE
8
BLACK
6
CONTINUOUS
10
1.9018019685039369
20
2.4798851181102362
11
1.9111874015748032
21
2.4903874015748029
0
LINE
8
BLACK
6
CONTINUOUS
10
1.9111874015748032
20
2.4903874015748029
11
1.9216896850393701
21
2.4997728346456691
0
LINE
8
BLACK
6
CONTINUOUS
10
1.9216896850393701
20
2.4997728346456691
11
1.9331767716535433
21
2.507923346456693
0
LINE
8
BLACK
6
CONTINUOUS
10
1.9331767716535433
20
2.507923346456693
11
1.9455042125984252
21
2.5147364960629921
0
LINE
8
BLACK
6
CONTINUOUS
10
1.9455042125984252
20
2.5147364960629921
11
1.958516968503937
21
2.5201265354330706
0
LINE
8
BLACK
6
CONTINUOUS
10
1.958516968503937
20
2.5201265354330706
11
1.9720513779527558
21
2.5240257480314958
0
LINE
8
BLACK
6
CONTINUOUS
10
1.9720513779527558
20
2.5240257480314958
11
1.9859372440944882
21
2.5263850393700786
0
LINE
8
BLACK
6
CONTINUOUS
10
1.9859372440944882
20
2.5263850393700786
11
2.
21
2.5271748031496064
0
LINE
8
BLACK
6
CONTINUOUS
10
2.
20
2.5271748031496064
11
2.014062755905512
21
2.5263850393700786
0
LINE
8
BLACK
6
CONTINUOUS
10
1.889961653543307
20
2.388713149606299
11
1.8921988582677165
21
2.3760254724409449
0
LINE
8
BLACK
6
CONTINUOUS
10
1.8921988582677165
20
2.3760254724409449
11
1.8958938582677165
21
2.3636832677165356
0
LINE
8
BLACK
6
CONTINUOUS
10
1.8958938582677165
20
2.3636832677165356
11
1.9009967322834644
21
2.3518535039370079
0
LINE
8
BLACK
6
CONTINUOUS
10
1.9009967322834644
20
2.3518535039370079
11
1.9074384251968504
21
2.3406961023622048
0
LINE
8
BLACK
6
CONTINUOUS
10
1.9074384251968504
20
2.3406961023622048
11
1.9151318897637795
21
2.3303620078740157
0
LINE
8
BLACK
6
CONTINUOUS
10
1.9151318897637795
20
2.3303620078740157
11
1.923973031496063
21
2.3209909448818897
0
LINE
8
BLACK
6
CONTINUOUS
10
1.923973031496063
20
2.3209909448818897
11
1.9338423228346455
21
2.3127096456692913
0
LINE
8
BLACK
6
CONTINUOUS
10
1.9338423228346455
20
2.3127096456692913
11
1.9446062598425196
21
2.3056300787401574
0
LINE
8
BLACK
6
CONTINUOUS
10
1.9446062598425196
20
2.3056300787401574
11
1.9561193307086613
21
2.2998479921259842
0
LINE
8
BLACK
6
CONTINUOUS
10
1.9561193307086613
20
2.2998479921259842
11
1.9682257874015747
21
2.2954416141732281
0
LINE
8
BLACK
6
CONTINUOUS
10
1.9682257874015747
20
2.2954416141732281
11
1.980761968503937
21
2.2924704724409448
0
LINE
8
BLACK
6
CONTINUOUS
10
1.980761968503937
20
2.2924704724409448
11
1.9935582677165353
21
2.2909748031496062
0
LINE
8
BLACK
6
CONTINUOUS
10
1.9935582677165353
20
2.2909748031496062
11
2.0064417322834647
21
2.2909748031496062
0
LINE
8
BLACK
6
CONTINUOUS
10
2.0064417322834647
20
2.2909748031496062
11
2.0192380314960627
21
2.2924704724409448
0
LINE
8
BLACK
6
CONTINUOUS
10
2.0192380314960627
20
2.2924704724409448
11
2.0317742125984251
21
2.2954416141732281
0
LINE
8
BLACK
6
CONTINUOUS
10
2.0317742125984251
20
2.2954416141732281
11
2.0438806692913385
21
2.2998479921259842
0
LINE
8
BLACK
6
CONTINUOUS
10
2.0438806692913385
20
2.2998479921259842
11
2.0553937401574802
21
2.3056300787401574
0
LINE
8
BLACK
6
CONTINUOUS
10
2.0553937401574802
20
2.3056300787401574
11
2.0661576771653545
21
2.3127096456692913
0
LINE
8
BLACK
6
CONTINUOUS
10
2.0661576771653545
20
2.3127096456692913
11
2.0760269685039368
21
2.3209909448818897
0
LINE
8
BLACK
6
CONTINUOUS
10
2.0760269685039368
20
2.3209909448818897
11
2.0848681102362203
21
2.3303620078740157
0
LINE
8
BLACK
6
CONTINUOUS
10
2.0848681102362203
20
2.3303620078740157
11
2.0925615748031494
21
2.3406961023622048
0
LINE
8
BLACK
6
CONTINUOUS
10
2.0925615748031494
20
2.3406961023622048
11
2.0990032677165353
21
2.3518535039370079
0
LINE
8
BLACK
6
CONTINUOUS
10
2.0990032677165353
20
2.3518535039370079
11
2.1041061417322835
21
2.3636832677165356
0
LINE
8
BLACK
6
CONTINUOUS
10
2.1041061417322835
20
2.3636832677165356
11
2.1078011417322835
21
2.3760254724409449
0
LINE
8
BLACK
6
CONTINUOUS
10
2.1078011417322835
20
2.3760254724409449
11
2.110038346456693
21
2.388713149606299
0
LINE
8
BLACK
6
CONTINUOUS
10
2.110038346456693
20
2.388713149606299
11
2.1107874409448817
21
2.401574803149606
0
LINE
8
BLACK
6
CONTINUOUS
10
2.1107874409448817
20
2.401574803149606
11
2.110038346456693
21
2.4144364566929135
0
LINE
8
BLACK
6
CONTINUOUS
10
2.110038346456693
20
2.4144364566929135
11
2.1078011417322835
21
2.4271241338582676
0
LINE
8
BLACK
6
CONTINUOUS
10
2.1078011417322835
20
2.4271241338582676
11
2.1041061417322835
21
2.4394663385826769
0
LINE
8
BLACK
6
CONTINUOUS
10
2.1041061417322835
20
2.4394663385826769
11
2.0990032677165353
21
2.4512961023622046
0
LINE
8
BLACK
6
CONTINUOUS
10
2.0990032677165353
20
2.4512961023622046
11
2.0925615748031494
21
2.4624535039370077
0
LINE
8
BLACK
6
CONTINUOUS
10
2.0925615748031494
20
2.4624535039370077
11
2.0848681102362203
21
2.4727875984251968
0
LINE
8
BLACK
6
CONTINUOUS
10
2.0848681102362203
20
2.4727875984251968
11
2.0760269685039368
21
2.4821586614173228
0
LINE
8
BLACK
6
CONTINUOUS
10
2.0760269685039368
20
2.4821586614173228
11
2.0661576771653545
21
2.4904399606299212
0
LINE
8
BLACK
6
CONTINUOUS
10
2.0661576771653545
20
2.4904399606299212
11
2.0553937401574802
21
2.4975195275590552
0
LINE
8
BLACK
6
CONTINUOUS
10
2.0553937401574802
20
2.4975195275590552
11
2.0438806692913385
21
2.5033016141732283
0
LINE
8
BLACK
6
CONTINUOUS
10
2.0438806692913385
20
2.5033016141732283
11
2.0317742125984251
21
2.5077079921259844
0
LINE
8
BLACK
6
CONTINUOUS
10
2.0317742125984251
20
2.5077079921259844
11
2.0192380314960627
21
2.5106791338582677
0
LINE
8
BLACK
6
CONTINUOUS
10
2.0192380314960627
20
2.5106791338582677
11
2.0064417322834647
21
2.5121748031496063
0
LINE
8
BLACK
6
CONTINUOUS
10
2.0064417322834647
20
2.5121748031496063
11
1.9935582677165353
21
2.5121748031496063
0
LINE
8
BLACK
6
CONTINUOUS
10
1.9935582677165353
20
2.5121748031496063
11
1.980761968503937
21
2.5106791338582677
0
LINE
8
BLACK
6
CONTINUOUS
10
1.980761968503937
20
2.5106791338582677
11
1.9682257874015747
21
2.5077079921259844
0
LINE
8
BLACK
6
CONTINUOUS
10
1.9682257874015747
20
2.5077079921259844
11
1.9561193307086613
21
2.5033016141732283
0
LINE
8
BLACK
6
CONTINUOUS
10
1.9561193307086613
20
2.5033016141732283
11
1.9446062598425196
21
2.4975195275590552
0
LINE
8
BLACK
6
CONTINUOUS
10
1.9446062598425196
20
2.4975195275590552
11
1.9338423228346455
21
2.4904399606299212
0
LINE
8
BLACK
6
CONTINUOUS
10
1.9338423228346455
20
2.4904399606299212
11
1.923973031496063
21
2.4821586614173228
0
LINE
8
BLACK
6
CONTINUOUS
10
1.923973031496063
20
2.4821586614173228
11
1.9151318897637795
21
2.4727875984251968
0
LINE
8
BLACK
6
CONTINUOUS
10
1.9151318897637795
20
2.4727875984251968
11
1.9074384251968504
21
2.4624535039370077
0
LINE
8
BLACK
6
CONTINUOUS
10
1.9074384251968504
20
2.4624535039370077
11
1.9009967322834644
21
2.4512961023622046
0
LINE
8
BLACK
6
CONTINUOUS
10
1.9009967322834644
20
2.4512961023622046
11
1.8958938582677165
21
2.4394663385826769
0
LINE
8
BLACK
6
CONTINUOUS
10
1.8958938582677165
20
2.4394663385826769
11
1.8921988582677165
21
2.4271241338582676
0
LINE
8
BLACK
6
CONTINUOUS
10
1.8921988582677165
20
2.4271241338582676
11
1.889961653543307
21
2.4144364566929135
0
LINE
8
BLACK
6
CONTINUOUS
10
1.889961653543307
20
2.4144364566929135
11
1.8892125590551181
21
2.401574803149606
0
LINE
8
BLACK
6
CONTINUOUS
10
1.8892125590551181
20
2.401574803149606
11
1.889961653543307
21
2.388713149606299
0
LINE
8
BLACK
6
CONTINUOUS
10
0.4812847244094488
20
2.5005338188976376
11
0.4823491338582677
21
2.5000929133858265
0
LINE
8
BLACK
6
CONTINUOUS
10
0.4823491338582677
20
2.5000929133858265
11
0.4831637795275591
21
2.4992782677165355
0
LINE
8
BLACK
6
CONTINUOUS
10
0.4831637795275591
20
2.4992782677165355
11
0.48360468503937
21
2.4982138582677167
0
LINE
8
BLACK
6
CONTINUOUS
10
0.48360468503937
20
2.4982138582677167
11
0.4836614173228346
21
2.4976377952755904
0
LINE
8
BLACK
6
CONTINUOUS
10
0.4836614173228346
20
2.4976377952755904
11
0.4836614173228346
21
2.2976377952755906
0
LINE
8
BLACK
6
CONTINUOUS
10
0.4836614173228346
20
2.2976377952755906
11
0.48360468503937
21
2.2970617322834643
0
LINE
8
BLACK
6
CONTINUOUS
10
0.48360468503937
20
2.2970617322834643
11
0.4831637795275591
21
2.2959973228346455
0
LINE
8
BLACK
6
CONTINUOUS
10
0.4831637795275591
20
2.2959973228346455
11
0.4823491338582677
21
2.2951826771653541
0
LINE
8
BLACK
6
CONTINUOUS
10
0.4823491338582677
20
2.2951826771653541
11
0.4812847244094488
21
2.2947417716535434
0
LINE
8
BLACK
6
CONTINUOUS
10
0.4812847244094488
20
2.2947417716535434
11
0.4807086614173228
21
2.2946850393700786
0
LINE
8
BLACK
6
CONTINUOUS
10
0.4807086614173228
20
2.2946850393700786
11
0.1807086614173228
21
2.2946850393700786
0
LINE
8
BLACK
6
CONTINUOUS
10
0.1807086614173228
20
2.2946850393700786
11
0.1801325984251969
21
2.2947417716535434
0
LINE
8
BLACK
6
CONTINUOUS
10
0.1801325984251969
20
2.2947417716535434
11
0.1790681889763779
21
2.2951826771653541
0
LINE
8
BLACK
6
CONTINUOUS
10
0.1790681889763779
20
2.2951826771653541
11
0.1782535433070866
21
2.2959973228346455
0
LINE
8
BLACK
6
CONTINUOUS
10
0.1782535433070866
20
2.2959973228346455
11
0.1778126377952756
21
2.2970617322834643
0
LINE
8
BLACK
6
CONTINUOUS
10
0.1778126377952756
20
2.2970617322834643
11
0.177755905511811
21
2.2976377952755906
0
LINE
8
BLACK
6
CONTINUOUS
10
0.177755905511811
20
2.2976377952755906
11
0.177755905511811
21
2.4976377952755904
0
LINE
8
BLACK
6
CONTINUOUS
10
0.177755905511811
20
2.4976377952755904
11
0.1778126377952756
21
2.4982138582677167
0
LINE
8
BLACK
6
CONTINUOUS
10
0.1778126377952756
20
2.4982138582677167
11
0.1782535433070866
21
2.4992782677165355
0
LINE
8
BLACK
6
CONTINUOUS
10
0.1782535433070866
20
2.4992782677165355
11
0.1790681889763779
21
2.5000929133858265
0
LINE
8
BLACK
6
CONTINUOUS
10
0.1790681889763779
20
2.5000929133858265
11
0.1801325984251969
21
2.5005338188976376
0
LINE
8
BLACK
6
CONTINUOUS
10
0.1801325984251969
20
2.5005338188976376
11
0.1807086614173228
21
2.5005905511811024
0
LINE
8
BLACK
6
CONTINUOUS
10
0.1807086614173228
20
2.5005905511811024
11
0.4807086614173228
21
2.5005905511811024
0
LINE
8
BLACK
6
CONTINUOUS
10
0.4807086614173228
20
2.5005905511811024
11
0.4812847244094488
21
2.5005338188976376
0
LINE
8
BLACK
6
CONTINUOUS
10
0.1836614173228346
20
2.4946850393700788
11
0.1836614173228346
21
2.3005905511811022
0
LINE
8
BLACK
6
CONTINUOUS
10
0.1836614173228346
20
2.3005905511811022
11
0.477755905511811
21
2.3005905511811022
0
LINE
8
BLACK
6
CONTINUOUS
10
0.477755905511811
20
2.3005905511811022
11
0.477755905511811
21
2.4946850393700788
0
LINE
8
BLACK
6
CONTINUOUS
10
0.477755905511811
20
2.4946850393700788
11
0.1836614173228346
21
2.4946850393700788
0
LINE
8
BLACK
6
CONTINUOUS
10
1.2214422047244093
20
2.5005338188976376
11
1.2225066141732284
21
2.5000929133858265
0
LINE
8
BLACK
6
CONTINUOUS
10
1.2225066141732284
20
2.5000929133858265
11
1.2233212598425196
21
2.4992782677165355
0
LINE
8
BLACK
6
CONTINUOUS
10
1.2233212598425196
20
2.4992782677165355
11
1.2237621653543307
21
2.4982138582677167
0
LINE
8
BLACK
6
CONTINUOUS
10
1.2237621653543307
20
2.4982138582677167
11
1.2238188976377953
21
2.4976377952755904
0
LINE
8
BLACK
6
CONTINUOUS
10
1.2238188976377953
20
2.4976377952755904
11
1.2238188976377953
21
2.2976377952755906
0
LINE
8
BLACK
6
CONTINUOUS
10
1.2238188976377953
20
2.2976377952755906
11
1.2237621653543307
21
2.2970617322834643
0
LINE
8
BLACK
6
CONTINUOUS
10
1.2237621653543307
20
2.2970617322834643
11
1.2233212598425196
21
2.2959973228346455
0
LINE
8
BLACK
6
CONTINUOUS
10
1.2233212598425196
20
2.2959973228346455
11
1.2225066141732284
21
2.2951826771653541
0
LINE
8
BLACK
6
CONTINUOUS
10
1.2225066141732284
20
2.2951826771653541
11
1.2214422047244093
21
2.2947417716535434
0
LINE
8
BLACK
6
CONTINUOUS
10
1.2214422047244093
20
2.2947417716535434
11
1.2208661417322835
21
2.2946850393700786
0
LINE
8
BLACK
6
CONTINUOUS
10
1.2208661417322835
20
2.2946850393700786
11
0.9208661417322834
21
2.2946850393700786
0
LINE
8
BLACK
6
CONTINUOUS
10
0.9208661417322834
20
2.2946850393700786
11
0.9202900787401574
21
2.2947417716535434
0
LINE
8
BLACK
6
CONTINUOUS
10
0.9202900787401574
20
2.2947417716535434
11
0.9192256692913385
21
2.2951826771653541
0
LINE
8
BLACK
6
CONTINUOUS
10
0.9192256692913385
20
2.2951826771653541
11
0.9184110236220472
21
2.2959973228346455
0
LINE
8
BLACK
6
CONTINUOUS
10
0.9184110236220472
20
2.2959973228346455
11
0.9179701181102362
21
2.2970617322834643
0
LINE
8
BLACK
6
CONTINUOUS
10
0.9179701181102362
20
2.2970617322834643
11
0.9179133858267716
21
2.2976377952755906
0
LINE
8
BLACK
6
CONTINUOUS
10
0.9179133858267716
20
2.2976377952755906
11
0.9179133858267716
21
2.4976377952755904
0
LINE
8
BLACK
6
CONTINUOUS
10
0.9179133858267716
20
2.4976377952755904
11
0.9179701181102362
21
2.4982138582677167
0
LINE
8
BLACK
6
CONTINUOUS
10
0.9179701181102362
20
2.4982138582677167
11
0.9184110236220472
21
2.4992782677165355
0
LINE
8
BLACK
6
CONTINUOUS
10
0.9184110236220472
20
2.4992782677165355
11
0.9192256692913385
21
2.5000929133858265
0
LINE
8
BLACK
6
CONTINUOUS
10
0.9192256692913385
20
2.5000929133858265
11
0.9202900787401574
21
2.5005338188976376
0
LINE
8
BLACK
6
CONTINUOUS
10
0.9202900787401574
20
2.5005338188976376
11
0.9208661417322834
21
2.5005905511811024
0
LINE
8
BLACK
6
CONTINUOUS
10
0.9208661417322834
20
2.5005905511811024
11
1.2208661417322835
21
2.5005905511811024
0
LINE
8
BLACK
6
CONTINUOUS
10
1.2208661417322835
20
2.5005905511811024
11
1.2214422047244093
21
2.5005338188976376
0
LINE
8
BLACK
6
CONTINUOUS
10
0.9238188976377952
20
2.4946850393700788
11
0.9238188976377952
21
2.3005905511811022
0
LINE
8
BLACK
6
CONTINUOUS
10
0.9238188976377952
20
2.3005905511811022
11
1.2179133858267717
21
2.3005905511811022
0
LINE
8
BLACK
6
CONTINUOUS
10
1.2179133858267717
20
2.3005905511811022
11
1.2179133858267717
21
2.4946850393700788
0
LINE
8
BLACK
6
CONTINUOUS
10
1.2179133858267717
20
2.4946850393700788
11
0.9238188976377952
21
2.4946850393700788
0
CIRCLE
8
BLACK
10
0.4307086614173228
20
2.4476377952755906
40
0.0068897637795276
0
CIRCLE
8
BLACK
10
0.4307086614173228
20
2.3476377952755905
40
0.0068897637795276
0
CIRCLE
8
BLACK
10
0.3307086614173228
20
2.4476377952755906
40
0.0068897637795276
0
CIRCLE
8
BLACK
10
0.3307086614173228
20
2.3476377952755905
40
0.0068897637795276
0
CIRCLE
8
BLACK
10
0.2307086614173228
20
2.4476377952755906
40
0.0068897637795276
0
CIRCLE
8
BLACK
10
0.2307086614173228
20
2.3476377952755905
40
0.0068897637795276
0
CIRCLE
8
BLACK
10
2.
20
0.
40
0.0068897637795276
0
CIRCLE
8
BLACK
10
0.
20
0.
40
0.0068897637795276
0
CIRCLE
8
BLACK
10
1.3196850393700787
20
2.3476377952755905
40
0.0068897637795276
0
CIRCLE
8
BLACK
10
1.3196850393700787
20
2.4476377952755906
40
0.0068897637795276
0
CIRCLE
8
BLACK
10
1.4196850393700786
20
2.3476377952755905
40
0.0068897637795276
0
CIRCLE
8
BLACK
10
1.4196850393700786
20
2.4476377952755906
40
0.0068897637795276
0
CIRCLE
8
BLACK
10
1.5196850393700787
20
2.3476377952755905
40
0.0068897637795276
0
CIRCLE
8
BLACK
10
1.5196850393700787
20
2.4476377952755906
40
0.0068897637795276
0
CIRCLE
8
BLACK
10
1.6196850393700788
20
2.3476377952755905
40
0.0068897637795276
0
CIRCLE
8
BLACK
10
1.6196850393700788
20
2.4476377952755906
40
0.0068897637795276
0
CIRCLE
8
BLACK
10
1.7196850393700787
20
2.3476377952755905
40
0.0068897637795276
0
CIRCLE
8
BLACK
10
1.7196850393700787
20
2.4476377952755906
40
0.0068897637795276
0
CIRCLE
8
BLACK
10
0.8307086614173228
20
2.2503937007874013
40
0.0068897637795276
0
CIRCLE
8
BLACK
10
0.8307086614173228
20
2.3503937007874014
40
0.0068897637795276
0
CIRCLE
8
BLACK
10
0.8307086614173228
20
2.4503937007874015
40
0.0068897637795276
0
CIRCLE
8
BLACK
10
0.
20
2.401574803149606
40
0.0068897637795276
0
CIRCLE
8
BLACK
10
2.
20
2.401574803149606
40
0.0068897637795276
0
CIRCLE
8
BLACK
10
0.05
20
0.3346456692913386
40
0.0068897637795276
0
CIRCLE
8
BLACK
10
0.15
20
0.3346456692913386
40
0.0068897637795276
0
CIRCLE
8
BLACK
10
0.25
20
0.3346456692913386
40
0.0068897637795276
0
CIRCLE
8
BLACK
10
1.75
20
0.3346456692913386
40
0.0068897637795276
0
CIRCLE
8
BLACK
10
1.8499999999999999
20
0.3346456692913386
40
0.0068897637795276
0
CIRCLE
8
BLACK
10
1.95
20
0.3346456692913386
40
0.0068897637795276
0
CIRCLE
8
BLACK
10
1.9496062992125984
20
2.0196850393700787
40
0.0068897637795276
0
CIRCLE
8
BLACK
10
1.8496062992125983
20
2.0196850393700787
40
0.0068897637795276
0
CIRCLE
8
BLACK
10
1.7496062992125985
20
2.0196850393700787
40
0.0068897637795276
0
CIRCLE
8
BLACK
10
1.6496062992125984
20
2.0196850393700787
40
0.0068897637795276
0
CIRCLE
8
BLACK
10
1.5496062992125983
20
2.0196850393700787
40
0.0068897637795276
0
CIRCLE
8
BLACK
10
1.4496062992125984
20
2.0196850393700787
40
0.0068897637795276
0
CIRCLE
8
BLACK
10
1.3496062992125983
20
2.0196850393700787
40
0.0068897637795276
0
CIRCLE
8
BLACK
10
1.2496062992125985
20
2.0196850393700787
40
0.0068897637795276
0
CIRCLE
8
BLACK
10
1.1496062992125984
20
2.0196850393700787
40
0.0068897637795276
0
CIRCLE
8
BLACK
10
1.0496062992125983
20
2.0196850393700787
40
0.0068897637795276
0
CIRCLE
8
BLACK
10
0.9496062992125984
20
2.0196850393700787
40
0.0068897637795276
0
CIRCLE
8
BLACK
10
0.8496062992125984
20
2.0196850393700787
40
0.0068897637795276
0
CIRCLE
8
BLACK
10
0.7496062992125984
20
2.0196850393700787
40
0.0068897637795276
0
CIRCLE
8
BLACK
10
0.6496062992125984
20
2.0196850393700787
40
0.0068897637795276
0
CIRCLE
8
BLACK
10
0.5496062992125984
20
2.0196850393700787
40
0.0068897637795276
0
CIRCLE
8
BLACK
10
0.4496062992125984
20
2.0196850393700787
40
0.0068897637795276
0
CIRCLE
8
BLACK
10
0.3496062992125984
20
2.0196850393700787
40
0.0068897637795276
0
CIRCLE
8
BLACK
10
0.2496062992125984
20
2.0196850393700787
40
0.0068897637795276
0
CIRCLE
8
BLACK
10
0.1496062992125984
20
2.0196850393700787
40
0.0068897637795276
0
CIRCLE
8
BLACK
10
0.0496062992125984
20
2.0196850393700787
40
0.0068897637795276
0
CIRCLE
8
BLACK
10
1.1708661417322834
20
2.4476377952755906
40
0.0068897637795276
0
CIRCLE
8
BLACK
10
1.1708661417322834
20
2.3476377952755905
40
0.0068897637795276
0
CIRCLE
8
BLACK
10
1.0708661417322833
20
2.4476377952755906
40
0.0068897637795276
0
CIRCLE
8
BLACK
10
1.0708661417322833
20
2.3476377952755905
40
0.0068897637795276
0
CIRCLE
8
BLACK
10
0.9708661417322835
20
2.4476377952755906
40
0.0068897637795276
0
CIRCLE
8
BLACK
10
0.9708661417322835
20
2.3476377952755905
40
0.0068897637795276
0
CIRCLE
8
BLACK
10
0.6700787401574803
20
2.4476377952755906
40
0.0068897637795276
0
CIRCLE
8
BLACK
10
0.6700787401574803
20
2.3476377952755905
40
0.0068897637795276
0
CIRCLE
8
BLACK
10
0.5700787401574803
20
2.4476377952755906
40
0.0068897637795276
0
CIRCLE
8
BLACK
10
0.5700787401574803
20
2.3476377952755905
40
0.0068897637795276
  0
ENDSEC
  0
EOF
