  0
SECTION
  2
HEADER
  9
$ANGBASE
  50
0.0
  9
$ANGDIR
  70
1
  9
$MEASUREMENT
  70
0
  0
ENDSEC
  0
SECTION
  2
TABLES
  0
TABLE
  2
LTYPE
  70
4
  0
LTYPE
  5
40F
  2
CONTINUOUS
  70
0
  3
Solid line
  72
65
  73
0
  40
0.0
  0
LTYPE
  5
410
  2
DASHDOT
 70
0
  3
Dash Dot ____ _ ____ _
 72
65
 73
4
 40
2.0
 49
1.25
 49
-0.25
 49
0.25
 49
-0.25
  0
LTYPE
  5
411
  2
DASHED
 70
0
  3
Dashed __ __ __ __ __
 72
65
 73
2
 40
0.75
 49
0.5
 49
-0.25
  0
LTYPE
  5
43B
  2
DOTTED
 70
0
  3
Dotted .  .  .  .
 72
65
 73
2
 40
0.2
 49
0.0
 49
-0.2
  0
ENDTAB
  0
TABLE
  2
STYLE
  70
4
  0
STYLE
  2
KICAD
  70
0
  40
0
  41
1
  42
1
  50
0
  71
0
  3
isocp.shx
  0
STYLE
  2
KICADB
  70
0
  40
0
  41
1
  42
1
  50
0
  71
0
  3
isocp.shx
  0
STYLE
  2
KICADI
  70
0
  40
0
  41
1
  42
1
  50
15
  71
0
  3
isocp.shx
  0
STYLE
  2
KICADBI
  70
0
  40
0
  41
1
  42
1
  50
15
  71
0
  3
isocp.shx
  0
ENDTAB
  0
TABLE
  2
LAYER
  70
1
  0
LAYER
  2
BLACK
  70
0
  62
7
  6
CONTINUOUS
  0
ENDTAB
  0
ENDSEC
  0
SECTION
  2
ENTITIES
0
LINE
8
BLACK
6
CONTINUOUS
10
1.19714
20
0.162936
11
1.19906
21
0.161656
0
LINE
8
BLACK
6
CONTINUOUS
10
1.19906
20
0.161656
11
1.20034
21
0.15974
0
LINE
8
BLACK
6
CONTINUOUS
10
1.20034
20
0.15974
11
1.20079
21
0.15748
0
LINE
8
BLACK
6
CONTINUOUS
10
1.20079
20
0.15748
11
1.20079
21
0.145669
0
LINE
8
BLACK
6
CONTINUOUS
10
1.20079
20
0.145669
11
1.20034
21
0.143409
0
LINE
8
BLACK
6
CONTINUOUS
10
1.20034
20
0.143409
11
1.19906
21
0.141493
0
LINE
8
BLACK
6
CONTINUOUS
10
1.19906
20
0.141493
11
1.19714
21
0.140213
0
LINE
8
BLACK
6
CONTINUOUS
10
1.19714
20
0.140213
11
1.19488
21
0.139764
0
LINE
8
BLACK
6
CONTINUOUS
10
1.19488
20
0.139764
11
1.15453
21
0.139764
0
LINE
8
BLACK
6
CONTINUOUS
10
1.15453
20
0.139764
11
1.15227
21
0.140213
0
LINE
8
BLACK
6
CONTINUOUS
10
1.15227
20
0.140213
11
1.15035
21
0.141493
0
LINE
8
BLACK
6
CONTINUOUS
10
1.15035
20
0.141493
11
1.14907
21
0.143409
0
LINE
8
BLACK
6
CONTINUOUS
10
1.14907
20
0.143409
11
1.14862
21
0.145669
0
LINE
8
BLACK
6
CONTINUOUS
10
1.14862
20
0.145669
11
1.14862
21
0.15748
0
LINE
8
BLACK
6
CONTINUOUS
10
1.14862
20
0.15748
11
1.14907
21
0.15974
0
LINE
8
BLACK
6
CONTINUOUS
10
1.14907
20
0.15974
11
1.15035
21
0.161656
0
LINE
8
BLACK
6
CONTINUOUS
10
1.15035
20
0.161656
11
1.15227
21
0.162936
0
LINE
8
BLACK
6
CONTINUOUS
10
1.15227
20
0.162936
11
1.15453
21
0.163386
0
LINE
8
BLACK
6
CONTINUOUS
10
1.15453
20
0.163386
11
1.19488
21
0.163386
0
LINE
8
BLACK
6
CONTINUOUS
10
1.19488
20
0.163386
11
1.19714
21
0.162936
0
LINE
8
BLACK
6
CONTINUOUS
10
1.10757
20
0.162936
11
1.10949
21
0.161656
0
LINE
8
BLACK
6
CONTINUOUS
10
1.10949
20
0.161656
11
1.11077
21
0.15974
0
LINE
8
BLACK
6
CONTINUOUS
10
1.11077
20
0.15974
11
1.11122
21
0.15748
0
LINE
8
BLACK
6
CONTINUOUS
10
1.11122
20
0.15748
11
1.11122
21
0.145669
0
LINE
8
BLACK
6
CONTINUOUS
10
1.11122
20
0.145669
11
1.11077
21
0.143409
0
LINE
8
BLACK
6
CONTINUOUS
10
1.11077
20
0.143409
11
1.10949
21
0.141493
0
LINE
8
BLACK
6
CONTINUOUS
10
1.10949
20
0.141493
11
1.10757
21
0.140213
0
LINE
8
BLACK
6
CONTINUOUS
10
1.10757
20
0.140213
11
1.10531
21
0.139764
0
LINE
8
BLACK
6
CONTINUOUS
10
1.10531
20
0.139764
11
1.06496
21
0.139764
0
LINE
8
BLACK
6
CONTINUOUS
10
1.06496
20
0.139764
11
1.0627
21
0.140213
0
LINE
8
BLACK
6
CONTINUOUS
10
1.0627
20
0.140213
11
1.06078
21
0.141493
0
LINE
8
BLACK
6
CONTINUOUS
10
1.06078
20
0.141493
11
1.0595
21
0.143409
0
LINE
8
BLACK
6
CONTINUOUS
10
1.0595
20
0.143409
11
1.05906
21
0.145669
0
LINE
8
BLACK
6
CONTINUOUS
10
1.05906
20
0.145669
11
1.05906
21
0.15748
0
LINE
8
BLACK
6
CONTINUOUS
10
1.05906
20
0.15748
11
1.0595
21
0.15974
0
LINE
8
BLACK
6
CONTINUOUS
10
1.0595
20
0.15974
11
1.06078
21
0.161656
0
LINE
8
BLACK
6
CONTINUOUS
10
1.06078
20
0.161656
11
1.0627
21
0.162936
0
LINE
8
BLACK
6
CONTINUOUS
10
1.0627
20
0.162936
11
1.06496
21
0.163386
0
LINE
8
BLACK
6
CONTINUOUS
10
1.06496
20
0.163386
11
1.10531
21
0.163386
0
LINE
8
BLACK
6
CONTINUOUS
10
1.10531
20
0.163386
11
1.10757
21
0.162936
0
LINE
8
BLACK
6
CONTINUOUS
10
1.19714
20
0.200338
11
1.19906
21
0.199058
0
LINE
8
BLACK
6
CONTINUOUS
10
1.19906
20
0.199058
11
1.20034
21
0.197142
0
LINE
8
BLACK
6
CONTINUOUS
10
1.20034
20
0.197142
11
1.20079
21
0.194882
0
LINE
8
BLACK
6
CONTINUOUS
10
1.20079
20
0.194882
11
1.20079
21
0.183071
0
LINE
8
BLACK
6
CONTINUOUS
10
1.20079
20
0.183071
11
1.20034
21
0.180811
0
LINE
8
BLACK
6
CONTINUOUS
10
1.20034
20
0.180811
11
1.19906
21
0.178895
0
LINE
8
BLACK
6
CONTINUOUS
10
1.19906
20
0.178895
11
1.19714
21
0.177615
0
LINE
8
BLACK
6
CONTINUOUS
10
1.19714
20
0.177615
11
1.19488
21
0.177165
0
LINE
8
BLACK
6
CONTINUOUS
10
1.19488
20
0.177165
11
1.15453
21
0.177165
0
LINE
8
BLACK
6
CONTINUOUS
10
1.15453
20
0.177165
11
1.15227
21
0.177615
0
LINE
8
BLACK
6
CONTINUOUS
10
1.15227
20
0.177615
11
1.15035
21
0.178895
0
LINE
8
BLACK
6
CONTINUOUS
10
1.15035
20
0.178895
11
1.14907
21
0.180811
0
LINE
8
BLACK
6
CONTINUOUS
10
1.14907
20
0.180811
11
1.14862
21
0.183071
0
LINE
8
BLACK
6
CONTINUOUS
10
1.14862
20
0.183071
11
1.14862
21
0.194882
0
LINE
8
BLACK
6
CONTINUOUS
10
1.14862
20
0.194882
11
1.14907
21
0.197142
0
LINE
8
BLACK
6
CONTINUOUS
10
1.14907
20
0.197142
11
1.15035
21
0.199058
0
LINE
8
BLACK
6
CONTINUOUS
10
1.15035
20
0.199058
11
1.15227
21
0.200338
0
LINE
8
BLACK
6
CONTINUOUS
10
1.15227
20
0.200338
11
1.15453
21
0.200787
0
LINE
8
BLACK
6
CONTINUOUS
10
1.15453
20
0.200787
11
1.19488
21
0.200787
0
LINE
8
BLACK
6
CONTINUOUS
10
1.19488
20
0.200787
11
1.19714
21
0.200338
0
LINE
8
BLACK
6
CONTINUOUS
10
1.19714
20
0.237739
11
1.19906
21
0.236459
0
LINE
8
BLACK
6
CONTINUOUS
10
1.19906
20
0.236459
11
1.20034
21
0.234543
0
LINE
8
BLACK
6
CONTINUOUS
10
1.20034
20
0.234543
11
1.20079
21
0.232283
0
LINE
8
BLACK
6
CONTINUOUS
10
1.20079
20
0.232283
11
1.20079
21
0.220472
0
LINE
8
BLACK
6
CONTINUOUS
10
1.20079
20
0.220472
11
1.20034
21
0.218212
0
LINE
8
BLACK
6
CONTINUOUS
10
1.20034
20
0.218212
11
1.19906
21
0.216297
0
LINE
8
BLACK
6
CONTINUOUS
10
1.19906
20
0.216297
11
1.19714
21
0.215016
0
LINE
8
BLACK
6
CONTINUOUS
10
1.19714
20
0.215016
11
1.19488
21
0.214567
0
LINE
8
BLACK
6
CONTINUOUS
10
1.19488
20
0.214567
11
1.15453
21
0.214567
0
LINE
8
BLACK
6
CONTINUOUS
10
1.15453
20
0.214567
11
1.15227
21
0.215016
0
LINE
8
BLACK
6
CONTINUOUS
10
1.15227
20
0.215016
11
1.15035
21
0.216297
0
LINE
8
BLACK
6
CONTINUOUS
10
1.15035
20
0.216297
11
1.14907
21
0.218212
0
LINE
8
BLACK
6
CONTINUOUS
10
1.14907
20
0.218212
11
1.14862
21
0.220472
0
LINE
8
BLACK
6
CONTINUOUS
10
1.14862
20
0.220472
11
1.14862
21
0.232283
0
LINE
8
BLACK
6
CONTINUOUS
10
1.14862
20
0.232283
11
1.14907
21
0.234543
0
LINE
8
BLACK
6
CONTINUOUS
10
1.14907
20
0.234543
11
1.15035
21
0.236459
0
LINE
8
BLACK
6
CONTINUOUS
10
1.15035
20
0.236459
11
1.15227
21
0.237739
0
LINE
8
BLACK
6
CONTINUOUS
10
1.15227
20
0.237739
11
1.15453
21
0.238189
0
LINE
8
BLACK
6
CONTINUOUS
10
1.15453
20
0.238189
11
1.19488
21
0.238189
0
LINE
8
BLACK
6
CONTINUOUS
10
1.19488
20
0.238189
11
1.19714
21
0.237739
0
LINE
8
BLACK
6
CONTINUOUS
10
1.10757
20
0.237739
11
1.10949
21
0.236459
0
LINE
8
BLACK
6
CONTINUOUS
10
1.10949
20
0.236459
11
1.11077
21
0.234543
0
LINE
8
BLACK
6
CONTINUOUS
10
1.11077
20
0.234543
11
1.11122
21
0.232283
0
LINE
8
BLACK
6
CONTINUOUS
10
1.11122
20
0.232283
11
1.11122
21
0.220472
0
LINE
8
BLACK
6
CONTINUOUS
10
1.11122
20
0.220472
11
1.11077
21
0.218212
0
LINE
8
BLACK
6
CONTINUOUS
10
1.11077
20
0.218212
11
1.10949
21
0.216297
0
LINE
8
BLACK
6
CONTINUOUS
10
1.10949
20
0.216297
11
1.10757
21
0.215016
0
LINE
8
BLACK
6
CONTINUOUS
10
1.10757
20
0.215016
11
1.10531
21
0.214567
0
LINE
8
BLACK
6
CONTINUOUS
10
1.10531
20
0.214567
11
1.06496
21
0.214567
0
LINE
8
BLACK
6
CONTINUOUS
10
1.06496
20
0.214567
11
1.0627
21
0.215016
0
LINE
8
BLACK
6
CONTINUOUS
10
1.0627
20
0.215016
11
1.06078
21
0.216297
0
LINE
8
BLACK
6
CONTINUOUS
10
1.06078
20
0.216297
11
1.0595
21
0.218212
0
LINE
8
BLACK
6
CONTINUOUS
10
1.0595
20
0.218212
11
1.05906
21
0.220472
0
LINE
8
BLACK
6
CONTINUOUS
10
1.05906
20
0.220472
11
1.05906
21
0.232283
0
LINE
8
BLACK
6
CONTINUOUS
10
1.05906
20
0.232283
11
1.0595
21
0.234543
0
LINE
8
BLACK
6
CONTINUOUS
10
1.0595
20
0.234543
11
1.06078
21
0.236459
0
LINE
8
BLACK
6
CONTINUOUS
10
1.06078
20
0.236459
11
1.0627
21
0.237739
0
LINE
8
BLACK
6
CONTINUOUS
10
1.0627
20
0.237739
11
1.06496
21
0.238189
0
LINE
8
BLACK
6
CONTINUOUS
10
1.06496
20
0.238189
11
1.10531
21
0.238189
0
LINE
8
BLACK
6
CONTINUOUS
10
1.10531
20
0.238189
11
1.10757
21
0.237739
0
LINE
8
BLACK
6
CONTINUOUS
10
1.39764
20
0.245079
11
1.35433
21
0.245079
0
LINE
8
BLACK
6
CONTINUOUS
10
1.35433
20
0.245079
11
1.35433
21
0.260827
0
LINE
8
BLACK
6
CONTINUOUS
10
1.35433
20
0.260827
11
1.39764
21
0.260827
0
LINE
8
BLACK
6
CONTINUOUS
10
1.39764
20
0.260827
11
1.39764
21
0.245079
0
LINE
8
BLACK
6
CONTINUOUS
10
1.56693
20
0.245079
11
1.52362
21
0.245079
0
LINE
8
BLACK
6
CONTINUOUS
10
1.52362
20
0.245079
11
1.52362
21
0.260827
0
LINE
8
BLACK
6
CONTINUOUS
10
1.52362
20
0.260827
11
1.56693
21
0.260827
0
LINE
8
BLACK
6
CONTINUOUS
10
1.56693
20
0.260827
11
1.56693
21
0.245079
0
LINE
8
BLACK
6
CONTINUOUS
10
1.39764
20
0.270669
11
1.35433
21
0.270669
0
LINE
8
BLACK
6
CONTINUOUS
10
1.35433
20
0.270669
11
1.35433
21
0.286417
0
LINE
8
BLACK
6
CONTINUOUS
10
1.35433
20
0.286417
11
1.39764
21
0.286417
0
LINE
8
BLACK
6
CONTINUOUS
10
1.39764
20
0.286417
11
1.39764
21
0.270669
0
LINE
8
BLACK
6
CONTINUOUS
10
1.56693
20
0.270669
11
1.52362
21
0.270669
0
LINE
8
BLACK
6
CONTINUOUS
10
1.52362
20
0.270669
11
1.52362
21
0.286417
0
LINE
8
BLACK
6
CONTINUOUS
10
1.52362
20
0.286417
11
1.56693
21
0.286417
0
LINE
8
BLACK
6
CONTINUOUS
10
1.56693
20
0.286417
11
1.56693
21
0.270669
0
LINE
8
BLACK
6
CONTINUOUS
10
1.39764
20
0.29626
11
1.35433
21
0.29626
0
LINE
8
BLACK
6
CONTINUOUS
10
1.35433
20
0.29626
11
1.35433
21
0.312008
0
LINE
8
BLACK
6
CONTINUOUS
10
1.35433
20
0.312008
11
1.39764
21
0.312008
0
LINE
8
BLACK
6
CONTINUOUS
10
1.39764
20
0.312008
11
1.39764
21
0.29626
0
LINE
8
BLACK
6
CONTINUOUS
10
1.56693
20
0.29626
11
1.52362
21
0.29626
0
LINE
8
BLACK
6
CONTINUOUS
10
1.52362
20
0.29626
11
1.52362
21
0.312008
0
LINE
8
BLACK
6
CONTINUOUS
10
1.52362
20
0.312008
11
1.56693
21
0.312008
0
LINE
8
BLACK
6
CONTINUOUS
10
1.56693
20
0.312008
11
1.56693
21
0.29626
0
LINE
8
BLACK
6
CONTINUOUS
10
1.56693
20
0.32185
11
1.52362
21
0.32185
0
LINE
8
BLACK
6
CONTINUOUS
10
1.52362
20
0.32185
11
1.52362
21
0.337598
0
LINE
8
BLACK
6
CONTINUOUS
10
1.52362
20
0.337598
11
1.56693
21
0.337598
0
LINE
8
BLACK
6
CONTINUOUS
10
1.56693
20
0.337598
11
1.56693
21
0.32185
0
LINE
8
BLACK
6
CONTINUOUS
10
1.39764
20
0.32185
11
1.35433
21
0.32185
0
LINE
8
BLACK
6
CONTINUOUS
10
1.35433
20
0.32185
11
1.35433
21
0.337598
0
LINE
8
BLACK
6
CONTINUOUS
10
1.35433
20
0.337598
11
1.39764
21
0.337598
0
LINE
8
BLACK
6
CONTINUOUS
10
1.39764
20
0.337598
11
1.39764
21
0.32185
0
LINE
8
BLACK
6
CONTINUOUS
10
1.22559
20
0.805118
11
1.12008
21
0.805118
0
LINE
8
BLACK
6
CONTINUOUS
10
1.12008
20
0.805118
11
1.12008
21
0.94685
0
LINE
8
BLACK
6
CONTINUOUS
10
1.12008
20
0.94685
11
1.22559
21
0.94685
0
LINE
8
BLACK
6
CONTINUOUS
10
1.22559
20
0.94685
11
1.22559
21
0.805118
0
LINE
8
BLACK
6
CONTINUOUS
10
0.872047
20
0.805118
11
0.766535
21
0.805118
0
LINE
8
BLACK
6
CONTINUOUS
10
0.766535
20
0.805118
11
0.766535
21
0.94685
0
LINE
8
BLACK
6
CONTINUOUS
10
0.766535
20
0.94685
11
0.872047
21
0.94685
0
LINE
8
BLACK
6
CONTINUOUS
10
0.872047
20
0.94685
11
0.872047
21
0.805118
0
LINE
8
BLACK
6
CONTINUOUS
10
1.06713
20
0.94685
11
1.04311
21
0.94685
0
LINE
8
BLACK
6
CONTINUOUS
10
1.04311
20
0.94685
11
1.04311
21
1.02559
0
LINE
8
BLACK
6
CONTINUOUS
10
1.04311
20
1.02559
11
1.06713
21
1.02559
0
LINE
8
BLACK
6
CONTINUOUS
10
1.06713
20
1.02559
11
1.06713
21
0.94685
0
LINE
8
BLACK
6
CONTINUOUS
10
1.02776
20
0.94685
11
1.00374
21
0.94685
0
LINE
8
BLACK
6
CONTINUOUS
10
1.00374
20
0.94685
11
1.00374
21
1.02559
0
LINE
8
BLACK
6
CONTINUOUS
10
1.00374
20
1.02559
11
1.02776
21
1.02559
0
LINE
8
BLACK
6
CONTINUOUS
10
1.02776
20
1.02559
11
1.02776
21
0.94685
0
LINE
8
BLACK
6
CONTINUOUS
10
0.988386
20
0.94685
11
0.96437
21
0.94685
0
LINE
8
BLACK
6
CONTINUOUS
10
0.96437
20
0.94685
11
0.96437
21
1.02559
0
LINE
8
BLACK
6
CONTINUOUS
10
0.96437
20
1.02559
11
0.988386
21
1.02559
0
LINE
8
BLACK
6
CONTINUOUS
10
0.988386
20
1.02559
11
0.988386
21
0.94685
0
LINE
8
BLACK
6
CONTINUOUS
10
0.949016
20
0.94685
11
0.925
21
0.94685
0
LINE
8
BLACK
6
CONTINUOUS
10
0.925
20
0.94685
11
0.925
21
1.02559
0
LINE
8
BLACK
6
CONTINUOUS
10
0.925
20
1.02559
11
0.949016
21
1.02559
0
LINE
8
BLACK
6
CONTINUOUS
10
0.949016
20
1.02559
11
0.949016
21
0.94685
0
LINE
8
BLACK
6
CONTINUOUS
10
0.545276
20
1.02953
11
0.452756
21
1.02953
0
LINE
8
BLACK
6
CONTINUOUS
10
0.452756
20
1.02953
11
0.452756
21
1.23031
0
LINE
8
BLACK
6
CONTINUOUS
10
0.452756
20
1.23031
11
0.545276
21
1.23031
0
LINE
8
BLACK
6
CONTINUOUS
10
0.545276
20
1.23031
11
0.545276
21
1.02953
0
LINE
8
BLACK
6
CONTINUOUS
10
0.38189
20
1.02953
11
0.28937
21
1.02953
0
LINE
8
BLACK
6
CONTINUOUS
10
0.28937
20
1.02953
11
0.28937
21
1.23031
0
LINE
8
BLACK
6
CONTINUOUS
10
0.28937
20
1.23031
11
0.38189
21
1.23031
0
LINE
8
BLACK
6
CONTINUOUS
10
0.38189
20
1.23031
11
0.38189
21
1.02953
0
LINE
8
BLACK
6
CONTINUOUS
10
1.48084
20
1.0558
11
1.48211
21
1.05495
0
LINE
8
BLACK
6
CONTINUOUS
10
1.48211
20
1.05495
11
1.48297
21
1.05367
0
LINE
8
BLACK
6
CONTINUOUS
10
1.48297
20
1.05367
11
1.48327
21
1.05217
0
LINE
8
BLACK
6
CONTINUOUS
10
1.48327
20
1.05217
11
1.48327
21
1.04429
0
LINE
8
BLACK
6
CONTINUOUS
10
1.48327
20
1.04429
11
1.48297
21
1.04278
0
LINE
8
BLACK
6
CONTINUOUS
10
1.48297
20
1.04278
11
1.48211
21
1.04151
0
LINE
8
BLACK
6
CONTINUOUS
10
1.48211
20
1.04151
11
1.48084
21
1.04065
0
LINE
8
BLACK
6
CONTINUOUS
10
1.48084
20
1.04065
11
1.47933
21
1.04035
0
LINE
8
BLACK
6
CONTINUOUS
10
1.47933
20
1.04035
11
1.42913
21
1.04035
0
LINE
8
BLACK
6
CONTINUOUS
10
1.42913
20
1.04035
11
1.42763
21
1.04065
0
LINE
8
BLACK
6
CONTINUOUS
10
1.42763
20
1.04065
11
1.42635
21
1.04151
0
LINE
8
BLACK
6
CONTINUOUS
10
1.42635
20
1.04151
11
1.4255
21
1.04278
0
LINE
8
BLACK
6
CONTINUOUS
10
1.4255
20
1.04278
11
1.4252
21
1.04429
0
LINE
8
BLACK
6
CONTINUOUS
10
1.4252
20
1.04429
11
1.4252
21
1.05217
0
LINE
8
BLACK
6
CONTINUOUS
10
1.4252
20
1.05217
11
1.4255
21
1.05367
0
LINE
8
BLACK
6
CONTINUOUS
10
1.4255
20
1.05367
11
1.42635
21
1.05495
0
LINE
8
BLACK
6
CONTINUOUS
10
1.42635
20
1.05495
11
1.42763
21
1.0558
0
LINE
8
BLACK
6
CONTINUOUS
10
1.42763
20
1.0558
11
1.42913
21
1.0561
0
LINE
8
BLACK
6
CONTINUOUS
10
1.42913
20
1.0561
11
1.47933
21
1.0561
0
LINE
8
BLACK
6
CONTINUOUS
10
1.47933
20
1.0561
11
1.48084
21
1.0558
0
LINE
8
BLACK
6
CONTINUOUS
10
1.70623
20
1.0558
11
1.70751
21
1.05495
0
LINE
8
BLACK
6
CONTINUOUS
10
1.70751
20
1.05495
11
1.70836
21
1.05367
0
LINE
8
BLACK
6
CONTINUOUS
10
1.70836
20
1.05367
11
1.70866
21
1.05217
0
LINE
8
BLACK
6
CONTINUOUS
10
1.70866
20
1.05217
11
1.70866
21
1.04429
0
LINE
8
BLACK
6
CONTINUOUS
10
1.70866
20
1.04429
11
1.70836
21
1.04278
0
LINE
8
BLACK
6
CONTINUOUS
10
1.70836
20
1.04278
11
1.70751
21
1.04151
0
LINE
8
BLACK
6
CONTINUOUS
10
1.70751
20
1.04151
11
1.70623
21
1.04065
0
LINE
8
BLACK
6
CONTINUOUS
10
1.70623
20
1.04065
11
1.70472
21
1.04035
0
LINE
8
BLACK
6
CONTINUOUS
10
1.70472
20
1.04035
11
1.65453
21
1.04035
0
LINE
8
BLACK
6
CONTINUOUS
10
1.65453
20
1.04035
11
1.65302
21
1.04065
0
LINE
8
BLACK
6
CONTINUOUS
10
1.65302
20
1.04065
11
1.65174
21
1.04151
0
LINE
8
BLACK
6
CONTINUOUS
10
1.65174
20
1.04151
11
1.65089
21
1.04278
0
LINE
8
BLACK
6
CONTINUOUS
10
1.65089
20
1.04278
11
1.65059
21
1.04429
0
LINE
8
BLACK
6
CONTINUOUS
10
1.65059
20
1.04429
11
1.65059
21
1.05217
0
LINE
8
BLACK
6
CONTINUOUS
10
1.65059
20
1.05217
11
1.65089
21
1.05367
0
LINE
8
BLACK
6
CONTINUOUS
10
1.65089
20
1.05367
11
1.65174
21
1.05495
0
LINE
8
BLACK
6
CONTINUOUS
10
1.65174
20
1.05495
11
1.65302
21
1.0558
0
LINE
8
BLACK
6
CONTINUOUS
10
1.65302
20
1.0558
11
1.65453
21
1.0561
0
LINE
8
BLACK
6
CONTINUOUS
10
1.65453
20
1.0561
11
1.70472
21
1.0561
0
LINE
8
BLACK
6
CONTINUOUS
10
1.70472
20
1.0561
11
1.70623
21
1.0558
0
LINE
8
BLACK
6
CONTINUOUS
10
1.70623
20
1.08139
11
1.70751
21
1.08054
0
LINE
8
BLACK
6
CONTINUOUS
10
1.70751
20
1.08054
11
1.70836
21
1.07926
0
LINE
8
BLACK
6
CONTINUOUS
10
1.70836
20
1.07926
11
1.70866
21
1.07776
0
LINE
8
BLACK
6
CONTINUOUS
10
1.70866
20
1.07776
11
1.70866
21
1.06988
0
LINE
8
BLACK
6
CONTINUOUS
10
1.70866
20
1.06988
11
1.70836
21
1.06838
0
LINE
8
BLACK
6
CONTINUOUS
10
1.70836
20
1.06838
11
1.70751
21
1.0671
0
LINE
8
BLACK
6
CONTINUOUS
10
1.70751
20
1.0671
11
1.70623
21
1.06624
0
LINE
8
BLACK
6
CONTINUOUS
10
1.70623
20
1.06624
11
1.70472
21
1.06594
0
LINE
8
BLACK
6
CONTINUOUS
10
1.70472
20
1.06594
11
1.65453
21
1.06594
0
LINE
8
BLACK
6
CONTINUOUS
10
1.65453
20
1.06594
11
1.65302
21
1.06624
0
LINE
8
BLACK
6
CONTINUOUS
10
1.65302
20
1.06624
11
1.65174
21
1.0671
0
LINE
8
BLACK
6
CONTINUOUS
10
1.65174
20
1.0671
11
1.65089
21
1.06838
0
LINE
8
BLACK
6
CONTINUOUS
10
1.65089
20
1.06838
11
1.65059
21
1.06988
0
LINE
8
BLACK
6
CONTINUOUS
10
1.65059
20
1.06988
11
1.65059
21
1.07776
0
LINE
8
BLACK
6
CONTINUOUS
10
1.65059
20
1.07776
11
1.65089
21
1.07926
0
LINE
8
BLACK
6
CONTINUOUS
10
1.65089
20
1.07926
11
1.65174
21
1.08054
0
LINE
8
BLACK
6
CONTINUOUS
10
1.65174
20
1.08054
11
1.65302
21
1.08139
0
LINE
8
BLACK
6
CONTINUOUS
10
1.65302
20
1.08139
11
1.65453
21
1.08169
0
LINE
8
BLACK
6
CONTINUOUS
10
1.65453
20
1.08169
11
1.70472
21
1.08169
0
LINE
8
BLACK
6
CONTINUOUS
10
1.70472
20
1.08169
11
1.70623
21
1.08139
0
LINE
8
BLACK
6
CONTINUOUS
10
1.48084
20
1.08139
11
1.48211
21
1.08054
0
LINE
8
BLACK
6
CONTINUOUS
10
1.48211
20
1.08054
11
1.48297
21
1.07926
0
LINE
8
BLACK
6
CONTINUOUS
10
1.48297
20
1.07926
11
1.48327
21
1.07776
0
LINE
8
BLACK
6
CONTINUOUS
10
1.48327
20
1.07776
11
1.48327
21
1.06988
0
LINE
8
BLACK
6
CONTINUOUS
10
1.48327
20
1.06988
11
1.48297
21
1.06838
0
LINE
8
BLACK
6
CONTINUOUS
10
1.48297
20
1.06838
11
1.48211
21
1.0671
0
LINE
8
BLACK
6
CONTINUOUS
10
1.48211
20
1.0671
11
1.48084
21
1.06624
0
LINE
8
BLACK
6
CONTINUOUS
10
1.48084
20
1.06624
11
1.47933
21
1.06594
0
LINE
8
BLACK
6
CONTINUOUS
10
1.47933
20
1.06594
11
1.42913
21
1.06594
0
LINE
8
BLACK
6
CONTINUOUS
10
1.42913
20
1.06594
11
1.42763
21
1.06624
0
LINE
8
BLACK
6
CONTINUOUS
10
1.42763
20
1.06624
11
1.42635
21
1.0671
0
LINE
8
BLACK
6
CONTINUOUS
10
1.42635
20
1.0671
11
1.4255
21
1.06838
0
LINE
8
BLACK
6
CONTINUOUS
10
1.4255
20
1.06838
11
1.4252
21
1.06988
0
LINE
8
BLACK
6
CONTINUOUS
10
1.4252
20
1.06988
11
1.4252
21
1.07776
0
LINE
8
BLACK
6
CONTINUOUS
10
1.4252
20
1.07776
11
1.4255
21
1.07926
0
LINE
8
BLACK
6
CONTINUOUS
10
1.4255
20
1.07926
11
1.42635
21
1.08054
0
LINE
8
BLACK
6
CONTINUOUS
10
1.42635
20
1.08054
11
1.42763
21
1.08139
0
LINE
8
BLACK
6
CONTINUOUS
10
1.42763
20
1.08139
11
1.42913
21
1.08169
0
LINE
8
BLACK
6
CONTINUOUS
10
1.42913
20
1.08169
11
1.47933
21
1.08169
0
LINE
8
BLACK
6
CONTINUOUS
10
1.47933
20
1.08169
11
1.48084
21
1.08139
0
LINE
8
BLACK
6
CONTINUOUS
10
0.153543
20
1.0689
11
0.0826772
21
1.0689
0
LINE
8
BLACK
6
CONTINUOUS
10
0.0826772
20
1.0689
11
0.0826772
21
1.16732
0
LINE
8
BLACK
6
CONTINUOUS
10
0.0826772
20
1.16732
11
0.153543
21
1.16732
0
LINE
8
BLACK
6
CONTINUOUS
10
0.153543
20
1.16732
11
0.153543
21
1.0689
0
LINE
8
BLACK
6
CONTINUOUS
10
1.70623
20
1.10698
11
1.70751
21
1.10613
0
LINE
8
BLACK
6
CONTINUOUS
10
1.70751
20
1.10613
11
1.70836
21
1.10485
0
LINE
8
BLACK
6
CONTINUOUS
10
1.70836
20
1.10485
11
1.70866
21
1.10335
0
LINE
8
BLACK
6
CONTINUOUS
10
1.70866
20
1.10335
11
1.70866
21
1.09547
0
LINE
8
BLACK
6
CONTINUOUS
10
1.70866
20
1.09547
11
1.70836
21
1.09397
0
LINE
8
BLACK
6
CONTINUOUS
10
1.70836
20
1.09397
11
1.70751
21
1.09269
0
LINE
8
BLACK
6
CONTINUOUS
10
1.70751
20
1.09269
11
1.70623
21
1.09184
0
LINE
8
BLACK
6
CONTINUOUS
10
1.70623
20
1.09184
11
1.70472
21
1.09154
0
LINE
8
BLACK
6
CONTINUOUS
10
1.70472
20
1.09154
11
1.65453
21
1.09154
0
LINE
8
BLACK
6
CONTINUOUS
10
1.65453
20
1.09154
11
1.65302
21
1.09184
0
LINE
8
BLACK
6
CONTINUOUS
10
1.65302
20
1.09184
11
1.65174
21
1.09269
0
LINE
8
BLACK
6
CONTINUOUS
10
1.65174
20
1.09269
11
1.65089
21
1.09397
0
LINE
8
BLACK
6
CONTINUOUS
10
1.65089
20
1.09397
11
1.65059
21
1.09547
0
LINE
8
BLACK
6
CONTINUOUS
10
1.65059
20
1.09547
11
1.65059
21
1.10335
0
LINE
8
BLACK
6
CONTINUOUS
10
1.65059
20
1.10335
11
1.65089
21
1.10485
0
LINE
8
BLACK
6
CONTINUOUS
10
1.65089
20
1.10485
11
1.65174
21
1.10613
0
LINE
8
BLACK
6
CONTINUOUS
10
1.65174
20
1.10613
11
1.65302
21
1.10698
0
LINE
8
BLACK
6
CONTINUOUS
10
1.65302
20
1.10698
11
1.65453
21
1.10728
0
LINE
8
BLACK
6
CONTINUOUS
10
1.65453
20
1.10728
11
1.70472
21
1.10728
0
LINE
8
BLACK
6
CONTINUOUS
10
1.70472
20
1.10728
11
1.70623
21
1.10698
0
LINE
8
BLACK
6
CONTINUOUS
10
1.48084
20
1.10698
11
1.48211
21
1.10613
0
LINE
8
BLACK
6
CONTINUOUS
10
1.48211
20
1.10613
11
1.48297
21
1.10485
0
LINE
8
BLACK
6
CONTINUOUS
10
1.48297
20
1.10485
11
1.48327
21
1.10335
0
LINE
8
BLACK
6
CONTINUOUS
10
1.48327
20
1.10335
11
1.48327
21
1.09547
0
LINE
8
BLACK
6
CONTINUOUS
10
1.48327
20
1.09547
11
1.48297
21
1.09397
0
LINE
8
BLACK
6
CONTINUOUS
10
1.48297
20
1.09397
11
1.48211
21
1.09269
0
LINE
8
BLACK
6
CONTINUOUS
10
1.48211
20
1.09269
11
1.48084
21
1.09184
0
LINE
8
BLACK
6
CONTINUOUS
10
1.48084
20
1.09184
11
1.47933
21
1.09154
0
LINE
8
BLACK
6
CONTINUOUS
10
1.47933
20
1.09154
11
1.42913
21
1.09154
0
LINE
8
BLACK
6
CONTINUOUS
10
1.42913
20
1.09154
11
1.42763
21
1.09184
0
LINE
8
BLACK
6
CONTINUOUS
10
1.42763
20
1.09184
11
1.42635
21
1.09269
0
LINE
8
BLACK
6
CONTINUOUS
10
1.42635
20
1.09269
11
1.4255
21
1.09397
0
LINE
8
BLACK
6
CONTINUOUS
10
1.4255
20
1.09397
11
1.4252
21
1.09547
0
LINE
8
BLACK
6
CONTINUOUS
10
1.4252
20
1.09547
11
1.4252
21
1.10335
0
LINE
8
BLACK
6
CONTINUOUS
10
1.4252
20
1.10335
11
1.4255
21
1.10485
0
LINE
8
BLACK
6
CONTINUOUS
10
1.4255
20
1.10485
11
1.42635
21
1.10613
0
LINE
8
BLACK
6
CONTINUOUS
10
1.42635
20
1.10613
11
1.42763
21
1.10698
0
LINE
8
BLACK
6
CONTINUOUS
10
1.42763
20
1.10698
11
1.42913
21
1.10728
0
LINE
8
BLACK
6
CONTINUOUS
10
1.42913
20
1.10728
11
1.47933
21
1.10728
0
LINE
8
BLACK
6
CONTINUOUS
10
1.47933
20
1.10728
11
1.48084
21
1.10698
0
LINE
8
BLACK
6
CONTINUOUS
10
1.70623
20
1.13257
11
1.70751
21
1.13172
0
LINE
8
BLACK
6
CONTINUOUS
10
1.70751
20
1.13172
11
1.70836
21
1.13044
0
LINE
8
BLACK
6
CONTINUOUS
10
1.70836
20
1.13044
11
1.70866
21
1.12894
0
LINE
8
BLACK
6
CONTINUOUS
10
1.70866
20
1.12894
11
1.70866
21
1.12106
0
LINE
8
BLACK
6
CONTINUOUS
10
1.70866
20
1.12106
11
1.70836
21
1.11956
0
LINE
8
BLACK
6
CONTINUOUS
10
1.70836
20
1.11956
11
1.70751
21
1.11828
0
LINE
8
BLACK
6
CONTINUOUS
10
1.70751
20
1.11828
11
1.70623
21
1.11743
0
LINE
8
BLACK
6
CONTINUOUS
10
1.70623
20
1.11743
11
1.70472
21
1.11713
0
LINE
8
BLACK
6
CONTINUOUS
10
1.70472
20
1.11713
11
1.65453
21
1.11713
0
LINE
8
BLACK
6
CONTINUOUS
10
1.65453
20
1.11713
11
1.65302
21
1.11743
0
LINE
8
BLACK
6
CONTINUOUS
10
1.65302
20
1.11743
11
1.65174
21
1.11828
0
LINE
8
BLACK
6
CONTINUOUS
10
1.65174
20
1.11828
11
1.65089
21
1.11956
0
LINE
8
BLACK
6
CONTINUOUS
10
1.65089
20
1.11956
11
1.65059
21
1.12106
0
LINE
8
BLACK
6
CONTINUOUS
10
1.65059
20
1.12106
11
1.65059
21
1.12894
0
LINE
8
BLACK
6
CONTINUOUS
10
1.65059
20
1.12894
11
1.65089
21
1.13044
0
LINE
8
BLACK
6
CONTINUOUS
10
1.65089
20
1.13044
11
1.65174
21
1.13172
0
LINE
8
BLACK
6
CONTINUOUS
10
1.65174
20
1.13172
11
1.65302
21
1.13257
0
LINE
8
BLACK
6
CONTINUOUS
10
1.65302
20
1.13257
11
1.65453
21
1.13287
0
LINE
8
BLACK
6
CONTINUOUS
10
1.65453
20
1.13287
11
1.70472
21
1.13287
0
LINE
8
BLACK
6
CONTINUOUS
10
1.70472
20
1.13287
11
1.70623
21
1.13257
0
LINE
8
BLACK
6
CONTINUOUS
10
1.48084
20
1.13257
11
1.48211
21
1.13172
0
LINE
8
BLACK
6
CONTINUOUS
10
1.48211
20
1.13172
11
1.48297
21
1.13044
0
LINE
8
BLACK
6
CONTINUOUS
10
1.48297
20
1.13044
11
1.48327
21
1.12894
0
LINE
8
BLACK
6
CONTINUOUS
10
1.48327
20
1.12894
11
1.48327
21
1.12106
0
LINE
8
BLACK
6
CONTINUOUS
10
1.48327
20
1.12106
11
1.48297
21
1.11956
0
LINE
8
BLACK
6
CONTINUOUS
10
1.48297
20
1.11956
11
1.48211
21
1.11828
0
LINE
8
BLACK
6
CONTINUOUS
10
1.48211
20
1.11828
11
1.48084
21
1.11743
0
LINE
8
BLACK
6
CONTINUOUS
10
1.48084
20
1.11743
11
1.47933
21
1.11713
0
LINE
8
BLACK
6
CONTINUOUS
10
1.47933
20
1.11713
11
1.42913
21
1.11713
0
LINE
8
BLACK
6
CONTINUOUS
10
1.42913
20
1.11713
11
1.42763
21
1.11743
0
LINE
8
BLACK
6
CONTINUOUS
10
1.42763
20
1.11743
11
1.42635
21
1.11828
0
LINE
8
BLACK
6
CONTINUOUS
10
1.42635
20
1.11828
11
1.4255
21
1.11956
0
LINE
8
BLACK
6
CONTINUOUS
10
1.4255
20
1.11956
11
1.4252
21
1.12106
0
LINE
8
BLACK
6
CONTINUOUS
10
1.4252
20
1.12106
11
1.4252
21
1.12894
0
LINE
8
BLACK
6
CONTINUOUS
10
1.4252
20
1.12894
11
1.4255
21
1.13044
0
LINE
8
BLACK
6
CONTINUOUS
10
1.4255
20
1.13044
11
1.42635
21
1.13172
0
LINE
8
BLACK
6
CONTINUOUS
10
1.42635
20
1.13172
11
1.42763
21
1.13257
0
LINE
8
BLACK
6
CONTINUOUS
10
1.42763
20
1.13257
11
1.42913
21
1.13287
0
LINE
8
BLACK
6
CONTINUOUS
10
1.42913
20
1.13287
11
1.47933
21
1.13287
0
LINE
8
BLACK
6
CONTINUOUS
10
1.47933
20
1.13287
11
1.48084
21
1.13257
0
LINE
8
BLACK
6
CONTINUOUS
10
0.631871
20
1.17201
11
0.634985
21
1.16993
0
LINE
8
BLACK
6
CONTINUOUS
10
0.634985
20
1.16993
11
0.637065
21
1.16681
0
LINE
8
BLACK
6
CONTINUOUS
10
0.637065
20
1.16681
11
0.637795
21
1.16314
0
LINE
8
BLACK
6
CONTINUOUS
10
0.637795
20
1.16314
11
0.637795
21
1.14395
0
LINE
8
BLACK
6
CONTINUOUS
10
0.637795
20
1.14395
11
0.637065
21
1.14027
0
LINE
8
BLACK
6
CONTINUOUS
10
0.637065
20
1.14027
11
0.634985
21
1.13716
0
LINE
8
BLACK
6
CONTINUOUS
10
0.634985
20
1.13716
11
0.631871
21
1.13508
0
LINE
8
BLACK
6
CONTINUOUS
10
0.631871
20
1.13508
11
0.628199
21
1.13435
0
LINE
8
BLACK
6
CONTINUOUS
10
0.628199
20
1.13435
11
0.592274
21
1.13435
0
LINE
8
BLACK
6
CONTINUOUS
10
0.592274
20
1.13435
11
0.588601
21
1.13508
0
LINE
8
BLACK
6
CONTINUOUS
10
0.588601
20
1.13508
11
0.585488
21
1.13716
0
LINE
8
BLACK
6
CONTINUOUS
10
0.585488
20
1.13716
11
0.583408
21
1.14027
0
LINE
8
BLACK
6
CONTINUOUS
10
0.583408
20
1.14027
11
0.582677
21
1.14395
0
LINE
8
BLACK
6
CONTINUOUS
10
0.582677
20
1.14395
11
0.582677
21
1.16314
0
LINE
8
BLACK
6
CONTINUOUS
10
0.582677
20
1.16314
11
0.583408
21
1.16681
0
LINE
8
BLACK
6
CONTINUOUS
10
0.583408
20
1.16681
11
0.585488
21
1.16993
0
LINE
8
BLACK
6
CONTINUOUS
10
0.585488
20
1.16993
11
0.588601
21
1.17201
0
LINE
8
BLACK
6
CONTINUOUS
10
0.588601
20
1.17201
11
0.592274
21
1.17274
0
LINE
8
BLACK
6
CONTINUOUS
10
0.592274
20
1.17274
11
0.628199
21
1.17274
0
LINE
8
BLACK
6
CONTINUOUS
10
0.628199
20
1.17274
11
0.631871
21
1.17201
0
LINE
8
BLACK
6
CONTINUOUS
10
1.70623
20
1.15816
11
1.70751
21
1.15731
0
LINE
8
BLACK
6
CONTINUOUS
10
1.70751
20
1.15731
11
1.70836
21
1.15603
0
LINE
8
BLACK
6
CONTINUOUS
10
1.70836
20
1.15603
11
1.70866
21
1.15453
0
LINE
8
BLACK
6
CONTINUOUS
10
1.70866
20
1.15453
11
1.70866
21
1.14665
0
LINE
8
BLACK
6
CONTINUOUS
10
1.70866
20
1.14665
11
1.70836
21
1.14515
0
LINE
8
BLACK
6
CONTINUOUS
10
1.70836
20
1.14515
11
1.70751
21
1.14387
0
LINE
8
BLACK
6
CONTINUOUS
10
1.70751
20
1.14387
11
1.70623
21
1.14302
0
LINE
8
BLACK
6
CONTINUOUS
10
1.70623
20
1.14302
11
1.70472
21
1.14272
0
LINE
8
BLACK
6
CONTINUOUS
10
1.70472
20
1.14272
11
1.65453
21
1.14272
0
LINE
8
BLACK
6
CONTINUOUS
10
1.65453
20
1.14272
11
1.65302
21
1.14302
0
LINE
8
BLACK
6
CONTINUOUS
10
1.65302
20
1.14302
11
1.65174
21
1.14387
0
LINE
8
BLACK
6
CONTINUOUS
10
1.65174
20
1.14387
11
1.65089
21
1.14515
0
LINE
8
BLACK
6
CONTINUOUS
10
1.65089
20
1.14515
11
1.65059
21
1.14665
0
LINE
8
BLACK
6
CONTINUOUS
10
1.65059
20
1.14665
11
1.65059
21
1.15453
0
LINE
8
BLACK
6
CONTINUOUS
10
1.65059
20
1.15453
11
1.65089
21
1.15603
0
LINE
8
BLACK
6
CONTINUOUS
10
1.65089
20
1.15603
11
1.65174
21
1.15731
0
LINE
8
BLACK
6
CONTINUOUS
10
1.65174
20
1.15731
11
1.65302
21
1.15816
0
LINE
8
BLACK
6
CONTINUOUS
10
1.65302
20
1.15816
11
1.65453
21
1.15846
0
LINE
8
BLACK
6
CONTINUOUS
10
1.65453
20
1.15846
11
1.70472
21
1.15846
0
LINE
8
BLACK
6
CONTINUOUS
10
1.70472
20
1.15846
11
1.70623
21
1.15816
0
LINE
8
BLACK
6
CONTINUOUS
10
1.48084
20
1.15816
11
1.48211
21
1.15731
0
LINE
8
BLACK
6
CONTINUOUS
10
1.48211
20
1.15731
11
1.48297
21
1.15603
0
LINE
8
BLACK
6
CONTINUOUS
10
1.48297
20
1.15603
11
1.48327
21
1.15453
0
LINE
8
BLACK
6
CONTINUOUS
10
1.48327
20
1.15453
11
1.48327
21
1.14665
0
LINE
8
BLACK
6
CONTINUOUS
10
1.48327
20
1.14665
11
1.48297
21
1.14515
0
LINE
8
BLACK
6
CONTINUOUS
10
1.48297
20
1.14515
11
1.48211
21
1.14387
0
LINE
8
BLACK
6
CONTINUOUS
10
1.48211
20
1.14387
11
1.48084
21
1.14302
0
LINE
8
BLACK
6
CONTINUOUS
10
1.48084
20
1.14302
11
1.47933
21
1.14272
0
LINE
8
BLACK
6
CONTINUOUS
10
1.47933
20
1.14272
11
1.42913
21
1.14272
0
LINE
8
BLACK
6
CONTINUOUS
10
1.42913
20
1.14272
11
1.42763
21
1.14302
0
LINE
8
BLACK
6
CONTINUOUS
10
1.42763
20
1.14302
11
1.42635
21
1.14387
0
LINE
8
BLACK
6
CONTINUOUS
10
1.42635
20
1.14387
11
1.4255
21
1.14515
0
LINE
8
BLACK
6
CONTINUOUS
10
1.4255
20
1.14515
11
1.4252
21
1.14665
0
LINE
8
BLACK
6
CONTINUOUS
10
1.4252
20
1.14665
11
1.4252
21
1.15453
0
LINE
8
BLACK
6
CONTINUOUS
10
1.4252
20
1.15453
11
1.4255
21
1.15603
0
LINE
8
BLACK
6
CONTINUOUS
10
1.4255
20
1.15603
11
1.42635
21
1.15731
0
LINE
8
BLACK
6
CONTINUOUS
10
1.42635
20
1.15731
11
1.42763
21
1.15816
0
LINE
8
BLACK
6
CONTINUOUS
10
1.42763
20
1.15816
11
1.42913
21
1.15846
0
LINE
8
BLACK
6
CONTINUOUS
10
1.42913
20
1.15846
11
1.47933
21
1.15846
0
LINE
8
BLACK
6
CONTINUOUS
10
1.47933
20
1.15846
11
1.48084
21
1.15816
0
LINE
8
BLACK
6
CONTINUOUS
10
1.70623
20
1.18376
11
1.70751
21
1.1829
0
LINE
8
BLACK
6
CONTINUOUS
10
1.70751
20
1.1829
11
1.70836
21
1.18162
0
LINE
8
BLACK
6
CONTINUOUS
10
1.70836
20
1.18162
11
1.70866
21
1.18012
0
LINE
8
BLACK
6
CONTINUOUS
10
1.70866
20
1.18012
11
1.70866
21
1.17224
0
LINE
8
BLACK
6
CONTINUOUS
10
1.70866
20
1.17224
11
1.70836
21
1.17074
0
LINE
8
BLACK
6
CONTINUOUS
10
1.70836
20
1.17074
11
1.70751
21
1.16946
0
LINE
8
BLACK
6
CONTINUOUS
10
1.70751
20
1.16946
11
1.70623
21
1.16861
0
LINE
8
BLACK
6
CONTINUOUS
10
1.70623
20
1.16861
11
1.70472
21
1.16831
0
LINE
8
BLACK
6
CONTINUOUS
10
1.70472
20
1.16831
11
1.65453
21
1.16831
0
LINE
8
BLACK
6
CONTINUOUS
10
1.65453
20
1.16831
11
1.65302
21
1.16861
0
LINE
8
BLACK
6
CONTINUOUS
10
1.65302
20
1.16861
11
1.65174
21
1.16946
0
LINE
8
BLACK
6
CONTINUOUS
10
1.65174
20
1.16946
11
1.65089
21
1.17074
0
LINE
8
BLACK
6
CONTINUOUS
10
1.65089
20
1.17074
11
1.65059
21
1.17224
0
LINE
8
BLACK
6
CONTINUOUS
10
1.65059
20
1.17224
11
1.65059
21
1.18012
0
LINE
8
BLACK
6
CONTINUOUS
10
1.65059
20
1.18012
11
1.65089
21
1.18162
0
LINE
8
BLACK
6
CONTINUOUS
10
1.65089
20
1.18162
11
1.65174
21
1.1829
0
LINE
8
BLACK
6
CONTINUOUS
10
1.65174
20
1.1829
11
1.65302
21
1.18376
0
LINE
8
BLACK
6
CONTINUOUS
10
1.65302
20
1.18376
11
1.65453
21
1.18406
0
LINE
8
BLACK
6
CONTINUOUS
10
1.65453
20
1.18406
11
1.70472
21
1.18406
0
LINE
8
BLACK
6
CONTINUOUS
10
1.70472
20
1.18406
11
1.70623
21
1.18376
0
LINE
8
BLACK
6
CONTINUOUS
10
1.48084
20
1.18376
11
1.48211
21
1.1829
0
LINE
8
BLACK
6
CONTINUOUS
10
1.48211
20
1.1829
11
1.48297
21
1.18162
0
LINE
8
BLACK
6
CONTINUOUS
10
1.48297
20
1.18162
11
1.48327
21
1.18012
0
LINE
8
BLACK
6
CONTINUOUS
10
1.48327
20
1.18012
11
1.48327
21
1.17224
0
LINE
8
BLACK
6
CONTINUOUS
10
1.48327
20
1.17224
11
1.48297
21
1.17074
0
LINE
8
BLACK
6
CONTINUOUS
10
1.48297
20
1.17074
11
1.48211
21
1.16946
0
LINE
8
BLACK
6
CONTINUOUS
10
1.48211
20
1.16946
11
1.48084
21
1.16861
0
LINE
8
BLACK
6
CONTINUOUS
10
1.48084
20
1.16861
11
1.47933
21
1.16831
0
LINE
8
BLACK
6
CONTINUOUS
10
1.47933
20
1.16831
11
1.42913
21
1.16831
0
LINE
8
BLACK
6
CONTINUOUS
10
1.42913
20
1.16831
11
1.42763
21
1.16861
0
LINE
8
BLACK
6
CONTINUOUS
10
1.42763
20
1.16861
11
1.42635
21
1.16946
0
LINE
8
BLACK
6
CONTINUOUS
10
1.42635
20
1.16946
11
1.4255
21
1.17074
0
LINE
8
BLACK
6
CONTINUOUS
10
1.4255
20
1.17074
11
1.4252
21
1.17224
0
LINE
8
BLACK
6
CONTINUOUS
10
1.4252
20
1.17224
11
1.4252
21
1.18012
0
LINE
8
BLACK
6
CONTINUOUS
10
1.4252
20
1.18012
11
1.4255
21
1.18162
0
LINE
8
BLACK
6
CONTINUOUS
10
1.4255
20
1.18162
11
1.42635
21
1.1829
0
LINE
8
BLACK
6
CONTINUOUS
10
1.42635
20
1.1829
11
1.42763
21
1.18376
0
LINE
8
BLACK
6
CONTINUOUS
10
1.42763
20
1.18376
11
1.42913
21
1.18406
0
LINE
8
BLACK
6
CONTINUOUS
10
1.42913
20
1.18406
11
1.47933
21
1.18406
0
LINE
8
BLACK
6
CONTINUOUS
10
1.47933
20
1.18406
11
1.48084
21
1.18376
0
LINE
8
BLACK
6
CONTINUOUS
10
1.70623
20
1.20935
11
1.70751
21
1.20849
0
LINE
8
BLACK
6
CONTINUOUS
10
1.70751
20
1.20849
11
1.70836
21
1.20722
0
LINE
8
BLACK
6
CONTINUOUS
10
1.70836
20
1.20722
11
1.70866
21
1.20571
0
LINE
8
BLACK
6
CONTINUOUS
10
1.70866
20
1.20571
11
1.70866
21
1.19783
0
LINE
8
BLACK
6
CONTINUOUS
10
1.70866
20
1.19783
11
1.70836
21
1.19633
0
LINE
8
BLACK
6
CONTINUOUS
10
1.70836
20
1.19633
11
1.70751
21
1.19505
0
LINE
8
BLACK
6
CONTINUOUS
10
1.70751
20
1.19505
11
1.70623
21
1.1942
0
LINE
8
BLACK
6
CONTINUOUS
10
1.70623
20
1.1942
11
1.70472
21
1.1939
0
LINE
8
BLACK
6
CONTINUOUS
10
1.70472
20
1.1939
11
1.65453
21
1.1939
0
LINE
8
BLACK
6
CONTINUOUS
10
1.65453
20
1.1939
11
1.65302
21
1.1942
0
LINE
8
BLACK
6
CONTINUOUS
10
1.65302
20
1.1942
11
1.65174
21
1.19505
0
LINE
8
BLACK
6
CONTINUOUS
10
1.65174
20
1.19505
11
1.65089
21
1.19633
0
LINE
8
BLACK
6
CONTINUOUS
10
1.65089
20
1.19633
11
1.65059
21
1.19783
0
LINE
8
BLACK
6
CONTINUOUS
10
1.65059
20
1.19783
11
1.65059
21
1.20571
0
LINE
8
BLACK
6
CONTINUOUS
10
1.65059
20
1.20571
11
1.65089
21
1.20722
0
LINE
8
BLACK
6
CONTINUOUS
10
1.65089
20
1.20722
11
1.65174
21
1.20849
0
LINE
8
BLACK
6
CONTINUOUS
10
1.65174
20
1.20849
11
1.65302
21
1.20935
0
LINE
8
BLACK
6
CONTINUOUS
10
1.65302
20
1.20935
11
1.65453
21
1.20965
0
LINE
8
BLACK
6
CONTINUOUS
10
1.65453
20
1.20965
11
1.70472
21
1.20965
0
LINE
8
BLACK
6
CONTINUOUS
10
1.70472
20
1.20965
11
1.70623
21
1.20935
0
LINE
8
BLACK
6
CONTINUOUS
10
1.48084
20
1.20935
11
1.48211
21
1.20849
0
LINE
8
BLACK
6
CONTINUOUS
10
1.48211
20
1.20849
11
1.48297
21
1.20722
0
LINE
8
BLACK
6
CONTINUOUS
10
1.48297
20
1.20722
11
1.48327
21
1.20571
0
LINE
8
BLACK
6
CONTINUOUS
10
1.48327
20
1.20571
11
1.48327
21
1.19783
0
LINE
8
BLACK
6
CONTINUOUS
10
1.48327
20
1.19783
11
1.48297
21
1.19633
0
LINE
8
BLACK
6
CONTINUOUS
10
1.48297
20
1.19633
11
1.48211
21
1.19505
0
LINE
8
BLACK
6
CONTINUOUS
10
1.48211
20
1.19505
11
1.48084
21
1.1942
0
LINE
8
BLACK
6
CONTINUOUS
10
1.48084
20
1.1942
11
1.47933
21
1.1939
0
LINE
8
BLACK
6
CONTINUOUS
10
1.47933
20
1.1939
11
1.42913
21
1.1939
0
LINE
8
BLACK
6
CONTINUOUS
10
1.42913
20
1.1939
11
1.42763
21
1.1942
0
LINE
8
BLACK
6
CONTINUOUS
10
1.42763
20
1.1942
11
1.42635
21
1.19505
0
LINE
8
BLACK
6
CONTINUOUS
10
1.42635
20
1.19505
11
1.4255
21
1.19633
0
LINE
8
BLACK
6
CONTINUOUS
10
1.4255
20
1.19633
11
1.4252
21
1.19783
0
LINE
8
BLACK
6
CONTINUOUS
10
1.4252
20
1.19783
11
1.4252
21
1.20571
0
LINE
8
BLACK
6
CONTINUOUS
10
1.4252
20
1.20571
11
1.4255
21
1.20722
0
LINE
8
BLACK
6
CONTINUOUS
10
1.4255
20
1.20722
11
1.42635
21
1.20849
0
LINE
8
BLACK
6
CONTINUOUS
10
1.42635
20
1.20849
11
1.42763
21
1.20935
0
LINE
8
BLACK
6
CONTINUOUS
10
1.42763
20
1.20935
11
1.42913
21
1.20965
0
LINE
8
BLACK
6
CONTINUOUS
10
1.42913
20
1.20965
11
1.47933
21
1.20965
0
LINE
8
BLACK
6
CONTINUOUS
10
1.47933
20
1.20965
11
1.48084
21
1.20935
0
LINE
8
BLACK
6
CONTINUOUS
10
0.631871
20
1.24582
11
0.634985
21
1.24374
0
LINE
8
BLACK
6
CONTINUOUS
10
0.634985
20
1.24374
11
0.637065
21
1.24063
0
LINE
8
BLACK
6
CONTINUOUS
10
0.637065
20
1.24063
11
0.637795
21
1.23696
0
LINE
8
BLACK
6
CONTINUOUS
10
0.637795
20
1.23696
11
0.637795
21
1.21777
0
LINE
8
BLACK
6
CONTINUOUS
10
0.637795
20
1.21777
11
0.637065
21
1.21409
0
LINE
8
BLACK
6
CONTINUOUS
10
0.637065
20
1.21409
11
0.634985
21
1.21098
0
LINE
8
BLACK
6
CONTINUOUS
10
0.634985
20
1.21098
11
0.631871
21
1.2089
0
LINE
8
BLACK
6
CONTINUOUS
10
0.631871
20
1.2089
11
0.628199
21
1.20817
0
LINE
8
BLACK
6
CONTINUOUS
10
0.628199
20
1.20817
11
0.592274
21
1.20817
0
LINE
8
BLACK
6
CONTINUOUS
10
0.592274
20
1.20817
11
0.588601
21
1.2089
0
LINE
8
BLACK
6
CONTINUOUS
10
0.588601
20
1.2089
11
0.585488
21
1.21098
0
LINE
8
BLACK
6
CONTINUOUS
10
0.585488
20
1.21098
11
0.583408
21
1.21409
0
LINE
8
BLACK
6
CONTINUOUS
10
0.583408
20
1.21409
11
0.582677
21
1.21777
0
LINE
8
BLACK
6
CONTINUOUS
10
0.582677
20
1.21777
11
0.582677
21
1.23696
0
LINE
8
BLACK
6
CONTINUOUS
10
0.582677
20
1.23696
11
0.583408
21
1.24063
0
LINE
8
BLACK
6
CONTINUOUS
10
0.583408
20
1.24063
11
0.585488
21
1.24374
0
LINE
8
BLACK
6
CONTINUOUS
10
0.585488
20
1.24374
11
0.588601
21
1.24582
0
LINE
8
BLACK
6
CONTINUOUS
10
0.588601
20
1.24582
11
0.592274
21
1.24656
0
LINE
8
BLACK
6
CONTINUOUS
10
0.592274
20
1.24656
11
0.628199
21
1.24656
0
LINE
8
BLACK
6
CONTINUOUS
10
0.628199
20
1.24656
11
0.631871
21
1.24582
0
LINE
8
BLACK
6
CONTINUOUS
10
0.021635
20
1.25075
11
0.0247483
21
1.24867
0
LINE
8
BLACK
6
CONTINUOUS
10
0.0247483
20
1.24867
11
0.0268286
21
1.24555
0
LINE
8
BLACK
6
CONTINUOUS
10
0.0268286
20
1.24555
11
0.0275591
21
1.24188
0
LINE
8
BLACK
6
CONTINUOUS
10
0.0275591
20
1.24188
11
0.0275591
21
1.22269
0
LINE
8
BLACK
6
CONTINUOUS
10
0.0275591
20
1.22269
11
0.0268286
21
1.21901
0
LINE
8
BLACK
6
CONTINUOUS
10
0.0268286
20
1.21901
11
0.0247483
21
1.2159
0
LINE
8
BLACK
6
CONTINUOUS
10
0.0247483
20
1.2159
11
0.021635
21
1.21382
0
LINE
8
BLACK
6
CONTINUOUS
10
0.021635
20
1.21382
11
0.0179626
21
1.21309
0
LINE
8
BLACK
6
CONTINUOUS
10
0.0179626
20
1.21309
11
-0.0179626
21
1.21309
0
LINE
8
BLACK
6
CONTINUOUS
10
-0.0179626
20
1.21309
11
-0.021635
21
1.21382
0
LINE
8
BLACK
6
CONTINUOUS
10
-0.021635
20
1.21382
11
-0.0247483
21
1.2159
0
LINE
8
BLACK
6
CONTINUOUS
10
-0.0247483
20
1.2159
11
-0.0268286
21
1.21901
0
LINE
8
BLACK
6
CONTINUOUS
10
-0.0268286
20
1.21901
11
-0.0275591
21
1.22269
0
LINE
8
BLACK
6
CONTINUOUS
10
-0.0275591
20
1.22269
11
-0.0275591
21
1.24188
0
LINE
8
BLACK
6
CONTINUOUS
10
-0.0275591
20
1.24188
11
-0.0268286
21
1.24555
0
LINE
8
BLACK
6
CONTINUOUS
10
-0.0268286
20
1.24555
11
-0.0247483
21
1.24867
0
LINE
8
BLACK
6
CONTINUOUS
10
-0.0247483
20
1.24867
11
-0.021635
21
1.25075
0
LINE
8
BLACK
6
CONTINUOUS
10
-0.021635
20
1.25075
11
-0.0179626
21
1.25148
0
LINE
8
BLACK
6
CONTINUOUS
10
-0.0179626
20
1.25148
11
0.0179626
21
1.25148
0
LINE
8
BLACK
6
CONTINUOUS
10
0.0179626
20
1.25148
11
0.021635
21
1.25075
0
LINE
8
BLACK
6
CONTINUOUS
10
1.70623
20
1.23494
11
1.70751
21
1.23408
0
LINE
8
BLACK
6
CONTINUOUS
10
1.70751
20
1.23408
11
1.70836
21
1.23281
0
LINE
8
BLACK
6
CONTINUOUS
10
1.70836
20
1.23281
11
1.70866
21
1.2313
0
LINE
8
BLACK
6
CONTINUOUS
10
1.70866
20
1.2313
11
1.70866
21
1.22343
0
LINE
8
BLACK
6
CONTINUOUS
10
1.70866
20
1.22343
11
1.70836
21
1.22192
0
LINE
8
BLACK
6
CONTINUOUS
10
1.70836
20
1.22192
11
1.70751
21
1.22064
0
LINE
8
BLACK
6
CONTINUOUS
10
1.70751
20
1.22064
11
1.70623
21
1.21979
0
LINE
8
BLACK
6
CONTINUOUS
10
1.70623
20
1.21979
11
1.70472
21
1.21949
0
LINE
8
BLACK
6
CONTINUOUS
10
1.70472
20
1.21949
11
1.65453
21
1.21949
0
LINE
8
BLACK
6
CONTINUOUS
10
1.65453
20
1.21949
11
1.65302
21
1.21979
0
LINE
8
BLACK
6
CONTINUOUS
10
1.65302
20
1.21979
11
1.65174
21
1.22064
0
LINE
8
BLACK
6
CONTINUOUS
10
1.65174
20
1.22064
11
1.65089
21
1.22192
0
LINE
8
BLACK
6
CONTINUOUS
10
1.65089
20
1.22192
11
1.65059
21
1.22343
0
LINE
8
BLACK
6
CONTINUOUS
10
1.65059
20
1.22343
11
1.65059
21
1.2313
0
LINE
8
BLACK
6
CONTINUOUS
10
1.65059
20
1.2313
11
1.65089
21
1.23281
0
LINE
8
BLACK
6
CONTINUOUS
10
1.65089
20
1.23281
11
1.65174
21
1.23408
0
LINE
8
BLACK
6
CONTINUOUS
10
1.65174
20
1.23408
11
1.65302
21
1.23494
0
LINE
8
BLACK
6
CONTINUOUS
10
1.65302
20
1.23494
11
1.65453
21
1.23524
0
LINE
8
BLACK
6
CONTINUOUS
10
1.65453
20
1.23524
11
1.70472
21
1.23524
0
LINE
8
BLACK
6
CONTINUOUS
10
1.70472
20
1.23524
11
1.70623
21
1.23494
0
LINE
8
BLACK
6
CONTINUOUS
10
1.48084
20
1.23494
11
1.48211
21
1.23408
0
LINE
8
BLACK
6
CONTINUOUS
10
1.48211
20
1.23408
11
1.48297
21
1.23281
0
LINE
8
BLACK
6
CONTINUOUS
10
1.48297
20
1.23281
11
1.48327
21
1.2313
0
LINE
8
BLACK
6
CONTINUOUS
10
1.48327
20
1.2313
11
1.48327
21
1.22343
0
LINE
8
BLACK
6
CONTINUOUS
10
1.48327
20
1.22343
11
1.48297
21
1.22192
0
LINE
8
BLACK
6
CONTINUOUS
10
1.48297
20
1.22192
11
1.48211
21
1.22064
0
LINE
8
BLACK
6
CONTINUOUS
10
1.48211
20
1.22064
11
1.48084
21
1.21979
0
LINE
8
BLACK
6
CONTINUOUS
10
1.48084
20
1.21979
11
1.47933
21
1.21949
0
LINE
8
BLACK
6
CONTINUOUS
10
1.47933
20
1.21949
11
1.42913
21
1.21949
0
LINE
8
BLACK
6
CONTINUOUS
10
1.42913
20
1.21949
11
1.42763
21
1.21979
0
LINE
8
BLACK
6
CONTINUOUS
10
1.42763
20
1.21979
11
1.42635
21
1.22064
0
LINE
8
BLACK
6
CONTINUOUS
10
1.42635
20
1.22064
11
1.4255
21
1.22192
0
LINE
8
BLACK
6
CONTINUOUS
10
1.4255
20
1.22192
11
1.4252
21
1.22343
0
LINE
8
BLACK
6
CONTINUOUS
10
1.4252
20
1.22343
11
1.4252
21
1.2313
0
LINE
8
BLACK
6
CONTINUOUS
10
1.4252
20
1.2313
11
1.4255
21
1.23281
0
LINE
8
BLACK
6
CONTINUOUS
10
1.4255
20
1.23281
11
1.42635
21
1.23408
0
LINE
8
BLACK
6
CONTINUOUS
10
1.42635
20
1.23408
11
1.42763
21
1.23494
0
LINE
8
BLACK
6
CONTINUOUS
10
1.42763
20
1.23494
11
1.42913
21
1.23524
0
LINE
8
BLACK
6
CONTINUOUS
10
1.42913
20
1.23524
11
1.47933
21
1.23524
0
LINE
8
BLACK
6
CONTINUOUS
10
1.47933
20
1.23524
11
1.48084
21
1.23494
0
LINE
8
BLACK
6
CONTINUOUS
10
0.153543
20
1.22638
11
0.0826772
21
1.22638
0
LINE
8
BLACK
6
CONTINUOUS
10
0.0826772
20
1.22638
11
0.0826772
21
1.3248
0
LINE
8
BLACK
6
CONTINUOUS
10
0.0826772
20
1.3248
11
0.153543
21
1.3248
0
LINE
8
BLACK
6
CONTINUOUS
10
0.153543
20
1.3248
11
0.153543
21
1.22638
0
LINE
8
BLACK
6
CONTINUOUS
10
0.249981
20
1.29651
11
0.253095
21
1.29443
0
LINE
8
BLACK
6
CONTINUOUS
10
0.253095
20
1.29443
11
0.255175
21
1.29132
0
LINE
8
BLACK
6
CONTINUOUS
10
0.255175
20
1.29132
11
0.255906
21
1.28765
0
LINE
8
BLACK
6
CONTINUOUS
10
0.255906
20
1.28765
11
0.255906
21
1.26845
0
LINE
8
BLACK
6
CONTINUOUS
10
0.255906
20
1.26845
11
0.255175
21
1.26478
0
LINE
8
BLACK
6
CONTINUOUS
10
0.255175
20
1.26478
11
0.253095
21
1.26167
0
LINE
8
BLACK
6
CONTINUOUS
10
0.253095
20
1.26167
11
0.249981
21
1.25959
0
LINE
8
BLACK
6
CONTINUOUS
10
0.249981
20
1.25959
11
0.246309
21
1.25886
0
LINE
8
BLACK
6
CONTINUOUS
10
0.246309
20
1.25886
11
0.210384
21
1.25886
0
LINE
8
BLACK
6
CONTINUOUS
10
0.210384
20
1.25886
11
0.206711
21
1.25959
0
LINE
8
BLACK
6
CONTINUOUS
10
0.206711
20
1.25959
11
0.203598
21
1.26167
0
LINE
8
BLACK
6
CONTINUOUS
10
0.203598
20
1.26167
11
0.201518
21
1.26478
0
LINE
8
BLACK
6
CONTINUOUS
10
0.201518
20
1.26478
11
0.200787
21
1.26845
0
LINE
8
BLACK
6
CONTINUOUS
10
0.200787
20
1.26845
11
0.200787
21
1.28765
0
LINE
8
BLACK
6
CONTINUOUS
10
0.200787
20
1.28765
11
0.201518
21
1.29132
0
LINE
8
BLACK
6
CONTINUOUS
10
0.201518
20
1.29132
11
0.203598
21
1.29443
0
LINE
8
BLACK
6
CONTINUOUS
10
0.203598
20
1.29443
11
0.206711
21
1.29651
0
LINE
8
BLACK
6
CONTINUOUS
10
0.206711
20
1.29651
11
0.210384
21
1.29724
0
LINE
8
BLACK
6
CONTINUOUS
10
0.210384
20
1.29724
11
0.246309
21
1.29724
0
LINE
8
BLACK
6
CONTINUOUS
10
0.246309
20
1.29724
11
0.249981
21
1.29651
0
LINE
8
BLACK
6
CONTINUOUS
10
0.021635
20
1.32456
11
0.0247483
21
1.32248
0
LINE
8
BLACK
6
CONTINUOUS
10
0.0247483
20
1.32248
11
0.0268286
21
1.31937
0
LINE
8
BLACK
6
CONTINUOUS
10
0.0268286
20
1.31937
11
0.0275591
21
1.3157
0
LINE
8
BLACK
6
CONTINUOUS
10
0.0275591
20
1.3157
11
0.0275591
21
1.29651
0
LINE
8
BLACK
6
CONTINUOUS
10
0.0275591
20
1.29651
11
0.0268286
21
1.29283
0
LINE
8
BLACK
6
CONTINUOUS
10
0.0268286
20
1.29283
11
0.0247483
21
1.28972
0
LINE
8
BLACK
6
CONTINUOUS
10
0.0247483
20
1.28972
11
0.021635
21
1.28764
0
LINE
8
BLACK
6
CONTINUOUS
10
0.021635
20
1.28764
11
0.0179626
21
1.28691
0
LINE
8
BLACK
6
CONTINUOUS
10
0.0179626
20
1.28691
11
-0.0179626
21
1.28691
0
LINE
8
BLACK
6
CONTINUOUS
10
-0.0179626
20
1.28691
11
-0.021635
21
1.28764
0
LINE
8
BLACK
6
CONTINUOUS
10
-0.021635
20
1.28764
11
-0.0247483
21
1.28972
0
LINE
8
BLACK
6
CONTINUOUS
10
-0.0247483
20
1.28972
11
-0.0268286
21
1.29283
0
LINE
8
BLACK
6
CONTINUOUS
10
-0.0268286
20
1.29283
11
-0.0275591
21
1.29651
0
LINE
8
BLACK
6
CONTINUOUS
10
-0.0275591
20
1.29651
11
-0.0275591
21
1.3157
0
LINE
8
BLACK
6
CONTINUOUS
10
-0.0275591
20
1.3157
11
-0.0268286
21
1.31937
0
LINE
8
BLACK
6
CONTINUOUS
10
-0.0268286
20
1.31937
11
-0.0247483
21
1.32248
0
LINE
8
BLACK
6
CONTINUOUS
10
-0.0247483
20
1.32248
11
-0.021635
21
1.32456
0
LINE
8
BLACK
6
CONTINUOUS
10
-0.021635
20
1.32456
11
-0.0179626
21
1.3253
0
LINE
8
BLACK
6
CONTINUOUS
10
-0.0179626
20
1.3253
11
0.0179626
21
1.3253
0
LINE
8
BLACK
6
CONTINUOUS
10
0.0179626
20
1.3253
11
0.021635
21
1.32456
0
LINE
8
BLACK
6
CONTINUOUS
10
0.44588
20
1.28755
11
0.420289
21
1.28755
0
LINE
8
BLACK
6
CONTINUOUS
10
0.420289
20
1.28755
11
0.420289
21
1.33558
0
LINE
8
BLACK
6
CONTINUOUS
10
0.420289
20
1.33558
11
0.44588
21
1.33558
0
LINE
8
BLACK
6
CONTINUOUS
10
0.44588
20
1.33558
11
0.44588
21
1.28755
0
LINE
8
BLACK
6
CONTINUOUS
10
0.483281
20
1.28755
11
0.457691
21
1.28755
0
LINE
8
BLACK
6
CONTINUOUS
10
0.457691
20
1.28755
11
0.457691
21
1.33558
0
LINE
8
BLACK
6
CONTINUOUS
10
0.457691
20
1.33558
11
0.483281
21
1.33558
0
LINE
8
BLACK
6
CONTINUOUS
10
0.483281
20
1.33558
11
0.483281
21
1.28755
0
LINE
8
BLACK
6
CONTINUOUS
10
0.520683
20
1.28755
11
0.495092
21
1.28755
0
LINE
8
BLACK
6
CONTINUOUS
10
0.495092
20
1.28755
11
0.495092
21
1.33558
0
LINE
8
BLACK
6
CONTINUOUS
10
0.495092
20
1.33558
11
0.520683
21
1.33558
0
LINE
8
BLACK
6
CONTINUOUS
10
0.520683
20
1.33558
11
0.520683
21
1.28755
0
LINE
8
BLACK
6
CONTINUOUS
10
0.249981
20
1.37033
11
0.253095
21
1.36825
0
LINE
8
BLACK
6
CONTINUOUS
10
0.253095
20
1.36825
11
0.255175
21
1.36514
0
LINE
8
BLACK
6
CONTINUOUS
10
0.255175
20
1.36514
11
0.255906
21
1.36147
0
LINE
8
BLACK
6
CONTINUOUS
10
0.255906
20
1.36147
11
0.255906
21
1.34227
0
LINE
8
BLACK
6
CONTINUOUS
10
0.255906
20
1.34227
11
0.255175
21
1.3386
0
LINE
8
BLACK
6
CONTINUOUS
10
0.255175
20
1.3386
11
0.253095
21
1.33549
0
LINE
8
BLACK
6
CONTINUOUS
10
0.253095
20
1.33549
11
0.249981
21
1.33341
0
LINE
8
BLACK
6
CONTINUOUS
10
0.249981
20
1.33341
11
0.246309
21
1.33268
0
LINE
8
BLACK
6
CONTINUOUS
10
0.246309
20
1.33268
11
0.210384
21
1.33268
0
LINE
8
BLACK
6
CONTINUOUS
10
0.210384
20
1.33268
11
0.206711
21
1.33341
0
LINE
8
BLACK
6
CONTINUOUS
10
0.206711
20
1.33341
11
0.203598
21
1.33549
0
LINE
8
BLACK
6
CONTINUOUS
10
0.203598
20
1.33549
11
0.201518
21
1.3386
0
LINE
8
BLACK
6
CONTINUOUS
10
0.201518
20
1.3386
11
0.200787
21
1.34227
0
LINE
8
BLACK
6
CONTINUOUS
10
0.200787
20
1.34227
11
0.200787
21
1.36147
0
LINE
8
BLACK
6
CONTINUOUS
10
0.200787
20
1.36147
11
0.201518
21
1.36514
0
LINE
8
BLACK
6
CONTINUOUS
10
0.201518
20
1.36514
11
0.203598
21
1.36825
0
LINE
8
BLACK
6
CONTINUOUS
10
0.203598
20
1.36825
11
0.206711
21
1.37033
0
LINE
8
BLACK
6
CONTINUOUS
10
0.206711
20
1.37033
11
0.210384
21
1.37106
0
LINE
8
BLACK
6
CONTINUOUS
10
0.210384
20
1.37106
11
0.246309
21
1.37106
0
LINE
8
BLACK
6
CONTINUOUS
10
0.246309
20
1.37106
11
0.249981
21
1.37033
0
LINE
8
BLACK
6
CONTINUOUS
10
0.116123
20
1.38854
11
0.119236
21
1.38646
0
LINE
8
BLACK
6
CONTINUOUS
10
0.119236
20
1.38646
11
0.121317
21
1.38335
0
LINE
8
BLACK
6
CONTINUOUS
10
0.121317
20
1.38335
11
0.122047
21
1.37968
0
LINE
8
BLACK
6
CONTINUOUS
10
0.122047
20
1.37968
11
0.122047
21
1.36048
0
LINE
8
BLACK
6
CONTINUOUS
10
0.122047
20
1.36048
11
0.121317
21
1.35681
0
LINE
8
BLACK
6
CONTINUOUS
10
0.121317
20
1.35681
11
0.119236
21
1.3537
0
LINE
8
BLACK
6
CONTINUOUS
10
0.119236
20
1.3537
11
0.116123
21
1.35162
0
LINE
8
BLACK
6
CONTINUOUS
10
0.116123
20
1.35162
11
0.112451
21
1.35089
0
LINE
8
BLACK
6
CONTINUOUS
10
0.112451
20
1.35089
11
0.0765256
21
1.35089
0
LINE
8
BLACK
6
CONTINUOUS
10
0.0765256
20
1.35089
11
0.0728532
21
1.35162
0
LINE
8
BLACK
6
CONTINUOUS
10
0.0728532
20
1.35162
11
0.0697399
21
1.3537
0
LINE
8
BLACK
6
CONTINUOUS
10
0.0697399
20
1.3537
11
0.0676596
21
1.35681
0
LINE
8
BLACK
6
CONTINUOUS
10
0.0676596
20
1.35681
11
0.0669291
21
1.36048
0
LINE
8
BLACK
6
CONTINUOUS
10
0.0669291
20
1.36048
11
0.0669291
21
1.37968
0
LINE
8
BLACK
6
CONTINUOUS
10
0.0669291
20
1.37968
11
0.0676596
21
1.38335
0
LINE
8
BLACK
6
CONTINUOUS
10
0.0676596
20
1.38335
11
0.0697399
21
1.38646
0
LINE
8
BLACK
6
CONTINUOUS
10
0.0697399
20
1.38646
11
0.0728532
21
1.38854
0
LINE
8
BLACK
6
CONTINUOUS
10
0.0728532
20
1.38854
11
0.0765256
21
1.38927
0
LINE
8
BLACK
6
CONTINUOUS
10
0.0765256
20
1.38927
11
0.112451
21
1.38927
0
LINE
8
BLACK
6
CONTINUOUS
10
0.112451
20
1.38927
11
0.116123
21
1.38854
0
LINE
8
BLACK
6
CONTINUOUS
10
0.021635
20
1.391
11
0.0247483
21
1.38892
0
LINE
8
BLACK
6
CONTINUOUS
10
0.0247483
20
1.38892
11
0.0268286
21
1.38581
0
LINE
8
BLACK
6
CONTINUOUS
10
0.0268286
20
1.38581
11
0.0275591
21
1.38214
0
LINE
8
BLACK
6
CONTINUOUS
10
0.0275591
20
1.38214
11
0.0275591
21
1.36294
0
LINE
8
BLACK
6
CONTINUOUS
10
0.0275591
20
1.36294
11
0.0268286
21
1.35927
0
LINE
8
BLACK
6
CONTINUOUS
10
0.0268286
20
1.35927
11
0.0247483
21
1.35616
0
LINE
8
BLACK
6
CONTINUOUS
10
0.0247483
20
1.35616
11
0.021635
21
1.35408
0
LINE
8
BLACK
6
CONTINUOUS
10
0.021635
20
1.35408
11
0.0179626
21
1.35335
0
LINE
8
BLACK
6
CONTINUOUS
10
0.0179626
20
1.35335
11
-0.0179626
21
1.35335
0
LINE
8
BLACK
6
CONTINUOUS
10
-0.0179626
20
1.35335
11
-0.021635
21
1.35408
0
LINE
8
BLACK
6
CONTINUOUS
10
-0.021635
20
1.35408
11
-0.0247483
21
1.35616
0
LINE
8
BLACK
6
CONTINUOUS
10
-0.0247483
20
1.35616
11
-0.0268286
21
1.35927
0
LINE
8
BLACK
6
CONTINUOUS
10
-0.0268286
20
1.35927
11
-0.0275591
21
1.36294
0
LINE
8
BLACK
6
CONTINUOUS
10
-0.0275591
20
1.36294
11
-0.0275591
21
1.38214
0
LINE
8
BLACK
6
CONTINUOUS
10
-0.0275591
20
1.38214
11
-0.0268286
21
1.38581
0
LINE
8
BLACK
6
CONTINUOUS
10
-0.0268286
20
1.38581
11
-0.0247483
21
1.38892
0
LINE
8
BLACK
6
CONTINUOUS
10
-0.0247483
20
1.38892
11
-0.021635
21
1.391
0
LINE
8
BLACK
6
CONTINUOUS
10
-0.021635
20
1.391
11
-0.0179626
21
1.39173
0
LINE
8
BLACK
6
CONTINUOUS
10
-0.0179626
20
1.39173
11
0.0179626
21
1.39173
0
LINE
8
BLACK
6
CONTINUOUS
10
0.0179626
20
1.39173
11
0.021635
21
1.391
0
LINE
8
BLACK
6
CONTINUOUS
10
0.520683
20
1.39069
11
0.495092
21
1.39069
0
LINE
8
BLACK
6
CONTINUOUS
10
0.495092
20
1.39069
11
0.495092
21
1.43873
0
LINE
8
BLACK
6
CONTINUOUS
10
0.495092
20
1.43873
11
0.520683
21
1.43873
0
LINE
8
BLACK
6
CONTINUOUS
10
0.520683
20
1.43873
11
0.520683
21
1.39069
0
LINE
8
BLACK
6
CONTINUOUS
10
0.483281
20
1.39069
11
0.457691
21
1.39069
0
LINE
8
BLACK
6
CONTINUOUS
10
0.457691
20
1.39069
11
0.457691
21
1.43873
0
LINE
8
BLACK
6
CONTINUOUS
10
0.457691
20
1.43873
11
0.483281
21
1.43873
0
LINE
8
BLACK
6
CONTINUOUS
10
0.483281
20
1.43873
11
0.483281
21
1.39069
0
LINE
8
BLACK
6
CONTINUOUS
10
0.44588
20
1.39069
11
0.420289
21
1.39069
0
LINE
8
BLACK
6
CONTINUOUS
10
0.420289
20
1.39069
11
0.420289
21
1.43873
0
LINE
8
BLACK
6
CONTINUOUS
10
0.420289
20
1.43873
11
0.44588
21
1.43873
0
LINE
8
BLACK
6
CONTINUOUS
10
0.44588
20
1.43873
11
0.44588
21
1.39069
0
LINE
8
BLACK
6
CONTINUOUS
10
0.249981
20
1.4289
11
0.253095
21
1.42682
0
LINE
8
BLACK
6
CONTINUOUS
10
0.253095
20
1.42682
11
0.255175
21
1.4237
0
LINE
8
BLACK
6
CONTINUOUS
10
0.255175
20
1.4237
11
0.255906
21
1.42003
0
LINE
8
BLACK
6
CONTINUOUS
10
0.255906
20
1.42003
11
0.255906
21
1.40084
0
LINE
8
BLACK
6
CONTINUOUS
10
0.255906
20
1.40084
11
0.255175
21
1.39716
0
LINE
8
BLACK
6
CONTINUOUS
10
0.255175
20
1.39716
11
0.253095
21
1.39405
0
LINE
8
BLACK
6
CONTINUOUS
10
0.253095
20
1.39405
11
0.249981
21
1.39197
0
LINE
8
BLACK
6
CONTINUOUS
10
0.249981
20
1.39197
11
0.246309
21
1.39124
0
LINE
8
BLACK
6
CONTINUOUS
10
0.246309
20
1.39124
11
0.210384
21
1.39124
0
LINE
8
BLACK
6
CONTINUOUS
10
0.210384
20
1.39124
11
0.206711
21
1.39197
0
LINE
8
BLACK
6
CONTINUOUS
10
0.206711
20
1.39197
11
0.203598
21
1.39405
0
LINE
8
BLACK
6
CONTINUOUS
10
0.203598
20
1.39405
11
0.201518
21
1.39716
0
LINE
8
BLACK
6
CONTINUOUS
10
0.201518
20
1.39716
11
0.200787
21
1.40084
0
LINE
8
BLACK
6
CONTINUOUS
10
0.200787
20
1.40084
11
0.200787
21
1.42003
0
LINE
8
BLACK
6
CONTINUOUS
10
0.200787
20
1.42003
11
0.201518
21
1.4237
0
LINE
8
BLACK
6
CONTINUOUS
10
0.201518
20
1.4237
11
0.203598
21
1.42682
0
LINE
8
BLACK
6
CONTINUOUS
10
0.203598
20
1.42682
11
0.206711
21
1.4289
0
LINE
8
BLACK
6
CONTINUOUS
10
0.206711
20
1.4289
11
0.210384
21
1.42963
0
LINE
8
BLACK
6
CONTINUOUS
10
0.210384
20
1.42963
11
0.246309
21
1.42963
0
LINE
8
BLACK
6
CONTINUOUS
10
0.246309
20
1.42963
11
0.249981
21
1.4289
0
LINE
8
BLACK
6
CONTINUOUS
10
0.116123
20
1.46236
11
0.119236
21
1.46028
0
LINE
8
BLACK
6
CONTINUOUS
10
0.119236
20
1.46028
11
0.121317
21
1.45717
0
LINE
8
BLACK
6
CONTINUOUS
10
0.121317
20
1.45717
11
0.122047
21
1.45349
0
LINE
8
BLACK
6
CONTINUOUS
10
0.122047
20
1.45349
11
0.122047
21
1.4343
0
LINE
8
BLACK
6
CONTINUOUS
10
0.122047
20
1.4343
11
0.121317
21
1.43063
0
LINE
8
BLACK
6
CONTINUOUS
10
0.121317
20
1.43063
11
0.119236
21
1.42752
0
LINE
8
BLACK
6
CONTINUOUS
10
0.119236
20
1.42752
11
0.116123
21
1.42544
0
LINE
8
BLACK
6
CONTINUOUS
10
0.116123
20
1.42544
11
0.112451
21
1.4247
0
LINE
8
BLACK
6
CONTINUOUS
10
0.112451
20
1.4247
11
0.0765256
21
1.4247
0
LINE
8
BLACK
6
CONTINUOUS
10
0.0765256
20
1.4247
11
0.0728532
21
1.42544
0
LINE
8
BLACK
6
CONTINUOUS
10
0.0728532
20
1.42544
11
0.0697399
21
1.42752
0
LINE
8
BLACK
6
CONTINUOUS
10
0.0697399
20
1.42752
11
0.0676596
21
1.43063
0
LINE
8
BLACK
6
CONTINUOUS
10
0.0676596
20
1.43063
11
0.0669291
21
1.4343
0
LINE
8
BLACK
6
CONTINUOUS
10
0.0669291
20
1.4343
11
0.0669291
21
1.45349
0
LINE
8
BLACK
6
CONTINUOUS
10
0.0669291
20
1.45349
11
0.0676596
21
1.45717
0
LINE
8
BLACK
6
CONTINUOUS
10
0.0676596
20
1.45717
11
0.0697399
21
1.46028
0
LINE
8
BLACK
6
CONTINUOUS
10
0.0697399
20
1.46028
11
0.0728532
21
1.46236
0
LINE
8
BLACK
6
CONTINUOUS
10
0.0728532
20
1.46236
11
0.0765256
21
1.46309
0
LINE
8
BLACK
6
CONTINUOUS
10
0.0765256
20
1.46309
11
0.112451
21
1.46309
0
LINE
8
BLACK
6
CONTINUOUS
10
0.112451
20
1.46309
11
0.116123
21
1.46236
0
LINE
8
BLACK
6
CONTINUOUS
10
0.021635
20
1.46482
11
0.0247483
21
1.46274
0
LINE
8
BLACK
6
CONTINUOUS
10
0.0247483
20
1.46274
11
0.0268286
21
1.45963
0
LINE
8
BLACK
6
CONTINUOUS
10
0.0268286
20
1.45963
11
0.0275591
21
1.45595
0
LINE
8
BLACK
6
CONTINUOUS
10
0.0275591
20
1.45595
11
0.0275591
21
1.43676
0
LINE
8
BLACK
6
CONTINUOUS
10
0.0275591
20
1.43676
11
0.0268286
21
1.43309
0
LINE
8
BLACK
6
CONTINUOUS
10
0.0268286
20
1.43309
11
0.0247483
21
1.42998
0
LINE
8
BLACK
6
CONTINUOUS
10
0.0247483
20
1.42998
11
0.021635
21
1.4279
0
LINE
8
BLACK
6
CONTINUOUS
10
0.021635
20
1.4279
11
0.0179626
21
1.42717
0
LINE
8
BLACK
6
CONTINUOUS
10
0.0179626
20
1.42717
11
-0.0179626
21
1.42717
0
LINE
8
BLACK
6
CONTINUOUS
10
-0.0179626
20
1.42717
11
-0.021635
21
1.4279
0
LINE
8
BLACK
6
CONTINUOUS
10
-0.021635
20
1.4279
11
-0.0247483
21
1.42998
0
LINE
8
BLACK
6
CONTINUOUS
10
-0.0247483
20
1.42998
11
-0.0268286
21
1.43309
0
LINE
8
BLACK
6
CONTINUOUS
10
-0.0268286
20
1.43309
11
-0.0275591
21
1.43676
0
LINE
8
BLACK
6
CONTINUOUS
10
-0.0275591
20
1.43676
11
-0.0275591
21
1.45595
0
LINE
8
BLACK
6
CONTINUOUS
10
-0.0275591
20
1.45595
11
-0.0268286
21
1.45963
0
LINE
8
BLACK
6
CONTINUOUS
10
-0.0268286
20
1.45963
11
-0.0247483
21
1.46274
0
LINE
8
BLACK
6
CONTINUOUS
10
-0.0247483
20
1.46274
11
-0.021635
21
1.46482
0
LINE
8
BLACK
6
CONTINUOUS
10
-0.021635
20
1.46482
11
-0.0179626
21
1.46555
0
LINE
8
BLACK
6
CONTINUOUS
10
-0.0179626
20
1.46555
11
0.0179626
21
1.46555
0
LINE
8
BLACK
6
CONTINUOUS
10
0.0179626
20
1.46555
11
0.021635
21
1.46482
0
LINE
8
BLACK
6
CONTINUOUS
10
0.249981
20
1.50271
11
0.253095
21
1.50063
0
LINE
8
BLACK
6
CONTINUOUS
10
0.253095
20
1.50063
11
0.255175
21
1.49752
0
LINE
8
BLACK
6
CONTINUOUS
10
0.255175
20
1.49752
11
0.255906
21
1.49385
0
LINE
8
BLACK
6
CONTINUOUS
10
0.255906
20
1.49385
11
0.255906
21
1.47466
0
LINE
8
BLACK
6
CONTINUOUS
10
0.255906
20
1.47466
11
0.255175
21
1.47098
0
LINE
8
BLACK
6
CONTINUOUS
10
0.255175
20
1.47098
11
0.253095
21
1.46787
0
LINE
8
BLACK
6
CONTINUOUS
10
0.253095
20
1.46787
11
0.249981
21
1.46579
0
LINE
8
BLACK
6
CONTINUOUS
10
0.249981
20
1.46579
11
0.246309
21
1.46506
0
LINE
8
BLACK
6
CONTINUOUS
10
0.246309
20
1.46506
11
0.210384
21
1.46506
0
LINE
8
BLACK
6
CONTINUOUS
10
0.210384
20
1.46506
11
0.206711
21
1.46579
0
LINE
8
BLACK
6
CONTINUOUS
10
0.206711
20
1.46579
11
0.203598
21
1.46787
0
LINE
8
BLACK
6
CONTINUOUS
10
0.203598
20
1.46787
11
0.201518
21
1.47098
0
LINE
8
BLACK
6
CONTINUOUS
10
0.201518
20
1.47098
11
0.200787
21
1.47466
0
LINE
8
BLACK
6
CONTINUOUS
10
0.200787
20
1.47466
11
0.200787
21
1.49385
0
LINE
8
BLACK
6
CONTINUOUS
10
0.200787
20
1.49385
11
0.201518
21
1.49752
0
LINE
8
BLACK
6
CONTINUOUS
10
0.201518
20
1.49752
11
0.203598
21
1.50063
0
LINE
8
BLACK
6
CONTINUOUS
10
0.203598
20
1.50063
11
0.206711
21
1.50271
0
LINE
8
BLACK
6
CONTINUOUS
10
0.206711
20
1.50271
11
0.210384
21
1.50344
0
LINE
8
BLACK
6
CONTINUOUS
10
0.210384
20
1.50344
11
0.246309
21
1.50344
0
LINE
8
BLACK
6
CONTINUOUS
10
0.246309
20
1.50344
11
0.249981
21
1.50271
0
LINE
8
BLACK
6
CONTINUOUS
10
1.52557
20
1.62181
11
1.52869
21
1.61973
0
LINE
8
BLACK
6
CONTINUOUS
10
1.52869
20
1.61973
11
1.53077
21
1.61662
0
LINE
8
BLACK
6
CONTINUOUS
10
1.53077
20
1.61662
11
1.5315
21
1.61294
0
LINE
8
BLACK
6
CONTINUOUS
10
1.5315
20
1.61294
11
1.5315
21
1.59375
0
LINE
8
BLACK
6
CONTINUOUS
10
1.5315
20
1.59375
11
1.53077
21
1.59008
0
LINE
8
BLACK
6
CONTINUOUS
10
1.53077
20
1.59008
11
1.52869
21
1.58696
0
LINE
8
BLACK
6
CONTINUOUS
10
1.52869
20
1.58696
11
1.52557
21
1.58488
0
LINE
8
BLACK
6
CONTINUOUS
10
1.52557
20
1.58488
11
1.5219
21
1.58415
0
LINE
8
BLACK
6
CONTINUOUS
10
1.5219
20
1.58415
11
1.48597
21
1.58415
0
LINE
8
BLACK
6
CONTINUOUS
10
1.48597
20
1.58415
11
1.4823
21
1.58488
0
LINE
8
BLACK
6
CONTINUOUS
10
1.4823
20
1.58488
11
1.47919
21
1.58696
0
LINE
8
BLACK
6
CONTINUOUS
10
1.47919
20
1.58696
11
1.47711
21
1.59008
0
LINE
8
BLACK
6
CONTINUOUS
10
1.47711
20
1.59008
11
1.47638
21
1.59375
0
LINE
8
BLACK
6
CONTINUOUS
10
1.47638
20
1.59375
11
1.47638
21
1.61294
0
LINE
8
BLACK
6
CONTINUOUS
10
1.47638
20
1.61294
11
1.47711
21
1.61662
0
LINE
8
BLACK
6
CONTINUOUS
10
1.47711
20
1.61662
11
1.47919
21
1.61973
0
LINE
8
BLACK
6
CONTINUOUS
10
1.47919
20
1.61973
11
1.4823
21
1.62181
0
LINE
8
BLACK
6
CONTINUOUS
10
1.4823
20
1.62181
11
1.48597
21
1.62254
0
LINE
8
BLACK
6
CONTINUOUS
10
1.48597
20
1.62254
11
1.5219
21
1.62254
0
LINE
8
BLACK
6
CONTINUOUS
10
1.5219
20
1.62254
11
1.52557
21
1.62181
0
LINE
8
BLACK
6
CONTINUOUS
10
1.69486
20
1.62329
11
1.69798
21
1.62121
0
LINE
8
BLACK
6
CONTINUOUS
10
1.69798
20
1.62121
11
1.70006
21
1.61809
0
LINE
8
BLACK
6
CONTINUOUS
10
1.70006
20
1.61809
11
1.70079
21
1.61442
0
LINE
8
BLACK
6
CONTINUOUS
10
1.70079
20
1.61442
11
1.70079
21
1.59523
0
LINE
8
BLACK
6
CONTINUOUS
10
1.70079
20
1.59523
11
1.70006
21
1.59155
0
LINE
8
BLACK
6
CONTINUOUS
10
1.70006
20
1.59155
11
1.69798
21
1.58844
0
LINE
8
BLACK
6
CONTINUOUS
10
1.69798
20
1.58844
11
1.69486
21
1.58636
0
LINE
8
BLACK
6
CONTINUOUS
10
1.69486
20
1.58636
11
1.69119
21
1.58563
0
LINE
8
BLACK
6
CONTINUOUS
10
1.69119
20
1.58563
11
1.65527
21
1.58563
0
LINE
8
BLACK
6
CONTINUOUS
10
1.65527
20
1.58563
11
1.65159
21
1.58636
0
LINE
8
BLACK
6
CONTINUOUS
10
1.65159
20
1.58636
11
1.64848
21
1.58844
0
LINE
8
BLACK
6
CONTINUOUS
10
1.64848
20
1.58844
11
1.6464
21
1.59155
0
LINE
8
BLACK
6
CONTINUOUS
10
1.6464
20
1.59155
11
1.64567
21
1.59523
0
LINE
8
BLACK
6
CONTINUOUS
10
1.64567
20
1.59523
11
1.64567
21
1.61442
0
LINE
8
BLACK
6
CONTINUOUS
10
1.64567
20
1.61442
11
1.6464
21
1.61809
0
LINE
8
BLACK
6
CONTINUOUS
10
1.6464
20
1.61809
11
1.64848
21
1.62121
0
LINE
8
BLACK
6
CONTINUOUS
10
1.64848
20
1.62121
11
1.65159
21
1.62329
0
LINE
8
BLACK
6
CONTINUOUS
10
1.65159
20
1.62329
11
1.65527
21
1.62402
0
LINE
8
BLACK
6
CONTINUOUS
10
1.65527
20
1.62402
11
1.69119
21
1.62402
0
LINE
8
BLACK
6
CONTINUOUS
10
1.69119
20
1.62402
11
1.69486
21
1.62329
0
LINE
8
BLACK
6
CONTINUOUS
10
1.52557
20
1.69563
11
1.52869
21
1.69355
0
LINE
8
BLACK
6
CONTINUOUS
10
1.52869
20
1.69355
11
1.53077
21
1.69043
0
LINE
8
BLACK
6
CONTINUOUS
10
1.53077
20
1.69043
11
1.5315
21
1.68676
0
LINE
8
BLACK
6
CONTINUOUS
10
1.5315
20
1.68676
11
1.5315
21
1.66757
0
LINE
8
BLACK
6
CONTINUOUS
10
1.5315
20
1.66757
11
1.53077
21
1.6639
0
LINE
8
BLACK
6
CONTINUOUS
10
1.53077
20
1.6639
11
1.52869
21
1.66078
0
LINE
8
BLACK
6
CONTINUOUS
10
1.52869
20
1.66078
11
1.52557
21
1.6587
0
LINE
8
BLACK
6
CONTINUOUS
10
1.52557
20
1.6587
11
1.5219
21
1.65797
0
LINE
8
BLACK
6
CONTINUOUS
10
1.5219
20
1.65797
11
1.48597
21
1.65797
0
LINE
8
BLACK
6
CONTINUOUS
10
1.48597
20
1.65797
11
1.4823
21
1.6587
0
LINE
8
BLACK
6
CONTINUOUS
10
1.4823
20
1.6587
11
1.47919
21
1.66078
0
LINE
8
BLACK
6
CONTINUOUS
10
1.47919
20
1.66078
11
1.47711
21
1.6639
0
LINE
8
BLACK
6
CONTINUOUS
10
1.47711
20
1.6639
11
1.47638
21
1.66757
0
LINE
8
BLACK
6
CONTINUOUS
10
1.47638
20
1.66757
11
1.47638
21
1.68676
0
LINE
8
BLACK
6
CONTINUOUS
10
1.47638
20
1.68676
11
1.47711
21
1.69043
0
LINE
8
BLACK
6
CONTINUOUS
10
1.47711
20
1.69043
11
1.47919
21
1.69355
0
LINE
8
BLACK
6
CONTINUOUS
10
1.47919
20
1.69355
11
1.4823
21
1.69563
0
LINE
8
BLACK
6
CONTINUOUS
10
1.4823
20
1.69563
11
1.48597
21
1.69636
0
LINE
8
BLACK
6
CONTINUOUS
10
1.48597
20
1.69636
11
1.5219
21
1.69636
0
LINE
8
BLACK
6
CONTINUOUS
10
1.5219
20
1.69636
11
1.52557
21
1.69563
0
LINE
8
BLACK
6
CONTINUOUS
10
1.69486
20
1.6971
11
1.69798
21
1.69502
0
LINE
8
BLACK
6
CONTINUOUS
10
1.69798
20
1.69502
11
1.70006
21
1.69191
0
LINE
8
BLACK
6
CONTINUOUS
10
1.70006
20
1.69191
11
1.70079
21
1.68824
0
LINE
8
BLACK
6
CONTINUOUS
10
1.70079
20
1.68824
11
1.70079
21
1.66905
0
LINE
8
BLACK
6
CONTINUOUS
10
1.70079
20
1.66905
11
1.70006
21
1.66537
0
LINE
8
BLACK
6
CONTINUOUS
10
1.70006
20
1.66537
11
1.69798
21
1.66226
0
LINE
8
BLACK
6
CONTINUOUS
10
1.69798
20
1.66226
11
1.69486
21
1.66018
0
LINE
8
BLACK
6
CONTINUOUS
10
1.69486
20
1.66018
11
1.69119
21
1.65945
0
LINE
8
BLACK
6
CONTINUOUS
10
1.69119
20
1.65945
11
1.65527
21
1.65945
0
LINE
8
BLACK
6
CONTINUOUS
10
1.65527
20
1.65945
11
1.65159
21
1.66018
0
LINE
8
BLACK
6
CONTINUOUS
10
1.65159
20
1.66018
11
1.64848
21
1.66226
0
LINE
8
BLACK
6
CONTINUOUS
10
1.64848
20
1.66226
11
1.6464
21
1.66537
0
LINE
8
BLACK
6
CONTINUOUS
10
1.6464
20
1.66537
11
1.64567
21
1.66905
0
LINE
8
BLACK
6
CONTINUOUS
10
1.64567
20
1.66905
11
1.64567
21
1.68824
0
LINE
8
BLACK
6
CONTINUOUS
10
1.64567
20
1.68824
11
1.6464
21
1.69191
0
LINE
8
BLACK
6
CONTINUOUS
10
1.6464
20
1.69191
11
1.64848
21
1.69502
0
LINE
8
BLACK
6
CONTINUOUS
10
1.64848
20
1.69502
11
1.65159
21
1.6971
0
LINE
8
BLACK
6
CONTINUOUS
10
1.65159
20
1.6971
11
1.65527
21
1.69783
0
LINE
8
BLACK
6
CONTINUOUS
10
1.65527
20
1.69783
11
1.69119
21
1.69783
0
LINE
8
BLACK
6
CONTINUOUS
10
1.69119
20
1.69783
11
1.69486
21
1.6971
0
LINE
8
BLACK
6
CONTINUOUS
10
1.52557
20
1.75714
11
1.52869
21
1.75506
0
LINE
8
BLACK
6
CONTINUOUS
10
1.52869
20
1.75506
11
1.53077
21
1.75195
0
LINE
8
BLACK
6
CONTINUOUS
10
1.53077
20
1.75195
11
1.5315
21
1.74828
0
LINE
8
BLACK
6
CONTINUOUS
10
1.5315
20
1.74828
11
1.5315
21
1.72908
0
LINE
8
BLACK
6
CONTINUOUS
10
1.5315
20
1.72908
11
1.53077
21
1.72541
0
LINE
8
BLACK
6
CONTINUOUS
10
1.53077
20
1.72541
11
1.52869
21
1.7223
0
LINE
8
BLACK
6
CONTINUOUS
10
1.52869
20
1.7223
11
1.52557
21
1.72022
0
LINE
8
BLACK
6
CONTINUOUS
10
1.52557
20
1.72022
11
1.5219
21
1.71949
0
LINE
8
BLACK
6
CONTINUOUS
10
1.5219
20
1.71949
11
1.48597
21
1.71949
0
LINE
8
BLACK
6
CONTINUOUS
10
1.48597
20
1.71949
11
1.4823
21
1.72022
0
LINE
8
BLACK
6
CONTINUOUS
10
1.4823
20
1.72022
11
1.47919
21
1.7223
0
LINE
8
BLACK
6
CONTINUOUS
10
1.47919
20
1.7223
11
1.47711
21
1.72541
0
LINE
8
BLACK
6
CONTINUOUS
10
1.47711
20
1.72541
11
1.47638
21
1.72908
0
LINE
8
BLACK
6
CONTINUOUS
10
1.47638
20
1.72908
11
1.47638
21
1.74828
0
LINE
8
BLACK
6
CONTINUOUS
10
1.47638
20
1.74828
11
1.47711
21
1.75195
0
LINE
8
BLACK
6
CONTINUOUS
10
1.47711
20
1.75195
11
1.47919
21
1.75506
0
LINE
8
BLACK
6
CONTINUOUS
10
1.47919
20
1.75506
11
1.4823
21
1.75714
0
LINE
8
BLACK
6
CONTINUOUS
10
1.4823
20
1.75714
11
1.48597
21
1.75787
0
LINE
8
BLACK
6
CONTINUOUS
10
1.48597
20
1.75787
11
1.5219
21
1.75787
0
LINE
8
BLACK
6
CONTINUOUS
10
1.5219
20
1.75787
11
1.52557
21
1.75714
0
LINE
8
BLACK
6
CONTINUOUS
10
1.69486
20
1.75862
11
1.69798
21
1.75654
0
LINE
8
BLACK
6
CONTINUOUS
10
1.69798
20
1.75654
11
1.70006
21
1.75343
0
LINE
8
BLACK
6
CONTINUOUS
10
1.70006
20
1.75343
11
1.70079
21
1.74975
0
LINE
8
BLACK
6
CONTINUOUS
10
1.70079
20
1.74975
11
1.70079
21
1.73056
0
LINE
8
BLACK
6
CONTINUOUS
10
1.70079
20
1.73056
11
1.70006
21
1.72689
0
LINE
8
BLACK
6
CONTINUOUS
10
1.70006
20
1.72689
11
1.69798
21
1.72378
0
LINE
8
BLACK
6
CONTINUOUS
10
1.69798
20
1.72378
11
1.69486
21
1.7217
0
LINE
8
BLACK
6
CONTINUOUS
10
1.69486
20
1.7217
11
1.69119
21
1.72096
0
LINE
8
BLACK
6
CONTINUOUS
10
1.69119
20
1.72096
11
1.65527
21
1.72096
0
LINE
8
BLACK
6
CONTINUOUS
10
1.65527
20
1.72096
11
1.65159
21
1.7217
0
LINE
8
BLACK
6
CONTINUOUS
10
1.65159
20
1.7217
11
1.64848
21
1.72378
0
LINE
8
BLACK
6
CONTINUOUS
10
1.64848
20
1.72378
11
1.6464
21
1.72689
0
LINE
8
BLACK
6
CONTINUOUS
10
1.6464
20
1.72689
11
1.64567
21
1.73056
0
LINE
8
BLACK
6
CONTINUOUS
10
1.64567
20
1.73056
11
1.64567
21
1.74975
0
LINE
8
BLACK
6
CONTINUOUS
10
1.64567
20
1.74975
11
1.6464
21
1.75343
0
LINE
8
BLACK
6
CONTINUOUS
10
1.6464
20
1.75343
11
1.64848
21
1.75654
0
LINE
8
BLACK
6
CONTINUOUS
10
1.64848
20
1.75654
11
1.65159
21
1.75862
0
LINE
8
BLACK
6
CONTINUOUS
10
1.65159
20
1.75862
11
1.65527
21
1.75935
0
LINE
8
BLACK
6
CONTINUOUS
10
1.65527
20
1.75935
11
1.69119
21
1.75935
0
LINE
8
BLACK
6
CONTINUOUS
10
1.69119
20
1.75935
11
1.69486
21
1.75862
0
LINE
8
BLACK
6
CONTINUOUS
10
1.52557
20
1.83096
11
1.52869
21
1.82888
0
LINE
8
BLACK
6
CONTINUOUS
10
1.52869
20
1.82888
11
1.53077
21
1.82577
0
LINE
8
BLACK
6
CONTINUOUS
10
1.53077
20
1.82577
11
1.5315
21
1.8221
0
LINE
8
BLACK
6
CONTINUOUS
10
1.5315
20
1.8221
11
1.5315
21
1.8029
0
LINE
8
BLACK
6
CONTINUOUS
10
1.5315
20
1.8029
11
1.53077
21
1.79923
0
LINE
8
BLACK
6
CONTINUOUS
10
1.53077
20
1.79923
11
1.52869
21
1.79612
0
LINE
8
BLACK
6
CONTINUOUS
10
1.52869
20
1.79612
11
1.52557
21
1.79404
0
LINE
8
BLACK
6
CONTINUOUS
10
1.52557
20
1.79404
11
1.5219
21
1.79331
0
LINE
8
BLACK
6
CONTINUOUS
10
1.5219
20
1.79331
11
1.48597
21
1.79331
0
LINE
8
BLACK
6
CONTINUOUS
10
1.48597
20
1.79331
11
1.4823
21
1.79404
0
LINE
8
BLACK
6
CONTINUOUS
10
1.4823
20
1.79404
11
1.47919
21
1.79612
0
LINE
8
BLACK
6
CONTINUOUS
10
1.47919
20
1.79612
11
1.47711
21
1.79923
0
LINE
8
BLACK
6
CONTINUOUS
10
1.47711
20
1.79923
11
1.47638
21
1.8029
0
LINE
8
BLACK
6
CONTINUOUS
10
1.47638
20
1.8029
11
1.47638
21
1.8221
0
LINE
8
BLACK
6
CONTINUOUS
10
1.47638
20
1.8221
11
1.47711
21
1.82577
0
LINE
8
BLACK
6
CONTINUOUS
10
1.47711
20
1.82577
11
1.47919
21
1.82888
0
LINE
8
BLACK
6
CONTINUOUS
10
1.47919
20
1.82888
11
1.4823
21
1.83096
0
LINE
8
BLACK
6
CONTINUOUS
10
1.4823
20
1.83096
11
1.48597
21
1.83169
0
LINE
8
BLACK
6
CONTINUOUS
10
1.48597
20
1.83169
11
1.5219
21
1.83169
0
LINE
8
BLACK
6
CONTINUOUS
10
1.5219
20
1.83169
11
1.52557
21
1.83096
0
LINE
8
BLACK
6
CONTINUOUS
10
1.69486
20
1.83244
11
1.69798
21
1.83036
0
LINE
8
BLACK
6
CONTINUOUS
10
1.69798
20
1.83036
11
1.70006
21
1.82725
0
LINE
8
BLACK
6
CONTINUOUS
10
1.70006
20
1.82725
11
1.70079
21
1.82357
0
LINE
8
BLACK
6
CONTINUOUS
10
1.70079
20
1.82357
11
1.70079
21
1.80438
0
LINE
8
BLACK
6
CONTINUOUS
10
1.70079
20
1.80438
11
1.70006
21
1.80071
0
LINE
8
BLACK
6
CONTINUOUS
10
1.70006
20
1.80071
11
1.69798
21
1.79759
0
LINE
8
BLACK
6
CONTINUOUS
10
1.69798
20
1.79759
11
1.69486
21
1.79551
0
LINE
8
BLACK
6
CONTINUOUS
10
1.69486
20
1.79551
11
1.69119
21
1.79478
0
LINE
8
BLACK
6
CONTINUOUS
10
1.69119
20
1.79478
11
1.65527
21
1.79478
0
LINE
8
BLACK
6
CONTINUOUS
10
1.65527
20
1.79478
11
1.65159
21
1.79551
0
LINE
8
BLACK
6
CONTINUOUS
10
1.65159
20
1.79551
11
1.64848
21
1.79759
0
LINE
8
BLACK
6
CONTINUOUS
10
1.64848
20
1.79759
11
1.6464
21
1.80071
0
LINE
8
BLACK
6
CONTINUOUS
10
1.6464
20
1.80071
11
1.64567
21
1.80438
0
LINE
8
BLACK
6
CONTINUOUS
10
1.64567
20
1.80438
11
1.64567
21
1.82357
0
LINE
8
BLACK
6
CONTINUOUS
10
1.64567
20
1.82357
11
1.6464
21
1.82725
0
LINE
8
BLACK
6
CONTINUOUS
10
1.6464
20
1.82725
11
1.64848
21
1.83036
0
LINE
8
BLACK
6
CONTINUOUS
10
1.64848
20
1.83036
11
1.65159
21
1.83244
0
LINE
8
BLACK
6
CONTINUOUS
10
1.65159
20
1.83244
11
1.65527
21
1.83317
0
LINE
8
BLACK
6
CONTINUOUS
10
1.65527
20
1.83317
11
1.69119
21
1.83317
0
LINE
8
BLACK
6
CONTINUOUS
10
1.69119
20
1.83317
11
1.69486
21
1.83244
0
LINE
8
BLACK
6
CONTINUOUS
10
1.92795
20
1.81845
11
1.92986
21
1.81717
0
LINE
8
BLACK
6
CONTINUOUS
10
1.92986
20
1.81717
11
1.93114
21
1.81525
0
LINE
8
BLACK
6
CONTINUOUS
10
1.93114
20
1.81525
11
1.93159
21
1.81299
0
LINE
8
BLACK
6
CONTINUOUS
10
1.93159
20
1.81299
11
1.93159
21
1.80118
0
LINE
8
BLACK
6
CONTINUOUS
10
1.93159
20
1.80118
11
1.93114
21
1.79892
0
LINE
8
BLACK
6
CONTINUOUS
10
1.93114
20
1.79892
11
1.92986
21
1.79701
0
LINE
8
BLACK
6
CONTINUOUS
10
1.92986
20
1.79701
11
1.92795
21
1.79573
0
LINE
8
BLACK
6
CONTINUOUS
10
1.92795
20
1.79573
11
1.92569
21
1.79528
0
LINE
8
BLACK
6
CONTINUOUS
10
1.92569
20
1.79528
11
1.88533
21
1.79528
0
LINE
8
BLACK
6
CONTINUOUS
10
1.88533
20
1.79528
11
1.88307
21
1.79573
0
LINE
8
BLACK
6
CONTINUOUS
10
1.88307
20
1.79573
11
1.88116
21
1.79701
0
LINE
8
BLACK
6
CONTINUOUS
10
1.88116
20
1.79701
11
1.87988
21
1.79892
0
LINE
8
BLACK
6
CONTINUOUS
10
1.87988
20
1.79892
11
1.87943
21
1.80118
0
LINE
8
BLACK
6
CONTINUOUS
10
1.87943
20
1.80118
11
1.87943
21
1.81299
0
LINE
8
BLACK
6
CONTINUOUS
10
1.87943
20
1.81299
11
1.87988
21
1.81525
0
LINE
8
BLACK
6
CONTINUOUS
10
1.87988
20
1.81525
11
1.88116
21
1.81717
0
LINE
8
BLACK
6
CONTINUOUS
10
1.88116
20
1.81717
11
1.88307
21
1.81845
0
LINE
8
BLACK
6
CONTINUOUS
10
1.88307
20
1.81845
11
1.88533
21
1.8189
0
LINE
8
BLACK
6
CONTINUOUS
10
1.88533
20
1.8189
11
1.92569
21
1.8189
0
LINE
8
BLACK
6
CONTINUOUS
10
1.92569
20
1.8189
11
1.92795
21
1.81845
0
LINE
8
BLACK
6
CONTINUOUS
10
2.01752
20
1.81845
11
2.01943
21
1.81717
0
LINE
8
BLACK
6
CONTINUOUS
10
2.01943
20
1.81717
11
2.02071
21
1.81525
0
LINE
8
BLACK
6
CONTINUOUS
10
2.02071
20
1.81525
11
2.02116
21
1.81299
0
LINE
8
BLACK
6
CONTINUOUS
10
2.02116
20
1.81299
11
2.02116
21
1.80118
0
LINE
8
BLACK
6
CONTINUOUS
10
2.02116
20
1.80118
11
2.02071
21
1.79892
0
LINE
8
BLACK
6
CONTINUOUS
10
2.02071
20
1.79892
11
2.01943
21
1.79701
0
LINE
8
BLACK
6
CONTINUOUS
10
2.01943
20
1.79701
11
2.01752
21
1.79573
0
LINE
8
BLACK
6
CONTINUOUS
10
2.01752
20
1.79573
11
2.01526
21
1.79528
0
LINE
8
BLACK
6
CONTINUOUS
10
2.01526
20
1.79528
11
1.9749
21
1.79528
0
LINE
8
BLACK
6
CONTINUOUS
10
1.9749
20
1.79528
11
1.97264
21
1.79573
0
LINE
8
BLACK
6
CONTINUOUS
10
1.97264
20
1.79573
11
1.97073
21
1.79701
0
LINE
8
BLACK
6
CONTINUOUS
10
1.97073
20
1.79701
11
1.96945
21
1.79892
0
LINE
8
BLACK
6
CONTINUOUS
10
1.96945
20
1.79892
11
1.969
21
1.80118
0
LINE
8
BLACK
6
CONTINUOUS
10
1.969
20
1.80118
11
1.969
21
1.81299
0
LINE
8
BLACK
6
CONTINUOUS
10
1.969
20
1.81299
11
1.96945
21
1.81525
0
LINE
8
BLACK
6
CONTINUOUS
10
1.96945
20
1.81525
11
1.97073
21
1.81717
0
LINE
8
BLACK
6
CONTINUOUS
10
1.97073
20
1.81717
11
1.97264
21
1.81845
0
LINE
8
BLACK
6
CONTINUOUS
10
1.97264
20
1.81845
11
1.9749
21
1.8189
0
LINE
8
BLACK
6
CONTINUOUS
10
1.9749
20
1.8189
11
2.01526
21
1.8189
0
LINE
8
BLACK
6
CONTINUOUS
10
2.01526
20
1.8189
11
2.01752
21
1.81845
0
LINE
8
BLACK
6
CONTINUOUS
10
1.17124
20
1.85803
11
1.17435
21
1.85595
0
LINE
8
BLACK
6
CONTINUOUS
10
1.17435
20
1.85595
11
1.17643
21
1.85284
0
LINE
8
BLACK
6
CONTINUOUS
10
1.17643
20
1.85284
11
1.17717
21
1.84916
0
LINE
8
BLACK
6
CONTINUOUS
10
1.17717
20
1.84916
11
1.17717
21
1.82997
0
LINE
8
BLACK
6
CONTINUOUS
10
1.17717
20
1.82997
11
1.17643
21
1.8263
0
LINE
8
BLACK
6
CONTINUOUS
10
1.17643
20
1.8263
11
1.17435
21
1.82318
0
LINE
8
BLACK
6
CONTINUOUS
10
1.17435
20
1.82318
11
1.17124
21
1.8211
0
LINE
8
BLACK
6
CONTINUOUS
10
1.17124
20
1.8211
11
1.16757
21
1.82037
0
LINE
8
BLACK
6
CONTINUOUS
10
1.16757
20
1.82037
11
1.13164
21
1.82037
0
LINE
8
BLACK
6
CONTINUOUS
10
1.13164
20
1.82037
11
1.12797
21
1.8211
0
LINE
8
BLACK
6
CONTINUOUS
10
1.12797
20
1.8211
11
1.12486
21
1.82318
0
LINE
8
BLACK
6
CONTINUOUS
10
1.12486
20
1.82318
11
1.12278
21
1.8263
0
LINE
8
BLACK
6
CONTINUOUS
10
1.12278
20
1.8263
11
1.12205
21
1.82997
0
LINE
8
BLACK
6
CONTINUOUS
10
1.12205
20
1.82997
11
1.12205
21
1.84916
0
LINE
8
BLACK
6
CONTINUOUS
10
1.12205
20
1.84916
11
1.12278
21
1.85284
0
LINE
8
BLACK
6
CONTINUOUS
10
1.12278
20
1.85284
11
1.12486
21
1.85595
0
LINE
8
BLACK
6
CONTINUOUS
10
1.12486
20
1.85595
11
1.12797
21
1.85803
0
LINE
8
BLACK
6
CONTINUOUS
10
1.12797
20
1.85803
11
1.13164
21
1.85876
0
LINE
8
BLACK
6
CONTINUOUS
10
1.13164
20
1.85876
11
1.16757
21
1.85876
0
LINE
8
BLACK
6
CONTINUOUS
10
1.16757
20
1.85876
11
1.17124
21
1.85803
0
LINE
8
BLACK
6
CONTINUOUS
10
0.887777
20
1.86197
11
0.89089
21
1.85989
0
LINE
8
BLACK
6
CONTINUOUS
10
0.89089
20
1.85989
11
0.89297
21
1.85677
0
LINE
8
BLACK
6
CONTINUOUS
10
0.89297
20
1.85677
11
0.893701
21
1.8531
0
LINE
8
BLACK
6
CONTINUOUS
10
0.893701
20
1.8531
11
0.893701
21
1.83391
0
LINE
8
BLACK
6
CONTINUOUS
10
0.893701
20
1.83391
11
0.89297
21
1.83024
0
LINE
8
BLACK
6
CONTINUOUS
10
0.89297
20
1.83024
11
0.89089
21
1.82712
0
LINE
8
BLACK
6
CONTINUOUS
10
0.89089
20
1.82712
11
0.887777
21
1.82504
0
LINE
8
BLACK
6
CONTINUOUS
10
0.887777
20
1.82504
11
0.884104
21
1.82431
0
LINE
8
BLACK
6
CONTINUOUS
10
0.884104
20
1.82431
11
0.848179
21
1.82431
0
LINE
8
BLACK
6
CONTINUOUS
10
0.848179
20
1.82431
11
0.844507
21
1.82504
0
LINE
8
BLACK
6
CONTINUOUS
10
0.844507
20
1.82504
11
0.841393
21
1.82712
0
LINE
8
BLACK
6
CONTINUOUS
10
0.841393
20
1.82712
11
0.839313
21
1.83024
0
LINE
8
BLACK
6
CONTINUOUS
10
0.839313
20
1.83024
11
0.838583
21
1.83391
0
LINE
8
BLACK
6
CONTINUOUS
10
0.838583
20
1.83391
11
0.838583
21
1.8531
0
LINE
8
BLACK
6
CONTINUOUS
10
0.838583
20
1.8531
11
0.839313
21
1.85677
0
LINE
8
BLACK
6
CONTINUOUS
10
0.839313
20
1.85677
11
0.841393
21
1.85989
0
LINE
8
BLACK
6
CONTINUOUS
10
0.841393
20
1.85989
11
0.844507
21
1.86197
0
LINE
8
BLACK
6
CONTINUOUS
10
0.844507
20
1.86197
11
0.848179
21
1.8627
0
LINE
8
BLACK
6
CONTINUOUS
10
0.848179
20
1.8627
11
0.884104
21
1.8627
0
LINE
8
BLACK
6
CONTINUOUS
10
0.884104
20
1.8627
11
0.887777
21
1.86197
0
LINE
8
BLACK
6
CONTINUOUS
10
0.663367
20
1.86197
11
0.666481
21
1.85989
0
LINE
8
BLACK
6
CONTINUOUS
10
0.666481
20
1.85989
11
0.668561
21
1.85677
0
LINE
8
BLACK
6
CONTINUOUS
10
0.668561
20
1.85677
11
0.669291
21
1.8531
0
LINE
8
BLACK
6
CONTINUOUS
10
0.669291
20
1.8531
11
0.669291
21
1.83391
0
LINE
8
BLACK
6
CONTINUOUS
10
0.669291
20
1.83391
11
0.668561
21
1.83024
0
LINE
8
BLACK
6
CONTINUOUS
10
0.668561
20
1.83024
11
0.666481
21
1.82712
0
LINE
8
BLACK
6
CONTINUOUS
10
0.666481
20
1.82712
11
0.663367
21
1.82504
0
LINE
8
BLACK
6
CONTINUOUS
10
0.663367
20
1.82504
11
0.659695
21
1.82431
0
LINE
8
BLACK
6
CONTINUOUS
10
0.659695
20
1.82431
11
0.62377
21
1.82431
0
LINE
8
BLACK
6
CONTINUOUS
10
0.62377
20
1.82431
11
0.620097
21
1.82504
0
LINE
8
BLACK
6
CONTINUOUS
10
0.620097
20
1.82504
11
0.616984
21
1.82712
0
LINE
8
BLACK
6
CONTINUOUS
10
0.616984
20
1.82712
11
0.614904
21
1.83024
0
LINE
8
BLACK
6
CONTINUOUS
10
0.614904
20
1.83024
11
0.614173
21
1.83391
0
LINE
8
BLACK
6
CONTINUOUS
10
0.614173
20
1.83391
11
0.614173
21
1.8531
0
LINE
8
BLACK
6
CONTINUOUS
10
0.614173
20
1.8531
11
0.614904
21
1.85677
0
LINE
8
BLACK
6
CONTINUOUS
10
0.614904
20
1.85677
11
0.616984
21
1.85989
0
LINE
8
BLACK
6
CONTINUOUS
10
0.616984
20
1.85989
11
0.620097
21
1.86197
0
LINE
8
BLACK
6
CONTINUOUS
10
0.620097
20
1.86197
11
0.62377
21
1.8627
0
LINE
8
BLACK
6
CONTINUOUS
10
0.62377
20
1.8627
11
0.659695
21
1.8627
0
LINE
8
BLACK
6
CONTINUOUS
10
0.659695
20
1.8627
11
0.663367
21
1.86197
0
LINE
8
BLACK
6
CONTINUOUS
10
0.765729
20
1.86197
11
0.768843
21
1.85989
0
LINE
8
BLACK
6
CONTINUOUS
10
0.768843
20
1.85989
11
0.770923
21
1.85677
0
LINE
8
BLACK
6
CONTINUOUS
10
0.770923
20
1.85677
11
0.771654
21
1.8531
0
LINE
8
BLACK
6
CONTINUOUS
10
0.771654
20
1.8531
11
0.771654
21
1.83391
0
LINE
8
BLACK
6
CONTINUOUS
10
0.771654
20
1.83391
11
0.770923
21
1.83024
0
LINE
8
BLACK
6
CONTINUOUS
10
0.770923
20
1.83024
11
0.768843
21
1.82712
0
LINE
8
BLACK
6
CONTINUOUS
10
0.768843
20
1.82712
11
0.765729
21
1.82504
0
LINE
8
BLACK
6
CONTINUOUS
10
0.765729
20
1.82504
11
0.762057
21
1.82431
0
LINE
8
BLACK
6
CONTINUOUS
10
0.762057
20
1.82431
11
0.726132
21
1.82431
0
LINE
8
BLACK
6
CONTINUOUS
10
0.726132
20
1.82431
11
0.722459
21
1.82504
0
LINE
8
BLACK
6
CONTINUOUS
10
0.722459
20
1.82504
11
0.719346
21
1.82712
0
LINE
8
BLACK
6
CONTINUOUS
10
0.719346
20
1.82712
11
0.717266
21
1.83024
0
LINE
8
BLACK
6
CONTINUOUS
10
0.717266
20
1.83024
11
0.716535
21
1.83391
0
LINE
8
BLACK
6
CONTINUOUS
10
0.716535
20
1.83391
11
0.716535
21
1.8531
0
LINE
8
BLACK
6
CONTINUOUS
10
0.716535
20
1.8531
11
0.717266
21
1.85677
0
LINE
8
BLACK
6
CONTINUOUS
10
0.717266
20
1.85677
11
0.719346
21
1.85989
0
LINE
8
BLACK
6
CONTINUOUS
10
0.719346
20
1.85989
11
0.722459
21
1.86197
0
LINE
8
BLACK
6
CONTINUOUS
10
0.722459
20
1.86197
11
0.726132
21
1.8627
0
LINE
8
BLACK
6
CONTINUOUS
10
0.726132
20
1.8627
11
0.762057
21
1.8627
0
LINE
8
BLACK
6
CONTINUOUS
10
0.762057
20
1.8627
11
0.765729
21
1.86197
0
LINE
8
BLACK
6
CONTINUOUS
10
1.01376
20
1.86344
11
1.01687
21
1.86136
0
LINE
8
BLACK
6
CONTINUOUS
10
1.01687
20
1.86136
11
1.01895
21
1.85825
0
LINE
8
BLACK
6
CONTINUOUS
10
1.01895
20
1.85825
11
1.01969
21
1.85458
0
LINE
8
BLACK
6
CONTINUOUS
10
1.01969
20
1.85458
11
1.01969
21
1.83538
0
LINE
8
BLACK
6
CONTINUOUS
10
1.01969
20
1.83538
11
1.01895
21
1.83171
0
LINE
8
BLACK
6
CONTINUOUS
10
1.01895
20
1.83171
11
1.01687
21
1.8286
0
LINE
8
BLACK
6
CONTINUOUS
10
1.01687
20
1.8286
11
1.01376
21
1.82652
0
LINE
8
BLACK
6
CONTINUOUS
10
1.01376
20
1.82652
11
1.01009
21
1.82579
0
LINE
8
BLACK
6
CONTINUOUS
10
1.01009
20
1.82579
11
0.974163
21
1.82579
0
LINE
8
BLACK
6
CONTINUOUS
10
0.974163
20
1.82579
11
0.970491
21
1.82652
0
LINE
8
BLACK
6
CONTINUOUS
10
0.970491
20
1.82652
11
0.967378
21
1.8286
0
LINE
8
BLACK
6
CONTINUOUS
10
0.967378
20
1.8286
11
0.965297
21
1.83171
0
LINE
8
BLACK
6
CONTINUOUS
10
0.965297
20
1.83171
11
0.964567
21
1.83538
0
LINE
8
BLACK
6
CONTINUOUS
10
0.964567
20
1.83538
11
0.964567
21
1.85458
0
LINE
8
BLACK
6
CONTINUOUS
10
0.964567
20
1.85458
11
0.965297
21
1.85825
0
LINE
8
BLACK
6
CONTINUOUS
10
0.965297
20
1.85825
11
0.967378
21
1.86136
0
LINE
8
BLACK
6
CONTINUOUS
10
0.967378
20
1.86136
11
0.970491
21
1.86344
0
LINE
8
BLACK
6
CONTINUOUS
10
0.970491
20
1.86344
11
0.974163
21
1.86417
0
LINE
8
BLACK
6
CONTINUOUS
10
0.974163
20
1.86417
11
1.01009
21
1.86417
0
LINE
8
BLACK
6
CONTINUOUS
10
1.01009
20
1.86417
11
1.01376
21
1.86344
0
LINE
8
BLACK
6
CONTINUOUS
10
2.01752
20
1.85585
11
2.01943
21
1.85457
0
LINE
8
BLACK
6
CONTINUOUS
10
2.01943
20
1.85457
11
2.02071
21
1.85265
0
LINE
8
BLACK
6
CONTINUOUS
10
2.02071
20
1.85265
11
2.02116
21
1.85039
0
LINE
8
BLACK
6
CONTINUOUS
10
2.02116
20
1.85039
11
2.02116
21
1.83858
0
LINE
8
BLACK
6
CONTINUOUS
10
2.02116
20
1.83858
11
2.02071
21
1.83632
0
LINE
8
BLACK
6
CONTINUOUS
10
2.02071
20
1.83632
11
2.01943
21
1.83441
0
LINE
8
BLACK
6
CONTINUOUS
10
2.01943
20
1.83441
11
2.01752
21
1.83313
0
LINE
8
BLACK
6
CONTINUOUS
10
2.01752
20
1.83313
11
2.01526
21
1.83268
0
LINE
8
BLACK
6
CONTINUOUS
10
2.01526
20
1.83268
11
1.9749
21
1.83268
0
LINE
8
BLACK
6
CONTINUOUS
10
1.9749
20
1.83268
11
1.97264
21
1.83313
0
LINE
8
BLACK
6
CONTINUOUS
10
1.97264
20
1.83313
11
1.97073
21
1.83441
0
LINE
8
BLACK
6
CONTINUOUS
10
1.97073
20
1.83441
11
1.96945
21
1.83632
0
LINE
8
BLACK
6
CONTINUOUS
10
1.96945
20
1.83632
11
1.969
21
1.83858
0
LINE
8
BLACK
6
CONTINUOUS
10
1.969
20
1.83858
11
1.969
21
1.85039
0
LINE
8
BLACK
6
CONTINUOUS
10
1.969
20
1.85039
11
1.96945
21
1.85265
0
LINE
8
BLACK
6
CONTINUOUS
10
1.96945
20
1.85265
11
1.97073
21
1.85457
0
LINE
8
BLACK
6
CONTINUOUS
10
1.97073
20
1.85457
11
1.97264
21
1.85585
0
LINE
8
BLACK
6
CONTINUOUS
10
1.97264
20
1.85585
11
1.9749
21
1.8563
0
LINE
8
BLACK
6
CONTINUOUS
10
1.9749
20
1.8563
11
2.01526
21
1.8563
0
LINE
8
BLACK
6
CONTINUOUS
10
2.01526
20
1.8563
11
2.01752
21
1.85585
0
LINE
8
BLACK
6
CONTINUOUS
10
0.470454
20
1.87132
11
0.473567
21
1.86924
0
LINE
8
BLACK
6
CONTINUOUS
10
0.473567
20
1.86924
11
0.475647
21
1.86612
0
LINE
8
BLACK
6
CONTINUOUS
10
0.475647
20
1.86612
11
0.476378
21
1.86245
0
LINE
8
BLACK
6
CONTINUOUS
10
0.476378
20
1.86245
11
0.476378
21
1.84326
0
LINE
8
BLACK
6
CONTINUOUS
10
0.476378
20
1.84326
11
0.475647
21
1.83959
0
LINE
8
BLACK
6
CONTINUOUS
10
0.475647
20
1.83959
11
0.473567
21
1.83647
0
LINE
8
BLACK
6
CONTINUOUS
10
0.473567
20
1.83647
11
0.470454
21
1.83439
0
LINE
8
BLACK
6
CONTINUOUS
10
0.470454
20
1.83439
11
0.466781
21
1.83366
0
LINE
8
BLACK
6
CONTINUOUS
10
0.466781
20
1.83366
11
0.430856
21
1.83366
0
LINE
8
BLACK
6
CONTINUOUS
10
0.430856
20
1.83366
11
0.427184
21
1.83439
0
LINE
8
BLACK
6
CONTINUOUS
10
0.427184
20
1.83439
11
0.424071
21
1.83647
0
LINE
8
BLACK
6
CONTINUOUS
10
0.424071
20
1.83647
11
0.42199
21
1.83959
0
LINE
8
BLACK
6
CONTINUOUS
10
0.42199
20
1.83959
11
0.42126
21
1.84326
0
LINE
8
BLACK
6
CONTINUOUS
10
0.42126
20
1.84326
11
0.42126
21
1.86245
0
LINE
8
BLACK
6
CONTINUOUS
10
0.42126
20
1.86245
11
0.42199
21
1.86612
0
LINE
8
BLACK
6
CONTINUOUS
10
0.42199
20
1.86612
11
0.424071
21
1.86924
0
LINE
8
BLACK
6
CONTINUOUS
10
0.424071
20
1.86924
11
0.427184
21
1.87132
0
LINE
8
BLACK
6
CONTINUOUS
10
0.427184
20
1.87132
11
0.430856
21
1.87205
0
LINE
8
BLACK
6
CONTINUOUS
10
0.430856
20
1.87205
11
0.466781
21
1.87205
0
LINE
8
BLACK
6
CONTINUOUS
10
0.466781
20
1.87205
11
0.470454
21
1.87132
0
LINE
8
BLACK
6
CONTINUOUS
10
0.324785
20
1.87378
11
0.327898
21
1.8717
0
LINE
8
BLACK
6
CONTINUOUS
10
0.327898
20
1.8717
11
0.329978
21
1.86858
0
LINE
8
BLACK
6
CONTINUOUS
10
0.329978
20
1.86858
11
0.330709
21
1.86491
0
LINE
8
BLACK
6
CONTINUOUS
10
0.330709
20
1.86491
11
0.330709
21
1.84572
0
LINE
8
BLACK
6
CONTINUOUS
10
0.330709
20
1.84572
11
0.329978
21
1.84205
0
LINE
8
BLACK
6
CONTINUOUS
10
0.329978
20
1.84205
11
0.327898
21
1.83893
0
LINE
8
BLACK
6
CONTINUOUS
10
0.327898
20
1.83893
11
0.324785
21
1.83685
0
LINE
8
BLACK
6
CONTINUOUS
10
0.324785
20
1.83685
11
0.321112
21
1.83612
0
LINE
8
BLACK
6
CONTINUOUS
10
0.321112
20
1.83612
11
0.285187
21
1.83612
0
LINE
8
BLACK
6
CONTINUOUS
10
0.285187
20
1.83612
11
0.281515
21
1.83685
0
LINE
8
BLACK
6
CONTINUOUS
10
0.281515
20
1.83685
11
0.278401
21
1.83893
0
LINE
8
BLACK
6
CONTINUOUS
10
0.278401
20
1.83893
11
0.276321
21
1.84205
0
LINE
8
BLACK
6
CONTINUOUS
10
0.276321
20
1.84205
11
0.275591
21
1.84572
0
LINE
8
BLACK
6
CONTINUOUS
10
0.275591
20
1.84572
11
0.275591
21
1.86491
0
LINE
8
BLACK
6
CONTINUOUS
10
0.275591
20
1.86491
11
0.276321
21
1.86858
0
LINE
8
BLACK
6
CONTINUOUS
10
0.276321
20
1.86858
11
0.278401
21
1.8717
0
LINE
8
BLACK
6
CONTINUOUS
10
0.278401
20
1.8717
11
0.281515
21
1.87378
0
LINE
8
BLACK
6
CONTINUOUS
10
0.281515
20
1.87378
11
0.285187
21
1.87451
0
LINE
8
BLACK
6
CONTINUOUS
10
0.285187
20
1.87451
11
0.321112
21
1.87451
0
LINE
8
BLACK
6
CONTINUOUS
10
0.321112
20
1.87451
11
0.324785
21
1.87378
0
LINE
8
BLACK
6
CONTINUOUS
10
2.01752
20
1.89325
11
2.01943
21
1.89197
0
LINE
8
BLACK
6
CONTINUOUS
10
2.01943
20
1.89197
11
2.02071
21
1.89006
0
LINE
8
BLACK
6
CONTINUOUS
10
2.02071
20
1.89006
11
2.02116
21
1.8878
0
LINE
8
BLACK
6
CONTINUOUS
10
2.02116
20
1.8878
11
2.02116
21
1.87598
0
LINE
8
BLACK
6
CONTINUOUS
10
2.02116
20
1.87598
11
2.02071
21
1.87372
0
LINE
8
BLACK
6
CONTINUOUS
10
2.02071
20
1.87372
11
2.01943
21
1.87181
0
LINE
8
BLACK
6
CONTINUOUS
10
2.01943
20
1.87181
11
2.01752
21
1.87053
0
LINE
8
BLACK
6
CONTINUOUS
10
2.01752
20
1.87053
11
2.01526
21
1.87008
0
LINE
8
BLACK
6
CONTINUOUS
10
2.01526
20
1.87008
11
1.9749
21
1.87008
0
LINE
8
BLACK
6
CONTINUOUS
10
1.9749
20
1.87008
11
1.97264
21
1.87053
0
LINE
8
BLACK
6
CONTINUOUS
10
1.97264
20
1.87053
11
1.97073
21
1.87181
0
LINE
8
BLACK
6
CONTINUOUS
10
1.97073
20
1.87181
11
1.96945
21
1.87372
0
LINE
8
BLACK
6
CONTINUOUS
10
1.96945
20
1.87372
11
1.969
21
1.87598
0
LINE
8
BLACK
6
CONTINUOUS
10
1.969
20
1.87598
11
1.969
21
1.8878
0
LINE
8
BLACK
6
CONTINUOUS
10
1.969
20
1.8878
11
1.96945
21
1.89006
0
LINE
8
BLACK
6
CONTINUOUS
10
1.96945
20
1.89006
11
1.97073
21
1.89197
0
LINE
8
BLACK
6
CONTINUOUS
10
1.97073
20
1.89197
11
1.97264
21
1.89325
0
LINE
8
BLACK
6
CONTINUOUS
10
1.97264
20
1.89325
11
1.9749
21
1.8937
0
LINE
8
BLACK
6
CONTINUOUS
10
1.9749
20
1.8937
11
2.01526
21
1.8937
0
LINE
8
BLACK
6
CONTINUOUS
10
2.01526
20
1.8937
11
2.01752
21
1.89325
0
LINE
8
BLACK
6
CONTINUOUS
10
1.92795
20
1.89325
11
1.92986
21
1.89197
0
LINE
8
BLACK
6
CONTINUOUS
10
1.92986
20
1.89197
11
1.93114
21
1.89006
0
LINE
8
BLACK
6
CONTINUOUS
10
1.93114
20
1.89006
11
1.93159
21
1.8878
0
LINE
8
BLACK
6
CONTINUOUS
10
1.93159
20
1.8878
11
1.93159
21
1.87598
0
LINE
8
BLACK
6
CONTINUOUS
10
1.93159
20
1.87598
11
1.93114
21
1.87372
0
LINE
8
BLACK
6
CONTINUOUS
10
1.93114
20
1.87372
11
1.92986
21
1.87181
0
LINE
8
BLACK
6
CONTINUOUS
10
1.92986
20
1.87181
11
1.92795
21
1.87053
0
LINE
8
BLACK
6
CONTINUOUS
10
1.92795
20
1.87053
11
1.92569
21
1.87008
0
LINE
8
BLACK
6
CONTINUOUS
10
1.92569
20
1.87008
11
1.88533
21
1.87008
0
LINE
8
BLACK
6
CONTINUOUS
10
1.88533
20
1.87008
11
1.88307
21
1.87053
0
LINE
8
BLACK
6
CONTINUOUS
10
1.88307
20
1.87053
11
1.88116
21
1.87181
0
LINE
8
BLACK
6
CONTINUOUS
10
1.88116
20
1.87181
11
1.87988
21
1.87372
0
LINE
8
BLACK
6
CONTINUOUS
10
1.87988
20
1.87372
11
1.87943
21
1.87598
0
LINE
8
BLACK
6
CONTINUOUS
10
1.87943
20
1.87598
11
1.87943
21
1.8878
0
LINE
8
BLACK
6
CONTINUOUS
10
1.87943
20
1.8878
11
1.87988
21
1.89006
0
LINE
8
BLACK
6
CONTINUOUS
10
1.87988
20
1.89006
11
1.88116
21
1.89197
0
LINE
8
BLACK
6
CONTINUOUS
10
1.88116
20
1.89197
11
1.88307
21
1.89325
0
LINE
8
BLACK
6
CONTINUOUS
10
1.88307
20
1.89325
11
1.88533
21
1.8937
0
LINE
8
BLACK
6
CONTINUOUS
10
1.88533
20
1.8937
11
1.92569
21
1.8937
0
LINE
8
BLACK
6
CONTINUOUS
10
1.92569
20
1.8937
11
1.92795
21
1.89325
0
LINE
8
BLACK
6
CONTINUOUS
10
1.17124
20
1.93185
11
1.17435
21
1.92977
0
LINE
8
BLACK
6
CONTINUOUS
10
1.17435
20
1.92977
11
1.17643
21
1.92665
0
LINE
8
BLACK
6
CONTINUOUS
10
1.17643
20
1.92665
11
1.17717
21
1.92298
0
LINE
8
BLACK
6
CONTINUOUS
10
1.17717
20
1.92298
11
1.17717
21
1.90379
0
LINE
8
BLACK
6
CONTINUOUS
10
1.17717
20
1.90379
11
1.17643
21
1.90012
0
LINE
8
BLACK
6
CONTINUOUS
10
1.17643
20
1.90012
11
1.17435
21
1.897
0
LINE
8
BLACK
6
CONTINUOUS
10
1.17435
20
1.897
11
1.17124
21
1.89492
0
LINE
8
BLACK
6
CONTINUOUS
10
1.17124
20
1.89492
11
1.16757
21
1.89419
0
LINE
8
BLACK
6
CONTINUOUS
10
1.16757
20
1.89419
11
1.13164
21
1.89419
0
LINE
8
BLACK
6
CONTINUOUS
10
1.13164
20
1.89419
11
1.12797
21
1.89492
0
LINE
8
BLACK
6
CONTINUOUS
10
1.12797
20
1.89492
11
1.12486
21
1.897
0
LINE
8
BLACK
6
CONTINUOUS
10
1.12486
20
1.897
11
1.12278
21
1.90012
0
LINE
8
BLACK
6
CONTINUOUS
10
1.12278
20
1.90012
11
1.12205
21
1.90379
0
LINE
8
BLACK
6
CONTINUOUS
10
1.12205
20
1.90379
11
1.12205
21
1.92298
0
LINE
8
BLACK
6
CONTINUOUS
10
1.12205
20
1.92298
11
1.12278
21
1.92665
0
LINE
8
BLACK
6
CONTINUOUS
10
1.12278
20
1.92665
11
1.12486
21
1.92977
0
LINE
8
BLACK
6
CONTINUOUS
10
1.12486
20
1.92977
11
1.12797
21
1.93185
0
LINE
8
BLACK
6
CONTINUOUS
10
1.12797
20
1.93185
11
1.13164
21
1.93258
0
LINE
8
BLACK
6
CONTINUOUS
10
1.13164
20
1.93258
11
1.16757
21
1.93258
0
LINE
8
BLACK
6
CONTINUOUS
10
1.16757
20
1.93258
11
1.17124
21
1.93185
0
LINE
8
BLACK
6
CONTINUOUS
10
0.887777
20
1.93579
11
0.89089
21
1.93371
0
LINE
8
BLACK
6
CONTINUOUS
10
0.89089
20
1.93371
11
0.89297
21
1.93059
0
LINE
8
BLACK
6
CONTINUOUS
10
0.89297
20
1.93059
11
0.893701
21
1.92692
0
LINE
8
BLACK
6
CONTINUOUS
10
0.893701
20
1.92692
11
0.893701
21
1.90773
0
LINE
8
BLACK
6
CONTINUOUS
10
0.893701
20
1.90773
11
0.89297
21
1.90405
0
LINE
8
BLACK
6
CONTINUOUS
10
0.89297
20
1.90405
11
0.89089
21
1.90094
0
LINE
8
BLACK
6
CONTINUOUS
10
0.89089
20
1.90094
11
0.887777
21
1.89886
0
LINE
8
BLACK
6
CONTINUOUS
10
0.887777
20
1.89886
11
0.884104
21
1.89813
0
LINE
8
BLACK
6
CONTINUOUS
10
0.884104
20
1.89813
11
0.848179
21
1.89813
0
LINE
8
BLACK
6
CONTINUOUS
10
0.848179
20
1.89813
11
0.844507
21
1.89886
0
LINE
8
BLACK
6
CONTINUOUS
10
0.844507
20
1.89886
11
0.841393
21
1.90094
0
LINE
8
BLACK
6
CONTINUOUS
10
0.841393
20
1.90094
11
0.839313
21
1.90405
0
LINE
8
BLACK
6
CONTINUOUS
10
0.839313
20
1.90405
11
0.838583
21
1.90773
0
LINE
8
BLACK
6
CONTINUOUS
10
0.838583
20
1.90773
11
0.838583
21
1.92692
0
LINE
8
BLACK
6
CONTINUOUS
10
0.838583
20
1.92692
11
0.839313
21
1.93059
0
LINE
8
BLACK
6
CONTINUOUS
10
0.839313
20
1.93059
11
0.841393
21
1.93371
0
LINE
8
BLACK
6
CONTINUOUS
10
0.841393
20
1.93371
11
0.844507
21
1.93579
0
LINE
8
BLACK
6
CONTINUOUS
10
0.844507
20
1.93579
11
0.848179
21
1.93652
0
LINE
8
BLACK
6
CONTINUOUS
10
0.848179
20
1.93652
11
0.884104
21
1.93652
0
LINE
8
BLACK
6
CONTINUOUS
10
0.884104
20
1.93652
11
0.887777
21
1.93579
0
LINE
8
BLACK
6
CONTINUOUS
10
0.663367
20
1.93579
11
0.666481
21
1.93371
0
LINE
8
BLACK
6
CONTINUOUS
10
0.666481
20
1.93371
11
0.668561
21
1.93059
0
LINE
8
BLACK
6
CONTINUOUS
10
0.668561
20
1.93059
11
0.669291
21
1.92692
0
LINE
8
BLACK
6
CONTINUOUS
10
0.669291
20
1.92692
11
0.669291
21
1.90773
0
LINE
8
BLACK
6
CONTINUOUS
10
0.669291
20
1.90773
11
0.668561
21
1.90405
0
LINE
8
BLACK
6
CONTINUOUS
10
0.668561
20
1.90405
11
0.666481
21
1.90094
0
LINE
8
BLACK
6
CONTINUOUS
10
0.666481
20
1.90094
11
0.663367
21
1.89886
0
LINE
8
BLACK
6
CONTINUOUS
10
0.663367
20
1.89886
11
0.659695
21
1.89813
0
LINE
8
BLACK
6
CONTINUOUS
10
0.659695
20
1.89813
11
0.62377
21
1.89813
0
LINE
8
BLACK
6
CONTINUOUS
10
0.62377
20
1.89813
11
0.620097
21
1.89886
0
LINE
8
BLACK
6
CONTINUOUS
10
0.620097
20
1.89886
11
0.616984
21
1.90094
0
LINE
8
BLACK
6
CONTINUOUS
10
0.616984
20
1.90094
11
0.614904
21
1.90405
0
LINE
8
BLACK
6
CONTINUOUS
10
0.614904
20
1.90405
11
0.614173
21
1.90773
0
LINE
8
BLACK
6
CONTINUOUS
10
0.614173
20
1.90773
11
0.614173
21
1.92692
0
LINE
8
BLACK
6
CONTINUOUS
10
0.614173
20
1.92692
11
0.614904
21
1.93059
0
LINE
8
BLACK
6
CONTINUOUS
10
0.614904
20
1.93059
11
0.616984
21
1.93371
0
LINE
8
BLACK
6
CONTINUOUS
10
0.616984
20
1.93371
11
0.620097
21
1.93579
0
LINE
8
BLACK
6
CONTINUOUS
10
0.620097
20
1.93579
11
0.62377
21
1.93652
0
LINE
8
BLACK
6
CONTINUOUS
10
0.62377
20
1.93652
11
0.659695
21
1.93652
0
LINE
8
BLACK
6
CONTINUOUS
10
0.659695
20
1.93652
11
0.663367
21
1.93579
0
LINE
8
BLACK
6
CONTINUOUS
10
0.765729
20
1.93579
11
0.768843
21
1.93371
0
LINE
8
BLACK
6
CONTINUOUS
10
0.768843
20
1.93371
11
0.770923
21
1.93059
0
LINE
8
BLACK
6
CONTINUOUS
10
0.770923
20
1.93059
11
0.771654
21
1.92692
0
LINE
8
BLACK
6
CONTINUOUS
10
0.771654
20
1.92692
11
0.771654
21
1.90773
0
LINE
8
BLACK
6
CONTINUOUS
10
0.771654
20
1.90773
11
0.770923
21
1.90405
0
LINE
8
BLACK
6
CONTINUOUS
10
0.770923
20
1.90405
11
0.768843
21
1.90094
0
LINE
8
BLACK
6
CONTINUOUS
10
0.768843
20
1.90094
11
0.765729
21
1.89886
0
LINE
8
BLACK
6
CONTINUOUS
10
0.765729
20
1.89886
11
0.762057
21
1.89813
0
LINE
8
BLACK
6
CONTINUOUS
10
0.762057
20
1.89813
11
0.726132
21
1.89813
0
LINE
8
BLACK
6
CONTINUOUS
10
0.726132
20
1.89813
11
0.722459
21
1.89886
0
LINE
8
BLACK
6
CONTINUOUS
10
0.722459
20
1.89886
11
0.719346
21
1.90094
0
LINE
8
BLACK
6
CONTINUOUS
10
0.719346
20
1.90094
11
0.717266
21
1.90405
0
LINE
8
BLACK
6
CONTINUOUS
10
0.717266
20
1.90405
11
0.716535
21
1.90773
0
LINE
8
BLACK
6
CONTINUOUS
10
0.716535
20
1.90773
11
0.716535
21
1.92692
0
LINE
8
BLACK
6
CONTINUOUS
10
0.716535
20
1.92692
11
0.717266
21
1.93059
0
LINE
8
BLACK
6
CONTINUOUS
10
0.717266
20
1.93059
11
0.719346
21
1.93371
0
LINE
8
BLACK
6
CONTINUOUS
10
0.719346
20
1.93371
11
0.722459
21
1.93579
0
LINE
8
BLACK
6
CONTINUOUS
10
0.722459
20
1.93579
11
0.726132
21
1.93652
0
LINE
8
BLACK
6
CONTINUOUS
10
0.726132
20
1.93652
11
0.762057
21
1.93652
0
LINE
8
BLACK
6
CONTINUOUS
10
0.762057
20
1.93652
11
0.765729
21
1.93579
0
LINE
8
BLACK
6
CONTINUOUS
10
1.01376
20
1.93726
11
1.01687
21
1.93518
0
LINE
8
BLACK
6
CONTINUOUS
10
1.01687
20
1.93518
11
1.01895
21
1.93207
0
LINE
8
BLACK
6
CONTINUOUS
10
1.01895
20
1.93207
11
1.01969
21
1.9284
0
LINE
8
BLACK
6
CONTINUOUS
10
1.01969
20
1.9284
11
1.01969
21
1.9092
0
LINE
8
BLACK
6
CONTINUOUS
10
1.01969
20
1.9092
11
1.01895
21
1.90553
0
LINE
8
BLACK
6
CONTINUOUS
10
1.01895
20
1.90553
11
1.01687
21
1.90242
0
LINE
8
BLACK
6
CONTINUOUS
10
1.01687
20
1.90242
11
1.01376
21
1.90034
0
LINE
8
BLACK
6
CONTINUOUS
10
1.01376
20
1.90034
11
1.01009
21
1.89961
0
LINE
8
BLACK
6
CONTINUOUS
10
1.01009
20
1.89961
11
0.974163
21
1.89961
0
LINE
8
BLACK
6
CONTINUOUS
10
0.974163
20
1.89961
11
0.970491
21
1.90034
0
LINE
8
BLACK
6
CONTINUOUS
10
0.970491
20
1.90034
11
0.967378
21
1.90242
0
LINE
8
BLACK
6
CONTINUOUS
10
0.967378
20
1.90242
11
0.965297
21
1.90553
0
LINE
8
BLACK
6
CONTINUOUS
10
0.965297
20
1.90553
11
0.964567
21
1.9092
0
LINE
8
BLACK
6
CONTINUOUS
10
0.964567
20
1.9092
11
0.964567
21
1.9284
0
LINE
8
BLACK
6
CONTINUOUS
10
0.964567
20
1.9284
11
0.965297
21
1.93207
0
LINE
8
BLACK
6
CONTINUOUS
10
0.965297
20
1.93207
11
0.967378
21
1.93518
0
LINE
8
BLACK
6
CONTINUOUS
10
0.967378
20
1.93518
11
0.970491
21
1.93726
0
LINE
8
BLACK
6
CONTINUOUS
10
0.970491
20
1.93726
11
0.974163
21
1.93799
0
LINE
8
BLACK
6
CONTINUOUS
10
0.974163
20
1.93799
11
1.01009
21
1.93799
0
LINE
8
BLACK
6
CONTINUOUS
10
1.01009
20
1.93799
11
1.01376
21
1.93726
0
LINE
8
BLACK
6
CONTINUOUS
10
1.98605
20
1.96086
11
1.98924
21
1.95873
0
LINE
8
BLACK
6
CONTINUOUS
10
1.98924
20
1.95873
11
1.99138
21
1.95554
0
LINE
8
BLACK
6
CONTINUOUS
10
1.99138
20
1.95554
11
1.99213
21
1.95177
0
LINE
8
BLACK
6
CONTINUOUS
10
1.99213
20
1.95177
11
1.99213
21
1.91437
0
LINE
8
BLACK
6
CONTINUOUS
10
1.99213
20
1.91437
11
1.99138
21
1.9106
0
LINE
8
BLACK
6
CONTINUOUS
10
1.99138
20
1.9106
11
1.98924
21
1.90741
0
LINE
8
BLACK
6
CONTINUOUS
10
1.98924
20
1.90741
11
1.98605
21
1.90528
0
LINE
8
BLACK
6
CONTINUOUS
10
1.98605
20
1.90528
11
1.98228
21
1.90453
0
LINE
8
BLACK
6
CONTINUOUS
10
1.98228
20
1.90453
11
1.9626
21
1.90453
0
LINE
8
BLACK
6
CONTINUOUS
10
1.9626
20
1.90453
11
1.95883
21
1.90528
0
LINE
8
BLACK
6
CONTINUOUS
10
1.95883
20
1.90528
11
1.95564
21
1.90741
0
LINE
8
BLACK
6
CONTINUOUS
10
1.95564
20
1.90741
11
1.95351
21
1.9106
0
LINE
8
BLACK
6
CONTINUOUS
10
1.95351
20
1.9106
11
1.95276
21
1.91437
0
LINE
8
BLACK
6
CONTINUOUS
10
1.95276
20
1.91437
11
1.95276
21
1.95177
0
LINE
8
BLACK
6
CONTINUOUS
10
1.95276
20
1.95177
11
1.95351
21
1.95554
0
LINE
8
BLACK
6
CONTINUOUS
10
1.95351
20
1.95554
11
1.95564
21
1.95873
0
LINE
8
BLACK
6
CONTINUOUS
10
1.95564
20
1.95873
11
1.95883
21
1.96086
0
LINE
8
BLACK
6
CONTINUOUS
10
1.95883
20
1.96086
11
1.9626
21
1.96161
0
LINE
8
BLACK
6
CONTINUOUS
10
1.9626
20
1.96161
11
1.98228
21
1.96161
0
LINE
8
BLACK
6
CONTINUOUS
10
1.98228
20
1.96161
11
1.98605
21
1.96086
0
LINE
8
BLACK
6
CONTINUOUS
10
1.91125
20
1.96086
11
1.91444
21
1.95873
0
LINE
8
BLACK
6
CONTINUOUS
10
1.91444
20
1.95873
11
1.91657
21
1.95554
0
LINE
8
BLACK
6
CONTINUOUS
10
1.91657
20
1.95554
11
1.91732
21
1.95177
0
LINE
8
BLACK
6
CONTINUOUS
10
1.91732
20
1.95177
11
1.91732
21
1.91437
0
LINE
8
BLACK
6
CONTINUOUS
10
1.91732
20
1.91437
11
1.91657
21
1.9106
0
LINE
8
BLACK
6
CONTINUOUS
10
1.91657
20
1.9106
11
1.91444
21
1.90741
0
LINE
8
BLACK
6
CONTINUOUS
10
1.91444
20
1.90741
11
1.91125
21
1.90528
0
LINE
8
BLACK
6
CONTINUOUS
10
1.91125
20
1.90528
11
1.90748
21
1.90453
0
LINE
8
BLACK
6
CONTINUOUS
10
1.90748
20
1.90453
11
1.8878
21
1.90453
0
LINE
8
BLACK
6
CONTINUOUS
10
1.8878
20
1.90453
11
1.88403
21
1.90528
0
LINE
8
BLACK
6
CONTINUOUS
10
1.88403
20
1.90528
11
1.88084
21
1.90741
0
LINE
8
BLACK
6
CONTINUOUS
10
1.88084
20
1.90741
11
1.8787
21
1.9106
0
LINE
8
BLACK
6
CONTINUOUS
10
1.8787
20
1.9106
11
1.87795
21
1.91437
0
LINE
8
BLACK
6
CONTINUOUS
10
1.87795
20
1.91437
11
1.87795
21
1.95177
0
LINE
8
BLACK
6
CONTINUOUS
10
1.87795
20
1.95177
11
1.8787
21
1.95554
0
LINE
8
BLACK
6
CONTINUOUS
10
1.8787
20
1.95554
11
1.88084
21
1.95873
0
LINE
8
BLACK
6
CONTINUOUS
10
1.88084
20
1.95873
11
1.88403
21
1.96086
0
LINE
8
BLACK
6
CONTINUOUS
10
1.88403
20
1.96086
11
1.8878
21
1.96161
0
LINE
8
BLACK
6
CONTINUOUS
10
1.8878
20
1.96161
11
1.90748
21
1.96161
0
LINE
8
BLACK
6
CONTINUOUS
10
1.90748
20
1.96161
11
1.91125
21
1.96086
0
LINE
8
BLACK
6
CONTINUOUS
10
0.470454
20
1.94514
11
0.473567
21
1.94306
0
LINE
8
BLACK
6
CONTINUOUS
10
0.473567
20
1.94306
11
0.475647
21
1.93994
0
LINE
8
BLACK
6
CONTINUOUS
10
0.475647
20
1.93994
11
0.476378
21
1.93627
0
LINE
8
BLACK
6
CONTINUOUS
10
0.476378
20
1.93627
11
0.476378
21
1.91708
0
LINE
8
BLACK
6
CONTINUOUS
10
0.476378
20
1.91708
11
0.475647
21
1.9134
0
LINE
8
BLACK
6
CONTINUOUS
10
0.475647
20
1.9134
11
0.473567
21
1.91029
0
LINE
8
BLACK
6
CONTINUOUS
10
0.473567
20
1.91029
11
0.470454
21
1.90821
0
LINE
8
BLACK
6
CONTINUOUS
10
0.470454
20
1.90821
11
0.466781
21
1.90748
0
LINE
8
BLACK
6
CONTINUOUS
10
0.466781
20
1.90748
11
0.430856
21
1.90748
0
LINE
8
BLACK
6
CONTINUOUS
10
0.430856
20
1.90748
11
0.427184
21
1.90821
0
LINE
8
BLACK
6
CONTINUOUS
10
0.427184
20
1.90821
11
0.424071
21
1.91029
0
LINE
8
BLACK
6
CONTINUOUS
10
0.424071
20
1.91029
11
0.42199
21
1.9134
0
LINE
8
BLACK
6
CONTINUOUS
10
0.42199
20
1.9134
11
0.42126
21
1.91708
0
LINE
8
BLACK
6
CONTINUOUS
10
0.42126
20
1.91708
11
0.42126
21
1.93627
0
LINE
8
BLACK
6
CONTINUOUS
10
0.42126
20
1.93627
11
0.42199
21
1.93994
0
LINE
8
BLACK
6
CONTINUOUS
10
0.42199
20
1.93994
11
0.424071
21
1.94306
0
LINE
8
BLACK
6
CONTINUOUS
10
0.424071
20
1.94306
11
0.427184
21
1.94514
0
LINE
8
BLACK
6
CONTINUOUS
10
0.427184
20
1.94514
11
0.430856
21
1.94587
0
LINE
8
BLACK
6
CONTINUOUS
10
0.430856
20
1.94587
11
0.466781
21
1.94587
0
LINE
8
BLACK
6
CONTINUOUS
10
0.466781
20
1.94587
11
0.470454
21
1.94514
0
LINE
8
BLACK
6
CONTINUOUS
10
0.324785
20
1.9476
11
0.327898
21
1.94552
0
LINE
8
BLACK
6
CONTINUOUS
10
0.327898
20
1.94552
11
0.329978
21
1.9424
0
LINE
8
BLACK
6
CONTINUOUS
10
0.329978
20
1.9424
11
0.330709
21
1.93873
0
LINE
8
BLACK
6
CONTINUOUS
10
0.330709
20
1.93873
11
0.330709
21
1.91954
0
LINE
8
BLACK
6
CONTINUOUS
10
0.330709
20
1.91954
11
0.329978
21
1.91586
0
LINE
8
BLACK
6
CONTINUOUS
10
0.329978
20
1.91586
11
0.327898
21
1.91275
0
LINE
8
BLACK
6
CONTINUOUS
10
0.327898
20
1.91275
11
0.324785
21
1.91067
0
LINE
8
BLACK
6
CONTINUOUS
10
0.324785
20
1.91067
11
0.321112
21
1.90994
0
LINE
8
BLACK
6
CONTINUOUS
10
0.321112
20
1.90994
11
0.285187
21
1.90994
0
LINE
8
BLACK
6
CONTINUOUS
10
0.285187
20
1.90994
11
0.281515
21
1.91067
0
LINE
8
BLACK
6
CONTINUOUS
10
0.281515
20
1.91067
11
0.278401
21
1.91275
0
LINE
8
BLACK
6
CONTINUOUS
10
0.278401
20
1.91275
11
0.276321
21
1.91586
0
LINE
8
BLACK
6
CONTINUOUS
10
0.276321
20
1.91586
11
0.275591
21
1.91954
0
LINE
8
BLACK
6
CONTINUOUS
10
0.275591
20
1.91954
11
0.275591
21
1.93873
0
LINE
8
BLACK
6
CONTINUOUS
10
0.275591
20
1.93873
11
0.276321
21
1.9424
0
LINE
8
BLACK
6
CONTINUOUS
10
0.276321
20
1.9424
11
0.278401
21
1.94552
0
LINE
8
BLACK
6
CONTINUOUS
10
0.278401
20
1.94552
11
0.281515
21
1.9476
0
LINE
8
BLACK
6
CONTINUOUS
10
0.281515
20
1.9476
11
0.285187
21
1.94833
0
LINE
8
BLACK
6
CONTINUOUS
10
0.285187
20
1.94833
11
0.321112
21
1.94833
0
LINE
8
BLACK
6
CONTINUOUS
10
0.321112
20
1.94833
11
0.324785
21
1.9476
0
LINE
8
BLACK
6
CONTINUOUS
10
0.84252
20
2.15945
11
0.791339
21
2.15945
0
LINE
8
BLACK
6
CONTINUOUS
10
0.791339
20
2.15945
11
0.791339
21
2.22638
0
LINE
8
BLACK
6
CONTINUOUS
10
0.791339
20
2.22638
11
0.84252
21
2.22638
0
LINE
8
BLACK
6
CONTINUOUS
10
0.84252
20
2.22638
11
0.84252
21
2.15945
0
LINE
8
BLACK
6
CONTINUOUS
10
0.980315
20
2.15945
11
0.929134
21
2.15945
0
LINE
8
BLACK
6
CONTINUOUS
10
0.929134
20
2.15945
11
0.929134
21
2.22638
0
LINE
8
BLACK
6
CONTINUOUS
10
0.929134
20
2.22638
11
0.980315
21
2.22638
0
LINE
8
BLACK
6
CONTINUOUS
10
0.980315
20
2.22638
11
0.980315
21
2.15945
0
LINE
8
BLACK
6
CONTINUOUS
10
1.30116
20
2.20055
11
1.30428
21
2.19847
0
LINE
8
BLACK
6
CONTINUOUS
10
1.30428
20
2.19847
11
1.30636
21
2.19536
0
LINE
8
BLACK
6
CONTINUOUS
10
1.30636
20
2.19536
11
1.30709
21
2.19168
0
LINE
8
BLACK
6
CONTINUOUS
10
1.30709
20
2.19168
11
1.30709
21
2.17249
0
LINE
8
BLACK
6
CONTINUOUS
10
1.30709
20
2.17249
11
1.30636
21
2.16882
0
LINE
8
BLACK
6
CONTINUOUS
10
1.30636
20
2.16882
11
1.30428
21
2.1657
0
LINE
8
BLACK
6
CONTINUOUS
10
1.30428
20
2.1657
11
1.30116
21
2.16362
0
LINE
8
BLACK
6
CONTINUOUS
10
1.30116
20
2.16362
11
1.29749
21
2.16289
0
LINE
8
BLACK
6
CONTINUOUS
10
1.29749
20
2.16289
11
1.26156
21
2.16289
0
LINE
8
BLACK
6
CONTINUOUS
10
1.26156
20
2.16289
11
1.25789
21
2.16362
0
LINE
8
BLACK
6
CONTINUOUS
10
1.25789
20
2.16362
11
1.25478
21
2.1657
0
LINE
8
BLACK
6
CONTINUOUS
10
1.25478
20
2.1657
11
1.2527
21
2.16882
0
LINE
8
BLACK
6
CONTINUOUS
10
1.2527
20
2.16882
11
1.25197
21
2.17249
0
LINE
8
BLACK
6
CONTINUOUS
10
1.25197
20
2.17249
11
1.25197
21
2.19168
0
LINE
8
BLACK
6
CONTINUOUS
10
1.25197
20
2.19168
11
1.2527
21
2.19536
0
LINE
8
BLACK
6
CONTINUOUS
10
1.2527
20
2.19536
11
1.25478
21
2.19847
0
LINE
8
BLACK
6
CONTINUOUS
10
1.25478
20
2.19847
11
1.25789
21
2.20055
0
LINE
8
BLACK
6
CONTINUOUS
10
1.25789
20
2.20055
11
1.26156
21
2.20128
0
LINE
8
BLACK
6
CONTINUOUS
10
1.26156
20
2.20128
11
1.29749
21
2.20128
0
LINE
8
BLACK
6
CONTINUOUS
10
1.29749
20
2.20128
11
1.30116
21
2.20055
0
LINE
8
BLACK
6
CONTINUOUS
10
1.22242
20
2.20055
11
1.22554
21
2.19847
0
LINE
8
BLACK
6
CONTINUOUS
10
1.22554
20
2.19847
11
1.22762
21
2.19536
0
LINE
8
BLACK
6
CONTINUOUS
10
1.22762
20
2.19536
11
1.22835
21
2.19168
0
LINE
8
BLACK
6
CONTINUOUS
10
1.22835
20
2.19168
11
1.22835
21
2.17249
0
LINE
8
BLACK
6
CONTINUOUS
10
1.22835
20
2.17249
11
1.22762
21
2.16882
0
LINE
8
BLACK
6
CONTINUOUS
10
1.22762
20
2.16882
11
1.22554
21
2.1657
0
LINE
8
BLACK
6
CONTINUOUS
10
1.22554
20
2.1657
11
1.22242
21
2.16362
0
LINE
8
BLACK
6
CONTINUOUS
10
1.22242
20
2.16362
11
1.21875
21
2.16289
0
LINE
8
BLACK
6
CONTINUOUS
10
1.21875
20
2.16289
11
1.18282
21
2.16289
0
LINE
8
BLACK
6
CONTINUOUS
10
1.18282
20
2.16289
11
1.17915
21
2.16362
0
LINE
8
BLACK
6
CONTINUOUS
10
1.17915
20
2.16362
11
1.17604
21
2.1657
0
LINE
8
BLACK
6
CONTINUOUS
10
1.17604
20
2.1657
11
1.17396
21
2.16882
0
LINE
8
BLACK
6
CONTINUOUS
10
1.17396
20
2.16882
11
1.17323
21
2.17249
0
LINE
8
BLACK
6
CONTINUOUS
10
1.17323
20
2.17249
11
1.17323
21
2.19168
0
LINE
8
BLACK
6
CONTINUOUS
10
1.17323
20
2.19168
11
1.17396
21
2.19536
0
LINE
8
BLACK
6
CONTINUOUS
10
1.17396
20
2.19536
11
1.17604
21
2.19847
0
LINE
8
BLACK
6
CONTINUOUS
10
1.17604
20
2.19847
11
1.17915
21
2.20055
0
LINE
8
BLACK
6
CONTINUOUS
10
1.17915
20
2.20055
11
1.18282
21
2.20128
0
LINE
8
BLACK
6
CONTINUOUS
10
1.18282
20
2.20128
11
1.21875
21
2.20128
0
LINE
8
BLACK
6
CONTINUOUS
10
1.21875
20
2.20128
11
1.22242
21
2.20055
0
LINE
8
BLACK
6
CONTINUOUS
10
1.22242
20
2.27437
11
1.22554
21
2.27229
0
LINE
8
BLACK
6
CONTINUOUS
10
1.22554
20
2.27229
11
1.22762
21
2.26917
0
LINE
8
BLACK
6
CONTINUOUS
10
1.22762
20
2.26917
11
1.22835
21
2.2655
0
LINE
8
BLACK
6
CONTINUOUS
10
1.22835
20
2.2655
11
1.22835
21
2.24631
0
LINE
8
BLACK
6
CONTINUOUS
10
1.22835
20
2.24631
11
1.22762
21
2.24264
0
LINE
8
BLACK
6
CONTINUOUS
10
1.22762
20
2.24264
11
1.22554
21
2.23952
0
LINE
8
BLACK
6
CONTINUOUS
10
1.22554
20
2.23952
11
1.22242
21
2.23744
0
LINE
8
BLACK
6
CONTINUOUS
10
1.22242
20
2.23744
11
1.21875
21
2.23671
0
LINE
8
BLACK
6
CONTINUOUS
10
1.21875
20
2.23671
11
1.18282
21
2.23671
0
LINE
8
BLACK
6
CONTINUOUS
10
1.18282
20
2.23671
11
1.17915
21
2.23744
0
LINE
8
BLACK
6
CONTINUOUS
10
1.17915
20
2.23744
11
1.17604
21
2.23952
0
LINE
8
BLACK
6
CONTINUOUS
10
1.17604
20
2.23952
11
1.17396
21
2.24264
0
LINE
8
BLACK
6
CONTINUOUS
10
1.17396
20
2.24264
11
1.17323
21
2.24631
0
LINE
8
BLACK
6
CONTINUOUS
10
1.17323
20
2.24631
11
1.17323
21
2.2655
0
LINE
8
BLACK
6
CONTINUOUS
10
1.17323
20
2.2655
11
1.17396
21
2.26917
0
LINE
8
BLACK
6
CONTINUOUS
10
1.17396
20
2.26917
11
1.17604
21
2.27229
0
LINE
8
BLACK
6
CONTINUOUS
10
1.17604
20
2.27229
11
1.17915
21
2.27437
0
LINE
8
BLACK
6
CONTINUOUS
10
1.17915
20
2.27437
11
1.18282
21
2.2751
0
LINE
8
BLACK
6
CONTINUOUS
10
1.18282
20
2.2751
11
1.21875
21
2.2751
0
LINE
8
BLACK
6
CONTINUOUS
10
1.21875
20
2.2751
11
1.22242
21
2.27437
0
LINE
8
BLACK
6
CONTINUOUS
10
1.30116
20
2.27437
11
1.30428
21
2.27229
0
LINE
8
BLACK
6
CONTINUOUS
10
1.30428
20
2.27229
11
1.30636
21
2.26917
0
LINE
8
BLACK
6
CONTINUOUS
10
1.30636
20
2.26917
11
1.30709
21
2.2655
0
LINE
8
BLACK
6
CONTINUOUS
10
1.30709
20
2.2655
11
1.30709
21
2.24631
0
LINE
8
BLACK
6
CONTINUOUS
10
1.30709
20
2.24631
11
1.30636
21
2.24264
0
LINE
8
BLACK
6
CONTINUOUS
10
1.30636
20
2.24264
11
1.30428
21
2.23952
0
LINE
8
BLACK
6
CONTINUOUS
10
1.30428
20
2.23952
11
1.30116
21
2.23744
0
LINE
8
BLACK
6
CONTINUOUS
10
1.30116
20
2.23744
11
1.29749
21
2.23671
0
LINE
8
BLACK
6
CONTINUOUS
10
1.29749
20
2.23671
11
1.26156
21
2.23671
0
LINE
8
BLACK
6
CONTINUOUS
10
1.26156
20
2.23671
11
1.25789
21
2.23744
0
LINE
8
BLACK
6
CONTINUOUS
10
1.25789
20
2.23744
11
1.25478
21
2.23952
0
LINE
8
BLACK
6
CONTINUOUS
10
1.25478
20
2.23952
11
1.2527
21
2.24264
0
LINE
8
BLACK
6
CONTINUOUS
10
1.2527
20
2.24264
11
1.25197
21
2.24631
0
LINE
8
BLACK
6
CONTINUOUS
10
1.25197
20
2.24631
11
1.25197
21
2.2655
0
LINE
8
BLACK
6
CONTINUOUS
10
1.25197
20
2.2655
11
1.2527
21
2.26917
0
LINE
8
BLACK
6
CONTINUOUS
10
1.2527
20
2.26917
11
1.25478
21
2.27229
0
LINE
8
BLACK
6
CONTINUOUS
10
1.25478
20
2.27229
11
1.25789
21
2.27437
0
LINE
8
BLACK
6
CONTINUOUS
10
1.25789
20
2.27437
11
1.26156
21
2.2751
0
LINE
8
BLACK
6
CONTINUOUS
10
1.26156
20
2.2751
11
1.29749
21
2.2751
0
LINE
8
BLACK
6
CONTINUOUS
10
1.29749
20
2.2751
11
1.30116
21
2.27437
0
LINE
8
BLACK
6
CONTINUOUS
10
0.228328
20
2.41512
11
0.231441
21
2.41304
0
LINE
8
BLACK
6
CONTINUOUS
10
0.231441
20
2.41304
11
0.233521
21
2.40992
0
LINE
8
BLACK
6
CONTINUOUS
10
0.233521
20
2.40992
11
0.234252
21
2.40625
0
LINE
8
BLACK
6
CONTINUOUS
10
0.234252
20
2.40625
11
0.234252
21
2.38706
0
LINE
8
BLACK
6
CONTINUOUS
10
0.234252
20
2.38706
11
0.233521
21
2.38338
0
LINE
8
BLACK
6
CONTINUOUS
10
0.233521
20
2.38338
11
0.231441
21
2.38027
0
LINE
8
BLACK
6
CONTINUOUS
10
0.231441
20
2.38027
11
0.228328
21
2.37819
0
LINE
8
BLACK
6
CONTINUOUS
10
0.228328
20
2.37819
11
0.224656
21
2.37746
0
LINE
8
BLACK
6
CONTINUOUS
10
0.224656
20
2.37746
11
0.18873
21
2.37746
0
LINE
8
BLACK
6
CONTINUOUS
10
0.18873
20
2.37746
11
0.185058
21
2.37819
0
LINE
8
BLACK
6
CONTINUOUS
10
0.185058
20
2.37819
11
0.181945
21
2.38027
0
LINE
8
BLACK
6
CONTINUOUS
10
0.181945
20
2.38027
11
0.179864
21
2.38338
0
LINE
8
BLACK
6
CONTINUOUS
10
0.179864
20
2.38338
11
0.179134
21
2.38706
0
LINE
8
BLACK
6
CONTINUOUS
10
0.179134
20
2.38706
11
0.179134
21
2.40625
0
LINE
8
BLACK
6
CONTINUOUS
10
0.179134
20
2.40625
11
0.179864
21
2.40992
0
LINE
8
BLACK
6
CONTINUOUS
10
0.179864
20
2.40992
11
0.181945
21
2.41304
0
LINE
8
BLACK
6
CONTINUOUS
10
0.181945
20
2.41304
11
0.185058
21
2.41512
0
LINE
8
BLACK
6
CONTINUOUS
10
0.185058
20
2.41512
11
0.18873
21
2.41585
0
LINE
8
BLACK
6
CONTINUOUS
10
0.18873
20
2.41585
11
0.224656
21
2.41585
0
LINE
8
BLACK
6
CONTINUOUS
10
0.224656
20
2.41585
11
0.228328
21
2.41512
0
LINE
8
BLACK
6
CONTINUOUS
10
0.228328
20
2.48893
11
0.231441
21
2.48685
0
LINE
8
BLACK
6
CONTINUOUS
10
0.231441
20
2.48685
11
0.233521
21
2.48374
0
LINE
8
BLACK
6
CONTINUOUS
10
0.233521
20
2.48374
11
0.234252
21
2.48007
0
LINE
8
BLACK
6
CONTINUOUS
10
0.234252
20
2.48007
11
0.234252
21
2.46088
0
LINE
8
BLACK
6
CONTINUOUS
10
0.234252
20
2.46088
11
0.233521
21
2.4572
0
LINE
8
BLACK
6
CONTINUOUS
10
0.233521
20
2.4572
11
0.231441
21
2.45409
0
LINE
8
BLACK
6
CONTINUOUS
10
0.231441
20
2.45409
11
0.228328
21
2.45201
0
LINE
8
BLACK
6
CONTINUOUS
10
0.228328
20
2.45201
11
0.224656
21
2.45128
0
LINE
8
BLACK
6
CONTINUOUS
10
0.224656
20
2.45128
11
0.18873
21
2.45128
0
LINE
8
BLACK
6
CONTINUOUS
10
0.18873
20
2.45128
11
0.185058
21
2.45201
0
LINE
8
BLACK
6
CONTINUOUS
10
0.185058
20
2.45201
11
0.181945
21
2.45409
0
LINE
8
BLACK
6
CONTINUOUS
10
0.181945
20
2.45409
11
0.179864
21
2.4572
0
LINE
8
BLACK
6
CONTINUOUS
10
0.179864
20
2.4572
11
0.179134
21
2.46088
0
LINE
8
BLACK
6
CONTINUOUS
10
0.179134
20
2.46088
11
0.179134
21
2.48007
0
LINE
8
BLACK
6
CONTINUOUS
10
0.179134
20
2.48007
11
0.179864
21
2.48374
0
LINE
8
BLACK
6
CONTINUOUS
10
0.179864
20
2.48374
11
0.181945
21
2.48685
0
LINE
8
BLACK
6
CONTINUOUS
10
0.181945
20
2.48685
11
0.185058
21
2.48893
0
LINE
8
BLACK
6
CONTINUOUS
10
0.185058
20
2.48893
11
0.18873
21
2.48967
0
LINE
8
BLACK
6
CONTINUOUS
10
0.18873
20
2.48967
11
0.224656
21
2.48967
0
LINE
8
BLACK
6
CONTINUOUS
10
0.224656
20
2.48967
11
0.228328
21
2.48893
  0
ENDSEC
  0
EOF
