  0
SECTION
  2
HEADER
  9
$ANGBASE
  50
0.0
  9
$ANGDIR
  70
1
  9
$MEASUREMENT
  70
0
  0
ENDSEC
  0
SECTION
  2
TABLES
  0
TABLE
  2
LTYPE
  70
4
  0
LTYPE
  5
40F
  2
CONTINUOUS
  70
0
  3
Solid line
  72
65
  73
0
  40
0.0
  0
LTYPE
  5
410
  2
DASHDOT
 70
0
  3
Dash Dot ____ _ ____ _
 72
65
 73
4
 40
2.0
 49
1.25
 49
-0.25
 49
0.25
 49
-0.25
  0
LTYPE
  5
411
  2
DASHED
 70
0
  3
Dashed __ __ __ __ __
 72
65
 73
2
 40
0.75
 49
0.5
 49
-0.25
  0
LTYPE
  5
43B
  2
DOTTED
 70
0
  3
Dotted .  .  .  .
 72
65
 73
2
 40
0.2
 49
0.0
 49
-0.2
  0
ENDTAB
  0
TABLE
  2
STYLE
  70
4
  0
STYLE
  2
KICAD
  70
0
  40
0
  41
1
  42
1
  50
0
  71
0
  3
isocp.shx
  0
STYLE
  2
KICADB
  70
0
  40
0
  41
1
  42
1
  50
0
  71
0
  3
isocp.shx
  0
STYLE
  2
KICADI
  70
0
  40
0
  41
1
  42
1
  50
15
  71
0
  3
isocp.shx
  0
STYLE
  2
KICADBI
  70
0
  40
0
  41
1
  42
1
  50
15
  71
0
  3
isocp.shx
  0
ENDTAB
  0
TABLE
  2
LAYER
  70
1
  0
LAYER
  2
BLACK
  70
0
  62
7
  6
CONTINUOUS
  0
ENDTAB
  0
ENDSEC
  0
SECTION
  2
ENTITIES
0
LINE
8
BLACK
6
CONTINUOUS
10
0.981692
20
0.100173
11
0.983239
21
0.0988742
0
LINE
8
BLACK
6
CONTINUOUS
10
0.983239
20
0.0988742
11
0.98359
21
0.0968851
0
LINE
8
BLACK
6
CONTINUOUS
10
0.98359
20
0.0968851
11
0.98258
21
0.0951359
0
LINE
8
BLACK
6
CONTINUOUS
10
0.98258
20
0.0951359
11
0.980682
21
0.0944451
0
LINE
8
BLACK
6
CONTINUOUS
10
0.980682
20
0.0944451
11
0.965313
21
0.0944451
0
LINE
8
BLACK
6
CONTINUOUS
10
0.965313
20
0.0944451
11
0.98277
21
0.0769886
0
LINE
8
BLACK
6
CONTINUOUS
10
0.98277
20
0.0769886
11
0.983358
21
0.0761485
0
LINE
8
BLACK
6
CONTINUOUS
10
0.983358
20
0.0761485
11
0.983534
21
0.0741365
0
LINE
8
BLACK
6
CONTINUOUS
10
0.983534
20
0.0741365
11
0.982375
21
0.0724819
0
LINE
8
BLACK
6
CONTINUOUS
10
0.982375
20
0.0724819
11
0.980425
21
0.0719592
0
LINE
8
BLACK
6
CONTINUOUS
10
0.980425
20
0.0719592
11
0.978594
21
0.0728128
0
LINE
8
BLACK
6
CONTINUOUS
10
0.978594
20
0.0728128
11
0.963532
21
0.0878748
0
LINE
8
BLACK
6
CONTINUOUS
10
0.963532
20
0.0878748
11
0.943083
21
0.0725385
0
LINE
8
BLACK
6
CONTINUOUS
10
0.943083
20
0.0725385
11
0.942169
21
0.072075
0
LINE
8
BLACK
6
CONTINUOUS
10
0.942169
20
0.072075
11
0.940152
21
0.0721853
0
LINE
8
BLACK
6
CONTINUOUS
10
0.940152
20
0.0721853
11
0.938678
21
0.0735661
0
LINE
8
BLACK
6
CONTINUOUS
10
0.938678
20
0.0735661
11
0.938436
21
0.0755714
0
LINE
8
BLACK
6
CONTINUOUS
10
0.938436
20
0.0755714
11
0.93954
21
0.0772629
0
LINE
8
BLACK
6
CONTINUOUS
10
0.93954
20
0.0772629
11
0.959314
21
0.092093
0
LINE
8
BLACK
6
CONTINUOUS
10
0.959314
20
0.092093
11
0.956962
21
0.0944451
0
LINE
8
BLACK
6
CONTINUOUS
10
0.956962
20
0.0944451
11
0.941312
21
0.0944451
0
LINE
8
BLACK
6
CONTINUOUS
10
0.941312
20
0.0944451
11
0.940302
21
0.0946231
0
LINE
8
BLACK
6
CONTINUOUS
10
0.940302
20
0.0946231
11
0.938755
21
0.0959215
0
LINE
8
BLACK
6
CONTINUOUS
10
0.938755
20
0.0959215
11
0.938404
21
0.0979106
0
LINE
8
BLACK
6
CONTINUOUS
10
0.938404
20
0.0979106
11
0.939414
21
0.0996598
0
LINE
8
BLACK
6
CONTINUOUS
10
0.939414
20
0.0996598
11
0.941312
21
0.100351
0
LINE
8
BLACK
6
CONTINUOUS
10
0.941312
20
0.100351
11
0.980682
21
0.100351
0
LINE
8
BLACK
6
CONTINUOUS
10
0.980682
20
0.100351
11
0.981692
21
0.100173
0
LINE
8
BLACK
6
CONTINUOUS
10
1.15541
20
0.103913
11
1.15696
21
0.102614
0
LINE
8
BLACK
6
CONTINUOUS
10
1.15696
20
0.102614
11
1.15731
21
0.100625
0
LINE
8
BLACK
6
CONTINUOUS
10
1.15731
20
0.100625
11
1.1563
21
0.0988761
0
LINE
8
BLACK
6
CONTINUOUS
10
1.1563
20
0.0988761
11
1.1544
21
0.0981852
0
LINE
8
BLACK
6
CONTINUOUS
10
1.1544
20
0.0981852
11
1.13903
21
0.0981852
0
LINE
8
BLACK
6
CONTINUOUS
10
1.13903
20
0.0981852
11
1.15649
21
0.0807287
0
LINE
8
BLACK
6
CONTINUOUS
10
1.15649
20
0.0807287
11
1.15708
21
0.0798887
0
LINE
8
BLACK
6
CONTINUOUS
10
1.15708
20
0.0798887
11
1.15725
21
0.0778766
0
LINE
8
BLACK
6
CONTINUOUS
10
1.15725
20
0.0778766
11
1.1561
21
0.076222
0
LINE
8
BLACK
6
CONTINUOUS
10
1.1561
20
0.076222
11
1.15414
21
0.0756993
0
LINE
8
BLACK
6
CONTINUOUS
10
1.15414
20
0.0756993
11
1.15231
21
0.0765529
0
LINE
8
BLACK
6
CONTINUOUS
10
1.15231
20
0.0765529
11
1.13725
21
0.091615
0
LINE
8
BLACK
6
CONTINUOUS
10
1.13725
20
0.091615
11
1.1168
21
0.0762786
0
LINE
8
BLACK
6
CONTINUOUS
10
1.1168
20
0.0762786
11
1.11589
21
0.0758151
0
LINE
8
BLACK
6
CONTINUOUS
10
1.11589
20
0.0758151
11
1.11387
21
0.0759254
0
LINE
8
BLACK
6
CONTINUOUS
10
1.11387
20
0.0759254
11
1.1124
21
0.0773063
0
LINE
8
BLACK
6
CONTINUOUS
10
1.1124
20
0.0773063
11
1.11216
21
0.0793116
0
LINE
8
BLACK
6
CONTINUOUS
10
1.11216
20
0.0793116
11
1.11326
21
0.081003
0
LINE
8
BLACK
6
CONTINUOUS
10
1.11326
20
0.081003
11
1.13303
21
0.0958332
0
LINE
8
BLACK
6
CONTINUOUS
10
1.13303
20
0.0958332
11
1.13068
21
0.0981852
0
LINE
8
BLACK
6
CONTINUOUS
10
1.13068
20
0.0981852
11
1.11503
21
0.0981852
0
LINE
8
BLACK
6
CONTINUOUS
10
1.11503
20
0.0981852
11
1.11402
21
0.0983633
0
LINE
8
BLACK
6
CONTINUOUS
10
1.11402
20
0.0983633
11
1.11248
21
0.0996616
0
LINE
8
BLACK
6
CONTINUOUS
10
1.11248
20
0.0996616
11
1.11212
21
0.101651
0
LINE
8
BLACK
6
CONTINUOUS
10
1.11212
20
0.101651
11
1.11313
21
0.1034
0
LINE
8
BLACK
6
CONTINUOUS
10
1.11313
20
0.1034
11
1.11503
21
0.104091
0
LINE
8
BLACK
6
CONTINUOUS
10
1.11503
20
0.104091
11
1.1544
21
0.104091
0
LINE
8
BLACK
6
CONTINUOUS
10
1.1544
20
0.104091
11
1.15541
21
0.103913
0
LINE
8
BLACK
6
CONTINUOUS
10
1.04538
20
1.12376
11
1.04607
21
1.12186
0
LINE
8
BLACK
6
CONTINUOUS
10
1.04607
20
1.12186
11
1.04607
21
1.11999
0
LINE
8
BLACK
6
CONTINUOUS
10
1.04607
20
1.11999
11
1.04589
21
1.11898
0
LINE
8
BLACK
6
CONTINUOUS
10
1.04589
20
1.11898
11
1.04578
21
1.11884
0
LINE
8
BLACK
6
CONTINUOUS
10
1.04578
20
1.11884
11
1.04576
21
1.11866
0
LINE
8
BLACK
6
CONTINUOUS
10
1.04576
20
1.11866
11
1.04389
21
1.11491
0
LINE
8
BLACK
6
CONTINUOUS
10
1.04389
20
1.11491
11
1.04336
21
1.11421
0
LINE
8
BLACK
6
CONTINUOUS
10
1.04336
20
1.11421
11
1.04333
21
1.11415
0
LINE
8
BLACK
6
CONTINUOUS
10
1.04333
20
1.11415
11
1.04146
21
1.11227
0
LINE
8
BLACK
6
CONTINUOUS
10
1.04146
20
1.11227
11
1.04062
21
1.11168
0
LINE
8
BLACK
6
CONTINUOUS
10
1.04062
20
1.11168
11
1.03861
21
1.11151
0
LINE
8
BLACK
6
CONTINUOUS
10
1.03861
20
1.11151
11
1.03695
21
1.11267
0
LINE
8
BLACK
6
CONTINUOUS
10
1.03695
20
1.11267
11
1.03643
21
1.11462
0
LINE
8
BLACK
6
CONTINUOUS
10
1.03643
20
1.11462
11
1.03728
21
1.11645
0
LINE
8
BLACK
6
CONTINUOUS
10
1.03728
20
1.11645
11
1.03882
21
1.11798
0
LINE
8
BLACK
6
CONTINUOUS
10
1.03882
20
1.11798
11
1.04017
21
1.12068
0
LINE
8
BLACK
6
CONTINUOUS
10
1.04017
20
1.12068
11
1.04017
21
1.12186
0
LINE
8
BLACK
6
CONTINUOUS
10
1.04017
20
1.12186
11
1.04034
21
1.12287
0
LINE
8
BLACK
6
CONTINUOUS
10
1.04034
20
1.12287
11
1.04164
21
1.12442
0
LINE
8
BLACK
6
CONTINUOUS
10
1.04164
20
1.12442
11
1.04363
21
1.12477
0
LINE
8
BLACK
6
CONTINUOUS
10
1.04363
20
1.12477
11
1.04538
21
1.12376
0
LINE
8
BLACK
6
CONTINUOUS
10
0.552941
20
1.16213
11
0.553076
21
1.16202
0
LINE
8
BLACK
6
CONTINUOUS
10
0.553076
20
1.16202
11
0.553252
21
1.162
0
LINE
8
BLACK
6
CONTINUOUS
10
0.553252
20
1.162
11
0.557001
21
1.16012
0
LINE
8
BLACK
6
CONTINUOUS
10
0.557001
20
1.16012
11
0.55771
21
1.1596
0
LINE
8
BLACK
6
CONTINUOUS
10
0.55771
20
1.1596
11
0.557768
21
1.15957
0
LINE
8
BLACK
6
CONTINUOUS
10
0.557768
20
1.15957
11
0.561518
21
1.15582
0
LINE
8
BLACK
6
CONTINUOUS
10
0.561518
20
1.15582
11
0.562106
21
1.15498
0
LINE
8
BLACK
6
CONTINUOUS
10
0.562106
20
1.15498
11
0.562132
21
1.15469
0
LINE
8
BLACK
6
CONTINUOUS
10
0.562132
20
1.15469
11
0.562295
21
1.15445
0
LINE
8
BLACK
6
CONTINUOUS
10
0.562295
20
1.15445
11
0.564169
21
1.14695
0
LINE
8
BLACK
6
CONTINUOUS
10
0.564169
20
1.14695
11
0.564211
21
1.14636
0
LINE
8
BLACK
6
CONTINUOUS
10
0.564211
20
1.14636
11
0.564258
21
1.14623
0
LINE
8
BLACK
6
CONTINUOUS
10
0.564258
20
1.14623
11
0.564258
21
1.13311
0
LINE
8
BLACK
6
CONTINUOUS
10
0.564258
20
1.13311
11
0.564155
21
1.13253
0
LINE
8
BLACK
6
CONTINUOUS
10
0.564155
20
1.13253
11
0.564169
21
1.13239
0
LINE
8
BLACK
6
CONTINUOUS
10
0.564169
20
1.13239
11
0.562295
21
1.12489
0
LINE
8
BLACK
6
CONTINUOUS
10
0.562295
20
1.12489
11
0.561877
21
1.12396
0
LINE
8
BLACK
6
CONTINUOUS
10
0.561877
20
1.12396
11
0.561641
21
1.12379
0
LINE
8
BLACK
6
CONTINUOUS
10
0.561641
20
1.12379
11
0.561518
21
1.12352
0
LINE
8
BLACK
6
CONTINUOUS
10
0.561518
20
1.12352
11
0.557768
21
1.11977
0
LINE
8
BLACK
6
CONTINUOUS
10
0.557768
20
1.11977
11
0.557045
21
1.11927
0
LINE
8
BLACK
6
CONTINUOUS
10
0.557045
20
1.11927
11
0.557001
21
1.11922
0
LINE
8
BLACK
6
CONTINUOUS
10
0.557001
20
1.11922
11
0.553251
21
1.11734
0
LINE
8
BLACK
6
CONTINUOUS
10
0.553251
20
1.11734
11
0.552269
21
1.11705
0
LINE
8
BLACK
6
CONTINUOUS
10
0.552269
20
1.11705
11
0.552097
21
1.11709
0
LINE
8
BLACK
6
CONTINUOUS
10
0.552097
20
1.11709
11
0.551931
21
1.11703
0
LINE
8
BLACK
6
CONTINUOUS
10
0.551931
20
1.11703
11
0.544432
21
1.11703
0
LINE
8
BLACK
6
CONTINUOUS
10
0.544432
20
1.11703
11
0.543422
21
1.11721
0
LINE
8
BLACK
6
CONTINUOUS
10
0.543422
20
1.11721
11
0.543287
21
1.11732
0
LINE
8
BLACK
6
CONTINUOUS
10
0.543287
20
1.11732
11
0.543111
21
1.11734
0
LINE
8
BLACK
6
CONTINUOUS
10
0.543111
20
1.11734
11
0.539362
21
1.11922
0
LINE
8
BLACK
6
CONTINUOUS
10
0.539362
20
1.11922
11
0.538653
21
1.11974
0
LINE
8
BLACK
6
CONTINUOUS
10
0.538653
20
1.11974
11
0.538594
21
1.11977
0
LINE
8
BLACK
6
CONTINUOUS
10
0.538594
20
1.11977
11
0.534845
21
1.12352
0
LINE
8
BLACK
6
CONTINUOUS
10
0.534845
20
1.12352
11
0.534257
21
1.12436
0
LINE
8
BLACK
6
CONTINUOUS
10
0.534257
20
1.12436
11
0.534231
21
1.12465
0
LINE
8
BLACK
6
CONTINUOUS
10
0.534231
20
1.12465
11
0.534068
21
1.12489
0
LINE
8
BLACK
6
CONTINUOUS
10
0.534068
20
1.12489
11
0.532194
21
1.13239
0
LINE
8
BLACK
6
CONTINUOUS
10
0.532194
20
1.13239
11
0.532152
21
1.13298
0
LINE
8
BLACK
6
CONTINUOUS
10
0.532152
20
1.13298
11
0.532105
21
1.13311
0
LINE
8
BLACK
6
CONTINUOUS
10
0.532105
20
1.13311
11
0.532105
21
1.14623
0
LINE
8
BLACK
6
CONTINUOUS
10
0.532105
20
1.14623
11
0.532208
21
1.14681
0
LINE
8
BLACK
6
CONTINUOUS
10
0.532208
20
1.14681
11
0.532194
21
1.14695
0
LINE
8
BLACK
6
CONTINUOUS
10
0.532194
20
1.14695
11
0.534068
21
1.15445
0
LINE
8
BLACK
6
CONTINUOUS
10
0.534068
20
1.15445
11
0.534486
21
1.15538
0
LINE
8
BLACK
6
CONTINUOUS
10
0.534486
20
1.15538
11
0.534722
21
1.15555
0
LINE
8
BLACK
6
CONTINUOUS
10
0.534722
20
1.15555
11
0.534845
21
1.15582
0
LINE
8
BLACK
6
CONTINUOUS
10
0.534845
20
1.15582
11
0.538594
21
1.15957
0
LINE
8
BLACK
6
CONTINUOUS
10
0.538594
20
1.15957
11
0.539318
21
1.16007
0
LINE
8
BLACK
6
CONTINUOUS
10
0.539318
20
1.16007
11
0.539362
21
1.16012
0
LINE
8
BLACK
6
CONTINUOUS
10
0.539362
20
1.16012
11
0.543111
21
1.162
0
LINE
8
BLACK
6
CONTINUOUS
10
0.543111
20
1.162
11
0.544094
21
1.16229
0
LINE
8
BLACK
6
CONTINUOUS
10
0.544094
20
1.16229
11
0.544266
21
1.16225
0
LINE
8
BLACK
6
CONTINUOUS
10
0.544266
20
1.16225
11
0.544432
21
1.16231
0
LINE
8
BLACK
6
CONTINUOUS
10
0.544432
20
1.16231
11
0.551931
21
1.16231
0
LINE
8
BLACK
6
CONTINUOUS
10
0.551931
20
1.16231
11
0.552941
21
1.16213
0
LINE
8
BLACK
6
CONTINUOUS
10
0.545129
20
1.1564
11
0.542431
21
1.15505
0
LINE
8
BLACK
6
CONTINUOUS
10
0.542431
20
1.15505
11
0.539599
21
1.15222
0
LINE
8
BLACK
6
CONTINUOUS
10
0.539599
20
1.15222
11
0.538011
21
1.14587
0
LINE
8
BLACK
6
CONTINUOUS
10
0.538011
20
1.14587
11
0.538011
21
1.13347
0
LINE
8
BLACK
6
CONTINUOUS
10
0.538011
20
1.13347
11
0.539599
21
1.12712
0
LINE
8
BLACK
6
CONTINUOUS
10
0.539599
20
1.12712
11
0.542431
21
1.12429
0
LINE
8
BLACK
6
CONTINUOUS
10
0.542431
20
1.12429
11
0.545129
21
1.12294
0
LINE
8
BLACK
6
CONTINUOUS
10
0.545129
20
1.12294
11
0.551234
21
1.12294
0
LINE
8
BLACK
6
CONTINUOUS
10
0.551234
20
1.12294
11
0.553931
21
1.12429
0
LINE
8
BLACK
6
CONTINUOUS
10
0.553931
20
1.12429
11
0.556764
21
1.12712
0
LINE
8
BLACK
6
CONTINUOUS
10
0.556764
20
1.12712
11
0.558352
21
1.13347
0
LINE
8
BLACK
6
CONTINUOUS
10
0.558352
20
1.13347
11
0.558352
21
1.14587
0
LINE
8
BLACK
6
CONTINUOUS
10
0.558352
20
1.14587
11
0.556764
21
1.15222
0
LINE
8
BLACK
6
CONTINUOUS
10
0.556764
20
1.15222
11
0.553931
21
1.15505
0
LINE
8
BLACK
6
CONTINUOUS
10
0.553931
20
1.15505
11
0.551234
21
1.1564
0
LINE
8
BLACK
6
CONTINUOUS
10
0.551234
20
1.1564
11
0.545129
21
1.1564
0
LINE
8
BLACK
6
CONTINUOUS
10
0.819158
20
1.16213
11
0.819293
21
1.16202
0
LINE
8
BLACK
6
CONTINUOUS
10
0.819293
20
1.16202
11
0.819468
21
1.162
0
LINE
8
BLACK
6
CONTINUOUS
10
0.819468
20
1.162
11
0.823218
21
1.16012
0
LINE
8
BLACK
6
CONTINUOUS
10
0.823218
20
1.16012
11
0.823927
21
1.1596
0
LINE
8
BLACK
6
CONTINUOUS
10
0.823927
20
1.1596
11
0.823985
21
1.15957
0
LINE
8
BLACK
6
CONTINUOUS
10
0.823985
20
1.15957
11
0.82586
21
1.15769
0
LINE
8
BLACK
6
CONTINUOUS
10
0.82586
20
1.15769
11
0.826366
21
1.15697
0
LINE
8
BLACK
6
CONTINUOUS
10
0.826366
20
1.15697
11
0.826413
21
1.15693
0
LINE
8
BLACK
6
CONTINUOUS
10
0.826413
20
1.15693
11
0.828288
21
1.15318
0
LINE
8
BLACK
6
CONTINUOUS
10
0.828288
20
1.15318
11
0.82858
21
1.15219
0
LINE
8
BLACK
6
CONTINUOUS
10
0.82858
20
1.15219
11
0.828539
21
1.15202
0
LINE
8
BLACK
6
CONTINUOUS
10
0.828539
20
1.15202
11
0.8286
21
1.15186
0
LINE
8
BLACK
6
CONTINUOUS
10
0.8286
20
1.15186
11
0.8286
21
1.14998
0
LINE
8
BLACK
6
CONTINUOUS
10
0.8286
20
1.14998
11
0.828421
21
1.14897
0
LINE
8
BLACK
6
CONTINUOUS
10
0.828421
20
1.14897
11
0.828308
21
1.14884
0
LINE
8
BLACK
6
CONTINUOUS
10
0.828308
20
1.14884
11
0.828288
21
1.14866
0
LINE
8
BLACK
6
CONTINUOUS
10
0.828288
20
1.14866
11
0.826413
21
1.14491
0
LINE
8
BLACK
6
CONTINUOUS
10
0.826413
20
1.14491
11
0.825887
21
1.1442
0
LINE
8
BLACK
6
CONTINUOUS
10
0.825887
20
1.1442
11
0.82586
21
1.14414
0
LINE
8
BLACK
6
CONTINUOUS
10
0.82586
20
1.14414
11
0.824198
21
1.14248
0
LINE
8
BLACK
6
CONTINUOUS
10
0.824198
20
1.14248
11
0.82586
21
1.14082
0
LINE
8
BLACK
6
CONTINUOUS
10
0.82586
20
1.14082
11
0.826366
21
1.1401
0
LINE
8
BLACK
6
CONTINUOUS
10
0.826366
20
1.1401
11
0.826413
21
1.14005
0
LINE
8
BLACK
6
CONTINUOUS
10
0.826413
20
1.14005
11
0.828288
21
1.1363
0
LINE
8
BLACK
6
CONTINUOUS
10
0.828288
20
1.1363
11
0.82858
21
1.13532
0
LINE
8
BLACK
6
CONTINUOUS
10
0.82858
20
1.13532
11
0.828539
21
1.13515
0
LINE
8
BLACK
6
CONTINUOUS
10
0.828539
20
1.13515
11
0.8286
21
1.13498
0
LINE
8
BLACK
6
CONTINUOUS
10
0.8286
20
1.13498
11
0.8286
21
1.12748
0
LINE
8
BLACK
6
CONTINUOUS
10
0.8286
20
1.12748
11
0.828421
21
1.12647
0
LINE
8
BLACK
6
CONTINUOUS
10
0.828421
20
1.12647
11
0.828308
21
1.12634
0
LINE
8
BLACK
6
CONTINUOUS
10
0.828308
20
1.12634
11
0.828288
21
1.12616
0
LINE
8
BLACK
6
CONTINUOUS
10
0.828288
20
1.12616
11
0.826413
21
1.12241
0
LINE
8
BLACK
6
CONTINUOUS
10
0.826413
20
1.12241
11
0.825887
21
1.1217
0
LINE
8
BLACK
6
CONTINUOUS
10
0.825887
20
1.1217
11
0.82586
21
1.12165
0
LINE
8
BLACK
6
CONTINUOUS
10
0.82586
20
1.12165
11
0.823985
21
1.11977
0
LINE
8
BLACK
6
CONTINUOUS
10
0.823985
20
1.11977
11
0.823262
21
1.11927
0
LINE
8
BLACK
6
CONTINUOUS
10
0.823262
20
1.11927
11
0.823218
21
1.11922
0
LINE
8
BLACK
6
CONTINUOUS
10
0.823218
20
1.11922
11
0.819468
21
1.11734
0
LINE
8
BLACK
6
CONTINUOUS
10
0.819468
20
1.11734
11
0.818485
21
1.11705
0
LINE
8
BLACK
6
CONTINUOUS
10
0.818485
20
1.11705
11
0.818314
21
1.11709
0
LINE
8
BLACK
6
CONTINUOUS
10
0.818314
20
1.11709
11
0.818148
21
1.11703
0
LINE
8
BLACK
6
CONTINUOUS
10
0.818148
20
1.11703
11
0.810649
21
1.11703
0
LINE
8
BLACK
6
CONTINUOUS
10
0.810649
20
1.11703
11
0.809639
21
1.11721
0
LINE
8
BLACK
6
CONTINUOUS
10
0.809639
20
1.11721
11
0.809504
21
1.11732
0
LINE
8
BLACK
6
CONTINUOUS
10
0.809504
20
1.11732
11
0.809328
21
1.11734
0
LINE
8
BLACK
6
CONTINUOUS
10
0.809328
20
1.11734
11
0.805579
21
1.11922
0
LINE
8
BLACK
6
CONTINUOUS
10
0.805579
20
1.11922
11
0.80487
21
1.11974
0
LINE
8
BLACK
6
CONTINUOUS
10
0.80487
20
1.11974
11
0.804811
21
1.11977
0
LINE
8
BLACK
6
CONTINUOUS
10
0.804811
20
1.11977
11
0.802936
21
1.12165
0
LINE
8
BLACK
6
CONTINUOUS
10
0.802936
20
1.12165
11
0.80243
21
1.12237
0
LINE
8
BLACK
6
CONTINUOUS
10
0.80243
20
1.12237
11
0.802383
21
1.12241
0
LINE
8
BLACK
6
CONTINUOUS
10
0.802383
20
1.12241
11
0.800509
21
1.12616
0
LINE
8
BLACK
6
CONTINUOUS
10
0.800509
20
1.12616
11
0.800216
21
1.12715
0
LINE
8
BLACK
6
CONTINUOUS
10
0.800216
20
1.12715
11
0.800257
21
1.12732
0
LINE
8
BLACK
6
CONTINUOUS
10
0.800257
20
1.12732
11
0.800197
21
1.12748
0
LINE
8
BLACK
6
CONTINUOUS
10
0.800197
20
1.12748
11
0.800197
21
1.13498
0
LINE
8
BLACK
6
CONTINUOUS
10
0.800197
20
1.13498
11
0.800375
21
1.13599
0
LINE
8
BLACK
6
CONTINUOUS
10
0.800375
20
1.13599
11
0.800488
21
1.13613
0
LINE
8
BLACK
6
CONTINUOUS
10
0.800488
20
1.13613
11
0.800509
21
1.1363
0
LINE
8
BLACK
6
CONTINUOUS
10
0.800509
20
1.1363
11
0.802383
21
1.14005
0
LINE
8
BLACK
6
CONTINUOUS
10
0.802383
20
1.14005
11
0.802909
21
1.14076
0
LINE
8
BLACK
6
CONTINUOUS
10
0.802909
20
1.14076
11
0.802936
21
1.14082
0
LINE
8
BLACK
6
CONTINUOUS
10
0.802936
20
1.14082
11
0.804598
21
1.14248
0
LINE
8
BLACK
6
CONTINUOUS
10
0.804598
20
1.14248
11
0.802936
21
1.14414
0
LINE
8
BLACK
6
CONTINUOUS
10
0.802936
20
1.14414
11
0.80243
21
1.14487
0
LINE
8
BLACK
6
CONTINUOUS
10
0.80243
20
1.14487
11
0.802383
21
1.14491
0
LINE
8
BLACK
6
CONTINUOUS
10
0.802383
20
1.14491
11
0.800509
21
1.14866
0
LINE
8
BLACK
6
CONTINUOUS
10
0.800509
20
1.14866
11
0.800216
21
1.14964
0
LINE
8
BLACK
6
CONTINUOUS
10
0.800216
20
1.14964
11
0.800257
21
1.14982
0
LINE
8
BLACK
6
CONTINUOUS
10
0.800257
20
1.14982
11
0.800197
21
1.14998
0
LINE
8
BLACK
6
CONTINUOUS
10
0.800197
20
1.14998
11
0.800197
21
1.15186
0
LINE
8
BLACK
6
CONTINUOUS
10
0.800197
20
1.15186
11
0.800375
21
1.15287
0
LINE
8
BLACK
6
CONTINUOUS
10
0.800375
20
1.15287
11
0.800488
21
1.153
0
LINE
8
BLACK
6
CONTINUOUS
10
0.800488
20
1.153
11
0.800509
21
1.15318
0
LINE
8
BLACK
6
CONTINUOUS
10
0.800509
20
1.15318
11
0.802383
21
1.15693
0
LINE
8
BLACK
6
CONTINUOUS
10
0.802383
20
1.15693
11
0.802909
21
1.15764
0
LINE
8
BLACK
6
CONTINUOUS
10
0.802909
20
1.15764
11
0.802936
21
1.15769
0
LINE
8
BLACK
6
CONTINUOUS
10
0.802936
20
1.15769
11
0.804811
21
1.15957
0
LINE
8
BLACK
6
CONTINUOUS
10
0.804811
20
1.15957
11
0.805534
21
1.16007
0
LINE
8
BLACK
6
CONTINUOUS
10
0.805534
20
1.16007
11
0.805579
21
1.16012
0
LINE
8
BLACK
6
CONTINUOUS
10
0.805579
20
1.16012
11
0.809328
21
1.162
0
LINE
8
BLACK
6
CONTINUOUS
10
0.809328
20
1.162
11
0.810311
21
1.16229
0
LINE
8
BLACK
6
CONTINUOUS
10
0.810311
20
1.16229
11
0.810483
21
1.16225
0
LINE
8
BLACK
6
CONTINUOUS
10
0.810483
20
1.16225
11
0.810649
21
1.16231
0
LINE
8
BLACK
6
CONTINUOUS
10
0.810649
20
1.16231
11
0.818148
21
1.16231
0
LINE
8
BLACK
6
CONTINUOUS
10
0.818148
20
1.16231
11
0.819158
21
1.16213
0
LINE
8
BLACK
6
CONTINUOUS
10
0.811346
20
1.13953
11
0.808648
21
1.13818
0
LINE
8
BLACK
6
CONTINUOUS
10
0.808648
20
1.13818
11
0.807451
21
1.13698
0
LINE
8
BLACK
6
CONTINUOUS
10
0.807451
20
1.13698
11
0.806102
21
1.13429
0
LINE
8
BLACK
6
CONTINUOUS
10
0.806102
20
1.13429
11
0.806102
21
1.12818
0
LINE
8
BLACK
6
CONTINUOUS
10
0.806102
20
1.12818
11
0.807451
21
1.12548
0
LINE
8
BLACK
6
CONTINUOUS
10
0.807451
20
1.12548
11
0.808648
21
1.12429
0
LINE
8
BLACK
6
CONTINUOUS
10
0.808648
20
1.12429
11
0.811346
21
1.12294
0
LINE
8
BLACK
6
CONTINUOUS
10
0.811346
20
1.12294
11
0.817451
21
1.12294
0
LINE
8
BLACK
6
CONTINUOUS
10
0.817451
20
1.12294
11
0.820148
21
1.12429
0
LINE
8
BLACK
6
CONTINUOUS
10
0.820148
20
1.12429
11
0.821345
21
1.12548
0
LINE
8
BLACK
6
CONTINUOUS
10
0.821345
20
1.12548
11
0.822694
21
1.12818
0
LINE
8
BLACK
6
CONTINUOUS
10
0.822694
20
1.12818
11
0.822694
21
1.13429
0
LINE
8
BLACK
6
CONTINUOUS
10
0.822694
20
1.13429
11
0.821345
21
1.13698
0
LINE
8
BLACK
6
CONTINUOUS
10
0.821345
20
1.13698
11
0.820148
21
1.13818
0
LINE
8
BLACK
6
CONTINUOUS
10
0.820148
20
1.13818
11
0.817451
21
1.13953
0
LINE
8
BLACK
6
CONTINUOUS
10
0.817451
20
1.13953
11
0.811346
21
1.13953
0
LINE
8
BLACK
6
CONTINUOUS
10
0.811346
20
1.1564
11
0.808648
21
1.15505
0
LINE
8
BLACK
6
CONTINUOUS
10
0.808648
20
1.15505
11
0.807451
21
1.15386
0
LINE
8
BLACK
6
CONTINUOUS
10
0.807451
20
1.15386
11
0.806102
21
1.15116
0
LINE
8
BLACK
6
CONTINUOUS
10
0.806102
20
1.15116
11
0.806102
21
1.15068
0
LINE
8
BLACK
6
CONTINUOUS
10
0.806102
20
1.15068
11
0.807451
21
1.14798
0
LINE
8
BLACK
6
CONTINUOUS
10
0.807451
20
1.14798
11
0.808648
21
1.14678
0
LINE
8
BLACK
6
CONTINUOUS
10
0.808648
20
1.14678
11
0.811346
21
1.14543
0
LINE
8
BLACK
6
CONTINUOUS
10
0.811346
20
1.14543
11
0.817451
21
1.14543
0
LINE
8
BLACK
6
CONTINUOUS
10
0.817451
20
1.14543
11
0.820148
21
1.14678
0
LINE
8
BLACK
6
CONTINUOUS
10
0.820148
20
1.14678
11
0.821345
21
1.14798
0
LINE
8
BLACK
6
CONTINUOUS
10
0.821345
20
1.14798
11
0.822694
21
1.15068
0
LINE
8
BLACK
6
CONTINUOUS
10
0.822694
20
1.15068
11
0.822694
21
1.15116
0
LINE
8
BLACK
6
CONTINUOUS
10
0.822694
20
1.15116
11
0.821345
21
1.15386
0
LINE
8
BLACK
6
CONTINUOUS
10
0.821345
20
1.15386
11
0.820148
21
1.15505
0
LINE
8
BLACK
6
CONTINUOUS
10
0.820148
20
1.15505
11
0.817451
21
1.1564
0
LINE
8
BLACK
6
CONTINUOUS
10
0.817451
20
1.1564
11
0.811346
21
1.1564
0
LINE
8
BLACK
6
CONTINUOUS
10
1.20161
20
1.14901
11
1.20175
21
1.14889
0
LINE
8
BLACK
6
CONTINUOUS
10
1.20175
20
1.14889
11
1.20192
21
1.14887
0
LINE
8
BLACK
6
CONTINUOUS
10
1.20192
20
1.14887
11
1.20567
21
1.147
0
LINE
8
BLACK
6
CONTINUOUS
10
1.20567
20
1.147
11
1.20649
21
1.14639
0
LINE
8
BLACK
6
CONTINUOUS
10
1.20649
20
1.14639
11
1.2073
21
1.14453
0
LINE
8
BLACK
6
CONTINUOUS
10
1.2073
20
1.14453
11
1.20672
21
1.1426
0
LINE
8
BLACK
6
CONTINUOUS
10
1.20672
20
1.1426
11
1.20504
21
1.14149
0
LINE
8
BLACK
6
CONTINUOUS
10
1.20504
20
1.14149
11
1.20303
21
1.14172
0
LINE
8
BLACK
6
CONTINUOUS
10
1.20303
20
1.14172
11
1.1999
21
1.14328
0
LINE
8
BLACK
6
CONTINUOUS
10
1.1999
20
1.14328
11
1.1938
21
1.14328
0
LINE
8
BLACK
6
CONTINUOUS
10
1.1938
20
1.14328
11
1.1911
21
1.14193
0
LINE
8
BLACK
6
CONTINUOUS
10
1.1911
20
1.14193
11
1.1899
21
1.14073
0
LINE
8
BLACK
6
CONTINUOUS
10
1.1899
20
1.14073
11
1.18855
21
1.13804
0
LINE
8
BLACK
6
CONTINUOUS
10
1.18855
20
1.13804
11
1.18855
21
1.12818
0
LINE
8
BLACK
6
CONTINUOUS
10
1.18855
20
1.12818
11
1.1899
21
1.12548
0
LINE
8
BLACK
6
CONTINUOUS
10
1.1899
20
1.12548
11
1.1911
21
1.12429
0
LINE
8
BLACK
6
CONTINUOUS
10
1.1911
20
1.12429
11
1.1938
21
1.12294
0
LINE
8
BLACK
6
CONTINUOUS
10
1.1938
20
1.12294
11
1.1999
21
1.12294
0
LINE
8
BLACK
6
CONTINUOUS
10
1.1999
20
1.12294
11
1.20303
21
1.1245
0
LINE
8
BLACK
6
CONTINUOUS
10
1.20303
20
1.1245
11
1.20401
21
1.12479
0
LINE
8
BLACK
6
CONTINUOUS
10
1.20401
20
1.12479
11
1.20598
21
1.12432
0
LINE
8
BLACK
6
CONTINUOUS
10
1.20598
20
1.12432
11
1.20718
21
1.1227
0
LINE
8
BLACK
6
CONTINUOUS
10
1.20718
20
1.1227
11
1.20706
21
1.12069
0
LINE
8
BLACK
6
CONTINUOUS
10
1.20706
20
1.12069
11
1.20567
21
1.11922
0
LINE
8
BLACK
6
CONTINUOUS
10
1.20567
20
1.11922
11
1.20192
21
1.11734
0
LINE
8
BLACK
6
CONTINUOUS
10
1.20192
20
1.11734
11
1.20094
21
1.11705
0
LINE
8
BLACK
6
CONTINUOUS
10
1.20094
20
1.11705
11
1.20077
21
1.11709
0
LINE
8
BLACK
6
CONTINUOUS
10
1.20077
20
1.11709
11
1.2006
21
1.11703
0
LINE
8
BLACK
6
CONTINUOUS
10
1.2006
20
1.11703
11
1.1931
21
1.11703
0
LINE
8
BLACK
6
CONTINUOUS
10
1.1931
20
1.11703
11
1.19209
21
1.11721
0
LINE
8
BLACK
6
CONTINUOUS
10
1.19209
20
1.11721
11
1.19196
21
1.11732
0
LINE
8
BLACK
6
CONTINUOUS
10
1.19196
20
1.11732
11
1.19178
21
1.11734
0
LINE
8
BLACK
6
CONTINUOUS
10
1.19178
20
1.11734
11
1.18803
21
1.11922
0
LINE
8
BLACK
6
CONTINUOUS
10
1.18803
20
1.11922
11
1.18732
21
1.11974
0
LINE
8
BLACK
6
CONTINUOUS
10
1.18732
20
1.11974
11
1.18726
21
1.11977
0
LINE
8
BLACK
6
CONTINUOUS
10
1.18726
20
1.11977
11
1.18539
21
1.12165
0
LINE
8
BLACK
6
CONTINUOUS
10
1.18539
20
1.12165
11
1.18488
21
1.12237
0
LINE
8
BLACK
6
CONTINUOUS
10
1.18488
20
1.12237
11
1.18484
21
1.12241
0
LINE
8
BLACK
6
CONTINUOUS
10
1.18484
20
1.12241
11
1.18296
21
1.12616
0
LINE
8
BLACK
6
CONTINUOUS
10
1.18296
20
1.12616
11
1.18267
21
1.12715
0
LINE
8
BLACK
6
CONTINUOUS
10
1.18267
20
1.12715
11
1.18271
21
1.12732
0
LINE
8
BLACK
6
CONTINUOUS
10
1.18271
20
1.12732
11
1.18265
21
1.12748
0
LINE
8
BLACK
6
CONTINUOUS
10
1.18265
20
1.12748
11
1.18265
21
1.13873
0
LINE
8
BLACK
6
CONTINUOUS
10
1.18265
20
1.13873
11
1.18283
21
1.13974
0
LINE
8
BLACK
6
CONTINUOUS
10
1.18283
20
1.13974
11
1.18294
21
1.13988
0
LINE
8
BLACK
6
CONTINUOUS
10
1.18294
20
1.13988
11
1.18296
21
1.14005
0
LINE
8
BLACK
6
CONTINUOUS
10
1.18296
20
1.14005
11
1.18484
21
1.1438
0
LINE
8
BLACK
6
CONTINUOUS
10
1.18484
20
1.1438
11
1.18536
21
1.14451
0
LINE
8
BLACK
6
CONTINUOUS
10
1.18536
20
1.14451
11
1.18539
21
1.14457
0
LINE
8
BLACK
6
CONTINUOUS
10
1.18539
20
1.14457
11
1.18726
21
1.14644
0
LINE
8
BLACK
6
CONTINUOUS
10
1.18726
20
1.14644
11
1.18799
21
1.14695
0
LINE
8
BLACK
6
CONTINUOUS
10
1.18799
20
1.14695
11
1.18803
21
1.147
0
LINE
8
BLACK
6
CONTINUOUS
10
1.18803
20
1.147
11
1.19178
21
1.14887
0
LINE
8
BLACK
6
CONTINUOUS
10
1.19178
20
1.14887
11
1.19276
21
1.14917
0
LINE
8
BLACK
6
CONTINUOUS
10
1.19276
20
1.14917
11
1.19293
21
1.14912
0
LINE
8
BLACK
6
CONTINUOUS
10
1.19293
20
1.14912
11
1.1931
21
1.14918
0
LINE
8
BLACK
6
CONTINUOUS
10
1.1931
20
1.14918
11
1.2006
21
1.14918
0
LINE
8
BLACK
6
CONTINUOUS
10
1.2006
20
1.14918
11
1.20161
21
1.14901
0
LINE
8
BLACK
6
CONTINUOUS
10
1.16599
20
1.14901
11
1.16612
21
1.14889
0
LINE
8
BLACK
6
CONTINUOUS
10
1.16612
20
1.14889
11
1.1663
21
1.14887
0
LINE
8
BLACK
6
CONTINUOUS
10
1.1663
20
1.14887
11
1.17005
21
1.147
0
LINE
8
BLACK
6
CONTINUOUS
10
1.17005
20
1.147
11
1.17087
21
1.14639
0
LINE
8
BLACK
6
CONTINUOUS
10
1.17087
20
1.14639
11
1.17105
21
1.14598
0
LINE
8
BLACK
6
CONTINUOUS
10
1.17105
20
1.14598
11
1.17137
21
1.14568
0
LINE
8
BLACK
6
CONTINUOUS
10
1.17137
20
1.14568
11
1.17324
21
1.14193
0
LINE
8
BLACK
6
CONTINUOUS
10
1.17324
20
1.14193
11
1.17354
21
1.14095
0
LINE
8
BLACK
6
CONTINUOUS
10
1.17354
20
1.14095
11
1.1735
21
1.14077
0
LINE
8
BLACK
6
CONTINUOUS
10
1.1735
20
1.14077
11
1.17356
21
1.14061
0
LINE
8
BLACK
6
CONTINUOUS
10
1.17356
20
1.14061
11
1.17356
21
1.13686
0
LINE
8
BLACK
6
CONTINUOUS
10
1.17356
20
1.13686
11
1.17338
21
1.13585
0
LINE
8
BLACK
6
CONTINUOUS
10
1.17338
20
1.13585
11
1.17306
21
1.13547
0
LINE
8
BLACK
6
CONTINUOUS
10
1.17306
20
1.13547
11
1.17291
21
1.13501
0
LINE
8
BLACK
6
CONTINUOUS
10
1.17291
20
1.13501
11
1.17244
21
1.13472
0
LINE
8
BLACK
6
CONTINUOUS
10
1.17244
20
1.13472
11
1.17208
21
1.1343
0
LINE
8
BLACK
6
CONTINUOUS
10
1.17208
20
1.1343
11
1.1716
21
1.13422
0
LINE
8
BLACK
6
CONTINUOUS
10
1.1716
20
1.13422
11
1.17118
21
1.13396
0
LINE
8
BLACK
6
CONTINUOUS
10
1.17118
20
1.13396
11
1.15481
21
1.13069
0
LINE
8
BLACK
6
CONTINUOUS
10
1.15481
20
1.13069
11
1.15481
21
1.12631
0
LINE
8
BLACK
6
CONTINUOUS
10
1.15481
20
1.12631
11
1.15593
21
1.12406
0
LINE
8
BLACK
6
CONTINUOUS
10
1.15593
20
1.12406
11
1.15818
21
1.12294
0
LINE
8
BLACK
6
CONTINUOUS
10
1.15818
20
1.12294
11
1.16428
21
1.12294
0
LINE
8
BLACK
6
CONTINUOUS
10
1.16428
20
1.12294
11
1.16741
21
1.1245
0
LINE
8
BLACK
6
CONTINUOUS
10
1.16741
20
1.1245
11
1.16839
21
1.12479
0
LINE
8
BLACK
6
CONTINUOUS
10
1.16839
20
1.12479
11
1.17036
21
1.12432
0
LINE
8
BLACK
6
CONTINUOUS
10
1.17036
20
1.12432
11
1.17156
21
1.1227
0
LINE
8
BLACK
6
CONTINUOUS
10
1.17156
20
1.1227
11
1.17144
21
1.12069
0
LINE
8
BLACK
6
CONTINUOUS
10
1.17144
20
1.12069
11
1.17005
21
1.11922
0
LINE
8
BLACK
6
CONTINUOUS
10
1.17005
20
1.11922
11
1.1663
21
1.11734
0
LINE
8
BLACK
6
CONTINUOUS
10
1.1663
20
1.11734
11
1.16532
21
1.11705
0
LINE
8
BLACK
6
CONTINUOUS
10
1.16532
20
1.11705
11
1.16515
21
1.11709
0
LINE
8
BLACK
6
CONTINUOUS
10
1.16515
20
1.11709
11
1.16498
21
1.11703
0
LINE
8
BLACK
6
CONTINUOUS
10
1.16498
20
1.11703
11
1.15748
21
1.11703
0
LINE
8
BLACK
6
CONTINUOUS
10
1.15748
20
1.11703
11
1.15647
21
1.11721
0
LINE
8
BLACK
6
CONTINUOUS
10
1.15647
20
1.11721
11
1.15634
21
1.11732
0
LINE
8
BLACK
6
CONTINUOUS
10
1.15634
20
1.11732
11
1.15616
21
1.11734
0
LINE
8
BLACK
6
CONTINUOUS
10
1.15616
20
1.11734
11
1.15241
21
1.11922
0
LINE
8
BLACK
6
CONTINUOUS
10
1.15241
20
1.11922
11
1.15159
21
1.11983
0
LINE
8
BLACK
6
CONTINUOUS
10
1.15159
20
1.11983
11
1.15141
21
1.12024
0
LINE
8
BLACK
6
CONTINUOUS
10
1.15141
20
1.12024
11
1.15109
21
1.12054
0
LINE
8
BLACK
6
CONTINUOUS
10
1.15109
20
1.12054
11
1.14921
21
1.12429
0
LINE
8
BLACK
6
CONTINUOUS
10
1.14921
20
1.12429
11
1.14892
21
1.12527
0
LINE
8
BLACK
6
CONTINUOUS
10
1.14892
20
1.12527
11
1.14896
21
1.12544
0
LINE
8
BLACK
6
CONTINUOUS
10
1.14896
20
1.12544
11
1.1489
21
1.12561
0
LINE
8
BLACK
6
CONTINUOUS
10
1.1489
20
1.12561
11
1.1489
21
1.14061
0
LINE
8
BLACK
6
CONTINUOUS
10
1.1489
20
1.14061
11
1.14908
21
1.14162
0
LINE
8
BLACK
6
CONTINUOUS
10
1.14908
20
1.14162
11
1.14919
21
1.14175
0
LINE
8
BLACK
6
CONTINUOUS
10
1.14919
20
1.14175
11
1.14921
21
1.14193
0
LINE
8
BLACK
6
CONTINUOUS
10
1.14921
20
1.14193
11
1.15109
21
1.14568
0
LINE
8
BLACK
6
CONTINUOUS
10
1.15109
20
1.14568
11
1.1517
21
1.1465
0
LINE
8
BLACK
6
CONTINUOUS
10
1.1517
20
1.1465
11
1.15211
21
1.14668
0
LINE
8
BLACK
6
CONTINUOUS
10
1.15211
20
1.14668
11
1.15241
21
1.147
0
LINE
8
BLACK
6
CONTINUOUS
10
1.15241
20
1.147
11
1.15616
21
1.14887
0
LINE
8
BLACK
6
CONTINUOUS
10
1.15616
20
1.14887
11
1.15714
21
1.14917
0
LINE
8
BLACK
6
CONTINUOUS
10
1.15714
20
1.14917
11
1.15731
21
1.14912
0
LINE
8
BLACK
6
CONTINUOUS
10
1.15731
20
1.14912
11
1.15748
21
1.14918
0
LINE
8
BLACK
6
CONTINUOUS
10
1.15748
20
1.14918
11
1.16498
21
1.14918
0
LINE
8
BLACK
6
CONTINUOUS
10
1.16498
20
1.14918
11
1.16599
21
1.14901
0
LINE
8
BLACK
6
CONTINUOUS
10
1.15818
20
1.14328
11
1.15593
21
1.14216
0
LINE
8
BLACK
6
CONTINUOUS
10
1.15593
20
1.14216
11
1.15481
21
1.13991
0
LINE
8
BLACK
6
CONTINUOUS
10
1.15481
20
1.13991
11
1.15481
21
1.13671
0
LINE
8
BLACK
6
CONTINUOUS
10
1.15481
20
1.13671
11
1.16765
21
1.13928
0
LINE
8
BLACK
6
CONTINUOUS
10
1.16765
20
1.13928
11
1.16765
21
1.13991
0
LINE
8
BLACK
6
CONTINUOUS
10
1.16765
20
1.13991
11
1.16653
21
1.14216
0
LINE
8
BLACK
6
CONTINUOUS
10
1.16653
20
1.14216
11
1.16428
21
1.14328
0
LINE
8
BLACK
6
CONTINUOUS
10
1.16428
20
1.14328
11
1.15818
21
1.14328
0
LINE
8
BLACK
6
CONTINUOUS
10
1.47345
20
1.14901
11
1.47359
21
1.14889
0
LINE
8
BLACK
6
CONTINUOUS
10
1.47359
20
1.14889
11
1.47376
21
1.14887
0
LINE
8
BLACK
6
CONTINUOUS
10
1.47376
20
1.14887
11
1.47751
21
1.147
0
LINE
8
BLACK
6
CONTINUOUS
10
1.47751
20
1.147
11
1.47833
21
1.14639
0
LINE
8
BLACK
6
CONTINUOUS
10
1.47833
20
1.14639
11
1.47914
21
1.14453
0
LINE
8
BLACK
6
CONTINUOUS
10
1.47914
20
1.14453
11
1.47856
21
1.1426
0
LINE
8
BLACK
6
CONTINUOUS
10
1.47856
20
1.1426
11
1.47688
21
1.14149
0
LINE
8
BLACK
6
CONTINUOUS
10
1.47688
20
1.14149
11
1.47487
21
1.14172
0
LINE
8
BLACK
6
CONTINUOUS
10
1.47487
20
1.14172
11
1.47174
21
1.14328
0
LINE
8
BLACK
6
CONTINUOUS
10
1.47174
20
1.14328
11
1.46564
21
1.14328
0
LINE
8
BLACK
6
CONTINUOUS
10
1.46564
20
1.14328
11
1.46294
21
1.14193
0
LINE
8
BLACK
6
CONTINUOUS
10
1.46294
20
1.14193
11
1.46174
21
1.14073
0
LINE
8
BLACK
6
CONTINUOUS
10
1.46174
20
1.14073
11
1.4604
21
1.13804
0
LINE
8
BLACK
6
CONTINUOUS
10
1.4604
20
1.13804
11
1.4604
21
1.12818
0
LINE
8
BLACK
6
CONTINUOUS
10
1.4604
20
1.12818
11
1.46174
21
1.12548
0
LINE
8
BLACK
6
CONTINUOUS
10
1.46174
20
1.12548
11
1.46294
21
1.12429
0
LINE
8
BLACK
6
CONTINUOUS
10
1.46294
20
1.12429
11
1.46564
21
1.12294
0
LINE
8
BLACK
6
CONTINUOUS
10
1.46564
20
1.12294
11
1.47174
21
1.12294
0
LINE
8
BLACK
6
CONTINUOUS
10
1.47174
20
1.12294
11
1.47487
21
1.1245
0
LINE
8
BLACK
6
CONTINUOUS
10
1.47487
20
1.1245
11
1.47585
21
1.12479
0
LINE
8
BLACK
6
CONTINUOUS
10
1.47585
20
1.12479
11
1.47782
21
1.12432
0
LINE
8
BLACK
6
CONTINUOUS
10
1.47782
20
1.12432
11
1.47902
21
1.1227
0
LINE
8
BLACK
6
CONTINUOUS
10
1.47902
20
1.1227
11
1.4789
21
1.12069
0
LINE
8
BLACK
6
CONTINUOUS
10
1.4789
20
1.12069
11
1.47751
21
1.11922
0
LINE
8
BLACK
6
CONTINUOUS
10
1.47751
20
1.11922
11
1.47376
21
1.11734
0
LINE
8
BLACK
6
CONTINUOUS
10
1.47376
20
1.11734
11
1.47278
21
1.11705
0
LINE
8
BLACK
6
CONTINUOUS
10
1.47278
20
1.11705
11
1.47261
21
1.11709
0
LINE
8
BLACK
6
CONTINUOUS
10
1.47261
20
1.11709
11
1.47244
21
1.11703
0
LINE
8
BLACK
6
CONTINUOUS
10
1.47244
20
1.11703
11
1.46494
21
1.11703
0
LINE
8
BLACK
6
CONTINUOUS
10
1.46494
20
1.11703
11
1.46393
21
1.11721
0
LINE
8
BLACK
6
CONTINUOUS
10
1.46393
20
1.11721
11
1.4638
21
1.11732
0
LINE
8
BLACK
6
CONTINUOUS
10
1.4638
20
1.11732
11
1.46362
21
1.11734
0
LINE
8
BLACK
6
CONTINUOUS
10
1.46362
20
1.11734
11
1.45987
21
1.11922
0
LINE
8
BLACK
6
CONTINUOUS
10
1.45987
20
1.11922
11
1.45916
21
1.11974
0
LINE
8
BLACK
6
CONTINUOUS
10
1.45916
20
1.11974
11
1.4591
21
1.11977
0
LINE
8
BLACK
6
CONTINUOUS
10
1.4591
20
1.11977
11
1.45723
21
1.12165
0
LINE
8
BLACK
6
CONTINUOUS
10
1.45723
20
1.12165
11
1.45672
21
1.12237
0
LINE
8
BLACK
6
CONTINUOUS
10
1.45672
20
1.12237
11
1.45668
21
1.12241
0
LINE
8
BLACK
6
CONTINUOUS
10
1.45668
20
1.12241
11
1.4548
21
1.12616
0
LINE
8
BLACK
6
CONTINUOUS
10
1.4548
20
1.12616
11
1.45451
21
1.12715
0
LINE
8
BLACK
6
CONTINUOUS
10
1.45451
20
1.12715
11
1.45455
21
1.12732
0
LINE
8
BLACK
6
CONTINUOUS
10
1.45455
20
1.12732
11
1.45449
21
1.12748
0
LINE
8
BLACK
6
CONTINUOUS
10
1.45449
20
1.12748
11
1.45449
21
1.13873
0
LINE
8
BLACK
6
CONTINUOUS
10
1.45449
20
1.13873
11
1.45467
21
1.13974
0
LINE
8
BLACK
6
CONTINUOUS
10
1.45467
20
1.13974
11
1.45478
21
1.13988
0
LINE
8
BLACK
6
CONTINUOUS
10
1.45478
20
1.13988
11
1.4548
21
1.14005
0
LINE
8
BLACK
6
CONTINUOUS
10
1.4548
20
1.14005
11
1.45668
21
1.1438
0
LINE
8
BLACK
6
CONTINUOUS
10
1.45668
20
1.1438
11
1.4572
21
1.14451
0
LINE
8
BLACK
6
CONTINUOUS
10
1.4572
20
1.14451
11
1.45723
21
1.14457
0
LINE
8
BLACK
6
CONTINUOUS
10
1.45723
20
1.14457
11
1.4591
21
1.14644
0
LINE
8
BLACK
6
CONTINUOUS
10
1.4591
20
1.14644
11
1.45983
21
1.14695
0
LINE
8
BLACK
6
CONTINUOUS
10
1.45983
20
1.14695
11
1.45987
21
1.147
0
LINE
8
BLACK
6
CONTINUOUS
10
1.45987
20
1.147
11
1.46362
21
1.14887
0
LINE
8
BLACK
6
CONTINUOUS
10
1.46362
20
1.14887
11
1.4646
21
1.14917
0
LINE
8
BLACK
6
CONTINUOUS
10
1.4646
20
1.14917
11
1.46478
21
1.14912
0
LINE
8
BLACK
6
CONTINUOUS
10
1.46478
20
1.14912
11
1.46494
21
1.14918
0
LINE
8
BLACK
6
CONTINUOUS
10
1.46494
20
1.14918
11
1.47244
21
1.14918
0
LINE
8
BLACK
6
CONTINUOUS
10
1.47244
20
1.14918
11
1.47345
21
1.14901
0
LINE
8
BLACK
6
CONTINUOUS
10
1.43596
20
1.14901
11
1.43609
21
1.14889
0
LINE
8
BLACK
6
CONTINUOUS
10
1.43609
20
1.14889
11
1.43627
21
1.14887
0
LINE
8
BLACK
6
CONTINUOUS
10
1.43627
20
1.14887
11
1.44002
21
1.147
0
LINE
8
BLACK
6
CONTINUOUS
10
1.44002
20
1.147
11
1.44072
21
1.14647
0
LINE
8
BLACK
6
CONTINUOUS
10
1.44072
20
1.14647
11
1.44078
21
1.14644
0
LINE
8
BLACK
6
CONTINUOUS
10
1.44078
20
1.14644
11
1.44266
21
1.14457
0
LINE
8
BLACK
6
CONTINUOUS
10
1.44266
20
1.14457
11
1.44316
21
1.14385
0
LINE
8
BLACK
6
CONTINUOUS
10
1.44316
20
1.14385
11
1.44321
21
1.1438
0
LINE
8
BLACK
6
CONTINUOUS
10
1.44321
20
1.1438
11
1.44509
21
1.14005
0
LINE
8
BLACK
6
CONTINUOUS
10
1.44509
20
1.14005
11
1.44538
21
1.13907
0
LINE
8
BLACK
6
CONTINUOUS
10
1.44538
20
1.13907
11
1.44534
21
1.1389
0
LINE
8
BLACK
6
CONTINUOUS
10
1.44534
20
1.1389
11
1.4454
21
1.13873
0
LINE
8
BLACK
6
CONTINUOUS
10
1.4454
20
1.13873
11
1.4454
21
1.12748
0
LINE
8
BLACK
6
CONTINUOUS
10
1.4454
20
1.12748
11
1.44522
21
1.12647
0
LINE
8
BLACK
6
CONTINUOUS
10
1.44522
20
1.12647
11
1.44511
21
1.12634
0
LINE
8
BLACK
6
CONTINUOUS
10
1.44511
20
1.12634
11
1.44509
21
1.12616
0
LINE
8
BLACK
6
CONTINUOUS
10
1.44509
20
1.12616
11
1.44321
21
1.12241
0
LINE
8
BLACK
6
CONTINUOUS
10
1.44321
20
1.12241
11
1.44269
21
1.1217
0
LINE
8
BLACK
6
CONTINUOUS
10
1.44269
20
1.1217
11
1.44266
21
1.12165
0
LINE
8
BLACK
6
CONTINUOUS
10
1.44266
20
1.12165
11
1.44078
21
1.11977
0
LINE
8
BLACK
6
CONTINUOUS
10
1.44078
20
1.11977
11
1.44006
21
1.11927
0
LINE
8
BLACK
6
CONTINUOUS
10
1.44006
20
1.11927
11
1.44002
21
1.11922
0
LINE
8
BLACK
6
CONTINUOUS
10
1.44002
20
1.11922
11
1.43627
21
1.11734
0
LINE
8
BLACK
6
CONTINUOUS
10
1.43627
20
1.11734
11
1.43528
21
1.11705
0
LINE
8
BLACK
6
CONTINUOUS
10
1.43528
20
1.11705
11
1.43511
21
1.11709
0
LINE
8
BLACK
6
CONTINUOUS
10
1.43511
20
1.11709
11
1.43495
21
1.11703
0
LINE
8
BLACK
6
CONTINUOUS
10
1.43495
20
1.11703
11
1.42932
21
1.11703
0
LINE
8
BLACK
6
CONTINUOUS
10
1.42932
20
1.11703
11
1.42831
21
1.11721
0
LINE
8
BLACK
6
CONTINUOUS
10
1.42831
20
1.11721
11
1.42818
21
1.11732
0
LINE
8
BLACK
6
CONTINUOUS
10
1.42818
20
1.11732
11
1.428
21
1.11734
0
LINE
8
BLACK
6
CONTINUOUS
10
1.428
20
1.11734
11
1.42425
21
1.11922
0
LINE
8
BLACK
6
CONTINUOUS
10
1.42425
20
1.11922
11
1.42354
21
1.11974
0
LINE
8
BLACK
6
CONTINUOUS
10
1.42354
20
1.11974
11
1.42348
21
1.11977
0
LINE
8
BLACK
6
CONTINUOUS
10
1.42348
20
1.11977
11
1.42161
21
1.12165
0
LINE
8
BLACK
6
CONTINUOUS
10
1.42161
20
1.12165
11
1.4211
21
1.12237
0
LINE
8
BLACK
6
CONTINUOUS
10
1.4211
20
1.12237
11
1.42106
21
1.12241
0
LINE
8
BLACK
6
CONTINUOUS
10
1.42106
20
1.12241
11
1.41918
21
1.12616
0
LINE
8
BLACK
6
CONTINUOUS
10
1.41918
20
1.12616
11
1.41889
21
1.12715
0
LINE
8
BLACK
6
CONTINUOUS
10
1.41889
20
1.12715
11
1.41893
21
1.12732
0
LINE
8
BLACK
6
CONTINUOUS
10
1.41893
20
1.12732
11
1.41887
21
1.12748
0
LINE
8
BLACK
6
CONTINUOUS
10
1.41887
20
1.12748
11
1.41887
21
1.13873
0
LINE
8
BLACK
6
CONTINUOUS
10
1.41887
20
1.13873
11
1.41905
21
1.13974
0
LINE
8
BLACK
6
CONTINUOUS
10
1.41905
20
1.13974
11
1.41916
21
1.13988
0
LINE
8
BLACK
6
CONTINUOUS
10
1.41916
20
1.13988
11
1.41918
21
1.14005
0
LINE
8
BLACK
6
CONTINUOUS
10
1.41918
20
1.14005
11
1.42106
21
1.1438
0
LINE
8
BLACK
6
CONTINUOUS
10
1.42106
20
1.1438
11
1.42158
21
1.14451
0
LINE
8
BLACK
6
CONTINUOUS
10
1.42158
20
1.14451
11
1.42161
21
1.14457
0
LINE
8
BLACK
6
CONTINUOUS
10
1.42161
20
1.14457
11
1.42348
21
1.14644
0
LINE
8
BLACK
6
CONTINUOUS
10
1.42348
20
1.14644
11
1.42421
21
1.14695
0
LINE
8
BLACK
6
CONTINUOUS
10
1.42421
20
1.14695
11
1.42425
21
1.147
0
LINE
8
BLACK
6
CONTINUOUS
10
1.42425
20
1.147
11
1.428
21
1.14887
0
LINE
8
BLACK
6
CONTINUOUS
10
1.428
20
1.14887
11
1.42898
21
1.14917
0
LINE
8
BLACK
6
CONTINUOUS
10
1.42898
20
1.14917
11
1.42916
21
1.14912
0
LINE
8
BLACK
6
CONTINUOUS
10
1.42916
20
1.14912
11
1.42932
21
1.14918
0
LINE
8
BLACK
6
CONTINUOUS
10
1.42932
20
1.14918
11
1.43495
21
1.14918
0
LINE
8
BLACK
6
CONTINUOUS
10
1.43495
20
1.14918
11
1.43596
21
1.14901
0
LINE
8
BLACK
6
CONTINUOUS
10
1.43002
20
1.14328
11
1.42732
21
1.14193
0
LINE
8
BLACK
6
CONTINUOUS
10
1.42732
20
1.14193
11
1.42612
21
1.14073
0
LINE
8
BLACK
6
CONTINUOUS
10
1.42612
20
1.14073
11
1.42477
21
1.13804
0
LINE
8
BLACK
6
CONTINUOUS
10
1.42477
20
1.13804
11
1.42477
21
1.12818
0
LINE
8
BLACK
6
CONTINUOUS
10
1.42477
20
1.12818
11
1.42612
21
1.12548
0
LINE
8
BLACK
6
CONTINUOUS
10
1.42612
20
1.12548
11
1.42732
21
1.12429
0
LINE
8
BLACK
6
CONTINUOUS
10
1.42732
20
1.12429
11
1.43002
21
1.12294
0
LINE
8
BLACK
6
CONTINUOUS
10
1.43002
20
1.12294
11
1.43425
21
1.12294
0
LINE
8
BLACK
6
CONTINUOUS
10
1.43425
20
1.12294
11
1.43695
21
1.12429
0
LINE
8
BLACK
6
CONTINUOUS
10
1.43695
20
1.12429
11
1.43814
21
1.12548
0
LINE
8
BLACK
6
CONTINUOUS
10
1.43814
20
1.12548
11
1.43949
21
1.12818
0
LINE
8
BLACK
6
CONTINUOUS
10
1.43949
20
1.12818
11
1.43949
21
1.13804
0
LINE
8
BLACK
6
CONTINUOUS
10
1.43949
20
1.13804
11
1.43814
21
1.14073
0
LINE
8
BLACK
6
CONTINUOUS
10
1.43814
20
1.14073
11
1.43695
21
1.14193
0
LINE
8
BLACK
6
CONTINUOUS
10
1.43695
20
1.14193
11
1.43425
21
1.14328
0
LINE
8
BLACK
6
CONTINUOUS
10
1.43425
20
1.14328
11
1.43002
21
1.14328
0
LINE
8
BLACK
6
CONTINUOUS
10
0.58044
20
1.16125
11
0.58113
21
1.15936
0
LINE
8
BLACK
6
CONTINUOUS
10
0.58113
20
1.15936
11
0.58113
21
1.12294
0
LINE
8
BLACK
6
CONTINUOUS
10
0.58113
20
1.12294
11
0.596925
21
1.12294
0
LINE
8
BLACK
6
CONTINUOUS
10
0.596925
20
1.12294
11
0.597935
21
1.12276
0
LINE
8
BLACK
6
CONTINUOUS
10
0.597935
20
1.12276
11
0.599483
21
1.12146
0
LINE
8
BLACK
6
CONTINUOUS
10
0.599483
20
1.12146
11
0.599833
21
1.11947
0
LINE
8
BLACK
6
CONTINUOUS
10
0.599833
20
1.11947
11
0.598823
21
1.11772
0
LINE
8
BLACK
6
CONTINUOUS
10
0.598823
20
1.11772
11
0.596925
21
1.11703
0
LINE
8
BLACK
6
CONTINUOUS
10
0.596925
20
1.11703
11
0.578178
21
1.11703
0
LINE
8
BLACK
6
CONTINUOUS
10
0.578178
20
1.11703
11
0.577794
21
1.1171
0
LINE
8
BLACK
6
CONTINUOUS
10
0.577794
20
1.1171
11
0.577665
21
1.11708
0
LINE
8
BLACK
6
CONTINUOUS
10
0.577665
20
1.11708
11
0.577551
21
1.11714
0
LINE
8
BLACK
6
CONTINUOUS
10
0.577551
20
1.11714
11
0.577168
21
1.11721
0
LINE
8
BLACK
6
CONTINUOUS
10
0.577168
20
1.11721
11
0.57658
21
1.1177
0
LINE
8
BLACK
6
CONTINUOUS
10
0.57658
20
1.1177
11
0.575916
21
1.11809
0
LINE
8
BLACK
6
CONTINUOUS
10
0.575916
20
1.11809
11
0.575825
21
1.11834
0
LINE
8
BLACK
6
CONTINUOUS
10
0.575825
20
1.11834
11
0.575621
21
1.11851
0
LINE
8
BLACK
6
CONTINUOUS
10
0.575621
20
1.11851
11
0.575487
21
1.11926
0
LINE
8
BLACK
6
CONTINUOUS
10
0.575487
20
1.11926
11
0.575225
21
1.11999
0
LINE
8
BLACK
6
CONTINUOUS
10
0.575225
20
1.11999
11
0.575225
21
1.15936
0
LINE
8
BLACK
6
CONTINUOUS
10
0.575225
20
1.15936
11
0.575403
21
1.16037
0
LINE
8
BLACK
6
CONTINUOUS
10
0.575403
20
1.16037
11
0.576701
21
1.16191
0
LINE
8
BLACK
6
CONTINUOUS
10
0.576701
20
1.16191
11
0.57869
21
1.16226
0
LINE
8
BLACK
6
CONTINUOUS
10
0.57869
20
1.16226
11
0.58044
21
1.16125
0
LINE
8
BLACK
6
CONTINUOUS
10
1.25035
20
1.14901
11
1.25049
21
1.14889
0
LINE
8
BLACK
6
CONTINUOUS
10
1.25049
20
1.14889
11
1.25066
21
1.14887
0
LINE
8
BLACK
6
CONTINUOUS
10
1.25066
20
1.14887
11
1.25441
21
1.147
0
LINE
8
BLACK
6
CONTINUOUS
10
1.25441
20
1.147
11
1.25524
21
1.14639
0
LINE
8
BLACK
6
CONTINUOUS
10
1.25524
20
1.14639
11
1.25604
21
1.14453
0
LINE
8
BLACK
6
CONTINUOUS
10
1.25604
20
1.14453
11
1.25546
21
1.1426
0
LINE
8
BLACK
6
CONTINUOUS
10
1.25546
20
1.1426
11
1.25378
21
1.14149
0
LINE
8
BLACK
6
CONTINUOUS
10
1.25378
20
1.14149
11
1.25177
21
1.14172
0
LINE
8
BLACK
6
CONTINUOUS
10
1.25177
20
1.14172
11
1.24865
21
1.14328
0
LINE
8
BLACK
6
CONTINUOUS
10
1.24865
20
1.14328
11
1.24442
21
1.14328
0
LINE
8
BLACK
6
CONTINUOUS
10
1.24442
20
1.14328
11
1.24217
21
1.14216
0
LINE
8
BLACK
6
CONTINUOUS
10
1.24217
20
1.14216
11
1.24105
21
1.13991
0
LINE
8
BLACK
6
CONTINUOUS
10
1.24105
20
1.13991
11
1.24105
21
1.13943
0
LINE
8
BLACK
6
CONTINUOUS
10
1.24105
20
1.13943
11
1.24217
21
1.13718
0
LINE
8
BLACK
6
CONTINUOUS
10
1.24217
20
1.13718
11
1.24442
21
1.13606
0
LINE
8
BLACK
6
CONTINUOUS
10
1.24442
20
1.13606
11
1.24934
21
1.13606
0
LINE
8
BLACK
6
CONTINUOUS
10
1.24934
20
1.13606
11
1.25035
21
1.13588
0
LINE
8
BLACK
6
CONTINUOUS
10
1.25035
20
1.13588
11
1.25049
21
1.13577
0
LINE
8
BLACK
6
CONTINUOUS
10
1.25049
20
1.13577
11
1.25066
21
1.13575
0
LINE
8
BLACK
6
CONTINUOUS
10
1.25066
20
1.13575
11
1.25441
21
1.13387
0
LINE
8
BLACK
6
CONTINUOUS
10
1.25441
20
1.13387
11
1.25524
21
1.13326
0
LINE
8
BLACK
6
CONTINUOUS
10
1.25524
20
1.13326
11
1.25541
21
1.13286
0
LINE
8
BLACK
6
CONTINUOUS
10
1.25541
20
1.13286
11
1.25573
21
1.13255
0
LINE
8
BLACK
6
CONTINUOUS
10
1.25573
20
1.13255
11
1.25761
21
1.1288
0
LINE
8
BLACK
6
CONTINUOUS
10
1.25761
20
1.1288
11
1.2579
21
1.12782
0
LINE
8
BLACK
6
CONTINUOUS
10
1.2579
20
1.12782
11
1.25786
21
1.12765
0
LINE
8
BLACK
6
CONTINUOUS
10
1.25786
20
1.12765
11
1.25792
21
1.12748
0
LINE
8
BLACK
6
CONTINUOUS
10
1.25792
20
1.12748
11
1.25792
21
1.12561
0
LINE
8
BLACK
6
CONTINUOUS
10
1.25792
20
1.12561
11
1.25774
21
1.1246
0
LINE
8
BLACK
6
CONTINUOUS
10
1.25774
20
1.1246
11
1.25763
21
1.12446
0
LINE
8
BLACK
6
CONTINUOUS
10
1.25763
20
1.12446
11
1.25761
21
1.12429
0
LINE
8
BLACK
6
CONTINUOUS
10
1.25761
20
1.12429
11
1.25573
21
1.12054
0
LINE
8
BLACK
6
CONTINUOUS
10
1.25573
20
1.12054
11
1.25512
21
1.11972
0
LINE
8
BLACK
6
CONTINUOUS
10
1.25512
20
1.11972
11
1.25472
21
1.11954
0
LINE
8
BLACK
6
CONTINUOUS
10
1.25472
20
1.11954
11
1.25441
21
1.11922
0
LINE
8
BLACK
6
CONTINUOUS
10
1.25441
20
1.11922
11
1.25066
21
1.11734
0
LINE
8
BLACK
6
CONTINUOUS
10
1.25066
20
1.11734
11
1.24968
21
1.11705
0
LINE
8
BLACK
6
CONTINUOUS
10
1.24968
20
1.11705
11
1.24951
21
1.11709
0
LINE
8
BLACK
6
CONTINUOUS
10
1.24951
20
1.11709
11
1.24934
21
1.11703
0
LINE
8
BLACK
6
CONTINUOUS
10
1.24934
20
1.11703
11
1.24184
21
1.11703
0
LINE
8
BLACK
6
CONTINUOUS
10
1.24184
20
1.11703
11
1.24083
21
1.11721
0
LINE
8
BLACK
6
CONTINUOUS
10
1.24083
20
1.11721
11
1.2407
21
1.11732
0
LINE
8
BLACK
6
CONTINUOUS
10
1.2407
20
1.11732
11
1.24052
21
1.11734
0
LINE
8
BLACK
6
CONTINUOUS
10
1.24052
20
1.11734
11
1.23677
21
1.11922
0
LINE
8
BLACK
6
CONTINUOUS
10
1.23677
20
1.11922
11
1.23595
21
1.11983
0
LINE
8
BLACK
6
CONTINUOUS
10
1.23595
20
1.11983
11
1.23515
21
1.12168
0
LINE
8
BLACK
6
CONTINUOUS
10
1.23515
20
1.12168
11
1.23572
21
1.12362
0
LINE
8
BLACK
6
CONTINUOUS
10
1.23572
20
1.12362
11
1.23741
21
1.12473
0
LINE
8
BLACK
6
CONTINUOUS
10
1.23741
20
1.12473
11
1.23942
21
1.1245
0
LINE
8
BLACK
6
CONTINUOUS
10
1.23942
20
1.1245
11
1.24254
21
1.12294
0
LINE
8
BLACK
6
CONTINUOUS
10
1.24254
20
1.12294
11
1.24865
21
1.12294
0
LINE
8
BLACK
6
CONTINUOUS
10
1.24865
20
1.12294
11
1.25089
21
1.12406
0
LINE
8
BLACK
6
CONTINUOUS
10
1.25089
20
1.12406
11
1.25202
21
1.12631
0
LINE
8
BLACK
6
CONTINUOUS
10
1.25202
20
1.12631
11
1.25202
21
1.12679
0
LINE
8
BLACK
6
CONTINUOUS
10
1.25202
20
1.12679
11
1.25089
21
1.12903
0
LINE
8
BLACK
6
CONTINUOUS
10
1.25089
20
1.12903
11
1.24865
21
1.13016
0
LINE
8
BLACK
6
CONTINUOUS
10
1.24865
20
1.13016
11
1.24372
21
1.13016
0
LINE
8
BLACK
6
CONTINUOUS
10
1.24372
20
1.13016
11
1.24271
21
1.13033
0
LINE
8
BLACK
6
CONTINUOUS
10
1.24271
20
1.13033
11
1.24257
21
1.13045
0
LINE
8
BLACK
6
CONTINUOUS
10
1.24257
20
1.13045
11
1.2424
21
1.13047
0
LINE
8
BLACK
6
CONTINUOUS
10
1.2424
20
1.13047
11
1.23865
21
1.13234
0
LINE
8
BLACK
6
CONTINUOUS
10
1.23865
20
1.13234
11
1.23783
21
1.13295
0
LINE
8
BLACK
6
CONTINUOUS
10
1.23783
20
1.13295
11
1.23765
21
1.13336
0
LINE
8
BLACK
6
CONTINUOUS
10
1.23765
20
1.13336
11
1.23733
21
1.13366
0
LINE
8
BLACK
6
CONTINUOUS
10
1.23733
20
1.13366
11
1.23545
21
1.13741
0
LINE
8
BLACK
6
CONTINUOUS
10
1.23545
20
1.13741
11
1.23516
21
1.1384
0
LINE
8
BLACK
6
CONTINUOUS
10
1.23516
20
1.1384
11
1.2352
21
1.13857
0
LINE
8
BLACK
6
CONTINUOUS
10
1.2352
20
1.13857
11
1.23514
21
1.13873
0
LINE
8
BLACK
6
CONTINUOUS
10
1.23514
20
1.13873
11
1.23514
21
1.14061
0
LINE
8
BLACK
6
CONTINUOUS
10
1.23514
20
1.14061
11
1.23532
21
1.14162
0
LINE
8
BLACK
6
CONTINUOUS
10
1.23532
20
1.14162
11
1.23543
21
1.14175
0
LINE
8
BLACK
6
CONTINUOUS
10
1.23543
20
1.14175
11
1.23545
21
1.14193
0
LINE
8
BLACK
6
CONTINUOUS
10
1.23545
20
1.14193
11
1.23733
21
1.14568
0
LINE
8
BLACK
6
CONTINUOUS
10
1.23733
20
1.14568
11
1.23794
21
1.1465
0
LINE
8
BLACK
6
CONTINUOUS
10
1.23794
20
1.1465
11
1.23835
21
1.14668
0
LINE
8
BLACK
6
CONTINUOUS
10
1.23835
20
1.14668
11
1.23865
21
1.147
0
LINE
8
BLACK
6
CONTINUOUS
10
1.23865
20
1.147
11
1.2424
21
1.14887
0
LINE
8
BLACK
6
CONTINUOUS
10
1.2424
20
1.14887
11
1.24338
21
1.14917
0
LINE
8
BLACK
6
CONTINUOUS
10
1.24338
20
1.14917
11
1.24355
21
1.14912
0
LINE
8
BLACK
6
CONTINUOUS
10
1.24355
20
1.14912
11
1.24372
21
1.14918
0
LINE
8
BLACK
6
CONTINUOUS
10
1.24372
20
1.14918
11
1.24934
21
1.14918
0
LINE
8
BLACK
6
CONTINUOUS
10
1.24934
20
1.14918
11
1.25035
21
1.14901
0
LINE
8
BLACK
6
CONTINUOUS
10
0.629806
20
1.16213
11
0.631354
21
1.16083
0
LINE
8
BLACK
6
CONTINUOUS
10
0.631354
20
1.16083
11
0.631704
21
1.15884
0
LINE
8
BLACK
6
CONTINUOUS
10
0.631704
20
1.15884
11
0.630694
21
1.15709
0
LINE
8
BLACK
6
CONTINUOUS
10
0.630694
20
1.15709
11
0.628796
21
1.1564
0
LINE
8
BLACK
6
CONTINUOUS
10
0.628796
20
1.1564
11
0.613001
21
1.1564
0
LINE
8
BLACK
6
CONTINUOUS
10
0.613001
20
1.1564
11
0.613001
21
1.14356
0
LINE
8
BLACK
6
CONTINUOUS
10
0.613001
20
1.14356
11
0.623172
21
1.14356
0
LINE
8
BLACK
6
CONTINUOUS
10
0.623172
20
1.14356
11
0.624182
21
1.14338
0
LINE
8
BLACK
6
CONTINUOUS
10
0.624182
20
1.14338
11
0.625729
21
1.14208
0
LINE
8
BLACK
6
CONTINUOUS
10
0.625729
20
1.14208
11
0.62608
21
1.14009
0
LINE
8
BLACK
6
CONTINUOUS
10
0.62608
20
1.14009
11
0.62507
21
1.13835
0
LINE
8
BLACK
6
CONTINUOUS
10
0.62507
20
1.13835
11
0.623172
21
1.13765
0
LINE
8
BLACK
6
CONTINUOUS
10
0.623172
20
1.13765
11
0.613001
21
1.13765
0
LINE
8
BLACK
6
CONTINUOUS
10
0.613001
20
1.13765
11
0.613001
21
1.12294
0
LINE
8
BLACK
6
CONTINUOUS
10
0.613001
20
1.12294
11
0.628796
21
1.12294
0
LINE
8
BLACK
6
CONTINUOUS
10
0.628796
20
1.12294
11
0.629806
21
1.12276
0
LINE
8
BLACK
6
CONTINUOUS
10
0.629806
20
1.12276
11
0.631354
21
1.12146
0
LINE
8
BLACK
6
CONTINUOUS
10
0.631354
20
1.12146
11
0.631704
21
1.11947
0
LINE
8
BLACK
6
CONTINUOUS
10
0.631704
20
1.11947
11
0.630694
21
1.11772
0
LINE
8
BLACK
6
CONTINUOUS
10
0.630694
20
1.11772
11
0.628796
21
1.11703
0
LINE
8
BLACK
6
CONTINUOUS
10
0.628796
20
1.11703
11
0.610049
21
1.11703
0
LINE
8
BLACK
6
CONTINUOUS
10
0.610049
20
1.11703
11
0.609665
21
1.1171
0
LINE
8
BLACK
6
CONTINUOUS
10
0.609665
20
1.1171
11
0.609536
21
1.11708
0
LINE
8
BLACK
6
CONTINUOUS
10
0.609536
20
1.11708
11
0.609422
21
1.11714
0
LINE
8
BLACK
6
CONTINUOUS
10
0.609422
20
1.11714
11
0.609039
21
1.11721
0
LINE
8
BLACK
6
CONTINUOUS
10
0.609039
20
1.11721
11
0.608451
21
1.1177
0
LINE
8
BLACK
6
CONTINUOUS
10
0.608451
20
1.1177
11
0.607787
21
1.11809
0
LINE
8
BLACK
6
CONTINUOUS
10
0.607787
20
1.11809
11
0.607696
21
1.11834
0
LINE
8
BLACK
6
CONTINUOUS
10
0.607696
20
1.11834
11
0.607492
21
1.11851
0
LINE
8
BLACK
6
CONTINUOUS
10
0.607492
20
1.11851
11
0.607358
21
1.11926
0
LINE
8
BLACK
6
CONTINUOUS
10
0.607358
20
1.11926
11
0.607096
21
1.11999
0
LINE
8
BLACK
6
CONTINUOUS
10
0.607096
20
1.11999
11
0.607096
21
1.15936
0
LINE
8
BLACK
6
CONTINUOUS
10
0.607096
20
1.15936
11
0.607164
21
1.15974
0
LINE
8
BLACK
6
CONTINUOUS
10
0.607164
20
1.15974
11
0.607141
21
1.15987
0
LINE
8
BLACK
6
CONTINUOUS
10
0.607141
20
1.15987
11
0.607206
21
1.15998
0
LINE
8
BLACK
6
CONTINUOUS
10
0.607206
20
1.15998
11
0.607274
21
1.16037
0
LINE
8
BLACK
6
CONTINUOUS
10
0.607274
20
1.16037
11
0.607767
21
1.16095
0
LINE
8
BLACK
6
CONTINUOUS
10
0.607767
20
1.16095
11
0.608151
21
1.16162
0
LINE
8
BLACK
6
CONTINUOUS
10
0.608151
20
1.16162
11
0.608401
21
1.16171
0
LINE
8
BLACK
6
CONTINUOUS
10
0.608401
20
1.16171
11
0.608572
21
1.16191
0
LINE
8
BLACK
6
CONTINUOUS
10
0.608572
20
1.16191
11
0.609328
21
1.16205
0
LINE
8
BLACK
6
CONTINUOUS
10
0.609328
20
1.16205
11
0.610049
21
1.16231
0
LINE
8
BLACK
6
CONTINUOUS
10
0.610049
20
1.16231
11
0.628796
21
1.16231
0
LINE
8
BLACK
6
CONTINUOUS
10
0.628796
20
1.16231
11
0.629806
21
1.16213
0
LINE
8
BLACK
6
CONTINUOUS
10
0.781662
20
1.16213
11
0.781798
21
1.16202
0
LINE
8
BLACK
6
CONTINUOUS
10
0.781798
20
1.16202
11
0.781973
21
1.162
0
LINE
8
BLACK
6
CONTINUOUS
10
0.781973
20
1.162
11
0.785722
21
1.16012
0
LINE
8
BLACK
6
CONTINUOUS
10
0.785722
20
1.16012
11
0.786431
21
1.1596
0
LINE
8
BLACK
6
CONTINUOUS
10
0.786431
20
1.1596
11
0.78649
21
1.15957
0
LINE
8
BLACK
6
CONTINUOUS
10
0.78649
20
1.15957
11
0.788365
21
1.15769
0
LINE
8
BLACK
6
CONTINUOUS
10
0.788365
20
1.15769
11
0.788871
21
1.15697
0
LINE
8
BLACK
6
CONTINUOUS
10
0.788871
20
1.15697
11
0.788918
21
1.15693
0
LINE
8
BLACK
6
CONTINUOUS
10
0.788918
20
1.15693
11
0.790792
21
1.15318
0
LINE
8
BLACK
6
CONTINUOUS
10
0.790792
20
1.15318
11
0.791085
21
1.15219
0
LINE
8
BLACK
6
CONTINUOUS
10
0.791085
20
1.15219
11
0.791044
21
1.15202
0
LINE
8
BLACK
6
CONTINUOUS
10
0.791044
20
1.15202
11
0.791104
21
1.15186
0
LINE
8
BLACK
6
CONTINUOUS
10
0.791104
20
1.15186
11
0.791104
21
1.14811
0
LINE
8
BLACK
6
CONTINUOUS
10
0.791104
20
1.14811
11
0.790951
21
1.14724
0
LINE
8
BLACK
6
CONTINUOUS
10
0.790951
20
1.14724
11
0.790953
21
1.14717
0
LINE
8
BLACK
6
CONTINUOUS
10
0.790953
20
1.14717
11
0.789078
21
1.14155
0
LINE
8
BLACK
6
CONTINUOUS
10
0.789078
20
1.14155
11
0.78859
21
1.14065
0
LINE
8
BLACK
6
CONTINUOUS
10
0.78859
20
1.14065
11
0.788439
21
1.14055
0
LINE
8
BLACK
6
CONTINUOUS
10
0.788439
20
1.14055
11
0.788365
21
1.14039
0
LINE
8
BLACK
6
CONTINUOUS
10
0.788365
20
1.14039
11
0.770908
21
1.12294
0
LINE
8
BLACK
6
CONTINUOUS
10
0.770908
20
1.12294
11
0.788151
21
1.12294
0
LINE
8
BLACK
6
CONTINUOUS
10
0.788151
20
1.12294
11
0.789161
21
1.12276
0
LINE
8
BLACK
6
CONTINUOUS
10
0.789161
20
1.12276
11
0.790709
21
1.12146
0
LINE
8
BLACK
6
CONTINUOUS
10
0.790709
20
1.12146
11
0.791059
21
1.11947
0
LINE
8
BLACK
6
CONTINUOUS
10
0.791059
20
1.11947
11
0.790049
21
1.11772
0
LINE
8
BLACK
6
CONTINUOUS
10
0.790049
20
1.11772
11
0.788151
21
1.11703
0
LINE
8
BLACK
6
CONTINUOUS
10
0.788151
20
1.11703
11
0.76378
21
1.11703
0
LINE
8
BLACK
6
CONTINUOUS
10
0.76378
20
1.11703
11
0.763145
21
1.11714
0
LINE
8
BLACK
6
CONTINUOUS
10
0.763145
20
1.11714
11
0.763015
21
1.11713
0
LINE
8
BLACK
6
CONTINUOUS
10
0.763015
20
1.11713
11
0.76295
21
1.11718
0
LINE
8
BLACK
6
CONTINUOUS
10
0.76295
20
1.11718
11
0.76277
21
1.11721
0
LINE
8
BLACK
6
CONTINUOUS
10
0.76277
20
1.11721
11
0.762089
21
1.11778
0
LINE
8
BLACK
6
CONTINUOUS
10
0.762089
20
1.11778
11
0.761361
21
1.11829
0
LINE
8
BLACK
6
CONTINUOUS
10
0.761361
20
1.11829
11
0.761326
21
1.11842
0
LINE
8
BLACK
6
CONTINUOUS
10
0.761326
20
1.11842
11
0.761222
21
1.11851
0
LINE
8
BLACK
6
CONTINUOUS
10
0.761222
20
1.11851
11
0.761068
21
1.11938
0
LINE
8
BLACK
6
CONTINUOUS
10
0.761068
20
1.11938
11
0.760838
21
1.12024
0
LINE
8
BLACK
6
CONTINUOUS
10
0.760838
20
1.12024
11
0.760895
21
1.12036
0
LINE
8
BLACK
6
CONTINUOUS
10
0.760895
20
1.12036
11
0.760872
21
1.1205
0
LINE
8
BLACK
6
CONTINUOUS
10
0.760872
20
1.1205
11
0.761316
21
1.12127
0
LINE
8
BLACK
6
CONTINUOUS
10
0.761316
20
1.12127
11
0.761692
21
1.12207
0
LINE
8
BLACK
6
CONTINUOUS
10
0.761692
20
1.12207
11
0.783696
21
1.14408
0
LINE
8
BLACK
6
CONTINUOUS
10
0.783696
20
1.14408
11
0.785199
21
1.14859
0
LINE
8
BLACK
6
CONTINUOUS
10
0.785199
20
1.14859
11
0.785199
21
1.15116
0
LINE
8
BLACK
6
CONTINUOUS
10
0.785199
20
1.15116
11
0.78385
21
1.15386
0
LINE
8
BLACK
6
CONTINUOUS
10
0.78385
20
1.15386
11
0.782653
21
1.15505
0
LINE
8
BLACK
6
CONTINUOUS
10
0.782653
20
1.15505
11
0.779955
21
1.1564
0
LINE
8
BLACK
6
CONTINUOUS
10
0.779955
20
1.1564
11
0.771976
21
1.1564
0
LINE
8
BLACK
6
CONTINUOUS
10
0.771976
20
1.1564
11
0.769278
21
1.15505
0
LINE
8
BLACK
6
CONTINUOUS
10
0.769278
20
1.15505
11
0.767742
21
1.15352
0
LINE
8
BLACK
6
CONTINUOUS
10
0.767742
20
1.15352
11
0.766902
21
1.15293
0
LINE
8
BLACK
6
CONTINUOUS
10
0.766902
20
1.15293
11
0.76489
21
1.15275
0
LINE
8
BLACK
6
CONTINUOUS
10
0.76489
20
1.15275
11
0.763236
21
1.15391
0
LINE
8
BLACK
6
CONTINUOUS
10
0.763236
20
1.15391
11
0.762713
21
1.15586
0
LINE
8
BLACK
6
CONTINUOUS
10
0.762713
20
1.15586
11
0.763566
21
1.15769
0
LINE
8
BLACK
6
CONTINUOUS
10
0.763566
20
1.15769
11
0.765441
21
1.15957
0
LINE
8
BLACK
6
CONTINUOUS
10
0.765441
20
1.15957
11
0.766164
21
1.16007
0
LINE
8
BLACK
6
CONTINUOUS
10
0.766164
20
1.16007
11
0.766209
21
1.16012
0
LINE
8
BLACK
6
CONTINUOUS
10
0.766209
20
1.16012
11
0.769958
21
1.162
0
LINE
8
BLACK
6
CONTINUOUS
10
0.769958
20
1.162
11
0.770941
21
1.16229
0
LINE
8
BLACK
6
CONTINUOUS
10
0.770941
20
1.16229
11
0.771113
21
1.16225
0
LINE
8
BLACK
6
CONTINUOUS
10
0.771113
20
1.16225
11
0.771279
21
1.16231
0
LINE
8
BLACK
6
CONTINUOUS
10
0.771279
20
1.16231
11
0.780652
21
1.16231
0
LINE
8
BLACK
6
CONTINUOUS
10
0.780652
20
1.16231
11
0.781662
21
1.16213
0
LINE
8
BLACK
6
CONTINUOUS
10
1.30285
20
1.14901
11
1.30298
21
1.14889
0
LINE
8
BLACK
6
CONTINUOUS
10
1.30298
20
1.14889
11
1.30316
21
1.14887
0
LINE
8
BLACK
6
CONTINUOUS
10
1.30316
20
1.14887
11
1.30691
21
1.147
0
LINE
8
BLACK
6
CONTINUOUS
10
1.30691
20
1.147
11
1.30762
21
1.14647
0
LINE
8
BLACK
6
CONTINUOUS
10
1.30762
20
1.14647
11
1.30767
21
1.14644
0
LINE
8
BLACK
6
CONTINUOUS
10
1.30767
20
1.14644
11
1.30955
21
1.14457
0
LINE
8
BLACK
6
CONTINUOUS
10
1.30955
20
1.14457
11
1.31006
21
1.14385
0
LINE
8
BLACK
6
CONTINUOUS
10
1.31006
20
1.14385
11
1.3101
21
1.1438
0
LINE
8
BLACK
6
CONTINUOUS
10
1.3101
20
1.1438
11
1.31198
21
1.14005
0
LINE
8
BLACK
6
CONTINUOUS
10
1.31198
20
1.14005
11
1.31227
21
1.13907
0
LINE
8
BLACK
6
CONTINUOUS
10
1.31227
20
1.13907
11
1.31223
21
1.1389
0
LINE
8
BLACK
6
CONTINUOUS
10
1.31223
20
1.1389
11
1.31229
21
1.13873
0
LINE
8
BLACK
6
CONTINUOUS
10
1.31229
20
1.13873
11
1.31229
21
1.12748
0
LINE
8
BLACK
6
CONTINUOUS
10
1.31229
20
1.12748
11
1.31211
21
1.12647
0
LINE
8
BLACK
6
CONTINUOUS
10
1.31211
20
1.12647
11
1.312
21
1.12634
0
LINE
8
BLACK
6
CONTINUOUS
10
1.312
20
1.12634
11
1.31198
21
1.12616
0
LINE
8
BLACK
6
CONTINUOUS
10
1.31198
20
1.12616
11
1.3101
21
1.12241
0
LINE
8
BLACK
6
CONTINUOUS
10
1.3101
20
1.12241
11
1.30958
21
1.1217
0
LINE
8
BLACK
6
CONTINUOUS
10
1.30958
20
1.1217
11
1.30955
21
1.12165
0
LINE
8
BLACK
6
CONTINUOUS
10
1.30955
20
1.12165
11
1.30767
21
1.11977
0
LINE
8
BLACK
6
CONTINUOUS
10
1.30767
20
1.11977
11
1.30695
21
1.11927
0
LINE
8
BLACK
6
CONTINUOUS
10
1.30695
20
1.11927
11
1.30691
21
1.11922
0
LINE
8
BLACK
6
CONTINUOUS
10
1.30691
20
1.11922
11
1.30316
21
1.11734
0
LINE
8
BLACK
6
CONTINUOUS
10
1.30316
20
1.11734
11
1.30217
21
1.11705
0
LINE
8
BLACK
6
CONTINUOUS
10
1.30217
20
1.11705
11
1.302
21
1.11709
0
LINE
8
BLACK
6
CONTINUOUS
10
1.302
20
1.11709
11
1.30184
21
1.11703
0
LINE
8
BLACK
6
CONTINUOUS
10
1.30184
20
1.11703
11
1.29621
21
1.11703
0
LINE
8
BLACK
6
CONTINUOUS
10
1.29621
20
1.11703
11
1.2952
21
1.11721
0
LINE
8
BLACK
6
CONTINUOUS
10
1.2952
20
1.11721
11
1.29507
21
1.11732
0
LINE
8
BLACK
6
CONTINUOUS
10
1.29507
20
1.11732
11
1.29489
21
1.11734
0
LINE
8
BLACK
6
CONTINUOUS
10
1.29489
20
1.11734
11
1.29114
21
1.11922
0
LINE
8
BLACK
6
CONTINUOUS
10
1.29114
20
1.11922
11
1.29043
21
1.11974
0
LINE
8
BLACK
6
CONTINUOUS
10
1.29043
20
1.11974
11
1.29038
21
1.11977
0
LINE
8
BLACK
6
CONTINUOUS
10
1.29038
20
1.11977
11
1.2885
21
1.12165
0
LINE
8
BLACK
6
CONTINUOUS
10
1.2885
20
1.12165
11
1.28799
21
1.12237
0
LINE
8
BLACK
6
CONTINUOUS
10
1.28799
20
1.12237
11
1.28795
21
1.12241
0
LINE
8
BLACK
6
CONTINUOUS
10
1.28795
20
1.12241
11
1.28607
21
1.12616
0
LINE
8
BLACK
6
CONTINUOUS
10
1.28607
20
1.12616
11
1.28578
21
1.12715
0
LINE
8
BLACK
6
CONTINUOUS
10
1.28578
20
1.12715
11
1.28582
21
1.12732
0
LINE
8
BLACK
6
CONTINUOUS
10
1.28582
20
1.12732
11
1.28576
21
1.12748
0
LINE
8
BLACK
6
CONTINUOUS
10
1.28576
20
1.12748
11
1.28576
21
1.13873
0
LINE
8
BLACK
6
CONTINUOUS
10
1.28576
20
1.13873
11
1.28594
21
1.13974
0
LINE
8
BLACK
6
CONTINUOUS
10
1.28594
20
1.13974
11
1.28605
21
1.13988
0
LINE
8
BLACK
6
CONTINUOUS
10
1.28605
20
1.13988
11
1.28607
21
1.14005
0
LINE
8
BLACK
6
CONTINUOUS
10
1.28607
20
1.14005
11
1.28795
21
1.1438
0
LINE
8
BLACK
6
CONTINUOUS
10
1.28795
20
1.1438
11
1.28847
21
1.14451
0
LINE
8
BLACK
6
CONTINUOUS
10
1.28847
20
1.14451
11
1.2885
21
1.14457
0
LINE
8
BLACK
6
CONTINUOUS
10
1.2885
20
1.14457
11
1.29038
21
1.14644
0
LINE
8
BLACK
6
CONTINUOUS
10
1.29038
20
1.14644
11
1.2911
21
1.14695
0
LINE
8
BLACK
6
CONTINUOUS
10
1.2911
20
1.14695
11
1.29114
21
1.147
0
LINE
8
BLACK
6
CONTINUOUS
10
1.29114
20
1.147
11
1.29489
21
1.14887
0
LINE
8
BLACK
6
CONTINUOUS
10
1.29489
20
1.14887
11
1.29588
21
1.14917
0
LINE
8
BLACK
6
CONTINUOUS
10
1.29588
20
1.14917
11
1.29605
21
1.14912
0
LINE
8
BLACK
6
CONTINUOUS
10
1.29605
20
1.14912
11
1.29621
21
1.14918
0
LINE
8
BLACK
6
CONTINUOUS
10
1.29621
20
1.14918
11
1.30184
21
1.14918
0
LINE
8
BLACK
6
CONTINUOUS
10
1.30184
20
1.14918
11
1.30285
21
1.14901
0
LINE
8
BLACK
6
CONTINUOUS
10
1.29691
20
1.14328
11
1.29421
21
1.14193
0
LINE
8
BLACK
6
CONTINUOUS
10
1.29421
20
1.14193
11
1.29302
21
1.14073
0
LINE
8
BLACK
6
CONTINUOUS
10
1.29302
20
1.14073
11
1.29167
21
1.13804
0
LINE
8
BLACK
6
CONTINUOUS
10
1.29167
20
1.13804
11
1.29167
21
1.12818
0
LINE
8
BLACK
6
CONTINUOUS
10
1.29167
20
1.12818
11
1.29302
21
1.12548
0
LINE
8
BLACK
6
CONTINUOUS
10
1.29302
20
1.12548
11
1.29421
21
1.12429
0
LINE
8
BLACK
6
CONTINUOUS
10
1.29421
20
1.12429
11
1.29691
21
1.12294
0
LINE
8
BLACK
6
CONTINUOUS
10
1.29691
20
1.12294
11
1.30114
21
1.12294
0
LINE
8
BLACK
6
CONTINUOUS
10
1.30114
20
1.12294
11
1.30384
21
1.12429
0
LINE
8
BLACK
6
CONTINUOUS
10
1.30384
20
1.12429
11
1.30503
21
1.12548
0
LINE
8
BLACK
6
CONTINUOUS
10
1.30503
20
1.12548
11
1.30638
21
1.12818
0
LINE
8
BLACK
6
CONTINUOUS
10
1.30638
20
1.12818
11
1.30638
21
1.13804
0
LINE
8
BLACK
6
CONTINUOUS
10
1.30638
20
1.13804
11
1.30503
21
1.14073
0
LINE
8
BLACK
6
CONTINUOUS
10
1.30503
20
1.14073
11
1.30384
21
1.14193
0
LINE
8
BLACK
6
CONTINUOUS
10
1.30384
20
1.14193
11
1.30114
21
1.14328
0
LINE
8
BLACK
6
CONTINUOUS
10
1.30114
20
1.14328
11
1.29691
21
1.14328
0
LINE
8
BLACK
6
CONTINUOUS
10
0.457328
20
1.16213
11
0.458875
21
1.16083
0
LINE
8
BLACK
6
CONTINUOUS
10
0.458875
20
1.16083
11
0.459226
21
1.15884
0
LINE
8
BLACK
6
CONTINUOUS
10
0.459226
20
1.15884
11
0.458216
21
1.15709
0
LINE
8
BLACK
6
CONTINUOUS
10
0.458216
20
1.15709
11
0.456318
21
1.1564
0
LINE
8
BLACK
6
CONTINUOUS
10
0.456318
20
1.1564
11
0.440523
21
1.1564
0
LINE
8
BLACK
6
CONTINUOUS
10
0.440523
20
1.1564
11
0.440523
21
1.14356
0
LINE
8
BLACK
6
CONTINUOUS
10
0.440523
20
1.14356
11
0.450694
21
1.14356
0
LINE
8
BLACK
6
CONTINUOUS
10
0.450694
20
1.14356
11
0.451704
21
1.14338
0
LINE
8
BLACK
6
CONTINUOUS
10
0.451704
20
1.14338
11
0.453251
21
1.14208
0
LINE
8
BLACK
6
CONTINUOUS
10
0.453251
20
1.14208
11
0.453602
21
1.14009
0
LINE
8
BLACK
6
CONTINUOUS
10
0.453602
20
1.14009
11
0.452592
21
1.13835
0
LINE
8
BLACK
6
CONTINUOUS
10
0.452592
20
1.13835
11
0.450694
21
1.13765
0
LINE
8
BLACK
6
CONTINUOUS
10
0.450694
20
1.13765
11
0.440523
21
1.13765
0
LINE
8
BLACK
6
CONTINUOUS
10
0.440523
20
1.13765
11
0.440523
21
1.12294
0
LINE
8
BLACK
6
CONTINUOUS
10
0.440523
20
1.12294
11
0.456318
21
1.12294
0
LINE
8
BLACK
6
CONTINUOUS
10
0.456318
20
1.12294
11
0.457328
21
1.12276
0
LINE
8
BLACK
6
CONTINUOUS
10
0.457328
20
1.12276
11
0.458875
21
1.12146
0
LINE
8
BLACK
6
CONTINUOUS
10
0.458875
20
1.12146
11
0.459226
21
1.11947
0
LINE
8
BLACK
6
CONTINUOUS
10
0.459226
20
1.11947
11
0.458216
21
1.11772
0
LINE
8
BLACK
6
CONTINUOUS
10
0.458216
20
1.11772
11
0.456318
21
1.11703
0
LINE
8
BLACK
6
CONTINUOUS
10
0.456318
20
1.11703
11
0.43757
21
1.11703
0
LINE
8
BLACK
6
CONTINUOUS
10
0.43757
20
1.11703
11
0.437187
21
1.1171
0
LINE
8
BLACK
6
CONTINUOUS
10
0.437187
20
1.1171
11
0.437058
21
1.11708
0
LINE
8
BLACK
6
CONTINUOUS
10
0.437058
20
1.11708
11
0.436944
21
1.11714
0
LINE
8
BLACK
6
CONTINUOUS
10
0.436944
20
1.11714
11
0.43656
21
1.11721
0
LINE
8
BLACK
6
CONTINUOUS
10
0.43656
20
1.11721
11
0.435973
21
1.1177
0
LINE
8
BLACK
6
CONTINUOUS
10
0.435973
20
1.1177
11
0.435308
21
1.11809
0
LINE
8
BLACK
6
CONTINUOUS
10
0.435308
20
1.11809
11
0.435217
21
1.11834
0
LINE
8
BLACK
6
CONTINUOUS
10
0.435217
20
1.11834
11
0.435013
21
1.11851
0
LINE
8
BLACK
6
CONTINUOUS
10
0.435013
20
1.11851
11
0.43488
21
1.11926
0
LINE
8
BLACK
6
CONTINUOUS
10
0.43488
20
1.11926
11
0.434618
21
1.11999
0
LINE
8
BLACK
6
CONTINUOUS
10
0.434618
20
1.11999
11
0.434618
21
1.15936
0
LINE
8
BLACK
6
CONTINUOUS
10
0.434618
20
1.15936
11
0.434685
21
1.15974
0
LINE
8
BLACK
6
CONTINUOUS
10
0.434685
20
1.15974
11
0.434662
21
1.15987
0
LINE
8
BLACK
6
CONTINUOUS
10
0.434662
20
1.15987
11
0.434728
21
1.15998
0
LINE
8
BLACK
6
CONTINUOUS
10
0.434728
20
1.15998
11
0.434796
21
1.16037
0
LINE
8
BLACK
6
CONTINUOUS
10
0.434796
20
1.16037
11
0.435289
21
1.16095
0
LINE
8
BLACK
6
CONTINUOUS
10
0.435289
20
1.16095
11
0.435672
21
1.16162
0
LINE
8
BLACK
6
CONTINUOUS
10
0.435672
20
1.16162
11
0.435923
21
1.16171
0
LINE
8
BLACK
6
CONTINUOUS
10
0.435923
20
1.16171
11
0.436094
21
1.16191
0
LINE
8
BLACK
6
CONTINUOUS
10
0.436094
20
1.16191
11
0.436849
21
1.16205
0
LINE
8
BLACK
6
CONTINUOUS
10
0.436849
20
1.16205
11
0.43757
21
1.16231
0
LINE
8
BLACK
6
CONTINUOUS
10
0.43757
20
1.16231
11
0.456318
21
1.16231
0
LINE
8
BLACK
6
CONTINUOUS
10
0.456318
20
1.16231
11
0.457328
21
1.16213
0
LINE
8
BLACK
6
CONTINUOUS
10
1.53719
20
1.14901
11
1.53733
21
1.14889
0
LINE
8
BLACK
6
CONTINUOUS
10
1.53733
20
1.14889
11
1.5375
21
1.14887
0
LINE
8
BLACK
6
CONTINUOUS
10
1.5375
20
1.14887
11
1.54125
21
1.147
0
LINE
8
BLACK
6
CONTINUOUS
10
1.54125
20
1.147
11
1.54208
21
1.14639
0
LINE
8
BLACK
6
CONTINUOUS
10
1.54208
20
1.14639
11
1.54225
21
1.14598
0
LINE
8
BLACK
6
CONTINUOUS
10
1.54225
20
1.14598
11
1.54257
21
1.14568
0
LINE
8
BLACK
6
CONTINUOUS
10
1.54257
20
1.14568
11
1.54445
21
1.14193
0
LINE
8
BLACK
6
CONTINUOUS
10
1.54445
20
1.14193
11
1.54474
21
1.14095
0
LINE
8
BLACK
6
CONTINUOUS
10
1.54474
20
1.14095
11
1.5447
21
1.14077
0
LINE
8
BLACK
6
CONTINUOUS
10
1.5447
20
1.14077
11
1.54476
21
1.14061
0
LINE
8
BLACK
6
CONTINUOUS
10
1.54476
20
1.14061
11
1.54476
21
1.13686
0
LINE
8
BLACK
6
CONTINUOUS
10
1.54476
20
1.13686
11
1.54458
21
1.13585
0
LINE
8
BLACK
6
CONTINUOUS
10
1.54458
20
1.13585
11
1.54427
21
1.13547
0
LINE
8
BLACK
6
CONTINUOUS
10
1.54427
20
1.13547
11
1.54411
21
1.13501
0
LINE
8
BLACK
6
CONTINUOUS
10
1.54411
20
1.13501
11
1.54364
21
1.13472
0
LINE
8
BLACK
6
CONTINUOUS
10
1.54364
20
1.13472
11
1.54328
21
1.1343
0
LINE
8
BLACK
6
CONTINUOUS
10
1.54328
20
1.1343
11
1.5428
21
1.13422
0
LINE
8
BLACK
6
CONTINUOUS
10
1.5428
20
1.13422
11
1.54239
21
1.13396
0
LINE
8
BLACK
6
CONTINUOUS
10
1.54239
20
1.13396
11
1.52601
21
1.13069
0
LINE
8
BLACK
6
CONTINUOUS
10
1.52601
20
1.13069
11
1.52601
21
1.12631
0
LINE
8
BLACK
6
CONTINUOUS
10
1.52601
20
1.12631
11
1.52714
21
1.12406
0
LINE
8
BLACK
6
CONTINUOUS
10
1.52714
20
1.12406
11
1.52938
21
1.12294
0
LINE
8
BLACK
6
CONTINUOUS
10
1.52938
20
1.12294
11
1.53549
21
1.12294
0
LINE
8
BLACK
6
CONTINUOUS
10
1.53549
20
1.12294
11
1.53861
21
1.1245
0
LINE
8
BLACK
6
CONTINUOUS
10
1.53861
20
1.1245
11
1.53959
21
1.12479
0
LINE
8
BLACK
6
CONTINUOUS
10
1.53959
20
1.12479
11
1.54156
21
1.12432
0
LINE
8
BLACK
6
CONTINUOUS
10
1.54156
20
1.12432
11
1.54276
21
1.1227
0
LINE
8
BLACK
6
CONTINUOUS
10
1.54276
20
1.1227
11
1.54264
21
1.12069
0
LINE
8
BLACK
6
CONTINUOUS
10
1.54264
20
1.12069
11
1.54125
21
1.11922
0
LINE
8
BLACK
6
CONTINUOUS
10
1.54125
20
1.11922
11
1.5375
21
1.11734
0
LINE
8
BLACK
6
CONTINUOUS
10
1.5375
20
1.11734
11
1.53652
21
1.11705
0
LINE
8
BLACK
6
CONTINUOUS
10
1.53652
20
1.11705
11
1.53635
21
1.11709
0
LINE
8
BLACK
6
CONTINUOUS
10
1.53635
20
1.11709
11
1.53618
21
1.11703
0
LINE
8
BLACK
6
CONTINUOUS
10
1.53618
20
1.11703
11
1.52868
21
1.11703
0
LINE
8
BLACK
6
CONTINUOUS
10
1.52868
20
1.11703
11
1.52767
21
1.11721
0
LINE
8
BLACK
6
CONTINUOUS
10
1.52767
20
1.11721
11
1.52754
21
1.11732
0
LINE
8
BLACK
6
CONTINUOUS
10
1.52754
20
1.11732
11
1.52736
21
1.11734
0
LINE
8
BLACK
6
CONTINUOUS
10
1.52736
20
1.11734
11
1.52361
21
1.11922
0
LINE
8
BLACK
6
CONTINUOUS
10
1.52361
20
1.11922
11
1.52279
21
1.11983
0
LINE
8
BLACK
6
CONTINUOUS
10
1.52279
20
1.11983
11
1.52261
21
1.12024
0
LINE
8
BLACK
6
CONTINUOUS
10
1.52261
20
1.12024
11
1.52229
21
1.12054
0
LINE
8
BLACK
6
CONTINUOUS
10
1.52229
20
1.12054
11
1.52042
21
1.12429
0
LINE
8
BLACK
6
CONTINUOUS
10
1.52042
20
1.12429
11
1.52013
21
1.12527
0
LINE
8
BLACK
6
CONTINUOUS
10
1.52013
20
1.12527
11
1.52017
21
1.12544
0
LINE
8
BLACK
6
CONTINUOUS
10
1.52017
20
1.12544
11
1.52011
21
1.12561
0
LINE
8
BLACK
6
CONTINUOUS
10
1.52011
20
1.12561
11
1.52011
21
1.14061
0
LINE
8
BLACK
6
CONTINUOUS
10
1.52011
20
1.14061
11
1.52028
21
1.14162
0
LINE
8
BLACK
6
CONTINUOUS
10
1.52028
20
1.14162
11
1.5204
21
1.14175
0
LINE
8
BLACK
6
CONTINUOUS
10
1.5204
20
1.14175
11
1.52042
21
1.14193
0
LINE
8
BLACK
6
CONTINUOUS
10
1.52042
20
1.14193
11
1.52229
21
1.14568
0
LINE
8
BLACK
6
CONTINUOUS
10
1.52229
20
1.14568
11
1.5229
21
1.1465
0
LINE
8
BLACK
6
CONTINUOUS
10
1.5229
20
1.1465
11
1.52331
21
1.14668
0
LINE
8
BLACK
6
CONTINUOUS
10
1.52331
20
1.14668
11
1.52361
21
1.147
0
LINE
8
BLACK
6
CONTINUOUS
10
1.52361
20
1.147
11
1.52736
21
1.14887
0
LINE
8
BLACK
6
CONTINUOUS
10
1.52736
20
1.14887
11
1.52835
21
1.14917
0
LINE
8
BLACK
6
CONTINUOUS
10
1.52835
20
1.14917
11
1.52852
21
1.14912
0
LINE
8
BLACK
6
CONTINUOUS
10
1.52852
20
1.14912
11
1.52868
21
1.14918
0
LINE
8
BLACK
6
CONTINUOUS
10
1.52868
20
1.14918
11
1.53618
21
1.14918
0
LINE
8
BLACK
6
CONTINUOUS
10
1.53618
20
1.14918
11
1.53719
21
1.14901
0
LINE
8
BLACK
6
CONTINUOUS
10
1.52938
20
1.14328
11
1.52714
21
1.14216
0
LINE
8
BLACK
6
CONTINUOUS
10
1.52714
20
1.14216
11
1.52601
21
1.13991
0
LINE
8
BLACK
6
CONTINUOUS
10
1.52601
20
1.13991
11
1.52601
21
1.13671
0
LINE
8
BLACK
6
CONTINUOUS
10
1.52601
20
1.13671
11
1.53885
21
1.13928
0
LINE
8
BLACK
6
CONTINUOUS
10
1.53885
20
1.13928
11
1.53885
21
1.13991
0
LINE
8
BLACK
6
CONTINUOUS
10
1.53885
20
1.13991
11
1.53773
21
1.14216
0
LINE
8
BLACK
6
CONTINUOUS
10
1.53773
20
1.14216
11
1.53549
21
1.14328
0
LINE
8
BLACK
6
CONTINUOUS
10
1.53549
20
1.14328
11
1.52938
21
1.14328
0
LINE
8
BLACK
6
CONTINUOUS
10
0.909146
20
1.16213
11
0.910694
21
1.16083
0
LINE
8
BLACK
6
CONTINUOUS
10
0.910694
20
1.16083
11
0.911044
21
1.15884
0
LINE
8
BLACK
6
CONTINUOUS
10
0.911044
20
1.15884
11
0.910034
21
1.15709
0
LINE
8
BLACK
6
CONTINUOUS
10
0.910034
20
1.15709
11
0.908136
21
1.1564
0
LINE
8
BLACK
6
CONTINUOUS
10
0.908136
20
1.1564
11
0.901334
21
1.1564
0
LINE
8
BLACK
6
CONTINUOUS
10
0.901334
20
1.1564
11
0.898637
21
1.15505
0
LINE
8
BLACK
6
CONTINUOUS
10
0.898637
20
1.15505
11
0.897308
21
1.15372
0
LINE
8
BLACK
6
CONTINUOUS
10
0.897308
20
1.15372
11
0.894004
21
1.14877
0
LINE
8
BLACK
6
CONTINUOUS
10
0.894004
20
1.14877
11
0.893275
21
1.14585
0
LINE
8
BLACK
6
CONTINUOUS
10
0.893275
20
1.14585
11
0.895567
21
1.147
0
LINE
8
BLACK
6
CONTINUOUS
10
0.895567
20
1.147
11
0.89655
21
1.14729
0
LINE
8
BLACK
6
CONTINUOUS
10
0.89655
20
1.14729
11
0.896722
21
1.14725
0
LINE
8
BLACK
6
CONTINUOUS
10
0.896722
20
1.14725
11
0.896888
21
1.14731
0
LINE
8
BLACK
6
CONTINUOUS
10
0.896888
20
1.14731
11
0.904387
21
1.14731
0
LINE
8
BLACK
6
CONTINUOUS
10
0.904387
20
1.14731
11
0.905397
21
1.14713
0
LINE
8
BLACK
6
CONTINUOUS
10
0.905397
20
1.14713
11
0.905532
21
1.14702
0
LINE
8
BLACK
6
CONTINUOUS
10
0.905532
20
1.14702
11
0.905707
21
1.147
0
LINE
8
BLACK
6
CONTINUOUS
10
0.905707
20
1.147
11
0.909457
21
1.14512
0
LINE
8
BLACK
6
CONTINUOUS
10
0.909457
20
1.14512
11
0.910166
21
1.1446
0
LINE
8
BLACK
6
CONTINUOUS
10
0.910166
20
1.1446
11
0.910224
21
1.14457
0
LINE
8
BLACK
6
CONTINUOUS
10
0.910224
20
1.14457
11
0.912099
21
1.1427
0
LINE
8
BLACK
6
CONTINUOUS
10
0.912099
20
1.1427
11
0.912605
21
1.14197
0
LINE
8
BLACK
6
CONTINUOUS
10
0.912605
20
1.14197
11
0.912652
21
1.14193
0
LINE
8
BLACK
6
CONTINUOUS
10
0.912652
20
1.14193
11
0.914527
21
1.13818
0
LINE
8
BLACK
6
CONTINUOUS
10
0.914527
20
1.13818
11
0.914819
21
1.1372
0
LINE
8
BLACK
6
CONTINUOUS
10
0.914819
20
1.1372
11
0.914778
21
1.13702
0
LINE
8
BLACK
6
CONTINUOUS
10
0.914778
20
1.13702
11
0.914839
21
1.13686
0
LINE
8
BLACK
6
CONTINUOUS
10
0.914839
20
1.13686
11
0.914839
21
1.12748
0
LINE
8
BLACK
6
CONTINUOUS
10
0.914839
20
1.12748
11
0.914661
21
1.12647
0
LINE
8
BLACK
6
CONTINUOUS
10
0.914661
20
1.12647
11
0.914547
21
1.12634
0
LINE
8
BLACK
6
CONTINUOUS
10
0.914547
20
1.12634
11
0.914527
21
1.12616
0
LINE
8
BLACK
6
CONTINUOUS
10
0.914527
20
1.12616
11
0.912652
21
1.12241
0
LINE
8
BLACK
6
CONTINUOUS
10
0.912652
20
1.12241
11
0.912126
21
1.1217
0
LINE
8
BLACK
6
CONTINUOUS
10
0.912126
20
1.1217
11
0.912099
21
1.12165
0
LINE
8
BLACK
6
CONTINUOUS
10
0.912099
20
1.12165
11
0.910224
21
1.11977
0
LINE
8
BLACK
6
CONTINUOUS
10
0.910224
20
1.11977
11
0.909501
21
1.11927
0
LINE
8
BLACK
6
CONTINUOUS
10
0.909501
20
1.11927
11
0.909457
21
1.11922
0
LINE
8
BLACK
6
CONTINUOUS
10
0.909457
20
1.11922
11
0.905707
21
1.11734
0
LINE
8
BLACK
6
CONTINUOUS
10
0.905707
20
1.11734
11
0.904724
21
1.11705
0
LINE
8
BLACK
6
CONTINUOUS
10
0.904724
20
1.11705
11
0.904553
21
1.11709
0
LINE
8
BLACK
6
CONTINUOUS
10
0.904553
20
1.11709
11
0.904387
21
1.11703
0
LINE
8
BLACK
6
CONTINUOUS
10
0.904387
20
1.11703
11
0.896888
21
1.11703
0
LINE
8
BLACK
6
CONTINUOUS
10
0.896888
20
1.11703
11
0.895878
21
1.11721
0
LINE
8
BLACK
6
CONTINUOUS
10
0.895878
20
1.11721
11
0.895743
21
1.11732
0
LINE
8
BLACK
6
CONTINUOUS
10
0.895743
20
1.11732
11
0.895567
21
1.11734
0
LINE
8
BLACK
6
CONTINUOUS
10
0.895567
20
1.11734
11
0.891818
21
1.11922
0
LINE
8
BLACK
6
CONTINUOUS
10
0.891818
20
1.11922
11
0.891109
21
1.11974
0
LINE
8
BLACK
6
CONTINUOUS
10
0.891109
20
1.11974
11
0.89105
21
1.11977
0
LINE
8
BLACK
6
CONTINUOUS
10
0.89105
20
1.11977
11
0.889176
21
1.12165
0
LINE
8
BLACK
6
CONTINUOUS
10
0.889176
20
1.12165
11
0.888669
21
1.12237
0
LINE
8
BLACK
6
CONTINUOUS
10
0.888669
20
1.12237
11
0.888623
21
1.12241
0
LINE
8
BLACK
6
CONTINUOUS
10
0.888623
20
1.12241
11
0.886748
21
1.12616
0
LINE
8
BLACK
6
CONTINUOUS
10
0.886748
20
1.12616
11
0.886455
21
1.12715
0
LINE
8
BLACK
6
CONTINUOUS
10
0.886455
20
1.12715
11
0.886496
21
1.12732
0
LINE
8
BLACK
6
CONTINUOUS
10
0.886496
20
1.12732
11
0.886436
21
1.12748
0
LINE
8
BLACK
6
CONTINUOUS
10
0.886436
20
1.12748
11
0.886436
21
1.14248
0
LINE
8
BLACK
6
CONTINUOUS
10
0.886436
20
1.14248
11
0.886538
21
1.14306
0
LINE
8
BLACK
6
CONTINUOUS
10
0.886538
20
1.14306
11
0.886524
21
1.1432
0
LINE
8
BLACK
6
CONTINUOUS
10
0.886524
20
1.1432
11
0.888399
21
1.1507
0
LINE
8
BLACK
6
CONTINUOUS
10
0.888399
20
1.1507
11
0.888803
21
1.1516
0
LINE
8
BLACK
6
CONTINUOUS
10
0.888803
20
1.1516
11
0.888807
21
1.15162
0
LINE
8
BLACK
6
CONTINUOUS
10
0.888807
20
1.15162
11
0.892556
21
1.15724
0
LINE
8
BLACK
6
CONTINUOUS
10
0.892556
20
1.15724
11
0.892867
21
1.15757
0
LINE
8
BLACK
6
CONTINUOUS
10
0.892867
20
1.15757
11
0.892925
21
1.15769
0
LINE
8
BLACK
6
CONTINUOUS
10
0.892925
20
1.15769
11
0.8948
21
1.15957
0
LINE
8
BLACK
6
CONTINUOUS
10
0.8948
20
1.15957
11
0.895523
21
1.16007
0
LINE
8
BLACK
6
CONTINUOUS
10
0.895523
20
1.16007
11
0.895567
21
1.16012
0
LINE
8
BLACK
6
CONTINUOUS
10
0.895567
20
1.16012
11
0.899317
21
1.162
0
LINE
8
BLACK
6
CONTINUOUS
10
0.899317
20
1.162
11
0.9003
21
1.16229
0
LINE
8
BLACK
6
CONTINUOUS
10
0.9003
20
1.16229
11
0.900471
21
1.16225
0
LINE
8
BLACK
6
CONTINUOUS
10
0.900471
20
1.16225
11
0.900637
21
1.16231
0
LINE
8
BLACK
6
CONTINUOUS
10
0.900637
20
1.16231
11
0.908136
21
1.16231
0
LINE
8
BLACK
6
CONTINUOUS
10
0.908136
20
1.16231
11
0.909146
21
1.16213
0
LINE
8
BLACK
6
CONTINUOUS
10
0.897585
20
1.1414
11
0.894887
21
1.14006
0
LINE
8
BLACK
6
CONTINUOUS
10
0.894887
20
1.14006
11
0.89369
21
1.13886
0
LINE
8
BLACK
6
CONTINUOUS
10
0.89369
20
1.13886
11
0.892342
21
1.13616
0
LINE
8
BLACK
6
CONTINUOUS
10
0.892342
20
1.13616
11
0.892342
21
1.12818
0
LINE
8
BLACK
6
CONTINUOUS
10
0.892342
20
1.12818
11
0.89369
21
1.12548
0
LINE
8
BLACK
6
CONTINUOUS
10
0.89369
20
1.12548
11
0.894887
21
1.12429
0
LINE
8
BLACK
6
CONTINUOUS
10
0.894887
20
1.12429
11
0.897585
21
1.12294
0
LINE
8
BLACK
6
CONTINUOUS
10
0.897585
20
1.12294
11
0.90369
21
1.12294
0
LINE
8
BLACK
6
CONTINUOUS
10
0.90369
20
1.12294
11
0.906387
21
1.12429
0
LINE
8
BLACK
6
CONTINUOUS
10
0.906387
20
1.12429
11
0.907584
21
1.12548
0
LINE
8
BLACK
6
CONTINUOUS
10
0.907584
20
1.12548
11
0.908933
21
1.12818
0
LINE
8
BLACK
6
CONTINUOUS
10
0.908933
20
1.12818
11
0.908933
21
1.13616
0
LINE
8
BLACK
6
CONTINUOUS
10
0.908933
20
1.13616
11
0.907584
21
1.13886
0
LINE
8
BLACK
6
CONTINUOUS
10
0.907584
20
1.13886
11
0.906387
21
1.14006
0
LINE
8
BLACK
6
CONTINUOUS
10
0.906387
20
1.14006
11
0.90369
21
1.1414
0
LINE
8
BLACK
6
CONTINUOUS
10
0.90369
20
1.1414
11
0.897585
21
1.1414
0
LINE
8
BLACK
6
CONTINUOUS
10
1.40221
20
1.14901
11
1.40234
21
1.14889
0
LINE
8
BLACK
6
CONTINUOUS
10
1.40234
20
1.14889
11
1.40252
21
1.14887
0
LINE
8
BLACK
6
CONTINUOUS
10
1.40252
20
1.14887
11
1.40627
21
1.147
0
LINE
8
BLACK
6
CONTINUOUS
10
1.40627
20
1.147
11
1.40709
21
1.14639
0
LINE
8
BLACK
6
CONTINUOUS
10
1.40709
20
1.14639
11
1.4079
21
1.14453
0
LINE
8
BLACK
6
CONTINUOUS
10
1.4079
20
1.14453
11
1.40732
21
1.1426
0
LINE
8
BLACK
6
CONTINUOUS
10
1.40732
20
1.1426
11
1.40564
21
1.14149
0
LINE
8
BLACK
6
CONTINUOUS
10
1.40564
20
1.14149
11
1.40363
21
1.14172
0
LINE
8
BLACK
6
CONTINUOUS
10
1.40363
20
1.14172
11
1.4005
21
1.14328
0
LINE
8
BLACK
6
CONTINUOUS
10
1.4005
20
1.14328
11
1.39627
21
1.14328
0
LINE
8
BLACK
6
CONTINUOUS
10
1.39627
20
1.14328
11
1.39403
21
1.14216
0
LINE
8
BLACK
6
CONTINUOUS
10
1.39403
20
1.14216
11
1.3929
21
1.13991
0
LINE
8
BLACK
6
CONTINUOUS
10
1.3929
20
1.13991
11
1.3929
21
1.13943
0
LINE
8
BLACK
6
CONTINUOUS
10
1.3929
20
1.13943
11
1.39403
21
1.13718
0
LINE
8
BLACK
6
CONTINUOUS
10
1.39403
20
1.13718
11
1.39627
21
1.13606
0
LINE
8
BLACK
6
CONTINUOUS
10
1.39627
20
1.13606
11
1.4012
21
1.13606
0
LINE
8
BLACK
6
CONTINUOUS
10
1.4012
20
1.13606
11
1.40221
21
1.13588
0
LINE
8
BLACK
6
CONTINUOUS
10
1.40221
20
1.13588
11
1.40234
21
1.13577
0
LINE
8
BLACK
6
CONTINUOUS
10
1.40234
20
1.13577
11
1.40252
21
1.13575
0
LINE
8
BLACK
6
CONTINUOUS
10
1.40252
20
1.13575
11
1.40627
21
1.13387
0
LINE
8
BLACK
6
CONTINUOUS
10
1.40627
20
1.13387
11
1.40709
21
1.13326
0
LINE
8
BLACK
6
CONTINUOUS
10
1.40709
20
1.13326
11
1.40727
21
1.13286
0
LINE
8
BLACK
6
CONTINUOUS
10
1.40727
20
1.13286
11
1.40759
21
1.13255
0
LINE
8
BLACK
6
CONTINUOUS
10
1.40759
20
1.13255
11
1.40947
21
1.1288
0
LINE
8
BLACK
6
CONTINUOUS
10
1.40947
20
1.1288
11
1.40976
21
1.12782
0
LINE
8
BLACK
6
CONTINUOUS
10
1.40976
20
1.12782
11
1.40972
21
1.12765
0
LINE
8
BLACK
6
CONTINUOUS
10
1.40972
20
1.12765
11
1.40978
21
1.12748
0
LINE
8
BLACK
6
CONTINUOUS
10
1.40978
20
1.12748
11
1.40978
21
1.12561
0
LINE
8
BLACK
6
CONTINUOUS
10
1.40978
20
1.12561
11
1.4096
21
1.1246
0
LINE
8
BLACK
6
CONTINUOUS
10
1.4096
20
1.1246
11
1.40949
21
1.12446
0
LINE
8
BLACK
6
CONTINUOUS
10
1.40949
20
1.12446
11
1.40947
21
1.12429
0
LINE
8
BLACK
6
CONTINUOUS
10
1.40947
20
1.12429
11
1.40759
21
1.12054
0
LINE
8
BLACK
6
CONTINUOUS
10
1.40759
20
1.12054
11
1.40698
21
1.11972
0
LINE
8
BLACK
6
CONTINUOUS
10
1.40698
20
1.11972
11
1.40657
21
1.11954
0
LINE
8
BLACK
6
CONTINUOUS
10
1.40657
20
1.11954
11
1.40627
21
1.11922
0
LINE
8
BLACK
6
CONTINUOUS
10
1.40627
20
1.11922
11
1.40252
21
1.11734
0
LINE
8
BLACK
6
CONTINUOUS
10
1.40252
20
1.11734
11
1.40154
21
1.11705
0
LINE
8
BLACK
6
CONTINUOUS
10
1.40154
20
1.11705
11
1.40137
21
1.11709
0
LINE
8
BLACK
6
CONTINUOUS
10
1.40137
20
1.11709
11
1.4012
21
1.11703
0
LINE
8
BLACK
6
CONTINUOUS
10
1.4012
20
1.11703
11
1.3937
21
1.11703
0
LINE
8
BLACK
6
CONTINUOUS
10
1.3937
20
1.11703
11
1.39269
21
1.11721
0
LINE
8
BLACK
6
CONTINUOUS
10
1.39269
20
1.11721
11
1.39256
21
1.11732
0
LINE
8
BLACK
6
CONTINUOUS
10
1.39256
20
1.11732
11
1.39238
21
1.11734
0
LINE
8
BLACK
6
CONTINUOUS
10
1.39238
20
1.11734
11
1.38863
21
1.11922
0
LINE
8
BLACK
6
CONTINUOUS
10
1.38863
20
1.11922
11
1.38781
21
1.11983
0
LINE
8
BLACK
6
CONTINUOUS
10
1.38781
20
1.11983
11
1.387
21
1.12168
0
LINE
8
BLACK
6
CONTINUOUS
10
1.387
20
1.12168
11
1.38758
21
1.12362
0
LINE
8
BLACK
6
CONTINUOUS
10
1.38758
20
1.12362
11
1.38927
21
1.12473
0
LINE
8
BLACK
6
CONTINUOUS
10
1.38927
20
1.12473
11
1.39127
21
1.1245
0
LINE
8
BLACK
6
CONTINUOUS
10
1.39127
20
1.1245
11
1.3944
21
1.12294
0
LINE
8
BLACK
6
CONTINUOUS
10
1.3944
20
1.12294
11
1.4005
21
1.12294
0
LINE
8
BLACK
6
CONTINUOUS
10
1.4005
20
1.12294
11
1.40275
21
1.12406
0
LINE
8
BLACK
6
CONTINUOUS
10
1.40275
20
1.12406
11
1.40387
21
1.12631
0
LINE
8
BLACK
6
CONTINUOUS
10
1.40387
20
1.12631
11
1.40387
21
1.12679
0
LINE
8
BLACK
6
CONTINUOUS
10
1.40387
20
1.12679
11
1.40275
21
1.12903
0
LINE
8
BLACK
6
CONTINUOUS
10
1.40275
20
1.12903
11
1.4005
21
1.13016
0
LINE
8
BLACK
6
CONTINUOUS
10
1.4005
20
1.13016
11
1.39558
21
1.13016
0
LINE
8
BLACK
6
CONTINUOUS
10
1.39558
20
1.13016
11
1.39457
21
1.13033
0
LINE
8
BLACK
6
CONTINUOUS
10
1.39457
20
1.13033
11
1.39443
21
1.13045
0
LINE
8
BLACK
6
CONTINUOUS
10
1.39443
20
1.13045
11
1.39426
21
1.13047
0
LINE
8
BLACK
6
CONTINUOUS
10
1.39426
20
1.13047
11
1.39051
21
1.13234
0
LINE
8
BLACK
6
CONTINUOUS
10
1.39051
20
1.13234
11
1.38968
21
1.13295
0
LINE
8
BLACK
6
CONTINUOUS
10
1.38968
20
1.13295
11
1.38951
21
1.13336
0
LINE
8
BLACK
6
CONTINUOUS
10
1.38951
20
1.13336
11
1.38918
21
1.13366
0
LINE
8
BLACK
6
CONTINUOUS
10
1.38918
20
1.13366
11
1.38731
21
1.13741
0
LINE
8
BLACK
6
CONTINUOUS
10
1.38731
20
1.13741
11
1.38702
21
1.1384
0
LINE
8
BLACK
6
CONTINUOUS
10
1.38702
20
1.1384
11
1.38706
21
1.13857
0
LINE
8
BLACK
6
CONTINUOUS
10
1.38706
20
1.13857
11
1.387
21
1.13873
0
LINE
8
BLACK
6
CONTINUOUS
10
1.387
20
1.13873
11
1.387
21
1.14061
0
LINE
8
BLACK
6
CONTINUOUS
10
1.387
20
1.14061
11
1.38718
21
1.14162
0
LINE
8
BLACK
6
CONTINUOUS
10
1.38718
20
1.14162
11
1.38729
21
1.14175
0
LINE
8
BLACK
6
CONTINUOUS
10
1.38729
20
1.14175
11
1.38731
21
1.14193
0
LINE
8
BLACK
6
CONTINUOUS
10
1.38731
20
1.14193
11
1.38918
21
1.14568
0
LINE
8
BLACK
6
CONTINUOUS
10
1.38918
20
1.14568
11
1.3898
21
1.1465
0
LINE
8
BLACK
6
CONTINUOUS
10
1.3898
20
1.1465
11
1.3902
21
1.14668
0
LINE
8
BLACK
6
CONTINUOUS
10
1.3902
20
1.14668
11
1.39051
21
1.147
0
LINE
8
BLACK
6
CONTINUOUS
10
1.39051
20
1.147
11
1.39426
21
1.14887
0
LINE
8
BLACK
6
CONTINUOUS
10
1.39426
20
1.14887
11
1.39524
21
1.14917
0
LINE
8
BLACK
6
CONTINUOUS
10
1.39524
20
1.14917
11
1.39541
21
1.14912
0
LINE
8
BLACK
6
CONTINUOUS
10
1.39541
20
1.14912
11
1.39558
21
1.14918
0
LINE
8
BLACK
6
CONTINUOUS
10
1.39558
20
1.14918
11
1.4012
21
1.14918
0
LINE
8
BLACK
6
CONTINUOUS
10
1.4012
20
1.14918
11
1.40221
21
1.14901
0
LINE
8
BLACK
6
CONTINUOUS
10
0.739753
20
1.16223
11
0.73992
21
1.16226
0
LINE
8
BLACK
6
CONTINUOUS
10
0.73992
20
1.16226
11
0.740662
21
1.16183
0
LINE
8
BLACK
6
CONTINUOUS
10
0.740662
20
1.16183
11
0.741447
21
1.16149
0
LINE
8
BLACK
6
CONTINUOUS
10
0.741447
20
1.16149
11
0.741522
21
1.16134
0
LINE
8
BLACK
6
CONTINUOUS
10
0.741522
20
1.16134
11
0.741669
21
1.16125
0
LINE
8
BLACK
6
CONTINUOUS
10
0.741669
20
1.16125
11
0.741962
21
1.16045
0
LINE
8
BLACK
6
CONTINUOUS
10
0.741962
20
1.16045
11
0.742342
21
1.15968
0
LINE
8
BLACK
6
CONTINUOUS
10
0.742342
20
1.15968
11
0.742302
21
1.15951
0
LINE
8
BLACK
6
CONTINUOUS
10
0.742302
20
1.15951
11
0.74236
21
1.15936
0
LINE
8
BLACK
6
CONTINUOUS
10
0.74236
20
1.15936
11
0.74236
21
1.12294
0
LINE
8
BLACK
6
CONTINUOUS
10
0.74236
20
1.12294
11
0.750656
21
1.12294
0
LINE
8
BLACK
6
CONTINUOUS
10
0.750656
20
1.12294
11
0.751666
21
1.12276
0
LINE
8
BLACK
6
CONTINUOUS
10
0.751666
20
1.12276
11
0.753213
21
1.12146
0
LINE
8
BLACK
6
CONTINUOUS
10
0.753213
20
1.12146
11
0.753564
21
1.11947
0
LINE
8
BLACK
6
CONTINUOUS
10
0.753564
20
1.11947
11
0.752554
21
1.11772
0
LINE
8
BLACK
6
CONTINUOUS
10
0.752554
20
1.11772
11
0.750656
21
1.11703
0
LINE
8
BLACK
6
CONTINUOUS
10
0.750656
20
1.11703
11
0.728159
21
1.11703
0
LINE
8
BLACK
6
CONTINUOUS
10
0.728159
20
1.11703
11
0.727149
21
1.11721
0
LINE
8
BLACK
6
CONTINUOUS
10
0.727149
20
1.11721
11
0.725602
21
1.11851
0
LINE
8
BLACK
6
CONTINUOUS
10
0.725602
20
1.11851
11
0.725251
21
1.1205
0
LINE
8
BLACK
6
CONTINUOUS
10
0.725251
20
1.1205
11
0.726261
21
1.12225
0
LINE
8
BLACK
6
CONTINUOUS
10
0.726261
20
1.12225
11
0.728159
21
1.12294
0
LINE
8
BLACK
6
CONTINUOUS
10
0.728159
20
1.12294
11
0.736455
21
1.12294
0
LINE
8
BLACK
6
CONTINUOUS
10
0.736455
20
1.12294
11
0.736455
21
1.15035
0
LINE
8
BLACK
6
CONTINUOUS
10
0.736455
20
1.15035
11
0.733996
21
1.14789
0
LINE
8
BLACK
6
CONTINUOUS
10
0.733996
20
1.14789
11
0.733273
21
1.14739
0
LINE
8
BLACK
6
CONTINUOUS
10
0.733273
20
1.14739
11
0.733229
21
1.14734
0
LINE
8
BLACK
6
CONTINUOUS
10
0.733229
20
1.14734
11
0.729479
21
1.14547
0
LINE
8
BLACK
6
CONTINUOUS
10
0.729479
20
1.14547
11
0.728497
21
1.14517
0
LINE
8
BLACK
6
CONTINUOUS
10
0.728497
20
1.14517
11
0.726532
21
1.14564
0
LINE
8
BLACK
6
CONTINUOUS
10
0.726532
20
1.14564
11
0.725329
21
1.14726
0
LINE
8
BLACK
6
CONTINUOUS
10
0.725329
20
1.14726
11
0.72545
21
1.14928
0
LINE
8
BLACK
6
CONTINUOUS
10
0.72545
20
1.14928
11
0.726838
21
1.15075
0
LINE
8
BLACK
6
CONTINUOUS
10
0.726838
20
1.15075
11
0.730159
21
1.15241
0
LINE
8
BLACK
6
CONTINUOUS
10
0.730159
20
1.15241
11
0.733363
21
1.15561
0
LINE
8
BLACK
6
CONTINUOUS
10
0.733363
20
1.15561
11
0.736951
21
1.16099
0
LINE
8
BLACK
6
CONTINUOUS
10
0.736951
20
1.16099
11
0.737659
21
1.16173
0
LINE
8
BLACK
6
CONTINUOUS
10
0.737659
20
1.16173
11
0.737822
21
1.16178
0
LINE
8
BLACK
6
CONTINUOUS
10
0.737822
20
1.16178
11
0.737931
21
1.16191
0
LINE
8
BLACK
6
CONTINUOUS
10
0.737931
20
1.16191
11
0.738775
21
1.16206
0
LINE
8
BLACK
6
CONTINUOUS
10
0.738775
20
1.16206
11
0.739598
21
1.1623
0
LINE
8
BLACK
6
CONTINUOUS
10
0.739598
20
1.1623
11
0.739753
21
1.16223
0
LINE
8
BLACK
6
CONTINUOUS
10
0.986012
20
1.16213
11
0.986147
21
1.16202
0
LINE
8
BLACK
6
CONTINUOUS
10
0.986147
20
1.16202
11
0.986322
21
1.162
0
LINE
8
BLACK
6
CONTINUOUS
10
0.986322
20
1.162
11
0.990072
21
1.16012
0
LINE
8
BLACK
6
CONTINUOUS
10
0.990072
20
1.16012
11
0.990896
21
1.15951
0
LINE
8
BLACK
6
CONTINUOUS
10
0.990896
20
1.15951
11
0.991699
21
1.15766
0
LINE
8
BLACK
6
CONTINUOUS
10
0.991699
20
1.15766
11
0.991123
21
1.15572
0
LINE
8
BLACK
6
CONTINUOUS
10
0.991123
20
1.15572
11
0.989437
21
1.15461
0
LINE
8
BLACK
6
CONTINUOUS
10
0.989437
20
1.15461
11
0.987431
21
1.15484
0
LINE
8
BLACK
6
CONTINUOUS
10
0.987431
20
1.15484
11
0.984305
21
1.1564
0
LINE
8
BLACK
6
CONTINUOUS
10
0.984305
20
1.1564
11
0.979857
21
1.1564
0
LINE
8
BLACK
6
CONTINUOUS
10
0.979857
20
1.1564
11
0.975348
21
1.1549
0
LINE
8
BLACK
6
CONTINUOUS
10
0.975348
20
1.1549
11
0.97243
21
1.15198
0
LINE
8
BLACK
6
CONTINUOUS
10
0.97243
20
1.15198
11
0.970915
21
1.14895
0
LINE
8
BLACK
6
CONTINUOUS
10
0.970915
20
1.14895
11
0.969207
21
1.14212
0
LINE
8
BLACK
6
CONTINUOUS
10
0.969207
20
1.14212
11
0.969207
21
1.13722
0
LINE
8
BLACK
6
CONTINUOUS
10
0.969207
20
1.13722
11
0.970915
21
1.13039
0
LINE
8
BLACK
6
CONTINUOUS
10
0.970915
20
1.13039
11
0.97243
21
1.12736
0
LINE
8
BLACK
6
CONTINUOUS
10
0.97243
20
1.12736
11
0.975348
21
1.12444
0
LINE
8
BLACK
6
CONTINUOUS
10
0.975348
20
1.12444
11
0.979857
21
1.12294
0
LINE
8
BLACK
6
CONTINUOUS
10
0.979857
20
1.12294
11
0.982648
21
1.12294
0
LINE
8
BLACK
6
CONTINUOUS
10
0.982648
20
1.12294
11
0.987156
21
1.12444
0
LINE
8
BLACK
6
CONTINUOUS
10
0.987156
20
1.12444
11
0.987673
21
1.12496
0
LINE
8
BLACK
6
CONTINUOUS
10
0.987673
20
1.12496
11
0.987673
21
1.13391
0
LINE
8
BLACK
6
CONTINUOUS
10
0.987673
20
1.13391
11
0.983127
21
1.13391
0
LINE
8
BLACK
6
CONTINUOUS
10
0.983127
20
1.13391
11
0.982117
21
1.13408
0
LINE
8
BLACK
6
CONTINUOUS
10
0.982117
20
1.13408
11
0.98057
21
1.13538
0
LINE
8
BLACK
6
CONTINUOUS
10
0.98057
20
1.13538
11
0.980219
21
1.13737
0
LINE
8
BLACK
6
CONTINUOUS
10
0.980219
20
1.13737
11
0.981229
21
1.13912
0
LINE
8
BLACK
6
CONTINUOUS
10
0.981229
20
1.13912
11
0.983127
21
1.13981
0
LINE
8
BLACK
6
CONTINUOUS
10
0.983127
20
1.13981
11
0.990626
21
1.13981
0
LINE
8
BLACK
6
CONTINUOUS
10
0.990626
20
1.13981
11
0.99101
21
1.13974
0
LINE
8
BLACK
6
CONTINUOUS
10
0.99101
20
1.13974
11
0.991139
21
1.13977
0
LINE
8
BLACK
6
CONTINUOUS
10
0.991139
20
1.13977
11
0.991253
21
1.1397
0
LINE
8
BLACK
6
CONTINUOUS
10
0.991253
20
1.1397
11
0.991636
21
1.13963
0
LINE
8
BLACK
6
CONTINUOUS
10
0.991636
20
1.13963
11
0.992224
21
1.13914
0
LINE
8
BLACK
6
CONTINUOUS
10
0.992224
20
1.13914
11
0.992888
21
1.13876
0
LINE
8
BLACK
6
CONTINUOUS
10
0.992888
20
1.13876
11
0.992979
21
1.13851
0
LINE
8
BLACK
6
CONTINUOUS
10
0.992979
20
1.13851
11
0.993183
21
1.13833
0
LINE
8
BLACK
6
CONTINUOUS
10
0.993183
20
1.13833
11
0.993317
21
1.13758
0
LINE
8
BLACK
6
CONTINUOUS
10
0.993317
20
1.13758
11
0.993579
21
1.13686
0
LINE
8
BLACK
6
CONTINUOUS
10
0.993579
20
1.13686
11
0.993579
21
1.12373
0
LINE
8
BLACK
6
CONTINUOUS
10
0.993579
20
1.12373
11
0.993547
21
1.12355
0
LINE
8
BLACK
6
CONTINUOUS
10
0.993547
20
1.12355
11
0.993568
21
1.12348
0
LINE
8
BLACK
6
CONTINUOUS
10
0.993568
20
1.12348
11
0.993513
21
1.12336
0
LINE
8
BLACK
6
CONTINUOUS
10
0.993513
20
1.12336
11
0.993401
21
1.12272
0
LINE
8
BLACK
6
CONTINUOUS
10
0.993401
20
1.12272
11
0.992986
21
1.12223
0
LINE
8
BLACK
6
CONTINUOUS
10
0.992986
20
1.12223
11
0.992714
21
1.12165
0
LINE
8
BLACK
6
CONTINUOUS
10
0.992714
20
1.12165
11
0.990839
21
1.11977
0
LINE
8
BLACK
6
CONTINUOUS
10
0.990839
20
1.11977
11
0.989999
21
1.11918
0
LINE
8
BLACK
6
CONTINUOUS
10
0.989999
20
1.11918
11
0.989823
21
1.11917
0
LINE
8
BLACK
6
CONTINUOUS
10
0.989823
20
1.11917
11
0.989685
21
1.11906
0
LINE
8
BLACK
6
CONTINUOUS
10
0.989685
20
1.11906
11
0.984061
21
1.11718
0
LINE
8
BLACK
6
CONTINUOUS
10
0.984061
20
1.11718
11
0.983188
21
1.11705
0
LINE
8
BLACK
6
CONTINUOUS
10
0.983188
20
1.11705
11
0.983127
21
1.11703
0
LINE
8
BLACK
6
CONTINUOUS
10
0.983127
20
1.11703
11
0.979378
21
1.11703
0
LINE
8
BLACK
6
CONTINUOUS
10
0.979378
20
1.11703
11
0.978508
21
1.11719
0
LINE
8
BLACK
6
CONTINUOUS
10
0.978508
20
1.11719
11
0.978444
21
1.11718
0
LINE
8
BLACK
6
CONTINUOUS
10
0.978444
20
1.11718
11
0.97282
21
1.11906
0
LINE
8
BLACK
6
CONTINUOUS
10
0.97282
20
1.11906
11
0.971918
21
1.11955
0
LINE
8
BLACK
6
CONTINUOUS
10
0.971918
20
1.11955
11
0.971825
21
1.1197
0
LINE
8
BLACK
6
CONTINUOUS
10
0.971825
20
1.1197
11
0.971665
21
1.11977
0
LINE
8
BLACK
6
CONTINUOUS
10
0.971665
20
1.11977
11
0.967916
21
1.12352
0
LINE
8
BLACK
6
CONTINUOUS
10
0.967916
20
1.12352
11
0.96741
21
1.12424
0
LINE
8
BLACK
6
CONTINUOUS
10
0.96741
20
1.12424
11
0.967363
21
1.12429
0
LINE
8
BLACK
6
CONTINUOUS
10
0.967363
20
1.12429
11
0.965488
21
1.12804
0
LINE
8
BLACK
6
CONTINUOUS
10
0.965488
20
1.12804
11
0.965343
21
1.12853
0
LINE
8
BLACK
6
CONTINUOUS
10
0.965343
20
1.12853
11
0.965264
21
1.12864
0
LINE
8
BLACK
6
CONTINUOUS
10
0.965264
20
1.12864
11
0.96339
21
1.13614
0
LINE
8
BLACK
6
CONTINUOUS
10
0.96339
20
1.13614
11
0.963348
21
1.13673
0
LINE
8
BLACK
6
CONTINUOUS
10
0.963348
20
1.13673
11
0.963301
21
1.13686
0
LINE
8
BLACK
6
CONTINUOUS
10
0.963301
20
1.13686
11
0.963301
21
1.14248
0
LINE
8
BLACK
6
CONTINUOUS
10
0.963301
20
1.14248
11
0.963404
21
1.14306
0
LINE
8
BLACK
6
CONTINUOUS
10
0.963404
20
1.14306
11
0.96339
21
1.1432
0
LINE
8
BLACK
6
CONTINUOUS
10
0.96339
20
1.1432
11
0.965264
21
1.1507
0
LINE
8
BLACK
6
CONTINUOUS
10
0.965264
20
1.1507
11
0.965472
21
1.15116
0
LINE
8
BLACK
6
CONTINUOUS
10
0.965472
20
1.15116
11
0.965488
21
1.1513
0
LINE
8
BLACK
6
CONTINUOUS
10
0.965488
20
1.1513
11
0.967363
21
1.15505
0
LINE
8
BLACK
6
CONTINUOUS
10
0.967363
20
1.15505
11
0.967889
21
1.15576
0
LINE
8
BLACK
6
CONTINUOUS
10
0.967889
20
1.15576
11
0.967916
21
1.15582
0
LINE
8
BLACK
6
CONTINUOUS
10
0.967916
20
1.15582
11
0.971665
21
1.15957
0
LINE
8
BLACK
6
CONTINUOUS
10
0.971665
20
1.15957
11
0.972505
21
1.16016
0
LINE
8
BLACK
6
CONTINUOUS
10
0.972505
20
1.16016
11
0.972681
21
1.16017
0
LINE
8
BLACK
6
CONTINUOUS
10
0.972681
20
1.16017
11
0.972819
21
1.16028
0
LINE
8
BLACK
6
CONTINUOUS
10
0.972819
20
1.16028
11
0.978444
21
1.16216
0
LINE
8
BLACK
6
CONTINUOUS
10
0.978444
20
1.16216
11
0.979317
21
1.16229
0
LINE
8
BLACK
6
CONTINUOUS
10
0.979317
20
1.16229
11
0.979378
21
1.16231
0
LINE
8
BLACK
6
CONTINUOUS
10
0.979378
20
1.16231
11
0.985002
21
1.16231
0
LINE
8
BLACK
6
CONTINUOUS
10
0.985002
20
1.16231
11
0.986012
21
1.16213
0
LINE
8
BLACK
6
CONTINUOUS
10
0.655913
20
1.16215
11
0.655977
21
1.16216
0
LINE
8
BLACK
6
CONTINUOUS
10
0.655977
20
1.16216
11
0.661601
21
1.16028
0
LINE
8
BLACK
6
CONTINUOUS
10
0.661601
20
1.16028
11
0.662503
21
1.15979
0
LINE
8
BLACK
6
CONTINUOUS
10
0.662503
20
1.15979
11
0.662595
21
1.15964
0
LINE
8
BLACK
6
CONTINUOUS
10
0.662595
20
1.15964
11
0.662755
21
1.15957
0
LINE
8
BLACK
6
CONTINUOUS
10
0.662755
20
1.15957
11
0.666505
21
1.15582
0
LINE
8
BLACK
6
CONTINUOUS
10
0.666505
20
1.15582
11
0.667011
21
1.1551
0
LINE
8
BLACK
6
CONTINUOUS
10
0.667011
20
1.1551
11
0.667058
21
1.15505
0
LINE
8
BLACK
6
CONTINUOUS
10
0.667058
20
1.15505
11
0.668933
21
1.1513
0
LINE
8
BLACK
6
CONTINUOUS
10
0.668933
20
1.1513
11
0.669078
21
1.15081
0
LINE
8
BLACK
6
CONTINUOUS
10
0.669078
20
1.15081
11
0.669156
21
1.1507
0
LINE
8
BLACK
6
CONTINUOUS
10
0.669156
20
1.1507
11
0.671031
21
1.1432
0
LINE
8
BLACK
6
CONTINUOUS
10
0.671031
20
1.1432
11
0.671073
21
1.14261
0
LINE
8
BLACK
6
CONTINUOUS
10
0.671073
20
1.14261
11
0.671119
21
1.14248
0
LINE
8
BLACK
6
CONTINUOUS
10
0.671119
20
1.14248
11
0.671119
21
1.13686
0
LINE
8
BLACK
6
CONTINUOUS
10
0.671119
20
1.13686
11
0.671017
21
1.13628
0
LINE
8
BLACK
6
CONTINUOUS
10
0.671017
20
1.13628
11
0.671031
21
1.13614
0
LINE
8
BLACK
6
CONTINUOUS
10
0.671031
20
1.13614
11
0.669156
21
1.12864
0
LINE
8
BLACK
6
CONTINUOUS
10
0.669156
20
1.12864
11
0.668949
21
1.12818
0
LINE
8
BLACK
6
CONTINUOUS
10
0.668949
20
1.12818
11
0.668933
21
1.12804
0
LINE
8
BLACK
6
CONTINUOUS
10
0.668933
20
1.12804
11
0.667058
21
1.12429
0
LINE
8
BLACK
6
CONTINUOUS
10
0.667058
20
1.12429
11
0.666532
21
1.12358
0
LINE
8
BLACK
6
CONTINUOUS
10
0.666532
20
1.12358
11
0.666505
21
1.12352
0
LINE
8
BLACK
6
CONTINUOUS
10
0.666505
20
1.12352
11
0.662755
21
1.11977
0
LINE
8
BLACK
6
CONTINUOUS
10
0.662755
20
1.11977
11
0.661915
21
1.11918
0
LINE
8
BLACK
6
CONTINUOUS
10
0.661915
20
1.11918
11
0.661739
21
1.11917
0
LINE
8
BLACK
6
CONTINUOUS
10
0.661739
20
1.11917
11
0.661601
21
1.11906
0
LINE
8
BLACK
6
CONTINUOUS
10
0.661601
20
1.11906
11
0.655977
21
1.11718
0
LINE
8
BLACK
6
CONTINUOUS
10
0.655977
20
1.11718
11
0.655104
21
1.11705
0
LINE
8
BLACK
6
CONTINUOUS
10
0.655104
20
1.11705
11
0.655043
21
1.11703
0
LINE
8
BLACK
6
CONTINUOUS
10
0.655043
20
1.11703
11
0.645669
21
1.11703
0
LINE
8
BLACK
6
CONTINUOUS
10
0.645669
20
1.11703
11
0.645286
21
1.1171
0
LINE
8
BLACK
6
CONTINUOUS
10
0.645286
20
1.1171
11
0.645157
21
1.11708
0
LINE
8
BLACK
6
CONTINUOUS
10
0.645157
20
1.11708
11
0.645043
21
1.11714
0
LINE
8
BLACK
6
CONTINUOUS
10
0.645043
20
1.11714
11
0.644659
21
1.11721
0
LINE
8
BLACK
6
CONTINUOUS
10
0.644659
20
1.11721
11
0.644072
21
1.1177
0
LINE
8
BLACK
6
CONTINUOUS
10
0.644072
20
1.1177
11
0.643407
21
1.11809
0
LINE
8
BLACK
6
CONTINUOUS
10
0.643407
20
1.11809
11
0.643316
21
1.11834
0
LINE
8
BLACK
6
CONTINUOUS
10
0.643316
20
1.11834
11
0.643112
21
1.11851
0
LINE
8
BLACK
6
CONTINUOUS
10
0.643112
20
1.11851
11
0.642979
21
1.11926
0
LINE
8
BLACK
6
CONTINUOUS
10
0.642979
20
1.11926
11
0.642717
21
1.11999
0
LINE
8
BLACK
6
CONTINUOUS
10
0.642717
20
1.11999
11
0.642717
21
1.15936
0
LINE
8
BLACK
6
CONTINUOUS
10
0.642717
20
1.15936
11
0.642784
21
1.15974
0
LINE
8
BLACK
6
CONTINUOUS
10
0.642784
20
1.15974
11
0.642761
21
1.15987
0
LINE
8
BLACK
6
CONTINUOUS
10
0.642761
20
1.15987
11
0.642827
21
1.15998
0
LINE
8
BLACK
6
CONTINUOUS
10
0.642827
20
1.15998
11
0.642895
21
1.16037
0
LINE
8
BLACK
6
CONTINUOUS
10
0.642895
20
1.16037
11
0.643388
21
1.16095
0
LINE
8
BLACK
6
CONTINUOUS
10
0.643388
20
1.16095
11
0.643771
21
1.16162
0
LINE
8
BLACK
6
CONTINUOUS
10
0.643771
20
1.16162
11
0.644022
21
1.16171
0
LINE
8
BLACK
6
CONTINUOUS
10
0.644022
20
1.16171
11
0.644193
21
1.16191
0
LINE
8
BLACK
6
CONTINUOUS
10
0.644193
20
1.16191
11
0.644948
21
1.16205
0
LINE
8
BLACK
6
CONTINUOUS
10
0.644948
20
1.16205
11
0.645669
21
1.16231
0
LINE
8
BLACK
6
CONTINUOUS
10
0.645669
20
1.16231
11
0.655043
21
1.16231
0
LINE
8
BLACK
6
CONTINUOUS
10
0.655043
20
1.16231
11
0.655913
21
1.16215
0
LINE
8
BLACK
6
CONTINUOUS
10
0.648622
20
1.1564
11
0.648622
21
1.12294
0
LINE
8
BLACK
6
CONTINUOUS
10
0.648622
20
1.12294
11
0.654564
21
1.12294
0
LINE
8
BLACK
6
CONTINUOUS
10
0.654564
20
1.12294
11
0.659072
21
1.12444
0
LINE
8
BLACK
6
CONTINUOUS
10
0.659072
20
1.12444
11
0.66199
21
1.12736
0
LINE
8
BLACK
6
CONTINUOUS
10
0.66199
20
1.12736
11
0.663506
21
1.13039
0
LINE
8
BLACK
6
CONTINUOUS
10
0.663506
20
1.13039
11
0.665214
21
1.13722
0
LINE
8
BLACK
6
CONTINUOUS
10
0.665214
20
1.13722
11
0.665214
21
1.14212
0
LINE
8
BLACK
6
CONTINUOUS
10
0.665214
20
1.14212
11
0.663506
21
1.14895
0
LINE
8
BLACK
6
CONTINUOUS
10
0.663506
20
1.14895
11
0.66199
21
1.15198
0
LINE
8
BLACK
6
CONTINUOUS
10
0.66199
20
1.15198
11
0.659072
21
1.1549
0
LINE
8
BLACK
6
CONTINUOUS
10
0.659072
20
1.1549
11
0.654564
21
1.1564
0
LINE
8
BLACK
6
CONTINUOUS
10
0.654564
20
1.1564
11
0.648622
21
1.1564
0
LINE
8
BLACK
6
CONTINUOUS
10
0.946642
20
1.16213
11
0.946777
21
1.16202
0
LINE
8
BLACK
6
CONTINUOUS
10
0.946777
20
1.16202
11
0.946952
21
1.162
0
LINE
8
BLACK
6
CONTINUOUS
10
0.946952
20
1.162
11
0.950702
21
1.16012
0
LINE
8
BLACK
6
CONTINUOUS
10
0.950702
20
1.16012
11
0.951526
21
1.15951
0
LINE
8
BLACK
6
CONTINUOUS
10
0.951526
20
1.15951
11
0.952329
21
1.15766
0
LINE
8
BLACK
6
CONTINUOUS
10
0.952329
20
1.15766
11
0.951753
21
1.15572
0
LINE
8
BLACK
6
CONTINUOUS
10
0.951753
20
1.15572
11
0.950067
21
1.15461
0
LINE
8
BLACK
6
CONTINUOUS
10
0.950067
20
1.15461
11
0.948061
21
1.15484
0
LINE
8
BLACK
6
CONTINUOUS
10
0.948061
20
1.15484
11
0.944935
21
1.1564
0
LINE
8
BLACK
6
CONTINUOUS
10
0.944935
20
1.1564
11
0.940487
21
1.1564
0
LINE
8
BLACK
6
CONTINUOUS
10
0.940487
20
1.1564
11
0.935978
21
1.1549
0
LINE
8
BLACK
6
CONTINUOUS
10
0.935978
20
1.1549
11
0.93306
21
1.15198
0
LINE
8
BLACK
6
CONTINUOUS
10
0.93306
20
1.15198
11
0.931545
21
1.14895
0
LINE
8
BLACK
6
CONTINUOUS
10
0.931545
20
1.14895
11
0.929837
21
1.14212
0
LINE
8
BLACK
6
CONTINUOUS
10
0.929837
20
1.14212
11
0.929837
21
1.13722
0
LINE
8
BLACK
6
CONTINUOUS
10
0.929837
20
1.13722
11
0.931545
21
1.13039
0
LINE
8
BLACK
6
CONTINUOUS
10
0.931545
20
1.13039
11
0.93306
21
1.12736
0
LINE
8
BLACK
6
CONTINUOUS
10
0.93306
20
1.12736
11
0.935978
21
1.12444
0
LINE
8
BLACK
6
CONTINUOUS
10
0.935978
20
1.12444
11
0.940487
21
1.12294
0
LINE
8
BLACK
6
CONTINUOUS
10
0.940487
20
1.12294
11
0.943278
21
1.12294
0
LINE
8
BLACK
6
CONTINUOUS
10
0.943278
20
1.12294
11
0.947786
21
1.12444
0
LINE
8
BLACK
6
CONTINUOUS
10
0.947786
20
1.12444
11
0.948303
21
1.12496
0
LINE
8
BLACK
6
CONTINUOUS
10
0.948303
20
1.12496
11
0.948303
21
1.13391
0
LINE
8
BLACK
6
CONTINUOUS
10
0.948303
20
1.13391
11
0.943757
21
1.13391
0
LINE
8
BLACK
6
CONTINUOUS
10
0.943757
20
1.13391
11
0.942747
21
1.13408
0
LINE
8
BLACK
6
CONTINUOUS
10
0.942747
20
1.13408
11
0.9412
21
1.13538
0
LINE
8
BLACK
6
CONTINUOUS
10
0.9412
20
1.13538
11
0.940849
21
1.13737
0
LINE
8
BLACK
6
CONTINUOUS
10
0.940849
20
1.13737
11
0.941859
21
1.13912
0
LINE
8
BLACK
6
CONTINUOUS
10
0.941859
20
1.13912
11
0.943757
21
1.13981
0
LINE
8
BLACK
6
CONTINUOUS
10
0.943757
20
1.13981
11
0.951256
21
1.13981
0
LINE
8
BLACK
6
CONTINUOUS
10
0.951256
20
1.13981
11
0.95164
21
1.13974
0
LINE
8
BLACK
6
CONTINUOUS
10
0.95164
20
1.13974
11
0.951769
21
1.13977
0
LINE
8
BLACK
6
CONTINUOUS
10
0.951769
20
1.13977
11
0.951882
21
1.1397
0
LINE
8
BLACK
6
CONTINUOUS
10
0.951882
20
1.1397
11
0.952266
21
1.13963
0
LINE
8
BLACK
6
CONTINUOUS
10
0.952266
20
1.13963
11
0.952854
21
1.13914
0
LINE
8
BLACK
6
CONTINUOUS
10
0.952854
20
1.13914
11
0.953518
21
1.13876
0
LINE
8
BLACK
6
CONTINUOUS
10
0.953518
20
1.13876
11
0.953609
21
1.13851
0
LINE
8
BLACK
6
CONTINUOUS
10
0.953609
20
1.13851
11
0.953813
21
1.13833
0
LINE
8
BLACK
6
CONTINUOUS
10
0.953813
20
1.13833
11
0.953946
21
1.13758
0
LINE
8
BLACK
6
CONTINUOUS
10
0.953946
20
1.13758
11
0.954209
21
1.13686
0
LINE
8
BLACK
6
CONTINUOUS
10
0.954209
20
1.13686
11
0.954209
21
1.12373
0
LINE
8
BLACK
6
CONTINUOUS
10
0.954209
20
1.12373
11
0.954177
21
1.12355
0
LINE
8
BLACK
6
CONTINUOUS
10
0.954177
20
1.12355
11
0.954198
21
1.12348
0
LINE
8
BLACK
6
CONTINUOUS
10
0.954198
20
1.12348
11
0.954143
21
1.12336
0
LINE
8
BLACK
6
CONTINUOUS
10
0.954143
20
1.12336
11
0.954031
21
1.12272
0
LINE
8
BLACK
6
CONTINUOUS
10
0.954031
20
1.12272
11
0.953616
21
1.12223
0
LINE
8
BLACK
6
CONTINUOUS
10
0.953616
20
1.12223
11
0.953344
21
1.12165
0
LINE
8
BLACK
6
CONTINUOUS
10
0.953344
20
1.12165
11
0.951469
21
1.11977
0
LINE
8
BLACK
6
CONTINUOUS
10
0.951469
20
1.11977
11
0.950629
21
1.11918
0
LINE
8
BLACK
6
CONTINUOUS
10
0.950629
20
1.11918
11
0.950453
21
1.11917
0
LINE
8
BLACK
6
CONTINUOUS
10
0.950453
20
1.11917
11
0.950315
21
1.11906
0
LINE
8
BLACK
6
CONTINUOUS
10
0.950315
20
1.11906
11
0.944691
21
1.11718
0
LINE
8
BLACK
6
CONTINUOUS
10
0.944691
20
1.11718
11
0.943818
21
1.11705
0
LINE
8
BLACK
6
CONTINUOUS
10
0.943818
20
1.11705
11
0.943757
21
1.11703
0
LINE
8
BLACK
6
CONTINUOUS
10
0.943757
20
1.11703
11
0.940007
21
1.11703
0
LINE
8
BLACK
6
CONTINUOUS
10
0.940007
20
1.11703
11
0.939138
21
1.11719
0
LINE
8
BLACK
6
CONTINUOUS
10
0.939138
20
1.11719
11
0.939074
21
1.11718
0
LINE
8
BLACK
6
CONTINUOUS
10
0.939074
20
1.11718
11
0.933449
21
1.11906
0
LINE
8
BLACK
6
CONTINUOUS
10
0.933449
20
1.11906
11
0.932548
21
1.11955
0
LINE
8
BLACK
6
CONTINUOUS
10
0.932548
20
1.11955
11
0.932455
21
1.1197
0
LINE
8
BLACK
6
CONTINUOUS
10
0.932455
20
1.1197
11
0.932295
21
1.11977
0
LINE
8
BLACK
6
CONTINUOUS
10
0.932295
20
1.11977
11
0.928546
21
1.12352
0
LINE
8
BLACK
6
CONTINUOUS
10
0.928546
20
1.12352
11
0.928039
21
1.12424
0
LINE
8
BLACK
6
CONTINUOUS
10
0.928039
20
1.12424
11
0.927993
21
1.12429
0
LINE
8
BLACK
6
CONTINUOUS
10
0.927993
20
1.12429
11
0.926118
21
1.12804
0
LINE
8
BLACK
6
CONTINUOUS
10
0.926118
20
1.12804
11
0.925973
21
1.12853
0
LINE
8
BLACK
6
CONTINUOUS
10
0.925973
20
1.12853
11
0.925894
21
1.12864
0
LINE
8
BLACK
6
CONTINUOUS
10
0.925894
20
1.12864
11
0.92402
21
1.13614
0
LINE
8
BLACK
6
CONTINUOUS
10
0.92402
20
1.13614
11
0.923978
21
1.13673
0
LINE
8
BLACK
6
CONTINUOUS
10
0.923978
20
1.13673
11
0.923931
21
1.13686
0
LINE
8
BLACK
6
CONTINUOUS
10
0.923931
20
1.13686
11
0.923931
21
1.14248
0
LINE
8
BLACK
6
CONTINUOUS
10
0.923931
20
1.14248
11
0.924034
21
1.14306
0
LINE
8
BLACK
6
CONTINUOUS
10
0.924034
20
1.14306
11
0.92402
21
1.1432
0
LINE
8
BLACK
6
CONTINUOUS
10
0.92402
20
1.1432
11
0.925894
21
1.1507
0
LINE
8
BLACK
6
CONTINUOUS
10
0.925894
20
1.1507
11
0.926102
21
1.15116
0
LINE
8
BLACK
6
CONTINUOUS
10
0.926102
20
1.15116
11
0.926118
21
1.1513
0
LINE
8
BLACK
6
CONTINUOUS
10
0.926118
20
1.1513
11
0.927993
21
1.15505
0
LINE
8
BLACK
6
CONTINUOUS
10
0.927993
20
1.15505
11
0.928519
21
1.15576
0
LINE
8
BLACK
6
CONTINUOUS
10
0.928519
20
1.15576
11
0.928546
21
1.15582
0
LINE
8
BLACK
6
CONTINUOUS
10
0.928546
20
1.15582
11
0.932295
21
1.15957
0
LINE
8
BLACK
6
CONTINUOUS
10
0.932295
20
1.15957
11
0.933135
21
1.16016
0
LINE
8
BLACK
6
CONTINUOUS
10
0.933135
20
1.16016
11
0.933311
21
1.16017
0
LINE
8
BLACK
6
CONTINUOUS
10
0.933311
20
1.16017
11
0.933449
21
1.16028
0
LINE
8
BLACK
6
CONTINUOUS
10
0.933449
20
1.16028
11
0.939074
21
1.16216
0
LINE
8
BLACK
6
CONTINUOUS
10
0.939074
20
1.16216
11
0.939947
21
1.16229
0
LINE
8
BLACK
6
CONTINUOUS
10
0.939947
20
1.16229
11
0.940007
21
1.16231
0
LINE
8
BLACK
6
CONTINUOUS
10
0.940007
20
1.16231
11
0.945632
21
1.16231
0
LINE
8
BLACK
6
CONTINUOUS
10
0.945632
20
1.16231
11
0.946642
21
1.16213
0
LINE
8
BLACK
6
CONTINUOUS
10
1.56094
20
1.16125
11
1.56163
21
1.15936
0
LINE
8
BLACK
6
CONTINUOUS
10
1.56163
20
1.15936
11
1.56163
21
1.14918
0
LINE
8
BLACK
6
CONTINUOUS
10
1.56163
20
1.14918
11
1.56805
21
1.14918
0
LINE
8
BLACK
6
CONTINUOUS
10
1.56805
20
1.14918
11
1.56906
21
1.14901
0
LINE
8
BLACK
6
CONTINUOUS
10
1.56906
20
1.14901
11
1.57061
21
1.14771
0
LINE
8
BLACK
6
CONTINUOUS
10
1.57061
20
1.14771
11
1.57096
21
1.14572
0
LINE
8
BLACK
6
CONTINUOUS
10
1.57096
20
1.14572
11
1.56995
21
1.14397
0
LINE
8
BLACK
6
CONTINUOUS
10
1.56995
20
1.14397
11
1.56805
21
1.14328
0
LINE
8
BLACK
6
CONTINUOUS
10
1.56805
20
1.14328
11
1.56163
21
1.14328
0
LINE
8
BLACK
6
CONTINUOUS
10
1.56163
20
1.14328
11
1.56163
21
1.12631
0
LINE
8
BLACK
6
CONTINUOUS
10
1.56163
20
1.12631
11
1.56276
21
1.12406
0
LINE
8
BLACK
6
CONTINUOUS
10
1.56276
20
1.12406
11
1.565
21
1.12294
0
LINE
8
BLACK
6
CONTINUOUS
10
1.565
20
1.12294
11
1.56805
21
1.12294
0
LINE
8
BLACK
6
CONTINUOUS
10
1.56805
20
1.12294
11
1.56906
21
1.12276
0
LINE
8
BLACK
6
CONTINUOUS
10
1.56906
20
1.12276
11
1.57061
21
1.12146
0
LINE
8
BLACK
6
CONTINUOUS
10
1.57061
20
1.12146
11
1.57096
21
1.11947
0
LINE
8
BLACK
6
CONTINUOUS
10
1.57096
20
1.11947
11
1.56995
21
1.11772
0
LINE
8
BLACK
6
CONTINUOUS
10
1.56995
20
1.11772
11
1.56805
21
1.11703
0
LINE
8
BLACK
6
CONTINUOUS
10
1.56805
20
1.11703
11
1.5643
21
1.11703
0
LINE
8
BLACK
6
CONTINUOUS
10
1.5643
20
1.11703
11
1.56329
21
1.11721
0
LINE
8
BLACK
6
CONTINUOUS
10
1.56329
20
1.11721
11
1.56316
21
1.11732
0
LINE
8
BLACK
6
CONTINUOUS
10
1.56316
20
1.11732
11
1.56298
21
1.11734
0
LINE
8
BLACK
6
CONTINUOUS
10
1.56298
20
1.11734
11
1.55923
21
1.11922
0
LINE
8
BLACK
6
CONTINUOUS
10
1.55923
20
1.11922
11
1.55841
21
1.11983
0
LINE
8
BLACK
6
CONTINUOUS
10
1.55841
20
1.11983
11
1.55823
21
1.12024
0
LINE
8
BLACK
6
CONTINUOUS
10
1.55823
20
1.12024
11
1.55791
21
1.12054
0
LINE
8
BLACK
6
CONTINUOUS
10
1.55791
20
1.12054
11
1.55604
21
1.12429
0
LINE
8
BLACK
6
CONTINUOUS
10
1.55604
20
1.12429
11
1.55575
21
1.12527
0
LINE
8
BLACK
6
CONTINUOUS
10
1.55575
20
1.12527
11
1.55579
21
1.12544
0
LINE
8
BLACK
6
CONTINUOUS
10
1.55579
20
1.12544
11
1.55573
21
1.12561
0
LINE
8
BLACK
6
CONTINUOUS
10
1.55573
20
1.12561
11
1.55573
21
1.14328
0
LINE
8
BLACK
6
CONTINUOUS
10
1.55573
20
1.14328
11
1.55306
21
1.14328
0
LINE
8
BLACK
6
CONTINUOUS
10
1.55306
20
1.14328
11
1.55205
21
1.14346
0
LINE
8
BLACK
6
CONTINUOUS
10
1.55205
20
1.14346
11
1.5505
21
1.14476
0
LINE
8
BLACK
6
CONTINUOUS
10
1.5505
20
1.14476
11
1.55015
21
1.14674
0
LINE
8
BLACK
6
CONTINUOUS
10
1.55015
20
1.14674
11
1.55116
21
1.14849
0
LINE
8
BLACK
6
CONTINUOUS
10
1.55116
20
1.14849
11
1.55306
21
1.14918
0
LINE
8
BLACK
6
CONTINUOUS
10
1.55306
20
1.14918
11
1.55573
21
1.14918
0
LINE
8
BLACK
6
CONTINUOUS
10
1.55573
20
1.14918
11
1.55573
21
1.15936
0
LINE
8
BLACK
6
CONTINUOUS
10
1.55573
20
1.15936
11
1.55591
21
1.16037
0
LINE
8
BLACK
6
CONTINUOUS
10
1.55591
20
1.16037
11
1.5572
21
1.16191
0
LINE
8
BLACK
6
CONTINUOUS
10
1.5572
20
1.16191
11
1.55919
21
1.16226
0
LINE
8
BLACK
6
CONTINUOUS
10
1.55919
20
1.16226
11
1.56094
21
1.16125
0
LINE
8
BLACK
6
CONTINUOUS
10
0.481172
20
1.16209
11
0.482096
21
1.16195
0
LINE
8
BLACK
6
CONTINUOUS
10
0.482096
20
1.16195
11
0.482152
21
1.16189
0
LINE
8
BLACK
6
CONTINUOUS
10
0.482152
20
1.16189
11
0.482236
21
1.16187
0
LINE
8
BLACK
6
CONTINUOUS
10
0.482236
20
1.16187
11
0.482816
21
1.16114
0
LINE
8
BLACK
6
CONTINUOUS
10
0.482816
20
1.16114
11
0.483436
21
1.16044
0
LINE
8
BLACK
6
CONTINUOUS
10
0.483436
20
1.16044
11
0.483438
21
1.16036
0
LINE
8
BLACK
6
CONTINUOUS
10
0.483438
20
1.16036
11
0.483491
21
1.16029
0
LINE
8
BLACK
6
CONTINUOUS
10
0.483491
20
1.16029
11
0.496614
21
1.12092
0
LINE
8
BLACK
6
CONTINUOUS
10
0.496614
20
1.12092
11
0.496765
21
1.1199
0
LINE
8
BLACK
6
CONTINUOUS
10
0.496765
20
1.1199
11
0.496023
21
1.11803
0
LINE
8
BLACK
6
CONTINUOUS
10
0.496023
20
1.11803
11
0.494246
21
1.11706
0
LINE
8
BLACK
6
CONTINUOUS
10
0.494246
20
1.11706
11
0.492268
21
1.11747
0
LINE
8
BLACK
6
CONTINUOUS
10
0.492268
20
1.11747
11
0.491012
21
1.11905
0
LINE
8
BLACK
6
CONTINUOUS
10
0.491012
20
1.11905
11
0.487936
21
1.12828
0
LINE
8
BLACK
6
CONTINUOUS
10
0.487936
20
1.12828
11
0.473444
21
1.12828
0
LINE
8
BLACK
6
CONTINUOUS
10
0.473444
20
1.12828
11
0.470368
21
1.11905
0
LINE
8
BLACK
6
CONTINUOUS
10
0.470368
20
1.11905
11
0.469879
21
1.11815
0
LINE
8
BLACK
6
CONTINUOUS
10
0.469879
20
1.11815
11
0.468159
21
1.11709
0
LINE
8
BLACK
6
CONTINUOUS
10
0.468159
20
1.11709
11
0.466161
21
1.11739
0
LINE
8
BLACK
6
CONTINUOUS
10
0.466161
20
1.11739
11
0.46482
21
1.1189
0
LINE
8
BLACK
6
CONTINUOUS
10
0.46482
20
1.1189
11
0.464765
21
1.12092
0
LINE
8
BLACK
6
CONTINUOUS
10
0.464765
20
1.12092
11
0.477889
21
1.16029
0
LINE
8
BLACK
6
CONTINUOUS
10
0.477889
20
1.16029
11
0.478377
21
1.16119
0
LINE
8
BLACK
6
CONTINUOUS
10
0.478377
20
1.16119
11
0.478449
21
1.16124
0
LINE
8
BLACK
6
CONTINUOUS
10
0.478449
20
1.16124
11
0.478481
21
1.16131
0
LINE
8
BLACK
6
CONTINUOUS
10
0.478481
20
1.16131
11
0.479302
21
1.16176
0
LINE
8
BLACK
6
CONTINUOUS
10
0.479302
20
1.16176
11
0.480098
21
1.16225
0
LINE
8
BLACK
6
CONTINUOUS
10
0.480098
20
1.16225
11
0.480182
21
1.16224
0
LINE
8
BLACK
6
CONTINUOUS
10
0.480182
20
1.16224
11
0.480257
21
1.16228
0
LINE
8
BLACK
6
CONTINUOUS
10
0.480257
20
1.16228
11
0.481172
21
1.16209
0
LINE
8
BLACK
6
CONTINUOUS
10
0.475413
20
1.13419
11
0.485967
21
1.13419
0
LINE
8
BLACK
6
CONTINUOUS
10
0.485967
20
1.13419
11
0.48069
21
1.15002
0
LINE
8
BLACK
6
CONTINUOUS
10
0.48069
20
1.15002
11
0.475413
21
1.13419
0
LINE
8
BLACK
6
CONTINUOUS
10
1.01548
20
1.16209
11
1.0164
21
1.16195
0
LINE
8
BLACK
6
CONTINUOUS
10
1.0164
20
1.16195
11
1.01646
21
1.16189
0
LINE
8
BLACK
6
CONTINUOUS
10
1.01646
20
1.16189
11
1.01654
21
1.16187
0
LINE
8
BLACK
6
CONTINUOUS
10
1.01654
20
1.16187
11
1.01712
21
1.16114
0
LINE
8
BLACK
6
CONTINUOUS
10
1.01712
20
1.16114
11
1.01774
21
1.16044
0
LINE
8
BLACK
6
CONTINUOUS
10
1.01774
20
1.16044
11
1.01775
21
1.16036
0
LINE
8
BLACK
6
CONTINUOUS
10
1.01775
20
1.16036
11
1.0178
21
1.16029
0
LINE
8
BLACK
6
CONTINUOUS
10
1.0178
20
1.16029
11
1.03092
21
1.12092
0
LINE
8
BLACK
6
CONTINUOUS
10
1.03092
20
1.12092
11
1.03107
21
1.1199
0
LINE
8
BLACK
6
CONTINUOUS
10
1.03107
20
1.1199
11
1.03033
21
1.11803
0
LINE
8
BLACK
6
CONTINUOUS
10
1.03033
20
1.11803
11
1.02855
21
1.11706
0
LINE
8
BLACK
6
CONTINUOUS
10
1.02855
20
1.11706
11
1.02658
21
1.11747
0
LINE
8
BLACK
6
CONTINUOUS
10
1.02658
20
1.11747
11
1.02532
21
1.11905
0
LINE
8
BLACK
6
CONTINUOUS
10
1.02532
20
1.11905
11
1.02224
21
1.12828
0
LINE
8
BLACK
6
CONTINUOUS
10
1.02224
20
1.12828
11
1.00775
21
1.12828
0
LINE
8
BLACK
6
CONTINUOUS
10
1.00775
20
1.12828
11
1.00468
21
1.11905
0
LINE
8
BLACK
6
CONTINUOUS
10
1.00468
20
1.11905
11
1.00419
21
1.11815
0
LINE
8
BLACK
6
CONTINUOUS
10
1.00419
20
1.11815
11
1.00247
21
1.11709
0
LINE
8
BLACK
6
CONTINUOUS
10
1.00247
20
1.11709
11
1.00047
21
1.11739
0
LINE
8
BLACK
6
CONTINUOUS
10
1.00047
20
1.11739
11
0.999129
21
1.1189
0
LINE
8
BLACK
6
CONTINUOUS
10
0.999129
20
1.1189
11
0.999074
21
1.12092
0
LINE
8
BLACK
6
CONTINUOUS
10
0.999074
20
1.12092
11
1.0122
21
1.16029
0
LINE
8
BLACK
6
CONTINUOUS
10
1.0122
20
1.16029
11
1.01269
21
1.16119
0
LINE
8
BLACK
6
CONTINUOUS
10
1.01269
20
1.16119
11
1.01276
21
1.16124
0
LINE
8
BLACK
6
CONTINUOUS
10
1.01276
20
1.16124
11
1.01279
21
1.16131
0
LINE
8
BLACK
6
CONTINUOUS
10
1.01279
20
1.16131
11
1.01361
21
1.16176
0
LINE
8
BLACK
6
CONTINUOUS
10
1.01361
20
1.16176
11
1.01441
21
1.16225
0
LINE
8
BLACK
6
CONTINUOUS
10
1.01441
20
1.16225
11
1.01449
21
1.16224
0
LINE
8
BLACK
6
CONTINUOUS
10
1.01449
20
1.16224
11
1.01456
21
1.16228
0
LINE
8
BLACK
6
CONTINUOUS
10
1.01456
20
1.16228
11
1.01548
21
1.16209
0
LINE
8
BLACK
6
CONTINUOUS
10
1.00972
20
1.13419
11
1.02028
21
1.13419
0
LINE
8
BLACK
6
CONTINUOUS
10
1.02028
20
1.13419
11
1.015
21
1.15002
0
LINE
8
BLACK
6
CONTINUOUS
10
1.015
20
1.15002
11
1.00972
21
1.13419
0
LINE
8
BLACK
6
CONTINUOUS
10
0.71141
20
1.16219
11
0.711799
21
1.16226
0
LINE
8
BLACK
6
CONTINUOUS
10
0.711799
20
1.16226
11
0.712357
21
1.16194
0
LINE
8
BLACK
6
CONTINUOUS
10
0.712357
20
1.16194
11
0.71298
21
1.16177
0
LINE
8
BLACK
6
CONTINUOUS
10
0.71298
20
1.16177
11
0.713207
21
1.16145
0
LINE
8
BLACK
6
CONTINUOUS
10
0.713207
20
1.16145
11
0.713548
21
1.16125
0
LINE
8
BLACK
6
CONTINUOUS
10
0.713548
20
1.16125
11
0.713769
21
1.16065
0
LINE
8
BLACK
6
CONTINUOUS
10
0.713769
20
1.16065
11
0.714138
21
1.16012
0
LINE
8
BLACK
6
CONTINUOUS
10
0.714138
20
1.16012
11
0.714104
21
1.15973
0
LINE
8
BLACK
6
CONTINUOUS
10
0.714104
20
1.15973
11
0.714239
21
1.15936
0
LINE
8
BLACK
6
CONTINUOUS
10
0.714239
20
1.15936
11
0.714239
21
1.11999
0
LINE
8
BLACK
6
CONTINUOUS
10
0.714239
20
1.11999
11
0.714061
21
1.11898
0
LINE
8
BLACK
6
CONTINUOUS
10
0.714061
20
1.11898
11
0.712762
21
1.11743
0
LINE
8
BLACK
6
CONTINUOUS
10
0.712762
20
1.11743
11
0.710773
21
1.11708
0
LINE
8
BLACK
6
CONTINUOUS
10
0.710773
20
1.11708
11
0.709024
21
1.11809
0
LINE
8
BLACK
6
CONTINUOUS
10
0.709024
20
1.11809
11
0.708333
21
1.11999
0
LINE
8
BLACK
6
CONTINUOUS
10
0.708333
20
1.11999
11
0.708333
21
1.14605
0
LINE
8
BLACK
6
CONTINUOUS
10
0.708333
20
1.14605
11
0.700838
21
1.12998
0
LINE
8
BLACK
6
CONTINUOUS
10
0.700838
20
1.12998
11
0.700616
21
1.12967
0
LINE
8
BLACK
6
CONTINUOUS
10
0.700616
20
1.12967
11
0.700582
21
1.12954
0
LINE
8
BLACK
6
CONTINUOUS
10
0.700582
20
1.12954
11
0.700474
21
1.12947
0
LINE
8
BLACK
6
CONTINUOUS
10
0.700474
20
1.12947
11
0.70025
21
1.12915
0
LINE
8
BLACK
6
CONTINUOUS
10
0.70025
20
1.12915
11
0.699556
21
1.12882
0
LINE
8
BLACK
6
CONTINUOUS
10
0.699556
20
1.12882
11
0.698928
21
1.12838
0
LINE
8
BLACK
6
CONTINUOUS
10
0.698928
20
1.12838
11
0.698661
21
1.1284
0
LINE
8
BLACK
6
CONTINUOUS
10
0.698661
20
1.1284
11
0.698419
21
1.12829
0
LINE
8
BLACK
6
CONTINUOUS
10
0.698419
20
1.12829
11
0.697679
21
1.12849
0
LINE
8
BLACK
6
CONTINUOUS
10
0.697679
20
1.12849
11
0.696916
21
1.12856
0
LINE
8
BLACK
6
CONTINUOUS
10
0.696916
20
1.12856
11
0.696727
21
1.12875
0
LINE
8
BLACK
6
CONTINUOUS
10
0.696727
20
1.12875
11
0.696468
21
1.12882
0
LINE
8
BLACK
6
CONTINUOUS
10
0.696468
20
1.12882
11
0.696029
21
1.12944
0
LINE
8
BLACK
6
CONTINUOUS
10
0.696029
20
1.12944
11
0.695487
21
1.12998
0
LINE
8
BLACK
6
CONTINUOUS
10
0.695487
20
1.12998
11
0.687992
21
1.14605
0
LINE
8
BLACK
6
CONTINUOUS
10
0.687992
20
1.14605
11
0.687992
21
1.11999
0
LINE
8
BLACK
6
CONTINUOUS
10
0.687992
20
1.11999
11
0.687814
21
1.11898
0
LINE
8
BLACK
6
CONTINUOUS
10
0.687814
20
1.11898
11
0.686516
21
1.11743
0
LINE
8
BLACK
6
CONTINUOUS
10
0.686516
20
1.11743
11
0.684527
21
1.11708
0
LINE
8
BLACK
6
CONTINUOUS
10
0.684527
20
1.11708
11
0.682777
21
1.11809
0
LINE
8
BLACK
6
CONTINUOUS
10
0.682777
20
1.11809
11
0.682087
21
1.11999
0
LINE
8
BLACK
6
CONTINUOUS
10
0.682087
20
1.11999
11
0.682087
21
1.15936
0
LINE
8
BLACK
6
CONTINUOUS
10
0.682087
20
1.15936
11
0.682265
21
1.16037
0
LINE
8
BLACK
6
CONTINUOUS
10
0.682265
20
1.16037
11
0.682518
21
1.16067
0
LINE
8
BLACK
6
CONTINUOUS
10
0.682518
20
1.16067
11
0.68262
21
1.16105
0
LINE
8
BLACK
6
CONTINUOUS
10
0.68262
20
1.16105
11
0.683148
21
1.16142
0
LINE
8
BLACK
6
CONTINUOUS
10
0.683148
20
1.16142
11
0.683563
21
1.16191
0
LINE
8
BLACK
6
CONTINUOUS
10
0.683563
20
1.16191
11
0.683951
21
1.16198
0
LINE
8
BLACK
6
CONTINUOUS
10
0.683951
20
1.16198
11
0.684274
21
1.16221
0
LINE
8
BLACK
6
CONTINUOUS
10
0.684274
20
1.16221
11
0.684917
21
1.16215
0
LINE
8
BLACK
6
CONTINUOUS
10
0.684917
20
1.16215
11
0.685552
21
1.16226
0
LINE
8
BLACK
6
CONTINUOUS
10
0.685552
20
1.16226
11
0.685894
21
1.16207
0
LINE
8
BLACK
6
CONTINUOUS
10
0.685894
20
1.16207
11
0.686286
21
1.16203
0
LINE
8
BLACK
6
CONTINUOUS
10
0.686286
20
1.16203
11
0.686743
21
1.16158
0
LINE
8
BLACK
6
CONTINUOUS
10
0.686743
20
1.16158
11
0.687301
21
1.16125
0
LINE
8
BLACK
6
CONTINUOUS
10
0.687301
20
1.16125
11
0.687436
21
1.16088
0
LINE
8
BLACK
6
CONTINUOUS
10
0.687436
20
1.16088
11
0.687715
21
1.1606
0
LINE
8
BLACK
6
CONTINUOUS
10
0.687715
20
1.1606
11
0.698163
21
1.13822
0
LINE
8
BLACK
6
CONTINUOUS
10
0.698163
20
1.13822
11
0.70861
21
1.1606
0
LINE
8
BLACK
6
CONTINUOUS
10
0.70861
20
1.1606
11
0.709199
21
1.16144
0
LINE
8
BLACK
6
CONTINUOUS
10
0.709199
20
1.16144
11
0.709556
21
1.16161
0
LINE
8
BLACK
6
CONTINUOUS
10
0.709556
20
1.16161
11
0.70981
21
1.16191
0
LINE
8
BLACK
6
CONTINUOUS
10
0.70981
20
1.16191
11
0.710445
21
1.16202
0
LINE
8
BLACK
6
CONTINUOUS
10
0.710445
20
1.16202
11
0.71103
21
1.1623
0
LINE
8
BLACK
6
CONTINUOUS
10
0.71103
20
1.1623
11
0.71141
21
1.16219
0
LINE
8
BLACK
6
CONTINUOUS
10
1.33847
20
1.14901
11
1.3386
21
1.14889
0
LINE
8
BLACK
6
CONTINUOUS
10
1.3386
20
1.14889
11
1.33878
21
1.14887
0
LINE
8
BLACK
6
CONTINUOUS
10
1.33878
20
1.14887
11
1.34253
21
1.147
0
LINE
8
BLACK
6
CONTINUOUS
10
1.34253
20
1.147
11
1.34335
21
1.14639
0
LINE
8
BLACK
6
CONTINUOUS
10
1.34335
20
1.14639
11
1.34353
21
1.14598
0
LINE
8
BLACK
6
CONTINUOUS
10
1.34353
20
1.14598
11
1.34385
21
1.14568
0
LINE
8
BLACK
6
CONTINUOUS
10
1.34385
20
1.14568
11
1.34572
21
1.14193
0
LINE
8
BLACK
6
CONTINUOUS
10
1.34572
20
1.14193
11
1.34602
21
1.14095
0
LINE
8
BLACK
6
CONTINUOUS
10
1.34602
20
1.14095
11
1.34597
21
1.14077
0
LINE
8
BLACK
6
CONTINUOUS
10
1.34597
20
1.14077
11
1.34603
21
1.14061
0
LINE
8
BLACK
6
CONTINUOUS
10
1.34603
20
1.14061
11
1.34603
21
1.11999
0
LINE
8
BLACK
6
CONTINUOUS
10
1.34603
20
1.11999
11
1.34586
21
1.11898
0
LINE
8
BLACK
6
CONTINUOUS
10
1.34586
20
1.11898
11
1.34456
21
1.11743
0
LINE
8
BLACK
6
CONTINUOUS
10
1.34456
20
1.11743
11
1.34257
21
1.11708
0
LINE
8
BLACK
6
CONTINUOUS
10
1.34257
20
1.11708
11
1.34082
21
1.11809
0
LINE
8
BLACK
6
CONTINUOUS
10
1.34082
20
1.11809
11
1.34013
21
1.11999
0
LINE
8
BLACK
6
CONTINUOUS
10
1.34013
20
1.11999
11
1.34013
21
1.13991
0
LINE
8
BLACK
6
CONTINUOUS
10
1.34013
20
1.13991
11
1.33901
21
1.14216
0
LINE
8
BLACK
6
CONTINUOUS
10
1.33901
20
1.14216
11
1.33676
21
1.14328
0
LINE
8
BLACK
6
CONTINUOUS
10
1.33676
20
1.14328
11
1.33253
21
1.14328
0
LINE
8
BLACK
6
CONTINUOUS
10
1.33253
20
1.14328
11
1.32983
21
1.14193
0
LINE
8
BLACK
6
CONTINUOUS
10
1.32983
20
1.14193
11
1.32916
21
1.14126
0
LINE
8
BLACK
6
CONTINUOUS
10
1.32916
20
1.14126
11
1.32916
21
1.11999
0
LINE
8
BLACK
6
CONTINUOUS
10
1.32916
20
1.11999
11
1.32898
21
1.11898
0
LINE
8
BLACK
6
CONTINUOUS
10
1.32898
20
1.11898
11
1.32769
21
1.11743
0
LINE
8
BLACK
6
CONTINUOUS
10
1.32769
20
1.11743
11
1.3257
21
1.11708
0
LINE
8
BLACK
6
CONTINUOUS
10
1.3257
20
1.11708
11
1.32395
21
1.11809
0
LINE
8
BLACK
6
CONTINUOUS
10
1.32395
20
1.11809
11
1.32326
21
1.11999
0
LINE
8
BLACK
6
CONTINUOUS
10
1.32326
20
1.11999
11
1.32326
21
1.14623
0
LINE
8
BLACK
6
CONTINUOUS
10
1.32326
20
1.14623
11
1.32343
21
1.14724
0
LINE
8
BLACK
6
CONTINUOUS
10
1.32343
20
1.14724
11
1.32473
21
1.14879
0
LINE
8
BLACK
6
CONTINUOUS
10
1.32473
20
1.14879
11
1.32672
21
1.14914
0
LINE
8
BLACK
6
CONTINUOUS
10
1.32672
20
1.14914
11
1.32847
21
1.14813
0
LINE
8
BLACK
6
CONTINUOUS
10
1.32847
20
1.14813
11
1.32856
21
1.14789
0
LINE
8
BLACK
6
CONTINUOUS
10
1.32856
20
1.14789
11
1.33051
21
1.14887
0
LINE
8
BLACK
6
CONTINUOUS
10
1.33051
20
1.14887
11
1.3315
21
1.14917
0
LINE
8
BLACK
6
CONTINUOUS
10
1.3315
20
1.14917
11
1.33167
21
1.14912
0
LINE
8
BLACK
6
CONTINUOUS
10
1.33167
20
1.14912
11
1.33183
21
1.14918
0
LINE
8
BLACK
6
CONTINUOUS
10
1.33183
20
1.14918
11
1.33746
21
1.14918
0
LINE
8
BLACK
6
CONTINUOUS
10
1.33746
20
1.14918
11
1.33847
21
1.14901
0
LINE
8
BLACK
6
CONTINUOUS
10
1.2741
20
1.14813
11
1.27479
21
1.14623
0
LINE
8
BLACK
6
CONTINUOUS
10
1.27479
20
1.14623
11
1.27479
21
1.11999
0
LINE
8
BLACK
6
CONTINUOUS
10
1.27479
20
1.11999
11
1.27462
21
1.11898
0
LINE
8
BLACK
6
CONTINUOUS
10
1.27462
20
1.11898
11
1.27332
21
1.11743
0
LINE
8
BLACK
6
CONTINUOUS
10
1.27332
20
1.11743
11
1.27133
21
1.11708
0
LINE
8
BLACK
6
CONTINUOUS
10
1.27133
20
1.11708
11
1.26958
21
1.11809
0
LINE
8
BLACK
6
CONTINUOUS
10
1.26958
20
1.11809
11
1.26889
21
1.11999
0
LINE
8
BLACK
6
CONTINUOUS
10
1.26889
20
1.11999
11
1.26889
21
1.14623
0
LINE
8
BLACK
6
CONTINUOUS
10
1.26889
20
1.14623
11
1.26907
21
1.14724
0
LINE
8
BLACK
6
CONTINUOUS
10
1.26907
20
1.14724
11
1.27036
21
1.14879
0
LINE
8
BLACK
6
CONTINUOUS
10
1.27036
20
1.14879
11
1.27235
21
1.14914
0
LINE
8
BLACK
6
CONTINUOUS
10
1.27235
20
1.14914
11
1.2741
21
1.14813
0
LINE
8
BLACK
6
CONTINUOUS
10
1.106
20
1.16213
11
1.10613
21
1.16202
0
LINE
8
BLACK
6
CONTINUOUS
10
1.10613
20
1.16202
11
1.10631
21
1.162
0
LINE
8
BLACK
6
CONTINUOUS
10
1.10631
20
1.162
11
1.11006
21
1.16012
0
LINE
8
BLACK
6
CONTINUOUS
10
1.11006
20
1.16012
11
1.11077
21
1.1596
0
LINE
8
BLACK
6
CONTINUOUS
10
1.11077
20
1.1596
11
1.11082
21
1.15957
0
LINE
8
BLACK
6
CONTINUOUS
10
1.11082
20
1.15957
11
1.1127
21
1.15769
0
LINE
8
BLACK
6
CONTINUOUS
10
1.1127
20
1.15769
11
1.11321
21
1.15697
0
LINE
8
BLACK
6
CONTINUOUS
10
1.11321
20
1.15697
11
1.11325
21
1.15693
0
LINE
8
BLACK
6
CONTINUOUS
10
1.11325
20
1.15693
11
1.11513
21
1.15318
0
LINE
8
BLACK
6
CONTINUOUS
10
1.11513
20
1.15318
11
1.11542
21
1.15219
0
LINE
8
BLACK
6
CONTINUOUS
10
1.11542
20
1.15219
11
1.11538
21
1.15202
0
LINE
8
BLACK
6
CONTINUOUS
10
1.11538
20
1.15202
11
1.11544
21
1.15186
0
LINE
8
BLACK
6
CONTINUOUS
10
1.11544
20
1.15186
11
1.11544
21
1.14623
0
LINE
8
BLACK
6
CONTINUOUS
10
1.11544
20
1.14623
11
1.11526
21
1.14522
0
LINE
8
BLACK
6
CONTINUOUS
10
1.11526
20
1.14522
11
1.11515
21
1.14509
0
LINE
8
BLACK
6
CONTINUOUS
10
1.11515
20
1.14509
11
1.11513
21
1.14491
0
LINE
8
BLACK
6
CONTINUOUS
10
1.11513
20
1.14491
11
1.11325
21
1.14116
0
LINE
8
BLACK
6
CONTINUOUS
10
1.11325
20
1.14116
11
1.11273
21
1.14045
0
LINE
8
BLACK
6
CONTINUOUS
10
1.11273
20
1.14045
11
1.1127
21
1.14039
0
LINE
8
BLACK
6
CONTINUOUS
10
1.1127
20
1.14039
11
1.11082
21
1.13852
0
LINE
8
BLACK
6
CONTINUOUS
10
1.11082
20
1.13852
11
1.1101
21
1.13801
0
LINE
8
BLACK
6
CONTINUOUS
10
1.1101
20
1.13801
11
1.11006
21
1.13797
0
LINE
8
BLACK
6
CONTINUOUS
10
1.11006
20
1.13797
11
1.10631
21
1.13609
0
LINE
8
BLACK
6
CONTINUOUS
10
1.10631
20
1.13609
11
1.10532
21
1.1358
0
LINE
8
BLACK
6
CONTINUOUS
10
1.10532
20
1.1358
11
1.10515
21
1.13584
0
LINE
8
BLACK
6
CONTINUOUS
10
1.10515
20
1.13584
11
1.10499
21
1.13578
0
LINE
8
BLACK
6
CONTINUOUS
10
1.10499
20
1.13578
11
1.09294
21
1.13578
0
LINE
8
BLACK
6
CONTINUOUS
10
1.09294
20
1.13578
11
1.09294
21
1.11999
0
LINE
8
BLACK
6
CONTINUOUS
10
1.09294
20
1.11999
11
1.09276
21
1.11898
0
LINE
8
BLACK
6
CONTINUOUS
10
1.09276
20
1.11898
11
1.09147
21
1.11743
0
LINE
8
BLACK
6
CONTINUOUS
10
1.09147
20
1.11743
11
1.08948
21
1.11708
0
LINE
8
BLACK
6
CONTINUOUS
10
1.08948
20
1.11708
11
1.08773
21
1.11809
0
LINE
8
BLACK
6
CONTINUOUS
10
1.08773
20
1.11809
11
1.08704
21
1.11999
0
LINE
8
BLACK
6
CONTINUOUS
10
1.08704
20
1.11999
11
1.08704
21
1.15936
0
LINE
8
BLACK
6
CONTINUOUS
10
1.08704
20
1.15936
11
1.0871
21
1.15974
0
LINE
8
BLACK
6
CONTINUOUS
10
1.0871
20
1.15974
11
1.08708
21
1.15987
0
LINE
8
BLACK
6
CONTINUOUS
10
1.08708
20
1.15987
11
1.08715
21
1.15998
0
LINE
8
BLACK
6
CONTINUOUS
10
1.08715
20
1.15998
11
1.08721
21
1.16037
0
LINE
8
BLACK
6
CONTINUOUS
10
1.08721
20
1.16037
11
1.08771
21
1.16095
0
LINE
8
BLACK
6
CONTINUOUS
10
1.08771
20
1.16095
11
1.08809
21
1.16162
0
LINE
8
BLACK
6
CONTINUOUS
10
1.08809
20
1.16162
11
1.08834
21
1.16171
0
LINE
8
BLACK
6
CONTINUOUS
10
1.08834
20
1.16171
11
1.08851
21
1.16191
0
LINE
8
BLACK
6
CONTINUOUS
10
1.08851
20
1.16191
11
1.08927
21
1.16205
0
LINE
8
BLACK
6
CONTINUOUS
10
1.08927
20
1.16205
11
1.08999
21
1.16231
0
LINE
8
BLACK
6
CONTINUOUS
10
1.08999
20
1.16231
11
1.10499
21
1.16231
0
LINE
8
BLACK
6
CONTINUOUS
10
1.10499
20
1.16231
11
1.106
21
1.16213
0
LINE
8
BLACK
6
CONTINUOUS
10
1.09294
20
1.1564
11
1.09294
21
1.14169
0
LINE
8
BLACK
6
CONTINUOUS
10
1.09294
20
1.14169
11
1.10429
21
1.14169
0
LINE
8
BLACK
6
CONTINUOUS
10
1.10429
20
1.14169
11
1.10699
21
1.14303
0
LINE
8
BLACK
6
CONTINUOUS
10
1.10699
20
1.14303
11
1.10818
21
1.14423
0
LINE
8
BLACK
6
CONTINUOUS
10
1.10818
20
1.14423
11
1.10953
21
1.14693
0
LINE
8
BLACK
6
CONTINUOUS
10
1.10953
20
1.14693
11
1.10953
21
1.15116
0
LINE
8
BLACK
6
CONTINUOUS
10
1.10953
20
1.15116
11
1.10818
21
1.15386
0
LINE
8
BLACK
6
CONTINUOUS
10
1.10818
20
1.15386
11
1.10699
21
1.15505
0
LINE
8
BLACK
6
CONTINUOUS
10
1.10699
20
1.15505
11
1.10429
21
1.1564
0
LINE
8
BLACK
6
CONTINUOUS
10
1.10429
20
1.1564
11
1.09294
21
1.1564
0
LINE
8
BLACK
6
CONTINUOUS
10
1.14162
20
1.14901
11
1.14316
21
1.14771
0
LINE
8
BLACK
6
CONTINUOUS
10
1.14316
20
1.14771
11
1.14352
21
1.14572
0
LINE
8
BLACK
6
CONTINUOUS
10
1.14352
20
1.14572
11
1.14251
21
1.14397
0
LINE
8
BLACK
6
CONTINUOUS
10
1.14251
20
1.14397
11
1.14061
21
1.14328
0
LINE
8
BLACK
6
CONTINUOUS
10
1.14061
20
1.14328
11
1.13755
21
1.14328
0
LINE
8
BLACK
6
CONTINUOUS
10
1.13755
20
1.14328
11
1.13486
21
1.14193
0
LINE
8
BLACK
6
CONTINUOUS
10
1.13486
20
1.14193
11
1.13366
21
1.14073
0
LINE
8
BLACK
6
CONTINUOUS
10
1.13366
20
1.14073
11
1.13231
21
1.13804
0
LINE
8
BLACK
6
CONTINUOUS
10
1.13231
20
1.13804
11
1.13231
21
1.11999
0
LINE
8
BLACK
6
CONTINUOUS
10
1.13231
20
1.11999
11
1.13213
21
1.11898
0
LINE
8
BLACK
6
CONTINUOUS
10
1.13213
20
1.11898
11
1.13084
21
1.11743
0
LINE
8
BLACK
6
CONTINUOUS
10
1.13084
20
1.11743
11
1.12885
21
1.11708
0
LINE
8
BLACK
6
CONTINUOUS
10
1.12885
20
1.11708
11
1.1271
21
1.11809
0
LINE
8
BLACK
6
CONTINUOUS
10
1.1271
20
1.11809
11
1.12641
21
1.11999
0
LINE
8
BLACK
6
CONTINUOUS
10
1.12641
20
1.11999
11
1.12641
21
1.14623
0
LINE
8
BLACK
6
CONTINUOUS
10
1.12641
20
1.14623
11
1.12658
21
1.14724
0
LINE
8
BLACK
6
CONTINUOUS
10
1.12658
20
1.14724
11
1.12788
21
1.14879
0
LINE
8
BLACK
6
CONTINUOUS
10
1.12788
20
1.14879
11
1.12987
21
1.14914
0
LINE
8
BLACK
6
CONTINUOUS
10
1.12987
20
1.14914
11
1.13162
21
1.14813
0
LINE
8
BLACK
6
CONTINUOUS
10
1.13162
20
1.14813
11
1.13199
21
1.1471
0
LINE
8
BLACK
6
CONTINUOUS
10
1.13199
20
1.1471
11
1.13554
21
1.14887
0
LINE
8
BLACK
6
CONTINUOUS
10
1.13554
20
1.14887
11
1.13652
21
1.14917
0
LINE
8
BLACK
6
CONTINUOUS
10
1.13652
20
1.14917
11
1.13669
21
1.14912
0
LINE
8
BLACK
6
CONTINUOUS
10
1.13669
20
1.14912
11
1.13686
21
1.14918
0
LINE
8
BLACK
6
CONTINUOUS
10
1.13686
20
1.14918
11
1.14061
21
1.14918
0
LINE
8
BLACK
6
CONTINUOUS
10
1.14061
20
1.14918
11
1.14162
21
1.14901
0
LINE
8
BLACK
6
CONTINUOUS
10
1.22348
20
1.14813
11
1.22418
21
1.14623
0
LINE
8
BLACK
6
CONTINUOUS
10
1.22418
20
1.14623
11
1.22418
21
1.11999
0
LINE
8
BLACK
6
CONTINUOUS
10
1.22418
20
1.11999
11
1.224
21
1.11898
0
LINE
8
BLACK
6
CONTINUOUS
10
1.224
20
1.11898
11
1.2227
21
1.11743
0
LINE
8
BLACK
6
CONTINUOUS
10
1.2227
20
1.11743
11
1.22071
21
1.11708
0
LINE
8
BLACK
6
CONTINUOUS
10
1.22071
20
1.11708
11
1.21896
21
1.11809
0
LINE
8
BLACK
6
CONTINUOUS
10
1.21896
20
1.11809
11
1.21827
21
1.11999
0
LINE
8
BLACK
6
CONTINUOUS
10
1.21827
20
1.11999
11
1.21827
21
1.14623
0
LINE
8
BLACK
6
CONTINUOUS
10
1.21827
20
1.14623
11
1.21845
21
1.14724
0
LINE
8
BLACK
6
CONTINUOUS
10
1.21845
20
1.14724
11
1.21975
21
1.14879
0
LINE
8
BLACK
6
CONTINUOUS
10
1.21975
20
1.14879
11
1.22174
21
1.14914
0
LINE
8
BLACK
6
CONTINUOUS
10
1.22174
20
1.14914
11
1.22348
21
1.14813
0
LINE
8
BLACK
6
CONTINUOUS
10
1.49533
20
1.16125
11
1.49602
21
1.15936
0
LINE
8
BLACK
6
CONTINUOUS
10
1.49602
20
1.15936
11
1.49602
21
1.13836
0
LINE
8
BLACK
6
CONTINUOUS
10
1.49602
20
1.13836
11
1.50597
21
1.14832
0
LINE
8
BLACK
6
CONTINUOUS
10
1.50597
20
1.14832
11
1.50681
21
1.14891
0
LINE
8
BLACK
6
CONTINUOUS
10
1.50681
20
1.14891
11
1.50883
21
1.14908
0
LINE
8
BLACK
6
CONTINUOUS
10
1.50883
20
1.14908
11
1.51048
21
1.14793
0
LINE
8
BLACK
6
CONTINUOUS
10
1.51048
20
1.14793
11
1.511
21
1.14597
0
LINE
8
BLACK
6
CONTINUOUS
10
1.511
20
1.14597
11
1.51015
21
1.14414
0
LINE
8
BLACK
6
CONTINUOUS
10
1.51015
20
1.14414
11
1.50071
21
1.13471
0
LINE
8
BLACK
6
CONTINUOUS
10
1.50071
20
1.13471
11
1.51042
21
1.12176
0
LINE
8
BLACK
6
CONTINUOUS
10
1.51042
20
1.12176
11
1.51089
21
1.12084
0
LINE
8
BLACK
6
CONTINUOUS
10
1.51089
20
1.12084
11
1.51078
21
1.11883
0
LINE
8
BLACK
6
CONTINUOUS
10
1.51078
20
1.11883
11
1.5094
21
1.11735
0
LINE
8
BLACK
6
CONTINUOUS
10
1.5094
20
1.11735
11
1.50739
21
1.11711
0
LINE
8
BLACK
6
CONTINUOUS
10
1.50739
20
1.11711
11
1.5057
21
1.11821
0
LINE
8
BLACK
6
CONTINUOUS
10
1.5057
20
1.11821
11
1.49649
21
1.13049
0
LINE
8
BLACK
6
CONTINUOUS
10
1.49649
20
1.13049
11
1.49602
21
1.13001
0
LINE
8
BLACK
6
CONTINUOUS
10
1.49602
20
1.13001
11
1.49602
21
1.11999
0
LINE
8
BLACK
6
CONTINUOUS
10
1.49602
20
1.11999
11
1.49584
21
1.11898
0
LINE
8
BLACK
6
CONTINUOUS
10
1.49584
20
1.11898
11
1.49454
21
1.11743
0
LINE
8
BLACK
6
CONTINUOUS
10
1.49454
20
1.11743
11
1.49255
21
1.11708
0
LINE
8
BLACK
6
CONTINUOUS
10
1.49255
20
1.11708
11
1.4908
21
1.11809
0
LINE
8
BLACK
6
CONTINUOUS
10
1.4908
20
1.11809
11
1.49011
21
1.11999
0
LINE
8
BLACK
6
CONTINUOUS
10
1.49011
20
1.11999
11
1.49011
21
1.15936
0
LINE
8
BLACK
6
CONTINUOUS
10
1.49011
20
1.15936
11
1.49029
21
1.16037
0
LINE
8
BLACK
6
CONTINUOUS
10
1.49029
20
1.16037
11
1.49159
21
1.16191
0
LINE
8
BLACK
6
CONTINUOUS
10
1.49159
20
1.16191
11
1.49358
21
1.16226
0
LINE
8
BLACK
6
CONTINUOUS
10
1.49358
20
1.16226
11
1.49533
21
1.16125
0
LINE
8
BLACK
6
CONTINUOUS
10
0.873526
20
1.13776
11
0.875073
21
1.13646
0
LINE
8
BLACK
6
CONTINUOUS
10
0.875073
20
1.13646
11
0.875424
21
1.13447
0
LINE
8
BLACK
6
CONTINUOUS
10
0.875424
20
1.13447
11
0.874414
21
1.13272
0
LINE
8
BLACK
6
CONTINUOUS
10
0.874414
20
1.13272
11
0.872516
21
1.13203
0
LINE
8
BLACK
6
CONTINUOUS
10
0.872516
20
1.13203
11
0.84252
21
1.13203
0
LINE
8
BLACK
6
CONTINUOUS
10
0.84252
20
1.13203
11
0.84151
21
1.13221
0
LINE
8
BLACK
6
CONTINUOUS
10
0.84151
20
1.13221
11
0.839963
21
1.13351
0
LINE
8
BLACK
6
CONTINUOUS
10
0.839963
20
1.13351
11
0.839612
21
1.1355
0
LINE
8
BLACK
6
CONTINUOUS
10
0.839612
20
1.1355
11
0.840622
21
1.13725
0
LINE
8
BLACK
6
CONTINUOUS
10
0.840622
20
1.13725
11
0.84252
21
1.13794
0
LINE
8
BLACK
6
CONTINUOUS
10
0.84252
20
1.13794
11
0.872516
21
1.13794
0
LINE
8
BLACK
6
CONTINUOUS
10
0.872516
20
1.13794
11
0.873526
21
1.13776
0
LINE
8
BLACK
6
CONTINUOUS
10
1.27222
20
1.16224
11
1.27235
21
1.16226
0
LINE
8
BLACK
6
CONTINUOUS
10
1.27235
20
1.16226
11
1.27247
21
1.1622
0
LINE
8
BLACK
6
CONTINUOUS
10
1.27247
20
1.1622
11
1.27261
21
1.16221
0
LINE
8
BLACK
6
CONTINUOUS
10
1.27261
20
1.16221
11
1.27323
21
1.16177
0
LINE
8
BLACK
6
CONTINUOUS
10
1.27323
20
1.16177
11
1.27393
21
1.16144
0
LINE
8
BLACK
6
CONTINUOUS
10
1.27393
20
1.16144
11
1.2758
21
1.15957
0
LINE
8
BLACK
6
CONTINUOUS
10
1.2758
20
1.15957
11
1.27603
21
1.15925
0
LINE
8
BLACK
6
CONTINUOUS
10
1.27603
20
1.15925
11
1.27613
21
1.15917
0
LINE
8
BLACK
6
CONTINUOUS
10
1.27613
20
1.15917
11
1.27617
21
1.15905
0
LINE
8
BLACK
6
CONTINUOUS
10
1.27617
20
1.15905
11
1.27639
21
1.15873
0
LINE
8
BLACK
6
CONTINUOUS
10
1.27639
20
1.15873
11
1.27646
21
1.15796
0
LINE
8
BLACK
6
CONTINUOUS
10
1.27646
20
1.15796
11
1.27666
21
1.15722
0
LINE
8
BLACK
6
CONTINUOUS
10
1.27666
20
1.15722
11
1.27654
21
1.15698
0
LINE
8
BLACK
6
CONTINUOUS
10
1.27654
20
1.15698
11
1.27657
21
1.15672
0
LINE
8
BLACK
6
CONTINUOUS
10
1.27657
20
1.15672
11
1.27613
21
1.15609
0
LINE
8
BLACK
6
CONTINUOUS
10
1.27613
20
1.15609
11
1.2758
21
1.15539
0
LINE
8
BLACK
6
CONTINUOUS
10
1.2758
20
1.15539
11
1.27393
21
1.15352
0
LINE
8
BLACK
6
CONTINUOUS
10
1.27393
20
1.15352
11
1.27361
21
1.15329
0
LINE
8
BLACK
6
CONTINUOUS
10
1.27361
20
1.15329
11
1.27353
21
1.15319
0
LINE
8
BLACK
6
CONTINUOUS
10
1.27353
20
1.15319
11
1.27341
21
1.15315
0
LINE
8
BLACK
6
CONTINUOUS
10
1.27341
20
1.15315
11
1.2734
21
1.15315
0
LINE
8
BLACK
6
CONTINUOUS
10
1.2734
20
1.15315
11
1.27332
21
1.15305
0
LINE
8
BLACK
6
CONTINUOUS
10
1.27332
20
1.15305
11
1.27324
21
1.15303
0
LINE
8
BLACK
6
CONTINUOUS
10
1.27324
20
1.15303
11
1.27309
21
1.15293
0
LINE
8
BLACK
6
CONTINUOUS
10
1.27309
20
1.15293
11
1.27232
21
1.15286
0
LINE
8
BLACK
6
CONTINUOUS
10
1.27232
20
1.15286
11
1.27158
21
1.15266
0
LINE
8
BLACK
6
CONTINUOUS
10
1.27158
20
1.15266
11
1.27146
21
1.15272
0
LINE
8
BLACK
6
CONTINUOUS
10
1.27146
20
1.15272
11
1.27133
21
1.1527
0
LINE
8
BLACK
6
CONTINUOUS
10
1.27133
20
1.1527
11
1.27121
21
1.15277
0
LINE
8
BLACK
6
CONTINUOUS
10
1.27121
20
1.15277
11
1.27108
21
1.15275
0
LINE
8
BLACK
6
CONTINUOUS
10
1.27108
20
1.15275
11
1.27045
21
1.15319
0
LINE
8
BLACK
6
CONTINUOUS
10
1.27045
20
1.15319
11
1.26975
21
1.15352
0
LINE
8
BLACK
6
CONTINUOUS
10
1.26975
20
1.15352
11
1.26788
21
1.15539
0
LINE
8
BLACK
6
CONTINUOUS
10
1.26788
20
1.15539
11
1.26765
21
1.15571
0
LINE
8
BLACK
6
CONTINUOUS
10
1.26765
20
1.15571
11
1.26755
21
1.15579
0
LINE
8
BLACK
6
CONTINUOUS
10
1.26755
20
1.15579
11
1.26751
21
1.15591
0
LINE
8
BLACK
6
CONTINUOUS
10
1.26751
20
1.15591
11
1.26729
21
1.15623
0
LINE
8
BLACK
6
CONTINUOUS
10
1.26729
20
1.15623
11
1.26722
21
1.157
0
LINE
8
BLACK
6
CONTINUOUS
10
1.26722
20
1.157
11
1.26702
21
1.15774
0
LINE
8
BLACK
6
CONTINUOUS
10
1.26702
20
1.15774
11
1.26714
21
1.15798
0
LINE
8
BLACK
6
CONTINUOUS
10
1.26714
20
1.15798
11
1.26711
21
1.15824
0
LINE
8
BLACK
6
CONTINUOUS
10
1.26711
20
1.15824
11
1.26755
21
1.15887
0
LINE
8
BLACK
6
CONTINUOUS
10
1.26755
20
1.15887
11
1.26788
21
1.15957
0
LINE
8
BLACK
6
CONTINUOUS
10
1.26788
20
1.15957
11
1.26975
21
1.16144
0
LINE
8
BLACK
6
CONTINUOUS
10
1.26975
20
1.16144
11
1.27007
21
1.16167
0
LINE
8
BLACK
6
CONTINUOUS
10
1.27007
20
1.16167
11
1.27015
21
1.16177
0
LINE
8
BLACK
6
CONTINUOUS
10
1.27015
20
1.16177
11
1.27027
21
1.16181
0
LINE
8
BLACK
6
CONTINUOUS
10
1.27027
20
1.16181
11
1.27028
21
1.16181
0
LINE
8
BLACK
6
CONTINUOUS
10
1.27028
20
1.16181
11
1.27036
21
1.16191
0
LINE
8
BLACK
6
CONTINUOUS
10
1.27036
20
1.16191
11
1.27044
21
1.16193
0
LINE
8
BLACK
6
CONTINUOUS
10
1.27044
20
1.16193
11
1.27059
21
1.16203
0
LINE
8
BLACK
6
CONTINUOUS
10
1.27059
20
1.16203
11
1.27136
21
1.1621
0
LINE
8
BLACK
6
CONTINUOUS
10
1.27136
20
1.1621
11
1.2721
21
1.1623
0
LINE
8
BLACK
6
CONTINUOUS
10
1.2721
20
1.1623
11
1.27222
21
1.16224
0
LINE
8
BLACK
6
CONTINUOUS
10
1.2216
20
1.16224
11
1.22174
21
1.16226
0
LINE
8
BLACK
6
CONTINUOUS
10
1.22174
20
1.16226
11
1.22185
21
1.1622
0
LINE
8
BLACK
6
CONTINUOUS
10
1.22185
20
1.1622
11
1.22199
21
1.16221
0
LINE
8
BLACK
6
CONTINUOUS
10
1.22199
20
1.16221
11
1.22262
21
1.16177
0
LINE
8
BLACK
6
CONTINUOUS
10
1.22262
20
1.16177
11
1.22331
21
1.16144
0
LINE
8
BLACK
6
CONTINUOUS
10
1.22331
20
1.16144
11
1.22518
21
1.15957
0
LINE
8
BLACK
6
CONTINUOUS
10
1.22518
20
1.15957
11
1.22541
21
1.15925
0
LINE
8
BLACK
6
CONTINUOUS
10
1.22541
20
1.15925
11
1.22552
21
1.15917
0
LINE
8
BLACK
6
CONTINUOUS
10
1.22552
20
1.15917
11
1.22555
21
1.15905
0
LINE
8
BLACK
6
CONTINUOUS
10
1.22555
20
1.15905
11
1.22577
21
1.15873
0
LINE
8
BLACK
6
CONTINUOUS
10
1.22577
20
1.15873
11
1.22584
21
1.15796
0
LINE
8
BLACK
6
CONTINUOUS
10
1.22584
20
1.15796
11
1.22604
21
1.15722
0
LINE
8
BLACK
6
CONTINUOUS
10
1.22604
20
1.15722
11
1.22593
21
1.15698
0
LINE
8
BLACK
6
CONTINUOUS
10
1.22593
20
1.15698
11
1.22595
21
1.15672
0
LINE
8
BLACK
6
CONTINUOUS
10
1.22595
20
1.15672
11
1.22551
21
1.15609
0
LINE
8
BLACK
6
CONTINUOUS
10
1.22551
20
1.15609
11
1.22518
21
1.15539
0
LINE
8
BLACK
6
CONTINUOUS
10
1.22518
20
1.15539
11
1.22331
21
1.15352
0
LINE
8
BLACK
6
CONTINUOUS
10
1.22331
20
1.15352
11
1.22299
21
1.15329
0
LINE
8
BLACK
6
CONTINUOUS
10
1.22299
20
1.15329
11
1.22292
21
1.15319
0
LINE
8
BLACK
6
CONTINUOUS
10
1.22292
20
1.15319
11
1.22279
21
1.15315
0
LINE
8
BLACK
6
CONTINUOUS
10
1.22279
20
1.15315
11
1.22278
21
1.15315
0
LINE
8
BLACK
6
CONTINUOUS
10
1.22278
20
1.15315
11
1.2227
21
1.15305
0
LINE
8
BLACK
6
CONTINUOUS
10
1.2227
20
1.15305
11
1.22262
21
1.15303
0
LINE
8
BLACK
6
CONTINUOUS
10
1.22262
20
1.15303
11
1.22247
21
1.15293
0
LINE
8
BLACK
6
CONTINUOUS
10
1.22247
20
1.15293
11
1.22171
21
1.15286
0
LINE
8
BLACK
6
CONTINUOUS
10
1.22171
20
1.15286
11
1.22096
21
1.15266
0
LINE
8
BLACK
6
CONTINUOUS
10
1.22096
20
1.15266
11
1.22084
21
1.15272
0
LINE
8
BLACK
6
CONTINUOUS
10
1.22084
20
1.15272
11
1.22071
21
1.1527
0
LINE
8
BLACK
6
CONTINUOUS
10
1.22071
20
1.1527
11
1.22059
21
1.15277
0
LINE
8
BLACK
6
CONTINUOUS
10
1.22059
20
1.15277
11
1.22046
21
1.15275
0
LINE
8
BLACK
6
CONTINUOUS
10
1.22046
20
1.15275
11
1.21983
21
1.15319
0
LINE
8
BLACK
6
CONTINUOUS
10
1.21983
20
1.15319
11
1.21913
21
1.15352
0
LINE
8
BLACK
6
CONTINUOUS
10
1.21913
20
1.15352
11
1.21726
21
1.15539
0
LINE
8
BLACK
6
CONTINUOUS
10
1.21726
20
1.15539
11
1.21704
21
1.15571
0
LINE
8
BLACK
6
CONTINUOUS
10
1.21704
20
1.15571
11
1.21693
21
1.15579
0
LINE
8
BLACK
6
CONTINUOUS
10
1.21693
20
1.15579
11
1.21689
21
1.15591
0
LINE
8
BLACK
6
CONTINUOUS
10
1.21689
20
1.15591
11
1.21667
21
1.15623
0
LINE
8
BLACK
6
CONTINUOUS
10
1.21667
20
1.15623
11
1.2166
21
1.157
0
LINE
8
BLACK
6
CONTINUOUS
10
1.2166
20
1.157
11
1.21641
21
1.15774
0
LINE
8
BLACK
6
CONTINUOUS
10
1.21641
20
1.15774
11
1.21652
21
1.15798
0
LINE
8
BLACK
6
CONTINUOUS
10
1.21652
20
1.15798
11
1.2165
21
1.15824
0
LINE
8
BLACK
6
CONTINUOUS
10
1.2165
20
1.15824
11
1.21694
21
1.15887
0
LINE
8
BLACK
6
CONTINUOUS
10
1.21694
20
1.15887
11
1.21726
21
1.15957
0
LINE
8
BLACK
6
CONTINUOUS
10
1.21726
20
1.15957
11
1.21913
21
1.16144
0
LINE
8
BLACK
6
CONTINUOUS
10
1.21913
20
1.16144
11
1.21945
21
1.16167
0
LINE
8
BLACK
6
CONTINUOUS
10
1.21945
20
1.16167
11
1.21953
21
1.16177
0
LINE
8
BLACK
6
CONTINUOUS
10
1.21953
20
1.16177
11
1.21966
21
1.16181
0
LINE
8
BLACK
6
CONTINUOUS
10
1.21966
20
1.16181
11
1.21966
21
1.16181
0
LINE
8
BLACK
6
CONTINUOUS
10
1.21966
20
1.16181
11
1.21975
21
1.16191
0
LINE
8
BLACK
6
CONTINUOUS
10
1.21975
20
1.16191
11
1.21982
21
1.16193
0
LINE
8
BLACK
6
CONTINUOUS
10
1.21982
20
1.16193
11
1.21997
21
1.16203
0
LINE
8
BLACK
6
CONTINUOUS
10
1.21997
20
1.16203
11
1.22074
21
1.1621
0
LINE
8
BLACK
6
CONTINUOUS
10
1.22074
20
1.1621
11
1.22148
21
1.1623
0
LINE
8
BLACK
6
CONTINUOUS
10
1.22148
20
1.1623
11
1.2216
21
1.16224
0
LINE
8
BLACK
6
CONTINUOUS
10
0.881092
20
2.50328
11
0.881221
21
2.5033
0
LINE
8
BLACK
6
CONTINUOUS
10
0.881221
20
2.5033
11
0.881335
21
2.50324
0
LINE
8
BLACK
6
CONTINUOUS
10
0.881335
20
2.50324
11
0.881719
21
2.50317
0
LINE
8
BLACK
6
CONTINUOUS
10
0.881719
20
2.50317
11
0.882306
21
2.50268
0
LINE
8
BLACK
6
CONTINUOUS
10
0.882306
20
2.50268
11
0.882971
21
2.50229
0
LINE
8
BLACK
6
CONTINUOUS
10
0.882971
20
2.50229
11
0.883062
21
2.50204
0
LINE
8
BLACK
6
CONTINUOUS
10
0.883062
20
2.50204
11
0.883266
21
2.50187
0
LINE
8
BLACK
6
CONTINUOUS
10
0.883266
20
2.50187
11
0.883399
21
2.50111
0
LINE
8
BLACK
6
CONTINUOUS
10
0.883399
20
2.50111
11
0.883661
21
2.50039
0
LINE
8
BLACK
6
CONTINUOUS
10
0.883661
20
2.50039
11
0.883661
21
2.20039
0
LINE
8
BLACK
6
CONTINUOUS
10
0.883661
20
2.20039
11
0.883594
21
2.20001
0
LINE
8
BLACK
6
CONTINUOUS
10
0.883594
20
2.20001
11
0.883617
21
2.19988
0
LINE
8
BLACK
6
CONTINUOUS
10
0.883617
20
2.19988
11
0.883551
21
2.19977
0
LINE
8
BLACK
6
CONTINUOUS
10
0.883551
20
2.19977
11
0.883483
21
2.19938
0
LINE
8
BLACK
6
CONTINUOUS
10
0.883483
20
2.19938
11
0.88299
21
2.1988
0
LINE
8
BLACK
6
CONTINUOUS
10
0.88299
20
2.1988
11
0.882607
21
2.19813
0
LINE
8
BLACK
6
CONTINUOUS
10
0.882607
20
2.19813
11
0.882356
21
2.19804
0
LINE
8
BLACK
6
CONTINUOUS
10
0.882356
20
2.19804
11
0.882185
21
2.19784
0
LINE
8
BLACK
6
CONTINUOUS
10
0.882185
20
2.19784
11
0.881429
21
2.1977
0
LINE
8
BLACK
6
CONTINUOUS
10
0.881429
20
2.1977
11
0.880709
21
2.19744
0
LINE
8
BLACK
6
CONTINUOUS
10
0.880709
20
2.19744
11
0.780709
21
2.19744
0
LINE
8
BLACK
6
CONTINUOUS
10
0.780709
20
2.19744
11
0.780325
21
2.19751
0
LINE
8
BLACK
6
CONTINUOUS
10
0.780325
20
2.19751
11
0.780196
21
2.19749
0
LINE
8
BLACK
6
CONTINUOUS
10
0.780196
20
2.19749
11
0.780082
21
2.19755
0
LINE
8
BLACK
6
CONTINUOUS
10
0.780082
20
2.19755
11
0.779699
21
2.19762
0
LINE
8
BLACK
6
CONTINUOUS
10
0.779699
20
2.19762
11
0.779111
21
2.19811
0
LINE
8
BLACK
6
CONTINUOUS
10
0.779111
20
2.19811
11
0.778447
21
2.1985
0
LINE
8
BLACK
6
CONTINUOUS
10
0.778447
20
2.1985
11
0.778356
21
2.19875
0
LINE
8
BLACK
6
CONTINUOUS
10
0.778356
20
2.19875
11
0.778151
21
2.19892
0
LINE
8
BLACK
6
CONTINUOUS
10
0.778151
20
2.19892
11
0.778018
21
2.19967
0
LINE
8
BLACK
6
CONTINUOUS
10
0.778018
20
2.19967
11
0.777756
21
2.20039
0
LINE
8
BLACK
6
CONTINUOUS
10
0.777756
20
2.20039
11
0.777756
21
2.50039
0
LINE
8
BLACK
6
CONTINUOUS
10
0.777756
20
2.50039
11
0.777824
21
2.50078
0
LINE
8
BLACK
6
CONTINUOUS
10
0.777824
20
2.50078
11
0.777801
21
2.50091
0
LINE
8
BLACK
6
CONTINUOUS
10
0.777801
20
2.50091
11
0.777866
21
2.50102
0
LINE
8
BLACK
6
CONTINUOUS
10
0.777866
20
2.50102
11
0.777934
21
2.5014
0
LINE
8
BLACK
6
CONTINUOUS
10
0.777934
20
2.5014
11
0.778427
21
2.50199
0
LINE
8
BLACK
6
CONTINUOUS
10
0.778427
20
2.50199
11
0.778811
21
2.50266
0
LINE
8
BLACK
6
CONTINUOUS
10
0.778811
20
2.50266
11
0.779061
21
2.50275
0
LINE
8
BLACK
6
CONTINUOUS
10
0.779061
20
2.50275
11
0.779232
21
2.50295
0
LINE
8
BLACK
6
CONTINUOUS
10
0.779232
20
2.50295
11
0.779988
21
2.50308
0
LINE
8
BLACK
6
CONTINUOUS
10
0.779988
20
2.50308
11
0.780709
21
2.50335
0
LINE
8
BLACK
6
CONTINUOUS
10
0.780709
20
2.50335
11
0.880709
21
2.50335
0
LINE
8
BLACK
6
CONTINUOUS
10
0.880709
20
2.50335
11
0.881092
21
2.50328
0
LINE
8
BLACK
6
CONTINUOUS
10
0.783661
20
2.49744
11
0.783661
21
2.20335
0
LINE
8
BLACK
6
CONTINUOUS
10
0.783661
20
2.20335
11
0.877756
21
2.20335
0
LINE
8
BLACK
6
CONTINUOUS
10
0.877756
20
2.20335
11
0.877756
21
2.49744
0
LINE
8
BLACK
6
CONTINUOUS
10
0.877756
20
2.49744
11
0.783661
21
2.49744
0
LINE
8
BLACK
6
CONTINUOUS
10
0.481092
20
2.50052
11
0.481221
21
2.50055
0
LINE
8
BLACK
6
CONTINUOUS
10
0.481221
20
2.50055
11
0.481335
21
2.50048
0
LINE
8
BLACK
6
CONTINUOUS
10
0.481335
20
2.50048
11
0.481719
21
2.50041
0
LINE
8
BLACK
6
CONTINUOUS
10
0.481719
20
2.50041
11
0.482306
21
2.49992
0
LINE
8
BLACK
6
CONTINUOUS
10
0.482306
20
2.49992
11
0.482971
21
2.49954
0
LINE
8
BLACK
6
CONTINUOUS
10
0.482971
20
2.49954
11
0.483062
21
2.49929
0
LINE
8
BLACK
6
CONTINUOUS
10
0.483062
20
2.49929
11
0.483266
21
2.49911
0
LINE
8
BLACK
6
CONTINUOUS
10
0.483266
20
2.49911
11
0.483399
21
2.49836
0
LINE
8
BLACK
6
CONTINUOUS
10
0.483399
20
2.49836
11
0.483661
21
2.49764
0
LINE
8
BLACK
6
CONTINUOUS
10
0.483661
20
2.49764
11
0.483661
21
2.29764
0
LINE
8
BLACK
6
CONTINUOUS
10
0.483661
20
2.29764
11
0.483594
21
2.29725
0
LINE
8
BLACK
6
CONTINUOUS
10
0.483594
20
2.29725
11
0.483617
21
2.29713
0
LINE
8
BLACK
6
CONTINUOUS
10
0.483617
20
2.29713
11
0.483551
21
2.29701
0
LINE
8
BLACK
6
CONTINUOUS
10
0.483551
20
2.29701
11
0.483483
21
2.29663
0
LINE
8
BLACK
6
CONTINUOUS
10
0.483483
20
2.29663
11
0.48299
21
2.29604
0
LINE
8
BLACK
6
CONTINUOUS
10
0.48299
20
2.29604
11
0.482607
21
2.29538
0
LINE
8
BLACK
6
CONTINUOUS
10
0.482607
20
2.29538
11
0.482356
21
2.29528
0
LINE
8
BLACK
6
CONTINUOUS
10
0.482356
20
2.29528
11
0.482185
21
2.29508
0
LINE
8
BLACK
6
CONTINUOUS
10
0.482185
20
2.29508
11
0.481429
21
2.29495
0
LINE
8
BLACK
6
CONTINUOUS
10
0.481429
20
2.29495
11
0.480709
21
2.29469
0
LINE
8
BLACK
6
CONTINUOUS
10
0.480709
20
2.29469
11
0.180709
21
2.29469
0
LINE
8
BLACK
6
CONTINUOUS
10
0.180709
20
2.29469
11
0.180325
21
2.29475
0
LINE
8
BLACK
6
CONTINUOUS
10
0.180325
20
2.29475
11
0.180196
21
2.29473
0
LINE
8
BLACK
6
CONTINUOUS
10
0.180196
20
2.29473
11
0.180082
21
2.2948
0
LINE
8
BLACK
6
CONTINUOUS
10
0.180082
20
2.2948
11
0.179699
21
2.29486
0
LINE
8
BLACK
6
CONTINUOUS
10
0.179699
20
2.29486
11
0.179111
21
2.29536
0
LINE
8
BLACK
6
CONTINUOUS
10
0.179111
20
2.29536
11
0.178447
21
2.29574
0
LINE
8
BLACK
6
CONTINUOUS
10
0.178447
20
2.29574
11
0.178356
21
2.29599
0
LINE
8
BLACK
6
CONTINUOUS
10
0.178356
20
2.29599
11
0.178151
21
2.29616
0
LINE
8
BLACK
6
CONTINUOUS
10
0.178151
20
2.29616
11
0.178018
21
2.29692
0
LINE
8
BLACK
6
CONTINUOUS
10
0.178018
20
2.29692
11
0.177756
21
2.29764
0
LINE
8
BLACK
6
CONTINUOUS
10
0.177756
20
2.29764
11
0.177756
21
2.49764
0
LINE
8
BLACK
6
CONTINUOUS
10
0.177756
20
2.49764
11
0.177824
21
2.49802
0
LINE
8
BLACK
6
CONTINUOUS
10
0.177824
20
2.49802
11
0.177801
21
2.49815
0
LINE
8
BLACK
6
CONTINUOUS
10
0.177801
20
2.49815
11
0.177866
21
2.49826
0
LINE
8
BLACK
6
CONTINUOUS
10
0.177866
20
2.49826
11
0.177934
21
2.49865
0
LINE
8
BLACK
6
CONTINUOUS
10
0.177934
20
2.49865
11
0.178427
21
2.49924
0
LINE
8
BLACK
6
CONTINUOUS
10
0.178427
20
2.49924
11
0.178811
21
2.4999
0
LINE
8
BLACK
6
CONTINUOUS
10
0.178811
20
2.4999
11
0.179061
21
2.49999
0
LINE
8
BLACK
6
CONTINUOUS
10
0.179061
20
2.49999
11
0.179232
21
2.50019
0
LINE
8
BLACK
6
CONTINUOUS
10
0.179232
20
2.50019
11
0.179988
21
2.50033
0
LINE
8
BLACK
6
CONTINUOUS
10
0.179988
20
2.50033
11
0.180709
21
2.50059
0
LINE
8
BLACK
6
CONTINUOUS
10
0.180709
20
2.50059
11
0.480709
21
2.50059
0
LINE
8
BLACK
6
CONTINUOUS
10
0.480709
20
2.50059
11
0.481092
21
2.50052
0
LINE
8
BLACK
6
CONTINUOUS
10
0.183661
20
2.49469
11
0.183661
21
2.30059
0
LINE
8
BLACK
6
CONTINUOUS
10
0.183661
20
2.30059
11
0.477756
21
2.30059
0
LINE
8
BLACK
6
CONTINUOUS
10
0.477756
20
2.30059
11
0.477756
21
2.49469
0
LINE
8
BLACK
6
CONTINUOUS
10
0.477756
20
2.49469
11
0.183661
21
2.49469
0
LINE
8
BLACK
6
CONTINUOUS
10
1.22125
20
2.50052
11
1.22138
21
2.50055
0
LINE
8
BLACK
6
CONTINUOUS
10
1.22138
20
2.50055
11
1.22149
21
2.50048
0
LINE
8
BLACK
6
CONTINUOUS
10
1.22149
20
2.50048
11
1.22188
21
2.50041
0
LINE
8
BLACK
6
CONTINUOUS
10
1.22188
20
2.50041
11
1.22246
21
2.49992
0
LINE
8
BLACK
6
CONTINUOUS
10
1.22246
20
2.49992
11
1.22313
21
2.49954
0
LINE
8
BLACK
6
CONTINUOUS
10
1.22313
20
2.49954
11
1.22322
21
2.49929
0
LINE
8
BLACK
6
CONTINUOUS
10
1.22322
20
2.49929
11
1.22342
21
2.49911
0
LINE
8
BLACK
6
CONTINUOUS
10
1.22342
20
2.49911
11
1.22356
21
2.49836
0
LINE
8
BLACK
6
CONTINUOUS
10
1.22356
20
2.49836
11
1.22382
21
2.49764
0
LINE
8
BLACK
6
CONTINUOUS
10
1.22382
20
2.49764
11
1.22382
21
2.29764
0
LINE
8
BLACK
6
CONTINUOUS
10
1.22382
20
2.29764
11
1.22375
21
2.29725
0
LINE
8
BLACK
6
CONTINUOUS
10
1.22375
20
2.29725
11
1.22377
21
2.29713
0
LINE
8
BLACK
6
CONTINUOUS
10
1.22377
20
2.29713
11
1.22371
21
2.29701
0
LINE
8
BLACK
6
CONTINUOUS
10
1.22371
20
2.29701
11
1.22364
21
2.29663
0
LINE
8
BLACK
6
CONTINUOUS
10
1.22364
20
2.29663
11
1.22315
21
2.29604
0
LINE
8
BLACK
6
CONTINUOUS
10
1.22315
20
2.29604
11
1.22276
21
2.29538
0
LINE
8
BLACK
6
CONTINUOUS
10
1.22276
20
2.29538
11
1.22251
21
2.29528
0
LINE
8
BLACK
6
CONTINUOUS
10
1.22251
20
2.29528
11
1.22234
21
2.29508
0
LINE
8
BLACK
6
CONTINUOUS
10
1.22234
20
2.29508
11
1.22159
21
2.29495
0
LINE
8
BLACK
6
CONTINUOUS
10
1.22159
20
2.29495
11
1.22087
21
2.29469
0
LINE
8
BLACK
6
CONTINUOUS
10
1.22087
20
2.29469
11
0.920866
21
2.29469
0
LINE
8
BLACK
6
CONTINUOUS
10
0.920866
20
2.29469
11
0.920483
21
2.29475
0
LINE
8
BLACK
6
CONTINUOUS
10
0.920483
20
2.29475
11
0.920353
21
2.29473
0
LINE
8
BLACK
6
CONTINUOUS
10
0.920353
20
2.29473
11
0.92024
21
2.2948
0
LINE
8
BLACK
6
CONTINUOUS
10
0.92024
20
2.2948
11
0.919856
21
2.29486
0
LINE
8
BLACK
6
CONTINUOUS
10
0.919856
20
2.29486
11
0.919269
21
2.29536
0
LINE
8
BLACK
6
CONTINUOUS
10
0.919269
20
2.29536
11
0.918604
21
2.29574
0
LINE
8
BLACK
6
CONTINUOUS
10
0.918604
20
2.29574
11
0.918513
21
2.29599
0
LINE
8
BLACK
6
CONTINUOUS
10
0.918513
20
2.29599
11
0.918309
21
2.29616
0
LINE
8
BLACK
6
CONTINUOUS
10
0.918309
20
2.29616
11
0.918176
21
2.29692
0
LINE
8
BLACK
6
CONTINUOUS
10
0.918176
20
2.29692
11
0.917913
21
2.29764
0
LINE
8
BLACK
6
CONTINUOUS
10
0.917913
20
2.29764
11
0.917913
21
2.49764
0
LINE
8
BLACK
6
CONTINUOUS
10
0.917913
20
2.49764
11
0.917981
21
2.49802
0
LINE
8
BLACK
6
CONTINUOUS
10
0.917981
20
2.49802
11
0.917958
21
2.49815
0
LINE
8
BLACK
6
CONTINUOUS
10
0.917958
20
2.49815
11
0.918024
21
2.49826
0
LINE
8
BLACK
6
CONTINUOUS
10
0.918024
20
2.49826
11
0.918091
21
2.49865
0
LINE
8
BLACK
6
CONTINUOUS
10
0.918091
20
2.49865
11
0.918585
21
2.49924
0
LINE
8
BLACK
6
CONTINUOUS
10
0.918585
20
2.49924
11
0.918968
21
2.4999
0
LINE
8
BLACK
6
CONTINUOUS
10
0.918968
20
2.4999
11
0.919219
21
2.49999
0
LINE
8
BLACK
6
CONTINUOUS
10
0.919219
20
2.49999
11
0.91939
21
2.50019
0
LINE
8
BLACK
6
CONTINUOUS
10
0.91939
20
2.50019
11
0.920145
21
2.50033
0
LINE
8
BLACK
6
CONTINUOUS
10
0.920145
20
2.50033
11
0.920866
21
2.50059
0
LINE
8
BLACK
6
CONTINUOUS
10
0.920866
20
2.50059
11
1.22087
21
2.50059
0
LINE
8
BLACK
6
CONTINUOUS
10
1.22087
20
2.50059
11
1.22125
21
2.50052
0
LINE
8
BLACK
6
CONTINUOUS
10
0.923819
20
2.49469
11
0.923819
21
2.30059
0
LINE
8
BLACK
6
CONTINUOUS
10
0.923819
20
2.30059
11
1.21791
21
2.30059
0
LINE
8
BLACK
6
CONTINUOUS
10
1.21791
20
2.30059
11
1.21791
21
2.49469
0
LINE
8
BLACK
6
CONTINUOUS
10
1.21791
20
2.49469
11
0.923819
21
2.49469
0
LINE
8
BLACK
6
CONTINUOUS
10
-0.122078
20
0.0295339
11
-0.118025
21
0.0429577
0
LINE
8
BLACK
6
CONTINUOUS
10
-0.118025
20
0.0429577
11
-0.112501
21
0.0558462
0
LINE
8
BLACK
6
CONTINUOUS
10
-0.112501
20
0.0558462
11
-0.105575
21
0.0680385
0
LINE
8
BLACK
6
CONTINUOUS
10
-0.105575
20
0.0680385
11
-0.097333
21
0.0793829
0
LINE
8
BLACK
6
CONTINUOUS
10
-0.097333
20
0.0793829
11
-0.0878777
21
0.0897378
0
LINE
8
BLACK
6
CONTINUOUS
10
-0.0878777
20
0.0897378
11
-0.0773271
21
0.0989741
0
LINE
8
BLACK
6
CONTINUOUS
10
-0.0773271
20
0.0989741
11
-0.0658126
21
0.106977
0
LINE
8
BLACK
6
CONTINUOUS
10
-0.0658126
20
0.106977
11
-0.0534779
21
0.113646
0
LINE
8
BLACK
6
CONTINUOUS
10
-0.0534779
20
0.113646
11
-0.0404766
21
0.118899
0
LINE
8
BLACK
6
CONTINUOUS
10
-0.0404766
20
0.118899
11
-0.0269707
21
0.12267
0
LINE
8
BLACK
6
CONTINUOUS
10
-0.0269707
20
0.12267
11
-0.0131288
21
0.124912
0
LINE
8
BLACK
6
CONTINUOUS
10
-0.0131288
20
0.124912
11
0.00087685
21
0.125597
0
LINE
8
BLACK
6
CONTINUOUS
10
0.00087685
20
0.125597
11
0.0148715
21
0.124716
0
LINE
8
BLACK
6
CONTINUOUS
10
0.0148715
20
0.124716
11
0.0286809
21
0.122281
0
LINE
8
BLACK
6
CONTINUOUS
10
0.0286809
20
0.122281
11
0.0421327
21
0.118322
0
LINE
8
BLACK
6
CONTINUOUS
10
0.0421327
20
0.118322
11
0.0550594
21
0.112889
0
LINE
8
BLACK
6
CONTINUOUS
10
0.0550594
20
0.112889
11
0.0672998
21
0.106048
0
LINE
8
BLACK
6
CONTINUOUS
10
0.0672998
20
0.106048
11
0.0787015
21
0.0978848
0
LINE
8
BLACK
6
CONTINUOUS
10
0.0787015
20
0.0978848
11
0.0891221
21
0.088502
0
LINE
8
BLACK
6
CONTINUOUS
10
0.0891221
20
0.088502
11
0.0984319
21
0.0780161
0
LINE
8
BLACK
6
CONTINUOUS
10
0.0984319
20
0.0780161
11
0.106515
21
0.0665579
0
LINE
8
BLACK
6
CONTINUOUS
10
0.106515
20
0.0665579
11
0.11327
21
0.05427
0
LINE
8
BLACK
6
CONTINUOUS
10
0.11327
20
0.05427
11
0.118614
21
0.0413057
0
LINE
8
BLACK
6
CONTINUOUS
10
0.118614
20
0.0413057
11
0.122479
21
0.0278265
0
LINE
8
BLACK
6
CONTINUOUS
10
0.122479
20
0.0278265
11
0.124817
21
0.0140005
0
LINE
8
BLACK
6
CONTINUOUS
10
0.124817
20
0.0140005
11
0.1256
21
0
0
LINE
8
BLACK
6
CONTINUOUS
10
0.1256
20
0
11
0.125551
21
-0.00350697
0
LINE
8
BLACK
6
CONTINUOUS
10
0.125551
20
-0.00350697
11
0.124378
21
-0.0174802
0
LINE
8
BLACK
6
CONTINUOUS
10
0.124378
20
-0.0174802
11
0.121654
21
-0.0312354
0
LINE
8
BLACK
6
CONTINUOUS
10
0.121654
20
-0.0312354
11
0.117414
21
-0.0446014
0
LINE
8
BLACK
6
CONTINUOUS
10
0.117414
20
-0.0446014
11
0.111711
21
-0.0574115
0
LINE
8
BLACK
6
CONTINUOUS
10
0.111711
20
-0.0574115
11
0.104615
21
-0.069506
0
LINE
8
BLACK
6
CONTINUOUS
10
0.104615
20
-0.069506
11
0.0962152
21
-0.0807341
0
LINE
8
BLACK
6
CONTINUOUS
10
0.0962152
20
-0.0807341
11
0.0866162
21
-0.090956
0
LINE
8
BLACK
6
CONTINUOUS
10
0.0866162
20
-0.090956
11
0.0759376
21
-0.100044
0
LINE
8
BLACK
6
CONTINUOUS
10
0.0759376
20
-0.100044
11
0.0643126
21
-0.107885
0
LINE
8
BLACK
6
CONTINUOUS
10
0.0643126
20
-0.107885
11
0.0518859
21
-0.114382
0
LINE
8
BLACK
6
CONTINUOUS
10
0.0518859
20
-0.114382
11
0.0388125
21
-0.119453
0
LINE
8
BLACK
6
CONTINUOUS
10
0.0388125
20
-0.119453
11
0.0252554
21
-0.123035
0
LINE
8
BLACK
6
CONTINUOUS
10
0.0252554
20
-0.123035
11
0.0113835
21
-0.125083
0
LINE
8
BLACK
6
CONTINUOUS
10
0.0113835
20
-0.125083
11
-0.00263035
21
-0.125572
0
LINE
8
BLACK
6
CONTINUOUS
10
-0.00263035
20
-0.125572
11
-0.0166114
21
-0.124497
0
LINE
8
BLACK
6
CONTINUOUS
10
-0.0166114
20
-0.124497
11
-0.0303854
21
-0.121869
0
LINE
8
BLACK
6
CONTINUOUS
10
-0.0303854
20
-0.121869
11
-0.0437806
21
-0.117723
0
LINE
8
BLACK
6
CONTINUOUS
10
-0.0437806
20
-0.117723
11
-0.0566302
21
-0.112109
0
LINE
8
BLACK
6
CONTINUOUS
10
-0.0566302
20
-0.112109
11
-0.0687739
21
-0.105098
0
LINE
8
BLACK
6
CONTINUOUS
10
-0.0687739
20
-0.105098
11
-0.0800605
21
-0.0967765
0
LINE
8
BLACK
6
CONTINUOUS
10
-0.0800605
20
-0.0967765
11
-0.0903491
21
-0.0872491
0
LINE
8
BLACK
6
CONTINUOUS
10
-0.0903491
20
-0.0872491
11
-0.0995116
21
-0.0766343
0
LINE
8
BLACK
6
CONTINUOUS
10
-0.0995116
20
-0.0766343
11
-0.107434
21
-0.0650642
0
LINE
8
BLACK
6
CONTINUOUS
10
-0.107434
20
-0.0650642
11
-0.114017
21
-0.0526832
0
LINE
8
BLACK
6
CONTINUOUS
10
-0.114017
20
-0.0526832
11
-0.119179
21
-0.0396455
0
LINE
8
BLACK
6
CONTINUOUS
10
-0.119179
20
-0.0396455
11
-0.122855
21
-0.0261137
0
LINE
8
BLACK
6
CONTINUOUS
10
-0.122855
20
-0.0261137
11
-0.125001
21
-0.0122564
0
LINE
8
BLACK
6
CONTINUOUS
10
-0.125001
20
-0.0122564
11
-0.125588
21
0.00175366
0
LINE
8
BLACK
6
CONTINUOUS
10
-0.125588
20
0.00175366
11
-0.125467
21
0.00347992
0
LINE
8
BLACK
6
CONTINUOUS
10
-0.125467
20
0.00347992
11
-0.12461
21
0.0157419
0
LINE
8
BLACK
6
CONTINUOUS
10
-0.12461
20
0.0157419
11
-0.122078
21
0.0295339
0
LINE
8
BLACK
6
CONTINUOUS
10
-0.108602
20
-0.021898
11
-0.105365
21
-0.0342352
0
LINE
8
BLACK
6
CONTINUOUS
10
-0.105365
20
-0.0342352
11
-0.100732
21
-0.0461187
0
LINE
8
BLACK
6
CONTINUOUS
10
-0.100732
20
-0.0461187
11
-0.0947636
21
-0.0573909
0
LINE
8
BLACK
6
CONTINUOUS
10
-0.0947636
20
-0.0573909
11
-0.0875393
21
-0.0679024
0
LINE
8
BLACK
6
CONTINUOUS
10
-0.0875393
20
-0.0679024
11
-0.0791546
21
-0.0775139
0
LINE
8
BLACK
6
CONTINUOUS
10
-0.0791546
20
-0.0775139
11
-0.0697208
21
-0.086098
0
LINE
8
BLACK
6
CONTINUOUS
10
-0.0697208
20
-0.086098
11
-0.0593629
21
-0.0935409
0
LINE
8
BLACK
6
CONTINUOUS
10
-0.0593629
20
-0.0935409
11
-0.0482181
21
-0.099744
0
LINE
8
BLACK
6
CONTINUOUS
10
-0.0482181
20
-0.099744
11
-0.0364343
21
-0.104625
0
LINE
8
BLACK
6
CONTINUOUS
10
-0.0364343
20
-0.104625
11
-0.0241675
21
-0.108119
0
LINE
8
BLACK
6
CONTINUOUS
10
-0.0241675
20
-0.108119
11
-0.0115804
21
-0.110181
0
LINE
8
BLACK
6
CONTINUOUS
10
-0.0115804
20
-0.110181
11
0.00116016
21
-0.110781
0
LINE
8
BLACK
6
CONTINUOUS
10
0.00116016
20
-0.110781
11
0.0138854
21
-0.109914
0
LINE
8
BLACK
6
CONTINUOUS
10
0.0138854
20
-0.109914
11
0.0264265
21
-0.107589
0
LINE
8
BLACK
6
CONTINUOUS
10
0.0264265
20
-0.107589
11
0.0386174
21
-0.103839
0
LINE
8
BLACK
6
CONTINUOUS
10
0.0386174
20
-0.103839
11
0.0502965
21
-0.0987123
0
LINE
8
BLACK
6
CONTINUOUS
10
0.0502965
20
-0.0987123
11
0.0613088
21
-0.0922772
0
LINE
8
BLACK
6
CONTINUOUS
10
0.0613088
20
-0.0922772
11
0.0715086
21
-0.084619
0
LINE
8
BLACK
6
CONTINUOUS
10
0.0715086
20
-0.084619
11
0.0807606
21
-0.0758392
0
LINE
8
BLACK
6
CONTINUOUS
10
0.0807606
20
-0.0758392
11
0.0889421
21
-0.0660542
0
LINE
8
BLACK
6
CONTINUOUS
10
0.0889421
20
-0.0660542
11
0.0959447
21
-0.0553937
0
LINE
8
BLACK
6
CONTINUOUS
10
0.0959447
20
-0.0553937
11
0.101676
21
-0.043999
0
LINE
8
BLACK
6
CONTINUOUS
10
0.101676
20
-0.043999
11
0.106059
21
-0.0320211
0
LINE
8
BLACK
6
CONTINUOUS
10
0.106059
20
-0.0320211
11
0.109036
21
-0.0196188
0
LINE
8
BLACK
6
CONTINUOUS
10
0.109036
20
-0.0196188
11
0.110569
21
-0.00695642
0
LINE
8
BLACK
6
CONTINUOUS
10
0.110569
20
-0.00695642
11
0.110787
21
0
0
LINE
8
BLACK
6
CONTINUOUS
10
0.110787
20
0
11
0.110053
21
0.0127336
0
LINE
8
BLACK
6
CONTINUOUS
10
0.110053
20
0.0127336
11
0.10786
21
0.0252984
0
LINE
8
BLACK
6
CONTINUOUS
10
0.10786
20
0.0252984
11
0.104238
21
0.0375279
0
LINE
8
BLACK
6
CONTINUOUS
10
0.104238
20
0.0375279
11
0.0992336
21
0.04926
0
LINE
8
BLACK
6
CONTINUOUS
10
0.0992336
20
0.04926
11
0.0929142
21
0.0603392
0
LINE
8
BLACK
6
CONTINUOUS
10
0.0929142
20
0.0603392
11
0.0853632
21
0.0706186
0
LINE
8
BLACK
6
CONTINUOUS
10
0.0853632
20
0.0706186
11
0.0766808
21
0.079962
0
LINE
8
BLACK
6
CONTINUOUS
10
0.0766808
20
0.079962
11
0.066982
21
0.0882455
0
LINE
8
BLACK
6
CONTINUOUS
10
0.066982
20
0.0882455
11
0.0563954
21
0.0953594
0
LINE
8
BLACK
6
CONTINUOUS
10
0.0563954
20
0.0953594
11
0.0450613
21
0.101209
0
LINE
8
BLACK
6
CONTINUOUS
10
0.0450613
20
0.101209
11
0.03313
21
0.105718
0
LINE
8
BLACK
6
CONTINUOUS
10
0.03313
20
0.105718
11
0.0207595
21
0.108825
0
LINE
8
BLACK
6
CONTINUOUS
10
0.0207595
20
0.108825
11
0.00811386
21
0.11049
0
LINE
8
BLACK
6
CONTINUOUS
10
0.00811386
20
0.11049
11
-0.00463929
21
0.11069
0
LINE
8
BLACK
6
CONTINUOUS
10
-0.00463929
20
0.11069
11
-0.017331
21
0.109423
0
LINE
8
BLACK
6
CONTINUOUS
10
-0.017331
20
0.109423
11
-0.029793
21
0.106706
0
LINE
8
BLACK
6
CONTINUOUS
10
-0.029793
20
0.106706
11
-0.04186
21
0.102575
0
LINE
8
BLACK
6
CONTINUOUS
10
-0.04186
20
0.102575
11
-0.0533722
21
0.0970838
0
LINE
8
BLACK
6
CONTINUOUS
10
-0.0533722
20
0.0970838
11
-0.0641771
21
0.0903059
0
LINE
8
BLACK
6
CONTINUOUS
10
-0.0641771
20
0.0903059
11
-0.0741313
21
0.0823311
0
LINE
8
BLACK
6
CONTINUOUS
10
-0.0741313
20
0.0823311
11
-0.0831029
21
0.073265
0
LINE
8
BLACK
6
CONTINUOUS
10
-0.0831029
20
0.073265
11
-0.090973
21
0.0632279
0
LINE
8
BLACK
6
CONTINUOUS
10
-0.090973
20
0.0632279
11
-0.0976374
21
0.0523527
0
LINE
8
BLACK
6
CONTINUOUS
10
-0.0976374
20
0.0523527
11
-0.103008
21
0.0407836
0
LINE
8
BLACK
6
CONTINUOUS
10
-0.103008
20
0.0407836
11
-0.107012
21
0.0286739
0
LINE
8
BLACK
6
CONTINUOUS
10
-0.107012
20
0.0286739
11
-0.109599
21
0.0161842
0
LINE
8
BLACK
6
CONTINUOUS
10
-0.109599
20
0.0161842
11
-0.110733
21
0.00347992
0
LINE
8
BLACK
6
CONTINUOUS
10
-0.110733
20
0.00347992
11
-0.110399
21
-0.00927047
0
LINE
8
BLACK
6
CONTINUOUS
10
-0.110399
20
-0.00927047
11
-0.108602
21
-0.021898
0
LINE
8
BLACK
6
CONTINUOUS
10
1.87792
20
0.0295339
11
1.88197
21
0.0429577
0
LINE
8
BLACK
6
CONTINUOUS
10
1.88197
20
0.0429577
11
1.8875
21
0.0558462
0
LINE
8
BLACK
6
CONTINUOUS
10
1.8875
20
0.0558462
11
1.89442
21
0.0680385
0
LINE
8
BLACK
6
CONTINUOUS
10
1.89442
20
0.0680385
11
1.90267
21
0.0793829
0
LINE
8
BLACK
6
CONTINUOUS
10
1.90267
20
0.0793829
11
1.91212
21
0.0897378
0
LINE
8
BLACK
6
CONTINUOUS
10
1.91212
20
0.0897378
11
1.92267
21
0.0989741
0
LINE
8
BLACK
6
CONTINUOUS
10
1.92267
20
0.0989741
11
1.93419
21
0.106977
0
LINE
8
BLACK
6
CONTINUOUS
10
1.93419
20
0.106977
11
1.94652
21
0.113646
0
LINE
8
BLACK
6
CONTINUOUS
10
1.94652
20
0.113646
11
1.95952
21
0.118899
0
LINE
8
BLACK
6
CONTINUOUS
10
1.95952
20
0.118899
11
1.97303
21
0.12267
0
LINE
8
BLACK
6
CONTINUOUS
10
1.97303
20
0.12267
11
1.98687
21
0.124912
0
LINE
8
BLACK
6
CONTINUOUS
10
1.98687
20
0.124912
11
2.00088
21
0.125597
0
LINE
8
BLACK
6
CONTINUOUS
10
2.00088
20
0.125597
11
2.01487
21
0.124716
0
LINE
8
BLACK
6
CONTINUOUS
10
2.01487
20
0.124716
11
2.02868
21
0.122281
0
LINE
8
BLACK
6
CONTINUOUS
10
2.02868
20
0.122281
11
2.04213
21
0.118322
0
LINE
8
BLACK
6
CONTINUOUS
10
2.04213
20
0.118322
11
2.05506
21
0.112889
0
LINE
8
BLACK
6
CONTINUOUS
10
2.05506
20
0.112889
11
2.0673
21
0.106048
0
LINE
8
BLACK
6
CONTINUOUS
10
2.0673
20
0.106048
11
2.0787
21
0.0978848
0
LINE
8
BLACK
6
CONTINUOUS
10
2.0787
20
0.0978848
11
2.08912
21
0.088502
0
LINE
8
BLACK
6
CONTINUOUS
10
2.08912
20
0.088502
11
2.09843
21
0.0780161
0
LINE
8
BLACK
6
CONTINUOUS
10
2.09843
20
0.0780161
11
2.10651
21
0.0665579
0
LINE
8
BLACK
6
CONTINUOUS
10
2.10651
20
0.0665579
11
2.11327
21
0.05427
0
LINE
8
BLACK
6
CONTINUOUS
10
2.11327
20
0.05427
11
2.11861
21
0.0413057
0
LINE
8
BLACK
6
CONTINUOUS
10
2.11861
20
0.0413057
11
2.12248
21
0.0278265
0
LINE
8
BLACK
6
CONTINUOUS
10
2.12248
20
0.0278265
11
2.12482
21
0.0140005
0
LINE
8
BLACK
6
CONTINUOUS
10
2.12482
20
0.0140005
11
2.1256
21
0
0
LINE
8
BLACK
6
CONTINUOUS
10
2.1256
20
0
11
2.12555
21
-0.00350697
0
LINE
8
BLACK
6
CONTINUOUS
10
2.12555
20
-0.00350697
11
2.12438
21
-0.0174802
0
LINE
8
BLACK
6
CONTINUOUS
10
2.12438
20
-0.0174802
11
2.12165
21
-0.0312354
0
LINE
8
BLACK
6
CONTINUOUS
10
2.12165
20
-0.0312354
11
2.11741
21
-0.0446014
0
LINE
8
BLACK
6
CONTINUOUS
10
2.11741
20
-0.0446014
11
2.11171
21
-0.0574115
0
LINE
8
BLACK
6
CONTINUOUS
10
2.11171
20
-0.0574115
11
2.10461
21
-0.069506
0
LINE
8
BLACK
6
CONTINUOUS
10
2.10461
20
-0.069506
11
2.09622
21
-0.0807341
0
LINE
8
BLACK
6
CONTINUOUS
10
2.09622
20
-0.0807341
11
2.08662
21
-0.090956
0
LINE
8
BLACK
6
CONTINUOUS
10
2.08662
20
-0.090956
11
2.07594
21
-0.100044
0
LINE
8
BLACK
6
CONTINUOUS
10
2.07594
20
-0.100044
11
2.06431
21
-0.107885
0
LINE
8
BLACK
6
CONTINUOUS
10
2.06431
20
-0.107885
11
2.05189
21
-0.114382
0
LINE
8
BLACK
6
CONTINUOUS
10
2.05189
20
-0.114382
11
2.03881
21
-0.119453
0
LINE
8
BLACK
6
CONTINUOUS
10
2.03881
20
-0.119453
11
2.02526
21
-0.123035
0
LINE
8
BLACK
6
CONTINUOUS
10
2.02526
20
-0.123035
11
2.01138
21
-0.125083
0
LINE
8
BLACK
6
CONTINUOUS
10
2.01138
20
-0.125083
11
1.99737
21
-0.125572
0
LINE
8
BLACK
6
CONTINUOUS
10
1.99737
20
-0.125572
11
1.98339
21
-0.124497
0
LINE
8
BLACK
6
CONTINUOUS
10
1.98339
20
-0.124497
11
1.96961
21
-0.121869
0
LINE
8
BLACK
6
CONTINUOUS
10
1.96961
20
-0.121869
11
1.95622
21
-0.117723
0
LINE
8
BLACK
6
CONTINUOUS
10
1.95622
20
-0.117723
11
1.94337
21
-0.112109
0
LINE
8
BLACK
6
CONTINUOUS
10
1.94337
20
-0.112109
11
1.93123
21
-0.105098
0
LINE
8
BLACK
6
CONTINUOUS
10
1.93123
20
-0.105098
11
1.91994
21
-0.0967765
0
LINE
8
BLACK
6
CONTINUOUS
10
1.91994
20
-0.0967765
11
1.90965
21
-0.0872491
0
LINE
8
BLACK
6
CONTINUOUS
10
1.90965
20
-0.0872491
11
1.90049
21
-0.0766343
0
LINE
8
BLACK
6
CONTINUOUS
10
1.90049
20
-0.0766343
11
1.89257
21
-0.0650642
0
LINE
8
BLACK
6
CONTINUOUS
10
1.89257
20
-0.0650642
11
1.88598
21
-0.0526832
0
LINE
8
BLACK
6
CONTINUOUS
10
1.88598
20
-0.0526832
11
1.88082
21
-0.0396455
0
LINE
8
BLACK
6
CONTINUOUS
10
1.88082
20
-0.0396455
11
1.87714
21
-0.0261137
0
LINE
8
BLACK
6
CONTINUOUS
10
1.87714
20
-0.0261137
11
1.875
21
-0.0122564
0
LINE
8
BLACK
6
CONTINUOUS
10
1.875
20
-0.0122564
11
1.87441
21
0.00175366
0
LINE
8
BLACK
6
CONTINUOUS
10
1.87441
20
0.00175366
11
1.87453
21
0.00347992
0
LINE
8
BLACK
6
CONTINUOUS
10
1.87453
20
0.00347992
11
1.87539
21
0.0157419
0
LINE
8
BLACK
6
CONTINUOUS
10
1.87539
20
0.0157419
11
1.87792
21
0.0295339
0
LINE
8
BLACK
6
CONTINUOUS
10
1.8914
20
-0.021898
11
1.89463
21
-0.0342352
0
LINE
8
BLACK
6
CONTINUOUS
10
1.89463
20
-0.0342352
11
1.89927
21
-0.0461187
0
LINE
8
BLACK
6
CONTINUOUS
10
1.89927
20
-0.0461187
11
1.90524
21
-0.0573909
0
LINE
8
BLACK
6
CONTINUOUS
10
1.90524
20
-0.0573909
11
1.91246
21
-0.0679024
0
LINE
8
BLACK
6
CONTINUOUS
10
1.91246
20
-0.0679024
11
1.92085
21
-0.0775139
0
LINE
8
BLACK
6
CONTINUOUS
10
1.92085
20
-0.0775139
11
1.93028
21
-0.086098
0
LINE
8
BLACK
6
CONTINUOUS
10
1.93028
20
-0.086098
11
1.94064
21
-0.0935409
0
LINE
8
BLACK
6
CONTINUOUS
10
1.94064
20
-0.0935409
11
1.95178
21
-0.099744
0
LINE
8
BLACK
6
CONTINUOUS
10
1.95178
20
-0.099744
11
1.96357
21
-0.104625
0
LINE
8
BLACK
6
CONTINUOUS
10
1.96357
20
-0.104625
11
1.97583
21
-0.108119
0
LINE
8
BLACK
6
CONTINUOUS
10
1.97583
20
-0.108119
11
1.98842
21
-0.110181
0
LINE
8
BLACK
6
CONTINUOUS
10
1.98842
20
-0.110181
11
2.00116
21
-0.110781
0
LINE
8
BLACK
6
CONTINUOUS
10
2.00116
20
-0.110781
11
2.01389
21
-0.109914
0
LINE
8
BLACK
6
CONTINUOUS
10
2.01389
20
-0.109914
11
2.02643
21
-0.107589
0
LINE
8
BLACK
6
CONTINUOUS
10
2.02643
20
-0.107589
11
2.03862
21
-0.103839
0
LINE
8
BLACK
6
CONTINUOUS
10
2.03862
20
-0.103839
11
2.0503
21
-0.0987123
0
LINE
8
BLACK
6
CONTINUOUS
10
2.0503
20
-0.0987123
11
2.06131
21
-0.0922772
0
LINE
8
BLACK
6
CONTINUOUS
10
2.06131
20
-0.0922772
11
2.07151
21
-0.084619
0
LINE
8
BLACK
6
CONTINUOUS
10
2.07151
20
-0.084619
11
2.08076
21
-0.0758392
0
LINE
8
BLACK
6
CONTINUOUS
10
2.08076
20
-0.0758392
11
2.08894
21
-0.0660542
0
LINE
8
BLACK
6
CONTINUOUS
10
2.08894
20
-0.0660542
11
2.09594
21
-0.0553937
0
LINE
8
BLACK
6
CONTINUOUS
10
2.09594
20
-0.0553937
11
2.10168
21
-0.043999
0
LINE
8
BLACK
6
CONTINUOUS
10
2.10168
20
-0.043999
11
2.10606
21
-0.0320211
0
LINE
8
BLACK
6
CONTINUOUS
10
2.10606
20
-0.0320211
11
2.10904
21
-0.0196188
0
LINE
8
BLACK
6
CONTINUOUS
10
2.10904
20
-0.0196188
11
2.11057
21
-0.00695642
0
LINE
8
BLACK
6
CONTINUOUS
10
2.11057
20
-0.00695642
11
2.11079
21
0
0
LINE
8
BLACK
6
CONTINUOUS
10
2.11079
20
0
11
2.11005
21
0.0127336
0
LINE
8
BLACK
6
CONTINUOUS
10
2.11005
20
0.0127336
11
2.10786
21
0.0252984
0
LINE
8
BLACK
6
CONTINUOUS
10
2.10786
20
0.0252984
11
2.10424
21
0.0375279
0
LINE
8
BLACK
6
CONTINUOUS
10
2.10424
20
0.0375279
11
2.09923
21
0.04926
0
LINE
8
BLACK
6
CONTINUOUS
10
2.09923
20
0.04926
11
2.09291
21
0.0603392
0
LINE
8
BLACK
6
CONTINUOUS
10
2.09291
20
0.0603392
11
2.08536
21
0.0706186
0
LINE
8
BLACK
6
CONTINUOUS
10
2.08536
20
0.0706186
11
2.07668
21
0.079962
0
LINE
8
BLACK
6
CONTINUOUS
10
2.07668
20
0.079962
11
2.06698
21
0.0882455
0
LINE
8
BLACK
6
CONTINUOUS
10
2.06698
20
0.0882455
11
2.0564
21
0.0953594
0
LINE
8
BLACK
6
CONTINUOUS
10
2.0564
20
0.0953594
11
2.04506
21
0.101209
0
LINE
8
BLACK
6
CONTINUOUS
10
2.04506
20
0.101209
11
2.03313
21
0.105718
0
LINE
8
BLACK
6
CONTINUOUS
10
2.03313
20
0.105718
11
2.02076
21
0.108825
0
LINE
8
BLACK
6
CONTINUOUS
10
2.02076
20
0.108825
11
2.00811
21
0.11049
0
LINE
8
BLACK
6
CONTINUOUS
10
2.00811
20
0.11049
11
1.99536
21
0.11069
0
LINE
8
BLACK
6
CONTINUOUS
10
1.99536
20
0.11069
11
1.98267
21
0.109423
0
LINE
8
BLACK
6
CONTINUOUS
10
1.98267
20
0.109423
11
1.97021
21
0.106706
0
LINE
8
BLACK
6
CONTINUOUS
10
1.97021
20
0.106706
11
1.95814
21
0.102575
0
LINE
8
BLACK
6
CONTINUOUS
10
1.95814
20
0.102575
11
1.94663
21
0.0970838
0
LINE
8
BLACK
6
CONTINUOUS
10
1.94663
20
0.0970838
11
1.93582
21
0.0903059
0
LINE
8
BLACK
6
CONTINUOUS
10
1.93582
20
0.0903059
11
1.92587
21
0.0823311
0
LINE
8
BLACK
6
CONTINUOUS
10
1.92587
20
0.0823311
11
1.9169
21
0.073265
0
LINE
8
BLACK
6
CONTINUOUS
10
1.9169
20
0.073265
11
1.90903
21
0.0632279
0
LINE
8
BLACK
6
CONTINUOUS
10
1.90903
20
0.0632279
11
1.90236
21
0.0523527
0
LINE
8
BLACK
6
CONTINUOUS
10
1.90236
20
0.0523527
11
1.89699
21
0.0407836
0
LINE
8
BLACK
6
CONTINUOUS
10
1.89699
20
0.0407836
11
1.89299
21
0.0286739
0
LINE
8
BLACK
6
CONTINUOUS
10
1.89299
20
0.0286739
11
1.8904
21
0.0161842
0
LINE
8
BLACK
6
CONTINUOUS
10
1.8904
20
0.0161842
11
1.88927
21
0.00347992
0
LINE
8
BLACK
6
CONTINUOUS
10
1.88927
20
0.00347992
11
1.8896
21
-0.00927047
0
LINE
8
BLACK
6
CONTINUOUS
10
1.8896
20
-0.00927047
11
1.8914
21
-0.021898
0
LINE
8
BLACK
6
CONTINUOUS
10
-0.122078
20
2.43111
11
-0.118025
21
2.44453
0
LINE
8
BLACK
6
CONTINUOUS
10
-0.118025
20
2.44453
11
-0.112501
21
2.45742
0
LINE
8
BLACK
6
CONTINUOUS
10
-0.112501
20
2.45742
11
-0.105575
21
2.46961
0
LINE
8
BLACK
6
CONTINUOUS
10
-0.105575
20
2.46961
11
-0.097333
21
2.48096
0
LINE
8
BLACK
6
CONTINUOUS
10
-0.097333
20
2.48096
11
-0.0878777
21
2.49131
0
LINE
8
BLACK
6
CONTINUOUS
10
-0.0878777
20
2.49131
11
-0.0773271
21
2.50055
0
LINE
8
BLACK
6
CONTINUOUS
10
-0.0773271
20
2.50055
11
-0.0658126
21
2.50855
0
LINE
8
BLACK
6
CONTINUOUS
10
-0.0658126
20
2.50855
11
-0.0534779
21
2.51522
0
LINE
8
BLACK
6
CONTINUOUS
10
-0.0534779
20
2.51522
11
-0.0404766
21
2.52047
0
LINE
8
BLACK
6
CONTINUOUS
10
-0.0404766
20
2.52047
11
-0.0269707
21
2.52424
0
LINE
8
BLACK
6
CONTINUOUS
10
-0.0269707
20
2.52424
11
-0.0131288
21
2.52649
0
LINE
8
BLACK
6
CONTINUOUS
10
-0.0131288
20
2.52649
11
0.00087685
21
2.52717
0
LINE
8
BLACK
6
CONTINUOUS
10
0.00087685
20
2.52717
11
0.0148715
21
2.52629
0
LINE
8
BLACK
6
CONTINUOUS
10
0.0148715
20
2.52629
11
0.0286809
21
2.52386
0
LINE
8
BLACK
6
CONTINUOUS
10
0.0286809
20
2.52386
11
0.0421327
21
2.5199
0
LINE
8
BLACK
6
CONTINUOUS
10
0.0421327
20
2.5199
11
0.0550594
21
2.51446
0
LINE
8
BLACK
6
CONTINUOUS
10
0.0550594
20
2.51446
11
0.0672998
21
2.50762
0
LINE
8
BLACK
6
CONTINUOUS
10
0.0672998
20
2.50762
11
0.0787015
21
2.49946
0
LINE
8
BLACK
6
CONTINUOUS
10
0.0787015
20
2.49946
11
0.0891221
21
2.49008
0
LINE
8
BLACK
6
CONTINUOUS
10
0.0891221
20
2.49008
11
0.0984319
21
2.47959
0
LINE
8
BLACK
6
CONTINUOUS
10
0.0984319
20
2.47959
11
0.106515
21
2.46813
0
LINE
8
BLACK
6
CONTINUOUS
10
0.106515
20
2.46813
11
0.11327
21
2.45584
0
LINE
8
BLACK
6
CONTINUOUS
10
0.11327
20
2.45584
11
0.118614
21
2.44288
0
LINE
8
BLACK
6
CONTINUOUS
10
0.118614
20
2.44288
11
0.122479
21
2.4294
0
LINE
8
BLACK
6
CONTINUOUS
10
0.122479
20
2.4294
11
0.124817
21
2.41558
0
LINE
8
BLACK
6
CONTINUOUS
10
0.124817
20
2.41558
11
0.1256
21
2.40157
0
LINE
8
BLACK
6
CONTINUOUS
10
0.1256
20
2.40157
11
0.125551
21
2.39807
0
LINE
8
BLACK
6
CONTINUOUS
10
0.125551
20
2.39807
11
0.124378
21
2.38409
0
LINE
8
BLACK
6
CONTINUOUS
10
0.124378
20
2.38409
11
0.121654
21
2.37034
0
LINE
8
BLACK
6
CONTINUOUS
10
0.121654
20
2.37034
11
0.117414
21
2.35697
0
LINE
8
BLACK
6
CONTINUOUS
10
0.117414
20
2.35697
11
0.111711
21
2.34416
0
LINE
8
BLACK
6
CONTINUOUS
10
0.111711
20
2.34416
11
0.104615
21
2.33207
0
LINE
8
BLACK
6
CONTINUOUS
10
0.104615
20
2.33207
11
0.0962152
21
2.32084
0
LINE
8
BLACK
6
CONTINUOUS
10
0.0962152
20
2.32084
11
0.0866162
21
2.31062
0
LINE
8
BLACK
6
CONTINUOUS
10
0.0866162
20
2.31062
11
0.0759376
21
2.30153
0
LINE
8
BLACK
6
CONTINUOUS
10
0.0759376
20
2.30153
11
0.0643126
21
2.29369
0
LINE
8
BLACK
6
CONTINUOUS
10
0.0643126
20
2.29369
11
0.0518859
21
2.28719
0
LINE
8
BLACK
6
CONTINUOUS
10
0.0518859
20
2.28719
11
0.0388125
21
2.28212
0
LINE
8
BLACK
6
CONTINUOUS
10
0.0388125
20
2.28212
11
0.0252554
21
2.27854
0
LINE
8
BLACK
6
CONTINUOUS
10
0.0252554
20
2.27854
11
0.0113835
21
2.27649
0
LINE
8
BLACK
6
CONTINUOUS
10
0.0113835
20
2.27649
11
-0.00263035
21
2.276
0
LINE
8
BLACK
6
CONTINUOUS
10
-0.00263035
20
2.276
11
-0.0166114
21
2.27708
0
LINE
8
BLACK
6
CONTINUOUS
10
-0.0166114
20
2.27708
11
-0.0303854
21
2.27971
0
LINE
8
BLACK
6
CONTINUOUS
10
-0.0303854
20
2.27971
11
-0.0437806
21
2.28385
0
LINE
8
BLACK
6
CONTINUOUS
10
-0.0437806
20
2.28385
11
-0.0566302
21
2.28947
0
LINE
8
BLACK
6
CONTINUOUS
10
-0.0566302
20
2.28947
11
-0.0687739
21
2.29648
0
LINE
8
BLACK
6
CONTINUOUS
10
-0.0687739
20
2.29648
11
-0.0800605
21
2.3048
0
LINE
8
BLACK
6
CONTINUOUS
10
-0.0800605
20
2.3048
11
-0.0903491
21
2.31433
0
LINE
8
BLACK
6
CONTINUOUS
10
-0.0903491
20
2.31433
11
-0.0995116
21
2.32494
0
LINE
8
BLACK
6
CONTINUOUS
10
-0.0995116
20
2.32494
11
-0.107434
21
2.33651
0
LINE
8
BLACK
6
CONTINUOUS
10
-0.107434
20
2.33651
11
-0.114017
21
2.34889
0
LINE
8
BLACK
6
CONTINUOUS
10
-0.114017
20
2.34889
11
-0.119179
21
2.36193
0
LINE
8
BLACK
6
CONTINUOUS
10
-0.119179
20
2.36193
11
-0.122855
21
2.37546
0
LINE
8
BLACK
6
CONTINUOUS
10
-0.122855
20
2.37546
11
-0.125001
21
2.38932
0
LINE
8
BLACK
6
CONTINUOUS
10
-0.125001
20
2.38932
11
-0.125588
21
2.40333
0
LINE
8
BLACK
6
CONTINUOUS
10
-0.125588
20
2.40333
11
-0.125467
21
2.40505
0
LINE
8
BLACK
6
CONTINUOUS
10
-0.125467
20
2.40505
11
-0.12461
21
2.41732
0
LINE
8
BLACK
6
CONTINUOUS
10
-0.12461
20
2.41732
11
-0.122078
21
2.43111
0
LINE
8
BLACK
6
CONTINUOUS
10
-0.108602
20
2.37968
11
-0.105365
21
2.36734
0
LINE
8
BLACK
6
CONTINUOUS
10
-0.105365
20
2.36734
11
-0.100732
21
2.35546
0
LINE
8
BLACK
6
CONTINUOUS
10
-0.100732
20
2.35546
11
-0.0947636
21
2.34418
0
LINE
8
BLACK
6
CONTINUOUS
10
-0.0947636
20
2.34418
11
-0.0875393
21
2.33367
0
LINE
8
BLACK
6
CONTINUOUS
10
-0.0875393
20
2.33367
11
-0.0791546
21
2.32406
0
LINE
8
BLACK
6
CONTINUOUS
10
-0.0791546
20
2.32406
11
-0.0697208
21
2.31548
0
LINE
8
BLACK
6
CONTINUOUS
10
-0.0697208
20
2.31548
11
-0.0593629
21
2.30803
0
LINE
8
BLACK
6
CONTINUOUS
10
-0.0593629
20
2.30803
11
-0.0482181
21
2.30183
0
LINE
8
BLACK
6
CONTINUOUS
10
-0.0482181
20
2.30183
11
-0.0364343
21
2.29695
0
LINE
8
BLACK
6
CONTINUOUS
10
-0.0364343
20
2.29695
11
-0.0241675
21
2.29346
0
LINE
8
BLACK
6
CONTINUOUS
10
-0.0241675
20
2.29346
11
-0.0115804
21
2.29139
0
LINE
8
BLACK
6
CONTINUOUS
10
-0.0115804
20
2.29139
11
0.00116016
21
2.29079
0
LINE
8
BLACK
6
CONTINUOUS
10
0.00116016
20
2.29079
11
0.0138854
21
2.29166
0
LINE
8
BLACK
6
CONTINUOUS
10
0.0138854
20
2.29166
11
0.0264265
21
2.29399
0
LINE
8
BLACK
6
CONTINUOUS
10
0.0264265
20
2.29399
11
0.0386174
21
2.29774
0
LINE
8
BLACK
6
CONTINUOUS
10
0.0386174
20
2.29774
11
0.0502965
21
2.30286
0
LINE
8
BLACK
6
CONTINUOUS
10
0.0502965
20
2.30286
11
0.0613088
21
2.3093
0
LINE
8
BLACK
6
CONTINUOUS
10
0.0613088
20
2.3093
11
0.0715086
21
2.31696
0
LINE
8
BLACK
6
CONTINUOUS
10
0.0715086
20
2.31696
11
0.0807606
21
2.32574
0
LINE
8
BLACK
6
CONTINUOUS
10
0.0807606
20
2.32574
11
0.0889421
21
2.33552
0
LINE
8
BLACK
6
CONTINUOUS
10
0.0889421
20
2.33552
11
0.0959447
21
2.34618
0
LINE
8
BLACK
6
CONTINUOUS
10
0.0959447
20
2.34618
11
0.101676
21
2.35758
0
LINE
8
BLACK
6
CONTINUOUS
10
0.101676
20
2.35758
11
0.106059
21
2.36955
0
LINE
8
BLACK
6
CONTINUOUS
10
0.106059
20
2.36955
11
0.109036
21
2.38196
0
LINE
8
BLACK
6
CONTINUOUS
10
0.109036
20
2.38196
11
0.110569
21
2.39462
0
LINE
8
BLACK
6
CONTINUOUS
10
0.110569
20
2.39462
11
0.110787
21
2.40157
0
LINE
8
BLACK
6
CONTINUOUS
10
0.110787
20
2.40157
11
0.110053
21
2.41431
0
LINE
8
BLACK
6
CONTINUOUS
10
0.110053
20
2.41431
11
0.10786
21
2.42687
0
LINE
8
BLACK
6
CONTINUOUS
10
0.10786
20
2.42687
11
0.104238
21
2.4391
0
LINE
8
BLACK
6
CONTINUOUS
10
0.104238
20
2.4391
11
0.0992336
21
2.45083
0
LINE
8
BLACK
6
CONTINUOUS
10
0.0992336
20
2.45083
11
0.0929142
21
2.46191
0
LINE
8
BLACK
6
CONTINUOUS
10
0.0929142
20
2.46191
11
0.0853632
21
2.47219
0
LINE
8
BLACK
6
CONTINUOUS
10
0.0853632
20
2.47219
11
0.0766808
21
2.48154
0
LINE
8
BLACK
6
CONTINUOUS
10
0.0766808
20
2.48154
11
0.066982
21
2.48982
0
LINE
8
BLACK
6
CONTINUOUS
10
0.066982
20
2.48982
11
0.0563954
21
2.49693
0
LINE
8
BLACK
6
CONTINUOUS
10
0.0563954
20
2.49693
11
0.0450613
21
2.50278
0
LINE
8
BLACK
6
CONTINUOUS
10
0.0450613
20
2.50278
11
0.03313
21
2.50729
0
LINE
8
BLACK
6
CONTINUOUS
10
0.03313
20
2.50729
11
0.0207595
21
2.5104
0
LINE
8
BLACK
6
CONTINUOUS
10
0.0207595
20
2.5104
11
0.00811386
21
2.51206
0
LINE
8
BLACK
6
CONTINUOUS
10
0.00811386
20
2.51206
11
-0.00463929
21
2.51227
0
LINE
8
BLACK
6
CONTINUOUS
10
-0.00463929
20
2.51227
11
-0.017331
21
2.511
0
LINE
8
BLACK
6
CONTINUOUS
10
-0.017331
20
2.511
11
-0.029793
21
2.50828
0
LINE
8
BLACK
6
CONTINUOUS
10
-0.029793
20
2.50828
11
-0.04186
21
2.50415
0
LINE
8
BLACK
6
CONTINUOUS
10
-0.04186
20
2.50415
11
-0.0533722
21
2.49866
0
LINE
8
BLACK
6
CONTINUOUS
10
-0.0533722
20
2.49866
11
-0.0641771
21
2.49188
0
LINE
8
BLACK
6
CONTINUOUS
10
-0.0641771
20
2.49188
11
-0.0741313
21
2.48391
0
LINE
8
BLACK
6
CONTINUOUS
10
-0.0741313
20
2.48391
11
-0.0831029
21
2.47484
0
LINE
8
BLACK
6
CONTINUOUS
10
-0.0831029
20
2.47484
11
-0.090973
21
2.4648
0
LINE
8
BLACK
6
CONTINUOUS
10
-0.090973
20
2.4648
11
-0.0976374
21
2.45393
0
LINE
8
BLACK
6
CONTINUOUS
10
-0.0976374
20
2.45393
11
-0.103008
21
2.44236
0
LINE
8
BLACK
6
CONTINUOUS
10
-0.103008
20
2.44236
11
-0.107012
21
2.43025
0
LINE
8
BLACK
6
CONTINUOUS
10
-0.107012
20
2.43025
11
-0.109599
21
2.41776
0
LINE
8
BLACK
6
CONTINUOUS
10
-0.109599
20
2.41776
11
-0.110733
21
2.40505
0
LINE
8
BLACK
6
CONTINUOUS
10
-0.110733
20
2.40505
11
-0.110399
21
2.3923
0
LINE
8
BLACK
6
CONTINUOUS
10
-0.110399
20
2.3923
11
-0.108602
21
2.37968
0
LINE
8
BLACK
6
CONTINUOUS
10
1.87792
20
2.43111
11
1.88197
21
2.44453
0
LINE
8
BLACK
6
CONTINUOUS
10
1.88197
20
2.44453
11
1.8875
21
2.45742
0
LINE
8
BLACK
6
CONTINUOUS
10
1.8875
20
2.45742
11
1.89442
21
2.46961
0
LINE
8
BLACK
6
CONTINUOUS
10
1.89442
20
2.46961
11
1.90267
21
2.48096
0
LINE
8
BLACK
6
CONTINUOUS
10
1.90267
20
2.48096
11
1.91212
21
2.49131
0
LINE
8
BLACK
6
CONTINUOUS
10
1.91212
20
2.49131
11
1.92267
21
2.50055
0
LINE
8
BLACK
6
CONTINUOUS
10
1.92267
20
2.50055
11
1.93419
21
2.50855
0
LINE
8
BLACK
6
CONTINUOUS
10
1.93419
20
2.50855
11
1.94652
21
2.51522
0
LINE
8
BLACK
6
CONTINUOUS
10
1.94652
20
2.51522
11
1.95952
21
2.52047
0
LINE
8
BLACK
6
CONTINUOUS
10
1.95952
20
2.52047
11
1.97303
21
2.52424
0
LINE
8
BLACK
6
CONTINUOUS
10
1.97303
20
2.52424
11
1.98687
21
2.52649
0
LINE
8
BLACK
6
CONTINUOUS
10
1.98687
20
2.52649
11
2.00088
21
2.52717
0
LINE
8
BLACK
6
CONTINUOUS
10
2.00088
20
2.52717
11
2.01487
21
2.52629
0
LINE
8
BLACK
6
CONTINUOUS
10
2.01487
20
2.52629
11
2.02868
21
2.52386
0
LINE
8
BLACK
6
CONTINUOUS
10
2.02868
20
2.52386
11
2.04213
21
2.5199
0
LINE
8
BLACK
6
CONTINUOUS
10
2.04213
20
2.5199
11
2.05506
21
2.51446
0
LINE
8
BLACK
6
CONTINUOUS
10
2.05506
20
2.51446
11
2.0673
21
2.50762
0
LINE
8
BLACK
6
CONTINUOUS
10
2.0673
20
2.50762
11
2.0787
21
2.49946
0
LINE
8
BLACK
6
CONTINUOUS
10
2.0787
20
2.49946
11
2.08912
21
2.49008
0
LINE
8
BLACK
6
CONTINUOUS
10
2.08912
20
2.49008
11
2.09843
21
2.47959
0
LINE
8
BLACK
6
CONTINUOUS
10
2.09843
20
2.47959
11
2.10651
21
2.46813
0
LINE
8
BLACK
6
CONTINUOUS
10
2.10651
20
2.46813
11
2.11327
21
2.45584
0
LINE
8
BLACK
6
CONTINUOUS
10
2.11327
20
2.45584
11
2.11861
21
2.44288
0
LINE
8
BLACK
6
CONTINUOUS
10
2.11861
20
2.44288
11
2.12248
21
2.4294
0
LINE
8
BLACK
6
CONTINUOUS
10
2.12248
20
2.4294
11
2.12482
21
2.41558
0
LINE
8
BLACK
6
CONTINUOUS
10
2.12482
20
2.41558
11
2.1256
21
2.40157
0
LINE
8
BLACK
6
CONTINUOUS
10
2.1256
20
2.40157
11
2.12555
21
2.39807
0
LINE
8
BLACK
6
CONTINUOUS
10
2.12555
20
2.39807
11
2.12438
21
2.38409
0
LINE
8
BLACK
6
CONTINUOUS
10
2.12438
20
2.38409
11
2.12165
21
2.37034
0
LINE
8
BLACK
6
CONTINUOUS
10
2.12165
20
2.37034
11
2.11741
21
2.35697
0
LINE
8
BLACK
6
CONTINUOUS
10
2.11741
20
2.35697
11
2.11171
21
2.34416
0
LINE
8
BLACK
6
CONTINUOUS
10
2.11171
20
2.34416
11
2.10461
21
2.33207
0
LINE
8
BLACK
6
CONTINUOUS
10
2.10461
20
2.33207
11
2.09622
21
2.32084
0
LINE
8
BLACK
6
CONTINUOUS
10
2.09622
20
2.32084
11
2.08662
21
2.31062
0
LINE
8
BLACK
6
CONTINUOUS
10
2.08662
20
2.31062
11
2.07594
21
2.30153
0
LINE
8
BLACK
6
CONTINUOUS
10
2.07594
20
2.30153
11
2.06431
21
2.29369
0
LINE
8
BLACK
6
CONTINUOUS
10
2.06431
20
2.29369
11
2.05189
21
2.28719
0
LINE
8
BLACK
6
CONTINUOUS
10
2.05189
20
2.28719
11
2.03881
21
2.28212
0
LINE
8
BLACK
6
CONTINUOUS
10
2.03881
20
2.28212
11
2.02526
21
2.27854
0
LINE
8
BLACK
6
CONTINUOUS
10
2.02526
20
2.27854
11
2.01138
21
2.27649
0
LINE
8
BLACK
6
CONTINUOUS
10
2.01138
20
2.27649
11
1.99737
21
2.276
0
LINE
8
BLACK
6
CONTINUOUS
10
1.99737
20
2.276
11
1.98339
21
2.27708
0
LINE
8
BLACK
6
CONTINUOUS
10
1.98339
20
2.27708
11
1.96961
21
2.27971
0
LINE
8
BLACK
6
CONTINUOUS
10
1.96961
20
2.27971
11
1.95622
21
2.28385
0
LINE
8
BLACK
6
CONTINUOUS
10
1.95622
20
2.28385
11
1.94337
21
2.28947
0
LINE
8
BLACK
6
CONTINUOUS
10
1.94337
20
2.28947
11
1.93123
21
2.29648
0
LINE
8
BLACK
6
CONTINUOUS
10
1.93123
20
2.29648
11
1.91994
21
2.3048
0
LINE
8
BLACK
6
CONTINUOUS
10
1.91994
20
2.3048
11
1.90965
21
2.31433
0
LINE
8
BLACK
6
CONTINUOUS
10
1.90965
20
2.31433
11
1.90049
21
2.32494
0
LINE
8
BLACK
6
CONTINUOUS
10
1.90049
20
2.32494
11
1.89257
21
2.33651
0
LINE
8
BLACK
6
CONTINUOUS
10
1.89257
20
2.33651
11
1.88598
21
2.34889
0
LINE
8
BLACK
6
CONTINUOUS
10
1.88598
20
2.34889
11
1.88082
21
2.36193
0
LINE
8
BLACK
6
CONTINUOUS
10
1.88082
20
2.36193
11
1.87714
21
2.37546
0
LINE
8
BLACK
6
CONTINUOUS
10
1.87714
20
2.37546
11
1.875
21
2.38932
0
LINE
8
BLACK
6
CONTINUOUS
10
1.875
20
2.38932
11
1.87441
21
2.40333
0
LINE
8
BLACK
6
CONTINUOUS
10
1.87441
20
2.40333
11
1.87453
21
2.40505
0
LINE
8
BLACK
6
CONTINUOUS
10
1.87453
20
2.40505
11
1.87539
21
2.41732
0
LINE
8
BLACK
6
CONTINUOUS
10
1.87539
20
2.41732
11
1.87792
21
2.43111
0
LINE
8
BLACK
6
CONTINUOUS
10
1.8914
20
2.37968
11
1.89463
21
2.36734
0
LINE
8
BLACK
6
CONTINUOUS
10
1.89463
20
2.36734
11
1.89927
21
2.35546
0
LINE
8
BLACK
6
CONTINUOUS
10
1.89927
20
2.35546
11
1.90524
21
2.34418
0
LINE
8
BLACK
6
CONTINUOUS
10
1.90524
20
2.34418
11
1.91246
21
2.33367
0
LINE
8
BLACK
6
CONTINUOUS
10
1.91246
20
2.33367
11
1.92085
21
2.32406
0
LINE
8
BLACK
6
CONTINUOUS
10
1.92085
20
2.32406
11
1.93028
21
2.31548
0
LINE
8
BLACK
6
CONTINUOUS
10
1.93028
20
2.31548
11
1.94064
21
2.30803
0
LINE
8
BLACK
6
CONTINUOUS
10
1.94064
20
2.30803
11
1.95178
21
2.30183
0
LINE
8
BLACK
6
CONTINUOUS
10
1.95178
20
2.30183
11
1.96357
21
2.29695
0
LINE
8
BLACK
6
CONTINUOUS
10
1.96357
20
2.29695
11
1.97583
21
2.29346
0
LINE
8
BLACK
6
CONTINUOUS
10
1.97583
20
2.29346
11
1.98842
21
2.29139
0
LINE
8
BLACK
6
CONTINUOUS
10
1.98842
20
2.29139
11
2.00116
21
2.29079
0
LINE
8
BLACK
6
CONTINUOUS
10
2.00116
20
2.29079
11
2.01389
21
2.29166
0
LINE
8
BLACK
6
CONTINUOUS
10
2.01389
20
2.29166
11
2.02643
21
2.29399
0
LINE
8
BLACK
6
CONTINUOUS
10
2.02643
20
2.29399
11
2.03862
21
2.29774
0
LINE
8
BLACK
6
CONTINUOUS
10
2.03862
20
2.29774
11
2.0503
21
2.30286
0
LINE
8
BLACK
6
CONTINUOUS
10
2.0503
20
2.30286
11
2.06131
21
2.3093
0
LINE
8
BLACK
6
CONTINUOUS
10
2.06131
20
2.3093
11
2.07151
21
2.31696
0
LINE
8
BLACK
6
CONTINUOUS
10
2.07151
20
2.31696
11
2.08076
21
2.32574
0
LINE
8
BLACK
6
CONTINUOUS
10
2.08076
20
2.32574
11
2.08894
21
2.33552
0
LINE
8
BLACK
6
CONTINUOUS
10
2.08894
20
2.33552
11
2.09594
21
2.34618
0
LINE
8
BLACK
6
CONTINUOUS
10
2.09594
20
2.34618
11
2.10168
21
2.35758
0
LINE
8
BLACK
6
CONTINUOUS
10
2.10168
20
2.35758
11
2.10606
21
2.36955
0
LINE
8
BLACK
6
CONTINUOUS
10
2.10606
20
2.36955
11
2.10904
21
2.38196
0
LINE
8
BLACK
6
CONTINUOUS
10
2.10904
20
2.38196
11
2.11057
21
2.39462
0
LINE
8
BLACK
6
CONTINUOUS
10
2.11057
20
2.39462
11
2.11079
21
2.40157
0
LINE
8
BLACK
6
CONTINUOUS
10
2.11079
20
2.40157
11
2.11005
21
2.41431
0
LINE
8
BLACK
6
CONTINUOUS
10
2.11005
20
2.41431
11
2.10786
21
2.42687
0
LINE
8
BLACK
6
CONTINUOUS
10
2.10786
20
2.42687
11
2.10424
21
2.4391
0
LINE
8
BLACK
6
CONTINUOUS
10
2.10424
20
2.4391
11
2.09923
21
2.45083
0
LINE
8
BLACK
6
CONTINUOUS
10
2.09923
20
2.45083
11
2.09291
21
2.46191
0
LINE
8
BLACK
6
CONTINUOUS
10
2.09291
20
2.46191
11
2.08536
21
2.47219
0
LINE
8
BLACK
6
CONTINUOUS
10
2.08536
20
2.47219
11
2.07668
21
2.48154
0
LINE
8
BLACK
6
CONTINUOUS
10
2.07668
20
2.48154
11
2.06698
21
2.48982
0
LINE
8
BLACK
6
CONTINUOUS
10
2.06698
20
2.48982
11
2.0564
21
2.49693
0
LINE
8
BLACK
6
CONTINUOUS
10
2.0564
20
2.49693
11
2.04506
21
2.50278
0
LINE
8
BLACK
6
CONTINUOUS
10
2.04506
20
2.50278
11
2.03313
21
2.50729
0
LINE
8
BLACK
6
CONTINUOUS
10
2.03313
20
2.50729
11
2.02076
21
2.5104
0
LINE
8
BLACK
6
CONTINUOUS
10
2.02076
20
2.5104
11
2.00811
21
2.51206
0
LINE
8
BLACK
6
CONTINUOUS
10
2.00811
20
2.51206
11
1.99536
21
2.51227
0
LINE
8
BLACK
6
CONTINUOUS
10
1.99536
20
2.51227
11
1.98267
21
2.511
0
LINE
8
BLACK
6
CONTINUOUS
10
1.98267
20
2.511
11
1.97021
21
2.50828
0
LINE
8
BLACK
6
CONTINUOUS
10
1.97021
20
2.50828
11
1.95814
21
2.50415
0
LINE
8
BLACK
6
CONTINUOUS
10
1.95814
20
2.50415
11
1.94663
21
2.49866
0
LINE
8
BLACK
6
CONTINUOUS
10
1.94663
20
2.49866
11
1.93582
21
2.49188
0
LINE
8
BLACK
6
CONTINUOUS
10
1.93582
20
2.49188
11
1.92587
21
2.48391
0
LINE
8
BLACK
6
CONTINUOUS
10
1.92587
20
2.48391
11
1.9169
21
2.47484
0
LINE
8
BLACK
6
CONTINUOUS
10
1.9169
20
2.47484
11
1.90903
21
2.4648
0
LINE
8
BLACK
6
CONTINUOUS
10
1.90903
20
2.4648
11
1.90236
21
2.45393
0
LINE
8
BLACK
6
CONTINUOUS
10
1.90236
20
2.45393
11
1.89699
21
2.44236
0
LINE
8
BLACK
6
CONTINUOUS
10
1.89699
20
2.44236
11
1.89299
21
2.43025
0
LINE
8
BLACK
6
CONTINUOUS
10
1.89299
20
2.43025
11
1.8904
21
2.41776
0
LINE
8
BLACK
6
CONTINUOUS
10
1.8904
20
2.41776
11
1.88927
21
2.40505
0
LINE
8
BLACK
6
CONTINUOUS
10
1.88927
20
2.40505
11
1.8896
21
2.3923
0
LINE
8
BLACK
6
CONTINUOUS
10
1.8896
20
2.3923
11
1.8914
21
2.37968
  0
ENDSEC
  0
EOF
