  0
SECTION
  2
HEADER
  9
$ANGBASE
  50
0.0
  9
$ANGDIR
  70
1
  9
$MEASUREMENT
  70
0
  0
ENDSEC
  0
SECTION
  2
TABLES
  0
TABLE
  2
LTYPE
  70
4
  0
LTYPE
  5
40F
  2
CONTINUOUS
  70
0
  3
Solid line
  72
65
  73
0
  40
0.0
  0
LTYPE
  5
410
  2
DASHDOT
 70
0
  3
Dash Dot ____ _ ____ _
 72
65
 73
4
 40
2.0
 49
1.25
 49
-0.25
 49
0.25
 49
-0.25
  0
LTYPE
  5
411
  2
DASHED
 70
0
  3
Dashed __ __ __ __ __
 72
65
 73
2
 40
0.75
 49
0.5
 49
-0.25
  0
LTYPE
  5
43B
  2
DOTTED
 70
0
  3
Dotted .  .  .  .
 72
65
 73
2
 40
0.2
 49
0.0
 49
-0.2
  0
ENDTAB
  0
TABLE
  2
STYLE
  70
4
  0
STYLE
  2
KICAD
  70
0
  40
0
  41
1
  42
1
  50
0
  71
0
  3
isocp.shx
  0
STYLE
  2
KICADB
  70
0
  40
0
  41
1
  42
1
  50
0
  71
0
  3
isocp.shx
  0
STYLE
  2
KICADI
  70
0
  40
0
  41
1
  42
1
  50
15
  71
0
  3
isocp.shx
  0
STYLE
  2
KICADBI
  70
0
  40
0
  41
1
  42
1
  50
15
  71
0
  3
isocp.shx
  0
ENDTAB
  0
TABLE
  2
LAYER
  70
1
  0
LAYER
  2
BLACK
  70
0
  62
7
  6
CONTINUOUS
  0
ENDTAB
  0
ENDSEC
  0
SECTION
  2
ENTITIES
0
LINE
8
BLACK
6
CONTINUOUS
10
1.21267
20
1.16213
11
1.21281
21
1.16202
0
LINE
8
BLACK
6
CONTINUOUS
10
1.21281
20
1.16202
11
1.21298
21
1.162
0
LINE
8
BLACK
6
CONTINUOUS
10
1.21298
20
1.162
11
1.21673
21
1.16012
0
LINE
8
BLACK
6
CONTINUOUS
10
1.21673
20
1.16012
11
1.21755
21
1.15951
0
LINE
8
BLACK
6
CONTINUOUS
10
1.21755
20
1.15951
11
1.21836
21
1.15766
0
LINE
8
BLACK
6
CONTINUOUS
10
1.21836
20
1.15766
11
1.21778
21
1.15572
0
LINE
8
BLACK
6
CONTINUOUS
10
1.21778
20
1.15572
11
1.2161
21
1.15461
0
LINE
8
BLACK
6
CONTINUOUS
10
1.2161
20
1.15461
11
1.21409
21
1.15484
0
LINE
8
BLACK
6
CONTINUOUS
10
1.21409
20
1.15484
11
1.21096
21
1.1564
0
LINE
8
BLACK
6
CONTINUOUS
10
1.21096
20
1.1564
11
1.20652
21
1.1564
0
LINE
8
BLACK
6
CONTINUOUS
10
1.20652
20
1.1564
11
1.20201
21
1.1549
0
LINE
8
BLACK
6
CONTINUOUS
10
1.20201
20
1.1549
11
1.19909
21
1.15198
0
LINE
8
BLACK
6
CONTINUOUS
10
1.19909
20
1.15198
11
1.19757
21
1.14895
0
LINE
8
BLACK
6
CONTINUOUS
10
1.19757
20
1.14895
11
1.19587
21
1.14212
0
LINE
8
BLACK
6
CONTINUOUS
10
1.19587
20
1.14212
11
1.19587
21
1.13722
0
LINE
8
BLACK
6
CONTINUOUS
10
1.19587
20
1.13722
11
1.19757
21
1.13039
0
LINE
8
BLACK
6
CONTINUOUS
10
1.19757
20
1.13039
11
1.19909
21
1.12736
0
LINE
8
BLACK
6
CONTINUOUS
10
1.19909
20
1.12736
11
1.20201
21
1.12444
0
LINE
8
BLACK
6
CONTINUOUS
10
1.20201
20
1.12444
11
1.20652
21
1.12294
0
LINE
8
BLACK
6
CONTINUOUS
10
1.20652
20
1.12294
11
1.20931
21
1.12294
0
LINE
8
BLACK
6
CONTINUOUS
10
1.20931
20
1.12294
11
1.21382
21
1.12444
0
LINE
8
BLACK
6
CONTINUOUS
10
1.21382
20
1.12444
11
1.21433
21
1.12496
0
LINE
8
BLACK
6
CONTINUOUS
10
1.21433
20
1.12496
11
1.21433
21
1.13391
0
LINE
8
BLACK
6
CONTINUOUS
10
1.21433
20
1.13391
11
1.20979
21
1.13391
0
LINE
8
BLACK
6
CONTINUOUS
10
1.20979
20
1.13391
11
1.20878
21
1.13408
0
LINE
8
BLACK
6
CONTINUOUS
10
1.20878
20
1.13408
11
1.20723
21
1.13538
0
LINE
8
BLACK
6
CONTINUOUS
10
1.20723
20
1.13538
11
1.20688
21
1.13737
0
LINE
8
BLACK
6
CONTINUOUS
10
1.20688
20
1.13737
11
1.20789
21
1.13912
0
LINE
8
BLACK
6
CONTINUOUS
10
1.20789
20
1.13912
11
1.20979
21
1.13981
0
LINE
8
BLACK
6
CONTINUOUS
10
1.20979
20
1.13981
11
1.21729
21
1.13981
0
LINE
8
BLACK
6
CONTINUOUS
10
1.21729
20
1.13981
11
1.21767
21
1.13974
0
LINE
8
BLACK
6
CONTINUOUS
10
1.21767
20
1.13974
11
1.2178
21
1.13977
0
LINE
8
BLACK
6
CONTINUOUS
10
1.2178
20
1.13977
11
1.21791
21
1.1397
0
LINE
8
BLACK
6
CONTINUOUS
10
1.21791
20
1.1397
11
1.2183
21
1.13963
0
LINE
8
BLACK
6
CONTINUOUS
10
1.2183
20
1.13963
11
1.21888
21
1.13914
0
LINE
8
BLACK
6
CONTINUOUS
10
1.21888
20
1.13914
11
1.21955
21
1.13876
0
LINE
8
BLACK
6
CONTINUOUS
10
1.21955
20
1.13876
11
1.21964
21
1.13851
0
LINE
8
BLACK
6
CONTINUOUS
10
1.21964
20
1.13851
11
1.21984
21
1.13833
0
LINE
8
BLACK
6
CONTINUOUS
10
1.21984
20
1.13833
11
1.21998
21
1.13758
0
LINE
8
BLACK
6
CONTINUOUS
10
1.21998
20
1.13758
11
1.22024
21
1.13686
0
LINE
8
BLACK
6
CONTINUOUS
10
1.22024
20
1.13686
11
1.22024
21
1.12373
0
LINE
8
BLACK
6
CONTINUOUS
10
1.22024
20
1.12373
11
1.22021
21
1.12355
0
LINE
8
BLACK
6
CONTINUOUS
10
1.22021
20
1.12355
11
1.22023
21
1.12348
0
LINE
8
BLACK
6
CONTINUOUS
10
1.22023
20
1.12348
11
1.22017
21
1.12336
0
LINE
8
BLACK
6
CONTINUOUS
10
1.22017
20
1.12336
11
1.22006
21
1.12272
0
LINE
8
BLACK
6
CONTINUOUS
10
1.22006
20
1.12272
11
1.21965
21
1.12223
0
LINE
8
BLACK
6
CONTINUOUS
10
1.21965
20
1.12223
11
1.21937
21
1.12165
0
LINE
8
BLACK
6
CONTINUOUS
10
1.21937
20
1.12165
11
1.2175
21
1.11977
0
LINE
8
BLACK
6
CONTINUOUS
10
1.2175
20
1.11977
11
1.21666
21
1.11918
0
LINE
8
BLACK
6
CONTINUOUS
10
1.21666
20
1.11918
11
1.21648
21
1.11917
0
LINE
8
BLACK
6
CONTINUOUS
10
1.21648
20
1.11917
11
1.21634
21
1.11906
0
LINE
8
BLACK
6
CONTINUOUS
10
1.21634
20
1.11906
11
1.21072
21
1.11718
0
LINE
8
BLACK
6
CONTINUOUS
10
1.21072
20
1.11718
11
1.20985
21
1.11705
0
LINE
8
BLACK
6
CONTINUOUS
10
1.20985
20
1.11705
11
1.20979
21
1.11703
0
LINE
8
BLACK
6
CONTINUOUS
10
1.20979
20
1.11703
11
1.20604
21
1.11703
0
LINE
8
BLACK
6
CONTINUOUS
10
1.20604
20
1.11703
11
1.20517
21
1.11719
0
LINE
8
BLACK
6
CONTINUOUS
10
1.20517
20
1.11719
11
1.2051
21
1.11718
0
LINE
8
BLACK
6
CONTINUOUS
10
1.2051
20
1.11718
11
1.19948
21
1.11906
0
LINE
8
BLACK
6
CONTINUOUS
10
1.19948
20
1.11906
11
1.19858
21
1.11955
0
LINE
8
BLACK
6
CONTINUOUS
10
1.19858
20
1.11955
11
1.19848
21
1.1197
0
LINE
8
BLACK
6
CONTINUOUS
10
1.19848
20
1.1197
11
1.19832
21
1.11977
0
LINE
8
BLACK
6
CONTINUOUS
10
1.19832
20
1.11977
11
1.19457
21
1.12352
0
LINE
8
BLACK
6
CONTINUOUS
10
1.19457
20
1.12352
11
1.19407
21
1.12424
0
LINE
8
BLACK
6
CONTINUOUS
10
1.19407
20
1.12424
11
1.19402
21
1.12429
0
LINE
8
BLACK
6
CONTINUOUS
10
1.19402
20
1.12429
11
1.19215
21
1.12804
0
LINE
8
BLACK
6
CONTINUOUS
10
1.19215
20
1.12804
11
1.192
21
1.12853
0
LINE
8
BLACK
6
CONTINUOUS
10
1.192
20
1.12853
11
1.19192
21
1.12864
0
LINE
8
BLACK
6
CONTINUOUS
10
1.19192
20
1.12864
11
1.19005
21
1.13614
0
LINE
8
BLACK
6
CONTINUOUS
10
1.19005
20
1.13614
11
1.19001
21
1.13673
0
LINE
8
BLACK
6
CONTINUOUS
10
1.19001
20
1.13673
11
1.18996
21
1.13686
0
LINE
8
BLACK
6
CONTINUOUS
10
1.18996
20
1.13686
11
1.18996
21
1.14248
0
LINE
8
BLACK
6
CONTINUOUS
10
1.18996
20
1.14248
11
1.19006
21
1.14306
0
LINE
8
BLACK
6
CONTINUOUS
10
1.19006
20
1.14306
11
1.19005
21
1.1432
0
LINE
8
BLACK
6
CONTINUOUS
10
1.19005
20
1.1432
11
1.19192
21
1.1507
0
LINE
8
BLACK
6
CONTINUOUS
10
1.19192
20
1.1507
11
1.19213
21
1.15116
0
LINE
8
BLACK
6
CONTINUOUS
10
1.19213
20
1.15116
11
1.19215
21
1.1513
0
LINE
8
BLACK
6
CONTINUOUS
10
1.19215
20
1.1513
11
1.19402
21
1.15505
0
LINE
8
BLACK
6
CONTINUOUS
10
1.19402
20
1.15505
11
1.19455
21
1.15576
0
LINE
8
BLACK
6
CONTINUOUS
10
1.19455
20
1.15576
11
1.19457
21
1.15582
0
LINE
8
BLACK
6
CONTINUOUS
10
1.19457
20
1.15582
11
1.19832
21
1.15957
0
LINE
8
BLACK
6
CONTINUOUS
10
1.19832
20
1.15957
11
1.19916
21
1.16016
0
LINE
8
BLACK
6
CONTINUOUS
10
1.19916
20
1.16016
11
1.19934
21
1.16017
0
LINE
8
BLACK
6
CONTINUOUS
10
1.19934
20
1.16017
11
1.19948
21
1.16028
0
LINE
8
BLACK
6
CONTINUOUS
10
1.19948
20
1.16028
11
1.2051
21
1.16216
0
LINE
8
BLACK
6
CONTINUOUS
10
1.2051
20
1.16216
11
1.20598
21
1.16229
0
LINE
8
BLACK
6
CONTINUOUS
10
1.20598
20
1.16229
11
1.20604
21
1.16231
0
LINE
8
BLACK
6
CONTINUOUS
10
1.20604
20
1.16231
11
1.21166
21
1.16231
0
LINE
8
BLACK
6
CONTINUOUS
10
1.21166
20
1.16231
11
1.21267
21
1.16213
0
LINE
8
BLACK
6
CONTINUOUS
10
1.17518
20
1.16213
11
1.17672
21
1.16083
0
LINE
8
BLACK
6
CONTINUOUS
10
1.17672
20
1.16083
11
1.17707
21
1.15884
0
LINE
8
BLACK
6
CONTINUOUS
10
1.17707
20
1.15884
11
1.17606
21
1.15709
0
LINE
8
BLACK
6
CONTINUOUS
10
1.17606
20
1.15709
11
1.17417
21
1.1564
0
LINE
8
BLACK
6
CONTINUOUS
10
1.17417
20
1.1564
11
1.16736
21
1.1564
0
LINE
8
BLACK
6
CONTINUOUS
10
1.16736
20
1.1564
11
1.16467
21
1.15505
0
LINE
8
BLACK
6
CONTINUOUS
10
1.16467
20
1.15505
11
1.16334
21
1.15372
0
LINE
8
BLACK
6
CONTINUOUS
10
1.16334
20
1.15372
11
1.16003
21
1.14877
0
LINE
8
BLACK
6
CONTINUOUS
10
1.16003
20
1.14877
11
1.1593
21
1.14585
0
LINE
8
BLACK
6
CONTINUOUS
10
1.1593
20
1.14585
11
1.1616
21
1.147
0
LINE
8
BLACK
6
CONTINUOUS
10
1.1616
20
1.147
11
1.16258
21
1.14729
0
LINE
8
BLACK
6
CONTINUOUS
10
1.16258
20
1.14729
11
1.16275
21
1.14725
0
LINE
8
BLACK
6
CONTINUOUS
10
1.16275
20
1.14725
11
1.16292
21
1.14731
0
LINE
8
BLACK
6
CONTINUOUS
10
1.16292
20
1.14731
11
1.17042
21
1.14731
0
LINE
8
BLACK
6
CONTINUOUS
10
1.17042
20
1.14731
11
1.17143
21
1.14713
0
LINE
8
BLACK
6
CONTINUOUS
10
1.17143
20
1.14713
11
1.17156
21
1.14702
0
LINE
8
BLACK
6
CONTINUOUS
10
1.17156
20
1.14702
11
1.17174
21
1.147
0
LINE
8
BLACK
6
CONTINUOUS
10
1.17174
20
1.147
11
1.17549
21
1.14512
0
LINE
8
BLACK
6
CONTINUOUS
10
1.17549
20
1.14512
11
1.1762
21
1.1446
0
LINE
8
BLACK
6
CONTINUOUS
10
1.1762
20
1.1446
11
1.17625
21
1.14457
0
LINE
8
BLACK
6
CONTINUOUS
10
1.17625
20
1.14457
11
1.17813
21
1.1427
0
LINE
8
BLACK
6
CONTINUOUS
10
1.17813
20
1.1427
11
1.17863
21
1.14197
0
LINE
8
BLACK
6
CONTINUOUS
10
1.17863
20
1.14197
11
1.17868
21
1.14193
0
LINE
8
BLACK
6
CONTINUOUS
10
1.17868
20
1.14193
11
1.18056
21
1.13818
0
LINE
8
BLACK
6
CONTINUOUS
10
1.18056
20
1.13818
11
1.18085
21
1.1372
0
LINE
8
BLACK
6
CONTINUOUS
10
1.18085
20
1.1372
11
1.18081
21
1.13702
0
LINE
8
BLACK
6
CONTINUOUS
10
1.18081
20
1.13702
11
1.18087
21
1.13686
0
LINE
8
BLACK
6
CONTINUOUS
10
1.18087
20
1.13686
11
1.18087
21
1.12748
0
LINE
8
BLACK
6
CONTINUOUS
10
1.18087
20
1.12748
11
1.18069
21
1.12647
0
LINE
8
BLACK
6
CONTINUOUS
10
1.18069
20
1.12647
11
1.18058
21
1.12634
0
LINE
8
BLACK
6
CONTINUOUS
10
1.18058
20
1.12634
11
1.18056
21
1.12616
0
LINE
8
BLACK
6
CONTINUOUS
10
1.18056
20
1.12616
11
1.17868
21
1.12241
0
LINE
8
BLACK
6
CONTINUOUS
10
1.17868
20
1.12241
11
1.17816
21
1.1217
0
LINE
8
BLACK
6
CONTINUOUS
10
1.17816
20
1.1217
11
1.17813
21
1.12165
0
LINE
8
BLACK
6
CONTINUOUS
10
1.17813
20
1.12165
11
1.17625
21
1.11977
0
LINE
8
BLACK
6
CONTINUOUS
10
1.17625
20
1.11977
11
1.17553
21
1.11927
0
LINE
8
BLACK
6
CONTINUOUS
10
1.17553
20
1.11927
11
1.17549
21
1.11922
0
LINE
8
BLACK
6
CONTINUOUS
10
1.17549
20
1.11922
11
1.17174
21
1.11734
0
LINE
8
BLACK
6
CONTINUOUS
10
1.17174
20
1.11734
11
1.17075
21
1.11705
0
LINE
8
BLACK
6
CONTINUOUS
10
1.17075
20
1.11705
11
1.17058
21
1.11709
0
LINE
8
BLACK
6
CONTINUOUS
10
1.17058
20
1.11709
11
1.17042
21
1.11703
0
LINE
8
BLACK
6
CONTINUOUS
10
1.17042
20
1.11703
11
1.16292
21
1.11703
0
LINE
8
BLACK
6
CONTINUOUS
10
1.16292
20
1.11703
11
1.16191
21
1.11721
0
LINE
8
BLACK
6
CONTINUOUS
10
1.16191
20
1.11721
11
1.16177
21
1.11732
0
LINE
8
BLACK
6
CONTINUOUS
10
1.16177
20
1.11732
11
1.1616
21
1.11734
0
LINE
8
BLACK
6
CONTINUOUS
10
1.1616
20
1.11734
11
1.15785
21
1.11922
0
LINE
8
BLACK
6
CONTINUOUS
10
1.15785
20
1.11922
11
1.15714
21
1.11974
0
LINE
8
BLACK
6
CONTINUOUS
10
1.15714
20
1.11974
11
1.15708
21
1.11977
0
LINE
8
BLACK
6
CONTINUOUS
10
1.15708
20
1.11977
11
1.1552
21
1.12165
0
LINE
8
BLACK
6
CONTINUOUS
10
1.1552
20
1.12165
11
1.1547
21
1.12237
0
LINE
8
BLACK
6
CONTINUOUS
10
1.1547
20
1.12237
11
1.15465
21
1.12241
0
LINE
8
BLACK
6
CONTINUOUS
10
1.15465
20
1.12241
11
1.15278
21
1.12616
0
LINE
8
BLACK
6
CONTINUOUS
10
1.15278
20
1.12616
11
1.15248
21
1.12715
0
LINE
8
BLACK
6
CONTINUOUS
10
1.15248
20
1.12715
11
1.15253
21
1.12732
0
LINE
8
BLACK
6
CONTINUOUS
10
1.15253
20
1.12732
11
1.15247
21
1.12748
0
LINE
8
BLACK
6
CONTINUOUS
10
1.15247
20
1.12748
11
1.15247
21
1.14248
0
LINE
8
BLACK
6
CONTINUOUS
10
1.15247
20
1.14248
11
1.15257
21
1.14306
0
LINE
8
BLACK
6
CONTINUOUS
10
1.15257
20
1.14306
11
1.15255
21
1.1432
0
LINE
8
BLACK
6
CONTINUOUS
10
1.15255
20
1.1432
11
1.15443
21
1.1507
0
LINE
8
BLACK
6
CONTINUOUS
10
1.15443
20
1.1507
11
1.15483
21
1.1516
0
LINE
8
BLACK
6
CONTINUOUS
10
1.15483
20
1.1516
11
1.15484
21
1.15162
0
LINE
8
BLACK
6
CONTINUOUS
10
1.15484
20
1.15162
11
1.15859
21
1.15724
0
LINE
8
BLACK
6
CONTINUOUS
10
1.15859
20
1.15724
11
1.1589
21
1.15757
0
LINE
8
BLACK
6
CONTINUOUS
10
1.1589
20
1.15757
11
1.15895
21
1.15769
0
LINE
8
BLACK
6
CONTINUOUS
10
1.15895
20
1.15769
11
1.16083
21
1.15957
0
LINE
8
BLACK
6
CONTINUOUS
10
1.16083
20
1.15957
11
1.16155
21
1.16007
0
LINE
8
BLACK
6
CONTINUOUS
10
1.16155
20
1.16007
11
1.1616
21
1.16012
0
LINE
8
BLACK
6
CONTINUOUS
10
1.1616
20
1.16012
11
1.16535
21
1.162
0
LINE
8
BLACK
6
CONTINUOUS
10
1.16535
20
1.162
11
1.16633
21
1.16229
0
LINE
8
BLACK
6
CONTINUOUS
10
1.16633
20
1.16229
11
1.1665
21
1.16225
0
LINE
8
BLACK
6
CONTINUOUS
10
1.1665
20
1.16225
11
1.16667
21
1.16231
0
LINE
8
BLACK
6
CONTINUOUS
10
1.16667
20
1.16231
11
1.17417
21
1.16231
0
LINE
8
BLACK
6
CONTINUOUS
10
1.17417
20
1.16231
11
1.17518
21
1.16213
0
LINE
8
BLACK
6
CONTINUOUS
10
1.16361
20
1.1414
11
1.16092
21
1.14006
0
LINE
8
BLACK
6
CONTINUOUS
10
1.16092
20
1.14006
11
1.15972
21
1.13886
0
LINE
8
BLACK
6
CONTINUOUS
10
1.15972
20
1.13886
11
1.15837
21
1.13616
0
LINE
8
BLACK
6
CONTINUOUS
10
1.15837
20
1.13616
11
1.15837
21
1.12818
0
LINE
8
BLACK
6
CONTINUOUS
10
1.15837
20
1.12818
11
1.15972
21
1.12548
0
LINE
8
BLACK
6
CONTINUOUS
10
1.15972
20
1.12548
11
1.16092
21
1.12429
0
LINE
8
BLACK
6
CONTINUOUS
10
1.16092
20
1.12429
11
1.16361
21
1.12294
0
LINE
8
BLACK
6
CONTINUOUS
10
1.16361
20
1.12294
11
1.16972
21
1.12294
0
LINE
8
BLACK
6
CONTINUOUS
10
1.16972
20
1.12294
11
1.17242
21
1.12429
0
LINE
8
BLACK
6
CONTINUOUS
10
1.17242
20
1.12429
11
1.17361
21
1.12548
0
LINE
8
BLACK
6
CONTINUOUS
10
1.17361
20
1.12548
11
1.17496
21
1.12818
0
LINE
8
BLACK
6
CONTINUOUS
10
1.17496
20
1.12818
11
1.17496
21
1.13616
0
LINE
8
BLACK
6
CONTINUOUS
10
1.17496
20
1.13616
11
1.17361
21
1.13886
0
LINE
8
BLACK
6
CONTINUOUS
10
1.17361
20
1.13886
11
1.17242
21
1.14006
0
LINE
8
BLACK
6
CONTINUOUS
10
1.17242
20
1.14006
11
1.16972
21
1.1414
0
LINE
8
BLACK
6
CONTINUOUS
10
1.16972
20
1.1414
11
1.16361
21
1.1414
0
LINE
8
BLACK
6
CONTINUOUS
10
1.08519
20
1.16213
11
1.08532
21
1.16202
0
LINE
8
BLACK
6
CONTINUOUS
10
1.08532
20
1.16202
11
1.0855
21
1.162
0
LINE
8
BLACK
6
CONTINUOUS
10
1.0855
20
1.162
11
1.08925
21
1.16012
0
LINE
8
BLACK
6
CONTINUOUS
10
1.08925
20
1.16012
11
1.08996
21
1.1596
0
LINE
8
BLACK
6
CONTINUOUS
10
1.08996
20
1.1596
11
1.09001
21
1.15957
0
LINE
8
BLACK
6
CONTINUOUS
10
1.09001
20
1.15957
11
1.09189
21
1.15769
0
LINE
8
BLACK
6
CONTINUOUS
10
1.09189
20
1.15769
11
1.0924
21
1.15697
0
LINE
8
BLACK
6
CONTINUOUS
10
1.0924
20
1.15697
11
1.09244
21
1.15693
0
LINE
8
BLACK
6
CONTINUOUS
10
1.09244
20
1.15693
11
1.09432
21
1.15318
0
LINE
8
BLACK
6
CONTINUOUS
10
1.09432
20
1.15318
11
1.09461
21
1.15219
0
LINE
8
BLACK
6
CONTINUOUS
10
1.09461
20
1.15219
11
1.09457
21
1.15202
0
LINE
8
BLACK
6
CONTINUOUS
10
1.09457
20
1.15202
11
1.09463
21
1.15186
0
LINE
8
BLACK
6
CONTINUOUS
10
1.09463
20
1.15186
11
1.09463
21
1.14998
0
LINE
8
BLACK
6
CONTINUOUS
10
1.09463
20
1.14998
11
1.09445
21
1.14897
0
LINE
8
BLACK
6
CONTINUOUS
10
1.09445
20
1.14897
11
1.09434
21
1.14884
0
LINE
8
BLACK
6
CONTINUOUS
10
1.09434
20
1.14884
11
1.09432
21
1.14866
0
LINE
8
BLACK
6
CONTINUOUS
10
1.09432
20
1.14866
11
1.09244
21
1.14491
0
LINE
8
BLACK
6
CONTINUOUS
10
1.09244
20
1.14491
11
1.09192
21
1.1442
0
LINE
8
BLACK
6
CONTINUOUS
10
1.09192
20
1.1442
11
1.09189
21
1.14414
0
LINE
8
BLACK
6
CONTINUOUS
10
1.09189
20
1.14414
11
1.09023
21
1.14248
0
LINE
8
BLACK
6
CONTINUOUS
10
1.09023
20
1.14248
11
1.09189
21
1.14082
0
LINE
8
BLACK
6
CONTINUOUS
10
1.09189
20
1.14082
11
1.0924
21
1.1401
0
LINE
8
BLACK
6
CONTINUOUS
10
1.0924
20
1.1401
11
1.09244
21
1.14005
0
LINE
8
BLACK
6
CONTINUOUS
10
1.09244
20
1.14005
11
1.09432
21
1.1363
0
LINE
8
BLACK
6
CONTINUOUS
10
1.09432
20
1.1363
11
1.09461
21
1.13532
0
LINE
8
BLACK
6
CONTINUOUS
10
1.09461
20
1.13532
11
1.09457
21
1.13515
0
LINE
8
BLACK
6
CONTINUOUS
10
1.09457
20
1.13515
11
1.09463
21
1.13498
0
LINE
8
BLACK
6
CONTINUOUS
10
1.09463
20
1.13498
11
1.09463
21
1.12748
0
LINE
8
BLACK
6
CONTINUOUS
10
1.09463
20
1.12748
11
1.09445
21
1.12647
0
LINE
8
BLACK
6
CONTINUOUS
10
1.09445
20
1.12647
11
1.09434
21
1.12634
0
LINE
8
BLACK
6
CONTINUOUS
10
1.09434
20
1.12634
11
1.09432
21
1.12616
0
LINE
8
BLACK
6
CONTINUOUS
10
1.09432
20
1.12616
11
1.09244
21
1.12241
0
LINE
8
BLACK
6
CONTINUOUS
10
1.09244
20
1.12241
11
1.09192
21
1.1217
0
LINE
8
BLACK
6
CONTINUOUS
10
1.09192
20
1.1217
11
1.09189
21
1.12165
0
LINE
8
BLACK
6
CONTINUOUS
10
1.09189
20
1.12165
11
1.09001
21
1.11977
0
LINE
8
BLACK
6
CONTINUOUS
10
1.09001
20
1.11977
11
1.08929
21
1.11927
0
LINE
8
BLACK
6
CONTINUOUS
10
1.08929
20
1.11927
11
1.08925
21
1.11922
0
LINE
8
BLACK
6
CONTINUOUS
10
1.08925
20
1.11922
11
1.0855
21
1.11734
0
LINE
8
BLACK
6
CONTINUOUS
10
1.0855
20
1.11734
11
1.08451
21
1.11705
0
LINE
8
BLACK
6
CONTINUOUS
10
1.08451
20
1.11705
11
1.08434
21
1.11709
0
LINE
8
BLACK
6
CONTINUOUS
10
1.08434
20
1.11709
11
1.08418
21
1.11703
0
LINE
8
BLACK
6
CONTINUOUS
10
1.08418
20
1.11703
11
1.07668
21
1.11703
0
LINE
8
BLACK
6
CONTINUOUS
10
1.07668
20
1.11703
11
1.07567
21
1.11721
0
LINE
8
BLACK
6
CONTINUOUS
10
1.07567
20
1.11721
11
1.07553
21
1.11732
0
LINE
8
BLACK
6
CONTINUOUS
10
1.07553
20
1.11732
11
1.07536
21
1.11734
0
LINE
8
BLACK
6
CONTINUOUS
10
1.07536
20
1.11734
11
1.07161
21
1.11922
0
LINE
8
BLACK
6
CONTINUOUS
10
1.07161
20
1.11922
11
1.0709
21
1.11974
0
LINE
8
BLACK
6
CONTINUOUS
10
1.0709
20
1.11974
11
1.07084
21
1.11977
0
LINE
8
BLACK
6
CONTINUOUS
10
1.07084
20
1.11977
11
1.06897
21
1.12165
0
LINE
8
BLACK
6
CONTINUOUS
10
1.06897
20
1.12165
11
1.06846
21
1.12237
0
LINE
8
BLACK
6
CONTINUOUS
10
1.06846
20
1.12237
11
1.06841
21
1.12241
0
LINE
8
BLACK
6
CONTINUOUS
10
1.06841
20
1.12241
11
1.06654
21
1.12616
0
LINE
8
BLACK
6
CONTINUOUS
10
1.06654
20
1.12616
11
1.06625
21
1.12715
0
LINE
8
BLACK
6
CONTINUOUS
10
1.06625
20
1.12715
11
1.06629
21
1.12732
0
LINE
8
BLACK
6
CONTINUOUS
10
1.06629
20
1.12732
11
1.06623
21
1.12748
0
LINE
8
BLACK
6
CONTINUOUS
10
1.06623
20
1.12748
11
1.06623
21
1.13498
0
LINE
8
BLACK
6
CONTINUOUS
10
1.06623
20
1.13498
11
1.0664
21
1.13599
0
LINE
8
BLACK
6
CONTINUOUS
10
1.0664
20
1.13599
11
1.06652
21
1.13613
0
LINE
8
BLACK
6
CONTINUOUS
10
1.06652
20
1.13613
11
1.06654
21
1.1363
0
LINE
8
BLACK
6
CONTINUOUS
10
1.06654
20
1.1363
11
1.06841
21
1.14005
0
LINE
8
BLACK
6
CONTINUOUS
10
1.06841
20
1.14005
11
1.06894
21
1.14076
0
LINE
8
BLACK
6
CONTINUOUS
10
1.06894
20
1.14076
11
1.06897
21
1.14082
0
LINE
8
BLACK
6
CONTINUOUS
10
1.06897
20
1.14082
11
1.07063
21
1.14248
0
LINE
8
BLACK
6
CONTINUOUS
10
1.07063
20
1.14248
11
1.06897
21
1.14414
0
LINE
8
BLACK
6
CONTINUOUS
10
1.06897
20
1.14414
11
1.06846
21
1.14487
0
LINE
8
BLACK
6
CONTINUOUS
10
1.06846
20
1.14487
11
1.06841
21
1.14491
0
LINE
8
BLACK
6
CONTINUOUS
10
1.06841
20
1.14491
11
1.06654
21
1.14866
0
LINE
8
BLACK
6
CONTINUOUS
10
1.06654
20
1.14866
11
1.06625
21
1.14964
0
LINE
8
BLACK
6
CONTINUOUS
10
1.06625
20
1.14964
11
1.06629
21
1.14982
0
LINE
8
BLACK
6
CONTINUOUS
10
1.06629
20
1.14982
11
1.06623
21
1.14998
0
LINE
8
BLACK
6
CONTINUOUS
10
1.06623
20
1.14998
11
1.06623
21
1.15186
0
LINE
8
BLACK
6
CONTINUOUS
10
1.06623
20
1.15186
11
1.0664
21
1.15287
0
LINE
8
BLACK
6
CONTINUOUS
10
1.0664
20
1.15287
11
1.06652
21
1.153
0
LINE
8
BLACK
6
CONTINUOUS
10
1.06652
20
1.153
11
1.06654
21
1.15318
0
LINE
8
BLACK
6
CONTINUOUS
10
1.06654
20
1.15318
11
1.06841
21
1.15693
0
LINE
8
BLACK
6
CONTINUOUS
10
1.06841
20
1.15693
11
1.06894
21
1.15764
0
LINE
8
BLACK
6
CONTINUOUS
10
1.06894
20
1.15764
11
1.06897
21
1.15769
0
LINE
8
BLACK
6
CONTINUOUS
10
1.06897
20
1.15769
11
1.07084
21
1.15957
0
LINE
8
BLACK
6
CONTINUOUS
10
1.07084
20
1.15957
11
1.07156
21
1.16007
0
LINE
8
BLACK
6
CONTINUOUS
10
1.07156
20
1.16007
11
1.07161
21
1.16012
0
LINE
8
BLACK
6
CONTINUOUS
10
1.07161
20
1.16012
11
1.07536
21
1.162
0
LINE
8
BLACK
6
CONTINUOUS
10
1.07536
20
1.162
11
1.07634
21
1.16229
0
LINE
8
BLACK
6
CONTINUOUS
10
1.07634
20
1.16229
11
1.07651
21
1.16225
0
LINE
8
BLACK
6
CONTINUOUS
10
1.07651
20
1.16225
11
1.07668
21
1.16231
0
LINE
8
BLACK
6
CONTINUOUS
10
1.07668
20
1.16231
11
1.08418
21
1.16231
0
LINE
8
BLACK
6
CONTINUOUS
10
1.08418
20
1.16231
11
1.08519
21
1.16213
0
LINE
8
BLACK
6
CONTINUOUS
10
1.07737
20
1.13953
11
1.07468
21
1.13818
0
LINE
8
BLACK
6
CONTINUOUS
10
1.07468
20
1.13818
11
1.07348
21
1.13698
0
LINE
8
BLACK
6
CONTINUOUS
10
1.07348
20
1.13698
11
1.07213
21
1.13429
0
LINE
8
BLACK
6
CONTINUOUS
10
1.07213
20
1.13429
11
1.07213
21
1.12818
0
LINE
8
BLACK
6
CONTINUOUS
10
1.07213
20
1.12818
11
1.07348
21
1.12548
0
LINE
8
BLACK
6
CONTINUOUS
10
1.07348
20
1.12548
11
1.07468
21
1.12429
0
LINE
8
BLACK
6
CONTINUOUS
10
1.07468
20
1.12429
11
1.07737
21
1.12294
0
LINE
8
BLACK
6
CONTINUOUS
10
1.07737
20
1.12294
11
1.08348
21
1.12294
0
LINE
8
BLACK
6
CONTINUOUS
10
1.08348
20
1.12294
11
1.08618
21
1.12429
0
LINE
8
BLACK
6
CONTINUOUS
10
1.08618
20
1.12429
11
1.08737
21
1.12548
0
LINE
8
BLACK
6
CONTINUOUS
10
1.08737
20
1.12548
11
1.08872
21
1.12818
0
LINE
8
BLACK
6
CONTINUOUS
10
1.08872
20
1.12818
11
1.08872
21
1.13429
0
LINE
8
BLACK
6
CONTINUOUS
10
1.08872
20
1.13429
11
1.08737
21
1.13698
0
LINE
8
BLACK
6
CONTINUOUS
10
1.08737
20
1.13698
11
1.08618
21
1.13818
0
LINE
8
BLACK
6
CONTINUOUS
10
1.08618
20
1.13818
11
1.08348
21
1.13953
0
LINE
8
BLACK
6
CONTINUOUS
10
1.08348
20
1.13953
11
1.07737
21
1.13953
0
LINE
8
BLACK
6
CONTINUOUS
10
1.07737
20
1.1564
11
1.07468
21
1.15505
0
LINE
8
BLACK
6
CONTINUOUS
10
1.07468
20
1.15505
11
1.07348
21
1.15386
0
LINE
8
BLACK
6
CONTINUOUS
10
1.07348
20
1.15386
11
1.07213
21
1.15116
0
LINE
8
BLACK
6
CONTINUOUS
10
1.07213
20
1.15116
11
1.07213
21
1.15068
0
LINE
8
BLACK
6
CONTINUOUS
10
1.07213
20
1.15068
11
1.07348
21
1.14798
0
LINE
8
BLACK
6
CONTINUOUS
10
1.07348
20
1.14798
11
1.07468
21
1.14678
0
LINE
8
BLACK
6
CONTINUOUS
10
1.07468
20
1.14678
11
1.07737
21
1.14543
0
LINE
8
BLACK
6
CONTINUOUS
10
1.07737
20
1.14543
11
1.08348
21
1.14543
0
LINE
8
BLACK
6
CONTINUOUS
10
1.08348
20
1.14543
11
1.08618
21
1.14678
0
LINE
8
BLACK
6
CONTINUOUS
10
1.08618
20
1.14678
11
1.08737
21
1.14798
0
LINE
8
BLACK
6
CONTINUOUS
10
1.08737
20
1.14798
11
1.08872
21
1.15068
0
LINE
8
BLACK
6
CONTINUOUS
10
1.08872
20
1.15068
11
1.08872
21
1.15116
0
LINE
8
BLACK
6
CONTINUOUS
10
1.08872
20
1.15116
11
1.08737
21
1.15386
0
LINE
8
BLACK
6
CONTINUOUS
10
1.08737
20
1.15386
11
1.08618
21
1.15505
0
LINE
8
BLACK
6
CONTINUOUS
10
1.08618
20
1.15505
11
1.08348
21
1.1564
0
LINE
8
BLACK
6
CONTINUOUS
10
1.08348
20
1.1564
11
1.07737
21
1.1564
0
LINE
8
BLACK
6
CONTINUOUS
10
1.04769
20
1.16213
11
1.04783
21
1.16202
0
LINE
8
BLACK
6
CONTINUOUS
10
1.04783
20
1.16202
11
1.048
21
1.162
0
LINE
8
BLACK
6
CONTINUOUS
10
1.048
20
1.162
11
1.05175
21
1.16012
0
LINE
8
BLACK
6
CONTINUOUS
10
1.05175
20
1.16012
11
1.05246
21
1.1596
0
LINE
8
BLACK
6
CONTINUOUS
10
1.05246
20
1.1596
11
1.05252
21
1.15957
0
LINE
8
BLACK
6
CONTINUOUS
10
1.05252
20
1.15957
11
1.05439
21
1.15769
0
LINE
8
BLACK
6
CONTINUOUS
10
1.05439
20
1.15769
11
1.0549
21
1.15697
0
LINE
8
BLACK
6
CONTINUOUS
10
1.0549
20
1.15697
11
1.05495
21
1.15693
0
LINE
8
BLACK
6
CONTINUOUS
10
1.05495
20
1.15693
11
1.05682
21
1.15318
0
LINE
8
BLACK
6
CONTINUOUS
10
1.05682
20
1.15318
11
1.05711
21
1.15219
0
LINE
8
BLACK
6
CONTINUOUS
10
1.05711
20
1.15219
11
1.05707
21
1.15202
0
LINE
8
BLACK
6
CONTINUOUS
10
1.05707
20
1.15202
11
1.05713
21
1.15186
0
LINE
8
BLACK
6
CONTINUOUS
10
1.05713
20
1.15186
11
1.05713
21
1.14811
0
LINE
8
BLACK
6
CONTINUOUS
10
1.05713
20
1.14811
11
1.05698
21
1.14724
0
LINE
8
BLACK
6
CONTINUOUS
10
1.05698
20
1.14724
11
1.05698
21
1.14717
0
LINE
8
BLACK
6
CONTINUOUS
10
1.05698
20
1.14717
11
1.05511
21
1.14155
0
LINE
8
BLACK
6
CONTINUOUS
10
1.05511
20
1.14155
11
1.05462
21
1.14065
0
LINE
8
BLACK
6
CONTINUOUS
10
1.05462
20
1.14065
11
1.05447
21
1.14055
0
LINE
8
BLACK
6
CONTINUOUS
10
1.05447
20
1.14055
11
1.05439
21
1.14039
0
LINE
8
BLACK
6
CONTINUOUS
10
1.05439
20
1.14039
11
1.03694
21
1.12294
0
LINE
8
BLACK
6
CONTINUOUS
10
1.03694
20
1.12294
11
1.05418
21
1.12294
0
LINE
8
BLACK
6
CONTINUOUS
10
1.05418
20
1.12294
11
1.05519
21
1.12276
0
LINE
8
BLACK
6
CONTINUOUS
10
1.05519
20
1.12276
11
1.05674
21
1.12146
0
LINE
8
BLACK
6
CONTINUOUS
10
1.05674
20
1.12146
11
1.05709
21
1.11947
0
LINE
8
BLACK
6
CONTINUOUS
10
1.05709
20
1.11947
11
1.05608
21
1.11772
0
LINE
8
BLACK
6
CONTINUOUS
10
1.05608
20
1.11772
11
1.05418
21
1.11703
0
LINE
8
BLACK
6
CONTINUOUS
10
1.05418
20
1.11703
11
1.02981
21
1.11703
0
LINE
8
BLACK
6
CONTINUOUS
10
1.02981
20
1.11703
11
1.02917
21
1.11714
0
LINE
8
BLACK
6
CONTINUOUS
10
1.02917
20
1.11714
11
1.02904
21
1.11713
0
LINE
8
BLACK
6
CONTINUOUS
10
1.02904
20
1.11713
11
1.02898
21
1.11718
0
LINE
8
BLACK
6
CONTINUOUS
10
1.02898
20
1.11718
11
1.0288
21
1.11721
0
LINE
8
BLACK
6
CONTINUOUS
10
1.0288
20
1.11721
11
1.02812
21
1.11778
0
LINE
8
BLACK
6
CONTINUOUS
10
1.02812
20
1.11778
11
1.02739
21
1.11829
0
LINE
8
BLACK
6
CONTINUOUS
10
1.02739
20
1.11829
11
1.02736
21
1.11842
0
LINE
8
BLACK
6
CONTINUOUS
10
1.02736
20
1.11842
11
1.02725
21
1.11851
0
LINE
8
BLACK
6
CONTINUOUS
10
1.02725
20
1.11851
11
1.0271
21
1.11938
0
LINE
8
BLACK
6
CONTINUOUS
10
1.0271
20
1.11938
11
1.02687
21
1.12024
0
LINE
8
BLACK
6
CONTINUOUS
10
1.02687
20
1.12024
11
1.02692
21
1.12036
0
LINE
8
BLACK
6
CONTINUOUS
10
1.02692
20
1.12036
11
1.0269
21
1.1205
0
LINE
8
BLACK
6
CONTINUOUS
10
1.0269
20
1.1205
11
1.02735
21
1.12127
0
LINE
8
BLACK
6
CONTINUOUS
10
1.02735
20
1.12127
11
1.02772
21
1.12207
0
LINE
8
BLACK
6
CONTINUOUS
10
1.02772
20
1.12207
11
1.04973
21
1.14408
0
LINE
8
BLACK
6
CONTINUOUS
10
1.04973
20
1.14408
11
1.05123
21
1.14859
0
LINE
8
BLACK
6
CONTINUOUS
10
1.05123
20
1.14859
11
1.05123
21
1.15116
0
LINE
8
BLACK
6
CONTINUOUS
10
1.05123
20
1.15116
11
1.04988
21
1.15386
0
LINE
8
BLACK
6
CONTINUOUS
10
1.04988
20
1.15386
11
1.04868
21
1.15505
0
LINE
8
BLACK
6
CONTINUOUS
10
1.04868
20
1.15505
11
1.04598
21
1.1564
0
LINE
8
BLACK
6
CONTINUOUS
10
1.04598
20
1.1564
11
1.038
21
1.1564
0
LINE
8
BLACK
6
CONTINUOUS
10
1.038
20
1.1564
11
1.03531
21
1.15505
0
LINE
8
BLACK
6
CONTINUOUS
10
1.03531
20
1.15505
11
1.03377
21
1.15352
0
LINE
8
BLACK
6
CONTINUOUS
10
1.03377
20
1.15352
11
1.03293
21
1.15293
0
LINE
8
BLACK
6
CONTINUOUS
10
1.03293
20
1.15293
11
1.03092
21
1.15275
0
LINE
8
BLACK
6
CONTINUOUS
10
1.03092
20
1.15275
11
1.02926
21
1.15391
0
LINE
8
BLACK
6
CONTINUOUS
10
1.02926
20
1.15391
11
1.02874
21
1.15586
0
LINE
8
BLACK
6
CONTINUOUS
10
1.02874
20
1.15586
11
1.0296
21
1.15769
0
LINE
8
BLACK
6
CONTINUOUS
10
1.0296
20
1.15769
11
1.03147
21
1.15957
0
LINE
8
BLACK
6
CONTINUOUS
10
1.03147
20
1.15957
11
1.03219
21
1.16007
0
LINE
8
BLACK
6
CONTINUOUS
10
1.03219
20
1.16007
11
1.03224
21
1.16012
0
LINE
8
BLACK
6
CONTINUOUS
10
1.03224
20
1.16012
11
1.03599
21
1.162
0
LINE
8
BLACK
6
CONTINUOUS
10
1.03599
20
1.162
11
1.03697
21
1.16229
0
LINE
8
BLACK
6
CONTINUOUS
10
1.03697
20
1.16229
11
1.03714
21
1.16225
0
LINE
8
BLACK
6
CONTINUOUS
10
1.03714
20
1.16225
11
1.03731
21
1.16231
0
LINE
8
BLACK
6
CONTINUOUS
10
1.03731
20
1.16231
11
1.04668
21
1.16231
0
LINE
8
BLACK
6
CONTINUOUS
10
1.04668
20
1.16231
11
1.04769
21
1.16213
0
LINE
8
BLACK
6
CONTINUOUS
10
1.00578
20
1.16223
11
1.00595
21
1.16226
0
LINE
8
BLACK
6
CONTINUOUS
10
1.00595
20
1.16226
11
1.00669
21
1.16183
0
LINE
8
BLACK
6
CONTINUOUS
10
1.00669
20
1.16183
11
1.00748
21
1.16149
0
LINE
8
BLACK
6
CONTINUOUS
10
1.00748
20
1.16149
11
1.00755
21
1.16134
0
LINE
8
BLACK
6
CONTINUOUS
10
1.00755
20
1.16134
11
1.0077
21
1.16125
0
LINE
8
BLACK
6
CONTINUOUS
10
1.0077
20
1.16125
11
1.00799
21
1.16045
0
LINE
8
BLACK
6
CONTINUOUS
10
1.00799
20
1.16045
11
1.00837
21
1.15968
0
LINE
8
BLACK
6
CONTINUOUS
10
1.00837
20
1.15968
11
1.00833
21
1.15951
0
LINE
8
BLACK
6
CONTINUOUS
10
1.00833
20
1.15951
11
1.00839
21
1.15936
0
LINE
8
BLACK
6
CONTINUOUS
10
1.00839
20
1.15936
11
1.00839
21
1.12294
0
LINE
8
BLACK
6
CONTINUOUS
10
1.00839
20
1.12294
11
1.01669
21
1.12294
0
LINE
8
BLACK
6
CONTINUOUS
10
1.01669
20
1.12294
11
1.0177
21
1.12276
0
LINE
8
BLACK
6
CONTINUOUS
10
1.0177
20
1.12276
11
1.01924
21
1.12146
0
LINE
8
BLACK
6
CONTINUOUS
10
1.01924
20
1.12146
11
1.01959
21
1.11947
0
LINE
8
BLACK
6
CONTINUOUS
10
1.01959
20
1.11947
11
1.01858
21
1.11772
0
LINE
8
BLACK
6
CONTINUOUS
10
1.01858
20
1.11772
11
1.01669
21
1.11703
0
LINE
8
BLACK
6
CONTINUOUS
10
1.01669
20
1.11703
11
0.994188
21
1.11703
0
LINE
8
BLACK
6
CONTINUOUS
10
0.994188
20
1.11703
11
0.993178
21
1.11721
0
LINE
8
BLACK
6
CONTINUOUS
10
0.993178
20
1.11721
11
0.991631
21
1.11851
0
LINE
8
BLACK
6
CONTINUOUS
10
0.991631
20
1.11851
11
0.99128
21
1.1205
0
LINE
8
BLACK
6
CONTINUOUS
10
0.99128
20
1.1205
11
0.99229
21
1.12225
0
LINE
8
BLACK
6
CONTINUOUS
10
0.99229
20
1.12225
11
0.994188
21
1.12294
0
LINE
8
BLACK
6
CONTINUOUS
10
0.994188
20
1.12294
11
1.00248
21
1.12294
0
LINE
8
BLACK
6
CONTINUOUS
10
1.00248
20
1.12294
11
1.00248
21
1.15035
0
LINE
8
BLACK
6
CONTINUOUS
10
1.00248
20
1.15035
11
1.00003
21
1.14789
0
LINE
8
BLACK
6
CONTINUOUS
10
1.00003
20
1.14789
11
0.999303
21
1.14739
0
LINE
8
BLACK
6
CONTINUOUS
10
0.999303
20
1.14739
11
0.999258
21
1.14734
0
LINE
8
BLACK
6
CONTINUOUS
10
0.999258
20
1.14734
11
0.995509
21
1.14547
0
LINE
8
BLACK
6
CONTINUOUS
10
0.995509
20
1.14547
11
0.994526
21
1.14517
0
LINE
8
BLACK
6
CONTINUOUS
10
0.994526
20
1.14517
11
0.992561
21
1.14564
0
LINE
8
BLACK
6
CONTINUOUS
10
0.992561
20
1.14564
11
0.991358
21
1.14726
0
LINE
8
BLACK
6
CONTINUOUS
10
0.991358
20
1.14726
11
0.991479
21
1.14928
0
LINE
8
BLACK
6
CONTINUOUS
10
0.991479
20
1.14928
11
0.992868
21
1.15075
0
LINE
8
BLACK
6
CONTINUOUS
10
0.992868
20
1.15075
11
0.996189
21
1.15241
0
LINE
8
BLACK
6
CONTINUOUS
10
0.996189
20
1.15241
11
0.999393
21
1.15561
0
LINE
8
BLACK
6
CONTINUOUS
10
0.999393
20
1.15561
11
1.00298
21
1.16099
0
LINE
8
BLACK
6
CONTINUOUS
10
1.00298
20
1.16099
11
1.00369
21
1.16173
0
LINE
8
BLACK
6
CONTINUOUS
10
1.00369
20
1.16173
11
1.00385
21
1.16178
0
LINE
8
BLACK
6
CONTINUOUS
10
1.00385
20
1.16178
11
1.00396
21
1.16191
0
LINE
8
BLACK
6
CONTINUOUS
10
1.00396
20
1.16191
11
1.0048
21
1.16206
0
LINE
8
BLACK
6
CONTINUOUS
10
1.0048
20
1.16206
11
1.00563
21
1.1623
0
LINE
8
BLACK
6
CONTINUOUS
10
1.00563
20
1.1623
11
1.00578
21
1.16223
0
LINE
8
BLACK
6
CONTINUOUS
10
0.921942
20
1.16215
11
0.922006
21
1.16216
0
LINE
8
BLACK
6
CONTINUOUS
10
0.922006
20
1.16216
11
0.92763
21
1.16028
0
LINE
8
BLACK
6
CONTINUOUS
10
0.92763
20
1.16028
11
0.928532
21
1.15979
0
LINE
8
BLACK
6
CONTINUOUS
10
0.928532
20
1.15979
11
0.928625
21
1.15964
0
LINE
8
BLACK
6
CONTINUOUS
10
0.928625
20
1.15964
11
0.928785
21
1.15957
0
LINE
8
BLACK
6
CONTINUOUS
10
0.928785
20
1.15957
11
0.932534
21
1.15582
0
LINE
8
BLACK
6
CONTINUOUS
10
0.932534
20
1.15582
11
0.93304
21
1.1551
0
LINE
8
BLACK
6
CONTINUOUS
10
0.93304
20
1.1551
11
0.933087
21
1.15505
0
LINE
8
BLACK
6
CONTINUOUS
10
0.933087
20
1.15505
11
0.934962
21
1.1513
0
LINE
8
BLACK
6
CONTINUOUS
10
0.934962
20
1.1513
11
0.935107
21
1.15081
0
LINE
8
BLACK
6
CONTINUOUS
10
0.935107
20
1.15081
11
0.935186
21
1.1507
0
LINE
8
BLACK
6
CONTINUOUS
10
0.935186
20
1.1507
11
0.93706
21
1.1432
0
LINE
8
BLACK
6
CONTINUOUS
10
0.93706
20
1.1432
11
0.937102
21
1.14261
0
LINE
8
BLACK
6
CONTINUOUS
10
0.937102
20
1.14261
11
0.937148
21
1.14248
0
LINE
8
BLACK
6
CONTINUOUS
10
0.937148
20
1.14248
11
0.937148
21
1.13686
0
LINE
8
BLACK
6
CONTINUOUS
10
0.937148
20
1.13686
11
0.937046
21
1.13628
0
LINE
8
BLACK
6
CONTINUOUS
10
0.937046
20
1.13628
11
0.93706
21
1.13614
0
LINE
8
BLACK
6
CONTINUOUS
10
0.93706
20
1.13614
11
0.935186
21
1.12864
0
LINE
8
BLACK
6
CONTINUOUS
10
0.935186
20
1.12864
11
0.934978
21
1.12818
0
LINE
8
BLACK
6
CONTINUOUS
10
0.934978
20
1.12818
11
0.934962
21
1.12804
0
LINE
8
BLACK
6
CONTINUOUS
10
0.934962
20
1.12804
11
0.933087
21
1.12429
0
LINE
8
BLACK
6
CONTINUOUS
10
0.933087
20
1.12429
11
0.932561
21
1.12358
0
LINE
8
BLACK
6
CONTINUOUS
10
0.932561
20
1.12358
11
0.932534
21
1.12352
0
LINE
8
BLACK
6
CONTINUOUS
10
0.932534
20
1.12352
11
0.928785
21
1.11977
0
LINE
8
BLACK
6
CONTINUOUS
10
0.928785
20
1.11977
11
0.927945
21
1.11918
0
LINE
8
BLACK
6
CONTINUOUS
10
0.927945
20
1.11918
11
0.927769
21
1.11917
0
LINE
8
BLACK
6
CONTINUOUS
10
0.927769
20
1.11917
11
0.92763
21
1.11906
0
LINE
8
BLACK
6
CONTINUOUS
10
0.92763
20
1.11906
11
0.922006
21
1.11718
0
LINE
8
BLACK
6
CONTINUOUS
10
0.922006
20
1.11718
11
0.921133
21
1.11705
0
LINE
8
BLACK
6
CONTINUOUS
10
0.921133
20
1.11705
11
0.921072
21
1.11703
0
LINE
8
BLACK
6
CONTINUOUS
10
0.921072
20
1.11703
11
0.911699
21
1.11703
0
LINE
8
BLACK
6
CONTINUOUS
10
0.911699
20
1.11703
11
0.911315
21
1.1171
0
LINE
8
BLACK
6
CONTINUOUS
10
0.911315
20
1.1171
11
0.911186
21
1.11708
0
LINE
8
BLACK
6
CONTINUOUS
10
0.911186
20
1.11708
11
0.911072
21
1.11714
0
LINE
8
BLACK
6
CONTINUOUS
10
0.911072
20
1.11714
11
0.910689
21
1.11721
0
LINE
8
BLACK
6
CONTINUOUS
10
0.910689
20
1.11721
11
0.910101
21
1.1177
0
LINE
8
BLACK
6
CONTINUOUS
10
0.910101
20
1.1177
11
0.909437
21
1.11809
0
LINE
8
BLACK
6
CONTINUOUS
10
0.909437
20
1.11809
11
0.909345
21
1.11834
0
LINE
8
BLACK
6
CONTINUOUS
10
0.909345
20
1.11834
11
0.909141
21
1.11851
0
LINE
8
BLACK
6
CONTINUOUS
10
0.909141
20
1.11851
11
0.909008
21
1.11926
0
LINE
8
BLACK
6
CONTINUOUS
10
0.909008
20
1.11926
11
0.908746
21
1.11999
0
LINE
8
BLACK
6
CONTINUOUS
10
0.908746
20
1.11999
11
0.908746
21
1.15936
0
LINE
8
BLACK
6
CONTINUOUS
10
0.908746
20
1.15936
11
0.908813
21
1.15974
0
LINE
8
BLACK
6
CONTINUOUS
10
0.908813
20
1.15974
11
0.908791
21
1.15987
0
LINE
8
BLACK
6
CONTINUOUS
10
0.908791
20
1.15987
11
0.908856
21
1.15998
0
LINE
8
BLACK
6
CONTINUOUS
10
0.908856
20
1.15998
11
0.908924
21
1.16037
0
LINE
8
BLACK
6
CONTINUOUS
10
0.908924
20
1.16037
11
0.909417
21
1.16095
0
LINE
8
BLACK
6
CONTINUOUS
10
0.909417
20
1.16095
11
0.909801
21
1.16162
0
LINE
8
BLACK
6
CONTINUOUS
10
0.909801
20
1.16162
11
0.910051
21
1.16171
0
LINE
8
BLACK
6
CONTINUOUS
10
0.910051
20
1.16171
11
0.910222
21
1.16191
0
LINE
8
BLACK
6
CONTINUOUS
10
0.910222
20
1.16191
11
0.910978
21
1.16205
0
LINE
8
BLACK
6
CONTINUOUS
10
0.910978
20
1.16205
11
0.911699
21
1.16231
0
LINE
8
BLACK
6
CONTINUOUS
10
0.911699
20
1.16231
11
0.921072
21
1.16231
0
LINE
8
BLACK
6
CONTINUOUS
10
0.921072
20
1.16231
11
0.921942
21
1.16215
0
LINE
8
BLACK
6
CONTINUOUS
10
0.914651
20
1.1564
11
0.914651
21
1.12294
0
LINE
8
BLACK
6
CONTINUOUS
10
0.914651
20
1.12294
11
0.920593
21
1.12294
0
LINE
8
BLACK
6
CONTINUOUS
10
0.920593
20
1.12294
11
0.925102
21
1.12444
0
LINE
8
BLACK
6
CONTINUOUS
10
0.925102
20
1.12444
11
0.928019
21
1.12736
0
LINE
8
BLACK
6
CONTINUOUS
10
0.928019
20
1.12736
11
0.929535
21
1.13039
0
LINE
8
BLACK
6
CONTINUOUS
10
0.929535
20
1.13039
11
0.931243
21
1.13722
0
LINE
8
BLACK
6
CONTINUOUS
10
0.931243
20
1.13722
11
0.931243
21
1.14212
0
LINE
8
BLACK
6
CONTINUOUS
10
0.931243
20
1.14212
11
0.929535
21
1.14895
0
LINE
8
BLACK
6
CONTINUOUS
10
0.929535
20
1.14895
11
0.928019
21
1.15198
0
LINE
8
BLACK
6
CONTINUOUS
10
0.928019
20
1.15198
11
0.925102
21
1.1549
0
LINE
8
BLACK
6
CONTINUOUS
10
0.925102
20
1.1549
11
0.920593
21
1.1564
0
LINE
8
BLACK
6
CONTINUOUS
10
0.920593
20
1.1564
11
0.914651
21
1.1564
0
LINE
8
BLACK
6
CONTINUOUS
10
0.895836
20
1.16213
11
0.897383
21
1.16083
0
LINE
8
BLACK
6
CONTINUOUS
10
0.897383
20
1.16083
11
0.897734
21
1.15884
0
LINE
8
BLACK
6
CONTINUOUS
10
0.897734
20
1.15884
11
0.896724
21
1.15709
0
LINE
8
BLACK
6
CONTINUOUS
10
0.896724
20
1.15709
11
0.894826
21
1.1564
0
LINE
8
BLACK
6
CONTINUOUS
10
0.894826
20
1.1564
11
0.879031
21
1.1564
0
LINE
8
BLACK
6
CONTINUOUS
10
0.879031
20
1.1564
11
0.879031
21
1.14356
0
LINE
8
BLACK
6
CONTINUOUS
10
0.879031
20
1.14356
11
0.889201
21
1.14356
0
LINE
8
BLACK
6
CONTINUOUS
10
0.889201
20
1.14356
11
0.890211
21
1.14338
0
LINE
8
BLACK
6
CONTINUOUS
10
0.890211
20
1.14338
11
0.891759
21
1.14208
0
LINE
8
BLACK
6
CONTINUOUS
10
0.891759
20
1.14208
11
0.892109
21
1.14009
0
LINE
8
BLACK
6
CONTINUOUS
10
0.892109
20
1.14009
11
0.891099
21
1.13835
0
LINE
8
BLACK
6
CONTINUOUS
10
0.891099
20
1.13835
11
0.889201
21
1.13765
0
LINE
8
BLACK
6
CONTINUOUS
10
0.889201
20
1.13765
11
0.879031
21
1.13765
0
LINE
8
BLACK
6
CONTINUOUS
10
0.879031
20
1.13765
11
0.879031
21
1.12294
0
LINE
8
BLACK
6
CONTINUOUS
10
0.879031
20
1.12294
11
0.894826
21
1.12294
0
LINE
8
BLACK
6
CONTINUOUS
10
0.894826
20
1.12294
11
0.895836
21
1.12276
0
LINE
8
BLACK
6
CONTINUOUS
10
0.895836
20
1.12276
11
0.897383
21
1.12146
0
LINE
8
BLACK
6
CONTINUOUS
10
0.897383
20
1.12146
11
0.897734
21
1.11947
0
LINE
8
BLACK
6
CONTINUOUS
10
0.897734
20
1.11947
11
0.896724
21
1.11772
0
LINE
8
BLACK
6
CONTINUOUS
10
0.896724
20
1.11772
11
0.894826
21
1.11703
0
LINE
8
BLACK
6
CONTINUOUS
10
0.894826
20
1.11703
11
0.876078
21
1.11703
0
LINE
8
BLACK
6
CONTINUOUS
10
0.876078
20
1.11703
11
0.875694
21
1.1171
0
LINE
8
BLACK
6
CONTINUOUS
10
0.875694
20
1.1171
11
0.875565
21
1.11708
0
LINE
8
BLACK
6
CONTINUOUS
10
0.875565
20
1.11708
11
0.875452
21
1.11714
0
LINE
8
BLACK
6
CONTINUOUS
10
0.875452
20
1.11714
11
0.875068
21
1.11721
0
LINE
8
BLACK
6
CONTINUOUS
10
0.875068
20
1.11721
11
0.87448
21
1.1177
0
LINE
8
BLACK
6
CONTINUOUS
10
0.87448
20
1.1177
11
0.873816
21
1.11809
0
LINE
8
BLACK
6
CONTINUOUS
10
0.873816
20
1.11809
11
0.873725
21
1.11834
0
LINE
8
BLACK
6
CONTINUOUS
10
0.873725
20
1.11834
11
0.873521
21
1.11851
0
LINE
8
BLACK
6
CONTINUOUS
10
0.873521
20
1.11851
11
0.873388
21
1.11926
0
LINE
8
BLACK
6
CONTINUOUS
10
0.873388
20
1.11926
11
0.873125
21
1.11999
0
LINE
8
BLACK
6
CONTINUOUS
10
0.873125
20
1.11999
11
0.873125
21
1.15936
0
LINE
8
BLACK
6
CONTINUOUS
10
0.873125
20
1.15936
11
0.873193
21
1.15974
0
LINE
8
BLACK
6
CONTINUOUS
10
0.873193
20
1.15974
11
0.87317
21
1.15987
0
LINE
8
BLACK
6
CONTINUOUS
10
0.87317
20
1.15987
11
0.873236
21
1.15998
0
LINE
8
BLACK
6
CONTINUOUS
10
0.873236
20
1.15998
11
0.873303
21
1.16037
0
LINE
8
BLACK
6
CONTINUOUS
10
0.873303
20
1.16037
11
0.873796
21
1.16095
0
LINE
8
BLACK
6
CONTINUOUS
10
0.873796
20
1.16095
11
0.87418
21
1.16162
0
LINE
8
BLACK
6
CONTINUOUS
10
0.87418
20
1.16162
11
0.87443
21
1.16171
0
LINE
8
BLACK
6
CONTINUOUS
10
0.87443
20
1.16171
11
0.874602
21
1.16191
0
LINE
8
BLACK
6
CONTINUOUS
10
0.874602
20
1.16191
11
0.875357
21
1.16205
0
LINE
8
BLACK
6
CONTINUOUS
10
0.875357
20
1.16205
11
0.876078
21
1.16231
0
LINE
8
BLACK
6
CONTINUOUS
10
0.876078
20
1.16231
11
0.894826
21
1.16231
0
LINE
8
BLACK
6
CONTINUOUS
10
0.894826
20
1.16231
11
0.895836
21
1.16213
0
LINE
8
BLACK
6
CONTINUOUS
10
0.846469
20
1.16125
11
0.84716
21
1.15936
0
LINE
8
BLACK
6
CONTINUOUS
10
0.84716
20
1.15936
11
0.84716
21
1.12294
0
LINE
8
BLACK
6
CONTINUOUS
10
0.84716
20
1.12294
11
0.862955
21
1.12294
0
LINE
8
BLACK
6
CONTINUOUS
10
0.862955
20
1.12294
11
0.863965
21
1.12276
0
LINE
8
BLACK
6
CONTINUOUS
10
0.863965
20
1.12276
11
0.865512
21
1.12146
0
LINE
8
BLACK
6
CONTINUOUS
10
0.865512
20
1.12146
11
0.865863
21
1.11947
0
LINE
8
BLACK
6
CONTINUOUS
10
0.865863
20
1.11947
11
0.864853
21
1.11772
0
LINE
8
BLACK
6
CONTINUOUS
10
0.864853
20
1.11772
11
0.862955
21
1.11703
0
LINE
8
BLACK
6
CONTINUOUS
10
0.862955
20
1.11703
11
0.844207
21
1.11703
0
LINE
8
BLACK
6
CONTINUOUS
10
0.844207
20
1.11703
11
0.843823
21
1.1171
0
LINE
8
BLACK
6
CONTINUOUS
10
0.843823
20
1.1171
11
0.843694
21
1.11708
0
LINE
8
BLACK
6
CONTINUOUS
10
0.843694
20
1.11708
11
0.843581
21
1.11714
0
LINE
8
BLACK
6
CONTINUOUS
10
0.843581
20
1.11714
11
0.843197
21
1.11721
0
LINE
8
BLACK
6
CONTINUOUS
10
0.843197
20
1.11721
11
0.842609
21
1.1177
0
LINE
8
BLACK
6
CONTINUOUS
10
0.842609
20
1.1177
11
0.841945
21
1.11809
0
LINE
8
BLACK
6
CONTINUOUS
10
0.841945
20
1.11809
11
0.841854
21
1.11834
0
LINE
8
BLACK
6
CONTINUOUS
10
0.841854
20
1.11834
11
0.84165
21
1.11851
0
LINE
8
BLACK
6
CONTINUOUS
10
0.84165
20
1.11851
11
0.841517
21
1.11926
0
LINE
8
BLACK
6
CONTINUOUS
10
0.841517
20
1.11926
11
0.841254
21
1.11999
0
LINE
8
BLACK
6
CONTINUOUS
10
0.841254
20
1.11999
11
0.841254
21
1.15936
0
LINE
8
BLACK
6
CONTINUOUS
10
0.841254
20
1.15936
11
0.841432
21
1.16037
0
LINE
8
BLACK
6
CONTINUOUS
10
0.841432
20
1.16037
11
0.842731
21
1.16191
0
LINE
8
BLACK
6
CONTINUOUS
10
0.842731
20
1.16191
11
0.84472
21
1.16226
0
LINE
8
BLACK
6
CONTINUOUS
10
0.84472
20
1.16226
11
0.846469
21
1.16125
0
LINE
8
BLACK
6
CONTINUOUS
10
0.81897
20
1.16213
11
0.819105
21
1.16202
0
LINE
8
BLACK
6
CONTINUOUS
10
0.819105
20
1.16202
11
0.819281
21
1.162
0
LINE
8
BLACK
6
CONTINUOUS
10
0.819281
20
1.162
11
0.82303
21
1.16012
0
LINE
8
BLACK
6
CONTINUOUS
10
0.82303
20
1.16012
11
0.823739
21
1.1596
0
LINE
8
BLACK
6
CONTINUOUS
10
0.823739
20
1.1596
11
0.823798
21
1.15957
0
LINE
8
BLACK
6
CONTINUOUS
10
0.823798
20
1.15957
11
0.827547
21
1.15582
0
LINE
8
BLACK
6
CONTINUOUS
10
0.827547
20
1.15582
11
0.828135
21
1.15498
0
LINE
8
BLACK
6
CONTINUOUS
10
0.828135
20
1.15498
11
0.828161
21
1.15469
0
LINE
8
BLACK
6
CONTINUOUS
10
0.828161
20
1.15469
11
0.828324
21
1.15445
0
LINE
8
BLACK
6
CONTINUOUS
10
0.828324
20
1.15445
11
0.830199
21
1.14695
0
LINE
8
BLACK
6
CONTINUOUS
10
0.830199
20
1.14695
11
0.83024
21
1.14636
0
LINE
8
BLACK
6
CONTINUOUS
10
0.83024
20
1.14636
11
0.830287
21
1.14623
0
LINE
8
BLACK
6
CONTINUOUS
10
0.830287
20
1.14623
11
0.830287
21
1.13311
0
LINE
8
BLACK
6
CONTINUOUS
10
0.830287
20
1.13311
11
0.830184
21
1.13253
0
LINE
8
BLACK
6
CONTINUOUS
10
0.830184
20
1.13253
11
0.830199
21
1.13239
0
LINE
8
BLACK
6
CONTINUOUS
10
0.830199
20
1.13239
11
0.828324
21
1.12489
0
LINE
8
BLACK
6
CONTINUOUS
10
0.828324
20
1.12489
11
0.827906
21
1.12396
0
LINE
8
BLACK
6
CONTINUOUS
10
0.827906
20
1.12396
11
0.82767
21
1.12379
0
LINE
8
BLACK
6
CONTINUOUS
10
0.82767
20
1.12379
11
0.827547
21
1.12352
0
LINE
8
BLACK
6
CONTINUOUS
10
0.827547
20
1.12352
11
0.823798
21
1.11977
0
LINE
8
BLACK
6
CONTINUOUS
10
0.823798
20
1.11977
11
0.823075
21
1.11927
0
LINE
8
BLACK
6
CONTINUOUS
10
0.823075
20
1.11927
11
0.82303
21
1.11922
0
LINE
8
BLACK
6
CONTINUOUS
10
0.82303
20
1.11922
11
0.819281
21
1.11734
0
LINE
8
BLACK
6
CONTINUOUS
10
0.819281
20
1.11734
11
0.818298
21
1.11705
0
LINE
8
BLACK
6
CONTINUOUS
10
0.818298
20
1.11705
11
0.818126
21
1.11709
0
LINE
8
BLACK
6
CONTINUOUS
10
0.818126
20
1.11709
11
0.81796
21
1.11703
0
LINE
8
BLACK
6
CONTINUOUS
10
0.81796
20
1.11703
11
0.810461
21
1.11703
0
LINE
8
BLACK
6
CONTINUOUS
10
0.810461
20
1.11703
11
0.809451
21
1.11721
0
LINE
8
BLACK
6
CONTINUOUS
10
0.809451
20
1.11721
11
0.809316
21
1.11732
0
LINE
8
BLACK
6
CONTINUOUS
10
0.809316
20
1.11732
11
0.809141
21
1.11734
0
LINE
8
BLACK
6
CONTINUOUS
10
0.809141
20
1.11734
11
0.805391
21
1.11922
0
LINE
8
BLACK
6
CONTINUOUS
10
0.805391
20
1.11922
11
0.804682
21
1.11974
0
LINE
8
BLACK
6
CONTINUOUS
10
0.804682
20
1.11974
11
0.804624
21
1.11977
0
LINE
8
BLACK
6
CONTINUOUS
10
0.804624
20
1.11977
11
0.800874
21
1.12352
0
LINE
8
BLACK
6
CONTINUOUS
10
0.800874
20
1.12352
11
0.800286
21
1.12436
0
LINE
8
BLACK
6
CONTINUOUS
10
0.800286
20
1.12436
11
0.800261
21
1.12465
0
LINE
8
BLACK
6
CONTINUOUS
10
0.800261
20
1.12465
11
0.800098
21
1.12489
0
LINE
8
BLACK
6
CONTINUOUS
10
0.800098
20
1.12489
11
0.798223
21
1.13239
0
LINE
8
BLACK
6
CONTINUOUS
10
0.798223
20
1.13239
11
0.798181
21
1.13298
0
LINE
8
BLACK
6
CONTINUOUS
10
0.798181
20
1.13298
11
0.798135
21
1.13311
0
LINE
8
BLACK
6
CONTINUOUS
10
0.798135
20
1.13311
11
0.798135
21
1.14623
0
LINE
8
BLACK
6
CONTINUOUS
10
0.798135
20
1.14623
11
0.798237
21
1.14681
0
LINE
8
BLACK
6
CONTINUOUS
10
0.798237
20
1.14681
11
0.798223
21
1.14695
0
LINE
8
BLACK
6
CONTINUOUS
10
0.798223
20
1.14695
11
0.800098
21
1.15445
0
LINE
8
BLACK
6
CONTINUOUS
10
0.800098
20
1.15445
11
0.800515
21
1.15538
0
LINE
8
BLACK
6
CONTINUOUS
10
0.800515
20
1.15538
11
0.800751
21
1.15555
0
LINE
8
BLACK
6
CONTINUOUS
10
0.800751
20
1.15555
11
0.800874
21
1.15582
0
LINE
8
BLACK
6
CONTINUOUS
10
0.800874
20
1.15582
11
0.804624
21
1.15957
0
LINE
8
BLACK
6
CONTINUOUS
10
0.804624
20
1.15957
11
0.805347
21
1.16007
0
LINE
8
BLACK
6
CONTINUOUS
10
0.805347
20
1.16007
11
0.805391
21
1.16012
0
LINE
8
BLACK
6
CONTINUOUS
10
0.805391
20
1.16012
11
0.809141
21
1.162
0
LINE
8
BLACK
6
CONTINUOUS
10
0.809141
20
1.162
11
0.810124
21
1.16229
0
LINE
8
BLACK
6
CONTINUOUS
10
0.810124
20
1.16229
11
0.810295
21
1.16225
0
LINE
8
BLACK
6
CONTINUOUS
10
0.810295
20
1.16225
11
0.810461
21
1.16231
0
LINE
8
BLACK
6
CONTINUOUS
10
0.810461
20
1.16231
11
0.81796
21
1.16231
0
LINE
8
BLACK
6
CONTINUOUS
10
0.81796
20
1.16231
11
0.81897
21
1.16213
0
LINE
8
BLACK
6
CONTINUOUS
10
0.811158
20
1.1564
11
0.808461
21
1.15505
0
LINE
8
BLACK
6
CONTINUOUS
10
0.808461
20
1.15505
11
0.805628
21
1.15222
0
LINE
8
BLACK
6
CONTINUOUS
10
0.805628
20
1.15222
11
0.80404
21
1.14587
0
LINE
8
BLACK
6
CONTINUOUS
10
0.80404
20
1.14587
11
0.80404
21
1.13347
0
LINE
8
BLACK
6
CONTINUOUS
10
0.80404
20
1.13347
11
0.805628
21
1.12712
0
LINE
8
BLACK
6
CONTINUOUS
10
0.805628
20
1.12712
11
0.808461
21
1.12429
0
LINE
8
BLACK
6
CONTINUOUS
10
0.808461
20
1.12429
11
0.811158
21
1.12294
0
LINE
8
BLACK
6
CONTINUOUS
10
0.811158
20
1.12294
11
0.817263
21
1.12294
0
LINE
8
BLACK
6
CONTINUOUS
10
0.817263
20
1.12294
11
0.819961
21
1.12429
0
LINE
8
BLACK
6
CONTINUOUS
10
0.819961
20
1.12429
11
0.822793
21
1.12712
0
LINE
8
BLACK
6
CONTINUOUS
10
0.822793
20
1.12712
11
0.824381
21
1.13347
0
LINE
8
BLACK
6
CONTINUOUS
10
0.824381
20
1.13347
11
0.824381
21
1.14587
0
LINE
8
BLACK
6
CONTINUOUS
10
0.824381
20
1.14587
11
0.822793
21
1.15222
0
LINE
8
BLACK
6
CONTINUOUS
10
0.822793
20
1.15222
11
0.819961
21
1.15505
0
LINE
8
BLACK
6
CONTINUOUS
10
0.819961
20
1.15505
11
0.817263
21
1.1564
0
LINE
8
BLACK
6
CONTINUOUS
10
0.817263
20
1.1564
11
0.811158
21
1.1564
0
LINE
8
BLACK
6
CONTINUOUS
10
0.723357
20
1.16213
11
0.724904
21
1.16083
0
LINE
8
BLACK
6
CONTINUOUS
10
0.724904
20
1.16083
11
0.725255
21
1.15884
0
LINE
8
BLACK
6
CONTINUOUS
10
0.725255
20
1.15884
11
0.724245
21
1.15709
0
LINE
8
BLACK
6
CONTINUOUS
10
0.724245
20
1.15709
11
0.722347
21
1.1564
0
LINE
8
BLACK
6
CONTINUOUS
10
0.722347
20
1.1564
11
0.706552
21
1.1564
0
LINE
8
BLACK
6
CONTINUOUS
10
0.706552
20
1.1564
11
0.706552
21
1.14356
0
LINE
8
BLACK
6
CONTINUOUS
10
0.706552
20
1.14356
11
0.716723
21
1.14356
0
LINE
8
BLACK
6
CONTINUOUS
10
0.716723
20
1.14356
11
0.717733
21
1.14338
0
LINE
8
BLACK
6
CONTINUOUS
10
0.717733
20
1.14338
11
0.71928
21
1.14208
0
LINE
8
BLACK
6
CONTINUOUS
10
0.71928
20
1.14208
11
0.719631
21
1.14009
0
LINE
8
BLACK
6
CONTINUOUS
10
0.719631
20
1.14009
11
0.718621
21
1.13835
0
LINE
8
BLACK
6
CONTINUOUS
10
0.718621
20
1.13835
11
0.716723
21
1.13765
0
LINE
8
BLACK
6
CONTINUOUS
10
0.716723
20
1.13765
11
0.706552
21
1.13765
0
LINE
8
BLACK
6
CONTINUOUS
10
0.706552
20
1.13765
11
0.706552
21
1.12294
0
LINE
8
BLACK
6
CONTINUOUS
10
0.706552
20
1.12294
11
0.722347
21
1.12294
0
LINE
8
BLACK
6
CONTINUOUS
10
0.722347
20
1.12294
11
0.723357
21
1.12276
0
LINE
8
BLACK
6
CONTINUOUS
10
0.723357
20
1.12276
11
0.724904
21
1.12146
0
LINE
8
BLACK
6
CONTINUOUS
10
0.724904
20
1.12146
11
0.725255
21
1.11947
0
LINE
8
BLACK
6
CONTINUOUS
10
0.725255
20
1.11947
11
0.724245
21
1.11772
0
LINE
8
BLACK
6
CONTINUOUS
10
0.724245
20
1.11772
11
0.722347
21
1.11703
0
LINE
8
BLACK
6
CONTINUOUS
10
0.722347
20
1.11703
11
0.7036
21
1.11703
0
LINE
8
BLACK
6
CONTINUOUS
10
0.7036
20
1.11703
11
0.703216
21
1.1171
0
LINE
8
BLACK
6
CONTINUOUS
10
0.703216
20
1.1171
11
0.703087
21
1.11708
0
LINE
8
BLACK
6
CONTINUOUS
10
0.703087
20
1.11708
11
0.702973
21
1.11714
0
LINE
8
BLACK
6
CONTINUOUS
10
0.702973
20
1.11714
11
0.70259
21
1.11721
0
LINE
8
BLACK
6
CONTINUOUS
10
0.70259
20
1.11721
11
0.702002
21
1.1177
0
LINE
8
BLACK
6
CONTINUOUS
10
0.702002
20
1.1177
11
0.701338
21
1.11809
0
LINE
8
BLACK
6
CONTINUOUS
10
0.701338
20
1.11809
11
0.701246
21
1.11834
0
LINE
8
BLACK
6
CONTINUOUS
10
0.701246
20
1.11834
11
0.701042
21
1.11851
0
LINE
8
BLACK
6
CONTINUOUS
10
0.701042
20
1.11851
11
0.700909
21
1.11926
0
LINE
8
BLACK
6
CONTINUOUS
10
0.700909
20
1.11926
11
0.700647
21
1.11999
0
LINE
8
BLACK
6
CONTINUOUS
10
0.700647
20
1.11999
11
0.700647
21
1.15936
0
LINE
8
BLACK
6
CONTINUOUS
10
0.700647
20
1.15936
11
0.700714
21
1.15974
0
LINE
8
BLACK
6
CONTINUOUS
10
0.700714
20
1.15974
11
0.700692
21
1.15987
0
LINE
8
BLACK
6
CONTINUOUS
10
0.700692
20
1.15987
11
0.700757
21
1.15998
0
LINE
8
BLACK
6
CONTINUOUS
10
0.700757
20
1.15998
11
0.700825
21
1.16037
0
LINE
8
BLACK
6
CONTINUOUS
10
0.700825
20
1.16037
11
0.701318
21
1.16095
0
LINE
8
BLACK
6
CONTINUOUS
10
0.701318
20
1.16095
11
0.701702
21
1.16162
0
LINE
8
BLACK
6
CONTINUOUS
10
0.701702
20
1.16162
11
0.701952
21
1.16171
0
LINE
8
BLACK
6
CONTINUOUS
10
0.701952
20
1.16171
11
0.702123
21
1.16191
0
LINE
8
BLACK
6
CONTINUOUS
10
0.702123
20
1.16191
11
0.702879
21
1.16205
0
LINE
8
BLACK
6
CONTINUOUS
10
0.702879
20
1.16205
11
0.7036
21
1.16231
0
LINE
8
BLACK
6
CONTINUOUS
10
0.7036
20
1.16231
11
0.722347
21
1.16231
0
LINE
8
BLACK
6
CONTINUOUS
10
0.722347
20
1.16231
11
0.723357
21
1.16213
0
LINE
8
BLACK
6
CONTINUOUS
10
1.25204
20
1.16213
11
1.25218
21
1.16202
0
LINE
8
BLACK
6
CONTINUOUS
10
1.25218
20
1.16202
11
1.25235
21
1.162
0
LINE
8
BLACK
6
CONTINUOUS
10
1.25235
20
1.162
11
1.2561
21
1.16012
0
LINE
8
BLACK
6
CONTINUOUS
10
1.2561
20
1.16012
11
1.25692
21
1.15951
0
LINE
8
BLACK
6
CONTINUOUS
10
1.25692
20
1.15951
11
1.25773
21
1.15766
0
LINE
8
BLACK
6
CONTINUOUS
10
1.25773
20
1.15766
11
1.25715
21
1.15572
0
LINE
8
BLACK
6
CONTINUOUS
10
1.25715
20
1.15572
11
1.25547
21
1.15461
0
LINE
8
BLACK
6
CONTINUOUS
10
1.25547
20
1.15461
11
1.25346
21
1.15484
0
LINE
8
BLACK
6
CONTINUOUS
10
1.25346
20
1.15484
11
1.25033
21
1.1564
0
LINE
8
BLACK
6
CONTINUOUS
10
1.25033
20
1.1564
11
1.24589
21
1.1564
0
LINE
8
BLACK
6
CONTINUOUS
10
1.24589
20
1.1564
11
1.24138
21
1.1549
0
LINE
8
BLACK
6
CONTINUOUS
10
1.24138
20
1.1549
11
1.23846
21
1.15198
0
LINE
8
BLACK
6
CONTINUOUS
10
1.23846
20
1.15198
11
1.23694
21
1.14895
0
LINE
8
BLACK
6
CONTINUOUS
10
1.23694
20
1.14895
11
1.23524
21
1.14212
0
LINE
8
BLACK
6
CONTINUOUS
10
1.23524
20
1.14212
11
1.23524
21
1.13722
0
LINE
8
BLACK
6
CONTINUOUS
10
1.23524
20
1.13722
11
1.23694
21
1.13039
0
LINE
8
BLACK
6
CONTINUOUS
10
1.23694
20
1.13039
11
1.23846
21
1.12736
0
LINE
8
BLACK
6
CONTINUOUS
10
1.23846
20
1.12736
11
1.24138
21
1.12444
0
LINE
8
BLACK
6
CONTINUOUS
10
1.24138
20
1.12444
11
1.24589
21
1.12294
0
LINE
8
BLACK
6
CONTINUOUS
10
1.24589
20
1.12294
11
1.24868
21
1.12294
0
LINE
8
BLACK
6
CONTINUOUS
10
1.24868
20
1.12294
11
1.25319
21
1.12444
0
LINE
8
BLACK
6
CONTINUOUS
10
1.25319
20
1.12444
11
1.2537
21
1.12496
0
LINE
8
BLACK
6
CONTINUOUS
10
1.2537
20
1.12496
11
1.2537
21
1.13391
0
LINE
8
BLACK
6
CONTINUOUS
10
1.2537
20
1.13391
11
1.24916
21
1.13391
0
LINE
8
BLACK
6
CONTINUOUS
10
1.24916
20
1.13391
11
1.24815
21
1.13408
0
LINE
8
BLACK
6
CONTINUOUS
10
1.24815
20
1.13408
11
1.2466
21
1.13538
0
LINE
8
BLACK
6
CONTINUOUS
10
1.2466
20
1.13538
11
1.24625
21
1.13737
0
LINE
8
BLACK
6
CONTINUOUS
10
1.24625
20
1.13737
11
1.24726
21
1.13912
0
LINE
8
BLACK
6
CONTINUOUS
10
1.24726
20
1.13912
11
1.24916
21
1.13981
0
LINE
8
BLACK
6
CONTINUOUS
10
1.24916
20
1.13981
11
1.25666
21
1.13981
0
LINE
8
BLACK
6
CONTINUOUS
10
1.25666
20
1.13981
11
1.25704
21
1.13974
0
LINE
8
BLACK
6
CONTINUOUS
10
1.25704
20
1.13974
11
1.25717
21
1.13977
0
LINE
8
BLACK
6
CONTINUOUS
10
1.25717
20
1.13977
11
1.25728
21
1.1397
0
LINE
8
BLACK
6
CONTINUOUS
10
1.25728
20
1.1397
11
1.25767
21
1.13963
0
LINE
8
BLACK
6
CONTINUOUS
10
1.25767
20
1.13963
11
1.25825
21
1.13914
0
LINE
8
BLACK
6
CONTINUOUS
10
1.25825
20
1.13914
11
1.25892
21
1.13876
0
LINE
8
BLACK
6
CONTINUOUS
10
1.25892
20
1.13876
11
1.25901
21
1.13851
0
LINE
8
BLACK
6
CONTINUOUS
10
1.25901
20
1.13851
11
1.25921
21
1.13833
0
LINE
8
BLACK
6
CONTINUOUS
10
1.25921
20
1.13833
11
1.25935
21
1.13758
0
LINE
8
BLACK
6
CONTINUOUS
10
1.25935
20
1.13758
11
1.25961
21
1.13686
0
LINE
8
BLACK
6
CONTINUOUS
10
1.25961
20
1.13686
11
1.25961
21
1.12373
0
LINE
8
BLACK
6
CONTINUOUS
10
1.25961
20
1.12373
11
1.25958
21
1.12355
0
LINE
8
BLACK
6
CONTINUOUS
10
1.25958
20
1.12355
11
1.2596
21
1.12348
0
LINE
8
BLACK
6
CONTINUOUS
10
1.2596
20
1.12348
11
1.25954
21
1.12336
0
LINE
8
BLACK
6
CONTINUOUS
10
1.25954
20
1.12336
11
1.25943
21
1.12272
0
LINE
8
BLACK
6
CONTINUOUS
10
1.25943
20
1.12272
11
1.25902
21
1.12223
0
LINE
8
BLACK
6
CONTINUOUS
10
1.25902
20
1.12223
11
1.25874
21
1.12165
0
LINE
8
BLACK
6
CONTINUOUS
10
1.25874
20
1.12165
11
1.25687
21
1.11977
0
LINE
8
BLACK
6
CONTINUOUS
10
1.25687
20
1.11977
11
1.25603
21
1.11918
0
LINE
8
BLACK
6
CONTINUOUS
10
1.25603
20
1.11918
11
1.25585
21
1.11917
0
LINE
8
BLACK
6
CONTINUOUS
10
1.25585
20
1.11917
11
1.25571
21
1.11906
0
LINE
8
BLACK
6
CONTINUOUS
10
1.25571
20
1.11906
11
1.25009
21
1.11718
0
LINE
8
BLACK
6
CONTINUOUS
10
1.25009
20
1.11718
11
1.24922
21
1.11705
0
LINE
8
BLACK
6
CONTINUOUS
10
1.24922
20
1.11705
11
1.24916
21
1.11703
0
LINE
8
BLACK
6
CONTINUOUS
10
1.24916
20
1.11703
11
1.24541
21
1.11703
0
LINE
8
BLACK
6
CONTINUOUS
10
1.24541
20
1.11703
11
1.24454
21
1.11719
0
LINE
8
BLACK
6
CONTINUOUS
10
1.24454
20
1.11719
11
1.24447
21
1.11718
0
LINE
8
BLACK
6
CONTINUOUS
10
1.24447
20
1.11718
11
1.23885
21
1.11906
0
LINE
8
BLACK
6
CONTINUOUS
10
1.23885
20
1.11906
11
1.23795
21
1.11955
0
LINE
8
BLACK
6
CONTINUOUS
10
1.23795
20
1.11955
11
1.23785
21
1.1197
0
LINE
8
BLACK
6
CONTINUOUS
10
1.23785
20
1.1197
11
1.23769
21
1.11977
0
LINE
8
BLACK
6
CONTINUOUS
10
1.23769
20
1.11977
11
1.23395
21
1.12352
0
LINE
8
BLACK
6
CONTINUOUS
10
1.23395
20
1.12352
11
1.23344
21
1.12424
0
LINE
8
BLACK
6
CONTINUOUS
10
1.23344
20
1.12424
11
1.23339
21
1.12429
0
LINE
8
BLACK
6
CONTINUOUS
10
1.23339
20
1.12429
11
1.23152
21
1.12804
0
LINE
8
BLACK
6
CONTINUOUS
10
1.23152
20
1.12804
11
1.23137
21
1.12853
0
LINE
8
BLACK
6
CONTINUOUS
10
1.23137
20
1.12853
11
1.23129
21
1.12864
0
LINE
8
BLACK
6
CONTINUOUS
10
1.23129
20
1.12864
11
1.22942
21
1.13614
0
LINE
8
BLACK
6
CONTINUOUS
10
1.22942
20
1.13614
11
1.22938
21
1.13673
0
LINE
8
BLACK
6
CONTINUOUS
10
1.22938
20
1.13673
11
1.22933
21
1.13686
0
LINE
8
BLACK
6
CONTINUOUS
10
1.22933
20
1.13686
11
1.22933
21
1.14248
0
LINE
8
BLACK
6
CONTINUOUS
10
1.22933
20
1.14248
11
1.22943
21
1.14306
0
LINE
8
BLACK
6
CONTINUOUS
10
1.22943
20
1.14306
11
1.22942
21
1.1432
0
LINE
8
BLACK
6
CONTINUOUS
10
1.22942
20
1.1432
11
1.23129
21
1.1507
0
LINE
8
BLACK
6
CONTINUOUS
10
1.23129
20
1.1507
11
1.2315
21
1.15116
0
LINE
8
BLACK
6
CONTINUOUS
10
1.2315
20
1.15116
11
1.23152
21
1.1513
0
LINE
8
BLACK
6
CONTINUOUS
10
1.23152
20
1.1513
11
1.23339
21
1.15505
0
LINE
8
BLACK
6
CONTINUOUS
10
1.23339
20
1.15505
11
1.23392
21
1.15576
0
LINE
8
BLACK
6
CONTINUOUS
10
1.23392
20
1.15576
11
1.23395
21
1.15582
0
LINE
8
BLACK
6
CONTINUOUS
10
1.23395
20
1.15582
11
1.23769
21
1.15957
0
LINE
8
BLACK
6
CONTINUOUS
10
1.23769
20
1.15957
11
1.23853
21
1.16016
0
LINE
8
BLACK
6
CONTINUOUS
10
1.23853
20
1.16016
11
1.23871
21
1.16017
0
LINE
8
BLACK
6
CONTINUOUS
10
1.23871
20
1.16017
11
1.23885
21
1.16028
0
LINE
8
BLACK
6
CONTINUOUS
10
1.23885
20
1.16028
11
1.24447
21
1.16216
0
LINE
8
BLACK
6
CONTINUOUS
10
1.24447
20
1.16216
11
1.24535
21
1.16229
0
LINE
8
BLACK
6
CONTINUOUS
10
1.24535
20
1.16229
11
1.24541
21
1.16231
0
LINE
8
BLACK
6
CONTINUOUS
10
1.24541
20
1.16231
11
1.25103
21
1.16231
0
LINE
8
BLACK
6
CONTINUOUS
10
1.25103
20
1.16231
11
1.25204
21
1.16213
0
LINE
8
BLACK
6
CONTINUOUS
10
0.747201
20
1.16209
11
0.748125
21
1.16195
0
LINE
8
BLACK
6
CONTINUOUS
10
0.748125
20
1.16195
11
0.748182
21
1.16189
0
LINE
8
BLACK
6
CONTINUOUS
10
0.748182
20
1.16189
11
0.748265
21
1.16187
0
LINE
8
BLACK
6
CONTINUOUS
10
0.748265
20
1.16187
11
0.748845
21
1.16114
0
LINE
8
BLACK
6
CONTINUOUS
10
0.748845
20
1.16114
11
0.749465
21
1.16044
0
LINE
8
BLACK
6
CONTINUOUS
10
0.749465
20
1.16044
11
0.749468
21
1.16036
0
LINE
8
BLACK
6
CONTINUOUS
10
0.749468
20
1.16036
11
0.74952
21
1.16029
0
LINE
8
BLACK
6
CONTINUOUS
10
0.74952
20
1.16029
11
0.762644
21
1.12092
0
LINE
8
BLACK
6
CONTINUOUS
10
0.762644
20
1.12092
11
0.762794
21
1.1199
0
LINE
8
BLACK
6
CONTINUOUS
10
0.762794
20
1.1199
11
0.762052
21
1.11803
0
LINE
8
BLACK
6
CONTINUOUS
10
0.762052
20
1.11803
11
0.760276
21
1.11706
0
LINE
8
BLACK
6
CONTINUOUS
10
0.760276
20
1.11706
11
0.758297
21
1.11747
0
LINE
8
BLACK
6
CONTINUOUS
10
0.758297
20
1.11747
11
0.757041
21
1.11905
0
LINE
8
BLACK
6
CONTINUOUS
10
0.757041
20
1.11905
11
0.753965
21
1.12828
0
LINE
8
BLACK
6
CONTINUOUS
10
0.753965
20
1.12828
11
0.739474
21
1.12828
0
LINE
8
BLACK
6
CONTINUOUS
10
0.739474
20
1.12828
11
0.736397
21
1.11905
0
LINE
8
BLACK
6
CONTINUOUS
10
0.736397
20
1.11905
11
0.735909
21
1.11815
0
LINE
8
BLACK
6
CONTINUOUS
10
0.735909
20
1.11815
11
0.734188
21
1.11709
0
LINE
8
BLACK
6
CONTINUOUS
10
0.734188
20
1.11709
11
0.73219
21
1.11739
0
LINE
8
BLACK
6
CONTINUOUS
10
0.73219
20
1.11739
11
0.73085
21
1.1189
0
LINE
8
BLACK
6
CONTINUOUS
10
0.73085
20
1.1189
11
0.730795
21
1.12092
0
LINE
8
BLACK
6
CONTINUOUS
10
0.730795
20
1.12092
11
0.743918
21
1.16029
0
LINE
8
BLACK
6
CONTINUOUS
10
0.743918
20
1.16029
11
0.744406
21
1.16119
0
LINE
8
BLACK
6
CONTINUOUS
10
0.744406
20
1.16119
11
0.744479
21
1.16124
0
LINE
8
BLACK
6
CONTINUOUS
10
0.744479
20
1.16124
11
0.74451
21
1.16131
0
LINE
8
BLACK
6
CONTINUOUS
10
0.74451
20
1.16131
11
0.745331
21
1.16176
0
LINE
8
BLACK
6
CONTINUOUS
10
0.745331
20
1.16176
11
0.746127
21
1.16225
0
LINE
8
BLACK
6
CONTINUOUS
10
0.746127
20
1.16225
11
0.746211
21
1.16224
0
LINE
8
BLACK
6
CONTINUOUS
10
0.746211
20
1.16224
11
0.746286
21
1.16228
0
LINE
8
BLACK
6
CONTINUOUS
10
0.746286
20
1.16228
11
0.747201
21
1.16209
0
LINE
8
BLACK
6
CONTINUOUS
10
0.741442
20
1.13419
11
0.751996
21
1.13419
0
LINE
8
BLACK
6
CONTINUOUS
10
0.751996
20
1.13419
11
0.746719
21
1.15002
0
LINE
8
BLACK
6
CONTINUOUS
10
0.746719
20
1.15002
11
0.741442
21
1.13419
0
LINE
8
BLACK
6
CONTINUOUS
10
1.28151
20
1.16209
11
1.28243
21
1.16195
0
LINE
8
BLACK
6
CONTINUOUS
10
1.28243
20
1.16195
11
1.28249
21
1.16189
0
LINE
8
BLACK
6
CONTINUOUS
10
1.28249
20
1.16189
11
1.28257
21
1.16187
0
LINE
8
BLACK
6
CONTINUOUS
10
1.28257
20
1.16187
11
1.28315
21
1.16114
0
LINE
8
BLACK
6
CONTINUOUS
10
1.28315
20
1.16114
11
1.28377
21
1.16044
0
LINE
8
BLACK
6
CONTINUOUS
10
1.28377
20
1.16044
11
1.28378
21
1.16036
0
LINE
8
BLACK
6
CONTINUOUS
10
1.28378
20
1.16036
11
1.28383
21
1.16029
0
LINE
8
BLACK
6
CONTINUOUS
10
1.28383
20
1.16029
11
1.29695
21
1.12092
0
LINE
8
BLACK
6
CONTINUOUS
10
1.29695
20
1.12092
11
1.2971
21
1.1199
0
LINE
8
BLACK
6
CONTINUOUS
10
1.2971
20
1.1199
11
1.29636
21
1.11803
0
LINE
8
BLACK
6
CONTINUOUS
10
1.29636
20
1.11803
11
1.29458
21
1.11706
0
LINE
8
BLACK
6
CONTINUOUS
10
1.29458
20
1.11706
11
1.29261
21
1.11747
0
LINE
8
BLACK
6
CONTINUOUS
10
1.29261
20
1.11747
11
1.29135
21
1.11905
0
LINE
8
BLACK
6
CONTINUOUS
10
1.29135
20
1.11905
11
1.28827
21
1.12828
0
LINE
8
BLACK
6
CONTINUOUS
10
1.28827
20
1.12828
11
1.27378
21
1.12828
0
LINE
8
BLACK
6
CONTINUOUS
10
1.27378
20
1.12828
11
1.27071
21
1.11905
0
LINE
8
BLACK
6
CONTINUOUS
10
1.27071
20
1.11905
11
1.27022
21
1.11815
0
LINE
8
BLACK
6
CONTINUOUS
10
1.27022
20
1.11815
11
1.2685
21
1.11709
0
LINE
8
BLACK
6
CONTINUOUS
10
1.2685
20
1.11709
11
1.2665
21
1.11739
0
LINE
8
BLACK
6
CONTINUOUS
10
1.2665
20
1.11739
11
1.26516
21
1.1189
0
LINE
8
BLACK
6
CONTINUOUS
10
1.26516
20
1.1189
11
1.2651
21
1.12092
0
LINE
8
BLACK
6
CONTINUOUS
10
1.2651
20
1.12092
11
1.27823
21
1.16029
0
LINE
8
BLACK
6
CONTINUOUS
10
1.27823
20
1.16029
11
1.27871
21
1.16119
0
LINE
8
BLACK
6
CONTINUOUS
10
1.27871
20
1.16119
11
1.27879
21
1.16124
0
LINE
8
BLACK
6
CONTINUOUS
10
1.27879
20
1.16124
11
1.27882
21
1.16131
0
LINE
8
BLACK
6
CONTINUOUS
10
1.27882
20
1.16131
11
1.27964
21
1.16176
0
LINE
8
BLACK
6
CONTINUOUS
10
1.27964
20
1.16176
11
1.28044
21
1.16225
0
LINE
8
BLACK
6
CONTINUOUS
10
1.28044
20
1.16225
11
1.28052
21
1.16224
0
LINE
8
BLACK
6
CONTINUOUS
10
1.28052
20
1.16224
11
1.28059
21
1.16228
0
LINE
8
BLACK
6
CONTINUOUS
10
1.28059
20
1.16228
11
1.28151
21
1.16209
0
LINE
8
BLACK
6
CONTINUOUS
10
1.27575
20
1.13419
11
1.2863
21
1.13419
0
LINE
8
BLACK
6
CONTINUOUS
10
1.2863
20
1.13419
11
1.28103
21
1.15002
0
LINE
8
BLACK
6
CONTINUOUS
10
1.28103
20
1.15002
11
1.27575
21
1.13419
0
LINE
8
BLACK
6
CONTINUOUS
10
0.97744
20
1.16219
11
0.977828
21
1.16226
0
LINE
8
BLACK
6
CONTINUOUS
10
0.977828
20
1.16226
11
0.978387
21
1.16194
0
LINE
8
BLACK
6
CONTINUOUS
10
0.978387
20
1.16194
11
0.97901
21
1.16177
0
LINE
8
BLACK
6
CONTINUOUS
10
0.97901
20
1.16177
11
0.979236
21
1.16145
0
LINE
8
BLACK
6
CONTINUOUS
10
0.979236
20
1.16145
11
0.979577
21
1.16125
0
LINE
8
BLACK
6
CONTINUOUS
10
0.979577
20
1.16125
11
0.979798
21
1.16065
0
LINE
8
BLACK
6
CONTINUOUS
10
0.979798
20
1.16065
11
0.980168
21
1.16012
0
LINE
8
BLACK
6
CONTINUOUS
10
0.980168
20
1.16012
11
0.980133
21
1.15973
0
LINE
8
BLACK
6
CONTINUOUS
10
0.980133
20
1.15973
11
0.980268
21
1.15936
0
LINE
8
BLACK
6
CONTINUOUS
10
0.980268
20
1.15936
11
0.980268
21
1.11999
0
LINE
8
BLACK
6
CONTINUOUS
10
0.980268
20
1.11999
11
0.98009
21
1.11898
0
LINE
8
BLACK
6
CONTINUOUS
10
0.98009
20
1.11898
11
0.978792
21
1.11743
0
LINE
8
BLACK
6
CONTINUOUS
10
0.978792
20
1.11743
11
0.976803
21
1.11708
0
LINE
8
BLACK
6
CONTINUOUS
10
0.976803
20
1.11708
11
0.975053
21
1.11809
0
LINE
8
BLACK
6
CONTINUOUS
10
0.975053
20
1.11809
11
0.974363
21
1.11999
0
LINE
8
BLACK
6
CONTINUOUS
10
0.974363
20
1.11999
11
0.974363
21
1.14605
0
LINE
8
BLACK
6
CONTINUOUS
10
0.974363
20
1.14605
11
0.966868
21
1.12998
0
LINE
8
BLACK
6
CONTINUOUS
10
0.966868
20
1.12998
11
0.966645
21
1.12967
0
LINE
8
BLACK
6
CONTINUOUS
10
0.966645
20
1.12967
11
0.966611
21
1.12954
0
LINE
8
BLACK
6
CONTINUOUS
10
0.966611
20
1.12954
11
0.966504
21
1.12947
0
LINE
8
BLACK
6
CONTINUOUS
10
0.966504
20
1.12947
11
0.966279
21
1.12915
0
LINE
8
BLACK
6
CONTINUOUS
10
0.966279
20
1.12915
11
0.965585
21
1.12882
0
LINE
8
BLACK
6
CONTINUOUS
10
0.965585
20
1.12882
11
0.964957
21
1.12838
0
LINE
8
BLACK
6
CONTINUOUS
10
0.964957
20
1.12838
11
0.964691
21
1.1284
0
LINE
8
BLACK
6
CONTINUOUS
10
0.964691
20
1.1284
11
0.964448
21
1.12829
0
LINE
8
BLACK
6
CONTINUOUS
10
0.964448
20
1.12829
11
0.963708
21
1.12849
0
LINE
8
BLACK
6
CONTINUOUS
10
0.963708
20
1.12849
11
0.962945
21
1.12856
0
LINE
8
BLACK
6
CONTINUOUS
10
0.962945
20
1.12856
11
0.962756
21
1.12875
0
LINE
8
BLACK
6
CONTINUOUS
10
0.962756
20
1.12875
11
0.962498
21
1.12882
0
LINE
8
BLACK
6
CONTINUOUS
10
0.962498
20
1.12882
11
0.962058
21
1.12944
0
LINE
8
BLACK
6
CONTINUOUS
10
0.962058
20
1.12944
11
0.961516
21
1.12998
0
LINE
8
BLACK
6
CONTINUOUS
10
0.961516
20
1.12998
11
0.954021
21
1.14605
0
LINE
8
BLACK
6
CONTINUOUS
10
0.954021
20
1.14605
11
0.954021
21
1.11999
0
LINE
8
BLACK
6
CONTINUOUS
10
0.954021
20
1.11999
11
0.953843
21
1.11898
0
LINE
8
BLACK
6
CONTINUOUS
10
0.953843
20
1.11898
11
0.952545
21
1.11743
0
LINE
8
BLACK
6
CONTINUOUS
10
0.952545
20
1.11743
11
0.950556
21
1.11708
0
LINE
8
BLACK
6
CONTINUOUS
10
0.950556
20
1.11708
11
0.948807
21
1.11809
0
LINE
8
BLACK
6
CONTINUOUS
10
0.948807
20
1.11809
11
0.948116
21
1.11999
0
LINE
8
BLACK
6
CONTINUOUS
10
0.948116
20
1.11999
11
0.948116
21
1.15936
0
LINE
8
BLACK
6
CONTINUOUS
10
0.948116
20
1.15936
11
0.948294
21
1.16037
0
LINE
8
BLACK
6
CONTINUOUS
10
0.948294
20
1.16037
11
0.948547
21
1.16067
0
LINE
8
BLACK
6
CONTINUOUS
10
0.948547
20
1.16067
11
0.948649
21
1.16105
0
LINE
8
BLACK
6
CONTINUOUS
10
0.948649
20
1.16105
11
0.949178
21
1.16142
0
LINE
8
BLACK
6
CONTINUOUS
10
0.949178
20
1.16142
11
0.949592
21
1.16191
0
LINE
8
BLACK
6
CONTINUOUS
10
0.949592
20
1.16191
11
0.949981
21
1.16198
0
LINE
8
BLACK
6
CONTINUOUS
10
0.949981
20
1.16198
11
0.950304
21
1.16221
0
LINE
8
BLACK
6
CONTINUOUS
10
0.950304
20
1.16221
11
0.950946
21
1.16215
0
LINE
8
BLACK
6
CONTINUOUS
10
0.950946
20
1.16215
11
0.951581
21
1.16226
0
LINE
8
BLACK
6
CONTINUOUS
10
0.951581
20
1.16226
11
0.951923
21
1.16207
0
LINE
8
BLACK
6
CONTINUOUS
10
0.951923
20
1.16207
11
0.952316
21
1.16203
0
LINE
8
BLACK
6
CONTINUOUS
10
0.952316
20
1.16203
11
0.952772
21
1.16158
0
LINE
8
BLACK
6
CONTINUOUS
10
0.952772
20
1.16158
11
0.953331
21
1.16125
0
LINE
8
BLACK
6
CONTINUOUS
10
0.953331
20
1.16125
11
0.953465
21
1.16088
0
LINE
8
BLACK
6
CONTINUOUS
10
0.953465
20
1.16088
11
0.953744
21
1.1606
0
LINE
8
BLACK
6
CONTINUOUS
10
0.953744
20
1.1606
11
0.964192
21
1.13822
0
LINE
8
BLACK
6
CONTINUOUS
10
0.964192
20
1.13822
11
0.97464
21
1.1606
0
LINE
8
BLACK
6
CONTINUOUS
10
0.97464
20
1.1606
11
0.975228
21
1.16144
0
LINE
8
BLACK
6
CONTINUOUS
10
0.975228
20
1.16144
11
0.975585
21
1.16161
0
LINE
8
BLACK
6
CONTINUOUS
10
0.975585
20
1.16161
11
0.975839
21
1.16191
0
LINE
8
BLACK
6
CONTINUOUS
10
0.975839
20
1.16191
11
0.976474
21
1.16202
0
LINE
8
BLACK
6
CONTINUOUS
10
0.976474
20
1.16202
11
0.977059
21
1.1623
0
LINE
8
BLACK
6
CONTINUOUS
10
0.977059
20
1.1623
11
0.97744
21
1.16219
0
LINE
8
BLACK
6
CONTINUOUS
10
1.13956
20
1.13776
11
1.1411
21
1.13646
0
LINE
8
BLACK
6
CONTINUOUS
10
1.1411
20
1.13646
11
1.14145
21
1.13447
0
LINE
8
BLACK
6
CONTINUOUS
10
1.14145
20
1.13447
11
1.14044
21
1.13272
0
LINE
8
BLACK
6
CONTINUOUS
10
1.14044
20
1.13272
11
1.13855
21
1.13203
0
LINE
8
BLACK
6
CONTINUOUS
10
1.13855
20
1.13203
11
1.10855
21
1.13203
0
LINE
8
BLACK
6
CONTINUOUS
10
1.10855
20
1.13203
11
1.10754
21
1.13221
0
LINE
8
BLACK
6
CONTINUOUS
10
1.10754
20
1.13221
11
1.10599
21
1.13351
0
LINE
8
BLACK
6
CONTINUOUS
10
1.10599
20
1.13351
11
1.10564
21
1.1355
0
LINE
8
BLACK
6
CONTINUOUS
10
1.10564
20
1.1355
11
1.10665
21
1.13725
0
LINE
8
BLACK
6
CONTINUOUS
10
1.10665
20
1.13725
11
1.10855
21
1.13794
0
LINE
8
BLACK
6
CONTINUOUS
10
1.10855
20
1.13794
11
1.13855
21
1.13794
0
LINE
8
BLACK
6
CONTINUOUS
10
1.13855
20
1.13794
11
1.13956
21
1.13776
0
LINE
8
BLACK
6
CONTINUOUS
10
1.70944
20
2.21824
11
1.70957
21
2.21826
0
LINE
8
BLACK
6
CONTINUOUS
10
1.70957
20
2.21826
11
1.70968
21
2.2182
0
LINE
8
BLACK
6
CONTINUOUS
10
1.70968
20
2.2182
11
1.71007
21
2.21813
0
LINE
8
BLACK
6
CONTINUOUS
10
1.71007
20
2.21813
11
1.71065
21
2.21764
0
LINE
8
BLACK
6
CONTINUOUS
10
1.71065
20
2.21764
11
1.71132
21
2.21725
0
LINE
8
BLACK
6
CONTINUOUS
10
1.71132
20
2.21725
11
1.71141
21
2.217
0
LINE
8
BLACK
6
CONTINUOUS
10
1.71141
20
2.217
11
1.71161
21
2.21683
0
LINE
8
BLACK
6
CONTINUOUS
10
1.71161
20
2.21683
11
1.71175
21
2.21608
0
LINE
8
BLACK
6
CONTINUOUS
10
1.71175
20
2.21608
11
1.71201
21
2.21535
0
LINE
8
BLACK
6
CONTINUOUS
10
1.71201
20
2.21535
11
1.71201
21
2.11535
0
LINE
8
BLACK
6
CONTINUOUS
10
1.71201
20
2.11535
11
1.71194
21
2.11497
0
LINE
8
BLACK
6
CONTINUOUS
10
1.71194
20
2.11497
11
1.71196
21
2.11484
0
LINE
8
BLACK
6
CONTINUOUS
10
1.71196
20
2.11484
11
1.7119
21
2.11473
0
LINE
8
BLACK
6
CONTINUOUS
10
1.7119
20
2.11473
11
1.71183
21
2.11434
0
LINE
8
BLACK
6
CONTINUOUS
10
1.71183
20
2.11434
11
1.71134
21
2.11376
0
LINE
8
BLACK
6
CONTINUOUS
10
1.71134
20
2.11376
11
1.71095
21
2.11309
0
LINE
8
BLACK
6
CONTINUOUS
10
1.71095
20
2.11309
11
1.7107
21
2.113
0
LINE
8
BLACK
6
CONTINUOUS
10
1.7107
20
2.113
11
1.71053
21
2.1128
0
LINE
8
BLACK
6
CONTINUOUS
10
1.71053
20
2.1128
11
1.70978
21
2.11266
0
LINE
8
BLACK
6
CONTINUOUS
10
1.70978
20
2.11266
11
1.70906
21
2.1124
0
LINE
8
BLACK
6
CONTINUOUS
10
1.70906
20
2.1124
11
1.40906
21
2.1124
0
LINE
8
BLACK
6
CONTINUOUS
10
1.40906
20
2.1124
11
1.40867
21
2.11247
0
LINE
8
BLACK
6
CONTINUOUS
10
1.40867
20
2.11247
11
1.40854
21
2.11245
0
LINE
8
BLACK
6
CONTINUOUS
10
1.40854
20
2.11245
11
1.40843
21
2.11251
0
LINE
8
BLACK
6
CONTINUOUS
10
1.40843
20
2.11251
11
1.40805
21
2.11258
0
LINE
8
BLACK
6
CONTINUOUS
10
1.40805
20
2.11258
11
1.40746
21
2.11307
0
LINE
8
BLACK
6
CONTINUOUS
10
1.40746
20
2.11307
11
1.40679
21
2.11346
0
LINE
8
BLACK
6
CONTINUOUS
10
1.40679
20
2.11346
11
1.4067
21
2.11371
0
LINE
8
BLACK
6
CONTINUOUS
10
1.4067
20
2.11371
11
1.4065
21
2.11388
0
LINE
8
BLACK
6
CONTINUOUS
10
1.4065
20
2.11388
11
1.40636
21
2.11463
0
LINE
8
BLACK
6
CONTINUOUS
10
1.40636
20
2.11463
11
1.4061
21
2.11535
0
LINE
8
BLACK
6
CONTINUOUS
10
1.4061
20
2.11535
11
1.4061
21
2.21535
0
LINE
8
BLACK
6
CONTINUOUS
10
1.4061
20
2.21535
11
1.40617
21
2.21574
0
LINE
8
BLACK
6
CONTINUOUS
10
1.40617
20
2.21574
11
1.40615
21
2.21587
0
LINE
8
BLACK
6
CONTINUOUS
10
1.40615
20
2.21587
11
1.40621
21
2.21598
0
LINE
8
BLACK
6
CONTINUOUS
10
1.40621
20
2.21598
11
1.40628
21
2.21636
0
LINE
8
BLACK
6
CONTINUOUS
10
1.40628
20
2.21636
11
1.40677
21
2.21695
0
LINE
8
BLACK
6
CONTINUOUS
10
1.40677
20
2.21695
11
1.40716
21
2.21762
0
LINE
8
BLACK
6
CONTINUOUS
10
1.40716
20
2.21762
11
1.40741
21
2.21771
0
LINE
8
BLACK
6
CONTINUOUS
10
1.40741
20
2.21771
11
1.40758
21
2.21791
0
LINE
8
BLACK
6
CONTINUOUS
10
1.40758
20
2.21791
11
1.40833
21
2.21804
0
LINE
8
BLACK
6
CONTINUOUS
10
1.40833
20
2.21804
11
1.40906
21
2.21831
0
LINE
8
BLACK
6
CONTINUOUS
10
1.40906
20
2.21831
11
1.70906
21
2.21831
0
LINE
8
BLACK
6
CONTINUOUS
10
1.70906
20
2.21831
11
1.70944
21
2.21824
0
LINE
8
BLACK
6
CONTINUOUS
10
1.41201
20
2.2124
11
1.41201
21
2.11831
0
LINE
8
BLACK
6
CONTINUOUS
10
1.41201
20
2.11831
11
1.7061
21
2.11831
0
LINE
8
BLACK
6
CONTINUOUS
10
1.7061
20
2.11831
11
1.7061
21
2.2124
0
LINE
8
BLACK
6
CONTINUOUS
10
1.7061
20
2.2124
11
1.41201
21
2.2124
0
LINE
8
BLACK
6
CONTINUOUS
10
1.07952
20
2.50052
11
1.07965
21
2.50055
0
LINE
8
BLACK
6
CONTINUOUS
10
1.07965
20
2.50055
11
1.07976
21
2.50048
0
LINE
8
BLACK
6
CONTINUOUS
10
1.07976
20
2.50048
11
1.08014
21
2.50041
0
LINE
8
BLACK
6
CONTINUOUS
10
1.08014
20
2.50041
11
1.08073
21
2.49992
0
LINE
8
BLACK
6
CONTINUOUS
10
1.08073
20
2.49992
11
1.0814
21
2.49954
0
LINE
8
BLACK
6
CONTINUOUS
10
1.0814
20
2.49954
11
1.08149
21
2.49929
0
LINE
8
BLACK
6
CONTINUOUS
10
1.08149
20
2.49929
11
1.08169
21
2.49911
0
LINE
8
BLACK
6
CONTINUOUS
10
1.08169
20
2.49911
11
1.08182
21
2.49836
0
LINE
8
BLACK
6
CONTINUOUS
10
1.08182
20
2.49836
11
1.08209
21
2.49764
0
LINE
8
BLACK
6
CONTINUOUS
10
1.08209
20
2.49764
11
1.08209
21
2.29764
0
LINE
8
BLACK
6
CONTINUOUS
10
1.08209
20
2.29764
11
1.08202
21
2.29725
0
LINE
8
BLACK
6
CONTINUOUS
10
1.08202
20
2.29725
11
1.08204
21
2.29713
0
LINE
8
BLACK
6
CONTINUOUS
10
1.08204
20
2.29713
11
1.08198
21
2.29701
0
LINE
8
BLACK
6
CONTINUOUS
10
1.08198
20
2.29701
11
1.08191
21
2.29663
0
LINE
8
BLACK
6
CONTINUOUS
10
1.08191
20
2.29663
11
1.08142
21
2.29604
0
LINE
8
BLACK
6
CONTINUOUS
10
1.08142
20
2.29604
11
1.08103
21
2.29538
0
LINE
8
BLACK
6
CONTINUOUS
10
1.08103
20
2.29538
11
1.08078
21
2.29528
0
LINE
8
BLACK
6
CONTINUOUS
10
1.08078
20
2.29528
11
1.08061
21
2.29508
0
LINE
8
BLACK
6
CONTINUOUS
10
1.08061
20
2.29508
11
1.07985
21
2.29495
0
LINE
8
BLACK
6
CONTINUOUS
10
1.07985
20
2.29495
11
1.07913
21
2.29469
0
LINE
8
BLACK
6
CONTINUOUS
10
1.07913
20
2.29469
11
0.779134
21
2.29469
0
LINE
8
BLACK
6
CONTINUOUS
10
0.779134
20
2.29469
11
0.77875
21
2.29475
0
LINE
8
BLACK
6
CONTINUOUS
10
0.77875
20
2.29475
11
0.778621
21
2.29473
0
LINE
8
BLACK
6
CONTINUOUS
10
0.778621
20
2.29473
11
0.778507
21
2.2948
0
LINE
8
BLACK
6
CONTINUOUS
10
0.778507
20
2.2948
11
0.778124
21
2.29486
0
LINE
8
BLACK
6
CONTINUOUS
10
0.778124
20
2.29486
11
0.777536
21
2.29536
0
LINE
8
BLACK
6
CONTINUOUS
10
0.777536
20
2.29536
11
0.776872
21
2.29574
0
LINE
8
BLACK
6
CONTINUOUS
10
0.776872
20
2.29574
11
0.776781
21
2.29599
0
LINE
8
BLACK
6
CONTINUOUS
10
0.776781
20
2.29599
11
0.776577
21
2.29616
0
LINE
8
BLACK
6
CONTINUOUS
10
0.776577
20
2.29616
11
0.776443
21
2.29692
0
LINE
8
BLACK
6
CONTINUOUS
10
0.776443
20
2.29692
11
0.776181
21
2.29764
0
LINE
8
BLACK
6
CONTINUOUS
10
0.776181
20
2.29764
11
0.776181
21
2.49764
0
LINE
8
BLACK
6
CONTINUOUS
10
0.776181
20
2.49764
11
0.776249
21
2.49802
0
LINE
8
BLACK
6
CONTINUOUS
10
0.776249
20
2.49802
11
0.776226
21
2.49815
0
LINE
8
BLACK
6
CONTINUOUS
10
0.776226
20
2.49815
11
0.776292
21
2.49826
0
LINE
8
BLACK
6
CONTINUOUS
10
0.776292
20
2.49826
11
0.776359
21
2.49865
0
LINE
8
BLACK
6
CONTINUOUS
10
0.776359
20
2.49865
11
0.776852
21
2.49924
0
LINE
8
BLACK
6
CONTINUOUS
10
0.776852
20
2.49924
11
0.777236
21
2.4999
0
LINE
8
BLACK
6
CONTINUOUS
10
0.777236
20
2.4999
11
0.777486
21
2.49999
0
LINE
8
BLACK
6
CONTINUOUS
10
0.777486
20
2.49999
11
0.777657
21
2.50019
0
LINE
8
BLACK
6
CONTINUOUS
10
0.777657
20
2.50019
11
0.778413
21
2.50033
0
LINE
8
BLACK
6
CONTINUOUS
10
0.778413
20
2.50033
11
0.779134
21
2.50059
0
LINE
8
BLACK
6
CONTINUOUS
10
0.779134
20
2.50059
11
1.07913
21
2.50059
0
LINE
8
BLACK
6
CONTINUOUS
10
1.07913
20
2.50059
11
1.07952
21
2.50052
0
LINE
8
BLACK
6
CONTINUOUS
10
0.782087
20
2.49469
11
0.782087
21
2.30059
0
LINE
8
BLACK
6
CONTINUOUS
10
0.782087
20
2.30059
11
1.07618
21
2.30059
0
LINE
8
BLACK
6
CONTINUOUS
10
1.07618
20
2.30059
11
1.07618
21
2.49469
0
LINE
8
BLACK
6
CONTINUOUS
10
1.07618
20
2.49469
11
0.782087
21
2.49469
0
LINE
8
BLACK
6
CONTINUOUS
10
2.27792
20
0.0295339
11
2.28197
21
0.0429577
0
LINE
8
BLACK
6
CONTINUOUS
10
2.28197
20
0.0429577
11
2.2875
21
0.0558462
0
LINE
8
BLACK
6
CONTINUOUS
10
2.2875
20
0.0558462
11
2.29442
21
0.0680385
0
LINE
8
BLACK
6
CONTINUOUS
10
2.29442
20
0.0680385
11
2.30267
21
0.0793829
0
LINE
8
BLACK
6
CONTINUOUS
10
2.30267
20
0.0793829
11
2.31212
21
0.0897378
0
LINE
8
BLACK
6
CONTINUOUS
10
2.31212
20
0.0897378
11
2.32267
21
0.0989741
0
LINE
8
BLACK
6
CONTINUOUS
10
2.32267
20
0.0989741
11
2.33419
21
0.106977
0
LINE
8
BLACK
6
CONTINUOUS
10
2.33419
20
0.106977
11
2.34652
21
0.113646
0
LINE
8
BLACK
6
CONTINUOUS
10
2.34652
20
0.113646
11
2.35952
21
0.118899
0
LINE
8
BLACK
6
CONTINUOUS
10
2.35952
20
0.118899
11
2.37303
21
0.12267
0
LINE
8
BLACK
6
CONTINUOUS
10
2.37303
20
0.12267
11
2.38687
21
0.124912
0
LINE
8
BLACK
6
CONTINUOUS
10
2.38687
20
0.124912
11
2.40088
21
0.125597
0
LINE
8
BLACK
6
CONTINUOUS
10
2.40088
20
0.125597
11
2.41487
21
0.124716
0
LINE
8
BLACK
6
CONTINUOUS
10
2.41487
20
0.124716
11
2.42868
21
0.122281
0
LINE
8
BLACK
6
CONTINUOUS
10
2.42868
20
0.122281
11
2.44213
21
0.118322
0
LINE
8
BLACK
6
CONTINUOUS
10
2.44213
20
0.118322
11
2.45506
21
0.112889
0
LINE
8
BLACK
6
CONTINUOUS
10
2.45506
20
0.112889
11
2.4673
21
0.106048
0
LINE
8
BLACK
6
CONTINUOUS
10
2.4673
20
0.106048
11
2.4787
21
0.0978848
0
LINE
8
BLACK
6
CONTINUOUS
10
2.4787
20
0.0978848
11
2.48912
21
0.088502
0
LINE
8
BLACK
6
CONTINUOUS
10
2.48912
20
0.088502
11
2.49843
21
0.0780161
0
LINE
8
BLACK
6
CONTINUOUS
10
2.49843
20
0.0780161
11
2.50651
21
0.0665579
0
LINE
8
BLACK
6
CONTINUOUS
10
2.50651
20
0.0665579
11
2.51327
21
0.05427
0
LINE
8
BLACK
6
CONTINUOUS
10
2.51327
20
0.05427
11
2.51861
21
0.0413057
0
LINE
8
BLACK
6
CONTINUOUS
10
2.51861
20
0.0413057
11
2.52248
21
0.0278265
0
LINE
8
BLACK
6
CONTINUOUS
10
2.52248
20
0.0278265
11
2.52482
21
0.0140005
0
LINE
8
BLACK
6
CONTINUOUS
10
2.52482
20
0.0140005
11
2.5256
21
0
0
LINE
8
BLACK
6
CONTINUOUS
10
2.5256
20
0
11
2.52555
21
-0.00350697
0
LINE
8
BLACK
6
CONTINUOUS
10
2.52555
20
-0.00350697
11
2.52438
21
-0.0174802
0
LINE
8
BLACK
6
CONTINUOUS
10
2.52438
20
-0.0174802
11
2.52165
21
-0.0312354
0
LINE
8
BLACK
6
CONTINUOUS
10
2.52165
20
-0.0312354
11
2.51741
21
-0.0446014
0
LINE
8
BLACK
6
CONTINUOUS
10
2.51741
20
-0.0446014
11
2.51171
21
-0.0574115
0
LINE
8
BLACK
6
CONTINUOUS
10
2.51171
20
-0.0574115
11
2.50461
21
-0.069506
0
LINE
8
BLACK
6
CONTINUOUS
10
2.50461
20
-0.069506
11
2.49622
21
-0.0807341
0
LINE
8
BLACK
6
CONTINUOUS
10
2.49622
20
-0.0807341
11
2.48662
21
-0.090956
0
LINE
8
BLACK
6
CONTINUOUS
10
2.48662
20
-0.090956
11
2.47594
21
-0.100044
0
LINE
8
BLACK
6
CONTINUOUS
10
2.47594
20
-0.100044
11
2.46431
21
-0.107885
0
LINE
8
BLACK
6
CONTINUOUS
10
2.46431
20
-0.107885
11
2.45189
21
-0.114382
0
LINE
8
BLACK
6
CONTINUOUS
10
2.45189
20
-0.114382
11
2.43881
21
-0.119453
0
LINE
8
BLACK
6
CONTINUOUS
10
2.43881
20
-0.119453
11
2.42526
21
-0.123035
0
LINE
8
BLACK
6
CONTINUOUS
10
2.42526
20
-0.123035
11
2.41138
21
-0.125083
0
LINE
8
BLACK
6
CONTINUOUS
10
2.41138
20
-0.125083
11
2.39737
21
-0.125572
0
LINE
8
BLACK
6
CONTINUOUS
10
2.39737
20
-0.125572
11
2.38339
21
-0.124497
0
LINE
8
BLACK
6
CONTINUOUS
10
2.38339
20
-0.124497
11
2.36961
21
-0.121869
0
LINE
8
BLACK
6
CONTINUOUS
10
2.36961
20
-0.121869
11
2.35622
21
-0.117723
0
LINE
8
BLACK
6
CONTINUOUS
10
2.35622
20
-0.117723
11
2.34337
21
-0.112109
0
LINE
8
BLACK
6
CONTINUOUS
10
2.34337
20
-0.112109
11
2.33123
21
-0.105098
0
LINE
8
BLACK
6
CONTINUOUS
10
2.33123
20
-0.105098
11
2.31994
21
-0.0967765
0
LINE
8
BLACK
6
CONTINUOUS
10
2.31994
20
-0.0967765
11
2.30965
21
-0.0872491
0
LINE
8
BLACK
6
CONTINUOUS
10
2.30965
20
-0.0872491
11
2.30049
21
-0.0766343
0
LINE
8
BLACK
6
CONTINUOUS
10
2.30049
20
-0.0766343
11
2.29257
21
-0.0650642
0
LINE
8
BLACK
6
CONTINUOUS
10
2.29257
20
-0.0650642
11
2.28598
21
-0.0526832
0
LINE
8
BLACK
6
CONTINUOUS
10
2.28598
20
-0.0526832
11
2.28082
21
-0.0396455
0
LINE
8
BLACK
6
CONTINUOUS
10
2.28082
20
-0.0396455
11
2.27714
21
-0.0261137
0
LINE
8
BLACK
6
CONTINUOUS
10
2.27714
20
-0.0261137
11
2.275
21
-0.0122564
0
LINE
8
BLACK
6
CONTINUOUS
10
2.275
20
-0.0122564
11
2.27441
21
0.00175366
0
LINE
8
BLACK
6
CONTINUOUS
10
2.27441
20
0.00175366
11
2.27453
21
0.00347992
0
LINE
8
BLACK
6
CONTINUOUS
10
2.27453
20
0.00347992
11
2.27539
21
0.0157419
0
LINE
8
BLACK
6
CONTINUOUS
10
2.27539
20
0.0157419
11
2.27792
21
0.0295339
0
LINE
8
BLACK
6
CONTINUOUS
10
2.2914
20
-0.021898
11
2.29463
21
-0.0342352
0
LINE
8
BLACK
6
CONTINUOUS
10
2.29463
20
-0.0342352
11
2.29927
21
-0.0461187
0
LINE
8
BLACK
6
CONTINUOUS
10
2.29927
20
-0.0461187
11
2.30524
21
-0.0573909
0
LINE
8
BLACK
6
CONTINUOUS
10
2.30524
20
-0.0573909
11
2.31246
21
-0.0679024
0
LINE
8
BLACK
6
CONTINUOUS
10
2.31246
20
-0.0679024
11
2.32085
21
-0.0775139
0
LINE
8
BLACK
6
CONTINUOUS
10
2.32085
20
-0.0775139
11
2.33028
21
-0.086098
0
LINE
8
BLACK
6
CONTINUOUS
10
2.33028
20
-0.086098
11
2.34064
21
-0.0935409
0
LINE
8
BLACK
6
CONTINUOUS
10
2.34064
20
-0.0935409
11
2.35178
21
-0.099744
0
LINE
8
BLACK
6
CONTINUOUS
10
2.35178
20
-0.099744
11
2.36357
21
-0.104625
0
LINE
8
BLACK
6
CONTINUOUS
10
2.36357
20
-0.104625
11
2.37583
21
-0.108119
0
LINE
8
BLACK
6
CONTINUOUS
10
2.37583
20
-0.108119
11
2.38842
21
-0.110181
0
LINE
8
BLACK
6
CONTINUOUS
10
2.38842
20
-0.110181
11
2.40116
21
-0.110781
0
LINE
8
BLACK
6
CONTINUOUS
10
2.40116
20
-0.110781
11
2.41389
21
-0.109914
0
LINE
8
BLACK
6
CONTINUOUS
10
2.41389
20
-0.109914
11
2.42643
21
-0.107589
0
LINE
8
BLACK
6
CONTINUOUS
10
2.42643
20
-0.107589
11
2.43862
21
-0.103839
0
LINE
8
BLACK
6
CONTINUOUS
10
2.43862
20
-0.103839
11
2.4503
21
-0.0987123
0
LINE
8
BLACK
6
CONTINUOUS
10
2.4503
20
-0.0987123
11
2.46131
21
-0.0922772
0
LINE
8
BLACK
6
CONTINUOUS
10
2.46131
20
-0.0922772
11
2.47151
21
-0.084619
0
LINE
8
BLACK
6
CONTINUOUS
10
2.47151
20
-0.084619
11
2.48076
21
-0.0758392
0
LINE
8
BLACK
6
CONTINUOUS
10
2.48076
20
-0.0758392
11
2.48894
21
-0.0660542
0
LINE
8
BLACK
6
CONTINUOUS
10
2.48894
20
-0.0660542
11
2.49594
21
-0.0553937
0
LINE
8
BLACK
6
CONTINUOUS
10
2.49594
20
-0.0553937
11
2.50168
21
-0.043999
0
LINE
8
BLACK
6
CONTINUOUS
10
2.50168
20
-0.043999
11
2.50606
21
-0.0320211
0
LINE
8
BLACK
6
CONTINUOUS
10
2.50606
20
-0.0320211
11
2.50904
21
-0.0196188
0
LINE
8
BLACK
6
CONTINUOUS
10
2.50904
20
-0.0196188
11
2.51057
21
-0.00695642
0
LINE
8
BLACK
6
CONTINUOUS
10
2.51057
20
-0.00695642
11
2.51079
21
0
0
LINE
8
BLACK
6
CONTINUOUS
10
2.51079
20
0
11
2.51005
21
0.0127336
0
LINE
8
BLACK
6
CONTINUOUS
10
2.51005
20
0.0127336
11
2.50786
21
0.0252984
0
LINE
8
BLACK
6
CONTINUOUS
10
2.50786
20
0.0252984
11
2.50424
21
0.0375279
0
LINE
8
BLACK
6
CONTINUOUS
10
2.50424
20
0.0375279
11
2.49923
21
0.04926
0
LINE
8
BLACK
6
CONTINUOUS
10
2.49923
20
0.04926
11
2.49291
21
0.0603392
0
LINE
8
BLACK
6
CONTINUOUS
10
2.49291
20
0.0603392
11
2.48536
21
0.0706186
0
LINE
8
BLACK
6
CONTINUOUS
10
2.48536
20
0.0706186
11
2.47668
21
0.079962
0
LINE
8
BLACK
6
CONTINUOUS
10
2.47668
20
0.079962
11
2.46698
21
0.0882455
0
LINE
8
BLACK
6
CONTINUOUS
10
2.46698
20
0.0882455
11
2.4564
21
0.0953594
0
LINE
8
BLACK
6
CONTINUOUS
10
2.4564
20
0.0953594
11
2.44506
21
0.101209
0
LINE
8
BLACK
6
CONTINUOUS
10
2.44506
20
0.101209
11
2.43313
21
0.105718
0
LINE
8
BLACK
6
CONTINUOUS
10
2.43313
20
0.105718
11
2.42076
21
0.108825
0
LINE
8
BLACK
6
CONTINUOUS
10
2.42076
20
0.108825
11
2.40811
21
0.11049
0
LINE
8
BLACK
6
CONTINUOUS
10
2.40811
20
0.11049
11
2.39536
21
0.11069
0
LINE
8
BLACK
6
CONTINUOUS
10
2.39536
20
0.11069
11
2.38267
21
0.109423
0
LINE
8
BLACK
6
CONTINUOUS
10
2.38267
20
0.109423
11
2.37021
21
0.106706
0
LINE
8
BLACK
6
CONTINUOUS
10
2.37021
20
0.106706
11
2.35814
21
0.102575
0
LINE
8
BLACK
6
CONTINUOUS
10
2.35814
20
0.102575
11
2.34663
21
0.0970838
0
LINE
8
BLACK
6
CONTINUOUS
10
2.34663
20
0.0970838
11
2.33582
21
0.0903059
0
LINE
8
BLACK
6
CONTINUOUS
10
2.33582
20
0.0903059
11
2.32587
21
0.0823311
0
LINE
8
BLACK
6
CONTINUOUS
10
2.32587
20
0.0823311
11
2.3169
21
0.073265
0
LINE
8
BLACK
6
CONTINUOUS
10
2.3169
20
0.073265
11
2.30903
21
0.0632279
0
LINE
8
BLACK
6
CONTINUOUS
10
2.30903
20
0.0632279
11
2.30236
21
0.0523527
0
LINE
8
BLACK
6
CONTINUOUS
10
2.30236
20
0.0523527
11
2.29699
21
0.0407836
0
LINE
8
BLACK
6
CONTINUOUS
10
2.29699
20
0.0407836
11
2.29299
21
0.0286739
0
LINE
8
BLACK
6
CONTINUOUS
10
2.29299
20
0.0286739
11
2.2904
21
0.0161842
0
LINE
8
BLACK
6
CONTINUOUS
10
2.2904
20
0.0161842
11
2.28927
21
0.00347992
0
LINE
8
BLACK
6
CONTINUOUS
10
2.28927
20
0.00347992
11
2.2896
21
-0.00927047
0
LINE
8
BLACK
6
CONTINUOUS
10
2.2896
20
-0.00927047
11
2.2914
21
-0.021898
0
LINE
8
BLACK
6
CONTINUOUS
10
-0.122078
20
0.0295339
11
-0.118025
21
0.0429577
0
LINE
8
BLACK
6
CONTINUOUS
10
-0.118025
20
0.0429577
11
-0.112501
21
0.0558462
0
LINE
8
BLACK
6
CONTINUOUS
10
-0.112501
20
0.0558462
11
-0.105575
21
0.0680385
0
LINE
8
BLACK
6
CONTINUOUS
10
-0.105575
20
0.0680385
11
-0.097333
21
0.0793829
0
LINE
8
BLACK
6
CONTINUOUS
10
-0.097333
20
0.0793829
11
-0.0878777
21
0.0897378
0
LINE
8
BLACK
6
CONTINUOUS
10
-0.0878777
20
0.0897378
11
-0.0773271
21
0.0989741
0
LINE
8
BLACK
6
CONTINUOUS
10
-0.0773271
20
0.0989741
11
-0.0658126
21
0.106977
0
LINE
8
BLACK
6
CONTINUOUS
10
-0.0658126
20
0.106977
11
-0.0534779
21
0.113646
0
LINE
8
BLACK
6
CONTINUOUS
10
-0.0534779
20
0.113646
11
-0.0404766
21
0.118899
0
LINE
8
BLACK
6
CONTINUOUS
10
-0.0404766
20
0.118899
11
-0.0269707
21
0.12267
0
LINE
8
BLACK
6
CONTINUOUS
10
-0.0269707
20
0.12267
11
-0.0131288
21
0.124912
0
LINE
8
BLACK
6
CONTINUOUS
10
-0.0131288
20
0.124912
11
0.00087685
21
0.125597
0
LINE
8
BLACK
6
CONTINUOUS
10
0.00087685
20
0.125597
11
0.0148715
21
0.124716
0
LINE
8
BLACK
6
CONTINUOUS
10
0.0148715
20
0.124716
11
0.0286809
21
0.122281
0
LINE
8
BLACK
6
CONTINUOUS
10
0.0286809
20
0.122281
11
0.0421327
21
0.118322
0
LINE
8
BLACK
6
CONTINUOUS
10
0.0421327
20
0.118322
11
0.0550594
21
0.112889
0
LINE
8
BLACK
6
CONTINUOUS
10
0.0550594
20
0.112889
11
0.0672998
21
0.106048
0
LINE
8
BLACK
6
CONTINUOUS
10
0.0672998
20
0.106048
11
0.0787015
21
0.0978848
0
LINE
8
BLACK
6
CONTINUOUS
10
0.0787015
20
0.0978848
11
0.0891221
21
0.088502
0
LINE
8
BLACK
6
CONTINUOUS
10
0.0891221
20
0.088502
11
0.0984319
21
0.0780161
0
LINE
8
BLACK
6
CONTINUOUS
10
0.0984319
20
0.0780161
11
0.106515
21
0.0665579
0
LINE
8
BLACK
6
CONTINUOUS
10
0.106515
20
0.0665579
11
0.11327
21
0.05427
0
LINE
8
BLACK
6
CONTINUOUS
10
0.11327
20
0.05427
11
0.118614
21
0.0413057
0
LINE
8
BLACK
6
CONTINUOUS
10
0.118614
20
0.0413057
11
0.122479
21
0.0278265
0
LINE
8
BLACK
6
CONTINUOUS
10
0.122479
20
0.0278265
11
0.124817
21
0.0140005
0
LINE
8
BLACK
6
CONTINUOUS
10
0.124817
20
0.0140005
11
0.1256
21
0
0
LINE
8
BLACK
6
CONTINUOUS
10
0.1256
20
0
11
0.125551
21
-0.00350697
0
LINE
8
BLACK
6
CONTINUOUS
10
0.125551
20
-0.00350697
11
0.124378
21
-0.0174802
0
LINE
8
BLACK
6
CONTINUOUS
10
0.124378
20
-0.0174802
11
0.121654
21
-0.0312354
0
LINE
8
BLACK
6
CONTINUOUS
10
0.121654
20
-0.0312354
11
0.117414
21
-0.0446014
0
LINE
8
BLACK
6
CONTINUOUS
10
0.117414
20
-0.0446014
11
0.111711
21
-0.0574115
0
LINE
8
BLACK
6
CONTINUOUS
10
0.111711
20
-0.0574115
11
0.104615
21
-0.069506
0
LINE
8
BLACK
6
CONTINUOUS
10
0.104615
20
-0.069506
11
0.0962152
21
-0.0807341
0
LINE
8
BLACK
6
CONTINUOUS
10
0.0962152
20
-0.0807341
11
0.0866162
21
-0.090956
0
LINE
8
BLACK
6
CONTINUOUS
10
0.0866162
20
-0.090956
11
0.0759376
21
-0.100044
0
LINE
8
BLACK
6
CONTINUOUS
10
0.0759376
20
-0.100044
11
0.0643126
21
-0.107885
0
LINE
8
BLACK
6
CONTINUOUS
10
0.0643126
20
-0.107885
11
0.0518859
21
-0.114382
0
LINE
8
BLACK
6
CONTINUOUS
10
0.0518859
20
-0.114382
11
0.0388125
21
-0.119453
0
LINE
8
BLACK
6
CONTINUOUS
10
0.0388125
20
-0.119453
11
0.0252554
21
-0.123035
0
LINE
8
BLACK
6
CONTINUOUS
10
0.0252554
20
-0.123035
11
0.0113835
21
-0.125083
0
LINE
8
BLACK
6
CONTINUOUS
10
0.0113835
20
-0.125083
11
-0.00263035
21
-0.125572
0
LINE
8
BLACK
6
CONTINUOUS
10
-0.00263035
20
-0.125572
11
-0.0166114
21
-0.124497
0
LINE
8
BLACK
6
CONTINUOUS
10
-0.0166114
20
-0.124497
11
-0.0303854
21
-0.121869
0
LINE
8
BLACK
6
CONTINUOUS
10
-0.0303854
20
-0.121869
11
-0.0437806
21
-0.117723
0
LINE
8
BLACK
6
CONTINUOUS
10
-0.0437806
20
-0.117723
11
-0.0566302
21
-0.112109
0
LINE
8
BLACK
6
CONTINUOUS
10
-0.0566302
20
-0.112109
11
-0.0687739
21
-0.105098
0
LINE
8
BLACK
6
CONTINUOUS
10
-0.0687739
20
-0.105098
11
-0.0800605
21
-0.0967765
0
LINE
8
BLACK
6
CONTINUOUS
10
-0.0800605
20
-0.0967765
11
-0.0903491
21
-0.0872491
0
LINE
8
BLACK
6
CONTINUOUS
10
-0.0903491
20
-0.0872491
11
-0.0995116
21
-0.0766343
0
LINE
8
BLACK
6
CONTINUOUS
10
-0.0995116
20
-0.0766343
11
-0.107434
21
-0.0650642
0
LINE
8
BLACK
6
CONTINUOUS
10
-0.107434
20
-0.0650642
11
-0.114017
21
-0.0526832
0
LINE
8
BLACK
6
CONTINUOUS
10
-0.114017
20
-0.0526832
11
-0.119179
21
-0.0396455
0
LINE
8
BLACK
6
CONTINUOUS
10
-0.119179
20
-0.0396455
11
-0.122855
21
-0.0261137
0
LINE
8
BLACK
6
CONTINUOUS
10
-0.122855
20
-0.0261137
11
-0.125001
21
-0.0122564
0
LINE
8
BLACK
6
CONTINUOUS
10
-0.125001
20
-0.0122564
11
-0.125588
21
0.00175366
0
LINE
8
BLACK
6
CONTINUOUS
10
-0.125588
20
0.00175366
11
-0.125467
21
0.00347992
0
LINE
8
BLACK
6
CONTINUOUS
10
-0.125467
20
0.00347992
11
-0.12461
21
0.0157419
0
LINE
8
BLACK
6
CONTINUOUS
10
-0.12461
20
0.0157419
11
-0.122078
21
0.0295339
0
LINE
8
BLACK
6
CONTINUOUS
10
-0.108602
20
-0.021898
11
-0.105365
21
-0.0342352
0
LINE
8
BLACK
6
CONTINUOUS
10
-0.105365
20
-0.0342352
11
-0.100732
21
-0.0461187
0
LINE
8
BLACK
6
CONTINUOUS
10
-0.100732
20
-0.0461187
11
-0.0947636
21
-0.0573909
0
LINE
8
BLACK
6
CONTINUOUS
10
-0.0947636
20
-0.0573909
11
-0.0875393
21
-0.0679024
0
LINE
8
BLACK
6
CONTINUOUS
10
-0.0875393
20
-0.0679024
11
-0.0791546
21
-0.0775139
0
LINE
8
BLACK
6
CONTINUOUS
10
-0.0791546
20
-0.0775139
11
-0.0697208
21
-0.086098
0
LINE
8
BLACK
6
CONTINUOUS
10
-0.0697208
20
-0.086098
11
-0.0593629
21
-0.0935409
0
LINE
8
BLACK
6
CONTINUOUS
10
-0.0593629
20
-0.0935409
11
-0.0482181
21
-0.099744
0
LINE
8
BLACK
6
CONTINUOUS
10
-0.0482181
20
-0.099744
11
-0.0364343
21
-0.104625
0
LINE
8
BLACK
6
CONTINUOUS
10
-0.0364343
20
-0.104625
11
-0.0241675
21
-0.108119
0
LINE
8
BLACK
6
CONTINUOUS
10
-0.0241675
20
-0.108119
11
-0.0115804
21
-0.110181
0
LINE
8
BLACK
6
CONTINUOUS
10
-0.0115804
20
-0.110181
11
0.00116016
21
-0.110781
0
LINE
8
BLACK
6
CONTINUOUS
10
0.00116016
20
-0.110781
11
0.0138854
21
-0.109914
0
LINE
8
BLACK
6
CONTINUOUS
10
0.0138854
20
-0.109914
11
0.0264265
21
-0.107589
0
LINE
8
BLACK
6
CONTINUOUS
10
0.0264265
20
-0.107589
11
0.0386174
21
-0.103839
0
LINE
8
BLACK
6
CONTINUOUS
10
0.0386174
20
-0.103839
11
0.0502965
21
-0.0987123
0
LINE
8
BLACK
6
CONTINUOUS
10
0.0502965
20
-0.0987123
11
0.0613088
21
-0.0922772
0
LINE
8
BLACK
6
CONTINUOUS
10
0.0613088
20
-0.0922772
11
0.0715086
21
-0.084619
0
LINE
8
BLACK
6
CONTINUOUS
10
0.0715086
20
-0.084619
11
0.0807606
21
-0.0758392
0
LINE
8
BLACK
6
CONTINUOUS
10
0.0807606
20
-0.0758392
11
0.0889421
21
-0.0660542
0
LINE
8
BLACK
6
CONTINUOUS
10
0.0889421
20
-0.0660542
11
0.0959447
21
-0.0553937
0
LINE
8
BLACK
6
CONTINUOUS
10
0.0959447
20
-0.0553937
11
0.101676
21
-0.043999
0
LINE
8
BLACK
6
CONTINUOUS
10
0.101676
20
-0.043999
11
0.106059
21
-0.0320211
0
LINE
8
BLACK
6
CONTINUOUS
10
0.106059
20
-0.0320211
11
0.109036
21
-0.0196188
0
LINE
8
BLACK
6
CONTINUOUS
10
0.109036
20
-0.0196188
11
0.110569
21
-0.00695642
0
LINE
8
BLACK
6
CONTINUOUS
10
0.110569
20
-0.00695642
11
0.110787
21
0
0
LINE
8
BLACK
6
CONTINUOUS
10
0.110787
20
0
11
0.110053
21
0.0127336
0
LINE
8
BLACK
6
CONTINUOUS
10
0.110053
20
0.0127336
11
0.10786
21
0.0252984
0
LINE
8
BLACK
6
CONTINUOUS
10
0.10786
20
0.0252984
11
0.104238
21
0.0375279
0
LINE
8
BLACK
6
CONTINUOUS
10
0.104238
20
0.0375279
11
0.0992336
21
0.04926
0
LINE
8
BLACK
6
CONTINUOUS
10
0.0992336
20
0.04926
11
0.0929142
21
0.0603392
0
LINE
8
BLACK
6
CONTINUOUS
10
0.0929142
20
0.0603392
11
0.0853632
21
0.0706186
0
LINE
8
BLACK
6
CONTINUOUS
10
0.0853632
20
0.0706186
11
0.0766808
21
0.079962
0
LINE
8
BLACK
6
CONTINUOUS
10
0.0766808
20
0.079962
11
0.066982
21
0.0882455
0
LINE
8
BLACK
6
CONTINUOUS
10
0.066982
20
0.0882455
11
0.0563954
21
0.0953594
0
LINE
8
BLACK
6
CONTINUOUS
10
0.0563954
20
0.0953594
11
0.0450613
21
0.101209
0
LINE
8
BLACK
6
CONTINUOUS
10
0.0450613
20
0.101209
11
0.03313
21
0.105718
0
LINE
8
BLACK
6
CONTINUOUS
10
0.03313
20
0.105718
11
0.0207595
21
0.108825
0
LINE
8
BLACK
6
CONTINUOUS
10
0.0207595
20
0.108825
11
0.00811386
21
0.11049
0
LINE
8
BLACK
6
CONTINUOUS
10
0.00811386
20
0.11049
11
-0.00463929
21
0.11069
0
LINE
8
BLACK
6
CONTINUOUS
10
-0.00463929
20
0.11069
11
-0.017331
21
0.109423
0
LINE
8
BLACK
6
CONTINUOUS
10
-0.017331
20
0.109423
11
-0.029793
21
0.106706
0
LINE
8
BLACK
6
CONTINUOUS
10
-0.029793
20
0.106706
11
-0.04186
21
0.102575
0
LINE
8
BLACK
6
CONTINUOUS
10
-0.04186
20
0.102575
11
-0.0533722
21
0.0970838
0
LINE
8
BLACK
6
CONTINUOUS
10
-0.0533722
20
0.0970838
11
-0.0641771
21
0.0903059
0
LINE
8
BLACK
6
CONTINUOUS
10
-0.0641771
20
0.0903059
11
-0.0741313
21
0.0823311
0
LINE
8
BLACK
6
CONTINUOUS
10
-0.0741313
20
0.0823311
11
-0.0831029
21
0.073265
0
LINE
8
BLACK
6
CONTINUOUS
10
-0.0831029
20
0.073265
11
-0.090973
21
0.0632279
0
LINE
8
BLACK
6
CONTINUOUS
10
-0.090973
20
0.0632279
11
-0.0976374
21
0.0523527
0
LINE
8
BLACK
6
CONTINUOUS
10
-0.0976374
20
0.0523527
11
-0.103008
21
0.0407836
0
LINE
8
BLACK
6
CONTINUOUS
10
-0.103008
20
0.0407836
11
-0.107012
21
0.0286739
0
LINE
8
BLACK
6
CONTINUOUS
10
-0.107012
20
0.0286739
11
-0.109599
21
0.0161842
0
LINE
8
BLACK
6
CONTINUOUS
10
-0.109599
20
0.0161842
11
-0.110733
21
0.00347992
0
LINE
8
BLACK
6
CONTINUOUS
10
-0.110733
20
0.00347992
11
-0.110399
21
-0.00927047
0
LINE
8
BLACK
6
CONTINUOUS
10
-0.110399
20
-0.00927047
11
-0.108602
21
-0.021898
0
LINE
8
BLACK
6
CONTINUOUS
10
-0.133889
20
2.07284
11
-0.129836
21
2.08626
0
LINE
8
BLACK
6
CONTINUOUS
10
-0.129836
20
2.08626
11
-0.124312
21
2.09915
0
LINE
8
BLACK
6
CONTINUOUS
10
-0.124312
20
2.09915
11
-0.117386
21
2.11135
0
LINE
8
BLACK
6
CONTINUOUS
10
-0.117386
20
2.11135
11
-0.109144
21
2.12269
0
LINE
8
BLACK
6
CONTINUOUS
10
-0.109144
20
2.12269
11
-0.0996887
21
2.13304
0
LINE
8
BLACK
6
CONTINUOUS
10
-0.0996887
20
2.13304
11
-0.0891381
21
2.14228
0
LINE
8
BLACK
6
CONTINUOUS
10
-0.0891381
20
2.14228
11
-0.0776237
21
2.15028
0
LINE
8
BLACK
6
CONTINUOUS
10
-0.0776237
20
2.15028
11
-0.0652889
21
2.15695
0
LINE
8
BLACK
6
CONTINUOUS
10
-0.0652889
20
2.15695
11
-0.0522876
21
2.16221
0
LINE
8
BLACK
6
CONTINUOUS
10
-0.0522876
20
2.16221
11
-0.0387818
21
2.16598
0
LINE
8
BLACK
6
CONTINUOUS
10
-0.0387818
20
2.16598
11
-0.0249398
21
2.16822
0
LINE
8
BLACK
6
CONTINUOUS
10
-0.0249398
20
2.16822
11
-0.0109342
21
2.1689
0
LINE
8
BLACK
6
CONTINUOUS
10
-0.0109342
20
2.1689
11
0.00306051
21
2.16802
0
LINE
8
BLACK
6
CONTINUOUS
10
0.00306051
20
2.16802
11
0.0168698
21
2.16559
0
LINE
8
BLACK
6
CONTINUOUS
10
0.0168698
20
2.16559
11
0.0303217
21
2.16163
0
LINE
8
BLACK
6
CONTINUOUS
10
0.0303217
20
2.16163
11
0.0432484
21
2.1562
0
LINE
8
BLACK
6
CONTINUOUS
10
0.0432484
20
2.1562
11
0.0554888
21
2.14935
0
LINE
8
BLACK
6
CONTINUOUS
10
0.0554888
20
2.14935
11
0.0668904
21
2.14119
0
LINE
8
BLACK
6
CONTINUOUS
10
0.0668904
20
2.14119
11
0.0773111
21
2.13181
0
LINE
8
BLACK
6
CONTINUOUS
10
0.0773111
20
2.13181
11
0.0866209
21
2.12132
0
LINE
8
BLACK
6
CONTINUOUS
10
0.0866209
20
2.12132
11
0.0947038
21
2.10986
0
LINE
8
BLACK
6
CONTINUOUS
10
0.0947038
20
2.10986
11
0.101459
21
2.09758
0
LINE
8
BLACK
6
CONTINUOUS
10
0.101459
20
2.09758
11
0.106803
21
2.08461
0
LINE
8
BLACK
6
CONTINUOUS
10
0.106803
20
2.08461
11
0.110668
21
2.07113
0
LINE
8
BLACK
6
CONTINUOUS
10
0.110668
20
2.07113
11
0.113006
21
2.05731
0
LINE
8
BLACK
6
CONTINUOUS
10
0.113006
20
2.05731
11
0.113165
21
2.05446
0
LINE
8
BLACK
6
CONTINUOUS
10
0.113165
20
2.05446
11
0.11327
21
2.05427
0
LINE
8
BLACK
6
CONTINUOUS
10
0.11327
20
2.05427
11
0.118614
21
2.04131
0
LINE
8
BLACK
6
CONTINUOUS
10
0.118614
20
2.04131
11
0.122479
21
2.02783
0
LINE
8
BLACK
6
CONTINUOUS
10
0.122479
20
2.02783
11
0.124817
21
2.014
0
LINE
8
BLACK
6
CONTINUOUS
10
0.124817
20
2.014
11
0.1256
21
2
0
LINE
8
BLACK
6
CONTINUOUS
10
0.1256
20
2
11
0.125551
21
1.99649
0
LINE
8
BLACK
6
CONTINUOUS
10
0.125551
20
1.99649
11
0.124378
21
1.98252
0
LINE
8
BLACK
6
CONTINUOUS
10
0.124378
20
1.98252
11
0.121654
21
1.96876
0
LINE
8
BLACK
6
CONTINUOUS
10
0.121654
20
1.96876
11
0.117414
21
1.9554
0
LINE
8
BLACK
6
CONTINUOUS
10
0.117414
20
1.9554
11
0.111711
21
1.94259
0
LINE
8
BLACK
6
CONTINUOUS
10
0.111711
20
1.94259
11
0.104615
21
1.93049
0
LINE
8
BLACK
6
CONTINUOUS
10
0.104615
20
1.93049
11
0.0962152
21
1.91927
0
LINE
8
BLACK
6
CONTINUOUS
10
0.0962152
20
1.91927
11
0.0866162
21
1.90904
0
LINE
8
BLACK
6
CONTINUOUS
10
0.0866162
20
1.90904
11
0.0759376
21
1.89996
0
LINE
8
BLACK
6
CONTINUOUS
10
0.0759376
20
1.89996
11
0.0643126
21
1.89211
0
LINE
8
BLACK
6
CONTINUOUS
10
0.0643126
20
1.89211
11
0.0518859
21
1.88562
0
LINE
8
BLACK
6
CONTINUOUS
10
0.0518859
20
1.88562
11
0.0388125
21
1.88055
0
LINE
8
BLACK
6
CONTINUOUS
10
0.0388125
20
1.88055
11
0.0252554
21
1.87697
0
LINE
8
BLACK
6
CONTINUOUS
10
0.0252554
20
1.87697
11
0.0113835
21
1.87492
0
LINE
8
BLACK
6
CONTINUOUS
10
0.0113835
20
1.87492
11
-0.00263035
21
1.87443
0
LINE
8
BLACK
6
CONTINUOUS
10
-0.00263035
20
1.87443
11
-0.0166114
21
1.8755
0
LINE
8
BLACK
6
CONTINUOUS
10
-0.0166114
20
1.8755
11
-0.0303854
21
1.87813
0
LINE
8
BLACK
6
CONTINUOUS
10
-0.0303854
20
1.87813
11
-0.0437806
21
1.88228
0
LINE
8
BLACK
6
CONTINUOUS
10
-0.0437806
20
1.88228
11
-0.0566302
21
1.88789
0
LINE
8
BLACK
6
CONTINUOUS
10
-0.0566302
20
1.88789
11
-0.0687739
21
1.8949
0
LINE
8
BLACK
6
CONTINUOUS
10
-0.0687739
20
1.8949
11
-0.0800605
21
1.90322
0
LINE
8
BLACK
6
CONTINUOUS
10
-0.0800605
20
1.90322
11
-0.0903491
21
1.91275
0
LINE
8
BLACK
6
CONTINUOUS
10
-0.0903491
20
1.91275
11
-0.0995116
21
1.92337
0
LINE
8
BLACK
6
CONTINUOUS
10
-0.0995116
20
1.92337
11
-0.107434
21
1.93494
0
LINE
8
BLACK
6
CONTINUOUS
10
-0.107434
20
1.93494
11
-0.114017
21
1.94732
0
LINE
8
BLACK
6
CONTINUOUS
10
-0.114017
20
1.94732
11
-0.119179
21
1.96035
0
LINE
8
BLACK
6
CONTINUOUS
10
-0.119179
20
1.96035
11
-0.122855
21
1.97389
0
LINE
8
BLACK
6
CONTINUOUS
10
-0.122855
20
1.97389
11
-0.125001
21
1.98774
0
LINE
8
BLACK
6
CONTINUOUS
10
-0.125001
20
1.98774
11
-0.125061
21
1.98918
0
LINE
8
BLACK
6
CONTINUOUS
10
-0.125061
20
1.98918
11
-0.125828
21
1.99062
0
LINE
8
BLACK
6
CONTINUOUS
10
-0.125828
20
1.99062
11
-0.13099
21
2.00366
0
LINE
8
BLACK
6
CONTINUOUS
10
-0.13099
20
2.00366
11
-0.134666
21
2.01719
0
LINE
8
BLACK
6
CONTINUOUS
10
-0.134666
20
2.01719
11
-0.136812
21
2.03105
0
LINE
8
BLACK
6
CONTINUOUS
10
-0.136812
20
2.03105
11
-0.137399
21
2.04506
0
LINE
8
BLACK
6
CONTINUOUS
10
-0.137399
20
2.04506
11
-0.137278
21
2.04679
0
LINE
8
BLACK
6
CONTINUOUS
10
-0.137278
20
2.04679
11
-0.136421
21
2.05905
0
LINE
8
BLACK
6
CONTINUOUS
10
-0.136421
20
2.05905
11
-0.133889
21
2.07284
0
LINE
8
BLACK
6
CONTINUOUS
10
-0.121732
20
2.03068
11
-0.118025
21
2.04296
0
LINE
8
BLACK
6
CONTINUOUS
10
-0.118025
20
2.04296
11
-0.112501
21
2.05585
0
LINE
8
BLACK
6
CONTINUOUS
10
-0.112501
20
2.05585
11
-0.105575
21
2.06804
0
LINE
8
BLACK
6
CONTINUOUS
10
-0.105575
20
2.06804
11
-0.097333
21
2.07938
0
LINE
8
BLACK
6
CONTINUOUS
10
-0.097333
20
2.07938
11
-0.0878777
21
2.08974
0
LINE
8
BLACK
6
CONTINUOUS
10
-0.0878777
20
2.08974
11
-0.0773271
21
2.09897
0
LINE
8
BLACK
6
CONTINUOUS
10
-0.0773271
20
2.09897
11
-0.0658126
21
2.10698
0
LINE
8
BLACK
6
CONTINUOUS
10
-0.0658126
20
2.10698
11
-0.0534779
21
2.11365
0
LINE
8
BLACK
6
CONTINUOUS
10
-0.0534779
20
2.11365
11
-0.0404766
21
2.1189
0
LINE
8
BLACK
6
CONTINUOUS
10
-0.0404766
20
2.1189
11
-0.0269707
21
2.12267
0
LINE
8
BLACK
6
CONTINUOUS
10
-0.0269707
20
2.12267
11
-0.0131288
21
2.12491
0
LINE
8
BLACK
6
CONTINUOUS
10
-0.0131288
20
2.12491
11
0.00087685
21
2.1256
0
LINE
8
BLACK
6
CONTINUOUS
10
0.00087685
20
2.1256
11
0.0148715
21
2.12472
0
LINE
8
BLACK
6
CONTINUOUS
10
0.0148715
20
2.12472
11
0.0286809
21
2.12228
0
LINE
8
BLACK
6
CONTINUOUS
10
0.0286809
20
2.12228
11
0.0421327
21
2.11832
0
LINE
8
BLACK
6
CONTINUOUS
10
0.0421327
20
2.11832
11
0.0550594
21
2.11289
0
LINE
8
BLACK
6
CONTINUOUS
10
0.0550594
20
2.11289
11
0.0672998
21
2.10605
0
LINE
8
BLACK
6
CONTINUOUS
10
0.0672998
20
2.10605
11
0.0787015
21
2.09788
0
LINE
8
BLACK
6
CONTINUOUS
10
0.0787015
20
2.09788
11
0.0891221
21
2.0885
0
LINE
8
BLACK
6
CONTINUOUS
10
0.0891221
20
2.0885
11
0.0891883
21
2.08843
0
LINE
8
BLACK
6
CONTINUOUS
10
0.0891883
20
2.08843
11
0.0874226
21
2.09257
0
LINE
8
BLACK
6
CONTINUOUS
10
0.0874226
20
2.09257
11
0.0811031
21
2.10365
0
LINE
8
BLACK
6
CONTINUOUS
10
0.0811031
20
2.10365
11
0.0735522
21
2.11393
0
LINE
8
BLACK
6
CONTINUOUS
10
0.0735522
20
2.11393
11
0.0648698
21
2.12327
0
LINE
8
BLACK
6
CONTINUOUS
10
0.0648698
20
2.12327
11
0.055171
21
2.13155
0
LINE
8
BLACK
6
CONTINUOUS
10
0.055171
20
2.13155
11
0.0445844
21
2.13867
0
LINE
8
BLACK
6
CONTINUOUS
10
0.0445844
20
2.13867
11
0.0332503
21
2.14452
0
LINE
8
BLACK
6
CONTINUOUS
10
0.0332503
20
2.14452
11
0.0213189
21
2.14902
0
LINE
8
BLACK
6
CONTINUOUS
10
0.0213189
20
2.14902
11
0.00894846
21
2.15213
0
LINE
8
BLACK
6
CONTINUOUS
10
0.00894846
20
2.15213
11
-0.00369717
21
2.1538
0
LINE
8
BLACK
6
CONTINUOUS
10
-0.00369717
20
2.1538
11
-0.0164503
21
2.154
0
LINE
8
BLACK
6
CONTINUOUS
10
-0.0164503
20
2.154
11
-0.029142
21
2.15273
0
LINE
8
BLACK
6
CONTINUOUS
10
-0.029142
20
2.15273
11
-0.041604
21
2.15001
0
LINE
8
BLACK
6
CONTINUOUS
10
-0.041604
20
2.15001
11
-0.053671
21
2.14588
0
LINE
8
BLACK
6
CONTINUOUS
10
-0.053671
20
2.14588
11
-0.0651833
21
2.14039
0
LINE
8
BLACK
6
CONTINUOUS
10
-0.0651833
20
2.14039
11
-0.0759881
21
2.13361
0
LINE
8
BLACK
6
CONTINUOUS
10
-0.0759881
20
2.13361
11
-0.0859423
21
2.12564
0
LINE
8
BLACK
6
CONTINUOUS
10
-0.0859423
20
2.12564
11
-0.0949139
21
2.11657
0
LINE
8
BLACK
6
CONTINUOUS
10
-0.0949139
20
2.11657
11
-0.102784
21
2.10654
0
LINE
8
BLACK
6
CONTINUOUS
10
-0.102784
20
2.10654
11
-0.109448
21
2.09566
0
LINE
8
BLACK
6
CONTINUOUS
10
-0.109448
20
2.09566
11
-0.114819
21
2.08409
0
LINE
8
BLACK
6
CONTINUOUS
10
-0.114819
20
2.08409
11
-0.118823
21
2.07198
0
LINE
8
BLACK
6
CONTINUOUS
10
-0.118823
20
2.07198
11
-0.12141
21
2.05949
0
LINE
8
BLACK
6
CONTINUOUS
10
-0.12141
20
2.05949
11
-0.122544
21
2.04679
0
LINE
8
BLACK
6
CONTINUOUS
10
-0.122544
20
2.04679
11
-0.12221
21
2.03404
0
LINE
8
BLACK
6
CONTINUOUS
10
-0.12221
20
2.03404
11
-0.121732
21
2.03068
0
LINE
8
BLACK
6
CONTINUOUS
10
0.109843
20
2.01207
11
0.105603
21
1.99871
0
LINE
8
BLACK
6
CONTINUOUS
10
0.105603
20
1.99871
11
0.0998997
21
1.9859
0
LINE
8
BLACK
6
CONTINUOUS
10
0.0998997
20
1.9859
11
0.0928039
21
1.9738
0
LINE
8
BLACK
6
CONTINUOUS
10
0.0928039
20
1.9738
11
0.0844042
21
1.96257
0
LINE
8
BLACK
6
CONTINUOUS
10
0.0844042
20
1.96257
11
0.0748052
21
1.95235
0
LINE
8
BLACK
6
CONTINUOUS
10
0.0748052
20
1.95235
11
0.0641266
21
1.94326
0
LINE
8
BLACK
6
CONTINUOUS
10
0.0641266
20
1.94326
11
0.0525016
21
1.93542
0
LINE
8
BLACK
6
CONTINUOUS
10
0.0525016
20
1.93542
11
0.0400749
21
1.92893
0
LINE
8
BLACK
6
CONTINUOUS
10
0.0400749
20
1.92893
11
0.0270015
21
1.92385
0
LINE
8
BLACK
6
CONTINUOUS
10
0.0270015
20
1.92385
11
0.0134444
21
1.92027
0
LINE
8
BLACK
6
CONTINUOUS
10
0.0134444
20
1.92027
11
-0.000427559
21
1.91822
0
LINE
8
BLACK
6
CONTINUOUS
10
-0.000427559
20
1.91822
11
-0.0144414
21
1.91773
0
LINE
8
BLACK
6
CONTINUOUS
10
-0.0144414
20
1.91773
11
-0.0284224
21
1.91881
0
LINE
8
BLACK
6
CONTINUOUS
10
-0.0284224
20
1.91881
11
-0.0421964
21
1.92144
0
LINE
8
BLACK
6
CONTINUOUS
10
-0.0421964
20
1.92144
11
-0.0555917
21
1.92558
0
LINE
8
BLACK
6
CONTINUOUS
10
-0.0555917
20
1.92558
11
-0.0684413
21
1.9312
0
LINE
8
BLACK
6
CONTINUOUS
10
-0.0684413
20
1.9312
11
-0.080585
21
1.93821
0
LINE
8
BLACK
6
CONTINUOUS
10
-0.080585
20
1.93821
11
-0.0918715
21
1.94653
0
LINE
8
BLACK
6
CONTINUOUS
10
-0.0918715
20
1.94653
11
-0.101253
21
1.95522
0
LINE
8
BLACK
6
CONTINUOUS
10
-0.101253
20
1.95522
11
-0.100732
21
1.95388
0
LINE
8
BLACK
6
CONTINUOUS
10
-0.100732
20
1.95388
11
-0.0947636
21
1.94261
0
LINE
8
BLACK
6
CONTINUOUS
10
-0.0947636
20
1.94261
11
-0.0875393
21
1.9321
0
LINE
8
BLACK
6
CONTINUOUS
10
-0.0875393
20
1.9321
11
-0.0791546
21
1.92249
0
LINE
8
BLACK
6
CONTINUOUS
10
-0.0791546
20
1.92249
11
-0.0697208
21
1.9139
0
LINE
8
BLACK
6
CONTINUOUS
10
-0.0697208
20
1.9139
11
-0.0593629
21
1.90646
0
LINE
8
BLACK
6
CONTINUOUS
10
-0.0593629
20
1.90646
11
-0.0482181
21
1.90026
0
LINE
8
BLACK
6
CONTINUOUS
10
-0.0482181
20
1.90026
11
-0.0364343
21
1.89537
0
LINE
8
BLACK
6
CONTINUOUS
10
-0.0364343
20
1.89537
11
-0.0241675
21
1.89188
0
LINE
8
BLACK
6
CONTINUOUS
10
-0.0241675
20
1.89188
11
-0.0115804
21
1.88982
0
LINE
8
BLACK
6
CONTINUOUS
10
-0.0115804
20
1.88982
11
0.00116016
21
1.88922
0
LINE
8
BLACK
6
CONTINUOUS
10
0.00116016
20
1.88922
11
0.0138854
21
1.89009
0
LINE
8
BLACK
6
CONTINUOUS
10
0.0138854
20
1.89009
11
0.0264265
21
1.89241
0
LINE
8
BLACK
6
CONTINUOUS
10
0.0264265
20
1.89241
11
0.0386174
21
1.89616
0
LINE
8
BLACK
6
CONTINUOUS
10
0.0386174
20
1.89616
11
0.0502965
21
1.90129
0
LINE
8
BLACK
6
CONTINUOUS
10
0.0502965
20
1.90129
11
0.0613088
21
1.90772
0
LINE
8
BLACK
6
CONTINUOUS
10
0.0613088
20
1.90772
11
0.0715086
21
1.91538
0
LINE
8
BLACK
6
CONTINUOUS
10
0.0715086
20
1.91538
11
0.0807606
21
1.92416
0
LINE
8
BLACK
6
CONTINUOUS
10
0.0807606
20
1.92416
11
0.0889421
21
1.93395
0
LINE
8
BLACK
6
CONTINUOUS
10
0.0889421
20
1.93395
11
0.0959447
21
1.94461
0
LINE
8
BLACK
6
CONTINUOUS
10
0.0959447
20
1.94461
11
0.101676
21
1.956
0
LINE
8
BLACK
6
CONTINUOUS
10
0.101676
20
1.956
11
0.106059
21
1.96798
0
LINE
8
BLACK
6
CONTINUOUS
10
0.106059
20
1.96798
11
0.109036
21
1.98038
0
LINE
8
BLACK
6
CONTINUOUS
10
0.109036
20
1.98038
11
0.110569
21
1.99304
0
LINE
8
BLACK
6
CONTINUOUS
10
0.110569
20
1.99304
11
0.110787
21
2
0
LINE
8
BLACK
6
CONTINUOUS
10
0.110787
20
2
11
0.110053
21
2.01273
0
LINE
8
BLACK
6
CONTINUOUS
10
0.110053
20
2.01273
11
0.110016
21
2.01295
0
LINE
8
BLACK
6
CONTINUOUS
10
0.110016
20
2.01295
11
0.109843
21
2.01207
0
LINE
8
BLACK
6
CONTINUOUS
10
-0.106575
20
1.98592
11
-0.0993503
21
1.9754
0
LINE
8
BLACK
6
CONTINUOUS
10
-0.0993503
20
1.9754
11
-0.0909656
21
1.96579
0
LINE
8
BLACK
6
CONTINUOUS
10
-0.0909656
20
1.96579
11
-0.0815318
21
1.95721
0
LINE
8
BLACK
6
CONTINUOUS
10
-0.0815318
20
1.95721
11
-0.0711739
21
1.94977
0
LINE
8
BLACK
6
CONTINUOUS
10
-0.0711739
20
1.94977
11
-0.0600292
21
1.94356
0
LINE
8
BLACK
6
CONTINUOUS
10
-0.0600292
20
1.94356
11
-0.0482453
21
1.93868
0
LINE
8
BLACK
6
CONTINUOUS
10
-0.0482453
20
1.93868
11
-0.0359785
21
1.93519
0
LINE
8
BLACK
6
CONTINUOUS
10
-0.0359785
20
1.93519
11
-0.0233915
21
1.93313
0
LINE
8
BLACK
6
CONTINUOUS
10
-0.0233915
20
1.93313
11
-0.0106509
21
1.93253
0
LINE
8
BLACK
6
CONTINUOUS
10
-0.0106509
20
1.93253
11
0.00207433
21
1.93339
0
LINE
8
BLACK
6
CONTINUOUS
10
0.00207433
20
1.93339
11
0.0146155
21
1.93572
0
LINE
8
BLACK
6
CONTINUOUS
10
0.0146155
20
1.93572
11
0.0268064
21
1.93947
0
LINE
8
BLACK
6
CONTINUOUS
10
0.0268064
20
1.93947
11
0.0384854
21
1.94459
0
LINE
8
BLACK
6
CONTINUOUS
10
0.0384854
20
1.94459
11
0.0494978
21
1.95103
0
LINE
8
BLACK
6
CONTINUOUS
10
0.0494978
20
1.95103
11
0.0596976
21
1.95869
0
LINE
8
BLACK
6
CONTINUOUS
10
0.0596976
20
1.95869
11
0.0689495
21
1.96747
0
LINE
8
BLACK
6
CONTINUOUS
10
0.0689495
20
1.96747
11
0.0771311
21
1.97725
0
LINE
8
BLACK
6
CONTINUOUS
10
0.0771311
20
1.97725
11
0.0841337
21
1.98791
0
LINE
8
BLACK
6
CONTINUOUS
10
0.0841337
20
1.98791
11
0.0898646
21
1.99931
0
LINE
8
BLACK
6
CONTINUOUS
10
0.0898646
20
1.99931
11
0.094248
21
2.01129
0
LINE
8
BLACK
6
CONTINUOUS
10
0.094248
20
2.01129
11
0.0972255
21
2.02369
0
LINE
8
BLACK
6
CONTINUOUS
10
0.0972255
20
2.02369
11
0.0987578
21
2.03635
0
LINE
8
BLACK
6
CONTINUOUS
10
0.0987578
20
2.03635
11
0.0989764
21
2.04331
0
LINE
8
BLACK
6
CONTINUOUS
10
0.0989764
20
2.04331
11
0.0985657
21
2.05043
0
LINE
8
BLACK
6
CONTINUOUS
10
0.0985657
20
2.05043
11
0.0929142
21
2.06034
0
LINE
8
BLACK
6
CONTINUOUS
10
0.0929142
20
2.06034
11
0.0853632
21
2.07062
0
LINE
8
BLACK
6
CONTINUOUS
10
0.0853632
20
2.07062
11
0.0766808
21
2.07996
0
LINE
8
BLACK
6
CONTINUOUS
10
0.0766808
20
2.07996
11
0.066982
21
2.08825
0
LINE
8
BLACK
6
CONTINUOUS
10
0.066982
20
2.08825
11
0.0563954
21
2.09536
0
LINE
8
BLACK
6
CONTINUOUS
10
0.0563954
20
2.09536
11
0.0450613
21
2.10121
0
LINE
8
BLACK
6
CONTINUOUS
10
0.0450613
20
2.10121
11
0.03313
21
2.10572
0
LINE
8
BLACK
6
CONTINUOUS
10
0.03313
20
2.10572
11
0.0207595
21
2.10883
0
LINE
8
BLACK
6
CONTINUOUS
10
0.0207595
20
2.10883
11
0.00811386
21
2.11049
0
LINE
8
BLACK
6
CONTINUOUS
10
0.00811386
20
2.11049
11
-0.00463929
21
2.11069
0
LINE
8
BLACK
6
CONTINUOUS
10
-0.00463929
20
2.11069
11
-0.017331
21
2.10942
0
LINE
8
BLACK
6
CONTINUOUS
10
-0.017331
20
2.10942
11
-0.029793
21
2.10671
0
LINE
8
BLACK
6
CONTINUOUS
10
-0.029793
20
2.10671
11
-0.04186
21
2.10257
0
LINE
8
BLACK
6
CONTINUOUS
10
-0.04186
20
2.10257
11
-0.0533722
21
2.09708
0
LINE
8
BLACK
6
CONTINUOUS
10
-0.0533722
20
2.09708
11
-0.0641771
21
2.09031
0
LINE
8
BLACK
6
CONTINUOUS
10
-0.0641771
20
2.09031
11
-0.0741313
21
2.08233
0
LINE
8
BLACK
6
CONTINUOUS
10
-0.0741313
20
2.08233
11
-0.0831029
21
2.07327
0
LINE
8
BLACK
6
CONTINUOUS
10
-0.0831029
20
2.07327
11
-0.090973
21
2.06323
0
LINE
8
BLACK
6
CONTINUOUS
10
-0.090973
20
2.06323
11
-0.0976374
21
2.05235
0
LINE
8
BLACK
6
CONTINUOUS
10
-0.0976374
20
2.05235
11
-0.103008
21
2.04078
0
LINE
8
BLACK
6
CONTINUOUS
10
-0.103008
20
2.04078
11
-0.107012
21
2.02867
0
LINE
8
BLACK
6
CONTINUOUS
10
-0.107012
20
2.02867
11
-0.109599
21
2.01618
0
LINE
8
BLACK
6
CONTINUOUS
10
-0.109599
20
2.01618
11
-0.110733
21
2.00348
0
LINE
8
BLACK
6
CONTINUOUS
10
-0.110733
20
2.00348
11
-0.110465
21
1.99326
0
LINE
8
BLACK
6
CONTINUOUS
10
-0.110465
20
1.99326
11
-0.106575
21
1.98592
  0
ENDSEC
  0
EOF
