  0
SECTION
  2
HEADER
  9
$ANGBASE
  50
0.0
  9
$ANGDIR
  70
1
  9
$MEASUREMENT
  70
0
  0
ENDSEC
  0
SECTION
  2
TABLES
  0
TABLE
  2
LTYPE
  70
4
  0
LTYPE
  5
40F
  2
CONTINUOUS
  70
0
  3
Solid line
  72
65
  73
0
  40
0.0
  0
LTYPE
  5
410
  2
DASHDOT
 70
0
  3
Dash Dot ____ _ ____ _
 72
65
 73
4
 40
2.0
 49
1.25
 49
-0.25
 49
0.25
 49
-0.25
  0
LTYPE
  5
411
  2
DASHED
 70
0
  3
Dashed __ __ __ __ __
 72
65
 73
2
 40
0.75
 49
0.5
 49
-0.25
  0
LTYPE
  5
43B
  2
DOTTED
 70
0
  3
Dotted .  .  .  .
 72
65
 73
2
 40
0.2
 49
0.0
 49
-0.2
  0
ENDTAB
  0
TABLE
  2
STYLE
  70
4
  0
STYLE
  2
KICAD
  70
0
  40
0
  41
1
  42
1
  50
0
  71
0
  3
isocp.shx
  0
STYLE
  2
KICADB
  70
0
  40
0
  41
1
  42
1
  50
0
  71
0
  3
isocp.shx
  0
STYLE
  2
KICADI
  70
0
  40
0
  41
1
  42
1
  50
15
  71
0
  3
isocp.shx
  0
STYLE
  2
KICADBI
  70
0
  40
0
  41
1
  42
1
  50
15
  71
0
  3
isocp.shx
  0
ENDTAB
  0
TABLE
  2
LAYER
  70
1
  0
LAYER
  2
BLACK
  70
0
  62
7
  6
CONTINUOUS
  0
ENDTAB
  0
ENDSEC
  0
SECTION
  2
ENTITIES
0
LINE
8
BLACK
6
CONTINUOUS
10
0.831522
20
-0.0647256
11
0.834716
21
-0.0668592
0
LINE
8
BLACK
6
CONTINUOUS
10
0.834716
20
-0.0668592
11
0.836849
21
-0.0700523
0
LINE
8
BLACK
6
CONTINUOUS
10
0.836849
20
-0.0700523
11
0.837598
21
-0.0738189
0
LINE
8
BLACK
6
CONTINUOUS
10
0.837598
20
-0.0738189
11
0.837598
21
-0.0944882
0
LINE
8
BLACK
6
CONTINUOUS
10
0.837598
20
-0.0944882
11
0.836849
21
-0.0982548
0
LINE
8
BLACK
6
CONTINUOUS
10
0.836849
20
-0.0982548
11
0.834716
21
-0.101448
0
LINE
8
BLACK
6
CONTINUOUS
10
0.834716
20
-0.101448
11
0.831522
21
-0.103581
0
LINE
8
BLACK
6
CONTINUOUS
10
0.831522
20
-0.103581
11
0.827756
21
-0.104331
0
LINE
8
BLACK
6
CONTINUOUS
10
0.827756
20
-0.104331
11
0.792323
21
-0.104331
0
LINE
8
BLACK
6
CONTINUOUS
10
0.792323
20
-0.104331
11
0.788556
21
-0.103581
0
LINE
8
BLACK
6
CONTINUOUS
10
0.788556
20
-0.103581
11
0.785363
21
-0.101448
0
LINE
8
BLACK
6
CONTINUOUS
10
0.785363
20
-0.101448
11
0.78323
21
-0.0982548
0
LINE
8
BLACK
6
CONTINUOUS
10
0.78323
20
-0.0982548
11
0.78248
21
-0.0944882
0
LINE
8
BLACK
6
CONTINUOUS
10
0.78248
20
-0.0944882
11
0.78248
21
-0.0738189
0
LINE
8
BLACK
6
CONTINUOUS
10
0.78248
20
-0.0738189
11
0.78323
21
-0.0700523
0
LINE
8
BLACK
6
CONTINUOUS
10
0.78323
20
-0.0700523
11
0.785363
21
-0.0668592
0
LINE
8
BLACK
6
CONTINUOUS
10
0.785363
20
-0.0668592
11
0.788556
21
-0.0647256
0
LINE
8
BLACK
6
CONTINUOUS
10
0.788556
20
-0.0647256
11
0.792323
21
-0.0639764
0
LINE
8
BLACK
6
CONTINUOUS
10
0.792323
20
-0.0639764
11
0.827756
21
-0.0639764
0
LINE
8
BLACK
6
CONTINUOUS
10
0.827756
20
-0.0639764
11
0.831522
21
-0.0647256
0
LINE
8
BLACK
6
CONTINUOUS
10
0.74294
20
-0.0647256
11
0.746133
21
-0.0668592
0
LINE
8
BLACK
6
CONTINUOUS
10
0.746133
20
-0.0668592
11
0.748267
21
-0.0700523
0
LINE
8
BLACK
6
CONTINUOUS
10
0.748267
20
-0.0700523
11
0.749016
21
-0.0738189
0
LINE
8
BLACK
6
CONTINUOUS
10
0.749016
20
-0.0738189
11
0.749016
21
-0.0944882
0
LINE
8
BLACK
6
CONTINUOUS
10
0.749016
20
-0.0944882
11
0.748267
21
-0.0982548
0
LINE
8
BLACK
6
CONTINUOUS
10
0.748267
20
-0.0982548
11
0.746133
21
-0.101448
0
LINE
8
BLACK
6
CONTINUOUS
10
0.746133
20
-0.101448
11
0.74294
21
-0.103581
0
LINE
8
BLACK
6
CONTINUOUS
10
0.74294
20
-0.103581
11
0.739173
21
-0.104331
0
LINE
8
BLACK
6
CONTINUOUS
10
0.739173
20
-0.104331
11
0.70374
21
-0.104331
0
LINE
8
BLACK
6
CONTINUOUS
10
0.70374
20
-0.104331
11
0.699974
21
-0.103581
0
LINE
8
BLACK
6
CONTINUOUS
10
0.699974
20
-0.103581
11
0.69678
21
-0.101448
0
LINE
8
BLACK
6
CONTINUOUS
10
0.69678
20
-0.101448
11
0.694647
21
-0.0982548
0
LINE
8
BLACK
6
CONTINUOUS
10
0.694647
20
-0.0982548
11
0.693898
21
-0.0944882
0
LINE
8
BLACK
6
CONTINUOUS
10
0.693898
20
-0.0944882
11
0.693898
21
-0.0738189
0
LINE
8
BLACK
6
CONTINUOUS
10
0.693898
20
-0.0738189
11
0.694647
21
-0.0700523
0
LINE
8
BLACK
6
CONTINUOUS
10
0.694647
20
-0.0700523
11
0.69678
21
-0.0668592
0
LINE
8
BLACK
6
CONTINUOUS
10
0.69678
20
-0.0668592
11
0.699974
21
-0.0647256
0
LINE
8
BLACK
6
CONTINUOUS
10
0.699974
20
-0.0647256
11
0.70374
21
-0.0639764
0
LINE
8
BLACK
6
CONTINUOUS
10
0.70374
20
-0.0639764
11
0.739173
21
-0.0639764
0
LINE
8
BLACK
6
CONTINUOUS
10
0.739173
20
-0.0639764
11
0.74294
21
-0.0647256
0
LINE
8
BLACK
6
CONTINUOUS
10
0.99065
20
-0.0964567
11
0.931594
21
-0.0964567
0
LINE
8
BLACK
6
CONTINUOUS
10
0.931594
20
-0.0964567
11
0.931594
21
-0.0374016
0
LINE
8
BLACK
6
CONTINUOUS
10
0.931594
20
-0.0374016
11
0.99065
21
-0.0374016
0
LINE
8
BLACK
6
CONTINUOUS
10
0.99065
20
-0.0374016
11
0.99065
21
-0.0964567
0
LINE
8
BLACK
6
CONTINUOUS
10
1.16437
20
-0.0927165
11
1.10531
21
-0.0927165
0
LINE
8
BLACK
6
CONTINUOUS
10
1.10531
20
-0.0927165
11
1.10531
21
-0.0336614
0
LINE
8
BLACK
6
CONTINUOUS
10
1.10531
20
-0.0336614
11
1.16437
21
-0.0336614
0
LINE
8
BLACK
6
CONTINUOUS
10
1.16437
20
-0.0336614
11
1.16437
21
-0.0927165
0
LINE
8
BLACK
6
CONTINUOUS
10
0.831522
20
0.0071248
11
0.834716
21
0.00499122
0
LINE
8
BLACK
6
CONTINUOUS
10
0.834716
20
0.00499122
11
0.836849
21
0.00179807
0
LINE
8
BLACK
6
CONTINUOUS
10
0.836849
20
0.00179807
11
0.837598
21
-0.0019685
0
LINE
8
BLACK
6
CONTINUOUS
10
0.837598
20
-0.0019685
11
0.837598
21
-0.0226378
0
LINE
8
BLACK
6
CONTINUOUS
10
0.837598
20
-0.0226378
11
0.836849
21
-0.0264044
0
LINE
8
BLACK
6
CONTINUOUS
10
0.836849
20
-0.0264044
11
0.834716
21
-0.0295975
0
LINE
8
BLACK
6
CONTINUOUS
10
0.834716
20
-0.0295975
11
0.831522
21
-0.0317311
0
LINE
8
BLACK
6
CONTINUOUS
10
0.831522
20
-0.0317311
11
0.827756
21
-0.0324803
0
LINE
8
BLACK
6
CONTINUOUS
10
0.827756
20
-0.0324803
11
0.792323
21
-0.0324803
0
LINE
8
BLACK
6
CONTINUOUS
10
0.792323
20
-0.0324803
11
0.788556
21
-0.0317311
0
LINE
8
BLACK
6
CONTINUOUS
10
0.788556
20
-0.0317311
11
0.785363
21
-0.0295975
0
LINE
8
BLACK
6
CONTINUOUS
10
0.785363
20
-0.0295975
11
0.78323
21
-0.0264044
0
LINE
8
BLACK
6
CONTINUOUS
10
0.78323
20
-0.0264044
11
0.78248
21
-0.0226378
0
LINE
8
BLACK
6
CONTINUOUS
10
0.78248
20
-0.0226378
11
0.78248
21
-0.0019685
0
LINE
8
BLACK
6
CONTINUOUS
10
0.78248
20
-0.0019685
11
0.78323
21
0.00179807
0
LINE
8
BLACK
6
CONTINUOUS
10
0.78323
20
0.00179807
11
0.785363
21
0.00499122
0
LINE
8
BLACK
6
CONTINUOUS
10
0.785363
20
0.00499122
11
0.788556
21
0.0071248
0
LINE
8
BLACK
6
CONTINUOUS
10
0.788556
20
0.0071248
11
0.792323
21
0.00787402
0
LINE
8
BLACK
6
CONTINUOUS
10
0.792323
20
0.00787402
11
0.827756
21
0.00787402
0
LINE
8
BLACK
6
CONTINUOUS
10
0.827756
20
0.00787402
11
0.831522
21
0.0071248
0
LINE
8
BLACK
6
CONTINUOUS
10
0.74294
20
0.0071248
11
0.746133
21
0.00499122
0
LINE
8
BLACK
6
CONTINUOUS
10
0.746133
20
0.00499122
11
0.748267
21
0.00179807
0
LINE
8
BLACK
6
CONTINUOUS
10
0.748267
20
0.00179807
11
0.749016
21
-0.0019685
0
LINE
8
BLACK
6
CONTINUOUS
10
0.749016
20
-0.0019685
11
0.749016
21
-0.0226378
0
LINE
8
BLACK
6
CONTINUOUS
10
0.749016
20
-0.0226378
11
0.748267
21
-0.0264044
0
LINE
8
BLACK
6
CONTINUOUS
10
0.748267
20
-0.0264044
11
0.746133
21
-0.0295975
0
LINE
8
BLACK
6
CONTINUOUS
10
0.746133
20
-0.0295975
11
0.74294
21
-0.0317311
0
LINE
8
BLACK
6
CONTINUOUS
10
0.74294
20
-0.0317311
11
0.739173
21
-0.0324803
0
LINE
8
BLACK
6
CONTINUOUS
10
0.739173
20
-0.0324803
11
0.70374
21
-0.0324803
0
LINE
8
BLACK
6
CONTINUOUS
10
0.70374
20
-0.0324803
11
0.699974
21
-0.0317311
0
LINE
8
BLACK
6
CONTINUOUS
10
0.699974
20
-0.0317311
11
0.69678
21
-0.0295975
0
LINE
8
BLACK
6
CONTINUOUS
10
0.69678
20
-0.0295975
11
0.694647
21
-0.0264044
0
LINE
8
BLACK
6
CONTINUOUS
10
0.694647
20
-0.0264044
11
0.693898
21
-0.0226378
0
LINE
8
BLACK
6
CONTINUOUS
10
0.693898
20
-0.0226378
11
0.693898
21
-0.0019685
0
LINE
8
BLACK
6
CONTINUOUS
10
0.693898
20
-0.0019685
11
0.694647
21
0.00179807
0
LINE
8
BLACK
6
CONTINUOUS
10
0.694647
20
0.00179807
11
0.69678
21
0.00499122
0
LINE
8
BLACK
6
CONTINUOUS
10
0.69678
20
0.00499122
11
0.699974
21
0.0071248
0
LINE
8
BLACK
6
CONTINUOUS
10
0.699974
20
0.0071248
11
0.70374
21
0.00787402
0
LINE
8
BLACK
6
CONTINUOUS
10
0.70374
20
0.00787402
11
0.739173
21
0.00787402
0
LINE
8
BLACK
6
CONTINUOUS
10
0.739173
20
0.00787402
11
0.74294
21
0.0071248
0
LINE
8
BLACK
6
CONTINUOUS
10
0.652559
20
0.0303991
11
0.53248
21
0.0303991
0
LINE
8
BLACK
6
CONTINUOUS
10
0.53248
20
0.0303991
11
0.53248
21
0.128824
0
LINE
8
BLACK
6
CONTINUOUS
10
0.53248
20
0.128824
11
0.652559
21
0.128824
0
LINE
8
BLACK
6
CONTINUOUS
10
0.652559
20
0.128824
11
0.652559
21
0.0303991
0
LINE
8
BLACK
6
CONTINUOUS
10
0.319882
20
0.0303991
11
0.199803
21
0.0303991
0
LINE
8
BLACK
6
CONTINUOUS
10
0.199803
20
0.0303991
11
0.199803
21
0.128824
0
LINE
8
BLACK
6
CONTINUOUS
10
0.199803
20
0.128824
11
0.319882
21
0.128824
0
LINE
8
BLACK
6
CONTINUOUS
10
0.319882
20
0.128824
11
0.319882
21
0.0303991
0
LINE
8
BLACK
6
CONTINUOUS
10
0.99065
20
0.0515748
11
0.931594
21
0.0515748
0
LINE
8
BLACK
6
CONTINUOUS
10
0.931594
20
0.0515748
11
0.931594
21
0.11063
0
LINE
8
BLACK
6
CONTINUOUS
10
0.931594
20
0.11063
11
0.99065
21
0.11063
0
LINE
8
BLACK
6
CONTINUOUS
10
0.99065
20
0.11063
11
0.99065
21
0.0515748
0
LINE
8
BLACK
6
CONTINUOUS
10
1.16437
20
0.055315
11
1.10531
21
0.055315
0
LINE
8
BLACK
6
CONTINUOUS
10
1.10531
20
0.055315
11
1.10531
21
0.11437
0
LINE
8
BLACK
6
CONTINUOUS
10
1.10531
20
0.11437
11
1.16437
21
0.11437
0
LINE
8
BLACK
6
CONTINUOUS
10
1.16437
20
0.11437
11
1.16437
21
0.055315
0
LINE
8
BLACK
6
CONTINUOUS
10
0.79852
20
0.238724
11
0.800436
21
0.237444
0
LINE
8
BLACK
6
CONTINUOUS
10
0.800436
20
0.237444
11
0.801716
21
0.235528
0
LINE
8
BLACK
6
CONTINUOUS
10
0.801716
20
0.235528
11
0.802165
21
0.233268
0
LINE
8
BLACK
6
CONTINUOUS
10
0.802165
20
0.233268
11
0.802165
21
0.187008
0
LINE
8
BLACK
6
CONTINUOUS
10
0.802165
20
0.187008
11
0.801716
21
0.184748
0
LINE
8
BLACK
6
CONTINUOUS
10
0.801716
20
0.184748
11
0.800436
21
0.182832
0
LINE
8
BLACK
6
CONTINUOUS
10
0.800436
20
0.182832
11
0.79852
21
0.181552
0
LINE
8
BLACK
6
CONTINUOUS
10
0.79852
20
0.181552
11
0.79626
21
0.181102
0
LINE
8
BLACK
6
CONTINUOUS
10
0.79626
20
0.181102
11
0.784449
21
0.181102
0
LINE
8
BLACK
6
CONTINUOUS
10
0.784449
20
0.181102
11
0.782189
21
0.181552
0
LINE
8
BLACK
6
CONTINUOUS
10
0.782189
20
0.181552
11
0.780273
21
0.182832
0
LINE
8
BLACK
6
CONTINUOUS
10
0.780273
20
0.182832
11
0.778993
21
0.184748
0
LINE
8
BLACK
6
CONTINUOUS
10
0.778993
20
0.184748
11
0.778543
21
0.187008
0
LINE
8
BLACK
6
CONTINUOUS
10
0.778543
20
0.187008
11
0.778543
21
0.233268
0
LINE
8
BLACK
6
CONTINUOUS
10
0.778543
20
0.233268
11
0.778993
21
0.235528
0
LINE
8
BLACK
6
CONTINUOUS
10
0.778993
20
0.235528
11
0.780273
21
0.237444
0
LINE
8
BLACK
6
CONTINUOUS
10
0.780273
20
0.237444
11
0.782189
21
0.238724
0
LINE
8
BLACK
6
CONTINUOUS
10
0.782189
20
0.238724
11
0.784449
21
0.239173
0
LINE
8
BLACK
6
CONTINUOUS
10
0.784449
20
0.239173
11
0.79626
21
0.239173
0
LINE
8
BLACK
6
CONTINUOUS
10
0.79626
20
0.239173
11
0.79852
21
0.238724
0
LINE
8
BLACK
6
CONTINUOUS
10
0.969288
20
0.238724
11
0.971203
21
0.237444
0
LINE
8
BLACK
6
CONTINUOUS
10
0.971203
20
0.237444
11
0.972484
21
0.235528
0
LINE
8
BLACK
6
CONTINUOUS
10
0.972484
20
0.235528
11
0.972933
21
0.233268
0
LINE
8
BLACK
6
CONTINUOUS
10
0.972933
20
0.233268
11
0.972933
21
0.187008
0
LINE
8
BLACK
6
CONTINUOUS
10
0.972933
20
0.187008
11
0.972484
21
0.184748
0
LINE
8
BLACK
6
CONTINUOUS
10
0.972484
20
0.184748
11
0.971203
21
0.182832
0
LINE
8
BLACK
6
CONTINUOUS
10
0.971203
20
0.182832
11
0.969288
21
0.181552
0
LINE
8
BLACK
6
CONTINUOUS
10
0.969288
20
0.181552
11
0.967028
21
0.181102
0
LINE
8
BLACK
6
CONTINUOUS
10
0.967028
20
0.181102
11
0.955217
21
0.181102
0
LINE
8
BLACK
6
CONTINUOUS
10
0.955217
20
0.181102
11
0.952957
21
0.181552
0
LINE
8
BLACK
6
CONTINUOUS
10
0.952957
20
0.181552
11
0.951041
21
0.182832
0
LINE
8
BLACK
6
CONTINUOUS
10
0.951041
20
0.182832
11
0.949761
21
0.184748
0
LINE
8
BLACK
6
CONTINUOUS
10
0.949761
20
0.184748
11
0.949311
21
0.187008
0
LINE
8
BLACK
6
CONTINUOUS
10
0.949311
20
0.187008
11
0.949311
21
0.233268
0
LINE
8
BLACK
6
CONTINUOUS
10
0.949311
20
0.233268
11
0.949761
21
0.235528
0
LINE
8
BLACK
6
CONTINUOUS
10
0.949761
20
0.235528
11
0.951041
21
0.237444
0
LINE
8
BLACK
6
CONTINUOUS
10
0.951041
20
0.237444
11
0.952957
21
0.238724
0
LINE
8
BLACK
6
CONTINUOUS
10
0.952957
20
0.238724
11
0.955217
21
0.239173
0
LINE
8
BLACK
6
CONTINUOUS
10
0.955217
20
0.239173
11
0.967028
21
0.239173
0
LINE
8
BLACK
6
CONTINUOUS
10
0.967028
20
0.239173
11
0.969288
21
0.238724
0
LINE
8
BLACK
6
CONTINUOUS
10
1.14301
20
0.238724
11
1.14492
21
0.237444
0
LINE
8
BLACK
6
CONTINUOUS
10
1.14492
20
0.237444
11
1.1462
21
0.235528
0
LINE
8
BLACK
6
CONTINUOUS
10
1.1462
20
0.235528
11
1.14665
21
0.233268
0
LINE
8
BLACK
6
CONTINUOUS
10
1.14665
20
0.233268
11
1.14665
21
0.187008
0
LINE
8
BLACK
6
CONTINUOUS
10
1.14665
20
0.187008
11
1.1462
21
0.184748
0
LINE
8
BLACK
6
CONTINUOUS
10
1.1462
20
0.184748
11
1.14492
21
0.182832
0
LINE
8
BLACK
6
CONTINUOUS
10
1.14492
20
0.182832
11
1.14301
21
0.181552
0
LINE
8
BLACK
6
CONTINUOUS
10
1.14301
20
0.181552
11
1.14075
21
0.181102
0
LINE
8
BLACK
6
CONTINUOUS
10
1.14075
20
0.181102
11
1.12894
21
0.181102
0
LINE
8
BLACK
6
CONTINUOUS
10
1.12894
20
0.181102
11
1.12668
21
0.181552
0
LINE
8
BLACK
6
CONTINUOUS
10
1.12668
20
0.181552
11
1.12476
21
0.182832
0
LINE
8
BLACK
6
CONTINUOUS
10
1.12476
20
0.182832
11
1.12348
21
0.184748
0
LINE
8
BLACK
6
CONTINUOUS
10
1.12348
20
0.184748
11
1.12303
21
0.187008
0
LINE
8
BLACK
6
CONTINUOUS
10
1.12303
20
0.187008
11
1.12303
21
0.233268
0
LINE
8
BLACK
6
CONTINUOUS
10
1.12303
20
0.233268
11
1.12348
21
0.235528
0
LINE
8
BLACK
6
CONTINUOUS
10
1.12348
20
0.235528
11
1.12476
21
0.237444
0
LINE
8
BLACK
6
CONTINUOUS
10
1.12476
20
0.237444
11
1.12668
21
0.238724
0
LINE
8
BLACK
6
CONTINUOUS
10
1.12668
20
0.238724
11
1.12894
21
0.239173
0
LINE
8
BLACK
6
CONTINUOUS
10
1.12894
20
0.239173
11
1.14075
21
0.239173
0
LINE
8
BLACK
6
CONTINUOUS
10
1.14075
20
0.239173
11
1.14301
21
0.238724
0
LINE
8
BLACK
6
CONTINUOUS
10
0.835921
20
0.312543
11
0.837837
21
0.311262
0
LINE
8
BLACK
6
CONTINUOUS
10
0.837837
20
0.311262
11
0.839117
21
0.309347
0
LINE
8
BLACK
6
CONTINUOUS
10
0.839117
20
0.309347
11
0.839567
21
0.307087
0
LINE
8
BLACK
6
CONTINUOUS
10
0.839567
20
0.307087
11
0.839567
21
0.260827
0
LINE
8
BLACK
6
CONTINUOUS
10
0.839567
20
0.260827
11
0.839117
21
0.258567
0
LINE
8
BLACK
6
CONTINUOUS
10
0.839117
20
0.258567
11
0.837837
21
0.256651
0
LINE
8
BLACK
6
CONTINUOUS
10
0.837837
20
0.256651
11
0.835921
21
0.255371
0
LINE
8
BLACK
6
CONTINUOUS
10
0.835921
20
0.255371
11
0.833661
21
0.254921
0
LINE
8
BLACK
6
CONTINUOUS
10
0.833661
20
0.254921
11
0.82185
21
0.254921
0
LINE
8
BLACK
6
CONTINUOUS
10
0.82185
20
0.254921
11
0.81959
21
0.255371
0
LINE
8
BLACK
6
CONTINUOUS
10
0.81959
20
0.255371
11
0.817675
21
0.256651
0
LINE
8
BLACK
6
CONTINUOUS
10
0.817675
20
0.256651
11
0.816394
21
0.258567
0
LINE
8
BLACK
6
CONTINUOUS
10
0.816394
20
0.258567
11
0.815945
21
0.260827
0
LINE
8
BLACK
6
CONTINUOUS
10
0.815945
20
0.260827
11
0.815945
21
0.307087
0
LINE
8
BLACK
6
CONTINUOUS
10
0.815945
20
0.307087
11
0.816394
21
0.309347
0
LINE
8
BLACK
6
CONTINUOUS
10
0.816394
20
0.309347
11
0.817675
21
0.311262
0
LINE
8
BLACK
6
CONTINUOUS
10
0.817675
20
0.311262
11
0.81959
21
0.312543
0
LINE
8
BLACK
6
CONTINUOUS
10
0.81959
20
0.312543
11
0.82185
21
0.312992
0
LINE
8
BLACK
6
CONTINUOUS
10
0.82185
20
0.312992
11
0.833661
21
0.312992
0
LINE
8
BLACK
6
CONTINUOUS
10
0.833661
20
0.312992
11
0.835921
21
0.312543
0
LINE
8
BLACK
6
CONTINUOUS
10
0.931886
20
0.312543
11
0.933802
21
0.311262
0
LINE
8
BLACK
6
CONTINUOUS
10
0.933802
20
0.311262
11
0.935082
21
0.309347
0
LINE
8
BLACK
6
CONTINUOUS
10
0.935082
20
0.309347
11
0.935531
21
0.307087
0
LINE
8
BLACK
6
CONTINUOUS
10
0.935531
20
0.307087
11
0.935531
21
0.260827
0
LINE
8
BLACK
6
CONTINUOUS
10
0.935531
20
0.260827
11
0.935082
21
0.258567
0
LINE
8
BLACK
6
CONTINUOUS
10
0.935082
20
0.258567
11
0.933802
21
0.256651
0
LINE
8
BLACK
6
CONTINUOUS
10
0.933802
20
0.256651
11
0.931886
21
0.255371
0
LINE
8
BLACK
6
CONTINUOUS
10
0.931886
20
0.255371
11
0.929626
21
0.254921
0
LINE
8
BLACK
6
CONTINUOUS
10
0.929626
20
0.254921
11
0.917815
21
0.254921
0
LINE
8
BLACK
6
CONTINUOUS
10
0.917815
20
0.254921
11
0.915555
21
0.255371
0
LINE
8
BLACK
6
CONTINUOUS
10
0.915555
20
0.255371
11
0.913639
21
0.256651
0
LINE
8
BLACK
6
CONTINUOUS
10
0.913639
20
0.256651
11
0.912359
21
0.258567
0
LINE
8
BLACK
6
CONTINUOUS
10
0.912359
20
0.258567
11
0.911909
21
0.260827
0
LINE
8
BLACK
6
CONTINUOUS
10
0.911909
20
0.260827
11
0.911909
21
0.307087
0
LINE
8
BLACK
6
CONTINUOUS
10
0.911909
20
0.307087
11
0.912359
21
0.309347
0
LINE
8
BLACK
6
CONTINUOUS
10
0.912359
20
0.309347
11
0.913639
21
0.311262
0
LINE
8
BLACK
6
CONTINUOUS
10
0.913639
20
0.311262
11
0.915555
21
0.312543
0
LINE
8
BLACK
6
CONTINUOUS
10
0.915555
20
0.312543
11
0.917815
21
0.312992
0
LINE
8
BLACK
6
CONTINUOUS
10
0.917815
20
0.312992
11
0.929626
21
0.312992
0
LINE
8
BLACK
6
CONTINUOUS
10
0.929626
20
0.312992
11
0.931886
21
0.312543
0
LINE
8
BLACK
6
CONTINUOUS
10
1.00669
20
0.312543
11
1.0086
21
0.311262
0
LINE
8
BLACK
6
CONTINUOUS
10
1.0086
20
0.311262
11
1.00989
21
0.309347
0
LINE
8
BLACK
6
CONTINUOUS
10
1.00989
20
0.309347
11
1.01033
21
0.307087
0
LINE
8
BLACK
6
CONTINUOUS
10
1.01033
20
0.307087
11
1.01033
21
0.260827
0
LINE
8
BLACK
6
CONTINUOUS
10
1.01033
20
0.260827
11
1.00989
21
0.258567
0
LINE
8
BLACK
6
CONTINUOUS
10
1.00989
20
0.258567
11
1.0086
21
0.256651
0
LINE
8
BLACK
6
CONTINUOUS
10
1.0086
20
0.256651
11
1.00669
21
0.255371
0
LINE
8
BLACK
6
CONTINUOUS
10
1.00669
20
0.255371
11
1.00443
21
0.254921
0
LINE
8
BLACK
6
CONTINUOUS
10
1.00443
20
0.254921
11
0.992618
21
0.254921
0
LINE
8
BLACK
6
CONTINUOUS
10
0.992618
20
0.254921
11
0.990358
21
0.255371
0
LINE
8
BLACK
6
CONTINUOUS
10
0.990358
20
0.255371
11
0.988442
21
0.256651
0
LINE
8
BLACK
6
CONTINUOUS
10
0.988442
20
0.256651
11
0.987162
21
0.258567
0
LINE
8
BLACK
6
CONTINUOUS
10
0.987162
20
0.258567
11
0.986713
21
0.260827
0
LINE
8
BLACK
6
CONTINUOUS
10
0.986713
20
0.260827
11
0.986713
21
0.307087
0
LINE
8
BLACK
6
CONTINUOUS
10
0.986713
20
0.307087
11
0.987162
21
0.309347
0
LINE
8
BLACK
6
CONTINUOUS
10
0.987162
20
0.309347
11
0.988442
21
0.311262
0
LINE
8
BLACK
6
CONTINUOUS
10
0.988442
20
0.311262
11
0.990358
21
0.312543
0
LINE
8
BLACK
6
CONTINUOUS
10
0.990358
20
0.312543
11
0.992618
21
0.312992
0
LINE
8
BLACK
6
CONTINUOUS
10
0.992618
20
0.312992
11
1.00443
21
0.312992
0
LINE
8
BLACK
6
CONTINUOUS
10
1.00443
20
0.312992
11
1.00669
21
0.312543
0
LINE
8
BLACK
6
CONTINUOUS
10
0.761118
20
0.312543
11
0.763034
21
0.311262
0
LINE
8
BLACK
6
CONTINUOUS
10
0.763034
20
0.311262
11
0.764314
21
0.309347
0
LINE
8
BLACK
6
CONTINUOUS
10
0.764314
20
0.309347
11
0.764764
21
0.307087
0
LINE
8
BLACK
6
CONTINUOUS
10
0.764764
20
0.307087
11
0.764764
21
0.260827
0
LINE
8
BLACK
6
CONTINUOUS
10
0.764764
20
0.260827
11
0.764314
21
0.258567
0
LINE
8
BLACK
6
CONTINUOUS
10
0.764314
20
0.258567
11
0.763034
21
0.256651
0
LINE
8
BLACK
6
CONTINUOUS
10
0.763034
20
0.256651
11
0.761118
21
0.255371
0
LINE
8
BLACK
6
CONTINUOUS
10
0.761118
20
0.255371
11
0.758858
21
0.254921
0
LINE
8
BLACK
6
CONTINUOUS
10
0.758858
20
0.254921
11
0.747047
21
0.254921
0
LINE
8
BLACK
6
CONTINUOUS
10
0.747047
20
0.254921
11
0.744787
21
0.255371
0
LINE
8
BLACK
6
CONTINUOUS
10
0.744787
20
0.255371
11
0.742871
21
0.256651
0
LINE
8
BLACK
6
CONTINUOUS
10
0.742871
20
0.256651
11
0.741591
21
0.258567
0
LINE
8
BLACK
6
CONTINUOUS
10
0.741591
20
0.258567
11
0.741142
21
0.260827
0
LINE
8
BLACK
6
CONTINUOUS
10
0.741142
20
0.260827
11
0.741142
21
0.307087
0
LINE
8
BLACK
6
CONTINUOUS
10
0.741142
20
0.307087
11
0.741591
21
0.309347
0
LINE
8
BLACK
6
CONTINUOUS
10
0.741591
20
0.309347
11
0.742871
21
0.311262
0
LINE
8
BLACK
6
CONTINUOUS
10
0.742871
20
0.311262
11
0.744787
21
0.312543
0
LINE
8
BLACK
6
CONTINUOUS
10
0.744787
20
0.312543
11
0.747047
21
0.312992
0
LINE
8
BLACK
6
CONTINUOUS
10
0.747047
20
0.312992
11
0.758858
21
0.312992
0
LINE
8
BLACK
6
CONTINUOUS
10
0.758858
20
0.312992
11
0.761118
21
0.312543
0
LINE
8
BLACK
6
CONTINUOUS
10
1.10561
20
0.312543
11
1.10752
21
0.311262
0
LINE
8
BLACK
6
CONTINUOUS
10
1.10752
20
0.311262
11
1.1088
21
0.309347
0
LINE
8
BLACK
6
CONTINUOUS
10
1.1088
20
0.309347
11
1.10925
21
0.307087
0
LINE
8
BLACK
6
CONTINUOUS
10
1.10925
20
0.307087
11
1.10925
21
0.260827
0
LINE
8
BLACK
6
CONTINUOUS
10
1.10925
20
0.260827
11
1.1088
21
0.258567
0
LINE
8
BLACK
6
CONTINUOUS
10
1.1088
20
0.258567
11
1.10752
21
0.256651
0
LINE
8
BLACK
6
CONTINUOUS
10
1.10752
20
0.256651
11
1.10561
21
0.255371
0
LINE
8
BLACK
6
CONTINUOUS
10
1.10561
20
0.255371
11
1.10335
21
0.254921
0
LINE
8
BLACK
6
CONTINUOUS
10
1.10335
20
0.254921
11
1.09154
21
0.254921
0
LINE
8
BLACK
6
CONTINUOUS
10
1.09154
20
0.254921
11
1.08928
21
0.255371
0
LINE
8
BLACK
6
CONTINUOUS
10
1.08928
20
0.255371
11
1.08736
21
0.256651
0
LINE
8
BLACK
6
CONTINUOUS
10
1.08736
20
0.256651
11
1.08608
21
0.258567
0
LINE
8
BLACK
6
CONTINUOUS
10
1.08608
20
0.258567
11
1.08563
21
0.260827
0
LINE
8
BLACK
6
CONTINUOUS
10
1.08563
20
0.260827
11
1.08563
21
0.307087
0
LINE
8
BLACK
6
CONTINUOUS
10
1.08563
20
0.307087
11
1.08608
21
0.309347
0
LINE
8
BLACK
6
CONTINUOUS
10
1.08608
20
0.309347
11
1.08736
21
0.311262
0
LINE
8
BLACK
6
CONTINUOUS
10
1.08736
20
0.311262
11
1.08928
21
0.312543
0
LINE
8
BLACK
6
CONTINUOUS
10
1.08928
20
0.312543
11
1.09154
21
0.312992
0
LINE
8
BLACK
6
CONTINUOUS
10
1.09154
20
0.312992
11
1.10335
21
0.312992
0
LINE
8
BLACK
6
CONTINUOUS
10
1.10335
20
0.312992
11
1.10561
21
0.312543
0
LINE
8
BLACK
6
CONTINUOUS
10
1.18041
20
0.312543
11
1.18233
21
0.311262
0
LINE
8
BLACK
6
CONTINUOUS
10
1.18233
20
0.311262
11
1.18361
21
0.309347
0
LINE
8
BLACK
6
CONTINUOUS
10
1.18361
20
0.309347
11
1.18406
21
0.307087
0
LINE
8
BLACK
6
CONTINUOUS
10
1.18406
20
0.307087
11
1.18406
21
0.260827
0
LINE
8
BLACK
6
CONTINUOUS
10
1.18406
20
0.260827
11
1.18361
21
0.258567
0
LINE
8
BLACK
6
CONTINUOUS
10
1.18361
20
0.258567
11
1.18233
21
0.256651
0
LINE
8
BLACK
6
CONTINUOUS
10
1.18233
20
0.256651
11
1.18041
21
0.255371
0
LINE
8
BLACK
6
CONTINUOUS
10
1.18041
20
0.255371
11
1.17815
21
0.254921
0
LINE
8
BLACK
6
CONTINUOUS
10
1.17815
20
0.254921
11
1.16634
21
0.254921
0
LINE
8
BLACK
6
CONTINUOUS
10
1.16634
20
0.254921
11
1.16408
21
0.255371
0
LINE
8
BLACK
6
CONTINUOUS
10
1.16408
20
0.255371
11
1.16216
21
0.256651
0
LINE
8
BLACK
6
CONTINUOUS
10
1.16216
20
0.256651
11
1.16088
21
0.258567
0
LINE
8
BLACK
6
CONTINUOUS
10
1.16088
20
0.258567
11
1.16043
21
0.260827
0
LINE
8
BLACK
6
CONTINUOUS
10
1.16043
20
0.260827
11
1.16043
21
0.307087
0
LINE
8
BLACK
6
CONTINUOUS
10
1.16043
20
0.307087
11
1.16088
21
0.309347
0
LINE
8
BLACK
6
CONTINUOUS
10
1.16088
20
0.309347
11
1.16216
21
0.311262
0
LINE
8
BLACK
6
CONTINUOUS
10
1.16216
20
0.311262
11
1.16408
21
0.312543
0
LINE
8
BLACK
6
CONTINUOUS
10
1.16408
20
0.312543
11
1.16634
21
0.312992
0
LINE
8
BLACK
6
CONTINUOUS
10
1.16634
20
0.312992
11
1.17815
21
0.312992
0
LINE
8
BLACK
6
CONTINUOUS
10
1.17815
20
0.312992
11
1.18041
21
0.312543
0
LINE
8
BLACK
6
CONTINUOUS
10
1.16518
20
0.48055
11
1.16838
21
0.478416
0
LINE
8
BLACK
6
CONTINUOUS
10
1.16838
20
0.478416
11
1.17051
21
0.475223
0
LINE
8
BLACK
6
CONTINUOUS
10
1.17051
20
0.475223
11
1.17126
21
0.471457
0
LINE
8
BLACK
6
CONTINUOUS
10
1.17126
20
0.471457
11
1.17126
21
0.436024
0
LINE
8
BLACK
6
CONTINUOUS
10
1.17126
20
0.436024
11
1.17051
21
0.432257
0
LINE
8
BLACK
6
CONTINUOUS
10
1.17051
20
0.432257
11
1.16838
21
0.429064
0
LINE
8
BLACK
6
CONTINUOUS
10
1.16838
20
0.429064
11
1.16518
21
0.42693
0
LINE
8
BLACK
6
CONTINUOUS
10
1.16518
20
0.42693
11
1.16142
21
0.426181
0
LINE
8
BLACK
6
CONTINUOUS
10
1.16142
20
0.426181
11
1.14075
21
0.426181
0
LINE
8
BLACK
6
CONTINUOUS
10
1.14075
20
0.426181
11
1.13698
21
0.42693
0
LINE
8
BLACK
6
CONTINUOUS
10
1.13698
20
0.42693
11
1.13379
21
0.429064
0
LINE
8
BLACK
6
CONTINUOUS
10
1.13379
20
0.429064
11
1.13165
21
0.432257
0
LINE
8
BLACK
6
CONTINUOUS
10
1.13165
20
0.432257
11
1.13091
21
0.436024
0
LINE
8
BLACK
6
CONTINUOUS
10
1.13091
20
0.436024
11
1.13091
21
0.471457
0
LINE
8
BLACK
6
CONTINUOUS
10
1.13091
20
0.471457
11
1.13165
21
0.475223
0
LINE
8
BLACK
6
CONTINUOUS
10
1.13165
20
0.475223
11
1.13379
21
0.478416
0
LINE
8
BLACK
6
CONTINUOUS
10
1.13379
20
0.478416
11
1.13698
21
0.48055
0
LINE
8
BLACK
6
CONTINUOUS
10
1.13698
20
0.48055
11
1.14075
21
0.481299
0
LINE
8
BLACK
6
CONTINUOUS
10
1.14075
20
0.481299
11
1.16142
21
0.481299
0
LINE
8
BLACK
6
CONTINUOUS
10
1.16142
20
0.481299
11
1.16518
21
0.48055
0
LINE
8
BLACK
6
CONTINUOUS
10
1.09333
20
0.48055
11
1.09653
21
0.478416
0
LINE
8
BLACK
6
CONTINUOUS
10
1.09653
20
0.478416
11
1.09866
21
0.475223
0
LINE
8
BLACK
6
CONTINUOUS
10
1.09866
20
0.475223
11
1.09941
21
0.471457
0
LINE
8
BLACK
6
CONTINUOUS
10
1.09941
20
0.471457
11
1.09941
21
0.436024
0
LINE
8
BLACK
6
CONTINUOUS
10
1.09941
20
0.436024
11
1.09866
21
0.432257
0
LINE
8
BLACK
6
CONTINUOUS
10
1.09866
20
0.432257
11
1.09653
21
0.429064
0
LINE
8
BLACK
6
CONTINUOUS
10
1.09653
20
0.429064
11
1.09333
21
0.42693
0
LINE
8
BLACK
6
CONTINUOUS
10
1.09333
20
0.42693
11
1.08957
21
0.426181
0
LINE
8
BLACK
6
CONTINUOUS
10
1.08957
20
0.426181
11
1.0689
21
0.426181
0
LINE
8
BLACK
6
CONTINUOUS
10
1.0689
20
0.426181
11
1.06513
21
0.42693
0
LINE
8
BLACK
6
CONTINUOUS
10
1.06513
20
0.42693
11
1.06194
21
0.429064
0
LINE
8
BLACK
6
CONTINUOUS
10
1.06194
20
0.429064
11
1.0598
21
0.432257
0
LINE
8
BLACK
6
CONTINUOUS
10
1.0598
20
0.432257
11
1.05906
21
0.436024
0
LINE
8
BLACK
6
CONTINUOUS
10
1.05906
20
0.436024
11
1.05906
21
0.471457
0
LINE
8
BLACK
6
CONTINUOUS
10
1.05906
20
0.471457
11
1.0598
21
0.475223
0
LINE
8
BLACK
6
CONTINUOUS
10
1.0598
20
0.475223
11
1.06194
21
0.478416
0
LINE
8
BLACK
6
CONTINUOUS
10
1.06194
20
0.478416
11
1.06513
21
0.48055
0
LINE
8
BLACK
6
CONTINUOUS
10
1.06513
20
0.48055
11
1.0689
21
0.481299
0
LINE
8
BLACK
6
CONTINUOUS
10
1.0689
20
0.481299
11
1.08957
21
0.481299
0
LINE
8
BLACK
6
CONTINUOUS
10
1.08957
20
0.481299
11
1.09333
21
0.48055
0
LINE
8
BLACK
6
CONTINUOUS
10
0.935853
20
0.48055
11
0.939046
21
0.478416
0
LINE
8
BLACK
6
CONTINUOUS
10
0.939046
20
0.478416
11
0.94118
21
0.475223
0
LINE
8
BLACK
6
CONTINUOUS
10
0.94118
20
0.475223
11
0.941929
21
0.471457
0
LINE
8
BLACK
6
CONTINUOUS
10
0.941929
20
0.471457
11
0.941929
21
0.436024
0
LINE
8
BLACK
6
CONTINUOUS
10
0.941929
20
0.436024
11
0.94118
21
0.432257
0
LINE
8
BLACK
6
CONTINUOUS
10
0.94118
20
0.432257
11
0.939046
21
0.429064
0
LINE
8
BLACK
6
CONTINUOUS
10
0.939046
20
0.429064
11
0.935853
21
0.42693
0
LINE
8
BLACK
6
CONTINUOUS
10
0.935853
20
0.42693
11
0.932087
21
0.426181
0
LINE
8
BLACK
6
CONTINUOUS
10
0.932087
20
0.426181
11
0.911417
21
0.426181
0
LINE
8
BLACK
6
CONTINUOUS
10
0.911417
20
0.426181
11
0.907651
21
0.42693
0
LINE
8
BLACK
6
CONTINUOUS
10
0.907651
20
0.42693
11
0.904458
21
0.429064
0
LINE
8
BLACK
6
CONTINUOUS
10
0.904458
20
0.429064
11
0.902324
21
0.432257
0
LINE
8
BLACK
6
CONTINUOUS
10
0.902324
20
0.432257
11
0.901575
21
0.436024
0
LINE
8
BLACK
6
CONTINUOUS
10
0.901575
20
0.436024
11
0.901575
21
0.471457
0
LINE
8
BLACK
6
CONTINUOUS
10
0.901575
20
0.471457
11
0.902324
21
0.475223
0
LINE
8
BLACK
6
CONTINUOUS
10
0.902324
20
0.475223
11
0.904458
21
0.478416
0
LINE
8
BLACK
6
CONTINUOUS
10
0.904458
20
0.478416
11
0.907651
21
0.48055
0
LINE
8
BLACK
6
CONTINUOUS
10
0.907651
20
0.48055
11
0.911417
21
0.481299
0
LINE
8
BLACK
6
CONTINUOUS
10
0.911417
20
0.481299
11
0.932087
21
0.481299
0
LINE
8
BLACK
6
CONTINUOUS
10
0.932087
20
0.481299
11
0.935853
21
0.48055
0
LINE
8
BLACK
6
CONTINUOUS
10
0.836936
20
0.48055
11
0.840129
21
0.478416
0
LINE
8
BLACK
6
CONTINUOUS
10
0.840129
20
0.478416
11
0.842263
21
0.475223
0
LINE
8
BLACK
6
CONTINUOUS
10
0.842263
20
0.475223
11
0.843012
21
0.471457
0
LINE
8
BLACK
6
CONTINUOUS
10
0.843012
20
0.471457
11
0.843012
21
0.436024
0
LINE
8
BLACK
6
CONTINUOUS
10
0.843012
20
0.436024
11
0.842263
21
0.432257
0
LINE
8
BLACK
6
CONTINUOUS
10
0.842263
20
0.432257
11
0.840129
21
0.429064
0
LINE
8
BLACK
6
CONTINUOUS
10
0.840129
20
0.429064
11
0.836936
21
0.42693
0
LINE
8
BLACK
6
CONTINUOUS
10
0.836936
20
0.42693
11
0.833169
21
0.426181
0
LINE
8
BLACK
6
CONTINUOUS
10
0.833169
20
0.426181
11
0.8125
21
0.426181
0
LINE
8
BLACK
6
CONTINUOUS
10
0.8125
20
0.426181
11
0.808733
21
0.42693
0
LINE
8
BLACK
6
CONTINUOUS
10
0.808733
20
0.42693
11
0.80554
21
0.429064
0
LINE
8
BLACK
6
CONTINUOUS
10
0.80554
20
0.429064
11
0.803407
21
0.432257
0
LINE
8
BLACK
6
CONTINUOUS
10
0.803407
20
0.432257
11
0.802657
21
0.436024
0
LINE
8
BLACK
6
CONTINUOUS
10
0.802657
20
0.436024
11
0.802657
21
0.471457
0
LINE
8
BLACK
6
CONTINUOUS
10
0.802657
20
0.471457
11
0.803407
21
0.475223
0
LINE
8
BLACK
6
CONTINUOUS
10
0.803407
20
0.475223
11
0.80554
21
0.478416
0
LINE
8
BLACK
6
CONTINUOUS
10
0.80554
20
0.478416
11
0.808733
21
0.48055
0
LINE
8
BLACK
6
CONTINUOUS
10
0.808733
20
0.48055
11
0.8125
21
0.481299
0
LINE
8
BLACK
6
CONTINUOUS
10
0.8125
20
0.481299
11
0.833169
21
0.481299
0
LINE
8
BLACK
6
CONTINUOUS
10
0.833169
20
0.481299
11
0.836936
21
0.48055
0
LINE
8
BLACK
6
CONTINUOUS
10
0.765085
20
0.48055
11
0.768279
21
0.478416
0
LINE
8
BLACK
6
CONTINUOUS
10
0.768279
20
0.478416
11
0.770412
21
0.475223
0
LINE
8
BLACK
6
CONTINUOUS
10
0.770412
20
0.475223
11
0.771161
21
0.471457
0
LINE
8
BLACK
6
CONTINUOUS
10
0.771161
20
0.471457
11
0.771161
21
0.436024
0
LINE
8
BLACK
6
CONTINUOUS
10
0.771161
20
0.436024
11
0.770412
21
0.432257
0
LINE
8
BLACK
6
CONTINUOUS
10
0.770412
20
0.432257
11
0.768279
21
0.429064
0
LINE
8
BLACK
6
CONTINUOUS
10
0.768279
20
0.429064
11
0.765085
21
0.42693
0
LINE
8
BLACK
6
CONTINUOUS
10
0.765085
20
0.42693
11
0.761319
21
0.426181
0
LINE
8
BLACK
6
CONTINUOUS
10
0.761319
20
0.426181
11
0.74065
21
0.426181
0
LINE
8
BLACK
6
CONTINUOUS
10
0.74065
20
0.426181
11
0.736883
21
0.42693
0
LINE
8
BLACK
6
CONTINUOUS
10
0.736883
20
0.42693
11
0.73369
21
0.429064
0
LINE
8
BLACK
6
CONTINUOUS
10
0.73369
20
0.429064
11
0.731556
21
0.432257
0
LINE
8
BLACK
6
CONTINUOUS
10
0.731556
20
0.432257
11
0.730807
21
0.436024
0
LINE
8
BLACK
6
CONTINUOUS
10
0.730807
20
0.436024
11
0.730807
21
0.471457
0
LINE
8
BLACK
6
CONTINUOUS
10
0.730807
20
0.471457
11
0.731556
21
0.475223
0
LINE
8
BLACK
6
CONTINUOUS
10
0.731556
20
0.475223
11
0.73369
21
0.478416
0
LINE
8
BLACK
6
CONTINUOUS
10
0.73369
20
0.478416
11
0.736883
21
0.48055
0
LINE
8
BLACK
6
CONTINUOUS
10
0.736883
20
0.48055
11
0.74065
21
0.481299
0
LINE
8
BLACK
6
CONTINUOUS
10
0.74065
20
0.481299
11
0.761319
21
0.481299
0
LINE
8
BLACK
6
CONTINUOUS
10
0.761319
20
0.481299
11
0.765085
21
0.48055
0
LINE
8
BLACK
6
CONTINUOUS
10
1.0077
20
0.48055
11
1.0109
21
0.478416
0
LINE
8
BLACK
6
CONTINUOUS
10
1.0109
20
0.478416
11
1.01303
21
0.475223
0
LINE
8
BLACK
6
CONTINUOUS
10
1.01303
20
0.475223
11
1.01378
21
0.471457
0
LINE
8
BLACK
6
CONTINUOUS
10
1.01378
20
0.471457
11
1.01378
21
0.436024
0
LINE
8
BLACK
6
CONTINUOUS
10
1.01378
20
0.436024
11
1.01303
21
0.432257
0
LINE
8
BLACK
6
CONTINUOUS
10
1.01303
20
0.432257
11
1.0109
21
0.429064
0
LINE
8
BLACK
6
CONTINUOUS
10
1.0109
20
0.429064
11
1.0077
21
0.42693
0
LINE
8
BLACK
6
CONTINUOUS
10
1.0077
20
0.42693
11
1.00394
21
0.426181
0
LINE
8
BLACK
6
CONTINUOUS
10
1.00394
20
0.426181
11
0.983268
21
0.426181
0
LINE
8
BLACK
6
CONTINUOUS
10
0.983268
20
0.426181
11
0.979501
21
0.42693
0
LINE
8
BLACK
6
CONTINUOUS
10
0.979501
20
0.42693
11
0.976308
21
0.429064
0
LINE
8
BLACK
6
CONTINUOUS
10
0.976308
20
0.429064
11
0.974174
21
0.432257
0
LINE
8
BLACK
6
CONTINUOUS
10
0.974174
20
0.432257
11
0.973425
21
0.436024
0
LINE
8
BLACK
6
CONTINUOUS
10
0.973425
20
0.436024
11
0.973425
21
0.471457
0
LINE
8
BLACK
6
CONTINUOUS
10
0.973425
20
0.471457
11
0.974174
21
0.475223
0
LINE
8
BLACK
6
CONTINUOUS
10
0.974174
20
0.475223
11
0.976308
21
0.478416
0
LINE
8
BLACK
6
CONTINUOUS
10
0.976308
20
0.478416
11
0.979501
21
0.48055
0
LINE
8
BLACK
6
CONTINUOUS
10
0.979501
20
0.48055
11
0.983268
21
0.481299
0
LINE
8
BLACK
6
CONTINUOUS
10
0.983268
20
0.481299
11
1.00394
21
0.481299
0
LINE
8
BLACK
6
CONTINUOUS
10
1.00394
20
0.481299
11
1.0077
21
0.48055
0
LINE
8
BLACK
6
CONTINUOUS
10
0.721457
20
0.575787
11
0.623031
21
0.575787
0
LINE
8
BLACK
6
CONTINUOUS
10
0.623031
20
0.575787
11
0.623031
21
0.646654
0
LINE
8
BLACK
6
CONTINUOUS
10
0.623031
20
0.646654
11
0.721457
21
0.646654
0
LINE
8
BLACK
6
CONTINUOUS
10
0.721457
20
0.646654
11
0.721457
21
0.575787
0
LINE
8
BLACK
6
CONTINUOUS
10
0.878937
20
0.575787
11
0.780512
21
0.575787
0
LINE
8
BLACK
6
CONTINUOUS
10
0.780512
20
0.575787
11
0.780512
21
0.646654
0
LINE
8
BLACK
6
CONTINUOUS
10
0.780512
20
0.646654
11
0.878937
21
0.646654
0
LINE
8
BLACK
6
CONTINUOUS
10
0.878937
20
0.646654
11
0.878937
21
0.575787
0
LINE
8
BLACK
6
CONTINUOUS
10
0.955538
20
0.63803
11
0.958731
21
0.635897
0
LINE
8
BLACK
6
CONTINUOUS
10
0.958731
20
0.635897
11
0.960865
21
0.632704
0
LINE
8
BLACK
6
CONTINUOUS
10
0.960865
20
0.632704
11
0.961614
21
0.628937
0
LINE
8
BLACK
6
CONTINUOUS
10
0.961614
20
0.628937
11
0.961614
21
0.593504
0
LINE
8
BLACK
6
CONTINUOUS
10
0.961614
20
0.593504
11
0.960865
21
0.589737
0
LINE
8
BLACK
6
CONTINUOUS
10
0.960865
20
0.589737
11
0.958731
21
0.586544
0
LINE
8
BLACK
6
CONTINUOUS
10
0.958731
20
0.586544
11
0.955538
21
0.584411
0
LINE
8
BLACK
6
CONTINUOUS
10
0.955538
20
0.584411
11
0.951772
21
0.583661
0
LINE
8
BLACK
6
CONTINUOUS
10
0.951772
20
0.583661
11
0.931102
21
0.583661
0
LINE
8
BLACK
6
CONTINUOUS
10
0.931102
20
0.583661
11
0.927336
21
0.584411
0
LINE
8
BLACK
6
CONTINUOUS
10
0.927336
20
0.584411
11
0.924143
21
0.586544
0
LINE
8
BLACK
6
CONTINUOUS
10
0.924143
20
0.586544
11
0.922009
21
0.589737
0
LINE
8
BLACK
6
CONTINUOUS
10
0.922009
20
0.589737
11
0.92126
21
0.593504
0
LINE
8
BLACK
6
CONTINUOUS
10
0.92126
20
0.593504
11
0.92126
21
0.628937
0
LINE
8
BLACK
6
CONTINUOUS
10
0.92126
20
0.628937
11
0.922009
21
0.632704
0
LINE
8
BLACK
6
CONTINUOUS
10
0.922009
20
0.632704
11
0.924143
21
0.635897
0
LINE
8
BLACK
6
CONTINUOUS
10
0.924143
20
0.635897
11
0.927336
21
0.63803
0
LINE
8
BLACK
6
CONTINUOUS
10
0.927336
20
0.63803
11
0.931102
21
0.63878
0
LINE
8
BLACK
6
CONTINUOUS
10
0.931102
20
0.63878
11
0.951772
21
0.63878
0
LINE
8
BLACK
6
CONTINUOUS
10
0.951772
20
0.63878
11
0.955538
21
0.63803
0
LINE
8
BLACK
6
CONTINUOUS
10
1.02739
20
0.63803
11
1.03058
21
0.635897
0
LINE
8
BLACK
6
CONTINUOUS
10
1.03058
20
0.635897
11
1.03272
21
0.632704
0
LINE
8
BLACK
6
CONTINUOUS
10
1.03272
20
0.632704
11
1.03346
21
0.628937
0
LINE
8
BLACK
6
CONTINUOUS
10
1.03346
20
0.628937
11
1.03346
21
0.593504
0
LINE
8
BLACK
6
CONTINUOUS
10
1.03346
20
0.593504
11
1.03272
21
0.589737
0
LINE
8
BLACK
6
CONTINUOUS
10
1.03272
20
0.589737
11
1.03058
21
0.586544
0
LINE
8
BLACK
6
CONTINUOUS
10
1.03058
20
0.586544
11
1.02739
21
0.584411
0
LINE
8
BLACK
6
CONTINUOUS
10
1.02739
20
0.584411
11
1.02362
21
0.583661
0
LINE
8
BLACK
6
CONTINUOUS
10
1.02362
20
0.583661
11
1.00295
21
0.583661
0
LINE
8
BLACK
6
CONTINUOUS
10
1.00295
20
0.583661
11
0.999186
21
0.584411
0
LINE
8
BLACK
6
CONTINUOUS
10
0.999186
20
0.584411
11
0.995993
21
0.586544
0
LINE
8
BLACK
6
CONTINUOUS
10
0.995993
20
0.586544
11
0.993859
21
0.589737
0
LINE
8
BLACK
6
CONTINUOUS
10
0.993859
20
0.589737
11
0.99311
21
0.593504
0
LINE
8
BLACK
6
CONTINUOUS
10
0.99311
20
0.593504
11
0.99311
21
0.628937
0
LINE
8
BLACK
6
CONTINUOUS
10
0.99311
20
0.628937
11
0.993859
21
0.632704
0
LINE
8
BLACK
6
CONTINUOUS
10
0.993859
20
0.632704
11
0.995993
21
0.635897
0
LINE
8
BLACK
6
CONTINUOUS
10
0.995993
20
0.635897
11
0.999186
21
0.63803
0
LINE
8
BLACK
6
CONTINUOUS
10
0.999186
20
0.63803
11
1.00295
21
0.63878
0
LINE
8
BLACK
6
CONTINUOUS
10
1.00295
20
0.63878
11
1.02362
21
0.63878
0
LINE
8
BLACK
6
CONTINUOUS
10
1.02362
20
0.63878
11
1.02739
21
0.63803
0
LINE
8
BLACK
6
CONTINUOUS
10
0.38189
20
1.02953
11
0.28937
21
1.02953
0
LINE
8
BLACK
6
CONTINUOUS
10
0.28937
20
1.02953
11
0.28937
21
1.23031
0
LINE
8
BLACK
6
CONTINUOUS
10
0.28937
20
1.23031
11
0.38189
21
1.23031
0
LINE
8
BLACK
6
CONTINUOUS
10
0.38189
20
1.23031
11
0.38189
21
1.02953
0
LINE
8
BLACK
6
CONTINUOUS
10
0.545276
20
1.02953
11
0.452756
21
1.02953
0
LINE
8
BLACK
6
CONTINUOUS
10
0.452756
20
1.02953
11
0.452756
21
1.23031
0
LINE
8
BLACK
6
CONTINUOUS
10
0.452756
20
1.23031
11
0.545276
21
1.23031
0
LINE
8
BLACK
6
CONTINUOUS
10
0.545276
20
1.23031
11
0.545276
21
1.02953
0
LINE
8
BLACK
6
CONTINUOUS
10
0.153543
20
1.0689
11
0.0826772
21
1.0689
0
LINE
8
BLACK
6
CONTINUOUS
10
0.0826772
20
1.0689
11
0.0826772
21
1.16732
0
LINE
8
BLACK
6
CONTINUOUS
10
0.0826772
20
1.16732
11
0.153543
21
1.16732
0
LINE
8
BLACK
6
CONTINUOUS
10
0.153543
20
1.16732
11
0.153543
21
1.0689
0
LINE
8
BLACK
6
CONTINUOUS
10
0.631871
20
1.17201
11
0.634985
21
1.16993
0
LINE
8
BLACK
6
CONTINUOUS
10
0.634985
20
1.16993
11
0.637065
21
1.16681
0
LINE
8
BLACK
6
CONTINUOUS
10
0.637065
20
1.16681
11
0.637795
21
1.16314
0
LINE
8
BLACK
6
CONTINUOUS
10
0.637795
20
1.16314
11
0.637795
21
1.14395
0
LINE
8
BLACK
6
CONTINUOUS
10
0.637795
20
1.14395
11
0.637065
21
1.14027
0
LINE
8
BLACK
6
CONTINUOUS
10
0.637065
20
1.14027
11
0.634985
21
1.13716
0
LINE
8
BLACK
6
CONTINUOUS
10
0.634985
20
1.13716
11
0.631871
21
1.13508
0
LINE
8
BLACK
6
CONTINUOUS
10
0.631871
20
1.13508
11
0.628199
21
1.13435
0
LINE
8
BLACK
6
CONTINUOUS
10
0.628199
20
1.13435
11
0.592274
21
1.13435
0
LINE
8
BLACK
6
CONTINUOUS
10
0.592274
20
1.13435
11
0.588601
21
1.13508
0
LINE
8
BLACK
6
CONTINUOUS
10
0.588601
20
1.13508
11
0.585488
21
1.13716
0
LINE
8
BLACK
6
CONTINUOUS
10
0.585488
20
1.13716
11
0.583408
21
1.14027
0
LINE
8
BLACK
6
CONTINUOUS
10
0.583408
20
1.14027
11
0.582677
21
1.14395
0
LINE
8
BLACK
6
CONTINUOUS
10
0.582677
20
1.14395
11
0.582677
21
1.16314
0
LINE
8
BLACK
6
CONTINUOUS
10
0.582677
20
1.16314
11
0.583408
21
1.16681
0
LINE
8
BLACK
6
CONTINUOUS
10
0.583408
20
1.16681
11
0.585488
21
1.16993
0
LINE
8
BLACK
6
CONTINUOUS
10
0.585488
20
1.16993
11
0.588601
21
1.17201
0
LINE
8
BLACK
6
CONTINUOUS
10
0.588601
20
1.17201
11
0.592274
21
1.17274
0
LINE
8
BLACK
6
CONTINUOUS
10
0.592274
20
1.17274
11
0.628199
21
1.17274
0
LINE
8
BLACK
6
CONTINUOUS
10
0.628199
20
1.17274
11
0.631871
21
1.17201
0
LINE
8
BLACK
6
CONTINUOUS
10
0.631871
20
1.24582
11
0.634985
21
1.24374
0
LINE
8
BLACK
6
CONTINUOUS
10
0.634985
20
1.24374
11
0.637065
21
1.24063
0
LINE
8
BLACK
6
CONTINUOUS
10
0.637065
20
1.24063
11
0.637795
21
1.23696
0
LINE
8
BLACK
6
CONTINUOUS
10
0.637795
20
1.23696
11
0.637795
21
1.21777
0
LINE
8
BLACK
6
CONTINUOUS
10
0.637795
20
1.21777
11
0.637065
21
1.21409
0
LINE
8
BLACK
6
CONTINUOUS
10
0.637065
20
1.21409
11
0.634985
21
1.21098
0
LINE
8
BLACK
6
CONTINUOUS
10
0.634985
20
1.21098
11
0.631871
21
1.2089
0
LINE
8
BLACK
6
CONTINUOUS
10
0.631871
20
1.2089
11
0.628199
21
1.20817
0
LINE
8
BLACK
6
CONTINUOUS
10
0.628199
20
1.20817
11
0.592274
21
1.20817
0
LINE
8
BLACK
6
CONTINUOUS
10
0.592274
20
1.20817
11
0.588601
21
1.2089
0
LINE
8
BLACK
6
CONTINUOUS
10
0.588601
20
1.2089
11
0.585488
21
1.21098
0
LINE
8
BLACK
6
CONTINUOUS
10
0.585488
20
1.21098
11
0.583408
21
1.21409
0
LINE
8
BLACK
6
CONTINUOUS
10
0.583408
20
1.21409
11
0.582677
21
1.21777
0
LINE
8
BLACK
6
CONTINUOUS
10
0.582677
20
1.21777
11
0.582677
21
1.23696
0
LINE
8
BLACK
6
CONTINUOUS
10
0.582677
20
1.23696
11
0.583408
21
1.24063
0
LINE
8
BLACK
6
CONTINUOUS
10
0.583408
20
1.24063
11
0.585488
21
1.24374
0
LINE
8
BLACK
6
CONTINUOUS
10
0.585488
20
1.24374
11
0.588601
21
1.24582
0
LINE
8
BLACK
6
CONTINUOUS
10
0.588601
20
1.24582
11
0.592274
21
1.24656
0
LINE
8
BLACK
6
CONTINUOUS
10
0.592274
20
1.24656
11
0.628199
21
1.24656
0
LINE
8
BLACK
6
CONTINUOUS
10
0.628199
20
1.24656
11
0.631871
21
1.24582
0
LINE
8
BLACK
6
CONTINUOUS
10
0.021635
20
1.25075
11
0.0247483
21
1.24867
0
LINE
8
BLACK
6
CONTINUOUS
10
0.0247483
20
1.24867
11
0.0268286
21
1.24555
0
LINE
8
BLACK
6
CONTINUOUS
10
0.0268286
20
1.24555
11
0.0275591
21
1.24188
0
LINE
8
BLACK
6
CONTINUOUS
10
0.0275591
20
1.24188
11
0.0275591
21
1.22269
0
LINE
8
BLACK
6
CONTINUOUS
10
0.0275591
20
1.22269
11
0.0268286
21
1.21901
0
LINE
8
BLACK
6
CONTINUOUS
10
0.0268286
20
1.21901
11
0.0247483
21
1.2159
0
LINE
8
BLACK
6
CONTINUOUS
10
0.0247483
20
1.2159
11
0.021635
21
1.21382
0
LINE
8
BLACK
6
CONTINUOUS
10
0.021635
20
1.21382
11
0.0179626
21
1.21309
0
LINE
8
BLACK
6
CONTINUOUS
10
0.0179626
20
1.21309
11
-0.0179626
21
1.21309
0
LINE
8
BLACK
6
CONTINUOUS
10
-0.0179626
20
1.21309
11
-0.021635
21
1.21382
0
LINE
8
BLACK
6
CONTINUOUS
10
-0.021635
20
1.21382
11
-0.0247483
21
1.2159
0
LINE
8
BLACK
6
CONTINUOUS
10
-0.0247483
20
1.2159
11
-0.0268286
21
1.21901
0
LINE
8
BLACK
6
CONTINUOUS
10
-0.0268286
20
1.21901
11
-0.0275591
21
1.22269
0
LINE
8
BLACK
6
CONTINUOUS
10
-0.0275591
20
1.22269
11
-0.0275591
21
1.24188
0
LINE
8
BLACK
6
CONTINUOUS
10
-0.0275591
20
1.24188
11
-0.0268286
21
1.24555
0
LINE
8
BLACK
6
CONTINUOUS
10
-0.0268286
20
1.24555
11
-0.0247483
21
1.24867
0
LINE
8
BLACK
6
CONTINUOUS
10
-0.0247483
20
1.24867
11
-0.021635
21
1.25075
0
LINE
8
BLACK
6
CONTINUOUS
10
-0.021635
20
1.25075
11
-0.0179626
21
1.25148
0
LINE
8
BLACK
6
CONTINUOUS
10
-0.0179626
20
1.25148
11
0.0179626
21
1.25148
0
LINE
8
BLACK
6
CONTINUOUS
10
0.0179626
20
1.25148
11
0.021635
21
1.25075
0
LINE
8
BLACK
6
CONTINUOUS
10
0.153543
20
1.22638
11
0.0826772
21
1.22638
0
LINE
8
BLACK
6
CONTINUOUS
10
0.0826772
20
1.22638
11
0.0826772
21
1.3248
0
LINE
8
BLACK
6
CONTINUOUS
10
0.0826772
20
1.3248
11
0.153543
21
1.3248
0
LINE
8
BLACK
6
CONTINUOUS
10
0.153543
20
1.3248
11
0.153543
21
1.22638
0
LINE
8
BLACK
6
CONTINUOUS
10
0.249981
20
1.29651
11
0.253095
21
1.29443
0
LINE
8
BLACK
6
CONTINUOUS
10
0.253095
20
1.29443
11
0.255175
21
1.29132
0
LINE
8
BLACK
6
CONTINUOUS
10
0.255175
20
1.29132
11
0.255906
21
1.28765
0
LINE
8
BLACK
6
CONTINUOUS
10
0.255906
20
1.28765
11
0.255906
21
1.26845
0
LINE
8
BLACK
6
CONTINUOUS
10
0.255906
20
1.26845
11
0.255175
21
1.26478
0
LINE
8
BLACK
6
CONTINUOUS
10
0.255175
20
1.26478
11
0.253095
21
1.26167
0
LINE
8
BLACK
6
CONTINUOUS
10
0.253095
20
1.26167
11
0.249981
21
1.25959
0
LINE
8
BLACK
6
CONTINUOUS
10
0.249981
20
1.25959
11
0.246309
21
1.25886
0
LINE
8
BLACK
6
CONTINUOUS
10
0.246309
20
1.25886
11
0.210384
21
1.25886
0
LINE
8
BLACK
6
CONTINUOUS
10
0.210384
20
1.25886
11
0.206711
21
1.25959
0
LINE
8
BLACK
6
CONTINUOUS
10
0.206711
20
1.25959
11
0.203598
21
1.26167
0
LINE
8
BLACK
6
CONTINUOUS
10
0.203598
20
1.26167
11
0.201518
21
1.26478
0
LINE
8
BLACK
6
CONTINUOUS
10
0.201518
20
1.26478
11
0.200787
21
1.26845
0
LINE
8
BLACK
6
CONTINUOUS
10
0.200787
20
1.26845
11
0.200787
21
1.28765
0
LINE
8
BLACK
6
CONTINUOUS
10
0.200787
20
1.28765
11
0.201518
21
1.29132
0
LINE
8
BLACK
6
CONTINUOUS
10
0.201518
20
1.29132
11
0.203598
21
1.29443
0
LINE
8
BLACK
6
CONTINUOUS
10
0.203598
20
1.29443
11
0.206711
21
1.29651
0
LINE
8
BLACK
6
CONTINUOUS
10
0.206711
20
1.29651
11
0.210384
21
1.29724
0
LINE
8
BLACK
6
CONTINUOUS
10
0.210384
20
1.29724
11
0.246309
21
1.29724
0
LINE
8
BLACK
6
CONTINUOUS
10
0.246309
20
1.29724
11
0.249981
21
1.29651
0
LINE
8
BLACK
6
CONTINUOUS
10
0.021635
20
1.32456
11
0.0247483
21
1.32248
0
LINE
8
BLACK
6
CONTINUOUS
10
0.0247483
20
1.32248
11
0.0268286
21
1.31937
0
LINE
8
BLACK
6
CONTINUOUS
10
0.0268286
20
1.31937
11
0.0275591
21
1.3157
0
LINE
8
BLACK
6
CONTINUOUS
10
0.0275591
20
1.3157
11
0.0275591
21
1.29651
0
LINE
8
BLACK
6
CONTINUOUS
10
0.0275591
20
1.29651
11
0.0268286
21
1.29283
0
LINE
8
BLACK
6
CONTINUOUS
10
0.0268286
20
1.29283
11
0.0247483
21
1.28972
0
LINE
8
BLACK
6
CONTINUOUS
10
0.0247483
20
1.28972
11
0.021635
21
1.28764
0
LINE
8
BLACK
6
CONTINUOUS
10
0.021635
20
1.28764
11
0.0179626
21
1.28691
0
LINE
8
BLACK
6
CONTINUOUS
10
0.0179626
20
1.28691
11
-0.0179626
21
1.28691
0
LINE
8
BLACK
6
CONTINUOUS
10
-0.0179626
20
1.28691
11
-0.021635
21
1.28764
0
LINE
8
BLACK
6
CONTINUOUS
10
-0.021635
20
1.28764
11
-0.0247483
21
1.28972
0
LINE
8
BLACK
6
CONTINUOUS
10
-0.0247483
20
1.28972
11
-0.0268286
21
1.29283
0
LINE
8
BLACK
6
CONTINUOUS
10
-0.0268286
20
1.29283
11
-0.0275591
21
1.29651
0
LINE
8
BLACK
6
CONTINUOUS
10
-0.0275591
20
1.29651
11
-0.0275591
21
1.3157
0
LINE
8
BLACK
6
CONTINUOUS
10
-0.0275591
20
1.3157
11
-0.0268286
21
1.31937
0
LINE
8
BLACK
6
CONTINUOUS
10
-0.0268286
20
1.31937
11
-0.0247483
21
1.32248
0
LINE
8
BLACK
6
CONTINUOUS
10
-0.0247483
20
1.32248
11
-0.021635
21
1.32456
0
LINE
8
BLACK
6
CONTINUOUS
10
-0.021635
20
1.32456
11
-0.0179626
21
1.3253
0
LINE
8
BLACK
6
CONTINUOUS
10
-0.0179626
20
1.3253
11
0.0179626
21
1.3253
0
LINE
8
BLACK
6
CONTINUOUS
10
0.0179626
20
1.3253
11
0.021635
21
1.32456
0
LINE
8
BLACK
6
CONTINUOUS
10
0.44588
20
1.28755
11
0.420289
21
1.28755
0
LINE
8
BLACK
6
CONTINUOUS
10
0.420289
20
1.28755
11
0.420289
21
1.33558
0
LINE
8
BLACK
6
CONTINUOUS
10
0.420289
20
1.33558
11
0.44588
21
1.33558
0
LINE
8
BLACK
6
CONTINUOUS
10
0.44588
20
1.33558
11
0.44588
21
1.28755
0
LINE
8
BLACK
6
CONTINUOUS
10
0.483281
20
1.28755
11
0.457691
21
1.28755
0
LINE
8
BLACK
6
CONTINUOUS
10
0.457691
20
1.28755
11
0.457691
21
1.33558
0
LINE
8
BLACK
6
CONTINUOUS
10
0.457691
20
1.33558
11
0.483281
21
1.33558
0
LINE
8
BLACK
6
CONTINUOUS
10
0.483281
20
1.33558
11
0.483281
21
1.28755
0
LINE
8
BLACK
6
CONTINUOUS
10
0.520683
20
1.28755
11
0.495092
21
1.28755
0
LINE
8
BLACK
6
CONTINUOUS
10
0.495092
20
1.28755
11
0.495092
21
1.33558
0
LINE
8
BLACK
6
CONTINUOUS
10
0.495092
20
1.33558
11
0.520683
21
1.33558
0
LINE
8
BLACK
6
CONTINUOUS
10
0.520683
20
1.33558
11
0.520683
21
1.28755
0
LINE
8
BLACK
6
CONTINUOUS
10
0.249981
20
1.37033
11
0.253095
21
1.36825
0
LINE
8
BLACK
6
CONTINUOUS
10
0.253095
20
1.36825
11
0.255175
21
1.36514
0
LINE
8
BLACK
6
CONTINUOUS
10
0.255175
20
1.36514
11
0.255906
21
1.36147
0
LINE
8
BLACK
6
CONTINUOUS
10
0.255906
20
1.36147
11
0.255906
21
1.34227
0
LINE
8
BLACK
6
CONTINUOUS
10
0.255906
20
1.34227
11
0.255175
21
1.3386
0
LINE
8
BLACK
6
CONTINUOUS
10
0.255175
20
1.3386
11
0.253095
21
1.33549
0
LINE
8
BLACK
6
CONTINUOUS
10
0.253095
20
1.33549
11
0.249981
21
1.33341
0
LINE
8
BLACK
6
CONTINUOUS
10
0.249981
20
1.33341
11
0.246309
21
1.33268
0
LINE
8
BLACK
6
CONTINUOUS
10
0.246309
20
1.33268
11
0.210384
21
1.33268
0
LINE
8
BLACK
6
CONTINUOUS
10
0.210384
20
1.33268
11
0.206711
21
1.33341
0
LINE
8
BLACK
6
CONTINUOUS
10
0.206711
20
1.33341
11
0.203598
21
1.33549
0
LINE
8
BLACK
6
CONTINUOUS
10
0.203598
20
1.33549
11
0.201518
21
1.3386
0
LINE
8
BLACK
6
CONTINUOUS
10
0.201518
20
1.3386
11
0.200787
21
1.34227
0
LINE
8
BLACK
6
CONTINUOUS
10
0.200787
20
1.34227
11
0.200787
21
1.36147
0
LINE
8
BLACK
6
CONTINUOUS
10
0.200787
20
1.36147
11
0.201518
21
1.36514
0
LINE
8
BLACK
6
CONTINUOUS
10
0.201518
20
1.36514
11
0.203598
21
1.36825
0
LINE
8
BLACK
6
CONTINUOUS
10
0.203598
20
1.36825
11
0.206711
21
1.37033
0
LINE
8
BLACK
6
CONTINUOUS
10
0.206711
20
1.37033
11
0.210384
21
1.37106
0
LINE
8
BLACK
6
CONTINUOUS
10
0.210384
20
1.37106
11
0.246309
21
1.37106
0
LINE
8
BLACK
6
CONTINUOUS
10
0.246309
20
1.37106
11
0.249981
21
1.37033
0
LINE
8
BLACK
6
CONTINUOUS
10
0.116123
20
1.38854
11
0.119236
21
1.38646
0
LINE
8
BLACK
6
CONTINUOUS
10
0.119236
20
1.38646
11
0.121317
21
1.38335
0
LINE
8
BLACK
6
CONTINUOUS
10
0.121317
20
1.38335
11
0.122047
21
1.37968
0
LINE
8
BLACK
6
CONTINUOUS
10
0.122047
20
1.37968
11
0.122047
21
1.36048
0
LINE
8
BLACK
6
CONTINUOUS
10
0.122047
20
1.36048
11
0.121317
21
1.35681
0
LINE
8
BLACK
6
CONTINUOUS
10
0.121317
20
1.35681
11
0.119236
21
1.3537
0
LINE
8
BLACK
6
CONTINUOUS
10
0.119236
20
1.3537
11
0.116123
21
1.35162
0
LINE
8
BLACK
6
CONTINUOUS
10
0.116123
20
1.35162
11
0.112451
21
1.35089
0
LINE
8
BLACK
6
CONTINUOUS
10
0.112451
20
1.35089
11
0.0765256
21
1.35089
0
LINE
8
BLACK
6
CONTINUOUS
10
0.0765256
20
1.35089
11
0.0728532
21
1.35162
0
LINE
8
BLACK
6
CONTINUOUS
10
0.0728532
20
1.35162
11
0.0697399
21
1.3537
0
LINE
8
BLACK
6
CONTINUOUS
10
0.0697399
20
1.3537
11
0.0676596
21
1.35681
0
LINE
8
BLACK
6
CONTINUOUS
10
0.0676596
20
1.35681
11
0.0669291
21
1.36048
0
LINE
8
BLACK
6
CONTINUOUS
10
0.0669291
20
1.36048
11
0.0669291
21
1.37968
0
LINE
8
BLACK
6
CONTINUOUS
10
0.0669291
20
1.37968
11
0.0676596
21
1.38335
0
LINE
8
BLACK
6
CONTINUOUS
10
0.0676596
20
1.38335
11
0.0697399
21
1.38646
0
LINE
8
BLACK
6
CONTINUOUS
10
0.0697399
20
1.38646
11
0.0728532
21
1.38854
0
LINE
8
BLACK
6
CONTINUOUS
10
0.0728532
20
1.38854
11
0.0765256
21
1.38927
0
LINE
8
BLACK
6
CONTINUOUS
10
0.0765256
20
1.38927
11
0.112451
21
1.38927
0
LINE
8
BLACK
6
CONTINUOUS
10
0.112451
20
1.38927
11
0.116123
21
1.38854
0
LINE
8
BLACK
6
CONTINUOUS
10
0.021635
20
1.391
11
0.0247483
21
1.38892
0
LINE
8
BLACK
6
CONTINUOUS
10
0.0247483
20
1.38892
11
0.0268286
21
1.38581
0
LINE
8
BLACK
6
CONTINUOUS
10
0.0268286
20
1.38581
11
0.0275591
21
1.38214
0
LINE
8
BLACK
6
CONTINUOUS
10
0.0275591
20
1.38214
11
0.0275591
21
1.36294
0
LINE
8
BLACK
6
CONTINUOUS
10
0.0275591
20
1.36294
11
0.0268286
21
1.35927
0
LINE
8
BLACK
6
CONTINUOUS
10
0.0268286
20
1.35927
11
0.0247483
21
1.35616
0
LINE
8
BLACK
6
CONTINUOUS
10
0.0247483
20
1.35616
11
0.021635
21
1.35408
0
LINE
8
BLACK
6
CONTINUOUS
10
0.021635
20
1.35408
11
0.0179626
21
1.35335
0
LINE
8
BLACK
6
CONTINUOUS
10
0.0179626
20
1.35335
11
-0.0179626
21
1.35335
0
LINE
8
BLACK
6
CONTINUOUS
10
-0.0179626
20
1.35335
11
-0.021635
21
1.35408
0
LINE
8
BLACK
6
CONTINUOUS
10
-0.021635
20
1.35408
11
-0.0247483
21
1.35616
0
LINE
8
BLACK
6
CONTINUOUS
10
-0.0247483
20
1.35616
11
-0.0268286
21
1.35927
0
LINE
8
BLACK
6
CONTINUOUS
10
-0.0268286
20
1.35927
11
-0.0275591
21
1.36294
0
LINE
8
BLACK
6
CONTINUOUS
10
-0.0275591
20
1.36294
11
-0.0275591
21
1.38214
0
LINE
8
BLACK
6
CONTINUOUS
10
-0.0275591
20
1.38214
11
-0.0268286
21
1.38581
0
LINE
8
BLACK
6
CONTINUOUS
10
-0.0268286
20
1.38581
11
-0.0247483
21
1.38892
0
LINE
8
BLACK
6
CONTINUOUS
10
-0.0247483
20
1.38892
11
-0.021635
21
1.391
0
LINE
8
BLACK
6
CONTINUOUS
10
-0.021635
20
1.391
11
-0.0179626
21
1.39173
0
LINE
8
BLACK
6
CONTINUOUS
10
-0.0179626
20
1.39173
11
0.0179626
21
1.39173
0
LINE
8
BLACK
6
CONTINUOUS
10
0.0179626
20
1.39173
11
0.021635
21
1.391
0
LINE
8
BLACK
6
CONTINUOUS
10
1.39058
20
1.41854
11
1.39377
21
1.41641
0
LINE
8
BLACK
6
CONTINUOUS
10
1.39377
20
1.41641
11
1.3959
21
1.41322
0
LINE
8
BLACK
6
CONTINUOUS
10
1.3959
20
1.41322
11
1.39665
21
1.40945
0
LINE
8
BLACK
6
CONTINUOUS
10
1.39665
20
1.40945
11
1.39665
21
1.38976
0
LINE
8
BLACK
6
CONTINUOUS
10
1.39665
20
1.38976
11
1.3959
21
1.386
0
LINE
8
BLACK
6
CONTINUOUS
10
1.3959
20
1.386
11
1.39377
21
1.3828
0
LINE
8
BLACK
6
CONTINUOUS
10
1.39377
20
1.3828
11
1.39058
21
1.38067
0
LINE
8
BLACK
6
CONTINUOUS
10
1.39058
20
1.38067
11
1.38681
21
1.37992
0
LINE
8
BLACK
6
CONTINUOUS
10
1.38681
20
1.37992
11
1.34941
21
1.37992
0
LINE
8
BLACK
6
CONTINUOUS
10
1.34941
20
1.37992
11
1.34564
21
1.38067
0
LINE
8
BLACK
6
CONTINUOUS
10
1.34564
20
1.38067
11
1.34245
21
1.3828
0
LINE
8
BLACK
6
CONTINUOUS
10
1.34245
20
1.3828
11
1.34032
21
1.386
0
LINE
8
BLACK
6
CONTINUOUS
10
1.34032
20
1.386
11
1.33957
21
1.38976
0
LINE
8
BLACK
6
CONTINUOUS
10
1.33957
20
1.38976
11
1.33957
21
1.40945
0
LINE
8
BLACK
6
CONTINUOUS
10
1.33957
20
1.40945
11
1.34032
21
1.41322
0
LINE
8
BLACK
6
CONTINUOUS
10
1.34032
20
1.41322
11
1.34245
21
1.41641
0
LINE
8
BLACK
6
CONTINUOUS
10
1.34245
20
1.41641
11
1.34564
21
1.41854
0
LINE
8
BLACK
6
CONTINUOUS
10
1.34564
20
1.41854
11
1.34941
21
1.41929
0
LINE
8
BLACK
6
CONTINUOUS
10
1.34941
20
1.41929
11
1.38681
21
1.41929
0
LINE
8
BLACK
6
CONTINUOUS
10
1.38681
20
1.41929
11
1.39058
21
1.41854
0
LINE
8
BLACK
6
CONTINUOUS
10
1.27247
20
1.41854
11
1.27566
21
1.41641
0
LINE
8
BLACK
6
CONTINUOUS
10
1.27566
20
1.41641
11
1.27779
21
1.41322
0
LINE
8
BLACK
6
CONTINUOUS
10
1.27779
20
1.41322
11
1.27854
21
1.40945
0
LINE
8
BLACK
6
CONTINUOUS
10
1.27854
20
1.40945
11
1.27854
21
1.38976
0
LINE
8
BLACK
6
CONTINUOUS
10
1.27854
20
1.38976
11
1.27779
21
1.386
0
LINE
8
BLACK
6
CONTINUOUS
10
1.27779
20
1.386
11
1.27566
21
1.3828
0
LINE
8
BLACK
6
CONTINUOUS
10
1.27566
20
1.3828
11
1.27247
21
1.38067
0
LINE
8
BLACK
6
CONTINUOUS
10
1.27247
20
1.38067
11
1.2687
21
1.37992
0
LINE
8
BLACK
6
CONTINUOUS
10
1.2687
20
1.37992
11
1.2313
21
1.37992
0
LINE
8
BLACK
6
CONTINUOUS
10
1.2313
20
1.37992
11
1.22753
21
1.38067
0
LINE
8
BLACK
6
CONTINUOUS
10
1.22753
20
1.38067
11
1.22434
21
1.3828
0
LINE
8
BLACK
6
CONTINUOUS
10
1.22434
20
1.3828
11
1.22221
21
1.386
0
LINE
8
BLACK
6
CONTINUOUS
10
1.22221
20
1.386
11
1.22146
21
1.38976
0
LINE
8
BLACK
6
CONTINUOUS
10
1.22146
20
1.38976
11
1.22146
21
1.40945
0
LINE
8
BLACK
6
CONTINUOUS
10
1.22146
20
1.40945
11
1.22221
21
1.41322
0
LINE
8
BLACK
6
CONTINUOUS
10
1.22221
20
1.41322
11
1.22434
21
1.41641
0
LINE
8
BLACK
6
CONTINUOUS
10
1.22434
20
1.41641
11
1.22753
21
1.41854
0
LINE
8
BLACK
6
CONTINUOUS
10
1.22753
20
1.41854
11
1.2313
21
1.41929
0
LINE
8
BLACK
6
CONTINUOUS
10
1.2313
20
1.41929
11
1.2687
21
1.41929
0
LINE
8
BLACK
6
CONTINUOUS
10
1.2687
20
1.41929
11
1.27247
21
1.41854
0
LINE
8
BLACK
6
CONTINUOUS
10
0.520683
20
1.39069
11
0.495092
21
1.39069
0
LINE
8
BLACK
6
CONTINUOUS
10
0.495092
20
1.39069
11
0.495092
21
1.43873
0
LINE
8
BLACK
6
CONTINUOUS
10
0.495092
20
1.43873
11
0.520683
21
1.43873
0
LINE
8
BLACK
6
CONTINUOUS
10
0.520683
20
1.43873
11
0.520683
21
1.39069
0
LINE
8
BLACK
6
CONTINUOUS
10
0.483281
20
1.39069
11
0.457691
21
1.39069
0
LINE
8
BLACK
6
CONTINUOUS
10
0.457691
20
1.39069
11
0.457691
21
1.43873
0
LINE
8
BLACK
6
CONTINUOUS
10
0.457691
20
1.43873
11
0.483281
21
1.43873
0
LINE
8
BLACK
6
CONTINUOUS
10
0.483281
20
1.43873
11
0.483281
21
1.39069
0
LINE
8
BLACK
6
CONTINUOUS
10
0.44588
20
1.39069
11
0.420289
21
1.39069
0
LINE
8
BLACK
6
CONTINUOUS
10
0.420289
20
1.39069
11
0.420289
21
1.43873
0
LINE
8
BLACK
6
CONTINUOUS
10
0.420289
20
1.43873
11
0.44588
21
1.43873
0
LINE
8
BLACK
6
CONTINUOUS
10
0.44588
20
1.43873
11
0.44588
21
1.39069
0
LINE
8
BLACK
6
CONTINUOUS
10
0.249981
20
1.4289
11
0.253095
21
1.42682
0
LINE
8
BLACK
6
CONTINUOUS
10
0.253095
20
1.42682
11
0.255175
21
1.4237
0
LINE
8
BLACK
6
CONTINUOUS
10
0.255175
20
1.4237
11
0.255906
21
1.42003
0
LINE
8
BLACK
6
CONTINUOUS
10
0.255906
20
1.42003
11
0.255906
21
1.40084
0
LINE
8
BLACK
6
CONTINUOUS
10
0.255906
20
1.40084
11
0.255175
21
1.39716
0
LINE
8
BLACK
6
CONTINUOUS
10
0.255175
20
1.39716
11
0.253095
21
1.39405
0
LINE
8
BLACK
6
CONTINUOUS
10
0.253095
20
1.39405
11
0.249981
21
1.39197
0
LINE
8
BLACK
6
CONTINUOUS
10
0.249981
20
1.39197
11
0.246309
21
1.39124
0
LINE
8
BLACK
6
CONTINUOUS
10
0.246309
20
1.39124
11
0.210384
21
1.39124
0
LINE
8
BLACK
6
CONTINUOUS
10
0.210384
20
1.39124
11
0.206711
21
1.39197
0
LINE
8
BLACK
6
CONTINUOUS
10
0.206711
20
1.39197
11
0.203598
21
1.39405
0
LINE
8
BLACK
6
CONTINUOUS
10
0.203598
20
1.39405
11
0.201518
21
1.39716
0
LINE
8
BLACK
6
CONTINUOUS
10
0.201518
20
1.39716
11
0.200787
21
1.40084
0
LINE
8
BLACK
6
CONTINUOUS
10
0.200787
20
1.40084
11
0.200787
21
1.42003
0
LINE
8
BLACK
6
CONTINUOUS
10
0.200787
20
1.42003
11
0.201518
21
1.4237
0
LINE
8
BLACK
6
CONTINUOUS
10
0.201518
20
1.4237
11
0.203598
21
1.42682
0
LINE
8
BLACK
6
CONTINUOUS
10
0.203598
20
1.42682
11
0.206711
21
1.4289
0
LINE
8
BLACK
6
CONTINUOUS
10
0.206711
20
1.4289
11
0.210384
21
1.42963
0
LINE
8
BLACK
6
CONTINUOUS
10
0.210384
20
1.42963
11
0.246309
21
1.42963
0
LINE
8
BLACK
6
CONTINUOUS
10
0.246309
20
1.42963
11
0.249981
21
1.4289
0
LINE
8
BLACK
6
CONTINUOUS
10
0.116123
20
1.46236
11
0.119236
21
1.46028
0
LINE
8
BLACK
6
CONTINUOUS
10
0.119236
20
1.46028
11
0.121317
21
1.45717
0
LINE
8
BLACK
6
CONTINUOUS
10
0.121317
20
1.45717
11
0.122047
21
1.45349
0
LINE
8
BLACK
6
CONTINUOUS
10
0.122047
20
1.45349
11
0.122047
21
1.4343
0
LINE
8
BLACK
6
CONTINUOUS
10
0.122047
20
1.4343
11
0.121317
21
1.43063
0
LINE
8
BLACK
6
CONTINUOUS
10
0.121317
20
1.43063
11
0.119236
21
1.42752
0
LINE
8
BLACK
6
CONTINUOUS
10
0.119236
20
1.42752
11
0.116123
21
1.42544
0
LINE
8
BLACK
6
CONTINUOUS
10
0.116123
20
1.42544
11
0.112451
21
1.4247
0
LINE
8
BLACK
6
CONTINUOUS
10
0.112451
20
1.4247
11
0.0765256
21
1.4247
0
LINE
8
BLACK
6
CONTINUOUS
10
0.0765256
20
1.4247
11
0.0728532
21
1.42544
0
LINE
8
BLACK
6
CONTINUOUS
10
0.0728532
20
1.42544
11
0.0697399
21
1.42752
0
LINE
8
BLACK
6
CONTINUOUS
10
0.0697399
20
1.42752
11
0.0676596
21
1.43063
0
LINE
8
BLACK
6
CONTINUOUS
10
0.0676596
20
1.43063
11
0.0669291
21
1.4343
0
LINE
8
BLACK
6
CONTINUOUS
10
0.0669291
20
1.4343
11
0.0669291
21
1.45349
0
LINE
8
BLACK
6
CONTINUOUS
10
0.0669291
20
1.45349
11
0.0676596
21
1.45717
0
LINE
8
BLACK
6
CONTINUOUS
10
0.0676596
20
1.45717
11
0.0697399
21
1.46028
0
LINE
8
BLACK
6
CONTINUOUS
10
0.0697399
20
1.46028
11
0.0728532
21
1.46236
0
LINE
8
BLACK
6
CONTINUOUS
10
0.0728532
20
1.46236
11
0.0765256
21
1.46309
0
LINE
8
BLACK
6
CONTINUOUS
10
0.0765256
20
1.46309
11
0.112451
21
1.46309
0
LINE
8
BLACK
6
CONTINUOUS
10
0.112451
20
1.46309
11
0.116123
21
1.46236
0
LINE
8
BLACK
6
CONTINUOUS
10
0.021635
20
1.46482
11
0.0247483
21
1.46274
0
LINE
8
BLACK
6
CONTINUOUS
10
0.0247483
20
1.46274
11
0.0268286
21
1.45963
0
LINE
8
BLACK
6
CONTINUOUS
10
0.0268286
20
1.45963
11
0.0275591
21
1.45595
0
LINE
8
BLACK
6
CONTINUOUS
10
0.0275591
20
1.45595
11
0.0275591
21
1.43676
0
LINE
8
BLACK
6
CONTINUOUS
10
0.0275591
20
1.43676
11
0.0268286
21
1.43309
0
LINE
8
BLACK
6
CONTINUOUS
10
0.0268286
20
1.43309
11
0.0247483
21
1.42998
0
LINE
8
BLACK
6
CONTINUOUS
10
0.0247483
20
1.42998
11
0.021635
21
1.4279
0
LINE
8
BLACK
6
CONTINUOUS
10
0.021635
20
1.4279
11
0.0179626
21
1.42717
0
LINE
8
BLACK
6
CONTINUOUS
10
0.0179626
20
1.42717
11
-0.0179626
21
1.42717
0
LINE
8
BLACK
6
CONTINUOUS
10
-0.0179626
20
1.42717
11
-0.021635
21
1.4279
0
LINE
8
BLACK
6
CONTINUOUS
10
-0.021635
20
1.4279
11
-0.0247483
21
1.42998
0
LINE
8
BLACK
6
CONTINUOUS
10
-0.0247483
20
1.42998
11
-0.0268286
21
1.43309
0
LINE
8
BLACK
6
CONTINUOUS
10
-0.0268286
20
1.43309
11
-0.0275591
21
1.43676
0
LINE
8
BLACK
6
CONTINUOUS
10
-0.0275591
20
1.43676
11
-0.0275591
21
1.45595
0
LINE
8
BLACK
6
CONTINUOUS
10
-0.0275591
20
1.45595
11
-0.0268286
21
1.45963
0
LINE
8
BLACK
6
CONTINUOUS
10
-0.0268286
20
1.45963
11
-0.0247483
21
1.46274
0
LINE
8
BLACK
6
CONTINUOUS
10
-0.0247483
20
1.46274
11
-0.021635
21
1.46482
0
LINE
8
BLACK
6
CONTINUOUS
10
-0.021635
20
1.46482
11
-0.0179626
21
1.46555
0
LINE
8
BLACK
6
CONTINUOUS
10
-0.0179626
20
1.46555
11
0.0179626
21
1.46555
0
LINE
8
BLACK
6
CONTINUOUS
10
0.0179626
20
1.46555
11
0.021635
21
1.46482
0
LINE
8
BLACK
6
CONTINUOUS
10
1.27247
20
1.49335
11
1.27566
21
1.49121
0
LINE
8
BLACK
6
CONTINUOUS
10
1.27566
20
1.49121
11
1.27779
21
1.48802
0
LINE
8
BLACK
6
CONTINUOUS
10
1.27779
20
1.48802
11
1.27854
21
1.48425
0
LINE
8
BLACK
6
CONTINUOUS
10
1.27854
20
1.48425
11
1.27854
21
1.46457
0
LINE
8
BLACK
6
CONTINUOUS
10
1.27854
20
1.46457
11
1.27779
21
1.4608
0
LINE
8
BLACK
6
CONTINUOUS
10
1.27779
20
1.4608
11
1.27566
21
1.45761
0
LINE
8
BLACK
6
CONTINUOUS
10
1.27566
20
1.45761
11
1.27247
21
1.45547
0
LINE
8
BLACK
6
CONTINUOUS
10
1.27247
20
1.45547
11
1.2687
21
1.45472
0
LINE
8
BLACK
6
CONTINUOUS
10
1.2687
20
1.45472
11
1.2313
21
1.45472
0
LINE
8
BLACK
6
CONTINUOUS
10
1.2313
20
1.45472
11
1.22753
21
1.45547
0
LINE
8
BLACK
6
CONTINUOUS
10
1.22753
20
1.45547
11
1.22434
21
1.45761
0
LINE
8
BLACK
6
CONTINUOUS
10
1.22434
20
1.45761
11
1.22221
21
1.4608
0
LINE
8
BLACK
6
CONTINUOUS
10
1.22221
20
1.4608
11
1.22146
21
1.46457
0
LINE
8
BLACK
6
CONTINUOUS
10
1.22146
20
1.46457
11
1.22146
21
1.48425
0
LINE
8
BLACK
6
CONTINUOUS
10
1.22146
20
1.48425
11
1.22221
21
1.48802
0
LINE
8
BLACK
6
CONTINUOUS
10
1.22221
20
1.48802
11
1.22434
21
1.49121
0
LINE
8
BLACK
6
CONTINUOUS
10
1.22434
20
1.49121
11
1.22753
21
1.49335
0
LINE
8
BLACK
6
CONTINUOUS
10
1.22753
20
1.49335
11
1.2313
21
1.49409
0
LINE
8
BLACK
6
CONTINUOUS
10
1.2313
20
1.49409
11
1.2687
21
1.49409
0
LINE
8
BLACK
6
CONTINUOUS
10
1.2687
20
1.49409
11
1.27247
21
1.49335
0
LINE
8
BLACK
6
CONTINUOUS
10
1.39058
20
1.49335
11
1.39377
21
1.49121
0
LINE
8
BLACK
6
CONTINUOUS
10
1.39377
20
1.49121
11
1.3959
21
1.48802
0
LINE
8
BLACK
6
CONTINUOUS
10
1.3959
20
1.48802
11
1.39665
21
1.48425
0
LINE
8
BLACK
6
CONTINUOUS
10
1.39665
20
1.48425
11
1.39665
21
1.46457
0
LINE
8
BLACK
6
CONTINUOUS
10
1.39665
20
1.46457
11
1.3959
21
1.4608
0
LINE
8
BLACK
6
CONTINUOUS
10
1.3959
20
1.4608
11
1.39377
21
1.45761
0
LINE
8
BLACK
6
CONTINUOUS
10
1.39377
20
1.45761
11
1.39058
21
1.45547
0
LINE
8
BLACK
6
CONTINUOUS
10
1.39058
20
1.45547
11
1.38681
21
1.45472
0
LINE
8
BLACK
6
CONTINUOUS
10
1.38681
20
1.45472
11
1.34941
21
1.45472
0
LINE
8
BLACK
6
CONTINUOUS
10
1.34941
20
1.45472
11
1.34564
21
1.45547
0
LINE
8
BLACK
6
CONTINUOUS
10
1.34564
20
1.45547
11
1.34245
21
1.45761
0
LINE
8
BLACK
6
CONTINUOUS
10
1.34245
20
1.45761
11
1.34032
21
1.4608
0
LINE
8
BLACK
6
CONTINUOUS
10
1.34032
20
1.4608
11
1.33957
21
1.46457
0
LINE
8
BLACK
6
CONTINUOUS
10
1.33957
20
1.46457
11
1.33957
21
1.48425
0
LINE
8
BLACK
6
CONTINUOUS
10
1.33957
20
1.48425
11
1.34032
21
1.48802
0
LINE
8
BLACK
6
CONTINUOUS
10
1.34032
20
1.48802
11
1.34245
21
1.49121
0
LINE
8
BLACK
6
CONTINUOUS
10
1.34245
20
1.49121
11
1.34564
21
1.49335
0
LINE
8
BLACK
6
CONTINUOUS
10
1.34564
20
1.49335
11
1.34941
21
1.49409
0
LINE
8
BLACK
6
CONTINUOUS
10
1.34941
20
1.49409
11
1.38681
21
1.49409
0
LINE
8
BLACK
6
CONTINUOUS
10
1.38681
20
1.49409
11
1.39058
21
1.49335
0
LINE
8
BLACK
6
CONTINUOUS
10
0.249981
20
1.50271
11
0.253095
21
1.50063
0
LINE
8
BLACK
6
CONTINUOUS
10
0.253095
20
1.50063
11
0.255175
21
1.49752
0
LINE
8
BLACK
6
CONTINUOUS
10
0.255175
20
1.49752
11
0.255906
21
1.49385
0
LINE
8
BLACK
6
CONTINUOUS
10
0.255906
20
1.49385
11
0.255906
21
1.47466
0
LINE
8
BLACK
6
CONTINUOUS
10
0.255906
20
1.47466
11
0.255175
21
1.47098
0
LINE
8
BLACK
6
CONTINUOUS
10
0.255175
20
1.47098
11
0.253095
21
1.46787
0
LINE
8
BLACK
6
CONTINUOUS
10
0.253095
20
1.46787
11
0.249981
21
1.46579
0
LINE
8
BLACK
6
CONTINUOUS
10
0.249981
20
1.46579
11
0.246309
21
1.46506
0
LINE
8
BLACK
6
CONTINUOUS
10
0.246309
20
1.46506
11
0.210384
21
1.46506
0
LINE
8
BLACK
6
CONTINUOUS
10
0.210384
20
1.46506
11
0.206711
21
1.46579
0
LINE
8
BLACK
6
CONTINUOUS
10
0.206711
20
1.46579
11
0.203598
21
1.46787
0
LINE
8
BLACK
6
CONTINUOUS
10
0.203598
20
1.46787
11
0.201518
21
1.47098
0
LINE
8
BLACK
6
CONTINUOUS
10
0.201518
20
1.47098
11
0.200787
21
1.47466
0
LINE
8
BLACK
6
CONTINUOUS
10
0.200787
20
1.47466
11
0.200787
21
1.49385
0
LINE
8
BLACK
6
CONTINUOUS
10
0.200787
20
1.49385
11
0.201518
21
1.49752
0
LINE
8
BLACK
6
CONTINUOUS
10
0.201518
20
1.49752
11
0.203598
21
1.50063
0
LINE
8
BLACK
6
CONTINUOUS
10
0.203598
20
1.50063
11
0.206711
21
1.50271
0
LINE
8
BLACK
6
CONTINUOUS
10
0.206711
20
1.50271
11
0.210384
21
1.50344
0
LINE
8
BLACK
6
CONTINUOUS
10
0.210384
20
1.50344
11
0.246309
21
1.50344
0
LINE
8
BLACK
6
CONTINUOUS
10
0.246309
20
1.50344
11
0.249981
21
1.50271
0
LINE
8
BLACK
6
CONTINUOUS
10
1.1873
20
1.58912
11
1.18922
21
1.58784
0
LINE
8
BLACK
6
CONTINUOUS
10
1.18922
20
1.58784
11
1.1905
21
1.58592
0
LINE
8
BLACK
6
CONTINUOUS
10
1.1905
20
1.58592
11
1.19094
21
1.58366
0
LINE
8
BLACK
6
CONTINUOUS
10
1.19094
20
1.58366
11
1.19094
21
1.54331
0
LINE
8
BLACK
6
CONTINUOUS
10
1.19094
20
1.54331
11
1.1905
21
1.54105
0
LINE
8
BLACK
6
CONTINUOUS
10
1.1905
20
1.54105
11
1.18922
21
1.53913
0
LINE
8
BLACK
6
CONTINUOUS
10
1.18922
20
1.53913
11
1.1873
21
1.53785
0
LINE
8
BLACK
6
CONTINUOUS
10
1.1873
20
1.53785
11
1.18504
21
1.5374
0
LINE
8
BLACK
6
CONTINUOUS
10
1.18504
20
1.5374
11
1.17323
21
1.5374
0
LINE
8
BLACK
6
CONTINUOUS
10
1.17323
20
1.5374
11
1.17097
21
1.53785
0
LINE
8
BLACK
6
CONTINUOUS
10
1.17097
20
1.53785
11
1.16905
21
1.53913
0
LINE
8
BLACK
6
CONTINUOUS
10
1.16905
20
1.53913
11
1.16777
21
1.54105
0
LINE
8
BLACK
6
CONTINUOUS
10
1.16777
20
1.54105
11
1.16732
21
1.54331
0
LINE
8
BLACK
6
CONTINUOUS
10
1.16732
20
1.54331
11
1.16732
21
1.58366
0
LINE
8
BLACK
6
CONTINUOUS
10
1.16732
20
1.58366
11
1.16777
21
1.58592
0
LINE
8
BLACK
6
CONTINUOUS
10
1.16777
20
1.58592
11
1.16905
21
1.58784
0
LINE
8
BLACK
6
CONTINUOUS
10
1.16905
20
1.58784
11
1.17097
21
1.58912
0
LINE
8
BLACK
6
CONTINUOUS
10
1.17097
20
1.58912
11
1.17323
21
1.58957
0
LINE
8
BLACK
6
CONTINUOUS
10
1.17323
20
1.58957
11
1.18504
21
1.58957
0
LINE
8
BLACK
6
CONTINUOUS
10
1.18504
20
1.58957
11
1.1873
21
1.58912
0
LINE
8
BLACK
6
CONTINUOUS
10
1.2621
20
1.58912
11
1.26402
21
1.58784
0
LINE
8
BLACK
6
CONTINUOUS
10
1.26402
20
1.58784
11
1.2653
21
1.58592
0
LINE
8
BLACK
6
CONTINUOUS
10
1.2653
20
1.58592
11
1.26575
21
1.58366
0
LINE
8
BLACK
6
CONTINUOUS
10
1.26575
20
1.58366
11
1.26575
21
1.54331
0
LINE
8
BLACK
6
CONTINUOUS
10
1.26575
20
1.54331
11
1.2653
21
1.54105
0
LINE
8
BLACK
6
CONTINUOUS
10
1.2653
20
1.54105
11
1.26402
21
1.53913
0
LINE
8
BLACK
6
CONTINUOUS
10
1.26402
20
1.53913
11
1.2621
21
1.53785
0
LINE
8
BLACK
6
CONTINUOUS
10
1.2621
20
1.53785
11
1.25984
21
1.5374
0
LINE
8
BLACK
6
CONTINUOUS
10
1.25984
20
1.5374
11
1.24803
21
1.5374
0
LINE
8
BLACK
6
CONTINUOUS
10
1.24803
20
1.5374
11
1.24577
21
1.53785
0
LINE
8
BLACK
6
CONTINUOUS
10
1.24577
20
1.53785
11
1.24386
21
1.53913
0
LINE
8
BLACK
6
CONTINUOUS
10
1.24386
20
1.53913
11
1.24258
21
1.54105
0
LINE
8
BLACK
6
CONTINUOUS
10
1.24258
20
1.54105
11
1.24213
21
1.54331
0
LINE
8
BLACK
6
CONTINUOUS
10
1.24213
20
1.54331
11
1.24213
21
1.58366
0
LINE
8
BLACK
6
CONTINUOUS
10
1.24213
20
1.58366
11
1.24258
21
1.58592
0
LINE
8
BLACK
6
CONTINUOUS
10
1.24258
20
1.58592
11
1.24386
21
1.58784
0
LINE
8
BLACK
6
CONTINUOUS
10
1.24386
20
1.58784
11
1.24577
21
1.58912
0
LINE
8
BLACK
6
CONTINUOUS
10
1.24577
20
1.58912
11
1.24803
21
1.58957
0
LINE
8
BLACK
6
CONTINUOUS
10
1.24803
20
1.58957
11
1.25984
21
1.58957
0
LINE
8
BLACK
6
CONTINUOUS
10
1.25984
20
1.58957
11
1.2621
21
1.58912
0
LINE
8
BLACK
6
CONTINUOUS
10
0.752782
20
1.58586
11
0.755975
21
1.58373
0
LINE
8
BLACK
6
CONTINUOUS
10
0.755975
20
1.58373
11
0.758109
21
1.58054
0
LINE
8
BLACK
6
CONTINUOUS
10
0.758109
20
1.58054
11
0.758858
21
1.57677
0
LINE
8
BLACK
6
CONTINUOUS
10
0.758858
20
1.57677
11
0.758858
21
1.55709
0
LINE
8
BLACK
6
CONTINUOUS
10
0.758858
20
1.55709
11
0.758109
21
1.55332
0
LINE
8
BLACK
6
CONTINUOUS
10
0.758109
20
1.55332
11
0.755975
21
1.55013
0
LINE
8
BLACK
6
CONTINUOUS
10
0.755975
20
1.55013
11
0.752782
21
1.54799
0
LINE
8
BLACK
6
CONTINUOUS
10
0.752782
20
1.54799
11
0.749016
21
1.54724
0
LINE
8
BLACK
6
CONTINUOUS
10
0.749016
20
1.54724
11
0.711614
21
1.54724
0
LINE
8
BLACK
6
CONTINUOUS
10
0.711614
20
1.54724
11
0.707848
21
1.54799
0
LINE
8
BLACK
6
CONTINUOUS
10
0.707848
20
1.54799
11
0.704654
21
1.55013
0
LINE
8
BLACK
6
CONTINUOUS
10
0.704654
20
1.55013
11
0.702521
21
1.55332
0
LINE
8
BLACK
6
CONTINUOUS
10
0.702521
20
1.55332
11
0.701772
21
1.55709
0
LINE
8
BLACK
6
CONTINUOUS
10
0.701772
20
1.55709
11
0.701772
21
1.57677
0
LINE
8
BLACK
6
CONTINUOUS
10
0.701772
20
1.57677
11
0.702521
21
1.58054
0
LINE
8
BLACK
6
CONTINUOUS
10
0.702521
20
1.58054
11
0.704654
21
1.58373
0
LINE
8
BLACK
6
CONTINUOUS
10
0.704654
20
1.58373
11
0.707848
21
1.58586
0
LINE
8
BLACK
6
CONTINUOUS
10
0.707848
20
1.58586
11
0.711614
21
1.58661
0
LINE
8
BLACK
6
CONTINUOUS
10
0.711614
20
1.58661
11
0.749016
21
1.58661
0
LINE
8
BLACK
6
CONTINUOUS
10
0.749016
20
1.58661
11
0.752782
21
1.58586
0
LINE
8
BLACK
6
CONTINUOUS
10
1.05116
20
1.59179
11
1.05428
21
1.58971
0
LINE
8
BLACK
6
CONTINUOUS
10
1.05428
20
1.58971
11
1.05636
21
1.5866
0
LINE
8
BLACK
6
CONTINUOUS
10
1.05636
20
1.5866
11
1.05709
21
1.58292
0
LINE
8
BLACK
6
CONTINUOUS
10
1.05709
20
1.58292
11
1.05709
21
1.56373
0
LINE
8
BLACK
6
CONTINUOUS
10
1.05709
20
1.56373
11
1.05636
21
1.56006
0
LINE
8
BLACK
6
CONTINUOUS
10
1.05636
20
1.56006
11
1.05428
21
1.55694
0
LINE
8
BLACK
6
CONTINUOUS
10
1.05428
20
1.55694
11
1.05116
21
1.55486
0
LINE
8
BLACK
6
CONTINUOUS
10
1.05116
20
1.55486
11
1.04749
21
1.55413
0
LINE
8
BLACK
6
CONTINUOUS
10
1.04749
20
1.55413
11
1.01156
21
1.55413
0
LINE
8
BLACK
6
CONTINUOUS
10
1.01156
20
1.55413
11
1.00789
21
1.55486
0
LINE
8
BLACK
6
CONTINUOUS
10
1.00789
20
1.55486
11
1.00478
21
1.55694
0
LINE
8
BLACK
6
CONTINUOUS
10
1.00478
20
1.55694
11
1.0027
21
1.56006
0
LINE
8
BLACK
6
CONTINUOUS
10
1.0027
20
1.56006
11
1.00197
21
1.56373
0
LINE
8
BLACK
6
CONTINUOUS
10
1.00197
20
1.56373
11
1.00197
21
1.58292
0
LINE
8
BLACK
6
CONTINUOUS
10
1.00197
20
1.58292
11
1.0027
21
1.5866
0
LINE
8
BLACK
6
CONTINUOUS
10
1.0027
20
1.5866
11
1.00478
21
1.58971
0
LINE
8
BLACK
6
CONTINUOUS
10
1.00478
20
1.58971
11
1.00789
21
1.59179
0
LINE
8
BLACK
6
CONTINUOUS
10
1.00789
20
1.59179
11
1.01156
21
1.59252
0
LINE
8
BLACK
6
CONTINUOUS
10
1.01156
20
1.59252
11
1.04749
21
1.59252
0
LINE
8
BLACK
6
CONTINUOUS
10
1.04749
20
1.59252
11
1.05116
21
1.59179
0
LINE
8
BLACK
6
CONTINUOUS
10
0.956984
20
1.58026
11
0.9589
21
1.57898
0
LINE
8
BLACK
6
CONTINUOUS
10
0.9589
20
1.57898
11
0.96018
21
1.57706
0
LINE
8
BLACK
6
CONTINUOUS
10
0.96018
20
1.57706
11
0.96063
21
1.5748
0
LINE
8
BLACK
6
CONTINUOUS
10
0.96063
20
1.5748
11
0.96063
21
1.56299
0
LINE
8
BLACK
6
CONTINUOUS
10
0.96063
20
1.56299
11
0.96018
21
1.56073
0
LINE
8
BLACK
6
CONTINUOUS
10
0.96018
20
1.56073
11
0.9589
21
1.55882
0
LINE
8
BLACK
6
CONTINUOUS
10
0.9589
20
1.55882
11
0.956984
21
1.55754
0
LINE
8
BLACK
6
CONTINUOUS
10
0.956984
20
1.55754
11
0.954724
21
1.55709
0
LINE
8
BLACK
6
CONTINUOUS
10
0.954724
20
1.55709
11
0.91437
21
1.55709
0
LINE
8
BLACK
6
CONTINUOUS
10
0.91437
20
1.55709
11
0.91211
21
1.55754
0
LINE
8
BLACK
6
CONTINUOUS
10
0.91211
20
1.55754
11
0.910194
21
1.55882
0
LINE
8
BLACK
6
CONTINUOUS
10
0.910194
20
1.55882
11
0.908914
21
1.56073
0
LINE
8
BLACK
6
CONTINUOUS
10
0.908914
20
1.56073
11
0.908465
21
1.56299
0
LINE
8
BLACK
6
CONTINUOUS
10
0.908465
20
1.56299
11
0.908465
21
1.5748
0
LINE
8
BLACK
6
CONTINUOUS
10
0.908465
20
1.5748
11
0.908914
21
1.57706
0
LINE
8
BLACK
6
CONTINUOUS
10
0.908914
20
1.57706
11
0.910194
21
1.57898
0
LINE
8
BLACK
6
CONTINUOUS
10
0.910194
20
1.57898
11
0.91211
21
1.58026
0
LINE
8
BLACK
6
CONTINUOUS
10
0.91211
20
1.58026
11
0.91437
21
1.58071
0
LINE
8
BLACK
6
CONTINUOUS
10
0.91437
20
1.58071
11
0.954724
21
1.58071
0
LINE
8
BLACK
6
CONTINUOUS
10
0.954724
20
1.58071
11
0.956984
21
1.58026
0
LINE
8
BLACK
6
CONTINUOUS
10
0.867417
20
1.58026
11
0.869333
21
1.57898
0
LINE
8
BLACK
6
CONTINUOUS
10
0.869333
20
1.57898
11
0.870613
21
1.57706
0
LINE
8
BLACK
6
CONTINUOUS
10
0.870613
20
1.57706
11
0.871063
21
1.5748
0
LINE
8
BLACK
6
CONTINUOUS
10
0.871063
20
1.5748
11
0.871063
21
1.56299
0
LINE
8
BLACK
6
CONTINUOUS
10
0.871063
20
1.56299
11
0.870613
21
1.56073
0
LINE
8
BLACK
6
CONTINUOUS
10
0.870613
20
1.56073
11
0.869333
21
1.55882
0
LINE
8
BLACK
6
CONTINUOUS
10
0.869333
20
1.55882
11
0.867417
21
1.55754
0
LINE
8
BLACK
6
CONTINUOUS
10
0.867417
20
1.55754
11
0.865157
21
1.55709
0
LINE
8
BLACK
6
CONTINUOUS
10
0.865157
20
1.55709
11
0.824803
21
1.55709
0
LINE
8
BLACK
6
CONTINUOUS
10
0.824803
20
1.55709
11
0.822543
21
1.55754
0
LINE
8
BLACK
6
CONTINUOUS
10
0.822543
20
1.55754
11
0.820627
21
1.55882
0
LINE
8
BLACK
6
CONTINUOUS
10
0.820627
20
1.55882
11
0.819347
21
1.56073
0
LINE
8
BLACK
6
CONTINUOUS
10
0.819347
20
1.56073
11
0.818898
21
1.56299
0
LINE
8
BLACK
6
CONTINUOUS
10
0.818898
20
1.56299
11
0.818898
21
1.5748
0
LINE
8
BLACK
6
CONTINUOUS
10
0.818898
20
1.5748
11
0.819347
21
1.57706
0
LINE
8
BLACK
6
CONTINUOUS
10
0.819347
20
1.57706
11
0.820627
21
1.57898
0
LINE
8
BLACK
6
CONTINUOUS
10
0.820627
20
1.57898
11
0.822543
21
1.58026
0
LINE
8
BLACK
6
CONTINUOUS
10
0.822543
20
1.58026
11
0.824803
21
1.58071
0
LINE
8
BLACK
6
CONTINUOUS
10
0.824803
20
1.58071
11
0.865157
21
1.58071
0
LINE
8
BLACK
6
CONTINUOUS
10
0.865157
20
1.58071
11
0.867417
21
1.58026
0
LINE
8
BLACK
6
CONTINUOUS
10
1.52557
20
1.62181
11
1.52869
21
1.61973
0
LINE
8
BLACK
6
CONTINUOUS
10
1.52869
20
1.61973
11
1.53077
21
1.61662
0
LINE
8
BLACK
6
CONTINUOUS
10
1.53077
20
1.61662
11
1.5315
21
1.61294
0
LINE
8
BLACK
6
CONTINUOUS
10
1.5315
20
1.61294
11
1.5315
21
1.59375
0
LINE
8
BLACK
6
CONTINUOUS
10
1.5315
20
1.59375
11
1.53077
21
1.59008
0
LINE
8
BLACK
6
CONTINUOUS
10
1.53077
20
1.59008
11
1.52869
21
1.58696
0
LINE
8
BLACK
6
CONTINUOUS
10
1.52869
20
1.58696
11
1.52557
21
1.58488
0
LINE
8
BLACK
6
CONTINUOUS
10
1.52557
20
1.58488
11
1.5219
21
1.58415
0
LINE
8
BLACK
6
CONTINUOUS
10
1.5219
20
1.58415
11
1.48597
21
1.58415
0
LINE
8
BLACK
6
CONTINUOUS
10
1.48597
20
1.58415
11
1.4823
21
1.58488
0
LINE
8
BLACK
6
CONTINUOUS
10
1.4823
20
1.58488
11
1.47919
21
1.58696
0
LINE
8
BLACK
6
CONTINUOUS
10
1.47919
20
1.58696
11
1.47711
21
1.59008
0
LINE
8
BLACK
6
CONTINUOUS
10
1.47711
20
1.59008
11
1.47638
21
1.59375
0
LINE
8
BLACK
6
CONTINUOUS
10
1.47638
20
1.59375
11
1.47638
21
1.61294
0
LINE
8
BLACK
6
CONTINUOUS
10
1.47638
20
1.61294
11
1.47711
21
1.61662
0
LINE
8
BLACK
6
CONTINUOUS
10
1.47711
20
1.61662
11
1.47919
21
1.61973
0
LINE
8
BLACK
6
CONTINUOUS
10
1.47919
20
1.61973
11
1.4823
21
1.62181
0
LINE
8
BLACK
6
CONTINUOUS
10
1.4823
20
1.62181
11
1.48597
21
1.62254
0
LINE
8
BLACK
6
CONTINUOUS
10
1.48597
20
1.62254
11
1.5219
21
1.62254
0
LINE
8
BLACK
6
CONTINUOUS
10
1.5219
20
1.62254
11
1.52557
21
1.62181
0
LINE
8
BLACK
6
CONTINUOUS
10
1.69486
20
1.62329
11
1.69798
21
1.62121
0
LINE
8
BLACK
6
CONTINUOUS
10
1.69798
20
1.62121
11
1.70006
21
1.61809
0
LINE
8
BLACK
6
CONTINUOUS
10
1.70006
20
1.61809
11
1.70079
21
1.61442
0
LINE
8
BLACK
6
CONTINUOUS
10
1.70079
20
1.61442
11
1.70079
21
1.59523
0
LINE
8
BLACK
6
CONTINUOUS
10
1.70079
20
1.59523
11
1.70006
21
1.59155
0
LINE
8
BLACK
6
CONTINUOUS
10
1.70006
20
1.59155
11
1.69798
21
1.58844
0
LINE
8
BLACK
6
CONTINUOUS
10
1.69798
20
1.58844
11
1.69486
21
1.58636
0
LINE
8
BLACK
6
CONTINUOUS
10
1.69486
20
1.58636
11
1.69119
21
1.58563
0
LINE
8
BLACK
6
CONTINUOUS
10
1.69119
20
1.58563
11
1.65527
21
1.58563
0
LINE
8
BLACK
6
CONTINUOUS
10
1.65527
20
1.58563
11
1.65159
21
1.58636
0
LINE
8
BLACK
6
CONTINUOUS
10
1.65159
20
1.58636
11
1.64848
21
1.58844
0
LINE
8
BLACK
6
CONTINUOUS
10
1.64848
20
1.58844
11
1.6464
21
1.59155
0
LINE
8
BLACK
6
CONTINUOUS
10
1.6464
20
1.59155
11
1.64567
21
1.59523
0
LINE
8
BLACK
6
CONTINUOUS
10
1.64567
20
1.59523
11
1.64567
21
1.61442
0
LINE
8
BLACK
6
CONTINUOUS
10
1.64567
20
1.61442
11
1.6464
21
1.61809
0
LINE
8
BLACK
6
CONTINUOUS
10
1.6464
20
1.61809
11
1.64848
21
1.62121
0
LINE
8
BLACK
6
CONTINUOUS
10
1.64848
20
1.62121
11
1.65159
21
1.62329
0
LINE
8
BLACK
6
CONTINUOUS
10
1.65159
20
1.62329
11
1.65527
21
1.62402
0
LINE
8
BLACK
6
CONTINUOUS
10
1.65527
20
1.62402
11
1.69119
21
1.62402
0
LINE
8
BLACK
6
CONTINUOUS
10
1.69119
20
1.62402
11
1.69486
21
1.62329
0
LINE
8
BLACK
6
CONTINUOUS
10
0.956984
20
1.61766
11
0.9589
21
1.61638
0
LINE
8
BLACK
6
CONTINUOUS
10
0.9589
20
1.61638
11
0.96018
21
1.61446
0
LINE
8
BLACK
6
CONTINUOUS
10
0.96018
20
1.61446
11
0.96063
21
1.6122
0
LINE
8
BLACK
6
CONTINUOUS
10
0.96063
20
1.6122
11
0.96063
21
1.60039
0
LINE
8
BLACK
6
CONTINUOUS
10
0.96063
20
1.60039
11
0.96018
21
1.59813
0
LINE
8
BLACK
6
CONTINUOUS
10
0.96018
20
1.59813
11
0.9589
21
1.59622
0
LINE
8
BLACK
6
CONTINUOUS
10
0.9589
20
1.59622
11
0.956984
21
1.59494
0
LINE
8
BLACK
6
CONTINUOUS
10
0.956984
20
1.59494
11
0.954724
21
1.59449
0
LINE
8
BLACK
6
CONTINUOUS
10
0.954724
20
1.59449
11
0.91437
21
1.59449
0
LINE
8
BLACK
6
CONTINUOUS
10
0.91437
20
1.59449
11
0.91211
21
1.59494
0
LINE
8
BLACK
6
CONTINUOUS
10
0.91211
20
1.59494
11
0.910194
21
1.59622
0
LINE
8
BLACK
6
CONTINUOUS
10
0.910194
20
1.59622
11
0.908914
21
1.59813
0
LINE
8
BLACK
6
CONTINUOUS
10
0.908914
20
1.59813
11
0.908465
21
1.60039
0
LINE
8
BLACK
6
CONTINUOUS
10
0.908465
20
1.60039
11
0.908465
21
1.6122
0
LINE
8
BLACK
6
CONTINUOUS
10
0.908465
20
1.6122
11
0.908914
21
1.61446
0
LINE
8
BLACK
6
CONTINUOUS
10
0.908914
20
1.61446
11
0.910194
21
1.61638
0
LINE
8
BLACK
6
CONTINUOUS
10
0.910194
20
1.61638
11
0.91211
21
1.61766
0
LINE
8
BLACK
6
CONTINUOUS
10
0.91211
20
1.61766
11
0.91437
21
1.61811
0
LINE
8
BLACK
6
CONTINUOUS
10
0.91437
20
1.61811
11
0.954724
21
1.61811
0
LINE
8
BLACK
6
CONTINUOUS
10
0.954724
20
1.61811
11
0.956984
21
1.61766
0
LINE
8
BLACK
6
CONTINUOUS
10
0.752782
20
1.66067
11
0.755975
21
1.65853
0
LINE
8
BLACK
6
CONTINUOUS
10
0.755975
20
1.65853
11
0.758109
21
1.65534
0
LINE
8
BLACK
6
CONTINUOUS
10
0.758109
20
1.65534
11
0.758858
21
1.65157
0
LINE
8
BLACK
6
CONTINUOUS
10
0.758858
20
1.65157
11
0.758858
21
1.63189
0
LINE
8
BLACK
6
CONTINUOUS
10
0.758858
20
1.63189
11
0.758109
21
1.62812
0
LINE
8
BLACK
6
CONTINUOUS
10
0.758109
20
1.62812
11
0.755975
21
1.62493
0
LINE
8
BLACK
6
CONTINUOUS
10
0.755975
20
1.62493
11
0.752782
21
1.6228
0
LINE
8
BLACK
6
CONTINUOUS
10
0.752782
20
1.6228
11
0.749016
21
1.62205
0
LINE
8
BLACK
6
CONTINUOUS
10
0.749016
20
1.62205
11
0.711614
21
1.62205
0
LINE
8
BLACK
6
CONTINUOUS
10
0.711614
20
1.62205
11
0.707848
21
1.6228
0
LINE
8
BLACK
6
CONTINUOUS
10
0.707848
20
1.6228
11
0.704654
21
1.62493
0
LINE
8
BLACK
6
CONTINUOUS
10
0.704654
20
1.62493
11
0.702521
21
1.62812
0
LINE
8
BLACK
6
CONTINUOUS
10
0.702521
20
1.62812
11
0.701772
21
1.63189
0
LINE
8
BLACK
6
CONTINUOUS
10
0.701772
20
1.63189
11
0.701772
21
1.65157
0
LINE
8
BLACK
6
CONTINUOUS
10
0.701772
20
1.65157
11
0.702521
21
1.65534
0
LINE
8
BLACK
6
CONTINUOUS
10
0.702521
20
1.65534
11
0.704654
21
1.65853
0
LINE
8
BLACK
6
CONTINUOUS
10
0.704654
20
1.65853
11
0.707848
21
1.66067
0
LINE
8
BLACK
6
CONTINUOUS
10
0.707848
20
1.66067
11
0.711614
21
1.66142
0
LINE
8
BLACK
6
CONTINUOUS
10
0.711614
20
1.66142
11
0.749016
21
1.66142
0
LINE
8
BLACK
6
CONTINUOUS
10
0.749016
20
1.66142
11
0.752782
21
1.66067
0
LINE
8
BLACK
6
CONTINUOUS
10
1.1873
20
1.67868
11
1.18922
21
1.6774
0
LINE
8
BLACK
6
CONTINUOUS
10
1.18922
20
1.6774
11
1.1905
21
1.67549
0
LINE
8
BLACK
6
CONTINUOUS
10
1.1905
20
1.67549
11
1.19094
21
1.67323
0
LINE
8
BLACK
6
CONTINUOUS
10
1.19094
20
1.67323
11
1.19094
21
1.63287
0
LINE
8
BLACK
6
CONTINUOUS
10
1.19094
20
1.63287
11
1.1905
21
1.63061
0
LINE
8
BLACK
6
CONTINUOUS
10
1.1905
20
1.63061
11
1.18922
21
1.6287
0
LINE
8
BLACK
6
CONTINUOUS
10
1.18922
20
1.6287
11
1.1873
21
1.62742
0
LINE
8
BLACK
6
CONTINUOUS
10
1.1873
20
1.62742
11
1.18504
21
1.62697
0
LINE
8
BLACK
6
CONTINUOUS
10
1.18504
20
1.62697
11
1.17323
21
1.62697
0
LINE
8
BLACK
6
CONTINUOUS
10
1.17323
20
1.62697
11
1.17097
21
1.62742
0
LINE
8
BLACK
6
CONTINUOUS
10
1.17097
20
1.62742
11
1.16905
21
1.6287
0
LINE
8
BLACK
6
CONTINUOUS
10
1.16905
20
1.6287
11
1.16777
21
1.63061
0
LINE
8
BLACK
6
CONTINUOUS
10
1.16777
20
1.63061
11
1.16732
21
1.63287
0
LINE
8
BLACK
6
CONTINUOUS
10
1.16732
20
1.63287
11
1.16732
21
1.67323
0
LINE
8
BLACK
6
CONTINUOUS
10
1.16732
20
1.67323
11
1.16777
21
1.67549
0
LINE
8
BLACK
6
CONTINUOUS
10
1.16777
20
1.67549
11
1.16905
21
1.6774
0
LINE
8
BLACK
6
CONTINUOUS
10
1.16905
20
1.6774
11
1.17097
21
1.67868
0
LINE
8
BLACK
6
CONTINUOUS
10
1.17097
20
1.67868
11
1.17323
21
1.67913
0
LINE
8
BLACK
6
CONTINUOUS
10
1.17323
20
1.67913
11
1.18504
21
1.67913
0
LINE
8
BLACK
6
CONTINUOUS
10
1.18504
20
1.67913
11
1.1873
21
1.67868
0
LINE
8
BLACK
6
CONTINUOUS
10
1.2247
20
1.67868
11
1.22662
21
1.6774
0
LINE
8
BLACK
6
CONTINUOUS
10
1.22662
20
1.6774
11
1.2279
21
1.67549
0
LINE
8
BLACK
6
CONTINUOUS
10
1.2279
20
1.67549
11
1.22835
21
1.67323
0
LINE
8
BLACK
6
CONTINUOUS
10
1.22835
20
1.67323
11
1.22835
21
1.63287
0
LINE
8
BLACK
6
CONTINUOUS
10
1.22835
20
1.63287
11
1.2279
21
1.63061
0
LINE
8
BLACK
6
CONTINUOUS
10
1.2279
20
1.63061
11
1.22662
21
1.6287
0
LINE
8
BLACK
6
CONTINUOUS
10
1.22662
20
1.6287
11
1.2247
21
1.62742
0
LINE
8
BLACK
6
CONTINUOUS
10
1.2247
20
1.62742
11
1.22244
21
1.62697
0
LINE
8
BLACK
6
CONTINUOUS
10
1.22244
20
1.62697
11
1.21063
21
1.62697
0
LINE
8
BLACK
6
CONTINUOUS
10
1.21063
20
1.62697
11
1.20837
21
1.62742
0
LINE
8
BLACK
6
CONTINUOUS
10
1.20837
20
1.62742
11
1.20645
21
1.6287
0
LINE
8
BLACK
6
CONTINUOUS
10
1.20645
20
1.6287
11
1.20517
21
1.63061
0
LINE
8
BLACK
6
CONTINUOUS
10
1.20517
20
1.63061
11
1.20472
21
1.63287
0
LINE
8
BLACK
6
CONTINUOUS
10
1.20472
20
1.63287
11
1.20472
21
1.67323
0
LINE
8
BLACK
6
CONTINUOUS
10
1.20472
20
1.67323
11
1.20517
21
1.67549
0
LINE
8
BLACK
6
CONTINUOUS
10
1.20517
20
1.67549
11
1.20645
21
1.6774
0
LINE
8
BLACK
6
CONTINUOUS
10
1.20645
20
1.6774
11
1.20837
21
1.67868
0
LINE
8
BLACK
6
CONTINUOUS
10
1.20837
20
1.67868
11
1.21063
21
1.67913
0
LINE
8
BLACK
6
CONTINUOUS
10
1.21063
20
1.67913
11
1.22244
21
1.67913
0
LINE
8
BLACK
6
CONTINUOUS
10
1.22244
20
1.67913
11
1.2247
21
1.67868
0
LINE
8
BLACK
6
CONTINUOUS
10
1.2621
20
1.67868
11
1.26402
21
1.6774
0
LINE
8
BLACK
6
CONTINUOUS
10
1.26402
20
1.6774
11
1.2653
21
1.67549
0
LINE
8
BLACK
6
CONTINUOUS
10
1.2653
20
1.67549
11
1.26575
21
1.67323
0
LINE
8
BLACK
6
CONTINUOUS
10
1.26575
20
1.67323
11
1.26575
21
1.63287
0
LINE
8
BLACK
6
CONTINUOUS
10
1.26575
20
1.63287
11
1.2653
21
1.63061
0
LINE
8
BLACK
6
CONTINUOUS
10
1.2653
20
1.63061
11
1.26402
21
1.6287
0
LINE
8
BLACK
6
CONTINUOUS
10
1.26402
20
1.6287
11
1.2621
21
1.62742
0
LINE
8
BLACK
6
CONTINUOUS
10
1.2621
20
1.62742
11
1.25984
21
1.62697
0
LINE
8
BLACK
6
CONTINUOUS
10
1.25984
20
1.62697
11
1.24803
21
1.62697
0
LINE
8
BLACK
6
CONTINUOUS
10
1.24803
20
1.62697
11
1.24577
21
1.62742
0
LINE
8
BLACK
6
CONTINUOUS
10
1.24577
20
1.62742
11
1.24386
21
1.6287
0
LINE
8
BLACK
6
CONTINUOUS
10
1.24386
20
1.6287
11
1.24258
21
1.63061
0
LINE
8
BLACK
6
CONTINUOUS
10
1.24258
20
1.63061
11
1.24213
21
1.63287
0
LINE
8
BLACK
6
CONTINUOUS
10
1.24213
20
1.63287
11
1.24213
21
1.67323
0
LINE
8
BLACK
6
CONTINUOUS
10
1.24213
20
1.67323
11
1.24258
21
1.67549
0
LINE
8
BLACK
6
CONTINUOUS
10
1.24258
20
1.67549
11
1.24386
21
1.6774
0
LINE
8
BLACK
6
CONTINUOUS
10
1.24386
20
1.6774
11
1.24577
21
1.67868
0
LINE
8
BLACK
6
CONTINUOUS
10
1.24577
20
1.67868
11
1.24803
21
1.67913
0
LINE
8
BLACK
6
CONTINUOUS
10
1.24803
20
1.67913
11
1.25984
21
1.67913
0
LINE
8
BLACK
6
CONTINUOUS
10
1.25984
20
1.67913
11
1.2621
21
1.67868
0
LINE
8
BLACK
6
CONTINUOUS
10
1.05116
20
1.66561
11
1.05428
21
1.66353
0
LINE
8
BLACK
6
CONTINUOUS
10
1.05428
20
1.66353
11
1.05636
21
1.66041
0
LINE
8
BLACK
6
CONTINUOUS
10
1.05636
20
1.66041
11
1.05709
21
1.65674
0
LINE
8
BLACK
6
CONTINUOUS
10
1.05709
20
1.65674
11
1.05709
21
1.63755
0
LINE
8
BLACK
6
CONTINUOUS
10
1.05709
20
1.63755
11
1.05636
21
1.63388
0
LINE
8
BLACK
6
CONTINUOUS
10
1.05636
20
1.63388
11
1.05428
21
1.63076
0
LINE
8
BLACK
6
CONTINUOUS
10
1.05428
20
1.63076
11
1.05116
21
1.62868
0
LINE
8
BLACK
6
CONTINUOUS
10
1.05116
20
1.62868
11
1.04749
21
1.62795
0
LINE
8
BLACK
6
CONTINUOUS
10
1.04749
20
1.62795
11
1.01156
21
1.62795
0
LINE
8
BLACK
6
CONTINUOUS
10
1.01156
20
1.62795
11
1.00789
21
1.62868
0
LINE
8
BLACK
6
CONTINUOUS
10
1.00789
20
1.62868
11
1.00478
21
1.63076
0
LINE
8
BLACK
6
CONTINUOUS
10
1.00478
20
1.63076
11
1.0027
21
1.63388
0
LINE
8
BLACK
6
CONTINUOUS
10
1.0027
20
1.63388
11
1.00197
21
1.63755
0
LINE
8
BLACK
6
CONTINUOUS
10
1.00197
20
1.63755
11
1.00197
21
1.65674
0
LINE
8
BLACK
6
CONTINUOUS
10
1.00197
20
1.65674
11
1.0027
21
1.66041
0
LINE
8
BLACK
6
CONTINUOUS
10
1.0027
20
1.66041
11
1.00478
21
1.66353
0
LINE
8
BLACK
6
CONTINUOUS
10
1.00478
20
1.66353
11
1.00789
21
1.66561
0
LINE
8
BLACK
6
CONTINUOUS
10
1.00789
20
1.66561
11
1.01156
21
1.66634
0
LINE
8
BLACK
6
CONTINUOUS
10
1.01156
20
1.66634
11
1.04749
21
1.66634
0
LINE
8
BLACK
6
CONTINUOUS
10
1.04749
20
1.66634
11
1.05116
21
1.66561
0
LINE
8
BLACK
6
CONTINUOUS
10
0.956984
20
1.65506
11
0.9589
21
1.65378
0
LINE
8
BLACK
6
CONTINUOUS
10
0.9589
20
1.65378
11
0.96018
21
1.65187
0
LINE
8
BLACK
6
CONTINUOUS
10
0.96018
20
1.65187
11
0.96063
21
1.64961
0
LINE
8
BLACK
6
CONTINUOUS
10
0.96063
20
1.64961
11
0.96063
21
1.6378
0
LINE
8
BLACK
6
CONTINUOUS
10
0.96063
20
1.6378
11
0.96018
21
1.63554
0
LINE
8
BLACK
6
CONTINUOUS
10
0.96018
20
1.63554
11
0.9589
21
1.63362
0
LINE
8
BLACK
6
CONTINUOUS
10
0.9589
20
1.63362
11
0.956984
21
1.63234
0
LINE
8
BLACK
6
CONTINUOUS
10
0.956984
20
1.63234
11
0.954724
21
1.63189
0
LINE
8
BLACK
6
CONTINUOUS
10
0.954724
20
1.63189
11
0.91437
21
1.63189
0
LINE
8
BLACK
6
CONTINUOUS
10
0.91437
20
1.63189
11
0.91211
21
1.63234
0
LINE
8
BLACK
6
CONTINUOUS
10
0.91211
20
1.63234
11
0.910194
21
1.63362
0
LINE
8
BLACK
6
CONTINUOUS
10
0.910194
20
1.63362
11
0.908914
21
1.63554
0
LINE
8
BLACK
6
CONTINUOUS
10
0.908914
20
1.63554
11
0.908465
21
1.6378
0
LINE
8
BLACK
6
CONTINUOUS
10
0.908465
20
1.6378
11
0.908465
21
1.64961
0
LINE
8
BLACK
6
CONTINUOUS
10
0.908465
20
1.64961
11
0.908914
21
1.65187
0
LINE
8
BLACK
6
CONTINUOUS
10
0.908914
20
1.65187
11
0.910194
21
1.65378
0
LINE
8
BLACK
6
CONTINUOUS
10
0.910194
20
1.65378
11
0.91211
21
1.65506
0
LINE
8
BLACK
6
CONTINUOUS
10
0.91211
20
1.65506
11
0.91437
21
1.65551
0
LINE
8
BLACK
6
CONTINUOUS
10
0.91437
20
1.65551
11
0.954724
21
1.65551
0
LINE
8
BLACK
6
CONTINUOUS
10
0.954724
20
1.65551
11
0.956984
21
1.65506
0
LINE
8
BLACK
6
CONTINUOUS
10
0.867417
20
1.65506
11
0.869333
21
1.65378
0
LINE
8
BLACK
6
CONTINUOUS
10
0.869333
20
1.65378
11
0.870613
21
1.65187
0
LINE
8
BLACK
6
CONTINUOUS
10
0.870613
20
1.65187
11
0.871063
21
1.64961
0
LINE
8
BLACK
6
CONTINUOUS
10
0.871063
20
1.64961
11
0.871063
21
1.6378
0
LINE
8
BLACK
6
CONTINUOUS
10
0.871063
20
1.6378
11
0.870613
21
1.63554
0
LINE
8
BLACK
6
CONTINUOUS
10
0.870613
20
1.63554
11
0.869333
21
1.63362
0
LINE
8
BLACK
6
CONTINUOUS
10
0.869333
20
1.63362
11
0.867417
21
1.63234
0
LINE
8
BLACK
6
CONTINUOUS
10
0.867417
20
1.63234
11
0.865157
21
1.63189
0
LINE
8
BLACK
6
CONTINUOUS
10
0.865157
20
1.63189
11
0.824803
21
1.63189
0
LINE
8
BLACK
6
CONTINUOUS
10
0.824803
20
1.63189
11
0.822543
21
1.63234
0
LINE
8
BLACK
6
CONTINUOUS
10
0.822543
20
1.63234
11
0.820627
21
1.63362
0
LINE
8
BLACK
6
CONTINUOUS
10
0.820627
20
1.63362
11
0.819347
21
1.63554
0
LINE
8
BLACK
6
CONTINUOUS
10
0.819347
20
1.63554
11
0.818898
21
1.6378
0
LINE
8
BLACK
6
CONTINUOUS
10
0.818898
20
1.6378
11
0.818898
21
1.64961
0
LINE
8
BLACK
6
CONTINUOUS
10
0.818898
20
1.64961
11
0.819347
21
1.65187
0
LINE
8
BLACK
6
CONTINUOUS
10
0.819347
20
1.65187
11
0.820627
21
1.65378
0
LINE
8
BLACK
6
CONTINUOUS
10
0.820627
20
1.65378
11
0.822543
21
1.65506
0
LINE
8
BLACK
6
CONTINUOUS
10
0.822543
20
1.65506
11
0.824803
21
1.65551
0
LINE
8
BLACK
6
CONTINUOUS
10
0.824803
20
1.65551
11
0.865157
21
1.65551
0
LINE
8
BLACK
6
CONTINUOUS
10
0.865157
20
1.65551
11
0.867417
21
1.65506
0
LINE
8
BLACK
6
CONTINUOUS
10
1.52557
20
1.69563
11
1.52869
21
1.69355
0
LINE
8
BLACK
6
CONTINUOUS
10
1.52869
20
1.69355
11
1.53077
21
1.69043
0
LINE
8
BLACK
6
CONTINUOUS
10
1.53077
20
1.69043
11
1.5315
21
1.68676
0
LINE
8
BLACK
6
CONTINUOUS
10
1.5315
20
1.68676
11
1.5315
21
1.66757
0
LINE
8
BLACK
6
CONTINUOUS
10
1.5315
20
1.66757
11
1.53077
21
1.6639
0
LINE
8
BLACK
6
CONTINUOUS
10
1.53077
20
1.6639
11
1.52869
21
1.66078
0
LINE
8
BLACK
6
CONTINUOUS
10
1.52869
20
1.66078
11
1.52557
21
1.6587
0
LINE
8
BLACK
6
CONTINUOUS
10
1.52557
20
1.6587
11
1.5219
21
1.65797
0
LINE
8
BLACK
6
CONTINUOUS
10
1.5219
20
1.65797
11
1.48597
21
1.65797
0
LINE
8
BLACK
6
CONTINUOUS
10
1.48597
20
1.65797
11
1.4823
21
1.6587
0
LINE
8
BLACK
6
CONTINUOUS
10
1.4823
20
1.6587
11
1.47919
21
1.66078
0
LINE
8
BLACK
6
CONTINUOUS
10
1.47919
20
1.66078
11
1.47711
21
1.6639
0
LINE
8
BLACK
6
CONTINUOUS
10
1.47711
20
1.6639
11
1.47638
21
1.66757
0
LINE
8
BLACK
6
CONTINUOUS
10
1.47638
20
1.66757
11
1.47638
21
1.68676
0
LINE
8
BLACK
6
CONTINUOUS
10
1.47638
20
1.68676
11
1.47711
21
1.69043
0
LINE
8
BLACK
6
CONTINUOUS
10
1.47711
20
1.69043
11
1.47919
21
1.69355
0
LINE
8
BLACK
6
CONTINUOUS
10
1.47919
20
1.69355
11
1.4823
21
1.69563
0
LINE
8
BLACK
6
CONTINUOUS
10
1.4823
20
1.69563
11
1.48597
21
1.69636
0
LINE
8
BLACK
6
CONTINUOUS
10
1.48597
20
1.69636
11
1.5219
21
1.69636
0
LINE
8
BLACK
6
CONTINUOUS
10
1.5219
20
1.69636
11
1.52557
21
1.69563
0
LINE
8
BLACK
6
CONTINUOUS
10
1.69486
20
1.6971
11
1.69798
21
1.69502
0
LINE
8
BLACK
6
CONTINUOUS
10
1.69798
20
1.69502
11
1.70006
21
1.69191
0
LINE
8
BLACK
6
CONTINUOUS
10
1.70006
20
1.69191
11
1.70079
21
1.68824
0
LINE
8
BLACK
6
CONTINUOUS
10
1.70079
20
1.68824
11
1.70079
21
1.66905
0
LINE
8
BLACK
6
CONTINUOUS
10
1.70079
20
1.66905
11
1.70006
21
1.66537
0
LINE
8
BLACK
6
CONTINUOUS
10
1.70006
20
1.66537
11
1.69798
21
1.66226
0
LINE
8
BLACK
6
CONTINUOUS
10
1.69798
20
1.66226
11
1.69486
21
1.66018
0
LINE
8
BLACK
6
CONTINUOUS
10
1.69486
20
1.66018
11
1.69119
21
1.65945
0
LINE
8
BLACK
6
CONTINUOUS
10
1.69119
20
1.65945
11
1.65527
21
1.65945
0
LINE
8
BLACK
6
CONTINUOUS
10
1.65527
20
1.65945
11
1.65159
21
1.66018
0
LINE
8
BLACK
6
CONTINUOUS
10
1.65159
20
1.66018
11
1.64848
21
1.66226
0
LINE
8
BLACK
6
CONTINUOUS
10
1.64848
20
1.66226
11
1.6464
21
1.66537
0
LINE
8
BLACK
6
CONTINUOUS
10
1.6464
20
1.66537
11
1.64567
21
1.66905
0
LINE
8
BLACK
6
CONTINUOUS
10
1.64567
20
1.66905
11
1.64567
21
1.68824
0
LINE
8
BLACK
6
CONTINUOUS
10
1.64567
20
1.68824
11
1.6464
21
1.69191
0
LINE
8
BLACK
6
CONTINUOUS
10
1.6464
20
1.69191
11
1.64848
21
1.69502
0
LINE
8
BLACK
6
CONTINUOUS
10
1.64848
20
1.69502
11
1.65159
21
1.6971
0
LINE
8
BLACK
6
CONTINUOUS
10
1.65159
20
1.6971
11
1.65527
21
1.69783
0
LINE
8
BLACK
6
CONTINUOUS
10
1.65527
20
1.69783
11
1.69119
21
1.69783
0
LINE
8
BLACK
6
CONTINUOUS
10
1.69119
20
1.69783
11
1.69486
21
1.6971
0
LINE
8
BLACK
6
CONTINUOUS
10
1.52557
20
1.75714
11
1.52869
21
1.75506
0
LINE
8
BLACK
6
CONTINUOUS
10
1.52869
20
1.75506
11
1.53077
21
1.75195
0
LINE
8
BLACK
6
CONTINUOUS
10
1.53077
20
1.75195
11
1.5315
21
1.74828
0
LINE
8
BLACK
6
CONTINUOUS
10
1.5315
20
1.74828
11
1.5315
21
1.72908
0
LINE
8
BLACK
6
CONTINUOUS
10
1.5315
20
1.72908
11
1.53077
21
1.72541
0
LINE
8
BLACK
6
CONTINUOUS
10
1.53077
20
1.72541
11
1.52869
21
1.7223
0
LINE
8
BLACK
6
CONTINUOUS
10
1.52869
20
1.7223
11
1.52557
21
1.72022
0
LINE
8
BLACK
6
CONTINUOUS
10
1.52557
20
1.72022
11
1.5219
21
1.71949
0
LINE
8
BLACK
6
CONTINUOUS
10
1.5219
20
1.71949
11
1.48597
21
1.71949
0
LINE
8
BLACK
6
CONTINUOUS
10
1.48597
20
1.71949
11
1.4823
21
1.72022
0
LINE
8
BLACK
6
CONTINUOUS
10
1.4823
20
1.72022
11
1.47919
21
1.7223
0
LINE
8
BLACK
6
CONTINUOUS
10
1.47919
20
1.7223
11
1.47711
21
1.72541
0
LINE
8
BLACK
6
CONTINUOUS
10
1.47711
20
1.72541
11
1.47638
21
1.72908
0
LINE
8
BLACK
6
CONTINUOUS
10
1.47638
20
1.72908
11
1.47638
21
1.74828
0
LINE
8
BLACK
6
CONTINUOUS
10
1.47638
20
1.74828
11
1.47711
21
1.75195
0
LINE
8
BLACK
6
CONTINUOUS
10
1.47711
20
1.75195
11
1.47919
21
1.75506
0
LINE
8
BLACK
6
CONTINUOUS
10
1.47919
20
1.75506
11
1.4823
21
1.75714
0
LINE
8
BLACK
6
CONTINUOUS
10
1.4823
20
1.75714
11
1.48597
21
1.75787
0
LINE
8
BLACK
6
CONTINUOUS
10
1.48597
20
1.75787
11
1.5219
21
1.75787
0
LINE
8
BLACK
6
CONTINUOUS
10
1.5219
20
1.75787
11
1.52557
21
1.75714
0
LINE
8
BLACK
6
CONTINUOUS
10
1.69486
20
1.75862
11
1.69798
21
1.75654
0
LINE
8
BLACK
6
CONTINUOUS
10
1.69798
20
1.75654
11
1.70006
21
1.75343
0
LINE
8
BLACK
6
CONTINUOUS
10
1.70006
20
1.75343
11
1.70079
21
1.74975
0
LINE
8
BLACK
6
CONTINUOUS
10
1.70079
20
1.74975
11
1.70079
21
1.73056
0
LINE
8
BLACK
6
CONTINUOUS
10
1.70079
20
1.73056
11
1.70006
21
1.72689
0
LINE
8
BLACK
6
CONTINUOUS
10
1.70006
20
1.72689
11
1.69798
21
1.72378
0
LINE
8
BLACK
6
CONTINUOUS
10
1.69798
20
1.72378
11
1.69486
21
1.7217
0
LINE
8
BLACK
6
CONTINUOUS
10
1.69486
20
1.7217
11
1.69119
21
1.72096
0
LINE
8
BLACK
6
CONTINUOUS
10
1.69119
20
1.72096
11
1.65527
21
1.72096
0
LINE
8
BLACK
6
CONTINUOUS
10
1.65527
20
1.72096
11
1.65159
21
1.7217
0
LINE
8
BLACK
6
CONTINUOUS
10
1.65159
20
1.7217
11
1.64848
21
1.72378
0
LINE
8
BLACK
6
CONTINUOUS
10
1.64848
20
1.72378
11
1.6464
21
1.72689
0
LINE
8
BLACK
6
CONTINUOUS
10
1.6464
20
1.72689
11
1.64567
21
1.73056
0
LINE
8
BLACK
6
CONTINUOUS
10
1.64567
20
1.73056
11
1.64567
21
1.74975
0
LINE
8
BLACK
6
CONTINUOUS
10
1.64567
20
1.74975
11
1.6464
21
1.75343
0
LINE
8
BLACK
6
CONTINUOUS
10
1.6464
20
1.75343
11
1.64848
21
1.75654
0
LINE
8
BLACK
6
CONTINUOUS
10
1.64848
20
1.75654
11
1.65159
21
1.75862
0
LINE
8
BLACK
6
CONTINUOUS
10
1.65159
20
1.75862
11
1.65527
21
1.75935
0
LINE
8
BLACK
6
CONTINUOUS
10
1.65527
20
1.75935
11
1.69119
21
1.75935
0
LINE
8
BLACK
6
CONTINUOUS
10
1.69119
20
1.75935
11
1.69486
21
1.75862
0
LINE
8
BLACK
6
CONTINUOUS
10
1.2518
20
1.77976
11
1.25499
21
1.77763
0
LINE
8
BLACK
6
CONTINUOUS
10
1.25499
20
1.77763
11
1.25712
21
1.77444
0
LINE
8
BLACK
6
CONTINUOUS
10
1.25712
20
1.77444
11
1.25787
21
1.77067
0
LINE
8
BLACK
6
CONTINUOUS
10
1.25787
20
1.77067
11
1.25787
21
1.73327
0
LINE
8
BLACK
6
CONTINUOUS
10
1.25787
20
1.73327
11
1.25712
21
1.7295
0
LINE
8
BLACK
6
CONTINUOUS
10
1.25712
20
1.7295
11
1.25499
21
1.72631
0
LINE
8
BLACK
6
CONTINUOUS
10
1.25499
20
1.72631
11
1.2518
21
1.72417
0
LINE
8
BLACK
6
CONTINUOUS
10
1.2518
20
1.72417
11
1.24803
21
1.72343
0
LINE
8
BLACK
6
CONTINUOUS
10
1.24803
20
1.72343
11
1.22835
21
1.72343
0
LINE
8
BLACK
6
CONTINUOUS
10
1.22835
20
1.72343
11
1.22458
21
1.72417
0
LINE
8
BLACK
6
CONTINUOUS
10
1.22458
20
1.72417
11
1.22139
21
1.72631
0
LINE
8
BLACK
6
CONTINUOUS
10
1.22139
20
1.72631
11
1.21925
21
1.7295
0
LINE
8
BLACK
6
CONTINUOUS
10
1.21925
20
1.7295
11
1.2185
21
1.73327
0
LINE
8
BLACK
6
CONTINUOUS
10
1.2185
20
1.73327
11
1.2185
21
1.77067
0
LINE
8
BLACK
6
CONTINUOUS
10
1.2185
20
1.77067
11
1.21925
21
1.77444
0
LINE
8
BLACK
6
CONTINUOUS
10
1.21925
20
1.77444
11
1.22139
21
1.77763
0
LINE
8
BLACK
6
CONTINUOUS
10
1.22139
20
1.77763
11
1.22458
21
1.77976
0
LINE
8
BLACK
6
CONTINUOUS
10
1.22458
20
1.77976
11
1.22835
21
1.78051
0
LINE
8
BLACK
6
CONTINUOUS
10
1.22835
20
1.78051
11
1.24803
21
1.78051
0
LINE
8
BLACK
6
CONTINUOUS
10
1.24803
20
1.78051
11
1.2518
21
1.77976
0
LINE
8
BLACK
6
CONTINUOUS
10
1.17699
20
1.77976
11
1.18019
21
1.77763
0
LINE
8
BLACK
6
CONTINUOUS
10
1.18019
20
1.77763
11
1.18232
21
1.77444
0
LINE
8
BLACK
6
CONTINUOUS
10
1.18232
20
1.77444
11
1.18307
21
1.77067
0
LINE
8
BLACK
6
CONTINUOUS
10
1.18307
20
1.77067
11
1.18307
21
1.73327
0
LINE
8
BLACK
6
CONTINUOUS
10
1.18307
20
1.73327
11
1.18232
21
1.7295
0
LINE
8
BLACK
6
CONTINUOUS
10
1.18232
20
1.7295
11
1.18019
21
1.72631
0
LINE
8
BLACK
6
CONTINUOUS
10
1.18019
20
1.72631
11
1.17699
21
1.72417
0
LINE
8
BLACK
6
CONTINUOUS
10
1.17699
20
1.72417
11
1.17323
21
1.72343
0
LINE
8
BLACK
6
CONTINUOUS
10
1.17323
20
1.72343
11
1.15354
21
1.72343
0
LINE
8
BLACK
6
CONTINUOUS
10
1.15354
20
1.72343
11
1.14978
21
1.72417
0
LINE
8
BLACK
6
CONTINUOUS
10
1.14978
20
1.72417
11
1.14658
21
1.72631
0
LINE
8
BLACK
6
CONTINUOUS
10
1.14658
20
1.72631
11
1.14445
21
1.7295
0
LINE
8
BLACK
6
CONTINUOUS
10
1.14445
20
1.7295
11
1.1437
21
1.73327
0
LINE
8
BLACK
6
CONTINUOUS
10
1.1437
20
1.73327
11
1.1437
21
1.77067
0
LINE
8
BLACK
6
CONTINUOUS
10
1.1437
20
1.77067
11
1.14445
21
1.77444
0
LINE
8
BLACK
6
CONTINUOUS
10
1.14445
20
1.77444
11
1.14658
21
1.77763
0
LINE
8
BLACK
6
CONTINUOUS
10
1.14658
20
1.77763
11
1.14978
21
1.77976
0
LINE
8
BLACK
6
CONTINUOUS
10
1.14978
20
1.77976
11
1.15354
21
1.78051
0
LINE
8
BLACK
6
CONTINUOUS
10
1.15354
20
1.78051
11
1.17323
21
1.78051
0
LINE
8
BLACK
6
CONTINUOUS
10
1.17323
20
1.78051
11
1.17699
21
1.77976
0
LINE
8
BLACK
6
CONTINUOUS
10
1.10416
20
1.77976
11
1.10735
21
1.77763
0
LINE
8
BLACK
6
CONTINUOUS
10
1.10735
20
1.77763
11
1.10949
21
1.77444
0
LINE
8
BLACK
6
CONTINUOUS
10
1.10949
20
1.77444
11
1.11024
21
1.77067
0
LINE
8
BLACK
6
CONTINUOUS
10
1.11024
20
1.77067
11
1.11024
21
1.73327
0
LINE
8
BLACK
6
CONTINUOUS
10
1.11024
20
1.73327
11
1.10949
21
1.7295
0
LINE
8
BLACK
6
CONTINUOUS
10
1.10949
20
1.7295
11
1.10735
21
1.72631
0
LINE
8
BLACK
6
CONTINUOUS
10
1.10735
20
1.72631
11
1.10416
21
1.72417
0
LINE
8
BLACK
6
CONTINUOUS
10
1.10416
20
1.72417
11
1.10039
21
1.72343
0
LINE
8
BLACK
6
CONTINUOUS
10
1.10039
20
1.72343
11
1.08071
21
1.72343
0
LINE
8
BLACK
6
CONTINUOUS
10
1.08071
20
1.72343
11
1.07694
21
1.72417
0
LINE
8
BLACK
6
CONTINUOUS
10
1.07694
20
1.72417
11
1.07375
21
1.72631
0
LINE
8
BLACK
6
CONTINUOUS
10
1.07375
20
1.72631
11
1.07162
21
1.7295
0
LINE
8
BLACK
6
CONTINUOUS
10
1.07162
20
1.7295
11
1.07087
21
1.73327
0
LINE
8
BLACK
6
CONTINUOUS
10
1.07087
20
1.73327
11
1.07087
21
1.77067
0
LINE
8
BLACK
6
CONTINUOUS
10
1.07087
20
1.77067
11
1.07162
21
1.77444
0
LINE
8
BLACK
6
CONTINUOUS
10
1.07162
20
1.77444
11
1.07375
21
1.77763
0
LINE
8
BLACK
6
CONTINUOUS
10
1.07375
20
1.77763
11
1.07694
21
1.77976
0
LINE
8
BLACK
6
CONTINUOUS
10
1.07694
20
1.77976
11
1.08071
21
1.78051
0
LINE
8
BLACK
6
CONTINUOUS
10
1.08071
20
1.78051
11
1.10039
21
1.78051
0
LINE
8
BLACK
6
CONTINUOUS
10
1.10039
20
1.78051
11
1.10416
21
1.77976
0
LINE
8
BLACK
6
CONTINUOUS
10
1.02936
20
1.77976
11
1.03255
21
1.77763
0
LINE
8
BLACK
6
CONTINUOUS
10
1.03255
20
1.77763
11
1.03468
21
1.77444
0
LINE
8
BLACK
6
CONTINUOUS
10
1.03468
20
1.77444
11
1.03543
21
1.77067
0
LINE
8
BLACK
6
CONTINUOUS
10
1.03543
20
1.77067
11
1.03543
21
1.73327
0
LINE
8
BLACK
6
CONTINUOUS
10
1.03543
20
1.73327
11
1.03468
21
1.7295
0
LINE
8
BLACK
6
CONTINUOUS
10
1.03468
20
1.7295
11
1.03255
21
1.72631
0
LINE
8
BLACK
6
CONTINUOUS
10
1.03255
20
1.72631
11
1.02936
21
1.72417
0
LINE
8
BLACK
6
CONTINUOUS
10
1.02936
20
1.72417
11
1.02559
21
1.72343
0
LINE
8
BLACK
6
CONTINUOUS
10
1.02559
20
1.72343
11
1.00591
21
1.72343
0
LINE
8
BLACK
6
CONTINUOUS
10
1.00591
20
1.72343
11
1.00214
21
1.72417
0
LINE
8
BLACK
6
CONTINUOUS
10
1.00214
20
1.72417
11
0.998946
21
1.72631
0
LINE
8
BLACK
6
CONTINUOUS
10
0.998946
20
1.72631
11
0.996812
21
1.7295
0
LINE
8
BLACK
6
CONTINUOUS
10
0.996812
20
1.7295
11
0.996063
21
1.73327
0
LINE
8
BLACK
6
CONTINUOUS
10
0.996063
20
1.73327
11
0.996063
21
1.77067
0
LINE
8
BLACK
6
CONTINUOUS
10
0.996063
20
1.77067
11
0.996812
21
1.77444
0
LINE
8
BLACK
6
CONTINUOUS
10
0.996812
20
1.77444
11
0.998946
21
1.77763
0
LINE
8
BLACK
6
CONTINUOUS
10
0.998946
20
1.77763
11
1.00214
21
1.77976
0
LINE
8
BLACK
6
CONTINUOUS
10
1.00214
20
1.77976
11
1.00591
21
1.78051
0
LINE
8
BLACK
6
CONTINUOUS
10
1.00591
20
1.78051
11
1.02559
21
1.78051
0
LINE
8
BLACK
6
CONTINUOUS
10
1.02559
20
1.78051
11
1.02936
21
1.77976
0
LINE
8
BLACK
6
CONTINUOUS
10
1.52557
20
1.83096
11
1.52869
21
1.82888
0
LINE
8
BLACK
6
CONTINUOUS
10
1.52869
20
1.82888
11
1.53077
21
1.82577
0
LINE
8
BLACK
6
CONTINUOUS
10
1.53077
20
1.82577
11
1.5315
21
1.8221
0
LINE
8
BLACK
6
CONTINUOUS
10
1.5315
20
1.8221
11
1.5315
21
1.8029
0
LINE
8
BLACK
6
CONTINUOUS
10
1.5315
20
1.8029
11
1.53077
21
1.79923
0
LINE
8
BLACK
6
CONTINUOUS
10
1.53077
20
1.79923
11
1.52869
21
1.79612
0
LINE
8
BLACK
6
CONTINUOUS
10
1.52869
20
1.79612
11
1.52557
21
1.79404
0
LINE
8
BLACK
6
CONTINUOUS
10
1.52557
20
1.79404
11
1.5219
21
1.79331
0
LINE
8
BLACK
6
CONTINUOUS
10
1.5219
20
1.79331
11
1.48597
21
1.79331
0
LINE
8
BLACK
6
CONTINUOUS
10
1.48597
20
1.79331
11
1.4823
21
1.79404
0
LINE
8
BLACK
6
CONTINUOUS
10
1.4823
20
1.79404
11
1.47919
21
1.79612
0
LINE
8
BLACK
6
CONTINUOUS
10
1.47919
20
1.79612
11
1.47711
21
1.79923
0
LINE
8
BLACK
6
CONTINUOUS
10
1.47711
20
1.79923
11
1.47638
21
1.8029
0
LINE
8
BLACK
6
CONTINUOUS
10
1.47638
20
1.8029
11
1.47638
21
1.8221
0
LINE
8
BLACK
6
CONTINUOUS
10
1.47638
20
1.8221
11
1.47711
21
1.82577
0
LINE
8
BLACK
6
CONTINUOUS
10
1.47711
20
1.82577
11
1.47919
21
1.82888
0
LINE
8
BLACK
6
CONTINUOUS
10
1.47919
20
1.82888
11
1.4823
21
1.83096
0
LINE
8
BLACK
6
CONTINUOUS
10
1.4823
20
1.83096
11
1.48597
21
1.83169
0
LINE
8
BLACK
6
CONTINUOUS
10
1.48597
20
1.83169
11
1.5219
21
1.83169
0
LINE
8
BLACK
6
CONTINUOUS
10
1.5219
20
1.83169
11
1.52557
21
1.83096
0
LINE
8
BLACK
6
CONTINUOUS
10
1.69486
20
1.83244
11
1.69798
21
1.83036
0
LINE
8
BLACK
6
CONTINUOUS
10
1.69798
20
1.83036
11
1.70006
21
1.82725
0
LINE
8
BLACK
6
CONTINUOUS
10
1.70006
20
1.82725
11
1.70079
21
1.82357
0
LINE
8
BLACK
6
CONTINUOUS
10
1.70079
20
1.82357
11
1.70079
21
1.80438
0
LINE
8
BLACK
6
CONTINUOUS
10
1.70079
20
1.80438
11
1.70006
21
1.80071
0
LINE
8
BLACK
6
CONTINUOUS
10
1.70006
20
1.80071
11
1.69798
21
1.79759
0
LINE
8
BLACK
6
CONTINUOUS
10
1.69798
20
1.79759
11
1.69486
21
1.79551
0
LINE
8
BLACK
6
CONTINUOUS
10
1.69486
20
1.79551
11
1.69119
21
1.79478
0
LINE
8
BLACK
6
CONTINUOUS
10
1.69119
20
1.79478
11
1.65527
21
1.79478
0
LINE
8
BLACK
6
CONTINUOUS
10
1.65527
20
1.79478
11
1.65159
21
1.79551
0
LINE
8
BLACK
6
CONTINUOUS
10
1.65159
20
1.79551
11
1.64848
21
1.79759
0
LINE
8
BLACK
6
CONTINUOUS
10
1.64848
20
1.79759
11
1.6464
21
1.80071
0
LINE
8
BLACK
6
CONTINUOUS
10
1.6464
20
1.80071
11
1.64567
21
1.80438
0
LINE
8
BLACK
6
CONTINUOUS
10
1.64567
20
1.80438
11
1.64567
21
1.82357
0
LINE
8
BLACK
6
CONTINUOUS
10
1.64567
20
1.82357
11
1.6464
21
1.82725
0
LINE
8
BLACK
6
CONTINUOUS
10
1.6464
20
1.82725
11
1.64848
21
1.83036
0
LINE
8
BLACK
6
CONTINUOUS
10
1.64848
20
1.83036
11
1.65159
21
1.83244
0
LINE
8
BLACK
6
CONTINUOUS
10
1.65159
20
1.83244
11
1.65527
21
1.83317
0
LINE
8
BLACK
6
CONTINUOUS
10
1.65527
20
1.83317
11
1.69119
21
1.83317
0
LINE
8
BLACK
6
CONTINUOUS
10
1.69119
20
1.83317
11
1.69486
21
1.83244
0
LINE
8
BLACK
6
CONTINUOUS
10
0.966517
20
1.85754
11
0.96963
21
1.85546
0
LINE
8
BLACK
6
CONTINUOUS
10
0.96963
20
1.85546
11
0.97171
21
1.85234
0
LINE
8
BLACK
6
CONTINUOUS
10
0.97171
20
1.85234
11
0.972441
21
1.84867
0
LINE
8
BLACK
6
CONTINUOUS
10
0.972441
20
1.84867
11
0.972441
21
1.82948
0
LINE
8
BLACK
6
CONTINUOUS
10
0.972441
20
1.82948
11
0.97171
21
1.82581
0
LINE
8
BLACK
6
CONTINUOUS
10
0.97171
20
1.82581
11
0.96963
21
1.82269
0
LINE
8
BLACK
6
CONTINUOUS
10
0.96963
20
1.82269
11
0.966517
21
1.82061
0
LINE
8
BLACK
6
CONTINUOUS
10
0.966517
20
1.82061
11
0.962844
21
1.81988
0
LINE
8
BLACK
6
CONTINUOUS
10
0.962844
20
1.81988
11
0.926919
21
1.81988
0
LINE
8
BLACK
6
CONTINUOUS
10
0.926919
20
1.81988
11
0.923247
21
1.82061
0
LINE
8
BLACK
6
CONTINUOUS
10
0.923247
20
1.82061
11
0.920134
21
1.82269
0
LINE
8
BLACK
6
CONTINUOUS
10
0.920134
20
1.82269
11
0.918053
21
1.82581
0
LINE
8
BLACK
6
CONTINUOUS
10
0.918053
20
1.82581
11
0.917323
21
1.82948
0
LINE
8
BLACK
6
CONTINUOUS
10
0.917323
20
1.82948
11
0.917323
21
1.84867
0
LINE
8
BLACK
6
CONTINUOUS
10
0.917323
20
1.84867
11
0.918053
21
1.85234
0
LINE
8
BLACK
6
CONTINUOUS
10
0.918053
20
1.85234
11
0.920134
21
1.85546
0
LINE
8
BLACK
6
CONTINUOUS
10
0.920134
20
1.85546
11
0.923247
21
1.85754
0
LINE
8
BLACK
6
CONTINUOUS
10
0.923247
20
1.85754
11
0.926919
21
1.85827
0
LINE
8
BLACK
6
CONTINUOUS
10
0.926919
20
1.85827
11
0.962844
21
1.85827
0
LINE
8
BLACK
6
CONTINUOUS
10
0.962844
20
1.85827
11
0.966517
21
1.85754
0
LINE
8
BLACK
6
CONTINUOUS
10
0.714548
20
1.85754
11
0.717662
21
1.85546
0
LINE
8
BLACK
6
CONTINUOUS
10
0.717662
20
1.85546
11
0.719742
21
1.85234
0
LINE
8
BLACK
6
CONTINUOUS
10
0.719742
20
1.85234
11
0.720472
21
1.84867
0
LINE
8
BLACK
6
CONTINUOUS
10
0.720472
20
1.84867
11
0.720472
21
1.82948
0
LINE
8
BLACK
6
CONTINUOUS
10
0.720472
20
1.82948
11
0.719742
21
1.82581
0
LINE
8
BLACK
6
CONTINUOUS
10
0.719742
20
1.82581
11
0.717662
21
1.82269
0
LINE
8
BLACK
6
CONTINUOUS
10
0.717662
20
1.82269
11
0.714548
21
1.82061
0
LINE
8
BLACK
6
CONTINUOUS
10
0.714548
20
1.82061
11
0.710876
21
1.81988
0
LINE
8
BLACK
6
CONTINUOUS
10
0.710876
20
1.81988
11
0.674951
21
1.81988
0
LINE
8
BLACK
6
CONTINUOUS
10
0.674951
20
1.81988
11
0.671278
21
1.82061
0
LINE
8
BLACK
6
CONTINUOUS
10
0.671278
20
1.82061
11
0.668165
21
1.82269
0
LINE
8
BLACK
6
CONTINUOUS
10
0.668165
20
1.82269
11
0.666085
21
1.82581
0
LINE
8
BLACK
6
CONTINUOUS
10
0.666085
20
1.82581
11
0.665354
21
1.82948
0
LINE
8
BLACK
6
CONTINUOUS
10
0.665354
20
1.82948
11
0.665354
21
1.84867
0
LINE
8
BLACK
6
CONTINUOUS
10
0.665354
20
1.84867
11
0.666085
21
1.85234
0
LINE
8
BLACK
6
CONTINUOUS
10
0.666085
20
1.85234
11
0.668165
21
1.85546
0
LINE
8
BLACK
6
CONTINUOUS
10
0.668165
20
1.85546
11
0.671278
21
1.85754
0
LINE
8
BLACK
6
CONTINUOUS
10
0.671278
20
1.85754
11
0.674951
21
1.85827
0
LINE
8
BLACK
6
CONTINUOUS
10
0.674951
20
1.85827
11
0.710876
21
1.85827
0
LINE
8
BLACK
6
CONTINUOUS
10
0.710876
20
1.85827
11
0.714548
21
1.85754
0
LINE
8
BLACK
6
CONTINUOUS
10
1.17124
20
1.85803
11
1.17435
21
1.85595
0
LINE
8
BLACK
6
CONTINUOUS
10
1.17435
20
1.85595
11
1.17643
21
1.85284
0
LINE
8
BLACK
6
CONTINUOUS
10
1.17643
20
1.85284
11
1.17717
21
1.84916
0
LINE
8
BLACK
6
CONTINUOUS
10
1.17717
20
1.84916
11
1.17717
21
1.82997
0
LINE
8
BLACK
6
CONTINUOUS
10
1.17717
20
1.82997
11
1.17643
21
1.8263
0
LINE
8
BLACK
6
CONTINUOUS
10
1.17643
20
1.8263
11
1.17435
21
1.82318
0
LINE
8
BLACK
6
CONTINUOUS
10
1.17435
20
1.82318
11
1.17124
21
1.8211
0
LINE
8
BLACK
6
CONTINUOUS
10
1.17124
20
1.8211
11
1.16757
21
1.82037
0
LINE
8
BLACK
6
CONTINUOUS
10
1.16757
20
1.82037
11
1.13164
21
1.82037
0
LINE
8
BLACK
6
CONTINUOUS
10
1.13164
20
1.82037
11
1.12797
21
1.8211
0
LINE
8
BLACK
6
CONTINUOUS
10
1.12797
20
1.8211
11
1.12486
21
1.82318
0
LINE
8
BLACK
6
CONTINUOUS
10
1.12486
20
1.82318
11
1.12278
21
1.8263
0
LINE
8
BLACK
6
CONTINUOUS
10
1.12278
20
1.8263
11
1.12205
21
1.82997
0
LINE
8
BLACK
6
CONTINUOUS
10
1.12205
20
1.82997
11
1.12205
21
1.84916
0
LINE
8
BLACK
6
CONTINUOUS
10
1.12205
20
1.84916
11
1.12278
21
1.85284
0
LINE
8
BLACK
6
CONTINUOUS
10
1.12278
20
1.85284
11
1.12486
21
1.85595
0
LINE
8
BLACK
6
CONTINUOUS
10
1.12486
20
1.85595
11
1.12797
21
1.85803
0
LINE
8
BLACK
6
CONTINUOUS
10
1.12797
20
1.85803
11
1.13164
21
1.85876
0
LINE
8
BLACK
6
CONTINUOUS
10
1.13164
20
1.85876
11
1.16757
21
1.85876
0
LINE
8
BLACK
6
CONTINUOUS
10
1.16757
20
1.85876
11
1.17124
21
1.85803
0
LINE
8
BLACK
6
CONTINUOUS
10
0.366123
20
1.87132
11
0.369236
21
1.86924
0
LINE
8
BLACK
6
CONTINUOUS
10
0.369236
20
1.86924
11
0.371317
21
1.86612
0
LINE
8
BLACK
6
CONTINUOUS
10
0.371317
20
1.86612
11
0.372047
21
1.86245
0
LINE
8
BLACK
6
CONTINUOUS
10
0.372047
20
1.86245
11
0.372047
21
1.84326
0
LINE
8
BLACK
6
CONTINUOUS
10
0.372047
20
1.84326
11
0.371317
21
1.83959
0
LINE
8
BLACK
6
CONTINUOUS
10
0.371317
20
1.83959
11
0.369236
21
1.83647
0
LINE
8
BLACK
6
CONTINUOUS
10
0.369236
20
1.83647
11
0.366123
21
1.83439
0
LINE
8
BLACK
6
CONTINUOUS
10
0.366123
20
1.83439
11
0.362451
21
1.83366
0
LINE
8
BLACK
6
CONTINUOUS
10
0.362451
20
1.83366
11
0.326526
21
1.83366
0
LINE
8
BLACK
6
CONTINUOUS
10
0.326526
20
1.83366
11
0.322853
21
1.83439
0
LINE
8
BLACK
6
CONTINUOUS
10
0.322853
20
1.83439
11
0.31974
21
1.83647
0
LINE
8
BLACK
6
CONTINUOUS
10
0.31974
20
1.83647
11
0.31766
21
1.83959
0
LINE
8
BLACK
6
CONTINUOUS
10
0.31766
20
1.83959
11
0.316929
21
1.84326
0
LINE
8
BLACK
6
CONTINUOUS
10
0.316929
20
1.84326
11
0.316929
21
1.86245
0
LINE
8
BLACK
6
CONTINUOUS
10
0.316929
20
1.86245
11
0.31766
21
1.86612
0
LINE
8
BLACK
6
CONTINUOUS
10
0.31766
20
1.86612
11
0.31974
21
1.86924
0
LINE
8
BLACK
6
CONTINUOUS
10
0.31974
20
1.86924
11
0.322853
21
1.87132
0
LINE
8
BLACK
6
CONTINUOUS
10
0.322853
20
1.87132
11
0.326526
21
1.87205
0
LINE
8
BLACK
6
CONTINUOUS
10
0.326526
20
1.87205
11
0.362451
21
1.87205
0
LINE
8
BLACK
6
CONTINUOUS
10
0.362451
20
1.87205
11
0.366123
21
1.87132
0
LINE
8
BLACK
6
CONTINUOUS
10
0.470454
20
1.87132
11
0.473567
21
1.86924
0
LINE
8
BLACK
6
CONTINUOUS
10
0.473567
20
1.86924
11
0.475647
21
1.86612
0
LINE
8
BLACK
6
CONTINUOUS
10
0.475647
20
1.86612
11
0.476378
21
1.86245
0
LINE
8
BLACK
6
CONTINUOUS
10
0.476378
20
1.86245
11
0.476378
21
1.84326
0
LINE
8
BLACK
6
CONTINUOUS
10
0.476378
20
1.84326
11
0.475647
21
1.83959
0
LINE
8
BLACK
6
CONTINUOUS
10
0.475647
20
1.83959
11
0.473567
21
1.83647
0
LINE
8
BLACK
6
CONTINUOUS
10
0.473567
20
1.83647
11
0.470454
21
1.83439
0
LINE
8
BLACK
6
CONTINUOUS
10
0.470454
20
1.83439
11
0.466781
21
1.83366
0
LINE
8
BLACK
6
CONTINUOUS
10
0.466781
20
1.83366
11
0.430856
21
1.83366
0
LINE
8
BLACK
6
CONTINUOUS
10
0.430856
20
1.83366
11
0.427184
21
1.83439
0
LINE
8
BLACK
6
CONTINUOUS
10
0.427184
20
1.83439
11
0.424071
21
1.83647
0
LINE
8
BLACK
6
CONTINUOUS
10
0.424071
20
1.83647
11
0.42199
21
1.83959
0
LINE
8
BLACK
6
CONTINUOUS
10
0.42199
20
1.83959
11
0.42126
21
1.84326
0
LINE
8
BLACK
6
CONTINUOUS
10
0.42126
20
1.84326
11
0.42126
21
1.86245
0
LINE
8
BLACK
6
CONTINUOUS
10
0.42126
20
1.86245
11
0.42199
21
1.86612
0
LINE
8
BLACK
6
CONTINUOUS
10
0.42199
20
1.86612
11
0.424071
21
1.86924
0
LINE
8
BLACK
6
CONTINUOUS
10
0.424071
20
1.86924
11
0.427184
21
1.87132
0
LINE
8
BLACK
6
CONTINUOUS
10
0.427184
20
1.87132
11
0.430856
21
1.87205
0
LINE
8
BLACK
6
CONTINUOUS
10
0.430856
20
1.87205
11
0.466781
21
1.87205
0
LINE
8
BLACK
6
CONTINUOUS
10
0.466781
20
1.87205
11
0.470454
21
1.87132
0
LINE
8
BLACK
6
CONTINUOUS
10
0.714548
20
1.93136
11
0.717662
21
1.92928
0
LINE
8
BLACK
6
CONTINUOUS
10
0.717662
20
1.92928
11
0.719742
21
1.92616
0
LINE
8
BLACK
6
CONTINUOUS
10
0.719742
20
1.92616
11
0.720472
21
1.92249
0
LINE
8
BLACK
6
CONTINUOUS
10
0.720472
20
1.92249
11
0.720472
21
1.9033
0
LINE
8
BLACK
6
CONTINUOUS
10
0.720472
20
1.9033
11
0.719742
21
1.89962
0
LINE
8
BLACK
6
CONTINUOUS
10
0.719742
20
1.89962
11
0.717662
21
1.89651
0
LINE
8
BLACK
6
CONTINUOUS
10
0.717662
20
1.89651
11
0.714548
21
1.89443
0
LINE
8
BLACK
6
CONTINUOUS
10
0.714548
20
1.89443
11
0.710876
21
1.8937
0
LINE
8
BLACK
6
CONTINUOUS
10
0.710876
20
1.8937
11
0.674951
21
1.8937
0
LINE
8
BLACK
6
CONTINUOUS
10
0.674951
20
1.8937
11
0.671278
21
1.89443
0
LINE
8
BLACK
6
CONTINUOUS
10
0.671278
20
1.89443
11
0.668165
21
1.89651
0
LINE
8
BLACK
6
CONTINUOUS
10
0.668165
20
1.89651
11
0.666085
21
1.89962
0
LINE
8
BLACK
6
CONTINUOUS
10
0.666085
20
1.89962
11
0.665354
21
1.9033
0
LINE
8
BLACK
6
CONTINUOUS
10
0.665354
20
1.9033
11
0.665354
21
1.92249
0
LINE
8
BLACK
6
CONTINUOUS
10
0.665354
20
1.92249
11
0.666085
21
1.92616
0
LINE
8
BLACK
6
CONTINUOUS
10
0.666085
20
1.92616
11
0.668165
21
1.92928
0
LINE
8
BLACK
6
CONTINUOUS
10
0.668165
20
1.92928
11
0.671278
21
1.93136
0
LINE
8
BLACK
6
CONTINUOUS
10
0.671278
20
1.93136
11
0.674951
21
1.93209
0
LINE
8
BLACK
6
CONTINUOUS
10
0.674951
20
1.93209
11
0.710876
21
1.93209
0
LINE
8
BLACK
6
CONTINUOUS
10
0.710876
20
1.93209
11
0.714548
21
1.93136
0
LINE
8
BLACK
6
CONTINUOUS
10
0.966517
20
1.93136
11
0.96963
21
1.92928
0
LINE
8
BLACK
6
CONTINUOUS
10
0.96963
20
1.92928
11
0.97171
21
1.92616
0
LINE
8
BLACK
6
CONTINUOUS
10
0.97171
20
1.92616
11
0.972441
21
1.92249
0
LINE
8
BLACK
6
CONTINUOUS
10
0.972441
20
1.92249
11
0.972441
21
1.9033
0
LINE
8
BLACK
6
CONTINUOUS
10
0.972441
20
1.9033
11
0.97171
21
1.89962
0
LINE
8
BLACK
6
CONTINUOUS
10
0.97171
20
1.89962
11
0.96963
21
1.89651
0
LINE
8
BLACK
6
CONTINUOUS
10
0.96963
20
1.89651
11
0.966517
21
1.89443
0
LINE
8
BLACK
6
CONTINUOUS
10
0.966517
20
1.89443
11
0.962844
21
1.8937
0
LINE
8
BLACK
6
CONTINUOUS
10
0.962844
20
1.8937
11
0.926919
21
1.8937
0
LINE
8
BLACK
6
CONTINUOUS
10
0.926919
20
1.8937
11
0.923247
21
1.89443
0
LINE
8
BLACK
6
CONTINUOUS
10
0.923247
20
1.89443
11
0.920134
21
1.89651
0
LINE
8
BLACK
6
CONTINUOUS
10
0.920134
20
1.89651
11
0.918053
21
1.89962
0
LINE
8
BLACK
6
CONTINUOUS
10
0.918053
20
1.89962
11
0.917323
21
1.9033
0
LINE
8
BLACK
6
CONTINUOUS
10
0.917323
20
1.9033
11
0.917323
21
1.92249
0
LINE
8
BLACK
6
CONTINUOUS
10
0.917323
20
1.92249
11
0.918053
21
1.92616
0
LINE
8
BLACK
6
CONTINUOUS
10
0.918053
20
1.92616
11
0.920134
21
1.92928
0
LINE
8
BLACK
6
CONTINUOUS
10
0.920134
20
1.92928
11
0.923247
21
1.93136
0
LINE
8
BLACK
6
CONTINUOUS
10
0.923247
20
1.93136
11
0.926919
21
1.93209
0
LINE
8
BLACK
6
CONTINUOUS
10
0.926919
20
1.93209
11
0.962844
21
1.93209
0
LINE
8
BLACK
6
CONTINUOUS
10
0.962844
20
1.93209
11
0.966517
21
1.93136
0
LINE
8
BLACK
6
CONTINUOUS
10
1.17124
20
1.93185
11
1.17435
21
1.92977
0
LINE
8
BLACK
6
CONTINUOUS
10
1.17435
20
1.92977
11
1.17643
21
1.92665
0
LINE
8
BLACK
6
CONTINUOUS
10
1.17643
20
1.92665
11
1.17717
21
1.92298
0
LINE
8
BLACK
6
CONTINUOUS
10
1.17717
20
1.92298
11
1.17717
21
1.90379
0
LINE
8
BLACK
6
CONTINUOUS
10
1.17717
20
1.90379
11
1.17643
21
1.90012
0
LINE
8
BLACK
6
CONTINUOUS
10
1.17643
20
1.90012
11
1.17435
21
1.897
0
LINE
8
BLACK
6
CONTINUOUS
10
1.17435
20
1.897
11
1.17124
21
1.89492
0
LINE
8
BLACK
6
CONTINUOUS
10
1.17124
20
1.89492
11
1.16757
21
1.89419
0
LINE
8
BLACK
6
CONTINUOUS
10
1.16757
20
1.89419
11
1.13164
21
1.89419
0
LINE
8
BLACK
6
CONTINUOUS
10
1.13164
20
1.89419
11
1.12797
21
1.89492
0
LINE
8
BLACK
6
CONTINUOUS
10
1.12797
20
1.89492
11
1.12486
21
1.897
0
LINE
8
BLACK
6
CONTINUOUS
10
1.12486
20
1.897
11
1.12278
21
1.90012
0
LINE
8
BLACK
6
CONTINUOUS
10
1.12278
20
1.90012
11
1.12205
21
1.90379
0
LINE
8
BLACK
6
CONTINUOUS
10
1.12205
20
1.90379
11
1.12205
21
1.92298
0
LINE
8
BLACK
6
CONTINUOUS
10
1.12205
20
1.92298
11
1.12278
21
1.92665
0
LINE
8
BLACK
6
CONTINUOUS
10
1.12278
20
1.92665
11
1.12486
21
1.92977
0
LINE
8
BLACK
6
CONTINUOUS
10
1.12486
20
1.92977
11
1.12797
21
1.93185
0
LINE
8
BLACK
6
CONTINUOUS
10
1.12797
20
1.93185
11
1.13164
21
1.93258
0
LINE
8
BLACK
6
CONTINUOUS
10
1.13164
20
1.93258
11
1.16757
21
1.93258
0
LINE
8
BLACK
6
CONTINUOUS
10
1.16757
20
1.93258
11
1.17124
21
1.93185
0
LINE
8
BLACK
6
CONTINUOUS
10
0.470454
20
1.94514
11
0.473567
21
1.94306
0
LINE
8
BLACK
6
CONTINUOUS
10
0.473567
20
1.94306
11
0.475647
21
1.93994
0
LINE
8
BLACK
6
CONTINUOUS
10
0.475647
20
1.93994
11
0.476378
21
1.93627
0
LINE
8
BLACK
6
CONTINUOUS
10
0.476378
20
1.93627
11
0.476378
21
1.91708
0
LINE
8
BLACK
6
CONTINUOUS
10
0.476378
20
1.91708
11
0.475647
21
1.9134
0
LINE
8
BLACK
6
CONTINUOUS
10
0.475647
20
1.9134
11
0.473567
21
1.91029
0
LINE
8
BLACK
6
CONTINUOUS
10
0.473567
20
1.91029
11
0.470454
21
1.90821
0
LINE
8
BLACK
6
CONTINUOUS
10
0.470454
20
1.90821
11
0.466781
21
1.90748
0
LINE
8
BLACK
6
CONTINUOUS
10
0.466781
20
1.90748
11
0.430856
21
1.90748
0
LINE
8
BLACK
6
CONTINUOUS
10
0.430856
20
1.90748
11
0.427184
21
1.90821
0
LINE
8
BLACK
6
CONTINUOUS
10
0.427184
20
1.90821
11
0.424071
21
1.91029
0
LINE
8
BLACK
6
CONTINUOUS
10
0.424071
20
1.91029
11
0.42199
21
1.9134
0
LINE
8
BLACK
6
CONTINUOUS
10
0.42199
20
1.9134
11
0.42126
21
1.91708
0
LINE
8
BLACK
6
CONTINUOUS
10
0.42126
20
1.91708
11
0.42126
21
1.93627
0
LINE
8
BLACK
6
CONTINUOUS
10
0.42126
20
1.93627
11
0.42199
21
1.93994
0
LINE
8
BLACK
6
CONTINUOUS
10
0.42199
20
1.93994
11
0.424071
21
1.94306
0
LINE
8
BLACK
6
CONTINUOUS
10
0.424071
20
1.94306
11
0.427184
21
1.94514
0
LINE
8
BLACK
6
CONTINUOUS
10
0.427184
20
1.94514
11
0.430856
21
1.94587
0
LINE
8
BLACK
6
CONTINUOUS
10
0.430856
20
1.94587
11
0.466781
21
1.94587
0
LINE
8
BLACK
6
CONTINUOUS
10
0.466781
20
1.94587
11
0.470454
21
1.94514
0
LINE
8
BLACK
6
CONTINUOUS
10
0.366123
20
1.94514
11
0.369236
21
1.94306
0
LINE
8
BLACK
6
CONTINUOUS
10
0.369236
20
1.94306
11
0.371317
21
1.93994
0
LINE
8
BLACK
6
CONTINUOUS
10
0.371317
20
1.93994
11
0.372047
21
1.93627
0
LINE
8
BLACK
6
CONTINUOUS
10
0.372047
20
1.93627
11
0.372047
21
1.91708
0
LINE
8
BLACK
6
CONTINUOUS
10
0.372047
20
1.91708
11
0.371317
21
1.9134
0
LINE
8
BLACK
6
CONTINUOUS
10
0.371317
20
1.9134
11
0.369236
21
1.91029
0
LINE
8
BLACK
6
CONTINUOUS
10
0.369236
20
1.91029
11
0.366123
21
1.90821
0
LINE
8
BLACK
6
CONTINUOUS
10
0.366123
20
1.90821
11
0.362451
21
1.90748
0
LINE
8
BLACK
6
CONTINUOUS
10
0.362451
20
1.90748
11
0.326526
21
1.90748
0
LINE
8
BLACK
6
CONTINUOUS
10
0.326526
20
1.90748
11
0.322853
21
1.90821
0
LINE
8
BLACK
6
CONTINUOUS
10
0.322853
20
1.90821
11
0.31974
21
1.91029
0
LINE
8
BLACK
6
CONTINUOUS
10
0.31974
20
1.91029
11
0.31766
21
1.9134
0
LINE
8
BLACK
6
CONTINUOUS
10
0.31766
20
1.9134
11
0.316929
21
1.91708
0
LINE
8
BLACK
6
CONTINUOUS
10
0.316929
20
1.91708
11
0.316929
21
1.93627
0
LINE
8
BLACK
6
CONTINUOUS
10
0.316929
20
1.93627
11
0.31766
21
1.93994
0
LINE
8
BLACK
6
CONTINUOUS
10
0.31766
20
1.93994
11
0.31974
21
1.94306
0
LINE
8
BLACK
6
CONTINUOUS
10
0.31974
20
1.94306
11
0.322853
21
1.94514
0
LINE
8
BLACK
6
CONTINUOUS
10
0.322853
20
1.94514
11
0.326526
21
1.94587
0
LINE
8
BLACK
6
CONTINUOUS
10
0.326526
20
1.94587
11
0.362451
21
1.94587
0
LINE
8
BLACK
6
CONTINUOUS
10
0.362451
20
1.94587
11
0.366123
21
1.94514
0
LINE
8
BLACK
6
CONTINUOUS
10
1.20259
20
2.1213
11
1.20578
21
2.11916
0
LINE
8
BLACK
6
CONTINUOUS
10
1.20578
20
2.11916
11
1.20791
21
2.11597
0
LINE
8
BLACK
6
CONTINUOUS
10
1.20791
20
2.11597
11
1.20866
21
2.1122
0
LINE
8
BLACK
6
CONTINUOUS
10
1.20866
20
2.1122
11
1.20866
21
2.09154
0
LINE
8
BLACK
6
CONTINUOUS
10
1.20866
20
2.09154
11
1.20791
21
2.08777
0
LINE
8
BLACK
6
CONTINUOUS
10
1.20791
20
2.08777
11
1.20578
21
2.08458
0
LINE
8
BLACK
6
CONTINUOUS
10
1.20578
20
2.08458
11
1.20259
21
2.08244
0
LINE
8
BLACK
6
CONTINUOUS
10
1.20259
20
2.08244
11
1.19882
21
2.08169
0
LINE
8
BLACK
6
CONTINUOUS
10
1.19882
20
2.08169
11
1.16339
21
2.08169
0
LINE
8
BLACK
6
CONTINUOUS
10
1.16339
20
2.08169
11
1.15962
21
2.08244
0
LINE
8
BLACK
6
CONTINUOUS
10
1.15962
20
2.08244
11
1.15643
21
2.08458
0
LINE
8
BLACK
6
CONTINUOUS
10
1.15643
20
2.08458
11
1.15429
21
2.08777
0
LINE
8
BLACK
6
CONTINUOUS
10
1.15429
20
2.08777
11
1.15354
21
2.09154
0
LINE
8
BLACK
6
CONTINUOUS
10
1.15354
20
2.09154
11
1.15354
21
2.1122
0
LINE
8
BLACK
6
CONTINUOUS
10
1.15354
20
2.1122
11
1.15429
21
2.11597
0
LINE
8
BLACK
6
CONTINUOUS
10
1.15429
20
2.11597
11
1.15643
21
2.11916
0
LINE
8
BLACK
6
CONTINUOUS
10
1.15643
20
2.11916
11
1.15962
21
2.1213
0
LINE
8
BLACK
6
CONTINUOUS
10
1.15962
20
2.1213
11
1.16339
21
2.12205
0
LINE
8
BLACK
6
CONTINUOUS
10
1.16339
20
2.12205
11
1.19882
21
2.12205
0
LINE
8
BLACK
6
CONTINUOUS
10
1.19882
20
2.12205
11
1.20259
21
2.1213
0
LINE
8
BLACK
6
CONTINUOUS
10
1.28526
20
2.1213
11
1.28846
21
2.11916
0
LINE
8
BLACK
6
CONTINUOUS
10
1.28846
20
2.11916
11
1.29059
21
2.11597
0
LINE
8
BLACK
6
CONTINUOUS
10
1.29059
20
2.11597
11
1.29134
21
2.1122
0
LINE
8
BLACK
6
CONTINUOUS
10
1.29134
20
2.1122
11
1.29134
21
2.09154
0
LINE
8
BLACK
6
CONTINUOUS
10
1.29134
20
2.09154
11
1.29059
21
2.08777
0
LINE
8
BLACK
6
CONTINUOUS
10
1.29059
20
2.08777
11
1.28846
21
2.08458
0
LINE
8
BLACK
6
CONTINUOUS
10
1.28846
20
2.08458
11
1.28526
21
2.08244
0
LINE
8
BLACK
6
CONTINUOUS
10
1.28526
20
2.08244
11
1.2815
21
2.08169
0
LINE
8
BLACK
6
CONTINUOUS
10
1.2815
20
2.08169
11
1.24606
21
2.08169
0
LINE
8
BLACK
6
CONTINUOUS
10
1.24606
20
2.08169
11
1.2423
21
2.08244
0
LINE
8
BLACK
6
CONTINUOUS
10
1.2423
20
2.08244
11
1.2391
21
2.08458
0
LINE
8
BLACK
6
CONTINUOUS
10
1.2391
20
2.08458
11
1.23697
21
2.08777
0
LINE
8
BLACK
6
CONTINUOUS
10
1.23697
20
2.08777
11
1.23622
21
2.09154
0
LINE
8
BLACK
6
CONTINUOUS
10
1.23622
20
2.09154
11
1.23622
21
2.1122
0
LINE
8
BLACK
6
CONTINUOUS
10
1.23622
20
2.1122
11
1.23697
21
2.11597
0
LINE
8
BLACK
6
CONTINUOUS
10
1.23697
20
2.11597
11
1.2391
21
2.11916
0
LINE
8
BLACK
6
CONTINUOUS
10
1.2391
20
2.11916
11
1.2423
21
2.1213
0
LINE
8
BLACK
6
CONTINUOUS
10
1.2423
20
2.1213
11
1.24606
21
2.12205
0
LINE
8
BLACK
6
CONTINUOUS
10
1.24606
20
2.12205
11
1.2815
21
2.12205
0
LINE
8
BLACK
6
CONTINUOUS
10
1.2815
20
2.12205
11
1.28526
21
2.1213
0
LINE
8
BLACK
6
CONTINUOUS
10
1.78246
20
2.16462
11
1.78558
21
2.16254
0
LINE
8
BLACK
6
CONTINUOUS
10
1.78558
20
2.16254
11
1.78766
21
2.15943
0
LINE
8
BLACK
6
CONTINUOUS
10
1.78766
20
2.15943
11
1.78839
21
2.15576
0
LINE
8
BLACK
6
CONTINUOUS
10
1.78839
20
2.15576
11
1.78839
21
2.11983
0
LINE
8
BLACK
6
CONTINUOUS
10
1.78839
20
2.11983
11
1.78766
21
2.11616
0
LINE
8
BLACK
6
CONTINUOUS
10
1.78766
20
2.11616
11
1.78558
21
2.11305
0
LINE
8
BLACK
6
CONTINUOUS
10
1.78558
20
2.11305
11
1.78246
21
2.11097
0
LINE
8
BLACK
6
CONTINUOUS
10
1.78246
20
2.11097
11
1.77879
21
2.11024
0
LINE
8
BLACK
6
CONTINUOUS
10
1.77879
20
2.11024
11
1.7596
21
2.11024
0
LINE
8
BLACK
6
CONTINUOUS
10
1.7596
20
2.11024
11
1.75592
21
2.11097
0
LINE
8
BLACK
6
CONTINUOUS
10
1.75592
20
2.11097
11
1.75281
21
2.11305
0
LINE
8
BLACK
6
CONTINUOUS
10
1.75281
20
2.11305
11
1.75073
21
2.11616
0
LINE
8
BLACK
6
CONTINUOUS
10
1.75073
20
2.11616
11
1.75
21
2.11983
0
LINE
8
BLACK
6
CONTINUOUS
10
1.75
20
2.11983
11
1.75
21
2.15576
0
LINE
8
BLACK
6
CONTINUOUS
10
1.75
20
2.15576
11
1.75073
21
2.15943
0
LINE
8
BLACK
6
CONTINUOUS
10
1.75073
20
2.15943
11
1.75281
21
2.16254
0
LINE
8
BLACK
6
CONTINUOUS
10
1.75281
20
2.16254
11
1.75592
21
2.16462
0
LINE
8
BLACK
6
CONTINUOUS
10
1.75592
20
2.16462
11
1.7596
21
2.16535
0
LINE
8
BLACK
6
CONTINUOUS
10
1.7596
20
2.16535
11
1.77879
21
2.16535
0
LINE
8
BLACK
6
CONTINUOUS
10
1.77879
20
2.16535
11
1.78246
21
2.16462
0
LINE
8
BLACK
6
CONTINUOUS
10
1.70864
20
2.16462
11
1.71176
21
2.16254
0
LINE
8
BLACK
6
CONTINUOUS
10
1.71176
20
2.16254
11
1.71384
21
2.15943
0
LINE
8
BLACK
6
CONTINUOUS
10
1.71384
20
2.15943
11
1.71457
21
2.15576
0
LINE
8
BLACK
6
CONTINUOUS
10
1.71457
20
2.15576
11
1.71457
21
2.11983
0
LINE
8
BLACK
6
CONTINUOUS
10
1.71457
20
2.11983
11
1.71384
21
2.11616
0
LINE
8
BLACK
6
CONTINUOUS
10
1.71384
20
2.11616
11
1.71176
21
2.11305
0
LINE
8
BLACK
6
CONTINUOUS
10
1.71176
20
2.11305
11
1.70864
21
2.11097
0
LINE
8
BLACK
6
CONTINUOUS
10
1.70864
20
2.11097
11
1.70497
21
2.11024
0
LINE
8
BLACK
6
CONTINUOUS
10
1.70497
20
2.11024
11
1.68578
21
2.11024
0
LINE
8
BLACK
6
CONTINUOUS
10
1.68578
20
2.11024
11
1.68211
21
2.11097
0
LINE
8
BLACK
6
CONTINUOUS
10
1.68211
20
2.11097
11
1.67899
21
2.11305
0
LINE
8
BLACK
6
CONTINUOUS
10
1.67899
20
2.11305
11
1.67691
21
2.11616
0
LINE
8
BLACK
6
CONTINUOUS
10
1.67691
20
2.11616
11
1.67618
21
2.11983
0
LINE
8
BLACK
6
CONTINUOUS
10
1.67618
20
2.11983
11
1.67618
21
2.15576
0
LINE
8
BLACK
6
CONTINUOUS
10
1.67618
20
2.15576
11
1.67691
21
2.15943
0
LINE
8
BLACK
6
CONTINUOUS
10
1.67691
20
2.15943
11
1.67899
21
2.16254
0
LINE
8
BLACK
6
CONTINUOUS
10
1.67899
20
2.16254
11
1.68211
21
2.16462
0
LINE
8
BLACK
6
CONTINUOUS
10
1.68211
20
2.16462
11
1.68578
21
2.16535
0
LINE
8
BLACK
6
CONTINUOUS
10
1.68578
20
2.16535
11
1.70497
21
2.16535
0
LINE
8
BLACK
6
CONTINUOUS
10
1.70497
20
2.16535
11
1.70864
21
2.16462
0
LINE
8
BLACK
6
CONTINUOUS
10
1.98999
20
2.16067
11
1.99318
21
2.15853
0
LINE
8
BLACK
6
CONTINUOUS
10
1.99318
20
2.15853
11
1.99531
21
2.15534
0
LINE
8
BLACK
6
CONTINUOUS
10
1.99531
20
2.15534
11
1.99606
21
2.15157
0
LINE
8
BLACK
6
CONTINUOUS
10
1.99606
20
2.15157
11
1.99606
21
2.13091
0
LINE
8
BLACK
6
CONTINUOUS
10
1.99606
20
2.13091
11
1.99531
21
2.12714
0
LINE
8
BLACK
6
CONTINUOUS
10
1.99531
20
2.12714
11
1.99318
21
2.12395
0
LINE
8
BLACK
6
CONTINUOUS
10
1.99318
20
2.12395
11
1.98999
21
2.12181
0
LINE
8
BLACK
6
CONTINUOUS
10
1.98999
20
2.12181
11
1.98622
21
2.12106
0
LINE
8
BLACK
6
CONTINUOUS
10
1.98622
20
2.12106
11
1.95079
21
2.12106
0
LINE
8
BLACK
6
CONTINUOUS
10
1.95079
20
2.12106
11
1.94702
21
2.12181
0
LINE
8
BLACK
6
CONTINUOUS
10
1.94702
20
2.12181
11
1.94383
21
2.12395
0
LINE
8
BLACK
6
CONTINUOUS
10
1.94383
20
2.12395
11
1.94169
21
2.12714
0
LINE
8
BLACK
6
CONTINUOUS
10
1.94169
20
2.12714
11
1.94094
21
2.13091
0
LINE
8
BLACK
6
CONTINUOUS
10
1.94094
20
2.13091
11
1.94094
21
2.15157
0
LINE
8
BLACK
6
CONTINUOUS
10
1.94094
20
2.15157
11
1.94169
21
2.15534
0
LINE
8
BLACK
6
CONTINUOUS
10
1.94169
20
2.15534
11
1.94383
21
2.15853
0
LINE
8
BLACK
6
CONTINUOUS
10
1.94383
20
2.15853
11
1.94702
21
2.16067
0
LINE
8
BLACK
6
CONTINUOUS
10
1.94702
20
2.16067
11
1.95079
21
2.16142
0
LINE
8
BLACK
6
CONTINUOUS
10
1.95079
20
2.16142
11
1.98622
21
2.16142
0
LINE
8
BLACK
6
CONTINUOUS
10
1.98622
20
2.16142
11
1.98999
21
2.16067
0
LINE
8
BLACK
6
CONTINUOUS
10
1.03443
20
2.18431
11
1.03754
21
2.18223
0
LINE
8
BLACK
6
CONTINUOUS
10
1.03754
20
2.18223
11
1.03962
21
2.17912
0
LINE
8
BLACK
6
CONTINUOUS
10
1.03962
20
2.17912
11
1.04035
21
2.17544
0
LINE
8
BLACK
6
CONTINUOUS
10
1.04035
20
2.17544
11
1.04035
21
2.13952
0
LINE
8
BLACK
6
CONTINUOUS
10
1.04035
20
2.13952
11
1.03962
21
2.13585
0
LINE
8
BLACK
6
CONTINUOUS
10
1.03962
20
2.13585
11
1.03754
21
2.13273
0
LINE
8
BLACK
6
CONTINUOUS
10
1.03754
20
2.13273
11
1.03443
21
2.13065
0
LINE
8
BLACK
6
CONTINUOUS
10
1.03443
20
2.13065
11
1.03076
21
2.12992
0
LINE
8
BLACK
6
CONTINUOUS
10
1.03076
20
2.12992
11
1.01156
21
2.12992
0
LINE
8
BLACK
6
CONTINUOUS
10
1.01156
20
2.12992
11
1.00789
21
2.13065
0
LINE
8
BLACK
6
CONTINUOUS
10
1.00789
20
2.13065
11
1.00478
21
2.13273
0
LINE
8
BLACK
6
CONTINUOUS
10
1.00478
20
2.13273
11
1.0027
21
2.13585
0
LINE
8
BLACK
6
CONTINUOUS
10
1.0027
20
2.13585
11
1.00197
21
2.13952
0
LINE
8
BLACK
6
CONTINUOUS
10
1.00197
20
2.13952
11
1.00197
21
2.17544
0
LINE
8
BLACK
6
CONTINUOUS
10
1.00197
20
2.17544
11
1.0027
21
2.17912
0
LINE
8
BLACK
6
CONTINUOUS
10
1.0027
20
2.17912
11
1.00478
21
2.18223
0
LINE
8
BLACK
6
CONTINUOUS
10
1.00478
20
2.18223
11
1.00789
21
2.18431
0
LINE
8
BLACK
6
CONTINUOUS
10
1.00789
20
2.18431
11
1.01156
21
2.18504
0
LINE
8
BLACK
6
CONTINUOUS
10
1.01156
20
2.18504
11
1.03076
21
2.18504
0
LINE
8
BLACK
6
CONTINUOUS
10
1.03076
20
2.18504
11
1.03443
21
2.18431
0
LINE
8
BLACK
6
CONTINUOUS
10
0.960611
20
2.18431
11
0.963725
21
2.18223
0
LINE
8
BLACK
6
CONTINUOUS
10
0.963725
20
2.18223
11
0.965805
21
2.17912
0
LINE
8
BLACK
6
CONTINUOUS
10
0.965805
20
2.17912
11
0.966535
21
2.17544
0
LINE
8
BLACK
6
CONTINUOUS
10
0.966535
20
2.17544
11
0.966535
21
2.13952
0
LINE
8
BLACK
6
CONTINUOUS
10
0.966535
20
2.13952
11
0.965805
21
2.13585
0
LINE
8
BLACK
6
CONTINUOUS
10
0.965805
20
2.13585
11
0.963725
21
2.13273
0
LINE
8
BLACK
6
CONTINUOUS
10
0.963725
20
2.13273
11
0.960611
21
2.13065
0
LINE
8
BLACK
6
CONTINUOUS
10
0.960611
20
2.13065
11
0.956939
21
2.12992
0
LINE
8
BLACK
6
CONTINUOUS
10
0.956939
20
2.12992
11
0.937746
21
2.12992
0
LINE
8
BLACK
6
CONTINUOUS
10
0.937746
20
2.12992
11
0.934074
21
2.13065
0
LINE
8
BLACK
6
CONTINUOUS
10
0.934074
20
2.13065
11
0.93096
21
2.13273
0
LINE
8
BLACK
6
CONTINUOUS
10
0.93096
20
2.13273
11
0.92888
21
2.13585
0
LINE
8
BLACK
6
CONTINUOUS
10
0.92888
20
2.13585
11
0.92815
21
2.13952
0
LINE
8
BLACK
6
CONTINUOUS
10
0.92815
20
2.13952
11
0.92815
21
2.17544
0
LINE
8
BLACK
6
CONTINUOUS
10
0.92815
20
2.17544
11
0.92888
21
2.17912
0
LINE
8
BLACK
6
CONTINUOUS
10
0.92888
20
2.17912
11
0.93096
21
2.18223
0
LINE
8
BLACK
6
CONTINUOUS
10
0.93096
20
2.18223
11
0.934074
21
2.18431
0
LINE
8
BLACK
6
CONTINUOUS
10
0.934074
20
2.18431
11
0.937746
21
2.18504
0
LINE
8
BLACK
6
CONTINUOUS
10
0.937746
20
2.18504
11
0.956939
21
2.18504
0
LINE
8
BLACK
6
CONTINUOUS
10
0.956939
20
2.18504
11
0.960611
21
2.18431
0
LINE
8
BLACK
6
CONTINUOUS
10
1.61811
20
2.13287
11
1.5748
21
2.13287
0
LINE
8
BLACK
6
CONTINUOUS
10
1.5748
20
2.13287
11
1.5748
21
2.14862
0
LINE
8
BLACK
6
CONTINUOUS
10
1.5748
20
2.14862
11
1.61811
21
2.14862
0
LINE
8
BLACK
6
CONTINUOUS
10
1.61811
20
2.14862
11
1.61811
21
2.13287
0
LINE
8
BLACK
6
CONTINUOUS
10
1.44882
20
2.13287
11
1.40551
21
2.13287
0
LINE
8
BLACK
6
CONTINUOUS
10
1.40551
20
2.13287
11
1.40551
21
2.14862
0
LINE
8
BLACK
6
CONTINUOUS
10
1.40551
20
2.14862
11
1.44882
21
2.14862
0
LINE
8
BLACK
6
CONTINUOUS
10
1.44882
20
2.14862
11
1.44882
21
2.13287
0
LINE
8
BLACK
6
CONTINUOUS
10
1.20259
20
2.19315
11
1.20578
21
2.19101
0
LINE
8
BLACK
6
CONTINUOUS
10
1.20578
20
2.19101
11
1.20791
21
2.18782
0
LINE
8
BLACK
6
CONTINUOUS
10
1.20791
20
2.18782
11
1.20866
21
2.18406
0
LINE
8
BLACK
6
CONTINUOUS
10
1.20866
20
2.18406
11
1.20866
21
2.16339
0
LINE
8
BLACK
6
CONTINUOUS
10
1.20866
20
2.16339
11
1.20791
21
2.15962
0
LINE
8
BLACK
6
CONTINUOUS
10
1.20791
20
2.15962
11
1.20578
21
2.15643
0
LINE
8
BLACK
6
CONTINUOUS
10
1.20578
20
2.15643
11
1.20259
21
2.15429
0
LINE
8
BLACK
6
CONTINUOUS
10
1.20259
20
2.15429
11
1.19882
21
2.15354
0
LINE
8
BLACK
6
CONTINUOUS
10
1.19882
20
2.15354
11
1.16339
21
2.15354
0
LINE
8
BLACK
6
CONTINUOUS
10
1.16339
20
2.15354
11
1.15962
21
2.15429
0
LINE
8
BLACK
6
CONTINUOUS
10
1.15962
20
2.15429
11
1.15643
21
2.15643
0
LINE
8
BLACK
6
CONTINUOUS
10
1.15643
20
2.15643
11
1.15429
21
2.15962
0
LINE
8
BLACK
6
CONTINUOUS
10
1.15429
20
2.15962
11
1.15354
21
2.16339
0
LINE
8
BLACK
6
CONTINUOUS
10
1.15354
20
2.16339
11
1.15354
21
2.18406
0
LINE
8
BLACK
6
CONTINUOUS
10
1.15354
20
2.18406
11
1.15429
21
2.18782
0
LINE
8
BLACK
6
CONTINUOUS
10
1.15429
20
2.18782
11
1.15643
21
2.19101
0
LINE
8
BLACK
6
CONTINUOUS
10
1.15643
20
2.19101
11
1.15962
21
2.19315
0
LINE
8
BLACK
6
CONTINUOUS
10
1.15962
20
2.19315
11
1.16339
21
2.1939
0
LINE
8
BLACK
6
CONTINUOUS
10
1.16339
20
2.1939
11
1.19882
21
2.1939
0
LINE
8
BLACK
6
CONTINUOUS
10
1.19882
20
2.1939
11
1.20259
21
2.19315
0
LINE
8
BLACK
6
CONTINUOUS
10
1.28526
20
2.19315
11
1.28846
21
2.19101
0
LINE
8
BLACK
6
CONTINUOUS
10
1.28846
20
2.19101
11
1.29059
21
2.18782
0
LINE
8
BLACK
6
CONTINUOUS
10
1.29059
20
2.18782
11
1.29134
21
2.18406
0
LINE
8
BLACK
6
CONTINUOUS
10
1.29134
20
2.18406
11
1.29134
21
2.16339
0
LINE
8
BLACK
6
CONTINUOUS
10
1.29134
20
2.16339
11
1.29059
21
2.15962
0
LINE
8
BLACK
6
CONTINUOUS
10
1.29059
20
2.15962
11
1.28846
21
2.15643
0
LINE
8
BLACK
6
CONTINUOUS
10
1.28846
20
2.15643
11
1.28526
21
2.15429
0
LINE
8
BLACK
6
CONTINUOUS
10
1.28526
20
2.15429
11
1.2815
21
2.15354
0
LINE
8
BLACK
6
CONTINUOUS
10
1.2815
20
2.15354
11
1.24606
21
2.15354
0
LINE
8
BLACK
6
CONTINUOUS
10
1.24606
20
2.15354
11
1.2423
21
2.15429
0
LINE
8
BLACK
6
CONTINUOUS
10
1.2423
20
2.15429
11
1.2391
21
2.15643
0
LINE
8
BLACK
6
CONTINUOUS
10
1.2391
20
2.15643
11
1.23697
21
2.15962
0
LINE
8
BLACK
6
CONTINUOUS
10
1.23697
20
2.15962
11
1.23622
21
2.16339
0
LINE
8
BLACK
6
CONTINUOUS
10
1.23622
20
2.16339
11
1.23622
21
2.18406
0
LINE
8
BLACK
6
CONTINUOUS
10
1.23622
20
2.18406
11
1.23697
21
2.18782
0
LINE
8
BLACK
6
CONTINUOUS
10
1.23697
20
2.18782
11
1.2391
21
2.19101
0
LINE
8
BLACK
6
CONTINUOUS
10
1.2391
20
2.19101
11
1.2423
21
2.19315
0
LINE
8
BLACK
6
CONTINUOUS
10
1.2423
20
2.19315
11
1.24606
21
2.1939
0
LINE
8
BLACK
6
CONTINUOUS
10
1.24606
20
2.1939
11
1.2815
21
2.1939
0
LINE
8
BLACK
6
CONTINUOUS
10
1.2815
20
2.1939
11
1.28526
21
2.19315
0
LINE
8
BLACK
6
CONTINUOUS
10
1.44882
20
2.15846
11
1.40551
21
2.15846
0
LINE
8
BLACK
6
CONTINUOUS
10
1.40551
20
2.15846
11
1.40551
21
2.17421
0
LINE
8
BLACK
6
CONTINUOUS
10
1.40551
20
2.17421
11
1.44882
21
2.17421
0
LINE
8
BLACK
6
CONTINUOUS
10
1.44882
20
2.17421
11
1.44882
21
2.15846
0
LINE
8
BLACK
6
CONTINUOUS
10
1.61811
20
2.15846
11
1.5748
21
2.15846
0
LINE
8
BLACK
6
CONTINUOUS
10
1.5748
20
2.15846
11
1.5748
21
2.17421
0
LINE
8
BLACK
6
CONTINUOUS
10
1.5748
20
2.17421
11
1.61811
21
2.17421
0
LINE
8
BLACK
6
CONTINUOUS
10
1.61811
20
2.17421
11
1.61811
21
2.15846
0
LINE
8
BLACK
6
CONTINUOUS
10
1.44882
20
2.18406
11
1.40551
21
2.18406
0
LINE
8
BLACK
6
CONTINUOUS
10
1.40551
20
2.18406
11
1.40551
21
2.1998
0
LINE
8
BLACK
6
CONTINUOUS
10
1.40551
20
2.1998
11
1.44882
21
2.1998
0
LINE
8
BLACK
6
CONTINUOUS
10
1.44882
20
2.1998
11
1.44882
21
2.18406
0
LINE
8
BLACK
6
CONTINUOUS
10
1.61811
20
2.18406
11
1.5748
21
2.18406
0
LINE
8
BLACK
6
CONTINUOUS
10
1.5748
20
2.18406
11
1.5748
21
2.1998
0
LINE
8
BLACK
6
CONTINUOUS
10
1.5748
20
2.1998
11
1.61811
21
2.1998
0
LINE
8
BLACK
6
CONTINUOUS
10
1.61811
20
2.1998
11
1.61811
21
2.18406
0
LINE
8
BLACK
6
CONTINUOUS
10
1.98999
20
2.23252
11
1.99318
21
2.23038
0
LINE
8
BLACK
6
CONTINUOUS
10
1.99318
20
2.23038
11
1.99531
21
2.22719
0
LINE
8
BLACK
6
CONTINUOUS
10
1.99531
20
2.22719
11
1.99606
21
2.22343
0
LINE
8
BLACK
6
CONTINUOUS
10
1.99606
20
2.22343
11
1.99606
21
2.20276
0
LINE
8
BLACK
6
CONTINUOUS
10
1.99606
20
2.20276
11
1.99531
21
2.19899
0
LINE
8
BLACK
6
CONTINUOUS
10
1.99531
20
2.19899
11
1.99318
21
2.1958
0
LINE
8
BLACK
6
CONTINUOUS
10
1.99318
20
2.1958
11
1.98999
21
2.19366
0
LINE
8
BLACK
6
CONTINUOUS
10
1.98999
20
2.19366
11
1.98622
21
2.19291
0
LINE
8
BLACK
6
CONTINUOUS
10
1.98622
20
2.19291
11
1.95079
21
2.19291
0
LINE
8
BLACK
6
CONTINUOUS
10
1.95079
20
2.19291
11
1.94702
21
2.19366
0
LINE
8
BLACK
6
CONTINUOUS
10
1.94702
20
2.19366
11
1.94383
21
2.1958
0
LINE
8
BLACK
6
CONTINUOUS
10
1.94383
20
2.1958
11
1.94169
21
2.19899
0
LINE
8
BLACK
6
CONTINUOUS
10
1.94169
20
2.19899
11
1.94094
21
2.20276
0
LINE
8
BLACK
6
CONTINUOUS
10
1.94094
20
2.20276
11
1.94094
21
2.22343
0
LINE
8
BLACK
6
CONTINUOUS
10
1.94094
20
2.22343
11
1.94169
21
2.22719
0
LINE
8
BLACK
6
CONTINUOUS
10
1.94169
20
2.22719
11
1.94383
21
2.23038
0
LINE
8
BLACK
6
CONTINUOUS
10
1.94383
20
2.23038
11
1.94702
21
2.23252
0
LINE
8
BLACK
6
CONTINUOUS
10
1.94702
20
2.23252
11
1.95079
21
2.23327
0
LINE
8
BLACK
6
CONTINUOUS
10
1.95079
20
2.23327
11
1.98622
21
2.23327
0
LINE
8
BLACK
6
CONTINUOUS
10
1.98622
20
2.23327
11
1.98999
21
2.23252
0
LINE
8
BLACK
6
CONTINUOUS
10
1.70864
20
2.25321
11
1.71176
21
2.25113
0
LINE
8
BLACK
6
CONTINUOUS
10
1.71176
20
2.25113
11
1.71384
21
2.24801
0
LINE
8
BLACK
6
CONTINUOUS
10
1.71384
20
2.24801
11
1.71457
21
2.24434
0
LINE
8
BLACK
6
CONTINUOUS
10
1.71457
20
2.24434
11
1.71457
21
2.20842
0
LINE
8
BLACK
6
CONTINUOUS
10
1.71457
20
2.20842
11
1.71384
21
2.20474
0
LINE
8
BLACK
6
CONTINUOUS
10
1.71384
20
2.20474
11
1.71176
21
2.20163
0
LINE
8
BLACK
6
CONTINUOUS
10
1.71176
20
2.20163
11
1.70864
21
2.19955
0
LINE
8
BLACK
6
CONTINUOUS
10
1.70864
20
2.19955
11
1.70497
21
2.19882
0
LINE
8
BLACK
6
CONTINUOUS
10
1.70497
20
2.19882
11
1.68578
21
2.19882
0
LINE
8
BLACK
6
CONTINUOUS
10
1.68578
20
2.19882
11
1.68211
21
2.19955
0
LINE
8
BLACK
6
CONTINUOUS
10
1.68211
20
2.19955
11
1.67899
21
2.20163
0
LINE
8
BLACK
6
CONTINUOUS
10
1.67899
20
2.20163
11
1.67691
21
2.20474
0
LINE
8
BLACK
6
CONTINUOUS
10
1.67691
20
2.20474
11
1.67618
21
2.20842
0
LINE
8
BLACK
6
CONTINUOUS
10
1.67618
20
2.20842
11
1.67618
21
2.24434
0
LINE
8
BLACK
6
CONTINUOUS
10
1.67618
20
2.24434
11
1.67691
21
2.24801
0
LINE
8
BLACK
6
CONTINUOUS
10
1.67691
20
2.24801
11
1.67899
21
2.25113
0
LINE
8
BLACK
6
CONTINUOUS
10
1.67899
20
2.25113
11
1.68211
21
2.25321
0
LINE
8
BLACK
6
CONTINUOUS
10
1.68211
20
2.25321
11
1.68578
21
2.25394
0
LINE
8
BLACK
6
CONTINUOUS
10
1.68578
20
2.25394
11
1.70497
21
2.25394
0
LINE
8
BLACK
6
CONTINUOUS
10
1.70497
20
2.25394
11
1.70864
21
2.25321
0
LINE
8
BLACK
6
CONTINUOUS
10
1.78246
20
2.25321
11
1.78558
21
2.25113
0
LINE
8
BLACK
6
CONTINUOUS
10
1.78558
20
2.25113
11
1.78766
21
2.24801
0
LINE
8
BLACK
6
CONTINUOUS
10
1.78766
20
2.24801
11
1.78839
21
2.24434
0
LINE
8
BLACK
6
CONTINUOUS
10
1.78839
20
2.24434
11
1.78839
21
2.20842
0
LINE
8
BLACK
6
CONTINUOUS
10
1.78839
20
2.20842
11
1.78766
21
2.20474
0
LINE
8
BLACK
6
CONTINUOUS
10
1.78766
20
2.20474
11
1.78558
21
2.20163
0
LINE
8
BLACK
6
CONTINUOUS
10
1.78558
20
2.20163
11
1.78246
21
2.19955
0
LINE
8
BLACK
6
CONTINUOUS
10
1.78246
20
2.19955
11
1.77879
21
2.19882
0
LINE
8
BLACK
6
CONTINUOUS
10
1.77879
20
2.19882
11
1.7596
21
2.19882
0
LINE
8
BLACK
6
CONTINUOUS
10
1.7596
20
2.19882
11
1.75592
21
2.19955
0
LINE
8
BLACK
6
CONTINUOUS
10
1.75592
20
2.19955
11
1.75281
21
2.20163
0
LINE
8
BLACK
6
CONTINUOUS
10
1.75281
20
2.20163
11
1.75073
21
2.20474
0
LINE
8
BLACK
6
CONTINUOUS
10
1.75073
20
2.20474
11
1.75
21
2.20842
0
LINE
8
BLACK
6
CONTINUOUS
10
1.75
20
2.20842
11
1.75
21
2.24434
0
LINE
8
BLACK
6
CONTINUOUS
10
1.75
20
2.24434
11
1.75073
21
2.24801
0
LINE
8
BLACK
6
CONTINUOUS
10
1.75073
20
2.24801
11
1.75281
21
2.25113
0
LINE
8
BLACK
6
CONTINUOUS
10
1.75281
20
2.25113
11
1.75592
21
2.25321
0
LINE
8
BLACK
6
CONTINUOUS
10
1.75592
20
2.25321
11
1.7596
21
2.25394
0
LINE
8
BLACK
6
CONTINUOUS
10
1.7596
20
2.25394
11
1.77879
21
2.25394
0
LINE
8
BLACK
6
CONTINUOUS
10
1.77879
20
2.25394
11
1.78246
21
2.25321
0
LINE
8
BLACK
6
CONTINUOUS
10
1.44882
20
2.20965
11
1.40551
21
2.20965
0
LINE
8
BLACK
6
CONTINUOUS
10
1.40551
20
2.20965
11
1.40551
21
2.22539
0
LINE
8
BLACK
6
CONTINUOUS
10
1.40551
20
2.22539
11
1.44882
21
2.22539
0
LINE
8
BLACK
6
CONTINUOUS
10
1.44882
20
2.22539
11
1.44882
21
2.20965
0
LINE
8
BLACK
6
CONTINUOUS
10
1.61811
20
2.20965
11
1.5748
21
2.20965
0
LINE
8
BLACK
6
CONTINUOUS
10
1.5748
20
2.20965
11
1.5748
21
2.22539
0
LINE
8
BLACK
6
CONTINUOUS
10
1.5748
20
2.22539
11
1.61811
21
2.22539
0
LINE
8
BLACK
6
CONTINUOUS
10
1.61811
20
2.22539
11
1.61811
21
2.20965
0
LINE
8
BLACK
6
CONTINUOUS
10
1.11811
20
2.2126
11
1.06693
21
2.2126
0
LINE
8
BLACK
6
CONTINUOUS
10
1.06693
20
2.2126
11
1.06693
21
2.27953
0
LINE
8
BLACK
6
CONTINUOUS
10
1.06693
20
2.27953
11
1.11811
21
2.27953
0
LINE
8
BLACK
6
CONTINUOUS
10
1.11811
20
2.27953
11
1.11811
21
2.2126
0
LINE
8
BLACK
6
CONTINUOUS
10
0.980315
20
2.2126
11
0.929134
21
2.2126
0
LINE
8
BLACK
6
CONTINUOUS
10
0.929134
20
2.2126
11
0.929134
21
2.27953
0
LINE
8
BLACK
6
CONTINUOUS
10
0.929134
20
2.27953
11
0.980315
21
2.27953
0
LINE
8
BLACK
6
CONTINUOUS
10
0.980315
20
2.27953
11
0.980315
21
2.2126
0
LINE
8
BLACK
6
CONTINUOUS
10
1.17518
20
2.2788
11
1.17829
21
2.27672
0
LINE
8
BLACK
6
CONTINUOUS
10
1.17829
20
2.27672
11
1.18037
21
2.2736
0
LINE
8
BLACK
6
CONTINUOUS
10
1.18037
20
2.2736
11
1.1811
21
2.26993
0
LINE
8
BLACK
6
CONTINUOUS
10
1.1811
20
2.26993
11
1.1811
21
2.23401
0
LINE
8
BLACK
6
CONTINUOUS
10
1.1811
20
2.23401
11
1.18037
21
2.23033
0
LINE
8
BLACK
6
CONTINUOUS
10
1.18037
20
2.23033
11
1.17829
21
2.22722
0
LINE
8
BLACK
6
CONTINUOUS
10
1.17829
20
2.22722
11
1.17518
21
2.22514
0
LINE
8
BLACK
6
CONTINUOUS
10
1.17518
20
2.22514
11
1.17151
21
2.22441
0
LINE
8
BLACK
6
CONTINUOUS
10
1.17151
20
2.22441
11
1.15231
21
2.22441
0
LINE
8
BLACK
6
CONTINUOUS
10
1.15231
20
2.22441
11
1.14864
21
2.22514
0
LINE
8
BLACK
6
CONTINUOUS
10
1.14864
20
2.22514
11
1.14553
21
2.22722
0
LINE
8
BLACK
6
CONTINUOUS
10
1.14553
20
2.22722
11
1.14345
21
2.23033
0
LINE
8
BLACK
6
CONTINUOUS
10
1.14345
20
2.23033
11
1.14272
21
2.23401
0
LINE
8
BLACK
6
CONTINUOUS
10
1.14272
20
2.23401
11
1.14272
21
2.26993
0
LINE
8
BLACK
6
CONTINUOUS
10
1.14272
20
2.26993
11
1.14345
21
2.2736
0
LINE
8
BLACK
6
CONTINUOUS
10
1.14345
20
2.2736
11
1.14553
21
2.27672
0
LINE
8
BLACK
6
CONTINUOUS
10
1.14553
20
2.27672
11
1.14864
21
2.2788
0
LINE
8
BLACK
6
CONTINUOUS
10
1.14864
20
2.2788
11
1.15231
21
2.27953
0
LINE
8
BLACK
6
CONTINUOUS
10
1.15231
20
2.27953
11
1.17151
21
2.27953
0
LINE
8
BLACK
6
CONTINUOUS
10
1.17151
20
2.27953
11
1.17518
21
2.2788
0
LINE
8
BLACK
6
CONTINUOUS
10
1.249
20
2.2788
11
1.25211
21
2.27672
0
LINE
8
BLACK
6
CONTINUOUS
10
1.25211
20
2.27672
11
1.25419
21
2.2736
0
LINE
8
BLACK
6
CONTINUOUS
10
1.25419
20
2.2736
11
1.25492
21
2.26993
0
LINE
8
BLACK
6
CONTINUOUS
10
1.25492
20
2.26993
11
1.25492
21
2.23401
0
LINE
8
BLACK
6
CONTINUOUS
10
1.25492
20
2.23401
11
1.25419
21
2.23033
0
LINE
8
BLACK
6
CONTINUOUS
10
1.25419
20
2.23033
11
1.25211
21
2.22722
0
LINE
8
BLACK
6
CONTINUOUS
10
1.25211
20
2.22722
11
1.249
21
2.22514
0
LINE
8
BLACK
6
CONTINUOUS
10
1.249
20
2.22514
11
1.24532
21
2.22441
0
LINE
8
BLACK
6
CONTINUOUS
10
1.24532
20
2.22441
11
1.22613
21
2.22441
0
LINE
8
BLACK
6
CONTINUOUS
10
1.22613
20
2.22441
11
1.22246
21
2.22514
0
LINE
8
BLACK
6
CONTINUOUS
10
1.22246
20
2.22514
11
1.21935
21
2.22722
0
LINE
8
BLACK
6
CONTINUOUS
10
1.21935
20
2.22722
11
1.21727
21
2.23033
0
LINE
8
BLACK
6
CONTINUOUS
10
1.21727
20
2.23033
11
1.21654
21
2.23401
0
LINE
8
BLACK
6
CONTINUOUS
10
1.21654
20
2.23401
11
1.21654
21
2.26993
0
LINE
8
BLACK
6
CONTINUOUS
10
1.21654
20
2.26993
11
1.21727
21
2.2736
0
LINE
8
BLACK
6
CONTINUOUS
10
1.21727
20
2.2736
11
1.21935
21
2.27672
0
LINE
8
BLACK
6
CONTINUOUS
10
1.21935
20
2.27672
11
1.22246
21
2.2788
0
LINE
8
BLACK
6
CONTINUOUS
10
1.22246
20
2.2788
11
1.22613
21
2.27953
0
LINE
8
BLACK
6
CONTINUOUS
10
1.22613
20
2.27953
11
1.24532
21
2.27953
0
LINE
8
BLACK
6
CONTINUOUS
10
1.24532
20
2.27953
11
1.249
21
2.2788
  0
ENDSEC
  0
EOF
