  0
SECTION
  2
HEADER
  9
$ANGBASE
  50
0.0
  9
$ANGDIR
  70
1
  9
$MEASUREMENT
  70
0
  0
ENDSEC
  0
SECTION
  2
TABLES
  0
TABLE
  2
LTYPE
  70
4
  0
LTYPE
  5
40F
  2
CONTINUOUS
  70
0
  3
Solid line
  72
65
  73
0
  40
0.0
  0
LTYPE
  5
410
  2
DASHDOT
 70
0
  3
Dash Dot ____ _ ____ _
 72
65
 73
4
 40
2.0
 49
1.25
 49
-0.25
 49
0.25
 49
-0.25
  0
LTYPE
  5
411
  2
DASHED
 70
0
  3
Dashed __ __ __ __ __
 72
65
 73
2
 40
0.75
 49
0.5
 49
-0.25
  0
LTYPE
  5
43B
  2
DOTTED
 70
0
  3
Dotted .  .  .  .
 72
65
 73
2
 40
0.2
 49
0.0
 49
-0.2
  0
ENDTAB
  0
TABLE
  2
STYLE
  70
4
  0
STYLE
  2
KICAD
  70
0
  40
0
  41
1
  42
1
  50
0
  71
0
  3
isocp.shx
  0
STYLE
  2
KICADB
  70
0
  40
0
  41
1
  42
1
  50
0
  71
0
  3
isocp.shx
  0
STYLE
  2
KICADI
  70
0
  40
0
  41
1
  42
1
  50
15
  71
0
  3
isocp.shx
  0
STYLE
  2
KICADBI
  70
0
  40
0
  41
1
  42
1
  50
15
  71
0
  3
isocp.shx
  0
ENDTAB
  0
TABLE
  2
LAYER
  70
1
  0
LAYER
  2
BLACK
  70
0
  62
7
  6
CONTINUOUS
  0
ENDTAB
  0
ENDSEC
  0
SECTION
  2
ENTITIES
0
LINE
8
BLACK
6
CONTINUOUS
10
0.831522
20
-0.0647256
11
0.834716
21
-0.0668592
0
LINE
8
BLACK
6
CONTINUOUS
10
0.834716
20
-0.0668592
11
0.836849
21
-0.0700523
0
LINE
8
BLACK
6
CONTINUOUS
10
0.836849
20
-0.0700523
11
0.837598
21
-0.0738189
0
LINE
8
BLACK
6
CONTINUOUS
10
0.837598
20
-0.0738189
11
0.837598
21
-0.0944882
0
LINE
8
BLACK
6
CONTINUOUS
10
0.837598
20
-0.0944882
11
0.836849
21
-0.0982548
0
LINE
8
BLACK
6
CONTINUOUS
10
0.836849
20
-0.0982548
11
0.834716
21
-0.101448
0
LINE
8
BLACK
6
CONTINUOUS
10
0.834716
20
-0.101448
11
0.831522
21
-0.103581
0
LINE
8
BLACK
6
CONTINUOUS
10
0.831522
20
-0.103581
11
0.827756
21
-0.104331
0
LINE
8
BLACK
6
CONTINUOUS
10
0.827756
20
-0.104331
11
0.792323
21
-0.104331
0
LINE
8
BLACK
6
CONTINUOUS
10
0.792323
20
-0.104331
11
0.788556
21
-0.103581
0
LINE
8
BLACK
6
CONTINUOUS
10
0.788556
20
-0.103581
11
0.785363
21
-0.101448
0
LINE
8
BLACK
6
CONTINUOUS
10
0.785363
20
-0.101448
11
0.78323
21
-0.0982548
0
LINE
8
BLACK
6
CONTINUOUS
10
0.78323
20
-0.0982548
11
0.78248
21
-0.0944882
0
LINE
8
BLACK
6
CONTINUOUS
10
0.78248
20
-0.0944882
11
0.78248
21
-0.0738189
0
LINE
8
BLACK
6
CONTINUOUS
10
0.78248
20
-0.0738189
11
0.78323
21
-0.0700523
0
LINE
8
BLACK
6
CONTINUOUS
10
0.78323
20
-0.0700523
11
0.785363
21
-0.0668592
0
LINE
8
BLACK
6
CONTINUOUS
10
0.785363
20
-0.0668592
11
0.788556
21
-0.0647256
0
LINE
8
BLACK
6
CONTINUOUS
10
0.788556
20
-0.0647256
11
0.792323
21
-0.0639764
0
LINE
8
BLACK
6
CONTINUOUS
10
0.792323
20
-0.0639764
11
0.827756
21
-0.0639764
0
LINE
8
BLACK
6
CONTINUOUS
10
0.827756
20
-0.0639764
11
0.831522
21
-0.0647256
0
LINE
8
BLACK
6
CONTINUOUS
10
0.74294
20
-0.0647256
11
0.746133
21
-0.0668592
0
LINE
8
BLACK
6
CONTINUOUS
10
0.746133
20
-0.0668592
11
0.748267
21
-0.0700523
0
LINE
8
BLACK
6
CONTINUOUS
10
0.748267
20
-0.0700523
11
0.749016
21
-0.0738189
0
LINE
8
BLACK
6
CONTINUOUS
10
0.749016
20
-0.0738189
11
0.749016
21
-0.0944882
0
LINE
8
BLACK
6
CONTINUOUS
10
0.749016
20
-0.0944882
11
0.748267
21
-0.0982548
0
LINE
8
BLACK
6
CONTINUOUS
10
0.748267
20
-0.0982548
11
0.746133
21
-0.101448
0
LINE
8
BLACK
6
CONTINUOUS
10
0.746133
20
-0.101448
11
0.74294
21
-0.103581
0
LINE
8
BLACK
6
CONTINUOUS
10
0.74294
20
-0.103581
11
0.739173
21
-0.104331
0
LINE
8
BLACK
6
CONTINUOUS
10
0.739173
20
-0.104331
11
0.70374
21
-0.104331
0
LINE
8
BLACK
6
CONTINUOUS
10
0.70374
20
-0.104331
11
0.699974
21
-0.103581
0
LINE
8
BLACK
6
CONTINUOUS
10
0.699974
20
-0.103581
11
0.69678
21
-0.101448
0
LINE
8
BLACK
6
CONTINUOUS
10
0.69678
20
-0.101448
11
0.694647
21
-0.0982548
0
LINE
8
BLACK
6
CONTINUOUS
10
0.694647
20
-0.0982548
11
0.693898
21
-0.0944882
0
LINE
8
BLACK
6
CONTINUOUS
10
0.693898
20
-0.0944882
11
0.693898
21
-0.0738189
0
LINE
8
BLACK
6
CONTINUOUS
10
0.693898
20
-0.0738189
11
0.694647
21
-0.0700523
0
LINE
8
BLACK
6
CONTINUOUS
10
0.694647
20
-0.0700523
11
0.69678
21
-0.0668592
0
LINE
8
BLACK
6
CONTINUOUS
10
0.69678
20
-0.0668592
11
0.699974
21
-0.0647256
0
LINE
8
BLACK
6
CONTINUOUS
10
0.699974
20
-0.0647256
11
0.70374
21
-0.0639764
0
LINE
8
BLACK
6
CONTINUOUS
10
0.70374
20
-0.0639764
11
0.739173
21
-0.0639764
0
LINE
8
BLACK
6
CONTINUOUS
10
0.739173
20
-0.0639764
11
0.74294
21
-0.0647256
0
LINE
8
BLACK
6
CONTINUOUS
10
0.99065
20
-0.0964567
11
0.931594
21
-0.0964567
0
LINE
8
BLACK
6
CONTINUOUS
10
0.931594
20
-0.0964567
11
0.931594
21
-0.0374016
0
LINE
8
BLACK
6
CONTINUOUS
10
0.931594
20
-0.0374016
11
0.99065
21
-0.0374016
0
LINE
8
BLACK
6
CONTINUOUS
10
0.99065
20
-0.0374016
11
0.99065
21
-0.0964567
0
LINE
8
BLACK
6
CONTINUOUS
10
1.16437
20
-0.0927165
11
1.10531
21
-0.0927165
0
LINE
8
BLACK
6
CONTINUOUS
10
1.10531
20
-0.0927165
11
1.10531
21
-0.0336614
0
LINE
8
BLACK
6
CONTINUOUS
10
1.10531
20
-0.0336614
11
1.16437
21
-0.0336614
0
LINE
8
BLACK
6
CONTINUOUS
10
1.16437
20
-0.0336614
11
1.16437
21
-0.0927165
0
LINE
8
BLACK
6
CONTINUOUS
10
0.831522
20
0.0071248
11
0.834716
21
0.00499122
0
LINE
8
BLACK
6
CONTINUOUS
10
0.834716
20
0.00499122
11
0.836849
21
0.00179807
0
LINE
8
BLACK
6
CONTINUOUS
10
0.836849
20
0.00179807
11
0.837598
21
-0.0019685
0
LINE
8
BLACK
6
CONTINUOUS
10
0.837598
20
-0.0019685
11
0.837598
21
-0.0226378
0
LINE
8
BLACK
6
CONTINUOUS
10
0.837598
20
-0.0226378
11
0.836849
21
-0.0264044
0
LINE
8
BLACK
6
CONTINUOUS
10
0.836849
20
-0.0264044
11
0.834716
21
-0.0295975
0
LINE
8
BLACK
6
CONTINUOUS
10
0.834716
20
-0.0295975
11
0.831522
21
-0.0317311
0
LINE
8
BLACK
6
CONTINUOUS
10
0.831522
20
-0.0317311
11
0.827756
21
-0.0324803
0
LINE
8
BLACK
6
CONTINUOUS
10
0.827756
20
-0.0324803
11
0.792323
21
-0.0324803
0
LINE
8
BLACK
6
CONTINUOUS
10
0.792323
20
-0.0324803
11
0.788556
21
-0.0317311
0
LINE
8
BLACK
6
CONTINUOUS
10
0.788556
20
-0.0317311
11
0.785363
21
-0.0295975
0
LINE
8
BLACK
6
CONTINUOUS
10
0.785363
20
-0.0295975
11
0.78323
21
-0.0264044
0
LINE
8
BLACK
6
CONTINUOUS
10
0.78323
20
-0.0264044
11
0.78248
21
-0.0226378
0
LINE
8
BLACK
6
CONTINUOUS
10
0.78248
20
-0.0226378
11
0.78248
21
-0.0019685
0
LINE
8
BLACK
6
CONTINUOUS
10
0.78248
20
-0.0019685
11
0.78323
21
0.00179807
0
LINE
8
BLACK
6
CONTINUOUS
10
0.78323
20
0.00179807
11
0.785363
21
0.00499122
0
LINE
8
BLACK
6
CONTINUOUS
10
0.785363
20
0.00499122
11
0.788556
21
0.0071248
0
LINE
8
BLACK
6
CONTINUOUS
10
0.788556
20
0.0071248
11
0.792323
21
0.00787402
0
LINE
8
BLACK
6
CONTINUOUS
10
0.792323
20
0.00787402
11
0.827756
21
0.00787402
0
LINE
8
BLACK
6
CONTINUOUS
10
0.827756
20
0.00787402
11
0.831522
21
0.0071248
0
LINE
8
BLACK
6
CONTINUOUS
10
0.74294
20
0.0071248
11
0.746133
21
0.00499122
0
LINE
8
BLACK
6
CONTINUOUS
10
0.746133
20
0.00499122
11
0.748267
21
0.00179807
0
LINE
8
BLACK
6
CONTINUOUS
10
0.748267
20
0.00179807
11
0.749016
21
-0.0019685
0
LINE
8
BLACK
6
CONTINUOUS
10
0.749016
20
-0.0019685
11
0.749016
21
-0.0226378
0
LINE
8
BLACK
6
CONTINUOUS
10
0.749016
20
-0.0226378
11
0.748267
21
-0.0264044
0
LINE
8
BLACK
6
CONTINUOUS
10
0.748267
20
-0.0264044
11
0.746133
21
-0.0295975
0
LINE
8
BLACK
6
CONTINUOUS
10
0.746133
20
-0.0295975
11
0.74294
21
-0.0317311
0
LINE
8
BLACK
6
CONTINUOUS
10
0.74294
20
-0.0317311
11
0.739173
21
-0.0324803
0
LINE
8
BLACK
6
CONTINUOUS
10
0.739173
20
-0.0324803
11
0.70374
21
-0.0324803
0
LINE
8
BLACK
6
CONTINUOUS
10
0.70374
20
-0.0324803
11
0.699974
21
-0.0317311
0
LINE
8
BLACK
6
CONTINUOUS
10
0.699974
20
-0.0317311
11
0.69678
21
-0.0295975
0
LINE
8
BLACK
6
CONTINUOUS
10
0.69678
20
-0.0295975
11
0.694647
21
-0.0264044
0
LINE
8
BLACK
6
CONTINUOUS
10
0.694647
20
-0.0264044
11
0.693898
21
-0.0226378
0
LINE
8
BLACK
6
CONTINUOUS
10
0.693898
20
-0.0226378
11
0.693898
21
-0.0019685
0
LINE
8
BLACK
6
CONTINUOUS
10
0.693898
20
-0.0019685
11
0.694647
21
0.00179807
0
LINE
8
BLACK
6
CONTINUOUS
10
0.694647
20
0.00179807
11
0.69678
21
0.00499122
0
LINE
8
BLACK
6
CONTINUOUS
10
0.69678
20
0.00499122
11
0.699974
21
0.0071248
0
LINE
8
BLACK
6
CONTINUOUS
10
0.699974
20
0.0071248
11
0.70374
21
0.00787402
0
LINE
8
BLACK
6
CONTINUOUS
10
0.70374
20
0.00787402
11
0.739173
21
0.00787402
0
LINE
8
BLACK
6
CONTINUOUS
10
0.739173
20
0.00787402
11
0.74294
21
0.0071248
0
LINE
8
BLACK
6
CONTINUOUS
10
0.652559
20
0.0303991
11
0.53248
21
0.0303991
0
LINE
8
BLACK
6
CONTINUOUS
10
0.53248
20
0.0303991
11
0.53248
21
0.128824
0
LINE
8
BLACK
6
CONTINUOUS
10
0.53248
20
0.128824
11
0.652559
21
0.128824
0
LINE
8
BLACK
6
CONTINUOUS
10
0.652559
20
0.128824
11
0.652559
21
0.0303991
0
LINE
8
BLACK
6
CONTINUOUS
10
0.319882
20
0.0303991
11
0.199803
21
0.0303991
0
LINE
8
BLACK
6
CONTINUOUS
10
0.199803
20
0.0303991
11
0.199803
21
0.128824
0
LINE
8
BLACK
6
CONTINUOUS
10
0.199803
20
0.128824
11
0.319882
21
0.128824
0
LINE
8
BLACK
6
CONTINUOUS
10
0.319882
20
0.128824
11
0.319882
21
0.0303991
0
LINE
8
BLACK
6
CONTINUOUS
10
0.99065
20
0.0515748
11
0.931594
21
0.0515748
0
LINE
8
BLACK
6
CONTINUOUS
10
0.931594
20
0.0515748
11
0.931594
21
0.11063
0
LINE
8
BLACK
6
CONTINUOUS
10
0.931594
20
0.11063
11
0.99065
21
0.11063
0
LINE
8
BLACK
6
CONTINUOUS
10
0.99065
20
0.11063
11
0.99065
21
0.0515748
0
LINE
8
BLACK
6
CONTINUOUS
10
1.16437
20
0.055315
11
1.10531
21
0.055315
0
LINE
8
BLACK
6
CONTINUOUS
10
1.10531
20
0.055315
11
1.10531
21
0.11437
0
LINE
8
BLACK
6
CONTINUOUS
10
1.10531
20
0.11437
11
1.16437
21
0.11437
0
LINE
8
BLACK
6
CONTINUOUS
10
1.16437
20
0.11437
11
1.16437
21
0.055315
0
LINE
8
BLACK
6
CONTINUOUS
10
0.79852
20
0.238724
11
0.800436
21
0.237444
0
LINE
8
BLACK
6
CONTINUOUS
10
0.800436
20
0.237444
11
0.801716
21
0.235528
0
LINE
8
BLACK
6
CONTINUOUS
10
0.801716
20
0.235528
11
0.802165
21
0.233268
0
LINE
8
BLACK
6
CONTINUOUS
10
0.802165
20
0.233268
11
0.802165
21
0.187008
0
LINE
8
BLACK
6
CONTINUOUS
10
0.802165
20
0.187008
11
0.801716
21
0.184748
0
LINE
8
BLACK
6
CONTINUOUS
10
0.801716
20
0.184748
11
0.800436
21
0.182832
0
LINE
8
BLACK
6
CONTINUOUS
10
0.800436
20
0.182832
11
0.79852
21
0.181552
0
LINE
8
BLACK
6
CONTINUOUS
10
0.79852
20
0.181552
11
0.79626
21
0.181102
0
LINE
8
BLACK
6
CONTINUOUS
10
0.79626
20
0.181102
11
0.784449
21
0.181102
0
LINE
8
BLACK
6
CONTINUOUS
10
0.784449
20
0.181102
11
0.782189
21
0.181552
0
LINE
8
BLACK
6
CONTINUOUS
10
0.782189
20
0.181552
11
0.780273
21
0.182832
0
LINE
8
BLACK
6
CONTINUOUS
10
0.780273
20
0.182832
11
0.778993
21
0.184748
0
LINE
8
BLACK
6
CONTINUOUS
10
0.778993
20
0.184748
11
0.778543
21
0.187008
0
LINE
8
BLACK
6
CONTINUOUS
10
0.778543
20
0.187008
11
0.778543
21
0.233268
0
LINE
8
BLACK
6
CONTINUOUS
10
0.778543
20
0.233268
11
0.778993
21
0.235528
0
LINE
8
BLACK
6
CONTINUOUS
10
0.778993
20
0.235528
11
0.780273
21
0.237444
0
LINE
8
BLACK
6
CONTINUOUS
10
0.780273
20
0.237444
11
0.782189
21
0.238724
0
LINE
8
BLACK
6
CONTINUOUS
10
0.782189
20
0.238724
11
0.784449
21
0.239173
0
LINE
8
BLACK
6
CONTINUOUS
10
0.784449
20
0.239173
11
0.79626
21
0.239173
0
LINE
8
BLACK
6
CONTINUOUS
10
0.79626
20
0.239173
11
0.79852
21
0.238724
0
LINE
8
BLACK
6
CONTINUOUS
10
0.969288
20
0.238724
11
0.971203
21
0.237444
0
LINE
8
BLACK
6
CONTINUOUS
10
0.971203
20
0.237444
11
0.972484
21
0.235528
0
LINE
8
BLACK
6
CONTINUOUS
10
0.972484
20
0.235528
11
0.972933
21
0.233268
0
LINE
8
BLACK
6
CONTINUOUS
10
0.972933
20
0.233268
11
0.972933
21
0.187008
0
LINE
8
BLACK
6
CONTINUOUS
10
0.972933
20
0.187008
11
0.972484
21
0.184748
0
LINE
8
BLACK
6
CONTINUOUS
10
0.972484
20
0.184748
11
0.971203
21
0.182832
0
LINE
8
BLACK
6
CONTINUOUS
10
0.971203
20
0.182832
11
0.969288
21
0.181552
0
LINE
8
BLACK
6
CONTINUOUS
10
0.969288
20
0.181552
11
0.967028
21
0.181102
0
LINE
8
BLACK
6
CONTINUOUS
10
0.967028
20
0.181102
11
0.955217
21
0.181102
0
LINE
8
BLACK
6
CONTINUOUS
10
0.955217
20
0.181102
11
0.952957
21
0.181552
0
LINE
8
BLACK
6
CONTINUOUS
10
0.952957
20
0.181552
11
0.951041
21
0.182832
0
LINE
8
BLACK
6
CONTINUOUS
10
0.951041
20
0.182832
11
0.949761
21
0.184748
0
LINE
8
BLACK
6
CONTINUOUS
10
0.949761
20
0.184748
11
0.949311
21
0.187008
0
LINE
8
BLACK
6
CONTINUOUS
10
0.949311
20
0.187008
11
0.949311
21
0.233268
0
LINE
8
BLACK
6
CONTINUOUS
10
0.949311
20
0.233268
11
0.949761
21
0.235528
0
LINE
8
BLACK
6
CONTINUOUS
10
0.949761
20
0.235528
11
0.951041
21
0.237444
0
LINE
8
BLACK
6
CONTINUOUS
10
0.951041
20
0.237444
11
0.952957
21
0.238724
0
LINE
8
BLACK
6
CONTINUOUS
10
0.952957
20
0.238724
11
0.955217
21
0.239173
0
LINE
8
BLACK
6
CONTINUOUS
10
0.955217
20
0.239173
11
0.967028
21
0.239173
0
LINE
8
BLACK
6
CONTINUOUS
10
0.967028
20
0.239173
11
0.969288
21
0.238724
0
LINE
8
BLACK
6
CONTINUOUS
10
1.14301
20
0.238724
11
1.14492
21
0.237444
0
LINE
8
BLACK
6
CONTINUOUS
10
1.14492
20
0.237444
11
1.1462
21
0.235528
0
LINE
8
BLACK
6
CONTINUOUS
10
1.1462
20
0.235528
11
1.14665
21
0.233268
0
LINE
8
BLACK
6
CONTINUOUS
10
1.14665
20
0.233268
11
1.14665
21
0.187008
0
LINE
8
BLACK
6
CONTINUOUS
10
1.14665
20
0.187008
11
1.1462
21
0.184748
0
LINE
8
BLACK
6
CONTINUOUS
10
1.1462
20
0.184748
11
1.14492
21
0.182832
0
LINE
8
BLACK
6
CONTINUOUS
10
1.14492
20
0.182832
11
1.14301
21
0.181552
0
LINE
8
BLACK
6
CONTINUOUS
10
1.14301
20
0.181552
11
1.14075
21
0.181102
0
LINE
8
BLACK
6
CONTINUOUS
10
1.14075
20
0.181102
11
1.12894
21
0.181102
0
LINE
8
BLACK
6
CONTINUOUS
10
1.12894
20
0.181102
11
1.12668
21
0.181552
0
LINE
8
BLACK
6
CONTINUOUS
10
1.12668
20
0.181552
11
1.12476
21
0.182832
0
LINE
8
BLACK
6
CONTINUOUS
10
1.12476
20
0.182832
11
1.12348
21
0.184748
0
LINE
8
BLACK
6
CONTINUOUS
10
1.12348
20
0.184748
11
1.12303
21
0.187008
0
LINE
8
BLACK
6
CONTINUOUS
10
1.12303
20
0.187008
11
1.12303
21
0.233268
0
LINE
8
BLACK
6
CONTINUOUS
10
1.12303
20
0.233268
11
1.12348
21
0.235528
0
LINE
8
BLACK
6
CONTINUOUS
10
1.12348
20
0.235528
11
1.12476
21
0.237444
0
LINE
8
BLACK
6
CONTINUOUS
10
1.12476
20
0.237444
11
1.12668
21
0.238724
0
LINE
8
BLACK
6
CONTINUOUS
10
1.12668
20
0.238724
11
1.12894
21
0.239173
0
LINE
8
BLACK
6
CONTINUOUS
10
1.12894
20
0.239173
11
1.14075
21
0.239173
0
LINE
8
BLACK
6
CONTINUOUS
10
1.14075
20
0.239173
11
1.14301
21
0.238724
0
LINE
8
BLACK
6
CONTINUOUS
10
0.835921
20
0.312543
11
0.837837
21
0.311262
0
LINE
8
BLACK
6
CONTINUOUS
10
0.837837
20
0.311262
11
0.839117
21
0.309347
0
LINE
8
BLACK
6
CONTINUOUS
10
0.839117
20
0.309347
11
0.839567
21
0.307087
0
LINE
8
BLACK
6
CONTINUOUS
10
0.839567
20
0.307087
11
0.839567
21
0.260827
0
LINE
8
BLACK
6
CONTINUOUS
10
0.839567
20
0.260827
11
0.839117
21
0.258567
0
LINE
8
BLACK
6
CONTINUOUS
10
0.839117
20
0.258567
11
0.837837
21
0.256651
0
LINE
8
BLACK
6
CONTINUOUS
10
0.837837
20
0.256651
11
0.835921
21
0.255371
0
LINE
8
BLACK
6
CONTINUOUS
10
0.835921
20
0.255371
11
0.833661
21
0.254921
0
LINE
8
BLACK
6
CONTINUOUS
10
0.833661
20
0.254921
11
0.82185
21
0.254921
0
LINE
8
BLACK
6
CONTINUOUS
10
0.82185
20
0.254921
11
0.81959
21
0.255371
0
LINE
8
BLACK
6
CONTINUOUS
10
0.81959
20
0.255371
11
0.817675
21
0.256651
0
LINE
8
BLACK
6
CONTINUOUS
10
0.817675
20
0.256651
11
0.816394
21
0.258567
0
LINE
8
BLACK
6
CONTINUOUS
10
0.816394
20
0.258567
11
0.815945
21
0.260827
0
LINE
8
BLACK
6
CONTINUOUS
10
0.815945
20
0.260827
11
0.815945
21
0.307087
0
LINE
8
BLACK
6
CONTINUOUS
10
0.815945
20
0.307087
11
0.816394
21
0.309347
0
LINE
8
BLACK
6
CONTINUOUS
10
0.816394
20
0.309347
11
0.817675
21
0.311262
0
LINE
8
BLACK
6
CONTINUOUS
10
0.817675
20
0.311262
11
0.81959
21
0.312543
0
LINE
8
BLACK
6
CONTINUOUS
10
0.81959
20
0.312543
11
0.82185
21
0.312992
0
LINE
8
BLACK
6
CONTINUOUS
10
0.82185
20
0.312992
11
0.833661
21
0.312992
0
LINE
8
BLACK
6
CONTINUOUS
10
0.833661
20
0.312992
11
0.835921
21
0.312543
0
LINE
8
BLACK
6
CONTINUOUS
10
1.10561
20
0.312543
11
1.10752
21
0.311262
0
LINE
8
BLACK
6
CONTINUOUS
10
1.10752
20
0.311262
11
1.1088
21
0.309347
0
LINE
8
BLACK
6
CONTINUOUS
10
1.1088
20
0.309347
11
1.10925
21
0.307087
0
LINE
8
BLACK
6
CONTINUOUS
10
1.10925
20
0.307087
11
1.10925
21
0.260827
0
LINE
8
BLACK
6
CONTINUOUS
10
1.10925
20
0.260827
11
1.1088
21
0.258567
0
LINE
8
BLACK
6
CONTINUOUS
10
1.1088
20
0.258567
11
1.10752
21
0.256651
0
LINE
8
BLACK
6
CONTINUOUS
10
1.10752
20
0.256651
11
1.10561
21
0.255371
0
LINE
8
BLACK
6
CONTINUOUS
10
1.10561
20
0.255371
11
1.10335
21
0.254921
0
LINE
8
BLACK
6
CONTINUOUS
10
1.10335
20
0.254921
11
1.09154
21
0.254921
0
LINE
8
BLACK
6
CONTINUOUS
10
1.09154
20
0.254921
11
1.08928
21
0.255371
0
LINE
8
BLACK
6
CONTINUOUS
10
1.08928
20
0.255371
11
1.08736
21
0.256651
0
LINE
8
BLACK
6
CONTINUOUS
10
1.08736
20
0.256651
11
1.08608
21
0.258567
0
LINE
8
BLACK
6
CONTINUOUS
10
1.08608
20
0.258567
11
1.08563
21
0.260827
0
LINE
8
BLACK
6
CONTINUOUS
10
1.08563
20
0.260827
11
1.08563
21
0.307087
0
LINE
8
BLACK
6
CONTINUOUS
10
1.08563
20
0.307087
11
1.08608
21
0.309347
0
LINE
8
BLACK
6
CONTINUOUS
10
1.08608
20
0.309347
11
1.08736
21
0.311262
0
LINE
8
BLACK
6
CONTINUOUS
10
1.08736
20
0.311262
11
1.08928
21
0.312543
0
LINE
8
BLACK
6
CONTINUOUS
10
1.08928
20
0.312543
11
1.09154
21
0.312992
0
LINE
8
BLACK
6
CONTINUOUS
10
1.09154
20
0.312992
11
1.10335
21
0.312992
0
LINE
8
BLACK
6
CONTINUOUS
10
1.10335
20
0.312992
11
1.10561
21
0.312543
0
LINE
8
BLACK
6
CONTINUOUS
10
0.931886
20
0.312543
11
0.933802
21
0.311262
0
LINE
8
BLACK
6
CONTINUOUS
10
0.933802
20
0.311262
11
0.935082
21
0.309347
0
LINE
8
BLACK
6
CONTINUOUS
10
0.935082
20
0.309347
11
0.935531
21
0.307087
0
LINE
8
BLACK
6
CONTINUOUS
10
0.935531
20
0.307087
11
0.935531
21
0.260827
0
LINE
8
BLACK
6
CONTINUOUS
10
0.935531
20
0.260827
11
0.935082
21
0.258567
0
LINE
8
BLACK
6
CONTINUOUS
10
0.935082
20
0.258567
11
0.933802
21
0.256651
0
LINE
8
BLACK
6
CONTINUOUS
10
0.933802
20
0.256651
11
0.931886
21
0.255371
0
LINE
8
BLACK
6
CONTINUOUS
10
0.931886
20
0.255371
11
0.929626
21
0.254921
0
LINE
8
BLACK
6
CONTINUOUS
10
0.929626
20
0.254921
11
0.917815
21
0.254921
0
LINE
8
BLACK
6
CONTINUOUS
10
0.917815
20
0.254921
11
0.915555
21
0.255371
0
LINE
8
BLACK
6
CONTINUOUS
10
0.915555
20
0.255371
11
0.913639
21
0.256651
0
LINE
8
BLACK
6
CONTINUOUS
10
0.913639
20
0.256651
11
0.912359
21
0.258567
0
LINE
8
BLACK
6
CONTINUOUS
10
0.912359
20
0.258567
11
0.911909
21
0.260827
0
LINE
8
BLACK
6
CONTINUOUS
10
0.911909
20
0.260827
11
0.911909
21
0.307087
0
LINE
8
BLACK
6
CONTINUOUS
10
0.911909
20
0.307087
11
0.912359
21
0.309347
0
LINE
8
BLACK
6
CONTINUOUS
10
0.912359
20
0.309347
11
0.913639
21
0.311262
0
LINE
8
BLACK
6
CONTINUOUS
10
0.913639
20
0.311262
11
0.915555
21
0.312543
0
LINE
8
BLACK
6
CONTINUOUS
10
0.915555
20
0.312543
11
0.917815
21
0.312992
0
LINE
8
BLACK
6
CONTINUOUS
10
0.917815
20
0.312992
11
0.929626
21
0.312992
0
LINE
8
BLACK
6
CONTINUOUS
10
0.929626
20
0.312992
11
0.931886
21
0.312543
0
LINE
8
BLACK
6
CONTINUOUS
10
1.00669
20
0.312543
11
1.0086
21
0.311262
0
LINE
8
BLACK
6
CONTINUOUS
10
1.0086
20
0.311262
11
1.00989
21
0.309347
0
LINE
8
BLACK
6
CONTINUOUS
10
1.00989
20
0.309347
11
1.01033
21
0.307087
0
LINE
8
BLACK
6
CONTINUOUS
10
1.01033
20
0.307087
11
1.01033
21
0.260827
0
LINE
8
BLACK
6
CONTINUOUS
10
1.01033
20
0.260827
11
1.00989
21
0.258567
0
LINE
8
BLACK
6
CONTINUOUS
10
1.00989
20
0.258567
11
1.0086
21
0.256651
0
LINE
8
BLACK
6
CONTINUOUS
10
1.0086
20
0.256651
11
1.00669
21
0.255371
0
LINE
8
BLACK
6
CONTINUOUS
10
1.00669
20
0.255371
11
1.00443
21
0.254921
0
LINE
8
BLACK
6
CONTINUOUS
10
1.00443
20
0.254921
11
0.992618
21
0.254921
0
LINE
8
BLACK
6
CONTINUOUS
10
0.992618
20
0.254921
11
0.990358
21
0.255371
0
LINE
8
BLACK
6
CONTINUOUS
10
0.990358
20
0.255371
11
0.988442
21
0.256651
0
LINE
8
BLACK
6
CONTINUOUS
10
0.988442
20
0.256651
11
0.987162
21
0.258567
0
LINE
8
BLACK
6
CONTINUOUS
10
0.987162
20
0.258567
11
0.986713
21
0.260827
0
LINE
8
BLACK
6
CONTINUOUS
10
0.986713
20
0.260827
11
0.986713
21
0.307087
0
LINE
8
BLACK
6
CONTINUOUS
10
0.986713
20
0.307087
11
0.987162
21
0.309347
0
LINE
8
BLACK
6
CONTINUOUS
10
0.987162
20
0.309347
11
0.988442
21
0.311262
0
LINE
8
BLACK
6
CONTINUOUS
10
0.988442
20
0.311262
11
0.990358
21
0.312543
0
LINE
8
BLACK
6
CONTINUOUS
10
0.990358
20
0.312543
11
0.992618
21
0.312992
0
LINE
8
BLACK
6
CONTINUOUS
10
0.992618
20
0.312992
11
1.00443
21
0.312992
0
LINE
8
BLACK
6
CONTINUOUS
10
1.00443
20
0.312992
11
1.00669
21
0.312543
0
LINE
8
BLACK
6
CONTINUOUS
10
1.18041
20
0.312543
11
1.18233
21
0.311262
0
LINE
8
BLACK
6
CONTINUOUS
10
1.18233
20
0.311262
11
1.18361
21
0.309347
0
LINE
8
BLACK
6
CONTINUOUS
10
1.18361
20
0.309347
11
1.18406
21
0.307087
0
LINE
8
BLACK
6
CONTINUOUS
10
1.18406
20
0.307087
11
1.18406
21
0.260827
0
LINE
8
BLACK
6
CONTINUOUS
10
1.18406
20
0.260827
11
1.18361
21
0.258567
0
LINE
8
BLACK
6
CONTINUOUS
10
1.18361
20
0.258567
11
1.18233
21
0.256651
0
LINE
8
BLACK
6
CONTINUOUS
10
1.18233
20
0.256651
11
1.18041
21
0.255371
0
LINE
8
BLACK
6
CONTINUOUS
10
1.18041
20
0.255371
11
1.17815
21
0.254921
0
LINE
8
BLACK
6
CONTINUOUS
10
1.17815
20
0.254921
11
1.16634
21
0.254921
0
LINE
8
BLACK
6
CONTINUOUS
10
1.16634
20
0.254921
11
1.16408
21
0.255371
0
LINE
8
BLACK
6
CONTINUOUS
10
1.16408
20
0.255371
11
1.16216
21
0.256651
0
LINE
8
BLACK
6
CONTINUOUS
10
1.16216
20
0.256651
11
1.16088
21
0.258567
0
LINE
8
BLACK
6
CONTINUOUS
10
1.16088
20
0.258567
11
1.16043
21
0.260827
0
LINE
8
BLACK
6
CONTINUOUS
10
1.16043
20
0.260827
11
1.16043
21
0.307087
0
LINE
8
BLACK
6
CONTINUOUS
10
1.16043
20
0.307087
11
1.16088
21
0.309347
0
LINE
8
BLACK
6
CONTINUOUS
10
1.16088
20
0.309347
11
1.16216
21
0.311262
0
LINE
8
BLACK
6
CONTINUOUS
10
1.16216
20
0.311262
11
1.16408
21
0.312543
0
LINE
8
BLACK
6
CONTINUOUS
10
1.16408
20
0.312543
11
1.16634
21
0.312992
0
LINE
8
BLACK
6
CONTINUOUS
10
1.16634
20
0.312992
11
1.17815
21
0.312992
0
LINE
8
BLACK
6
CONTINUOUS
10
1.17815
20
0.312992
11
1.18041
21
0.312543
0
LINE
8
BLACK
6
CONTINUOUS
10
0.761118
20
0.312543
11
0.763034
21
0.311262
0
LINE
8
BLACK
6
CONTINUOUS
10
0.763034
20
0.311262
11
0.764314
21
0.309347
0
LINE
8
BLACK
6
CONTINUOUS
10
0.764314
20
0.309347
11
0.764764
21
0.307087
0
LINE
8
BLACK
6
CONTINUOUS
10
0.764764
20
0.307087
11
0.764764
21
0.260827
0
LINE
8
BLACK
6
CONTINUOUS
10
0.764764
20
0.260827
11
0.764314
21
0.258567
0
LINE
8
BLACK
6
CONTINUOUS
10
0.764314
20
0.258567
11
0.763034
21
0.256651
0
LINE
8
BLACK
6
CONTINUOUS
10
0.763034
20
0.256651
11
0.761118
21
0.255371
0
LINE
8
BLACK
6
CONTINUOUS
10
0.761118
20
0.255371
11
0.758858
21
0.254921
0
LINE
8
BLACK
6
CONTINUOUS
10
0.758858
20
0.254921
11
0.747047
21
0.254921
0
LINE
8
BLACK
6
CONTINUOUS
10
0.747047
20
0.254921
11
0.744787
21
0.255371
0
LINE
8
BLACK
6
CONTINUOUS
10
0.744787
20
0.255371
11
0.742871
21
0.256651
0
LINE
8
BLACK
6
CONTINUOUS
10
0.742871
20
0.256651
11
0.741591
21
0.258567
0
LINE
8
BLACK
6
CONTINUOUS
10
0.741591
20
0.258567
11
0.741142
21
0.260827
0
LINE
8
BLACK
6
CONTINUOUS
10
0.741142
20
0.260827
11
0.741142
21
0.307087
0
LINE
8
BLACK
6
CONTINUOUS
10
0.741142
20
0.307087
11
0.741591
21
0.309347
0
LINE
8
BLACK
6
CONTINUOUS
10
0.741591
20
0.309347
11
0.742871
21
0.311262
0
LINE
8
BLACK
6
CONTINUOUS
10
0.742871
20
0.311262
11
0.744787
21
0.312543
0
LINE
8
BLACK
6
CONTINUOUS
10
0.744787
20
0.312543
11
0.747047
21
0.312992
0
LINE
8
BLACK
6
CONTINUOUS
10
0.747047
20
0.312992
11
0.758858
21
0.312992
0
LINE
8
BLACK
6
CONTINUOUS
10
0.758858
20
0.312992
11
0.761118
21
0.312543
0
LINE
8
BLACK
6
CONTINUOUS
10
0.966365
20
0.459389
11
0.969558
21
0.457255
0
LINE
8
BLACK
6
CONTINUOUS
10
0.969558
20
0.457255
11
0.971692
21
0.454062
0
LINE
8
BLACK
6
CONTINUOUS
10
0.971692
20
0.454062
11
0.972441
21
0.450295
0
LINE
8
BLACK
6
CONTINUOUS
10
0.972441
20
0.450295
11
0.972441
21
0.429626
0
LINE
8
BLACK
6
CONTINUOUS
10
0.972441
20
0.429626
11
0.971692
21
0.425859
0
LINE
8
BLACK
6
CONTINUOUS
10
0.971692
20
0.425859
11
0.969558
21
0.422666
0
LINE
8
BLACK
6
CONTINUOUS
10
0.969558
20
0.422666
11
0.966365
21
0.420533
0
LINE
8
BLACK
6
CONTINUOUS
10
0.966365
20
0.420533
11
0.962598
21
0.419783
0
LINE
8
BLACK
6
CONTINUOUS
10
0.962598
20
0.419783
11
0.927165
21
0.419783
0
LINE
8
BLACK
6
CONTINUOUS
10
0.927165
20
0.419783
11
0.923399
21
0.420533
0
LINE
8
BLACK
6
CONTINUOUS
10
0.923399
20
0.420533
11
0.920206
21
0.422666
0
LINE
8
BLACK
6
CONTINUOUS
10
0.920206
20
0.422666
11
0.918072
21
0.425859
0
LINE
8
BLACK
6
CONTINUOUS
10
0.918072
20
0.425859
11
0.917323
21
0.429626
0
LINE
8
BLACK
6
CONTINUOUS
10
0.917323
20
0.429626
11
0.917323
21
0.450295
0
LINE
8
BLACK
6
CONTINUOUS
10
0.917323
20
0.450295
11
0.918072
21
0.454062
0
LINE
8
BLACK
6
CONTINUOUS
10
0.918072
20
0.454062
11
0.920206
21
0.457255
0
LINE
8
BLACK
6
CONTINUOUS
10
0.920206
20
0.457255
11
0.923399
21
0.459389
0
LINE
8
BLACK
6
CONTINUOUS
10
0.923399
20
0.459389
11
0.927165
21
0.460138
0
LINE
8
BLACK
6
CONTINUOUS
10
0.927165
20
0.460138
11
0.962598
21
0.460138
0
LINE
8
BLACK
6
CONTINUOUS
10
0.962598
20
0.460138
11
0.966365
21
0.459389
0
LINE
8
BLACK
6
CONTINUOUS
10
1.10022
20
0.459881
11
1.10342
21
0.457747
0
LINE
8
BLACK
6
CONTINUOUS
10
1.10342
20
0.457747
11
1.10555
21
0.454554
0
LINE
8
BLACK
6
CONTINUOUS
10
1.10555
20
0.454554
11
1.1063
21
0.450787
0
LINE
8
BLACK
6
CONTINUOUS
10
1.1063
20
0.450787
11
1.1063
21
0.430118
0
LINE
8
BLACK
6
CONTINUOUS
10
1.1063
20
0.430118
11
1.10555
21
0.426352
0
LINE
8
BLACK
6
CONTINUOUS
10
1.10555
20
0.426352
11
1.10342
21
0.423158
0
LINE
8
BLACK
6
CONTINUOUS
10
1.10342
20
0.423158
11
1.10022
21
0.421025
0
LINE
8
BLACK
6
CONTINUOUS
10
1.10022
20
0.421025
11
1.09646
21
0.420276
0
LINE
8
BLACK
6
CONTINUOUS
10
1.09646
20
0.420276
11
1.06102
21
0.420276
0
LINE
8
BLACK
6
CONTINUOUS
10
1.06102
20
0.420276
11
1.05726
21
0.421025
0
LINE
8
BLACK
6
CONTINUOUS
10
1.05726
20
0.421025
11
1.05406
21
0.423158
0
LINE
8
BLACK
6
CONTINUOUS
10
1.05406
20
0.423158
11
1.05193
21
0.426352
0
LINE
8
BLACK
6
CONTINUOUS
10
1.05193
20
0.426352
11
1.05118
21
0.430118
0
LINE
8
BLACK
6
CONTINUOUS
10
1.05118
20
0.430118
11
1.05118
21
0.450787
0
LINE
8
BLACK
6
CONTINUOUS
10
1.05118
20
0.450787
11
1.05193
21
0.454554
0
LINE
8
BLACK
6
CONTINUOUS
10
1.05193
20
0.454554
11
1.05406
21
0.457747
0
LINE
8
BLACK
6
CONTINUOUS
10
1.05406
20
0.457747
11
1.05726
21
0.459881
0
LINE
8
BLACK
6
CONTINUOUS
10
1.05726
20
0.459881
11
1.06102
21
0.46063
0
LINE
8
BLACK
6
CONTINUOUS
10
1.06102
20
0.46063
11
1.09646
21
0.46063
0
LINE
8
BLACK
6
CONTINUOUS
10
1.09646
20
0.46063
11
1.10022
21
0.459881
0
LINE
8
BLACK
6
CONTINUOUS
10
0.765085
20
0.48055
11
0.768279
21
0.478416
0
LINE
8
BLACK
6
CONTINUOUS
10
0.768279
20
0.478416
11
0.770412
21
0.475223
0
LINE
8
BLACK
6
CONTINUOUS
10
0.770412
20
0.475223
11
0.771161
21
0.471457
0
LINE
8
BLACK
6
CONTINUOUS
10
0.771161
20
0.471457
11
0.771161
21
0.436024
0
LINE
8
BLACK
6
CONTINUOUS
10
0.771161
20
0.436024
11
0.770412
21
0.432257
0
LINE
8
BLACK
6
CONTINUOUS
10
0.770412
20
0.432257
11
0.768279
21
0.429064
0
LINE
8
BLACK
6
CONTINUOUS
10
0.768279
20
0.429064
11
0.765085
21
0.42693
0
LINE
8
BLACK
6
CONTINUOUS
10
0.765085
20
0.42693
11
0.761319
21
0.426181
0
LINE
8
BLACK
6
CONTINUOUS
10
0.761319
20
0.426181
11
0.74065
21
0.426181
0
LINE
8
BLACK
6
CONTINUOUS
10
0.74065
20
0.426181
11
0.736883
21
0.42693
0
LINE
8
BLACK
6
CONTINUOUS
10
0.736883
20
0.42693
11
0.73369
21
0.429064
0
LINE
8
BLACK
6
CONTINUOUS
10
0.73369
20
0.429064
11
0.731556
21
0.432257
0
LINE
8
BLACK
6
CONTINUOUS
10
0.731556
20
0.432257
11
0.730807
21
0.436024
0
LINE
8
BLACK
6
CONTINUOUS
10
0.730807
20
0.436024
11
0.730807
21
0.471457
0
LINE
8
BLACK
6
CONTINUOUS
10
0.730807
20
0.471457
11
0.731556
21
0.475223
0
LINE
8
BLACK
6
CONTINUOUS
10
0.731556
20
0.475223
11
0.73369
21
0.478416
0
LINE
8
BLACK
6
CONTINUOUS
10
0.73369
20
0.478416
11
0.736883
21
0.48055
0
LINE
8
BLACK
6
CONTINUOUS
10
0.736883
20
0.48055
11
0.74065
21
0.481299
0
LINE
8
BLACK
6
CONTINUOUS
10
0.74065
20
0.481299
11
0.761319
21
0.481299
0
LINE
8
BLACK
6
CONTINUOUS
10
0.761319
20
0.481299
11
0.765085
21
0.48055
0
LINE
8
BLACK
6
CONTINUOUS
10
0.836936
20
0.48055
11
0.840129
21
0.478416
0
LINE
8
BLACK
6
CONTINUOUS
10
0.840129
20
0.478416
11
0.842263
21
0.475223
0
LINE
8
BLACK
6
CONTINUOUS
10
0.842263
20
0.475223
11
0.843012
21
0.471457
0
LINE
8
BLACK
6
CONTINUOUS
10
0.843012
20
0.471457
11
0.843012
21
0.436024
0
LINE
8
BLACK
6
CONTINUOUS
10
0.843012
20
0.436024
11
0.842263
21
0.432257
0
LINE
8
BLACK
6
CONTINUOUS
10
0.842263
20
0.432257
11
0.840129
21
0.429064
0
LINE
8
BLACK
6
CONTINUOUS
10
0.840129
20
0.429064
11
0.836936
21
0.42693
0
LINE
8
BLACK
6
CONTINUOUS
10
0.836936
20
0.42693
11
0.833169
21
0.426181
0
LINE
8
BLACK
6
CONTINUOUS
10
0.833169
20
0.426181
11
0.8125
21
0.426181
0
LINE
8
BLACK
6
CONTINUOUS
10
0.8125
20
0.426181
11
0.808733
21
0.42693
0
LINE
8
BLACK
6
CONTINUOUS
10
0.808733
20
0.42693
11
0.80554
21
0.429064
0
LINE
8
BLACK
6
CONTINUOUS
10
0.80554
20
0.429064
11
0.803407
21
0.432257
0
LINE
8
BLACK
6
CONTINUOUS
10
0.803407
20
0.432257
11
0.802657
21
0.436024
0
LINE
8
BLACK
6
CONTINUOUS
10
0.802657
20
0.436024
11
0.802657
21
0.471457
0
LINE
8
BLACK
6
CONTINUOUS
10
0.802657
20
0.471457
11
0.803407
21
0.475223
0
LINE
8
BLACK
6
CONTINUOUS
10
0.803407
20
0.475223
11
0.80554
21
0.478416
0
LINE
8
BLACK
6
CONTINUOUS
10
0.80554
20
0.478416
11
0.808733
21
0.48055
0
LINE
8
BLACK
6
CONTINUOUS
10
0.808733
20
0.48055
11
0.8125
21
0.481299
0
LINE
8
BLACK
6
CONTINUOUS
10
0.8125
20
0.481299
11
0.833169
21
0.481299
0
LINE
8
BLACK
6
CONTINUOUS
10
0.833169
20
0.481299
11
0.836936
21
0.48055
0
LINE
8
BLACK
6
CONTINUOUS
10
0.966365
20
0.531239
11
0.969558
21
0.529105
0
LINE
8
BLACK
6
CONTINUOUS
10
0.969558
20
0.529105
11
0.971692
21
0.525912
0
LINE
8
BLACK
6
CONTINUOUS
10
0.971692
20
0.525912
11
0.972441
21
0.522146
0
LINE
8
BLACK
6
CONTINUOUS
10
0.972441
20
0.522146
11
0.972441
21
0.501476
0
LINE
8
BLACK
6
CONTINUOUS
10
0.972441
20
0.501476
11
0.971692
21
0.49771
0
LINE
8
BLACK
6
CONTINUOUS
10
0.971692
20
0.49771
11
0.969558
21
0.494517
0
LINE
8
BLACK
6
CONTINUOUS
10
0.969558
20
0.494517
11
0.966365
21
0.492383
0
LINE
8
BLACK
6
CONTINUOUS
10
0.966365
20
0.492383
11
0.962598
21
0.491634
0
LINE
8
BLACK
6
CONTINUOUS
10
0.962598
20
0.491634
11
0.927165
21
0.491634
0
LINE
8
BLACK
6
CONTINUOUS
10
0.927165
20
0.491634
11
0.923399
21
0.492383
0
LINE
8
BLACK
6
CONTINUOUS
10
0.923399
20
0.492383
11
0.920206
21
0.494517
0
LINE
8
BLACK
6
CONTINUOUS
10
0.920206
20
0.494517
11
0.918072
21
0.49771
0
LINE
8
BLACK
6
CONTINUOUS
10
0.918072
20
0.49771
11
0.917323
21
0.501476
0
LINE
8
BLACK
6
CONTINUOUS
10
0.917323
20
0.501476
11
0.917323
21
0.522146
0
LINE
8
BLACK
6
CONTINUOUS
10
0.917323
20
0.522146
11
0.918072
21
0.525912
0
LINE
8
BLACK
6
CONTINUOUS
10
0.918072
20
0.525912
11
0.920206
21
0.529105
0
LINE
8
BLACK
6
CONTINUOUS
10
0.920206
20
0.529105
11
0.923399
21
0.531239
0
LINE
8
BLACK
6
CONTINUOUS
10
0.923399
20
0.531239
11
0.927165
21
0.531988
0
LINE
8
BLACK
6
CONTINUOUS
10
0.927165
20
0.531988
11
0.962598
21
0.531988
0
LINE
8
BLACK
6
CONTINUOUS
10
0.962598
20
0.531988
11
0.966365
21
0.531239
0
LINE
8
BLACK
6
CONTINUOUS
10
1.10022
20
0.531731
11
1.10342
21
0.529598
0
LINE
8
BLACK
6
CONTINUOUS
10
1.10342
20
0.529598
11
1.10555
21
0.526404
0
LINE
8
BLACK
6
CONTINUOUS
10
1.10555
20
0.526404
11
1.1063
21
0.522638
0
LINE
8
BLACK
6
CONTINUOUS
10
1.1063
20
0.522638
11
1.1063
21
0.501969
0
LINE
8
BLACK
6
CONTINUOUS
10
1.1063
20
0.501969
11
1.10555
21
0.498202
0
LINE
8
BLACK
6
CONTINUOUS
10
1.10555
20
0.498202
11
1.10342
21
0.495009
0
LINE
8
BLACK
6
CONTINUOUS
10
1.10342
20
0.495009
11
1.10022
21
0.492875
0
LINE
8
BLACK
6
CONTINUOUS
10
1.10022
20
0.492875
11
1.09646
21
0.492126
0
LINE
8
BLACK
6
CONTINUOUS
10
1.09646
20
0.492126
11
1.06102
21
0.492126
0
LINE
8
BLACK
6
CONTINUOUS
10
1.06102
20
0.492126
11
1.05726
21
0.492875
0
LINE
8
BLACK
6
CONTINUOUS
10
1.05726
20
0.492875
11
1.05406
21
0.495009
0
LINE
8
BLACK
6
CONTINUOUS
10
1.05406
20
0.495009
11
1.05193
21
0.498202
0
LINE
8
BLACK
6
CONTINUOUS
10
1.05193
20
0.498202
11
1.05118
21
0.501969
0
LINE
8
BLACK
6
CONTINUOUS
10
1.05118
20
0.501969
11
1.05118
21
0.522638
0
LINE
8
BLACK
6
CONTINUOUS
10
1.05118
20
0.522638
11
1.05193
21
0.526404
0
LINE
8
BLACK
6
CONTINUOUS
10
1.05193
20
0.526404
11
1.05406
21
0.529598
0
LINE
8
BLACK
6
CONTINUOUS
10
1.05406
20
0.529598
11
1.05726
21
0.531731
0
LINE
8
BLACK
6
CONTINUOUS
10
1.05726
20
0.531731
11
1.06102
21
0.53248
0
LINE
8
BLACK
6
CONTINUOUS
10
1.06102
20
0.53248
11
1.09646
21
0.53248
0
LINE
8
BLACK
6
CONTINUOUS
10
1.09646
20
0.53248
11
1.10022
21
0.531731
0
LINE
8
BLACK
6
CONTINUOUS
10
0.721457
20
0.575787
11
0.623031
21
0.575787
0
LINE
8
BLACK
6
CONTINUOUS
10
0.623031
20
0.575787
11
0.623031
21
0.646654
0
LINE
8
BLACK
6
CONTINUOUS
10
0.623031
20
0.646654
11
0.721457
21
0.646654
0
LINE
8
BLACK
6
CONTINUOUS
10
0.721457
20
0.646654
11
0.721457
21
0.575787
0
LINE
8
BLACK
6
CONTINUOUS
10
0.878937
20
0.575787
11
0.780512
21
0.575787
0
LINE
8
BLACK
6
CONTINUOUS
10
0.780512
20
0.575787
11
0.780512
21
0.646654
0
LINE
8
BLACK
6
CONTINUOUS
10
0.780512
20
0.646654
11
0.878937
21
0.646654
0
LINE
8
BLACK
6
CONTINUOUS
10
0.878937
20
0.646654
11
0.878937
21
0.575787
0
LINE
8
BLACK
6
CONTINUOUS
10
0.794121
20
0.751219
11
0.797314
21
0.749086
0
LINE
8
BLACK
6
CONTINUOUS
10
0.797314
20
0.749086
11
0.799448
21
0.745893
0
LINE
8
BLACK
6
CONTINUOUS
10
0.799448
20
0.745893
11
0.800197
21
0.742126
0
LINE
8
BLACK
6
CONTINUOUS
10
0.800197
20
0.742126
11
0.800197
21
0.706693
0
LINE
8
BLACK
6
CONTINUOUS
10
0.800197
20
0.706693
11
0.799448
21
0.702926
0
LINE
8
BLACK
6
CONTINUOUS
10
0.799448
20
0.702926
11
0.797314
21
0.699733
0
LINE
8
BLACK
6
CONTINUOUS
10
0.797314
20
0.699733
11
0.794121
21
0.6976
0
LINE
8
BLACK
6
CONTINUOUS
10
0.794121
20
0.6976
11
0.790354
21
0.69685
0
LINE
8
BLACK
6
CONTINUOUS
10
0.790354
20
0.69685
11
0.769685
21
0.69685
0
LINE
8
BLACK
6
CONTINUOUS
10
0.769685
20
0.69685
11
0.765918
21
0.6976
0
LINE
8
BLACK
6
CONTINUOUS
10
0.765918
20
0.6976
11
0.762725
21
0.699733
0
LINE
8
BLACK
6
CONTINUOUS
10
0.762725
20
0.699733
11
0.760592
21
0.702926
0
LINE
8
BLACK
6
CONTINUOUS
10
0.760592
20
0.702926
11
0.759843
21
0.706693
0
LINE
8
BLACK
6
CONTINUOUS
10
0.759843
20
0.706693
11
0.759843
21
0.742126
0
LINE
8
BLACK
6
CONTINUOUS
10
0.759843
20
0.742126
11
0.760592
21
0.745893
0
LINE
8
BLACK
6
CONTINUOUS
10
0.760592
20
0.745893
11
0.762725
21
0.749086
0
LINE
8
BLACK
6
CONTINUOUS
10
0.762725
20
0.749086
11
0.765918
21
0.751219
0
LINE
8
BLACK
6
CONTINUOUS
10
0.765918
20
0.751219
11
0.769685
21
0.751969
0
LINE
8
BLACK
6
CONTINUOUS
10
0.769685
20
0.751969
11
0.790354
21
0.751969
0
LINE
8
BLACK
6
CONTINUOUS
10
0.790354
20
0.751969
11
0.794121
21
0.751219
0
LINE
8
BLACK
6
CONTINUOUS
10
0.722271
20
0.751219
11
0.725464
21
0.749086
0
LINE
8
BLACK
6
CONTINUOUS
10
0.725464
20
0.749086
11
0.727597
21
0.745893
0
LINE
8
BLACK
6
CONTINUOUS
10
0.727597
20
0.745893
11
0.728346
21
0.742126
0
LINE
8
BLACK
6
CONTINUOUS
10
0.728346
20
0.742126
11
0.728346
21
0.706693
0
LINE
8
BLACK
6
CONTINUOUS
10
0.728346
20
0.706693
11
0.727597
21
0.702926
0
LINE
8
BLACK
6
CONTINUOUS
10
0.727597
20
0.702926
11
0.725464
21
0.699733
0
LINE
8
BLACK
6
CONTINUOUS
10
0.725464
20
0.699733
11
0.722271
21
0.6976
0
LINE
8
BLACK
6
CONTINUOUS
10
0.722271
20
0.6976
11
0.718504
21
0.69685
0
LINE
8
BLACK
6
CONTINUOUS
10
0.718504
20
0.69685
11
0.697835
21
0.69685
0
LINE
8
BLACK
6
CONTINUOUS
10
0.697835
20
0.69685
11
0.694068
21
0.6976
0
LINE
8
BLACK
6
CONTINUOUS
10
0.694068
20
0.6976
11
0.690875
21
0.699733
0
LINE
8
BLACK
6
CONTINUOUS
10
0.690875
20
0.699733
11
0.688741
21
0.702926
0
LINE
8
BLACK
6
CONTINUOUS
10
0.688741
20
0.702926
11
0.687992
21
0.706693
0
LINE
8
BLACK
6
CONTINUOUS
10
0.687992
20
0.706693
11
0.687992
21
0.742126
0
LINE
8
BLACK
6
CONTINUOUS
10
0.687992
20
0.742126
11
0.688741
21
0.745893
0
LINE
8
BLACK
6
CONTINUOUS
10
0.688741
20
0.745893
11
0.690875
21
0.749086
0
LINE
8
BLACK
6
CONTINUOUS
10
0.690875
20
0.749086
11
0.694068
21
0.751219
0
LINE
8
BLACK
6
CONTINUOUS
10
0.694068
20
0.751219
11
0.697835
21
0.751969
0
LINE
8
BLACK
6
CONTINUOUS
10
0.697835
20
0.751969
11
0.718504
21
0.751969
0
LINE
8
BLACK
6
CONTINUOUS
10
0.718504
20
0.751969
11
0.722271
21
0.751219
0
LINE
8
BLACK
6
CONTINUOUS
10
0.38189
20
1.02953
11
0.28937
21
1.02953
0
LINE
8
BLACK
6
CONTINUOUS
10
0.28937
20
1.02953
11
0.28937
21
1.23031
0
LINE
8
BLACK
6
CONTINUOUS
10
0.28937
20
1.23031
11
0.38189
21
1.23031
0
LINE
8
BLACK
6
CONTINUOUS
10
0.38189
20
1.23031
11
0.38189
21
1.02953
0
LINE
8
BLACK
6
CONTINUOUS
10
0.545276
20
1.02953
11
0.452756
21
1.02953
0
LINE
8
BLACK
6
CONTINUOUS
10
0.452756
20
1.02953
11
0.452756
21
1.23031
0
LINE
8
BLACK
6
CONTINUOUS
10
0.452756
20
1.23031
11
0.545276
21
1.23031
0
LINE
8
BLACK
6
CONTINUOUS
10
0.545276
20
1.23031
11
0.545276
21
1.02953
0
LINE
8
BLACK
6
CONTINUOUS
10
0.153543
20
1.0689
11
0.0826772
21
1.0689
0
LINE
8
BLACK
6
CONTINUOUS
10
0.0826772
20
1.0689
11
0.0826772
21
1.16732
0
LINE
8
BLACK
6
CONTINUOUS
10
0.0826772
20
1.16732
11
0.153543
21
1.16732
0
LINE
8
BLACK
6
CONTINUOUS
10
0.153543
20
1.16732
11
0.153543
21
1.0689
0
LINE
8
BLACK
6
CONTINUOUS
10
0.631871
20
1.17201
11
0.634985
21
1.16993
0
LINE
8
BLACK
6
CONTINUOUS
10
0.634985
20
1.16993
11
0.637065
21
1.16681
0
LINE
8
BLACK
6
CONTINUOUS
10
0.637065
20
1.16681
11
0.637795
21
1.16314
0
LINE
8
BLACK
6
CONTINUOUS
10
0.637795
20
1.16314
11
0.637795
21
1.14395
0
LINE
8
BLACK
6
CONTINUOUS
10
0.637795
20
1.14395
11
0.637065
21
1.14027
0
LINE
8
BLACK
6
CONTINUOUS
10
0.637065
20
1.14027
11
0.634985
21
1.13716
0
LINE
8
BLACK
6
CONTINUOUS
10
0.634985
20
1.13716
11
0.631871
21
1.13508
0
LINE
8
BLACK
6
CONTINUOUS
10
0.631871
20
1.13508
11
0.628199
21
1.13435
0
LINE
8
BLACK
6
CONTINUOUS
10
0.628199
20
1.13435
11
0.592274
21
1.13435
0
LINE
8
BLACK
6
CONTINUOUS
10
0.592274
20
1.13435
11
0.588601
21
1.13508
0
LINE
8
BLACK
6
CONTINUOUS
10
0.588601
20
1.13508
11
0.585488
21
1.13716
0
LINE
8
BLACK
6
CONTINUOUS
10
0.585488
20
1.13716
11
0.583408
21
1.14027
0
LINE
8
BLACK
6
CONTINUOUS
10
0.583408
20
1.14027
11
0.582677
21
1.14395
0
LINE
8
BLACK
6
CONTINUOUS
10
0.582677
20
1.14395
11
0.582677
21
1.16314
0
LINE
8
BLACK
6
CONTINUOUS
10
0.582677
20
1.16314
11
0.583408
21
1.16681
0
LINE
8
BLACK
6
CONTINUOUS
10
0.583408
20
1.16681
11
0.585488
21
1.16993
0
LINE
8
BLACK
6
CONTINUOUS
10
0.585488
20
1.16993
11
0.588601
21
1.17201
0
LINE
8
BLACK
6
CONTINUOUS
10
0.588601
20
1.17201
11
0.592274
21
1.17274
0
LINE
8
BLACK
6
CONTINUOUS
10
0.592274
20
1.17274
11
0.628199
21
1.17274
0
LINE
8
BLACK
6
CONTINUOUS
10
0.628199
20
1.17274
11
0.631871
21
1.17201
0
LINE
8
BLACK
6
CONTINUOUS
10
0.631871
20
1.24582
11
0.634985
21
1.24374
0
LINE
8
BLACK
6
CONTINUOUS
10
0.634985
20
1.24374
11
0.637065
21
1.24063
0
LINE
8
BLACK
6
CONTINUOUS
10
0.637065
20
1.24063
11
0.637795
21
1.23696
0
LINE
8
BLACK
6
CONTINUOUS
10
0.637795
20
1.23696
11
0.637795
21
1.21777
0
LINE
8
BLACK
6
CONTINUOUS
10
0.637795
20
1.21777
11
0.637065
21
1.21409
0
LINE
8
BLACK
6
CONTINUOUS
10
0.637065
20
1.21409
11
0.634985
21
1.21098
0
LINE
8
BLACK
6
CONTINUOUS
10
0.634985
20
1.21098
11
0.631871
21
1.2089
0
LINE
8
BLACK
6
CONTINUOUS
10
0.631871
20
1.2089
11
0.628199
21
1.20817
0
LINE
8
BLACK
6
CONTINUOUS
10
0.628199
20
1.20817
11
0.592274
21
1.20817
0
LINE
8
BLACK
6
CONTINUOUS
10
0.592274
20
1.20817
11
0.588601
21
1.2089
0
LINE
8
BLACK
6
CONTINUOUS
10
0.588601
20
1.2089
11
0.585488
21
1.21098
0
LINE
8
BLACK
6
CONTINUOUS
10
0.585488
20
1.21098
11
0.583408
21
1.21409
0
LINE
8
BLACK
6
CONTINUOUS
10
0.583408
20
1.21409
11
0.582677
21
1.21777
0
LINE
8
BLACK
6
CONTINUOUS
10
0.582677
20
1.21777
11
0.582677
21
1.23696
0
LINE
8
BLACK
6
CONTINUOUS
10
0.582677
20
1.23696
11
0.583408
21
1.24063
0
LINE
8
BLACK
6
CONTINUOUS
10
0.583408
20
1.24063
11
0.585488
21
1.24374
0
LINE
8
BLACK
6
CONTINUOUS
10
0.585488
20
1.24374
11
0.588601
21
1.24582
0
LINE
8
BLACK
6
CONTINUOUS
10
0.588601
20
1.24582
11
0.592274
21
1.24656
0
LINE
8
BLACK
6
CONTINUOUS
10
0.592274
20
1.24656
11
0.628199
21
1.24656
0
LINE
8
BLACK
6
CONTINUOUS
10
0.628199
20
1.24656
11
0.631871
21
1.24582
0
LINE
8
BLACK
6
CONTINUOUS
10
0.021635
20
1.25075
11
0.0247483
21
1.24867
0
LINE
8
BLACK
6
CONTINUOUS
10
0.0247483
20
1.24867
11
0.0268286
21
1.24555
0
LINE
8
BLACK
6
CONTINUOUS
10
0.0268286
20
1.24555
11
0.0275591
21
1.24188
0
LINE
8
BLACK
6
CONTINUOUS
10
0.0275591
20
1.24188
11
0.0275591
21
1.22269
0
LINE
8
BLACK
6
CONTINUOUS
10
0.0275591
20
1.22269
11
0.0268286
21
1.21901
0
LINE
8
BLACK
6
CONTINUOUS
10
0.0268286
20
1.21901
11
0.0247483
21
1.2159
0
LINE
8
BLACK
6
CONTINUOUS
10
0.0247483
20
1.2159
11
0.021635
21
1.21382
0
LINE
8
BLACK
6
CONTINUOUS
10
0.021635
20
1.21382
11
0.0179626
21
1.21309
0
LINE
8
BLACK
6
CONTINUOUS
10
0.0179626
20
1.21309
11
-0.0179626
21
1.21309
0
LINE
8
BLACK
6
CONTINUOUS
10
-0.0179626
20
1.21309
11
-0.021635
21
1.21382
0
LINE
8
BLACK
6
CONTINUOUS
10
-0.021635
20
1.21382
11
-0.0247483
21
1.2159
0
LINE
8
BLACK
6
CONTINUOUS
10
-0.0247483
20
1.2159
11
-0.0268286
21
1.21901
0
LINE
8
BLACK
6
CONTINUOUS
10
-0.0268286
20
1.21901
11
-0.0275591
21
1.22269
0
LINE
8
BLACK
6
CONTINUOUS
10
-0.0275591
20
1.22269
11
-0.0275591
21
1.24188
0
LINE
8
BLACK
6
CONTINUOUS
10
-0.0275591
20
1.24188
11
-0.0268286
21
1.24555
0
LINE
8
BLACK
6
CONTINUOUS
10
-0.0268286
20
1.24555
11
-0.0247483
21
1.24867
0
LINE
8
BLACK
6
CONTINUOUS
10
-0.0247483
20
1.24867
11
-0.021635
21
1.25075
0
LINE
8
BLACK
6
CONTINUOUS
10
-0.021635
20
1.25075
11
-0.0179626
21
1.25148
0
LINE
8
BLACK
6
CONTINUOUS
10
-0.0179626
20
1.25148
11
0.0179626
21
1.25148
0
LINE
8
BLACK
6
CONTINUOUS
10
0.0179626
20
1.25148
11
0.021635
21
1.25075
0
LINE
8
BLACK
6
CONTINUOUS
10
0.153543
20
1.22638
11
0.0826772
21
1.22638
0
LINE
8
BLACK
6
CONTINUOUS
10
0.0826772
20
1.22638
11
0.0826772
21
1.3248
0
LINE
8
BLACK
6
CONTINUOUS
10
0.0826772
20
1.3248
11
0.153543
21
1.3248
0
LINE
8
BLACK
6
CONTINUOUS
10
0.153543
20
1.3248
11
0.153543
21
1.22638
0
LINE
8
BLACK
6
CONTINUOUS
10
0.249981
20
1.29651
11
0.253095
21
1.29443
0
LINE
8
BLACK
6
CONTINUOUS
10
0.253095
20
1.29443
11
0.255175
21
1.29132
0
LINE
8
BLACK
6
CONTINUOUS
10
0.255175
20
1.29132
11
0.255906
21
1.28765
0
LINE
8
BLACK
6
CONTINUOUS
10
0.255906
20
1.28765
11
0.255906
21
1.26845
0
LINE
8
BLACK
6
CONTINUOUS
10
0.255906
20
1.26845
11
0.255175
21
1.26478
0
LINE
8
BLACK
6
CONTINUOUS
10
0.255175
20
1.26478
11
0.253095
21
1.26167
0
LINE
8
BLACK
6
CONTINUOUS
10
0.253095
20
1.26167
11
0.249981
21
1.25959
0
LINE
8
BLACK
6
CONTINUOUS
10
0.249981
20
1.25959
11
0.246309
21
1.25886
0
LINE
8
BLACK
6
CONTINUOUS
10
0.246309
20
1.25886
11
0.210384
21
1.25886
0
LINE
8
BLACK
6
CONTINUOUS
10
0.210384
20
1.25886
11
0.206711
21
1.25959
0
LINE
8
BLACK
6
CONTINUOUS
10
0.206711
20
1.25959
11
0.203598
21
1.26167
0
LINE
8
BLACK
6
CONTINUOUS
10
0.203598
20
1.26167
11
0.201518
21
1.26478
0
LINE
8
BLACK
6
CONTINUOUS
10
0.201518
20
1.26478
11
0.200787
21
1.26845
0
LINE
8
BLACK
6
CONTINUOUS
10
0.200787
20
1.26845
11
0.200787
21
1.28765
0
LINE
8
BLACK
6
CONTINUOUS
10
0.200787
20
1.28765
11
0.201518
21
1.29132
0
LINE
8
BLACK
6
CONTINUOUS
10
0.201518
20
1.29132
11
0.203598
21
1.29443
0
LINE
8
BLACK
6
CONTINUOUS
10
0.203598
20
1.29443
11
0.206711
21
1.29651
0
LINE
8
BLACK
6
CONTINUOUS
10
0.206711
20
1.29651
11
0.210384
21
1.29724
0
LINE
8
BLACK
6
CONTINUOUS
10
0.210384
20
1.29724
11
0.246309
21
1.29724
0
LINE
8
BLACK
6
CONTINUOUS
10
0.246309
20
1.29724
11
0.249981
21
1.29651
0
LINE
8
BLACK
6
CONTINUOUS
10
0.021635
20
1.32456
11
0.0247483
21
1.32248
0
LINE
8
BLACK
6
CONTINUOUS
10
0.0247483
20
1.32248
11
0.0268286
21
1.31937
0
LINE
8
BLACK
6
CONTINUOUS
10
0.0268286
20
1.31937
11
0.0275591
21
1.3157
0
LINE
8
BLACK
6
CONTINUOUS
10
0.0275591
20
1.3157
11
0.0275591
21
1.29651
0
LINE
8
BLACK
6
CONTINUOUS
10
0.0275591
20
1.29651
11
0.0268286
21
1.29283
0
LINE
8
BLACK
6
CONTINUOUS
10
0.0268286
20
1.29283
11
0.0247483
21
1.28972
0
LINE
8
BLACK
6
CONTINUOUS
10
0.0247483
20
1.28972
11
0.021635
21
1.28764
0
LINE
8
BLACK
6
CONTINUOUS
10
0.021635
20
1.28764
11
0.0179626
21
1.28691
0
LINE
8
BLACK
6
CONTINUOUS
10
0.0179626
20
1.28691
11
-0.0179626
21
1.28691
0
LINE
8
BLACK
6
CONTINUOUS
10
-0.0179626
20
1.28691
11
-0.021635
21
1.28764
0
LINE
8
BLACK
6
CONTINUOUS
10
-0.021635
20
1.28764
11
-0.0247483
21
1.28972
0
LINE
8
BLACK
6
CONTINUOUS
10
-0.0247483
20
1.28972
11
-0.0268286
21
1.29283
0
LINE
8
BLACK
6
CONTINUOUS
10
-0.0268286
20
1.29283
11
-0.0275591
21
1.29651
0
LINE
8
BLACK
6
CONTINUOUS
10
-0.0275591
20
1.29651
11
-0.0275591
21
1.3157
0
LINE
8
BLACK
6
CONTINUOUS
10
-0.0275591
20
1.3157
11
-0.0268286
21
1.31937
0
LINE
8
BLACK
6
CONTINUOUS
10
-0.0268286
20
1.31937
11
-0.0247483
21
1.32248
0
LINE
8
BLACK
6
CONTINUOUS
10
-0.0247483
20
1.32248
11
-0.021635
21
1.32456
0
LINE
8
BLACK
6
CONTINUOUS
10
-0.021635
20
1.32456
11
-0.0179626
21
1.3253
0
LINE
8
BLACK
6
CONTINUOUS
10
-0.0179626
20
1.3253
11
0.0179626
21
1.3253
0
LINE
8
BLACK
6
CONTINUOUS
10
0.0179626
20
1.3253
11
0.021635
21
1.32456
0
LINE
8
BLACK
6
CONTINUOUS
10
0.520683
20
1.28755
11
0.495092
21
1.28755
0
LINE
8
BLACK
6
CONTINUOUS
10
0.495092
20
1.28755
11
0.495092
21
1.33558
0
LINE
8
BLACK
6
CONTINUOUS
10
0.495092
20
1.33558
11
0.520683
21
1.33558
0
LINE
8
BLACK
6
CONTINUOUS
10
0.520683
20
1.33558
11
0.520683
21
1.28755
0
LINE
8
BLACK
6
CONTINUOUS
10
0.483281
20
1.28755
11
0.457691
21
1.28755
0
LINE
8
BLACK
6
CONTINUOUS
10
0.457691
20
1.28755
11
0.457691
21
1.33558
0
LINE
8
BLACK
6
CONTINUOUS
10
0.457691
20
1.33558
11
0.483281
21
1.33558
0
LINE
8
BLACK
6
CONTINUOUS
10
0.483281
20
1.33558
11
0.483281
21
1.28755
0
LINE
8
BLACK
6
CONTINUOUS
10
0.44588
20
1.28755
11
0.420289
21
1.28755
0
LINE
8
BLACK
6
CONTINUOUS
10
0.420289
20
1.28755
11
0.420289
21
1.33558
0
LINE
8
BLACK
6
CONTINUOUS
10
0.420289
20
1.33558
11
0.44588
21
1.33558
0
LINE
8
BLACK
6
CONTINUOUS
10
0.44588
20
1.33558
11
0.44588
21
1.28755
0
LINE
8
BLACK
6
CONTINUOUS
10
0.249981
20
1.37033
11
0.253095
21
1.36825
0
LINE
8
BLACK
6
CONTINUOUS
10
0.253095
20
1.36825
11
0.255175
21
1.36514
0
LINE
8
BLACK
6
CONTINUOUS
10
0.255175
20
1.36514
11
0.255906
21
1.36147
0
LINE
8
BLACK
6
CONTINUOUS
10
0.255906
20
1.36147
11
0.255906
21
1.34227
0
LINE
8
BLACK
6
CONTINUOUS
10
0.255906
20
1.34227
11
0.255175
21
1.3386
0
LINE
8
BLACK
6
CONTINUOUS
10
0.255175
20
1.3386
11
0.253095
21
1.33549
0
LINE
8
BLACK
6
CONTINUOUS
10
0.253095
20
1.33549
11
0.249981
21
1.33341
0
LINE
8
BLACK
6
CONTINUOUS
10
0.249981
20
1.33341
11
0.246309
21
1.33268
0
LINE
8
BLACK
6
CONTINUOUS
10
0.246309
20
1.33268
11
0.210384
21
1.33268
0
LINE
8
BLACK
6
CONTINUOUS
10
0.210384
20
1.33268
11
0.206711
21
1.33341
0
LINE
8
BLACK
6
CONTINUOUS
10
0.206711
20
1.33341
11
0.203598
21
1.33549
0
LINE
8
BLACK
6
CONTINUOUS
10
0.203598
20
1.33549
11
0.201518
21
1.3386
0
LINE
8
BLACK
6
CONTINUOUS
10
0.201518
20
1.3386
11
0.200787
21
1.34227
0
LINE
8
BLACK
6
CONTINUOUS
10
0.200787
20
1.34227
11
0.200787
21
1.36147
0
LINE
8
BLACK
6
CONTINUOUS
10
0.200787
20
1.36147
11
0.201518
21
1.36514
0
LINE
8
BLACK
6
CONTINUOUS
10
0.201518
20
1.36514
11
0.203598
21
1.36825
0
LINE
8
BLACK
6
CONTINUOUS
10
0.203598
20
1.36825
11
0.206711
21
1.37033
0
LINE
8
BLACK
6
CONTINUOUS
10
0.206711
20
1.37033
11
0.210384
21
1.37106
0
LINE
8
BLACK
6
CONTINUOUS
10
0.210384
20
1.37106
11
0.246309
21
1.37106
0
LINE
8
BLACK
6
CONTINUOUS
10
0.246309
20
1.37106
11
0.249981
21
1.37033
0
LINE
8
BLACK
6
CONTINUOUS
10
1.28231
20
1.38311
11
1.2855
21
1.38098
0
LINE
8
BLACK
6
CONTINUOUS
10
1.2855
20
1.38098
11
1.28764
21
1.37778
0
LINE
8
BLACK
6
CONTINUOUS
10
1.28764
20
1.37778
11
1.28839
21
1.37402
0
LINE
8
BLACK
6
CONTINUOUS
10
1.28839
20
1.37402
11
1.28839
21
1.35433
0
LINE
8
BLACK
6
CONTINUOUS
10
1.28839
20
1.35433
11
1.28764
21
1.35056
0
LINE
8
BLACK
6
CONTINUOUS
10
1.28764
20
1.35056
11
1.2855
21
1.34737
0
LINE
8
BLACK
6
CONTINUOUS
10
1.2855
20
1.34737
11
1.28231
21
1.34524
0
LINE
8
BLACK
6
CONTINUOUS
10
1.28231
20
1.34524
11
1.27854
21
1.34449
0
LINE
8
BLACK
6
CONTINUOUS
10
1.27854
20
1.34449
11
1.24114
21
1.34449
0
LINE
8
BLACK
6
CONTINUOUS
10
1.24114
20
1.34449
11
1.23738
21
1.34524
0
LINE
8
BLACK
6
CONTINUOUS
10
1.23738
20
1.34524
11
1.23418
21
1.34737
0
LINE
8
BLACK
6
CONTINUOUS
10
1.23418
20
1.34737
11
1.23205
21
1.35056
0
LINE
8
BLACK
6
CONTINUOUS
10
1.23205
20
1.35056
11
1.2313
21
1.35433
0
LINE
8
BLACK
6
CONTINUOUS
10
1.2313
20
1.35433
11
1.2313
21
1.37402
0
LINE
8
BLACK
6
CONTINUOUS
10
1.2313
20
1.37402
11
1.23205
21
1.37778
0
LINE
8
BLACK
6
CONTINUOUS
10
1.23205
20
1.37778
11
1.23418
21
1.38098
0
LINE
8
BLACK
6
CONTINUOUS
10
1.23418
20
1.38098
11
1.23738
21
1.38311
0
LINE
8
BLACK
6
CONTINUOUS
10
1.23738
20
1.38311
11
1.24114
21
1.38386
0
LINE
8
BLACK
6
CONTINUOUS
10
1.24114
20
1.38386
11
1.27854
21
1.38386
0
LINE
8
BLACK
6
CONTINUOUS
10
1.27854
20
1.38386
11
1.28231
21
1.38311
0
LINE
8
BLACK
6
CONTINUOUS
10
0.116123
20
1.38854
11
0.119236
21
1.38646
0
LINE
8
BLACK
6
CONTINUOUS
10
0.119236
20
1.38646
11
0.121317
21
1.38335
0
LINE
8
BLACK
6
CONTINUOUS
10
0.121317
20
1.38335
11
0.122047
21
1.37968
0
LINE
8
BLACK
6
CONTINUOUS
10
0.122047
20
1.37968
11
0.122047
21
1.36048
0
LINE
8
BLACK
6
CONTINUOUS
10
0.122047
20
1.36048
11
0.121317
21
1.35681
0
LINE
8
BLACK
6
CONTINUOUS
10
0.121317
20
1.35681
11
0.119236
21
1.3537
0
LINE
8
BLACK
6
CONTINUOUS
10
0.119236
20
1.3537
11
0.116123
21
1.35162
0
LINE
8
BLACK
6
CONTINUOUS
10
0.116123
20
1.35162
11
0.112451
21
1.35089
0
LINE
8
BLACK
6
CONTINUOUS
10
0.112451
20
1.35089
11
0.0765256
21
1.35089
0
LINE
8
BLACK
6
CONTINUOUS
10
0.0765256
20
1.35089
11
0.0728532
21
1.35162
0
LINE
8
BLACK
6
CONTINUOUS
10
0.0728532
20
1.35162
11
0.0697399
21
1.3537
0
LINE
8
BLACK
6
CONTINUOUS
10
0.0697399
20
1.3537
11
0.0676596
21
1.35681
0
LINE
8
BLACK
6
CONTINUOUS
10
0.0676596
20
1.35681
11
0.0669291
21
1.36048
0
LINE
8
BLACK
6
CONTINUOUS
10
0.0669291
20
1.36048
11
0.0669291
21
1.37968
0
LINE
8
BLACK
6
CONTINUOUS
10
0.0669291
20
1.37968
11
0.0676596
21
1.38335
0
LINE
8
BLACK
6
CONTINUOUS
10
0.0676596
20
1.38335
11
0.0697399
21
1.38646
0
LINE
8
BLACK
6
CONTINUOUS
10
0.0697399
20
1.38646
11
0.0728532
21
1.38854
0
LINE
8
BLACK
6
CONTINUOUS
10
0.0728532
20
1.38854
11
0.0765256
21
1.38927
0
LINE
8
BLACK
6
CONTINUOUS
10
0.0765256
20
1.38927
11
0.112451
21
1.38927
0
LINE
8
BLACK
6
CONTINUOUS
10
0.112451
20
1.38927
11
0.116123
21
1.38854
0
LINE
8
BLACK
6
CONTINUOUS
10
0.021635
20
1.391
11
0.0247483
21
1.38892
0
LINE
8
BLACK
6
CONTINUOUS
10
0.0247483
20
1.38892
11
0.0268286
21
1.38581
0
LINE
8
BLACK
6
CONTINUOUS
10
0.0268286
20
1.38581
11
0.0275591
21
1.38214
0
LINE
8
BLACK
6
CONTINUOUS
10
0.0275591
20
1.38214
11
0.0275591
21
1.36294
0
LINE
8
BLACK
6
CONTINUOUS
10
0.0275591
20
1.36294
11
0.0268286
21
1.35927
0
LINE
8
BLACK
6
CONTINUOUS
10
0.0268286
20
1.35927
11
0.0247483
21
1.35616
0
LINE
8
BLACK
6
CONTINUOUS
10
0.0247483
20
1.35616
11
0.021635
21
1.35408
0
LINE
8
BLACK
6
CONTINUOUS
10
0.021635
20
1.35408
11
0.0179626
21
1.35335
0
LINE
8
BLACK
6
CONTINUOUS
10
0.0179626
20
1.35335
11
-0.0179626
21
1.35335
0
LINE
8
BLACK
6
CONTINUOUS
10
-0.0179626
20
1.35335
11
-0.021635
21
1.35408
0
LINE
8
BLACK
6
CONTINUOUS
10
-0.021635
20
1.35408
11
-0.0247483
21
1.35616
0
LINE
8
BLACK
6
CONTINUOUS
10
-0.0247483
20
1.35616
11
-0.0268286
21
1.35927
0
LINE
8
BLACK
6
CONTINUOUS
10
-0.0268286
20
1.35927
11
-0.0275591
21
1.36294
0
LINE
8
BLACK
6
CONTINUOUS
10
-0.0275591
20
1.36294
11
-0.0275591
21
1.38214
0
LINE
8
BLACK
6
CONTINUOUS
10
-0.0275591
20
1.38214
11
-0.0268286
21
1.38581
0
LINE
8
BLACK
6
CONTINUOUS
10
-0.0268286
20
1.38581
11
-0.0247483
21
1.38892
0
LINE
8
BLACK
6
CONTINUOUS
10
-0.0247483
20
1.38892
11
-0.021635
21
1.391
0
LINE
8
BLACK
6
CONTINUOUS
10
-0.021635
20
1.391
11
-0.0179626
21
1.39173
0
LINE
8
BLACK
6
CONTINUOUS
10
-0.0179626
20
1.39173
11
0.0179626
21
1.39173
0
LINE
8
BLACK
6
CONTINUOUS
10
0.0179626
20
1.39173
11
0.021635
21
1.391
0
LINE
8
BLACK
6
CONTINUOUS
10
0.520683
20
1.39069
11
0.495092
21
1.39069
0
LINE
8
BLACK
6
CONTINUOUS
10
0.495092
20
1.39069
11
0.495092
21
1.43873
0
LINE
8
BLACK
6
CONTINUOUS
10
0.495092
20
1.43873
11
0.520683
21
1.43873
0
LINE
8
BLACK
6
CONTINUOUS
10
0.520683
20
1.43873
11
0.520683
21
1.39069
0
LINE
8
BLACK
6
CONTINUOUS
10
0.483281
20
1.39069
11
0.457691
21
1.39069
0
LINE
8
BLACK
6
CONTINUOUS
10
0.457691
20
1.39069
11
0.457691
21
1.43873
0
LINE
8
BLACK
6
CONTINUOUS
10
0.457691
20
1.43873
11
0.483281
21
1.43873
0
LINE
8
BLACK
6
CONTINUOUS
10
0.483281
20
1.43873
11
0.483281
21
1.39069
0
LINE
8
BLACK
6
CONTINUOUS
10
0.44588
20
1.39069
11
0.420289
21
1.39069
0
LINE
8
BLACK
6
CONTINUOUS
10
0.420289
20
1.39069
11
0.420289
21
1.43873
0
LINE
8
BLACK
6
CONTINUOUS
10
0.420289
20
1.43873
11
0.44588
21
1.43873
0
LINE
8
BLACK
6
CONTINUOUS
10
0.44588
20
1.43873
11
0.44588
21
1.39069
0
LINE
8
BLACK
6
CONTINUOUS
10
0.249981
20
1.4289
11
0.253095
21
1.42682
0
LINE
8
BLACK
6
CONTINUOUS
10
0.253095
20
1.42682
11
0.255175
21
1.4237
0
LINE
8
BLACK
6
CONTINUOUS
10
0.255175
20
1.4237
11
0.255906
21
1.42003
0
LINE
8
BLACK
6
CONTINUOUS
10
0.255906
20
1.42003
11
0.255906
21
1.40084
0
LINE
8
BLACK
6
CONTINUOUS
10
0.255906
20
1.40084
11
0.255175
21
1.39716
0
LINE
8
BLACK
6
CONTINUOUS
10
0.255175
20
1.39716
11
0.253095
21
1.39405
0
LINE
8
BLACK
6
CONTINUOUS
10
0.253095
20
1.39405
11
0.249981
21
1.39197
0
LINE
8
BLACK
6
CONTINUOUS
10
0.249981
20
1.39197
11
0.246309
21
1.39124
0
LINE
8
BLACK
6
CONTINUOUS
10
0.246309
20
1.39124
11
0.210384
21
1.39124
0
LINE
8
BLACK
6
CONTINUOUS
10
0.210384
20
1.39124
11
0.206711
21
1.39197
0
LINE
8
BLACK
6
CONTINUOUS
10
0.206711
20
1.39197
11
0.203598
21
1.39405
0
LINE
8
BLACK
6
CONTINUOUS
10
0.203598
20
1.39405
11
0.201518
21
1.39716
0
LINE
8
BLACK
6
CONTINUOUS
10
0.201518
20
1.39716
11
0.200787
21
1.40084
0
LINE
8
BLACK
6
CONTINUOUS
10
0.200787
20
1.40084
11
0.200787
21
1.42003
0
LINE
8
BLACK
6
CONTINUOUS
10
0.200787
20
1.42003
11
0.201518
21
1.4237
0
LINE
8
BLACK
6
CONTINUOUS
10
0.201518
20
1.4237
11
0.203598
21
1.42682
0
LINE
8
BLACK
6
CONTINUOUS
10
0.203598
20
1.42682
11
0.206711
21
1.4289
0
LINE
8
BLACK
6
CONTINUOUS
10
0.206711
20
1.4289
11
0.210384
21
1.42963
0
LINE
8
BLACK
6
CONTINUOUS
10
0.210384
20
1.42963
11
0.246309
21
1.42963
0
LINE
8
BLACK
6
CONTINUOUS
10
0.246309
20
1.42963
11
0.249981
21
1.4289
0
LINE
8
BLACK
6
CONTINUOUS
10
1.28231
20
1.45791
11
1.2855
21
1.45578
0
LINE
8
BLACK
6
CONTINUOUS
10
1.2855
20
1.45578
11
1.28764
21
1.45259
0
LINE
8
BLACK
6
CONTINUOUS
10
1.28764
20
1.45259
11
1.28839
21
1.44882
0
LINE
8
BLACK
6
CONTINUOUS
10
1.28839
20
1.44882
11
1.28839
21
1.42913
0
LINE
8
BLACK
6
CONTINUOUS
10
1.28839
20
1.42913
11
1.28764
21
1.42537
0
LINE
8
BLACK
6
CONTINUOUS
10
1.28764
20
1.42537
11
1.2855
21
1.42217
0
LINE
8
BLACK
6
CONTINUOUS
10
1.2855
20
1.42217
11
1.28231
21
1.42004
0
LINE
8
BLACK
6
CONTINUOUS
10
1.28231
20
1.42004
11
1.27854
21
1.41929
0
LINE
8
BLACK
6
CONTINUOUS
10
1.27854
20
1.41929
11
1.24114
21
1.41929
0
LINE
8
BLACK
6
CONTINUOUS
10
1.24114
20
1.41929
11
1.23738
21
1.42004
0
LINE
8
BLACK
6
CONTINUOUS
10
1.23738
20
1.42004
11
1.23418
21
1.42217
0
LINE
8
BLACK
6
CONTINUOUS
10
1.23418
20
1.42217
11
1.23205
21
1.42537
0
LINE
8
BLACK
6
CONTINUOUS
10
1.23205
20
1.42537
11
1.2313
21
1.42913
0
LINE
8
BLACK
6
CONTINUOUS
10
1.2313
20
1.42913
11
1.2313
21
1.44882
0
LINE
8
BLACK
6
CONTINUOUS
10
1.2313
20
1.44882
11
1.23205
21
1.45259
0
LINE
8
BLACK
6
CONTINUOUS
10
1.23205
20
1.45259
11
1.23418
21
1.45578
0
LINE
8
BLACK
6
CONTINUOUS
10
1.23418
20
1.45578
11
1.23738
21
1.45791
0
LINE
8
BLACK
6
CONTINUOUS
10
1.23738
20
1.45791
11
1.24114
21
1.45866
0
LINE
8
BLACK
6
CONTINUOUS
10
1.24114
20
1.45866
11
1.27854
21
1.45866
0
LINE
8
BLACK
6
CONTINUOUS
10
1.27854
20
1.45866
11
1.28231
21
1.45791
0
LINE
8
BLACK
6
CONTINUOUS
10
0.116123
20
1.46236
11
0.119236
21
1.46028
0
LINE
8
BLACK
6
CONTINUOUS
10
0.119236
20
1.46028
11
0.121317
21
1.45717
0
LINE
8
BLACK
6
CONTINUOUS
10
0.121317
20
1.45717
11
0.122047
21
1.45349
0
LINE
8
BLACK
6
CONTINUOUS
10
0.122047
20
1.45349
11
0.122047
21
1.4343
0
LINE
8
BLACK
6
CONTINUOUS
10
0.122047
20
1.4343
11
0.121317
21
1.43063
0
LINE
8
BLACK
6
CONTINUOUS
10
0.121317
20
1.43063
11
0.119236
21
1.42752
0
LINE
8
BLACK
6
CONTINUOUS
10
0.119236
20
1.42752
11
0.116123
21
1.42544
0
LINE
8
BLACK
6
CONTINUOUS
10
0.116123
20
1.42544
11
0.112451
21
1.4247
0
LINE
8
BLACK
6
CONTINUOUS
10
0.112451
20
1.4247
11
0.0765256
21
1.4247
0
LINE
8
BLACK
6
CONTINUOUS
10
0.0765256
20
1.4247
11
0.0728532
21
1.42544
0
LINE
8
BLACK
6
CONTINUOUS
10
0.0728532
20
1.42544
11
0.0697399
21
1.42752
0
LINE
8
BLACK
6
CONTINUOUS
10
0.0697399
20
1.42752
11
0.0676596
21
1.43063
0
LINE
8
BLACK
6
CONTINUOUS
10
0.0676596
20
1.43063
11
0.0669291
21
1.4343
0
LINE
8
BLACK
6
CONTINUOUS
10
0.0669291
20
1.4343
11
0.0669291
21
1.45349
0
LINE
8
BLACK
6
CONTINUOUS
10
0.0669291
20
1.45349
11
0.0676596
21
1.45717
0
LINE
8
BLACK
6
CONTINUOUS
10
0.0676596
20
1.45717
11
0.0697399
21
1.46028
0
LINE
8
BLACK
6
CONTINUOUS
10
0.0697399
20
1.46028
11
0.0728532
21
1.46236
0
LINE
8
BLACK
6
CONTINUOUS
10
0.0728532
20
1.46236
11
0.0765256
21
1.46309
0
LINE
8
BLACK
6
CONTINUOUS
10
0.0765256
20
1.46309
11
0.112451
21
1.46309
0
LINE
8
BLACK
6
CONTINUOUS
10
0.112451
20
1.46309
11
0.116123
21
1.46236
0
LINE
8
BLACK
6
CONTINUOUS
10
0.021635
20
1.46482
11
0.0247483
21
1.46274
0
LINE
8
BLACK
6
CONTINUOUS
10
0.0247483
20
1.46274
11
0.0268286
21
1.45963
0
LINE
8
BLACK
6
CONTINUOUS
10
0.0268286
20
1.45963
11
0.0275591
21
1.45595
0
LINE
8
BLACK
6
CONTINUOUS
10
0.0275591
20
1.45595
11
0.0275591
21
1.43676
0
LINE
8
BLACK
6
CONTINUOUS
10
0.0275591
20
1.43676
11
0.0268286
21
1.43309
0
LINE
8
BLACK
6
CONTINUOUS
10
0.0268286
20
1.43309
11
0.0247483
21
1.42998
0
LINE
8
BLACK
6
CONTINUOUS
10
0.0247483
20
1.42998
11
0.021635
21
1.4279
0
LINE
8
BLACK
6
CONTINUOUS
10
0.021635
20
1.4279
11
0.0179626
21
1.42717
0
LINE
8
BLACK
6
CONTINUOUS
10
0.0179626
20
1.42717
11
-0.0179626
21
1.42717
0
LINE
8
BLACK
6
CONTINUOUS
10
-0.0179626
20
1.42717
11
-0.021635
21
1.4279
0
LINE
8
BLACK
6
CONTINUOUS
10
-0.021635
20
1.4279
11
-0.0247483
21
1.42998
0
LINE
8
BLACK
6
CONTINUOUS
10
-0.0247483
20
1.42998
11
-0.0268286
21
1.43309
0
LINE
8
BLACK
6
CONTINUOUS
10
-0.0268286
20
1.43309
11
-0.0275591
21
1.43676
0
LINE
8
BLACK
6
CONTINUOUS
10
-0.0275591
20
1.43676
11
-0.0275591
21
1.45595
0
LINE
8
BLACK
6
CONTINUOUS
10
-0.0275591
20
1.45595
11
-0.0268286
21
1.45963
0
LINE
8
BLACK
6
CONTINUOUS
10
-0.0268286
20
1.45963
11
-0.0247483
21
1.46274
0
LINE
8
BLACK
6
CONTINUOUS
10
-0.0247483
20
1.46274
11
-0.021635
21
1.46482
0
LINE
8
BLACK
6
CONTINUOUS
10
-0.021635
20
1.46482
11
-0.0179626
21
1.46555
0
LINE
8
BLACK
6
CONTINUOUS
10
-0.0179626
20
1.46555
11
0.0179626
21
1.46555
0
LINE
8
BLACK
6
CONTINUOUS
10
0.0179626
20
1.46555
11
0.021635
21
1.46482
0
LINE
8
BLACK
6
CONTINUOUS
10
0.249981
20
1.50271
11
0.253095
21
1.50063
0
LINE
8
BLACK
6
CONTINUOUS
10
0.253095
20
1.50063
11
0.255175
21
1.49752
0
LINE
8
BLACK
6
CONTINUOUS
10
0.255175
20
1.49752
11
0.255906
21
1.49385
0
LINE
8
BLACK
6
CONTINUOUS
10
0.255906
20
1.49385
11
0.255906
21
1.47466
0
LINE
8
BLACK
6
CONTINUOUS
10
0.255906
20
1.47466
11
0.255175
21
1.47098
0
LINE
8
BLACK
6
CONTINUOUS
10
0.255175
20
1.47098
11
0.253095
21
1.46787
0
LINE
8
BLACK
6
CONTINUOUS
10
0.253095
20
1.46787
11
0.249981
21
1.46579
0
LINE
8
BLACK
6
CONTINUOUS
10
0.249981
20
1.46579
11
0.246309
21
1.46506
0
LINE
8
BLACK
6
CONTINUOUS
10
0.246309
20
1.46506
11
0.210384
21
1.46506
0
LINE
8
BLACK
6
CONTINUOUS
10
0.210384
20
1.46506
11
0.206711
21
1.46579
0
LINE
8
BLACK
6
CONTINUOUS
10
0.206711
20
1.46579
11
0.203598
21
1.46787
0
LINE
8
BLACK
6
CONTINUOUS
10
0.203598
20
1.46787
11
0.201518
21
1.47098
0
LINE
8
BLACK
6
CONTINUOUS
10
0.201518
20
1.47098
11
0.200787
21
1.47466
0
LINE
8
BLACK
6
CONTINUOUS
10
0.200787
20
1.47466
11
0.200787
21
1.49385
0
LINE
8
BLACK
6
CONTINUOUS
10
0.200787
20
1.49385
11
0.201518
21
1.49752
0
LINE
8
BLACK
6
CONTINUOUS
10
0.201518
20
1.49752
11
0.203598
21
1.50063
0
LINE
8
BLACK
6
CONTINUOUS
10
0.203598
20
1.50063
11
0.206711
21
1.50271
0
LINE
8
BLACK
6
CONTINUOUS
10
0.206711
20
1.50271
11
0.210384
21
1.50344
0
LINE
8
BLACK
6
CONTINUOUS
10
0.210384
20
1.50344
11
0.246309
21
1.50344
0
LINE
8
BLACK
6
CONTINUOUS
10
0.246309
20
1.50344
11
0.249981
21
1.50271
0
LINE
8
BLACK
6
CONTINUOUS
10
1.47519
20
1.51136
11
1.47711
21
1.51008
0
LINE
8
BLACK
6
CONTINUOUS
10
1.47711
20
1.51008
11
1.47839
21
1.50817
0
LINE
8
BLACK
6
CONTINUOUS
10
1.47839
20
1.50817
11
1.47884
21
1.50591
0
LINE
8
BLACK
6
CONTINUOUS
10
1.47884
20
1.50591
11
1.47884
21
1.49409
0
LINE
8
BLACK
6
CONTINUOUS
10
1.47884
20
1.49409
11
1.47839
21
1.49183
0
LINE
8
BLACK
6
CONTINUOUS
10
1.47839
20
1.49183
11
1.47711
21
1.48992
0
LINE
8
BLACK
6
CONTINUOUS
10
1.47711
20
1.48992
11
1.47519
21
1.48864
0
LINE
8
BLACK
6
CONTINUOUS
10
1.47519
20
1.48864
11
1.47293
21
1.48819
0
LINE
8
BLACK
6
CONTINUOUS
10
1.47293
20
1.48819
11
1.43258
21
1.48819
0
LINE
8
BLACK
6
CONTINUOUS
10
1.43258
20
1.48819
11
1.43032
21
1.48864
0
LINE
8
BLACK
6
CONTINUOUS
10
1.43032
20
1.48864
11
1.4284
21
1.48992
0
LINE
8
BLACK
6
CONTINUOUS
10
1.4284
20
1.48992
11
1.42712
21
1.49183
0
LINE
8
BLACK
6
CONTINUOUS
10
1.42712
20
1.49183
11
1.42667
21
1.49409
0
LINE
8
BLACK
6
CONTINUOUS
10
1.42667
20
1.49409
11
1.42667
21
1.50591
0
LINE
8
BLACK
6
CONTINUOUS
10
1.42667
20
1.50591
11
1.42712
21
1.50817
0
LINE
8
BLACK
6
CONTINUOUS
10
1.42712
20
1.50817
11
1.4284
21
1.51008
0
LINE
8
BLACK
6
CONTINUOUS
10
1.4284
20
1.51008
11
1.43032
21
1.51136
0
LINE
8
BLACK
6
CONTINUOUS
10
1.43032
20
1.51136
11
1.43258
21
1.51181
0
LINE
8
BLACK
6
CONTINUOUS
10
1.43258
20
1.51181
11
1.47293
21
1.51181
0
LINE
8
BLACK
6
CONTINUOUS
10
1.47293
20
1.51181
11
1.47519
21
1.51136
0
LINE
8
BLACK
6
CONTINUOUS
10
1.38563
20
1.51136
11
1.38754
21
1.51008
0
LINE
8
BLACK
6
CONTINUOUS
10
1.38754
20
1.51008
11
1.38882
21
1.50817
0
LINE
8
BLACK
6
CONTINUOUS
10
1.38882
20
1.50817
11
1.38927
21
1.50591
0
LINE
8
BLACK
6
CONTINUOUS
10
1.38927
20
1.50591
11
1.38927
21
1.49409
0
LINE
8
BLACK
6
CONTINUOUS
10
1.38927
20
1.49409
11
1.38882
21
1.49183
0
LINE
8
BLACK
6
CONTINUOUS
10
1.38882
20
1.49183
11
1.38754
21
1.48992
0
LINE
8
BLACK
6
CONTINUOUS
10
1.38754
20
1.48992
11
1.38563
21
1.48864
0
LINE
8
BLACK
6
CONTINUOUS
10
1.38563
20
1.48864
11
1.38337
21
1.48819
0
LINE
8
BLACK
6
CONTINUOUS
10
1.38337
20
1.48819
11
1.34301
21
1.48819
0
LINE
8
BLACK
6
CONTINUOUS
10
1.34301
20
1.48819
11
1.34075
21
1.48864
0
LINE
8
BLACK
6
CONTINUOUS
10
1.34075
20
1.48864
11
1.33884
21
1.48992
0
LINE
8
BLACK
6
CONTINUOUS
10
1.33884
20
1.48992
11
1.33756
21
1.49183
0
LINE
8
BLACK
6
CONTINUOUS
10
1.33756
20
1.49183
11
1.33711
21
1.49409
0
LINE
8
BLACK
6
CONTINUOUS
10
1.33711
20
1.49409
11
1.33711
21
1.50591
0
LINE
8
BLACK
6
CONTINUOUS
10
1.33711
20
1.50591
11
1.33756
21
1.50817
0
LINE
8
BLACK
6
CONTINUOUS
10
1.33756
20
1.50817
11
1.33884
21
1.51008
0
LINE
8
BLACK
6
CONTINUOUS
10
1.33884
20
1.51008
11
1.34075
21
1.51136
0
LINE
8
BLACK
6
CONTINUOUS
10
1.34075
20
1.51136
11
1.34301
21
1.51181
0
LINE
8
BLACK
6
CONTINUOUS
10
1.34301
20
1.51181
11
1.38337
21
1.51181
0
LINE
8
BLACK
6
CONTINUOUS
10
1.38337
20
1.51181
11
1.38563
21
1.51136
0
LINE
8
BLACK
6
CONTINUOUS
10
1.28231
20
1.52878
11
1.2855
21
1.52664
0
LINE
8
BLACK
6
CONTINUOUS
10
1.2855
20
1.52664
11
1.28764
21
1.52345
0
LINE
8
BLACK
6
CONTINUOUS
10
1.28764
20
1.52345
11
1.28839
21
1.51969
0
LINE
8
BLACK
6
CONTINUOUS
10
1.28839
20
1.51969
11
1.28839
21
1.5
0
LINE
8
BLACK
6
CONTINUOUS
10
1.28839
20
1.5
11
1.28764
21
1.49623
0
LINE
8
BLACK
6
CONTINUOUS
10
1.28764
20
1.49623
11
1.2855
21
1.49304
0
LINE
8
BLACK
6
CONTINUOUS
10
1.2855
20
1.49304
11
1.28231
21
1.49091
0
LINE
8
BLACK
6
CONTINUOUS
10
1.28231
20
1.49091
11
1.27854
21
1.49016
0
LINE
8
BLACK
6
CONTINUOUS
10
1.27854
20
1.49016
11
1.24114
21
1.49016
0
LINE
8
BLACK
6
CONTINUOUS
10
1.24114
20
1.49016
11
1.23738
21
1.49091
0
LINE
8
BLACK
6
CONTINUOUS
10
1.23738
20
1.49091
11
1.23418
21
1.49304
0
LINE
8
BLACK
6
CONTINUOUS
10
1.23418
20
1.49304
11
1.23205
21
1.49623
0
LINE
8
BLACK
6
CONTINUOUS
10
1.23205
20
1.49623
11
1.2313
21
1.5
0
LINE
8
BLACK
6
CONTINUOUS
10
1.2313
20
1.5
11
1.2313
21
1.51969
0
LINE
8
BLACK
6
CONTINUOUS
10
1.2313
20
1.51969
11
1.23205
21
1.52345
0
LINE
8
BLACK
6
CONTINUOUS
10
1.23205
20
1.52345
11
1.23418
21
1.52664
0
LINE
8
BLACK
6
CONTINUOUS
10
1.23418
20
1.52664
11
1.23738
21
1.52878
0
LINE
8
BLACK
6
CONTINUOUS
10
1.23738
20
1.52878
11
1.24114
21
1.52953
0
LINE
8
BLACK
6
CONTINUOUS
10
1.24114
20
1.52953
11
1.27854
21
1.52953
0
LINE
8
BLACK
6
CONTINUOUS
10
1.27854
20
1.52953
11
1.28231
21
1.52878
0
LINE
8
BLACK
6
CONTINUOUS
10
1.38563
20
1.54876
11
1.38754
21
1.54748
0
LINE
8
BLACK
6
CONTINUOUS
10
1.38754
20
1.54748
11
1.38882
21
1.54557
0
LINE
8
BLACK
6
CONTINUOUS
10
1.38882
20
1.54557
11
1.38927
21
1.54331
0
LINE
8
BLACK
6
CONTINUOUS
10
1.38927
20
1.54331
11
1.38927
21
1.5315
0
LINE
8
BLACK
6
CONTINUOUS
10
1.38927
20
1.5315
11
1.38882
21
1.52924
0
LINE
8
BLACK
6
CONTINUOUS
10
1.38882
20
1.52924
11
1.38754
21
1.52732
0
LINE
8
BLACK
6
CONTINUOUS
10
1.38754
20
1.52732
11
1.38563
21
1.52604
0
LINE
8
BLACK
6
CONTINUOUS
10
1.38563
20
1.52604
11
1.38337
21
1.52559
0
LINE
8
BLACK
6
CONTINUOUS
10
1.38337
20
1.52559
11
1.34301
21
1.52559
0
LINE
8
BLACK
6
CONTINUOUS
10
1.34301
20
1.52559
11
1.34075
21
1.52604
0
LINE
8
BLACK
6
CONTINUOUS
10
1.34075
20
1.52604
11
1.33884
21
1.52732
0
LINE
8
BLACK
6
CONTINUOUS
10
1.33884
20
1.52732
11
1.33756
21
1.52924
0
LINE
8
BLACK
6
CONTINUOUS
10
1.33756
20
1.52924
11
1.33711
21
1.5315
0
LINE
8
BLACK
6
CONTINUOUS
10
1.33711
20
1.5315
11
1.33711
21
1.54331
0
LINE
8
BLACK
6
CONTINUOUS
10
1.33711
20
1.54331
11
1.33756
21
1.54557
0
LINE
8
BLACK
6
CONTINUOUS
10
1.33756
20
1.54557
11
1.33884
21
1.54748
0
LINE
8
BLACK
6
CONTINUOUS
10
1.33884
20
1.54748
11
1.34075
21
1.54876
0
LINE
8
BLACK
6
CONTINUOUS
10
1.34075
20
1.54876
11
1.34301
21
1.54921
0
LINE
8
BLACK
6
CONTINUOUS
10
1.34301
20
1.54921
11
1.38337
21
1.54921
0
LINE
8
BLACK
6
CONTINUOUS
10
1.38337
20
1.54921
11
1.38563
21
1.54876
0
LINE
8
BLACK
6
CONTINUOUS
10
1.56085
20
1.61441
11
1.56405
21
1.61227
0
LINE
8
BLACK
6
CONTINUOUS
10
1.56405
20
1.61227
11
1.56618
21
1.60908
0
LINE
8
BLACK
6
CONTINUOUS
10
1.56618
20
1.60908
11
1.56693
21
1.60531
0
LINE
8
BLACK
6
CONTINUOUS
10
1.56693
20
1.60531
11
1.56693
21
1.56791
0
LINE
8
BLACK
6
CONTINUOUS
10
1.56693
20
1.56791
11
1.56618
21
1.56415
0
LINE
8
BLACK
6
CONTINUOUS
10
1.56618
20
1.56415
11
1.56405
21
1.56095
0
LINE
8
BLACK
6
CONTINUOUS
10
1.56405
20
1.56095
11
1.56085
21
1.55882
0
LINE
8
BLACK
6
CONTINUOUS
10
1.56085
20
1.55882
11
1.55709
21
1.55807
0
LINE
8
BLACK
6
CONTINUOUS
10
1.55709
20
1.55807
11
1.5374
21
1.55807
0
LINE
8
BLACK
6
CONTINUOUS
10
1.5374
20
1.55807
11
1.53363
21
1.55882
0
LINE
8
BLACK
6
CONTINUOUS
10
1.53363
20
1.55882
11
1.53044
21
1.56095
0
LINE
8
BLACK
6
CONTINUOUS
10
1.53044
20
1.56095
11
1.52831
21
1.56415
0
LINE
8
BLACK
6
CONTINUOUS
10
1.52831
20
1.56415
11
1.52756
21
1.56791
0
LINE
8
BLACK
6
CONTINUOUS
10
1.52756
20
1.56791
11
1.52756
21
1.60531
0
LINE
8
BLACK
6
CONTINUOUS
10
1.52756
20
1.60531
11
1.52831
21
1.60908
0
LINE
8
BLACK
6
CONTINUOUS
10
1.52831
20
1.60908
11
1.53044
21
1.61227
0
LINE
8
BLACK
6
CONTINUOUS
10
1.53044
20
1.61227
11
1.53363
21
1.61441
0
LINE
8
BLACK
6
CONTINUOUS
10
1.53363
20
1.61441
11
1.5374
21
1.61516
0
LINE
8
BLACK
6
CONTINUOUS
10
1.5374
20
1.61516
11
1.55709
21
1.61516
0
LINE
8
BLACK
6
CONTINUOUS
10
1.55709
20
1.61516
11
1.56085
21
1.61441
0
LINE
8
BLACK
6
CONTINUOUS
10
1.63566
20
1.61441
11
1.63885
21
1.61227
0
LINE
8
BLACK
6
CONTINUOUS
10
1.63885
20
1.61227
11
1.64098
21
1.60908
0
LINE
8
BLACK
6
CONTINUOUS
10
1.64098
20
1.60908
11
1.64173
21
1.60531
0
LINE
8
BLACK
6
CONTINUOUS
10
1.64173
20
1.60531
11
1.64173
21
1.56791
0
LINE
8
BLACK
6
CONTINUOUS
10
1.64173
20
1.56791
11
1.64098
21
1.56415
0
LINE
8
BLACK
6
CONTINUOUS
10
1.64098
20
1.56415
11
1.63885
21
1.56095
0
LINE
8
BLACK
6
CONTINUOUS
10
1.63885
20
1.56095
11
1.63566
21
1.55882
0
LINE
8
BLACK
6
CONTINUOUS
10
1.63566
20
1.55882
11
1.63189
21
1.55807
0
LINE
8
BLACK
6
CONTINUOUS
10
1.63189
20
1.55807
11
1.6122
21
1.55807
0
LINE
8
BLACK
6
CONTINUOUS
10
1.6122
20
1.55807
11
1.60844
21
1.55882
0
LINE
8
BLACK
6
CONTINUOUS
10
1.60844
20
1.55882
11
1.60525
21
1.56095
0
LINE
8
BLACK
6
CONTINUOUS
10
1.60525
20
1.56095
11
1.60311
21
1.56415
0
LINE
8
BLACK
6
CONTINUOUS
10
1.60311
20
1.56415
11
1.60236
21
1.56791
0
LINE
8
BLACK
6
CONTINUOUS
10
1.60236
20
1.56791
11
1.60236
21
1.60531
0
LINE
8
BLACK
6
CONTINUOUS
10
1.60236
20
1.60531
11
1.60311
21
1.60908
0
LINE
8
BLACK
6
CONTINUOUS
10
1.60311
20
1.60908
11
1.60525
21
1.61227
0
LINE
8
BLACK
6
CONTINUOUS
10
1.60525
20
1.61227
11
1.60844
21
1.61441
0
LINE
8
BLACK
6
CONTINUOUS
10
1.60844
20
1.61441
11
1.6122
21
1.61516
0
LINE
8
BLACK
6
CONTINUOUS
10
1.6122
20
1.61516
11
1.63189
21
1.61516
0
LINE
8
BLACK
6
CONTINUOUS
10
1.63189
20
1.61516
11
1.63566
21
1.61441
0
LINE
8
BLACK
6
CONTINUOUS
10
1.38563
20
1.58616
11
1.38754
21
1.58488
0
LINE
8
BLACK
6
CONTINUOUS
10
1.38754
20
1.58488
11
1.38882
21
1.58297
0
LINE
8
BLACK
6
CONTINUOUS
10
1.38882
20
1.58297
11
1.38927
21
1.58071
0
LINE
8
BLACK
6
CONTINUOUS
10
1.38927
20
1.58071
11
1.38927
21
1.5689
0
LINE
8
BLACK
6
CONTINUOUS
10
1.38927
20
1.5689
11
1.38882
21
1.56664
0
LINE
8
BLACK
6
CONTINUOUS
10
1.38882
20
1.56664
11
1.38754
21
1.56472
0
LINE
8
BLACK
6
CONTINUOUS
10
1.38754
20
1.56472
11
1.38563
21
1.56344
0
LINE
8
BLACK
6
CONTINUOUS
10
1.38563
20
1.56344
11
1.38337
21
1.56299
0
LINE
8
BLACK
6
CONTINUOUS
10
1.38337
20
1.56299
11
1.34301
21
1.56299
0
LINE
8
BLACK
6
CONTINUOUS
10
1.34301
20
1.56299
11
1.34075
21
1.56344
0
LINE
8
BLACK
6
CONTINUOUS
10
1.34075
20
1.56344
11
1.33884
21
1.56472
0
LINE
8
BLACK
6
CONTINUOUS
10
1.33884
20
1.56472
11
1.33756
21
1.56664
0
LINE
8
BLACK
6
CONTINUOUS
10
1.33756
20
1.56664
11
1.33711
21
1.5689
0
LINE
8
BLACK
6
CONTINUOUS
10
1.33711
20
1.5689
11
1.33711
21
1.58071
0
LINE
8
BLACK
6
CONTINUOUS
10
1.33711
20
1.58071
11
1.33756
21
1.58297
0
LINE
8
BLACK
6
CONTINUOUS
10
1.33756
20
1.58297
11
1.33884
21
1.58488
0
LINE
8
BLACK
6
CONTINUOUS
10
1.33884
20
1.58488
11
1.34075
21
1.58616
0
LINE
8
BLACK
6
CONTINUOUS
10
1.34075
20
1.58616
11
1.34301
21
1.58661
0
LINE
8
BLACK
6
CONTINUOUS
10
1.34301
20
1.58661
11
1.38337
21
1.58661
0
LINE
8
BLACK
6
CONTINUOUS
10
1.38337
20
1.58661
11
1.38563
21
1.58616
0
LINE
8
BLACK
6
CONTINUOUS
10
1.47519
20
1.58616
11
1.47711
21
1.58488
0
LINE
8
BLACK
6
CONTINUOUS
10
1.47711
20
1.58488
11
1.47839
21
1.58297
0
LINE
8
BLACK
6
CONTINUOUS
10
1.47839
20
1.58297
11
1.47884
21
1.58071
0
LINE
8
BLACK
6
CONTINUOUS
10
1.47884
20
1.58071
11
1.47884
21
1.5689
0
LINE
8
BLACK
6
CONTINUOUS
10
1.47884
20
1.5689
11
1.47839
21
1.56664
0
LINE
8
BLACK
6
CONTINUOUS
10
1.47839
20
1.56664
11
1.47711
21
1.56472
0
LINE
8
BLACK
6
CONTINUOUS
10
1.47711
20
1.56472
11
1.47519
21
1.56344
0
LINE
8
BLACK
6
CONTINUOUS
10
1.47519
20
1.56344
11
1.47293
21
1.56299
0
LINE
8
BLACK
6
CONTINUOUS
10
1.47293
20
1.56299
11
1.43258
21
1.56299
0
LINE
8
BLACK
6
CONTINUOUS
10
1.43258
20
1.56299
11
1.43032
21
1.56344
0
LINE
8
BLACK
6
CONTINUOUS
10
1.43032
20
1.56344
11
1.4284
21
1.56472
0
LINE
8
BLACK
6
CONTINUOUS
10
1.4284
20
1.56472
11
1.42712
21
1.56664
0
LINE
8
BLACK
6
CONTINUOUS
10
1.42712
20
1.56664
11
1.42667
21
1.5689
0
LINE
8
BLACK
6
CONTINUOUS
10
1.42667
20
1.5689
11
1.42667
21
1.58071
0
LINE
8
BLACK
6
CONTINUOUS
10
1.42667
20
1.58071
11
1.42712
21
1.58297
0
LINE
8
BLACK
6
CONTINUOUS
10
1.42712
20
1.58297
11
1.4284
21
1.58488
0
LINE
8
BLACK
6
CONTINUOUS
10
1.4284
20
1.58488
11
1.43032
21
1.58616
0
LINE
8
BLACK
6
CONTINUOUS
10
1.43032
20
1.58616
11
1.43258
21
1.58661
0
LINE
8
BLACK
6
CONTINUOUS
10
1.43258
20
1.58661
11
1.47293
21
1.58661
0
LINE
8
BLACK
6
CONTINUOUS
10
1.47293
20
1.58661
11
1.47519
21
1.58616
0
LINE
8
BLACK
6
CONTINUOUS
10
1.28231
20
1.60358
11
1.2855
21
1.60145
0
LINE
8
BLACK
6
CONTINUOUS
10
1.2855
20
1.60145
11
1.28764
21
1.59825
0
LINE
8
BLACK
6
CONTINUOUS
10
1.28764
20
1.59825
11
1.28839
21
1.59449
0
LINE
8
BLACK
6
CONTINUOUS
10
1.28839
20
1.59449
11
1.28839
21
1.5748
0
LINE
8
BLACK
6
CONTINUOUS
10
1.28839
20
1.5748
11
1.28764
21
1.57104
0
LINE
8
BLACK
6
CONTINUOUS
10
1.28764
20
1.57104
11
1.2855
21
1.56784
0
LINE
8
BLACK
6
CONTINUOUS
10
1.2855
20
1.56784
11
1.28231
21
1.56571
0
LINE
8
BLACK
6
CONTINUOUS
10
1.28231
20
1.56571
11
1.27854
21
1.56496
0
LINE
8
BLACK
6
CONTINUOUS
10
1.27854
20
1.56496
11
1.24114
21
1.56496
0
LINE
8
BLACK
6
CONTINUOUS
10
1.24114
20
1.56496
11
1.23738
21
1.56571
0
LINE
8
BLACK
6
CONTINUOUS
10
1.23738
20
1.56571
11
1.23418
21
1.56784
0
LINE
8
BLACK
6
CONTINUOUS
10
1.23418
20
1.56784
11
1.23205
21
1.57104
0
LINE
8
BLACK
6
CONTINUOUS
10
1.23205
20
1.57104
11
1.2313
21
1.5748
0
LINE
8
BLACK
6
CONTINUOUS
10
1.2313
20
1.5748
11
1.2313
21
1.59449
0
LINE
8
BLACK
6
CONTINUOUS
10
1.2313
20
1.59449
11
1.23205
21
1.59825
0
LINE
8
BLACK
6
CONTINUOUS
10
1.23205
20
1.59825
11
1.23418
21
1.60145
0
LINE
8
BLACK
6
CONTINUOUS
10
1.23418
20
1.60145
11
1.23738
21
1.60358
0
LINE
8
BLACK
6
CONTINUOUS
10
1.23738
20
1.60358
11
1.24114
21
1.60433
0
LINE
8
BLACK
6
CONTINUOUS
10
1.24114
20
1.60433
11
1.27854
21
1.60433
0
LINE
8
BLACK
6
CONTINUOUS
10
1.27854
20
1.60433
11
1.28231
21
1.60358
0
LINE
8
BLACK
6
CONTINUOUS
10
1.06722
20
1.70526
11
1.06914
21
1.70398
0
LINE
8
BLACK
6
CONTINUOUS
10
1.06914
20
1.70398
11
1.07042
21
1.70206
0
LINE
8
BLACK
6
CONTINUOUS
10
1.07042
20
1.70206
11
1.07087
21
1.6998
0
LINE
8
BLACK
6
CONTINUOUS
10
1.07087
20
1.6998
11
1.07087
21
1.63878
0
LINE
8
BLACK
6
CONTINUOUS
10
1.07087
20
1.63878
11
1.07042
21
1.63652
0
LINE
8
BLACK
6
CONTINUOUS
10
1.07042
20
1.63652
11
1.06914
21
1.6346
0
LINE
8
BLACK
6
CONTINUOUS
10
1.06914
20
1.6346
11
1.06722
21
1.63332
0
LINE
8
BLACK
6
CONTINUOUS
10
1.06722
20
1.63332
11
1.06496
21
1.63287
0
LINE
8
BLACK
6
CONTINUOUS
10
1.06496
20
1.63287
11
1.05315
21
1.63287
0
LINE
8
BLACK
6
CONTINUOUS
10
1.05315
20
1.63287
11
1.05089
21
1.63332
0
LINE
8
BLACK
6
CONTINUOUS
10
1.05089
20
1.63332
11
1.04897
21
1.6346
0
LINE
8
BLACK
6
CONTINUOUS
10
1.04897
20
1.6346
11
1.04769
21
1.63652
0
LINE
8
BLACK
6
CONTINUOUS
10
1.04769
20
1.63652
11
1.04724
21
1.63878
0
LINE
8
BLACK
6
CONTINUOUS
10
1.04724
20
1.63878
11
1.04724
21
1.6998
0
LINE
8
BLACK
6
CONTINUOUS
10
1.04724
20
1.6998
11
1.04769
21
1.70206
0
LINE
8
BLACK
6
CONTINUOUS
10
1.04769
20
1.70206
11
1.04897
21
1.70398
0
LINE
8
BLACK
6
CONTINUOUS
10
1.04897
20
1.70398
11
1.05089
21
1.70526
0
LINE
8
BLACK
6
CONTINUOUS
10
1.05089
20
1.70526
11
1.05315
21
1.70571
0
LINE
8
BLACK
6
CONTINUOUS
10
1.05315
20
1.70571
11
1.06496
21
1.70571
0
LINE
8
BLACK
6
CONTINUOUS
10
1.06496
20
1.70571
11
1.06722
21
1.70526
0
LINE
8
BLACK
6
CONTINUOUS
10
1.02785
20
1.70526
11
1.02977
21
1.70398
0
LINE
8
BLACK
6
CONTINUOUS
10
1.02977
20
1.70398
11
1.03105
21
1.70206
0
LINE
8
BLACK
6
CONTINUOUS
10
1.03105
20
1.70206
11
1.0315
21
1.6998
0
LINE
8
BLACK
6
CONTINUOUS
10
1.0315
20
1.6998
11
1.0315
21
1.63878
0
LINE
8
BLACK
6
CONTINUOUS
10
1.0315
20
1.63878
11
1.03105
21
1.63652
0
LINE
8
BLACK
6
CONTINUOUS
10
1.03105
20
1.63652
11
1.02977
21
1.6346
0
LINE
8
BLACK
6
CONTINUOUS
10
1.02977
20
1.6346
11
1.02785
21
1.63332
0
LINE
8
BLACK
6
CONTINUOUS
10
1.02785
20
1.63332
11
1.02559
21
1.63287
0
LINE
8
BLACK
6
CONTINUOUS
10
1.02559
20
1.63287
11
1.01378
21
1.63287
0
LINE
8
BLACK
6
CONTINUOUS
10
1.01378
20
1.63287
11
1.01152
21
1.63332
0
LINE
8
BLACK
6
CONTINUOUS
10
1.01152
20
1.63332
11
1.0096
21
1.6346
0
LINE
8
BLACK
6
CONTINUOUS
10
1.0096
20
1.6346
11
1.00832
21
1.63652
0
LINE
8
BLACK
6
CONTINUOUS
10
1.00832
20
1.63652
11
1.00787
21
1.63878
0
LINE
8
BLACK
6
CONTINUOUS
10
1.00787
20
1.63878
11
1.00787
21
1.6998
0
LINE
8
BLACK
6
CONTINUOUS
10
1.00787
20
1.6998
11
1.00832
21
1.70206
0
LINE
8
BLACK
6
CONTINUOUS
10
1.00832
20
1.70206
11
1.0096
21
1.70398
0
LINE
8
BLACK
6
CONTINUOUS
10
1.0096
20
1.70398
11
1.01152
21
1.70526
0
LINE
8
BLACK
6
CONTINUOUS
10
1.01152
20
1.70526
11
1.01378
21
1.70571
0
LINE
8
BLACK
6
CONTINUOUS
10
1.01378
20
1.70571
11
1.02559
21
1.70571
0
LINE
8
BLACK
6
CONTINUOUS
10
1.02559
20
1.70571
11
1.02785
21
1.70526
0
LINE
8
BLACK
6
CONTINUOUS
10
0.98848
20
1.70526
11
0.990396
21
1.70398
0
LINE
8
BLACK
6
CONTINUOUS
10
0.990396
20
1.70398
11
0.991676
21
1.70206
0
LINE
8
BLACK
6
CONTINUOUS
10
0.991676
20
1.70206
11
0.992126
21
1.6998
0
LINE
8
BLACK
6
CONTINUOUS
10
0.992126
20
1.6998
11
0.992126
21
1.63878
0
LINE
8
BLACK
6
CONTINUOUS
10
0.992126
20
1.63878
11
0.991676
21
1.63652
0
LINE
8
BLACK
6
CONTINUOUS
10
0.991676
20
1.63652
11
0.990396
21
1.6346
0
LINE
8
BLACK
6
CONTINUOUS
10
0.990396
20
1.6346
11
0.98848
21
1.63332
0
LINE
8
BLACK
6
CONTINUOUS
10
0.98848
20
1.63332
11
0.98622
21
1.63287
0
LINE
8
BLACK
6
CONTINUOUS
10
0.98622
20
1.63287
11
0.974409
21
1.63287
0
LINE
8
BLACK
6
CONTINUOUS
10
0.974409
20
1.63287
11
0.972149
21
1.63332
0
LINE
8
BLACK
6
CONTINUOUS
10
0.972149
20
1.63332
11
0.970234
21
1.6346
0
LINE
8
BLACK
6
CONTINUOUS
10
0.970234
20
1.6346
11
0.968953
21
1.63652
0
LINE
8
BLACK
6
CONTINUOUS
10
0.968953
20
1.63652
11
0.968504
21
1.63878
0
LINE
8
BLACK
6
CONTINUOUS
10
0.968504
20
1.63878
11
0.968504
21
1.6998
0
LINE
8
BLACK
6
CONTINUOUS
10
0.968504
20
1.6998
11
0.968953
21
1.70206
0
LINE
8
BLACK
6
CONTINUOUS
10
0.968953
20
1.70206
11
0.970234
21
1.70398
0
LINE
8
BLACK
6
CONTINUOUS
10
0.970234
20
1.70398
11
0.972149
21
1.70526
0
LINE
8
BLACK
6
CONTINUOUS
10
0.972149
20
1.70526
11
0.974409
21
1.70571
0
LINE
8
BLACK
6
CONTINUOUS
10
0.974409
20
1.70571
11
0.98622
21
1.70571
0
LINE
8
BLACK
6
CONTINUOUS
10
0.98622
20
1.70571
11
0.98848
21
1.70526
0
LINE
8
BLACK
6
CONTINUOUS
10
0.94911
20
1.70526
11
0.951026
21
1.70398
0
LINE
8
BLACK
6
CONTINUOUS
10
0.951026
20
1.70398
11
0.952306
21
1.70206
0
LINE
8
BLACK
6
CONTINUOUS
10
0.952306
20
1.70206
11
0.952756
21
1.6998
0
LINE
8
BLACK
6
CONTINUOUS
10
0.952756
20
1.6998
11
0.952756
21
1.63878
0
LINE
8
BLACK
6
CONTINUOUS
10
0.952756
20
1.63878
11
0.952306
21
1.63652
0
LINE
8
BLACK
6
CONTINUOUS
10
0.952306
20
1.63652
11
0.951026
21
1.6346
0
LINE
8
BLACK
6
CONTINUOUS
10
0.951026
20
1.6346
11
0.94911
21
1.63332
0
LINE
8
BLACK
6
CONTINUOUS
10
0.94911
20
1.63332
11
0.94685
21
1.63287
0
LINE
8
BLACK
6
CONTINUOUS
10
0.94685
20
1.63287
11
0.935039
21
1.63287
0
LINE
8
BLACK
6
CONTINUOUS
10
0.935039
20
1.63287
11
0.932779
21
1.63332
0
LINE
8
BLACK
6
CONTINUOUS
10
0.932779
20
1.63332
11
0.930864
21
1.6346
0
LINE
8
BLACK
6
CONTINUOUS
10
0.930864
20
1.6346
11
0.929583
21
1.63652
0
LINE
8
BLACK
6
CONTINUOUS
10
0.929583
20
1.63652
11
0.929134
21
1.63878
0
LINE
8
BLACK
6
CONTINUOUS
10
0.929134
20
1.63878
11
0.929134
21
1.6998
0
LINE
8
BLACK
6
CONTINUOUS
10
0.929134
20
1.6998
11
0.929583
21
1.70206
0
LINE
8
BLACK
6
CONTINUOUS
10
0.929583
20
1.70206
11
0.930864
21
1.70398
0
LINE
8
BLACK
6
CONTINUOUS
10
0.930864
20
1.70398
11
0.932779
21
1.70526
0
LINE
8
BLACK
6
CONTINUOUS
10
0.932779
20
1.70526
11
0.935039
21
1.70571
0
LINE
8
BLACK
6
CONTINUOUS
10
0.935039
20
1.70571
11
0.94685
21
1.70571
0
LINE
8
BLACK
6
CONTINUOUS
10
0.94685
20
1.70571
11
0.94911
21
1.70526
0
LINE
8
BLACK
6
CONTINUOUS
10
0.654528
20
1.63333
11
0.636811
21
1.63333
0
LINE
8
BLACK
6
CONTINUOUS
10
0.636811
20
1.63333
11
0.636811
21
1.6914
0
LINE
8
BLACK
6
CONTINUOUS
10
0.636811
20
1.6914
11
0.654528
21
1.6914
0
LINE
8
BLACK
6
CONTINUOUS
10
0.654528
20
1.6914
11
0.654528
21
1.63333
0
LINE
8
BLACK
6
CONTINUOUS
10
0.628937
20
1.63333
11
0.61122
21
1.63333
0
LINE
8
BLACK
6
CONTINUOUS
10
0.61122
20
1.63333
11
0.61122
21
1.6914
0
LINE
8
BLACK
6
CONTINUOUS
10
0.61122
20
1.6914
11
0.628937
21
1.6914
0
LINE
8
BLACK
6
CONTINUOUS
10
0.628937
20
1.6914
11
0.628937
21
1.63333
0
LINE
8
BLACK
6
CONTINUOUS
10
0.603346
20
1.63333
11
0.58563
21
1.63333
0
LINE
8
BLACK
6
CONTINUOUS
10
0.58563
20
1.63333
11
0.58563
21
1.6914
0
LINE
8
BLACK
6
CONTINUOUS
10
0.58563
20
1.6914
11
0.603346
21
1.6914
0
LINE
8
BLACK
6
CONTINUOUS
10
0.603346
20
1.6914
11
0.603346
21
1.63333
0
LINE
8
BLACK
6
CONTINUOUS
10
0.577756
20
1.63333
11
0.560039
21
1.63333
0
LINE
8
BLACK
6
CONTINUOUS
10
0.560039
20
1.63333
11
0.560039
21
1.6914
0
LINE
8
BLACK
6
CONTINUOUS
10
0.560039
20
1.6914
11
0.577756
21
1.6914
0
LINE
8
BLACK
6
CONTINUOUS
10
0.577756
20
1.6914
11
0.577756
21
1.63333
0
LINE
8
BLACK
6
CONTINUOUS
10
0.552165
20
1.63333
11
0.534449
21
1.63333
0
LINE
8
BLACK
6
CONTINUOUS
10
0.534449
20
1.63333
11
0.534449
21
1.6914
0
LINE
8
BLACK
6
CONTINUOUS
10
0.534449
20
1.6914
11
0.552165
21
1.6914
0
LINE
8
BLACK
6
CONTINUOUS
10
0.552165
20
1.6914
11
0.552165
21
1.63333
0
LINE
8
BLACK
6
CONTINUOUS
10
0.526575
20
1.63333
11
0.508858
21
1.63333
0
LINE
8
BLACK
6
CONTINUOUS
10
0.508858
20
1.63333
11
0.508858
21
1.6914
0
LINE
8
BLACK
6
CONTINUOUS
10
0.508858
20
1.6914
11
0.526575
21
1.6914
0
LINE
8
BLACK
6
CONTINUOUS
10
0.526575
20
1.6914
11
0.526575
21
1.63333
0
LINE
8
BLACK
6
CONTINUOUS
10
0.500984
20
1.63333
11
0.483268
21
1.63333
0
LINE
8
BLACK
6
CONTINUOUS
10
0.483268
20
1.63333
11
0.483268
21
1.6914
0
LINE
8
BLACK
6
CONTINUOUS
10
0.483268
20
1.6914
11
0.500984
21
1.6914
0
LINE
8
BLACK
6
CONTINUOUS
10
0.500984
20
1.6914
11
0.500984
21
1.63333
0
LINE
8
BLACK
6
CONTINUOUS
10
0.475394
20
1.63333
11
0.457677
21
1.63333
0
LINE
8
BLACK
6
CONTINUOUS
10
0.457677
20
1.63333
11
0.457677
21
1.6914
0
LINE
8
BLACK
6
CONTINUOUS
10
0.457677
20
1.6914
11
0.475394
21
1.6914
0
LINE
8
BLACK
6
CONTINUOUS
10
0.475394
20
1.6914
11
0.475394
21
1.63333
0
LINE
8
BLACK
6
CONTINUOUS
10
1.63566
20
1.70102
11
1.63885
21
1.69889
0
LINE
8
BLACK
6
CONTINUOUS
10
1.63885
20
1.69889
11
1.64098
21
1.6957
0
LINE
8
BLACK
6
CONTINUOUS
10
1.64098
20
1.6957
11
1.64173
21
1.69193
0
LINE
8
BLACK
6
CONTINUOUS
10
1.64173
20
1.69193
11
1.64173
21
1.65453
0
LINE
8
BLACK
6
CONTINUOUS
10
1.64173
20
1.65453
11
1.64098
21
1.65076
0
LINE
8
BLACK
6
CONTINUOUS
10
1.64098
20
1.65076
11
1.63885
21
1.64757
0
LINE
8
BLACK
6
CONTINUOUS
10
1.63885
20
1.64757
11
1.63566
21
1.64543
0
LINE
8
BLACK
6
CONTINUOUS
10
1.63566
20
1.64543
11
1.63189
21
1.64469
0
LINE
8
BLACK
6
CONTINUOUS
10
1.63189
20
1.64469
11
1.6122
21
1.64469
0
LINE
8
BLACK
6
CONTINUOUS
10
1.6122
20
1.64469
11
1.60844
21
1.64543
0
LINE
8
BLACK
6
CONTINUOUS
10
1.60844
20
1.64543
11
1.60525
21
1.64757
0
LINE
8
BLACK
6
CONTINUOUS
10
1.60525
20
1.64757
11
1.60311
21
1.65076
0
LINE
8
BLACK
6
CONTINUOUS
10
1.60311
20
1.65076
11
1.60236
21
1.65453
0
LINE
8
BLACK
6
CONTINUOUS
10
1.60236
20
1.65453
11
1.60236
21
1.69193
0
LINE
8
BLACK
6
CONTINUOUS
10
1.60236
20
1.69193
11
1.60311
21
1.6957
0
LINE
8
BLACK
6
CONTINUOUS
10
1.60311
20
1.6957
11
1.60525
21
1.69889
0
LINE
8
BLACK
6
CONTINUOUS
10
1.60525
20
1.69889
11
1.60844
21
1.70102
0
LINE
8
BLACK
6
CONTINUOUS
10
1.60844
20
1.70102
11
1.6122
21
1.70177
0
LINE
8
BLACK
6
CONTINUOUS
10
1.6122
20
1.70177
11
1.63189
21
1.70177
0
LINE
8
BLACK
6
CONTINUOUS
10
1.63189
20
1.70177
11
1.63566
21
1.70102
0
LINE
8
BLACK
6
CONTINUOUS
10
1.56085
20
1.70102
11
1.56405
21
1.69889
0
LINE
8
BLACK
6
CONTINUOUS
10
1.56405
20
1.69889
11
1.56618
21
1.6957
0
LINE
8
BLACK
6
CONTINUOUS
10
1.56618
20
1.6957
11
1.56693
21
1.69193
0
LINE
8
BLACK
6
CONTINUOUS
10
1.56693
20
1.69193
11
1.56693
21
1.65453
0
LINE
8
BLACK
6
CONTINUOUS
10
1.56693
20
1.65453
11
1.56618
21
1.65076
0
LINE
8
BLACK
6
CONTINUOUS
10
1.56618
20
1.65076
11
1.56405
21
1.64757
0
LINE
8
BLACK
6
CONTINUOUS
10
1.56405
20
1.64757
11
1.56085
21
1.64543
0
LINE
8
BLACK
6
CONTINUOUS
10
1.56085
20
1.64543
11
1.55709
21
1.64469
0
LINE
8
BLACK
6
CONTINUOUS
10
1.55709
20
1.64469
11
1.5374
21
1.64469
0
LINE
8
BLACK
6
CONTINUOUS
10
1.5374
20
1.64469
11
1.53364
21
1.64543
0
LINE
8
BLACK
6
CONTINUOUS
10
1.53364
20
1.64543
11
1.53044
21
1.64757
0
LINE
8
BLACK
6
CONTINUOUS
10
1.53044
20
1.64757
11
1.52831
21
1.65076
0
LINE
8
BLACK
6
CONTINUOUS
10
1.52831
20
1.65076
11
1.52756
21
1.65453
0
LINE
8
BLACK
6
CONTINUOUS
10
1.52756
20
1.65453
11
1.52756
21
1.69193
0
LINE
8
BLACK
6
CONTINUOUS
10
1.52756
20
1.69193
11
1.52831
21
1.6957
0
LINE
8
BLACK
6
CONTINUOUS
10
1.52831
20
1.6957
11
1.53044
21
1.69889
0
LINE
8
BLACK
6
CONTINUOUS
10
1.53044
20
1.69889
11
1.53364
21
1.70102
0
LINE
8
BLACK
6
CONTINUOUS
10
1.53364
20
1.70102
11
1.5374
21
1.70177
0
LINE
8
BLACK
6
CONTINUOUS
10
1.5374
20
1.70177
11
1.55709
21
1.70177
0
LINE
8
BLACK
6
CONTINUOUS
10
1.55709
20
1.70177
11
1.56085
21
1.70102
0
LINE
8
BLACK
6
CONTINUOUS
10
1.38021
20
1.73282
11
1.38213
21
1.73154
0
LINE
8
BLACK
6
CONTINUOUS
10
1.38213
20
1.73154
11
1.38341
21
1.72962
0
LINE
8
BLACK
6
CONTINUOUS
10
1.38341
20
1.72962
11
1.38386
21
1.72736
0
LINE
8
BLACK
6
CONTINUOUS
10
1.38386
20
1.72736
11
1.38386
21
1.68701
0
LINE
8
BLACK
6
CONTINUOUS
10
1.38386
20
1.68701
11
1.38341
21
1.68475
0
LINE
8
BLACK
6
CONTINUOUS
10
1.38341
20
1.68475
11
1.38213
21
1.68283
0
LINE
8
BLACK
6
CONTINUOUS
10
1.38213
20
1.68283
11
1.38021
21
1.68155
0
LINE
8
BLACK
6
CONTINUOUS
10
1.38021
20
1.68155
11
1.37795
21
1.6811
0
LINE
8
BLACK
6
CONTINUOUS
10
1.37795
20
1.6811
11
1.36614
21
1.6811
0
LINE
8
BLACK
6
CONTINUOUS
10
1.36614
20
1.6811
11
1.36388
21
1.68155
0
LINE
8
BLACK
6
CONTINUOUS
10
1.36388
20
1.68155
11
1.36197
21
1.68283
0
LINE
8
BLACK
6
CONTINUOUS
10
1.36197
20
1.68283
11
1.36069
21
1.68475
0
LINE
8
BLACK
6
CONTINUOUS
10
1.36069
20
1.68475
11
1.36024
21
1.68701
0
LINE
8
BLACK
6
CONTINUOUS
10
1.36024
20
1.68701
11
1.36024
21
1.72736
0
LINE
8
BLACK
6
CONTINUOUS
10
1.36024
20
1.72736
11
1.36069
21
1.72962
0
LINE
8
BLACK
6
CONTINUOUS
10
1.36069
20
1.72962
11
1.36197
21
1.73154
0
LINE
8
BLACK
6
CONTINUOUS
10
1.36197
20
1.73154
11
1.36388
21
1.73282
0
LINE
8
BLACK
6
CONTINUOUS
10
1.36388
20
1.73282
11
1.36614
21
1.73327
0
LINE
8
BLACK
6
CONTINUOUS
10
1.36614
20
1.73327
11
1.37795
21
1.73327
0
LINE
8
BLACK
6
CONTINUOUS
10
1.37795
20
1.73327
11
1.38021
21
1.73282
0
LINE
8
BLACK
6
CONTINUOUS
10
1.30541
20
1.73282
11
1.30733
21
1.73154
0
LINE
8
BLACK
6
CONTINUOUS
10
1.30733
20
1.73154
11
1.30861
21
1.72962
0
LINE
8
BLACK
6
CONTINUOUS
10
1.30861
20
1.72962
11
1.30906
21
1.72736
0
LINE
8
BLACK
6
CONTINUOUS
10
1.30906
20
1.72736
11
1.30906
21
1.68701
0
LINE
8
BLACK
6
CONTINUOUS
10
1.30906
20
1.68701
11
1.30861
21
1.68475
0
LINE
8
BLACK
6
CONTINUOUS
10
1.30861
20
1.68475
11
1.30733
21
1.68283
0
LINE
8
BLACK
6
CONTINUOUS
10
1.30733
20
1.68283
11
1.30541
21
1.68155
0
LINE
8
BLACK
6
CONTINUOUS
10
1.30541
20
1.68155
11
1.30315
21
1.6811
0
LINE
8
BLACK
6
CONTINUOUS
10
1.30315
20
1.6811
11
1.29134
21
1.6811
0
LINE
8
BLACK
6
CONTINUOUS
10
1.29134
20
1.6811
11
1.28908
21
1.68155
0
LINE
8
BLACK
6
CONTINUOUS
10
1.28908
20
1.68155
11
1.28716
21
1.68283
0
LINE
8
BLACK
6
CONTINUOUS
10
1.28716
20
1.68283
11
1.28588
21
1.68475
0
LINE
8
BLACK
6
CONTINUOUS
10
1.28588
20
1.68475
11
1.28543
21
1.68701
0
LINE
8
BLACK
6
CONTINUOUS
10
1.28543
20
1.68701
11
1.28543
21
1.72736
0
LINE
8
BLACK
6
CONTINUOUS
10
1.28543
20
1.72736
11
1.28588
21
1.72962
0
LINE
8
BLACK
6
CONTINUOUS
10
1.28588
20
1.72962
11
1.28716
21
1.73154
0
LINE
8
BLACK
6
CONTINUOUS
10
1.28716
20
1.73154
11
1.28908
21
1.73282
0
LINE
8
BLACK
6
CONTINUOUS
10
1.28908
20
1.73282
11
1.29134
21
1.73327
0
LINE
8
BLACK
6
CONTINUOUS
10
1.29134
20
1.73327
11
1.30315
21
1.73327
0
LINE
8
BLACK
6
CONTINUOUS
10
1.30315
20
1.73327
11
1.30541
21
1.73282
0
LINE
8
BLACK
6
CONTINUOUS
10
0.846457
20
1.70472
11
0.76378
21
1.70472
0
LINE
8
BLACK
6
CONTINUOUS
10
0.76378
20
1.70472
11
0.76378
21
1.87402
0
LINE
8
BLACK
6
CONTINUOUS
10
0.76378
20
1.87402
11
0.846457
21
1.87402
0
LINE
8
BLACK
6
CONTINUOUS
10
0.846457
20
1.87402
11
0.846457
21
1.70472
0
LINE
8
BLACK
6
CONTINUOUS
10
1.23622
20
1.70472
11
1.15354
21
1.70472
0
LINE
8
BLACK
6
CONTINUOUS
10
1.15354
20
1.70472
11
1.15354
21
1.87402
0
LINE
8
BLACK
6
CONTINUOUS
10
1.15354
20
1.87402
11
1.23622
21
1.87402
0
LINE
8
BLACK
6
CONTINUOUS
10
1.23622
20
1.87402
11
1.23622
21
1.70472
0
LINE
8
BLACK
6
CONTINUOUS
10
1.47129
20
1.74925
11
1.47448
21
1.74712
0
LINE
8
BLACK
6
CONTINUOUS
10
1.47448
20
1.74712
11
1.47661
21
1.74392
0
LINE
8
BLACK
6
CONTINUOUS
10
1.47661
20
1.74392
11
1.47736
21
1.74016
0
LINE
8
BLACK
6
CONTINUOUS
10
1.47736
20
1.74016
11
1.47736
21
1.72047
0
LINE
8
BLACK
6
CONTINUOUS
10
1.47736
20
1.72047
11
1.47661
21
1.71671
0
LINE
8
BLACK
6
CONTINUOUS
10
1.47661
20
1.71671
11
1.47448
21
1.71351
0
LINE
8
BLACK
6
CONTINUOUS
10
1.47448
20
1.71351
11
1.47129
21
1.71138
0
LINE
8
BLACK
6
CONTINUOUS
10
1.47129
20
1.71138
11
1.46752
21
1.71063
0
LINE
8
BLACK
6
CONTINUOUS
10
1.46752
20
1.71063
11
1.43012
21
1.71063
0
LINE
8
BLACK
6
CONTINUOUS
10
1.43012
20
1.71063
11
1.42635
21
1.71138
0
LINE
8
BLACK
6
CONTINUOUS
10
1.42635
20
1.71138
11
1.42316
21
1.71351
0
LINE
8
BLACK
6
CONTINUOUS
10
1.42316
20
1.71351
11
1.42102
21
1.71671
0
LINE
8
BLACK
6
CONTINUOUS
10
1.42102
20
1.71671
11
1.42028
21
1.72047
0
LINE
8
BLACK
6
CONTINUOUS
10
1.42028
20
1.72047
11
1.42028
21
1.74016
0
LINE
8
BLACK
6
CONTINUOUS
10
1.42028
20
1.74016
11
1.42102
21
1.74392
0
LINE
8
BLACK
6
CONTINUOUS
10
1.42102
20
1.74392
11
1.42316
21
1.74712
0
LINE
8
BLACK
6
CONTINUOUS
10
1.42316
20
1.74712
11
1.42635
21
1.74925
0
LINE
8
BLACK
6
CONTINUOUS
10
1.42635
20
1.74925
11
1.43012
21
1.75
0
LINE
8
BLACK
6
CONTINUOUS
10
1.43012
20
1.75
11
1.46752
21
1.75
0
LINE
8
BLACK
6
CONTINUOUS
10
1.46752
20
1.75
11
1.47129
21
1.74925
0
LINE
8
BLACK
6
CONTINUOUS
10
0.411247
20
1.78272
11
0.41444
21
1.78058
0
LINE
8
BLACK
6
CONTINUOUS
10
0.41444
20
1.78058
11
0.416574
21
1.77739
0
LINE
8
BLACK
6
CONTINUOUS
10
0.416574
20
1.77739
11
0.417323
21
1.77362
0
LINE
8
BLACK
6
CONTINUOUS
10
0.417323
20
1.77362
11
0.417323
21
1.75295
0
LINE
8
BLACK
6
CONTINUOUS
10
0.417323
20
1.75295
11
0.416574
21
1.74919
0
LINE
8
BLACK
6
CONTINUOUS
10
0.416574
20
1.74919
11
0.41444
21
1.74599
0
LINE
8
BLACK
6
CONTINUOUS
10
0.41444
20
1.74599
11
0.411247
21
1.74386
0
LINE
8
BLACK
6
CONTINUOUS
10
0.411247
20
1.74386
11
0.40748
21
1.74311
0
LINE
8
BLACK
6
CONTINUOUS
10
0.40748
20
1.74311
11
0.372047
21
1.74311
0
LINE
8
BLACK
6
CONTINUOUS
10
0.372047
20
1.74311
11
0.368281
21
1.74386
0
LINE
8
BLACK
6
CONTINUOUS
10
0.368281
20
1.74386
11
0.365088
21
1.74599
0
LINE
8
BLACK
6
CONTINUOUS
10
0.365088
20
1.74599
11
0.362954
21
1.74919
0
LINE
8
BLACK
6
CONTINUOUS
10
0.362954
20
1.74919
11
0.362205
21
1.75295
0
LINE
8
BLACK
6
CONTINUOUS
10
0.362205
20
1.75295
11
0.362205
21
1.77362
0
LINE
8
BLACK
6
CONTINUOUS
10
0.362205
20
1.77362
11
0.362954
21
1.77739
0
LINE
8
BLACK
6
CONTINUOUS
10
0.362954
20
1.77739
11
0.365088
21
1.78058
0
LINE
8
BLACK
6
CONTINUOUS
10
0.365088
20
1.78058
11
0.368281
21
1.78272
0
LINE
8
BLACK
6
CONTINUOUS
10
0.368281
20
1.78272
11
0.372047
21
1.78346
0
LINE
8
BLACK
6
CONTINUOUS
10
0.372047
20
1.78346
11
0.40748
21
1.78346
0
LINE
8
BLACK
6
CONTINUOUS
10
0.40748
20
1.78346
11
0.411247
21
1.78272
0
LINE
8
BLACK
6
CONTINUOUS
10
1.30541
20
1.82239
11
1.30733
21
1.8211
0
LINE
8
BLACK
6
CONTINUOUS
10
1.30733
20
1.8211
11
1.30861
21
1.81919
0
LINE
8
BLACK
6
CONTINUOUS
10
1.30861
20
1.81919
11
1.30906
21
1.81693
0
LINE
8
BLACK
6
CONTINUOUS
10
1.30906
20
1.81693
11
1.30906
21
1.77657
0
LINE
8
BLACK
6
CONTINUOUS
10
1.30906
20
1.77657
11
1.30861
21
1.77431
0
LINE
8
BLACK
6
CONTINUOUS
10
1.30861
20
1.77431
11
1.30733
21
1.7724
0
LINE
8
BLACK
6
CONTINUOUS
10
1.30733
20
1.7724
11
1.30541
21
1.77112
0
LINE
8
BLACK
6
CONTINUOUS
10
1.30541
20
1.77112
11
1.30315
21
1.77067
0
LINE
8
BLACK
6
CONTINUOUS
10
1.30315
20
1.77067
11
1.29134
21
1.77067
0
LINE
8
BLACK
6
CONTINUOUS
10
1.29134
20
1.77067
11
1.28908
21
1.77112
0
LINE
8
BLACK
6
CONTINUOUS
10
1.28908
20
1.77112
11
1.28716
21
1.7724
0
LINE
8
BLACK
6
CONTINUOUS
10
1.28716
20
1.7724
11
1.28588
21
1.77431
0
LINE
8
BLACK
6
CONTINUOUS
10
1.28588
20
1.77431
11
1.28543
21
1.77657
0
LINE
8
BLACK
6
CONTINUOUS
10
1.28543
20
1.77657
11
1.28543
21
1.81693
0
LINE
8
BLACK
6
CONTINUOUS
10
1.28543
20
1.81693
11
1.28588
21
1.81919
0
LINE
8
BLACK
6
CONTINUOUS
10
1.28588
20
1.81919
11
1.28716
21
1.8211
0
LINE
8
BLACK
6
CONTINUOUS
10
1.28716
20
1.8211
11
1.28908
21
1.82239
0
LINE
8
BLACK
6
CONTINUOUS
10
1.28908
20
1.82239
11
1.29134
21
1.82283
0
LINE
8
BLACK
6
CONTINUOUS
10
1.29134
20
1.82283
11
1.30315
21
1.82283
0
LINE
8
BLACK
6
CONTINUOUS
10
1.30315
20
1.82283
11
1.30541
21
1.82239
0
LINE
8
BLACK
6
CONTINUOUS
10
1.34281
20
1.82239
11
1.34473
21
1.8211
0
LINE
8
BLACK
6
CONTINUOUS
10
1.34473
20
1.8211
11
1.34601
21
1.81919
0
LINE
8
BLACK
6
CONTINUOUS
10
1.34601
20
1.81919
11
1.34646
21
1.81693
0
LINE
8
BLACK
6
CONTINUOUS
10
1.34646
20
1.81693
11
1.34646
21
1.77657
0
LINE
8
BLACK
6
CONTINUOUS
10
1.34646
20
1.77657
11
1.34601
21
1.77431
0
LINE
8
BLACK
6
CONTINUOUS
10
1.34601
20
1.77431
11
1.34473
21
1.7724
0
LINE
8
BLACK
6
CONTINUOUS
10
1.34473
20
1.7724
11
1.34281
21
1.77112
0
LINE
8
BLACK
6
CONTINUOUS
10
1.34281
20
1.77112
11
1.34055
21
1.77067
0
LINE
8
BLACK
6
CONTINUOUS
10
1.34055
20
1.77067
11
1.32874
21
1.77067
0
LINE
8
BLACK
6
CONTINUOUS
10
1.32874
20
1.77067
11
1.32648
21
1.77112
0
LINE
8
BLACK
6
CONTINUOUS
10
1.32648
20
1.77112
11
1.32456
21
1.7724
0
LINE
8
BLACK
6
CONTINUOUS
10
1.32456
20
1.7724
11
1.32328
21
1.77431
0
LINE
8
BLACK
6
CONTINUOUS
10
1.32328
20
1.77431
11
1.32283
21
1.77657
0
LINE
8
BLACK
6
CONTINUOUS
10
1.32283
20
1.77657
11
1.32283
21
1.81693
0
LINE
8
BLACK
6
CONTINUOUS
10
1.32283
20
1.81693
11
1.32328
21
1.81919
0
LINE
8
BLACK
6
CONTINUOUS
10
1.32328
20
1.81919
11
1.32456
21
1.8211
0
LINE
8
BLACK
6
CONTINUOUS
10
1.32456
20
1.8211
11
1.32648
21
1.82239
0
LINE
8
BLACK
6
CONTINUOUS
10
1.32648
20
1.82239
11
1.32874
21
1.82283
0
LINE
8
BLACK
6
CONTINUOUS
10
1.32874
20
1.82283
11
1.34055
21
1.82283
0
LINE
8
BLACK
6
CONTINUOUS
10
1.34055
20
1.82283
11
1.34281
21
1.82239
0
LINE
8
BLACK
6
CONTINUOUS
10
1.38021
20
1.82239
11
1.38213
21
1.8211
0
LINE
8
BLACK
6
CONTINUOUS
10
1.38213
20
1.8211
11
1.38341
21
1.81919
0
LINE
8
BLACK
6
CONTINUOUS
10
1.38341
20
1.81919
11
1.38386
21
1.81693
0
LINE
8
BLACK
6
CONTINUOUS
10
1.38386
20
1.81693
11
1.38386
21
1.77657
0
LINE
8
BLACK
6
CONTINUOUS
10
1.38386
20
1.77657
11
1.38341
21
1.77431
0
LINE
8
BLACK
6
CONTINUOUS
10
1.38341
20
1.77431
11
1.38213
21
1.7724
0
LINE
8
BLACK
6
CONTINUOUS
10
1.38213
20
1.7724
11
1.38021
21
1.77112
0
LINE
8
BLACK
6
CONTINUOUS
10
1.38021
20
1.77112
11
1.37795
21
1.77067
0
LINE
8
BLACK
6
CONTINUOUS
10
1.37795
20
1.77067
11
1.36614
21
1.77067
0
LINE
8
BLACK
6
CONTINUOUS
10
1.36614
20
1.77067
11
1.36388
21
1.77112
0
LINE
8
BLACK
6
CONTINUOUS
10
1.36388
20
1.77112
11
1.36197
21
1.7724
0
LINE
8
BLACK
6
CONTINUOUS
10
1.36197
20
1.7724
11
1.36069
21
1.77431
0
LINE
8
BLACK
6
CONTINUOUS
10
1.36069
20
1.77431
11
1.36024
21
1.77657
0
LINE
8
BLACK
6
CONTINUOUS
10
1.36024
20
1.77657
11
1.36024
21
1.81693
0
LINE
8
BLACK
6
CONTINUOUS
10
1.36024
20
1.81693
11
1.36069
21
1.81919
0
LINE
8
BLACK
6
CONTINUOUS
10
1.36069
20
1.81919
11
1.36197
21
1.8211
0
LINE
8
BLACK
6
CONTINUOUS
10
1.36197
20
1.8211
11
1.36388
21
1.82239
0
LINE
8
BLACK
6
CONTINUOUS
10
1.36388
20
1.82239
11
1.36614
21
1.82283
0
LINE
8
BLACK
6
CONTINUOUS
10
1.36614
20
1.82283
11
1.37795
21
1.82283
0
LINE
8
BLACK
6
CONTINUOUS
10
1.37795
20
1.82283
11
1.38021
21
1.82239
0
LINE
8
BLACK
6
CONTINUOUS
10
1.47129
20
1.82405
11
1.47448
21
1.82192
0
LINE
8
BLACK
6
CONTINUOUS
10
1.47448
20
1.82192
11
1.47661
21
1.81873
0
LINE
8
BLACK
6
CONTINUOUS
10
1.47661
20
1.81873
11
1.47736
21
1.81496
0
LINE
8
BLACK
6
CONTINUOUS
10
1.47736
20
1.81496
11
1.47736
21
1.79528
0
LINE
8
BLACK
6
CONTINUOUS
10
1.47736
20
1.79528
11
1.47661
21
1.79151
0
LINE
8
BLACK
6
CONTINUOUS
10
1.47661
20
1.79151
11
1.47448
21
1.78832
0
LINE
8
BLACK
6
CONTINUOUS
10
1.47448
20
1.78832
11
1.47129
21
1.78618
0
LINE
8
BLACK
6
CONTINUOUS
10
1.47129
20
1.78618
11
1.46752
21
1.78543
0
LINE
8
BLACK
6
CONTINUOUS
10
1.46752
20
1.78543
11
1.43012
21
1.78543
0
LINE
8
BLACK
6
CONTINUOUS
10
1.43012
20
1.78543
11
1.42635
21
1.78618
0
LINE
8
BLACK
6
CONTINUOUS
10
1.42635
20
1.78618
11
1.42316
21
1.78832
0
LINE
8
BLACK
6
CONTINUOUS
10
1.42316
20
1.78832
11
1.42102
21
1.79151
0
LINE
8
BLACK
6
CONTINUOUS
10
1.42102
20
1.79151
11
1.42028
21
1.79528
0
LINE
8
BLACK
6
CONTINUOUS
10
1.42028
20
1.79528
11
1.42028
21
1.81496
0
LINE
8
BLACK
6
CONTINUOUS
10
1.42028
20
1.81496
11
1.42102
21
1.81873
0
LINE
8
BLACK
6
CONTINUOUS
10
1.42102
20
1.81873
11
1.42316
21
1.82192
0
LINE
8
BLACK
6
CONTINUOUS
10
1.42316
20
1.82192
11
1.42635
21
1.82405
0
LINE
8
BLACK
6
CONTINUOUS
10
1.42635
20
1.82405
11
1.43012
21
1.8248
0
LINE
8
BLACK
6
CONTINUOUS
10
1.43012
20
1.8248
11
1.46752
21
1.8248
0
LINE
8
BLACK
6
CONTINUOUS
10
1.46752
20
1.8248
11
1.47129
21
1.82405
0
LINE
8
BLACK
6
CONTINUOUS
10
0.411247
20
1.85457
11
0.41444
21
1.85243
0
LINE
8
BLACK
6
CONTINUOUS
10
0.41444
20
1.85243
11
0.416574
21
1.84924
0
LINE
8
BLACK
6
CONTINUOUS
10
0.416574
20
1.84924
11
0.417323
21
1.84547
0
LINE
8
BLACK
6
CONTINUOUS
10
0.417323
20
1.84547
11
0.417323
21
1.8248
0
LINE
8
BLACK
6
CONTINUOUS
10
0.417323
20
1.8248
11
0.416574
21
1.82104
0
LINE
8
BLACK
6
CONTINUOUS
10
0.416574
20
1.82104
11
0.41444
21
1.81784
0
LINE
8
BLACK
6
CONTINUOUS
10
0.41444
20
1.81784
11
0.411247
21
1.81571
0
LINE
8
BLACK
6
CONTINUOUS
10
0.411247
20
1.81571
11
0.40748
21
1.81496
0
LINE
8
BLACK
6
CONTINUOUS
10
0.40748
20
1.81496
11
0.372047
21
1.81496
0
LINE
8
BLACK
6
CONTINUOUS
10
0.372047
20
1.81496
11
0.368281
21
1.81571
0
LINE
8
BLACK
6
CONTINUOUS
10
0.368281
20
1.81571
11
0.365088
21
1.81784
0
LINE
8
BLACK
6
CONTINUOUS
10
0.365088
20
1.81784
11
0.362954
21
1.82104
0
LINE
8
BLACK
6
CONTINUOUS
10
0.362954
20
1.82104
11
0.362205
21
1.8248
0
LINE
8
BLACK
6
CONTINUOUS
10
0.362205
20
1.8248
11
0.362205
21
1.84547
0
LINE
8
BLACK
6
CONTINUOUS
10
0.362205
20
1.84547
11
0.362954
21
1.84924
0
LINE
8
BLACK
6
CONTINUOUS
10
0.362954
20
1.84924
11
0.365088
21
1.85243
0
LINE
8
BLACK
6
CONTINUOUS
10
0.365088
20
1.85243
11
0.368281
21
1.85457
0
LINE
8
BLACK
6
CONTINUOUS
10
0.368281
20
1.85457
11
0.372047
21
1.85531
0
LINE
8
BLACK
6
CONTINUOUS
10
0.372047
20
1.85531
11
0.40748
21
1.85531
0
LINE
8
BLACK
6
CONTINUOUS
10
0.40748
20
1.85531
11
0.411247
21
1.85457
0
LINE
8
BLACK
6
CONTINUOUS
10
1.38335
20
1.90478
11
1.38646
21
1.9027
0
LINE
8
BLACK
6
CONTINUOUS
10
1.38646
20
1.9027
11
1.38854
21
1.89959
0
LINE
8
BLACK
6
CONTINUOUS
10
1.38854
20
1.89959
11
1.38927
21
1.89592
0
LINE
8
BLACK
6
CONTINUOUS
10
1.38927
20
1.89592
11
1.38927
21
1.85999
0
LINE
8
BLACK
6
CONTINUOUS
10
1.38927
20
1.85999
11
1.38854
21
1.85632
0
LINE
8
BLACK
6
CONTINUOUS
10
1.38854
20
1.85632
11
1.38646
21
1.8532
0
LINE
8
BLACK
6
CONTINUOUS
10
1.38646
20
1.8532
11
1.38335
21
1.85112
0
LINE
8
BLACK
6
CONTINUOUS
10
1.38335
20
1.85112
11
1.37968
21
1.85039
0
LINE
8
BLACK
6
CONTINUOUS
10
1.37968
20
1.85039
11
1.36048
21
1.85039
0
LINE
8
BLACK
6
CONTINUOUS
10
1.36048
20
1.85039
11
1.35681
21
1.85112
0
LINE
8
BLACK
6
CONTINUOUS
10
1.35681
20
1.85112
11
1.3537
21
1.8532
0
LINE
8
BLACK
6
CONTINUOUS
10
1.3537
20
1.8532
11
1.35162
21
1.85632
0
LINE
8
BLACK
6
CONTINUOUS
10
1.35162
20
1.85632
11
1.35089
21
1.85999
0
LINE
8
BLACK
6
CONTINUOUS
10
1.35089
20
1.85999
11
1.35089
21
1.89592
0
LINE
8
BLACK
6
CONTINUOUS
10
1.35089
20
1.89592
11
1.35162
21
1.89959
0
LINE
8
BLACK
6
CONTINUOUS
10
1.35162
20
1.89959
11
1.3537
21
1.9027
0
LINE
8
BLACK
6
CONTINUOUS
10
1.3537
20
1.9027
11
1.35681
21
1.90478
0
LINE
8
BLACK
6
CONTINUOUS
10
1.35681
20
1.90478
11
1.36048
21
1.90551
0
LINE
8
BLACK
6
CONTINUOUS
10
1.36048
20
1.90551
11
1.37968
21
1.90551
0
LINE
8
BLACK
6
CONTINUOUS
10
1.37968
20
1.90551
11
1.38335
21
1.90478
0
LINE
8
BLACK
6
CONTINUOUS
10
1.30953
20
1.90478
11
1.31264
21
1.9027
0
LINE
8
BLACK
6
CONTINUOUS
10
1.31264
20
1.9027
11
1.31472
21
1.89959
0
LINE
8
BLACK
6
CONTINUOUS
10
1.31472
20
1.89959
11
1.31545
21
1.89592
0
LINE
8
BLACK
6
CONTINUOUS
10
1.31545
20
1.89592
11
1.31545
21
1.85999
0
LINE
8
BLACK
6
CONTINUOUS
10
1.31545
20
1.85999
11
1.31472
21
1.85632
0
LINE
8
BLACK
6
CONTINUOUS
10
1.31472
20
1.85632
11
1.31264
21
1.8532
0
LINE
8
BLACK
6
CONTINUOUS
10
1.31264
20
1.8532
11
1.30953
21
1.85112
0
LINE
8
BLACK
6
CONTINUOUS
10
1.30953
20
1.85112
11
1.30586
21
1.85039
0
LINE
8
BLACK
6
CONTINUOUS
10
1.30586
20
1.85039
11
1.28666
21
1.85039
0
LINE
8
BLACK
6
CONTINUOUS
10
1.28666
20
1.85039
11
1.28299
21
1.85112
0
LINE
8
BLACK
6
CONTINUOUS
10
1.28299
20
1.85112
11
1.27988
21
1.8532
0
LINE
8
BLACK
6
CONTINUOUS
10
1.27988
20
1.8532
11
1.2778
21
1.85632
0
LINE
8
BLACK
6
CONTINUOUS
10
1.2778
20
1.85632
11
1.27707
21
1.85999
0
LINE
8
BLACK
6
CONTINUOUS
10
1.27707
20
1.85999
11
1.27707
21
1.89592
0
LINE
8
BLACK
6
CONTINUOUS
10
1.27707
20
1.89592
11
1.2778
21
1.89959
0
LINE
8
BLACK
6
CONTINUOUS
10
1.2778
20
1.89959
11
1.27988
21
1.9027
0
LINE
8
BLACK
6
CONTINUOUS
10
1.27988
20
1.9027
11
1.28299
21
1.90478
0
LINE
8
BLACK
6
CONTINUOUS
10
1.28299
20
1.90478
11
1.28666
21
1.90551
0
LINE
8
BLACK
6
CONTINUOUS
10
1.28666
20
1.90551
11
1.30586
21
1.90551
0
LINE
8
BLACK
6
CONTINUOUS
10
1.30586
20
1.90551
11
1.30953
21
1.90478
0
LINE
8
BLACK
6
CONTINUOUS
10
0.526575
20
1.86467
11
0.508858
21
1.86467
0
LINE
8
BLACK
6
CONTINUOUS
10
0.508858
20
1.86467
11
0.508858
21
1.92274
0
LINE
8
BLACK
6
CONTINUOUS
10
0.508858
20
1.92274
11
0.526575
21
1.92274
0
LINE
8
BLACK
6
CONTINUOUS
10
0.526575
20
1.92274
11
0.526575
21
1.86467
0
LINE
8
BLACK
6
CONTINUOUS
10
0.475394
20
1.86467
11
0.457677
21
1.86467
0
LINE
8
BLACK
6
CONTINUOUS
10
0.457677
20
1.86467
11
0.457677
21
1.92274
0
LINE
8
BLACK
6
CONTINUOUS
10
0.457677
20
1.92274
11
0.475394
21
1.92274
0
LINE
8
BLACK
6
CONTINUOUS
10
0.475394
20
1.92274
11
0.475394
21
1.86467
0
LINE
8
BLACK
6
CONTINUOUS
10
0.654528
20
1.86467
11
0.636811
21
1.86467
0
LINE
8
BLACK
6
CONTINUOUS
10
0.636811
20
1.86467
11
0.636811
21
1.92274
0
LINE
8
BLACK
6
CONTINUOUS
10
0.636811
20
1.92274
11
0.654528
21
1.92274
0
LINE
8
BLACK
6
CONTINUOUS
10
0.654528
20
1.92274
11
0.654528
21
1.86467
0
LINE
8
BLACK
6
CONTINUOUS
10
0.500984
20
1.86467
11
0.483268
21
1.86467
0
LINE
8
BLACK
6
CONTINUOUS
10
0.483268
20
1.86467
11
0.483268
21
1.92274
0
LINE
8
BLACK
6
CONTINUOUS
10
0.483268
20
1.92274
11
0.500984
21
1.92274
0
LINE
8
BLACK
6
CONTINUOUS
10
0.500984
20
1.92274
11
0.500984
21
1.86467
0
LINE
8
BLACK
6
CONTINUOUS
10
0.552165
20
1.86467
11
0.534449
21
1.86467
0
LINE
8
BLACK
6
CONTINUOUS
10
0.534449
20
1.86467
11
0.534449
21
1.92274
0
LINE
8
BLACK
6
CONTINUOUS
10
0.534449
20
1.92274
11
0.552165
21
1.92274
0
LINE
8
BLACK
6
CONTINUOUS
10
0.552165
20
1.92274
11
0.552165
21
1.86467
0
LINE
8
BLACK
6
CONTINUOUS
10
0.577756
20
1.86467
11
0.560039
21
1.86467
0
LINE
8
BLACK
6
CONTINUOUS
10
0.560039
20
1.86467
11
0.560039
21
1.92274
0
LINE
8
BLACK
6
CONTINUOUS
10
0.560039
20
1.92274
11
0.577756
21
1.92274
0
LINE
8
BLACK
6
CONTINUOUS
10
0.577756
20
1.92274
11
0.577756
21
1.86467
0
LINE
8
BLACK
6
CONTINUOUS
10
0.628937
20
1.86467
11
0.61122
21
1.86467
0
LINE
8
BLACK
6
CONTINUOUS
10
0.61122
20
1.86467
11
0.61122
21
1.92274
0
LINE
8
BLACK
6
CONTINUOUS
10
0.61122
20
1.92274
11
0.628937
21
1.92274
0
LINE
8
BLACK
6
CONTINUOUS
10
0.628937
20
1.92274
11
0.628937
21
1.86467
0
LINE
8
BLACK
6
CONTINUOUS
10
0.603346
20
1.86467
11
0.58563
21
1.86467
0
LINE
8
BLACK
6
CONTINUOUS
10
0.58563
20
1.86467
11
0.58563
21
1.92274
0
LINE
8
BLACK
6
CONTINUOUS
10
0.58563
20
1.92274
11
0.603346
21
1.92274
0
LINE
8
BLACK
6
CONTINUOUS
10
0.603346
20
1.92274
11
0.603346
21
1.86467
0
LINE
8
BLACK
6
CONTINUOUS
10
0.279509
20
1.94809
11
0.282622
21
1.94601
0
LINE
8
BLACK
6
CONTINUOUS
10
0.282622
20
1.94601
11
0.284703
21
1.94289
0
LINE
8
BLACK
6
CONTINUOUS
10
0.284703
20
1.94289
11
0.285433
21
1.93922
0
LINE
8
BLACK
6
CONTINUOUS
10
0.285433
20
1.93922
11
0.285433
21
1.9033
0
LINE
8
BLACK
6
CONTINUOUS
10
0.285433
20
1.9033
11
0.284703
21
1.89962
0
LINE
8
BLACK
6
CONTINUOUS
10
0.284703
20
1.89962
11
0.282622
21
1.89651
0
LINE
8
BLACK
6
CONTINUOUS
10
0.282622
20
1.89651
11
0.279509
21
1.89443
0
LINE
8
BLACK
6
CONTINUOUS
10
0.279509
20
1.89443
11
0.275837
21
1.8937
0
LINE
8
BLACK
6
CONTINUOUS
10
0.275837
20
1.8937
11
0.256644
21
1.8937
0
LINE
8
BLACK
6
CONTINUOUS
10
0.256644
20
1.8937
11
0.252971
21
1.89443
0
LINE
8
BLACK
6
CONTINUOUS
10
0.252971
20
1.89443
11
0.249858
21
1.89651
0
LINE
8
BLACK
6
CONTINUOUS
10
0.249858
20
1.89651
11
0.247778
21
1.89962
0
LINE
8
BLACK
6
CONTINUOUS
10
0.247778
20
1.89962
11
0.247047
21
1.9033
0
LINE
8
BLACK
6
CONTINUOUS
10
0.247047
20
1.9033
11
0.247047
21
1.93922
0
LINE
8
BLACK
6
CONTINUOUS
10
0.247047
20
1.93922
11
0.247778
21
1.94289
0
LINE
8
BLACK
6
CONTINUOUS
10
0.247778
20
1.94289
11
0.249858
21
1.94601
0
LINE
8
BLACK
6
CONTINUOUS
10
0.249858
20
1.94601
11
0.252971
21
1.94809
0
LINE
8
BLACK
6
CONTINUOUS
10
0.252971
20
1.94809
11
0.256644
21
1.94882
0
LINE
8
BLACK
6
CONTINUOUS
10
0.256644
20
1.94882
11
0.275837
21
1.94882
0
LINE
8
BLACK
6
CONTINUOUS
10
0.275837
20
1.94882
11
0.279509
21
1.94809
0
LINE
8
BLACK
6
CONTINUOUS
10
0.353328
20
1.94809
11
0.356441
21
1.94601
0
LINE
8
BLACK
6
CONTINUOUS
10
0.356441
20
1.94601
11
0.358521
21
1.94289
0
LINE
8
BLACK
6
CONTINUOUS
10
0.358521
20
1.94289
11
0.359252
21
1.93922
0
LINE
8
BLACK
6
CONTINUOUS
10
0.359252
20
1.93922
11
0.359252
21
1.9033
0
LINE
8
BLACK
6
CONTINUOUS
10
0.359252
20
1.9033
11
0.358521
21
1.89962
0
LINE
8
BLACK
6
CONTINUOUS
10
0.358521
20
1.89962
11
0.356441
21
1.89651
0
LINE
8
BLACK
6
CONTINUOUS
10
0.356441
20
1.89651
11
0.353328
21
1.89443
0
LINE
8
BLACK
6
CONTINUOUS
10
0.353328
20
1.89443
11
0.349656
21
1.8937
0
LINE
8
BLACK
6
CONTINUOUS
10
0.349656
20
1.8937
11
0.330463
21
1.8937
0
LINE
8
BLACK
6
CONTINUOUS
10
0.330463
20
1.8937
11
0.32679
21
1.89443
0
LINE
8
BLACK
6
CONTINUOUS
10
0.32679
20
1.89443
11
0.323677
21
1.89651
0
LINE
8
BLACK
6
CONTINUOUS
10
0.323677
20
1.89651
11
0.321597
21
1.89962
0
LINE
8
BLACK
6
CONTINUOUS
10
0.321597
20
1.89962
11
0.320866
21
1.9033
0
LINE
8
BLACK
6
CONTINUOUS
10
0.320866
20
1.9033
11
0.320866
21
1.93922
0
LINE
8
BLACK
6
CONTINUOUS
10
0.320866
20
1.93922
11
0.321597
21
1.94289
0
LINE
8
BLACK
6
CONTINUOUS
10
0.321597
20
1.94289
11
0.323677
21
1.94601
0
LINE
8
BLACK
6
CONTINUOUS
10
0.323677
20
1.94601
11
0.32679
21
1.94809
0
LINE
8
BLACK
6
CONTINUOUS
10
0.32679
20
1.94809
11
0.330463
21
1.94882
0
LINE
8
BLACK
6
CONTINUOUS
10
0.330463
20
1.94882
11
0.349656
21
1.94882
0
LINE
8
BLACK
6
CONTINUOUS
10
0.349656
20
1.94882
11
0.353328
21
1.94809
0
LINE
8
BLACK
6
CONTINUOUS
10
1.29707
20
2.1213
11
1.30027
21
2.11916
0
LINE
8
BLACK
6
CONTINUOUS
10
1.30027
20
2.11916
11
1.3024
21
2.11597
0
LINE
8
BLACK
6
CONTINUOUS
10
1.3024
20
2.11597
11
1.30315
21
2.1122
0
LINE
8
BLACK
6
CONTINUOUS
10
1.30315
20
2.1122
11
1.30315
21
2.09154
0
LINE
8
BLACK
6
CONTINUOUS
10
1.30315
20
2.09154
11
1.3024
21
2.08777
0
LINE
8
BLACK
6
CONTINUOUS
10
1.3024
20
2.08777
11
1.30027
21
2.08458
0
LINE
8
BLACK
6
CONTINUOUS
10
1.30027
20
2.08458
11
1.29707
21
2.08244
0
LINE
8
BLACK
6
CONTINUOUS
10
1.29707
20
2.08244
11
1.29331
21
2.08169
0
LINE
8
BLACK
6
CONTINUOUS
10
1.29331
20
2.08169
11
1.25787
21
2.08169
0
LINE
8
BLACK
6
CONTINUOUS
10
1.25787
20
2.08169
11
1.25411
21
2.08244
0
LINE
8
BLACK
6
CONTINUOUS
10
1.25411
20
2.08244
11
1.25091
21
2.08458
0
LINE
8
BLACK
6
CONTINUOUS
10
1.25091
20
2.08458
11
1.24878
21
2.08777
0
LINE
8
BLACK
6
CONTINUOUS
10
1.24878
20
2.08777
11
1.24803
21
2.09154
0
LINE
8
BLACK
6
CONTINUOUS
10
1.24803
20
2.09154
11
1.24803
21
2.1122
0
LINE
8
BLACK
6
CONTINUOUS
10
1.24803
20
2.1122
11
1.24878
21
2.11597
0
LINE
8
BLACK
6
CONTINUOUS
10
1.24878
20
2.11597
11
1.25091
21
2.11916
0
LINE
8
BLACK
6
CONTINUOUS
10
1.25091
20
2.11916
11
1.25411
21
2.1213
0
LINE
8
BLACK
6
CONTINUOUS
10
1.25411
20
2.1213
11
1.25787
21
2.12205
0
LINE
8
BLACK
6
CONTINUOUS
10
1.25787
20
2.12205
11
1.29331
21
2.12205
0
LINE
8
BLACK
6
CONTINUOUS
10
1.29331
20
2.12205
11
1.29707
21
2.1213
0
LINE
8
BLACK
6
CONTINUOUS
10
1.21833
20
2.1213
11
1.22153
21
2.11916
0
LINE
8
BLACK
6
CONTINUOUS
10
1.22153
20
2.11916
11
1.22366
21
2.11597
0
LINE
8
BLACK
6
CONTINUOUS
10
1.22366
20
2.11597
11
1.22441
21
2.1122
0
LINE
8
BLACK
6
CONTINUOUS
10
1.22441
20
2.1122
11
1.22441
21
2.09154
0
LINE
8
BLACK
6
CONTINUOUS
10
1.22441
20
2.09154
11
1.22366
21
2.08777
0
LINE
8
BLACK
6
CONTINUOUS
10
1.22366
20
2.08777
11
1.22153
21
2.08458
0
LINE
8
BLACK
6
CONTINUOUS
10
1.22153
20
2.08458
11
1.21833
21
2.08244
0
LINE
8
BLACK
6
CONTINUOUS
10
1.21833
20
2.08244
11
1.21457
21
2.08169
0
LINE
8
BLACK
6
CONTINUOUS
10
1.21457
20
2.08169
11
1.17913
21
2.08169
0
LINE
8
BLACK
6
CONTINUOUS
10
1.17913
20
2.08169
11
1.17537
21
2.08244
0
LINE
8
BLACK
6
CONTINUOUS
10
1.17537
20
2.08244
11
1.17217
21
2.08458
0
LINE
8
BLACK
6
CONTINUOUS
10
1.17217
20
2.08458
11
1.17004
21
2.08777
0
LINE
8
BLACK
6
CONTINUOUS
10
1.17004
20
2.08777
11
1.16929
21
2.09154
0
LINE
8
BLACK
6
CONTINUOUS
10
1.16929
20
2.09154
11
1.16929
21
2.1122
0
LINE
8
BLACK
6
CONTINUOUS
10
1.16929
20
2.1122
11
1.17004
21
2.11597
0
LINE
8
BLACK
6
CONTINUOUS
10
1.17004
20
2.11597
11
1.17217
21
2.11916
0
LINE
8
BLACK
6
CONTINUOUS
10
1.17217
20
2.11916
11
1.17537
21
2.1213
0
LINE
8
BLACK
6
CONTINUOUS
10
1.17537
20
2.1213
11
1.17913
21
2.12205
0
LINE
8
BLACK
6
CONTINUOUS
10
1.17913
20
2.12205
11
1.21457
21
2.12205
0
LINE
8
BLACK
6
CONTINUOUS
10
1.21457
20
2.12205
11
1.21833
21
2.1213
0
LINE
8
BLACK
6
CONTINUOUS
10
0.375474
20
2.15281
11
0.378587
21
2.15073
0
LINE
8
BLACK
6
CONTINUOUS
10
0.378587
20
2.15073
11
0.380667
21
2.14762
0
LINE
8
BLACK
6
CONTINUOUS
10
0.380667
20
2.14762
11
0.381398
21
2.14395
0
LINE
8
BLACK
6
CONTINUOUS
10
0.381398
20
2.14395
11
0.381398
21
2.10802
0
LINE
8
BLACK
6
CONTINUOUS
10
0.381398
20
2.10802
11
0.380667
21
2.10435
0
LINE
8
BLACK
6
CONTINUOUS
10
0.380667
20
2.10435
11
0.378587
21
2.10124
0
LINE
8
BLACK
6
CONTINUOUS
10
0.378587
20
2.10124
11
0.375474
21
2.09916
0
LINE
8
BLACK
6
CONTINUOUS
10
0.375474
20
2.09916
11
0.371801
21
2.09843
0
LINE
8
BLACK
6
CONTINUOUS
10
0.371801
20
2.09843
11
0.352608
21
2.09843
0
LINE
8
BLACK
6
CONTINUOUS
10
0.352608
20
2.09843
11
0.348936
21
2.09916
0
LINE
8
BLACK
6
CONTINUOUS
10
0.348936
20
2.09916
11
0.345823
21
2.10124
0
LINE
8
BLACK
6
CONTINUOUS
10
0.345823
20
2.10124
11
0.343742
21
2.10435
0
LINE
8
BLACK
6
CONTINUOUS
10
0.343742
20
2.10435
11
0.343012
21
2.10802
0
LINE
8
BLACK
6
CONTINUOUS
10
0.343012
20
2.10802
11
0.343012
21
2.14395
0
LINE
8
BLACK
6
CONTINUOUS
10
0.343012
20
2.14395
11
0.343742
21
2.14762
0
LINE
8
BLACK
6
CONTINUOUS
10
0.343742
20
2.14762
11
0.345823
21
2.15073
0
LINE
8
BLACK
6
CONTINUOUS
10
0.345823
20
2.15073
11
0.348936
21
2.15281
0
LINE
8
BLACK
6
CONTINUOUS
10
0.348936
20
2.15281
11
0.352608
21
2.15354
0
LINE
8
BLACK
6
CONTINUOUS
10
0.352608
20
2.15354
11
0.371801
21
2.15354
0
LINE
8
BLACK
6
CONTINUOUS
10
0.371801
20
2.15354
11
0.375474
21
2.15281
0
LINE
8
BLACK
6
CONTINUOUS
10
0.449293
20
2.15281
11
0.452406
21
2.15073
0
LINE
8
BLACK
6
CONTINUOUS
10
0.452406
20
2.15073
11
0.454486
21
2.14762
0
LINE
8
BLACK
6
CONTINUOUS
10
0.454486
20
2.14762
11
0.455217
21
2.14395
0
LINE
8
BLACK
6
CONTINUOUS
10
0.455217
20
2.14395
11
0.455217
21
2.10802
0
LINE
8
BLACK
6
CONTINUOUS
10
0.455217
20
2.10802
11
0.454486
21
2.10435
0
LINE
8
BLACK
6
CONTINUOUS
10
0.454486
20
2.10435
11
0.452406
21
2.10124
0
LINE
8
BLACK
6
CONTINUOUS
10
0.452406
20
2.10124
11
0.449293
21
2.09916
0
LINE
8
BLACK
6
CONTINUOUS
10
0.449293
20
2.09916
11
0.44562
21
2.09843
0
LINE
8
BLACK
6
CONTINUOUS
10
0.44562
20
2.09843
11
0.426427
21
2.09843
0
LINE
8
BLACK
6
CONTINUOUS
10
0.426427
20
2.09843
11
0.422755
21
2.09916
0
LINE
8
BLACK
6
CONTINUOUS
10
0.422755
20
2.09916
11
0.419641
21
2.10124
0
LINE
8
BLACK
6
CONTINUOUS
10
0.419641
20
2.10124
11
0.417561
21
2.10435
0
LINE
8
BLACK
6
CONTINUOUS
10
0.417561
20
2.10435
11
0.416831
21
2.10802
0
LINE
8
BLACK
6
CONTINUOUS
10
0.416831
20
2.10802
11
0.416831
21
2.14395
0
LINE
8
BLACK
6
CONTINUOUS
10
0.416831
20
2.14395
11
0.417561
21
2.14762
0
LINE
8
BLACK
6
CONTINUOUS
10
0.417561
20
2.14762
11
0.419641
21
2.15073
0
LINE
8
BLACK
6
CONTINUOUS
10
0.419641
20
2.15073
11
0.422755
21
2.15281
0
LINE
8
BLACK
6
CONTINUOUS
10
0.422755
20
2.15281
11
0.426427
21
2.15354
0
LINE
8
BLACK
6
CONTINUOUS
10
0.426427
20
2.15354
11
0.44562
21
2.15354
0
LINE
8
BLACK
6
CONTINUOUS
10
0.44562
20
2.15354
11
0.449293
21
2.15281
0
LINE
8
BLACK
6
CONTINUOUS
10
1.90337
20
2.14836
11
1.90657
21
2.14623
0
LINE
8
BLACK
6
CONTINUOUS
10
1.90657
20
2.14623
11
1.9087
21
2.14304
0
LINE
8
BLACK
6
CONTINUOUS
10
1.9087
20
2.14304
11
1.90945
21
2.13927
0
LINE
8
BLACK
6
CONTINUOUS
10
1.90945
20
2.13927
11
1.90945
21
2.1186
0
LINE
8
BLACK
6
CONTINUOUS
10
1.90945
20
2.1186
11
1.9087
21
2.11484
0
LINE
8
BLACK
6
CONTINUOUS
10
1.9087
20
2.11484
11
1.90657
21
2.11164
0
LINE
8
BLACK
6
CONTINUOUS
10
1.90657
20
2.11164
11
1.90337
21
2.10951
0
LINE
8
BLACK
6
CONTINUOUS
10
1.90337
20
2.10951
11
1.89961
21
2.10876
0
LINE
8
BLACK
6
CONTINUOUS
10
1.89961
20
2.10876
11
1.86417
21
2.10876
0
LINE
8
BLACK
6
CONTINUOUS
10
1.86417
20
2.10876
11
1.86041
21
2.10951
0
LINE
8
BLACK
6
CONTINUOUS
10
1.86041
20
2.10951
11
1.85721
21
2.11164
0
LINE
8
BLACK
6
CONTINUOUS
10
1.85721
20
2.11164
11
1.85508
21
2.11484
0
LINE
8
BLACK
6
CONTINUOUS
10
1.85508
20
2.11484
11
1.85433
21
2.1186
0
LINE
8
BLACK
6
CONTINUOUS
10
1.85433
20
2.1186
11
1.85433
21
2.13927
0
LINE
8
BLACK
6
CONTINUOUS
10
1.85433
20
2.13927
11
1.85508
21
2.14304
0
LINE
8
BLACK
6
CONTINUOUS
10
1.85508
20
2.14304
11
1.85721
21
2.14623
0
LINE
8
BLACK
6
CONTINUOUS
10
1.85721
20
2.14623
11
1.86041
21
2.14836
0
LINE
8
BLACK
6
CONTINUOUS
10
1.86041
20
2.14836
11
1.86417
21
2.14911
0
LINE
8
BLACK
6
CONTINUOUS
10
1.86417
20
2.14911
11
1.89961
21
2.14911
0
LINE
8
BLACK
6
CONTINUOUS
10
1.89961
20
2.14911
11
1.90337
21
2.14836
0
LINE
8
BLACK
6
CONTINUOUS
10
1.99014
20
2.14691
11
1.99325
21
2.14483
0
LINE
8
BLACK
6
CONTINUOUS
10
1.99325
20
2.14483
11
1.99533
21
2.14171
0
LINE
8
BLACK
6
CONTINUOUS
10
1.99533
20
2.14171
11
1.99606
21
2.13804
0
LINE
8
BLACK
6
CONTINUOUS
10
1.99606
20
2.13804
11
1.99606
21
2.11885
0
LINE
8
BLACK
6
CONTINUOUS
10
1.99606
20
2.11885
11
1.99533
21
2.11518
0
LINE
8
BLACK
6
CONTINUOUS
10
1.99533
20
2.11518
11
1.99325
21
2.11206
0
LINE
8
BLACK
6
CONTINUOUS
10
1.99325
20
2.11206
11
1.99014
21
2.10998
0
LINE
8
BLACK
6
CONTINUOUS
10
1.99014
20
2.10998
11
1.98647
21
2.10925
0
LINE
8
BLACK
6
CONTINUOUS
10
1.98647
20
2.10925
11
1.95054
21
2.10925
0
LINE
8
BLACK
6
CONTINUOUS
10
1.95054
20
2.10925
11
1.94687
21
2.10998
0
LINE
8
BLACK
6
CONTINUOUS
10
1.94687
20
2.10998
11
1.94376
21
2.11206
0
LINE
8
BLACK
6
CONTINUOUS
10
1.94376
20
2.11206
11
1.94168
21
2.11518
0
LINE
8
BLACK
6
CONTINUOUS
10
1.94168
20
2.11518
11
1.94094
21
2.11885
0
LINE
8
BLACK
6
CONTINUOUS
10
1.94094
20
2.11885
11
1.94094
21
2.13804
0
LINE
8
BLACK
6
CONTINUOUS
10
1.94094
20
2.13804
11
1.94168
21
2.14171
0
LINE
8
BLACK
6
CONTINUOUS
10
1.94168
20
2.14171
11
1.94376
21
2.14483
0
LINE
8
BLACK
6
CONTINUOUS
10
1.94376
20
2.14483
11
1.94687
21
2.14691
0
LINE
8
BLACK
6
CONTINUOUS
10
1.94687
20
2.14691
11
1.95054
21
2.14764
0
LINE
8
BLACK
6
CONTINUOUS
10
1.95054
20
2.14764
11
1.98647
21
2.14764
0
LINE
8
BLACK
6
CONTINUOUS
10
1.98647
20
2.14764
11
1.99014
21
2.14691
0
LINE
8
BLACK
6
CONTINUOUS
10
1.70864
20
2.16462
11
1.71176
21
2.16254
0
LINE
8
BLACK
6
CONTINUOUS
10
1.71176
20
2.16254
11
1.71384
21
2.15943
0
LINE
8
BLACK
6
CONTINUOUS
10
1.71384
20
2.15943
11
1.71457
21
2.15576
0
LINE
8
BLACK
6
CONTINUOUS
10
1.71457
20
2.15576
11
1.71457
21
2.11983
0
LINE
8
BLACK
6
CONTINUOUS
10
1.71457
20
2.11983
11
1.71384
21
2.11616
0
LINE
8
BLACK
6
CONTINUOUS
10
1.71384
20
2.11616
11
1.71176
21
2.11305
0
LINE
8
BLACK
6
CONTINUOUS
10
1.71176
20
2.11305
11
1.70864
21
2.11097
0
LINE
8
BLACK
6
CONTINUOUS
10
1.70864
20
2.11097
11
1.70497
21
2.11024
0
LINE
8
BLACK
6
CONTINUOUS
10
1.70497
20
2.11024
11
1.68578
21
2.11024
0
LINE
8
BLACK
6
CONTINUOUS
10
1.68578
20
2.11024
11
1.68211
21
2.11097
0
LINE
8
BLACK
6
CONTINUOUS
10
1.68211
20
2.11097
11
1.67899
21
2.11305
0
LINE
8
BLACK
6
CONTINUOUS
10
1.67899
20
2.11305
11
1.67691
21
2.11616
0
LINE
8
BLACK
6
CONTINUOUS
10
1.67691
20
2.11616
11
1.67618
21
2.11983
0
LINE
8
BLACK
6
CONTINUOUS
10
1.67618
20
2.11983
11
1.67618
21
2.15576
0
LINE
8
BLACK
6
CONTINUOUS
10
1.67618
20
2.15576
11
1.67691
21
2.15943
0
LINE
8
BLACK
6
CONTINUOUS
10
1.67691
20
2.15943
11
1.67899
21
2.16254
0
LINE
8
BLACK
6
CONTINUOUS
10
1.67899
20
2.16254
11
1.68211
21
2.16462
0
LINE
8
BLACK
6
CONTINUOUS
10
1.68211
20
2.16462
11
1.68578
21
2.16535
0
LINE
8
BLACK
6
CONTINUOUS
10
1.68578
20
2.16535
11
1.70497
21
2.16535
0
LINE
8
BLACK
6
CONTINUOUS
10
1.70497
20
2.16535
11
1.70864
21
2.16462
0
LINE
8
BLACK
6
CONTINUOUS
10
1.78246
20
2.16462
11
1.78558
21
2.16254
0
LINE
8
BLACK
6
CONTINUOUS
10
1.78558
20
2.16254
11
1.78766
21
2.15943
0
LINE
8
BLACK
6
CONTINUOUS
10
1.78766
20
2.15943
11
1.78839
21
2.15576
0
LINE
8
BLACK
6
CONTINUOUS
10
1.78839
20
2.15576
11
1.78839
21
2.11983
0
LINE
8
BLACK
6
CONTINUOUS
10
1.78839
20
2.11983
11
1.78766
21
2.11616
0
LINE
8
BLACK
6
CONTINUOUS
10
1.78766
20
2.11616
11
1.78558
21
2.11305
0
LINE
8
BLACK
6
CONTINUOUS
10
1.78558
20
2.11305
11
1.78246
21
2.11097
0
LINE
8
BLACK
6
CONTINUOUS
10
1.78246
20
2.11097
11
1.77879
21
2.11024
0
LINE
8
BLACK
6
CONTINUOUS
10
1.77879
20
2.11024
11
1.7596
21
2.11024
0
LINE
8
BLACK
6
CONTINUOUS
10
1.7596
20
2.11024
11
1.75592
21
2.11097
0
LINE
8
BLACK
6
CONTINUOUS
10
1.75592
20
2.11097
11
1.75281
21
2.11305
0
LINE
8
BLACK
6
CONTINUOUS
10
1.75281
20
2.11305
11
1.75073
21
2.11616
0
LINE
8
BLACK
6
CONTINUOUS
10
1.75073
20
2.11616
11
1.75
21
2.11983
0
LINE
8
BLACK
6
CONTINUOUS
10
1.75
20
2.11983
11
1.75
21
2.15576
0
LINE
8
BLACK
6
CONTINUOUS
10
1.75
20
2.15576
11
1.75073
21
2.15943
0
LINE
8
BLACK
6
CONTINUOUS
10
1.75073
20
2.15943
11
1.75281
21
2.16254
0
LINE
8
BLACK
6
CONTINUOUS
10
1.75281
20
2.16254
11
1.75592
21
2.16462
0
LINE
8
BLACK
6
CONTINUOUS
10
1.75592
20
2.16462
11
1.7596
21
2.16535
0
LINE
8
BLACK
6
CONTINUOUS
10
1.7596
20
2.16535
11
1.77879
21
2.16535
0
LINE
8
BLACK
6
CONTINUOUS
10
1.77879
20
2.16535
11
1.78246
21
2.16462
0
LINE
8
BLACK
6
CONTINUOUS
10
1.44882
20
2.13287
11
1.40551
21
2.13287
0
LINE
8
BLACK
6
CONTINUOUS
10
1.40551
20
2.13287
11
1.40551
21
2.14862
0
LINE
8
BLACK
6
CONTINUOUS
10
1.40551
20
2.14862
11
1.44882
21
2.14862
0
LINE
8
BLACK
6
CONTINUOUS
10
1.44882
20
2.14862
11
1.44882
21
2.13287
0
LINE
8
BLACK
6
CONTINUOUS
10
1.61811
20
2.13287
11
1.5748
21
2.13287
0
LINE
8
BLACK
6
CONTINUOUS
10
1.5748
20
2.13287
11
1.5748
21
2.14862
0
LINE
8
BLACK
6
CONTINUOUS
10
1.5748
20
2.14862
11
1.61811
21
2.14862
0
LINE
8
BLACK
6
CONTINUOUS
10
1.61811
20
2.14862
11
1.61811
21
2.13287
0
LINE
8
BLACK
6
CONTINUOUS
10
1.21833
20
2.19315
11
1.22153
21
2.19101
0
LINE
8
BLACK
6
CONTINUOUS
10
1.22153
20
2.19101
11
1.22366
21
2.18782
0
LINE
8
BLACK
6
CONTINUOUS
10
1.22366
20
2.18782
11
1.22441
21
2.18406
0
LINE
8
BLACK
6
CONTINUOUS
10
1.22441
20
2.18406
11
1.22441
21
2.16339
0
LINE
8
BLACK
6
CONTINUOUS
10
1.22441
20
2.16339
11
1.22366
21
2.15962
0
LINE
8
BLACK
6
CONTINUOUS
10
1.22366
20
2.15962
11
1.22153
21
2.15643
0
LINE
8
BLACK
6
CONTINUOUS
10
1.22153
20
2.15643
11
1.21833
21
2.15429
0
LINE
8
BLACK
6
CONTINUOUS
10
1.21833
20
2.15429
11
1.21457
21
2.15354
0
LINE
8
BLACK
6
CONTINUOUS
10
1.21457
20
2.15354
11
1.17913
21
2.15354
0
LINE
8
BLACK
6
CONTINUOUS
10
1.17913
20
2.15354
11
1.17537
21
2.15429
0
LINE
8
BLACK
6
CONTINUOUS
10
1.17537
20
2.15429
11
1.17217
21
2.15643
0
LINE
8
BLACK
6
CONTINUOUS
10
1.17217
20
2.15643
11
1.17004
21
2.15962
0
LINE
8
BLACK
6
CONTINUOUS
10
1.17004
20
2.15962
11
1.16929
21
2.16339
0
LINE
8
BLACK
6
CONTINUOUS
10
1.16929
20
2.16339
11
1.16929
21
2.18406
0
LINE
8
BLACK
6
CONTINUOUS
10
1.16929
20
2.18406
11
1.17004
21
2.18782
0
LINE
8
BLACK
6
CONTINUOUS
10
1.17004
20
2.18782
11
1.17217
21
2.19101
0
LINE
8
BLACK
6
CONTINUOUS
10
1.17217
20
2.19101
11
1.17537
21
2.19315
0
LINE
8
BLACK
6
CONTINUOUS
10
1.17537
20
2.19315
11
1.17913
21
2.1939
0
LINE
8
BLACK
6
CONTINUOUS
10
1.17913
20
2.1939
11
1.21457
21
2.1939
0
LINE
8
BLACK
6
CONTINUOUS
10
1.21457
20
2.1939
11
1.21833
21
2.19315
0
LINE
8
BLACK
6
CONTINUOUS
10
1.29707
20
2.19315
11
1.30027
21
2.19101
0
LINE
8
BLACK
6
CONTINUOUS
10
1.30027
20
2.19101
11
1.3024
21
2.18782
0
LINE
8
BLACK
6
CONTINUOUS
10
1.3024
20
2.18782
11
1.30315
21
2.18406
0
LINE
8
BLACK
6
CONTINUOUS
10
1.30315
20
2.18406
11
1.30315
21
2.16339
0
LINE
8
BLACK
6
CONTINUOUS
10
1.30315
20
2.16339
11
1.3024
21
2.15962
0
LINE
8
BLACK
6
CONTINUOUS
10
1.3024
20
2.15962
11
1.30027
21
2.15643
0
LINE
8
BLACK
6
CONTINUOUS
10
1.30027
20
2.15643
11
1.29707
21
2.15429
0
LINE
8
BLACK
6
CONTINUOUS
10
1.29707
20
2.15429
11
1.29331
21
2.15354
0
LINE
8
BLACK
6
CONTINUOUS
10
1.29331
20
2.15354
11
1.25787
21
2.15354
0
LINE
8
BLACK
6
CONTINUOUS
10
1.25787
20
2.15354
11
1.25411
21
2.15429
0
LINE
8
BLACK
6
CONTINUOUS
10
1.25411
20
2.15429
11
1.25091
21
2.15643
0
LINE
8
BLACK
6
CONTINUOUS
10
1.25091
20
2.15643
11
1.24878
21
2.15962
0
LINE
8
BLACK
6
CONTINUOUS
10
1.24878
20
2.15962
11
1.24803
21
2.16339
0
LINE
8
BLACK
6
CONTINUOUS
10
1.24803
20
2.16339
11
1.24803
21
2.18406
0
LINE
8
BLACK
6
CONTINUOUS
10
1.24803
20
2.18406
11
1.24878
21
2.18782
0
LINE
8
BLACK
6
CONTINUOUS
10
1.24878
20
2.18782
11
1.25091
21
2.19101
0
LINE
8
BLACK
6
CONTINUOUS
10
1.25091
20
2.19101
11
1.25411
21
2.19315
0
LINE
8
BLACK
6
CONTINUOUS
10
1.25411
20
2.19315
11
1.25787
21
2.1939
0
LINE
8
BLACK
6
CONTINUOUS
10
1.25787
20
2.1939
11
1.29331
21
2.1939
0
LINE
8
BLACK
6
CONTINUOUS
10
1.29331
20
2.1939
11
1.29707
21
2.19315
0
LINE
8
BLACK
6
CONTINUOUS
10
1.61811
20
2.15846
11
1.5748
21
2.15846
0
LINE
8
BLACK
6
CONTINUOUS
10
1.5748
20
2.15846
11
1.5748
21
2.17421
0
LINE
8
BLACK
6
CONTINUOUS
10
1.5748
20
2.17421
11
1.61811
21
2.17421
0
LINE
8
BLACK
6
CONTINUOUS
10
1.61811
20
2.17421
11
1.61811
21
2.15846
0
LINE
8
BLACK
6
CONTINUOUS
10
1.44882
20
2.15846
11
1.40551
21
2.15846
0
LINE
8
BLACK
6
CONTINUOUS
10
1.40551
20
2.15846
11
1.40551
21
2.17421
0
LINE
8
BLACK
6
CONTINUOUS
10
1.40551
20
2.17421
11
1.44882
21
2.17421
0
LINE
8
BLACK
6
CONTINUOUS
10
1.44882
20
2.17421
11
1.44882
21
2.15846
0
LINE
8
BLACK
6
CONTINUOUS
10
1.90337
20
2.22022
11
1.90657
21
2.21808
0
LINE
8
BLACK
6
CONTINUOUS
10
1.90657
20
2.21808
11
1.9087
21
2.21489
0
LINE
8
BLACK
6
CONTINUOUS
10
1.9087
20
2.21489
11
1.90945
21
2.21112
0
LINE
8
BLACK
6
CONTINUOUS
10
1.90945
20
2.21112
11
1.90945
21
2.19045
0
LINE
8
BLACK
6
CONTINUOUS
10
1.90945
20
2.19045
11
1.9087
21
2.18669
0
LINE
8
BLACK
6
CONTINUOUS
10
1.9087
20
2.18669
11
1.90657
21
2.18349
0
LINE
8
BLACK
6
CONTINUOUS
10
1.90657
20
2.18349
11
1.90337
21
2.18136
0
LINE
8
BLACK
6
CONTINUOUS
10
1.90337
20
2.18136
11
1.89961
21
2.18061
0
LINE
8
BLACK
6
CONTINUOUS
10
1.89961
20
2.18061
11
1.86417
21
2.18061
0
LINE
8
BLACK
6
CONTINUOUS
10
1.86417
20
2.18061
11
1.86041
21
2.18136
0
LINE
8
BLACK
6
CONTINUOUS
10
1.86041
20
2.18136
11
1.85721
21
2.18349
0
LINE
8
BLACK
6
CONTINUOUS
10
1.85721
20
2.18349
11
1.85508
21
2.18669
0
LINE
8
BLACK
6
CONTINUOUS
10
1.85508
20
2.18669
11
1.85433
21
2.19045
0
LINE
8
BLACK
6
CONTINUOUS
10
1.85433
20
2.19045
11
1.85433
21
2.21112
0
LINE
8
BLACK
6
CONTINUOUS
10
1.85433
20
2.21112
11
1.85508
21
2.21489
0
LINE
8
BLACK
6
CONTINUOUS
10
1.85508
20
2.21489
11
1.85721
21
2.21808
0
LINE
8
BLACK
6
CONTINUOUS
10
1.85721
20
2.21808
11
1.86041
21
2.22022
0
LINE
8
BLACK
6
CONTINUOUS
10
1.86041
20
2.22022
11
1.86417
21
2.22096
0
LINE
8
BLACK
6
CONTINUOUS
10
1.86417
20
2.22096
11
1.89961
21
2.22096
0
LINE
8
BLACK
6
CONTINUOUS
10
1.89961
20
2.22096
11
1.90337
21
2.22022
0
LINE
8
BLACK
6
CONTINUOUS
10
1.99014
20
2.22073
11
1.99325
21
2.21865
0
LINE
8
BLACK
6
CONTINUOUS
10
1.99325
20
2.21865
11
1.99533
21
2.21553
0
LINE
8
BLACK
6
CONTINUOUS
10
1.99533
20
2.21553
11
1.99606
21
2.21186
0
LINE
8
BLACK
6
CONTINUOUS
10
1.99606
20
2.21186
11
1.99606
21
2.19267
0
LINE
8
BLACK
6
CONTINUOUS
10
1.99606
20
2.19267
11
1.99533
21
2.18899
0
LINE
8
BLACK
6
CONTINUOUS
10
1.99533
20
2.18899
11
1.99325
21
2.18588
0
LINE
8
BLACK
6
CONTINUOUS
10
1.99325
20
2.18588
11
1.99014
21
2.1838
0
LINE
8
BLACK
6
CONTINUOUS
10
1.99014
20
2.1838
11
1.98647
21
2.18307
0
LINE
8
BLACK
6
CONTINUOUS
10
1.98647
20
2.18307
11
1.95054
21
2.18307
0
LINE
8
BLACK
6
CONTINUOUS
10
1.95054
20
2.18307
11
1.94687
21
2.1838
0
LINE
8
BLACK
6
CONTINUOUS
10
1.94687
20
2.1838
11
1.94376
21
2.18588
0
LINE
8
BLACK
6
CONTINUOUS
10
1.94376
20
2.18588
11
1.94168
21
2.18899
0
LINE
8
BLACK
6
CONTINUOUS
10
1.94168
20
2.18899
11
1.94094
21
2.19267
0
LINE
8
BLACK
6
CONTINUOUS
10
1.94094
20
2.19267
11
1.94094
21
2.21186
0
LINE
8
BLACK
6
CONTINUOUS
10
1.94094
20
2.21186
11
1.94168
21
2.21553
0
LINE
8
BLACK
6
CONTINUOUS
10
1.94168
20
2.21553
11
1.94376
21
2.21865
0
LINE
8
BLACK
6
CONTINUOUS
10
1.94376
20
2.21865
11
1.94687
21
2.22073
0
LINE
8
BLACK
6
CONTINUOUS
10
1.94687
20
2.22073
11
1.95054
21
2.22146
0
LINE
8
BLACK
6
CONTINUOUS
10
1.95054
20
2.22146
11
1.98647
21
2.22146
0
LINE
8
BLACK
6
CONTINUOUS
10
1.98647
20
2.22146
11
1.99014
21
2.22073
0
LINE
8
BLACK
6
CONTINUOUS
10
1.44882
20
2.18406
11
1.40551
21
2.18406
0
LINE
8
BLACK
6
CONTINUOUS
10
1.40551
20
2.18406
11
1.40551
21
2.1998
0
LINE
8
BLACK
6
CONTINUOUS
10
1.40551
20
2.1998
11
1.44882
21
2.1998
0
LINE
8
BLACK
6
CONTINUOUS
10
1.44882
20
2.1998
11
1.44882
21
2.18406
0
LINE
8
BLACK
6
CONTINUOUS
10
1.61811
20
2.18406
11
1.5748
21
2.18406
0
LINE
8
BLACK
6
CONTINUOUS
10
1.5748
20
2.18406
11
1.5748
21
2.1998
0
LINE
8
BLACK
6
CONTINUOUS
10
1.5748
20
2.1998
11
1.61811
21
2.1998
0
LINE
8
BLACK
6
CONTINUOUS
10
1.61811
20
2.1998
11
1.61811
21
2.18406
0
LINE
8
BLACK
6
CONTINUOUS
10
1.70864
20
2.25321
11
1.71176
21
2.25113
0
LINE
8
BLACK
6
CONTINUOUS
10
1.71176
20
2.25113
11
1.71384
21
2.24801
0
LINE
8
BLACK
6
CONTINUOUS
10
1.71384
20
2.24801
11
1.71457
21
2.24434
0
LINE
8
BLACK
6
CONTINUOUS
10
1.71457
20
2.24434
11
1.71457
21
2.20842
0
LINE
8
BLACK
6
CONTINUOUS
10
1.71457
20
2.20842
11
1.71384
21
2.20474
0
LINE
8
BLACK
6
CONTINUOUS
10
1.71384
20
2.20474
11
1.71176
21
2.20163
0
LINE
8
BLACK
6
CONTINUOUS
10
1.71176
20
2.20163
11
1.70864
21
2.19955
0
LINE
8
BLACK
6
CONTINUOUS
10
1.70864
20
2.19955
11
1.70497
21
2.19882
0
LINE
8
BLACK
6
CONTINUOUS
10
1.70497
20
2.19882
11
1.68578
21
2.19882
0
LINE
8
BLACK
6
CONTINUOUS
10
1.68578
20
2.19882
11
1.68211
21
2.19955
0
LINE
8
BLACK
6
CONTINUOUS
10
1.68211
20
2.19955
11
1.67899
21
2.20163
0
LINE
8
BLACK
6
CONTINUOUS
10
1.67899
20
2.20163
11
1.67691
21
2.20474
0
LINE
8
BLACK
6
CONTINUOUS
10
1.67691
20
2.20474
11
1.67618
21
2.20842
0
LINE
8
BLACK
6
CONTINUOUS
10
1.67618
20
2.20842
11
1.67618
21
2.24434
0
LINE
8
BLACK
6
CONTINUOUS
10
1.67618
20
2.24434
11
1.67691
21
2.24801
0
LINE
8
BLACK
6
CONTINUOUS
10
1.67691
20
2.24801
11
1.67899
21
2.25113
0
LINE
8
BLACK
6
CONTINUOUS
10
1.67899
20
2.25113
11
1.68211
21
2.25321
0
LINE
8
BLACK
6
CONTINUOUS
10
1.68211
20
2.25321
11
1.68578
21
2.25394
0
LINE
8
BLACK
6
CONTINUOUS
10
1.68578
20
2.25394
11
1.70497
21
2.25394
0
LINE
8
BLACK
6
CONTINUOUS
10
1.70497
20
2.25394
11
1.70864
21
2.25321
0
LINE
8
BLACK
6
CONTINUOUS
10
1.78246
20
2.25321
11
1.78558
21
2.25113
0
LINE
8
BLACK
6
CONTINUOUS
10
1.78558
20
2.25113
11
1.78766
21
2.24801
0
LINE
8
BLACK
6
CONTINUOUS
10
1.78766
20
2.24801
11
1.78839
21
2.24434
0
LINE
8
BLACK
6
CONTINUOUS
10
1.78839
20
2.24434
11
1.78839
21
2.20842
0
LINE
8
BLACK
6
CONTINUOUS
10
1.78839
20
2.20842
11
1.78766
21
2.20474
0
LINE
8
BLACK
6
CONTINUOUS
10
1.78766
20
2.20474
11
1.78558
21
2.20163
0
LINE
8
BLACK
6
CONTINUOUS
10
1.78558
20
2.20163
11
1.78246
21
2.19955
0
LINE
8
BLACK
6
CONTINUOUS
10
1.78246
20
2.19955
11
1.77879
21
2.19882
0
LINE
8
BLACK
6
CONTINUOUS
10
1.77879
20
2.19882
11
1.7596
21
2.19882
0
LINE
8
BLACK
6
CONTINUOUS
10
1.7596
20
2.19882
11
1.75592
21
2.19955
0
LINE
8
BLACK
6
CONTINUOUS
10
1.75592
20
2.19955
11
1.75281
21
2.20163
0
LINE
8
BLACK
6
CONTINUOUS
10
1.75281
20
2.20163
11
1.75073
21
2.20474
0
LINE
8
BLACK
6
CONTINUOUS
10
1.75073
20
2.20474
11
1.75
21
2.20842
0
LINE
8
BLACK
6
CONTINUOUS
10
1.75
20
2.20842
11
1.75
21
2.24434
0
LINE
8
BLACK
6
CONTINUOUS
10
1.75
20
2.24434
11
1.75073
21
2.24801
0
LINE
8
BLACK
6
CONTINUOUS
10
1.75073
20
2.24801
11
1.75281
21
2.25113
0
LINE
8
BLACK
6
CONTINUOUS
10
1.75281
20
2.25113
11
1.75592
21
2.25321
0
LINE
8
BLACK
6
CONTINUOUS
10
1.75592
20
2.25321
11
1.7596
21
2.25394
0
LINE
8
BLACK
6
CONTINUOUS
10
1.7596
20
2.25394
11
1.77879
21
2.25394
0
LINE
8
BLACK
6
CONTINUOUS
10
1.77879
20
2.25394
11
1.78246
21
2.25321
0
LINE
8
BLACK
6
CONTINUOUS
10
1.44882
20
2.20965
11
1.40551
21
2.20965
0
LINE
8
BLACK
6
CONTINUOUS
10
1.40551
20
2.20965
11
1.40551
21
2.22539
0
LINE
8
BLACK
6
CONTINUOUS
10
1.40551
20
2.22539
11
1.44882
21
2.22539
0
LINE
8
BLACK
6
CONTINUOUS
10
1.44882
20
2.22539
11
1.44882
21
2.20965
0
LINE
8
BLACK
6
CONTINUOUS
10
1.61811
20
2.20965
11
1.5748
21
2.20965
0
LINE
8
BLACK
6
CONTINUOUS
10
1.5748
20
2.20965
11
1.5748
21
2.22539
0
LINE
8
BLACK
6
CONTINUOUS
10
1.5748
20
2.22539
11
1.61811
21
2.22539
0
LINE
8
BLACK
6
CONTINUOUS
10
1.61811
20
2.22539
11
1.61811
21
2.20965
0
LINE
8
BLACK
6
CONTINUOUS
10
0.978346
20
2.2126
11
0.927165
21
2.2126
0
LINE
8
BLACK
6
CONTINUOUS
10
0.927165
20
2.2126
11
0.927165
21
2.27953
0
LINE
8
BLACK
6
CONTINUOUS
10
0.927165
20
2.27953
11
0.978346
21
2.27953
0
LINE
8
BLACK
6
CONTINUOUS
10
0.978346
20
2.27953
11
0.978346
21
2.2126
0
LINE
8
BLACK
6
CONTINUOUS
10
1.11614
20
2.2126
11
1.06496
21
2.2126
0
LINE
8
BLACK
6
CONTINUOUS
10
1.06496
20
2.2126
11
1.06496
21
2.27953
0
LINE
8
BLACK
6
CONTINUOUS
10
1.06496
20
2.27953
11
1.11614
21
2.27953
0
LINE
8
BLACK
6
CONTINUOUS
10
1.11614
20
2.27953
11
1.11614
21
2.2126
0
LINE
8
BLACK
6
CONTINUOUS
10
1.249
20
2.2788
11
1.25211
21
2.27672
0
LINE
8
BLACK
6
CONTINUOUS
10
1.25211
20
2.27672
11
1.25419
21
2.2736
0
LINE
8
BLACK
6
CONTINUOUS
10
1.25419
20
2.2736
11
1.25492
21
2.26993
0
LINE
8
BLACK
6
CONTINUOUS
10
1.25492
20
2.26993
11
1.25492
21
2.23401
0
LINE
8
BLACK
6
CONTINUOUS
10
1.25492
20
2.23401
11
1.25419
21
2.23033
0
LINE
8
BLACK
6
CONTINUOUS
10
1.25419
20
2.23033
11
1.25211
21
2.22722
0
LINE
8
BLACK
6
CONTINUOUS
10
1.25211
20
2.22722
11
1.249
21
2.22514
0
LINE
8
BLACK
6
CONTINUOUS
10
1.249
20
2.22514
11
1.24532
21
2.22441
0
LINE
8
BLACK
6
CONTINUOUS
10
1.24532
20
2.22441
11
1.22613
21
2.22441
0
LINE
8
BLACK
6
CONTINUOUS
10
1.22613
20
2.22441
11
1.22246
21
2.22514
0
LINE
8
BLACK
6
CONTINUOUS
10
1.22246
20
2.22514
11
1.21935
21
2.22722
0
LINE
8
BLACK
6
CONTINUOUS
10
1.21935
20
2.22722
11
1.21727
21
2.23033
0
LINE
8
BLACK
6
CONTINUOUS
10
1.21727
20
2.23033
11
1.21654
21
2.23401
0
LINE
8
BLACK
6
CONTINUOUS
10
1.21654
20
2.23401
11
1.21654
21
2.26993
0
LINE
8
BLACK
6
CONTINUOUS
10
1.21654
20
2.26993
11
1.21727
21
2.2736
0
LINE
8
BLACK
6
CONTINUOUS
10
1.21727
20
2.2736
11
1.21935
21
2.27672
0
LINE
8
BLACK
6
CONTINUOUS
10
1.21935
20
2.27672
11
1.22246
21
2.2788
0
LINE
8
BLACK
6
CONTINUOUS
10
1.22246
20
2.2788
11
1.22613
21
2.27953
0
LINE
8
BLACK
6
CONTINUOUS
10
1.22613
20
2.27953
11
1.24532
21
2.27953
0
LINE
8
BLACK
6
CONTINUOUS
10
1.24532
20
2.27953
11
1.249
21
2.2788
0
LINE
8
BLACK
6
CONTINUOUS
10
1.17518
20
2.2788
11
1.17829
21
2.27672
0
LINE
8
BLACK
6
CONTINUOUS
10
1.17829
20
2.27672
11
1.18037
21
2.2736
0
LINE
8
BLACK
6
CONTINUOUS
10
1.18037
20
2.2736
11
1.1811
21
2.26993
0
LINE
8
BLACK
6
CONTINUOUS
10
1.1811
20
2.26993
11
1.1811
21
2.23401
0
LINE
8
BLACK
6
CONTINUOUS
10
1.1811
20
2.23401
11
1.18037
21
2.23033
0
LINE
8
BLACK
6
CONTINUOUS
10
1.18037
20
2.23033
11
1.17829
21
2.22722
0
LINE
8
BLACK
6
CONTINUOUS
10
1.17829
20
2.22722
11
1.17518
21
2.22514
0
LINE
8
BLACK
6
CONTINUOUS
10
1.17518
20
2.22514
11
1.17151
21
2.22441
0
LINE
8
BLACK
6
CONTINUOUS
10
1.17151
20
2.22441
11
1.15231
21
2.22441
0
LINE
8
BLACK
6
CONTINUOUS
10
1.15231
20
2.22441
11
1.14864
21
2.22514
0
LINE
8
BLACK
6
CONTINUOUS
10
1.14864
20
2.22514
11
1.14553
21
2.22722
0
LINE
8
BLACK
6
CONTINUOUS
10
1.14553
20
2.22722
11
1.14345
21
2.23033
0
LINE
8
BLACK
6
CONTINUOUS
10
1.14345
20
2.23033
11
1.14272
21
2.23401
0
LINE
8
BLACK
6
CONTINUOUS
10
1.14272
20
2.23401
11
1.14272
21
2.26993
0
LINE
8
BLACK
6
CONTINUOUS
10
1.14272
20
2.26993
11
1.14345
21
2.2736
0
LINE
8
BLACK
6
CONTINUOUS
10
1.14345
20
2.2736
11
1.14553
21
2.27672
0
LINE
8
BLACK
6
CONTINUOUS
10
1.14553
20
2.27672
11
1.14864
21
2.2788
0
LINE
8
BLACK
6
CONTINUOUS
10
1.14864
20
2.2788
11
1.15231
21
2.27953
0
LINE
8
BLACK
6
CONTINUOUS
10
1.15231
20
2.27953
11
1.17151
21
2.27953
0
LINE
8
BLACK
6
CONTINUOUS
10
1.17151
20
2.27953
11
1.17518
21
2.2788
  0
ENDSEC
  0
EOF
