  0
SECTION
  2
HEADER
  9
$ANGBASE
  50
0.0
  9
$ANGDIR
  70
1
  9
$MEASUREMENT
  70
0
  0
ENDSEC
  0
SECTION
  2
TABLES
  0
TABLE
  2
LTYPE
  70
4
  0
LTYPE
  5
40F
  2
CONTINUOUS
  70
0
  3
Solid line
  72
65
  73
0
  40
0.0
  0
LTYPE
  5
410
  2
DASHDOT
 70
0
  3
Dash Dot ____ _ ____ _
 72
65
 73
4
 40
2.0
 49
1.25
 49
-0.25
 49
0.25
 49
-0.25
  0
LTYPE
  5
411
  2
DASHED
 70
0
  3
Dashed __ __ __ __ __
 72
65
 73
2
 40
0.75
 49
0.5
 49
-0.25
  0
LTYPE
  5
43B
  2
DOTTED
 70
0
  3
Dotted .  .  .  .
 72
65
 73
2
 40
0.2
 49
0.0
 49
-0.2
  0
ENDTAB
  0
TABLE
  2
STYLE
  70
4
  0
STYLE
  2
KICAD
  70
0
  40
0
  41
1
  42
1
  50
0
  71
0
  3
isocp.shx
  0
STYLE
  2
KICADB
  70
0
  40
0
  41
1
  42
1
  50
0
  71
0
  3
isocp.shx
  0
STYLE
  2
KICADI
  70
0
  40
0
  41
1
  42
1
  50
15
  71
0
  3
isocp.shx
  0
STYLE
  2
KICADBI
  70
0
  40
0
  41
1
  42
1
  50
15
  71
0
  3
isocp.shx
  0
ENDTAB
  0
TABLE
  2
LAYER
  70
1
  0
LAYER
  2
BLACK
  70
0
  62
7
  6
CONTINUOUS
  0
ENDTAB
  0
ENDSEC
  0
SECTION
  2
ENTITIES
0
LINE
8
BLACK
6
CONTINUOUS
10
2.01492
20
0.125098
11
2.02877
21
0.122656
0
LINE
8
BLACK
6
CONTINUOUS
10
2.02877
20
0.122656
11
2.04226
21
0.118684
0
LINE
8
BLACK
6
CONTINUOUS
10
2.04226
20
0.118684
11
2.05523
21
0.113234
0
LINE
8
BLACK
6
CONTINUOUS
10
2.05523
20
0.113234
11
2.06751
21
0.106372
0
LINE
8
BLACK
6
CONTINUOUS
10
2.06751
20
0.106372
11
2.07894
21
0.0981843
0
LINE
8
BLACK
6
CONTINUOUS
10
2.07894
20
0.0981843
11
2.08939
21
0.0887728
0
LINE
8
BLACK
6
CONTINUOUS
10
2.08939
20
0.0887728
11
2.09873
21
0.0782548
0
LINE
8
BLACK
6
CONTINUOUS
10
2.09873
20
0.0782548
11
2.10684
21
0.0667615
0
LINE
8
BLACK
6
CONTINUOUS
10
2.10684
20
0.0667615
11
2.11362
21
0.054436
0
LINE
8
BLACK
6
CONTINUOUS
10
2.11362
20
0.054436
11
2.11898
21
0.041432
0
LINE
8
BLACK
6
CONTINUOUS
10
2.11898
20
0.041432
11
2.12285
21
0.0279116
0
LINE
8
BLACK
6
CONTINUOUS
10
2.12285
20
0.0279116
11
2.1252
21
0.0140433
0
LINE
8
BLACK
6
CONTINUOUS
10
2.1252
20
0.0140433
11
2.12598
21
0
0
LINE
8
BLACK
6
CONTINUOUS
10
2.12598
20
0
11
2.12594
21
-0.00351768
0
LINE
8
BLACK
6
CONTINUOUS
10
2.12594
20
-0.00351768
11
2.12476
21
-0.0175336
0
LINE
8
BLACK
6
CONTINUOUS
10
2.12476
20
-0.0175336
11
2.12203
21
-0.031331
0
LINE
8
BLACK
6
CONTINUOUS
10
2.12203
20
-0.031331
11
2.11777
21
-0.0447379
0
LINE
8
BLACK
6
CONTINUOUS
10
2.11777
20
-0.0447379
11
2.11205
21
-0.0575871
0
LINE
8
BLACK
6
CONTINUOUS
10
2.11205
20
-0.0575871
11
2.10493
21
-0.0697186
0
LINE
8
BLACK
6
CONTINUOUS
10
2.10493
20
-0.0697186
11
2.09651
21
-0.0809811
0
LINE
8
BLACK
6
CONTINUOUS
10
2.09651
20
-0.0809811
11
2.08688
21
-0.0912343
0
LINE
8
BLACK
6
CONTINUOUS
10
2.08688
20
-0.0912343
11
2.07617
21
-0.10035
0
LINE
8
BLACK
6
CONTINUOUS
10
2.07617
20
-0.10035
11
2.06451
21
-0.108215
0
LINE
8
BLACK
6
CONTINUOUS
10
2.06451
20
-0.108215
11
2.05204
21
-0.114732
0
LINE
8
BLACK
6
CONTINUOUS
10
2.05204
20
-0.114732
11
2.03893
21
-0.119818
0
LINE
8
BLACK
6
CONTINUOUS
10
2.03893
20
-0.119818
11
2.02533
21
-0.123411
0
LINE
8
BLACK
6
CONTINUOUS
10
2.02533
20
-0.123411
11
2.01142
21
-0.125466
0
LINE
8
BLACK
6
CONTINUOUS
10
2.01142
20
-0.125466
11
1.99736
21
-0.125957
0
LINE
8
BLACK
6
CONTINUOUS
10
1.99736
20
-0.125957
11
1.98334
21
-0.124878
0
LINE
8
BLACK
6
CONTINUOUS
10
1.98334
20
-0.124878
11
1.96952
21
-0.122242
0
LINE
8
BLACK
6
CONTINUOUS
10
1.96952
20
-0.122242
11
1.95609
21
-0.118083
0
LINE
8
BLACK
6
CONTINUOUS
10
1.95609
20
-0.118083
11
1.9432
21
-0.112452
0
LINE
8
BLACK
6
CONTINUOUS
10
1.9432
20
-0.112452
11
1.93102
21
-0.105419
0
LINE
8
BLACK
6
CONTINUOUS
10
1.93102
20
-0.105419
11
1.91969
21
-0.0970725
0
LINE
8
BLACK
6
CONTINUOUS
10
1.91969
20
-0.0970725
11
1.90937
21
-0.087516
0
LINE
8
BLACK
6
CONTINUOUS
10
1.90937
20
-0.087516
11
1.90018
21
-0.0768687
0
LINE
8
BLACK
6
CONTINUOUS
10
1.90018
20
-0.0768687
11
1.89224
21
-0.0652632
0
LINE
8
BLACK
6
CONTINUOUS
10
1.89224
20
-0.0652632
11
1.88563
21
-0.0528444
0
LINE
8
BLACK
6
CONTINUOUS
10
1.88563
20
-0.0528444
11
1.88046
21
-0.0397668
0
LINE
8
BLACK
6
CONTINUOUS
10
1.88046
20
-0.0397668
11
1.87677
21
-0.0261936
0
LINE
8
BLACK
6
CONTINUOUS
10
1.87677
20
-0.0261936
11
1.87462
21
-0.0122939
0
LINE
8
BLACK
6
CONTINUOUS
10
1.87462
20
-0.0122939
11
1.87403
21
0.00175902
0
LINE
8
BLACK
6
CONTINUOUS
10
1.87403
20
0.00175902
11
1.87501
21
0.01579
0
LINE
8
BLACK
6
CONTINUOUS
10
1.87501
20
0.01579
11
1.87755
21
0.0296242
0
LINE
8
BLACK
6
CONTINUOUS
10
1.87755
20
0.0296242
11
1.88161
21
0.0430891
0
LINE
8
BLACK
6
CONTINUOUS
10
1.88161
20
0.0430891
11
1.88715
21
0.056017
0
LINE
8
BLACK
6
CONTINUOUS
10
1.88715
20
0.056017
11
1.8941
21
0.0682467
0
LINE
8
BLACK
6
CONTINUOUS
10
1.8941
20
0.0682467
11
1.90237
21
0.0796257
0
LINE
8
BLACK
6
CONTINUOUS
10
1.90237
20
0.0796257
11
1.91185
21
0.0900123
0
LINE
8
BLACK
6
CONTINUOUS
10
1.91185
20
0.0900123
11
1.92244
21
0.0992769
0
LINE
8
BLACK
6
CONTINUOUS
10
1.92244
20
0.0992769
11
1.93399
21
0.107304
0
LINE
8
BLACK
6
CONTINUOUS
10
1.93399
20
0.107304
11
1.94636
21
0.113994
0
LINE
8
BLACK
6
CONTINUOUS
10
1.94636
20
0.113994
11
1.9594
21
0.119263
0
LINE
8
BLACK
6
CONTINUOUS
10
1.9594
20
0.119263
11
1.97295
21
0.123045
0
LINE
8
BLACK
6
CONTINUOUS
10
1.97295
20
0.123045
11
1.98683
21
0.125294
0
LINE
8
BLACK
6
CONTINUOUS
10
1.98683
20
0.125294
11
2.00088
21
0.125981
0
LINE
8
BLACK
6
CONTINUOUS
10
2.00088
20
0.125981
11
2.01492
21
0.125098
0
LINE
8
BLACK
6
CONTINUOUS
10
0.014917
20
0.125098
11
0.0287686
21
0.122656
0
LINE
8
BLACK
6
CONTINUOUS
10
0.0287686
20
0.122656
11
0.0422616
21
0.118684
0
LINE
8
BLACK
6
CONTINUOUS
10
0.0422616
20
0.118684
11
0.0552279
21
0.113234
0
LINE
8
BLACK
6
CONTINUOUS
10
0.0552279
20
0.113234
11
0.0675057
21
0.106372
0
LINE
8
BLACK
6
CONTINUOUS
10
0.0675057
20
0.106372
11
0.0789422
21
0.0981843
0
LINE
8
BLACK
6
CONTINUOUS
10
0.0789422
20
0.0981843
11
0.0893947
21
0.0887728
0
LINE
8
BLACK
6
CONTINUOUS
10
0.0893947
20
0.0887728
11
0.098733
21
0.0782548
0
LINE
8
BLACK
6
CONTINUOUS
10
0.098733
20
0.0782548
11
0.106841
21
0.0667615
0
LINE
8
BLACK
6
CONTINUOUS
10
0.106841
20
0.0667615
11
0.113617
21
0.054436
0
LINE
8
BLACK
6
CONTINUOUS
10
0.113617
20
0.054436
11
0.118977
21
0.041432
0
LINE
8
BLACK
6
CONTINUOUS
10
0.118977
20
0.041432
11
0.122853
21
0.0279116
0
LINE
8
BLACK
6
CONTINUOUS
10
0.122853
20
0.0279116
11
0.125199
21
0.0140433
0
LINE
8
BLACK
6
CONTINUOUS
10
0.125199
20
0.0140433
11
0.125984
21
0
0
LINE
8
BLACK
6
CONTINUOUS
10
0.125984
20
0
11
0.125935
21
-0.00351768
0
LINE
8
BLACK
6
CONTINUOUS
10
0.125935
20
-0.00351768
11
0.124758
21
-0.0175336
0
LINE
8
BLACK
6
CONTINUOUS
10
0.124758
20
-0.0175336
11
0.122026
21
-0.031331
0
LINE
8
BLACK
6
CONTINUOUS
10
0.122026
20
-0.031331
11
0.117773
21
-0.0447379
0
LINE
8
BLACK
6
CONTINUOUS
10
0.117773
20
-0.0447379
11
0.112052
21
-0.0575871
0
LINE
8
BLACK
6
CONTINUOUS
10
0.112052
20
-0.0575871
11
0.104935
21
-0.0697186
0
LINE
8
BLACK
6
CONTINUOUS
10
0.104935
20
-0.0697186
11
0.0965095
21
-0.0809811
0
LINE
8
BLACK
6
CONTINUOUS
10
0.0965095
20
-0.0809811
11
0.0868812
21
-0.0912343
0
LINE
8
BLACK
6
CONTINUOUS
10
0.0868812
20
-0.0912343
11
0.07617
21
-0.10035
0
LINE
8
BLACK
6
CONTINUOUS
10
0.07617
20
-0.10035
11
0.0645093
21
-0.108215
0
LINE
8
BLACK
6
CONTINUOUS
10
0.0645093
20
-0.108215
11
0.0520446
21
-0.114732
0
LINE
8
BLACK
6
CONTINUOUS
10
0.0520446
20
-0.114732
11
0.0389313
21
-0.119818
0
LINE
8
BLACK
6
CONTINUOUS
10
0.0389313
20
-0.119818
11
0.0253326
21
-0.123411
0
LINE
8
BLACK
6
CONTINUOUS
10
0.0253326
20
-0.123411
11
0.0114183
21
-0.125466
0
LINE
8
BLACK
6
CONTINUOUS
10
0.0114183
20
-0.125466
11
-0.00263843
21
-0.125957
0
LINE
8
BLACK
6
CONTINUOUS
10
-0.00263843
20
-0.125957
11
-0.0166622
21
-0.124878
0
LINE
8
BLACK
6
CONTINUOUS
10
-0.0166622
20
-0.124878
11
-0.0304783
21
-0.122242
0
LINE
8
BLACK
6
CONTINUOUS
10
-0.0304783
20
-0.122242
11
-0.0439146
21
-0.118083
0
LINE
8
BLACK
6
CONTINUOUS
10
-0.0439146
20
-0.118083
11
-0.0568035
21
-0.112452
0
LINE
8
BLACK
6
CONTINUOUS
10
-0.0568035
20
-0.112452
11
-0.0689843
21
-0.105419
0
LINE
8
BLACK
6
CONTINUOUS
10
-0.0689843
20
-0.105419
11
-0.0803054
21
-0.0970725
0
LINE
8
BLACK
6
CONTINUOUS
10
-0.0803054
20
-0.0970725
11
-0.0906255
21
-0.087516
0
LINE
8
BLACK
6
CONTINUOUS
10
-0.0906255
20
-0.087516
11
-0.099816
21
-0.0768687
0
LINE
8
BLACK
6
CONTINUOUS
10
-0.099816
20
-0.0768687
11
-0.107762
21
-0.0652632
0
LINE
8
BLACK
6
CONTINUOUS
10
-0.107762
20
-0.0652632
11
-0.114366
21
-0.0528444
0
LINE
8
BLACK
6
CONTINUOUS
10
-0.114366
20
-0.0528444
11
-0.119543
21
-0.0397668
0
LINE
8
BLACK
6
CONTINUOUS
10
-0.119543
20
-0.0397668
11
-0.123231
21
-0.0261936
0
LINE
8
BLACK
6
CONTINUOUS
10
-0.123231
20
-0.0261936
11
-0.125383
21
-0.0122939
0
LINE
8
BLACK
6
CONTINUOUS
10
-0.125383
20
-0.0122939
11
-0.125972
21
0.00175902
0
LINE
8
BLACK
6
CONTINUOUS
10
-0.125972
20
0.00175902
11
-0.124991
21
0.01579
0
LINE
8
BLACK
6
CONTINUOUS
10
-0.124991
20
0.01579
11
-0.122452
21
0.0296242
0
LINE
8
BLACK
6
CONTINUOUS
10
-0.122452
20
0.0296242
11
-0.118386
21
0.0430891
0
LINE
8
BLACK
6
CONTINUOUS
10
-0.118386
20
0.0430891
11
-0.112846
21
0.056017
0
LINE
8
BLACK
6
CONTINUOUS
10
-0.112846
20
0.056017
11
-0.105898
21
0.0682467
0
LINE
8
BLACK
6
CONTINUOUS
10
-0.105898
20
0.0682467
11
-0.0976308
21
0.0796257
0
LINE
8
BLACK
6
CONTINUOUS
10
-0.0976308
20
0.0796257
11
-0.0881466
21
0.0900123
0
LINE
8
BLACK
6
CONTINUOUS
10
-0.0881466
20
0.0900123
11
-0.0775637
21
0.0992769
0
LINE
8
BLACK
6
CONTINUOUS
10
-0.0775637
20
0.0992769
11
-0.066014
21
0.107304
0
LINE
8
BLACK
6
CONTINUOUS
10
-0.066014
20
0.107304
11
-0.0536415
21
0.113994
0
LINE
8
BLACK
6
CONTINUOUS
10
-0.0536415
20
0.113994
11
-0.0406004
21
0.119263
0
LINE
8
BLACK
6
CONTINUOUS
10
-0.0406004
20
0.119263
11
-0.0270533
21
0.123045
0
LINE
8
BLACK
6
CONTINUOUS
10
-0.0270533
20
0.123045
11
-0.0131689
21
0.125294
0
LINE
8
BLACK
6
CONTINUOUS
10
-0.0131689
20
0.125294
11
0.000879528
21
0.125981
0
LINE
8
BLACK
6
CONTINUOUS
10
0.000879528
20
0.125981
11
0.014917
21
0.125098
0
LINE
8
BLACK
6
CONTINUOUS
10
1.98301
20
0.37192
11
1.98557
21
0.370213
0
LINE
8
BLACK
6
CONTINUOUS
10
1.98557
20
0.370213
11
1.98727
21
0.367659
0
LINE
8
BLACK
6
CONTINUOUS
10
1.98727
20
0.367659
11
1.98787
21
0.364646
0
LINE
8
BLACK
6
CONTINUOUS
10
1.98787
20
0.364646
11
1.98787
21
0.304646
0
LINE
8
BLACK
6
CONTINUOUS
10
1.98787
20
0.304646
11
1.98727
21
0.301632
0
LINE
8
BLACK
6
CONTINUOUS
10
1.98727
20
0.301632
11
1.98557
21
0.299078
0
LINE
8
BLACK
6
CONTINUOUS
10
1.98557
20
0.299078
11
1.98301
21
0.297371
0
LINE
8
BLACK
6
CONTINUOUS
10
1.98301
20
0.297371
11
1.98
21
0.296772
0
LINE
8
BLACK
6
CONTINUOUS
10
1.98
20
0.296772
11
1.92
21
0.296772
0
LINE
8
BLACK
6
CONTINUOUS
10
1.92
20
0.296772
11
1.91699
21
0.297371
0
LINE
8
BLACK
6
CONTINUOUS
10
1.91699
20
0.297371
11
1.91443
21
0.299078
0
LINE
8
BLACK
6
CONTINUOUS
10
1.91443
20
0.299078
11
1.91273
21
0.301632
0
LINE
8
BLACK
6
CONTINUOUS
10
1.91273
20
0.301632
11
1.91213
21
0.304646
0
LINE
8
BLACK
6
CONTINUOUS
10
1.91213
20
0.304646
11
1.91213
21
0.364646
0
LINE
8
BLACK
6
CONTINUOUS
10
1.91213
20
0.364646
11
1.91273
21
0.367659
0
LINE
8
BLACK
6
CONTINUOUS
10
1.91273
20
0.367659
11
1.91443
21
0.370213
0
LINE
8
BLACK
6
CONTINUOUS
10
1.91443
20
0.370213
11
1.91699
21
0.37192
0
LINE
8
BLACK
6
CONTINUOUS
10
1.91699
20
0.37192
11
1.92
21
0.37252
0
LINE
8
BLACK
6
CONTINUOUS
10
1.92
20
0.37252
11
1.98
21
0.37252
0
LINE
8
BLACK
6
CONTINUOUS
10
1.98
20
0.37252
11
1.98301
21
0.37192
0
LINE
8
BLACK
6
CONTINUOUS
10
1.88301
20
0.37192
11
1.88557
21
0.370213
0
LINE
8
BLACK
6
CONTINUOUS
10
1.88557
20
0.370213
11
1.88727
21
0.367659
0
LINE
8
BLACK
6
CONTINUOUS
10
1.88727
20
0.367659
11
1.88787
21
0.364646
0
LINE
8
BLACK
6
CONTINUOUS
10
1.88787
20
0.364646
11
1.88787
21
0.304646
0
LINE
8
BLACK
6
CONTINUOUS
10
1.88787
20
0.304646
11
1.88727
21
0.301632
0
LINE
8
BLACK
6
CONTINUOUS
10
1.88727
20
0.301632
11
1.88557
21
0.299078
0
LINE
8
BLACK
6
CONTINUOUS
10
1.88557
20
0.299078
11
1.88301
21
0.297371
0
LINE
8
BLACK
6
CONTINUOUS
10
1.88301
20
0.297371
11
1.88
21
0.296772
0
LINE
8
BLACK
6
CONTINUOUS
10
1.88
20
0.296772
11
1.82
21
0.296772
0
LINE
8
BLACK
6
CONTINUOUS
10
1.82
20
0.296772
11
1.81699
21
0.297371
0
LINE
8
BLACK
6
CONTINUOUS
10
1.81699
20
0.297371
11
1.81443
21
0.299078
0
LINE
8
BLACK
6
CONTINUOUS
10
1.81443
20
0.299078
11
1.81273
21
0.301632
0
LINE
8
BLACK
6
CONTINUOUS
10
1.81273
20
0.301632
11
1.81213
21
0.304646
0
LINE
8
BLACK
6
CONTINUOUS
10
1.81213
20
0.304646
11
1.81213
21
0.364646
0
LINE
8
BLACK
6
CONTINUOUS
10
1.81213
20
0.364646
11
1.81273
21
0.367659
0
LINE
8
BLACK
6
CONTINUOUS
10
1.81273
20
0.367659
11
1.81443
21
0.370213
0
LINE
8
BLACK
6
CONTINUOUS
10
1.81443
20
0.370213
11
1.81699
21
0.37192
0
LINE
8
BLACK
6
CONTINUOUS
10
1.81699
20
0.37192
11
1.82
21
0.37252
0
LINE
8
BLACK
6
CONTINUOUS
10
1.82
20
0.37252
11
1.88
21
0.37252
0
LINE
8
BLACK
6
CONTINUOUS
10
1.88
20
0.37252
11
1.88301
21
0.37192
0
LINE
8
BLACK
6
CONTINUOUS
10
1.78301
20
0.37192
11
1.78557
21
0.370213
0
LINE
8
BLACK
6
CONTINUOUS
10
1.78557
20
0.370213
11
1.78727
21
0.367659
0
LINE
8
BLACK
6
CONTINUOUS
10
1.78727
20
0.367659
11
1.78787
21
0.364646
0
LINE
8
BLACK
6
CONTINUOUS
10
1.78787
20
0.364646
11
1.78787
21
0.304646
0
LINE
8
BLACK
6
CONTINUOUS
10
1.78787
20
0.304646
11
1.78727
21
0.301632
0
LINE
8
BLACK
6
CONTINUOUS
10
1.78727
20
0.301632
11
1.78557
21
0.299078
0
LINE
8
BLACK
6
CONTINUOUS
10
1.78557
20
0.299078
11
1.78301
21
0.297371
0
LINE
8
BLACK
6
CONTINUOUS
10
1.78301
20
0.297371
11
1.78
21
0.296772
0
LINE
8
BLACK
6
CONTINUOUS
10
1.78
20
0.296772
11
1.72
21
0.296772
0
LINE
8
BLACK
6
CONTINUOUS
10
1.72
20
0.296772
11
1.71699
21
0.297371
0
LINE
8
BLACK
6
CONTINUOUS
10
1.71699
20
0.297371
11
1.71443
21
0.299078
0
LINE
8
BLACK
6
CONTINUOUS
10
1.71443
20
0.299078
11
1.71273
21
0.301632
0
LINE
8
BLACK
6
CONTINUOUS
10
1.71273
20
0.301632
11
1.71213
21
0.304646
0
LINE
8
BLACK
6
CONTINUOUS
10
1.71213
20
0.304646
11
1.71213
21
0.364646
0
LINE
8
BLACK
6
CONTINUOUS
10
1.71213
20
0.364646
11
1.71273
21
0.367659
0
LINE
8
BLACK
6
CONTINUOUS
10
1.71273
20
0.367659
11
1.71443
21
0.370213
0
LINE
8
BLACK
6
CONTINUOUS
10
1.71443
20
0.370213
11
1.71699
21
0.37192
0
LINE
8
BLACK
6
CONTINUOUS
10
1.71699
20
0.37192
11
1.72
21
0.37252
0
LINE
8
BLACK
6
CONTINUOUS
10
1.72
20
0.37252
11
1.78
21
0.37252
0
LINE
8
BLACK
6
CONTINUOUS
10
1.78
20
0.37252
11
1.78301
21
0.37192
0
LINE
8
BLACK
6
CONTINUOUS
10
0.283013
20
0.37192
11
0.285568
21
0.370213
0
LINE
8
BLACK
6
CONTINUOUS
10
0.285568
20
0.370213
11
0.287275
21
0.367659
0
LINE
8
BLACK
6
CONTINUOUS
10
0.287275
20
0.367659
11
0.287874
21
0.364646
0
LINE
8
BLACK
6
CONTINUOUS
10
0.287874
20
0.364646
11
0.287874
21
0.304646
0
LINE
8
BLACK
6
CONTINUOUS
10
0.287874
20
0.304646
11
0.287275
21
0.301632
0
LINE
8
BLACK
6
CONTINUOUS
10
0.287275
20
0.301632
11
0.285568
21
0.299078
0
LINE
8
BLACK
6
CONTINUOUS
10
0.285568
20
0.299078
11
0.283013
21
0.297371
0
LINE
8
BLACK
6
CONTINUOUS
10
0.283013
20
0.297371
11
0.28
21
0.296772
0
LINE
8
BLACK
6
CONTINUOUS
10
0.28
20
0.296772
11
0.22
21
0.296772
0
LINE
8
BLACK
6
CONTINUOUS
10
0.22
20
0.296772
11
0.216987
21
0.297371
0
LINE
8
BLACK
6
CONTINUOUS
10
0.216987
20
0.297371
11
0.214432
21
0.299078
0
LINE
8
BLACK
6
CONTINUOUS
10
0.214432
20
0.299078
11
0.212725
21
0.301632
0
LINE
8
BLACK
6
CONTINUOUS
10
0.212725
20
0.301632
11
0.212126
21
0.304646
0
LINE
8
BLACK
6
CONTINUOUS
10
0.212126
20
0.304646
11
0.212126
21
0.364646
0
LINE
8
BLACK
6
CONTINUOUS
10
0.212126
20
0.364646
11
0.212725
21
0.367659
0
LINE
8
BLACK
6
CONTINUOUS
10
0.212725
20
0.367659
11
0.214432
21
0.370213
0
LINE
8
BLACK
6
CONTINUOUS
10
0.214432
20
0.370213
11
0.216987
21
0.37192
0
LINE
8
BLACK
6
CONTINUOUS
10
0.216987
20
0.37192
11
0.22
21
0.37252
0
LINE
8
BLACK
6
CONTINUOUS
10
0.22
20
0.37252
11
0.28
21
0.37252
0
LINE
8
BLACK
6
CONTINUOUS
10
0.28
20
0.37252
11
0.283013
21
0.37192
0
LINE
8
BLACK
6
CONTINUOUS
10
0.183013
20
0.37192
11
0.185568
21
0.370213
0
LINE
8
BLACK
6
CONTINUOUS
10
0.185568
20
0.370213
11
0.187275
21
0.367659
0
LINE
8
BLACK
6
CONTINUOUS
10
0.187275
20
0.367659
11
0.187874
21
0.364646
0
LINE
8
BLACK
6
CONTINUOUS
10
0.187874
20
0.364646
11
0.187874
21
0.304646
0
LINE
8
BLACK
6
CONTINUOUS
10
0.187874
20
0.304646
11
0.187275
21
0.301632
0
LINE
8
BLACK
6
CONTINUOUS
10
0.187275
20
0.301632
11
0.185568
21
0.299078
0
LINE
8
BLACK
6
CONTINUOUS
10
0.185568
20
0.299078
11
0.183013
21
0.297371
0
LINE
8
BLACK
6
CONTINUOUS
10
0.183013
20
0.297371
11
0.18
21
0.296772
0
LINE
8
BLACK
6
CONTINUOUS
10
0.18
20
0.296772
11
0.12
21
0.296772
0
LINE
8
BLACK
6
CONTINUOUS
10
0.12
20
0.296772
11
0.116987
21
0.297371
0
LINE
8
BLACK
6
CONTINUOUS
10
0.116987
20
0.297371
11
0.114432
21
0.299078
0
LINE
8
BLACK
6
CONTINUOUS
10
0.114432
20
0.299078
11
0.112725
21
0.301632
0
LINE
8
BLACK
6
CONTINUOUS
10
0.112725
20
0.301632
11
0.112126
21
0.304646
0
LINE
8
BLACK
6
CONTINUOUS
10
0.112126
20
0.304646
11
0.112126
21
0.364646
0
LINE
8
BLACK
6
CONTINUOUS
10
0.112126
20
0.364646
11
0.112725
21
0.367659
0
LINE
8
BLACK
6
CONTINUOUS
10
0.112725
20
0.367659
11
0.114432
21
0.370213
0
LINE
8
BLACK
6
CONTINUOUS
10
0.114432
20
0.370213
11
0.116987
21
0.37192
0
LINE
8
BLACK
6
CONTINUOUS
10
0.116987
20
0.37192
11
0.12
21
0.37252
0
LINE
8
BLACK
6
CONTINUOUS
10
0.12
20
0.37252
11
0.18
21
0.37252
0
LINE
8
BLACK
6
CONTINUOUS
10
0.18
20
0.37252
11
0.183013
21
0.37192
0
LINE
8
BLACK
6
CONTINUOUS
10
0.0830133
20
0.37192
11
0.0855678
21
0.370213
0
LINE
8
BLACK
6
CONTINUOUS
10
0.0855678
20
0.370213
11
0.0872746
21
0.367659
0
LINE
8
BLACK
6
CONTINUOUS
10
0.0872746
20
0.367659
11
0.087874
21
0.364646
0
LINE
8
BLACK
6
CONTINUOUS
10
0.087874
20
0.364646
11
0.087874
21
0.304646
0
LINE
8
BLACK
6
CONTINUOUS
10
0.087874
20
0.304646
11
0.0872746
21
0.301632
0
LINE
8
BLACK
6
CONTINUOUS
10
0.0872746
20
0.301632
11
0.0855678
21
0.299078
0
LINE
8
BLACK
6
CONTINUOUS
10
0.0855678
20
0.299078
11
0.0830133
21
0.297371
0
LINE
8
BLACK
6
CONTINUOUS
10
0.0830133
20
0.297371
11
0.08
21
0.296772
0
LINE
8
BLACK
6
CONTINUOUS
10
0.08
20
0.296772
11
0.02
21
0.296772
0
LINE
8
BLACK
6
CONTINUOUS
10
0.02
20
0.296772
11
0.0169867
21
0.297371
0
LINE
8
BLACK
6
CONTINUOUS
10
0.0169867
20
0.297371
11
0.0144322
21
0.299078
0
LINE
8
BLACK
6
CONTINUOUS
10
0.0144322
20
0.299078
11
0.0127254
21
0.301632
0
LINE
8
BLACK
6
CONTINUOUS
10
0.0127254
20
0.301632
11
0.012126
21
0.304646
0
LINE
8
BLACK
6
CONTINUOUS
10
0.012126
20
0.304646
11
0.012126
21
0.364646
0
LINE
8
BLACK
6
CONTINUOUS
10
0.012126
20
0.364646
11
0.0127254
21
0.367659
0
LINE
8
BLACK
6
CONTINUOUS
10
0.0127254
20
0.367659
11
0.0144322
21
0.370213
0
LINE
8
BLACK
6
CONTINUOUS
10
0.0144322
20
0.370213
11
0.0169867
21
0.37192
0
LINE
8
BLACK
6
CONTINUOUS
10
0.0169867
20
0.37192
11
0.02
21
0.37252
0
LINE
8
BLACK
6
CONTINUOUS
10
0.02
20
0.37252
11
0.08
21
0.37252
0
LINE
8
BLACK
6
CONTINUOUS
10
0.08
20
0.37252
11
0.0830133
21
0.37192
0
LINE
8
BLACK
6
CONTINUOUS
10
0.78262
20
2.05696
11
0.785174
21
2.05525
0
LINE
8
BLACK
6
CONTINUOUS
10
0.785174
20
2.05525
11
0.786881
21
2.0527
0
LINE
8
BLACK
6
CONTINUOUS
10
0.786881
20
2.0527
11
0.78748
21
2.04969
0
LINE
8
BLACK
6
CONTINUOUS
10
0.78748
20
2.04969
11
0.78748
21
1.98969
0
LINE
8
BLACK
6
CONTINUOUS
10
0.78748
20
1.98969
11
0.786881
21
1.98667
0
LINE
8
BLACK
6
CONTINUOUS
10
0.786881
20
1.98667
11
0.785174
21
1.98412
0
LINE
8
BLACK
6
CONTINUOUS
10
0.785174
20
1.98412
11
0.78262
21
1.98241
0
LINE
8
BLACK
6
CONTINUOUS
10
0.78262
20
1.98241
11
0.779606
21
1.98181
0
LINE
8
BLACK
6
CONTINUOUS
10
0.779606
20
1.98181
11
0.719606
21
1.98181
0
LINE
8
BLACK
6
CONTINUOUS
10
0.719606
20
1.98181
11
0.716593
21
1.98241
0
LINE
8
BLACK
6
CONTINUOUS
10
0.716593
20
1.98241
11
0.714039
21
1.98412
0
LINE
8
BLACK
6
CONTINUOUS
10
0.714039
20
1.98412
11
0.712332
21
1.98667
0
LINE
8
BLACK
6
CONTINUOUS
10
0.712332
20
1.98667
11
0.711732
21
1.98969
0
LINE
8
BLACK
6
CONTINUOUS
10
0.711732
20
1.98969
11
0.711732
21
2.04969
0
LINE
8
BLACK
6
CONTINUOUS
10
0.711732
20
2.04969
11
0.712332
21
2.0527
0
LINE
8
BLACK
6
CONTINUOUS
10
0.712332
20
2.0527
11
0.714039
21
2.05525
0
LINE
8
BLACK
6
CONTINUOUS
10
0.714039
20
2.05525
11
0.716593
21
2.05696
0
LINE
8
BLACK
6
CONTINUOUS
10
0.716593
20
2.05696
11
0.719606
21
2.05756
0
LINE
8
BLACK
6
CONTINUOUS
10
0.719606
20
2.05756
11
0.779606
21
2.05756
0
LINE
8
BLACK
6
CONTINUOUS
10
0.779606
20
2.05756
11
0.78262
21
2.05696
0
LINE
8
BLACK
6
CONTINUOUS
10
1.98262
20
2.05696
11
1.98517
21
2.05525
0
LINE
8
BLACK
6
CONTINUOUS
10
1.98517
20
2.05525
11
1.98688
21
2.0527
0
LINE
8
BLACK
6
CONTINUOUS
10
1.98688
20
2.0527
11
1.98748
21
2.04969
0
LINE
8
BLACK
6
CONTINUOUS
10
1.98748
20
2.04969
11
1.98748
21
1.98969
0
LINE
8
BLACK
6
CONTINUOUS
10
1.98748
20
1.98969
11
1.98688
21
1.98667
0
LINE
8
BLACK
6
CONTINUOUS
10
1.98688
20
1.98667
11
1.98517
21
1.98412
0
LINE
8
BLACK
6
CONTINUOUS
10
1.98517
20
1.98412
11
1.98262
21
1.98241
0
LINE
8
BLACK
6
CONTINUOUS
10
1.98262
20
1.98241
11
1.97961
21
1.98181
0
LINE
8
BLACK
6
CONTINUOUS
10
1.97961
20
1.98181
11
1.91961
21
1.98181
0
LINE
8
BLACK
6
CONTINUOUS
10
1.91961
20
1.98181
11
1.91659
21
1.98241
0
LINE
8
BLACK
6
CONTINUOUS
10
1.91659
20
1.98241
11
1.91404
21
1.98412
0
LINE
8
BLACK
6
CONTINUOUS
10
1.91404
20
1.98412
11
1.91233
21
1.98667
0
LINE
8
BLACK
6
CONTINUOUS
10
1.91233
20
1.98667
11
1.91173
21
1.98969
0
LINE
8
BLACK
6
CONTINUOUS
10
1.91173
20
1.98969
11
1.91173
21
2.04969
0
LINE
8
BLACK
6
CONTINUOUS
10
1.91173
20
2.04969
11
1.91233
21
2.0527
0
LINE
8
BLACK
6
CONTINUOUS
10
1.91233
20
2.0527
11
1.91404
21
2.05525
0
LINE
8
BLACK
6
CONTINUOUS
10
1.91404
20
2.05525
11
1.91659
21
2.05696
0
LINE
8
BLACK
6
CONTINUOUS
10
1.91659
20
2.05696
11
1.91961
21
2.05756
0
LINE
8
BLACK
6
CONTINUOUS
10
1.91961
20
2.05756
11
1.97961
21
2.05756
0
LINE
8
BLACK
6
CONTINUOUS
10
1.97961
20
2.05756
11
1.98262
21
2.05696
0
LINE
8
BLACK
6
CONTINUOUS
10
1.88262
20
2.05696
11
1.88517
21
2.05525
0
LINE
8
BLACK
6
CONTINUOUS
10
1.88517
20
2.05525
11
1.88688
21
2.0527
0
LINE
8
BLACK
6
CONTINUOUS
10
1.88688
20
2.0527
11
1.88748
21
2.04969
0
LINE
8
BLACK
6
CONTINUOUS
10
1.88748
20
2.04969
11
1.88748
21
1.98969
0
LINE
8
BLACK
6
CONTINUOUS
10
1.88748
20
1.98969
11
1.88688
21
1.98667
0
LINE
8
BLACK
6
CONTINUOUS
10
1.88688
20
1.98667
11
1.88517
21
1.98412
0
LINE
8
BLACK
6
CONTINUOUS
10
1.88517
20
1.98412
11
1.88262
21
1.98241
0
LINE
8
BLACK
6
CONTINUOUS
10
1.88262
20
1.98241
11
1.87961
21
1.98181
0
LINE
8
BLACK
6
CONTINUOUS
10
1.87961
20
1.98181
11
1.81961
21
1.98181
0
LINE
8
BLACK
6
CONTINUOUS
10
1.81961
20
1.98181
11
1.81659
21
1.98241
0
LINE
8
BLACK
6
CONTINUOUS
10
1.81659
20
1.98241
11
1.81404
21
1.98412
0
LINE
8
BLACK
6
CONTINUOUS
10
1.81404
20
1.98412
11
1.81233
21
1.98667
0
LINE
8
BLACK
6
CONTINUOUS
10
1.81233
20
1.98667
11
1.81173
21
1.98969
0
LINE
8
BLACK
6
CONTINUOUS
10
1.81173
20
1.98969
11
1.81173
21
2.04969
0
LINE
8
BLACK
6
CONTINUOUS
10
1.81173
20
2.04969
11
1.81233
21
2.0527
0
LINE
8
BLACK
6
CONTINUOUS
10
1.81233
20
2.0527
11
1.81404
21
2.05525
0
LINE
8
BLACK
6
CONTINUOUS
10
1.81404
20
2.05525
11
1.81659
21
2.05696
0
LINE
8
BLACK
6
CONTINUOUS
10
1.81659
20
2.05696
11
1.81961
21
2.05756
0
LINE
8
BLACK
6
CONTINUOUS
10
1.81961
20
2.05756
11
1.87961
21
2.05756
0
LINE
8
BLACK
6
CONTINUOUS
10
1.87961
20
2.05756
11
1.88262
21
2.05696
0
LINE
8
BLACK
6
CONTINUOUS
10
1.28262
20
2.05696
11
1.28517
21
2.05525
0
LINE
8
BLACK
6
CONTINUOUS
10
1.28517
20
2.05525
11
1.28688
21
2.0527
0
LINE
8
BLACK
6
CONTINUOUS
10
1.28688
20
2.0527
11
1.28748
21
2.04969
0
LINE
8
BLACK
6
CONTINUOUS
10
1.28748
20
2.04969
11
1.28748
21
1.98969
0
LINE
8
BLACK
6
CONTINUOUS
10
1.28748
20
1.98969
11
1.28688
21
1.98667
0
LINE
8
BLACK
6
CONTINUOUS
10
1.28688
20
1.98667
11
1.28517
21
1.98412
0
LINE
8
BLACK
6
CONTINUOUS
10
1.28517
20
1.98412
11
1.28262
21
1.98241
0
LINE
8
BLACK
6
CONTINUOUS
10
1.28262
20
1.98241
11
1.27961
21
1.98181
0
LINE
8
BLACK
6
CONTINUOUS
10
1.27961
20
1.98181
11
1.21961
21
1.98181
0
LINE
8
BLACK
6
CONTINUOUS
10
1.21961
20
1.98181
11
1.21659
21
1.98241
0
LINE
8
BLACK
6
CONTINUOUS
10
1.21659
20
1.98241
11
1.21404
21
1.98412
0
LINE
8
BLACK
6
CONTINUOUS
10
1.21404
20
1.98412
11
1.21233
21
1.98667
0
LINE
8
BLACK
6
CONTINUOUS
10
1.21233
20
1.98667
11
1.21173
21
1.98969
0
LINE
8
BLACK
6
CONTINUOUS
10
1.21173
20
1.98969
11
1.21173
21
2.04969
0
LINE
8
BLACK
6
CONTINUOUS
10
1.21173
20
2.04969
11
1.21233
21
2.0527
0
LINE
8
BLACK
6
CONTINUOUS
10
1.21233
20
2.0527
11
1.21404
21
2.05525
0
LINE
8
BLACK
6
CONTINUOUS
10
1.21404
20
2.05525
11
1.21659
21
2.05696
0
LINE
8
BLACK
6
CONTINUOUS
10
1.21659
20
2.05696
11
1.21961
21
2.05756
0
LINE
8
BLACK
6
CONTINUOUS
10
1.21961
20
2.05756
11
1.27961
21
2.05756
0
LINE
8
BLACK
6
CONTINUOUS
10
1.27961
20
2.05756
11
1.28262
21
2.05696
0
LINE
8
BLACK
6
CONTINUOUS
10
1.18262
20
2.05696
11
1.18517
21
2.05525
0
LINE
8
BLACK
6
CONTINUOUS
10
1.18517
20
2.05525
11
1.18688
21
2.0527
0
LINE
8
BLACK
6
CONTINUOUS
10
1.18688
20
2.0527
11
1.18748
21
2.04969
0
LINE
8
BLACK
6
CONTINUOUS
10
1.18748
20
2.04969
11
1.18748
21
1.98969
0
LINE
8
BLACK
6
CONTINUOUS
10
1.18748
20
1.98969
11
1.18688
21
1.98667
0
LINE
8
BLACK
6
CONTINUOUS
10
1.18688
20
1.98667
11
1.18517
21
1.98412
0
LINE
8
BLACK
6
CONTINUOUS
10
1.18517
20
1.98412
11
1.18262
21
1.98241
0
LINE
8
BLACK
6
CONTINUOUS
10
1.18262
20
1.98241
11
1.17961
21
1.98181
0
LINE
8
BLACK
6
CONTINUOUS
10
1.17961
20
1.98181
11
1.11961
21
1.98181
0
LINE
8
BLACK
6
CONTINUOUS
10
1.11961
20
1.98181
11
1.11659
21
1.98241
0
LINE
8
BLACK
6
CONTINUOUS
10
1.11659
20
1.98241
11
1.11404
21
1.98412
0
LINE
8
BLACK
6
CONTINUOUS
10
1.11404
20
1.98412
11
1.11233
21
1.98667
0
LINE
8
BLACK
6
CONTINUOUS
10
1.11233
20
1.98667
11
1.11173
21
1.98969
0
LINE
8
BLACK
6
CONTINUOUS
10
1.11173
20
1.98969
11
1.11173
21
2.04969
0
LINE
8
BLACK
6
CONTINUOUS
10
1.11173
20
2.04969
11
1.11233
21
2.0527
0
LINE
8
BLACK
6
CONTINUOUS
10
1.11233
20
2.0527
11
1.11404
21
2.05525
0
LINE
8
BLACK
6
CONTINUOUS
10
1.11404
20
2.05525
11
1.11659
21
2.05696
0
LINE
8
BLACK
6
CONTINUOUS
10
1.11659
20
2.05696
11
1.11961
21
2.05756
0
LINE
8
BLACK
6
CONTINUOUS
10
1.11961
20
2.05756
11
1.17961
21
2.05756
0
LINE
8
BLACK
6
CONTINUOUS
10
1.17961
20
2.05756
11
1.18262
21
2.05696
0
LINE
8
BLACK
6
CONTINUOUS
10
1.78262
20
2.05696
11
1.78517
21
2.05525
0
LINE
8
BLACK
6
CONTINUOUS
10
1.78517
20
2.05525
11
1.78688
21
2.0527
0
LINE
8
BLACK
6
CONTINUOUS
10
1.78688
20
2.0527
11
1.78748
21
2.04969
0
LINE
8
BLACK
6
CONTINUOUS
10
1.78748
20
2.04969
11
1.78748
21
1.98969
0
LINE
8
BLACK
6
CONTINUOUS
10
1.78748
20
1.98969
11
1.78688
21
1.98667
0
LINE
8
BLACK
6
CONTINUOUS
10
1.78688
20
1.98667
11
1.78517
21
1.98412
0
LINE
8
BLACK
6
CONTINUOUS
10
1.78517
20
1.98412
11
1.78262
21
1.98241
0
LINE
8
BLACK
6
CONTINUOUS
10
1.78262
20
1.98241
11
1.77961
21
1.98181
0
LINE
8
BLACK
6
CONTINUOUS
10
1.77961
20
1.98181
11
1.71961
21
1.98181
0
LINE
8
BLACK
6
CONTINUOUS
10
1.71961
20
1.98181
11
1.71659
21
1.98241
0
LINE
8
BLACK
6
CONTINUOUS
10
1.71659
20
1.98241
11
1.71404
21
1.98412
0
LINE
8
BLACK
6
CONTINUOUS
10
1.71404
20
1.98412
11
1.71233
21
1.98667
0
LINE
8
BLACK
6
CONTINUOUS
10
1.71233
20
1.98667
11
1.71173
21
1.98969
0
LINE
8
BLACK
6
CONTINUOUS
10
1.71173
20
1.98969
11
1.71173
21
2.04969
0
LINE
8
BLACK
6
CONTINUOUS
10
1.71173
20
2.04969
11
1.71233
21
2.0527
0
LINE
8
BLACK
6
CONTINUOUS
10
1.71233
20
2.0527
11
1.71404
21
2.05525
0
LINE
8
BLACK
6
CONTINUOUS
10
1.71404
20
2.05525
11
1.71659
21
2.05696
0
LINE
8
BLACK
6
CONTINUOUS
10
1.71659
20
2.05696
11
1.71961
21
2.05756
0
LINE
8
BLACK
6
CONTINUOUS
10
1.71961
20
2.05756
11
1.77961
21
2.05756
0
LINE
8
BLACK
6
CONTINUOUS
10
1.77961
20
2.05756
11
1.78262
21
2.05696
0
LINE
8
BLACK
6
CONTINUOUS
10
1.08262
20
2.05696
11
1.08517
21
2.05525
0
LINE
8
BLACK
6
CONTINUOUS
10
1.08517
20
2.05525
11
1.08688
21
2.0527
0
LINE
8
BLACK
6
CONTINUOUS
10
1.08688
20
2.0527
11
1.08748
21
2.04969
0
LINE
8
BLACK
6
CONTINUOUS
10
1.08748
20
2.04969
11
1.08748
21
1.98969
0
LINE
8
BLACK
6
CONTINUOUS
10
1.08748
20
1.98969
11
1.08688
21
1.98667
0
LINE
8
BLACK
6
CONTINUOUS
10
1.08688
20
1.98667
11
1.08517
21
1.98412
0
LINE
8
BLACK
6
CONTINUOUS
10
1.08517
20
1.98412
11
1.08262
21
1.98241
0
LINE
8
BLACK
6
CONTINUOUS
10
1.08262
20
1.98241
11
1.07961
21
1.98181
0
LINE
8
BLACK
6
CONTINUOUS
10
1.07961
20
1.98181
11
1.01961
21
1.98181
0
LINE
8
BLACK
6
CONTINUOUS
10
1.01961
20
1.98181
11
1.01659
21
1.98241
0
LINE
8
BLACK
6
CONTINUOUS
10
1.01659
20
1.98241
11
1.01404
21
1.98412
0
LINE
8
BLACK
6
CONTINUOUS
10
1.01404
20
1.98412
11
1.01233
21
1.98667
0
LINE
8
BLACK
6
CONTINUOUS
10
1.01233
20
1.98667
11
1.01173
21
1.98969
0
LINE
8
BLACK
6
CONTINUOUS
10
1.01173
20
1.98969
11
1.01173
21
2.04969
0
LINE
8
BLACK
6
CONTINUOUS
10
1.01173
20
2.04969
11
1.01233
21
2.0527
0
LINE
8
BLACK
6
CONTINUOUS
10
1.01233
20
2.0527
11
1.01404
21
2.05525
0
LINE
8
BLACK
6
CONTINUOUS
10
1.01404
20
2.05525
11
1.01659
21
2.05696
0
LINE
8
BLACK
6
CONTINUOUS
10
1.01659
20
2.05696
11
1.01961
21
2.05756
0
LINE
8
BLACK
6
CONTINUOUS
10
1.01961
20
2.05756
11
1.07961
21
2.05756
0
LINE
8
BLACK
6
CONTINUOUS
10
1.07961
20
2.05756
11
1.08262
21
2.05696
0
LINE
8
BLACK
6
CONTINUOUS
10
0.98262
20
2.05696
11
0.985174
21
2.05525
0
LINE
8
BLACK
6
CONTINUOUS
10
0.985174
20
2.05525
11
0.986881
21
2.0527
0
LINE
8
BLACK
6
CONTINUOUS
10
0.986881
20
2.0527
11
0.98748
21
2.04969
0
LINE
8
BLACK
6
CONTINUOUS
10
0.98748
20
2.04969
11
0.98748
21
1.98969
0
LINE
8
BLACK
6
CONTINUOUS
10
0.98748
20
1.98969
11
0.986881
21
1.98667
0
LINE
8
BLACK
6
CONTINUOUS
10
0.986881
20
1.98667
11
0.985174
21
1.98412
0
LINE
8
BLACK
6
CONTINUOUS
10
0.985174
20
1.98412
11
0.98262
21
1.98241
0
LINE
8
BLACK
6
CONTINUOUS
10
0.98262
20
1.98241
11
0.979606
21
1.98181
0
LINE
8
BLACK
6
CONTINUOUS
10
0.979606
20
1.98181
11
0.919606
21
1.98181
0
LINE
8
BLACK
6
CONTINUOUS
10
0.919606
20
1.98181
11
0.916593
21
1.98241
0
LINE
8
BLACK
6
CONTINUOUS
10
0.916593
20
1.98241
11
0.914039
21
1.98412
0
LINE
8
BLACK
6
CONTINUOUS
10
0.914039
20
1.98412
11
0.912332
21
1.98667
0
LINE
8
BLACK
6
CONTINUOUS
10
0.912332
20
1.98667
11
0.911732
21
1.98969
0
LINE
8
BLACK
6
CONTINUOUS
10
0.911732
20
1.98969
11
0.911732
21
2.04969
0
LINE
8
BLACK
6
CONTINUOUS
10
0.911732
20
2.04969
11
0.912332
21
2.0527
0
LINE
8
BLACK
6
CONTINUOUS
10
0.912332
20
2.0527
11
0.914039
21
2.05525
0
LINE
8
BLACK
6
CONTINUOUS
10
0.914039
20
2.05525
11
0.916593
21
2.05696
0
LINE
8
BLACK
6
CONTINUOUS
10
0.916593
20
2.05696
11
0.919606
21
2.05756
0
LINE
8
BLACK
6
CONTINUOUS
10
0.919606
20
2.05756
11
0.979606
21
2.05756
0
LINE
8
BLACK
6
CONTINUOUS
10
0.979606
20
2.05756
11
0.98262
21
2.05696
0
LINE
8
BLACK
6
CONTINUOUS
10
0.88262
20
2.05696
11
0.885174
21
2.05525
0
LINE
8
BLACK
6
CONTINUOUS
10
0.885174
20
2.05525
11
0.886881
21
2.0527
0
LINE
8
BLACK
6
CONTINUOUS
10
0.886881
20
2.0527
11
0.88748
21
2.04969
0
LINE
8
BLACK
6
CONTINUOUS
10
0.88748
20
2.04969
11
0.88748
21
1.98969
0
LINE
8
BLACK
6
CONTINUOUS
10
0.88748
20
1.98969
11
0.886881
21
1.98667
0
LINE
8
BLACK
6
CONTINUOUS
10
0.886881
20
1.98667
11
0.885174
21
1.98412
0
LINE
8
BLACK
6
CONTINUOUS
10
0.885174
20
1.98412
11
0.88262
21
1.98241
0
LINE
8
BLACK
6
CONTINUOUS
10
0.88262
20
1.98241
11
0.879606
21
1.98181
0
LINE
8
BLACK
6
CONTINUOUS
10
0.879606
20
1.98181
11
0.819606
21
1.98181
0
LINE
8
BLACK
6
CONTINUOUS
10
0.819606
20
1.98181
11
0.816593
21
1.98241
0
LINE
8
BLACK
6
CONTINUOUS
10
0.816593
20
1.98241
11
0.814039
21
1.98412
0
LINE
8
BLACK
6
CONTINUOUS
10
0.814039
20
1.98412
11
0.812332
21
1.98667
0
LINE
8
BLACK
6
CONTINUOUS
10
0.812332
20
1.98667
11
0.811732
21
1.98969
0
LINE
8
BLACK
6
CONTINUOUS
10
0.811732
20
1.98969
11
0.811732
21
2.04969
0
LINE
8
BLACK
6
CONTINUOUS
10
0.811732
20
2.04969
11
0.812332
21
2.0527
0
LINE
8
BLACK
6
CONTINUOUS
10
0.812332
20
2.0527
11
0.814039
21
2.05525
0
LINE
8
BLACK
6
CONTINUOUS
10
0.814039
20
2.05525
11
0.816593
21
2.05696
0
LINE
8
BLACK
6
CONTINUOUS
10
0.816593
20
2.05696
11
0.819606
21
2.05756
0
LINE
8
BLACK
6
CONTINUOUS
10
0.819606
20
2.05756
11
0.879606
21
2.05756
0
LINE
8
BLACK
6
CONTINUOUS
10
0.879606
20
2.05756
11
0.88262
21
2.05696
0
LINE
8
BLACK
6
CONTINUOUS
10
0.68262
20
2.05696
11
0.685174
21
2.05525
0
LINE
8
BLACK
6
CONTINUOUS
10
0.685174
20
2.05525
11
0.686881
21
2.0527
0
LINE
8
BLACK
6
CONTINUOUS
10
0.686881
20
2.0527
11
0.68748
21
2.04969
0
LINE
8
BLACK
6
CONTINUOUS
10
0.68748
20
2.04969
11
0.68748
21
1.98969
0
LINE
8
BLACK
6
CONTINUOUS
10
0.68748
20
1.98969
11
0.686881
21
1.98667
0
LINE
8
BLACK
6
CONTINUOUS
10
0.686881
20
1.98667
11
0.685174
21
1.98412
0
LINE
8
BLACK
6
CONTINUOUS
10
0.685174
20
1.98412
11
0.68262
21
1.98241
0
LINE
8
BLACK
6
CONTINUOUS
10
0.68262
20
1.98241
11
0.679606
21
1.98181
0
LINE
8
BLACK
6
CONTINUOUS
10
0.679606
20
1.98181
11
0.619606
21
1.98181
0
LINE
8
BLACK
6
CONTINUOUS
10
0.619606
20
1.98181
11
0.616593
21
1.98241
0
LINE
8
BLACK
6
CONTINUOUS
10
0.616593
20
1.98241
11
0.614039
21
1.98412
0
LINE
8
BLACK
6
CONTINUOUS
10
0.614039
20
1.98412
11
0.612332
21
1.98667
0
LINE
8
BLACK
6
CONTINUOUS
10
0.612332
20
1.98667
11
0.611732
21
1.98969
0
LINE
8
BLACK
6
CONTINUOUS
10
0.611732
20
1.98969
11
0.611732
21
2.04969
0
LINE
8
BLACK
6
CONTINUOUS
10
0.611732
20
2.04969
11
0.612332
21
2.0527
0
LINE
8
BLACK
6
CONTINUOUS
10
0.612332
20
2.0527
11
0.614039
21
2.05525
0
LINE
8
BLACK
6
CONTINUOUS
10
0.614039
20
2.05525
11
0.616593
21
2.05696
0
LINE
8
BLACK
6
CONTINUOUS
10
0.616593
20
2.05696
11
0.619606
21
2.05756
0
LINE
8
BLACK
6
CONTINUOUS
10
0.619606
20
2.05756
11
0.679606
21
2.05756
0
LINE
8
BLACK
6
CONTINUOUS
10
0.679606
20
2.05756
11
0.68262
21
2.05696
0
LINE
8
BLACK
6
CONTINUOUS
10
0.58262
20
2.05696
11
0.585174
21
2.05525
0
LINE
8
BLACK
6
CONTINUOUS
10
0.585174
20
2.05525
11
0.586881
21
2.0527
0
LINE
8
BLACK
6
CONTINUOUS
10
0.586881
20
2.0527
11
0.58748
21
2.04969
0
LINE
8
BLACK
6
CONTINUOUS
10
0.58748
20
2.04969
11
0.58748
21
1.98969
0
LINE
8
BLACK
6
CONTINUOUS
10
0.58748
20
1.98969
11
0.586881
21
1.98667
0
LINE
8
BLACK
6
CONTINUOUS
10
0.586881
20
1.98667
11
0.585174
21
1.98412
0
LINE
8
BLACK
6
CONTINUOUS
10
0.585174
20
1.98412
11
0.58262
21
1.98241
0
LINE
8
BLACK
6
CONTINUOUS
10
0.58262
20
1.98241
11
0.579606
21
1.98181
0
LINE
8
BLACK
6
CONTINUOUS
10
0.579606
20
1.98181
11
0.519606
21
1.98181
0
LINE
8
BLACK
6
CONTINUOUS
10
0.519606
20
1.98181
11
0.516593
21
1.98241
0
LINE
8
BLACK
6
CONTINUOUS
10
0.516593
20
1.98241
11
0.514039
21
1.98412
0
LINE
8
BLACK
6
CONTINUOUS
10
0.514039
20
1.98412
11
0.512332
21
1.98667
0
LINE
8
BLACK
6
CONTINUOUS
10
0.512332
20
1.98667
11
0.511732
21
1.98969
0
LINE
8
BLACK
6
CONTINUOUS
10
0.511732
20
1.98969
11
0.511732
21
2.04969
0
LINE
8
BLACK
6
CONTINUOUS
10
0.511732
20
2.04969
11
0.512332
21
2.0527
0
LINE
8
BLACK
6
CONTINUOUS
10
0.512332
20
2.0527
11
0.514039
21
2.05525
0
LINE
8
BLACK
6
CONTINUOUS
10
0.514039
20
2.05525
11
0.516593
21
2.05696
0
LINE
8
BLACK
6
CONTINUOUS
10
0.516593
20
2.05696
11
0.519606
21
2.05756
0
LINE
8
BLACK
6
CONTINUOUS
10
0.519606
20
2.05756
11
0.579606
21
2.05756
0
LINE
8
BLACK
6
CONTINUOUS
10
0.579606
20
2.05756
11
0.58262
21
2.05696
0
LINE
8
BLACK
6
CONTINUOUS
10
0.48262
20
2.05696
11
0.485174
21
2.05525
0
LINE
8
BLACK
6
CONTINUOUS
10
0.485174
20
2.05525
11
0.486881
21
2.0527
0
LINE
8
BLACK
6
CONTINUOUS
10
0.486881
20
2.0527
11
0.48748
21
2.04969
0
LINE
8
BLACK
6
CONTINUOUS
10
0.48748
20
2.04969
11
0.48748
21
1.98969
0
LINE
8
BLACK
6
CONTINUOUS
10
0.48748
20
1.98969
11
0.486881
21
1.98667
0
LINE
8
BLACK
6
CONTINUOUS
10
0.486881
20
1.98667
11
0.485174
21
1.98412
0
LINE
8
BLACK
6
CONTINUOUS
10
0.485174
20
1.98412
11
0.48262
21
1.98241
0
LINE
8
BLACK
6
CONTINUOUS
10
0.48262
20
1.98241
11
0.479606
21
1.98181
0
LINE
8
BLACK
6
CONTINUOUS
10
0.479606
20
1.98181
11
0.419606
21
1.98181
0
LINE
8
BLACK
6
CONTINUOUS
10
0.419606
20
1.98181
11
0.416593
21
1.98241
0
LINE
8
BLACK
6
CONTINUOUS
10
0.416593
20
1.98241
11
0.414039
21
1.98412
0
LINE
8
BLACK
6
CONTINUOUS
10
0.414039
20
1.98412
11
0.412332
21
1.98667
0
LINE
8
BLACK
6
CONTINUOUS
10
0.412332
20
1.98667
11
0.411732
21
1.98969
0
LINE
8
BLACK
6
CONTINUOUS
10
0.411732
20
1.98969
11
0.411732
21
2.04969
0
LINE
8
BLACK
6
CONTINUOUS
10
0.411732
20
2.04969
11
0.412332
21
2.0527
0
LINE
8
BLACK
6
CONTINUOUS
10
0.412332
20
2.0527
11
0.414039
21
2.05525
0
LINE
8
BLACK
6
CONTINUOUS
10
0.414039
20
2.05525
11
0.416593
21
2.05696
0
LINE
8
BLACK
6
CONTINUOUS
10
0.416593
20
2.05696
11
0.419606
21
2.05756
0
LINE
8
BLACK
6
CONTINUOUS
10
0.419606
20
2.05756
11
0.479606
21
2.05756
0
LINE
8
BLACK
6
CONTINUOUS
10
0.479606
20
2.05756
11
0.48262
21
2.05696
0
LINE
8
BLACK
6
CONTINUOUS
10
0.38262
20
2.05696
11
0.385174
21
2.05525
0
LINE
8
BLACK
6
CONTINUOUS
10
0.385174
20
2.05525
11
0.386881
21
2.0527
0
LINE
8
BLACK
6
CONTINUOUS
10
0.386881
20
2.0527
11
0.38748
21
2.04969
0
LINE
8
BLACK
6
CONTINUOUS
10
0.38748
20
2.04969
11
0.38748
21
1.98969
0
LINE
8
BLACK
6
CONTINUOUS
10
0.38748
20
1.98969
11
0.386881
21
1.98667
0
LINE
8
BLACK
6
CONTINUOUS
10
0.386881
20
1.98667
11
0.385174
21
1.98412
0
LINE
8
BLACK
6
CONTINUOUS
10
0.385174
20
1.98412
11
0.38262
21
1.98241
0
LINE
8
BLACK
6
CONTINUOUS
10
0.38262
20
1.98241
11
0.379606
21
1.98181
0
LINE
8
BLACK
6
CONTINUOUS
10
0.379606
20
1.98181
11
0.319606
21
1.98181
0
LINE
8
BLACK
6
CONTINUOUS
10
0.319606
20
1.98181
11
0.316593
21
1.98241
0
LINE
8
BLACK
6
CONTINUOUS
10
0.316593
20
1.98241
11
0.314039
21
1.98412
0
LINE
8
BLACK
6
CONTINUOUS
10
0.314039
20
1.98412
11
0.312332
21
1.98667
0
LINE
8
BLACK
6
CONTINUOUS
10
0.312332
20
1.98667
11
0.311732
21
1.98969
0
LINE
8
BLACK
6
CONTINUOUS
10
0.311732
20
1.98969
11
0.311732
21
2.04969
0
LINE
8
BLACK
6
CONTINUOUS
10
0.311732
20
2.04969
11
0.312332
21
2.0527
0
LINE
8
BLACK
6
CONTINUOUS
10
0.312332
20
2.0527
11
0.314039
21
2.05525
0
LINE
8
BLACK
6
CONTINUOUS
10
0.314039
20
2.05525
11
0.316593
21
2.05696
0
LINE
8
BLACK
6
CONTINUOUS
10
0.316593
20
2.05696
11
0.319606
21
2.05756
0
LINE
8
BLACK
6
CONTINUOUS
10
0.319606
20
2.05756
11
0.379606
21
2.05756
0
LINE
8
BLACK
6
CONTINUOUS
10
0.379606
20
2.05756
11
0.38262
21
2.05696
0
LINE
8
BLACK
6
CONTINUOUS
10
0.28262
20
2.05696
11
0.285174
21
2.05525
0
LINE
8
BLACK
6
CONTINUOUS
10
0.285174
20
2.05525
11
0.286881
21
2.0527
0
LINE
8
BLACK
6
CONTINUOUS
10
0.286881
20
2.0527
11
0.28748
21
2.04969
0
LINE
8
BLACK
6
CONTINUOUS
10
0.28748
20
2.04969
11
0.28748
21
1.98969
0
LINE
8
BLACK
6
CONTINUOUS
10
0.28748
20
1.98969
11
0.286881
21
1.98667
0
LINE
8
BLACK
6
CONTINUOUS
10
0.286881
20
1.98667
11
0.285174
21
1.98412
0
LINE
8
BLACK
6
CONTINUOUS
10
0.285174
20
1.98412
11
0.28262
21
1.98241
0
LINE
8
BLACK
6
CONTINUOUS
10
0.28262
20
1.98241
11
0.279606
21
1.98181
0
LINE
8
BLACK
6
CONTINUOUS
10
0.279606
20
1.98181
11
0.219606
21
1.98181
0
LINE
8
BLACK
6
CONTINUOUS
10
0.219606
20
1.98181
11
0.216593
21
1.98241
0
LINE
8
BLACK
6
CONTINUOUS
10
0.216593
20
1.98241
11
0.214039
21
1.98412
0
LINE
8
BLACK
6
CONTINUOUS
10
0.214039
20
1.98412
11
0.212332
21
1.98667
0
LINE
8
BLACK
6
CONTINUOUS
10
0.212332
20
1.98667
11
0.211732
21
1.98969
0
LINE
8
BLACK
6
CONTINUOUS
10
0.211732
20
1.98969
11
0.211732
21
2.04969
0
LINE
8
BLACK
6
CONTINUOUS
10
0.211732
20
2.04969
11
0.212332
21
2.0527
0
LINE
8
BLACK
6
CONTINUOUS
10
0.212332
20
2.0527
11
0.214039
21
2.05525
0
LINE
8
BLACK
6
CONTINUOUS
10
0.214039
20
2.05525
11
0.216593
21
2.05696
0
LINE
8
BLACK
6
CONTINUOUS
10
0.216593
20
2.05696
11
0.219606
21
2.05756
0
LINE
8
BLACK
6
CONTINUOUS
10
0.219606
20
2.05756
11
0.279606
21
2.05756
0
LINE
8
BLACK
6
CONTINUOUS
10
0.279606
20
2.05756
11
0.28262
21
2.05696
0
LINE
8
BLACK
6
CONTINUOUS
10
0.18262
20
2.05696
11
0.185174
21
2.05525
0
LINE
8
BLACK
6
CONTINUOUS
10
0.185174
20
2.05525
11
0.186881
21
2.0527
0
LINE
8
BLACK
6
CONTINUOUS
10
0.186881
20
2.0527
11
0.18748
21
2.04969
0
LINE
8
BLACK
6
CONTINUOUS
10
0.18748
20
2.04969
11
0.18748
21
1.98969
0
LINE
8
BLACK
6
CONTINUOUS
10
0.18748
20
1.98969
11
0.186881
21
1.98667
0
LINE
8
BLACK
6
CONTINUOUS
10
0.186881
20
1.98667
11
0.185174
21
1.98412
0
LINE
8
BLACK
6
CONTINUOUS
10
0.185174
20
1.98412
11
0.18262
21
1.98241
0
LINE
8
BLACK
6
CONTINUOUS
10
0.18262
20
1.98241
11
0.179606
21
1.98181
0
LINE
8
BLACK
6
CONTINUOUS
10
0.179606
20
1.98181
11
0.119606
21
1.98181
0
LINE
8
BLACK
6
CONTINUOUS
10
0.119606
20
1.98181
11
0.116593
21
1.98241
0
LINE
8
BLACK
6
CONTINUOUS
10
0.116593
20
1.98241
11
0.114039
21
1.98412
0
LINE
8
BLACK
6
CONTINUOUS
10
0.114039
20
1.98412
11
0.112332
21
1.98667
0
LINE
8
BLACK
6
CONTINUOUS
10
0.112332
20
1.98667
11
0.111732
21
1.98969
0
LINE
8
BLACK
6
CONTINUOUS
10
0.111732
20
1.98969
11
0.111732
21
2.04969
0
LINE
8
BLACK
6
CONTINUOUS
10
0.111732
20
2.04969
11
0.112332
21
2.0527
0
LINE
8
BLACK
6
CONTINUOUS
10
0.112332
20
2.0527
11
0.114039
21
2.05525
0
LINE
8
BLACK
6
CONTINUOUS
10
0.114039
20
2.05525
11
0.116593
21
2.05696
0
LINE
8
BLACK
6
CONTINUOUS
10
0.116593
20
2.05696
11
0.119606
21
2.05756
0
LINE
8
BLACK
6
CONTINUOUS
10
0.119606
20
2.05756
11
0.179606
21
2.05756
0
LINE
8
BLACK
6
CONTINUOUS
10
0.179606
20
2.05756
11
0.18262
21
2.05696
0
LINE
8
BLACK
6
CONTINUOUS
10
0.0826196
20
2.05696
11
0.0851741
21
2.05525
0
LINE
8
BLACK
6
CONTINUOUS
10
0.0851741
20
2.05525
11
0.0868809
21
2.0527
0
LINE
8
BLACK
6
CONTINUOUS
10
0.0868809
20
2.0527
11
0.0874803
21
2.04969
0
LINE
8
BLACK
6
CONTINUOUS
10
0.0874803
20
2.04969
11
0.0874803
21
1.98969
0
LINE
8
BLACK
6
CONTINUOUS
10
0.0874803
20
1.98969
11
0.0868809
21
1.98667
0
LINE
8
BLACK
6
CONTINUOUS
10
0.0868809
20
1.98667
11
0.0851741
21
1.98412
0
LINE
8
BLACK
6
CONTINUOUS
10
0.0851741
20
1.98412
11
0.0826196
21
1.98241
0
LINE
8
BLACK
6
CONTINUOUS
10
0.0826196
20
1.98241
11
0.0796063
21
1.98181
0
LINE
8
BLACK
6
CONTINUOUS
10
0.0796063
20
1.98181
11
0.0196063
21
1.98181
0
LINE
8
BLACK
6
CONTINUOUS
10
0.0196063
20
1.98181
11
0.016593
21
1.98241
0
LINE
8
BLACK
6
CONTINUOUS
10
0.016593
20
1.98241
11
0.0140385
21
1.98412
0
LINE
8
BLACK
6
CONTINUOUS
10
0.0140385
20
1.98412
11
0.0123317
21
1.98667
0
LINE
8
BLACK
6
CONTINUOUS
10
0.0123317
20
1.98667
11
0.0117323
21
1.98969
0
LINE
8
BLACK
6
CONTINUOUS
10
0.0117323
20
1.98969
11
0.0117323
21
2.04969
0
LINE
8
BLACK
6
CONTINUOUS
10
0.0117323
20
2.04969
11
0.0123317
21
2.0527
0
LINE
8
BLACK
6
CONTINUOUS
10
0.0123317
20
2.0527
11
0.0140385
21
2.05525
0
LINE
8
BLACK
6
CONTINUOUS
10
0.0140385
20
2.05525
11
0.016593
21
2.05696
0
LINE
8
BLACK
6
CONTINUOUS
10
0.016593
20
2.05696
11
0.0196063
21
2.05756
0
LINE
8
BLACK
6
CONTINUOUS
10
0.0196063
20
2.05756
11
0.0796063
21
2.05756
0
LINE
8
BLACK
6
CONTINUOUS
10
0.0796063
20
2.05756
11
0.0826196
21
2.05696
0
LINE
8
BLACK
6
CONTINUOUS
10
1.68262
20
2.05696
11
1.68517
21
2.05525
0
LINE
8
BLACK
6
CONTINUOUS
10
1.68517
20
2.05525
11
1.68688
21
2.0527
0
LINE
8
BLACK
6
CONTINUOUS
10
1.68688
20
2.0527
11
1.68748
21
2.04969
0
LINE
8
BLACK
6
CONTINUOUS
10
1.68748
20
2.04969
11
1.68748
21
1.98969
0
LINE
8
BLACK
6
CONTINUOUS
10
1.68748
20
1.98969
11
1.68688
21
1.98667
0
LINE
8
BLACK
6
CONTINUOUS
10
1.68688
20
1.98667
11
1.68517
21
1.98412
0
LINE
8
BLACK
6
CONTINUOUS
10
1.68517
20
1.98412
11
1.68262
21
1.98241
0
LINE
8
BLACK
6
CONTINUOUS
10
1.68262
20
1.98241
11
1.67961
21
1.98181
0
LINE
8
BLACK
6
CONTINUOUS
10
1.67961
20
1.98181
11
1.61961
21
1.98181
0
LINE
8
BLACK
6
CONTINUOUS
10
1.61961
20
1.98181
11
1.61659
21
1.98241
0
LINE
8
BLACK
6
CONTINUOUS
10
1.61659
20
1.98241
11
1.61404
21
1.98412
0
LINE
8
BLACK
6
CONTINUOUS
10
1.61404
20
1.98412
11
1.61233
21
1.98667
0
LINE
8
BLACK
6
CONTINUOUS
10
1.61233
20
1.98667
11
1.61173
21
1.98969
0
LINE
8
BLACK
6
CONTINUOUS
10
1.61173
20
1.98969
11
1.61173
21
2.04969
0
LINE
8
BLACK
6
CONTINUOUS
10
1.61173
20
2.04969
11
1.61233
21
2.0527
0
LINE
8
BLACK
6
CONTINUOUS
10
1.61233
20
2.0527
11
1.61404
21
2.05525
0
LINE
8
BLACK
6
CONTINUOUS
10
1.61404
20
2.05525
11
1.61659
21
2.05696
0
LINE
8
BLACK
6
CONTINUOUS
10
1.61659
20
2.05696
11
1.61961
21
2.05756
0
LINE
8
BLACK
6
CONTINUOUS
10
1.61961
20
2.05756
11
1.67961
21
2.05756
0
LINE
8
BLACK
6
CONTINUOUS
10
1.67961
20
2.05756
11
1.68262
21
2.05696
0
LINE
8
BLACK
6
CONTINUOUS
10
1.58262
20
2.05696
11
1.58517
21
2.05525
0
LINE
8
BLACK
6
CONTINUOUS
10
1.58517
20
2.05525
11
1.58688
21
2.0527
0
LINE
8
BLACK
6
CONTINUOUS
10
1.58688
20
2.0527
11
1.58748
21
2.04969
0
LINE
8
BLACK
6
CONTINUOUS
10
1.58748
20
2.04969
11
1.58748
21
1.98969
0
LINE
8
BLACK
6
CONTINUOUS
10
1.58748
20
1.98969
11
1.58688
21
1.98667
0
LINE
8
BLACK
6
CONTINUOUS
10
1.58688
20
1.98667
11
1.58517
21
1.98412
0
LINE
8
BLACK
6
CONTINUOUS
10
1.58517
20
1.98412
11
1.58262
21
1.98241
0
LINE
8
BLACK
6
CONTINUOUS
10
1.58262
20
1.98241
11
1.57961
21
1.98181
0
LINE
8
BLACK
6
CONTINUOUS
10
1.57961
20
1.98181
11
1.51961
21
1.98181
0
LINE
8
BLACK
6
CONTINUOUS
10
1.51961
20
1.98181
11
1.51659
21
1.98241
0
LINE
8
BLACK
6
CONTINUOUS
10
1.51659
20
1.98241
11
1.51404
21
1.98412
0
LINE
8
BLACK
6
CONTINUOUS
10
1.51404
20
1.98412
11
1.51233
21
1.98667
0
LINE
8
BLACK
6
CONTINUOUS
10
1.51233
20
1.98667
11
1.51173
21
1.98969
0
LINE
8
BLACK
6
CONTINUOUS
10
1.51173
20
1.98969
11
1.51173
21
2.04969
0
LINE
8
BLACK
6
CONTINUOUS
10
1.51173
20
2.04969
11
1.51233
21
2.0527
0
LINE
8
BLACK
6
CONTINUOUS
10
1.51233
20
2.0527
11
1.51404
21
2.05525
0
LINE
8
BLACK
6
CONTINUOUS
10
1.51404
20
2.05525
11
1.51659
21
2.05696
0
LINE
8
BLACK
6
CONTINUOUS
10
1.51659
20
2.05696
11
1.51961
21
2.05756
0
LINE
8
BLACK
6
CONTINUOUS
10
1.51961
20
2.05756
11
1.57961
21
2.05756
0
LINE
8
BLACK
6
CONTINUOUS
10
1.57961
20
2.05756
11
1.58262
21
2.05696
0
LINE
8
BLACK
6
CONTINUOUS
10
1.48262
20
2.05696
11
1.48517
21
2.05525
0
LINE
8
BLACK
6
CONTINUOUS
10
1.48517
20
2.05525
11
1.48688
21
2.0527
0
LINE
8
BLACK
6
CONTINUOUS
10
1.48688
20
2.0527
11
1.48748
21
2.04969
0
LINE
8
BLACK
6
CONTINUOUS
10
1.48748
20
2.04969
11
1.48748
21
1.98969
0
LINE
8
BLACK
6
CONTINUOUS
10
1.48748
20
1.98969
11
1.48688
21
1.98667
0
LINE
8
BLACK
6
CONTINUOUS
10
1.48688
20
1.98667
11
1.48517
21
1.98412
0
LINE
8
BLACK
6
CONTINUOUS
10
1.48517
20
1.98412
11
1.48262
21
1.98241
0
LINE
8
BLACK
6
CONTINUOUS
10
1.48262
20
1.98241
11
1.47961
21
1.98181
0
LINE
8
BLACK
6
CONTINUOUS
10
1.47961
20
1.98181
11
1.41961
21
1.98181
0
LINE
8
BLACK
6
CONTINUOUS
10
1.41961
20
1.98181
11
1.41659
21
1.98241
0
LINE
8
BLACK
6
CONTINUOUS
10
1.41659
20
1.98241
11
1.41404
21
1.98412
0
LINE
8
BLACK
6
CONTINUOUS
10
1.41404
20
1.98412
11
1.41233
21
1.98667
0
LINE
8
BLACK
6
CONTINUOUS
10
1.41233
20
1.98667
11
1.41173
21
1.98969
0
LINE
8
BLACK
6
CONTINUOUS
10
1.41173
20
1.98969
11
1.41173
21
2.04969
0
LINE
8
BLACK
6
CONTINUOUS
10
1.41173
20
2.04969
11
1.41233
21
2.0527
0
LINE
8
BLACK
6
CONTINUOUS
10
1.41233
20
2.0527
11
1.41404
21
2.05525
0
LINE
8
BLACK
6
CONTINUOUS
10
1.41404
20
2.05525
11
1.41659
21
2.05696
0
LINE
8
BLACK
6
CONTINUOUS
10
1.41659
20
2.05696
11
1.41961
21
2.05756
0
LINE
8
BLACK
6
CONTINUOUS
10
1.41961
20
2.05756
11
1.47961
21
2.05756
0
LINE
8
BLACK
6
CONTINUOUS
10
1.47961
20
2.05756
11
1.48262
21
2.05696
0
LINE
8
BLACK
6
CONTINUOUS
10
1.38262
20
2.05696
11
1.38517
21
2.05525
0
LINE
8
BLACK
6
CONTINUOUS
10
1.38517
20
2.05525
11
1.38688
21
2.0527
0
LINE
8
BLACK
6
CONTINUOUS
10
1.38688
20
2.0527
11
1.38748
21
2.04969
0
LINE
8
BLACK
6
CONTINUOUS
10
1.38748
20
2.04969
11
1.38748
21
1.98969
0
LINE
8
BLACK
6
CONTINUOUS
10
1.38748
20
1.98969
11
1.38688
21
1.98667
0
LINE
8
BLACK
6
CONTINUOUS
10
1.38688
20
1.98667
11
1.38517
21
1.98412
0
LINE
8
BLACK
6
CONTINUOUS
10
1.38517
20
1.98412
11
1.38262
21
1.98241
0
LINE
8
BLACK
6
CONTINUOUS
10
1.38262
20
1.98241
11
1.37961
21
1.98181
0
LINE
8
BLACK
6
CONTINUOUS
10
1.37961
20
1.98181
11
1.31961
21
1.98181
0
LINE
8
BLACK
6
CONTINUOUS
10
1.31961
20
1.98181
11
1.31659
21
1.98241
0
LINE
8
BLACK
6
CONTINUOUS
10
1.31659
20
1.98241
11
1.31404
21
1.98412
0
LINE
8
BLACK
6
CONTINUOUS
10
1.31404
20
1.98412
11
1.31233
21
1.98667
0
LINE
8
BLACK
6
CONTINUOUS
10
1.31233
20
1.98667
11
1.31173
21
1.98969
0
LINE
8
BLACK
6
CONTINUOUS
10
1.31173
20
1.98969
11
1.31173
21
2.04969
0
LINE
8
BLACK
6
CONTINUOUS
10
1.31173
20
2.04969
11
1.31233
21
2.0527
0
LINE
8
BLACK
6
CONTINUOUS
10
1.31233
20
2.0527
11
1.31404
21
2.05525
0
LINE
8
BLACK
6
CONTINUOUS
10
1.31404
20
2.05525
11
1.31659
21
2.05696
0
LINE
8
BLACK
6
CONTINUOUS
10
1.31659
20
2.05696
11
1.31961
21
2.05756
0
LINE
8
BLACK
6
CONTINUOUS
10
1.31961
20
2.05756
11
1.37961
21
2.05756
0
LINE
8
BLACK
6
CONTINUOUS
10
1.37961
20
2.05756
11
1.38262
21
2.05696
0
LINE
8
BLACK
6
CONTINUOUS
10
0.863722
20
2.28767
11
0.866276
21
2.28596
0
LINE
8
BLACK
6
CONTINUOUS
10
0.866276
20
2.28596
11
0.867983
21
2.28341
0
LINE
8
BLACK
6
CONTINUOUS
10
0.867983
20
2.28341
11
0.868583
21
2.28039
0
LINE
8
BLACK
6
CONTINUOUS
10
0.868583
20
2.28039
11
0.868583
21
2.22039
0
LINE
8
BLACK
6
CONTINUOUS
10
0.868583
20
2.22039
11
0.867983
21
2.21738
0
LINE
8
BLACK
6
CONTINUOUS
10
0.867983
20
2.21738
11
0.866276
21
2.21483
0
LINE
8
BLACK
6
CONTINUOUS
10
0.866276
20
2.21483
11
0.863722
21
2.21312
0
LINE
8
BLACK
6
CONTINUOUS
10
0.863722
20
2.21312
11
0.860709
21
2.21252
0
LINE
8
BLACK
6
CONTINUOUS
10
0.860709
20
2.21252
11
0.800709
21
2.21252
0
LINE
8
BLACK
6
CONTINUOUS
10
0.800709
20
2.21252
11
0.797695
21
2.21312
0
LINE
8
BLACK
6
CONTINUOUS
10
0.797695
20
2.21312
11
0.795141
21
2.21483
0
LINE
8
BLACK
6
CONTINUOUS
10
0.795141
20
2.21483
11
0.793434
21
2.21738
0
LINE
8
BLACK
6
CONTINUOUS
10
0.793434
20
2.21738
11
0.792835
21
2.22039
0
LINE
8
BLACK
6
CONTINUOUS
10
0.792835
20
2.22039
11
0.792835
21
2.28039
0
LINE
8
BLACK
6
CONTINUOUS
10
0.792835
20
2.28039
11
0.793434
21
2.28341
0
LINE
8
BLACK
6
CONTINUOUS
10
0.793434
20
2.28341
11
0.795141
21
2.28596
0
LINE
8
BLACK
6
CONTINUOUS
10
0.795141
20
2.28596
11
0.797695
21
2.28767
0
LINE
8
BLACK
6
CONTINUOUS
10
0.797695
20
2.28767
11
0.800709
21
2.28827
0
LINE
8
BLACK
6
CONTINUOUS
10
0.800709
20
2.28827
11
0.860709
21
2.28827
0
LINE
8
BLACK
6
CONTINUOUS
10
0.860709
20
2.28827
11
0.863722
21
2.28767
0
LINE
8
BLACK
6
CONTINUOUS
10
2.01492
20
2.52667
11
2.02877
21
2.52423
0
LINE
8
BLACK
6
CONTINUOUS
10
2.02877
20
2.52423
11
2.04226
21
2.52026
0
LINE
8
BLACK
6
CONTINUOUS
10
2.04226
20
2.52026
11
2.05523
21
2.51481
0
LINE
8
BLACK
6
CONTINUOUS
10
2.05523
20
2.51481
11
2.06751
21
2.50795
0
LINE
8
BLACK
6
CONTINUOUS
10
2.06751
20
2.50795
11
2.07894
21
2.49976
0
LINE
8
BLACK
6
CONTINUOUS
10
2.07894
20
2.49976
11
2.08939
21
2.49035
0
LINE
8
BLACK
6
CONTINUOUS
10
2.08939
20
2.49035
11
2.09873
21
2.47983
0
LINE
8
BLACK
6
CONTINUOUS
10
2.09873
20
2.47983
11
2.10684
21
2.46834
0
LINE
8
BLACK
6
CONTINUOUS
10
2.10684
20
2.46834
11
2.11362
21
2.45601
0
LINE
8
BLACK
6
CONTINUOUS
10
2.11362
20
2.45601
11
2.11898
21
2.44301
0
LINE
8
BLACK
6
CONTINUOUS
10
2.11898
20
2.44301
11
2.12285
21
2.42949
0
LINE
8
BLACK
6
CONTINUOUS
10
2.12285
20
2.42949
11
2.1252
21
2.41562
0
LINE
8
BLACK
6
CONTINUOUS
10
2.1252
20
2.41562
11
2.12598
21
2.40157
0
LINE
8
BLACK
6
CONTINUOUS
10
2.12598
20
2.40157
11
2.12594
21
2.39806
0
LINE
8
BLACK
6
CONTINUOUS
10
2.12594
20
2.39806
11
2.12476
21
2.38404
0
LINE
8
BLACK
6
CONTINUOUS
10
2.12476
20
2.38404
11
2.12203
21
2.37024
0
LINE
8
BLACK
6
CONTINUOUS
10
2.12203
20
2.37024
11
2.11777
21
2.35684
0
LINE
8
BLACK
6
CONTINUOUS
10
2.11777
20
2.35684
11
2.11205
21
2.34399
0
LINE
8
BLACK
6
CONTINUOUS
10
2.11205
20
2.34399
11
2.10493
21
2.33186
0
LINE
8
BLACK
6
CONTINUOUS
10
2.10493
20
2.33186
11
2.09651
21
2.32059
0
LINE
8
BLACK
6
CONTINUOUS
10
2.09651
20
2.32059
11
2.08688
21
2.31034
0
LINE
8
BLACK
6
CONTINUOUS
10
2.08688
20
2.31034
11
2.07617
21
2.30122
0
LINE
8
BLACK
6
CONTINUOUS
10
2.07617
20
2.30122
11
2.06451
21
2.29336
0
LINE
8
BLACK
6
CONTINUOUS
10
2.06451
20
2.29336
11
2.05204
21
2.28684
0
LINE
8
BLACK
6
CONTINUOUS
10
2.05204
20
2.28684
11
2.03893
21
2.28176
0
LINE
8
BLACK
6
CONTINUOUS
10
2.03893
20
2.28176
11
2.02533
21
2.27816
0
LINE
8
BLACK
6
CONTINUOUS
10
2.02533
20
2.27816
11
2.01142
21
2.27611
0
LINE
8
BLACK
6
CONTINUOUS
10
2.01142
20
2.27611
11
1.99736
21
2.27562
0
LINE
8
BLACK
6
CONTINUOUS
10
1.99736
20
2.27562
11
1.98334
21
2.2767
0
LINE
8
BLACK
6
CONTINUOUS
10
1.98334
20
2.2767
11
1.96952
21
2.27933
0
LINE
8
BLACK
6
CONTINUOUS
10
1.96952
20
2.27933
11
1.95609
21
2.28349
0
LINE
8
BLACK
6
CONTINUOUS
10
1.95609
20
2.28349
11
1.9432
21
2.28912
0
LINE
8
BLACK
6
CONTINUOUS
10
1.9432
20
2.28912
11
1.93102
21
2.29616
0
LINE
8
BLACK
6
CONTINUOUS
10
1.93102
20
2.29616
11
1.91969
21
2.3045
0
LINE
8
BLACK
6
CONTINUOUS
10
1.91969
20
2.3045
11
1.90937
21
2.31406
0
LINE
8
BLACK
6
CONTINUOUS
10
1.90937
20
2.31406
11
1.90018
21
2.32471
0
LINE
8
BLACK
6
CONTINUOUS
10
1.90018
20
2.32471
11
1.89224
21
2.33631
0
LINE
8
BLACK
6
CONTINUOUS
10
1.89224
20
2.33631
11
1.88563
21
2.34873
0
LINE
8
BLACK
6
CONTINUOUS
10
1.88563
20
2.34873
11
1.88046
21
2.36181
0
LINE
8
BLACK
6
CONTINUOUS
10
1.88046
20
2.36181
11
1.87677
21
2.37538
0
LINE
8
BLACK
6
CONTINUOUS
10
1.87677
20
2.37538
11
1.87462
21
2.38928
0
LINE
8
BLACK
6
CONTINUOUS
10
1.87462
20
2.38928
11
1.87403
21
2.40333
0
LINE
8
BLACK
6
CONTINUOUS
10
1.87403
20
2.40333
11
1.87501
21
2.41736
0
LINE
8
BLACK
6
CONTINUOUS
10
1.87501
20
2.41736
11
1.87755
21
2.4312
0
LINE
8
BLACK
6
CONTINUOUS
10
1.87755
20
2.4312
11
1.88161
21
2.44466
0
LINE
8
BLACK
6
CONTINUOUS
10
1.88161
20
2.44466
11
1.88715
21
2.45759
0
LINE
8
BLACK
6
CONTINUOUS
10
1.88715
20
2.45759
11
1.8941
21
2.46982
0
LINE
8
BLACK
6
CONTINUOUS
10
1.8941
20
2.46982
11
1.90237
21
2.4812
0
LINE
8
BLACK
6
CONTINUOUS
10
1.90237
20
2.4812
11
1.91185
21
2.49159
0
LINE
8
BLACK
6
CONTINUOUS
10
1.91185
20
2.49159
11
1.92244
21
2.50085
0
LINE
8
BLACK
6
CONTINUOUS
10
1.92244
20
2.50085
11
1.93399
21
2.50888
0
LINE
8
BLACK
6
CONTINUOUS
10
1.93399
20
2.50888
11
1.94636
21
2.51557
0
LINE
8
BLACK
6
CONTINUOUS
10
1.94636
20
2.51557
11
1.9594
21
2.52084
0
LINE
8
BLACK
6
CONTINUOUS
10
1.9594
20
2.52084
11
1.97295
21
2.52462
0
LINE
8
BLACK
6
CONTINUOUS
10
1.97295
20
2.52462
11
1.98683
21
2.52687
0
LINE
8
BLACK
6
CONTINUOUS
10
1.98683
20
2.52687
11
2.00088
21
2.52756
0
LINE
8
BLACK
6
CONTINUOUS
10
2.00088
20
2.52756
11
2.01492
21
2.52667
0
LINE
8
BLACK
6
CONTINUOUS
10
0.014917
20
2.52667
11
0.0287686
21
2.52423
0
LINE
8
BLACK
6
CONTINUOUS
10
0.0287686
20
2.52423
11
0.0422616
21
2.52026
0
LINE
8
BLACK
6
CONTINUOUS
10
0.0422616
20
2.52026
11
0.0552279
21
2.51481
0
LINE
8
BLACK
6
CONTINUOUS
10
0.0552279
20
2.51481
11
0.0675057
21
2.50795
0
LINE
8
BLACK
6
CONTINUOUS
10
0.0675057
20
2.50795
11
0.0789422
21
2.49976
0
LINE
8
BLACK
6
CONTINUOUS
10
0.0789422
20
2.49976
11
0.0893947
21
2.49035
0
LINE
8
BLACK
6
CONTINUOUS
10
0.0893947
20
2.49035
11
0.098733
21
2.47983
0
LINE
8
BLACK
6
CONTINUOUS
10
0.098733
20
2.47983
11
0.106841
21
2.46834
0
LINE
8
BLACK
6
CONTINUOUS
10
0.106841
20
2.46834
11
0.113617
21
2.45601
0
LINE
8
BLACK
6
CONTINUOUS
10
0.113617
20
2.45601
11
0.118977
21
2.44301
0
LINE
8
BLACK
6
CONTINUOUS
10
0.118977
20
2.44301
11
0.122853
21
2.42949
0
LINE
8
BLACK
6
CONTINUOUS
10
0.122853
20
2.42949
11
0.125199
21
2.41562
0
LINE
8
BLACK
6
CONTINUOUS
10
0.125199
20
2.41562
11
0.125984
21
2.40157
0
LINE
8
BLACK
6
CONTINUOUS
10
0.125984
20
2.40157
11
0.125935
21
2.39806
0
LINE
8
BLACK
6
CONTINUOUS
10
0.125935
20
2.39806
11
0.124758
21
2.38404
0
LINE
8
BLACK
6
CONTINUOUS
10
0.124758
20
2.38404
11
0.122026
21
2.37024
0
LINE
8
BLACK
6
CONTINUOUS
10
0.122026
20
2.37024
11
0.117773
21
2.35684
0
LINE
8
BLACK
6
CONTINUOUS
10
0.117773
20
2.35684
11
0.112052
21
2.34399
0
LINE
8
BLACK
6
CONTINUOUS
10
0.112052
20
2.34399
11
0.104935
21
2.33186
0
LINE
8
BLACK
6
CONTINUOUS
10
0.104935
20
2.33186
11
0.0965095
21
2.32059
0
LINE
8
BLACK
6
CONTINUOUS
10
0.0965095
20
2.32059
11
0.0868812
21
2.31034
0
LINE
8
BLACK
6
CONTINUOUS
10
0.0868812
20
2.31034
11
0.07617
21
2.30122
0
LINE
8
BLACK
6
CONTINUOUS
10
0.07617
20
2.30122
11
0.0645093
21
2.29336
0
LINE
8
BLACK
6
CONTINUOUS
10
0.0645093
20
2.29336
11
0.0520446
21
2.28684
0
LINE
8
BLACK
6
CONTINUOUS
10
0.0520446
20
2.28684
11
0.0389313
21
2.28176
0
LINE
8
BLACK
6
CONTINUOUS
10
0.0389313
20
2.28176
11
0.0253326
21
2.27816
0
LINE
8
BLACK
6
CONTINUOUS
10
0.0253326
20
2.27816
11
0.0114183
21
2.27611
0
LINE
8
BLACK
6
CONTINUOUS
10
0.0114183
20
2.27611
11
-0.00263843
21
2.27562
0
LINE
8
BLACK
6
CONTINUOUS
10
-0.00263843
20
2.27562
11
-0.0166622
21
2.2767
0
LINE
8
BLACK
6
CONTINUOUS
10
-0.0166622
20
2.2767
11
-0.0304783
21
2.27933
0
LINE
8
BLACK
6
CONTINUOUS
10
-0.0304783
20
2.27933
11
-0.0439146
21
2.28349
0
LINE
8
BLACK
6
CONTINUOUS
10
-0.0439146
20
2.28349
11
-0.0568035
21
2.28912
0
LINE
8
BLACK
6
CONTINUOUS
10
-0.0568035
20
2.28912
11
-0.0689843
21
2.29616
0
LINE
8
BLACK
6
CONTINUOUS
10
-0.0689843
20
2.29616
11
-0.0803054
21
2.3045
0
LINE
8
BLACK
6
CONTINUOUS
10
-0.0803054
20
2.3045
11
-0.0906255
21
2.31406
0
LINE
8
BLACK
6
CONTINUOUS
10
-0.0906255
20
2.31406
11
-0.099816
21
2.32471
0
LINE
8
BLACK
6
CONTINUOUS
10
-0.099816
20
2.32471
11
-0.107762
21
2.33631
0
LINE
8
BLACK
6
CONTINUOUS
10
-0.107762
20
2.33631
11
-0.114366
21
2.34873
0
LINE
8
BLACK
6
CONTINUOUS
10
-0.114366
20
2.34873
11
-0.119543
21
2.36181
0
LINE
8
BLACK
6
CONTINUOUS
10
-0.119543
20
2.36181
11
-0.123231
21
2.37538
0
LINE
8
BLACK
6
CONTINUOUS
10
-0.123231
20
2.37538
11
-0.125383
21
2.38928
0
LINE
8
BLACK
6
CONTINUOUS
10
-0.125383
20
2.38928
11
-0.125972
21
2.40333
0
LINE
8
BLACK
6
CONTINUOUS
10
-0.125972
20
2.40333
11
-0.124991
21
2.41736
0
LINE
8
BLACK
6
CONTINUOUS
10
-0.124991
20
2.41736
11
-0.122452
21
2.4312
0
LINE
8
BLACK
6
CONTINUOUS
10
-0.122452
20
2.4312
11
-0.118386
21
2.44466
0
LINE
8
BLACK
6
CONTINUOUS
10
-0.118386
20
2.44466
11
-0.112846
21
2.45759
0
LINE
8
BLACK
6
CONTINUOUS
10
-0.112846
20
2.45759
11
-0.105898
21
2.46982
0
LINE
8
BLACK
6
CONTINUOUS
10
-0.105898
20
2.46982
11
-0.0976308
21
2.4812
0
LINE
8
BLACK
6
CONTINUOUS
10
-0.0976308
20
2.4812
11
-0.0881466
21
2.49159
0
LINE
8
BLACK
6
CONTINUOUS
10
-0.0881466
20
2.49159
11
-0.0775637
21
2.50085
0
LINE
8
BLACK
6
CONTINUOUS
10
-0.0775637
20
2.50085
11
-0.066014
21
2.50888
0
LINE
8
BLACK
6
CONTINUOUS
10
-0.066014
20
2.50888
11
-0.0536415
21
2.51557
0
LINE
8
BLACK
6
CONTINUOUS
10
-0.0536415
20
2.51557
11
-0.0406004
21
2.52084
0
LINE
8
BLACK
6
CONTINUOUS
10
-0.0406004
20
2.52084
11
-0.0270533
21
2.52462
0
LINE
8
BLACK
6
CONTINUOUS
10
-0.0270533
20
2.52462
11
-0.0131689
21
2.52687
0
LINE
8
BLACK
6
CONTINUOUS
10
-0.0131689
20
2.52687
11
0.000879528
21
2.52756
0
LINE
8
BLACK
6
CONTINUOUS
10
0.000879528
20
2.52756
11
0.014917
21
2.52667
0
LINE
8
BLACK
6
CONTINUOUS
10
0.603092
20
2.38491
11
0.605646
21
2.38321
0
LINE
8
BLACK
6
CONTINUOUS
10
0.605646
20
2.38321
11
0.607353
21
2.38065
0
LINE
8
BLACK
6
CONTINUOUS
10
0.607353
20
2.38065
11
0.607953
21
2.37764
0
LINE
8
BLACK
6
CONTINUOUS
10
0.607953
20
2.37764
11
0.607953
21
2.31764
0
LINE
8
BLACK
6
CONTINUOUS
10
0.607953
20
2.31764
11
0.607353
21
2.31462
0
LINE
8
BLACK
6
CONTINUOUS
10
0.607353
20
2.31462
11
0.605646
21
2.31207
0
LINE
8
BLACK
6
CONTINUOUS
10
0.605646
20
2.31207
11
0.603092
21
2.31036
0
LINE
8
BLACK
6
CONTINUOUS
10
0.603092
20
2.31036
11
0.600079
21
2.30976
0
LINE
8
BLACK
6
CONTINUOUS
10
0.600079
20
2.30976
11
0.540079
21
2.30976
0
LINE
8
BLACK
6
CONTINUOUS
10
0.540079
20
2.30976
11
0.537065
21
2.31036
0
LINE
8
BLACK
6
CONTINUOUS
10
0.537065
20
2.31036
11
0.534511
21
2.31207
0
LINE
8
BLACK
6
CONTINUOUS
10
0.534511
20
2.31207
11
0.532804
21
2.31462
0
LINE
8
BLACK
6
CONTINUOUS
10
0.532804
20
2.31462
11
0.532205
21
2.31764
0
LINE
8
BLACK
6
CONTINUOUS
10
0.532205
20
2.31764
11
0.532205
21
2.37764
0
LINE
8
BLACK
6
CONTINUOUS
10
0.532205
20
2.37764
11
0.532804
21
2.38065
0
LINE
8
BLACK
6
CONTINUOUS
10
0.532804
20
2.38065
11
0.534511
21
2.38321
0
LINE
8
BLACK
6
CONTINUOUS
10
0.534511
20
2.38321
11
0.537065
21
2.38491
0
LINE
8
BLACK
6
CONTINUOUS
10
0.537065
20
2.38491
11
0.540079
21
2.38551
0
LINE
8
BLACK
6
CONTINUOUS
10
0.540079
20
2.38551
11
0.600079
21
2.38551
0
LINE
8
BLACK
6
CONTINUOUS
10
0.600079
20
2.38551
11
0.603092
21
2.38491
0
LINE
8
BLACK
6
CONTINUOUS
10
1.20388
20
2.38491
11
1.20643
21
2.38321
0
LINE
8
BLACK
6
CONTINUOUS
10
1.20643
20
2.38321
11
1.20814
21
2.38065
0
LINE
8
BLACK
6
CONTINUOUS
10
1.20814
20
2.38065
11
1.20874
21
2.37764
0
LINE
8
BLACK
6
CONTINUOUS
10
1.20874
20
2.37764
11
1.20874
21
2.31764
0
LINE
8
BLACK
6
CONTINUOUS
10
1.20874
20
2.31764
11
1.20814
21
2.31462
0
LINE
8
BLACK
6
CONTINUOUS
10
1.20814
20
2.31462
11
1.20643
21
2.31207
0
LINE
8
BLACK
6
CONTINUOUS
10
1.20643
20
2.31207
11
1.20388
21
2.31036
0
LINE
8
BLACK
6
CONTINUOUS
10
1.20388
20
2.31036
11
1.20087
21
2.30976
0
LINE
8
BLACK
6
CONTINUOUS
10
1.20087
20
2.30976
11
1.14087
21
2.30976
0
LINE
8
BLACK
6
CONTINUOUS
10
1.14087
20
2.30976
11
1.13785
21
2.31036
0
LINE
8
BLACK
6
CONTINUOUS
10
1.13785
20
2.31036
11
1.1353
21
2.31207
0
LINE
8
BLACK
6
CONTINUOUS
10
1.1353
20
2.31207
11
1.13359
21
2.31462
0
LINE
8
BLACK
6
CONTINUOUS
10
1.13359
20
2.31462
11
1.13299
21
2.31764
0
LINE
8
BLACK
6
CONTINUOUS
10
1.13299
20
2.31764
11
1.13299
21
2.37764
0
LINE
8
BLACK
6
CONTINUOUS
10
1.13299
20
2.37764
11
1.13359
21
2.38065
0
LINE
8
BLACK
6
CONTINUOUS
10
1.13359
20
2.38065
11
1.1353
21
2.38321
0
LINE
8
BLACK
6
CONTINUOUS
10
1.1353
20
2.38321
11
1.13785
21
2.38491
0
LINE
8
BLACK
6
CONTINUOUS
10
1.13785
20
2.38491
11
1.14087
21
2.38551
0
LINE
8
BLACK
6
CONTINUOUS
10
1.14087
20
2.38551
11
1.20087
21
2.38551
0
LINE
8
BLACK
6
CONTINUOUS
10
1.20087
20
2.38551
11
1.20388
21
2.38491
0
LINE
8
BLACK
6
CONTINUOUS
10
1.10388
20
2.38491
11
1.10643
21
2.38321
0
LINE
8
BLACK
6
CONTINUOUS
10
1.10643
20
2.38321
11
1.10814
21
2.38065
0
LINE
8
BLACK
6
CONTINUOUS
10
1.10814
20
2.38065
11
1.10874
21
2.37764
0
LINE
8
BLACK
6
CONTINUOUS
10
1.10874
20
2.37764
11
1.10874
21
2.31764
0
LINE
8
BLACK
6
CONTINUOUS
10
1.10874
20
2.31764
11
1.10814
21
2.31462
0
LINE
8
BLACK
6
CONTINUOUS
10
1.10814
20
2.31462
11
1.10643
21
2.31207
0
LINE
8
BLACK
6
CONTINUOUS
10
1.10643
20
2.31207
11
1.10388
21
2.31036
0
LINE
8
BLACK
6
CONTINUOUS
10
1.10388
20
2.31036
11
1.10087
21
2.30976
0
LINE
8
BLACK
6
CONTINUOUS
10
1.10087
20
2.30976
11
1.04087
21
2.30976
0
LINE
8
BLACK
6
CONTINUOUS
10
1.04087
20
2.30976
11
1.03785
21
2.31036
0
LINE
8
BLACK
6
CONTINUOUS
10
1.03785
20
2.31036
11
1.0353
21
2.31207
0
LINE
8
BLACK
6
CONTINUOUS
10
1.0353
20
2.31207
11
1.03359
21
2.31462
0
LINE
8
BLACK
6
CONTINUOUS
10
1.03359
20
2.31462
11
1.03299
21
2.31764
0
LINE
8
BLACK
6
CONTINUOUS
10
1.03299
20
2.31764
11
1.03299
21
2.37764
0
LINE
8
BLACK
6
CONTINUOUS
10
1.03299
20
2.37764
11
1.03359
21
2.38065
0
LINE
8
BLACK
6
CONTINUOUS
10
1.03359
20
2.38065
11
1.0353
21
2.38321
0
LINE
8
BLACK
6
CONTINUOUS
10
1.0353
20
2.38321
11
1.03785
21
2.38491
0
LINE
8
BLACK
6
CONTINUOUS
10
1.03785
20
2.38491
11
1.04087
21
2.38551
0
LINE
8
BLACK
6
CONTINUOUS
10
1.04087
20
2.38551
11
1.10087
21
2.38551
0
LINE
8
BLACK
6
CONTINUOUS
10
1.10087
20
2.38551
11
1.10388
21
2.38491
0
LINE
8
BLACK
6
CONTINUOUS
10
1.00388
20
2.38491
11
1.00643
21
2.38321
0
LINE
8
BLACK
6
CONTINUOUS
10
1.00643
20
2.38321
11
1.00814
21
2.38065
0
LINE
8
BLACK
6
CONTINUOUS
10
1.00814
20
2.38065
11
1.00874
21
2.37764
0
LINE
8
BLACK
6
CONTINUOUS
10
1.00874
20
2.37764
11
1.00874
21
2.31764
0
LINE
8
BLACK
6
CONTINUOUS
10
1.00874
20
2.31764
11
1.00814
21
2.31462
0
LINE
8
BLACK
6
CONTINUOUS
10
1.00814
20
2.31462
11
1.00643
21
2.31207
0
LINE
8
BLACK
6
CONTINUOUS
10
1.00643
20
2.31207
11
1.00388
21
2.31036
0
LINE
8
BLACK
6
CONTINUOUS
10
1.00388
20
2.31036
11
1.00087
21
2.30976
0
LINE
8
BLACK
6
CONTINUOUS
10
1.00087
20
2.30976
11
0.940866
21
2.30976
0
LINE
8
BLACK
6
CONTINUOUS
10
0.940866
20
2.30976
11
0.937853
21
2.31036
0
LINE
8
BLACK
6
CONTINUOUS
10
0.937853
20
2.31036
11
0.935298
21
2.31207
0
LINE
8
BLACK
6
CONTINUOUS
10
0.935298
20
2.31207
11
0.933591
21
2.31462
0
LINE
8
BLACK
6
CONTINUOUS
10
0.933591
20
2.31462
11
0.932992
21
2.31764
0
LINE
8
BLACK
6
CONTINUOUS
10
0.932992
20
2.31764
11
0.932992
21
2.37764
0
LINE
8
BLACK
6
CONTINUOUS
10
0.932992
20
2.37764
11
0.933591
21
2.38065
0
LINE
8
BLACK
6
CONTINUOUS
10
0.933591
20
2.38065
11
0.935298
21
2.38321
0
LINE
8
BLACK
6
CONTINUOUS
10
0.935298
20
2.38321
11
0.937853
21
2.38491
0
LINE
8
BLACK
6
CONTINUOUS
10
0.937853
20
2.38491
11
0.940866
21
2.38551
0
LINE
8
BLACK
6
CONTINUOUS
10
0.940866
20
2.38551
11
1.00087
21
2.38551
0
LINE
8
BLACK
6
CONTINUOUS
10
1.00087
20
2.38551
11
1.00388
21
2.38491
0
LINE
8
BLACK
6
CONTINUOUS
10
0.703092
20
2.38491
11
0.705646
21
2.38321
0
LINE
8
BLACK
6
CONTINUOUS
10
0.705646
20
2.38321
11
0.707353
21
2.38065
0
LINE
8
BLACK
6
CONTINUOUS
10
0.707353
20
2.38065
11
0.707953
21
2.37764
0
LINE
8
BLACK
6
CONTINUOUS
10
0.707953
20
2.37764
11
0.707953
21
2.31764
0
LINE
8
BLACK
6
CONTINUOUS
10
0.707953
20
2.31764
11
0.707353
21
2.31462
0
LINE
8
BLACK
6
CONTINUOUS
10
0.707353
20
2.31462
11
0.705646
21
2.31207
0
LINE
8
BLACK
6
CONTINUOUS
10
0.705646
20
2.31207
11
0.703092
21
2.31036
0
LINE
8
BLACK
6
CONTINUOUS
10
0.703092
20
2.31036
11
0.700079
21
2.30976
0
LINE
8
BLACK
6
CONTINUOUS
10
0.700079
20
2.30976
11
0.640079
21
2.30976
0
LINE
8
BLACK
6
CONTINUOUS
10
0.640079
20
2.30976
11
0.637065
21
2.31036
0
LINE
8
BLACK
6
CONTINUOUS
10
0.637065
20
2.31036
11
0.634511
21
2.31207
0
LINE
8
BLACK
6
CONTINUOUS
10
0.634511
20
2.31207
11
0.632804
21
2.31462
0
LINE
8
BLACK
6
CONTINUOUS
10
0.632804
20
2.31462
11
0.632205
21
2.31764
0
LINE
8
BLACK
6
CONTINUOUS
10
0.632205
20
2.31764
11
0.632205
21
2.37764
0
LINE
8
BLACK
6
CONTINUOUS
10
0.632205
20
2.37764
11
0.632804
21
2.38065
0
LINE
8
BLACK
6
CONTINUOUS
10
0.632804
20
2.38065
11
0.634511
21
2.38321
0
LINE
8
BLACK
6
CONTINUOUS
10
0.634511
20
2.38321
11
0.637065
21
2.38491
0
LINE
8
BLACK
6
CONTINUOUS
10
0.637065
20
2.38491
11
0.640079
21
2.38551
0
LINE
8
BLACK
6
CONTINUOUS
10
0.640079
20
2.38551
11
0.700079
21
2.38551
0
LINE
8
BLACK
6
CONTINUOUS
10
0.700079
20
2.38551
11
0.703092
21
2.38491
0
LINE
8
BLACK
6
CONTINUOUS
10
0.463722
20
2.38491
11
0.466276
21
2.38321
0
LINE
8
BLACK
6
CONTINUOUS
10
0.466276
20
2.38321
11
0.467983
21
2.38065
0
LINE
8
BLACK
6
CONTINUOUS
10
0.467983
20
2.38065
11
0.468583
21
2.37764
0
LINE
8
BLACK
6
CONTINUOUS
10
0.468583
20
2.37764
11
0.468583
21
2.31764
0
LINE
8
BLACK
6
CONTINUOUS
10
0.468583
20
2.31764
11
0.467983
21
2.31462
0
LINE
8
BLACK
6
CONTINUOUS
10
0.467983
20
2.31462
11
0.466276
21
2.31207
0
LINE
8
BLACK
6
CONTINUOUS
10
0.466276
20
2.31207
11
0.463722
21
2.31036
0
LINE
8
BLACK
6
CONTINUOUS
10
0.463722
20
2.31036
11
0.460709
21
2.30976
0
LINE
8
BLACK
6
CONTINUOUS
10
0.460709
20
2.30976
11
0.400709
21
2.30976
0
LINE
8
BLACK
6
CONTINUOUS
10
0.400709
20
2.30976
11
0.397695
21
2.31036
0
LINE
8
BLACK
6
CONTINUOUS
10
0.397695
20
2.31036
11
0.395141
21
2.31207
0
LINE
8
BLACK
6
CONTINUOUS
10
0.395141
20
2.31207
11
0.393434
21
2.31462
0
LINE
8
BLACK
6
CONTINUOUS
10
0.393434
20
2.31462
11
0.392835
21
2.31764
0
LINE
8
BLACK
6
CONTINUOUS
10
0.392835
20
2.31764
11
0.392835
21
2.37764
0
LINE
8
BLACK
6
CONTINUOUS
10
0.392835
20
2.37764
11
0.393434
21
2.38065
0
LINE
8
BLACK
6
CONTINUOUS
10
0.393434
20
2.38065
11
0.395141
21
2.38321
0
LINE
8
BLACK
6
CONTINUOUS
10
0.395141
20
2.38321
11
0.397695
21
2.38491
0
LINE
8
BLACK
6
CONTINUOUS
10
0.397695
20
2.38491
11
0.400709
21
2.38551
0
LINE
8
BLACK
6
CONTINUOUS
10
0.400709
20
2.38551
11
0.460709
21
2.38551
0
LINE
8
BLACK
6
CONTINUOUS
10
0.460709
20
2.38551
11
0.463722
21
2.38491
0
LINE
8
BLACK
6
CONTINUOUS
10
0.363722
20
2.38491
11
0.366276
21
2.38321
0
LINE
8
BLACK
6
CONTINUOUS
10
0.366276
20
2.38321
11
0.367983
21
2.38065
0
LINE
8
BLACK
6
CONTINUOUS
10
0.367983
20
2.38065
11
0.368583
21
2.37764
0
LINE
8
BLACK
6
CONTINUOUS
10
0.368583
20
2.37764
11
0.368583
21
2.31764
0
LINE
8
BLACK
6
CONTINUOUS
10
0.368583
20
2.31764
11
0.367983
21
2.31462
0
LINE
8
BLACK
6
CONTINUOUS
10
0.367983
20
2.31462
11
0.366276
21
2.31207
0
LINE
8
BLACK
6
CONTINUOUS
10
0.366276
20
2.31207
11
0.363722
21
2.31036
0
LINE
8
BLACK
6
CONTINUOUS
10
0.363722
20
2.31036
11
0.360709
21
2.30976
0
LINE
8
BLACK
6
CONTINUOUS
10
0.360709
20
2.30976
11
0.300709
21
2.30976
0
LINE
8
BLACK
6
CONTINUOUS
10
0.300709
20
2.30976
11
0.297695
21
2.31036
0
LINE
8
BLACK
6
CONTINUOUS
10
0.297695
20
2.31036
11
0.295141
21
2.31207
0
LINE
8
BLACK
6
CONTINUOUS
10
0.295141
20
2.31207
11
0.293434
21
2.31462
0
LINE
8
BLACK
6
CONTINUOUS
10
0.293434
20
2.31462
11
0.292835
21
2.31764
0
LINE
8
BLACK
6
CONTINUOUS
10
0.292835
20
2.31764
11
0.292835
21
2.37764
0
LINE
8
BLACK
6
CONTINUOUS
10
0.292835
20
2.37764
11
0.293434
21
2.38065
0
LINE
8
BLACK
6
CONTINUOUS
10
0.293434
20
2.38065
11
0.295141
21
2.38321
0
LINE
8
BLACK
6
CONTINUOUS
10
0.295141
20
2.38321
11
0.297695
21
2.38491
0
LINE
8
BLACK
6
CONTINUOUS
10
0.297695
20
2.38491
11
0.300709
21
2.38551
0
LINE
8
BLACK
6
CONTINUOUS
10
0.300709
20
2.38551
11
0.360709
21
2.38551
0
LINE
8
BLACK
6
CONTINUOUS
10
0.360709
20
2.38551
11
0.363722
21
2.38491
0
LINE
8
BLACK
6
CONTINUOUS
10
1.7527
20
2.38491
11
1.75525
21
2.38321
0
LINE
8
BLACK
6
CONTINUOUS
10
1.75525
20
2.38321
11
1.75696
21
2.38065
0
LINE
8
BLACK
6
CONTINUOUS
10
1.75696
20
2.38065
11
1.75756
21
2.37764
0
LINE
8
BLACK
6
CONTINUOUS
10
1.75756
20
2.37764
11
1.75756
21
2.31764
0
LINE
8
BLACK
6
CONTINUOUS
10
1.75756
20
2.31764
11
1.75696
21
2.31462
0
LINE
8
BLACK
6
CONTINUOUS
10
1.75696
20
2.31462
11
1.75525
21
2.31207
0
LINE
8
BLACK
6
CONTINUOUS
10
1.75525
20
2.31207
11
1.7527
21
2.31036
0
LINE
8
BLACK
6
CONTINUOUS
10
1.7527
20
2.31036
11
1.74969
21
2.30976
0
LINE
8
BLACK
6
CONTINUOUS
10
1.74969
20
2.30976
11
1.68969
21
2.30976
0
LINE
8
BLACK
6
CONTINUOUS
10
1.68969
20
2.30976
11
1.68667
21
2.31036
0
LINE
8
BLACK
6
CONTINUOUS
10
1.68667
20
2.31036
11
1.68412
21
2.31207
0
LINE
8
BLACK
6
CONTINUOUS
10
1.68412
20
2.31207
11
1.68241
21
2.31462
0
LINE
8
BLACK
6
CONTINUOUS
10
1.68241
20
2.31462
11
1.68181
21
2.31764
0
LINE
8
BLACK
6
CONTINUOUS
10
1.68181
20
2.31764
11
1.68181
21
2.37764
0
LINE
8
BLACK
6
CONTINUOUS
10
1.68181
20
2.37764
11
1.68241
21
2.38065
0
LINE
8
BLACK
6
CONTINUOUS
10
1.68241
20
2.38065
11
1.68412
21
2.38321
0
LINE
8
BLACK
6
CONTINUOUS
10
1.68412
20
2.38321
11
1.68667
21
2.38491
0
LINE
8
BLACK
6
CONTINUOUS
10
1.68667
20
2.38491
11
1.68969
21
2.38551
0
LINE
8
BLACK
6
CONTINUOUS
10
1.68969
20
2.38551
11
1.74969
21
2.38551
0
LINE
8
BLACK
6
CONTINUOUS
10
1.74969
20
2.38551
11
1.7527
21
2.38491
0
LINE
8
BLACK
6
CONTINUOUS
10
0.263722
20
2.38491
11
0.266276
21
2.38321
0
LINE
8
BLACK
6
CONTINUOUS
10
0.266276
20
2.38321
11
0.267983
21
2.38065
0
LINE
8
BLACK
6
CONTINUOUS
10
0.267983
20
2.38065
11
0.268583
21
2.37764
0
LINE
8
BLACK
6
CONTINUOUS
10
0.268583
20
2.37764
11
0.268583
21
2.31764
0
LINE
8
BLACK
6
CONTINUOUS
10
0.268583
20
2.31764
11
0.267983
21
2.31462
0
LINE
8
BLACK
6
CONTINUOUS
10
0.267983
20
2.31462
11
0.266276
21
2.31207
0
LINE
8
BLACK
6
CONTINUOUS
10
0.266276
20
2.31207
11
0.263722
21
2.31036
0
LINE
8
BLACK
6
CONTINUOUS
10
0.263722
20
2.31036
11
0.260709
21
2.30976
0
LINE
8
BLACK
6
CONTINUOUS
10
0.260709
20
2.30976
11
0.200709
21
2.30976
0
LINE
8
BLACK
6
CONTINUOUS
10
0.200709
20
2.30976
11
0.197695
21
2.31036
0
LINE
8
BLACK
6
CONTINUOUS
10
0.197695
20
2.31036
11
0.195141
21
2.31207
0
LINE
8
BLACK
6
CONTINUOUS
10
0.195141
20
2.31207
11
0.193434
21
2.31462
0
LINE
8
BLACK
6
CONTINUOUS
10
0.193434
20
2.31462
11
0.192835
21
2.31764
0
LINE
8
BLACK
6
CONTINUOUS
10
0.192835
20
2.31764
11
0.192835
21
2.37764
0
LINE
8
BLACK
6
CONTINUOUS
10
0.192835
20
2.37764
11
0.193434
21
2.38065
0
LINE
8
BLACK
6
CONTINUOUS
10
0.193434
20
2.38065
11
0.195141
21
2.38321
0
LINE
8
BLACK
6
CONTINUOUS
10
0.195141
20
2.38321
11
0.197695
21
2.38491
0
LINE
8
BLACK
6
CONTINUOUS
10
0.197695
20
2.38491
11
0.200709
21
2.38551
0
LINE
8
BLACK
6
CONTINUOUS
10
0.200709
20
2.38551
11
0.260709
21
2.38551
0
LINE
8
BLACK
6
CONTINUOUS
10
0.260709
20
2.38551
11
0.263722
21
2.38491
0
LINE
8
BLACK
6
CONTINUOUS
10
1.6527
20
2.38491
11
1.65525
21
2.38321
0
LINE
8
BLACK
6
CONTINUOUS
10
1.65525
20
2.38321
11
1.65696
21
2.38065
0
LINE
8
BLACK
6
CONTINUOUS
10
1.65696
20
2.38065
11
1.65756
21
2.37764
0
LINE
8
BLACK
6
CONTINUOUS
10
1.65756
20
2.37764
11
1.65756
21
2.31764
0
LINE
8
BLACK
6
CONTINUOUS
10
1.65756
20
2.31764
11
1.65696
21
2.31462
0
LINE
8
BLACK
6
CONTINUOUS
10
1.65696
20
2.31462
11
1.65525
21
2.31207
0
LINE
8
BLACK
6
CONTINUOUS
10
1.65525
20
2.31207
11
1.6527
21
2.31036
0
LINE
8
BLACK
6
CONTINUOUS
10
1.6527
20
2.31036
11
1.64969
21
2.30976
0
LINE
8
BLACK
6
CONTINUOUS
10
1.64969
20
2.30976
11
1.58969
21
2.30976
0
LINE
8
BLACK
6
CONTINUOUS
10
1.58969
20
2.30976
11
1.58667
21
2.31036
0
LINE
8
BLACK
6
CONTINUOUS
10
1.58667
20
2.31036
11
1.58412
21
2.31207
0
LINE
8
BLACK
6
CONTINUOUS
10
1.58412
20
2.31207
11
1.58241
21
2.31462
0
LINE
8
BLACK
6
CONTINUOUS
10
1.58241
20
2.31462
11
1.58181
21
2.31764
0
LINE
8
BLACK
6
CONTINUOUS
10
1.58181
20
2.31764
11
1.58181
21
2.37764
0
LINE
8
BLACK
6
CONTINUOUS
10
1.58181
20
2.37764
11
1.58241
21
2.38065
0
LINE
8
BLACK
6
CONTINUOUS
10
1.58241
20
2.38065
11
1.58412
21
2.38321
0
LINE
8
BLACK
6
CONTINUOUS
10
1.58412
20
2.38321
11
1.58667
21
2.38491
0
LINE
8
BLACK
6
CONTINUOUS
10
1.58667
20
2.38491
11
1.58969
21
2.38551
0
LINE
8
BLACK
6
CONTINUOUS
10
1.58969
20
2.38551
11
1.64969
21
2.38551
0
LINE
8
BLACK
6
CONTINUOUS
10
1.64969
20
2.38551
11
1.6527
21
2.38491
0
LINE
8
BLACK
6
CONTINUOUS
10
1.3527
20
2.38491
11
1.35525
21
2.38321
0
LINE
8
BLACK
6
CONTINUOUS
10
1.35525
20
2.38321
11
1.35696
21
2.38065
0
LINE
8
BLACK
6
CONTINUOUS
10
1.35696
20
2.38065
11
1.35756
21
2.37764
0
LINE
8
BLACK
6
CONTINUOUS
10
1.35756
20
2.37764
11
1.35756
21
2.31764
0
LINE
8
BLACK
6
CONTINUOUS
10
1.35756
20
2.31764
11
1.35696
21
2.31462
0
LINE
8
BLACK
6
CONTINUOUS
10
1.35696
20
2.31462
11
1.35525
21
2.31207
0
LINE
8
BLACK
6
CONTINUOUS
10
1.35525
20
2.31207
11
1.3527
21
2.31036
0
LINE
8
BLACK
6
CONTINUOUS
10
1.3527
20
2.31036
11
1.34969
21
2.30976
0
LINE
8
BLACK
6
CONTINUOUS
10
1.34969
20
2.30976
11
1.28969
21
2.30976
0
LINE
8
BLACK
6
CONTINUOUS
10
1.28969
20
2.30976
11
1.28667
21
2.31036
0
LINE
8
BLACK
6
CONTINUOUS
10
1.28667
20
2.31036
11
1.28412
21
2.31207
0
LINE
8
BLACK
6
CONTINUOUS
10
1.28412
20
2.31207
11
1.28241
21
2.31462
0
LINE
8
BLACK
6
CONTINUOUS
10
1.28241
20
2.31462
11
1.28181
21
2.31764
0
LINE
8
BLACK
6
CONTINUOUS
10
1.28181
20
2.31764
11
1.28181
21
2.37764
0
LINE
8
BLACK
6
CONTINUOUS
10
1.28181
20
2.37764
11
1.28241
21
2.38065
0
LINE
8
BLACK
6
CONTINUOUS
10
1.28241
20
2.38065
11
1.28412
21
2.38321
0
LINE
8
BLACK
6
CONTINUOUS
10
1.28412
20
2.38321
11
1.28667
21
2.38491
0
LINE
8
BLACK
6
CONTINUOUS
10
1.28667
20
2.38491
11
1.28969
21
2.38551
0
LINE
8
BLACK
6
CONTINUOUS
10
1.28969
20
2.38551
11
1.34969
21
2.38551
0
LINE
8
BLACK
6
CONTINUOUS
10
1.34969
20
2.38551
11
1.3527
21
2.38491
0
LINE
8
BLACK
6
CONTINUOUS
10
1.5527
20
2.38491
11
1.55525
21
2.38321
0
LINE
8
BLACK
6
CONTINUOUS
10
1.55525
20
2.38321
11
1.55696
21
2.38065
0
LINE
8
BLACK
6
CONTINUOUS
10
1.55696
20
2.38065
11
1.55756
21
2.37764
0
LINE
8
BLACK
6
CONTINUOUS
10
1.55756
20
2.37764
11
1.55756
21
2.31764
0
LINE
8
BLACK
6
CONTINUOUS
10
1.55756
20
2.31764
11
1.55696
21
2.31462
0
LINE
8
BLACK
6
CONTINUOUS
10
1.55696
20
2.31462
11
1.55525
21
2.31207
0
LINE
8
BLACK
6
CONTINUOUS
10
1.55525
20
2.31207
11
1.5527
21
2.31036
0
LINE
8
BLACK
6
CONTINUOUS
10
1.5527
20
2.31036
11
1.54969
21
2.30976
0
LINE
8
BLACK
6
CONTINUOUS
10
1.54969
20
2.30976
11
1.48969
21
2.30976
0
LINE
8
BLACK
6
CONTINUOUS
10
1.48969
20
2.30976
11
1.48667
21
2.31036
0
LINE
8
BLACK
6
CONTINUOUS
10
1.48667
20
2.31036
11
1.48412
21
2.31207
0
LINE
8
BLACK
6
CONTINUOUS
10
1.48412
20
2.31207
11
1.48241
21
2.31462
0
LINE
8
BLACK
6
CONTINUOUS
10
1.48241
20
2.31462
11
1.48181
21
2.31764
0
LINE
8
BLACK
6
CONTINUOUS
10
1.48181
20
2.31764
11
1.48181
21
2.37764
0
LINE
8
BLACK
6
CONTINUOUS
10
1.48181
20
2.37764
11
1.48241
21
2.38065
0
LINE
8
BLACK
6
CONTINUOUS
10
1.48241
20
2.38065
11
1.48412
21
2.38321
0
LINE
8
BLACK
6
CONTINUOUS
10
1.48412
20
2.38321
11
1.48667
21
2.38491
0
LINE
8
BLACK
6
CONTINUOUS
10
1.48667
20
2.38491
11
1.48969
21
2.38551
0
LINE
8
BLACK
6
CONTINUOUS
10
1.48969
20
2.38551
11
1.54969
21
2.38551
0
LINE
8
BLACK
6
CONTINUOUS
10
1.54969
20
2.38551
11
1.5527
21
2.38491
0
LINE
8
BLACK
6
CONTINUOUS
10
1.4527
20
2.38491
11
1.45525
21
2.38321
0
LINE
8
BLACK
6
CONTINUOUS
10
1.45525
20
2.38321
11
1.45696
21
2.38065
0
LINE
8
BLACK
6
CONTINUOUS
10
1.45696
20
2.38065
11
1.45756
21
2.37764
0
LINE
8
BLACK
6
CONTINUOUS
10
1.45756
20
2.37764
11
1.45756
21
2.31764
0
LINE
8
BLACK
6
CONTINUOUS
10
1.45756
20
2.31764
11
1.45696
21
2.31462
0
LINE
8
BLACK
6
CONTINUOUS
10
1.45696
20
2.31462
11
1.45525
21
2.31207
0
LINE
8
BLACK
6
CONTINUOUS
10
1.45525
20
2.31207
11
1.4527
21
2.31036
0
LINE
8
BLACK
6
CONTINUOUS
10
1.4527
20
2.31036
11
1.44969
21
2.30976
0
LINE
8
BLACK
6
CONTINUOUS
10
1.44969
20
2.30976
11
1.38969
21
2.30976
0
LINE
8
BLACK
6
CONTINUOUS
10
1.38969
20
2.30976
11
1.38667
21
2.31036
0
LINE
8
BLACK
6
CONTINUOUS
10
1.38667
20
2.31036
11
1.38412
21
2.31207
0
LINE
8
BLACK
6
CONTINUOUS
10
1.38412
20
2.31207
11
1.38241
21
2.31462
0
LINE
8
BLACK
6
CONTINUOUS
10
1.38241
20
2.31462
11
1.38181
21
2.31764
0
LINE
8
BLACK
6
CONTINUOUS
10
1.38181
20
2.31764
11
1.38181
21
2.37764
0
LINE
8
BLACK
6
CONTINUOUS
10
1.38181
20
2.37764
11
1.38241
21
2.38065
0
LINE
8
BLACK
6
CONTINUOUS
10
1.38241
20
2.38065
11
1.38412
21
2.38321
0
LINE
8
BLACK
6
CONTINUOUS
10
1.38412
20
2.38321
11
1.38667
21
2.38491
0
LINE
8
BLACK
6
CONTINUOUS
10
1.38667
20
2.38491
11
1.38969
21
2.38551
0
LINE
8
BLACK
6
CONTINUOUS
10
1.38969
20
2.38551
11
1.44969
21
2.38551
0
LINE
8
BLACK
6
CONTINUOUS
10
1.44969
20
2.38551
11
1.4527
21
2.38491
0
LINE
8
BLACK
6
CONTINUOUS
10
0.863722
20
2.38767
11
0.866276
21
2.38596
0
LINE
8
BLACK
6
CONTINUOUS
10
0.866276
20
2.38596
11
0.867983
21
2.38341
0
LINE
8
BLACK
6
CONTINUOUS
10
0.867983
20
2.38341
11
0.868583
21
2.38039
0
LINE
8
BLACK
6
CONTINUOUS
10
0.868583
20
2.38039
11
0.868583
21
2.32039
0
LINE
8
BLACK
6
CONTINUOUS
10
0.868583
20
2.32039
11
0.867983
21
2.31738
0
LINE
8
BLACK
6
CONTINUOUS
10
0.867983
20
2.31738
11
0.866276
21
2.31483
0
LINE
8
BLACK
6
CONTINUOUS
10
0.866276
20
2.31483
11
0.863722
21
2.31312
0
LINE
8
BLACK
6
CONTINUOUS
10
0.863722
20
2.31312
11
0.860709
21
2.31252
0
LINE
8
BLACK
6
CONTINUOUS
10
0.860709
20
2.31252
11
0.800709
21
2.31252
0
LINE
8
BLACK
6
CONTINUOUS
10
0.800709
20
2.31252
11
0.797695
21
2.31312
0
LINE
8
BLACK
6
CONTINUOUS
10
0.797695
20
2.31312
11
0.795141
21
2.31483
0
LINE
8
BLACK
6
CONTINUOUS
10
0.795141
20
2.31483
11
0.793434
21
2.31738
0
LINE
8
BLACK
6
CONTINUOUS
10
0.793434
20
2.31738
11
0.792835
21
2.32039
0
LINE
8
BLACK
6
CONTINUOUS
10
0.792835
20
2.32039
11
0.792835
21
2.38039
0
LINE
8
BLACK
6
CONTINUOUS
10
0.792835
20
2.38039
11
0.793434
21
2.38341
0
LINE
8
BLACK
6
CONTINUOUS
10
0.793434
20
2.38341
11
0.795141
21
2.38596
0
LINE
8
BLACK
6
CONTINUOUS
10
0.795141
20
2.38596
11
0.797695
21
2.38767
0
LINE
8
BLACK
6
CONTINUOUS
10
0.797695
20
2.38767
11
0.800709
21
2.38827
0
LINE
8
BLACK
6
CONTINUOUS
10
0.800709
20
2.38827
11
0.860709
21
2.38827
0
LINE
8
BLACK
6
CONTINUOUS
10
0.860709
20
2.38827
11
0.863722
21
2.38767
0
LINE
8
BLACK
6
CONTINUOUS
10
1.4527
20
2.48491
11
1.45525
21
2.48321
0
LINE
8
BLACK
6
CONTINUOUS
10
1.45525
20
2.48321
11
1.45696
21
2.48065
0
LINE
8
BLACK
6
CONTINUOUS
10
1.45696
20
2.48065
11
1.45756
21
2.47764
0
LINE
8
BLACK
6
CONTINUOUS
10
1.45756
20
2.47764
11
1.45756
21
2.41764
0
LINE
8
BLACK
6
CONTINUOUS
10
1.45756
20
2.41764
11
1.45696
21
2.41462
0
LINE
8
BLACK
6
CONTINUOUS
10
1.45696
20
2.41462
11
1.45525
21
2.41207
0
LINE
8
BLACK
6
CONTINUOUS
10
1.45525
20
2.41207
11
1.4527
21
2.41036
0
LINE
8
BLACK
6
CONTINUOUS
10
1.4527
20
2.41036
11
1.44969
21
2.40976
0
LINE
8
BLACK
6
CONTINUOUS
10
1.44969
20
2.40976
11
1.38969
21
2.40976
0
LINE
8
BLACK
6
CONTINUOUS
10
1.38969
20
2.40976
11
1.38667
21
2.41036
0
LINE
8
BLACK
6
CONTINUOUS
10
1.38667
20
2.41036
11
1.38412
21
2.41207
0
LINE
8
BLACK
6
CONTINUOUS
10
1.38412
20
2.41207
11
1.38241
21
2.41462
0
LINE
8
BLACK
6
CONTINUOUS
10
1.38241
20
2.41462
11
1.38181
21
2.41764
0
LINE
8
BLACK
6
CONTINUOUS
10
1.38181
20
2.41764
11
1.38181
21
2.47764
0
LINE
8
BLACK
6
CONTINUOUS
10
1.38181
20
2.47764
11
1.38241
21
2.48065
0
LINE
8
BLACK
6
CONTINUOUS
10
1.38241
20
2.48065
11
1.38412
21
2.48321
0
LINE
8
BLACK
6
CONTINUOUS
10
1.38412
20
2.48321
11
1.38667
21
2.48491
0
LINE
8
BLACK
6
CONTINUOUS
10
1.38667
20
2.48491
11
1.38969
21
2.48551
0
LINE
8
BLACK
6
CONTINUOUS
10
1.38969
20
2.48551
11
1.44969
21
2.48551
0
LINE
8
BLACK
6
CONTINUOUS
10
1.44969
20
2.48551
11
1.4527
21
2.48491
0
LINE
8
BLACK
6
CONTINUOUS
10
1.3527
20
2.48491
11
1.35525
21
2.48321
0
LINE
8
BLACK
6
CONTINUOUS
10
1.35525
20
2.48321
11
1.35696
21
2.48065
0
LINE
8
BLACK
6
CONTINUOUS
10
1.35696
20
2.48065
11
1.35756
21
2.47764
0
LINE
8
BLACK
6
CONTINUOUS
10
1.35756
20
2.47764
11
1.35756
21
2.41764
0
LINE
8
BLACK
6
CONTINUOUS
10
1.35756
20
2.41764
11
1.35696
21
2.41462
0
LINE
8
BLACK
6
CONTINUOUS
10
1.35696
20
2.41462
11
1.35525
21
2.41207
0
LINE
8
BLACK
6
CONTINUOUS
10
1.35525
20
2.41207
11
1.3527
21
2.41036
0
LINE
8
BLACK
6
CONTINUOUS
10
1.3527
20
2.41036
11
1.34969
21
2.40976
0
LINE
8
BLACK
6
CONTINUOUS
10
1.34969
20
2.40976
11
1.28969
21
2.40976
0
LINE
8
BLACK
6
CONTINUOUS
10
1.28969
20
2.40976
11
1.28667
21
2.41036
0
LINE
8
BLACK
6
CONTINUOUS
10
1.28667
20
2.41036
11
1.28412
21
2.41207
0
LINE
8
BLACK
6
CONTINUOUS
10
1.28412
20
2.41207
11
1.28241
21
2.41462
0
LINE
8
BLACK
6
CONTINUOUS
10
1.28241
20
2.41462
11
1.28181
21
2.41764
0
LINE
8
BLACK
6
CONTINUOUS
10
1.28181
20
2.41764
11
1.28181
21
2.47764
0
LINE
8
BLACK
6
CONTINUOUS
10
1.28181
20
2.47764
11
1.28241
21
2.48065
0
LINE
8
BLACK
6
CONTINUOUS
10
1.28241
20
2.48065
11
1.28412
21
2.48321
0
LINE
8
BLACK
6
CONTINUOUS
10
1.28412
20
2.48321
11
1.28667
21
2.48491
0
LINE
8
BLACK
6
CONTINUOUS
10
1.28667
20
2.48491
11
1.28969
21
2.48551
0
LINE
8
BLACK
6
CONTINUOUS
10
1.28969
20
2.48551
11
1.34969
21
2.48551
0
LINE
8
BLACK
6
CONTINUOUS
10
1.34969
20
2.48551
11
1.3527
21
2.48491
0
LINE
8
BLACK
6
CONTINUOUS
10
1.5527
20
2.48491
11
1.55525
21
2.48321
0
LINE
8
BLACK
6
CONTINUOUS
10
1.55525
20
2.48321
11
1.55696
21
2.48065
0
LINE
8
BLACK
6
CONTINUOUS
10
1.55696
20
2.48065
11
1.55756
21
2.47764
0
LINE
8
BLACK
6
CONTINUOUS
10
1.55756
20
2.47764
11
1.55756
21
2.41764
0
LINE
8
BLACK
6
CONTINUOUS
10
1.55756
20
2.41764
11
1.55696
21
2.41462
0
LINE
8
BLACK
6
CONTINUOUS
10
1.55696
20
2.41462
11
1.55525
21
2.41207
0
LINE
8
BLACK
6
CONTINUOUS
10
1.55525
20
2.41207
11
1.5527
21
2.41036
0
LINE
8
BLACK
6
CONTINUOUS
10
1.5527
20
2.41036
11
1.54969
21
2.40976
0
LINE
8
BLACK
6
CONTINUOUS
10
1.54969
20
2.40976
11
1.48969
21
2.40976
0
LINE
8
BLACK
6
CONTINUOUS
10
1.48969
20
2.40976
11
1.48667
21
2.41036
0
LINE
8
BLACK
6
CONTINUOUS
10
1.48667
20
2.41036
11
1.48412
21
2.41207
0
LINE
8
BLACK
6
CONTINUOUS
10
1.48412
20
2.41207
11
1.48241
21
2.41462
0
LINE
8
BLACK
6
CONTINUOUS
10
1.48241
20
2.41462
11
1.48181
21
2.41764
0
LINE
8
BLACK
6
CONTINUOUS
10
1.48181
20
2.41764
11
1.48181
21
2.47764
0
LINE
8
BLACK
6
CONTINUOUS
10
1.48181
20
2.47764
11
1.48241
21
2.48065
0
LINE
8
BLACK
6
CONTINUOUS
10
1.48241
20
2.48065
11
1.48412
21
2.48321
0
LINE
8
BLACK
6
CONTINUOUS
10
1.48412
20
2.48321
11
1.48667
21
2.48491
0
LINE
8
BLACK
6
CONTINUOUS
10
1.48667
20
2.48491
11
1.48969
21
2.48551
0
LINE
8
BLACK
6
CONTINUOUS
10
1.48969
20
2.48551
11
1.54969
21
2.48551
0
LINE
8
BLACK
6
CONTINUOUS
10
1.54969
20
2.48551
11
1.5527
21
2.48491
0
LINE
8
BLACK
6
CONTINUOUS
10
1.6527
20
2.48491
11
1.65525
21
2.48321
0
LINE
8
BLACK
6
CONTINUOUS
10
1.65525
20
2.48321
11
1.65696
21
2.48065
0
LINE
8
BLACK
6
CONTINUOUS
10
1.65696
20
2.48065
11
1.65756
21
2.47764
0
LINE
8
BLACK
6
CONTINUOUS
10
1.65756
20
2.47764
11
1.65756
21
2.41764
0
LINE
8
BLACK
6
CONTINUOUS
10
1.65756
20
2.41764
11
1.65696
21
2.41462
0
LINE
8
BLACK
6
CONTINUOUS
10
1.65696
20
2.41462
11
1.65525
21
2.41207
0
LINE
8
BLACK
6
CONTINUOUS
10
1.65525
20
2.41207
11
1.6527
21
2.41036
0
LINE
8
BLACK
6
CONTINUOUS
10
1.6527
20
2.41036
11
1.64969
21
2.40976
0
LINE
8
BLACK
6
CONTINUOUS
10
1.64969
20
2.40976
11
1.58969
21
2.40976
0
LINE
8
BLACK
6
CONTINUOUS
10
1.58969
20
2.40976
11
1.58667
21
2.41036
0
LINE
8
BLACK
6
CONTINUOUS
10
1.58667
20
2.41036
11
1.58412
21
2.41207
0
LINE
8
BLACK
6
CONTINUOUS
10
1.58412
20
2.41207
11
1.58241
21
2.41462
0
LINE
8
BLACK
6
CONTINUOUS
10
1.58241
20
2.41462
11
1.58181
21
2.41764
0
LINE
8
BLACK
6
CONTINUOUS
10
1.58181
20
2.41764
11
1.58181
21
2.47764
0
LINE
8
BLACK
6
CONTINUOUS
10
1.58181
20
2.47764
11
1.58241
21
2.48065
0
LINE
8
BLACK
6
CONTINUOUS
10
1.58241
20
2.48065
11
1.58412
21
2.48321
0
LINE
8
BLACK
6
CONTINUOUS
10
1.58412
20
2.48321
11
1.58667
21
2.48491
0
LINE
8
BLACK
6
CONTINUOUS
10
1.58667
20
2.48491
11
1.58969
21
2.48551
0
LINE
8
BLACK
6
CONTINUOUS
10
1.58969
20
2.48551
11
1.64969
21
2.48551
0
LINE
8
BLACK
6
CONTINUOUS
10
1.64969
20
2.48551
11
1.6527
21
2.48491
0
LINE
8
BLACK
6
CONTINUOUS
10
1.20388
20
2.48491
11
1.20643
21
2.48321
0
LINE
8
BLACK
6
CONTINUOUS
10
1.20643
20
2.48321
11
1.20814
21
2.48065
0
LINE
8
BLACK
6
CONTINUOUS
10
1.20814
20
2.48065
11
1.20874
21
2.47764
0
LINE
8
BLACK
6
CONTINUOUS
10
1.20874
20
2.47764
11
1.20874
21
2.41764
0
LINE
8
BLACK
6
CONTINUOUS
10
1.20874
20
2.41764
11
1.20814
21
2.41462
0
LINE
8
BLACK
6
CONTINUOUS
10
1.20814
20
2.41462
11
1.20643
21
2.41207
0
LINE
8
BLACK
6
CONTINUOUS
10
1.20643
20
2.41207
11
1.20388
21
2.41036
0
LINE
8
BLACK
6
CONTINUOUS
10
1.20388
20
2.41036
11
1.20087
21
2.40976
0
LINE
8
BLACK
6
CONTINUOUS
10
1.20087
20
2.40976
11
1.14087
21
2.40976
0
LINE
8
BLACK
6
CONTINUOUS
10
1.14087
20
2.40976
11
1.13785
21
2.41036
0
LINE
8
BLACK
6
CONTINUOUS
10
1.13785
20
2.41036
11
1.1353
21
2.41207
0
LINE
8
BLACK
6
CONTINUOUS
10
1.1353
20
2.41207
11
1.13359
21
2.41462
0
LINE
8
BLACK
6
CONTINUOUS
10
1.13359
20
2.41462
11
1.13299
21
2.41764
0
LINE
8
BLACK
6
CONTINUOUS
10
1.13299
20
2.41764
11
1.13299
21
2.47764
0
LINE
8
BLACK
6
CONTINUOUS
10
1.13299
20
2.47764
11
1.13359
21
2.48065
0
LINE
8
BLACK
6
CONTINUOUS
10
1.13359
20
2.48065
11
1.1353
21
2.48321
0
LINE
8
BLACK
6
CONTINUOUS
10
1.1353
20
2.48321
11
1.13785
21
2.48491
0
LINE
8
BLACK
6
CONTINUOUS
10
1.13785
20
2.48491
11
1.14087
21
2.48551
0
LINE
8
BLACK
6
CONTINUOUS
10
1.14087
20
2.48551
11
1.20087
21
2.48551
0
LINE
8
BLACK
6
CONTINUOUS
10
1.20087
20
2.48551
11
1.20388
21
2.48491
0
LINE
8
BLACK
6
CONTINUOUS
10
0.263722
20
2.48491
11
0.266276
21
2.48321
0
LINE
8
BLACK
6
CONTINUOUS
10
0.266276
20
2.48321
11
0.267983
21
2.48065
0
LINE
8
BLACK
6
CONTINUOUS
10
0.267983
20
2.48065
11
0.268583
21
2.47764
0
LINE
8
BLACK
6
CONTINUOUS
10
0.268583
20
2.47764
11
0.268583
21
2.41764
0
LINE
8
BLACK
6
CONTINUOUS
10
0.268583
20
2.41764
11
0.267983
21
2.41462
0
LINE
8
BLACK
6
CONTINUOUS
10
0.267983
20
2.41462
11
0.266276
21
2.41207
0
LINE
8
BLACK
6
CONTINUOUS
10
0.266276
20
2.41207
11
0.263722
21
2.41036
0
LINE
8
BLACK
6
CONTINUOUS
10
0.263722
20
2.41036
11
0.260709
21
2.40976
0
LINE
8
BLACK
6
CONTINUOUS
10
0.260709
20
2.40976
11
0.200709
21
2.40976
0
LINE
8
BLACK
6
CONTINUOUS
10
0.200709
20
2.40976
11
0.197695
21
2.41036
0
LINE
8
BLACK
6
CONTINUOUS
10
0.197695
20
2.41036
11
0.195141
21
2.41207
0
LINE
8
BLACK
6
CONTINUOUS
10
0.195141
20
2.41207
11
0.193434
21
2.41462
0
LINE
8
BLACK
6
CONTINUOUS
10
0.193434
20
2.41462
11
0.192835
21
2.41764
0
LINE
8
BLACK
6
CONTINUOUS
10
0.192835
20
2.41764
11
0.192835
21
2.47764
0
LINE
8
BLACK
6
CONTINUOUS
10
0.192835
20
2.47764
11
0.193434
21
2.48065
0
LINE
8
BLACK
6
CONTINUOUS
10
0.193434
20
2.48065
11
0.195141
21
2.48321
0
LINE
8
BLACK
6
CONTINUOUS
10
0.195141
20
2.48321
11
0.197695
21
2.48491
0
LINE
8
BLACK
6
CONTINUOUS
10
0.197695
20
2.48491
11
0.200709
21
2.48551
0
LINE
8
BLACK
6
CONTINUOUS
10
0.200709
20
2.48551
11
0.260709
21
2.48551
0
LINE
8
BLACK
6
CONTINUOUS
10
0.260709
20
2.48551
11
0.263722
21
2.48491
0
LINE
8
BLACK
6
CONTINUOUS
10
1.10388
20
2.48491
11
1.10643
21
2.48321
0
LINE
8
BLACK
6
CONTINUOUS
10
1.10643
20
2.48321
11
1.10814
21
2.48065
0
LINE
8
BLACK
6
CONTINUOUS
10
1.10814
20
2.48065
11
1.10874
21
2.47764
0
LINE
8
BLACK
6
CONTINUOUS
10
1.10874
20
2.47764
11
1.10874
21
2.41764
0
LINE
8
BLACK
6
CONTINUOUS
10
1.10874
20
2.41764
11
1.10814
21
2.41462
0
LINE
8
BLACK
6
CONTINUOUS
10
1.10814
20
2.41462
11
1.10643
21
2.41207
0
LINE
8
BLACK
6
CONTINUOUS
10
1.10643
20
2.41207
11
1.10388
21
2.41036
0
LINE
8
BLACK
6
CONTINUOUS
10
1.10388
20
2.41036
11
1.10087
21
2.40976
0
LINE
8
BLACK
6
CONTINUOUS
10
1.10087
20
2.40976
11
1.04087
21
2.40976
0
LINE
8
BLACK
6
CONTINUOUS
10
1.04087
20
2.40976
11
1.03785
21
2.41036
0
LINE
8
BLACK
6
CONTINUOUS
10
1.03785
20
2.41036
11
1.0353
21
2.41207
0
LINE
8
BLACK
6
CONTINUOUS
10
1.0353
20
2.41207
11
1.03359
21
2.41462
0
LINE
8
BLACK
6
CONTINUOUS
10
1.03359
20
2.41462
11
1.03299
21
2.41764
0
LINE
8
BLACK
6
CONTINUOUS
10
1.03299
20
2.41764
11
1.03299
21
2.47764
0
LINE
8
BLACK
6
CONTINUOUS
10
1.03299
20
2.47764
11
1.03359
21
2.48065
0
LINE
8
BLACK
6
CONTINUOUS
10
1.03359
20
2.48065
11
1.0353
21
2.48321
0
LINE
8
BLACK
6
CONTINUOUS
10
1.0353
20
2.48321
11
1.03785
21
2.48491
0
LINE
8
BLACK
6
CONTINUOUS
10
1.03785
20
2.48491
11
1.04087
21
2.48551
0
LINE
8
BLACK
6
CONTINUOUS
10
1.04087
20
2.48551
11
1.10087
21
2.48551
0
LINE
8
BLACK
6
CONTINUOUS
10
1.10087
20
2.48551
11
1.10388
21
2.48491
0
LINE
8
BLACK
6
CONTINUOUS
10
1.7527
20
2.48491
11
1.75525
21
2.48321
0
LINE
8
BLACK
6
CONTINUOUS
10
1.75525
20
2.48321
11
1.75696
21
2.48065
0
LINE
8
BLACK
6
CONTINUOUS
10
1.75696
20
2.48065
11
1.75756
21
2.47764
0
LINE
8
BLACK
6
CONTINUOUS
10
1.75756
20
2.47764
11
1.75756
21
2.41764
0
LINE
8
BLACK
6
CONTINUOUS
10
1.75756
20
2.41764
11
1.75696
21
2.41462
0
LINE
8
BLACK
6
CONTINUOUS
10
1.75696
20
2.41462
11
1.75525
21
2.41207
0
LINE
8
BLACK
6
CONTINUOUS
10
1.75525
20
2.41207
11
1.7527
21
2.41036
0
LINE
8
BLACK
6
CONTINUOUS
10
1.7527
20
2.41036
11
1.74969
21
2.40976
0
LINE
8
BLACK
6
CONTINUOUS
10
1.74969
20
2.40976
11
1.68969
21
2.40976
0
LINE
8
BLACK
6
CONTINUOUS
10
1.68969
20
2.40976
11
1.68667
21
2.41036
0
LINE
8
BLACK
6
CONTINUOUS
10
1.68667
20
2.41036
11
1.68412
21
2.41207
0
LINE
8
BLACK
6
CONTINUOUS
10
1.68412
20
2.41207
11
1.68241
21
2.41462
0
LINE
8
BLACK
6
CONTINUOUS
10
1.68241
20
2.41462
11
1.68181
21
2.41764
0
LINE
8
BLACK
6
CONTINUOUS
10
1.68181
20
2.41764
11
1.68181
21
2.47764
0
LINE
8
BLACK
6
CONTINUOUS
10
1.68181
20
2.47764
11
1.68241
21
2.48065
0
LINE
8
BLACK
6
CONTINUOUS
10
1.68241
20
2.48065
11
1.68412
21
2.48321
0
LINE
8
BLACK
6
CONTINUOUS
10
1.68412
20
2.48321
11
1.68667
21
2.48491
0
LINE
8
BLACK
6
CONTINUOUS
10
1.68667
20
2.48491
11
1.68969
21
2.48551
0
LINE
8
BLACK
6
CONTINUOUS
10
1.68969
20
2.48551
11
1.74969
21
2.48551
0
LINE
8
BLACK
6
CONTINUOUS
10
1.74969
20
2.48551
11
1.7527
21
2.48491
0
LINE
8
BLACK
6
CONTINUOUS
10
1.00388
20
2.48491
11
1.00643
21
2.48321
0
LINE
8
BLACK
6
CONTINUOUS
10
1.00643
20
2.48321
11
1.00814
21
2.48065
0
LINE
8
BLACK
6
CONTINUOUS
10
1.00814
20
2.48065
11
1.00874
21
2.47764
0
LINE
8
BLACK
6
CONTINUOUS
10
1.00874
20
2.47764
11
1.00874
21
2.41764
0
LINE
8
BLACK
6
CONTINUOUS
10
1.00874
20
2.41764
11
1.00814
21
2.41462
0
LINE
8
BLACK
6
CONTINUOUS
10
1.00814
20
2.41462
11
1.00643
21
2.41207
0
LINE
8
BLACK
6
CONTINUOUS
10
1.00643
20
2.41207
11
1.00388
21
2.41036
0
LINE
8
BLACK
6
CONTINUOUS
10
1.00388
20
2.41036
11
1.00087
21
2.40976
0
LINE
8
BLACK
6
CONTINUOUS
10
1.00087
20
2.40976
11
0.940866
21
2.40976
0
LINE
8
BLACK
6
CONTINUOUS
10
0.940866
20
2.40976
11
0.937853
21
2.41036
0
LINE
8
BLACK
6
CONTINUOUS
10
0.937853
20
2.41036
11
0.935298
21
2.41207
0
LINE
8
BLACK
6
CONTINUOUS
10
0.935298
20
2.41207
11
0.933591
21
2.41462
0
LINE
8
BLACK
6
CONTINUOUS
10
0.933591
20
2.41462
11
0.932992
21
2.41764
0
LINE
8
BLACK
6
CONTINUOUS
10
0.932992
20
2.41764
11
0.932992
21
2.47764
0
LINE
8
BLACK
6
CONTINUOUS
10
0.932992
20
2.47764
11
0.933591
21
2.48065
0
LINE
8
BLACK
6
CONTINUOUS
10
0.933591
20
2.48065
11
0.935298
21
2.48321
0
LINE
8
BLACK
6
CONTINUOUS
10
0.935298
20
2.48321
11
0.937853
21
2.48491
0
LINE
8
BLACK
6
CONTINUOUS
10
0.937853
20
2.48491
11
0.940866
21
2.48551
0
LINE
8
BLACK
6
CONTINUOUS
10
0.940866
20
2.48551
11
1.00087
21
2.48551
0
LINE
8
BLACK
6
CONTINUOUS
10
1.00087
20
2.48551
11
1.00388
21
2.48491
0
LINE
8
BLACK
6
CONTINUOUS
10
0.363722
20
2.48491
11
0.366276
21
2.48321
0
LINE
8
BLACK
6
CONTINUOUS
10
0.366276
20
2.48321
11
0.367983
21
2.48065
0
LINE
8
BLACK
6
CONTINUOUS
10
0.367983
20
2.48065
11
0.368583
21
2.47764
0
LINE
8
BLACK
6
CONTINUOUS
10
0.368583
20
2.47764
11
0.368583
21
2.41764
0
LINE
8
BLACK
6
CONTINUOUS
10
0.368583
20
2.41764
11
0.367983
21
2.41462
0
LINE
8
BLACK
6
CONTINUOUS
10
0.367983
20
2.41462
11
0.366276
21
2.41207
0
LINE
8
BLACK
6
CONTINUOUS
10
0.366276
20
2.41207
11
0.363722
21
2.41036
0
LINE
8
BLACK
6
CONTINUOUS
10
0.363722
20
2.41036
11
0.360709
21
2.40976
0
LINE
8
BLACK
6
CONTINUOUS
10
0.360709
20
2.40976
11
0.300709
21
2.40976
0
LINE
8
BLACK
6
CONTINUOUS
10
0.300709
20
2.40976
11
0.297695
21
2.41036
0
LINE
8
BLACK
6
CONTINUOUS
10
0.297695
20
2.41036
11
0.295141
21
2.41207
0
LINE
8
BLACK
6
CONTINUOUS
10
0.295141
20
2.41207
11
0.293434
21
2.41462
0
LINE
8
BLACK
6
CONTINUOUS
10
0.293434
20
2.41462
11
0.292835
21
2.41764
0
LINE
8
BLACK
6
CONTINUOUS
10
0.292835
20
2.41764
11
0.292835
21
2.47764
0
LINE
8
BLACK
6
CONTINUOUS
10
0.292835
20
2.47764
11
0.293434
21
2.48065
0
LINE
8
BLACK
6
CONTINUOUS
10
0.293434
20
2.48065
11
0.295141
21
2.48321
0
LINE
8
BLACK
6
CONTINUOUS
10
0.295141
20
2.48321
11
0.297695
21
2.48491
0
LINE
8
BLACK
6
CONTINUOUS
10
0.297695
20
2.48491
11
0.300709
21
2.48551
0
LINE
8
BLACK
6
CONTINUOUS
10
0.300709
20
2.48551
11
0.360709
21
2.48551
0
LINE
8
BLACK
6
CONTINUOUS
10
0.360709
20
2.48551
11
0.363722
21
2.48491
0
LINE
8
BLACK
6
CONTINUOUS
10
0.703092
20
2.48491
11
0.705646
21
2.48321
0
LINE
8
BLACK
6
CONTINUOUS
10
0.705646
20
2.48321
11
0.707353
21
2.48065
0
LINE
8
BLACK
6
CONTINUOUS
10
0.707353
20
2.48065
11
0.707953
21
2.47764
0
LINE
8
BLACK
6
CONTINUOUS
10
0.707953
20
2.47764
11
0.707953
21
2.41764
0
LINE
8
BLACK
6
CONTINUOUS
10
0.707953
20
2.41764
11
0.707353
21
2.41462
0
LINE
8
BLACK
6
CONTINUOUS
10
0.707353
20
2.41462
11
0.705646
21
2.41207
0
LINE
8
BLACK
6
CONTINUOUS
10
0.705646
20
2.41207
11
0.703092
21
2.41036
0
LINE
8
BLACK
6
CONTINUOUS
10
0.703092
20
2.41036
11
0.700079
21
2.40976
0
LINE
8
BLACK
6
CONTINUOUS
10
0.700079
20
2.40976
11
0.640079
21
2.40976
0
LINE
8
BLACK
6
CONTINUOUS
10
0.640079
20
2.40976
11
0.637065
21
2.41036
0
LINE
8
BLACK
6
CONTINUOUS
10
0.637065
20
2.41036
11
0.634511
21
2.41207
0
LINE
8
BLACK
6
CONTINUOUS
10
0.634511
20
2.41207
11
0.632804
21
2.41462
0
LINE
8
BLACK
6
CONTINUOUS
10
0.632804
20
2.41462
11
0.632205
21
2.41764
0
LINE
8
BLACK
6
CONTINUOUS
10
0.632205
20
2.41764
11
0.632205
21
2.47764
0
LINE
8
BLACK
6
CONTINUOUS
10
0.632205
20
2.47764
11
0.632804
21
2.48065
0
LINE
8
BLACK
6
CONTINUOUS
10
0.632804
20
2.48065
11
0.634511
21
2.48321
0
LINE
8
BLACK
6
CONTINUOUS
10
0.634511
20
2.48321
11
0.637065
21
2.48491
0
LINE
8
BLACK
6
CONTINUOUS
10
0.637065
20
2.48491
11
0.640079
21
2.48551
0
LINE
8
BLACK
6
CONTINUOUS
10
0.640079
20
2.48551
11
0.700079
21
2.48551
0
LINE
8
BLACK
6
CONTINUOUS
10
0.700079
20
2.48551
11
0.703092
21
2.48491
0
LINE
8
BLACK
6
CONTINUOUS
10
0.603092
20
2.48491
11
0.605646
21
2.48321
0
LINE
8
BLACK
6
CONTINUOUS
10
0.605646
20
2.48321
11
0.607353
21
2.48065
0
LINE
8
BLACK
6
CONTINUOUS
10
0.607353
20
2.48065
11
0.607953
21
2.47764
0
LINE
8
BLACK
6
CONTINUOUS
10
0.607953
20
2.47764
11
0.607953
21
2.41764
0
LINE
8
BLACK
6
CONTINUOUS
10
0.607953
20
2.41764
11
0.607353
21
2.41462
0
LINE
8
BLACK
6
CONTINUOUS
10
0.607353
20
2.41462
11
0.605646
21
2.41207
0
LINE
8
BLACK
6
CONTINUOUS
10
0.605646
20
2.41207
11
0.603092
21
2.41036
0
LINE
8
BLACK
6
CONTINUOUS
10
0.603092
20
2.41036
11
0.600079
21
2.40976
0
LINE
8
BLACK
6
CONTINUOUS
10
0.600079
20
2.40976
11
0.540079
21
2.40976
0
LINE
8
BLACK
6
CONTINUOUS
10
0.540079
20
2.40976
11
0.537065
21
2.41036
0
LINE
8
BLACK
6
CONTINUOUS
10
0.537065
20
2.41036
11
0.534511
21
2.41207
0
LINE
8
BLACK
6
CONTINUOUS
10
0.534511
20
2.41207
11
0.532804
21
2.41462
0
LINE
8
BLACK
6
CONTINUOUS
10
0.532804
20
2.41462
11
0.532205
21
2.41764
0
LINE
8
BLACK
6
CONTINUOUS
10
0.532205
20
2.41764
11
0.532205
21
2.47764
0
LINE
8
BLACK
6
CONTINUOUS
10
0.532205
20
2.47764
11
0.532804
21
2.48065
0
LINE
8
BLACK
6
CONTINUOUS
10
0.532804
20
2.48065
11
0.534511
21
2.48321
0
LINE
8
BLACK
6
CONTINUOUS
10
0.534511
20
2.48321
11
0.537065
21
2.48491
0
LINE
8
BLACK
6
CONTINUOUS
10
0.537065
20
2.48491
11
0.540079
21
2.48551
0
LINE
8
BLACK
6
CONTINUOUS
10
0.540079
20
2.48551
11
0.600079
21
2.48551
0
LINE
8
BLACK
6
CONTINUOUS
10
0.600079
20
2.48551
11
0.603092
21
2.48491
0
LINE
8
BLACK
6
CONTINUOUS
10
0.463722
20
2.48491
11
0.466276
21
2.48321
0
LINE
8
BLACK
6
CONTINUOUS
10
0.466276
20
2.48321
11
0.467983
21
2.48065
0
LINE
8
BLACK
6
CONTINUOUS
10
0.467983
20
2.48065
11
0.468583
21
2.47764
0
LINE
8
BLACK
6
CONTINUOUS
10
0.468583
20
2.47764
11
0.468583
21
2.41764
0
LINE
8
BLACK
6
CONTINUOUS
10
0.468583
20
2.41764
11
0.467983
21
2.41462
0
LINE
8
BLACK
6
CONTINUOUS
10
0.467983
20
2.41462
11
0.466276
21
2.41207
0
LINE
8
BLACK
6
CONTINUOUS
10
0.466276
20
2.41207
11
0.463722
21
2.41036
0
LINE
8
BLACK
6
CONTINUOUS
10
0.463722
20
2.41036
11
0.460709
21
2.40976
0
LINE
8
BLACK
6
CONTINUOUS
10
0.460709
20
2.40976
11
0.400709
21
2.40976
0
LINE
8
BLACK
6
CONTINUOUS
10
0.400709
20
2.40976
11
0.397695
21
2.41036
0
LINE
8
BLACK
6
CONTINUOUS
10
0.397695
20
2.41036
11
0.395141
21
2.41207
0
LINE
8
BLACK
6
CONTINUOUS
10
0.395141
20
2.41207
11
0.393434
21
2.41462
0
LINE
8
BLACK
6
CONTINUOUS
10
0.393434
20
2.41462
11
0.392835
21
2.41764
0
LINE
8
BLACK
6
CONTINUOUS
10
0.392835
20
2.41764
11
0.392835
21
2.47764
0
LINE
8
BLACK
6
CONTINUOUS
10
0.392835
20
2.47764
11
0.393434
21
2.48065
0
LINE
8
BLACK
6
CONTINUOUS
10
0.393434
20
2.48065
11
0.395141
21
2.48321
0
LINE
8
BLACK
6
CONTINUOUS
10
0.395141
20
2.48321
11
0.397695
21
2.48491
0
LINE
8
BLACK
6
CONTINUOUS
10
0.397695
20
2.48491
11
0.400709
21
2.48551
0
LINE
8
BLACK
6
CONTINUOUS
10
0.400709
20
2.48551
11
0.460709
21
2.48551
0
LINE
8
BLACK
6
CONTINUOUS
10
0.460709
20
2.48551
11
0.463722
21
2.48491
0
LINE
8
BLACK
6
CONTINUOUS
10
0.863722
20
2.48767
11
0.866276
21
2.48596
0
LINE
8
BLACK
6
CONTINUOUS
10
0.866276
20
2.48596
11
0.867983
21
2.48341
0
LINE
8
BLACK
6
CONTINUOUS
10
0.867983
20
2.48341
11
0.868583
21
2.48039
0
LINE
8
BLACK
6
CONTINUOUS
10
0.868583
20
2.48039
11
0.868583
21
2.42039
0
LINE
8
BLACK
6
CONTINUOUS
10
0.868583
20
2.42039
11
0.867983
21
2.41738
0
LINE
8
BLACK
6
CONTINUOUS
10
0.867983
20
2.41738
11
0.866276
21
2.41483
0
LINE
8
BLACK
6
CONTINUOUS
10
0.866276
20
2.41483
11
0.863722
21
2.41312
0
LINE
8
BLACK
6
CONTINUOUS
10
0.863722
20
2.41312
11
0.860709
21
2.41252
0
LINE
8
BLACK
6
CONTINUOUS
10
0.860709
20
2.41252
11
0.800709
21
2.41252
0
LINE
8
BLACK
6
CONTINUOUS
10
0.800709
20
2.41252
11
0.797695
21
2.41312
0
LINE
8
BLACK
6
CONTINUOUS
10
0.797695
20
2.41312
11
0.795141
21
2.41483
0
LINE
8
BLACK
6
CONTINUOUS
10
0.795141
20
2.41483
11
0.793434
21
2.41738
0
LINE
8
BLACK
6
CONTINUOUS
10
0.793434
20
2.41738
11
0.792835
21
2.42039
0
LINE
8
BLACK
6
CONTINUOUS
10
0.792835
20
2.42039
11
0.792835
21
2.48039
0
LINE
8
BLACK
6
CONTINUOUS
10
0.792835
20
2.48039
11
0.793434
21
2.48341
0
LINE
8
BLACK
6
CONTINUOUS
10
0.793434
20
2.48341
11
0.795141
21
2.48596
0
LINE
8
BLACK
6
CONTINUOUS
10
0.795141
20
2.48596
11
0.797695
21
2.48767
0
LINE
8
BLACK
6
CONTINUOUS
10
0.797695
20
2.48767
11
0.800709
21
2.48827
0
LINE
8
BLACK
6
CONTINUOUS
10
0.800709
20
2.48827
11
0.860709
21
2.48827
0
LINE
8
BLACK
6
CONTINUOUS
10
0.860709
20
2.48827
11
0.863722
21
2.48767
  0
ENDSEC
  0
EOF
