  0
SECTION
  2
HEADER
  9
$ANGBASE
  50
0.0
  9
$ANGDIR
  70
1
  9
$MEASUREMENT
  70
0
  0
ENDSEC
  0
SECTION
  2
TABLES
  0
TABLE
  2
LTYPE
  70
4
  0
LTYPE
  5
40F
  2
CONTINUOUS
  70
0
  3
Solid line
  72
65
  73
0
  40
0.0
  0
LTYPE
  5
410
  2
DASHDOT
 70
0
  3
Dash Dot ____ _ ____ _
 72
65
 73
4
 40
2.0
 49
1.25
 49
-0.25
 49
0.25
 49
-0.25
  0
LTYPE
  5
411
  2
DASHED
 70
0
  3
Dashed __ __ __ __ __
 72
65
 73
2
 40
0.75
 49
0.5
 49
-0.25
  0
LTYPE
  5
43B
  2
DOTTED
 70
0
  3
Dotted .  .  .  .
 72
65
 73
2
 40
0.2
 49
0.0
 49
-0.2
  0
ENDTAB
  0
TABLE
  2
STYLE
  70
4
  0
STYLE
  2
KICAD
  70
0
  40
0
  41
1
  42
1
  50
0
  71
0
  3
isocp.shx
  0
STYLE
  2
KICADB
  70
0
  40
0
  41
1
  42
1
  50
0
  71
0
  3
isocp.shx
  0
STYLE
  2
KICADI
  70
0
  40
0
  41
1
  42
1
  50
15
  71
0
  3
isocp.shx
  0
STYLE
  2
KICADBI
  70
0
  40
0
  41
1
  42
1
  50
15
  71
0
  3
isocp.shx
  0
ENDTAB
  0
TABLE
  2
LAYER
  70
1
  0
LAYER
  2
BLACK
  70
0
  62
7
  6
CONTINUOUS
  0
ENDTAB
  0
ENDSEC
  0
SECTION
  2
ENTITIES
0
LINE
8
BLACK
6
CONTINUOUS
10
1.38808
20
2.09379
11
1.3878
21
2.09449
0
LINE
8
BLACK
6
CONTINUOUS
10
1.3878
20
2.09449
11
1.3878
21
2.23622
0
LINE
8
BLACK
6
CONTINUOUS
10
1.3878
20
2.23622
11
1.38808
21
2.23692
0
LINE
8
BLACK
6
CONTINUOUS
10
1.38808
20
2.23692
11
1.38878
21
2.2372
0
LINE
8
BLACK
6
CONTINUOUS
10
1.38878
20
2.2372
11
1.72933
21
2.2372
0
LINE
8
BLACK
6
CONTINUOUS
10
1.72933
20
2.2372
11
1.73003
21
2.23692
0
LINE
8
BLACK
6
CONTINUOUS
10
1.73003
20
2.23692
11
1.73031
21
2.23622
0
LINE
8
BLACK
6
CONTINUOUS
10
1.73031
20
2.23622
11
1.73031
21
2.09449
0
LINE
8
BLACK
6
CONTINUOUS
10
1.73031
20
2.09449
11
1.73003
21
2.09379
0
LINE
8
BLACK
6
CONTINUOUS
10
1.73003
20
2.09379
11
1.72933
21
2.0935
0
LINE
8
BLACK
6
CONTINUOUS
10
1.72933
20
2.0935
11
1.38878
21
2.0935
0
LINE
8
BLACK
6
CONTINUOUS
10
1.38878
20
2.0935
11
1.38808
21
2.09379
0
LINE
8
BLACK
6
CONTINUOUS
10
1.38976
20
2.23524
11
1.38976
21
2.09547
0
LINE
8
BLACK
6
CONTINUOUS
10
1.38976
20
2.09547
11
1.72835
21
2.09547
0
LINE
8
BLACK
6
CONTINUOUS
10
1.72835
20
2.09547
11
1.72835
21
2.23524
0
LINE
8
BLACK
6
CONTINUOUS
10
1.72835
20
2.23524
11
1.38976
21
2.23524
0
LINE
8
BLACK
6
CONTINUOUS
10
0.232375
20
2.26899
11
0.232087
21
2.26969
0
LINE
8
BLACK
6
CONTINUOUS
10
0.232087
20
2.26969
11
0.232087
21
2.51181
0
LINE
8
BLACK
6
CONTINUOUS
10
0.232087
20
2.51181
11
0.232375
21
2.51251
0
LINE
8
BLACK
6
CONTINUOUS
10
0.232375
20
2.51251
11
0.233071
21
2.5128
0
LINE
8
BLACK
6
CONTINUOUS
10
0.233071
20
2.5128
11
0.674016
21
2.5128
0
LINE
8
BLACK
6
CONTINUOUS
10
0.674016
20
2.5128
11
0.674712
21
2.51251
0
LINE
8
BLACK
6
CONTINUOUS
10
0.674712
20
2.51251
11
0.675
21
2.51181
0
LINE
8
BLACK
6
CONTINUOUS
10
0.675
20
2.51181
11
0.675
21
2.26969
0
LINE
8
BLACK
6
CONTINUOUS
10
0.675
20
2.26969
11
0.674712
21
2.26899
0
LINE
8
BLACK
6
CONTINUOUS
10
0.674712
20
2.26899
11
0.674016
21
2.2687
0
LINE
8
BLACK
6
CONTINUOUS
10
0.674016
20
2.2687
11
0.233071
21
2.2687
0
LINE
8
BLACK
6
CONTINUOUS
10
0.233071
20
2.2687
11
0.232375
21
2.26899
0
LINE
8
BLACK
6
CONTINUOUS
10
0.234055
20
2.51083
11
0.234055
21
2.27067
0
LINE
8
BLACK
6
CONTINUOUS
10
0.234055
20
2.27067
11
0.673031
21
2.27067
0
LINE
8
BLACK
6
CONTINUOUS
10
0.673031
20
2.27067
11
0.673031
21
2.51083
0
LINE
8
BLACK
6
CONTINUOUS
10
0.673031
20
2.51083
11
0.234055
21
2.51083
0
LINE
8
BLACK
6
CONTINUOUS
10
0.757178
20
2.27293
11
0.75689
21
2.27362
0
LINE
8
BLACK
6
CONTINUOUS
10
0.75689
20
2.27362
11
0.75689
21
2.51575
0
LINE
8
BLACK
6
CONTINUOUS
10
0.75689
20
2.51575
11
0.757178
21
2.51644
0
LINE
8
BLACK
6
CONTINUOUS
10
0.757178
20
2.51644
11
0.757874
21
2.51673
0
LINE
8
BLACK
6
CONTINUOUS
10
0.757874
20
2.51673
11
1.09843
21
2.51673
0
LINE
8
BLACK
6
CONTINUOUS
10
1.09843
20
2.51673
11
1.09912
21
2.51644
0
LINE
8
BLACK
6
CONTINUOUS
10
1.09912
20
2.51644
11
1.09941
21
2.51575
0
LINE
8
BLACK
6
CONTINUOUS
10
1.09941
20
2.51575
11
1.09941
21
2.27362
0
LINE
8
BLACK
6
CONTINUOUS
10
1.09941
20
2.27362
11
1.09912
21
2.27293
0
LINE
8
BLACK
6
CONTINUOUS
10
1.09912
20
2.27293
11
1.09843
21
2.27264
0
LINE
8
BLACK
6
CONTINUOUS
10
1.09843
20
2.27264
11
0.757874
21
2.27264
0
LINE
8
BLACK
6
CONTINUOUS
10
0.757874
20
2.27264
11
0.757178
21
2.27293
0
LINE
8
BLACK
6
CONTINUOUS
10
0.758858
20
2.51476
11
0.758858
21
2.27461
0
LINE
8
BLACK
6
CONTINUOUS
10
0.758858
20
2.27461
11
1.09744
21
2.27461
0
LINE
8
BLACK
6
CONTINUOUS
10
1.09744
20
2.27461
11
1.09744
21
2.51476
0
LINE
8
BLACK
6
CONTINUOUS
10
1.09744
20
2.51476
11
0.758858
21
2.51476
0
LINE
8
BLACK
6
CONTINUOUS
10
1.18631
20
2.27391
11
1.18602
21
2.27461
0
LINE
8
BLACK
6
CONTINUOUS
10
1.18602
20
2.27461
11
1.18602
21
2.51673
0
LINE
8
BLACK
6
CONTINUOUS
10
1.18602
20
2.51673
11
1.18631
21
2.51743
0
LINE
8
BLACK
6
CONTINUOUS
10
1.18631
20
2.51743
11
1.18701
21
2.51772
0
LINE
8
BLACK
6
CONTINUOUS
10
1.18701
20
2.51772
11
1.72835
21
2.51772
0
LINE
8
BLACK
6
CONTINUOUS
10
1.72835
20
2.51772
11
1.72904
21
2.51743
0
LINE
8
BLACK
6
CONTINUOUS
10
1.72904
20
2.51743
11
1.72933
21
2.51673
0
LINE
8
BLACK
6
CONTINUOUS
10
1.72933
20
2.51673
11
1.72933
21
2.27461
0
LINE
8
BLACK
6
CONTINUOUS
10
1.72933
20
2.27461
11
1.72904
21
2.27391
0
LINE
8
BLACK
6
CONTINUOUS
10
1.72904
20
2.27391
11
1.72835
21
2.27362
0
LINE
8
BLACK
6
CONTINUOUS
10
1.72835
20
2.27362
11
1.18701
21
2.27362
0
LINE
8
BLACK
6
CONTINUOUS
10
1.18701
20
2.27362
11
1.18631
21
2.27391
0
LINE
8
BLACK
6
CONTINUOUS
10
1.18799
20
2.51575
11
1.18799
21
2.27559
0
LINE
8
BLACK
6
CONTINUOUS
10
1.18799
20
2.27559
11
1.72736
21
2.27559
0
LINE
8
BLACK
6
CONTINUOUS
10
1.72736
20
2.27559
11
1.72736
21
2.51575
0
LINE
8
BLACK
6
CONTINUOUS
10
1.72736
20
2.51575
11
1.18799
21
2.51575
  0
ENDSEC
  0
EOF
