  0
SECTION
  2
HEADER
  9
$ANGBASE
  50
0.0
  9
$ANGDIR
  70
1
  9
$MEASUREMENT
  70
0
  0
ENDSEC
  0
SECTION
  2
TABLES
  0
TABLE
  2
LTYPE
  70
4
  0
LTYPE
  5
40F
  2
CONTINUOUS
  70
0
  3
Solid line
  72
65
  73
0
  40
0.0
  0
LTYPE
  5
410
  2
DASHDOT
 70
0
  3
Dash Dot ____ _ ____ _
 72
65
 73
4
 40
2.0
 49
1.25
 49
-0.25
 49
0.25
 49
-0.25
  0
LTYPE
  5
411
  2
DASHED
 70
0
  3
Dashed __ __ __ __ __
 72
65
 73
2
 40
0.75
 49
0.5
 49
-0.25
  0
LTYPE
  5
43B
  2
DOTTED
 70
0
  3
Dotted .  .  .  .
 72
65
 73
2
 40
0.2
 49
0.0
 49
-0.2
  0
ENDTAB
  0
TABLE
  2
STYLE
  70
4
  0
STYLE
  2
KICAD
  70
0
  40
0
  41
1
  42
1
  50
0
  71
0
  3
isocp.shx
  0
STYLE
  2
KICADB
  70
0
  40
0
  41
1
  42
1
  50
0
  71
0
  3
isocp.shx
  0
STYLE
  2
KICADI
  70
0
  40
0
  41
1
  42
1
  50
15
  71
0
  3
isocp.shx
  0
STYLE
  2
KICADBI
  70
0
  40
0
  41
1
  42
1
  50
15
  71
0
  3
isocp.shx
  0
ENDTAB
  0
TABLE
  2
LAYER
  70
1
  0
LAYER
  2
BLACK
  70
0
  62
7
  6
CONTINUOUS
  0
ENDTAB
  0
ENDSEC
  0
SECTION
  2
ENTITIES
0
LINE
8
BLACK
6
CONTINUOUS
10
0.0141057
20
0.125192
11
0.0280341
21
0.122826
0
LINE
8
BLACK
6
CONTINUOUS
10
0.0280341
20
0.122826
11
0.04161
21
0.118914
0
LINE
8
BLACK
6
CONTINUOUS
10
0.04161
20
0.118914
11
0.0546625
21
0.113508
0
LINE
8
BLACK
6
CONTINUOUS
10
0.0546625
20
0.113508
11
0.0670277
21
0.106674
0
LINE
8
BLACK
6
CONTINUOUS
10
0.0670277
20
0.106674
11
0.0785499
21
0.0984985
0
LINE
8
BLACK
6
CONTINUOUS
10
0.0785499
20
0.0984985
11
0.0890843
21
0.0890843
0
LINE
8
BLACK
6
CONTINUOUS
10
0.0890843
20
0.0890843
11
0.0984985
21
0.0785499
0
LINE
8
BLACK
6
CONTINUOUS
10
0.0984985
20
0.0785499
11
0.106674
21
0.0670277
0
LINE
8
BLACK
6
CONTINUOUS
10
0.106674
20
0.0670277
11
0.113508
21
0.0546625
0
LINE
8
BLACK
6
CONTINUOUS
10
0.113508
20
0.0546625
11
0.118914
21
0.04161
0
LINE
8
BLACK
6
CONTINUOUS
10
0.118914
20
0.04161
11
0.122826
21
0.0280341
0
LINE
8
BLACK
6
CONTINUOUS
10
0.122826
20
0.0280341
11
0.125192
21
0.0141057
0
LINE
8
BLACK
6
CONTINUOUS
10
0.125192
20
0.0141057
11
0.125984
21
0
0
LINE
8
BLACK
6
CONTINUOUS
10
0.125984
20
0
11
0.125192
21
-0.0141057
0
LINE
8
BLACK
6
CONTINUOUS
10
0.125192
20
-0.0141057
11
0.122826
21
-0.0280341
0
LINE
8
BLACK
6
CONTINUOUS
10
0.122826
20
-0.0280341
11
0.118914
21
-0.04161
0
LINE
8
BLACK
6
CONTINUOUS
10
0.118914
20
-0.04161
11
0.113508
21
-0.0546625
0
LINE
8
BLACK
6
CONTINUOUS
10
0.113508
20
-0.0546625
11
0.106674
21
-0.0670277
0
LINE
8
BLACK
6
CONTINUOUS
10
0.106674
20
-0.0670277
11
0.0984985
21
-0.0785499
0
LINE
8
BLACK
6
CONTINUOUS
10
0.0984985
20
-0.0785499
11
0.0890843
21
-0.0890843
0
LINE
8
BLACK
6
CONTINUOUS
10
0.0890843
20
-0.0890843
11
0.0785499
21
-0.0984985
0
LINE
8
BLACK
6
CONTINUOUS
10
0.0785499
20
-0.0984985
11
0.0670277
21
-0.106674
0
LINE
8
BLACK
6
CONTINUOUS
10
0.0670277
20
-0.106674
11
0.0546625
21
-0.113508
0
LINE
8
BLACK
6
CONTINUOUS
10
0.0546625
20
-0.113508
11
0.04161
21
-0.118914
0
LINE
8
BLACK
6
CONTINUOUS
10
0.04161
20
-0.118914
11
0.0280341
21
-0.122826
0
LINE
8
BLACK
6
CONTINUOUS
10
0.0280341
20
-0.122826
11
0.0141057
21
-0.125192
0
LINE
8
BLACK
6
CONTINUOUS
10
0.0141057
20
-0.125192
11
0
21
-0.125984
0
LINE
8
BLACK
6
CONTINUOUS
10
0
20
-0.125984
11
-0.0141057
21
-0.125192
0
LINE
8
BLACK
6
CONTINUOUS
10
-0.0141057
20
-0.125192
11
-0.0280341
21
-0.122826
0
LINE
8
BLACK
6
CONTINUOUS
10
-0.0280341
20
-0.122826
11
-0.04161
21
-0.118914
0
LINE
8
BLACK
6
CONTINUOUS
10
-0.04161
20
-0.118914
11
-0.0546625
21
-0.113508
0
LINE
8
BLACK
6
CONTINUOUS
10
-0.0546625
20
-0.113508
11
-0.0670277
21
-0.106674
0
LINE
8
BLACK
6
CONTINUOUS
10
-0.0670277
20
-0.106674
11
-0.0785499
21
-0.0984985
0
LINE
8
BLACK
6
CONTINUOUS
10
-0.0785499
20
-0.0984985
11
-0.0890843
21
-0.0890843
0
LINE
8
BLACK
6
CONTINUOUS
10
-0.0890843
20
-0.0890843
11
-0.0984985
21
-0.0785499
0
LINE
8
BLACK
6
CONTINUOUS
10
-0.0984985
20
-0.0785499
11
-0.106674
21
-0.0670277
0
LINE
8
BLACK
6
CONTINUOUS
10
-0.106674
20
-0.0670277
11
-0.113508
21
-0.0546625
0
LINE
8
BLACK
6
CONTINUOUS
10
-0.113508
20
-0.0546625
11
-0.118914
21
-0.04161
0
LINE
8
BLACK
6
CONTINUOUS
10
-0.118914
20
-0.04161
11
-0.122826
21
-0.0280341
0
LINE
8
BLACK
6
CONTINUOUS
10
-0.122826
20
-0.0280341
11
-0.125192
21
-0.0141057
0
LINE
8
BLACK
6
CONTINUOUS
10
-0.125192
20
-0.0141057
11
-0.125984
21
0
0
LINE
8
BLACK
6
CONTINUOUS
10
-0.125984
20
0
11
-0.125192
21
0.0141057
0
LINE
8
BLACK
6
CONTINUOUS
10
-0.125192
20
0.0141057
11
-0.122826
21
0.0280341
0
LINE
8
BLACK
6
CONTINUOUS
10
-0.122826
20
0.0280341
11
-0.118914
21
0.04161
0
LINE
8
BLACK
6
CONTINUOUS
10
-0.118914
20
0.04161
11
-0.113508
21
0.0546625
0
LINE
8
BLACK
6
CONTINUOUS
10
-0.113508
20
0.0546625
11
-0.106674
21
0.0670277
0
LINE
8
BLACK
6
CONTINUOUS
10
-0.106674
20
0.0670277
11
-0.0984985
21
0.0785499
0
LINE
8
BLACK
6
CONTINUOUS
10
-0.0984985
20
0.0785499
11
-0.0890843
21
0.0890843
0
LINE
8
BLACK
6
CONTINUOUS
10
-0.0890843
20
0.0890843
11
-0.0785499
21
0.0984985
0
LINE
8
BLACK
6
CONTINUOUS
10
-0.0785499
20
0.0984985
11
-0.0670277
21
0.106674
0
LINE
8
BLACK
6
CONTINUOUS
10
-0.0670277
20
0.106674
11
-0.0546625
21
0.113508
0
LINE
8
BLACK
6
CONTINUOUS
10
-0.0546625
20
0.113508
11
-0.04161
21
0.118914
0
LINE
8
BLACK
6
CONTINUOUS
10
-0.04161
20
0.118914
11
-0.0280341
21
0.122826
0
LINE
8
BLACK
6
CONTINUOUS
10
-0.0280341
20
0.122826
11
-0.0141057
21
0.125192
0
LINE
8
BLACK
6
CONTINUOUS
10
-0.0141057
20
0.125192
11
0
21
0.125984
0
LINE
8
BLACK
6
CONTINUOUS
10
0
20
0.125984
11
0.0141057
21
0.125192
0
LINE
8
BLACK
6
CONTINUOUS
10
2.01411
20
0.125192
11
2.02803
21
0.122826
0
LINE
8
BLACK
6
CONTINUOUS
10
2.02803
20
0.122826
11
2.04161
21
0.118914
0
LINE
8
BLACK
6
CONTINUOUS
10
2.04161
20
0.118914
11
2.05466
21
0.113508
0
LINE
8
BLACK
6
CONTINUOUS
10
2.05466
20
0.113508
11
2.06703
21
0.106674
0
LINE
8
BLACK
6
CONTINUOUS
10
2.06703
20
0.106674
11
2.07855
21
0.0984985
0
LINE
8
BLACK
6
CONTINUOUS
10
2.07855
20
0.0984985
11
2.08908
21
0.0890843
0
LINE
8
BLACK
6
CONTINUOUS
10
2.08908
20
0.0890843
11
2.0985
21
0.0785499
0
LINE
8
BLACK
6
CONTINUOUS
10
2.0985
20
0.0785499
11
2.10667
21
0.0670277
0
LINE
8
BLACK
6
CONTINUOUS
10
2.10667
20
0.0670277
11
2.11351
21
0.0546625
0
LINE
8
BLACK
6
CONTINUOUS
10
2.11351
20
0.0546625
11
2.11891
21
0.04161
0
LINE
8
BLACK
6
CONTINUOUS
10
2.11891
20
0.04161
11
2.12283
21
0.0280341
0
LINE
8
BLACK
6
CONTINUOUS
10
2.12283
20
0.0280341
11
2.12519
21
0.0141057
0
LINE
8
BLACK
6
CONTINUOUS
10
2.12519
20
0.0141057
11
2.12598
21
0
0
LINE
8
BLACK
6
CONTINUOUS
10
2.12598
20
0
11
2.12519
21
-0.0141057
0
LINE
8
BLACK
6
CONTINUOUS
10
2.12519
20
-0.0141057
11
2.12283
21
-0.0280341
0
LINE
8
BLACK
6
CONTINUOUS
10
2.12283
20
-0.0280341
11
2.11891
21
-0.04161
0
LINE
8
BLACK
6
CONTINUOUS
10
2.11891
20
-0.04161
11
2.11351
21
-0.0546625
0
LINE
8
BLACK
6
CONTINUOUS
10
2.11351
20
-0.0546625
11
2.10667
21
-0.0670277
0
LINE
8
BLACK
6
CONTINUOUS
10
2.10667
20
-0.0670277
11
2.0985
21
-0.0785499
0
LINE
8
BLACK
6
CONTINUOUS
10
2.0985
20
-0.0785499
11
2.08908
21
-0.0890843
0
LINE
8
BLACK
6
CONTINUOUS
10
2.08908
20
-0.0890843
11
2.07855
21
-0.0984985
0
LINE
8
BLACK
6
CONTINUOUS
10
2.07855
20
-0.0984985
11
2.06703
21
-0.106674
0
LINE
8
BLACK
6
CONTINUOUS
10
2.06703
20
-0.106674
11
2.05466
21
-0.113508
0
LINE
8
BLACK
6
CONTINUOUS
10
2.05466
20
-0.113508
11
2.04161
21
-0.118914
0
LINE
8
BLACK
6
CONTINUOUS
10
2.04161
20
-0.118914
11
2.02803
21
-0.122826
0
LINE
8
BLACK
6
CONTINUOUS
10
2.02803
20
-0.122826
11
2.01411
21
-0.125192
0
LINE
8
BLACK
6
CONTINUOUS
10
2.01411
20
-0.125192
11
2
21
-0.125984
0
LINE
8
BLACK
6
CONTINUOUS
10
2
20
-0.125984
11
1.98589
21
-0.125192
0
LINE
8
BLACK
6
CONTINUOUS
10
1.98589
20
-0.125192
11
1.97197
21
-0.122826
0
LINE
8
BLACK
6
CONTINUOUS
10
1.97197
20
-0.122826
11
1.95839
21
-0.118914
0
LINE
8
BLACK
6
CONTINUOUS
10
1.95839
20
-0.118914
11
1.94534
21
-0.113508
0
LINE
8
BLACK
6
CONTINUOUS
10
1.94534
20
-0.113508
11
1.93297
21
-0.106674
0
LINE
8
BLACK
6
CONTINUOUS
10
1.93297
20
-0.106674
11
1.92145
21
-0.0984985
0
LINE
8
BLACK
6
CONTINUOUS
10
1.92145
20
-0.0984985
11
1.91092
21
-0.0890843
0
LINE
8
BLACK
6
CONTINUOUS
10
1.91092
20
-0.0890843
11
1.9015
21
-0.0785499
0
LINE
8
BLACK
6
CONTINUOUS
10
1.9015
20
-0.0785499
11
1.89333
21
-0.0670277
0
LINE
8
BLACK
6
CONTINUOUS
10
1.89333
20
-0.0670277
11
1.88649
21
-0.0546625
0
LINE
8
BLACK
6
CONTINUOUS
10
1.88649
20
-0.0546625
11
1.88109
21
-0.04161
0
LINE
8
BLACK
6
CONTINUOUS
10
1.88109
20
-0.04161
11
1.87717
21
-0.0280341
0
LINE
8
BLACK
6
CONTINUOUS
10
1.87717
20
-0.0280341
11
1.87481
21
-0.0141057
0
LINE
8
BLACK
6
CONTINUOUS
10
1.87481
20
-0.0141057
11
1.87402
21
0
0
LINE
8
BLACK
6
CONTINUOUS
10
1.87402
20
0
11
1.87481
21
0.0141057
0
LINE
8
BLACK
6
CONTINUOUS
10
1.87481
20
0.0141057
11
1.87717
21
0.0280341
0
LINE
8
BLACK
6
CONTINUOUS
10
1.87717
20
0.0280341
11
1.88109
21
0.04161
0
LINE
8
BLACK
6
CONTINUOUS
10
1.88109
20
0.04161
11
1.88649
21
0.0546625
0
LINE
8
BLACK
6
CONTINUOUS
10
1.88649
20
0.0546625
11
1.89333
21
0.0670277
0
LINE
8
BLACK
6
CONTINUOUS
10
1.89333
20
0.0670277
11
1.9015
21
0.0785499
0
LINE
8
BLACK
6
CONTINUOUS
10
1.9015
20
0.0785499
11
1.91092
21
0.0890843
0
LINE
8
BLACK
6
CONTINUOUS
10
1.91092
20
0.0890843
11
1.92145
21
0.0984985
0
LINE
8
BLACK
6
CONTINUOUS
10
1.92145
20
0.0984985
11
1.93297
21
0.106674
0
LINE
8
BLACK
6
CONTINUOUS
10
1.93297
20
0.106674
11
1.94534
21
0.113508
0
LINE
8
BLACK
6
CONTINUOUS
10
1.94534
20
0.113508
11
1.95839
21
0.118914
0
LINE
8
BLACK
6
CONTINUOUS
10
1.95839
20
0.118914
11
1.97197
21
0.122826
0
LINE
8
BLACK
6
CONTINUOUS
10
1.97197
20
0.122826
11
1.98589
21
0.125192
0
LINE
8
BLACK
6
CONTINUOUS
10
1.98589
20
0.125192
11
2
21
0.125984
0
LINE
8
BLACK
6
CONTINUOUS
10
2
20
0.125984
11
2.01411
21
0.125192
0
LINE
8
BLACK
6
CONTINUOUS
10
0.0830133
20
0.37192
11
0.0855678
21
0.370213
0
LINE
8
BLACK
6
CONTINUOUS
10
0.0855678
20
0.370213
11
0.0872746
21
0.367659
0
LINE
8
BLACK
6
CONTINUOUS
10
0.0872746
20
0.367659
11
0.087874
21
0.364646
0
LINE
8
BLACK
6
CONTINUOUS
10
0.087874
20
0.364646
11
0.087874
21
0.304646
0
LINE
8
BLACK
6
CONTINUOUS
10
0.087874
20
0.304646
11
0.0872746
21
0.301632
0
LINE
8
BLACK
6
CONTINUOUS
10
0.0872746
20
0.301632
11
0.0855678
21
0.299078
0
LINE
8
BLACK
6
CONTINUOUS
10
0.0855678
20
0.299078
11
0.0830133
21
0.297371
0
LINE
8
BLACK
6
CONTINUOUS
10
0.0830133
20
0.297371
11
0.08
21
0.296772
0
LINE
8
BLACK
6
CONTINUOUS
10
0.08
20
0.296772
11
0.02
21
0.296772
0
LINE
8
BLACK
6
CONTINUOUS
10
0.02
20
0.296772
11
0.0169867
21
0.297371
0
LINE
8
BLACK
6
CONTINUOUS
10
0.0169867
20
0.297371
11
0.0144322
21
0.299078
0
LINE
8
BLACK
6
CONTINUOUS
10
0.0144322
20
0.299078
11
0.0127254
21
0.301632
0
LINE
8
BLACK
6
CONTINUOUS
10
0.0127254
20
0.301632
11
0.012126
21
0.304646
0
LINE
8
BLACK
6
CONTINUOUS
10
0.012126
20
0.304646
11
0.012126
21
0.364646
0
LINE
8
BLACK
6
CONTINUOUS
10
0.012126
20
0.364646
11
0.0127254
21
0.367659
0
LINE
8
BLACK
6
CONTINUOUS
10
0.0127254
20
0.367659
11
0.0144322
21
0.370213
0
LINE
8
BLACK
6
CONTINUOUS
10
0.0144322
20
0.370213
11
0.0169867
21
0.37192
0
LINE
8
BLACK
6
CONTINUOUS
10
0.0169867
20
0.37192
11
0.02
21
0.37252
0
LINE
8
BLACK
6
CONTINUOUS
10
0.02
20
0.37252
11
0.08
21
0.37252
0
LINE
8
BLACK
6
CONTINUOUS
10
0.08
20
0.37252
11
0.0830133
21
0.37192
0
LINE
8
BLACK
6
CONTINUOUS
10
0.183013
20
0.37192
11
0.185568
21
0.370213
0
LINE
8
BLACK
6
CONTINUOUS
10
0.185568
20
0.370213
11
0.187275
21
0.367659
0
LINE
8
BLACK
6
CONTINUOUS
10
0.187275
20
0.367659
11
0.187874
21
0.364646
0
LINE
8
BLACK
6
CONTINUOUS
10
0.187874
20
0.364646
11
0.187874
21
0.304646
0
LINE
8
BLACK
6
CONTINUOUS
10
0.187874
20
0.304646
11
0.187275
21
0.301632
0
LINE
8
BLACK
6
CONTINUOUS
10
0.187275
20
0.301632
11
0.185568
21
0.299078
0
LINE
8
BLACK
6
CONTINUOUS
10
0.185568
20
0.299078
11
0.183013
21
0.297371
0
LINE
8
BLACK
6
CONTINUOUS
10
0.183013
20
0.297371
11
0.18
21
0.296772
0
LINE
8
BLACK
6
CONTINUOUS
10
0.18
20
0.296772
11
0.12
21
0.296772
0
LINE
8
BLACK
6
CONTINUOUS
10
0.12
20
0.296772
11
0.116987
21
0.297371
0
LINE
8
BLACK
6
CONTINUOUS
10
0.116987
20
0.297371
11
0.114432
21
0.299078
0
LINE
8
BLACK
6
CONTINUOUS
10
0.114432
20
0.299078
11
0.112725
21
0.301632
0
LINE
8
BLACK
6
CONTINUOUS
10
0.112725
20
0.301632
11
0.112126
21
0.304646
0
LINE
8
BLACK
6
CONTINUOUS
10
0.112126
20
0.304646
11
0.112126
21
0.364646
0
LINE
8
BLACK
6
CONTINUOUS
10
0.112126
20
0.364646
11
0.112725
21
0.367659
0
LINE
8
BLACK
6
CONTINUOUS
10
0.112725
20
0.367659
11
0.114432
21
0.370213
0
LINE
8
BLACK
6
CONTINUOUS
10
0.114432
20
0.370213
11
0.116987
21
0.37192
0
LINE
8
BLACK
6
CONTINUOUS
10
0.116987
20
0.37192
11
0.12
21
0.37252
0
LINE
8
BLACK
6
CONTINUOUS
10
0.12
20
0.37252
11
0.18
21
0.37252
0
LINE
8
BLACK
6
CONTINUOUS
10
0.18
20
0.37252
11
0.183013
21
0.37192
0
LINE
8
BLACK
6
CONTINUOUS
10
0.283013
20
0.37192
11
0.285568
21
0.370213
0
LINE
8
BLACK
6
CONTINUOUS
10
0.285568
20
0.370213
11
0.287275
21
0.367659
0
LINE
8
BLACK
6
CONTINUOUS
10
0.287275
20
0.367659
11
0.287874
21
0.364646
0
LINE
8
BLACK
6
CONTINUOUS
10
0.287874
20
0.364646
11
0.287874
21
0.304646
0
LINE
8
BLACK
6
CONTINUOUS
10
0.287874
20
0.304646
11
0.287275
21
0.301632
0
LINE
8
BLACK
6
CONTINUOUS
10
0.287275
20
0.301632
11
0.285568
21
0.299078
0
LINE
8
BLACK
6
CONTINUOUS
10
0.285568
20
0.299078
11
0.283013
21
0.297371
0
LINE
8
BLACK
6
CONTINUOUS
10
0.283013
20
0.297371
11
0.28
21
0.296772
0
LINE
8
BLACK
6
CONTINUOUS
10
0.28
20
0.296772
11
0.22
21
0.296772
0
LINE
8
BLACK
6
CONTINUOUS
10
0.22
20
0.296772
11
0.216987
21
0.297371
0
LINE
8
BLACK
6
CONTINUOUS
10
0.216987
20
0.297371
11
0.214432
21
0.299078
0
LINE
8
BLACK
6
CONTINUOUS
10
0.214432
20
0.299078
11
0.212725
21
0.301632
0
LINE
8
BLACK
6
CONTINUOUS
10
0.212725
20
0.301632
11
0.212126
21
0.304646
0
LINE
8
BLACK
6
CONTINUOUS
10
0.212126
20
0.304646
11
0.212126
21
0.364646
0
LINE
8
BLACK
6
CONTINUOUS
10
0.212126
20
0.364646
11
0.212725
21
0.367659
0
LINE
8
BLACK
6
CONTINUOUS
10
0.212725
20
0.367659
11
0.214432
21
0.370213
0
LINE
8
BLACK
6
CONTINUOUS
10
0.214432
20
0.370213
11
0.216987
21
0.37192
0
LINE
8
BLACK
6
CONTINUOUS
10
0.216987
20
0.37192
11
0.22
21
0.37252
0
LINE
8
BLACK
6
CONTINUOUS
10
0.22
20
0.37252
11
0.28
21
0.37252
0
LINE
8
BLACK
6
CONTINUOUS
10
0.28
20
0.37252
11
0.283013
21
0.37192
0
LINE
8
BLACK
6
CONTINUOUS
10
1.78301
20
0.37192
11
1.78557
21
0.370213
0
LINE
8
BLACK
6
CONTINUOUS
10
1.78557
20
0.370213
11
1.78727
21
0.367659
0
LINE
8
BLACK
6
CONTINUOUS
10
1.78727
20
0.367659
11
1.78787
21
0.364646
0
LINE
8
BLACK
6
CONTINUOUS
10
1.78787
20
0.364646
11
1.78787
21
0.304646
0
LINE
8
BLACK
6
CONTINUOUS
10
1.78787
20
0.304646
11
1.78727
21
0.301632
0
LINE
8
BLACK
6
CONTINUOUS
10
1.78727
20
0.301632
11
1.78557
21
0.299078
0
LINE
8
BLACK
6
CONTINUOUS
10
1.78557
20
0.299078
11
1.78301
21
0.297371
0
LINE
8
BLACK
6
CONTINUOUS
10
1.78301
20
0.297371
11
1.78
21
0.296772
0
LINE
8
BLACK
6
CONTINUOUS
10
1.78
20
0.296772
11
1.72
21
0.296772
0
LINE
8
BLACK
6
CONTINUOUS
10
1.72
20
0.296772
11
1.71699
21
0.297371
0
LINE
8
BLACK
6
CONTINUOUS
10
1.71699
20
0.297371
11
1.71443
21
0.299078
0
LINE
8
BLACK
6
CONTINUOUS
10
1.71443
20
0.299078
11
1.71273
21
0.301632
0
LINE
8
BLACK
6
CONTINUOUS
10
1.71273
20
0.301632
11
1.71213
21
0.304646
0
LINE
8
BLACK
6
CONTINUOUS
10
1.71213
20
0.304646
11
1.71213
21
0.364646
0
LINE
8
BLACK
6
CONTINUOUS
10
1.71213
20
0.364646
11
1.71273
21
0.367659
0
LINE
8
BLACK
6
CONTINUOUS
10
1.71273
20
0.367659
11
1.71443
21
0.370213
0
LINE
8
BLACK
6
CONTINUOUS
10
1.71443
20
0.370213
11
1.71699
21
0.37192
0
LINE
8
BLACK
6
CONTINUOUS
10
1.71699
20
0.37192
11
1.72
21
0.37252
0
LINE
8
BLACK
6
CONTINUOUS
10
1.72
20
0.37252
11
1.78
21
0.37252
0
LINE
8
BLACK
6
CONTINUOUS
10
1.78
20
0.37252
11
1.78301
21
0.37192
0
LINE
8
BLACK
6
CONTINUOUS
10
1.88301
20
0.37192
11
1.88557
21
0.370213
0
LINE
8
BLACK
6
CONTINUOUS
10
1.88557
20
0.370213
11
1.88727
21
0.367659
0
LINE
8
BLACK
6
CONTINUOUS
10
1.88727
20
0.367659
11
1.88787
21
0.364646
0
LINE
8
BLACK
6
CONTINUOUS
10
1.88787
20
0.364646
11
1.88787
21
0.304646
0
LINE
8
BLACK
6
CONTINUOUS
10
1.88787
20
0.304646
11
1.88727
21
0.301632
0
LINE
8
BLACK
6
CONTINUOUS
10
1.88727
20
0.301632
11
1.88557
21
0.299078
0
LINE
8
BLACK
6
CONTINUOUS
10
1.88557
20
0.299078
11
1.88301
21
0.297371
0
LINE
8
BLACK
6
CONTINUOUS
10
1.88301
20
0.297371
11
1.88
21
0.296772
0
LINE
8
BLACK
6
CONTINUOUS
10
1.88
20
0.296772
11
1.82
21
0.296772
0
LINE
8
BLACK
6
CONTINUOUS
10
1.82
20
0.296772
11
1.81699
21
0.297371
0
LINE
8
BLACK
6
CONTINUOUS
10
1.81699
20
0.297371
11
1.81443
21
0.299078
0
LINE
8
BLACK
6
CONTINUOUS
10
1.81443
20
0.299078
11
1.81273
21
0.301632
0
LINE
8
BLACK
6
CONTINUOUS
10
1.81273
20
0.301632
11
1.81213
21
0.304646
0
LINE
8
BLACK
6
CONTINUOUS
10
1.81213
20
0.304646
11
1.81213
21
0.364646
0
LINE
8
BLACK
6
CONTINUOUS
10
1.81213
20
0.364646
11
1.81273
21
0.367659
0
LINE
8
BLACK
6
CONTINUOUS
10
1.81273
20
0.367659
11
1.81443
21
0.370213
0
LINE
8
BLACK
6
CONTINUOUS
10
1.81443
20
0.370213
11
1.81699
21
0.37192
0
LINE
8
BLACK
6
CONTINUOUS
10
1.81699
20
0.37192
11
1.82
21
0.37252
0
LINE
8
BLACK
6
CONTINUOUS
10
1.82
20
0.37252
11
1.88
21
0.37252
0
LINE
8
BLACK
6
CONTINUOUS
10
1.88
20
0.37252
11
1.88301
21
0.37192
0
LINE
8
BLACK
6
CONTINUOUS
10
1.98301
20
0.37192
11
1.98557
21
0.370213
0
LINE
8
BLACK
6
CONTINUOUS
10
1.98557
20
0.370213
11
1.98727
21
0.367659
0
LINE
8
BLACK
6
CONTINUOUS
10
1.98727
20
0.367659
11
1.98787
21
0.364646
0
LINE
8
BLACK
6
CONTINUOUS
10
1.98787
20
0.364646
11
1.98787
21
0.304646
0
LINE
8
BLACK
6
CONTINUOUS
10
1.98787
20
0.304646
11
1.98727
21
0.301632
0
LINE
8
BLACK
6
CONTINUOUS
10
1.98727
20
0.301632
11
1.98557
21
0.299078
0
LINE
8
BLACK
6
CONTINUOUS
10
1.98557
20
0.299078
11
1.98301
21
0.297371
0
LINE
8
BLACK
6
CONTINUOUS
10
1.98301
20
0.297371
11
1.98
21
0.296772
0
LINE
8
BLACK
6
CONTINUOUS
10
1.98
20
0.296772
11
1.92
21
0.296772
0
LINE
8
BLACK
6
CONTINUOUS
10
1.92
20
0.296772
11
1.91699
21
0.297371
0
LINE
8
BLACK
6
CONTINUOUS
10
1.91699
20
0.297371
11
1.91443
21
0.299078
0
LINE
8
BLACK
6
CONTINUOUS
10
1.91443
20
0.299078
11
1.91273
21
0.301632
0
LINE
8
BLACK
6
CONTINUOUS
10
1.91273
20
0.301632
11
1.91213
21
0.304646
0
LINE
8
BLACK
6
CONTINUOUS
10
1.91213
20
0.304646
11
1.91213
21
0.364646
0
LINE
8
BLACK
6
CONTINUOUS
10
1.91213
20
0.364646
11
1.91273
21
0.367659
0
LINE
8
BLACK
6
CONTINUOUS
10
1.91273
20
0.367659
11
1.91443
21
0.370213
0
LINE
8
BLACK
6
CONTINUOUS
10
1.91443
20
0.370213
11
1.91699
21
0.37192
0
LINE
8
BLACK
6
CONTINUOUS
10
1.91699
20
0.37192
11
1.92
21
0.37252
0
LINE
8
BLACK
6
CONTINUOUS
10
1.92
20
0.37252
11
1.98
21
0.37252
0
LINE
8
BLACK
6
CONTINUOUS
10
1.98
20
0.37252
11
1.98301
21
0.37192
0
LINE
8
BLACK
6
CONTINUOUS
10
0.0826196
20
2.05696
11
0.0851741
21
2.05525
0
LINE
8
BLACK
6
CONTINUOUS
10
0.0851741
20
2.05525
11
0.0868809
21
2.0527
0
LINE
8
BLACK
6
CONTINUOUS
10
0.0868809
20
2.0527
11
0.0874803
21
2.04969
0
LINE
8
BLACK
6
CONTINUOUS
10
0.0874803
20
2.04969
11
0.0874803
21
1.98969
0
LINE
8
BLACK
6
CONTINUOUS
10
0.0874803
20
1.98969
11
0.0868809
21
1.98667
0
LINE
8
BLACK
6
CONTINUOUS
10
0.0868809
20
1.98667
11
0.0851741
21
1.98412
0
LINE
8
BLACK
6
CONTINUOUS
10
0.0851741
20
1.98412
11
0.0826196
21
1.98241
0
LINE
8
BLACK
6
CONTINUOUS
10
0.0826196
20
1.98241
11
0.0796063
21
1.98181
0
LINE
8
BLACK
6
CONTINUOUS
10
0.0796063
20
1.98181
11
0.0196063
21
1.98181
0
LINE
8
BLACK
6
CONTINUOUS
10
0.0196063
20
1.98181
11
0.016593
21
1.98241
0
LINE
8
BLACK
6
CONTINUOUS
10
0.016593
20
1.98241
11
0.0140385
21
1.98412
0
LINE
8
BLACK
6
CONTINUOUS
10
0.0140385
20
1.98412
11
0.0123317
21
1.98667
0
LINE
8
BLACK
6
CONTINUOUS
10
0.0123317
20
1.98667
11
0.0117323
21
1.98969
0
LINE
8
BLACK
6
CONTINUOUS
10
0.0117323
20
1.98969
11
0.0117323
21
2.04969
0
LINE
8
BLACK
6
CONTINUOUS
10
0.0117323
20
2.04969
11
0.0123317
21
2.0527
0
LINE
8
BLACK
6
CONTINUOUS
10
0.0123317
20
2.0527
11
0.0140385
21
2.05525
0
LINE
8
BLACK
6
CONTINUOUS
10
0.0140385
20
2.05525
11
0.016593
21
2.05696
0
LINE
8
BLACK
6
CONTINUOUS
10
0.016593
20
2.05696
11
0.0196063
21
2.05756
0
LINE
8
BLACK
6
CONTINUOUS
10
0.0196063
20
2.05756
11
0.0796063
21
2.05756
0
LINE
8
BLACK
6
CONTINUOUS
10
0.0796063
20
2.05756
11
0.0826196
21
2.05696
0
LINE
8
BLACK
6
CONTINUOUS
10
0.18262
20
2.05696
11
0.185174
21
2.05525
0
LINE
8
BLACK
6
CONTINUOUS
10
0.185174
20
2.05525
11
0.186881
21
2.0527
0
LINE
8
BLACK
6
CONTINUOUS
10
0.186881
20
2.0527
11
0.18748
21
2.04969
0
LINE
8
BLACK
6
CONTINUOUS
10
0.18748
20
2.04969
11
0.18748
21
1.98969
0
LINE
8
BLACK
6
CONTINUOUS
10
0.18748
20
1.98969
11
0.186881
21
1.98667
0
LINE
8
BLACK
6
CONTINUOUS
10
0.186881
20
1.98667
11
0.185174
21
1.98412
0
LINE
8
BLACK
6
CONTINUOUS
10
0.185174
20
1.98412
11
0.18262
21
1.98241
0
LINE
8
BLACK
6
CONTINUOUS
10
0.18262
20
1.98241
11
0.179606
21
1.98181
0
LINE
8
BLACK
6
CONTINUOUS
10
0.179606
20
1.98181
11
0.119606
21
1.98181
0
LINE
8
BLACK
6
CONTINUOUS
10
0.119606
20
1.98181
11
0.116593
21
1.98241
0
LINE
8
BLACK
6
CONTINUOUS
10
0.116593
20
1.98241
11
0.114039
21
1.98412
0
LINE
8
BLACK
6
CONTINUOUS
10
0.114039
20
1.98412
11
0.112332
21
1.98667
0
LINE
8
BLACK
6
CONTINUOUS
10
0.112332
20
1.98667
11
0.111732
21
1.98969
0
LINE
8
BLACK
6
CONTINUOUS
10
0.111732
20
1.98969
11
0.111732
21
2.04969
0
LINE
8
BLACK
6
CONTINUOUS
10
0.111732
20
2.04969
11
0.112332
21
2.0527
0
LINE
8
BLACK
6
CONTINUOUS
10
0.112332
20
2.0527
11
0.114039
21
2.05525
0
LINE
8
BLACK
6
CONTINUOUS
10
0.114039
20
2.05525
11
0.116593
21
2.05696
0
LINE
8
BLACK
6
CONTINUOUS
10
0.116593
20
2.05696
11
0.119606
21
2.05756
0
LINE
8
BLACK
6
CONTINUOUS
10
0.119606
20
2.05756
11
0.179606
21
2.05756
0
LINE
8
BLACK
6
CONTINUOUS
10
0.179606
20
2.05756
11
0.18262
21
2.05696
0
LINE
8
BLACK
6
CONTINUOUS
10
0.28262
20
2.05696
11
0.285174
21
2.05525
0
LINE
8
BLACK
6
CONTINUOUS
10
0.285174
20
2.05525
11
0.286881
21
2.0527
0
LINE
8
BLACK
6
CONTINUOUS
10
0.286881
20
2.0527
11
0.28748
21
2.04969
0
LINE
8
BLACK
6
CONTINUOUS
10
0.28748
20
2.04969
11
0.28748
21
1.98969
0
LINE
8
BLACK
6
CONTINUOUS
10
0.28748
20
1.98969
11
0.286881
21
1.98667
0
LINE
8
BLACK
6
CONTINUOUS
10
0.286881
20
1.98667
11
0.285174
21
1.98412
0
LINE
8
BLACK
6
CONTINUOUS
10
0.285174
20
1.98412
11
0.28262
21
1.98241
0
LINE
8
BLACK
6
CONTINUOUS
10
0.28262
20
1.98241
11
0.279606
21
1.98181
0
LINE
8
BLACK
6
CONTINUOUS
10
0.279606
20
1.98181
11
0.219606
21
1.98181
0
LINE
8
BLACK
6
CONTINUOUS
10
0.219606
20
1.98181
11
0.216593
21
1.98241
0
LINE
8
BLACK
6
CONTINUOUS
10
0.216593
20
1.98241
11
0.214039
21
1.98412
0
LINE
8
BLACK
6
CONTINUOUS
10
0.214039
20
1.98412
11
0.212332
21
1.98667
0
LINE
8
BLACK
6
CONTINUOUS
10
0.212332
20
1.98667
11
0.211732
21
1.98969
0
LINE
8
BLACK
6
CONTINUOUS
10
0.211732
20
1.98969
11
0.211732
21
2.04969
0
LINE
8
BLACK
6
CONTINUOUS
10
0.211732
20
2.04969
11
0.212332
21
2.0527
0
LINE
8
BLACK
6
CONTINUOUS
10
0.212332
20
2.0527
11
0.214039
21
2.05525
0
LINE
8
BLACK
6
CONTINUOUS
10
0.214039
20
2.05525
11
0.216593
21
2.05696
0
LINE
8
BLACK
6
CONTINUOUS
10
0.216593
20
2.05696
11
0.219606
21
2.05756
0
LINE
8
BLACK
6
CONTINUOUS
10
0.219606
20
2.05756
11
0.279606
21
2.05756
0
LINE
8
BLACK
6
CONTINUOUS
10
0.279606
20
2.05756
11
0.28262
21
2.05696
0
LINE
8
BLACK
6
CONTINUOUS
10
0.38262
20
2.05696
11
0.385174
21
2.05525
0
LINE
8
BLACK
6
CONTINUOUS
10
0.385174
20
2.05525
11
0.386881
21
2.0527
0
LINE
8
BLACK
6
CONTINUOUS
10
0.386881
20
2.0527
11
0.38748
21
2.04969
0
LINE
8
BLACK
6
CONTINUOUS
10
0.38748
20
2.04969
11
0.38748
21
1.98969
0
LINE
8
BLACK
6
CONTINUOUS
10
0.38748
20
1.98969
11
0.386881
21
1.98667
0
LINE
8
BLACK
6
CONTINUOUS
10
0.386881
20
1.98667
11
0.385174
21
1.98412
0
LINE
8
BLACK
6
CONTINUOUS
10
0.385174
20
1.98412
11
0.38262
21
1.98241
0
LINE
8
BLACK
6
CONTINUOUS
10
0.38262
20
1.98241
11
0.379606
21
1.98181
0
LINE
8
BLACK
6
CONTINUOUS
10
0.379606
20
1.98181
11
0.319606
21
1.98181
0
LINE
8
BLACK
6
CONTINUOUS
10
0.319606
20
1.98181
11
0.316593
21
1.98241
0
LINE
8
BLACK
6
CONTINUOUS
10
0.316593
20
1.98241
11
0.314039
21
1.98412
0
LINE
8
BLACK
6
CONTINUOUS
10
0.314039
20
1.98412
11
0.312332
21
1.98667
0
LINE
8
BLACK
6
CONTINUOUS
10
0.312332
20
1.98667
11
0.311732
21
1.98969
0
LINE
8
BLACK
6
CONTINUOUS
10
0.311732
20
1.98969
11
0.311732
21
2.04969
0
LINE
8
BLACK
6
CONTINUOUS
10
0.311732
20
2.04969
11
0.312332
21
2.0527
0
LINE
8
BLACK
6
CONTINUOUS
10
0.312332
20
2.0527
11
0.314039
21
2.05525
0
LINE
8
BLACK
6
CONTINUOUS
10
0.314039
20
2.05525
11
0.316593
21
2.05696
0
LINE
8
BLACK
6
CONTINUOUS
10
0.316593
20
2.05696
11
0.319606
21
2.05756
0
LINE
8
BLACK
6
CONTINUOUS
10
0.319606
20
2.05756
11
0.379606
21
2.05756
0
LINE
8
BLACK
6
CONTINUOUS
10
0.379606
20
2.05756
11
0.38262
21
2.05696
0
LINE
8
BLACK
6
CONTINUOUS
10
0.48262
20
2.05696
11
0.485174
21
2.05525
0
LINE
8
BLACK
6
CONTINUOUS
10
0.485174
20
2.05525
11
0.486881
21
2.0527
0
LINE
8
BLACK
6
CONTINUOUS
10
0.486881
20
2.0527
11
0.48748
21
2.04969
0
LINE
8
BLACK
6
CONTINUOUS
10
0.48748
20
2.04969
11
0.48748
21
1.98969
0
LINE
8
BLACK
6
CONTINUOUS
10
0.48748
20
1.98969
11
0.486881
21
1.98667
0
LINE
8
BLACK
6
CONTINUOUS
10
0.486881
20
1.98667
11
0.485174
21
1.98412
0
LINE
8
BLACK
6
CONTINUOUS
10
0.485174
20
1.98412
11
0.48262
21
1.98241
0
LINE
8
BLACK
6
CONTINUOUS
10
0.48262
20
1.98241
11
0.479606
21
1.98181
0
LINE
8
BLACK
6
CONTINUOUS
10
0.479606
20
1.98181
11
0.419606
21
1.98181
0
LINE
8
BLACK
6
CONTINUOUS
10
0.419606
20
1.98181
11
0.416593
21
1.98241
0
LINE
8
BLACK
6
CONTINUOUS
10
0.416593
20
1.98241
11
0.414039
21
1.98412
0
LINE
8
BLACK
6
CONTINUOUS
10
0.414039
20
1.98412
11
0.412332
21
1.98667
0
LINE
8
BLACK
6
CONTINUOUS
10
0.412332
20
1.98667
11
0.411732
21
1.98969
0
LINE
8
BLACK
6
CONTINUOUS
10
0.411732
20
1.98969
11
0.411732
21
2.04969
0
LINE
8
BLACK
6
CONTINUOUS
10
0.411732
20
2.04969
11
0.412332
21
2.0527
0
LINE
8
BLACK
6
CONTINUOUS
10
0.412332
20
2.0527
11
0.414039
21
2.05525
0
LINE
8
BLACK
6
CONTINUOUS
10
0.414039
20
2.05525
11
0.416593
21
2.05696
0
LINE
8
BLACK
6
CONTINUOUS
10
0.416593
20
2.05696
11
0.419606
21
2.05756
0
LINE
8
BLACK
6
CONTINUOUS
10
0.419606
20
2.05756
11
0.479606
21
2.05756
0
LINE
8
BLACK
6
CONTINUOUS
10
0.479606
20
2.05756
11
0.48262
21
2.05696
0
LINE
8
BLACK
6
CONTINUOUS
10
0.58262
20
2.05696
11
0.585174
21
2.05525
0
LINE
8
BLACK
6
CONTINUOUS
10
0.585174
20
2.05525
11
0.586881
21
2.0527
0
LINE
8
BLACK
6
CONTINUOUS
10
0.586881
20
2.0527
11
0.58748
21
2.04969
0
LINE
8
BLACK
6
CONTINUOUS
10
0.58748
20
2.04969
11
0.58748
21
1.98969
0
LINE
8
BLACK
6
CONTINUOUS
10
0.58748
20
1.98969
11
0.586881
21
1.98667
0
LINE
8
BLACK
6
CONTINUOUS
10
0.586881
20
1.98667
11
0.585174
21
1.98412
0
LINE
8
BLACK
6
CONTINUOUS
10
0.585174
20
1.98412
11
0.58262
21
1.98241
0
LINE
8
BLACK
6
CONTINUOUS
10
0.58262
20
1.98241
11
0.579606
21
1.98181
0
LINE
8
BLACK
6
CONTINUOUS
10
0.579606
20
1.98181
11
0.519606
21
1.98181
0
LINE
8
BLACK
6
CONTINUOUS
10
0.519606
20
1.98181
11
0.516593
21
1.98241
0
LINE
8
BLACK
6
CONTINUOUS
10
0.516593
20
1.98241
11
0.514039
21
1.98412
0
LINE
8
BLACK
6
CONTINUOUS
10
0.514039
20
1.98412
11
0.512332
21
1.98667
0
LINE
8
BLACK
6
CONTINUOUS
10
0.512332
20
1.98667
11
0.511732
21
1.98969
0
LINE
8
BLACK
6
CONTINUOUS
10
0.511732
20
1.98969
11
0.511732
21
2.04969
0
LINE
8
BLACK
6
CONTINUOUS
10
0.511732
20
2.04969
11
0.512332
21
2.0527
0
LINE
8
BLACK
6
CONTINUOUS
10
0.512332
20
2.0527
11
0.514039
21
2.05525
0
LINE
8
BLACK
6
CONTINUOUS
10
0.514039
20
2.05525
11
0.516593
21
2.05696
0
LINE
8
BLACK
6
CONTINUOUS
10
0.516593
20
2.05696
11
0.519606
21
2.05756
0
LINE
8
BLACK
6
CONTINUOUS
10
0.519606
20
2.05756
11
0.579606
21
2.05756
0
LINE
8
BLACK
6
CONTINUOUS
10
0.579606
20
2.05756
11
0.58262
21
2.05696
0
LINE
8
BLACK
6
CONTINUOUS
10
0.68262
20
2.05696
11
0.685174
21
2.05525
0
LINE
8
BLACK
6
CONTINUOUS
10
0.685174
20
2.05525
11
0.686881
21
2.0527
0
LINE
8
BLACK
6
CONTINUOUS
10
0.686881
20
2.0527
11
0.68748
21
2.04969
0
LINE
8
BLACK
6
CONTINUOUS
10
0.68748
20
2.04969
11
0.68748
21
1.98969
0
LINE
8
BLACK
6
CONTINUOUS
10
0.68748
20
1.98969
11
0.686881
21
1.98667
0
LINE
8
BLACK
6
CONTINUOUS
10
0.686881
20
1.98667
11
0.685174
21
1.98412
0
LINE
8
BLACK
6
CONTINUOUS
10
0.685174
20
1.98412
11
0.68262
21
1.98241
0
LINE
8
BLACK
6
CONTINUOUS
10
0.68262
20
1.98241
11
0.679606
21
1.98181
0
LINE
8
BLACK
6
CONTINUOUS
10
0.679606
20
1.98181
11
0.619606
21
1.98181
0
LINE
8
BLACK
6
CONTINUOUS
10
0.619606
20
1.98181
11
0.616593
21
1.98241
0
LINE
8
BLACK
6
CONTINUOUS
10
0.616593
20
1.98241
11
0.614039
21
1.98412
0
LINE
8
BLACK
6
CONTINUOUS
10
0.614039
20
1.98412
11
0.612332
21
1.98667
0
LINE
8
BLACK
6
CONTINUOUS
10
0.612332
20
1.98667
11
0.611732
21
1.98969
0
LINE
8
BLACK
6
CONTINUOUS
10
0.611732
20
1.98969
11
0.611732
21
2.04969
0
LINE
8
BLACK
6
CONTINUOUS
10
0.611732
20
2.04969
11
0.612332
21
2.0527
0
LINE
8
BLACK
6
CONTINUOUS
10
0.612332
20
2.0527
11
0.614039
21
2.05525
0
LINE
8
BLACK
6
CONTINUOUS
10
0.614039
20
2.05525
11
0.616593
21
2.05696
0
LINE
8
BLACK
6
CONTINUOUS
10
0.616593
20
2.05696
11
0.619606
21
2.05756
0
LINE
8
BLACK
6
CONTINUOUS
10
0.619606
20
2.05756
11
0.679606
21
2.05756
0
LINE
8
BLACK
6
CONTINUOUS
10
0.679606
20
2.05756
11
0.68262
21
2.05696
0
LINE
8
BLACK
6
CONTINUOUS
10
0.78262
20
2.05696
11
0.785174
21
2.05525
0
LINE
8
BLACK
6
CONTINUOUS
10
0.785174
20
2.05525
11
0.786881
21
2.0527
0
LINE
8
BLACK
6
CONTINUOUS
10
0.786881
20
2.0527
11
0.78748
21
2.04969
0
LINE
8
BLACK
6
CONTINUOUS
10
0.78748
20
2.04969
11
0.78748
21
1.98969
0
LINE
8
BLACK
6
CONTINUOUS
10
0.78748
20
1.98969
11
0.786881
21
1.98667
0
LINE
8
BLACK
6
CONTINUOUS
10
0.786881
20
1.98667
11
0.785174
21
1.98412
0
LINE
8
BLACK
6
CONTINUOUS
10
0.785174
20
1.98412
11
0.78262
21
1.98241
0
LINE
8
BLACK
6
CONTINUOUS
10
0.78262
20
1.98241
11
0.779606
21
1.98181
0
LINE
8
BLACK
6
CONTINUOUS
10
0.779606
20
1.98181
11
0.719606
21
1.98181
0
LINE
8
BLACK
6
CONTINUOUS
10
0.719606
20
1.98181
11
0.716593
21
1.98241
0
LINE
8
BLACK
6
CONTINUOUS
10
0.716593
20
1.98241
11
0.714039
21
1.98412
0
LINE
8
BLACK
6
CONTINUOUS
10
0.714039
20
1.98412
11
0.712332
21
1.98667
0
LINE
8
BLACK
6
CONTINUOUS
10
0.712332
20
1.98667
11
0.711732
21
1.98969
0
LINE
8
BLACK
6
CONTINUOUS
10
0.711732
20
1.98969
11
0.711732
21
2.04969
0
LINE
8
BLACK
6
CONTINUOUS
10
0.711732
20
2.04969
11
0.712332
21
2.0527
0
LINE
8
BLACK
6
CONTINUOUS
10
0.712332
20
2.0527
11
0.714039
21
2.05525
0
LINE
8
BLACK
6
CONTINUOUS
10
0.714039
20
2.05525
11
0.716593
21
2.05696
0
LINE
8
BLACK
6
CONTINUOUS
10
0.716593
20
2.05696
11
0.719606
21
2.05756
0
LINE
8
BLACK
6
CONTINUOUS
10
0.719606
20
2.05756
11
0.779606
21
2.05756
0
LINE
8
BLACK
6
CONTINUOUS
10
0.779606
20
2.05756
11
0.78262
21
2.05696
0
LINE
8
BLACK
6
CONTINUOUS
10
0.88262
20
2.05696
11
0.885174
21
2.05525
0
LINE
8
BLACK
6
CONTINUOUS
10
0.885174
20
2.05525
11
0.886881
21
2.0527
0
LINE
8
BLACK
6
CONTINUOUS
10
0.886881
20
2.0527
11
0.88748
21
2.04969
0
LINE
8
BLACK
6
CONTINUOUS
10
0.88748
20
2.04969
11
0.88748
21
1.98969
0
LINE
8
BLACK
6
CONTINUOUS
10
0.88748
20
1.98969
11
0.886881
21
1.98667
0
LINE
8
BLACK
6
CONTINUOUS
10
0.886881
20
1.98667
11
0.885174
21
1.98412
0
LINE
8
BLACK
6
CONTINUOUS
10
0.885174
20
1.98412
11
0.88262
21
1.98241
0
LINE
8
BLACK
6
CONTINUOUS
10
0.88262
20
1.98241
11
0.879606
21
1.98181
0
LINE
8
BLACK
6
CONTINUOUS
10
0.879606
20
1.98181
11
0.819606
21
1.98181
0
LINE
8
BLACK
6
CONTINUOUS
10
0.819606
20
1.98181
11
0.816593
21
1.98241
0
LINE
8
BLACK
6
CONTINUOUS
10
0.816593
20
1.98241
11
0.814039
21
1.98412
0
LINE
8
BLACK
6
CONTINUOUS
10
0.814039
20
1.98412
11
0.812332
21
1.98667
0
LINE
8
BLACK
6
CONTINUOUS
10
0.812332
20
1.98667
11
0.811732
21
1.98969
0
LINE
8
BLACK
6
CONTINUOUS
10
0.811732
20
1.98969
11
0.811732
21
2.04969
0
LINE
8
BLACK
6
CONTINUOUS
10
0.811732
20
2.04969
11
0.812332
21
2.0527
0
LINE
8
BLACK
6
CONTINUOUS
10
0.812332
20
2.0527
11
0.814039
21
2.05525
0
LINE
8
BLACK
6
CONTINUOUS
10
0.814039
20
2.05525
11
0.816593
21
2.05696
0
LINE
8
BLACK
6
CONTINUOUS
10
0.816593
20
2.05696
11
0.819606
21
2.05756
0
LINE
8
BLACK
6
CONTINUOUS
10
0.819606
20
2.05756
11
0.879606
21
2.05756
0
LINE
8
BLACK
6
CONTINUOUS
10
0.879606
20
2.05756
11
0.88262
21
2.05696
0
LINE
8
BLACK
6
CONTINUOUS
10
0.98262
20
2.05696
11
0.985174
21
2.05525
0
LINE
8
BLACK
6
CONTINUOUS
10
0.985174
20
2.05525
11
0.986881
21
2.0527
0
LINE
8
BLACK
6
CONTINUOUS
10
0.986881
20
2.0527
11
0.98748
21
2.04969
0
LINE
8
BLACK
6
CONTINUOUS
10
0.98748
20
2.04969
11
0.98748
21
1.98969
0
LINE
8
BLACK
6
CONTINUOUS
10
0.98748
20
1.98969
11
0.986881
21
1.98667
0
LINE
8
BLACK
6
CONTINUOUS
10
0.986881
20
1.98667
11
0.985174
21
1.98412
0
LINE
8
BLACK
6
CONTINUOUS
10
0.985174
20
1.98412
11
0.98262
21
1.98241
0
LINE
8
BLACK
6
CONTINUOUS
10
0.98262
20
1.98241
11
0.979606
21
1.98181
0
LINE
8
BLACK
6
CONTINUOUS
10
0.979606
20
1.98181
11
0.919606
21
1.98181
0
LINE
8
BLACK
6
CONTINUOUS
10
0.919606
20
1.98181
11
0.916593
21
1.98241
0
LINE
8
BLACK
6
CONTINUOUS
10
0.916593
20
1.98241
11
0.914039
21
1.98412
0
LINE
8
BLACK
6
CONTINUOUS
10
0.914039
20
1.98412
11
0.912332
21
1.98667
0
LINE
8
BLACK
6
CONTINUOUS
10
0.912332
20
1.98667
11
0.911732
21
1.98969
0
LINE
8
BLACK
6
CONTINUOUS
10
0.911732
20
1.98969
11
0.911732
21
2.04969
0
LINE
8
BLACK
6
CONTINUOUS
10
0.911732
20
2.04969
11
0.912332
21
2.0527
0
LINE
8
BLACK
6
CONTINUOUS
10
0.912332
20
2.0527
11
0.914039
21
2.05525
0
LINE
8
BLACK
6
CONTINUOUS
10
0.914039
20
2.05525
11
0.916593
21
2.05696
0
LINE
8
BLACK
6
CONTINUOUS
10
0.916593
20
2.05696
11
0.919606
21
2.05756
0
LINE
8
BLACK
6
CONTINUOUS
10
0.919606
20
2.05756
11
0.979606
21
2.05756
0
LINE
8
BLACK
6
CONTINUOUS
10
0.979606
20
2.05756
11
0.98262
21
2.05696
0
LINE
8
BLACK
6
CONTINUOUS
10
1.08262
20
2.05696
11
1.08517
21
2.05525
0
LINE
8
BLACK
6
CONTINUOUS
10
1.08517
20
2.05525
11
1.08688
21
2.0527
0
LINE
8
BLACK
6
CONTINUOUS
10
1.08688
20
2.0527
11
1.08748
21
2.04969
0
LINE
8
BLACK
6
CONTINUOUS
10
1.08748
20
2.04969
11
1.08748
21
1.98969
0
LINE
8
BLACK
6
CONTINUOUS
10
1.08748
20
1.98969
11
1.08688
21
1.98667
0
LINE
8
BLACK
6
CONTINUOUS
10
1.08688
20
1.98667
11
1.08517
21
1.98412
0
LINE
8
BLACK
6
CONTINUOUS
10
1.08517
20
1.98412
11
1.08262
21
1.98241
0
LINE
8
BLACK
6
CONTINUOUS
10
1.08262
20
1.98241
11
1.07961
21
1.98181
0
LINE
8
BLACK
6
CONTINUOUS
10
1.07961
20
1.98181
11
1.01961
21
1.98181
0
LINE
8
BLACK
6
CONTINUOUS
10
1.01961
20
1.98181
11
1.01659
21
1.98241
0
LINE
8
BLACK
6
CONTINUOUS
10
1.01659
20
1.98241
11
1.01404
21
1.98412
0
LINE
8
BLACK
6
CONTINUOUS
10
1.01404
20
1.98412
11
1.01233
21
1.98667
0
LINE
8
BLACK
6
CONTINUOUS
10
1.01233
20
1.98667
11
1.01173
21
1.98969
0
LINE
8
BLACK
6
CONTINUOUS
10
1.01173
20
1.98969
11
1.01173
21
2.04969
0
LINE
8
BLACK
6
CONTINUOUS
10
1.01173
20
2.04969
11
1.01233
21
2.0527
0
LINE
8
BLACK
6
CONTINUOUS
10
1.01233
20
2.0527
11
1.01404
21
2.05525
0
LINE
8
BLACK
6
CONTINUOUS
10
1.01404
20
2.05525
11
1.01659
21
2.05696
0
LINE
8
BLACK
6
CONTINUOUS
10
1.01659
20
2.05696
11
1.01961
21
2.05756
0
LINE
8
BLACK
6
CONTINUOUS
10
1.01961
20
2.05756
11
1.07961
21
2.05756
0
LINE
8
BLACK
6
CONTINUOUS
10
1.07961
20
2.05756
11
1.08262
21
2.05696
0
LINE
8
BLACK
6
CONTINUOUS
10
1.18262
20
2.05696
11
1.18517
21
2.05525
0
LINE
8
BLACK
6
CONTINUOUS
10
1.18517
20
2.05525
11
1.18688
21
2.0527
0
LINE
8
BLACK
6
CONTINUOUS
10
1.18688
20
2.0527
11
1.18748
21
2.04969
0
LINE
8
BLACK
6
CONTINUOUS
10
1.18748
20
2.04969
11
1.18748
21
1.98969
0
LINE
8
BLACK
6
CONTINUOUS
10
1.18748
20
1.98969
11
1.18688
21
1.98667
0
LINE
8
BLACK
6
CONTINUOUS
10
1.18688
20
1.98667
11
1.18517
21
1.98412
0
LINE
8
BLACK
6
CONTINUOUS
10
1.18517
20
1.98412
11
1.18262
21
1.98241
0
LINE
8
BLACK
6
CONTINUOUS
10
1.18262
20
1.98241
11
1.17961
21
1.98181
0
LINE
8
BLACK
6
CONTINUOUS
10
1.17961
20
1.98181
11
1.11961
21
1.98181
0
LINE
8
BLACK
6
CONTINUOUS
10
1.11961
20
1.98181
11
1.11659
21
1.98241
0
LINE
8
BLACK
6
CONTINUOUS
10
1.11659
20
1.98241
11
1.11404
21
1.98412
0
LINE
8
BLACK
6
CONTINUOUS
10
1.11404
20
1.98412
11
1.11233
21
1.98667
0
LINE
8
BLACK
6
CONTINUOUS
10
1.11233
20
1.98667
11
1.11173
21
1.98969
0
LINE
8
BLACK
6
CONTINUOUS
10
1.11173
20
1.98969
11
1.11173
21
2.04969
0
LINE
8
BLACK
6
CONTINUOUS
10
1.11173
20
2.04969
11
1.11233
21
2.0527
0
LINE
8
BLACK
6
CONTINUOUS
10
1.11233
20
2.0527
11
1.11404
21
2.05525
0
LINE
8
BLACK
6
CONTINUOUS
10
1.11404
20
2.05525
11
1.11659
21
2.05696
0
LINE
8
BLACK
6
CONTINUOUS
10
1.11659
20
2.05696
11
1.11961
21
2.05756
0
LINE
8
BLACK
6
CONTINUOUS
10
1.11961
20
2.05756
11
1.17961
21
2.05756
0
LINE
8
BLACK
6
CONTINUOUS
10
1.17961
20
2.05756
11
1.18262
21
2.05696
0
LINE
8
BLACK
6
CONTINUOUS
10
1.28262
20
2.05696
11
1.28517
21
2.05525
0
LINE
8
BLACK
6
CONTINUOUS
10
1.28517
20
2.05525
11
1.28688
21
2.0527
0
LINE
8
BLACK
6
CONTINUOUS
10
1.28688
20
2.0527
11
1.28748
21
2.04969
0
LINE
8
BLACK
6
CONTINUOUS
10
1.28748
20
2.04969
11
1.28748
21
1.98969
0
LINE
8
BLACK
6
CONTINUOUS
10
1.28748
20
1.98969
11
1.28688
21
1.98667
0
LINE
8
BLACK
6
CONTINUOUS
10
1.28688
20
1.98667
11
1.28517
21
1.98412
0
LINE
8
BLACK
6
CONTINUOUS
10
1.28517
20
1.98412
11
1.28262
21
1.98241
0
LINE
8
BLACK
6
CONTINUOUS
10
1.28262
20
1.98241
11
1.27961
21
1.98181
0
LINE
8
BLACK
6
CONTINUOUS
10
1.27961
20
1.98181
11
1.21961
21
1.98181
0
LINE
8
BLACK
6
CONTINUOUS
10
1.21961
20
1.98181
11
1.21659
21
1.98241
0
LINE
8
BLACK
6
CONTINUOUS
10
1.21659
20
1.98241
11
1.21404
21
1.98412
0
LINE
8
BLACK
6
CONTINUOUS
10
1.21404
20
1.98412
11
1.21233
21
1.98667
0
LINE
8
BLACK
6
CONTINUOUS
10
1.21233
20
1.98667
11
1.21173
21
1.98969
0
LINE
8
BLACK
6
CONTINUOUS
10
1.21173
20
1.98969
11
1.21173
21
2.04969
0
LINE
8
BLACK
6
CONTINUOUS
10
1.21173
20
2.04969
11
1.21233
21
2.0527
0
LINE
8
BLACK
6
CONTINUOUS
10
1.21233
20
2.0527
11
1.21404
21
2.05525
0
LINE
8
BLACK
6
CONTINUOUS
10
1.21404
20
2.05525
11
1.21659
21
2.05696
0
LINE
8
BLACK
6
CONTINUOUS
10
1.21659
20
2.05696
11
1.21961
21
2.05756
0
LINE
8
BLACK
6
CONTINUOUS
10
1.21961
20
2.05756
11
1.27961
21
2.05756
0
LINE
8
BLACK
6
CONTINUOUS
10
1.27961
20
2.05756
11
1.28262
21
2.05696
0
LINE
8
BLACK
6
CONTINUOUS
10
1.38262
20
2.05696
11
1.38517
21
2.05525
0
LINE
8
BLACK
6
CONTINUOUS
10
1.38517
20
2.05525
11
1.38688
21
2.0527
0
LINE
8
BLACK
6
CONTINUOUS
10
1.38688
20
2.0527
11
1.38748
21
2.04969
0
LINE
8
BLACK
6
CONTINUOUS
10
1.38748
20
2.04969
11
1.38748
21
1.98969
0
LINE
8
BLACK
6
CONTINUOUS
10
1.38748
20
1.98969
11
1.38688
21
1.98667
0
LINE
8
BLACK
6
CONTINUOUS
10
1.38688
20
1.98667
11
1.38517
21
1.98412
0
LINE
8
BLACK
6
CONTINUOUS
10
1.38517
20
1.98412
11
1.38262
21
1.98241
0
LINE
8
BLACK
6
CONTINUOUS
10
1.38262
20
1.98241
11
1.37961
21
1.98181
0
LINE
8
BLACK
6
CONTINUOUS
10
1.37961
20
1.98181
11
1.31961
21
1.98181
0
LINE
8
BLACK
6
CONTINUOUS
10
1.31961
20
1.98181
11
1.31659
21
1.98241
0
LINE
8
BLACK
6
CONTINUOUS
10
1.31659
20
1.98241
11
1.31404
21
1.98412
0
LINE
8
BLACK
6
CONTINUOUS
10
1.31404
20
1.98412
11
1.31233
21
1.98667
0
LINE
8
BLACK
6
CONTINUOUS
10
1.31233
20
1.98667
11
1.31173
21
1.98969
0
LINE
8
BLACK
6
CONTINUOUS
10
1.31173
20
1.98969
11
1.31173
21
2.04969
0
LINE
8
BLACK
6
CONTINUOUS
10
1.31173
20
2.04969
11
1.31233
21
2.0527
0
LINE
8
BLACK
6
CONTINUOUS
10
1.31233
20
2.0527
11
1.31404
21
2.05525
0
LINE
8
BLACK
6
CONTINUOUS
10
1.31404
20
2.05525
11
1.31659
21
2.05696
0
LINE
8
BLACK
6
CONTINUOUS
10
1.31659
20
2.05696
11
1.31961
21
2.05756
0
LINE
8
BLACK
6
CONTINUOUS
10
1.31961
20
2.05756
11
1.37961
21
2.05756
0
LINE
8
BLACK
6
CONTINUOUS
10
1.37961
20
2.05756
11
1.38262
21
2.05696
0
LINE
8
BLACK
6
CONTINUOUS
10
1.48262
20
2.05696
11
1.48517
21
2.05525
0
LINE
8
BLACK
6
CONTINUOUS
10
1.48517
20
2.05525
11
1.48688
21
2.0527
0
LINE
8
BLACK
6
CONTINUOUS
10
1.48688
20
2.0527
11
1.48748
21
2.04969
0
LINE
8
BLACK
6
CONTINUOUS
10
1.48748
20
2.04969
11
1.48748
21
1.98969
0
LINE
8
BLACK
6
CONTINUOUS
10
1.48748
20
1.98969
11
1.48688
21
1.98667
0
LINE
8
BLACK
6
CONTINUOUS
10
1.48688
20
1.98667
11
1.48517
21
1.98412
0
LINE
8
BLACK
6
CONTINUOUS
10
1.48517
20
1.98412
11
1.48262
21
1.98241
0
LINE
8
BLACK
6
CONTINUOUS
10
1.48262
20
1.98241
11
1.47961
21
1.98181
0
LINE
8
BLACK
6
CONTINUOUS
10
1.47961
20
1.98181
11
1.41961
21
1.98181
0
LINE
8
BLACK
6
CONTINUOUS
10
1.41961
20
1.98181
11
1.41659
21
1.98241
0
LINE
8
BLACK
6
CONTINUOUS
10
1.41659
20
1.98241
11
1.41404
21
1.98412
0
LINE
8
BLACK
6
CONTINUOUS
10
1.41404
20
1.98412
11
1.41233
21
1.98667
0
LINE
8
BLACK
6
CONTINUOUS
10
1.41233
20
1.98667
11
1.41173
21
1.98969
0
LINE
8
BLACK
6
CONTINUOUS
10
1.41173
20
1.98969
11
1.41173
21
2.04969
0
LINE
8
BLACK
6
CONTINUOUS
10
1.41173
20
2.04969
11
1.41233
21
2.0527
0
LINE
8
BLACK
6
CONTINUOUS
10
1.41233
20
2.0527
11
1.41404
21
2.05525
0
LINE
8
BLACK
6
CONTINUOUS
10
1.41404
20
2.05525
11
1.41659
21
2.05696
0
LINE
8
BLACK
6
CONTINUOUS
10
1.41659
20
2.05696
11
1.41961
21
2.05756
0
LINE
8
BLACK
6
CONTINUOUS
10
1.41961
20
2.05756
11
1.47961
21
2.05756
0
LINE
8
BLACK
6
CONTINUOUS
10
1.47961
20
2.05756
11
1.48262
21
2.05696
0
LINE
8
BLACK
6
CONTINUOUS
10
1.58262
20
2.05696
11
1.58517
21
2.05525
0
LINE
8
BLACK
6
CONTINUOUS
10
1.58517
20
2.05525
11
1.58688
21
2.0527
0
LINE
8
BLACK
6
CONTINUOUS
10
1.58688
20
2.0527
11
1.58748
21
2.04969
0
LINE
8
BLACK
6
CONTINUOUS
10
1.58748
20
2.04969
11
1.58748
21
1.98969
0
LINE
8
BLACK
6
CONTINUOUS
10
1.58748
20
1.98969
11
1.58688
21
1.98667
0
LINE
8
BLACK
6
CONTINUOUS
10
1.58688
20
1.98667
11
1.58517
21
1.98412
0
LINE
8
BLACK
6
CONTINUOUS
10
1.58517
20
1.98412
11
1.58262
21
1.98241
0
LINE
8
BLACK
6
CONTINUOUS
10
1.58262
20
1.98241
11
1.57961
21
1.98181
0
LINE
8
BLACK
6
CONTINUOUS
10
1.57961
20
1.98181
11
1.51961
21
1.98181
0
LINE
8
BLACK
6
CONTINUOUS
10
1.51961
20
1.98181
11
1.51659
21
1.98241
0
LINE
8
BLACK
6
CONTINUOUS
10
1.51659
20
1.98241
11
1.51404
21
1.98412
0
LINE
8
BLACK
6
CONTINUOUS
10
1.51404
20
1.98412
11
1.51233
21
1.98667
0
LINE
8
BLACK
6
CONTINUOUS
10
1.51233
20
1.98667
11
1.51173
21
1.98969
0
LINE
8
BLACK
6
CONTINUOUS
10
1.51173
20
1.98969
11
1.51173
21
2.04969
0
LINE
8
BLACK
6
CONTINUOUS
10
1.51173
20
2.04969
11
1.51233
21
2.0527
0
LINE
8
BLACK
6
CONTINUOUS
10
1.51233
20
2.0527
11
1.51404
21
2.05525
0
LINE
8
BLACK
6
CONTINUOUS
10
1.51404
20
2.05525
11
1.51659
21
2.05696
0
LINE
8
BLACK
6
CONTINUOUS
10
1.51659
20
2.05696
11
1.51961
21
2.05756
0
LINE
8
BLACK
6
CONTINUOUS
10
1.51961
20
2.05756
11
1.57961
21
2.05756
0
LINE
8
BLACK
6
CONTINUOUS
10
1.57961
20
2.05756
11
1.58262
21
2.05696
0
LINE
8
BLACK
6
CONTINUOUS
10
1.68262
20
2.05696
11
1.68517
21
2.05525
0
LINE
8
BLACK
6
CONTINUOUS
10
1.68517
20
2.05525
11
1.68688
21
2.0527
0
LINE
8
BLACK
6
CONTINUOUS
10
1.68688
20
2.0527
11
1.68748
21
2.04969
0
LINE
8
BLACK
6
CONTINUOUS
10
1.68748
20
2.04969
11
1.68748
21
1.98969
0
LINE
8
BLACK
6
CONTINUOUS
10
1.68748
20
1.98969
11
1.68688
21
1.98667
0
LINE
8
BLACK
6
CONTINUOUS
10
1.68688
20
1.98667
11
1.68517
21
1.98412
0
LINE
8
BLACK
6
CONTINUOUS
10
1.68517
20
1.98412
11
1.68262
21
1.98241
0
LINE
8
BLACK
6
CONTINUOUS
10
1.68262
20
1.98241
11
1.67961
21
1.98181
0
LINE
8
BLACK
6
CONTINUOUS
10
1.67961
20
1.98181
11
1.61961
21
1.98181
0
LINE
8
BLACK
6
CONTINUOUS
10
1.61961
20
1.98181
11
1.61659
21
1.98241
0
LINE
8
BLACK
6
CONTINUOUS
10
1.61659
20
1.98241
11
1.61404
21
1.98412
0
LINE
8
BLACK
6
CONTINUOUS
10
1.61404
20
1.98412
11
1.61233
21
1.98667
0
LINE
8
BLACK
6
CONTINUOUS
10
1.61233
20
1.98667
11
1.61173
21
1.98969
0
LINE
8
BLACK
6
CONTINUOUS
10
1.61173
20
1.98969
11
1.61173
21
2.04969
0
LINE
8
BLACK
6
CONTINUOUS
10
1.61173
20
2.04969
11
1.61233
21
2.0527
0
LINE
8
BLACK
6
CONTINUOUS
10
1.61233
20
2.0527
11
1.61404
21
2.05525
0
LINE
8
BLACK
6
CONTINUOUS
10
1.61404
20
2.05525
11
1.61659
21
2.05696
0
LINE
8
BLACK
6
CONTINUOUS
10
1.61659
20
2.05696
11
1.61961
21
2.05756
0
LINE
8
BLACK
6
CONTINUOUS
10
1.61961
20
2.05756
11
1.67961
21
2.05756
0
LINE
8
BLACK
6
CONTINUOUS
10
1.67961
20
2.05756
11
1.68262
21
2.05696
0
LINE
8
BLACK
6
CONTINUOUS
10
1.78262
20
2.05696
11
1.78517
21
2.05525
0
LINE
8
BLACK
6
CONTINUOUS
10
1.78517
20
2.05525
11
1.78688
21
2.0527
0
LINE
8
BLACK
6
CONTINUOUS
10
1.78688
20
2.0527
11
1.78748
21
2.04969
0
LINE
8
BLACK
6
CONTINUOUS
10
1.78748
20
2.04969
11
1.78748
21
1.98969
0
LINE
8
BLACK
6
CONTINUOUS
10
1.78748
20
1.98969
11
1.78688
21
1.98667
0
LINE
8
BLACK
6
CONTINUOUS
10
1.78688
20
1.98667
11
1.78517
21
1.98412
0
LINE
8
BLACK
6
CONTINUOUS
10
1.78517
20
1.98412
11
1.78262
21
1.98241
0
LINE
8
BLACK
6
CONTINUOUS
10
1.78262
20
1.98241
11
1.77961
21
1.98181
0
LINE
8
BLACK
6
CONTINUOUS
10
1.77961
20
1.98181
11
1.71961
21
1.98181
0
LINE
8
BLACK
6
CONTINUOUS
10
1.71961
20
1.98181
11
1.71659
21
1.98241
0
LINE
8
BLACK
6
CONTINUOUS
10
1.71659
20
1.98241
11
1.71404
21
1.98412
0
LINE
8
BLACK
6
CONTINUOUS
10
1.71404
20
1.98412
11
1.71233
21
1.98667
0
LINE
8
BLACK
6
CONTINUOUS
10
1.71233
20
1.98667
11
1.71173
21
1.98969
0
LINE
8
BLACK
6
CONTINUOUS
10
1.71173
20
1.98969
11
1.71173
21
2.04969
0
LINE
8
BLACK
6
CONTINUOUS
10
1.71173
20
2.04969
11
1.71233
21
2.0527
0
LINE
8
BLACK
6
CONTINUOUS
10
1.71233
20
2.0527
11
1.71404
21
2.05525
0
LINE
8
BLACK
6
CONTINUOUS
10
1.71404
20
2.05525
11
1.71659
21
2.05696
0
LINE
8
BLACK
6
CONTINUOUS
10
1.71659
20
2.05696
11
1.71961
21
2.05756
0
LINE
8
BLACK
6
CONTINUOUS
10
1.71961
20
2.05756
11
1.77961
21
2.05756
0
LINE
8
BLACK
6
CONTINUOUS
10
1.77961
20
2.05756
11
1.78262
21
2.05696
0
LINE
8
BLACK
6
CONTINUOUS
10
1.88262
20
2.05696
11
1.88517
21
2.05525
0
LINE
8
BLACK
6
CONTINUOUS
10
1.88517
20
2.05525
11
1.88688
21
2.0527
0
LINE
8
BLACK
6
CONTINUOUS
10
1.88688
20
2.0527
11
1.88748
21
2.04969
0
LINE
8
BLACK
6
CONTINUOUS
10
1.88748
20
2.04969
11
1.88748
21
1.98969
0
LINE
8
BLACK
6
CONTINUOUS
10
1.88748
20
1.98969
11
1.88688
21
1.98667
0
LINE
8
BLACK
6
CONTINUOUS
10
1.88688
20
1.98667
11
1.88517
21
1.98412
0
LINE
8
BLACK
6
CONTINUOUS
10
1.88517
20
1.98412
11
1.88262
21
1.98241
0
LINE
8
BLACK
6
CONTINUOUS
10
1.88262
20
1.98241
11
1.87961
21
1.98181
0
LINE
8
BLACK
6
CONTINUOUS
10
1.87961
20
1.98181
11
1.81961
21
1.98181
0
LINE
8
BLACK
6
CONTINUOUS
10
1.81961
20
1.98181
11
1.81659
21
1.98241
0
LINE
8
BLACK
6
CONTINUOUS
10
1.81659
20
1.98241
11
1.81404
21
1.98412
0
LINE
8
BLACK
6
CONTINUOUS
10
1.81404
20
1.98412
11
1.81233
21
1.98667
0
LINE
8
BLACK
6
CONTINUOUS
10
1.81233
20
1.98667
11
1.81173
21
1.98969
0
LINE
8
BLACK
6
CONTINUOUS
10
1.81173
20
1.98969
11
1.81173
21
2.04969
0
LINE
8
BLACK
6
CONTINUOUS
10
1.81173
20
2.04969
11
1.81233
21
2.0527
0
LINE
8
BLACK
6
CONTINUOUS
10
1.81233
20
2.0527
11
1.81404
21
2.05525
0
LINE
8
BLACK
6
CONTINUOUS
10
1.81404
20
2.05525
11
1.81659
21
2.05696
0
LINE
8
BLACK
6
CONTINUOUS
10
1.81659
20
2.05696
11
1.81961
21
2.05756
0
LINE
8
BLACK
6
CONTINUOUS
10
1.81961
20
2.05756
11
1.87961
21
2.05756
0
LINE
8
BLACK
6
CONTINUOUS
10
1.87961
20
2.05756
11
1.88262
21
2.05696
0
LINE
8
BLACK
6
CONTINUOUS
10
1.98262
20
2.05696
11
1.98517
21
2.05525
0
LINE
8
BLACK
6
CONTINUOUS
10
1.98517
20
2.05525
11
1.98688
21
2.0527
0
LINE
8
BLACK
6
CONTINUOUS
10
1.98688
20
2.0527
11
1.98748
21
2.04969
0
LINE
8
BLACK
6
CONTINUOUS
10
1.98748
20
2.04969
11
1.98748
21
1.98969
0
LINE
8
BLACK
6
CONTINUOUS
10
1.98748
20
1.98969
11
1.98688
21
1.98667
0
LINE
8
BLACK
6
CONTINUOUS
10
1.98688
20
1.98667
11
1.98517
21
1.98412
0
LINE
8
BLACK
6
CONTINUOUS
10
1.98517
20
1.98412
11
1.98262
21
1.98241
0
LINE
8
BLACK
6
CONTINUOUS
10
1.98262
20
1.98241
11
1.97961
21
1.98181
0
LINE
8
BLACK
6
CONTINUOUS
10
1.97961
20
1.98181
11
1.91961
21
1.98181
0
LINE
8
BLACK
6
CONTINUOUS
10
1.91961
20
1.98181
11
1.91659
21
1.98241
0
LINE
8
BLACK
6
CONTINUOUS
10
1.91659
20
1.98241
11
1.91404
21
1.98412
0
LINE
8
BLACK
6
CONTINUOUS
10
1.91404
20
1.98412
11
1.91233
21
1.98667
0
LINE
8
BLACK
6
CONTINUOUS
10
1.91233
20
1.98667
11
1.91173
21
1.98969
0
LINE
8
BLACK
6
CONTINUOUS
10
1.91173
20
1.98969
11
1.91173
21
2.04969
0
LINE
8
BLACK
6
CONTINUOUS
10
1.91173
20
2.04969
11
1.91233
21
2.0527
0
LINE
8
BLACK
6
CONTINUOUS
10
1.91233
20
2.0527
11
1.91404
21
2.05525
0
LINE
8
BLACK
6
CONTINUOUS
10
1.91404
20
2.05525
11
1.91659
21
2.05696
0
LINE
8
BLACK
6
CONTINUOUS
10
1.91659
20
2.05696
11
1.91961
21
2.05756
0
LINE
8
BLACK
6
CONTINUOUS
10
1.91961
20
2.05756
11
1.97961
21
2.05756
0
LINE
8
BLACK
6
CONTINUOUS
10
1.97961
20
2.05756
11
1.98262
21
2.05696
0
LINE
8
BLACK
6
CONTINUOUS
10
0.863722
20
2.28767
11
0.866276
21
2.28596
0
LINE
8
BLACK
6
CONTINUOUS
10
0.866276
20
2.28596
11
0.867983
21
2.28341
0
LINE
8
BLACK
6
CONTINUOUS
10
0.867983
20
2.28341
11
0.868583
21
2.28039
0
LINE
8
BLACK
6
CONTINUOUS
10
0.868583
20
2.28039
11
0.868583
21
2.22039
0
LINE
8
BLACK
6
CONTINUOUS
10
0.868583
20
2.22039
11
0.867983
21
2.21738
0
LINE
8
BLACK
6
CONTINUOUS
10
0.867983
20
2.21738
11
0.866276
21
2.21483
0
LINE
8
BLACK
6
CONTINUOUS
10
0.866276
20
2.21483
11
0.863722
21
2.21312
0
LINE
8
BLACK
6
CONTINUOUS
10
0.863722
20
2.21312
11
0.860709
21
2.21252
0
LINE
8
BLACK
6
CONTINUOUS
10
0.860709
20
2.21252
11
0.800709
21
2.21252
0
LINE
8
BLACK
6
CONTINUOUS
10
0.800709
20
2.21252
11
0.797695
21
2.21312
0
LINE
8
BLACK
6
CONTINUOUS
10
0.797695
20
2.21312
11
0.795141
21
2.21483
0
LINE
8
BLACK
6
CONTINUOUS
10
0.795141
20
2.21483
11
0.793434
21
2.21738
0
LINE
8
BLACK
6
CONTINUOUS
10
0.793434
20
2.21738
11
0.792835
21
2.22039
0
LINE
8
BLACK
6
CONTINUOUS
10
0.792835
20
2.22039
11
0.792835
21
2.28039
0
LINE
8
BLACK
6
CONTINUOUS
10
0.792835
20
2.28039
11
0.793434
21
2.28341
0
LINE
8
BLACK
6
CONTINUOUS
10
0.793434
20
2.28341
11
0.795141
21
2.28596
0
LINE
8
BLACK
6
CONTINUOUS
10
0.795141
20
2.28596
11
0.797695
21
2.28767
0
LINE
8
BLACK
6
CONTINUOUS
10
0.797695
20
2.28767
11
0.800709
21
2.28827
0
LINE
8
BLACK
6
CONTINUOUS
10
0.800709
20
2.28827
11
0.860709
21
2.28827
0
LINE
8
BLACK
6
CONTINUOUS
10
0.860709
20
2.28827
11
0.863722
21
2.28767
0
LINE
8
BLACK
6
CONTINUOUS
10
0.0141057
20
2.52677
11
0.0280341
21
2.5244
0
LINE
8
BLACK
6
CONTINUOUS
10
0.0280341
20
2.5244
11
0.04161
21
2.52049
0
LINE
8
BLACK
6
CONTINUOUS
10
0.04161
20
2.52049
11
0.0546625
21
2.51508
0
LINE
8
BLACK
6
CONTINUOUS
10
0.0546625
20
2.51508
11
0.0670277
21
2.50825
0
LINE
8
BLACK
6
CONTINUOUS
10
0.0670277
20
2.50825
11
0.0785499
21
2.50007
0
LINE
8
BLACK
6
CONTINUOUS
10
0.0785499
20
2.50007
11
0.0890843
21
2.49066
0
LINE
8
BLACK
6
CONTINUOUS
10
0.0890843
20
2.49066
11
0.0984985
21
2.48012
0
LINE
8
BLACK
6
CONTINUOUS
10
0.0984985
20
2.48012
11
0.106674
21
2.4686
0
LINE
8
BLACK
6
CONTINUOUS
10
0.106674
20
2.4686
11
0.113508
21
2.45624
0
LINE
8
BLACK
6
CONTINUOUS
10
0.113508
20
2.45624
11
0.118914
21
2.44318
0
LINE
8
BLACK
6
CONTINUOUS
10
0.118914
20
2.44318
11
0.122826
21
2.42961
0
LINE
8
BLACK
6
CONTINUOUS
10
0.122826
20
2.42961
11
0.125192
21
2.41568
0
LINE
8
BLACK
6
CONTINUOUS
10
0.125192
20
2.41568
11
0.125984
21
2.40157
0
LINE
8
BLACK
6
CONTINUOUS
10
0.125984
20
2.40157
11
0.125192
21
2.38747
0
LINE
8
BLACK
6
CONTINUOUS
10
0.125192
20
2.38747
11
0.122826
21
2.37354
0
LINE
8
BLACK
6
CONTINUOUS
10
0.122826
20
2.37354
11
0.118914
21
2.35996
0
LINE
8
BLACK
6
CONTINUOUS
10
0.118914
20
2.35996
11
0.113508
21
2.34691
0
LINE
8
BLACK
6
CONTINUOUS
10
0.113508
20
2.34691
11
0.106674
21
2.33455
0
LINE
8
BLACK
6
CONTINUOUS
10
0.106674
20
2.33455
11
0.0984985
21
2.32302
0
LINE
8
BLACK
6
CONTINUOUS
10
0.0984985
20
2.32302
11
0.0890843
21
2.31249
0
LINE
8
BLACK
6
CONTINUOUS
10
0.0890843
20
2.31249
11
0.0785499
21
2.30308
0
LINE
8
BLACK
6
CONTINUOUS
10
0.0785499
20
2.30308
11
0.0670277
21
2.2949
0
LINE
8
BLACK
6
CONTINUOUS
10
0.0670277
20
2.2949
11
0.0546625
21
2.28807
0
LINE
8
BLACK
6
CONTINUOUS
10
0.0546625
20
2.28807
11
0.04161
21
2.28266
0
LINE
8
BLACK
6
CONTINUOUS
10
0.04161
20
2.28266
11
0.0280341
21
2.27875
0
LINE
8
BLACK
6
CONTINUOUS
10
0.0280341
20
2.27875
11
0.0141057
21
2.27638
0
LINE
8
BLACK
6
CONTINUOUS
10
0.0141057
20
2.27638
11
0
21
2.27559
0
LINE
8
BLACK
6
CONTINUOUS
10
0
20
2.27559
11
-0.0141057
21
2.27638
0
LINE
8
BLACK
6
CONTINUOUS
10
-0.0141057
20
2.27638
11
-0.0280341
21
2.27875
0
LINE
8
BLACK
6
CONTINUOUS
10
-0.0280341
20
2.27875
11
-0.04161
21
2.28266
0
LINE
8
BLACK
6
CONTINUOUS
10
-0.04161
20
2.28266
11
-0.0546625
21
2.28807
0
LINE
8
BLACK
6
CONTINUOUS
10
-0.0546625
20
2.28807
11
-0.0670277
21
2.2949
0
LINE
8
BLACK
6
CONTINUOUS
10
-0.0670277
20
2.2949
11
-0.0785499
21
2.30308
0
LINE
8
BLACK
6
CONTINUOUS
10
-0.0785499
20
2.30308
11
-0.0890843
21
2.31249
0
LINE
8
BLACK
6
CONTINUOUS
10
-0.0890843
20
2.31249
11
-0.0984985
21
2.32302
0
LINE
8
BLACK
6
CONTINUOUS
10
-0.0984985
20
2.32302
11
-0.106674
21
2.33455
0
LINE
8
BLACK
6
CONTINUOUS
10
-0.106674
20
2.33455
11
-0.113508
21
2.34691
0
LINE
8
BLACK
6
CONTINUOUS
10
-0.113508
20
2.34691
11
-0.118914
21
2.35996
0
LINE
8
BLACK
6
CONTINUOUS
10
-0.118914
20
2.35996
11
-0.122826
21
2.37354
0
LINE
8
BLACK
6
CONTINUOUS
10
-0.122826
20
2.37354
11
-0.125192
21
2.38747
0
LINE
8
BLACK
6
CONTINUOUS
10
-0.125192
20
2.38747
11
-0.125984
21
2.40157
0
LINE
8
BLACK
6
CONTINUOUS
10
-0.125984
20
2.40157
11
-0.125192
21
2.41568
0
LINE
8
BLACK
6
CONTINUOUS
10
-0.125192
20
2.41568
11
-0.122826
21
2.42961
0
LINE
8
BLACK
6
CONTINUOUS
10
-0.122826
20
2.42961
11
-0.118914
21
2.44318
0
LINE
8
BLACK
6
CONTINUOUS
10
-0.118914
20
2.44318
11
-0.113508
21
2.45624
0
LINE
8
BLACK
6
CONTINUOUS
10
-0.113508
20
2.45624
11
-0.106674
21
2.4686
0
LINE
8
BLACK
6
CONTINUOUS
10
-0.106674
20
2.4686
11
-0.0984985
21
2.48012
0
LINE
8
BLACK
6
CONTINUOUS
10
-0.0984985
20
2.48012
11
-0.0890843
21
2.49066
0
LINE
8
BLACK
6
CONTINUOUS
10
-0.0890843
20
2.49066
11
-0.0785499
21
2.50007
0
LINE
8
BLACK
6
CONTINUOUS
10
-0.0785499
20
2.50007
11
-0.0670277
21
2.50825
0
LINE
8
BLACK
6
CONTINUOUS
10
-0.0670277
20
2.50825
11
-0.0546625
21
2.51508
0
LINE
8
BLACK
6
CONTINUOUS
10
-0.0546625
20
2.51508
11
-0.04161
21
2.52049
0
LINE
8
BLACK
6
CONTINUOUS
10
-0.04161
20
2.52049
11
-0.0280341
21
2.5244
0
LINE
8
BLACK
6
CONTINUOUS
10
-0.0280341
20
2.5244
11
-0.0141057
21
2.52677
0
LINE
8
BLACK
6
CONTINUOUS
10
-0.0141057
20
2.52677
11
0
21
2.52756
0
LINE
8
BLACK
6
CONTINUOUS
10
0
20
2.52756
11
0.0141057
21
2.52677
0
LINE
8
BLACK
6
CONTINUOUS
10
2.01411
20
2.52677
11
2.02803
21
2.5244
0
LINE
8
BLACK
6
CONTINUOUS
10
2.02803
20
2.5244
11
2.04161
21
2.52049
0
LINE
8
BLACK
6
CONTINUOUS
10
2.04161
20
2.52049
11
2.05466
21
2.51508
0
LINE
8
BLACK
6
CONTINUOUS
10
2.05466
20
2.51508
11
2.06703
21
2.50825
0
LINE
8
BLACK
6
CONTINUOUS
10
2.06703
20
2.50825
11
2.07855
21
2.50007
0
LINE
8
BLACK
6
CONTINUOUS
10
2.07855
20
2.50007
11
2.08908
21
2.49066
0
LINE
8
BLACK
6
CONTINUOUS
10
2.08908
20
2.49066
11
2.0985
21
2.48012
0
LINE
8
BLACK
6
CONTINUOUS
10
2.0985
20
2.48012
11
2.10667
21
2.4686
0
LINE
8
BLACK
6
CONTINUOUS
10
2.10667
20
2.4686
11
2.11351
21
2.45624
0
LINE
8
BLACK
6
CONTINUOUS
10
2.11351
20
2.45624
11
2.11891
21
2.44318
0
LINE
8
BLACK
6
CONTINUOUS
10
2.11891
20
2.44318
11
2.12283
21
2.42961
0
LINE
8
BLACK
6
CONTINUOUS
10
2.12283
20
2.42961
11
2.12519
21
2.41568
0
LINE
8
BLACK
6
CONTINUOUS
10
2.12519
20
2.41568
11
2.12598
21
2.40157
0
LINE
8
BLACK
6
CONTINUOUS
10
2.12598
20
2.40157
11
2.12519
21
2.38747
0
LINE
8
BLACK
6
CONTINUOUS
10
2.12519
20
2.38747
11
2.12283
21
2.37354
0
LINE
8
BLACK
6
CONTINUOUS
10
2.12283
20
2.37354
11
2.11891
21
2.35996
0
LINE
8
BLACK
6
CONTINUOUS
10
2.11891
20
2.35996
11
2.11351
21
2.34691
0
LINE
8
BLACK
6
CONTINUOUS
10
2.11351
20
2.34691
11
2.10667
21
2.33455
0
LINE
8
BLACK
6
CONTINUOUS
10
2.10667
20
2.33455
11
2.0985
21
2.32302
0
LINE
8
BLACK
6
CONTINUOUS
10
2.0985
20
2.32302
11
2.08908
21
2.31249
0
LINE
8
BLACK
6
CONTINUOUS
10
2.08908
20
2.31249
11
2.07855
21
2.30308
0
LINE
8
BLACK
6
CONTINUOUS
10
2.07855
20
2.30308
11
2.06703
21
2.2949
0
LINE
8
BLACK
6
CONTINUOUS
10
2.06703
20
2.2949
11
2.05466
21
2.28807
0
LINE
8
BLACK
6
CONTINUOUS
10
2.05466
20
2.28807
11
2.04161
21
2.28266
0
LINE
8
BLACK
6
CONTINUOUS
10
2.04161
20
2.28266
11
2.02803
21
2.27875
0
LINE
8
BLACK
6
CONTINUOUS
10
2.02803
20
2.27875
11
2.01411
21
2.27638
0
LINE
8
BLACK
6
CONTINUOUS
10
2.01411
20
2.27638
11
2
21
2.27559
0
LINE
8
BLACK
6
CONTINUOUS
10
2
20
2.27559
11
1.98589
21
2.27638
0
LINE
8
BLACK
6
CONTINUOUS
10
1.98589
20
2.27638
11
1.97197
21
2.27875
0
LINE
8
BLACK
6
CONTINUOUS
10
1.97197
20
2.27875
11
1.95839
21
2.28266
0
LINE
8
BLACK
6
CONTINUOUS
10
1.95839
20
2.28266
11
1.94534
21
2.28807
0
LINE
8
BLACK
6
CONTINUOUS
10
1.94534
20
2.28807
11
1.93297
21
2.2949
0
LINE
8
BLACK
6
CONTINUOUS
10
1.93297
20
2.2949
11
1.92145
21
2.30308
0
LINE
8
BLACK
6
CONTINUOUS
10
1.92145
20
2.30308
11
1.91092
21
2.31249
0
LINE
8
BLACK
6
CONTINUOUS
10
1.91092
20
2.31249
11
1.9015
21
2.32302
0
LINE
8
BLACK
6
CONTINUOUS
10
1.9015
20
2.32302
11
1.89333
21
2.33455
0
LINE
8
BLACK
6
CONTINUOUS
10
1.89333
20
2.33455
11
1.88649
21
2.34691
0
LINE
8
BLACK
6
CONTINUOUS
10
1.88649
20
2.34691
11
1.88109
21
2.35996
0
LINE
8
BLACK
6
CONTINUOUS
10
1.88109
20
2.35996
11
1.87717
21
2.37354
0
LINE
8
BLACK
6
CONTINUOUS
10
1.87717
20
2.37354
11
1.87481
21
2.38747
0
LINE
8
BLACK
6
CONTINUOUS
10
1.87481
20
2.38747
11
1.87402
21
2.40157
0
LINE
8
BLACK
6
CONTINUOUS
10
1.87402
20
2.40157
11
1.87481
21
2.41568
0
LINE
8
BLACK
6
CONTINUOUS
10
1.87481
20
2.41568
11
1.87717
21
2.42961
0
LINE
8
BLACK
6
CONTINUOUS
10
1.87717
20
2.42961
11
1.88109
21
2.44318
0
LINE
8
BLACK
6
CONTINUOUS
10
1.88109
20
2.44318
11
1.88649
21
2.45624
0
LINE
8
BLACK
6
CONTINUOUS
10
1.88649
20
2.45624
11
1.89333
21
2.4686
0
LINE
8
BLACK
6
CONTINUOUS
10
1.89333
20
2.4686
11
1.9015
21
2.48012
0
LINE
8
BLACK
6
CONTINUOUS
10
1.9015
20
2.48012
11
1.91092
21
2.49066
0
LINE
8
BLACK
6
CONTINUOUS
10
1.91092
20
2.49066
11
1.92145
21
2.50007
0
LINE
8
BLACK
6
CONTINUOUS
10
1.92145
20
2.50007
11
1.93297
21
2.50825
0
LINE
8
BLACK
6
CONTINUOUS
10
1.93297
20
2.50825
11
1.94534
21
2.51508
0
LINE
8
BLACK
6
CONTINUOUS
10
1.94534
20
2.51508
11
1.95839
21
2.52049
0
LINE
8
BLACK
6
CONTINUOUS
10
1.95839
20
2.52049
11
1.97197
21
2.5244
0
LINE
8
BLACK
6
CONTINUOUS
10
1.97197
20
2.5244
11
1.98589
21
2.52677
0
LINE
8
BLACK
6
CONTINUOUS
10
1.98589
20
2.52677
11
2
21
2.52756
0
LINE
8
BLACK
6
CONTINUOUS
10
2
20
2.52756
11
2.01411
21
2.52677
0
LINE
8
BLACK
6
CONTINUOUS
10
0.263722
20
2.38491
11
0.266276
21
2.38321
0
LINE
8
BLACK
6
CONTINUOUS
10
0.266276
20
2.38321
11
0.267983
21
2.38065
0
LINE
8
BLACK
6
CONTINUOUS
10
0.267983
20
2.38065
11
0.268583
21
2.37764
0
LINE
8
BLACK
6
CONTINUOUS
10
0.268583
20
2.37764
11
0.268583
21
2.31764
0
LINE
8
BLACK
6
CONTINUOUS
10
0.268583
20
2.31764
11
0.267983
21
2.31462
0
LINE
8
BLACK
6
CONTINUOUS
10
0.267983
20
2.31462
11
0.266276
21
2.31207
0
LINE
8
BLACK
6
CONTINUOUS
10
0.266276
20
2.31207
11
0.263722
21
2.31036
0
LINE
8
BLACK
6
CONTINUOUS
10
0.263722
20
2.31036
11
0.260709
21
2.30976
0
LINE
8
BLACK
6
CONTINUOUS
10
0.260709
20
2.30976
11
0.200709
21
2.30976
0
LINE
8
BLACK
6
CONTINUOUS
10
0.200709
20
2.30976
11
0.197695
21
2.31036
0
LINE
8
BLACK
6
CONTINUOUS
10
0.197695
20
2.31036
11
0.195141
21
2.31207
0
LINE
8
BLACK
6
CONTINUOUS
10
0.195141
20
2.31207
11
0.193434
21
2.31462
0
LINE
8
BLACK
6
CONTINUOUS
10
0.193434
20
2.31462
11
0.192835
21
2.31764
0
LINE
8
BLACK
6
CONTINUOUS
10
0.192835
20
2.31764
11
0.192835
21
2.37764
0
LINE
8
BLACK
6
CONTINUOUS
10
0.192835
20
2.37764
11
0.193434
21
2.38065
0
LINE
8
BLACK
6
CONTINUOUS
10
0.193434
20
2.38065
11
0.195141
21
2.38321
0
LINE
8
BLACK
6
CONTINUOUS
10
0.195141
20
2.38321
11
0.197695
21
2.38491
0
LINE
8
BLACK
6
CONTINUOUS
10
0.197695
20
2.38491
11
0.200709
21
2.38551
0
LINE
8
BLACK
6
CONTINUOUS
10
0.200709
20
2.38551
11
0.260709
21
2.38551
0
LINE
8
BLACK
6
CONTINUOUS
10
0.260709
20
2.38551
11
0.263722
21
2.38491
0
LINE
8
BLACK
6
CONTINUOUS
10
0.363722
20
2.38491
11
0.366276
21
2.38321
0
LINE
8
BLACK
6
CONTINUOUS
10
0.366276
20
2.38321
11
0.367983
21
2.38065
0
LINE
8
BLACK
6
CONTINUOUS
10
0.367983
20
2.38065
11
0.368583
21
2.37764
0
LINE
8
BLACK
6
CONTINUOUS
10
0.368583
20
2.37764
11
0.368583
21
2.31764
0
LINE
8
BLACK
6
CONTINUOUS
10
0.368583
20
2.31764
11
0.367983
21
2.31462
0
LINE
8
BLACK
6
CONTINUOUS
10
0.367983
20
2.31462
11
0.366276
21
2.31207
0
LINE
8
BLACK
6
CONTINUOUS
10
0.366276
20
2.31207
11
0.363722
21
2.31036
0
LINE
8
BLACK
6
CONTINUOUS
10
0.363722
20
2.31036
11
0.360709
21
2.30976
0
LINE
8
BLACK
6
CONTINUOUS
10
0.360709
20
2.30976
11
0.300709
21
2.30976
0
LINE
8
BLACK
6
CONTINUOUS
10
0.300709
20
2.30976
11
0.297695
21
2.31036
0
LINE
8
BLACK
6
CONTINUOUS
10
0.297695
20
2.31036
11
0.295141
21
2.31207
0
LINE
8
BLACK
6
CONTINUOUS
10
0.295141
20
2.31207
11
0.293434
21
2.31462
0
LINE
8
BLACK
6
CONTINUOUS
10
0.293434
20
2.31462
11
0.292835
21
2.31764
0
LINE
8
BLACK
6
CONTINUOUS
10
0.292835
20
2.31764
11
0.292835
21
2.37764
0
LINE
8
BLACK
6
CONTINUOUS
10
0.292835
20
2.37764
11
0.293434
21
2.38065
0
LINE
8
BLACK
6
CONTINUOUS
10
0.293434
20
2.38065
11
0.295141
21
2.38321
0
LINE
8
BLACK
6
CONTINUOUS
10
0.295141
20
2.38321
11
0.297695
21
2.38491
0
LINE
8
BLACK
6
CONTINUOUS
10
0.297695
20
2.38491
11
0.300709
21
2.38551
0
LINE
8
BLACK
6
CONTINUOUS
10
0.300709
20
2.38551
11
0.360709
21
2.38551
0
LINE
8
BLACK
6
CONTINUOUS
10
0.360709
20
2.38551
11
0.363722
21
2.38491
0
LINE
8
BLACK
6
CONTINUOUS
10
0.463722
20
2.38491
11
0.466276
21
2.38321
0
LINE
8
BLACK
6
CONTINUOUS
10
0.466276
20
2.38321
11
0.467983
21
2.38065
0
LINE
8
BLACK
6
CONTINUOUS
10
0.467983
20
2.38065
11
0.468583
21
2.37764
0
LINE
8
BLACK
6
CONTINUOUS
10
0.468583
20
2.37764
11
0.468583
21
2.31764
0
LINE
8
BLACK
6
CONTINUOUS
10
0.468583
20
2.31764
11
0.467983
21
2.31462
0
LINE
8
BLACK
6
CONTINUOUS
10
0.467983
20
2.31462
11
0.466276
21
2.31207
0
LINE
8
BLACK
6
CONTINUOUS
10
0.466276
20
2.31207
11
0.463722
21
2.31036
0
LINE
8
BLACK
6
CONTINUOUS
10
0.463722
20
2.31036
11
0.460709
21
2.30976
0
LINE
8
BLACK
6
CONTINUOUS
10
0.460709
20
2.30976
11
0.400709
21
2.30976
0
LINE
8
BLACK
6
CONTINUOUS
10
0.400709
20
2.30976
11
0.397695
21
2.31036
0
LINE
8
BLACK
6
CONTINUOUS
10
0.397695
20
2.31036
11
0.395141
21
2.31207
0
LINE
8
BLACK
6
CONTINUOUS
10
0.395141
20
2.31207
11
0.393434
21
2.31462
0
LINE
8
BLACK
6
CONTINUOUS
10
0.393434
20
2.31462
11
0.392835
21
2.31764
0
LINE
8
BLACK
6
CONTINUOUS
10
0.392835
20
2.31764
11
0.392835
21
2.37764
0
LINE
8
BLACK
6
CONTINUOUS
10
0.392835
20
2.37764
11
0.393434
21
2.38065
0
LINE
8
BLACK
6
CONTINUOUS
10
0.393434
20
2.38065
11
0.395141
21
2.38321
0
LINE
8
BLACK
6
CONTINUOUS
10
0.395141
20
2.38321
11
0.397695
21
2.38491
0
LINE
8
BLACK
6
CONTINUOUS
10
0.397695
20
2.38491
11
0.400709
21
2.38551
0
LINE
8
BLACK
6
CONTINUOUS
10
0.400709
20
2.38551
11
0.460709
21
2.38551
0
LINE
8
BLACK
6
CONTINUOUS
10
0.460709
20
2.38551
11
0.463722
21
2.38491
0
LINE
8
BLACK
6
CONTINUOUS
10
0.603092
20
2.38491
11
0.605646
21
2.38321
0
LINE
8
BLACK
6
CONTINUOUS
10
0.605646
20
2.38321
11
0.607353
21
2.38065
0
LINE
8
BLACK
6
CONTINUOUS
10
0.607353
20
2.38065
11
0.607953
21
2.37764
0
LINE
8
BLACK
6
CONTINUOUS
10
0.607953
20
2.37764
11
0.607953
21
2.31764
0
LINE
8
BLACK
6
CONTINUOUS
10
0.607953
20
2.31764
11
0.607353
21
2.31462
0
LINE
8
BLACK
6
CONTINUOUS
10
0.607353
20
2.31462
11
0.605646
21
2.31207
0
LINE
8
BLACK
6
CONTINUOUS
10
0.605646
20
2.31207
11
0.603092
21
2.31036
0
LINE
8
BLACK
6
CONTINUOUS
10
0.603092
20
2.31036
11
0.600079
21
2.30976
0
LINE
8
BLACK
6
CONTINUOUS
10
0.600079
20
2.30976
11
0.540079
21
2.30976
0
LINE
8
BLACK
6
CONTINUOUS
10
0.540079
20
2.30976
11
0.537065
21
2.31036
0
LINE
8
BLACK
6
CONTINUOUS
10
0.537065
20
2.31036
11
0.534511
21
2.31207
0
LINE
8
BLACK
6
CONTINUOUS
10
0.534511
20
2.31207
11
0.532804
21
2.31462
0
LINE
8
BLACK
6
CONTINUOUS
10
0.532804
20
2.31462
11
0.532205
21
2.31764
0
LINE
8
BLACK
6
CONTINUOUS
10
0.532205
20
2.31764
11
0.532205
21
2.37764
0
LINE
8
BLACK
6
CONTINUOUS
10
0.532205
20
2.37764
11
0.532804
21
2.38065
0
LINE
8
BLACK
6
CONTINUOUS
10
0.532804
20
2.38065
11
0.534511
21
2.38321
0
LINE
8
BLACK
6
CONTINUOUS
10
0.534511
20
2.38321
11
0.537065
21
2.38491
0
LINE
8
BLACK
6
CONTINUOUS
10
0.537065
20
2.38491
11
0.540079
21
2.38551
0
LINE
8
BLACK
6
CONTINUOUS
10
0.540079
20
2.38551
11
0.600079
21
2.38551
0
LINE
8
BLACK
6
CONTINUOUS
10
0.600079
20
2.38551
11
0.603092
21
2.38491
0
LINE
8
BLACK
6
CONTINUOUS
10
0.703092
20
2.38491
11
0.705646
21
2.38321
0
LINE
8
BLACK
6
CONTINUOUS
10
0.705646
20
2.38321
11
0.707353
21
2.38065
0
LINE
8
BLACK
6
CONTINUOUS
10
0.707353
20
2.38065
11
0.707953
21
2.37764
0
LINE
8
BLACK
6
CONTINUOUS
10
0.707953
20
2.37764
11
0.707953
21
2.31764
0
LINE
8
BLACK
6
CONTINUOUS
10
0.707953
20
2.31764
11
0.707353
21
2.31462
0
LINE
8
BLACK
6
CONTINUOUS
10
0.707353
20
2.31462
11
0.705646
21
2.31207
0
LINE
8
BLACK
6
CONTINUOUS
10
0.705646
20
2.31207
11
0.703092
21
2.31036
0
LINE
8
BLACK
6
CONTINUOUS
10
0.703092
20
2.31036
11
0.700079
21
2.30976
0
LINE
8
BLACK
6
CONTINUOUS
10
0.700079
20
2.30976
11
0.640079
21
2.30976
0
LINE
8
BLACK
6
CONTINUOUS
10
0.640079
20
2.30976
11
0.637065
21
2.31036
0
LINE
8
BLACK
6
CONTINUOUS
10
0.637065
20
2.31036
11
0.634511
21
2.31207
0
LINE
8
BLACK
6
CONTINUOUS
10
0.634511
20
2.31207
11
0.632804
21
2.31462
0
LINE
8
BLACK
6
CONTINUOUS
10
0.632804
20
2.31462
11
0.632205
21
2.31764
0
LINE
8
BLACK
6
CONTINUOUS
10
0.632205
20
2.31764
11
0.632205
21
2.37764
0
LINE
8
BLACK
6
CONTINUOUS
10
0.632205
20
2.37764
11
0.632804
21
2.38065
0
LINE
8
BLACK
6
CONTINUOUS
10
0.632804
20
2.38065
11
0.634511
21
2.38321
0
LINE
8
BLACK
6
CONTINUOUS
10
0.634511
20
2.38321
11
0.637065
21
2.38491
0
LINE
8
BLACK
6
CONTINUOUS
10
0.637065
20
2.38491
11
0.640079
21
2.38551
0
LINE
8
BLACK
6
CONTINUOUS
10
0.640079
20
2.38551
11
0.700079
21
2.38551
0
LINE
8
BLACK
6
CONTINUOUS
10
0.700079
20
2.38551
11
0.703092
21
2.38491
0
LINE
8
BLACK
6
CONTINUOUS
10
1.00388
20
2.38491
11
1.00643
21
2.38321
0
LINE
8
BLACK
6
CONTINUOUS
10
1.00643
20
2.38321
11
1.00814
21
2.38065
0
LINE
8
BLACK
6
CONTINUOUS
10
1.00814
20
2.38065
11
1.00874
21
2.37764
0
LINE
8
BLACK
6
CONTINUOUS
10
1.00874
20
2.37764
11
1.00874
21
2.31764
0
LINE
8
BLACK
6
CONTINUOUS
10
1.00874
20
2.31764
11
1.00814
21
2.31462
0
LINE
8
BLACK
6
CONTINUOUS
10
1.00814
20
2.31462
11
1.00643
21
2.31207
0
LINE
8
BLACK
6
CONTINUOUS
10
1.00643
20
2.31207
11
1.00388
21
2.31036
0
LINE
8
BLACK
6
CONTINUOUS
10
1.00388
20
2.31036
11
1.00087
21
2.30976
0
LINE
8
BLACK
6
CONTINUOUS
10
1.00087
20
2.30976
11
0.940866
21
2.30976
0
LINE
8
BLACK
6
CONTINUOUS
10
0.940866
20
2.30976
11
0.937853
21
2.31036
0
LINE
8
BLACK
6
CONTINUOUS
10
0.937853
20
2.31036
11
0.935298
21
2.31207
0
LINE
8
BLACK
6
CONTINUOUS
10
0.935298
20
2.31207
11
0.933591
21
2.31462
0
LINE
8
BLACK
6
CONTINUOUS
10
0.933591
20
2.31462
11
0.932992
21
2.31764
0
LINE
8
BLACK
6
CONTINUOUS
10
0.932992
20
2.31764
11
0.932992
21
2.37764
0
LINE
8
BLACK
6
CONTINUOUS
10
0.932992
20
2.37764
11
0.933591
21
2.38065
0
LINE
8
BLACK
6
CONTINUOUS
10
0.933591
20
2.38065
11
0.935298
21
2.38321
0
LINE
8
BLACK
6
CONTINUOUS
10
0.935298
20
2.38321
11
0.937853
21
2.38491
0
LINE
8
BLACK
6
CONTINUOUS
10
0.937853
20
2.38491
11
0.940866
21
2.38551
0
LINE
8
BLACK
6
CONTINUOUS
10
0.940866
20
2.38551
11
1.00087
21
2.38551
0
LINE
8
BLACK
6
CONTINUOUS
10
1.00087
20
2.38551
11
1.00388
21
2.38491
0
LINE
8
BLACK
6
CONTINUOUS
10
1.10388
20
2.38491
11
1.10643
21
2.38321
0
LINE
8
BLACK
6
CONTINUOUS
10
1.10643
20
2.38321
11
1.10814
21
2.38065
0
LINE
8
BLACK
6
CONTINUOUS
10
1.10814
20
2.38065
11
1.10874
21
2.37764
0
LINE
8
BLACK
6
CONTINUOUS
10
1.10874
20
2.37764
11
1.10874
21
2.31764
0
LINE
8
BLACK
6
CONTINUOUS
10
1.10874
20
2.31764
11
1.10814
21
2.31462
0
LINE
8
BLACK
6
CONTINUOUS
10
1.10814
20
2.31462
11
1.10643
21
2.31207
0
LINE
8
BLACK
6
CONTINUOUS
10
1.10643
20
2.31207
11
1.10388
21
2.31036
0
LINE
8
BLACK
6
CONTINUOUS
10
1.10388
20
2.31036
11
1.10087
21
2.30976
0
LINE
8
BLACK
6
CONTINUOUS
10
1.10087
20
2.30976
11
1.04087
21
2.30976
0
LINE
8
BLACK
6
CONTINUOUS
10
1.04087
20
2.30976
11
1.03785
21
2.31036
0
LINE
8
BLACK
6
CONTINUOUS
10
1.03785
20
2.31036
11
1.0353
21
2.31207
0
LINE
8
BLACK
6
CONTINUOUS
10
1.0353
20
2.31207
11
1.03359
21
2.31462
0
LINE
8
BLACK
6
CONTINUOUS
10
1.03359
20
2.31462
11
1.03299
21
2.31764
0
LINE
8
BLACK
6
CONTINUOUS
10
1.03299
20
2.31764
11
1.03299
21
2.37764
0
LINE
8
BLACK
6
CONTINUOUS
10
1.03299
20
2.37764
11
1.03359
21
2.38065
0
LINE
8
BLACK
6
CONTINUOUS
10
1.03359
20
2.38065
11
1.0353
21
2.38321
0
LINE
8
BLACK
6
CONTINUOUS
10
1.0353
20
2.38321
11
1.03785
21
2.38491
0
LINE
8
BLACK
6
CONTINUOUS
10
1.03785
20
2.38491
11
1.04087
21
2.38551
0
LINE
8
BLACK
6
CONTINUOUS
10
1.04087
20
2.38551
11
1.10087
21
2.38551
0
LINE
8
BLACK
6
CONTINUOUS
10
1.10087
20
2.38551
11
1.10388
21
2.38491
0
LINE
8
BLACK
6
CONTINUOUS
10
1.20388
20
2.38491
11
1.20643
21
2.38321
0
LINE
8
BLACK
6
CONTINUOUS
10
1.20643
20
2.38321
11
1.20814
21
2.38065
0
LINE
8
BLACK
6
CONTINUOUS
10
1.20814
20
2.38065
11
1.20874
21
2.37764
0
LINE
8
BLACK
6
CONTINUOUS
10
1.20874
20
2.37764
11
1.20874
21
2.31764
0
LINE
8
BLACK
6
CONTINUOUS
10
1.20874
20
2.31764
11
1.20814
21
2.31462
0
LINE
8
BLACK
6
CONTINUOUS
10
1.20814
20
2.31462
11
1.20643
21
2.31207
0
LINE
8
BLACK
6
CONTINUOUS
10
1.20643
20
2.31207
11
1.20388
21
2.31036
0
LINE
8
BLACK
6
CONTINUOUS
10
1.20388
20
2.31036
11
1.20087
21
2.30976
0
LINE
8
BLACK
6
CONTINUOUS
10
1.20087
20
2.30976
11
1.14087
21
2.30976
0
LINE
8
BLACK
6
CONTINUOUS
10
1.14087
20
2.30976
11
1.13785
21
2.31036
0
LINE
8
BLACK
6
CONTINUOUS
10
1.13785
20
2.31036
11
1.1353
21
2.31207
0
LINE
8
BLACK
6
CONTINUOUS
10
1.1353
20
2.31207
11
1.13359
21
2.31462
0
LINE
8
BLACK
6
CONTINUOUS
10
1.13359
20
2.31462
11
1.13299
21
2.31764
0
LINE
8
BLACK
6
CONTINUOUS
10
1.13299
20
2.31764
11
1.13299
21
2.37764
0
LINE
8
BLACK
6
CONTINUOUS
10
1.13299
20
2.37764
11
1.13359
21
2.38065
0
LINE
8
BLACK
6
CONTINUOUS
10
1.13359
20
2.38065
11
1.1353
21
2.38321
0
LINE
8
BLACK
6
CONTINUOUS
10
1.1353
20
2.38321
11
1.13785
21
2.38491
0
LINE
8
BLACK
6
CONTINUOUS
10
1.13785
20
2.38491
11
1.14087
21
2.38551
0
LINE
8
BLACK
6
CONTINUOUS
10
1.14087
20
2.38551
11
1.20087
21
2.38551
0
LINE
8
BLACK
6
CONTINUOUS
10
1.20087
20
2.38551
11
1.20388
21
2.38491
0
LINE
8
BLACK
6
CONTINUOUS
10
1.3527
20
2.38491
11
1.35525
21
2.38321
0
LINE
8
BLACK
6
CONTINUOUS
10
1.35525
20
2.38321
11
1.35696
21
2.38065
0
LINE
8
BLACK
6
CONTINUOUS
10
1.35696
20
2.38065
11
1.35756
21
2.37764
0
LINE
8
BLACK
6
CONTINUOUS
10
1.35756
20
2.37764
11
1.35756
21
2.31764
0
LINE
8
BLACK
6
CONTINUOUS
10
1.35756
20
2.31764
11
1.35696
21
2.31462
0
LINE
8
BLACK
6
CONTINUOUS
10
1.35696
20
2.31462
11
1.35525
21
2.31207
0
LINE
8
BLACK
6
CONTINUOUS
10
1.35525
20
2.31207
11
1.3527
21
2.31036
0
LINE
8
BLACK
6
CONTINUOUS
10
1.3527
20
2.31036
11
1.34969
21
2.30976
0
LINE
8
BLACK
6
CONTINUOUS
10
1.34969
20
2.30976
11
1.28969
21
2.30976
0
LINE
8
BLACK
6
CONTINUOUS
10
1.28969
20
2.30976
11
1.28667
21
2.31036
0
LINE
8
BLACK
6
CONTINUOUS
10
1.28667
20
2.31036
11
1.28412
21
2.31207
0
LINE
8
BLACK
6
CONTINUOUS
10
1.28412
20
2.31207
11
1.28241
21
2.31462
0
LINE
8
BLACK
6
CONTINUOUS
10
1.28241
20
2.31462
11
1.28181
21
2.31764
0
LINE
8
BLACK
6
CONTINUOUS
10
1.28181
20
2.31764
11
1.28181
21
2.37764
0
LINE
8
BLACK
6
CONTINUOUS
10
1.28181
20
2.37764
11
1.28241
21
2.38065
0
LINE
8
BLACK
6
CONTINUOUS
10
1.28241
20
2.38065
11
1.28412
21
2.38321
0
LINE
8
BLACK
6
CONTINUOUS
10
1.28412
20
2.38321
11
1.28667
21
2.38491
0
LINE
8
BLACK
6
CONTINUOUS
10
1.28667
20
2.38491
11
1.28969
21
2.38551
0
LINE
8
BLACK
6
CONTINUOUS
10
1.28969
20
2.38551
11
1.34969
21
2.38551
0
LINE
8
BLACK
6
CONTINUOUS
10
1.34969
20
2.38551
11
1.3527
21
2.38491
0
LINE
8
BLACK
6
CONTINUOUS
10
1.4527
20
2.38491
11
1.45525
21
2.38321
0
LINE
8
BLACK
6
CONTINUOUS
10
1.45525
20
2.38321
11
1.45696
21
2.38065
0
LINE
8
BLACK
6
CONTINUOUS
10
1.45696
20
2.38065
11
1.45756
21
2.37764
0
LINE
8
BLACK
6
CONTINUOUS
10
1.45756
20
2.37764
11
1.45756
21
2.31764
0
LINE
8
BLACK
6
CONTINUOUS
10
1.45756
20
2.31764
11
1.45696
21
2.31462
0
LINE
8
BLACK
6
CONTINUOUS
10
1.45696
20
2.31462
11
1.45525
21
2.31207
0
LINE
8
BLACK
6
CONTINUOUS
10
1.45525
20
2.31207
11
1.4527
21
2.31036
0
LINE
8
BLACK
6
CONTINUOUS
10
1.4527
20
2.31036
11
1.44969
21
2.30976
0
LINE
8
BLACK
6
CONTINUOUS
10
1.44969
20
2.30976
11
1.38969
21
2.30976
0
LINE
8
BLACK
6
CONTINUOUS
10
1.38969
20
2.30976
11
1.38667
21
2.31036
0
LINE
8
BLACK
6
CONTINUOUS
10
1.38667
20
2.31036
11
1.38412
21
2.31207
0
LINE
8
BLACK
6
CONTINUOUS
10
1.38412
20
2.31207
11
1.38241
21
2.31462
0
LINE
8
BLACK
6
CONTINUOUS
10
1.38241
20
2.31462
11
1.38181
21
2.31764
0
LINE
8
BLACK
6
CONTINUOUS
10
1.38181
20
2.31764
11
1.38181
21
2.37764
0
LINE
8
BLACK
6
CONTINUOUS
10
1.38181
20
2.37764
11
1.38241
21
2.38065
0
LINE
8
BLACK
6
CONTINUOUS
10
1.38241
20
2.38065
11
1.38412
21
2.38321
0
LINE
8
BLACK
6
CONTINUOUS
10
1.38412
20
2.38321
11
1.38667
21
2.38491
0
LINE
8
BLACK
6
CONTINUOUS
10
1.38667
20
2.38491
11
1.38969
21
2.38551
0
LINE
8
BLACK
6
CONTINUOUS
10
1.38969
20
2.38551
11
1.44969
21
2.38551
0
LINE
8
BLACK
6
CONTINUOUS
10
1.44969
20
2.38551
11
1.4527
21
2.38491
0
LINE
8
BLACK
6
CONTINUOUS
10
1.5527
20
2.38491
11
1.55525
21
2.38321
0
LINE
8
BLACK
6
CONTINUOUS
10
1.55525
20
2.38321
11
1.55696
21
2.38065
0
LINE
8
BLACK
6
CONTINUOUS
10
1.55696
20
2.38065
11
1.55756
21
2.37764
0
LINE
8
BLACK
6
CONTINUOUS
10
1.55756
20
2.37764
11
1.55756
21
2.31764
0
LINE
8
BLACK
6
CONTINUOUS
10
1.55756
20
2.31764
11
1.55696
21
2.31462
0
LINE
8
BLACK
6
CONTINUOUS
10
1.55696
20
2.31462
11
1.55525
21
2.31207
0
LINE
8
BLACK
6
CONTINUOUS
10
1.55525
20
2.31207
11
1.5527
21
2.31036
0
LINE
8
BLACK
6
CONTINUOUS
10
1.5527
20
2.31036
11
1.54969
21
2.30976
0
LINE
8
BLACK
6
CONTINUOUS
10
1.54969
20
2.30976
11
1.48969
21
2.30976
0
LINE
8
BLACK
6
CONTINUOUS
10
1.48969
20
2.30976
11
1.48667
21
2.31036
0
LINE
8
BLACK
6
CONTINUOUS
10
1.48667
20
2.31036
11
1.48412
21
2.31207
0
LINE
8
BLACK
6
CONTINUOUS
10
1.48412
20
2.31207
11
1.48241
21
2.31462
0
LINE
8
BLACK
6
CONTINUOUS
10
1.48241
20
2.31462
11
1.48181
21
2.31764
0
LINE
8
BLACK
6
CONTINUOUS
10
1.48181
20
2.31764
11
1.48181
21
2.37764
0
LINE
8
BLACK
6
CONTINUOUS
10
1.48181
20
2.37764
11
1.48241
21
2.38065
0
LINE
8
BLACK
6
CONTINUOUS
10
1.48241
20
2.38065
11
1.48412
21
2.38321
0
LINE
8
BLACK
6
CONTINUOUS
10
1.48412
20
2.38321
11
1.48667
21
2.38491
0
LINE
8
BLACK
6
CONTINUOUS
10
1.48667
20
2.38491
11
1.48969
21
2.38551
0
LINE
8
BLACK
6
CONTINUOUS
10
1.48969
20
2.38551
11
1.54969
21
2.38551
0
LINE
8
BLACK
6
CONTINUOUS
10
1.54969
20
2.38551
11
1.5527
21
2.38491
0
LINE
8
BLACK
6
CONTINUOUS
10
1.6527
20
2.38491
11
1.65525
21
2.38321
0
LINE
8
BLACK
6
CONTINUOUS
10
1.65525
20
2.38321
11
1.65696
21
2.38065
0
LINE
8
BLACK
6
CONTINUOUS
10
1.65696
20
2.38065
11
1.65756
21
2.37764
0
LINE
8
BLACK
6
CONTINUOUS
10
1.65756
20
2.37764
11
1.65756
21
2.31764
0
LINE
8
BLACK
6
CONTINUOUS
10
1.65756
20
2.31764
11
1.65696
21
2.31462
0
LINE
8
BLACK
6
CONTINUOUS
10
1.65696
20
2.31462
11
1.65525
21
2.31207
0
LINE
8
BLACK
6
CONTINUOUS
10
1.65525
20
2.31207
11
1.6527
21
2.31036
0
LINE
8
BLACK
6
CONTINUOUS
10
1.6527
20
2.31036
11
1.64969
21
2.30976
0
LINE
8
BLACK
6
CONTINUOUS
10
1.64969
20
2.30976
11
1.58969
21
2.30976
0
LINE
8
BLACK
6
CONTINUOUS
10
1.58969
20
2.30976
11
1.58667
21
2.31036
0
LINE
8
BLACK
6
CONTINUOUS
10
1.58667
20
2.31036
11
1.58412
21
2.31207
0
LINE
8
BLACK
6
CONTINUOUS
10
1.58412
20
2.31207
11
1.58241
21
2.31462
0
LINE
8
BLACK
6
CONTINUOUS
10
1.58241
20
2.31462
11
1.58181
21
2.31764
0
LINE
8
BLACK
6
CONTINUOUS
10
1.58181
20
2.31764
11
1.58181
21
2.37764
0
LINE
8
BLACK
6
CONTINUOUS
10
1.58181
20
2.37764
11
1.58241
21
2.38065
0
LINE
8
BLACK
6
CONTINUOUS
10
1.58241
20
2.38065
11
1.58412
21
2.38321
0
LINE
8
BLACK
6
CONTINUOUS
10
1.58412
20
2.38321
11
1.58667
21
2.38491
0
LINE
8
BLACK
6
CONTINUOUS
10
1.58667
20
2.38491
11
1.58969
21
2.38551
0
LINE
8
BLACK
6
CONTINUOUS
10
1.58969
20
2.38551
11
1.64969
21
2.38551
0
LINE
8
BLACK
6
CONTINUOUS
10
1.64969
20
2.38551
11
1.6527
21
2.38491
0
LINE
8
BLACK
6
CONTINUOUS
10
1.7527
20
2.38491
11
1.75525
21
2.38321
0
LINE
8
BLACK
6
CONTINUOUS
10
1.75525
20
2.38321
11
1.75696
21
2.38065
0
LINE
8
BLACK
6
CONTINUOUS
10
1.75696
20
2.38065
11
1.75756
21
2.37764
0
LINE
8
BLACK
6
CONTINUOUS
10
1.75756
20
2.37764
11
1.75756
21
2.31764
0
LINE
8
BLACK
6
CONTINUOUS
10
1.75756
20
2.31764
11
1.75696
21
2.31462
0
LINE
8
BLACK
6
CONTINUOUS
10
1.75696
20
2.31462
11
1.75525
21
2.31207
0
LINE
8
BLACK
6
CONTINUOUS
10
1.75525
20
2.31207
11
1.7527
21
2.31036
0
LINE
8
BLACK
6
CONTINUOUS
10
1.7527
20
2.31036
11
1.74969
21
2.30976
0
LINE
8
BLACK
6
CONTINUOUS
10
1.74969
20
2.30976
11
1.68969
21
2.30976
0
LINE
8
BLACK
6
CONTINUOUS
10
1.68969
20
2.30976
11
1.68667
21
2.31036
0
LINE
8
BLACK
6
CONTINUOUS
10
1.68667
20
2.31036
11
1.68412
21
2.31207
0
LINE
8
BLACK
6
CONTINUOUS
10
1.68412
20
2.31207
11
1.68241
21
2.31462
0
LINE
8
BLACK
6
CONTINUOUS
10
1.68241
20
2.31462
11
1.68181
21
2.31764
0
LINE
8
BLACK
6
CONTINUOUS
10
1.68181
20
2.31764
11
1.68181
21
2.37764
0
LINE
8
BLACK
6
CONTINUOUS
10
1.68181
20
2.37764
11
1.68241
21
2.38065
0
LINE
8
BLACK
6
CONTINUOUS
10
1.68241
20
2.38065
11
1.68412
21
2.38321
0
LINE
8
BLACK
6
CONTINUOUS
10
1.68412
20
2.38321
11
1.68667
21
2.38491
0
LINE
8
BLACK
6
CONTINUOUS
10
1.68667
20
2.38491
11
1.68969
21
2.38551
0
LINE
8
BLACK
6
CONTINUOUS
10
1.68969
20
2.38551
11
1.74969
21
2.38551
0
LINE
8
BLACK
6
CONTINUOUS
10
1.74969
20
2.38551
11
1.7527
21
2.38491
0
LINE
8
BLACK
6
CONTINUOUS
10
0.863722
20
2.38767
11
0.866276
21
2.38596
0
LINE
8
BLACK
6
CONTINUOUS
10
0.866276
20
2.38596
11
0.867983
21
2.38341
0
LINE
8
BLACK
6
CONTINUOUS
10
0.867983
20
2.38341
11
0.868583
21
2.38039
0
LINE
8
BLACK
6
CONTINUOUS
10
0.868583
20
2.38039
11
0.868583
21
2.32039
0
LINE
8
BLACK
6
CONTINUOUS
10
0.868583
20
2.32039
11
0.867983
21
2.31738
0
LINE
8
BLACK
6
CONTINUOUS
10
0.867983
20
2.31738
11
0.866276
21
2.31483
0
LINE
8
BLACK
6
CONTINUOUS
10
0.866276
20
2.31483
11
0.863722
21
2.31312
0
LINE
8
BLACK
6
CONTINUOUS
10
0.863722
20
2.31312
11
0.860709
21
2.31252
0
LINE
8
BLACK
6
CONTINUOUS
10
0.860709
20
2.31252
11
0.800709
21
2.31252
0
LINE
8
BLACK
6
CONTINUOUS
10
0.800709
20
2.31252
11
0.797695
21
2.31312
0
LINE
8
BLACK
6
CONTINUOUS
10
0.797695
20
2.31312
11
0.795141
21
2.31483
0
LINE
8
BLACK
6
CONTINUOUS
10
0.795141
20
2.31483
11
0.793434
21
2.31738
0
LINE
8
BLACK
6
CONTINUOUS
10
0.793434
20
2.31738
11
0.792835
21
2.32039
0
LINE
8
BLACK
6
CONTINUOUS
10
0.792835
20
2.32039
11
0.792835
21
2.38039
0
LINE
8
BLACK
6
CONTINUOUS
10
0.792835
20
2.38039
11
0.793434
21
2.38341
0
LINE
8
BLACK
6
CONTINUOUS
10
0.793434
20
2.38341
11
0.795141
21
2.38596
0
LINE
8
BLACK
6
CONTINUOUS
10
0.795141
20
2.38596
11
0.797695
21
2.38767
0
LINE
8
BLACK
6
CONTINUOUS
10
0.797695
20
2.38767
11
0.800709
21
2.38827
0
LINE
8
BLACK
6
CONTINUOUS
10
0.800709
20
2.38827
11
0.860709
21
2.38827
0
LINE
8
BLACK
6
CONTINUOUS
10
0.860709
20
2.38827
11
0.863722
21
2.38767
0
LINE
8
BLACK
6
CONTINUOUS
10
0.263722
20
2.48491
11
0.266276
21
2.48321
0
LINE
8
BLACK
6
CONTINUOUS
10
0.266276
20
2.48321
11
0.267983
21
2.48065
0
LINE
8
BLACK
6
CONTINUOUS
10
0.267983
20
2.48065
11
0.268583
21
2.47764
0
LINE
8
BLACK
6
CONTINUOUS
10
0.268583
20
2.47764
11
0.268583
21
2.41764
0
LINE
8
BLACK
6
CONTINUOUS
10
0.268583
20
2.41764
11
0.267983
21
2.41462
0
LINE
8
BLACK
6
CONTINUOUS
10
0.267983
20
2.41462
11
0.266276
21
2.41207
0
LINE
8
BLACK
6
CONTINUOUS
10
0.266276
20
2.41207
11
0.263722
21
2.41036
0
LINE
8
BLACK
6
CONTINUOUS
10
0.263722
20
2.41036
11
0.260709
21
2.40976
0
LINE
8
BLACK
6
CONTINUOUS
10
0.260709
20
2.40976
11
0.200709
21
2.40976
0
LINE
8
BLACK
6
CONTINUOUS
10
0.200709
20
2.40976
11
0.197695
21
2.41036
0
LINE
8
BLACK
6
CONTINUOUS
10
0.197695
20
2.41036
11
0.195141
21
2.41207
0
LINE
8
BLACK
6
CONTINUOUS
10
0.195141
20
2.41207
11
0.193434
21
2.41462
0
LINE
8
BLACK
6
CONTINUOUS
10
0.193434
20
2.41462
11
0.192835
21
2.41764
0
LINE
8
BLACK
6
CONTINUOUS
10
0.192835
20
2.41764
11
0.192835
21
2.47764
0
LINE
8
BLACK
6
CONTINUOUS
10
0.192835
20
2.47764
11
0.193434
21
2.48065
0
LINE
8
BLACK
6
CONTINUOUS
10
0.193434
20
2.48065
11
0.195141
21
2.48321
0
LINE
8
BLACK
6
CONTINUOUS
10
0.195141
20
2.48321
11
0.197695
21
2.48491
0
LINE
8
BLACK
6
CONTINUOUS
10
0.197695
20
2.48491
11
0.200709
21
2.48551
0
LINE
8
BLACK
6
CONTINUOUS
10
0.200709
20
2.48551
11
0.260709
21
2.48551
0
LINE
8
BLACK
6
CONTINUOUS
10
0.260709
20
2.48551
11
0.263722
21
2.48491
0
LINE
8
BLACK
6
CONTINUOUS
10
0.363722
20
2.48491
11
0.366276
21
2.48321
0
LINE
8
BLACK
6
CONTINUOUS
10
0.366276
20
2.48321
11
0.367983
21
2.48065
0
LINE
8
BLACK
6
CONTINUOUS
10
0.367983
20
2.48065
11
0.368583
21
2.47764
0
LINE
8
BLACK
6
CONTINUOUS
10
0.368583
20
2.47764
11
0.368583
21
2.41764
0
LINE
8
BLACK
6
CONTINUOUS
10
0.368583
20
2.41764
11
0.367983
21
2.41462
0
LINE
8
BLACK
6
CONTINUOUS
10
0.367983
20
2.41462
11
0.366276
21
2.41207
0
LINE
8
BLACK
6
CONTINUOUS
10
0.366276
20
2.41207
11
0.363722
21
2.41036
0
LINE
8
BLACK
6
CONTINUOUS
10
0.363722
20
2.41036
11
0.360709
21
2.40976
0
LINE
8
BLACK
6
CONTINUOUS
10
0.360709
20
2.40976
11
0.300709
21
2.40976
0
LINE
8
BLACK
6
CONTINUOUS
10
0.300709
20
2.40976
11
0.297695
21
2.41036
0
LINE
8
BLACK
6
CONTINUOUS
10
0.297695
20
2.41036
11
0.295141
21
2.41207
0
LINE
8
BLACK
6
CONTINUOUS
10
0.295141
20
2.41207
11
0.293434
21
2.41462
0
LINE
8
BLACK
6
CONTINUOUS
10
0.293434
20
2.41462
11
0.292835
21
2.41764
0
LINE
8
BLACK
6
CONTINUOUS
10
0.292835
20
2.41764
11
0.292835
21
2.47764
0
LINE
8
BLACK
6
CONTINUOUS
10
0.292835
20
2.47764
11
0.293434
21
2.48065
0
LINE
8
BLACK
6
CONTINUOUS
10
0.293434
20
2.48065
11
0.295141
21
2.48321
0
LINE
8
BLACK
6
CONTINUOUS
10
0.295141
20
2.48321
11
0.297695
21
2.48491
0
LINE
8
BLACK
6
CONTINUOUS
10
0.297695
20
2.48491
11
0.300709
21
2.48551
0
LINE
8
BLACK
6
CONTINUOUS
10
0.300709
20
2.48551
11
0.360709
21
2.48551
0
LINE
8
BLACK
6
CONTINUOUS
10
0.360709
20
2.48551
11
0.363722
21
2.48491
0
LINE
8
BLACK
6
CONTINUOUS
10
0.463722
20
2.48491
11
0.466276
21
2.48321
0
LINE
8
BLACK
6
CONTINUOUS
10
0.466276
20
2.48321
11
0.467983
21
2.48065
0
LINE
8
BLACK
6
CONTINUOUS
10
0.467983
20
2.48065
11
0.468583
21
2.47764
0
LINE
8
BLACK
6
CONTINUOUS
10
0.468583
20
2.47764
11
0.468583
21
2.41764
0
LINE
8
BLACK
6
CONTINUOUS
10
0.468583
20
2.41764
11
0.467983
21
2.41462
0
LINE
8
BLACK
6
CONTINUOUS
10
0.467983
20
2.41462
11
0.466276
21
2.41207
0
LINE
8
BLACK
6
CONTINUOUS
10
0.466276
20
2.41207
11
0.463722
21
2.41036
0
LINE
8
BLACK
6
CONTINUOUS
10
0.463722
20
2.41036
11
0.460709
21
2.40976
0
LINE
8
BLACK
6
CONTINUOUS
10
0.460709
20
2.40976
11
0.400709
21
2.40976
0
LINE
8
BLACK
6
CONTINUOUS
10
0.400709
20
2.40976
11
0.397695
21
2.41036
0
LINE
8
BLACK
6
CONTINUOUS
10
0.397695
20
2.41036
11
0.395141
21
2.41207
0
LINE
8
BLACK
6
CONTINUOUS
10
0.395141
20
2.41207
11
0.393434
21
2.41462
0
LINE
8
BLACK
6
CONTINUOUS
10
0.393434
20
2.41462
11
0.392835
21
2.41764
0
LINE
8
BLACK
6
CONTINUOUS
10
0.392835
20
2.41764
11
0.392835
21
2.47764
0
LINE
8
BLACK
6
CONTINUOUS
10
0.392835
20
2.47764
11
0.393434
21
2.48065
0
LINE
8
BLACK
6
CONTINUOUS
10
0.393434
20
2.48065
11
0.395141
21
2.48321
0
LINE
8
BLACK
6
CONTINUOUS
10
0.395141
20
2.48321
11
0.397695
21
2.48491
0
LINE
8
BLACK
6
CONTINUOUS
10
0.397695
20
2.48491
11
0.400709
21
2.48551
0
LINE
8
BLACK
6
CONTINUOUS
10
0.400709
20
2.48551
11
0.460709
21
2.48551
0
LINE
8
BLACK
6
CONTINUOUS
10
0.460709
20
2.48551
11
0.463722
21
2.48491
0
LINE
8
BLACK
6
CONTINUOUS
10
0.603092
20
2.48491
11
0.605646
21
2.48321
0
LINE
8
BLACK
6
CONTINUOUS
10
0.605646
20
2.48321
11
0.607353
21
2.48065
0
LINE
8
BLACK
6
CONTINUOUS
10
0.607353
20
2.48065
11
0.607953
21
2.47764
0
LINE
8
BLACK
6
CONTINUOUS
10
0.607953
20
2.47764
11
0.607953
21
2.41764
0
LINE
8
BLACK
6
CONTINUOUS
10
0.607953
20
2.41764
11
0.607353
21
2.41462
0
LINE
8
BLACK
6
CONTINUOUS
10
0.607353
20
2.41462
11
0.605646
21
2.41207
0
LINE
8
BLACK
6
CONTINUOUS
10
0.605646
20
2.41207
11
0.603092
21
2.41036
0
LINE
8
BLACK
6
CONTINUOUS
10
0.603092
20
2.41036
11
0.600079
21
2.40976
0
LINE
8
BLACK
6
CONTINUOUS
10
0.600079
20
2.40976
11
0.540079
21
2.40976
0
LINE
8
BLACK
6
CONTINUOUS
10
0.540079
20
2.40976
11
0.537065
21
2.41036
0
LINE
8
BLACK
6
CONTINUOUS
10
0.537065
20
2.41036
11
0.534511
21
2.41207
0
LINE
8
BLACK
6
CONTINUOUS
10
0.534511
20
2.41207
11
0.532804
21
2.41462
0
LINE
8
BLACK
6
CONTINUOUS
10
0.532804
20
2.41462
11
0.532205
21
2.41764
0
LINE
8
BLACK
6
CONTINUOUS
10
0.532205
20
2.41764
11
0.532205
21
2.47764
0
LINE
8
BLACK
6
CONTINUOUS
10
0.532205
20
2.47764
11
0.532804
21
2.48065
0
LINE
8
BLACK
6
CONTINUOUS
10
0.532804
20
2.48065
11
0.534511
21
2.48321
0
LINE
8
BLACK
6
CONTINUOUS
10
0.534511
20
2.48321
11
0.537065
21
2.48491
0
LINE
8
BLACK
6
CONTINUOUS
10
0.537065
20
2.48491
11
0.540079
21
2.48551
0
LINE
8
BLACK
6
CONTINUOUS
10
0.540079
20
2.48551
11
0.600079
21
2.48551
0
LINE
8
BLACK
6
CONTINUOUS
10
0.600079
20
2.48551
11
0.603092
21
2.48491
0
LINE
8
BLACK
6
CONTINUOUS
10
0.703092
20
2.48491
11
0.705646
21
2.48321
0
LINE
8
BLACK
6
CONTINUOUS
10
0.705646
20
2.48321
11
0.707353
21
2.48065
0
LINE
8
BLACK
6
CONTINUOUS
10
0.707353
20
2.48065
11
0.707953
21
2.47764
0
LINE
8
BLACK
6
CONTINUOUS
10
0.707953
20
2.47764
11
0.707953
21
2.41764
0
LINE
8
BLACK
6
CONTINUOUS
10
0.707953
20
2.41764
11
0.707353
21
2.41462
0
LINE
8
BLACK
6
CONTINUOUS
10
0.707353
20
2.41462
11
0.705646
21
2.41207
0
LINE
8
BLACK
6
CONTINUOUS
10
0.705646
20
2.41207
11
0.703092
21
2.41036
0
LINE
8
BLACK
6
CONTINUOUS
10
0.703092
20
2.41036
11
0.700079
21
2.40976
0
LINE
8
BLACK
6
CONTINUOUS
10
0.700079
20
2.40976
11
0.640079
21
2.40976
0
LINE
8
BLACK
6
CONTINUOUS
10
0.640079
20
2.40976
11
0.637065
21
2.41036
0
LINE
8
BLACK
6
CONTINUOUS
10
0.637065
20
2.41036
11
0.634511
21
2.41207
0
LINE
8
BLACK
6
CONTINUOUS
10
0.634511
20
2.41207
11
0.632804
21
2.41462
0
LINE
8
BLACK
6
CONTINUOUS
10
0.632804
20
2.41462
11
0.632205
21
2.41764
0
LINE
8
BLACK
6
CONTINUOUS
10
0.632205
20
2.41764
11
0.632205
21
2.47764
0
LINE
8
BLACK
6
CONTINUOUS
10
0.632205
20
2.47764
11
0.632804
21
2.48065
0
LINE
8
BLACK
6
CONTINUOUS
10
0.632804
20
2.48065
11
0.634511
21
2.48321
0
LINE
8
BLACK
6
CONTINUOUS
10
0.634511
20
2.48321
11
0.637065
21
2.48491
0
LINE
8
BLACK
6
CONTINUOUS
10
0.637065
20
2.48491
11
0.640079
21
2.48551
0
LINE
8
BLACK
6
CONTINUOUS
10
0.640079
20
2.48551
11
0.700079
21
2.48551
0
LINE
8
BLACK
6
CONTINUOUS
10
0.700079
20
2.48551
11
0.703092
21
2.48491
0
LINE
8
BLACK
6
CONTINUOUS
10
1.00388
20
2.48491
11
1.00643
21
2.48321
0
LINE
8
BLACK
6
CONTINUOUS
10
1.00643
20
2.48321
11
1.00814
21
2.48065
0
LINE
8
BLACK
6
CONTINUOUS
10
1.00814
20
2.48065
11
1.00874
21
2.47764
0
LINE
8
BLACK
6
CONTINUOUS
10
1.00874
20
2.47764
11
1.00874
21
2.41764
0
LINE
8
BLACK
6
CONTINUOUS
10
1.00874
20
2.41764
11
1.00814
21
2.41462
0
LINE
8
BLACK
6
CONTINUOUS
10
1.00814
20
2.41462
11
1.00643
21
2.41207
0
LINE
8
BLACK
6
CONTINUOUS
10
1.00643
20
2.41207
11
1.00388
21
2.41036
0
LINE
8
BLACK
6
CONTINUOUS
10
1.00388
20
2.41036
11
1.00087
21
2.40976
0
LINE
8
BLACK
6
CONTINUOUS
10
1.00087
20
2.40976
11
0.940866
21
2.40976
0
LINE
8
BLACK
6
CONTINUOUS
10
0.940866
20
2.40976
11
0.937853
21
2.41036
0
LINE
8
BLACK
6
CONTINUOUS
10
0.937853
20
2.41036
11
0.935298
21
2.41207
0
LINE
8
BLACK
6
CONTINUOUS
10
0.935298
20
2.41207
11
0.933591
21
2.41462
0
LINE
8
BLACK
6
CONTINUOUS
10
0.933591
20
2.41462
11
0.932992
21
2.41764
0
LINE
8
BLACK
6
CONTINUOUS
10
0.932992
20
2.41764
11
0.932992
21
2.47764
0
LINE
8
BLACK
6
CONTINUOUS
10
0.932992
20
2.47764
11
0.933591
21
2.48065
0
LINE
8
BLACK
6
CONTINUOUS
10
0.933591
20
2.48065
11
0.935298
21
2.48321
0
LINE
8
BLACK
6
CONTINUOUS
10
0.935298
20
2.48321
11
0.937853
21
2.48491
0
LINE
8
BLACK
6
CONTINUOUS
10
0.937853
20
2.48491
11
0.940866
21
2.48551
0
LINE
8
BLACK
6
CONTINUOUS
10
0.940866
20
2.48551
11
1.00087
21
2.48551
0
LINE
8
BLACK
6
CONTINUOUS
10
1.00087
20
2.48551
11
1.00388
21
2.48491
0
LINE
8
BLACK
6
CONTINUOUS
10
1.10388
20
2.48491
11
1.10643
21
2.48321
0
LINE
8
BLACK
6
CONTINUOUS
10
1.10643
20
2.48321
11
1.10814
21
2.48065
0
LINE
8
BLACK
6
CONTINUOUS
10
1.10814
20
2.48065
11
1.10874
21
2.47764
0
LINE
8
BLACK
6
CONTINUOUS
10
1.10874
20
2.47764
11
1.10874
21
2.41764
0
LINE
8
BLACK
6
CONTINUOUS
10
1.10874
20
2.41764
11
1.10814
21
2.41462
0
LINE
8
BLACK
6
CONTINUOUS
10
1.10814
20
2.41462
11
1.10643
21
2.41207
0
LINE
8
BLACK
6
CONTINUOUS
10
1.10643
20
2.41207
11
1.10388
21
2.41036
0
LINE
8
BLACK
6
CONTINUOUS
10
1.10388
20
2.41036
11
1.10087
21
2.40976
0
LINE
8
BLACK
6
CONTINUOUS
10
1.10087
20
2.40976
11
1.04087
21
2.40976
0
LINE
8
BLACK
6
CONTINUOUS
10
1.04087
20
2.40976
11
1.03785
21
2.41036
0
LINE
8
BLACK
6
CONTINUOUS
10
1.03785
20
2.41036
11
1.0353
21
2.41207
0
LINE
8
BLACK
6
CONTINUOUS
10
1.0353
20
2.41207
11
1.03359
21
2.41462
0
LINE
8
BLACK
6
CONTINUOUS
10
1.03359
20
2.41462
11
1.03299
21
2.41764
0
LINE
8
BLACK
6
CONTINUOUS
10
1.03299
20
2.41764
11
1.03299
21
2.47764
0
LINE
8
BLACK
6
CONTINUOUS
10
1.03299
20
2.47764
11
1.03359
21
2.48065
0
LINE
8
BLACK
6
CONTINUOUS
10
1.03359
20
2.48065
11
1.0353
21
2.48321
0
LINE
8
BLACK
6
CONTINUOUS
10
1.0353
20
2.48321
11
1.03785
21
2.48491
0
LINE
8
BLACK
6
CONTINUOUS
10
1.03785
20
2.48491
11
1.04087
21
2.48551
0
LINE
8
BLACK
6
CONTINUOUS
10
1.04087
20
2.48551
11
1.10087
21
2.48551
0
LINE
8
BLACK
6
CONTINUOUS
10
1.10087
20
2.48551
11
1.10388
21
2.48491
0
LINE
8
BLACK
6
CONTINUOUS
10
1.20388
20
2.48491
11
1.20643
21
2.48321
0
LINE
8
BLACK
6
CONTINUOUS
10
1.20643
20
2.48321
11
1.20814
21
2.48065
0
LINE
8
BLACK
6
CONTINUOUS
10
1.20814
20
2.48065
11
1.20874
21
2.47764
0
LINE
8
BLACK
6
CONTINUOUS
10
1.20874
20
2.47764
11
1.20874
21
2.41764
0
LINE
8
BLACK
6
CONTINUOUS
10
1.20874
20
2.41764
11
1.20814
21
2.41462
0
LINE
8
BLACK
6
CONTINUOUS
10
1.20814
20
2.41462
11
1.20643
21
2.41207
0
LINE
8
BLACK
6
CONTINUOUS
10
1.20643
20
2.41207
11
1.20388
21
2.41036
0
LINE
8
BLACK
6
CONTINUOUS
10
1.20388
20
2.41036
11
1.20087
21
2.40976
0
LINE
8
BLACK
6
CONTINUOUS
10
1.20087
20
2.40976
11
1.14087
21
2.40976
0
LINE
8
BLACK
6
CONTINUOUS
10
1.14087
20
2.40976
11
1.13785
21
2.41036
0
LINE
8
BLACK
6
CONTINUOUS
10
1.13785
20
2.41036
11
1.1353
21
2.41207
0
LINE
8
BLACK
6
CONTINUOUS
10
1.1353
20
2.41207
11
1.13359
21
2.41462
0
LINE
8
BLACK
6
CONTINUOUS
10
1.13359
20
2.41462
11
1.13299
21
2.41764
0
LINE
8
BLACK
6
CONTINUOUS
10
1.13299
20
2.41764
11
1.13299
21
2.47764
0
LINE
8
BLACK
6
CONTINUOUS
10
1.13299
20
2.47764
11
1.13359
21
2.48065
0
LINE
8
BLACK
6
CONTINUOUS
10
1.13359
20
2.48065
11
1.1353
21
2.48321
0
LINE
8
BLACK
6
CONTINUOUS
10
1.1353
20
2.48321
11
1.13785
21
2.48491
0
LINE
8
BLACK
6
CONTINUOUS
10
1.13785
20
2.48491
11
1.14087
21
2.48551
0
LINE
8
BLACK
6
CONTINUOUS
10
1.14087
20
2.48551
11
1.20087
21
2.48551
0
LINE
8
BLACK
6
CONTINUOUS
10
1.20087
20
2.48551
11
1.20388
21
2.48491
0
LINE
8
BLACK
6
CONTINUOUS
10
1.3527
20
2.48491
11
1.35525
21
2.48321
0
LINE
8
BLACK
6
CONTINUOUS
10
1.35525
20
2.48321
11
1.35696
21
2.48065
0
LINE
8
BLACK
6
CONTINUOUS
10
1.35696
20
2.48065
11
1.35756
21
2.47764
0
LINE
8
BLACK
6
CONTINUOUS
10
1.35756
20
2.47764
11
1.35756
21
2.41764
0
LINE
8
BLACK
6
CONTINUOUS
10
1.35756
20
2.41764
11
1.35696
21
2.41462
0
LINE
8
BLACK
6
CONTINUOUS
10
1.35696
20
2.41462
11
1.35525
21
2.41207
0
LINE
8
BLACK
6
CONTINUOUS
10
1.35525
20
2.41207
11
1.3527
21
2.41036
0
LINE
8
BLACK
6
CONTINUOUS
10
1.3527
20
2.41036
11
1.34969
21
2.40976
0
LINE
8
BLACK
6
CONTINUOUS
10
1.34969
20
2.40976
11
1.28969
21
2.40976
0
LINE
8
BLACK
6
CONTINUOUS
10
1.28969
20
2.40976
11
1.28667
21
2.41036
0
LINE
8
BLACK
6
CONTINUOUS
10
1.28667
20
2.41036
11
1.28412
21
2.41207
0
LINE
8
BLACK
6
CONTINUOUS
10
1.28412
20
2.41207
11
1.28241
21
2.41462
0
LINE
8
BLACK
6
CONTINUOUS
10
1.28241
20
2.41462
11
1.28181
21
2.41764
0
LINE
8
BLACK
6
CONTINUOUS
10
1.28181
20
2.41764
11
1.28181
21
2.47764
0
LINE
8
BLACK
6
CONTINUOUS
10
1.28181
20
2.47764
11
1.28241
21
2.48065
0
LINE
8
BLACK
6
CONTINUOUS
10
1.28241
20
2.48065
11
1.28412
21
2.48321
0
LINE
8
BLACK
6
CONTINUOUS
10
1.28412
20
2.48321
11
1.28667
21
2.48491
0
LINE
8
BLACK
6
CONTINUOUS
10
1.28667
20
2.48491
11
1.28969
21
2.48551
0
LINE
8
BLACK
6
CONTINUOUS
10
1.28969
20
2.48551
11
1.34969
21
2.48551
0
LINE
8
BLACK
6
CONTINUOUS
10
1.34969
20
2.48551
11
1.3527
21
2.48491
0
LINE
8
BLACK
6
CONTINUOUS
10
1.4527
20
2.48491
11
1.45525
21
2.48321
0
LINE
8
BLACK
6
CONTINUOUS
10
1.45525
20
2.48321
11
1.45696
21
2.48065
0
LINE
8
BLACK
6
CONTINUOUS
10
1.45696
20
2.48065
11
1.45756
21
2.47764
0
LINE
8
BLACK
6
CONTINUOUS
10
1.45756
20
2.47764
11
1.45756
21
2.41764
0
LINE
8
BLACK
6
CONTINUOUS
10
1.45756
20
2.41764
11
1.45696
21
2.41462
0
LINE
8
BLACK
6
CONTINUOUS
10
1.45696
20
2.41462
11
1.45525
21
2.41207
0
LINE
8
BLACK
6
CONTINUOUS
10
1.45525
20
2.41207
11
1.4527
21
2.41036
0
LINE
8
BLACK
6
CONTINUOUS
10
1.4527
20
2.41036
11
1.44969
21
2.40976
0
LINE
8
BLACK
6
CONTINUOUS
10
1.44969
20
2.40976
11
1.38969
21
2.40976
0
LINE
8
BLACK
6
CONTINUOUS
10
1.38969
20
2.40976
11
1.38667
21
2.41036
0
LINE
8
BLACK
6
CONTINUOUS
10
1.38667
20
2.41036
11
1.38412
21
2.41207
0
LINE
8
BLACK
6
CONTINUOUS
10
1.38412
20
2.41207
11
1.38241
21
2.41462
0
LINE
8
BLACK
6
CONTINUOUS
10
1.38241
20
2.41462
11
1.38181
21
2.41764
0
LINE
8
BLACK
6
CONTINUOUS
10
1.38181
20
2.41764
11
1.38181
21
2.47764
0
LINE
8
BLACK
6
CONTINUOUS
10
1.38181
20
2.47764
11
1.38241
21
2.48065
0
LINE
8
BLACK
6
CONTINUOUS
10
1.38241
20
2.48065
11
1.38412
21
2.48321
0
LINE
8
BLACK
6
CONTINUOUS
10
1.38412
20
2.48321
11
1.38667
21
2.48491
0
LINE
8
BLACK
6
CONTINUOUS
10
1.38667
20
2.48491
11
1.38969
21
2.48551
0
LINE
8
BLACK
6
CONTINUOUS
10
1.38969
20
2.48551
11
1.44969
21
2.48551
0
LINE
8
BLACK
6
CONTINUOUS
10
1.44969
20
2.48551
11
1.4527
21
2.48491
0
LINE
8
BLACK
6
CONTINUOUS
10
1.5527
20
2.48491
11
1.55525
21
2.48321
0
LINE
8
BLACK
6
CONTINUOUS
10
1.55525
20
2.48321
11
1.55696
21
2.48065
0
LINE
8
BLACK
6
CONTINUOUS
10
1.55696
20
2.48065
11
1.55756
21
2.47764
0
LINE
8
BLACK
6
CONTINUOUS
10
1.55756
20
2.47764
11
1.55756
21
2.41764
0
LINE
8
BLACK
6
CONTINUOUS
10
1.55756
20
2.41764
11
1.55696
21
2.41462
0
LINE
8
BLACK
6
CONTINUOUS
10
1.55696
20
2.41462
11
1.55525
21
2.41207
0
LINE
8
BLACK
6
CONTINUOUS
10
1.55525
20
2.41207
11
1.5527
21
2.41036
0
LINE
8
BLACK
6
CONTINUOUS
10
1.5527
20
2.41036
11
1.54969
21
2.40976
0
LINE
8
BLACK
6
CONTINUOUS
10
1.54969
20
2.40976
11
1.48969
21
2.40976
0
LINE
8
BLACK
6
CONTINUOUS
10
1.48969
20
2.40976
11
1.48667
21
2.41036
0
LINE
8
BLACK
6
CONTINUOUS
10
1.48667
20
2.41036
11
1.48412
21
2.41207
0
LINE
8
BLACK
6
CONTINUOUS
10
1.48412
20
2.41207
11
1.48241
21
2.41462
0
LINE
8
BLACK
6
CONTINUOUS
10
1.48241
20
2.41462
11
1.48181
21
2.41764
0
LINE
8
BLACK
6
CONTINUOUS
10
1.48181
20
2.41764
11
1.48181
21
2.47764
0
LINE
8
BLACK
6
CONTINUOUS
10
1.48181
20
2.47764
11
1.48241
21
2.48065
0
LINE
8
BLACK
6
CONTINUOUS
10
1.48241
20
2.48065
11
1.48412
21
2.48321
0
LINE
8
BLACK
6
CONTINUOUS
10
1.48412
20
2.48321
11
1.48667
21
2.48491
0
LINE
8
BLACK
6
CONTINUOUS
10
1.48667
20
2.48491
11
1.48969
21
2.48551
0
LINE
8
BLACK
6
CONTINUOUS
10
1.48969
20
2.48551
11
1.54969
21
2.48551
0
LINE
8
BLACK
6
CONTINUOUS
10
1.54969
20
2.48551
11
1.5527
21
2.48491
0
LINE
8
BLACK
6
CONTINUOUS
10
1.6527
20
2.48491
11
1.65525
21
2.48321
0
LINE
8
BLACK
6
CONTINUOUS
10
1.65525
20
2.48321
11
1.65696
21
2.48065
0
LINE
8
BLACK
6
CONTINUOUS
10
1.65696
20
2.48065
11
1.65756
21
2.47764
0
LINE
8
BLACK
6
CONTINUOUS
10
1.65756
20
2.47764
11
1.65756
21
2.41764
0
LINE
8
BLACK
6
CONTINUOUS
10
1.65756
20
2.41764
11
1.65696
21
2.41462
0
LINE
8
BLACK
6
CONTINUOUS
10
1.65696
20
2.41462
11
1.65525
21
2.41207
0
LINE
8
BLACK
6
CONTINUOUS
10
1.65525
20
2.41207
11
1.6527
21
2.41036
0
LINE
8
BLACK
6
CONTINUOUS
10
1.6527
20
2.41036
11
1.64969
21
2.40976
0
LINE
8
BLACK
6
CONTINUOUS
10
1.64969
20
2.40976
11
1.58969
21
2.40976
0
LINE
8
BLACK
6
CONTINUOUS
10
1.58969
20
2.40976
11
1.58667
21
2.41036
0
LINE
8
BLACK
6
CONTINUOUS
10
1.58667
20
2.41036
11
1.58412
21
2.41207
0
LINE
8
BLACK
6
CONTINUOUS
10
1.58412
20
2.41207
11
1.58241
21
2.41462
0
LINE
8
BLACK
6
CONTINUOUS
10
1.58241
20
2.41462
11
1.58181
21
2.41764
0
LINE
8
BLACK
6
CONTINUOUS
10
1.58181
20
2.41764
11
1.58181
21
2.47764
0
LINE
8
BLACK
6
CONTINUOUS
10
1.58181
20
2.47764
11
1.58241
21
2.48065
0
LINE
8
BLACK
6
CONTINUOUS
10
1.58241
20
2.48065
11
1.58412
21
2.48321
0
LINE
8
BLACK
6
CONTINUOUS
10
1.58412
20
2.48321
11
1.58667
21
2.48491
0
LINE
8
BLACK
6
CONTINUOUS
10
1.58667
20
2.48491
11
1.58969
21
2.48551
0
LINE
8
BLACK
6
CONTINUOUS
10
1.58969
20
2.48551
11
1.64969
21
2.48551
0
LINE
8
BLACK
6
CONTINUOUS
10
1.64969
20
2.48551
11
1.6527
21
2.48491
0
LINE
8
BLACK
6
CONTINUOUS
10
1.7527
20
2.48491
11
1.75525
21
2.48321
0
LINE
8
BLACK
6
CONTINUOUS
10
1.75525
20
2.48321
11
1.75696
21
2.48065
0
LINE
8
BLACK
6
CONTINUOUS
10
1.75696
20
2.48065
11
1.75756
21
2.47764
0
LINE
8
BLACK
6
CONTINUOUS
10
1.75756
20
2.47764
11
1.75756
21
2.41764
0
LINE
8
BLACK
6
CONTINUOUS
10
1.75756
20
2.41764
11
1.75696
21
2.41462
0
LINE
8
BLACK
6
CONTINUOUS
10
1.75696
20
2.41462
11
1.75525
21
2.41207
0
LINE
8
BLACK
6
CONTINUOUS
10
1.75525
20
2.41207
11
1.7527
21
2.41036
0
LINE
8
BLACK
6
CONTINUOUS
10
1.7527
20
2.41036
11
1.74969
21
2.40976
0
LINE
8
BLACK
6
CONTINUOUS
10
1.74969
20
2.40976
11
1.68969
21
2.40976
0
LINE
8
BLACK
6
CONTINUOUS
10
1.68969
20
2.40976
11
1.68667
21
2.41036
0
LINE
8
BLACK
6
CONTINUOUS
10
1.68667
20
2.41036
11
1.68412
21
2.41207
0
LINE
8
BLACK
6
CONTINUOUS
10
1.68412
20
2.41207
11
1.68241
21
2.41462
0
LINE
8
BLACK
6
CONTINUOUS
10
1.68241
20
2.41462
11
1.68181
21
2.41764
0
LINE
8
BLACK
6
CONTINUOUS
10
1.68181
20
2.41764
11
1.68181
21
2.47764
0
LINE
8
BLACK
6
CONTINUOUS
10
1.68181
20
2.47764
11
1.68241
21
2.48065
0
LINE
8
BLACK
6
CONTINUOUS
10
1.68241
20
2.48065
11
1.68412
21
2.48321
0
LINE
8
BLACK
6
CONTINUOUS
10
1.68412
20
2.48321
11
1.68667
21
2.48491
0
LINE
8
BLACK
6
CONTINUOUS
10
1.68667
20
2.48491
11
1.68969
21
2.48551
0
LINE
8
BLACK
6
CONTINUOUS
10
1.68969
20
2.48551
11
1.74969
21
2.48551
0
LINE
8
BLACK
6
CONTINUOUS
10
1.74969
20
2.48551
11
1.7527
21
2.48491
0
LINE
8
BLACK
6
CONTINUOUS
10
0.863722
20
2.48767
11
0.866276
21
2.48596
0
LINE
8
BLACK
6
CONTINUOUS
10
0.866276
20
2.48596
11
0.867983
21
2.48341
0
LINE
8
BLACK
6
CONTINUOUS
10
0.867983
20
2.48341
11
0.868583
21
2.48039
0
LINE
8
BLACK
6
CONTINUOUS
10
0.868583
20
2.48039
11
0.868583
21
2.42039
0
LINE
8
BLACK
6
CONTINUOUS
10
0.868583
20
2.42039
11
0.867983
21
2.41738
0
LINE
8
BLACK
6
CONTINUOUS
10
0.867983
20
2.41738
11
0.866276
21
2.41483
0
LINE
8
BLACK
6
CONTINUOUS
10
0.866276
20
2.41483
11
0.863722
21
2.41312
0
LINE
8
BLACK
6
CONTINUOUS
10
0.863722
20
2.41312
11
0.860709
21
2.41252
0
LINE
8
BLACK
6
CONTINUOUS
10
0.860709
20
2.41252
11
0.800709
21
2.41252
0
LINE
8
BLACK
6
CONTINUOUS
10
0.800709
20
2.41252
11
0.797695
21
2.41312
0
LINE
8
BLACK
6
CONTINUOUS
10
0.797695
20
2.41312
11
0.795141
21
2.41483
0
LINE
8
BLACK
6
CONTINUOUS
10
0.795141
20
2.41483
11
0.793434
21
2.41738
0
LINE
8
BLACK
6
CONTINUOUS
10
0.793434
20
2.41738
11
0.792835
21
2.42039
0
LINE
8
BLACK
6
CONTINUOUS
10
0.792835
20
2.42039
11
0.792835
21
2.48039
0
LINE
8
BLACK
6
CONTINUOUS
10
0.792835
20
2.48039
11
0.793434
21
2.48341
0
LINE
8
BLACK
6
CONTINUOUS
10
0.793434
20
2.48341
11
0.795141
21
2.48596
0
LINE
8
BLACK
6
CONTINUOUS
10
0.795141
20
2.48596
11
0.797695
21
2.48767
0
LINE
8
BLACK
6
CONTINUOUS
10
0.797695
20
2.48767
11
0.800709
21
2.48827
0
LINE
8
BLACK
6
CONTINUOUS
10
0.800709
20
2.48827
11
0.860709
21
2.48827
0
LINE
8
BLACK
6
CONTINUOUS
10
0.860709
20
2.48827
11
0.863722
21
2.48767
  0
ENDSEC
  0
EOF
