  0
SECTION
  2
HEADER
  9
$ANGBASE
  50
0.0
  9
$ANGDIR
  70
1
  9
$MEASUREMENT
  70
0
  0
ENDSEC
  0
SECTION
  2
TABLES
  0
TABLE
  2
LTYPE
  70
4
  0
LTYPE
  5
40F
  2
CONTINUOUS
  70
0
  3
Solid line
  72
65
  73
0
  40
0.0
  0
LTYPE
  5
410
  2
DASHDOT
 70
0
  3
Dash Dot ____ _ ____ _
 72
65
 73
4
 40
2.0
 49
1.25
 49
-0.25
 49
0.25
 49
-0.25
  0
LTYPE
  5
411
  2
DASHED
 70
0
  3
Dashed __ __ __ __ __
 72
65
 73
2
 40
0.75
 49
0.5
 49
-0.25
  0
LTYPE
  5
43B
  2
DOTTED
 70
0
  3
Dotted .  .  .  .
 72
65
 73
2
 40
0.2
 49
0.0
 49
-0.2
  0
ENDTAB
  0
TABLE
  2
STYLE
  70
4
  0
STYLE
  2
KICAD
  70
0
  40
0
  41
1
  42
1
  50
0
  71
0
  3
isocp.shx
  0
STYLE
  2
KICADB
  70
0
  40
0
  41
1
  42
1
  50
0
  71
0
  3
isocp.shx
  0
STYLE
  2
KICADI
  70
0
  40
0
  41
1
  42
1
  50
15
  71
0
  3
isocp.shx
  0
STYLE
  2
KICADBI
  70
0
  40
0
  41
1
  42
1
  50
15
  71
0
  3
isocp.shx
  0
ENDTAB
  0
TABLE
  2
LAYER
  70
1
  0
LAYER
  2
BLACK
  70
0
  62
7
  6
CONTINUOUS
  0
ENDTAB
  0
ENDSEC
  0
SECTION
  2
ENTITIES
0
LINE
8
BLACK
6
CONTINUOUS
10
0.9886811023622047
20
0.0513779527559055
11
0.9932804330708661
21
0.0508597244094488
0
LINE
8
BLACK
6
CONTINUOUS
10
0.9932804330708661
20
0.0508597244094488
11
0.9976491732283465
21
0.049331062992126
0
LINE
8
BLACK
6
CONTINUOUS
10
0.9976491732283465
20
0.049331062992126
11
1.0015681889763779
21
0.0468685826771654
0
LINE
8
BLACK
6
CONTINUOUS
10
1.0015681889763779
20
0.0468685826771654
11
1.0048410236220473
21
0.0435957480314961
0
LINE
8
BLACK
6
CONTINUOUS
10
1.0048410236220473
20
0.0435957480314961
11
1.007303503937008
21
0.0396767322834646
0
LINE
8
BLACK
6
CONTINUOUS
10
1.007303503937008
20
0.0396767322834646
11
1.0088321653543306
21
0.0353079921259843
0
LINE
8
BLACK
6
CONTINUOUS
10
1.0088321653543306
20
0.0353079921259843
11
1.0093503937007873
21
0.0307086614173228
0
LINE
8
BLACK
6
CONTINUOUS
10
1.0093503937007873
20
0.0307086614173228
11
1.0093503937007873
21
-0.0165354330708661
0
LINE
8
BLACK
6
CONTINUOUS
10
1.0093503937007873
20
-0.0165354330708661
11
1.0088321653543306
21
-0.0211347637795276
0
LINE
8
BLACK
6
CONTINUOUS
10
1.0088321653543306
20
-0.0211347637795276
11
1.007303503937008
21
-0.0255035039370079
0
LINE
8
BLACK
6
CONTINUOUS
10
1.007303503937008
20
-0.0255035039370079
11
1.0048410236220473
21
-0.0294225196850394
0
LINE
8
BLACK
6
CONTINUOUS
10
1.0048410236220473
20
-0.0294225196850394
11
1.0015681889763779
21
-0.0326953543307087
0
LINE
8
BLACK
6
CONTINUOUS
10
1.0015681889763779
20
-0.0326953543307087
11
0.9976491732283465
21
-0.0351578346456693
0
LINE
8
BLACK
6
CONTINUOUS
10
0.9976491732283465
20
-0.0351578346456693
11
0.9932804330708661
21
-0.0366864960629921
0
LINE
8
BLACK
6
CONTINUOUS
10
0.9932804330708661
20
-0.0366864960629921
11
0.9886811023622047
21
-0.0372047244094488
0
LINE
8
BLACK
6
CONTINUOUS
10
0.9886811023622047
20
-0.0372047244094488
11
0.9335629921259843
21
-0.0372047244094488
0
LINE
8
BLACK
6
CONTINUOUS
10
0.9335629921259843
20
-0.0372047244094488
11
0.9289636614173228
21
-0.0366864960629921
0
LINE
8
BLACK
6
CONTINUOUS
10
0.9289636614173228
20
-0.0366864960629921
11
0.9245949212598426
21
-0.0351578346456693
0
LINE
8
BLACK
6
CONTINUOUS
10
0.9245949212598426
20
-0.0351578346456693
11
0.920675905511811
21
-0.0326953543307087
0
LINE
8
BLACK
6
CONTINUOUS
10
0.920675905511811
20
-0.0326953543307087
11
0.9174030708661417
21
-0.0294225196850394
0
LINE
8
BLACK
6
CONTINUOUS
10
0.9174030708661417
20
-0.0294225196850394
11
0.914940590551181
21
-0.0255035039370079
0
LINE
8
BLACK
6
CONTINUOUS
10
0.914940590551181
20
-0.0255035039370079
11
0.9134119291338583
21
-0.0211347637795276
0
LINE
8
BLACK
6
CONTINUOUS
10
0.9134119291338583
20
-0.0211347637795276
11
0.9128937007874015
21
-0.0165354330708661
0
LINE
8
BLACK
6
CONTINUOUS
10
0.9128937007874015
20
-0.0165354330708661
11
0.9128937007874015
21
0.0307086614173228
0
LINE
8
BLACK
6
CONTINUOUS
10
0.9128937007874015
20
0.0307086614173228
11
0.9134119291338583
21
0.0353079921259843
0
LINE
8
BLACK
6
CONTINUOUS
10
0.9134119291338583
20
0.0353079921259843
11
0.914940590551181
21
0.0396767322834646
0
LINE
8
BLACK
6
CONTINUOUS
10
0.914940590551181
20
0.0396767322834646
11
0.9174030708661417
21
0.0435957480314961
0
LINE
8
BLACK
6
CONTINUOUS
10
0.9174030708661417
20
0.0435957480314961
11
0.920675905511811
21
0.0468685826771654
0
LINE
8
BLACK
6
CONTINUOUS
10
0.920675905511811
20
0.0468685826771654
11
0.9245949212598426
21
0.049331062992126
0
LINE
8
BLACK
6
CONTINUOUS
10
0.9245949212598426
20
0.049331062992126
11
0.9289636614173228
21
0.0508597244094488
0
LINE
8
BLACK
6
CONTINUOUS
10
0.9289636614173228
20
0.0508597244094488
11
0.9335629921259843
21
0.0513779527559055
0
LINE
8
BLACK
6
CONTINUOUS
10
0.9335629921259843
20
0.0513779527559055
11
0.9886811023622047
21
0.0513779527559055
0
LINE
8
BLACK
6
CONTINUOUS
10
0.9335629921259843
20
0.0494094488188976
11
0.9311009842519685
21
0.0494094488188976
0
LINE
8
BLACK
6
CONTINUOUS
10
0.9311009842519685
20
0.0494094488188976
11
0.9263447637795276
21
0.0481350393700787
0
LINE
8
BLACK
6
CONTINUOUS
10
0.9263447637795276
20
0.0481350393700787
11
0.9220804330708661
21
0.045673031496063
0
LINE
8
BLACK
6
CONTINUOUS
10
0.9220804330708661
20
0.045673031496063
11
0.9185986220472441
21
0.0421912204724409
0
LINE
8
BLACK
6
CONTINUOUS
10
0.9185986220472441
20
0.0421912204724409
11
0.9161366141732283
21
0.0379268897637795
0
LINE
8
BLACK
6
CONTINUOUS
10
0.9161366141732283
20
0.0379268897637795
11
0.9148622047244094
21
0.0331706692913386
0
LINE
8
BLACK
6
CONTINUOUS
10
0.9148622047244094
20
0.0331706692913386
11
0.9148622047244094
21
0.0307086614173228
0
LINE
8
BLACK
6
CONTINUOUS
10
0.9148622047244094
20
0.0307086614173228
11
0.9148622047244094
21
-0.0165354330708661
0
LINE
8
BLACK
6
CONTINUOUS
10
0.9148622047244094
20
-0.0165354330708661
11
0.9148622047244094
21
-0.0189974409448819
0
LINE
8
BLACK
6
CONTINUOUS
10
0.9148622047244094
20
-0.0189974409448819
11
0.9161366141732283
21
-0.0237536614173228
0
LINE
8
BLACK
6
CONTINUOUS
10
0.9161366141732283
20
-0.0237536614173228
11
0.9185986220472441
21
-0.0280179921259843
0
LINE
8
BLACK
6
CONTINUOUS
10
0.9185986220472441
20
-0.0280179921259843
11
0.9220804330708661
21
-0.0314998031496063
0
LINE
8
BLACK
6
CONTINUOUS
10
0.9220804330708661
20
-0.0314998031496063
11
0.9263447637795276
21
-0.033961811023622
0
LINE
8
BLACK
6
CONTINUOUS
10
0.9263447637795276
20
-0.033961811023622
11
0.9311009842519685
21
-0.0352362204724409
0
LINE
8
BLACK
6
CONTINUOUS
10
0.9311009842519685
20
-0.0352362204724409
11
0.9335629921259843
21
-0.0352362204724409
0
LINE
8
BLACK
6
CONTINUOUS
10
0.9335629921259843
20
-0.0352362204724409
11
0.9886811023622047
21
-0.0352362204724409
0
LINE
8
BLACK
6
CONTINUOUS
10
0.9886811023622047
20
-0.0352362204724409
11
0.9911431102362205
21
-0.0352362204724409
0
LINE
8
BLACK
6
CONTINUOUS
10
0.9911431102362205
20
-0.0352362204724409
11
0.9958993307086614
21
-0.033961811023622
0
LINE
8
BLACK
6
CONTINUOUS
10
0.9958993307086614
20
-0.033961811023622
11
1.0001636614173228
21
-0.0314998031496063
0
LINE
8
BLACK
6
CONTINUOUS
10
1.0001636614173228
20
-0.0314998031496063
11
1.0036454724409449
21
-0.0280179921259843
0
LINE
8
BLACK
6
CONTINUOUS
10
1.0036454724409449
20
-0.0280179921259843
11
1.0061074803149606
21
-0.0237536614173228
0
LINE
8
BLACK
6
CONTINUOUS
10
1.0061074803149606
20
-0.0237536614173228
11
1.0073818897637794
21
-0.0189974409448819
0
LINE
8
BLACK
6
CONTINUOUS
10
1.0073818897637794
20
-0.0189974409448819
11
1.0073818897637794
21
-0.0165354330708661
0
LINE
8
BLACK
6
CONTINUOUS
10
1.0073818897637794
20
-0.0165354330708661
11
1.0073818897637794
21
0.0307086614173228
0
LINE
8
BLACK
6
CONTINUOUS
10
1.0073818897637794
20
0.0307086614173228
11
1.0073818897637794
21
0.0331706692913386
0
LINE
8
BLACK
6
CONTINUOUS
10
1.0073818897637794
20
0.0331706692913386
11
1.0061074803149606
21
0.0379268897637795
0
LINE
8
BLACK
6
CONTINUOUS
10
1.0061074803149606
20
0.0379268897637795
11
1.0036454724409449
21
0.0421912204724409
0
LINE
8
BLACK
6
CONTINUOUS
10
1.0036454724409449
20
0.0421912204724409
11
1.0001636614173228
21
0.045673031496063
0
LINE
8
BLACK
6
CONTINUOUS
10
1.0001636614173228
20
0.045673031496063
11
0.9958993307086614
21
0.0481350393700787
0
LINE
8
BLACK
6
CONTINUOUS
10
0.9958993307086614
20
0.0481350393700787
11
0.9911431102362205
21
0.0494094488188976
0
LINE
8
BLACK
6
CONTINUOUS
10
0.9911431102362205
20
0.0494094488188976
11
0.9886811023622047
21
0.0494094488188976
0
LINE
8
BLACK
6
CONTINUOUS
10
0.9886811023622047
20
0.0494094488188976
11
0.9335629921259843
21
0.0494094488188976
0
LINE
8
BLACK
6
CONTINUOUS
10
1.1624015748031495
20
0.0551181102362205
11
1.1670009055118109
21
0.0545998818897638
0
LINE
8
BLACK
6
CONTINUOUS
10
1.1670009055118109
20
0.0545998818897638
11
1.1713696456692912
21
0.0530712204724409
0
LINE
8
BLACK
6
CONTINUOUS
10
1.1713696456692912
20
0.0530712204724409
11
1.1752886614173228
21
0.0506087401574803
0
LINE
8
BLACK
6
CONTINUOUS
10
1.1752886614173228
20
0.0506087401574803
11
1.1785614960629922
21
0.047335905511811
0
LINE
8
BLACK
6
CONTINUOUS
10
1.1785614960629922
20
0.047335905511811
11
1.1810239763779526
21
0.0434168897637795
0
LINE
8
BLACK
6
CONTINUOUS
10
1.1810239763779526
20
0.0434168897637795
11
1.1825526377952755
21
0.0390481496062992
0
LINE
8
BLACK
6
CONTINUOUS
10
1.1825526377952755
20
0.0390481496062992
11
1.1830708661417322
21
0.0344488188976378
0
LINE
8
BLACK
6
CONTINUOUS
10
1.1830708661417322
20
0.0344488188976378
11
1.1830708661417322
21
-0.0127952755905512
0
LINE
8
BLACK
6
CONTINUOUS
10
1.1830708661417322
20
-0.0127952755905512
11
1.1825526377952755
21
-0.0173946062992126
0
LINE
8
BLACK
6
CONTINUOUS
10
1.1825526377952755
20
-0.0173946062992126
11
1.1810239763779526
21
-0.0217633464566929
0
LINE
8
BLACK
6
CONTINUOUS
10
1.1810239763779526
20
-0.0217633464566929
11
1.1785614960629922
21
-0.0256823622047244
0
LINE
8
BLACK
6
CONTINUOUS
10
1.1785614960629922
20
-0.0256823622047244
11
1.1752886614173228
21
-0.0289551968503937
0
LINE
8
BLACK
6
CONTINUOUS
10
1.1752886614173228
20
-0.0289551968503937
11
1.1713696456692912
21
-0.0314176771653543
0
LINE
8
BLACK
6
CONTINUOUS
10
1.1713696456692912
20
-0.0314176771653543
11
1.1670009055118109
21
-0.0329463385826772
0
LINE
8
BLACK
6
CONTINUOUS
10
1.1670009055118109
20
-0.0329463385826772
11
1.1624015748031495
21
-0.0334645669291339
0
LINE
8
BLACK
6
CONTINUOUS
10
1.1624015748031495
20
-0.0334645669291339
11
1.1072834645669292
21
-0.0334645669291339
0
LINE
8
BLACK
6
CONTINUOUS
10
1.1072834645669292
20
-0.0334645669291339
11
1.1026841338582678
21
-0.0329463385826772
0
LINE
8
BLACK
6
CONTINUOUS
10
1.1026841338582678
20
-0.0329463385826772
11
1.0983153937007875
21
-0.0314176771653543
0
LINE
8
BLACK
6
CONTINUOUS
10
1.0983153937007875
20
-0.0314176771653543
11
1.0943963779527559
21
-0.0289551968503937
0
LINE
8
BLACK
6
CONTINUOUS
10
1.0943963779527559
20
-0.0289551968503937
11
1.0911235433070865
21
-0.0256823622047244
0
LINE
8
BLACK
6
CONTINUOUS
10
1.0911235433070865
20
-0.0256823622047244
11
1.0886610629921261
21
-0.0217633464566929
0
LINE
8
BLACK
6
CONTINUOUS
10
1.0886610629921261
20
-0.0217633464566929
11
1.0871324015748032
21
-0.0173946062992126
0
LINE
8
BLACK
6
CONTINUOUS
10
1.0871324015748032
20
-0.0173946062992126
11
1.0866141732283465
21
-0.0127952755905512
0
LINE
8
BLACK
6
CONTINUOUS
10
1.0866141732283465
20
-0.0127952755905512
11
1.0866141732283465
21
0.0344488188976378
0
LINE
8
BLACK
6
CONTINUOUS
10
1.0866141732283465
20
0.0344488188976378
11
1.0871324015748032
21
0.0390481496062992
0
LINE
8
BLACK
6
CONTINUOUS
10
1.0871324015748032
20
0.0390481496062992
11
1.0886610629921261
21
0.0434168897637795
0
LINE
8
BLACK
6
CONTINUOUS
10
1.0886610629921261
20
0.0434168897637795
11
1.0911235433070865
21
0.047335905511811
0
LINE
8
BLACK
6
CONTINUOUS
10
1.0911235433070865
20
0.047335905511811
11
1.0943963779527559
21
0.0506087401574803
0
LINE
8
BLACK
6
CONTINUOUS
10
1.0943963779527559
20
0.0506087401574803
11
1.0983153937007875
21
0.0530712204724409
0
LINE
8
BLACK
6
CONTINUOUS
10
1.0983153937007875
20
0.0530712204724409
11
1.1026841338582678
21
0.0545998818897638
0
LINE
8
BLACK
6
CONTINUOUS
10
1.1026841338582678
20
0.0545998818897638
11
1.1072834645669292
21
0.0551181102362205
0
LINE
8
BLACK
6
CONTINUOUS
10
1.1072834645669292
20
0.0551181102362205
11
1.1624015748031495
21
0.0551181102362205
0
LINE
8
BLACK
6
CONTINUOUS
10
1.1072834645669292
20
0.0531496062992126
11
1.1048214566929133
21
0.0531496062992126
0
LINE
8
BLACK
6
CONTINUOUS
10
1.1048214566929133
20
0.0531496062992126
11
1.1000652362204724
21
0.0518751968503937
0
LINE
8
BLACK
6
CONTINUOUS
10
1.1000652362204724
20
0.0518751968503937
11
1.095800905511811
21
0.049413188976378
0
LINE
8
BLACK
6
CONTINUOUS
10
1.095800905511811
20
0.049413188976378
11
1.0923190944881889
21
0.0459313779527559
0
LINE
8
BLACK
6
CONTINUOUS
10
1.0923190944881889
20
0.0459313779527559
11
1.0898570866141732
21
0.0416670472440945
0
LINE
8
BLACK
6
CONTINUOUS
10
1.0898570866141732
20
0.0416670472440945
11
1.0885826771653544
21
0.0369108267716535
0
LINE
8
BLACK
6
CONTINUOUS
10
1.0885826771653544
20
0.0369108267716535
11
1.0885826771653544
21
0.0344488188976378
0
LINE
8
BLACK
6
CONTINUOUS
10
1.0885826771653544
20
0.0344488188976378
11
1.0885826771653544
21
-0.0127952755905512
0
LINE
8
BLACK
6
CONTINUOUS
10
1.0885826771653544
20
-0.0127952755905512
11
1.0885826771653544
21
-0.0152572834645669
0
LINE
8
BLACK
6
CONTINUOUS
10
1.0885826771653544
20
-0.0152572834645669
11
1.0898570866141732
21
-0.0200135039370079
0
LINE
8
BLACK
6
CONTINUOUS
10
1.0898570866141732
20
-0.0200135039370079
11
1.0923190944881889
21
-0.0242778346456693
0
LINE
8
BLACK
6
CONTINUOUS
10
1.0923190944881889
20
-0.0242778346456693
11
1.095800905511811
21
-0.0277596456692913
0
LINE
8
BLACK
6
CONTINUOUS
10
1.095800905511811
20
-0.0277596456692913
11
1.1000652362204724
21
-0.0302216535433071
0
LINE
8
BLACK
6
CONTINUOUS
10
1.1000652362204724
20
-0.0302216535433071
11
1.1048214566929133
21
-0.031496062992126
0
LINE
8
BLACK
6
CONTINUOUS
10
1.1048214566929133
20
-0.031496062992126
11
1.1072834645669292
21
-0.031496062992126
0
LINE
8
BLACK
6
CONTINUOUS
10
1.1072834645669292
20
-0.031496062992126
11
1.1624015748031495
21
-0.031496062992126
0
LINE
8
BLACK
6
CONTINUOUS
10
1.1624015748031495
20
-0.031496062992126
11
1.1648635826771654
21
-0.031496062992126
0
LINE
8
BLACK
6
CONTINUOUS
10
1.1648635826771654
20
-0.031496062992126
11
1.1696198031496063
21
-0.0302216535433071
0
LINE
8
BLACK
6
CONTINUOUS
10
1.1696198031496063
20
-0.0302216535433071
11
1.1738841338582677
21
-0.0277596456692913
0
LINE
8
BLACK
6
CONTINUOUS
10
1.1738841338582677
20
-0.0277596456692913
11
1.1773659448818898
21
-0.0242778346456693
0
LINE
8
BLACK
6
CONTINUOUS
10
1.1773659448818898
20
-0.0242778346456693
11
1.1798279527559055
21
-0.0200135039370079
0
LINE
8
BLACK
6
CONTINUOUS
10
1.1798279527559055
20
-0.0200135039370079
11
1.1811023622047243
21
-0.0152572834645669
0
LINE
8
BLACK
6
CONTINUOUS
10
1.1811023622047243
20
-0.0152572834645669
11
1.1811023622047243
21
-0.0127952755905512
0
LINE
8
BLACK
6
CONTINUOUS
10
1.1811023622047243
20
-0.0127952755905512
11
1.1811023622047243
21
0.0344488188976378
0
LINE
8
BLACK
6
CONTINUOUS
10
1.1811023622047243
20
0.0344488188976378
11
1.1811023622047243
21
0.0369108267716535
0
LINE
8
BLACK
6
CONTINUOUS
10
1.1811023622047243
20
0.0369108267716535
11
1.1798279527559055
21
0.0416670472440945
0
LINE
8
BLACK
6
CONTINUOUS
10
1.1798279527559055
20
0.0416670472440945
11
1.1773659448818898
21
0.0459313779527559
0
LINE
8
BLACK
6
CONTINUOUS
10
1.1773659448818898
20
0.0459313779527559
11
1.1738841338582677
21
0.049413188976378
0
LINE
8
BLACK
6
CONTINUOUS
10
1.1738841338582677
20
0.049413188976378
11
1.1696198031496063
21
0.0518751968503937
0
LINE
8
BLACK
6
CONTINUOUS
10
1.1696198031496063
20
0.0518751968503937
11
1.1648635826771654
21
0.0531496062992126
0
LINE
8
BLACK
6
CONTINUOUS
10
1.1648635826771654
20
0.0531496062992126
11
1.1624015748031495
21
0.0531496062992126
0
LINE
8
BLACK
6
CONTINUOUS
10
1.1624015748031495
20
0.0531496062992126
11
1.1072834645669292
21
0.0531496062992126
0
LINE
8
BLACK
6
CONTINUOUS
10
1.094488188976378
20
2.1938976377952755
11
1.1003768503937008
21
2.1931826377952754
0
LINE
8
BLACK
6
CONTINUOUS
10
1.1003768503937008
20
2.1931826377952754
11
1.1059233070866141
21
2.1910791338582678
0
LINE
8
BLACK
6
CONTINUOUS
10
1.1059233070866141
20
2.1910791338582678
11
1.1108051968503936
21
2.1877094094488188
0
LINE
8
BLACK
6
CONTINUOUS
10
1.1108051968503936
20
2.1877094094488188
11
1.114738779527559
21
2.1832692913385827
0
LINE
8
BLACK
6
CONTINUOUS
10
1.114738779527559
20
2.1832692913385827
11
1.1174954724409449
21
2.1780168503937007
0
LINE
8
BLACK
6
CONTINUOUS
10
1.1174954724409449
20
2.1780168503937007
11
1.1189150787401574
21
2.172257283464567
0
LINE
8
BLACK
6
CONTINUOUS
10
1.1189150787401574
20
2.172257283464567
11
1.1189150787401574
21
2.1663253937007871
0
LINE
8
BLACK
6
CONTINUOUS
10
1.1189150787401574
20
2.1663253937007871
11
1.1174954724409449
21
2.1605658267716534
0
LINE
8
BLACK
6
CONTINUOUS
10
1.1174954724409449
20
2.1605658267716534
11
1.114738779527559
21
2.1553133858267715
0
LINE
8
BLACK
6
CONTINUOUS
10
1.114738779527559
20
2.1553133858267715
11
1.1108051968503936
21
2.1508732677165354
0
LINE
8
BLACK
6
CONTINUOUS
10
1.1108051968503936
20
2.1508732677165354
11
1.1059233070866141
21
2.1475035433070864
0
LINE
8
BLACK
6
CONTINUOUS
10
1.1059233070866141
20
2.1475035433070864
11
1.1003768503937008
21
2.1454000393700787
0
LINE
8
BLACK
6
CONTINUOUS
10
1.1003768503937008
20
2.1454000393700787
11
1.094488188976378
21
2.1446850393700787
0
LINE
8
BLACK
6
CONTINUOUS
10
1.094488188976378
20
2.1446850393700787
11
0.905511811023622
21
2.1446850393700787
0
LINE
8
BLACK
6
CONTINUOUS
10
0.905511811023622
20
2.1446850393700787
11
0.8996231496062992
21
2.1454000393700787
0
LINE
8
BLACK
6
CONTINUOUS
10
0.8996231496062992
20
2.1454000393700787
11
0.8940766929133858
21
2.1475035433070864
0
LINE
8
BLACK
6
CONTINUOUS
10
0.8940766929133858
20
2.1475035433070864
11
0.8891948031496063
21
2.1508732677165354
0
LINE
8
BLACK
6
CONTINUOUS
10
0.8891948031496063
20
2.1508732677165354
11
0.8852612204724409
21
2.1553133858267715
0
LINE
8
BLACK
6
CONTINUOUS
10
0.8852612204724409
20
2.1553133858267715
11
0.8825045275590551
21
2.1605658267716534
0
LINE
8
BLACK
6
CONTINUOUS
10
0.8825045275590551
20
2.1605658267716534
11
0.8810849212598425
21
2.1663253937007871
0
LINE
8
BLACK
6
CONTINUOUS
10
0.8810849212598425
20
2.1663253937007871
11
0.8810849212598425
21
2.172257283464567
0
LINE
8
BLACK
6
CONTINUOUS
10
0.8810849212598425
20
2.172257283464567
11
0.8825045275590551
21
2.1780168503937007
0
LINE
8
BLACK
6
CONTINUOUS
10
0.8825045275590551
20
2.1780168503937007
11
0.8852612204724409
21
2.1832692913385827
0
LINE
8
BLACK
6
CONTINUOUS
10
0.8852612204724409
20
2.1832692913385827
11
0.8891948031496063
21
2.1877094094488188
0
LINE
8
BLACK
6
CONTINUOUS
10
0.8891948031496063
20
2.1877094094488188
11
0.8940766929133858
21
2.1910791338582678
0
LINE
8
BLACK
6
CONTINUOUS
10
0.8940766929133858
20
2.1910791338582678
11
0.8996231496062992
21
2.1931826377952754
0
LINE
8
BLACK
6
CONTINUOUS
10
0.8996231496062992
20
2.1931826377952754
11
0.905511811023622
21
2.1938976377952755
0
LINE
8
BLACK
6
CONTINUOUS
10
0.905511811023622
20
2.1938976377952755
11
1.094488188976378
21
2.1938976377952755
0
LINE
8
BLACK
6
CONTINUOUS
10
0.905511811023622
20
2.1919291338582676
11
0.9027630708661417
21
2.1919291338582676
0
LINE
8
BLACK
6
CONTINUOUS
10
0.9027630708661417
20
2.1919291338582676
11
0.8974253937007873
21
2.190613503937008
0
LINE
8
BLACK
6
CONTINUOUS
10
0.8974253937007873
20
2.190613503937008
11
0.8925576377952755
21
2.1880587007874017
0
LINE
8
BLACK
6
CONTINUOUS
10
0.8925576377952755
20
2.1880587007874017
11
0.8884427165354331
21
2.1844132283464566
0
LINE
8
BLACK
6
CONTINUOUS
10
0.8884427165354331
20
2.1844132283464566
11
0.885319842519685
21
2.1798888976377953
0
LINE
8
BLACK
6
CONTINUOUS
10
0.885319842519685
20
2.1798888976377953
11
0.8833703937007874
21
2.1747487007874016
0
LINE
8
BLACK
6
CONTINUOUS
10
0.8833703937007874
20
2.1747487007874016
11
0.8827077559055118
21
2.1692913385826773
0
LINE
8
BLACK
6
CONTINUOUS
10
0.8827077559055118
20
2.1692913385826773
11
0.8833703937007874
21
2.1638339763779526
0
LINE
8
BLACK
6
CONTINUOUS
10
0.8833703937007874
20
2.1638339763779526
11
0.885319842519685
21
2.1586937795275589
0
LINE
8
BLACK
6
CONTINUOUS
10
0.885319842519685
20
2.1586937795275589
11
0.8884427165354331
21
2.1541694488188976
0
LINE
8
BLACK
6
CONTINUOUS
10
0.8884427165354331
20
2.1541694488188976
11
0.8925576377952755
21
2.1505239763779529
0
LINE
8
BLACK
6
CONTINUOUS
10
0.8925576377952755
20
2.1505239763779529
11
0.8974253937007873
21
2.1479691732283466
0
LINE
8
BLACK
6
CONTINUOUS
10
0.8974253937007873
20
2.1479691732283466
11
0.9027630708661417
21
2.1466535433070866
0
LINE
8
BLACK
6
CONTINUOUS
10
0.9027630708661417
20
2.1466535433070866
11
0.905511811023622
21
2.1466535433070866
0
LINE
8
BLACK
6
CONTINUOUS
10
0.905511811023622
20
2.1466535433070866
11
1.094488188976378
21
2.1466535433070866
0
LINE
8
BLACK
6
CONTINUOUS
10
1.094488188976378
20
2.1466535433070866
11
1.0972369291338582
21
2.1466535433070866
0
LINE
8
BLACK
6
CONTINUOUS
10
1.0972369291338582
20
2.1466535433070866
11
1.1025746062992126
21
2.1479691732283466
0
LINE
8
BLACK
6
CONTINUOUS
10
1.1025746062992126
20
2.1479691732283466
11
1.1074423622047245
21
2.1505239763779529
0
LINE
8
BLACK
6
CONTINUOUS
10
1.1074423622047245
20
2.1505239763779529
11
1.1115572834645668
21
2.1541694488188976
0
LINE
8
BLACK
6
CONTINUOUS
10
1.1115572834645668
20
2.1541694488188976
11
1.1146801574803149
21
2.1586937795275589
0
LINE
8
BLACK
6
CONTINUOUS
10
1.1146801574803149
20
2.1586937795275589
11
1.1166296062992125
21
2.1638339763779526
0
LINE
8
BLACK
6
CONTINUOUS
10
1.1166296062992125
20
2.1638339763779526
11
1.1172922440944881
21
2.1692913385826773
0
LINE
8
BLACK
6
CONTINUOUS
10
1.1172922440944881
20
2.1692913385826773
11
1.1166296062992125
21
2.1747487007874016
0
LINE
8
BLACK
6
CONTINUOUS
10
1.1166296062992125
20
2.1747487007874016
11
1.1146801574803149
21
2.1798888976377953
0
LINE
8
BLACK
6
CONTINUOUS
10
1.1146801574803149
20
2.1798888976377953
11
1.1115572834645668
21
2.1844132283464566
0
LINE
8
BLACK
6
CONTINUOUS
10
1.1115572834645668
20
2.1844132283464566
11
1.1074423622047245
21
2.1880587007874017
0
LINE
8
BLACK
6
CONTINUOUS
10
1.1074423622047245
20
2.1880587007874017
11
1.1025746062992126
21
2.190613503937008
0
LINE
8
BLACK
6
CONTINUOUS
10
1.1025746062992126
20
2.190613503937008
11
1.0972369291338582
21
2.1919291338582676
0
LINE
8
BLACK
6
CONTINUOUS
10
1.0972369291338582
20
2.1919291338582676
11
1.094488188976378
21
2.1919291338582676
0
LINE
8
BLACK
6
CONTINUOUS
10
1.094488188976378
20
2.1919291338582676
11
0.905511811023622
21
2.1919291338582676
0
LINE
8
BLACK
6
CONTINUOUS
10
2.1964396456692912
20
2.5969723228346457
11
2.1969723228346458
21
2.5964396456692911
0
LINE
8
BLACK
6
CONTINUOUS
10
2.1969723228346458
20
2.5964396456692911
11
2.1970472440944881
21
2.5960629921259843
0
LINE
8
BLACK
6
CONTINUOUS
10
2.1970472440944881
20
2.5960629921259843
11
2.1970472440944881
21
-0.1960629921259842
0
LINE
8
BLACK
6
CONTINUOUS
10
2.1970472440944881
20
-0.1960629921259842
11
2.1969723228346458
21
-0.1964396456692913
0
LINE
8
BLACK
6
CONTINUOUS
10
2.1969723228346458
20
-0.1964396456692913
11
2.1964396456692912
21
-0.1969723228346457
0
LINE
8
BLACK
6
CONTINUOUS
10
2.1964396456692912
20
-0.1969723228346457
11
2.196062992125984
21
-0.1970472440944882
0
LINE
8
BLACK
6
CONTINUOUS
10
2.196062992125984
20
-0.1970472440944882
11
-0.1960629921259842
21
-0.1970472440944882
0
LINE
8
BLACK
6
CONTINUOUS
10
-0.1960629921259842
20
-0.1970472440944882
11
-0.1964396456692913
21
-0.1969723228346457
0
LINE
8
BLACK
6
CONTINUOUS
10
-0.1964396456692913
20
-0.1969723228346457
11
-0.1969723228346457
21
-0.1964396456692913
0
LINE
8
BLACK
6
CONTINUOUS
10
-0.1969723228346457
20
-0.1964396456692913
11
-0.1970472440944882
21
-0.1960629921259842
0
LINE
8
BLACK
6
CONTINUOUS
10
-0.1970472440944882
20
-0.1960629921259842
11
-0.1970472440944882
21
2.5960629921259843
0
LINE
8
BLACK
6
CONTINUOUS
10
-0.1970472440944882
20
2.5960629921259843
11
-0.1969723228346457
21
2.5964396456692911
0
LINE
8
BLACK
6
CONTINUOUS
10
-0.1969723228346457
20
2.5964396456692911
11
-0.1964396456692913
21
2.5969723228346457
0
LINE
8
BLACK
6
CONTINUOUS
10
-0.1964396456692913
20
2.5969723228346457
11
-0.1960629921259842
21
2.5970472440944881
0
LINE
8
BLACK
6
CONTINUOUS
10
-0.1960629921259842
20
2.5970472440944881
11
2.196062992125984
21
2.5970472440944881
0
LINE
8
BLACK
6
CONTINUOUS
10
2.196062992125984
20
2.5970472440944881
11
2.1964396456692912
21
2.5969723228346457
0
LINE
8
BLACK
6
CONTINUOUS
10
-0.1950787401574803
20
2.5950787401574802
11
-0.1950787401574803
21
-0.1950787401574803
0
LINE
8
BLACK
6
CONTINUOUS
10
-0.1950787401574803
20
-0.1950787401574803
11
2.1950787401574803
21
-0.1950787401574803
0
LINE
8
BLACK
6
CONTINUOUS
10
2.1950787401574803
20
-0.1950787401574803
11
2.1950787401574803
21
2.5950787401574802
0
LINE
8
BLACK
6
CONTINUOUS
10
2.1950787401574803
20
2.5950787401574802
11
-0.1950787401574803
21
2.5950787401574802
0
CIRCLE
8
BLACK
10
0.4307086614173228
20
2.4476377952755906
40
0.0068897637795276
0
CIRCLE
8
BLACK
10
0.4307086614173228
20
2.3476377952755905
40
0.0068897637795276
0
CIRCLE
8
BLACK
10
0.3307086614173228
20
2.4476377952755906
40
0.0068897637795276
0
CIRCLE
8
BLACK
10
0.3307086614173228
20
2.3476377952755905
40
0.0068897637795276
0
CIRCLE
8
BLACK
10
0.2307086614173228
20
2.4476377952755906
40
0.0068897637795276
0
CIRCLE
8
BLACK
10
0.2307086614173228
20
2.3476377952755905
40
0.0068897637795276
0
CIRCLE
8
BLACK
10
2.
20
0.
40
0.0068897637795276
0
CIRCLE
8
BLACK
10
0.
20
0.
40
0.0068897637795276
0
CIRCLE
8
BLACK
10
1.3196850393700787
20
2.3476377952755905
40
0.0068897637795276
0
CIRCLE
8
BLACK
10
1.3196850393700787
20
2.4476377952755906
40
0.0068897637795276
0
CIRCLE
8
BLACK
10
1.4196850393700786
20
2.3476377952755905
40
0.0068897637795276
0
CIRCLE
8
BLACK
10
1.4196850393700786
20
2.4476377952755906
40
0.0068897637795276
0
CIRCLE
8
BLACK
10
1.5196850393700787
20
2.3476377952755905
40
0.0068897637795276
0
CIRCLE
8
BLACK
10
1.5196850393700787
20
2.4476377952755906
40
0.0068897637795276
0
CIRCLE
8
BLACK
10
1.6196850393700788
20
2.3476377952755905
40
0.0068897637795276
0
CIRCLE
8
BLACK
10
1.6196850393700788
20
2.4476377952755906
40
0.0068897637795276
0
CIRCLE
8
BLACK
10
1.7196850393700787
20
2.3476377952755905
40
0.0068897637795276
0
CIRCLE
8
BLACK
10
1.7196850393700787
20
2.4476377952755906
40
0.0068897637795276
0
CIRCLE
8
BLACK
10
0.8307086614173228
20
2.2503937007874013
40
0.0068897637795276
0
CIRCLE
8
BLACK
10
0.8307086614173228
20
2.3503937007874014
40
0.0068897637795276
0
CIRCLE
8
BLACK
10
0.8307086614173228
20
2.4503937007874015
40
0.0068897637795276
0
CIRCLE
8
BLACK
10
0.
20
2.401574803149606
40
0.0068897637795276
0
CIRCLE
8
BLACK
10
2.
20
2.401574803149606
40
0.0068897637795276
0
CIRCLE
8
BLACK
10
0.05
20
0.3346456692913386
40
0.0068897637795276
0
CIRCLE
8
BLACK
10
0.15
20
0.3346456692913386
40
0.0068897637795276
0
CIRCLE
8
BLACK
10
0.25
20
0.3346456692913386
40
0.0068897637795276
0
CIRCLE
8
BLACK
10
1.75
20
0.3346456692913386
40
0.0068897637795276
0
CIRCLE
8
BLACK
10
1.8499999999999999
20
0.3346456692913386
40
0.0068897637795276
0
CIRCLE
8
BLACK
10
1.95
20
0.3346456692913386
40
0.0068897637795276
0
CIRCLE
8
BLACK
10
1.9496062992125984
20
2.0196850393700787
40
0.0068897637795276
0
CIRCLE
8
BLACK
10
1.8496062992125983
20
2.0196850393700787
40
0.0068897637795276
0
CIRCLE
8
BLACK
10
1.7496062992125985
20
2.0196850393700787
40
0.0068897637795276
0
CIRCLE
8
BLACK
10
1.6496062992125984
20
2.0196850393700787
40
0.0068897637795276
0
CIRCLE
8
BLACK
10
1.5496062992125983
20
2.0196850393700787
40
0.0068897637795276
0
CIRCLE
8
BLACK
10
1.4496062992125984
20
2.0196850393700787
40
0.0068897637795276
0
CIRCLE
8
BLACK
10
1.3496062992125983
20
2.0196850393700787
40
0.0068897637795276
0
CIRCLE
8
BLACK
10
1.2496062992125985
20
2.0196850393700787
40
0.0068897637795276
0
CIRCLE
8
BLACK
10
1.1496062992125984
20
2.0196850393700787
40
0.0068897637795276
0
CIRCLE
8
BLACK
10
1.0496062992125983
20
2.0196850393700787
40
0.0068897637795276
0
CIRCLE
8
BLACK
10
0.9496062992125984
20
2.0196850393700787
40
0.0068897637795276
0
CIRCLE
8
BLACK
10
0.8496062992125984
20
2.0196850393700787
40
0.0068897637795276
0
CIRCLE
8
BLACK
10
0.7496062992125984
20
2.0196850393700787
40
0.0068897637795276
0
CIRCLE
8
BLACK
10
0.6496062992125984
20
2.0196850393700787
40
0.0068897637795276
0
CIRCLE
8
BLACK
10
0.5496062992125984
20
2.0196850393700787
40
0.0068897637795276
0
CIRCLE
8
BLACK
10
0.4496062992125984
20
2.0196850393700787
40
0.0068897637795276
0
CIRCLE
8
BLACK
10
0.3496062992125984
20
2.0196850393700787
40
0.0068897637795276
0
CIRCLE
8
BLACK
10
0.2496062992125984
20
2.0196850393700787
40
0.0068897637795276
0
CIRCLE
8
BLACK
10
0.1496062992125984
20
2.0196850393700787
40
0.0068897637795276
0
CIRCLE
8
BLACK
10
0.0496062992125984
20
2.0196850393700787
40
0.0068897637795276
0
CIRCLE
8
BLACK
10
1.1708661417322834
20
2.4476377952755906
40
0.0068897637795276
0
CIRCLE
8
BLACK
10
1.1708661417322834
20
2.3476377952755905
40
0.0068897637795276
0
CIRCLE
8
BLACK
10
1.0708661417322833
20
2.4476377952755906
40
0.0068897637795276
0
CIRCLE
8
BLACK
10
1.0708661417322833
20
2.3476377952755905
40
0.0068897637795276
0
CIRCLE
8
BLACK
10
0.9708661417322835
20
2.4476377952755906
40
0.0068897637795276
0
CIRCLE
8
BLACK
10
0.9708661417322835
20
2.3476377952755905
40
0.0068897637795276
0
CIRCLE
8
BLACK
10
0.6700787401574803
20
2.4476377952755906
40
0.0068897637795276
0
CIRCLE
8
BLACK
10
0.6700787401574803
20
2.3476377952755905
40
0.0068897637795276
0
CIRCLE
8
BLACK
10
0.5700787401574803
20
2.4476377952755906
40
0.0068897637795276
0
CIRCLE
8
BLACK
10
0.5700787401574803
20
2.3476377952755905
40
0.0068897637795276
  0
ENDSEC
  0
EOF
