  0
SECTION
  2
HEADER
  9
$ANGBASE
  50
0.0
  9
$ANGDIR
  70
1
  9
$MEASUREMENT
  70
0
  0
ENDSEC
  0
SECTION
  2
TABLES
  0
TABLE
  2
LTYPE
  70
4
  0
LTYPE
  5
40F
  2
CONTINUOUS
  70
0
  3
Solid line
  72
65
  73
0
  40
0.0
  0
LTYPE
  5
410
  2
DASHDOT
 70
0
  3
Dash Dot ____ _ ____ _
 72
65
 73
4
 40
2.0
 49
1.25
 49
-0.25
 49
0.25
 49
-0.25
  0
LTYPE
  5
411
  2
DASHED
 70
0
  3
Dashed __ __ __ __ __
 72
65
 73
2
 40
0.75
 49
0.5
 49
-0.25
  0
LTYPE
  5
43B
  2
DOTTED
 70
0
  3
Dotted .  .  .  .
 72
65
 73
2
 40
0.2
 49
0.0
 49
-0.2
  0
ENDTAB
  0
TABLE
  2
STYLE
  70
4
  0
STYLE
  2
KICAD
  70
0
  40
0
  41
1
  42
1
  50
0
  71
0
  3
isocp.shx
  0
STYLE
  2
KICADB
  70
0
  40
0
  41
1
  42
1
  50
0
  71
0
  3
isocp.shx
  0
STYLE
  2
KICADI
  70
0
  40
0
  41
1
  42
1
  50
15
  71
0
  3
isocp.shx
  0
STYLE
  2
KICADBI
  70
0
  40
0
  41
1
  42
1
  50
15
  71
0
  3
isocp.shx
  0
ENDTAB
  0
TABLE
  2
LAYER
  70
1
  0
LAYER
  2
BLACK
  70
0
  62
7
  6
CONTINUOUS
  0
ENDTAB
  0
ENDSEC
  0
SECTION
  2
ENTITIES
0
LINE
8
BLACK
6
CONTINUOUS
10
0.797226
20
0.938246
11
0.800339
21
0.936166
0
LINE
8
BLACK
6
CONTINUOUS
10
0.800339
20
0.936166
11
0.802419
21
0.933052
0
LINE
8
BLACK
6
CONTINUOUS
10
0.802419
20
0.933052
11
0.80315
21
0.92938
0
LINE
8
BLACK
6
CONTINUOUS
10
0.80315
20
0.92938
11
0.80315
21
0.910187
0
LINE
8
BLACK
6
CONTINUOUS
10
0.80315
20
0.910187
11
0.802419
21
0.906515
0
LINE
8
BLACK
6
CONTINUOUS
10
0.802419
20
0.906515
11
0.800339
21
0.903401
0
LINE
8
BLACK
6
CONTINUOUS
10
0.800339
20
0.903401
11
0.797226
21
0.901321
0
LINE
8
BLACK
6
CONTINUOUS
10
0.797226
20
0.901321
11
0.793553
21
0.900591
0
LINE
8
BLACK
6
CONTINUOUS
10
0.793553
20
0.900591
11
0.757628
21
0.900591
0
LINE
8
BLACK
6
CONTINUOUS
10
0.757628
20
0.900591
11
0.753956
21
0.901321
0
LINE
8
BLACK
6
CONTINUOUS
10
0.753956
20
0.901321
11
0.750842
21
0.903401
0
LINE
8
BLACK
6
CONTINUOUS
10
0.750842
20
0.903401
11
0.748762
21
0.906515
0
LINE
8
BLACK
6
CONTINUOUS
10
0.748762
20
0.906515
11
0.748031
21
0.910187
0
LINE
8
BLACK
6
CONTINUOUS
10
0.748031
20
0.910187
11
0.748031
21
0.92938
0
LINE
8
BLACK
6
CONTINUOUS
10
0.748031
20
0.92938
11
0.748762
21
0.933052
0
LINE
8
BLACK
6
CONTINUOUS
10
0.748762
20
0.933052
11
0.750842
21
0.936166
0
LINE
8
BLACK
6
CONTINUOUS
10
0.750842
20
0.936166
11
0.753956
21
0.938246
0
LINE
8
BLACK
6
CONTINUOUS
10
0.753956
20
0.938246
11
0.757628
21
0.938976
0
LINE
8
BLACK
6
CONTINUOUS
10
0.757628
20
0.938976
11
0.793553
21
0.938976
0
LINE
8
BLACK
6
CONTINUOUS
10
0.793553
20
0.938976
11
0.797226
21
0.938246
0
LINE
8
BLACK
6
CONTINUOUS
10
1.26179
20
0.953994
11
1.26491
21
0.951914
0
LINE
8
BLACK
6
CONTINUOUS
10
1.26491
20
0.951914
11
1.26699
21
0.9488
0
LINE
8
BLACK
6
CONTINUOUS
10
1.26699
20
0.9488
11
1.26772
21
0.945128
0
LINE
8
BLACK
6
CONTINUOUS
10
1.26772
20
0.945128
11
1.26772
21
0.925935
0
LINE
8
BLACK
6
CONTINUOUS
10
1.26772
20
0.925935
11
1.26699
21
0.922263
0
LINE
8
BLACK
6
CONTINUOUS
10
1.26699
20
0.922263
11
1.26491
21
0.919149
0
LINE
8
BLACK
6
CONTINUOUS
10
1.26491
20
0.919149
11
1.26179
21
0.917069
0
LINE
8
BLACK
6
CONTINUOUS
10
1.26179
20
0.917069
11
1.25812
21
0.916339
0
LINE
8
BLACK
6
CONTINUOUS
10
1.25812
20
0.916339
11
1.22219
21
0.916339
0
LINE
8
BLACK
6
CONTINUOUS
10
1.22219
20
0.916339
11
1.21852
21
0.917069
0
LINE
8
BLACK
6
CONTINUOUS
10
1.21852
20
0.917069
11
1.21541
21
0.919149
0
LINE
8
BLACK
6
CONTINUOUS
10
1.21541
20
0.919149
11
1.21333
21
0.922263
0
LINE
8
BLACK
6
CONTINUOUS
10
1.21333
20
0.922263
11
1.2126
21
0.925935
0
LINE
8
BLACK
6
CONTINUOUS
10
1.2126
20
0.925935
11
1.2126
21
0.945128
0
LINE
8
BLACK
6
CONTINUOUS
10
1.2126
20
0.945128
11
1.21333
21
0.9488
0
LINE
8
BLACK
6
CONTINUOUS
10
1.21333
20
0.9488
11
1.21541
21
0.951914
0
LINE
8
BLACK
6
CONTINUOUS
10
1.21541
20
0.951914
11
1.21852
21
0.953994
0
LINE
8
BLACK
6
CONTINUOUS
10
1.21852
20
0.953994
11
1.22219
21
0.954724
0
LINE
8
BLACK
6
CONTINUOUS
10
1.22219
20
0.954724
11
1.25812
21
0.954724
0
LINE
8
BLACK
6
CONTINUOUS
10
1.25812
20
0.954724
11
1.26179
21
0.953994
0
LINE
8
BLACK
6
CONTINUOUS
10
0.797226
20
1.01206
11
0.800339
21
1.00998
0
LINE
8
BLACK
6
CONTINUOUS
10
0.800339
20
1.00998
11
0.802419
21
1.00687
0
LINE
8
BLACK
6
CONTINUOUS
10
0.802419
20
1.00687
11
0.80315
21
1.0032
0
LINE
8
BLACK
6
CONTINUOUS
10
0.80315
20
1.0032
11
0.80315
21
0.984006
0
LINE
8
BLACK
6
CONTINUOUS
10
0.80315
20
0.984006
11
0.802419
21
0.980334
0
LINE
8
BLACK
6
CONTINUOUS
10
0.802419
20
0.980334
11
0.800339
21
0.97722
0
LINE
8
BLACK
6
CONTINUOUS
10
0.800339
20
0.97722
11
0.797226
21
0.97514
0
LINE
8
BLACK
6
CONTINUOUS
10
0.797226
20
0.97514
11
0.793553
21
0.974409
0
LINE
8
BLACK
6
CONTINUOUS
10
0.793553
20
0.974409
11
0.757628
21
0.974409
0
LINE
8
BLACK
6
CONTINUOUS
10
0.757628
20
0.974409
11
0.753956
21
0.97514
0
LINE
8
BLACK
6
CONTINUOUS
10
0.753956
20
0.97514
11
0.750842
21
0.97722
0
LINE
8
BLACK
6
CONTINUOUS
10
0.750842
20
0.97722
11
0.748762
21
0.980334
0
LINE
8
BLACK
6
CONTINUOUS
10
0.748762
20
0.980334
11
0.748031
21
0.984006
0
LINE
8
BLACK
6
CONTINUOUS
10
0.748031
20
0.984006
11
0.748031
21
1.0032
0
LINE
8
BLACK
6
CONTINUOUS
10
0.748031
20
1.0032
11
0.748762
21
1.00687
0
LINE
8
BLACK
6
CONTINUOUS
10
0.748762
20
1.00687
11
0.750842
21
1.00998
0
LINE
8
BLACK
6
CONTINUOUS
10
0.750842
20
1.00998
11
0.753956
21
1.01206
0
LINE
8
BLACK
6
CONTINUOUS
10
0.753956
20
1.01206
11
0.757628
21
1.0128
0
LINE
8
BLACK
6
CONTINUOUS
10
0.757628
20
1.0128
11
0.793553
21
1.0128
0
LINE
8
BLACK
6
CONTINUOUS
10
0.793553
20
1.0128
11
0.797226
21
1.01206
0
LINE
8
BLACK
6
CONTINUOUS
10
1.26179
20
1.02781
11
1.26491
21
1.02573
0
LINE
8
BLACK
6
CONTINUOUS
10
1.26491
20
1.02573
11
1.26699
21
1.02262
0
LINE
8
BLACK
6
CONTINUOUS
10
1.26699
20
1.02262
11
1.26772
21
1.01895
0
LINE
8
BLACK
6
CONTINUOUS
10
1.26772
20
1.01895
11
1.26772
21
0.999754
0
LINE
8
BLACK
6
CONTINUOUS
10
1.26772
20
0.999754
11
1.26699
21
0.996082
0
LINE
8
BLACK
6
CONTINUOUS
10
1.26699
20
0.996082
11
1.26491
21
0.992968
0
LINE
8
BLACK
6
CONTINUOUS
10
1.26491
20
0.992968
11
1.26179
21
0.990888
0
LINE
8
BLACK
6
CONTINUOUS
10
1.26179
20
0.990888
11
1.25812
21
0.990157
0
LINE
8
BLACK
6
CONTINUOUS
10
1.25812
20
0.990157
11
1.22219
21
0.990157
0
LINE
8
BLACK
6
CONTINUOUS
10
1.22219
20
0.990157
11
1.21852
21
0.990888
0
LINE
8
BLACK
6
CONTINUOUS
10
1.21852
20
0.990888
11
1.21541
21
0.992968
0
LINE
8
BLACK
6
CONTINUOUS
10
1.21541
20
0.992968
11
1.21333
21
0.996082
0
LINE
8
BLACK
6
CONTINUOUS
10
1.21333
20
0.996082
11
1.2126
21
0.999754
0
LINE
8
BLACK
6
CONTINUOUS
10
1.2126
20
0.999754
11
1.2126
21
1.01895
0
LINE
8
BLACK
6
CONTINUOUS
10
1.2126
20
1.01895
11
1.21333
21
1.02262
0
LINE
8
BLACK
6
CONTINUOUS
10
1.21333
20
1.02262
11
1.21541
21
1.02573
0
LINE
8
BLACK
6
CONTINUOUS
10
1.21541
20
1.02573
11
1.21852
21
1.02781
0
LINE
8
BLACK
6
CONTINUOUS
10
1.21852
20
1.02781
11
1.22219
21
1.02854
0
LINE
8
BLACK
6
CONTINUOUS
10
1.22219
20
1.02854
11
1.25812
21
1.02854
0
LINE
8
BLACK
6
CONTINUOUS
10
1.25812
20
1.02854
11
1.26179
21
1.02781
0
LINE
8
BLACK
6
CONTINUOUS
10
1.04016
20
1.03642
11
0.992126
21
1.03642
0
LINE
8
BLACK
6
CONTINUOUS
10
0.992126
20
1.03642
11
0.992126
21
1.06201
0
LINE
8
BLACK
6
CONTINUOUS
10
0.992126
20
1.06201
11
1.04016
21
1.06201
0
LINE
8
BLACK
6
CONTINUOUS
10
1.04016
20
1.06201
11
1.04016
21
1.03642
0
LINE
8
BLACK
6
CONTINUOUS
10
0.937008
20
1.03642
11
0.888976
21
1.03642
0
LINE
8
BLACK
6
CONTINUOUS
10
0.888976
20
1.03642
11
0.888976
21
1.06201
0
LINE
8
BLACK
6
CONTINUOUS
10
0.888976
20
1.06201
11
0.937008
21
1.06201
0
LINE
8
BLACK
6
CONTINUOUS
10
0.937008
20
1.06201
11
0.937008
21
1.03642
0
LINE
8
BLACK
6
CONTINUOUS
10
0.797226
20
1.07604
11
0.800339
21
1.07396
0
LINE
8
BLACK
6
CONTINUOUS
10
0.800339
20
1.07396
11
0.802419
21
1.07085
0
LINE
8
BLACK
6
CONTINUOUS
10
0.802419
20
1.07085
11
0.80315
21
1.06718
0
LINE
8
BLACK
6
CONTINUOUS
10
0.80315
20
1.06718
11
0.80315
21
1.04798
0
LINE
8
BLACK
6
CONTINUOUS
10
0.80315
20
1.04798
11
0.802419
21
1.04431
0
LINE
8
BLACK
6
CONTINUOUS
10
0.802419
20
1.04431
11
0.800339
21
1.0412
0
LINE
8
BLACK
6
CONTINUOUS
10
0.800339
20
1.0412
11
0.797226
21
1.03912
0
LINE
8
BLACK
6
CONTINUOUS
10
0.797226
20
1.03912
11
0.793553
21
1.03839
0
LINE
8
BLACK
6
CONTINUOUS
10
0.793553
20
1.03839
11
0.757628
21
1.03839
0
LINE
8
BLACK
6
CONTINUOUS
10
0.757628
20
1.03839
11
0.753956
21
1.03912
0
LINE
8
BLACK
6
CONTINUOUS
10
0.753956
20
1.03912
11
0.750842
21
1.0412
0
LINE
8
BLACK
6
CONTINUOUS
10
0.750842
20
1.0412
11
0.748762
21
1.04431
0
LINE
8
BLACK
6
CONTINUOUS
10
0.748762
20
1.04431
11
0.748031
21
1.04798
0
LINE
8
BLACK
6
CONTINUOUS
10
0.748031
20
1.04798
11
0.748031
21
1.06718
0
LINE
8
BLACK
6
CONTINUOUS
10
0.748031
20
1.06718
11
0.748762
21
1.07085
0
LINE
8
BLACK
6
CONTINUOUS
10
0.748762
20
1.07085
11
0.750842
21
1.07396
0
LINE
8
BLACK
6
CONTINUOUS
10
0.750842
20
1.07396
11
0.753956
21
1.07604
0
LINE
8
BLACK
6
CONTINUOUS
10
0.753956
20
1.07604
11
0.757628
21
1.07677
0
LINE
8
BLACK
6
CONTINUOUS
10
0.757628
20
1.07677
11
0.793553
21
1.07677
0
LINE
8
BLACK
6
CONTINUOUS
10
0.793553
20
1.07677
11
0.797226
21
1.07604
0
LINE
8
BLACK
6
CONTINUOUS
10
1.21849
20
1.08638
11
1.2216
21
1.0843
0
LINE
8
BLACK
6
CONTINUOUS
10
1.2216
20
1.0843
11
1.22368
21
1.08118
0
LINE
8
BLACK
6
CONTINUOUS
10
1.22368
20
1.08118
11
1.22441
21
1.07751
0
LINE
8
BLACK
6
CONTINUOUS
10
1.22441
20
1.07751
11
1.22441
21
1.05832
0
LINE
8
BLACK
6
CONTINUOUS
10
1.22441
20
1.05832
11
1.22368
21
1.05464
0
LINE
8
BLACK
6
CONTINUOUS
10
1.22368
20
1.05464
11
1.2216
21
1.05153
0
LINE
8
BLACK
6
CONTINUOUS
10
1.2216
20
1.05153
11
1.21849
21
1.04945
0
LINE
8
BLACK
6
CONTINUOUS
10
1.21849
20
1.04945
11
1.21481
21
1.04872
0
LINE
8
BLACK
6
CONTINUOUS
10
1.21481
20
1.04872
11
1.17889
21
1.04872
0
LINE
8
BLACK
6
CONTINUOUS
10
1.17889
20
1.04872
11
1.17522
21
1.04945
0
LINE
8
BLACK
6
CONTINUOUS
10
1.17522
20
1.04945
11
1.1721
21
1.05153
0
LINE
8
BLACK
6
CONTINUOUS
10
1.1721
20
1.05153
11
1.17002
21
1.05464
0
LINE
8
BLACK
6
CONTINUOUS
10
1.17002
20
1.05464
11
1.16929
21
1.05832
0
LINE
8
BLACK
6
CONTINUOUS
10
1.16929
20
1.05832
11
1.16929
21
1.07751
0
LINE
8
BLACK
6
CONTINUOUS
10
1.16929
20
1.07751
11
1.17002
21
1.08118
0
LINE
8
BLACK
6
CONTINUOUS
10
1.17002
20
1.08118
11
1.1721
21
1.0843
0
LINE
8
BLACK
6
CONTINUOUS
10
1.1721
20
1.0843
11
1.17522
21
1.08638
0
LINE
8
BLACK
6
CONTINUOUS
10
1.17522
20
1.08638
11
1.17889
21
1.08711
0
LINE
8
BLACK
6
CONTINUOUS
10
1.17889
20
1.08711
11
1.21481
21
1.08711
0
LINE
8
BLACK
6
CONTINUOUS
10
1.21481
20
1.08711
11
1.21849
21
1.08638
0
LINE
8
BLACK
6
CONTINUOUS
10
1.30904
20
1.08638
11
1.31215
21
1.0843
0
LINE
8
BLACK
6
CONTINUOUS
10
1.31215
20
1.0843
11
1.31423
21
1.08118
0
LINE
8
BLACK
6
CONTINUOUS
10
1.31423
20
1.08118
11
1.31496
21
1.07751
0
LINE
8
BLACK
6
CONTINUOUS
10
1.31496
20
1.07751
11
1.31496
21
1.05832
0
LINE
8
BLACK
6
CONTINUOUS
10
1.31496
20
1.05832
11
1.31423
21
1.05464
0
LINE
8
BLACK
6
CONTINUOUS
10
1.31423
20
1.05464
11
1.31215
21
1.05153
0
LINE
8
BLACK
6
CONTINUOUS
10
1.31215
20
1.05153
11
1.30904
21
1.04945
0
LINE
8
BLACK
6
CONTINUOUS
10
1.30904
20
1.04945
11
1.30536
21
1.04872
0
LINE
8
BLACK
6
CONTINUOUS
10
1.30536
20
1.04872
11
1.26944
21
1.04872
0
LINE
8
BLACK
6
CONTINUOUS
10
1.26944
20
1.04872
11
1.26577
21
1.04945
0
LINE
8
BLACK
6
CONTINUOUS
10
1.26577
20
1.04945
11
1.26265
21
1.05153
0
LINE
8
BLACK
6
CONTINUOUS
10
1.26265
20
1.05153
11
1.26057
21
1.05464
0
LINE
8
BLACK
6
CONTINUOUS
10
1.26057
20
1.05464
11
1.25984
21
1.05832
0
LINE
8
BLACK
6
CONTINUOUS
10
1.25984
20
1.05832
11
1.25984
21
1.07751
0
LINE
8
BLACK
6
CONTINUOUS
10
1.25984
20
1.07751
11
1.26057
21
1.08118
0
LINE
8
BLACK
6
CONTINUOUS
10
1.26057
20
1.08118
11
1.26265
21
1.0843
0
LINE
8
BLACK
6
CONTINUOUS
10
1.26265
20
1.0843
11
1.26577
21
1.08638
0
LINE
8
BLACK
6
CONTINUOUS
10
1.26577
20
1.08638
11
1.26944
21
1.08711
0
LINE
8
BLACK
6
CONTINUOUS
10
1.26944
20
1.08711
11
1.30536
21
1.08711
0
LINE
8
BLACK
6
CONTINUOUS
10
1.30536
20
1.08711
11
1.30904
21
1.08638
0
LINE
8
BLACK
6
CONTINUOUS
10
1.04016
20
1.07382
11
0.992126
21
1.07382
0
LINE
8
BLACK
6
CONTINUOUS
10
0.992126
20
1.07382
11
0.992126
21
1.09941
0
LINE
8
BLACK
6
CONTINUOUS
10
0.992126
20
1.09941
11
1.04016
21
1.09941
0
LINE
8
BLACK
6
CONTINUOUS
10
1.04016
20
1.09941
11
1.04016
21
1.07382
0
LINE
8
BLACK
6
CONTINUOUS
10
1.04016
20
1.11122
11
0.992126
21
1.11122
0
LINE
8
BLACK
6
CONTINUOUS
10
0.992126
20
1.11122
11
0.992126
21
1.13681
0
LINE
8
BLACK
6
CONTINUOUS
10
0.992126
20
1.13681
11
1.04016
21
1.13681
0
LINE
8
BLACK
6
CONTINUOUS
10
1.04016
20
1.13681
11
1.04016
21
1.11122
0
LINE
8
BLACK
6
CONTINUOUS
10
0.937008
20
1.11122
11
0.888976
21
1.11122
0
LINE
8
BLACK
6
CONTINUOUS
10
0.888976
20
1.11122
11
0.888976
21
1.13681
0
LINE
8
BLACK
6
CONTINUOUS
10
0.888976
20
1.13681
11
0.937008
21
1.13681
0
LINE
8
BLACK
6
CONTINUOUS
10
0.937008
20
1.13681
11
0.937008
21
1.11122
0
LINE
8
BLACK
6
CONTINUOUS
10
0.797226
20
1.14986
11
0.800339
21
1.14778
0
LINE
8
BLACK
6
CONTINUOUS
10
0.800339
20
1.14778
11
0.802419
21
1.14467
0
LINE
8
BLACK
6
CONTINUOUS
10
0.802419
20
1.14467
11
0.80315
21
1.14099
0
LINE
8
BLACK
6
CONTINUOUS
10
0.80315
20
1.14099
11
0.80315
21
1.1218
0
LINE
8
BLACK
6
CONTINUOUS
10
0.80315
20
1.1218
11
0.802419
21
1.11813
0
LINE
8
BLACK
6
CONTINUOUS
10
0.802419
20
1.11813
11
0.800339
21
1.11502
0
LINE
8
BLACK
6
CONTINUOUS
10
0.800339
20
1.11502
11
0.797226
21
1.11294
0
LINE
8
BLACK
6
CONTINUOUS
10
0.797226
20
1.11294
11
0.793553
21
1.1122
0
LINE
8
BLACK
6
CONTINUOUS
10
0.793553
20
1.1122
11
0.757628
21
1.1122
0
LINE
8
BLACK
6
CONTINUOUS
10
0.757628
20
1.1122
11
0.753956
21
1.11294
0
LINE
8
BLACK
6
CONTINUOUS
10
0.753956
20
1.11294
11
0.750842
21
1.11502
0
LINE
8
BLACK
6
CONTINUOUS
10
0.750842
20
1.11502
11
0.748762
21
1.11813
0
LINE
8
BLACK
6
CONTINUOUS
10
0.748762
20
1.11813
11
0.748031
21
1.1218
0
LINE
8
BLACK
6
CONTINUOUS
10
0.748031
20
1.1218
11
0.748031
21
1.14099
0
LINE
8
BLACK
6
CONTINUOUS
10
0.748031
20
1.14099
11
0.748762
21
1.14467
0
LINE
8
BLACK
6
CONTINUOUS
10
0.748762
20
1.14467
11
0.750842
21
1.14778
0
LINE
8
BLACK
6
CONTINUOUS
10
0.750842
20
1.14778
11
0.753956
21
1.14986
0
LINE
8
BLACK
6
CONTINUOUS
10
0.753956
20
1.14986
11
0.757628
21
1.15059
0
LINE
8
BLACK
6
CONTINUOUS
10
0.757628
20
1.15059
11
0.793553
21
1.15059
0
LINE
8
BLACK
6
CONTINUOUS
10
0.793553
20
1.15059
11
0.797226
21
1.14986
0
LINE
8
BLACK
6
CONTINUOUS
10
1.30904
20
1.16019
11
1.31215
21
1.15811
0
LINE
8
BLACK
6
CONTINUOUS
10
1.31215
20
1.15811
11
1.31423
21
1.155
0
LINE
8
BLACK
6
CONTINUOUS
10
1.31423
20
1.155
11
1.31496
21
1.15133
0
LINE
8
BLACK
6
CONTINUOUS
10
1.31496
20
1.15133
11
1.31496
21
1.13214
0
LINE
8
BLACK
6
CONTINUOUS
10
1.31496
20
1.13214
11
1.31423
21
1.12846
0
LINE
8
BLACK
6
CONTINUOUS
10
1.31423
20
1.12846
11
1.31215
21
1.12535
0
LINE
8
BLACK
6
CONTINUOUS
10
1.31215
20
1.12535
11
1.30904
21
1.12327
0
LINE
8
BLACK
6
CONTINUOUS
10
1.30904
20
1.12327
11
1.30536
21
1.12254
0
LINE
8
BLACK
6
CONTINUOUS
10
1.30536
20
1.12254
11
1.26944
21
1.12254
0
LINE
8
BLACK
6
CONTINUOUS
10
1.26944
20
1.12254
11
1.26577
21
1.12327
0
LINE
8
BLACK
6
CONTINUOUS
10
1.26577
20
1.12327
11
1.26265
21
1.12535
0
LINE
8
BLACK
6
CONTINUOUS
10
1.26265
20
1.12535
11
1.26057
21
1.12846
0
LINE
8
BLACK
6
CONTINUOUS
10
1.26057
20
1.12846
11
1.25984
21
1.13214
0
LINE
8
BLACK
6
CONTINUOUS
10
1.25984
20
1.13214
11
1.25984
21
1.15133
0
LINE
8
BLACK
6
CONTINUOUS
10
1.25984
20
1.15133
11
1.26057
21
1.155
0
LINE
8
BLACK
6
CONTINUOUS
10
1.26057
20
1.155
11
1.26265
21
1.15811
0
LINE
8
BLACK
6
CONTINUOUS
10
1.26265
20
1.15811
11
1.26577
21
1.16019
0
LINE
8
BLACK
6
CONTINUOUS
10
1.26577
20
1.16019
11
1.26944
21
1.16093
0
LINE
8
BLACK
6
CONTINUOUS
10
1.26944
20
1.16093
11
1.30536
21
1.16093
0
LINE
8
BLACK
6
CONTINUOUS
10
1.30536
20
1.16093
11
1.30904
21
1.16019
0
LINE
8
BLACK
6
CONTINUOUS
10
1.21849
20
1.16019
11
1.2216
21
1.15811
0
LINE
8
BLACK
6
CONTINUOUS
10
1.2216
20
1.15811
11
1.22368
21
1.155
0
LINE
8
BLACK
6
CONTINUOUS
10
1.22368
20
1.155
11
1.22441
21
1.15133
0
LINE
8
BLACK
6
CONTINUOUS
10
1.22441
20
1.15133
11
1.22441
21
1.13214
0
LINE
8
BLACK
6
CONTINUOUS
10
1.22441
20
1.13214
11
1.22368
21
1.12846
0
LINE
8
BLACK
6
CONTINUOUS
10
1.22368
20
1.12846
11
1.2216
21
1.12535
0
LINE
8
BLACK
6
CONTINUOUS
10
1.2216
20
1.12535
11
1.21849
21
1.12327
0
LINE
8
BLACK
6
CONTINUOUS
10
1.21849
20
1.12327
11
1.21481
21
1.12254
0
LINE
8
BLACK
6
CONTINUOUS
10
1.21481
20
1.12254
11
1.17889
21
1.12254
0
LINE
8
BLACK
6
CONTINUOUS
10
1.17889
20
1.12254
11
1.17522
21
1.12327
0
LINE
8
BLACK
6
CONTINUOUS
10
1.17522
20
1.12327
11
1.1721
21
1.12535
0
LINE
8
BLACK
6
CONTINUOUS
10
1.1721
20
1.12535
11
1.17002
21
1.12846
0
LINE
8
BLACK
6
CONTINUOUS
10
1.17002
20
1.12846
11
1.16929
21
1.13214
0
LINE
8
BLACK
6
CONTINUOUS
10
1.16929
20
1.13214
11
1.16929
21
1.15133
0
LINE
8
BLACK
6
CONTINUOUS
10
1.16929
20
1.15133
11
1.17002
21
1.155
0
LINE
8
BLACK
6
CONTINUOUS
10
1.17002
20
1.155
11
1.1721
21
1.15811
0
LINE
8
BLACK
6
CONTINUOUS
10
1.1721
20
1.15811
11
1.17522
21
1.16019
0
LINE
8
BLACK
6
CONTINUOUS
10
1.17522
20
1.16019
11
1.17889
21
1.16093
0
LINE
8
BLACK
6
CONTINUOUS
10
1.17889
20
1.16093
11
1.21481
21
1.16093
0
LINE
8
BLACK
6
CONTINUOUS
10
1.21481
20
1.16093
11
1.21849
21
1.16019
0
LINE
8
BLACK
6
CONTINUOUS
10
0.797226
20
1.22023
11
0.800339
21
1.21815
0
LINE
8
BLACK
6
CONTINUOUS
10
0.800339
20
1.21815
11
0.802419
21
1.21504
0
LINE
8
BLACK
6
CONTINUOUS
10
0.802419
20
1.21504
11
0.80315
21
1.21137
0
LINE
8
BLACK
6
CONTINUOUS
10
0.80315
20
1.21137
11
0.80315
21
1.19218
0
LINE
8
BLACK
6
CONTINUOUS
10
0.80315
20
1.19218
11
0.802419
21
1.1885
0
LINE
8
BLACK
6
CONTINUOUS
10
0.802419
20
1.1885
11
0.800339
21
1.18539
0
LINE
8
BLACK
6
CONTINUOUS
10
0.800339
20
1.18539
11
0.797226
21
1.18331
0
LINE
8
BLACK
6
CONTINUOUS
10
0.797226
20
1.18331
11
0.793553
21
1.18258
0
LINE
8
BLACK
6
CONTINUOUS
10
0.793553
20
1.18258
11
0.757628
21
1.18258
0
LINE
8
BLACK
6
CONTINUOUS
10
0.757628
20
1.18258
11
0.753956
21
1.18331
0
LINE
8
BLACK
6
CONTINUOUS
10
0.753956
20
1.18331
11
0.750842
21
1.18539
0
LINE
8
BLACK
6
CONTINUOUS
10
0.750842
20
1.18539
11
0.748762
21
1.1885
0
LINE
8
BLACK
6
CONTINUOUS
10
0.748762
20
1.1885
11
0.748031
21
1.19218
0
LINE
8
BLACK
6
CONTINUOUS
10
0.748031
20
1.19218
11
0.748031
21
1.21137
0
LINE
8
BLACK
6
CONTINUOUS
10
0.748031
20
1.21137
11
0.748762
21
1.21504
0
LINE
8
BLACK
6
CONTINUOUS
10
0.748762
20
1.21504
11
0.750842
21
1.21815
0
LINE
8
BLACK
6
CONTINUOUS
10
0.750842
20
1.21815
11
0.753956
21
1.22023
0
LINE
8
BLACK
6
CONTINUOUS
10
0.753956
20
1.22023
11
0.757628
21
1.22096
0
LINE
8
BLACK
6
CONTINUOUS
10
0.757628
20
1.22096
11
0.793553
21
1.22096
0
LINE
8
BLACK
6
CONTINUOUS
10
0.793553
20
1.22096
11
0.797226
21
1.22023
0
LINE
8
BLACK
6
CONTINUOUS
10
1.10827
20
1.21063
11
1.01575
21
1.21063
0
LINE
8
BLACK
6
CONTINUOUS
10
1.01575
20
1.21063
11
1.01575
21
1.41142
0
LINE
8
BLACK
6
CONTINUOUS
10
1.01575
20
1.41142
11
1.10827
21
1.41142
0
LINE
8
BLACK
6
CONTINUOUS
10
1.10827
20
1.41142
11
1.10827
21
1.21063
0
LINE
8
BLACK
6
CONTINUOUS
10
0.944882
20
1.21063
11
0.852362
21
1.21063
0
LINE
8
BLACK
6
CONTINUOUS
10
0.852362
20
1.21063
11
0.852362
21
1.41142
0
LINE
8
BLACK
6
CONTINUOUS
10
0.852362
20
1.41142
11
0.944882
21
1.41142
0
LINE
8
BLACK
6
CONTINUOUS
10
0.944882
20
1.41142
11
0.944882
21
1.21063
0
LINE
8
BLACK
6
CONTINUOUS
10
1.50392
20
1.25419
11
1.50703
21
1.25211
0
LINE
8
BLACK
6
CONTINUOUS
10
1.50703
20
1.25211
11
1.50911
21
1.249
0
LINE
8
BLACK
6
CONTINUOUS
10
1.50911
20
1.249
11
1.50984
21
1.24532
0
LINE
8
BLACK
6
CONTINUOUS
10
1.50984
20
1.24532
11
1.50984
21
1.22613
0
LINE
8
BLACK
6
CONTINUOUS
10
1.50984
20
1.22613
11
1.50911
21
1.22246
0
LINE
8
BLACK
6
CONTINUOUS
10
1.50911
20
1.22246
11
1.50703
21
1.21935
0
LINE
8
BLACK
6
CONTINUOUS
10
1.50703
20
1.21935
11
1.50392
21
1.21727
0
LINE
8
BLACK
6
CONTINUOUS
10
1.50392
20
1.21727
11
1.50025
21
1.21654
0
LINE
8
BLACK
6
CONTINUOUS
10
1.50025
20
1.21654
11
1.46432
21
1.21654
0
LINE
8
BLACK
6
CONTINUOUS
10
1.46432
20
1.21654
11
1.46065
21
1.21727
0
LINE
8
BLACK
6
CONTINUOUS
10
1.46065
20
1.21727
11
1.45754
21
1.21935
0
LINE
8
BLACK
6
CONTINUOUS
10
1.45754
20
1.21935
11
1.45545
21
1.22246
0
LINE
8
BLACK
6
CONTINUOUS
10
1.45545
20
1.22246
11
1.45472
21
1.22613
0
LINE
8
BLACK
6
CONTINUOUS
10
1.45472
20
1.22613
11
1.45472
21
1.24532
0
LINE
8
BLACK
6
CONTINUOUS
10
1.45472
20
1.24532
11
1.45545
21
1.249
0
LINE
8
BLACK
6
CONTINUOUS
10
1.45545
20
1.249
11
1.45754
21
1.25211
0
LINE
8
BLACK
6
CONTINUOUS
10
1.45754
20
1.25211
11
1.46065
21
1.25419
0
LINE
8
BLACK
6
CONTINUOUS
10
1.46065
20
1.25419
11
1.46432
21
1.25492
0
LINE
8
BLACK
6
CONTINUOUS
10
1.46432
20
1.25492
11
1.50025
21
1.25492
0
LINE
8
BLACK
6
CONTINUOUS
10
1.50025
20
1.25492
11
1.50392
21
1.25419
0
LINE
8
BLACK
6
CONTINUOUS
10
0.797226
20
1.29405
11
0.800339
21
1.29197
0
LINE
8
BLACK
6
CONTINUOUS
10
0.800339
20
1.29197
11
0.802419
21
1.28886
0
LINE
8
BLACK
6
CONTINUOUS
10
0.802419
20
1.28886
11
0.80315
21
1.28519
0
LINE
8
BLACK
6
CONTINUOUS
10
0.80315
20
1.28519
11
0.80315
21
1.26599
0
LINE
8
BLACK
6
CONTINUOUS
10
0.80315
20
1.26599
11
0.802419
21
1.26232
0
LINE
8
BLACK
6
CONTINUOUS
10
0.802419
20
1.26232
11
0.800339
21
1.25921
0
LINE
8
BLACK
6
CONTINUOUS
10
0.800339
20
1.25921
11
0.797226
21
1.25713
0
LINE
8
BLACK
6
CONTINUOUS
10
0.797226
20
1.25713
11
0.793553
21
1.2564
0
LINE
8
BLACK
6
CONTINUOUS
10
0.793553
20
1.2564
11
0.757628
21
1.2564
0
LINE
8
BLACK
6
CONTINUOUS
10
0.757628
20
1.2564
11
0.753956
21
1.25713
0
LINE
8
BLACK
6
CONTINUOUS
10
0.753956
20
1.25713
11
0.750842
21
1.25921
0
LINE
8
BLACK
6
CONTINUOUS
10
0.750842
20
1.25921
11
0.748762
21
1.26232
0
LINE
8
BLACK
6
CONTINUOUS
10
0.748762
20
1.26232
11
0.748031
21
1.26599
0
LINE
8
BLACK
6
CONTINUOUS
10
0.748031
20
1.26599
11
0.748031
21
1.28519
0
LINE
8
BLACK
6
CONTINUOUS
10
0.748031
20
1.28519
11
0.748762
21
1.28886
0
LINE
8
BLACK
6
CONTINUOUS
10
0.748762
20
1.28886
11
0.750842
21
1.29197
0
LINE
8
BLACK
6
CONTINUOUS
10
0.750842
20
1.29197
11
0.753956
21
1.29405
0
LINE
8
BLACK
6
CONTINUOUS
10
0.753956
20
1.29405
11
0.757628
21
1.29478
0
LINE
8
BLACK
6
CONTINUOUS
10
0.757628
20
1.29478
11
0.793553
21
1.29478
0
LINE
8
BLACK
6
CONTINUOUS
10
0.793553
20
1.29478
11
0.797226
21
1.29405
0
LINE
8
BLACK
6
CONTINUOUS
10
1.41535
20
1.27559
11
1.31693
21
1.27559
0
LINE
8
BLACK
6
CONTINUOUS
10
1.31693
20
1.27559
11
1.31693
21
1.34646
0
LINE
8
BLACK
6
CONTINUOUS
10
1.31693
20
1.34646
11
1.41535
21
1.34646
0
LINE
8
BLACK
6
CONTINUOUS
10
1.41535
20
1.34646
11
1.41535
21
1.27559
0
LINE
8
BLACK
6
CONTINUOUS
10
1.25787
20
1.27559
11
1.15945
21
1.27559
0
LINE
8
BLACK
6
CONTINUOUS
10
1.15945
20
1.27559
11
1.15945
21
1.34646
0
LINE
8
BLACK
6
CONTINUOUS
10
1.15945
20
1.34646
11
1.25787
21
1.34646
0
LINE
8
BLACK
6
CONTINUOUS
10
1.25787
20
1.34646
11
1.25787
21
1.27559
0
LINE
8
BLACK
6
CONTINUOUS
10
1.50392
20
1.32801
11
1.50703
21
1.32593
0
LINE
8
BLACK
6
CONTINUOUS
10
1.50703
20
1.32593
11
1.50911
21
1.32282
0
LINE
8
BLACK
6
CONTINUOUS
10
1.50911
20
1.32282
11
1.50984
21
1.31914
0
LINE
8
BLACK
6
CONTINUOUS
10
1.50984
20
1.31914
11
1.50984
21
1.29995
0
LINE
8
BLACK
6
CONTINUOUS
10
1.50984
20
1.29995
11
1.50911
21
1.29628
0
LINE
8
BLACK
6
CONTINUOUS
10
1.50911
20
1.29628
11
1.50703
21
1.29317
0
LINE
8
BLACK
6
CONTINUOUS
10
1.50703
20
1.29317
11
1.50392
21
1.29108
0
LINE
8
BLACK
6
CONTINUOUS
10
1.50392
20
1.29108
11
1.50025
21
1.29035
0
LINE
8
BLACK
6
CONTINUOUS
10
1.50025
20
1.29035
11
1.46432
21
1.29035
0
LINE
8
BLACK
6
CONTINUOUS
10
1.46432
20
1.29035
11
1.46065
21
1.29108
0
LINE
8
BLACK
6
CONTINUOUS
10
1.46065
20
1.29108
11
1.45754
21
1.29317
0
LINE
8
BLACK
6
CONTINUOUS
10
1.45754
20
1.29317
11
1.45545
21
1.29628
0
LINE
8
BLACK
6
CONTINUOUS
10
1.45545
20
1.29628
11
1.45472
21
1.29995
0
LINE
8
BLACK
6
CONTINUOUS
10
1.45472
20
1.29995
11
1.45472
21
1.31914
0
LINE
8
BLACK
6
CONTINUOUS
10
1.45472
20
1.31914
11
1.45545
21
1.32282
0
LINE
8
BLACK
6
CONTINUOUS
10
1.45545
20
1.32282
11
1.45754
21
1.32593
0
LINE
8
BLACK
6
CONTINUOUS
10
1.45754
20
1.32593
11
1.46065
21
1.32801
0
LINE
8
BLACK
6
CONTINUOUS
10
1.46065
20
1.32801
11
1.46432
21
1.32874
0
LINE
8
BLACK
6
CONTINUOUS
10
1.46432
20
1.32874
11
1.50025
21
1.32874
0
LINE
8
BLACK
6
CONTINUOUS
10
1.50025
20
1.32874
11
1.50392
21
1.32801
0
LINE
8
BLACK
6
CONTINUOUS
10
1.69486
20
1.62329
11
1.69798
21
1.62121
0
LINE
8
BLACK
6
CONTINUOUS
10
1.69798
20
1.62121
11
1.70006
21
1.61809
0
LINE
8
BLACK
6
CONTINUOUS
10
1.70006
20
1.61809
11
1.70079
21
1.61442
0
LINE
8
BLACK
6
CONTINUOUS
10
1.70079
20
1.61442
11
1.70079
21
1.59523
0
LINE
8
BLACK
6
CONTINUOUS
10
1.70079
20
1.59523
11
1.70006
21
1.59155
0
LINE
8
BLACK
6
CONTINUOUS
10
1.70006
20
1.59155
11
1.69798
21
1.58844
0
LINE
8
BLACK
6
CONTINUOUS
10
1.69798
20
1.58844
11
1.69486
21
1.58636
0
LINE
8
BLACK
6
CONTINUOUS
10
1.69486
20
1.58636
11
1.69119
21
1.58563
0
LINE
8
BLACK
6
CONTINUOUS
10
1.69119
20
1.58563
11
1.65527
21
1.58563
0
LINE
8
BLACK
6
CONTINUOUS
10
1.65527
20
1.58563
11
1.65159
21
1.58636
0
LINE
8
BLACK
6
CONTINUOUS
10
1.65159
20
1.58636
11
1.64848
21
1.58844
0
LINE
8
BLACK
6
CONTINUOUS
10
1.64848
20
1.58844
11
1.6464
21
1.59155
0
LINE
8
BLACK
6
CONTINUOUS
10
1.6464
20
1.59155
11
1.64567
21
1.59523
0
LINE
8
BLACK
6
CONTINUOUS
10
1.64567
20
1.59523
11
1.64567
21
1.61442
0
LINE
8
BLACK
6
CONTINUOUS
10
1.64567
20
1.61442
11
1.6464
21
1.61809
0
LINE
8
BLACK
6
CONTINUOUS
10
1.6464
20
1.61809
11
1.64848
21
1.62121
0
LINE
8
BLACK
6
CONTINUOUS
10
1.64848
20
1.62121
11
1.65159
21
1.62329
0
LINE
8
BLACK
6
CONTINUOUS
10
1.65159
20
1.62329
11
1.65527
21
1.62402
0
LINE
8
BLACK
6
CONTINUOUS
10
1.65527
20
1.62402
11
1.69119
21
1.62402
0
LINE
8
BLACK
6
CONTINUOUS
10
1.69119
20
1.62402
11
1.69486
21
1.62329
0
LINE
8
BLACK
6
CONTINUOUS
10
1.52852
20
1.62575
11
1.53164
21
1.62367
0
LINE
8
BLACK
6
CONTINUOUS
10
1.53164
20
1.62367
11
1.53372
21
1.62055
0
LINE
8
BLACK
6
CONTINUOUS
10
1.53372
20
1.62055
11
1.53445
21
1.61688
0
LINE
8
BLACK
6
CONTINUOUS
10
1.53445
20
1.61688
11
1.53445
21
1.59769
0
LINE
8
BLACK
6
CONTINUOUS
10
1.53445
20
1.59769
11
1.53372
21
1.59401
0
LINE
8
BLACK
6
CONTINUOUS
10
1.53372
20
1.59401
11
1.53164
21
1.5909
0
LINE
8
BLACK
6
CONTINUOUS
10
1.53164
20
1.5909
11
1.52852
21
1.58882
0
LINE
8
BLACK
6
CONTINUOUS
10
1.52852
20
1.58882
11
1.52485
21
1.58809
0
LINE
8
BLACK
6
CONTINUOUS
10
1.52485
20
1.58809
11
1.48893
21
1.58809
0
LINE
8
BLACK
6
CONTINUOUS
10
1.48893
20
1.58809
11
1.48525
21
1.58882
0
LINE
8
BLACK
6
CONTINUOUS
10
1.48525
20
1.58882
11
1.48214
21
1.5909
0
LINE
8
BLACK
6
CONTINUOUS
10
1.48214
20
1.5909
11
1.48006
21
1.59401
0
LINE
8
BLACK
6
CONTINUOUS
10
1.48006
20
1.59401
11
1.47933
21
1.59769
0
LINE
8
BLACK
6
CONTINUOUS
10
1.47933
20
1.59769
11
1.47933
21
1.61688
0
LINE
8
BLACK
6
CONTINUOUS
10
1.47933
20
1.61688
11
1.48006
21
1.62055
0
LINE
8
BLACK
6
CONTINUOUS
10
1.48006
20
1.62055
11
1.48214
21
1.62367
0
LINE
8
BLACK
6
CONTINUOUS
10
1.48214
20
1.62367
11
1.48525
21
1.62575
0
LINE
8
BLACK
6
CONTINUOUS
10
1.48525
20
1.62575
11
1.48893
21
1.62648
0
LINE
8
BLACK
6
CONTINUOUS
10
1.48893
20
1.62648
11
1.52485
21
1.62648
0
LINE
8
BLACK
6
CONTINUOUS
10
1.52485
20
1.62648
11
1.52852
21
1.62575
0
LINE
8
BLACK
6
CONTINUOUS
10
1.69486
20
1.6971
11
1.69798
21
1.69502
0
LINE
8
BLACK
6
CONTINUOUS
10
1.69798
20
1.69502
11
1.70006
21
1.69191
0
LINE
8
BLACK
6
CONTINUOUS
10
1.70006
20
1.69191
11
1.70079
21
1.68824
0
LINE
8
BLACK
6
CONTINUOUS
10
1.70079
20
1.68824
11
1.70079
21
1.66905
0
LINE
8
BLACK
6
CONTINUOUS
10
1.70079
20
1.66905
11
1.70006
21
1.66537
0
LINE
8
BLACK
6
CONTINUOUS
10
1.70006
20
1.66537
11
1.69798
21
1.66226
0
LINE
8
BLACK
6
CONTINUOUS
10
1.69798
20
1.66226
11
1.69486
21
1.66018
0
LINE
8
BLACK
6
CONTINUOUS
10
1.69486
20
1.66018
11
1.69119
21
1.65945
0
LINE
8
BLACK
6
CONTINUOUS
10
1.69119
20
1.65945
11
1.65527
21
1.65945
0
LINE
8
BLACK
6
CONTINUOUS
10
1.65527
20
1.65945
11
1.65159
21
1.66018
0
LINE
8
BLACK
6
CONTINUOUS
10
1.65159
20
1.66018
11
1.64848
21
1.66226
0
LINE
8
BLACK
6
CONTINUOUS
10
1.64848
20
1.66226
11
1.6464
21
1.66537
0
LINE
8
BLACK
6
CONTINUOUS
10
1.6464
20
1.66537
11
1.64567
21
1.66905
0
LINE
8
BLACK
6
CONTINUOUS
10
1.64567
20
1.66905
11
1.64567
21
1.68824
0
LINE
8
BLACK
6
CONTINUOUS
10
1.64567
20
1.68824
11
1.6464
21
1.69191
0
LINE
8
BLACK
6
CONTINUOUS
10
1.6464
20
1.69191
11
1.64848
21
1.69502
0
LINE
8
BLACK
6
CONTINUOUS
10
1.64848
20
1.69502
11
1.65159
21
1.6971
0
LINE
8
BLACK
6
CONTINUOUS
10
1.65159
20
1.6971
11
1.65527
21
1.69783
0
LINE
8
BLACK
6
CONTINUOUS
10
1.65527
20
1.69783
11
1.69119
21
1.69783
0
LINE
8
BLACK
6
CONTINUOUS
10
1.69119
20
1.69783
11
1.69486
21
1.6971
0
LINE
8
BLACK
6
CONTINUOUS
10
1.52852
20
1.69956
11
1.53164
21
1.69748
0
LINE
8
BLACK
6
CONTINUOUS
10
1.53164
20
1.69748
11
1.53372
21
1.69437
0
LINE
8
BLACK
6
CONTINUOUS
10
1.53372
20
1.69437
11
1.53445
21
1.6907
0
LINE
8
BLACK
6
CONTINUOUS
10
1.53445
20
1.6907
11
1.53445
21
1.67151
0
LINE
8
BLACK
6
CONTINUOUS
10
1.53445
20
1.67151
11
1.53372
21
1.66783
0
LINE
8
BLACK
6
CONTINUOUS
10
1.53372
20
1.66783
11
1.53164
21
1.66472
0
LINE
8
BLACK
6
CONTINUOUS
10
1.53164
20
1.66472
11
1.52852
21
1.66264
0
LINE
8
BLACK
6
CONTINUOUS
10
1.52852
20
1.66264
11
1.52485
21
1.66191
0
LINE
8
BLACK
6
CONTINUOUS
10
1.52485
20
1.66191
11
1.48893
21
1.66191
0
LINE
8
BLACK
6
CONTINUOUS
10
1.48893
20
1.66191
11
1.48525
21
1.66264
0
LINE
8
BLACK
6
CONTINUOUS
10
1.48525
20
1.66264
11
1.48214
21
1.66472
0
LINE
8
BLACK
6
CONTINUOUS
10
1.48214
20
1.66472
11
1.48006
21
1.66783
0
LINE
8
BLACK
6
CONTINUOUS
10
1.48006
20
1.66783
11
1.47933
21
1.67151
0
LINE
8
BLACK
6
CONTINUOUS
10
1.47933
20
1.67151
11
1.47933
21
1.6907
0
LINE
8
BLACK
6
CONTINUOUS
10
1.47933
20
1.6907
11
1.48006
21
1.69437
0
LINE
8
BLACK
6
CONTINUOUS
10
1.48006
20
1.69437
11
1.48214
21
1.69748
0
LINE
8
BLACK
6
CONTINUOUS
10
1.48214
20
1.69748
11
1.48525
21
1.69956
0
LINE
8
BLACK
6
CONTINUOUS
10
1.48525
20
1.69956
11
1.48893
21
1.7003
0
LINE
8
BLACK
6
CONTINUOUS
10
1.48893
20
1.7003
11
1.52485
21
1.7003
0
LINE
8
BLACK
6
CONTINUOUS
10
1.52485
20
1.7003
11
1.52852
21
1.69956
0
LINE
8
BLACK
6
CONTINUOUS
10
1.52557
20
1.75714
11
1.52869
21
1.75506
0
LINE
8
BLACK
6
CONTINUOUS
10
1.52869
20
1.75506
11
1.53077
21
1.75195
0
LINE
8
BLACK
6
CONTINUOUS
10
1.53077
20
1.75195
11
1.5315
21
1.74828
0
LINE
8
BLACK
6
CONTINUOUS
10
1.5315
20
1.74828
11
1.5315
21
1.72908
0
LINE
8
BLACK
6
CONTINUOUS
10
1.5315
20
1.72908
11
1.53077
21
1.72541
0
LINE
8
BLACK
6
CONTINUOUS
10
1.53077
20
1.72541
11
1.52869
21
1.7223
0
LINE
8
BLACK
6
CONTINUOUS
10
1.52869
20
1.7223
11
1.52557
21
1.72022
0
LINE
8
BLACK
6
CONTINUOUS
10
1.52557
20
1.72022
11
1.5219
21
1.71949
0
LINE
8
BLACK
6
CONTINUOUS
10
1.5219
20
1.71949
11
1.48597
21
1.71949
0
LINE
8
BLACK
6
CONTINUOUS
10
1.48597
20
1.71949
11
1.4823
21
1.72022
0
LINE
8
BLACK
6
CONTINUOUS
10
1.4823
20
1.72022
11
1.47919
21
1.7223
0
LINE
8
BLACK
6
CONTINUOUS
10
1.47919
20
1.7223
11
1.47711
21
1.72541
0
LINE
8
BLACK
6
CONTINUOUS
10
1.47711
20
1.72541
11
1.47638
21
1.72908
0
LINE
8
BLACK
6
CONTINUOUS
10
1.47638
20
1.72908
11
1.47638
21
1.74828
0
LINE
8
BLACK
6
CONTINUOUS
10
1.47638
20
1.74828
11
1.47711
21
1.75195
0
LINE
8
BLACK
6
CONTINUOUS
10
1.47711
20
1.75195
11
1.47919
21
1.75506
0
LINE
8
BLACK
6
CONTINUOUS
10
1.47919
20
1.75506
11
1.4823
21
1.75714
0
LINE
8
BLACK
6
CONTINUOUS
10
1.4823
20
1.75714
11
1.48597
21
1.75787
0
LINE
8
BLACK
6
CONTINUOUS
10
1.48597
20
1.75787
11
1.5219
21
1.75787
0
LINE
8
BLACK
6
CONTINUOUS
10
1.5219
20
1.75787
11
1.52557
21
1.75714
0
LINE
8
BLACK
6
CONTINUOUS
10
1.69486
20
1.75862
11
1.69798
21
1.75654
0
LINE
8
BLACK
6
CONTINUOUS
10
1.69798
20
1.75654
11
1.70006
21
1.75343
0
LINE
8
BLACK
6
CONTINUOUS
10
1.70006
20
1.75343
11
1.70079
21
1.74975
0
LINE
8
BLACK
6
CONTINUOUS
10
1.70079
20
1.74975
11
1.70079
21
1.73056
0
LINE
8
BLACK
6
CONTINUOUS
10
1.70079
20
1.73056
11
1.70006
21
1.72689
0
LINE
8
BLACK
6
CONTINUOUS
10
1.70006
20
1.72689
11
1.69798
21
1.72378
0
LINE
8
BLACK
6
CONTINUOUS
10
1.69798
20
1.72378
11
1.69486
21
1.7217
0
LINE
8
BLACK
6
CONTINUOUS
10
1.69486
20
1.7217
11
1.69119
21
1.72096
0
LINE
8
BLACK
6
CONTINUOUS
10
1.69119
20
1.72096
11
1.65527
21
1.72096
0
LINE
8
BLACK
6
CONTINUOUS
10
1.65527
20
1.72096
11
1.65159
21
1.7217
0
LINE
8
BLACK
6
CONTINUOUS
10
1.65159
20
1.7217
11
1.64848
21
1.72378
0
LINE
8
BLACK
6
CONTINUOUS
10
1.64848
20
1.72378
11
1.6464
21
1.72689
0
LINE
8
BLACK
6
CONTINUOUS
10
1.6464
20
1.72689
11
1.64567
21
1.73056
0
LINE
8
BLACK
6
CONTINUOUS
10
1.64567
20
1.73056
11
1.64567
21
1.74975
0
LINE
8
BLACK
6
CONTINUOUS
10
1.64567
20
1.74975
11
1.6464
21
1.75343
0
LINE
8
BLACK
6
CONTINUOUS
10
1.6464
20
1.75343
11
1.64848
21
1.75654
0
LINE
8
BLACK
6
CONTINUOUS
10
1.64848
20
1.75654
11
1.65159
21
1.75862
0
LINE
8
BLACK
6
CONTINUOUS
10
1.65159
20
1.75862
11
1.65527
21
1.75935
0
LINE
8
BLACK
6
CONTINUOUS
10
1.65527
20
1.75935
11
1.69119
21
1.75935
0
LINE
8
BLACK
6
CONTINUOUS
10
1.69119
20
1.75935
11
1.69486
21
1.75862
0
LINE
8
BLACK
6
CONTINUOUS
10
1.52557
20
1.83096
11
1.52869
21
1.82888
0
LINE
8
BLACK
6
CONTINUOUS
10
1.52869
20
1.82888
11
1.53077
21
1.82577
0
LINE
8
BLACK
6
CONTINUOUS
10
1.53077
20
1.82577
11
1.5315
21
1.8221
0
LINE
8
BLACK
6
CONTINUOUS
10
1.5315
20
1.8221
11
1.5315
21
1.8029
0
LINE
8
BLACK
6
CONTINUOUS
10
1.5315
20
1.8029
11
1.53077
21
1.79923
0
LINE
8
BLACK
6
CONTINUOUS
10
1.53077
20
1.79923
11
1.52869
21
1.79612
0
LINE
8
BLACK
6
CONTINUOUS
10
1.52869
20
1.79612
11
1.52557
21
1.79404
0
LINE
8
BLACK
6
CONTINUOUS
10
1.52557
20
1.79404
11
1.5219
21
1.79331
0
LINE
8
BLACK
6
CONTINUOUS
10
1.5219
20
1.79331
11
1.48597
21
1.79331
0
LINE
8
BLACK
6
CONTINUOUS
10
1.48597
20
1.79331
11
1.4823
21
1.79404
0
LINE
8
BLACK
6
CONTINUOUS
10
1.4823
20
1.79404
11
1.47919
21
1.79612
0
LINE
8
BLACK
6
CONTINUOUS
10
1.47919
20
1.79612
11
1.47711
21
1.79923
0
LINE
8
BLACK
6
CONTINUOUS
10
1.47711
20
1.79923
11
1.47638
21
1.8029
0
LINE
8
BLACK
6
CONTINUOUS
10
1.47638
20
1.8029
11
1.47638
21
1.8221
0
LINE
8
BLACK
6
CONTINUOUS
10
1.47638
20
1.8221
11
1.47711
21
1.82577
0
LINE
8
BLACK
6
CONTINUOUS
10
1.47711
20
1.82577
11
1.47919
21
1.82888
0
LINE
8
BLACK
6
CONTINUOUS
10
1.47919
20
1.82888
11
1.4823
21
1.83096
0
LINE
8
BLACK
6
CONTINUOUS
10
1.4823
20
1.83096
11
1.48597
21
1.83169
0
LINE
8
BLACK
6
CONTINUOUS
10
1.48597
20
1.83169
11
1.5219
21
1.83169
0
LINE
8
BLACK
6
CONTINUOUS
10
1.5219
20
1.83169
11
1.52557
21
1.83096
0
LINE
8
BLACK
6
CONTINUOUS
10
1.69486
20
1.83244
11
1.69798
21
1.83036
0
LINE
8
BLACK
6
CONTINUOUS
10
1.69798
20
1.83036
11
1.70006
21
1.82725
0
LINE
8
BLACK
6
CONTINUOUS
10
1.70006
20
1.82725
11
1.70079
21
1.82357
0
LINE
8
BLACK
6
CONTINUOUS
10
1.70079
20
1.82357
11
1.70079
21
1.80438
0
LINE
8
BLACK
6
CONTINUOUS
10
1.70079
20
1.80438
11
1.70006
21
1.80071
0
LINE
8
BLACK
6
CONTINUOUS
10
1.70006
20
1.80071
11
1.69798
21
1.79759
0
LINE
8
BLACK
6
CONTINUOUS
10
1.69798
20
1.79759
11
1.69486
21
1.79551
0
LINE
8
BLACK
6
CONTINUOUS
10
1.69486
20
1.79551
11
1.69119
21
1.79478
0
LINE
8
BLACK
6
CONTINUOUS
10
1.69119
20
1.79478
11
1.65527
21
1.79478
0
LINE
8
BLACK
6
CONTINUOUS
10
1.65527
20
1.79478
11
1.65159
21
1.79551
0
LINE
8
BLACK
6
CONTINUOUS
10
1.65159
20
1.79551
11
1.64848
21
1.79759
0
LINE
8
BLACK
6
CONTINUOUS
10
1.64848
20
1.79759
11
1.6464
21
1.80071
0
LINE
8
BLACK
6
CONTINUOUS
10
1.6464
20
1.80071
11
1.64567
21
1.80438
0
LINE
8
BLACK
6
CONTINUOUS
10
1.64567
20
1.80438
11
1.64567
21
1.82357
0
LINE
8
BLACK
6
CONTINUOUS
10
1.64567
20
1.82357
11
1.6464
21
1.82725
0
LINE
8
BLACK
6
CONTINUOUS
10
1.6464
20
1.82725
11
1.64848
21
1.83036
0
LINE
8
BLACK
6
CONTINUOUS
10
1.64848
20
1.83036
11
1.65159
21
1.83244
0
LINE
8
BLACK
6
CONTINUOUS
10
1.65159
20
1.83244
11
1.65527
21
1.83317
0
LINE
8
BLACK
6
CONTINUOUS
10
1.65527
20
1.83317
11
1.69119
21
1.83317
0
LINE
8
BLACK
6
CONTINUOUS
10
1.69119
20
1.83317
11
1.69486
21
1.83244
0
LINE
8
BLACK
6
CONTINUOUS
10
1.17124
20
1.85803
11
1.17435
21
1.85595
0
LINE
8
BLACK
6
CONTINUOUS
10
1.17435
20
1.85595
11
1.17643
21
1.85284
0
LINE
8
BLACK
6
CONTINUOUS
10
1.17643
20
1.85284
11
1.17717
21
1.84916
0
LINE
8
BLACK
6
CONTINUOUS
10
1.17717
20
1.84916
11
1.17717
21
1.82997
0
LINE
8
BLACK
6
CONTINUOUS
10
1.17717
20
1.82997
11
1.17643
21
1.8263
0
LINE
8
BLACK
6
CONTINUOUS
10
1.17643
20
1.8263
11
1.17435
21
1.82318
0
LINE
8
BLACK
6
CONTINUOUS
10
1.17435
20
1.82318
11
1.17124
21
1.8211
0
LINE
8
BLACK
6
CONTINUOUS
10
1.17124
20
1.8211
11
1.16757
21
1.82037
0
LINE
8
BLACK
6
CONTINUOUS
10
1.16757
20
1.82037
11
1.13164
21
1.82037
0
LINE
8
BLACK
6
CONTINUOUS
10
1.13164
20
1.82037
11
1.12797
21
1.8211
0
LINE
8
BLACK
6
CONTINUOUS
10
1.12797
20
1.8211
11
1.12486
21
1.82318
0
LINE
8
BLACK
6
CONTINUOUS
10
1.12486
20
1.82318
11
1.12278
21
1.8263
0
LINE
8
BLACK
6
CONTINUOUS
10
1.12278
20
1.8263
11
1.12205
21
1.82997
0
LINE
8
BLACK
6
CONTINUOUS
10
1.12205
20
1.82997
11
1.12205
21
1.84916
0
LINE
8
BLACK
6
CONTINUOUS
10
1.12205
20
1.84916
11
1.12278
21
1.85284
0
LINE
8
BLACK
6
CONTINUOUS
10
1.12278
20
1.85284
11
1.12486
21
1.85595
0
LINE
8
BLACK
6
CONTINUOUS
10
1.12486
20
1.85595
11
1.12797
21
1.85803
0
LINE
8
BLACK
6
CONTINUOUS
10
1.12797
20
1.85803
11
1.13164
21
1.85876
0
LINE
8
BLACK
6
CONTINUOUS
10
1.13164
20
1.85876
11
1.16757
21
1.85876
0
LINE
8
BLACK
6
CONTINUOUS
10
1.16757
20
1.85876
11
1.17124
21
1.85803
0
LINE
8
BLACK
6
CONTINUOUS
10
0.887777
20
1.86197
11
0.89089
21
1.85989
0
LINE
8
BLACK
6
CONTINUOUS
10
0.89089
20
1.85989
11
0.89297
21
1.85677
0
LINE
8
BLACK
6
CONTINUOUS
10
0.89297
20
1.85677
11
0.893701
21
1.8531
0
LINE
8
BLACK
6
CONTINUOUS
10
0.893701
20
1.8531
11
0.893701
21
1.83391
0
LINE
8
BLACK
6
CONTINUOUS
10
0.893701
20
1.83391
11
0.89297
21
1.83024
0
LINE
8
BLACK
6
CONTINUOUS
10
0.89297
20
1.83024
11
0.89089
21
1.82712
0
LINE
8
BLACK
6
CONTINUOUS
10
0.89089
20
1.82712
11
0.887777
21
1.82504
0
LINE
8
BLACK
6
CONTINUOUS
10
0.887777
20
1.82504
11
0.884104
21
1.82431
0
LINE
8
BLACK
6
CONTINUOUS
10
0.884104
20
1.82431
11
0.848179
21
1.82431
0
LINE
8
BLACK
6
CONTINUOUS
10
0.848179
20
1.82431
11
0.844507
21
1.82504
0
LINE
8
BLACK
6
CONTINUOUS
10
0.844507
20
1.82504
11
0.841393
21
1.82712
0
LINE
8
BLACK
6
CONTINUOUS
10
0.841393
20
1.82712
11
0.839313
21
1.83024
0
LINE
8
BLACK
6
CONTINUOUS
10
0.839313
20
1.83024
11
0.838583
21
1.83391
0
LINE
8
BLACK
6
CONTINUOUS
10
0.838583
20
1.83391
11
0.838583
21
1.8531
0
LINE
8
BLACK
6
CONTINUOUS
10
0.838583
20
1.8531
11
0.839313
21
1.85677
0
LINE
8
BLACK
6
CONTINUOUS
10
0.839313
20
1.85677
11
0.841393
21
1.85989
0
LINE
8
BLACK
6
CONTINUOUS
10
0.841393
20
1.85989
11
0.844507
21
1.86197
0
LINE
8
BLACK
6
CONTINUOUS
10
0.844507
20
1.86197
11
0.848179
21
1.8627
0
LINE
8
BLACK
6
CONTINUOUS
10
0.848179
20
1.8627
11
0.884104
21
1.8627
0
LINE
8
BLACK
6
CONTINUOUS
10
0.884104
20
1.8627
11
0.887777
21
1.86197
0
LINE
8
BLACK
6
CONTINUOUS
10
0.663367
20
1.86197
11
0.666481
21
1.85989
0
LINE
8
BLACK
6
CONTINUOUS
10
0.666481
20
1.85989
11
0.668561
21
1.85677
0
LINE
8
BLACK
6
CONTINUOUS
10
0.668561
20
1.85677
11
0.669291
21
1.8531
0
LINE
8
BLACK
6
CONTINUOUS
10
0.669291
20
1.8531
11
0.669291
21
1.83391
0
LINE
8
BLACK
6
CONTINUOUS
10
0.669291
20
1.83391
11
0.668561
21
1.83024
0
LINE
8
BLACK
6
CONTINUOUS
10
0.668561
20
1.83024
11
0.666481
21
1.82712
0
LINE
8
BLACK
6
CONTINUOUS
10
0.666481
20
1.82712
11
0.663367
21
1.82504
0
LINE
8
BLACK
6
CONTINUOUS
10
0.663367
20
1.82504
11
0.659695
21
1.82431
0
LINE
8
BLACK
6
CONTINUOUS
10
0.659695
20
1.82431
11
0.62377
21
1.82431
0
LINE
8
BLACK
6
CONTINUOUS
10
0.62377
20
1.82431
11
0.620097
21
1.82504
0
LINE
8
BLACK
6
CONTINUOUS
10
0.620097
20
1.82504
11
0.616984
21
1.82712
0
LINE
8
BLACK
6
CONTINUOUS
10
0.616984
20
1.82712
11
0.614904
21
1.83024
0
LINE
8
BLACK
6
CONTINUOUS
10
0.614904
20
1.83024
11
0.614173
21
1.83391
0
LINE
8
BLACK
6
CONTINUOUS
10
0.614173
20
1.83391
11
0.614173
21
1.8531
0
LINE
8
BLACK
6
CONTINUOUS
10
0.614173
20
1.8531
11
0.614904
21
1.85677
0
LINE
8
BLACK
6
CONTINUOUS
10
0.614904
20
1.85677
11
0.616984
21
1.85989
0
LINE
8
BLACK
6
CONTINUOUS
10
0.616984
20
1.85989
11
0.620097
21
1.86197
0
LINE
8
BLACK
6
CONTINUOUS
10
0.620097
20
1.86197
11
0.62377
21
1.8627
0
LINE
8
BLACK
6
CONTINUOUS
10
0.62377
20
1.8627
11
0.659695
21
1.8627
0
LINE
8
BLACK
6
CONTINUOUS
10
0.659695
20
1.8627
11
0.663367
21
1.86197
0
LINE
8
BLACK
6
CONTINUOUS
10
0.765729
20
1.86197
11
0.768843
21
1.85989
0
LINE
8
BLACK
6
CONTINUOUS
10
0.768843
20
1.85989
11
0.770923
21
1.85677
0
LINE
8
BLACK
6
CONTINUOUS
10
0.770923
20
1.85677
11
0.771654
21
1.8531
0
LINE
8
BLACK
6
CONTINUOUS
10
0.771654
20
1.8531
11
0.771654
21
1.83391
0
LINE
8
BLACK
6
CONTINUOUS
10
0.771654
20
1.83391
11
0.770923
21
1.83024
0
LINE
8
BLACK
6
CONTINUOUS
10
0.770923
20
1.83024
11
0.768843
21
1.82712
0
LINE
8
BLACK
6
CONTINUOUS
10
0.768843
20
1.82712
11
0.765729
21
1.82504
0
LINE
8
BLACK
6
CONTINUOUS
10
0.765729
20
1.82504
11
0.762057
21
1.82431
0
LINE
8
BLACK
6
CONTINUOUS
10
0.762057
20
1.82431
11
0.726132
21
1.82431
0
LINE
8
BLACK
6
CONTINUOUS
10
0.726132
20
1.82431
11
0.722459
21
1.82504
0
LINE
8
BLACK
6
CONTINUOUS
10
0.722459
20
1.82504
11
0.719346
21
1.82712
0
LINE
8
BLACK
6
CONTINUOUS
10
0.719346
20
1.82712
11
0.717266
21
1.83024
0
LINE
8
BLACK
6
CONTINUOUS
10
0.717266
20
1.83024
11
0.716535
21
1.83391
0
LINE
8
BLACK
6
CONTINUOUS
10
0.716535
20
1.83391
11
0.716535
21
1.8531
0
LINE
8
BLACK
6
CONTINUOUS
10
0.716535
20
1.8531
11
0.717266
21
1.85677
0
LINE
8
BLACK
6
CONTINUOUS
10
0.717266
20
1.85677
11
0.719346
21
1.85989
0
LINE
8
BLACK
6
CONTINUOUS
10
0.719346
20
1.85989
11
0.722459
21
1.86197
0
LINE
8
BLACK
6
CONTINUOUS
10
0.722459
20
1.86197
11
0.726132
21
1.8627
0
LINE
8
BLACK
6
CONTINUOUS
10
0.726132
20
1.8627
11
0.762057
21
1.8627
0
LINE
8
BLACK
6
CONTINUOUS
10
0.762057
20
1.8627
11
0.765729
21
1.86197
0
LINE
8
BLACK
6
CONTINUOUS
10
1.01376
20
1.86344
11
1.01687
21
1.86136
0
LINE
8
BLACK
6
CONTINUOUS
10
1.01687
20
1.86136
11
1.01895
21
1.85825
0
LINE
8
BLACK
6
CONTINUOUS
10
1.01895
20
1.85825
11
1.01969
21
1.85458
0
LINE
8
BLACK
6
CONTINUOUS
10
1.01969
20
1.85458
11
1.01969
21
1.83538
0
LINE
8
BLACK
6
CONTINUOUS
10
1.01969
20
1.83538
11
1.01895
21
1.83171
0
LINE
8
BLACK
6
CONTINUOUS
10
1.01895
20
1.83171
11
1.01687
21
1.8286
0
LINE
8
BLACK
6
CONTINUOUS
10
1.01687
20
1.8286
11
1.01376
21
1.82652
0
LINE
8
BLACK
6
CONTINUOUS
10
1.01376
20
1.82652
11
1.01009
21
1.82579
0
LINE
8
BLACK
6
CONTINUOUS
10
1.01009
20
1.82579
11
0.974163
21
1.82579
0
LINE
8
BLACK
6
CONTINUOUS
10
0.974163
20
1.82579
11
0.970491
21
1.82652
0
LINE
8
BLACK
6
CONTINUOUS
10
0.970491
20
1.82652
11
0.967378
21
1.8286
0
LINE
8
BLACK
6
CONTINUOUS
10
0.967378
20
1.8286
11
0.965297
21
1.83171
0
LINE
8
BLACK
6
CONTINUOUS
10
0.965297
20
1.83171
11
0.964567
21
1.83538
0
LINE
8
BLACK
6
CONTINUOUS
10
0.964567
20
1.83538
11
0.964567
21
1.85458
0
LINE
8
BLACK
6
CONTINUOUS
10
0.964567
20
1.85458
11
0.965297
21
1.85825
0
LINE
8
BLACK
6
CONTINUOUS
10
0.965297
20
1.85825
11
0.967378
21
1.86136
0
LINE
8
BLACK
6
CONTINUOUS
10
0.967378
20
1.86136
11
0.970491
21
1.86344
0
LINE
8
BLACK
6
CONTINUOUS
10
0.970491
20
1.86344
11
0.974163
21
1.86417
0
LINE
8
BLACK
6
CONTINUOUS
10
0.974163
20
1.86417
11
1.01009
21
1.86417
0
LINE
8
BLACK
6
CONTINUOUS
10
1.01009
20
1.86417
11
1.01376
21
1.86344
0
LINE
8
BLACK
6
CONTINUOUS
10
0.470454
20
1.87132
11
0.473567
21
1.86924
0
LINE
8
BLACK
6
CONTINUOUS
10
0.473567
20
1.86924
11
0.475647
21
1.86612
0
LINE
8
BLACK
6
CONTINUOUS
10
0.475647
20
1.86612
11
0.476378
21
1.86245
0
LINE
8
BLACK
6
CONTINUOUS
10
0.476378
20
1.86245
11
0.476378
21
1.84326
0
LINE
8
BLACK
6
CONTINUOUS
10
0.476378
20
1.84326
11
0.475647
21
1.83959
0
LINE
8
BLACK
6
CONTINUOUS
10
0.475647
20
1.83959
11
0.473567
21
1.83647
0
LINE
8
BLACK
6
CONTINUOUS
10
0.473567
20
1.83647
11
0.470454
21
1.83439
0
LINE
8
BLACK
6
CONTINUOUS
10
0.470454
20
1.83439
11
0.466781
21
1.83366
0
LINE
8
BLACK
6
CONTINUOUS
10
0.466781
20
1.83366
11
0.430856
21
1.83366
0
LINE
8
BLACK
6
CONTINUOUS
10
0.430856
20
1.83366
11
0.427184
21
1.83439
0
LINE
8
BLACK
6
CONTINUOUS
10
0.427184
20
1.83439
11
0.424071
21
1.83647
0
LINE
8
BLACK
6
CONTINUOUS
10
0.424071
20
1.83647
11
0.42199
21
1.83959
0
LINE
8
BLACK
6
CONTINUOUS
10
0.42199
20
1.83959
11
0.42126
21
1.84326
0
LINE
8
BLACK
6
CONTINUOUS
10
0.42126
20
1.84326
11
0.42126
21
1.86245
0
LINE
8
BLACK
6
CONTINUOUS
10
0.42126
20
1.86245
11
0.42199
21
1.86612
0
LINE
8
BLACK
6
CONTINUOUS
10
0.42199
20
1.86612
11
0.424071
21
1.86924
0
LINE
8
BLACK
6
CONTINUOUS
10
0.424071
20
1.86924
11
0.427184
21
1.87132
0
LINE
8
BLACK
6
CONTINUOUS
10
0.427184
20
1.87132
11
0.430856
21
1.87205
0
LINE
8
BLACK
6
CONTINUOUS
10
0.430856
20
1.87205
11
0.466781
21
1.87205
0
LINE
8
BLACK
6
CONTINUOUS
10
0.466781
20
1.87205
11
0.470454
21
1.87132
0
LINE
8
BLACK
6
CONTINUOUS
10
0.324785
20
1.87378
11
0.327898
21
1.8717
0
LINE
8
BLACK
6
CONTINUOUS
10
0.327898
20
1.8717
11
0.329978
21
1.86858
0
LINE
8
BLACK
6
CONTINUOUS
10
0.329978
20
1.86858
11
0.330709
21
1.86491
0
LINE
8
BLACK
6
CONTINUOUS
10
0.330709
20
1.86491
11
0.330709
21
1.84572
0
LINE
8
BLACK
6
CONTINUOUS
10
0.330709
20
1.84572
11
0.329978
21
1.84205
0
LINE
8
BLACK
6
CONTINUOUS
10
0.329978
20
1.84205
11
0.327898
21
1.83893
0
LINE
8
BLACK
6
CONTINUOUS
10
0.327898
20
1.83893
11
0.324785
21
1.83685
0
LINE
8
BLACK
6
CONTINUOUS
10
0.324785
20
1.83685
11
0.321112
21
1.83612
0
LINE
8
BLACK
6
CONTINUOUS
10
0.321112
20
1.83612
11
0.285187
21
1.83612
0
LINE
8
BLACK
6
CONTINUOUS
10
0.285187
20
1.83612
11
0.281515
21
1.83685
0
LINE
8
BLACK
6
CONTINUOUS
10
0.281515
20
1.83685
11
0.278401
21
1.83893
0
LINE
8
BLACK
6
CONTINUOUS
10
0.278401
20
1.83893
11
0.276321
21
1.84205
0
LINE
8
BLACK
6
CONTINUOUS
10
0.276321
20
1.84205
11
0.275591
21
1.84572
0
LINE
8
BLACK
6
CONTINUOUS
10
0.275591
20
1.84572
11
0.275591
21
1.86491
0
LINE
8
BLACK
6
CONTINUOUS
10
0.275591
20
1.86491
11
0.276321
21
1.86858
0
LINE
8
BLACK
6
CONTINUOUS
10
0.276321
20
1.86858
11
0.278401
21
1.8717
0
LINE
8
BLACK
6
CONTINUOUS
10
0.278401
20
1.8717
11
0.281515
21
1.87378
0
LINE
8
BLACK
6
CONTINUOUS
10
0.281515
20
1.87378
11
0.285187
21
1.87451
0
LINE
8
BLACK
6
CONTINUOUS
10
0.285187
20
1.87451
11
0.321112
21
1.87451
0
LINE
8
BLACK
6
CONTINUOUS
10
0.321112
20
1.87451
11
0.324785
21
1.87378
0
LINE
8
BLACK
6
CONTINUOUS
10
1.17124
20
1.93185
11
1.17435
21
1.92977
0
LINE
8
BLACK
6
CONTINUOUS
10
1.17435
20
1.92977
11
1.17643
21
1.92665
0
LINE
8
BLACK
6
CONTINUOUS
10
1.17643
20
1.92665
11
1.17717
21
1.92298
0
LINE
8
BLACK
6
CONTINUOUS
10
1.17717
20
1.92298
11
1.17717
21
1.90379
0
LINE
8
BLACK
6
CONTINUOUS
10
1.17717
20
1.90379
11
1.17643
21
1.90012
0
LINE
8
BLACK
6
CONTINUOUS
10
1.17643
20
1.90012
11
1.17435
21
1.897
0
LINE
8
BLACK
6
CONTINUOUS
10
1.17435
20
1.897
11
1.17124
21
1.89492
0
LINE
8
BLACK
6
CONTINUOUS
10
1.17124
20
1.89492
11
1.16757
21
1.89419
0
LINE
8
BLACK
6
CONTINUOUS
10
1.16757
20
1.89419
11
1.13164
21
1.89419
0
LINE
8
BLACK
6
CONTINUOUS
10
1.13164
20
1.89419
11
1.12797
21
1.89492
0
LINE
8
BLACK
6
CONTINUOUS
10
1.12797
20
1.89492
11
1.12486
21
1.897
0
LINE
8
BLACK
6
CONTINUOUS
10
1.12486
20
1.897
11
1.12278
21
1.90012
0
LINE
8
BLACK
6
CONTINUOUS
10
1.12278
20
1.90012
11
1.12205
21
1.90379
0
LINE
8
BLACK
6
CONTINUOUS
10
1.12205
20
1.90379
11
1.12205
21
1.92298
0
LINE
8
BLACK
6
CONTINUOUS
10
1.12205
20
1.92298
11
1.12278
21
1.92665
0
LINE
8
BLACK
6
CONTINUOUS
10
1.12278
20
1.92665
11
1.12486
21
1.92977
0
LINE
8
BLACK
6
CONTINUOUS
10
1.12486
20
1.92977
11
1.12797
21
1.93185
0
LINE
8
BLACK
6
CONTINUOUS
10
1.12797
20
1.93185
11
1.13164
21
1.93258
0
LINE
8
BLACK
6
CONTINUOUS
10
1.13164
20
1.93258
11
1.16757
21
1.93258
0
LINE
8
BLACK
6
CONTINUOUS
10
1.16757
20
1.93258
11
1.17124
21
1.93185
0
LINE
8
BLACK
6
CONTINUOUS
10
0.765729
20
1.93579
11
0.768843
21
1.93371
0
LINE
8
BLACK
6
CONTINUOUS
10
0.768843
20
1.93371
11
0.770923
21
1.93059
0
LINE
8
BLACK
6
CONTINUOUS
10
0.770923
20
1.93059
11
0.771654
21
1.92692
0
LINE
8
BLACK
6
CONTINUOUS
10
0.771654
20
1.92692
11
0.771654
21
1.90773
0
LINE
8
BLACK
6
CONTINUOUS
10
0.771654
20
1.90773
11
0.770923
21
1.90405
0
LINE
8
BLACK
6
CONTINUOUS
10
0.770923
20
1.90405
11
0.768843
21
1.90094
0
LINE
8
BLACK
6
CONTINUOUS
10
0.768843
20
1.90094
11
0.765729
21
1.89886
0
LINE
8
BLACK
6
CONTINUOUS
10
0.765729
20
1.89886
11
0.762057
21
1.89813
0
LINE
8
BLACK
6
CONTINUOUS
10
0.762057
20
1.89813
11
0.726132
21
1.89813
0
LINE
8
BLACK
6
CONTINUOUS
10
0.726132
20
1.89813
11
0.722459
21
1.89886
0
LINE
8
BLACK
6
CONTINUOUS
10
0.722459
20
1.89886
11
0.719346
21
1.90094
0
LINE
8
BLACK
6
CONTINUOUS
10
0.719346
20
1.90094
11
0.717266
21
1.90405
0
LINE
8
BLACK
6
CONTINUOUS
10
0.717266
20
1.90405
11
0.716535
21
1.90773
0
LINE
8
BLACK
6
CONTINUOUS
10
0.716535
20
1.90773
11
0.716535
21
1.92692
0
LINE
8
BLACK
6
CONTINUOUS
10
0.716535
20
1.92692
11
0.717266
21
1.93059
0
LINE
8
BLACK
6
CONTINUOUS
10
0.717266
20
1.93059
11
0.719346
21
1.93371
0
LINE
8
BLACK
6
CONTINUOUS
10
0.719346
20
1.93371
11
0.722459
21
1.93579
0
LINE
8
BLACK
6
CONTINUOUS
10
0.722459
20
1.93579
11
0.726132
21
1.93652
0
LINE
8
BLACK
6
CONTINUOUS
10
0.726132
20
1.93652
11
0.762057
21
1.93652
0
LINE
8
BLACK
6
CONTINUOUS
10
0.762057
20
1.93652
11
0.765729
21
1.93579
0
LINE
8
BLACK
6
CONTINUOUS
10
0.887777
20
1.93579
11
0.89089
21
1.93371
0
LINE
8
BLACK
6
CONTINUOUS
10
0.89089
20
1.93371
11
0.89297
21
1.93059
0
LINE
8
BLACK
6
CONTINUOUS
10
0.89297
20
1.93059
11
0.893701
21
1.92692
0
LINE
8
BLACK
6
CONTINUOUS
10
0.893701
20
1.92692
11
0.893701
21
1.90773
0
LINE
8
BLACK
6
CONTINUOUS
10
0.893701
20
1.90773
11
0.89297
21
1.90405
0
LINE
8
BLACK
6
CONTINUOUS
10
0.89297
20
1.90405
11
0.89089
21
1.90094
0
LINE
8
BLACK
6
CONTINUOUS
10
0.89089
20
1.90094
11
0.887777
21
1.89886
0
LINE
8
BLACK
6
CONTINUOUS
10
0.887777
20
1.89886
11
0.884104
21
1.89813
0
LINE
8
BLACK
6
CONTINUOUS
10
0.884104
20
1.89813
11
0.848179
21
1.89813
0
LINE
8
BLACK
6
CONTINUOUS
10
0.848179
20
1.89813
11
0.844507
21
1.89886
0
LINE
8
BLACK
6
CONTINUOUS
10
0.844507
20
1.89886
11
0.841393
21
1.90094
0
LINE
8
BLACK
6
CONTINUOUS
10
0.841393
20
1.90094
11
0.839313
21
1.90405
0
LINE
8
BLACK
6
CONTINUOUS
10
0.839313
20
1.90405
11
0.838583
21
1.90773
0
LINE
8
BLACK
6
CONTINUOUS
10
0.838583
20
1.90773
11
0.838583
21
1.92692
0
LINE
8
BLACK
6
CONTINUOUS
10
0.838583
20
1.92692
11
0.839313
21
1.93059
0
LINE
8
BLACK
6
CONTINUOUS
10
0.839313
20
1.93059
11
0.841393
21
1.93371
0
LINE
8
BLACK
6
CONTINUOUS
10
0.841393
20
1.93371
11
0.844507
21
1.93579
0
LINE
8
BLACK
6
CONTINUOUS
10
0.844507
20
1.93579
11
0.848179
21
1.93652
0
LINE
8
BLACK
6
CONTINUOUS
10
0.848179
20
1.93652
11
0.884104
21
1.93652
0
LINE
8
BLACK
6
CONTINUOUS
10
0.884104
20
1.93652
11
0.887777
21
1.93579
0
LINE
8
BLACK
6
CONTINUOUS
10
0.663367
20
1.93579
11
0.666481
21
1.93371
0
LINE
8
BLACK
6
CONTINUOUS
10
0.666481
20
1.93371
11
0.668561
21
1.93059
0
LINE
8
BLACK
6
CONTINUOUS
10
0.668561
20
1.93059
11
0.669291
21
1.92692
0
LINE
8
BLACK
6
CONTINUOUS
10
0.669291
20
1.92692
11
0.669291
21
1.90773
0
LINE
8
BLACK
6
CONTINUOUS
10
0.669291
20
1.90773
11
0.668561
21
1.90405
0
LINE
8
BLACK
6
CONTINUOUS
10
0.668561
20
1.90405
11
0.666481
21
1.90094
0
LINE
8
BLACK
6
CONTINUOUS
10
0.666481
20
1.90094
11
0.663367
21
1.89886
0
LINE
8
BLACK
6
CONTINUOUS
10
0.663367
20
1.89886
11
0.659695
21
1.89813
0
LINE
8
BLACK
6
CONTINUOUS
10
0.659695
20
1.89813
11
0.62377
21
1.89813
0
LINE
8
BLACK
6
CONTINUOUS
10
0.62377
20
1.89813
11
0.620097
21
1.89886
0
LINE
8
BLACK
6
CONTINUOUS
10
0.620097
20
1.89886
11
0.616984
21
1.90094
0
LINE
8
BLACK
6
CONTINUOUS
10
0.616984
20
1.90094
11
0.614904
21
1.90405
0
LINE
8
BLACK
6
CONTINUOUS
10
0.614904
20
1.90405
11
0.614173
21
1.90773
0
LINE
8
BLACK
6
CONTINUOUS
10
0.614173
20
1.90773
11
0.614173
21
1.92692
0
LINE
8
BLACK
6
CONTINUOUS
10
0.614173
20
1.92692
11
0.614904
21
1.93059
0
LINE
8
BLACK
6
CONTINUOUS
10
0.614904
20
1.93059
11
0.616984
21
1.93371
0
LINE
8
BLACK
6
CONTINUOUS
10
0.616984
20
1.93371
11
0.620097
21
1.93579
0
LINE
8
BLACK
6
CONTINUOUS
10
0.620097
20
1.93579
11
0.62377
21
1.93652
0
LINE
8
BLACK
6
CONTINUOUS
10
0.62377
20
1.93652
11
0.659695
21
1.93652
0
LINE
8
BLACK
6
CONTINUOUS
10
0.659695
20
1.93652
11
0.663367
21
1.93579
0
LINE
8
BLACK
6
CONTINUOUS
10
1.01376
20
1.93726
11
1.01687
21
1.93518
0
LINE
8
BLACK
6
CONTINUOUS
10
1.01687
20
1.93518
11
1.01895
21
1.93207
0
LINE
8
BLACK
6
CONTINUOUS
10
1.01895
20
1.93207
11
1.01969
21
1.9284
0
LINE
8
BLACK
6
CONTINUOUS
10
1.01969
20
1.9284
11
1.01969
21
1.9092
0
LINE
8
BLACK
6
CONTINUOUS
10
1.01969
20
1.9092
11
1.01895
21
1.90553
0
LINE
8
BLACK
6
CONTINUOUS
10
1.01895
20
1.90553
11
1.01687
21
1.90242
0
LINE
8
BLACK
6
CONTINUOUS
10
1.01687
20
1.90242
11
1.01376
21
1.90034
0
LINE
8
BLACK
6
CONTINUOUS
10
1.01376
20
1.90034
11
1.01009
21
1.89961
0
LINE
8
BLACK
6
CONTINUOUS
10
1.01009
20
1.89961
11
0.974163
21
1.89961
0
LINE
8
BLACK
6
CONTINUOUS
10
0.974163
20
1.89961
11
0.970491
21
1.90034
0
LINE
8
BLACK
6
CONTINUOUS
10
0.970491
20
1.90034
11
0.967378
21
1.90242
0
LINE
8
BLACK
6
CONTINUOUS
10
0.967378
20
1.90242
11
0.965297
21
1.90553
0
LINE
8
BLACK
6
CONTINUOUS
10
0.965297
20
1.90553
11
0.964567
21
1.9092
0
LINE
8
BLACK
6
CONTINUOUS
10
0.964567
20
1.9092
11
0.964567
21
1.9284
0
LINE
8
BLACK
6
CONTINUOUS
10
0.964567
20
1.9284
11
0.965297
21
1.93207
0
LINE
8
BLACK
6
CONTINUOUS
10
0.965297
20
1.93207
11
0.967378
21
1.93518
0
LINE
8
BLACK
6
CONTINUOUS
10
0.967378
20
1.93518
11
0.970491
21
1.93726
0
LINE
8
BLACK
6
CONTINUOUS
10
0.970491
20
1.93726
11
0.974163
21
1.93799
0
LINE
8
BLACK
6
CONTINUOUS
10
0.974163
20
1.93799
11
1.01009
21
1.93799
0
LINE
8
BLACK
6
CONTINUOUS
10
1.01009
20
1.93799
11
1.01376
21
1.93726
0
LINE
8
BLACK
6
CONTINUOUS
10
0.470454
20
1.94514
11
0.473567
21
1.94306
0
LINE
8
BLACK
6
CONTINUOUS
10
0.473567
20
1.94306
11
0.475647
21
1.93994
0
LINE
8
BLACK
6
CONTINUOUS
10
0.475647
20
1.93994
11
0.476378
21
1.93627
0
LINE
8
BLACK
6
CONTINUOUS
10
0.476378
20
1.93627
11
0.476378
21
1.91708
0
LINE
8
BLACK
6
CONTINUOUS
10
0.476378
20
1.91708
11
0.475647
21
1.9134
0
LINE
8
BLACK
6
CONTINUOUS
10
0.475647
20
1.9134
11
0.473567
21
1.91029
0
LINE
8
BLACK
6
CONTINUOUS
10
0.473567
20
1.91029
11
0.470454
21
1.90821
0
LINE
8
BLACK
6
CONTINUOUS
10
0.470454
20
1.90821
11
0.466781
21
1.90748
0
LINE
8
BLACK
6
CONTINUOUS
10
0.466781
20
1.90748
11
0.430856
21
1.90748
0
LINE
8
BLACK
6
CONTINUOUS
10
0.430856
20
1.90748
11
0.427184
21
1.90821
0
LINE
8
BLACK
6
CONTINUOUS
10
0.427184
20
1.90821
11
0.424071
21
1.91029
0
LINE
8
BLACK
6
CONTINUOUS
10
0.424071
20
1.91029
11
0.42199
21
1.9134
0
LINE
8
BLACK
6
CONTINUOUS
10
0.42199
20
1.9134
11
0.42126
21
1.91708
0
LINE
8
BLACK
6
CONTINUOUS
10
0.42126
20
1.91708
11
0.42126
21
1.93627
0
LINE
8
BLACK
6
CONTINUOUS
10
0.42126
20
1.93627
11
0.42199
21
1.93994
0
LINE
8
BLACK
6
CONTINUOUS
10
0.42199
20
1.93994
11
0.424071
21
1.94306
0
LINE
8
BLACK
6
CONTINUOUS
10
0.424071
20
1.94306
11
0.427184
21
1.94514
0
LINE
8
BLACK
6
CONTINUOUS
10
0.427184
20
1.94514
11
0.430856
21
1.94587
0
LINE
8
BLACK
6
CONTINUOUS
10
0.430856
20
1.94587
11
0.466781
21
1.94587
0
LINE
8
BLACK
6
CONTINUOUS
10
0.466781
20
1.94587
11
0.470454
21
1.94514
0
LINE
8
BLACK
6
CONTINUOUS
10
0.324785
20
1.9476
11
0.327898
21
1.94552
0
LINE
8
BLACK
6
CONTINUOUS
10
0.327898
20
1.94552
11
0.329978
21
1.9424
0
LINE
8
BLACK
6
CONTINUOUS
10
0.329978
20
1.9424
11
0.330709
21
1.93873
0
LINE
8
BLACK
6
CONTINUOUS
10
0.330709
20
1.93873
11
0.330709
21
1.91954
0
LINE
8
BLACK
6
CONTINUOUS
10
0.330709
20
1.91954
11
0.329978
21
1.91586
0
LINE
8
BLACK
6
CONTINUOUS
10
0.329978
20
1.91586
11
0.327898
21
1.91275
0
LINE
8
BLACK
6
CONTINUOUS
10
0.327898
20
1.91275
11
0.324785
21
1.91067
0
LINE
8
BLACK
6
CONTINUOUS
10
0.324785
20
1.91067
11
0.321112
21
1.90994
0
LINE
8
BLACK
6
CONTINUOUS
10
0.321112
20
1.90994
11
0.285187
21
1.90994
0
LINE
8
BLACK
6
CONTINUOUS
10
0.285187
20
1.90994
11
0.281515
21
1.91067
0
LINE
8
BLACK
6
CONTINUOUS
10
0.281515
20
1.91067
11
0.278401
21
1.91275
0
LINE
8
BLACK
6
CONTINUOUS
10
0.278401
20
1.91275
11
0.276321
21
1.91586
0
LINE
8
BLACK
6
CONTINUOUS
10
0.276321
20
1.91586
11
0.275591
21
1.91954
0
LINE
8
BLACK
6
CONTINUOUS
10
0.275591
20
1.91954
11
0.275591
21
1.93873
0
LINE
8
BLACK
6
CONTINUOUS
10
0.275591
20
1.93873
11
0.276321
21
1.9424
0
LINE
8
BLACK
6
CONTINUOUS
10
0.276321
20
1.9424
11
0.278401
21
1.94552
0
LINE
8
BLACK
6
CONTINUOUS
10
0.278401
20
1.94552
11
0.281515
21
1.9476
0
LINE
8
BLACK
6
CONTINUOUS
10
0.281515
20
1.9476
11
0.285187
21
1.94833
0
LINE
8
BLACK
6
CONTINUOUS
10
0.285187
20
1.94833
11
0.321112
21
1.94833
0
LINE
8
BLACK
6
CONTINUOUS
10
0.321112
20
1.94833
11
0.324785
21
1.9476
0
LINE
8
BLACK
6
CONTINUOUS
10
0.980315
20
2.15945
11
0.929134
21
2.15945
0
LINE
8
BLACK
6
CONTINUOUS
10
0.929134
20
2.15945
11
0.929134
21
2.22638
0
LINE
8
BLACK
6
CONTINUOUS
10
0.929134
20
2.22638
11
0.980315
21
2.22638
0
LINE
8
BLACK
6
CONTINUOUS
10
0.980315
20
2.22638
11
0.980315
21
2.15945
0
LINE
8
BLACK
6
CONTINUOUS
10
0.84252
20
2.15945
11
0.791339
21
2.15945
0
LINE
8
BLACK
6
CONTINUOUS
10
0.791339
20
2.15945
11
0.791339
21
2.22638
0
LINE
8
BLACK
6
CONTINUOUS
10
0.791339
20
2.22638
11
0.84252
21
2.22638
0
LINE
8
BLACK
6
CONTINUOUS
10
0.84252
20
2.22638
11
0.84252
21
2.15945
0
LINE
8
BLACK
6
CONTINUOUS
10
1.13581
20
2.20055
11
1.13892
21
2.19847
0
LINE
8
BLACK
6
CONTINUOUS
10
1.13892
20
2.19847
11
1.141
21
2.19536
0
LINE
8
BLACK
6
CONTINUOUS
10
1.141
20
2.19536
11
1.14173
21
2.19168
0
LINE
8
BLACK
6
CONTINUOUS
10
1.14173
20
2.19168
11
1.14173
21
2.17249
0
LINE
8
BLACK
6
CONTINUOUS
10
1.14173
20
2.17249
11
1.141
21
2.16882
0
LINE
8
BLACK
6
CONTINUOUS
10
1.141
20
2.16882
11
1.13892
21
2.1657
0
LINE
8
BLACK
6
CONTINUOUS
10
1.13892
20
2.1657
11
1.13581
21
2.16362
0
LINE
8
BLACK
6
CONTINUOUS
10
1.13581
20
2.16362
11
1.13214
21
2.16289
0
LINE
8
BLACK
6
CONTINUOUS
10
1.13214
20
2.16289
11
1.09621
21
2.16289
0
LINE
8
BLACK
6
CONTINUOUS
10
1.09621
20
2.16289
11
1.09254
21
2.16362
0
LINE
8
BLACK
6
CONTINUOUS
10
1.09254
20
2.16362
11
1.08942
21
2.1657
0
LINE
8
BLACK
6
CONTINUOUS
10
1.08942
20
2.1657
11
1.08734
21
2.16882
0
LINE
8
BLACK
6
CONTINUOUS
10
1.08734
20
2.16882
11
1.08661
21
2.17249
0
LINE
8
BLACK
6
CONTINUOUS
10
1.08661
20
2.17249
11
1.08661
21
2.19168
0
LINE
8
BLACK
6
CONTINUOUS
10
1.08661
20
2.19168
11
1.08734
21
2.19536
0
LINE
8
BLACK
6
CONTINUOUS
10
1.08734
20
2.19536
11
1.08942
21
2.19847
0
LINE
8
BLACK
6
CONTINUOUS
10
1.08942
20
2.19847
11
1.09254
21
2.20055
0
LINE
8
BLACK
6
CONTINUOUS
10
1.09254
20
2.20055
11
1.09621
21
2.20128
0
LINE
8
BLACK
6
CONTINUOUS
10
1.09621
20
2.20128
11
1.13214
21
2.20128
0
LINE
8
BLACK
6
CONTINUOUS
10
1.13214
20
2.20128
11
1.13581
21
2.20055
0
LINE
8
BLACK
6
CONTINUOUS
10
1.21455
20
2.20055
11
1.21766
21
2.19847
0
LINE
8
BLACK
6
CONTINUOUS
10
1.21766
20
2.19847
11
1.21974
21
2.19536
0
LINE
8
BLACK
6
CONTINUOUS
10
1.21974
20
2.19536
11
1.22047
21
2.19168
0
LINE
8
BLACK
6
CONTINUOUS
10
1.22047
20
2.19168
11
1.22047
21
2.17249
0
LINE
8
BLACK
6
CONTINUOUS
10
1.22047
20
2.17249
11
1.21974
21
2.16882
0
LINE
8
BLACK
6
CONTINUOUS
10
1.21974
20
2.16882
11
1.21766
21
2.1657
0
LINE
8
BLACK
6
CONTINUOUS
10
1.21766
20
2.1657
11
1.21455
21
2.16362
0
LINE
8
BLACK
6
CONTINUOUS
10
1.21455
20
2.16362
11
1.21088
21
2.16289
0
LINE
8
BLACK
6
CONTINUOUS
10
1.21088
20
2.16289
11
1.17495
21
2.16289
0
LINE
8
BLACK
6
CONTINUOUS
10
1.17495
20
2.16289
11
1.17128
21
2.16362
0
LINE
8
BLACK
6
CONTINUOUS
10
1.17128
20
2.16362
11
1.16817
21
2.1657
0
LINE
8
BLACK
6
CONTINUOUS
10
1.16817
20
2.1657
11
1.16608
21
2.16882
0
LINE
8
BLACK
6
CONTINUOUS
10
1.16608
20
2.16882
11
1.16535
21
2.17249
0
LINE
8
BLACK
6
CONTINUOUS
10
1.16535
20
2.17249
11
1.16535
21
2.19168
0
LINE
8
BLACK
6
CONTINUOUS
10
1.16535
20
2.19168
11
1.16608
21
2.19536
0
LINE
8
BLACK
6
CONTINUOUS
10
1.16608
20
2.19536
11
1.16817
21
2.19847
0
LINE
8
BLACK
6
CONTINUOUS
10
1.16817
20
2.19847
11
1.17128
21
2.20055
0
LINE
8
BLACK
6
CONTINUOUS
10
1.17128
20
2.20055
11
1.17495
21
2.20128
0
LINE
8
BLACK
6
CONTINUOUS
10
1.17495
20
2.20128
11
1.21088
21
2.20128
0
LINE
8
BLACK
6
CONTINUOUS
10
1.21088
20
2.20128
11
1.21455
21
2.20055
0
LINE
8
BLACK
6
CONTINUOUS
10
1.21455
20
2.27437
11
1.21766
21
2.27229
0
LINE
8
BLACK
6
CONTINUOUS
10
1.21766
20
2.27229
11
1.21974
21
2.26917
0
LINE
8
BLACK
6
CONTINUOUS
10
1.21974
20
2.26917
11
1.22047
21
2.2655
0
LINE
8
BLACK
6
CONTINUOUS
10
1.22047
20
2.2655
11
1.22047
21
2.24631
0
LINE
8
BLACK
6
CONTINUOUS
10
1.22047
20
2.24631
11
1.21974
21
2.24264
0
LINE
8
BLACK
6
CONTINUOUS
10
1.21974
20
2.24264
11
1.21766
21
2.23952
0
LINE
8
BLACK
6
CONTINUOUS
10
1.21766
20
2.23952
11
1.21455
21
2.23744
0
LINE
8
BLACK
6
CONTINUOUS
10
1.21455
20
2.23744
11
1.21088
21
2.23671
0
LINE
8
BLACK
6
CONTINUOUS
10
1.21088
20
2.23671
11
1.17495
21
2.23671
0
LINE
8
BLACK
6
CONTINUOUS
10
1.17495
20
2.23671
11
1.17128
21
2.23744
0
LINE
8
BLACK
6
CONTINUOUS
10
1.17128
20
2.23744
11
1.16817
21
2.23952
0
LINE
8
BLACK
6
CONTINUOUS
10
1.16817
20
2.23952
11
1.16608
21
2.24264
0
LINE
8
BLACK
6
CONTINUOUS
10
1.16608
20
2.24264
11
1.16535
21
2.24631
0
LINE
8
BLACK
6
CONTINUOUS
10
1.16535
20
2.24631
11
1.16535
21
2.2655
0
LINE
8
BLACK
6
CONTINUOUS
10
1.16535
20
2.2655
11
1.16608
21
2.26917
0
LINE
8
BLACK
6
CONTINUOUS
10
1.16608
20
2.26917
11
1.16817
21
2.27229
0
LINE
8
BLACK
6
CONTINUOUS
10
1.16817
20
2.27229
11
1.17128
21
2.27437
0
LINE
8
BLACK
6
CONTINUOUS
10
1.17128
20
2.27437
11
1.17495
21
2.2751
0
LINE
8
BLACK
6
CONTINUOUS
10
1.17495
20
2.2751
11
1.21088
21
2.2751
0
LINE
8
BLACK
6
CONTINUOUS
10
1.21088
20
2.2751
11
1.21455
21
2.27437
0
LINE
8
BLACK
6
CONTINUOUS
10
1.13581
20
2.27437
11
1.13892
21
2.27229
0
LINE
8
BLACK
6
CONTINUOUS
10
1.13892
20
2.27229
11
1.141
21
2.26917
0
LINE
8
BLACK
6
CONTINUOUS
10
1.141
20
2.26917
11
1.14173
21
2.2655
0
LINE
8
BLACK
6
CONTINUOUS
10
1.14173
20
2.2655
11
1.14173
21
2.24631
0
LINE
8
BLACK
6
CONTINUOUS
10
1.14173
20
2.24631
11
1.141
21
2.24264
0
LINE
8
BLACK
6
CONTINUOUS
10
1.141
20
2.24264
11
1.13892
21
2.23952
0
LINE
8
BLACK
6
CONTINUOUS
10
1.13892
20
2.23952
11
1.13581
21
2.23744
0
LINE
8
BLACK
6
CONTINUOUS
10
1.13581
20
2.23744
11
1.13214
21
2.23671
0
LINE
8
BLACK
6
CONTINUOUS
10
1.13214
20
2.23671
11
1.09621
21
2.23671
0
LINE
8
BLACK
6
CONTINUOUS
10
1.09621
20
2.23671
11
1.09254
21
2.23744
0
LINE
8
BLACK
6
CONTINUOUS
10
1.09254
20
2.23744
11
1.08942
21
2.23952
0
LINE
8
BLACK
6
CONTINUOUS
10
1.08942
20
2.23952
11
1.08734
21
2.24264
0
LINE
8
BLACK
6
CONTINUOUS
10
1.08734
20
2.24264
11
1.08661
21
2.24631
0
LINE
8
BLACK
6
CONTINUOUS
10
1.08661
20
2.24631
11
1.08661
21
2.2655
0
LINE
8
BLACK
6
CONTINUOUS
10
1.08661
20
2.2655
11
1.08734
21
2.26917
0
LINE
8
BLACK
6
CONTINUOUS
10
1.08734
20
2.26917
11
1.08942
21
2.27229
0
LINE
8
BLACK
6
CONTINUOUS
10
1.08942
20
2.27229
11
1.09254
21
2.27437
0
LINE
8
BLACK
6
CONTINUOUS
10
1.09254
20
2.27437
11
1.09621
21
2.2751
0
LINE
8
BLACK
6
CONTINUOUS
10
1.09621
20
2.2751
11
1.13214
21
2.2751
0
LINE
8
BLACK
6
CONTINUOUS
10
1.13214
20
2.2751
11
1.13581
21
2.27437
0
LINE
8
BLACK
6
CONTINUOUS
10
0.228328
20
2.41512
11
0.231441
21
2.41304
0
LINE
8
BLACK
6
CONTINUOUS
10
0.231441
20
2.41304
11
0.233521
21
2.40992
0
LINE
8
BLACK
6
CONTINUOUS
10
0.233521
20
2.40992
11
0.234252
21
2.40625
0
LINE
8
BLACK
6
CONTINUOUS
10
0.234252
20
2.40625
11
0.234252
21
2.38706
0
LINE
8
BLACK
6
CONTINUOUS
10
0.234252
20
2.38706
11
0.233521
21
2.38338
0
LINE
8
BLACK
6
CONTINUOUS
10
0.233521
20
2.38338
11
0.231441
21
2.38027
0
LINE
8
BLACK
6
CONTINUOUS
10
0.231441
20
2.38027
11
0.228328
21
2.37819
0
LINE
8
BLACK
6
CONTINUOUS
10
0.228328
20
2.37819
11
0.224656
21
2.37746
0
LINE
8
BLACK
6
CONTINUOUS
10
0.224656
20
2.37746
11
0.18873
21
2.37746
0
LINE
8
BLACK
6
CONTINUOUS
10
0.18873
20
2.37746
11
0.185058
21
2.37819
0
LINE
8
BLACK
6
CONTINUOUS
10
0.185058
20
2.37819
11
0.181945
21
2.38027
0
LINE
8
BLACK
6
CONTINUOUS
10
0.181945
20
2.38027
11
0.179864
21
2.38338
0
LINE
8
BLACK
6
CONTINUOUS
10
0.179864
20
2.38338
11
0.179134
21
2.38706
0
LINE
8
BLACK
6
CONTINUOUS
10
0.179134
20
2.38706
11
0.179134
21
2.40625
0
LINE
8
BLACK
6
CONTINUOUS
10
0.179134
20
2.40625
11
0.179864
21
2.40992
0
LINE
8
BLACK
6
CONTINUOUS
10
0.179864
20
2.40992
11
0.181945
21
2.41304
0
LINE
8
BLACK
6
CONTINUOUS
10
0.181945
20
2.41304
11
0.185058
21
2.41512
0
LINE
8
BLACK
6
CONTINUOUS
10
0.185058
20
2.41512
11
0.18873
21
2.41585
0
LINE
8
BLACK
6
CONTINUOUS
10
0.18873
20
2.41585
11
0.224656
21
2.41585
0
LINE
8
BLACK
6
CONTINUOUS
10
0.224656
20
2.41585
11
0.228328
21
2.41512
0
LINE
8
BLACK
6
CONTINUOUS
10
0.228328
20
2.48893
11
0.231441
21
2.48685
0
LINE
8
BLACK
6
CONTINUOUS
10
0.231441
20
2.48685
11
0.233521
21
2.48374
0
LINE
8
BLACK
6
CONTINUOUS
10
0.233521
20
2.48374
11
0.234252
21
2.48007
0
LINE
8
BLACK
6
CONTINUOUS
10
0.234252
20
2.48007
11
0.234252
21
2.46088
0
LINE
8
BLACK
6
CONTINUOUS
10
0.234252
20
2.46088
11
0.233521
21
2.4572
0
LINE
8
BLACK
6
CONTINUOUS
10
0.233521
20
2.4572
11
0.231441
21
2.45409
0
LINE
8
BLACK
6
CONTINUOUS
10
0.231441
20
2.45409
11
0.228328
21
2.45201
0
LINE
8
BLACK
6
CONTINUOUS
10
0.228328
20
2.45201
11
0.224656
21
2.45128
0
LINE
8
BLACK
6
CONTINUOUS
10
0.224656
20
2.45128
11
0.18873
21
2.45128
0
LINE
8
BLACK
6
CONTINUOUS
10
0.18873
20
2.45128
11
0.185058
21
2.45201
0
LINE
8
BLACK
6
CONTINUOUS
10
0.185058
20
2.45201
11
0.181945
21
2.45409
0
LINE
8
BLACK
6
CONTINUOUS
10
0.181945
20
2.45409
11
0.179864
21
2.4572
0
LINE
8
BLACK
6
CONTINUOUS
10
0.179864
20
2.4572
11
0.179134
21
2.46088
0
LINE
8
BLACK
6
CONTINUOUS
10
0.179134
20
2.46088
11
0.179134
21
2.48007
0
LINE
8
BLACK
6
CONTINUOUS
10
0.179134
20
2.48007
11
0.179864
21
2.48374
0
LINE
8
BLACK
6
CONTINUOUS
10
0.179864
20
2.48374
11
0.181945
21
2.48685
0
LINE
8
BLACK
6
CONTINUOUS
10
0.181945
20
2.48685
11
0.185058
21
2.48893
0
LINE
8
BLACK
6
CONTINUOUS
10
0.185058
20
2.48893
11
0.18873
21
2.48967
0
LINE
8
BLACK
6
CONTINUOUS
10
0.18873
20
2.48967
11
0.224656
21
2.48967
0
LINE
8
BLACK
6
CONTINUOUS
10
0.224656
20
2.48967
11
0.228328
21
2.48893
  0
ENDSEC
  0
EOF
