  0
SECTION
  2
HEADER
  9
$ANGBASE
  50
0.0
  9
$ANGDIR
  70
1
  9
$MEASUREMENT
  70
0
  0
ENDSEC
  0
SECTION
  2
TABLES
  0
TABLE
  2
LTYPE
  70
4
  0
LTYPE
  5
40F
  2
CONTINUOUS
  70
0
  3
Solid line
  72
65
  73
0
  40
0.0
  0
LTYPE
  5
410
  2
DASHDOT
 70
0
  3
Dash Dot ____ _ ____ _
 72
65
 73
4
 40
2.0
 49
1.25
 49
-0.25
 49
0.25
 49
-0.25
  0
LTYPE
  5
411
  2
DASHED
 70
0
  3
Dashed __ __ __ __ __
 72
65
 73
2
 40
0.75
 49
0.5
 49
-0.25
  0
LTYPE
  5
43B
  2
DOTTED
 70
0
  3
Dotted .  .  .  .
 72
65
 73
2
 40
0.2
 49
0.0
 49
-0.2
  0
ENDTAB
  0
TABLE
  2
STYLE
  70
4
  0
STYLE
  2
KICAD
  70
0
  40
0
  41
1
  42
1
  50
0
  71
0
  3
isocp.shx
  0
STYLE
  2
KICADB
  70
0
  40
0
  41
1
  42
1
  50
0
  71
0
  3
isocp.shx
  0
STYLE
  2
KICADI
  70
0
  40
0
  41
1
  42
1
  50
15
  71
0
  3
isocp.shx
  0
STYLE
  2
KICADBI
  70
0
  40
0
  41
1
  42
1
  50
15
  71
0
  3
isocp.shx
  0
ENDTAB
  0
TABLE
  2
LAYER
  70
1
  0
LAYER
  2
BLACK
  70
0
  62
7
  6
CONTINUOUS
  0
ENDTAB
  0
ENDSEC
  0
SECTION
  2
ENTITIES
0
LINE
8
BLACK
6
CONTINUOUS
10
0.0086502
20
0.117793
11
0.0221317
21
0.116018
0
LINE
8
BLACK
6
CONTINUOUS
10
0.0221317
20
0.116018
11
0.0353198
21
0.112706
0
LINE
8
BLACK
6
CONTINUOUS
10
0.0353198
20
0.112706
11
0.0480398
21
0.107899
0
LINE
8
BLACK
6
CONTINUOUS
10
0.0480398
20
0.107899
11
0.060123
21
0.101662
0
LINE
8
BLACK
6
CONTINUOUS
10
0.060123
20
0.101662
11
0.0714093
21
0.0940783
0
LINE
8
BLACK
6
CONTINUOUS
10
0.0714093
20
0.0940783
11
0.0817492
21
0.0852473
0
LINE
8
BLACK
6
CONTINUOUS
10
0.0817492
20
0.0852473
11
0.0910055
21
0.0752863
0
LINE
8
BLACK
6
CONTINUOUS
10
0.0910055
20
0.0752863
11
0.0990556
21
0.0643274
0
LINE
8
BLACK
6
CONTINUOUS
10
0.0990556
20
0.0643274
11
0.105793
21
0.052516
0
LINE
8
BLACK
6
CONTINUOUS
10
0.105793
20
0.052516
11
0.111128
21
0.0400084
0
LINE
8
BLACK
6
CONTINUOUS
10
0.111128
20
0.0400084
11
0.11499
21
0.0269706
0
LINE
8
BLACK
6
CONTINUOUS
10
0.11499
20
0.0269706
11
0.117327
21
0.0135752
0
LINE
8
BLACK
6
CONTINUOUS
10
0.117327
20
0.0135752
11
0.11811
21
0
0
LINE
8
BLACK
6
CONTINUOUS
10
0.11811
20
0
11
0.117877
21
-0.00741622
0
LINE
8
BLACK
6
CONTINUOUS
10
0.117877
20
-0.00741622
11
0.116244
21
-0.0209155
0
LINE
8
BLACK
6
CONTINUOUS
10
0.116244
20
-0.0209155
11
0.113069
21
-0.0341376
0
LINE
8
BLACK
6
CONTINUOUS
10
0.113069
20
-0.0341376
11
0.108396
21
-0.0469072
0
LINE
8
BLACK
6
CONTINUOUS
10
0.108396
20
-0.0469072
11
0.102286
21
-0.0590551
0
LINE
8
BLACK
6
CONTINUOUS
10
0.102286
20
-0.0590551
11
0.0948209
21
-0.0704203
0
LINE
8
BLACK
6
CONTINUOUS
10
0.0948209
20
-0.0704203
11
0.0860987
21
-0.080852
0
LINE
8
BLACK
6
CONTINUOUS
10
0.0860987
20
-0.080852
11
0.0762352
21
-0.0902121
0
LINE
8
BLACK
6
CONTINUOUS
10
0.0762352
20
-0.0902121
11
0.0653612
21
-0.0983765
0
LINE
8
BLACK
6
CONTINUOUS
10
0.0653612
20
-0.0983765
11
0.0536209
21
-0.105237
0
LINE
8
BLACK
6
CONTINUOUS
10
0.0536209
20
-0.105237
11
0.0411699
21
-0.110703
0
LINE
8
BLACK
6
CONTINUOUS
10
0.0411699
20
-0.110703
11
0.0281732
21
-0.114701
0
LINE
8
BLACK
6
CONTINUOUS
10
0.0281732
20
-0.114701
11
0.0148031
21
-0.117179
0
LINE
8
BLACK
6
CONTINUOUS
10
0.0148031
20
-0.117179
11
0.00123681
21
-0.118104
0
LINE
8
BLACK
6
CONTINUOUS
10
0.00123681
20
-0.118104
11
-0.0123459
21
-0.117463
0
LINE
8
BLACK
6
CONTINUOUS
10
-0.0123459
20
-0.117463
11
-0.025765
21
-0.115266
0
LINE
8
BLACK
6
CONTINUOUS
10
-0.025765
20
-0.115266
11
-0.0388425
21
-0.111541
0
LINE
8
BLACK
6
CONTINUOUS
10
-0.0388425
20
-0.111541
11
-0.0514052
21
-0.106337
0
LINE
8
BLACK
6
CONTINUOUS
10
-0.0514052
20
-0.106337
11
-0.0632866
21
-0.0997238
0
LINE
8
BLACK
6
CONTINUOUS
10
-0.0632866
20
-0.0997238
11
-0.0743292
21
-0.0917889
0
LINE
8
BLACK
6
CONTINUOUS
10
-0.0743292
20
-0.0917889
11
-0.0843865
21
-0.0826374
0
LINE
8
BLACK
6
CONTINUOUS
10
-0.0843865
20
-0.0826374
11
-0.0933254
21
-0.0723906
0
LINE
8
BLACK
6
CONTINUOUS
10
-0.0933254
20
-0.0723906
11
-0.101027
21
-0.0611843
0
LINE
8
BLACK
6
CONTINUOUS
10
-0.101027
20
-0.0611843
11
-0.10739
21
-0.049167
0
LINE
8
BLACK
6
CONTINUOUS
10
-0.10739
20
-0.049167
11
-0.11233
21
-0.0364981
0
LINE
8
BLACK
6
CONTINUOUS
10
-0.11233
20
-0.0364981
11
-0.11578
21
-0.0233454
0
LINE
8
BLACK
6
CONTINUOUS
10
-0.11578
20
-0.0233454
11
-0.117696
21
-0.00988323
0
LINE
8
BLACK
6
CONTINUOUS
10
-0.117696
20
-0.00988323
11
-0.118052
21
0.00370992
0
LINE
8
BLACK
6
CONTINUOUS
10
-0.118052
20
0.00370992
11
-0.116843
21
0.0172539
0
LINE
8
BLACK
6
CONTINUOUS
10
-0.116843
20
0.0172539
11
-0.114086
21
0.0305692
0
LINE
8
BLACK
6
CONTINUOUS
10
-0.114086
20
0.0305692
11
-0.109816
21
0.0434793
0
LINE
8
BLACK
6
CONTINUOUS
10
-0.109816
20
0.0434793
11
-0.104091
21
0.0558131
0
LINE
8
BLACK
6
CONTINUOUS
10
-0.104091
20
0.0558131
11
-0.0969861
21
0.0674071
0
LINE
8
BLACK
6
CONTINUOUS
10
-0.0969861
20
0.0674071
11
-0.0885958
21
0.0781077
0
LINE
8
BLACK
6
CONTINUOUS
10
-0.0885958
20
0.0781077
11
-0.0790312
21
0.087773
0
LINE
8
BLACK
6
CONTINUOUS
10
-0.0790312
20
0.087773
11
-0.0684191
21
0.0962749
0
LINE
8
BLACK
6
CONTINUOUS
10
-0.0684191
20
0.0962749
11
-0.0569
21
0.103501
0
LINE
8
BLACK
6
CONTINUOUS
10
-0.0569
20
0.103501
11
-0.0446269
21
0.109355
0
LINE
8
BLACK
6
CONTINUOUS
10
-0.0446269
20
0.109355
11
-0.0317622
21
0.113759
0
LINE
8
BLACK
6
CONTINUOUS
10
-0.0317622
20
0.113759
11
-0.0184765
21
0.116656
0
LINE
8
BLACK
6
CONTINUOUS
10
-0.0184765
20
0.116656
11
-0.00494594
21
0.118007
0
LINE
8
BLACK
6
CONTINUOUS
10
-0.00494594
20
0.118007
11
0.0086502
21
0.117793
0
LINE
8
BLACK
6
CONTINUOUS
10
2.00865
20
0.117793
11
2.02213
21
0.116018
0
LINE
8
BLACK
6
CONTINUOUS
10
2.02213
20
0.116018
11
2.03532
21
0.112706
0
LINE
8
BLACK
6
CONTINUOUS
10
2.03532
20
0.112706
11
2.04804
21
0.107899
0
LINE
8
BLACK
6
CONTINUOUS
10
2.04804
20
0.107899
11
2.06012
21
0.101662
0
LINE
8
BLACK
6
CONTINUOUS
10
2.06012
20
0.101662
11
2.07141
21
0.0940783
0
LINE
8
BLACK
6
CONTINUOUS
10
2.07141
20
0.0940783
11
2.08175
21
0.0852473
0
LINE
8
BLACK
6
CONTINUOUS
10
2.08175
20
0.0852473
11
2.09101
21
0.0752863
0
LINE
8
BLACK
6
CONTINUOUS
10
2.09101
20
0.0752863
11
2.09906
21
0.0643274
0
LINE
8
BLACK
6
CONTINUOUS
10
2.09906
20
0.0643274
11
2.10579
21
0.052516
0
LINE
8
BLACK
6
CONTINUOUS
10
2.10579
20
0.052516
11
2.11113
21
0.0400084
0
LINE
8
BLACK
6
CONTINUOUS
10
2.11113
20
0.0400084
11
2.11499
21
0.0269706
0
LINE
8
BLACK
6
CONTINUOUS
10
2.11499
20
0.0269706
11
2.11733
21
0.0135752
0
LINE
8
BLACK
6
CONTINUOUS
10
2.11733
20
0.0135752
11
2.11811
21
0
0
LINE
8
BLACK
6
CONTINUOUS
10
2.11811
20
0
11
2.11788
21
-0.00741622
0
LINE
8
BLACK
6
CONTINUOUS
10
2.11788
20
-0.00741622
11
2.11624
21
-0.0209155
0
LINE
8
BLACK
6
CONTINUOUS
10
2.11624
20
-0.0209155
11
2.11307
21
-0.0341376
0
LINE
8
BLACK
6
CONTINUOUS
10
2.11307
20
-0.0341376
11
2.1084
21
-0.0469072
0
LINE
8
BLACK
6
CONTINUOUS
10
2.1084
20
-0.0469072
11
2.10229
21
-0.0590551
0
LINE
8
BLACK
6
CONTINUOUS
10
2.10229
20
-0.0590551
11
2.09482
21
-0.0704203
0
LINE
8
BLACK
6
CONTINUOUS
10
2.09482
20
-0.0704203
11
2.0861
21
-0.080852
0
LINE
8
BLACK
6
CONTINUOUS
10
2.0861
20
-0.080852
11
2.07624
21
-0.0902121
0
LINE
8
BLACK
6
CONTINUOUS
10
2.07624
20
-0.0902121
11
2.06536
21
-0.0983765
0
LINE
8
BLACK
6
CONTINUOUS
10
2.06536
20
-0.0983765
11
2.05362
21
-0.105237
0
LINE
8
BLACK
6
CONTINUOUS
10
2.05362
20
-0.105237
11
2.04117
21
-0.110703
0
LINE
8
BLACK
6
CONTINUOUS
10
2.04117
20
-0.110703
11
2.02817
21
-0.114701
0
LINE
8
BLACK
6
CONTINUOUS
10
2.02817
20
-0.114701
11
2.0148
21
-0.117179
0
LINE
8
BLACK
6
CONTINUOUS
10
2.0148
20
-0.117179
11
2.00124
21
-0.118104
0
LINE
8
BLACK
6
CONTINUOUS
10
2.00124
20
-0.118104
11
1.98765
21
-0.117463
0
LINE
8
BLACK
6
CONTINUOUS
10
1.98765
20
-0.117463
11
1.97424
21
-0.115266
0
LINE
8
BLACK
6
CONTINUOUS
10
1.97424
20
-0.115266
11
1.96116
21
-0.111541
0
LINE
8
BLACK
6
CONTINUOUS
10
1.96116
20
-0.111541
11
1.94859
21
-0.106337
0
LINE
8
BLACK
6
CONTINUOUS
10
1.94859
20
-0.106337
11
1.93671
21
-0.0997238
0
LINE
8
BLACK
6
CONTINUOUS
10
1.93671
20
-0.0997238
11
1.92567
21
-0.0917889
0
LINE
8
BLACK
6
CONTINUOUS
10
1.92567
20
-0.0917889
11
1.91561
21
-0.0826374
0
LINE
8
BLACK
6
CONTINUOUS
10
1.91561
20
-0.0826374
11
1.90667
21
-0.0723906
0
LINE
8
BLACK
6
CONTINUOUS
10
1.90667
20
-0.0723906
11
1.89897
21
-0.0611843
0
LINE
8
BLACK
6
CONTINUOUS
10
1.89897
20
-0.0611843
11
1.89261
21
-0.049167
0
LINE
8
BLACK
6
CONTINUOUS
10
1.89261
20
-0.049167
11
1.88767
21
-0.0364981
0
LINE
8
BLACK
6
CONTINUOUS
10
1.88767
20
-0.0364981
11
1.88422
21
-0.0233454
0
LINE
8
BLACK
6
CONTINUOUS
10
1.88422
20
-0.0233454
11
1.8823
21
-0.00988323
0
LINE
8
BLACK
6
CONTINUOUS
10
1.8823
20
-0.00988323
11
1.88195
21
0.00370992
0
LINE
8
BLACK
6
CONTINUOUS
10
1.88195
20
0.00370992
11
1.88316
21
0.0172539
0
LINE
8
BLACK
6
CONTINUOUS
10
1.88316
20
0.0172539
11
1.88591
21
0.0305692
0
LINE
8
BLACK
6
CONTINUOUS
10
1.88591
20
0.0305692
11
1.89018
21
0.0434793
0
LINE
8
BLACK
6
CONTINUOUS
10
1.89018
20
0.0434793
11
1.89591
21
0.0558131
0
LINE
8
BLACK
6
CONTINUOUS
10
1.89591
20
0.0558131
11
1.90301
21
0.0674071
0
LINE
8
BLACK
6
CONTINUOUS
10
1.90301
20
0.0674071
11
1.9114
21
0.0781077
0
LINE
8
BLACK
6
CONTINUOUS
10
1.9114
20
0.0781077
11
1.92097
21
0.087773
0
LINE
8
BLACK
6
CONTINUOUS
10
1.92097
20
0.087773
11
1.93158
21
0.0962749
0
LINE
8
BLACK
6
CONTINUOUS
10
1.93158
20
0.0962749
11
1.9431
21
0.103501
0
LINE
8
BLACK
6
CONTINUOUS
10
1.9431
20
0.103501
11
1.95537
21
0.109355
0
LINE
8
BLACK
6
CONTINUOUS
10
1.95537
20
0.109355
11
1.96824
21
0.113759
0
LINE
8
BLACK
6
CONTINUOUS
10
1.96824
20
0.113759
11
1.98152
21
0.116656
0
LINE
8
BLACK
6
CONTINUOUS
10
1.98152
20
0.116656
11
1.99505
21
0.118007
0
LINE
8
BLACK
6
CONTINUOUS
10
1.99505
20
0.118007
11
2.00865
21
0.117793
0
LINE
8
BLACK
6
CONTINUOUS
10
1.77606
20
0.304646
11
1.71606
21
0.304646
0
LINE
8
BLACK
6
CONTINUOUS
10
1.71606
20
0.304646
11
1.71606
21
0.364646
0
LINE
8
BLACK
6
CONTINUOUS
10
1.71606
20
0.364646
11
1.77606
21
0.364646
0
LINE
8
BLACK
6
CONTINUOUS
10
1.77606
20
0.364646
11
1.77606
21
0.304646
0
LINE
8
BLACK
6
CONTINUOUS
10
1.97606
20
0.304646
11
1.91606
21
0.304646
0
LINE
8
BLACK
6
CONTINUOUS
10
1.91606
20
0.304646
11
1.91606
21
0.364646
0
LINE
8
BLACK
6
CONTINUOUS
10
1.91606
20
0.364646
11
1.97606
21
0.364646
0
LINE
8
BLACK
6
CONTINUOUS
10
1.97606
20
0.364646
11
1.97606
21
0.304646
0
LINE
8
BLACK
6
CONTINUOUS
10
1.87606
20
0.304646
11
1.81606
21
0.304646
0
LINE
8
BLACK
6
CONTINUOUS
10
1.81606
20
0.304646
11
1.81606
21
0.364646
0
LINE
8
BLACK
6
CONTINUOUS
10
1.81606
20
0.364646
11
1.87606
21
0.364646
0
LINE
8
BLACK
6
CONTINUOUS
10
1.87606
20
0.364646
11
1.87606
21
0.304646
0
LINE
8
BLACK
6
CONTINUOUS
10
0.276063
20
0.304646
11
0.216063
21
0.304646
0
LINE
8
BLACK
6
CONTINUOUS
10
0.216063
20
0.304646
11
0.216063
21
0.364646
0
LINE
8
BLACK
6
CONTINUOUS
10
0.216063
20
0.364646
11
0.276063
21
0.364646
0
LINE
8
BLACK
6
CONTINUOUS
10
0.276063
20
0.364646
11
0.276063
21
0.304646
0
LINE
8
BLACK
6
CONTINUOUS
10
0.176063
20
0.304646
11
0.116063
21
0.304646
0
LINE
8
BLACK
6
CONTINUOUS
10
0.116063
20
0.304646
11
0.116063
21
0.364646
0
LINE
8
BLACK
6
CONTINUOUS
10
0.116063
20
0.364646
11
0.176063
21
0.364646
0
LINE
8
BLACK
6
CONTINUOUS
10
0.176063
20
0.364646
11
0.176063
21
0.304646
0
LINE
8
BLACK
6
CONTINUOUS
10
0.076063
20
0.304646
11
0.016063
21
0.304646
0
LINE
8
BLACK
6
CONTINUOUS
10
0.016063
20
0.304646
11
0.016063
21
0.364646
0
LINE
8
BLACK
6
CONTINUOUS
10
0.016063
20
0.364646
11
0.076063
21
0.364646
0
LINE
8
BLACK
6
CONTINUOUS
10
0.076063
20
0.364646
11
0.076063
21
0.304646
0
LINE
8
BLACK
6
CONTINUOUS
10
0.775669
20
1.98969
11
0.715669
21
1.98969
0
LINE
8
BLACK
6
CONTINUOUS
10
0.715669
20
1.98969
11
0.715669
21
2.04969
0
LINE
8
BLACK
6
CONTINUOUS
10
0.715669
20
2.04969
11
0.775669
21
2.04969
0
LINE
8
BLACK
6
CONTINUOUS
10
0.775669
20
2.04969
11
0.775669
21
1.98969
0
LINE
8
BLACK
6
CONTINUOUS
10
1.47567
20
1.98969
11
1.41567
21
1.98969
0
LINE
8
BLACK
6
CONTINUOUS
10
1.41567
20
1.98969
11
1.41567
21
2.04969
0
LINE
8
BLACK
6
CONTINUOUS
10
1.41567
20
2.04969
11
1.47567
21
2.04969
0
LINE
8
BLACK
6
CONTINUOUS
10
1.47567
20
2.04969
11
1.47567
21
1.98969
0
LINE
8
BLACK
6
CONTINUOUS
10
1.57567
20
1.98969
11
1.51567
21
1.98969
0
LINE
8
BLACK
6
CONTINUOUS
10
1.51567
20
1.98969
11
1.51567
21
2.04969
0
LINE
8
BLACK
6
CONTINUOUS
10
1.51567
20
2.04969
11
1.57567
21
2.04969
0
LINE
8
BLACK
6
CONTINUOUS
10
1.57567
20
2.04969
11
1.57567
21
1.98969
0
LINE
8
BLACK
6
CONTINUOUS
10
1.67567
20
1.98969
11
1.61567
21
1.98969
0
LINE
8
BLACK
6
CONTINUOUS
10
1.61567
20
1.98969
11
1.61567
21
2.04969
0
LINE
8
BLACK
6
CONTINUOUS
10
1.61567
20
2.04969
11
1.67567
21
2.04969
0
LINE
8
BLACK
6
CONTINUOUS
10
1.67567
20
2.04969
11
1.67567
21
1.98969
0
LINE
8
BLACK
6
CONTINUOUS
10
1.77567
20
1.98969
11
1.71567
21
1.98969
0
LINE
8
BLACK
6
CONTINUOUS
10
1.71567
20
1.98969
11
1.71567
21
2.04969
0
LINE
8
BLACK
6
CONTINUOUS
10
1.71567
20
2.04969
11
1.77567
21
2.04969
0
LINE
8
BLACK
6
CONTINUOUS
10
1.77567
20
2.04969
11
1.77567
21
1.98969
0
LINE
8
BLACK
6
CONTINUOUS
10
1.87567
20
1.98969
11
1.81567
21
1.98969
0
LINE
8
BLACK
6
CONTINUOUS
10
1.81567
20
1.98969
11
1.81567
21
2.04969
0
LINE
8
BLACK
6
CONTINUOUS
10
1.81567
20
2.04969
11
1.87567
21
2.04969
0
LINE
8
BLACK
6
CONTINUOUS
10
1.87567
20
2.04969
11
1.87567
21
1.98969
0
LINE
8
BLACK
6
CONTINUOUS
10
1.97567
20
1.98969
11
1.91567
21
1.98969
0
LINE
8
BLACK
6
CONTINUOUS
10
1.91567
20
1.98969
11
1.91567
21
2.04969
0
LINE
8
BLACK
6
CONTINUOUS
10
1.91567
20
2.04969
11
1.97567
21
2.04969
0
LINE
8
BLACK
6
CONTINUOUS
10
1.97567
20
2.04969
11
1.97567
21
1.98969
0
LINE
8
BLACK
6
CONTINUOUS
10
1.37567
20
1.98969
11
1.31567
21
1.98969
0
LINE
8
BLACK
6
CONTINUOUS
10
1.31567
20
1.98969
11
1.31567
21
2.04969
0
LINE
8
BLACK
6
CONTINUOUS
10
1.31567
20
2.04969
11
1.37567
21
2.04969
0
LINE
8
BLACK
6
CONTINUOUS
10
1.37567
20
2.04969
11
1.37567
21
1.98969
0
LINE
8
BLACK
6
CONTINUOUS
10
1.27567
20
1.98969
11
1.21567
21
1.98969
0
LINE
8
BLACK
6
CONTINUOUS
10
1.21567
20
1.98969
11
1.21567
21
2.04969
0
LINE
8
BLACK
6
CONTINUOUS
10
1.21567
20
2.04969
11
1.27567
21
2.04969
0
LINE
8
BLACK
6
CONTINUOUS
10
1.27567
20
2.04969
11
1.27567
21
1.98969
0
LINE
8
BLACK
6
CONTINUOUS
10
1.17567
20
1.98969
11
1.11567
21
1.98969
0
LINE
8
BLACK
6
CONTINUOUS
10
1.11567
20
1.98969
11
1.11567
21
2.04969
0
LINE
8
BLACK
6
CONTINUOUS
10
1.11567
20
2.04969
11
1.17567
21
2.04969
0
LINE
8
BLACK
6
CONTINUOUS
10
1.17567
20
2.04969
11
1.17567
21
1.98969
0
LINE
8
BLACK
6
CONTINUOUS
10
1.07567
20
1.98969
11
1.01567
21
1.98969
0
LINE
8
BLACK
6
CONTINUOUS
10
1.01567
20
1.98969
11
1.01567
21
2.04969
0
LINE
8
BLACK
6
CONTINUOUS
10
1.01567
20
2.04969
11
1.07567
21
2.04969
0
LINE
8
BLACK
6
CONTINUOUS
10
1.07567
20
2.04969
11
1.07567
21
1.98969
0
LINE
8
BLACK
6
CONTINUOUS
10
0.975669
20
1.98969
11
0.915669
21
1.98969
0
LINE
8
BLACK
6
CONTINUOUS
10
0.915669
20
1.98969
11
0.915669
21
2.04969
0
LINE
8
BLACK
6
CONTINUOUS
10
0.915669
20
2.04969
11
0.975669
21
2.04969
0
LINE
8
BLACK
6
CONTINUOUS
10
0.975669
20
2.04969
11
0.975669
21
1.98969
0
LINE
8
BLACK
6
CONTINUOUS
10
0.875669
20
1.98969
11
0.815669
21
1.98969
0
LINE
8
BLACK
6
CONTINUOUS
10
0.815669
20
1.98969
11
0.815669
21
2.04969
0
LINE
8
BLACK
6
CONTINUOUS
10
0.815669
20
2.04969
11
0.875669
21
2.04969
0
LINE
8
BLACK
6
CONTINUOUS
10
0.875669
20
2.04969
11
0.875669
21
1.98969
0
LINE
8
BLACK
6
CONTINUOUS
10
0.675669
20
1.98969
11
0.615669
21
1.98969
0
LINE
8
BLACK
6
CONTINUOUS
10
0.615669
20
1.98969
11
0.615669
21
2.04969
0
LINE
8
BLACK
6
CONTINUOUS
10
0.615669
20
2.04969
11
0.675669
21
2.04969
0
LINE
8
BLACK
6
CONTINUOUS
10
0.675669
20
2.04969
11
0.675669
21
1.98969
0
LINE
8
BLACK
6
CONTINUOUS
10
0.575669
20
1.98969
11
0.515669
21
1.98969
0
LINE
8
BLACK
6
CONTINUOUS
10
0.515669
20
1.98969
11
0.515669
21
2.04969
0
LINE
8
BLACK
6
CONTINUOUS
10
0.515669
20
2.04969
11
0.575669
21
2.04969
0
LINE
8
BLACK
6
CONTINUOUS
10
0.575669
20
2.04969
11
0.575669
21
1.98969
0
LINE
8
BLACK
6
CONTINUOUS
10
0.475669
20
1.98969
11
0.415669
21
1.98969
0
LINE
8
BLACK
6
CONTINUOUS
10
0.415669
20
1.98969
11
0.415669
21
2.04969
0
LINE
8
BLACK
6
CONTINUOUS
10
0.415669
20
2.04969
11
0.475669
21
2.04969
0
LINE
8
BLACK
6
CONTINUOUS
10
0.475669
20
2.04969
11
0.475669
21
1.98969
0
LINE
8
BLACK
6
CONTINUOUS
10
0.375669
20
1.98969
11
0.315669
21
1.98969
0
LINE
8
BLACK
6
CONTINUOUS
10
0.315669
20
1.98969
11
0.315669
21
2.04969
0
LINE
8
BLACK
6
CONTINUOUS
10
0.315669
20
2.04969
11
0.375669
21
2.04969
0
LINE
8
BLACK
6
CONTINUOUS
10
0.375669
20
2.04969
11
0.375669
21
1.98969
0
LINE
8
BLACK
6
CONTINUOUS
10
0.275669
20
1.98969
11
0.215669
21
1.98969
0
LINE
8
BLACK
6
CONTINUOUS
10
0.215669
20
1.98969
11
0.215669
21
2.04969
0
LINE
8
BLACK
6
CONTINUOUS
10
0.215669
20
2.04969
11
0.275669
21
2.04969
0
LINE
8
BLACK
6
CONTINUOUS
10
0.275669
20
2.04969
11
0.275669
21
1.98969
0
LINE
8
BLACK
6
CONTINUOUS
10
0.175669
20
1.98969
11
0.115669
21
1.98969
0
LINE
8
BLACK
6
CONTINUOUS
10
0.115669
20
1.98969
11
0.115669
21
2.04969
0
LINE
8
BLACK
6
CONTINUOUS
10
0.115669
20
2.04969
11
0.175669
21
2.04969
0
LINE
8
BLACK
6
CONTINUOUS
10
0.175669
20
2.04969
11
0.175669
21
1.98969
0
LINE
8
BLACK
6
CONTINUOUS
10
0.0756693
20
1.98969
11
0.0156693
21
1.98969
0
LINE
8
BLACK
6
CONTINUOUS
10
0.0156693
20
1.98969
11
0.0156693
21
2.04969
0
LINE
8
BLACK
6
CONTINUOUS
10
0.0156693
20
2.04969
11
0.0756693
21
2.04969
0
LINE
8
BLACK
6
CONTINUOUS
10
0.0756693
20
2.04969
11
0.0756693
21
1.98969
0
LINE
8
BLACK
6
CONTINUOUS
10
1.68906
20
2.13535
11
1.62906
21
2.13535
0
LINE
8
BLACK
6
CONTINUOUS
10
1.62906
20
2.13535
11
1.62906
21
2.19535
0
LINE
8
BLACK
6
CONTINUOUS
10
1.62906
20
2.19535
11
1.68906
21
2.19535
0
LINE
8
BLACK
6
CONTINUOUS
10
1.68906
20
2.19535
11
1.68906
21
2.13535
0
LINE
8
BLACK
6
CONTINUOUS
10
1.58906
20
2.13535
11
1.52906
21
2.13535
0
LINE
8
BLACK
6
CONTINUOUS
10
1.52906
20
2.13535
11
1.52906
21
2.19535
0
LINE
8
BLACK
6
CONTINUOUS
10
1.52906
20
2.19535
11
1.58906
21
2.19535
0
LINE
8
BLACK
6
CONTINUOUS
10
1.58906
20
2.19535
11
1.58906
21
2.13535
0
LINE
8
BLACK
6
CONTINUOUS
10
1.48906
20
2.13535
11
1.42906
21
2.13535
0
LINE
8
BLACK
6
CONTINUOUS
10
1.42906
20
2.13535
11
1.42906
21
2.19535
0
LINE
8
BLACK
6
CONTINUOUS
10
1.42906
20
2.19535
11
1.48906
21
2.19535
0
LINE
8
BLACK
6
CONTINUOUS
10
1.48906
20
2.19535
11
1.48906
21
2.13535
0
LINE
8
BLACK
6
CONTINUOUS
10
0.0086502
20
2.51779
11
0.0221317
21
2.51602
0
LINE
8
BLACK
6
CONTINUOUS
10
0.0221317
20
2.51602
11
0.0353198
21
2.51271
0
LINE
8
BLACK
6
CONTINUOUS
10
0.0353198
20
2.51271
11
0.0480398
21
2.5079
0
LINE
8
BLACK
6
CONTINUOUS
10
0.0480398
20
2.5079
11
0.060123
21
2.50166
0
LINE
8
BLACK
6
CONTINUOUS
10
0.060123
20
2.50166
11
0.0714093
21
2.49408
0
LINE
8
BLACK
6
CONTINUOUS
10
0.0714093
20
2.49408
11
0.0817492
21
2.48525
0
LINE
8
BLACK
6
CONTINUOUS
10
0.0817492
20
2.48525
11
0.0910055
21
2.47529
0
LINE
8
BLACK
6
CONTINUOUS
10
0.0910055
20
2.47529
11
0.0990556
21
2.46433
0
LINE
8
BLACK
6
CONTINUOUS
10
0.0990556
20
2.46433
11
0.105793
21
2.45252
0
LINE
8
BLACK
6
CONTINUOUS
10
0.105793
20
2.45252
11
0.111128
21
2.44001
0
LINE
8
BLACK
6
CONTINUOUS
10
0.111128
20
2.44001
11
0.11499
21
2.42697
0
LINE
8
BLACK
6
CONTINUOUS
10
0.11499
20
2.42697
11
0.117327
21
2.41358
0
LINE
8
BLACK
6
CONTINUOUS
10
0.117327
20
2.41358
11
0.11811
21
2.4
0
LINE
8
BLACK
6
CONTINUOUS
10
0.11811
20
2.4
11
0.117877
21
2.39258
0
LINE
8
BLACK
6
CONTINUOUS
10
0.117877
20
2.39258
11
0.116244
21
2.37908
0
LINE
8
BLACK
6
CONTINUOUS
10
0.116244
20
2.37908
11
0.113069
21
2.36586
0
LINE
8
BLACK
6
CONTINUOUS
10
0.113069
20
2.36586
11
0.108396
21
2.35309
0
LINE
8
BLACK
6
CONTINUOUS
10
0.108396
20
2.35309
11
0.102286
21
2.34094
0
LINE
8
BLACK
6
CONTINUOUS
10
0.102286
20
2.34094
11
0.0948209
21
2.32958
0
LINE
8
BLACK
6
CONTINUOUS
10
0.0948209
20
2.32958
11
0.0860987
21
2.31915
0
LINE
8
BLACK
6
CONTINUOUS
10
0.0860987
20
2.31915
11
0.0762352
21
2.30979
0
LINE
8
BLACK
6
CONTINUOUS
10
0.0762352
20
2.30979
11
0.0653612
21
2.30162
0
LINE
8
BLACK
6
CONTINUOUS
10
0.0653612
20
2.30162
11
0.0536209
21
2.29476
0
LINE
8
BLACK
6
CONTINUOUS
10
0.0536209
20
2.29476
11
0.0411699
21
2.2893
0
LINE
8
BLACK
6
CONTINUOUS
10
0.0411699
20
2.2893
11
0.0281732
21
2.2853
0
LINE
8
BLACK
6
CONTINUOUS
10
0.0281732
20
2.2853
11
0.0148031
21
2.28282
0
LINE
8
BLACK
6
CONTINUOUS
10
0.0148031
20
2.28282
11
0.00123681
21
2.2819
0
LINE
8
BLACK
6
CONTINUOUS
10
0.00123681
20
2.2819
11
-0.0123459
21
2.28254
0
LINE
8
BLACK
6
CONTINUOUS
10
-0.0123459
20
2.28254
11
-0.025765
21
2.28473
0
LINE
8
BLACK
6
CONTINUOUS
10
-0.025765
20
2.28473
11
-0.0388425
21
2.28846
0
LINE
8
BLACK
6
CONTINUOUS
10
-0.0388425
20
2.28846
11
-0.0514052
21
2.29366
0
LINE
8
BLACK
6
CONTINUOUS
10
-0.0514052
20
2.29366
11
-0.0632866
21
2.30028
0
LINE
8
BLACK
6
CONTINUOUS
10
-0.0632866
20
2.30028
11
-0.0743292
21
2.30821
0
LINE
8
BLACK
6
CONTINUOUS
10
-0.0743292
20
2.30821
11
-0.0843865
21
2.31736
0
LINE
8
BLACK
6
CONTINUOUS
10
-0.0843865
20
2.31736
11
-0.0933254
21
2.32761
0
LINE
8
BLACK
6
CONTINUOUS
10
-0.0933254
20
2.32761
11
-0.101027
21
2.33882
0
LINE
8
BLACK
6
CONTINUOUS
10
-0.101027
20
2.33882
11
-0.10739
21
2.35083
0
LINE
8
BLACK
6
CONTINUOUS
10
-0.10739
20
2.35083
11
-0.11233
21
2.3635
0
LINE
8
BLACK
6
CONTINUOUS
10
-0.11233
20
2.3635
11
-0.11578
21
2.37665
0
LINE
8
BLACK
6
CONTINUOUS
10
-0.11578
20
2.37665
11
-0.117696
21
2.39012
0
LINE
8
BLACK
6
CONTINUOUS
10
-0.117696
20
2.39012
11
-0.118052
21
2.40371
0
LINE
8
BLACK
6
CONTINUOUS
10
-0.118052
20
2.40371
11
-0.116843
21
2.41725
0
LINE
8
BLACK
6
CONTINUOUS
10
-0.116843
20
2.41725
11
-0.114086
21
2.43057
0
LINE
8
BLACK
6
CONTINUOUS
10
-0.114086
20
2.43057
11
-0.109816
21
2.44348
0
LINE
8
BLACK
6
CONTINUOUS
10
-0.109816
20
2.44348
11
-0.104091
21
2.45581
0
LINE
8
BLACK
6
CONTINUOUS
10
-0.104091
20
2.45581
11
-0.0969861
21
2.46741
0
LINE
8
BLACK
6
CONTINUOUS
10
-0.0969861
20
2.46741
11
-0.0885958
21
2.47811
0
LINE
8
BLACK
6
CONTINUOUS
10
-0.0885958
20
2.47811
11
-0.0790312
21
2.48777
0
LINE
8
BLACK
6
CONTINUOUS
10
-0.0790312
20
2.48777
11
-0.0684191
21
2.49627
0
LINE
8
BLACK
6
CONTINUOUS
10
-0.0684191
20
2.49627
11
-0.0569
21
2.5035
0
LINE
8
BLACK
6
CONTINUOUS
10
-0.0569
20
2.5035
11
-0.0446269
21
2.50935
0
LINE
8
BLACK
6
CONTINUOUS
10
-0.0446269
20
2.50935
11
-0.0317622
21
2.51376
0
LINE
8
BLACK
6
CONTINUOUS
10
-0.0317622
20
2.51376
11
-0.0184765
21
2.51666
0
LINE
8
BLACK
6
CONTINUOUS
10
-0.0184765
20
2.51666
11
-0.00494594
21
2.51801
0
LINE
8
BLACK
6
CONTINUOUS
10
-0.00494594
20
2.51801
11
0.0086502
21
2.51779
0
LINE
8
BLACK
6
CONTINUOUS
10
2.00865
20
2.51779
11
2.02213
21
2.51602
0
LINE
8
BLACK
6
CONTINUOUS
10
2.02213
20
2.51602
11
2.03532
21
2.51271
0
LINE
8
BLACK
6
CONTINUOUS
10
2.03532
20
2.51271
11
2.04804
21
2.5079
0
LINE
8
BLACK
6
CONTINUOUS
10
2.04804
20
2.5079
11
2.06012
21
2.50166
0
LINE
8
BLACK
6
CONTINUOUS
10
2.06012
20
2.50166
11
2.07141
21
2.49408
0
LINE
8
BLACK
6
CONTINUOUS
10
2.07141
20
2.49408
11
2.08175
21
2.48525
0
LINE
8
BLACK
6
CONTINUOUS
10
2.08175
20
2.48525
11
2.09101
21
2.47529
0
LINE
8
BLACK
6
CONTINUOUS
10
2.09101
20
2.47529
11
2.09906
21
2.46433
0
LINE
8
BLACK
6
CONTINUOUS
10
2.09906
20
2.46433
11
2.10579
21
2.45252
0
LINE
8
BLACK
6
CONTINUOUS
10
2.10579
20
2.45252
11
2.11113
21
2.44001
0
LINE
8
BLACK
6
CONTINUOUS
10
2.11113
20
2.44001
11
2.11499
21
2.42697
0
LINE
8
BLACK
6
CONTINUOUS
10
2.11499
20
2.42697
11
2.11733
21
2.41358
0
LINE
8
BLACK
6
CONTINUOUS
10
2.11733
20
2.41358
11
2.11811
21
2.4
0
LINE
8
BLACK
6
CONTINUOUS
10
2.11811
20
2.4
11
2.11788
21
2.39258
0
LINE
8
BLACK
6
CONTINUOUS
10
2.11788
20
2.39258
11
2.11624
21
2.37908
0
LINE
8
BLACK
6
CONTINUOUS
10
2.11624
20
2.37908
11
2.11307
21
2.36586
0
LINE
8
BLACK
6
CONTINUOUS
10
2.11307
20
2.36586
11
2.1084
21
2.35309
0
LINE
8
BLACK
6
CONTINUOUS
10
2.1084
20
2.35309
11
2.10229
21
2.34094
0
LINE
8
BLACK
6
CONTINUOUS
10
2.10229
20
2.34094
11
2.09482
21
2.32958
0
LINE
8
BLACK
6
CONTINUOUS
10
2.09482
20
2.32958
11
2.0861
21
2.31915
0
LINE
8
BLACK
6
CONTINUOUS
10
2.0861
20
2.31915
11
2.07624
21
2.30979
0
LINE
8
BLACK
6
CONTINUOUS
10
2.07624
20
2.30979
11
2.06536
21
2.30162
0
LINE
8
BLACK
6
CONTINUOUS
10
2.06536
20
2.30162
11
2.05362
21
2.29476
0
LINE
8
BLACK
6
CONTINUOUS
10
2.05362
20
2.29476
11
2.04117
21
2.2893
0
LINE
8
BLACK
6
CONTINUOUS
10
2.04117
20
2.2893
11
2.02817
21
2.2853
0
LINE
8
BLACK
6
CONTINUOUS
10
2.02817
20
2.2853
11
2.0148
21
2.28282
0
LINE
8
BLACK
6
CONTINUOUS
10
2.0148
20
2.28282
11
2.00124
21
2.2819
0
LINE
8
BLACK
6
CONTINUOUS
10
2.00124
20
2.2819
11
1.98765
21
2.28254
0
LINE
8
BLACK
6
CONTINUOUS
10
1.98765
20
2.28254
11
1.97424
21
2.28473
0
LINE
8
BLACK
6
CONTINUOUS
10
1.97424
20
2.28473
11
1.96116
21
2.28846
0
LINE
8
BLACK
6
CONTINUOUS
10
1.96116
20
2.28846
11
1.94859
21
2.29366
0
LINE
8
BLACK
6
CONTINUOUS
10
1.94859
20
2.29366
11
1.93671
21
2.30028
0
LINE
8
BLACK
6
CONTINUOUS
10
1.93671
20
2.30028
11
1.92567
21
2.30821
0
LINE
8
BLACK
6
CONTINUOUS
10
1.92567
20
2.30821
11
1.91561
21
2.31736
0
LINE
8
BLACK
6
CONTINUOUS
10
1.91561
20
2.31736
11
1.90667
21
2.32761
0
LINE
8
BLACK
6
CONTINUOUS
10
1.90667
20
2.32761
11
1.89897
21
2.33882
0
LINE
8
BLACK
6
CONTINUOUS
10
1.89897
20
2.33882
11
1.89261
21
2.35083
0
LINE
8
BLACK
6
CONTINUOUS
10
1.89261
20
2.35083
11
1.88767
21
2.3635
0
LINE
8
BLACK
6
CONTINUOUS
10
1.88767
20
2.3635
11
1.88422
21
2.37665
0
LINE
8
BLACK
6
CONTINUOUS
10
1.88422
20
2.37665
11
1.8823
21
2.39012
0
LINE
8
BLACK
6
CONTINUOUS
10
1.8823
20
2.39012
11
1.88195
21
2.40371
0
LINE
8
BLACK
6
CONTINUOUS
10
1.88195
20
2.40371
11
1.88316
21
2.41725
0
LINE
8
BLACK
6
CONTINUOUS
10
1.88316
20
2.41725
11
1.88591
21
2.43057
0
LINE
8
BLACK
6
CONTINUOUS
10
1.88591
20
2.43057
11
1.89018
21
2.44348
0
LINE
8
BLACK
6
CONTINUOUS
10
1.89018
20
2.44348
11
1.89591
21
2.45581
0
LINE
8
BLACK
6
CONTINUOUS
10
1.89591
20
2.45581
11
1.90301
21
2.46741
0
LINE
8
BLACK
6
CONTINUOUS
10
1.90301
20
2.46741
11
1.9114
21
2.47811
0
LINE
8
BLACK
6
CONTINUOUS
10
1.9114
20
2.47811
11
1.92097
21
2.48777
0
LINE
8
BLACK
6
CONTINUOUS
10
1.92097
20
2.48777
11
1.93158
21
2.49627
0
LINE
8
BLACK
6
CONTINUOUS
10
1.93158
20
2.49627
11
1.9431
21
2.5035
0
LINE
8
BLACK
6
CONTINUOUS
10
1.9431
20
2.5035
11
1.95537
21
2.50935
0
LINE
8
BLACK
6
CONTINUOUS
10
1.95537
20
2.50935
11
1.96824
21
2.51376
0
LINE
8
BLACK
6
CONTINUOUS
10
1.96824
20
2.51376
11
1.98152
21
2.51666
0
LINE
8
BLACK
6
CONTINUOUS
10
1.98152
20
2.51666
11
1.99505
21
2.51801
0
LINE
8
BLACK
6
CONTINUOUS
10
1.99505
20
2.51801
11
2.00865
21
2.51779
0
LINE
8
BLACK
6
CONTINUOUS
10
0.859134
20
2.31764
11
0.799134
21
2.31764
0
LINE
8
BLACK
6
CONTINUOUS
10
0.799134
20
2.31764
11
0.799134
21
2.37764
0
LINE
8
BLACK
6
CONTINUOUS
10
0.799134
20
2.37764
11
0.859134
21
2.37764
0
LINE
8
BLACK
6
CONTINUOUS
10
0.859134
20
2.37764
11
0.859134
21
2.31764
0
LINE
8
BLACK
6
CONTINUOUS
10
1.05913
20
2.31764
11
0.999134
21
2.31764
0
LINE
8
BLACK
6
CONTINUOUS
10
0.999134
20
2.31764
11
0.999134
21
2.37764
0
LINE
8
BLACK
6
CONTINUOUS
10
0.999134
20
2.37764
11
1.05913
21
2.37764
0
LINE
8
BLACK
6
CONTINUOUS
10
1.05913
20
2.37764
11
1.05913
21
2.31764
0
LINE
8
BLACK
6
CONTINUOUS
10
0.959134
20
2.31764
11
0.899134
21
2.31764
0
LINE
8
BLACK
6
CONTINUOUS
10
0.899134
20
2.31764
11
0.899134
21
2.37764
0
LINE
8
BLACK
6
CONTINUOUS
10
0.899134
20
2.37764
11
0.959134
21
2.37764
0
LINE
8
BLACK
6
CONTINUOUS
10
0.959134
20
2.37764
11
0.959134
21
2.31764
0
LINE
8
BLACK
6
CONTINUOUS
10
1.58669
20
2.31764
11
1.52669
21
2.31764
0
LINE
8
BLACK
6
CONTINUOUS
10
1.52669
20
2.31764
11
1.52669
21
2.37764
0
LINE
8
BLACK
6
CONTINUOUS
10
1.52669
20
2.37764
11
1.58669
21
2.37764
0
LINE
8
BLACK
6
CONTINUOUS
10
1.58669
20
2.37764
11
1.58669
21
2.31764
0
LINE
8
BLACK
6
CONTINUOUS
10
1.28669
20
2.31764
11
1.22669
21
2.31764
0
LINE
8
BLACK
6
CONTINUOUS
10
1.22669
20
2.31764
11
1.22669
21
2.37764
0
LINE
8
BLACK
6
CONTINUOUS
10
1.22669
20
2.37764
11
1.28669
21
2.37764
0
LINE
8
BLACK
6
CONTINUOUS
10
1.28669
20
2.37764
11
1.28669
21
2.31764
0
LINE
8
BLACK
6
CONTINUOUS
10
1.38669
20
2.31764
11
1.32669
21
2.31764
0
LINE
8
BLACK
6
CONTINUOUS
10
1.32669
20
2.31764
11
1.32669
21
2.37764
0
LINE
8
BLACK
6
CONTINUOUS
10
1.32669
20
2.37764
11
1.38669
21
2.37764
0
LINE
8
BLACK
6
CONTINUOUS
10
1.38669
20
2.37764
11
1.38669
21
2.31764
0
LINE
8
BLACK
6
CONTINUOUS
10
1.48669
20
2.31764
11
1.42669
21
2.31764
0
LINE
8
BLACK
6
CONTINUOUS
10
1.42669
20
2.31764
11
1.42669
21
2.37764
0
LINE
8
BLACK
6
CONTINUOUS
10
1.42669
20
2.37764
11
1.48669
21
2.37764
0
LINE
8
BLACK
6
CONTINUOUS
10
1.48669
20
2.37764
11
1.48669
21
2.31764
0
LINE
8
BLACK
6
CONTINUOUS
10
1.68669
20
2.31764
11
1.62669
21
2.31764
0
LINE
8
BLACK
6
CONTINUOUS
10
1.62669
20
2.31764
11
1.62669
21
2.37764
0
LINE
8
BLACK
6
CONTINUOUS
10
1.62669
20
2.37764
11
1.68669
21
2.37764
0
LINE
8
BLACK
6
CONTINUOUS
10
1.68669
20
2.37764
11
1.68669
21
2.31764
0
LINE
8
BLACK
6
CONTINUOUS
10
0.332756
20
2.31764
11
0.272756
21
2.31764
0
LINE
8
BLACK
6
CONTINUOUS
10
0.272756
20
2.31764
11
0.272756
21
2.37764
0
LINE
8
BLACK
6
CONTINUOUS
10
0.272756
20
2.37764
11
0.332756
21
2.37764
0
LINE
8
BLACK
6
CONTINUOUS
10
0.332756
20
2.37764
11
0.332756
21
2.31764
0
LINE
8
BLACK
6
CONTINUOUS
10
0.432756
20
2.31764
11
0.372756
21
2.31764
0
LINE
8
BLACK
6
CONTINUOUS
10
0.372756
20
2.31764
11
0.372756
21
2.37764
0
LINE
8
BLACK
6
CONTINUOUS
10
0.372756
20
2.37764
11
0.432756
21
2.37764
0
LINE
8
BLACK
6
CONTINUOUS
10
0.432756
20
2.37764
11
0.432756
21
2.31764
0
LINE
8
BLACK
6
CONTINUOUS
10
0.532756
20
2.31764
11
0.472756
21
2.31764
0
LINE
8
BLACK
6
CONTINUOUS
10
0.472756
20
2.31764
11
0.472756
21
2.37764
0
LINE
8
BLACK
6
CONTINUOUS
10
0.472756
20
2.37764
11
0.532756
21
2.37764
0
LINE
8
BLACK
6
CONTINUOUS
10
0.532756
20
2.37764
11
0.532756
21
2.31764
0
LINE
8
BLACK
6
CONTINUOUS
10
0.632756
20
2.31764
11
0.572756
21
2.31764
0
LINE
8
BLACK
6
CONTINUOUS
10
0.572756
20
2.31764
11
0.572756
21
2.37764
0
LINE
8
BLACK
6
CONTINUOUS
10
0.572756
20
2.37764
11
0.632756
21
2.37764
0
LINE
8
BLACK
6
CONTINUOUS
10
0.632756
20
2.37764
11
0.632756
21
2.31764
0
LINE
8
BLACK
6
CONTINUOUS
10
1.58669
20
2.41764
11
1.52669
21
2.41764
0
LINE
8
BLACK
6
CONTINUOUS
10
1.52669
20
2.41764
11
1.52669
21
2.47764
0
LINE
8
BLACK
6
CONTINUOUS
10
1.52669
20
2.47764
11
1.58669
21
2.47764
0
LINE
8
BLACK
6
CONTINUOUS
10
1.58669
20
2.47764
11
1.58669
21
2.41764
0
LINE
8
BLACK
6
CONTINUOUS
10
0.859134
20
2.41764
11
0.799134
21
2.41764
0
LINE
8
BLACK
6
CONTINUOUS
10
0.799134
20
2.41764
11
0.799134
21
2.47764
0
LINE
8
BLACK
6
CONTINUOUS
10
0.799134
20
2.47764
11
0.859134
21
2.47764
0
LINE
8
BLACK
6
CONTINUOUS
10
0.859134
20
2.47764
11
0.859134
21
2.41764
0
LINE
8
BLACK
6
CONTINUOUS
10
0.959134
20
2.41764
11
0.899134
21
2.41764
0
LINE
8
BLACK
6
CONTINUOUS
10
0.899134
20
2.41764
11
0.899134
21
2.47764
0
LINE
8
BLACK
6
CONTINUOUS
10
0.899134
20
2.47764
11
0.959134
21
2.47764
0
LINE
8
BLACK
6
CONTINUOUS
10
0.959134
20
2.47764
11
0.959134
21
2.41764
0
LINE
8
BLACK
6
CONTINUOUS
10
1.68669
20
2.41764
11
1.62669
21
2.41764
0
LINE
8
BLACK
6
CONTINUOUS
10
1.62669
20
2.41764
11
1.62669
21
2.47764
0
LINE
8
BLACK
6
CONTINUOUS
10
1.62669
20
2.47764
11
1.68669
21
2.47764
0
LINE
8
BLACK
6
CONTINUOUS
10
1.68669
20
2.47764
11
1.68669
21
2.41764
0
LINE
8
BLACK
6
CONTINUOUS
10
1.05913
20
2.41764
11
0.999134
21
2.41764
0
LINE
8
BLACK
6
CONTINUOUS
10
0.999134
20
2.41764
11
0.999134
21
2.47764
0
LINE
8
BLACK
6
CONTINUOUS
10
0.999134
20
2.47764
11
1.05913
21
2.47764
0
LINE
8
BLACK
6
CONTINUOUS
10
1.05913
20
2.47764
11
1.05913
21
2.41764
0
LINE
8
BLACK
6
CONTINUOUS
10
0.632756
20
2.41764
11
0.572756
21
2.41764
0
LINE
8
BLACK
6
CONTINUOUS
10
0.572756
20
2.41764
11
0.572756
21
2.47764
0
LINE
8
BLACK
6
CONTINUOUS
10
0.572756
20
2.47764
11
0.632756
21
2.47764
0
LINE
8
BLACK
6
CONTINUOUS
10
0.632756
20
2.47764
11
0.632756
21
2.41764
0
LINE
8
BLACK
6
CONTINUOUS
10
0.532756
20
2.41764
11
0.472756
21
2.41764
0
LINE
8
BLACK
6
CONTINUOUS
10
0.472756
20
2.41764
11
0.472756
21
2.47764
0
LINE
8
BLACK
6
CONTINUOUS
10
0.472756
20
2.47764
11
0.532756
21
2.47764
0
LINE
8
BLACK
6
CONTINUOUS
10
0.532756
20
2.47764
11
0.532756
21
2.41764
0
LINE
8
BLACK
6
CONTINUOUS
10
0.432756
20
2.41764
11
0.372756
21
2.41764
0
LINE
8
BLACK
6
CONTINUOUS
10
0.372756
20
2.41764
11
0.372756
21
2.47764
0
LINE
8
BLACK
6
CONTINUOUS
10
0.372756
20
2.47764
11
0.432756
21
2.47764
0
LINE
8
BLACK
6
CONTINUOUS
10
0.432756
20
2.47764
11
0.432756
21
2.41764
0
LINE
8
BLACK
6
CONTINUOUS
10
0.332756
20
2.41764
11
0.272756
21
2.41764
0
LINE
8
BLACK
6
CONTINUOUS
10
0.272756
20
2.41764
11
0.272756
21
2.47764
0
LINE
8
BLACK
6
CONTINUOUS
10
0.272756
20
2.47764
11
0.332756
21
2.47764
0
LINE
8
BLACK
6
CONTINUOUS
10
0.332756
20
2.47764
11
0.332756
21
2.41764
0
LINE
8
BLACK
6
CONTINUOUS
10
1.48669
20
2.41764
11
1.42669
21
2.41764
0
LINE
8
BLACK
6
CONTINUOUS
10
1.42669
20
2.41764
11
1.42669
21
2.47764
0
LINE
8
BLACK
6
CONTINUOUS
10
1.42669
20
2.47764
11
1.48669
21
2.47764
0
LINE
8
BLACK
6
CONTINUOUS
10
1.48669
20
2.47764
11
1.48669
21
2.41764
0
LINE
8
BLACK
6
CONTINUOUS
10
1.38669
20
2.41764
11
1.32669
21
2.41764
0
LINE
8
BLACK
6
CONTINUOUS
10
1.32669
20
2.41764
11
1.32669
21
2.47764
0
LINE
8
BLACK
6
CONTINUOUS
10
1.32669
20
2.47764
11
1.38669
21
2.47764
0
LINE
8
BLACK
6
CONTINUOUS
10
1.38669
20
2.47764
11
1.38669
21
2.41764
0
LINE
8
BLACK
6
CONTINUOUS
10
1.28669
20
2.41764
11
1.22669
21
2.41764
0
LINE
8
BLACK
6
CONTINUOUS
10
1.22669
20
2.41764
11
1.22669
21
2.47764
0
LINE
8
BLACK
6
CONTINUOUS
10
1.22669
20
2.47764
11
1.28669
21
2.47764
0
LINE
8
BLACK
6
CONTINUOUS
10
1.28669
20
2.47764
11
1.28669
21
2.41764
  0
ENDSEC
  0
EOF
