  0
SECTION
  2
HEADER
  9
$ANGBASE
  50
0.0
  9
$ANGDIR
  70
1
  9
$MEASUREMENT
  70
0
  0
ENDSEC
  0
SECTION
  2
TABLES
  0
TABLE
  2
LTYPE
  70
4
  0
LTYPE
  5
40F
  2
CONTINUOUS
  70
0
  3
Solid line
  72
65
  73
0
  40
0.0
  0
LTYPE
  5
410
  2
DASHDOT
 70
0
  3
Dash Dot ____ _ ____ _
 72
65
 73
4
 40
2.0
 49
1.25
 49
-0.25
 49
0.25
 49
-0.25
  0
LTYPE
  5
411
  2
DASHED
 70
0
  3
Dashed __ __ __ __ __
 72
65
 73
2
 40
0.75
 49
0.5
 49
-0.25
  0
LTYPE
  5
43B
  2
DOTTED
 70
0
  3
Dotted .  .  .  .
 72
65
 73
2
 40
0.2
 49
0.0
 49
-0.2
  0
ENDTAB
  0
TABLE
  2
STYLE
  70
4
  0
STYLE
  2
KICAD
  70
0
  40
0
  41
1
  42
1
  50
0
  71
0
  3
isocp.shx
  0
STYLE
  2
KICADB
  70
0
  40
0
  41
1
  42
1
  50
0
  71
0
  3
isocp.shx
  0
STYLE
  2
KICADI
  70
0
  40
0
  41
1
  42
1
  50
15
  71
0
  3
isocp.shx
  0
STYLE
  2
KICADBI
  70
0
  40
0
  41
1
  42
1
  50
15
  71
0
  3
isocp.shx
  0
ENDTAB
  0
TABLE
  2
LAYER
  70
1
  0
LAYER
  2
BLACK
  70
0
  62
7
  6
CONTINUOUS
  0
ENDTAB
  0
ENDSEC
  0
SECTION
  2
ENTITIES
0
LINE
8
BLACK
6
CONTINUOUS
10
1.04144
20
1.12376
11
1.04214
21
1.12186
0
LINE
8
BLACK
6
CONTINUOUS
10
1.04214
20
1.12186
11
1.04214
21
1.11999
0
LINE
8
BLACK
6
CONTINUOUS
10
1.04214
20
1.11999
11
1.04196
21
1.11898
0
LINE
8
BLACK
6
CONTINUOUS
10
1.04196
20
1.11898
11
1.04184
21
1.11884
0
LINE
8
BLACK
6
CONTINUOUS
10
1.04184
20
1.11884
11
1.04182
21
1.11866
0
LINE
8
BLACK
6
CONTINUOUS
10
1.04182
20
1.11866
11
1.03995
21
1.11491
0
LINE
8
BLACK
6
CONTINUOUS
10
1.03995
20
1.11491
11
1.03942
21
1.11421
0
LINE
8
BLACK
6
CONTINUOUS
10
1.03942
20
1.11421
11
1.0394
21
1.11415
0
LINE
8
BLACK
6
CONTINUOUS
10
1.0394
20
1.11415
11
1.03752
21
1.11227
0
LINE
8
BLACK
6
CONTINUOUS
10
1.03752
20
1.11227
11
1.03668
21
1.11168
0
LINE
8
BLACK
6
CONTINUOUS
10
1.03668
20
1.11168
11
1.03467
21
1.11151
0
LINE
8
BLACK
6
CONTINUOUS
10
1.03467
20
1.11151
11
1.03301
21
1.11267
0
LINE
8
BLACK
6
CONTINUOUS
10
1.03301
20
1.11267
11
1.03249
21
1.11462
0
LINE
8
BLACK
6
CONTINUOUS
10
1.03249
20
1.11462
11
1.03335
21
1.11645
0
LINE
8
BLACK
6
CONTINUOUS
10
1.03335
20
1.11645
11
1.03488
21
1.11798
0
LINE
8
BLACK
6
CONTINUOUS
10
1.03488
20
1.11798
11
1.03623
21
1.12068
0
LINE
8
BLACK
6
CONTINUOUS
10
1.03623
20
1.12068
11
1.03623
21
1.12186
0
LINE
8
BLACK
6
CONTINUOUS
10
1.03623
20
1.12186
11
1.03641
21
1.12287
0
LINE
8
BLACK
6
CONTINUOUS
10
1.03641
20
1.12287
11
1.03771
21
1.12442
0
LINE
8
BLACK
6
CONTINUOUS
10
1.03771
20
1.12442
11
1.0397
21
1.12477
0
LINE
8
BLACK
6
CONTINUOUS
10
1.0397
20
1.12477
11
1.04144
21
1.12376
0
LINE
8
BLACK
6
CONTINUOUS
10
0.777725
20
1.16213
11
0.777861
21
1.16202
0
LINE
8
BLACK
6
CONTINUOUS
10
0.777861
20
1.16202
11
0.778036
21
1.162
0
LINE
8
BLACK
6
CONTINUOUS
10
0.778036
20
1.162
11
0.781785
21
1.16012
0
LINE
8
BLACK
6
CONTINUOUS
10
0.781785
20
1.16012
11
0.782494
21
1.1596
0
LINE
8
BLACK
6
CONTINUOUS
10
0.782494
20
1.1596
11
0.782553
21
1.15957
0
LINE
8
BLACK
6
CONTINUOUS
10
0.782553
20
1.15957
11
0.784428
21
1.15769
0
LINE
8
BLACK
6
CONTINUOUS
10
0.784428
20
1.15769
11
0.784934
21
1.15697
0
LINE
8
BLACK
6
CONTINUOUS
10
0.784934
20
1.15697
11
0.784981
21
1.15693
0
LINE
8
BLACK
6
CONTINUOUS
10
0.784981
20
1.15693
11
0.786855
21
1.15318
0
LINE
8
BLACK
6
CONTINUOUS
10
0.786855
20
1.15318
11
0.787148
21
1.15219
0
LINE
8
BLACK
6
CONTINUOUS
10
0.787148
20
1.15219
11
0.787107
21
1.15202
0
LINE
8
BLACK
6
CONTINUOUS
10
0.787107
20
1.15202
11
0.787167
21
1.15186
0
LINE
8
BLACK
6
CONTINUOUS
10
0.787167
20
1.15186
11
0.787167
21
1.14811
0
LINE
8
BLACK
6
CONTINUOUS
10
0.787167
20
1.14811
11
0.787014
21
1.14724
0
LINE
8
BLACK
6
CONTINUOUS
10
0.787014
20
1.14724
11
0.787016
21
1.14717
0
LINE
8
BLACK
6
CONTINUOUS
10
0.787016
20
1.14717
11
0.785141
21
1.14155
0
LINE
8
BLACK
6
CONTINUOUS
10
0.785141
20
1.14155
11
0.784653
21
1.14065
0
LINE
8
BLACK
6
CONTINUOUS
10
0.784653
20
1.14065
11
0.784502
21
1.14055
0
LINE
8
BLACK
6
CONTINUOUS
10
0.784502
20
1.14055
11
0.784428
21
1.14039
0
LINE
8
BLACK
6
CONTINUOUS
10
0.784428
20
1.14039
11
0.766971
21
1.12294
0
LINE
8
BLACK
6
CONTINUOUS
10
0.766971
20
1.12294
11
0.784214
21
1.12294
0
LINE
8
BLACK
6
CONTINUOUS
10
0.784214
20
1.12294
11
0.785224
21
1.12276
0
LINE
8
BLACK
6
CONTINUOUS
10
0.785224
20
1.12276
11
0.786772
21
1.12146
0
LINE
8
BLACK
6
CONTINUOUS
10
0.786772
20
1.12146
11
0.787122
21
1.11947
0
LINE
8
BLACK
6
CONTINUOUS
10
0.787122
20
1.11947
11
0.786112
21
1.11772
0
LINE
8
BLACK
6
CONTINUOUS
10
0.786112
20
1.11772
11
0.784214
21
1.11703
0
LINE
8
BLACK
6
CONTINUOUS
10
0.784214
20
1.11703
11
0.759843
21
1.11703
0
LINE
8
BLACK
6
CONTINUOUS
10
0.759843
20
1.11703
11
0.759208
21
1.11714
0
LINE
8
BLACK
6
CONTINUOUS
10
0.759208
20
1.11714
11
0.759078
21
1.11713
0
LINE
8
BLACK
6
CONTINUOUS
10
0.759078
20
1.11713
11
0.759013
21
1.11718
0
LINE
8
BLACK
6
CONTINUOUS
10
0.759013
20
1.11718
11
0.758833
21
1.11721
0
LINE
8
BLACK
6
CONTINUOUS
10
0.758833
20
1.11721
11
0.758152
21
1.11778
0
LINE
8
BLACK
6
CONTINUOUS
10
0.758152
20
1.11778
11
0.757424
21
1.11829
0
LINE
8
BLACK
6
CONTINUOUS
10
0.757424
20
1.11829
11
0.757389
21
1.11842
0
LINE
8
BLACK
6
CONTINUOUS
10
0.757389
20
1.11842
11
0.757285
21
1.11851
0
LINE
8
BLACK
6
CONTINUOUS
10
0.757285
20
1.11851
11
0.757131
21
1.11938
0
LINE
8
BLACK
6
CONTINUOUS
10
0.757131
20
1.11938
11
0.756901
21
1.12024
0
LINE
8
BLACK
6
CONTINUOUS
10
0.756901
20
1.12024
11
0.756958
21
1.12036
0
LINE
8
BLACK
6
CONTINUOUS
10
0.756958
20
1.12036
11
0.756935
21
1.1205
0
LINE
8
BLACK
6
CONTINUOUS
10
0.756935
20
1.1205
11
0.757379
21
1.12127
0
LINE
8
BLACK
6
CONTINUOUS
10
0.757379
20
1.12127
11
0.757755
21
1.12207
0
LINE
8
BLACK
6
CONTINUOUS
10
0.757755
20
1.12207
11
0.779759
21
1.14408
0
LINE
8
BLACK
6
CONTINUOUS
10
0.779759
20
1.14408
11
0.781262
21
1.14859
0
LINE
8
BLACK
6
CONTINUOUS
10
0.781262
20
1.14859
11
0.781262
21
1.15116
0
LINE
8
BLACK
6
CONTINUOUS
10
0.781262
20
1.15116
11
0.779913
21
1.15386
0
LINE
8
BLACK
6
CONTINUOUS
10
0.779913
20
1.15386
11
0.778716
21
1.15505
0
LINE
8
BLACK
6
CONTINUOUS
10
0.778716
20
1.15505
11
0.776018
21
1.1564
0
LINE
8
BLACK
6
CONTINUOUS
10
0.776018
20
1.1564
11
0.768039
21
1.1564
0
LINE
8
BLACK
6
CONTINUOUS
10
0.768039
20
1.1564
11
0.765341
21
1.15505
0
LINE
8
BLACK
6
CONTINUOUS
10
0.765341
20
1.15505
11
0.763805
21
1.15352
0
LINE
8
BLACK
6
CONTINUOUS
10
0.763805
20
1.15352
11
0.762965
21
1.15293
0
LINE
8
BLACK
6
CONTINUOUS
10
0.762965
20
1.15293
11
0.760953
21
1.15275
0
LINE
8
BLACK
6
CONTINUOUS
10
0.760953
20
1.15275
11
0.759299
21
1.15391
0
LINE
8
BLACK
6
CONTINUOUS
10
0.759299
20
1.15391
11
0.758776
21
1.15586
0
LINE
8
BLACK
6
CONTINUOUS
10
0.758776
20
1.15586
11
0.759629
21
1.15769
0
LINE
8
BLACK
6
CONTINUOUS
10
0.759629
20
1.15769
11
0.761504
21
1.15957
0
LINE
8
BLACK
6
CONTINUOUS
10
0.761504
20
1.15957
11
0.762227
21
1.16007
0
LINE
8
BLACK
6
CONTINUOUS
10
0.762227
20
1.16007
11
0.762271
21
1.16012
0
LINE
8
BLACK
6
CONTINUOUS
10
0.762271
20
1.16012
11
0.766021
21
1.162
0
LINE
8
BLACK
6
CONTINUOUS
10
0.766021
20
1.162
11
0.767004
21
1.16229
0
LINE
8
BLACK
6
CONTINUOUS
10
0.767004
20
1.16229
11
0.767176
21
1.16225
0
LINE
8
BLACK
6
CONTINUOUS
10
0.767176
20
1.16225
11
0.767342
21
1.16231
0
LINE
8
BLACK
6
CONTINUOUS
10
0.767342
20
1.16231
11
0.776715
21
1.16231
0
LINE
8
BLACK
6
CONTINUOUS
10
0.776715
20
1.16231
11
0.777725
21
1.16213
0
LINE
8
BLACK
6
CONTINUOUS
10
0.735816
20
1.16223
11
0.735983
21
1.16226
0
LINE
8
BLACK
6
CONTINUOUS
10
0.735983
20
1.16226
11
0.736725
21
1.16183
0
LINE
8
BLACK
6
CONTINUOUS
10
0.736725
20
1.16183
11
0.73751
21
1.16149
0
LINE
8
BLACK
6
CONTINUOUS
10
0.73751
20
1.16149
11
0.737585
21
1.16134
0
LINE
8
BLACK
6
CONTINUOUS
10
0.737585
20
1.16134
11
0.737732
21
1.16125
0
LINE
8
BLACK
6
CONTINUOUS
10
0.737732
20
1.16125
11
0.738025
21
1.16045
0
LINE
8
BLACK
6
CONTINUOUS
10
0.738025
20
1.16045
11
0.738405
21
1.15968
0
LINE
8
BLACK
6
CONTINUOUS
10
0.738405
20
1.15968
11
0.738365
21
1.15951
0
LINE
8
BLACK
6
CONTINUOUS
10
0.738365
20
1.15951
11
0.738423
21
1.15936
0
LINE
8
BLACK
6
CONTINUOUS
10
0.738423
20
1.15936
11
0.738423
21
1.12294
0
LINE
8
BLACK
6
CONTINUOUS
10
0.738423
20
1.12294
11
0.746719
21
1.12294
0
LINE
8
BLACK
6
CONTINUOUS
10
0.746719
20
1.12294
11
0.747729
21
1.12276
0
LINE
8
BLACK
6
CONTINUOUS
10
0.747729
20
1.12276
11
0.749276
21
1.12146
0
LINE
8
BLACK
6
CONTINUOUS
10
0.749276
20
1.12146
11
0.749627
21
1.11947
0
LINE
8
BLACK
6
CONTINUOUS
10
0.749627
20
1.11947
11
0.748617
21
1.11772
0
LINE
8
BLACK
6
CONTINUOUS
10
0.748617
20
1.11772
11
0.746719
21
1.11703
0
LINE
8
BLACK
6
CONTINUOUS
10
0.746719
20
1.11703
11
0.724222
21
1.11703
0
LINE
8
BLACK
6
CONTINUOUS
10
0.724222
20
1.11703
11
0.723212
21
1.11721
0
LINE
8
BLACK
6
CONTINUOUS
10
0.723212
20
1.11721
11
0.721665
21
1.11851
0
LINE
8
BLACK
6
CONTINUOUS
10
0.721665
20
1.11851
11
0.721314
21
1.1205
0
LINE
8
BLACK
6
CONTINUOUS
10
0.721314
20
1.1205
11
0.722324
21
1.12225
0
LINE
8
BLACK
6
CONTINUOUS
10
0.722324
20
1.12225
11
0.724222
21
1.12294
0
LINE
8
BLACK
6
CONTINUOUS
10
0.724222
20
1.12294
11
0.732518
21
1.12294
0
LINE
8
BLACK
6
CONTINUOUS
10
0.732518
20
1.12294
11
0.732518
21
1.15035
0
LINE
8
BLACK
6
CONTINUOUS
10
0.732518
20
1.15035
11
0.730059
21
1.14789
0
LINE
8
BLACK
6
CONTINUOUS
10
0.730059
20
1.14789
11
0.729336
21
1.14739
0
LINE
8
BLACK
6
CONTINUOUS
10
0.729336
20
1.14739
11
0.729292
21
1.14734
0
LINE
8
BLACK
6
CONTINUOUS
10
0.729292
20
1.14734
11
0.725542
21
1.14547
0
LINE
8
BLACK
6
CONTINUOUS
10
0.725542
20
1.14547
11
0.72456
21
1.14517
0
LINE
8
BLACK
6
CONTINUOUS
10
0.72456
20
1.14517
11
0.722595
21
1.14564
0
LINE
8
BLACK
6
CONTINUOUS
10
0.722595
20
1.14564
11
0.721392
21
1.14726
0
LINE
8
BLACK
6
CONTINUOUS
10
0.721392
20
1.14726
11
0.721513
21
1.14928
0
LINE
8
BLACK
6
CONTINUOUS
10
0.721513
20
1.14928
11
0.722901
21
1.15075
0
LINE
8
BLACK
6
CONTINUOUS
10
0.722901
20
1.15075
11
0.726222
21
1.15241
0
LINE
8
BLACK
6
CONTINUOUS
10
0.726222
20
1.15241
11
0.729426
21
1.15561
0
LINE
8
BLACK
6
CONTINUOUS
10
0.729426
20
1.15561
11
0.733014
21
1.16099
0
LINE
8
BLACK
6
CONTINUOUS
10
0.733014
20
1.16099
11
0.733722
21
1.16173
0
LINE
8
BLACK
6
CONTINUOUS
10
0.733722
20
1.16173
11
0.733885
21
1.16178
0
LINE
8
BLACK
6
CONTINUOUS
10
0.733885
20
1.16178
11
0.733994
21
1.16191
0
LINE
8
BLACK
6
CONTINUOUS
10
0.733994
20
1.16191
11
0.734838
21
1.16206
0
LINE
8
BLACK
6
CONTINUOUS
10
0.734838
20
1.16206
11
0.735661
21
1.1623
0
LINE
8
BLACK
6
CONTINUOUS
10
0.735661
20
1.1623
11
0.735816
21
1.16223
0
LINE
8
BLACK
6
CONTINUOUS
10
1.29891
20
1.14901
11
1.29905
21
1.14889
0
LINE
8
BLACK
6
CONTINUOUS
10
1.29905
20
1.14889
11
1.29922
21
1.14887
0
LINE
8
BLACK
6
CONTINUOUS
10
1.29922
20
1.14887
11
1.30297
21
1.147
0
LINE
8
BLACK
6
CONTINUOUS
10
1.30297
20
1.147
11
1.30368
21
1.14647
0
LINE
8
BLACK
6
CONTINUOUS
10
1.30368
20
1.14647
11
1.30374
21
1.14644
0
LINE
8
BLACK
6
CONTINUOUS
10
1.30374
20
1.14644
11
1.30561
21
1.14457
0
LINE
8
BLACK
6
CONTINUOUS
10
1.30561
20
1.14457
11
1.30612
21
1.14385
0
LINE
8
BLACK
6
CONTINUOUS
10
1.30612
20
1.14385
11
1.30617
21
1.1438
0
LINE
8
BLACK
6
CONTINUOUS
10
1.30617
20
1.1438
11
1.30804
21
1.14005
0
LINE
8
BLACK
6
CONTINUOUS
10
1.30804
20
1.14005
11
1.30833
21
1.13907
0
LINE
8
BLACK
6
CONTINUOUS
10
1.30833
20
1.13907
11
1.30829
21
1.1389
0
LINE
8
BLACK
6
CONTINUOUS
10
1.30829
20
1.1389
11
1.30835
21
1.13873
0
LINE
8
BLACK
6
CONTINUOUS
10
1.30835
20
1.13873
11
1.30835
21
1.12748
0
LINE
8
BLACK
6
CONTINUOUS
10
1.30835
20
1.12748
11
1.30817
21
1.12647
0
LINE
8
BLACK
6
CONTINUOUS
10
1.30817
20
1.12647
11
1.30806
21
1.12634
0
LINE
8
BLACK
6
CONTINUOUS
10
1.30806
20
1.12634
11
1.30804
21
1.12616
0
LINE
8
BLACK
6
CONTINUOUS
10
1.30804
20
1.12616
11
1.30617
21
1.12241
0
LINE
8
BLACK
6
CONTINUOUS
10
1.30617
20
1.12241
11
1.30564
21
1.1217
0
LINE
8
BLACK
6
CONTINUOUS
10
1.30564
20
1.1217
11
1.30561
21
1.12165
0
LINE
8
BLACK
6
CONTINUOUS
10
1.30561
20
1.12165
11
1.30374
21
1.11977
0
LINE
8
BLACK
6
CONTINUOUS
10
1.30374
20
1.11977
11
1.30301
21
1.11927
0
LINE
8
BLACK
6
CONTINUOUS
10
1.30301
20
1.11927
11
1.30297
21
1.11922
0
LINE
8
BLACK
6
CONTINUOUS
10
1.30297
20
1.11922
11
1.29922
21
1.11734
0
LINE
8
BLACK
6
CONTINUOUS
10
1.29922
20
1.11734
11
1.29824
21
1.11705
0
LINE
8
BLACK
6
CONTINUOUS
10
1.29824
20
1.11705
11
1.29807
21
1.11709
0
LINE
8
BLACK
6
CONTINUOUS
10
1.29807
20
1.11709
11
1.2979
21
1.11703
0
LINE
8
BLACK
6
CONTINUOUS
10
1.2979
20
1.11703
11
1.29228
21
1.11703
0
LINE
8
BLACK
6
CONTINUOUS
10
1.29228
20
1.11703
11
1.29127
21
1.11721
0
LINE
8
BLACK
6
CONTINUOUS
10
1.29127
20
1.11721
11
1.29113
21
1.11732
0
LINE
8
BLACK
6
CONTINUOUS
10
1.29113
20
1.11732
11
1.29096
21
1.11734
0
LINE
8
BLACK
6
CONTINUOUS
10
1.29096
20
1.11734
11
1.28721
21
1.11922
0
LINE
8
BLACK
6
CONTINUOUS
10
1.28721
20
1.11922
11
1.2865
21
1.11974
0
LINE
8
BLACK
6
CONTINUOUS
10
1.2865
20
1.11974
11
1.28644
21
1.11977
0
LINE
8
BLACK
6
CONTINUOUS
10
1.28644
20
1.11977
11
1.28456
21
1.12165
0
LINE
8
BLACK
6
CONTINUOUS
10
1.28456
20
1.12165
11
1.28406
21
1.12237
0
LINE
8
BLACK
6
CONTINUOUS
10
1.28406
20
1.12237
11
1.28401
21
1.12241
0
LINE
8
BLACK
6
CONTINUOUS
10
1.28401
20
1.12241
11
1.28214
21
1.12616
0
LINE
8
BLACK
6
CONTINUOUS
10
1.28214
20
1.12616
11
1.28184
21
1.12715
0
LINE
8
BLACK
6
CONTINUOUS
10
1.28184
20
1.12715
11
1.28188
21
1.12732
0
LINE
8
BLACK
6
CONTINUOUS
10
1.28188
20
1.12732
11
1.28182
21
1.12748
0
LINE
8
BLACK
6
CONTINUOUS
10
1.28182
20
1.12748
11
1.28182
21
1.13873
0
LINE
8
BLACK
6
CONTINUOUS
10
1.28182
20
1.13873
11
1.282
21
1.13974
0
LINE
8
BLACK
6
CONTINUOUS
10
1.282
20
1.13974
11
1.28212
21
1.13988
0
LINE
8
BLACK
6
CONTINUOUS
10
1.28212
20
1.13988
11
1.28214
21
1.14005
0
LINE
8
BLACK
6
CONTINUOUS
10
1.28214
20
1.14005
11
1.28401
21
1.1438
0
LINE
8
BLACK
6
CONTINUOUS
10
1.28401
20
1.1438
11
1.28454
21
1.14451
0
LINE
8
BLACK
6
CONTINUOUS
10
1.28454
20
1.14451
11
1.28456
21
1.14457
0
LINE
8
BLACK
6
CONTINUOUS
10
1.28456
20
1.14457
11
1.28644
21
1.14644
0
LINE
8
BLACK
6
CONTINUOUS
10
1.28644
20
1.14644
11
1.28716
21
1.14695
0
LINE
8
BLACK
6
CONTINUOUS
10
1.28716
20
1.14695
11
1.28721
21
1.147
0
LINE
8
BLACK
6
CONTINUOUS
10
1.28721
20
1.147
11
1.29096
21
1.14887
0
LINE
8
BLACK
6
CONTINUOUS
10
1.29096
20
1.14887
11
1.29194
21
1.14917
0
LINE
8
BLACK
6
CONTINUOUS
10
1.29194
20
1.14917
11
1.29211
21
1.14912
0
LINE
8
BLACK
6
CONTINUOUS
10
1.29211
20
1.14912
11
1.29228
21
1.14918
0
LINE
8
BLACK
6
CONTINUOUS
10
1.29228
20
1.14918
11
1.2979
21
1.14918
0
LINE
8
BLACK
6
CONTINUOUS
10
1.2979
20
1.14918
11
1.29891
21
1.14901
0
LINE
8
BLACK
6
CONTINUOUS
10
1.29297
20
1.14328
11
1.29028
21
1.14193
0
LINE
8
BLACK
6
CONTINUOUS
10
1.29028
20
1.14193
11
1.28908
21
1.14073
0
LINE
8
BLACK
6
CONTINUOUS
10
1.28908
20
1.14073
11
1.28773
21
1.13804
0
LINE
8
BLACK
6
CONTINUOUS
10
1.28773
20
1.13804
11
1.28773
21
1.12818
0
LINE
8
BLACK
6
CONTINUOUS
10
1.28773
20
1.12818
11
1.28908
21
1.12548
0
LINE
8
BLACK
6
CONTINUOUS
10
1.28908
20
1.12548
11
1.29028
21
1.12429
0
LINE
8
BLACK
6
CONTINUOUS
10
1.29028
20
1.12429
11
1.29297
21
1.12294
0
LINE
8
BLACK
6
CONTINUOUS
10
1.29297
20
1.12294
11
1.2972
21
1.12294
0
LINE
8
BLACK
6
CONTINUOUS
10
1.2972
20
1.12294
11
1.2999
21
1.12429
0
LINE
8
BLACK
6
CONTINUOUS
10
1.2999
20
1.12429
11
1.3011
21
1.12548
0
LINE
8
BLACK
6
CONTINUOUS
10
1.3011
20
1.12548
11
1.30245
21
1.12818
0
LINE
8
BLACK
6
CONTINUOUS
10
1.30245
20
1.12818
11
1.30245
21
1.13804
0
LINE
8
BLACK
6
CONTINUOUS
10
1.30245
20
1.13804
11
1.3011
21
1.14073
0
LINE
8
BLACK
6
CONTINUOUS
10
1.3011
20
1.14073
11
1.2999
21
1.14193
0
LINE
8
BLACK
6
CONTINUOUS
10
1.2999
20
1.14193
11
1.2972
21
1.14328
0
LINE
8
BLACK
6
CONTINUOUS
10
1.2972
20
1.14328
11
1.29297
21
1.14328
0
LINE
8
BLACK
6
CONTINUOUS
10
0.651976
20
1.16215
11
0.65204
21
1.16216
0
LINE
8
BLACK
6
CONTINUOUS
10
0.65204
20
1.16216
11
0.657664
21
1.16028
0
LINE
8
BLACK
6
CONTINUOUS
10
0.657664
20
1.16028
11
0.658566
21
1.15979
0
LINE
8
BLACK
6
CONTINUOUS
10
0.658566
20
1.15979
11
0.658658
21
1.15964
0
LINE
8
BLACK
6
CONTINUOUS
10
0.658658
20
1.15964
11
0.658818
21
1.15957
0
LINE
8
BLACK
6
CONTINUOUS
10
0.658818
20
1.15957
11
0.662568
21
1.15582
0
LINE
8
BLACK
6
CONTINUOUS
10
0.662568
20
1.15582
11
0.663074
21
1.1551
0
LINE
8
BLACK
6
CONTINUOUS
10
0.663074
20
1.1551
11
0.663121
21
1.15505
0
LINE
8
BLACK
6
CONTINUOUS
10
0.663121
20
1.15505
11
0.664996
21
1.1513
0
LINE
8
BLACK
6
CONTINUOUS
10
0.664996
20
1.1513
11
0.665141
21
1.15081
0
LINE
8
BLACK
6
CONTINUOUS
10
0.665141
20
1.15081
11
0.665219
21
1.1507
0
LINE
8
BLACK
6
CONTINUOUS
10
0.665219
20
1.1507
11
0.667094
21
1.1432
0
LINE
8
BLACK
6
CONTINUOUS
10
0.667094
20
1.1432
11
0.667136
21
1.14261
0
LINE
8
BLACK
6
CONTINUOUS
10
0.667136
20
1.14261
11
0.667182
21
1.14248
0
LINE
8
BLACK
6
CONTINUOUS
10
0.667182
20
1.14248
11
0.667182
21
1.13686
0
LINE
8
BLACK
6
CONTINUOUS
10
0.667182
20
1.13686
11
0.66708
21
1.13628
0
LINE
8
BLACK
6
CONTINUOUS
10
0.66708
20
1.13628
11
0.667094
21
1.13614
0
LINE
8
BLACK
6
CONTINUOUS
10
0.667094
20
1.13614
11
0.665219
21
1.12864
0
LINE
8
BLACK
6
CONTINUOUS
10
0.665219
20
1.12864
11
0.665012
21
1.12818
0
LINE
8
BLACK
6
CONTINUOUS
10
0.665012
20
1.12818
11
0.664996
21
1.12804
0
LINE
8
BLACK
6
CONTINUOUS
10
0.664996
20
1.12804
11
0.663121
21
1.12429
0
LINE
8
BLACK
6
CONTINUOUS
10
0.663121
20
1.12429
11
0.662595
21
1.12358
0
LINE
8
BLACK
6
CONTINUOUS
10
0.662595
20
1.12358
11
0.662568
21
1.12352
0
LINE
8
BLACK
6
CONTINUOUS
10
0.662568
20
1.12352
11
0.658818
21
1.11977
0
LINE
8
BLACK
6
CONTINUOUS
10
0.658818
20
1.11977
11
0.657978
21
1.11918
0
LINE
8
BLACK
6
CONTINUOUS
10
0.657978
20
1.11918
11
0.657802
21
1.11917
0
LINE
8
BLACK
6
CONTINUOUS
10
0.657802
20
1.11917
11
0.657664
21
1.11906
0
LINE
8
BLACK
6
CONTINUOUS
10
0.657664
20
1.11906
11
0.65204
21
1.11718
0
LINE
8
BLACK
6
CONTINUOUS
10
0.65204
20
1.11718
11
0.651167
21
1.11705
0
LINE
8
BLACK
6
CONTINUOUS
10
0.651167
20
1.11705
11
0.651106
21
1.11703
0
LINE
8
BLACK
6
CONTINUOUS
10
0.651106
20
1.11703
11
0.641732
21
1.11703
0
LINE
8
BLACK
6
CONTINUOUS
10
0.641732
20
1.11703
11
0.641349
21
1.1171
0
LINE
8
BLACK
6
CONTINUOUS
10
0.641349
20
1.1171
11
0.64122
21
1.11708
0
LINE
8
BLACK
6
CONTINUOUS
10
0.64122
20
1.11708
11
0.641106
21
1.11714
0
LINE
8
BLACK
6
CONTINUOUS
10
0.641106
20
1.11714
11
0.640722
21
1.11721
0
LINE
8
BLACK
6
CONTINUOUS
10
0.640722
20
1.11721
11
0.640135
21
1.1177
0
LINE
8
BLACK
6
CONTINUOUS
10
0.640135
20
1.1177
11
0.63947
21
1.11809
0
LINE
8
BLACK
6
CONTINUOUS
10
0.63947
20
1.11809
11
0.639379
21
1.11834
0
LINE
8
BLACK
6
CONTINUOUS
10
0.639379
20
1.11834
11
0.639175
21
1.11851
0
LINE
8
BLACK
6
CONTINUOUS
10
0.639175
20
1.11851
11
0.639042
21
1.11926
0
LINE
8
BLACK
6
CONTINUOUS
10
0.639042
20
1.11926
11
0.63878
21
1.11999
0
LINE
8
BLACK
6
CONTINUOUS
10
0.63878
20
1.11999
11
0.63878
21
1.15936
0
LINE
8
BLACK
6
CONTINUOUS
10
0.63878
20
1.15936
11
0.638847
21
1.15974
0
LINE
8
BLACK
6
CONTINUOUS
10
0.638847
20
1.15974
11
0.638824
21
1.15987
0
LINE
8
BLACK
6
CONTINUOUS
10
0.638824
20
1.15987
11
0.63889
21
1.15998
0
LINE
8
BLACK
6
CONTINUOUS
10
0.63889
20
1.15998
11
0.638958
21
1.16037
0
LINE
8
BLACK
6
CONTINUOUS
10
0.638958
20
1.16037
11
0.639451
21
1.16095
0
LINE
8
BLACK
6
CONTINUOUS
10
0.639451
20
1.16095
11
0.639834
21
1.16162
0
LINE
8
BLACK
6
CONTINUOUS
10
0.639834
20
1.16162
11
0.640085
21
1.16171
0
LINE
8
BLACK
6
CONTINUOUS
10
0.640085
20
1.16171
11
0.640256
21
1.16191
0
LINE
8
BLACK
6
CONTINUOUS
10
0.640256
20
1.16191
11
0.641011
21
1.16205
0
LINE
8
BLACK
6
CONTINUOUS
10
0.641011
20
1.16205
11
0.641732
21
1.16231
0
LINE
8
BLACK
6
CONTINUOUS
10
0.641732
20
1.16231
11
0.651106
21
1.16231
0
LINE
8
BLACK
6
CONTINUOUS
10
0.651106
20
1.16231
11
0.651976
21
1.16215
0
LINE
8
BLACK
6
CONTINUOUS
10
0.644685
20
1.1564
11
0.644685
21
1.12294
0
LINE
8
BLACK
6
CONTINUOUS
10
0.644685
20
1.12294
11
0.650627
21
1.12294
0
LINE
8
BLACK
6
CONTINUOUS
10
0.650627
20
1.12294
11
0.655135
21
1.12444
0
LINE
8
BLACK
6
CONTINUOUS
10
0.655135
20
1.12444
11
0.658053
21
1.12736
0
LINE
8
BLACK
6
CONTINUOUS
10
0.658053
20
1.12736
11
0.659569
21
1.13039
0
LINE
8
BLACK
6
CONTINUOUS
10
0.659569
20
1.13039
11
0.661277
21
1.13722
0
LINE
8
BLACK
6
CONTINUOUS
10
0.661277
20
1.13722
11
0.661277
21
1.14212
0
LINE
8
BLACK
6
CONTINUOUS
10
0.661277
20
1.14212
11
0.659569
21
1.14895
0
LINE
8
BLACK
6
CONTINUOUS
10
0.659569
20
1.14895
11
0.658053
21
1.15198
0
LINE
8
BLACK
6
CONTINUOUS
10
0.658053
20
1.15198
11
0.655135
21
1.1549
0
LINE
8
BLACK
6
CONTINUOUS
10
0.655135
20
1.1549
11
0.650627
21
1.1564
0
LINE
8
BLACK
6
CONTINUOUS
10
0.650627
20
1.1564
11
0.644685
21
1.1564
0
LINE
8
BLACK
6
CONTINUOUS
10
1.24642
20
1.14901
11
1.24655
21
1.14889
0
LINE
8
BLACK
6
CONTINUOUS
10
1.24655
20
1.14889
11
1.24673
21
1.14887
0
LINE
8
BLACK
6
CONTINUOUS
10
1.24673
20
1.14887
11
1.25048
21
1.147
0
LINE
8
BLACK
6
CONTINUOUS
10
1.25048
20
1.147
11
1.2513
21
1.14639
0
LINE
8
BLACK
6
CONTINUOUS
10
1.2513
20
1.14639
11
1.2521
21
1.14453
0
LINE
8
BLACK
6
CONTINUOUS
10
1.2521
20
1.14453
11
1.25153
21
1.1426
0
LINE
8
BLACK
6
CONTINUOUS
10
1.25153
20
1.1426
11
1.24984
21
1.14149
0
LINE
8
BLACK
6
CONTINUOUS
10
1.24984
20
1.14149
11
1.24784
21
1.14172
0
LINE
8
BLACK
6
CONTINUOUS
10
1.24784
20
1.14172
11
1.24471
21
1.14328
0
LINE
8
BLACK
6
CONTINUOUS
10
1.24471
20
1.14328
11
1.24048
21
1.14328
0
LINE
8
BLACK
6
CONTINUOUS
10
1.24048
20
1.14328
11
1.23823
21
1.14216
0
LINE
8
BLACK
6
CONTINUOUS
10
1.23823
20
1.14216
11
1.23711
21
1.13991
0
LINE
8
BLACK
6
CONTINUOUS
10
1.23711
20
1.13991
11
1.23711
21
1.13943
0
LINE
8
BLACK
6
CONTINUOUS
10
1.23711
20
1.13943
11
1.23823
21
1.13718
0
LINE
8
BLACK
6
CONTINUOUS
10
1.23823
20
1.13718
11
1.24048
21
1.13606
0
LINE
8
BLACK
6
CONTINUOUS
10
1.24048
20
1.13606
11
1.24541
21
1.13606
0
LINE
8
BLACK
6
CONTINUOUS
10
1.24541
20
1.13606
11
1.24642
21
1.13588
0
LINE
8
BLACK
6
CONTINUOUS
10
1.24642
20
1.13588
11
1.24655
21
1.13577
0
LINE
8
BLACK
6
CONTINUOUS
10
1.24655
20
1.13577
11
1.24673
21
1.13575
0
LINE
8
BLACK
6
CONTINUOUS
10
1.24673
20
1.13575
11
1.25048
21
1.13387
0
LINE
8
BLACK
6
CONTINUOUS
10
1.25048
20
1.13387
11
1.2513
21
1.13326
0
LINE
8
BLACK
6
CONTINUOUS
10
1.2513
20
1.13326
11
1.25148
21
1.13286
0
LINE
8
BLACK
6
CONTINUOUS
10
1.25148
20
1.13286
11
1.2518
21
1.13255
0
LINE
8
BLACK
6
CONTINUOUS
10
1.2518
20
1.13255
11
1.25367
21
1.1288
0
LINE
8
BLACK
6
CONTINUOUS
10
1.25367
20
1.1288
11
1.25396
21
1.12782
0
LINE
8
BLACK
6
CONTINUOUS
10
1.25396
20
1.12782
11
1.25392
21
1.12765
0
LINE
8
BLACK
6
CONTINUOUS
10
1.25392
20
1.12765
11
1.25398
21
1.12748
0
LINE
8
BLACK
6
CONTINUOUS
10
1.25398
20
1.12748
11
1.25398
21
1.12561
0
LINE
8
BLACK
6
CONTINUOUS
10
1.25398
20
1.12561
11
1.25381
21
1.1246
0
LINE
8
BLACK
6
CONTINUOUS
10
1.25381
20
1.1246
11
1.25369
21
1.12446
0
LINE
8
BLACK
6
CONTINUOUS
10
1.25369
20
1.12446
11
1.25367
21
1.12429
0
LINE
8
BLACK
6
CONTINUOUS
10
1.25367
20
1.12429
11
1.2518
21
1.12054
0
LINE
8
BLACK
6
CONTINUOUS
10
1.2518
20
1.12054
11
1.25119
21
1.11972
0
LINE
8
BLACK
6
CONTINUOUS
10
1.25119
20
1.11972
11
1.25078
21
1.11954
0
LINE
8
BLACK
6
CONTINUOUS
10
1.25078
20
1.11954
11
1.25048
21
1.11922
0
LINE
8
BLACK
6
CONTINUOUS
10
1.25048
20
1.11922
11
1.24673
21
1.11734
0
LINE
8
BLACK
6
CONTINUOUS
10
1.24673
20
1.11734
11
1.24574
21
1.11705
0
LINE
8
BLACK
6
CONTINUOUS
10
1.24574
20
1.11705
11
1.24557
21
1.11709
0
LINE
8
BLACK
6
CONTINUOUS
10
1.24557
20
1.11709
11
1.24541
21
1.11703
0
LINE
8
BLACK
6
CONTINUOUS
10
1.24541
20
1.11703
11
1.23791
21
1.11703
0
LINE
8
BLACK
6
CONTINUOUS
10
1.23791
20
1.11703
11
1.2369
21
1.11721
0
LINE
8
BLACK
6
CONTINUOUS
10
1.2369
20
1.11721
11
1.23676
21
1.11732
0
LINE
8
BLACK
6
CONTINUOUS
10
1.23676
20
1.11732
11
1.23659
21
1.11734
0
LINE
8
BLACK
6
CONTINUOUS
10
1.23659
20
1.11734
11
1.23284
21
1.11922
0
LINE
8
BLACK
6
CONTINUOUS
10
1.23284
20
1.11922
11
1.23201
21
1.11983
0
LINE
8
BLACK
6
CONTINUOUS
10
1.23201
20
1.11983
11
1.23121
21
1.12168
0
LINE
8
BLACK
6
CONTINUOUS
10
1.23121
20
1.12168
11
1.23179
21
1.12362
0
LINE
8
BLACK
6
CONTINUOUS
10
1.23179
20
1.12362
11
1.23347
21
1.12473
0
LINE
8
BLACK
6
CONTINUOUS
10
1.23347
20
1.12473
11
1.23548
21
1.1245
0
LINE
8
BLACK
6
CONTINUOUS
10
1.23548
20
1.1245
11
1.2386
21
1.12294
0
LINE
8
BLACK
6
CONTINUOUS
10
1.2386
20
1.12294
11
1.24471
21
1.12294
0
LINE
8
BLACK
6
CONTINUOUS
10
1.24471
20
1.12294
11
1.24696
21
1.12406
0
LINE
8
BLACK
6
CONTINUOUS
10
1.24696
20
1.12406
11
1.24808
21
1.12631
0
LINE
8
BLACK
6
CONTINUOUS
10
1.24808
20
1.12631
11
1.24808
21
1.12679
0
LINE
8
BLACK
6
CONTINUOUS
10
1.24808
20
1.12679
11
1.24696
21
1.12903
0
LINE
8
BLACK
6
CONTINUOUS
10
1.24696
20
1.12903
11
1.24471
21
1.13016
0
LINE
8
BLACK
6
CONTINUOUS
10
1.24471
20
1.13016
11
1.23978
21
1.13016
0
LINE
8
BLACK
6
CONTINUOUS
10
1.23978
20
1.13016
11
1.23877
21
1.13033
0
LINE
8
BLACK
6
CONTINUOUS
10
1.23877
20
1.13033
11
1.23864
21
1.13045
0
LINE
8
BLACK
6
CONTINUOUS
10
1.23864
20
1.13045
11
1.23846
21
1.13047
0
LINE
8
BLACK
6
CONTINUOUS
10
1.23846
20
1.13047
11
1.23471
21
1.13234
0
LINE
8
BLACK
6
CONTINUOUS
10
1.23471
20
1.13234
11
1.23389
21
1.13295
0
LINE
8
BLACK
6
CONTINUOUS
10
1.23389
20
1.13295
11
1.23371
21
1.13336
0
LINE
8
BLACK
6
CONTINUOUS
10
1.23371
20
1.13336
11
1.23339
21
1.13366
0
LINE
8
BLACK
6
CONTINUOUS
10
1.23339
20
1.13366
11
1.23152
21
1.13741
0
LINE
8
BLACK
6
CONTINUOUS
10
1.23152
20
1.13741
11
1.23122
21
1.1384
0
LINE
8
BLACK
6
CONTINUOUS
10
1.23122
20
1.1384
11
1.23127
21
1.13857
0
LINE
8
BLACK
6
CONTINUOUS
10
1.23127
20
1.13857
11
1.23121
21
1.13873
0
LINE
8
BLACK
6
CONTINUOUS
10
1.23121
20
1.13873
11
1.23121
21
1.14061
0
LINE
8
BLACK
6
CONTINUOUS
10
1.23121
20
1.14061
11
1.23138
21
1.14162
0
LINE
8
BLACK
6
CONTINUOUS
10
1.23138
20
1.14162
11
1.2315
21
1.14175
0
LINE
8
BLACK
6
CONTINUOUS
10
1.2315
20
1.14175
11
1.23152
21
1.14193
0
LINE
8
BLACK
6
CONTINUOUS
10
1.23152
20
1.14193
11
1.23339
21
1.14568
0
LINE
8
BLACK
6
CONTINUOUS
10
1.23339
20
1.14568
11
1.234
21
1.1465
0
LINE
8
BLACK
6
CONTINUOUS
10
1.234
20
1.1465
11
1.23441
21
1.14668
0
LINE
8
BLACK
6
CONTINUOUS
10
1.23441
20
1.14668
11
1.23471
21
1.147
0
LINE
8
BLACK
6
CONTINUOUS
10
1.23471
20
1.147
11
1.23846
21
1.14887
0
LINE
8
BLACK
6
CONTINUOUS
10
1.23846
20
1.14887
11
1.23944
21
1.14917
0
LINE
8
BLACK
6
CONTINUOUS
10
1.23944
20
1.14917
11
1.23962
21
1.14912
0
LINE
8
BLACK
6
CONTINUOUS
10
1.23962
20
1.14912
11
1.23978
21
1.14918
0
LINE
8
BLACK
6
CONTINUOUS
10
1.23978
20
1.14918
11
1.24541
21
1.14918
0
LINE
8
BLACK
6
CONTINUOUS
10
1.24541
20
1.14918
11
1.24642
21
1.14901
0
LINE
8
BLACK
6
CONTINUOUS
10
0.815221
20
1.16213
11
0.815356
21
1.16202
0
LINE
8
BLACK
6
CONTINUOUS
10
0.815356
20
1.16202
11
0.815531
21
1.162
0
LINE
8
BLACK
6
CONTINUOUS
10
0.815531
20
1.162
11
0.819281
21
1.16012
0
LINE
8
BLACK
6
CONTINUOUS
10
0.819281
20
1.16012
11
0.81999
21
1.1596
0
LINE
8
BLACK
6
CONTINUOUS
10
0.81999
20
1.1596
11
0.820048
21
1.15957
0
LINE
8
BLACK
6
CONTINUOUS
10
0.820048
20
1.15957
11
0.821923
21
1.15769
0
LINE
8
BLACK
6
CONTINUOUS
10
0.821923
20
1.15769
11
0.822429
21
1.15697
0
LINE
8
BLACK
6
CONTINUOUS
10
0.822429
20
1.15697
11
0.822476
21
1.15693
0
LINE
8
BLACK
6
CONTINUOUS
10
0.822476
20
1.15693
11
0.824351
21
1.15318
0
LINE
8
BLACK
6
CONTINUOUS
10
0.824351
20
1.15318
11
0.824643
21
1.15219
0
LINE
8
BLACK
6
CONTINUOUS
10
0.824643
20
1.15219
11
0.824602
21
1.15202
0
LINE
8
BLACK
6
CONTINUOUS
10
0.824602
20
1.15202
11
0.824663
21
1.15186
0
LINE
8
BLACK
6
CONTINUOUS
10
0.824663
20
1.15186
11
0.824663
21
1.14998
0
LINE
8
BLACK
6
CONTINUOUS
10
0.824663
20
1.14998
11
0.824484
21
1.14897
0
LINE
8
BLACK
6
CONTINUOUS
10
0.824484
20
1.14897
11
0.824371
21
1.14884
0
LINE
8
BLACK
6
CONTINUOUS
10
0.824371
20
1.14884
11
0.824351
21
1.14866
0
LINE
8
BLACK
6
CONTINUOUS
10
0.824351
20
1.14866
11
0.822476
21
1.14491
0
LINE
8
BLACK
6
CONTINUOUS
10
0.822476
20
1.14491
11
0.82195
21
1.1442
0
LINE
8
BLACK
6
CONTINUOUS
10
0.82195
20
1.1442
11
0.821923
21
1.14414
0
LINE
8
BLACK
6
CONTINUOUS
10
0.821923
20
1.14414
11
0.820261
21
1.14248
0
LINE
8
BLACK
6
CONTINUOUS
10
0.820261
20
1.14248
11
0.821923
21
1.14082
0
LINE
8
BLACK
6
CONTINUOUS
10
0.821923
20
1.14082
11
0.822429
21
1.1401
0
LINE
8
BLACK
6
CONTINUOUS
10
0.822429
20
1.1401
11
0.822476
21
1.14005
0
LINE
8
BLACK
6
CONTINUOUS
10
0.822476
20
1.14005
11
0.824351
21
1.1363
0
LINE
8
BLACK
6
CONTINUOUS
10
0.824351
20
1.1363
11
0.824643
21
1.13532
0
LINE
8
BLACK
6
CONTINUOUS
10
0.824643
20
1.13532
11
0.824602
21
1.13515
0
LINE
8
BLACK
6
CONTINUOUS
10
0.824602
20
1.13515
11
0.824663
21
1.13498
0
LINE
8
BLACK
6
CONTINUOUS
10
0.824663
20
1.13498
11
0.824663
21
1.12748
0
LINE
8
BLACK
6
CONTINUOUS
10
0.824663
20
1.12748
11
0.824484
21
1.12647
0
LINE
8
BLACK
6
CONTINUOUS
10
0.824484
20
1.12647
11
0.824371
21
1.12634
0
LINE
8
BLACK
6
CONTINUOUS
10
0.824371
20
1.12634
11
0.824351
21
1.12616
0
LINE
8
BLACK
6
CONTINUOUS
10
0.824351
20
1.12616
11
0.822476
21
1.12241
0
LINE
8
BLACK
6
CONTINUOUS
10
0.822476
20
1.12241
11
0.82195
21
1.1217
0
LINE
8
BLACK
6
CONTINUOUS
10
0.82195
20
1.1217
11
0.821923
21
1.12165
0
LINE
8
BLACK
6
CONTINUOUS
10
0.821923
20
1.12165
11
0.820048
21
1.11977
0
LINE
8
BLACK
6
CONTINUOUS
10
0.820048
20
1.11977
11
0.819325
21
1.11927
0
LINE
8
BLACK
6
CONTINUOUS
10
0.819325
20
1.11927
11
0.819281
21
1.11922
0
LINE
8
BLACK
6
CONTINUOUS
10
0.819281
20
1.11922
11
0.815531
21
1.11734
0
LINE
8
BLACK
6
CONTINUOUS
10
0.815531
20
1.11734
11
0.814548
21
1.11705
0
LINE
8
BLACK
6
CONTINUOUS
10
0.814548
20
1.11705
11
0.814377
21
1.11709
0
LINE
8
BLACK
6
CONTINUOUS
10
0.814377
20
1.11709
11
0.814211
21
1.11703
0
LINE
8
BLACK
6
CONTINUOUS
10
0.814211
20
1.11703
11
0.806712
21
1.11703
0
LINE
8
BLACK
6
CONTINUOUS
10
0.806712
20
1.11703
11
0.805702
21
1.11721
0
LINE
8
BLACK
6
CONTINUOUS
10
0.805702
20
1.11721
11
0.805566
21
1.11732
0
LINE
8
BLACK
6
CONTINUOUS
10
0.805566
20
1.11732
11
0.805391
21
1.11734
0
LINE
8
BLACK
6
CONTINUOUS
10
0.805391
20
1.11734
11
0.801642
21
1.11922
0
LINE
8
BLACK
6
CONTINUOUS
10
0.801642
20
1.11922
11
0.800933
21
1.11974
0
LINE
8
BLACK
6
CONTINUOUS
10
0.800933
20
1.11974
11
0.800874
21
1.11977
0
LINE
8
BLACK
6
CONTINUOUS
10
0.800874
20
1.11977
11
0.798999
21
1.12165
0
LINE
8
BLACK
6
CONTINUOUS
10
0.798999
20
1.12165
11
0.798493
21
1.12237
0
LINE
8
BLACK
6
CONTINUOUS
10
0.798493
20
1.12237
11
0.798446
21
1.12241
0
LINE
8
BLACK
6
CONTINUOUS
10
0.798446
20
1.12241
11
0.796572
21
1.12616
0
LINE
8
BLACK
6
CONTINUOUS
10
0.796572
20
1.12616
11
0.796279
21
1.12715
0
LINE
8
BLACK
6
CONTINUOUS
10
0.796279
20
1.12715
11
0.79632
21
1.12732
0
LINE
8
BLACK
6
CONTINUOUS
10
0.79632
20
1.12732
11
0.79626
21
1.12748
0
LINE
8
BLACK
6
CONTINUOUS
10
0.79626
20
1.12748
11
0.79626
21
1.13498
0
LINE
8
BLACK
6
CONTINUOUS
10
0.79626
20
1.13498
11
0.796438
21
1.13599
0
LINE
8
BLACK
6
CONTINUOUS
10
0.796438
20
1.13599
11
0.796551
21
1.13613
0
LINE
8
BLACK
6
CONTINUOUS
10
0.796551
20
1.13613
11
0.796572
21
1.1363
0
LINE
8
BLACK
6
CONTINUOUS
10
0.796572
20
1.1363
11
0.798446
21
1.14005
0
LINE
8
BLACK
6
CONTINUOUS
10
0.798446
20
1.14005
11
0.798972
21
1.14076
0
LINE
8
BLACK
6
CONTINUOUS
10
0.798972
20
1.14076
11
0.798999
21
1.14082
0
LINE
8
BLACK
6
CONTINUOUS
10
0.798999
20
1.14082
11
0.800661
21
1.14248
0
LINE
8
BLACK
6
CONTINUOUS
10
0.800661
20
1.14248
11
0.798999
21
1.14414
0
LINE
8
BLACK
6
CONTINUOUS
10
0.798999
20
1.14414
11
0.798493
21
1.14487
0
LINE
8
BLACK
6
CONTINUOUS
10
0.798493
20
1.14487
11
0.798446
21
1.14491
0
LINE
8
BLACK
6
CONTINUOUS
10
0.798446
20
1.14491
11
0.796572
21
1.14866
0
LINE
8
BLACK
6
CONTINUOUS
10
0.796572
20
1.14866
11
0.796279
21
1.14964
0
LINE
8
BLACK
6
CONTINUOUS
10
0.796279
20
1.14964
11
0.79632
21
1.14982
0
LINE
8
BLACK
6
CONTINUOUS
10
0.79632
20
1.14982
11
0.79626
21
1.14998
0
LINE
8
BLACK
6
CONTINUOUS
10
0.79626
20
1.14998
11
0.79626
21
1.15186
0
LINE
8
BLACK
6
CONTINUOUS
10
0.79626
20
1.15186
11
0.796438
21
1.15287
0
LINE
8
BLACK
6
CONTINUOUS
10
0.796438
20
1.15287
11
0.796551
21
1.153
0
LINE
8
BLACK
6
CONTINUOUS
10
0.796551
20
1.153
11
0.796572
21
1.15318
0
LINE
8
BLACK
6
CONTINUOUS
10
0.796572
20
1.15318
11
0.798446
21
1.15693
0
LINE
8
BLACK
6
CONTINUOUS
10
0.798446
20
1.15693
11
0.798972
21
1.15764
0
LINE
8
BLACK
6
CONTINUOUS
10
0.798972
20
1.15764
11
0.798999
21
1.15769
0
LINE
8
BLACK
6
CONTINUOUS
10
0.798999
20
1.15769
11
0.800874
21
1.15957
0
LINE
8
BLACK
6
CONTINUOUS
10
0.800874
20
1.15957
11
0.801597
21
1.16007
0
LINE
8
BLACK
6
CONTINUOUS
10
0.801597
20
1.16007
11
0.801642
21
1.16012
0
LINE
8
BLACK
6
CONTINUOUS
10
0.801642
20
1.16012
11
0.805391
21
1.162
0
LINE
8
BLACK
6
CONTINUOUS
10
0.805391
20
1.162
11
0.806374
21
1.16229
0
LINE
8
BLACK
6
CONTINUOUS
10
0.806374
20
1.16229
11
0.806546
21
1.16225
0
LINE
8
BLACK
6
CONTINUOUS
10
0.806546
20
1.16225
11
0.806712
21
1.16231
0
LINE
8
BLACK
6
CONTINUOUS
10
0.806712
20
1.16231
11
0.814211
21
1.16231
0
LINE
8
BLACK
6
CONTINUOUS
10
0.814211
20
1.16231
11
0.815221
21
1.16213
0
LINE
8
BLACK
6
CONTINUOUS
10
0.807409
20
1.13953
11
0.804711
21
1.13818
0
LINE
8
BLACK
6
CONTINUOUS
10
0.804711
20
1.13818
11
0.803514
21
1.13698
0
LINE
8
BLACK
6
CONTINUOUS
10
0.803514
20
1.13698
11
0.802165
21
1.13429
0
LINE
8
BLACK
6
CONTINUOUS
10
0.802165
20
1.13429
11
0.802165
21
1.12818
0
LINE
8
BLACK
6
CONTINUOUS
10
0.802165
20
1.12818
11
0.803514
21
1.12548
0
LINE
8
BLACK
6
CONTINUOUS
10
0.803514
20
1.12548
11
0.804711
21
1.12429
0
LINE
8
BLACK
6
CONTINUOUS
10
0.804711
20
1.12429
11
0.807409
21
1.12294
0
LINE
8
BLACK
6
CONTINUOUS
10
0.807409
20
1.12294
11
0.813514
21
1.12294
0
LINE
8
BLACK
6
CONTINUOUS
10
0.813514
20
1.12294
11
0.816211
21
1.12429
0
LINE
8
BLACK
6
CONTINUOUS
10
0.816211
20
1.12429
11
0.817408
21
1.12548
0
LINE
8
BLACK
6
CONTINUOUS
10
0.817408
20
1.12548
11
0.818757
21
1.12818
0
LINE
8
BLACK
6
CONTINUOUS
10
0.818757
20
1.12818
11
0.818757
21
1.13429
0
LINE
8
BLACK
6
CONTINUOUS
10
0.818757
20
1.13429
11
0.817408
21
1.13698
0
LINE
8
BLACK
6
CONTINUOUS
10
0.817408
20
1.13698
11
0.816211
21
1.13818
0
LINE
8
BLACK
6
CONTINUOUS
10
0.816211
20
1.13818
11
0.813514
21
1.13953
0
LINE
8
BLACK
6
CONTINUOUS
10
0.813514
20
1.13953
11
0.807409
21
1.13953
0
LINE
8
BLACK
6
CONTINUOUS
10
0.807409
20
1.1564
11
0.804711
21
1.15505
0
LINE
8
BLACK
6
CONTINUOUS
10
0.804711
20
1.15505
11
0.803514
21
1.15386
0
LINE
8
BLACK
6
CONTINUOUS
10
0.803514
20
1.15386
11
0.802165
21
1.15116
0
LINE
8
BLACK
6
CONTINUOUS
10
0.802165
20
1.15116
11
0.802165
21
1.15068
0
LINE
8
BLACK
6
CONTINUOUS
10
0.802165
20
1.15068
11
0.803514
21
1.14798
0
LINE
8
BLACK
6
CONTINUOUS
10
0.803514
20
1.14798
11
0.804711
21
1.14678
0
LINE
8
BLACK
6
CONTINUOUS
10
0.804711
20
1.14678
11
0.807409
21
1.14543
0
LINE
8
BLACK
6
CONTINUOUS
10
0.807409
20
1.14543
11
0.813514
21
1.14543
0
LINE
8
BLACK
6
CONTINUOUS
10
0.813514
20
1.14543
11
0.816211
21
1.14678
0
LINE
8
BLACK
6
CONTINUOUS
10
0.816211
20
1.14678
11
0.817408
21
1.14798
0
LINE
8
BLACK
6
CONTINUOUS
10
0.817408
20
1.14798
11
0.818757
21
1.15068
0
LINE
8
BLACK
6
CONTINUOUS
10
0.818757
20
1.15068
11
0.818757
21
1.15116
0
LINE
8
BLACK
6
CONTINUOUS
10
0.818757
20
1.15116
11
0.817408
21
1.15386
0
LINE
8
BLACK
6
CONTINUOUS
10
0.817408
20
1.15386
11
0.816211
21
1.15505
0
LINE
8
BLACK
6
CONTINUOUS
10
0.816211
20
1.15505
11
0.813514
21
1.1564
0
LINE
8
BLACK
6
CONTINUOUS
10
0.813514
20
1.1564
11
0.807409
21
1.1564
0
LINE
8
BLACK
6
CONTINUOUS
10
1.19767
20
1.14901
11
1.19781
21
1.14889
0
LINE
8
BLACK
6
CONTINUOUS
10
1.19781
20
1.14889
11
1.19798
21
1.14887
0
LINE
8
BLACK
6
CONTINUOUS
10
1.19798
20
1.14887
11
1.20173
21
1.147
0
LINE
8
BLACK
6
CONTINUOUS
10
1.20173
20
1.147
11
1.20256
21
1.14639
0
LINE
8
BLACK
6
CONTINUOUS
10
1.20256
20
1.14639
11
1.20336
21
1.14453
0
LINE
8
BLACK
6
CONTINUOUS
10
1.20336
20
1.14453
11
1.20278
21
1.1426
0
LINE
8
BLACK
6
CONTINUOUS
10
1.20278
20
1.1426
11
1.2011
21
1.14149
0
LINE
8
BLACK
6
CONTINUOUS
10
1.2011
20
1.14149
11
1.19909
21
1.14172
0
LINE
8
BLACK
6
CONTINUOUS
10
1.19909
20
1.14172
11
1.19597
21
1.14328
0
LINE
8
BLACK
6
CONTINUOUS
10
1.19597
20
1.14328
11
1.18986
21
1.14328
0
LINE
8
BLACK
6
CONTINUOUS
10
1.18986
20
1.14328
11
1.18716
21
1.14193
0
LINE
8
BLACK
6
CONTINUOUS
10
1.18716
20
1.14193
11
1.18597
21
1.14073
0
LINE
8
BLACK
6
CONTINUOUS
10
1.18597
20
1.14073
11
1.18462
21
1.13804
0
LINE
8
BLACK
6
CONTINUOUS
10
1.18462
20
1.13804
11
1.18462
21
1.12818
0
LINE
8
BLACK
6
CONTINUOUS
10
1.18462
20
1.12818
11
1.18597
21
1.12548
0
LINE
8
BLACK
6
CONTINUOUS
10
1.18597
20
1.12548
11
1.18716
21
1.12429
0
LINE
8
BLACK
6
CONTINUOUS
10
1.18716
20
1.12429
11
1.18986
21
1.12294
0
LINE
8
BLACK
6
CONTINUOUS
10
1.18986
20
1.12294
11
1.19597
21
1.12294
0
LINE
8
BLACK
6
CONTINUOUS
10
1.19597
20
1.12294
11
1.19909
21
1.1245
0
LINE
8
BLACK
6
CONTINUOUS
10
1.19909
20
1.1245
11
1.20007
21
1.12479
0
LINE
8
BLACK
6
CONTINUOUS
10
1.20007
20
1.12479
11
1.20204
21
1.12432
0
LINE
8
BLACK
6
CONTINUOUS
10
1.20204
20
1.12432
11
1.20324
21
1.1227
0
LINE
8
BLACK
6
CONTINUOUS
10
1.20324
20
1.1227
11
1.20312
21
1.12069
0
LINE
8
BLACK
6
CONTINUOUS
10
1.20312
20
1.12069
11
1.20173
21
1.11922
0
LINE
8
BLACK
6
CONTINUOUS
10
1.20173
20
1.11922
11
1.19798
21
1.11734
0
LINE
8
BLACK
6
CONTINUOUS
10
1.19798
20
1.11734
11
1.197
21
1.11705
0
LINE
8
BLACK
6
CONTINUOUS
10
1.197
20
1.11705
11
1.19683
21
1.11709
0
LINE
8
BLACK
6
CONTINUOUS
10
1.19683
20
1.11709
11
1.19666
21
1.11703
0
LINE
8
BLACK
6
CONTINUOUS
10
1.19666
20
1.11703
11
1.18916
21
1.11703
0
LINE
8
BLACK
6
CONTINUOUS
10
1.18916
20
1.11703
11
1.18815
21
1.11721
0
LINE
8
BLACK
6
CONTINUOUS
10
1.18815
20
1.11721
11
1.18802
21
1.11732
0
LINE
8
BLACK
6
CONTINUOUS
10
1.18802
20
1.11732
11
1.18784
21
1.11734
0
LINE
8
BLACK
6
CONTINUOUS
10
1.18784
20
1.11734
11
1.18409
21
1.11922
0
LINE
8
BLACK
6
CONTINUOUS
10
1.18409
20
1.11922
11
1.18338
21
1.11974
0
LINE
8
BLACK
6
CONTINUOUS
10
1.18338
20
1.11974
11
1.18333
21
1.11977
0
LINE
8
BLACK
6
CONTINUOUS
10
1.18333
20
1.11977
11
1.18145
21
1.12165
0
LINE
8
BLACK
6
CONTINUOUS
10
1.18145
20
1.12165
11
1.18095
21
1.12237
0
LINE
8
BLACK
6
CONTINUOUS
10
1.18095
20
1.12237
11
1.1809
21
1.12241
0
LINE
8
BLACK
6
CONTINUOUS
10
1.1809
20
1.12241
11
1.17902
21
1.12616
0
LINE
8
BLACK
6
CONTINUOUS
10
1.17902
20
1.12616
11
1.17873
21
1.12715
0
LINE
8
BLACK
6
CONTINUOUS
10
1.17873
20
1.12715
11
1.17877
21
1.12732
0
LINE
8
BLACK
6
CONTINUOUS
10
1.17877
20
1.12732
11
1.17871
21
1.12748
0
LINE
8
BLACK
6
CONTINUOUS
10
1.17871
20
1.12748
11
1.17871
21
1.13873
0
LINE
8
BLACK
6
CONTINUOUS
10
1.17871
20
1.13873
11
1.17889
21
1.13974
0
LINE
8
BLACK
6
CONTINUOUS
10
1.17889
20
1.13974
11
1.179
21
1.13988
0
LINE
8
BLACK
6
CONTINUOUS
10
1.179
20
1.13988
11
1.17902
21
1.14005
0
LINE
8
BLACK
6
CONTINUOUS
10
1.17902
20
1.14005
11
1.1809
21
1.1438
0
LINE
8
BLACK
6
CONTINUOUS
10
1.1809
20
1.1438
11
1.18142
21
1.14451
0
LINE
8
BLACK
6
CONTINUOUS
10
1.18142
20
1.14451
11
1.18145
21
1.14457
0
LINE
8
BLACK
6
CONTINUOUS
10
1.18145
20
1.14457
11
1.18333
21
1.14644
0
LINE
8
BLACK
6
CONTINUOUS
10
1.18333
20
1.14644
11
1.18405
21
1.14695
0
LINE
8
BLACK
6
CONTINUOUS
10
1.18405
20
1.14695
11
1.18409
21
1.147
0
LINE
8
BLACK
6
CONTINUOUS
10
1.18409
20
1.147
11
1.18784
21
1.14887
0
LINE
8
BLACK
6
CONTINUOUS
10
1.18784
20
1.14887
11
1.18883
21
1.14917
0
LINE
8
BLACK
6
CONTINUOUS
10
1.18883
20
1.14917
11
1.189
21
1.14912
0
LINE
8
BLACK
6
CONTINUOUS
10
1.189
20
1.14912
11
1.18916
21
1.14918
0
LINE
8
BLACK
6
CONTINUOUS
10
1.18916
20
1.14918
11
1.19666
21
1.14918
0
LINE
8
BLACK
6
CONTINUOUS
10
1.19666
20
1.14918
11
1.19767
21
1.14901
0
LINE
8
BLACK
6
CONTINUOUS
10
0.625869
20
1.16213
11
0.627417
21
1.16083
0
LINE
8
BLACK
6
CONTINUOUS
10
0.627417
20
1.16083
11
0.627767
21
1.15884
0
LINE
8
BLACK
6
CONTINUOUS
10
0.627767
20
1.15884
11
0.626757
21
1.15709
0
LINE
8
BLACK
6
CONTINUOUS
10
0.626757
20
1.15709
11
0.624859
21
1.1564
0
LINE
8
BLACK
6
CONTINUOUS
10
0.624859
20
1.1564
11
0.609064
21
1.1564
0
LINE
8
BLACK
6
CONTINUOUS
10
0.609064
20
1.1564
11
0.609064
21
1.14356
0
LINE
8
BLACK
6
CONTINUOUS
10
0.609064
20
1.14356
11
0.619235
21
1.14356
0
LINE
8
BLACK
6
CONTINUOUS
10
0.619235
20
1.14356
11
0.620245
21
1.14338
0
LINE
8
BLACK
6
CONTINUOUS
10
0.620245
20
1.14338
11
0.621792
21
1.14208
0
LINE
8
BLACK
6
CONTINUOUS
10
0.621792
20
1.14208
11
0.622143
21
1.14009
0
LINE
8
BLACK
6
CONTINUOUS
10
0.622143
20
1.14009
11
0.621133
21
1.13835
0
LINE
8
BLACK
6
CONTINUOUS
10
0.621133
20
1.13835
11
0.619235
21
1.13765
0
LINE
8
BLACK
6
CONTINUOUS
10
0.619235
20
1.13765
11
0.609064
21
1.13765
0
LINE
8
BLACK
6
CONTINUOUS
10
0.609064
20
1.13765
11
0.609064
21
1.12294
0
LINE
8
BLACK
6
CONTINUOUS
10
0.609064
20
1.12294
11
0.624859
21
1.12294
0
LINE
8
BLACK
6
CONTINUOUS
10
0.624859
20
1.12294
11
0.625869
21
1.12276
0
LINE
8
BLACK
6
CONTINUOUS
10
0.625869
20
1.12276
11
0.627417
21
1.12146
0
LINE
8
BLACK
6
CONTINUOUS
10
0.627417
20
1.12146
11
0.627767
21
1.11947
0
LINE
8
BLACK
6
CONTINUOUS
10
0.627767
20
1.11947
11
0.626757
21
1.11772
0
LINE
8
BLACK
6
CONTINUOUS
10
0.626757
20
1.11772
11
0.624859
21
1.11703
0
LINE
8
BLACK
6
CONTINUOUS
10
0.624859
20
1.11703
11
0.606112
21
1.11703
0
LINE
8
BLACK
6
CONTINUOUS
10
0.606112
20
1.11703
11
0.605728
21
1.1171
0
LINE
8
BLACK
6
CONTINUOUS
10
0.605728
20
1.1171
11
0.605599
21
1.11708
0
LINE
8
BLACK
6
CONTINUOUS
10
0.605599
20
1.11708
11
0.605485
21
1.11714
0
LINE
8
BLACK
6
CONTINUOUS
10
0.605485
20
1.11714
11
0.605102
21
1.11721
0
LINE
8
BLACK
6
CONTINUOUS
10
0.605102
20
1.11721
11
0.604514
21
1.1177
0
LINE
8
BLACK
6
CONTINUOUS
10
0.604514
20
1.1177
11
0.60385
21
1.11809
0
LINE
8
BLACK
6
CONTINUOUS
10
0.60385
20
1.11809
11
0.603759
21
1.11834
0
LINE
8
BLACK
6
CONTINUOUS
10
0.603759
20
1.11834
11
0.603555
21
1.11851
0
LINE
8
BLACK
6
CONTINUOUS
10
0.603555
20
1.11851
11
0.603421
21
1.11926
0
LINE
8
BLACK
6
CONTINUOUS
10
0.603421
20
1.11926
11
0.603159
21
1.11999
0
LINE
8
BLACK
6
CONTINUOUS
10
0.603159
20
1.11999
11
0.603159
21
1.15936
0
LINE
8
BLACK
6
CONTINUOUS
10
0.603159
20
1.15936
11
0.603227
21
1.15974
0
LINE
8
BLACK
6
CONTINUOUS
10
0.603227
20
1.15974
11
0.603204
21
1.15987
0
LINE
8
BLACK
6
CONTINUOUS
10
0.603204
20
1.15987
11
0.603269
21
1.15998
0
LINE
8
BLACK
6
CONTINUOUS
10
0.603269
20
1.15998
11
0.603337
21
1.16037
0
LINE
8
BLACK
6
CONTINUOUS
10
0.603337
20
1.16037
11
0.60383
21
1.16095
0
LINE
8
BLACK
6
CONTINUOUS
10
0.60383
20
1.16095
11
0.604214
21
1.16162
0
LINE
8
BLACK
6
CONTINUOUS
10
0.604214
20
1.16162
11
0.604464
21
1.16171
0
LINE
8
BLACK
6
CONTINUOUS
10
0.604464
20
1.16171
11
0.604635
21
1.16191
0
LINE
8
BLACK
6
CONTINUOUS
10
0.604635
20
1.16191
11
0.605391
21
1.16205
0
LINE
8
BLACK
6
CONTINUOUS
10
0.605391
20
1.16205
11
0.606112
21
1.16231
0
LINE
8
BLACK
6
CONTINUOUS
10
0.606112
20
1.16231
11
0.624859
21
1.16231
0
LINE
8
BLACK
6
CONTINUOUS
10
0.624859
20
1.16231
11
0.625869
21
1.16213
0
LINE
8
BLACK
6
CONTINUOUS
10
0.576503
20
1.16125
11
0.577193
21
1.15936
0
LINE
8
BLACK
6
CONTINUOUS
10
0.577193
20
1.15936
11
0.577193
21
1.12294
0
LINE
8
BLACK
6
CONTINUOUS
10
0.577193
20
1.12294
11
0.592988
21
1.12294
0
LINE
8
BLACK
6
CONTINUOUS
10
0.592988
20
1.12294
11
0.593998
21
1.12276
0
LINE
8
BLACK
6
CONTINUOUS
10
0.593998
20
1.12276
11
0.595546
21
1.12146
0
LINE
8
BLACK
6
CONTINUOUS
10
0.595546
20
1.12146
11
0.595896
21
1.11947
0
LINE
8
BLACK
6
CONTINUOUS
10
0.595896
20
1.11947
11
0.594886
21
1.11772
0
LINE
8
BLACK
6
CONTINUOUS
10
0.594886
20
1.11772
11
0.592988
21
1.11703
0
LINE
8
BLACK
6
CONTINUOUS
10
0.592988
20
1.11703
11
0.574241
21
1.11703
0
LINE
8
BLACK
6
CONTINUOUS
10
0.574241
20
1.11703
11
0.573857
21
1.1171
0
LINE
8
BLACK
6
CONTINUOUS
10
0.573857
20
1.1171
11
0.573728
21
1.11708
0
LINE
8
BLACK
6
CONTINUOUS
10
0.573728
20
1.11708
11
0.573614
21
1.11714
0
LINE
8
BLACK
6
CONTINUOUS
10
0.573614
20
1.11714
11
0.573231
21
1.11721
0
LINE
8
BLACK
6
CONTINUOUS
10
0.573231
20
1.11721
11
0.572643
21
1.1177
0
LINE
8
BLACK
6
CONTINUOUS
10
0.572643
20
1.1177
11
0.571979
21
1.11809
0
LINE
8
BLACK
6
CONTINUOUS
10
0.571979
20
1.11809
11
0.571888
21
1.11834
0
LINE
8
BLACK
6
CONTINUOUS
10
0.571888
20
1.11834
11
0.571684
21
1.11851
0
LINE
8
BLACK
6
CONTINUOUS
10
0.571684
20
1.11851
11
0.57155
21
1.11926
0
LINE
8
BLACK
6
CONTINUOUS
10
0.57155
20
1.11926
11
0.571288
21
1.11999
0
LINE
8
BLACK
6
CONTINUOUS
10
0.571288
20
1.11999
11
0.571288
21
1.15936
0
LINE
8
BLACK
6
CONTINUOUS
10
0.571288
20
1.15936
11
0.571466
21
1.16037
0
LINE
8
BLACK
6
CONTINUOUS
10
0.571466
20
1.16037
11
0.572764
21
1.16191
0
LINE
8
BLACK
6
CONTINUOUS
10
0.572764
20
1.16191
11
0.574753
21
1.16226
0
LINE
8
BLACK
6
CONTINUOUS
10
0.574753
20
1.16226
11
0.576503
21
1.16125
0
LINE
8
BLACK
6
CONTINUOUS
10
0.905209
20
1.16213
11
0.906757
21
1.16083
0
LINE
8
BLACK
6
CONTINUOUS
10
0.906757
20
1.16083
11
0.907107
21
1.15884
0
LINE
8
BLACK
6
CONTINUOUS
10
0.907107
20
1.15884
11
0.906097
21
1.15709
0
LINE
8
BLACK
6
CONTINUOUS
10
0.906097
20
1.15709
11
0.904199
21
1.1564
0
LINE
8
BLACK
6
CONTINUOUS
10
0.904199
20
1.1564
11
0.897397
21
1.1564
0
LINE
8
BLACK
6
CONTINUOUS
10
0.897397
20
1.1564
11
0.8947
21
1.15505
0
LINE
8
BLACK
6
CONTINUOUS
10
0.8947
20
1.15505
11
0.893371
21
1.15372
0
LINE
8
BLACK
6
CONTINUOUS
10
0.893371
20
1.15372
11
0.890067
21
1.14877
0
LINE
8
BLACK
6
CONTINUOUS
10
0.890067
20
1.14877
11
0.889338
21
1.14585
0
LINE
8
BLACK
6
CONTINUOUS
10
0.889338
20
1.14585
11
0.89163
21
1.147
0
LINE
8
BLACK
6
CONTINUOUS
10
0.89163
20
1.147
11
0.892613
21
1.14729
0
LINE
8
BLACK
6
CONTINUOUS
10
0.892613
20
1.14729
11
0.892785
21
1.14725
0
LINE
8
BLACK
6
CONTINUOUS
10
0.892785
20
1.14725
11
0.892951
21
1.14731
0
LINE
8
BLACK
6
CONTINUOUS
10
0.892951
20
1.14731
11
0.90045
21
1.14731
0
LINE
8
BLACK
6
CONTINUOUS
10
0.90045
20
1.14731
11
0.90146
21
1.14713
0
LINE
8
BLACK
6
CONTINUOUS
10
0.90146
20
1.14713
11
0.901595
21
1.14702
0
LINE
8
BLACK
6
CONTINUOUS
10
0.901595
20
1.14702
11
0.90177
21
1.147
0
LINE
8
BLACK
6
CONTINUOUS
10
0.90177
20
1.147
11
0.90552
21
1.14512
0
LINE
8
BLACK
6
CONTINUOUS
10
0.90552
20
1.14512
11
0.906229
21
1.1446
0
LINE
8
BLACK
6
CONTINUOUS
10
0.906229
20
1.1446
11
0.906287
21
1.14457
0
LINE
8
BLACK
6
CONTINUOUS
10
0.906287
20
1.14457
11
0.908162
21
1.1427
0
LINE
8
BLACK
6
CONTINUOUS
10
0.908162
20
1.1427
11
0.908668
21
1.14197
0
LINE
8
BLACK
6
CONTINUOUS
10
0.908668
20
1.14197
11
0.908715
21
1.14193
0
LINE
8
BLACK
6
CONTINUOUS
10
0.908715
20
1.14193
11
0.91059
21
1.13818
0
LINE
8
BLACK
6
CONTINUOUS
10
0.91059
20
1.13818
11
0.910882
21
1.1372
0
LINE
8
BLACK
6
CONTINUOUS
10
0.910882
20
1.1372
11
0.910841
21
1.13702
0
LINE
8
BLACK
6
CONTINUOUS
10
0.910841
20
1.13702
11
0.910902
21
1.13686
0
LINE
8
BLACK
6
CONTINUOUS
10
0.910902
20
1.13686
11
0.910902
21
1.12748
0
LINE
8
BLACK
6
CONTINUOUS
10
0.910902
20
1.12748
11
0.910724
21
1.12647
0
LINE
8
BLACK
6
CONTINUOUS
10
0.910724
20
1.12647
11
0.91061
21
1.12634
0
LINE
8
BLACK
6
CONTINUOUS
10
0.91061
20
1.12634
11
0.91059
21
1.12616
0
LINE
8
BLACK
6
CONTINUOUS
10
0.91059
20
1.12616
11
0.908715
21
1.12241
0
LINE
8
BLACK
6
CONTINUOUS
10
0.908715
20
1.12241
11
0.908189
21
1.1217
0
LINE
8
BLACK
6
CONTINUOUS
10
0.908189
20
1.1217
11
0.908162
21
1.12165
0
LINE
8
BLACK
6
CONTINUOUS
10
0.908162
20
1.12165
11
0.906287
21
1.11977
0
LINE
8
BLACK
6
CONTINUOUS
10
0.906287
20
1.11977
11
0.905564
21
1.11927
0
LINE
8
BLACK
6
CONTINUOUS
10
0.905564
20
1.11927
11
0.90552
21
1.11922
0
LINE
8
BLACK
6
CONTINUOUS
10
0.90552
20
1.11922
11
0.90177
21
1.11734
0
LINE
8
BLACK
6
CONTINUOUS
10
0.90177
20
1.11734
11
0.900787
21
1.11705
0
LINE
8
BLACK
6
CONTINUOUS
10
0.900787
20
1.11705
11
0.900616
21
1.11709
0
LINE
8
BLACK
6
CONTINUOUS
10
0.900616
20
1.11709
11
0.90045
21
1.11703
0
LINE
8
BLACK
6
CONTINUOUS
10
0.90045
20
1.11703
11
0.892951
21
1.11703
0
LINE
8
BLACK
6
CONTINUOUS
10
0.892951
20
1.11703
11
0.891941
21
1.11721
0
LINE
8
BLACK
6
CONTINUOUS
10
0.891941
20
1.11721
11
0.891806
21
1.11732
0
LINE
8
BLACK
6
CONTINUOUS
10
0.891806
20
1.11732
11
0.89163
21
1.11734
0
LINE
8
BLACK
6
CONTINUOUS
10
0.89163
20
1.11734
11
0.887881
21
1.11922
0
LINE
8
BLACK
6
CONTINUOUS
10
0.887881
20
1.11922
11
0.887172
21
1.11974
0
LINE
8
BLACK
6
CONTINUOUS
10
0.887172
20
1.11974
11
0.887113
21
1.11977
0
LINE
8
BLACK
6
CONTINUOUS
10
0.887113
20
1.11977
11
0.885239
21
1.12165
0
LINE
8
BLACK
6
CONTINUOUS
10
0.885239
20
1.12165
11
0.884732
21
1.12237
0
LINE
8
BLACK
6
CONTINUOUS
10
0.884732
20
1.12237
11
0.884686
21
1.12241
0
LINE
8
BLACK
6
CONTINUOUS
10
0.884686
20
1.12241
11
0.882811
21
1.12616
0
LINE
8
BLACK
6
CONTINUOUS
10
0.882811
20
1.12616
11
0.882518
21
1.12715
0
LINE
8
BLACK
6
CONTINUOUS
10
0.882518
20
1.12715
11
0.882559
21
1.12732
0
LINE
8
BLACK
6
CONTINUOUS
10
0.882559
20
1.12732
11
0.882499
21
1.12748
0
LINE
8
BLACK
6
CONTINUOUS
10
0.882499
20
1.12748
11
0.882499
21
1.14248
0
LINE
8
BLACK
6
CONTINUOUS
10
0.882499
20
1.14248
11
0.882601
21
1.14306
0
LINE
8
BLACK
6
CONTINUOUS
10
0.882601
20
1.14306
11
0.882587
21
1.1432
0
LINE
8
BLACK
6
CONTINUOUS
10
0.882587
20
1.1432
11
0.884462
21
1.1507
0
LINE
8
BLACK
6
CONTINUOUS
10
0.884462
20
1.1507
11
0.884866
21
1.1516
0
LINE
8
BLACK
6
CONTINUOUS
10
0.884866
20
1.1516
11
0.88487
21
1.15162
0
LINE
8
BLACK
6
CONTINUOUS
10
0.88487
20
1.15162
11
0.888619
21
1.15724
0
LINE
8
BLACK
6
CONTINUOUS
10
0.888619
20
1.15724
11
0.88893
21
1.15757
0
LINE
8
BLACK
6
CONTINUOUS
10
0.88893
20
1.15757
11
0.888988
21
1.15769
0
LINE
8
BLACK
6
CONTINUOUS
10
0.888988
20
1.15769
11
0.890863
21
1.15957
0
LINE
8
BLACK
6
CONTINUOUS
10
0.890863
20
1.15957
11
0.891586
21
1.16007
0
LINE
8
BLACK
6
CONTINUOUS
10
0.891586
20
1.16007
11
0.89163
21
1.16012
0
LINE
8
BLACK
6
CONTINUOUS
10
0.89163
20
1.16012
11
0.89538
21
1.162
0
LINE
8
BLACK
6
CONTINUOUS
10
0.89538
20
1.162
11
0.896363
21
1.16229
0
LINE
8
BLACK
6
CONTINUOUS
10
0.896363
20
1.16229
11
0.896534
21
1.16225
0
LINE
8
BLACK
6
CONTINUOUS
10
0.896534
20
1.16225
11
0.8967
21
1.16231
0
LINE
8
BLACK
6
CONTINUOUS
10
0.8967
20
1.16231
11
0.904199
21
1.16231
0
LINE
8
BLACK
6
CONTINUOUS
10
0.904199
20
1.16231
11
0.905209
21
1.16213
0
LINE
8
BLACK
6
CONTINUOUS
10
0.893648
20
1.1414
11
0.89095
21
1.14006
0
LINE
8
BLACK
6
CONTINUOUS
10
0.89095
20
1.14006
11
0.889753
21
1.13886
0
LINE
8
BLACK
6
CONTINUOUS
10
0.889753
20
1.13886
11
0.888405
21
1.13616
0
LINE
8
BLACK
6
CONTINUOUS
10
0.888405
20
1.13616
11
0.888405
21
1.12818
0
LINE
8
BLACK
6
CONTINUOUS
10
0.888405
20
1.12818
11
0.889753
21
1.12548
0
LINE
8
BLACK
6
CONTINUOUS
10
0.889753
20
1.12548
11
0.89095
21
1.12429
0
LINE
8
BLACK
6
CONTINUOUS
10
0.89095
20
1.12429
11
0.893648
21
1.12294
0
LINE
8
BLACK
6
CONTINUOUS
10
0.893648
20
1.12294
11
0.899753
21
1.12294
0
LINE
8
BLACK
6
CONTINUOUS
10
0.899753
20
1.12294
11
0.90245
21
1.12429
0
LINE
8
BLACK
6
CONTINUOUS
10
0.90245
20
1.12429
11
0.903647
21
1.12548
0
LINE
8
BLACK
6
CONTINUOUS
10
0.903647
20
1.12548
11
0.904996
21
1.12818
0
LINE
8
BLACK
6
CONTINUOUS
10
0.904996
20
1.12818
11
0.904996
21
1.13616
0
LINE
8
BLACK
6
CONTINUOUS
10
0.904996
20
1.13616
11
0.903647
21
1.13886
0
LINE
8
BLACK
6
CONTINUOUS
10
0.903647
20
1.13886
11
0.90245
21
1.14006
0
LINE
8
BLACK
6
CONTINUOUS
10
0.90245
20
1.14006
11
0.899753
21
1.1414
0
LINE
8
BLACK
6
CONTINUOUS
10
0.899753
20
1.1414
11
0.893648
21
1.1414
0
LINE
8
BLACK
6
CONTINUOUS
10
0.549004
20
1.16213
11
0.549139
21
1.16202
0
LINE
8
BLACK
6
CONTINUOUS
10
0.549139
20
1.16202
11
0.549315
21
1.162
0
LINE
8
BLACK
6
CONTINUOUS
10
0.549315
20
1.162
11
0.553064
21
1.16012
0
LINE
8
BLACK
6
CONTINUOUS
10
0.553064
20
1.16012
11
0.553773
21
1.1596
0
LINE
8
BLACK
6
CONTINUOUS
10
0.553773
20
1.1596
11
0.553831
21
1.15957
0
LINE
8
BLACK
6
CONTINUOUS
10
0.553831
20
1.15957
11
0.557581
21
1.15582
0
LINE
8
BLACK
6
CONTINUOUS
10
0.557581
20
1.15582
11
0.558169
21
1.15498
0
LINE
8
BLACK
6
CONTINUOUS
10
0.558169
20
1.15498
11
0.558195
21
1.15469
0
LINE
8
BLACK
6
CONTINUOUS
10
0.558195
20
1.15469
11
0.558358
21
1.15445
0
LINE
8
BLACK
6
CONTINUOUS
10
0.558358
20
1.15445
11
0.560232
21
1.14695
0
LINE
8
BLACK
6
CONTINUOUS
10
0.560232
20
1.14695
11
0.560274
21
1.14636
0
LINE
8
BLACK
6
CONTINUOUS
10
0.560274
20
1.14636
11
0.560321
21
1.14623
0
LINE
8
BLACK
6
CONTINUOUS
10
0.560321
20
1.14623
11
0.560321
21
1.13311
0
LINE
8
BLACK
6
CONTINUOUS
10
0.560321
20
1.13311
11
0.560218
21
1.13253
0
LINE
8
BLACK
6
CONTINUOUS
10
0.560218
20
1.13253
11
0.560232
21
1.13239
0
LINE
8
BLACK
6
CONTINUOUS
10
0.560232
20
1.13239
11
0.558358
21
1.12489
0
LINE
8
BLACK
6
CONTINUOUS
10
0.558358
20
1.12489
11
0.55794
21
1.12396
0
LINE
8
BLACK
6
CONTINUOUS
10
0.55794
20
1.12396
11
0.557704
21
1.12379
0
LINE
8
BLACK
6
CONTINUOUS
10
0.557704
20
1.12379
11
0.557581
21
1.12352
0
LINE
8
BLACK
6
CONTINUOUS
10
0.557581
20
1.12352
11
0.553831
21
1.11977
0
LINE
8
BLACK
6
CONTINUOUS
10
0.553831
20
1.11977
11
0.553108
21
1.11927
0
LINE
8
BLACK
6
CONTINUOUS
10
0.553108
20
1.11927
11
0.553064
21
1.11922
0
LINE
8
BLACK
6
CONTINUOUS
10
0.553064
20
1.11922
11
0.549314
21
1.11734
0
LINE
8
BLACK
6
CONTINUOUS
10
0.549314
20
1.11734
11
0.548332
21
1.11705
0
LINE
8
BLACK
6
CONTINUOUS
10
0.548332
20
1.11705
11
0.54816
21
1.11709
0
LINE
8
BLACK
6
CONTINUOUS
10
0.54816
20
1.11709
11
0.547994
21
1.11703
0
LINE
8
BLACK
6
CONTINUOUS
10
0.547994
20
1.11703
11
0.540495
21
1.11703
0
LINE
8
BLACK
6
CONTINUOUS
10
0.540495
20
1.11703
11
0.539485
21
1.11721
0
LINE
8
BLACK
6
CONTINUOUS
10
0.539485
20
1.11721
11
0.53935
21
1.11732
0
LINE
8
BLACK
6
CONTINUOUS
10
0.53935
20
1.11732
11
0.539174
21
1.11734
0
LINE
8
BLACK
6
CONTINUOUS
10
0.539174
20
1.11734
11
0.535425
21
1.11922
0
LINE
8
BLACK
6
CONTINUOUS
10
0.535425
20
1.11922
11
0.534716
21
1.11974
0
LINE
8
BLACK
6
CONTINUOUS
10
0.534716
20
1.11974
11
0.534657
21
1.11977
0
LINE
8
BLACK
6
CONTINUOUS
10
0.534657
20
1.11977
11
0.530908
21
1.12352
0
LINE
8
BLACK
6
CONTINUOUS
10
0.530908
20
1.12352
11
0.53032
21
1.12436
0
LINE
8
BLACK
6
CONTINUOUS
10
0.53032
20
1.12436
11
0.530294
21
1.12465
0
LINE
8
BLACK
6
CONTINUOUS
10
0.530294
20
1.12465
11
0.530131
21
1.12489
0
LINE
8
BLACK
6
CONTINUOUS
10
0.530131
20
1.12489
11
0.528256
21
1.13239
0
LINE
8
BLACK
6
CONTINUOUS
10
0.528256
20
1.13239
11
0.528215
21
1.13298
0
LINE
8
BLACK
6
CONTINUOUS
10
0.528215
20
1.13298
11
0.528168
21
1.13311
0
LINE
8
BLACK
6
CONTINUOUS
10
0.528168
20
1.13311
11
0.528168
21
1.14623
0
LINE
8
BLACK
6
CONTINUOUS
10
0.528168
20
1.14623
11
0.528271
21
1.14681
0
LINE
8
BLACK
6
CONTINUOUS
10
0.528271
20
1.14681
11
0.528256
21
1.14695
0
LINE
8
BLACK
6
CONTINUOUS
10
0.528256
20
1.14695
11
0.530131
21
1.15445
0
LINE
8
BLACK
6
CONTINUOUS
10
0.530131
20
1.15445
11
0.530549
21
1.15538
0
LINE
8
BLACK
6
CONTINUOUS
10
0.530549
20
1.15538
11
0.530785
21
1.15555
0
LINE
8
BLACK
6
CONTINUOUS
10
0.530785
20
1.15555
11
0.530908
21
1.15582
0
LINE
8
BLACK
6
CONTINUOUS
10
0.530908
20
1.15582
11
0.534657
21
1.15957
0
LINE
8
BLACK
6
CONTINUOUS
10
0.534657
20
1.15957
11
0.535381
21
1.16007
0
LINE
8
BLACK
6
CONTINUOUS
10
0.535381
20
1.16007
11
0.535425
21
1.16012
0
LINE
8
BLACK
6
CONTINUOUS
10
0.535425
20
1.16012
11
0.539174
21
1.162
0
LINE
8
BLACK
6
CONTINUOUS
10
0.539174
20
1.162
11
0.540157
21
1.16229
0
LINE
8
BLACK
6
CONTINUOUS
10
0.540157
20
1.16229
11
0.540329
21
1.16225
0
LINE
8
BLACK
6
CONTINUOUS
10
0.540329
20
1.16225
11
0.540495
21
1.16231
0
LINE
8
BLACK
6
CONTINUOUS
10
0.540495
20
1.16231
11
0.547994
21
1.16231
0
LINE
8
BLACK
6
CONTINUOUS
10
0.547994
20
1.16231
11
0.549004
21
1.16213
0
LINE
8
BLACK
6
CONTINUOUS
10
0.541192
20
1.1564
11
0.538494
21
1.15505
0
LINE
8
BLACK
6
CONTINUOUS
10
0.538494
20
1.15505
11
0.535662
21
1.15222
0
LINE
8
BLACK
6
CONTINUOUS
10
0.535662
20
1.15222
11
0.534074
21
1.14587
0
LINE
8
BLACK
6
CONTINUOUS
10
0.534074
20
1.14587
11
0.534074
21
1.13347
0
LINE
8
BLACK
6
CONTINUOUS
10
0.534074
20
1.13347
11
0.535662
21
1.12712
0
LINE
8
BLACK
6
CONTINUOUS
10
0.535662
20
1.12712
11
0.538494
21
1.12429
0
LINE
8
BLACK
6
CONTINUOUS
10
0.538494
20
1.12429
11
0.541192
21
1.12294
0
LINE
8
BLACK
6
CONTINUOUS
10
0.541192
20
1.12294
11
0.547297
21
1.12294
0
LINE
8
BLACK
6
CONTINUOUS
10
0.547297
20
1.12294
11
0.549994
21
1.12429
0
LINE
8
BLACK
6
CONTINUOUS
10
0.549994
20
1.12429
11
0.552827
21
1.12712
0
LINE
8
BLACK
6
CONTINUOUS
10
0.552827
20
1.12712
11
0.554415
21
1.13347
0
LINE
8
BLACK
6
CONTINUOUS
10
0.554415
20
1.13347
11
0.554415
21
1.14587
0
LINE
8
BLACK
6
CONTINUOUS
10
0.554415
20
1.14587
11
0.552827
21
1.15222
0
LINE
8
BLACK
6
CONTINUOUS
10
0.552827
20
1.15222
11
0.549994
21
1.15505
0
LINE
8
BLACK
6
CONTINUOUS
10
0.549994
20
1.15505
11
0.547297
21
1.1564
0
LINE
8
BLACK
6
CONTINUOUS
10
0.547297
20
1.1564
11
0.541192
21
1.1564
0
LINE
8
BLACK
6
CONTINUOUS
10
1.43202
20
1.14901
11
1.43215
21
1.14889
0
LINE
8
BLACK
6
CONTINUOUS
10
1.43215
20
1.14889
11
1.43233
21
1.14887
0
LINE
8
BLACK
6
CONTINUOUS
10
1.43233
20
1.14887
11
1.43608
21
1.147
0
LINE
8
BLACK
6
CONTINUOUS
10
1.43608
20
1.147
11
1.43679
21
1.14647
0
LINE
8
BLACK
6
CONTINUOUS
10
1.43679
20
1.14647
11
1.43685
21
1.14644
0
LINE
8
BLACK
6
CONTINUOUS
10
1.43685
20
1.14644
11
1.43872
21
1.14457
0
LINE
8
BLACK
6
CONTINUOUS
10
1.43872
20
1.14457
11
1.43923
21
1.14385
0
LINE
8
BLACK
6
CONTINUOUS
10
1.43923
20
1.14385
11
1.43927
21
1.1438
0
LINE
8
BLACK
6
CONTINUOUS
10
1.43927
20
1.1438
11
1.44115
21
1.14005
0
LINE
8
BLACK
6
CONTINUOUS
10
1.44115
20
1.14005
11
1.44144
21
1.13907
0
LINE
8
BLACK
6
CONTINUOUS
10
1.44144
20
1.13907
11
1.4414
21
1.1389
0
LINE
8
BLACK
6
CONTINUOUS
10
1.4414
20
1.1389
11
1.44146
21
1.13873
0
LINE
8
BLACK
6
CONTINUOUS
10
1.44146
20
1.13873
11
1.44146
21
1.12748
0
LINE
8
BLACK
6
CONTINUOUS
10
1.44146
20
1.12748
11
1.44128
21
1.12647
0
LINE
8
BLACK
6
CONTINUOUS
10
1.44128
20
1.12647
11
1.44117
21
1.12634
0
LINE
8
BLACK
6
CONTINUOUS
10
1.44117
20
1.12634
11
1.44115
21
1.12616
0
LINE
8
BLACK
6
CONTINUOUS
10
1.44115
20
1.12616
11
1.43927
21
1.12241
0
LINE
8
BLACK
6
CONTINUOUS
10
1.43927
20
1.12241
11
1.43875
21
1.1217
0
LINE
8
BLACK
6
CONTINUOUS
10
1.43875
20
1.1217
11
1.43872
21
1.12165
0
LINE
8
BLACK
6
CONTINUOUS
10
1.43872
20
1.12165
11
1.43685
21
1.11977
0
LINE
8
BLACK
6
CONTINUOUS
10
1.43685
20
1.11977
11
1.43612
21
1.11927
0
LINE
8
BLACK
6
CONTINUOUS
10
1.43612
20
1.11927
11
1.43608
21
1.11922
0
LINE
8
BLACK
6
CONTINUOUS
10
1.43608
20
1.11922
11
1.43233
21
1.11734
0
LINE
8
BLACK
6
CONTINUOUS
10
1.43233
20
1.11734
11
1.43135
21
1.11705
0
LINE
8
BLACK
6
CONTINUOUS
10
1.43135
20
1.11705
11
1.43117
21
1.11709
0
LINE
8
BLACK
6
CONTINUOUS
10
1.43117
20
1.11709
11
1.43101
21
1.11703
0
LINE
8
BLACK
6
CONTINUOUS
10
1.43101
20
1.11703
11
1.42538
21
1.11703
0
LINE
8
BLACK
6
CONTINUOUS
10
1.42538
20
1.11703
11
1.42437
21
1.11721
0
LINE
8
BLACK
6
CONTINUOUS
10
1.42437
20
1.11721
11
1.42424
21
1.11732
0
LINE
8
BLACK
6
CONTINUOUS
10
1.42424
20
1.11732
11
1.42406
21
1.11734
0
LINE
8
BLACK
6
CONTINUOUS
10
1.42406
20
1.11734
11
1.42031
21
1.11922
0
LINE
8
BLACK
6
CONTINUOUS
10
1.42031
20
1.11922
11
1.41961
21
1.11974
0
LINE
8
BLACK
6
CONTINUOUS
10
1.41961
20
1.11974
11
1.41955
21
1.11977
0
LINE
8
BLACK
6
CONTINUOUS
10
1.41955
20
1.11977
11
1.41767
21
1.12165
0
LINE
8
BLACK
6
CONTINUOUS
10
1.41767
20
1.12165
11
1.41717
21
1.12237
0
LINE
8
BLACK
6
CONTINUOUS
10
1.41717
20
1.12237
11
1.41712
21
1.12241
0
LINE
8
BLACK
6
CONTINUOUS
10
1.41712
20
1.12241
11
1.41524
21
1.12616
0
LINE
8
BLACK
6
CONTINUOUS
10
1.41524
20
1.12616
11
1.41495
21
1.12715
0
LINE
8
BLACK
6
CONTINUOUS
10
1.41495
20
1.12715
11
1.41499
21
1.12732
0
LINE
8
BLACK
6
CONTINUOUS
10
1.41499
20
1.12732
11
1.41493
21
1.12748
0
LINE
8
BLACK
6
CONTINUOUS
10
1.41493
20
1.12748
11
1.41493
21
1.13873
0
LINE
8
BLACK
6
CONTINUOUS
10
1.41493
20
1.13873
11
1.41511
21
1.13974
0
LINE
8
BLACK
6
CONTINUOUS
10
1.41511
20
1.13974
11
1.41522
21
1.13988
0
LINE
8
BLACK
6
CONTINUOUS
10
1.41522
20
1.13988
11
1.41524
21
1.14005
0
LINE
8
BLACK
6
CONTINUOUS
10
1.41524
20
1.14005
11
1.41712
21
1.1438
0
LINE
8
BLACK
6
CONTINUOUS
10
1.41712
20
1.1438
11
1.41764
21
1.14451
0
LINE
8
BLACK
6
CONTINUOUS
10
1.41764
20
1.14451
11
1.41767
21
1.14457
0
LINE
8
BLACK
6
CONTINUOUS
10
1.41767
20
1.14457
11
1.41955
21
1.14644
0
LINE
8
BLACK
6
CONTINUOUS
10
1.41955
20
1.14644
11
1.42027
21
1.14695
0
LINE
8
BLACK
6
CONTINUOUS
10
1.42027
20
1.14695
11
1.42031
21
1.147
0
LINE
8
BLACK
6
CONTINUOUS
10
1.42031
20
1.147
11
1.42406
21
1.14887
0
LINE
8
BLACK
6
CONTINUOUS
10
1.42406
20
1.14887
11
1.42505
21
1.14917
0
LINE
8
BLACK
6
CONTINUOUS
10
1.42505
20
1.14917
11
1.42522
21
1.14912
0
LINE
8
BLACK
6
CONTINUOUS
10
1.42522
20
1.14912
11
1.42538
21
1.14918
0
LINE
8
BLACK
6
CONTINUOUS
10
1.42538
20
1.14918
11
1.43101
21
1.14918
0
LINE
8
BLACK
6
CONTINUOUS
10
1.43101
20
1.14918
11
1.43202
21
1.14901
0
LINE
8
BLACK
6
CONTINUOUS
10
1.42608
20
1.14328
11
1.42338
21
1.14193
0
LINE
8
BLACK
6
CONTINUOUS
10
1.42338
20
1.14193
11
1.42219
21
1.14073
0
LINE
8
BLACK
6
CONTINUOUS
10
1.42219
20
1.14073
11
1.42084
21
1.13804
0
LINE
8
BLACK
6
CONTINUOUS
10
1.42084
20
1.13804
11
1.42084
21
1.12818
0
LINE
8
BLACK
6
CONTINUOUS
10
1.42084
20
1.12818
11
1.42219
21
1.12548
0
LINE
8
BLACK
6
CONTINUOUS
10
1.42219
20
1.12548
11
1.42338
21
1.12429
0
LINE
8
BLACK
6
CONTINUOUS
10
1.42338
20
1.12429
11
1.42608
21
1.12294
0
LINE
8
BLACK
6
CONTINUOUS
10
1.42608
20
1.12294
11
1.43031
21
1.12294
0
LINE
8
BLACK
6
CONTINUOUS
10
1.43031
20
1.12294
11
1.43301
21
1.12429
0
LINE
8
BLACK
6
CONTINUOUS
10
1.43301
20
1.12429
11
1.43421
21
1.12548
0
LINE
8
BLACK
6
CONTINUOUS
10
1.43421
20
1.12548
11
1.43555
21
1.12818
0
LINE
8
BLACK
6
CONTINUOUS
10
1.43555
20
1.12818
11
1.43555
21
1.13804
0
LINE
8
BLACK
6
CONTINUOUS
10
1.43555
20
1.13804
11
1.43421
21
1.14073
0
LINE
8
BLACK
6
CONTINUOUS
10
1.43421
20
1.14073
11
1.43301
21
1.14193
0
LINE
8
BLACK
6
CONTINUOUS
10
1.43301
20
1.14193
11
1.43031
21
1.14328
0
LINE
8
BLACK
6
CONTINUOUS
10
1.43031
20
1.14328
11
1.42608
21
1.14328
0
LINE
8
BLACK
6
CONTINUOUS
10
1.46951
20
1.14901
11
1.46965
21
1.14889
0
LINE
8
BLACK
6
CONTINUOUS
10
1.46965
20
1.14889
11
1.46982
21
1.14887
0
LINE
8
BLACK
6
CONTINUOUS
10
1.46982
20
1.14887
11
1.47357
21
1.147
0
LINE
8
BLACK
6
CONTINUOUS
10
1.47357
20
1.147
11
1.4744
21
1.14639
0
LINE
8
BLACK
6
CONTINUOUS
10
1.4744
20
1.14639
11
1.4752
21
1.14453
0
LINE
8
BLACK
6
CONTINUOUS
10
1.4752
20
1.14453
11
1.47463
21
1.1426
0
LINE
8
BLACK
6
CONTINUOUS
10
1.47463
20
1.1426
11
1.47294
21
1.14149
0
LINE
8
BLACK
6
CONTINUOUS
10
1.47294
20
1.14149
11
1.47093
21
1.14172
0
LINE
8
BLACK
6
CONTINUOUS
10
1.47093
20
1.14172
11
1.46781
21
1.14328
0
LINE
8
BLACK
6
CONTINUOUS
10
1.46781
20
1.14328
11
1.4617
21
1.14328
0
LINE
8
BLACK
6
CONTINUOUS
10
1.4617
20
1.14328
11
1.459
21
1.14193
0
LINE
8
BLACK
6
CONTINUOUS
10
1.459
20
1.14193
11
1.45781
21
1.14073
0
LINE
8
BLACK
6
CONTINUOUS
10
1.45781
20
1.14073
11
1.45646
21
1.13804
0
LINE
8
BLACK
6
CONTINUOUS
10
1.45646
20
1.13804
11
1.45646
21
1.12818
0
LINE
8
BLACK
6
CONTINUOUS
10
1.45646
20
1.12818
11
1.45781
21
1.12548
0
LINE
8
BLACK
6
CONTINUOUS
10
1.45781
20
1.12548
11
1.459
21
1.12429
0
LINE
8
BLACK
6
CONTINUOUS
10
1.459
20
1.12429
11
1.4617
21
1.12294
0
LINE
8
BLACK
6
CONTINUOUS
10
1.4617
20
1.12294
11
1.46781
21
1.12294
0
LINE
8
BLACK
6
CONTINUOUS
10
1.46781
20
1.12294
11
1.47093
21
1.1245
0
LINE
8
BLACK
6
CONTINUOUS
10
1.47093
20
1.1245
11
1.47192
21
1.12479
0
LINE
8
BLACK
6
CONTINUOUS
10
1.47192
20
1.12479
11
1.47388
21
1.12432
0
LINE
8
BLACK
6
CONTINUOUS
10
1.47388
20
1.12432
11
1.47508
21
1.1227
0
LINE
8
BLACK
6
CONTINUOUS
10
1.47508
20
1.1227
11
1.47496
21
1.12069
0
LINE
8
BLACK
6
CONTINUOUS
10
1.47496
20
1.12069
11
1.47357
21
1.11922
0
LINE
8
BLACK
6
CONTINUOUS
10
1.47357
20
1.11922
11
1.46982
21
1.11734
0
LINE
8
BLACK
6
CONTINUOUS
10
1.46982
20
1.11734
11
1.46884
21
1.11705
0
LINE
8
BLACK
6
CONTINUOUS
10
1.46884
20
1.11705
11
1.46867
21
1.11709
0
LINE
8
BLACK
6
CONTINUOUS
10
1.46867
20
1.11709
11
1.4685
21
1.11703
0
LINE
8
BLACK
6
CONTINUOUS
10
1.4685
20
1.11703
11
1.461
21
1.11703
0
LINE
8
BLACK
6
CONTINUOUS
10
1.461
20
1.11703
11
1.45999
21
1.11721
0
LINE
8
BLACK
6
CONTINUOUS
10
1.45999
20
1.11721
11
1.45986
21
1.11732
0
LINE
8
BLACK
6
CONTINUOUS
10
1.45986
20
1.11732
11
1.45968
21
1.11734
0
LINE
8
BLACK
6
CONTINUOUS
10
1.45968
20
1.11734
11
1.45593
21
1.11922
0
LINE
8
BLACK
6
CONTINUOUS
10
1.45593
20
1.11922
11
1.45523
21
1.11974
0
LINE
8
BLACK
6
CONTINUOUS
10
1.45523
20
1.11974
11
1.45517
21
1.11977
0
LINE
8
BLACK
6
CONTINUOUS
10
1.45517
20
1.11977
11
1.45329
21
1.12165
0
LINE
8
BLACK
6
CONTINUOUS
10
1.45329
20
1.12165
11
1.45279
21
1.12237
0
LINE
8
BLACK
6
CONTINUOUS
10
1.45279
20
1.12237
11
1.45274
21
1.12241
0
LINE
8
BLACK
6
CONTINUOUS
10
1.45274
20
1.12241
11
1.45086
21
1.12616
0
LINE
8
BLACK
6
CONTINUOUS
10
1.45086
20
1.12616
11
1.45057
21
1.12715
0
LINE
8
BLACK
6
CONTINUOUS
10
1.45057
20
1.12715
11
1.45061
21
1.12732
0
LINE
8
BLACK
6
CONTINUOUS
10
1.45061
20
1.12732
11
1.45055
21
1.12748
0
LINE
8
BLACK
6
CONTINUOUS
10
1.45055
20
1.12748
11
1.45055
21
1.13873
0
LINE
8
BLACK
6
CONTINUOUS
10
1.45055
20
1.13873
11
1.45073
21
1.13974
0
LINE
8
BLACK
6
CONTINUOUS
10
1.45073
20
1.13974
11
1.45084
21
1.13988
0
LINE
8
BLACK
6
CONTINUOUS
10
1.45084
20
1.13988
11
1.45086
21
1.14005
0
LINE
8
BLACK
6
CONTINUOUS
10
1.45086
20
1.14005
11
1.45274
21
1.1438
0
LINE
8
BLACK
6
CONTINUOUS
10
1.45274
20
1.1438
11
1.45327
21
1.14451
0
LINE
8
BLACK
6
CONTINUOUS
10
1.45327
20
1.14451
11
1.45329
21
1.14457
0
LINE
8
BLACK
6
CONTINUOUS
10
1.45329
20
1.14457
11
1.45517
21
1.14644
0
LINE
8
BLACK
6
CONTINUOUS
10
1.45517
20
1.14644
11
1.45589
21
1.14695
0
LINE
8
BLACK
6
CONTINUOUS
10
1.45589
20
1.14695
11
1.45593
21
1.147
0
LINE
8
BLACK
6
CONTINUOUS
10
1.45593
20
1.147
11
1.45968
21
1.14887
0
LINE
8
BLACK
6
CONTINUOUS
10
1.45968
20
1.14887
11
1.46067
21
1.14917
0
LINE
8
BLACK
6
CONTINUOUS
10
1.46067
20
1.14917
11
1.46084
21
1.14912
0
LINE
8
BLACK
6
CONTINUOUS
10
1.46084
20
1.14912
11
1.461
21
1.14918
0
LINE
8
BLACK
6
CONTINUOUS
10
1.461
20
1.14918
11
1.4685
21
1.14918
0
LINE
8
BLACK
6
CONTINUOUS
10
1.4685
20
1.14918
11
1.46951
21
1.14901
0
LINE
8
BLACK
6
CONTINUOUS
10
1.39827
20
1.14901
11
1.39841
21
1.14889
0
LINE
8
BLACK
6
CONTINUOUS
10
1.39841
20
1.14889
11
1.39858
21
1.14887
0
LINE
8
BLACK
6
CONTINUOUS
10
1.39858
20
1.14887
11
1.40233
21
1.147
0
LINE
8
BLACK
6
CONTINUOUS
10
1.40233
20
1.147
11
1.40316
21
1.14639
0
LINE
8
BLACK
6
CONTINUOUS
10
1.40316
20
1.14639
11
1.40396
21
1.14453
0
LINE
8
BLACK
6
CONTINUOUS
10
1.40396
20
1.14453
11
1.40338
21
1.1426
0
LINE
8
BLACK
6
CONTINUOUS
10
1.40338
20
1.1426
11
1.4017
21
1.14149
0
LINE
8
BLACK
6
CONTINUOUS
10
1.4017
20
1.14149
11
1.39969
21
1.14172
0
LINE
8
BLACK
6
CONTINUOUS
10
1.39969
20
1.14172
11
1.39657
21
1.14328
0
LINE
8
BLACK
6
CONTINUOUS
10
1.39657
20
1.14328
11
1.39234
21
1.14328
0
LINE
8
BLACK
6
CONTINUOUS
10
1.39234
20
1.14328
11
1.39009
21
1.14216
0
LINE
8
BLACK
6
CONTINUOUS
10
1.39009
20
1.14216
11
1.38897
21
1.13991
0
LINE
8
BLACK
6
CONTINUOUS
10
1.38897
20
1.13991
11
1.38897
21
1.13943
0
LINE
8
BLACK
6
CONTINUOUS
10
1.38897
20
1.13943
11
1.39009
21
1.13718
0
LINE
8
BLACK
6
CONTINUOUS
10
1.39009
20
1.13718
11
1.39234
21
1.13606
0
LINE
8
BLACK
6
CONTINUOUS
10
1.39234
20
1.13606
11
1.39726
21
1.13606
0
LINE
8
BLACK
6
CONTINUOUS
10
1.39726
20
1.13606
11
1.39827
21
1.13588
0
LINE
8
BLACK
6
CONTINUOUS
10
1.39827
20
1.13588
11
1.39841
21
1.13577
0
LINE
8
BLACK
6
CONTINUOUS
10
1.39841
20
1.13577
11
1.39858
21
1.13575
0
LINE
8
BLACK
6
CONTINUOUS
10
1.39858
20
1.13575
11
1.40233
21
1.13387
0
LINE
8
BLACK
6
CONTINUOUS
10
1.40233
20
1.13387
11
1.40316
21
1.13326
0
LINE
8
BLACK
6
CONTINUOUS
10
1.40316
20
1.13326
11
1.40333
21
1.13286
0
LINE
8
BLACK
6
CONTINUOUS
10
1.40333
20
1.13286
11
1.40365
21
1.13255
0
LINE
8
BLACK
6
CONTINUOUS
10
1.40365
20
1.13255
11
1.40553
21
1.1288
0
LINE
8
BLACK
6
CONTINUOUS
10
1.40553
20
1.1288
11
1.40582
21
1.12782
0
LINE
8
BLACK
6
CONTINUOUS
10
1.40582
20
1.12782
11
1.40578
21
1.12765
0
LINE
8
BLACK
6
CONTINUOUS
10
1.40578
20
1.12765
11
1.40584
21
1.12748
0
LINE
8
BLACK
6
CONTINUOUS
10
1.40584
20
1.12748
11
1.40584
21
1.12561
0
LINE
8
BLACK
6
CONTINUOUS
10
1.40584
20
1.12561
11
1.40566
21
1.1246
0
LINE
8
BLACK
6
CONTINUOUS
10
1.40566
20
1.1246
11
1.40555
21
1.12446
0
LINE
8
BLACK
6
CONTINUOUS
10
1.40555
20
1.12446
11
1.40553
21
1.12429
0
LINE
8
BLACK
6
CONTINUOUS
10
1.40553
20
1.12429
11
1.40365
21
1.12054
0
LINE
8
BLACK
6
CONTINUOUS
10
1.40365
20
1.12054
11
1.40304
21
1.11972
0
LINE
8
BLACK
6
CONTINUOUS
10
1.40304
20
1.11972
11
1.40264
21
1.11954
0
LINE
8
BLACK
6
CONTINUOUS
10
1.40264
20
1.11954
11
1.40233
21
1.11922
0
LINE
8
BLACK
6
CONTINUOUS
10
1.40233
20
1.11922
11
1.39858
21
1.11734
0
LINE
8
BLACK
6
CONTINUOUS
10
1.39858
20
1.11734
11
1.3976
21
1.11705
0
LINE
8
BLACK
6
CONTINUOUS
10
1.3976
20
1.11705
11
1.39743
21
1.11709
0
LINE
8
BLACK
6
CONTINUOUS
10
1.39743
20
1.11709
11
1.39726
21
1.11703
0
LINE
8
BLACK
6
CONTINUOUS
10
1.39726
20
1.11703
11
1.38976
21
1.11703
0
LINE
8
BLACK
6
CONTINUOUS
10
1.38976
20
1.11703
11
1.38875
21
1.11721
0
LINE
8
BLACK
6
CONTINUOUS
10
1.38875
20
1.11721
11
1.38862
21
1.11732
0
LINE
8
BLACK
6
CONTINUOUS
10
1.38862
20
1.11732
11
1.38844
21
1.11734
0
LINE
8
BLACK
6
CONTINUOUS
10
1.38844
20
1.11734
11
1.38469
21
1.11922
0
LINE
8
BLACK
6
CONTINUOUS
10
1.38469
20
1.11922
11
1.38387
21
1.11983
0
LINE
8
BLACK
6
CONTINUOUS
10
1.38387
20
1.11983
11
1.38307
21
1.12168
0
LINE
8
BLACK
6
CONTINUOUS
10
1.38307
20
1.12168
11
1.38364
21
1.12362
0
LINE
8
BLACK
6
CONTINUOUS
10
1.38364
20
1.12362
11
1.38533
21
1.12473
0
LINE
8
BLACK
6
CONTINUOUS
10
1.38533
20
1.12473
11
1.38733
21
1.1245
0
LINE
8
BLACK
6
CONTINUOUS
10
1.38733
20
1.1245
11
1.39046
21
1.12294
0
LINE
8
BLACK
6
CONTINUOUS
10
1.39046
20
1.12294
11
1.39657
21
1.12294
0
LINE
8
BLACK
6
CONTINUOUS
10
1.39657
20
1.12294
11
1.39881
21
1.12406
0
LINE
8
BLACK
6
CONTINUOUS
10
1.39881
20
1.12406
11
1.39993
21
1.12631
0
LINE
8
BLACK
6
CONTINUOUS
10
1.39993
20
1.12631
11
1.39993
21
1.12679
0
LINE
8
BLACK
6
CONTINUOUS
10
1.39993
20
1.12679
11
1.39881
21
1.12903
0
LINE
8
BLACK
6
CONTINUOUS
10
1.39881
20
1.12903
11
1.39657
21
1.13016
0
LINE
8
BLACK
6
CONTINUOUS
10
1.39657
20
1.13016
11
1.39164
21
1.13016
0
LINE
8
BLACK
6
CONTINUOUS
10
1.39164
20
1.13016
11
1.39063
21
1.13033
0
LINE
8
BLACK
6
CONTINUOUS
10
1.39063
20
1.13033
11
1.39049
21
1.13045
0
LINE
8
BLACK
6
CONTINUOUS
10
1.39049
20
1.13045
11
1.39032
21
1.13047
0
LINE
8
BLACK
6
CONTINUOUS
10
1.39032
20
1.13047
11
1.38657
21
1.13234
0
LINE
8
BLACK
6
CONTINUOUS
10
1.38657
20
1.13234
11
1.38574
21
1.13295
0
LINE
8
BLACK
6
CONTINUOUS
10
1.38574
20
1.13295
11
1.38557
21
1.13336
0
LINE
8
BLACK
6
CONTINUOUS
10
1.38557
20
1.13336
11
1.38525
21
1.13366
0
LINE
8
BLACK
6
CONTINUOUS
10
1.38525
20
1.13366
11
1.38337
21
1.13741
0
LINE
8
BLACK
6
CONTINUOUS
10
1.38337
20
1.13741
11
1.38308
21
1.1384
0
LINE
8
BLACK
6
CONTINUOUS
10
1.38308
20
1.1384
11
1.38312
21
1.13857
0
LINE
8
BLACK
6
CONTINUOUS
10
1.38312
20
1.13857
11
1.38306
21
1.13873
0
LINE
8
BLACK
6
CONTINUOUS
10
1.38306
20
1.13873
11
1.38306
21
1.14061
0
LINE
8
BLACK
6
CONTINUOUS
10
1.38306
20
1.14061
11
1.38324
21
1.14162
0
LINE
8
BLACK
6
CONTINUOUS
10
1.38324
20
1.14162
11
1.38335
21
1.14175
0
LINE
8
BLACK
6
CONTINUOUS
10
1.38335
20
1.14175
11
1.38337
21
1.14193
0
LINE
8
BLACK
6
CONTINUOUS
10
1.38337
20
1.14193
11
1.38525
21
1.14568
0
LINE
8
BLACK
6
CONTINUOUS
10
1.38525
20
1.14568
11
1.38586
21
1.1465
0
LINE
8
BLACK
6
CONTINUOUS
10
1.38586
20
1.1465
11
1.38626
21
1.14668
0
LINE
8
BLACK
6
CONTINUOUS
10
1.38626
20
1.14668
11
1.38657
21
1.147
0
LINE
8
BLACK
6
CONTINUOUS
10
1.38657
20
1.147
11
1.39032
21
1.14887
0
LINE
8
BLACK
6
CONTINUOUS
10
1.39032
20
1.14887
11
1.3913
21
1.14917
0
LINE
8
BLACK
6
CONTINUOUS
10
1.3913
20
1.14917
11
1.39147
21
1.14912
0
LINE
8
BLACK
6
CONTINUOUS
10
1.39147
20
1.14912
11
1.39164
21
1.14918
0
LINE
8
BLACK
6
CONTINUOUS
10
1.39164
20
1.14918
11
1.39726
21
1.14918
0
LINE
8
BLACK
6
CONTINUOUS
10
1.39726
20
1.14918
11
1.39827
21
1.14901
0
LINE
8
BLACK
6
CONTINUOUS
10
1.16205
20
1.14901
11
1.16219
21
1.14889
0
LINE
8
BLACK
6
CONTINUOUS
10
1.16219
20
1.14889
11
1.16236
21
1.14887
0
LINE
8
BLACK
6
CONTINUOUS
10
1.16236
20
1.14887
11
1.16611
21
1.147
0
LINE
8
BLACK
6
CONTINUOUS
10
1.16611
20
1.147
11
1.16694
21
1.14639
0
LINE
8
BLACK
6
CONTINUOUS
10
1.16694
20
1.14639
11
1.16711
21
1.14598
0
LINE
8
BLACK
6
CONTINUOUS
10
1.16711
20
1.14598
11
1.16743
21
1.14568
0
LINE
8
BLACK
6
CONTINUOUS
10
1.16743
20
1.14568
11
1.16931
21
1.14193
0
LINE
8
BLACK
6
CONTINUOUS
10
1.16931
20
1.14193
11
1.1696
21
1.14095
0
LINE
8
BLACK
6
CONTINUOUS
10
1.1696
20
1.14095
11
1.16956
21
1.14077
0
LINE
8
BLACK
6
CONTINUOUS
10
1.16956
20
1.14077
11
1.16962
21
1.14061
0
LINE
8
BLACK
6
CONTINUOUS
10
1.16962
20
1.14061
11
1.16962
21
1.13686
0
LINE
8
BLACK
6
CONTINUOUS
10
1.16962
20
1.13686
11
1.16944
21
1.13585
0
LINE
8
BLACK
6
CONTINUOUS
10
1.16944
20
1.13585
11
1.16913
21
1.13547
0
LINE
8
BLACK
6
CONTINUOUS
10
1.16913
20
1.13547
11
1.16897
21
1.13501
0
LINE
8
BLACK
6
CONTINUOUS
10
1.16897
20
1.13501
11
1.1685
21
1.13472
0
LINE
8
BLACK
6
CONTINUOUS
10
1.1685
20
1.13472
11
1.16814
21
1.1343
0
LINE
8
BLACK
6
CONTINUOUS
10
1.16814
20
1.1343
11
1.16766
21
1.13422
0
LINE
8
BLACK
6
CONTINUOUS
10
1.16766
20
1.13422
11
1.16725
21
1.13396
0
LINE
8
BLACK
6
CONTINUOUS
10
1.16725
20
1.13396
11
1.15087
21
1.13069
0
LINE
8
BLACK
6
CONTINUOUS
10
1.15087
20
1.13069
11
1.15087
21
1.12631
0
LINE
8
BLACK
6
CONTINUOUS
10
1.15087
20
1.12631
11
1.15199
21
1.12406
0
LINE
8
BLACK
6
CONTINUOUS
10
1.15199
20
1.12406
11
1.15424
21
1.12294
0
LINE
8
BLACK
6
CONTINUOUS
10
1.15424
20
1.12294
11
1.16035
21
1.12294
0
LINE
8
BLACK
6
CONTINUOUS
10
1.16035
20
1.12294
11
1.16347
21
1.1245
0
LINE
8
BLACK
6
CONTINUOUS
10
1.16347
20
1.1245
11
1.16445
21
1.12479
0
LINE
8
BLACK
6
CONTINUOUS
10
1.16445
20
1.12479
11
1.16642
21
1.12432
0
LINE
8
BLACK
6
CONTINUOUS
10
1.16642
20
1.12432
11
1.16762
21
1.1227
0
LINE
8
BLACK
6
CONTINUOUS
10
1.16762
20
1.1227
11
1.1675
21
1.12069
0
LINE
8
BLACK
6
CONTINUOUS
10
1.1675
20
1.12069
11
1.16611
21
1.11922
0
LINE
8
BLACK
6
CONTINUOUS
10
1.16611
20
1.11922
11
1.16236
21
1.11734
0
LINE
8
BLACK
6
CONTINUOUS
10
1.16236
20
1.11734
11
1.16138
21
1.11705
0
LINE
8
BLACK
6
CONTINUOUS
10
1.16138
20
1.11705
11
1.16121
21
1.11709
0
LINE
8
BLACK
6
CONTINUOUS
10
1.16121
20
1.11709
11
1.16104
21
1.11703
0
LINE
8
BLACK
6
CONTINUOUS
10
1.16104
20
1.11703
11
1.15354
21
1.11703
0
LINE
8
BLACK
6
CONTINUOUS
10
1.15354
20
1.11703
11
1.15253
21
1.11721
0
LINE
8
BLACK
6
CONTINUOUS
10
1.15253
20
1.11721
11
1.1524
21
1.11732
0
LINE
8
BLACK
6
CONTINUOUS
10
1.1524
20
1.11732
11
1.15222
21
1.11734
0
LINE
8
BLACK
6
CONTINUOUS
10
1.15222
20
1.11734
11
1.14847
21
1.11922
0
LINE
8
BLACK
6
CONTINUOUS
10
1.14847
20
1.11922
11
1.14765
21
1.11983
0
LINE
8
BLACK
6
CONTINUOUS
10
1.14765
20
1.11983
11
1.14747
21
1.12024
0
LINE
8
BLACK
6
CONTINUOUS
10
1.14747
20
1.12024
11
1.14715
21
1.12054
0
LINE
8
BLACK
6
CONTINUOUS
10
1.14715
20
1.12054
11
1.14528
21
1.12429
0
LINE
8
BLACK
6
CONTINUOUS
10
1.14528
20
1.12429
11
1.14499
21
1.12527
0
LINE
8
BLACK
6
CONTINUOUS
10
1.14499
20
1.12527
11
1.14503
21
1.12544
0
LINE
8
BLACK
6
CONTINUOUS
10
1.14503
20
1.12544
11
1.14497
21
1.12561
0
LINE
8
BLACK
6
CONTINUOUS
10
1.14497
20
1.12561
11
1.14497
21
1.14061
0
LINE
8
BLACK
6
CONTINUOUS
10
1.14497
20
1.14061
11
1.14514
21
1.14162
0
LINE
8
BLACK
6
CONTINUOUS
10
1.14514
20
1.14162
11
1.14526
21
1.14175
0
LINE
8
BLACK
6
CONTINUOUS
10
1.14526
20
1.14175
11
1.14528
21
1.14193
0
LINE
8
BLACK
6
CONTINUOUS
10
1.14528
20
1.14193
11
1.14715
21
1.14568
0
LINE
8
BLACK
6
CONTINUOUS
10
1.14715
20
1.14568
11
1.14776
21
1.1465
0
LINE
8
BLACK
6
CONTINUOUS
10
1.14776
20
1.1465
11
1.14817
21
1.14668
0
LINE
8
BLACK
6
CONTINUOUS
10
1.14817
20
1.14668
11
1.14847
21
1.147
0
LINE
8
BLACK
6
CONTINUOUS
10
1.14847
20
1.147
11
1.15222
21
1.14887
0
LINE
8
BLACK
6
CONTINUOUS
10
1.15222
20
1.14887
11
1.15321
21
1.14917
0
LINE
8
BLACK
6
CONTINUOUS
10
1.15321
20
1.14917
11
1.15338
21
1.14912
0
LINE
8
BLACK
6
CONTINUOUS
10
1.15338
20
1.14912
11
1.15354
21
1.14918
0
LINE
8
BLACK
6
CONTINUOUS
10
1.15354
20
1.14918
11
1.16104
21
1.14918
0
LINE
8
BLACK
6
CONTINUOUS
10
1.16104
20
1.14918
11
1.16205
21
1.14901
0
LINE
8
BLACK
6
CONTINUOUS
10
1.15424
20
1.14328
11
1.15199
21
1.14216
0
LINE
8
BLACK
6
CONTINUOUS
10
1.15199
20
1.14216
11
1.15087
21
1.13991
0
LINE
8
BLACK
6
CONTINUOUS
10
1.15087
20
1.13991
11
1.15087
21
1.13671
0
LINE
8
BLACK
6
CONTINUOUS
10
1.15087
20
1.13671
11
1.16371
21
1.13928
0
LINE
8
BLACK
6
CONTINUOUS
10
1.16371
20
1.13928
11
1.16371
21
1.13991
0
LINE
8
BLACK
6
CONTINUOUS
10
1.16371
20
1.13991
11
1.16259
21
1.14216
0
LINE
8
BLACK
6
CONTINUOUS
10
1.16259
20
1.14216
11
1.16035
21
1.14328
0
LINE
8
BLACK
6
CONTINUOUS
10
1.16035
20
1.14328
11
1.15424
21
1.14328
0
LINE
8
BLACK
6
CONTINUOUS
10
0.453391
20
1.16213
11
0.454938
21
1.16083
0
LINE
8
BLACK
6
CONTINUOUS
10
0.454938
20
1.16083
11
0.455289
21
1.15884
0
LINE
8
BLACK
6
CONTINUOUS
10
0.455289
20
1.15884
11
0.454279
21
1.15709
0
LINE
8
BLACK
6
CONTINUOUS
10
0.454279
20
1.15709
11
0.452381
21
1.1564
0
LINE
8
BLACK
6
CONTINUOUS
10
0.452381
20
1.1564
11
0.436586
21
1.1564
0
LINE
8
BLACK
6
CONTINUOUS
10
0.436586
20
1.1564
11
0.436586
21
1.14356
0
LINE
8
BLACK
6
CONTINUOUS
10
0.436586
20
1.14356
11
0.446757
21
1.14356
0
LINE
8
BLACK
6
CONTINUOUS
10
0.446757
20
1.14356
11
0.447767
21
1.14338
0
LINE
8
BLACK
6
CONTINUOUS
10
0.447767
20
1.14338
11
0.449314
21
1.14208
0
LINE
8
BLACK
6
CONTINUOUS
10
0.449314
20
1.14208
11
0.449665
21
1.14009
0
LINE
8
BLACK
6
CONTINUOUS
10
0.449665
20
1.14009
11
0.448655
21
1.13835
0
LINE
8
BLACK
6
CONTINUOUS
10
0.448655
20
1.13835
11
0.446757
21
1.13765
0
LINE
8
BLACK
6
CONTINUOUS
10
0.446757
20
1.13765
11
0.436586
21
1.13765
0
LINE
8
BLACK
6
CONTINUOUS
10
0.436586
20
1.13765
11
0.436586
21
1.12294
0
LINE
8
BLACK
6
CONTINUOUS
10
0.436586
20
1.12294
11
0.452381
21
1.12294
0
LINE
8
BLACK
6
CONTINUOUS
10
0.452381
20
1.12294
11
0.453391
21
1.12276
0
LINE
8
BLACK
6
CONTINUOUS
10
0.453391
20
1.12276
11
0.454938
21
1.12146
0
LINE
8
BLACK
6
CONTINUOUS
10
0.454938
20
1.12146
11
0.455289
21
1.11947
0
LINE
8
BLACK
6
CONTINUOUS
10
0.455289
20
1.11947
11
0.454279
21
1.11772
0
LINE
8
BLACK
6
CONTINUOUS
10
0.454279
20
1.11772
11
0.452381
21
1.11703
0
LINE
8
BLACK
6
CONTINUOUS
10
0.452381
20
1.11703
11
0.433633
21
1.11703
0
LINE
8
BLACK
6
CONTINUOUS
10
0.433633
20
1.11703
11
0.43325
21
1.1171
0
LINE
8
BLACK
6
CONTINUOUS
10
0.43325
20
1.1171
11
0.433121
21
1.11708
0
LINE
8
BLACK
6
CONTINUOUS
10
0.433121
20
1.11708
11
0.433007
21
1.11714
0
LINE
8
BLACK
6
CONTINUOUS
10
0.433007
20
1.11714
11
0.432623
21
1.11721
0
LINE
8
BLACK
6
CONTINUOUS
10
0.432623
20
1.11721
11
0.432036
21
1.1177
0
LINE
8
BLACK
6
CONTINUOUS
10
0.432036
20
1.1177
11
0.431371
21
1.11809
0
LINE
8
BLACK
6
CONTINUOUS
10
0.431371
20
1.11809
11
0.43128
21
1.11834
0
LINE
8
BLACK
6
CONTINUOUS
10
0.43128
20
1.11834
11
0.431076
21
1.11851
0
LINE
8
BLACK
6
CONTINUOUS
10
0.431076
20
1.11851
11
0.430943
21
1.11926
0
LINE
8
BLACK
6
CONTINUOUS
10
0.430943
20
1.11926
11
0.430681
21
1.11999
0
LINE
8
BLACK
6
CONTINUOUS
10
0.430681
20
1.11999
11
0.430681
21
1.15936
0
LINE
8
BLACK
6
CONTINUOUS
10
0.430681
20
1.15936
11
0.430748
21
1.15974
0
LINE
8
BLACK
6
CONTINUOUS
10
0.430748
20
1.15974
11
0.430725
21
1.15987
0
LINE
8
BLACK
6
CONTINUOUS
10
0.430725
20
1.15987
11
0.430791
21
1.15998
0
LINE
8
BLACK
6
CONTINUOUS
10
0.430791
20
1.15998
11
0.430859
21
1.16037
0
LINE
8
BLACK
6
CONTINUOUS
10
0.430859
20
1.16037
11
0.431352
21
1.16095
0
LINE
8
BLACK
6
CONTINUOUS
10
0.431352
20
1.16095
11
0.431735
21
1.16162
0
LINE
8
BLACK
6
CONTINUOUS
10
0.431735
20
1.16162
11
0.431986
21
1.16171
0
LINE
8
BLACK
6
CONTINUOUS
10
0.431986
20
1.16171
11
0.432157
21
1.16191
0
LINE
8
BLACK
6
CONTINUOUS
10
0.432157
20
1.16191
11
0.432912
21
1.16205
0
LINE
8
BLACK
6
CONTINUOUS
10
0.432912
20
1.16205
11
0.433633
21
1.16231
0
LINE
8
BLACK
6
CONTINUOUS
10
0.433633
20
1.16231
11
0.452381
21
1.16231
0
LINE
8
BLACK
6
CONTINUOUS
10
0.452381
20
1.16231
11
0.453391
21
1.16213
0
LINE
8
BLACK
6
CONTINUOUS
10
0.942705
20
1.16213
11
0.94284
21
1.16202
0
LINE
8
BLACK
6
CONTINUOUS
10
0.94284
20
1.16202
11
0.943015
21
1.162
0
LINE
8
BLACK
6
CONTINUOUS
10
0.943015
20
1.162
11
0.946765
21
1.16012
0
LINE
8
BLACK
6
CONTINUOUS
10
0.946765
20
1.16012
11
0.947589
21
1.15951
0
LINE
8
BLACK
6
CONTINUOUS
10
0.947589
20
1.15951
11
0.948392
21
1.15766
0
LINE
8
BLACK
6
CONTINUOUS
10
0.948392
20
1.15766
11
0.947816
21
1.15572
0
LINE
8
BLACK
6
CONTINUOUS
10
0.947816
20
1.15572
11
0.94613
21
1.15461
0
LINE
8
BLACK
6
CONTINUOUS
10
0.94613
20
1.15461
11
0.944124
21
1.15484
0
LINE
8
BLACK
6
CONTINUOUS
10
0.944124
20
1.15484
11
0.940998
21
1.1564
0
LINE
8
BLACK
6
CONTINUOUS
10
0.940998
20
1.1564
11
0.93655
21
1.1564
0
LINE
8
BLACK
6
CONTINUOUS
10
0.93655
20
1.1564
11
0.932041
21
1.1549
0
LINE
8
BLACK
6
CONTINUOUS
10
0.932041
20
1.1549
11
0.929123
21
1.15198
0
LINE
8
BLACK
6
CONTINUOUS
10
0.929123
20
1.15198
11
0.927608
21
1.14895
0
LINE
8
BLACK
6
CONTINUOUS
10
0.927608
20
1.14895
11
0.9259
21
1.14212
0
LINE
8
BLACK
6
CONTINUOUS
10
0.9259
20
1.14212
11
0.9259
21
1.13722
0
LINE
8
BLACK
6
CONTINUOUS
10
0.9259
20
1.13722
11
0.927608
21
1.13039
0
LINE
8
BLACK
6
CONTINUOUS
10
0.927608
20
1.13039
11
0.929123
21
1.12736
0
LINE
8
BLACK
6
CONTINUOUS
10
0.929123
20
1.12736
11
0.932041
21
1.12444
0
LINE
8
BLACK
6
CONTINUOUS
10
0.932041
20
1.12444
11
0.93655
21
1.12294
0
LINE
8
BLACK
6
CONTINUOUS
10
0.93655
20
1.12294
11
0.939341
21
1.12294
0
LINE
8
BLACK
6
CONTINUOUS
10
0.939341
20
1.12294
11
0.943849
21
1.12444
0
LINE
8
BLACK
6
CONTINUOUS
10
0.943849
20
1.12444
11
0.944366
21
1.12496
0
LINE
8
BLACK
6
CONTINUOUS
10
0.944366
20
1.12496
11
0.944366
21
1.13391
0
LINE
8
BLACK
6
CONTINUOUS
10
0.944366
20
1.13391
11
0.93982
21
1.13391
0
LINE
8
BLACK
6
CONTINUOUS
10
0.93982
20
1.13391
11
0.93881
21
1.13408
0
LINE
8
BLACK
6
CONTINUOUS
10
0.93881
20
1.13408
11
0.937263
21
1.13538
0
LINE
8
BLACK
6
CONTINUOUS
10
0.937263
20
1.13538
11
0.936912
21
1.13737
0
LINE
8
BLACK
6
CONTINUOUS
10
0.936912
20
1.13737
11
0.937922
21
1.13912
0
LINE
8
BLACK
6
CONTINUOUS
10
0.937922
20
1.13912
11
0.93982
21
1.13981
0
LINE
8
BLACK
6
CONTINUOUS
10
0.93982
20
1.13981
11
0.947319
21
1.13981
0
LINE
8
BLACK
6
CONTINUOUS
10
0.947319
20
1.13981
11
0.947703
21
1.13974
0
LINE
8
BLACK
6
CONTINUOUS
10
0.947703
20
1.13974
11
0.947832
21
1.13977
0
LINE
8
BLACK
6
CONTINUOUS
10
0.947832
20
1.13977
11
0.947945
21
1.1397
0
LINE
8
BLACK
6
CONTINUOUS
10
0.947945
20
1.1397
11
0.948329
21
1.13963
0
LINE
8
BLACK
6
CONTINUOUS
10
0.948329
20
1.13963
11
0.948917
21
1.13914
0
LINE
8
BLACK
6
CONTINUOUS
10
0.948917
20
1.13914
11
0.949581
21
1.13876
0
LINE
8
BLACK
6
CONTINUOUS
10
0.949581
20
1.13876
11
0.949672
21
1.13851
0
LINE
8
BLACK
6
CONTINUOUS
10
0.949672
20
1.13851
11
0.949876
21
1.13833
0
LINE
8
BLACK
6
CONTINUOUS
10
0.949876
20
1.13833
11
0.950009
21
1.13758
0
LINE
8
BLACK
6
CONTINUOUS
10
0.950009
20
1.13758
11
0.950272
21
1.13686
0
LINE
8
BLACK
6
CONTINUOUS
10
0.950272
20
1.13686
11
0.950272
21
1.12373
0
LINE
8
BLACK
6
CONTINUOUS
10
0.950272
20
1.12373
11
0.95024
21
1.12355
0
LINE
8
BLACK
6
CONTINUOUS
10
0.95024
20
1.12355
11
0.950261
21
1.12348
0
LINE
8
BLACK
6
CONTINUOUS
10
0.950261
20
1.12348
11
0.950206
21
1.12336
0
LINE
8
BLACK
6
CONTINUOUS
10
0.950206
20
1.12336
11
0.950094
21
1.12272
0
LINE
8
BLACK
6
CONTINUOUS
10
0.950094
20
1.12272
11
0.949679
21
1.12223
0
LINE
8
BLACK
6
CONTINUOUS
10
0.949679
20
1.12223
11
0.949407
21
1.12165
0
LINE
8
BLACK
6
CONTINUOUS
10
0.949407
20
1.12165
11
0.947532
21
1.11977
0
LINE
8
BLACK
6
CONTINUOUS
10
0.947532
20
1.11977
11
0.946692
21
1.11918
0
LINE
8
BLACK
6
CONTINUOUS
10
0.946692
20
1.11918
11
0.946516
21
1.11917
0
LINE
8
BLACK
6
CONTINUOUS
10
0.946516
20
1.11917
11
0.946378
21
1.11906
0
LINE
8
BLACK
6
CONTINUOUS
10
0.946378
20
1.11906
11
0.940754
21
1.11718
0
LINE
8
BLACK
6
CONTINUOUS
10
0.940754
20
1.11718
11
0.939881
21
1.11705
0
LINE
8
BLACK
6
CONTINUOUS
10
0.939881
20
1.11705
11
0.93982
21
1.11703
0
LINE
8
BLACK
6
CONTINUOUS
10
0.93982
20
1.11703
11
0.93607
21
1.11703
0
LINE
8
BLACK
6
CONTINUOUS
10
0.93607
20
1.11703
11
0.935201
21
1.11719
0
LINE
8
BLACK
6
CONTINUOUS
10
0.935201
20
1.11719
11
0.935137
21
1.11718
0
LINE
8
BLACK
6
CONTINUOUS
10
0.935137
20
1.11718
11
0.929512
21
1.11906
0
LINE
8
BLACK
6
CONTINUOUS
10
0.929512
20
1.11906
11
0.928611
21
1.11955
0
LINE
8
BLACK
6
CONTINUOUS
10
0.928611
20
1.11955
11
0.928518
21
1.1197
0
LINE
8
BLACK
6
CONTINUOUS
10
0.928518
20
1.1197
11
0.928358
21
1.11977
0
LINE
8
BLACK
6
CONTINUOUS
10
0.928358
20
1.11977
11
0.924609
21
1.12352
0
LINE
8
BLACK
6
CONTINUOUS
10
0.924609
20
1.12352
11
0.924102
21
1.12424
0
LINE
8
BLACK
6
CONTINUOUS
10
0.924102
20
1.12424
11
0.924056
21
1.12429
0
LINE
8
BLACK
6
CONTINUOUS
10
0.924056
20
1.12429
11
0.922181
21
1.12804
0
LINE
8
BLACK
6
CONTINUOUS
10
0.922181
20
1.12804
11
0.922036
21
1.12853
0
LINE
8
BLACK
6
CONTINUOUS
10
0.922036
20
1.12853
11
0.921957
21
1.12864
0
LINE
8
BLACK
6
CONTINUOUS
10
0.921957
20
1.12864
11
0.920083
21
1.13614
0
LINE
8
BLACK
6
CONTINUOUS
10
0.920083
20
1.13614
11
0.920041
21
1.13673
0
LINE
8
BLACK
6
CONTINUOUS
10
0.920041
20
1.13673
11
0.919994
21
1.13686
0
LINE
8
BLACK
6
CONTINUOUS
10
0.919994
20
1.13686
11
0.919994
21
1.14248
0
LINE
8
BLACK
6
CONTINUOUS
10
0.919994
20
1.14248
11
0.920097
21
1.14306
0
LINE
8
BLACK
6
CONTINUOUS
10
0.920097
20
1.14306
11
0.920083
21
1.1432
0
LINE
8
BLACK
6
CONTINUOUS
10
0.920083
20
1.1432
11
0.921957
21
1.1507
0
LINE
8
BLACK
6
CONTINUOUS
10
0.921957
20
1.1507
11
0.922165
21
1.15116
0
LINE
8
BLACK
6
CONTINUOUS
10
0.922165
20
1.15116
11
0.922181
21
1.1513
0
LINE
8
BLACK
6
CONTINUOUS
10
0.922181
20
1.1513
11
0.924056
21
1.15505
0
LINE
8
BLACK
6
CONTINUOUS
10
0.924056
20
1.15505
11
0.924582
21
1.15576
0
LINE
8
BLACK
6
CONTINUOUS
10
0.924582
20
1.15576
11
0.924609
21
1.15582
0
LINE
8
BLACK
6
CONTINUOUS
10
0.924609
20
1.15582
11
0.928358
21
1.15957
0
LINE
8
BLACK
6
CONTINUOUS
10
0.928358
20
1.15957
11
0.929198
21
1.16016
0
LINE
8
BLACK
6
CONTINUOUS
10
0.929198
20
1.16016
11
0.929374
21
1.16017
0
LINE
8
BLACK
6
CONTINUOUS
10
0.929374
20
1.16017
11
0.929512
21
1.16028
0
LINE
8
BLACK
6
CONTINUOUS
10
0.929512
20
1.16028
11
0.935137
21
1.16216
0
LINE
8
BLACK
6
CONTINUOUS
10
0.935137
20
1.16216
11
0.93601
21
1.16229
0
LINE
8
BLACK
6
CONTINUOUS
10
0.93601
20
1.16229
11
0.93607
21
1.16231
0
LINE
8
BLACK
6
CONTINUOUS
10
0.93607
20
1.16231
11
0.941695
21
1.16231
0
LINE
8
BLACK
6
CONTINUOUS
10
0.941695
20
1.16231
11
0.942705
21
1.16213
0
LINE
8
BLACK
6
CONTINUOUS
10
1.53326
20
1.14901
11
1.53339
21
1.14889
0
LINE
8
BLACK
6
CONTINUOUS
10
1.53339
20
1.14889
11
1.53357
21
1.14887
0
LINE
8
BLACK
6
CONTINUOUS
10
1.53357
20
1.14887
11
1.53732
21
1.147
0
LINE
8
BLACK
6
CONTINUOUS
10
1.53732
20
1.147
11
1.53814
21
1.14639
0
LINE
8
BLACK
6
CONTINUOUS
10
1.53814
20
1.14639
11
1.53832
21
1.14598
0
LINE
8
BLACK
6
CONTINUOUS
10
1.53832
20
1.14598
11
1.53864
21
1.14568
0
LINE
8
BLACK
6
CONTINUOUS
10
1.53864
20
1.14568
11
1.54051
21
1.14193
0
LINE
8
BLACK
6
CONTINUOUS
10
1.54051
20
1.14193
11
1.5408
21
1.14095
0
LINE
8
BLACK
6
CONTINUOUS
10
1.5408
20
1.14095
11
1.54076
21
1.14077
0
LINE
8
BLACK
6
CONTINUOUS
10
1.54076
20
1.14077
11
1.54082
21
1.14061
0
LINE
8
BLACK
6
CONTINUOUS
10
1.54082
20
1.14061
11
1.54082
21
1.13686
0
LINE
8
BLACK
6
CONTINUOUS
10
1.54082
20
1.13686
11
1.54064
21
1.13585
0
LINE
8
BLACK
6
CONTINUOUS
10
1.54064
20
1.13585
11
1.54033
21
1.13547
0
LINE
8
BLACK
6
CONTINUOUS
10
1.54033
20
1.13547
11
1.54017
21
1.13501
0
LINE
8
BLACK
6
CONTINUOUS
10
1.54017
20
1.13501
11
1.5397
21
1.13472
0
LINE
8
BLACK
6
CONTINUOUS
10
1.5397
20
1.13472
11
1.53935
21
1.1343
0
LINE
8
BLACK
6
CONTINUOUS
10
1.53935
20
1.1343
11
1.53887
21
1.13422
0
LINE
8
BLACK
6
CONTINUOUS
10
1.53887
20
1.13422
11
1.53845
21
1.13396
0
LINE
8
BLACK
6
CONTINUOUS
10
1.53845
20
1.13396
11
1.52208
21
1.13069
0
LINE
8
BLACK
6
CONTINUOUS
10
1.52208
20
1.13069
11
1.52208
21
1.12631
0
LINE
8
BLACK
6
CONTINUOUS
10
1.52208
20
1.12631
11
1.5232
21
1.12406
0
LINE
8
BLACK
6
CONTINUOUS
10
1.5232
20
1.12406
11
1.52544
21
1.12294
0
LINE
8
BLACK
6
CONTINUOUS
10
1.52544
20
1.12294
11
1.53155
21
1.12294
0
LINE
8
BLACK
6
CONTINUOUS
10
1.53155
20
1.12294
11
1.53467
21
1.1245
0
LINE
8
BLACK
6
CONTINUOUS
10
1.53467
20
1.1245
11
1.53566
21
1.12479
0
LINE
8
BLACK
6
CONTINUOUS
10
1.53566
20
1.12479
11
1.53762
21
1.12432
0
LINE
8
BLACK
6
CONTINUOUS
10
1.53762
20
1.12432
11
1.53883
21
1.1227
0
LINE
8
BLACK
6
CONTINUOUS
10
1.53883
20
1.1227
11
1.5387
21
1.12069
0
LINE
8
BLACK
6
CONTINUOUS
10
1.5387
20
1.12069
11
1.53732
21
1.11922
0
LINE
8
BLACK
6
CONTINUOUS
10
1.53732
20
1.11922
11
1.53357
21
1.11734
0
LINE
8
BLACK
6
CONTINUOUS
10
1.53357
20
1.11734
11
1.53258
21
1.11705
0
LINE
8
BLACK
6
CONTINUOUS
10
1.53258
20
1.11705
11
1.53241
21
1.11709
0
LINE
8
BLACK
6
CONTINUOUS
10
1.53241
20
1.11709
11
1.53225
21
1.11703
0
LINE
8
BLACK
6
CONTINUOUS
10
1.53225
20
1.11703
11
1.52475
21
1.11703
0
LINE
8
BLACK
6
CONTINUOUS
10
1.52475
20
1.11703
11
1.52374
21
1.11721
0
LINE
8
BLACK
6
CONTINUOUS
10
1.52374
20
1.11721
11
1.5236
21
1.11732
0
LINE
8
BLACK
6
CONTINUOUS
10
1.5236
20
1.11732
11
1.52343
21
1.11734
0
LINE
8
BLACK
6
CONTINUOUS
10
1.52343
20
1.11734
11
1.51968
21
1.11922
0
LINE
8
BLACK
6
CONTINUOUS
10
1.51968
20
1.11922
11
1.51885
21
1.11983
0
LINE
8
BLACK
6
CONTINUOUS
10
1.51885
20
1.11983
11
1.51868
21
1.12024
0
LINE
8
BLACK
6
CONTINUOUS
10
1.51868
20
1.12024
11
1.51836
21
1.12054
0
LINE
8
BLACK
6
CONTINUOUS
10
1.51836
20
1.12054
11
1.51648
21
1.12429
0
LINE
8
BLACK
6
CONTINUOUS
10
1.51648
20
1.12429
11
1.51619
21
1.12527
0
LINE
8
BLACK
6
CONTINUOUS
10
1.51619
20
1.12527
11
1.51623
21
1.12544
0
LINE
8
BLACK
6
CONTINUOUS
10
1.51623
20
1.12544
11
1.51617
21
1.12561
0
LINE
8
BLACK
6
CONTINUOUS
10
1.51617
20
1.12561
11
1.51617
21
1.14061
0
LINE
8
BLACK
6
CONTINUOUS
10
1.51617
20
1.14061
11
1.51635
21
1.14162
0
LINE
8
BLACK
6
CONTINUOUS
10
1.51635
20
1.14162
11
1.51646
21
1.14175
0
LINE
8
BLACK
6
CONTINUOUS
10
1.51646
20
1.14175
11
1.51648
21
1.14193
0
LINE
8
BLACK
6
CONTINUOUS
10
1.51648
20
1.14193
11
1.51836
21
1.14568
0
LINE
8
BLACK
6
CONTINUOUS
10
1.51836
20
1.14568
11
1.51897
21
1.1465
0
LINE
8
BLACK
6
CONTINUOUS
10
1.51897
20
1.1465
11
1.51937
21
1.14668
0
LINE
8
BLACK
6
CONTINUOUS
10
1.51937
20
1.14668
11
1.51968
21
1.147
0
LINE
8
BLACK
6
CONTINUOUS
10
1.51968
20
1.147
11
1.52343
21
1.14887
0
LINE
8
BLACK
6
CONTINUOUS
10
1.52343
20
1.14887
11
1.52441
21
1.14917
0
LINE
8
BLACK
6
CONTINUOUS
10
1.52441
20
1.14917
11
1.52458
21
1.14912
0
LINE
8
BLACK
6
CONTINUOUS
10
1.52458
20
1.14912
11
1.52475
21
1.14918
0
LINE
8
BLACK
6
CONTINUOUS
10
1.52475
20
1.14918
11
1.53225
21
1.14918
0
LINE
8
BLACK
6
CONTINUOUS
10
1.53225
20
1.14918
11
1.53326
21
1.14901
0
LINE
8
BLACK
6
CONTINUOUS
10
1.52544
20
1.14328
11
1.5232
21
1.14216
0
LINE
8
BLACK
6
CONTINUOUS
10
1.5232
20
1.14216
11
1.52208
21
1.13991
0
LINE
8
BLACK
6
CONTINUOUS
10
1.52208
20
1.13991
11
1.52208
21
1.13671
0
LINE
8
BLACK
6
CONTINUOUS
10
1.52208
20
1.13671
11
1.53492
21
1.13928
0
LINE
8
BLACK
6
CONTINUOUS
10
1.53492
20
1.13928
11
1.53492
21
1.13991
0
LINE
8
BLACK
6
CONTINUOUS
10
1.53492
20
1.13991
11
1.53379
21
1.14216
0
LINE
8
BLACK
6
CONTINUOUS
10
1.53379
20
1.14216
11
1.53155
21
1.14328
0
LINE
8
BLACK
6
CONTINUOUS
10
1.53155
20
1.14328
11
1.52544
21
1.14328
0
LINE
8
BLACK
6
CONTINUOUS
10
1.55701
20
1.16125
11
1.5577
21
1.15936
0
LINE
8
BLACK
6
CONTINUOUS
10
1.5577
20
1.15936
11
1.5577
21
1.14918
0
LINE
8
BLACK
6
CONTINUOUS
10
1.5577
20
1.14918
11
1.56412
21
1.14918
0
LINE
8
BLACK
6
CONTINUOUS
10
1.56412
20
1.14918
11
1.56513
21
1.14901
0
LINE
8
BLACK
6
CONTINUOUS
10
1.56513
20
1.14901
11
1.56667
21
1.14771
0
LINE
8
BLACK
6
CONTINUOUS
10
1.56667
20
1.14771
11
1.56702
21
1.14572
0
LINE
8
BLACK
6
CONTINUOUS
10
1.56702
20
1.14572
11
1.56601
21
1.14397
0
LINE
8
BLACK
6
CONTINUOUS
10
1.56601
20
1.14397
11
1.56412
21
1.14328
0
LINE
8
BLACK
6
CONTINUOUS
10
1.56412
20
1.14328
11
1.5577
21
1.14328
0
LINE
8
BLACK
6
CONTINUOUS
10
1.5577
20
1.14328
11
1.5577
21
1.12631
0
LINE
8
BLACK
6
CONTINUOUS
10
1.5577
20
1.12631
11
1.55882
21
1.12406
0
LINE
8
BLACK
6
CONTINUOUS
10
1.55882
20
1.12406
11
1.56106
21
1.12294
0
LINE
8
BLACK
6
CONTINUOUS
10
1.56106
20
1.12294
11
1.56412
21
1.12294
0
LINE
8
BLACK
6
CONTINUOUS
10
1.56412
20
1.12294
11
1.56513
21
1.12276
0
LINE
8
BLACK
6
CONTINUOUS
10
1.56513
20
1.12276
11
1.56667
21
1.12146
0
LINE
8
BLACK
6
CONTINUOUS
10
1.56667
20
1.12146
11
1.56702
21
1.11947
0
LINE
8
BLACK
6
CONTINUOUS
10
1.56702
20
1.11947
11
1.56601
21
1.11772
0
LINE
8
BLACK
6
CONTINUOUS
10
1.56601
20
1.11772
11
1.56412
21
1.11703
0
LINE
8
BLACK
6
CONTINUOUS
10
1.56412
20
1.11703
11
1.56037
21
1.11703
0
LINE
8
BLACK
6
CONTINUOUS
10
1.56037
20
1.11703
11
1.55936
21
1.11721
0
LINE
8
BLACK
6
CONTINUOUS
10
1.55936
20
1.11721
11
1.55922
21
1.11732
0
LINE
8
BLACK
6
CONTINUOUS
10
1.55922
20
1.11732
11
1.55905
21
1.11734
0
LINE
8
BLACK
6
CONTINUOUS
10
1.55905
20
1.11734
11
1.5553
21
1.11922
0
LINE
8
BLACK
6
CONTINUOUS
10
1.5553
20
1.11922
11
1.55447
21
1.11983
0
LINE
8
BLACK
6
CONTINUOUS
10
1.55447
20
1.11983
11
1.5543
21
1.12024
0
LINE
8
BLACK
6
CONTINUOUS
10
1.5543
20
1.12024
11
1.55398
21
1.12054
0
LINE
8
BLACK
6
CONTINUOUS
10
1.55398
20
1.12054
11
1.5521
21
1.12429
0
LINE
8
BLACK
6
CONTINUOUS
10
1.5521
20
1.12429
11
1.55181
21
1.12527
0
LINE
8
BLACK
6
CONTINUOUS
10
1.55181
20
1.12527
11
1.55185
21
1.12544
0
LINE
8
BLACK
6
CONTINUOUS
10
1.55185
20
1.12544
11
1.55179
21
1.12561
0
LINE
8
BLACK
6
CONTINUOUS
10
1.55179
20
1.12561
11
1.55179
21
1.14328
0
LINE
8
BLACK
6
CONTINUOUS
10
1.55179
20
1.14328
11
1.54912
21
1.14328
0
LINE
8
BLACK
6
CONTINUOUS
10
1.54912
20
1.14328
11
1.54811
21
1.14346
0
LINE
8
BLACK
6
CONTINUOUS
10
1.54811
20
1.14346
11
1.54656
21
1.14476
0
LINE
8
BLACK
6
CONTINUOUS
10
1.54656
20
1.14476
11
1.54621
21
1.14674
0
LINE
8
BLACK
6
CONTINUOUS
10
1.54621
20
1.14674
11
1.54722
21
1.14849
0
LINE
8
BLACK
6
CONTINUOUS
10
1.54722
20
1.14849
11
1.54912
21
1.14918
0
LINE
8
BLACK
6
CONTINUOUS
10
1.54912
20
1.14918
11
1.55179
21
1.14918
0
LINE
8
BLACK
6
CONTINUOUS
10
1.55179
20
1.14918
11
1.55179
21
1.15936
0
LINE
8
BLACK
6
CONTINUOUS
10
1.55179
20
1.15936
11
1.55197
21
1.16037
0
LINE
8
BLACK
6
CONTINUOUS
10
1.55197
20
1.16037
11
1.55327
21
1.16191
0
LINE
8
BLACK
6
CONTINUOUS
10
1.55327
20
1.16191
11
1.55526
21
1.16226
0
LINE
8
BLACK
6
CONTINUOUS
10
1.55526
20
1.16226
11
1.55701
21
1.16125
0
LINE
8
BLACK
6
CONTINUOUS
10
0.982075
20
1.16213
11
0.98221
21
1.16202
0
LINE
8
BLACK
6
CONTINUOUS
10
0.98221
20
1.16202
11
0.982385
21
1.162
0
LINE
8
BLACK
6
CONTINUOUS
10
0.982385
20
1.162
11
0.986135
21
1.16012
0
LINE
8
BLACK
6
CONTINUOUS
10
0.986135
20
1.16012
11
0.986959
21
1.15951
0
LINE
8
BLACK
6
CONTINUOUS
10
0.986959
20
1.15951
11
0.987762
21
1.15766
0
LINE
8
BLACK
6
CONTINUOUS
10
0.987762
20
1.15766
11
0.987186
21
1.15572
0
LINE
8
BLACK
6
CONTINUOUS
10
0.987186
20
1.15572
11
0.9855
21
1.15461
0
LINE
8
BLACK
6
CONTINUOUS
10
0.9855
20
1.15461
11
0.983494
21
1.15484
0
LINE
8
BLACK
6
CONTINUOUS
10
0.983494
20
1.15484
11
0.980368
21
1.1564
0
LINE
8
BLACK
6
CONTINUOUS
10
0.980368
20
1.1564
11
0.97592
21
1.1564
0
LINE
8
BLACK
6
CONTINUOUS
10
0.97592
20
1.1564
11
0.971411
21
1.1549
0
LINE
8
BLACK
6
CONTINUOUS
10
0.971411
20
1.1549
11
0.968493
21
1.15198
0
LINE
8
BLACK
6
CONTINUOUS
10
0.968493
20
1.15198
11
0.966978
21
1.14895
0
LINE
8
BLACK
6
CONTINUOUS
10
0.966978
20
1.14895
11
0.96527
21
1.14212
0
LINE
8
BLACK
6
CONTINUOUS
10
0.96527
20
1.14212
11
0.96527
21
1.13722
0
LINE
8
BLACK
6
CONTINUOUS
10
0.96527
20
1.13722
11
0.966978
21
1.13039
0
LINE
8
BLACK
6
CONTINUOUS
10
0.966978
20
1.13039
11
0.968493
21
1.12736
0
LINE
8
BLACK
6
CONTINUOUS
10
0.968493
20
1.12736
11
0.971411
21
1.12444
0
LINE
8
BLACK
6
CONTINUOUS
10
0.971411
20
1.12444
11
0.97592
21
1.12294
0
LINE
8
BLACK
6
CONTINUOUS
10
0.97592
20
1.12294
11
0.978711
21
1.12294
0
LINE
8
BLACK
6
CONTINUOUS
10
0.978711
20
1.12294
11
0.983219
21
1.12444
0
LINE
8
BLACK
6
CONTINUOUS
10
0.983219
20
1.12444
11
0.983736
21
1.12496
0
LINE
8
BLACK
6
CONTINUOUS
10
0.983736
20
1.12496
11
0.983736
21
1.13391
0
LINE
8
BLACK
6
CONTINUOUS
10
0.983736
20
1.13391
11
0.97919
21
1.13391
0
LINE
8
BLACK
6
CONTINUOUS
10
0.97919
20
1.13391
11
0.97818
21
1.13408
0
LINE
8
BLACK
6
CONTINUOUS
10
0.97818
20
1.13408
11
0.976633
21
1.13538
0
LINE
8
BLACK
6
CONTINUOUS
10
0.976633
20
1.13538
11
0.976282
21
1.13737
0
LINE
8
BLACK
6
CONTINUOUS
10
0.976282
20
1.13737
11
0.977292
21
1.13912
0
LINE
8
BLACK
6
CONTINUOUS
10
0.977292
20
1.13912
11
0.97919
21
1.13981
0
LINE
8
BLACK
6
CONTINUOUS
10
0.97919
20
1.13981
11
0.986689
21
1.13981
0
LINE
8
BLACK
6
CONTINUOUS
10
0.986689
20
1.13981
11
0.987073
21
1.13974
0
LINE
8
BLACK
6
CONTINUOUS
10
0.987073
20
1.13974
11
0.987202
21
1.13977
0
LINE
8
BLACK
6
CONTINUOUS
10
0.987202
20
1.13977
11
0.987316
21
1.1397
0
LINE
8
BLACK
6
CONTINUOUS
10
0.987316
20
1.1397
11
0.987699
21
1.13963
0
LINE
8
BLACK
6
CONTINUOUS
10
0.987699
20
1.13963
11
0.988287
21
1.13914
0
LINE
8
BLACK
6
CONTINUOUS
10
0.988287
20
1.13914
11
0.988951
21
1.13876
0
LINE
8
BLACK
6
CONTINUOUS
10
0.988951
20
1.13876
11
0.989042
21
1.13851
0
LINE
8
BLACK
6
CONTINUOUS
10
0.989042
20
1.13851
11
0.989246
21
1.13833
0
LINE
8
BLACK
6
CONTINUOUS
10
0.989246
20
1.13833
11
0.98938
21
1.13758
0
LINE
8
BLACK
6
CONTINUOUS
10
0.98938
20
1.13758
11
0.989642
21
1.13686
0
LINE
8
BLACK
6
CONTINUOUS
10
0.989642
20
1.13686
11
0.989642
21
1.12373
0
LINE
8
BLACK
6
CONTINUOUS
10
0.989642
20
1.12373
11
0.98961
21
1.12355
0
LINE
8
BLACK
6
CONTINUOUS
10
0.98961
20
1.12355
11
0.989631
21
1.12348
0
LINE
8
BLACK
6
CONTINUOUS
10
0.989631
20
1.12348
11
0.989576
21
1.12336
0
LINE
8
BLACK
6
CONTINUOUS
10
0.989576
20
1.12336
11
0.989464
21
1.12272
0
LINE
8
BLACK
6
CONTINUOUS
10
0.989464
20
1.12272
11
0.989049
21
1.12223
0
LINE
8
BLACK
6
CONTINUOUS
10
0.989049
20
1.12223
11
0.988777
21
1.12165
0
LINE
8
BLACK
6
CONTINUOUS
10
0.988777
20
1.12165
11
0.986902
21
1.11977
0
LINE
8
BLACK
6
CONTINUOUS
10
0.986902
20
1.11977
11
0.986062
21
1.11918
0
LINE
8
BLACK
6
CONTINUOUS
10
0.986062
20
1.11918
11
0.985886
21
1.11917
0
LINE
8
BLACK
6
CONTINUOUS
10
0.985886
20
1.11917
11
0.985748
21
1.11906
0
LINE
8
BLACK
6
CONTINUOUS
10
0.985748
20
1.11906
11
0.980124
21
1.11718
0
LINE
8
BLACK
6
CONTINUOUS
10
0.980124
20
1.11718
11
0.979251
21
1.11705
0
LINE
8
BLACK
6
CONTINUOUS
10
0.979251
20
1.11705
11
0.97919
21
1.11703
0
LINE
8
BLACK
6
CONTINUOUS
10
0.97919
20
1.11703
11
0.975441
21
1.11703
0
LINE
8
BLACK
6
CONTINUOUS
10
0.975441
20
1.11703
11
0.974571
21
1.11719
0
LINE
8
BLACK
6
CONTINUOUS
10
0.974571
20
1.11719
11
0.974507
21
1.11718
0
LINE
8
BLACK
6
CONTINUOUS
10
0.974507
20
1.11718
11
0.968883
21
1.11906
0
LINE
8
BLACK
6
CONTINUOUS
10
0.968883
20
1.11906
11
0.967981
21
1.11955
0
LINE
8
BLACK
6
CONTINUOUS
10
0.967981
20
1.11955
11
0.967888
21
1.1197
0
LINE
8
BLACK
6
CONTINUOUS
10
0.967888
20
1.1197
11
0.967728
21
1.11977
0
LINE
8
BLACK
6
CONTINUOUS
10
0.967728
20
1.11977
11
0.963979
21
1.12352
0
LINE
8
BLACK
6
CONTINUOUS
10
0.963979
20
1.12352
11
0.963473
21
1.12424
0
LINE
8
BLACK
6
CONTINUOUS
10
0.963473
20
1.12424
11
0.963426
21
1.12429
0
LINE
8
BLACK
6
CONTINUOUS
10
0.963426
20
1.12429
11
0.961551
21
1.12804
0
LINE
8
BLACK
6
CONTINUOUS
10
0.961551
20
1.12804
11
0.961406
21
1.12853
0
LINE
8
BLACK
6
CONTINUOUS
10
0.961406
20
1.12853
11
0.961327
21
1.12864
0
LINE
8
BLACK
6
CONTINUOUS
10
0.961327
20
1.12864
11
0.959453
21
1.13614
0
LINE
8
BLACK
6
CONTINUOUS
10
0.959453
20
1.13614
11
0.959411
21
1.13673
0
LINE
8
BLACK
6
CONTINUOUS
10
0.959411
20
1.13673
11
0.959364
21
1.13686
0
LINE
8
BLACK
6
CONTINUOUS
10
0.959364
20
1.13686
11
0.959364
21
1.14248
0
LINE
8
BLACK
6
CONTINUOUS
10
0.959364
20
1.14248
11
0.959467
21
1.14306
0
LINE
8
BLACK
6
CONTINUOUS
10
0.959467
20
1.14306
11
0.959453
21
1.1432
0
LINE
8
BLACK
6
CONTINUOUS
10
0.959453
20
1.1432
11
0.961327
21
1.1507
0
LINE
8
BLACK
6
CONTINUOUS
10
0.961327
20
1.1507
11
0.961535
21
1.15116
0
LINE
8
BLACK
6
CONTINUOUS
10
0.961535
20
1.15116
11
0.961551
21
1.1513
0
LINE
8
BLACK
6
CONTINUOUS
10
0.961551
20
1.1513
11
0.963426
21
1.15505
0
LINE
8
BLACK
6
CONTINUOUS
10
0.963426
20
1.15505
11
0.963952
21
1.15576
0
LINE
8
BLACK
6
CONTINUOUS
10
0.963952
20
1.15576
11
0.963979
21
1.15582
0
LINE
8
BLACK
6
CONTINUOUS
10
0.963979
20
1.15582
11
0.967728
21
1.15957
0
LINE
8
BLACK
6
CONTINUOUS
10
0.967728
20
1.15957
11
0.968568
21
1.16016
0
LINE
8
BLACK
6
CONTINUOUS
10
0.968568
20
1.16016
11
0.968744
21
1.16017
0
LINE
8
BLACK
6
CONTINUOUS
10
0.968744
20
1.16017
11
0.968882
21
1.16028
0
LINE
8
BLACK
6
CONTINUOUS
10
0.968882
20
1.16028
11
0.974507
21
1.16216
0
LINE
8
BLACK
6
CONTINUOUS
10
0.974507
20
1.16216
11
0.97538
21
1.16229
0
LINE
8
BLACK
6
CONTINUOUS
10
0.97538
20
1.16229
11
0.975441
21
1.16231
0
LINE
8
BLACK
6
CONTINUOUS
10
0.975441
20
1.16231
11
0.981065
21
1.16231
0
LINE
8
BLACK
6
CONTINUOUS
10
0.981065
20
1.16231
11
0.982075
21
1.16213
0
LINE
8
BLACK
6
CONTINUOUS
10
1.01154
20
1.16209
11
1.01247
21
1.16195
0
LINE
8
BLACK
6
CONTINUOUS
10
1.01247
20
1.16195
11
1.01252
21
1.16189
0
LINE
8
BLACK
6
CONTINUOUS
10
1.01252
20
1.16189
11
1.01261
21
1.16187
0
LINE
8
BLACK
6
CONTINUOUS
10
1.01261
20
1.16187
11
1.01319
21
1.16114
0
LINE
8
BLACK
6
CONTINUOUS
10
1.01319
20
1.16114
11
1.01381
21
1.16044
0
LINE
8
BLACK
6
CONTINUOUS
10
1.01381
20
1.16044
11
1.01381
21
1.16036
0
LINE
8
BLACK
6
CONTINUOUS
10
1.01381
20
1.16036
11
1.01386
21
1.16029
0
LINE
8
BLACK
6
CONTINUOUS
10
1.01386
20
1.16029
11
1.02699
21
1.12092
0
LINE
8
BLACK
6
CONTINUOUS
10
1.02699
20
1.12092
11
1.02714
21
1.1199
0
LINE
8
BLACK
6
CONTINUOUS
10
1.02714
20
1.1199
11
1.02639
21
1.11803
0
LINE
8
BLACK
6
CONTINUOUS
10
1.02639
20
1.11803
11
1.02462
21
1.11706
0
LINE
8
BLACK
6
CONTINUOUS
10
1.02462
20
1.11706
11
1.02264
21
1.11747
0
LINE
8
BLACK
6
CONTINUOUS
10
1.02264
20
1.11747
11
1.02138
21
1.11905
0
LINE
8
BLACK
6
CONTINUOUS
10
1.02138
20
1.11905
11
1.01831
21
1.12828
0
LINE
8
BLACK
6
CONTINUOUS
10
1.01831
20
1.12828
11
1.00382
21
1.12828
0
LINE
8
BLACK
6
CONTINUOUS
10
1.00382
20
1.12828
11
1.00074
21
1.11905
0
LINE
8
BLACK
6
CONTINUOUS
10
1.00074
20
1.11905
11
1.00025
21
1.11815
0
LINE
8
BLACK
6
CONTINUOUS
10
1.00025
20
1.11815
11
0.99853
21
1.11709
0
LINE
8
BLACK
6
CONTINUOUS
10
0.99853
20
1.11709
11
0.996532
21
1.11739
0
LINE
8
BLACK
6
CONTINUOUS
10
0.996532
20
1.11739
11
0.995192
21
1.1189
0
LINE
8
BLACK
6
CONTINUOUS
10
0.995192
20
1.1189
11
0.995137
21
1.12092
0
LINE
8
BLACK
6
CONTINUOUS
10
0.995137
20
1.12092
11
1.00826
21
1.16029
0
LINE
8
BLACK
6
CONTINUOUS
10
1.00826
20
1.16029
11
1.00875
21
1.16119
0
LINE
8
BLACK
6
CONTINUOUS
10
1.00875
20
1.16119
11
1.00882
21
1.16124
0
LINE
8
BLACK
6
CONTINUOUS
10
1.00882
20
1.16124
11
1.00885
21
1.16131
0
LINE
8
BLACK
6
CONTINUOUS
10
1.00885
20
1.16131
11
1.00967
21
1.16176
0
LINE
8
BLACK
6
CONTINUOUS
10
1.00967
20
1.16176
11
1.01047
21
1.16225
0
LINE
8
BLACK
6
CONTINUOUS
10
1.01047
20
1.16225
11
1.01055
21
1.16224
0
LINE
8
BLACK
6
CONTINUOUS
10
1.01055
20
1.16224
11
1.01063
21
1.16228
0
LINE
8
BLACK
6
CONTINUOUS
10
1.01063
20
1.16228
11
1.01154
21
1.16209
0
LINE
8
BLACK
6
CONTINUOUS
10
1.00578
20
1.13419
11
1.01634
21
1.13419
0
LINE
8
BLACK
6
CONTINUOUS
10
1.01634
20
1.13419
11
1.01106
21
1.15002
0
LINE
8
BLACK
6
CONTINUOUS
10
1.01106
20
1.15002
11
1.00578
21
1.13419
0
LINE
8
BLACK
6
CONTINUOUS
10
0.477235
20
1.16209
11
0.478159
21
1.16195
0
LINE
8
BLACK
6
CONTINUOUS
10
0.478159
20
1.16195
11
0.478215
21
1.16189
0
LINE
8
BLACK
6
CONTINUOUS
10
0.478215
20
1.16189
11
0.478299
21
1.16187
0
LINE
8
BLACK
6
CONTINUOUS
10
0.478299
20
1.16187
11
0.478879
21
1.16114
0
LINE
8
BLACK
6
CONTINUOUS
10
0.478879
20
1.16114
11
0.479499
21
1.16044
0
LINE
8
BLACK
6
CONTINUOUS
10
0.479499
20
1.16044
11
0.479501
21
1.16036
0
LINE
8
BLACK
6
CONTINUOUS
10
0.479501
20
1.16036
11
0.479554
21
1.16029
0
LINE
8
BLACK
6
CONTINUOUS
10
0.479554
20
1.16029
11
0.492677
21
1.12092
0
LINE
8
BLACK
6
CONTINUOUS
10
0.492677
20
1.12092
11
0.492828
21
1.1199
0
LINE
8
BLACK
6
CONTINUOUS
10
0.492828
20
1.1199
11
0.492086
21
1.11803
0
LINE
8
BLACK
6
CONTINUOUS
10
0.492086
20
1.11803
11
0.490309
21
1.11706
0
LINE
8
BLACK
6
CONTINUOUS
10
0.490309
20
1.11706
11
0.488331
21
1.11747
0
LINE
8
BLACK
6
CONTINUOUS
10
0.488331
20
1.11747
11
0.487075
21
1.11905
0
LINE
8
BLACK
6
CONTINUOUS
10
0.487075
20
1.11905
11
0.483999
21
1.12828
0
LINE
8
BLACK
6
CONTINUOUS
10
0.483999
20
1.12828
11
0.469507
21
1.12828
0
LINE
8
BLACK
6
CONTINUOUS
10
0.469507
20
1.12828
11
0.466431
21
1.11905
0
LINE
8
BLACK
6
CONTINUOUS
10
0.466431
20
1.11905
11
0.465942
21
1.11815
0
LINE
8
BLACK
6
CONTINUOUS
10
0.465942
20
1.11815
11
0.464221
21
1.11709
0
LINE
8
BLACK
6
CONTINUOUS
10
0.464221
20
1.11709
11
0.462224
21
1.11739
0
LINE
8
BLACK
6
CONTINUOUS
10
0.462224
20
1.11739
11
0.460883
21
1.1189
0
LINE
8
BLACK
6
CONTINUOUS
10
0.460883
20
1.1189
11
0.460828
21
1.12092
0
LINE
8
BLACK
6
CONTINUOUS
10
0.460828
20
1.12092
11
0.473952
21
1.16029
0
LINE
8
BLACK
6
CONTINUOUS
10
0.473952
20
1.16029
11
0.47444
21
1.16119
0
LINE
8
BLACK
6
CONTINUOUS
10
0.47444
20
1.16119
11
0.474512
21
1.16124
0
LINE
8
BLACK
6
CONTINUOUS
10
0.474512
20
1.16124
11
0.474544
21
1.16131
0
LINE
8
BLACK
6
CONTINUOUS
10
0.474544
20
1.16131
11
0.475365
21
1.16176
0
LINE
8
BLACK
6
CONTINUOUS
10
0.475365
20
1.16176
11
0.476161
21
1.16225
0
LINE
8
BLACK
6
CONTINUOUS
10
0.476161
20
1.16225
11
0.476245
21
1.16224
0
LINE
8
BLACK
6
CONTINUOUS
10
0.476245
20
1.16224
11
0.47632
21
1.16228
0
LINE
8
BLACK
6
CONTINUOUS
10
0.47632
20
1.16228
11
0.477235
21
1.16209
0
LINE
8
BLACK
6
CONTINUOUS
10
0.471476
20
1.13419
11
0.48203
21
1.13419
0
LINE
8
BLACK
6
CONTINUOUS
10
0.48203
20
1.13419
11
0.476753
21
1.15002
0
LINE
8
BLACK
6
CONTINUOUS
10
0.476753
20
1.15002
11
0.471476
21
1.13419
0
LINE
8
BLACK
6
CONTINUOUS
10
0.707473
20
1.16219
11
0.707862
21
1.16226
0
LINE
8
BLACK
6
CONTINUOUS
10
0.707862
20
1.16226
11
0.70842
21
1.16194
0
LINE
8
BLACK
6
CONTINUOUS
10
0.70842
20
1.16194
11
0.709043
21
1.16177
0
LINE
8
BLACK
6
CONTINUOUS
10
0.709043
20
1.16177
11
0.70927
21
1.16145
0
LINE
8
BLACK
6
CONTINUOUS
10
0.70927
20
1.16145
11
0.709611
21
1.16125
0
LINE
8
BLACK
6
CONTINUOUS
10
0.709611
20
1.16125
11
0.709832
21
1.16065
0
LINE
8
BLACK
6
CONTINUOUS
10
0.709832
20
1.16065
11
0.710201
21
1.16012
0
LINE
8
BLACK
6
CONTINUOUS
10
0.710201
20
1.16012
11
0.710167
21
1.15973
0
LINE
8
BLACK
6
CONTINUOUS
10
0.710167
20
1.15973
11
0.710302
21
1.15936
0
LINE
8
BLACK
6
CONTINUOUS
10
0.710302
20
1.15936
11
0.710302
21
1.11999
0
LINE
8
BLACK
6
CONTINUOUS
10
0.710302
20
1.11999
11
0.710124
21
1.11898
0
LINE
8
BLACK
6
CONTINUOUS
10
0.710124
20
1.11898
11
0.708825
21
1.11743
0
LINE
8
BLACK
6
CONTINUOUS
10
0.708825
20
1.11743
11
0.706836
21
1.11708
0
LINE
8
BLACK
6
CONTINUOUS
10
0.706836
20
1.11708
11
0.705087
21
1.11809
0
LINE
8
BLACK
6
CONTINUOUS
10
0.705087
20
1.11809
11
0.704396
21
1.11999
0
LINE
8
BLACK
6
CONTINUOUS
10
0.704396
20
1.11999
11
0.704396
21
1.14605
0
LINE
8
BLACK
6
CONTINUOUS
10
0.704396
20
1.14605
11
0.696901
21
1.12998
0
LINE
8
BLACK
6
CONTINUOUS
10
0.696901
20
1.12998
11
0.696679
21
1.12967
0
LINE
8
BLACK
6
CONTINUOUS
10
0.696679
20
1.12967
11
0.696645
21
1.12954
0
LINE
8
BLACK
6
CONTINUOUS
10
0.696645
20
1.12954
11
0.696537
21
1.12947
0
LINE
8
BLACK
6
CONTINUOUS
10
0.696537
20
1.12947
11
0.696313
21
1.12915
0
LINE
8
BLACK
6
CONTINUOUS
10
0.696313
20
1.12915
11
0.695619
21
1.12882
0
LINE
8
BLACK
6
CONTINUOUS
10
0.695619
20
1.12882
11
0.694991
21
1.12838
0
LINE
8
BLACK
6
CONTINUOUS
10
0.694991
20
1.12838
11
0.694724
21
1.1284
0
LINE
8
BLACK
6
CONTINUOUS
10
0.694724
20
1.1284
11
0.694482
21
1.12829
0
LINE
8
BLACK
6
CONTINUOUS
10
0.694482
20
1.12829
11
0.693742
21
1.12849
0
LINE
8
BLACK
6
CONTINUOUS
10
0.693742
20
1.12849
11
0.692979
21
1.12856
0
LINE
8
BLACK
6
CONTINUOUS
10
0.692979
20
1.12856
11
0.69279
21
1.12875
0
LINE
8
BLACK
6
CONTINUOUS
10
0.69279
20
1.12875
11
0.692531
21
1.12882
0
LINE
8
BLACK
6
CONTINUOUS
10
0.692531
20
1.12882
11
0.692092
21
1.12944
0
LINE
8
BLACK
6
CONTINUOUS
10
0.692092
20
1.12944
11
0.69155
21
1.12998
0
LINE
8
BLACK
6
CONTINUOUS
10
0.69155
20
1.12998
11
0.684055
21
1.14605
0
LINE
8
BLACK
6
CONTINUOUS
10
0.684055
20
1.14605
11
0.684055
21
1.11999
0
LINE
8
BLACK
6
CONTINUOUS
10
0.684055
20
1.11999
11
0.683877
21
1.11898
0
LINE
8
BLACK
6
CONTINUOUS
10
0.683877
20
1.11898
11
0.682579
21
1.11743
0
LINE
8
BLACK
6
CONTINUOUS
10
0.682579
20
1.11743
11
0.68059
21
1.11708
0
LINE
8
BLACK
6
CONTINUOUS
10
0.68059
20
1.11708
11
0.67884
21
1.11809
0
LINE
8
BLACK
6
CONTINUOUS
10
0.67884
20
1.11809
11
0.67815
21
1.11999
0
LINE
8
BLACK
6
CONTINUOUS
10
0.67815
20
1.11999
11
0.67815
21
1.15936
0
LINE
8
BLACK
6
CONTINUOUS
10
0.67815
20
1.15936
11
0.678328
21
1.16037
0
LINE
8
BLACK
6
CONTINUOUS
10
0.678328
20
1.16037
11
0.678581
21
1.16067
0
LINE
8
BLACK
6
CONTINUOUS
10
0.678581
20
1.16067
11
0.678683
21
1.16105
0
LINE
8
BLACK
6
CONTINUOUS
10
0.678683
20
1.16105
11
0.679211
21
1.16142
0
LINE
8
BLACK
6
CONTINUOUS
10
0.679211
20
1.16142
11
0.679626
21
1.16191
0
LINE
8
BLACK
6
CONTINUOUS
10
0.679626
20
1.16191
11
0.680014
21
1.16198
0
LINE
8
BLACK
6
CONTINUOUS
10
0.680014
20
1.16198
11
0.680337
21
1.16221
0
LINE
8
BLACK
6
CONTINUOUS
10
0.680337
20
1.16221
11
0.68098
21
1.16215
0
LINE
8
BLACK
6
CONTINUOUS
10
0.68098
20
1.16215
11
0.681615
21
1.16226
0
LINE
8
BLACK
6
CONTINUOUS
10
0.681615
20
1.16226
11
0.681957
21
1.16207
0
LINE
8
BLACK
6
CONTINUOUS
10
0.681957
20
1.16207
11
0.682349
21
1.16203
0
LINE
8
BLACK
6
CONTINUOUS
10
0.682349
20
1.16203
11
0.682806
21
1.16158
0
LINE
8
BLACK
6
CONTINUOUS
10
0.682806
20
1.16158
11
0.683364
21
1.16125
0
LINE
8
BLACK
6
CONTINUOUS
10
0.683364
20
1.16125
11
0.683499
21
1.16088
0
LINE
8
BLACK
6
CONTINUOUS
10
0.683499
20
1.16088
11
0.683778
21
1.1606
0
LINE
8
BLACK
6
CONTINUOUS
10
0.683778
20
1.1606
11
0.694226
21
1.13822
0
LINE
8
BLACK
6
CONTINUOUS
10
0.694226
20
1.13822
11
0.704673
21
1.1606
0
LINE
8
BLACK
6
CONTINUOUS
10
0.704673
20
1.1606
11
0.705262
21
1.16144
0
LINE
8
BLACK
6
CONTINUOUS
10
0.705262
20
1.16144
11
0.705619
21
1.16161
0
LINE
8
BLACK
6
CONTINUOUS
10
0.705619
20
1.16161
11
0.705873
21
1.16191
0
LINE
8
BLACK
6
CONTINUOUS
10
0.705873
20
1.16191
11
0.706508
21
1.16202
0
LINE
8
BLACK
6
CONTINUOUS
10
0.706508
20
1.16202
11
0.707093
21
1.1623
0
LINE
8
BLACK
6
CONTINUOUS
10
0.707093
20
1.1623
11
0.707473
21
1.16219
0
LINE
8
BLACK
6
CONTINUOUS
10
1.27017
20
1.14813
11
1.27086
21
1.14623
0
LINE
8
BLACK
6
CONTINUOUS
10
1.27086
20
1.14623
11
1.27086
21
1.11999
0
LINE
8
BLACK
6
CONTINUOUS
10
1.27086
20
1.11999
11
1.27068
21
1.11898
0
LINE
8
BLACK
6
CONTINUOUS
10
1.27068
20
1.11898
11
1.26938
21
1.11743
0
LINE
8
BLACK
6
CONTINUOUS
10
1.26938
20
1.11743
11
1.26739
21
1.11708
0
LINE
8
BLACK
6
CONTINUOUS
10
1.26739
20
1.11708
11
1.26564
21
1.11809
0
LINE
8
BLACK
6
CONTINUOUS
10
1.26564
20
1.11809
11
1.26495
21
1.11999
0
LINE
8
BLACK
6
CONTINUOUS
10
1.26495
20
1.11999
11
1.26495
21
1.14623
0
LINE
8
BLACK
6
CONTINUOUS
10
1.26495
20
1.14623
11
1.26513
21
1.14724
0
LINE
8
BLACK
6
CONTINUOUS
10
1.26513
20
1.14724
11
1.26643
21
1.14879
0
LINE
8
BLACK
6
CONTINUOUS
10
1.26643
20
1.14879
11
1.26842
21
1.14914
0
LINE
8
BLACK
6
CONTINUOUS
10
1.26842
20
1.14914
11
1.27017
21
1.14813
0
LINE
8
BLACK
6
CONTINUOUS
10
1.33453
20
1.14901
11
1.33467
21
1.14889
0
LINE
8
BLACK
6
CONTINUOUS
10
1.33467
20
1.14889
11
1.33484
21
1.14887
0
LINE
8
BLACK
6
CONTINUOUS
10
1.33484
20
1.14887
11
1.33859
21
1.147
0
LINE
8
BLACK
6
CONTINUOUS
10
1.33859
20
1.147
11
1.33941
21
1.14639
0
LINE
8
BLACK
6
CONTINUOUS
10
1.33941
20
1.14639
11
1.33959
21
1.14598
0
LINE
8
BLACK
6
CONTINUOUS
10
1.33959
20
1.14598
11
1.33991
21
1.14568
0
LINE
8
BLACK
6
CONTINUOUS
10
1.33991
20
1.14568
11
1.34179
21
1.14193
0
LINE
8
BLACK
6
CONTINUOUS
10
1.34179
20
1.14193
11
1.34208
21
1.14095
0
LINE
8
BLACK
6
CONTINUOUS
10
1.34208
20
1.14095
11
1.34204
21
1.14077
0
LINE
8
BLACK
6
CONTINUOUS
10
1.34204
20
1.14077
11
1.3421
21
1.14061
0
LINE
8
BLACK
6
CONTINUOUS
10
1.3421
20
1.14061
11
1.3421
21
1.11999
0
LINE
8
BLACK
6
CONTINUOUS
10
1.3421
20
1.11999
11
1.34192
21
1.11898
0
LINE
8
BLACK
6
CONTINUOUS
10
1.34192
20
1.11898
11
1.34062
21
1.11743
0
LINE
8
BLACK
6
CONTINUOUS
10
1.34062
20
1.11743
11
1.33863
21
1.11708
0
LINE
8
BLACK
6
CONTINUOUS
10
1.33863
20
1.11708
11
1.33688
21
1.11809
0
LINE
8
BLACK
6
CONTINUOUS
10
1.33688
20
1.11809
11
1.33619
21
1.11999
0
LINE
8
BLACK
6
CONTINUOUS
10
1.33619
20
1.11999
11
1.33619
21
1.13991
0
LINE
8
BLACK
6
CONTINUOUS
10
1.33619
20
1.13991
11
1.33507
21
1.14216
0
LINE
8
BLACK
6
CONTINUOUS
10
1.33507
20
1.14216
11
1.33282
21
1.14328
0
LINE
8
BLACK
6
CONTINUOUS
10
1.33282
20
1.14328
11
1.32859
21
1.14328
0
LINE
8
BLACK
6
CONTINUOUS
10
1.32859
20
1.14328
11
1.3259
21
1.14193
0
LINE
8
BLACK
6
CONTINUOUS
10
1.3259
20
1.14193
11
1.32522
21
1.14126
0
LINE
8
BLACK
6
CONTINUOUS
10
1.32522
20
1.14126
11
1.32522
21
1.11999
0
LINE
8
BLACK
6
CONTINUOUS
10
1.32522
20
1.11999
11
1.32505
21
1.11898
0
LINE
8
BLACK
6
CONTINUOUS
10
1.32505
20
1.11898
11
1.32375
21
1.11743
0
LINE
8
BLACK
6
CONTINUOUS
10
1.32375
20
1.11743
11
1.32176
21
1.11708
0
LINE
8
BLACK
6
CONTINUOUS
10
1.32176
20
1.11708
11
1.32001
21
1.11809
0
LINE
8
BLACK
6
CONTINUOUS
10
1.32001
20
1.11809
11
1.31932
21
1.11999
0
LINE
8
BLACK
6
CONTINUOUS
10
1.31932
20
1.11999
11
1.31932
21
1.14623
0
LINE
8
BLACK
6
CONTINUOUS
10
1.31932
20
1.14623
11
1.3195
21
1.14724
0
LINE
8
BLACK
6
CONTINUOUS
10
1.3195
20
1.14724
11
1.3208
21
1.14879
0
LINE
8
BLACK
6
CONTINUOUS
10
1.3208
20
1.14879
11
1.32278
21
1.14914
0
LINE
8
BLACK
6
CONTINUOUS
10
1.32278
20
1.14914
11
1.32453
21
1.14813
0
LINE
8
BLACK
6
CONTINUOUS
10
1.32453
20
1.14813
11
1.32462
21
1.14789
0
LINE
8
BLACK
6
CONTINUOUS
10
1.32462
20
1.14789
11
1.32658
21
1.14887
0
LINE
8
BLACK
6
CONTINUOUS
10
1.32658
20
1.14887
11
1.32756
21
1.14917
0
LINE
8
BLACK
6
CONTINUOUS
10
1.32756
20
1.14917
11
1.32773
21
1.14912
0
LINE
8
BLACK
6
CONTINUOUS
10
1.32773
20
1.14912
11
1.3279
21
1.14918
0
LINE
8
BLACK
6
CONTINUOUS
10
1.3279
20
1.14918
11
1.33352
21
1.14918
0
LINE
8
BLACK
6
CONTINUOUS
10
1.33352
20
1.14918
11
1.33453
21
1.14901
0
LINE
8
BLACK
6
CONTINUOUS
10
1.10206
20
1.16213
11
1.1022
21
1.16202
0
LINE
8
BLACK
6
CONTINUOUS
10
1.1022
20
1.16202
11
1.10237
21
1.162
0
LINE
8
BLACK
6
CONTINUOUS
10
1.10237
20
1.162
11
1.10612
21
1.16012
0
LINE
8
BLACK
6
CONTINUOUS
10
1.10612
20
1.16012
11
1.10683
21
1.1596
0
LINE
8
BLACK
6
CONTINUOUS
10
1.10683
20
1.1596
11
1.10689
21
1.15957
0
LINE
8
BLACK
6
CONTINUOUS
10
1.10689
20
1.15957
11
1.10876
21
1.15769
0
LINE
8
BLACK
6
CONTINUOUS
10
1.10876
20
1.15769
11
1.10927
21
1.15697
0
LINE
8
BLACK
6
CONTINUOUS
10
1.10927
20
1.15697
11
1.10932
21
1.15693
0
LINE
8
BLACK
6
CONTINUOUS
10
1.10932
20
1.15693
11
1.11119
21
1.15318
0
LINE
8
BLACK
6
CONTINUOUS
10
1.11119
20
1.15318
11
1.11148
21
1.15219
0
LINE
8
BLACK
6
CONTINUOUS
10
1.11148
20
1.15219
11
1.11144
21
1.15202
0
LINE
8
BLACK
6
CONTINUOUS
10
1.11144
20
1.15202
11
1.1115
21
1.15186
0
LINE
8
BLACK
6
CONTINUOUS
10
1.1115
20
1.15186
11
1.1115
21
1.14623
0
LINE
8
BLACK
6
CONTINUOUS
10
1.1115
20
1.14623
11
1.11132
21
1.14522
0
LINE
8
BLACK
6
CONTINUOUS
10
1.11132
20
1.14522
11
1.11121
21
1.14509
0
LINE
8
BLACK
6
CONTINUOUS
10
1.11121
20
1.14509
11
1.11119
21
1.14491
0
LINE
8
BLACK
6
CONTINUOUS
10
1.11119
20
1.14491
11
1.10932
21
1.14116
0
LINE
8
BLACK
6
CONTINUOUS
10
1.10932
20
1.14116
11
1.10879
21
1.14045
0
LINE
8
BLACK
6
CONTINUOUS
10
1.10879
20
1.14045
11
1.10876
21
1.14039
0
LINE
8
BLACK
6
CONTINUOUS
10
1.10876
20
1.14039
11
1.10689
21
1.13852
0
LINE
8
BLACK
6
CONTINUOUS
10
1.10689
20
1.13852
11
1.10616
21
1.13801
0
LINE
8
BLACK
6
CONTINUOUS
10
1.10616
20
1.13801
11
1.10612
21
1.13797
0
LINE
8
BLACK
6
CONTINUOUS
10
1.10612
20
1.13797
11
1.10237
21
1.13609
0
LINE
8
BLACK
6
CONTINUOUS
10
1.10237
20
1.13609
11
1.10139
21
1.1358
0
LINE
8
BLACK
6
CONTINUOUS
10
1.10139
20
1.1358
11
1.10122
21
1.13584
0
LINE
8
BLACK
6
CONTINUOUS
10
1.10122
20
1.13584
11
1.10105
21
1.13578
0
LINE
8
BLACK
6
CONTINUOUS
10
1.10105
20
1.13578
11
1.089
21
1.13578
0
LINE
8
BLACK
6
CONTINUOUS
10
1.089
20
1.13578
11
1.089
21
1.11999
0
LINE
8
BLACK
6
CONTINUOUS
10
1.089
20
1.11999
11
1.08883
21
1.11898
0
LINE
8
BLACK
6
CONTINUOUS
10
1.08883
20
1.11898
11
1.08753
21
1.11743
0
LINE
8
BLACK
6
CONTINUOUS
10
1.08753
20
1.11743
11
1.08554
21
1.11708
0
LINE
8
BLACK
6
CONTINUOUS
10
1.08554
20
1.11708
11
1.08379
21
1.11809
0
LINE
8
BLACK
6
CONTINUOUS
10
1.08379
20
1.11809
11
1.0831
21
1.11999
0
LINE
8
BLACK
6
CONTINUOUS
10
1.0831
20
1.11999
11
1.0831
21
1.15936
0
LINE
8
BLACK
6
CONTINUOUS
10
1.0831
20
1.15936
11
1.08317
21
1.15974
0
LINE
8
BLACK
6
CONTINUOUS
10
1.08317
20
1.15974
11
1.08314
21
1.15987
0
LINE
8
BLACK
6
CONTINUOUS
10
1.08314
20
1.15987
11
1.08321
21
1.15998
0
LINE
8
BLACK
6
CONTINUOUS
10
1.08321
20
1.15998
11
1.08328
21
1.16037
0
LINE
8
BLACK
6
CONTINUOUS
10
1.08328
20
1.16037
11
1.08377
21
1.16095
0
LINE
8
BLACK
6
CONTINUOUS
10
1.08377
20
1.16095
11
1.08415
21
1.16162
0
LINE
8
BLACK
6
CONTINUOUS
10
1.08415
20
1.16162
11
1.0844
21
1.16171
0
LINE
8
BLACK
6
CONTINUOUS
10
1.0844
20
1.16171
11
1.08458
21
1.16191
0
LINE
8
BLACK
6
CONTINUOUS
10
1.08458
20
1.16191
11
1.08533
21
1.16205
0
LINE
8
BLACK
6
CONTINUOUS
10
1.08533
20
1.16205
11
1.08605
21
1.16231
0
LINE
8
BLACK
6
CONTINUOUS
10
1.08605
20
1.16231
11
1.10105
21
1.16231
0
LINE
8
BLACK
6
CONTINUOUS
10
1.10105
20
1.16231
11
1.10206
21
1.16213
0
LINE
8
BLACK
6
CONTINUOUS
10
1.089
20
1.1564
11
1.089
21
1.14169
0
LINE
8
BLACK
6
CONTINUOUS
10
1.089
20
1.14169
11
1.10035
21
1.14169
0
LINE
8
BLACK
6
CONTINUOUS
10
1.10035
20
1.14169
11
1.10305
21
1.14303
0
LINE
8
BLACK
6
CONTINUOUS
10
1.10305
20
1.14303
11
1.10425
21
1.14423
0
LINE
8
BLACK
6
CONTINUOUS
10
1.10425
20
1.14423
11
1.1056
21
1.14693
0
LINE
8
BLACK
6
CONTINUOUS
10
1.1056
20
1.14693
11
1.1056
21
1.15116
0
LINE
8
BLACK
6
CONTINUOUS
10
1.1056
20
1.15116
11
1.10425
21
1.15386
0
LINE
8
BLACK
6
CONTINUOUS
10
1.10425
20
1.15386
11
1.10305
21
1.15505
0
LINE
8
BLACK
6
CONTINUOUS
10
1.10305
20
1.15505
11
1.10035
21
1.1564
0
LINE
8
BLACK
6
CONTINUOUS
10
1.10035
20
1.1564
11
1.089
21
1.1564
0
LINE
8
BLACK
6
CONTINUOUS
10
1.21955
20
1.14813
11
1.22024
21
1.14623
0
LINE
8
BLACK
6
CONTINUOUS
10
1.22024
20
1.14623
11
1.22024
21
1.11999
0
LINE
8
BLACK
6
CONTINUOUS
10
1.22024
20
1.11999
11
1.22006
21
1.11898
0
LINE
8
BLACK
6
CONTINUOUS
10
1.22006
20
1.11898
11
1.21876
21
1.11743
0
LINE
8
BLACK
6
CONTINUOUS
10
1.21876
20
1.11743
11
1.21677
21
1.11708
0
LINE
8
BLACK
6
CONTINUOUS
10
1.21677
20
1.11708
11
1.21502
21
1.11809
0
LINE
8
BLACK
6
CONTINUOUS
10
1.21502
20
1.11809
11
1.21433
21
1.11999
0
LINE
8
BLACK
6
CONTINUOUS
10
1.21433
20
1.11999
11
1.21433
21
1.14623
0
LINE
8
BLACK
6
CONTINUOUS
10
1.21433
20
1.14623
11
1.21451
21
1.14724
0
LINE
8
BLACK
6
CONTINUOUS
10
1.21451
20
1.14724
11
1.21581
21
1.14879
0
LINE
8
BLACK
6
CONTINUOUS
10
1.21581
20
1.14879
11
1.2178
21
1.14914
0
LINE
8
BLACK
6
CONTINUOUS
10
1.2178
20
1.14914
11
1.21955
21
1.14813
0
LINE
8
BLACK
6
CONTINUOUS
10
1.13768
20
1.14901
11
1.13923
21
1.14771
0
LINE
8
BLACK
6
CONTINUOUS
10
1.13923
20
1.14771
11
1.13958
21
1.14572
0
LINE
8
BLACK
6
CONTINUOUS
10
1.13958
20
1.14572
11
1.13857
21
1.14397
0
LINE
8
BLACK
6
CONTINUOUS
10
1.13857
20
1.14397
11
1.13667
21
1.14328
0
LINE
8
BLACK
6
CONTINUOUS
10
1.13667
20
1.14328
11
1.13362
21
1.14328
0
LINE
8
BLACK
6
CONTINUOUS
10
1.13362
20
1.14328
11
1.13092
21
1.14193
0
LINE
8
BLACK
6
CONTINUOUS
10
1.13092
20
1.14193
11
1.12972
21
1.14073
0
LINE
8
BLACK
6
CONTINUOUS
10
1.12972
20
1.14073
11
1.12837
21
1.13804
0
LINE
8
BLACK
6
CONTINUOUS
10
1.12837
20
1.13804
11
1.12837
21
1.11999
0
LINE
8
BLACK
6
CONTINUOUS
10
1.12837
20
1.11999
11
1.1282
21
1.11898
0
LINE
8
BLACK
6
CONTINUOUS
10
1.1282
20
1.11898
11
1.1269
21
1.11743
0
LINE
8
BLACK
6
CONTINUOUS
10
1.1269
20
1.11743
11
1.12491
21
1.11708
0
LINE
8
BLACK
6
CONTINUOUS
10
1.12491
20
1.11708
11
1.12316
21
1.11809
0
LINE
8
BLACK
6
CONTINUOUS
10
1.12316
20
1.11809
11
1.12247
21
1.11999
0
LINE
8
BLACK
6
CONTINUOUS
10
1.12247
20
1.11999
11
1.12247
21
1.14623
0
LINE
8
BLACK
6
CONTINUOUS
10
1.12247
20
1.14623
11
1.12265
21
1.14724
0
LINE
8
BLACK
6
CONTINUOUS
10
1.12265
20
1.14724
11
1.12395
21
1.14879
0
LINE
8
BLACK
6
CONTINUOUS
10
1.12395
20
1.14879
11
1.12593
21
1.14914
0
LINE
8
BLACK
6
CONTINUOUS
10
1.12593
20
1.14914
11
1.12768
21
1.14813
0
LINE
8
BLACK
6
CONTINUOUS
10
1.12768
20
1.14813
11
1.12806
21
1.1471
0
LINE
8
BLACK
6
CONTINUOUS
10
1.12806
20
1.1471
11
1.1316
21
1.14887
0
LINE
8
BLACK
6
CONTINUOUS
10
1.1316
20
1.14887
11
1.13258
21
1.14917
0
LINE
8
BLACK
6
CONTINUOUS
10
1.13258
20
1.14917
11
1.13275
21
1.14912
0
LINE
8
BLACK
6
CONTINUOUS
10
1.13275
20
1.14912
11
1.13292
21
1.14918
0
LINE
8
BLACK
6
CONTINUOUS
10
1.13292
20
1.14918
11
1.13667
21
1.14918
0
LINE
8
BLACK
6
CONTINUOUS
10
1.13667
20
1.14918
11
1.13768
21
1.14901
0
LINE
8
BLACK
6
CONTINUOUS
10
1.49139
20
1.16125
11
1.49208
21
1.15936
0
LINE
8
BLACK
6
CONTINUOUS
10
1.49208
20
1.15936
11
1.49208
21
1.13836
0
LINE
8
BLACK
6
CONTINUOUS
10
1.49208
20
1.13836
11
1.50204
21
1.14832
0
LINE
8
BLACK
6
CONTINUOUS
10
1.50204
20
1.14832
11
1.50288
21
1.14891
0
LINE
8
BLACK
6
CONTINUOUS
10
1.50288
20
1.14891
11
1.50489
21
1.14908
0
LINE
8
BLACK
6
CONTINUOUS
10
1.50489
20
1.14908
11
1.50654
21
1.14793
0
LINE
8
BLACK
6
CONTINUOUS
10
1.50654
20
1.14793
11
1.50707
21
1.14597
0
LINE
8
BLACK
6
CONTINUOUS
10
1.50707
20
1.14597
11
1.50621
21
1.14414
0
LINE
8
BLACK
6
CONTINUOUS
10
1.50621
20
1.14414
11
1.49677
21
1.13471
0
LINE
8
BLACK
6
CONTINUOUS
10
1.49677
20
1.13471
11
1.50649
21
1.12176
0
LINE
8
BLACK
6
CONTINUOUS
10
1.50649
20
1.12176
11
1.50695
21
1.12084
0
LINE
8
BLACK
6
CONTINUOUS
10
1.50695
20
1.12084
11
1.50684
21
1.11883
0
LINE
8
BLACK
6
CONTINUOUS
10
1.50684
20
1.11883
11
1.50546
21
1.11735
0
LINE
8
BLACK
6
CONTINUOUS
10
1.50546
20
1.11735
11
1.50345
21
1.11711
0
LINE
8
BLACK
6
CONTINUOUS
10
1.50345
20
1.11711
11
1.50176
21
1.11821
0
LINE
8
BLACK
6
CONTINUOUS
10
1.50176
20
1.11821
11
1.49256
21
1.13049
0
LINE
8
BLACK
6
CONTINUOUS
10
1.49256
20
1.13049
11
1.49208
21
1.13001
0
LINE
8
BLACK
6
CONTINUOUS
10
1.49208
20
1.13001
11
1.49208
21
1.11999
0
LINE
8
BLACK
6
CONTINUOUS
10
1.49208
20
1.11999
11
1.4919
21
1.11898
0
LINE
8
BLACK
6
CONTINUOUS
10
1.4919
20
1.11898
11
1.4906
21
1.11743
0
LINE
8
BLACK
6
CONTINUOUS
10
1.4906
20
1.11743
11
1.48861
21
1.11708
0
LINE
8
BLACK
6
CONTINUOUS
10
1.48861
20
1.11708
11
1.48686
21
1.11809
0
LINE
8
BLACK
6
CONTINUOUS
10
1.48686
20
1.11809
11
1.48617
21
1.11999
0
LINE
8
BLACK
6
CONTINUOUS
10
1.48617
20
1.11999
11
1.48617
21
1.15936
0
LINE
8
BLACK
6
CONTINUOUS
10
1.48617
20
1.15936
11
1.48635
21
1.16037
0
LINE
8
BLACK
6
CONTINUOUS
10
1.48635
20
1.16037
11
1.48765
21
1.16191
0
LINE
8
BLACK
6
CONTINUOUS
10
1.48765
20
1.16191
11
1.48964
21
1.16226
0
LINE
8
BLACK
6
CONTINUOUS
10
1.48964
20
1.16226
11
1.49139
21
1.16125
0
LINE
8
BLACK
6
CONTINUOUS
10
0.869589
20
1.13776
11
0.871136
21
1.13646
0
LINE
8
BLACK
6
CONTINUOUS
10
0.871136
20
1.13646
11
0.871487
21
1.13447
0
LINE
8
BLACK
6
CONTINUOUS
10
0.871487
20
1.13447
11
0.870477
21
1.13272
0
LINE
8
BLACK
6
CONTINUOUS
10
0.870477
20
1.13272
11
0.868579
21
1.13203
0
LINE
8
BLACK
6
CONTINUOUS
10
0.868579
20
1.13203
11
0.838583
21
1.13203
0
LINE
8
BLACK
6
CONTINUOUS
10
0.838583
20
1.13203
11
0.837573
21
1.13221
0
LINE
8
BLACK
6
CONTINUOUS
10
0.837573
20
1.13221
11
0.836026
21
1.13351
0
LINE
8
BLACK
6
CONTINUOUS
10
0.836026
20
1.13351
11
0.835675
21
1.1355
0
LINE
8
BLACK
6
CONTINUOUS
10
0.835675
20
1.1355
11
0.836685
21
1.13725
0
LINE
8
BLACK
6
CONTINUOUS
10
0.836685
20
1.13725
11
0.838583
21
1.13794
0
LINE
8
BLACK
6
CONTINUOUS
10
0.838583
20
1.13794
11
0.868579
21
1.13794
0
LINE
8
BLACK
6
CONTINUOUS
10
0.868579
20
1.13794
11
0.869589
21
1.13776
0
LINE
8
BLACK
6
CONTINUOUS
10
1.26828
20
1.16224
11
1.26842
21
1.16226
0
LINE
8
BLACK
6
CONTINUOUS
10
1.26842
20
1.16226
11
1.26853
21
1.1622
0
LINE
8
BLACK
6
CONTINUOUS
10
1.26853
20
1.1622
11
1.26867
21
1.16221
0
LINE
8
BLACK
6
CONTINUOUS
10
1.26867
20
1.16221
11
1.2693
21
1.16177
0
LINE
8
BLACK
6
CONTINUOUS
10
1.2693
20
1.16177
11
1.26999
21
1.16144
0
LINE
8
BLACK
6
CONTINUOUS
10
1.26999
20
1.16144
11
1.27187
21
1.15957
0
LINE
8
BLACK
6
CONTINUOUS
10
1.27187
20
1.15957
11
1.27209
21
1.15925
0
LINE
8
BLACK
6
CONTINUOUS
10
1.27209
20
1.15925
11
1.2722
21
1.15917
0
LINE
8
BLACK
6
CONTINUOUS
10
1.2722
20
1.15917
11
1.27223
21
1.15905
0
LINE
8
BLACK
6
CONTINUOUS
10
1.27223
20
1.15905
11
1.27245
21
1.15873
0
LINE
8
BLACK
6
CONTINUOUS
10
1.27245
20
1.15873
11
1.27252
21
1.15796
0
LINE
8
BLACK
6
CONTINUOUS
10
1.27252
20
1.15796
11
1.27272
21
1.15722
0
LINE
8
BLACK
6
CONTINUOUS
10
1.27272
20
1.15722
11
1.27261
21
1.15698
0
LINE
8
BLACK
6
CONTINUOUS
10
1.27261
20
1.15698
11
1.27263
21
1.15672
0
LINE
8
BLACK
6
CONTINUOUS
10
1.27263
20
1.15672
11
1.27219
21
1.15609
0
LINE
8
BLACK
6
CONTINUOUS
10
1.27219
20
1.15609
11
1.27187
21
1.15539
0
LINE
8
BLACK
6
CONTINUOUS
10
1.27187
20
1.15539
11
1.26999
21
1.15352
0
LINE
8
BLACK
6
CONTINUOUS
10
1.26999
20
1.15352
11
1.26967
21
1.15329
0
LINE
8
BLACK
6
CONTINUOUS
10
1.26967
20
1.15329
11
1.2696
21
1.15319
0
LINE
8
BLACK
6
CONTINUOUS
10
1.2696
20
1.15319
11
1.26947
21
1.15315
0
LINE
8
BLACK
6
CONTINUOUS
10
1.26947
20
1.15315
11
1.26946
21
1.15315
0
LINE
8
BLACK
6
CONTINUOUS
10
1.26946
20
1.15315
11
1.26938
21
1.15305
0
LINE
8
BLACK
6
CONTINUOUS
10
1.26938
20
1.15305
11
1.2693
21
1.15303
0
LINE
8
BLACK
6
CONTINUOUS
10
1.2693
20
1.15303
11
1.26915
21
1.15293
0
LINE
8
BLACK
6
CONTINUOUS
10
1.26915
20
1.15293
11
1.26839
21
1.15286
0
LINE
8
BLACK
6
CONTINUOUS
10
1.26839
20
1.15286
11
1.26765
21
1.15266
0
LINE
8
BLACK
6
CONTINUOUS
10
1.26765
20
1.15266
11
1.26752
21
1.15272
0
LINE
8
BLACK
6
CONTINUOUS
10
1.26752
20
1.15272
11
1.26739
21
1.1527
0
LINE
8
BLACK
6
CONTINUOUS
10
1.26739
20
1.1527
11
1.26727
21
1.15277
0
LINE
8
BLACK
6
CONTINUOUS
10
1.26727
20
1.15277
11
1.26714
21
1.15275
0
LINE
8
BLACK
6
CONTINUOUS
10
1.26714
20
1.15275
11
1.26651
21
1.15319
0
LINE
8
BLACK
6
CONTINUOUS
10
1.26651
20
1.15319
11
1.26582
21
1.15352
0
LINE
8
BLACK
6
CONTINUOUS
10
1.26582
20
1.15352
11
1.26394
21
1.15539
0
LINE
8
BLACK
6
CONTINUOUS
10
1.26394
20
1.15539
11
1.26372
21
1.15571
0
LINE
8
BLACK
6
CONTINUOUS
10
1.26372
20
1.15571
11
1.26361
21
1.15579
0
LINE
8
BLACK
6
CONTINUOUS
10
1.26361
20
1.15579
11
1.26358
21
1.15591
0
LINE
8
BLACK
6
CONTINUOUS
10
1.26358
20
1.15591
11
1.26335
21
1.15623
0
LINE
8
BLACK
6
CONTINUOUS
10
1.26335
20
1.15623
11
1.26329
21
1.157
0
LINE
8
BLACK
6
CONTINUOUS
10
1.26329
20
1.157
11
1.26309
21
1.15774
0
LINE
8
BLACK
6
CONTINUOUS
10
1.26309
20
1.15774
11
1.2632
21
1.15798
0
LINE
8
BLACK
6
CONTINUOUS
10
1.2632
20
1.15798
11
1.26318
21
1.15824
0
LINE
8
BLACK
6
CONTINUOUS
10
1.26318
20
1.15824
11
1.26362
21
1.15887
0
LINE
8
BLACK
6
CONTINUOUS
10
1.26362
20
1.15887
11
1.26394
21
1.15957
0
LINE
8
BLACK
6
CONTINUOUS
10
1.26394
20
1.15957
11
1.26582
21
1.16144
0
LINE
8
BLACK
6
CONTINUOUS
10
1.26582
20
1.16144
11
1.26614
21
1.16167
0
LINE
8
BLACK
6
CONTINUOUS
10
1.26614
20
1.16167
11
1.26621
21
1.16177
0
LINE
8
BLACK
6
CONTINUOUS
10
1.26621
20
1.16177
11
1.26634
21
1.16181
0
LINE
8
BLACK
6
CONTINUOUS
10
1.26634
20
1.16181
11
1.26634
21
1.16181
0
LINE
8
BLACK
6
CONTINUOUS
10
1.26634
20
1.16181
11
1.26643
21
1.16191
0
LINE
8
BLACK
6
CONTINUOUS
10
1.26643
20
1.16191
11
1.26651
21
1.16193
0
LINE
8
BLACK
6
CONTINUOUS
10
1.26651
20
1.16193
11
1.26666
21
1.16203
0
LINE
8
BLACK
6
CONTINUOUS
10
1.26666
20
1.16203
11
1.26742
21
1.1621
0
LINE
8
BLACK
6
CONTINUOUS
10
1.26742
20
1.1621
11
1.26816
21
1.1623
0
LINE
8
BLACK
6
CONTINUOUS
10
1.26816
20
1.1623
11
1.26828
21
1.16224
0
LINE
8
BLACK
6
CONTINUOUS
10
1.21766
20
1.16224
11
1.2178
21
1.16226
0
LINE
8
BLACK
6
CONTINUOUS
10
1.2178
20
1.16226
11
1.21792
21
1.1622
0
LINE
8
BLACK
6
CONTINUOUS
10
1.21792
20
1.1622
11
1.21805
21
1.16221
0
LINE
8
BLACK
6
CONTINUOUS
10
1.21805
20
1.16221
11
1.21868
21
1.16177
0
LINE
8
BLACK
6
CONTINUOUS
10
1.21868
20
1.16177
11
1.21937
21
1.16144
0
LINE
8
BLACK
6
CONTINUOUS
10
1.21937
20
1.16144
11
1.22125
21
1.15957
0
LINE
8
BLACK
6
CONTINUOUS
10
1.22125
20
1.15957
11
1.22147
21
1.15925
0
LINE
8
BLACK
6
CONTINUOUS
10
1.22147
20
1.15925
11
1.22158
21
1.15917
0
LINE
8
BLACK
6
CONTINUOUS
10
1.22158
20
1.15917
11
1.22161
21
1.15905
0
LINE
8
BLACK
6
CONTINUOUS
10
1.22161
20
1.15905
11
1.22184
21
1.15873
0
LINE
8
BLACK
6
CONTINUOUS
10
1.22184
20
1.15873
11
1.2219
21
1.15796
0
LINE
8
BLACK
6
CONTINUOUS
10
1.2219
20
1.15796
11
1.2221
21
1.15722
0
LINE
8
BLACK
6
CONTINUOUS
10
1.2221
20
1.15722
11
1.22199
21
1.15698
0
LINE
8
BLACK
6
CONTINUOUS
10
1.22199
20
1.15698
11
1.22201
21
1.15672
0
LINE
8
BLACK
6
CONTINUOUS
10
1.22201
20
1.15672
11
1.22157
21
1.15609
0
LINE
8
BLACK
6
CONTINUOUS
10
1.22157
20
1.15609
11
1.22125
21
1.15539
0
LINE
8
BLACK
6
CONTINUOUS
10
1.22125
20
1.15539
11
1.21937
21
1.15352
0
LINE
8
BLACK
6
CONTINUOUS
10
1.21937
20
1.15352
11
1.21905
21
1.15329
0
LINE
8
BLACK
6
CONTINUOUS
10
1.21905
20
1.15329
11
1.21898
21
1.15319
0
LINE
8
BLACK
6
CONTINUOUS
10
1.21898
20
1.15319
11
1.21885
21
1.15315
0
LINE
8
BLACK
6
CONTINUOUS
10
1.21885
20
1.15315
11
1.21885
21
1.15315
0
LINE
8
BLACK
6
CONTINUOUS
10
1.21885
20
1.15315
11
1.21876
21
1.15305
0
LINE
8
BLACK
6
CONTINUOUS
10
1.21876
20
1.15305
11
1.21868
21
1.15303
0
LINE
8
BLACK
6
CONTINUOUS
10
1.21868
20
1.15303
11
1.21853
21
1.15293
0
LINE
8
BLACK
6
CONTINUOUS
10
1.21853
20
1.15293
11
1.21777
21
1.15286
0
LINE
8
BLACK
6
CONTINUOUS
10
1.21777
20
1.15286
11
1.21703
21
1.15266
0
LINE
8
BLACK
6
CONTINUOUS
10
1.21703
20
1.15266
11
1.21691
21
1.15272
0
LINE
8
BLACK
6
CONTINUOUS
10
1.21691
20
1.15272
11
1.21677
21
1.1527
0
LINE
8
BLACK
6
CONTINUOUS
10
1.21677
20
1.1527
11
1.21666
21
1.15277
0
LINE
8
BLACK
6
CONTINUOUS
10
1.21666
20
1.15277
11
1.21652
21
1.15275
0
LINE
8
BLACK
6
CONTINUOUS
10
1.21652
20
1.15275
11
1.21589
21
1.15319
0
LINE
8
BLACK
6
CONTINUOUS
10
1.21589
20
1.15319
11
1.2152
21
1.15352
0
LINE
8
BLACK
6
CONTINUOUS
10
1.2152
20
1.15352
11
1.21332
21
1.15539
0
LINE
8
BLACK
6
CONTINUOUS
10
1.21332
20
1.15539
11
1.2131
21
1.15571
0
LINE
8
BLACK
6
CONTINUOUS
10
1.2131
20
1.15571
11
1.21299
21
1.15579
0
LINE
8
BLACK
6
CONTINUOUS
10
1.21299
20
1.15579
11
1.21296
21
1.15591
0
LINE
8
BLACK
6
CONTINUOUS
10
1.21296
20
1.15591
11
1.21273
21
1.15623
0
LINE
8
BLACK
6
CONTINUOUS
10
1.21273
20
1.15623
11
1.21267
21
1.157
0
LINE
8
BLACK
6
CONTINUOUS
10
1.21267
20
1.157
11
1.21247
21
1.15774
0
LINE
8
BLACK
6
CONTINUOUS
10
1.21247
20
1.15774
11
1.21258
21
1.15798
0
LINE
8
BLACK
6
CONTINUOUS
10
1.21258
20
1.15798
11
1.21256
21
1.15824
0
LINE
8
BLACK
6
CONTINUOUS
10
1.21256
20
1.15824
11
1.213
21
1.15887
0
LINE
8
BLACK
6
CONTINUOUS
10
1.213
20
1.15887
11
1.21332
21
1.15957
0
LINE
8
BLACK
6
CONTINUOUS
10
1.21332
20
1.15957
11
1.2152
21
1.16144
0
LINE
8
BLACK
6
CONTINUOUS
10
1.2152
20
1.16144
11
1.21552
21
1.16167
0
LINE
8
BLACK
6
CONTINUOUS
10
1.21552
20
1.16167
11
1.21559
21
1.16177
0
LINE
8
BLACK
6
CONTINUOUS
10
1.21559
20
1.16177
11
1.21572
21
1.16181
0
LINE
8
BLACK
6
CONTINUOUS
10
1.21572
20
1.16181
11
1.21573
21
1.16181
0
LINE
8
BLACK
6
CONTINUOUS
10
1.21573
20
1.16181
11
1.21581
21
1.16191
0
LINE
8
BLACK
6
CONTINUOUS
10
1.21581
20
1.16191
11
1.21589
21
1.16193
0
LINE
8
BLACK
6
CONTINUOUS
10
1.21589
20
1.16193
11
1.21604
21
1.16203
0
LINE
8
BLACK
6
CONTINUOUS
10
1.21604
20
1.16203
11
1.2168
21
1.1621
0
LINE
8
BLACK
6
CONTINUOUS
10
1.2168
20
1.1621
11
1.21754
21
1.1623
0
LINE
8
BLACK
6
CONTINUOUS
10
1.21754
20
1.1623
11
1.21766
21
1.16224
0
LINE
8
BLACK
6
CONTINUOUS
10
1.70944
20
2.21824
11
1.70957
21
2.21826
0
LINE
8
BLACK
6
CONTINUOUS
10
1.70957
20
2.21826
11
1.70968
21
2.2182
0
LINE
8
BLACK
6
CONTINUOUS
10
1.70968
20
2.2182
11
1.71007
21
2.21813
0
LINE
8
BLACK
6
CONTINUOUS
10
1.71007
20
2.21813
11
1.71065
21
2.21764
0
LINE
8
BLACK
6
CONTINUOUS
10
1.71065
20
2.21764
11
1.71132
21
2.21725
0
LINE
8
BLACK
6
CONTINUOUS
10
1.71132
20
2.21725
11
1.71141
21
2.217
0
LINE
8
BLACK
6
CONTINUOUS
10
1.71141
20
2.217
11
1.71161
21
2.21683
0
LINE
8
BLACK
6
CONTINUOUS
10
1.71161
20
2.21683
11
1.71175
21
2.21608
0
LINE
8
BLACK
6
CONTINUOUS
10
1.71175
20
2.21608
11
1.71201
21
2.21535
0
LINE
8
BLACK
6
CONTINUOUS
10
1.71201
20
2.21535
11
1.71201
21
2.11535
0
LINE
8
BLACK
6
CONTINUOUS
10
1.71201
20
2.11535
11
1.71194
21
2.11497
0
LINE
8
BLACK
6
CONTINUOUS
10
1.71194
20
2.11497
11
1.71196
21
2.11484
0
LINE
8
BLACK
6
CONTINUOUS
10
1.71196
20
2.11484
11
1.7119
21
2.11473
0
LINE
8
BLACK
6
CONTINUOUS
10
1.7119
20
2.11473
11
1.71183
21
2.11434
0
LINE
8
BLACK
6
CONTINUOUS
10
1.71183
20
2.11434
11
1.71134
21
2.11376
0
LINE
8
BLACK
6
CONTINUOUS
10
1.71134
20
2.11376
11
1.71095
21
2.11309
0
LINE
8
BLACK
6
CONTINUOUS
10
1.71095
20
2.11309
11
1.7107
21
2.113
0
LINE
8
BLACK
6
CONTINUOUS
10
1.7107
20
2.113
11
1.71053
21
2.1128
0
LINE
8
BLACK
6
CONTINUOUS
10
1.71053
20
2.1128
11
1.70978
21
2.11266
0
LINE
8
BLACK
6
CONTINUOUS
10
1.70978
20
2.11266
11
1.70906
21
2.1124
0
LINE
8
BLACK
6
CONTINUOUS
10
1.70906
20
2.1124
11
1.40906
21
2.1124
0
LINE
8
BLACK
6
CONTINUOUS
10
1.40906
20
2.1124
11
1.40867
21
2.11247
0
LINE
8
BLACK
6
CONTINUOUS
10
1.40867
20
2.11247
11
1.40854
21
2.11245
0
LINE
8
BLACK
6
CONTINUOUS
10
1.40854
20
2.11245
11
1.40843
21
2.11251
0
LINE
8
BLACK
6
CONTINUOUS
10
1.40843
20
2.11251
11
1.40805
21
2.11258
0
LINE
8
BLACK
6
CONTINUOUS
10
1.40805
20
2.11258
11
1.40746
21
2.11307
0
LINE
8
BLACK
6
CONTINUOUS
10
1.40746
20
2.11307
11
1.40679
21
2.11346
0
LINE
8
BLACK
6
CONTINUOUS
10
1.40679
20
2.11346
11
1.4067
21
2.11371
0
LINE
8
BLACK
6
CONTINUOUS
10
1.4067
20
2.11371
11
1.4065
21
2.11388
0
LINE
8
BLACK
6
CONTINUOUS
10
1.4065
20
2.11388
11
1.40636
21
2.11463
0
LINE
8
BLACK
6
CONTINUOUS
10
1.40636
20
2.11463
11
1.4061
21
2.11535
0
LINE
8
BLACK
6
CONTINUOUS
10
1.4061
20
2.11535
11
1.4061
21
2.21535
0
LINE
8
BLACK
6
CONTINUOUS
10
1.4061
20
2.21535
11
1.40617
21
2.21574
0
LINE
8
BLACK
6
CONTINUOUS
10
1.40617
20
2.21574
11
1.40615
21
2.21587
0
LINE
8
BLACK
6
CONTINUOUS
10
1.40615
20
2.21587
11
1.40621
21
2.21598
0
LINE
8
BLACK
6
CONTINUOUS
10
1.40621
20
2.21598
11
1.40628
21
2.21636
0
LINE
8
BLACK
6
CONTINUOUS
10
1.40628
20
2.21636
11
1.40677
21
2.21695
0
LINE
8
BLACK
6
CONTINUOUS
10
1.40677
20
2.21695
11
1.40716
21
2.21762
0
LINE
8
BLACK
6
CONTINUOUS
10
1.40716
20
2.21762
11
1.40741
21
2.21771
0
LINE
8
BLACK
6
CONTINUOUS
10
1.40741
20
2.21771
11
1.40758
21
2.21791
0
LINE
8
BLACK
6
CONTINUOUS
10
1.40758
20
2.21791
11
1.40833
21
2.21804
0
LINE
8
BLACK
6
CONTINUOUS
10
1.40833
20
2.21804
11
1.40906
21
2.21831
0
LINE
8
BLACK
6
CONTINUOUS
10
1.40906
20
2.21831
11
1.70906
21
2.21831
0
LINE
8
BLACK
6
CONTINUOUS
10
1.70906
20
2.21831
11
1.70944
21
2.21824
0
LINE
8
BLACK
6
CONTINUOUS
10
1.41201
20
2.2124
11
1.41201
21
2.11831
0
LINE
8
BLACK
6
CONTINUOUS
10
1.41201
20
2.11831
11
1.7061
21
2.11831
0
LINE
8
BLACK
6
CONTINUOUS
10
1.7061
20
2.11831
11
1.7061
21
2.2124
0
LINE
8
BLACK
6
CONTINUOUS
10
1.7061
20
2.2124
11
1.41201
21
2.2124
0
LINE
8
BLACK
6
CONTINUOUS
10
0.551958
20
2.50052
11
0.552088
21
2.50055
0
LINE
8
BLACK
6
CONTINUOUS
10
0.552088
20
2.50055
11
0.552201
21
2.50048
0
LINE
8
BLACK
6
CONTINUOUS
10
0.552201
20
2.50048
11
0.552585
21
2.50041
0
LINE
8
BLACK
6
CONTINUOUS
10
0.552585
20
2.50041
11
0.553172
21
2.49992
0
LINE
8
BLACK
6
CONTINUOUS
10
0.553172
20
2.49992
11
0.553837
21
2.49954
0
LINE
8
BLACK
6
CONTINUOUS
10
0.553837
20
2.49954
11
0.553928
21
2.49929
0
LINE
8
BLACK
6
CONTINUOUS
10
0.553928
20
2.49929
11
0.554132
21
2.49911
0
LINE
8
BLACK
6
CONTINUOUS
10
0.554132
20
2.49911
11
0.554265
21
2.49836
0
LINE
8
BLACK
6
CONTINUOUS
10
0.554265
20
2.49836
11
0.554528
21
2.49764
0
LINE
8
BLACK
6
CONTINUOUS
10
0.554528
20
2.49764
11
0.554528
21
2.29764
0
LINE
8
BLACK
6
CONTINUOUS
10
0.554528
20
2.29764
11
0.55446
21
2.29725
0
LINE
8
BLACK
6
CONTINUOUS
10
0.55446
20
2.29725
11
0.554483
21
2.29713
0
LINE
8
BLACK
6
CONTINUOUS
10
0.554483
20
2.29713
11
0.554417
21
2.29701
0
LINE
8
BLACK
6
CONTINUOUS
10
0.554417
20
2.29701
11
0.554349
21
2.29663
0
LINE
8
BLACK
6
CONTINUOUS
10
0.554349
20
2.29663
11
0.553856
21
2.29604
0
LINE
8
BLACK
6
CONTINUOUS
10
0.553856
20
2.29604
11
0.553473
21
2.29538
0
LINE
8
BLACK
6
CONTINUOUS
10
0.553473
20
2.29538
11
0.553222
21
2.29528
0
LINE
8
BLACK
6
CONTINUOUS
10
0.553222
20
2.29528
11
0.553051
21
2.29508
0
LINE
8
BLACK
6
CONTINUOUS
10
0.553051
20
2.29508
11
0.552296
21
2.29495
0
LINE
8
BLACK
6
CONTINUOUS
10
0.552296
20
2.29495
11
0.551575
21
2.29469
0
LINE
8
BLACK
6
CONTINUOUS
10
0.551575
20
2.29469
11
0.251575
21
2.29469
0
LINE
8
BLACK
6
CONTINUOUS
10
0.251575
20
2.29469
11
0.251191
21
2.29475
0
LINE
8
BLACK
6
CONTINUOUS
10
0.251191
20
2.29475
11
0.251062
21
2.29473
0
LINE
8
BLACK
6
CONTINUOUS
10
0.251062
20
2.29473
11
0.250948
21
2.2948
0
LINE
8
BLACK
6
CONTINUOUS
10
0.250948
20
2.2948
11
0.250565
21
2.29486
0
LINE
8
BLACK
6
CONTINUOUS
10
0.250565
20
2.29486
11
0.249977
21
2.29536
0
LINE
8
BLACK
6
CONTINUOUS
10
0.249977
20
2.29536
11
0.249313
21
2.29574
0
LINE
8
BLACK
6
CONTINUOUS
10
0.249313
20
2.29574
11
0.249222
21
2.29599
0
LINE
8
BLACK
6
CONTINUOUS
10
0.249222
20
2.29599
11
0.249018
21
2.29616
0
LINE
8
BLACK
6
CONTINUOUS
10
0.249018
20
2.29616
11
0.248884
21
2.29692
0
LINE
8
BLACK
6
CONTINUOUS
10
0.248884
20
2.29692
11
0.248622
21
2.29764
0
LINE
8
BLACK
6
CONTINUOUS
10
0.248622
20
2.29764
11
0.248622
21
2.49764
0
LINE
8
BLACK
6
CONTINUOUS
10
0.248622
20
2.49764
11
0.24869
21
2.49802
0
LINE
8
BLACK
6
CONTINUOUS
10
0.24869
20
2.49802
11
0.248667
21
2.49815
0
LINE
8
BLACK
6
CONTINUOUS
10
0.248667
20
2.49815
11
0.248732
21
2.49826
0
LINE
8
BLACK
6
CONTINUOUS
10
0.248732
20
2.49826
11
0.2488
21
2.49865
0
LINE
8
BLACK
6
CONTINUOUS
10
0.2488
20
2.49865
11
0.249293
21
2.49924
0
LINE
8
BLACK
6
CONTINUOUS
10
0.249293
20
2.49924
11
0.249677
21
2.4999
0
LINE
8
BLACK
6
CONTINUOUS
10
0.249677
20
2.4999
11
0.249927
21
2.49999
0
LINE
8
BLACK
6
CONTINUOUS
10
0.249927
20
2.49999
11
0.250098
21
2.50019
0
LINE
8
BLACK
6
CONTINUOUS
10
0.250098
20
2.50019
11
0.250854
21
2.50033
0
LINE
8
BLACK
6
CONTINUOUS
10
0.250854
20
2.50033
11
0.251575
21
2.50059
0
LINE
8
BLACK
6
CONTINUOUS
10
0.251575
20
2.50059
11
0.551575
21
2.50059
0
LINE
8
BLACK
6
CONTINUOUS
10
0.551575
20
2.50059
11
0.551958
21
2.50052
0
LINE
8
BLACK
6
CONTINUOUS
10
0.254528
20
2.49469
11
0.254528
21
2.30059
0
LINE
8
BLACK
6
CONTINUOUS
10
0.254528
20
2.30059
11
0.548622
21
2.30059
0
LINE
8
BLACK
6
CONTINUOUS
10
0.548622
20
2.30059
11
0.548622
21
2.49469
0
LINE
8
BLACK
6
CONTINUOUS
10
0.548622
20
2.49469
11
0.254528
21
2.49469
0
LINE
8
BLACK
6
CONTINUOUS
10
0.891328
20
2.50052
11
0.891458
21
2.50055
0
LINE
8
BLACK
6
CONTINUOUS
10
0.891458
20
2.50055
11
0.891571
21
2.50048
0
LINE
8
BLACK
6
CONTINUOUS
10
0.891571
20
2.50048
11
0.891955
21
2.50041
0
LINE
8
BLACK
6
CONTINUOUS
10
0.891955
20
2.50041
11
0.892542
21
2.49992
0
LINE
8
BLACK
6
CONTINUOUS
10
0.892542
20
2.49992
11
0.893207
21
2.49954
0
LINE
8
BLACK
6
CONTINUOUS
10
0.893207
20
2.49954
11
0.893298
21
2.49929
0
LINE
8
BLACK
6
CONTINUOUS
10
0.893298
20
2.49929
11
0.893502
21
2.49911
0
LINE
8
BLACK
6
CONTINUOUS
10
0.893502
20
2.49911
11
0.893635
21
2.49836
0
LINE
8
BLACK
6
CONTINUOUS
10
0.893635
20
2.49836
11
0.893898
21
2.49764
0
LINE
8
BLACK
6
CONTINUOUS
10
0.893898
20
2.49764
11
0.893898
21
2.29764
0
LINE
8
BLACK
6
CONTINUOUS
10
0.893898
20
2.29764
11
0.89383
21
2.29725
0
LINE
8
BLACK
6
CONTINUOUS
10
0.89383
20
2.29725
11
0.893853
21
2.29713
0
LINE
8
BLACK
6
CONTINUOUS
10
0.893853
20
2.29713
11
0.893787
21
2.29701
0
LINE
8
BLACK
6
CONTINUOUS
10
0.893787
20
2.29701
11
0.89372
21
2.29663
0
LINE
8
BLACK
6
CONTINUOUS
10
0.89372
20
2.29663
11
0.893226
21
2.29604
0
LINE
8
BLACK
6
CONTINUOUS
10
0.893226
20
2.29604
11
0.892843
21
2.29538
0
LINE
8
BLACK
6
CONTINUOUS
10
0.892843
20
2.29538
11
0.892593
21
2.29528
0
LINE
8
BLACK
6
CONTINUOUS
10
0.892593
20
2.29528
11
0.892421
21
2.29508
0
LINE
8
BLACK
6
CONTINUOUS
10
0.892421
20
2.29508
11
0.891666
21
2.29495
0
LINE
8
BLACK
6
CONTINUOUS
10
0.891666
20
2.29495
11
0.890945
21
2.29469
0
LINE
8
BLACK
6
CONTINUOUS
10
0.890945
20
2.29469
11
0.590945
21
2.29469
0
LINE
8
BLACK
6
CONTINUOUS
10
0.590945
20
2.29469
11
0.590561
21
2.29475
0
LINE
8
BLACK
6
CONTINUOUS
10
0.590561
20
2.29475
11
0.590432
21
2.29473
0
LINE
8
BLACK
6
CONTINUOUS
10
0.590432
20
2.29473
11
0.590319
21
2.2948
0
LINE
8
BLACK
6
CONTINUOUS
10
0.590319
20
2.2948
11
0.589935
21
2.29486
0
LINE
8
BLACK
6
CONTINUOUS
10
0.589935
20
2.29486
11
0.589347
21
2.29536
0
LINE
8
BLACK
6
CONTINUOUS
10
0.589347
20
2.29536
11
0.588683
21
2.29574
0
LINE
8
BLACK
6
CONTINUOUS
10
0.588683
20
2.29574
11
0.588592
21
2.29599
0
LINE
8
BLACK
6
CONTINUOUS
10
0.588592
20
2.29599
11
0.588388
21
2.29616
0
LINE
8
BLACK
6
CONTINUOUS
10
0.588388
20
2.29616
11
0.588254
21
2.29692
0
LINE
8
BLACK
6
CONTINUOUS
10
0.588254
20
2.29692
11
0.587992
21
2.29764
0
LINE
8
BLACK
6
CONTINUOUS
10
0.587992
20
2.29764
11
0.587992
21
2.49764
0
LINE
8
BLACK
6
CONTINUOUS
10
0.587992
20
2.49764
11
0.58806
21
2.49802
0
LINE
8
BLACK
6
CONTINUOUS
10
0.58806
20
2.49802
11
0.588037
21
2.49815
0
LINE
8
BLACK
6
CONTINUOUS
10
0.588037
20
2.49815
11
0.588103
21
2.49826
0
LINE
8
BLACK
6
CONTINUOUS
10
0.588103
20
2.49826
11
0.58817
21
2.49865
0
LINE
8
BLACK
6
CONTINUOUS
10
0.58817
20
2.49865
11
0.588663
21
2.49924
0
LINE
8
BLACK
6
CONTINUOUS
10
0.588663
20
2.49924
11
0.589047
21
2.4999
0
LINE
8
BLACK
6
CONTINUOUS
10
0.589047
20
2.4999
11
0.589297
21
2.49999
0
LINE
8
BLACK
6
CONTINUOUS
10
0.589297
20
2.49999
11
0.589469
21
2.50019
0
LINE
8
BLACK
6
CONTINUOUS
10
0.589469
20
2.50019
11
0.590224
21
2.50033
0
LINE
8
BLACK
6
CONTINUOUS
10
0.590224
20
2.50033
11
0.590945
21
2.50059
0
LINE
8
BLACK
6
CONTINUOUS
10
0.590945
20
2.50059
11
0.890945
21
2.50059
0
LINE
8
BLACK
6
CONTINUOUS
10
0.890945
20
2.50059
11
0.891328
21
2.50052
0
LINE
8
BLACK
6
CONTINUOUS
10
0.593898
20
2.49469
11
0.593898
21
2.30059
0
LINE
8
BLACK
6
CONTINUOUS
10
0.593898
20
2.30059
11
0.887992
21
2.30059
0
LINE
8
BLACK
6
CONTINUOUS
10
0.887992
20
2.30059
11
0.887992
21
2.49469
0
LINE
8
BLACK
6
CONTINUOUS
10
0.887992
20
2.49469
11
0.593898
21
2.49469
0
LINE
8
BLACK
6
CONTINUOUS
10
1.2307
20
2.50052
11
1.23083
21
2.50055
0
LINE
8
BLACK
6
CONTINUOUS
10
1.23083
20
2.50055
11
1.23094
21
2.50048
0
LINE
8
BLACK
6
CONTINUOUS
10
1.23094
20
2.50048
11
1.23132
21
2.50041
0
LINE
8
BLACK
6
CONTINUOUS
10
1.23132
20
2.50041
11
1.23191
21
2.49992
0
LINE
8
BLACK
6
CONTINUOUS
10
1.23191
20
2.49992
11
1.23258
21
2.49954
0
LINE
8
BLACK
6
CONTINUOUS
10
1.23258
20
2.49954
11
1.23267
21
2.49929
0
LINE
8
BLACK
6
CONTINUOUS
10
1.23267
20
2.49929
11
1.23287
21
2.49911
0
LINE
8
BLACK
6
CONTINUOUS
10
1.23287
20
2.49911
11
1.23301
21
2.49836
0
LINE
8
BLACK
6
CONTINUOUS
10
1.23301
20
2.49836
11
1.23327
21
2.49764
0
LINE
8
BLACK
6
CONTINUOUS
10
1.23327
20
2.49764
11
1.23327
21
2.29764
0
LINE
8
BLACK
6
CONTINUOUS
10
1.23327
20
2.29764
11
1.2332
21
2.29725
0
LINE
8
BLACK
6
CONTINUOUS
10
1.2332
20
2.29725
11
1.23322
21
2.29713
0
LINE
8
BLACK
6
CONTINUOUS
10
1.23322
20
2.29713
11
1.23316
21
2.29701
0
LINE
8
BLACK
6
CONTINUOUS
10
1.23316
20
2.29701
11
1.23309
21
2.29663
0
LINE
8
BLACK
6
CONTINUOUS
10
1.23309
20
2.29663
11
1.2326
21
2.29604
0
LINE
8
BLACK
6
CONTINUOUS
10
1.2326
20
2.29604
11
1.23221
21
2.29538
0
LINE
8
BLACK
6
CONTINUOUS
10
1.23221
20
2.29538
11
1.23196
21
2.29528
0
LINE
8
BLACK
6
CONTINUOUS
10
1.23196
20
2.29528
11
1.23179
21
2.29508
0
LINE
8
BLACK
6
CONTINUOUS
10
1.23179
20
2.29508
11
1.23104
21
2.29495
0
LINE
8
BLACK
6
CONTINUOUS
10
1.23104
20
2.29495
11
1.23031
21
2.29469
0
LINE
8
BLACK
6
CONTINUOUS
10
1.23031
20
2.29469
11
0.930315
21
2.29469
0
LINE
8
BLACK
6
CONTINUOUS
10
0.930315
20
2.29469
11
0.929931
21
2.29475
0
LINE
8
BLACK
6
CONTINUOUS
10
0.929931
20
2.29475
11
0.929802
21
2.29473
0
LINE
8
BLACK
6
CONTINUOUS
10
0.929802
20
2.29473
11
0.929689
21
2.2948
0
LINE
8
BLACK
6
CONTINUOUS
10
0.929689
20
2.2948
11
0.929305
21
2.29486
0
LINE
8
BLACK
6
CONTINUOUS
10
0.929305
20
2.29486
11
0.928717
21
2.29536
0
LINE
8
BLACK
6
CONTINUOUS
10
0.928717
20
2.29536
11
0.928053
21
2.29574
0
LINE
8
BLACK
6
CONTINUOUS
10
0.928053
20
2.29574
11
0.927962
21
2.29599
0
LINE
8
BLACK
6
CONTINUOUS
10
0.927962
20
2.29599
11
0.927758
21
2.29616
0
LINE
8
BLACK
6
CONTINUOUS
10
0.927758
20
2.29616
11
0.927625
21
2.29692
0
LINE
8
BLACK
6
CONTINUOUS
10
0.927625
20
2.29692
11
0.927362
21
2.29764
0
LINE
8
BLACK
6
CONTINUOUS
10
0.927362
20
2.29764
11
0.927362
21
2.49764
0
LINE
8
BLACK
6
CONTINUOUS
10
0.927362
20
2.49764
11
0.92743
21
2.49802
0
LINE
8
BLACK
6
CONTINUOUS
10
0.92743
20
2.49802
11
0.927407
21
2.49815
0
LINE
8
BLACK
6
CONTINUOUS
10
0.927407
20
2.49815
11
0.927473
21
2.49826
0
LINE
8
BLACK
6
CONTINUOUS
10
0.927473
20
2.49826
11
0.92754
21
2.49865
0
LINE
8
BLACK
6
CONTINUOUS
10
0.92754
20
2.49865
11
0.928033
21
2.49924
0
LINE
8
BLACK
6
CONTINUOUS
10
0.928033
20
2.49924
11
0.928417
21
2.4999
0
LINE
8
BLACK
6
CONTINUOUS
10
0.928417
20
2.4999
11
0.928667
21
2.49999
0
LINE
8
BLACK
6
CONTINUOUS
10
0.928667
20
2.49999
11
0.928839
21
2.50019
0
LINE
8
BLACK
6
CONTINUOUS
10
0.928839
20
2.50019
11
0.929594
21
2.50033
0
LINE
8
BLACK
6
CONTINUOUS
10
0.929594
20
2.50033
11
0.930315
21
2.50059
0
LINE
8
BLACK
6
CONTINUOUS
10
0.930315
20
2.50059
11
1.23031
21
2.50059
0
LINE
8
BLACK
6
CONTINUOUS
10
1.23031
20
2.50059
11
1.2307
21
2.50052
0
LINE
8
BLACK
6
CONTINUOUS
10
0.933268
20
2.49469
11
0.933268
21
2.30059
0
LINE
8
BLACK
6
CONTINUOUS
10
0.933268
20
2.30059
11
1.22736
21
2.30059
0
LINE
8
BLACK
6
CONTINUOUS
10
1.22736
20
2.30059
11
1.22736
21
2.49469
0
LINE
8
BLACK
6
CONTINUOUS
10
1.22736
20
2.49469
11
0.933268
21
2.49469
0
LINE
8
BLACK
6
CONTINUOUS
10
2.27792
20
0.0295339
11
2.28197
21
0.0429577
0
LINE
8
BLACK
6
CONTINUOUS
10
2.28197
20
0.0429577
11
2.2875
21
0.0558462
0
LINE
8
BLACK
6
CONTINUOUS
10
2.2875
20
0.0558462
11
2.29442
21
0.0680385
0
LINE
8
BLACK
6
CONTINUOUS
10
2.29442
20
0.0680385
11
2.30267
21
0.0793829
0
LINE
8
BLACK
6
CONTINUOUS
10
2.30267
20
0.0793829
11
2.31212
21
0.0897378
0
LINE
8
BLACK
6
CONTINUOUS
10
2.31212
20
0.0897378
11
2.32267
21
0.0989741
0
LINE
8
BLACK
6
CONTINUOUS
10
2.32267
20
0.0989741
11
2.33419
21
0.106977
0
LINE
8
BLACK
6
CONTINUOUS
10
2.33419
20
0.106977
11
2.34652
21
0.113646
0
LINE
8
BLACK
6
CONTINUOUS
10
2.34652
20
0.113646
11
2.35952
21
0.118899
0
LINE
8
BLACK
6
CONTINUOUS
10
2.35952
20
0.118899
11
2.37303
21
0.12267
0
LINE
8
BLACK
6
CONTINUOUS
10
2.37303
20
0.12267
11
2.38687
21
0.124912
0
LINE
8
BLACK
6
CONTINUOUS
10
2.38687
20
0.124912
11
2.40088
21
0.125597
0
LINE
8
BLACK
6
CONTINUOUS
10
2.40088
20
0.125597
11
2.41487
21
0.124716
0
LINE
8
BLACK
6
CONTINUOUS
10
2.41487
20
0.124716
11
2.42868
21
0.122281
0
LINE
8
BLACK
6
CONTINUOUS
10
2.42868
20
0.122281
11
2.44213
21
0.118322
0
LINE
8
BLACK
6
CONTINUOUS
10
2.44213
20
0.118322
11
2.45506
21
0.112889
0
LINE
8
BLACK
6
CONTINUOUS
10
2.45506
20
0.112889
11
2.4673
21
0.106048
0
LINE
8
BLACK
6
CONTINUOUS
10
2.4673
20
0.106048
11
2.4787
21
0.0978848
0
LINE
8
BLACK
6
CONTINUOUS
10
2.4787
20
0.0978848
11
2.48912
21
0.088502
0
LINE
8
BLACK
6
CONTINUOUS
10
2.48912
20
0.088502
11
2.49843
21
0.0780161
0
LINE
8
BLACK
6
CONTINUOUS
10
2.49843
20
0.0780161
11
2.50651
21
0.0665579
0
LINE
8
BLACK
6
CONTINUOUS
10
2.50651
20
0.0665579
11
2.51327
21
0.05427
0
LINE
8
BLACK
6
CONTINUOUS
10
2.51327
20
0.05427
11
2.51861
21
0.0413057
0
LINE
8
BLACK
6
CONTINUOUS
10
2.51861
20
0.0413057
11
2.52248
21
0.0278265
0
LINE
8
BLACK
6
CONTINUOUS
10
2.52248
20
0.0278265
11
2.52482
21
0.0140005
0
LINE
8
BLACK
6
CONTINUOUS
10
2.52482
20
0.0140005
11
2.5256
21
0
0
LINE
8
BLACK
6
CONTINUOUS
10
2.5256
20
0
11
2.52555
21
-0.00350697
0
LINE
8
BLACK
6
CONTINUOUS
10
2.52555
20
-0.00350697
11
2.52438
21
-0.0174802
0
LINE
8
BLACK
6
CONTINUOUS
10
2.52438
20
-0.0174802
11
2.52165
21
-0.0312354
0
LINE
8
BLACK
6
CONTINUOUS
10
2.52165
20
-0.0312354
11
2.51741
21
-0.0446014
0
LINE
8
BLACK
6
CONTINUOUS
10
2.51741
20
-0.0446014
11
2.51171
21
-0.0574115
0
LINE
8
BLACK
6
CONTINUOUS
10
2.51171
20
-0.0574115
11
2.50461
21
-0.069506
0
LINE
8
BLACK
6
CONTINUOUS
10
2.50461
20
-0.069506
11
2.49622
21
-0.0807341
0
LINE
8
BLACK
6
CONTINUOUS
10
2.49622
20
-0.0807341
11
2.48662
21
-0.090956
0
LINE
8
BLACK
6
CONTINUOUS
10
2.48662
20
-0.090956
11
2.47594
21
-0.100044
0
LINE
8
BLACK
6
CONTINUOUS
10
2.47594
20
-0.100044
11
2.46431
21
-0.107885
0
LINE
8
BLACK
6
CONTINUOUS
10
2.46431
20
-0.107885
11
2.45189
21
-0.114382
0
LINE
8
BLACK
6
CONTINUOUS
10
2.45189
20
-0.114382
11
2.43881
21
-0.119453
0
LINE
8
BLACK
6
CONTINUOUS
10
2.43881
20
-0.119453
11
2.42526
21
-0.123035
0
LINE
8
BLACK
6
CONTINUOUS
10
2.42526
20
-0.123035
11
2.41138
21
-0.125083
0
LINE
8
BLACK
6
CONTINUOUS
10
2.41138
20
-0.125083
11
2.39737
21
-0.125572
0
LINE
8
BLACK
6
CONTINUOUS
10
2.39737
20
-0.125572
11
2.38339
21
-0.124497
0
LINE
8
BLACK
6
CONTINUOUS
10
2.38339
20
-0.124497
11
2.36961
21
-0.121869
0
LINE
8
BLACK
6
CONTINUOUS
10
2.36961
20
-0.121869
11
2.35622
21
-0.117723
0
LINE
8
BLACK
6
CONTINUOUS
10
2.35622
20
-0.117723
11
2.34337
21
-0.112109
0
LINE
8
BLACK
6
CONTINUOUS
10
2.34337
20
-0.112109
11
2.33123
21
-0.105098
0
LINE
8
BLACK
6
CONTINUOUS
10
2.33123
20
-0.105098
11
2.31994
21
-0.0967765
0
LINE
8
BLACK
6
CONTINUOUS
10
2.31994
20
-0.0967765
11
2.30965
21
-0.0872491
0
LINE
8
BLACK
6
CONTINUOUS
10
2.30965
20
-0.0872491
11
2.30049
21
-0.0766343
0
LINE
8
BLACK
6
CONTINUOUS
10
2.30049
20
-0.0766343
11
2.29257
21
-0.0650642
0
LINE
8
BLACK
6
CONTINUOUS
10
2.29257
20
-0.0650642
11
2.28598
21
-0.0526832
0
LINE
8
BLACK
6
CONTINUOUS
10
2.28598
20
-0.0526832
11
2.28082
21
-0.0396455
0
LINE
8
BLACK
6
CONTINUOUS
10
2.28082
20
-0.0396455
11
2.27714
21
-0.0261137
0
LINE
8
BLACK
6
CONTINUOUS
10
2.27714
20
-0.0261137
11
2.275
21
-0.0122564
0
LINE
8
BLACK
6
CONTINUOUS
10
2.275
20
-0.0122564
11
2.27441
21
0.00175366
0
LINE
8
BLACK
6
CONTINUOUS
10
2.27441
20
0.00175366
11
2.27453
21
0.00347992
0
LINE
8
BLACK
6
CONTINUOUS
10
2.27453
20
0.00347992
11
2.27539
21
0.0157419
0
LINE
8
BLACK
6
CONTINUOUS
10
2.27539
20
0.0157419
11
2.27792
21
0.0295339
0
LINE
8
BLACK
6
CONTINUOUS
10
2.2914
20
-0.021898
11
2.29463
21
-0.0342352
0
LINE
8
BLACK
6
CONTINUOUS
10
2.29463
20
-0.0342352
11
2.29927
21
-0.0461187
0
LINE
8
BLACK
6
CONTINUOUS
10
2.29927
20
-0.0461187
11
2.30524
21
-0.0573909
0
LINE
8
BLACK
6
CONTINUOUS
10
2.30524
20
-0.0573909
11
2.31246
21
-0.0679024
0
LINE
8
BLACK
6
CONTINUOUS
10
2.31246
20
-0.0679024
11
2.32085
21
-0.0775139
0
LINE
8
BLACK
6
CONTINUOUS
10
2.32085
20
-0.0775139
11
2.33028
21
-0.086098
0
LINE
8
BLACK
6
CONTINUOUS
10
2.33028
20
-0.086098
11
2.34064
21
-0.0935409
0
LINE
8
BLACK
6
CONTINUOUS
10
2.34064
20
-0.0935409
11
2.35178
21
-0.099744
0
LINE
8
BLACK
6
CONTINUOUS
10
2.35178
20
-0.099744
11
2.36357
21
-0.104625
0
LINE
8
BLACK
6
CONTINUOUS
10
2.36357
20
-0.104625
11
2.37583
21
-0.108119
0
LINE
8
BLACK
6
CONTINUOUS
10
2.37583
20
-0.108119
11
2.38842
21
-0.110181
0
LINE
8
BLACK
6
CONTINUOUS
10
2.38842
20
-0.110181
11
2.40116
21
-0.110781
0
LINE
8
BLACK
6
CONTINUOUS
10
2.40116
20
-0.110781
11
2.41389
21
-0.109914
0
LINE
8
BLACK
6
CONTINUOUS
10
2.41389
20
-0.109914
11
2.42643
21
-0.107589
0
LINE
8
BLACK
6
CONTINUOUS
10
2.42643
20
-0.107589
11
2.43862
21
-0.103839
0
LINE
8
BLACK
6
CONTINUOUS
10
2.43862
20
-0.103839
11
2.4503
21
-0.0987123
0
LINE
8
BLACK
6
CONTINUOUS
10
2.4503
20
-0.0987123
11
2.46131
21
-0.0922772
0
LINE
8
BLACK
6
CONTINUOUS
10
2.46131
20
-0.0922772
11
2.47151
21
-0.084619
0
LINE
8
BLACK
6
CONTINUOUS
10
2.47151
20
-0.084619
11
2.48076
21
-0.0758392
0
LINE
8
BLACK
6
CONTINUOUS
10
2.48076
20
-0.0758392
11
2.48894
21
-0.0660542
0
LINE
8
BLACK
6
CONTINUOUS
10
2.48894
20
-0.0660542
11
2.49594
21
-0.0553937
0
LINE
8
BLACK
6
CONTINUOUS
10
2.49594
20
-0.0553937
11
2.50168
21
-0.043999
0
LINE
8
BLACK
6
CONTINUOUS
10
2.50168
20
-0.043999
11
2.50606
21
-0.0320211
0
LINE
8
BLACK
6
CONTINUOUS
10
2.50606
20
-0.0320211
11
2.50904
21
-0.0196188
0
LINE
8
BLACK
6
CONTINUOUS
10
2.50904
20
-0.0196188
11
2.51057
21
-0.00695642
0
LINE
8
BLACK
6
CONTINUOUS
10
2.51057
20
-0.00695642
11
2.51079
21
0
0
LINE
8
BLACK
6
CONTINUOUS
10
2.51079
20
0
11
2.51005
21
0.0127336
0
LINE
8
BLACK
6
CONTINUOUS
10
2.51005
20
0.0127336
11
2.50786
21
0.0252984
0
LINE
8
BLACK
6
CONTINUOUS
10
2.50786
20
0.0252984
11
2.50424
21
0.0375279
0
LINE
8
BLACK
6
CONTINUOUS
10
2.50424
20
0.0375279
11
2.49923
21
0.04926
0
LINE
8
BLACK
6
CONTINUOUS
10
2.49923
20
0.04926
11
2.49291
21
0.0603392
0
LINE
8
BLACK
6
CONTINUOUS
10
2.49291
20
0.0603392
11
2.48536
21
0.0706186
0
LINE
8
BLACK
6
CONTINUOUS
10
2.48536
20
0.0706186
11
2.47668
21
0.079962
0
LINE
8
BLACK
6
CONTINUOUS
10
2.47668
20
0.079962
11
2.46698
21
0.0882455
0
LINE
8
BLACK
6
CONTINUOUS
10
2.46698
20
0.0882455
11
2.4564
21
0.0953594
0
LINE
8
BLACK
6
CONTINUOUS
10
2.4564
20
0.0953594
11
2.44506
21
0.101209
0
LINE
8
BLACK
6
CONTINUOUS
10
2.44506
20
0.101209
11
2.43313
21
0.105718
0
LINE
8
BLACK
6
CONTINUOUS
10
2.43313
20
0.105718
11
2.42076
21
0.108825
0
LINE
8
BLACK
6
CONTINUOUS
10
2.42076
20
0.108825
11
2.40811
21
0.11049
0
LINE
8
BLACK
6
CONTINUOUS
10
2.40811
20
0.11049
11
2.39536
21
0.11069
0
LINE
8
BLACK
6
CONTINUOUS
10
2.39536
20
0.11069
11
2.38267
21
0.109423
0
LINE
8
BLACK
6
CONTINUOUS
10
2.38267
20
0.109423
11
2.37021
21
0.106706
0
LINE
8
BLACK
6
CONTINUOUS
10
2.37021
20
0.106706
11
2.35814
21
0.102575
0
LINE
8
BLACK
6
CONTINUOUS
10
2.35814
20
0.102575
11
2.34663
21
0.0970838
0
LINE
8
BLACK
6
CONTINUOUS
10
2.34663
20
0.0970838
11
2.33582
21
0.0903059
0
LINE
8
BLACK
6
CONTINUOUS
10
2.33582
20
0.0903059
11
2.32587
21
0.0823311
0
LINE
8
BLACK
6
CONTINUOUS
10
2.32587
20
0.0823311
11
2.3169
21
0.073265
0
LINE
8
BLACK
6
CONTINUOUS
10
2.3169
20
0.073265
11
2.30903
21
0.0632279
0
LINE
8
BLACK
6
CONTINUOUS
10
2.30903
20
0.0632279
11
2.30236
21
0.0523527
0
LINE
8
BLACK
6
CONTINUOUS
10
2.30236
20
0.0523527
11
2.29699
21
0.0407836
0
LINE
8
BLACK
6
CONTINUOUS
10
2.29699
20
0.0407836
11
2.29299
21
0.0286739
0
LINE
8
BLACK
6
CONTINUOUS
10
2.29299
20
0.0286739
11
2.2904
21
0.0161842
0
LINE
8
BLACK
6
CONTINUOUS
10
2.2904
20
0.0161842
11
2.28927
21
0.00347992
0
LINE
8
BLACK
6
CONTINUOUS
10
2.28927
20
0.00347992
11
2.2896
21
-0.00927047
0
LINE
8
BLACK
6
CONTINUOUS
10
2.2896
20
-0.00927047
11
2.2914
21
-0.021898
0
LINE
8
BLACK
6
CONTINUOUS
10
-0.122078
20
0.0295339
11
-0.118025
21
0.0429577
0
LINE
8
BLACK
6
CONTINUOUS
10
-0.118025
20
0.0429577
11
-0.112501
21
0.0558462
0
LINE
8
BLACK
6
CONTINUOUS
10
-0.112501
20
0.0558462
11
-0.105575
21
0.0680385
0
LINE
8
BLACK
6
CONTINUOUS
10
-0.105575
20
0.0680385
11
-0.097333
21
0.0793829
0
LINE
8
BLACK
6
CONTINUOUS
10
-0.097333
20
0.0793829
11
-0.0878777
21
0.0897378
0
LINE
8
BLACK
6
CONTINUOUS
10
-0.0878777
20
0.0897378
11
-0.0773271
21
0.0989741
0
LINE
8
BLACK
6
CONTINUOUS
10
-0.0773271
20
0.0989741
11
-0.0658126
21
0.106977
0
LINE
8
BLACK
6
CONTINUOUS
10
-0.0658126
20
0.106977
11
-0.0534779
21
0.113646
0
LINE
8
BLACK
6
CONTINUOUS
10
-0.0534779
20
0.113646
11
-0.0404766
21
0.118899
0
LINE
8
BLACK
6
CONTINUOUS
10
-0.0404766
20
0.118899
11
-0.0269707
21
0.12267
0
LINE
8
BLACK
6
CONTINUOUS
10
-0.0269707
20
0.12267
11
-0.0131288
21
0.124912
0
LINE
8
BLACK
6
CONTINUOUS
10
-0.0131288
20
0.124912
11
0.00087685
21
0.125597
0
LINE
8
BLACK
6
CONTINUOUS
10
0.00087685
20
0.125597
11
0.0148715
21
0.124716
0
LINE
8
BLACK
6
CONTINUOUS
10
0.0148715
20
0.124716
11
0.0286809
21
0.122281
0
LINE
8
BLACK
6
CONTINUOUS
10
0.0286809
20
0.122281
11
0.0421327
21
0.118322
0
LINE
8
BLACK
6
CONTINUOUS
10
0.0421327
20
0.118322
11
0.0550594
21
0.112889
0
LINE
8
BLACK
6
CONTINUOUS
10
0.0550594
20
0.112889
11
0.0672998
21
0.106048
0
LINE
8
BLACK
6
CONTINUOUS
10
0.0672998
20
0.106048
11
0.0787015
21
0.0978848
0
LINE
8
BLACK
6
CONTINUOUS
10
0.0787015
20
0.0978848
11
0.0891221
21
0.088502
0
LINE
8
BLACK
6
CONTINUOUS
10
0.0891221
20
0.088502
11
0.0984319
21
0.0780161
0
LINE
8
BLACK
6
CONTINUOUS
10
0.0984319
20
0.0780161
11
0.106515
21
0.0665579
0
LINE
8
BLACK
6
CONTINUOUS
10
0.106515
20
0.0665579
11
0.11327
21
0.05427
0
LINE
8
BLACK
6
CONTINUOUS
10
0.11327
20
0.05427
11
0.118614
21
0.0413057
0
LINE
8
BLACK
6
CONTINUOUS
10
0.118614
20
0.0413057
11
0.122479
21
0.0278265
0
LINE
8
BLACK
6
CONTINUOUS
10
0.122479
20
0.0278265
11
0.124817
21
0.0140005
0
LINE
8
BLACK
6
CONTINUOUS
10
0.124817
20
0.0140005
11
0.1256
21
0
0
LINE
8
BLACK
6
CONTINUOUS
10
0.1256
20
0
11
0.125551
21
-0.00350697
0
LINE
8
BLACK
6
CONTINUOUS
10
0.125551
20
-0.00350697
11
0.124378
21
-0.0174802
0
LINE
8
BLACK
6
CONTINUOUS
10
0.124378
20
-0.0174802
11
0.121654
21
-0.0312354
0
LINE
8
BLACK
6
CONTINUOUS
10
0.121654
20
-0.0312354
11
0.117414
21
-0.0446014
0
LINE
8
BLACK
6
CONTINUOUS
10
0.117414
20
-0.0446014
11
0.111711
21
-0.0574115
0
LINE
8
BLACK
6
CONTINUOUS
10
0.111711
20
-0.0574115
11
0.104615
21
-0.069506
0
LINE
8
BLACK
6
CONTINUOUS
10
0.104615
20
-0.069506
11
0.0962152
21
-0.0807341
0
LINE
8
BLACK
6
CONTINUOUS
10
0.0962152
20
-0.0807341
11
0.0866162
21
-0.090956
0
LINE
8
BLACK
6
CONTINUOUS
10
0.0866162
20
-0.090956
11
0.0759376
21
-0.100044
0
LINE
8
BLACK
6
CONTINUOUS
10
0.0759376
20
-0.100044
11
0.0643126
21
-0.107885
0
LINE
8
BLACK
6
CONTINUOUS
10
0.0643126
20
-0.107885
11
0.0518859
21
-0.114382
0
LINE
8
BLACK
6
CONTINUOUS
10
0.0518859
20
-0.114382
11
0.0388125
21
-0.119453
0
LINE
8
BLACK
6
CONTINUOUS
10
0.0388125
20
-0.119453
11
0.0252554
21
-0.123035
0
LINE
8
BLACK
6
CONTINUOUS
10
0.0252554
20
-0.123035
11
0.0113835
21
-0.125083
0
LINE
8
BLACK
6
CONTINUOUS
10
0.0113835
20
-0.125083
11
-0.00263035
21
-0.125572
0
LINE
8
BLACK
6
CONTINUOUS
10
-0.00263035
20
-0.125572
11
-0.0166114
21
-0.124497
0
LINE
8
BLACK
6
CONTINUOUS
10
-0.0166114
20
-0.124497
11
-0.0303854
21
-0.121869
0
LINE
8
BLACK
6
CONTINUOUS
10
-0.0303854
20
-0.121869
11
-0.0437806
21
-0.117723
0
LINE
8
BLACK
6
CONTINUOUS
10
-0.0437806
20
-0.117723
11
-0.0566302
21
-0.112109
0
LINE
8
BLACK
6
CONTINUOUS
10
-0.0566302
20
-0.112109
11
-0.0687739
21
-0.105098
0
LINE
8
BLACK
6
CONTINUOUS
10
-0.0687739
20
-0.105098
11
-0.0800605
21
-0.0967765
0
LINE
8
BLACK
6
CONTINUOUS
10
-0.0800605
20
-0.0967765
11
-0.0903491
21
-0.0872491
0
LINE
8
BLACK
6
CONTINUOUS
10
-0.0903491
20
-0.0872491
11
-0.0995116
21
-0.0766343
0
LINE
8
BLACK
6
CONTINUOUS
10
-0.0995116
20
-0.0766343
11
-0.107434
21
-0.0650642
0
LINE
8
BLACK
6
CONTINUOUS
10
-0.107434
20
-0.0650642
11
-0.114017
21
-0.0526832
0
LINE
8
BLACK
6
CONTINUOUS
10
-0.114017
20
-0.0526832
11
-0.119179
21
-0.0396455
0
LINE
8
BLACK
6
CONTINUOUS
10
-0.119179
20
-0.0396455
11
-0.122855
21
-0.0261137
0
LINE
8
BLACK
6
CONTINUOUS
10
-0.122855
20
-0.0261137
11
-0.125001
21
-0.0122564
0
LINE
8
BLACK
6
CONTINUOUS
10
-0.125001
20
-0.0122564
11
-0.125588
21
0.00175366
0
LINE
8
BLACK
6
CONTINUOUS
10
-0.125588
20
0.00175366
11
-0.125467
21
0.00347992
0
LINE
8
BLACK
6
CONTINUOUS
10
-0.125467
20
0.00347992
11
-0.12461
21
0.0157419
0
LINE
8
BLACK
6
CONTINUOUS
10
-0.12461
20
0.0157419
11
-0.122078
21
0.0295339
0
LINE
8
BLACK
6
CONTINUOUS
10
-0.108602
20
-0.021898
11
-0.105365
21
-0.0342352
0
LINE
8
BLACK
6
CONTINUOUS
10
-0.105365
20
-0.0342352
11
-0.100732
21
-0.0461187
0
LINE
8
BLACK
6
CONTINUOUS
10
-0.100732
20
-0.0461187
11
-0.0947636
21
-0.0573909
0
LINE
8
BLACK
6
CONTINUOUS
10
-0.0947636
20
-0.0573909
11
-0.0875393
21
-0.0679024
0
LINE
8
BLACK
6
CONTINUOUS
10
-0.0875393
20
-0.0679024
11
-0.0791546
21
-0.0775139
0
LINE
8
BLACK
6
CONTINUOUS
10
-0.0791546
20
-0.0775139
11
-0.0697208
21
-0.086098
0
LINE
8
BLACK
6
CONTINUOUS
10
-0.0697208
20
-0.086098
11
-0.0593629
21
-0.0935409
0
LINE
8
BLACK
6
CONTINUOUS
10
-0.0593629
20
-0.0935409
11
-0.0482181
21
-0.099744
0
LINE
8
BLACK
6
CONTINUOUS
10
-0.0482181
20
-0.099744
11
-0.0364343
21
-0.104625
0
LINE
8
BLACK
6
CONTINUOUS
10
-0.0364343
20
-0.104625
11
-0.0241675
21
-0.108119
0
LINE
8
BLACK
6
CONTINUOUS
10
-0.0241675
20
-0.108119
11
-0.0115804
21
-0.110181
0
LINE
8
BLACK
6
CONTINUOUS
10
-0.0115804
20
-0.110181
11
0.00116016
21
-0.110781
0
LINE
8
BLACK
6
CONTINUOUS
10
0.00116016
20
-0.110781
11
0.0138854
21
-0.109914
0
LINE
8
BLACK
6
CONTINUOUS
10
0.0138854
20
-0.109914
11
0.0264265
21
-0.107589
0
LINE
8
BLACK
6
CONTINUOUS
10
0.0264265
20
-0.107589
11
0.0386174
21
-0.103839
0
LINE
8
BLACK
6
CONTINUOUS
10
0.0386174
20
-0.103839
11
0.0502965
21
-0.0987123
0
LINE
8
BLACK
6
CONTINUOUS
10
0.0502965
20
-0.0987123
11
0.0613088
21
-0.0922772
0
LINE
8
BLACK
6
CONTINUOUS
10
0.0613088
20
-0.0922772
11
0.0715086
21
-0.084619
0
LINE
8
BLACK
6
CONTINUOUS
10
0.0715086
20
-0.084619
11
0.0807606
21
-0.0758392
0
LINE
8
BLACK
6
CONTINUOUS
10
0.0807606
20
-0.0758392
11
0.0889421
21
-0.0660542
0
LINE
8
BLACK
6
CONTINUOUS
10
0.0889421
20
-0.0660542
11
0.0959447
21
-0.0553937
0
LINE
8
BLACK
6
CONTINUOUS
10
0.0959447
20
-0.0553937
11
0.101676
21
-0.043999
0
LINE
8
BLACK
6
CONTINUOUS
10
0.101676
20
-0.043999
11
0.106059
21
-0.0320211
0
LINE
8
BLACK
6
CONTINUOUS
10
0.106059
20
-0.0320211
11
0.109036
21
-0.0196188
0
LINE
8
BLACK
6
CONTINUOUS
10
0.109036
20
-0.0196188
11
0.110569
21
-0.00695642
0
LINE
8
BLACK
6
CONTINUOUS
10
0.110569
20
-0.00695642
11
0.110787
21
0
0
LINE
8
BLACK
6
CONTINUOUS
10
0.110787
20
0
11
0.110053
21
0.0127336
0
LINE
8
BLACK
6
CONTINUOUS
10
0.110053
20
0.0127336
11
0.10786
21
0.0252984
0
LINE
8
BLACK
6
CONTINUOUS
10
0.10786
20
0.0252984
11
0.104238
21
0.0375279
0
LINE
8
BLACK
6
CONTINUOUS
10
0.104238
20
0.0375279
11
0.0992336
21
0.04926
0
LINE
8
BLACK
6
CONTINUOUS
10
0.0992336
20
0.04926
11
0.0929142
21
0.0603392
0
LINE
8
BLACK
6
CONTINUOUS
10
0.0929142
20
0.0603392
11
0.0853632
21
0.0706186
0
LINE
8
BLACK
6
CONTINUOUS
10
0.0853632
20
0.0706186
11
0.0766808
21
0.079962
0
LINE
8
BLACK
6
CONTINUOUS
10
0.0766808
20
0.079962
11
0.066982
21
0.0882455
0
LINE
8
BLACK
6
CONTINUOUS
10
0.066982
20
0.0882455
11
0.0563954
21
0.0953594
0
LINE
8
BLACK
6
CONTINUOUS
10
0.0563954
20
0.0953594
11
0.0450613
21
0.101209
0
LINE
8
BLACK
6
CONTINUOUS
10
0.0450613
20
0.101209
11
0.03313
21
0.105718
0
LINE
8
BLACK
6
CONTINUOUS
10
0.03313
20
0.105718
11
0.0207595
21
0.108825
0
LINE
8
BLACK
6
CONTINUOUS
10
0.0207595
20
0.108825
11
0.00811386
21
0.11049
0
LINE
8
BLACK
6
CONTINUOUS
10
0.00811386
20
0.11049
11
-0.00463929
21
0.11069
0
LINE
8
BLACK
6
CONTINUOUS
10
-0.00463929
20
0.11069
11
-0.017331
21
0.109423
0
LINE
8
BLACK
6
CONTINUOUS
10
-0.017331
20
0.109423
11
-0.029793
21
0.106706
0
LINE
8
BLACK
6
CONTINUOUS
10
-0.029793
20
0.106706
11
-0.04186
21
0.102575
0
LINE
8
BLACK
6
CONTINUOUS
10
-0.04186
20
0.102575
11
-0.0533722
21
0.0970838
0
LINE
8
BLACK
6
CONTINUOUS
10
-0.0533722
20
0.0970838
11
-0.0641771
21
0.0903059
0
LINE
8
BLACK
6
CONTINUOUS
10
-0.0641771
20
0.0903059
11
-0.0741313
21
0.0823311
0
LINE
8
BLACK
6
CONTINUOUS
10
-0.0741313
20
0.0823311
11
-0.0831029
21
0.073265
0
LINE
8
BLACK
6
CONTINUOUS
10
-0.0831029
20
0.073265
11
-0.090973
21
0.0632279
0
LINE
8
BLACK
6
CONTINUOUS
10
-0.090973
20
0.0632279
11
-0.0976374
21
0.0523527
0
LINE
8
BLACK
6
CONTINUOUS
10
-0.0976374
20
0.0523527
11
-0.103008
21
0.0407836
0
LINE
8
BLACK
6
CONTINUOUS
10
-0.103008
20
0.0407836
11
-0.107012
21
0.0286739
0
LINE
8
BLACK
6
CONTINUOUS
10
-0.107012
20
0.0286739
11
-0.109599
21
0.0161842
0
LINE
8
BLACK
6
CONTINUOUS
10
-0.109599
20
0.0161842
11
-0.110733
21
0.00347992
0
LINE
8
BLACK
6
CONTINUOUS
10
-0.110733
20
0.00347992
11
-0.110399
21
-0.00927047
0
LINE
8
BLACK
6
CONTINUOUS
10
-0.110399
20
-0.00927047
11
-0.108602
21
-0.021898
0
LINE
8
BLACK
6
CONTINUOUS
10
-0.133889
20
2.07284
11
-0.129836
21
2.08626
0
LINE
8
BLACK
6
CONTINUOUS
10
-0.129836
20
2.08626
11
-0.124312
21
2.09915
0
LINE
8
BLACK
6
CONTINUOUS
10
-0.124312
20
2.09915
11
-0.117386
21
2.11135
0
LINE
8
BLACK
6
CONTINUOUS
10
-0.117386
20
2.11135
11
-0.109144
21
2.12269
0
LINE
8
BLACK
6
CONTINUOUS
10
-0.109144
20
2.12269
11
-0.0996887
21
2.13304
0
LINE
8
BLACK
6
CONTINUOUS
10
-0.0996887
20
2.13304
11
-0.0891381
21
2.14228
0
LINE
8
BLACK
6
CONTINUOUS
10
-0.0891381
20
2.14228
11
-0.0776237
21
2.15028
0
LINE
8
BLACK
6
CONTINUOUS
10
-0.0776237
20
2.15028
11
-0.0652889
21
2.15695
0
LINE
8
BLACK
6
CONTINUOUS
10
-0.0652889
20
2.15695
11
-0.0522876
21
2.16221
0
LINE
8
BLACK
6
CONTINUOUS
10
-0.0522876
20
2.16221
11
-0.0387818
21
2.16598
0
LINE
8
BLACK
6
CONTINUOUS
10
-0.0387818
20
2.16598
11
-0.0249398
21
2.16822
0
LINE
8
BLACK
6
CONTINUOUS
10
-0.0249398
20
2.16822
11
-0.0109342
21
2.1689
0
LINE
8
BLACK
6
CONTINUOUS
10
-0.0109342
20
2.1689
11
0.00306051
21
2.16802
0
LINE
8
BLACK
6
CONTINUOUS
10
0.00306051
20
2.16802
11
0.0168698
21
2.16559
0
LINE
8
BLACK
6
CONTINUOUS
10
0.0168698
20
2.16559
11
0.0303217
21
2.16163
0
LINE
8
BLACK
6
CONTINUOUS
10
0.0303217
20
2.16163
11
0.0432484
21
2.1562
0
LINE
8
BLACK
6
CONTINUOUS
10
0.0432484
20
2.1562
11
0.0554888
21
2.14935
0
LINE
8
BLACK
6
CONTINUOUS
10
0.0554888
20
2.14935
11
0.0668904
21
2.14119
0
LINE
8
BLACK
6
CONTINUOUS
10
0.0668904
20
2.14119
11
0.0773111
21
2.13181
0
LINE
8
BLACK
6
CONTINUOUS
10
0.0773111
20
2.13181
11
0.0866209
21
2.12132
0
LINE
8
BLACK
6
CONTINUOUS
10
0.0866209
20
2.12132
11
0.0947038
21
2.10986
0
LINE
8
BLACK
6
CONTINUOUS
10
0.0947038
20
2.10986
11
0.101459
21
2.09758
0
LINE
8
BLACK
6
CONTINUOUS
10
0.101459
20
2.09758
11
0.106803
21
2.08461
0
LINE
8
BLACK
6
CONTINUOUS
10
0.106803
20
2.08461
11
0.110668
21
2.07113
0
LINE
8
BLACK
6
CONTINUOUS
10
0.110668
20
2.07113
11
0.113006
21
2.05731
0
LINE
8
BLACK
6
CONTINUOUS
10
0.113006
20
2.05731
11
0.113165
21
2.05446
0
LINE
8
BLACK
6
CONTINUOUS
10
0.113165
20
2.05446
11
0.11327
21
2.05427
0
LINE
8
BLACK
6
CONTINUOUS
10
0.11327
20
2.05427
11
0.118614
21
2.04131
0
LINE
8
BLACK
6
CONTINUOUS
10
0.118614
20
2.04131
11
0.122479
21
2.02783
0
LINE
8
BLACK
6
CONTINUOUS
10
0.122479
20
2.02783
11
0.124817
21
2.014
0
LINE
8
BLACK
6
CONTINUOUS
10
0.124817
20
2.014
11
0.1256
21
2
0
LINE
8
BLACK
6
CONTINUOUS
10
0.1256
20
2
11
0.125551
21
1.99649
0
LINE
8
BLACK
6
CONTINUOUS
10
0.125551
20
1.99649
11
0.124378
21
1.98252
0
LINE
8
BLACK
6
CONTINUOUS
10
0.124378
20
1.98252
11
0.121654
21
1.96876
0
LINE
8
BLACK
6
CONTINUOUS
10
0.121654
20
1.96876
11
0.117414
21
1.9554
0
LINE
8
BLACK
6
CONTINUOUS
10
0.117414
20
1.9554
11
0.111711
21
1.94259
0
LINE
8
BLACK
6
CONTINUOUS
10
0.111711
20
1.94259
11
0.104615
21
1.93049
0
LINE
8
BLACK
6
CONTINUOUS
10
0.104615
20
1.93049
11
0.0962152
21
1.91927
0
LINE
8
BLACK
6
CONTINUOUS
10
0.0962152
20
1.91927
11
0.0866162
21
1.90904
0
LINE
8
BLACK
6
CONTINUOUS
10
0.0866162
20
1.90904
11
0.0759376
21
1.89996
0
LINE
8
BLACK
6
CONTINUOUS
10
0.0759376
20
1.89996
11
0.0643126
21
1.89211
0
LINE
8
BLACK
6
CONTINUOUS
10
0.0643126
20
1.89211
11
0.0518859
21
1.88562
0
LINE
8
BLACK
6
CONTINUOUS
10
0.0518859
20
1.88562
11
0.0388125
21
1.88055
0
LINE
8
BLACK
6
CONTINUOUS
10
0.0388125
20
1.88055
11
0.0252554
21
1.87697
0
LINE
8
BLACK
6
CONTINUOUS
10
0.0252554
20
1.87697
11
0.0113835
21
1.87492
0
LINE
8
BLACK
6
CONTINUOUS
10
0.0113835
20
1.87492
11
-0.00263035
21
1.87443
0
LINE
8
BLACK
6
CONTINUOUS
10
-0.00263035
20
1.87443
11
-0.0166114
21
1.8755
0
LINE
8
BLACK
6
CONTINUOUS
10
-0.0166114
20
1.8755
11
-0.0303854
21
1.87813
0
LINE
8
BLACK
6
CONTINUOUS
10
-0.0303854
20
1.87813
11
-0.0437806
21
1.88228
0
LINE
8
BLACK
6
CONTINUOUS
10
-0.0437806
20
1.88228
11
-0.0566302
21
1.88789
0
LINE
8
BLACK
6
CONTINUOUS
10
-0.0566302
20
1.88789
11
-0.0687739
21
1.8949
0
LINE
8
BLACK
6
CONTINUOUS
10
-0.0687739
20
1.8949
11
-0.0800605
21
1.90322
0
LINE
8
BLACK
6
CONTINUOUS
10
-0.0800605
20
1.90322
11
-0.0903491
21
1.91275
0
LINE
8
BLACK
6
CONTINUOUS
10
-0.0903491
20
1.91275
11
-0.0995116
21
1.92337
0
LINE
8
BLACK
6
CONTINUOUS
10
-0.0995116
20
1.92337
11
-0.107434
21
1.93494
0
LINE
8
BLACK
6
CONTINUOUS
10
-0.107434
20
1.93494
11
-0.114017
21
1.94732
0
LINE
8
BLACK
6
CONTINUOUS
10
-0.114017
20
1.94732
11
-0.119179
21
1.96035
0
LINE
8
BLACK
6
CONTINUOUS
10
-0.119179
20
1.96035
11
-0.122855
21
1.97389
0
LINE
8
BLACK
6
CONTINUOUS
10
-0.122855
20
1.97389
11
-0.125001
21
1.98774
0
LINE
8
BLACK
6
CONTINUOUS
10
-0.125001
20
1.98774
11
-0.125061
21
1.98918
0
LINE
8
BLACK
6
CONTINUOUS
10
-0.125061
20
1.98918
11
-0.125828
21
1.99062
0
LINE
8
BLACK
6
CONTINUOUS
10
-0.125828
20
1.99062
11
-0.13099
21
2.00366
0
LINE
8
BLACK
6
CONTINUOUS
10
-0.13099
20
2.00366
11
-0.134666
21
2.01719
0
LINE
8
BLACK
6
CONTINUOUS
10
-0.134666
20
2.01719
11
-0.136812
21
2.03105
0
LINE
8
BLACK
6
CONTINUOUS
10
-0.136812
20
2.03105
11
-0.137399
21
2.04506
0
LINE
8
BLACK
6
CONTINUOUS
10
-0.137399
20
2.04506
11
-0.137278
21
2.04679
0
LINE
8
BLACK
6
CONTINUOUS
10
-0.137278
20
2.04679
11
-0.136421
21
2.05905
0
LINE
8
BLACK
6
CONTINUOUS
10
-0.136421
20
2.05905
11
-0.133889
21
2.07284
0
LINE
8
BLACK
6
CONTINUOUS
10
-0.121732
20
2.03068
11
-0.118025
21
2.04296
0
LINE
8
BLACK
6
CONTINUOUS
10
-0.118025
20
2.04296
11
-0.112501
21
2.05585
0
LINE
8
BLACK
6
CONTINUOUS
10
-0.112501
20
2.05585
11
-0.105575
21
2.06804
0
LINE
8
BLACK
6
CONTINUOUS
10
-0.105575
20
2.06804
11
-0.097333
21
2.07938
0
LINE
8
BLACK
6
CONTINUOUS
10
-0.097333
20
2.07938
11
-0.0878777
21
2.08974
0
LINE
8
BLACK
6
CONTINUOUS
10
-0.0878777
20
2.08974
11
-0.0773271
21
2.09897
0
LINE
8
BLACK
6
CONTINUOUS
10
-0.0773271
20
2.09897
11
-0.0658126
21
2.10698
0
LINE
8
BLACK
6
CONTINUOUS
10
-0.0658126
20
2.10698
11
-0.0534779
21
2.11365
0
LINE
8
BLACK
6
CONTINUOUS
10
-0.0534779
20
2.11365
11
-0.0404766
21
2.1189
0
LINE
8
BLACK
6
CONTINUOUS
10
-0.0404766
20
2.1189
11
-0.0269707
21
2.12267
0
LINE
8
BLACK
6
CONTINUOUS
10
-0.0269707
20
2.12267
11
-0.0131288
21
2.12491
0
LINE
8
BLACK
6
CONTINUOUS
10
-0.0131288
20
2.12491
11
0.00087685
21
2.1256
0
LINE
8
BLACK
6
CONTINUOUS
10
0.00087685
20
2.1256
11
0.0148715
21
2.12472
0
LINE
8
BLACK
6
CONTINUOUS
10
0.0148715
20
2.12472
11
0.0286809
21
2.12228
0
LINE
8
BLACK
6
CONTINUOUS
10
0.0286809
20
2.12228
11
0.0421327
21
2.11832
0
LINE
8
BLACK
6
CONTINUOUS
10
0.0421327
20
2.11832
11
0.0550594
21
2.11289
0
LINE
8
BLACK
6
CONTINUOUS
10
0.0550594
20
2.11289
11
0.0672998
21
2.10605
0
LINE
8
BLACK
6
CONTINUOUS
10
0.0672998
20
2.10605
11
0.0787015
21
2.09788
0
LINE
8
BLACK
6
CONTINUOUS
10
0.0787015
20
2.09788
11
0.0891221
21
2.0885
0
LINE
8
BLACK
6
CONTINUOUS
10
0.0891221
20
2.0885
11
0.0891883
21
2.08843
0
LINE
8
BLACK
6
CONTINUOUS
10
0.0891883
20
2.08843
11
0.0874226
21
2.09257
0
LINE
8
BLACK
6
CONTINUOUS
10
0.0874226
20
2.09257
11
0.0811031
21
2.10365
0
LINE
8
BLACK
6
CONTINUOUS
10
0.0811031
20
2.10365
11
0.0735522
21
2.11393
0
LINE
8
BLACK
6
CONTINUOUS
10
0.0735522
20
2.11393
11
0.0648698
21
2.12327
0
LINE
8
BLACK
6
CONTINUOUS
10
0.0648698
20
2.12327
11
0.055171
21
2.13155
0
LINE
8
BLACK
6
CONTINUOUS
10
0.055171
20
2.13155
11
0.0445844
21
2.13867
0
LINE
8
BLACK
6
CONTINUOUS
10
0.0445844
20
2.13867
11
0.0332503
21
2.14452
0
LINE
8
BLACK
6
CONTINUOUS
10
0.0332503
20
2.14452
11
0.0213189
21
2.14902
0
LINE
8
BLACK
6
CONTINUOUS
10
0.0213189
20
2.14902
11
0.00894846
21
2.15213
0
LINE
8
BLACK
6
CONTINUOUS
10
0.00894846
20
2.15213
11
-0.00369717
21
2.1538
0
LINE
8
BLACK
6
CONTINUOUS
10
-0.00369717
20
2.1538
11
-0.0164503
21
2.154
0
LINE
8
BLACK
6
CONTINUOUS
10
-0.0164503
20
2.154
11
-0.029142
21
2.15273
0
LINE
8
BLACK
6
CONTINUOUS
10
-0.029142
20
2.15273
11
-0.041604
21
2.15001
0
LINE
8
BLACK
6
CONTINUOUS
10
-0.041604
20
2.15001
11
-0.053671
21
2.14588
0
LINE
8
BLACK
6
CONTINUOUS
10
-0.053671
20
2.14588
11
-0.0651833
21
2.14039
0
LINE
8
BLACK
6
CONTINUOUS
10
-0.0651833
20
2.14039
11
-0.0759881
21
2.13361
0
LINE
8
BLACK
6
CONTINUOUS
10
-0.0759881
20
2.13361
11
-0.0859423
21
2.12564
0
LINE
8
BLACK
6
CONTINUOUS
10
-0.0859423
20
2.12564
11
-0.0949139
21
2.11657
0
LINE
8
BLACK
6
CONTINUOUS
10
-0.0949139
20
2.11657
11
-0.102784
21
2.10654
0
LINE
8
BLACK
6
CONTINUOUS
10
-0.102784
20
2.10654
11
-0.109448
21
2.09566
0
LINE
8
BLACK
6
CONTINUOUS
10
-0.109448
20
2.09566
11
-0.114819
21
2.08409
0
LINE
8
BLACK
6
CONTINUOUS
10
-0.114819
20
2.08409
11
-0.118823
21
2.07198
0
LINE
8
BLACK
6
CONTINUOUS
10
-0.118823
20
2.07198
11
-0.12141
21
2.05949
0
LINE
8
BLACK
6
CONTINUOUS
10
-0.12141
20
2.05949
11
-0.122544
21
2.04679
0
LINE
8
BLACK
6
CONTINUOUS
10
-0.122544
20
2.04679
11
-0.12221
21
2.03404
0
LINE
8
BLACK
6
CONTINUOUS
10
-0.12221
20
2.03404
11
-0.121732
21
2.03068
0
LINE
8
BLACK
6
CONTINUOUS
10
0.109843
20
2.01207
11
0.105603
21
1.99871
0
LINE
8
BLACK
6
CONTINUOUS
10
0.105603
20
1.99871
11
0.0998997
21
1.9859
0
LINE
8
BLACK
6
CONTINUOUS
10
0.0998997
20
1.9859
11
0.0928039
21
1.9738
0
LINE
8
BLACK
6
CONTINUOUS
10
0.0928039
20
1.9738
11
0.0844042
21
1.96257
0
LINE
8
BLACK
6
CONTINUOUS
10
0.0844042
20
1.96257
11
0.0748052
21
1.95235
0
LINE
8
BLACK
6
CONTINUOUS
10
0.0748052
20
1.95235
11
0.0641266
21
1.94326
0
LINE
8
BLACK
6
CONTINUOUS
10
0.0641266
20
1.94326
11
0.0525016
21
1.93542
0
LINE
8
BLACK
6
CONTINUOUS
10
0.0525016
20
1.93542
11
0.0400749
21
1.92893
0
LINE
8
BLACK
6
CONTINUOUS
10
0.0400749
20
1.92893
11
0.0270015
21
1.92385
0
LINE
8
BLACK
6
CONTINUOUS
10
0.0270015
20
1.92385
11
0.0134444
21
1.92027
0
LINE
8
BLACK
6
CONTINUOUS
10
0.0134444
20
1.92027
11
-0.000427559
21
1.91822
0
LINE
8
BLACK
6
CONTINUOUS
10
-0.000427559
20
1.91822
11
-0.0144414
21
1.91773
0
LINE
8
BLACK
6
CONTINUOUS
10
-0.0144414
20
1.91773
11
-0.0284224
21
1.91881
0
LINE
8
BLACK
6
CONTINUOUS
10
-0.0284224
20
1.91881
11
-0.0421964
21
1.92144
0
LINE
8
BLACK
6
CONTINUOUS
10
-0.0421964
20
1.92144
11
-0.0555917
21
1.92558
0
LINE
8
BLACK
6
CONTINUOUS
10
-0.0555917
20
1.92558
11
-0.0684413
21
1.9312
0
LINE
8
BLACK
6
CONTINUOUS
10
-0.0684413
20
1.9312
11
-0.080585
21
1.93821
0
LINE
8
BLACK
6
CONTINUOUS
10
-0.080585
20
1.93821
11
-0.0918715
21
1.94653
0
LINE
8
BLACK
6
CONTINUOUS
10
-0.0918715
20
1.94653
11
-0.101253
21
1.95522
0
LINE
8
BLACK
6
CONTINUOUS
10
-0.101253
20
1.95522
11
-0.100732
21
1.95388
0
LINE
8
BLACK
6
CONTINUOUS
10
-0.100732
20
1.95388
11
-0.0947636
21
1.94261
0
LINE
8
BLACK
6
CONTINUOUS
10
-0.0947636
20
1.94261
11
-0.0875393
21
1.9321
0
LINE
8
BLACK
6
CONTINUOUS
10
-0.0875393
20
1.9321
11
-0.0791546
21
1.92249
0
LINE
8
BLACK
6
CONTINUOUS
10
-0.0791546
20
1.92249
11
-0.0697208
21
1.9139
0
LINE
8
BLACK
6
CONTINUOUS
10
-0.0697208
20
1.9139
11
-0.0593629
21
1.90646
0
LINE
8
BLACK
6
CONTINUOUS
10
-0.0593629
20
1.90646
11
-0.0482181
21
1.90026
0
LINE
8
BLACK
6
CONTINUOUS
10
-0.0482181
20
1.90026
11
-0.0364343
21
1.89537
0
LINE
8
BLACK
6
CONTINUOUS
10
-0.0364343
20
1.89537
11
-0.0241675
21
1.89188
0
LINE
8
BLACK
6
CONTINUOUS
10
-0.0241675
20
1.89188
11
-0.0115804
21
1.88982
0
LINE
8
BLACK
6
CONTINUOUS
10
-0.0115804
20
1.88982
11
0.00116016
21
1.88922
0
LINE
8
BLACK
6
CONTINUOUS
10
0.00116016
20
1.88922
11
0.0138854
21
1.89009
0
LINE
8
BLACK
6
CONTINUOUS
10
0.0138854
20
1.89009
11
0.0264265
21
1.89241
0
LINE
8
BLACK
6
CONTINUOUS
10
0.0264265
20
1.89241
11
0.0386174
21
1.89616
0
LINE
8
BLACK
6
CONTINUOUS
10
0.0386174
20
1.89616
11
0.0502965
21
1.90129
0
LINE
8
BLACK
6
CONTINUOUS
10
0.0502965
20
1.90129
11
0.0613088
21
1.90772
0
LINE
8
BLACK
6
CONTINUOUS
10
0.0613088
20
1.90772
11
0.0715086
21
1.91538
0
LINE
8
BLACK
6
CONTINUOUS
10
0.0715086
20
1.91538
11
0.0807606
21
1.92416
0
LINE
8
BLACK
6
CONTINUOUS
10
0.0807606
20
1.92416
11
0.0889421
21
1.93395
0
LINE
8
BLACK
6
CONTINUOUS
10
0.0889421
20
1.93395
11
0.0959447
21
1.94461
0
LINE
8
BLACK
6
CONTINUOUS
10
0.0959447
20
1.94461
11
0.101676
21
1.956
0
LINE
8
BLACK
6
CONTINUOUS
10
0.101676
20
1.956
11
0.106059
21
1.96798
0
LINE
8
BLACK
6
CONTINUOUS
10
0.106059
20
1.96798
11
0.109036
21
1.98038
0
LINE
8
BLACK
6
CONTINUOUS
10
0.109036
20
1.98038
11
0.110569
21
1.99304
0
LINE
8
BLACK
6
CONTINUOUS
10
0.110569
20
1.99304
11
0.110787
21
2
0
LINE
8
BLACK
6
CONTINUOUS
10
0.110787
20
2
11
0.110053
21
2.01273
0
LINE
8
BLACK
6
CONTINUOUS
10
0.110053
20
2.01273
11
0.110016
21
2.01295
0
LINE
8
BLACK
6
CONTINUOUS
10
0.110016
20
2.01295
11
0.109843
21
2.01207
0
LINE
8
BLACK
6
CONTINUOUS
10
-0.106575
20
1.98592
11
-0.0993503
21
1.9754
0
LINE
8
BLACK
6
CONTINUOUS
10
-0.0993503
20
1.9754
11
-0.0909656
21
1.96579
0
LINE
8
BLACK
6
CONTINUOUS
10
-0.0909656
20
1.96579
11
-0.0815318
21
1.95721
0
LINE
8
BLACK
6
CONTINUOUS
10
-0.0815318
20
1.95721
11
-0.0711739
21
1.94977
0
LINE
8
BLACK
6
CONTINUOUS
10
-0.0711739
20
1.94977
11
-0.0600292
21
1.94356
0
LINE
8
BLACK
6
CONTINUOUS
10
-0.0600292
20
1.94356
11
-0.0482453
21
1.93868
0
LINE
8
BLACK
6
CONTINUOUS
10
-0.0482453
20
1.93868
11
-0.0359785
21
1.93519
0
LINE
8
BLACK
6
CONTINUOUS
10
-0.0359785
20
1.93519
11
-0.0233915
21
1.93313
0
LINE
8
BLACK
6
CONTINUOUS
10
-0.0233915
20
1.93313
11
-0.0106509
21
1.93253
0
LINE
8
BLACK
6
CONTINUOUS
10
-0.0106509
20
1.93253
11
0.00207433
21
1.93339
0
LINE
8
BLACK
6
CONTINUOUS
10
0.00207433
20
1.93339
11
0.0146155
21
1.93572
0
LINE
8
BLACK
6
CONTINUOUS
10
0.0146155
20
1.93572
11
0.0268064
21
1.93947
0
LINE
8
BLACK
6
CONTINUOUS
10
0.0268064
20
1.93947
11
0.0384854
21
1.94459
0
LINE
8
BLACK
6
CONTINUOUS
10
0.0384854
20
1.94459
11
0.0494978
21
1.95103
0
LINE
8
BLACK
6
CONTINUOUS
10
0.0494978
20
1.95103
11
0.0596976
21
1.95869
0
LINE
8
BLACK
6
CONTINUOUS
10
0.0596976
20
1.95869
11
0.0689495
21
1.96747
0
LINE
8
BLACK
6
CONTINUOUS
10
0.0689495
20
1.96747
11
0.0771311
21
1.97725
0
LINE
8
BLACK
6
CONTINUOUS
10
0.0771311
20
1.97725
11
0.0841337
21
1.98791
0
LINE
8
BLACK
6
CONTINUOUS
10
0.0841337
20
1.98791
11
0.0898646
21
1.99931
0
LINE
8
BLACK
6
CONTINUOUS
10
0.0898646
20
1.99931
11
0.094248
21
2.01129
0
LINE
8
BLACK
6
CONTINUOUS
10
0.094248
20
2.01129
11
0.0972255
21
2.02369
0
LINE
8
BLACK
6
CONTINUOUS
10
0.0972255
20
2.02369
11
0.0987578
21
2.03635
0
LINE
8
BLACK
6
CONTINUOUS
10
0.0987578
20
2.03635
11
0.0989764
21
2.04331
0
LINE
8
BLACK
6
CONTINUOUS
10
0.0989764
20
2.04331
11
0.0985657
21
2.05043
0
LINE
8
BLACK
6
CONTINUOUS
10
0.0985657
20
2.05043
11
0.0929142
21
2.06034
0
LINE
8
BLACK
6
CONTINUOUS
10
0.0929142
20
2.06034
11
0.0853632
21
2.07062
0
LINE
8
BLACK
6
CONTINUOUS
10
0.0853632
20
2.07062
11
0.0766808
21
2.07996
0
LINE
8
BLACK
6
CONTINUOUS
10
0.0766808
20
2.07996
11
0.066982
21
2.08825
0
LINE
8
BLACK
6
CONTINUOUS
10
0.066982
20
2.08825
11
0.0563954
21
2.09536
0
LINE
8
BLACK
6
CONTINUOUS
10
0.0563954
20
2.09536
11
0.0450613
21
2.10121
0
LINE
8
BLACK
6
CONTINUOUS
10
0.0450613
20
2.10121
11
0.03313
21
2.10572
0
LINE
8
BLACK
6
CONTINUOUS
10
0.03313
20
2.10572
11
0.0207595
21
2.10883
0
LINE
8
BLACK
6
CONTINUOUS
10
0.0207595
20
2.10883
11
0.00811386
21
2.11049
0
LINE
8
BLACK
6
CONTINUOUS
10
0.00811386
20
2.11049
11
-0.00463929
21
2.11069
0
LINE
8
BLACK
6
CONTINUOUS
10
-0.00463929
20
2.11069
11
-0.017331
21
2.10942
0
LINE
8
BLACK
6
CONTINUOUS
10
-0.017331
20
2.10942
11
-0.029793
21
2.10671
0
LINE
8
BLACK
6
CONTINUOUS
10
-0.029793
20
2.10671
11
-0.04186
21
2.10257
0
LINE
8
BLACK
6
CONTINUOUS
10
-0.04186
20
2.10257
11
-0.0533722
21
2.09708
0
LINE
8
BLACK
6
CONTINUOUS
10
-0.0533722
20
2.09708
11
-0.0641771
21
2.09031
0
LINE
8
BLACK
6
CONTINUOUS
10
-0.0641771
20
2.09031
11
-0.0741313
21
2.08233
0
LINE
8
BLACK
6
CONTINUOUS
10
-0.0741313
20
2.08233
11
-0.0831029
21
2.07327
0
LINE
8
BLACK
6
CONTINUOUS
10
-0.0831029
20
2.07327
11
-0.090973
21
2.06323
0
LINE
8
BLACK
6
CONTINUOUS
10
-0.090973
20
2.06323
11
-0.0976374
21
2.05235
0
LINE
8
BLACK
6
CONTINUOUS
10
-0.0976374
20
2.05235
11
-0.103008
21
2.04078
0
LINE
8
BLACK
6
CONTINUOUS
10
-0.103008
20
2.04078
11
-0.107012
21
2.02867
0
LINE
8
BLACK
6
CONTINUOUS
10
-0.107012
20
2.02867
11
-0.109599
21
2.01618
0
LINE
8
BLACK
6
CONTINUOUS
10
-0.109599
20
2.01618
11
-0.110733
21
2.00348
0
LINE
8
BLACK
6
CONTINUOUS
10
-0.110733
20
2.00348
11
-0.110465
21
1.99326
0
LINE
8
BLACK
6
CONTINUOUS
10
-0.110465
20
1.99326
11
-0.106575
21
1.98592
  0
ENDSEC
  0
EOF
