  0
SECTION
  2
HEADER
  9
$ANGBASE
  50
0.0
  9
$ANGDIR
  70
1
  9
$MEASUREMENT
  70
0
  0
ENDSEC
  0
SECTION
  2
TABLES
  0
TABLE
  2
LTYPE
  70
4
  0
LTYPE
  5
40F
  2
CONTINUOUS
  70
0
  3
Solid line
  72
65
  73
0
  40
0.0
  0
LTYPE
  5
410
  2
DASHDOT
 70
0
  3
Dash Dot ____ _ ____ _
 72
65
 73
4
 40
2.0
 49
1.25
 49
-0.25
 49
0.25
 49
-0.25
  0
LTYPE
  5
411
  2
DASHED
 70
0
  3
Dashed __ __ __ __ __
 72
65
 73
2
 40
0.75
 49
0.5
 49
-0.25
  0
LTYPE
  5
43B
  2
DOTTED
 70
0
  3
Dotted .  .  .  .
 72
65
 73
2
 40
0.2
 49
0.0
 49
-0.2
  0
ENDTAB
  0
TABLE
  2
STYLE
  70
4
  0
STYLE
  2
KICAD
  70
0
  40
0
  41
1
  42
1
  50
0
  71
0
  3
isocp.shx
  0
STYLE
  2
KICADB
  70
0
  40
0
  41
1
  42
1
  50
0
  71
0
  3
isocp.shx
  0
STYLE
  2
KICADI
  70
0
  40
0
  41
1
  42
1
  50
15
  71
0
  3
isocp.shx
  0
STYLE
  2
KICADBI
  70
0
  40
0
  41
1
  42
1
  50
15
  71
0
  3
isocp.shx
  0
ENDTAB
  0
TABLE
  2
LAYER
  70
1
  0
LAYER
  2
BLACK
  70
0
  62
7
  6
CONTINUOUS
  0
ENDTAB
  0
ENDSEC
  0
SECTION
  2
ENTITIES
0
LINE
8
BLACK
6
CONTINUOUS
10
1.28277
20
0.0248946
11
1.28248
21
0.0255906
0
LINE
8
BLACK
6
CONTINUOUS
10
1.28248
20
0.0255906
11
1.28248
21
0.124016
0
LINE
8
BLACK
6
CONTINUOUS
10
1.28248
20
0.124016
11
1.28277
21
0.124712
0
LINE
8
BLACK
6
CONTINUOUS
10
1.28277
20
0.124712
11
1.28346
21
0.125
0
LINE
8
BLACK
6
CONTINUOUS
10
1.28346
20
0.125
11
1.46457
21
0.125
0
LINE
8
BLACK
6
CONTINUOUS
10
1.46457
20
0.125
11
1.46526
21
0.124712
0
LINE
8
BLACK
6
CONTINUOUS
10
1.46526
20
0.124712
11
1.46555
21
0.124016
0
LINE
8
BLACK
6
CONTINUOUS
10
1.46555
20
0.124016
11
1.46555
21
0.0255906
0
LINE
8
BLACK
6
CONTINUOUS
10
1.46555
20
0.0255906
11
1.46526
21
0.0248946
0
LINE
8
BLACK
6
CONTINUOUS
10
1.46526
20
0.0248946
11
1.46457
21
0.0246063
0
LINE
8
BLACK
6
CONTINUOUS
10
1.46457
20
0.0246063
11
1.28346
21
0.0246063
0
LINE
8
BLACK
6
CONTINUOUS
10
1.28346
20
0.0246063
11
1.28277
21
0.0248946
0
LINE
8
BLACK
6
CONTINUOUS
10
1.28445
20
0.123031
11
1.28445
21
0.0265748
0
LINE
8
BLACK
6
CONTINUOUS
10
1.28445
20
0.0265748
11
1.46358
21
0.0265748
0
LINE
8
BLACK
6
CONTINUOUS
10
1.46358
20
0.0265748
11
1.46358
21
0.123031
0
LINE
8
BLACK
6
CONTINUOUS
10
1.46358
20
0.123031
11
1.28445
21
0.123031
0
LINE
8
BLACK
6
CONTINUOUS
10
1.04852
20
0.121351
11
1.04823
21
0.122047
0
LINE
8
BLACK
6
CONTINUOUS
10
1.04823
20
0.122047
11
1.04823
21
0.255906
0
LINE
8
BLACK
6
CONTINUOUS
10
1.04823
20
0.255906
11
1.04852
21
0.256601
0
LINE
8
BLACK
6
CONTINUOUS
10
1.04852
20
0.256601
11
1.04921
21
0.25689
0
LINE
8
BLACK
6
CONTINUOUS
10
1.04921
20
0.25689
11
1.21063
21
0.25689
0
LINE
8
BLACK
6
CONTINUOUS
10
1.21063
20
0.25689
11
1.21133
21
0.256601
0
LINE
8
BLACK
6
CONTINUOUS
10
1.21133
20
0.256601
11
1.21161
21
0.255906
0
LINE
8
BLACK
6
CONTINUOUS
10
1.21161
20
0.255906
11
1.21161
21
0.122047
0
LINE
8
BLACK
6
CONTINUOUS
10
1.21161
20
0.122047
11
1.21133
21
0.121351
0
LINE
8
BLACK
6
CONTINUOUS
10
1.21133
20
0.121351
11
1.21063
21
0.121063
0
LINE
8
BLACK
6
CONTINUOUS
10
1.21063
20
0.121063
11
1.04921
21
0.121063
0
LINE
8
BLACK
6
CONTINUOUS
10
1.04921
20
0.121063
11
1.04852
21
0.121351
0
LINE
8
BLACK
6
CONTINUOUS
10
1.0502
20
0.254921
11
1.0502
21
0.123031
0
LINE
8
BLACK
6
CONTINUOUS
10
1.0502
20
0.123031
11
1.20965
21
0.123031
0
LINE
8
BLACK
6
CONTINUOUS
10
1.20965
20
0.123031
11
1.20965
21
0.254921
0
LINE
8
BLACK
6
CONTINUOUS
10
1.20965
20
0.254921
11
1.0502
21
0.254921
0
LINE
8
BLACK
6
CONTINUOUS
10
1.34379
20
0.219776
11
1.3435
21
0.220472
0
LINE
8
BLACK
6
CONTINUOUS
10
1.3435
20
0.220472
11
1.3435
21
0.362205
0
LINE
8
BLACK
6
CONTINUOUS
10
1.3435
20
0.362205
11
1.34379
21
0.362901
0
LINE
8
BLACK
6
CONTINUOUS
10
1.34379
20
0.362901
11
1.34449
21
0.363189
0
LINE
8
BLACK
6
CONTINUOUS
10
1.34449
20
0.363189
11
1.57677
21
0.363189
0
LINE
8
BLACK
6
CONTINUOUS
10
1.57677
20
0.363189
11
1.57747
21
0.362901
0
LINE
8
BLACK
6
CONTINUOUS
10
1.57747
20
0.362901
11
1.57776
21
0.362205
0
LINE
8
BLACK
6
CONTINUOUS
10
1.57776
20
0.362205
11
1.57776
21
0.220472
0
LINE
8
BLACK
6
CONTINUOUS
10
1.57776
20
0.220472
11
1.57747
21
0.219776
0
LINE
8
BLACK
6
CONTINUOUS
10
1.57747
20
0.219776
11
1.57677
21
0.219488
0
LINE
8
BLACK
6
CONTINUOUS
10
1.57677
20
0.219488
11
1.34449
21
0.219488
0
LINE
8
BLACK
6
CONTINUOUS
10
1.34449
20
0.219488
11
1.34379
21
0.219776
0
LINE
8
BLACK
6
CONTINUOUS
10
1.34547
20
0.36122
11
1.34547
21
0.221457
0
LINE
8
BLACK
6
CONTINUOUS
10
1.34547
20
0.221457
11
1.57579
21
0.221457
0
LINE
8
BLACK
6
CONTINUOUS
10
1.57579
20
0.221457
11
1.57579
21
0.36122
0
LINE
8
BLACK
6
CONTINUOUS
10
1.57579
20
0.36122
11
1.34547
21
0.36122
0
LINE
8
BLACK
6
CONTINUOUS
10
0.741036
20
0.639068
11
0.740748
21
0.639764
0
LINE
8
BLACK
6
CONTINUOUS
10
0.740748
20
0.639764
11
0.740748
21
1.04528
0
LINE
8
BLACK
6
CONTINUOUS
10
0.740748
20
1.04528
11
0.741036
21
1.04597
0
LINE
8
BLACK
6
CONTINUOUS
10
0.741036
20
1.04597
11
0.741732
21
1.04626
0
LINE
8
BLACK
6
CONTINUOUS
10
0.741732
20
1.04626
11
1.25039
21
1.04626
0
LINE
8
BLACK
6
CONTINUOUS
10
1.25039
20
1.04626
11
1.25109
21
1.04597
0
LINE
8
BLACK
6
CONTINUOUS
10
1.25109
20
1.04597
11
1.25138
21
1.04528
0
LINE
8
BLACK
6
CONTINUOUS
10
1.25138
20
1.04528
11
1.25138
21
0.639764
0
LINE
8
BLACK
6
CONTINUOUS
10
1.25138
20
0.639764
11
1.25109
21
0.639068
0
LINE
8
BLACK
6
CONTINUOUS
10
1.25109
20
0.639068
11
1.25039
21
0.63878
0
LINE
8
BLACK
6
CONTINUOUS
10
1.25039
20
0.63878
11
0.741732
21
0.63878
0
LINE
8
BLACK
6
CONTINUOUS
10
0.741732
20
0.63878
11
0.741036
21
0.639068
0
LINE
8
BLACK
6
CONTINUOUS
10
0.742717
20
1.04429
11
0.742717
21
0.640748
0
LINE
8
BLACK
6
CONTINUOUS
10
0.742717
20
0.640748
11
1.24941
21
0.640748
0
LINE
8
BLACK
6
CONTINUOUS
10
1.24941
20
0.640748
11
1.24941
21
1.04429
0
LINE
8
BLACK
6
CONTINUOUS
10
1.24941
20
1.04429
11
0.742717
21
1.04429
0
LINE
8
BLACK
6
CONTINUOUS
10
0.278832
20
1.00127
11
0.278543
21
1.00197
0
LINE
8
BLACK
6
CONTINUOUS
10
0.278543
20
1.00197
11
0.278543
21
1.25787
0
LINE
8
BLACK
6
CONTINUOUS
10
0.278543
20
1.25787
11
0.278832
21
1.25857
0
LINE
8
BLACK
6
CONTINUOUS
10
0.278832
20
1.25857
11
0.279528
21
1.25886
0
LINE
8
BLACK
6
CONTINUOUS
10
0.279528
20
1.25886
11
0.555118
21
1.25886
0
LINE
8
BLACK
6
CONTINUOUS
10
0.555118
20
1.25886
11
0.555814
21
1.25857
0
LINE
8
BLACK
6
CONTINUOUS
10
0.555814
20
1.25857
11
0.556102
21
1.25787
0
LINE
8
BLACK
6
CONTINUOUS
10
0.556102
20
1.25787
11
0.556102
21
1.00197
0
LINE
8
BLACK
6
CONTINUOUS
10
0.556102
20
1.00197
11
0.555814
21
1.00127
0
LINE
8
BLACK
6
CONTINUOUS
10
0.555814
20
1.00127
11
0.555118
21
1.00098
0
LINE
8
BLACK
6
CONTINUOUS
10
0.555118
20
1.00098
11
0.279528
21
1.00098
0
LINE
8
BLACK
6
CONTINUOUS
10
0.279528
20
1.00098
11
0.278832
21
1.00127
0
LINE
8
BLACK
6
CONTINUOUS
10
0.280512
20
1.25689
11
0.280512
21
1.00295
0
LINE
8
BLACK
6
CONTINUOUS
10
0.280512
20
1.00295
11
0.554134
21
1.00295
0
LINE
8
BLACK
6
CONTINUOUS
10
0.554134
20
1.00295
11
0.554134
21
1.25689
0
LINE
8
BLACK
6
CONTINUOUS
10
0.554134
20
1.25689
11
0.280512
21
1.25689
0
LINE
8
BLACK
6
CONTINUOUS
10
1.41466
20
1.02883
11
1.41437
21
1.02953
0
LINE
8
BLACK
6
CONTINUOUS
10
1.41437
20
1.02953
11
1.41437
21
1.24606
0
LINE
8
BLACK
6
CONTINUOUS
10
1.41437
20
1.24606
11
1.41466
21
1.24676
0
LINE
8
BLACK
6
CONTINUOUS
10
1.41466
20
1.24676
11
1.41535
21
1.24705
0
LINE
8
BLACK
6
CONTINUOUS
10
1.41535
20
1.24705
11
1.7185
21
1.24705
0
LINE
8
BLACK
6
CONTINUOUS
10
1.7185
20
1.24705
11
1.7192
21
1.24676
0
LINE
8
BLACK
6
CONTINUOUS
10
1.7192
20
1.24676
11
1.71949
21
1.24606
0
LINE
8
BLACK
6
CONTINUOUS
10
1.71949
20
1.24606
11
1.71949
21
1.02953
0
LINE
8
BLACK
6
CONTINUOUS
10
1.71949
20
1.02953
11
1.7192
21
1.02883
0
LINE
8
BLACK
6
CONTINUOUS
10
1.7192
20
1.02883
11
1.7185
21
1.02854
0
LINE
8
BLACK
6
CONTINUOUS
10
1.7185
20
1.02854
11
1.41535
21
1.02854
0
LINE
8
BLACK
6
CONTINUOUS
10
1.41535
20
1.02854
11
1.41466
21
1.02883
0
LINE
8
BLACK
6
CONTINUOUS
10
1.41634
20
1.24508
11
1.41634
21
1.03051
0
LINE
8
BLACK
6
CONTINUOUS
10
1.41634
20
1.03051
11
1.71752
21
1.03051
0
LINE
8
BLACK
6
CONTINUOUS
10
1.71752
20
1.03051
11
1.71752
21
1.24508
0
LINE
8
BLACK
6
CONTINUOUS
10
1.71752
20
1.24508
11
1.41634
21
1.24508
0
LINE
8
BLACK
6
CONTINUOUS
10
0.0485166
20
1.05836
11
0.0482283
21
1.05906
0
LINE
8
BLACK
6
CONTINUOUS
10
0.0482283
20
1.05906
11
0.0482283
21
1.33465
0
LINE
8
BLACK
6
CONTINUOUS
10
0.0482283
20
1.33465
11
0.0485166
21
1.33534
0
LINE
8
BLACK
6
CONTINUOUS
10
0.0485166
20
1.33534
11
0.0492126
21
1.33563
0
LINE
8
BLACK
6
CONTINUOUS
10
0.0492126
20
1.33563
11
0.187008
21
1.33563
0
LINE
8
BLACK
6
CONTINUOUS
10
0.187008
20
1.33563
11
0.187704
21
1.33534
0
LINE
8
BLACK
6
CONTINUOUS
10
0.187704
20
1.33534
11
0.187992
21
1.33465
0
LINE
8
BLACK
6
CONTINUOUS
10
0.187992
20
1.33465
11
0.187992
21
1.05906
0
LINE
8
BLACK
6
CONTINUOUS
10
0.187992
20
1.05906
11
0.187704
21
1.05836
0
LINE
8
BLACK
6
CONTINUOUS
10
0.187704
20
1.05836
11
0.187008
21
1.05807
0
LINE
8
BLACK
6
CONTINUOUS
10
0.187008
20
1.05807
11
0.0492126
21
1.05807
0
LINE
8
BLACK
6
CONTINUOUS
10
0.0492126
20
1.05807
11
0.0485166
21
1.05836
0
LINE
8
BLACK
6
CONTINUOUS
10
0.0501969
20
1.33366
11
0.0501969
21
1.06004
0
LINE
8
BLACK
6
CONTINUOUS
10
0.0501969
20
1.06004
11
0.186024
21
1.06004
0
LINE
8
BLACK
6
CONTINUOUS
10
0.186024
20
1.06004
11
0.186024
21
1.33366
0
LINE
8
BLACK
6
CONTINUOUS
10
0.186024
20
1.33366
11
0.0501969
21
1.33366
0
LINE
8
BLACK
6
CONTINUOUS
10
0.572139
20
1.12362
11
0.57185
21
1.12431
0
LINE
8
BLACK
6
CONTINUOUS
10
0.57185
20
1.12431
11
0.57185
21
1.25659
0
LINE
8
BLACK
6
CONTINUOUS
10
0.57185
20
1.25659
11
0.572139
21
1.25729
0
LINE
8
BLACK
6
CONTINUOUS
10
0.572139
20
1.25729
11
0.572835
21
1.25758
0
LINE
8
BLACK
6
CONTINUOUS
10
0.572835
20
1.25758
11
0.647638
21
1.25758
0
LINE
8
BLACK
6
CONTINUOUS
10
0.647638
20
1.25758
11
0.648334
21
1.25729
0
LINE
8
BLACK
6
CONTINUOUS
10
0.648334
20
1.25729
11
0.648622
21
1.25659
0
LINE
8
BLACK
6
CONTINUOUS
10
0.648622
20
1.25659
11
0.648622
21
1.12431
0
LINE
8
BLACK
6
CONTINUOUS
10
0.648622
20
1.12431
11
0.648334
21
1.12362
0
LINE
8
BLACK
6
CONTINUOUS
10
0.648334
20
1.12362
11
0.647638
21
1.12333
0
LINE
8
BLACK
6
CONTINUOUS
10
0.647638
20
1.12333
11
0.572835
21
1.12333
0
LINE
8
BLACK
6
CONTINUOUS
10
0.572835
20
1.12333
11
0.572139
21
1.12362
0
LINE
8
BLACK
6
CONTINUOUS
10
0.573819
20
1.25561
11
0.573819
21
1.1253
0
LINE
8
BLACK
6
CONTINUOUS
10
0.573819
20
1.1253
11
0.646654
21
1.1253
0
LINE
8
BLACK
6
CONTINUOUS
10
0.646654
20
1.1253
11
0.646654
21
1.25561
0
LINE
8
BLACK
6
CONTINUOUS
10
0.646654
20
1.25561
11
0.573819
21
1.25561
0
LINE
8
BLACK
6
CONTINUOUS
10
-0.0380976
20
1.20236
11
-0.0383858
21
1.20305
0
LINE
8
BLACK
6
CONTINUOUS
10
-0.0383858
20
1.20305
11
-0.0383858
21
1.33533
0
LINE
8
BLACK
6
CONTINUOUS
10
-0.0383858
20
1.33533
11
-0.0380976
21
1.33603
0
LINE
8
BLACK
6
CONTINUOUS
10
-0.0380976
20
1.33603
11
-0.0374016
21
1.33632
0
LINE
8
BLACK
6
CONTINUOUS
10
-0.0374016
20
1.33632
11
0.0374016
21
1.33632
0
LINE
8
BLACK
6
CONTINUOUS
10
0.0374016
20
1.33632
11
0.0380976
21
1.33603
0
LINE
8
BLACK
6
CONTINUOUS
10
0.0380976
20
1.33603
11
0.0383858
21
1.33533
0
LINE
8
BLACK
6
CONTINUOUS
10
0.0383858
20
1.33533
11
0.0383858
21
1.20305
0
LINE
8
BLACK
6
CONTINUOUS
10
0.0383858
20
1.20305
11
0.0380976
21
1.20236
0
LINE
8
BLACK
6
CONTINUOUS
10
0.0380976
20
1.20236
11
0.0374016
21
1.20207
0
LINE
8
BLACK
6
CONTINUOUS
10
0.0374016
20
1.20207
11
-0.0374016
21
1.20207
0
LINE
8
BLACK
6
CONTINUOUS
10
-0.0374016
20
1.20207
11
-0.0380976
21
1.20236
0
LINE
8
BLACK
6
CONTINUOUS
10
-0.0364173
20
1.33435
11
-0.0364173
21
1.20404
0
LINE
8
BLACK
6
CONTINUOUS
10
-0.0364173
20
1.20404
11
0.0364173
21
1.20404
0
LINE
8
BLACK
6
CONTINUOUS
10
0.0364173
20
1.20404
11
0.0364173
21
1.33435
0
LINE
8
BLACK
6
CONTINUOUS
10
0.0364173
20
1.33435
11
-0.0364173
21
1.33435
0
LINE
8
BLACK
6
CONTINUOUS
10
0.190249
20
1.24812
11
0.189961
21
1.24882
0
LINE
8
BLACK
6
CONTINUOUS
10
0.189961
20
1.24882
11
0.189961
21
1.3811
0
LINE
8
BLACK
6
CONTINUOUS
10
0.189961
20
1.3811
11
0.189981
21
1.38115
0
LINE
8
BLACK
6
CONTINUOUS
10
0.189981
20
1.38115
11
0.189961
21
1.3812
0
LINE
8
BLACK
6
CONTINUOUS
10
0.189961
20
1.3812
11
0.189961
21
1.51348
0
LINE
8
BLACK
6
CONTINUOUS
10
0.189961
20
1.51348
11
0.190249
21
1.51418
0
LINE
8
BLACK
6
CONTINUOUS
10
0.190249
20
1.51418
11
0.190945
21
1.51447
0
LINE
8
BLACK
6
CONTINUOUS
10
0.190945
20
1.51447
11
0.265748
21
1.51447
0
LINE
8
BLACK
6
CONTINUOUS
10
0.265748
20
1.51447
11
0.266444
21
1.51418
0
LINE
8
BLACK
6
CONTINUOUS
10
0.266444
20
1.51418
11
0.266732
21
1.51348
0
LINE
8
BLACK
6
CONTINUOUS
10
0.266732
20
1.51348
11
0.266732
21
1.3812
0
LINE
8
BLACK
6
CONTINUOUS
10
0.266732
20
1.3812
11
0.266712
21
1.38115
0
LINE
8
BLACK
6
CONTINUOUS
10
0.266712
20
1.38115
11
0.266732
21
1.3811
0
LINE
8
BLACK
6
CONTINUOUS
10
0.266732
20
1.3811
11
0.266732
21
1.24882
0
LINE
8
BLACK
6
CONTINUOUS
10
0.266732
20
1.24882
11
0.266444
21
1.24812
0
LINE
8
BLACK
6
CONTINUOUS
10
0.266444
20
1.24812
11
0.265748
21
1.24783
0
LINE
8
BLACK
6
CONTINUOUS
10
0.265748
20
1.24783
11
0.190945
21
1.24783
0
LINE
8
BLACK
6
CONTINUOUS
10
0.190945
20
1.24783
11
0.190249
21
1.24812
0
LINE
8
BLACK
6
CONTINUOUS
10
0.191929
20
1.38012
11
0.191929
21
1.2498
0
LINE
8
BLACK
6
CONTINUOUS
10
0.191929
20
1.2498
11
0.264764
21
1.2498
0
LINE
8
BLACK
6
CONTINUOUS
10
0.264764
20
1.2498
11
0.264764
21
1.38012
0
LINE
8
BLACK
6
CONTINUOUS
10
0.264764
20
1.38012
11
0.191929
21
1.38012
0
LINE
8
BLACK
6
CONTINUOUS
10
0.191929
20
1.5125
11
0.191929
21
1.38219
0
LINE
8
BLACK
6
CONTINUOUS
10
0.191929
20
1.38219
11
0.264764
21
1.38219
0
LINE
8
BLACK
6
CONTINUOUS
10
0.264764
20
1.38219
11
0.264764
21
1.5125
0
LINE
8
BLACK
6
CONTINUOUS
10
0.264764
20
1.5125
11
0.191929
21
1.5125
0
LINE
8
BLACK
6
CONTINUOUS
10
0.402861
20
1.27701
11
0.402572
21
1.2777
0
LINE
8
BLACK
6
CONTINUOUS
10
0.402572
20
1.2777
11
0.402572
21
1.44857
0
LINE
8
BLACK
6
CONTINUOUS
10
0.402572
20
1.44857
11
0.402861
21
1.44926
0
LINE
8
BLACK
6
CONTINUOUS
10
0.402861
20
1.44926
11
0.403557
21
1.44955
0
LINE
8
BLACK
6
CONTINUOUS
10
0.403557
20
1.44955
11
0.537415
21
1.44955
0
LINE
8
BLACK
6
CONTINUOUS
10
0.537415
20
1.44955
11
0.538111
21
1.44926
0
LINE
8
BLACK
6
CONTINUOUS
10
0.538111
20
1.44926
11
0.538399
21
1.44857
0
LINE
8
BLACK
6
CONTINUOUS
10
0.538399
20
1.44857
11
0.538399
21
1.2777
0
LINE
8
BLACK
6
CONTINUOUS
10
0.538399
20
1.2777
11
0.538111
21
1.27701
0
LINE
8
BLACK
6
CONTINUOUS
10
0.538111
20
1.27701
11
0.537415
21
1.27672
0
LINE
8
BLACK
6
CONTINUOUS
10
0.537415
20
1.27672
11
0.403557
21
1.27672
0
LINE
8
BLACK
6
CONTINUOUS
10
0.403557
20
1.27672
11
0.402861
21
1.27701
0
LINE
8
BLACK
6
CONTINUOUS
10
0.404541
20
1.44758
11
0.404541
21
1.27869
0
LINE
8
BLACK
6
CONTINUOUS
10
0.404541
20
1.27869
11
0.536431
21
1.27869
0
LINE
8
BLACK
6
CONTINUOUS
10
0.536431
20
1.27869
11
0.536431
21
1.44758
0
LINE
8
BLACK
6
CONTINUOUS
10
0.536431
20
1.44758
11
0.404541
21
1.44758
0
LINE
8
BLACK
6
CONTINUOUS
10
0.0563906
20
1.34015
11
0.0561024
21
1.34085
0
LINE
8
BLACK
6
CONTINUOUS
10
0.0561024
20
1.34085
11
0.0561024
21
1.47313
0
LINE
8
BLACK
6
CONTINUOUS
10
0.0561024
20
1.47313
11
0.0563906
21
1.47383
0
LINE
8
BLACK
6
CONTINUOUS
10
0.0563906
20
1.47383
11
0.0570866
21
1.47411
0
LINE
8
BLACK
6
CONTINUOUS
10
0.0570866
20
1.47411
11
0.13189
21
1.47411
0
LINE
8
BLACK
6
CONTINUOUS
10
0.13189
20
1.47411
11
0.132586
21
1.47383
0
LINE
8
BLACK
6
CONTINUOUS
10
0.132586
20
1.47383
11
0.132874
21
1.47313
0
LINE
8
BLACK
6
CONTINUOUS
10
0.132874
20
1.47313
11
0.132874
21
1.34085
0
LINE
8
BLACK
6
CONTINUOUS
10
0.132874
20
1.34085
11
0.132586
21
1.34015
0
LINE
8
BLACK
6
CONTINUOUS
10
0.132586
20
1.34015
11
0.13189
21
1.33986
0
LINE
8
BLACK
6
CONTINUOUS
10
0.13189
20
1.33986
11
0.0570866
21
1.33986
0
LINE
8
BLACK
6
CONTINUOUS
10
0.0570866
20
1.33986
11
0.0563906
21
1.34015
0
LINE
8
BLACK
6
CONTINUOUS
10
0.0580709
20
1.47215
11
0.0580709
21
1.34183
0
LINE
8
BLACK
6
CONTINUOUS
10
0.0580709
20
1.34183
11
0.130906
21
1.34183
0
LINE
8
BLACK
6
CONTINUOUS
10
0.130906
20
1.34183
11
0.130906
21
1.47215
0
LINE
8
BLACK
6
CONTINUOUS
10
0.130906
20
1.47215
11
0.0580709
21
1.47215
0
LINE
8
BLACK
6
CONTINUOUS
10
-0.0380976
20
1.34261
11
-0.0383858
21
1.34331
0
LINE
8
BLACK
6
CONTINUOUS
10
-0.0383858
20
1.34331
11
-0.0383858
21
1.47559
0
LINE
8
BLACK
6
CONTINUOUS
10
-0.0383858
20
1.47559
11
-0.0380976
21
1.47629
0
LINE
8
BLACK
6
CONTINUOUS
10
-0.0380976
20
1.47629
11
-0.0374016
21
1.47657
0
LINE
8
BLACK
6
CONTINUOUS
10
-0.0374016
20
1.47657
11
0.0374016
21
1.47657
0
LINE
8
BLACK
6
CONTINUOUS
10
0.0374016
20
1.47657
11
0.0380976
21
1.47629
0
LINE
8
BLACK
6
CONTINUOUS
10
0.0380976
20
1.47629
11
0.0383858
21
1.47559
0
LINE
8
BLACK
6
CONTINUOUS
10
0.0383858
20
1.47559
11
0.0383858
21
1.34331
0
LINE
8
BLACK
6
CONTINUOUS
10
0.0383858
20
1.34331
11
0.0380976
21
1.34261
0
LINE
8
BLACK
6
CONTINUOUS
10
0.0380976
20
1.34261
11
0.0374016
21
1.34232
0
LINE
8
BLACK
6
CONTINUOUS
10
0.0374016
20
1.34232
11
-0.0374016
21
1.34232
0
LINE
8
BLACK
6
CONTINUOUS
10
-0.0374016
20
1.34232
11
-0.0380976
21
1.34261
0
LINE
8
BLACK
6
CONTINUOUS
10
-0.0364173
20
1.47461
11
-0.0364173
21
1.34429
0
LINE
8
BLACK
6
CONTINUOUS
10
-0.0364173
20
1.34429
11
0.0364173
21
1.34429
0
LINE
8
BLACK
6
CONTINUOUS
10
0.0364173
20
1.34429
11
0.0364173
21
1.47461
0
LINE
8
BLACK
6
CONTINUOUS
10
0.0364173
20
1.47461
11
-0.0364173
21
1.47461
0
LINE
8
BLACK
6
CONTINUOUS
10
1.46584
20
1.57342
11
1.46555
21
1.57411
0
LINE
8
BLACK
6
CONTINUOUS
10
1.46555
20
1.57411
11
1.46555
21
1.7064
0
LINE
8
BLACK
6
CONTINUOUS
10
1.46555
20
1.7064
11
1.46584
21
1.70709
0
LINE
8
BLACK
6
CONTINUOUS
10
1.46584
20
1.70709
11
1.46654
21
1.70738
0
LINE
8
BLACK
6
CONTINUOUS
10
1.46654
20
1.70738
11
1.54134
21
1.70738
0
LINE
8
BLACK
6
CONTINUOUS
10
1.54134
20
1.70738
11
1.54203
21
1.70709
0
LINE
8
BLACK
6
CONTINUOUS
10
1.54203
20
1.70709
11
1.54232
21
1.7064
0
LINE
8
BLACK
6
CONTINUOUS
10
1.54232
20
1.7064
11
1.54232
21
1.57411
0
LINE
8
BLACK
6
CONTINUOUS
10
1.54232
20
1.57411
11
1.54203
21
1.57342
0
LINE
8
BLACK
6
CONTINUOUS
10
1.54203
20
1.57342
11
1.54134
21
1.57313
0
LINE
8
BLACK
6
CONTINUOUS
10
1.54134
20
1.57313
11
1.46654
21
1.57313
0
LINE
8
BLACK
6
CONTINUOUS
10
1.46654
20
1.57313
11
1.46584
21
1.57342
0
LINE
8
BLACK
6
CONTINUOUS
10
1.46752
20
1.70541
11
1.46752
21
1.5751
0
LINE
8
BLACK
6
CONTINUOUS
10
1.46752
20
1.5751
11
1.54035
21
1.5751
0
LINE
8
BLACK
6
CONTINUOUS
10
1.54035
20
1.5751
11
1.54035
21
1.70541
0
LINE
8
BLACK
6
CONTINUOUS
10
1.54035
20
1.70541
11
1.46752
21
1.70541
0
LINE
8
BLACK
6
CONTINUOUS
10
1.63513
20
1.57489
11
1.63484
21
1.57559
0
LINE
8
BLACK
6
CONTINUOUS
10
1.63484
20
1.57559
11
1.63484
21
1.70787
0
LINE
8
BLACK
6
CONTINUOUS
10
1.63484
20
1.70787
11
1.63513
21
1.70857
0
LINE
8
BLACK
6
CONTINUOUS
10
1.63513
20
1.70857
11
1.63583
21
1.70886
0
LINE
8
BLACK
6
CONTINUOUS
10
1.63583
20
1.70886
11
1.71063
21
1.70886
0
LINE
8
BLACK
6
CONTINUOUS
10
1.71063
20
1.70886
11
1.71133
21
1.70857
0
LINE
8
BLACK
6
CONTINUOUS
10
1.71133
20
1.70857
11
1.71161
21
1.70787
0
LINE
8
BLACK
6
CONTINUOUS
10
1.71161
20
1.70787
11
1.71161
21
1.57559
0
LINE
8
BLACK
6
CONTINUOUS
10
1.71161
20
1.57559
11
1.71133
21
1.57489
0
LINE
8
BLACK
6
CONTINUOUS
10
1.71133
20
1.57489
11
1.71063
21
1.57461
0
LINE
8
BLACK
6
CONTINUOUS
10
1.71063
20
1.57461
11
1.63583
21
1.57461
0
LINE
8
BLACK
6
CONTINUOUS
10
1.63583
20
1.57461
11
1.63513
21
1.57489
0
LINE
8
BLACK
6
CONTINUOUS
10
1.63681
20
1.70689
11
1.63681
21
1.57657
0
LINE
8
BLACK
6
CONTINUOUS
10
1.63681
20
1.57657
11
1.70965
21
1.57657
0
LINE
8
BLACK
6
CONTINUOUS
10
1.70965
20
1.57657
11
1.70965
21
1.70689
0
LINE
8
BLACK
6
CONTINUOUS
10
1.70965
20
1.70689
11
1.63681
21
1.70689
0
LINE
8
BLACK
6
CONTINUOUS
10
1.46584
20
1.70875
11
1.46555
21
1.70945
0
LINE
8
BLACK
6
CONTINUOUS
10
1.46555
20
1.70945
11
1.46555
21
1.84173
0
LINE
8
BLACK
6
CONTINUOUS
10
1.46555
20
1.84173
11
1.46584
21
1.84243
0
LINE
8
BLACK
6
CONTINUOUS
10
1.46584
20
1.84243
11
1.46654
21
1.84272
0
LINE
8
BLACK
6
CONTINUOUS
10
1.46654
20
1.84272
11
1.54134
21
1.84272
0
LINE
8
BLACK
6
CONTINUOUS
10
1.54134
20
1.84272
11
1.54203
21
1.84243
0
LINE
8
BLACK
6
CONTINUOUS
10
1.54203
20
1.84243
11
1.54232
21
1.84173
0
LINE
8
BLACK
6
CONTINUOUS
10
1.54232
20
1.84173
11
1.54232
21
1.70945
0
LINE
8
BLACK
6
CONTINUOUS
10
1.54232
20
1.70945
11
1.54203
21
1.70875
0
LINE
8
BLACK
6
CONTINUOUS
10
1.54203
20
1.70875
11
1.54134
21
1.70846
0
LINE
8
BLACK
6
CONTINUOUS
10
1.54134
20
1.70846
11
1.46654
21
1.70846
0
LINE
8
BLACK
6
CONTINUOUS
10
1.46654
20
1.70846
11
1.46584
21
1.70875
0
LINE
8
BLACK
6
CONTINUOUS
10
1.46752
20
1.84075
11
1.46752
21
1.71043
0
LINE
8
BLACK
6
CONTINUOUS
10
1.46752
20
1.71043
11
1.54035
21
1.71043
0
LINE
8
BLACK
6
CONTINUOUS
10
1.54035
20
1.71043
11
1.54035
21
1.84075
0
LINE
8
BLACK
6
CONTINUOUS
10
1.54035
20
1.84075
11
1.46752
21
1.84075
0
LINE
8
BLACK
6
CONTINUOUS
10
1.63513
20
1.71023
11
1.63484
21
1.71093
0
LINE
8
BLACK
6
CONTINUOUS
10
1.63484
20
1.71093
11
1.63484
21
1.84321
0
LINE
8
BLACK
6
CONTINUOUS
10
1.63484
20
1.84321
11
1.63513
21
1.8439
0
LINE
8
BLACK
6
CONTINUOUS
10
1.63513
20
1.8439
11
1.63583
21
1.84419
0
LINE
8
BLACK
6
CONTINUOUS
10
1.63583
20
1.84419
11
1.71063
21
1.84419
0
LINE
8
BLACK
6
CONTINUOUS
10
1.71063
20
1.84419
11
1.71133
21
1.8439
0
LINE
8
BLACK
6
CONTINUOUS
10
1.71133
20
1.8439
11
1.71161
21
1.84321
0
LINE
8
BLACK
6
CONTINUOUS
10
1.71161
20
1.84321
11
1.71161
21
1.71093
0
LINE
8
BLACK
6
CONTINUOUS
10
1.71161
20
1.71093
11
1.71133
21
1.71023
0
LINE
8
BLACK
6
CONTINUOUS
10
1.71133
20
1.71023
11
1.71063
21
1.70994
0
LINE
8
BLACK
6
CONTINUOUS
10
1.71063
20
1.70994
11
1.63583
21
1.70994
0
LINE
8
BLACK
6
CONTINUOUS
10
1.63583
20
1.70994
11
1.63513
21
1.71023
0
LINE
8
BLACK
6
CONTINUOUS
10
1.63681
20
1.84222
11
1.63681
21
1.71191
0
LINE
8
BLACK
6
CONTINUOUS
10
1.63681
20
1.71191
11
1.70965
21
1.71191
0
LINE
8
BLACK
6
CONTINUOUS
10
1.70965
20
1.71191
11
1.70965
21
1.84222
0
LINE
8
BLACK
6
CONTINUOUS
10
1.70965
20
1.84222
11
1.63681
21
1.84222
0
LINE
8
BLACK
6
CONTINUOUS
10
2.03199
20
1.91142
11
2.03199
21
1.77756
0
LINE
8
BLACK
6
CONTINUOUS
10
2.03199
20
1.77756
11
2.0317
21
1.77686
0
LINE
8
BLACK
6
CONTINUOUS
10
2.0317
20
1.77686
11
2.031
21
1.77657
0
LINE
8
BLACK
6
CONTINUOUS
10
2.031
20
1.77657
11
1.86959
21
1.77657
0
LINE
8
BLACK
6
CONTINUOUS
10
1.86959
20
1.77657
11
1.86889
21
1.77686
0
LINE
8
BLACK
6
CONTINUOUS
10
1.86889
20
1.77686
11
1.8686
21
1.77756
0
LINE
8
BLACK
6
CONTINUOUS
10
1.8686
20
1.77756
11
1.8686
21
1.8935
0
LINE
8
BLACK
6
CONTINUOUS
10
1.8686
20
1.8935
11
1.86811
21
1.8935
0
LINE
8
BLACK
6
CONTINUOUS
10
1.86811
20
1.8935
11
1.86741
21
1.89379
0
LINE
8
BLACK
6
CONTINUOUS
10
1.86741
20
1.89379
11
1.86713
21
1.89449
0
LINE
8
BLACK
6
CONTINUOUS
10
1.86713
20
1.89449
11
1.86713
21
1.97165
0
LINE
8
BLACK
6
CONTINUOUS
10
1.86713
20
1.97165
11
1.86741
21
1.97235
0
LINE
8
BLACK
6
CONTINUOUS
10
1.86741
20
1.97235
11
1.86811
21
1.97264
0
LINE
8
BLACK
6
CONTINUOUS
10
1.86811
20
1.97264
11
2.00197
21
1.97264
0
LINE
8
BLACK
6
CONTINUOUS
10
2.00197
20
1.97264
11
2.00266
21
1.97235
0
LINE
8
BLACK
6
CONTINUOUS
10
2.00266
20
1.97235
11
2.00295
21
1.97165
0
LINE
8
BLACK
6
CONTINUOUS
10
2.00295
20
1.97165
11
2.00295
21
1.9124
0
LINE
8
BLACK
6
CONTINUOUS
10
2.00295
20
1.9124
11
2.031
21
1.9124
0
LINE
8
BLACK
6
CONTINUOUS
10
2.031
20
1.9124
11
2.0317
21
1.91211
0
LINE
8
BLACK
6
CONTINUOUS
10
2.0317
20
1.91211
11
2.03199
21
1.91142
0
LINE
8
BLACK
6
CONTINUOUS
10
1.87057
20
1.77854
11
2.03002
21
1.77854
0
LINE
8
BLACK
6
CONTINUOUS
10
2.03002
20
1.77854
11
2.03002
21
1.91043
0
LINE
8
BLACK
6
CONTINUOUS
10
2.03002
20
1.91043
11
2.00295
21
1.91043
0
LINE
8
BLACK
6
CONTINUOUS
10
2.00295
20
1.91043
11
2.00295
21
1.89449
0
LINE
8
BLACK
6
CONTINUOUS
10
2.00295
20
1.89449
11
2.00266
21
1.89379
0
LINE
8
BLACK
6
CONTINUOUS
10
2.00266
20
1.89379
11
2.00197
21
1.8935
0
LINE
8
BLACK
6
CONTINUOUS
10
2.00197
20
1.8935
11
1.87057
21
1.8935
0
LINE
8
BLACK
6
CONTINUOUS
10
1.87057
20
1.8935
11
1.87057
21
1.77854
0
LINE
8
BLACK
6
CONTINUOUS
10
1.87057
20
1.91043
11
1.87057
21
1.89547
0
LINE
8
BLACK
6
CONTINUOUS
10
1.87057
20
1.89547
11
2.00098
21
1.89547
0
LINE
8
BLACK
6
CONTINUOUS
10
2.00098
20
1.89547
11
2.00098
21
1.91043
0
LINE
8
BLACK
6
CONTINUOUS
10
2.00098
20
1.91043
11
1.87057
21
1.91043
0
LINE
8
BLACK
6
CONTINUOUS
10
1.86909
20
1.97067
11
1.86909
21
1.9122
0
LINE
8
BLACK
6
CONTINUOUS
10
1.86909
20
1.9122
11
1.86959
21
1.9124
0
LINE
8
BLACK
6
CONTINUOUS
10
1.86959
20
1.9124
11
2.00098
21
1.9124
0
LINE
8
BLACK
6
CONTINUOUS
10
2.00098
20
1.9124
11
2.00098
21
1.97067
0
LINE
8
BLACK
6
CONTINUOUS
10
2.00098
20
1.97067
11
1.86909
21
1.97067
0
LINE
8
BLACK
6
CONTINUOUS
10
1.11151
20
1.80964
11
1.11122
21
1.81033
0
LINE
8
BLACK
6
CONTINUOUS
10
1.11122
20
1.81033
11
1.11122
21
1.94262
0
LINE
8
BLACK
6
CONTINUOUS
10
1.11122
20
1.94262
11
1.11151
21
1.94331
0
LINE
8
BLACK
6
CONTINUOUS
10
1.11151
20
1.94331
11
1.1122
21
1.9436
0
LINE
8
BLACK
6
CONTINUOUS
10
1.1122
20
1.9436
11
1.18701
21
1.9436
0
LINE
8
BLACK
6
CONTINUOUS
10
1.18701
20
1.9436
11
1.1877
21
1.94331
0
LINE
8
BLACK
6
CONTINUOUS
10
1.1877
20
1.94331
11
1.18799
21
1.94262
0
LINE
8
BLACK
6
CONTINUOUS
10
1.18799
20
1.94262
11
1.18799
21
1.81033
0
LINE
8
BLACK
6
CONTINUOUS
10
1.18799
20
1.81033
11
1.1877
21
1.80964
0
LINE
8
BLACK
6
CONTINUOUS
10
1.1877
20
1.80964
11
1.18701
21
1.80935
0
LINE
8
BLACK
6
CONTINUOUS
10
1.18701
20
1.80935
11
1.1122
21
1.80935
0
LINE
8
BLACK
6
CONTINUOUS
10
1.1122
20
1.80935
11
1.11151
21
1.80964
0
LINE
8
BLACK
6
CONTINUOUS
10
1.11319
20
1.94163
11
1.11319
21
1.81132
0
LINE
8
BLACK
6
CONTINUOUS
10
1.11319
20
1.81132
11
1.18602
21
1.81132
0
LINE
8
BLACK
6
CONTINUOUS
10
1.18602
20
1.81132
11
1.18602
21
1.94163
0
LINE
8
BLACK
6
CONTINUOUS
10
1.18602
20
1.94163
11
1.11319
21
1.94163
0
LINE
8
BLACK
6
CONTINUOUS
10
0.603635
20
1.81358
11
0.603346
21
1.81427
0
LINE
8
BLACK
6
CONTINUOUS
10
0.603346
20
1.81427
11
0.603346
21
1.94656
0
LINE
8
BLACK
6
CONTINUOUS
10
0.603346
20
1.94656
11
0.603635
21
1.94725
0
LINE
8
BLACK
6
CONTINUOUS
10
0.603635
20
1.94725
11
0.604331
21
1.94754
0
LINE
8
BLACK
6
CONTINUOUS
10
0.604331
20
1.94754
11
0.679134
21
1.94754
0
LINE
8
BLACK
6
CONTINUOUS
10
0.679134
20
1.94754
11
0.67983
21
1.94725
0
LINE
8
BLACK
6
CONTINUOUS
10
0.67983
20
1.94725
11
0.680118
21
1.94656
0
LINE
8
BLACK
6
CONTINUOUS
10
0.680118
20
1.94656
11
0.680118
21
1.81427
0
LINE
8
BLACK
6
CONTINUOUS
10
0.680118
20
1.81427
11
0.67983
21
1.81358
0
LINE
8
BLACK
6
CONTINUOUS
10
0.67983
20
1.81358
11
0.679134
21
1.81329
0
LINE
8
BLACK
6
CONTINUOUS
10
0.679134
20
1.81329
11
0.604331
21
1.81329
0
LINE
8
BLACK
6
CONTINUOUS
10
0.604331
20
1.81329
11
0.603635
21
1.81358
0
LINE
8
BLACK
6
CONTINUOUS
10
0.605315
20
1.94557
11
0.605315
21
1.81526
0
LINE
8
BLACK
6
CONTINUOUS
10
0.605315
20
1.81526
11
0.67815
21
1.81526
0
LINE
8
BLACK
6
CONTINUOUS
10
0.67815
20
1.81526
11
0.67815
21
1.94557
0
LINE
8
BLACK
6
CONTINUOUS
10
0.67815
20
1.94557
11
0.605315
21
1.94557
0
LINE
8
BLACK
6
CONTINUOUS
10
0.705997
20
1.81358
11
0.705709
21
1.81427
0
LINE
8
BLACK
6
CONTINUOUS
10
0.705709
20
1.81427
11
0.705709
21
1.94656
0
LINE
8
BLACK
6
CONTINUOUS
10
0.705709
20
1.94656
11
0.705997
21
1.94725
0
LINE
8
BLACK
6
CONTINUOUS
10
0.705997
20
1.94725
11
0.706693
21
1.94754
0
LINE
8
BLACK
6
CONTINUOUS
10
0.706693
20
1.94754
11
0.781496
21
1.94754
0
LINE
8
BLACK
6
CONTINUOUS
10
0.781496
20
1.94754
11
0.782192
21
1.94725
0
LINE
8
BLACK
6
CONTINUOUS
10
0.782192
20
1.94725
11
0.78248
21
1.94656
0
LINE
8
BLACK
6
CONTINUOUS
10
0.78248
20
1.94656
11
0.78248
21
1.81427
0
LINE
8
BLACK
6
CONTINUOUS
10
0.78248
20
1.81427
11
0.782192
21
1.81358
0
LINE
8
BLACK
6
CONTINUOUS
10
0.782192
20
1.81358
11
0.781496
21
1.81329
0
LINE
8
BLACK
6
CONTINUOUS
10
0.781496
20
1.81329
11
0.706693
21
1.81329
0
LINE
8
BLACK
6
CONTINUOUS
10
0.706693
20
1.81329
11
0.705997
21
1.81358
0
LINE
8
BLACK
6
CONTINUOUS
10
0.707677
20
1.94557
11
0.707677
21
1.81526
0
LINE
8
BLACK
6
CONTINUOUS
10
0.707677
20
1.81526
11
0.780512
21
1.81526
0
LINE
8
BLACK
6
CONTINUOUS
10
0.780512
20
1.81526
11
0.780512
21
1.94557
0
LINE
8
BLACK
6
CONTINUOUS
10
0.780512
20
1.94557
11
0.707677
21
1.94557
0
LINE
8
BLACK
6
CONTINUOUS
10
0.828044
20
1.81358
11
0.827756
21
1.81427
0
LINE
8
BLACK
6
CONTINUOUS
10
0.827756
20
1.81427
11
0.827756
21
1.94656
0
LINE
8
BLACK
6
CONTINUOUS
10
0.827756
20
1.94656
11
0.828044
21
1.94725
0
LINE
8
BLACK
6
CONTINUOUS
10
0.828044
20
1.94725
11
0.82874
21
1.94754
0
LINE
8
BLACK
6
CONTINUOUS
10
0.82874
20
1.94754
11
0.903543
21
1.94754
0
LINE
8
BLACK
6
CONTINUOUS
10
0.903543
20
1.94754
11
0.904239
21
1.94725
0
LINE
8
BLACK
6
CONTINUOUS
10
0.904239
20
1.94725
11
0.904528
21
1.94656
0
LINE
8
BLACK
6
CONTINUOUS
10
0.904528
20
1.94656
11
0.904528
21
1.81427
0
LINE
8
BLACK
6
CONTINUOUS
10
0.904528
20
1.81427
11
0.904239
21
1.81358
0
LINE
8
BLACK
6
CONTINUOUS
10
0.904239
20
1.81358
11
0.903543
21
1.81329
0
LINE
8
BLACK
6
CONTINUOUS
10
0.903543
20
1.81329
11
0.82874
21
1.81329
0
LINE
8
BLACK
6
CONTINUOUS
10
0.82874
20
1.81329
11
0.828044
21
1.81358
0
LINE
8
BLACK
6
CONTINUOUS
10
0.829724
20
1.94557
11
0.829724
21
1.81526
0
LINE
8
BLACK
6
CONTINUOUS
10
0.829724
20
1.81526
11
0.902559
21
1.81526
0
LINE
8
BLACK
6
CONTINUOUS
10
0.902559
20
1.81526
11
0.902559
21
1.94557
0
LINE
8
BLACK
6
CONTINUOUS
10
0.902559
20
1.94557
11
0.829724
21
1.94557
0
LINE
8
BLACK
6
CONTINUOUS
10
0.954028
20
1.81505
11
0.95374
21
1.81575
0
LINE
8
BLACK
6
CONTINUOUS
10
0.95374
20
1.81575
11
0.95374
21
1.94803
0
LINE
8
BLACK
6
CONTINUOUS
10
0.95374
20
1.94803
11
0.954028
21
1.94873
0
LINE
8
BLACK
6
CONTINUOUS
10
0.954028
20
1.94873
11
0.954724
21
1.94902
0
LINE
8
BLACK
6
CONTINUOUS
10
0.954724
20
1.94902
11
1.02953
21
1.94902
0
LINE
8
BLACK
6
CONTINUOUS
10
1.02953
20
1.94902
11
1.03022
21
1.94873
0
LINE
8
BLACK
6
CONTINUOUS
10
1.03022
20
1.94873
11
1.03051
21
1.94803
0
LINE
8
BLACK
6
CONTINUOUS
10
1.03051
20
1.94803
11
1.03051
21
1.81575
0
LINE
8
BLACK
6
CONTINUOUS
10
1.03051
20
1.81575
11
1.03022
21
1.81505
0
LINE
8
BLACK
6
CONTINUOUS
10
1.03022
20
1.81505
11
1.02953
21
1.81476
0
LINE
8
BLACK
6
CONTINUOUS
10
1.02953
20
1.81476
11
0.954724
21
1.81476
0
LINE
8
BLACK
6
CONTINUOUS
10
0.954724
20
1.81476
11
0.954028
21
1.81505
0
LINE
8
BLACK
6
CONTINUOUS
10
0.955709
20
1.94705
11
0.955709
21
1.81673
0
LINE
8
BLACK
6
CONTINUOUS
10
0.955709
20
1.81673
11
1.02854
21
1.81673
0
LINE
8
BLACK
6
CONTINUOUS
10
1.02854
20
1.81673
11
1.02854
21
1.94705
0
LINE
8
BLACK
6
CONTINUOUS
10
1.02854
20
1.94705
11
0.955709
21
1.94705
0
LINE
8
BLACK
6
CONTINUOUS
10
0.410721
20
1.82293
11
0.410433
21
1.82362
0
LINE
8
BLACK
6
CONTINUOUS
10
0.410433
20
1.82362
11
0.410433
21
1.95591
0
LINE
8
BLACK
6
CONTINUOUS
10
0.410433
20
1.95591
11
0.410721
21
1.9566
0
LINE
8
BLACK
6
CONTINUOUS
10
0.410721
20
1.9566
11
0.411417
21
1.95689
0
LINE
8
BLACK
6
CONTINUOUS
10
0.411417
20
1.95689
11
0.48622
21
1.95689
0
LINE
8
BLACK
6
CONTINUOUS
10
0.48622
20
1.95689
11
0.486916
21
1.9566
0
LINE
8
BLACK
6
CONTINUOUS
10
0.486916
20
1.9566
11
0.487205
21
1.95591
0
LINE
8
BLACK
6
CONTINUOUS
10
0.487205
20
1.95591
11
0.487205
21
1.82362
0
LINE
8
BLACK
6
CONTINUOUS
10
0.487205
20
1.82362
11
0.486916
21
1.82293
0
LINE
8
BLACK
6
CONTINUOUS
10
0.486916
20
1.82293
11
0.48622
21
1.82264
0
LINE
8
BLACK
6
CONTINUOUS
10
0.48622
20
1.82264
11
0.411417
21
1.82264
0
LINE
8
BLACK
6
CONTINUOUS
10
0.411417
20
1.82264
11
0.410721
21
1.82293
0
LINE
8
BLACK
6
CONTINUOUS
10
0.412402
20
1.95492
11
0.412402
21
1.82461
0
LINE
8
BLACK
6
CONTINUOUS
10
0.412402
20
1.82461
11
0.485236
21
1.82461
0
LINE
8
BLACK
6
CONTINUOUS
10
0.485236
20
1.82461
11
0.485236
21
1.95492
0
LINE
8
BLACK
6
CONTINUOUS
10
0.485236
20
1.95492
11
0.412402
21
1.95492
0
LINE
8
BLACK
6
CONTINUOUS
10
0.265052
20
1.82539
11
0.264764
21
1.82608
0
LINE
8
BLACK
6
CONTINUOUS
10
0.264764
20
1.82608
11
0.264764
21
1.95837
0
LINE
8
BLACK
6
CONTINUOUS
10
0.264764
20
1.95837
11
0.265052
21
1.95906
0
LINE
8
BLACK
6
CONTINUOUS
10
0.265052
20
1.95906
11
0.265748
21
1.95935
0
LINE
8
BLACK
6
CONTINUOUS
10
0.265748
20
1.95935
11
0.340551
21
1.95935
0
LINE
8
BLACK
6
CONTINUOUS
10
0.340551
20
1.95935
11
0.341247
21
1.95906
0
LINE
8
BLACK
6
CONTINUOUS
10
0.341247
20
1.95906
11
0.341535
21
1.95837
0
LINE
8
BLACK
6
CONTINUOUS
10
0.341535
20
1.95837
11
0.341535
21
1.82608
0
LINE
8
BLACK
6
CONTINUOUS
10
0.341535
20
1.82608
11
0.341247
21
1.82539
0
LINE
8
BLACK
6
CONTINUOUS
10
0.341247
20
1.82539
11
0.340551
21
1.8251
0
LINE
8
BLACK
6
CONTINUOUS
10
0.340551
20
1.8251
11
0.265748
21
1.8251
0
LINE
8
BLACK
6
CONTINUOUS
10
0.265748
20
1.8251
11
0.265052
21
1.82539
0
LINE
8
BLACK
6
CONTINUOUS
10
0.266732
20
1.95738
11
0.266732
21
1.82707
0
LINE
8
BLACK
6
CONTINUOUS
10
0.266732
20
1.82707
11
0.339567
21
1.82707
0
LINE
8
BLACK
6
CONTINUOUS
10
0.339567
20
1.82707
11
0.339567
21
1.95738
0
LINE
8
BLACK
6
CONTINUOUS
10
0.339567
20
1.95738
11
0.266732
21
1.95738
0
LINE
8
BLACK
6
CONTINUOUS
10
0.7808
20
2.14891
11
0.780512
21
2.14961
0
LINE
8
BLACK
6
CONTINUOUS
10
0.780512
20
2.14961
11
0.780512
21
2.23622
0
LINE
8
BLACK
6
CONTINUOUS
10
0.780512
20
2.23622
11
0.7808
21
2.23692
0
LINE
8
BLACK
6
CONTINUOUS
10
0.7808
20
2.23692
11
0.781496
21
2.2372
0
LINE
8
BLACK
6
CONTINUOUS
10
0.781496
20
2.2372
11
0.990157
21
2.2372
0
LINE
8
BLACK
6
CONTINUOUS
10
0.990157
20
2.2372
11
0.990853
21
2.23692
0
LINE
8
BLACK
6
CONTINUOUS
10
0.990853
20
2.23692
11
0.991142
21
2.23622
0
LINE
8
BLACK
6
CONTINUOUS
10
0.991142
20
2.23622
11
0.991142
21
2.14961
0
LINE
8
BLACK
6
CONTINUOUS
10
0.991142
20
2.14961
11
0.990853
21
2.14891
0
LINE
8
BLACK
6
CONTINUOUS
10
0.990853
20
2.14891
11
0.990157
21
2.14862
0
LINE
8
BLACK
6
CONTINUOUS
10
0.990157
20
2.14862
11
0.781496
21
2.14862
0
LINE
8
BLACK
6
CONTINUOUS
10
0.781496
20
2.14862
11
0.7808
21
2.14891
0
LINE
8
BLACK
6
CONTINUOUS
10
0.78248
20
2.23524
11
0.78248
21
2.15059
0
LINE
8
BLACK
6
CONTINUOUS
10
0.78248
20
2.15059
11
0.989173
21
2.15059
0
LINE
8
BLACK
6
CONTINUOUS
10
0.989173
20
2.15059
11
0.989173
21
2.23524
0
LINE
8
BLACK
6
CONTINUOUS
10
0.989173
20
2.23524
11
0.78248
21
2.23524
0
LINE
8
BLACK
6
CONTINUOUS
10
1.16269
20
2.15216
11
1.1624
21
2.15285
0
LINE
8
BLACK
6
CONTINUOUS
10
1.1624
20
2.15285
11
1.1624
21
2.28514
0
LINE
8
BLACK
6
CONTINUOUS
10
1.1624
20
2.28514
11
1.16269
21
2.28583
0
LINE
8
BLACK
6
CONTINUOUS
10
1.16269
20
2.28583
11
1.16339
21
2.28612
0
LINE
8
BLACK
6
CONTINUOUS
10
1.16339
20
2.28612
11
1.23819
21
2.28612
0
LINE
8
BLACK
6
CONTINUOUS
10
1.23819
20
2.28612
11
1.23888
21
2.28583
0
LINE
8
BLACK
6
CONTINUOUS
10
1.23888
20
2.28583
11
1.23917
21
2.28514
0
LINE
8
BLACK
6
CONTINUOUS
10
1.23917
20
2.28514
11
1.23917
21
2.15285
0
LINE
8
BLACK
6
CONTINUOUS
10
1.23917
20
2.15285
11
1.23888
21
2.15216
0
LINE
8
BLACK
6
CONTINUOUS
10
1.23888
20
2.15216
11
1.23819
21
2.15187
0
LINE
8
BLACK
6
CONTINUOUS
10
1.23819
20
2.15187
11
1.16339
21
2.15187
0
LINE
8
BLACK
6
CONTINUOUS
10
1.16339
20
2.15187
11
1.16269
21
2.15216
0
LINE
8
BLACK
6
CONTINUOUS
10
1.16437
20
2.28415
11
1.16437
21
2.15384
0
LINE
8
BLACK
6
CONTINUOUS
10
1.16437
20
2.15384
11
1.2372
21
2.15384
0
LINE
8
BLACK
6
CONTINUOUS
10
1.2372
20
2.15384
11
1.2372
21
2.28415
0
LINE
8
BLACK
6
CONTINUOUS
10
1.2372
20
2.28415
11
1.16437
21
2.28415
0
LINE
8
BLACK
6
CONTINUOUS
10
1.24143
20
2.15216
11
1.24114
21
2.15285
0
LINE
8
BLACK
6
CONTINUOUS
10
1.24114
20
2.15285
11
1.24114
21
2.28514
0
LINE
8
BLACK
6
CONTINUOUS
10
1.24114
20
2.28514
11
1.24143
21
2.28583
0
LINE
8
BLACK
6
CONTINUOUS
10
1.24143
20
2.28583
11
1.24213
21
2.28612
0
LINE
8
BLACK
6
CONTINUOUS
10
1.24213
20
2.28612
11
1.31693
21
2.28612
0
LINE
8
BLACK
6
CONTINUOUS
10
1.31693
20
2.28612
11
1.31763
21
2.28583
0
LINE
8
BLACK
6
CONTINUOUS
10
1.31763
20
2.28583
11
1.31791
21
2.28514
0
LINE
8
BLACK
6
CONTINUOUS
10
1.31791
20
2.28514
11
1.31791
21
2.15285
0
LINE
8
BLACK
6
CONTINUOUS
10
1.31791
20
2.15285
11
1.31763
21
2.15216
0
LINE
8
BLACK
6
CONTINUOUS
10
1.31763
20
2.15216
11
1.31693
21
2.15187
0
LINE
8
BLACK
6
CONTINUOUS
10
1.31693
20
2.15187
11
1.24213
21
2.15187
0
LINE
8
BLACK
6
CONTINUOUS
10
1.24213
20
2.15187
11
1.24143
21
2.15216
0
LINE
8
BLACK
6
CONTINUOUS
10
1.24311
20
2.28415
11
1.24311
21
2.15384
0
LINE
8
BLACK
6
CONTINUOUS
10
1.24311
20
2.15384
11
1.31594
21
2.15384
0
LINE
8
BLACK
6
CONTINUOUS
10
1.31594
20
2.15384
11
1.31594
21
2.28415
0
LINE
8
BLACK
6
CONTINUOUS
10
1.31594
20
2.28415
11
1.24311
21
2.28415
0
LINE
8
BLACK
6
CONTINUOUS
10
0.168595
20
2.36673
11
0.168307
21
2.36742
0
LINE
8
BLACK
6
CONTINUOUS
10
0.168307
20
2.36742
11
0.168307
21
2.4997
0
LINE
8
BLACK
6
CONTINUOUS
10
0.168307
20
2.4997
11
0.168595
21
2.5004
0
LINE
8
BLACK
6
CONTINUOUS
10
0.168595
20
2.5004
11
0.169291
21
2.50069
0
LINE
8
BLACK
6
CONTINUOUS
10
0.169291
20
2.50069
11
0.244094
21
2.50069
0
LINE
8
BLACK
6
CONTINUOUS
10
0.244094
20
2.50069
11
0.24479
21
2.5004
0
LINE
8
BLACK
6
CONTINUOUS
10
0.24479
20
2.5004
11
0.245079
21
2.4997
0
LINE
8
BLACK
6
CONTINUOUS
10
0.245079
20
2.4997
11
0.245079
21
2.36742
0
LINE
8
BLACK
6
CONTINUOUS
10
0.245079
20
2.36742
11
0.24479
21
2.36673
0
LINE
8
BLACK
6
CONTINUOUS
10
0.24479
20
2.36673
11
0.244094
21
2.36644
0
LINE
8
BLACK
6
CONTINUOUS
10
0.244094
20
2.36644
11
0.169291
21
2.36644
0
LINE
8
BLACK
6
CONTINUOUS
10
0.169291
20
2.36644
11
0.168595
21
2.36673
0
LINE
8
BLACK
6
CONTINUOUS
10
0.170276
20
2.49872
11
0.170276
21
2.36841
0
LINE
8
BLACK
6
CONTINUOUS
10
0.170276
20
2.36841
11
0.24311
21
2.36841
0
LINE
8
BLACK
6
CONTINUOUS
10
0.24311
20
2.36841
11
0.24311
21
2.49872
0
LINE
8
BLACK
6
CONTINUOUS
10
0.24311
20
2.49872
11
0.170276
21
2.49872
  0
ENDSEC
  0
EOF
