  0
SECTION
  2
HEADER
  9
$ANGBASE
  50
0.0
  9
$ANGDIR
  70
1
  9
$MEASUREMENT
  70
0
  0
ENDSEC
  0
SECTION
  2
TABLES
  0
TABLE
  2
LTYPE
  70
4
  0
LTYPE
  5
40F
  2
CONTINUOUS
  70
0
  3
Solid line
  72
65
  73
0
  40
0.0
  0
LTYPE
  5
410
  2
DASHDOT
 70
0
  3
Dash Dot ____ _ ____ _
 72
65
 73
4
 40
2.0
 49
1.25
 49
-0.25
 49
0.25
 49
-0.25
  0
LTYPE
  5
411
  2
DASHED
 70
0
  3
Dashed __ __ __ __ __
 72
65
 73
2
 40
0.75
 49
0.5
 49
-0.25
  0
LTYPE
  5
43B
  2
DOTTED
 70
0
  3
Dotted .  .  .  .
 72
65
 73
2
 40
0.2
 49
0.0
 49
-0.2
  0
ENDTAB
  0
TABLE
  2
STYLE
  70
4
  0
STYLE
  2
KICAD
  70
0
  40
0
  41
1
  42
1
  50
0
  71
0
  3
isocp.shx
  0
STYLE
  2
KICADB
  70
0
  40
0
  41
1
  42
1
  50
0
  71
0
  3
isocp.shx
  0
STYLE
  2
KICADI
  70
0
  40
0
  41
1
  42
1
  50
15
  71
0
  3
isocp.shx
  0
STYLE
  2
KICADBI
  70
0
  40
0
  41
1
  42
1
  50
15
  71
0
  3
isocp.shx
  0
ENDTAB
  0
TABLE
  2
LAYER
  70
1
  0
LAYER
  2
BLACK
  70
0
  62
7
  6
CONTINUOUS
  0
ENDTAB
  0
ENDSEC
  0
SECTION
  2
ENTITIES
0
LINE
8
BLACK
6
CONTINUOUS
10
0.44336
20
0.267044
11
0.460161
21
0.264737
0
LINE
8
BLACK
6
CONTINUOUS
10
0.460161
20
0.264737
11
0.476687
21
0.260926
0
LINE
8
BLACK
6
CONTINUOUS
10
0.476687
20
0.260926
11
0.492802
21
0.255644
0
LINE
8
BLACK
6
CONTINUOUS
10
0.492802
20
0.255644
11
0.508377
21
0.248933
0
LINE
8
BLACK
6
CONTINUOUS
10
0.508377
20
0.248933
11
0.523284
21
0.240847
0
LINE
8
BLACK
6
CONTINUOUS
10
0.523284
20
0.240847
11
0.537403
21
0.231452
0
LINE
8
BLACK
6
CONTINUOUS
10
0.537403
20
0.231452
11
0.550619
21
0.220825
0
LINE
8
BLACK
6
CONTINUOUS
10
0.550619
20
0.220825
11
0.562824
21
0.209051
0
LINE
8
BLACK
6
CONTINUOUS
10
0.562824
20
0.209051
11
0.573921
21
0.196226
0
LINE
8
BLACK
6
CONTINUOUS
10
0.573921
20
0.196226
11
0.583818
21
0.182454
0
LINE
8
BLACK
6
CONTINUOUS
10
0.583818
20
0.182454
11
0.592435
21
0.167847
0
LINE
8
BLACK
6
CONTINUOUS
10
0.592435
20
0.167847
11
0.599702
21
0.152524
0
LINE
8
BLACK
6
CONTINUOUS
10
0.599702
20
0.152524
11
0.605561
21
0.136609
0
LINE
8
BLACK
6
CONTINUOUS
10
0.605561
20
0.136609
11
0.609963
21
0.120232
0
LINE
8
BLACK
6
CONTINUOUS
10
0.609963
20
0.120232
11
0.612873
21
0.103524
0
LINE
8
BLACK
6
CONTINUOUS
10
0.612873
20
0.103524
11
0.614268
21
0.0866228
0
LINE
8
BLACK
6
CONTINUOUS
10
0.614268
20
0.0866228
11
0.614136
21
0.0696643
0
LINE
8
BLACK
6
CONTINUOUS
10
0.614136
20
0.0696643
11
0.612477
21
0.0527866
0
LINE
8
BLACK
6
CONTINUOUS
10
0.612477
20
0.0527866
11
0.609306
21
0.0361266
0
LINE
8
BLACK
6
CONTINUOUS
10
0.609306
20
0.0361266
11
0.604649
21
0.0198197
0
LINE
8
BLACK
6
CONTINUOUS
10
0.604649
20
0.0198197
11
0.598542
21
0.00399823
0
LINE
8
BLACK
6
CONTINUOUS
10
0.598542
20
0.00399823
11
0.591037
21
-0.0112094
0
LINE
8
BLACK
6
CONTINUOUS
10
0.591037
20
-0.0112094
11
0.582192
21
-0.0256796
0
LINE
8
BLACK
6
CONTINUOUS
10
0.582192
20
-0.0256796
11
0.572082
21
-0.0392951
0
LINE
8
BLACK
6
CONTINUOUS
10
0.572082
20
-0.0392951
11
0.560786
21
-0.0519452
0
LINE
8
BLACK
6
CONTINUOUS
10
0.560786
20
-0.0519452
11
0.548398
21
-0.0635272
0
LINE
8
BLACK
6
CONTINUOUS
10
0.548398
20
-0.0635272
11
0.535433
21
-0.0736239
0
LINE
8
BLACK
6
CONTINUOUS
10
0.535433
20
-0.0736239
11
0.535433
21
-0.166451
0
LINE
8
BLACK
6
CONTINUOUS
10
0.535433
20
-0.166451
11
0.535145
21
-0.167147
0
LINE
8
BLACK
6
CONTINUOUS
10
0.535145
20
-0.167147
11
0.534449
21
-0.167436
0
LINE
8
BLACK
6
CONTINUOUS
10
0.534449
20
-0.167436
11
0.317913
21
-0.167436
0
LINE
8
BLACK
6
CONTINUOUS
10
0.317913
20
-0.167436
11
0.317217
21
-0.167147
0
LINE
8
BLACK
6
CONTINUOUS
10
0.317217
20
-0.167147
11
0.316929
21
-0.166451
0
LINE
8
BLACK
6
CONTINUOUS
10
0.316929
20
-0.166451
11
0.316929
21
-0.0736502
0
LINE
8
BLACK
6
CONTINUOUS
10
0.316929
20
-0.0736502
11
0.303603
21
-0.0632179
0
LINE
8
BLACK
6
CONTINUOUS
10
0.303603
20
-0.0632179
11
0.291244
21
-0.0516046
0
LINE
8
BLACK
6
CONTINUOUS
10
0.291244
20
-0.0516046
11
0.279981
21
-0.038926
0
LINE
8
BLACK
6
CONTINUOUS
10
0.279981
20
-0.038926
11
0.269904
21
-0.025285
0
LINE
8
BLACK
6
CONTINUOUS
10
0.269904
20
-0.025285
11
0.261097
21
-0.0107925
0
LINE
8
BLACK
6
CONTINUOUS
10
0.261097
20
-0.0107925
11
0.253629
21
0.00443406
0
LINE
8
BLACK
6
CONTINUOUS
10
0.253629
20
0.00443406
11
0.247563
21
0.0202709
0
LINE
8
BLACK
6
CONTINUOUS
10
0.247563
20
0.0202709
11
0.242947
21
0.0365896
0
LINE
8
BLACK
6
CONTINUOUS
10
0.242947
20
0.0365896
11
0.239818
21
0.0532575
0
LINE
8
BLACK
6
CONTINUOUS
10
0.239818
20
0.0532575
11
0.238202
21
0.0701394
0
LINE
8
BLACK
6
CONTINUOUS
10
0.238202
20
0.0701394
11
0.238113
21
0.0870981
0
LINE
8
BLACK
6
CONTINUOUS
10
0.238113
20
0.0870981
11
0.23955
21
0.103996
0
LINE
8
BLACK
6
CONTINUOUS
10
0.23955
20
0.103996
11
0.242502
21
0.120696
0
LINE
8
BLACK
6
CONTINUOUS
10
0.242502
20
0.120696
11
0.246946
21
0.137063
0
LINE
8
BLACK
6
CONTINUOUS
10
0.246946
20
0.137063
11
0.252845
21
0.152963
0
LINE
8
BLACK
6
CONTINUOUS
10
0.252845
20
0.152963
11
0.260151
21
0.168267
0
LINE
8
BLACK
6
CONTINUOUS
10
0.260151
20
0.168267
11
0.268805
21
0.182852
0
LINE
8
BLACK
6
CONTINUOUS
10
0.268805
20
0.182852
11
0.278737
21
0.196599
0
LINE
8
BLACK
6
CONTINUOUS
10
0.278737
20
0.196599
11
0.289865
21
0.209396
0
LINE
8
BLACK
6
CONTINUOUS
10
0.289865
20
0.209396
11
0.302101
21
0.221139
0
LINE
8
BLACK
6
CONTINUOUS
10
0.302101
20
0.221139
11
0.315344
21
0.231733
0
LINE
8
BLACK
6
CONTINUOUS
10
0.315344
20
0.231733
11
0.329486
21
0.241092
0
LINE
8
BLACK
6
CONTINUOUS
10
0.329486
20
0.241092
11
0.344414
21
0.24914
0
LINE
8
BLACK
6
CONTINUOUS
10
0.344414
20
0.24914
11
0.360005
21
0.255812
0
LINE
8
BLACK
6
CONTINUOUS
10
0.360005
20
0.255812
11
0.376134
21
0.261054
0
LINE
8
BLACK
6
CONTINUOUS
10
0.376134
20
0.261054
11
0.392669
21
0.264822
0
LINE
8
BLACK
6
CONTINUOUS
10
0.392669
20
0.264822
11
0.409476
21
0.267087
0
LINE
8
BLACK
6
CONTINUOUS
10
0.409476
20
0.267087
11
0.426419
21
0.267829
0
LINE
8
BLACK
6
CONTINUOUS
10
0.426419
20
0.267829
11
0.44336
21
0.267044
0
LINE
8
BLACK
6
CONTINUOUS
10
0.401285
20
0.264379
11
0.384755
21
0.261388
0
LINE
8
BLACK
6
CONTINUOUS
10
0.384755
20
0.261388
11
0.368561
21
0.256921
0
LINE
8
BLACK
6
CONTINUOUS
10
0.368561
20
0.256921
11
0.352835
21
0.251015
0
LINE
8
BLACK
6
CONTINUOUS
10
0.352835
20
0.251015
11
0.337704
21
0.243717
0
LINE
8
BLACK
6
CONTINUOUS
10
0.337704
20
0.243717
11
0.323292
21
0.235087
0
LINE
8
BLACK
6
CONTINUOUS
10
0.323292
20
0.235087
11
0.309715
21
0.225195
0
LINE
8
BLACK
6
CONTINUOUS
10
0.309715
20
0.225195
11
0.297084
21
0.21412
0
LINE
8
BLACK
6
CONTINUOUS
10
0.297084
20
0.21412
11
0.2855
21
0.201954
0
LINE
8
BLACK
6
CONTINUOUS
10
0.2855
20
0.201954
11
0.275059
21
0.188794
0
LINE
8
BLACK
6
CONTINUOUS
10
0.275059
20
0.188794
11
0.265845
21
0.174748
0
LINE
8
BLACK
6
CONTINUOUS
10
0.265845
20
0.174748
11
0.257932
21
0.15993
0
LINE
8
BLACK
6
CONTINUOUS
10
0.257932
20
0.15993
11
0.251386
21
0.14446
0
LINE
8
BLACK
6
CONTINUOUS
10
0.251386
20
0.14446
11
0.246258
21
0.128463
0
LINE
8
BLACK
6
CONTINUOUS
10
0.246258
20
0.128463
11
0.242591
21
0.112069
0
LINE
8
BLACK
6
CONTINUOUS
10
0.242591
20
0.112069
11
0.240415
21
0.0954124
0
LINE
8
BLACK
6
CONTINUOUS
10
0.240415
20
0.0954124
11
0.239747
21
0.0786271
0
LINE
8
BLACK
6
CONTINUOUS
10
0.239747
20
0.0786271
11
0.240592
21
0.0618499
0
LINE
8
BLACK
6
CONTINUOUS
10
0.240592
20
0.0618499
11
0.242945
21
0.0452168
0
LINE
8
BLACK
6
CONTINUOUS
10
0.242945
20
0.0452168
11
0.246784
21
0.028863
0
LINE
8
BLACK
6
CONTINUOUS
10
0.246784
20
0.028863
11
0.252081
21
0.0129211
0
LINE
8
BLACK
6
CONTINUOUS
10
0.252081
20
0.0129211
11
0.25879
21
-0.00247925
0
LINE
8
BLACK
6
CONTINUOUS
10
0.25879
20
-0.00247925
11
0.266859
21
-0.0172131
0
LINE
8
BLACK
6
CONTINUOUS
10
0.266859
20
-0.0172131
11
0.276221
21
-0.031161
0
LINE
8
BLACK
6
CONTINUOUS
10
0.276221
20
-0.031161
11
0.286801
21
-0.0442095
0
LINE
8
BLACK
6
CONTINUOUS
10
0.286801
20
-0.0442095
11
0.298512
21
-0.0562528
0
LINE
8
BLACK
6
CONTINUOUS
10
0.298512
20
-0.0562528
11
0.311259
21
-0.067193
0
LINE
8
BLACK
6
CONTINUOUS
10
0.311259
20
-0.067193
11
0.318099
21
-0.0720685
0
LINE
8
BLACK
6
CONTINUOUS
10
0.318099
20
-0.0720685
11
0.318099
21
-0.0720685
0
LINE
8
BLACK
6
CONTINUOUS
10
0.318099
20
-0.0720685
11
0.318279
21
-0.0723112
0
LINE
8
BLACK
6
CONTINUOUS
10
0.318279
20
-0.0723112
11
0.318609
21
-0.0724482
0
LINE
8
BLACK
6
CONTINUOUS
10
0.318609
20
-0.0724482
11
0.318898
21
-0.0731442
0
LINE
8
BLACK
6
CONTINUOUS
10
0.318898
20
-0.0731442
11
0.318898
21
-0.165467
0
LINE
8
BLACK
6
CONTINUOUS
10
0.318898
20
-0.165467
11
0.533465
21
-0.165467
0
LINE
8
BLACK
6
CONTINUOUS
10
0.533465
20
-0.165467
11
0.533465
21
-0.0731442
0
LINE
8
BLACK
6
CONTINUOUS
10
0.533465
20
-0.0731442
11
0.533514
21
-0.0730246
0
LINE
8
BLACK
6
CONTINUOUS
10
0.533514
20
-0.0730246
11
0.533516
21
-0.0728291
0
LINE
8
BLACK
6
CONTINUOUS
10
0.533516
20
-0.0728291
11
0.533694
21
-0.0725909
0
LINE
8
BLACK
6
CONTINUOUS
10
0.533694
20
-0.0725909
11
0.533753
21
-0.0724482
0
LINE
8
BLACK
6
CONTINUOUS
10
0.533753
20
-0.0724482
11
0.533821
21
-0.0724199
0
LINE
8
BLACK
6
CONTINUOUS
10
0.533821
20
-0.0724199
11
0.53388
21
-0.0723412
0
LINE
8
BLACK
6
CONTINUOUS
10
0.53388
20
-0.0723412
11
0.53388
21
-0.0723411
0
LINE
8
BLACK
6
CONTINUOUS
10
0.53388
20
-0.0723411
11
0.540731
21
-0.067483
0
LINE
8
BLACK
6
CONTINUOUS
10
0.540731
20
-0.067483
11
0.553507
21
-0.056575
0
LINE
8
BLACK
6
CONTINUOUS
10
0.553507
20
-0.056575
11
0.565248
21
-0.0445614
0
LINE
8
BLACK
6
CONTINUOUS
10
0.565248
20
-0.0445614
11
0.575861
21
-0.0315396
0
LINE
8
BLACK
6
CONTINUOUS
10
0.575861
20
-0.0315396
11
0.585258
21
-0.0176155
0
LINE
8
BLACK
6
CONTINUOUS
10
0.585258
20
-0.0176155
11
0.593364
21
-0.00290201
0
LINE
8
BLACK
6
CONTINUOUS
10
0.593364
20
-0.00290201
11
0.600113
21
0.0124814
0
LINE
8
BLACK
6
CONTINUOUS
10
0.600113
20
0.0124814
11
0.605449
21
0.0284098
0
LINE
8
BLACK
6
CONTINUOUS
10
0.605449
20
0.0284098
11
0.60933
21
0.0447538
0
LINE
8
BLACK
6
CONTINUOUS
10
0.60933
20
0.0447538
11
0.611724
21
0.0613809
0
LINE
8
BLACK
6
CONTINUOUS
10
0.611724
20
0.0613809
11
0.612612
21
0.078156
0
LINE
8
BLACK
6
CONTINUOUS
10
0.612612
20
0.078156
11
0.611986
21
0.0949429
0
LINE
8
BLACK
6
CONTINUOUS
10
0.611986
20
0.0949429
11
0.609852
21
0.111605
0
LINE
8
BLACK
6
CONTINUOUS
10
0.609852
20
0.111605
11
0.606227
21
0.128008
0
LINE
8
BLACK
6
CONTINUOUS
10
0.606227
20
0.128008
11
0.60114
21
0.144018
0
LINE
8
BLACK
6
CONTINUOUS
10
0.60114
20
0.144018
11
0.594632
21
0.159505
0
LINE
8
BLACK
6
CONTINUOUS
10
0.594632
20
0.159505
11
0.586757
21
0.174343
0
LINE
8
BLACK
6
CONTINUOUS
10
0.586757
20
0.174343
11
0.577578
21
0.188412
0
LINE
8
BLACK
6
CONTINUOUS
10
0.577578
20
0.188412
11
0.56717
21
0.201598
0
LINE
8
BLACK
6
CONTINUOUS
10
0.56717
20
0.201598
11
0.555618
21
0.213794
0
LINE
8
BLACK
6
CONTINUOUS
10
0.555618
20
0.213794
11
0.543015
21
0.2249
0
LINE
8
BLACK
6
CONTINUOUS
10
0.543015
20
0.2249
11
0.529463
21
0.234826
0
LINE
8
BLACK
6
CONTINUOUS
10
0.529463
20
0.234826
11
0.515072
21
0.243493
0
LINE
8
BLACK
6
CONTINUOUS
10
0.515072
20
0.243493
11
0.49996
21
0.250829
0
LINE
8
BLACK
6
CONTINUOUS
10
0.49996
20
0.250829
11
0.484249
21
0.256775
0
LINE
8
BLACK
6
CONTINUOUS
10
0.484249
20
0.256775
11
0.468067
21
0.261282
0
LINE
8
BLACK
6
CONTINUOUS
10
0.468067
20
0.261282
11
0.451544
21
0.264315
0
LINE
8
BLACK
6
CONTINUOUS
10
0.451544
20
0.264315
11
0.434816
21
0.265848
0
LINE
8
BLACK
6
CONTINUOUS
10
0.434816
20
0.265848
11
0.418017
21
0.26587
0
LINE
8
BLACK
6
CONTINUOUS
10
0.418017
20
0.26587
11
0.401285
21
0.264379
0
LINE
8
BLACK
6
CONTINUOUS
10
0.758858
20
0.0188976
11
0.759554
21
0.0186094
0
LINE
8
BLACK
6
CONTINUOUS
10
0.759554
20
0.0186094
11
0.759843
21
0.0179134
0
LINE
8
BLACK
6
CONTINUOUS
10
0.759843
20
0.0179134
11
0.759843
21
-0.11437
0
LINE
8
BLACK
6
CONTINUOUS
10
0.759843
20
-0.11437
11
0.759554
21
-0.115066
0
LINE
8
BLACK
6
CONTINUOUS
10
0.759554
20
-0.115066
11
0.758858
21
-0.115354
0
LINE
8
BLACK
6
CONTINUOUS
10
0.758858
20
-0.115354
11
0.684055
21
-0.115354
0
LINE
8
BLACK
6
CONTINUOUS
10
0.684055
20
-0.115354
11
0.683359
21
-0.115066
0
LINE
8
BLACK
6
CONTINUOUS
10
0.683359
20
-0.115066
11
0.683071
21
-0.11437
0
LINE
8
BLACK
6
CONTINUOUS
10
0.683071
20
-0.11437
11
0.683071
21
0.0179134
0
LINE
8
BLACK
6
CONTINUOUS
10
0.683071
20
0.0179134
11
0.683359
21
0.0186094
0
LINE
8
BLACK
6
CONTINUOUS
10
0.683359
20
0.0186094
11
0.684055
21
0.0188976
0
LINE
8
BLACK
6
CONTINUOUS
10
0.684055
20
0.0188976
11
0.758858
21
0.0188976
0
LINE
8
BLACK
6
CONTINUOUS
10
0.685039
20
0.0169291
11
0.685039
21
-0.113386
0
LINE
8
BLACK
6
CONTINUOUS
10
0.685039
20
-0.113386
11
0.757874
21
-0.113386
0
LINE
8
BLACK
6
CONTINUOUS
10
0.757874
20
-0.113386
11
0.757874
21
0.0169291
0
LINE
8
BLACK
6
CONTINUOUS
10
0.757874
20
0.0169291
11
0.685039
21
0.0169291
0
LINE
8
BLACK
6
CONTINUOUS
10
0.847441
20
0.0188976
11
0.848137
21
0.0186094
0
LINE
8
BLACK
6
CONTINUOUS
10
0.848137
20
0.0186094
11
0.848425
21
0.0179134
0
LINE
8
BLACK
6
CONTINUOUS
10
0.848425
20
0.0179134
11
0.848425
21
-0.11437
0
LINE
8
BLACK
6
CONTINUOUS
10
0.848425
20
-0.11437
11
0.848137
21
-0.115066
0
LINE
8
BLACK
6
CONTINUOUS
10
0.848137
20
-0.115066
11
0.847441
21
-0.115354
0
LINE
8
BLACK
6
CONTINUOUS
10
0.847441
20
-0.115354
11
0.772638
21
-0.115354
0
LINE
8
BLACK
6
CONTINUOUS
10
0.772638
20
-0.115354
11
0.771942
21
-0.115066
0
LINE
8
BLACK
6
CONTINUOUS
10
0.771942
20
-0.115066
11
0.771654
21
-0.11437
0
LINE
8
BLACK
6
CONTINUOUS
10
0.771654
20
-0.11437
11
0.771654
21
0.0179134
0
LINE
8
BLACK
6
CONTINUOUS
10
0.771654
20
0.0179134
11
0.771942
21
0.0186094
0
LINE
8
BLACK
6
CONTINUOUS
10
0.771942
20
0.0186094
11
0.772638
21
0.0188976
0
LINE
8
BLACK
6
CONTINUOUS
10
0.772638
20
0.0188976
11
0.847441
21
0.0188976
0
LINE
8
BLACK
6
CONTINUOUS
10
0.773622
20
0.0169291
11
0.773622
21
-0.113386
0
LINE
8
BLACK
6
CONTINUOUS
10
0.773622
20
-0.113386
11
0.846457
21
-0.113386
0
LINE
8
BLACK
6
CONTINUOUS
10
0.846457
20
-0.113386
11
0.846457
21
0.0169291
0
LINE
8
BLACK
6
CONTINUOUS
10
0.846457
20
0.0169291
11
0.773622
21
0.0169291
0
LINE
8
BLACK
6
CONTINUOUS
10
0.857283
20
0.323622
11
0.857979
21
0.323334
0
LINE
8
BLACK
6
CONTINUOUS
10
0.857979
20
0.323334
11
0.858268
21
0.322638
0
LINE
8
BLACK
6
CONTINUOUS
10
0.858268
20
0.322638
11
0.858268
21
0.171457
0
LINE
8
BLACK
6
CONTINUOUS
10
0.858268
20
0.171457
11
0.857979
21
0.170761
0
LINE
8
BLACK
6
CONTINUOUS
10
0.857979
20
0.170761
11
0.857283
21
0.170472
0
LINE
8
BLACK
6
CONTINUOUS
10
0.857283
20
0.170472
11
0.723425
21
0.170472
0
LINE
8
BLACK
6
CONTINUOUS
10
0.723425
20
0.170472
11
0.722729
21
0.170761
0
LINE
8
BLACK
6
CONTINUOUS
10
0.722729
20
0.170761
11
0.722441
21
0.171457
0
LINE
8
BLACK
6
CONTINUOUS
10
0.722441
20
0.171457
11
0.722441
21
0.322638
0
LINE
8
BLACK
6
CONTINUOUS
10
0.722441
20
0.322638
11
0.722729
21
0.323334
0
LINE
8
BLACK
6
CONTINUOUS
10
0.722729
20
0.323334
11
0.723425
21
0.323622
0
LINE
8
BLACK
6
CONTINUOUS
10
0.723425
20
0.323622
11
0.857283
21
0.323622
0
LINE
8
BLACK
6
CONTINUOUS
10
0.724409
20
0.321654
11
0.724409
21
0.172441
0
LINE
8
BLACK
6
CONTINUOUS
10
0.724409
20
0.172441
11
0.856299
21
0.172441
0
LINE
8
BLACK
6
CONTINUOUS
10
0.856299
20
0.172441
11
0.856299
21
0.321654
0
LINE
8
BLACK
6
CONTINUOUS
10
0.856299
20
0.321654
11
0.724409
21
0.321654
0
LINE
8
BLACK
6
CONTINUOUS
10
1.02805
20
0.323622
11
1.02875
21
0.323334
0
LINE
8
BLACK
6
CONTINUOUS
10
1.02875
20
0.323334
11
1.02904
21
0.322638
0
LINE
8
BLACK
6
CONTINUOUS
10
1.02904
20
0.322638
11
1.02904
21
0.171457
0
LINE
8
BLACK
6
CONTINUOUS
10
1.02904
20
0.171457
11
1.02875
21
0.170761
0
LINE
8
BLACK
6
CONTINUOUS
10
1.02875
20
0.170761
11
1.02805
21
0.170472
0
LINE
8
BLACK
6
CONTINUOUS
10
1.02805
20
0.170472
11
0.894193
21
0.170472
0
LINE
8
BLACK
6
CONTINUOUS
10
0.894193
20
0.170472
11
0.893497
21
0.170761
0
LINE
8
BLACK
6
CONTINUOUS
10
0.893497
20
0.170761
11
0.893209
21
0.171457
0
LINE
8
BLACK
6
CONTINUOUS
10
0.893209
20
0.171457
11
0.893209
21
0.322638
0
LINE
8
BLACK
6
CONTINUOUS
10
0.893209
20
0.322638
11
0.893497
21
0.323334
0
LINE
8
BLACK
6
CONTINUOUS
10
0.893497
20
0.323334
11
0.894193
21
0.323622
0
LINE
8
BLACK
6
CONTINUOUS
10
0.894193
20
0.323622
11
1.02805
21
0.323622
0
LINE
8
BLACK
6
CONTINUOUS
10
0.895177
20
0.321654
11
0.895177
21
0.172441
0
LINE
8
BLACK
6
CONTINUOUS
10
0.895177
20
0.172441
11
1.02707
21
0.172441
0
LINE
8
BLACK
6
CONTINUOUS
10
1.02707
20
0.172441
11
1.02707
21
0.321654
0
LINE
8
BLACK
6
CONTINUOUS
10
1.02707
20
0.321654
11
0.895177
21
0.321654
0
LINE
8
BLACK
6
CONTINUOUS
10
1.20177
20
0.323622
11
1.20247
21
0.323334
0
LINE
8
BLACK
6
CONTINUOUS
10
1.20247
20
0.323334
11
1.20276
21
0.322638
0
LINE
8
BLACK
6
CONTINUOUS
10
1.20276
20
0.322638
11
1.20276
21
0.171457
0
LINE
8
BLACK
6
CONTINUOUS
10
1.20276
20
0.171457
11
1.20247
21
0.170761
0
LINE
8
BLACK
6
CONTINUOUS
10
1.20247
20
0.170761
11
1.20177
21
0.170472
0
LINE
8
BLACK
6
CONTINUOUS
10
1.20177
20
0.170472
11
1.06791
21
0.170472
0
LINE
8
BLACK
6
CONTINUOUS
10
1.06791
20
0.170472
11
1.06722
21
0.170761
0
LINE
8
BLACK
6
CONTINUOUS
10
1.06722
20
0.170761
11
1.06693
21
0.171457
0
LINE
8
BLACK
6
CONTINUOUS
10
1.06693
20
0.171457
11
1.06693
21
0.322638
0
LINE
8
BLACK
6
CONTINUOUS
10
1.06693
20
0.322638
11
1.06722
21
0.323334
0
LINE
8
BLACK
6
CONTINUOUS
10
1.06722
20
0.323334
11
1.06791
21
0.323622
0
LINE
8
BLACK
6
CONTINUOUS
10
1.06791
20
0.323622
11
1.20177
21
0.323622
0
LINE
8
BLACK
6
CONTINUOUS
10
1.0689
20
0.321654
11
1.0689
21
0.172441
0
LINE
8
BLACK
6
CONTINUOUS
10
1.0689
20
0.172441
11
1.20079
21
0.172441
0
LINE
8
BLACK
6
CONTINUOUS
10
1.20079
20
0.172441
11
1.20079
21
0.321654
0
LINE
8
BLACK
6
CONTINUOUS
10
1.20079
20
0.321654
11
1.0689
21
0.321654
0
LINE
8
BLACK
6
CONTINUOUS
10
0.982283
20
0.543012
11
0.982979
21
0.542724
0
LINE
8
BLACK
6
CONTINUOUS
10
0.982979
20
0.542724
11
0.983268
21
0.542028
0
LINE
8
BLACK
6
CONTINUOUS
10
0.983268
20
0.542028
11
0.983268
21
0.409744
0
LINE
8
BLACK
6
CONTINUOUS
10
0.983268
20
0.409744
11
0.982979
21
0.409048
0
LINE
8
BLACK
6
CONTINUOUS
10
0.982979
20
0.409048
11
0.982283
21
0.40876
0
LINE
8
BLACK
6
CONTINUOUS
10
0.982283
20
0.40876
11
0.90748
21
0.40876
0
LINE
8
BLACK
6
CONTINUOUS
10
0.90748
20
0.40876
11
0.906784
21
0.409048
0
LINE
8
BLACK
6
CONTINUOUS
10
0.906784
20
0.409048
11
0.906496
21
0.409744
0
LINE
8
BLACK
6
CONTINUOUS
10
0.906496
20
0.409744
11
0.906496
21
0.542028
0
LINE
8
BLACK
6
CONTINUOUS
10
0.906496
20
0.542028
11
0.906784
21
0.542724
0
LINE
8
BLACK
6
CONTINUOUS
10
0.906784
20
0.542724
11
0.90748
21
0.543012
0
LINE
8
BLACK
6
CONTINUOUS
10
0.90748
20
0.543012
11
0.982283
21
0.543012
0
LINE
8
BLACK
6
CONTINUOUS
10
0.908465
20
0.541043
11
0.908465
21
0.410728
0
LINE
8
BLACK
6
CONTINUOUS
10
0.908465
20
0.410728
11
0.981299
21
0.410728
0
LINE
8
BLACK
6
CONTINUOUS
10
0.981299
20
0.410728
11
0.981299
21
0.541043
0
LINE
8
BLACK
6
CONTINUOUS
10
0.981299
20
0.541043
11
0.908465
21
0.541043
0
LINE
8
BLACK
6
CONTINUOUS
10
1.11614
20
0.543504
11
1.11684
21
0.543216
0
LINE
8
BLACK
6
CONTINUOUS
10
1.11684
20
0.543216
11
1.11713
21
0.54252
0
LINE
8
BLACK
6
CONTINUOUS
10
1.11713
20
0.54252
11
1.11713
21
0.410236
0
LINE
8
BLACK
6
CONTINUOUS
10
1.11713
20
0.410236
11
1.11684
21
0.40954
0
LINE
8
BLACK
6
CONTINUOUS
10
1.11684
20
0.40954
11
1.11614
21
0.409252
0
LINE
8
BLACK
6
CONTINUOUS
10
1.11614
20
0.409252
11
1.04134
21
0.409252
0
LINE
8
BLACK
6
CONTINUOUS
10
1.04134
20
0.409252
11
1.04064
21
0.40954
0
LINE
8
BLACK
6
CONTINUOUS
10
1.04064
20
0.40954
11
1.04035
21
0.410236
0
LINE
8
BLACK
6
CONTINUOUS
10
1.04035
20
0.410236
11
1.04035
21
0.54252
0
LINE
8
BLACK
6
CONTINUOUS
10
1.04035
20
0.54252
11
1.04064
21
0.543216
0
LINE
8
BLACK
6
CONTINUOUS
10
1.04064
20
0.543216
11
1.04134
21
0.543504
0
LINE
8
BLACK
6
CONTINUOUS
10
1.04134
20
0.543504
11
1.11614
21
0.543504
0
LINE
8
BLACK
6
CONTINUOUS
10
1.04232
20
0.541535
11
1.04232
21
0.41122
0
LINE
8
BLACK
6
CONTINUOUS
10
1.04232
20
0.41122
11
1.11516
21
0.41122
0
LINE
8
BLACK
6
CONTINUOUS
10
1.11516
20
0.41122
11
1.11516
21
0.541535
0
LINE
8
BLACK
6
CONTINUOUS
10
1.11516
20
0.541535
11
1.04232
21
0.541535
0
LINE
8
BLACK
6
CONTINUOUS
10
0.853051
20
0.492126
11
0.853747
21
0.491838
0
LINE
8
BLACK
6
CONTINUOUS
10
0.853747
20
0.491838
11
0.854035
21
0.491142
0
LINE
8
BLACK
6
CONTINUOUS
10
0.854035
20
0.491142
11
0.854035
21
0.416339
0
LINE
8
BLACK
6
CONTINUOUS
10
0.854035
20
0.416339
11
0.853747
21
0.415643
0
LINE
8
BLACK
6
CONTINUOUS
10
0.853747
20
0.415643
11
0.853051
21
0.415354
0
LINE
8
BLACK
6
CONTINUOUS
10
0.853051
20
0.415354
11
0.720768
21
0.415354
0
LINE
8
BLACK
6
CONTINUOUS
10
0.720768
20
0.415354
11
0.720072
21
0.415643
0
LINE
8
BLACK
6
CONTINUOUS
10
0.720072
20
0.415643
11
0.719783
21
0.416339
0
LINE
8
BLACK
6
CONTINUOUS
10
0.719783
20
0.416339
11
0.719783
21
0.491142
0
LINE
8
BLACK
6
CONTINUOUS
10
0.719783
20
0.491142
11
0.720072
21
0.491838
0
LINE
8
BLACK
6
CONTINUOUS
10
0.720072
20
0.491838
11
0.720768
21
0.492126
0
LINE
8
BLACK
6
CONTINUOUS
10
0.720768
20
0.492126
11
0.853051
21
0.492126
0
LINE
8
BLACK
6
CONTINUOUS
10
0.721752
20
0.490157
11
0.721752
21
0.417323
0
LINE
8
BLACK
6
CONTINUOUS
10
0.721752
20
0.417323
11
0.852067
21
0.417323
0
LINE
8
BLACK
6
CONTINUOUS
10
0.852067
20
0.417323
11
0.852067
21
0.490157
0
LINE
8
BLACK
6
CONTINUOUS
10
0.852067
20
0.490157
11
0.721752
21
0.490157
0
LINE
8
BLACK
6
CONTINUOUS
10
0.88878
20
0.681102
11
0.889476
21
0.680814
0
LINE
8
BLACK
6
CONTINUOUS
10
0.889476
20
0.680814
11
0.889764
21
0.680118
0
LINE
8
BLACK
6
CONTINUOUS
10
0.889764
20
0.680118
11
0.889764
21
0.542323
0
LINE
8
BLACK
6
CONTINUOUS
10
0.889764
20
0.542323
11
0.889476
21
0.541627
0
LINE
8
BLACK
6
CONTINUOUS
10
0.889476
20
0.541627
11
0.88878
21
0.541339
0
LINE
8
BLACK
6
CONTINUOUS
10
0.88878
20
0.541339
11
0.613189
21
0.541339
0
LINE
8
BLACK
6
CONTINUOUS
10
0.613189
20
0.541339
11
0.612493
21
0.541627
0
LINE
8
BLACK
6
CONTINUOUS
10
0.612493
20
0.541627
11
0.612205
21
0.542323
0
LINE
8
BLACK
6
CONTINUOUS
10
0.612205
20
0.542323
11
0.612205
21
0.542323
0
LINE
8
BLACK
6
CONTINUOUS
10
0.612205
20
0.542323
11
0.612205
21
0.680118
0
LINE
8
BLACK
6
CONTINUOUS
10
0.612205
20
0.680118
11
0.612493
21
0.680814
0
LINE
8
BLACK
6
CONTINUOUS
10
0.612493
20
0.680814
11
0.613189
21
0.681102
0
LINE
8
BLACK
6
CONTINUOUS
10
0.613189
20
0.681102
11
0.88878
21
0.681102
0
LINE
8
BLACK
6
CONTINUOUS
10
0.614173
20
0.679134
11
0.614173
21
0.543307
0
LINE
8
BLACK
6
CONTINUOUS
10
0.614173
20
0.543307
11
0.887795
21
0.543307
0
LINE
8
BLACK
6
CONTINUOUS
10
0.887795
20
0.543307
11
0.887795
21
0.679134
0
LINE
8
BLACK
6
CONTINUOUS
10
0.887795
20
0.679134
11
0.614173
21
0.679134
0
LINE
8
BLACK
6
CONTINUOUS
10
0.810236
20
0.762795
11
0.810932
21
0.762507
0
LINE
8
BLACK
6
CONTINUOUS
10
0.810932
20
0.762507
11
0.81122
21
0.761811
0
LINE
8
BLACK
6
CONTINUOUS
10
0.81122
20
0.761811
11
0.81122
21
0.687008
0
LINE
8
BLACK
6
CONTINUOUS
10
0.81122
20
0.687008
11
0.810932
21
0.686312
0
LINE
8
BLACK
6
CONTINUOUS
10
0.810932
20
0.686312
11
0.810236
21
0.686024
0
LINE
8
BLACK
6
CONTINUOUS
10
0.810236
20
0.686024
11
0.677953
21
0.686024
0
LINE
8
BLACK
6
CONTINUOUS
10
0.677953
20
0.686024
11
0.677257
21
0.686312
0
LINE
8
BLACK
6
CONTINUOUS
10
0.677257
20
0.686312
11
0.676969
21
0.687008
0
LINE
8
BLACK
6
CONTINUOUS
10
0.676969
20
0.687008
11
0.676969
21
0.687008
0
LINE
8
BLACK
6
CONTINUOUS
10
0.676969
20
0.687008
11
0.676969
21
0.761811
0
LINE
8
BLACK
6
CONTINUOUS
10
0.676969
20
0.761811
11
0.677257
21
0.762507
0
LINE
8
BLACK
6
CONTINUOUS
10
0.677257
20
0.762507
11
0.677953
21
0.762795
0
LINE
8
BLACK
6
CONTINUOUS
10
0.677953
20
0.762795
11
0.810236
21
0.762795
0
LINE
8
BLACK
6
CONTINUOUS
10
0.678937
20
0.760827
11
0.678937
21
0.687992
0
LINE
8
BLACK
6
CONTINUOUS
10
0.678937
20
0.687992
11
0.809252
21
0.687992
0
LINE
8
BLACK
6
CONTINUOUS
10
0.809252
20
0.687992
11
0.809252
21
0.760827
0
LINE
8
BLACK
6
CONTINUOUS
10
0.809252
20
0.760827
11
0.678937
21
0.760827
0
LINE
8
BLACK
6
CONTINUOUS
10
0.555118
20
1.25886
11
0.555814
21
1.25857
0
LINE
8
BLACK
6
CONTINUOUS
10
0.555814
20
1.25857
11
0.556102
21
1.25787
0
LINE
8
BLACK
6
CONTINUOUS
10
0.556102
20
1.25787
11
0.556102
21
1.00197
0
LINE
8
BLACK
6
CONTINUOUS
10
0.556102
20
1.00197
11
0.555814
21
1.00127
0
LINE
8
BLACK
6
CONTINUOUS
10
0.555814
20
1.00127
11
0.555118
21
1.00098
0
LINE
8
BLACK
6
CONTINUOUS
10
0.555118
20
1.00098
11
0.279528
21
1.00098
0
LINE
8
BLACK
6
CONTINUOUS
10
0.279528
20
1.00098
11
0.278832
21
1.00127
0
LINE
8
BLACK
6
CONTINUOUS
10
0.278832
20
1.00127
11
0.278543
21
1.00197
0
LINE
8
BLACK
6
CONTINUOUS
10
0.278543
20
1.00197
11
0.278543
21
1.00197
0
LINE
8
BLACK
6
CONTINUOUS
10
0.278543
20
1.00197
11
0.278543
21
1.25787
0
LINE
8
BLACK
6
CONTINUOUS
10
0.278543
20
1.25787
11
0.278832
21
1.25857
0
LINE
8
BLACK
6
CONTINUOUS
10
0.278832
20
1.25857
11
0.279528
21
1.25886
0
LINE
8
BLACK
6
CONTINUOUS
10
0.279528
20
1.25886
11
0.555118
21
1.25886
0
LINE
8
BLACK
6
CONTINUOUS
10
0.280512
20
1.25689
11
0.280512
21
1.00295
0
LINE
8
BLACK
6
CONTINUOUS
10
0.280512
20
1.00295
11
0.554134
21
1.00295
0
LINE
8
BLACK
6
CONTINUOUS
10
0.554134
20
1.00295
11
0.554134
21
1.25689
0
LINE
8
BLACK
6
CONTINUOUS
10
0.554134
20
1.25689
11
0.280512
21
1.25689
0
LINE
8
BLACK
6
CONTINUOUS
10
0.187008
20
1.33563
11
0.187704
21
1.33534
0
LINE
8
BLACK
6
CONTINUOUS
10
0.187704
20
1.33534
11
0.187992
21
1.33465
0
LINE
8
BLACK
6
CONTINUOUS
10
0.187992
20
1.33465
11
0.187992
21
1.05906
0
LINE
8
BLACK
6
CONTINUOUS
10
0.187992
20
1.05906
11
0.187704
21
1.05836
0
LINE
8
BLACK
6
CONTINUOUS
10
0.187704
20
1.05836
11
0.187008
21
1.05807
0
LINE
8
BLACK
6
CONTINUOUS
10
0.187008
20
1.05807
11
0.0492126
21
1.05807
0
LINE
8
BLACK
6
CONTINUOUS
10
0.0492126
20
1.05807
11
0.0485166
21
1.05836
0
LINE
8
BLACK
6
CONTINUOUS
10
0.0485166
20
1.05836
11
0.0482283
21
1.05906
0
LINE
8
BLACK
6
CONTINUOUS
10
0.0482283
20
1.05906
11
0.0482283
21
1.33465
0
LINE
8
BLACK
6
CONTINUOUS
10
0.0482283
20
1.33465
11
0.0485166
21
1.33534
0
LINE
8
BLACK
6
CONTINUOUS
10
0.0485166
20
1.33534
11
0.0492126
21
1.33563
0
LINE
8
BLACK
6
CONTINUOUS
10
0.0492126
20
1.33563
11
0.187008
21
1.33563
0
LINE
8
BLACK
6
CONTINUOUS
10
0.0501969
20
1.33366
11
0.0501969
21
1.06004
0
LINE
8
BLACK
6
CONTINUOUS
10
0.0501969
20
1.06004
11
0.186024
21
1.06004
0
LINE
8
BLACK
6
CONTINUOUS
10
0.186024
20
1.06004
11
0.186024
21
1.33366
0
LINE
8
BLACK
6
CONTINUOUS
10
0.186024
20
1.33366
11
0.0501969
21
1.33366
0
LINE
8
BLACK
6
CONTINUOUS
10
0.647638
20
1.25758
11
0.648334
21
1.25729
0
LINE
8
BLACK
6
CONTINUOUS
10
0.648334
20
1.25729
11
0.648622
21
1.25659
0
LINE
8
BLACK
6
CONTINUOUS
10
0.648622
20
1.25659
11
0.648622
21
1.12431
0
LINE
8
BLACK
6
CONTINUOUS
10
0.648622
20
1.12431
11
0.648334
21
1.12362
0
LINE
8
BLACK
6
CONTINUOUS
10
0.648334
20
1.12362
11
0.647638
21
1.12333
0
LINE
8
BLACK
6
CONTINUOUS
10
0.647638
20
1.12333
11
0.572835
21
1.12333
0
LINE
8
BLACK
6
CONTINUOUS
10
0.572835
20
1.12333
11
0.572139
21
1.12362
0
LINE
8
BLACK
6
CONTINUOUS
10
0.572139
20
1.12362
11
0.57185
21
1.12431
0
LINE
8
BLACK
6
CONTINUOUS
10
0.57185
20
1.12431
11
0.57185
21
1.25659
0
LINE
8
BLACK
6
CONTINUOUS
10
0.57185
20
1.25659
11
0.572139
21
1.25729
0
LINE
8
BLACK
6
CONTINUOUS
10
0.572139
20
1.25729
11
0.572835
21
1.25758
0
LINE
8
BLACK
6
CONTINUOUS
10
0.572835
20
1.25758
11
0.647638
21
1.25758
0
LINE
8
BLACK
6
CONTINUOUS
10
0.573819
20
1.25561
11
0.573819
21
1.1253
0
LINE
8
BLACK
6
CONTINUOUS
10
0.573819
20
1.1253
11
0.646654
21
1.1253
0
LINE
8
BLACK
6
CONTINUOUS
10
0.646654
20
1.1253
11
0.646654
21
1.25561
0
LINE
8
BLACK
6
CONTINUOUS
10
0.646654
20
1.25561
11
0.573819
21
1.25561
0
LINE
8
BLACK
6
CONTINUOUS
10
0.0374016
20
1.33632
11
0.0380976
21
1.33603
0
LINE
8
BLACK
6
CONTINUOUS
10
0.0380976
20
1.33603
11
0.0383858
21
1.33533
0
LINE
8
BLACK
6
CONTINUOUS
10
0.0383858
20
1.33533
11
0.0383858
21
1.20305
0
LINE
8
BLACK
6
CONTINUOUS
10
0.0383858
20
1.20305
11
0.0380976
21
1.20236
0
LINE
8
BLACK
6
CONTINUOUS
10
0.0380976
20
1.20236
11
0.0374016
21
1.20207
0
LINE
8
BLACK
6
CONTINUOUS
10
0.0374016
20
1.20207
11
-0.0374016
21
1.20207
0
LINE
8
BLACK
6
CONTINUOUS
10
-0.0374016
20
1.20207
11
-0.0380976
21
1.20236
0
LINE
8
BLACK
6
CONTINUOUS
10
-0.0380976
20
1.20236
11
-0.0383858
21
1.20305
0
LINE
8
BLACK
6
CONTINUOUS
10
-0.0383858
20
1.20305
11
-0.0383858
21
1.33533
0
LINE
8
BLACK
6
CONTINUOUS
10
-0.0383858
20
1.33533
11
-0.0380976
21
1.33603
0
LINE
8
BLACK
6
CONTINUOUS
10
-0.0380976
20
1.33603
11
-0.0374016
21
1.33632
0
LINE
8
BLACK
6
CONTINUOUS
10
-0.0374016
20
1.33632
11
0.0374016
21
1.33632
0
LINE
8
BLACK
6
CONTINUOUS
10
-0.0364173
20
1.33435
11
-0.0364173
21
1.20404
0
LINE
8
BLACK
6
CONTINUOUS
10
-0.0364173
20
1.20404
11
0.0364173
21
1.20404
0
LINE
8
BLACK
6
CONTINUOUS
10
0.0364173
20
1.20404
11
0.0364173
21
1.33435
0
LINE
8
BLACK
6
CONTINUOUS
10
0.0364173
20
1.33435
11
-0.0364173
21
1.33435
0
LINE
8
BLACK
6
CONTINUOUS
10
0.265748
20
1.51447
11
0.266444
21
1.51418
0
LINE
8
BLACK
6
CONTINUOUS
10
0.266444
20
1.51418
11
0.266732
21
1.51348
0
LINE
8
BLACK
6
CONTINUOUS
10
0.266732
20
1.51348
11
0.266732
21
1.3812
0
LINE
8
BLACK
6
CONTINUOUS
10
0.266732
20
1.3812
11
0.266712
21
1.38115
0
LINE
8
BLACK
6
CONTINUOUS
10
0.266712
20
1.38115
11
0.266732
21
1.3811
0
LINE
8
BLACK
6
CONTINUOUS
10
0.266732
20
1.3811
11
0.266732
21
1.24882
0
LINE
8
BLACK
6
CONTINUOUS
10
0.266732
20
1.24882
11
0.266444
21
1.24812
0
LINE
8
BLACK
6
CONTINUOUS
10
0.266444
20
1.24812
11
0.265748
21
1.24783
0
LINE
8
BLACK
6
CONTINUOUS
10
0.265748
20
1.24783
11
0.190945
21
1.24783
0
LINE
8
BLACK
6
CONTINUOUS
10
0.190945
20
1.24783
11
0.190249
21
1.24812
0
LINE
8
BLACK
6
CONTINUOUS
10
0.190249
20
1.24812
11
0.189961
21
1.24882
0
LINE
8
BLACK
6
CONTINUOUS
10
0.189961
20
1.24882
11
0.189961
21
1.3811
0
LINE
8
BLACK
6
CONTINUOUS
10
0.189961
20
1.3811
11
0.189981
21
1.38115
0
LINE
8
BLACK
6
CONTINUOUS
10
0.189981
20
1.38115
11
0.189961
21
1.3812
0
LINE
8
BLACK
6
CONTINUOUS
10
0.189961
20
1.3812
11
0.189961
21
1.51348
0
LINE
8
BLACK
6
CONTINUOUS
10
0.189961
20
1.51348
11
0.190249
21
1.51418
0
LINE
8
BLACK
6
CONTINUOUS
10
0.190249
20
1.51418
11
0.190945
21
1.51447
0
LINE
8
BLACK
6
CONTINUOUS
10
0.190945
20
1.51447
11
0.265748
21
1.51447
0
LINE
8
BLACK
6
CONTINUOUS
10
0.191929
20
1.38012
11
0.191929
21
1.2498
0
LINE
8
BLACK
6
CONTINUOUS
10
0.191929
20
1.2498
11
0.264764
21
1.2498
0
LINE
8
BLACK
6
CONTINUOUS
10
0.264764
20
1.2498
11
0.264764
21
1.38012
0
LINE
8
BLACK
6
CONTINUOUS
10
0.264764
20
1.38012
11
0.191929
21
1.38012
0
LINE
8
BLACK
6
CONTINUOUS
10
0.191929
20
1.5125
11
0.191929
21
1.38219
0
LINE
8
BLACK
6
CONTINUOUS
10
0.191929
20
1.38219
11
0.264764
21
1.38219
0
LINE
8
BLACK
6
CONTINUOUS
10
0.264764
20
1.38219
11
0.264764
21
1.5125
0
LINE
8
BLACK
6
CONTINUOUS
10
0.264764
20
1.5125
11
0.191929
21
1.5125
0
LINE
8
BLACK
6
CONTINUOUS
10
0.537415
20
1.44955
11
0.538111
21
1.44926
0
LINE
8
BLACK
6
CONTINUOUS
10
0.538111
20
1.44926
11
0.538399
21
1.44857
0
LINE
8
BLACK
6
CONTINUOUS
10
0.538399
20
1.44857
11
0.538399
21
1.2777
0
LINE
8
BLACK
6
CONTINUOUS
10
0.538399
20
1.2777
11
0.538111
21
1.27701
0
LINE
8
BLACK
6
CONTINUOUS
10
0.538111
20
1.27701
11
0.537415
21
1.27672
0
LINE
8
BLACK
6
CONTINUOUS
10
0.537415
20
1.27672
11
0.403557
21
1.27672
0
LINE
8
BLACK
6
CONTINUOUS
10
0.403557
20
1.27672
11
0.402861
21
1.27701
0
LINE
8
BLACK
6
CONTINUOUS
10
0.402861
20
1.27701
11
0.402572
21
1.2777
0
LINE
8
BLACK
6
CONTINUOUS
10
0.402572
20
1.2777
11
0.402572
21
1.2777
0
LINE
8
BLACK
6
CONTINUOUS
10
0.402572
20
1.2777
11
0.402572
21
1.44857
0
LINE
8
BLACK
6
CONTINUOUS
10
0.402572
20
1.44857
11
0.402861
21
1.44926
0
LINE
8
BLACK
6
CONTINUOUS
10
0.402861
20
1.44926
11
0.403557
21
1.44955
0
LINE
8
BLACK
6
CONTINUOUS
10
0.403557
20
1.44955
11
0.537415
21
1.44955
0
LINE
8
BLACK
6
CONTINUOUS
10
0.404541
20
1.44758
11
0.404541
21
1.27869
0
LINE
8
BLACK
6
CONTINUOUS
10
0.404541
20
1.27869
11
0.536431
21
1.27869
0
LINE
8
BLACK
6
CONTINUOUS
10
0.536431
20
1.27869
11
0.536431
21
1.44758
0
LINE
8
BLACK
6
CONTINUOUS
10
0.536431
20
1.44758
11
0.404541
21
1.44758
0
LINE
8
BLACK
6
CONTINUOUS
10
1.29843
20
1.46949
11
1.29912
21
1.4692
0
LINE
8
BLACK
6
CONTINUOUS
10
1.29912
20
1.4692
11
1.29941
21
1.4685
0
LINE
8
BLACK
6
CONTINUOUS
10
1.29941
20
1.4685
11
1.29941
21
1.33465
0
LINE
8
BLACK
6
CONTINUOUS
10
1.29941
20
1.33465
11
1.29912
21
1.33395
0
LINE
8
BLACK
6
CONTINUOUS
10
1.29912
20
1.33395
11
1.29843
21
1.33366
0
LINE
8
BLACK
6
CONTINUOUS
10
1.29843
20
1.33366
11
1.22126
21
1.33366
0
LINE
8
BLACK
6
CONTINUOUS
10
1.22126
20
1.33366
11
1.22056
21
1.33395
0
LINE
8
BLACK
6
CONTINUOUS
10
1.22056
20
1.33395
11
1.22028
21
1.33465
0
LINE
8
BLACK
6
CONTINUOUS
10
1.22028
20
1.33465
11
1.22028
21
1.33465
0
LINE
8
BLACK
6
CONTINUOUS
10
1.22028
20
1.33465
11
1.22028
21
1.4685
0
LINE
8
BLACK
6
CONTINUOUS
10
1.22028
20
1.4685
11
1.22056
21
1.4692
0
LINE
8
BLACK
6
CONTINUOUS
10
1.22056
20
1.4692
11
1.22126
21
1.46949
0
LINE
8
BLACK
6
CONTINUOUS
10
1.22126
20
1.46949
11
1.29843
21
1.46949
0
LINE
8
BLACK
6
CONTINUOUS
10
1.22224
20
1.46752
11
1.22224
21
1.33563
0
LINE
8
BLACK
6
CONTINUOUS
10
1.22224
20
1.33563
11
1.29744
21
1.33563
0
LINE
8
BLACK
6
CONTINUOUS
10
1.29744
20
1.33563
11
1.29744
21
1.46752
0
LINE
8
BLACK
6
CONTINUOUS
10
1.29744
20
1.46752
11
1.22224
21
1.46752
0
LINE
8
BLACK
6
CONTINUOUS
10
0.13189
20
1.47411
11
0.132586
21
1.47383
0
LINE
8
BLACK
6
CONTINUOUS
10
0.132586
20
1.47383
11
0.132874
21
1.47313
0
LINE
8
BLACK
6
CONTINUOUS
10
0.132874
20
1.47313
11
0.132874
21
1.34085
0
LINE
8
BLACK
6
CONTINUOUS
10
0.132874
20
1.34085
11
0.132586
21
1.34015
0
LINE
8
BLACK
6
CONTINUOUS
10
0.132586
20
1.34015
11
0.13189
21
1.33986
0
LINE
8
BLACK
6
CONTINUOUS
10
0.13189
20
1.33986
11
0.0570866
21
1.33986
0
LINE
8
BLACK
6
CONTINUOUS
10
0.0570866
20
1.33986
11
0.0563906
21
1.34015
0
LINE
8
BLACK
6
CONTINUOUS
10
0.0563906
20
1.34015
11
0.0561024
21
1.34085
0
LINE
8
BLACK
6
CONTINUOUS
10
0.0561024
20
1.34085
11
0.0561024
21
1.47313
0
LINE
8
BLACK
6
CONTINUOUS
10
0.0561024
20
1.47313
11
0.0563906
21
1.47383
0
LINE
8
BLACK
6
CONTINUOUS
10
0.0563906
20
1.47383
11
0.0570866
21
1.47411
0
LINE
8
BLACK
6
CONTINUOUS
10
0.0570866
20
1.47411
11
0.13189
21
1.47411
0
LINE
8
BLACK
6
CONTINUOUS
10
0.0580709
20
1.47215
11
0.0580709
21
1.34183
0
LINE
8
BLACK
6
CONTINUOUS
10
0.0580709
20
1.34183
11
0.130906
21
1.34183
0
LINE
8
BLACK
6
CONTINUOUS
10
0.130906
20
1.34183
11
0.130906
21
1.47215
0
LINE
8
BLACK
6
CONTINUOUS
10
0.130906
20
1.47215
11
0.0580709
21
1.47215
0
LINE
8
BLACK
6
CONTINUOUS
10
0.0374016
20
1.47657
11
0.0380976
21
1.47629
0
LINE
8
BLACK
6
CONTINUOUS
10
0.0380976
20
1.47629
11
0.0383858
21
1.47559
0
LINE
8
BLACK
6
CONTINUOUS
10
0.0383858
20
1.47559
11
0.0383858
21
1.34331
0
LINE
8
BLACK
6
CONTINUOUS
10
0.0383858
20
1.34331
11
0.0380976
21
1.34261
0
LINE
8
BLACK
6
CONTINUOUS
10
0.0380976
20
1.34261
11
0.0374016
21
1.34232
0
LINE
8
BLACK
6
CONTINUOUS
10
0.0374016
20
1.34232
11
-0.0374016
21
1.34232
0
LINE
8
BLACK
6
CONTINUOUS
10
-0.0374016
20
1.34232
11
-0.0380976
21
1.34261
0
LINE
8
BLACK
6
CONTINUOUS
10
-0.0380976
20
1.34261
11
-0.0383858
21
1.34331
0
LINE
8
BLACK
6
CONTINUOUS
10
-0.0383858
20
1.34331
11
-0.0383858
21
1.47559
0
LINE
8
BLACK
6
CONTINUOUS
10
-0.0383858
20
1.47559
11
-0.0380976
21
1.47629
0
LINE
8
BLACK
6
CONTINUOUS
10
-0.0380976
20
1.47629
11
-0.0374016
21
1.47657
0
LINE
8
BLACK
6
CONTINUOUS
10
-0.0374016
20
1.47657
11
0.0374016
21
1.47657
0
LINE
8
BLACK
6
CONTINUOUS
10
-0.0364173
20
1.47461
11
-0.0364173
21
1.34429
0
LINE
8
BLACK
6
CONTINUOUS
10
-0.0364173
20
1.34429
11
0.0364173
21
1.34429
0
LINE
8
BLACK
6
CONTINUOUS
10
0.0364173
20
1.34429
11
0.0364173
21
1.47461
0
LINE
8
BLACK
6
CONTINUOUS
10
0.0364173
20
1.47461
11
-0.0364173
21
1.47461
0
LINE
8
BLACK
6
CONTINUOUS
10
1.48868
20
1.60531
11
1.48938
21
1.60503
0
LINE
8
BLACK
6
CONTINUOUS
10
1.48938
20
1.60503
11
1.48967
21
1.60433
0
LINE
8
BLACK
6
CONTINUOUS
10
1.48967
20
1.60433
11
1.48967
21
1.47047
0
LINE
8
BLACK
6
CONTINUOUS
10
1.48967
20
1.47047
11
1.48938
21
1.46978
0
LINE
8
BLACK
6
CONTINUOUS
10
1.48938
20
1.46978
11
1.48868
21
1.46949
0
LINE
8
BLACK
6
CONTINUOUS
10
1.48868
20
1.46949
11
1.32726
21
1.46949
0
LINE
8
BLACK
6
CONTINUOUS
10
1.32726
20
1.46949
11
1.32657
21
1.46978
0
LINE
8
BLACK
6
CONTINUOUS
10
1.32657
20
1.46978
11
1.32628
21
1.47047
0
LINE
8
BLACK
6
CONTINUOUS
10
1.32628
20
1.47047
11
1.32628
21
1.60433
0
LINE
8
BLACK
6
CONTINUOUS
10
1.32628
20
1.60433
11
1.32657
21
1.60503
0
LINE
8
BLACK
6
CONTINUOUS
10
1.32657
20
1.60503
11
1.32726
21
1.60531
0
LINE
8
BLACK
6
CONTINUOUS
10
1.32726
20
1.60531
11
1.48868
21
1.60531
0
LINE
8
BLACK
6
CONTINUOUS
10
1.32825
20
1.60335
11
1.32825
21
1.47146
0
LINE
8
BLACK
6
CONTINUOUS
10
1.32825
20
1.47146
11
1.4877
21
1.47146
0
LINE
8
BLACK
6
CONTINUOUS
10
1.4877
20
1.47146
11
1.4877
21
1.60335
0
LINE
8
BLACK
6
CONTINUOUS
10
1.4877
20
1.60335
11
1.32825
21
1.60335
0
LINE
8
BLACK
6
CONTINUOUS
10
1.29843
20
1.61516
11
1.29912
21
1.61487
0
LINE
8
BLACK
6
CONTINUOUS
10
1.29912
20
1.61487
11
1.29941
21
1.61417
0
LINE
8
BLACK
6
CONTINUOUS
10
1.29941
20
1.61417
11
1.29941
21
1.48031
0
LINE
8
BLACK
6
CONTINUOUS
10
1.29941
20
1.48031
11
1.29912
21
1.47962
0
LINE
8
BLACK
6
CONTINUOUS
10
1.29912
20
1.47962
11
1.29843
21
1.47933
0
LINE
8
BLACK
6
CONTINUOUS
10
1.29843
20
1.47933
11
1.22126
21
1.47933
0
LINE
8
BLACK
6
CONTINUOUS
10
1.22126
20
1.47933
11
1.22056
21
1.47962
0
LINE
8
BLACK
6
CONTINUOUS
10
1.22056
20
1.47962
11
1.22028
21
1.48031
0
LINE
8
BLACK
6
CONTINUOUS
10
1.22028
20
1.48031
11
1.22028
21
1.48032
0
LINE
8
BLACK
6
CONTINUOUS
10
1.22028
20
1.48032
11
1.22028
21
1.61417
0
LINE
8
BLACK
6
CONTINUOUS
10
1.22028
20
1.61417
11
1.22056
21
1.61487
0
LINE
8
BLACK
6
CONTINUOUS
10
1.22056
20
1.61487
11
1.22126
21
1.61516
0
LINE
8
BLACK
6
CONTINUOUS
10
1.22126
20
1.61516
11
1.29843
21
1.61516
0
LINE
8
BLACK
6
CONTINUOUS
10
1.22224
20
1.61319
11
1.22224
21
1.4813
0
LINE
8
BLACK
6
CONTINUOUS
10
1.22224
20
1.4813
11
1.29744
21
1.4813
0
LINE
8
BLACK
6
CONTINUOUS
10
1.29744
20
1.4813
11
1.29744
21
1.61319
0
LINE
8
BLACK
6
CONTINUOUS
10
1.29744
20
1.61319
11
1.22224
21
1.61319
0
LINE
8
BLACK
6
CONTINUOUS
10
1.65157
20
1.62618
11
1.65227
21
1.62589
0
LINE
8
BLACK
6
CONTINUOUS
10
1.65227
20
1.62589
11
1.65256
21
1.6252
0
LINE
8
BLACK
6
CONTINUOUS
10
1.65256
20
1.6252
11
1.65256
21
1.54803
0
LINE
8
BLACK
6
CONTINUOUS
10
1.65256
20
1.54803
11
1.65227
21
1.54734
0
LINE
8
BLACK
6
CONTINUOUS
10
1.65227
20
1.54734
11
1.65157
21
1.54705
0
LINE
8
BLACK
6
CONTINUOUS
10
1.65157
20
1.54705
11
1.51772
21
1.54705
0
LINE
8
BLACK
6
CONTINUOUS
10
1.51772
20
1.54705
11
1.51702
21
1.54734
0
LINE
8
BLACK
6
CONTINUOUS
10
1.51702
20
1.54734
11
1.51673
21
1.54803
0
LINE
8
BLACK
6
CONTINUOUS
10
1.51673
20
1.54803
11
1.51673
21
1.6252
0
LINE
8
BLACK
6
CONTINUOUS
10
1.51673
20
1.6252
11
1.51702
21
1.62589
0
LINE
8
BLACK
6
CONTINUOUS
10
1.51702
20
1.62589
11
1.51772
21
1.62618
0
LINE
8
BLACK
6
CONTINUOUS
10
1.51772
20
1.62618
11
1.65157
21
1.62618
0
LINE
8
BLACK
6
CONTINUOUS
10
1.5187
20
1.62421
11
1.5187
21
1.54902
0
LINE
8
BLACK
6
CONTINUOUS
10
1.5187
20
1.54902
11
1.65059
21
1.54902
0
LINE
8
BLACK
6
CONTINUOUS
10
1.65059
20
1.54902
11
1.65059
21
1.62421
0
LINE
8
BLACK
6
CONTINUOUS
10
1.65059
20
1.62421
11
1.5187
21
1.62421
0
LINE
8
BLACK
6
CONTINUOUS
10
0.666339
20
1.93354
11
0.667035
21
1.93326
0
LINE
8
BLACK
6
CONTINUOUS
10
0.667035
20
1.93326
11
0.667323
21
1.93256
0
LINE
8
BLACK
6
CONTINUOUS
10
0.667323
20
1.93256
11
0.667323
21
1.6235
0
LINE
8
BLACK
6
CONTINUOUS
10
0.667323
20
1.6235
11
0.667035
21
1.62281
0
LINE
8
BLACK
6
CONTINUOUS
10
0.667035
20
1.62281
11
0.666339
21
1.62252
0
LINE
8
BLACK
6
CONTINUOUS
10
0.666339
20
1.62252
11
0.445866
21
1.62252
0
LINE
8
BLACK
6
CONTINUOUS
10
0.445866
20
1.62252
11
0.44517
21
1.62281
0
LINE
8
BLACK
6
CONTINUOUS
10
0.44517
20
1.62281
11
0.444882
21
1.6235
0
LINE
8
BLACK
6
CONTINUOUS
10
0.444882
20
1.6235
11
0.444882
21
1.93256
0
LINE
8
BLACK
6
CONTINUOUS
10
0.444882
20
1.93256
11
0.44517
21
1.93326
0
LINE
8
BLACK
6
CONTINUOUS
10
0.44517
20
1.93326
11
0.445866
21
1.93354
0
LINE
8
BLACK
6
CONTINUOUS
10
0.445866
20
1.93354
11
0.666339
21
1.93354
0
LINE
8
BLACK
6
CONTINUOUS
10
0.44685
20
1.93157
11
0.44685
21
1.62449
0
LINE
8
BLACK
6
CONTINUOUS
10
0.44685
20
1.62449
11
0.665354
21
1.62449
0
LINE
8
BLACK
6
CONTINUOUS
10
0.665354
20
1.62449
11
0.665354
21
1.93157
0
LINE
8
BLACK
6
CONTINUOUS
10
0.665354
20
1.93157
11
0.44685
21
1.93157
0
LINE
8
BLACK
6
CONTINUOUS
10
1.65157
20
1.7128
11
1.65227
21
1.71251
0
LINE
8
BLACK
6
CONTINUOUS
10
1.65227
20
1.71251
11
1.65256
21
1.71181
0
LINE
8
BLACK
6
CONTINUOUS
10
1.65256
20
1.71181
11
1.65256
21
1.63465
0
LINE
8
BLACK
6
CONTINUOUS
10
1.65256
20
1.63465
11
1.65227
21
1.63395
0
LINE
8
BLACK
6
CONTINUOUS
10
1.65227
20
1.63395
11
1.65157
21
1.63366
0
LINE
8
BLACK
6
CONTINUOUS
10
1.65157
20
1.63366
11
1.51772
21
1.63366
0
LINE
8
BLACK
6
CONTINUOUS
10
1.51772
20
1.63366
11
1.51702
21
1.63395
0
LINE
8
BLACK
6
CONTINUOUS
10
1.51702
20
1.63395
11
1.51673
21
1.63465
0
LINE
8
BLACK
6
CONTINUOUS
10
1.51673
20
1.63465
11
1.51673
21
1.71181
0
LINE
8
BLACK
6
CONTINUOUS
10
1.51673
20
1.71181
11
1.51702
21
1.71251
0
LINE
8
BLACK
6
CONTINUOUS
10
1.51702
20
1.71251
11
1.51772
21
1.7128
0
LINE
8
BLACK
6
CONTINUOUS
10
1.51772
20
1.7128
11
1.65157
21
1.7128
0
LINE
8
BLACK
6
CONTINUOUS
10
1.5187
20
1.71083
11
1.5187
21
1.63563
0
LINE
8
BLACK
6
CONTINUOUS
10
1.5187
20
1.63563
11
1.65059
21
1.63563
0
LINE
8
BLACK
6
CONTINUOUS
10
1.65059
20
1.63563
11
1.65059
21
1.71083
0
LINE
8
BLACK
6
CONTINUOUS
10
1.65059
20
1.71083
11
1.5187
21
1.71083
0
LINE
8
BLACK
6
CONTINUOUS
10
1.40157
20
1.83366
11
1.40227
21
1.83337
0
LINE
8
BLACK
6
CONTINUOUS
10
1.40227
20
1.83337
11
1.40256
21
1.83268
0
LINE
8
BLACK
6
CONTINUOUS
10
1.40256
20
1.83268
11
1.40256
21
1.67126
0
LINE
8
BLACK
6
CONTINUOUS
10
1.40256
20
1.67126
11
1.40227
21
1.67056
0
LINE
8
BLACK
6
CONTINUOUS
10
1.40227
20
1.67056
11
1.40157
21
1.67028
0
LINE
8
BLACK
6
CONTINUOUS
10
1.40157
20
1.67028
11
1.26772
21
1.67028
0
LINE
8
BLACK
6
CONTINUOUS
10
1.26772
20
1.67028
11
1.26702
21
1.67056
0
LINE
8
BLACK
6
CONTINUOUS
10
1.26702
20
1.67056
11
1.26673
21
1.67126
0
LINE
8
BLACK
6
CONTINUOUS
10
1.26673
20
1.67126
11
1.26673
21
1.83268
0
LINE
8
BLACK
6
CONTINUOUS
10
1.26673
20
1.83268
11
1.26702
21
1.83337
0
LINE
8
BLACK
6
CONTINUOUS
10
1.26702
20
1.83337
11
1.26772
21
1.83366
0
LINE
8
BLACK
6
CONTINUOUS
10
1.26772
20
1.83366
11
1.40157
21
1.83366
0
LINE
8
BLACK
6
CONTINUOUS
10
1.2687
20
1.83169
11
1.2687
21
1.67224
0
LINE
8
BLACK
6
CONTINUOUS
10
1.2687
20
1.67224
11
1.40059
21
1.67224
0
LINE
8
BLACK
6
CONTINUOUS
10
1.40059
20
1.67224
11
1.40059
21
1.83169
0
LINE
8
BLACK
6
CONTINUOUS
10
1.40059
20
1.83169
11
1.2687
21
1.83169
0
LINE
8
BLACK
6
CONTINUOUS
10
1.4874
20
1.83563
11
1.4881
21
1.83534
0
LINE
8
BLACK
6
CONTINUOUS
10
1.4881
20
1.83534
11
1.48839
21
1.83465
0
LINE
8
BLACK
6
CONTINUOUS
10
1.48839
20
1.83465
11
1.48839
21
1.70079
0
LINE
8
BLACK
6
CONTINUOUS
10
1.48839
20
1.70079
11
1.4881
21
1.70009
0
LINE
8
BLACK
6
CONTINUOUS
10
1.4881
20
1.70009
11
1.4874
21
1.6998
0
LINE
8
BLACK
6
CONTINUOUS
10
1.4874
20
1.6998
11
1.41024
21
1.6998
0
LINE
8
BLACK
6
CONTINUOUS
10
1.41024
20
1.6998
11
1.40954
21
1.70009
0
LINE
8
BLACK
6
CONTINUOUS
10
1.40954
20
1.70009
11
1.40925
21
1.70079
0
LINE
8
BLACK
6
CONTINUOUS
10
1.40925
20
1.70079
11
1.40925
21
1.83465
0
LINE
8
BLACK
6
CONTINUOUS
10
1.40925
20
1.83465
11
1.40954
21
1.83534
0
LINE
8
BLACK
6
CONTINUOUS
10
1.40954
20
1.83534
11
1.41024
21
1.83563
0
LINE
8
BLACK
6
CONTINUOUS
10
1.41024
20
1.83563
11
1.4874
21
1.83563
0
LINE
8
BLACK
6
CONTINUOUS
10
1.41122
20
1.83366
11
1.41122
21
1.70177
0
LINE
8
BLACK
6
CONTINUOUS
10
1.41122
20
1.70177
11
1.48642
21
1.70177
0
LINE
8
BLACK
6
CONTINUOUS
10
1.48642
20
1.70177
11
1.48642
21
1.83366
0
LINE
8
BLACK
6
CONTINUOUS
10
1.48642
20
1.83366
11
1.41122
21
1.83366
0
LINE
8
BLACK
6
CONTINUOUS
10
0.427165
20
1.86634
11
0.427861
21
1.86605
0
LINE
8
BLACK
6
CONTINUOUS
10
0.427861
20
1.86605
11
0.42815
21
1.86535
0
LINE
8
BLACK
6
CONTINUOUS
10
0.42815
20
1.86535
11
0.42815
21
1.73307
0
LINE
8
BLACK
6
CONTINUOUS
10
0.42815
20
1.73307
11
0.427861
21
1.73237
0
LINE
8
BLACK
6
CONTINUOUS
10
0.427861
20
1.73237
11
0.427165
21
1.73209
0
LINE
8
BLACK
6
CONTINUOUS
10
0.427165
20
1.73209
11
0.352362
21
1.73209
0
LINE
8
BLACK
6
CONTINUOUS
10
0.352362
20
1.73209
11
0.351666
21
1.73237
0
LINE
8
BLACK
6
CONTINUOUS
10
0.351666
20
1.73237
11
0.351378
21
1.73307
0
LINE
8
BLACK
6
CONTINUOUS
10
0.351378
20
1.73307
11
0.351378
21
1.86535
0
LINE
8
BLACK
6
CONTINUOUS
10
0.351378
20
1.86535
11
0.351666
21
1.86605
0
LINE
8
BLACK
6
CONTINUOUS
10
0.351666
20
1.86605
11
0.352362
21
1.86634
0
LINE
8
BLACK
6
CONTINUOUS
10
0.352362
20
1.86634
11
0.427165
21
1.86634
0
LINE
8
BLACK
6
CONTINUOUS
10
0.353346
20
1.86437
11
0.353346
21
1.73406
0
LINE
8
BLACK
6
CONTINUOUS
10
0.353346
20
1.73406
11
0.426181
21
1.73406
0
LINE
8
BLACK
6
CONTINUOUS
10
0.426181
20
1.73406
11
0.426181
21
1.86437
0
LINE
8
BLACK
6
CONTINUOUS
10
0.426181
20
1.86437
11
0.353346
21
1.86437
0
LINE
8
BLACK
6
CONTINUOUS
10
1.39931
20
1.91634
11
1.40001
21
1.91605
0
LINE
8
BLACK
6
CONTINUOUS
10
1.40001
20
1.91605
11
1.4003
21
1.91535
0
LINE
8
BLACK
6
CONTINUOUS
10
1.4003
20
1.91535
11
1.4003
21
1.84055
0
LINE
8
BLACK
6
CONTINUOUS
10
1.4003
20
1.84055
11
1.40001
21
1.83986
0
LINE
8
BLACK
6
CONTINUOUS
10
1.40001
20
1.83986
11
1.39931
21
1.83957
0
LINE
8
BLACK
6
CONTINUOUS
10
1.39931
20
1.83957
11
1.26703
21
1.83957
0
LINE
8
BLACK
6
CONTINUOUS
10
1.26703
20
1.83957
11
1.26633
21
1.83986
0
LINE
8
BLACK
6
CONTINUOUS
10
1.26633
20
1.83986
11
1.26604
21
1.84055
0
LINE
8
BLACK
6
CONTINUOUS
10
1.26604
20
1.84055
11
1.26604
21
1.91535
0
LINE
8
BLACK
6
CONTINUOUS
10
1.26604
20
1.91535
11
1.26633
21
1.91605
0
LINE
8
BLACK
6
CONTINUOUS
10
1.26633
20
1.91605
11
1.26703
21
1.91634
0
LINE
8
BLACK
6
CONTINUOUS
10
1.26703
20
1.91634
11
1.39931
21
1.91634
0
LINE
8
BLACK
6
CONTINUOUS
10
1.26801
20
1.91437
11
1.26801
21
1.84154
0
LINE
8
BLACK
6
CONTINUOUS
10
1.26801
20
1.84154
11
1.39833
21
1.84154
0
LINE
8
BLACK
6
CONTINUOUS
10
1.39833
20
1.84154
11
1.39833
21
1.91437
0
LINE
8
BLACK
6
CONTINUOUS
10
1.39833
20
1.91437
11
1.26801
21
1.91437
0
LINE
8
BLACK
6
CONTINUOUS
10
0.369291
20
1.95965
11
0.369987
21
1.95936
0
LINE
8
BLACK
6
CONTINUOUS
10
0.369987
20
1.95936
11
0.370276
21
1.95866
0
LINE
8
BLACK
6
CONTINUOUS
10
0.370276
20
1.95866
11
0.370276
21
1.88386
0
LINE
8
BLACK
6
CONTINUOUS
10
0.370276
20
1.88386
11
0.369987
21
1.88316
0
LINE
8
BLACK
6
CONTINUOUS
10
0.369987
20
1.88316
11
0.369291
21
1.88287
0
LINE
8
BLACK
6
CONTINUOUS
10
0.369291
20
1.88287
11
0.237008
21
1.88287
0
LINE
8
BLACK
6
CONTINUOUS
10
0.237008
20
1.88287
11
0.236312
21
1.88316
0
LINE
8
BLACK
6
CONTINUOUS
10
0.236312
20
1.88316
11
0.236024
21
1.88386
0
LINE
8
BLACK
6
CONTINUOUS
10
0.236024
20
1.88386
11
0.236024
21
1.88386
0
LINE
8
BLACK
6
CONTINUOUS
10
0.236024
20
1.88386
11
0.236024
21
1.95866
0
LINE
8
BLACK
6
CONTINUOUS
10
0.236024
20
1.95866
11
0.236312
21
1.95936
0
LINE
8
BLACK
6
CONTINUOUS
10
0.236312
20
1.95936
11
0.237008
21
1.95965
0
LINE
8
BLACK
6
CONTINUOUS
10
0.237008
20
1.95965
11
0.369291
21
1.95965
0
LINE
8
BLACK
6
CONTINUOUS
10
0.237992
20
1.95768
11
0.237992
21
1.88484
0
LINE
8
BLACK
6
CONTINUOUS
10
0.237992
20
1.88484
11
0.368307
21
1.88484
0
LINE
8
BLACK
6
CONTINUOUS
10
0.368307
20
1.88484
11
0.368307
21
1.95768
0
LINE
8
BLACK
6
CONTINUOUS
10
0.368307
20
1.95768
11
0.237992
21
1.95768
0
LINE
8
BLACK
6
CONTINUOUS
10
1.23425
20
2.20492
11
1.23495
21
2.20463
0
LINE
8
BLACK
6
CONTINUOUS
10
1.23495
20
2.20463
11
1.23524
21
2.20394
0
LINE
8
BLACK
6
CONTINUOUS
10
1.23524
20
2.20394
11
1.23524
21
2.07165
0
LINE
8
BLACK
6
CONTINUOUS
10
1.23524
20
2.07165
11
1.23495
21
2.07096
0
LINE
8
BLACK
6
CONTINUOUS
10
1.23495
20
2.07096
11
1.23425
21
2.07067
0
LINE
8
BLACK
6
CONTINUOUS
10
1.23425
20
2.07067
11
1.15945
21
2.07067
0
LINE
8
BLACK
6
CONTINUOUS
10
1.15945
20
2.07067
11
1.15875
21
2.07096
0
LINE
8
BLACK
6
CONTINUOUS
10
1.15875
20
2.07096
11
1.15846
21
2.07165
0
LINE
8
BLACK
6
CONTINUOUS
10
1.15846
20
2.07165
11
1.15846
21
2.20394
0
LINE
8
BLACK
6
CONTINUOUS
10
1.15846
20
2.20394
11
1.15875
21
2.20463
0
LINE
8
BLACK
6
CONTINUOUS
10
1.15875
20
2.20463
11
1.15945
21
2.20492
0
LINE
8
BLACK
6
CONTINUOUS
10
1.15945
20
2.20492
11
1.23425
21
2.20492
0
LINE
8
BLACK
6
CONTINUOUS
10
1.16043
20
2.20295
11
1.16043
21
2.07264
0
LINE
8
BLACK
6
CONTINUOUS
10
1.16043
20
2.07264
11
1.23327
21
2.07264
0
LINE
8
BLACK
6
CONTINUOUS
10
1.23327
20
2.07264
11
1.23327
21
2.20295
0
LINE
8
BLACK
6
CONTINUOUS
10
1.23327
20
2.20295
11
1.16043
21
2.20295
0
LINE
8
BLACK
6
CONTINUOUS
10
1.31299
20
2.20492
11
1.31369
21
2.20463
0
LINE
8
BLACK
6
CONTINUOUS
10
1.31369
20
2.20463
11
1.31398
21
2.20394
0
LINE
8
BLACK
6
CONTINUOUS
10
1.31398
20
2.20394
11
1.31398
21
2.07165
0
LINE
8
BLACK
6
CONTINUOUS
10
1.31398
20
2.07165
11
1.31369
21
2.07096
0
LINE
8
BLACK
6
CONTINUOUS
10
1.31369
20
2.07096
11
1.31299
21
2.07067
0
LINE
8
BLACK
6
CONTINUOUS
10
1.31299
20
2.07067
11
1.23819
21
2.07067
0
LINE
8
BLACK
6
CONTINUOUS
10
1.23819
20
2.07067
11
1.23749
21
2.07096
0
LINE
8
BLACK
6
CONTINUOUS
10
1.23749
20
2.07096
11
1.2372
21
2.07165
0
LINE
8
BLACK
6
CONTINUOUS
10
1.2372
20
2.07165
11
1.2372
21
2.20394
0
LINE
8
BLACK
6
CONTINUOUS
10
1.2372
20
2.20394
11
1.23749
21
2.20463
0
LINE
8
BLACK
6
CONTINUOUS
10
1.23749
20
2.20463
11
1.23819
21
2.20492
0
LINE
8
BLACK
6
CONTINUOUS
10
1.23819
20
2.20492
11
1.31299
21
2.20492
0
LINE
8
BLACK
6
CONTINUOUS
10
1.23917
20
2.20295
11
1.23917
21
2.07264
0
LINE
8
BLACK
6
CONTINUOUS
10
1.23917
20
2.07264
11
1.31201
21
2.07264
0
LINE
8
BLACK
6
CONTINUOUS
10
1.31201
20
2.07264
11
1.31201
21
2.20295
0
LINE
8
BLACK
6
CONTINUOUS
10
1.31201
20
2.20295
11
1.23917
21
2.20295
0
LINE
8
BLACK
6
CONTINUOUS
10
0.465256
20
2.16437
11
0.465952
21
2.16408
0
LINE
8
BLACK
6
CONTINUOUS
10
0.465952
20
2.16408
11
0.46624
21
2.16339
0
LINE
8
BLACK
6
CONTINUOUS
10
0.46624
20
2.16339
11
0.46624
21
2.08858
0
LINE
8
BLACK
6
CONTINUOUS
10
0.46624
20
2.08858
11
0.465952
21
2.08789
0
LINE
8
BLACK
6
CONTINUOUS
10
0.465952
20
2.08789
11
0.465256
21
2.0876
0
LINE
8
BLACK
6
CONTINUOUS
10
0.465256
20
2.0876
11
0.332972
21
2.0876
0
LINE
8
BLACK
6
CONTINUOUS
10
0.332972
20
2.0876
11
0.332276
21
2.08789
0
LINE
8
BLACK
6
CONTINUOUS
10
0.332276
20
2.08789
11
0.331988
21
2.08858
0
LINE
8
BLACK
6
CONTINUOUS
10
0.331988
20
2.08858
11
0.331988
21
2.16339
0
LINE
8
BLACK
6
CONTINUOUS
10
0.331988
20
2.16339
11
0.332276
21
2.16408
0
LINE
8
BLACK
6
CONTINUOUS
10
0.332276
20
2.16408
11
0.332972
21
2.16437
0
LINE
8
BLACK
6
CONTINUOUS
10
0.332972
20
2.16437
11
0.465256
21
2.16437
0
LINE
8
BLACK
6
CONTINUOUS
10
0.333957
20
2.1624
11
0.333957
21
2.08957
0
LINE
8
BLACK
6
CONTINUOUS
10
0.333957
20
2.08957
11
0.464272
21
2.08957
0
LINE
8
BLACK
6
CONTINUOUS
10
0.464272
20
2.08957
11
0.464272
21
2.1624
0
LINE
8
BLACK
6
CONTINUOUS
10
0.464272
20
2.1624
11
0.333957
21
2.1624
0
LINE
8
BLACK
6
CONTINUOUS
10
1.91929
20
2.23199
11
1.91999
21
2.2317
0
LINE
8
BLACK
6
CONTINUOUS
10
1.91999
20
2.2317
11
1.92028
21
2.231
0
LINE
8
BLACK
6
CONTINUOUS
10
1.92028
20
2.231
11
1.92028
21
2.09872
0
LINE
8
BLACK
6
CONTINUOUS
10
1.92028
20
2.09872
11
1.91999
21
2.09802
0
LINE
8
BLACK
6
CONTINUOUS
10
1.91999
20
2.09802
11
1.91929
21
2.09774
0
LINE
8
BLACK
6
CONTINUOUS
10
1.91929
20
2.09774
11
1.84449
21
2.09774
0
LINE
8
BLACK
6
CONTINUOUS
10
1.84449
20
2.09774
11
1.84379
21
2.09802
0
LINE
8
BLACK
6
CONTINUOUS
10
1.84379
20
2.09802
11
1.8435
21
2.09872
0
LINE
8
BLACK
6
CONTINUOUS
10
1.8435
20
2.09872
11
1.8435
21
2.231
0
LINE
8
BLACK
6
CONTINUOUS
10
1.8435
20
2.231
11
1.84379
21
2.2317
0
LINE
8
BLACK
6
CONTINUOUS
10
1.84379
20
2.2317
11
1.84449
21
2.23199
0
LINE
8
BLACK
6
CONTINUOUS
10
1.84449
20
2.23199
11
1.91929
21
2.23199
0
LINE
8
BLACK
6
CONTINUOUS
10
1.84547
20
2.23002
11
1.84547
21
2.0997
0
LINE
8
BLACK
6
CONTINUOUS
10
1.84547
20
2.0997
11
1.91831
21
2.0997
0
LINE
8
BLACK
6
CONTINUOUS
10
1.91831
20
2.0997
11
1.91831
21
2.23002
0
LINE
8
BLACK
6
CONTINUOUS
10
1.91831
20
2.23002
11
1.84547
21
2.23002
0
LINE
8
BLACK
6
CONTINUOUS
10
2.00591
20
2.23248
11
2.0066
21
2.23219
0
LINE
8
BLACK
6
CONTINUOUS
10
2.0066
20
2.23219
11
2.00689
21
2.2315
0
LINE
8
BLACK
6
CONTINUOUS
10
2.00689
20
2.2315
11
2.00689
21
2.09921
0
LINE
8
BLACK
6
CONTINUOUS
10
2.00689
20
2.09921
11
2.0066
21
2.09852
0
LINE
8
BLACK
6
CONTINUOUS
10
2.0066
20
2.09852
11
2.00591
21
2.09823
0
LINE
8
BLACK
6
CONTINUOUS
10
2.00591
20
2.09823
11
1.9311
21
2.09823
0
LINE
8
BLACK
6
CONTINUOUS
10
1.9311
20
2.09823
11
1.93041
21
2.09852
0
LINE
8
BLACK
6
CONTINUOUS
10
1.93041
20
2.09852
11
1.93012
21
2.09921
0
LINE
8
BLACK
6
CONTINUOUS
10
1.93012
20
2.09921
11
1.93012
21
2.2315
0
LINE
8
BLACK
6
CONTINUOUS
10
1.93012
20
2.2315
11
1.93041
21
2.23219
0
LINE
8
BLACK
6
CONTINUOUS
10
1.93041
20
2.23219
11
1.9311
21
2.23248
0
LINE
8
BLACK
6
CONTINUOUS
10
1.9311
20
2.23248
11
2.00591
21
2.23248
0
LINE
8
BLACK
6
CONTINUOUS
10
1.93209
20
2.23051
11
1.93209
21
2.1002
0
LINE
8
BLACK
6
CONTINUOUS
10
1.93209
20
2.1002
11
2.00492
21
2.1002
0
LINE
8
BLACK
6
CONTINUOUS
10
2.00492
20
2.1002
11
2.00492
21
2.23051
0
LINE
8
BLACK
6
CONTINUOUS
10
2.00492
20
2.23051
11
1.93209
21
2.23051
0
LINE
8
BLACK
6
CONTINUOUS
10
1.79843
20
2.17618
11
1.79912
21
2.17589
0
LINE
8
BLACK
6
CONTINUOUS
10
1.79912
20
2.17589
11
1.79941
21
2.1752
0
LINE
8
BLACK
6
CONTINUOUS
10
1.79941
20
2.1752
11
1.79941
21
2.10039
0
LINE
8
BLACK
6
CONTINUOUS
10
1.79941
20
2.10039
11
1.79912
21
2.0997
0
LINE
8
BLACK
6
CONTINUOUS
10
1.79912
20
2.0997
11
1.79843
21
2.09941
0
LINE
8
BLACK
6
CONTINUOUS
10
1.79843
20
2.09941
11
1.66614
21
2.09941
0
LINE
8
BLACK
6
CONTINUOUS
10
1.66614
20
2.09941
11
1.66545
21
2.0997
0
LINE
8
BLACK
6
CONTINUOUS
10
1.66545
20
2.0997
11
1.66516
21
2.10039
0
LINE
8
BLACK
6
CONTINUOUS
10
1.66516
20
2.10039
11
1.66516
21
2.10039
0
LINE
8
BLACK
6
CONTINUOUS
10
1.66516
20
2.10039
11
1.66516
21
2.1752
0
LINE
8
BLACK
6
CONTINUOUS
10
1.66516
20
2.1752
11
1.66545
21
2.17589
0
LINE
8
BLACK
6
CONTINUOUS
10
1.66545
20
2.17589
11
1.66614
21
2.17618
0
LINE
8
BLACK
6
CONTINUOUS
10
1.66614
20
2.17618
11
1.79843
21
2.17618
0
LINE
8
BLACK
6
CONTINUOUS
10
1.66713
20
2.17421
11
1.66713
21
2.10138
0
LINE
8
BLACK
6
CONTINUOUS
10
1.66713
20
2.10138
11
1.79744
21
2.10138
0
LINE
8
BLACK
6
CONTINUOUS
10
1.79744
20
2.10138
11
1.79744
21
2.17421
0
LINE
8
BLACK
6
CONTINUOUS
10
1.79744
20
2.17421
11
1.66713
21
2.17421
0
LINE
8
BLACK
6
CONTINUOUS
10
1.62795
20
2.25098
11
1.62865
21
2.2507
0
LINE
8
BLACK
6
CONTINUOUS
10
1.62865
20
2.2507
11
1.62894
21
2.25
0
LINE
8
BLACK
6
CONTINUOUS
10
1.62894
20
2.25
11
1.62894
21
2.10827
0
LINE
8
BLACK
6
CONTINUOUS
10
1.62894
20
2.10827
11
1.62865
21
2.10757
0
LINE
8
BLACK
6
CONTINUOUS
10
1.62865
20
2.10757
11
1.62795
21
2.10728
0
LINE
8
BLACK
6
CONTINUOUS
10
1.62795
20
2.10728
11
1.39567
21
2.10728
0
LINE
8
BLACK
6
CONTINUOUS
10
1.39567
20
2.10728
11
1.39497
21
2.10757
0
LINE
8
BLACK
6
CONTINUOUS
10
1.39497
20
2.10757
11
1.39469
21
2.10827
0
LINE
8
BLACK
6
CONTINUOUS
10
1.39469
20
2.10827
11
1.39469
21
2.25
0
LINE
8
BLACK
6
CONTINUOUS
10
1.39469
20
2.25
11
1.39497
21
2.2507
0
LINE
8
BLACK
6
CONTINUOUS
10
1.39497
20
2.2507
11
1.39567
21
2.25098
0
LINE
8
BLACK
6
CONTINUOUS
10
1.39567
20
2.25098
11
1.62795
21
2.25098
0
LINE
8
BLACK
6
CONTINUOUS
10
1.39665
20
2.24902
11
1.39665
21
2.10925
0
LINE
8
BLACK
6
CONTINUOUS
10
1.39665
20
2.10925
11
1.62697
21
2.10925
0
LINE
8
BLACK
6
CONTINUOUS
10
1.62697
20
2.10925
11
1.62697
21
2.24902
0
LINE
8
BLACK
6
CONTINUOUS
10
1.62697
20
2.24902
11
1.39665
21
2.24902
0
LINE
8
BLACK
6
CONTINUOUS
10
1.79843
20
2.26476
11
1.79912
21
2.26448
0
LINE
8
BLACK
6
CONTINUOUS
10
1.79912
20
2.26448
11
1.79941
21
2.26378
0
LINE
8
BLACK
6
CONTINUOUS
10
1.79941
20
2.26378
11
1.79941
21
2.18898
0
LINE
8
BLACK
6
CONTINUOUS
10
1.79941
20
2.18898
11
1.79912
21
2.18828
0
LINE
8
BLACK
6
CONTINUOUS
10
1.79912
20
2.18828
11
1.79843
21
2.18799
0
LINE
8
BLACK
6
CONTINUOUS
10
1.79843
20
2.18799
11
1.66614
21
2.18799
0
LINE
8
BLACK
6
CONTINUOUS
10
1.66614
20
2.18799
11
1.66545
21
2.18828
0
LINE
8
BLACK
6
CONTINUOUS
10
1.66545
20
2.18828
11
1.66516
21
2.18898
0
LINE
8
BLACK
6
CONTINUOUS
10
1.66516
20
2.18898
11
1.66516
21
2.26378
0
LINE
8
BLACK
6
CONTINUOUS
10
1.66516
20
2.26378
11
1.66545
21
2.26448
0
LINE
8
BLACK
6
CONTINUOUS
10
1.66545
20
2.26448
11
1.66614
21
2.26476
0
LINE
8
BLACK
6
CONTINUOUS
10
1.66614
20
2.26476
11
1.79843
21
2.26476
0
LINE
8
BLACK
6
CONTINUOUS
10
1.66713
20
2.2628
11
1.66713
21
2.18996
0
LINE
8
BLACK
6
CONTINUOUS
10
1.66713
20
2.18996
11
1.79744
21
2.18996
0
LINE
8
BLACK
6
CONTINUOUS
10
1.79744
20
2.18996
11
1.79744
21
2.2628
0
LINE
8
BLACK
6
CONTINUOUS
10
1.79744
20
2.2628
11
1.66713
21
2.2628
0
LINE
8
BLACK
6
CONTINUOUS
10
1.12598
20
2.29035
11
1.12668
21
2.29007
0
LINE
8
BLACK
6
CONTINUOUS
10
1.12668
20
2.29007
11
1.12697
21
2.28937
0
LINE
8
BLACK
6
CONTINUOUS
10
1.12697
20
2.28937
11
1.12697
21
2.20276
0
LINE
8
BLACK
6
CONTINUOUS
10
1.12697
20
2.20276
11
1.12668
21
2.20206
0
LINE
8
BLACK
6
CONTINUOUS
10
1.12668
20
2.20206
11
1.12598
21
2.20177
0
LINE
8
BLACK
6
CONTINUOUS
10
1.12598
20
2.20177
11
0.917323
21
2.20177
0
LINE
8
BLACK
6
CONTINUOUS
10
0.917323
20
2.20177
11
0.916627
21
2.20206
0
LINE
8
BLACK
6
CONTINUOUS
10
0.916627
20
2.20206
11
0.916339
21
2.20276
0
LINE
8
BLACK
6
CONTINUOUS
10
0.916339
20
2.20276
11
0.916339
21
2.28937
0
LINE
8
BLACK
6
CONTINUOUS
10
0.916339
20
2.28937
11
0.916627
21
2.29007
0
LINE
8
BLACK
6
CONTINUOUS
10
0.916627
20
2.29007
11
0.917323
21
2.29035
0
LINE
8
BLACK
6
CONTINUOUS
10
0.917323
20
2.29035
11
1.12598
21
2.29035
0
LINE
8
BLACK
6
CONTINUOUS
10
0.918307
20
2.28839
11
0.918307
21
2.20374
0
LINE
8
BLACK
6
CONTINUOUS
10
0.918307
20
2.20374
11
1.125
21
2.20374
0
LINE
8
BLACK
6
CONTINUOUS
10
1.125
20
2.20374
11
1.125
21
2.28839
0
LINE
8
BLACK
6
CONTINUOUS
10
1.125
20
2.28839
11
0.918307
21
2.28839
0
LINE
8
BLACK
6
CONTINUOUS
10
1.26496
20
2.29035
11
1.26566
21
2.29007
0
LINE
8
BLACK
6
CONTINUOUS
10
1.26566
20
2.29007
11
1.26594
21
2.28937
0
LINE
8
BLACK
6
CONTINUOUS
10
1.26594
20
2.28937
11
1.26594
21
2.21457
0
LINE
8
BLACK
6
CONTINUOUS
10
1.26594
20
2.21457
11
1.26566
21
2.21387
0
LINE
8
BLACK
6
CONTINUOUS
10
1.26566
20
2.21387
11
1.26496
21
2.21358
0
LINE
8
BLACK
6
CONTINUOUS
10
1.26496
20
2.21358
11
1.13268
21
2.21358
0
LINE
8
BLACK
6
CONTINUOUS
10
1.13268
20
2.21358
11
1.13198
21
2.21387
0
LINE
8
BLACK
6
CONTINUOUS
10
1.13198
20
2.21387
11
1.13169
21
2.21457
0
LINE
8
BLACK
6
CONTINUOUS
10
1.13169
20
2.21457
11
1.13169
21
2.28937
0
LINE
8
BLACK
6
CONTINUOUS
10
1.13169
20
2.28937
11
1.13198
21
2.29007
0
LINE
8
BLACK
6
CONTINUOUS
10
1.13198
20
2.29007
11
1.13268
21
2.29035
0
LINE
8
BLACK
6
CONTINUOUS
10
1.13268
20
2.29035
11
1.26496
21
2.29035
0
LINE
8
BLACK
6
CONTINUOUS
10
1.13366
20
2.28839
11
1.13366
21
2.21555
0
LINE
8
BLACK
6
CONTINUOUS
10
1.13366
20
2.21555
11
1.26398
21
2.21555
0
LINE
8
BLACK
6
CONTINUOUS
10
1.26398
20
2.21555
11
1.26398
21
2.28839
0
LINE
8
BLACK
6
CONTINUOUS
10
1.26398
20
2.28839
11
1.13366
21
2.28839
  0
ENDSEC
  0
EOF
