  0
SECTION
  2
HEADER
  9
$ANGBASE
  50
0.0
  9
$ANGDIR
  70
1
  9
$MEASUREMENT
  70
0
  0
ENDSEC
  0
SECTION
  2
TABLES
  0
TABLE
  2
LTYPE
  70
4
  0
LTYPE
  5
40F
  2
CONTINUOUS
  70
0
  3
Solid line
  72
65
  73
0
  40
0.0
  0
LTYPE
  5
410
  2
DASHDOT
 70
0
  3
Dash Dot ____ _ ____ _
 72
65
 73
4
 40
2.0
 49
1.25
 49
-0.25
 49
0.25
 49
-0.25
  0
LTYPE
  5
411
  2
DASHED
 70
0
  3
Dashed __ __ __ __ __
 72
65
 73
2
 40
0.75
 49
0.5
 49
-0.25
  0
LTYPE
  5
43B
  2
DOTTED
 70
0
  3
Dotted .  .  .  .
 72
65
 73
2
 40
0.2
 49
0.0
 49
-0.2
  0
ENDTAB
  0
TABLE
  2
STYLE
  70
4
  0
STYLE
  2
KICAD
  70
0
  40
0
  41
1
  42
1
  50
0
  71
0
  3
isocp.shx
  0
STYLE
  2
KICADB
  70
0
  40
0
  41
1
  42
1
  50
0
  71
0
  3
isocp.shx
  0
STYLE
  2
KICADI
  70
0
  40
0
  41
1
  42
1
  50
15
  71
0
  3
isocp.shx
  0
STYLE
  2
KICADBI
  70
0
  40
0
  41
1
  42
1
  50
15
  71
0
  3
isocp.shx
  0
ENDTAB
  0
TABLE
  2
LAYER
  70
1
  0
LAYER
  2
BLACK
  70
0
  62
7
  6
CONTINUOUS
  0
ENDTAB
  0
ENDSEC
  0
SECTION
  2
ENTITIES
0
LINE
8
BLACK
6
CONTINUOUS
10
0.0140628
20
0.12481
11
0.0279486
21
0.122451
0
LINE
8
BLACK
6
CONTINUOUS
10
0.0279486
20
0.122451
11
0.041483
21
0.118552
0
LINE
8
BLACK
6
CONTINUOUS
10
0.041483
20
0.118552
11
0.0544958
21
0.113162
0
LINE
8
BLACK
6
CONTINUOUS
10
0.0544958
20
0.113162
11
0.0668232
21
0.106349
0
LINE
8
BLACK
6
CONTINUOUS
10
0.0668232
20
0.106349
11
0.0783103
21
0.098198
0
LINE
8
BLACK
6
CONTINUOUS
10
0.0783103
20
0.098198
11
0.0888126
21
0.0888126
0
LINE
8
BLACK
6
CONTINUOUS
10
0.0888126
20
0.0888126
11
0.098198
21
0.0783103
0
LINE
8
BLACK
6
CONTINUOUS
10
0.098198
20
0.0783103
11
0.106349
21
0.0668232
0
LINE
8
BLACK
6
CONTINUOUS
10
0.106349
20
0.0668232
11
0.113162
21
0.0544958
0
LINE
8
BLACK
6
CONTINUOUS
10
0.113162
20
0.0544958
11
0.118552
21
0.041483
0
LINE
8
BLACK
6
CONTINUOUS
10
0.118552
20
0.041483
11
0.122451
21
0.0279486
0
LINE
8
BLACK
6
CONTINUOUS
10
0.122451
20
0.0279486
11
0.12481
21
0.0140628
0
LINE
8
BLACK
6
CONTINUOUS
10
0.12481
20
0.0140628
11
0.1256
21
0
0
LINE
8
BLACK
6
CONTINUOUS
10
0.1256
20
0
11
0.12481
21
-0.0140628
0
LINE
8
BLACK
6
CONTINUOUS
10
0.12481
20
-0.0140628
11
0.122451
21
-0.0279486
0
LINE
8
BLACK
6
CONTINUOUS
10
0.122451
20
-0.0279486
11
0.118552
21
-0.041483
0
LINE
8
BLACK
6
CONTINUOUS
10
0.118552
20
-0.041483
11
0.113162
21
-0.0544958
0
LINE
8
BLACK
6
CONTINUOUS
10
0.113162
20
-0.0544958
11
0.106349
21
-0.0668232
0
LINE
8
BLACK
6
CONTINUOUS
10
0.106349
20
-0.0668232
11
0.098198
21
-0.0783103
0
LINE
8
BLACK
6
CONTINUOUS
10
0.098198
20
-0.0783103
11
0.0888126
21
-0.0888126
0
LINE
8
BLACK
6
CONTINUOUS
10
0.0888126
20
-0.0888126
11
0.0783103
21
-0.098198
0
LINE
8
BLACK
6
CONTINUOUS
10
0.0783103
20
-0.098198
11
0.0668232
21
-0.106349
0
LINE
8
BLACK
6
CONTINUOUS
10
0.0668232
20
-0.106349
11
0.0544958
21
-0.113162
0
LINE
8
BLACK
6
CONTINUOUS
10
0.0544958
20
-0.113162
11
0.041483
21
-0.118552
0
LINE
8
BLACK
6
CONTINUOUS
10
0.041483
20
-0.118552
11
0.0279486
21
-0.122451
0
LINE
8
BLACK
6
CONTINUOUS
10
0.0279486
20
-0.122451
11
0.0140628
21
-0.12481
0
LINE
8
BLACK
6
CONTINUOUS
10
0.0140628
20
-0.12481
11
0
21
-0.1256
0
LINE
8
BLACK
6
CONTINUOUS
10
0
20
-0.1256
11
-0.0140628
21
-0.12481
0
LINE
8
BLACK
6
CONTINUOUS
10
-0.0140628
20
-0.12481
11
-0.0279486
21
-0.122451
0
LINE
8
BLACK
6
CONTINUOUS
10
-0.0279486
20
-0.122451
11
-0.041483
21
-0.118552
0
LINE
8
BLACK
6
CONTINUOUS
10
-0.041483
20
-0.118552
11
-0.0544958
21
-0.113162
0
LINE
8
BLACK
6
CONTINUOUS
10
-0.0544958
20
-0.113162
11
-0.0668232
21
-0.106349
0
LINE
8
BLACK
6
CONTINUOUS
10
-0.0668232
20
-0.106349
11
-0.0783103
21
-0.098198
0
LINE
8
BLACK
6
CONTINUOUS
10
-0.0783103
20
-0.098198
11
-0.0888126
21
-0.0888126
0
LINE
8
BLACK
6
CONTINUOUS
10
-0.0888126
20
-0.0888126
11
-0.098198
21
-0.0783103
0
LINE
8
BLACK
6
CONTINUOUS
10
-0.098198
20
-0.0783103
11
-0.106349
21
-0.0668232
0
LINE
8
BLACK
6
CONTINUOUS
10
-0.106349
20
-0.0668232
11
-0.113162
21
-0.0544958
0
LINE
8
BLACK
6
CONTINUOUS
10
-0.113162
20
-0.0544958
11
-0.118552
21
-0.041483
0
LINE
8
BLACK
6
CONTINUOUS
10
-0.118552
20
-0.041483
11
-0.122451
21
-0.0279486
0
LINE
8
BLACK
6
CONTINUOUS
10
-0.122451
20
-0.0279486
11
-0.12481
21
-0.0140628
0
LINE
8
BLACK
6
CONTINUOUS
10
-0.12481
20
-0.0140628
11
-0.1256
21
0
0
LINE
8
BLACK
6
CONTINUOUS
10
-0.1256
20
0
11
-0.12481
21
0.0140628
0
LINE
8
BLACK
6
CONTINUOUS
10
-0.12481
20
0.0140628
11
-0.122451
21
0.0279486
0
LINE
8
BLACK
6
CONTINUOUS
10
-0.122451
20
0.0279486
11
-0.118552
21
0.041483
0
LINE
8
BLACK
6
CONTINUOUS
10
-0.118552
20
0.041483
11
-0.113162
21
0.0544958
0
LINE
8
BLACK
6
CONTINUOUS
10
-0.113162
20
0.0544958
11
-0.106349
21
0.0668232
0
LINE
8
BLACK
6
CONTINUOUS
10
-0.106349
20
0.0668232
11
-0.098198
21
0.0783103
0
LINE
8
BLACK
6
CONTINUOUS
10
-0.098198
20
0.0783103
11
-0.0888126
21
0.0888126
0
LINE
8
BLACK
6
CONTINUOUS
10
-0.0888126
20
0.0888126
11
-0.0783103
21
0.098198
0
LINE
8
BLACK
6
CONTINUOUS
10
-0.0783103
20
0.098198
11
-0.0668232
21
0.106349
0
LINE
8
BLACK
6
CONTINUOUS
10
-0.0668232
20
0.106349
11
-0.0544958
21
0.113162
0
LINE
8
BLACK
6
CONTINUOUS
10
-0.0544958
20
0.113162
11
-0.041483
21
0.118552
0
LINE
8
BLACK
6
CONTINUOUS
10
-0.041483
20
0.118552
11
-0.0279486
21
0.122451
0
LINE
8
BLACK
6
CONTINUOUS
10
-0.0279486
20
0.122451
11
-0.0140628
21
0.12481
0
LINE
8
BLACK
6
CONTINUOUS
10
-0.0140628
20
0.12481
11
0
21
0.1256
0
LINE
8
BLACK
6
CONTINUOUS
10
0
20
0.1256
11
0.0140628
21
0.12481
0
LINE
8
BLACK
6
CONTINUOUS
10
-0.110038
20
-0.0128617
11
-0.107801
21
-0.0255493
0
LINE
8
BLACK
6
CONTINUOUS
10
-0.107801
20
-0.0255493
11
-0.104106
21
-0.0378915
0
LINE
8
BLACK
6
CONTINUOUS
10
-0.104106
20
-0.0378915
11
-0.0990033
21
-0.0497213
0
LINE
8
BLACK
6
CONTINUOUS
10
-0.0990033
20
-0.0497213
11
-0.0925616
21
-0.0608787
0
LINE
8
BLACK
6
CONTINUOUS
10
-0.0925616
20
-0.0608787
11
-0.0848681
21
-0.0712128
0
LINE
8
BLACK
6
CONTINUOUS
10
-0.0848681
20
-0.0712128
11
-0.076027
21
-0.0805839
0
LINE
8
BLACK
6
CONTINUOUS
10
-0.076027
20
-0.0805839
11
-0.0661577
21
-0.0888652
0
LINE
8
BLACK
6
CONTINUOUS
10
-0.0661577
20
-0.0888652
11
-0.0553937
21
-0.0959447
0
LINE
8
BLACK
6
CONTINUOUS
10
-0.0553937
20
-0.0959447
11
-0.0438807
21
-0.101727
0
LINE
8
BLACK
6
CONTINUOUS
10
-0.0438807
20
-0.101727
11
-0.0317742
21
-0.106133
0
LINE
8
BLACK
6
CONTINUOUS
10
-0.0317742
20
-0.106133
11
-0.019238
21
-0.109104
0
LINE
8
BLACK
6
CONTINUOUS
10
-0.019238
20
-0.109104
11
-0.00644173
21
-0.1106
0
LINE
8
BLACK
6
CONTINUOUS
10
-0.00644173
20
-0.1106
11
0.00644173
21
-0.1106
0
LINE
8
BLACK
6
CONTINUOUS
10
0.00644173
20
-0.1106
11
0.019238
21
-0.109104
0
LINE
8
BLACK
6
CONTINUOUS
10
0.019238
20
-0.109104
11
0.0317742
21
-0.106133
0
LINE
8
BLACK
6
CONTINUOUS
10
0.0317742
20
-0.106133
11
0.0438807
21
-0.101727
0
LINE
8
BLACK
6
CONTINUOUS
10
0.0438807
20
-0.101727
11
0.0553937
21
-0.0959447
0
LINE
8
BLACK
6
CONTINUOUS
10
0.0553937
20
-0.0959447
11
0.0661577
21
-0.0888652
0
LINE
8
BLACK
6
CONTINUOUS
10
0.0661577
20
-0.0888652
11
0.076027
21
-0.0805839
0
LINE
8
BLACK
6
CONTINUOUS
10
0.076027
20
-0.0805839
11
0.0848681
21
-0.0712128
0
LINE
8
BLACK
6
CONTINUOUS
10
0.0848681
20
-0.0712128
11
0.0925616
21
-0.0608787
0
LINE
8
BLACK
6
CONTINUOUS
10
0.0925616
20
-0.0608787
11
0.0990033
21
-0.0497213
0
LINE
8
BLACK
6
CONTINUOUS
10
0.0990033
20
-0.0497213
11
0.104106
21
-0.0378915
0
LINE
8
BLACK
6
CONTINUOUS
10
0.104106
20
-0.0378915
11
0.107801
21
-0.0255493
0
LINE
8
BLACK
6
CONTINUOUS
10
0.107801
20
-0.0255493
11
0.110038
21
-0.0128617
0
LINE
8
BLACK
6
CONTINUOUS
10
0.110038
20
-0.0128617
11
0.110787
21
0
0
LINE
8
BLACK
6
CONTINUOUS
10
0.110787
20
0
11
0.110038
21
0.0128617
0
LINE
8
BLACK
6
CONTINUOUS
10
0.110038
20
0.0128617
11
0.107801
21
0.0255493
0
LINE
8
BLACK
6
CONTINUOUS
10
0.107801
20
0.0255493
11
0.104106
21
0.0378915
0
LINE
8
BLACK
6
CONTINUOUS
10
0.104106
20
0.0378915
11
0.0990033
21
0.0497213
0
LINE
8
BLACK
6
CONTINUOUS
10
0.0990033
20
0.0497213
11
0.0925616
21
0.0608787
0
LINE
8
BLACK
6
CONTINUOUS
10
0.0925616
20
0.0608787
11
0.0848681
21
0.0712128
0
LINE
8
BLACK
6
CONTINUOUS
10
0.0848681
20
0.0712128
11
0.076027
21
0.0805839
0
LINE
8
BLACK
6
CONTINUOUS
10
0.076027
20
0.0805839
11
0.0661577
21
0.0888652
0
LINE
8
BLACK
6
CONTINUOUS
10
0.0661577
20
0.0888652
11
0.0553937
21
0.0959447
0
LINE
8
BLACK
6
CONTINUOUS
10
0.0553937
20
0.0959447
11
0.0438807
21
0.101727
0
LINE
8
BLACK
6
CONTINUOUS
10
0.0438807
20
0.101727
11
0.0317742
21
0.106133
0
LINE
8
BLACK
6
CONTINUOUS
10
0.0317742
20
0.106133
11
0.019238
21
0.109104
0
LINE
8
BLACK
6
CONTINUOUS
10
0.019238
20
0.109104
11
0.00644173
21
0.1106
0
LINE
8
BLACK
6
CONTINUOUS
10
0.00644173
20
0.1106
11
-0.00644173
21
0.1106
0
LINE
8
BLACK
6
CONTINUOUS
10
-0.00644173
20
0.1106
11
-0.019238
21
0.109104
0
LINE
8
BLACK
6
CONTINUOUS
10
-0.019238
20
0.109104
11
-0.0317742
21
0.106133
0
LINE
8
BLACK
6
CONTINUOUS
10
-0.0317742
20
0.106133
11
-0.0438807
21
0.101727
0
LINE
8
BLACK
6
CONTINUOUS
10
-0.0438807
20
0.101727
11
-0.0553937
21
0.0959447
0
LINE
8
BLACK
6
CONTINUOUS
10
-0.0553937
20
0.0959447
11
-0.0661577
21
0.0888652
0
LINE
8
BLACK
6
CONTINUOUS
10
-0.0661577
20
0.0888652
11
-0.076027
21
0.0805839
0
LINE
8
BLACK
6
CONTINUOUS
10
-0.076027
20
0.0805839
11
-0.0848681
21
0.0712128
0
LINE
8
BLACK
6
CONTINUOUS
10
-0.0848681
20
0.0712128
11
-0.0925616
21
0.0608787
0
LINE
8
BLACK
6
CONTINUOUS
10
-0.0925616
20
0.0608787
11
-0.0990033
21
0.0497213
0
LINE
8
BLACK
6
CONTINUOUS
10
-0.0990033
20
0.0497213
11
-0.104106
21
0.0378915
0
LINE
8
BLACK
6
CONTINUOUS
10
-0.104106
20
0.0378915
11
-0.107801
21
0.0255493
0
LINE
8
BLACK
6
CONTINUOUS
10
-0.107801
20
0.0255493
11
-0.110038
21
0.0128617
0
LINE
8
BLACK
6
CONTINUOUS
10
-0.110038
20
0.0128617
11
-0.110787
21
0
0
LINE
8
BLACK
6
CONTINUOUS
10
-0.110787
20
0
11
-0.110038
21
-0.0128617
0
LINE
8
BLACK
6
CONTINUOUS
10
2.01406
20
0.12481
11
2.02795
21
0.122451
0
LINE
8
BLACK
6
CONTINUOUS
10
2.02795
20
0.122451
11
2.04148
21
0.118552
0
LINE
8
BLACK
6
CONTINUOUS
10
2.04148
20
0.118552
11
2.0545
21
0.113162
0
LINE
8
BLACK
6
CONTINUOUS
10
2.0545
20
0.113162
11
2.06682
21
0.106349
0
LINE
8
BLACK
6
CONTINUOUS
10
2.06682
20
0.106349
11
2.07831
21
0.098198
0
LINE
8
BLACK
6
CONTINUOUS
10
2.07831
20
0.098198
11
2.08881
21
0.0888126
0
LINE
8
BLACK
6
CONTINUOUS
10
2.08881
20
0.0888126
11
2.0982
21
0.0783103
0
LINE
8
BLACK
6
CONTINUOUS
10
2.0982
20
0.0783103
11
2.10635
21
0.0668232
0
LINE
8
BLACK
6
CONTINUOUS
10
2.10635
20
0.0668232
11
2.11316
21
0.0544958
0
LINE
8
BLACK
6
CONTINUOUS
10
2.11316
20
0.0544958
11
2.11855
21
0.041483
0
LINE
8
BLACK
6
CONTINUOUS
10
2.11855
20
0.041483
11
2.12245
21
0.0279486
0
LINE
8
BLACK
6
CONTINUOUS
10
2.12245
20
0.0279486
11
2.12481
21
0.0140628
0
LINE
8
BLACK
6
CONTINUOUS
10
2.12481
20
0.0140628
11
2.1256
21
0
0
LINE
8
BLACK
6
CONTINUOUS
10
2.1256
20
0
11
2.12481
21
-0.0140628
0
LINE
8
BLACK
6
CONTINUOUS
10
2.12481
20
-0.0140628
11
2.12245
21
-0.0279486
0
LINE
8
BLACK
6
CONTINUOUS
10
2.12245
20
-0.0279486
11
2.11855
21
-0.041483
0
LINE
8
BLACK
6
CONTINUOUS
10
2.11855
20
-0.041483
11
2.11316
21
-0.0544958
0
LINE
8
BLACK
6
CONTINUOUS
10
2.11316
20
-0.0544958
11
2.10635
21
-0.0668232
0
LINE
8
BLACK
6
CONTINUOUS
10
2.10635
20
-0.0668232
11
2.0982
21
-0.0783103
0
LINE
8
BLACK
6
CONTINUOUS
10
2.0982
20
-0.0783103
11
2.08881
21
-0.0888126
0
LINE
8
BLACK
6
CONTINUOUS
10
2.08881
20
-0.0888126
11
2.07831
21
-0.098198
0
LINE
8
BLACK
6
CONTINUOUS
10
2.07831
20
-0.098198
11
2.06682
21
-0.106349
0
LINE
8
BLACK
6
CONTINUOUS
10
2.06682
20
-0.106349
11
2.0545
21
-0.113162
0
LINE
8
BLACK
6
CONTINUOUS
10
2.0545
20
-0.113162
11
2.04148
21
-0.118552
0
LINE
8
BLACK
6
CONTINUOUS
10
2.04148
20
-0.118552
11
2.02795
21
-0.122451
0
LINE
8
BLACK
6
CONTINUOUS
10
2.02795
20
-0.122451
11
2.01406
21
-0.12481
0
LINE
8
BLACK
6
CONTINUOUS
10
2.01406
20
-0.12481
11
2
21
-0.1256
0
LINE
8
BLACK
6
CONTINUOUS
10
2
20
-0.1256
11
1.98594
21
-0.12481
0
LINE
8
BLACK
6
CONTINUOUS
10
1.98594
20
-0.12481
11
1.97205
21
-0.122451
0
LINE
8
BLACK
6
CONTINUOUS
10
1.97205
20
-0.122451
11
1.95852
21
-0.118552
0
LINE
8
BLACK
6
CONTINUOUS
10
1.95852
20
-0.118552
11
1.9455
21
-0.113162
0
LINE
8
BLACK
6
CONTINUOUS
10
1.9455
20
-0.113162
11
1.93318
21
-0.106349
0
LINE
8
BLACK
6
CONTINUOUS
10
1.93318
20
-0.106349
11
1.92169
21
-0.098198
0
LINE
8
BLACK
6
CONTINUOUS
10
1.92169
20
-0.098198
11
1.91119
21
-0.0888126
0
LINE
8
BLACK
6
CONTINUOUS
10
1.91119
20
-0.0888126
11
1.9018
21
-0.0783103
0
LINE
8
BLACK
6
CONTINUOUS
10
1.9018
20
-0.0783103
11
1.89365
21
-0.0668232
0
LINE
8
BLACK
6
CONTINUOUS
10
1.89365
20
-0.0668232
11
1.88684
21
-0.0544958
0
LINE
8
BLACK
6
CONTINUOUS
10
1.88684
20
-0.0544958
11
1.88145
21
-0.041483
0
LINE
8
BLACK
6
CONTINUOUS
10
1.88145
20
-0.041483
11
1.87755
21
-0.0279486
0
LINE
8
BLACK
6
CONTINUOUS
10
1.87755
20
-0.0279486
11
1.87519
21
-0.0140628
0
LINE
8
BLACK
6
CONTINUOUS
10
1.87519
20
-0.0140628
11
1.8744
21
0
0
LINE
8
BLACK
6
CONTINUOUS
10
1.8744
20
0
11
1.87519
21
0.0140628
0
LINE
8
BLACK
6
CONTINUOUS
10
1.87519
20
0.0140628
11
1.87755
21
0.0279486
0
LINE
8
BLACK
6
CONTINUOUS
10
1.87755
20
0.0279486
11
1.88145
21
0.041483
0
LINE
8
BLACK
6
CONTINUOUS
10
1.88145
20
0.041483
11
1.88684
21
0.0544958
0
LINE
8
BLACK
6
CONTINUOUS
10
1.88684
20
0.0544958
11
1.89365
21
0.0668232
0
LINE
8
BLACK
6
CONTINUOUS
10
1.89365
20
0.0668232
11
1.9018
21
0.0783103
0
LINE
8
BLACK
6
CONTINUOUS
10
1.9018
20
0.0783103
11
1.91119
21
0.0888126
0
LINE
8
BLACK
6
CONTINUOUS
10
1.91119
20
0.0888126
11
1.92169
21
0.098198
0
LINE
8
BLACK
6
CONTINUOUS
10
1.92169
20
0.098198
11
1.93318
21
0.106349
0
LINE
8
BLACK
6
CONTINUOUS
10
1.93318
20
0.106349
11
1.9455
21
0.113162
0
LINE
8
BLACK
6
CONTINUOUS
10
1.9455
20
0.113162
11
1.95852
21
0.118552
0
LINE
8
BLACK
6
CONTINUOUS
10
1.95852
20
0.118552
11
1.97205
21
0.122451
0
LINE
8
BLACK
6
CONTINUOUS
10
1.97205
20
0.122451
11
1.98594
21
0.12481
0
LINE
8
BLACK
6
CONTINUOUS
10
1.98594
20
0.12481
11
2
21
0.1256
0
LINE
8
BLACK
6
CONTINUOUS
10
2
20
0.1256
11
2.01406
21
0.12481
0
LINE
8
BLACK
6
CONTINUOUS
10
1.88996
20
-0.0128617
11
1.8922
21
-0.0255493
0
LINE
8
BLACK
6
CONTINUOUS
10
1.8922
20
-0.0255493
11
1.89589
21
-0.0378915
0
LINE
8
BLACK
6
CONTINUOUS
10
1.89589
20
-0.0378915
11
1.901
21
-0.0497213
0
LINE
8
BLACK
6
CONTINUOUS
10
1.901
20
-0.0497213
11
1.90744
21
-0.0608787
0
LINE
8
BLACK
6
CONTINUOUS
10
1.90744
20
-0.0608787
11
1.91513
21
-0.0712128
0
LINE
8
BLACK
6
CONTINUOUS
10
1.91513
20
-0.0712128
11
1.92397
21
-0.0805839
0
LINE
8
BLACK
6
CONTINUOUS
10
1.92397
20
-0.0805839
11
1.93384
21
-0.0888652
0
LINE
8
BLACK
6
CONTINUOUS
10
1.93384
20
-0.0888652
11
1.94461
21
-0.0959447
0
LINE
8
BLACK
6
CONTINUOUS
10
1.94461
20
-0.0959447
11
1.95612
21
-0.101727
0
LINE
8
BLACK
6
CONTINUOUS
10
1.95612
20
-0.101727
11
1.96823
21
-0.106133
0
LINE
8
BLACK
6
CONTINUOUS
10
1.96823
20
-0.106133
11
1.98076
21
-0.109104
0
LINE
8
BLACK
6
CONTINUOUS
10
1.98076
20
-0.109104
11
1.99356
21
-0.1106
0
LINE
8
BLACK
6
CONTINUOUS
10
1.99356
20
-0.1106
11
2.00644
21
-0.1106
0
LINE
8
BLACK
6
CONTINUOUS
10
2.00644
20
-0.1106
11
2.01924
21
-0.109104
0
LINE
8
BLACK
6
CONTINUOUS
10
2.01924
20
-0.109104
11
2.03177
21
-0.106133
0
LINE
8
BLACK
6
CONTINUOUS
10
2.03177
20
-0.106133
11
2.04388
21
-0.101727
0
LINE
8
BLACK
6
CONTINUOUS
10
2.04388
20
-0.101727
11
2.05539
21
-0.0959447
0
LINE
8
BLACK
6
CONTINUOUS
10
2.05539
20
-0.0959447
11
2.06616
21
-0.0888652
0
LINE
8
BLACK
6
CONTINUOUS
10
2.06616
20
-0.0888652
11
2.07603
21
-0.0805839
0
LINE
8
BLACK
6
CONTINUOUS
10
2.07603
20
-0.0805839
11
2.08487
21
-0.0712128
0
LINE
8
BLACK
6
CONTINUOUS
10
2.08487
20
-0.0712128
11
2.09256
21
-0.0608787
0
LINE
8
BLACK
6
CONTINUOUS
10
2.09256
20
-0.0608787
11
2.099
21
-0.0497213
0
LINE
8
BLACK
6
CONTINUOUS
10
2.099
20
-0.0497213
11
2.10411
21
-0.0378915
0
LINE
8
BLACK
6
CONTINUOUS
10
2.10411
20
-0.0378915
11
2.1078
21
-0.0255493
0
LINE
8
BLACK
6
CONTINUOUS
10
2.1078
20
-0.0255493
11
2.11004
21
-0.0128617
0
LINE
8
BLACK
6
CONTINUOUS
10
2.11004
20
-0.0128617
11
2.11079
21
0
0
LINE
8
BLACK
6
CONTINUOUS
10
2.11079
20
0
11
2.11004
21
0.0128617
0
LINE
8
BLACK
6
CONTINUOUS
10
2.11004
20
0.0128617
11
2.1078
21
0.0255493
0
LINE
8
BLACK
6
CONTINUOUS
10
2.1078
20
0.0255493
11
2.10411
21
0.0378915
0
LINE
8
BLACK
6
CONTINUOUS
10
2.10411
20
0.0378915
11
2.099
21
0.0497213
0
LINE
8
BLACK
6
CONTINUOUS
10
2.099
20
0.0497213
11
2.09256
21
0.0608787
0
LINE
8
BLACK
6
CONTINUOUS
10
2.09256
20
0.0608787
11
2.08487
21
0.0712128
0
LINE
8
BLACK
6
CONTINUOUS
10
2.08487
20
0.0712128
11
2.07603
21
0.0805839
0
LINE
8
BLACK
6
CONTINUOUS
10
2.07603
20
0.0805839
11
2.06616
21
0.0888652
0
LINE
8
BLACK
6
CONTINUOUS
10
2.06616
20
0.0888652
11
2.05539
21
0.0959447
0
LINE
8
BLACK
6
CONTINUOUS
10
2.05539
20
0.0959447
11
2.04388
21
0.101727
0
LINE
8
BLACK
6
CONTINUOUS
10
2.04388
20
0.101727
11
2.03177
21
0.106133
0
LINE
8
BLACK
6
CONTINUOUS
10
2.03177
20
0.106133
11
2.01924
21
0.109104
0
LINE
8
BLACK
6
CONTINUOUS
10
2.01924
20
0.109104
11
2.00644
21
0.1106
0
LINE
8
BLACK
6
CONTINUOUS
10
2.00644
20
0.1106
11
1.99356
21
0.1106
0
LINE
8
BLACK
6
CONTINUOUS
10
1.99356
20
0.1106
11
1.98076
21
0.109104
0
LINE
8
BLACK
6
CONTINUOUS
10
1.98076
20
0.109104
11
1.96823
21
0.106133
0
LINE
8
BLACK
6
CONTINUOUS
10
1.96823
20
0.106133
11
1.95612
21
0.101727
0
LINE
8
BLACK
6
CONTINUOUS
10
1.95612
20
0.101727
11
1.94461
21
0.0959447
0
LINE
8
BLACK
6
CONTINUOUS
10
1.94461
20
0.0959447
11
1.93384
21
0.0888652
0
LINE
8
BLACK
6
CONTINUOUS
10
1.93384
20
0.0888652
11
1.92397
21
0.0805839
0
LINE
8
BLACK
6
CONTINUOUS
10
1.92397
20
0.0805839
11
1.91513
21
0.0712128
0
LINE
8
BLACK
6
CONTINUOUS
10
1.91513
20
0.0712128
11
1.90744
21
0.0608787
0
LINE
8
BLACK
6
CONTINUOUS
10
1.90744
20
0.0608787
11
1.901
21
0.0497213
0
LINE
8
BLACK
6
CONTINUOUS
10
1.901
20
0.0497213
11
1.89589
21
0.0378915
0
LINE
8
BLACK
6
CONTINUOUS
10
1.89589
20
0.0378915
11
1.8922
21
0.0255493
0
LINE
8
BLACK
6
CONTINUOUS
10
1.8922
20
0.0255493
11
1.88996
21
0.0128617
0
LINE
8
BLACK
6
CONTINUOUS
10
1.88996
20
0.0128617
11
1.88921
21
0
0
LINE
8
BLACK
6
CONTINUOUS
10
1.88921
20
0
11
1.88996
21
-0.0128617
0
LINE
8
BLACK
6
CONTINUOUS
10
0.981596
20
0.100173
11
0.983143
21
0.0988742
0
LINE
8
BLACK
6
CONTINUOUS
10
0.983143
20
0.0988742
11
0.983494
21
0.0968851
0
LINE
8
BLACK
6
CONTINUOUS
10
0.983494
20
0.0968851
11
0.982484
21
0.0951359
0
LINE
8
BLACK
6
CONTINUOUS
10
0.982484
20
0.0951359
11
0.980586
21
0.0944451
0
LINE
8
BLACK
6
CONTINUOUS
10
0.980586
20
0.0944451
11
0.965217
21
0.0944451
0
LINE
8
BLACK
6
CONTINUOUS
10
0.965217
20
0.0944451
11
0.982674
21
0.0769886
0
LINE
8
BLACK
6
CONTINUOUS
10
0.982674
20
0.0769886
11
0.983262
21
0.0761485
0
LINE
8
BLACK
6
CONTINUOUS
10
0.983262
20
0.0761485
11
0.983438
21
0.0741365
0
LINE
8
BLACK
6
CONTINUOUS
10
0.983438
20
0.0741365
11
0.982279
21
0.0724819
0
LINE
8
BLACK
6
CONTINUOUS
10
0.982279
20
0.0724819
11
0.980328
21
0.0719592
0
LINE
8
BLACK
6
CONTINUOUS
10
0.980328
20
0.0719592
11
0.978498
21
0.0728128
0
LINE
8
BLACK
6
CONTINUOUS
10
0.978498
20
0.0728128
11
0.963436
21
0.0878748
0
LINE
8
BLACK
6
CONTINUOUS
10
0.963436
20
0.0878748
11
0.942987
21
0.0725385
0
LINE
8
BLACK
6
CONTINUOUS
10
0.942987
20
0.0725385
11
0.942073
21
0.072075
0
LINE
8
BLACK
6
CONTINUOUS
10
0.942073
20
0.072075
11
0.940056
21
0.0721853
0
LINE
8
BLACK
6
CONTINUOUS
10
0.940056
20
0.0721853
11
0.938582
21
0.0735661
0
LINE
8
BLACK
6
CONTINUOUS
10
0.938582
20
0.0735661
11
0.93834
21
0.0755714
0
LINE
8
BLACK
6
CONTINUOUS
10
0.93834
20
0.0755714
11
0.939444
21
0.0772629
0
LINE
8
BLACK
6
CONTINUOUS
10
0.939444
20
0.0772629
11
0.959218
21
0.092093
0
LINE
8
BLACK
6
CONTINUOUS
10
0.959218
20
0.092093
11
0.956866
21
0.0944451
0
LINE
8
BLACK
6
CONTINUOUS
10
0.956866
20
0.0944451
11
0.941216
21
0.0944451
0
LINE
8
BLACK
6
CONTINUOUS
10
0.941216
20
0.0944451
11
0.940206
21
0.0946231
0
LINE
8
BLACK
6
CONTINUOUS
10
0.940206
20
0.0946231
11
0.938659
21
0.0959215
0
LINE
8
BLACK
6
CONTINUOUS
10
0.938659
20
0.0959215
11
0.938308
21
0.0979106
0
LINE
8
BLACK
6
CONTINUOUS
10
0.938308
20
0.0979106
11
0.939318
21
0.0996598
0
LINE
8
BLACK
6
CONTINUOUS
10
0.939318
20
0.0996598
11
0.941216
21
0.100351
0
LINE
8
BLACK
6
CONTINUOUS
10
0.941216
20
0.100351
11
0.980586
21
0.100351
0
LINE
8
BLACK
6
CONTINUOUS
10
0.980586
20
0.100351
11
0.981596
21
0.100173
0
LINE
8
BLACK
6
CONTINUOUS
10
1.15532
20
0.103913
11
1.15686
21
0.102614
0
LINE
8
BLACK
6
CONTINUOUS
10
1.15686
20
0.102614
11
1.15721
21
0.100625
0
LINE
8
BLACK
6
CONTINUOUS
10
1.15721
20
0.100625
11
1.1562
21
0.0988761
0
LINE
8
BLACK
6
CONTINUOUS
10
1.1562
20
0.0988761
11
1.15431
21
0.0981852
0
LINE
8
BLACK
6
CONTINUOUS
10
1.15431
20
0.0981852
11
1.13894
21
0.0981852
0
LINE
8
BLACK
6
CONTINUOUS
10
1.13894
20
0.0981852
11
1.15639
21
0.0807287
0
LINE
8
BLACK
6
CONTINUOUS
10
1.15639
20
0.0807287
11
1.15698
21
0.0798887
0
LINE
8
BLACK
6
CONTINUOUS
10
1.15698
20
0.0798887
11
1.15716
21
0.0778766
0
LINE
8
BLACK
6
CONTINUOUS
10
1.15716
20
0.0778766
11
1.156
21
0.076222
0
LINE
8
BLACK
6
CONTINUOUS
10
1.156
20
0.076222
11
1.15405
21
0.0756993
0
LINE
8
BLACK
6
CONTINUOUS
10
1.15405
20
0.0756993
11
1.15222
21
0.0765529
0
LINE
8
BLACK
6
CONTINUOUS
10
1.15222
20
0.0765529
11
1.13716
21
0.091615
0
LINE
8
BLACK
6
CONTINUOUS
10
1.13716
20
0.091615
11
1.11671
21
0.0762786
0
LINE
8
BLACK
6
CONTINUOUS
10
1.11671
20
0.0762786
11
1.11579
21
0.0758151
0
LINE
8
BLACK
6
CONTINUOUS
10
1.11579
20
0.0758151
11
1.11378
21
0.0759254
0
LINE
8
BLACK
6
CONTINUOUS
10
1.11378
20
0.0759254
11
1.1123
21
0.0773063
0
LINE
8
BLACK
6
CONTINUOUS
10
1.1123
20
0.0773063
11
1.11206
21
0.0793116
0
LINE
8
BLACK
6
CONTINUOUS
10
1.11206
20
0.0793116
11
1.11316
21
0.081003
0
LINE
8
BLACK
6
CONTINUOUS
10
1.11316
20
0.081003
11
1.13294
21
0.0958332
0
LINE
8
BLACK
6
CONTINUOUS
10
1.13294
20
0.0958332
11
1.13059
21
0.0981852
0
LINE
8
BLACK
6
CONTINUOUS
10
1.13059
20
0.0981852
11
1.11494
21
0.0981852
0
LINE
8
BLACK
6
CONTINUOUS
10
1.11494
20
0.0981852
11
1.11393
21
0.0983633
0
LINE
8
BLACK
6
CONTINUOUS
10
1.11393
20
0.0983633
11
1.11238
21
0.0996616
0
LINE
8
BLACK
6
CONTINUOUS
10
1.11238
20
0.0996616
11
1.11203
21
0.101651
0
LINE
8
BLACK
6
CONTINUOUS
10
1.11203
20
0.101651
11
1.11304
21
0.1034
0
LINE
8
BLACK
6
CONTINUOUS
10
1.11304
20
0.1034
11
1.11494
21
0.104091
0
LINE
8
BLACK
6
CONTINUOUS
10
1.11494
20
0.104091
11
1.15431
21
0.104091
0
LINE
8
BLACK
6
CONTINUOUS
10
1.15431
20
0.104091
11
1.15532
21
0.103913
0
LINE
8
BLACK
6
CONTINUOUS
10
1.04538
20
1.12366
11
1.04607
21
1.12176
0
LINE
8
BLACK
6
CONTINUOUS
10
1.04607
20
1.12176
11
1.04607
21
1.11989
0
LINE
8
BLACK
6
CONTINUOUS
10
1.04607
20
1.11989
11
1.04589
21
1.11888
0
LINE
8
BLACK
6
CONTINUOUS
10
1.04589
20
1.11888
11
1.04578
21
1.11874
0
LINE
8
BLACK
6
CONTINUOUS
10
1.04578
20
1.11874
11
1.04576
21
1.11857
0
LINE
8
BLACK
6
CONTINUOUS
10
1.04576
20
1.11857
11
1.04389
21
1.11482
0
LINE
8
BLACK
6
CONTINUOUS
10
1.04389
20
1.11482
11
1.04336
21
1.11411
0
LINE
8
BLACK
6
CONTINUOUS
10
1.04336
20
1.11411
11
1.04333
21
1.11405
0
LINE
8
BLACK
6
CONTINUOUS
10
1.04333
20
1.11405
11
1.04146
21
1.11218
0
LINE
8
BLACK
6
CONTINUOUS
10
1.04146
20
1.11218
11
1.04062
21
1.11159
0
LINE
8
BLACK
6
CONTINUOUS
10
1.04062
20
1.11159
11
1.03861
21
1.11141
0
LINE
8
BLACK
6
CONTINUOUS
10
1.03861
20
1.11141
11
1.03695
21
1.11257
0
LINE
8
BLACK
6
CONTINUOUS
10
1.03695
20
1.11257
11
1.03643
21
1.11452
0
LINE
8
BLACK
6
CONTINUOUS
10
1.03643
20
1.11452
11
1.03728
21
1.11635
0
LINE
8
BLACK
6
CONTINUOUS
10
1.03728
20
1.11635
11
1.03882
21
1.11789
0
LINE
8
BLACK
6
CONTINUOUS
10
1.03882
20
1.11789
11
1.04017
21
1.12059
0
LINE
8
BLACK
6
CONTINUOUS
10
1.04017
20
1.12059
11
1.04017
21
1.12176
0
LINE
8
BLACK
6
CONTINUOUS
10
1.04017
20
1.12176
11
1.04034
21
1.12277
0
LINE
8
BLACK
6
CONTINUOUS
10
1.04034
20
1.12277
11
1.04164
21
1.12432
0
LINE
8
BLACK
6
CONTINUOUS
10
1.04164
20
1.12432
11
1.04363
21
1.12467
0
LINE
8
BLACK
6
CONTINUOUS
10
1.04363
20
1.12467
11
1.04538
21
1.12366
0
LINE
8
BLACK
6
CONTINUOUS
10
0.457328
20
1.16203
11
0.458875
21
1.16074
0
LINE
8
BLACK
6
CONTINUOUS
10
0.458875
20
1.16074
11
0.459226
21
1.15875
0
LINE
8
BLACK
6
CONTINUOUS
10
0.459226
20
1.15875
11
0.458216
21
1.157
0
LINE
8
BLACK
6
CONTINUOUS
10
0.458216
20
1.157
11
0.456318
21
1.15631
0
LINE
8
BLACK
6
CONTINUOUS
10
0.456318
20
1.15631
11
0.440523
21
1.15631
0
LINE
8
BLACK
6
CONTINUOUS
10
0.440523
20
1.15631
11
0.440523
21
1.14346
0
LINE
8
BLACK
6
CONTINUOUS
10
0.440523
20
1.14346
11
0.450694
21
1.14346
0
LINE
8
BLACK
6
CONTINUOUS
10
0.450694
20
1.14346
11
0.451704
21
1.14329
0
LINE
8
BLACK
6
CONTINUOUS
10
0.451704
20
1.14329
11
0.453251
21
1.14199
0
LINE
8
BLACK
6
CONTINUOUS
10
0.453251
20
1.14199
11
0.453602
21
1.14
0
LINE
8
BLACK
6
CONTINUOUS
10
0.453602
20
1.14
11
0.452592
21
1.13825
0
LINE
8
BLACK
6
CONTINUOUS
10
0.452592
20
1.13825
11
0.450694
21
1.13756
0
LINE
8
BLACK
6
CONTINUOUS
10
0.450694
20
1.13756
11
0.440523
21
1.13756
0
LINE
8
BLACK
6
CONTINUOUS
10
0.440523
20
1.13756
11
0.440523
21
1.12284
0
LINE
8
BLACK
6
CONTINUOUS
10
0.440523
20
1.12284
11
0.456318
21
1.12284
0
LINE
8
BLACK
6
CONTINUOUS
10
0.456318
20
1.12284
11
0.457328
21
1.12266
0
LINE
8
BLACK
6
CONTINUOUS
10
0.457328
20
1.12266
11
0.458875
21
1.12137
0
LINE
8
BLACK
6
CONTINUOUS
10
0.458875
20
1.12137
11
0.459226
21
1.11938
0
LINE
8
BLACK
6
CONTINUOUS
10
0.459226
20
1.11938
11
0.458216
21
1.11763
0
LINE
8
BLACK
6
CONTINUOUS
10
0.458216
20
1.11763
11
0.456318
21
1.11694
0
LINE
8
BLACK
6
CONTINUOUS
10
0.456318
20
1.11694
11
0.43757
21
1.11694
0
LINE
8
BLACK
6
CONTINUOUS
10
0.43757
20
1.11694
11
0.437187
21
1.117
0
LINE
8
BLACK
6
CONTINUOUS
10
0.437187
20
1.117
11
0.437058
21
1.11698
0
LINE
8
BLACK
6
CONTINUOUS
10
0.437058
20
1.11698
11
0.436944
21
1.11705
0
LINE
8
BLACK
6
CONTINUOUS
10
0.436944
20
1.11705
11
0.43656
21
1.11711
0
LINE
8
BLACK
6
CONTINUOUS
10
0.43656
20
1.11711
11
0.435973
21
1.11761
0
LINE
8
BLACK
6
CONTINUOUS
10
0.435973
20
1.11761
11
0.435308
21
1.11799
0
LINE
8
BLACK
6
CONTINUOUS
10
0.435308
20
1.11799
11
0.435217
21
1.11824
0
LINE
8
BLACK
6
CONTINUOUS
10
0.435217
20
1.11824
11
0.435013
21
1.11841
0
LINE
8
BLACK
6
CONTINUOUS
10
0.435013
20
1.11841
11
0.43488
21
1.11917
0
LINE
8
BLACK
6
CONTINUOUS
10
0.43488
20
1.11917
11
0.434618
21
1.11989
0
LINE
8
BLACK
6
CONTINUOUS
10
0.434618
20
1.11989
11
0.434618
21
1.15926
0
LINE
8
BLACK
6
CONTINUOUS
10
0.434618
20
1.15926
11
0.434685
21
1.15964
0
LINE
8
BLACK
6
CONTINUOUS
10
0.434685
20
1.15964
11
0.434662
21
1.15977
0
LINE
8
BLACK
6
CONTINUOUS
10
0.434662
20
1.15977
11
0.434728
21
1.15989
0
LINE
8
BLACK
6
CONTINUOUS
10
0.434728
20
1.15989
11
0.434796
21
1.16027
0
LINE
8
BLACK
6
CONTINUOUS
10
0.434796
20
1.16027
11
0.435289
21
1.16086
0
LINE
8
BLACK
6
CONTINUOUS
10
0.435289
20
1.16086
11
0.435672
21
1.16152
0
LINE
8
BLACK
6
CONTINUOUS
10
0.435672
20
1.16152
11
0.435923
21
1.16161
0
LINE
8
BLACK
6
CONTINUOUS
10
0.435923
20
1.16161
11
0.436094
21
1.16182
0
LINE
8
BLACK
6
CONTINUOUS
10
0.436094
20
1.16182
11
0.436849
21
1.16195
0
LINE
8
BLACK
6
CONTINUOUS
10
0.436849
20
1.16195
11
0.43757
21
1.16221
0
LINE
8
BLACK
6
CONTINUOUS
10
0.43757
20
1.16221
11
0.456318
21
1.16221
0
LINE
8
BLACK
6
CONTINUOUS
10
0.456318
20
1.16221
11
0.457328
21
1.16203
0
LINE
8
BLACK
6
CONTINUOUS
10
0.552941
20
1.16203
11
0.553076
21
1.16192
0
LINE
8
BLACK
6
CONTINUOUS
10
0.553076
20
1.16192
11
0.553251
21
1.1619
0
LINE
8
BLACK
6
CONTINUOUS
10
0.553251
20
1.1619
11
0.557001
21
1.16003
0
LINE
8
BLACK
6
CONTINUOUS
10
0.557001
20
1.16003
11
0.55771
21
1.1595
0
LINE
8
BLACK
6
CONTINUOUS
10
0.55771
20
1.1595
11
0.557768
21
1.15947
0
LINE
8
BLACK
6
CONTINUOUS
10
0.557768
20
1.15947
11
0.561518
21
1.15572
0
LINE
8
BLACK
6
CONTINUOUS
10
0.561518
20
1.15572
11
0.562106
21
1.15488
0
LINE
8
BLACK
6
CONTINUOUS
10
0.562106
20
1.15488
11
0.562132
21
1.15459
0
LINE
8
BLACK
6
CONTINUOUS
10
0.562132
20
1.15459
11
0.562295
21
1.15435
0
LINE
8
BLACK
6
CONTINUOUS
10
0.562295
20
1.15435
11
0.564169
21
1.14685
0
LINE
8
BLACK
6
CONTINUOUS
10
0.564169
20
1.14685
11
0.564211
21
1.14626
0
LINE
8
BLACK
6
CONTINUOUS
10
0.564211
20
1.14626
11
0.564258
21
1.14614
0
LINE
8
BLACK
6
CONTINUOUS
10
0.564258
20
1.14614
11
0.564258
21
1.13301
0
LINE
8
BLACK
6
CONTINUOUS
10
0.564258
20
1.13301
11
0.564155
21
1.13243
0
LINE
8
BLACK
6
CONTINUOUS
10
0.564155
20
1.13243
11
0.564169
21
1.1323
0
LINE
8
BLACK
6
CONTINUOUS
10
0.564169
20
1.1323
11
0.562295
21
1.1248
0
LINE
8
BLACK
6
CONTINUOUS
10
0.562295
20
1.1248
11
0.561877
21
1.12386
0
LINE
8
BLACK
6
CONTINUOUS
10
0.561877
20
1.12386
11
0.561641
21
1.12369
0
LINE
8
BLACK
6
CONTINUOUS
10
0.561641
20
1.12369
11
0.561518
21
1.12343
0
LINE
8
BLACK
6
CONTINUOUS
10
0.561518
20
1.12343
11
0.557768
21
1.11968
0
LINE
8
BLACK
6
CONTINUOUS
10
0.557768
20
1.11968
11
0.557045
21
1.11917
0
LINE
8
BLACK
6
CONTINUOUS
10
0.557045
20
1.11917
11
0.557001
21
1.11912
0
LINE
8
BLACK
6
CONTINUOUS
10
0.557001
20
1.11912
11
0.553251
21
1.11725
0
LINE
8
BLACK
6
CONTINUOUS
10
0.553251
20
1.11725
11
0.552269
21
1.11696
0
LINE
8
BLACK
6
CONTINUOUS
10
0.552269
20
1.11696
11
0.552097
21
1.117
0
LINE
8
BLACK
6
CONTINUOUS
10
0.552097
20
1.117
11
0.551931
21
1.11694
0
LINE
8
BLACK
6
CONTINUOUS
10
0.551931
20
1.11694
11
0.544432
21
1.11694
0
LINE
8
BLACK
6
CONTINUOUS
10
0.544432
20
1.11694
11
0.543422
21
1.11711
0
LINE
8
BLACK
6
CONTINUOUS
10
0.543422
20
1.11711
11
0.543287
21
1.11723
0
LINE
8
BLACK
6
CONTINUOUS
10
0.543287
20
1.11723
11
0.543111
21
1.11725
0
LINE
8
BLACK
6
CONTINUOUS
10
0.543111
20
1.11725
11
0.539362
21
1.11912
0
LINE
8
BLACK
6
CONTINUOUS
10
0.539362
20
1.11912
11
0.538653
21
1.11965
0
LINE
8
BLACK
6
CONTINUOUS
10
0.538653
20
1.11965
11
0.538594
21
1.11968
0
LINE
8
BLACK
6
CONTINUOUS
10
0.538594
20
1.11968
11
0.534845
21
1.12343
0
LINE
8
BLACK
6
CONTINUOUS
10
0.534845
20
1.12343
11
0.534257
21
1.12427
0
LINE
8
BLACK
6
CONTINUOUS
10
0.534257
20
1.12427
11
0.534231
21
1.12456
0
LINE
8
BLACK
6
CONTINUOUS
10
0.534231
20
1.12456
11
0.534068
21
1.1248
0
LINE
8
BLACK
6
CONTINUOUS
10
0.534068
20
1.1248
11
0.532194
21
1.1323
0
LINE
8
BLACK
6
CONTINUOUS
10
0.532194
20
1.1323
11
0.532152
21
1.13288
0
LINE
8
BLACK
6
CONTINUOUS
10
0.532152
20
1.13288
11
0.532105
21
1.13301
0
LINE
8
BLACK
6
CONTINUOUS
10
0.532105
20
1.13301
11
0.532105
21
1.14614
0
LINE
8
BLACK
6
CONTINUOUS
10
0.532105
20
1.14614
11
0.532208
21
1.14672
0
LINE
8
BLACK
6
CONTINUOUS
10
0.532208
20
1.14672
11
0.532194
21
1.14685
0
LINE
8
BLACK
6
CONTINUOUS
10
0.532194
20
1.14685
11
0.534068
21
1.15435
0
LINE
8
BLACK
6
CONTINUOUS
10
0.534068
20
1.15435
11
0.534486
21
1.15529
0
LINE
8
BLACK
6
CONTINUOUS
10
0.534486
20
1.15529
11
0.534722
21
1.15546
0
LINE
8
BLACK
6
CONTINUOUS
10
0.534722
20
1.15546
11
0.534845
21
1.15572
0
LINE
8
BLACK
6
CONTINUOUS
10
0.534845
20
1.15572
11
0.538594
21
1.15947
0
LINE
8
BLACK
6
CONTINUOUS
10
0.538594
20
1.15947
11
0.539318
21
1.15998
0
LINE
8
BLACK
6
CONTINUOUS
10
0.539318
20
1.15998
11
0.539362
21
1.16003
0
LINE
8
BLACK
6
CONTINUOUS
10
0.539362
20
1.16003
11
0.543111
21
1.1619
0
LINE
8
BLACK
6
CONTINUOUS
10
0.543111
20
1.1619
11
0.544094
21
1.16219
0
LINE
8
BLACK
6
CONTINUOUS
10
0.544094
20
1.16219
11
0.544266
21
1.16215
0
LINE
8
BLACK
6
CONTINUOUS
10
0.544266
20
1.16215
11
0.544432
21
1.16221
0
LINE
8
BLACK
6
CONTINUOUS
10
0.544432
20
1.16221
11
0.551931
21
1.16221
0
LINE
8
BLACK
6
CONTINUOUS
10
0.551931
20
1.16221
11
0.552941
21
1.16203
0
LINE
8
BLACK
6
CONTINUOUS
10
0.542431
20
1.15496
11
0.539599
21
1.15213
0
LINE
8
BLACK
6
CONTINUOUS
10
0.539599
20
1.15213
11
0.538011
21
1.14577
0
LINE
8
BLACK
6
CONTINUOUS
10
0.538011
20
1.14577
11
0.538011
21
1.13338
0
LINE
8
BLACK
6
CONTINUOUS
10
0.538011
20
1.13338
11
0.539599
21
1.12702
0
LINE
8
BLACK
6
CONTINUOUS
10
0.539599
20
1.12702
11
0.542431
21
1.12419
0
LINE
8
BLACK
6
CONTINUOUS
10
0.542431
20
1.12419
11
0.545129
21
1.12284
0
LINE
8
BLACK
6
CONTINUOUS
10
0.545129
20
1.12284
11
0.551234
21
1.12284
0
LINE
8
BLACK
6
CONTINUOUS
10
0.551234
20
1.12284
11
0.553931
21
1.12419
0
LINE
8
BLACK
6
CONTINUOUS
10
0.553931
20
1.12419
11
0.556764
21
1.12702
0
LINE
8
BLACK
6
CONTINUOUS
10
0.556764
20
1.12702
11
0.558352
21
1.13338
0
LINE
8
BLACK
6
CONTINUOUS
10
0.558352
20
1.13338
11
0.558352
21
1.14577
0
LINE
8
BLACK
6
CONTINUOUS
10
0.558352
20
1.14577
11
0.556764
21
1.15213
0
LINE
8
BLACK
6
CONTINUOUS
10
0.556764
20
1.15213
11
0.553931
21
1.15496
0
LINE
8
BLACK
6
CONTINUOUS
10
0.553931
20
1.15496
11
0.551234
21
1.15631
0
LINE
8
BLACK
6
CONTINUOUS
10
0.551234
20
1.15631
11
0.545129
21
1.15631
0
LINE
8
BLACK
6
CONTINUOUS
10
0.545129
20
1.15631
11
0.542431
21
1.15496
0
LINE
8
BLACK
6
CONTINUOUS
10
0.58044
20
1.16116
11
0.58113
21
1.15926
0
LINE
8
BLACK
6
CONTINUOUS
10
0.58113
20
1.15926
11
0.58113
21
1.12284
0
LINE
8
BLACK
6
CONTINUOUS
10
0.58113
20
1.12284
11
0.596925
21
1.12284
0
LINE
8
BLACK
6
CONTINUOUS
10
0.596925
20
1.12284
11
0.597935
21
1.12266
0
LINE
8
BLACK
6
CONTINUOUS
10
0.597935
20
1.12266
11
0.599483
21
1.12137
0
LINE
8
BLACK
6
CONTINUOUS
10
0.599483
20
1.12137
11
0.599833
21
1.11938
0
LINE
8
BLACK
6
CONTINUOUS
10
0.599833
20
1.11938
11
0.598823
21
1.11763
0
LINE
8
BLACK
6
CONTINUOUS
10
0.598823
20
1.11763
11
0.596925
21
1.11694
0
LINE
8
BLACK
6
CONTINUOUS
10
0.596925
20
1.11694
11
0.578178
21
1.11694
0
LINE
8
BLACK
6
CONTINUOUS
10
0.578178
20
1.11694
11
0.577794
21
1.117
0
LINE
8
BLACK
6
CONTINUOUS
10
0.577794
20
1.117
11
0.577665
21
1.11698
0
LINE
8
BLACK
6
CONTINUOUS
10
0.577665
20
1.11698
11
0.577551
21
1.11705
0
LINE
8
BLACK
6
CONTINUOUS
10
0.577551
20
1.11705
11
0.577168
21
1.11711
0
LINE
8
BLACK
6
CONTINUOUS
10
0.577168
20
1.11711
11
0.57658
21
1.11761
0
LINE
8
BLACK
6
CONTINUOUS
10
0.57658
20
1.11761
11
0.575916
21
1.11799
0
LINE
8
BLACK
6
CONTINUOUS
10
0.575916
20
1.11799
11
0.575825
21
1.11824
0
LINE
8
BLACK
6
CONTINUOUS
10
0.575825
20
1.11824
11
0.575621
21
1.11841
0
LINE
8
BLACK
6
CONTINUOUS
10
0.575621
20
1.11841
11
0.575487
21
1.11917
0
LINE
8
BLACK
6
CONTINUOUS
10
0.575487
20
1.11917
11
0.575225
21
1.11989
0
LINE
8
BLACK
6
CONTINUOUS
10
0.575225
20
1.11989
11
0.575225
21
1.15926
0
LINE
8
BLACK
6
CONTINUOUS
10
0.575225
20
1.15926
11
0.575403
21
1.16027
0
LINE
8
BLACK
6
CONTINUOUS
10
0.575403
20
1.16027
11
0.576701
21
1.16182
0
LINE
8
BLACK
6
CONTINUOUS
10
0.576701
20
1.16182
11
0.57869
21
1.16217
0
LINE
8
BLACK
6
CONTINUOUS
10
0.57869
20
1.16217
11
0.58044
21
1.16116
0
LINE
8
BLACK
6
CONTINUOUS
10
0.629806
20
1.16203
11
0.631354
21
1.16074
0
LINE
8
BLACK
6
CONTINUOUS
10
0.631354
20
1.16074
11
0.631704
21
1.15875
0
LINE
8
BLACK
6
CONTINUOUS
10
0.631704
20
1.15875
11
0.630694
21
1.157
0
LINE
8
BLACK
6
CONTINUOUS
10
0.630694
20
1.157
11
0.628796
21
1.15631
0
LINE
8
BLACK
6
CONTINUOUS
10
0.628796
20
1.15631
11
0.613001
21
1.15631
0
LINE
8
BLACK
6
CONTINUOUS
10
0.613001
20
1.15631
11
0.613001
21
1.14346
0
LINE
8
BLACK
6
CONTINUOUS
10
0.613001
20
1.14346
11
0.623172
21
1.14346
0
LINE
8
BLACK
6
CONTINUOUS
10
0.623172
20
1.14346
11
0.624182
21
1.14329
0
LINE
8
BLACK
6
CONTINUOUS
10
0.624182
20
1.14329
11
0.625729
21
1.14199
0
LINE
8
BLACK
6
CONTINUOUS
10
0.625729
20
1.14199
11
0.62608
21
1.14
0
LINE
8
BLACK
6
CONTINUOUS
10
0.62608
20
1.14
11
0.62507
21
1.13825
0
LINE
8
BLACK
6
CONTINUOUS
10
0.62507
20
1.13825
11
0.623172
21
1.13756
0
LINE
8
BLACK
6
CONTINUOUS
10
0.623172
20
1.13756
11
0.613001
21
1.13756
0
LINE
8
BLACK
6
CONTINUOUS
10
0.613001
20
1.13756
11
0.613001
21
1.12284
0
LINE
8
BLACK
6
CONTINUOUS
10
0.613001
20
1.12284
11
0.628796
21
1.12284
0
LINE
8
BLACK
6
CONTINUOUS
10
0.628796
20
1.12284
11
0.629806
21
1.12266
0
LINE
8
BLACK
6
CONTINUOUS
10
0.629806
20
1.12266
11
0.631354
21
1.12137
0
LINE
8
BLACK
6
CONTINUOUS
10
0.631354
20
1.12137
11
0.631704
21
1.11938
0
LINE
8
BLACK
6
CONTINUOUS
10
0.631704
20
1.11938
11
0.630694
21
1.11763
0
LINE
8
BLACK
6
CONTINUOUS
10
0.630694
20
1.11763
11
0.628796
21
1.11694
0
LINE
8
BLACK
6
CONTINUOUS
10
0.628796
20
1.11694
11
0.610049
21
1.11694
0
LINE
8
BLACK
6
CONTINUOUS
10
0.610049
20
1.11694
11
0.609665
21
1.117
0
LINE
8
BLACK
6
CONTINUOUS
10
0.609665
20
1.117
11
0.609536
21
1.11698
0
LINE
8
BLACK
6
CONTINUOUS
10
0.609536
20
1.11698
11
0.609422
21
1.11705
0
LINE
8
BLACK
6
CONTINUOUS
10
0.609422
20
1.11705
11
0.609039
21
1.11711
0
LINE
8
BLACK
6
CONTINUOUS
10
0.609039
20
1.11711
11
0.608451
21
1.11761
0
LINE
8
BLACK
6
CONTINUOUS
10
0.608451
20
1.11761
11
0.607787
21
1.11799
0
LINE
8
BLACK
6
CONTINUOUS
10
0.607787
20
1.11799
11
0.607696
21
1.11824
0
LINE
8
BLACK
6
CONTINUOUS
10
0.607696
20
1.11824
11
0.607492
21
1.11841
0
LINE
8
BLACK
6
CONTINUOUS
10
0.607492
20
1.11841
11
0.607358
21
1.11917
0
LINE
8
BLACK
6
CONTINUOUS
10
0.607358
20
1.11917
11
0.607096
21
1.11989
0
LINE
8
BLACK
6
CONTINUOUS
10
0.607096
20
1.11989
11
0.607096
21
1.15926
0
LINE
8
BLACK
6
CONTINUOUS
10
0.607096
20
1.15926
11
0.607164
21
1.15964
0
LINE
8
BLACK
6
CONTINUOUS
10
0.607164
20
1.15964
11
0.607141
21
1.15977
0
LINE
8
BLACK
6
CONTINUOUS
10
0.607141
20
1.15977
11
0.607206
21
1.15989
0
LINE
8
BLACK
6
CONTINUOUS
10
0.607206
20
1.15989
11
0.607274
21
1.16027
0
LINE
8
BLACK
6
CONTINUOUS
10
0.607274
20
1.16027
11
0.607767
21
1.16086
0
LINE
8
BLACK
6
CONTINUOUS
10
0.607767
20
1.16086
11
0.608151
21
1.16152
0
LINE
8
BLACK
6
CONTINUOUS
10
0.608151
20
1.16152
11
0.608401
21
1.16161
0
LINE
8
BLACK
6
CONTINUOUS
10
0.608401
20
1.16161
11
0.608572
21
1.16182
0
LINE
8
BLACK
6
CONTINUOUS
10
0.608572
20
1.16182
11
0.609328
21
1.16195
0
LINE
8
BLACK
6
CONTINUOUS
10
0.609328
20
1.16195
11
0.610049
21
1.16221
0
LINE
8
BLACK
6
CONTINUOUS
10
0.610049
20
1.16221
11
0.628796
21
1.16221
0
LINE
8
BLACK
6
CONTINUOUS
10
0.628796
20
1.16221
11
0.629806
21
1.16203
0
LINE
8
BLACK
6
CONTINUOUS
10
0.655912
20
1.16206
11
0.655977
21
1.16206
0
LINE
8
BLACK
6
CONTINUOUS
10
0.655977
20
1.16206
11
0.661601
21
1.16019
0
LINE
8
BLACK
6
CONTINUOUS
10
0.661601
20
1.16019
11
0.662503
21
1.1597
0
LINE
8
BLACK
6
CONTINUOUS
10
0.662503
20
1.1597
11
0.662595
21
1.15955
0
LINE
8
BLACK
6
CONTINUOUS
10
0.662595
20
1.15955
11
0.662755
21
1.15947
0
LINE
8
BLACK
6
CONTINUOUS
10
0.662755
20
1.15947
11
0.666505
21
1.15572
0
LINE
8
BLACK
6
CONTINUOUS
10
0.666505
20
1.15572
11
0.667011
21
1.155
0
LINE
8
BLACK
6
CONTINUOUS
10
0.667011
20
1.155
11
0.667058
21
1.15496
0
LINE
8
BLACK
6
CONTINUOUS
10
0.667058
20
1.15496
11
0.668933
21
1.15121
0
LINE
8
BLACK
6
CONTINUOUS
10
0.668933
20
1.15121
11
0.669078
21
1.15072
0
LINE
8
BLACK
6
CONTINUOUS
10
0.669078
20
1.15072
11
0.669156
21
1.1506
0
LINE
8
BLACK
6
CONTINUOUS
10
0.669156
20
1.1506
11
0.671031
21
1.1431
0
LINE
8
BLACK
6
CONTINUOUS
10
0.671031
20
1.1431
11
0.671073
21
1.14251
0
LINE
8
BLACK
6
CONTINUOUS
10
0.671073
20
1.14251
11
0.671119
21
1.14239
0
LINE
8
BLACK
6
CONTINUOUS
10
0.671119
20
1.14239
11
0.671119
21
1.13676
0
LINE
8
BLACK
6
CONTINUOUS
10
0.671119
20
1.13676
11
0.671017
21
1.13618
0
LINE
8
BLACK
6
CONTINUOUS
10
0.671017
20
1.13618
11
0.671031
21
1.13605
0
LINE
8
BLACK
6
CONTINUOUS
10
0.671031
20
1.13605
11
0.669156
21
1.12855
0
LINE
8
BLACK
6
CONTINUOUS
10
0.669156
20
1.12855
11
0.668949
21
1.12808
0
LINE
8
BLACK
6
CONTINUOUS
10
0.668949
20
1.12808
11
0.668933
21
1.12794
0
LINE
8
BLACK
6
CONTINUOUS
10
0.668933
20
1.12794
11
0.667058
21
1.12419
0
LINE
8
BLACK
6
CONTINUOUS
10
0.667058
20
1.12419
11
0.666532
21
1.12348
0
LINE
8
BLACK
6
CONTINUOUS
10
0.666532
20
1.12348
11
0.666505
21
1.12343
0
LINE
8
BLACK
6
CONTINUOUS
10
0.666505
20
1.12343
11
0.662755
21
1.11968
0
LINE
8
BLACK
6
CONTINUOUS
10
0.662755
20
1.11968
11
0.661915
21
1.11909
0
LINE
8
BLACK
6
CONTINUOUS
10
0.661915
20
1.11909
11
0.661739
21
1.11907
0
LINE
8
BLACK
6
CONTINUOUS
10
0.661739
20
1.11907
11
0.661601
21
1.11896
0
LINE
8
BLACK
6
CONTINUOUS
10
0.661601
20
1.11896
11
0.655977
21
1.11709
0
LINE
8
BLACK
6
CONTINUOUS
10
0.655977
20
1.11709
11
0.655104
21
1.11696
0
LINE
8
BLACK
6
CONTINUOUS
10
0.655104
20
1.11696
11
0.655043
21
1.11694
0
LINE
8
BLACK
6
CONTINUOUS
10
0.655043
20
1.11694
11
0.645669
21
1.11694
0
LINE
8
BLACK
6
CONTINUOUS
10
0.645669
20
1.11694
11
0.645286
21
1.117
0
LINE
8
BLACK
6
CONTINUOUS
10
0.645286
20
1.117
11
0.645157
21
1.11698
0
LINE
8
BLACK
6
CONTINUOUS
10
0.645157
20
1.11698
11
0.645043
21
1.11705
0
LINE
8
BLACK
6
CONTINUOUS
10
0.645043
20
1.11705
11
0.644659
21
1.11711
0
LINE
8
BLACK
6
CONTINUOUS
10
0.644659
20
1.11711
11
0.644072
21
1.11761
0
LINE
8
BLACK
6
CONTINUOUS
10
0.644072
20
1.11761
11
0.643407
21
1.11799
0
LINE
8
BLACK
6
CONTINUOUS
10
0.643407
20
1.11799
11
0.643316
21
1.11824
0
LINE
8
BLACK
6
CONTINUOUS
10
0.643316
20
1.11824
11
0.643112
21
1.11841
0
LINE
8
BLACK
6
CONTINUOUS
10
0.643112
20
1.11841
11
0.642979
21
1.11917
0
LINE
8
BLACK
6
CONTINUOUS
10
0.642979
20
1.11917
11
0.642717
21
1.11989
0
LINE
8
BLACK
6
CONTINUOUS
10
0.642717
20
1.11989
11
0.642717
21
1.15926
0
LINE
8
BLACK
6
CONTINUOUS
10
0.642717
20
1.15926
11
0.642784
21
1.15964
0
LINE
8
BLACK
6
CONTINUOUS
10
0.642784
20
1.15964
11
0.642761
21
1.15977
0
LINE
8
BLACK
6
CONTINUOUS
10
0.642761
20
1.15977
11
0.642827
21
1.15989
0
LINE
8
BLACK
6
CONTINUOUS
10
0.642827
20
1.15989
11
0.642895
21
1.16027
0
LINE
8
BLACK
6
CONTINUOUS
10
0.642895
20
1.16027
11
0.643388
21
1.16086
0
LINE
8
BLACK
6
CONTINUOUS
10
0.643388
20
1.16086
11
0.643771
21
1.16152
0
LINE
8
BLACK
6
CONTINUOUS
10
0.643771
20
1.16152
11
0.644022
21
1.16161
0
LINE
8
BLACK
6
CONTINUOUS
10
0.644022
20
1.16161
11
0.644193
21
1.16182
0
LINE
8
BLACK
6
CONTINUOUS
10
0.644193
20
1.16182
11
0.644948
21
1.16195
0
LINE
8
BLACK
6
CONTINUOUS
10
0.644948
20
1.16195
11
0.645669
21
1.16221
0
LINE
8
BLACK
6
CONTINUOUS
10
0.645669
20
1.16221
11
0.655043
21
1.16221
0
LINE
8
BLACK
6
CONTINUOUS
10
0.655043
20
1.16221
11
0.655912
21
1.16206
0
LINE
8
BLACK
6
CONTINUOUS
10
0.648622
20
1.12284
11
0.654564
21
1.12284
0
LINE
8
BLACK
6
CONTINUOUS
10
0.654564
20
1.12284
11
0.659072
21
1.12434
0
LINE
8
BLACK
6
CONTINUOUS
10
0.659072
20
1.12434
11
0.66199
21
1.12726
0
LINE
8
BLACK
6
CONTINUOUS
10
0.66199
20
1.12726
11
0.663506
21
1.13029
0
LINE
8
BLACK
6
CONTINUOUS
10
0.663506
20
1.13029
11
0.665214
21
1.13713
0
LINE
8
BLACK
6
CONTINUOUS
10
0.665214
20
1.13713
11
0.665214
21
1.14202
0
LINE
8
BLACK
6
CONTINUOUS
10
0.665214
20
1.14202
11
0.663506
21
1.14885
0
LINE
8
BLACK
6
CONTINUOUS
10
0.663506
20
1.14885
11
0.66199
21
1.15189
0
LINE
8
BLACK
6
CONTINUOUS
10
0.66199
20
1.15189
11
0.659072
21
1.1548
0
LINE
8
BLACK
6
CONTINUOUS
10
0.659072
20
1.1548
11
0.654564
21
1.15631
0
LINE
8
BLACK
6
CONTINUOUS
10
0.654564
20
1.15631
11
0.648622
21
1.15631
0
LINE
8
BLACK
6
CONTINUOUS
10
0.648622
20
1.15631
11
0.648622
21
1.12284
0
LINE
8
BLACK
6
CONTINUOUS
10
0.739753
20
1.16214
11
0.73992
21
1.16217
0
LINE
8
BLACK
6
CONTINUOUS
10
0.73992
20
1.16217
11
0.740662
21
1.16174
0
LINE
8
BLACK
6
CONTINUOUS
10
0.740662
20
1.16174
11
0.741447
21
1.16139
0
LINE
8
BLACK
6
CONTINUOUS
10
0.741447
20
1.16139
11
0.741522
21
1.16124
0
LINE
8
BLACK
6
CONTINUOUS
10
0.741522
20
1.16124
11
0.741669
21
1.16116
0
LINE
8
BLACK
6
CONTINUOUS
10
0.741669
20
1.16116
11
0.741963
21
1.16035
0
LINE
8
BLACK
6
CONTINUOUS
10
0.741963
20
1.16035
11
0.742342
21
1.15958
0
LINE
8
BLACK
6
CONTINUOUS
10
0.742342
20
1.15958
11
0.742302
21
1.15942
0
LINE
8
BLACK
6
CONTINUOUS
10
0.742302
20
1.15942
11
0.74236
21
1.15926
0
LINE
8
BLACK
6
CONTINUOUS
10
0.74236
20
1.15926
11
0.74236
21
1.12284
0
LINE
8
BLACK
6
CONTINUOUS
10
0.74236
20
1.12284
11
0.750656
21
1.12284
0
LINE
8
BLACK
6
CONTINUOUS
10
0.750656
20
1.12284
11
0.751666
21
1.12266
0
LINE
8
BLACK
6
CONTINUOUS
10
0.751666
20
1.12266
11
0.753213
21
1.12137
0
LINE
8
BLACK
6
CONTINUOUS
10
0.753213
20
1.12137
11
0.753564
21
1.11938
0
LINE
8
BLACK
6
CONTINUOUS
10
0.753564
20
1.11938
11
0.752554
21
1.11763
0
LINE
8
BLACK
6
CONTINUOUS
10
0.752554
20
1.11763
11
0.750656
21
1.11694
0
LINE
8
BLACK
6
CONTINUOUS
10
0.750656
20
1.11694
11
0.728159
21
1.11694
0
LINE
8
BLACK
6
CONTINUOUS
10
0.728159
20
1.11694
11
0.727149
21
1.11711
0
LINE
8
BLACK
6
CONTINUOUS
10
0.727149
20
1.11711
11
0.725602
21
1.11841
0
LINE
8
BLACK
6
CONTINUOUS
10
0.725602
20
1.11841
11
0.725251
21
1.1204
0
LINE
8
BLACK
6
CONTINUOUS
10
0.725251
20
1.1204
11
0.726261
21
1.12215
0
LINE
8
BLACK
6
CONTINUOUS
10
0.726261
20
1.12215
11
0.728159
21
1.12284
0
LINE
8
BLACK
6
CONTINUOUS
10
0.728159
20
1.12284
11
0.736455
21
1.12284
0
LINE
8
BLACK
6
CONTINUOUS
10
0.736455
20
1.12284
11
0.736455
21
1.15026
0
LINE
8
BLACK
6
CONTINUOUS
10
0.736455
20
1.15026
11
0.733996
21
1.1478
0
LINE
8
BLACK
6
CONTINUOUS
10
0.733996
20
1.1478
11
0.733273
21
1.14729
0
LINE
8
BLACK
6
CONTINUOUS
10
0.733273
20
1.14729
11
0.733229
21
1.14724
0
LINE
8
BLACK
6
CONTINUOUS
10
0.733229
20
1.14724
11
0.729479
21
1.14537
0
LINE
8
BLACK
6
CONTINUOUS
10
0.729479
20
1.14537
11
0.728497
21
1.14508
0
LINE
8
BLACK
6
CONTINUOUS
10
0.728497
20
1.14508
11
0.726532
21
1.14555
0
LINE
8
BLACK
6
CONTINUOUS
10
0.726532
20
1.14555
11
0.725329
21
1.14717
0
LINE
8
BLACK
6
CONTINUOUS
10
0.725329
20
1.14717
11
0.72545
21
1.14918
0
LINE
8
BLACK
6
CONTINUOUS
10
0.72545
20
1.14918
11
0.726838
21
1.15065
0
LINE
8
BLACK
6
CONTINUOUS
10
0.726838
20
1.15065
11
0.730159
21
1.15231
0
LINE
8
BLACK
6
CONTINUOUS
10
0.730159
20
1.15231
11
0.733363
21
1.15552
0
LINE
8
BLACK
6
CONTINUOUS
10
0.733363
20
1.15552
11
0.736951
21
1.1609
0
LINE
8
BLACK
6
CONTINUOUS
10
0.736951
20
1.1609
11
0.737659
21
1.16164
0
LINE
8
BLACK
6
CONTINUOUS
10
0.737659
20
1.16164
11
0.737822
21
1.16169
0
LINE
8
BLACK
6
CONTINUOUS
10
0.737822
20
1.16169
11
0.737931
21
1.16182
0
LINE
8
BLACK
6
CONTINUOUS
10
0.737931
20
1.16182
11
0.738775
21
1.16197
0
LINE
8
BLACK
6
CONTINUOUS
10
0.738775
20
1.16197
11
0.739598
21
1.16221
0
LINE
8
BLACK
6
CONTINUOUS
10
0.739598
20
1.16221
11
0.739753
21
1.16214
0
LINE
8
BLACK
6
CONTINUOUS
10
0.781662
20
1.16203
11
0.781798
21
1.16192
0
LINE
8
BLACK
6
CONTINUOUS
10
0.781798
20
1.16192
11
0.781973
21
1.1619
0
LINE
8
BLACK
6
CONTINUOUS
10
0.781973
20
1.1619
11
0.785722
21
1.16003
0
LINE
8
BLACK
6
CONTINUOUS
10
0.785722
20
1.16003
11
0.786431
21
1.1595
0
LINE
8
BLACK
6
CONTINUOUS
10
0.786431
20
1.1595
11
0.78649
21
1.15947
0
LINE
8
BLACK
6
CONTINUOUS
10
0.78649
20
1.15947
11
0.788365
21
1.1576
0
LINE
8
BLACK
6
CONTINUOUS
10
0.788365
20
1.1576
11
0.788871
21
1.15687
0
LINE
8
BLACK
6
CONTINUOUS
10
0.788871
20
1.15687
11
0.788918
21
1.15683
0
LINE
8
BLACK
6
CONTINUOUS
10
0.788918
20
1.15683
11
0.790792
21
1.15308
0
LINE
8
BLACK
6
CONTINUOUS
10
0.790792
20
1.15308
11
0.791085
21
1.1521
0
LINE
8
BLACK
6
CONTINUOUS
10
0.791085
20
1.1521
11
0.791044
21
1.15193
0
LINE
8
BLACK
6
CONTINUOUS
10
0.791044
20
1.15193
11
0.791104
21
1.15176
0
LINE
8
BLACK
6
CONTINUOUS
10
0.791104
20
1.15176
11
0.791104
21
1.14801
0
LINE
8
BLACK
6
CONTINUOUS
10
0.791104
20
1.14801
11
0.790951
21
1.14714
0
LINE
8
BLACK
6
CONTINUOUS
10
0.790951
20
1.14714
11
0.790953
21
1.14708
0
LINE
8
BLACK
6
CONTINUOUS
10
0.790953
20
1.14708
11
0.789078
21
1.14145
0
LINE
8
BLACK
6
CONTINUOUS
10
0.789078
20
1.14145
11
0.78859
21
1.14055
0
LINE
8
BLACK
6
CONTINUOUS
10
0.78859
20
1.14055
11
0.788439
21
1.14046
0
LINE
8
BLACK
6
CONTINUOUS
10
0.788439
20
1.14046
11
0.788365
21
1.1403
0
LINE
8
BLACK
6
CONTINUOUS
10
0.788365
20
1.1403
11
0.770908
21
1.12284
0
LINE
8
BLACK
6
CONTINUOUS
10
0.770908
20
1.12284
11
0.788151
21
1.12284
0
LINE
8
BLACK
6
CONTINUOUS
10
0.788151
20
1.12284
11
0.789161
21
1.12266
0
LINE
8
BLACK
6
CONTINUOUS
10
0.789161
20
1.12266
11
0.790709
21
1.12137
0
LINE
8
BLACK
6
CONTINUOUS
10
0.790709
20
1.12137
11
0.791059
21
1.11938
0
LINE
8
BLACK
6
CONTINUOUS
10
0.791059
20
1.11938
11
0.790049
21
1.11763
0
LINE
8
BLACK
6
CONTINUOUS
10
0.790049
20
1.11763
11
0.788151
21
1.11694
0
LINE
8
BLACK
6
CONTINUOUS
10
0.788151
20
1.11694
11
0.76378
21
1.11694
0
LINE
8
BLACK
6
CONTINUOUS
10
0.76378
20
1.11694
11
0.763145
21
1.11705
0
LINE
8
BLACK
6
CONTINUOUS
10
0.763145
20
1.11705
11
0.763015
21
1.11704
0
LINE
8
BLACK
6
CONTINUOUS
10
0.763015
20
1.11704
11
0.76295
21
1.11708
0
LINE
8
BLACK
6
CONTINUOUS
10
0.76295
20
1.11708
11
0.76277
21
1.11711
0
LINE
8
BLACK
6
CONTINUOUS
10
0.76277
20
1.11711
11
0.762089
21
1.11769
0
LINE
8
BLACK
6
CONTINUOUS
10
0.762089
20
1.11769
11
0.761361
21
1.1182
0
LINE
8
BLACK
6
CONTINUOUS
10
0.761361
20
1.1182
11
0.761326
21
1.11833
0
LINE
8
BLACK
6
CONTINUOUS
10
0.761326
20
1.11833
11
0.761222
21
1.11841
0
LINE
8
BLACK
6
CONTINUOUS
10
0.761222
20
1.11841
11
0.761068
21
1.11929
0
LINE
8
BLACK
6
CONTINUOUS
10
0.761068
20
1.11929
11
0.760838
21
1.12015
0
LINE
8
BLACK
6
CONTINUOUS
10
0.760838
20
1.12015
11
0.760895
21
1.12027
0
LINE
8
BLACK
6
CONTINUOUS
10
0.760895
20
1.12027
11
0.760872
21
1.1204
0
LINE
8
BLACK
6
CONTINUOUS
10
0.760872
20
1.1204
11
0.761316
21
1.12117
0
LINE
8
BLACK
6
CONTINUOUS
10
0.761316
20
1.12117
11
0.761692
21
1.12198
0
LINE
8
BLACK
6
CONTINUOUS
10
0.761692
20
1.12198
11
0.783696
21
1.14398
0
LINE
8
BLACK
6
CONTINUOUS
10
0.783696
20
1.14398
11
0.785199
21
1.14849
0
LINE
8
BLACK
6
CONTINUOUS
10
0.785199
20
1.14849
11
0.785199
21
1.15106
0
LINE
8
BLACK
6
CONTINUOUS
10
0.785199
20
1.15106
11
0.78385
21
1.15376
0
LINE
8
BLACK
6
CONTINUOUS
10
0.78385
20
1.15376
11
0.782653
21
1.15496
0
LINE
8
BLACK
6
CONTINUOUS
10
0.782653
20
1.15496
11
0.779955
21
1.15631
0
LINE
8
BLACK
6
CONTINUOUS
10
0.779955
20
1.15631
11
0.771976
21
1.15631
0
LINE
8
BLACK
6
CONTINUOUS
10
0.771976
20
1.15631
11
0.769278
21
1.15496
0
LINE
8
BLACK
6
CONTINUOUS
10
0.769278
20
1.15496
11
0.767742
21
1.15342
0
LINE
8
BLACK
6
CONTINUOUS
10
0.767742
20
1.15342
11
0.766902
21
1.15283
0
LINE
8
BLACK
6
CONTINUOUS
10
0.766902
20
1.15283
11
0.76489
21
1.15266
0
LINE
8
BLACK
6
CONTINUOUS
10
0.76489
20
1.15266
11
0.763236
21
1.15382
0
LINE
8
BLACK
6
CONTINUOUS
10
0.763236
20
1.15382
11
0.762713
21
1.15577
0
LINE
8
BLACK
6
CONTINUOUS
10
0.762713
20
1.15577
11
0.763566
21
1.1576
0
LINE
8
BLACK
6
CONTINUOUS
10
0.763566
20
1.1576
11
0.765441
21
1.15947
0
LINE
8
BLACK
6
CONTINUOUS
10
0.765441
20
1.15947
11
0.766164
21
1.15998
0
LINE
8
BLACK
6
CONTINUOUS
10
0.766164
20
1.15998
11
0.766209
21
1.16003
0
LINE
8
BLACK
6
CONTINUOUS
10
0.766209
20
1.16003
11
0.769958
21
1.1619
0
LINE
8
BLACK
6
CONTINUOUS
10
0.769958
20
1.1619
11
0.770941
21
1.16219
0
LINE
8
BLACK
6
CONTINUOUS
10
0.770941
20
1.16219
11
0.771113
21
1.16215
0
LINE
8
BLACK
6
CONTINUOUS
10
0.771113
20
1.16215
11
0.771279
21
1.16221
0
LINE
8
BLACK
6
CONTINUOUS
10
0.771279
20
1.16221
11
0.780652
21
1.16221
0
LINE
8
BLACK
6
CONTINUOUS
10
0.780652
20
1.16221
11
0.781662
21
1.16203
0
LINE
8
BLACK
6
CONTINUOUS
10
0.819158
20
1.16203
11
0.819293
21
1.16192
0
LINE
8
BLACK
6
CONTINUOUS
10
0.819293
20
1.16192
11
0.819468
21
1.1619
0
LINE
8
BLACK
6
CONTINUOUS
10
0.819468
20
1.1619
11
0.823218
21
1.16003
0
LINE
8
BLACK
6
CONTINUOUS
10
0.823218
20
1.16003
11
0.823927
21
1.1595
0
LINE
8
BLACK
6
CONTINUOUS
10
0.823927
20
1.1595
11
0.823985
21
1.15947
0
LINE
8
BLACK
6
CONTINUOUS
10
0.823985
20
1.15947
11
0.82586
21
1.1576
0
LINE
8
BLACK
6
CONTINUOUS
10
0.82586
20
1.1576
11
0.826366
21
1.15687
0
LINE
8
BLACK
6
CONTINUOUS
10
0.826366
20
1.15687
11
0.826413
21
1.15683
0
LINE
8
BLACK
6
CONTINUOUS
10
0.826413
20
1.15683
11
0.828288
21
1.15308
0
LINE
8
BLACK
6
CONTINUOUS
10
0.828288
20
1.15308
11
0.82858
21
1.1521
0
LINE
8
BLACK
6
CONTINUOUS
10
0.82858
20
1.1521
11
0.828539
21
1.15193
0
LINE
8
BLACK
6
CONTINUOUS
10
0.828539
20
1.15193
11
0.8286
21
1.15176
0
LINE
8
BLACK
6
CONTINUOUS
10
0.8286
20
1.15176
11
0.8286
21
1.14989
0
LINE
8
BLACK
6
CONTINUOUS
10
0.8286
20
1.14989
11
0.828421
21
1.14888
0
LINE
8
BLACK
6
CONTINUOUS
10
0.828421
20
1.14888
11
0.828308
21
1.14874
0
LINE
8
BLACK
6
CONTINUOUS
10
0.828308
20
1.14874
11
0.828288
21
1.14856
0
LINE
8
BLACK
6
CONTINUOUS
10
0.828288
20
1.14856
11
0.826413
21
1.14482
0
LINE
8
BLACK
6
CONTINUOUS
10
0.826413
20
1.14482
11
0.825887
21
1.14411
0
LINE
8
BLACK
6
CONTINUOUS
10
0.825887
20
1.14411
11
0.82586
21
1.14405
0
LINE
8
BLACK
6
CONTINUOUS
10
0.82586
20
1.14405
11
0.824198
21
1.14239
0
LINE
8
BLACK
6
CONTINUOUS
10
0.824198
20
1.14239
11
0.82586
21
1.14072
0
LINE
8
BLACK
6
CONTINUOUS
10
0.82586
20
1.14072
11
0.826366
21
1.14
0
LINE
8
BLACK
6
CONTINUOUS
10
0.826366
20
1.14
11
0.826413
21
1.13996
0
LINE
8
BLACK
6
CONTINUOUS
10
0.826413
20
1.13996
11
0.828288
21
1.13621
0
LINE
8
BLACK
6
CONTINUOUS
10
0.828288
20
1.13621
11
0.82858
21
1.13522
0
LINE
8
BLACK
6
CONTINUOUS
10
0.82858
20
1.13522
11
0.828539
21
1.13505
0
LINE
8
BLACK
6
CONTINUOUS
10
0.828539
20
1.13505
11
0.8286
21
1.13489
0
LINE
8
BLACK
6
CONTINUOUS
10
0.8286
20
1.13489
11
0.8286
21
1.12739
0
LINE
8
BLACK
6
CONTINUOUS
10
0.8286
20
1.12739
11
0.828421
21
1.12638
0
LINE
8
BLACK
6
CONTINUOUS
10
0.828421
20
1.12638
11
0.828308
21
1.12624
0
LINE
8
BLACK
6
CONTINUOUS
10
0.828308
20
1.12624
11
0.828288
21
1.12607
0
LINE
8
BLACK
6
CONTINUOUS
10
0.828288
20
1.12607
11
0.826413
21
1.12232
0
LINE
8
BLACK
6
CONTINUOUS
10
0.826413
20
1.12232
11
0.825887
21
1.12161
0
LINE
8
BLACK
6
CONTINUOUS
10
0.825887
20
1.12161
11
0.82586
21
1.12155
0
LINE
8
BLACK
6
CONTINUOUS
10
0.82586
20
1.12155
11
0.823985
21
1.11968
0
LINE
8
BLACK
6
CONTINUOUS
10
0.823985
20
1.11968
11
0.823262
21
1.11917
0
LINE
8
BLACK
6
CONTINUOUS
10
0.823262
20
1.11917
11
0.823218
21
1.11912
0
LINE
8
BLACK
6
CONTINUOUS
10
0.823218
20
1.11912
11
0.819468
21
1.11725
0
LINE
8
BLACK
6
CONTINUOUS
10
0.819468
20
1.11725
11
0.818485
21
1.11696
0
LINE
8
BLACK
6
CONTINUOUS
10
0.818485
20
1.11696
11
0.818314
21
1.117
0
LINE
8
BLACK
6
CONTINUOUS
10
0.818314
20
1.117
11
0.818148
21
1.11694
0
LINE
8
BLACK
6
CONTINUOUS
10
0.818148
20
1.11694
11
0.810649
21
1.11694
0
LINE
8
BLACK
6
CONTINUOUS
10
0.810649
20
1.11694
11
0.809639
21
1.11711
0
LINE
8
BLACK
6
CONTINUOUS
10
0.809639
20
1.11711
11
0.809503
21
1.11723
0
LINE
8
BLACK
6
CONTINUOUS
10
0.809503
20
1.11723
11
0.809328
21
1.11725
0
LINE
8
BLACK
6
CONTINUOUS
10
0.809328
20
1.11725
11
0.805579
21
1.11912
0
LINE
8
BLACK
6
CONTINUOUS
10
0.805579
20
1.11912
11
0.804869
21
1.11965
0
LINE
8
BLACK
6
CONTINUOUS
10
0.804869
20
1.11965
11
0.804811
21
1.11968
0
LINE
8
BLACK
6
CONTINUOUS
10
0.804811
20
1.11968
11
0.802936
21
1.12155
0
LINE
8
BLACK
6
CONTINUOUS
10
0.802936
20
1.12155
11
0.80243
21
1.12227
0
LINE
8
BLACK
6
CONTINUOUS
10
0.80243
20
1.12227
11
0.802383
21
1.12232
0
LINE
8
BLACK
6
CONTINUOUS
10
0.802383
20
1.12232
11
0.800509
21
1.12607
0
LINE
8
BLACK
6
CONTINUOUS
10
0.800509
20
1.12607
11
0.800216
21
1.12705
0
LINE
8
BLACK
6
CONTINUOUS
10
0.800216
20
1.12705
11
0.800257
21
1.12722
0
LINE
8
BLACK
6
CONTINUOUS
10
0.800257
20
1.12722
11
0.800197
21
1.12739
0
LINE
8
BLACK
6
CONTINUOUS
10
0.800197
20
1.12739
11
0.800197
21
1.13489
0
LINE
8
BLACK
6
CONTINUOUS
10
0.800197
20
1.13489
11
0.800375
21
1.1359
0
LINE
8
BLACK
6
CONTINUOUS
10
0.800375
20
1.1359
11
0.800488
21
1.13603
0
LINE
8
BLACK
6
CONTINUOUS
10
0.800488
20
1.13603
11
0.800509
21
1.13621
0
LINE
8
BLACK
6
CONTINUOUS
10
0.800509
20
1.13621
11
0.802383
21
1.13996
0
LINE
8
BLACK
6
CONTINUOUS
10
0.802383
20
1.13996
11
0.802909
21
1.14067
0
LINE
8
BLACK
6
CONTINUOUS
10
0.802909
20
1.14067
11
0.802936
21
1.14072
0
LINE
8
BLACK
6
CONTINUOUS
10
0.802936
20
1.14072
11
0.804598
21
1.14239
0
LINE
8
BLACK
6
CONTINUOUS
10
0.804598
20
1.14239
11
0.802936
21
1.14405
0
LINE
8
BLACK
6
CONTINUOUS
10
0.802936
20
1.14405
11
0.80243
21
1.14477
0
LINE
8
BLACK
6
CONTINUOUS
10
0.80243
20
1.14477
11
0.802383
21
1.14482
0
LINE
8
BLACK
6
CONTINUOUS
10
0.802383
20
1.14482
11
0.800509
21
1.14856
0
LINE
8
BLACK
6
CONTINUOUS
10
0.800509
20
1.14856
11
0.800216
21
1.14955
0
LINE
8
BLACK
6
CONTINUOUS
10
0.800216
20
1.14955
11
0.800257
21
1.14972
0
LINE
8
BLACK
6
CONTINUOUS
10
0.800257
20
1.14972
11
0.800197
21
1.14989
0
LINE
8
BLACK
6
CONTINUOUS
10
0.800197
20
1.14989
11
0.800197
21
1.15176
0
LINE
8
BLACK
6
CONTINUOUS
10
0.800197
20
1.15176
11
0.800375
21
1.15277
0
LINE
8
BLACK
6
CONTINUOUS
10
0.800375
20
1.15277
11
0.800488
21
1.15291
0
LINE
8
BLACK
6
CONTINUOUS
10
0.800488
20
1.15291
11
0.800509
21
1.15308
0
LINE
8
BLACK
6
CONTINUOUS
10
0.800509
20
1.15308
11
0.802383
21
1.15683
0
LINE
8
BLACK
6
CONTINUOUS
10
0.802383
20
1.15683
11
0.802909
21
1.15754
0
LINE
8
BLACK
6
CONTINUOUS
10
0.802909
20
1.15754
11
0.802936
21
1.1576
0
LINE
8
BLACK
6
CONTINUOUS
10
0.802936
20
1.1576
11
0.804811
21
1.15947
0
LINE
8
BLACK
6
CONTINUOUS
10
0.804811
20
1.15947
11
0.805534
21
1.15998
0
LINE
8
BLACK
6
CONTINUOUS
10
0.805534
20
1.15998
11
0.805579
21
1.16003
0
LINE
8
BLACK
6
CONTINUOUS
10
0.805579
20
1.16003
11
0.809328
21
1.1619
0
LINE
8
BLACK
6
CONTINUOUS
10
0.809328
20
1.1619
11
0.810311
21
1.16219
0
LINE
8
BLACK
6
CONTINUOUS
10
0.810311
20
1.16219
11
0.810483
21
1.16215
0
LINE
8
BLACK
6
CONTINUOUS
10
0.810483
20
1.16215
11
0.810649
21
1.16221
0
LINE
8
BLACK
6
CONTINUOUS
10
0.810649
20
1.16221
11
0.818148
21
1.16221
0
LINE
8
BLACK
6
CONTINUOUS
10
0.818148
20
1.16221
11
0.819158
21
1.16203
0
LINE
8
BLACK
6
CONTINUOUS
10
0.808648
20
1.13808
11
0.807451
21
1.13689
0
LINE
8
BLACK
6
CONTINUOUS
10
0.807451
20
1.13689
11
0.806102
21
1.13419
0
LINE
8
BLACK
6
CONTINUOUS
10
0.806102
20
1.13419
11
0.806102
21
1.12809
0
LINE
8
BLACK
6
CONTINUOUS
10
0.806102
20
1.12809
11
0.807451
21
1.12539
0
LINE
8
BLACK
6
CONTINUOUS
10
0.807451
20
1.12539
11
0.808648
21
1.12419
0
LINE
8
BLACK
6
CONTINUOUS
10
0.808648
20
1.12419
11
0.811346
21
1.12284
0
LINE
8
BLACK
6
CONTINUOUS
10
0.811346
20
1.12284
11
0.817451
21
1.12284
0
LINE
8
BLACK
6
CONTINUOUS
10
0.817451
20
1.12284
11
0.820148
21
1.12419
0
LINE
8
BLACK
6
CONTINUOUS
10
0.820148
20
1.12419
11
0.821345
21
1.12539
0
LINE
8
BLACK
6
CONTINUOUS
10
0.821345
20
1.12539
11
0.822694
21
1.12809
0
LINE
8
BLACK
6
CONTINUOUS
10
0.822694
20
1.12809
11
0.822694
21
1.13419
0
LINE
8
BLACK
6
CONTINUOUS
10
0.822694
20
1.13419
11
0.821345
21
1.13689
0
LINE
8
BLACK
6
CONTINUOUS
10
0.821345
20
1.13689
11
0.820148
21
1.13808
0
LINE
8
BLACK
6
CONTINUOUS
10
0.820148
20
1.13808
11
0.817451
21
1.13943
0
LINE
8
BLACK
6
CONTINUOUS
10
0.817451
20
1.13943
11
0.811346
21
1.13943
0
LINE
8
BLACK
6
CONTINUOUS
10
0.811346
20
1.13943
11
0.808648
21
1.13808
0
LINE
8
BLACK
6
CONTINUOUS
10
0.808648
20
1.15496
11
0.807451
21
1.15376
0
LINE
8
BLACK
6
CONTINUOUS
10
0.807451
20
1.15376
11
0.806102
21
1.15106
0
LINE
8
BLACK
6
CONTINUOUS
10
0.806102
20
1.15106
11
0.806102
21
1.15058
0
LINE
8
BLACK
6
CONTINUOUS
10
0.806102
20
1.15058
11
0.807451
21
1.14788
0
LINE
8
BLACK
6
CONTINUOUS
10
0.807451
20
1.14788
11
0.808648
21
1.14669
0
LINE
8
BLACK
6
CONTINUOUS
10
0.808648
20
1.14669
11
0.811346
21
1.14534
0
LINE
8
BLACK
6
CONTINUOUS
10
0.811346
20
1.14534
11
0.817451
21
1.14534
0
LINE
8
BLACK
6
CONTINUOUS
10
0.817451
20
1.14534
11
0.820148
21
1.14669
0
LINE
8
BLACK
6
CONTINUOUS
10
0.820148
20
1.14669
11
0.821345
21
1.14788
0
LINE
8
BLACK
6
CONTINUOUS
10
0.821345
20
1.14788
11
0.822694
21
1.15058
0
LINE
8
BLACK
6
CONTINUOUS
10
0.822694
20
1.15058
11
0.822694
21
1.15106
0
LINE
8
BLACK
6
CONTINUOUS
10
0.822694
20
1.15106
11
0.821345
21
1.15376
0
LINE
8
BLACK
6
CONTINUOUS
10
0.821345
20
1.15376
11
0.820148
21
1.15496
0
LINE
8
BLACK
6
CONTINUOUS
10
0.820148
20
1.15496
11
0.817451
21
1.15631
0
LINE
8
BLACK
6
CONTINUOUS
10
0.817451
20
1.15631
11
0.811346
21
1.15631
0
LINE
8
BLACK
6
CONTINUOUS
10
0.811346
20
1.15631
11
0.808648
21
1.15496
0
LINE
8
BLACK
6
CONTINUOUS
10
0.909146
20
1.16203
11
0.910694
21
1.16074
0
LINE
8
BLACK
6
CONTINUOUS
10
0.910694
20
1.16074
11
0.911044
21
1.15875
0
LINE
8
BLACK
6
CONTINUOUS
10
0.911044
20
1.15875
11
0.910034
21
1.157
0
LINE
8
BLACK
6
CONTINUOUS
10
0.910034
20
1.157
11
0.908136
21
1.15631
0
LINE
8
BLACK
6
CONTINUOUS
10
0.908136
20
1.15631
11
0.901334
21
1.15631
0
LINE
8
BLACK
6
CONTINUOUS
10
0.901334
20
1.15631
11
0.898637
21
1.15496
0
LINE
8
BLACK
6
CONTINUOUS
10
0.898637
20
1.15496
11
0.897308
21
1.15363
0
LINE
8
BLACK
6
CONTINUOUS
10
0.897308
20
1.15363
11
0.894004
21
1.14867
0
LINE
8
BLACK
6
CONTINUOUS
10
0.894004
20
1.14867
11
0.893275
21
1.14576
0
LINE
8
BLACK
6
CONTINUOUS
10
0.893275
20
1.14576
11
0.895567
21
1.1469
0
LINE
8
BLACK
6
CONTINUOUS
10
0.895567
20
1.1469
11
0.89655
21
1.14719
0
LINE
8
BLACK
6
CONTINUOUS
10
0.89655
20
1.14719
11
0.896722
21
1.14715
0
LINE
8
BLACK
6
CONTINUOUS
10
0.896722
20
1.14715
11
0.896888
21
1.14721
0
LINE
8
BLACK
6
CONTINUOUS
10
0.896888
20
1.14721
11
0.904387
21
1.14721
0
LINE
8
BLACK
6
CONTINUOUS
10
0.904387
20
1.14721
11
0.905397
21
1.14704
0
LINE
8
BLACK
6
CONTINUOUS
10
0.905397
20
1.14704
11
0.905532
21
1.14692
0
LINE
8
BLACK
6
CONTINUOUS
10
0.905532
20
1.14692
11
0.905707
21
1.1469
0
LINE
8
BLACK
6
CONTINUOUS
10
0.905707
20
1.1469
11
0.909457
21
1.14503
0
LINE
8
BLACK
6
CONTINUOUS
10
0.909457
20
1.14503
11
0.910166
21
1.1445
0
LINE
8
BLACK
6
CONTINUOUS
10
0.910166
20
1.1445
11
0.910224
21
1.14447
0
LINE
8
BLACK
6
CONTINUOUS
10
0.910224
20
1.14447
11
0.912099
21
1.1426
0
LINE
8
BLACK
6
CONTINUOUS
10
0.912099
20
1.1426
11
0.912605
21
1.14188
0
LINE
8
BLACK
6
CONTINUOUS
10
0.912605
20
1.14188
11
0.912652
21
1.14183
0
LINE
8
BLACK
6
CONTINUOUS
10
0.912652
20
1.14183
11
0.914527
21
1.13808
0
LINE
8
BLACK
6
CONTINUOUS
10
0.914527
20
1.13808
11
0.914819
21
1.1371
0
LINE
8
BLACK
6
CONTINUOUS
10
0.914819
20
1.1371
11
0.914778
21
1.13693
0
LINE
8
BLACK
6
CONTINUOUS
10
0.914778
20
1.13693
11
0.914839
21
1.13676
0
LINE
8
BLACK
6
CONTINUOUS
10
0.914839
20
1.13676
11
0.914839
21
1.12739
0
LINE
8
BLACK
6
CONTINUOUS
10
0.914839
20
1.12739
11
0.914661
21
1.12638
0
LINE
8
BLACK
6
CONTINUOUS
10
0.914661
20
1.12638
11
0.914547
21
1.12624
0
LINE
8
BLACK
6
CONTINUOUS
10
0.914547
20
1.12624
11
0.914527
21
1.12607
0
LINE
8
BLACK
6
CONTINUOUS
10
0.914527
20
1.12607
11
0.912652
21
1.12232
0
LINE
8
BLACK
6
CONTINUOUS
10
0.912652
20
1.12232
11
0.912126
21
1.12161
0
LINE
8
BLACK
6
CONTINUOUS
10
0.912126
20
1.12161
11
0.912099
21
1.12155
0
LINE
8
BLACK
6
CONTINUOUS
10
0.912099
20
1.12155
11
0.910224
21
1.11968
0
LINE
8
BLACK
6
CONTINUOUS
10
0.910224
20
1.11968
11
0.909501
21
1.11917
0
LINE
8
BLACK
6
CONTINUOUS
10
0.909501
20
1.11917
11
0.909457
21
1.11912
0
LINE
8
BLACK
6
CONTINUOUS
10
0.909457
20
1.11912
11
0.905707
21
1.11725
0
LINE
8
BLACK
6
CONTINUOUS
10
0.905707
20
1.11725
11
0.904724
21
1.11696
0
LINE
8
BLACK
6
CONTINUOUS
10
0.904724
20
1.11696
11
0.904553
21
1.117
0
LINE
8
BLACK
6
CONTINUOUS
10
0.904553
20
1.117
11
0.904387
21
1.11694
0
LINE
8
BLACK
6
CONTINUOUS
10
0.904387
20
1.11694
11
0.896888
21
1.11694
0
LINE
8
BLACK
6
CONTINUOUS
10
0.896888
20
1.11694
11
0.895878
21
1.11711
0
LINE
8
BLACK
6
CONTINUOUS
10
0.895878
20
1.11711
11
0.895743
21
1.11723
0
LINE
8
BLACK
6
CONTINUOUS
10
0.895743
20
1.11723
11
0.895567
21
1.11725
0
LINE
8
BLACK
6
CONTINUOUS
10
0.895567
20
1.11725
11
0.891818
21
1.11912
0
LINE
8
BLACK
6
CONTINUOUS
10
0.891818
20
1.11912
11
0.891109
21
1.11965
0
LINE
8
BLACK
6
CONTINUOUS
10
0.891109
20
1.11965
11
0.89105
21
1.11968
0
LINE
8
BLACK
6
CONTINUOUS
10
0.89105
20
1.11968
11
0.889176
21
1.12155
0
LINE
8
BLACK
6
CONTINUOUS
10
0.889176
20
1.12155
11
0.888669
21
1.12227
0
LINE
8
BLACK
6
CONTINUOUS
10
0.888669
20
1.12227
11
0.888623
21
1.12232
0
LINE
8
BLACK
6
CONTINUOUS
10
0.888623
20
1.12232
11
0.886748
21
1.12607
0
LINE
8
BLACK
6
CONTINUOUS
10
0.886748
20
1.12607
11
0.886455
21
1.12705
0
LINE
8
BLACK
6
CONTINUOUS
10
0.886455
20
1.12705
11
0.886496
21
1.12722
0
LINE
8
BLACK
6
CONTINUOUS
10
0.886496
20
1.12722
11
0.886436
21
1.12739
0
LINE
8
BLACK
6
CONTINUOUS
10
0.886436
20
1.12739
11
0.886436
21
1.14239
0
LINE
8
BLACK
6
CONTINUOUS
10
0.886436
20
1.14239
11
0.886538
21
1.14297
0
LINE
8
BLACK
6
CONTINUOUS
10
0.886538
20
1.14297
11
0.886524
21
1.1431
0
LINE
8
BLACK
6
CONTINUOUS
10
0.886524
20
1.1431
11
0.888399
21
1.1506
0
LINE
8
BLACK
6
CONTINUOUS
10
0.888399
20
1.1506
11
0.888803
21
1.15151
0
LINE
8
BLACK
6
CONTINUOUS
10
0.888803
20
1.15151
11
0.888807
21
1.15152
0
LINE
8
BLACK
6
CONTINUOUS
10
0.888807
20
1.15152
11
0.892556
21
1.15715
0
LINE
8
BLACK
6
CONTINUOUS
10
0.892556
20
1.15715
11
0.892867
21
1.15747
0
LINE
8
BLACK
6
CONTINUOUS
10
0.892867
20
1.15747
11
0.892925
21
1.1576
0
LINE
8
BLACK
6
CONTINUOUS
10
0.892925
20
1.1576
11
0.8948
21
1.15947
0
LINE
8
BLACK
6
CONTINUOUS
10
0.8948
20
1.15947
11
0.895523
21
1.15998
0
LINE
8
BLACK
6
CONTINUOUS
10
0.895523
20
1.15998
11
0.895567
21
1.16003
0
LINE
8
BLACK
6
CONTINUOUS
10
0.895567
20
1.16003
11
0.899317
21
1.1619
0
LINE
8
BLACK
6
CONTINUOUS
10
0.899317
20
1.1619
11
0.9003
21
1.16219
0
LINE
8
BLACK
6
CONTINUOUS
10
0.9003
20
1.16219
11
0.900471
21
1.16215
0
LINE
8
BLACK
6
CONTINUOUS
10
0.900471
20
1.16215
11
0.900637
21
1.16221
0
LINE
8
BLACK
6
CONTINUOUS
10
0.900637
20
1.16221
11
0.908136
21
1.16221
0
LINE
8
BLACK
6
CONTINUOUS
10
0.908136
20
1.16221
11
0.909146
21
1.16203
0
LINE
8
BLACK
6
CONTINUOUS
10
0.894887
20
1.13996
11
0.89369
21
1.13876
0
LINE
8
BLACK
6
CONTINUOUS
10
0.89369
20
1.13876
11
0.892342
21
1.13606
0
LINE
8
BLACK
6
CONTINUOUS
10
0.892342
20
1.13606
11
0.892342
21
1.12809
0
LINE
8
BLACK
6
CONTINUOUS
10
0.892342
20
1.12809
11
0.89369
21
1.12539
0
LINE
8
BLACK
6
CONTINUOUS
10
0.89369
20
1.12539
11
0.894887
21
1.12419
0
LINE
8
BLACK
6
CONTINUOUS
10
0.894887
20
1.12419
11
0.897585
21
1.12284
0
LINE
8
BLACK
6
CONTINUOUS
10
0.897585
20
1.12284
11
0.90369
21
1.12284
0
LINE
8
BLACK
6
CONTINUOUS
10
0.90369
20
1.12284
11
0.906387
21
1.12419
0
LINE
8
BLACK
6
CONTINUOUS
10
0.906387
20
1.12419
11
0.907584
21
1.12539
0
LINE
8
BLACK
6
CONTINUOUS
10
0.907584
20
1.12539
11
0.908933
21
1.12809
0
LINE
8
BLACK
6
CONTINUOUS
10
0.908933
20
1.12809
11
0.908933
21
1.13606
0
LINE
8
BLACK
6
CONTINUOUS
10
0.908933
20
1.13606
11
0.907584
21
1.13876
0
LINE
8
BLACK
6
CONTINUOUS
10
0.907584
20
1.13876
11
0.906387
21
1.13996
0
LINE
8
BLACK
6
CONTINUOUS
10
0.906387
20
1.13996
11
0.90369
21
1.14131
0
LINE
8
BLACK
6
CONTINUOUS
10
0.90369
20
1.14131
11
0.897585
21
1.14131
0
LINE
8
BLACK
6
CONTINUOUS
10
0.897585
20
1.14131
11
0.894887
21
1.13996
0
LINE
8
BLACK
6
CONTINUOUS
10
0.946642
20
1.16203
11
0.946777
21
1.16192
0
LINE
8
BLACK
6
CONTINUOUS
10
0.946777
20
1.16192
11
0.946952
21
1.1619
0
LINE
8
BLACK
6
CONTINUOUS
10
0.946952
20
1.1619
11
0.950702
21
1.16003
0
LINE
8
BLACK
6
CONTINUOUS
10
0.950702
20
1.16003
11
0.951525
21
1.15941
0
LINE
8
BLACK
6
CONTINUOUS
10
0.951525
20
1.15941
11
0.952329
21
1.15756
0
LINE
8
BLACK
6
CONTINUOUS
10
0.952329
20
1.15756
11
0.951753
21
1.15563
0
LINE
8
BLACK
6
CONTINUOUS
10
0.951753
20
1.15563
11
0.950067
21
1.15451
0
LINE
8
BLACK
6
CONTINUOUS
10
0.950067
20
1.15451
11
0.948061
21
1.15474
0
LINE
8
BLACK
6
CONTINUOUS
10
0.948061
20
1.15474
11
0.944935
21
1.15631
0
LINE
8
BLACK
6
CONTINUOUS
10
0.944935
20
1.15631
11
0.940487
21
1.15631
0
LINE
8
BLACK
6
CONTINUOUS
10
0.940487
20
1.15631
11
0.935978
21
1.1548
0
LINE
8
BLACK
6
CONTINUOUS
10
0.935978
20
1.1548
11
0.93306
21
1.15189
0
LINE
8
BLACK
6
CONTINUOUS
10
0.93306
20
1.15189
11
0.931545
21
1.14885
0
LINE
8
BLACK
6
CONTINUOUS
10
0.931545
20
1.14885
11
0.929837
21
1.14202
0
LINE
8
BLACK
6
CONTINUOUS
10
0.929837
20
1.14202
11
0.929837
21
1.13713
0
LINE
8
BLACK
6
CONTINUOUS
10
0.929837
20
1.13713
11
0.931545
21
1.13029
0
LINE
8
BLACK
6
CONTINUOUS
10
0.931545
20
1.13029
11
0.93306
21
1.12726
0
LINE
8
BLACK
6
CONTINUOUS
10
0.93306
20
1.12726
11
0.935978
21
1.12434
0
LINE
8
BLACK
6
CONTINUOUS
10
0.935978
20
1.12434
11
0.940487
21
1.12284
0
LINE
8
BLACK
6
CONTINUOUS
10
0.940487
20
1.12284
11
0.943278
21
1.12284
0
LINE
8
BLACK
6
CONTINUOUS
10
0.943278
20
1.12284
11
0.947786
21
1.12434
0
LINE
8
BLACK
6
CONTINUOUS
10
0.947786
20
1.12434
11
0.948303
21
1.12486
0
LINE
8
BLACK
6
CONTINUOUS
10
0.948303
20
1.12486
11
0.948303
21
1.13381
0
LINE
8
BLACK
6
CONTINUOUS
10
0.948303
20
1.13381
11
0.943757
21
1.13381
0
LINE
8
BLACK
6
CONTINUOUS
10
0.943757
20
1.13381
11
0.942747
21
1.13399
0
LINE
8
BLACK
6
CONTINUOUS
10
0.942747
20
1.13399
11
0.9412
21
1.13529
0
LINE
8
BLACK
6
CONTINUOUS
10
0.9412
20
1.13529
11
0.940849
21
1.13727
0
LINE
8
BLACK
6
CONTINUOUS
10
0.940849
20
1.13727
11
0.941859
21
1.13902
0
LINE
8
BLACK
6
CONTINUOUS
10
0.941859
20
1.13902
11
0.943757
21
1.13971
0
LINE
8
BLACK
6
CONTINUOUS
10
0.943757
20
1.13971
11
0.951256
21
1.13971
0
LINE
8
BLACK
6
CONTINUOUS
10
0.951256
20
1.13971
11
0.95164
21
1.13965
0
LINE
8
BLACK
6
CONTINUOUS
10
0.95164
20
1.13965
11
0.951769
21
1.13967
0
LINE
8
BLACK
6
CONTINUOUS
10
0.951769
20
1.13967
11
0.951882
21
1.1396
0
LINE
8
BLACK
6
CONTINUOUS
10
0.951882
20
1.1396
11
0.952266
21
1.13954
0
LINE
8
BLACK
6
CONTINUOUS
10
0.952266
20
1.13954
11
0.952854
21
1.13904
0
LINE
8
BLACK
6
CONTINUOUS
10
0.952854
20
1.13904
11
0.953518
21
1.13866
0
LINE
8
BLACK
6
CONTINUOUS
10
0.953518
20
1.13866
11
0.953609
21
1.13841
0
LINE
8
BLACK
6
CONTINUOUS
10
0.953609
20
1.13841
11
0.953813
21
1.13824
0
LINE
8
BLACK
6
CONTINUOUS
10
0.953813
20
1.13824
11
0.953946
21
1.13748
0
LINE
8
BLACK
6
CONTINUOUS
10
0.953946
20
1.13748
11
0.954209
21
1.13676
0
LINE
8
BLACK
6
CONTINUOUS
10
0.954209
20
1.13676
11
0.954209
21
1.12364
0
LINE
8
BLACK
6
CONTINUOUS
10
0.954209
20
1.12364
11
0.954177
21
1.12346
0
LINE
8
BLACK
6
CONTINUOUS
10
0.954177
20
1.12346
11
0.954198
21
1.12338
0
LINE
8
BLACK
6
CONTINUOUS
10
0.954198
20
1.12338
11
0.954143
21
1.12326
0
LINE
8
BLACK
6
CONTINUOUS
10
0.954143
20
1.12326
11
0.954031
21
1.12263
0
LINE
8
BLACK
6
CONTINUOUS
10
0.954031
20
1.12263
11
0.953616
21
1.12213
0
LINE
8
BLACK
6
CONTINUOUS
10
0.953616
20
1.12213
11
0.953344
21
1.12155
0
LINE
8
BLACK
6
CONTINUOUS
10
0.953344
20
1.12155
11
0.951469
21
1.11968
0
LINE
8
BLACK
6
CONTINUOUS
10
0.951469
20
1.11968
11
0.950629
21
1.11909
0
LINE
8
BLACK
6
CONTINUOUS
10
0.950629
20
1.11909
11
0.950453
21
1.11907
0
LINE
8
BLACK
6
CONTINUOUS
10
0.950453
20
1.11907
11
0.950315
21
1.11896
0
LINE
8
BLACK
6
CONTINUOUS
10
0.950315
20
1.11896
11
0.944691
21
1.11709
0
LINE
8
BLACK
6
CONTINUOUS
10
0.944691
20
1.11709
11
0.943818
21
1.11696
0
LINE
8
BLACK
6
CONTINUOUS
10
0.943818
20
1.11696
11
0.943757
21
1.11694
0
LINE
8
BLACK
6
CONTINUOUS
10
0.943757
20
1.11694
11
0.940007
21
1.11694
0
LINE
8
BLACK
6
CONTINUOUS
10
0.940007
20
1.11694
11
0.939138
21
1.11709
0
LINE
8
BLACK
6
CONTINUOUS
10
0.939138
20
1.11709
11
0.939074
21
1.11709
0
LINE
8
BLACK
6
CONTINUOUS
10
0.939074
20
1.11709
11
0.933449
21
1.11896
0
LINE
8
BLACK
6
CONTINUOUS
10
0.933449
20
1.11896
11
0.932548
21
1.11945
0
LINE
8
BLACK
6
CONTINUOUS
10
0.932548
20
1.11945
11
0.932455
21
1.1196
0
LINE
8
BLACK
6
CONTINUOUS
10
0.932455
20
1.1196
11
0.932295
21
1.11968
0
LINE
8
BLACK
6
CONTINUOUS
10
0.932295
20
1.11968
11
0.928546
21
1.12343
0
LINE
8
BLACK
6
CONTINUOUS
10
0.928546
20
1.12343
11
0.928039
21
1.12415
0
LINE
8
BLACK
6
CONTINUOUS
10
0.928039
20
1.12415
11
0.927993
21
1.12419
0
LINE
8
BLACK
6
CONTINUOUS
10
0.927993
20
1.12419
11
0.926118
21
1.12794
0
LINE
8
BLACK
6
CONTINUOUS
10
0.926118
20
1.12794
11
0.925973
21
1.12843
0
LINE
8
BLACK
6
CONTINUOUS
10
0.925973
20
1.12843
11
0.925894
21
1.12855
0
LINE
8
BLACK
6
CONTINUOUS
10
0.925894
20
1.12855
11
0.92402
21
1.13605
0
LINE
8
BLACK
6
CONTINUOUS
10
0.92402
20
1.13605
11
0.923978
21
1.13663
0
LINE
8
BLACK
6
CONTINUOUS
10
0.923978
20
1.13663
11
0.923931
21
1.13676
0
LINE
8
BLACK
6
CONTINUOUS
10
0.923931
20
1.13676
11
0.923931
21
1.14239
0
LINE
8
BLACK
6
CONTINUOUS
10
0.923931
20
1.14239
11
0.924034
21
1.14297
0
LINE
8
BLACK
6
CONTINUOUS
10
0.924034
20
1.14297
11
0.92402
21
1.1431
0
LINE
8
BLACK
6
CONTINUOUS
10
0.92402
20
1.1431
11
0.925894
21
1.1506
0
LINE
8
BLACK
6
CONTINUOUS
10
0.925894
20
1.1506
11
0.926102
21
1.15107
0
LINE
8
BLACK
6
CONTINUOUS
10
0.926102
20
1.15107
11
0.926118
21
1.15121
0
LINE
8
BLACK
6
CONTINUOUS
10
0.926118
20
1.15121
11
0.927993
21
1.15496
0
LINE
8
BLACK
6
CONTINUOUS
10
0.927993
20
1.15496
11
0.928519
21
1.15566
0
LINE
8
BLACK
6
CONTINUOUS
10
0.928519
20
1.15566
11
0.928546
21
1.15572
0
LINE
8
BLACK
6
CONTINUOUS
10
0.928546
20
1.15572
11
0.932295
21
1.15947
0
LINE
8
BLACK
6
CONTINUOUS
10
0.932295
20
1.15947
11
0.933135
21
1.16006
0
LINE
8
BLACK
6
CONTINUOUS
10
0.933135
20
1.16006
11
0.933311
21
1.16008
0
LINE
8
BLACK
6
CONTINUOUS
10
0.933311
20
1.16008
11
0.933449
21
1.16019
0
LINE
8
BLACK
6
CONTINUOUS
10
0.933449
20
1.16019
11
0.939074
21
1.16206
0
LINE
8
BLACK
6
CONTINUOUS
10
0.939074
20
1.16206
11
0.939947
21
1.16219
0
LINE
8
BLACK
6
CONTINUOUS
10
0.939947
20
1.16219
11
0.940007
21
1.16221
0
LINE
8
BLACK
6
CONTINUOUS
10
0.940007
20
1.16221
11
0.945632
21
1.16221
0
LINE
8
BLACK
6
CONTINUOUS
10
0.945632
20
1.16221
11
0.946642
21
1.16203
0
LINE
8
BLACK
6
CONTINUOUS
10
0.986012
20
1.16203
11
0.986147
21
1.16192
0
LINE
8
BLACK
6
CONTINUOUS
10
0.986147
20
1.16192
11
0.986322
21
1.1619
0
LINE
8
BLACK
6
CONTINUOUS
10
0.986322
20
1.1619
11
0.990072
21
1.16003
0
LINE
8
BLACK
6
CONTINUOUS
10
0.990072
20
1.16003
11
0.990896
21
1.15941
0
LINE
8
BLACK
6
CONTINUOUS
10
0.990896
20
1.15941
11
0.991699
21
1.15756
0
LINE
8
BLACK
6
CONTINUOUS
10
0.991699
20
1.15756
11
0.991123
21
1.15563
0
LINE
8
BLACK
6
CONTINUOUS
10
0.991123
20
1.15563
11
0.989437
21
1.15451
0
LINE
8
BLACK
6
CONTINUOUS
10
0.989437
20
1.15451
11
0.987431
21
1.15474
0
LINE
8
BLACK
6
CONTINUOUS
10
0.987431
20
1.15474
11
0.984305
21
1.15631
0
LINE
8
BLACK
6
CONTINUOUS
10
0.984305
20
1.15631
11
0.979857
21
1.15631
0
LINE
8
BLACK
6
CONTINUOUS
10
0.979857
20
1.15631
11
0.975348
21
1.1548
0
LINE
8
BLACK
6
CONTINUOUS
10
0.975348
20
1.1548
11
0.97243
21
1.15189
0
LINE
8
BLACK
6
CONTINUOUS
10
0.97243
20
1.15189
11
0.970915
21
1.14885
0
LINE
8
BLACK
6
CONTINUOUS
10
0.970915
20
1.14885
11
0.969207
21
1.14202
0
LINE
8
BLACK
6
CONTINUOUS
10
0.969207
20
1.14202
11
0.969207
21
1.13713
0
LINE
8
BLACK
6
CONTINUOUS
10
0.969207
20
1.13713
11
0.970915
21
1.13029
0
LINE
8
BLACK
6
CONTINUOUS
10
0.970915
20
1.13029
11
0.97243
21
1.12726
0
LINE
8
BLACK
6
CONTINUOUS
10
0.97243
20
1.12726
11
0.975348
21
1.12434
0
LINE
8
BLACK
6
CONTINUOUS
10
0.975348
20
1.12434
11
0.979857
21
1.12284
0
LINE
8
BLACK
6
CONTINUOUS
10
0.979857
20
1.12284
11
0.982648
21
1.12284
0
LINE
8
BLACK
6
CONTINUOUS
10
0.982648
20
1.12284
11
0.987156
21
1.12434
0
LINE
8
BLACK
6
CONTINUOUS
10
0.987156
20
1.12434
11
0.987673
21
1.12486
0
LINE
8
BLACK
6
CONTINUOUS
10
0.987673
20
1.12486
11
0.987673
21
1.13381
0
LINE
8
BLACK
6
CONTINUOUS
10
0.987673
20
1.13381
11
0.983127
21
1.13381
0
LINE
8
BLACK
6
CONTINUOUS
10
0.983127
20
1.13381
11
0.982117
21
1.13399
0
LINE
8
BLACK
6
CONTINUOUS
10
0.982117
20
1.13399
11
0.98057
21
1.13529
0
LINE
8
BLACK
6
CONTINUOUS
10
0.98057
20
1.13529
11
0.980219
21
1.13727
0
LINE
8
BLACK
6
CONTINUOUS
10
0.980219
20
1.13727
11
0.981229
21
1.13902
0
LINE
8
BLACK
6
CONTINUOUS
10
0.981229
20
1.13902
11
0.983127
21
1.13971
0
LINE
8
BLACK
6
CONTINUOUS
10
0.983127
20
1.13971
11
0.990626
21
1.13971
0
LINE
8
BLACK
6
CONTINUOUS
10
0.990626
20
1.13971
11
0.99101
21
1.13965
0
LINE
8
BLACK
6
CONTINUOUS
10
0.99101
20
1.13965
11
0.991139
21
1.13967
0
LINE
8
BLACK
6
CONTINUOUS
10
0.991139
20
1.13967
11
0.991252
21
1.1396
0
LINE
8
BLACK
6
CONTINUOUS
10
0.991252
20
1.1396
11
0.991636
21
1.13954
0
LINE
8
BLACK
6
CONTINUOUS
10
0.991636
20
1.13954
11
0.992224
21
1.13904
0
LINE
8
BLACK
6
CONTINUOUS
10
0.992224
20
1.13904
11
0.992888
21
1.13866
0
LINE
8
BLACK
6
CONTINUOUS
10
0.992888
20
1.13866
11
0.992979
21
1.13841
0
LINE
8
BLACK
6
CONTINUOUS
10
0.992979
20
1.13841
11
0.993183
21
1.13824
0
LINE
8
BLACK
6
CONTINUOUS
10
0.993183
20
1.13824
11
0.993317
21
1.13748
0
LINE
8
BLACK
6
CONTINUOUS
10
0.993317
20
1.13748
11
0.993579
21
1.13676
0
LINE
8
BLACK
6
CONTINUOUS
10
0.993579
20
1.13676
11
0.993579
21
1.12364
0
LINE
8
BLACK
6
CONTINUOUS
10
0.993579
20
1.12364
11
0.993547
21
1.12346
0
LINE
8
BLACK
6
CONTINUOUS
10
0.993547
20
1.12346
11
0.993568
21
1.12338
0
LINE
8
BLACK
6
CONTINUOUS
10
0.993568
20
1.12338
11
0.993513
21
1.12326
0
LINE
8
BLACK
6
CONTINUOUS
10
0.993513
20
1.12326
11
0.993401
21
1.12263
0
LINE
8
BLACK
6
CONTINUOUS
10
0.993401
20
1.12263
11
0.992986
21
1.12213
0
LINE
8
BLACK
6
CONTINUOUS
10
0.992986
20
1.12213
11
0.992714
21
1.12155
0
LINE
8
BLACK
6
CONTINUOUS
10
0.992714
20
1.12155
11
0.990839
21
1.11968
0
LINE
8
BLACK
6
CONTINUOUS
10
0.990839
20
1.11968
11
0.989999
21
1.11909
0
LINE
8
BLACK
6
CONTINUOUS
10
0.989999
20
1.11909
11
0.989823
21
1.11907
0
LINE
8
BLACK
6
CONTINUOUS
10
0.989823
20
1.11907
11
0.989685
21
1.11896
0
LINE
8
BLACK
6
CONTINUOUS
10
0.989685
20
1.11896
11
0.984061
21
1.11709
0
LINE
8
BLACK
6
CONTINUOUS
10
0.984061
20
1.11709
11
0.983188
21
1.11696
0
LINE
8
BLACK
6
CONTINUOUS
10
0.983188
20
1.11696
11
0.983127
21
1.11694
0
LINE
8
BLACK
6
CONTINUOUS
10
0.983127
20
1.11694
11
0.979378
21
1.11694
0
LINE
8
BLACK
6
CONTINUOUS
10
0.979378
20
1.11694
11
0.978508
21
1.11709
0
LINE
8
BLACK
6
CONTINUOUS
10
0.978508
20
1.11709
11
0.978444
21
1.11709
0
LINE
8
BLACK
6
CONTINUOUS
10
0.978444
20
1.11709
11
0.97282
21
1.11896
0
LINE
8
BLACK
6
CONTINUOUS
10
0.97282
20
1.11896
11
0.971918
21
1.11945
0
LINE
8
BLACK
6
CONTINUOUS
10
0.971918
20
1.11945
11
0.971825
21
1.1196
0
LINE
8
BLACK
6
CONTINUOUS
10
0.971825
20
1.1196
11
0.971665
21
1.11968
0
LINE
8
BLACK
6
CONTINUOUS
10
0.971665
20
1.11968
11
0.967916
21
1.12343
0
LINE
8
BLACK
6
CONTINUOUS
10
0.967916
20
1.12343
11
0.967409
21
1.12415
0
LINE
8
BLACK
6
CONTINUOUS
10
0.967409
20
1.12415
11
0.967363
21
1.12419
0
LINE
8
BLACK
6
CONTINUOUS
10
0.967363
20
1.12419
11
0.965488
21
1.12794
0
LINE
8
BLACK
6
CONTINUOUS
10
0.965488
20
1.12794
11
0.965343
21
1.12843
0
LINE
8
BLACK
6
CONTINUOUS
10
0.965343
20
1.12843
11
0.965264
21
1.12855
0
LINE
8
BLACK
6
CONTINUOUS
10
0.965264
20
1.12855
11
0.96339
21
1.13605
0
LINE
8
BLACK
6
CONTINUOUS
10
0.96339
20
1.13605
11
0.963348
21
1.13663
0
LINE
8
BLACK
6
CONTINUOUS
10
0.963348
20
1.13663
11
0.963301
21
1.13676
0
LINE
8
BLACK
6
CONTINUOUS
10
0.963301
20
1.13676
11
0.963301
21
1.14239
0
LINE
8
BLACK
6
CONTINUOUS
10
0.963301
20
1.14239
11
0.963404
21
1.14297
0
LINE
8
BLACK
6
CONTINUOUS
10
0.963404
20
1.14297
11
0.96339
21
1.1431
0
LINE
8
BLACK
6
CONTINUOUS
10
0.96339
20
1.1431
11
0.965264
21
1.1506
0
LINE
8
BLACK
6
CONTINUOUS
10
0.965264
20
1.1506
11
0.965472
21
1.15107
0
LINE
8
BLACK
6
CONTINUOUS
10
0.965472
20
1.15107
11
0.965488
21
1.15121
0
LINE
8
BLACK
6
CONTINUOUS
10
0.965488
20
1.15121
11
0.967363
21
1.15496
0
LINE
8
BLACK
6
CONTINUOUS
10
0.967363
20
1.15496
11
0.967889
21
1.15566
0
LINE
8
BLACK
6
CONTINUOUS
10
0.967889
20
1.15566
11
0.967916
21
1.15572
0
LINE
8
BLACK
6
CONTINUOUS
10
0.967916
20
1.15572
11
0.971665
21
1.15947
0
LINE
8
BLACK
6
CONTINUOUS
10
0.971665
20
1.15947
11
0.972505
21
1.16006
0
LINE
8
BLACK
6
CONTINUOUS
10
0.972505
20
1.16006
11
0.972681
21
1.16008
0
LINE
8
BLACK
6
CONTINUOUS
10
0.972681
20
1.16008
11
0.97282
21
1.16019
0
LINE
8
BLACK
6
CONTINUOUS
10
0.97282
20
1.16019
11
0.978444
21
1.16206
0
LINE
8
BLACK
6
CONTINUOUS
10
0.978444
20
1.16206
11
0.979317
21
1.16219
0
LINE
8
BLACK
6
CONTINUOUS
10
0.979317
20
1.16219
11
0.979378
21
1.16221
0
LINE
8
BLACK
6
CONTINUOUS
10
0.979378
20
1.16221
11
0.985002
21
1.16221
0
LINE
8
BLACK
6
CONTINUOUS
10
0.985002
20
1.16221
11
0.986012
21
1.16203
0
LINE
8
BLACK
6
CONTINUOUS
10
1.16599
20
1.14891
11
1.16612
21
1.1488
0
LINE
8
BLACK
6
CONTINUOUS
10
1.16612
20
1.1488
11
1.1663
21
1.14878
0
LINE
8
BLACK
6
CONTINUOUS
10
1.1663
20
1.14878
11
1.17005
21
1.1469
0
LINE
8
BLACK
6
CONTINUOUS
10
1.17005
20
1.1469
11
1.17087
21
1.14629
0
LINE
8
BLACK
6
CONTINUOUS
10
1.17087
20
1.14629
11
1.17105
21
1.14589
0
LINE
8
BLACK
6
CONTINUOUS
10
1.17105
20
1.14589
11
1.17137
21
1.14558
0
LINE
8
BLACK
6
CONTINUOUS
10
1.17137
20
1.14558
11
1.17324
21
1.14183
0
LINE
8
BLACK
6
CONTINUOUS
10
1.17324
20
1.14183
11
1.17354
21
1.14085
0
LINE
8
BLACK
6
CONTINUOUS
10
1.17354
20
1.14085
11
1.1735
21
1.14068
0
LINE
8
BLACK
6
CONTINUOUS
10
1.1735
20
1.14068
11
1.17356
21
1.14051
0
LINE
8
BLACK
6
CONTINUOUS
10
1.17356
20
1.14051
11
1.17356
21
1.13676
0
LINE
8
BLACK
6
CONTINUOUS
10
1.17356
20
1.13676
11
1.17338
21
1.13575
0
LINE
8
BLACK
6
CONTINUOUS
10
1.17338
20
1.13575
11
1.17306
21
1.13538
0
LINE
8
BLACK
6
CONTINUOUS
10
1.17306
20
1.13538
11
1.17291
21
1.13492
0
LINE
8
BLACK
6
CONTINUOUS
10
1.17291
20
1.13492
11
1.17244
21
1.13463
0
LINE
8
BLACK
6
CONTINUOUS
10
1.17244
20
1.13463
11
1.17208
21
1.1342
0
LINE
8
BLACK
6
CONTINUOUS
10
1.17208
20
1.1342
11
1.1716
21
1.13412
0
LINE
8
BLACK
6
CONTINUOUS
10
1.1716
20
1.13412
11
1.17118
21
1.13387
0
LINE
8
BLACK
6
CONTINUOUS
10
1.17118
20
1.13387
11
1.15481
21
1.13059
0
LINE
8
BLACK
6
CONTINUOUS
10
1.15481
20
1.13059
11
1.15481
21
1.12621
0
LINE
8
BLACK
6
CONTINUOUS
10
1.15481
20
1.12621
11
1.15593
21
1.12396
0
LINE
8
BLACK
6
CONTINUOUS
10
1.15593
20
1.12396
11
1.15818
21
1.12284
0
LINE
8
BLACK
6
CONTINUOUS
10
1.15818
20
1.12284
11
1.16428
21
1.12284
0
LINE
8
BLACK
6
CONTINUOUS
10
1.16428
20
1.12284
11
1.16741
21
1.1244
0
LINE
8
BLACK
6
CONTINUOUS
10
1.16741
20
1.1244
11
1.16839
21
1.1247
0
LINE
8
BLACK
6
CONTINUOUS
10
1.16839
20
1.1247
11
1.17036
21
1.12423
0
LINE
8
BLACK
6
CONTINUOUS
10
1.17036
20
1.12423
11
1.17156
21
1.12261
0
LINE
8
BLACK
6
CONTINUOUS
10
1.17156
20
1.12261
11
1.17144
21
1.12059
0
LINE
8
BLACK
6
CONTINUOUS
10
1.17144
20
1.12059
11
1.17005
21
1.11912
0
LINE
8
BLACK
6
CONTINUOUS
10
1.17005
20
1.11912
11
1.1663
21
1.11725
0
LINE
8
BLACK
6
CONTINUOUS
10
1.1663
20
1.11725
11
1.16532
21
1.11696
0
LINE
8
BLACK
6
CONTINUOUS
10
1.16532
20
1.11696
11
1.16515
21
1.117
0
LINE
8
BLACK
6
CONTINUOUS
10
1.16515
20
1.117
11
1.16498
21
1.11694
0
LINE
8
BLACK
6
CONTINUOUS
10
1.16498
20
1.11694
11
1.15748
21
1.11694
0
LINE
8
BLACK
6
CONTINUOUS
10
1.15748
20
1.11694
11
1.15647
21
1.11711
0
LINE
8
BLACK
6
CONTINUOUS
10
1.15647
20
1.11711
11
1.15634
21
1.11723
0
LINE
8
BLACK
6
CONTINUOUS
10
1.15634
20
1.11723
11
1.15616
21
1.11725
0
LINE
8
BLACK
6
CONTINUOUS
10
1.15616
20
1.11725
11
1.15241
21
1.11912
0
LINE
8
BLACK
6
CONTINUOUS
10
1.15241
20
1.11912
11
1.15159
21
1.11973
0
LINE
8
BLACK
6
CONTINUOUS
10
1.15159
20
1.11973
11
1.15141
21
1.12014
0
LINE
8
BLACK
6
CONTINUOUS
10
1.15141
20
1.12014
11
1.15109
21
1.12044
0
LINE
8
BLACK
6
CONTINUOUS
10
1.15109
20
1.12044
11
1.14921
21
1.12419
0
LINE
8
BLACK
6
CONTINUOUS
10
1.14921
20
1.12419
11
1.14892
21
1.12518
0
LINE
8
BLACK
6
CONTINUOUS
10
1.14892
20
1.12518
11
1.14896
21
1.12535
0
LINE
8
BLACK
6
CONTINUOUS
10
1.14896
20
1.12535
11
1.1489
21
1.12551
0
LINE
8
BLACK
6
CONTINUOUS
10
1.1489
20
1.12551
11
1.1489
21
1.14051
0
LINE
8
BLACK
6
CONTINUOUS
10
1.1489
20
1.14051
11
1.14908
21
1.14152
0
LINE
8
BLACK
6
CONTINUOUS
10
1.14908
20
1.14152
11
1.14919
21
1.14166
0
LINE
8
BLACK
6
CONTINUOUS
10
1.14919
20
1.14166
11
1.14921
21
1.14183
0
LINE
8
BLACK
6
CONTINUOUS
10
1.14921
20
1.14183
11
1.15109
21
1.14558
0
LINE
8
BLACK
6
CONTINUOUS
10
1.15109
20
1.14558
11
1.1517
21
1.14641
0
LINE
8
BLACK
6
CONTINUOUS
10
1.1517
20
1.14641
11
1.15211
21
1.14658
0
LINE
8
BLACK
6
CONTINUOUS
10
1.15211
20
1.14658
11
1.15241
21
1.1469
0
LINE
8
BLACK
6
CONTINUOUS
10
1.15241
20
1.1469
11
1.15616
21
1.14878
0
LINE
8
BLACK
6
CONTINUOUS
10
1.15616
20
1.14878
11
1.15714
21
1.14907
0
LINE
8
BLACK
6
CONTINUOUS
10
1.15714
20
1.14907
11
1.15731
21
1.14903
0
LINE
8
BLACK
6
CONTINUOUS
10
1.15731
20
1.14903
11
1.15748
21
1.14909
0
LINE
8
BLACK
6
CONTINUOUS
10
1.15748
20
1.14909
11
1.16498
21
1.14909
0
LINE
8
BLACK
6
CONTINUOUS
10
1.16498
20
1.14909
11
1.16599
21
1.14891
0
LINE
8
BLACK
6
CONTINUOUS
10
1.15593
20
1.14206
11
1.15481
21
1.13981
0
LINE
8
BLACK
6
CONTINUOUS
10
1.15481
20
1.13981
11
1.15481
21
1.13661
0
LINE
8
BLACK
6
CONTINUOUS
10
1.15481
20
1.13661
11
1.16765
21
1.13918
0
LINE
8
BLACK
6
CONTINUOUS
10
1.16765
20
1.13918
11
1.16765
21
1.13981
0
LINE
8
BLACK
6
CONTINUOUS
10
1.16765
20
1.13981
11
1.16653
21
1.14206
0
LINE
8
BLACK
6
CONTINUOUS
10
1.16653
20
1.14206
11
1.16428
21
1.14318
0
LINE
8
BLACK
6
CONTINUOUS
10
1.16428
20
1.14318
11
1.15818
21
1.14318
0
LINE
8
BLACK
6
CONTINUOUS
10
1.15818
20
1.14318
11
1.15593
21
1.14206
0
LINE
8
BLACK
6
CONTINUOUS
10
1.20161
20
1.14891
11
1.20175
21
1.1488
0
LINE
8
BLACK
6
CONTINUOUS
10
1.20175
20
1.1488
11
1.20192
21
1.14878
0
LINE
8
BLACK
6
CONTINUOUS
10
1.20192
20
1.14878
11
1.20567
21
1.1469
0
LINE
8
BLACK
6
CONTINUOUS
10
1.20567
20
1.1469
11
1.20649
21
1.14629
0
LINE
8
BLACK
6
CONTINUOUS
10
1.20649
20
1.14629
11
1.2073
21
1.14444
0
LINE
8
BLACK
6
CONTINUOUS
10
1.2073
20
1.14444
11
1.20672
21
1.1425
0
LINE
8
BLACK
6
CONTINUOUS
10
1.20672
20
1.1425
11
1.20504
21
1.14139
0
LINE
8
BLACK
6
CONTINUOUS
10
1.20504
20
1.14139
11
1.20303
21
1.14162
0
LINE
8
BLACK
6
CONTINUOUS
10
1.20303
20
1.14162
11
1.1999
21
1.14318
0
LINE
8
BLACK
6
CONTINUOUS
10
1.1999
20
1.14318
11
1.1938
21
1.14318
0
LINE
8
BLACK
6
CONTINUOUS
10
1.1938
20
1.14318
11
1.1911
21
1.14183
0
LINE
8
BLACK
6
CONTINUOUS
10
1.1911
20
1.14183
11
1.1899
21
1.14064
0
LINE
8
BLACK
6
CONTINUOUS
10
1.1899
20
1.14064
11
1.18855
21
1.13794
0
LINE
8
BLACK
6
CONTINUOUS
10
1.18855
20
1.13794
11
1.18855
21
1.12809
0
LINE
8
BLACK
6
CONTINUOUS
10
1.18855
20
1.12809
11
1.1899
21
1.12539
0
LINE
8
BLACK
6
CONTINUOUS
10
1.1899
20
1.12539
11
1.1911
21
1.12419
0
LINE
8
BLACK
6
CONTINUOUS
10
1.1911
20
1.12419
11
1.1938
21
1.12284
0
LINE
8
BLACK
6
CONTINUOUS
10
1.1938
20
1.12284
11
1.1999
21
1.12284
0
LINE
8
BLACK
6
CONTINUOUS
10
1.1999
20
1.12284
11
1.20303
21
1.1244
0
LINE
8
BLACK
6
CONTINUOUS
10
1.20303
20
1.1244
11
1.20401
21
1.1247
0
LINE
8
BLACK
6
CONTINUOUS
10
1.20401
20
1.1247
11
1.20598
21
1.12423
0
LINE
8
BLACK
6
CONTINUOUS
10
1.20598
20
1.12423
11
1.20718
21
1.12261
0
LINE
8
BLACK
6
CONTINUOUS
10
1.20718
20
1.12261
11
1.20706
21
1.12059
0
LINE
8
BLACK
6
CONTINUOUS
10
1.20706
20
1.12059
11
1.20567
21
1.11912
0
LINE
8
BLACK
6
CONTINUOUS
10
1.20567
20
1.11912
11
1.20192
21
1.11725
0
LINE
8
BLACK
6
CONTINUOUS
10
1.20192
20
1.11725
11
1.20094
21
1.11696
0
LINE
8
BLACK
6
CONTINUOUS
10
1.20094
20
1.11696
11
1.20077
21
1.117
0
LINE
8
BLACK
6
CONTINUOUS
10
1.20077
20
1.117
11
1.2006
21
1.11694
0
LINE
8
BLACK
6
CONTINUOUS
10
1.2006
20
1.11694
11
1.1931
21
1.11694
0
LINE
8
BLACK
6
CONTINUOUS
10
1.1931
20
1.11694
11
1.19209
21
1.11711
0
LINE
8
BLACK
6
CONTINUOUS
10
1.19209
20
1.11711
11
1.19196
21
1.11723
0
LINE
8
BLACK
6
CONTINUOUS
10
1.19196
20
1.11723
11
1.19178
21
1.11725
0
LINE
8
BLACK
6
CONTINUOUS
10
1.19178
20
1.11725
11
1.18803
21
1.11912
0
LINE
8
BLACK
6
CONTINUOUS
10
1.18803
20
1.11912
11
1.18732
21
1.11965
0
LINE
8
BLACK
6
CONTINUOUS
10
1.18732
20
1.11965
11
1.18726
21
1.11968
0
LINE
8
BLACK
6
CONTINUOUS
10
1.18726
20
1.11968
11
1.18539
21
1.12155
0
LINE
8
BLACK
6
CONTINUOUS
10
1.18539
20
1.12155
11
1.18488
21
1.12227
0
LINE
8
BLACK
6
CONTINUOUS
10
1.18488
20
1.12227
11
1.18484
21
1.12232
0
LINE
8
BLACK
6
CONTINUOUS
10
1.18484
20
1.12232
11
1.18296
21
1.12607
0
LINE
8
BLACK
6
CONTINUOUS
10
1.18296
20
1.12607
11
1.18267
21
1.12705
0
LINE
8
BLACK
6
CONTINUOUS
10
1.18267
20
1.12705
11
1.18271
21
1.12722
0
LINE
8
BLACK
6
CONTINUOUS
10
1.18271
20
1.12722
11
1.18265
21
1.12739
0
LINE
8
BLACK
6
CONTINUOUS
10
1.18265
20
1.12739
11
1.18265
21
1.13864
0
LINE
8
BLACK
6
CONTINUOUS
10
1.18265
20
1.13864
11
1.18283
21
1.13965
0
LINE
8
BLACK
6
CONTINUOUS
10
1.18283
20
1.13965
11
1.18294
21
1.13978
0
LINE
8
BLACK
6
CONTINUOUS
10
1.18294
20
1.13978
11
1.18296
21
1.13996
0
LINE
8
BLACK
6
CONTINUOUS
10
1.18296
20
1.13996
11
1.18484
21
1.14371
0
LINE
8
BLACK
6
CONTINUOUS
10
1.18484
20
1.14371
11
1.18536
21
1.14442
0
LINE
8
BLACK
6
CONTINUOUS
10
1.18536
20
1.14442
11
1.18539
21
1.14447
0
LINE
8
BLACK
6
CONTINUOUS
10
1.18539
20
1.14447
11
1.18726
21
1.14635
0
LINE
8
BLACK
6
CONTINUOUS
10
1.18726
20
1.14635
11
1.18799
21
1.14686
0
LINE
8
BLACK
6
CONTINUOUS
10
1.18799
20
1.14686
11
1.18803
21
1.1469
0
LINE
8
BLACK
6
CONTINUOUS
10
1.18803
20
1.1469
11
1.19178
21
1.14878
0
LINE
8
BLACK
6
CONTINUOUS
10
1.19178
20
1.14878
11
1.19276
21
1.14907
0
LINE
8
BLACK
6
CONTINUOUS
10
1.19276
20
1.14907
11
1.19293
21
1.14903
0
LINE
8
BLACK
6
CONTINUOUS
10
1.19293
20
1.14903
11
1.1931
21
1.14909
0
LINE
8
BLACK
6
CONTINUOUS
10
1.1931
20
1.14909
11
1.2006
21
1.14909
0
LINE
8
BLACK
6
CONTINUOUS
10
1.2006
20
1.14909
11
1.20161
21
1.14891
0
LINE
8
BLACK
6
CONTINUOUS
10
1.25035
20
1.14891
11
1.25049
21
1.1488
0
LINE
8
BLACK
6
CONTINUOUS
10
1.25049
20
1.1488
11
1.25066
21
1.14878
0
LINE
8
BLACK
6
CONTINUOUS
10
1.25066
20
1.14878
11
1.25441
21
1.1469
0
LINE
8
BLACK
6
CONTINUOUS
10
1.25441
20
1.1469
11
1.25524
21
1.14629
0
LINE
8
BLACK
6
CONTINUOUS
10
1.25524
20
1.14629
11
1.25604
21
1.14444
0
LINE
8
BLACK
6
CONTINUOUS
10
1.25604
20
1.14444
11
1.25546
21
1.1425
0
LINE
8
BLACK
6
CONTINUOUS
10
1.25546
20
1.1425
11
1.25378
21
1.14139
0
LINE
8
BLACK
6
CONTINUOUS
10
1.25378
20
1.14139
11
1.25177
21
1.14162
0
LINE
8
BLACK
6
CONTINUOUS
10
1.25177
20
1.14162
11
1.24865
21
1.14318
0
LINE
8
BLACK
6
CONTINUOUS
10
1.24865
20
1.14318
11
1.24442
21
1.14318
0
LINE
8
BLACK
6
CONTINUOUS
10
1.24442
20
1.14318
11
1.24217
21
1.14206
0
LINE
8
BLACK
6
CONTINUOUS
10
1.24217
20
1.14206
11
1.24105
21
1.13981
0
LINE
8
BLACK
6
CONTINUOUS
10
1.24105
20
1.13981
11
1.24105
21
1.13933
0
LINE
8
BLACK
6
CONTINUOUS
10
1.24105
20
1.13933
11
1.24217
21
1.13709
0
LINE
8
BLACK
6
CONTINUOUS
10
1.24217
20
1.13709
11
1.24442
21
1.13597
0
LINE
8
BLACK
6
CONTINUOUS
10
1.24442
20
1.13597
11
1.24934
21
1.13597
0
LINE
8
BLACK
6
CONTINUOUS
10
1.24934
20
1.13597
11
1.25035
21
1.13579
0
LINE
8
BLACK
6
CONTINUOUS
10
1.25035
20
1.13579
11
1.25049
21
1.13567
0
LINE
8
BLACK
6
CONTINUOUS
10
1.25049
20
1.13567
11
1.25066
21
1.13565
0
LINE
8
BLACK
6
CONTINUOUS
10
1.25066
20
1.13565
11
1.25441
21
1.13378
0
LINE
8
BLACK
6
CONTINUOUS
10
1.25441
20
1.13378
11
1.25524
21
1.13317
0
LINE
8
BLACK
6
CONTINUOUS
10
1.25524
20
1.13317
11
1.25541
21
1.13276
0
LINE
8
BLACK
6
CONTINUOUS
10
1.25541
20
1.13276
11
1.25573
21
1.13246
0
LINE
8
BLACK
6
CONTINUOUS
10
1.25573
20
1.13246
11
1.25761
21
1.12871
0
LINE
8
BLACK
6
CONTINUOUS
10
1.25761
20
1.12871
11
1.2579
21
1.12773
0
LINE
8
BLACK
6
CONTINUOUS
10
1.2579
20
1.12773
11
1.25786
21
1.12755
0
LINE
8
BLACK
6
CONTINUOUS
10
1.25786
20
1.12755
11
1.25792
21
1.12739
0
LINE
8
BLACK
6
CONTINUOUS
10
1.25792
20
1.12739
11
1.25792
21
1.12551
0
LINE
8
BLACK
6
CONTINUOUS
10
1.25792
20
1.12551
11
1.25774
21
1.1245
0
LINE
8
BLACK
6
CONTINUOUS
10
1.25774
20
1.1245
11
1.25763
21
1.12437
0
LINE
8
BLACK
6
CONTINUOUS
10
1.25763
20
1.12437
11
1.25761
21
1.12419
0
LINE
8
BLACK
6
CONTINUOUS
10
1.25761
20
1.12419
11
1.25573
21
1.12044
0
LINE
8
BLACK
6
CONTINUOUS
10
1.25573
20
1.12044
11
1.25512
21
1.11962
0
LINE
8
BLACK
6
CONTINUOUS
10
1.25512
20
1.11962
11
1.25472
21
1.11944
0
LINE
8
BLACK
6
CONTINUOUS
10
1.25472
20
1.11944
11
1.25441
21
1.11912
0
LINE
8
BLACK
6
CONTINUOUS
10
1.25441
20
1.11912
11
1.25066
21
1.11725
0
LINE
8
BLACK
6
CONTINUOUS
10
1.25066
20
1.11725
11
1.24968
21
1.11696
0
LINE
8
BLACK
6
CONTINUOUS
10
1.24968
20
1.11696
11
1.24951
21
1.117
0
LINE
8
BLACK
6
CONTINUOUS
10
1.24951
20
1.117
11
1.24934
21
1.11694
0
LINE
8
BLACK
6
CONTINUOUS
10
1.24934
20
1.11694
11
1.24184
21
1.11694
0
LINE
8
BLACK
6
CONTINUOUS
10
1.24184
20
1.11694
11
1.24083
21
1.11711
0
LINE
8
BLACK
6
CONTINUOUS
10
1.24083
20
1.11711
11
1.2407
21
1.11723
0
LINE
8
BLACK
6
CONTINUOUS
10
1.2407
20
1.11723
11
1.24052
21
1.11725
0
LINE
8
BLACK
6
CONTINUOUS
10
1.24052
20
1.11725
11
1.23677
21
1.11912
0
LINE
8
BLACK
6
CONTINUOUS
10
1.23677
20
1.11912
11
1.23595
21
1.11973
0
LINE
8
BLACK
6
CONTINUOUS
10
1.23595
20
1.11973
11
1.23515
21
1.12159
0
LINE
8
BLACK
6
CONTINUOUS
10
1.23515
20
1.12159
11
1.23572
21
1.12352
0
LINE
8
BLACK
6
CONTINUOUS
10
1.23572
20
1.12352
11
1.23741
21
1.12464
0
LINE
8
BLACK
6
CONTINUOUS
10
1.23741
20
1.12464
11
1.23942
21
1.1244
0
LINE
8
BLACK
6
CONTINUOUS
10
1.23942
20
1.1244
11
1.24254
21
1.12284
0
LINE
8
BLACK
6
CONTINUOUS
10
1.24254
20
1.12284
11
1.24865
21
1.12284
0
LINE
8
BLACK
6
CONTINUOUS
10
1.24865
20
1.12284
11
1.25089
21
1.12396
0
LINE
8
BLACK
6
CONTINUOUS
10
1.25089
20
1.12396
11
1.25202
21
1.12621
0
LINE
8
BLACK
6
CONTINUOUS
10
1.25202
20
1.12621
11
1.25202
21
1.12669
0
LINE
8
BLACK
6
CONTINUOUS
10
1.25202
20
1.12669
11
1.25089
21
1.12894
0
LINE
8
BLACK
6
CONTINUOUS
10
1.25089
20
1.12894
11
1.24865
21
1.13006
0
LINE
8
BLACK
6
CONTINUOUS
10
1.24865
20
1.13006
11
1.24372
21
1.13006
0
LINE
8
BLACK
6
CONTINUOUS
10
1.24372
20
1.13006
11
1.24271
21
1.13024
0
LINE
8
BLACK
6
CONTINUOUS
10
1.24271
20
1.13024
11
1.24257
21
1.13035
0
LINE
8
BLACK
6
CONTINUOUS
10
1.24257
20
1.13035
11
1.2424
21
1.13037
0
LINE
8
BLACK
6
CONTINUOUS
10
1.2424
20
1.13037
11
1.23865
21
1.13225
0
LINE
8
BLACK
6
CONTINUOUS
10
1.23865
20
1.13225
11
1.23783
21
1.13286
0
LINE
8
BLACK
6
CONTINUOUS
10
1.23783
20
1.13286
11
1.23765
21
1.13326
0
LINE
8
BLACK
6
CONTINUOUS
10
1.23765
20
1.13326
11
1.23733
21
1.13357
0
LINE
8
BLACK
6
CONTINUOUS
10
1.23733
20
1.13357
11
1.23545
21
1.13732
0
LINE
8
BLACK
6
CONTINUOUS
10
1.23545
20
1.13732
11
1.23516
21
1.1383
0
LINE
8
BLACK
6
CONTINUOUS
10
1.23516
20
1.1383
11
1.2352
21
1.13847
0
LINE
8
BLACK
6
CONTINUOUS
10
1.2352
20
1.13847
11
1.23514
21
1.13864
0
LINE
8
BLACK
6
CONTINUOUS
10
1.23514
20
1.13864
11
1.23514
21
1.14051
0
LINE
8
BLACK
6
CONTINUOUS
10
1.23514
20
1.14051
11
1.23532
21
1.14152
0
LINE
8
BLACK
6
CONTINUOUS
10
1.23532
20
1.14152
11
1.23543
21
1.14166
0
LINE
8
BLACK
6
CONTINUOUS
10
1.23543
20
1.14166
11
1.23545
21
1.14183
0
LINE
8
BLACK
6
CONTINUOUS
10
1.23545
20
1.14183
11
1.23733
21
1.14558
0
LINE
8
BLACK
6
CONTINUOUS
10
1.23733
20
1.14558
11
1.23794
21
1.14641
0
LINE
8
BLACK
6
CONTINUOUS
10
1.23794
20
1.14641
11
1.23835
21
1.14658
0
LINE
8
BLACK
6
CONTINUOUS
10
1.23835
20
1.14658
11
1.23865
21
1.1469
0
LINE
8
BLACK
6
CONTINUOUS
10
1.23865
20
1.1469
11
1.2424
21
1.14878
0
LINE
8
BLACK
6
CONTINUOUS
10
1.2424
20
1.14878
11
1.24338
21
1.14907
0
LINE
8
BLACK
6
CONTINUOUS
10
1.24338
20
1.14907
11
1.24355
21
1.14903
0
LINE
8
BLACK
6
CONTINUOUS
10
1.24355
20
1.14903
11
1.24372
21
1.14909
0
LINE
8
BLACK
6
CONTINUOUS
10
1.24372
20
1.14909
11
1.24934
21
1.14909
0
LINE
8
BLACK
6
CONTINUOUS
10
1.24934
20
1.14909
11
1.25035
21
1.14891
0
LINE
8
BLACK
6
CONTINUOUS
10
1.30285
20
1.14891
11
1.30298
21
1.1488
0
LINE
8
BLACK
6
CONTINUOUS
10
1.30298
20
1.1488
11
1.30316
21
1.14878
0
LINE
8
BLACK
6
CONTINUOUS
10
1.30316
20
1.14878
11
1.30691
21
1.1469
0
LINE
8
BLACK
6
CONTINUOUS
10
1.30691
20
1.1469
11
1.30762
21
1.14638
0
LINE
8
BLACK
6
CONTINUOUS
10
1.30762
20
1.14638
11
1.30767
21
1.14635
0
LINE
8
BLACK
6
CONTINUOUS
10
1.30767
20
1.14635
11
1.30955
21
1.14447
0
LINE
8
BLACK
6
CONTINUOUS
10
1.30955
20
1.14447
11
1.31006
21
1.14375
0
LINE
8
BLACK
6
CONTINUOUS
10
1.31006
20
1.14375
11
1.3101
21
1.14371
0
LINE
8
BLACK
6
CONTINUOUS
10
1.3101
20
1.14371
11
1.31198
21
1.13996
0
LINE
8
BLACK
6
CONTINUOUS
10
1.31198
20
1.13996
11
1.31227
21
1.13897
0
LINE
8
BLACK
6
CONTINUOUS
10
1.31227
20
1.13897
11
1.31223
21
1.1388
0
LINE
8
BLACK
6
CONTINUOUS
10
1.31223
20
1.1388
11
1.31229
21
1.13864
0
LINE
8
BLACK
6
CONTINUOUS
10
1.31229
20
1.13864
11
1.31229
21
1.12739
0
LINE
8
BLACK
6
CONTINUOUS
10
1.31229
20
1.12739
11
1.31211
21
1.12638
0
LINE
8
BLACK
6
CONTINUOUS
10
1.31211
20
1.12638
11
1.312
21
1.12624
0
LINE
8
BLACK
6
CONTINUOUS
10
1.312
20
1.12624
11
1.31198
21
1.12607
0
LINE
8
BLACK
6
CONTINUOUS
10
1.31198
20
1.12607
11
1.3101
21
1.12232
0
LINE
8
BLACK
6
CONTINUOUS
10
1.3101
20
1.12232
11
1.30958
21
1.12161
0
LINE
8
BLACK
6
CONTINUOUS
10
1.30958
20
1.12161
11
1.30955
21
1.12155
0
LINE
8
BLACK
6
CONTINUOUS
10
1.30955
20
1.12155
11
1.30767
21
1.11968
0
LINE
8
BLACK
6
CONTINUOUS
10
1.30767
20
1.11968
11
1.30695
21
1.11917
0
LINE
8
BLACK
6
CONTINUOUS
10
1.30695
20
1.11917
11
1.30691
21
1.11912
0
LINE
8
BLACK
6
CONTINUOUS
10
1.30691
20
1.11912
11
1.30316
21
1.11725
0
LINE
8
BLACK
6
CONTINUOUS
10
1.30316
20
1.11725
11
1.30217
21
1.11696
0
LINE
8
BLACK
6
CONTINUOUS
10
1.30217
20
1.11696
11
1.302
21
1.117
0
LINE
8
BLACK
6
CONTINUOUS
10
1.302
20
1.117
11
1.30184
21
1.11694
0
LINE
8
BLACK
6
CONTINUOUS
10
1.30184
20
1.11694
11
1.29621
21
1.11694
0
LINE
8
BLACK
6
CONTINUOUS
10
1.29621
20
1.11694
11
1.2952
21
1.11711
0
LINE
8
BLACK
6
CONTINUOUS
10
1.2952
20
1.11711
11
1.29507
21
1.11723
0
LINE
8
BLACK
6
CONTINUOUS
10
1.29507
20
1.11723
11
1.29489
21
1.11725
0
LINE
8
BLACK
6
CONTINUOUS
10
1.29489
20
1.11725
11
1.29114
21
1.11912
0
LINE
8
BLACK
6
CONTINUOUS
10
1.29114
20
1.11912
11
1.29043
21
1.11965
0
LINE
8
BLACK
6
CONTINUOUS
10
1.29043
20
1.11965
11
1.29038
21
1.11968
0
LINE
8
BLACK
6
CONTINUOUS
10
1.29038
20
1.11968
11
1.2885
21
1.12155
0
LINE
8
BLACK
6
CONTINUOUS
10
1.2885
20
1.12155
11
1.28799
21
1.12227
0
LINE
8
BLACK
6
CONTINUOUS
10
1.28799
20
1.12227
11
1.28795
21
1.12232
0
LINE
8
BLACK
6
CONTINUOUS
10
1.28795
20
1.12232
11
1.28607
21
1.12607
0
LINE
8
BLACK
6
CONTINUOUS
10
1.28607
20
1.12607
11
1.28578
21
1.12705
0
LINE
8
BLACK
6
CONTINUOUS
10
1.28578
20
1.12705
11
1.28582
21
1.12722
0
LINE
8
BLACK
6
CONTINUOUS
10
1.28582
20
1.12722
11
1.28576
21
1.12739
0
LINE
8
BLACK
6
CONTINUOUS
10
1.28576
20
1.12739
11
1.28576
21
1.13864
0
LINE
8
BLACK
6
CONTINUOUS
10
1.28576
20
1.13864
11
1.28594
21
1.13965
0
LINE
8
BLACK
6
CONTINUOUS
10
1.28594
20
1.13965
11
1.28605
21
1.13978
0
LINE
8
BLACK
6
CONTINUOUS
10
1.28605
20
1.13978
11
1.28607
21
1.13996
0
LINE
8
BLACK
6
CONTINUOUS
10
1.28607
20
1.13996
11
1.28795
21
1.14371
0
LINE
8
BLACK
6
CONTINUOUS
10
1.28795
20
1.14371
11
1.28847
21
1.14442
0
LINE
8
BLACK
6
CONTINUOUS
10
1.28847
20
1.14442
11
1.2885
21
1.14447
0
LINE
8
BLACK
6
CONTINUOUS
10
1.2885
20
1.14447
11
1.29038
21
1.14635
0
LINE
8
BLACK
6
CONTINUOUS
10
1.29038
20
1.14635
11
1.2911
21
1.14686
0
LINE
8
BLACK
6
CONTINUOUS
10
1.2911
20
1.14686
11
1.29114
21
1.1469
0
LINE
8
BLACK
6
CONTINUOUS
10
1.29114
20
1.1469
11
1.29489
21
1.14878
0
LINE
8
BLACK
6
CONTINUOUS
10
1.29489
20
1.14878
11
1.29588
21
1.14907
0
LINE
8
BLACK
6
CONTINUOUS
10
1.29588
20
1.14907
11
1.29605
21
1.14903
0
LINE
8
BLACK
6
CONTINUOUS
10
1.29605
20
1.14903
11
1.29621
21
1.14909
0
LINE
8
BLACK
6
CONTINUOUS
10
1.29621
20
1.14909
11
1.30184
21
1.14909
0
LINE
8
BLACK
6
CONTINUOUS
10
1.30184
20
1.14909
11
1.30285
21
1.14891
0
LINE
8
BLACK
6
CONTINUOUS
10
1.29421
20
1.14183
11
1.29302
21
1.14064
0
LINE
8
BLACK
6
CONTINUOUS
10
1.29302
20
1.14064
11
1.29167
21
1.13794
0
LINE
8
BLACK
6
CONTINUOUS
10
1.29167
20
1.13794
11
1.29167
21
1.12809
0
LINE
8
BLACK
6
CONTINUOUS
10
1.29167
20
1.12809
11
1.29302
21
1.12539
0
LINE
8
BLACK
6
CONTINUOUS
10
1.29302
20
1.12539
11
1.29421
21
1.12419
0
LINE
8
BLACK
6
CONTINUOUS
10
1.29421
20
1.12419
11
1.29691
21
1.12284
0
LINE
8
BLACK
6
CONTINUOUS
10
1.29691
20
1.12284
11
1.30114
21
1.12284
0
LINE
8
BLACK
6
CONTINUOUS
10
1.30114
20
1.12284
11
1.30384
21
1.12419
0
LINE
8
BLACK
6
CONTINUOUS
10
1.30384
20
1.12419
11
1.30503
21
1.12539
0
LINE
8
BLACK
6
CONTINUOUS
10
1.30503
20
1.12539
11
1.30638
21
1.12809
0
LINE
8
BLACK
6
CONTINUOUS
10
1.30638
20
1.12809
11
1.30638
21
1.13794
0
LINE
8
BLACK
6
CONTINUOUS
10
1.30638
20
1.13794
11
1.30503
21
1.14064
0
LINE
8
BLACK
6
CONTINUOUS
10
1.30503
20
1.14064
11
1.30384
21
1.14183
0
LINE
8
BLACK
6
CONTINUOUS
10
1.30384
20
1.14183
11
1.30114
21
1.14318
0
LINE
8
BLACK
6
CONTINUOUS
10
1.30114
20
1.14318
11
1.29691
21
1.14318
0
LINE
8
BLACK
6
CONTINUOUS
10
1.29691
20
1.14318
11
1.29421
21
1.14183
0
LINE
8
BLACK
6
CONTINUOUS
10
1.40221
20
1.14891
11
1.40234
21
1.1488
0
LINE
8
BLACK
6
CONTINUOUS
10
1.40234
20
1.1488
11
1.40252
21
1.14878
0
LINE
8
BLACK
6
CONTINUOUS
10
1.40252
20
1.14878
11
1.40627
21
1.1469
0
LINE
8
BLACK
6
CONTINUOUS
10
1.40627
20
1.1469
11
1.40709
21
1.14629
0
LINE
8
BLACK
6
CONTINUOUS
10
1.40709
20
1.14629
11
1.4079
21
1.14444
0
LINE
8
BLACK
6
CONTINUOUS
10
1.4079
20
1.14444
11
1.40732
21
1.1425
0
LINE
8
BLACK
6
CONTINUOUS
10
1.40732
20
1.1425
11
1.40564
21
1.14139
0
LINE
8
BLACK
6
CONTINUOUS
10
1.40564
20
1.14139
11
1.40363
21
1.14162
0
LINE
8
BLACK
6
CONTINUOUS
10
1.40363
20
1.14162
11
1.4005
21
1.14318
0
LINE
8
BLACK
6
CONTINUOUS
10
1.4005
20
1.14318
11
1.39627
21
1.14318
0
LINE
8
BLACK
6
CONTINUOUS
10
1.39627
20
1.14318
11
1.39403
21
1.14206
0
LINE
8
BLACK
6
CONTINUOUS
10
1.39403
20
1.14206
11
1.3929
21
1.13981
0
LINE
8
BLACK
6
CONTINUOUS
10
1.3929
20
1.13981
11
1.3929
21
1.13933
0
LINE
8
BLACK
6
CONTINUOUS
10
1.3929
20
1.13933
11
1.39403
21
1.13709
0
LINE
8
BLACK
6
CONTINUOUS
10
1.39403
20
1.13709
11
1.39627
21
1.13597
0
LINE
8
BLACK
6
CONTINUOUS
10
1.39627
20
1.13597
11
1.4012
21
1.13597
0
LINE
8
BLACK
6
CONTINUOUS
10
1.4012
20
1.13597
11
1.40221
21
1.13579
0
LINE
8
BLACK
6
CONTINUOUS
10
1.40221
20
1.13579
11
1.40234
21
1.13567
0
LINE
8
BLACK
6
CONTINUOUS
10
1.40234
20
1.13567
11
1.40252
21
1.13565
0
LINE
8
BLACK
6
CONTINUOUS
10
1.40252
20
1.13565
11
1.40627
21
1.13378
0
LINE
8
BLACK
6
CONTINUOUS
10
1.40627
20
1.13378
11
1.40709
21
1.13317
0
LINE
8
BLACK
6
CONTINUOUS
10
1.40709
20
1.13317
11
1.40727
21
1.13276
0
LINE
8
BLACK
6
CONTINUOUS
10
1.40727
20
1.13276
11
1.40759
21
1.13246
0
LINE
8
BLACK
6
CONTINUOUS
10
1.40759
20
1.13246
11
1.40947
21
1.12871
0
LINE
8
BLACK
6
CONTINUOUS
10
1.40947
20
1.12871
11
1.40976
21
1.12773
0
LINE
8
BLACK
6
CONTINUOUS
10
1.40976
20
1.12773
11
1.40972
21
1.12755
0
LINE
8
BLACK
6
CONTINUOUS
10
1.40972
20
1.12755
11
1.40978
21
1.12739
0
LINE
8
BLACK
6
CONTINUOUS
10
1.40978
20
1.12739
11
1.40978
21
1.12551
0
LINE
8
BLACK
6
CONTINUOUS
10
1.40978
20
1.12551
11
1.4096
21
1.1245
0
LINE
8
BLACK
6
CONTINUOUS
10
1.4096
20
1.1245
11
1.40949
21
1.12437
0
LINE
8
BLACK
6
CONTINUOUS
10
1.40949
20
1.12437
11
1.40947
21
1.12419
0
LINE
8
BLACK
6
CONTINUOUS
10
1.40947
20
1.12419
11
1.40759
21
1.12044
0
LINE
8
BLACK
6
CONTINUOUS
10
1.40759
20
1.12044
11
1.40698
21
1.11962
0
LINE
8
BLACK
6
CONTINUOUS
10
1.40698
20
1.11962
11
1.40657
21
1.11944
0
LINE
8
BLACK
6
CONTINUOUS
10
1.40657
20
1.11944
11
1.40627
21
1.11912
0
LINE
8
BLACK
6
CONTINUOUS
10
1.40627
20
1.11912
11
1.40252
21
1.11725
0
LINE
8
BLACK
6
CONTINUOUS
10
1.40252
20
1.11725
11
1.40154
21
1.11696
0
LINE
8
BLACK
6
CONTINUOUS
10
1.40154
20
1.11696
11
1.40137
21
1.117
0
LINE
8
BLACK
6
CONTINUOUS
10
1.40137
20
1.117
11
1.4012
21
1.11694
0
LINE
8
BLACK
6
CONTINUOUS
10
1.4012
20
1.11694
11
1.3937
21
1.11694
0
LINE
8
BLACK
6
CONTINUOUS
10
1.3937
20
1.11694
11
1.39269
21
1.11711
0
LINE
8
BLACK
6
CONTINUOUS
10
1.39269
20
1.11711
11
1.39256
21
1.11723
0
LINE
8
BLACK
6
CONTINUOUS
10
1.39256
20
1.11723
11
1.39238
21
1.11725
0
LINE
8
BLACK
6
CONTINUOUS
10
1.39238
20
1.11725
11
1.38863
21
1.11912
0
LINE
8
BLACK
6
CONTINUOUS
10
1.38863
20
1.11912
11
1.38781
21
1.11973
0
LINE
8
BLACK
6
CONTINUOUS
10
1.38781
20
1.11973
11
1.387
21
1.12159
0
LINE
8
BLACK
6
CONTINUOUS
10
1.387
20
1.12159
11
1.38758
21
1.12352
0
LINE
8
BLACK
6
CONTINUOUS
10
1.38758
20
1.12352
11
1.38927
21
1.12464
0
LINE
8
BLACK
6
CONTINUOUS
10
1.38927
20
1.12464
11
1.39127
21
1.1244
0
LINE
8
BLACK
6
CONTINUOUS
10
1.39127
20
1.1244
11
1.3944
21
1.12284
0
LINE
8
BLACK
6
CONTINUOUS
10
1.3944
20
1.12284
11
1.4005
21
1.12284
0
LINE
8
BLACK
6
CONTINUOUS
10
1.4005
20
1.12284
11
1.40275
21
1.12396
0
LINE
8
BLACK
6
CONTINUOUS
10
1.40275
20
1.12396
11
1.40387
21
1.12621
0
LINE
8
BLACK
6
CONTINUOUS
10
1.40387
20
1.12621
11
1.40387
21
1.12669
0
LINE
8
BLACK
6
CONTINUOUS
10
1.40387
20
1.12669
11
1.40275
21
1.12894
0
LINE
8
BLACK
6
CONTINUOUS
10
1.40275
20
1.12894
11
1.4005
21
1.13006
0
LINE
8
BLACK
6
CONTINUOUS
10
1.4005
20
1.13006
11
1.39558
21
1.13006
0
LINE
8
BLACK
6
CONTINUOUS
10
1.39558
20
1.13006
11
1.39457
21
1.13024
0
LINE
8
BLACK
6
CONTINUOUS
10
1.39457
20
1.13024
11
1.39443
21
1.13035
0
LINE
8
BLACK
6
CONTINUOUS
10
1.39443
20
1.13035
11
1.39426
21
1.13037
0
LINE
8
BLACK
6
CONTINUOUS
10
1.39426
20
1.13037
11
1.39051
21
1.13225
0
LINE
8
BLACK
6
CONTINUOUS
10
1.39051
20
1.13225
11
1.38968
21
1.13286
0
LINE
8
BLACK
6
CONTINUOUS
10
1.38968
20
1.13286
11
1.38951
21
1.13326
0
LINE
8
BLACK
6
CONTINUOUS
10
1.38951
20
1.13326
11
1.38918
21
1.13357
0
LINE
8
BLACK
6
CONTINUOUS
10
1.38918
20
1.13357
11
1.38731
21
1.13732
0
LINE
8
BLACK
6
CONTINUOUS
10
1.38731
20
1.13732
11
1.38702
21
1.1383
0
LINE
8
BLACK
6
CONTINUOUS
10
1.38702
20
1.1383
11
1.38706
21
1.13847
0
LINE
8
BLACK
6
CONTINUOUS
10
1.38706
20
1.13847
11
1.387
21
1.13864
0
LINE
8
BLACK
6
CONTINUOUS
10
1.387
20
1.13864
11
1.387
21
1.14051
0
LINE
8
BLACK
6
CONTINUOUS
10
1.387
20
1.14051
11
1.38718
21
1.14152
0
LINE
8
BLACK
6
CONTINUOUS
10
1.38718
20
1.14152
11
1.38729
21
1.14166
0
LINE
8
BLACK
6
CONTINUOUS
10
1.38729
20
1.14166
11
1.38731
21
1.14183
0
LINE
8
BLACK
6
CONTINUOUS
10
1.38731
20
1.14183
11
1.38918
21
1.14558
0
LINE
8
BLACK
6
CONTINUOUS
10
1.38918
20
1.14558
11
1.3898
21
1.14641
0
LINE
8
BLACK
6
CONTINUOUS
10
1.3898
20
1.14641
11
1.3902
21
1.14658
0
LINE
8
BLACK
6
CONTINUOUS
10
1.3902
20
1.14658
11
1.39051
21
1.1469
0
LINE
8
BLACK
6
CONTINUOUS
10
1.39051
20
1.1469
11
1.39426
21
1.14878
0
LINE
8
BLACK
6
CONTINUOUS
10
1.39426
20
1.14878
11
1.39524
21
1.14907
0
LINE
8
BLACK
6
CONTINUOUS
10
1.39524
20
1.14907
11
1.39541
21
1.14903
0
LINE
8
BLACK
6
CONTINUOUS
10
1.39541
20
1.14903
11
1.39558
21
1.14909
0
LINE
8
BLACK
6
CONTINUOUS
10
1.39558
20
1.14909
11
1.4012
21
1.14909
0
LINE
8
BLACK
6
CONTINUOUS
10
1.4012
20
1.14909
11
1.40221
21
1.14891
0
LINE
8
BLACK
6
CONTINUOUS
10
1.43596
20
1.14891
11
1.43609
21
1.1488
0
LINE
8
BLACK
6
CONTINUOUS
10
1.43609
20
1.1488
11
1.43627
21
1.14878
0
LINE
8
BLACK
6
CONTINUOUS
10
1.43627
20
1.14878
11
1.44002
21
1.1469
0
LINE
8
BLACK
6
CONTINUOUS
10
1.44002
20
1.1469
11
1.44072
21
1.14638
0
LINE
8
BLACK
6
CONTINUOUS
10
1.44072
20
1.14638
11
1.44078
21
1.14635
0
LINE
8
BLACK
6
CONTINUOUS
10
1.44078
20
1.14635
11
1.44266
21
1.14447
0
LINE
8
BLACK
6
CONTINUOUS
10
1.44266
20
1.14447
11
1.44316
21
1.14375
0
LINE
8
BLACK
6
CONTINUOUS
10
1.44316
20
1.14375
11
1.44321
21
1.14371
0
LINE
8
BLACK
6
CONTINUOUS
10
1.44321
20
1.14371
11
1.44509
21
1.13996
0
LINE
8
BLACK
6
CONTINUOUS
10
1.44509
20
1.13996
11
1.44538
21
1.13897
0
LINE
8
BLACK
6
CONTINUOUS
10
1.44538
20
1.13897
11
1.44534
21
1.1388
0
LINE
8
BLACK
6
CONTINUOUS
10
1.44534
20
1.1388
11
1.4454
21
1.13864
0
LINE
8
BLACK
6
CONTINUOUS
10
1.4454
20
1.13864
11
1.4454
21
1.12739
0
LINE
8
BLACK
6
CONTINUOUS
10
1.4454
20
1.12739
11
1.44522
21
1.12638
0
LINE
8
BLACK
6
CONTINUOUS
10
1.44522
20
1.12638
11
1.44511
21
1.12624
0
LINE
8
BLACK
6
CONTINUOUS
10
1.44511
20
1.12624
11
1.44509
21
1.12607
0
LINE
8
BLACK
6
CONTINUOUS
10
1.44509
20
1.12607
11
1.44321
21
1.12232
0
LINE
8
BLACK
6
CONTINUOUS
10
1.44321
20
1.12232
11
1.44268
21
1.12161
0
LINE
8
BLACK
6
CONTINUOUS
10
1.44268
20
1.12161
11
1.44266
21
1.12155
0
LINE
8
BLACK
6
CONTINUOUS
10
1.44266
20
1.12155
11
1.44078
21
1.11968
0
LINE
8
BLACK
6
CONTINUOUS
10
1.44078
20
1.11968
11
1.44006
21
1.11917
0
LINE
8
BLACK
6
CONTINUOUS
10
1.44006
20
1.11917
11
1.44002
21
1.11912
0
LINE
8
BLACK
6
CONTINUOUS
10
1.44002
20
1.11912
11
1.43627
21
1.11725
0
LINE
8
BLACK
6
CONTINUOUS
10
1.43627
20
1.11725
11
1.43528
21
1.11696
0
LINE
8
BLACK
6
CONTINUOUS
10
1.43528
20
1.11696
11
1.43511
21
1.117
0
LINE
8
BLACK
6
CONTINUOUS
10
1.43511
20
1.117
11
1.43495
21
1.11694
0
LINE
8
BLACK
6
CONTINUOUS
10
1.43495
20
1.11694
11
1.42932
21
1.11694
0
LINE
8
BLACK
6
CONTINUOUS
10
1.42932
20
1.11694
11
1.42831
21
1.11711
0
LINE
8
BLACK
6
CONTINUOUS
10
1.42831
20
1.11711
11
1.42818
21
1.11723
0
LINE
8
BLACK
6
CONTINUOUS
10
1.42818
20
1.11723
11
1.428
21
1.11725
0
LINE
8
BLACK
6
CONTINUOUS
10
1.428
20
1.11725
11
1.42425
21
1.11912
0
LINE
8
BLACK
6
CONTINUOUS
10
1.42425
20
1.11912
11
1.42354
21
1.11965
0
LINE
8
BLACK
6
CONTINUOUS
10
1.42354
20
1.11965
11
1.42348
21
1.11968
0
LINE
8
BLACK
6
CONTINUOUS
10
1.42348
20
1.11968
11
1.42161
21
1.12155
0
LINE
8
BLACK
6
CONTINUOUS
10
1.42161
20
1.12155
11
1.4211
21
1.12227
0
LINE
8
BLACK
6
CONTINUOUS
10
1.4211
20
1.12227
11
1.42106
21
1.12232
0
LINE
8
BLACK
6
CONTINUOUS
10
1.42106
20
1.12232
11
1.41918
21
1.12607
0
LINE
8
BLACK
6
CONTINUOUS
10
1.41918
20
1.12607
11
1.41889
21
1.12705
0
LINE
8
BLACK
6
CONTINUOUS
10
1.41889
20
1.12705
11
1.41893
21
1.12722
0
LINE
8
BLACK
6
CONTINUOUS
10
1.41893
20
1.12722
11
1.41887
21
1.12739
0
LINE
8
BLACK
6
CONTINUOUS
10
1.41887
20
1.12739
11
1.41887
21
1.13864
0
LINE
8
BLACK
6
CONTINUOUS
10
1.41887
20
1.13864
11
1.41905
21
1.13965
0
LINE
8
BLACK
6
CONTINUOUS
10
1.41905
20
1.13965
11
1.41916
21
1.13978
0
LINE
8
BLACK
6
CONTINUOUS
10
1.41916
20
1.13978
11
1.41918
21
1.13996
0
LINE
8
BLACK
6
CONTINUOUS
10
1.41918
20
1.13996
11
1.42106
21
1.14371
0
LINE
8
BLACK
6
CONTINUOUS
10
1.42106
20
1.14371
11
1.42158
21
1.14442
0
LINE
8
BLACK
6
CONTINUOUS
10
1.42158
20
1.14442
11
1.42161
21
1.14447
0
LINE
8
BLACK
6
CONTINUOUS
10
1.42161
20
1.14447
11
1.42348
21
1.14635
0
LINE
8
BLACK
6
CONTINUOUS
10
1.42348
20
1.14635
11
1.42421
21
1.14686
0
LINE
8
BLACK
6
CONTINUOUS
10
1.42421
20
1.14686
11
1.42425
21
1.1469
0
LINE
8
BLACK
6
CONTINUOUS
10
1.42425
20
1.1469
11
1.428
21
1.14878
0
LINE
8
BLACK
6
CONTINUOUS
10
1.428
20
1.14878
11
1.42898
21
1.14907
0
LINE
8
BLACK
6
CONTINUOUS
10
1.42898
20
1.14907
11
1.42916
21
1.14903
0
LINE
8
BLACK
6
CONTINUOUS
10
1.42916
20
1.14903
11
1.42932
21
1.14909
0
LINE
8
BLACK
6
CONTINUOUS
10
1.42932
20
1.14909
11
1.43495
21
1.14909
0
LINE
8
BLACK
6
CONTINUOUS
10
1.43495
20
1.14909
11
1.43596
21
1.14891
0
LINE
8
BLACK
6
CONTINUOUS
10
1.42732
20
1.14183
11
1.42612
21
1.14064
0
LINE
8
BLACK
6
CONTINUOUS
10
1.42612
20
1.14064
11
1.42478
21
1.13794
0
LINE
8
BLACK
6
CONTINUOUS
10
1.42478
20
1.13794
11
1.42478
21
1.12809
0
LINE
8
BLACK
6
CONTINUOUS
10
1.42478
20
1.12809
11
1.42612
21
1.12539
0
LINE
8
BLACK
6
CONTINUOUS
10
1.42612
20
1.12539
11
1.42732
21
1.12419
0
LINE
8
BLACK
6
CONTINUOUS
10
1.42732
20
1.12419
11
1.43002
21
1.12284
0
LINE
8
BLACK
6
CONTINUOUS
10
1.43002
20
1.12284
11
1.43425
21
1.12284
0
LINE
8
BLACK
6
CONTINUOUS
10
1.43425
20
1.12284
11
1.43695
21
1.12419
0
LINE
8
BLACK
6
CONTINUOUS
10
1.43695
20
1.12419
11
1.43814
21
1.12539
0
LINE
8
BLACK
6
CONTINUOUS
10
1.43814
20
1.12539
11
1.43949
21
1.12809
0
LINE
8
BLACK
6
CONTINUOUS
10
1.43949
20
1.12809
11
1.43949
21
1.13794
0
LINE
8
BLACK
6
CONTINUOUS
10
1.43949
20
1.13794
11
1.43814
21
1.14064
0
LINE
8
BLACK
6
CONTINUOUS
10
1.43814
20
1.14064
11
1.43695
21
1.14183
0
LINE
8
BLACK
6
CONTINUOUS
10
1.43695
20
1.14183
11
1.43425
21
1.14318
0
LINE
8
BLACK
6
CONTINUOUS
10
1.43425
20
1.14318
11
1.43002
21
1.14318
0
LINE
8
BLACK
6
CONTINUOUS
10
1.43002
20
1.14318
11
1.42732
21
1.14183
0
LINE
8
BLACK
6
CONTINUOUS
10
1.47345
20
1.14891
11
1.47359
21
1.1488
0
LINE
8
BLACK
6
CONTINUOUS
10
1.47359
20
1.1488
11
1.47376
21
1.14878
0
LINE
8
BLACK
6
CONTINUOUS
10
1.47376
20
1.14878
11
1.47751
21
1.1469
0
LINE
8
BLACK
6
CONTINUOUS
10
1.47751
20
1.1469
11
1.47833
21
1.14629
0
LINE
8
BLACK
6
CONTINUOUS
10
1.47833
20
1.14629
11
1.47914
21
1.14444
0
LINE
8
BLACK
6
CONTINUOUS
10
1.47914
20
1.14444
11
1.47856
21
1.1425
0
LINE
8
BLACK
6
CONTINUOUS
10
1.47856
20
1.1425
11
1.47688
21
1.14139
0
LINE
8
BLACK
6
CONTINUOUS
10
1.47688
20
1.14139
11
1.47487
21
1.14162
0
LINE
8
BLACK
6
CONTINUOUS
10
1.47487
20
1.14162
11
1.47174
21
1.14318
0
LINE
8
BLACK
6
CONTINUOUS
10
1.47174
20
1.14318
11
1.46564
21
1.14318
0
LINE
8
BLACK
6
CONTINUOUS
10
1.46564
20
1.14318
11
1.46294
21
1.14183
0
LINE
8
BLACK
6
CONTINUOUS
10
1.46294
20
1.14183
11
1.46174
21
1.14064
0
LINE
8
BLACK
6
CONTINUOUS
10
1.46174
20
1.14064
11
1.4604
21
1.13794
0
LINE
8
BLACK
6
CONTINUOUS
10
1.4604
20
1.13794
11
1.4604
21
1.12809
0
LINE
8
BLACK
6
CONTINUOUS
10
1.4604
20
1.12809
11
1.46174
21
1.12539
0
LINE
8
BLACK
6
CONTINUOUS
10
1.46174
20
1.12539
11
1.46294
21
1.12419
0
LINE
8
BLACK
6
CONTINUOUS
10
1.46294
20
1.12419
11
1.46564
21
1.12284
0
LINE
8
BLACK
6
CONTINUOUS
10
1.46564
20
1.12284
11
1.47174
21
1.12284
0
LINE
8
BLACK
6
CONTINUOUS
10
1.47174
20
1.12284
11
1.47487
21
1.1244
0
LINE
8
BLACK
6
CONTINUOUS
10
1.47487
20
1.1244
11
1.47585
21
1.1247
0
LINE
8
BLACK
6
CONTINUOUS
10
1.47585
20
1.1247
11
1.47782
21
1.12423
0
LINE
8
BLACK
6
CONTINUOUS
10
1.47782
20
1.12423
11
1.47902
21
1.12261
0
LINE
8
BLACK
6
CONTINUOUS
10
1.47902
20
1.12261
11
1.4789
21
1.12059
0
LINE
8
BLACK
6
CONTINUOUS
10
1.4789
20
1.12059
11
1.47751
21
1.11912
0
LINE
8
BLACK
6
CONTINUOUS
10
1.47751
20
1.11912
11
1.47376
21
1.11725
0
LINE
8
BLACK
6
CONTINUOUS
10
1.47376
20
1.11725
11
1.47278
21
1.11696
0
LINE
8
BLACK
6
CONTINUOUS
10
1.47278
20
1.11696
11
1.47261
21
1.117
0
LINE
8
BLACK
6
CONTINUOUS
10
1.47261
20
1.117
11
1.47244
21
1.11694
0
LINE
8
BLACK
6
CONTINUOUS
10
1.47244
20
1.11694
11
1.46494
21
1.11694
0
LINE
8
BLACK
6
CONTINUOUS
10
1.46494
20
1.11694
11
1.46393
21
1.11711
0
LINE
8
BLACK
6
CONTINUOUS
10
1.46393
20
1.11711
11
1.4638
21
1.11723
0
LINE
8
BLACK
6
CONTINUOUS
10
1.4638
20
1.11723
11
1.46362
21
1.11725
0
LINE
8
BLACK
6
CONTINUOUS
10
1.46362
20
1.11725
11
1.45987
21
1.11912
0
LINE
8
BLACK
6
CONTINUOUS
10
1.45987
20
1.11912
11
1.45916
21
1.11965
0
LINE
8
BLACK
6
CONTINUOUS
10
1.45916
20
1.11965
11
1.4591
21
1.11968
0
LINE
8
BLACK
6
CONTINUOUS
10
1.4591
20
1.11968
11
1.45723
21
1.12155
0
LINE
8
BLACK
6
CONTINUOUS
10
1.45723
20
1.12155
11
1.45672
21
1.12227
0
LINE
8
BLACK
6
CONTINUOUS
10
1.45672
20
1.12227
11
1.45668
21
1.12232
0
LINE
8
BLACK
6
CONTINUOUS
10
1.45668
20
1.12232
11
1.4548
21
1.12607
0
LINE
8
BLACK
6
CONTINUOUS
10
1.4548
20
1.12607
11
1.45451
21
1.12705
0
LINE
8
BLACK
6
CONTINUOUS
10
1.45451
20
1.12705
11
1.45455
21
1.12722
0
LINE
8
BLACK
6
CONTINUOUS
10
1.45455
20
1.12722
11
1.45449
21
1.12739
0
LINE
8
BLACK
6
CONTINUOUS
10
1.45449
20
1.12739
11
1.45449
21
1.13864
0
LINE
8
BLACK
6
CONTINUOUS
10
1.45449
20
1.13864
11
1.45467
21
1.13965
0
LINE
8
BLACK
6
CONTINUOUS
10
1.45467
20
1.13965
11
1.45478
21
1.13978
0
LINE
8
BLACK
6
CONTINUOUS
10
1.45478
20
1.13978
11
1.4548
21
1.13996
0
LINE
8
BLACK
6
CONTINUOUS
10
1.4548
20
1.13996
11
1.45668
21
1.14371
0
LINE
8
BLACK
6
CONTINUOUS
10
1.45668
20
1.14371
11
1.4572
21
1.14442
0
LINE
8
BLACK
6
CONTINUOUS
10
1.4572
20
1.14442
11
1.45723
21
1.14447
0
LINE
8
BLACK
6
CONTINUOUS
10
1.45723
20
1.14447
11
1.4591
21
1.14635
0
LINE
8
BLACK
6
CONTINUOUS
10
1.4591
20
1.14635
11
1.45983
21
1.14686
0
LINE
8
BLACK
6
CONTINUOUS
10
1.45983
20
1.14686
11
1.45987
21
1.1469
0
LINE
8
BLACK
6
CONTINUOUS
10
1.45987
20
1.1469
11
1.46362
21
1.14878
0
LINE
8
BLACK
6
CONTINUOUS
10
1.46362
20
1.14878
11
1.4646
21
1.14907
0
LINE
8
BLACK
6
CONTINUOUS
10
1.4646
20
1.14907
11
1.46478
21
1.14903
0
LINE
8
BLACK
6
CONTINUOUS
10
1.46478
20
1.14903
11
1.46494
21
1.14909
0
LINE
8
BLACK
6
CONTINUOUS
10
1.46494
20
1.14909
11
1.47244
21
1.14909
0
LINE
8
BLACK
6
CONTINUOUS
10
1.47244
20
1.14909
11
1.47345
21
1.14891
0
LINE
8
BLACK
6
CONTINUOUS
10
1.53719
20
1.14891
11
1.53733
21
1.1488
0
LINE
8
BLACK
6
CONTINUOUS
10
1.53733
20
1.1488
11
1.5375
21
1.14878
0
LINE
8
BLACK
6
CONTINUOUS
10
1.5375
20
1.14878
11
1.54125
21
1.1469
0
LINE
8
BLACK
6
CONTINUOUS
10
1.54125
20
1.1469
11
1.54208
21
1.14629
0
LINE
8
BLACK
6
CONTINUOUS
10
1.54208
20
1.14629
11
1.54225
21
1.14589
0
LINE
8
BLACK
6
CONTINUOUS
10
1.54225
20
1.14589
11
1.54257
21
1.14558
0
LINE
8
BLACK
6
CONTINUOUS
10
1.54257
20
1.14558
11
1.54445
21
1.14183
0
LINE
8
BLACK
6
CONTINUOUS
10
1.54445
20
1.14183
11
1.54474
21
1.14085
0
LINE
8
BLACK
6
CONTINUOUS
10
1.54474
20
1.14085
11
1.5447
21
1.14068
0
LINE
8
BLACK
6
CONTINUOUS
10
1.5447
20
1.14068
11
1.54476
21
1.14051
0
LINE
8
BLACK
6
CONTINUOUS
10
1.54476
20
1.14051
11
1.54476
21
1.13676
0
LINE
8
BLACK
6
CONTINUOUS
10
1.54476
20
1.13676
11
1.54458
21
1.13575
0
LINE
8
BLACK
6
CONTINUOUS
10
1.54458
20
1.13575
11
1.54427
21
1.13538
0
LINE
8
BLACK
6
CONTINUOUS
10
1.54427
20
1.13538
11
1.54411
21
1.13492
0
LINE
8
BLACK
6
CONTINUOUS
10
1.54411
20
1.13492
11
1.54364
21
1.13463
0
LINE
8
BLACK
6
CONTINUOUS
10
1.54364
20
1.13463
11
1.54328
21
1.1342
0
LINE
8
BLACK
6
CONTINUOUS
10
1.54328
20
1.1342
11
1.5428
21
1.13412
0
LINE
8
BLACK
6
CONTINUOUS
10
1.5428
20
1.13412
11
1.54239
21
1.13387
0
LINE
8
BLACK
6
CONTINUOUS
10
1.54239
20
1.13387
11
1.52601
21
1.13059
0
LINE
8
BLACK
6
CONTINUOUS
10
1.52601
20
1.13059
11
1.52601
21
1.12621
0
LINE
8
BLACK
6
CONTINUOUS
10
1.52601
20
1.12621
11
1.52714
21
1.12396
0
LINE
8
BLACK
6
CONTINUOUS
10
1.52714
20
1.12396
11
1.52938
21
1.12284
0
LINE
8
BLACK
6
CONTINUOUS
10
1.52938
20
1.12284
11
1.53549
21
1.12284
0
LINE
8
BLACK
6
CONTINUOUS
10
1.53549
20
1.12284
11
1.53861
21
1.1244
0
LINE
8
BLACK
6
CONTINUOUS
10
1.53861
20
1.1244
11
1.53959
21
1.1247
0
LINE
8
BLACK
6
CONTINUOUS
10
1.53959
20
1.1247
11
1.54156
21
1.12423
0
LINE
8
BLACK
6
CONTINUOUS
10
1.54156
20
1.12423
11
1.54276
21
1.12261
0
LINE
8
BLACK
6
CONTINUOUS
10
1.54276
20
1.12261
11
1.54264
21
1.12059
0
LINE
8
BLACK
6
CONTINUOUS
10
1.54264
20
1.12059
11
1.54125
21
1.11912
0
LINE
8
BLACK
6
CONTINUOUS
10
1.54125
20
1.11912
11
1.5375
21
1.11725
0
LINE
8
BLACK
6
CONTINUOUS
10
1.5375
20
1.11725
11
1.53652
21
1.11696
0
LINE
8
BLACK
6
CONTINUOUS
10
1.53652
20
1.11696
11
1.53635
21
1.117
0
LINE
8
BLACK
6
CONTINUOUS
10
1.53635
20
1.117
11
1.53618
21
1.11694
0
LINE
8
BLACK
6
CONTINUOUS
10
1.53618
20
1.11694
11
1.52868
21
1.11694
0
LINE
8
BLACK
6
CONTINUOUS
10
1.52868
20
1.11694
11
1.52767
21
1.11711
0
LINE
8
BLACK
6
CONTINUOUS
10
1.52767
20
1.11711
11
1.52754
21
1.11723
0
LINE
8
BLACK
6
CONTINUOUS
10
1.52754
20
1.11723
11
1.52736
21
1.11725
0
LINE
8
BLACK
6
CONTINUOUS
10
1.52736
20
1.11725
11
1.52361
21
1.11912
0
LINE
8
BLACK
6
CONTINUOUS
10
1.52361
20
1.11912
11
1.52279
21
1.11973
0
LINE
8
BLACK
6
CONTINUOUS
10
1.52279
20
1.11973
11
1.52261
21
1.12014
0
LINE
8
BLACK
6
CONTINUOUS
10
1.52261
20
1.12014
11
1.52229
21
1.12044
0
LINE
8
BLACK
6
CONTINUOUS
10
1.52229
20
1.12044
11
1.52042
21
1.12419
0
LINE
8
BLACK
6
CONTINUOUS
10
1.52042
20
1.12419
11
1.52013
21
1.12518
0
LINE
8
BLACK
6
CONTINUOUS
10
1.52013
20
1.12518
11
1.52017
21
1.12535
0
LINE
8
BLACK
6
CONTINUOUS
10
1.52017
20
1.12535
11
1.52011
21
1.12551
0
LINE
8
BLACK
6
CONTINUOUS
10
1.52011
20
1.12551
11
1.52011
21
1.14051
0
LINE
8
BLACK
6
CONTINUOUS
10
1.52011
20
1.14051
11
1.52028
21
1.14152
0
LINE
8
BLACK
6
CONTINUOUS
10
1.52028
20
1.14152
11
1.5204
21
1.14166
0
LINE
8
BLACK
6
CONTINUOUS
10
1.5204
20
1.14166
11
1.52042
21
1.14183
0
LINE
8
BLACK
6
CONTINUOUS
10
1.52042
20
1.14183
11
1.52229
21
1.14558
0
LINE
8
BLACK
6
CONTINUOUS
10
1.52229
20
1.14558
11
1.5229
21
1.14641
0
LINE
8
BLACK
6
CONTINUOUS
10
1.5229
20
1.14641
11
1.52331
21
1.14658
0
LINE
8
BLACK
6
CONTINUOUS
10
1.52331
20
1.14658
11
1.52361
21
1.1469
0
LINE
8
BLACK
6
CONTINUOUS
10
1.52361
20
1.1469
11
1.52736
21
1.14878
0
LINE
8
BLACK
6
CONTINUOUS
10
1.52736
20
1.14878
11
1.52835
21
1.14907
0
LINE
8
BLACK
6
CONTINUOUS
10
1.52835
20
1.14907
11
1.52852
21
1.14903
0
LINE
8
BLACK
6
CONTINUOUS
10
1.52852
20
1.14903
11
1.52868
21
1.14909
0
LINE
8
BLACK
6
CONTINUOUS
10
1.52868
20
1.14909
11
1.53618
21
1.14909
0
LINE
8
BLACK
6
CONTINUOUS
10
1.53618
20
1.14909
11
1.53719
21
1.14891
0
LINE
8
BLACK
6
CONTINUOUS
10
1.52714
20
1.14206
11
1.52601
21
1.13981
0
LINE
8
BLACK
6
CONTINUOUS
10
1.52601
20
1.13981
11
1.52601
21
1.13661
0
LINE
8
BLACK
6
CONTINUOUS
10
1.52601
20
1.13661
11
1.53885
21
1.13918
0
LINE
8
BLACK
6
CONTINUOUS
10
1.53885
20
1.13918
11
1.53885
21
1.13981
0
LINE
8
BLACK
6
CONTINUOUS
10
1.53885
20
1.13981
11
1.53773
21
1.14206
0
LINE
8
BLACK
6
CONTINUOUS
10
1.53773
20
1.14206
11
1.53549
21
1.14318
0
LINE
8
BLACK
6
CONTINUOUS
10
1.53549
20
1.14318
11
1.52938
21
1.14318
0
LINE
8
BLACK
6
CONTINUOUS
10
1.52938
20
1.14318
11
1.52714
21
1.14206
0
LINE
8
BLACK
6
CONTINUOUS
10
1.56094
20
1.16116
11
1.56163
21
1.15926
0
LINE
8
BLACK
6
CONTINUOUS
10
1.56163
20
1.15926
11
1.56163
21
1.14909
0
LINE
8
BLACK
6
CONTINUOUS
10
1.56163
20
1.14909
11
1.56805
21
1.14909
0
LINE
8
BLACK
6
CONTINUOUS
10
1.56805
20
1.14909
11
1.56906
21
1.14891
0
LINE
8
BLACK
6
CONTINUOUS
10
1.56906
20
1.14891
11
1.57061
21
1.14761
0
LINE
8
BLACK
6
CONTINUOUS
10
1.57061
20
1.14761
11
1.57096
21
1.14562
0
LINE
8
BLACK
6
CONTINUOUS
10
1.57096
20
1.14562
11
1.56995
21
1.14387
0
LINE
8
BLACK
6
CONTINUOUS
10
1.56995
20
1.14387
11
1.56805
21
1.14318
0
LINE
8
BLACK
6
CONTINUOUS
10
1.56805
20
1.14318
11
1.56163
21
1.14318
0
LINE
8
BLACK
6
CONTINUOUS
10
1.56163
20
1.14318
11
1.56163
21
1.12621
0
LINE
8
BLACK
6
CONTINUOUS
10
1.56163
20
1.12621
11
1.56276
21
1.12396
0
LINE
8
BLACK
6
CONTINUOUS
10
1.56276
20
1.12396
11
1.565
21
1.12284
0
LINE
8
BLACK
6
CONTINUOUS
10
1.565
20
1.12284
11
1.56805
21
1.12284
0
LINE
8
BLACK
6
CONTINUOUS
10
1.56805
20
1.12284
11
1.56906
21
1.12266
0
LINE
8
BLACK
6
CONTINUOUS
10
1.56906
20
1.12266
11
1.57061
21
1.12137
0
LINE
8
BLACK
6
CONTINUOUS
10
1.57061
20
1.12137
11
1.57096
21
1.11938
0
LINE
8
BLACK
6
CONTINUOUS
10
1.57096
20
1.11938
11
1.56995
21
1.11763
0
LINE
8
BLACK
6
CONTINUOUS
10
1.56995
20
1.11763
11
1.56805
21
1.11694
0
LINE
8
BLACK
6
CONTINUOUS
10
1.56805
20
1.11694
11
1.5643
21
1.11694
0
LINE
8
BLACK
6
CONTINUOUS
10
1.5643
20
1.11694
11
1.56329
21
1.11711
0
LINE
8
BLACK
6
CONTINUOUS
10
1.56329
20
1.11711
11
1.56316
21
1.11723
0
LINE
8
BLACK
6
CONTINUOUS
10
1.56316
20
1.11723
11
1.56298
21
1.11725
0
LINE
8
BLACK
6
CONTINUOUS
10
1.56298
20
1.11725
11
1.55923
21
1.11912
0
LINE
8
BLACK
6
CONTINUOUS
10
1.55923
20
1.11912
11
1.55841
21
1.11973
0
LINE
8
BLACK
6
CONTINUOUS
10
1.55841
20
1.11973
11
1.55823
21
1.12014
0
LINE
8
BLACK
6
CONTINUOUS
10
1.55823
20
1.12014
11
1.55791
21
1.12044
0
LINE
8
BLACK
6
CONTINUOUS
10
1.55791
20
1.12044
11
1.55604
21
1.12419
0
LINE
8
BLACK
6
CONTINUOUS
10
1.55604
20
1.12419
11
1.55575
21
1.12518
0
LINE
8
BLACK
6
CONTINUOUS
10
1.55575
20
1.12518
11
1.55579
21
1.12535
0
LINE
8
BLACK
6
CONTINUOUS
10
1.55579
20
1.12535
11
1.55573
21
1.12551
0
LINE
8
BLACK
6
CONTINUOUS
10
1.55573
20
1.12551
11
1.55573
21
1.14318
0
LINE
8
BLACK
6
CONTINUOUS
10
1.55573
20
1.14318
11
1.55306
21
1.14318
0
LINE
8
BLACK
6
CONTINUOUS
10
1.55306
20
1.14318
11
1.55205
21
1.14336
0
LINE
8
BLACK
6
CONTINUOUS
10
1.55205
20
1.14336
11
1.5505
21
1.14466
0
LINE
8
BLACK
6
CONTINUOUS
10
1.5505
20
1.14466
11
1.55015
21
1.14665
0
LINE
8
BLACK
6
CONTINUOUS
10
1.55015
20
1.14665
11
1.55116
21
1.1484
0
LINE
8
BLACK
6
CONTINUOUS
10
1.55116
20
1.1484
11
1.55306
21
1.14909
0
LINE
8
BLACK
6
CONTINUOUS
10
1.55306
20
1.14909
11
1.55573
21
1.14909
0
LINE
8
BLACK
6
CONTINUOUS
10
1.55573
20
1.14909
11
1.55573
21
1.15926
0
LINE
8
BLACK
6
CONTINUOUS
10
1.55573
20
1.15926
11
1.55591
21
1.16027
0
LINE
8
BLACK
6
CONTINUOUS
10
1.55591
20
1.16027
11
1.5572
21
1.16182
0
LINE
8
BLACK
6
CONTINUOUS
10
1.5572
20
1.16182
11
1.55919
21
1.16217
0
LINE
8
BLACK
6
CONTINUOUS
10
1.55919
20
1.16217
11
1.56094
21
1.16116
0
LINE
8
BLACK
6
CONTINUOUS
10
0.481172
20
1.16199
11
0.482096
21
1.16186
0
LINE
8
BLACK
6
CONTINUOUS
10
0.482096
20
1.16186
11
0.482152
21
1.16179
0
LINE
8
BLACK
6
CONTINUOUS
10
0.482152
20
1.16179
11
0.482236
21
1.16177
0
LINE
8
BLACK
6
CONTINUOUS
10
0.482236
20
1.16177
11
0.482816
21
1.16104
0
LINE
8
BLACK
6
CONTINUOUS
10
0.482816
20
1.16104
11
0.483436
21
1.16034
0
LINE
8
BLACK
6
CONTINUOUS
10
0.483436
20
1.16034
11
0.483438
21
1.16026
0
LINE
8
BLACK
6
CONTINUOUS
10
0.483438
20
1.16026
11
0.483491
21
1.16019
0
LINE
8
BLACK
6
CONTINUOUS
10
0.483491
20
1.16019
11
0.496614
21
1.12082
0
LINE
8
BLACK
6
CONTINUOUS
10
0.496614
20
1.12082
11
0.496765
21
1.11981
0
LINE
8
BLACK
6
CONTINUOUS
10
0.496765
20
1.11981
11
0.496022
21
1.11793
0
LINE
8
BLACK
6
CONTINUOUS
10
0.496022
20
1.11793
11
0.494246
21
1.11697
0
LINE
8
BLACK
6
CONTINUOUS
10
0.494246
20
1.11697
11
0.492268
21
1.11737
0
LINE
8
BLACK
6
CONTINUOUS
10
0.492268
20
1.11737
11
0.491012
21
1.11896
0
LINE
8
BLACK
6
CONTINUOUS
10
0.491012
20
1.11896
11
0.487935
21
1.12818
0
LINE
8
BLACK
6
CONTINUOUS
10
0.487935
20
1.12818
11
0.473444
21
1.12818
0
LINE
8
BLACK
6
CONTINUOUS
10
0.473444
20
1.12818
11
0.470368
21
1.11896
0
LINE
8
BLACK
6
CONTINUOUS
10
0.470368
20
1.11896
11
0.469879
21
1.11805
0
LINE
8
BLACK
6
CONTINUOUS
10
0.469879
20
1.11805
11
0.468159
21
1.117
0
LINE
8
BLACK
6
CONTINUOUS
10
0.468159
20
1.117
11
0.466161
21
1.11729
0
LINE
8
BLACK
6
CONTINUOUS
10
0.466161
20
1.11729
11
0.46482
21
1.1188
0
LINE
8
BLACK
6
CONTINUOUS
10
0.46482
20
1.1188
11
0.464765
21
1.12082
0
LINE
8
BLACK
6
CONTINUOUS
10
0.464765
20
1.12082
11
0.477889
21
1.16019
0
LINE
8
BLACK
6
CONTINUOUS
10
0.477889
20
1.16019
11
0.478377
21
1.16109
0
LINE
8
BLACK
6
CONTINUOUS
10
0.478377
20
1.16109
11
0.478449
21
1.16114
0
LINE
8
BLACK
6
CONTINUOUS
10
0.478449
20
1.16114
11
0.478481
21
1.16122
0
LINE
8
BLACK
6
CONTINUOUS
10
0.478481
20
1.16122
11
0.479302
21
1.16166
0
LINE
8
BLACK
6
CONTINUOUS
10
0.479302
20
1.16166
11
0.480098
21
1.16215
0
LINE
8
BLACK
6
CONTINUOUS
10
0.480098
20
1.16215
11
0.480182
21
1.16214
0
LINE
8
BLACK
6
CONTINUOUS
10
0.480182
20
1.16214
11
0.480257
21
1.16218
0
LINE
8
BLACK
6
CONTINUOUS
10
0.480257
20
1.16218
11
0.481172
21
1.16199
0
LINE
8
BLACK
6
CONTINUOUS
10
0.475413
20
1.13409
11
0.485967
21
1.13409
0
LINE
8
BLACK
6
CONTINUOUS
10
0.485967
20
1.13409
11
0.48069
21
1.14992
0
LINE
8
BLACK
6
CONTINUOUS
10
0.48069
20
1.14992
11
0.475413
21
1.13409
0
LINE
8
BLACK
6
CONTINUOUS
10
1.01548
20
1.16199
11
1.0164
21
1.16186
0
LINE
8
BLACK
6
CONTINUOUS
10
1.0164
20
1.16186
11
1.01646
21
1.16179
0
LINE
8
BLACK
6
CONTINUOUS
10
1.01646
20
1.16179
11
1.01654
21
1.16177
0
LINE
8
BLACK
6
CONTINUOUS
10
1.01654
20
1.16177
11
1.01712
21
1.16104
0
LINE
8
BLACK
6
CONTINUOUS
10
1.01712
20
1.16104
11
1.01774
21
1.16034
0
LINE
8
BLACK
6
CONTINUOUS
10
1.01774
20
1.16034
11
1.01775
21
1.16026
0
LINE
8
BLACK
6
CONTINUOUS
10
1.01775
20
1.16026
11
1.0178
21
1.16019
0
LINE
8
BLACK
6
CONTINUOUS
10
1.0178
20
1.16019
11
1.03092
21
1.12082
0
LINE
8
BLACK
6
CONTINUOUS
10
1.03092
20
1.12082
11
1.03107
21
1.11981
0
LINE
8
BLACK
6
CONTINUOUS
10
1.03107
20
1.11981
11
1.03033
21
1.11793
0
LINE
8
BLACK
6
CONTINUOUS
10
1.03033
20
1.11793
11
1.02855
21
1.11697
0
LINE
8
BLACK
6
CONTINUOUS
10
1.02855
20
1.11697
11
1.02658
21
1.11737
0
LINE
8
BLACK
6
CONTINUOUS
10
1.02658
20
1.11737
11
1.02532
21
1.11896
0
LINE
8
BLACK
6
CONTINUOUS
10
1.02532
20
1.11896
11
1.02224
21
1.12818
0
LINE
8
BLACK
6
CONTINUOUS
10
1.02224
20
1.12818
11
1.00775
21
1.12818
0
LINE
8
BLACK
6
CONTINUOUS
10
1.00775
20
1.12818
11
1.00468
21
1.11896
0
LINE
8
BLACK
6
CONTINUOUS
10
1.00468
20
1.11896
11
1.00419
21
1.11805
0
LINE
8
BLACK
6
CONTINUOUS
10
1.00419
20
1.11805
11
1.00247
21
1.117
0
LINE
8
BLACK
6
CONTINUOUS
10
1.00247
20
1.117
11
1.00047
21
1.11729
0
LINE
8
BLACK
6
CONTINUOUS
10
1.00047
20
1.11729
11
0.999129
21
1.1188
0
LINE
8
BLACK
6
CONTINUOUS
10
0.999129
20
1.1188
11
0.999074
21
1.12082
0
LINE
8
BLACK
6
CONTINUOUS
10
0.999074
20
1.12082
11
1.0122
21
1.16019
0
LINE
8
BLACK
6
CONTINUOUS
10
1.0122
20
1.16019
11
1.01269
21
1.16109
0
LINE
8
BLACK
6
CONTINUOUS
10
1.01269
20
1.16109
11
1.01276
21
1.16114
0
LINE
8
BLACK
6
CONTINUOUS
10
1.01276
20
1.16114
11
1.01279
21
1.16122
0
LINE
8
BLACK
6
CONTINUOUS
10
1.01279
20
1.16122
11
1.01361
21
1.16166
0
LINE
8
BLACK
6
CONTINUOUS
10
1.01361
20
1.16166
11
1.01441
21
1.16215
0
LINE
8
BLACK
6
CONTINUOUS
10
1.01441
20
1.16215
11
1.01449
21
1.16214
0
LINE
8
BLACK
6
CONTINUOUS
10
1.01449
20
1.16214
11
1.01456
21
1.16218
0
LINE
8
BLACK
6
CONTINUOUS
10
1.01456
20
1.16218
11
1.01548
21
1.16199
0
LINE
8
BLACK
6
CONTINUOUS
10
1.00972
20
1.13409
11
1.02028
21
1.13409
0
LINE
8
BLACK
6
CONTINUOUS
10
1.02028
20
1.13409
11
1.015
21
1.14992
0
LINE
8
BLACK
6
CONTINUOUS
10
1.015
20
1.14992
11
1.00972
21
1.13409
0
LINE
8
BLACK
6
CONTINUOUS
10
0.71141
20
1.1621
11
0.711799
21
1.16217
0
LINE
8
BLACK
6
CONTINUOUS
10
0.711799
20
1.16217
11
0.712357
21
1.16184
0
LINE
8
BLACK
6
CONTINUOUS
10
0.712357
20
1.16184
11
0.71298
21
1.16168
0
LINE
8
BLACK
6
CONTINUOUS
10
0.71298
20
1.16168
11
0.713207
21
1.16135
0
LINE
8
BLACK
6
CONTINUOUS
10
0.713207
20
1.16135
11
0.713548
21
1.16116
0
LINE
8
BLACK
6
CONTINUOUS
10
0.713548
20
1.16116
11
0.713769
21
1.16055
0
LINE
8
BLACK
6
CONTINUOUS
10
0.713769
20
1.16055
11
0.714138
21
1.16002
0
LINE
8
BLACK
6
CONTINUOUS
10
0.714138
20
1.16002
11
0.714104
21
1.15963
0
LINE
8
BLACK
6
CONTINUOUS
10
0.714104
20
1.15963
11
0.714239
21
1.15926
0
LINE
8
BLACK
6
CONTINUOUS
10
0.714239
20
1.15926
11
0.714239
21
1.11989
0
LINE
8
BLACK
6
CONTINUOUS
10
0.714239
20
1.11989
11
0.714061
21
1.11888
0
LINE
8
BLACK
6
CONTINUOUS
10
0.714061
20
1.11888
11
0.712762
21
1.11733
0
LINE
8
BLACK
6
CONTINUOUS
10
0.712762
20
1.11733
11
0.710773
21
1.11698
0
LINE
8
BLACK
6
CONTINUOUS
10
0.710773
20
1.11698
11
0.709024
21
1.11799
0
LINE
8
BLACK
6
CONTINUOUS
10
0.709024
20
1.11799
11
0.708333
21
1.11989
0
LINE
8
BLACK
6
CONTINUOUS
10
0.708333
20
1.11989
11
0.708333
21
1.14595
0
LINE
8
BLACK
6
CONTINUOUS
10
0.708333
20
1.14595
11
0.700838
21
1.12989
0
LINE
8
BLACK
6
CONTINUOUS
10
0.700838
20
1.12989
11
0.700616
21
1.12957
0
LINE
8
BLACK
6
CONTINUOUS
10
0.700616
20
1.12957
11
0.700582
21
1.12944
0
LINE
8
BLACK
6
CONTINUOUS
10
0.700582
20
1.12944
11
0.700474
21
1.12937
0
LINE
8
BLACK
6
CONTINUOUS
10
0.700474
20
1.12937
11
0.70025
21
1.12905
0
LINE
8
BLACK
6
CONTINUOUS
10
0.70025
20
1.12905
11
0.699555
21
1.12873
0
LINE
8
BLACK
6
CONTINUOUS
10
0.699555
20
1.12873
11
0.698928
21
1.12829
0
LINE
8
BLACK
6
CONTINUOUS
10
0.698928
20
1.12829
11
0.698661
21
1.12831
0
LINE
8
BLACK
6
CONTINUOUS
10
0.698661
20
1.12831
11
0.698419
21
1.1282
0
LINE
8
BLACK
6
CONTINUOUS
10
0.698419
20
1.1282
11
0.697679
21
1.12839
0
LINE
8
BLACK
6
CONTINUOUS
10
0.697679
20
1.12839
11
0.696916
21
1.12846
0
LINE
8
BLACK
6
CONTINUOUS
10
0.696916
20
1.12846
11
0.696727
21
1.12865
0
LINE
8
BLACK
6
CONTINUOUS
10
0.696727
20
1.12865
11
0.696468
21
1.12872
0
LINE
8
BLACK
6
CONTINUOUS
10
0.696468
20
1.12872
11
0.696029
21
1.12935
0
LINE
8
BLACK
6
CONTINUOUS
10
0.696029
20
1.12935
11
0.695487
21
1.12989
0
LINE
8
BLACK
6
CONTINUOUS
10
0.695487
20
1.12989
11
0.687992
21
1.14595
0
LINE
8
BLACK
6
CONTINUOUS
10
0.687992
20
1.14595
11
0.687992
21
1.11989
0
LINE
8
BLACK
6
CONTINUOUS
10
0.687992
20
1.11989
11
0.687814
21
1.11888
0
LINE
8
BLACK
6
CONTINUOUS
10
0.687814
20
1.11888
11
0.686516
21
1.11733
0
LINE
8
BLACK
6
CONTINUOUS
10
0.686516
20
1.11733
11
0.684527
21
1.11698
0
LINE
8
BLACK
6
CONTINUOUS
10
0.684527
20
1.11698
11
0.682777
21
1.11799
0
LINE
8
BLACK
6
CONTINUOUS
10
0.682777
20
1.11799
11
0.682087
21
1.11989
0
LINE
8
BLACK
6
CONTINUOUS
10
0.682087
20
1.11989
11
0.682087
21
1.15926
0
LINE
8
BLACK
6
CONTINUOUS
10
0.682087
20
1.15926
11
0.682265
21
1.16027
0
LINE
8
BLACK
6
CONTINUOUS
10
0.682265
20
1.16027
11
0.682518
21
1.16057
0
LINE
8
BLACK
6
CONTINUOUS
10
0.682518
20
1.16057
11
0.68262
21
1.16095
0
LINE
8
BLACK
6
CONTINUOUS
10
0.68262
20
1.16095
11
0.683148
21
1.16132
0
LINE
8
BLACK
6
CONTINUOUS
10
0.683148
20
1.16132
11
0.683563
21
1.16182
0
LINE
8
BLACK
6
CONTINUOUS
10
0.683563
20
1.16182
11
0.683951
21
1.16188
0
LINE
8
BLACK
6
CONTINUOUS
10
0.683951
20
1.16188
11
0.684274
21
1.16211
0
LINE
8
BLACK
6
CONTINUOUS
10
0.684274
20
1.16211
11
0.684917
21
1.16206
0
LINE
8
BLACK
6
CONTINUOUS
10
0.684917
20
1.16206
11
0.685552
21
1.16217
0
LINE
8
BLACK
6
CONTINUOUS
10
0.685552
20
1.16217
11
0.685894
21
1.16197
0
LINE
8
BLACK
6
CONTINUOUS
10
0.685894
20
1.16197
11
0.686286
21
1.16194
0
LINE
8
BLACK
6
CONTINUOUS
10
0.686286
20
1.16194
11
0.686743
21
1.16148
0
LINE
8
BLACK
6
CONTINUOUS
10
0.686743
20
1.16148
11
0.687301
21
1.16116
0
LINE
8
BLACK
6
CONTINUOUS
10
0.687301
20
1.16116
11
0.687436
21
1.16079
0
LINE
8
BLACK
6
CONTINUOUS
10
0.687436
20
1.16079
11
0.687715
21
1.16051
0
LINE
8
BLACK
6
CONTINUOUS
10
0.687715
20
1.16051
11
0.698163
21
1.13812
0
LINE
8
BLACK
6
CONTINUOUS
10
0.698163
20
1.13812
11
0.70861
21
1.16051
0
LINE
8
BLACK
6
CONTINUOUS
10
0.70861
20
1.16051
11
0.709199
21
1.16135
0
LINE
8
BLACK
6
CONTINUOUS
10
0.709199
20
1.16135
11
0.709556
21
1.16151
0
LINE
8
BLACK
6
CONTINUOUS
10
0.709556
20
1.16151
11
0.70981
21
1.16182
0
LINE
8
BLACK
6
CONTINUOUS
10
0.70981
20
1.16182
11
0.710445
21
1.16193
0
LINE
8
BLACK
6
CONTINUOUS
10
0.710445
20
1.16193
11
0.71103
21
1.1622
0
LINE
8
BLACK
6
CONTINUOUS
10
0.71103
20
1.1622
11
0.71141
21
1.1621
0
LINE
8
BLACK
6
CONTINUOUS
10
1.106
20
1.16203
11
1.10613
21
1.16192
0
LINE
8
BLACK
6
CONTINUOUS
10
1.10613
20
1.16192
11
1.10631
21
1.1619
0
LINE
8
BLACK
6
CONTINUOUS
10
1.10631
20
1.1619
11
1.11006
21
1.16003
0
LINE
8
BLACK
6
CONTINUOUS
10
1.11006
20
1.16003
11
1.11077
21
1.1595
0
LINE
8
BLACK
6
CONTINUOUS
10
1.11077
20
1.1595
11
1.11082
21
1.15947
0
LINE
8
BLACK
6
CONTINUOUS
10
1.11082
20
1.15947
11
1.1127
21
1.1576
0
LINE
8
BLACK
6
CONTINUOUS
10
1.1127
20
1.1576
11
1.11321
21
1.15687
0
LINE
8
BLACK
6
CONTINUOUS
10
1.11321
20
1.15687
11
1.11325
21
1.15683
0
LINE
8
BLACK
6
CONTINUOUS
10
1.11325
20
1.15683
11
1.11513
21
1.15308
0
LINE
8
BLACK
6
CONTINUOUS
10
1.11513
20
1.15308
11
1.11542
21
1.1521
0
LINE
8
BLACK
6
CONTINUOUS
10
1.11542
20
1.1521
11
1.11538
21
1.15193
0
LINE
8
BLACK
6
CONTINUOUS
10
1.11538
20
1.15193
11
1.11544
21
1.15176
0
LINE
8
BLACK
6
CONTINUOUS
10
1.11544
20
1.15176
11
1.11544
21
1.14614
0
LINE
8
BLACK
6
CONTINUOUS
10
1.11544
20
1.14614
11
1.11526
21
1.14513
0
LINE
8
BLACK
6
CONTINUOUS
10
1.11526
20
1.14513
11
1.11515
21
1.14499
0
LINE
8
BLACK
6
CONTINUOUS
10
1.11515
20
1.14499
11
1.11513
21
1.14482
0
LINE
8
BLACK
6
CONTINUOUS
10
1.11513
20
1.14482
11
1.11325
21
1.14107
0
LINE
8
BLACK
6
CONTINUOUS
10
1.11325
20
1.14107
11
1.11273
21
1.14036
0
LINE
8
BLACK
6
CONTINUOUS
10
1.11273
20
1.14036
11
1.1127
21
1.1403
0
LINE
8
BLACK
6
CONTINUOUS
10
1.1127
20
1.1403
11
1.11082
21
1.13842
0
LINE
8
BLACK
6
CONTINUOUS
10
1.11082
20
1.13842
11
1.1101
21
1.13792
0
LINE
8
BLACK
6
CONTINUOUS
10
1.1101
20
1.13792
11
1.11006
21
1.13787
0
LINE
8
BLACK
6
CONTINUOUS
10
1.11006
20
1.13787
11
1.10631
21
1.136
0
LINE
8
BLACK
6
CONTINUOUS
10
1.10631
20
1.136
11
1.10532
21
1.1357
0
LINE
8
BLACK
6
CONTINUOUS
10
1.10532
20
1.1357
11
1.10515
21
1.13574
0
LINE
8
BLACK
6
CONTINUOUS
10
1.10515
20
1.13574
11
1.10499
21
1.13568
0
LINE
8
BLACK
6
CONTINUOUS
10
1.10499
20
1.13568
11
1.09294
21
1.13568
0
LINE
8
BLACK
6
CONTINUOUS
10
1.09294
20
1.13568
11
1.09294
21
1.11989
0
LINE
8
BLACK
6
CONTINUOUS
10
1.09294
20
1.11989
11
1.09276
21
1.11888
0
LINE
8
BLACK
6
CONTINUOUS
10
1.09276
20
1.11888
11
1.09147
21
1.11733
0
LINE
8
BLACK
6
CONTINUOUS
10
1.09147
20
1.11733
11
1.08948
21
1.11698
0
LINE
8
BLACK
6
CONTINUOUS
10
1.08948
20
1.11698
11
1.08773
21
1.11799
0
LINE
8
BLACK
6
CONTINUOUS
10
1.08773
20
1.11799
11
1.08704
21
1.11989
0
LINE
8
BLACK
6
CONTINUOUS
10
1.08704
20
1.11989
11
1.08704
21
1.15926
0
LINE
8
BLACK
6
CONTINUOUS
10
1.08704
20
1.15926
11
1.0871
21
1.15964
0
LINE
8
BLACK
6
CONTINUOUS
10
1.0871
20
1.15964
11
1.08708
21
1.15977
0
LINE
8
BLACK
6
CONTINUOUS
10
1.08708
20
1.15977
11
1.08715
21
1.15989
0
LINE
8
BLACK
6
CONTINUOUS
10
1.08715
20
1.15989
11
1.08721
21
1.16027
0
LINE
8
BLACK
6
CONTINUOUS
10
1.08721
20
1.16027
11
1.08771
21
1.16086
0
LINE
8
BLACK
6
CONTINUOUS
10
1.08771
20
1.16086
11
1.08809
21
1.16152
0
LINE
8
BLACK
6
CONTINUOUS
10
1.08809
20
1.16152
11
1.08834
21
1.16161
0
LINE
8
BLACK
6
CONTINUOUS
10
1.08834
20
1.16161
11
1.08851
21
1.16182
0
LINE
8
BLACK
6
CONTINUOUS
10
1.08851
20
1.16182
11
1.08927
21
1.16195
0
LINE
8
BLACK
6
CONTINUOUS
10
1.08927
20
1.16195
11
1.08999
21
1.16221
0
LINE
8
BLACK
6
CONTINUOUS
10
1.08999
20
1.16221
11
1.10499
21
1.16221
0
LINE
8
BLACK
6
CONTINUOUS
10
1.10499
20
1.16221
11
1.106
21
1.16203
0
LINE
8
BLACK
6
CONTINUOUS
10
1.09294
20
1.14159
11
1.10429
21
1.14159
0
LINE
8
BLACK
6
CONTINUOUS
10
1.10429
20
1.14159
11
1.10699
21
1.14294
0
LINE
8
BLACK
6
CONTINUOUS
10
1.10699
20
1.14294
11
1.10818
21
1.14414
0
LINE
8
BLACK
6
CONTINUOUS
10
1.10818
20
1.14414
11
1.10953
21
1.14683
0
LINE
8
BLACK
6
CONTINUOUS
10
1.10953
20
1.14683
11
1.10953
21
1.15106
0
LINE
8
BLACK
6
CONTINUOUS
10
1.10953
20
1.15106
11
1.10818
21
1.15376
0
LINE
8
BLACK
6
CONTINUOUS
10
1.10818
20
1.15376
11
1.10699
21
1.15496
0
LINE
8
BLACK
6
CONTINUOUS
10
1.10699
20
1.15496
11
1.10429
21
1.15631
0
LINE
8
BLACK
6
CONTINUOUS
10
1.10429
20
1.15631
11
1.09294
21
1.15631
0
LINE
8
BLACK
6
CONTINUOUS
10
1.09294
20
1.15631
11
1.09294
21
1.14159
0
LINE
8
BLACK
6
CONTINUOUS
10
1.14162
20
1.14891
11
1.14316
21
1.14761
0
LINE
8
BLACK
6
CONTINUOUS
10
1.14316
20
1.14761
11
1.14352
21
1.14562
0
LINE
8
BLACK
6
CONTINUOUS
10
1.14352
20
1.14562
11
1.14251
21
1.14387
0
LINE
8
BLACK
6
CONTINUOUS
10
1.14251
20
1.14387
11
1.14061
21
1.14318
0
LINE
8
BLACK
6
CONTINUOUS
10
1.14061
20
1.14318
11
1.13755
21
1.14318
0
LINE
8
BLACK
6
CONTINUOUS
10
1.13755
20
1.14318
11
1.13486
21
1.14183
0
LINE
8
BLACK
6
CONTINUOUS
10
1.13486
20
1.14183
11
1.13366
21
1.14064
0
LINE
8
BLACK
6
CONTINUOUS
10
1.13366
20
1.14064
11
1.13231
21
1.13794
0
LINE
8
BLACK
6
CONTINUOUS
10
1.13231
20
1.13794
11
1.13231
21
1.11989
0
LINE
8
BLACK
6
CONTINUOUS
10
1.13231
20
1.11989
11
1.13213
21
1.11888
0
LINE
8
BLACK
6
CONTINUOUS
10
1.13213
20
1.11888
11
1.13084
21
1.11733
0
LINE
8
BLACK
6
CONTINUOUS
10
1.13084
20
1.11733
11
1.12885
21
1.11698
0
LINE
8
BLACK
6
CONTINUOUS
10
1.12885
20
1.11698
11
1.1271
21
1.11799
0
LINE
8
BLACK
6
CONTINUOUS
10
1.1271
20
1.11799
11
1.12641
21
1.11989
0
LINE
8
BLACK
6
CONTINUOUS
10
1.12641
20
1.11989
11
1.12641
21
1.14614
0
LINE
8
BLACK
6
CONTINUOUS
10
1.12641
20
1.14614
11
1.12658
21
1.14715
0
LINE
8
BLACK
6
CONTINUOUS
10
1.12658
20
1.14715
11
1.12788
21
1.14869
0
LINE
8
BLACK
6
CONTINUOUS
10
1.12788
20
1.14869
11
1.12987
21
1.14904
0
LINE
8
BLACK
6
CONTINUOUS
10
1.12987
20
1.14904
11
1.13162
21
1.14803
0
LINE
8
BLACK
6
CONTINUOUS
10
1.13162
20
1.14803
11
1.13199
21
1.14701
0
LINE
8
BLACK
6
CONTINUOUS
10
1.13199
20
1.14701
11
1.13554
21
1.14878
0
LINE
8
BLACK
6
CONTINUOUS
10
1.13554
20
1.14878
11
1.13652
21
1.14907
0
LINE
8
BLACK
6
CONTINUOUS
10
1.13652
20
1.14907
11
1.13669
21
1.14903
0
LINE
8
BLACK
6
CONTINUOUS
10
1.13669
20
1.14903
11
1.13686
21
1.14909
0
LINE
8
BLACK
6
CONTINUOUS
10
1.13686
20
1.14909
11
1.14061
21
1.14909
0
LINE
8
BLACK
6
CONTINUOUS
10
1.14061
20
1.14909
11
1.14162
21
1.14891
0
LINE
8
BLACK
6
CONTINUOUS
10
1.22348
20
1.14803
11
1.22418
21
1.14614
0
LINE
8
BLACK
6
CONTINUOUS
10
1.22418
20
1.14614
11
1.22418
21
1.11989
0
LINE
8
BLACK
6
CONTINUOUS
10
1.22418
20
1.11989
11
1.224
21
1.11888
0
LINE
8
BLACK
6
CONTINUOUS
10
1.224
20
1.11888
11
1.2227
21
1.11733
0
LINE
8
BLACK
6
CONTINUOUS
10
1.2227
20
1.11733
11
1.22071
21
1.11698
0
LINE
8
BLACK
6
CONTINUOUS
10
1.22071
20
1.11698
11
1.21896
21
1.11799
0
LINE
8
BLACK
6
CONTINUOUS
10
1.21896
20
1.11799
11
1.21827
21
1.11989
0
LINE
8
BLACK
6
CONTINUOUS
10
1.21827
20
1.11989
11
1.21827
21
1.14614
0
LINE
8
BLACK
6
CONTINUOUS
10
1.21827
20
1.14614
11
1.21845
21
1.14715
0
LINE
8
BLACK
6
CONTINUOUS
10
1.21845
20
1.14715
11
1.21975
21
1.14869
0
LINE
8
BLACK
6
CONTINUOUS
10
1.21975
20
1.14869
11
1.22174
21
1.14904
0
LINE
8
BLACK
6
CONTINUOUS
10
1.22174
20
1.14904
11
1.22348
21
1.14803
0
LINE
8
BLACK
6
CONTINUOUS
10
1.2741
20
1.14803
11
1.27479
21
1.14614
0
LINE
8
BLACK
6
CONTINUOUS
10
1.27479
20
1.14614
11
1.27479
21
1.11989
0
LINE
8
BLACK
6
CONTINUOUS
10
1.27479
20
1.11989
11
1.27462
21
1.11888
0
LINE
8
BLACK
6
CONTINUOUS
10
1.27462
20
1.11888
11
1.27332
21
1.11733
0
LINE
8
BLACK
6
CONTINUOUS
10
1.27332
20
1.11733
11
1.27133
21
1.11698
0
LINE
8
BLACK
6
CONTINUOUS
10
1.27133
20
1.11698
11
1.26958
21
1.11799
0
LINE
8
BLACK
6
CONTINUOUS
10
1.26958
20
1.11799
11
1.26889
21
1.11989
0
LINE
8
BLACK
6
CONTINUOUS
10
1.26889
20
1.11989
11
1.26889
21
1.14614
0
LINE
8
BLACK
6
CONTINUOUS
10
1.26889
20
1.14614
11
1.26907
21
1.14715
0
LINE
8
BLACK
6
CONTINUOUS
10
1.26907
20
1.14715
11
1.27036
21
1.14869
0
LINE
8
BLACK
6
CONTINUOUS
10
1.27036
20
1.14869
11
1.27235
21
1.14904
0
LINE
8
BLACK
6
CONTINUOUS
10
1.27235
20
1.14904
11
1.2741
21
1.14803
0
LINE
8
BLACK
6
CONTINUOUS
10
1.33847
20
1.14891
11
1.3386
21
1.1488
0
LINE
8
BLACK
6
CONTINUOUS
10
1.3386
20
1.1488
11
1.33878
21
1.14878
0
LINE
8
BLACK
6
CONTINUOUS
10
1.33878
20
1.14878
11
1.34253
21
1.1469
0
LINE
8
BLACK
6
CONTINUOUS
10
1.34253
20
1.1469
11
1.34335
21
1.14629
0
LINE
8
BLACK
6
CONTINUOUS
10
1.34335
20
1.14629
11
1.34353
21
1.14589
0
LINE
8
BLACK
6
CONTINUOUS
10
1.34353
20
1.14589
11
1.34385
21
1.14558
0
LINE
8
BLACK
6
CONTINUOUS
10
1.34385
20
1.14558
11
1.34572
21
1.14183
0
LINE
8
BLACK
6
CONTINUOUS
10
1.34572
20
1.14183
11
1.34602
21
1.14085
0
LINE
8
BLACK
6
CONTINUOUS
10
1.34602
20
1.14085
11
1.34597
21
1.14068
0
LINE
8
BLACK
6
CONTINUOUS
10
1.34597
20
1.14068
11
1.34603
21
1.14051
0
LINE
8
BLACK
6
CONTINUOUS
10
1.34603
20
1.14051
11
1.34603
21
1.11989
0
LINE
8
BLACK
6
CONTINUOUS
10
1.34603
20
1.11989
11
1.34586
21
1.11888
0
LINE
8
BLACK
6
CONTINUOUS
10
1.34586
20
1.11888
11
1.34456
21
1.11733
0
LINE
8
BLACK
6
CONTINUOUS
10
1.34456
20
1.11733
11
1.34257
21
1.11698
0
LINE
8
BLACK
6
CONTINUOUS
10
1.34257
20
1.11698
11
1.34082
21
1.11799
0
LINE
8
BLACK
6
CONTINUOUS
10
1.34082
20
1.11799
11
1.34013
21
1.11989
0
LINE
8
BLACK
6
CONTINUOUS
10
1.34013
20
1.11989
11
1.34013
21
1.13981
0
LINE
8
BLACK
6
CONTINUOUS
10
1.34013
20
1.13981
11
1.33901
21
1.14206
0
LINE
8
BLACK
6
CONTINUOUS
10
1.33901
20
1.14206
11
1.33676
21
1.14318
0
LINE
8
BLACK
6
CONTINUOUS
10
1.33676
20
1.14318
11
1.33253
21
1.14318
0
LINE
8
BLACK
6
CONTINUOUS
10
1.33253
20
1.14318
11
1.32983
21
1.14183
0
LINE
8
BLACK
6
CONTINUOUS
10
1.32983
20
1.14183
11
1.32916
21
1.14116
0
LINE
8
BLACK
6
CONTINUOUS
10
1.32916
20
1.14116
11
1.32916
21
1.11989
0
LINE
8
BLACK
6
CONTINUOUS
10
1.32916
20
1.11989
11
1.32898
21
1.11888
0
LINE
8
BLACK
6
CONTINUOUS
10
1.32898
20
1.11888
11
1.32769
21
1.11733
0
LINE
8
BLACK
6
CONTINUOUS
10
1.32769
20
1.11733
11
1.3257
21
1.11698
0
LINE
8
BLACK
6
CONTINUOUS
10
1.3257
20
1.11698
11
1.32395
21
1.11799
0
LINE
8
BLACK
6
CONTINUOUS
10
1.32395
20
1.11799
11
1.32326
21
1.11989
0
LINE
8
BLACK
6
CONTINUOUS
10
1.32326
20
1.11989
11
1.32326
21
1.14614
0
LINE
8
BLACK
6
CONTINUOUS
10
1.32326
20
1.14614
11
1.32343
21
1.14715
0
LINE
8
BLACK
6
CONTINUOUS
10
1.32343
20
1.14715
11
1.32473
21
1.14869
0
LINE
8
BLACK
6
CONTINUOUS
10
1.32473
20
1.14869
11
1.32672
21
1.14904
0
LINE
8
BLACK
6
CONTINUOUS
10
1.32672
20
1.14904
11
1.32847
21
1.14803
0
LINE
8
BLACK
6
CONTINUOUS
10
1.32847
20
1.14803
11
1.32856
21
1.1478
0
LINE
8
BLACK
6
CONTINUOUS
10
1.32856
20
1.1478
11
1.33051
21
1.14878
0
LINE
8
BLACK
6
CONTINUOUS
10
1.33051
20
1.14878
11
1.3315
21
1.14907
0
LINE
8
BLACK
6
CONTINUOUS
10
1.3315
20
1.14907
11
1.33167
21
1.14903
0
LINE
8
BLACK
6
CONTINUOUS
10
1.33167
20
1.14903
11
1.33183
21
1.14909
0
LINE
8
BLACK
6
CONTINUOUS
10
1.33183
20
1.14909
11
1.33746
21
1.14909
0
LINE
8
BLACK
6
CONTINUOUS
10
1.33746
20
1.14909
11
1.33847
21
1.14891
0
LINE
8
BLACK
6
CONTINUOUS
10
1.49533
20
1.16116
11
1.49602
21
1.15926
0
LINE
8
BLACK
6
CONTINUOUS
10
1.49602
20
1.15926
11
1.49602
21
1.13827
0
LINE
8
BLACK
6
CONTINUOUS
10
1.49602
20
1.13827
11
1.50597
21
1.14822
0
LINE
8
BLACK
6
CONTINUOUS
10
1.50597
20
1.14822
11
1.50681
21
1.14881
0
LINE
8
BLACK
6
CONTINUOUS
10
1.50681
20
1.14881
11
1.50883
21
1.14899
0
LINE
8
BLACK
6
CONTINUOUS
10
1.50883
20
1.14899
11
1.51048
21
1.14783
0
LINE
8
BLACK
6
CONTINUOUS
10
1.51048
20
1.14783
11
1.511
21
1.14588
0
LINE
8
BLACK
6
CONTINUOUS
10
1.511
20
1.14588
11
1.51015
21
1.14405
0
LINE
8
BLACK
6
CONTINUOUS
10
1.51015
20
1.14405
11
1.50071
21
1.13461
0
LINE
8
BLACK
6
CONTINUOUS
10
1.50071
20
1.13461
11
1.51042
21
1.12166
0
LINE
8
BLACK
6
CONTINUOUS
10
1.51042
20
1.12166
11
1.51089
21
1.12075
0
LINE
8
BLACK
6
CONTINUOUS
10
1.51089
20
1.12075
11
1.51078
21
1.11873
0
LINE
8
BLACK
6
CONTINUOUS
10
1.51078
20
1.11873
11
1.5094
21
1.11726
0
LINE
8
BLACK
6
CONTINUOUS
10
1.5094
20
1.11726
11
1.50739
21
1.11701
0
LINE
8
BLACK
6
CONTINUOUS
10
1.50739
20
1.11701
11
1.5057
21
1.11812
0
LINE
8
BLACK
6
CONTINUOUS
10
1.5057
20
1.11812
11
1.49649
21
1.13039
0
LINE
8
BLACK
6
CONTINUOUS
10
1.49649
20
1.13039
11
1.49602
21
1.12991
0
LINE
8
BLACK
6
CONTINUOUS
10
1.49602
20
1.12991
11
1.49602
21
1.11989
0
LINE
8
BLACK
6
CONTINUOUS
10
1.49602
20
1.11989
11
1.49584
21
1.11888
0
LINE
8
BLACK
6
CONTINUOUS
10
1.49584
20
1.11888
11
1.49454
21
1.11733
0
LINE
8
BLACK
6
CONTINUOUS
10
1.49454
20
1.11733
11
1.49255
21
1.11698
0
LINE
8
BLACK
6
CONTINUOUS
10
1.49255
20
1.11698
11
1.4908
21
1.11799
0
LINE
8
BLACK
6
CONTINUOUS
10
1.4908
20
1.11799
11
1.49011
21
1.11989
0
LINE
8
BLACK
6
CONTINUOUS
10
1.49011
20
1.11989
11
1.49011
21
1.15926
0
LINE
8
BLACK
6
CONTINUOUS
10
1.49011
20
1.15926
11
1.49029
21
1.16027
0
LINE
8
BLACK
6
CONTINUOUS
10
1.49029
20
1.16027
11
1.49159
21
1.16182
0
LINE
8
BLACK
6
CONTINUOUS
10
1.49159
20
1.16182
11
1.49358
21
1.16217
0
LINE
8
BLACK
6
CONTINUOUS
10
1.49358
20
1.16217
11
1.49533
21
1.16116
0
LINE
8
BLACK
6
CONTINUOUS
10
0.873526
20
1.13766
11
0.875073
21
1.13636
0
LINE
8
BLACK
6
CONTINUOUS
10
0.875073
20
1.13636
11
0.875424
21
1.13437
0
LINE
8
BLACK
6
CONTINUOUS
10
0.875424
20
1.13437
11
0.874414
21
1.13263
0
LINE
8
BLACK
6
CONTINUOUS
10
0.874414
20
1.13263
11
0.872516
21
1.13193
0
LINE
8
BLACK
6
CONTINUOUS
10
0.872516
20
1.13193
11
0.84252
21
1.13193
0
LINE
8
BLACK
6
CONTINUOUS
10
0.84252
20
1.13193
11
0.84151
21
1.13211
0
LINE
8
BLACK
6
CONTINUOUS
10
0.84151
20
1.13211
11
0.839963
21
1.13341
0
LINE
8
BLACK
6
CONTINUOUS
10
0.839963
20
1.13341
11
0.839612
21
1.1354
0
LINE
8
BLACK
6
CONTINUOUS
10
0.839612
20
1.1354
11
0.840622
21
1.13715
0
LINE
8
BLACK
6
CONTINUOUS
10
0.840622
20
1.13715
11
0.84252
21
1.13784
0
LINE
8
BLACK
6
CONTINUOUS
10
0.84252
20
1.13784
11
0.872516
21
1.13784
0
LINE
8
BLACK
6
CONTINUOUS
10
0.872516
20
1.13784
11
0.873526
21
1.13766
0
LINE
8
BLACK
6
CONTINUOUS
10
1.2216
20
1.16214
11
1.22174
21
1.16217
0
LINE
8
BLACK
6
CONTINUOUS
10
1.22174
20
1.16217
11
1.22185
21
1.1621
0
LINE
8
BLACK
6
CONTINUOUS
10
1.22185
20
1.1621
11
1.22199
21
1.16211
0
LINE
8
BLACK
6
CONTINUOUS
10
1.22199
20
1.16211
11
1.22261
21
1.16167
0
LINE
8
BLACK
6
CONTINUOUS
10
1.22261
20
1.16167
11
1.22331
21
1.16135
0
LINE
8
BLACK
6
CONTINUOUS
10
1.22331
20
1.16135
11
1.22519
21
1.15947
0
LINE
8
BLACK
6
CONTINUOUS
10
1.22519
20
1.15947
11
1.22541
21
1.15915
0
LINE
8
BLACK
6
CONTINUOUS
10
1.22541
20
1.15915
11
1.22552
21
1.15908
0
LINE
8
BLACK
6
CONTINUOUS
10
1.22552
20
1.15908
11
1.22555
21
1.15895
0
LINE
8
BLACK
6
CONTINUOUS
10
1.22555
20
1.15895
11
1.22577
21
1.15863
0
LINE
8
BLACK
6
CONTINUOUS
10
1.22577
20
1.15863
11
1.22584
21
1.15787
0
LINE
8
BLACK
6
CONTINUOUS
10
1.22584
20
1.15787
11
1.22604
21
1.15713
0
LINE
8
BLACK
6
CONTINUOUS
10
1.22604
20
1.15713
11
1.22593
21
1.15689
0
LINE
8
BLACK
6
CONTINUOUS
10
1.22593
20
1.15689
11
1.22595
21
1.15662
0
LINE
8
BLACK
6
CONTINUOUS
10
1.22595
20
1.15662
11
1.22551
21
1.15599
0
LINE
8
BLACK
6
CONTINUOUS
10
1.22551
20
1.15599
11
1.22519
21
1.1553
0
LINE
8
BLACK
6
CONTINUOUS
10
1.22519
20
1.1553
11
1.22331
21
1.15342
0
LINE
8
BLACK
6
CONTINUOUS
10
1.22331
20
1.15342
11
1.22299
21
1.1532
0
LINE
8
BLACK
6
CONTINUOUS
10
1.22299
20
1.1532
11
1.22292
21
1.15309
0
LINE
8
BLACK
6
CONTINUOUS
10
1.22292
20
1.15309
11
1.22279
21
1.15306
0
LINE
8
BLACK
6
CONTINUOUS
10
1.22279
20
1.15306
11
1.22278
21
1.15305
0
LINE
8
BLACK
6
CONTINUOUS
10
1.22278
20
1.15305
11
1.2227
21
1.15295
0
LINE
8
BLACK
6
CONTINUOUS
10
1.2227
20
1.15295
11
1.22262
21
1.15294
0
LINE
8
BLACK
6
CONTINUOUS
10
1.22262
20
1.15294
11
1.22247
21
1.15283
0
LINE
8
BLACK
6
CONTINUOUS
10
1.22247
20
1.15283
11
1.22171
21
1.15277
0
LINE
8
BLACK
6
CONTINUOUS
10
1.22171
20
1.15277
11
1.22097
21
1.15257
0
LINE
8
BLACK
6
CONTINUOUS
10
1.22097
20
1.15257
11
1.22084
21
1.15263
0
LINE
8
BLACK
6
CONTINUOUS
10
1.22084
20
1.15263
11
1.22071
21
1.1526
0
LINE
8
BLACK
6
CONTINUOUS
10
1.22071
20
1.1526
11
1.22059
21
1.15267
0
LINE
8
BLACK
6
CONTINUOUS
10
1.22059
20
1.15267
11
1.22046
21
1.15266
0
LINE
8
BLACK
6
CONTINUOUS
10
1.22046
20
1.15266
11
1.21983
21
1.1531
0
LINE
8
BLACK
6
CONTINUOUS
10
1.21983
20
1.1531
11
1.21913
21
1.15342
0
LINE
8
BLACK
6
CONTINUOUS
10
1.21913
20
1.15342
11
1.21726
21
1.1553
0
LINE
8
BLACK
6
CONTINUOUS
10
1.21726
20
1.1553
11
1.21704
21
1.15562
0
LINE
8
BLACK
6
CONTINUOUS
10
1.21704
20
1.15562
11
1.21693
21
1.15569
0
LINE
8
BLACK
6
CONTINUOUS
10
1.21693
20
1.15569
11
1.21689
21
1.15582
0
LINE
8
BLACK
6
CONTINUOUS
10
1.21689
20
1.15582
11
1.21667
21
1.15614
0
LINE
8
BLACK
6
CONTINUOUS
10
1.21667
20
1.15614
11
1.2166
21
1.1569
0
LINE
8
BLACK
6
CONTINUOUS
10
1.2166
20
1.1569
11
1.21641
21
1.15764
0
LINE
8
BLACK
6
CONTINUOUS
10
1.21641
20
1.15764
11
1.21652
21
1.15788
0
LINE
8
BLACK
6
CONTINUOUS
10
1.21652
20
1.15788
11
1.2165
21
1.15815
0
LINE
8
BLACK
6
CONTINUOUS
10
1.2165
20
1.15815
11
1.21694
21
1.15878
0
LINE
8
BLACK
6
CONTINUOUS
10
1.21694
20
1.15878
11
1.21726
21
1.15947
0
LINE
8
BLACK
6
CONTINUOUS
10
1.21726
20
1.15947
11
1.21913
21
1.16135
0
LINE
8
BLACK
6
CONTINUOUS
10
1.21913
20
1.16135
11
1.21945
21
1.16157
0
LINE
8
BLACK
6
CONTINUOUS
10
1.21945
20
1.16157
11
1.21953
21
1.16168
0
LINE
8
BLACK
6
CONTINUOUS
10
1.21953
20
1.16168
11
1.21966
21
1.16171
0
LINE
8
BLACK
6
CONTINUOUS
10
1.21966
20
1.16171
11
1.21966
21
1.16172
0
LINE
8
BLACK
6
CONTINUOUS
10
1.21966
20
1.16172
11
1.21975
21
1.16182
0
LINE
8
BLACK
6
CONTINUOUS
10
1.21975
20
1.16182
11
1.21982
21
1.16183
0
LINE
8
BLACK
6
CONTINUOUS
10
1.21982
20
1.16183
11
1.21997
21
1.16194
0
LINE
8
BLACK
6
CONTINUOUS
10
1.21997
20
1.16194
11
1.22074
21
1.162
0
LINE
8
BLACK
6
CONTINUOUS
10
1.22074
20
1.162
11
1.22148
21
1.1622
0
LINE
8
BLACK
6
CONTINUOUS
10
1.22148
20
1.1622
11
1.2216
21
1.16214
0
LINE
8
BLACK
6
CONTINUOUS
10
1.27222
20
1.16214
11
1.27235
21
1.16217
0
LINE
8
BLACK
6
CONTINUOUS
10
1.27235
20
1.16217
11
1.27247
21
1.1621
0
LINE
8
BLACK
6
CONTINUOUS
10
1.27247
20
1.1621
11
1.27261
21
1.16211
0
LINE
8
BLACK
6
CONTINUOUS
10
1.27261
20
1.16211
11
1.27323
21
1.16167
0
LINE
8
BLACK
6
CONTINUOUS
10
1.27323
20
1.16167
11
1.27393
21
1.16135
0
LINE
8
BLACK
6
CONTINUOUS
10
1.27393
20
1.16135
11
1.2758
21
1.15947
0
LINE
8
BLACK
6
CONTINUOUS
10
1.2758
20
1.15947
11
1.27603
21
1.15915
0
LINE
8
BLACK
6
CONTINUOUS
10
1.27603
20
1.15915
11
1.27613
21
1.15908
0
LINE
8
BLACK
6
CONTINUOUS
10
1.27613
20
1.15908
11
1.27617
21
1.15895
0
LINE
8
BLACK
6
CONTINUOUS
10
1.27617
20
1.15895
11
1.27639
21
1.15863
0
LINE
8
BLACK
6
CONTINUOUS
10
1.27639
20
1.15863
11
1.27646
21
1.15787
0
LINE
8
BLACK
6
CONTINUOUS
10
1.27646
20
1.15787
11
1.27666
21
1.15713
0
LINE
8
BLACK
6
CONTINUOUS
10
1.27666
20
1.15713
11
1.27654
21
1.15689
0
LINE
8
BLACK
6
CONTINUOUS
10
1.27654
20
1.15689
11
1.27657
21
1.15662
0
LINE
8
BLACK
6
CONTINUOUS
10
1.27657
20
1.15662
11
1.27613
21
1.15599
0
LINE
8
BLACK
6
CONTINUOUS
10
1.27613
20
1.15599
11
1.2758
21
1.1553
0
LINE
8
BLACK
6
CONTINUOUS
10
1.2758
20
1.1553
11
1.27393
21
1.15342
0
LINE
8
BLACK
6
CONTINUOUS
10
1.27393
20
1.15342
11
1.27361
21
1.1532
0
LINE
8
BLACK
6
CONTINUOUS
10
1.27361
20
1.1532
11
1.27353
21
1.15309
0
LINE
8
BLACK
6
CONTINUOUS
10
1.27353
20
1.15309
11
1.27341
21
1.15306
0
LINE
8
BLACK
6
CONTINUOUS
10
1.27341
20
1.15306
11
1.2734
21
1.15305
0
LINE
8
BLACK
6
CONTINUOUS
10
1.2734
20
1.15305
11
1.27332
21
1.15295
0
LINE
8
BLACK
6
CONTINUOUS
10
1.27332
20
1.15295
11
1.27324
21
1.15294
0
LINE
8
BLACK
6
CONTINUOUS
10
1.27324
20
1.15294
11
1.27309
21
1.15283
0
LINE
8
BLACK
6
CONTINUOUS
10
1.27309
20
1.15283
11
1.27232
21
1.15277
0
LINE
8
BLACK
6
CONTINUOUS
10
1.27232
20
1.15277
11
1.27158
21
1.15257
0
LINE
8
BLACK
6
CONTINUOUS
10
1.27158
20
1.15257
11
1.27146
21
1.15263
0
LINE
8
BLACK
6
CONTINUOUS
10
1.27146
20
1.15263
11
1.27133
21
1.1526
0
LINE
8
BLACK
6
CONTINUOUS
10
1.27133
20
1.1526
11
1.27121
21
1.15267
0
LINE
8
BLACK
6
CONTINUOUS
10
1.27121
20
1.15267
11
1.27108
21
1.15266
0
LINE
8
BLACK
6
CONTINUOUS
10
1.27108
20
1.15266
11
1.27045
21
1.1531
0
LINE
8
BLACK
6
CONTINUOUS
10
1.27045
20
1.1531
11
1.26975
21
1.15342
0
LINE
8
BLACK
6
CONTINUOUS
10
1.26975
20
1.15342
11
1.26788
21
1.1553
0
LINE
8
BLACK
6
CONTINUOUS
10
1.26788
20
1.1553
11
1.26765
21
1.15562
0
LINE
8
BLACK
6
CONTINUOUS
10
1.26765
20
1.15562
11
1.26755
21
1.15569
0
LINE
8
BLACK
6
CONTINUOUS
10
1.26755
20
1.15569
11
1.26751
21
1.15582
0
LINE
8
BLACK
6
CONTINUOUS
10
1.26751
20
1.15582
11
1.26729
21
1.15614
0
LINE
8
BLACK
6
CONTINUOUS
10
1.26729
20
1.15614
11
1.26722
21
1.1569
0
LINE
8
BLACK
6
CONTINUOUS
10
1.26722
20
1.1569
11
1.26702
21
1.15764
0
LINE
8
BLACK
6
CONTINUOUS
10
1.26702
20
1.15764
11
1.26714
21
1.15788
0
LINE
8
BLACK
6
CONTINUOUS
10
1.26714
20
1.15788
11
1.26711
21
1.15815
0
LINE
8
BLACK
6
CONTINUOUS
10
1.26711
20
1.15815
11
1.26755
21
1.15878
0
LINE
8
BLACK
6
CONTINUOUS
10
1.26755
20
1.15878
11
1.26788
21
1.15947
0
LINE
8
BLACK
6
CONTINUOUS
10
1.26788
20
1.15947
11
1.26975
21
1.16135
0
LINE
8
BLACK
6
CONTINUOUS
10
1.26975
20
1.16135
11
1.27007
21
1.16157
0
LINE
8
BLACK
6
CONTINUOUS
10
1.27007
20
1.16157
11
1.27015
21
1.16168
0
LINE
8
BLACK
6
CONTINUOUS
10
1.27015
20
1.16168
11
1.27027
21
1.16171
0
LINE
8
BLACK
6
CONTINUOUS
10
1.27027
20
1.16171
11
1.27028
21
1.16172
0
LINE
8
BLACK
6
CONTINUOUS
10
1.27028
20
1.16172
11
1.27036
21
1.16182
0
LINE
8
BLACK
6
CONTINUOUS
10
1.27036
20
1.16182
11
1.27044
21
1.16183
0
LINE
8
BLACK
6
CONTINUOUS
10
1.27044
20
1.16183
11
1.27059
21
1.16194
0
LINE
8
BLACK
6
CONTINUOUS
10
1.27059
20
1.16194
11
1.27136
21
1.162
0
LINE
8
BLACK
6
CONTINUOUS
10
1.27136
20
1.162
11
1.2721
21
1.1622
0
LINE
8
BLACK
6
CONTINUOUS
10
1.2721
20
1.1622
11
1.27222
21
1.16214
0
LINE
8
BLACK
6
CONTINUOUS
10
0.881092
20
2.50328
11
0.881221
21
2.5033
0
LINE
8
BLACK
6
CONTINUOUS
10
0.881221
20
2.5033
11
0.881335
21
2.50324
0
LINE
8
BLACK
6
CONTINUOUS
10
0.881335
20
2.50324
11
0.881719
21
2.50317
0
LINE
8
BLACK
6
CONTINUOUS
10
0.881719
20
2.50317
11
0.882306
21
2.50268
0
LINE
8
BLACK
6
CONTINUOUS
10
0.882306
20
2.50268
11
0.882971
21
2.50229
0
LINE
8
BLACK
6
CONTINUOUS
10
0.882971
20
2.50229
11
0.883062
21
2.50204
0
LINE
8
BLACK
6
CONTINUOUS
10
0.883062
20
2.50204
11
0.883266
21
2.50187
0
LINE
8
BLACK
6
CONTINUOUS
10
0.883266
20
2.50187
11
0.883399
21
2.50111
0
LINE
8
BLACK
6
CONTINUOUS
10
0.883399
20
2.50111
11
0.883661
21
2.50039
0
LINE
8
BLACK
6
CONTINUOUS
10
0.883661
20
2.50039
11
0.883661
21
2.20039
0
LINE
8
BLACK
6
CONTINUOUS
10
0.883661
20
2.20039
11
0.883594
21
2.20001
0
LINE
8
BLACK
6
CONTINUOUS
10
0.883594
20
2.20001
11
0.883617
21
2.19988
0
LINE
8
BLACK
6
CONTINUOUS
10
0.883617
20
2.19988
11
0.883551
21
2.19977
0
LINE
8
BLACK
6
CONTINUOUS
10
0.883551
20
2.19977
11
0.883483
21
2.19938
0
LINE
8
BLACK
6
CONTINUOUS
10
0.883483
20
2.19938
11
0.88299
21
2.1988
0
LINE
8
BLACK
6
CONTINUOUS
10
0.88299
20
2.1988
11
0.882607
21
2.19813
0
LINE
8
BLACK
6
CONTINUOUS
10
0.882607
20
2.19813
11
0.882356
21
2.19804
0
LINE
8
BLACK
6
CONTINUOUS
10
0.882356
20
2.19804
11
0.882185
21
2.19784
0
LINE
8
BLACK
6
CONTINUOUS
10
0.882185
20
2.19784
11
0.881429
21
2.1977
0
LINE
8
BLACK
6
CONTINUOUS
10
0.881429
20
2.1977
11
0.880709
21
2.19744
0
LINE
8
BLACK
6
CONTINUOUS
10
0.880709
20
2.19744
11
0.780709
21
2.19744
0
LINE
8
BLACK
6
CONTINUOUS
10
0.780709
20
2.19744
11
0.780325
21
2.19751
0
LINE
8
BLACK
6
CONTINUOUS
10
0.780325
20
2.19751
11
0.780196
21
2.19749
0
LINE
8
BLACK
6
CONTINUOUS
10
0.780196
20
2.19749
11
0.780082
21
2.19755
0
LINE
8
BLACK
6
CONTINUOUS
10
0.780082
20
2.19755
11
0.779699
21
2.19762
0
LINE
8
BLACK
6
CONTINUOUS
10
0.779699
20
2.19762
11
0.779111
21
2.19811
0
LINE
8
BLACK
6
CONTINUOUS
10
0.779111
20
2.19811
11
0.778447
21
2.1985
0
LINE
8
BLACK
6
CONTINUOUS
10
0.778447
20
2.1985
11
0.778356
21
2.19875
0
LINE
8
BLACK
6
CONTINUOUS
10
0.778356
20
2.19875
11
0.778151
21
2.19892
0
LINE
8
BLACK
6
CONTINUOUS
10
0.778151
20
2.19892
11
0.778018
21
2.19967
0
LINE
8
BLACK
6
CONTINUOUS
10
0.778018
20
2.19967
11
0.777756
21
2.20039
0
LINE
8
BLACK
6
CONTINUOUS
10
0.777756
20
2.20039
11
0.777756
21
2.50039
0
LINE
8
BLACK
6
CONTINUOUS
10
0.777756
20
2.50039
11
0.777824
21
2.50078
0
LINE
8
BLACK
6
CONTINUOUS
10
0.777824
20
2.50078
11
0.777801
21
2.50091
0
LINE
8
BLACK
6
CONTINUOUS
10
0.777801
20
2.50091
11
0.777866
21
2.50102
0
LINE
8
BLACK
6
CONTINUOUS
10
0.777866
20
2.50102
11
0.777934
21
2.5014
0
LINE
8
BLACK
6
CONTINUOUS
10
0.777934
20
2.5014
11
0.778427
21
2.50199
0
LINE
8
BLACK
6
CONTINUOUS
10
0.778427
20
2.50199
11
0.778811
21
2.50266
0
LINE
8
BLACK
6
CONTINUOUS
10
0.778811
20
2.50266
11
0.779061
21
2.50275
0
LINE
8
BLACK
6
CONTINUOUS
10
0.779061
20
2.50275
11
0.779232
21
2.50295
0
LINE
8
BLACK
6
CONTINUOUS
10
0.779232
20
2.50295
11
0.779988
21
2.50308
0
LINE
8
BLACK
6
CONTINUOUS
10
0.779988
20
2.50308
11
0.780709
21
2.50335
0
LINE
8
BLACK
6
CONTINUOUS
10
0.780709
20
2.50335
11
0.880709
21
2.50335
0
LINE
8
BLACK
6
CONTINUOUS
10
0.880709
20
2.50335
11
0.881092
21
2.50328
0
LINE
8
BLACK
6
CONTINUOUS
10
0.783661
20
2.49744
11
0.783661
21
2.20335
0
LINE
8
BLACK
6
CONTINUOUS
10
0.783661
20
2.20335
11
0.877756
21
2.20335
0
LINE
8
BLACK
6
CONTINUOUS
10
0.877756
20
2.20335
11
0.877756
21
2.49744
0
LINE
8
BLACK
6
CONTINUOUS
10
0.877756
20
2.49744
11
0.783661
21
2.49744
0
LINE
8
BLACK
6
CONTINUOUS
10
0.0140628
20
2.52639
11
0.0279486
21
2.52403
0
LINE
8
BLACK
6
CONTINUOUS
10
0.0279486
20
2.52403
11
0.041483
21
2.52013
0
LINE
8
BLACK
6
CONTINUOUS
10
0.041483
20
2.52013
11
0.0544958
21
2.51474
0
LINE
8
BLACK
6
CONTINUOUS
10
0.0544958
20
2.51474
11
0.0668232
21
2.50792
0
LINE
8
BLACK
6
CONTINUOUS
10
0.0668232
20
2.50792
11
0.0783103
21
2.49977
0
LINE
8
BLACK
6
CONTINUOUS
10
0.0783103
20
2.49977
11
0.0888126
21
2.49039
0
LINE
8
BLACK
6
CONTINUOUS
10
0.0888126
20
2.49039
11
0.098198
21
2.47989
0
LINE
8
BLACK
6
CONTINUOUS
10
0.098198
20
2.47989
11
0.106349
21
2.4684
0
LINE
8
BLACK
6
CONTINUOUS
10
0.106349
20
2.4684
11
0.113162
21
2.45607
0
LINE
8
BLACK
6
CONTINUOUS
10
0.113162
20
2.45607
11
0.118552
21
2.44306
0
LINE
8
BLACK
6
CONTINUOUS
10
0.118552
20
2.44306
11
0.122451
21
2.42952
0
LINE
8
BLACK
6
CONTINUOUS
10
0.122451
20
2.42952
11
0.12481
21
2.41564
0
LINE
8
BLACK
6
CONTINUOUS
10
0.12481
20
2.41564
11
0.1256
21
2.40157
0
LINE
8
BLACK
6
CONTINUOUS
10
0.1256
20
2.40157
11
0.12481
21
2.38751
0
LINE
8
BLACK
6
CONTINUOUS
10
0.12481
20
2.38751
11
0.122451
21
2.37363
0
LINE
8
BLACK
6
CONTINUOUS
10
0.122451
20
2.37363
11
0.118552
21
2.36009
0
LINE
8
BLACK
6
CONTINUOUS
10
0.118552
20
2.36009
11
0.113162
21
2.34708
0
LINE
8
BLACK
6
CONTINUOUS
10
0.113162
20
2.34708
11
0.106349
21
2.33475
0
LINE
8
BLACK
6
CONTINUOUS
10
0.106349
20
2.33475
11
0.098198
21
2.32326
0
LINE
8
BLACK
6
CONTINUOUS
10
0.098198
20
2.32326
11
0.0888126
21
2.31276
0
LINE
8
BLACK
6
CONTINUOUS
10
0.0888126
20
2.31276
11
0.0783103
21
2.30338
0
LINE
8
BLACK
6
CONTINUOUS
10
0.0783103
20
2.30338
11
0.0668232
21
2.29523
0
LINE
8
BLACK
6
CONTINUOUS
10
0.0668232
20
2.29523
11
0.0544958
21
2.28841
0
LINE
8
BLACK
6
CONTINUOUS
10
0.0544958
20
2.28841
11
0.041483
21
2.28302
0
LINE
8
BLACK
6
CONTINUOUS
10
0.041483
20
2.28302
11
0.0279486
21
2.27912
0
LINE
8
BLACK
6
CONTINUOUS
10
0.0279486
20
2.27912
11
0.0140628
21
2.27676
0
LINE
8
BLACK
6
CONTINUOUS
10
0.0140628
20
2.27676
11
0
21
2.27597
0
LINE
8
BLACK
6
CONTINUOUS
10
0
20
2.27597
11
-0.0140628
21
2.27676
0
LINE
8
BLACK
6
CONTINUOUS
10
-0.0140628
20
2.27676
11
-0.0279486
21
2.27912
0
LINE
8
BLACK
6
CONTINUOUS
10
-0.0279486
20
2.27912
11
-0.041483
21
2.28302
0
LINE
8
BLACK
6
CONTINUOUS
10
-0.041483
20
2.28302
11
-0.0544958
21
2.28841
0
LINE
8
BLACK
6
CONTINUOUS
10
-0.0544958
20
2.28841
11
-0.0668232
21
2.29523
0
LINE
8
BLACK
6
CONTINUOUS
10
-0.0668232
20
2.29523
11
-0.0783103
21
2.30338
0
LINE
8
BLACK
6
CONTINUOUS
10
-0.0783103
20
2.30338
11
-0.0888126
21
2.31276
0
LINE
8
BLACK
6
CONTINUOUS
10
-0.0888126
20
2.31276
11
-0.098198
21
2.32326
0
LINE
8
BLACK
6
CONTINUOUS
10
-0.098198
20
2.32326
11
-0.106349
21
2.33475
0
LINE
8
BLACK
6
CONTINUOUS
10
-0.106349
20
2.33475
11
-0.113162
21
2.34708
0
LINE
8
BLACK
6
CONTINUOUS
10
-0.113162
20
2.34708
11
-0.118552
21
2.36009
0
LINE
8
BLACK
6
CONTINUOUS
10
-0.118552
20
2.36009
11
-0.122451
21
2.37363
0
LINE
8
BLACK
6
CONTINUOUS
10
-0.122451
20
2.37363
11
-0.12481
21
2.38751
0
LINE
8
BLACK
6
CONTINUOUS
10
-0.12481
20
2.38751
11
-0.1256
21
2.40157
0
LINE
8
BLACK
6
CONTINUOUS
10
-0.1256
20
2.40157
11
-0.12481
21
2.41564
0
LINE
8
BLACK
6
CONTINUOUS
10
-0.12481
20
2.41564
11
-0.122451
21
2.42952
0
LINE
8
BLACK
6
CONTINUOUS
10
-0.122451
20
2.42952
11
-0.118552
21
2.44306
0
LINE
8
BLACK
6
CONTINUOUS
10
-0.118552
20
2.44306
11
-0.113162
21
2.45607
0
LINE
8
BLACK
6
CONTINUOUS
10
-0.113162
20
2.45607
11
-0.106349
21
2.4684
0
LINE
8
BLACK
6
CONTINUOUS
10
-0.106349
20
2.4684
11
-0.098198
21
2.47989
0
LINE
8
BLACK
6
CONTINUOUS
10
-0.098198
20
2.47989
11
-0.0888126
21
2.49039
0
LINE
8
BLACK
6
CONTINUOUS
10
-0.0888126
20
2.49039
11
-0.0783103
21
2.49977
0
LINE
8
BLACK
6
CONTINUOUS
10
-0.0783103
20
2.49977
11
-0.0668232
21
2.50792
0
LINE
8
BLACK
6
CONTINUOUS
10
-0.0668232
20
2.50792
11
-0.0544958
21
2.51474
0
LINE
8
BLACK
6
CONTINUOUS
10
-0.0544958
20
2.51474
11
-0.041483
21
2.52013
0
LINE
8
BLACK
6
CONTINUOUS
10
-0.041483
20
2.52013
11
-0.0279486
21
2.52403
0
LINE
8
BLACK
6
CONTINUOUS
10
-0.0279486
20
2.52403
11
-0.0140628
21
2.52639
0
LINE
8
BLACK
6
CONTINUOUS
10
-0.0140628
20
2.52639
11
0
21
2.52717
0
LINE
8
BLACK
6
CONTINUOUS
10
0
20
2.52717
11
0.0140628
21
2.52639
0
LINE
8
BLACK
6
CONTINUOUS
10
-0.110038
20
2.38871
11
-0.107801
21
2.37603
0
LINE
8
BLACK
6
CONTINUOUS
10
-0.107801
20
2.37603
11
-0.104106
21
2.36368
0
LINE
8
BLACK
6
CONTINUOUS
10
-0.104106
20
2.36368
11
-0.0990033
21
2.35185
0
LINE
8
BLACK
6
CONTINUOUS
10
-0.0990033
20
2.35185
11
-0.0925616
21
2.3407
0
LINE
8
BLACK
6
CONTINUOUS
10
-0.0925616
20
2.3407
11
-0.0848681
21
2.33036
0
LINE
8
BLACK
6
CONTINUOUS
10
-0.0848681
20
2.33036
11
-0.076027
21
2.32099
0
LINE
8
BLACK
6
CONTINUOUS
10
-0.076027
20
2.32099
11
-0.0661577
21
2.31271
0
LINE
8
BLACK
6
CONTINUOUS
10
-0.0661577
20
2.31271
11
-0.0553937
21
2.30563
0
LINE
8
BLACK
6
CONTINUOUS
10
-0.0553937
20
2.30563
11
-0.0438807
21
2.29985
0
LINE
8
BLACK
6
CONTINUOUS
10
-0.0438807
20
2.29985
11
-0.0317742
21
2.29544
0
LINE
8
BLACK
6
CONTINUOUS
10
-0.0317742
20
2.29544
11
-0.019238
21
2.29247
0
LINE
8
BLACK
6
CONTINUOUS
10
-0.019238
20
2.29247
11
-0.00644173
21
2.29097
0
LINE
8
BLACK
6
CONTINUOUS
10
-0.00644173
20
2.29097
11
0.00644173
21
2.29097
0
LINE
8
BLACK
6
CONTINUOUS
10
0.00644173
20
2.29097
11
0.019238
21
2.29247
0
LINE
8
BLACK
6
CONTINUOUS
10
0.019238
20
2.29247
11
0.0317742
21
2.29544
0
LINE
8
BLACK
6
CONTINUOUS
10
0.0317742
20
2.29544
11
0.0438807
21
2.29985
0
LINE
8
BLACK
6
CONTINUOUS
10
0.0438807
20
2.29985
11
0.0553937
21
2.30563
0
LINE
8
BLACK
6
CONTINUOUS
10
0.0553937
20
2.30563
11
0.0661577
21
2.31271
0
LINE
8
BLACK
6
CONTINUOUS
10
0.0661577
20
2.31271
11
0.076027
21
2.32099
0
LINE
8
BLACK
6
CONTINUOUS
10
0.076027
20
2.32099
11
0.0848681
21
2.33036
0
LINE
8
BLACK
6
CONTINUOUS
10
0.0848681
20
2.33036
11
0.0925616
21
2.3407
0
LINE
8
BLACK
6
CONTINUOUS
10
0.0925616
20
2.3407
11
0.0990033
21
2.35185
0
LINE
8
BLACK
6
CONTINUOUS
10
0.0990033
20
2.35185
11
0.104106
21
2.36368
0
LINE
8
BLACK
6
CONTINUOUS
10
0.104106
20
2.36368
11
0.107801
21
2.37603
0
LINE
8
BLACK
6
CONTINUOUS
10
0.107801
20
2.37603
11
0.110038
21
2.38871
0
LINE
8
BLACK
6
CONTINUOUS
10
0.110038
20
2.38871
11
0.110787
21
2.40157
0
LINE
8
BLACK
6
CONTINUOUS
10
0.110787
20
2.40157
11
0.110038
21
2.41444
0
LINE
8
BLACK
6
CONTINUOUS
10
0.110038
20
2.41444
11
0.107801
21
2.42712
0
LINE
8
BLACK
6
CONTINUOUS
10
0.107801
20
2.42712
11
0.104106
21
2.43947
0
LINE
8
BLACK
6
CONTINUOUS
10
0.104106
20
2.43947
11
0.0990033
21
2.4513
0
LINE
8
BLACK
6
CONTINUOUS
10
0.0990033
20
2.4513
11
0.0925616
21
2.46245
0
LINE
8
BLACK
6
CONTINUOUS
10
0.0925616
20
2.46245
11
0.0848681
21
2.47279
0
LINE
8
BLACK
6
CONTINUOUS
10
0.0848681
20
2.47279
11
0.076027
21
2.48216
0
LINE
8
BLACK
6
CONTINUOUS
10
0.076027
20
2.48216
11
0.0661577
21
2.49044
0
LINE
8
BLACK
6
CONTINUOUS
10
0.0661577
20
2.49044
11
0.0553937
21
2.49752
0
LINE
8
BLACK
6
CONTINUOUS
10
0.0553937
20
2.49752
11
0.0438807
21
2.5033
0
LINE
8
BLACK
6
CONTINUOUS
10
0.0438807
20
2.5033
11
0.0317742
21
2.50771
0
LINE
8
BLACK
6
CONTINUOUS
10
0.0317742
20
2.50771
11
0.019238
21
2.51068
0
LINE
8
BLACK
6
CONTINUOUS
10
0.019238
20
2.51068
11
0.00644173
21
2.51217
0
LINE
8
BLACK
6
CONTINUOUS
10
0.00644173
20
2.51217
11
-0.00644173
21
2.51217
0
LINE
8
BLACK
6
CONTINUOUS
10
-0.00644173
20
2.51217
11
-0.019238
21
2.51068
0
LINE
8
BLACK
6
CONTINUOUS
10
-0.019238
20
2.51068
11
-0.0317742
21
2.50771
0
LINE
8
BLACK
6
CONTINUOUS
10
-0.0317742
20
2.50771
11
-0.0438807
21
2.5033
0
LINE
8
BLACK
6
CONTINUOUS
10
-0.0438807
20
2.5033
11
-0.0553937
21
2.49752
0
LINE
8
BLACK
6
CONTINUOUS
10
-0.0553937
20
2.49752
11
-0.0661577
21
2.49044
0
LINE
8
BLACK
6
CONTINUOUS
10
-0.0661577
20
2.49044
11
-0.076027
21
2.48216
0
LINE
8
BLACK
6
CONTINUOUS
10
-0.076027
20
2.48216
11
-0.0848681
21
2.47279
0
LINE
8
BLACK
6
CONTINUOUS
10
-0.0848681
20
2.47279
11
-0.0925616
21
2.46245
0
LINE
8
BLACK
6
CONTINUOUS
10
-0.0925616
20
2.46245
11
-0.0990033
21
2.4513
0
LINE
8
BLACK
6
CONTINUOUS
10
-0.0990033
20
2.4513
11
-0.104106
21
2.43947
0
LINE
8
BLACK
6
CONTINUOUS
10
-0.104106
20
2.43947
11
-0.107801
21
2.42712
0
LINE
8
BLACK
6
CONTINUOUS
10
-0.107801
20
2.42712
11
-0.110038
21
2.41444
0
LINE
8
BLACK
6
CONTINUOUS
10
-0.110038
20
2.41444
11
-0.110787
21
2.40157
0
LINE
8
BLACK
6
CONTINUOUS
10
-0.110787
20
2.40157
11
-0.110038
21
2.38871
0
LINE
8
BLACK
6
CONTINUOUS
10
2.01406
20
2.52639
11
2.02795
21
2.52403
0
LINE
8
BLACK
6
CONTINUOUS
10
2.02795
20
2.52403
11
2.04148
21
2.52013
0
LINE
8
BLACK
6
CONTINUOUS
10
2.04148
20
2.52013
11
2.0545
21
2.51474
0
LINE
8
BLACK
6
CONTINUOUS
10
2.0545
20
2.51474
11
2.06682
21
2.50792
0
LINE
8
BLACK
6
CONTINUOUS
10
2.06682
20
2.50792
11
2.07831
21
2.49977
0
LINE
8
BLACK
6
CONTINUOUS
10
2.07831
20
2.49977
11
2.08881
21
2.49039
0
LINE
8
BLACK
6
CONTINUOUS
10
2.08881
20
2.49039
11
2.0982
21
2.47989
0
LINE
8
BLACK
6
CONTINUOUS
10
2.0982
20
2.47989
11
2.10635
21
2.4684
0
LINE
8
BLACK
6
CONTINUOUS
10
2.10635
20
2.4684
11
2.11316
21
2.45607
0
LINE
8
BLACK
6
CONTINUOUS
10
2.11316
20
2.45607
11
2.11855
21
2.44306
0
LINE
8
BLACK
6
CONTINUOUS
10
2.11855
20
2.44306
11
2.12245
21
2.42952
0
LINE
8
BLACK
6
CONTINUOUS
10
2.12245
20
2.42952
11
2.12481
21
2.41564
0
LINE
8
BLACK
6
CONTINUOUS
10
2.12481
20
2.41564
11
2.1256
21
2.40157
0
LINE
8
BLACK
6
CONTINUOUS
10
2.1256
20
2.40157
11
2.12481
21
2.38751
0
LINE
8
BLACK
6
CONTINUOUS
10
2.12481
20
2.38751
11
2.12245
21
2.37363
0
LINE
8
BLACK
6
CONTINUOUS
10
2.12245
20
2.37363
11
2.11855
21
2.36009
0
LINE
8
BLACK
6
CONTINUOUS
10
2.11855
20
2.36009
11
2.11316
21
2.34708
0
LINE
8
BLACK
6
CONTINUOUS
10
2.11316
20
2.34708
11
2.10635
21
2.33475
0
LINE
8
BLACK
6
CONTINUOUS
10
2.10635
20
2.33475
11
2.0982
21
2.32326
0
LINE
8
BLACK
6
CONTINUOUS
10
2.0982
20
2.32326
11
2.08881
21
2.31276
0
LINE
8
BLACK
6
CONTINUOUS
10
2.08881
20
2.31276
11
2.07831
21
2.30338
0
LINE
8
BLACK
6
CONTINUOUS
10
2.07831
20
2.30338
11
2.06682
21
2.29523
0
LINE
8
BLACK
6
CONTINUOUS
10
2.06682
20
2.29523
11
2.0545
21
2.28841
0
LINE
8
BLACK
6
CONTINUOUS
10
2.0545
20
2.28841
11
2.04148
21
2.28302
0
LINE
8
BLACK
6
CONTINUOUS
10
2.04148
20
2.28302
11
2.02795
21
2.27912
0
LINE
8
BLACK
6
CONTINUOUS
10
2.02795
20
2.27912
11
2.01406
21
2.27676
0
LINE
8
BLACK
6
CONTINUOUS
10
2.01406
20
2.27676
11
2
21
2.27597
0
LINE
8
BLACK
6
CONTINUOUS
10
2
20
2.27597
11
1.98594
21
2.27676
0
LINE
8
BLACK
6
CONTINUOUS
10
1.98594
20
2.27676
11
1.97205
21
2.27912
0
LINE
8
BLACK
6
CONTINUOUS
10
1.97205
20
2.27912
11
1.95852
21
2.28302
0
LINE
8
BLACK
6
CONTINUOUS
10
1.95852
20
2.28302
11
1.9455
21
2.28841
0
LINE
8
BLACK
6
CONTINUOUS
10
1.9455
20
2.28841
11
1.93318
21
2.29523
0
LINE
8
BLACK
6
CONTINUOUS
10
1.93318
20
2.29523
11
1.92169
21
2.30338
0
LINE
8
BLACK
6
CONTINUOUS
10
1.92169
20
2.30338
11
1.91119
21
2.31276
0
LINE
8
BLACK
6
CONTINUOUS
10
1.91119
20
2.31276
11
1.9018
21
2.32326
0
LINE
8
BLACK
6
CONTINUOUS
10
1.9018
20
2.32326
11
1.89365
21
2.33475
0
LINE
8
BLACK
6
CONTINUOUS
10
1.89365
20
2.33475
11
1.88684
21
2.34708
0
LINE
8
BLACK
6
CONTINUOUS
10
1.88684
20
2.34708
11
1.88145
21
2.36009
0
LINE
8
BLACK
6
CONTINUOUS
10
1.88145
20
2.36009
11
1.87755
21
2.37363
0
LINE
8
BLACK
6
CONTINUOUS
10
1.87755
20
2.37363
11
1.87519
21
2.38751
0
LINE
8
BLACK
6
CONTINUOUS
10
1.87519
20
2.38751
11
1.8744
21
2.40157
0
LINE
8
BLACK
6
CONTINUOUS
10
1.8744
20
2.40157
11
1.87519
21
2.41564
0
LINE
8
BLACK
6
CONTINUOUS
10
1.87519
20
2.41564
11
1.87755
21
2.42952
0
LINE
8
BLACK
6
CONTINUOUS
10
1.87755
20
2.42952
11
1.88145
21
2.44306
0
LINE
8
BLACK
6
CONTINUOUS
10
1.88145
20
2.44306
11
1.88684
21
2.45607
0
LINE
8
BLACK
6
CONTINUOUS
10
1.88684
20
2.45607
11
1.89365
21
2.4684
0
LINE
8
BLACK
6
CONTINUOUS
10
1.89365
20
2.4684
11
1.9018
21
2.47989
0
LINE
8
BLACK
6
CONTINUOUS
10
1.9018
20
2.47989
11
1.91119
21
2.49039
0
LINE
8
BLACK
6
CONTINUOUS
10
1.91119
20
2.49039
11
1.92169
21
2.49977
0
LINE
8
BLACK
6
CONTINUOUS
10
1.92169
20
2.49977
11
1.93318
21
2.50792
0
LINE
8
BLACK
6
CONTINUOUS
10
1.93318
20
2.50792
11
1.9455
21
2.51474
0
LINE
8
BLACK
6
CONTINUOUS
10
1.9455
20
2.51474
11
1.95852
21
2.52013
0
LINE
8
BLACK
6
CONTINUOUS
10
1.95852
20
2.52013
11
1.97205
21
2.52403
0
LINE
8
BLACK
6
CONTINUOUS
10
1.97205
20
2.52403
11
1.98594
21
2.52639
0
LINE
8
BLACK
6
CONTINUOUS
10
1.98594
20
2.52639
11
2
21
2.52717
0
LINE
8
BLACK
6
CONTINUOUS
10
2
20
2.52717
11
2.01406
21
2.52639
0
LINE
8
BLACK
6
CONTINUOUS
10
1.88996
20
2.38871
11
1.8922
21
2.37603
0
LINE
8
BLACK
6
CONTINUOUS
10
1.8922
20
2.37603
11
1.89589
21
2.36368
0
LINE
8
BLACK
6
CONTINUOUS
10
1.89589
20
2.36368
11
1.901
21
2.35185
0
LINE
8
BLACK
6
CONTINUOUS
10
1.901
20
2.35185
11
1.90744
21
2.3407
0
LINE
8
BLACK
6
CONTINUOUS
10
1.90744
20
2.3407
11
1.91513
21
2.33036
0
LINE
8
BLACK
6
CONTINUOUS
10
1.91513
20
2.33036
11
1.92397
21
2.32099
0
LINE
8
BLACK
6
CONTINUOUS
10
1.92397
20
2.32099
11
1.93384
21
2.31271
0
LINE
8
BLACK
6
CONTINUOUS
10
1.93384
20
2.31271
11
1.94461
21
2.30563
0
LINE
8
BLACK
6
CONTINUOUS
10
1.94461
20
2.30563
11
1.95612
21
2.29985
0
LINE
8
BLACK
6
CONTINUOUS
10
1.95612
20
2.29985
11
1.96823
21
2.29544
0
LINE
8
BLACK
6
CONTINUOUS
10
1.96823
20
2.29544
11
1.98076
21
2.29247
0
LINE
8
BLACK
6
CONTINUOUS
10
1.98076
20
2.29247
11
1.99356
21
2.29097
0
LINE
8
BLACK
6
CONTINUOUS
10
1.99356
20
2.29097
11
2.00644
21
2.29097
0
LINE
8
BLACK
6
CONTINUOUS
10
2.00644
20
2.29097
11
2.01924
21
2.29247
0
LINE
8
BLACK
6
CONTINUOUS
10
2.01924
20
2.29247
11
2.03177
21
2.29544
0
LINE
8
BLACK
6
CONTINUOUS
10
2.03177
20
2.29544
11
2.04388
21
2.29985
0
LINE
8
BLACK
6
CONTINUOUS
10
2.04388
20
2.29985
11
2.05539
21
2.30563
0
LINE
8
BLACK
6
CONTINUOUS
10
2.05539
20
2.30563
11
2.06616
21
2.31271
0
LINE
8
BLACK
6
CONTINUOUS
10
2.06616
20
2.31271
11
2.07603
21
2.32099
0
LINE
8
BLACK
6
CONTINUOUS
10
2.07603
20
2.32099
11
2.08487
21
2.33036
0
LINE
8
BLACK
6
CONTINUOUS
10
2.08487
20
2.33036
11
2.09256
21
2.3407
0
LINE
8
BLACK
6
CONTINUOUS
10
2.09256
20
2.3407
11
2.099
21
2.35185
0
LINE
8
BLACK
6
CONTINUOUS
10
2.099
20
2.35185
11
2.10411
21
2.36368
0
LINE
8
BLACK
6
CONTINUOUS
10
2.10411
20
2.36368
11
2.1078
21
2.37603
0
LINE
8
BLACK
6
CONTINUOUS
10
2.1078
20
2.37603
11
2.11004
21
2.38871
0
LINE
8
BLACK
6
CONTINUOUS
10
2.11004
20
2.38871
11
2.11079
21
2.40157
0
LINE
8
BLACK
6
CONTINUOUS
10
2.11079
20
2.40157
11
2.11004
21
2.41444
0
LINE
8
BLACK
6
CONTINUOUS
10
2.11004
20
2.41444
11
2.1078
21
2.42712
0
LINE
8
BLACK
6
CONTINUOUS
10
2.1078
20
2.42712
11
2.10411
21
2.43947
0
LINE
8
BLACK
6
CONTINUOUS
10
2.10411
20
2.43947
11
2.099
21
2.4513
0
LINE
8
BLACK
6
CONTINUOUS
10
2.099
20
2.4513
11
2.09256
21
2.46245
0
LINE
8
BLACK
6
CONTINUOUS
10
2.09256
20
2.46245
11
2.08487
21
2.47279
0
LINE
8
BLACK
6
CONTINUOUS
10
2.08487
20
2.47279
11
2.07603
21
2.48216
0
LINE
8
BLACK
6
CONTINUOUS
10
2.07603
20
2.48216
11
2.06616
21
2.49044
0
LINE
8
BLACK
6
CONTINUOUS
10
2.06616
20
2.49044
11
2.05539
21
2.49752
0
LINE
8
BLACK
6
CONTINUOUS
10
2.05539
20
2.49752
11
2.04388
21
2.5033
0
LINE
8
BLACK
6
CONTINUOUS
10
2.04388
20
2.5033
11
2.03177
21
2.50771
0
LINE
8
BLACK
6
CONTINUOUS
10
2.03177
20
2.50771
11
2.01924
21
2.51068
0
LINE
8
BLACK
6
CONTINUOUS
10
2.01924
20
2.51068
11
2.00644
21
2.51217
0
LINE
8
BLACK
6
CONTINUOUS
10
2.00644
20
2.51217
11
1.99356
21
2.51217
0
LINE
8
BLACK
6
CONTINUOUS
10
1.99356
20
2.51217
11
1.98076
21
2.51068
0
LINE
8
BLACK
6
CONTINUOUS
10
1.98076
20
2.51068
11
1.96823
21
2.50771
0
LINE
8
BLACK
6
CONTINUOUS
10
1.96823
20
2.50771
11
1.95612
21
2.5033
0
LINE
8
BLACK
6
CONTINUOUS
10
1.95612
20
2.5033
11
1.94461
21
2.49752
0
LINE
8
BLACK
6
CONTINUOUS
10
1.94461
20
2.49752
11
1.93384
21
2.49044
0
LINE
8
BLACK
6
CONTINUOUS
10
1.93384
20
2.49044
11
1.92397
21
2.48216
0
LINE
8
BLACK
6
CONTINUOUS
10
1.92397
20
2.48216
11
1.91513
21
2.47279
0
LINE
8
BLACK
6
CONTINUOUS
10
1.91513
20
2.47279
11
1.90744
21
2.46245
0
LINE
8
BLACK
6
CONTINUOUS
10
1.90744
20
2.46245
11
1.901
21
2.4513
0
LINE
8
BLACK
6
CONTINUOUS
10
1.901
20
2.4513
11
1.89589
21
2.43947
0
LINE
8
BLACK
6
CONTINUOUS
10
1.89589
20
2.43947
11
1.8922
21
2.42712
0
LINE
8
BLACK
6
CONTINUOUS
10
1.8922
20
2.42712
11
1.88996
21
2.41444
0
LINE
8
BLACK
6
CONTINUOUS
10
1.88996
20
2.41444
11
1.88921
21
2.40157
0
LINE
8
BLACK
6
CONTINUOUS
10
1.88921
20
2.40157
11
1.88996
21
2.38871
0
LINE
8
BLACK
6
CONTINUOUS
10
0.481092
20
2.50052
11
0.481221
21
2.50055
0
LINE
8
BLACK
6
CONTINUOUS
10
0.481221
20
2.50055
11
0.481335
21
2.50048
0
LINE
8
BLACK
6
CONTINUOUS
10
0.481335
20
2.50048
11
0.481719
21
2.50041
0
LINE
8
BLACK
6
CONTINUOUS
10
0.481719
20
2.50041
11
0.482306
21
2.49992
0
LINE
8
BLACK
6
CONTINUOUS
10
0.482306
20
2.49992
11
0.482971
21
2.49954
0
LINE
8
BLACK
6
CONTINUOUS
10
0.482971
20
2.49954
11
0.483062
21
2.49929
0
LINE
8
BLACK
6
CONTINUOUS
10
0.483062
20
2.49929
11
0.483266
21
2.49911
0
LINE
8
BLACK
6
CONTINUOUS
10
0.483266
20
2.49911
11
0.483399
21
2.49836
0
LINE
8
BLACK
6
CONTINUOUS
10
0.483399
20
2.49836
11
0.483661
21
2.49764
0
LINE
8
BLACK
6
CONTINUOUS
10
0.483661
20
2.49764
11
0.483661
21
2.29764
0
LINE
8
BLACK
6
CONTINUOUS
10
0.483661
20
2.29764
11
0.483594
21
2.29725
0
LINE
8
BLACK
6
CONTINUOUS
10
0.483594
20
2.29725
11
0.483617
21
2.29713
0
LINE
8
BLACK
6
CONTINUOUS
10
0.483617
20
2.29713
11
0.483551
21
2.29701
0
LINE
8
BLACK
6
CONTINUOUS
10
0.483551
20
2.29701
11
0.483483
21
2.29663
0
LINE
8
BLACK
6
CONTINUOUS
10
0.483483
20
2.29663
11
0.48299
21
2.29604
0
LINE
8
BLACK
6
CONTINUOUS
10
0.48299
20
2.29604
11
0.482607
21
2.29538
0
LINE
8
BLACK
6
CONTINUOUS
10
0.482607
20
2.29538
11
0.482356
21
2.29528
0
LINE
8
BLACK
6
CONTINUOUS
10
0.482356
20
2.29528
11
0.482185
21
2.29508
0
LINE
8
BLACK
6
CONTINUOUS
10
0.482185
20
2.29508
11
0.481429
21
2.29495
0
LINE
8
BLACK
6
CONTINUOUS
10
0.481429
20
2.29495
11
0.480709
21
2.29469
0
LINE
8
BLACK
6
CONTINUOUS
10
0.480709
20
2.29469
11
0.180709
21
2.29469
0
LINE
8
BLACK
6
CONTINUOUS
10
0.180709
20
2.29469
11
0.180325
21
2.29475
0
LINE
8
BLACK
6
CONTINUOUS
10
0.180325
20
2.29475
11
0.180196
21
2.29473
0
LINE
8
BLACK
6
CONTINUOUS
10
0.180196
20
2.29473
11
0.180082
21
2.2948
0
LINE
8
BLACK
6
CONTINUOUS
10
0.180082
20
2.2948
11
0.179699
21
2.29486
0
LINE
8
BLACK
6
CONTINUOUS
10
0.179699
20
2.29486
11
0.179111
21
2.29536
0
LINE
8
BLACK
6
CONTINUOUS
10
0.179111
20
2.29536
11
0.178447
21
2.29574
0
LINE
8
BLACK
6
CONTINUOUS
10
0.178447
20
2.29574
11
0.178356
21
2.29599
0
LINE
8
BLACK
6
CONTINUOUS
10
0.178356
20
2.29599
11
0.178151
21
2.29616
0
LINE
8
BLACK
6
CONTINUOUS
10
0.178151
20
2.29616
11
0.178018
21
2.29692
0
LINE
8
BLACK
6
CONTINUOUS
10
0.178018
20
2.29692
11
0.177756
21
2.29764
0
LINE
8
BLACK
6
CONTINUOUS
10
0.177756
20
2.29764
11
0.177756
21
2.49764
0
LINE
8
BLACK
6
CONTINUOUS
10
0.177756
20
2.49764
11
0.177824
21
2.49802
0
LINE
8
BLACK
6
CONTINUOUS
10
0.177824
20
2.49802
11
0.177801
21
2.49815
0
LINE
8
BLACK
6
CONTINUOUS
10
0.177801
20
2.49815
11
0.177866
21
2.49826
0
LINE
8
BLACK
6
CONTINUOUS
10
0.177866
20
2.49826
11
0.177934
21
2.49865
0
LINE
8
BLACK
6
CONTINUOUS
10
0.177934
20
2.49865
11
0.178427
21
2.49924
0
LINE
8
BLACK
6
CONTINUOUS
10
0.178427
20
2.49924
11
0.178811
21
2.4999
0
LINE
8
BLACK
6
CONTINUOUS
10
0.178811
20
2.4999
11
0.179061
21
2.49999
0
LINE
8
BLACK
6
CONTINUOUS
10
0.179061
20
2.49999
11
0.179232
21
2.50019
0
LINE
8
BLACK
6
CONTINUOUS
10
0.179232
20
2.50019
11
0.179988
21
2.50033
0
LINE
8
BLACK
6
CONTINUOUS
10
0.179988
20
2.50033
11
0.180709
21
2.50059
0
LINE
8
BLACK
6
CONTINUOUS
10
0.180709
20
2.50059
11
0.480709
21
2.50059
0
LINE
8
BLACK
6
CONTINUOUS
10
0.480709
20
2.50059
11
0.481092
21
2.50052
0
LINE
8
BLACK
6
CONTINUOUS
10
0.183661
20
2.49469
11
0.183661
21
2.30059
0
LINE
8
BLACK
6
CONTINUOUS
10
0.183661
20
2.30059
11
0.477756
21
2.30059
0
LINE
8
BLACK
6
CONTINUOUS
10
0.477756
20
2.30059
11
0.477756
21
2.49469
0
LINE
8
BLACK
6
CONTINUOUS
10
0.477756
20
2.49469
11
0.183661
21
2.49469
0
LINE
8
BLACK
6
CONTINUOUS
10
1.22125
20
2.50052
11
1.22138
21
2.50055
0
LINE
8
BLACK
6
CONTINUOUS
10
1.22138
20
2.50055
11
1.22149
21
2.50048
0
LINE
8
BLACK
6
CONTINUOUS
10
1.22149
20
2.50048
11
1.22188
21
2.50041
0
LINE
8
BLACK
6
CONTINUOUS
10
1.22188
20
2.50041
11
1.22246
21
2.49992
0
LINE
8
BLACK
6
CONTINUOUS
10
1.22246
20
2.49992
11
1.22313
21
2.49954
0
LINE
8
BLACK
6
CONTINUOUS
10
1.22313
20
2.49954
11
1.22322
21
2.49929
0
LINE
8
BLACK
6
CONTINUOUS
10
1.22322
20
2.49929
11
1.22342
21
2.49911
0
LINE
8
BLACK
6
CONTINUOUS
10
1.22342
20
2.49911
11
1.22356
21
2.49836
0
LINE
8
BLACK
6
CONTINUOUS
10
1.22356
20
2.49836
11
1.22382
21
2.49764
0
LINE
8
BLACK
6
CONTINUOUS
10
1.22382
20
2.49764
11
1.22382
21
2.29764
0
LINE
8
BLACK
6
CONTINUOUS
10
1.22382
20
2.29764
11
1.22375
21
2.29725
0
LINE
8
BLACK
6
CONTINUOUS
10
1.22375
20
2.29725
11
1.22377
21
2.29713
0
LINE
8
BLACK
6
CONTINUOUS
10
1.22377
20
2.29713
11
1.22371
21
2.29701
0
LINE
8
BLACK
6
CONTINUOUS
10
1.22371
20
2.29701
11
1.22364
21
2.29663
0
LINE
8
BLACK
6
CONTINUOUS
10
1.22364
20
2.29663
11
1.22315
21
2.29604
0
LINE
8
BLACK
6
CONTINUOUS
10
1.22315
20
2.29604
11
1.22276
21
2.29538
0
LINE
8
BLACK
6
CONTINUOUS
10
1.22276
20
2.29538
11
1.22251
21
2.29528
0
LINE
8
BLACK
6
CONTINUOUS
10
1.22251
20
2.29528
11
1.22234
21
2.29508
0
LINE
8
BLACK
6
CONTINUOUS
10
1.22234
20
2.29508
11
1.22159
21
2.29495
0
LINE
8
BLACK
6
CONTINUOUS
10
1.22159
20
2.29495
11
1.22087
21
2.29469
0
LINE
8
BLACK
6
CONTINUOUS
10
1.22087
20
2.29469
11
0.920866
21
2.29469
0
LINE
8
BLACK
6
CONTINUOUS
10
0.920866
20
2.29469
11
0.920483
21
2.29475
0
LINE
8
BLACK
6
CONTINUOUS
10
0.920483
20
2.29475
11
0.920353
21
2.29473
0
LINE
8
BLACK
6
CONTINUOUS
10
0.920353
20
2.29473
11
0.92024
21
2.2948
0
LINE
8
BLACK
6
CONTINUOUS
10
0.92024
20
2.2948
11
0.919856
21
2.29486
0
LINE
8
BLACK
6
CONTINUOUS
10
0.919856
20
2.29486
11
0.919269
21
2.29536
0
LINE
8
BLACK
6
CONTINUOUS
10
0.919269
20
2.29536
11
0.918604
21
2.29574
0
LINE
8
BLACK
6
CONTINUOUS
10
0.918604
20
2.29574
11
0.918513
21
2.29599
0
LINE
8
BLACK
6
CONTINUOUS
10
0.918513
20
2.29599
11
0.918309
21
2.29616
0
LINE
8
BLACK
6
CONTINUOUS
10
0.918309
20
2.29616
11
0.918176
21
2.29692
0
LINE
8
BLACK
6
CONTINUOUS
10
0.918176
20
2.29692
11
0.917913
21
2.29764
0
LINE
8
BLACK
6
CONTINUOUS
10
0.917913
20
2.29764
11
0.917913
21
2.49764
0
LINE
8
BLACK
6
CONTINUOUS
10
0.917913
20
2.49764
11
0.917981
21
2.49802
0
LINE
8
BLACK
6
CONTINUOUS
10
0.917981
20
2.49802
11
0.917958
21
2.49815
0
LINE
8
BLACK
6
CONTINUOUS
10
0.917958
20
2.49815
11
0.918024
21
2.49826
0
LINE
8
BLACK
6
CONTINUOUS
10
0.918024
20
2.49826
11
0.918091
21
2.49865
0
LINE
8
BLACK
6
CONTINUOUS
10
0.918091
20
2.49865
11
0.918585
21
2.49924
0
LINE
8
BLACK
6
CONTINUOUS
10
0.918585
20
2.49924
11
0.918968
21
2.4999
0
LINE
8
BLACK
6
CONTINUOUS
10
0.918968
20
2.4999
11
0.919218
21
2.49999
0
LINE
8
BLACK
6
CONTINUOUS
10
0.919218
20
2.49999
11
0.91939
21
2.50019
0
LINE
8
BLACK
6
CONTINUOUS
10
0.91939
20
2.50019
11
0.920145
21
2.50033
0
LINE
8
BLACK
6
CONTINUOUS
10
0.920145
20
2.50033
11
0.920866
21
2.50059
0
LINE
8
BLACK
6
CONTINUOUS
10
0.920866
20
2.50059
11
1.22087
21
2.50059
0
LINE
8
BLACK
6
CONTINUOUS
10
1.22087
20
2.50059
11
1.22125
21
2.50052
0
LINE
8
BLACK
6
CONTINUOUS
10
0.923819
20
2.49469
11
0.923819
21
2.30059
0
LINE
8
BLACK
6
CONTINUOUS
10
0.923819
20
2.30059
11
1.21791
21
2.30059
0
LINE
8
BLACK
6
CONTINUOUS
10
1.21791
20
2.30059
11
1.21791
21
2.49469
0
LINE
8
BLACK
6
CONTINUOUS
10
1.21791
20
2.49469
11
0.923819
21
2.49469
  0
ENDSEC
  0
EOF
