  0
SECTION
  2
HEADER
  9
$ANGBASE
  50
0.0
  9
$ANGDIR
  70
1
  9
$MEASUREMENT
  70
0
  0
ENDSEC
  0
SECTION
  2
TABLES
  0
TABLE
  2
LTYPE
  70
4
  0
LTYPE
  5
40F
  2
CONTINUOUS
  70
0
  3
Solid line
  72
65
  73
0
  40
0.0
  0
LTYPE
  5
410
  2
DASHDOT
 70
0
  3
Dash Dot ____ _ ____ _
 72
65
 73
4
 40
2.0
 49
1.25
 49
-0.25
 49
0.25
 49
-0.25
  0
LTYPE
  5
411
  2
DASHED
 70
0
  3
Dashed __ __ __ __ __
 72
65
 73
2
 40
0.75
 49
0.5
 49
-0.25
  0
LTYPE
  5
43B
  2
DOTTED
 70
0
  3
Dotted .  .  .  .
 72
65
 73
2
 40
0.2
 49
0.0
 49
-0.2
  0
ENDTAB
  0
TABLE
  2
STYLE
  70
4
  0
STYLE
  2
KICAD
  70
0
  40
0
  41
1
  42
1
  50
0
  71
0
  3
isocp.shx
  0
STYLE
  2
KICADB
  70
0
  40
0
  41
1
  42
1
  50
0
  71
0
  3
isocp.shx
  0
STYLE
  2
KICADI
  70
0
  40
0
  41
1
  42
1
  50
15
  71
0
  3
isocp.shx
  0
STYLE
  2
KICADBI
  70
0
  40
0
  41
1
  42
1
  50
15
  71
0
  3
isocp.shx
  0
ENDTAB
  0
TABLE
  2
LAYER
  70
1
  0
LAYER
  2
BLACK
  70
0
  62
7
  6
CONTINUOUS
  0
ENDTAB
  0
ENDSEC
  0
SECTION
  2
ENTITIES
0
LINE
8
BLACK
6
CONTINUOUS
10
0.014917
20
0.125098
11
0.0287686
21
0.122656
0
LINE
8
BLACK
6
CONTINUOUS
10
0.0287686
20
0.122656
11
0.0422616
21
0.118684
0
LINE
8
BLACK
6
CONTINUOUS
10
0.0422616
20
0.118684
11
0.0552279
21
0.113234
0
LINE
8
BLACK
6
CONTINUOUS
10
0.0552279
20
0.113234
11
0.0675057
21
0.106372
0
LINE
8
BLACK
6
CONTINUOUS
10
0.0675057
20
0.106372
11
0.0789422
21
0.0981843
0
LINE
8
BLACK
6
CONTINUOUS
10
0.0789422
20
0.0981843
11
0.0893947
21
0.0887728
0
LINE
8
BLACK
6
CONTINUOUS
10
0.0893947
20
0.0887728
11
0.098733
21
0.0782548
0
LINE
8
BLACK
6
CONTINUOUS
10
0.098733
20
0.0782548
11
0.106841
21
0.0667615
0
LINE
8
BLACK
6
CONTINUOUS
10
0.106841
20
0.0667615
11
0.113617
21
0.054436
0
LINE
8
BLACK
6
CONTINUOUS
10
0.113617
20
0.054436
11
0.118977
21
0.041432
0
LINE
8
BLACK
6
CONTINUOUS
10
0.118977
20
0.041432
11
0.122853
21
0.0279116
0
LINE
8
BLACK
6
CONTINUOUS
10
0.122853
20
0.0279116
11
0.125199
21
0.0140433
0
LINE
8
BLACK
6
CONTINUOUS
10
0.125199
20
0.0140433
11
0.125984
21
0
0
LINE
8
BLACK
6
CONTINUOUS
10
0.125984
20
0
11
0.125935
21
-0.00351768
0
LINE
8
BLACK
6
CONTINUOUS
10
0.125935
20
-0.00351768
11
0.124758
21
-0.0175336
0
LINE
8
BLACK
6
CONTINUOUS
10
0.124758
20
-0.0175336
11
0.122026
21
-0.031331
0
LINE
8
BLACK
6
CONTINUOUS
10
0.122026
20
-0.031331
11
0.117773
21
-0.0447379
0
LINE
8
BLACK
6
CONTINUOUS
10
0.117773
20
-0.0447379
11
0.112052
21
-0.0575871
0
LINE
8
BLACK
6
CONTINUOUS
10
0.112052
20
-0.0575871
11
0.104935
21
-0.0697186
0
LINE
8
BLACK
6
CONTINUOUS
10
0.104935
20
-0.0697186
11
0.0965095
21
-0.0809811
0
LINE
8
BLACK
6
CONTINUOUS
10
0.0965095
20
-0.0809811
11
0.0868812
21
-0.0912343
0
LINE
8
BLACK
6
CONTINUOUS
10
0.0868812
20
-0.0912343
11
0.07617
21
-0.10035
0
LINE
8
BLACK
6
CONTINUOUS
10
0.07617
20
-0.10035
11
0.0645093
21
-0.108215
0
LINE
8
BLACK
6
CONTINUOUS
10
0.0645093
20
-0.108215
11
0.0520446
21
-0.114732
0
LINE
8
BLACK
6
CONTINUOUS
10
0.0520446
20
-0.114732
11
0.0389313
21
-0.119818
0
LINE
8
BLACK
6
CONTINUOUS
10
0.0389313
20
-0.119818
11
0.0253326
21
-0.123411
0
LINE
8
BLACK
6
CONTINUOUS
10
0.0253326
20
-0.123411
11
0.0114183
21
-0.125466
0
LINE
8
BLACK
6
CONTINUOUS
10
0.0114183
20
-0.125466
11
-0.00263843
21
-0.125957
0
LINE
8
BLACK
6
CONTINUOUS
10
-0.00263843
20
-0.125957
11
-0.0166622
21
-0.124878
0
LINE
8
BLACK
6
CONTINUOUS
10
-0.0166622
20
-0.124878
11
-0.0304783
21
-0.122242
0
LINE
8
BLACK
6
CONTINUOUS
10
-0.0304783
20
-0.122242
11
-0.0439146
21
-0.118083
0
LINE
8
BLACK
6
CONTINUOUS
10
-0.0439146
20
-0.118083
11
-0.0568035
21
-0.112452
0
LINE
8
BLACK
6
CONTINUOUS
10
-0.0568035
20
-0.112452
11
-0.0689843
21
-0.105419
0
LINE
8
BLACK
6
CONTINUOUS
10
-0.0689843
20
-0.105419
11
-0.0803054
21
-0.0970725
0
LINE
8
BLACK
6
CONTINUOUS
10
-0.0803054
20
-0.0970725
11
-0.0906255
21
-0.087516
0
LINE
8
BLACK
6
CONTINUOUS
10
-0.0906255
20
-0.087516
11
-0.099816
21
-0.0768687
0
LINE
8
BLACK
6
CONTINUOUS
10
-0.099816
20
-0.0768687
11
-0.107762
21
-0.0652632
0
LINE
8
BLACK
6
CONTINUOUS
10
-0.107762
20
-0.0652632
11
-0.114366
21
-0.0528444
0
LINE
8
BLACK
6
CONTINUOUS
10
-0.114366
20
-0.0528444
11
-0.119543
21
-0.0397668
0
LINE
8
BLACK
6
CONTINUOUS
10
-0.119543
20
-0.0397668
11
-0.123231
21
-0.0261936
0
LINE
8
BLACK
6
CONTINUOUS
10
-0.123231
20
-0.0261936
11
-0.125383
21
-0.0122939
0
LINE
8
BLACK
6
CONTINUOUS
10
-0.125383
20
-0.0122939
11
-0.125972
21
0.00175902
0
LINE
8
BLACK
6
CONTINUOUS
10
-0.125972
20
0.00175902
11
-0.124991
21
0.01579
0
LINE
8
BLACK
6
CONTINUOUS
10
-0.124991
20
0.01579
11
-0.122452
21
0.0296242
0
LINE
8
BLACK
6
CONTINUOUS
10
-0.122452
20
0.0296242
11
-0.118386
21
0.0430891
0
LINE
8
BLACK
6
CONTINUOUS
10
-0.118386
20
0.0430891
11
-0.112846
21
0.056017
0
LINE
8
BLACK
6
CONTINUOUS
10
-0.112846
20
0.056017
11
-0.105898
21
0.0682467
0
LINE
8
BLACK
6
CONTINUOUS
10
-0.105898
20
0.0682467
11
-0.0976308
21
0.0796257
0
LINE
8
BLACK
6
CONTINUOUS
10
-0.0976308
20
0.0796257
11
-0.0881466
21
0.0900123
0
LINE
8
BLACK
6
CONTINUOUS
10
-0.0881466
20
0.0900123
11
-0.0775637
21
0.0992769
0
LINE
8
BLACK
6
CONTINUOUS
10
-0.0775637
20
0.0992769
11
-0.066014
21
0.107304
0
LINE
8
BLACK
6
CONTINUOUS
10
-0.066014
20
0.107304
11
-0.0536415
21
0.113994
0
LINE
8
BLACK
6
CONTINUOUS
10
-0.0536415
20
0.113994
11
-0.0406004
21
0.119263
0
LINE
8
BLACK
6
CONTINUOUS
10
-0.0406004
20
0.119263
11
-0.0270533
21
0.123045
0
LINE
8
BLACK
6
CONTINUOUS
10
-0.0270533
20
0.123045
11
-0.0131689
21
0.125294
0
LINE
8
BLACK
6
CONTINUOUS
10
-0.0131689
20
0.125294
11
0.000879528
21
0.125981
0
LINE
8
BLACK
6
CONTINUOUS
10
0.000879528
20
0.125981
11
0.014917
21
0.125098
0
LINE
8
BLACK
6
CONTINUOUS
10
2.01492
20
0.125098
11
2.02877
21
0.122656
0
LINE
8
BLACK
6
CONTINUOUS
10
2.02877
20
0.122656
11
2.04226
21
0.118684
0
LINE
8
BLACK
6
CONTINUOUS
10
2.04226
20
0.118684
11
2.05523
21
0.113234
0
LINE
8
BLACK
6
CONTINUOUS
10
2.05523
20
0.113234
11
2.06751
21
0.106372
0
LINE
8
BLACK
6
CONTINUOUS
10
2.06751
20
0.106372
11
2.07894
21
0.0981843
0
LINE
8
BLACK
6
CONTINUOUS
10
2.07894
20
0.0981843
11
2.08939
21
0.0887728
0
LINE
8
BLACK
6
CONTINUOUS
10
2.08939
20
0.0887728
11
2.09873
21
0.0782548
0
LINE
8
BLACK
6
CONTINUOUS
10
2.09873
20
0.0782548
11
2.10684
21
0.0667615
0
LINE
8
BLACK
6
CONTINUOUS
10
2.10684
20
0.0667615
11
2.11362
21
0.054436
0
LINE
8
BLACK
6
CONTINUOUS
10
2.11362
20
0.054436
11
2.11898
21
0.041432
0
LINE
8
BLACK
6
CONTINUOUS
10
2.11898
20
0.041432
11
2.12285
21
0.0279116
0
LINE
8
BLACK
6
CONTINUOUS
10
2.12285
20
0.0279116
11
2.1252
21
0.0140433
0
LINE
8
BLACK
6
CONTINUOUS
10
2.1252
20
0.0140433
11
2.12598
21
0
0
LINE
8
BLACK
6
CONTINUOUS
10
2.12598
20
0
11
2.12594
21
-0.00351768
0
LINE
8
BLACK
6
CONTINUOUS
10
2.12594
20
-0.00351768
11
2.12476
21
-0.0175336
0
LINE
8
BLACK
6
CONTINUOUS
10
2.12476
20
-0.0175336
11
2.12203
21
-0.031331
0
LINE
8
BLACK
6
CONTINUOUS
10
2.12203
20
-0.031331
11
2.11777
21
-0.0447379
0
LINE
8
BLACK
6
CONTINUOUS
10
2.11777
20
-0.0447379
11
2.11205
21
-0.0575871
0
LINE
8
BLACK
6
CONTINUOUS
10
2.11205
20
-0.0575871
11
2.10493
21
-0.0697186
0
LINE
8
BLACK
6
CONTINUOUS
10
2.10493
20
-0.0697186
11
2.09651
21
-0.0809811
0
LINE
8
BLACK
6
CONTINUOUS
10
2.09651
20
-0.0809811
11
2.08688
21
-0.0912343
0
LINE
8
BLACK
6
CONTINUOUS
10
2.08688
20
-0.0912343
11
2.07617
21
-0.10035
0
LINE
8
BLACK
6
CONTINUOUS
10
2.07617
20
-0.10035
11
2.06451
21
-0.108215
0
LINE
8
BLACK
6
CONTINUOUS
10
2.06451
20
-0.108215
11
2.05204
21
-0.114732
0
LINE
8
BLACK
6
CONTINUOUS
10
2.05204
20
-0.114732
11
2.03893
21
-0.119818
0
LINE
8
BLACK
6
CONTINUOUS
10
2.03893
20
-0.119818
11
2.02533
21
-0.123411
0
LINE
8
BLACK
6
CONTINUOUS
10
2.02533
20
-0.123411
11
2.01142
21
-0.125466
0
LINE
8
BLACK
6
CONTINUOUS
10
2.01142
20
-0.125466
11
1.99736
21
-0.125957
0
LINE
8
BLACK
6
CONTINUOUS
10
1.99736
20
-0.125957
11
1.98334
21
-0.124878
0
LINE
8
BLACK
6
CONTINUOUS
10
1.98334
20
-0.124878
11
1.96952
21
-0.122242
0
LINE
8
BLACK
6
CONTINUOUS
10
1.96952
20
-0.122242
11
1.95609
21
-0.118083
0
LINE
8
BLACK
6
CONTINUOUS
10
1.95609
20
-0.118083
11
1.9432
21
-0.112452
0
LINE
8
BLACK
6
CONTINUOUS
10
1.9432
20
-0.112452
11
1.93102
21
-0.105419
0
LINE
8
BLACK
6
CONTINUOUS
10
1.93102
20
-0.105419
11
1.91969
21
-0.0970725
0
LINE
8
BLACK
6
CONTINUOUS
10
1.91969
20
-0.0970725
11
1.90937
21
-0.087516
0
LINE
8
BLACK
6
CONTINUOUS
10
1.90937
20
-0.087516
11
1.90018
21
-0.0768687
0
LINE
8
BLACK
6
CONTINUOUS
10
1.90018
20
-0.0768687
11
1.89224
21
-0.0652632
0
LINE
8
BLACK
6
CONTINUOUS
10
1.89224
20
-0.0652632
11
1.88563
21
-0.0528444
0
LINE
8
BLACK
6
CONTINUOUS
10
1.88563
20
-0.0528444
11
1.88046
21
-0.0397668
0
LINE
8
BLACK
6
CONTINUOUS
10
1.88046
20
-0.0397668
11
1.87677
21
-0.0261936
0
LINE
8
BLACK
6
CONTINUOUS
10
1.87677
20
-0.0261936
11
1.87462
21
-0.0122939
0
LINE
8
BLACK
6
CONTINUOUS
10
1.87462
20
-0.0122939
11
1.87403
21
0.00175902
0
LINE
8
BLACK
6
CONTINUOUS
10
1.87403
20
0.00175902
11
1.87501
21
0.01579
0
LINE
8
BLACK
6
CONTINUOUS
10
1.87501
20
0.01579
11
1.87755
21
0.0296242
0
LINE
8
BLACK
6
CONTINUOUS
10
1.87755
20
0.0296242
11
1.88161
21
0.0430891
0
LINE
8
BLACK
6
CONTINUOUS
10
1.88161
20
0.0430891
11
1.88715
21
0.056017
0
LINE
8
BLACK
6
CONTINUOUS
10
1.88715
20
0.056017
11
1.8941
21
0.0682467
0
LINE
8
BLACK
6
CONTINUOUS
10
1.8941
20
0.0682467
11
1.90237
21
0.0796257
0
LINE
8
BLACK
6
CONTINUOUS
10
1.90237
20
0.0796257
11
1.91185
21
0.0900123
0
LINE
8
BLACK
6
CONTINUOUS
10
1.91185
20
0.0900123
11
1.92244
21
0.0992769
0
LINE
8
BLACK
6
CONTINUOUS
10
1.92244
20
0.0992769
11
1.93399
21
0.107304
0
LINE
8
BLACK
6
CONTINUOUS
10
1.93399
20
0.107304
11
1.94636
21
0.113994
0
LINE
8
BLACK
6
CONTINUOUS
10
1.94636
20
0.113994
11
1.9594
21
0.119263
0
LINE
8
BLACK
6
CONTINUOUS
10
1.9594
20
0.119263
11
1.97295
21
0.123045
0
LINE
8
BLACK
6
CONTINUOUS
10
1.97295
20
0.123045
11
1.98683
21
0.125294
0
LINE
8
BLACK
6
CONTINUOUS
10
1.98683
20
0.125294
11
2.00088
21
0.125981
0
LINE
8
BLACK
6
CONTINUOUS
10
2.00088
20
0.125981
11
2.01492
21
0.125098
0
LINE
8
BLACK
6
CONTINUOUS
10
0.0790763
20
0.37192
11
0.0816307
21
0.370213
0
LINE
8
BLACK
6
CONTINUOUS
10
0.0816307
20
0.370213
11
0.0833376
21
0.367659
0
LINE
8
BLACK
6
CONTINUOUS
10
0.0833376
20
0.367659
11
0.083937
21
0.364646
0
LINE
8
BLACK
6
CONTINUOUS
10
0.083937
20
0.364646
11
0.083937
21
0.304646
0
LINE
8
BLACK
6
CONTINUOUS
10
0.083937
20
0.304646
11
0.0833376
21
0.301632
0
LINE
8
BLACK
6
CONTINUOUS
10
0.0833376
20
0.301632
11
0.0816307
21
0.299078
0
LINE
8
BLACK
6
CONTINUOUS
10
0.0816307
20
0.299078
11
0.0790763
21
0.297371
0
LINE
8
BLACK
6
CONTINUOUS
10
0.0790763
20
0.297371
11
0.076063
21
0.296772
0
LINE
8
BLACK
6
CONTINUOUS
10
0.076063
20
0.296772
11
0.016063
21
0.296772
0
LINE
8
BLACK
6
CONTINUOUS
10
0.016063
20
0.296772
11
0.0130497
21
0.297371
0
LINE
8
BLACK
6
CONTINUOUS
10
0.0130497
20
0.297371
11
0.0104952
21
0.299078
0
LINE
8
BLACK
6
CONTINUOUS
10
0.0104952
20
0.299078
11
0.00878835
21
0.301632
0
LINE
8
BLACK
6
CONTINUOUS
10
0.00878835
20
0.301632
11
0.00818898
21
0.304646
0
LINE
8
BLACK
6
CONTINUOUS
10
0.00818898
20
0.304646
11
0.00818898
21
0.364646
0
LINE
8
BLACK
6
CONTINUOUS
10
0.00818898
20
0.364646
11
0.00878835
21
0.367659
0
LINE
8
BLACK
6
CONTINUOUS
10
0.00878835
20
0.367659
11
0.0104952
21
0.370213
0
LINE
8
BLACK
6
CONTINUOUS
10
0.0104952
20
0.370213
11
0.0130497
21
0.37192
0
LINE
8
BLACK
6
CONTINUOUS
10
0.0130497
20
0.37192
11
0.016063
21
0.37252
0
LINE
8
BLACK
6
CONTINUOUS
10
0.016063
20
0.37252
11
0.076063
21
0.37252
0
LINE
8
BLACK
6
CONTINUOUS
10
0.076063
20
0.37252
11
0.0790763
21
0.37192
0
LINE
8
BLACK
6
CONTINUOUS
10
0.179076
20
0.37192
11
0.181631
21
0.370213
0
LINE
8
BLACK
6
CONTINUOUS
10
0.181631
20
0.370213
11
0.183338
21
0.367659
0
LINE
8
BLACK
6
CONTINUOUS
10
0.183338
20
0.367659
11
0.183937
21
0.364646
0
LINE
8
BLACK
6
CONTINUOUS
10
0.183937
20
0.364646
11
0.183937
21
0.304646
0
LINE
8
BLACK
6
CONTINUOUS
10
0.183937
20
0.304646
11
0.183338
21
0.301632
0
LINE
8
BLACK
6
CONTINUOUS
10
0.183338
20
0.301632
11
0.181631
21
0.299078
0
LINE
8
BLACK
6
CONTINUOUS
10
0.181631
20
0.299078
11
0.179076
21
0.297371
0
LINE
8
BLACK
6
CONTINUOUS
10
0.179076
20
0.297371
11
0.176063
21
0.296772
0
LINE
8
BLACK
6
CONTINUOUS
10
0.176063
20
0.296772
11
0.116063
21
0.296772
0
LINE
8
BLACK
6
CONTINUOUS
10
0.116063
20
0.296772
11
0.11305
21
0.297371
0
LINE
8
BLACK
6
CONTINUOUS
10
0.11305
20
0.297371
11
0.110495
21
0.299078
0
LINE
8
BLACK
6
CONTINUOUS
10
0.110495
20
0.299078
11
0.108788
21
0.301632
0
LINE
8
BLACK
6
CONTINUOUS
10
0.108788
20
0.301632
11
0.108189
21
0.304646
0
LINE
8
BLACK
6
CONTINUOUS
10
0.108189
20
0.304646
11
0.108189
21
0.364646
0
LINE
8
BLACK
6
CONTINUOUS
10
0.108189
20
0.364646
11
0.108788
21
0.367659
0
LINE
8
BLACK
6
CONTINUOUS
10
0.108788
20
0.367659
11
0.110495
21
0.370213
0
LINE
8
BLACK
6
CONTINUOUS
10
0.110495
20
0.370213
11
0.11305
21
0.37192
0
LINE
8
BLACK
6
CONTINUOUS
10
0.11305
20
0.37192
11
0.116063
21
0.37252
0
LINE
8
BLACK
6
CONTINUOUS
10
0.116063
20
0.37252
11
0.176063
21
0.37252
0
LINE
8
BLACK
6
CONTINUOUS
10
0.176063
20
0.37252
11
0.179076
21
0.37192
0
LINE
8
BLACK
6
CONTINUOUS
10
0.279076
20
0.37192
11
0.281631
21
0.370213
0
LINE
8
BLACK
6
CONTINUOUS
10
0.281631
20
0.370213
11
0.283338
21
0.367659
0
LINE
8
BLACK
6
CONTINUOUS
10
0.283338
20
0.367659
11
0.283937
21
0.364646
0
LINE
8
BLACK
6
CONTINUOUS
10
0.283937
20
0.364646
11
0.283937
21
0.304646
0
LINE
8
BLACK
6
CONTINUOUS
10
0.283937
20
0.304646
11
0.283338
21
0.301632
0
LINE
8
BLACK
6
CONTINUOUS
10
0.283338
20
0.301632
11
0.281631
21
0.299078
0
LINE
8
BLACK
6
CONTINUOUS
10
0.281631
20
0.299078
11
0.279076
21
0.297371
0
LINE
8
BLACK
6
CONTINUOUS
10
0.279076
20
0.297371
11
0.276063
21
0.296772
0
LINE
8
BLACK
6
CONTINUOUS
10
0.276063
20
0.296772
11
0.216063
21
0.296772
0
LINE
8
BLACK
6
CONTINUOUS
10
0.216063
20
0.296772
11
0.21305
21
0.297371
0
LINE
8
BLACK
6
CONTINUOUS
10
0.21305
20
0.297371
11
0.210495
21
0.299078
0
LINE
8
BLACK
6
CONTINUOUS
10
0.210495
20
0.299078
11
0.208788
21
0.301632
0
LINE
8
BLACK
6
CONTINUOUS
10
0.208788
20
0.301632
11
0.208189
21
0.304646
0
LINE
8
BLACK
6
CONTINUOUS
10
0.208189
20
0.304646
11
0.208189
21
0.364646
0
LINE
8
BLACK
6
CONTINUOUS
10
0.208189
20
0.364646
11
0.208788
21
0.367659
0
LINE
8
BLACK
6
CONTINUOUS
10
0.208788
20
0.367659
11
0.210495
21
0.370213
0
LINE
8
BLACK
6
CONTINUOUS
10
0.210495
20
0.370213
11
0.21305
21
0.37192
0
LINE
8
BLACK
6
CONTINUOUS
10
0.21305
20
0.37192
11
0.216063
21
0.37252
0
LINE
8
BLACK
6
CONTINUOUS
10
0.216063
20
0.37252
11
0.276063
21
0.37252
0
LINE
8
BLACK
6
CONTINUOUS
10
0.276063
20
0.37252
11
0.279076
21
0.37192
0
LINE
8
BLACK
6
CONTINUOUS
10
1.77908
20
0.37192
11
1.78163
21
0.370213
0
LINE
8
BLACK
6
CONTINUOUS
10
1.78163
20
0.370213
11
1.78334
21
0.367659
0
LINE
8
BLACK
6
CONTINUOUS
10
1.78334
20
0.367659
11
1.78394
21
0.364646
0
LINE
8
BLACK
6
CONTINUOUS
10
1.78394
20
0.364646
11
1.78394
21
0.304646
0
LINE
8
BLACK
6
CONTINUOUS
10
1.78394
20
0.304646
11
1.78334
21
0.301632
0
LINE
8
BLACK
6
CONTINUOUS
10
1.78334
20
0.301632
11
1.78163
21
0.299078
0
LINE
8
BLACK
6
CONTINUOUS
10
1.78163
20
0.299078
11
1.77908
21
0.297371
0
LINE
8
BLACK
6
CONTINUOUS
10
1.77908
20
0.297371
11
1.77606
21
0.296772
0
LINE
8
BLACK
6
CONTINUOUS
10
1.77606
20
0.296772
11
1.71606
21
0.296772
0
LINE
8
BLACK
6
CONTINUOUS
10
1.71606
20
0.296772
11
1.71305
21
0.297371
0
LINE
8
BLACK
6
CONTINUOUS
10
1.71305
20
0.297371
11
1.7105
21
0.299078
0
LINE
8
BLACK
6
CONTINUOUS
10
1.7105
20
0.299078
11
1.70879
21
0.301632
0
LINE
8
BLACK
6
CONTINUOUS
10
1.70879
20
0.301632
11
1.70819
21
0.304646
0
LINE
8
BLACK
6
CONTINUOUS
10
1.70819
20
0.304646
11
1.70819
21
0.364646
0
LINE
8
BLACK
6
CONTINUOUS
10
1.70819
20
0.364646
11
1.70879
21
0.367659
0
LINE
8
BLACK
6
CONTINUOUS
10
1.70879
20
0.367659
11
1.7105
21
0.370213
0
LINE
8
BLACK
6
CONTINUOUS
10
1.7105
20
0.370213
11
1.71305
21
0.37192
0
LINE
8
BLACK
6
CONTINUOUS
10
1.71305
20
0.37192
11
1.71606
21
0.37252
0
LINE
8
BLACK
6
CONTINUOUS
10
1.71606
20
0.37252
11
1.77606
21
0.37252
0
LINE
8
BLACK
6
CONTINUOUS
10
1.77606
20
0.37252
11
1.77908
21
0.37192
0
LINE
8
BLACK
6
CONTINUOUS
10
1.87908
20
0.37192
11
1.88163
21
0.370213
0
LINE
8
BLACK
6
CONTINUOUS
10
1.88163
20
0.370213
11
1.88334
21
0.367659
0
LINE
8
BLACK
6
CONTINUOUS
10
1.88334
20
0.367659
11
1.88394
21
0.364646
0
LINE
8
BLACK
6
CONTINUOUS
10
1.88394
20
0.364646
11
1.88394
21
0.304646
0
LINE
8
BLACK
6
CONTINUOUS
10
1.88394
20
0.304646
11
1.88334
21
0.301632
0
LINE
8
BLACK
6
CONTINUOUS
10
1.88334
20
0.301632
11
1.88163
21
0.299078
0
LINE
8
BLACK
6
CONTINUOUS
10
1.88163
20
0.299078
11
1.87908
21
0.297371
0
LINE
8
BLACK
6
CONTINUOUS
10
1.87908
20
0.297371
11
1.87606
21
0.296772
0
LINE
8
BLACK
6
CONTINUOUS
10
1.87606
20
0.296772
11
1.81606
21
0.296772
0
LINE
8
BLACK
6
CONTINUOUS
10
1.81606
20
0.296772
11
1.81305
21
0.297371
0
LINE
8
BLACK
6
CONTINUOUS
10
1.81305
20
0.297371
11
1.8105
21
0.299078
0
LINE
8
BLACK
6
CONTINUOUS
10
1.8105
20
0.299078
11
1.80879
21
0.301632
0
LINE
8
BLACK
6
CONTINUOUS
10
1.80879
20
0.301632
11
1.80819
21
0.304646
0
LINE
8
BLACK
6
CONTINUOUS
10
1.80819
20
0.304646
11
1.80819
21
0.364646
0
LINE
8
BLACK
6
CONTINUOUS
10
1.80819
20
0.364646
11
1.80879
21
0.367659
0
LINE
8
BLACK
6
CONTINUOUS
10
1.80879
20
0.367659
11
1.8105
21
0.370213
0
LINE
8
BLACK
6
CONTINUOUS
10
1.8105
20
0.370213
11
1.81305
21
0.37192
0
LINE
8
BLACK
6
CONTINUOUS
10
1.81305
20
0.37192
11
1.81606
21
0.37252
0
LINE
8
BLACK
6
CONTINUOUS
10
1.81606
20
0.37252
11
1.87606
21
0.37252
0
LINE
8
BLACK
6
CONTINUOUS
10
1.87606
20
0.37252
11
1.87908
21
0.37192
0
LINE
8
BLACK
6
CONTINUOUS
10
1.97908
20
0.37192
11
1.98163
21
0.370213
0
LINE
8
BLACK
6
CONTINUOUS
10
1.98163
20
0.370213
11
1.98334
21
0.367659
0
LINE
8
BLACK
6
CONTINUOUS
10
1.98334
20
0.367659
11
1.98394
21
0.364646
0
LINE
8
BLACK
6
CONTINUOUS
10
1.98394
20
0.364646
11
1.98394
21
0.304646
0
LINE
8
BLACK
6
CONTINUOUS
10
1.98394
20
0.304646
11
1.98334
21
0.301632
0
LINE
8
BLACK
6
CONTINUOUS
10
1.98334
20
0.301632
11
1.98163
21
0.299078
0
LINE
8
BLACK
6
CONTINUOUS
10
1.98163
20
0.299078
11
1.97908
21
0.297371
0
LINE
8
BLACK
6
CONTINUOUS
10
1.97908
20
0.297371
11
1.97606
21
0.296772
0
LINE
8
BLACK
6
CONTINUOUS
10
1.97606
20
0.296772
11
1.91606
21
0.296772
0
LINE
8
BLACK
6
CONTINUOUS
10
1.91606
20
0.296772
11
1.91305
21
0.297371
0
LINE
8
BLACK
6
CONTINUOUS
10
1.91305
20
0.297371
11
1.9105
21
0.299078
0
LINE
8
BLACK
6
CONTINUOUS
10
1.9105
20
0.299078
11
1.90879
21
0.301632
0
LINE
8
BLACK
6
CONTINUOUS
10
1.90879
20
0.301632
11
1.90819
21
0.304646
0
LINE
8
BLACK
6
CONTINUOUS
10
1.90819
20
0.304646
11
1.90819
21
0.364646
0
LINE
8
BLACK
6
CONTINUOUS
10
1.90819
20
0.364646
11
1.90879
21
0.367659
0
LINE
8
BLACK
6
CONTINUOUS
10
1.90879
20
0.367659
11
1.9105
21
0.370213
0
LINE
8
BLACK
6
CONTINUOUS
10
1.9105
20
0.370213
11
1.91305
21
0.37192
0
LINE
8
BLACK
6
CONTINUOUS
10
1.91305
20
0.37192
11
1.91606
21
0.37252
0
LINE
8
BLACK
6
CONTINUOUS
10
1.91606
20
0.37252
11
1.97606
21
0.37252
0
LINE
8
BLACK
6
CONTINUOUS
10
1.97606
20
0.37252
11
1.97908
21
0.37192
0
LINE
8
BLACK
6
CONTINUOUS
10
1.19053
20
0.98345
11
1.19543
21
0.981729
0
LINE
8
BLACK
6
CONTINUOUS
10
1.19543
20
0.981729
11
1.19961
21
0.978643
0
LINE
8
BLACK
6
CONTINUOUS
10
1.19961
20
0.978643
11
1.20269
21
0.974464
0
LINE
8
BLACK
6
CONTINUOUS
10
1.20269
20
0.974464
11
1.20441
21
0.969563
0
LINE
8
BLACK
6
CONTINUOUS
10
1.20441
20
0.969563
11
1.20472
21
0.966289
0
LINE
8
BLACK
6
CONTINUOUS
10
1.20472
20
0.966289
11
1.20472
21
0.947096
0
LINE
8
BLACK
6
CONTINUOUS
10
1.20472
20
0.947096
11
1.20441
21
0.943823
0
LINE
8
BLACK
6
CONTINUOUS
10
1.20441
20
0.943823
11
1.20269
21
0.938921
0
LINE
8
BLACK
6
CONTINUOUS
10
1.20269
20
0.938921
11
1.19961
21
0.934743
0
LINE
8
BLACK
6
CONTINUOUS
10
1.19961
20
0.934743
11
1.19543
21
0.931657
0
LINE
8
BLACK
6
CONTINUOUS
10
1.19543
20
0.931657
11
1.19053
21
0.929935
0
LINE
8
BLACK
6
CONTINUOUS
10
1.19053
20
0.929935
11
1.18725
21
0.929626
0
LINE
8
BLACK
6
CONTINUOUS
10
1.18725
20
0.929626
11
1.15133
21
0.929626
0
LINE
8
BLACK
6
CONTINUOUS
10
1.15133
20
0.929626
11
1.14806
21
0.929935
0
LINE
8
BLACK
6
CONTINUOUS
10
1.14806
20
0.929935
11
1.14315
21
0.931657
0
LINE
8
BLACK
6
CONTINUOUS
10
1.14315
20
0.931657
11
1.13898
21
0.934743
0
LINE
8
BLACK
6
CONTINUOUS
10
1.13898
20
0.934743
11
1.13589
21
0.938921
0
LINE
8
BLACK
6
CONTINUOUS
10
1.13589
20
0.938921
11
1.13417
21
0.943823
0
LINE
8
BLACK
6
CONTINUOUS
10
1.13417
20
0.943823
11
1.13386
21
0.947096
0
LINE
8
BLACK
6
CONTINUOUS
10
1.13386
20
0.947096
11
1.13386
21
0.966289
0
LINE
8
BLACK
6
CONTINUOUS
10
1.13386
20
0.966289
11
1.13417
21
0.969563
0
LINE
8
BLACK
6
CONTINUOUS
10
1.13417
20
0.969563
11
1.13589
21
0.974464
0
LINE
8
BLACK
6
CONTINUOUS
10
1.13589
20
0.974464
11
1.13898
21
0.978643
0
LINE
8
BLACK
6
CONTINUOUS
10
1.13898
20
0.978643
11
1.14315
21
0.981729
0
LINE
8
BLACK
6
CONTINUOUS
10
1.14315
20
0.981729
11
1.14806
21
0.98345
0
LINE
8
BLACK
6
CONTINUOUS
10
1.14806
20
0.98345
11
1.15133
21
0.98376
0
LINE
8
BLACK
6
CONTINUOUS
10
1.15133
20
0.98376
11
1.18725
21
0.98376
0
LINE
8
BLACK
6
CONTINUOUS
10
1.18725
20
0.98376
11
1.19053
21
0.98345
0
LINE
8
BLACK
6
CONTINUOUS
10
0.905559
20
1.05752
11
0.908113
21
1.05582
0
LINE
8
BLACK
6
CONTINUOUS
10
0.908113
20
1.05582
11
0.908451
21
1.05531
0
LINE
8
BLACK
6
CONTINUOUS
10
0.908451
20
1.05531
11
0.908789
21
1.05582
0
LINE
8
BLACK
6
CONTINUOUS
10
0.908789
20
1.05582
11
0.911343
21
1.05752
0
LINE
8
BLACK
6
CONTINUOUS
10
0.911343
20
1.05752
11
0.914357
21
1.05812
0
LINE
8
BLACK
6
CONTINUOUS
10
0.914357
20
1.05812
11
0.939947
21
1.05812
0
LINE
8
BLACK
6
CONTINUOUS
10
0.939947
20
1.05812
11
0.94296
21
1.05752
0
LINE
8
BLACK
6
CONTINUOUS
10
0.94296
20
1.05752
11
0.945515
21
1.05582
0
LINE
8
BLACK
6
CONTINUOUS
10
0.945515
20
1.05582
11
0.945853
21
1.05531
0
LINE
8
BLACK
6
CONTINUOUS
10
0.945853
20
1.05531
11
0.94619
21
1.05582
0
LINE
8
BLACK
6
CONTINUOUS
10
0.94619
20
1.05582
11
0.948745
21
1.05752
0
LINE
8
BLACK
6
CONTINUOUS
10
0.948745
20
1.05752
11
0.951758
21
1.05812
0
LINE
8
BLACK
6
CONTINUOUS
10
0.951758
20
1.05812
11
0.977349
21
1.05812
0
LINE
8
BLACK
6
CONTINUOUS
10
0.977349
20
1.05812
11
0.980362
21
1.05752
0
LINE
8
BLACK
6
CONTINUOUS
10
0.980362
20
1.05752
11
0.982917
21
1.05582
0
LINE
8
BLACK
6
CONTINUOUS
10
0.982917
20
1.05582
11
0.984623
21
1.05326
0
LINE
8
BLACK
6
CONTINUOUS
10
0.984623
20
1.05326
11
0.985223
21
1.05025
0
LINE
8
BLACK
6
CONTINUOUS
10
0.985223
20
1.05025
11
0.985223
21
1.00222
0
LINE
8
BLACK
6
CONTINUOUS
10
0.985223
20
1.00222
11
0.984623
21
0.999205
0
LINE
8
BLACK
6
CONTINUOUS
10
0.984623
20
0.999205
11
0.982917
21
0.996651
0
LINE
8
BLACK
6
CONTINUOUS
10
0.982917
20
0.996651
11
0.980362
21
0.994944
0
LINE
8
BLACK
6
CONTINUOUS
10
0.980362
20
0.994944
11
0.977349
21
0.994345
0
LINE
8
BLACK
6
CONTINUOUS
10
0.977349
20
0.994345
11
0.951758
21
0.994345
0
LINE
8
BLACK
6
CONTINUOUS
10
0.951758
20
0.994345
11
0.948745
21
0.994944
0
LINE
8
BLACK
6
CONTINUOUS
10
0.948745
20
0.994944
11
0.94619
21
0.996651
0
LINE
8
BLACK
6
CONTINUOUS
10
0.94619
20
0.996651
11
0.945853
21
0.997156
0
LINE
8
BLACK
6
CONTINUOUS
10
0.945853
20
0.997156
11
0.945515
21
0.996651
0
LINE
8
BLACK
6
CONTINUOUS
10
0.945515
20
0.996651
11
0.94296
21
0.994944
0
LINE
8
BLACK
6
CONTINUOUS
10
0.94296
20
0.994944
11
0.939947
21
0.994345
0
LINE
8
BLACK
6
CONTINUOUS
10
0.939947
20
0.994345
11
0.914357
21
0.994345
0
LINE
8
BLACK
6
CONTINUOUS
10
0.914357
20
0.994345
11
0.911343
21
0.994944
0
LINE
8
BLACK
6
CONTINUOUS
10
0.911343
20
0.994944
11
0.908789
21
0.996651
0
LINE
8
BLACK
6
CONTINUOUS
10
0.908789
20
0.996651
11
0.908451
21
0.997156
0
LINE
8
BLACK
6
CONTINUOUS
10
0.908451
20
0.997156
11
0.908113
21
0.996651
0
LINE
8
BLACK
6
CONTINUOUS
10
0.908113
20
0.996651
11
0.905559
21
0.994944
0
LINE
8
BLACK
6
CONTINUOUS
10
0.905559
20
0.994944
11
0.902546
21
0.994345
0
LINE
8
BLACK
6
CONTINUOUS
10
0.902546
20
0.994345
11
0.876955
21
0.994345
0
LINE
8
BLACK
6
CONTINUOUS
10
0.876955
20
0.994345
11
0.873942
21
0.994944
0
LINE
8
BLACK
6
CONTINUOUS
10
0.873942
20
0.994944
11
0.871387
21
0.996651
0
LINE
8
BLACK
6
CONTINUOUS
10
0.871387
20
0.996651
11
0.86968
21
0.999205
0
LINE
8
BLACK
6
CONTINUOUS
10
0.86968
20
0.999205
11
0.869081
21
1.00222
0
LINE
8
BLACK
6
CONTINUOUS
10
0.869081
20
1.00222
11
0.869081
21
1.05025
0
LINE
8
BLACK
6
CONTINUOUS
10
0.869081
20
1.05025
11
0.86968
21
1.05326
0
LINE
8
BLACK
6
CONTINUOUS
10
0.86968
20
1.05326
11
0.871387
21
1.05582
0
LINE
8
BLACK
6
CONTINUOUS
10
0.871387
20
1.05582
11
0.873942
21
1.05752
0
LINE
8
BLACK
6
CONTINUOUS
10
0.873942
20
1.05752
11
0.876955
21
1.05812
0
LINE
8
BLACK
6
CONTINUOUS
10
0.876955
20
1.05812
11
0.902546
21
1.05812
0
LINE
8
BLACK
6
CONTINUOUS
10
0.902546
20
1.05812
11
0.905559
21
1.05752
0
LINE
8
BLACK
6
CONTINUOUS
10
1.19053
20
1.05727
11
1.19543
21
1.05555
0
LINE
8
BLACK
6
CONTINUOUS
10
1.19543
20
1.05555
11
1.19961
21
1.05246
0
LINE
8
BLACK
6
CONTINUOUS
10
1.19961
20
1.05246
11
1.20269
21
1.04828
0
LINE
8
BLACK
6
CONTINUOUS
10
1.20269
20
1.04828
11
1.20441
21
1.04338
0
LINE
8
BLACK
6
CONTINUOUS
10
1.20441
20
1.04338
11
1.20472
21
1.04011
0
LINE
8
BLACK
6
CONTINUOUS
10
1.20472
20
1.04011
11
1.20472
21
1.02092
0
LINE
8
BLACK
6
CONTINUOUS
10
1.20472
20
1.02092
11
1.20441
21
1.01764
0
LINE
8
BLACK
6
CONTINUOUS
10
1.20441
20
1.01764
11
1.20269
21
1.01274
0
LINE
8
BLACK
6
CONTINUOUS
10
1.20269
20
1.01274
11
1.19961
21
1.00856
0
LINE
8
BLACK
6
CONTINUOUS
10
1.19961
20
1.00856
11
1.19543
21
1.00548
0
LINE
8
BLACK
6
CONTINUOUS
10
1.19543
20
1.00548
11
1.19053
21
1.00375
0
LINE
8
BLACK
6
CONTINUOUS
10
1.19053
20
1.00375
11
1.18725
21
1.00344
0
LINE
8
BLACK
6
CONTINUOUS
10
1.18725
20
1.00344
11
1.15133
21
1.00344
0
LINE
8
BLACK
6
CONTINUOUS
10
1.15133
20
1.00344
11
1.14806
21
1.00375
0
LINE
8
BLACK
6
CONTINUOUS
10
1.14806
20
1.00375
11
1.14315
21
1.00548
0
LINE
8
BLACK
6
CONTINUOUS
10
1.14315
20
1.00548
11
1.13898
21
1.00856
0
LINE
8
BLACK
6
CONTINUOUS
10
1.13898
20
1.00856
11
1.13589
21
1.01274
0
LINE
8
BLACK
6
CONTINUOUS
10
1.13589
20
1.01274
11
1.13417
21
1.01764
0
LINE
8
BLACK
6
CONTINUOUS
10
1.13417
20
1.01764
11
1.13386
21
1.02092
0
LINE
8
BLACK
6
CONTINUOUS
10
1.13386
20
1.02092
11
1.13386
21
1.04011
0
LINE
8
BLACK
6
CONTINUOUS
10
1.13386
20
1.04011
11
1.13417
21
1.04338
0
LINE
8
BLACK
6
CONTINUOUS
10
1.13417
20
1.04338
11
1.13589
21
1.04828
0
LINE
8
BLACK
6
CONTINUOUS
10
1.13589
20
1.04828
11
1.13898
21
1.05246
0
LINE
8
BLACK
6
CONTINUOUS
10
1.13898
20
1.05246
11
1.14315
21
1.05555
0
LINE
8
BLACK
6
CONTINUOUS
10
1.14315
20
1.05555
11
1.14806
21
1.05727
0
LINE
8
BLACK
6
CONTINUOUS
10
1.14806
20
1.05727
11
1.15133
21
1.05758
0
LINE
8
BLACK
6
CONTINUOUS
10
1.15133
20
1.05758
11
1.18725
21
1.05758
0
LINE
8
BLACK
6
CONTINUOUS
10
1.18725
20
1.05758
11
1.19053
21
1.05727
0
LINE
8
BLACK
6
CONTINUOUS
10
1.19053
20
1.11583
11
1.19543
21
1.11411
0
LINE
8
BLACK
6
CONTINUOUS
10
1.19543
20
1.11411
11
1.19961
21
1.11102
0
LINE
8
BLACK
6
CONTINUOUS
10
1.19961
20
1.11102
11
1.20269
21
1.10685
0
LINE
8
BLACK
6
CONTINUOUS
10
1.20269
20
1.10685
11
1.20441
21
1.10194
0
LINE
8
BLACK
6
CONTINUOUS
10
1.20441
20
1.10194
11
1.20472
21
1.09867
0
LINE
8
BLACK
6
CONTINUOUS
10
1.20472
20
1.09867
11
1.20472
21
1.07948
0
LINE
8
BLACK
6
CONTINUOUS
10
1.20472
20
1.07948
11
1.20441
21
1.0762
0
LINE
8
BLACK
6
CONTINUOUS
10
1.20441
20
1.0762
11
1.20269
21
1.0713
0
LINE
8
BLACK
6
CONTINUOUS
10
1.20269
20
1.0713
11
1.19961
21
1.06712
0
LINE
8
BLACK
6
CONTINUOUS
10
1.19961
20
1.06712
11
1.19543
21
1.06404
0
LINE
8
BLACK
6
CONTINUOUS
10
1.19543
20
1.06404
11
1.19053
21
1.06232
0
LINE
8
BLACK
6
CONTINUOUS
10
1.19053
20
1.06232
11
1.18725
21
1.06201
0
LINE
8
BLACK
6
CONTINUOUS
10
1.18725
20
1.06201
11
1.15133
21
1.06201
0
LINE
8
BLACK
6
CONTINUOUS
10
1.15133
20
1.06201
11
1.14806
21
1.06232
0
LINE
8
BLACK
6
CONTINUOUS
10
1.14806
20
1.06232
11
1.14315
21
1.06404
0
LINE
8
BLACK
6
CONTINUOUS
10
1.14315
20
1.06404
11
1.13898
21
1.06712
0
LINE
8
BLACK
6
CONTINUOUS
10
1.13898
20
1.06712
11
1.13589
21
1.0713
0
LINE
8
BLACK
6
CONTINUOUS
10
1.13589
20
1.0713
11
1.13417
21
1.0762
0
LINE
8
BLACK
6
CONTINUOUS
10
1.13417
20
1.0762
11
1.13386
21
1.07948
0
LINE
8
BLACK
6
CONTINUOUS
10
1.13386
20
1.07948
11
1.13386
21
1.09867
0
LINE
8
BLACK
6
CONTINUOUS
10
1.13386
20
1.09867
11
1.13417
21
1.10194
0
LINE
8
BLACK
6
CONTINUOUS
10
1.13417
20
1.10194
11
1.13589
21
1.10685
0
LINE
8
BLACK
6
CONTINUOUS
10
1.13589
20
1.10685
11
1.13898
21
1.11102
0
LINE
8
BLACK
6
CONTINUOUS
10
1.13898
20
1.11102
11
1.14315
21
1.11411
0
LINE
8
BLACK
6
CONTINUOUS
10
1.14315
20
1.11411
11
1.14806
21
1.11583
0
LINE
8
BLACK
6
CONTINUOUS
10
1.14806
20
1.11583
11
1.15133
21
1.11614
0
LINE
8
BLACK
6
CONTINUOUS
10
1.15133
20
1.11614
11
1.18725
21
1.11614
0
LINE
8
BLACK
6
CONTINUOUS
10
1.18725
20
1.11614
11
1.19053
21
1.11583
0
LINE
8
BLACK
6
CONTINUOUS
10
1.40706
20
1.13552
11
1.41196
21
1.1338
0
LINE
8
BLACK
6
CONTINUOUS
10
1.41196
20
1.1338
11
1.41614
21
1.13071
0
LINE
8
BLACK
6
CONTINUOUS
10
1.41614
20
1.13071
11
1.41923
21
1.12653
0
LINE
8
BLACK
6
CONTINUOUS
10
1.41923
20
1.12653
11
1.42095
21
1.12163
0
LINE
8
BLACK
6
CONTINUOUS
10
1.42095
20
1.12163
11
1.42126
21
1.11836
0
LINE
8
BLACK
6
CONTINUOUS
10
1.42126
20
1.11836
11
1.42126
21
1.09916
0
LINE
8
BLACK
6
CONTINUOUS
10
1.42126
20
1.09916
11
1.42095
21
1.09589
0
LINE
8
BLACK
6
CONTINUOUS
10
1.42095
20
1.09589
11
1.41923
21
1.09099
0
LINE
8
BLACK
6
CONTINUOUS
10
1.41923
20
1.09099
11
1.41614
21
1.08681
0
LINE
8
BLACK
6
CONTINUOUS
10
1.41614
20
1.08681
11
1.41196
21
1.08372
0
LINE
8
BLACK
6
CONTINUOUS
10
1.41196
20
1.08372
11
1.40706
21
1.082
0
LINE
8
BLACK
6
CONTINUOUS
10
1.40706
20
1.082
11
1.40379
21
1.08169
0
LINE
8
BLACK
6
CONTINUOUS
10
1.40379
20
1.08169
11
1.36786
21
1.08169
0
LINE
8
BLACK
6
CONTINUOUS
10
1.36786
20
1.08169
11
1.36459
21
1.082
0
LINE
8
BLACK
6
CONTINUOUS
10
1.36459
20
1.082
11
1.35969
21
1.08372
0
LINE
8
BLACK
6
CONTINUOUS
10
1.35969
20
1.08372
11
1.35551
21
1.08681
0
LINE
8
BLACK
6
CONTINUOUS
10
1.35551
20
1.08681
11
1.35242
21
1.09099
0
LINE
8
BLACK
6
CONTINUOUS
10
1.35242
20
1.09099
11
1.3507
21
1.09589
0
LINE
8
BLACK
6
CONTINUOUS
10
1.3507
20
1.09589
11
1.35039
21
1.09916
0
LINE
8
BLACK
6
CONTINUOUS
10
1.35039
20
1.09916
11
1.35039
21
1.11836
0
LINE
8
BLACK
6
CONTINUOUS
10
1.35039
20
1.11836
11
1.3507
21
1.12163
0
LINE
8
BLACK
6
CONTINUOUS
10
1.3507
20
1.12163
11
1.35242
21
1.12653
0
LINE
8
BLACK
6
CONTINUOUS
10
1.35242
20
1.12653
11
1.35551
21
1.13071
0
LINE
8
BLACK
6
CONTINUOUS
10
1.35551
20
1.13071
11
1.35969
21
1.1338
0
LINE
8
BLACK
6
CONTINUOUS
10
1.35969
20
1.1338
11
1.36459
21
1.13552
0
LINE
8
BLACK
6
CONTINUOUS
10
1.36459
20
1.13552
11
1.36786
21
1.13583
0
LINE
8
BLACK
6
CONTINUOUS
10
1.36786
20
1.13583
11
1.40379
21
1.13583
0
LINE
8
BLACK
6
CONTINUOUS
10
1.40379
20
1.13583
11
1.40706
21
1.13552
0
LINE
8
BLACK
6
CONTINUOUS
10
0.905559
20
1.16067
11
0.908113
21
1.15897
0
LINE
8
BLACK
6
CONTINUOUS
10
0.908113
20
1.15897
11
0.908451
21
1.15846
0
LINE
8
BLACK
6
CONTINUOUS
10
0.908451
20
1.15846
11
0.908789
21
1.15897
0
LINE
8
BLACK
6
CONTINUOUS
10
0.908789
20
1.15897
11
0.911343
21
1.16067
0
LINE
8
BLACK
6
CONTINUOUS
10
0.911343
20
1.16067
11
0.914357
21
1.16127
0
LINE
8
BLACK
6
CONTINUOUS
10
0.914357
20
1.16127
11
0.939947
21
1.16127
0
LINE
8
BLACK
6
CONTINUOUS
10
0.939947
20
1.16127
11
0.94296
21
1.16067
0
LINE
8
BLACK
6
CONTINUOUS
10
0.94296
20
1.16067
11
0.945515
21
1.15897
0
LINE
8
BLACK
6
CONTINUOUS
10
0.945515
20
1.15897
11
0.945853
21
1.15846
0
LINE
8
BLACK
6
CONTINUOUS
10
0.945853
20
1.15846
11
0.94619
21
1.15897
0
LINE
8
BLACK
6
CONTINUOUS
10
0.94619
20
1.15897
11
0.948745
21
1.16067
0
LINE
8
BLACK
6
CONTINUOUS
10
0.948745
20
1.16067
11
0.951758
21
1.16127
0
LINE
8
BLACK
6
CONTINUOUS
10
0.951758
20
1.16127
11
0.977349
21
1.16127
0
LINE
8
BLACK
6
CONTINUOUS
10
0.977349
20
1.16127
11
0.980362
21
1.16067
0
LINE
8
BLACK
6
CONTINUOUS
10
0.980362
20
1.16067
11
0.982917
21
1.15897
0
LINE
8
BLACK
6
CONTINUOUS
10
0.982917
20
1.15897
11
0.984623
21
1.15641
0
LINE
8
BLACK
6
CONTINUOUS
10
0.984623
20
1.15641
11
0.985223
21
1.1534
0
LINE
8
BLACK
6
CONTINUOUS
10
0.985223
20
1.1534
11
0.985223
21
1.10537
0
LINE
8
BLACK
6
CONTINUOUS
10
0.985223
20
1.10537
11
0.984623
21
1.10235
0
LINE
8
BLACK
6
CONTINUOUS
10
0.984623
20
1.10235
11
0.982917
21
1.0998
0
LINE
8
BLACK
6
CONTINUOUS
10
0.982917
20
1.0998
11
0.980362
21
1.09809
0
LINE
8
BLACK
6
CONTINUOUS
10
0.980362
20
1.09809
11
0.977349
21
1.09749
0
LINE
8
BLACK
6
CONTINUOUS
10
0.977349
20
1.09749
11
0.951758
21
1.09749
0
LINE
8
BLACK
6
CONTINUOUS
10
0.951758
20
1.09749
11
0.948745
21
1.09809
0
LINE
8
BLACK
6
CONTINUOUS
10
0.948745
20
1.09809
11
0.94619
21
1.0998
0
LINE
8
BLACK
6
CONTINUOUS
10
0.94619
20
1.0998
11
0.945853
21
1.10031
0
LINE
8
BLACK
6
CONTINUOUS
10
0.945853
20
1.10031
11
0.945515
21
1.0998
0
LINE
8
BLACK
6
CONTINUOUS
10
0.945515
20
1.0998
11
0.94296
21
1.09809
0
LINE
8
BLACK
6
CONTINUOUS
10
0.94296
20
1.09809
11
0.939947
21
1.09749
0
LINE
8
BLACK
6
CONTINUOUS
10
0.939947
20
1.09749
11
0.914357
21
1.09749
0
LINE
8
BLACK
6
CONTINUOUS
10
0.914357
20
1.09749
11
0.911343
21
1.09809
0
LINE
8
BLACK
6
CONTINUOUS
10
0.911343
20
1.09809
11
0.908789
21
1.0998
0
LINE
8
BLACK
6
CONTINUOUS
10
0.908789
20
1.0998
11
0.908451
21
1.10031
0
LINE
8
BLACK
6
CONTINUOUS
10
0.908451
20
1.10031
11
0.908113
21
1.0998
0
LINE
8
BLACK
6
CONTINUOUS
10
0.908113
20
1.0998
11
0.905559
21
1.09809
0
LINE
8
BLACK
6
CONTINUOUS
10
0.905559
20
1.09809
11
0.902546
21
1.09749
0
LINE
8
BLACK
6
CONTINUOUS
10
0.902546
20
1.09749
11
0.876955
21
1.09749
0
LINE
8
BLACK
6
CONTINUOUS
10
0.876955
20
1.09749
11
0.873942
21
1.09809
0
LINE
8
BLACK
6
CONTINUOUS
10
0.873942
20
1.09809
11
0.871387
21
1.0998
0
LINE
8
BLACK
6
CONTINUOUS
10
0.871387
20
1.0998
11
0.86968
21
1.10235
0
LINE
8
BLACK
6
CONTINUOUS
10
0.86968
20
1.10235
11
0.869081
21
1.10537
0
LINE
8
BLACK
6
CONTINUOUS
10
0.869081
20
1.10537
11
0.869081
21
1.1534
0
LINE
8
BLACK
6
CONTINUOUS
10
0.869081
20
1.1534
11
0.86968
21
1.15641
0
LINE
8
BLACK
6
CONTINUOUS
10
0.86968
20
1.15641
11
0.871387
21
1.15897
0
LINE
8
BLACK
6
CONTINUOUS
10
0.871387
20
1.15897
11
0.873942
21
1.16067
0
LINE
8
BLACK
6
CONTINUOUS
10
0.873942
20
1.16067
11
0.876955
21
1.16127
0
LINE
8
BLACK
6
CONTINUOUS
10
0.876955
20
1.16127
11
0.902546
21
1.16127
0
LINE
8
BLACK
6
CONTINUOUS
10
0.902546
20
1.16127
11
0.905559
21
1.16067
0
LINE
8
BLACK
6
CONTINUOUS
10
1.55667
20
1.17341
11
1.56157
21
1.17169
0
LINE
8
BLACK
6
CONTINUOUS
10
1.56157
20
1.17169
11
1.56575
21
1.1686
0
LINE
8
BLACK
6
CONTINUOUS
10
1.56575
20
1.1686
11
1.56884
21
1.16442
0
LINE
8
BLACK
6
CONTINUOUS
10
1.56884
20
1.16442
11
1.57056
21
1.15952
0
LINE
8
BLACK
6
CONTINUOUS
10
1.57056
20
1.15952
11
1.57087
21
1.15625
0
LINE
8
BLACK
6
CONTINUOUS
10
1.57087
20
1.15625
11
1.57087
21
1.13706
0
LINE
8
BLACK
6
CONTINUOUS
10
1.57087
20
1.13706
11
1.57056
21
1.13378
0
LINE
8
BLACK
6
CONTINUOUS
10
1.57056
20
1.13378
11
1.56884
21
1.12888
0
LINE
8
BLACK
6
CONTINUOUS
10
1.56884
20
1.12888
11
1.56575
21
1.1247
0
LINE
8
BLACK
6
CONTINUOUS
10
1.56575
20
1.1247
11
1.56157
21
1.12162
0
LINE
8
BLACK
6
CONTINUOUS
10
1.56157
20
1.12162
11
1.55667
21
1.1199
0
LINE
8
BLACK
6
CONTINUOUS
10
1.55667
20
1.1199
11
1.5534
21
1.11959
0
LINE
8
BLACK
6
CONTINUOUS
10
1.5534
20
1.11959
11
1.51747
21
1.11959
0
LINE
8
BLACK
6
CONTINUOUS
10
1.51747
20
1.11959
11
1.5142
21
1.1199
0
LINE
8
BLACK
6
CONTINUOUS
10
1.5142
20
1.1199
11
1.5093
21
1.12162
0
LINE
8
BLACK
6
CONTINUOUS
10
1.5093
20
1.12162
11
1.50512
21
1.1247
0
LINE
8
BLACK
6
CONTINUOUS
10
1.50512
20
1.1247
11
1.50203
21
1.12888
0
LINE
8
BLACK
6
CONTINUOUS
10
1.50203
20
1.12888
11
1.50031
21
1.13378
0
LINE
8
BLACK
6
CONTINUOUS
10
1.50031
20
1.13378
11
1.5
21
1.13706
0
LINE
8
BLACK
6
CONTINUOUS
10
1.5
20
1.13706
11
1.5
21
1.15625
0
LINE
8
BLACK
6
CONTINUOUS
10
1.5
20
1.15625
11
1.50031
21
1.15952
0
LINE
8
BLACK
6
CONTINUOUS
10
1.50031
20
1.15952
11
1.50203
21
1.16442
0
LINE
8
BLACK
6
CONTINUOUS
10
1.50203
20
1.16442
11
1.50512
21
1.1686
0
LINE
8
BLACK
6
CONTINUOUS
10
1.50512
20
1.1686
11
1.5093
21
1.17169
0
LINE
8
BLACK
6
CONTINUOUS
10
1.5093
20
1.17169
11
1.5142
21
1.17341
0
LINE
8
BLACK
6
CONTINUOUS
10
1.5142
20
1.17341
11
1.51747
21
1.17372
0
LINE
8
BLACK
6
CONTINUOUS
10
1.51747
20
1.17372
11
1.5534
21
1.17372
0
LINE
8
BLACK
6
CONTINUOUS
10
1.5534
20
1.17372
11
1.55667
21
1.17341
0
LINE
8
BLACK
6
CONTINUOUS
10
1.19053
20
1.18965
11
1.19543
21
1.18793
0
LINE
8
BLACK
6
CONTINUOUS
10
1.19543
20
1.18793
11
1.19961
21
1.18484
0
LINE
8
BLACK
6
CONTINUOUS
10
1.19961
20
1.18484
11
1.20269
21
1.18067
0
LINE
8
BLACK
6
CONTINUOUS
10
1.20269
20
1.18067
11
1.20441
21
1.17576
0
LINE
8
BLACK
6
CONTINUOUS
10
1.20441
20
1.17576
11
1.20472
21
1.17249
0
LINE
8
BLACK
6
CONTINUOUS
10
1.20472
20
1.17249
11
1.20472
21
1.1533
0
LINE
8
BLACK
6
CONTINUOUS
10
1.20472
20
1.1533
11
1.20441
21
1.15002
0
LINE
8
BLACK
6
CONTINUOUS
10
1.20441
20
1.15002
11
1.20269
21
1.14512
0
LINE
8
BLACK
6
CONTINUOUS
10
1.20269
20
1.14512
11
1.19961
21
1.14094
0
LINE
8
BLACK
6
CONTINUOUS
10
1.19961
20
1.14094
11
1.19543
21
1.13786
0
LINE
8
BLACK
6
CONTINUOUS
10
1.19543
20
1.13786
11
1.19053
21
1.13614
0
LINE
8
BLACK
6
CONTINUOUS
10
1.19053
20
1.13614
11
1.18725
21
1.13583
0
LINE
8
BLACK
6
CONTINUOUS
10
1.18725
20
1.13583
11
1.15133
21
1.13583
0
LINE
8
BLACK
6
CONTINUOUS
10
1.15133
20
1.13583
11
1.14806
21
1.13614
0
LINE
8
BLACK
6
CONTINUOUS
10
1.14806
20
1.13614
11
1.14315
21
1.13786
0
LINE
8
BLACK
6
CONTINUOUS
10
1.14315
20
1.13786
11
1.13898
21
1.14094
0
LINE
8
BLACK
6
CONTINUOUS
10
1.13898
20
1.14094
11
1.13589
21
1.14512
0
LINE
8
BLACK
6
CONTINUOUS
10
1.13589
20
1.14512
11
1.13417
21
1.15002
0
LINE
8
BLACK
6
CONTINUOUS
10
1.13417
20
1.15002
11
1.13386
21
1.1533
0
LINE
8
BLACK
6
CONTINUOUS
10
1.13386
20
1.1533
11
1.13386
21
1.17249
0
LINE
8
BLACK
6
CONTINUOUS
10
1.13386
20
1.17249
11
1.13417
21
1.17576
0
LINE
8
BLACK
6
CONTINUOUS
10
1.13417
20
1.17576
11
1.13589
21
1.18067
0
LINE
8
BLACK
6
CONTINUOUS
10
1.13589
20
1.18067
11
1.13898
21
1.18484
0
LINE
8
BLACK
6
CONTINUOUS
10
1.13898
20
1.18484
11
1.14315
21
1.18793
0
LINE
8
BLACK
6
CONTINUOUS
10
1.14315
20
1.18793
11
1.14806
21
1.18965
0
LINE
8
BLACK
6
CONTINUOUS
10
1.14806
20
1.18965
11
1.15133
21
1.18996
0
LINE
8
BLACK
6
CONTINUOUS
10
1.15133
20
1.18996
11
1.18725
21
1.18996
0
LINE
8
BLACK
6
CONTINUOUS
10
1.18725
20
1.18996
11
1.19053
21
1.18965
0
LINE
8
BLACK
6
CONTINUOUS
10
1.40706
20
1.20934
11
1.41196
21
1.20761
0
LINE
8
BLACK
6
CONTINUOUS
10
1.41196
20
1.20761
11
1.41614
21
1.20453
0
LINE
8
BLACK
6
CONTINUOUS
10
1.41614
20
1.20453
11
1.41923
21
1.20035
0
LINE
8
BLACK
6
CONTINUOUS
10
1.41923
20
1.20035
11
1.42095
21
1.19545
0
LINE
8
BLACK
6
CONTINUOUS
10
1.42095
20
1.19545
11
1.42126
21
1.19218
0
LINE
8
BLACK
6
CONTINUOUS
10
1.42126
20
1.19218
11
1.42126
21
1.17298
0
LINE
8
BLACK
6
CONTINUOUS
10
1.42126
20
1.17298
11
1.42095
21
1.16971
0
LINE
8
BLACK
6
CONTINUOUS
10
1.42095
20
1.16971
11
1.41923
21
1.16481
0
LINE
8
BLACK
6
CONTINUOUS
10
1.41923
20
1.16481
11
1.41614
21
1.16063
0
LINE
8
BLACK
6
CONTINUOUS
10
1.41614
20
1.16063
11
1.41196
21
1.15754
0
LINE
8
BLACK
6
CONTINUOUS
10
1.41196
20
1.15754
11
1.40706
21
1.15582
0
LINE
8
BLACK
6
CONTINUOUS
10
1.40706
20
1.15582
11
1.40379
21
1.15551
0
LINE
8
BLACK
6
CONTINUOUS
10
1.40379
20
1.15551
11
1.36786
21
1.15551
0
LINE
8
BLACK
6
CONTINUOUS
10
1.36786
20
1.15551
11
1.36459
21
1.15582
0
LINE
8
BLACK
6
CONTINUOUS
10
1.36459
20
1.15582
11
1.35969
21
1.15754
0
LINE
8
BLACK
6
CONTINUOUS
10
1.35969
20
1.15754
11
1.35551
21
1.16063
0
LINE
8
BLACK
6
CONTINUOUS
10
1.35551
20
1.16063
11
1.35242
21
1.16481
0
LINE
8
BLACK
6
CONTINUOUS
10
1.35242
20
1.16481
11
1.3507
21
1.16971
0
LINE
8
BLACK
6
CONTINUOUS
10
1.3507
20
1.16971
11
1.35039
21
1.17298
0
LINE
8
BLACK
6
CONTINUOUS
10
1.35039
20
1.17298
11
1.35039
21
1.19218
0
LINE
8
BLACK
6
CONTINUOUS
10
1.35039
20
1.19218
11
1.3507
21
1.19545
0
LINE
8
BLACK
6
CONTINUOUS
10
1.3507
20
1.19545
11
1.35242
21
1.20035
0
LINE
8
BLACK
6
CONTINUOUS
10
1.35242
20
1.20035
11
1.35551
21
1.20453
0
LINE
8
BLACK
6
CONTINUOUS
10
1.35551
20
1.20453
11
1.35969
21
1.20761
0
LINE
8
BLACK
6
CONTINUOUS
10
1.35969
20
1.20761
11
1.36459
21
1.20934
0
LINE
8
BLACK
6
CONTINUOUS
10
1.36459
20
1.20934
11
1.36786
21
1.20965
0
LINE
8
BLACK
6
CONTINUOUS
10
1.36786
20
1.20965
11
1.40379
21
1.20965
0
LINE
8
BLACK
6
CONTINUOUS
10
1.40379
20
1.20965
11
1.40706
21
1.20934
0
LINE
8
BLACK
6
CONTINUOUS
10
0.796827
20
1.22853
11
0.801728
21
1.22681
0
LINE
8
BLACK
6
CONTINUOUS
10
0.801728
20
1.22681
11
0.805907
21
1.22372
0
LINE
8
BLACK
6
CONTINUOUS
10
0.805907
20
1.22372
11
0.808993
21
1.21954
0
LINE
8
BLACK
6
CONTINUOUS
10
0.808993
20
1.21954
11
0.810714
21
1.21464
0
LINE
8
BLACK
6
CONTINUOUS
10
0.810714
20
1.21464
11
0.811024
21
1.21137
0
LINE
8
BLACK
6
CONTINUOUS
10
0.811024
20
1.21137
11
0.811024
21
1.19218
0
LINE
8
BLACK
6
CONTINUOUS
10
0.811024
20
1.19218
11
0.810714
21
1.1889
0
LINE
8
BLACK
6
CONTINUOUS
10
0.810714
20
1.1889
11
0.808993
21
1.184
0
LINE
8
BLACK
6
CONTINUOUS
10
0.808993
20
1.184
11
0.805907
21
1.17982
0
LINE
8
BLACK
6
CONTINUOUS
10
0.805907
20
1.17982
11
0.801728
21
1.17674
0
LINE
8
BLACK
6
CONTINUOUS
10
0.801728
20
1.17674
11
0.796827
21
1.17501
0
LINE
8
BLACK
6
CONTINUOUS
10
0.796827
20
1.17501
11
0.793553
21
1.1747
0
LINE
8
BLACK
6
CONTINUOUS
10
0.793553
20
1.1747
11
0.757628
21
1.1747
0
LINE
8
BLACK
6
CONTINUOUS
10
0.757628
20
1.1747
11
0.754354
21
1.17501
0
LINE
8
BLACK
6
CONTINUOUS
10
0.754354
20
1.17501
11
0.749453
21
1.17674
0
LINE
8
BLACK
6
CONTINUOUS
10
0.749453
20
1.17674
11
0.745274
21
1.17982
0
LINE
8
BLACK
6
CONTINUOUS
10
0.745274
20
1.17982
11
0.742188
21
1.184
0
LINE
8
BLACK
6
CONTINUOUS
10
0.742188
20
1.184
11
0.740467
21
1.1889
0
LINE
8
BLACK
6
CONTINUOUS
10
0.740467
20
1.1889
11
0.740157
21
1.19218
0
LINE
8
BLACK
6
CONTINUOUS
10
0.740157
20
1.19218
11
0.740157
21
1.21137
0
LINE
8
BLACK
6
CONTINUOUS
10
0.740157
20
1.21137
11
0.740467
21
1.21464
0
LINE
8
BLACK
6
CONTINUOUS
10
0.740467
20
1.21464
11
0.742188
21
1.21954
0
LINE
8
BLACK
6
CONTINUOUS
10
0.742188
20
1.21954
11
0.745274
21
1.22372
0
LINE
8
BLACK
6
CONTINUOUS
10
0.745274
20
1.22372
11
0.749453
21
1.22681
0
LINE
8
BLACK
6
CONTINUOUS
10
0.749453
20
1.22681
11
0.754354
21
1.22853
0
LINE
8
BLACK
6
CONTINUOUS
10
0.754354
20
1.22853
11
0.757628
21
1.22884
0
LINE
8
BLACK
6
CONTINUOUS
10
0.757628
20
1.22884
11
0.793553
21
1.22884
0
LINE
8
BLACK
6
CONTINUOUS
10
0.793553
20
1.22884
11
0.796827
21
1.22853
0
LINE
8
BLACK
6
CONTINUOUS
10
1.55667
20
1.24723
11
1.56157
21
1.24551
0
LINE
8
BLACK
6
CONTINUOUS
10
1.56157
20
1.24551
11
1.56575
21
1.24242
0
LINE
8
BLACK
6
CONTINUOUS
10
1.56575
20
1.24242
11
1.56884
21
1.23824
0
LINE
8
BLACK
6
CONTINUOUS
10
1.56884
20
1.23824
11
1.57056
21
1.23334
0
LINE
8
BLACK
6
CONTINUOUS
10
1.57056
20
1.23334
11
1.57087
21
1.23007
0
LINE
8
BLACK
6
CONTINUOUS
10
1.57087
20
1.23007
11
1.57087
21
1.21088
0
LINE
8
BLACK
6
CONTINUOUS
10
1.57087
20
1.21088
11
1.57056
21
1.2076
0
LINE
8
BLACK
6
CONTINUOUS
10
1.57056
20
1.2076
11
1.56884
21
1.2027
0
LINE
8
BLACK
6
CONTINUOUS
10
1.56884
20
1.2027
11
1.56575
21
1.19852
0
LINE
8
BLACK
6
CONTINUOUS
10
1.56575
20
1.19852
11
1.56157
21
1.19544
0
LINE
8
BLACK
6
CONTINUOUS
10
1.56157
20
1.19544
11
1.55667
21
1.19371
0
LINE
8
BLACK
6
CONTINUOUS
10
1.55667
20
1.19371
11
1.5534
21
1.19341
0
LINE
8
BLACK
6
CONTINUOUS
10
1.5534
20
1.19341
11
1.51747
21
1.19341
0
LINE
8
BLACK
6
CONTINUOUS
10
1.51747
20
1.19341
11
1.5142
21
1.19371
0
LINE
8
BLACK
6
CONTINUOUS
10
1.5142
20
1.19371
11
1.5093
21
1.19544
0
LINE
8
BLACK
6
CONTINUOUS
10
1.5093
20
1.19544
11
1.50512
21
1.19852
0
LINE
8
BLACK
6
CONTINUOUS
10
1.50512
20
1.19852
11
1.50203
21
1.2027
0
LINE
8
BLACK
6
CONTINUOUS
10
1.50203
20
1.2027
11
1.50031
21
1.2076
0
LINE
8
BLACK
6
CONTINUOUS
10
1.50031
20
1.2076
11
1.5
21
1.21088
0
LINE
8
BLACK
6
CONTINUOUS
10
1.5
20
1.21088
11
1.5
21
1.23007
0
LINE
8
BLACK
6
CONTINUOUS
10
1.5
20
1.23007
11
1.50031
21
1.23334
0
LINE
8
BLACK
6
CONTINUOUS
10
1.50031
20
1.23334
11
1.50203
21
1.23824
0
LINE
8
BLACK
6
CONTINUOUS
10
1.50203
20
1.23824
11
1.50512
21
1.24242
0
LINE
8
BLACK
6
CONTINUOUS
10
1.50512
20
1.24242
11
1.5093
21
1.24551
0
LINE
8
BLACK
6
CONTINUOUS
10
1.5093
20
1.24551
11
1.5142
21
1.24723
0
LINE
8
BLACK
6
CONTINUOUS
10
1.5142
20
1.24723
11
1.51747
21
1.24754
0
LINE
8
BLACK
6
CONTINUOUS
10
1.51747
20
1.24754
11
1.5534
21
1.24754
0
LINE
8
BLACK
6
CONTINUOUS
10
1.5534
20
1.24754
11
1.55667
21
1.24723
0
LINE
8
BLACK
6
CONTINUOUS
10
0.947895
20
1.41869
11
0.95045
21
1.41699
0
LINE
8
BLACK
6
CONTINUOUS
10
0.95045
20
1.41699
11
0.952157
21
1.41443
0
LINE
8
BLACK
6
CONTINUOUS
10
0.952157
20
1.41443
11
0.952756
21
1.41142
0
LINE
8
BLACK
6
CONTINUOUS
10
0.952756
20
1.41142
11
0.952756
21
1.21063
0
LINE
8
BLACK
6
CONTINUOUS
10
0.952756
20
1.21063
11
0.952157
21
1.20762
0
LINE
8
BLACK
6
CONTINUOUS
10
0.952157
20
1.20762
11
0.95045
21
1.20506
0
LINE
8
BLACK
6
CONTINUOUS
10
0.95045
20
1.20506
11
0.947895
21
1.20336
0
LINE
8
BLACK
6
CONTINUOUS
10
0.947895
20
1.20336
11
0.944882
21
1.20276
0
LINE
8
BLACK
6
CONTINUOUS
10
0.944882
20
1.20276
11
0.852362
21
1.20276
0
LINE
8
BLACK
6
CONTINUOUS
10
0.852362
20
1.20276
11
0.849349
21
1.20336
0
LINE
8
BLACK
6
CONTINUOUS
10
0.849349
20
1.20336
11
0.846794
21
1.20506
0
LINE
8
BLACK
6
CONTINUOUS
10
0.846794
20
1.20506
11
0.845088
21
1.20762
0
LINE
8
BLACK
6
CONTINUOUS
10
0.845088
20
1.20762
11
0.844488
21
1.21063
0
LINE
8
BLACK
6
CONTINUOUS
10
0.844488
20
1.21063
11
0.844488
21
1.41142
0
LINE
8
BLACK
6
CONTINUOUS
10
0.844488
20
1.41142
11
0.845088
21
1.41443
0
LINE
8
BLACK
6
CONTINUOUS
10
0.845088
20
1.41443
11
0.846794
21
1.41699
0
LINE
8
BLACK
6
CONTINUOUS
10
0.846794
20
1.41699
11
0.849349
21
1.41869
0
LINE
8
BLACK
6
CONTINUOUS
10
0.849349
20
1.41869
11
0.852362
21
1.41929
0
LINE
8
BLACK
6
CONTINUOUS
10
0.852362
20
1.41929
11
0.944882
21
1.41929
0
LINE
8
BLACK
6
CONTINUOUS
10
0.944882
20
1.41929
11
0.947895
21
1.41869
0
LINE
8
BLACK
6
CONTINUOUS
10
1.11128
20
1.41869
11
1.11384
21
1.41699
0
LINE
8
BLACK
6
CONTINUOUS
10
1.11384
20
1.41699
11
1.11554
21
1.41443
0
LINE
8
BLACK
6
CONTINUOUS
10
1.11554
20
1.41443
11
1.11614
21
1.41142
0
LINE
8
BLACK
6
CONTINUOUS
10
1.11614
20
1.41142
11
1.11614
21
1.21063
0
LINE
8
BLACK
6
CONTINUOUS
10
1.11614
20
1.21063
11
1.11554
21
1.20762
0
LINE
8
BLACK
6
CONTINUOUS
10
1.11554
20
1.20762
11
1.11384
21
1.20506
0
LINE
8
BLACK
6
CONTINUOUS
10
1.11384
20
1.20506
11
1.11128
21
1.20336
0
LINE
8
BLACK
6
CONTINUOUS
10
1.11128
20
1.20336
11
1.10827
21
1.20276
0
LINE
8
BLACK
6
CONTINUOUS
10
1.10827
20
1.20276
11
1.01575
21
1.20276
0
LINE
8
BLACK
6
CONTINUOUS
10
1.01575
20
1.20276
11
1.01273
21
1.20336
0
LINE
8
BLACK
6
CONTINUOUS
10
1.01273
20
1.20336
11
1.01018
21
1.20506
0
LINE
8
BLACK
6
CONTINUOUS
10
1.01018
20
1.20506
11
1.00847
21
1.20762
0
LINE
8
BLACK
6
CONTINUOUS
10
1.00847
20
1.20762
11
1.00787
21
1.21063
0
LINE
8
BLACK
6
CONTINUOUS
10
1.00787
20
1.21063
11
1.00787
21
1.41142
0
LINE
8
BLACK
6
CONTINUOUS
10
1.00787
20
1.41142
11
1.00847
21
1.41443
0
LINE
8
BLACK
6
CONTINUOUS
10
1.00847
20
1.41443
11
1.01018
21
1.41699
0
LINE
8
BLACK
6
CONTINUOUS
10
1.01018
20
1.41699
11
1.01273
21
1.41869
0
LINE
8
BLACK
6
CONTINUOUS
10
1.01273
20
1.41869
11
1.01575
21
1.41929
0
LINE
8
BLACK
6
CONTINUOUS
10
1.01575
20
1.41929
11
1.10827
21
1.41929
0
LINE
8
BLACK
6
CONTINUOUS
10
1.10827
20
1.41929
11
1.11128
21
1.41869
0
LINE
8
BLACK
6
CONTINUOUS
10
0.796827
20
1.30235
11
0.801728
21
1.30063
0
LINE
8
BLACK
6
CONTINUOUS
10
0.801728
20
1.30063
11
0.805907
21
1.29754
0
LINE
8
BLACK
6
CONTINUOUS
10
0.805907
20
1.29754
11
0.808993
21
1.29336
0
LINE
8
BLACK
6
CONTINUOUS
10
0.808993
20
1.29336
11
0.810714
21
1.28846
0
LINE
8
BLACK
6
CONTINUOUS
10
0.810714
20
1.28846
11
0.811024
21
1.28519
0
LINE
8
BLACK
6
CONTINUOUS
10
0.811024
20
1.28519
11
0.811024
21
1.26599
0
LINE
8
BLACK
6
CONTINUOUS
10
0.811024
20
1.26599
11
0.810714
21
1.26272
0
LINE
8
BLACK
6
CONTINUOUS
10
0.810714
20
1.26272
11
0.808993
21
1.25782
0
LINE
8
BLACK
6
CONTINUOUS
10
0.808993
20
1.25782
11
0.805907
21
1.25364
0
LINE
8
BLACK
6
CONTINUOUS
10
0.805907
20
1.25364
11
0.801728
21
1.25055
0
LINE
8
BLACK
6
CONTINUOUS
10
0.801728
20
1.25055
11
0.796827
21
1.24883
0
LINE
8
BLACK
6
CONTINUOUS
10
0.796827
20
1.24883
11
0.793553
21
1.24852
0
LINE
8
BLACK
6
CONTINUOUS
10
0.793553
20
1.24852
11
0.757628
21
1.24852
0
LINE
8
BLACK
6
CONTINUOUS
10
0.757628
20
1.24852
11
0.754354
21
1.24883
0
LINE
8
BLACK
6
CONTINUOUS
10
0.754354
20
1.24883
11
0.749453
21
1.25055
0
LINE
8
BLACK
6
CONTINUOUS
10
0.749453
20
1.25055
11
0.745274
21
1.25364
0
LINE
8
BLACK
6
CONTINUOUS
10
0.745274
20
1.25364
11
0.742188
21
1.25782
0
LINE
8
BLACK
6
CONTINUOUS
10
0.742188
20
1.25782
11
0.740467
21
1.26272
0
LINE
8
BLACK
6
CONTINUOUS
10
0.740467
20
1.26272
11
0.740157
21
1.26599
0
LINE
8
BLACK
6
CONTINUOUS
10
0.740157
20
1.26599
11
0.740157
21
1.28519
0
LINE
8
BLACK
6
CONTINUOUS
10
0.740157
20
1.28519
11
0.740467
21
1.28846
0
LINE
8
BLACK
6
CONTINUOUS
10
0.740467
20
1.28846
11
0.742188
21
1.29336
0
LINE
8
BLACK
6
CONTINUOUS
10
0.742188
20
1.29336
11
0.745274
21
1.29754
0
LINE
8
BLACK
6
CONTINUOUS
10
0.745274
20
1.29754
11
0.749453
21
1.30063
0
LINE
8
BLACK
6
CONTINUOUS
10
0.749453
20
1.30063
11
0.754354
21
1.30235
0
LINE
8
BLACK
6
CONTINUOUS
10
0.754354
20
1.30235
11
0.757628
21
1.30266
0
LINE
8
BLACK
6
CONTINUOUS
10
0.757628
20
1.30266
11
0.793553
21
1.30266
0
LINE
8
BLACK
6
CONTINUOUS
10
0.793553
20
1.30266
11
0.796827
21
1.30235
0
LINE
8
BLACK
6
CONTINUOUS
10
1.26089
20
1.35373
11
1.26344
21
1.35202
0
LINE
8
BLACK
6
CONTINUOUS
10
1.26344
20
1.35202
11
1.26515
21
1.34947
0
LINE
8
BLACK
6
CONTINUOUS
10
1.26515
20
1.34947
11
1.26575
21
1.34646
0
LINE
8
BLACK
6
CONTINUOUS
10
1.26575
20
1.34646
11
1.26575
21
1.27559
0
LINE
8
BLACK
6
CONTINUOUS
10
1.26575
20
1.27559
11
1.26515
21
1.27258
0
LINE
8
BLACK
6
CONTINUOUS
10
1.26515
20
1.27258
11
1.26344
21
1.27002
0
LINE
8
BLACK
6
CONTINUOUS
10
1.26344
20
1.27002
11
1.26089
21
1.26832
0
LINE
8
BLACK
6
CONTINUOUS
10
1.26089
20
1.26832
11
1.25787
21
1.26772
0
LINE
8
BLACK
6
CONTINUOUS
10
1.25787
20
1.26772
11
1.15945
21
1.26772
0
LINE
8
BLACK
6
CONTINUOUS
10
1.15945
20
1.26772
11
1.15644
21
1.26832
0
LINE
8
BLACK
6
CONTINUOUS
10
1.15644
20
1.26832
11
1.15388
21
1.27002
0
LINE
8
BLACK
6
CONTINUOUS
10
1.15388
20
1.27002
11
1.15217
21
1.27258
0
LINE
8
BLACK
6
CONTINUOUS
10
1.15217
20
1.27258
11
1.15157
21
1.27559
0
LINE
8
BLACK
6
CONTINUOUS
10
1.15157
20
1.27559
11
1.15157
21
1.34646
0
LINE
8
BLACK
6
CONTINUOUS
10
1.15157
20
1.34646
11
1.15217
21
1.34947
0
LINE
8
BLACK
6
CONTINUOUS
10
1.15217
20
1.34947
11
1.15388
21
1.35202
0
LINE
8
BLACK
6
CONTINUOUS
10
1.15388
20
1.35202
11
1.15644
21
1.35373
0
LINE
8
BLACK
6
CONTINUOUS
10
1.15644
20
1.35373
11
1.15945
21
1.35433
0
LINE
8
BLACK
6
CONTINUOUS
10
1.15945
20
1.35433
11
1.25787
21
1.35433
0
LINE
8
BLACK
6
CONTINUOUS
10
1.25787
20
1.35433
11
1.26089
21
1.35373
0
LINE
8
BLACK
6
CONTINUOUS
10
1.41837
20
1.35373
11
1.42092
21
1.35202
0
LINE
8
BLACK
6
CONTINUOUS
10
1.42092
20
1.35202
11
1.42263
21
1.34947
0
LINE
8
BLACK
6
CONTINUOUS
10
1.42263
20
1.34947
11
1.42323
21
1.34646
0
LINE
8
BLACK
6
CONTINUOUS
10
1.42323
20
1.34646
11
1.42323
21
1.27559
0
LINE
8
BLACK
6
CONTINUOUS
10
1.42323
20
1.27559
11
1.42263
21
1.27258
0
LINE
8
BLACK
6
CONTINUOUS
10
1.42263
20
1.27258
11
1.42092
21
1.27002
0
LINE
8
BLACK
6
CONTINUOUS
10
1.42092
20
1.27002
11
1.41837
21
1.26832
0
LINE
8
BLACK
6
CONTINUOUS
10
1.41837
20
1.26832
11
1.41535
21
1.26772
0
LINE
8
BLACK
6
CONTINUOUS
10
1.41535
20
1.26772
11
1.31693
21
1.26772
0
LINE
8
BLACK
6
CONTINUOUS
10
1.31693
20
1.26772
11
1.31392
21
1.26832
0
LINE
8
BLACK
6
CONTINUOUS
10
1.31392
20
1.26832
11
1.31136
21
1.27002
0
LINE
8
BLACK
6
CONTINUOUS
10
1.31136
20
1.27002
11
1.30965
21
1.27258
0
LINE
8
BLACK
6
CONTINUOUS
10
1.30965
20
1.27258
11
1.30906
21
1.27559
0
LINE
8
BLACK
6
CONTINUOUS
10
1.30906
20
1.27559
11
1.30906
21
1.34646
0
LINE
8
BLACK
6
CONTINUOUS
10
1.30906
20
1.34646
11
1.30965
21
1.34947
0
LINE
8
BLACK
6
CONTINUOUS
10
1.30965
20
1.34947
11
1.31136
21
1.35202
0
LINE
8
BLACK
6
CONTINUOUS
10
1.31136
20
1.35202
11
1.31392
21
1.35373
0
LINE
8
BLACK
6
CONTINUOUS
10
1.31392
20
1.35373
11
1.31693
21
1.35433
0
LINE
8
BLACK
6
CONTINUOUS
10
1.31693
20
1.35433
11
1.41535
21
1.35433
0
LINE
8
BLACK
6
CONTINUOUS
10
1.41535
20
1.35433
11
1.41837
21
1.35373
0
LINE
8
BLACK
6
CONTINUOUS
10
1.54437
20
1.34615
11
1.54927
21
1.34443
0
LINE
8
BLACK
6
CONTINUOUS
10
1.54927
20
1.34443
11
1.55345
21
1.34134
0
LINE
8
BLACK
6
CONTINUOUS
10
1.55345
20
1.34134
11
1.55653
21
1.33716
0
LINE
8
BLACK
6
CONTINUOUS
10
1.55653
20
1.33716
11
1.55825
21
1.33226
0
LINE
8
BLACK
6
CONTINUOUS
10
1.55825
20
1.33226
11
1.55856
21
1.32899
0
LINE
8
BLACK
6
CONTINUOUS
10
1.55856
20
1.32899
11
1.55856
21
1.29306
0
LINE
8
BLACK
6
CONTINUOUS
10
1.55856
20
1.29306
11
1.55825
21
1.28979
0
LINE
8
BLACK
6
CONTINUOUS
10
1.55825
20
1.28979
11
1.55653
21
1.28489
0
LINE
8
BLACK
6
CONTINUOUS
10
1.55653
20
1.28489
11
1.55345
21
1.28071
0
LINE
8
BLACK
6
CONTINUOUS
10
1.55345
20
1.28071
11
1.54927
21
1.27762
0
LINE
8
BLACK
6
CONTINUOUS
10
1.54927
20
1.27762
11
1.54437
21
1.2759
0
LINE
8
BLACK
6
CONTINUOUS
10
1.54437
20
1.2759
11
1.54109
21
1.27559
0
LINE
8
BLACK
6
CONTINUOUS
10
1.54109
20
1.27559
11
1.5219
21
1.27559
0
LINE
8
BLACK
6
CONTINUOUS
10
1.5219
20
1.27559
11
1.51863
21
1.2759
0
LINE
8
BLACK
6
CONTINUOUS
10
1.51863
20
1.2759
11
1.51372
21
1.27762
0
LINE
8
BLACK
6
CONTINUOUS
10
1.51372
20
1.27762
11
1.50955
21
1.28071
0
LINE
8
BLACK
6
CONTINUOUS
10
1.50955
20
1.28071
11
1.50646
21
1.28489
0
LINE
8
BLACK
6
CONTINUOUS
10
1.50646
20
1.28489
11
1.50474
21
1.28979
0
LINE
8
BLACK
6
CONTINUOUS
10
1.50474
20
1.28979
11
1.50443
21
1.29306
0
LINE
8
BLACK
6
CONTINUOUS
10
1.50443
20
1.29306
11
1.50443
21
1.32899
0
LINE
8
BLACK
6
CONTINUOUS
10
1.50443
20
1.32899
11
1.50474
21
1.33226
0
LINE
8
BLACK
6
CONTINUOUS
10
1.50474
20
1.33226
11
1.50646
21
1.33716
0
LINE
8
BLACK
6
CONTINUOUS
10
1.50646
20
1.33716
11
1.50955
21
1.34134
0
LINE
8
BLACK
6
CONTINUOUS
10
1.50955
20
1.34134
11
1.51372
21
1.34443
0
LINE
8
BLACK
6
CONTINUOUS
10
1.51372
20
1.34443
11
1.51863
21
1.34615
0
LINE
8
BLACK
6
CONTINUOUS
10
1.51863
20
1.34615
11
1.5219
21
1.34646
0
LINE
8
BLACK
6
CONTINUOUS
10
1.5219
20
1.34646
11
1.54109
21
1.34646
0
LINE
8
BLACK
6
CONTINUOUS
10
1.54109
20
1.34646
11
1.54437
21
1.34615
0
LINE
8
BLACK
6
CONTINUOUS
10
1.47055
20
1.34615
11
1.47545
21
1.34443
0
LINE
8
BLACK
6
CONTINUOUS
10
1.47545
20
1.34443
11
1.47963
21
1.34134
0
LINE
8
BLACK
6
CONTINUOUS
10
1.47963
20
1.34134
11
1.48271
21
1.33716
0
LINE
8
BLACK
6
CONTINUOUS
10
1.48271
20
1.33716
11
1.48443
21
1.33226
0
LINE
8
BLACK
6
CONTINUOUS
10
1.48443
20
1.33226
11
1.48474
21
1.32899
0
LINE
8
BLACK
6
CONTINUOUS
10
1.48474
20
1.32899
11
1.48474
21
1.29306
0
LINE
8
BLACK
6
CONTINUOUS
10
1.48474
20
1.29306
11
1.48443
21
1.28979
0
LINE
8
BLACK
6
CONTINUOUS
10
1.48443
20
1.28979
11
1.48271
21
1.28489
0
LINE
8
BLACK
6
CONTINUOUS
10
1.48271
20
1.28489
11
1.47963
21
1.28071
0
LINE
8
BLACK
6
CONTINUOUS
10
1.47963
20
1.28071
11
1.47545
21
1.27762
0
LINE
8
BLACK
6
CONTINUOUS
10
1.47545
20
1.27762
11
1.47055
21
1.2759
0
LINE
8
BLACK
6
CONTINUOUS
10
1.47055
20
1.2759
11
1.46727
21
1.27559
0
LINE
8
BLACK
6
CONTINUOUS
10
1.46727
20
1.27559
11
1.44808
21
1.27559
0
LINE
8
BLACK
6
CONTINUOUS
10
1.44808
20
1.27559
11
1.44481
21
1.2759
0
LINE
8
BLACK
6
CONTINUOUS
10
1.44481
20
1.2759
11
1.43991
21
1.27762
0
LINE
8
BLACK
6
CONTINUOUS
10
1.43991
20
1.27762
11
1.43573
21
1.28071
0
LINE
8
BLACK
6
CONTINUOUS
10
1.43573
20
1.28071
11
1.43264
21
1.28489
0
LINE
8
BLACK
6
CONTINUOUS
10
1.43264
20
1.28489
11
1.43092
21
1.28979
0
LINE
8
BLACK
6
CONTINUOUS
10
1.43092
20
1.28979
11
1.43061
21
1.29306
0
LINE
8
BLACK
6
CONTINUOUS
10
1.43061
20
1.29306
11
1.43061
21
1.32899
0
LINE
8
BLACK
6
CONTINUOUS
10
1.43061
20
1.32899
11
1.43092
21
1.33226
0
LINE
8
BLACK
6
CONTINUOUS
10
1.43092
20
1.33226
11
1.43264
21
1.33716
0
LINE
8
BLACK
6
CONTINUOUS
10
1.43264
20
1.33716
11
1.43573
21
1.34134
0
LINE
8
BLACK
6
CONTINUOUS
10
1.43573
20
1.34134
11
1.43991
21
1.34443
0
LINE
8
BLACK
6
CONTINUOUS
10
1.43991
20
1.34443
11
1.44481
21
1.34615
0
LINE
8
BLACK
6
CONTINUOUS
10
1.44481
20
1.34615
11
1.44808
21
1.34646
0
LINE
8
BLACK
6
CONTINUOUS
10
1.44808
20
1.34646
11
1.46727
21
1.34646
0
LINE
8
BLACK
6
CONTINUOUS
10
1.46727
20
1.34646
11
1.47055
21
1.34615
0
LINE
8
BLACK
6
CONTINUOUS
10
1.52517
20
1.6301
11
1.53007
21
1.62838
0
LINE
8
BLACK
6
CONTINUOUS
10
1.53007
20
1.62838
11
1.53425
21
1.6253
0
LINE
8
BLACK
6
CONTINUOUS
10
1.53425
20
1.6253
11
1.53734
21
1.62112
0
LINE
8
BLACK
6
CONTINUOUS
10
1.53734
20
1.62112
11
1.53906
21
1.61622
0
LINE
8
BLACK
6
CONTINUOUS
10
1.53906
20
1.61622
11
1.53937
21
1.61294
0
LINE
8
BLACK
6
CONTINUOUS
10
1.53937
20
1.61294
11
1.53937
21
1.59375
0
LINE
8
BLACK
6
CONTINUOUS
10
1.53937
20
1.59375
11
1.53906
21
1.59048
0
LINE
8
BLACK
6
CONTINUOUS
10
1.53906
20
1.59048
11
1.53734
21
1.58558
0
LINE
8
BLACK
6
CONTINUOUS
10
1.53734
20
1.58558
11
1.53425
21
1.5814
0
LINE
8
BLACK
6
CONTINUOUS
10
1.53425
20
1.5814
11
1.53007
21
1.57831
0
LINE
8
BLACK
6
CONTINUOUS
10
1.53007
20
1.57831
11
1.52517
21
1.57659
0
LINE
8
BLACK
6
CONTINUOUS
10
1.52517
20
1.57659
11
1.5219
21
1.57628
0
LINE
8
BLACK
6
CONTINUOUS
10
1.5219
20
1.57628
11
1.48597
21
1.57628
0
LINE
8
BLACK
6
CONTINUOUS
10
1.48597
20
1.57628
11
1.4827
21
1.57659
0
LINE
8
BLACK
6
CONTINUOUS
10
1.4827
20
1.57659
11
1.4778
21
1.57831
0
LINE
8
BLACK
6
CONTINUOUS
10
1.4778
20
1.57831
11
1.47362
21
1.5814
0
LINE
8
BLACK
6
CONTINUOUS
10
1.47362
20
1.5814
11
1.47053
21
1.58558
0
LINE
8
BLACK
6
CONTINUOUS
10
1.47053
20
1.58558
11
1.46881
21
1.59048
0
LINE
8
BLACK
6
CONTINUOUS
10
1.46881
20
1.59048
11
1.4685
21
1.59375
0
LINE
8
BLACK
6
CONTINUOUS
10
1.4685
20
1.59375
11
1.4685
21
1.61294
0
LINE
8
BLACK
6
CONTINUOUS
10
1.4685
20
1.61294
11
1.46881
21
1.61622
0
LINE
8
BLACK
6
CONTINUOUS
10
1.46881
20
1.61622
11
1.47053
21
1.62112
0
LINE
8
BLACK
6
CONTINUOUS
10
1.47053
20
1.62112
11
1.47362
21
1.6253
0
LINE
8
BLACK
6
CONTINUOUS
10
1.47362
20
1.6253
11
1.4778
21
1.62838
0
LINE
8
BLACK
6
CONTINUOUS
10
1.4778
20
1.62838
11
1.4827
21
1.6301
0
LINE
8
BLACK
6
CONTINUOUS
10
1.4827
20
1.6301
11
1.48597
21
1.63041
0
LINE
8
BLACK
6
CONTINUOUS
10
1.48597
20
1.63041
11
1.5219
21
1.63041
0
LINE
8
BLACK
6
CONTINUOUS
10
1.5219
20
1.63041
11
1.52517
21
1.6301
0
LINE
8
BLACK
6
CONTINUOUS
10
1.69446
20
1.63158
11
1.69937
21
1.62986
0
LINE
8
BLACK
6
CONTINUOUS
10
1.69937
20
1.62986
11
1.70354
21
1.62677
0
LINE
8
BLACK
6
CONTINUOUS
10
1.70354
20
1.62677
11
1.70663
21
1.62259
0
LINE
8
BLACK
6
CONTINUOUS
10
1.70663
20
1.62259
11
1.70835
21
1.61769
0
LINE
8
BLACK
6
CONTINUOUS
10
1.70835
20
1.61769
11
1.70866
21
1.61442
0
LINE
8
BLACK
6
CONTINUOUS
10
1.70866
20
1.61442
11
1.70866
21
1.59523
0
LINE
8
BLACK
6
CONTINUOUS
10
1.70866
20
1.59523
11
1.70835
21
1.59195
0
LINE
8
BLACK
6
CONTINUOUS
10
1.70835
20
1.59195
11
1.70663
21
1.58705
0
LINE
8
BLACK
6
CONTINUOUS
10
1.70663
20
1.58705
11
1.70354
21
1.58287
0
LINE
8
BLACK
6
CONTINUOUS
10
1.70354
20
1.58287
11
1.69937
21
1.57979
0
LINE
8
BLACK
6
CONTINUOUS
10
1.69937
20
1.57979
11
1.69446
21
1.57807
0
LINE
8
BLACK
6
CONTINUOUS
10
1.69446
20
1.57807
11
1.69119
21
1.57776
0
LINE
8
BLACK
6
CONTINUOUS
10
1.69119
20
1.57776
11
1.65527
21
1.57776
0
LINE
8
BLACK
6
CONTINUOUS
10
1.65527
20
1.57776
11
1.65199
21
1.57807
0
LINE
8
BLACK
6
CONTINUOUS
10
1.65199
20
1.57807
11
1.64709
21
1.57979
0
LINE
8
BLACK
6
CONTINUOUS
10
1.64709
20
1.57979
11
1.64291
21
1.58287
0
LINE
8
BLACK
6
CONTINUOUS
10
1.64291
20
1.58287
11
1.63983
21
1.58705
0
LINE
8
BLACK
6
CONTINUOUS
10
1.63983
20
1.58705
11
1.6381
21
1.59195
0
LINE
8
BLACK
6
CONTINUOUS
10
1.6381
20
1.59195
11
1.6378
21
1.59523
0
LINE
8
BLACK
6
CONTINUOUS
10
1.6378
20
1.59523
11
1.6378
21
1.61442
0
LINE
8
BLACK
6
CONTINUOUS
10
1.6378
20
1.61442
11
1.6381
21
1.61769
0
LINE
8
BLACK
6
CONTINUOUS
10
1.6381
20
1.61769
11
1.63983
21
1.62259
0
LINE
8
BLACK
6
CONTINUOUS
10
1.63983
20
1.62259
11
1.64291
21
1.62677
0
LINE
8
BLACK
6
CONTINUOUS
10
1.64291
20
1.62677
11
1.64709
21
1.62986
0
LINE
8
BLACK
6
CONTINUOUS
10
1.64709
20
1.62986
11
1.65199
21
1.63158
0
LINE
8
BLACK
6
CONTINUOUS
10
1.65199
20
1.63158
11
1.65527
21
1.63189
0
LINE
8
BLACK
6
CONTINUOUS
10
1.65527
20
1.63189
11
1.69119
21
1.63189
0
LINE
8
BLACK
6
CONTINUOUS
10
1.69119
20
1.63189
11
1.69446
21
1.63158
0
LINE
8
BLACK
6
CONTINUOUS
10
1.52517
20
1.70392
11
1.53007
21
1.7022
0
LINE
8
BLACK
6
CONTINUOUS
10
1.53007
20
1.7022
11
1.53425
21
1.69912
0
LINE
8
BLACK
6
CONTINUOUS
10
1.53425
20
1.69912
11
1.53734
21
1.69494
0
LINE
8
BLACK
6
CONTINUOUS
10
1.53734
20
1.69494
11
1.53906
21
1.69004
0
LINE
8
BLACK
6
CONTINUOUS
10
1.53906
20
1.69004
11
1.53937
21
1.68676
0
LINE
8
BLACK
6
CONTINUOUS
10
1.53937
20
1.68676
11
1.53937
21
1.66757
0
LINE
8
BLACK
6
CONTINUOUS
10
1.53937
20
1.66757
11
1.53906
21
1.6643
0
LINE
8
BLACK
6
CONTINUOUS
10
1.53906
20
1.6643
11
1.53734
21
1.65939
0
LINE
8
BLACK
6
CONTINUOUS
10
1.53734
20
1.65939
11
1.53425
21
1.65522
0
LINE
8
BLACK
6
CONTINUOUS
10
1.53425
20
1.65522
11
1.53007
21
1.65213
0
LINE
8
BLACK
6
CONTINUOUS
10
1.53007
20
1.65213
11
1.52517
21
1.65041
0
LINE
8
BLACK
6
CONTINUOUS
10
1.52517
20
1.65041
11
1.5219
21
1.6501
0
LINE
8
BLACK
6
CONTINUOUS
10
1.5219
20
1.6501
11
1.48597
21
1.6501
0
LINE
8
BLACK
6
CONTINUOUS
10
1.48597
20
1.6501
11
1.4827
21
1.65041
0
LINE
8
BLACK
6
CONTINUOUS
10
1.4827
20
1.65041
11
1.4778
21
1.65213
0
LINE
8
BLACK
6
CONTINUOUS
10
1.4778
20
1.65213
11
1.47362
21
1.65522
0
LINE
8
BLACK
6
CONTINUOUS
10
1.47362
20
1.65522
11
1.47053
21
1.65939
0
LINE
8
BLACK
6
CONTINUOUS
10
1.47053
20
1.65939
11
1.46881
21
1.6643
0
LINE
8
BLACK
6
CONTINUOUS
10
1.46881
20
1.6643
11
1.4685
21
1.66757
0
LINE
8
BLACK
6
CONTINUOUS
10
1.4685
20
1.66757
11
1.4685
21
1.68676
0
LINE
8
BLACK
6
CONTINUOUS
10
1.4685
20
1.68676
11
1.46881
21
1.69004
0
LINE
8
BLACK
6
CONTINUOUS
10
1.46881
20
1.69004
11
1.47053
21
1.69494
0
LINE
8
BLACK
6
CONTINUOUS
10
1.47053
20
1.69494
11
1.47362
21
1.69912
0
LINE
8
BLACK
6
CONTINUOUS
10
1.47362
20
1.69912
11
1.4778
21
1.7022
0
LINE
8
BLACK
6
CONTINUOUS
10
1.4778
20
1.7022
11
1.4827
21
1.70392
0
LINE
8
BLACK
6
CONTINUOUS
10
1.4827
20
1.70392
11
1.48597
21
1.70423
0
LINE
8
BLACK
6
CONTINUOUS
10
1.48597
20
1.70423
11
1.5219
21
1.70423
0
LINE
8
BLACK
6
CONTINUOUS
10
1.5219
20
1.70423
11
1.52517
21
1.70392
0
LINE
8
BLACK
6
CONTINUOUS
10
1.69446
20
1.7054
11
1.69937
21
1.70368
0
LINE
8
BLACK
6
CONTINUOUS
10
1.69937
20
1.70368
11
1.70354
21
1.70059
0
LINE
8
BLACK
6
CONTINUOUS
10
1.70354
20
1.70059
11
1.70663
21
1.69641
0
LINE
8
BLACK
6
CONTINUOUS
10
1.70663
20
1.69641
11
1.70835
21
1.69151
0
LINE
8
BLACK
6
CONTINUOUS
10
1.70835
20
1.69151
11
1.70866
21
1.68824
0
LINE
8
BLACK
6
CONTINUOUS
10
1.70866
20
1.68824
11
1.70866
21
1.66905
0
LINE
8
BLACK
6
CONTINUOUS
10
1.70866
20
1.66905
11
1.70835
21
1.66577
0
LINE
8
BLACK
6
CONTINUOUS
10
1.70835
20
1.66577
11
1.70663
21
1.66087
0
LINE
8
BLACK
6
CONTINUOUS
10
1.70663
20
1.66087
11
1.70354
21
1.65669
0
LINE
8
BLACK
6
CONTINUOUS
10
1.70354
20
1.65669
11
1.69937
21
1.65361
0
LINE
8
BLACK
6
CONTINUOUS
10
1.69937
20
1.65361
11
1.69446
21
1.65188
0
LINE
8
BLACK
6
CONTINUOUS
10
1.69446
20
1.65188
11
1.69119
21
1.65157
0
LINE
8
BLACK
6
CONTINUOUS
10
1.69119
20
1.65157
11
1.65527
21
1.65157
0
LINE
8
BLACK
6
CONTINUOUS
10
1.65527
20
1.65157
11
1.65199
21
1.65188
0
LINE
8
BLACK
6
CONTINUOUS
10
1.65199
20
1.65188
11
1.64709
21
1.65361
0
LINE
8
BLACK
6
CONTINUOUS
10
1.64709
20
1.65361
11
1.64291
21
1.65669
0
LINE
8
BLACK
6
CONTINUOUS
10
1.64291
20
1.65669
11
1.63983
21
1.66087
0
LINE
8
BLACK
6
CONTINUOUS
10
1.63983
20
1.66087
11
1.6381
21
1.66577
0
LINE
8
BLACK
6
CONTINUOUS
10
1.6381
20
1.66577
11
1.6378
21
1.66905
0
LINE
8
BLACK
6
CONTINUOUS
10
1.6378
20
1.66905
11
1.6378
21
1.68824
0
LINE
8
BLACK
6
CONTINUOUS
10
1.6378
20
1.68824
11
1.6381
21
1.69151
0
LINE
8
BLACK
6
CONTINUOUS
10
1.6381
20
1.69151
11
1.63983
21
1.69641
0
LINE
8
BLACK
6
CONTINUOUS
10
1.63983
20
1.69641
11
1.64291
21
1.70059
0
LINE
8
BLACK
6
CONTINUOUS
10
1.64291
20
1.70059
11
1.64709
21
1.70368
0
LINE
8
BLACK
6
CONTINUOUS
10
1.64709
20
1.70368
11
1.65199
21
1.7054
0
LINE
8
BLACK
6
CONTINUOUS
10
1.65199
20
1.7054
11
1.65527
21
1.70571
0
LINE
8
BLACK
6
CONTINUOUS
10
1.65527
20
1.70571
11
1.69119
21
1.70571
0
LINE
8
BLACK
6
CONTINUOUS
10
1.69119
20
1.70571
11
1.69446
21
1.7054
0
LINE
8
BLACK
6
CONTINUOUS
10
1.52517
20
1.76544
11
1.53007
21
1.76372
0
LINE
8
BLACK
6
CONTINUOUS
10
1.53007
20
1.76372
11
1.53425
21
1.76063
0
LINE
8
BLACK
6
CONTINUOUS
10
1.53425
20
1.76063
11
1.53734
21
1.75645
0
LINE
8
BLACK
6
CONTINUOUS
10
1.53734
20
1.75645
11
1.53906
21
1.75155
0
LINE
8
BLACK
6
CONTINUOUS
10
1.53906
20
1.75155
11
1.53937
21
1.74828
0
LINE
8
BLACK
6
CONTINUOUS
10
1.53937
20
1.74828
11
1.53937
21
1.72908
0
LINE
8
BLACK
6
CONTINUOUS
10
1.53937
20
1.72908
11
1.53906
21
1.72581
0
LINE
8
BLACK
6
CONTINUOUS
10
1.53906
20
1.72581
11
1.53734
21
1.72091
0
LINE
8
BLACK
6
CONTINUOUS
10
1.53734
20
1.72091
11
1.53425
21
1.71673
0
LINE
8
BLACK
6
CONTINUOUS
10
1.53425
20
1.71673
11
1.53007
21
1.71364
0
LINE
8
BLACK
6
CONTINUOUS
10
1.53007
20
1.71364
11
1.52517
21
1.71192
0
LINE
8
BLACK
6
CONTINUOUS
10
1.52517
20
1.71192
11
1.5219
21
1.71161
0
LINE
8
BLACK
6
CONTINUOUS
10
1.5219
20
1.71161
11
1.48597
21
1.71161
0
LINE
8
BLACK
6
CONTINUOUS
10
1.48597
20
1.71161
11
1.4827
21
1.71192
0
LINE
8
BLACK
6
CONTINUOUS
10
1.4827
20
1.71192
11
1.4778
21
1.71364
0
LINE
8
BLACK
6
CONTINUOUS
10
1.4778
20
1.71364
11
1.47362
21
1.71673
0
LINE
8
BLACK
6
CONTINUOUS
10
1.47362
20
1.71673
11
1.47053
21
1.72091
0
LINE
8
BLACK
6
CONTINUOUS
10
1.47053
20
1.72091
11
1.46881
21
1.72581
0
LINE
8
BLACK
6
CONTINUOUS
10
1.46881
20
1.72581
11
1.4685
21
1.72908
0
LINE
8
BLACK
6
CONTINUOUS
10
1.4685
20
1.72908
11
1.4685
21
1.74828
0
LINE
8
BLACK
6
CONTINUOUS
10
1.4685
20
1.74828
11
1.46881
21
1.75155
0
LINE
8
BLACK
6
CONTINUOUS
10
1.46881
20
1.75155
11
1.47053
21
1.75645
0
LINE
8
BLACK
6
CONTINUOUS
10
1.47053
20
1.75645
11
1.47362
21
1.76063
0
LINE
8
BLACK
6
CONTINUOUS
10
1.47362
20
1.76063
11
1.4778
21
1.76372
0
LINE
8
BLACK
6
CONTINUOUS
10
1.4778
20
1.76372
11
1.4827
21
1.76544
0
LINE
8
BLACK
6
CONTINUOUS
10
1.4827
20
1.76544
11
1.48597
21
1.76575
0
LINE
8
BLACK
6
CONTINUOUS
10
1.48597
20
1.76575
11
1.5219
21
1.76575
0
LINE
8
BLACK
6
CONTINUOUS
10
1.5219
20
1.76575
11
1.52517
21
1.76544
0
LINE
8
BLACK
6
CONTINUOUS
10
1.69446
20
1.76691
11
1.69937
21
1.76519
0
LINE
8
BLACK
6
CONTINUOUS
10
1.69937
20
1.76519
11
1.70354
21
1.76211
0
LINE
8
BLACK
6
CONTINUOUS
10
1.70354
20
1.76211
11
1.70663
21
1.75793
0
LINE
8
BLACK
6
CONTINUOUS
10
1.70663
20
1.75793
11
1.70835
21
1.75303
0
LINE
8
BLACK
6
CONTINUOUS
10
1.70835
20
1.75303
11
1.70866
21
1.74975
0
LINE
8
BLACK
6
CONTINUOUS
10
1.70866
20
1.74975
11
1.70866
21
1.73056
0
LINE
8
BLACK
6
CONTINUOUS
10
1.70866
20
1.73056
11
1.70835
21
1.72729
0
LINE
8
BLACK
6
CONTINUOUS
10
1.70835
20
1.72729
11
1.70663
21
1.72239
0
LINE
8
BLACK
6
CONTINUOUS
10
1.70663
20
1.72239
11
1.70354
21
1.71821
0
LINE
8
BLACK
6
CONTINUOUS
10
1.70354
20
1.71821
11
1.69937
21
1.71512
0
LINE
8
BLACK
6
CONTINUOUS
10
1.69937
20
1.71512
11
1.69446
21
1.7134
0
LINE
8
BLACK
6
CONTINUOUS
10
1.69446
20
1.7134
11
1.69119
21
1.71309
0
LINE
8
BLACK
6
CONTINUOUS
10
1.69119
20
1.71309
11
1.65527
21
1.71309
0
LINE
8
BLACK
6
CONTINUOUS
10
1.65527
20
1.71309
11
1.65199
21
1.7134
0
LINE
8
BLACK
6
CONTINUOUS
10
1.65199
20
1.7134
11
1.64709
21
1.71512
0
LINE
8
BLACK
6
CONTINUOUS
10
1.64709
20
1.71512
11
1.64291
21
1.71821
0
LINE
8
BLACK
6
CONTINUOUS
10
1.64291
20
1.71821
11
1.63983
21
1.72239
0
LINE
8
BLACK
6
CONTINUOUS
10
1.63983
20
1.72239
11
1.6381
21
1.72729
0
LINE
8
BLACK
6
CONTINUOUS
10
1.6381
20
1.72729
11
1.6378
21
1.73056
0
LINE
8
BLACK
6
CONTINUOUS
10
1.6378
20
1.73056
11
1.6378
21
1.74975
0
LINE
8
BLACK
6
CONTINUOUS
10
1.6378
20
1.74975
11
1.6381
21
1.75303
0
LINE
8
BLACK
6
CONTINUOUS
10
1.6381
20
1.75303
11
1.63983
21
1.75793
0
LINE
8
BLACK
6
CONTINUOUS
10
1.63983
20
1.75793
11
1.64291
21
1.76211
0
LINE
8
BLACK
6
CONTINUOUS
10
1.64291
20
1.76211
11
1.64709
21
1.76519
0
LINE
8
BLACK
6
CONTINUOUS
10
1.64709
20
1.76519
11
1.65199
21
1.76691
0
LINE
8
BLACK
6
CONTINUOUS
10
1.65199
20
1.76691
11
1.65527
21
1.76722
0
LINE
8
BLACK
6
CONTINUOUS
10
1.65527
20
1.76722
11
1.69119
21
1.76722
0
LINE
8
BLACK
6
CONTINUOUS
10
1.69119
20
1.76722
11
1.69446
21
1.76691
0
LINE
8
BLACK
6
CONTINUOUS
10
1.52517
20
1.83926
11
1.53007
21
1.83754
0
LINE
8
BLACK
6
CONTINUOUS
10
1.53007
20
1.83754
11
1.53425
21
1.83445
0
LINE
8
BLACK
6
CONTINUOUS
10
1.53425
20
1.83445
11
1.53734
21
1.83027
0
LINE
8
BLACK
6
CONTINUOUS
10
1.53734
20
1.83027
11
1.53906
21
1.82537
0
LINE
8
BLACK
6
CONTINUOUS
10
1.53906
20
1.82537
11
1.53937
21
1.8221
0
LINE
8
BLACK
6
CONTINUOUS
10
1.53937
20
1.8221
11
1.53937
21
1.8029
0
LINE
8
BLACK
6
CONTINUOUS
10
1.53937
20
1.8029
11
1.53906
21
1.79963
0
LINE
8
BLACK
6
CONTINUOUS
10
1.53906
20
1.79963
11
1.53734
21
1.79473
0
LINE
8
BLACK
6
CONTINUOUS
10
1.53734
20
1.79473
11
1.53425
21
1.79055
0
LINE
8
BLACK
6
CONTINUOUS
10
1.53425
20
1.79055
11
1.53007
21
1.78746
0
LINE
8
BLACK
6
CONTINUOUS
10
1.53007
20
1.78746
11
1.52517
21
1.78574
0
LINE
8
BLACK
6
CONTINUOUS
10
1.52517
20
1.78574
11
1.5219
21
1.78543
0
LINE
8
BLACK
6
CONTINUOUS
10
1.5219
20
1.78543
11
1.48597
21
1.78543
0
LINE
8
BLACK
6
CONTINUOUS
10
1.48597
20
1.78543
11
1.4827
21
1.78574
0
LINE
8
BLACK
6
CONTINUOUS
10
1.4827
20
1.78574
11
1.4778
21
1.78746
0
LINE
8
BLACK
6
CONTINUOUS
10
1.4778
20
1.78746
11
1.47362
21
1.79055
0
LINE
8
BLACK
6
CONTINUOUS
10
1.47362
20
1.79055
11
1.47053
21
1.79473
0
LINE
8
BLACK
6
CONTINUOUS
10
1.47053
20
1.79473
11
1.46881
21
1.79963
0
LINE
8
BLACK
6
CONTINUOUS
10
1.46881
20
1.79963
11
1.4685
21
1.8029
0
LINE
8
BLACK
6
CONTINUOUS
10
1.4685
20
1.8029
11
1.4685
21
1.8221
0
LINE
8
BLACK
6
CONTINUOUS
10
1.4685
20
1.8221
11
1.46881
21
1.82537
0
LINE
8
BLACK
6
CONTINUOUS
10
1.46881
20
1.82537
11
1.47053
21
1.83027
0
LINE
8
BLACK
6
CONTINUOUS
10
1.47053
20
1.83027
11
1.47362
21
1.83445
0
LINE
8
BLACK
6
CONTINUOUS
10
1.47362
20
1.83445
11
1.4778
21
1.83754
0
LINE
8
BLACK
6
CONTINUOUS
10
1.4778
20
1.83754
11
1.4827
21
1.83926
0
LINE
8
BLACK
6
CONTINUOUS
10
1.4827
20
1.83926
11
1.48597
21
1.83957
0
LINE
8
BLACK
6
CONTINUOUS
10
1.48597
20
1.83957
11
1.5219
21
1.83957
0
LINE
8
BLACK
6
CONTINUOUS
10
1.5219
20
1.83957
11
1.52517
21
1.83926
0
LINE
8
BLACK
6
CONTINUOUS
10
1.69446
20
1.84073
11
1.69937
21
1.83901
0
LINE
8
BLACK
6
CONTINUOUS
10
1.69937
20
1.83901
11
1.70354
21
1.83593
0
LINE
8
BLACK
6
CONTINUOUS
10
1.70354
20
1.83593
11
1.70663
21
1.83175
0
LINE
8
BLACK
6
CONTINUOUS
10
1.70663
20
1.83175
11
1.70835
21
1.82685
0
LINE
8
BLACK
6
CONTINUOUS
10
1.70835
20
1.82685
11
1.70866
21
1.82357
0
LINE
8
BLACK
6
CONTINUOUS
10
1.70866
20
1.82357
11
1.70866
21
1.80438
0
LINE
8
BLACK
6
CONTINUOUS
10
1.70866
20
1.80438
11
1.70835
21
1.80111
0
LINE
8
BLACK
6
CONTINUOUS
10
1.70835
20
1.80111
11
1.70663
21
1.7962
0
LINE
8
BLACK
6
CONTINUOUS
10
1.70663
20
1.7962
11
1.70354
21
1.79203
0
LINE
8
BLACK
6
CONTINUOUS
10
1.70354
20
1.79203
11
1.69937
21
1.78894
0
LINE
8
BLACK
6
CONTINUOUS
10
1.69937
20
1.78894
11
1.69446
21
1.78722
0
LINE
8
BLACK
6
CONTINUOUS
10
1.69446
20
1.78722
11
1.69119
21
1.78691
0
LINE
8
BLACK
6
CONTINUOUS
10
1.69119
20
1.78691
11
1.65527
21
1.78691
0
LINE
8
BLACK
6
CONTINUOUS
10
1.65527
20
1.78691
11
1.65199
21
1.78722
0
LINE
8
BLACK
6
CONTINUOUS
10
1.65199
20
1.78722
11
1.64709
21
1.78894
0
LINE
8
BLACK
6
CONTINUOUS
10
1.64709
20
1.78894
11
1.64291
21
1.79203
0
LINE
8
BLACK
6
CONTINUOUS
10
1.64291
20
1.79203
11
1.63983
21
1.7962
0
LINE
8
BLACK
6
CONTINUOUS
10
1.63983
20
1.7962
11
1.6381
21
1.80111
0
LINE
8
BLACK
6
CONTINUOUS
10
1.6381
20
1.80111
11
1.6378
21
1.80438
0
LINE
8
BLACK
6
CONTINUOUS
10
1.6378
20
1.80438
11
1.6378
21
1.82357
0
LINE
8
BLACK
6
CONTINUOUS
10
1.6378
20
1.82357
11
1.6381
21
1.82685
0
LINE
8
BLACK
6
CONTINUOUS
10
1.6381
20
1.82685
11
1.63983
21
1.83175
0
LINE
8
BLACK
6
CONTINUOUS
10
1.63983
20
1.83175
11
1.64291
21
1.83593
0
LINE
8
BLACK
6
CONTINUOUS
10
1.64291
20
1.83593
11
1.64709
21
1.83901
0
LINE
8
BLACK
6
CONTINUOUS
10
1.64709
20
1.83901
11
1.65199
21
1.84073
0
LINE
8
BLACK
6
CONTINUOUS
10
1.65199
20
1.84073
11
1.65527
21
1.84104
0
LINE
8
BLACK
6
CONTINUOUS
10
1.65527
20
1.84104
11
1.69119
21
1.84104
0
LINE
8
BLACK
6
CONTINUOUS
10
1.69119
20
1.84104
11
1.69446
21
1.84073
0
LINE
8
BLACK
6
CONTINUOUS
10
1.17084
20
1.86632
11
1.17574
21
1.8646
0
LINE
8
BLACK
6
CONTINUOUS
10
1.17574
20
1.8646
11
1.17992
21
1.86152
0
LINE
8
BLACK
6
CONTINUOUS
10
1.17992
20
1.86152
11
1.18301
21
1.85734
0
LINE
8
BLACK
6
CONTINUOUS
10
1.18301
20
1.85734
11
1.18473
21
1.85244
0
LINE
8
BLACK
6
CONTINUOUS
10
1.18473
20
1.85244
11
1.18504
21
1.84916
0
LINE
8
BLACK
6
CONTINUOUS
10
1.18504
20
1.84916
11
1.18504
21
1.82997
0
LINE
8
BLACK
6
CONTINUOUS
10
1.18504
20
1.82997
11
1.18473
21
1.8267
0
LINE
8
BLACK
6
CONTINUOUS
10
1.18473
20
1.8267
11
1.18301
21
1.8218
0
LINE
8
BLACK
6
CONTINUOUS
10
1.18301
20
1.8218
11
1.17992
21
1.81762
0
LINE
8
BLACK
6
CONTINUOUS
10
1.17992
20
1.81762
11
1.17574
21
1.81453
0
LINE
8
BLACK
6
CONTINUOUS
10
1.17574
20
1.81453
11
1.17084
21
1.81281
0
LINE
8
BLACK
6
CONTINUOUS
10
1.17084
20
1.81281
11
1.16757
21
1.8125
0
LINE
8
BLACK
6
CONTINUOUS
10
1.16757
20
1.8125
11
1.13164
21
1.8125
0
LINE
8
BLACK
6
CONTINUOUS
10
1.13164
20
1.8125
11
1.12837
21
1.81281
0
LINE
8
BLACK
6
CONTINUOUS
10
1.12837
20
1.81281
11
1.12347
21
1.81453
0
LINE
8
BLACK
6
CONTINUOUS
10
1.12347
20
1.81453
11
1.11929
21
1.81762
0
LINE
8
BLACK
6
CONTINUOUS
10
1.11929
20
1.81762
11
1.1162
21
1.8218
0
LINE
8
BLACK
6
CONTINUOUS
10
1.1162
20
1.8218
11
1.11448
21
1.8267
0
LINE
8
BLACK
6
CONTINUOUS
10
1.11448
20
1.8267
11
1.11417
21
1.82997
0
LINE
8
BLACK
6
CONTINUOUS
10
1.11417
20
1.82997
11
1.11417
21
1.84916
0
LINE
8
BLACK
6
CONTINUOUS
10
1.11417
20
1.84916
11
1.11448
21
1.85244
0
LINE
8
BLACK
6
CONTINUOUS
10
1.11448
20
1.85244
11
1.1162
21
1.85734
0
LINE
8
BLACK
6
CONTINUOUS
10
1.1162
20
1.85734
11
1.11929
21
1.86152
0
LINE
8
BLACK
6
CONTINUOUS
10
1.11929
20
1.86152
11
1.12347
21
1.8646
0
LINE
8
BLACK
6
CONTINUOUS
10
1.12347
20
1.8646
11
1.12837
21
1.86632
0
LINE
8
BLACK
6
CONTINUOUS
10
1.12837
20
1.86632
11
1.13164
21
1.86663
0
LINE
8
BLACK
6
CONTINUOUS
10
1.13164
20
1.86663
11
1.16757
21
1.86663
0
LINE
8
BLACK
6
CONTINUOUS
10
1.16757
20
1.86663
11
1.17084
21
1.86632
0
LINE
8
BLACK
6
CONTINUOUS
10
0.765331
20
1.87026
11
0.770232
21
1.86854
0
LINE
8
BLACK
6
CONTINUOUS
10
0.770232
20
1.86854
11
0.774411
21
1.86545
0
LINE
8
BLACK
6
CONTINUOUS
10
0.774411
20
1.86545
11
0.777497
21
1.86128
0
LINE
8
BLACK
6
CONTINUOUS
10
0.777497
20
1.86128
11
0.779218
21
1.85637
0
LINE
8
BLACK
6
CONTINUOUS
10
0.779218
20
1.85637
11
0.779528
21
1.8531
0
LINE
8
BLACK
6
CONTINUOUS
10
0.779528
20
1.8531
11
0.779528
21
1.83391
0
LINE
8
BLACK
6
CONTINUOUS
10
0.779528
20
1.83391
11
0.779218
21
1.83063
0
LINE
8
BLACK
6
CONTINUOUS
10
0.779218
20
1.83063
11
0.777497
21
1.82573
0
LINE
8
BLACK
6
CONTINUOUS
10
0.777497
20
1.82573
11
0.774411
21
1.82155
0
LINE
8
BLACK
6
CONTINUOUS
10
0.774411
20
1.82155
11
0.770232
21
1.81847
0
LINE
8
BLACK
6
CONTINUOUS
10
0.770232
20
1.81847
11
0.765331
21
1.81675
0
LINE
8
BLACK
6
CONTINUOUS
10
0.765331
20
1.81675
11
0.762057
21
1.81644
0
LINE
8
BLACK
6
CONTINUOUS
10
0.762057
20
1.81644
11
0.726132
21
1.81644
0
LINE
8
BLACK
6
CONTINUOUS
10
0.726132
20
1.81644
11
0.722858
21
1.81675
0
LINE
8
BLACK
6
CONTINUOUS
10
0.722858
20
1.81675
11
0.717957
21
1.81847
0
LINE
8
BLACK
6
CONTINUOUS
10
0.717957
20
1.81847
11
0.713778
21
1.82155
0
LINE
8
BLACK
6
CONTINUOUS
10
0.713778
20
1.82155
11
0.710692
21
1.82573
0
LINE
8
BLACK
6
CONTINUOUS
10
0.710692
20
1.82573
11
0.708971
21
1.83063
0
LINE
8
BLACK
6
CONTINUOUS
10
0.708971
20
1.83063
11
0.708661
21
1.83391
0
LINE
8
BLACK
6
CONTINUOUS
10
0.708661
20
1.83391
11
0.708661
21
1.8531
0
LINE
8
BLACK
6
CONTINUOUS
10
0.708661
20
1.8531
11
0.708971
21
1.85637
0
LINE
8
BLACK
6
CONTINUOUS
10
0.708971
20
1.85637
11
0.710692
21
1.86128
0
LINE
8
BLACK
6
CONTINUOUS
10
0.710692
20
1.86128
11
0.713778
21
1.86545
0
LINE
8
BLACK
6
CONTINUOUS
10
0.713778
20
1.86545
11
0.717957
21
1.86854
0
LINE
8
BLACK
6
CONTINUOUS
10
0.717957
20
1.86854
11
0.722858
21
1.87026
0
LINE
8
BLACK
6
CONTINUOUS
10
0.722858
20
1.87026
11
0.726132
21
1.87057
0
LINE
8
BLACK
6
CONTINUOUS
10
0.726132
20
1.87057
11
0.762057
21
1.87057
0
LINE
8
BLACK
6
CONTINUOUS
10
0.762057
20
1.87057
11
0.765331
21
1.87026
0
LINE
8
BLACK
6
CONTINUOUS
10
0.887378
20
1.87026
11
0.892279
21
1.86854
0
LINE
8
BLACK
6
CONTINUOUS
10
0.892279
20
1.86854
11
0.896458
21
1.86545
0
LINE
8
BLACK
6
CONTINUOUS
10
0.896458
20
1.86545
11
0.899544
21
1.86128
0
LINE
8
BLACK
6
CONTINUOUS
10
0.899544
20
1.86128
11
0.901265
21
1.85637
0
LINE
8
BLACK
6
CONTINUOUS
10
0.901265
20
1.85637
11
0.901575
21
1.8531
0
LINE
8
BLACK
6
CONTINUOUS
10
0.901575
20
1.8531
11
0.901575
21
1.83391
0
LINE
8
BLACK
6
CONTINUOUS
10
0.901575
20
1.83391
11
0.901265
21
1.83063
0
LINE
8
BLACK
6
CONTINUOUS
10
0.901265
20
1.83063
11
0.899544
21
1.82573
0
LINE
8
BLACK
6
CONTINUOUS
10
0.899544
20
1.82573
11
0.896458
21
1.82155
0
LINE
8
BLACK
6
CONTINUOUS
10
0.896458
20
1.82155
11
0.892279
21
1.81847
0
LINE
8
BLACK
6
CONTINUOUS
10
0.892279
20
1.81847
11
0.887378
21
1.81675
0
LINE
8
BLACK
6
CONTINUOUS
10
0.887378
20
1.81675
11
0.884104
21
1.81644
0
LINE
8
BLACK
6
CONTINUOUS
10
0.884104
20
1.81644
11
0.848179
21
1.81644
0
LINE
8
BLACK
6
CONTINUOUS
10
0.848179
20
1.81644
11
0.844906
21
1.81675
0
LINE
8
BLACK
6
CONTINUOUS
10
0.844906
20
1.81675
11
0.840004
21
1.81847
0
LINE
8
BLACK
6
CONTINUOUS
10
0.840004
20
1.81847
11
0.835826
21
1.82155
0
LINE
8
BLACK
6
CONTINUOUS
10
0.835826
20
1.82155
11
0.832739
21
1.82573
0
LINE
8
BLACK
6
CONTINUOUS
10
0.832739
20
1.82573
11
0.831018
21
1.83063
0
LINE
8
BLACK
6
CONTINUOUS
10
0.831018
20
1.83063
11
0.830709
21
1.83391
0
LINE
8
BLACK
6
CONTINUOUS
10
0.830709
20
1.83391
11
0.830709
21
1.8531
0
LINE
8
BLACK
6
CONTINUOUS
10
0.830709
20
1.8531
11
0.831018
21
1.85637
0
LINE
8
BLACK
6
CONTINUOUS
10
0.831018
20
1.85637
11
0.832739
21
1.86128
0
LINE
8
BLACK
6
CONTINUOUS
10
0.832739
20
1.86128
11
0.835826
21
1.86545
0
LINE
8
BLACK
6
CONTINUOUS
10
0.835826
20
1.86545
11
0.840004
21
1.86854
0
LINE
8
BLACK
6
CONTINUOUS
10
0.840004
20
1.86854
11
0.844906
21
1.87026
0
LINE
8
BLACK
6
CONTINUOUS
10
0.844906
20
1.87026
11
0.848179
21
1.87057
0
LINE
8
BLACK
6
CONTINUOUS
10
0.848179
20
1.87057
11
0.884104
21
1.87057
0
LINE
8
BLACK
6
CONTINUOUS
10
0.884104
20
1.87057
11
0.887378
21
1.87026
0
LINE
8
BLACK
6
CONTINUOUS
10
0.662969
20
1.87026
11
0.66787
21
1.86854
0
LINE
8
BLACK
6
CONTINUOUS
10
0.66787
20
1.86854
11
0.672048
21
1.86545
0
LINE
8
BLACK
6
CONTINUOUS
10
0.672048
20
1.86545
11
0.675135
21
1.86128
0
LINE
8
BLACK
6
CONTINUOUS
10
0.675135
20
1.86128
11
0.676856
21
1.85637
0
LINE
8
BLACK
6
CONTINUOUS
10
0.676856
20
1.85637
11
0.677165
21
1.8531
0
LINE
8
BLACK
6
CONTINUOUS
10
0.677165
20
1.8531
11
0.677165
21
1.83391
0
LINE
8
BLACK
6
CONTINUOUS
10
0.677165
20
1.83391
11
0.676856
21
1.83063
0
LINE
8
BLACK
6
CONTINUOUS
10
0.676856
20
1.83063
11
0.675135
21
1.82573
0
LINE
8
BLACK
6
CONTINUOUS
10
0.675135
20
1.82573
11
0.672048
21
1.82155
0
LINE
8
BLACK
6
CONTINUOUS
10
0.672048
20
1.82155
11
0.66787
21
1.81847
0
LINE
8
BLACK
6
CONTINUOUS
10
0.66787
20
1.81847
11
0.662969
21
1.81675
0
LINE
8
BLACK
6
CONTINUOUS
10
0.662969
20
1.81675
11
0.659695
21
1.81644
0
LINE
8
BLACK
6
CONTINUOUS
10
0.659695
20
1.81644
11
0.62377
21
1.81644
0
LINE
8
BLACK
6
CONTINUOUS
10
0.62377
20
1.81644
11
0.620496
21
1.81675
0
LINE
8
BLACK
6
CONTINUOUS
10
0.620496
20
1.81675
11
0.615595
21
1.81847
0
LINE
8
BLACK
6
CONTINUOUS
10
0.615595
20
1.81847
11
0.611416
21
1.82155
0
LINE
8
BLACK
6
CONTINUOUS
10
0.611416
20
1.82155
11
0.60833
21
1.82573
0
LINE
8
BLACK
6
CONTINUOUS
10
0.60833
20
1.82573
11
0.606609
21
1.83063
0
LINE
8
BLACK
6
CONTINUOUS
10
0.606609
20
1.83063
11
0.606299
21
1.83391
0
LINE
8
BLACK
6
CONTINUOUS
10
0.606299
20
1.83391
11
0.606299
21
1.8531
0
LINE
8
BLACK
6
CONTINUOUS
10
0.606299
20
1.8531
11
0.606609
21
1.85637
0
LINE
8
BLACK
6
CONTINUOUS
10
0.606609
20
1.85637
11
0.60833
21
1.86128
0
LINE
8
BLACK
6
CONTINUOUS
10
0.60833
20
1.86128
11
0.611416
21
1.86545
0
LINE
8
BLACK
6
CONTINUOUS
10
0.611416
20
1.86545
11
0.615595
21
1.86854
0
LINE
8
BLACK
6
CONTINUOUS
10
0.615595
20
1.86854
11
0.620496
21
1.87026
0
LINE
8
BLACK
6
CONTINUOUS
10
0.620496
20
1.87026
11
0.62377
21
1.87057
0
LINE
8
BLACK
6
CONTINUOUS
10
0.62377
20
1.87057
11
0.659695
21
1.87057
0
LINE
8
BLACK
6
CONTINUOUS
10
0.659695
20
1.87057
11
0.662969
21
1.87026
0
LINE
8
BLACK
6
CONTINUOUS
10
1.01336
20
1.87174
11
1.01826
21
1.87002
0
LINE
8
BLACK
6
CONTINUOUS
10
1.01826
20
1.87002
11
1.02244
21
1.86693
0
LINE
8
BLACK
6
CONTINUOUS
10
1.02244
20
1.86693
11
1.02553
21
1.86275
0
LINE
8
BLACK
6
CONTINUOUS
10
1.02553
20
1.86275
11
1.02725
21
1.85785
0
LINE
8
BLACK
6
CONTINUOUS
10
1.02725
20
1.85785
11
1.02756
21
1.85458
0
LINE
8
BLACK
6
CONTINUOUS
10
1.02756
20
1.85458
11
1.02756
21
1.83538
0
LINE
8
BLACK
6
CONTINUOUS
10
1.02756
20
1.83538
11
1.02725
21
1.83211
0
LINE
8
BLACK
6
CONTINUOUS
10
1.02725
20
1.83211
11
1.02553
21
1.82721
0
LINE
8
BLACK
6
CONTINUOUS
10
1.02553
20
1.82721
11
1.02244
21
1.82303
0
LINE
8
BLACK
6
CONTINUOUS
10
1.02244
20
1.82303
11
1.01826
21
1.81994
0
LINE
8
BLACK
6
CONTINUOUS
10
1.01826
20
1.81994
11
1.01336
21
1.81822
0
LINE
8
BLACK
6
CONTINUOUS
10
1.01336
20
1.81822
11
1.01009
21
1.81791
0
LINE
8
BLACK
6
CONTINUOUS
10
1.01009
20
1.81791
11
0.974163
21
1.81791
0
LINE
8
BLACK
6
CONTINUOUS
10
0.974163
20
1.81791
11
0.97089
21
1.81822
0
LINE
8
BLACK
6
CONTINUOUS
10
0.97089
20
1.81822
11
0.965988
21
1.81994
0
LINE
8
BLACK
6
CONTINUOUS
10
0.965988
20
1.81994
11
0.96181
21
1.82303
0
LINE
8
BLACK
6
CONTINUOUS
10
0.96181
20
1.82303
11
0.958724
21
1.82721
0
LINE
8
BLACK
6
CONTINUOUS
10
0.958724
20
1.82721
11
0.957002
21
1.83211
0
LINE
8
BLACK
6
CONTINUOUS
10
0.957002
20
1.83211
11
0.956693
21
1.83538
0
LINE
8
BLACK
6
CONTINUOUS
10
0.956693
20
1.83538
11
0.956693
21
1.85458
0
LINE
8
BLACK
6
CONTINUOUS
10
0.956693
20
1.85458
11
0.957002
21
1.85785
0
LINE
8
BLACK
6
CONTINUOUS
10
0.957002
20
1.85785
11
0.958724
21
1.86275
0
LINE
8
BLACK
6
CONTINUOUS
10
0.958724
20
1.86275
11
0.96181
21
1.86693
0
LINE
8
BLACK
6
CONTINUOUS
10
0.96181
20
1.86693
11
0.965988
21
1.87002
0
LINE
8
BLACK
6
CONTINUOUS
10
0.965988
20
1.87002
11
0.97089
21
1.87174
0
LINE
8
BLACK
6
CONTINUOUS
10
0.97089
20
1.87174
11
0.974163
21
1.87205
0
LINE
8
BLACK
6
CONTINUOUS
10
0.974163
20
1.87205
11
1.01009
21
1.87205
0
LINE
8
BLACK
6
CONTINUOUS
10
1.01009
20
1.87205
11
1.01336
21
1.87174
0
LINE
8
BLACK
6
CONTINUOUS
10
0.470055
20
1.87961
11
0.474956
21
1.87789
0
LINE
8
BLACK
6
CONTINUOUS
10
0.474956
20
1.87789
11
0.479135
21
1.8748
0
LINE
8
BLACK
6
CONTINUOUS
10
0.479135
20
1.8748
11
0.482221
21
1.87063
0
LINE
8
BLACK
6
CONTINUOUS
10
0.482221
20
1.87063
11
0.483943
21
1.86572
0
LINE
8
BLACK
6
CONTINUOUS
10
0.483943
20
1.86572
11
0.484252
21
1.86245
0
LINE
8
BLACK
6
CONTINUOUS
10
0.484252
20
1.86245
11
0.484252
21
1.84326
0
LINE
8
BLACK
6
CONTINUOUS
10
0.484252
20
1.84326
11
0.483943
21
1.83998
0
LINE
8
BLACK
6
CONTINUOUS
10
0.483943
20
1.83998
11
0.482221
21
1.83508
0
LINE
8
BLACK
6
CONTINUOUS
10
0.482221
20
1.83508
11
0.479135
21
1.8309
0
LINE
8
BLACK
6
CONTINUOUS
10
0.479135
20
1.8309
11
0.474956
21
1.82782
0
LINE
8
BLACK
6
CONTINUOUS
10
0.474956
20
1.82782
11
0.470055
21
1.8261
0
LINE
8
BLACK
6
CONTINUOUS
10
0.470055
20
1.8261
11
0.466781
21
1.82579
0
LINE
8
BLACK
6
CONTINUOUS
10
0.466781
20
1.82579
11
0.430856
21
1.82579
0
LINE
8
BLACK
6
CONTINUOUS
10
0.430856
20
1.82579
11
0.427583
21
1.8261
0
LINE
8
BLACK
6
CONTINUOUS
10
0.427583
20
1.8261
11
0.422681
21
1.82782
0
LINE
8
BLACK
6
CONTINUOUS
10
0.422681
20
1.82782
11
0.418503
21
1.8309
0
LINE
8
BLACK
6
CONTINUOUS
10
0.418503
20
1.8309
11
0.415416
21
1.83508
0
LINE
8
BLACK
6
CONTINUOUS
10
0.415416
20
1.83508
11
0.413695
21
1.83998
0
LINE
8
BLACK
6
CONTINUOUS
10
0.413695
20
1.83998
11
0.413386
21
1.84326
0
LINE
8
BLACK
6
CONTINUOUS
10
0.413386
20
1.84326
11
0.413386
21
1.86245
0
LINE
8
BLACK
6
CONTINUOUS
10
0.413386
20
1.86245
11
0.413695
21
1.86572
0
LINE
8
BLACK
6
CONTINUOUS
10
0.413695
20
1.86572
11
0.415416
21
1.87063
0
LINE
8
BLACK
6
CONTINUOUS
10
0.415416
20
1.87063
11
0.418503
21
1.8748
0
LINE
8
BLACK
6
CONTINUOUS
10
0.418503
20
1.8748
11
0.422681
21
1.87789
0
LINE
8
BLACK
6
CONTINUOUS
10
0.422681
20
1.87789
11
0.427583
21
1.87961
0
LINE
8
BLACK
6
CONTINUOUS
10
0.427583
20
1.87961
11
0.430856
21
1.87992
0
LINE
8
BLACK
6
CONTINUOUS
10
0.430856
20
1.87992
11
0.466781
21
1.87992
0
LINE
8
BLACK
6
CONTINUOUS
10
0.466781
20
1.87992
11
0.470055
21
1.87961
0
LINE
8
BLACK
6
CONTINUOUS
10
0.324386
20
1.88207
11
0.329287
21
1.88035
0
LINE
8
BLACK
6
CONTINUOUS
10
0.329287
20
1.88035
11
0.333466
21
1.87726
0
LINE
8
BLACK
6
CONTINUOUS
10
0.333466
20
1.87726
11
0.336552
21
1.87309
0
LINE
8
BLACK
6
CONTINUOUS
10
0.336552
20
1.87309
11
0.338273
21
1.86819
0
LINE
8
BLACK
6
CONTINUOUS
10
0.338273
20
1.86819
11
0.338583
21
1.86491
0
LINE
8
BLACK
6
CONTINUOUS
10
0.338583
20
1.86491
11
0.338583
21
1.84572
0
LINE
8
BLACK
6
CONTINUOUS
10
0.338583
20
1.84572
11
0.338273
21
1.84244
0
LINE
8
BLACK
6
CONTINUOUS
10
0.338273
20
1.84244
11
0.336552
21
1.83754
0
LINE
8
BLACK
6
CONTINUOUS
10
0.336552
20
1.83754
11
0.333466
21
1.83336
0
LINE
8
BLACK
6
CONTINUOUS
10
0.333466
20
1.83336
11
0.329287
21
1.83028
0
LINE
8
BLACK
6
CONTINUOUS
10
0.329287
20
1.83028
11
0.324386
21
1.82856
0
LINE
8
BLACK
6
CONTINUOUS
10
0.324386
20
1.82856
11
0.321112
21
1.82825
0
LINE
8
BLACK
6
CONTINUOUS
10
0.321112
20
1.82825
11
0.285187
21
1.82825
0
LINE
8
BLACK
6
CONTINUOUS
10
0.285187
20
1.82825
11
0.281913
21
1.82856
0
LINE
8
BLACK
6
CONTINUOUS
10
0.281913
20
1.82856
11
0.277012
21
1.83028
0
LINE
8
BLACK
6
CONTINUOUS
10
0.277012
20
1.83028
11
0.272834
21
1.83336
0
LINE
8
BLACK
6
CONTINUOUS
10
0.272834
20
1.83336
11
0.269747
21
1.83754
0
LINE
8
BLACK
6
CONTINUOUS
10
0.269747
20
1.83754
11
0.268026
21
1.84244
0
LINE
8
BLACK
6
CONTINUOUS
10
0.268026
20
1.84244
11
0.267717
21
1.84572
0
LINE
8
BLACK
6
CONTINUOUS
10
0.267717
20
1.84572
11
0.267717
21
1.86491
0
LINE
8
BLACK
6
CONTINUOUS
10
0.267717
20
1.86491
11
0.268026
21
1.86819
0
LINE
8
BLACK
6
CONTINUOUS
10
0.268026
20
1.86819
11
0.269747
21
1.87309
0
LINE
8
BLACK
6
CONTINUOUS
10
0.269747
20
1.87309
11
0.272834
21
1.87726
0
LINE
8
BLACK
6
CONTINUOUS
10
0.272834
20
1.87726
11
0.277012
21
1.88035
0
LINE
8
BLACK
6
CONTINUOUS
10
0.277012
20
1.88035
11
0.281913
21
1.88207
0
LINE
8
BLACK
6
CONTINUOUS
10
0.281913
20
1.88207
11
0.285187
21
1.88238
0
LINE
8
BLACK
6
CONTINUOUS
10
0.285187
20
1.88238
11
0.321112
21
1.88238
0
LINE
8
BLACK
6
CONTINUOUS
10
0.321112
20
1.88238
11
0.324386
21
1.88207
0
LINE
8
BLACK
6
CONTINUOUS
10
1.17084
20
1.94014
11
1.17574
21
1.93842
0
LINE
8
BLACK
6
CONTINUOUS
10
1.17574
20
1.93842
11
1.17992
21
1.93534
0
LINE
8
BLACK
6
CONTINUOUS
10
1.17992
20
1.93534
11
1.18301
21
1.93116
0
LINE
8
BLACK
6
CONTINUOUS
10
1.18301
20
1.93116
11
1.18473
21
1.92626
0
LINE
8
BLACK
6
CONTINUOUS
10
1.18473
20
1.92626
11
1.18504
21
1.92298
0
LINE
8
BLACK
6
CONTINUOUS
10
1.18504
20
1.92298
11
1.18504
21
1.90379
0
LINE
8
BLACK
6
CONTINUOUS
10
1.18504
20
1.90379
11
1.18473
21
1.90052
0
LINE
8
BLACK
6
CONTINUOUS
10
1.18473
20
1.90052
11
1.18301
21
1.89561
0
LINE
8
BLACK
6
CONTINUOUS
10
1.18301
20
1.89561
11
1.17992
21
1.89144
0
LINE
8
BLACK
6
CONTINUOUS
10
1.17992
20
1.89144
11
1.17574
21
1.88835
0
LINE
8
BLACK
6
CONTINUOUS
10
1.17574
20
1.88835
11
1.17084
21
1.88663
0
LINE
8
BLACK
6
CONTINUOUS
10
1.17084
20
1.88663
11
1.16757
21
1.88632
0
LINE
8
BLACK
6
CONTINUOUS
10
1.16757
20
1.88632
11
1.13164
21
1.88632
0
LINE
8
BLACK
6
CONTINUOUS
10
1.13164
20
1.88632
11
1.12837
21
1.88663
0
LINE
8
BLACK
6
CONTINUOUS
10
1.12837
20
1.88663
11
1.12347
21
1.88835
0
LINE
8
BLACK
6
CONTINUOUS
10
1.12347
20
1.88835
11
1.11929
21
1.89144
0
LINE
8
BLACK
6
CONTINUOUS
10
1.11929
20
1.89144
11
1.1162
21
1.89561
0
LINE
8
BLACK
6
CONTINUOUS
10
1.1162
20
1.89561
11
1.11448
21
1.90052
0
LINE
8
BLACK
6
CONTINUOUS
10
1.11448
20
1.90052
11
1.11417
21
1.90379
0
LINE
8
BLACK
6
CONTINUOUS
10
1.11417
20
1.90379
11
1.11417
21
1.92298
0
LINE
8
BLACK
6
CONTINUOUS
10
1.11417
20
1.92298
11
1.11448
21
1.92626
0
LINE
8
BLACK
6
CONTINUOUS
10
1.11448
20
1.92626
11
1.1162
21
1.93116
0
LINE
8
BLACK
6
CONTINUOUS
10
1.1162
20
1.93116
11
1.11929
21
1.93534
0
LINE
8
BLACK
6
CONTINUOUS
10
1.11929
20
1.93534
11
1.12347
21
1.93842
0
LINE
8
BLACK
6
CONTINUOUS
10
1.12347
20
1.93842
11
1.12837
21
1.94014
0
LINE
8
BLACK
6
CONTINUOUS
10
1.12837
20
1.94014
11
1.13164
21
1.94045
0
LINE
8
BLACK
6
CONTINUOUS
10
1.13164
20
1.94045
11
1.16757
21
1.94045
0
LINE
8
BLACK
6
CONTINUOUS
10
1.16757
20
1.94045
11
1.17084
21
1.94014
0
LINE
8
BLACK
6
CONTINUOUS
10
0.765331
20
1.94408
11
0.770232
21
1.94236
0
LINE
8
BLACK
6
CONTINUOUS
10
0.770232
20
1.94236
11
0.774411
21
1.93927
0
LINE
8
BLACK
6
CONTINUOUS
10
0.774411
20
1.93927
11
0.777497
21
1.93509
0
LINE
8
BLACK
6
CONTINUOUS
10
0.777497
20
1.93509
11
0.779218
21
1.93019
0
LINE
8
BLACK
6
CONTINUOUS
10
0.779218
20
1.93019
11
0.779528
21
1.92692
0
LINE
8
BLACK
6
CONTINUOUS
10
0.779528
20
1.92692
11
0.779528
21
1.90773
0
LINE
8
BLACK
6
CONTINUOUS
10
0.779528
20
1.90773
11
0.779218
21
1.90445
0
LINE
8
BLACK
6
CONTINUOUS
10
0.779218
20
1.90445
11
0.777497
21
1.89955
0
LINE
8
BLACK
6
CONTINUOUS
10
0.777497
20
1.89955
11
0.774411
21
1.89537
0
LINE
8
BLACK
6
CONTINUOUS
10
0.774411
20
1.89537
11
0.770232
21
1.89229
0
LINE
8
BLACK
6
CONTINUOUS
10
0.770232
20
1.89229
11
0.765331
21
1.89057
0
LINE
8
BLACK
6
CONTINUOUS
10
0.765331
20
1.89057
11
0.762057
21
1.89026
0
LINE
8
BLACK
6
CONTINUOUS
10
0.762057
20
1.89026
11
0.726132
21
1.89026
0
LINE
8
BLACK
6
CONTINUOUS
10
0.726132
20
1.89026
11
0.722858
21
1.89057
0
LINE
8
BLACK
6
CONTINUOUS
10
0.722858
20
1.89057
11
0.717957
21
1.89229
0
LINE
8
BLACK
6
CONTINUOUS
10
0.717957
20
1.89229
11
0.713778
21
1.89537
0
LINE
8
BLACK
6
CONTINUOUS
10
0.713778
20
1.89537
11
0.710692
21
1.89955
0
LINE
8
BLACK
6
CONTINUOUS
10
0.710692
20
1.89955
11
0.708971
21
1.90445
0
LINE
8
BLACK
6
CONTINUOUS
10
0.708971
20
1.90445
11
0.708661
21
1.90773
0
LINE
8
BLACK
6
CONTINUOUS
10
0.708661
20
1.90773
11
0.708661
21
1.92692
0
LINE
8
BLACK
6
CONTINUOUS
10
0.708661
20
1.92692
11
0.708971
21
1.93019
0
LINE
8
BLACK
6
CONTINUOUS
10
0.708971
20
1.93019
11
0.710692
21
1.93509
0
LINE
8
BLACK
6
CONTINUOUS
10
0.710692
20
1.93509
11
0.713778
21
1.93927
0
LINE
8
BLACK
6
CONTINUOUS
10
0.713778
20
1.93927
11
0.717957
21
1.94236
0
LINE
8
BLACK
6
CONTINUOUS
10
0.717957
20
1.94236
11
0.722858
21
1.94408
0
LINE
8
BLACK
6
CONTINUOUS
10
0.722858
20
1.94408
11
0.726132
21
1.94439
0
LINE
8
BLACK
6
CONTINUOUS
10
0.726132
20
1.94439
11
0.762057
21
1.94439
0
LINE
8
BLACK
6
CONTINUOUS
10
0.762057
20
1.94439
11
0.765331
21
1.94408
0
LINE
8
BLACK
6
CONTINUOUS
10
0.662969
20
1.94408
11
0.66787
21
1.94236
0
LINE
8
BLACK
6
CONTINUOUS
10
0.66787
20
1.94236
11
0.672048
21
1.93927
0
LINE
8
BLACK
6
CONTINUOUS
10
0.672048
20
1.93927
11
0.675135
21
1.93509
0
LINE
8
BLACK
6
CONTINUOUS
10
0.675135
20
1.93509
11
0.676856
21
1.93019
0
LINE
8
BLACK
6
CONTINUOUS
10
0.676856
20
1.93019
11
0.677165
21
1.92692
0
LINE
8
BLACK
6
CONTINUOUS
10
0.677165
20
1.92692
11
0.677165
21
1.90773
0
LINE
8
BLACK
6
CONTINUOUS
10
0.677165
20
1.90773
11
0.676856
21
1.90445
0
LINE
8
BLACK
6
CONTINUOUS
10
0.676856
20
1.90445
11
0.675135
21
1.89955
0
LINE
8
BLACK
6
CONTINUOUS
10
0.675135
20
1.89955
11
0.672048
21
1.89537
0
LINE
8
BLACK
6
CONTINUOUS
10
0.672048
20
1.89537
11
0.66787
21
1.89229
0
LINE
8
BLACK
6
CONTINUOUS
10
0.66787
20
1.89229
11
0.662969
21
1.89057
0
LINE
8
BLACK
6
CONTINUOUS
10
0.662969
20
1.89057
11
0.659695
21
1.89026
0
LINE
8
BLACK
6
CONTINUOUS
10
0.659695
20
1.89026
11
0.62377
21
1.89026
0
LINE
8
BLACK
6
CONTINUOUS
10
0.62377
20
1.89026
11
0.620496
21
1.89057
0
LINE
8
BLACK
6
CONTINUOUS
10
0.620496
20
1.89057
11
0.615595
21
1.89229
0
LINE
8
BLACK
6
CONTINUOUS
10
0.615595
20
1.89229
11
0.611416
21
1.89537
0
LINE
8
BLACK
6
CONTINUOUS
10
0.611416
20
1.89537
11
0.60833
21
1.89955
0
LINE
8
BLACK
6
CONTINUOUS
10
0.60833
20
1.89955
11
0.606609
21
1.90445
0
LINE
8
BLACK
6
CONTINUOUS
10
0.606609
20
1.90445
11
0.606299
21
1.90773
0
LINE
8
BLACK
6
CONTINUOUS
10
0.606299
20
1.90773
11
0.606299
21
1.92692
0
LINE
8
BLACK
6
CONTINUOUS
10
0.606299
20
1.92692
11
0.606609
21
1.93019
0
LINE
8
BLACK
6
CONTINUOUS
10
0.606609
20
1.93019
11
0.60833
21
1.93509
0
LINE
8
BLACK
6
CONTINUOUS
10
0.60833
20
1.93509
11
0.611416
21
1.93927
0
LINE
8
BLACK
6
CONTINUOUS
10
0.611416
20
1.93927
11
0.615595
21
1.94236
0
LINE
8
BLACK
6
CONTINUOUS
10
0.615595
20
1.94236
11
0.620496
21
1.94408
0
LINE
8
BLACK
6
CONTINUOUS
10
0.620496
20
1.94408
11
0.62377
21
1.94439
0
LINE
8
BLACK
6
CONTINUOUS
10
0.62377
20
1.94439
11
0.659695
21
1.94439
0
LINE
8
BLACK
6
CONTINUOUS
10
0.659695
20
1.94439
11
0.662969
21
1.94408
0
LINE
8
BLACK
6
CONTINUOUS
10
0.887378
20
1.94408
11
0.892279
21
1.94236
0
LINE
8
BLACK
6
CONTINUOUS
10
0.892279
20
1.94236
11
0.896458
21
1.93927
0
LINE
8
BLACK
6
CONTINUOUS
10
0.896458
20
1.93927
11
0.899544
21
1.93509
0
LINE
8
BLACK
6
CONTINUOUS
10
0.899544
20
1.93509
11
0.901265
21
1.93019
0
LINE
8
BLACK
6
CONTINUOUS
10
0.901265
20
1.93019
11
0.901575
21
1.92692
0
LINE
8
BLACK
6
CONTINUOUS
10
0.901575
20
1.92692
11
0.901575
21
1.90773
0
LINE
8
BLACK
6
CONTINUOUS
10
0.901575
20
1.90773
11
0.901265
21
1.90445
0
LINE
8
BLACK
6
CONTINUOUS
10
0.901265
20
1.90445
11
0.899544
21
1.89955
0
LINE
8
BLACK
6
CONTINUOUS
10
0.899544
20
1.89955
11
0.896458
21
1.89537
0
LINE
8
BLACK
6
CONTINUOUS
10
0.896458
20
1.89537
11
0.892279
21
1.89229
0
LINE
8
BLACK
6
CONTINUOUS
10
0.892279
20
1.89229
11
0.887378
21
1.89057
0
LINE
8
BLACK
6
CONTINUOUS
10
0.887378
20
1.89057
11
0.884104
21
1.89026
0
LINE
8
BLACK
6
CONTINUOUS
10
0.884104
20
1.89026
11
0.848179
21
1.89026
0
LINE
8
BLACK
6
CONTINUOUS
10
0.848179
20
1.89026
11
0.844906
21
1.89057
0
LINE
8
BLACK
6
CONTINUOUS
10
0.844906
20
1.89057
11
0.840004
21
1.89229
0
LINE
8
BLACK
6
CONTINUOUS
10
0.840004
20
1.89229
11
0.835826
21
1.89537
0
LINE
8
BLACK
6
CONTINUOUS
10
0.835826
20
1.89537
11
0.832739
21
1.89955
0
LINE
8
BLACK
6
CONTINUOUS
10
0.832739
20
1.89955
11
0.831018
21
1.90445
0
LINE
8
BLACK
6
CONTINUOUS
10
0.831018
20
1.90445
11
0.830709
21
1.90773
0
LINE
8
BLACK
6
CONTINUOUS
10
0.830709
20
1.90773
11
0.830709
21
1.92692
0
LINE
8
BLACK
6
CONTINUOUS
10
0.830709
20
1.92692
11
0.831018
21
1.93019
0
LINE
8
BLACK
6
CONTINUOUS
10
0.831018
20
1.93019
11
0.832739
21
1.93509
0
LINE
8
BLACK
6
CONTINUOUS
10
0.832739
20
1.93509
11
0.835826
21
1.93927
0
LINE
8
BLACK
6
CONTINUOUS
10
0.835826
20
1.93927
11
0.840004
21
1.94236
0
LINE
8
BLACK
6
CONTINUOUS
10
0.840004
20
1.94236
11
0.844906
21
1.94408
0
LINE
8
BLACK
6
CONTINUOUS
10
0.844906
20
1.94408
11
0.848179
21
1.94439
0
LINE
8
BLACK
6
CONTINUOUS
10
0.848179
20
1.94439
11
0.884104
21
1.94439
0
LINE
8
BLACK
6
CONTINUOUS
10
0.884104
20
1.94439
11
0.887378
21
1.94408
0
LINE
8
BLACK
6
CONTINUOUS
10
1.01336
20
1.94556
11
1.01826
21
1.94384
0
LINE
8
BLACK
6
CONTINUOUS
10
1.01826
20
1.94384
11
1.02244
21
1.94075
0
LINE
8
BLACK
6
CONTINUOUS
10
1.02244
20
1.94075
11
1.02553
21
1.93657
0
LINE
8
BLACK
6
CONTINUOUS
10
1.02553
20
1.93657
11
1.02725
21
1.93167
0
LINE
8
BLACK
6
CONTINUOUS
10
1.02725
20
1.93167
11
1.02756
21
1.9284
0
LINE
8
BLACK
6
CONTINUOUS
10
1.02756
20
1.9284
11
1.02756
21
1.9092
0
LINE
8
BLACK
6
CONTINUOUS
10
1.02756
20
1.9092
11
1.02725
21
1.90593
0
LINE
8
BLACK
6
CONTINUOUS
10
1.02725
20
1.90593
11
1.02553
21
1.90103
0
LINE
8
BLACK
6
CONTINUOUS
10
1.02553
20
1.90103
11
1.02244
21
1.89685
0
LINE
8
BLACK
6
CONTINUOUS
10
1.02244
20
1.89685
11
1.01826
21
1.89376
0
LINE
8
BLACK
6
CONTINUOUS
10
1.01826
20
1.89376
11
1.01336
21
1.89204
0
LINE
8
BLACK
6
CONTINUOUS
10
1.01336
20
1.89204
11
1.01009
21
1.89173
0
LINE
8
BLACK
6
CONTINUOUS
10
1.01009
20
1.89173
11
0.974163
21
1.89173
0
LINE
8
BLACK
6
CONTINUOUS
10
0.974163
20
1.89173
11
0.97089
21
1.89204
0
LINE
8
BLACK
6
CONTINUOUS
10
0.97089
20
1.89204
11
0.965988
21
1.89376
0
LINE
8
BLACK
6
CONTINUOUS
10
0.965988
20
1.89376
11
0.96181
21
1.89685
0
LINE
8
BLACK
6
CONTINUOUS
10
0.96181
20
1.89685
11
0.958724
21
1.90103
0
LINE
8
BLACK
6
CONTINUOUS
10
0.958724
20
1.90103
11
0.957002
21
1.90593
0
LINE
8
BLACK
6
CONTINUOUS
10
0.957002
20
1.90593
11
0.956693
21
1.9092
0
LINE
8
BLACK
6
CONTINUOUS
10
0.956693
20
1.9092
11
0.956693
21
1.9284
0
LINE
8
BLACK
6
CONTINUOUS
10
0.956693
20
1.9284
11
0.957002
21
1.93167
0
LINE
8
BLACK
6
CONTINUOUS
10
0.957002
20
1.93167
11
0.958724
21
1.93657
0
LINE
8
BLACK
6
CONTINUOUS
10
0.958724
20
1.93657
11
0.96181
21
1.94075
0
LINE
8
BLACK
6
CONTINUOUS
10
0.96181
20
1.94075
11
0.965988
21
1.94384
0
LINE
8
BLACK
6
CONTINUOUS
10
0.965988
20
1.94384
11
0.97089
21
1.94556
0
LINE
8
BLACK
6
CONTINUOUS
10
0.97089
20
1.94556
11
0.974163
21
1.94587
0
LINE
8
BLACK
6
CONTINUOUS
10
0.974163
20
1.94587
11
1.01009
21
1.94587
0
LINE
8
BLACK
6
CONTINUOUS
10
1.01009
20
1.94587
11
1.01336
21
1.94556
0
LINE
8
BLACK
6
CONTINUOUS
10
0.470055
20
1.95343
11
0.474956
21
1.95171
0
LINE
8
BLACK
6
CONTINUOUS
10
0.474956
20
1.95171
11
0.479135
21
1.94862
0
LINE
8
BLACK
6
CONTINUOUS
10
0.479135
20
1.94862
11
0.482221
21
1.94444
0
LINE
8
BLACK
6
CONTINUOUS
10
0.482221
20
1.94444
11
0.483943
21
1.93954
0
LINE
8
BLACK
6
CONTINUOUS
10
0.483943
20
1.93954
11
0.484252
21
1.93627
0
LINE
8
BLACK
6
CONTINUOUS
10
0.484252
20
1.93627
11
0.484252
21
1.91708
0
LINE
8
BLACK
6
CONTINUOUS
10
0.484252
20
1.91708
11
0.483943
21
1.9138
0
LINE
8
BLACK
6
CONTINUOUS
10
0.483943
20
1.9138
11
0.482221
21
1.9089
0
LINE
8
BLACK
6
CONTINUOUS
10
0.482221
20
1.9089
11
0.479135
21
1.90472
0
LINE
8
BLACK
6
CONTINUOUS
10
0.479135
20
1.90472
11
0.474956
21
1.90164
0
LINE
8
BLACK
6
CONTINUOUS
10
0.474956
20
1.90164
11
0.470055
21
1.89992
0
LINE
8
BLACK
6
CONTINUOUS
10
0.470055
20
1.89992
11
0.466781
21
1.89961
0
LINE
8
BLACK
6
CONTINUOUS
10
0.466781
20
1.89961
11
0.430856
21
1.89961
0
LINE
8
BLACK
6
CONTINUOUS
10
0.430856
20
1.89961
11
0.427583
21
1.89992
0
LINE
8
BLACK
6
CONTINUOUS
10
0.427583
20
1.89992
11
0.422681
21
1.90164
0
LINE
8
BLACK
6
CONTINUOUS
10
0.422681
20
1.90164
11
0.418503
21
1.90472
0
LINE
8
BLACK
6
CONTINUOUS
10
0.418503
20
1.90472
11
0.415416
21
1.9089
0
LINE
8
BLACK
6
CONTINUOUS
10
0.415416
20
1.9089
11
0.413695
21
1.9138
0
LINE
8
BLACK
6
CONTINUOUS
10
0.413695
20
1.9138
11
0.413386
21
1.91708
0
LINE
8
BLACK
6
CONTINUOUS
10
0.413386
20
1.91708
11
0.413386
21
1.93627
0
LINE
8
BLACK
6
CONTINUOUS
10
0.413386
20
1.93627
11
0.413695
21
1.93954
0
LINE
8
BLACK
6
CONTINUOUS
10
0.413695
20
1.93954
11
0.415416
21
1.94444
0
LINE
8
BLACK
6
CONTINUOUS
10
0.415416
20
1.94444
11
0.418503
21
1.94862
0
LINE
8
BLACK
6
CONTINUOUS
10
0.418503
20
1.94862
11
0.422681
21
1.95171
0
LINE
8
BLACK
6
CONTINUOUS
10
0.422681
20
1.95171
11
0.427583
21
1.95343
0
LINE
8
BLACK
6
CONTINUOUS
10
0.427583
20
1.95343
11
0.430856
21
1.95374
0
LINE
8
BLACK
6
CONTINUOUS
10
0.430856
20
1.95374
11
0.466781
21
1.95374
0
LINE
8
BLACK
6
CONTINUOUS
10
0.466781
20
1.95374
11
0.470055
21
1.95343
0
LINE
8
BLACK
6
CONTINUOUS
10
0.324386
20
1.95589
11
0.329287
21
1.95417
0
LINE
8
BLACK
6
CONTINUOUS
10
0.329287
20
1.95417
11
0.333466
21
1.95108
0
LINE
8
BLACK
6
CONTINUOUS
10
0.333466
20
1.95108
11
0.336552
21
1.94691
0
LINE
8
BLACK
6
CONTINUOUS
10
0.336552
20
1.94691
11
0.338273
21
1.942
0
LINE
8
BLACK
6
CONTINUOUS
10
0.338273
20
1.942
11
0.338583
21
1.93873
0
LINE
8
BLACK
6
CONTINUOUS
10
0.338583
20
1.93873
11
0.338583
21
1.91954
0
LINE
8
BLACK
6
CONTINUOUS
10
0.338583
20
1.91954
11
0.338273
21
1.91626
0
LINE
8
BLACK
6
CONTINUOUS
10
0.338273
20
1.91626
11
0.336552
21
1.91136
0
LINE
8
BLACK
6
CONTINUOUS
10
0.336552
20
1.91136
11
0.333466
21
1.90718
0
LINE
8
BLACK
6
CONTINUOUS
10
0.333466
20
1.90718
11
0.329287
21
1.9041
0
LINE
8
BLACK
6
CONTINUOUS
10
0.329287
20
1.9041
11
0.324386
21
1.90238
0
LINE
8
BLACK
6
CONTINUOUS
10
0.324386
20
1.90238
11
0.321112
21
1.90207
0
LINE
8
BLACK
6
CONTINUOUS
10
0.321112
20
1.90207
11
0.285187
21
1.90207
0
LINE
8
BLACK
6
CONTINUOUS
10
0.285187
20
1.90207
11
0.281913
21
1.90238
0
LINE
8
BLACK
6
CONTINUOUS
10
0.281913
20
1.90238
11
0.277012
21
1.9041
0
LINE
8
BLACK
6
CONTINUOUS
10
0.277012
20
1.9041
11
0.272834
21
1.90718
0
LINE
8
BLACK
6
CONTINUOUS
10
0.272834
20
1.90718
11
0.269747
21
1.91136
0
LINE
8
BLACK
6
CONTINUOUS
10
0.269747
20
1.91136
11
0.268026
21
1.91626
0
LINE
8
BLACK
6
CONTINUOUS
10
0.268026
20
1.91626
11
0.267717
21
1.91954
0
LINE
8
BLACK
6
CONTINUOUS
10
0.267717
20
1.91954
11
0.267717
21
1.93873
0
LINE
8
BLACK
6
CONTINUOUS
10
0.267717
20
1.93873
11
0.268026
21
1.942
0
LINE
8
BLACK
6
CONTINUOUS
10
0.268026
20
1.942
11
0.269747
21
1.94691
0
LINE
8
BLACK
6
CONTINUOUS
10
0.269747
20
1.94691
11
0.272834
21
1.95108
0
LINE
8
BLACK
6
CONTINUOUS
10
0.272834
20
1.95108
11
0.277012
21
1.95417
0
LINE
8
BLACK
6
CONTINUOUS
10
0.277012
20
1.95417
11
0.281913
21
1.95589
0
LINE
8
BLACK
6
CONTINUOUS
10
0.281913
20
1.95589
11
0.285187
21
1.9562
0
LINE
8
BLACK
6
CONTINUOUS
10
0.285187
20
1.9562
11
0.321112
21
1.9562
0
LINE
8
BLACK
6
CONTINUOUS
10
0.321112
20
1.9562
11
0.324386
21
1.95589
0
LINE
8
BLACK
6
CONTINUOUS
10
1.57868
20
2.05696
11
1.58124
21
2.05525
0
LINE
8
BLACK
6
CONTINUOUS
10
1.58124
20
2.05525
11
1.58294
21
2.0527
0
LINE
8
BLACK
6
CONTINUOUS
10
1.58294
20
2.0527
11
1.58354
21
2.04969
0
LINE
8
BLACK
6
CONTINUOUS
10
1.58354
20
2.04969
11
1.58354
21
1.98969
0
LINE
8
BLACK
6
CONTINUOUS
10
1.58354
20
1.98969
11
1.58294
21
1.98667
0
LINE
8
BLACK
6
CONTINUOUS
10
1.58294
20
1.98667
11
1.58124
21
1.98412
0
LINE
8
BLACK
6
CONTINUOUS
10
1.58124
20
1.98412
11
1.57868
21
1.98241
0
LINE
8
BLACK
6
CONTINUOUS
10
1.57868
20
1.98241
11
1.57567
21
1.98181
0
LINE
8
BLACK
6
CONTINUOUS
10
1.57567
20
1.98181
11
1.51567
21
1.98181
0
LINE
8
BLACK
6
CONTINUOUS
10
1.51567
20
1.98181
11
1.51266
21
1.98241
0
LINE
8
BLACK
6
CONTINUOUS
10
1.51266
20
1.98241
11
1.5101
21
1.98412
0
LINE
8
BLACK
6
CONTINUOUS
10
1.5101
20
1.98412
11
1.50839
21
1.98667
0
LINE
8
BLACK
6
CONTINUOUS
10
1.50839
20
1.98667
11
1.5078
21
1.98969
0
LINE
8
BLACK
6
CONTINUOUS
10
1.5078
20
1.98969
11
1.5078
21
2.04969
0
LINE
8
BLACK
6
CONTINUOUS
10
1.5078
20
2.04969
11
1.50839
21
2.0527
0
LINE
8
BLACK
6
CONTINUOUS
10
1.50839
20
2.0527
11
1.5101
21
2.05525
0
LINE
8
BLACK
6
CONTINUOUS
10
1.5101
20
2.05525
11
1.51266
21
2.05696
0
LINE
8
BLACK
6
CONTINUOUS
10
1.51266
20
2.05696
11
1.51567
21
2.05756
0
LINE
8
BLACK
6
CONTINUOUS
10
1.51567
20
2.05756
11
1.57567
21
2.05756
0
LINE
8
BLACK
6
CONTINUOUS
10
1.57567
20
2.05756
11
1.57868
21
2.05696
0
LINE
8
BLACK
6
CONTINUOUS
10
1.67868
20
2.05696
11
1.68124
21
2.05525
0
LINE
8
BLACK
6
CONTINUOUS
10
1.68124
20
2.05525
11
1.68294
21
2.0527
0
LINE
8
BLACK
6
CONTINUOUS
10
1.68294
20
2.0527
11
1.68354
21
2.04969
0
LINE
8
BLACK
6
CONTINUOUS
10
1.68354
20
2.04969
11
1.68354
21
1.98969
0
LINE
8
BLACK
6
CONTINUOUS
10
1.68354
20
1.98969
11
1.68294
21
1.98667
0
LINE
8
BLACK
6
CONTINUOUS
10
1.68294
20
1.98667
11
1.68124
21
1.98412
0
LINE
8
BLACK
6
CONTINUOUS
10
1.68124
20
1.98412
11
1.67868
21
1.98241
0
LINE
8
BLACK
6
CONTINUOUS
10
1.67868
20
1.98241
11
1.67567
21
1.98181
0
LINE
8
BLACK
6
CONTINUOUS
10
1.67567
20
1.98181
11
1.61567
21
1.98181
0
LINE
8
BLACK
6
CONTINUOUS
10
1.61567
20
1.98181
11
1.61266
21
1.98241
0
LINE
8
BLACK
6
CONTINUOUS
10
1.61266
20
1.98241
11
1.6101
21
1.98412
0
LINE
8
BLACK
6
CONTINUOUS
10
1.6101
20
1.98412
11
1.60839
21
1.98667
0
LINE
8
BLACK
6
CONTINUOUS
10
1.60839
20
1.98667
11
1.6078
21
1.98969
0
LINE
8
BLACK
6
CONTINUOUS
10
1.6078
20
1.98969
11
1.6078
21
2.04969
0
LINE
8
BLACK
6
CONTINUOUS
10
1.6078
20
2.04969
11
1.60839
21
2.0527
0
LINE
8
BLACK
6
CONTINUOUS
10
1.60839
20
2.0527
11
1.6101
21
2.05525
0
LINE
8
BLACK
6
CONTINUOUS
10
1.6101
20
2.05525
11
1.61266
21
2.05696
0
LINE
8
BLACK
6
CONTINUOUS
10
1.61266
20
2.05696
11
1.61567
21
2.05756
0
LINE
8
BLACK
6
CONTINUOUS
10
1.61567
20
2.05756
11
1.67567
21
2.05756
0
LINE
8
BLACK
6
CONTINUOUS
10
1.67567
20
2.05756
11
1.67868
21
2.05696
0
LINE
8
BLACK
6
CONTINUOUS
10
1.77868
20
2.05696
11
1.78124
21
2.05525
0
LINE
8
BLACK
6
CONTINUOUS
10
1.78124
20
2.05525
11
1.78294
21
2.0527
0
LINE
8
BLACK
6
CONTINUOUS
10
1.78294
20
2.0527
11
1.78354
21
2.04969
0
LINE
8
BLACK
6
CONTINUOUS
10
1.78354
20
2.04969
11
1.78354
21
1.98969
0
LINE
8
BLACK
6
CONTINUOUS
10
1.78354
20
1.98969
11
1.78294
21
1.98667
0
LINE
8
BLACK
6
CONTINUOUS
10
1.78294
20
1.98667
11
1.78124
21
1.98412
0
LINE
8
BLACK
6
CONTINUOUS
10
1.78124
20
1.98412
11
1.77868
21
1.98241
0
LINE
8
BLACK
6
CONTINUOUS
10
1.77868
20
1.98241
11
1.77567
21
1.98181
0
LINE
8
BLACK
6
CONTINUOUS
10
1.77567
20
1.98181
11
1.71567
21
1.98181
0
LINE
8
BLACK
6
CONTINUOUS
10
1.71567
20
1.98181
11
1.71266
21
1.98241
0
LINE
8
BLACK
6
CONTINUOUS
10
1.71266
20
1.98241
11
1.7101
21
1.98412
0
LINE
8
BLACK
6
CONTINUOUS
10
1.7101
20
1.98412
11
1.70839
21
1.98667
0
LINE
8
BLACK
6
CONTINUOUS
10
1.70839
20
1.98667
11
1.7078
21
1.98969
0
LINE
8
BLACK
6
CONTINUOUS
10
1.7078
20
1.98969
11
1.7078
21
2.04969
0
LINE
8
BLACK
6
CONTINUOUS
10
1.7078
20
2.04969
11
1.70839
21
2.0527
0
LINE
8
BLACK
6
CONTINUOUS
10
1.70839
20
2.0527
11
1.7101
21
2.05525
0
LINE
8
BLACK
6
CONTINUOUS
10
1.7101
20
2.05525
11
1.71266
21
2.05696
0
LINE
8
BLACK
6
CONTINUOUS
10
1.71266
20
2.05696
11
1.71567
21
2.05756
0
LINE
8
BLACK
6
CONTINUOUS
10
1.71567
20
2.05756
11
1.77567
21
2.05756
0
LINE
8
BLACK
6
CONTINUOUS
10
1.77567
20
2.05756
11
1.77868
21
2.05696
0
LINE
8
BLACK
6
CONTINUOUS
10
1.87868
20
2.05696
11
1.88124
21
2.05525
0
LINE
8
BLACK
6
CONTINUOUS
10
1.88124
20
2.05525
11
1.88294
21
2.0527
0
LINE
8
BLACK
6
CONTINUOUS
10
1.88294
20
2.0527
11
1.88354
21
2.04969
0
LINE
8
BLACK
6
CONTINUOUS
10
1.88354
20
2.04969
11
1.88354
21
1.98969
0
LINE
8
BLACK
6
CONTINUOUS
10
1.88354
20
1.98969
11
1.88294
21
1.98667
0
LINE
8
BLACK
6
CONTINUOUS
10
1.88294
20
1.98667
11
1.88124
21
1.98412
0
LINE
8
BLACK
6
CONTINUOUS
10
1.88124
20
1.98412
11
1.87868
21
1.98241
0
LINE
8
BLACK
6
CONTINUOUS
10
1.87868
20
1.98241
11
1.87567
21
1.98181
0
LINE
8
BLACK
6
CONTINUOUS
10
1.87567
20
1.98181
11
1.81567
21
1.98181
0
LINE
8
BLACK
6
CONTINUOUS
10
1.81567
20
1.98181
11
1.81266
21
1.98241
0
LINE
8
BLACK
6
CONTINUOUS
10
1.81266
20
1.98241
11
1.8101
21
1.98412
0
LINE
8
BLACK
6
CONTINUOUS
10
1.8101
20
1.98412
11
1.80839
21
1.98667
0
LINE
8
BLACK
6
CONTINUOUS
10
1.80839
20
1.98667
11
1.8078
21
1.98969
0
LINE
8
BLACK
6
CONTINUOUS
10
1.8078
20
1.98969
11
1.8078
21
2.04969
0
LINE
8
BLACK
6
CONTINUOUS
10
1.8078
20
2.04969
11
1.80839
21
2.0527
0
LINE
8
BLACK
6
CONTINUOUS
10
1.80839
20
2.0527
11
1.8101
21
2.05525
0
LINE
8
BLACK
6
CONTINUOUS
10
1.8101
20
2.05525
11
1.81266
21
2.05696
0
LINE
8
BLACK
6
CONTINUOUS
10
1.81266
20
2.05696
11
1.81567
21
2.05756
0
LINE
8
BLACK
6
CONTINUOUS
10
1.81567
20
2.05756
11
1.87567
21
2.05756
0
LINE
8
BLACK
6
CONTINUOUS
10
1.87567
20
2.05756
11
1.87868
21
2.05696
0
LINE
8
BLACK
6
CONTINUOUS
10
1.97868
20
2.05696
11
1.98124
21
2.05525
0
LINE
8
BLACK
6
CONTINUOUS
10
1.98124
20
2.05525
11
1.98294
21
2.0527
0
LINE
8
BLACK
6
CONTINUOUS
10
1.98294
20
2.0527
11
1.98354
21
2.04969
0
LINE
8
BLACK
6
CONTINUOUS
10
1.98354
20
2.04969
11
1.98354
21
1.98969
0
LINE
8
BLACK
6
CONTINUOUS
10
1.98354
20
1.98969
11
1.98294
21
1.98667
0
LINE
8
BLACK
6
CONTINUOUS
10
1.98294
20
1.98667
11
1.98124
21
1.98412
0
LINE
8
BLACK
6
CONTINUOUS
10
1.98124
20
1.98412
11
1.97868
21
1.98241
0
LINE
8
BLACK
6
CONTINUOUS
10
1.97868
20
1.98241
11
1.97567
21
1.98181
0
LINE
8
BLACK
6
CONTINUOUS
10
1.97567
20
1.98181
11
1.91567
21
1.98181
0
LINE
8
BLACK
6
CONTINUOUS
10
1.91567
20
1.98181
11
1.91266
21
1.98241
0
LINE
8
BLACK
6
CONTINUOUS
10
1.91266
20
1.98241
11
1.9101
21
1.98412
0
LINE
8
BLACK
6
CONTINUOUS
10
1.9101
20
1.98412
11
1.90839
21
1.98667
0
LINE
8
BLACK
6
CONTINUOUS
10
1.90839
20
1.98667
11
1.9078
21
1.98969
0
LINE
8
BLACK
6
CONTINUOUS
10
1.9078
20
1.98969
11
1.9078
21
2.04969
0
LINE
8
BLACK
6
CONTINUOUS
10
1.9078
20
2.04969
11
1.90839
21
2.0527
0
LINE
8
BLACK
6
CONTINUOUS
10
1.90839
20
2.0527
11
1.9101
21
2.05525
0
LINE
8
BLACK
6
CONTINUOUS
10
1.9101
20
2.05525
11
1.91266
21
2.05696
0
LINE
8
BLACK
6
CONTINUOUS
10
1.91266
20
2.05696
11
1.91567
21
2.05756
0
LINE
8
BLACK
6
CONTINUOUS
10
1.91567
20
2.05756
11
1.97567
21
2.05756
0
LINE
8
BLACK
6
CONTINUOUS
10
1.97567
20
2.05756
11
1.97868
21
2.05696
0
LINE
8
BLACK
6
CONTINUOUS
10
1.17868
20
2.05696
11
1.18124
21
2.05525
0
LINE
8
BLACK
6
CONTINUOUS
10
1.18124
20
2.05525
11
1.18294
21
2.0527
0
LINE
8
BLACK
6
CONTINUOUS
10
1.18294
20
2.0527
11
1.18354
21
2.04969
0
LINE
8
BLACK
6
CONTINUOUS
10
1.18354
20
2.04969
11
1.18354
21
1.98969
0
LINE
8
BLACK
6
CONTINUOUS
10
1.18354
20
1.98969
11
1.18294
21
1.98667
0
LINE
8
BLACK
6
CONTINUOUS
10
1.18294
20
1.98667
11
1.18124
21
1.98412
0
LINE
8
BLACK
6
CONTINUOUS
10
1.18124
20
1.98412
11
1.17868
21
1.98241
0
LINE
8
BLACK
6
CONTINUOUS
10
1.17868
20
1.98241
11
1.17567
21
1.98181
0
LINE
8
BLACK
6
CONTINUOUS
10
1.17567
20
1.98181
11
1.11567
21
1.98181
0
LINE
8
BLACK
6
CONTINUOUS
10
1.11567
20
1.98181
11
1.11266
21
1.98241
0
LINE
8
BLACK
6
CONTINUOUS
10
1.11266
20
1.98241
11
1.1101
21
1.98412
0
LINE
8
BLACK
6
CONTINUOUS
10
1.1101
20
1.98412
11
1.10839
21
1.98667
0
LINE
8
BLACK
6
CONTINUOUS
10
1.10839
20
1.98667
11
1.1078
21
1.98969
0
LINE
8
BLACK
6
CONTINUOUS
10
1.1078
20
1.98969
11
1.1078
21
2.04969
0
LINE
8
BLACK
6
CONTINUOUS
10
1.1078
20
2.04969
11
1.10839
21
2.0527
0
LINE
8
BLACK
6
CONTINUOUS
10
1.10839
20
2.0527
11
1.1101
21
2.05525
0
LINE
8
BLACK
6
CONTINUOUS
10
1.1101
20
2.05525
11
1.11266
21
2.05696
0
LINE
8
BLACK
6
CONTINUOUS
10
1.11266
20
2.05696
11
1.11567
21
2.05756
0
LINE
8
BLACK
6
CONTINUOUS
10
1.11567
20
2.05756
11
1.17567
21
2.05756
0
LINE
8
BLACK
6
CONTINUOUS
10
1.17567
20
2.05756
11
1.17868
21
2.05696
0
LINE
8
BLACK
6
CONTINUOUS
10
1.37868
20
2.05696
11
1.38124
21
2.05525
0
LINE
8
BLACK
6
CONTINUOUS
10
1.38124
20
2.05525
11
1.38294
21
2.0527
0
LINE
8
BLACK
6
CONTINUOUS
10
1.38294
20
2.0527
11
1.38354
21
2.04969
0
LINE
8
BLACK
6
CONTINUOUS
10
1.38354
20
2.04969
11
1.38354
21
1.98969
0
LINE
8
BLACK
6
CONTINUOUS
10
1.38354
20
1.98969
11
1.38294
21
1.98667
0
LINE
8
BLACK
6
CONTINUOUS
10
1.38294
20
1.98667
11
1.38124
21
1.98412
0
LINE
8
BLACK
6
CONTINUOUS
10
1.38124
20
1.98412
11
1.37868
21
1.98241
0
LINE
8
BLACK
6
CONTINUOUS
10
1.37868
20
1.98241
11
1.37567
21
1.98181
0
LINE
8
BLACK
6
CONTINUOUS
10
1.37567
20
1.98181
11
1.31567
21
1.98181
0
LINE
8
BLACK
6
CONTINUOUS
10
1.31567
20
1.98181
11
1.31266
21
1.98241
0
LINE
8
BLACK
6
CONTINUOUS
10
1.31266
20
1.98241
11
1.3101
21
1.98412
0
LINE
8
BLACK
6
CONTINUOUS
10
1.3101
20
1.98412
11
1.30839
21
1.98667
0
LINE
8
BLACK
6
CONTINUOUS
10
1.30839
20
1.98667
11
1.3078
21
1.98969
0
LINE
8
BLACK
6
CONTINUOUS
10
1.3078
20
1.98969
11
1.3078
21
2.04969
0
LINE
8
BLACK
6
CONTINUOUS
10
1.3078
20
2.04969
11
1.30839
21
2.0527
0
LINE
8
BLACK
6
CONTINUOUS
10
1.30839
20
2.0527
11
1.3101
21
2.05525
0
LINE
8
BLACK
6
CONTINUOUS
10
1.3101
20
2.05525
11
1.31266
21
2.05696
0
LINE
8
BLACK
6
CONTINUOUS
10
1.31266
20
2.05696
11
1.31567
21
2.05756
0
LINE
8
BLACK
6
CONTINUOUS
10
1.31567
20
2.05756
11
1.37567
21
2.05756
0
LINE
8
BLACK
6
CONTINUOUS
10
1.37567
20
2.05756
11
1.37868
21
2.05696
0
LINE
8
BLACK
6
CONTINUOUS
10
1.27868
20
2.05696
11
1.28124
21
2.05525
0
LINE
8
BLACK
6
CONTINUOUS
10
1.28124
20
2.05525
11
1.28294
21
2.0527
0
LINE
8
BLACK
6
CONTINUOUS
10
1.28294
20
2.0527
11
1.28354
21
2.04969
0
LINE
8
BLACK
6
CONTINUOUS
10
1.28354
20
2.04969
11
1.28354
21
1.98969
0
LINE
8
BLACK
6
CONTINUOUS
10
1.28354
20
1.98969
11
1.28294
21
1.98667
0
LINE
8
BLACK
6
CONTINUOUS
10
1.28294
20
1.98667
11
1.28124
21
1.98412
0
LINE
8
BLACK
6
CONTINUOUS
10
1.28124
20
1.98412
11
1.27868
21
1.98241
0
LINE
8
BLACK
6
CONTINUOUS
10
1.27868
20
1.98241
11
1.27567
21
1.98181
0
LINE
8
BLACK
6
CONTINUOUS
10
1.27567
20
1.98181
11
1.21567
21
1.98181
0
LINE
8
BLACK
6
CONTINUOUS
10
1.21567
20
1.98181
11
1.21266
21
1.98241
0
LINE
8
BLACK
6
CONTINUOUS
10
1.21266
20
1.98241
11
1.2101
21
1.98412
0
LINE
8
BLACK
6
CONTINUOUS
10
1.2101
20
1.98412
11
1.20839
21
1.98667
0
LINE
8
BLACK
6
CONTINUOUS
10
1.20839
20
1.98667
11
1.2078
21
1.98969
0
LINE
8
BLACK
6
CONTINUOUS
10
1.2078
20
1.98969
11
1.2078
21
2.04969
0
LINE
8
BLACK
6
CONTINUOUS
10
1.2078
20
2.04969
11
1.20839
21
2.0527
0
LINE
8
BLACK
6
CONTINUOUS
10
1.20839
20
2.0527
11
1.2101
21
2.05525
0
LINE
8
BLACK
6
CONTINUOUS
10
1.2101
20
2.05525
11
1.21266
21
2.05696
0
LINE
8
BLACK
6
CONTINUOUS
10
1.21266
20
2.05696
11
1.21567
21
2.05756
0
LINE
8
BLACK
6
CONTINUOUS
10
1.21567
20
2.05756
11
1.27567
21
2.05756
0
LINE
8
BLACK
6
CONTINUOUS
10
1.27567
20
2.05756
11
1.27868
21
2.05696
0
LINE
8
BLACK
6
CONTINUOUS
10
1.07868
20
2.05696
11
1.08124
21
2.05525
0
LINE
8
BLACK
6
CONTINUOUS
10
1.08124
20
2.05525
11
1.08294
21
2.0527
0
LINE
8
BLACK
6
CONTINUOUS
10
1.08294
20
2.0527
11
1.08354
21
2.04969
0
LINE
8
BLACK
6
CONTINUOUS
10
1.08354
20
2.04969
11
1.08354
21
1.98969
0
LINE
8
BLACK
6
CONTINUOUS
10
1.08354
20
1.98969
11
1.08294
21
1.98667
0
LINE
8
BLACK
6
CONTINUOUS
10
1.08294
20
1.98667
11
1.08124
21
1.98412
0
LINE
8
BLACK
6
CONTINUOUS
10
1.08124
20
1.98412
11
1.07868
21
1.98241
0
LINE
8
BLACK
6
CONTINUOUS
10
1.07868
20
1.98241
11
1.07567
21
1.98181
0
LINE
8
BLACK
6
CONTINUOUS
10
1.07567
20
1.98181
11
1.01567
21
1.98181
0
LINE
8
BLACK
6
CONTINUOUS
10
1.01567
20
1.98181
11
1.01266
21
1.98241
0
LINE
8
BLACK
6
CONTINUOUS
10
1.01266
20
1.98241
11
1.0101
21
1.98412
0
LINE
8
BLACK
6
CONTINUOUS
10
1.0101
20
1.98412
11
1.00839
21
1.98667
0
LINE
8
BLACK
6
CONTINUOUS
10
1.00839
20
1.98667
11
1.0078
21
1.98969
0
LINE
8
BLACK
6
CONTINUOUS
10
1.0078
20
1.98969
11
1.0078
21
2.04969
0
LINE
8
BLACK
6
CONTINUOUS
10
1.0078
20
2.04969
11
1.00839
21
2.0527
0
LINE
8
BLACK
6
CONTINUOUS
10
1.00839
20
2.0527
11
1.0101
21
2.05525
0
LINE
8
BLACK
6
CONTINUOUS
10
1.0101
20
2.05525
11
1.01266
21
2.05696
0
LINE
8
BLACK
6
CONTINUOUS
10
1.01266
20
2.05696
11
1.01567
21
2.05756
0
LINE
8
BLACK
6
CONTINUOUS
10
1.01567
20
2.05756
11
1.07567
21
2.05756
0
LINE
8
BLACK
6
CONTINUOUS
10
1.07567
20
2.05756
11
1.07868
21
2.05696
0
LINE
8
BLACK
6
CONTINUOUS
10
0.978683
20
2.05696
11
0.981237
21
2.05525
0
LINE
8
BLACK
6
CONTINUOUS
10
0.981237
20
2.05525
11
0.982944
21
2.0527
0
LINE
8
BLACK
6
CONTINUOUS
10
0.982944
20
2.0527
11
0.983543
21
2.04969
0
LINE
8
BLACK
6
CONTINUOUS
10
0.983543
20
2.04969
11
0.983543
21
1.98969
0
LINE
8
BLACK
6
CONTINUOUS
10
0.983543
20
1.98969
11
0.982944
21
1.98667
0
LINE
8
BLACK
6
CONTINUOUS
10
0.982944
20
1.98667
11
0.981237
21
1.98412
0
LINE
8
BLACK
6
CONTINUOUS
10
0.981237
20
1.98412
11
0.978683
21
1.98241
0
LINE
8
BLACK
6
CONTINUOUS
10
0.978683
20
1.98241
11
0.975669
21
1.98181
0
LINE
8
BLACK
6
CONTINUOUS
10
0.975669
20
1.98181
11
0.915669
21
1.98181
0
LINE
8
BLACK
6
CONTINUOUS
10
0.915669
20
1.98181
11
0.912656
21
1.98241
0
LINE
8
BLACK
6
CONTINUOUS
10
0.912656
20
1.98241
11
0.910102
21
1.98412
0
LINE
8
BLACK
6
CONTINUOUS
10
0.910102
20
1.98412
11
0.908395
21
1.98667
0
LINE
8
BLACK
6
CONTINUOUS
10
0.908395
20
1.98667
11
0.907795
21
1.98969
0
LINE
8
BLACK
6
CONTINUOUS
10
0.907795
20
1.98969
11
0.907795
21
2.04969
0
LINE
8
BLACK
6
CONTINUOUS
10
0.907795
20
2.04969
11
0.908395
21
2.0527
0
LINE
8
BLACK
6
CONTINUOUS
10
0.908395
20
2.0527
11
0.910102
21
2.05525
0
LINE
8
BLACK
6
CONTINUOUS
10
0.910102
20
2.05525
11
0.912656
21
2.05696
0
LINE
8
BLACK
6
CONTINUOUS
10
0.912656
20
2.05696
11
0.915669
21
2.05756
0
LINE
8
BLACK
6
CONTINUOUS
10
0.915669
20
2.05756
11
0.975669
21
2.05756
0
LINE
8
BLACK
6
CONTINUOUS
10
0.975669
20
2.05756
11
0.978683
21
2.05696
0
LINE
8
BLACK
6
CONTINUOUS
10
0.878683
20
2.05696
11
0.881237
21
2.05525
0
LINE
8
BLACK
6
CONTINUOUS
10
0.881237
20
2.05525
11
0.882944
21
2.0527
0
LINE
8
BLACK
6
CONTINUOUS
10
0.882944
20
2.0527
11
0.883543
21
2.04969
0
LINE
8
BLACK
6
CONTINUOUS
10
0.883543
20
2.04969
11
0.883543
21
1.98969
0
LINE
8
BLACK
6
CONTINUOUS
10
0.883543
20
1.98969
11
0.882944
21
1.98667
0
LINE
8
BLACK
6
CONTINUOUS
10
0.882944
20
1.98667
11
0.881237
21
1.98412
0
LINE
8
BLACK
6
CONTINUOUS
10
0.881237
20
1.98412
11
0.878683
21
1.98241
0
LINE
8
BLACK
6
CONTINUOUS
10
0.878683
20
1.98241
11
0.875669
21
1.98181
0
LINE
8
BLACK
6
CONTINUOUS
10
0.875669
20
1.98181
11
0.815669
21
1.98181
0
LINE
8
BLACK
6
CONTINUOUS
10
0.815669
20
1.98181
11
0.812656
21
1.98241
0
LINE
8
BLACK
6
CONTINUOUS
10
0.812656
20
1.98241
11
0.810102
21
1.98412
0
LINE
8
BLACK
6
CONTINUOUS
10
0.810102
20
1.98412
11
0.808395
21
1.98667
0
LINE
8
BLACK
6
CONTINUOUS
10
0.808395
20
1.98667
11
0.807795
21
1.98969
0
LINE
8
BLACK
6
CONTINUOUS
10
0.807795
20
1.98969
11
0.807795
21
2.04969
0
LINE
8
BLACK
6
CONTINUOUS
10
0.807795
20
2.04969
11
0.808395
21
2.0527
0
LINE
8
BLACK
6
CONTINUOUS
10
0.808395
20
2.0527
11
0.810102
21
2.05525
0
LINE
8
BLACK
6
CONTINUOUS
10
0.810102
20
2.05525
11
0.812656
21
2.05696
0
LINE
8
BLACK
6
CONTINUOUS
10
0.812656
20
2.05696
11
0.815669
21
2.05756
0
LINE
8
BLACK
6
CONTINUOUS
10
0.815669
20
2.05756
11
0.875669
21
2.05756
0
LINE
8
BLACK
6
CONTINUOUS
10
0.875669
20
2.05756
11
0.878683
21
2.05696
0
LINE
8
BLACK
6
CONTINUOUS
10
0.778683
20
2.05696
11
0.781237
21
2.05525
0
LINE
8
BLACK
6
CONTINUOUS
10
0.781237
20
2.05525
11
0.782944
21
2.0527
0
LINE
8
BLACK
6
CONTINUOUS
10
0.782944
20
2.0527
11
0.783543
21
2.04969
0
LINE
8
BLACK
6
CONTINUOUS
10
0.783543
20
2.04969
11
0.783543
21
1.98969
0
LINE
8
BLACK
6
CONTINUOUS
10
0.783543
20
1.98969
11
0.782944
21
1.98667
0
LINE
8
BLACK
6
CONTINUOUS
10
0.782944
20
1.98667
11
0.781237
21
1.98412
0
LINE
8
BLACK
6
CONTINUOUS
10
0.781237
20
1.98412
11
0.778683
21
1.98241
0
LINE
8
BLACK
6
CONTINUOUS
10
0.778683
20
1.98241
11
0.775669
21
1.98181
0
LINE
8
BLACK
6
CONTINUOUS
10
0.775669
20
1.98181
11
0.715669
21
1.98181
0
LINE
8
BLACK
6
CONTINUOUS
10
0.715669
20
1.98181
11
0.712656
21
1.98241
0
LINE
8
BLACK
6
CONTINUOUS
10
0.712656
20
1.98241
11
0.710102
21
1.98412
0
LINE
8
BLACK
6
CONTINUOUS
10
0.710102
20
1.98412
11
0.708395
21
1.98667
0
LINE
8
BLACK
6
CONTINUOUS
10
0.708395
20
1.98667
11
0.707795
21
1.98969
0
LINE
8
BLACK
6
CONTINUOUS
10
0.707795
20
1.98969
11
0.707795
21
2.04969
0
LINE
8
BLACK
6
CONTINUOUS
10
0.707795
20
2.04969
11
0.708395
21
2.0527
0
LINE
8
BLACK
6
CONTINUOUS
10
0.708395
20
2.0527
11
0.710102
21
2.05525
0
LINE
8
BLACK
6
CONTINUOUS
10
0.710102
20
2.05525
11
0.712656
21
2.05696
0
LINE
8
BLACK
6
CONTINUOUS
10
0.712656
20
2.05696
11
0.715669
21
2.05756
0
LINE
8
BLACK
6
CONTINUOUS
10
0.715669
20
2.05756
11
0.775669
21
2.05756
0
LINE
8
BLACK
6
CONTINUOUS
10
0.775669
20
2.05756
11
0.778683
21
2.05696
0
LINE
8
BLACK
6
CONTINUOUS
10
0.678683
20
2.05696
11
0.681237
21
2.05525
0
LINE
8
BLACK
6
CONTINUOUS
10
0.681237
20
2.05525
11
0.682944
21
2.0527
0
LINE
8
BLACK
6
CONTINUOUS
10
0.682944
20
2.0527
11
0.683543
21
2.04969
0
LINE
8
BLACK
6
CONTINUOUS
10
0.683543
20
2.04969
11
0.683543
21
1.98969
0
LINE
8
BLACK
6
CONTINUOUS
10
0.683543
20
1.98969
11
0.682944
21
1.98667
0
LINE
8
BLACK
6
CONTINUOUS
10
0.682944
20
1.98667
11
0.681237
21
1.98412
0
LINE
8
BLACK
6
CONTINUOUS
10
0.681237
20
1.98412
11
0.678683
21
1.98241
0
LINE
8
BLACK
6
CONTINUOUS
10
0.678683
20
1.98241
11
0.675669
21
1.98181
0
LINE
8
BLACK
6
CONTINUOUS
10
0.675669
20
1.98181
11
0.615669
21
1.98181
0
LINE
8
BLACK
6
CONTINUOUS
10
0.615669
20
1.98181
11
0.612656
21
1.98241
0
LINE
8
BLACK
6
CONTINUOUS
10
0.612656
20
1.98241
11
0.610102
21
1.98412
0
LINE
8
BLACK
6
CONTINUOUS
10
0.610102
20
1.98412
11
0.608395
21
1.98667
0
LINE
8
BLACK
6
CONTINUOUS
10
0.608395
20
1.98667
11
0.607795
21
1.98969
0
LINE
8
BLACK
6
CONTINUOUS
10
0.607795
20
1.98969
11
0.607795
21
2.04969
0
LINE
8
BLACK
6
CONTINUOUS
10
0.607795
20
2.04969
11
0.608395
21
2.0527
0
LINE
8
BLACK
6
CONTINUOUS
10
0.608395
20
2.0527
11
0.610102
21
2.05525
0
LINE
8
BLACK
6
CONTINUOUS
10
0.610102
20
2.05525
11
0.612656
21
2.05696
0
LINE
8
BLACK
6
CONTINUOUS
10
0.612656
20
2.05696
11
0.615669
21
2.05756
0
LINE
8
BLACK
6
CONTINUOUS
10
0.615669
20
2.05756
11
0.675669
21
2.05756
0
LINE
8
BLACK
6
CONTINUOUS
10
0.675669
20
2.05756
11
0.678683
21
2.05696
0
LINE
8
BLACK
6
CONTINUOUS
10
0.478683
20
2.05696
11
0.481237
21
2.05525
0
LINE
8
BLACK
6
CONTINUOUS
10
0.481237
20
2.05525
11
0.482944
21
2.0527
0
LINE
8
BLACK
6
CONTINUOUS
10
0.482944
20
2.0527
11
0.483543
21
2.04969
0
LINE
8
BLACK
6
CONTINUOUS
10
0.483543
20
2.04969
11
0.483543
21
1.98969
0
LINE
8
BLACK
6
CONTINUOUS
10
0.483543
20
1.98969
11
0.482944
21
1.98667
0
LINE
8
BLACK
6
CONTINUOUS
10
0.482944
20
1.98667
11
0.481237
21
1.98412
0
LINE
8
BLACK
6
CONTINUOUS
10
0.481237
20
1.98412
11
0.478683
21
1.98241
0
LINE
8
BLACK
6
CONTINUOUS
10
0.478683
20
1.98241
11
0.475669
21
1.98181
0
LINE
8
BLACK
6
CONTINUOUS
10
0.475669
20
1.98181
11
0.415669
21
1.98181
0
LINE
8
BLACK
6
CONTINUOUS
10
0.415669
20
1.98181
11
0.412656
21
1.98241
0
LINE
8
BLACK
6
CONTINUOUS
10
0.412656
20
1.98241
11
0.410102
21
1.98412
0
LINE
8
BLACK
6
CONTINUOUS
10
0.410102
20
1.98412
11
0.408395
21
1.98667
0
LINE
8
BLACK
6
CONTINUOUS
10
0.408395
20
1.98667
11
0.407795
21
1.98969
0
LINE
8
BLACK
6
CONTINUOUS
10
0.407795
20
1.98969
11
0.407795
21
2.04969
0
LINE
8
BLACK
6
CONTINUOUS
10
0.407795
20
2.04969
11
0.408395
21
2.0527
0
LINE
8
BLACK
6
CONTINUOUS
10
0.408395
20
2.0527
11
0.410102
21
2.05525
0
LINE
8
BLACK
6
CONTINUOUS
10
0.410102
20
2.05525
11
0.412656
21
2.05696
0
LINE
8
BLACK
6
CONTINUOUS
10
0.412656
20
2.05696
11
0.415669
21
2.05756
0
LINE
8
BLACK
6
CONTINUOUS
10
0.415669
20
2.05756
11
0.475669
21
2.05756
0
LINE
8
BLACK
6
CONTINUOUS
10
0.475669
20
2.05756
11
0.478683
21
2.05696
0
LINE
8
BLACK
6
CONTINUOUS
10
0.378683
20
2.05696
11
0.381237
21
2.05525
0
LINE
8
BLACK
6
CONTINUOUS
10
0.381237
20
2.05525
11
0.382944
21
2.0527
0
LINE
8
BLACK
6
CONTINUOUS
10
0.382944
20
2.0527
11
0.383543
21
2.04969
0
LINE
8
BLACK
6
CONTINUOUS
10
0.383543
20
2.04969
11
0.383543
21
1.98969
0
LINE
8
BLACK
6
CONTINUOUS
10
0.383543
20
1.98969
11
0.382944
21
1.98667
0
LINE
8
BLACK
6
CONTINUOUS
10
0.382944
20
1.98667
11
0.381237
21
1.98412
0
LINE
8
BLACK
6
CONTINUOUS
10
0.381237
20
1.98412
11
0.378683
21
1.98241
0
LINE
8
BLACK
6
CONTINUOUS
10
0.378683
20
1.98241
11
0.375669
21
1.98181
0
LINE
8
BLACK
6
CONTINUOUS
10
0.375669
20
1.98181
11
0.315669
21
1.98181
0
LINE
8
BLACK
6
CONTINUOUS
10
0.315669
20
1.98181
11
0.312656
21
1.98241
0
LINE
8
BLACK
6
CONTINUOUS
10
0.312656
20
1.98241
11
0.310102
21
1.98412
0
LINE
8
BLACK
6
CONTINUOUS
10
0.310102
20
1.98412
11
0.308395
21
1.98667
0
LINE
8
BLACK
6
CONTINUOUS
10
0.308395
20
1.98667
11
0.307795
21
1.98969
0
LINE
8
BLACK
6
CONTINUOUS
10
0.307795
20
1.98969
11
0.307795
21
2.04969
0
LINE
8
BLACK
6
CONTINUOUS
10
0.307795
20
2.04969
11
0.308395
21
2.0527
0
LINE
8
BLACK
6
CONTINUOUS
10
0.308395
20
2.0527
11
0.310102
21
2.05525
0
LINE
8
BLACK
6
CONTINUOUS
10
0.310102
20
2.05525
11
0.312656
21
2.05696
0
LINE
8
BLACK
6
CONTINUOUS
10
0.312656
20
2.05696
11
0.315669
21
2.05756
0
LINE
8
BLACK
6
CONTINUOUS
10
0.315669
20
2.05756
11
0.375669
21
2.05756
0
LINE
8
BLACK
6
CONTINUOUS
10
0.375669
20
2.05756
11
0.378683
21
2.05696
0
LINE
8
BLACK
6
CONTINUOUS
10
0.278683
20
2.05696
11
0.281237
21
2.05525
0
LINE
8
BLACK
6
CONTINUOUS
10
0.281237
20
2.05525
11
0.282944
21
2.0527
0
LINE
8
BLACK
6
CONTINUOUS
10
0.282944
20
2.0527
11
0.283543
21
2.04969
0
LINE
8
BLACK
6
CONTINUOUS
10
0.283543
20
2.04969
11
0.283543
21
1.98969
0
LINE
8
BLACK
6
CONTINUOUS
10
0.283543
20
1.98969
11
0.282944
21
1.98667
0
LINE
8
BLACK
6
CONTINUOUS
10
0.282944
20
1.98667
11
0.281237
21
1.98412
0
LINE
8
BLACK
6
CONTINUOUS
10
0.281237
20
1.98412
11
0.278683
21
1.98241
0
LINE
8
BLACK
6
CONTINUOUS
10
0.278683
20
1.98241
11
0.275669
21
1.98181
0
LINE
8
BLACK
6
CONTINUOUS
10
0.275669
20
1.98181
11
0.215669
21
1.98181
0
LINE
8
BLACK
6
CONTINUOUS
10
0.215669
20
1.98181
11
0.212656
21
1.98241
0
LINE
8
BLACK
6
CONTINUOUS
10
0.212656
20
1.98241
11
0.210102
21
1.98412
0
LINE
8
BLACK
6
CONTINUOUS
10
0.210102
20
1.98412
11
0.208395
21
1.98667
0
LINE
8
BLACK
6
CONTINUOUS
10
0.208395
20
1.98667
11
0.207795
21
1.98969
0
LINE
8
BLACK
6
CONTINUOUS
10
0.207795
20
1.98969
11
0.207795
21
2.04969
0
LINE
8
BLACK
6
CONTINUOUS
10
0.207795
20
2.04969
11
0.208395
21
2.0527
0
LINE
8
BLACK
6
CONTINUOUS
10
0.208395
20
2.0527
11
0.210102
21
2.05525
0
LINE
8
BLACK
6
CONTINUOUS
10
0.210102
20
2.05525
11
0.212656
21
2.05696
0
LINE
8
BLACK
6
CONTINUOUS
10
0.212656
20
2.05696
11
0.215669
21
2.05756
0
LINE
8
BLACK
6
CONTINUOUS
10
0.215669
20
2.05756
11
0.275669
21
2.05756
0
LINE
8
BLACK
6
CONTINUOUS
10
0.275669
20
2.05756
11
0.278683
21
2.05696
0
LINE
8
BLACK
6
CONTINUOUS
10
0.178683
20
2.05696
11
0.181237
21
2.05525
0
LINE
8
BLACK
6
CONTINUOUS
10
0.181237
20
2.05525
11
0.182944
21
2.0527
0
LINE
8
BLACK
6
CONTINUOUS
10
0.182944
20
2.0527
11
0.183543
21
2.04969
0
LINE
8
BLACK
6
CONTINUOUS
10
0.183543
20
2.04969
11
0.183543
21
1.98969
0
LINE
8
BLACK
6
CONTINUOUS
10
0.183543
20
1.98969
11
0.182944
21
1.98667
0
LINE
8
BLACK
6
CONTINUOUS
10
0.182944
20
1.98667
11
0.181237
21
1.98412
0
LINE
8
BLACK
6
CONTINUOUS
10
0.181237
20
1.98412
11
0.178683
21
1.98241
0
LINE
8
BLACK
6
CONTINUOUS
10
0.178683
20
1.98241
11
0.175669
21
1.98181
0
LINE
8
BLACK
6
CONTINUOUS
10
0.175669
20
1.98181
11
0.115669
21
1.98181
0
LINE
8
BLACK
6
CONTINUOUS
10
0.115669
20
1.98181
11
0.112656
21
1.98241
0
LINE
8
BLACK
6
CONTINUOUS
10
0.112656
20
1.98241
11
0.110102
21
1.98412
0
LINE
8
BLACK
6
CONTINUOUS
10
0.110102
20
1.98412
11
0.108395
21
1.98667
0
LINE
8
BLACK
6
CONTINUOUS
10
0.108395
20
1.98667
11
0.107795
21
1.98969
0
LINE
8
BLACK
6
CONTINUOUS
10
0.107795
20
1.98969
11
0.107795
21
2.04969
0
LINE
8
BLACK
6
CONTINUOUS
10
0.107795
20
2.04969
11
0.108395
21
2.0527
0
LINE
8
BLACK
6
CONTINUOUS
10
0.108395
20
2.0527
11
0.110102
21
2.05525
0
LINE
8
BLACK
6
CONTINUOUS
10
0.110102
20
2.05525
11
0.112656
21
2.05696
0
LINE
8
BLACK
6
CONTINUOUS
10
0.112656
20
2.05696
11
0.115669
21
2.05756
0
LINE
8
BLACK
6
CONTINUOUS
10
0.115669
20
2.05756
11
0.175669
21
2.05756
0
LINE
8
BLACK
6
CONTINUOUS
10
0.175669
20
2.05756
11
0.178683
21
2.05696
0
LINE
8
BLACK
6
CONTINUOUS
10
0.578683
20
2.05696
11
0.581237
21
2.05525
0
LINE
8
BLACK
6
CONTINUOUS
10
0.581237
20
2.05525
11
0.582944
21
2.0527
0
LINE
8
BLACK
6
CONTINUOUS
10
0.582944
20
2.0527
11
0.583543
21
2.04969
0
LINE
8
BLACK
6
CONTINUOUS
10
0.583543
20
2.04969
11
0.583543
21
1.98969
0
LINE
8
BLACK
6
CONTINUOUS
10
0.583543
20
1.98969
11
0.582944
21
1.98667
0
LINE
8
BLACK
6
CONTINUOUS
10
0.582944
20
1.98667
11
0.581237
21
1.98412
0
LINE
8
BLACK
6
CONTINUOUS
10
0.581237
20
1.98412
11
0.578683
21
1.98241
0
LINE
8
BLACK
6
CONTINUOUS
10
0.578683
20
1.98241
11
0.575669
21
1.98181
0
LINE
8
BLACK
6
CONTINUOUS
10
0.575669
20
1.98181
11
0.515669
21
1.98181
0
LINE
8
BLACK
6
CONTINUOUS
10
0.515669
20
1.98181
11
0.512656
21
1.98241
0
LINE
8
BLACK
6
CONTINUOUS
10
0.512656
20
1.98241
11
0.510102
21
1.98412
0
LINE
8
BLACK
6
CONTINUOUS
10
0.510102
20
1.98412
11
0.508395
21
1.98667
0
LINE
8
BLACK
6
CONTINUOUS
10
0.508395
20
1.98667
11
0.507795
21
1.98969
0
LINE
8
BLACK
6
CONTINUOUS
10
0.507795
20
1.98969
11
0.507795
21
2.04969
0
LINE
8
BLACK
6
CONTINUOUS
10
0.507795
20
2.04969
11
0.508395
21
2.0527
0
LINE
8
BLACK
6
CONTINUOUS
10
0.508395
20
2.0527
11
0.510102
21
2.05525
0
LINE
8
BLACK
6
CONTINUOUS
10
0.510102
20
2.05525
11
0.512656
21
2.05696
0
LINE
8
BLACK
6
CONTINUOUS
10
0.512656
20
2.05696
11
0.515669
21
2.05756
0
LINE
8
BLACK
6
CONTINUOUS
10
0.515669
20
2.05756
11
0.575669
21
2.05756
0
LINE
8
BLACK
6
CONTINUOUS
10
0.575669
20
2.05756
11
0.578683
21
2.05696
0
LINE
8
BLACK
6
CONTINUOUS
10
1.47868
20
2.05696
11
1.48124
21
2.05525
0
LINE
8
BLACK
6
CONTINUOUS
10
1.48124
20
2.05525
11
1.48294
21
2.0527
0
LINE
8
BLACK
6
CONTINUOUS
10
1.48294
20
2.0527
11
1.48354
21
2.04969
0
LINE
8
BLACK
6
CONTINUOUS
10
1.48354
20
2.04969
11
1.48354
21
1.98969
0
LINE
8
BLACK
6
CONTINUOUS
10
1.48354
20
1.98969
11
1.48294
21
1.98667
0
LINE
8
BLACK
6
CONTINUOUS
10
1.48294
20
1.98667
11
1.48124
21
1.98412
0
LINE
8
BLACK
6
CONTINUOUS
10
1.48124
20
1.98412
11
1.47868
21
1.98241
0
LINE
8
BLACK
6
CONTINUOUS
10
1.47868
20
1.98241
11
1.47567
21
1.98181
0
LINE
8
BLACK
6
CONTINUOUS
10
1.47567
20
1.98181
11
1.41567
21
1.98181
0
LINE
8
BLACK
6
CONTINUOUS
10
1.41567
20
1.98181
11
1.41266
21
1.98241
0
LINE
8
BLACK
6
CONTINUOUS
10
1.41266
20
1.98241
11
1.4101
21
1.98412
0
LINE
8
BLACK
6
CONTINUOUS
10
1.4101
20
1.98412
11
1.40839
21
1.98667
0
LINE
8
BLACK
6
CONTINUOUS
10
1.40839
20
1.98667
11
1.4078
21
1.98969
0
LINE
8
BLACK
6
CONTINUOUS
10
1.4078
20
1.98969
11
1.4078
21
2.04969
0
LINE
8
BLACK
6
CONTINUOUS
10
1.4078
20
2.04969
11
1.40839
21
2.0527
0
LINE
8
BLACK
6
CONTINUOUS
10
1.40839
20
2.0527
11
1.4101
21
2.05525
0
LINE
8
BLACK
6
CONTINUOUS
10
1.4101
20
2.05525
11
1.41266
21
2.05696
0
LINE
8
BLACK
6
CONTINUOUS
10
1.41266
20
2.05696
11
1.41567
21
2.05756
0
LINE
8
BLACK
6
CONTINUOUS
10
1.41567
20
2.05756
11
1.47567
21
2.05756
0
LINE
8
BLACK
6
CONTINUOUS
10
1.47567
20
2.05756
11
1.47868
21
2.05696
0
LINE
8
BLACK
6
CONTINUOUS
10
0.0786826
20
2.05696
11
0.081237
21
2.05525
0
LINE
8
BLACK
6
CONTINUOUS
10
0.081237
20
2.05525
11
0.0829439
21
2.0527
0
LINE
8
BLACK
6
CONTINUOUS
10
0.0829439
20
2.0527
11
0.0835433
21
2.04969
0
LINE
8
BLACK
6
CONTINUOUS
10
0.0835433
20
2.04969
11
0.0835433
21
1.98969
0
LINE
8
BLACK
6
CONTINUOUS
10
0.0835433
20
1.98969
11
0.0829439
21
1.98667
0
LINE
8
BLACK
6
CONTINUOUS
10
0.0829439
20
1.98667
11
0.081237
21
1.98412
0
LINE
8
BLACK
6
CONTINUOUS
10
0.081237
20
1.98412
11
0.0786826
21
1.98241
0
LINE
8
BLACK
6
CONTINUOUS
10
0.0786826
20
1.98241
11
0.0756693
21
1.98181
0
LINE
8
BLACK
6
CONTINUOUS
10
0.0756693
20
1.98181
11
0.0156693
21
1.98181
0
LINE
8
BLACK
6
CONTINUOUS
10
0.0156693
20
1.98181
11
0.012656
21
1.98241
0
LINE
8
BLACK
6
CONTINUOUS
10
0.012656
20
1.98241
11
0.0101015
21
1.98412
0
LINE
8
BLACK
6
CONTINUOUS
10
0.0101015
20
1.98412
11
0.00839465
21
1.98667
0
LINE
8
BLACK
6
CONTINUOUS
10
0.00839465
20
1.98667
11
0.00779528
21
1.98969
0
LINE
8
BLACK
6
CONTINUOUS
10
0.00779528
20
1.98969
11
0.00779528
21
2.04969
0
LINE
8
BLACK
6
CONTINUOUS
10
0.00779528
20
2.04969
11
0.00839465
21
2.0527
0
LINE
8
BLACK
6
CONTINUOUS
10
0.00839465
20
2.0527
11
0.0101015
21
2.05525
0
LINE
8
BLACK
6
CONTINUOUS
10
0.0101015
20
2.05525
11
0.012656
21
2.05696
0
LINE
8
BLACK
6
CONTINUOUS
10
0.012656
20
2.05696
11
0.0156693
21
2.05756
0
LINE
8
BLACK
6
CONTINUOUS
10
0.0156693
20
2.05756
11
0.0756693
21
2.05756
0
LINE
8
BLACK
6
CONTINUOUS
10
0.0756693
20
2.05756
11
0.0786826
21
2.05696
0
LINE
8
BLACK
6
CONTINUOUS
10
1.69207
20
2.20263
11
1.69462
21
2.20092
0
LINE
8
BLACK
6
CONTINUOUS
10
1.69462
20
2.20092
11
1.69633
21
2.19837
0
LINE
8
BLACK
6
CONTINUOUS
10
1.69633
20
2.19837
11
1.69693
21
2.19535
0
LINE
8
BLACK
6
CONTINUOUS
10
1.69693
20
2.19535
11
1.69693
21
2.13535
0
LINE
8
BLACK
6
CONTINUOUS
10
1.69693
20
2.13535
11
1.69633
21
2.13234
0
LINE
8
BLACK
6
CONTINUOUS
10
1.69633
20
2.13234
11
1.69462
21
2.12979
0
LINE
8
BLACK
6
CONTINUOUS
10
1.69462
20
2.12979
11
1.69207
21
2.12808
0
LINE
8
BLACK
6
CONTINUOUS
10
1.69207
20
2.12808
11
1.68906
21
2.12748
0
LINE
8
BLACK
6
CONTINUOUS
10
1.68906
20
2.12748
11
1.62906
21
2.12748
0
LINE
8
BLACK
6
CONTINUOUS
10
1.62906
20
2.12748
11
1.62604
21
2.12808
0
LINE
8
BLACK
6
CONTINUOUS
10
1.62604
20
2.12808
11
1.62349
21
2.12979
0
LINE
8
BLACK
6
CONTINUOUS
10
1.62349
20
2.12979
11
1.62178
21
2.13234
0
LINE
8
BLACK
6
CONTINUOUS
10
1.62178
20
2.13234
11
1.62118
21
2.13535
0
LINE
8
BLACK
6
CONTINUOUS
10
1.62118
20
2.13535
11
1.62118
21
2.19535
0
LINE
8
BLACK
6
CONTINUOUS
10
1.62118
20
2.19535
11
1.62178
21
2.19837
0
LINE
8
BLACK
6
CONTINUOUS
10
1.62178
20
2.19837
11
1.62349
21
2.20092
0
LINE
8
BLACK
6
CONTINUOUS
10
1.62349
20
2.20092
11
1.62604
21
2.20263
0
LINE
8
BLACK
6
CONTINUOUS
10
1.62604
20
2.20263
11
1.62906
21
2.20323
0
LINE
8
BLACK
6
CONTINUOUS
10
1.62906
20
2.20323
11
1.68906
21
2.20323
0
LINE
8
BLACK
6
CONTINUOUS
10
1.68906
20
2.20323
11
1.69207
21
2.20263
0
LINE
8
BLACK
6
CONTINUOUS
10
1.59207
20
2.20263
11
1.59462
21
2.20092
0
LINE
8
BLACK
6
CONTINUOUS
10
1.59462
20
2.20092
11
1.59633
21
2.19837
0
LINE
8
BLACK
6
CONTINUOUS
10
1.59633
20
2.19837
11
1.59693
21
2.19535
0
LINE
8
BLACK
6
CONTINUOUS
10
1.59693
20
2.19535
11
1.59693
21
2.13535
0
LINE
8
BLACK
6
CONTINUOUS
10
1.59693
20
2.13535
11
1.59633
21
2.13234
0
LINE
8
BLACK
6
CONTINUOUS
10
1.59633
20
2.13234
11
1.59462
21
2.12979
0
LINE
8
BLACK
6
CONTINUOUS
10
1.59462
20
2.12979
11
1.59207
21
2.12808
0
LINE
8
BLACK
6
CONTINUOUS
10
1.59207
20
2.12808
11
1.58906
21
2.12748
0
LINE
8
BLACK
6
CONTINUOUS
10
1.58906
20
2.12748
11
1.52906
21
2.12748
0
LINE
8
BLACK
6
CONTINUOUS
10
1.52906
20
2.12748
11
1.52604
21
2.12808
0
LINE
8
BLACK
6
CONTINUOUS
10
1.52604
20
2.12808
11
1.52349
21
2.12979
0
LINE
8
BLACK
6
CONTINUOUS
10
1.52349
20
2.12979
11
1.52178
21
2.13234
0
LINE
8
BLACK
6
CONTINUOUS
10
1.52178
20
2.13234
11
1.52118
21
2.13535
0
LINE
8
BLACK
6
CONTINUOUS
10
1.52118
20
2.13535
11
1.52118
21
2.19535
0
LINE
8
BLACK
6
CONTINUOUS
10
1.52118
20
2.19535
11
1.52178
21
2.19837
0
LINE
8
BLACK
6
CONTINUOUS
10
1.52178
20
2.19837
11
1.52349
21
2.20092
0
LINE
8
BLACK
6
CONTINUOUS
10
1.52349
20
2.20092
11
1.52604
21
2.20263
0
LINE
8
BLACK
6
CONTINUOUS
10
1.52604
20
2.20263
11
1.52906
21
2.20323
0
LINE
8
BLACK
6
CONTINUOUS
10
1.52906
20
2.20323
11
1.58906
21
2.20323
0
LINE
8
BLACK
6
CONTINUOUS
10
1.58906
20
2.20323
11
1.59207
21
2.20263
0
LINE
8
BLACK
6
CONTINUOUS
10
1.49207
20
2.20263
11
1.49462
21
2.20092
0
LINE
8
BLACK
6
CONTINUOUS
10
1.49462
20
2.20092
11
1.49633
21
2.19837
0
LINE
8
BLACK
6
CONTINUOUS
10
1.49633
20
2.19837
11
1.49693
21
2.19535
0
LINE
8
BLACK
6
CONTINUOUS
10
1.49693
20
2.19535
11
1.49693
21
2.13535
0
LINE
8
BLACK
6
CONTINUOUS
10
1.49693
20
2.13535
11
1.49633
21
2.13234
0
LINE
8
BLACK
6
CONTINUOUS
10
1.49633
20
2.13234
11
1.49462
21
2.12979
0
LINE
8
BLACK
6
CONTINUOUS
10
1.49462
20
2.12979
11
1.49207
21
2.12808
0
LINE
8
BLACK
6
CONTINUOUS
10
1.49207
20
2.12808
11
1.48906
21
2.12748
0
LINE
8
BLACK
6
CONTINUOUS
10
1.48906
20
2.12748
11
1.42906
21
2.12748
0
LINE
8
BLACK
6
CONTINUOUS
10
1.42906
20
2.12748
11
1.42604
21
2.12808
0
LINE
8
BLACK
6
CONTINUOUS
10
1.42604
20
2.12808
11
1.42349
21
2.12979
0
LINE
8
BLACK
6
CONTINUOUS
10
1.42349
20
2.12979
11
1.42178
21
2.13234
0
LINE
8
BLACK
6
CONTINUOUS
10
1.42178
20
2.13234
11
1.42118
21
2.13535
0
LINE
8
BLACK
6
CONTINUOUS
10
1.42118
20
2.13535
11
1.42118
21
2.19535
0
LINE
8
BLACK
6
CONTINUOUS
10
1.42118
20
2.19535
11
1.42178
21
2.19837
0
LINE
8
BLACK
6
CONTINUOUS
10
1.42178
20
2.19837
11
1.42349
21
2.20092
0
LINE
8
BLACK
6
CONTINUOUS
10
1.42349
20
2.20092
11
1.42604
21
2.20263
0
LINE
8
BLACK
6
CONTINUOUS
10
1.42604
20
2.20263
11
1.42906
21
2.20323
0
LINE
8
BLACK
6
CONTINUOUS
10
1.42906
20
2.20323
11
1.48906
21
2.20323
0
LINE
8
BLACK
6
CONTINUOUS
10
1.48906
20
2.20323
11
1.49207
21
2.20263
0
LINE
8
BLACK
6
CONTINUOUS
10
0.983328
20
2.23365
11
0.985883
21
2.23195
0
LINE
8
BLACK
6
CONTINUOUS
10
0.985883
20
2.23195
11
0.98759
21
2.22939
0
LINE
8
BLACK
6
CONTINUOUS
10
0.98759
20
2.22939
11
0.988189
21
2.22638
0
LINE
8
BLACK
6
CONTINUOUS
10
0.988189
20
2.22638
11
0.988189
21
2.15945
0
LINE
8
BLACK
6
CONTINUOUS
10
0.988189
20
2.15945
11
0.98759
21
2.15644
0
LINE
8
BLACK
6
CONTINUOUS
10
0.98759
20
2.15644
11
0.985883
21
2.15388
0
LINE
8
BLACK
6
CONTINUOUS
10
0.985883
20
2.15388
11
0.983328
21
2.15217
0
LINE
8
BLACK
6
CONTINUOUS
10
0.983328
20
2.15217
11
0.980315
21
2.15157
0
LINE
8
BLACK
6
CONTINUOUS
10
0.980315
20
2.15157
11
0.929134
21
2.15157
0
LINE
8
BLACK
6
CONTINUOUS
10
0.929134
20
2.15157
11
0.926121
21
2.15217
0
LINE
8
BLACK
6
CONTINUOUS
10
0.926121
20
2.15217
11
0.923566
21
2.15388
0
LINE
8
BLACK
6
CONTINUOUS
10
0.923566
20
2.15388
11
0.921859
21
2.15644
0
LINE
8
BLACK
6
CONTINUOUS
10
0.921859
20
2.15644
11
0.92126
21
2.15945
0
LINE
8
BLACK
6
CONTINUOUS
10
0.92126
20
2.15945
11
0.92126
21
2.22638
0
LINE
8
BLACK
6
CONTINUOUS
10
0.92126
20
2.22638
11
0.921859
21
2.22939
0
LINE
8
BLACK
6
CONTINUOUS
10
0.921859
20
2.22939
11
0.923566
21
2.23195
0
LINE
8
BLACK
6
CONTINUOUS
10
0.923566
20
2.23195
11
0.926121
21
2.23365
0
LINE
8
BLACK
6
CONTINUOUS
10
0.926121
20
2.23365
11
0.929134
21
2.23425
0
LINE
8
BLACK
6
CONTINUOUS
10
0.929134
20
2.23425
11
0.980315
21
2.23425
0
LINE
8
BLACK
6
CONTINUOUS
10
0.980315
20
2.23425
11
0.983328
21
2.23365
0
LINE
8
BLACK
6
CONTINUOUS
10
0.845533
20
2.23365
11
0.848087
21
2.23195
0
LINE
8
BLACK
6
CONTINUOUS
10
0.848087
20
2.23195
11
0.849794
21
2.22939
0
LINE
8
BLACK
6
CONTINUOUS
10
0.849794
20
2.22939
11
0.850394
21
2.22638
0
LINE
8
BLACK
6
CONTINUOUS
10
0.850394
20
2.22638
11
0.850394
21
2.15945
0
LINE
8
BLACK
6
CONTINUOUS
10
0.850394
20
2.15945
11
0.849794
21
2.15644
0
LINE
8
BLACK
6
CONTINUOUS
10
0.849794
20
2.15644
11
0.848087
21
2.15388
0
LINE
8
BLACK
6
CONTINUOUS
10
0.848087
20
2.15388
11
0.845533
21
2.15217
0
LINE
8
BLACK
6
CONTINUOUS
10
0.845533
20
2.15217
11
0.84252
21
2.15157
0
LINE
8
BLACK
6
CONTINUOUS
10
0.84252
20
2.15157
11
0.791339
21
2.15157
0
LINE
8
BLACK
6
CONTINUOUS
10
0.791339
20
2.15157
11
0.788325
21
2.15217
0
LINE
8
BLACK
6
CONTINUOUS
10
0.788325
20
2.15217
11
0.785771
21
2.15388
0
LINE
8
BLACK
6
CONTINUOUS
10
0.785771
20
2.15388
11
0.784064
21
2.15644
0
LINE
8
BLACK
6
CONTINUOUS
10
0.784064
20
2.15644
11
0.783465
21
2.15945
0
LINE
8
BLACK
6
CONTINUOUS
10
0.783465
20
2.15945
11
0.783465
21
2.22638
0
LINE
8
BLACK
6
CONTINUOUS
10
0.783465
20
2.22638
11
0.784064
21
2.22939
0
LINE
8
BLACK
6
CONTINUOUS
10
0.784064
20
2.22939
11
0.785771
21
2.23195
0
LINE
8
BLACK
6
CONTINUOUS
10
0.785771
20
2.23195
11
0.788325
21
2.23365
0
LINE
8
BLACK
6
CONTINUOUS
10
0.788325
20
2.23365
11
0.791339
21
2.23425
0
LINE
8
BLACK
6
CONTINUOUS
10
0.791339
20
2.23425
11
0.84252
21
2.23425
0
LINE
8
BLACK
6
CONTINUOUS
10
0.84252
20
2.23425
11
0.845533
21
2.23365
0
LINE
8
BLACK
6
CONTINUOUS
10
1.21415
20
2.20884
11
1.21905
21
2.20712
0
LINE
8
BLACK
6
CONTINUOUS
10
1.21905
20
2.20712
11
1.22323
21
2.20404
0
LINE
8
BLACK
6
CONTINUOUS
10
1.22323
20
2.20404
11
1.22632
21
2.19986
0
LINE
8
BLACK
6
CONTINUOUS
10
1.22632
20
2.19986
11
1.22804
21
2.19496
0
LINE
8
BLACK
6
CONTINUOUS
10
1.22804
20
2.19496
11
1.22835
21
2.19168
0
LINE
8
BLACK
6
CONTINUOUS
10
1.22835
20
2.19168
11
1.22835
21
2.17249
0
LINE
8
BLACK
6
CONTINUOUS
10
1.22835
20
2.17249
11
1.22804
21
2.16922
0
LINE
8
BLACK
6
CONTINUOUS
10
1.22804
20
2.16922
11
1.22632
21
2.16432
0
LINE
8
BLACK
6
CONTINUOUS
10
1.22632
20
2.16432
11
1.22323
21
2.16014
0
LINE
8
BLACK
6
CONTINUOUS
10
1.22323
20
2.16014
11
1.21905
21
2.15705
0
LINE
8
BLACK
6
CONTINUOUS
10
1.21905
20
2.15705
11
1.21415
21
2.15533
0
LINE
8
BLACK
6
CONTINUOUS
10
1.21415
20
2.15533
11
1.21088
21
2.15502
0
LINE
8
BLACK
6
CONTINUOUS
10
1.21088
20
2.15502
11
1.17495
21
2.15502
0
LINE
8
BLACK
6
CONTINUOUS
10
1.17495
20
2.15502
11
1.17168
21
2.15533
0
LINE
8
BLACK
6
CONTINUOUS
10
1.17168
20
2.15533
11
1.16678
21
2.15705
0
LINE
8
BLACK
6
CONTINUOUS
10
1.16678
20
2.15705
11
1.1626
21
2.16014
0
LINE
8
BLACK
6
CONTINUOUS
10
1.1626
20
2.16014
11
1.15951
21
2.16432
0
LINE
8
BLACK
6
CONTINUOUS
10
1.15951
20
2.16432
11
1.15779
21
2.16922
0
LINE
8
BLACK
6
CONTINUOUS
10
1.15779
20
2.16922
11
1.15748
21
2.17249
0
LINE
8
BLACK
6
CONTINUOUS
10
1.15748
20
2.17249
11
1.15748
21
2.19168
0
LINE
8
BLACK
6
CONTINUOUS
10
1.15748
20
2.19168
11
1.15779
21
2.19496
0
LINE
8
BLACK
6
CONTINUOUS
10
1.15779
20
2.19496
11
1.15951
21
2.19986
0
LINE
8
BLACK
6
CONTINUOUS
10
1.15951
20
2.19986
11
1.1626
21
2.20404
0
LINE
8
BLACK
6
CONTINUOUS
10
1.1626
20
2.20404
11
1.16678
21
2.20712
0
LINE
8
BLACK
6
CONTINUOUS
10
1.16678
20
2.20712
11
1.17168
21
2.20884
0
LINE
8
BLACK
6
CONTINUOUS
10
1.17168
20
2.20884
11
1.17495
21
2.20915
0
LINE
8
BLACK
6
CONTINUOUS
10
1.17495
20
2.20915
11
1.21088
21
2.20915
0
LINE
8
BLACK
6
CONTINUOUS
10
1.21088
20
2.20915
11
1.21415
21
2.20884
0
LINE
8
BLACK
6
CONTINUOUS
10
1.13541
20
2.20884
11
1.14031
21
2.20712
0
LINE
8
BLACK
6
CONTINUOUS
10
1.14031
20
2.20712
11
1.14449
21
2.20404
0
LINE
8
BLACK
6
CONTINUOUS
10
1.14449
20
2.20404
11
1.14758
21
2.19986
0
LINE
8
BLACK
6
CONTINUOUS
10
1.14758
20
2.19986
11
1.1493
21
2.19496
0
LINE
8
BLACK
6
CONTINUOUS
10
1.1493
20
2.19496
11
1.14961
21
2.19168
0
LINE
8
BLACK
6
CONTINUOUS
10
1.14961
20
2.19168
11
1.14961
21
2.17249
0
LINE
8
BLACK
6
CONTINUOUS
10
1.14961
20
2.17249
11
1.1493
21
2.16922
0
LINE
8
BLACK
6
CONTINUOUS
10
1.1493
20
2.16922
11
1.14758
21
2.16432
0
LINE
8
BLACK
6
CONTINUOUS
10
1.14758
20
2.16432
11
1.14449
21
2.16014
0
LINE
8
BLACK
6
CONTINUOUS
10
1.14449
20
2.16014
11
1.14031
21
2.15705
0
LINE
8
BLACK
6
CONTINUOUS
10
1.14031
20
2.15705
11
1.13541
21
2.15533
0
LINE
8
BLACK
6
CONTINUOUS
10
1.13541
20
2.15533
11
1.13214
21
2.15502
0
LINE
8
BLACK
6
CONTINUOUS
10
1.13214
20
2.15502
11
1.09621
21
2.15502
0
LINE
8
BLACK
6
CONTINUOUS
10
1.09621
20
2.15502
11
1.09294
21
2.15533
0
LINE
8
BLACK
6
CONTINUOUS
10
1.09294
20
2.15533
11
1.08804
21
2.15705
0
LINE
8
BLACK
6
CONTINUOUS
10
1.08804
20
2.15705
11
1.08386
21
2.16014
0
LINE
8
BLACK
6
CONTINUOUS
10
1.08386
20
2.16014
11
1.08077
21
2.16432
0
LINE
8
BLACK
6
CONTINUOUS
10
1.08077
20
2.16432
11
1.07905
21
2.16922
0
LINE
8
BLACK
6
CONTINUOUS
10
1.07905
20
2.16922
11
1.07874
21
2.17249
0
LINE
8
BLACK
6
CONTINUOUS
10
1.07874
20
2.17249
11
1.07874
21
2.19168
0
LINE
8
BLACK
6
CONTINUOUS
10
1.07874
20
2.19168
11
1.07905
21
2.19496
0
LINE
8
BLACK
6
CONTINUOUS
10
1.07905
20
2.19496
11
1.08077
21
2.19986
0
LINE
8
BLACK
6
CONTINUOUS
10
1.08077
20
2.19986
11
1.08386
21
2.20404
0
LINE
8
BLACK
6
CONTINUOUS
10
1.08386
20
2.20404
11
1.08804
21
2.20712
0
LINE
8
BLACK
6
CONTINUOUS
10
1.08804
20
2.20712
11
1.09294
21
2.20884
0
LINE
8
BLACK
6
CONTINUOUS
10
1.09294
20
2.20884
11
1.09621
21
2.20915
0
LINE
8
BLACK
6
CONTINUOUS
10
1.09621
20
2.20915
11
1.13214
21
2.20915
0
LINE
8
BLACK
6
CONTINUOUS
10
1.13214
20
2.20915
11
1.13541
21
2.20884
0
LINE
8
BLACK
6
CONTINUOUS
10
1.21415
20
2.28266
11
1.21905
21
2.28094
0
LINE
8
BLACK
6
CONTINUOUS
10
1.21905
20
2.28094
11
1.22323
21
2.27786
0
LINE
8
BLACK
6
CONTINUOUS
10
1.22323
20
2.27786
11
1.22632
21
2.27368
0
LINE
8
BLACK
6
CONTINUOUS
10
1.22632
20
2.27368
11
1.22804
21
2.26878
0
LINE
8
BLACK
6
CONTINUOUS
10
1.22804
20
2.26878
11
1.22835
21
2.2655
0
LINE
8
BLACK
6
CONTINUOUS
10
1.22835
20
2.2655
11
1.22835
21
2.24631
0
LINE
8
BLACK
6
CONTINUOUS
10
1.22835
20
2.24631
11
1.22804
21
2.24304
0
LINE
8
BLACK
6
CONTINUOUS
10
1.22804
20
2.24304
11
1.22632
21
2.23813
0
LINE
8
BLACK
6
CONTINUOUS
10
1.22632
20
2.23813
11
1.22323
21
2.23396
0
LINE
8
BLACK
6
CONTINUOUS
10
1.22323
20
2.23396
11
1.21905
21
2.23087
0
LINE
8
BLACK
6
CONTINUOUS
10
1.21905
20
2.23087
11
1.21415
21
2.22915
0
LINE
8
BLACK
6
CONTINUOUS
10
1.21415
20
2.22915
11
1.21088
21
2.22884
0
LINE
8
BLACK
6
CONTINUOUS
10
1.21088
20
2.22884
11
1.17495
21
2.22884
0
LINE
8
BLACK
6
CONTINUOUS
10
1.17495
20
2.22884
11
1.17168
21
2.22915
0
LINE
8
BLACK
6
CONTINUOUS
10
1.17168
20
2.22915
11
1.16678
21
2.23087
0
LINE
8
BLACK
6
CONTINUOUS
10
1.16678
20
2.23087
11
1.1626
21
2.23396
0
LINE
8
BLACK
6
CONTINUOUS
10
1.1626
20
2.23396
11
1.15951
21
2.23813
0
LINE
8
BLACK
6
CONTINUOUS
10
1.15951
20
2.23813
11
1.15779
21
2.24304
0
LINE
8
BLACK
6
CONTINUOUS
10
1.15779
20
2.24304
11
1.15748
21
2.24631
0
LINE
8
BLACK
6
CONTINUOUS
10
1.15748
20
2.24631
11
1.15748
21
2.2655
0
LINE
8
BLACK
6
CONTINUOUS
10
1.15748
20
2.2655
11
1.15779
21
2.26878
0
LINE
8
BLACK
6
CONTINUOUS
10
1.15779
20
2.26878
11
1.15951
21
2.27368
0
LINE
8
BLACK
6
CONTINUOUS
10
1.15951
20
2.27368
11
1.1626
21
2.27786
0
LINE
8
BLACK
6
CONTINUOUS
10
1.1626
20
2.27786
11
1.16678
21
2.28094
0
LINE
8
BLACK
6
CONTINUOUS
10
1.16678
20
2.28094
11
1.17168
21
2.28266
0
LINE
8
BLACK
6
CONTINUOUS
10
1.17168
20
2.28266
11
1.17495
21
2.28297
0
LINE
8
BLACK
6
CONTINUOUS
10
1.17495
20
2.28297
11
1.21088
21
2.28297
0
LINE
8
BLACK
6
CONTINUOUS
10
1.21088
20
2.28297
11
1.21415
21
2.28266
0
LINE
8
BLACK
6
CONTINUOUS
10
1.13541
20
2.28266
11
1.14031
21
2.28094
0
LINE
8
BLACK
6
CONTINUOUS
10
1.14031
20
2.28094
11
1.14449
21
2.27786
0
LINE
8
BLACK
6
CONTINUOUS
10
1.14449
20
2.27786
11
1.14758
21
2.27368
0
LINE
8
BLACK
6
CONTINUOUS
10
1.14758
20
2.27368
11
1.1493
21
2.26878
0
LINE
8
BLACK
6
CONTINUOUS
10
1.1493
20
2.26878
11
1.14961
21
2.2655
0
LINE
8
BLACK
6
CONTINUOUS
10
1.14961
20
2.2655
11
1.14961
21
2.24631
0
LINE
8
BLACK
6
CONTINUOUS
10
1.14961
20
2.24631
11
1.1493
21
2.24304
0
LINE
8
BLACK
6
CONTINUOUS
10
1.1493
20
2.24304
11
1.14758
21
2.23813
0
LINE
8
BLACK
6
CONTINUOUS
10
1.14758
20
2.23813
11
1.14449
21
2.23396
0
LINE
8
BLACK
6
CONTINUOUS
10
1.14449
20
2.23396
11
1.14031
21
2.23087
0
LINE
8
BLACK
6
CONTINUOUS
10
1.14031
20
2.23087
11
1.13541
21
2.22915
0
LINE
8
BLACK
6
CONTINUOUS
10
1.13541
20
2.22915
11
1.13214
21
2.22884
0
LINE
8
BLACK
6
CONTINUOUS
10
1.13214
20
2.22884
11
1.09621
21
2.22884
0
LINE
8
BLACK
6
CONTINUOUS
10
1.09621
20
2.22884
11
1.09294
21
2.22915
0
LINE
8
BLACK
6
CONTINUOUS
10
1.09294
20
2.22915
11
1.08804
21
2.23087
0
LINE
8
BLACK
6
CONTINUOUS
10
1.08804
20
2.23087
11
1.08386
21
2.23396
0
LINE
8
BLACK
6
CONTINUOUS
10
1.08386
20
2.23396
11
1.08077
21
2.23813
0
LINE
8
BLACK
6
CONTINUOUS
10
1.08077
20
2.23813
11
1.07905
21
2.24304
0
LINE
8
BLACK
6
CONTINUOUS
10
1.07905
20
2.24304
11
1.07874
21
2.24631
0
LINE
8
BLACK
6
CONTINUOUS
10
1.07874
20
2.24631
11
1.07874
21
2.2655
0
LINE
8
BLACK
6
CONTINUOUS
10
1.07874
20
2.2655
11
1.07905
21
2.26878
0
LINE
8
BLACK
6
CONTINUOUS
10
1.07905
20
2.26878
11
1.08077
21
2.27368
0
LINE
8
BLACK
6
CONTINUOUS
10
1.08077
20
2.27368
11
1.08386
21
2.27786
0
LINE
8
BLACK
6
CONTINUOUS
10
1.08386
20
2.27786
11
1.08804
21
2.28094
0
LINE
8
BLACK
6
CONTINUOUS
10
1.08804
20
2.28094
11
1.09294
21
2.28266
0
LINE
8
BLACK
6
CONTINUOUS
10
1.09294
20
2.28266
11
1.09621
21
2.28297
0
LINE
8
BLACK
6
CONTINUOUS
10
1.09621
20
2.28297
11
1.13214
21
2.28297
0
LINE
8
BLACK
6
CONTINUOUS
10
1.13214
20
2.28297
11
1.13541
21
2.28266
0
LINE
8
BLACK
6
CONTINUOUS
10
0.014917
20
2.5251
11
0.0287686
21
2.52266
0
LINE
8
BLACK
6
CONTINUOUS
10
0.0287686
20
2.52266
11
0.0422616
21
2.51868
0
LINE
8
BLACK
6
CONTINUOUS
10
0.0422616
20
2.51868
11
0.0552279
21
2.51323
0
LINE
8
BLACK
6
CONTINUOUS
10
0.0552279
20
2.51323
11
0.0675057
21
2.50637
0
LINE
8
BLACK
6
CONTINUOUS
10
0.0675057
20
2.50637
11
0.0789422
21
2.49818
0
LINE
8
BLACK
6
CONTINUOUS
10
0.0789422
20
2.49818
11
0.0893947
21
2.48877
0
LINE
8
BLACK
6
CONTINUOUS
10
0.0893947
20
2.48877
11
0.098733
21
2.47825
0
LINE
8
BLACK
6
CONTINUOUS
10
0.098733
20
2.47825
11
0.106841
21
2.46676
0
LINE
8
BLACK
6
CONTINUOUS
10
0.106841
20
2.46676
11
0.113617
21
2.45444
0
LINE
8
BLACK
6
CONTINUOUS
10
0.113617
20
2.45444
11
0.118977
21
2.44143
0
LINE
8
BLACK
6
CONTINUOUS
10
0.118977
20
2.44143
11
0.122853
21
2.42791
0
LINE
8
BLACK
6
CONTINUOUS
10
0.122853
20
2.42791
11
0.125199
21
2.41404
0
LINE
8
BLACK
6
CONTINUOUS
10
0.125199
20
2.41404
11
0.125984
21
2.4
0
LINE
8
BLACK
6
CONTINUOUS
10
0.125984
20
2.4
11
0.125935
21
2.39648
0
LINE
8
BLACK
6
CONTINUOUS
10
0.125935
20
2.39648
11
0.124758
21
2.38247
0
LINE
8
BLACK
6
CONTINUOUS
10
0.124758
20
2.38247
11
0.122026
21
2.36867
0
LINE
8
BLACK
6
CONTINUOUS
10
0.122026
20
2.36867
11
0.117773
21
2.35526
0
LINE
8
BLACK
6
CONTINUOUS
10
0.117773
20
2.35526
11
0.112052
21
2.34241
0
LINE
8
BLACK
6
CONTINUOUS
10
0.112052
20
2.34241
11
0.104935
21
2.33028
0
LINE
8
BLACK
6
CONTINUOUS
10
0.104935
20
2.33028
11
0.0965095
21
2.31902
0
LINE
8
BLACK
6
CONTINUOUS
10
0.0965095
20
2.31902
11
0.0868812
21
2.30877
0
LINE
8
BLACK
6
CONTINUOUS
10
0.0868812
20
2.30877
11
0.07617
21
2.29965
0
LINE
8
BLACK
6
CONTINUOUS
10
0.07617
20
2.29965
11
0.0645093
21
2.29178
0
LINE
8
BLACK
6
CONTINUOUS
10
0.0645093
20
2.29178
11
0.0520446
21
2.28527
0
LINE
8
BLACK
6
CONTINUOUS
10
0.0520446
20
2.28527
11
0.0389313
21
2.28018
0
LINE
8
BLACK
6
CONTINUOUS
10
0.0389313
20
2.28018
11
0.0253326
21
2.27659
0
LINE
8
BLACK
6
CONTINUOUS
10
0.0253326
20
2.27659
11
0.0114183
21
2.27453
0
LINE
8
BLACK
6
CONTINUOUS
10
0.0114183
20
2.27453
11
-0.00263843
21
2.27404
0
LINE
8
BLACK
6
CONTINUOUS
10
-0.00263843
20
2.27404
11
-0.0166622
21
2.27512
0
LINE
8
BLACK
6
CONTINUOUS
10
-0.0166622
20
2.27512
11
-0.0304783
21
2.27776
0
LINE
8
BLACK
6
CONTINUOUS
10
-0.0304783
20
2.27776
11
-0.0439146
21
2.28192
0
LINE
8
BLACK
6
CONTINUOUS
10
-0.0439146
20
2.28192
11
-0.0568035
21
2.28755
0
LINE
8
BLACK
6
CONTINUOUS
10
-0.0568035
20
2.28755
11
-0.0689843
21
2.29458
0
LINE
8
BLACK
6
CONTINUOUS
10
-0.0689843
20
2.29458
11
-0.0803054
21
2.30293
0
LINE
8
BLACK
6
CONTINUOUS
10
-0.0803054
20
2.30293
11
-0.0906255
21
2.31248
0
LINE
8
BLACK
6
CONTINUOUS
10
-0.0906255
20
2.31248
11
-0.099816
21
2.32313
0
LINE
8
BLACK
6
CONTINUOUS
10
-0.099816
20
2.32313
11
-0.107762
21
2.33474
0
LINE
8
BLACK
6
CONTINUOUS
10
-0.107762
20
2.33474
11
-0.114366
21
2.34716
0
LINE
8
BLACK
6
CONTINUOUS
10
-0.114366
20
2.34716
11
-0.119543
21
2.36023
0
LINE
8
BLACK
6
CONTINUOUS
10
-0.119543
20
2.36023
11
-0.123231
21
2.37381
0
LINE
8
BLACK
6
CONTINUOUS
10
-0.123231
20
2.37381
11
-0.125383
21
2.38771
0
LINE
8
BLACK
6
CONTINUOUS
10
-0.125383
20
2.38771
11
-0.125972
21
2.40176
0
LINE
8
BLACK
6
CONTINUOUS
10
-0.125972
20
2.40176
11
-0.124991
21
2.41579
0
LINE
8
BLACK
6
CONTINUOUS
10
-0.124991
20
2.41579
11
-0.122452
21
2.42962
0
LINE
8
BLACK
6
CONTINUOUS
10
-0.122452
20
2.42962
11
-0.118386
21
2.44309
0
LINE
8
BLACK
6
CONTINUOUS
10
-0.118386
20
2.44309
11
-0.112846
21
2.45602
0
LINE
8
BLACK
6
CONTINUOUS
10
-0.112846
20
2.45602
11
-0.105898
21
2.46825
0
LINE
8
BLACK
6
CONTINUOUS
10
-0.105898
20
2.46825
11
-0.0976308
21
2.47963
0
LINE
8
BLACK
6
CONTINUOUS
10
-0.0976308
20
2.47963
11
-0.0881466
21
2.49001
0
LINE
8
BLACK
6
CONTINUOUS
10
-0.0881466
20
2.49001
11
-0.0775637
21
2.49928
0
LINE
8
BLACK
6
CONTINUOUS
10
-0.0775637
20
2.49928
11
-0.066014
21
2.5073
0
LINE
8
BLACK
6
CONTINUOUS
10
-0.066014
20
2.5073
11
-0.0536415
21
2.51399
0
LINE
8
BLACK
6
CONTINUOUS
10
-0.0536415
20
2.51399
11
-0.0406004
21
2.51926
0
LINE
8
BLACK
6
CONTINUOUS
10
-0.0406004
20
2.51926
11
-0.0270533
21
2.52305
0
LINE
8
BLACK
6
CONTINUOUS
10
-0.0270533
20
2.52305
11
-0.0131689
21
2.52529
0
LINE
8
BLACK
6
CONTINUOUS
10
-0.0131689
20
2.52529
11
0.000879528
21
2.52598
0
LINE
8
BLACK
6
CONTINUOUS
10
0.000879528
20
2.52598
11
0.014917
21
2.5251
0
LINE
8
BLACK
6
CONTINUOUS
10
2.01492
20
2.5251
11
2.02877
21
2.52266
0
LINE
8
BLACK
6
CONTINUOUS
10
2.02877
20
2.52266
11
2.04226
21
2.51868
0
LINE
8
BLACK
6
CONTINUOUS
10
2.04226
20
2.51868
11
2.05523
21
2.51323
0
LINE
8
BLACK
6
CONTINUOUS
10
2.05523
20
2.51323
11
2.06751
21
2.50637
0
LINE
8
BLACK
6
CONTINUOUS
10
2.06751
20
2.50637
11
2.07894
21
2.49818
0
LINE
8
BLACK
6
CONTINUOUS
10
2.07894
20
2.49818
11
2.08939
21
2.48877
0
LINE
8
BLACK
6
CONTINUOUS
10
2.08939
20
2.48877
11
2.09873
21
2.47825
0
LINE
8
BLACK
6
CONTINUOUS
10
2.09873
20
2.47825
11
2.10684
21
2.46676
0
LINE
8
BLACK
6
CONTINUOUS
10
2.10684
20
2.46676
11
2.11362
21
2.45444
0
LINE
8
BLACK
6
CONTINUOUS
10
2.11362
20
2.45444
11
2.11898
21
2.44143
0
LINE
8
BLACK
6
CONTINUOUS
10
2.11898
20
2.44143
11
2.12285
21
2.42791
0
LINE
8
BLACK
6
CONTINUOUS
10
2.12285
20
2.42791
11
2.1252
21
2.41404
0
LINE
8
BLACK
6
CONTINUOUS
10
2.1252
20
2.41404
11
2.12598
21
2.4
0
LINE
8
BLACK
6
CONTINUOUS
10
2.12598
20
2.4
11
2.12594
21
2.39648
0
LINE
8
BLACK
6
CONTINUOUS
10
2.12594
20
2.39648
11
2.12476
21
2.38247
0
LINE
8
BLACK
6
CONTINUOUS
10
2.12476
20
2.38247
11
2.12203
21
2.36867
0
LINE
8
BLACK
6
CONTINUOUS
10
2.12203
20
2.36867
11
2.11777
21
2.35526
0
LINE
8
BLACK
6
CONTINUOUS
10
2.11777
20
2.35526
11
2.11205
21
2.34241
0
LINE
8
BLACK
6
CONTINUOUS
10
2.11205
20
2.34241
11
2.10493
21
2.33028
0
LINE
8
BLACK
6
CONTINUOUS
10
2.10493
20
2.33028
11
2.09651
21
2.31902
0
LINE
8
BLACK
6
CONTINUOUS
10
2.09651
20
2.31902
11
2.08688
21
2.30877
0
LINE
8
BLACK
6
CONTINUOUS
10
2.08688
20
2.30877
11
2.07617
21
2.29965
0
LINE
8
BLACK
6
CONTINUOUS
10
2.07617
20
2.29965
11
2.06451
21
2.29178
0
LINE
8
BLACK
6
CONTINUOUS
10
2.06451
20
2.29178
11
2.05204
21
2.28527
0
LINE
8
BLACK
6
CONTINUOUS
10
2.05204
20
2.28527
11
2.03893
21
2.28018
0
LINE
8
BLACK
6
CONTINUOUS
10
2.03893
20
2.28018
11
2.02533
21
2.27659
0
LINE
8
BLACK
6
CONTINUOUS
10
2.02533
20
2.27659
11
2.01142
21
2.27453
0
LINE
8
BLACK
6
CONTINUOUS
10
2.01142
20
2.27453
11
1.99736
21
2.27404
0
LINE
8
BLACK
6
CONTINUOUS
10
1.99736
20
2.27404
11
1.98334
21
2.27512
0
LINE
8
BLACK
6
CONTINUOUS
10
1.98334
20
2.27512
11
1.96952
21
2.27776
0
LINE
8
BLACK
6
CONTINUOUS
10
1.96952
20
2.27776
11
1.95609
21
2.28192
0
LINE
8
BLACK
6
CONTINUOUS
10
1.95609
20
2.28192
11
1.9432
21
2.28755
0
LINE
8
BLACK
6
CONTINUOUS
10
1.9432
20
2.28755
11
1.93102
21
2.29458
0
LINE
8
BLACK
6
CONTINUOUS
10
1.93102
20
2.29458
11
1.91969
21
2.30293
0
LINE
8
BLACK
6
CONTINUOUS
10
1.91969
20
2.30293
11
1.90937
21
2.31248
0
LINE
8
BLACK
6
CONTINUOUS
10
1.90937
20
2.31248
11
1.90018
21
2.32313
0
LINE
8
BLACK
6
CONTINUOUS
10
1.90018
20
2.32313
11
1.89224
21
2.33474
0
LINE
8
BLACK
6
CONTINUOUS
10
1.89224
20
2.33474
11
1.88563
21
2.34716
0
LINE
8
BLACK
6
CONTINUOUS
10
1.88563
20
2.34716
11
1.88046
21
2.36023
0
LINE
8
BLACK
6
CONTINUOUS
10
1.88046
20
2.36023
11
1.87677
21
2.37381
0
LINE
8
BLACK
6
CONTINUOUS
10
1.87677
20
2.37381
11
1.87462
21
2.38771
0
LINE
8
BLACK
6
CONTINUOUS
10
1.87462
20
2.38771
11
1.87403
21
2.40176
0
LINE
8
BLACK
6
CONTINUOUS
10
1.87403
20
2.40176
11
1.87501
21
2.41579
0
LINE
8
BLACK
6
CONTINUOUS
10
1.87501
20
2.41579
11
1.87755
21
2.42962
0
LINE
8
BLACK
6
CONTINUOUS
10
1.87755
20
2.42962
11
1.88161
21
2.44309
0
LINE
8
BLACK
6
CONTINUOUS
10
1.88161
20
2.44309
11
1.88715
21
2.45602
0
LINE
8
BLACK
6
CONTINUOUS
10
1.88715
20
2.45602
11
1.8941
21
2.46825
0
LINE
8
BLACK
6
CONTINUOUS
10
1.8941
20
2.46825
11
1.90237
21
2.47963
0
LINE
8
BLACK
6
CONTINUOUS
10
1.90237
20
2.47963
11
1.91185
21
2.49001
0
LINE
8
BLACK
6
CONTINUOUS
10
1.91185
20
2.49001
11
1.92244
21
2.49928
0
LINE
8
BLACK
6
CONTINUOUS
10
1.92244
20
2.49928
11
1.93399
21
2.5073
0
LINE
8
BLACK
6
CONTINUOUS
10
1.93399
20
2.5073
11
1.94636
21
2.51399
0
LINE
8
BLACK
6
CONTINUOUS
10
1.94636
20
2.51399
11
1.9594
21
2.51926
0
LINE
8
BLACK
6
CONTINUOUS
10
1.9594
20
2.51926
11
1.97295
21
2.52305
0
LINE
8
BLACK
6
CONTINUOUS
10
1.97295
20
2.52305
11
1.98683
21
2.52529
0
LINE
8
BLACK
6
CONTINUOUS
10
1.98683
20
2.52529
11
2.00088
21
2.52598
0
LINE
8
BLACK
6
CONTINUOUS
10
2.00088
20
2.52598
11
2.01492
21
2.5251
0
LINE
8
BLACK
6
CONTINUOUS
10
0.535769
20
2.38491
11
0.538324
21
2.38321
0
LINE
8
BLACK
6
CONTINUOUS
10
0.538324
20
2.38321
11
0.540031
21
2.38065
0
LINE
8
BLACK
6
CONTINUOUS
10
0.540031
20
2.38065
11
0.54063
21
2.37764
0
LINE
8
BLACK
6
CONTINUOUS
10
0.54063
20
2.37764
11
0.54063
21
2.31764
0
LINE
8
BLACK
6
CONTINUOUS
10
0.54063
20
2.31764
11
0.540031
21
2.31462
0
LINE
8
BLACK
6
CONTINUOUS
10
0.540031
20
2.31462
11
0.538324
21
2.31207
0
LINE
8
BLACK
6
CONTINUOUS
10
0.538324
20
2.31207
11
0.535769
21
2.31036
0
LINE
8
BLACK
6
CONTINUOUS
10
0.535769
20
2.31036
11
0.532756
21
2.30976
0
LINE
8
BLACK
6
CONTINUOUS
10
0.532756
20
2.30976
11
0.472756
21
2.30976
0
LINE
8
BLACK
6
CONTINUOUS
10
0.472756
20
2.30976
11
0.469743
21
2.31036
0
LINE
8
BLACK
6
CONTINUOUS
10
0.469743
20
2.31036
11
0.467188
21
2.31207
0
LINE
8
BLACK
6
CONTINUOUS
10
0.467188
20
2.31207
11
0.465481
21
2.31462
0
LINE
8
BLACK
6
CONTINUOUS
10
0.465481
20
2.31462
11
0.464882
21
2.31764
0
LINE
8
BLACK
6
CONTINUOUS
10
0.464882
20
2.31764
11
0.464882
21
2.37764
0
LINE
8
BLACK
6
CONTINUOUS
10
0.464882
20
2.37764
11
0.465481
21
2.38065
0
LINE
8
BLACK
6
CONTINUOUS
10
0.465481
20
2.38065
11
0.467188
21
2.38321
0
LINE
8
BLACK
6
CONTINUOUS
10
0.467188
20
2.38321
11
0.469743
21
2.38491
0
LINE
8
BLACK
6
CONTINUOUS
10
0.469743
20
2.38491
11
0.472756
21
2.38551
0
LINE
8
BLACK
6
CONTINUOUS
10
0.472756
20
2.38551
11
0.532756
21
2.38551
0
LINE
8
BLACK
6
CONTINUOUS
10
0.532756
20
2.38551
11
0.535769
21
2.38491
0
LINE
8
BLACK
6
CONTINUOUS
10
1.06215
20
2.38491
11
1.0647
21
2.38321
0
LINE
8
BLACK
6
CONTINUOUS
10
1.0647
20
2.38321
11
1.06641
21
2.38065
0
LINE
8
BLACK
6
CONTINUOUS
10
1.06641
20
2.38065
11
1.06701
21
2.37764
0
LINE
8
BLACK
6
CONTINUOUS
10
1.06701
20
2.37764
11
1.06701
21
2.31764
0
LINE
8
BLACK
6
CONTINUOUS
10
1.06701
20
2.31764
11
1.06641
21
2.31462
0
LINE
8
BLACK
6
CONTINUOUS
10
1.06641
20
2.31462
11
1.0647
21
2.31207
0
LINE
8
BLACK
6
CONTINUOUS
10
1.0647
20
2.31207
11
1.06215
21
2.31036
0
LINE
8
BLACK
6
CONTINUOUS
10
1.06215
20
2.31036
11
1.05913
21
2.30976
0
LINE
8
BLACK
6
CONTINUOUS
10
1.05913
20
2.30976
11
0.999134
21
2.30976
0
LINE
8
BLACK
6
CONTINUOUS
10
0.999134
20
2.30976
11
0.996121
21
2.31036
0
LINE
8
BLACK
6
CONTINUOUS
10
0.996121
20
2.31036
11
0.993566
21
2.31207
0
LINE
8
BLACK
6
CONTINUOUS
10
0.993566
20
2.31207
11
0.991859
21
2.31462
0
LINE
8
BLACK
6
CONTINUOUS
10
0.991859
20
2.31462
11
0.99126
21
2.31764
0
LINE
8
BLACK
6
CONTINUOUS
10
0.99126
20
2.31764
11
0.99126
21
2.37764
0
LINE
8
BLACK
6
CONTINUOUS
10
0.99126
20
2.37764
11
0.991859
21
2.38065
0
LINE
8
BLACK
6
CONTINUOUS
10
0.991859
20
2.38065
11
0.993566
21
2.38321
0
LINE
8
BLACK
6
CONTINUOUS
10
0.993566
20
2.38321
11
0.996121
21
2.38491
0
LINE
8
BLACK
6
CONTINUOUS
10
0.996121
20
2.38491
11
0.999134
21
2.38551
0
LINE
8
BLACK
6
CONTINUOUS
10
0.999134
20
2.38551
11
1.05913
21
2.38551
0
LINE
8
BLACK
6
CONTINUOUS
10
1.05913
20
2.38551
11
1.06215
21
2.38491
0
LINE
8
BLACK
6
CONTINUOUS
10
0.435769
20
2.38491
11
0.438324
21
2.38321
0
LINE
8
BLACK
6
CONTINUOUS
10
0.438324
20
2.38321
11
0.440031
21
2.38065
0
LINE
8
BLACK
6
CONTINUOUS
10
0.440031
20
2.38065
11
0.44063
21
2.37764
0
LINE
8
BLACK
6
CONTINUOUS
10
0.44063
20
2.37764
11
0.44063
21
2.31764
0
LINE
8
BLACK
6
CONTINUOUS
10
0.44063
20
2.31764
11
0.440031
21
2.31462
0
LINE
8
BLACK
6
CONTINUOUS
10
0.440031
20
2.31462
11
0.438324
21
2.31207
0
LINE
8
BLACK
6
CONTINUOUS
10
0.438324
20
2.31207
11
0.435769
21
2.31036
0
LINE
8
BLACK
6
CONTINUOUS
10
0.435769
20
2.31036
11
0.432756
21
2.30976
0
LINE
8
BLACK
6
CONTINUOUS
10
0.432756
20
2.30976
11
0.372756
21
2.30976
0
LINE
8
BLACK
6
CONTINUOUS
10
0.372756
20
2.30976
11
0.369743
21
2.31036
0
LINE
8
BLACK
6
CONTINUOUS
10
0.369743
20
2.31036
11
0.367188
21
2.31207
0
LINE
8
BLACK
6
CONTINUOUS
10
0.367188
20
2.31207
11
0.365481
21
2.31462
0
LINE
8
BLACK
6
CONTINUOUS
10
0.365481
20
2.31462
11
0.364882
21
2.31764
0
LINE
8
BLACK
6
CONTINUOUS
10
0.364882
20
2.31764
11
0.364882
21
2.37764
0
LINE
8
BLACK
6
CONTINUOUS
10
0.364882
20
2.37764
11
0.365481
21
2.38065
0
LINE
8
BLACK
6
CONTINUOUS
10
0.365481
20
2.38065
11
0.367188
21
2.38321
0
LINE
8
BLACK
6
CONTINUOUS
10
0.367188
20
2.38321
11
0.369743
21
2.38491
0
LINE
8
BLACK
6
CONTINUOUS
10
0.369743
20
2.38491
11
0.372756
21
2.38551
0
LINE
8
BLACK
6
CONTINUOUS
10
0.372756
20
2.38551
11
0.432756
21
2.38551
0
LINE
8
BLACK
6
CONTINUOUS
10
0.432756
20
2.38551
11
0.435769
21
2.38491
0
LINE
8
BLACK
6
CONTINUOUS
10
0.962147
20
2.38491
11
0.964702
21
2.38321
0
LINE
8
BLACK
6
CONTINUOUS
10
0.964702
20
2.38321
11
0.966409
21
2.38065
0
LINE
8
BLACK
6
CONTINUOUS
10
0.966409
20
2.38065
11
0.967008
21
2.37764
0
LINE
8
BLACK
6
CONTINUOUS
10
0.967008
20
2.37764
11
0.967008
21
2.31764
0
LINE
8
BLACK
6
CONTINUOUS
10
0.967008
20
2.31764
11
0.966409
21
2.31462
0
LINE
8
BLACK
6
CONTINUOUS
10
0.966409
20
2.31462
11
0.964702
21
2.31207
0
LINE
8
BLACK
6
CONTINUOUS
10
0.964702
20
2.31207
11
0.962147
21
2.31036
0
LINE
8
BLACK
6
CONTINUOUS
10
0.962147
20
2.31036
11
0.959134
21
2.30976
0
LINE
8
BLACK
6
CONTINUOUS
10
0.959134
20
2.30976
11
0.899134
21
2.30976
0
LINE
8
BLACK
6
CONTINUOUS
10
0.899134
20
2.30976
11
0.896121
21
2.31036
0
LINE
8
BLACK
6
CONTINUOUS
10
0.896121
20
2.31036
11
0.893566
21
2.31207
0
LINE
8
BLACK
6
CONTINUOUS
10
0.893566
20
2.31207
11
0.891859
21
2.31462
0
LINE
8
BLACK
6
CONTINUOUS
10
0.891859
20
2.31462
11
0.89126
21
2.31764
0
LINE
8
BLACK
6
CONTINUOUS
10
0.89126
20
2.31764
11
0.89126
21
2.37764
0
LINE
8
BLACK
6
CONTINUOUS
10
0.89126
20
2.37764
11
0.891859
21
2.38065
0
LINE
8
BLACK
6
CONTINUOUS
10
0.891859
20
2.38065
11
0.893566
21
2.38321
0
LINE
8
BLACK
6
CONTINUOUS
10
0.893566
20
2.38321
11
0.896121
21
2.38491
0
LINE
8
BLACK
6
CONTINUOUS
10
0.896121
20
2.38491
11
0.899134
21
2.38551
0
LINE
8
BLACK
6
CONTINUOUS
10
0.899134
20
2.38551
11
0.959134
21
2.38551
0
LINE
8
BLACK
6
CONTINUOUS
10
0.959134
20
2.38551
11
0.962147
21
2.38491
0
LINE
8
BLACK
6
CONTINUOUS
10
1.48971
20
2.38491
11
1.49226
21
2.38321
0
LINE
8
BLACK
6
CONTINUOUS
10
1.49226
20
2.38321
11
1.49397
21
2.38065
0
LINE
8
BLACK
6
CONTINUOUS
10
1.49397
20
2.38065
11
1.49457
21
2.37764
0
LINE
8
BLACK
6
CONTINUOUS
10
1.49457
20
2.37764
11
1.49457
21
2.31764
0
LINE
8
BLACK
6
CONTINUOUS
10
1.49457
20
2.31764
11
1.49397
21
2.31462
0
LINE
8
BLACK
6
CONTINUOUS
10
1.49397
20
2.31462
11
1.49226
21
2.31207
0
LINE
8
BLACK
6
CONTINUOUS
10
1.49226
20
2.31207
11
1.48971
21
2.31036
0
LINE
8
BLACK
6
CONTINUOUS
10
1.48971
20
2.31036
11
1.48669
21
2.30976
0
LINE
8
BLACK
6
CONTINUOUS
10
1.48669
20
2.30976
11
1.42669
21
2.30976
0
LINE
8
BLACK
6
CONTINUOUS
10
1.42669
20
2.30976
11
1.42368
21
2.31036
0
LINE
8
BLACK
6
CONTINUOUS
10
1.42368
20
2.31036
11
1.42113
21
2.31207
0
LINE
8
BLACK
6
CONTINUOUS
10
1.42113
20
2.31207
11
1.41942
21
2.31462
0
LINE
8
BLACK
6
CONTINUOUS
10
1.41942
20
2.31462
11
1.41882
21
2.31764
0
LINE
8
BLACK
6
CONTINUOUS
10
1.41882
20
2.31764
11
1.41882
21
2.37764
0
LINE
8
BLACK
6
CONTINUOUS
10
1.41882
20
2.37764
11
1.41942
21
2.38065
0
LINE
8
BLACK
6
CONTINUOUS
10
1.41942
20
2.38065
11
1.42113
21
2.38321
0
LINE
8
BLACK
6
CONTINUOUS
10
1.42113
20
2.38321
11
1.42368
21
2.38491
0
LINE
8
BLACK
6
CONTINUOUS
10
1.42368
20
2.38491
11
1.42669
21
2.38551
0
LINE
8
BLACK
6
CONTINUOUS
10
1.42669
20
2.38551
11
1.48669
21
2.38551
0
LINE
8
BLACK
6
CONTINUOUS
10
1.48669
20
2.38551
11
1.48971
21
2.38491
0
LINE
8
BLACK
6
CONTINUOUS
10
1.68971
20
2.38491
11
1.69226
21
2.38321
0
LINE
8
BLACK
6
CONTINUOUS
10
1.69226
20
2.38321
11
1.69397
21
2.38065
0
LINE
8
BLACK
6
CONTINUOUS
10
1.69397
20
2.38065
11
1.69457
21
2.37764
0
LINE
8
BLACK
6
CONTINUOUS
10
1.69457
20
2.37764
11
1.69457
21
2.31764
0
LINE
8
BLACK
6
CONTINUOUS
10
1.69457
20
2.31764
11
1.69397
21
2.31462
0
LINE
8
BLACK
6
CONTINUOUS
10
1.69397
20
2.31462
11
1.69226
21
2.31207
0
LINE
8
BLACK
6
CONTINUOUS
10
1.69226
20
2.31207
11
1.68971
21
2.31036
0
LINE
8
BLACK
6
CONTINUOUS
10
1.68971
20
2.31036
11
1.68669
21
2.30976
0
LINE
8
BLACK
6
CONTINUOUS
10
1.68669
20
2.30976
11
1.62669
21
2.30976
0
LINE
8
BLACK
6
CONTINUOUS
10
1.62669
20
2.30976
11
1.62368
21
2.31036
0
LINE
8
BLACK
6
CONTINUOUS
10
1.62368
20
2.31036
11
1.62113
21
2.31207
0
LINE
8
BLACK
6
CONTINUOUS
10
1.62113
20
2.31207
11
1.61942
21
2.31462
0
LINE
8
BLACK
6
CONTINUOUS
10
1.61942
20
2.31462
11
1.61882
21
2.31764
0
LINE
8
BLACK
6
CONTINUOUS
10
1.61882
20
2.31764
11
1.61882
21
2.37764
0
LINE
8
BLACK
6
CONTINUOUS
10
1.61882
20
2.37764
11
1.61942
21
2.38065
0
LINE
8
BLACK
6
CONTINUOUS
10
1.61942
20
2.38065
11
1.62113
21
2.38321
0
LINE
8
BLACK
6
CONTINUOUS
10
1.62113
20
2.38321
11
1.62368
21
2.38491
0
LINE
8
BLACK
6
CONTINUOUS
10
1.62368
20
2.38491
11
1.62669
21
2.38551
0
LINE
8
BLACK
6
CONTINUOUS
10
1.62669
20
2.38551
11
1.68669
21
2.38551
0
LINE
8
BLACK
6
CONTINUOUS
10
1.68669
20
2.38551
11
1.68971
21
2.38491
0
LINE
8
BLACK
6
CONTINUOUS
10
0.862147
20
2.38491
11
0.864702
21
2.38321
0
LINE
8
BLACK
6
CONTINUOUS
10
0.864702
20
2.38321
11
0.866409
21
2.38065
0
LINE
8
BLACK
6
CONTINUOUS
10
0.866409
20
2.38065
11
0.867008
21
2.37764
0
LINE
8
BLACK
6
CONTINUOUS
10
0.867008
20
2.37764
11
0.867008
21
2.31764
0
LINE
8
BLACK
6
CONTINUOUS
10
0.867008
20
2.31764
11
0.866409
21
2.31462
0
LINE
8
BLACK
6
CONTINUOUS
10
0.866409
20
2.31462
11
0.864702
21
2.31207
0
LINE
8
BLACK
6
CONTINUOUS
10
0.864702
20
2.31207
11
0.862147
21
2.31036
0
LINE
8
BLACK
6
CONTINUOUS
10
0.862147
20
2.31036
11
0.859134
21
2.30976
0
LINE
8
BLACK
6
CONTINUOUS
10
0.859134
20
2.30976
11
0.799134
21
2.30976
0
LINE
8
BLACK
6
CONTINUOUS
10
0.799134
20
2.30976
11
0.796121
21
2.31036
0
LINE
8
BLACK
6
CONTINUOUS
10
0.796121
20
2.31036
11
0.793566
21
2.31207
0
LINE
8
BLACK
6
CONTINUOUS
10
0.793566
20
2.31207
11
0.791859
21
2.31462
0
LINE
8
BLACK
6
CONTINUOUS
10
0.791859
20
2.31462
11
0.79126
21
2.31764
0
LINE
8
BLACK
6
CONTINUOUS
10
0.79126
20
2.31764
11
0.79126
21
2.37764
0
LINE
8
BLACK
6
CONTINUOUS
10
0.79126
20
2.37764
11
0.791859
21
2.38065
0
LINE
8
BLACK
6
CONTINUOUS
10
0.791859
20
2.38065
11
0.793566
21
2.38321
0
LINE
8
BLACK
6
CONTINUOUS
10
0.793566
20
2.38321
11
0.796121
21
2.38491
0
LINE
8
BLACK
6
CONTINUOUS
10
0.796121
20
2.38491
11
0.799134
21
2.38551
0
LINE
8
BLACK
6
CONTINUOUS
10
0.799134
20
2.38551
11
0.859134
21
2.38551
0
LINE
8
BLACK
6
CONTINUOUS
10
0.859134
20
2.38551
11
0.862147
21
2.38491
0
LINE
8
BLACK
6
CONTINUOUS
10
0.335769
20
2.38491
11
0.338324
21
2.38321
0
LINE
8
BLACK
6
CONTINUOUS
10
0.338324
20
2.38321
11
0.340031
21
2.38065
0
LINE
8
BLACK
6
CONTINUOUS
10
0.340031
20
2.38065
11
0.34063
21
2.37764
0
LINE
8
BLACK
6
CONTINUOUS
10
0.34063
20
2.37764
11
0.34063
21
2.31764
0
LINE
8
BLACK
6
CONTINUOUS
10
0.34063
20
2.31764
11
0.340031
21
2.31462
0
LINE
8
BLACK
6
CONTINUOUS
10
0.340031
20
2.31462
11
0.338324
21
2.31207
0
LINE
8
BLACK
6
CONTINUOUS
10
0.338324
20
2.31207
11
0.335769
21
2.31036
0
LINE
8
BLACK
6
CONTINUOUS
10
0.335769
20
2.31036
11
0.332756
21
2.30976
0
LINE
8
BLACK
6
CONTINUOUS
10
0.332756
20
2.30976
11
0.272756
21
2.30976
0
LINE
8
BLACK
6
CONTINUOUS
10
0.272756
20
2.30976
11
0.269743
21
2.31036
0
LINE
8
BLACK
6
CONTINUOUS
10
0.269743
20
2.31036
11
0.267188
21
2.31207
0
LINE
8
BLACK
6
CONTINUOUS
10
0.267188
20
2.31207
11
0.265481
21
2.31462
0
LINE
8
BLACK
6
CONTINUOUS
10
0.265481
20
2.31462
11
0.264882
21
2.31764
0
LINE
8
BLACK
6
CONTINUOUS
10
0.264882
20
2.31764
11
0.264882
21
2.37764
0
LINE
8
BLACK
6
CONTINUOUS
10
0.264882
20
2.37764
11
0.265481
21
2.38065
0
LINE
8
BLACK
6
CONTINUOUS
10
0.265481
20
2.38065
11
0.267188
21
2.38321
0
LINE
8
BLACK
6
CONTINUOUS
10
0.267188
20
2.38321
11
0.269743
21
2.38491
0
LINE
8
BLACK
6
CONTINUOUS
10
0.269743
20
2.38491
11
0.272756
21
2.38551
0
LINE
8
BLACK
6
CONTINUOUS
10
0.272756
20
2.38551
11
0.332756
21
2.38551
0
LINE
8
BLACK
6
CONTINUOUS
10
0.332756
20
2.38551
11
0.335769
21
2.38491
0
LINE
8
BLACK
6
CONTINUOUS
10
0.635769
20
2.38491
11
0.638324
21
2.38321
0
LINE
8
BLACK
6
CONTINUOUS
10
0.638324
20
2.38321
11
0.640031
21
2.38065
0
LINE
8
BLACK
6
CONTINUOUS
10
0.640031
20
2.38065
11
0.64063
21
2.37764
0
LINE
8
BLACK
6
CONTINUOUS
10
0.64063
20
2.37764
11
0.64063
21
2.31764
0
LINE
8
BLACK
6
CONTINUOUS
10
0.64063
20
2.31764
11
0.640031
21
2.31462
0
LINE
8
BLACK
6
CONTINUOUS
10
0.640031
20
2.31462
11
0.638324
21
2.31207
0
LINE
8
BLACK
6
CONTINUOUS
10
0.638324
20
2.31207
11
0.635769
21
2.31036
0
LINE
8
BLACK
6
CONTINUOUS
10
0.635769
20
2.31036
11
0.632756
21
2.30976
0
LINE
8
BLACK
6
CONTINUOUS
10
0.632756
20
2.30976
11
0.572756
21
2.30976
0
LINE
8
BLACK
6
CONTINUOUS
10
0.572756
20
2.30976
11
0.569743
21
2.31036
0
LINE
8
BLACK
6
CONTINUOUS
10
0.569743
20
2.31036
11
0.567188
21
2.31207
0
LINE
8
BLACK
6
CONTINUOUS
10
0.567188
20
2.31207
11
0.565481
21
2.31462
0
LINE
8
BLACK
6
CONTINUOUS
10
0.565481
20
2.31462
11
0.564882
21
2.31764
0
LINE
8
BLACK
6
CONTINUOUS
10
0.564882
20
2.31764
11
0.564882
21
2.37764
0
LINE
8
BLACK
6
CONTINUOUS
10
0.564882
20
2.37764
11
0.565481
21
2.38065
0
LINE
8
BLACK
6
CONTINUOUS
10
0.565481
20
2.38065
11
0.567188
21
2.38321
0
LINE
8
BLACK
6
CONTINUOUS
10
0.567188
20
2.38321
11
0.569743
21
2.38491
0
LINE
8
BLACK
6
CONTINUOUS
10
0.569743
20
2.38491
11
0.572756
21
2.38551
0
LINE
8
BLACK
6
CONTINUOUS
10
0.572756
20
2.38551
11
0.632756
21
2.38551
0
LINE
8
BLACK
6
CONTINUOUS
10
0.632756
20
2.38551
11
0.635769
21
2.38491
0
LINE
8
BLACK
6
CONTINUOUS
10
1.38971
20
2.38491
11
1.39226
21
2.38321
0
LINE
8
BLACK
6
CONTINUOUS
10
1.39226
20
2.38321
11
1.39397
21
2.38065
0
LINE
8
BLACK
6
CONTINUOUS
10
1.39397
20
2.38065
11
1.39457
21
2.37764
0
LINE
8
BLACK
6
CONTINUOUS
10
1.39457
20
2.37764
11
1.39457
21
2.31764
0
LINE
8
BLACK
6
CONTINUOUS
10
1.39457
20
2.31764
11
1.39397
21
2.31462
0
LINE
8
BLACK
6
CONTINUOUS
10
1.39397
20
2.31462
11
1.39226
21
2.31207
0
LINE
8
BLACK
6
CONTINUOUS
10
1.39226
20
2.31207
11
1.38971
21
2.31036
0
LINE
8
BLACK
6
CONTINUOUS
10
1.38971
20
2.31036
11
1.38669
21
2.30976
0
LINE
8
BLACK
6
CONTINUOUS
10
1.38669
20
2.30976
11
1.32669
21
2.30976
0
LINE
8
BLACK
6
CONTINUOUS
10
1.32669
20
2.30976
11
1.32368
21
2.31036
0
LINE
8
BLACK
6
CONTINUOUS
10
1.32368
20
2.31036
11
1.32113
21
2.31207
0
LINE
8
BLACK
6
CONTINUOUS
10
1.32113
20
2.31207
11
1.31942
21
2.31462
0
LINE
8
BLACK
6
CONTINUOUS
10
1.31942
20
2.31462
11
1.31882
21
2.31764
0
LINE
8
BLACK
6
CONTINUOUS
10
1.31882
20
2.31764
11
1.31882
21
2.37764
0
LINE
8
BLACK
6
CONTINUOUS
10
1.31882
20
2.37764
11
1.31942
21
2.38065
0
LINE
8
BLACK
6
CONTINUOUS
10
1.31942
20
2.38065
11
1.32113
21
2.38321
0
LINE
8
BLACK
6
CONTINUOUS
10
1.32113
20
2.38321
11
1.32368
21
2.38491
0
LINE
8
BLACK
6
CONTINUOUS
10
1.32368
20
2.38491
11
1.32669
21
2.38551
0
LINE
8
BLACK
6
CONTINUOUS
10
1.32669
20
2.38551
11
1.38669
21
2.38551
0
LINE
8
BLACK
6
CONTINUOUS
10
1.38669
20
2.38551
11
1.38971
21
2.38491
0
LINE
8
BLACK
6
CONTINUOUS
10
1.58971
20
2.38491
11
1.59226
21
2.38321
0
LINE
8
BLACK
6
CONTINUOUS
10
1.59226
20
2.38321
11
1.59397
21
2.38065
0
LINE
8
BLACK
6
CONTINUOUS
10
1.59397
20
2.38065
11
1.59457
21
2.37764
0
LINE
8
BLACK
6
CONTINUOUS
10
1.59457
20
2.37764
11
1.59457
21
2.31764
0
LINE
8
BLACK
6
CONTINUOUS
10
1.59457
20
2.31764
11
1.59397
21
2.31462
0
LINE
8
BLACK
6
CONTINUOUS
10
1.59397
20
2.31462
11
1.59226
21
2.31207
0
LINE
8
BLACK
6
CONTINUOUS
10
1.59226
20
2.31207
11
1.58971
21
2.31036
0
LINE
8
BLACK
6
CONTINUOUS
10
1.58971
20
2.31036
11
1.58669
21
2.30976
0
LINE
8
BLACK
6
CONTINUOUS
10
1.58669
20
2.30976
11
1.52669
21
2.30976
0
LINE
8
BLACK
6
CONTINUOUS
10
1.52669
20
2.30976
11
1.52368
21
2.31036
0
LINE
8
BLACK
6
CONTINUOUS
10
1.52368
20
2.31036
11
1.52113
21
2.31207
0
LINE
8
BLACK
6
CONTINUOUS
10
1.52113
20
2.31207
11
1.51942
21
2.31462
0
LINE
8
BLACK
6
CONTINUOUS
10
1.51942
20
2.31462
11
1.51882
21
2.31764
0
LINE
8
BLACK
6
CONTINUOUS
10
1.51882
20
2.31764
11
1.51882
21
2.37764
0
LINE
8
BLACK
6
CONTINUOUS
10
1.51882
20
2.37764
11
1.51942
21
2.38065
0
LINE
8
BLACK
6
CONTINUOUS
10
1.51942
20
2.38065
11
1.52113
21
2.38321
0
LINE
8
BLACK
6
CONTINUOUS
10
1.52113
20
2.38321
11
1.52368
21
2.38491
0
LINE
8
BLACK
6
CONTINUOUS
10
1.52368
20
2.38491
11
1.52669
21
2.38551
0
LINE
8
BLACK
6
CONTINUOUS
10
1.52669
20
2.38551
11
1.58669
21
2.38551
0
LINE
8
BLACK
6
CONTINUOUS
10
1.58669
20
2.38551
11
1.58971
21
2.38491
0
LINE
8
BLACK
6
CONTINUOUS
10
1.28971
20
2.38491
11
1.29226
21
2.38321
0
LINE
8
BLACK
6
CONTINUOUS
10
1.29226
20
2.38321
11
1.29397
21
2.38065
0
LINE
8
BLACK
6
CONTINUOUS
10
1.29397
20
2.38065
11
1.29457
21
2.37764
0
LINE
8
BLACK
6
CONTINUOUS
10
1.29457
20
2.37764
11
1.29457
21
2.31764
0
LINE
8
BLACK
6
CONTINUOUS
10
1.29457
20
2.31764
11
1.29397
21
2.31462
0
LINE
8
BLACK
6
CONTINUOUS
10
1.29397
20
2.31462
11
1.29226
21
2.31207
0
LINE
8
BLACK
6
CONTINUOUS
10
1.29226
20
2.31207
11
1.28971
21
2.31036
0
LINE
8
BLACK
6
CONTINUOUS
10
1.28971
20
2.31036
11
1.28669
21
2.30976
0
LINE
8
BLACK
6
CONTINUOUS
10
1.28669
20
2.30976
11
1.22669
21
2.30976
0
LINE
8
BLACK
6
CONTINUOUS
10
1.22669
20
2.30976
11
1.22368
21
2.31036
0
LINE
8
BLACK
6
CONTINUOUS
10
1.22368
20
2.31036
11
1.22113
21
2.31207
0
LINE
8
BLACK
6
CONTINUOUS
10
1.22113
20
2.31207
11
1.21942
21
2.31462
0
LINE
8
BLACK
6
CONTINUOUS
10
1.21942
20
2.31462
11
1.21882
21
2.31764
0
LINE
8
BLACK
6
CONTINUOUS
10
1.21882
20
2.31764
11
1.21882
21
2.37764
0
LINE
8
BLACK
6
CONTINUOUS
10
1.21882
20
2.37764
11
1.21942
21
2.38065
0
LINE
8
BLACK
6
CONTINUOUS
10
1.21942
20
2.38065
11
1.22113
21
2.38321
0
LINE
8
BLACK
6
CONTINUOUS
10
1.22113
20
2.38321
11
1.22368
21
2.38491
0
LINE
8
BLACK
6
CONTINUOUS
10
1.22368
20
2.38491
11
1.22669
21
2.38551
0
LINE
8
BLACK
6
CONTINUOUS
10
1.22669
20
2.38551
11
1.28669
21
2.38551
0
LINE
8
BLACK
6
CONTINUOUS
10
1.28669
20
2.38551
11
1.28971
21
2.38491
0
LINE
8
BLACK
6
CONTINUOUS
10
0.227929
20
2.42341
11
0.23283
21
2.42169
0
LINE
8
BLACK
6
CONTINUOUS
10
0.23283
20
2.42169
11
0.237009
21
2.4186
0
LINE
8
BLACK
6
CONTINUOUS
10
0.237009
20
2.4186
11
0.240095
21
2.41442
0
LINE
8
BLACK
6
CONTINUOUS
10
0.240095
20
2.41442
11
0.241817
21
2.40952
0
LINE
8
BLACK
6
CONTINUOUS
10
0.241817
20
2.40952
11
0.242126
21
2.40625
0
LINE
8
BLACK
6
CONTINUOUS
10
0.242126
20
2.40625
11
0.242126
21
2.38706
0
LINE
8
BLACK
6
CONTINUOUS
10
0.242126
20
2.38706
11
0.241817
21
2.38378
0
LINE
8
BLACK
6
CONTINUOUS
10
0.241817
20
2.38378
11
0.240095
21
2.37888
0
LINE
8
BLACK
6
CONTINUOUS
10
0.240095
20
2.37888
11
0.237009
21
2.3747
0
LINE
8
BLACK
6
CONTINUOUS
10
0.237009
20
2.3747
11
0.23283
21
2.37162
0
LINE
8
BLACK
6
CONTINUOUS
10
0.23283
20
2.37162
11
0.227929
21
2.3699
0
LINE
8
BLACK
6
CONTINUOUS
10
0.227929
20
2.3699
11
0.224656
21
2.36959
0
LINE
8
BLACK
6
CONTINUOUS
10
0.224656
20
2.36959
11
0.18873
21
2.36959
0
LINE
8
BLACK
6
CONTINUOUS
10
0.18873
20
2.36959
11
0.185457
21
2.3699
0
LINE
8
BLACK
6
CONTINUOUS
10
0.185457
20
2.3699
11
0.180555
21
2.37162
0
LINE
8
BLACK
6
CONTINUOUS
10
0.180555
20
2.37162
11
0.176377
21
2.3747
0
LINE
8
BLACK
6
CONTINUOUS
10
0.176377
20
2.3747
11
0.173291
21
2.37888
0
LINE
8
BLACK
6
CONTINUOUS
10
0.173291
20
2.37888
11
0.171569
21
2.38378
0
LINE
8
BLACK
6
CONTINUOUS
10
0.171569
20
2.38378
11
0.17126
21
2.38706
0
LINE
8
BLACK
6
CONTINUOUS
10
0.17126
20
2.38706
11
0.17126
21
2.40625
0
LINE
8
BLACK
6
CONTINUOUS
10
0.17126
20
2.40625
11
0.171569
21
2.40952
0
LINE
8
BLACK
6
CONTINUOUS
10
0.171569
20
2.40952
11
0.173291
21
2.41442
0
LINE
8
BLACK
6
CONTINUOUS
10
0.173291
20
2.41442
11
0.176377
21
2.4186
0
LINE
8
BLACK
6
CONTINUOUS
10
0.176377
20
2.4186
11
0.180555
21
2.42169
0
LINE
8
BLACK
6
CONTINUOUS
10
0.180555
20
2.42169
11
0.185457
21
2.42341
0
LINE
8
BLACK
6
CONTINUOUS
10
0.185457
20
2.42341
11
0.18873
21
2.42372
0
LINE
8
BLACK
6
CONTINUOUS
10
0.18873
20
2.42372
11
0.224656
21
2.42372
0
LINE
8
BLACK
6
CONTINUOUS
10
0.224656
20
2.42372
11
0.227929
21
2.42341
0
LINE
8
BLACK
6
CONTINUOUS
10
1.48971
20
2.48491
11
1.49226
21
2.48321
0
LINE
8
BLACK
6
CONTINUOUS
10
1.49226
20
2.48321
11
1.49397
21
2.48065
0
LINE
8
BLACK
6
CONTINUOUS
10
1.49397
20
2.48065
11
1.49457
21
2.47764
0
LINE
8
BLACK
6
CONTINUOUS
10
1.49457
20
2.47764
11
1.49457
21
2.41764
0
LINE
8
BLACK
6
CONTINUOUS
10
1.49457
20
2.41764
11
1.49397
21
2.41462
0
LINE
8
BLACK
6
CONTINUOUS
10
1.49397
20
2.41462
11
1.49226
21
2.41207
0
LINE
8
BLACK
6
CONTINUOUS
10
1.49226
20
2.41207
11
1.48971
21
2.41036
0
LINE
8
BLACK
6
CONTINUOUS
10
1.48971
20
2.41036
11
1.48669
21
2.40976
0
LINE
8
BLACK
6
CONTINUOUS
10
1.48669
20
2.40976
11
1.42669
21
2.40976
0
LINE
8
BLACK
6
CONTINUOUS
10
1.42669
20
2.40976
11
1.42368
21
2.41036
0
LINE
8
BLACK
6
CONTINUOUS
10
1.42368
20
2.41036
11
1.42113
21
2.41207
0
LINE
8
BLACK
6
CONTINUOUS
10
1.42113
20
2.41207
11
1.41942
21
2.41462
0
LINE
8
BLACK
6
CONTINUOUS
10
1.41942
20
2.41462
11
1.41882
21
2.41764
0
LINE
8
BLACK
6
CONTINUOUS
10
1.41882
20
2.41764
11
1.41882
21
2.47764
0
LINE
8
BLACK
6
CONTINUOUS
10
1.41882
20
2.47764
11
1.41942
21
2.48065
0
LINE
8
BLACK
6
CONTINUOUS
10
1.41942
20
2.48065
11
1.42113
21
2.48321
0
LINE
8
BLACK
6
CONTINUOUS
10
1.42113
20
2.48321
11
1.42368
21
2.48491
0
LINE
8
BLACK
6
CONTINUOUS
10
1.42368
20
2.48491
11
1.42669
21
2.48551
0
LINE
8
BLACK
6
CONTINUOUS
10
1.42669
20
2.48551
11
1.48669
21
2.48551
0
LINE
8
BLACK
6
CONTINUOUS
10
1.48669
20
2.48551
11
1.48971
21
2.48491
0
LINE
8
BLACK
6
CONTINUOUS
10
1.38971
20
2.48491
11
1.39226
21
2.48321
0
LINE
8
BLACK
6
CONTINUOUS
10
1.39226
20
2.48321
11
1.39397
21
2.48065
0
LINE
8
BLACK
6
CONTINUOUS
10
1.39397
20
2.48065
11
1.39457
21
2.47764
0
LINE
8
BLACK
6
CONTINUOUS
10
1.39457
20
2.47764
11
1.39457
21
2.41764
0
LINE
8
BLACK
6
CONTINUOUS
10
1.39457
20
2.41764
11
1.39397
21
2.41462
0
LINE
8
BLACK
6
CONTINUOUS
10
1.39397
20
2.41462
11
1.39226
21
2.41207
0
LINE
8
BLACK
6
CONTINUOUS
10
1.39226
20
2.41207
11
1.38971
21
2.41036
0
LINE
8
BLACK
6
CONTINUOUS
10
1.38971
20
2.41036
11
1.38669
21
2.40976
0
LINE
8
BLACK
6
CONTINUOUS
10
1.38669
20
2.40976
11
1.32669
21
2.40976
0
LINE
8
BLACK
6
CONTINUOUS
10
1.32669
20
2.40976
11
1.32368
21
2.41036
0
LINE
8
BLACK
6
CONTINUOUS
10
1.32368
20
2.41036
11
1.32113
21
2.41207
0
LINE
8
BLACK
6
CONTINUOUS
10
1.32113
20
2.41207
11
1.31942
21
2.41462
0
LINE
8
BLACK
6
CONTINUOUS
10
1.31942
20
2.41462
11
1.31882
21
2.41764
0
LINE
8
BLACK
6
CONTINUOUS
10
1.31882
20
2.41764
11
1.31882
21
2.47764
0
LINE
8
BLACK
6
CONTINUOUS
10
1.31882
20
2.47764
11
1.31942
21
2.48065
0
LINE
8
BLACK
6
CONTINUOUS
10
1.31942
20
2.48065
11
1.32113
21
2.48321
0
LINE
8
BLACK
6
CONTINUOUS
10
1.32113
20
2.48321
11
1.32368
21
2.48491
0
LINE
8
BLACK
6
CONTINUOUS
10
1.32368
20
2.48491
11
1.32669
21
2.48551
0
LINE
8
BLACK
6
CONTINUOUS
10
1.32669
20
2.48551
11
1.38669
21
2.48551
0
LINE
8
BLACK
6
CONTINUOUS
10
1.38669
20
2.48551
11
1.38971
21
2.48491
0
LINE
8
BLACK
6
CONTINUOUS
10
0.335769
20
2.48491
11
0.338324
21
2.48321
0
LINE
8
BLACK
6
CONTINUOUS
10
0.338324
20
2.48321
11
0.340031
21
2.48065
0
LINE
8
BLACK
6
CONTINUOUS
10
0.340031
20
2.48065
11
0.34063
21
2.47764
0
LINE
8
BLACK
6
CONTINUOUS
10
0.34063
20
2.47764
11
0.34063
21
2.41764
0
LINE
8
BLACK
6
CONTINUOUS
10
0.34063
20
2.41764
11
0.340031
21
2.41462
0
LINE
8
BLACK
6
CONTINUOUS
10
0.340031
20
2.41462
11
0.338324
21
2.41207
0
LINE
8
BLACK
6
CONTINUOUS
10
0.338324
20
2.41207
11
0.335769
21
2.41036
0
LINE
8
BLACK
6
CONTINUOUS
10
0.335769
20
2.41036
11
0.332756
21
2.40976
0
LINE
8
BLACK
6
CONTINUOUS
10
0.332756
20
2.40976
11
0.272756
21
2.40976
0
LINE
8
BLACK
6
CONTINUOUS
10
0.272756
20
2.40976
11
0.269743
21
2.41036
0
LINE
8
BLACK
6
CONTINUOUS
10
0.269743
20
2.41036
11
0.267188
21
2.41207
0
LINE
8
BLACK
6
CONTINUOUS
10
0.267188
20
2.41207
11
0.265481
21
2.41462
0
LINE
8
BLACK
6
CONTINUOUS
10
0.265481
20
2.41462
11
0.264882
21
2.41764
0
LINE
8
BLACK
6
CONTINUOUS
10
0.264882
20
2.41764
11
0.264882
21
2.47764
0
LINE
8
BLACK
6
CONTINUOUS
10
0.264882
20
2.47764
11
0.265481
21
2.48065
0
LINE
8
BLACK
6
CONTINUOUS
10
0.265481
20
2.48065
11
0.267188
21
2.48321
0
LINE
8
BLACK
6
CONTINUOUS
10
0.267188
20
2.48321
11
0.269743
21
2.48491
0
LINE
8
BLACK
6
CONTINUOUS
10
0.269743
20
2.48491
11
0.272756
21
2.48551
0
LINE
8
BLACK
6
CONTINUOUS
10
0.272756
20
2.48551
11
0.332756
21
2.48551
0
LINE
8
BLACK
6
CONTINUOUS
10
0.332756
20
2.48551
11
0.335769
21
2.48491
0
LINE
8
BLACK
6
CONTINUOUS
10
1.28971
20
2.48491
11
1.29226
21
2.48321
0
LINE
8
BLACK
6
CONTINUOUS
10
1.29226
20
2.48321
11
1.29397
21
2.48065
0
LINE
8
BLACK
6
CONTINUOUS
10
1.29397
20
2.48065
11
1.29457
21
2.47764
0
LINE
8
BLACK
6
CONTINUOUS
10
1.29457
20
2.47764
11
1.29457
21
2.41764
0
LINE
8
BLACK
6
CONTINUOUS
10
1.29457
20
2.41764
11
1.29397
21
2.41462
0
LINE
8
BLACK
6
CONTINUOUS
10
1.29397
20
2.41462
11
1.29226
21
2.41207
0
LINE
8
BLACK
6
CONTINUOUS
10
1.29226
20
2.41207
11
1.28971
21
2.41036
0
LINE
8
BLACK
6
CONTINUOUS
10
1.28971
20
2.41036
11
1.28669
21
2.40976
0
LINE
8
BLACK
6
CONTINUOUS
10
1.28669
20
2.40976
11
1.22669
21
2.40976
0
LINE
8
BLACK
6
CONTINUOUS
10
1.22669
20
2.40976
11
1.22368
21
2.41036
0
LINE
8
BLACK
6
CONTINUOUS
10
1.22368
20
2.41036
11
1.22113
21
2.41207
0
LINE
8
BLACK
6
CONTINUOUS
10
1.22113
20
2.41207
11
1.21942
21
2.41462
0
LINE
8
BLACK
6
CONTINUOUS
10
1.21942
20
2.41462
11
1.21882
21
2.41764
0
LINE
8
BLACK
6
CONTINUOUS
10
1.21882
20
2.41764
11
1.21882
21
2.47764
0
LINE
8
BLACK
6
CONTINUOUS
10
1.21882
20
2.47764
11
1.21942
21
2.48065
0
LINE
8
BLACK
6
CONTINUOUS
10
1.21942
20
2.48065
11
1.22113
21
2.48321
0
LINE
8
BLACK
6
CONTINUOUS
10
1.22113
20
2.48321
11
1.22368
21
2.48491
0
LINE
8
BLACK
6
CONTINUOUS
10
1.22368
20
2.48491
11
1.22669
21
2.48551
0
LINE
8
BLACK
6
CONTINUOUS
10
1.22669
20
2.48551
11
1.28669
21
2.48551
0
LINE
8
BLACK
6
CONTINUOUS
10
1.28669
20
2.48551
11
1.28971
21
2.48491
0
LINE
8
BLACK
6
CONTINUOUS
10
1.06215
20
2.48491
11
1.0647
21
2.48321
0
LINE
8
BLACK
6
CONTINUOUS
10
1.0647
20
2.48321
11
1.06641
21
2.48065
0
LINE
8
BLACK
6
CONTINUOUS
10
1.06641
20
2.48065
11
1.06701
21
2.47764
0
LINE
8
BLACK
6
CONTINUOUS
10
1.06701
20
2.47764
11
1.06701
21
2.41764
0
LINE
8
BLACK
6
CONTINUOUS
10
1.06701
20
2.41764
11
1.06641
21
2.41462
0
LINE
8
BLACK
6
CONTINUOUS
10
1.06641
20
2.41462
11
1.0647
21
2.41207
0
LINE
8
BLACK
6
CONTINUOUS
10
1.0647
20
2.41207
11
1.06215
21
2.41036
0
LINE
8
BLACK
6
CONTINUOUS
10
1.06215
20
2.41036
11
1.05913
21
2.40976
0
LINE
8
BLACK
6
CONTINUOUS
10
1.05913
20
2.40976
11
0.999134
21
2.40976
0
LINE
8
BLACK
6
CONTINUOUS
10
0.999134
20
2.40976
11
0.996121
21
2.41036
0
LINE
8
BLACK
6
CONTINUOUS
10
0.996121
20
2.41036
11
0.993566
21
2.41207
0
LINE
8
BLACK
6
CONTINUOUS
10
0.993566
20
2.41207
11
0.991859
21
2.41462
0
LINE
8
BLACK
6
CONTINUOUS
10
0.991859
20
2.41462
11
0.99126
21
2.41764
0
LINE
8
BLACK
6
CONTINUOUS
10
0.99126
20
2.41764
11
0.99126
21
2.47764
0
LINE
8
BLACK
6
CONTINUOUS
10
0.99126
20
2.47764
11
0.991859
21
2.48065
0
LINE
8
BLACK
6
CONTINUOUS
10
0.991859
20
2.48065
11
0.993566
21
2.48321
0
LINE
8
BLACK
6
CONTINUOUS
10
0.993566
20
2.48321
11
0.996121
21
2.48491
0
LINE
8
BLACK
6
CONTINUOUS
10
0.996121
20
2.48491
11
0.999134
21
2.48551
0
LINE
8
BLACK
6
CONTINUOUS
10
0.999134
20
2.48551
11
1.05913
21
2.48551
0
LINE
8
BLACK
6
CONTINUOUS
10
1.05913
20
2.48551
11
1.06215
21
2.48491
0
LINE
8
BLACK
6
CONTINUOUS
10
0.962147
20
2.48491
11
0.964702
21
2.48321
0
LINE
8
BLACK
6
CONTINUOUS
10
0.964702
20
2.48321
11
0.966409
21
2.48065
0
LINE
8
BLACK
6
CONTINUOUS
10
0.966409
20
2.48065
11
0.967008
21
2.47764
0
LINE
8
BLACK
6
CONTINUOUS
10
0.967008
20
2.47764
11
0.967008
21
2.41764
0
LINE
8
BLACK
6
CONTINUOUS
10
0.967008
20
2.41764
11
0.966409
21
2.41462
0
LINE
8
BLACK
6
CONTINUOUS
10
0.966409
20
2.41462
11
0.964702
21
2.41207
0
LINE
8
BLACK
6
CONTINUOUS
10
0.964702
20
2.41207
11
0.962147
21
2.41036
0
LINE
8
BLACK
6
CONTINUOUS
10
0.962147
20
2.41036
11
0.959134
21
2.40976
0
LINE
8
BLACK
6
CONTINUOUS
10
0.959134
20
2.40976
11
0.899134
21
2.40976
0
LINE
8
BLACK
6
CONTINUOUS
10
0.899134
20
2.40976
11
0.896121
21
2.41036
0
LINE
8
BLACK
6
CONTINUOUS
10
0.896121
20
2.41036
11
0.893566
21
2.41207
0
LINE
8
BLACK
6
CONTINUOUS
10
0.893566
20
2.41207
11
0.891859
21
2.41462
0
LINE
8
BLACK
6
CONTINUOUS
10
0.891859
20
2.41462
11
0.89126
21
2.41764
0
LINE
8
BLACK
6
CONTINUOUS
10
0.89126
20
2.41764
11
0.89126
21
2.47764
0
LINE
8
BLACK
6
CONTINUOUS
10
0.89126
20
2.47764
11
0.891859
21
2.48065
0
LINE
8
BLACK
6
CONTINUOUS
10
0.891859
20
2.48065
11
0.893566
21
2.48321
0
LINE
8
BLACK
6
CONTINUOUS
10
0.893566
20
2.48321
11
0.896121
21
2.48491
0
LINE
8
BLACK
6
CONTINUOUS
10
0.896121
20
2.48491
11
0.899134
21
2.48551
0
LINE
8
BLACK
6
CONTINUOUS
10
0.899134
20
2.48551
11
0.959134
21
2.48551
0
LINE
8
BLACK
6
CONTINUOUS
10
0.959134
20
2.48551
11
0.962147
21
2.48491
0
LINE
8
BLACK
6
CONTINUOUS
10
0.862147
20
2.48491
11
0.864702
21
2.48321
0
LINE
8
BLACK
6
CONTINUOUS
10
0.864702
20
2.48321
11
0.866409
21
2.48065
0
LINE
8
BLACK
6
CONTINUOUS
10
0.866409
20
2.48065
11
0.867008
21
2.47764
0
LINE
8
BLACK
6
CONTINUOUS
10
0.867008
20
2.47764
11
0.867008
21
2.41764
0
LINE
8
BLACK
6
CONTINUOUS
10
0.867008
20
2.41764
11
0.866409
21
2.41462
0
LINE
8
BLACK
6
CONTINUOUS
10
0.866409
20
2.41462
11
0.864702
21
2.41207
0
LINE
8
BLACK
6
CONTINUOUS
10
0.864702
20
2.41207
11
0.862147
21
2.41036
0
LINE
8
BLACK
6
CONTINUOUS
10
0.862147
20
2.41036
11
0.859134
21
2.40976
0
LINE
8
BLACK
6
CONTINUOUS
10
0.859134
20
2.40976
11
0.799134
21
2.40976
0
LINE
8
BLACK
6
CONTINUOUS
10
0.799134
20
2.40976
11
0.796121
21
2.41036
0
LINE
8
BLACK
6
CONTINUOUS
10
0.796121
20
2.41036
11
0.793566
21
2.41207
0
LINE
8
BLACK
6
CONTINUOUS
10
0.793566
20
2.41207
11
0.791859
21
2.41462
0
LINE
8
BLACK
6
CONTINUOUS
10
0.791859
20
2.41462
11
0.79126
21
2.41764
0
LINE
8
BLACK
6
CONTINUOUS
10
0.79126
20
2.41764
11
0.79126
21
2.47764
0
LINE
8
BLACK
6
CONTINUOUS
10
0.79126
20
2.47764
11
0.791859
21
2.48065
0
LINE
8
BLACK
6
CONTINUOUS
10
0.791859
20
2.48065
11
0.793566
21
2.48321
0
LINE
8
BLACK
6
CONTINUOUS
10
0.793566
20
2.48321
11
0.796121
21
2.48491
0
LINE
8
BLACK
6
CONTINUOUS
10
0.796121
20
2.48491
11
0.799134
21
2.48551
0
LINE
8
BLACK
6
CONTINUOUS
10
0.799134
20
2.48551
11
0.859134
21
2.48551
0
LINE
8
BLACK
6
CONTINUOUS
10
0.859134
20
2.48551
11
0.862147
21
2.48491
0
LINE
8
BLACK
6
CONTINUOUS
10
0.435769
20
2.48491
11
0.438324
21
2.48321
0
LINE
8
BLACK
6
CONTINUOUS
10
0.438324
20
2.48321
11
0.440031
21
2.48065
0
LINE
8
BLACK
6
CONTINUOUS
10
0.440031
20
2.48065
11
0.44063
21
2.47764
0
LINE
8
BLACK
6
CONTINUOUS
10
0.44063
20
2.47764
11
0.44063
21
2.41764
0
LINE
8
BLACK
6
CONTINUOUS
10
0.44063
20
2.41764
11
0.440031
21
2.41462
0
LINE
8
BLACK
6
CONTINUOUS
10
0.440031
20
2.41462
11
0.438324
21
2.41207
0
LINE
8
BLACK
6
CONTINUOUS
10
0.438324
20
2.41207
11
0.435769
21
2.41036
0
LINE
8
BLACK
6
CONTINUOUS
10
0.435769
20
2.41036
11
0.432756
21
2.40976
0
LINE
8
BLACK
6
CONTINUOUS
10
0.432756
20
2.40976
11
0.372756
21
2.40976
0
LINE
8
BLACK
6
CONTINUOUS
10
0.372756
20
2.40976
11
0.369743
21
2.41036
0
LINE
8
BLACK
6
CONTINUOUS
10
0.369743
20
2.41036
11
0.367188
21
2.41207
0
LINE
8
BLACK
6
CONTINUOUS
10
0.367188
20
2.41207
11
0.365481
21
2.41462
0
LINE
8
BLACK
6
CONTINUOUS
10
0.365481
20
2.41462
11
0.364882
21
2.41764
0
LINE
8
BLACK
6
CONTINUOUS
10
0.364882
20
2.41764
11
0.364882
21
2.47764
0
LINE
8
BLACK
6
CONTINUOUS
10
0.364882
20
2.47764
11
0.365481
21
2.48065
0
LINE
8
BLACK
6
CONTINUOUS
10
0.365481
20
2.48065
11
0.367188
21
2.48321
0
LINE
8
BLACK
6
CONTINUOUS
10
0.367188
20
2.48321
11
0.369743
21
2.48491
0
LINE
8
BLACK
6
CONTINUOUS
10
0.369743
20
2.48491
11
0.372756
21
2.48551
0
LINE
8
BLACK
6
CONTINUOUS
10
0.372756
20
2.48551
11
0.432756
21
2.48551
0
LINE
8
BLACK
6
CONTINUOUS
10
0.432756
20
2.48551
11
0.435769
21
2.48491
0
LINE
8
BLACK
6
CONTINUOUS
10
0.535769
20
2.48491
11
0.538324
21
2.48321
0
LINE
8
BLACK
6
CONTINUOUS
10
0.538324
20
2.48321
11
0.540031
21
2.48065
0
LINE
8
BLACK
6
CONTINUOUS
10
0.540031
20
2.48065
11
0.54063
21
2.47764
0
LINE
8
BLACK
6
CONTINUOUS
10
0.54063
20
2.47764
11
0.54063
21
2.41764
0
LINE
8
BLACK
6
CONTINUOUS
10
0.54063
20
2.41764
11
0.540031
21
2.41462
0
LINE
8
BLACK
6
CONTINUOUS
10
0.540031
20
2.41462
11
0.538324
21
2.41207
0
LINE
8
BLACK
6
CONTINUOUS
10
0.538324
20
2.41207
11
0.535769
21
2.41036
0
LINE
8
BLACK
6
CONTINUOUS
10
0.535769
20
2.41036
11
0.532756
21
2.40976
0
LINE
8
BLACK
6
CONTINUOUS
10
0.532756
20
2.40976
11
0.472756
21
2.40976
0
LINE
8
BLACK
6
CONTINUOUS
10
0.472756
20
2.40976
11
0.469743
21
2.41036
0
LINE
8
BLACK
6
CONTINUOUS
10
0.469743
20
2.41036
11
0.467188
21
2.41207
0
LINE
8
BLACK
6
CONTINUOUS
10
0.467188
20
2.41207
11
0.465481
21
2.41462
0
LINE
8
BLACK
6
CONTINUOUS
10
0.465481
20
2.41462
11
0.464882
21
2.41764
0
LINE
8
BLACK
6
CONTINUOUS
10
0.464882
20
2.41764
11
0.464882
21
2.47764
0
LINE
8
BLACK
6
CONTINUOUS
10
0.464882
20
2.47764
11
0.465481
21
2.48065
0
LINE
8
BLACK
6
CONTINUOUS
10
0.465481
20
2.48065
11
0.467188
21
2.48321
0
LINE
8
BLACK
6
CONTINUOUS
10
0.467188
20
2.48321
11
0.469743
21
2.48491
0
LINE
8
BLACK
6
CONTINUOUS
10
0.469743
20
2.48491
11
0.472756
21
2.48551
0
LINE
8
BLACK
6
CONTINUOUS
10
0.472756
20
2.48551
11
0.532756
21
2.48551
0
LINE
8
BLACK
6
CONTINUOUS
10
0.532756
20
2.48551
11
0.535769
21
2.48491
0
LINE
8
BLACK
6
CONTINUOUS
10
0.635769
20
2.48491
11
0.638324
21
2.48321
0
LINE
8
BLACK
6
CONTINUOUS
10
0.638324
20
2.48321
11
0.640031
21
2.48065
0
LINE
8
BLACK
6
CONTINUOUS
10
0.640031
20
2.48065
11
0.64063
21
2.47764
0
LINE
8
BLACK
6
CONTINUOUS
10
0.64063
20
2.47764
11
0.64063
21
2.41764
0
LINE
8
BLACK
6
CONTINUOUS
10
0.64063
20
2.41764
11
0.640031
21
2.41462
0
LINE
8
BLACK
6
CONTINUOUS
10
0.640031
20
2.41462
11
0.638324
21
2.41207
0
LINE
8
BLACK
6
CONTINUOUS
10
0.638324
20
2.41207
11
0.635769
21
2.41036
0
LINE
8
BLACK
6
CONTINUOUS
10
0.635769
20
2.41036
11
0.632756
21
2.40976
0
LINE
8
BLACK
6
CONTINUOUS
10
0.632756
20
2.40976
11
0.572756
21
2.40976
0
LINE
8
BLACK
6
CONTINUOUS
10
0.572756
20
2.40976
11
0.569743
21
2.41036
0
LINE
8
BLACK
6
CONTINUOUS
10
0.569743
20
2.41036
11
0.567188
21
2.41207
0
LINE
8
BLACK
6
CONTINUOUS
10
0.567188
20
2.41207
11
0.565481
21
2.41462
0
LINE
8
BLACK
6
CONTINUOUS
10
0.565481
20
2.41462
11
0.564882
21
2.41764
0
LINE
8
BLACK
6
CONTINUOUS
10
0.564882
20
2.41764
11
0.564882
21
2.47764
0
LINE
8
BLACK
6
CONTINUOUS
10
0.564882
20
2.47764
11
0.565481
21
2.48065
0
LINE
8
BLACK
6
CONTINUOUS
10
0.565481
20
2.48065
11
0.567188
21
2.48321
0
LINE
8
BLACK
6
CONTINUOUS
10
0.567188
20
2.48321
11
0.569743
21
2.48491
0
LINE
8
BLACK
6
CONTINUOUS
10
0.569743
20
2.48491
11
0.572756
21
2.48551
0
LINE
8
BLACK
6
CONTINUOUS
10
0.572756
20
2.48551
11
0.632756
21
2.48551
0
LINE
8
BLACK
6
CONTINUOUS
10
0.632756
20
2.48551
11
0.635769
21
2.48491
0
LINE
8
BLACK
6
CONTINUOUS
10
1.68971
20
2.48491
11
1.69226
21
2.48321
0
LINE
8
BLACK
6
CONTINUOUS
10
1.69226
20
2.48321
11
1.69397
21
2.48065
0
LINE
8
BLACK
6
CONTINUOUS
10
1.69397
20
2.48065
11
1.69457
21
2.47764
0
LINE
8
BLACK
6
CONTINUOUS
10
1.69457
20
2.47764
11
1.69457
21
2.41764
0
LINE
8
BLACK
6
CONTINUOUS
10
1.69457
20
2.41764
11
1.69397
21
2.41462
0
LINE
8
BLACK
6
CONTINUOUS
10
1.69397
20
2.41462
11
1.69226
21
2.41207
0
LINE
8
BLACK
6
CONTINUOUS
10
1.69226
20
2.41207
11
1.68971
21
2.41036
0
LINE
8
BLACK
6
CONTINUOUS
10
1.68971
20
2.41036
11
1.68669
21
2.40976
0
LINE
8
BLACK
6
CONTINUOUS
10
1.68669
20
2.40976
11
1.62669
21
2.40976
0
LINE
8
BLACK
6
CONTINUOUS
10
1.62669
20
2.40976
11
1.62368
21
2.41036
0
LINE
8
BLACK
6
CONTINUOUS
10
1.62368
20
2.41036
11
1.62113
21
2.41207
0
LINE
8
BLACK
6
CONTINUOUS
10
1.62113
20
2.41207
11
1.61942
21
2.41462
0
LINE
8
BLACK
6
CONTINUOUS
10
1.61942
20
2.41462
11
1.61882
21
2.41764
0
LINE
8
BLACK
6
CONTINUOUS
10
1.61882
20
2.41764
11
1.61882
21
2.47764
0
LINE
8
BLACK
6
CONTINUOUS
10
1.61882
20
2.47764
11
1.61942
21
2.48065
0
LINE
8
BLACK
6
CONTINUOUS
10
1.61942
20
2.48065
11
1.62113
21
2.48321
0
LINE
8
BLACK
6
CONTINUOUS
10
1.62113
20
2.48321
11
1.62368
21
2.48491
0
LINE
8
BLACK
6
CONTINUOUS
10
1.62368
20
2.48491
11
1.62669
21
2.48551
0
LINE
8
BLACK
6
CONTINUOUS
10
1.62669
20
2.48551
11
1.68669
21
2.48551
0
LINE
8
BLACK
6
CONTINUOUS
10
1.68669
20
2.48551
11
1.68971
21
2.48491
0
LINE
8
BLACK
6
CONTINUOUS
10
1.58971
20
2.48491
11
1.59226
21
2.48321
0
LINE
8
BLACK
6
CONTINUOUS
10
1.59226
20
2.48321
11
1.59397
21
2.48065
0
LINE
8
BLACK
6
CONTINUOUS
10
1.59397
20
2.48065
11
1.59457
21
2.47764
0
LINE
8
BLACK
6
CONTINUOUS
10
1.59457
20
2.47764
11
1.59457
21
2.41764
0
LINE
8
BLACK
6
CONTINUOUS
10
1.59457
20
2.41764
11
1.59397
21
2.41462
0
LINE
8
BLACK
6
CONTINUOUS
10
1.59397
20
2.41462
11
1.59226
21
2.41207
0
LINE
8
BLACK
6
CONTINUOUS
10
1.59226
20
2.41207
11
1.58971
21
2.41036
0
LINE
8
BLACK
6
CONTINUOUS
10
1.58971
20
2.41036
11
1.58669
21
2.40976
0
LINE
8
BLACK
6
CONTINUOUS
10
1.58669
20
2.40976
11
1.52669
21
2.40976
0
LINE
8
BLACK
6
CONTINUOUS
10
1.52669
20
2.40976
11
1.52368
21
2.41036
0
LINE
8
BLACK
6
CONTINUOUS
10
1.52368
20
2.41036
11
1.52113
21
2.41207
0
LINE
8
BLACK
6
CONTINUOUS
10
1.52113
20
2.41207
11
1.51942
21
2.41462
0
LINE
8
BLACK
6
CONTINUOUS
10
1.51942
20
2.41462
11
1.51882
21
2.41764
0
LINE
8
BLACK
6
CONTINUOUS
10
1.51882
20
2.41764
11
1.51882
21
2.47764
0
LINE
8
BLACK
6
CONTINUOUS
10
1.51882
20
2.47764
11
1.51942
21
2.48065
0
LINE
8
BLACK
6
CONTINUOUS
10
1.51942
20
2.48065
11
1.52113
21
2.48321
0
LINE
8
BLACK
6
CONTINUOUS
10
1.52113
20
2.48321
11
1.52368
21
2.48491
0
LINE
8
BLACK
6
CONTINUOUS
10
1.52368
20
2.48491
11
1.52669
21
2.48551
0
LINE
8
BLACK
6
CONTINUOUS
10
1.52669
20
2.48551
11
1.58669
21
2.48551
0
LINE
8
BLACK
6
CONTINUOUS
10
1.58669
20
2.48551
11
1.58971
21
2.48491
0
LINE
8
BLACK
6
CONTINUOUS
10
0.227929
20
2.49723
11
0.23283
21
2.49551
0
LINE
8
BLACK
6
CONTINUOUS
10
0.23283
20
2.49551
11
0.237009
21
2.49242
0
LINE
8
BLACK
6
CONTINUOUS
10
0.237009
20
2.49242
11
0.240095
21
2.48824
0
LINE
8
BLACK
6
CONTINUOUS
10
0.240095
20
2.48824
11
0.241817
21
2.48334
0
LINE
8
BLACK
6
CONTINUOUS
10
0.241817
20
2.48334
11
0.242126
21
2.48007
0
LINE
8
BLACK
6
CONTINUOUS
10
0.242126
20
2.48007
11
0.242126
21
2.46088
0
LINE
8
BLACK
6
CONTINUOUS
10
0.242126
20
2.46088
11
0.241817
21
2.4576
0
LINE
8
BLACK
6
CONTINUOUS
10
0.241817
20
2.4576
11
0.240095
21
2.4527
0
LINE
8
BLACK
6
CONTINUOUS
10
0.240095
20
2.4527
11
0.237009
21
2.44852
0
LINE
8
BLACK
6
CONTINUOUS
10
0.237009
20
2.44852
11
0.23283
21
2.44544
0
LINE
8
BLACK
6
CONTINUOUS
10
0.23283
20
2.44544
11
0.227929
21
2.44371
0
LINE
8
BLACK
6
CONTINUOUS
10
0.227929
20
2.44371
11
0.224656
21
2.44341
0
LINE
8
BLACK
6
CONTINUOUS
10
0.224656
20
2.44341
11
0.18873
21
2.44341
0
LINE
8
BLACK
6
CONTINUOUS
10
0.18873
20
2.44341
11
0.185457
21
2.44371
0
LINE
8
BLACK
6
CONTINUOUS
10
0.185457
20
2.44371
11
0.180555
21
2.44544
0
LINE
8
BLACK
6
CONTINUOUS
10
0.180555
20
2.44544
11
0.176377
21
2.44852
0
LINE
8
BLACK
6
CONTINUOUS
10
0.176377
20
2.44852
11
0.173291
21
2.4527
0
LINE
8
BLACK
6
CONTINUOUS
10
0.173291
20
2.4527
11
0.171569
21
2.4576
0
LINE
8
BLACK
6
CONTINUOUS
10
0.171569
20
2.4576
11
0.17126
21
2.46088
0
LINE
8
BLACK
6
CONTINUOUS
10
0.17126
20
2.46088
11
0.17126
21
2.48007
0
LINE
8
BLACK
6
CONTINUOUS
10
0.17126
20
2.48007
11
0.171569
21
2.48334
0
LINE
8
BLACK
6
CONTINUOUS
10
0.171569
20
2.48334
11
0.173291
21
2.48824
0
LINE
8
BLACK
6
CONTINUOUS
10
0.173291
20
2.48824
11
0.176377
21
2.49242
0
LINE
8
BLACK
6
CONTINUOUS
10
0.176377
20
2.49242
11
0.180555
21
2.49551
0
LINE
8
BLACK
6
CONTINUOUS
10
0.180555
20
2.49551
11
0.185457
21
2.49723
0
LINE
8
BLACK
6
CONTINUOUS
10
0.185457
20
2.49723
11
0.18873
21
2.49754
0
LINE
8
BLACK
6
CONTINUOUS
10
0.18873
20
2.49754
11
0.224656
21
2.49754
0
LINE
8
BLACK
6
CONTINUOUS
10
0.224656
20
2.49754
11
0.227929
21
2.49723
  0
ENDSEC
  0
EOF
