  0
SECTION
  2
HEADER
  9
$ANGBASE
  50
0.0
  9
$ANGDIR
  70
1
  9
$MEASUREMENT
  70
0
  0
ENDSEC
  0
SECTION
  2
TABLES
  0
TABLE
  2
LTYPE
  70
4
  0
LTYPE
  5
40F
  2
CONTINUOUS
  70
0
  3
Solid line
  72
65
  73
0
  40
0.0
  0
LTYPE
  5
410
  2
DASHDOT
 70
0
  3
Dash Dot ____ _ ____ _
 72
65
 73
4
 40
2.0
 49
1.25
 49
-0.25
 49
0.25
 49
-0.25
  0
LTYPE
  5
411
  2
DASHED
 70
0
  3
Dashed __ __ __ __ __
 72
65
 73
2
 40
0.75
 49
0.5
 49
-0.25
  0
LTYPE
  5
43B
  2
DOTTED
 70
0
  3
Dotted .  .  .  .
 72
65
 73
2
 40
0.2
 49
0.0
 49
-0.2
  0
ENDTAB
  0
TABLE
  2
STYLE
  70
4
  0
STYLE
  2
KICAD
  70
0
  40
0
  41
1
  42
1
  50
0
  71
0
  3
isocp.shx
  0
STYLE
  2
KICADB
  70
0
  40
0
  41
1
  42
1
  50
0
  71
0
  3
isocp.shx
  0
STYLE
  2
KICADI
  70
0
  40
0
  41
1
  42
1
  50
15
  71
0
  3
isocp.shx
  0
STYLE
  2
KICADBI
  70
0
  40
0
  41
1
  42
1
  50
15
  71
0
  3
isocp.shx
  0
ENDTAB
  0
TABLE
  2
LAYER
  70
1
  0
LAYER
  2
BLACK
  70
0
  62
7
  6
CONTINUOUS
  0
ENDTAB
  0
ENDSEC
  0
SECTION
  2
ENTITIES
0
LINE
8
BLACK
6
CONTINUOUS
10
-0.196759
20
-0.196759
11
-0.197047
21
-0.196063
0
LINE
8
BLACK
6
CONTINUOUS
10
-0.197047
20
-0.196063
11
-0.197047
21
2.59606
0
LINE
8
BLACK
6
CONTINUOUS
10
-0.197047
20
2.59606
11
-0.196759
21
2.59676
0
LINE
8
BLACK
6
CONTINUOUS
10
-0.196759
20
2.59676
11
-0.196063
21
2.59705
0
LINE
8
BLACK
6
CONTINUOUS
10
-0.196063
20
2.59705
11
2.19606
21
2.59705
0
LINE
8
BLACK
6
CONTINUOUS
10
2.19606
20
2.59705
11
2.19676
21
2.59676
0
LINE
8
BLACK
6
CONTINUOUS
10
2.19676
20
2.59676
11
2.19705
21
2.59606
0
LINE
8
BLACK
6
CONTINUOUS
10
2.19705
20
2.59606
11
2.19705
21
-0.196063
0
LINE
8
BLACK
6
CONTINUOUS
10
2.19705
20
-0.196063
11
2.19676
21
-0.196759
0
LINE
8
BLACK
6
CONTINUOUS
10
2.19676
20
-0.196759
11
2.19606
21
-0.197047
0
LINE
8
BLACK
6
CONTINUOUS
10
2.19606
20
-0.197047
11
-0.196063
21
-0.197047
0
LINE
8
BLACK
6
CONTINUOUS
10
-0.196063
20
-0.197047
11
-0.196759
21
-0.196759
0
LINE
8
BLACK
6
CONTINUOUS
10
-0.195079
20
2.59508
11
-0.195079
21
-0.195079
0
LINE
8
BLACK
6
CONTINUOUS
10
-0.195079
20
-0.195079
11
2.19508
21
-0.195079
0
LINE
8
BLACK
6
CONTINUOUS
10
2.19508
20
-0.195079
11
2.19508
21
2.59508
0
LINE
8
BLACK
6
CONTINUOUS
10
2.19508
20
2.59508
11
-0.195079
21
2.59508
0
LINE
8
BLACK
6
CONTINUOUS
10
0.928964
20
-0.0366865
11
0.924595
21
-0.0351578
0
LINE
8
BLACK
6
CONTINUOUS
10
0.924595
20
-0.0351578
11
0.920676
21
-0.0326954
0
LINE
8
BLACK
6
CONTINUOUS
10
0.920676
20
-0.0326954
11
0.917403
21
-0.0294225
0
LINE
8
BLACK
6
CONTINUOUS
10
0.917403
20
-0.0294225
11
0.914941
21
-0.0255035
0
LINE
8
BLACK
6
CONTINUOUS
10
0.914941
20
-0.0255035
11
0.913412
21
-0.0211348
0
LINE
8
BLACK
6
CONTINUOUS
10
0.913412
20
-0.0211348
11
0.912894
21
-0.0165354
0
LINE
8
BLACK
6
CONTINUOUS
10
0.912894
20
-0.0165354
11
0.912894
21
0.0307087
0
LINE
8
BLACK
6
CONTINUOUS
10
0.912894
20
0.0307087
11
0.913412
21
0.035308
0
LINE
8
BLACK
6
CONTINUOUS
10
0.913412
20
0.035308
11
0.914941
21
0.0396767
0
LINE
8
BLACK
6
CONTINUOUS
10
0.914941
20
0.0396767
11
0.917403
21
0.0435957
0
LINE
8
BLACK
6
CONTINUOUS
10
0.917403
20
0.0435957
11
0.920676
21
0.0468686
0
LINE
8
BLACK
6
CONTINUOUS
10
0.920676
20
0.0468686
11
0.924595
21
0.0493311
0
LINE
8
BLACK
6
CONTINUOUS
10
0.924595
20
0.0493311
11
0.928964
21
0.0508597
0
LINE
8
BLACK
6
CONTINUOUS
10
0.928964
20
0.0508597
11
0.933563
21
0.051378
0
LINE
8
BLACK
6
CONTINUOUS
10
0.933563
20
0.051378
11
0.988681
21
0.051378
0
LINE
8
BLACK
6
CONTINUOUS
10
0.988681
20
0.051378
11
0.99328
21
0.0508597
0
LINE
8
BLACK
6
CONTINUOUS
10
0.99328
20
0.0508597
11
0.997649
21
0.0493311
0
LINE
8
BLACK
6
CONTINUOUS
10
0.997649
20
0.0493311
11
1.00157
21
0.0468686
0
LINE
8
BLACK
6
CONTINUOUS
10
1.00157
20
0.0468686
11
1.00484
21
0.0435957
0
LINE
8
BLACK
6
CONTINUOUS
10
1.00484
20
0.0435957
11
1.0073
21
0.0396767
0
LINE
8
BLACK
6
CONTINUOUS
10
1.0073
20
0.0396767
11
1.00883
21
0.035308
0
LINE
8
BLACK
6
CONTINUOUS
10
1.00883
20
0.035308
11
1.00935
21
0.0307087
0
LINE
8
BLACK
6
CONTINUOUS
10
1.00935
20
0.0307087
11
1.00935
21
-0.0165354
0
LINE
8
BLACK
6
CONTINUOUS
10
1.00935
20
-0.0165354
11
1.00883
21
-0.0211348
0
LINE
8
BLACK
6
CONTINUOUS
10
1.00883
20
-0.0211348
11
1.0073
21
-0.0255035
0
LINE
8
BLACK
6
CONTINUOUS
10
1.0073
20
-0.0255035
11
1.00484
21
-0.0294225
0
LINE
8
BLACK
6
CONTINUOUS
10
1.00484
20
-0.0294225
11
1.00157
21
-0.0326954
0
LINE
8
BLACK
6
CONTINUOUS
10
1.00157
20
-0.0326954
11
0.997649
21
-0.0351578
0
LINE
8
BLACK
6
CONTINUOUS
10
0.997649
20
-0.0351578
11
0.99328
21
-0.0366865
0
LINE
8
BLACK
6
CONTINUOUS
10
0.99328
20
-0.0366865
11
0.988681
21
-0.0372047
0
LINE
8
BLACK
6
CONTINUOUS
10
0.988681
20
-0.0372047
11
0.933563
21
-0.0372047
0
LINE
8
BLACK
6
CONTINUOUS
10
0.933563
20
-0.0372047
11
0.928964
21
-0.0366865
0
LINE
8
BLACK
6
CONTINUOUS
10
0.933267
20
0.0495319
11
0.928681
21
0.0489281
0
LINE
8
BLACK
6
CONTINUOUS
10
0.928681
20
0.0489281
11
0.924132
21
0.0470438
0
LINE
8
BLACK
6
CONTINUOUS
10
0.924132
20
0.0470438
11
0.920225
21
0.0440462
0
LINE
8
BLACK
6
CONTINUOUS
10
0.920225
20
0.0440462
11
0.917228
21
0.0401397
0
LINE
8
BLACK
6
CONTINUOUS
10
0.917228
20
0.0401397
11
0.915344
21
0.0355906
0
LINE
8
BLACK
6
CONTINUOUS
10
0.915344
20
0.0355906
11
0.91474
21
0.0310043
0
LINE
8
BLACK
6
CONTINUOUS
10
0.91474
20
0.0310043
11
0.914862
21
0.0307087
0
LINE
8
BLACK
6
CONTINUOUS
10
0.914862
20
0.0307087
11
0.914862
21
-0.0165354
0
LINE
8
BLACK
6
CONTINUOUS
10
0.914862
20
-0.0165354
11
0.91474
21
-0.0168311
0
LINE
8
BLACK
6
CONTINUOUS
10
0.91474
20
-0.0168311
11
0.915344
21
-0.0214173
0
LINE
8
BLACK
6
CONTINUOUS
10
0.915344
20
-0.0214173
11
0.917228
21
-0.0259665
0
LINE
8
BLACK
6
CONTINUOUS
10
0.917228
20
-0.0259665
11
0.920225
21
-0.029873
0
LINE
8
BLACK
6
CONTINUOUS
10
0.920225
20
-0.029873
11
0.924132
21
-0.0328706
0
LINE
8
BLACK
6
CONTINUOUS
10
0.924132
20
-0.0328706
11
0.928681
21
-0.0347549
0
LINE
8
BLACK
6
CONTINUOUS
10
0.928681
20
-0.0347549
11
0.933267
21
-0.0353587
0
LINE
8
BLACK
6
CONTINUOUS
10
0.933267
20
-0.0353587
11
0.933563
21
-0.0352362
0
LINE
8
BLACK
6
CONTINUOUS
10
0.933563
20
-0.0352362
11
0.988681
21
-0.0352362
0
LINE
8
BLACK
6
CONTINUOUS
10
0.988681
20
-0.0352362
11
0.988977
21
-0.0353587
0
LINE
8
BLACK
6
CONTINUOUS
10
0.988977
20
-0.0353587
11
0.993563
21
-0.0347549
0
LINE
8
BLACK
6
CONTINUOUS
10
0.993563
20
-0.0347549
11
0.998112
21
-0.0328706
0
LINE
8
BLACK
6
CONTINUOUS
10
0.998112
20
-0.0328706
11
1.00202
21
-0.029873
0
LINE
8
BLACK
6
CONTINUOUS
10
1.00202
20
-0.029873
11
1.00502
21
-0.0259665
0
LINE
8
BLACK
6
CONTINUOUS
10
1.00502
20
-0.0259665
11
1.0069
21
-0.0214173
0
LINE
8
BLACK
6
CONTINUOUS
10
1.0069
20
-0.0214173
11
1.0075
21
-0.0168311
0
LINE
8
BLACK
6
CONTINUOUS
10
1.0075
20
-0.0168311
11
1.00738
21
-0.0165354
0
LINE
8
BLACK
6
CONTINUOUS
10
1.00738
20
-0.0165354
11
1.00738
21
0.0307087
0
LINE
8
BLACK
6
CONTINUOUS
10
1.00738
20
0.0307087
11
1.0075
21
0.0310043
0
LINE
8
BLACK
6
CONTINUOUS
10
1.0075
20
0.0310043
11
1.0069
21
0.0355906
0
LINE
8
BLACK
6
CONTINUOUS
10
1.0069
20
0.0355906
11
1.00502
21
0.0401397
0
LINE
8
BLACK
6
CONTINUOUS
10
1.00502
20
0.0401397
11
1.00202
21
0.0440462
0
LINE
8
BLACK
6
CONTINUOUS
10
1.00202
20
0.0440462
11
0.998112
21
0.0470438
0
LINE
8
BLACK
6
CONTINUOUS
10
0.998112
20
0.0470438
11
0.993563
21
0.0489281
0
LINE
8
BLACK
6
CONTINUOUS
10
0.993563
20
0.0489281
11
0.988977
21
0.0495319
0
LINE
8
BLACK
6
CONTINUOUS
10
0.988977
20
0.0495319
11
0.988681
21
0.0494094
0
LINE
8
BLACK
6
CONTINUOUS
10
0.988681
20
0.0494094
11
0.933563
21
0.0494094
0
LINE
8
BLACK
6
CONTINUOUS
10
0.933563
20
0.0494094
11
0.933267
21
0.0495319
0
LINE
8
BLACK
6
CONTINUOUS
10
1.10268
20
-0.0329463
11
1.09832
21
-0.0314177
0
LINE
8
BLACK
6
CONTINUOUS
10
1.09832
20
-0.0314177
11
1.0944
21
-0.0289552
0
LINE
8
BLACK
6
CONTINUOUS
10
1.0944
20
-0.0289552
11
1.09112
21
-0.0256824
0
LINE
8
BLACK
6
CONTINUOUS
10
1.09112
20
-0.0256824
11
1.08866
21
-0.0217633
0
LINE
8
BLACK
6
CONTINUOUS
10
1.08866
20
-0.0217633
11
1.08713
21
-0.0173946
0
LINE
8
BLACK
6
CONTINUOUS
10
1.08713
20
-0.0173946
11
1.08661
21
-0.0127953
0
LINE
8
BLACK
6
CONTINUOUS
10
1.08661
20
-0.0127953
11
1.08661
21
0.0344488
0
LINE
8
BLACK
6
CONTINUOUS
10
1.08661
20
0.0344488
11
1.08713
21
0.0390481
0
LINE
8
BLACK
6
CONTINUOUS
10
1.08713
20
0.0390481
11
1.08866
21
0.0434169
0
LINE
8
BLACK
6
CONTINUOUS
10
1.08866
20
0.0434169
11
1.09112
21
0.0473359
0
LINE
8
BLACK
6
CONTINUOUS
10
1.09112
20
0.0473359
11
1.0944
21
0.0506087
0
LINE
8
BLACK
6
CONTINUOUS
10
1.0944
20
0.0506087
11
1.09832
21
0.0530712
0
LINE
8
BLACK
6
CONTINUOUS
10
1.09832
20
0.0530712
11
1.10268
21
0.0545999
0
LINE
8
BLACK
6
CONTINUOUS
10
1.10268
20
0.0545999
11
1.10728
21
0.0551181
0
LINE
8
BLACK
6
CONTINUOUS
10
1.10728
20
0.0551181
11
1.1624
21
0.0551181
0
LINE
8
BLACK
6
CONTINUOUS
10
1.1624
20
0.0551181
11
1.167
21
0.0545999
0
LINE
8
BLACK
6
CONTINUOUS
10
1.167
20
0.0545999
11
1.17137
21
0.0530712
0
LINE
8
BLACK
6
CONTINUOUS
10
1.17137
20
0.0530712
11
1.17529
21
0.0506087
0
LINE
8
BLACK
6
CONTINUOUS
10
1.17529
20
0.0506087
11
1.17856
21
0.0473359
0
LINE
8
BLACK
6
CONTINUOUS
10
1.17856
20
0.0473359
11
1.18102
21
0.0434169
0
LINE
8
BLACK
6
CONTINUOUS
10
1.18102
20
0.0434169
11
1.18255
21
0.0390481
0
LINE
8
BLACK
6
CONTINUOUS
10
1.18255
20
0.0390481
11
1.18307
21
0.0344488
0
LINE
8
BLACK
6
CONTINUOUS
10
1.18307
20
0.0344488
11
1.18307
21
-0.0127953
0
LINE
8
BLACK
6
CONTINUOUS
10
1.18307
20
-0.0127953
11
1.18255
21
-0.0173946
0
LINE
8
BLACK
6
CONTINUOUS
10
1.18255
20
-0.0173946
11
1.18102
21
-0.0217633
0
LINE
8
BLACK
6
CONTINUOUS
10
1.18102
20
-0.0217633
11
1.17856
21
-0.0256824
0
LINE
8
BLACK
6
CONTINUOUS
10
1.17856
20
-0.0256824
11
1.17529
21
-0.0289552
0
LINE
8
BLACK
6
CONTINUOUS
10
1.17529
20
-0.0289552
11
1.17137
21
-0.0314177
0
LINE
8
BLACK
6
CONTINUOUS
10
1.17137
20
-0.0314177
11
1.167
21
-0.0329463
0
LINE
8
BLACK
6
CONTINUOUS
10
1.167
20
-0.0329463
11
1.1624
21
-0.0334646
0
LINE
8
BLACK
6
CONTINUOUS
10
1.1624
20
-0.0334646
11
1.10728
21
-0.0334646
0
LINE
8
BLACK
6
CONTINUOUS
10
1.10728
20
-0.0334646
11
1.10268
21
-0.0329463
0
LINE
8
BLACK
6
CONTINUOUS
10
1.10699
20
0.053272
11
1.1024
21
0.0526683
0
LINE
8
BLACK
6
CONTINUOUS
10
1.1024
20
0.0526683
11
1.09785
21
0.0507839
0
LINE
8
BLACK
6
CONTINUOUS
10
1.09785
20
0.0507839
11
1.09395
21
0.0477864
0
LINE
8
BLACK
6
CONTINUOUS
10
1.09395
20
0.0477864
11
1.09095
21
0.0438799
0
LINE
8
BLACK
6
CONTINUOUS
10
1.09095
20
0.0438799
11
1.08906
21
0.0393307
0
LINE
8
BLACK
6
CONTINUOUS
10
1.08906
20
0.0393307
11
1.08846
21
0.0347445
0
LINE
8
BLACK
6
CONTINUOUS
10
1.08846
20
0.0347445
11
1.08858
21
0.0344488
0
LINE
8
BLACK
6
CONTINUOUS
10
1.08858
20
0.0344488
11
1.08858
21
-0.0127953
0
LINE
8
BLACK
6
CONTINUOUS
10
1.08858
20
-0.0127953
11
1.08846
21
-0.0130909
0
LINE
8
BLACK
6
CONTINUOUS
10
1.08846
20
-0.0130909
11
1.08906
21
-0.0176772
0
LINE
8
BLACK
6
CONTINUOUS
10
1.08906
20
-0.0176772
11
1.09095
21
-0.0222264
0
LINE
8
BLACK
6
CONTINUOUS
10
1.09095
20
-0.0222264
11
1.09395
21
-0.0261328
0
LINE
8
BLACK
6
CONTINUOUS
10
1.09395
20
-0.0261328
11
1.09785
21
-0.0291304
0
LINE
8
BLACK
6
CONTINUOUS
10
1.09785
20
-0.0291304
11
1.1024
21
-0.0310147
0
LINE
8
BLACK
6
CONTINUOUS
10
1.1024
20
-0.0310147
11
1.10699
21
-0.0316185
0
LINE
8
BLACK
6
CONTINUOUS
10
1.10699
20
-0.0316185
11
1.10728
21
-0.0314961
0
LINE
8
BLACK
6
CONTINUOUS
10
1.10728
20
-0.0314961
11
1.1624
21
-0.0314961
0
LINE
8
BLACK
6
CONTINUOUS
10
1.1624
20
-0.0314961
11
1.1627
21
-0.0316185
0
LINE
8
BLACK
6
CONTINUOUS
10
1.1627
20
-0.0316185
11
1.16728
21
-0.0310147
0
LINE
8
BLACK
6
CONTINUOUS
10
1.16728
20
-0.0310147
11
1.17183
21
-0.0291304
0
LINE
8
BLACK
6
CONTINUOUS
10
1.17183
20
-0.0291304
11
1.17574
21
-0.0261328
0
LINE
8
BLACK
6
CONTINUOUS
10
1.17574
20
-0.0261328
11
1.17874
21
-0.0222264
0
LINE
8
BLACK
6
CONTINUOUS
10
1.17874
20
-0.0222264
11
1.18062
21
-0.0176772
0
LINE
8
BLACK
6
CONTINUOUS
10
1.18062
20
-0.0176772
11
1.18122
21
-0.0130909
0
LINE
8
BLACK
6
CONTINUOUS
10
1.18122
20
-0.0130909
11
1.1811
21
-0.0127953
0
LINE
8
BLACK
6
CONTINUOUS
10
1.1811
20
-0.0127953
11
1.1811
21
0.0344488
0
LINE
8
BLACK
6
CONTINUOUS
10
1.1811
20
0.0344488
11
1.18122
21
0.0347445
0
LINE
8
BLACK
6
CONTINUOUS
10
1.18122
20
0.0347445
11
1.18062
21
0.0393307
0
LINE
8
BLACK
6
CONTINUOUS
10
1.18062
20
0.0393307
11
1.17874
21
0.0438799
0
LINE
8
BLACK
6
CONTINUOUS
10
1.17874
20
0.0438799
11
1.17574
21
0.0477864
0
LINE
8
BLACK
6
CONTINUOUS
10
1.17574
20
0.0477864
11
1.17183
21
0.0507839
0
LINE
8
BLACK
6
CONTINUOUS
10
1.17183
20
0.0507839
11
1.16728
21
0.0526683
0
LINE
8
BLACK
6
CONTINUOUS
10
1.16728
20
0.0526683
11
1.1627
21
0.053272
0
LINE
8
BLACK
6
CONTINUOUS
10
1.1627
20
0.053272
11
1.1624
21
0.0531496
0
LINE
8
BLACK
6
CONTINUOUS
10
1.1624
20
0.0531496
11
1.10728
21
0.0531496
0
LINE
8
BLACK
6
CONTINUOUS
10
1.10728
20
0.0531496
11
1.10699
21
0.053272
  0
ENDSEC
  0
EOF
