  0
SECTION
  2
HEADER
  9
$ANGBASE
  50
0.0
  9
$ANGDIR
  70
1
  9
$MEASUREMENT
  70
0
  0
ENDSEC
  0
SECTION
  2
TABLES
  0
TABLE
  2
LTYPE
  70
4
  0
LTYPE
  5
40F
  2
CONTINUOUS
  70
0
  3
Solid line
  72
65
  73
0
  40
0.0
  0
LTYPE
  5
410
  2
DASHDOT
 70
0
  3
Dash Dot ____ _ ____ _
 72
65
 73
4
 40
2.0
 49
1.25
 49
-0.25
 49
0.25
 49
-0.25
  0
LTYPE
  5
411
  2
DASHED
 70
0
  3
Dashed __ __ __ __ __
 72
65
 73
2
 40
0.75
 49
0.5
 49
-0.25
  0
LTYPE
  5
43B
  2
DOTTED
 70
0
  3
Dotted .  .  .  .
 72
65
 73
2
 40
0.2
 49
0.0
 49
-0.2
  0
ENDTAB
  0
TABLE
  2
STYLE
  70
4
  0
STYLE
  2
KICAD
  70
0
  40
0
  41
1
  42
1
  50
0
  71
0
  3
isocp.shx
  0
STYLE
  2
KICADB
  70
0
  40
0
  41
1
  42
1
  50
0
  71
0
  3
isocp.shx
  0
STYLE
  2
KICADI
  70
0
  40
0
  41
1
  42
1
  50
15
  71
0
  3
isocp.shx
  0
STYLE
  2
KICADBI
  70
0
  40
0
  41
1
  42
1
  50
15
  71
0
  3
isocp.shx
  0
ENDTAB
  0
TABLE
  2
LAYER
  70
1
  0
LAYER
  2
BLACK
  70
0
  62
7
  6
CONTINUOUS
  0
ENDTAB
  0
ENDSEC
  0
SECTION
  2
ENTITIES
0
LINE
8
BLACK
6
CONTINUOUS
10
0.737493
20
0.889855
11
0.737205
21
0.890551
0
LINE
8
BLACK
6
CONTINUOUS
10
0.737205
20
0.890551
11
0.737205
21
1.02283
0
LINE
8
BLACK
6
CONTINUOUS
10
0.737205
20
1.02283
11
0.737493
21
1.02353
0
LINE
8
BLACK
6
CONTINUOUS
10
0.737493
20
1.02353
11
0.738189
21
1.02382
0
LINE
8
BLACK
6
CONTINUOUS
10
0.738189
20
1.02382
11
0.812992
21
1.02382
0
LINE
8
BLACK
6
CONTINUOUS
10
0.812992
20
1.02382
11
0.813688
21
1.02353
0
LINE
8
BLACK
6
CONTINUOUS
10
0.813688
20
1.02353
11
0.813976
21
1.02283
0
LINE
8
BLACK
6
CONTINUOUS
10
0.813976
20
1.02283
11
0.813976
21
0.890551
0
LINE
8
BLACK
6
CONTINUOUS
10
0.813976
20
0.890551
11
0.813688
21
0.889855
0
LINE
8
BLACK
6
CONTINUOUS
10
0.813688
20
0.889855
11
0.812992
21
0.889567
0
LINE
8
BLACK
6
CONTINUOUS
10
0.812992
20
0.889567
11
0.738189
21
0.889567
0
LINE
8
BLACK
6
CONTINUOUS
10
0.738189
20
0.889567
11
0.737493
21
0.889855
0
LINE
8
BLACK
6
CONTINUOUS
10
0.739173
20
1.02185
11
0.739173
21
0.891535
0
LINE
8
BLACK
6
CONTINUOUS
10
0.739173
20
0.891535
11
0.812008
21
0.891535
0
LINE
8
BLACK
6
CONTINUOUS
10
0.812008
20
0.891535
11
0.812008
21
1.02185
0
LINE
8
BLACK
6
CONTINUOUS
10
0.812008
20
1.02185
11
0.739173
21
1.02185
0
LINE
8
BLACK
6
CONTINUOUS
10
1.32579
20
1.17096
11
1.32579
21
1.03868
0
LINE
8
BLACK
6
CONTINUOUS
10
1.32579
20
1.03868
11
1.3255
21
1.03799
0
LINE
8
BLACK
6
CONTINUOUS
10
1.3255
20
1.03799
11
1.3248
21
1.0377
0
LINE
8
BLACK
6
CONTINUOUS
10
1.3248
20
1.0377
11
1.27854
21
1.0377
0
LINE
8
BLACK
6
CONTINUOUS
10
1.27854
20
1.0377
11
1.27854
21
0.906299
0
LINE
8
BLACK
6
CONTINUOUS
10
1.27854
20
0.906299
11
1.27826
21
0.905603
0
LINE
8
BLACK
6
CONTINUOUS
10
1.27826
20
0.905603
11
1.27756
21
0.905315
0
LINE
8
BLACK
6
CONTINUOUS
10
1.27756
20
0.905315
11
1.20276
21
0.905315
0
LINE
8
BLACK
6
CONTINUOUS
10
1.20276
20
0.905315
11
1.20206
21
0.905603
0
LINE
8
BLACK
6
CONTINUOUS
10
1.20206
20
0.905603
11
1.20177
21
0.906299
0
LINE
8
BLACK
6
CONTINUOUS
10
1.20177
20
0.906299
11
1.20177
21
1.0377
0
LINE
8
BLACK
6
CONTINUOUS
10
1.20177
20
1.0377
11
1.15945
21
1.0377
0
LINE
8
BLACK
6
CONTINUOUS
10
1.15945
20
1.0377
11
1.15875
21
1.03799
0
LINE
8
BLACK
6
CONTINUOUS
10
1.15875
20
1.03799
11
1.15846
21
1.03868
0
LINE
8
BLACK
6
CONTINUOUS
10
1.15846
20
1.03868
11
1.15846
21
1.17096
0
LINE
8
BLACK
6
CONTINUOUS
10
1.15846
20
1.17096
11
1.15875
21
1.17166
0
LINE
8
BLACK
6
CONTINUOUS
10
1.15875
20
1.17166
11
1.15945
21
1.17195
0
LINE
8
BLACK
6
CONTINUOUS
10
1.15945
20
1.17195
11
1.23425
21
1.17195
0
LINE
8
BLACK
6
CONTINUOUS
10
1.23425
20
1.17195
11
1.23495
21
1.17166
0
LINE
8
BLACK
6
CONTINUOUS
10
1.23495
20
1.17166
11
1.23524
21
1.17096
0
LINE
8
BLACK
6
CONTINUOUS
10
1.23524
20
1.17096
11
1.23524
21
1.03957
0
LINE
8
BLACK
6
CONTINUOUS
10
1.23524
20
1.03957
11
1.24902
21
1.03957
0
LINE
8
BLACK
6
CONTINUOUS
10
1.24902
20
1.03957
11
1.24902
21
1.17096
0
LINE
8
BLACK
6
CONTINUOUS
10
1.24902
20
1.17096
11
1.2493
21
1.17166
0
LINE
8
BLACK
6
CONTINUOUS
10
1.2493
20
1.17166
11
1.25
21
1.17195
0
LINE
8
BLACK
6
CONTINUOUS
10
1.25
20
1.17195
11
1.3248
21
1.17195
0
LINE
8
BLACK
6
CONTINUOUS
10
1.3248
20
1.17195
11
1.3255
21
1.17166
0
LINE
8
BLACK
6
CONTINUOUS
10
1.3255
20
1.17166
11
1.32579
21
1.17096
0
LINE
8
BLACK
6
CONTINUOUS
10
1.20374
20
1.0376
11
1.20374
21
0.907283
0
LINE
8
BLACK
6
CONTINUOUS
10
1.20374
20
0.907283
11
1.27657
21
0.907283
0
LINE
8
BLACK
6
CONTINUOUS
10
1.27657
20
0.907283
11
1.27657
21
1.0376
0
LINE
8
BLACK
6
CONTINUOUS
10
1.27657
20
1.0376
11
1.20374
21
1.0376
0
LINE
8
BLACK
6
CONTINUOUS
10
1.25098
20
1.16998
11
1.25098
21
1.03967
0
LINE
8
BLACK
6
CONTINUOUS
10
1.25098
20
1.03967
11
1.32382
21
1.03967
0
LINE
8
BLACK
6
CONTINUOUS
10
1.32382
20
1.03967
11
1.32382
21
1.16998
0
LINE
8
BLACK
6
CONTINUOUS
10
1.32382
20
1.16998
11
1.25098
21
1.16998
0
LINE
8
BLACK
6
CONTINUOUS
10
1.16043
20
1.16998
11
1.16043
21
1.03967
0
LINE
8
BLACK
6
CONTINUOUS
10
1.16043
20
1.03967
11
1.23327
21
1.03967
0
LINE
8
BLACK
6
CONTINUOUS
10
1.23327
20
1.03967
11
1.23327
21
1.16998
0
LINE
8
BLACK
6
CONTINUOUS
10
1.23327
20
1.16998
11
1.16043
21
1.16998
0
LINE
8
BLACK
6
CONTINUOUS
10
0.878438
20
1.01899
11
0.87815
21
1.01969
0
LINE
8
BLACK
6
CONTINUOUS
10
0.87815
20
1.01969
11
0.87815
21
1.15354
0
LINE
8
BLACK
6
CONTINUOUS
10
0.87815
20
1.15354
11
0.878438
21
1.15424
0
LINE
8
BLACK
6
CONTINUOUS
10
0.878438
20
1.15424
11
0.879134
21
1.15453
0
LINE
8
BLACK
6
CONTINUOUS
10
0.879134
20
1.15453
11
1.05
21
1.15453
0
LINE
8
BLACK
6
CONTINUOUS
10
1.05
20
1.15453
11
1.0507
21
1.15424
0
LINE
8
BLACK
6
CONTINUOUS
10
1.0507
20
1.15424
11
1.05098
21
1.15354
0
LINE
8
BLACK
6
CONTINUOUS
10
1.05098
20
1.15354
11
1.05098
21
1.01969
0
LINE
8
BLACK
6
CONTINUOUS
10
1.05098
20
1.01969
11
1.0507
21
1.01899
0
LINE
8
BLACK
6
CONTINUOUS
10
1.0507
20
1.01899
11
1.05
21
1.0187
0
LINE
8
BLACK
6
CONTINUOUS
10
1.05
20
1.0187
11
0.879134
21
1.0187
0
LINE
8
BLACK
6
CONTINUOUS
10
0.879134
20
1.0187
11
0.878438
21
1.01899
0
LINE
8
BLACK
6
CONTINUOUS
10
0.880118
20
1.15256
11
0.880118
21
1.02067
0
LINE
8
BLACK
6
CONTINUOUS
10
0.880118
20
1.02067
11
1.04902
21
1.02067
0
LINE
8
BLACK
6
CONTINUOUS
10
1.04902
20
1.02067
11
1.04902
21
1.15256
0
LINE
8
BLACK
6
CONTINUOUS
10
1.04902
20
1.15256
11
0.880118
21
1.15256
0
LINE
8
BLACK
6
CONTINUOUS
10
0.737493
20
1.02765
11
0.737205
21
1.02835
0
LINE
8
BLACK
6
CONTINUOUS
10
0.737205
20
1.02835
11
0.737205
21
1.16063
0
LINE
8
BLACK
6
CONTINUOUS
10
0.737205
20
1.16063
11
0.737493
21
1.16133
0
LINE
8
BLACK
6
CONTINUOUS
10
0.737493
20
1.16133
11
0.738189
21
1.16161
0
LINE
8
BLACK
6
CONTINUOUS
10
0.738189
20
1.16161
11
0.812992
21
1.16161
0
LINE
8
BLACK
6
CONTINUOUS
10
0.812992
20
1.16161
11
0.813688
21
1.16133
0
LINE
8
BLACK
6
CONTINUOUS
10
0.813688
20
1.16133
11
0.813976
21
1.16063
0
LINE
8
BLACK
6
CONTINUOUS
10
0.813976
20
1.16063
11
0.813976
21
1.02835
0
LINE
8
BLACK
6
CONTINUOUS
10
0.813976
20
1.02835
11
0.813688
21
1.02765
0
LINE
8
BLACK
6
CONTINUOUS
10
0.813688
20
1.02765
11
0.812992
21
1.02736
0
LINE
8
BLACK
6
CONTINUOUS
10
0.812992
20
1.02736
11
0.738189
21
1.02736
0
LINE
8
BLACK
6
CONTINUOUS
10
0.738189
20
1.02736
11
0.737493
21
1.02765
0
LINE
8
BLACK
6
CONTINUOUS
10
0.739173
20
1.15965
11
0.739173
21
1.02933
0
LINE
8
BLACK
6
CONTINUOUS
10
0.739173
20
1.02933
11
0.812008
21
1.02933
0
LINE
8
BLACK
6
CONTINUOUS
10
0.812008
20
1.02933
11
0.812008
21
1.15965
0
LINE
8
BLACK
6
CONTINUOUS
10
0.812008
20
1.15965
11
0.739173
21
1.15965
0
LINE
8
BLACK
6
CONTINUOUS
10
0.737493
20
1.17184
11
0.737205
21
1.17254
0
LINE
8
BLACK
6
CONTINUOUS
10
0.737205
20
1.17254
11
0.737205
21
1.30482
0
LINE
8
BLACK
6
CONTINUOUS
10
0.737205
20
1.30482
11
0.737493
21
1.30552
0
LINE
8
BLACK
6
CONTINUOUS
10
0.737493
20
1.30552
11
0.738189
21
1.30581
0
LINE
8
BLACK
6
CONTINUOUS
10
0.738189
20
1.30581
11
0.812992
21
1.30581
0
LINE
8
BLACK
6
CONTINUOUS
10
0.812992
20
1.30581
11
0.813688
21
1.30552
0
LINE
8
BLACK
6
CONTINUOUS
10
0.813688
20
1.30552
11
0.813976
21
1.30482
0
LINE
8
BLACK
6
CONTINUOUS
10
0.813976
20
1.30482
11
0.813976
21
1.17254
0
LINE
8
BLACK
6
CONTINUOUS
10
0.813976
20
1.17254
11
0.813688
21
1.17184
0
LINE
8
BLACK
6
CONTINUOUS
10
0.813688
20
1.17184
11
0.812992
21
1.17156
0
LINE
8
BLACK
6
CONTINUOUS
10
0.812992
20
1.17156
11
0.738189
21
1.17156
0
LINE
8
BLACK
6
CONTINUOUS
10
0.738189
20
1.17156
11
0.737493
21
1.17184
0
LINE
8
BLACK
6
CONTINUOUS
10
0.739173
20
1.30384
11
0.739173
21
1.17352
0
LINE
8
BLACK
6
CONTINUOUS
10
0.739173
20
1.17352
11
0.812008
21
1.17352
0
LINE
8
BLACK
6
CONTINUOUS
10
0.812008
20
1.17352
11
0.812008
21
1.30384
0
LINE
8
BLACK
6
CONTINUOUS
10
0.812008
20
1.30384
11
0.739173
21
1.30384
0
LINE
8
BLACK
6
CONTINUOUS
10
0.841824
20
1.18237
11
0.841535
21
1.18307
0
LINE
8
BLACK
6
CONTINUOUS
10
0.841535
20
1.18307
11
0.841535
21
1.43898
0
LINE
8
BLACK
6
CONTINUOUS
10
0.841535
20
1.43898
11
0.841824
21
1.43967
0
LINE
8
BLACK
6
CONTINUOUS
10
0.841824
20
1.43967
11
0.84252
21
1.43996
0
LINE
8
BLACK
6
CONTINUOUS
10
0.84252
20
1.43996
11
1.11811
21
1.43996
0
LINE
8
BLACK
6
CONTINUOUS
10
1.11811
20
1.43996
11
1.11881
21
1.43967
0
LINE
8
BLACK
6
CONTINUOUS
10
1.11881
20
1.43967
11
1.11909
21
1.43898
0
LINE
8
BLACK
6
CONTINUOUS
10
1.11909
20
1.43898
11
1.11909
21
1.18307
0
LINE
8
BLACK
6
CONTINUOUS
10
1.11909
20
1.18307
11
1.11881
21
1.18237
0
LINE
8
BLACK
6
CONTINUOUS
10
1.11881
20
1.18237
11
1.11811
21
1.18209
0
LINE
8
BLACK
6
CONTINUOUS
10
1.11811
20
1.18209
11
0.84252
21
1.18209
0
LINE
8
BLACK
6
CONTINUOUS
10
0.84252
20
1.18209
11
0.841824
21
1.18237
0
LINE
8
BLACK
6
CONTINUOUS
10
0.843504
20
1.43799
11
0.843504
21
1.18406
0
LINE
8
BLACK
6
CONTINUOUS
10
0.843504
20
1.18406
11
1.11713
21
1.18406
0
LINE
8
BLACK
6
CONTINUOUS
10
1.11713
20
1.18406
11
1.11713
21
1.43799
0
LINE
8
BLACK
6
CONTINUOUS
10
1.11713
20
1.43799
11
0.843504
21
1.43799
0
LINE
8
BLACK
6
CONTINUOUS
10
1.44419
20
1.2058
11
1.4439
21
1.2065
0
LINE
8
BLACK
6
CONTINUOUS
10
1.4439
20
1.2065
11
1.4439
21
1.33878
0
LINE
8
BLACK
6
CONTINUOUS
10
1.4439
20
1.33878
11
1.44419
21
1.33948
0
LINE
8
BLACK
6
CONTINUOUS
10
1.44419
20
1.33948
11
1.44488
21
1.33976
0
LINE
8
BLACK
6
CONTINUOUS
10
1.44488
20
1.33976
11
1.51969
21
1.33976
0
LINE
8
BLACK
6
CONTINUOUS
10
1.51969
20
1.33976
11
1.52038
21
1.33948
0
LINE
8
BLACK
6
CONTINUOUS
10
1.52038
20
1.33948
11
1.52067
21
1.33878
0
LINE
8
BLACK
6
CONTINUOUS
10
1.52067
20
1.33878
11
1.52067
21
1.2065
0
LINE
8
BLACK
6
CONTINUOUS
10
1.52067
20
1.2065
11
1.52038
21
1.2058
0
LINE
8
BLACK
6
CONTINUOUS
10
1.52038
20
1.2058
11
1.51969
21
1.20551
0
LINE
8
BLACK
6
CONTINUOUS
10
1.51969
20
1.20551
11
1.44488
21
1.20551
0
LINE
8
BLACK
6
CONTINUOUS
10
1.44488
20
1.20551
11
1.44419
21
1.2058
0
LINE
8
BLACK
6
CONTINUOUS
10
1.44587
20
1.3378
11
1.44587
21
1.20748
0
LINE
8
BLACK
6
CONTINUOUS
10
1.44587
20
1.20748
11
1.5187
21
1.20748
0
LINE
8
BLACK
6
CONTINUOUS
10
1.5187
20
1.20748
11
1.5187
21
1.3378
0
LINE
8
BLACK
6
CONTINUOUS
10
1.5187
20
1.3378
11
1.44587
21
1.3378
0
LINE
8
BLACK
6
CONTINUOUS
10
1.14891
20
1.24143
11
1.14862
21
1.24213
0
LINE
8
BLACK
6
CONTINUOUS
10
1.14862
20
1.24213
11
1.14862
21
1.37992
0
LINE
8
BLACK
6
CONTINUOUS
10
1.14862
20
1.37992
11
1.14891
21
1.38062
0
LINE
8
BLACK
6
CONTINUOUS
10
1.14891
20
1.38062
11
1.14961
21
1.38091
0
LINE
8
BLACK
6
CONTINUOUS
10
1.14961
20
1.38091
11
1.4252
21
1.38091
0
LINE
8
BLACK
6
CONTINUOUS
10
1.4252
20
1.38091
11
1.42589
21
1.38062
0
LINE
8
BLACK
6
CONTINUOUS
10
1.42589
20
1.38062
11
1.42618
21
1.37992
0
LINE
8
BLACK
6
CONTINUOUS
10
1.42618
20
1.37992
11
1.42618
21
1.24213
0
LINE
8
BLACK
6
CONTINUOUS
10
1.42618
20
1.24213
11
1.42589
21
1.24143
0
LINE
8
BLACK
6
CONTINUOUS
10
1.42589
20
1.24143
11
1.4252
21
1.24114
0
LINE
8
BLACK
6
CONTINUOUS
10
1.4252
20
1.24114
11
1.14961
21
1.24114
0
LINE
8
BLACK
6
CONTINUOUS
10
1.14961
20
1.24114
11
1.14891
21
1.24143
0
LINE
8
BLACK
6
CONTINUOUS
10
1.15059
20
1.37894
11
1.15059
21
1.24311
0
LINE
8
BLACK
6
CONTINUOUS
10
1.15059
20
1.24311
11
1.42421
21
1.24311
0
LINE
8
BLACK
6
CONTINUOUS
10
1.42421
20
1.24311
11
1.42421
21
1.37894
0
LINE
8
BLACK
6
CONTINUOUS
10
1.42421
20
1.37894
11
1.15059
21
1.37894
0
LINE
8
BLACK
6
CONTINUOUS
10
1.63513
20
1.57489
11
1.63484
21
1.57559
0
LINE
8
BLACK
6
CONTINUOUS
10
1.63484
20
1.57559
11
1.63484
21
1.70787
0
LINE
8
BLACK
6
CONTINUOUS
10
1.63484
20
1.70787
11
1.63513
21
1.70857
0
LINE
8
BLACK
6
CONTINUOUS
10
1.63513
20
1.70857
11
1.63583
21
1.70886
0
LINE
8
BLACK
6
CONTINUOUS
10
1.63583
20
1.70886
11
1.71063
21
1.70886
0
LINE
8
BLACK
6
CONTINUOUS
10
1.71063
20
1.70886
11
1.71133
21
1.70857
0
LINE
8
BLACK
6
CONTINUOUS
10
1.71133
20
1.70857
11
1.71161
21
1.70787
0
LINE
8
BLACK
6
CONTINUOUS
10
1.71161
20
1.70787
11
1.71161
21
1.57559
0
LINE
8
BLACK
6
CONTINUOUS
10
1.71161
20
1.57559
11
1.71133
21
1.57489
0
LINE
8
BLACK
6
CONTINUOUS
10
1.71133
20
1.57489
11
1.71063
21
1.57461
0
LINE
8
BLACK
6
CONTINUOUS
10
1.71063
20
1.57461
11
1.63583
21
1.57461
0
LINE
8
BLACK
6
CONTINUOUS
10
1.63583
20
1.57461
11
1.63513
21
1.57489
0
LINE
8
BLACK
6
CONTINUOUS
10
1.63681
20
1.70689
11
1.63681
21
1.57657
0
LINE
8
BLACK
6
CONTINUOUS
10
1.63681
20
1.57657
11
1.70965
21
1.57657
0
LINE
8
BLACK
6
CONTINUOUS
10
1.70965
20
1.57657
11
1.70965
21
1.70689
0
LINE
8
BLACK
6
CONTINUOUS
10
1.70965
20
1.70689
11
1.63681
21
1.70689
0
LINE
8
BLACK
6
CONTINUOUS
10
1.54528
20
1.71033
11
1.54528
21
1.57805
0
LINE
8
BLACK
6
CONTINUOUS
10
1.54528
20
1.57805
11
1.54499
21
1.57736
0
LINE
8
BLACK
6
CONTINUOUS
10
1.54499
20
1.57736
11
1.54429
21
1.57707
0
LINE
8
BLACK
6
CONTINUOUS
10
1.54429
20
1.57707
11
1.46949
21
1.57707
0
LINE
8
BLACK
6
CONTINUOUS
10
1.46949
20
1.57707
11
1.46879
21
1.57736
0
LINE
8
BLACK
6
CONTINUOUS
10
1.46879
20
1.57736
11
1.4685
21
1.57805
0
LINE
8
BLACK
6
CONTINUOUS
10
1.4685
20
1.57805
11
1.4685
21
1.70846
0
LINE
8
BLACK
6
CONTINUOUS
10
1.4685
20
1.70846
11
1.46654
21
1.70846
0
LINE
8
BLACK
6
CONTINUOUS
10
1.46654
20
1.70846
11
1.46584
21
1.70875
0
LINE
8
BLACK
6
CONTINUOUS
10
1.46584
20
1.70875
11
1.46555
21
1.70945
0
LINE
8
BLACK
6
CONTINUOUS
10
1.46555
20
1.70945
11
1.46555
21
1.84173
0
LINE
8
BLACK
6
CONTINUOUS
10
1.46555
20
1.84173
11
1.46584
21
1.84243
0
LINE
8
BLACK
6
CONTINUOUS
10
1.46584
20
1.84243
11
1.46654
21
1.84272
0
LINE
8
BLACK
6
CONTINUOUS
10
1.46654
20
1.84272
11
1.54134
21
1.84272
0
LINE
8
BLACK
6
CONTINUOUS
10
1.54134
20
1.84272
11
1.54203
21
1.84243
0
LINE
8
BLACK
6
CONTINUOUS
10
1.54203
20
1.84243
11
1.54232
21
1.84173
0
LINE
8
BLACK
6
CONTINUOUS
10
1.54232
20
1.84173
11
1.54232
21
1.71132
0
LINE
8
BLACK
6
CONTINUOUS
10
1.54232
20
1.71132
11
1.54429
21
1.71132
0
LINE
8
BLACK
6
CONTINUOUS
10
1.54429
20
1.71132
11
1.54499
21
1.71103
0
LINE
8
BLACK
6
CONTINUOUS
10
1.54499
20
1.71103
11
1.54528
21
1.71033
0
LINE
8
BLACK
6
CONTINUOUS
10
1.47047
20
1.57904
11
1.54331
21
1.57904
0
LINE
8
BLACK
6
CONTINUOUS
10
1.54331
20
1.57904
11
1.54331
21
1.70935
0
LINE
8
BLACK
6
CONTINUOUS
10
1.54331
20
1.70935
11
1.54228
21
1.70935
0
LINE
8
BLACK
6
CONTINUOUS
10
1.54228
20
1.70935
11
1.54203
21
1.70875
0
LINE
8
BLACK
6
CONTINUOUS
10
1.54203
20
1.70875
11
1.54134
21
1.70846
0
LINE
8
BLACK
6
CONTINUOUS
10
1.54134
20
1.70846
11
1.47047
21
1.70846
0
LINE
8
BLACK
6
CONTINUOUS
10
1.47047
20
1.70846
11
1.47047
21
1.57904
0
LINE
8
BLACK
6
CONTINUOUS
10
1.46752
20
1.84075
11
1.46752
21
1.71043
0
LINE
8
BLACK
6
CONTINUOUS
10
1.46752
20
1.71043
11
1.46854
21
1.71043
0
LINE
8
BLACK
6
CONTINUOUS
10
1.46854
20
1.71043
11
1.46879
21
1.71103
0
LINE
8
BLACK
6
CONTINUOUS
10
1.46879
20
1.71103
11
1.46949
21
1.71132
0
LINE
8
BLACK
6
CONTINUOUS
10
1.46949
20
1.71132
11
1.54035
21
1.71132
0
LINE
8
BLACK
6
CONTINUOUS
10
1.54035
20
1.71132
11
1.54035
21
1.84075
0
LINE
8
BLACK
6
CONTINUOUS
10
1.54035
20
1.84075
11
1.46752
21
1.84075
0
LINE
8
BLACK
6
CONTINUOUS
10
1.63513
20
1.71023
11
1.63484
21
1.71093
0
LINE
8
BLACK
6
CONTINUOUS
10
1.63484
20
1.71093
11
1.63484
21
1.84321
0
LINE
8
BLACK
6
CONTINUOUS
10
1.63484
20
1.84321
11
1.63513
21
1.8439
0
LINE
8
BLACK
6
CONTINUOUS
10
1.63513
20
1.8439
11
1.63583
21
1.84419
0
LINE
8
BLACK
6
CONTINUOUS
10
1.63583
20
1.84419
11
1.71063
21
1.84419
0
LINE
8
BLACK
6
CONTINUOUS
10
1.71063
20
1.84419
11
1.71133
21
1.8439
0
LINE
8
BLACK
6
CONTINUOUS
10
1.71133
20
1.8439
11
1.71161
21
1.84321
0
LINE
8
BLACK
6
CONTINUOUS
10
1.71161
20
1.84321
11
1.71161
21
1.71093
0
LINE
8
BLACK
6
CONTINUOUS
10
1.71161
20
1.71093
11
1.71133
21
1.71023
0
LINE
8
BLACK
6
CONTINUOUS
10
1.71133
20
1.71023
11
1.71063
21
1.70994
0
LINE
8
BLACK
6
CONTINUOUS
10
1.71063
20
1.70994
11
1.63583
21
1.70994
0
LINE
8
BLACK
6
CONTINUOUS
10
1.63583
20
1.70994
11
1.63513
21
1.71023
0
LINE
8
BLACK
6
CONTINUOUS
10
1.63681
20
1.84222
11
1.63681
21
1.71191
0
LINE
8
BLACK
6
CONTINUOUS
10
1.63681
20
1.71191
11
1.70965
21
1.71191
0
LINE
8
BLACK
6
CONTINUOUS
10
1.70965
20
1.71191
11
1.70965
21
1.84222
0
LINE
8
BLACK
6
CONTINUOUS
10
1.70965
20
1.84222
11
1.63681
21
1.84222
0
LINE
8
BLACK
6
CONTINUOUS
10
1.11151
20
1.80964
11
1.11122
21
1.81033
0
LINE
8
BLACK
6
CONTINUOUS
10
1.11122
20
1.81033
11
1.11122
21
1.94262
0
LINE
8
BLACK
6
CONTINUOUS
10
1.11122
20
1.94262
11
1.11151
21
1.94331
0
LINE
8
BLACK
6
CONTINUOUS
10
1.11151
20
1.94331
11
1.1122
21
1.9436
0
LINE
8
BLACK
6
CONTINUOUS
10
1.1122
20
1.9436
11
1.18701
21
1.9436
0
LINE
8
BLACK
6
CONTINUOUS
10
1.18701
20
1.9436
11
1.1877
21
1.94331
0
LINE
8
BLACK
6
CONTINUOUS
10
1.1877
20
1.94331
11
1.18799
21
1.94262
0
LINE
8
BLACK
6
CONTINUOUS
10
1.18799
20
1.94262
11
1.18799
21
1.81033
0
LINE
8
BLACK
6
CONTINUOUS
10
1.18799
20
1.81033
11
1.1877
21
1.80964
0
LINE
8
BLACK
6
CONTINUOUS
10
1.1877
20
1.80964
11
1.18701
21
1.80935
0
LINE
8
BLACK
6
CONTINUOUS
10
1.18701
20
1.80935
11
1.1122
21
1.80935
0
LINE
8
BLACK
6
CONTINUOUS
10
1.1122
20
1.80935
11
1.11151
21
1.80964
0
LINE
8
BLACK
6
CONTINUOUS
10
1.11319
20
1.94163
11
1.11319
21
1.81132
0
LINE
8
BLACK
6
CONTINUOUS
10
1.11319
20
1.81132
11
1.18602
21
1.81132
0
LINE
8
BLACK
6
CONTINUOUS
10
1.18602
20
1.81132
11
1.18602
21
1.94163
0
LINE
8
BLACK
6
CONTINUOUS
10
1.18602
20
1.94163
11
1.11319
21
1.94163
0
LINE
8
BLACK
6
CONTINUOUS
10
0.705997
20
1.81358
11
0.705709
21
1.81427
0
LINE
8
BLACK
6
CONTINUOUS
10
0.705709
20
1.81427
11
0.705709
21
1.94656
0
LINE
8
BLACK
6
CONTINUOUS
10
0.705709
20
1.94656
11
0.705997
21
1.94725
0
LINE
8
BLACK
6
CONTINUOUS
10
0.705997
20
1.94725
11
0.706693
21
1.94754
0
LINE
8
BLACK
6
CONTINUOUS
10
0.706693
20
1.94754
11
0.781496
21
1.94754
0
LINE
8
BLACK
6
CONTINUOUS
10
0.781496
20
1.94754
11
0.782192
21
1.94725
0
LINE
8
BLACK
6
CONTINUOUS
10
0.782192
20
1.94725
11
0.78248
21
1.94656
0
LINE
8
BLACK
6
CONTINUOUS
10
0.78248
20
1.94656
11
0.78248
21
1.81427
0
LINE
8
BLACK
6
CONTINUOUS
10
0.78248
20
1.81427
11
0.782192
21
1.81358
0
LINE
8
BLACK
6
CONTINUOUS
10
0.782192
20
1.81358
11
0.781496
21
1.81329
0
LINE
8
BLACK
6
CONTINUOUS
10
0.781496
20
1.81329
11
0.706693
21
1.81329
0
LINE
8
BLACK
6
CONTINUOUS
10
0.706693
20
1.81329
11
0.705997
21
1.81358
0
LINE
8
BLACK
6
CONTINUOUS
10
0.707677
20
1.94557
11
0.707677
21
1.81526
0
LINE
8
BLACK
6
CONTINUOUS
10
0.707677
20
1.81526
11
0.780512
21
1.81526
0
LINE
8
BLACK
6
CONTINUOUS
10
0.780512
20
1.81526
11
0.780512
21
1.94557
0
LINE
8
BLACK
6
CONTINUOUS
10
0.780512
20
1.94557
11
0.707677
21
1.94557
0
LINE
8
BLACK
6
CONTINUOUS
10
0.603635
20
1.81358
11
0.603346
21
1.81427
0
LINE
8
BLACK
6
CONTINUOUS
10
0.603346
20
1.81427
11
0.603346
21
1.94656
0
LINE
8
BLACK
6
CONTINUOUS
10
0.603346
20
1.94656
11
0.603635
21
1.94725
0
LINE
8
BLACK
6
CONTINUOUS
10
0.603635
20
1.94725
11
0.604331
21
1.94754
0
LINE
8
BLACK
6
CONTINUOUS
10
0.604331
20
1.94754
11
0.679134
21
1.94754
0
LINE
8
BLACK
6
CONTINUOUS
10
0.679134
20
1.94754
11
0.67983
21
1.94725
0
LINE
8
BLACK
6
CONTINUOUS
10
0.67983
20
1.94725
11
0.680118
21
1.94656
0
LINE
8
BLACK
6
CONTINUOUS
10
0.680118
20
1.94656
11
0.680118
21
1.81427
0
LINE
8
BLACK
6
CONTINUOUS
10
0.680118
20
1.81427
11
0.67983
21
1.81358
0
LINE
8
BLACK
6
CONTINUOUS
10
0.67983
20
1.81358
11
0.679134
21
1.81329
0
LINE
8
BLACK
6
CONTINUOUS
10
0.679134
20
1.81329
11
0.604331
21
1.81329
0
LINE
8
BLACK
6
CONTINUOUS
10
0.604331
20
1.81329
11
0.603635
21
1.81358
0
LINE
8
BLACK
6
CONTINUOUS
10
0.605315
20
1.94557
11
0.605315
21
1.81526
0
LINE
8
BLACK
6
CONTINUOUS
10
0.605315
20
1.81526
11
0.67815
21
1.81526
0
LINE
8
BLACK
6
CONTINUOUS
10
0.67815
20
1.81526
11
0.67815
21
1.94557
0
LINE
8
BLACK
6
CONTINUOUS
10
0.67815
20
1.94557
11
0.605315
21
1.94557
0
LINE
8
BLACK
6
CONTINUOUS
10
0.828044
20
1.81358
11
0.827756
21
1.81427
0
LINE
8
BLACK
6
CONTINUOUS
10
0.827756
20
1.81427
11
0.827756
21
1.94656
0
LINE
8
BLACK
6
CONTINUOUS
10
0.827756
20
1.94656
11
0.828044
21
1.94725
0
LINE
8
BLACK
6
CONTINUOUS
10
0.828044
20
1.94725
11
0.82874
21
1.94754
0
LINE
8
BLACK
6
CONTINUOUS
10
0.82874
20
1.94754
11
0.903543
21
1.94754
0
LINE
8
BLACK
6
CONTINUOUS
10
0.903543
20
1.94754
11
0.904239
21
1.94725
0
LINE
8
BLACK
6
CONTINUOUS
10
0.904239
20
1.94725
11
0.904528
21
1.94656
0
LINE
8
BLACK
6
CONTINUOUS
10
0.904528
20
1.94656
11
0.904528
21
1.81427
0
LINE
8
BLACK
6
CONTINUOUS
10
0.904528
20
1.81427
11
0.904239
21
1.81358
0
LINE
8
BLACK
6
CONTINUOUS
10
0.904239
20
1.81358
11
0.903543
21
1.81329
0
LINE
8
BLACK
6
CONTINUOUS
10
0.903543
20
1.81329
11
0.82874
21
1.81329
0
LINE
8
BLACK
6
CONTINUOUS
10
0.82874
20
1.81329
11
0.828044
21
1.81358
0
LINE
8
BLACK
6
CONTINUOUS
10
0.829724
20
1.94557
11
0.829724
21
1.81526
0
LINE
8
BLACK
6
CONTINUOUS
10
0.829724
20
1.81526
11
0.902559
21
1.81526
0
LINE
8
BLACK
6
CONTINUOUS
10
0.902559
20
1.81526
11
0.902559
21
1.94557
0
LINE
8
BLACK
6
CONTINUOUS
10
0.902559
20
1.94557
11
0.829724
21
1.94557
0
LINE
8
BLACK
6
CONTINUOUS
10
0.954028
20
1.81505
11
0.95374
21
1.81575
0
LINE
8
BLACK
6
CONTINUOUS
10
0.95374
20
1.81575
11
0.95374
21
1.94803
0
LINE
8
BLACK
6
CONTINUOUS
10
0.95374
20
1.94803
11
0.954028
21
1.94873
0
LINE
8
BLACK
6
CONTINUOUS
10
0.954028
20
1.94873
11
0.954724
21
1.94902
0
LINE
8
BLACK
6
CONTINUOUS
10
0.954724
20
1.94902
11
1.02953
21
1.94902
0
LINE
8
BLACK
6
CONTINUOUS
10
1.02953
20
1.94902
11
1.03022
21
1.94873
0
LINE
8
BLACK
6
CONTINUOUS
10
1.03022
20
1.94873
11
1.03051
21
1.94803
0
LINE
8
BLACK
6
CONTINUOUS
10
1.03051
20
1.94803
11
1.03051
21
1.81575
0
LINE
8
BLACK
6
CONTINUOUS
10
1.03051
20
1.81575
11
1.03022
21
1.81505
0
LINE
8
BLACK
6
CONTINUOUS
10
1.03022
20
1.81505
11
1.02953
21
1.81476
0
LINE
8
BLACK
6
CONTINUOUS
10
1.02953
20
1.81476
11
0.954724
21
1.81476
0
LINE
8
BLACK
6
CONTINUOUS
10
0.954724
20
1.81476
11
0.954028
21
1.81505
0
LINE
8
BLACK
6
CONTINUOUS
10
0.955709
20
1.94705
11
0.955709
21
1.81673
0
LINE
8
BLACK
6
CONTINUOUS
10
0.955709
20
1.81673
11
1.02854
21
1.81673
0
LINE
8
BLACK
6
CONTINUOUS
10
1.02854
20
1.81673
11
1.02854
21
1.94705
0
LINE
8
BLACK
6
CONTINUOUS
10
1.02854
20
1.94705
11
0.955709
21
1.94705
0
LINE
8
BLACK
6
CONTINUOUS
10
0.410721
20
1.82293
11
0.410433
21
1.82362
0
LINE
8
BLACK
6
CONTINUOUS
10
0.410433
20
1.82362
11
0.410433
21
1.95591
0
LINE
8
BLACK
6
CONTINUOUS
10
0.410433
20
1.95591
11
0.410721
21
1.9566
0
LINE
8
BLACK
6
CONTINUOUS
10
0.410721
20
1.9566
11
0.411417
21
1.95689
0
LINE
8
BLACK
6
CONTINUOUS
10
0.411417
20
1.95689
11
0.48622
21
1.95689
0
LINE
8
BLACK
6
CONTINUOUS
10
0.48622
20
1.95689
11
0.486916
21
1.9566
0
LINE
8
BLACK
6
CONTINUOUS
10
0.486916
20
1.9566
11
0.487205
21
1.95591
0
LINE
8
BLACK
6
CONTINUOUS
10
0.487205
20
1.95591
11
0.487205
21
1.82362
0
LINE
8
BLACK
6
CONTINUOUS
10
0.487205
20
1.82362
11
0.486916
21
1.82293
0
LINE
8
BLACK
6
CONTINUOUS
10
0.486916
20
1.82293
11
0.48622
21
1.82264
0
LINE
8
BLACK
6
CONTINUOUS
10
0.48622
20
1.82264
11
0.411417
21
1.82264
0
LINE
8
BLACK
6
CONTINUOUS
10
0.411417
20
1.82264
11
0.410721
21
1.82293
0
LINE
8
BLACK
6
CONTINUOUS
10
0.412402
20
1.95492
11
0.412402
21
1.82461
0
LINE
8
BLACK
6
CONTINUOUS
10
0.412402
20
1.82461
11
0.485236
21
1.82461
0
LINE
8
BLACK
6
CONTINUOUS
10
0.485236
20
1.82461
11
0.485236
21
1.95492
0
LINE
8
BLACK
6
CONTINUOUS
10
0.485236
20
1.95492
11
0.412402
21
1.95492
0
LINE
8
BLACK
6
CONTINUOUS
10
0.265052
20
1.82539
11
0.264764
21
1.82608
0
LINE
8
BLACK
6
CONTINUOUS
10
0.264764
20
1.82608
11
0.264764
21
1.95837
0
LINE
8
BLACK
6
CONTINUOUS
10
0.264764
20
1.95837
11
0.265052
21
1.95906
0
LINE
8
BLACK
6
CONTINUOUS
10
0.265052
20
1.95906
11
0.265748
21
1.95935
0
LINE
8
BLACK
6
CONTINUOUS
10
0.265748
20
1.95935
11
0.340551
21
1.95935
0
LINE
8
BLACK
6
CONTINUOUS
10
0.340551
20
1.95935
11
0.341247
21
1.95906
0
LINE
8
BLACK
6
CONTINUOUS
10
0.341247
20
1.95906
11
0.341535
21
1.95837
0
LINE
8
BLACK
6
CONTINUOUS
10
0.341535
20
1.95837
11
0.341535
21
1.82608
0
LINE
8
BLACK
6
CONTINUOUS
10
0.341535
20
1.82608
11
0.341247
21
1.82539
0
LINE
8
BLACK
6
CONTINUOUS
10
0.341247
20
1.82539
11
0.340551
21
1.8251
0
LINE
8
BLACK
6
CONTINUOUS
10
0.340551
20
1.8251
11
0.265748
21
1.8251
0
LINE
8
BLACK
6
CONTINUOUS
10
0.265748
20
1.8251
11
0.265052
21
1.82539
0
LINE
8
BLACK
6
CONTINUOUS
10
0.266732
20
1.95738
11
0.266732
21
1.82707
0
LINE
8
BLACK
6
CONTINUOUS
10
0.266732
20
1.82707
11
0.339567
21
1.82707
0
LINE
8
BLACK
6
CONTINUOUS
10
0.339567
20
1.82707
11
0.339567
21
1.95738
0
LINE
8
BLACK
6
CONTINUOUS
10
0.339567
20
1.95738
11
0.266732
21
1.95738
0
LINE
8
BLACK
6
CONTINUOUS
10
0.7808
20
2.14891
11
0.780512
21
2.14961
0
LINE
8
BLACK
6
CONTINUOUS
10
0.780512
20
2.14961
11
0.780512
21
2.23622
0
LINE
8
BLACK
6
CONTINUOUS
10
0.780512
20
2.23622
11
0.7808
21
2.23692
0
LINE
8
BLACK
6
CONTINUOUS
10
0.7808
20
2.23692
11
0.781496
21
2.2372
0
LINE
8
BLACK
6
CONTINUOUS
10
0.781496
20
2.2372
11
0.990157
21
2.2372
0
LINE
8
BLACK
6
CONTINUOUS
10
0.990157
20
2.2372
11
0.990853
21
2.23692
0
LINE
8
BLACK
6
CONTINUOUS
10
0.990853
20
2.23692
11
0.991142
21
2.23622
0
LINE
8
BLACK
6
CONTINUOUS
10
0.991142
20
2.23622
11
0.991142
21
2.14961
0
LINE
8
BLACK
6
CONTINUOUS
10
0.991142
20
2.14961
11
0.990853
21
2.14891
0
LINE
8
BLACK
6
CONTINUOUS
10
0.990853
20
2.14891
11
0.990157
21
2.14862
0
LINE
8
BLACK
6
CONTINUOUS
10
0.990157
20
2.14862
11
0.781496
21
2.14862
0
LINE
8
BLACK
6
CONTINUOUS
10
0.781496
20
2.14862
11
0.7808
21
2.14891
0
LINE
8
BLACK
6
CONTINUOUS
10
0.78248
20
2.23524
11
0.78248
21
2.15059
0
LINE
8
BLACK
6
CONTINUOUS
10
0.78248
20
2.15059
11
0.989173
21
2.15059
0
LINE
8
BLACK
6
CONTINUOUS
10
0.989173
20
2.15059
11
0.989173
21
2.23524
0
LINE
8
BLACK
6
CONTINUOUS
10
0.989173
20
2.23524
11
0.78248
21
2.23524
0
LINE
8
BLACK
6
CONTINUOUS
10
1.15482
20
2.15216
11
1.15453
21
2.15285
0
LINE
8
BLACK
6
CONTINUOUS
10
1.15453
20
2.15285
11
1.15453
21
2.28514
0
LINE
8
BLACK
6
CONTINUOUS
10
1.15453
20
2.28514
11
1.15482
21
2.28583
0
LINE
8
BLACK
6
CONTINUOUS
10
1.15482
20
2.28583
11
1.15551
21
2.28612
0
LINE
8
BLACK
6
CONTINUOUS
10
1.15551
20
2.28612
11
1.23031
21
2.28612
0
LINE
8
BLACK
6
CONTINUOUS
10
1.23031
20
2.28612
11
1.23101
21
2.28583
0
LINE
8
BLACK
6
CONTINUOUS
10
1.23101
20
2.28583
11
1.2313
21
2.28514
0
LINE
8
BLACK
6
CONTINUOUS
10
1.2313
20
2.28514
11
1.2313
21
2.15285
0
LINE
8
BLACK
6
CONTINUOUS
10
1.2313
20
2.15285
11
1.23101
21
2.15216
0
LINE
8
BLACK
6
CONTINUOUS
10
1.23101
20
2.15216
11
1.23031
21
2.15187
0
LINE
8
BLACK
6
CONTINUOUS
10
1.23031
20
2.15187
11
1.15551
21
2.15187
0
LINE
8
BLACK
6
CONTINUOUS
10
1.15551
20
2.15187
11
1.15482
21
2.15216
0
LINE
8
BLACK
6
CONTINUOUS
10
1.1565
20
2.28415
11
1.1565
21
2.15384
0
LINE
8
BLACK
6
CONTINUOUS
10
1.1565
20
2.15384
11
1.22933
21
2.15384
0
LINE
8
BLACK
6
CONTINUOUS
10
1.22933
20
2.15384
11
1.22933
21
2.28415
0
LINE
8
BLACK
6
CONTINUOUS
10
1.22933
20
2.28415
11
1.1565
21
2.28415
0
LINE
8
BLACK
6
CONTINUOUS
10
1.07608
20
2.15216
11
1.07579
21
2.15285
0
LINE
8
BLACK
6
CONTINUOUS
10
1.07579
20
2.15285
11
1.07579
21
2.28514
0
LINE
8
BLACK
6
CONTINUOUS
10
1.07579
20
2.28514
11
1.07608
21
2.28583
0
LINE
8
BLACK
6
CONTINUOUS
10
1.07608
20
2.28583
11
1.07677
21
2.28612
0
LINE
8
BLACK
6
CONTINUOUS
10
1.07677
20
2.28612
11
1.15157
21
2.28612
0
LINE
8
BLACK
6
CONTINUOUS
10
1.15157
20
2.28612
11
1.15227
21
2.28583
0
LINE
8
BLACK
6
CONTINUOUS
10
1.15227
20
2.28583
11
1.15256
21
2.28514
0
LINE
8
BLACK
6
CONTINUOUS
10
1.15256
20
2.28514
11
1.15256
21
2.15285
0
LINE
8
BLACK
6
CONTINUOUS
10
1.15256
20
2.15285
11
1.15227
21
2.15216
0
LINE
8
BLACK
6
CONTINUOUS
10
1.15227
20
2.15216
11
1.15157
21
2.15187
0
LINE
8
BLACK
6
CONTINUOUS
10
1.15157
20
2.15187
11
1.07677
21
2.15187
0
LINE
8
BLACK
6
CONTINUOUS
10
1.07677
20
2.15187
11
1.07608
21
2.15216
0
LINE
8
BLACK
6
CONTINUOUS
10
1.07776
20
2.28415
11
1.07776
21
2.15384
0
LINE
8
BLACK
6
CONTINUOUS
10
1.07776
20
2.15384
11
1.15059
21
2.15384
0
LINE
8
BLACK
6
CONTINUOUS
10
1.15059
20
2.15384
11
1.15059
21
2.28415
0
LINE
8
BLACK
6
CONTINUOUS
10
1.15059
20
2.28415
11
1.07776
21
2.28415
  0
ENDSEC
  0
EOF
