  0
SECTION
  2
HEADER
  9
$ANGBASE
  50
0.0
  9
$ANGDIR
  70
1
  9
$MEASUREMENT
  70
0
  0
ENDSEC
  0
SECTION
  2
TABLES
  0
TABLE
  2
LTYPE
  70
4
  0
LTYPE
  5
40F
  2
CONTINUOUS
  70
0
  3
Solid line
  72
65
  73
0
  40
0.0
  0
LTYPE
  5
410
  2
DASHDOT
 70
0
  3
Dash Dot ____ _ ____ _
 72
65
 73
4
 40
2.0
 49
1.25
 49
-0.25
 49
0.25
 49
-0.25
  0
LTYPE
  5
411
  2
DASHED
 70
0
  3
Dashed __ __ __ __ __
 72
65
 73
2
 40
0.75
 49
0.5
 49
-0.25
  0
LTYPE
  5
43B
  2
DOTTED
 70
0
  3
Dotted .  .  .  .
 72
65
 73
2
 40
0.2
 49
0.0
 49
-0.2
  0
ENDTAB
  0
TABLE
  2
STYLE
  70
4
  0
STYLE
  2
KICAD
  70
0
  40
0
  41
1
  42
1
  50
0
  71
0
  3
isocp.shx
  0
STYLE
  2
KICADB
  70
0
  40
0
  41
1
  42
1
  50
0
  71
0
  3
isocp.shx
  0
STYLE
  2
KICADI
  70
0
  40
0
  41
1
  42
1
  50
15
  71
0
  3
isocp.shx
  0
STYLE
  2
KICADBI
  70
0
  40
0
  41
1
  42
1
  50
15
  71
0
  3
isocp.shx
  0
ENDTAB
  0
TABLE
  2
LAYER
  70
1
  0
LAYER
  2
BLACK
  70
0
  62
7
  6
CONTINUOUS
  0
ENDTAB
  0
ENDSEC
  0
SECTION
  2
ENTITIES
0
LINE
8
BLACK
6
CONTINUOUS
10
0.0134445669291339
20
0.1193237007874016
11
0.0267200393700787
21
0.1170681102362205
0
LINE
8
BLACK
6
CONTINUOUS
10
0.0267200393700787
20
0.1170681102362205
11
0.0396594881889764
21
0.1133403149606299
0
LINE
8
BLACK
6
CONTINUOUS
10
0.0396594881889764
20
0.1133403149606299
11
0.0521001968503937
21
0.1081872047244094
0
LINE
8
BLACK
6
CONTINUOUS
10
0.0521001968503937
20
0.1081872047244094
11
0.0638857480314961
21
0.1016735826771654
0
LINE
8
BLACK
6
CONTINUOUS
10
0.0638857480314961
20
0.1016735826771654
11
0.074867874015748
21
0.0938813385826772
0
LINE
8
BLACK
6
CONTINUOUS
10
0.074867874015748
20
0.0938813385826772
11
0.0849085039370079
21
0.0849085039370079
0
LINE
8
BLACK
6
CONTINUOUS
10
0.0849085039370079
20
0.0849085039370079
11
0.0938813385826772
21
0.074867874015748
0
LINE
8
BLACK
6
CONTINUOUS
10
0.0938813385826772
20
0.074867874015748
11
0.1016735826771654
21
0.0638857480314961
0
LINE
8
BLACK
6
CONTINUOUS
10
0.1016735826771654
20
0.0638857480314961
11
0.1081872047244094
21
0.0521001968503937
0
LINE
8
BLACK
6
CONTINUOUS
10
0.1081872047244094
20
0.0521001968503937
11
0.1133403149606299
21
0.0396594881889764
0
LINE
8
BLACK
6
CONTINUOUS
10
0.1133403149606299
20
0.0396594881889764
11
0.1170681102362205
21
0.0267200393700787
0
LINE
8
BLACK
6
CONTINUOUS
10
0.1170681102362205
20
0.0267200393700787
11
0.1193237007874016
21
0.0134445669291339
0
LINE
8
BLACK
6
CONTINUOUS
10
0.1193237007874016
20
0.0134445669291339
11
0.1200787401574803
21
0.
0
LINE
8
BLACK
6
CONTINUOUS
10
0.1200787401574803
20
0.
11
0.1193237007874016
21
-0.0134445669291339
0
LINE
8
BLACK
6
CONTINUOUS
10
0.1193237007874016
20
-0.0134445669291339
11
0.1170681102362205
21
-0.0267200393700787
0
LINE
8
BLACK
6
CONTINUOUS
10
0.1170681102362205
20
-0.0267200393700787
11
0.1133403149606299
21
-0.0396594881889764
0
LINE
8
BLACK
6
CONTINUOUS
10
0.1133403149606299
20
-0.0396594881889764
11
0.1081872047244094
21
-0.0521001968503937
0
LINE
8
BLACK
6
CONTINUOUS
10
0.1081872047244094
20
-0.0521001968503937
11
0.1016735826771654
21
-0.0638857480314961
0
LINE
8
BLACK
6
CONTINUOUS
10
0.1016735826771654
20
-0.0638857480314961
11
0.0938813385826772
21
-0.074867874015748
0
LINE
8
BLACK
6
CONTINUOUS
10
0.0938813385826772
20
-0.074867874015748
11
0.0849085039370079
21
-0.0849085039370079
0
LINE
8
BLACK
6
CONTINUOUS
10
0.0849085039370079
20
-0.0849085039370079
11
0.074867874015748
21
-0.0938813385826772
0
LINE
8
BLACK
6
CONTINUOUS
10
0.074867874015748
20
-0.0938813385826772
11
0.0638857480314961
21
-0.1016735826771654
0
LINE
8
BLACK
6
CONTINUOUS
10
0.0638857480314961
20
-0.1016735826771654
11
0.0521001968503937
21
-0.1081872047244094
0
LINE
8
BLACK
6
CONTINUOUS
10
0.0521001968503937
20
-0.1081872047244094
11
0.0396594881889764
21
-0.1133403149606299
0
LINE
8
BLACK
6
CONTINUOUS
10
0.0396594881889764
20
-0.1133403149606299
11
0.0267200393700787
21
-0.1170681102362205
0
LINE
8
BLACK
6
CONTINUOUS
10
0.0267200393700787
20
-0.1170681102362205
11
0.0134445669291339
21
-0.1193237007874016
0
LINE
8
BLACK
6
CONTINUOUS
10
0.0134445669291339
20
-0.1193237007874016
11
0.
21
-0.1200787401574803
0
LINE
8
BLACK
6
CONTINUOUS
10
0.
20
-0.1200787401574803
11
-0.0134445669291339
21
-0.1193237007874016
0
LINE
8
BLACK
6
CONTINUOUS
10
-0.0134445669291339
20
-0.1193237007874016
11
-0.0267200393700787
21
-0.1170681102362205
0
LINE
8
BLACK
6
CONTINUOUS
10
-0.0267200393700787
20
-0.1170681102362205
11
-0.0396594881889764
21
-0.1133403149606299
0
LINE
8
BLACK
6
CONTINUOUS
10
-0.0396594881889764
20
-0.1133403149606299
11
-0.0521001968503937
21
-0.1081872047244094
0
LINE
8
BLACK
6
CONTINUOUS
10
-0.0521001968503937
20
-0.1081872047244094
11
-0.0638857480314961
21
-0.1016735826771654
0
LINE
8
BLACK
6
CONTINUOUS
10
-0.0638857480314961
20
-0.1016735826771654
11
-0.074867874015748
21
-0.0938813385826772
0
LINE
8
BLACK
6
CONTINUOUS
10
-0.074867874015748
20
-0.0938813385826772
11
-0.0849085039370079
21
-0.0849085039370079
0
LINE
8
BLACK
6
CONTINUOUS
10
-0.0849085039370079
20
-0.0849085039370079
11
-0.0938813385826772
21
-0.074867874015748
0
LINE
8
BLACK
6
CONTINUOUS
10
-0.0938813385826772
20
-0.074867874015748
11
-0.1016735826771654
21
-0.0638857480314961
0
LINE
8
BLACK
6
CONTINUOUS
10
-0.1016735826771654
20
-0.0638857480314961
11
-0.1081872047244094
21
-0.0521001968503937
0
LINE
8
BLACK
6
CONTINUOUS
10
-0.1081872047244094
20
-0.0521001968503937
11
-0.1133403149606299
21
-0.0396594881889764
0
LINE
8
BLACK
6
CONTINUOUS
10
-0.1133403149606299
20
-0.0396594881889764
11
-0.1170681102362205
21
-0.0267200393700787
0
LINE
8
BLACK
6
CONTINUOUS
10
-0.1170681102362205
20
-0.0267200393700787
11
-0.1193237007874016
21
-0.0134445669291339
0
LINE
8
BLACK
6
CONTINUOUS
10
-0.1193237007874016
20
-0.0134445669291339
11
-0.1200787401574803
21
0.
0
LINE
8
BLACK
6
CONTINUOUS
10
-0.1200787401574803
20
0.
11
-0.1193237007874016
21
0.0134445669291339
0
LINE
8
BLACK
6
CONTINUOUS
10
-0.1193237007874016
20
0.0134445669291339
11
-0.1170681102362205
21
0.0267200393700787
0
LINE
8
BLACK
6
CONTINUOUS
10
-0.1170681102362205
20
0.0267200393700787
11
-0.1133403149606299
21
0.0396594881889764
0
LINE
8
BLACK
6
CONTINUOUS
10
-0.1133403149606299
20
0.0396594881889764
11
-0.1081872047244094
21
0.0521001968503937
0
LINE
8
BLACK
6
CONTINUOUS
10
-0.1081872047244094
20
0.0521001968503937
11
-0.1016735826771654
21
0.0638857480314961
0
LINE
8
BLACK
6
CONTINUOUS
10
-0.1016735826771654
20
0.0638857480314961
11
-0.0938813385826772
21
0.074867874015748
0
LINE
8
BLACK
6
CONTINUOUS
10
-0.0938813385826772
20
0.074867874015748
11
-0.0849085039370079
21
0.0849085039370079
0
LINE
8
BLACK
6
CONTINUOUS
10
-0.0849085039370079
20
0.0849085039370079
11
-0.074867874015748
21
0.0938813385826772
0
LINE
8
BLACK
6
CONTINUOUS
10
-0.074867874015748
20
0.0938813385826772
11
-0.0638857480314961
21
0.1016735826771654
0
LINE
8
BLACK
6
CONTINUOUS
10
-0.0638857480314961
20
0.1016735826771654
11
-0.0521001968503937
21
0.1081872047244094
0
LINE
8
BLACK
6
CONTINUOUS
10
-0.0521001968503937
20
0.1081872047244094
11
-0.0396594881889764
21
0.1133403149606299
0
LINE
8
BLACK
6
CONTINUOUS
10
-0.0396594881889764
20
0.1133403149606299
11
-0.0267200393700787
21
0.1170681102362205
0
LINE
8
BLACK
6
CONTINUOUS
10
-0.0267200393700787
20
0.1170681102362205
11
-0.0134445669291339
21
0.1193237007874016
0
LINE
8
BLACK
6
CONTINUOUS
10
-0.0134445669291339
20
0.1193237007874016
11
0.
21
0.1200787401574803
0
LINE
8
BLACK
6
CONTINUOUS
10
0.
20
0.1200787401574803
11
0.0134445669291339
21
0.1193237007874016
0
LINE
8
BLACK
6
CONTINUOUS
10
2.0134445669291337
20
0.1193237007874016
11
2.0267200393700788
21
0.1170681102362205
0
LINE
8
BLACK
6
CONTINUOUS
10
2.0267200393700788
20
0.1170681102362205
11
2.0396594881889762
21
0.1133403149606299
0
LINE
8
BLACK
6
CONTINUOUS
10
2.0396594881889762
20
0.1133403149606299
11
2.0521001968503936
21
0.1081872047244094
0
LINE
8
BLACK
6
CONTINUOUS
10
2.0521001968503936
20
0.1081872047244094
11
2.0638857480314958
21
0.1016735826771654
0
LINE
8
BLACK
6
CONTINUOUS
10
2.0638857480314958
20
0.1016735826771654
11
2.074867874015748
21
0.0938813385826772
0
LINE
8
BLACK
6
CONTINUOUS
10
2.074867874015748
20
0.0938813385826772
11
2.0849085039370077
21
0.0849085039370079
0
LINE
8
BLACK
6
CONTINUOUS
10
2.0849085039370077
20
0.0849085039370079
11
2.0938813385826771
21
0.074867874015748
0
LINE
8
BLACK
6
CONTINUOUS
10
2.0938813385826771
20
0.074867874015748
11
2.1016735826771651
21
0.0638857480314961
0
LINE
8
BLACK
6
CONTINUOUS
10
2.1016735826771651
20
0.0638857480314961
11
2.1081872047244095
21
0.0521001968503937
0
LINE
8
BLACK
6
CONTINUOUS
10
2.1081872047244095
20
0.0521001968503937
11
2.11334031496063
21
0.0396594881889764
0
LINE
8
BLACK
6
CONTINUOUS
10
2.11334031496063
20
0.0396594881889764
11
2.1170681102362203
21
0.0267200393700787
0
LINE
8
BLACK
6
CONTINUOUS
10
2.1170681102362203
20
0.0267200393700787
11
2.1193237007874015
21
0.0134445669291339
0
LINE
8
BLACK
6
CONTINUOUS
10
2.1193237007874015
20
0.0134445669291339
11
2.1200787401574801
21
0.
0
LINE
8
BLACK
6
CONTINUOUS
10
2.1200787401574801
20
0.
11
2.1193237007874015
21
-0.0134445669291339
0
LINE
8
BLACK
6
CONTINUOUS
10
2.1193237007874015
20
-0.0134445669291339
11
2.1170681102362203
21
-0.0267200393700787
0
LINE
8
BLACK
6
CONTINUOUS
10
2.1170681102362203
20
-0.0267200393700787
11
2.11334031496063
21
-0.0396594881889764
0
LINE
8
BLACK
6
CONTINUOUS
10
2.11334031496063
20
-0.0396594881889764
11
2.1081872047244095
21
-0.0521001968503937
0
LINE
8
BLACK
6
CONTINUOUS
10
2.1081872047244095
20
-0.0521001968503937
11
2.1016735826771651
21
-0.0638857480314961
0
LINE
8
BLACK
6
CONTINUOUS
10
2.1016735826771651
20
-0.0638857480314961
11
2.0938813385826771
21
-0.074867874015748
0
LINE
8
BLACK
6
CONTINUOUS
10
2.0938813385826771
20
-0.074867874015748
11
2.0849085039370077
21
-0.0849085039370079
0
LINE
8
BLACK
6
CONTINUOUS
10
2.0849085039370077
20
-0.0849085039370079
11
2.074867874015748
21
-0.0938813385826772
0
LINE
8
BLACK
6
CONTINUOUS
10
2.074867874015748
20
-0.0938813385826772
11
2.0638857480314958
21
-0.1016735826771654
0
LINE
8
BLACK
6
CONTINUOUS
10
2.0638857480314958
20
-0.1016735826771654
11
2.0521001968503936
21
-0.1081872047244094
0
LINE
8
BLACK
6
CONTINUOUS
10
2.0521001968503936
20
-0.1081872047244094
11
2.0396594881889762
21
-0.1133403149606299
0
LINE
8
BLACK
6
CONTINUOUS
10
2.0396594881889762
20
-0.1133403149606299
11
2.0267200393700788
21
-0.1170681102362205
0
LINE
8
BLACK
6
CONTINUOUS
10
2.0267200393700788
20
-0.1170681102362205
11
2.0134445669291337
21
-0.1193237007874016
0
LINE
8
BLACK
6
CONTINUOUS
10
2.0134445669291337
20
-0.1193237007874016
11
2.
21
-0.1200787401574803
0
LINE
8
BLACK
6
CONTINUOUS
10
2.
20
-0.1200787401574803
11
1.9865554330708661
21
-0.1193237007874016
0
LINE
8
BLACK
6
CONTINUOUS
10
1.9865554330708661
20
-0.1193237007874016
11
1.9732799606299212
21
-0.1170681102362205
0
LINE
8
BLACK
6
CONTINUOUS
10
1.9732799606299212
20
-0.1170681102362205
11
1.9603405118110235
21
-0.1133403149606299
0
LINE
8
BLACK
6
CONTINUOUS
10
1.9603405118110235
20
-0.1133403149606299
11
1.9478998031496062
21
-0.1081872047244094
0
LINE
8
BLACK
6
CONTINUOUS
10
1.9478998031496062
20
-0.1081872047244094
11
1.936114251968504
21
-0.1016735826771654
0
LINE
8
BLACK
6
CONTINUOUS
10
1.936114251968504
20
-0.1016735826771654
11
1.925132125984252
21
-0.0938813385826772
0
LINE
8
BLACK
6
CONTINUOUS
10
1.925132125984252
20
-0.0938813385826772
11
1.9150914960629921
21
-0.0849085039370079
0
LINE
8
BLACK
6
CONTINUOUS
10
1.9150914960629921
20
-0.0849085039370079
11
1.9061186614173229
21
-0.074867874015748
0
LINE
8
BLACK
6
CONTINUOUS
10
1.9061186614173229
20
-0.074867874015748
11
1.8983264173228347
21
-0.0638857480314961
0
LINE
8
BLACK
6
CONTINUOUS
10
1.8983264173228347
20
-0.0638857480314961
11
1.8918127952755905
21
-0.0521001968503937
0
LINE
8
BLACK
6
CONTINUOUS
10
1.8918127952755905
20
-0.0521001968503937
11
1.88665968503937
21
-0.0396594881889764
0
LINE
8
BLACK
6
CONTINUOUS
10
1.88665968503937
20
-0.0396594881889764
11
1.8829318897637795
21
-0.0267200393700787
0
LINE
8
BLACK
6
CONTINUOUS
10
1.8829318897637795
20
-0.0267200393700787
11
1.8806762992125985
21
-0.0134445669291339
0
LINE
8
BLACK
6
CONTINUOUS
10
1.8806762992125985
20
-0.0134445669291339
11
1.8799212598425197
21
0.
0
LINE
8
BLACK
6
CONTINUOUS
10
1.8799212598425197
20
0.
11
1.8806762992125985
21
0.0134445669291339
0
LINE
8
BLACK
6
CONTINUOUS
10
1.8806762992125985
20
0.0134445669291339
11
1.8829318897637795
21
0.0267200393700787
0
LINE
8
BLACK
6
CONTINUOUS
10
1.8829318897637795
20
0.0267200393700787
11
1.88665968503937
21
0.0396594881889764
0
LINE
8
BLACK
6
CONTINUOUS
10
1.88665968503937
20
0.0396594881889764
11
1.8918127952755905
21
0.0521001968503937
0
LINE
8
BLACK
6
CONTINUOUS
10
1.8918127952755905
20
0.0521001968503937
11
1.8983264173228347
21
0.0638857480314961
0
LINE
8
BLACK
6
CONTINUOUS
10
1.8983264173228347
20
0.0638857480314961
11
1.9061186614173229
21
0.074867874015748
0
LINE
8
BLACK
6
CONTINUOUS
10
1.9061186614173229
20
0.074867874015748
11
1.9150914960629921
21
0.0849085039370079
0
LINE
8
BLACK
6
CONTINUOUS
10
1.9150914960629921
20
0.0849085039370079
11
1.925132125984252
21
0.0938813385826772
0
LINE
8
BLACK
6
CONTINUOUS
10
1.925132125984252
20
0.0938813385826772
11
1.936114251968504
21
0.1016735826771654
0
LINE
8
BLACK
6
CONTINUOUS
10
1.936114251968504
20
0.1016735826771654
11
1.9478998031496062
21
0.1081872047244094
0
LINE
8
BLACK
6
CONTINUOUS
10
1.9478998031496062
20
0.1081872047244094
11
1.9603405118110235
21
0.1133403149606299
0
LINE
8
BLACK
6
CONTINUOUS
10
1.9603405118110235
20
0.1133403149606299
11
1.9732799606299212
21
0.1170681102362205
0
LINE
8
BLACK
6
CONTINUOUS
10
1.9732799606299212
20
0.1170681102362205
11
1.9865554330708661
21
0.1193237007874016
0
LINE
8
BLACK
6
CONTINUOUS
10
1.9865554330708661
20
0.1193237007874016
11
2.
21
0.1200787401574803
0
LINE
8
BLACK
6
CONTINUOUS
10
2.
20
0.1200787401574803
11
2.0134445669291337
21
0.1193237007874016
0
LINE
8
BLACK
6
CONTINUOUS
10
0.0807533070866142
20
0.3664643307086614
11
0.0813919291338583
21
0.3660375984251968
0
LINE
8
BLACK
6
CONTINUOUS
10
0.0813919291338583
20
0.3660375984251968
11
0.0818186614173228
21
0.3653989763779528
0
LINE
8
BLACK
6
CONTINUOUS
10
0.0818186614173228
20
0.3653989763779528
11
0.0819685039370079
21
0.3646456692913386
0
LINE
8
BLACK
6
CONTINUOUS
10
0.0819685039370079
20
0.3646456692913386
11
0.0819685039370079
21
0.3046456692913386
0
LINE
8
BLACK
6
CONTINUOUS
10
0.0819685039370079
20
0.3046456692913386
11
0.0818186614173228
21
0.3038923622047244
0
LINE
8
BLACK
6
CONTINUOUS
10
0.0818186614173228
20
0.3038923622047244
11
0.0813919291338583
21
0.3032537401574803
0
LINE
8
BLACK
6
CONTINUOUS
10
0.0813919291338583
20
0.3032537401574803
11
0.0807533070866142
21
0.3028270078740157
0
LINE
8
BLACK
6
CONTINUOUS
10
0.0807533070866142
20
0.3028270078740157
11
0.08
21
0.3026771653543307
0
LINE
8
BLACK
6
CONTINUOUS
10
0.08
20
0.3026771653543307
11
0.02
21
0.3026771653543307
0
LINE
8
BLACK
6
CONTINUOUS
10
0.02
20
0.3026771653543307
11
0.0192466929133858
21
0.3028270078740157
0
LINE
8
BLACK
6
CONTINUOUS
10
0.0192466929133858
20
0.3028270078740157
11
0.0186080708661417
21
0.3032537401574803
0
LINE
8
BLACK
6
CONTINUOUS
10
0.0186080708661417
20
0.3032537401574803
11
0.0181813385826772
21
0.3038923622047244
0
LINE
8
BLACK
6
CONTINUOUS
10
0.0181813385826772
20
0.3038923622047244
11
0.0180314960629921
21
0.3046456692913386
0
LINE
8
BLACK
6
CONTINUOUS
10
0.0180314960629921
20
0.3046456692913386
11
0.0180314960629921
21
0.3646456692913386
0
LINE
8
BLACK
6
CONTINUOUS
10
0.0180314960629921
20
0.3646456692913386
11
0.0181813385826772
21
0.3653989763779528
0
LINE
8
BLACK
6
CONTINUOUS
10
0.0181813385826772
20
0.3653989763779528
11
0.0186080708661417
21
0.3660375984251968
0
LINE
8
BLACK
6
CONTINUOUS
10
0.0186080708661417
20
0.3660375984251968
11
0.0192466929133858
21
0.3664643307086614
0
LINE
8
BLACK
6
CONTINUOUS
10
0.0192466929133858
20
0.3664643307086614
11
0.02
21
0.3666141732283464
0
LINE
8
BLACK
6
CONTINUOUS
10
0.02
20
0.3666141732283464
11
0.08
21
0.3666141732283464
0
LINE
8
BLACK
6
CONTINUOUS
10
0.08
20
0.3666141732283464
11
0.0807533070866142
21
0.3664643307086614
0
LINE
8
BLACK
6
CONTINUOUS
10
0.1807533070866142
20
0.3664643307086614
11
0.1813919291338583
21
0.3660375984251968
0
LINE
8
BLACK
6
CONTINUOUS
10
0.1813919291338583
20
0.3660375984251968
11
0.1818186614173228
21
0.3653989763779528
0
LINE
8
BLACK
6
CONTINUOUS
10
0.1818186614173228
20
0.3653989763779528
11
0.1819685039370079
21
0.3646456692913386
0
LINE
8
BLACK
6
CONTINUOUS
10
0.1819685039370079
20
0.3646456692913386
11
0.1819685039370079
21
0.3046456692913386
0
LINE
8
BLACK
6
CONTINUOUS
10
0.1819685039370079
20
0.3046456692913386
11
0.1818186614173228
21
0.3038923622047244
0
LINE
8
BLACK
6
CONTINUOUS
10
0.1818186614173228
20
0.3038923622047244
11
0.1813919291338583
21
0.3032537401574803
0
LINE
8
BLACK
6
CONTINUOUS
10
0.1813919291338583
20
0.3032537401574803
11
0.1807533070866142
21
0.3028270078740157
0
LINE
8
BLACK
6
CONTINUOUS
10
0.1807533070866142
20
0.3028270078740157
11
0.18
21
0.3026771653543307
0
LINE
8
BLACK
6
CONTINUOUS
10
0.18
20
0.3026771653543307
11
0.12
21
0.3026771653543307
0
LINE
8
BLACK
6
CONTINUOUS
10
0.12
20
0.3026771653543307
11
0.1192466929133858
21
0.3028270078740157
0
LINE
8
BLACK
6
CONTINUOUS
10
0.1192466929133858
20
0.3028270078740157
11
0.1186080708661417
21
0.3032537401574803
0
LINE
8
BLACK
6
CONTINUOUS
10
0.1186080708661417
20
0.3032537401574803
11
0.1181813385826772
21
0.3038923622047244
0
LINE
8
BLACK
6
CONTINUOUS
10
0.1181813385826772
20
0.3038923622047244
11
0.1180314960629921
21
0.3046456692913386
0
LINE
8
BLACK
6
CONTINUOUS
10
0.1180314960629921
20
0.3046456692913386
11
0.1180314960629921
21
0.3646456692913386
0
LINE
8
BLACK
6
CONTINUOUS
10
0.1180314960629921
20
0.3646456692913386
11
0.1181813385826772
21
0.3653989763779528
0
LINE
8
BLACK
6
CONTINUOUS
10
0.1181813385826772
20
0.3653989763779528
11
0.1186080708661417
21
0.3660375984251968
0
LINE
8
BLACK
6
CONTINUOUS
10
0.1186080708661417
20
0.3660375984251968
11
0.1192466929133858
21
0.3664643307086614
0
LINE
8
BLACK
6
CONTINUOUS
10
0.1192466929133858
20
0.3664643307086614
11
0.12
21
0.3666141732283464
0
LINE
8
BLACK
6
CONTINUOUS
10
0.12
20
0.3666141732283464
11
0.18
21
0.3666141732283464
0
LINE
8
BLACK
6
CONTINUOUS
10
0.18
20
0.3666141732283464
11
0.1807533070866142
21
0.3664643307086614
0
LINE
8
BLACK
6
CONTINUOUS
10
0.2807533070866142
20
0.3664643307086614
11
0.2813919291338582
21
0.3660375984251968
0
LINE
8
BLACK
6
CONTINUOUS
10
0.2813919291338582
20
0.3660375984251968
11
0.2818186614173228
21
0.3653989763779528
0
LINE
8
BLACK
6
CONTINUOUS
10
0.2818186614173228
20
0.3653989763779528
11
0.2819685039370078
21
0.3646456692913386
0
LINE
8
BLACK
6
CONTINUOUS
10
0.2819685039370078
20
0.3646456692913386
11
0.2819685039370078
21
0.3046456692913386
0
LINE
8
BLACK
6
CONTINUOUS
10
0.2819685039370078
20
0.3046456692913386
11
0.2818186614173228
21
0.3038923622047244
0
LINE
8
BLACK
6
CONTINUOUS
10
0.2818186614173228
20
0.3038923622047244
11
0.2813919291338582
21
0.3032537401574803
0
LINE
8
BLACK
6
CONTINUOUS
10
0.2813919291338582
20
0.3032537401574803
11
0.2807533070866142
21
0.3028270078740157
0
LINE
8
BLACK
6
CONTINUOUS
10
0.2807533070866142
20
0.3028270078740157
11
0.28
21
0.3026771653543307
0
LINE
8
BLACK
6
CONTINUOUS
10
0.28
20
0.3026771653543307
11
0.22
21
0.3026771653543307
0
LINE
8
BLACK
6
CONTINUOUS
10
0.22
20
0.3026771653543307
11
0.2192466929133858
21
0.3028270078740157
0
LINE
8
BLACK
6
CONTINUOUS
10
0.2192466929133858
20
0.3028270078740157
11
0.2186080708661417
21
0.3032537401574803
0
LINE
8
BLACK
6
CONTINUOUS
10
0.2186080708661417
20
0.3032537401574803
11
0.2181813385826772
21
0.3038923622047244
0
LINE
8
BLACK
6
CONTINUOUS
10
0.2181813385826772
20
0.3038923622047244
11
0.2180314960629921
21
0.3046456692913386
0
LINE
8
BLACK
6
CONTINUOUS
10
0.2180314960629921
20
0.3046456692913386
11
0.2180314960629921
21
0.3646456692913386
0
LINE
8
BLACK
6
CONTINUOUS
10
0.2180314960629921
20
0.3646456692913386
11
0.2181813385826772
21
0.3653989763779528
0
LINE
8
BLACK
6
CONTINUOUS
10
0.2181813385826772
20
0.3653989763779528
11
0.2186080708661417
21
0.3660375984251968
0
LINE
8
BLACK
6
CONTINUOUS
10
0.2186080708661417
20
0.3660375984251968
11
0.2192466929133858
21
0.3664643307086614
0
LINE
8
BLACK
6
CONTINUOUS
10
0.2192466929133858
20
0.3664643307086614
11
0.22
21
0.3666141732283464
0
LINE
8
BLACK
6
CONTINUOUS
10
0.22
20
0.3666141732283464
11
0.28
21
0.3666141732283464
0
LINE
8
BLACK
6
CONTINUOUS
10
0.28
20
0.3666141732283464
11
0.2807533070866142
21
0.3664643307086614
0
LINE
8
BLACK
6
CONTINUOUS
10
1.7807533070866142
20
0.3664643307086614
11
1.7813919291338582
21
0.3660375984251968
0
LINE
8
BLACK
6
CONTINUOUS
10
1.7813919291338582
20
0.3660375984251968
11
1.7818186614173228
21
0.3653989763779528
0
LINE
8
BLACK
6
CONTINUOUS
10
1.7818186614173228
20
0.3653989763779528
11
1.7819685039370079
21
0.3646456692913386
0
LINE
8
BLACK
6
CONTINUOUS
10
1.7819685039370079
20
0.3646456692913386
11
1.7819685039370079
21
0.3046456692913386
0
LINE
8
BLACK
6
CONTINUOUS
10
1.7819685039370079
20
0.3046456692913386
11
1.7818186614173228
21
0.3038923622047244
0
LINE
8
BLACK
6
CONTINUOUS
10
1.7818186614173228
20
0.3038923622047244
11
1.7813919291338582
21
0.3032537401574803
0
LINE
8
BLACK
6
CONTINUOUS
10
1.7813919291338582
20
0.3032537401574803
11
1.7807533070866142
21
0.3028270078740157
0
LINE
8
BLACK
6
CONTINUOUS
10
1.7807533070866142
20
0.3028270078740157
11
1.78
21
0.3026771653543307
0
LINE
8
BLACK
6
CONTINUOUS
10
1.78
20
0.3026771653543307
11
1.72
21
0.3026771653543307
0
LINE
8
BLACK
6
CONTINUOUS
10
1.72
20
0.3026771653543307
11
1.7192466929133858
21
0.3028270078740157
0
LINE
8
BLACK
6
CONTINUOUS
10
1.7192466929133858
20
0.3028270078740157
11
1.7186080708661418
21
0.3032537401574803
0
LINE
8
BLACK
6
CONTINUOUS
10
1.7186080708661418
20
0.3032537401574803
11
1.7181813385826772
21
0.3038923622047244
0
LINE
8
BLACK
6
CONTINUOUS
10
1.7181813385826772
20
0.3038923622047244
11
1.7180314960629921
21
0.3046456692913386
0
LINE
8
BLACK
6
CONTINUOUS
10
1.7180314960629921
20
0.3046456692913386
11
1.7180314960629921
21
0.3646456692913386
0
LINE
8
BLACK
6
CONTINUOUS
10
1.7180314960629921
20
0.3646456692913386
11
1.7181813385826772
21
0.3653989763779528
0
LINE
8
BLACK
6
CONTINUOUS
10
1.7181813385826772
20
0.3653989763779528
11
1.7186080708661418
21
0.3660375984251968
0
LINE
8
BLACK
6
CONTINUOUS
10
1.7186080708661418
20
0.3660375984251968
11
1.7192466929133858
21
0.3664643307086614
0
LINE
8
BLACK
6
CONTINUOUS
10
1.7192466929133858
20
0.3664643307086614
11
1.72
21
0.3666141732283464
0
LINE
8
BLACK
6
CONTINUOUS
10
1.72
20
0.3666141732283464
11
1.78
21
0.3666141732283464
0
LINE
8
BLACK
6
CONTINUOUS
10
1.78
20
0.3666141732283464
11
1.7807533070866142
21
0.3664643307086614
0
LINE
8
BLACK
6
CONTINUOUS
10
1.880753307086614
20
0.3664643307086614
11
1.8813919291338583
21
0.3660375984251968
0
LINE
8
BLACK
6
CONTINUOUS
10
1.8813919291338583
20
0.3660375984251968
11
1.8818186614173229
21
0.3653989763779528
0
LINE
8
BLACK
6
CONTINUOUS
10
1.8818186614173229
20
0.3653989763779528
11
1.8819685039370078
21
0.3646456692913386
0
LINE
8
BLACK
6
CONTINUOUS
10
1.8819685039370078
20
0.3646456692913386
11
1.8819685039370078
21
0.3046456692913386
0
LINE
8
BLACK
6
CONTINUOUS
10
1.8819685039370078
20
0.3046456692913386
11
1.8818186614173229
21
0.3038923622047244
0
LINE
8
BLACK
6
CONTINUOUS
10
1.8818186614173229
20
0.3038923622047244
11
1.8813919291338583
21
0.3032537401574803
0
LINE
8
BLACK
6
CONTINUOUS
10
1.8813919291338583
20
0.3032537401574803
11
1.880753307086614
21
0.3028270078740157
0
LINE
8
BLACK
6
CONTINUOUS
10
1.880753307086614
20
0.3028270078740157
11
1.8799999999999999
21
0.3026771653543307
0
LINE
8
BLACK
6
CONTINUOUS
10
1.8799999999999999
20
0.3026771653543307
11
1.8200000000000001
21
0.3026771653543307
0
LINE
8
BLACK
6
CONTINUOUS
10
1.8200000000000001
20
0.3026771653543307
11
1.8192466929133857
21
0.3028270078740157
0
LINE
8
BLACK
6
CONTINUOUS
10
1.8192466929133857
20
0.3028270078740157
11
1.8186080708661416
21
0.3032537401574803
0
LINE
8
BLACK
6
CONTINUOUS
10
1.8186080708661416
20
0.3032537401574803
11
1.8181813385826771
21
0.3038923622047244
0
LINE
8
BLACK
6
CONTINUOUS
10
1.8181813385826771
20
0.3038923622047244
11
1.8180314960629922
21
0.3046456692913386
0
LINE
8
BLACK
6
CONTINUOUS
10
1.8180314960629922
20
0.3046456692913386
11
1.8180314960629922
21
0.3646456692913386
0
LINE
8
BLACK
6
CONTINUOUS
10
1.8180314960629922
20
0.3646456692913386
11
1.8181813385826771
21
0.3653989763779528
0
LINE
8
BLACK
6
CONTINUOUS
10
1.8181813385826771
20
0.3653989763779528
11
1.8186080708661416
21
0.3660375984251968
0
LINE
8
BLACK
6
CONTINUOUS
10
1.8186080708661416
20
0.3660375984251968
11
1.8192466929133857
21
0.3664643307086614
0
LINE
8
BLACK
6
CONTINUOUS
10
1.8192466929133857
20
0.3664643307086614
11
1.8200000000000001
21
0.3666141732283464
0
LINE
8
BLACK
6
CONTINUOUS
10
1.8200000000000001
20
0.3666141732283464
11
1.8799999999999999
21
0.3666141732283464
0
LINE
8
BLACK
6
CONTINUOUS
10
1.8799999999999999
20
0.3666141732283464
11
1.880753307086614
21
0.3664643307086614
0
LINE
8
BLACK
6
CONTINUOUS
10
1.9807533070866141
20
0.3664643307086614
11
1.9813919291338582
21
0.3660375984251968
0
LINE
8
BLACK
6
CONTINUOUS
10
1.9813919291338582
20
0.3660375984251968
11
1.9818186614173228
21
0.3653989763779528
0
LINE
8
BLACK
6
CONTINUOUS
10
1.9818186614173228
20
0.3653989763779528
11
1.9819685039370079
21
0.3646456692913386
0
LINE
8
BLACK
6
CONTINUOUS
10
1.9819685039370079
20
0.3646456692913386
11
1.9819685039370079
21
0.3046456692913386
0
LINE
8
BLACK
6
CONTINUOUS
10
1.9819685039370079
20
0.3046456692913386
11
1.9818186614173228
21
0.3038923622047244
0
LINE
8
BLACK
6
CONTINUOUS
10
1.9818186614173228
20
0.3038923622047244
11
1.9813919291338582
21
0.3032537401574803
0
LINE
8
BLACK
6
CONTINUOUS
10
1.9813919291338582
20
0.3032537401574803
11
1.9807533070866141
21
0.3028270078740157
0
LINE
8
BLACK
6
CONTINUOUS
10
1.9807533070866141
20
0.3028270078740157
11
1.98
21
0.3026771653543307
0
LINE
8
BLACK
6
CONTINUOUS
10
1.98
20
0.3026771653543307
11
1.9199999999999999
21
0.3026771653543307
0
LINE
8
BLACK
6
CONTINUOUS
10
1.9199999999999999
20
0.3026771653543307
11
1.9192466929133858
21
0.3028270078740157
0
LINE
8
BLACK
6
CONTINUOUS
10
1.9192466929133858
20
0.3028270078740157
11
1.9186080708661417
21
0.3032537401574803
0
LINE
8
BLACK
6
CONTINUOUS
10
1.9186080708661417
20
0.3032537401574803
11
1.9181813385826771
21
0.3038923622047244
0
LINE
8
BLACK
6
CONTINUOUS
10
1.9181813385826771
20
0.3038923622047244
11
1.9180314960629921
21
0.3046456692913386
0
LINE
8
BLACK
6
CONTINUOUS
10
1.9180314960629921
20
0.3046456692913386
11
1.9180314960629921
21
0.3646456692913386
0
LINE
8
BLACK
6
CONTINUOUS
10
1.9180314960629921
20
0.3646456692913386
11
1.9181813385826771
21
0.3653989763779528
0
LINE
8
BLACK
6
CONTINUOUS
10
1.9181813385826771
20
0.3653989763779528
11
1.9186080708661417
21
0.3660375984251968
0
LINE
8
BLACK
6
CONTINUOUS
10
1.9186080708661417
20
0.3660375984251968
11
1.9192466929133858
21
0.3664643307086614
0
LINE
8
BLACK
6
CONTINUOUS
10
1.9192466929133858
20
0.3664643307086614
11
1.9199999999999999
21
0.3666141732283464
0
LINE
8
BLACK
6
CONTINUOUS
10
1.9199999999999999
20
0.3666141732283464
11
1.98
21
0.3666141732283464
0
LINE
8
BLACK
6
CONTINUOUS
10
1.98
20
0.3666141732283464
11
1.9807533070866141
21
0.3664643307086614
0
LINE
8
BLACK
6
CONTINUOUS
10
0.0803596062992126
20
2.0515037007874017
11
0.0809982283464567
21
2.0510769685039372
0
LINE
8
BLACK
6
CONTINUOUS
10
0.0809982283464567
20
2.0510769685039372
11
0.0814249606299213
21
2.0504383464566929
0
LINE
8
BLACK
6
CONTINUOUS
10
0.0814249606299213
20
2.0504383464566929
11
0.0815748031496063
21
2.0496850393700785
0
LINE
8
BLACK
6
CONTINUOUS
10
0.0815748031496063
20
2.0496850393700785
11
0.0815748031496063
21
1.9896850393700787
0
LINE
8
BLACK
6
CONTINUOUS
10
0.0815748031496063
20
1.9896850393700787
11
0.0814249606299213
21
1.9889317322834645
0
LINE
8
BLACK
6
CONTINUOUS
10
0.0814249606299213
20
1.9889317322834645
11
0.0809982283464567
21
1.9882931102362205
0
LINE
8
BLACK
6
CONTINUOUS
10
0.0809982283464567
20
1.9882931102362205
11
0.0803596062992126
21
1.9878663779527559
0
LINE
8
BLACK
6
CONTINUOUS
10
0.0803596062992126
20
1.9878663779527559
11
0.0796062992125984
21
1.9877165354330708
0
LINE
8
BLACK
6
CONTINUOUS
10
0.0796062992125984
20
1.9877165354330708
11
0.0196062992125984
21
1.9877165354330708
0
LINE
8
BLACK
6
CONTINUOUS
10
0.0196062992125984
20
1.9877165354330708
11
0.0188529921259843
21
1.9878663779527559
0
LINE
8
BLACK
6
CONTINUOUS
10
0.0188529921259843
20
1.9878663779527559
11
0.0182143700787402
21
1.9882931102362205
0
LINE
8
BLACK
6
CONTINUOUS
10
0.0182143700787402
20
1.9882931102362205
11
0.0177876377952756
21
1.9889317322834645
0
LINE
8
BLACK
6
CONTINUOUS
10
0.0177876377952756
20
1.9889317322834645
11
0.0176377952755906
21
1.9896850393700787
0
LINE
8
BLACK
6
CONTINUOUS
10
0.0176377952755906
20
1.9896850393700787
11
0.0176377952755906
21
2.0496850393700785
0
LINE
8
BLACK
6
CONTINUOUS
10
0.0176377952755906
20
2.0496850393700785
11
0.0177876377952756
21
2.0504383464566929
0
LINE
8
BLACK
6
CONTINUOUS
10
0.0177876377952756
20
2.0504383464566929
11
0.0182143700787402
21
2.0510769685039372
0
LINE
8
BLACK
6
CONTINUOUS
10
0.0182143700787402
20
2.0510769685039372
11
0.0188529921259843
21
2.0515037007874017
0
LINE
8
BLACK
6
CONTINUOUS
10
0.0188529921259843
20
2.0515037007874017
11
0.0196062992125984
21
2.0516535433070864
0
LINE
8
BLACK
6
CONTINUOUS
10
0.0196062992125984
20
2.0516535433070864
11
0.0796062992125984
21
2.0516535433070864
0
LINE
8
BLACK
6
CONTINUOUS
10
0.0796062992125984
20
2.0516535433070864
11
0.0803596062992126
21
2.0515037007874017
0
LINE
8
BLACK
6
CONTINUOUS
10
0.1803596062992126
20
2.0515037007874017
11
0.1809982283464567
21
2.0510769685039372
0
LINE
8
BLACK
6
CONTINUOUS
10
0.1809982283464567
20
2.0510769685039372
11
0.1814249606299213
21
2.0504383464566929
0
LINE
8
BLACK
6
CONTINUOUS
10
0.1814249606299213
20
2.0504383464566929
11
0.1815748031496063
21
2.0496850393700785
0
LINE
8
BLACK
6
CONTINUOUS
10
0.1815748031496063
20
2.0496850393700785
11
0.1815748031496063
21
1.9896850393700787
0
LINE
8
BLACK
6
CONTINUOUS
10
0.1815748031496063
20
1.9896850393700787
11
0.1814249606299213
21
1.9889317322834645
0
LINE
8
BLACK
6
CONTINUOUS
10
0.1814249606299213
20
1.9889317322834645
11
0.1809982283464567
21
1.9882931102362205
0
LINE
8
BLACK
6
CONTINUOUS
10
0.1809982283464567
20
1.9882931102362205
11
0.1803596062992126
21
1.9878663779527559
0
LINE
8
BLACK
6
CONTINUOUS
10
0.1803596062992126
20
1.9878663779527559
11
0.1796062992125984
21
1.9877165354330708
0
LINE
8
BLACK
6
CONTINUOUS
10
0.1796062992125984
20
1.9877165354330708
11
0.1196062992125984
21
1.9877165354330708
0
LINE
8
BLACK
6
CONTINUOUS
10
0.1196062992125984
20
1.9877165354330708
11
0.1188529921259843
21
1.9878663779527559
0
LINE
8
BLACK
6
CONTINUOUS
10
0.1188529921259843
20
1.9878663779527559
11
0.1182143700787402
21
1.9882931102362205
0
LINE
8
BLACK
6
CONTINUOUS
10
0.1182143700787402
20
1.9882931102362205
11
0.1177876377952756
21
1.9889317322834645
0
LINE
8
BLACK
6
CONTINUOUS
10
0.1177876377952756
20
1.9889317322834645
11
0.1176377952755906
21
1.9896850393700787
0
LINE
8
BLACK
6
CONTINUOUS
10
0.1176377952755906
20
1.9896850393700787
11
0.1176377952755906
21
2.0496850393700785
0
LINE
8
BLACK
6
CONTINUOUS
10
0.1176377952755906
20
2.0496850393700785
11
0.1177876377952756
21
2.0504383464566929
0
LINE
8
BLACK
6
CONTINUOUS
10
0.1177876377952756
20
2.0504383464566929
11
0.1182143700787402
21
2.0510769685039372
0
LINE
8
BLACK
6
CONTINUOUS
10
0.1182143700787402
20
2.0510769685039372
11
0.1188529921259843
21
2.0515037007874017
0
LINE
8
BLACK
6
CONTINUOUS
10
0.1188529921259843
20
2.0515037007874017
11
0.1196062992125984
21
2.0516535433070864
0
LINE
8
BLACK
6
CONTINUOUS
10
0.1196062992125984
20
2.0516535433070864
11
0.1796062992125984
21
2.0516535433070864
0
LINE
8
BLACK
6
CONTINUOUS
10
0.1796062992125984
20
2.0516535433070864
11
0.1803596062992126
21
2.0515037007874017
0
LINE
8
BLACK
6
CONTINUOUS
10
0.2803596062992126
20
2.0515037007874017
11
0.2809982283464567
21
2.0510769685039372
0
LINE
8
BLACK
6
CONTINUOUS
10
0.2809982283464567
20
2.0510769685039372
11
0.2814249606299212
21
2.0504383464566929
0
LINE
8
BLACK
6
CONTINUOUS
10
0.2814249606299212
20
2.0504383464566929
11
0.2815748031496063
21
2.0496850393700785
0
LINE
8
BLACK
6
CONTINUOUS
10
0.2815748031496063
20
2.0496850393700785
11
0.2815748031496063
21
1.9896850393700787
0
LINE
8
BLACK
6
CONTINUOUS
10
0.2815748031496063
20
1.9896850393700787
11
0.2814249606299212
21
1.9889317322834645
0
LINE
8
BLACK
6
CONTINUOUS
10
0.2814249606299212
20
1.9889317322834645
11
0.2809982283464567
21
1.9882931102362205
0
LINE
8
BLACK
6
CONTINUOUS
10
0.2809982283464567
20
1.9882931102362205
11
0.2803596062992126
21
1.9878663779527559
0
LINE
8
BLACK
6
CONTINUOUS
10
0.2803596062992126
20
1.9878663779527559
11
0.2796062992125984
21
1.9877165354330708
0
LINE
8
BLACK
6
CONTINUOUS
10
0.2796062992125984
20
1.9877165354330708
11
0.2196062992125984
21
1.9877165354330708
0
LINE
8
BLACK
6
CONTINUOUS
10
0.2196062992125984
20
1.9877165354330708
11
0.2188529921259842
21
1.9878663779527559
0
LINE
8
BLACK
6
CONTINUOUS
10
0.2188529921259842
20
1.9878663779527559
11
0.2182143700787401
21
1.9882931102362205
0
LINE
8
BLACK
6
CONTINUOUS
10
0.2182143700787401
20
1.9882931102362205
11
0.2177876377952756
21
1.9889317322834645
0
LINE
8
BLACK
6
CONTINUOUS
10
0.2177876377952756
20
1.9889317322834645
11
0.2176377952755905
21
1.9896850393700787
0
LINE
8
BLACK
6
CONTINUOUS
10
0.2176377952755905
20
1.9896850393700787
11
0.2176377952755905
21
2.0496850393700785
0
LINE
8
BLACK
6
CONTINUOUS
10
0.2176377952755905
20
2.0496850393700785
11
0.2177876377952756
21
2.0504383464566929
0
LINE
8
BLACK
6
CONTINUOUS
10
0.2177876377952756
20
2.0504383464566929
11
0.2182143700787401
21
2.0510769685039372
0
LINE
8
BLACK
6
CONTINUOUS
10
0.2182143700787401
20
2.0510769685039372
11
0.2188529921259842
21
2.0515037007874017
0
LINE
8
BLACK
6
CONTINUOUS
10
0.2188529921259842
20
2.0515037007874017
11
0.2196062992125984
21
2.0516535433070864
0
LINE
8
BLACK
6
CONTINUOUS
10
0.2196062992125984
20
2.0516535433070864
11
0.2796062992125984
21
2.0516535433070864
0
LINE
8
BLACK
6
CONTINUOUS
10
0.2796062992125984
20
2.0516535433070864
11
0.2803596062992126
21
2.0515037007874017
0
LINE
8
BLACK
6
CONTINUOUS
10
0.3803596062992126
20
2.0515037007874017
11
0.3809982283464567
21
2.0510769685039372
0
LINE
8
BLACK
6
CONTINUOUS
10
0.3809982283464567
20
2.0510769685039372
11
0.3814249606299213
21
2.0504383464566929
0
LINE
8
BLACK
6
CONTINUOUS
10
0.3814249606299213
20
2.0504383464566929
11
0.3815748031496063
21
2.0496850393700785
0
LINE
8
BLACK
6
CONTINUOUS
10
0.3815748031496063
20
2.0496850393700785
11
0.3815748031496063
21
1.9896850393700787
0
LINE
8
BLACK
6
CONTINUOUS
10
0.3815748031496063
20
1.9896850393700787
11
0.3814249606299213
21
1.9889317322834645
0
LINE
8
BLACK
6
CONTINUOUS
10
0.3814249606299213
20
1.9889317322834645
11
0.3809982283464567
21
1.9882931102362205
0
LINE
8
BLACK
6
CONTINUOUS
10
0.3809982283464567
20
1.9882931102362205
11
0.3803596062992126
21
1.9878663779527559
0
LINE
8
BLACK
6
CONTINUOUS
10
0.3803596062992126
20
1.9878663779527559
11
0.3796062992125984
21
1.9877165354330708
0
LINE
8
BLACK
6
CONTINUOUS
10
0.3796062992125984
20
1.9877165354330708
11
0.3196062992125984
21
1.9877165354330708
0
LINE
8
BLACK
6
CONTINUOUS
10
0.3196062992125984
20
1.9877165354330708
11
0.3188529921259842
21
1.9878663779527559
0
LINE
8
BLACK
6
CONTINUOUS
10
0.3188529921259842
20
1.9878663779527559
11
0.3182143700787401
21
1.9882931102362205
0
LINE
8
BLACK
6
CONTINUOUS
10
0.3182143700787401
20
1.9882931102362205
11
0.3177876377952756
21
1.9889317322834645
0
LINE
8
BLACK
6
CONTINUOUS
10
0.3177876377952756
20
1.9889317322834645
11
0.3176377952755906
21
1.9896850393700787
0
LINE
8
BLACK
6
CONTINUOUS
10
0.3176377952755906
20
1.9896850393700787
11
0.3176377952755906
21
2.0496850393700785
0
LINE
8
BLACK
6
CONTINUOUS
10
0.3176377952755906
20
2.0496850393700785
11
0.3177876377952756
21
2.0504383464566929
0
LINE
8
BLACK
6
CONTINUOUS
10
0.3177876377952756
20
2.0504383464566929
11
0.3182143700787401
21
2.0510769685039372
0
LINE
8
BLACK
6
CONTINUOUS
10
0.3182143700787401
20
2.0510769685039372
11
0.3188529921259842
21
2.0515037007874017
0
LINE
8
BLACK
6
CONTINUOUS
10
0.3188529921259842
20
2.0515037007874017
11
0.3196062992125984
21
2.0516535433070864
0
LINE
8
BLACK
6
CONTINUOUS
10
0.3196062992125984
20
2.0516535433070864
11
0.3796062992125984
21
2.0516535433070864
0
LINE
8
BLACK
6
CONTINUOUS
10
0.3796062992125984
20
2.0516535433070864
11
0.3803596062992126
21
2.0515037007874017
0
LINE
8
BLACK
6
CONTINUOUS
10
0.4803596062992126
20
2.0515037007874017
11
0.4809982283464567
21
2.0510769685039372
0
LINE
8
BLACK
6
CONTINUOUS
10
0.4809982283464567
20
2.0510769685039372
11
0.4814249606299212
21
2.0504383464566929
0
LINE
8
BLACK
6
CONTINUOUS
10
0.4814249606299212
20
2.0504383464566929
11
0.4815748031496063
21
2.0496850393700785
0
LINE
8
BLACK
6
CONTINUOUS
10
0.4815748031496063
20
2.0496850393700785
11
0.4815748031496063
21
1.9896850393700787
0
LINE
8
BLACK
6
CONTINUOUS
10
0.4815748031496063
20
1.9896850393700787
11
0.4814249606299212
21
1.9889317322834645
0
LINE
8
BLACK
6
CONTINUOUS
10
0.4814249606299212
20
1.9889317322834645
11
0.4809982283464567
21
1.9882931102362205
0
LINE
8
BLACK
6
CONTINUOUS
10
0.4809982283464567
20
1.9882931102362205
11
0.4803596062992126
21
1.9878663779527559
0
LINE
8
BLACK
6
CONTINUOUS
10
0.4803596062992126
20
1.9878663779527559
11
0.4796062992125984
21
1.9877165354330708
0
LINE
8
BLACK
6
CONTINUOUS
10
0.4796062992125984
20
1.9877165354330708
11
0.4196062992125984
21
1.9877165354330708
0
LINE
8
BLACK
6
CONTINUOUS
10
0.4196062992125984
20
1.9877165354330708
11
0.4188529921259843
21
1.9878663779527559
0
LINE
8
BLACK
6
CONTINUOUS
10
0.4188529921259843
20
1.9878663779527559
11
0.4182143700787401
21
1.9882931102362205
0
LINE
8
BLACK
6
CONTINUOUS
10
0.4182143700787401
20
1.9882931102362205
11
0.4177876377952756
21
1.9889317322834645
0
LINE
8
BLACK
6
CONTINUOUS
10
0.4177876377952756
20
1.9889317322834645
11
0.4176377952755905
21
1.9896850393700787
0
LINE
8
BLACK
6
CONTINUOUS
10
0.4176377952755905
20
1.9896850393700787
11
0.4176377952755905
21
2.0496850393700785
0
LINE
8
BLACK
6
CONTINUOUS
10
0.4176377952755905
20
2.0496850393700785
11
0.4177876377952756
21
2.0504383464566929
0
LINE
8
BLACK
6
CONTINUOUS
10
0.4177876377952756
20
2.0504383464566929
11
0.4182143700787401
21
2.0510769685039372
0
LINE
8
BLACK
6
CONTINUOUS
10
0.4182143700787401
20
2.0510769685039372
11
0.4188529921259843
21
2.0515037007874017
0
LINE
8
BLACK
6
CONTINUOUS
10
0.4188529921259843
20
2.0515037007874017
11
0.4196062992125984
21
2.0516535433070864
0
LINE
8
BLACK
6
CONTINUOUS
10
0.4196062992125984
20
2.0516535433070864
11
0.4796062992125984
21
2.0516535433070864
0
LINE
8
BLACK
6
CONTINUOUS
10
0.4796062992125984
20
2.0516535433070864
11
0.4803596062992126
21
2.0515037007874017
0
LINE
8
BLACK
6
CONTINUOUS
10
0.5803596062992126
20
2.0515037007874017
11
0.5809982283464566
21
2.0510769685039372
0
LINE
8
BLACK
6
CONTINUOUS
10
0.5809982283464566
20
2.0510769685039372
11
0.5814249606299212
21
2.0504383464566929
0
LINE
8
BLACK
6
CONTINUOUS
10
0.5814249606299212
20
2.0504383464566929
11
0.5815748031496063
21
2.0496850393700785
0
LINE
8
BLACK
6
CONTINUOUS
10
0.5815748031496063
20
2.0496850393700785
11
0.5815748031496063
21
1.9896850393700787
0
LINE
8
BLACK
6
CONTINUOUS
10
0.5815748031496063
20
1.9896850393700787
11
0.5814249606299212
21
1.9889317322834645
0
LINE
8
BLACK
6
CONTINUOUS
10
0.5814249606299212
20
1.9889317322834645
11
0.5809982283464566
21
1.9882931102362205
0
LINE
8
BLACK
6
CONTINUOUS
10
0.5809982283464566
20
1.9882931102362205
11
0.5803596062992126
21
1.9878663779527559
0
LINE
8
BLACK
6
CONTINUOUS
10
0.5803596062992126
20
1.9878663779527559
11
0.5796062992125984
21
1.9877165354330708
0
LINE
8
BLACK
6
CONTINUOUS
10
0.5796062992125984
20
1.9877165354330708
11
0.5196062992125984
21
1.9877165354330708
0
LINE
8
BLACK
6
CONTINUOUS
10
0.5196062992125984
20
1.9877165354330708
11
0.5188529921259842
21
1.9878663779527559
0
LINE
8
BLACK
6
CONTINUOUS
10
0.5188529921259842
20
1.9878663779527559
11
0.5182143700787402
21
1.9882931102362205
0
LINE
8
BLACK
6
CONTINUOUS
10
0.5182143700787402
20
1.9882931102362205
11
0.5177876377952756
21
1.9889317322834645
0
LINE
8
BLACK
6
CONTINUOUS
10
0.5177876377952756
20
1.9889317322834645
11
0.5176377952755905
21
1.9896850393700787
0
LINE
8
BLACK
6
CONTINUOUS
10
0.5176377952755905
20
1.9896850393700787
11
0.5176377952755905
21
2.0496850393700785
0
LINE
8
BLACK
6
CONTINUOUS
10
0.5176377952755905
20
2.0496850393700785
11
0.5177876377952756
21
2.0504383464566929
0
LINE
8
BLACK
6
CONTINUOUS
10
0.5177876377952756
20
2.0504383464566929
11
0.5182143700787402
21
2.0510769685039372
0
LINE
8
BLACK
6
CONTINUOUS
10
0.5182143700787402
20
2.0510769685039372
11
0.5188529921259842
21
2.0515037007874017
0
LINE
8
BLACK
6
CONTINUOUS
10
0.5188529921259842
20
2.0515037007874017
11
0.5196062992125984
21
2.0516535433070864
0
LINE
8
BLACK
6
CONTINUOUS
10
0.5196062992125984
20
2.0516535433070864
11
0.5796062992125984
21
2.0516535433070864
0
LINE
8
BLACK
6
CONTINUOUS
10
0.5796062992125984
20
2.0516535433070864
11
0.5803596062992126
21
2.0515037007874017
0
LINE
8
BLACK
6
CONTINUOUS
10
0.6803596062992125
20
2.0515037007874017
11
0.6809982283464566
21
2.0510769685039372
0
LINE
8
BLACK
6
CONTINUOUS
10
0.6809982283464566
20
2.0510769685039372
11
0.6814249606299212
21
2.0504383464566929
0
LINE
8
BLACK
6
CONTINUOUS
10
0.6814249606299212
20
2.0504383464566929
11
0.6815748031496063
21
2.0496850393700785
0
LINE
8
BLACK
6
CONTINUOUS
10
0.6815748031496063
20
2.0496850393700785
11
0.6815748031496063
21
1.9896850393700787
0
LINE
8
BLACK
6
CONTINUOUS
10
0.6815748031496063
20
1.9896850393700787
11
0.6814249606299212
21
1.9889317322834645
0
LINE
8
BLACK
6
CONTINUOUS
10
0.6814249606299212
20
1.9889317322834645
11
0.6809982283464566
21
1.9882931102362205
0
LINE
8
BLACK
6
CONTINUOUS
10
0.6809982283464566
20
1.9882931102362205
11
0.6803596062992125
21
1.9878663779527559
0
LINE
8
BLACK
6
CONTINUOUS
10
0.6803596062992125
20
1.9878663779527559
11
0.6796062992125984
21
1.9877165354330708
0
LINE
8
BLACK
6
CONTINUOUS
10
0.6796062992125984
20
1.9877165354330708
11
0.6196062992125985
21
1.9877165354330708
0
LINE
8
BLACK
6
CONTINUOUS
10
0.6196062992125985
20
1.9877165354330708
11
0.6188529921259842
21
1.9878663779527559
0
LINE
8
BLACK
6
CONTINUOUS
10
0.6188529921259842
20
1.9878663779527559
11
0.6182143700787401
21
1.9882931102362205
0
LINE
8
BLACK
6
CONTINUOUS
10
0.6182143700787401
20
1.9882931102362205
11
0.6177876377952756
21
1.9889317322834645
0
LINE
8
BLACK
6
CONTINUOUS
10
0.6177876377952756
20
1.9889317322834645
11
0.6176377952755905
21
1.9896850393700787
0
LINE
8
BLACK
6
CONTINUOUS
10
0.6176377952755905
20
1.9896850393700787
11
0.6176377952755905
21
2.0496850393700785
0
LINE
8
BLACK
6
CONTINUOUS
10
0.6176377952755905
20
2.0496850393700785
11
0.6177876377952756
21
2.0504383464566929
0
LINE
8
BLACK
6
CONTINUOUS
10
0.6177876377952756
20
2.0504383464566929
11
0.6182143700787401
21
2.0510769685039372
0
LINE
8
BLACK
6
CONTINUOUS
10
0.6182143700787401
20
2.0510769685039372
11
0.6188529921259842
21
2.0515037007874017
0
LINE
8
BLACK
6
CONTINUOUS
10
0.6188529921259842
20
2.0515037007874017
11
0.6196062992125985
21
2.0516535433070864
0
LINE
8
BLACK
6
CONTINUOUS
10
0.6196062992125985
20
2.0516535433070864
11
0.6796062992125984
21
2.0516535433070864
0
LINE
8
BLACK
6
CONTINUOUS
10
0.6796062992125984
20
2.0516535433070864
11
0.6803596062992125
21
2.0515037007874017
0
LINE
8
BLACK
6
CONTINUOUS
10
0.7803596062992125
20
2.0515037007874017
11
0.7809982283464567
21
2.0510769685039372
0
LINE
8
BLACK
6
CONTINUOUS
10
0.7809982283464567
20
2.0510769685039372
11
0.7814249606299213
21
2.0504383464566929
0
LINE
8
BLACK
6
CONTINUOUS
10
0.7814249606299213
20
2.0504383464566929
11
0.7815748031496063
21
2.0496850393700785
0
LINE
8
BLACK
6
CONTINUOUS
10
0.7815748031496063
20
2.0496850393700785
11
0.7815748031496063
21
1.9896850393700787
0
LINE
8
BLACK
6
CONTINUOUS
10
0.7815748031496063
20
1.9896850393700787
11
0.7814249606299213
21
1.9889317322834645
0
LINE
8
BLACK
6
CONTINUOUS
10
0.7814249606299213
20
1.9889317322834645
11
0.7809982283464567
21
1.9882931102362205
0
LINE
8
BLACK
6
CONTINUOUS
10
0.7809982283464567
20
1.9882931102362205
11
0.7803596062992125
21
1.9878663779527559
0
LINE
8
BLACK
6
CONTINUOUS
10
0.7803596062992125
20
1.9878663779527559
11
0.7796062992125984
21
1.9877165354330708
0
LINE
8
BLACK
6
CONTINUOUS
10
0.7796062992125984
20
1.9877165354330708
11
0.7196062992125984
21
1.9877165354330708
0
LINE
8
BLACK
6
CONTINUOUS
10
0.7196062992125984
20
1.9877165354330708
11
0.7188529921259842
21
1.9878663779527559
0
LINE
8
BLACK
6
CONTINUOUS
10
0.7188529921259842
20
1.9878663779527559
11
0.7182143700787401
21
1.9882931102362205
0
LINE
8
BLACK
6
CONTINUOUS
10
0.7182143700787401
20
1.9882931102362205
11
0.7177876377952755
21
1.9889317322834645
0
LINE
8
BLACK
6
CONTINUOUS
10
0.7177876377952755
20
1.9889317322834645
11
0.7176377952755906
21
1.9896850393700787
0
LINE
8
BLACK
6
CONTINUOUS
10
0.7176377952755906
20
1.9896850393700787
11
0.7176377952755906
21
2.0496850393700785
0
LINE
8
BLACK
6
CONTINUOUS
10
0.7176377952755906
20
2.0496850393700785
11
0.7177876377952755
21
2.0504383464566929
0
LINE
8
BLACK
6
CONTINUOUS
10
0.7177876377952755
20
2.0504383464566929
11
0.7182143700787401
21
2.0510769685039372
0
LINE
8
BLACK
6
CONTINUOUS
10
0.7182143700787401
20
2.0510769685039372
11
0.7188529921259842
21
2.0515037007874017
0
LINE
8
BLACK
6
CONTINUOUS
10
0.7188529921259842
20
2.0515037007874017
11
0.7196062992125984
21
2.0516535433070864
0
LINE
8
BLACK
6
CONTINUOUS
10
0.7196062992125984
20
2.0516535433070864
11
0.7796062992125984
21
2.0516535433070864
0
LINE
8
BLACK
6
CONTINUOUS
10
0.7796062992125984
20
2.0516535433070864
11
0.7803596062992125
21
2.0515037007874017
0
LINE
8
BLACK
6
CONTINUOUS
10
0.8803596062992126
20
2.0515037007874017
11
0.8809982283464567
21
2.0510769685039372
0
LINE
8
BLACK
6
CONTINUOUS
10
0.8809982283464567
20
2.0510769685039372
11
0.8814249606299213
21
2.0504383464566929
0
LINE
8
BLACK
6
CONTINUOUS
10
0.8814249606299213
20
2.0504383464566929
11
0.8815748031496062
21
2.0496850393700785
0
LINE
8
BLACK
6
CONTINUOUS
10
0.8815748031496062
20
2.0496850393700785
11
0.8815748031496062
21
1.9896850393700787
0
LINE
8
BLACK
6
CONTINUOUS
10
0.8815748031496062
20
1.9896850393700787
11
0.8814249606299213
21
1.9889317322834645
0
LINE
8
BLACK
6
CONTINUOUS
10
0.8814249606299213
20
1.9889317322834645
11
0.8809982283464567
21
1.9882931102362205
0
LINE
8
BLACK
6
CONTINUOUS
10
0.8809982283464567
20
1.9882931102362205
11
0.8803596062992126
21
1.9878663779527559
0
LINE
8
BLACK
6
CONTINUOUS
10
0.8803596062992126
20
1.9878663779527559
11
0.8796062992125984
21
1.9877165354330708
0
LINE
8
BLACK
6
CONTINUOUS
10
0.8796062992125984
20
1.9877165354330708
11
0.8196062992125984
21
1.9877165354330708
0
LINE
8
BLACK
6
CONTINUOUS
10
0.8196062992125984
20
1.9877165354330708
11
0.8188529921259843
21
1.9878663779527559
0
LINE
8
BLACK
6
CONTINUOUS
10
0.8188529921259843
20
1.9878663779527559
11
0.8182143700787401
21
1.9882931102362205
0
LINE
8
BLACK
6
CONTINUOUS
10
0.8182143700787401
20
1.9882931102362205
11
0.8177876377952755
21
1.9889317322834645
0
LINE
8
BLACK
6
CONTINUOUS
10
0.8177876377952755
20
1.9889317322834645
11
0.8176377952755906
21
1.9896850393700787
0
LINE
8
BLACK
6
CONTINUOUS
10
0.8176377952755906
20
1.9896850393700787
11
0.8176377952755906
21
2.0496850393700785
0
LINE
8
BLACK
6
CONTINUOUS
10
0.8176377952755906
20
2.0496850393700785
11
0.8177876377952755
21
2.0504383464566929
0
LINE
8
BLACK
6
CONTINUOUS
10
0.8177876377952755
20
2.0504383464566929
11
0.8182143700787401
21
2.0510769685039372
0
LINE
8
BLACK
6
CONTINUOUS
10
0.8182143700787401
20
2.0510769685039372
11
0.8188529921259843
21
2.0515037007874017
0
LINE
8
BLACK
6
CONTINUOUS
10
0.8188529921259843
20
2.0515037007874017
11
0.8196062992125984
21
2.0516535433070864
0
LINE
8
BLACK
6
CONTINUOUS
10
0.8196062992125984
20
2.0516535433070864
11
0.8796062992125984
21
2.0516535433070864
0
LINE
8
BLACK
6
CONTINUOUS
10
0.8796062992125984
20
2.0516535433070864
11
0.8803596062992126
21
2.0515037007874017
0
LINE
8
BLACK
6
CONTINUOUS
10
0.9803596062992126
20
2.0515037007874017
11
0.9809982283464567
21
2.0510769685039372
0
LINE
8
BLACK
6
CONTINUOUS
10
0.9809982283464567
20
2.0510769685039372
11
0.9814249606299212
21
2.0504383464566929
0
LINE
8
BLACK
6
CONTINUOUS
10
0.9814249606299212
20
2.0504383464566929
11
0.9815748031496063
21
2.0496850393700785
0
LINE
8
BLACK
6
CONTINUOUS
10
0.9815748031496063
20
2.0496850393700785
11
0.9815748031496063
21
1.9896850393700787
0
LINE
8
BLACK
6
CONTINUOUS
10
0.9815748031496063
20
1.9896850393700787
11
0.9814249606299212
21
1.9889317322834645
0
LINE
8
BLACK
6
CONTINUOUS
10
0.9814249606299212
20
1.9889317322834645
11
0.9809982283464567
21
1.9882931102362205
0
LINE
8
BLACK
6
CONTINUOUS
10
0.9809982283464567
20
1.9882931102362205
11
0.9803596062992126
21
1.9878663779527559
0
LINE
8
BLACK
6
CONTINUOUS
10
0.9803596062992126
20
1.9878663779527559
11
0.9796062992125985
21
1.9877165354330708
0
LINE
8
BLACK
6
CONTINUOUS
10
0.9796062992125985
20
1.9877165354330708
11
0.9196062992125984
21
1.9877165354330708
0
LINE
8
BLACK
6
CONTINUOUS
10
0.9196062992125984
20
1.9877165354330708
11
0.9188529921259843
21
1.9878663779527559
0
LINE
8
BLACK
6
CONTINUOUS
10
0.9188529921259843
20
1.9878663779527559
11
0.9182143700787402
21
1.9882931102362205
0
LINE
8
BLACK
6
CONTINUOUS
10
0.9182143700787402
20
1.9882931102362205
11
0.9177876377952756
21
1.9889317322834645
0
LINE
8
BLACK
6
CONTINUOUS
10
0.9177876377952756
20
1.9889317322834645
11
0.9176377952755905
21
1.9896850393700787
0
LINE
8
BLACK
6
CONTINUOUS
10
0.9176377952755905
20
1.9896850393700787
11
0.9176377952755905
21
2.0496850393700785
0
LINE
8
BLACK
6
CONTINUOUS
10
0.9176377952755905
20
2.0496850393700785
11
0.9177876377952756
21
2.0504383464566929
0
LINE
8
BLACK
6
CONTINUOUS
10
0.9177876377952756
20
2.0504383464566929
11
0.9182143700787402
21
2.0510769685039372
0
LINE
8
BLACK
6
CONTINUOUS
10
0.9182143700787402
20
2.0510769685039372
11
0.9188529921259843
21
2.0515037007874017
0
LINE
8
BLACK
6
CONTINUOUS
10
0.9188529921259843
20
2.0515037007874017
11
0.9196062992125984
21
2.0516535433070864
0
LINE
8
BLACK
6
CONTINUOUS
10
0.9196062992125984
20
2.0516535433070864
11
0.9796062992125985
21
2.0516535433070864
0
LINE
8
BLACK
6
CONTINUOUS
10
0.9796062992125985
20
2.0516535433070864
11
0.9803596062992126
21
2.0515037007874017
0
LINE
8
BLACK
6
CONTINUOUS
10
1.0803596062992127
20
2.0515037007874017
11
1.0809982283464568
21
2.0510769685039372
0
LINE
8
BLACK
6
CONTINUOUS
10
1.0809982283464568
20
2.0510769685039372
11
1.0814249606299213
21
2.0504383464566929
0
LINE
8
BLACK
6
CONTINUOUS
10
1.0814249606299213
20
2.0504383464566929
11
1.0815748031496062
21
2.0496850393700785
0
LINE
8
BLACK
6
CONTINUOUS
10
1.0815748031496062
20
2.0496850393700785
11
1.0815748031496062
21
1.9896850393700787
0
LINE
8
BLACK
6
CONTINUOUS
10
1.0815748031496062
20
1.9896850393700787
11
1.0814249606299213
21
1.9889317322834645
0
LINE
8
BLACK
6
CONTINUOUS
10
1.0814249606299213
20
1.9889317322834645
11
1.0809982283464568
21
1.9882931102362205
0
LINE
8
BLACK
6
CONTINUOUS
10
1.0809982283464568
20
1.9882931102362205
11
1.0803596062992127
21
1.9878663779527559
0
LINE
8
BLACK
6
CONTINUOUS
10
1.0803596062992127
20
1.9878663779527559
11
1.0796062992125983
21
1.9877165354330708
0
LINE
8
BLACK
6
CONTINUOUS
10
1.0796062992125983
20
1.9877165354330708
11
1.0196062992125985
21
1.9877165354330708
0
LINE
8
BLACK
6
CONTINUOUS
10
1.0196062992125985
20
1.9877165354330708
11
1.0188529921259841
21
1.9878663779527559
0
LINE
8
BLACK
6
CONTINUOUS
10
1.0188529921259841
20
1.9878663779527559
11
1.01821437007874
21
1.9882931102362205
0
LINE
8
BLACK
6
CONTINUOUS
10
1.01821437007874
20
1.9882931102362205
11
1.0177876377952755
21
1.9889317322834645
0
LINE
8
BLACK
6
CONTINUOUS
10
1.0177876377952755
20
1.9889317322834645
11
1.0176377952755906
21
1.9896850393700787
0
LINE
8
BLACK
6
CONTINUOUS
10
1.0176377952755906
20
1.9896850393700787
11
1.0176377952755906
21
2.0496850393700785
0
LINE
8
BLACK
6
CONTINUOUS
10
1.0176377952755906
20
2.0496850393700785
11
1.0177876377952755
21
2.0504383464566929
0
LINE
8
BLACK
6
CONTINUOUS
10
1.0177876377952755
20
2.0504383464566929
11
1.01821437007874
21
2.0510769685039372
0
LINE
8
BLACK
6
CONTINUOUS
10
1.01821437007874
20
2.0510769685039372
11
1.0188529921259841
21
2.0515037007874017
0
LINE
8
BLACK
6
CONTINUOUS
10
1.0188529921259841
20
2.0515037007874017
11
1.0196062992125985
21
2.0516535433070864
0
LINE
8
BLACK
6
CONTINUOUS
10
1.0196062992125985
20
2.0516535433070864
11
1.0796062992125983
21
2.0516535433070864
0
LINE
8
BLACK
6
CONTINUOUS
10
1.0796062992125983
20
2.0516535433070864
11
1.0803596062992127
21
2.0515037007874017
0
LINE
8
BLACK
6
CONTINUOUS
10
1.1803596062992125
20
2.0515037007874017
11
1.1809982283464566
21
2.0510769685039372
0
LINE
8
BLACK
6
CONTINUOUS
10
1.1809982283464566
20
2.0510769685039372
11
1.1814249606299212
21
2.0504383464566929
0
LINE
8
BLACK
6
CONTINUOUS
10
1.1814249606299212
20
2.0504383464566929
11
1.1815748031496063
21
2.0496850393700785
0
LINE
8
BLACK
6
CONTINUOUS
10
1.1815748031496063
20
2.0496850393700785
11
1.1815748031496063
21
1.9896850393700787
0
LINE
8
BLACK
6
CONTINUOUS
10
1.1815748031496063
20
1.9896850393700787
11
1.1814249606299212
21
1.9889317322834645
0
LINE
8
BLACK
6
CONTINUOUS
10
1.1814249606299212
20
1.9889317322834645
11
1.1809982283464566
21
1.9882931102362205
0
LINE
8
BLACK
6
CONTINUOUS
10
1.1809982283464566
20
1.9882931102362205
11
1.1803596062992125
21
1.9878663779527559
0
LINE
8
BLACK
6
CONTINUOUS
10
1.1803596062992125
20
1.9878663779527559
11
1.1796062992125984
21
1.9877165354330708
0
LINE
8
BLACK
6
CONTINUOUS
10
1.1796062992125984
20
1.9877165354330708
11
1.1196062992125984
21
1.9877165354330708
0
LINE
8
BLACK
6
CONTINUOUS
10
1.1196062992125984
20
1.9877165354330708
11
1.1188529921259842
21
1.9878663779527559
0
LINE
8
BLACK
6
CONTINUOUS
10
1.1188529921259842
20
1.9878663779527559
11
1.1182143700787401
21
1.9882931102362205
0
LINE
8
BLACK
6
CONTINUOUS
10
1.1182143700787401
20
1.9882931102362205
11
1.1177876377952756
21
1.9889317322834645
0
LINE
8
BLACK
6
CONTINUOUS
10
1.1177876377952756
20
1.9889317322834645
11
1.1176377952755905
21
1.9896850393700787
0
LINE
8
BLACK
6
CONTINUOUS
10
1.1176377952755905
20
1.9896850393700787
11
1.1176377952755905
21
2.0496850393700785
0
LINE
8
BLACK
6
CONTINUOUS
10
1.1176377952755905
20
2.0496850393700785
11
1.1177876377952756
21
2.0504383464566929
0
LINE
8
BLACK
6
CONTINUOUS
10
1.1177876377952756
20
2.0504383464566929
11
1.1182143700787401
21
2.0510769685039372
0
LINE
8
BLACK
6
CONTINUOUS
10
1.1182143700787401
20
2.0510769685039372
11
1.1188529921259842
21
2.0515037007874017
0
LINE
8
BLACK
6
CONTINUOUS
10
1.1188529921259842
20
2.0515037007874017
11
1.1196062992125984
21
2.0516535433070864
0
LINE
8
BLACK
6
CONTINUOUS
10
1.1196062992125984
20
2.0516535433070864
11
1.1796062992125984
21
2.0516535433070864
0
LINE
8
BLACK
6
CONTINUOUS
10
1.1796062992125984
20
2.0516535433070864
11
1.1803596062992125
21
2.0515037007874017
0
LINE
8
BLACK
6
CONTINUOUS
10
1.2803596062992126
20
2.0515037007874017
11
1.2809982283464567
21
2.0510769685039372
0
LINE
8
BLACK
6
CONTINUOUS
10
1.2809982283464567
20
2.0510769685039372
11
1.2814249606299213
21
2.0504383464566929
0
LINE
8
BLACK
6
CONTINUOUS
10
1.2814249606299213
20
2.0504383464566929
11
1.2815748031496064
21
2.0496850393700785
0
LINE
8
BLACK
6
CONTINUOUS
10
1.2815748031496064
20
2.0496850393700785
11
1.2815748031496064
21
1.9896850393700787
0
LINE
8
BLACK
6
CONTINUOUS
10
1.2815748031496064
20
1.9896850393700787
11
1.2814249606299213
21
1.9889317322834645
0
LINE
8
BLACK
6
CONTINUOUS
10
1.2814249606299213
20
1.9889317322834645
11
1.2809982283464567
21
1.9882931102362205
0
LINE
8
BLACK
6
CONTINUOUS
10
1.2809982283464567
20
1.9882931102362205
11
1.2803596062992126
21
1.9878663779527559
0
LINE
8
BLACK
6
CONTINUOUS
10
1.2803596062992126
20
1.9878663779527559
11
1.2796062992125985
21
1.9877165354330708
0
LINE
8
BLACK
6
CONTINUOUS
10
1.2796062992125985
20
1.9877165354330708
11
1.2196062992125984
21
1.9877165354330708
0
LINE
8
BLACK
6
CONTINUOUS
10
1.2196062992125984
20
1.9877165354330708
11
1.2188529921259843
21
1.9878663779527559
0
LINE
8
BLACK
6
CONTINUOUS
10
1.2188529921259843
20
1.9878663779527559
11
1.2182143700787402
21
1.9882931102362205
0
LINE
8
BLACK
6
CONTINUOUS
10
1.2182143700787402
20
1.9882931102362205
11
1.2177876377952757
21
1.9889317322834645
0
LINE
8
BLACK
6
CONTINUOUS
10
1.2177876377952757
20
1.9889317322834645
11
1.2176377952755906
21
1.9896850393700787
0
LINE
8
BLACK
6
CONTINUOUS
10
1.2176377952755906
20
1.9896850393700787
11
1.2176377952755906
21
2.0496850393700785
0
LINE
8
BLACK
6
CONTINUOUS
10
1.2176377952755906
20
2.0496850393700785
11
1.2177876377952757
21
2.0504383464566929
0
LINE
8
BLACK
6
CONTINUOUS
10
1.2177876377952757
20
2.0504383464566929
11
1.2182143700787402
21
2.0510769685039372
0
LINE
8
BLACK
6
CONTINUOUS
10
1.2182143700787402
20
2.0510769685039372
11
1.2188529921259843
21
2.0515037007874017
0
LINE
8
BLACK
6
CONTINUOUS
10
1.2188529921259843
20
2.0515037007874017
11
1.2196062992125984
21
2.0516535433070864
0
LINE
8
BLACK
6
CONTINUOUS
10
1.2196062992125984
20
2.0516535433070864
11
1.2796062992125985
21
2.0516535433070864
0
LINE
8
BLACK
6
CONTINUOUS
10
1.2796062992125985
20
2.0516535433070864
11
1.2803596062992126
21
2.0515037007874017
0
LINE
8
BLACK
6
CONTINUOUS
10
1.3803596062992125
20
2.0515037007874017
11
1.3809982283464566
21
2.0510769685039372
0
LINE
8
BLACK
6
CONTINUOUS
10
1.3809982283464566
20
2.0510769685039372
11
1.3814249606299212
21
2.0504383464566929
0
LINE
8
BLACK
6
CONTINUOUS
10
1.3814249606299212
20
2.0504383464566929
11
1.3815748031496062
21
2.0496850393700785
0
LINE
8
BLACK
6
CONTINUOUS
10
1.3815748031496062
20
2.0496850393700785
11
1.3815748031496062
21
1.9896850393700787
0
LINE
8
BLACK
6
CONTINUOUS
10
1.3815748031496062
20
1.9896850393700787
11
1.3814249606299212
21
1.9889317322834645
0
LINE
8
BLACK
6
CONTINUOUS
10
1.3814249606299212
20
1.9889317322834645
11
1.3809982283464566
21
1.9882931102362205
0
LINE
8
BLACK
6
CONTINUOUS
10
1.3809982283464566
20
1.9882931102362205
11
1.3803596062992125
21
1.9878663779527559
0
LINE
8
BLACK
6
CONTINUOUS
10
1.3803596062992125
20
1.9878663779527559
11
1.3796062992125984
21
1.9877165354330708
0
LINE
8
BLACK
6
CONTINUOUS
10
1.3796062992125984
20
1.9877165354330708
11
1.3196062992125983
21
1.9877165354330708
0
LINE
8
BLACK
6
CONTINUOUS
10
1.3196062992125983
20
1.9877165354330708
11
1.3188529921259842
21
1.9878663779527559
0
LINE
8
BLACK
6
CONTINUOUS
10
1.3188529921259842
20
1.9878663779527559
11
1.3182143700787401
21
1.9882931102362205
0
LINE
8
BLACK
6
CONTINUOUS
10
1.3182143700787401
20
1.9882931102362205
11
1.3177876377952755
21
1.9889317322834645
0
LINE
8
BLACK
6
CONTINUOUS
10
1.3177876377952755
20
1.9889317322834645
11
1.3176377952755904
21
1.9896850393700787
0
LINE
8
BLACK
6
CONTINUOUS
10
1.3176377952755904
20
1.9896850393700787
11
1.3176377952755904
21
2.0496850393700785
0
LINE
8
BLACK
6
CONTINUOUS
10
1.3176377952755904
20
2.0496850393700785
11
1.3177876377952755
21
2.0504383464566929
0
LINE
8
BLACK
6
CONTINUOUS
10
1.3177876377952755
20
2.0504383464566929
11
1.3182143700787401
21
2.0510769685039372
0
LINE
8
BLACK
6
CONTINUOUS
10
1.3182143700787401
20
2.0510769685039372
11
1.3188529921259842
21
2.0515037007874017
0
LINE
8
BLACK
6
CONTINUOUS
10
1.3188529921259842
20
2.0515037007874017
11
1.3196062992125983
21
2.0516535433070864
0
LINE
8
BLACK
6
CONTINUOUS
10
1.3196062992125983
20
2.0516535433070864
11
1.3796062992125984
21
2.0516535433070864
0
LINE
8
BLACK
6
CONTINUOUS
10
1.3796062992125984
20
2.0516535433070864
11
1.3803596062992125
21
2.0515037007874017
0
LINE
8
BLACK
6
CONTINUOUS
10
1.4803596062992126
20
2.0515037007874017
11
1.4809982283464567
21
2.0510769685039372
0
LINE
8
BLACK
6
CONTINUOUS
10
1.4809982283464567
20
2.0510769685039372
11
1.4814249606299212
21
2.0504383464566929
0
LINE
8
BLACK
6
CONTINUOUS
10
1.4814249606299212
20
2.0504383464566929
11
1.4815748031496063
21
2.0496850393700785
0
LINE
8
BLACK
6
CONTINUOUS
10
1.4815748031496063
20
2.0496850393700785
11
1.4815748031496063
21
1.9896850393700787
0
LINE
8
BLACK
6
CONTINUOUS
10
1.4815748031496063
20
1.9896850393700787
11
1.4814249606299212
21
1.9889317322834645
0
LINE
8
BLACK
6
CONTINUOUS
10
1.4814249606299212
20
1.9889317322834645
11
1.4809982283464567
21
1.9882931102362205
0
LINE
8
BLACK
6
CONTINUOUS
10
1.4809982283464567
20
1.9882931102362205
11
1.4803596062992126
21
1.9878663779527559
0
LINE
8
BLACK
6
CONTINUOUS
10
1.4803596062992126
20
1.9878663779527559
11
1.4796062992125985
21
1.9877165354330708
0
LINE
8
BLACK
6
CONTINUOUS
10
1.4796062992125985
20
1.9877165354330708
11
1.4196062992125984
21
1.9877165354330708
0
LINE
8
BLACK
6
CONTINUOUS
10
1.4196062992125984
20
1.9877165354330708
11
1.4188529921259843
21
1.9878663779527559
0
LINE
8
BLACK
6
CONTINUOUS
10
1.4188529921259843
20
1.9878663779527559
11
1.4182143700787402
21
1.9882931102362205
0
LINE
8
BLACK
6
CONTINUOUS
10
1.4182143700787402
20
1.9882931102362205
11
1.4177876377952756
21
1.9889317322834645
0
LINE
8
BLACK
6
CONTINUOUS
10
1.4177876377952756
20
1.9889317322834645
11
1.4176377952755905
21
1.9896850393700787
0
LINE
8
BLACK
6
CONTINUOUS
10
1.4176377952755905
20
1.9896850393700787
11
1.4176377952755905
21
2.0496850393700785
0
LINE
8
BLACK
6
CONTINUOUS
10
1.4176377952755905
20
2.0496850393700785
11
1.4177876377952756
21
2.0504383464566929
0
LINE
8
BLACK
6
CONTINUOUS
10
1.4177876377952756
20
2.0504383464566929
11
1.4182143700787402
21
2.0510769685039372
0
LINE
8
BLACK
6
CONTINUOUS
10
1.4182143700787402
20
2.0510769685039372
11
1.4188529921259843
21
2.0515037007874017
0
LINE
8
BLACK
6
CONTINUOUS
10
1.4188529921259843
20
2.0515037007874017
11
1.4196062992125984
21
2.0516535433070864
0
LINE
8
BLACK
6
CONTINUOUS
10
1.4196062992125984
20
2.0516535433070864
11
1.4796062992125985
21
2.0516535433070864
0
LINE
8
BLACK
6
CONTINUOUS
10
1.4796062992125985
20
2.0516535433070864
11
1.4803596062992126
21
2.0515037007874017
0
LINE
8
BLACK
6
CONTINUOUS
10
1.5803596062992125
20
2.0515037007874017
11
1.5809982283464568
21
2.0510769685039372
0
LINE
8
BLACK
6
CONTINUOUS
10
1.5809982283464568
20
2.0510769685039372
11
1.5814249606299213
21
2.0504383464566929
0
LINE
8
BLACK
6
CONTINUOUS
10
1.5814249606299213
20
2.0504383464566929
11
1.5815748031496062
21
2.0496850393700785
0
LINE
8
BLACK
6
CONTINUOUS
10
1.5815748031496062
20
2.0496850393700785
11
1.5815748031496062
21
1.9896850393700787
0
LINE
8
BLACK
6
CONTINUOUS
10
1.5815748031496062
20
1.9896850393700787
11
1.5814249606299213
21
1.9889317322834645
0
LINE
8
BLACK
6
CONTINUOUS
10
1.5814249606299213
20
1.9889317322834645
11
1.5809982283464568
21
1.9882931102362205
0
LINE
8
BLACK
6
CONTINUOUS
10
1.5809982283464568
20
1.9882931102362205
11
1.5803596062992125
21
1.9878663779527559
0
LINE
8
BLACK
6
CONTINUOUS
10
1.5803596062992125
20
1.9878663779527559
11
1.5796062992125983
21
1.9877165354330708
0
LINE
8
BLACK
6
CONTINUOUS
10
1.5796062992125983
20
1.9877165354330708
11
1.5196062992125985
21
1.9877165354330708
0
LINE
8
BLACK
6
CONTINUOUS
10
1.5196062992125985
20
1.9877165354330708
11
1.5188529921259841
21
1.9878663779527559
0
LINE
8
BLACK
6
CONTINUOUS
10
1.5188529921259841
20
1.9878663779527559
11
1.51821437007874
21
1.9882931102362205
0
LINE
8
BLACK
6
CONTINUOUS
10
1.51821437007874
20
1.9882931102362205
11
1.5177876377952755
21
1.9889317322834645
0
LINE
8
BLACK
6
CONTINUOUS
10
1.5177876377952755
20
1.9889317322834645
11
1.5176377952755906
21
1.9896850393700787
0
LINE
8
BLACK
6
CONTINUOUS
10
1.5176377952755906
20
1.9896850393700787
11
1.5176377952755906
21
2.0496850393700785
0
LINE
8
BLACK
6
CONTINUOUS
10
1.5176377952755906
20
2.0496850393700785
11
1.5177876377952755
21
2.0504383464566929
0
LINE
8
BLACK
6
CONTINUOUS
10
1.5177876377952755
20
2.0504383464566929
11
1.51821437007874
21
2.0510769685039372
0
LINE
8
BLACK
6
CONTINUOUS
10
1.51821437007874
20
2.0510769685039372
11
1.5188529921259841
21
2.0515037007874017
0
LINE
8
BLACK
6
CONTINUOUS
10
1.5188529921259841
20
2.0515037007874017
11
1.5196062992125985
21
2.0516535433070864
0
LINE
8
BLACK
6
CONTINUOUS
10
1.5196062992125985
20
2.0516535433070864
11
1.5796062992125983
21
2.0516535433070864
0
LINE
8
BLACK
6
CONTINUOUS
10
1.5796062992125983
20
2.0516535433070864
11
1.5803596062992125
21
2.0515037007874017
0
LINE
8
BLACK
6
CONTINUOUS
10
1.6803596062992125
20
2.0515037007874017
11
1.6809982283464566
21
2.0510769685039372
0
LINE
8
BLACK
6
CONTINUOUS
10
1.6809982283464566
20
2.0510769685039372
11
1.6814249606299212
21
2.0504383464566929
0
LINE
8
BLACK
6
CONTINUOUS
10
1.6814249606299212
20
2.0504383464566929
11
1.6815748031496063
21
2.0496850393700785
0
LINE
8
BLACK
6
CONTINUOUS
10
1.6815748031496063
20
2.0496850393700785
11
1.6815748031496063
21
1.9896850393700787
0
LINE
8
BLACK
6
CONTINUOUS
10
1.6815748031496063
20
1.9896850393700787
11
1.6814249606299212
21
1.9889317322834645
0
LINE
8
BLACK
6
CONTINUOUS
10
1.6814249606299212
20
1.9889317322834645
11
1.6809982283464566
21
1.9882931102362205
0
LINE
8
BLACK
6
CONTINUOUS
10
1.6809982283464566
20
1.9882931102362205
11
1.6803596062992125
21
1.9878663779527559
0
LINE
8
BLACK
6
CONTINUOUS
10
1.6803596062992125
20
1.9878663779527559
11
1.6796062992125984
21
1.9877165354330708
0
LINE
8
BLACK
6
CONTINUOUS
10
1.6796062992125984
20
1.9877165354330708
11
1.6196062992125984
21
1.9877165354330708
0
LINE
8
BLACK
6
CONTINUOUS
10
1.6196062992125984
20
1.9877165354330708
11
1.6188529921259842
21
1.9878663779527559
0
LINE
8
BLACK
6
CONTINUOUS
10
1.6188529921259842
20
1.9878663779527559
11
1.6182143700787401
21
1.9882931102362205
0
LINE
8
BLACK
6
CONTINUOUS
10
1.6182143700787401
20
1.9882931102362205
11
1.6177876377952756
21
1.9889317322834645
0
LINE
8
BLACK
6
CONTINUOUS
10
1.6177876377952756
20
1.9889317322834645
11
1.6176377952755905
21
1.9896850393700787
0
LINE
8
BLACK
6
CONTINUOUS
10
1.6176377952755905
20
1.9896850393700787
11
1.6176377952755905
21
2.0496850393700785
0
LINE
8
BLACK
6
CONTINUOUS
10
1.6176377952755905
20
2.0496850393700785
11
1.6177876377952756
21
2.0504383464566929
0
LINE
8
BLACK
6
CONTINUOUS
10
1.6177876377952756
20
2.0504383464566929
11
1.6182143700787401
21
2.0510769685039372
0
LINE
8
BLACK
6
CONTINUOUS
10
1.6182143700787401
20
2.0510769685039372
11
1.6188529921259842
21
2.0515037007874017
0
LINE
8
BLACK
6
CONTINUOUS
10
1.6188529921259842
20
2.0515037007874017
11
1.6196062992125984
21
2.0516535433070864
0
LINE
8
BLACK
6
CONTINUOUS
10
1.6196062992125984
20
2.0516535433070864
11
1.6796062992125984
21
2.0516535433070864
0
LINE
8
BLACK
6
CONTINUOUS
10
1.6796062992125984
20
2.0516535433070864
11
1.6803596062992125
21
2.0515037007874017
0
LINE
8
BLACK
6
CONTINUOUS
10
1.7803596062992126
20
2.0515037007874017
11
1.7809982283464567
21
2.0510769685039372
0
LINE
8
BLACK
6
CONTINUOUS
10
1.7809982283464567
20
2.0510769685039372
11
1.7814249606299213
21
2.0504383464566929
0
LINE
8
BLACK
6
CONTINUOUS
10
1.7814249606299213
20
2.0504383464566929
11
1.7815748031496064
21
2.0496850393700785
0
LINE
8
BLACK
6
CONTINUOUS
10
1.7815748031496064
20
2.0496850393700785
11
1.7815748031496064
21
1.9896850393700787
0
LINE
8
BLACK
6
CONTINUOUS
10
1.7815748031496064
20
1.9896850393700787
11
1.7814249606299213
21
1.9889317322834645
0
LINE
8
BLACK
6
CONTINUOUS
10
1.7814249606299213
20
1.9889317322834645
11
1.7809982283464567
21
1.9882931102362205
0
LINE
8
BLACK
6
CONTINUOUS
10
1.7809982283464567
20
1.9882931102362205
11
1.7803596062992126
21
1.9878663779527559
0
LINE
8
BLACK
6
CONTINUOUS
10
1.7803596062992126
20
1.9878663779527559
11
1.7796062992125983
21
1.9877165354330708
0
LINE
8
BLACK
6
CONTINUOUS
10
1.7796062992125983
20
1.9877165354330708
11
1.7196062992125984
21
1.9877165354330708
0
LINE
8
BLACK
6
CONTINUOUS
10
1.7196062992125984
20
1.9877165354330708
11
1.7188529921259843
21
1.9878663779527559
0
LINE
8
BLACK
6
CONTINUOUS
10
1.7188529921259843
20
1.9878663779527559
11
1.7182143700787402
21
1.9882931102362205
0
LINE
8
BLACK
6
CONTINUOUS
10
1.7182143700787402
20
1.9882931102362205
11
1.7177876377952757
21
1.9889317322834645
0
LINE
8
BLACK
6
CONTINUOUS
10
1.7177876377952757
20
1.9889317322834645
11
1.7176377952755906
21
1.9896850393700787
0
LINE
8
BLACK
6
CONTINUOUS
10
1.7176377952755906
20
1.9896850393700787
11
1.7176377952755906
21
2.0496850393700785
0
LINE
8
BLACK
6
CONTINUOUS
10
1.7176377952755906
20
2.0496850393700785
11
1.7177876377952757
21
2.0504383464566929
0
LINE
8
BLACK
6
CONTINUOUS
10
1.7177876377952757
20
2.0504383464566929
11
1.7182143700787402
21
2.0510769685039372
0
LINE
8
BLACK
6
CONTINUOUS
10
1.7182143700787402
20
2.0510769685039372
11
1.7188529921259843
21
2.0515037007874017
0
LINE
8
BLACK
6
CONTINUOUS
10
1.7188529921259843
20
2.0515037007874017
11
1.7196062992125984
21
2.0516535433070864
0
LINE
8
BLACK
6
CONTINUOUS
10
1.7196062992125984
20
2.0516535433070864
11
1.7796062992125983
21
2.0516535433070864
0
LINE
8
BLACK
6
CONTINUOUS
10
1.7796062992125983
20
2.0516535433070864
11
1.7803596062992126
21
2.0515037007874017
0
LINE
8
BLACK
6
CONTINUOUS
10
1.8803596062992125
20
2.0515037007874017
11
1.8809982283464566
21
2.0510769685039372
0
LINE
8
BLACK
6
CONTINUOUS
10
1.8809982283464566
20
2.0510769685039372
11
1.8814249606299212
21
2.0504383464566929
0
LINE
8
BLACK
6
CONTINUOUS
10
1.8814249606299212
20
2.0504383464566929
11
1.8815748031496062
21
2.0496850393700785
0
LINE
8
BLACK
6
CONTINUOUS
10
1.8815748031496062
20
2.0496850393700785
11
1.8815748031496062
21
1.9896850393700787
0
LINE
8
BLACK
6
CONTINUOUS
10
1.8815748031496062
20
1.9896850393700787
11
1.8814249606299212
21
1.9889317322834645
0
LINE
8
BLACK
6
CONTINUOUS
10
1.8814249606299212
20
1.9889317322834645
11
1.8809982283464566
21
1.9882931102362205
0
LINE
8
BLACK
6
CONTINUOUS
10
1.8809982283464566
20
1.9882931102362205
11
1.8803596062992125
21
1.9878663779527559
0
LINE
8
BLACK
6
CONTINUOUS
10
1.8803596062992125
20
1.9878663779527559
11
1.8796062992125984
21
1.9877165354330708
0
LINE
8
BLACK
6
CONTINUOUS
10
1.8796062992125984
20
1.9877165354330708
11
1.8196062992125983
21
1.9877165354330708
0
LINE
8
BLACK
6
CONTINUOUS
10
1.8196062992125983
20
1.9877165354330708
11
1.8188529921259842
21
1.9878663779527559
0
LINE
8
BLACK
6
CONTINUOUS
10
1.8188529921259842
20
1.9878663779527559
11
1.8182143700787401
21
1.9882931102362205
0
LINE
8
BLACK
6
CONTINUOUS
10
1.8182143700787401
20
1.9882931102362205
11
1.8177876377952755
21
1.9889317322834645
0
LINE
8
BLACK
6
CONTINUOUS
10
1.8177876377952755
20
1.9889317322834645
11
1.8176377952755904
21
1.9896850393700787
0
LINE
8
BLACK
6
CONTINUOUS
10
1.8176377952755904
20
1.9896850393700787
11
1.8176377952755904
21
2.0496850393700785
0
LINE
8
BLACK
6
CONTINUOUS
10
1.8176377952755904
20
2.0496850393700785
11
1.8177876377952755
21
2.0504383464566929
0
LINE
8
BLACK
6
CONTINUOUS
10
1.8177876377952755
20
2.0504383464566929
11
1.8182143700787401
21
2.0510769685039372
0
LINE
8
BLACK
6
CONTINUOUS
10
1.8182143700787401
20
2.0510769685039372
11
1.8188529921259842
21
2.0515037007874017
0
LINE
8
BLACK
6
CONTINUOUS
10
1.8188529921259842
20
2.0515037007874017
11
1.8196062992125983
21
2.0516535433070864
0
LINE
8
BLACK
6
CONTINUOUS
10
1.8196062992125983
20
2.0516535433070864
11
1.8796062992125984
21
2.0516535433070864
0
LINE
8
BLACK
6
CONTINUOUS
10
1.8796062992125984
20
2.0516535433070864
11
1.8803596062992125
21
2.0515037007874017
0
LINE
8
BLACK
6
CONTINUOUS
10
1.9803596062992126
20
2.0515037007874017
11
1.9809982283464567
21
2.0510769685039372
0
LINE
8
BLACK
6
CONTINUOUS
10
1.9809982283464567
20
2.0510769685039372
11
1.9814249606299212
21
2.0504383464566929
0
LINE
8
BLACK
6
CONTINUOUS
10
1.9814249606299212
20
2.0504383464566929
11
1.9815748031496063
21
2.0496850393700785
0
LINE
8
BLACK
6
CONTINUOUS
10
1.9815748031496063
20
2.0496850393700785
11
1.9815748031496063
21
1.9896850393700787
0
LINE
8
BLACK
6
CONTINUOUS
10
1.9815748031496063
20
1.9896850393700787
11
1.9814249606299212
21
1.9889317322834645
0
LINE
8
BLACK
6
CONTINUOUS
10
1.9814249606299212
20
1.9889317322834645
11
1.9809982283464567
21
1.9882931102362205
0
LINE
8
BLACK
6
CONTINUOUS
10
1.9809982283464567
20
1.9882931102362205
11
1.9803596062992126
21
1.9878663779527559
0
LINE
8
BLACK
6
CONTINUOUS
10
1.9803596062992126
20
1.9878663779527559
11
1.9796062992125985
21
1.9877165354330708
0
LINE
8
BLACK
6
CONTINUOUS
10
1.9796062992125985
20
1.9877165354330708
11
1.9196062992125984
21
1.9877165354330708
0
LINE
8
BLACK
6
CONTINUOUS
10
1.9196062992125984
20
1.9877165354330708
11
1.9188529921259843
21
1.9878663779527559
0
LINE
8
BLACK
6
CONTINUOUS
10
1.9188529921259843
20
1.9878663779527559
11
1.9182143700787402
21
1.9882931102362205
0
LINE
8
BLACK
6
CONTINUOUS
10
1.9182143700787402
20
1.9882931102362205
11
1.9177876377952756
21
1.9889317322834645
0
LINE
8
BLACK
6
CONTINUOUS
10
1.9177876377952756
20
1.9889317322834645
11
1.9176377952755905
21
1.9896850393700787
0
LINE
8
BLACK
6
CONTINUOUS
10
1.9176377952755905
20
1.9896850393700787
11
1.9176377952755905
21
2.0496850393700785
0
LINE
8
BLACK
6
CONTINUOUS
10
1.9176377952755905
20
2.0496850393700785
11
1.9177876377952756
21
2.0504383464566929
0
LINE
8
BLACK
6
CONTINUOUS
10
1.9177876377952756
20
2.0504383464566929
11
1.9182143700787402
21
2.0510769685039372
0
LINE
8
BLACK
6
CONTINUOUS
10
1.9182143700787402
20
2.0510769685039372
11
1.9188529921259843
21
2.0515037007874017
0
LINE
8
BLACK
6
CONTINUOUS
10
1.9188529921259843
20
2.0515037007874017
11
1.9196062992125984
21
2.0516535433070864
0
LINE
8
BLACK
6
CONTINUOUS
10
1.9196062992125984
20
2.0516535433070864
11
1.9796062992125985
21
2.0516535433070864
0
LINE
8
BLACK
6
CONTINUOUS
10
1.9796062992125985
20
2.0516535433070864
11
1.9803596062992126
21
2.0515037007874017
0
LINE
8
BLACK
6
CONTINUOUS
10
0.861461968503937
20
2.2822123622047243
11
0.862100590551181
21
2.2817856299212598
0
LINE
8
BLACK
6
CONTINUOUS
10
0.862100590551181
20
2.2817856299212598
11
0.8625273228346456
21
2.2811470078740155
0
LINE
8
BLACK
6
CONTINUOUS
10
0.8625273228346456
20
2.2811470078740155
11
0.8626771653543307
21
2.2803937007874016
0
LINE
8
BLACK
6
CONTINUOUS
10
0.8626771653543307
20
2.2803937007874016
11
0.8626771653543307
21
2.2203937007874015
0
LINE
8
BLACK
6
CONTINUOUS
10
0.8626771653543307
20
2.2203937007874015
11
0.8625273228346456
21
2.2196403937007871
0
LINE
8
BLACK
6
CONTINUOUS
10
0.8625273228346456
20
2.2196403937007871
11
0.862100590551181
21
2.2190017716535433
0
LINE
8
BLACK
6
CONTINUOUS
10
0.862100590551181
20
2.2190017716535433
11
0.861461968503937
21
2.2185750393700787
0
LINE
8
BLACK
6
CONTINUOUS
10
0.861461968503937
20
2.2185750393700787
11
0.8607086614173228
21
2.2184251968503936
0
LINE
8
BLACK
6
CONTINUOUS
10
0.8607086614173228
20
2.2184251968503936
11
0.8007086614173228
21
2.2184251968503936
0
LINE
8
BLACK
6
CONTINUOUS
10
0.8007086614173228
20
2.2184251968503936
11
0.7999553543307086
21
2.2185750393700787
0
LINE
8
BLACK
6
CONTINUOUS
10
0.7999553543307086
20
2.2185750393700787
11
0.7993167322834646
21
2.2190017716535433
0
LINE
8
BLACK
6
CONTINUOUS
10
0.7993167322834646
20
2.2190017716535433
11
0.79889
21
2.2196403937007871
0
LINE
8
BLACK
6
CONTINUOUS
10
0.79889
20
2.2196403937007871
11
0.7987401574803149
21
2.2203937007874015
0
LINE
8
BLACK
6
CONTINUOUS
10
0.7987401574803149
20
2.2203937007874015
11
0.7987401574803149
21
2.2803937007874016
0
LINE
8
BLACK
6
CONTINUOUS
10
0.7987401574803149
20
2.2803937007874016
11
0.79889
21
2.2811470078740155
0
LINE
8
BLACK
6
CONTINUOUS
10
0.79889
20
2.2811470078740155
11
0.7993167322834646
21
2.2817856299212598
0
LINE
8
BLACK
6
CONTINUOUS
10
0.7993167322834646
20
2.2817856299212598
11
0.7999553543307086
21
2.2822123622047243
0
LINE
8
BLACK
6
CONTINUOUS
10
0.7999553543307086
20
2.2822123622047243
11
0.8007086614173228
21
2.2823622047244094
0
LINE
8
BLACK
6
CONTINUOUS
10
0.8007086614173228
20
2.2823622047244094
11
0.8607086614173228
21
2.2823622047244094
0
LINE
8
BLACK
6
CONTINUOUS
10
0.8607086614173228
20
2.2823622047244094
11
0.861461968503937
21
2.2822123622047243
0
LINE
8
BLACK
6
CONTINUOUS
10
0.0134445669291339
20
2.520898503937008
11
0.0267200393700787
21
2.5186429133858268
0
LINE
8
BLACK
6
CONTINUOUS
10
0.0267200393700787
20
2.5186429133858268
11
0.0396594881889764
21
2.514915118110236
0
LINE
8
BLACK
6
CONTINUOUS
10
0.0396594881889764
20
2.514915118110236
11
0.0521001968503937
21
2.5097620078740155
0
LINE
8
BLACK
6
CONTINUOUS
10
0.0521001968503937
20
2.5097620078740155
11
0.0638857480314961
21
2.5032483858267716
0
LINE
8
BLACK
6
CONTINUOUS
10
0.0638857480314961
20
2.5032483858267716
11
0.074867874015748
21
2.4954561417322836
0
LINE
8
BLACK
6
CONTINUOUS
10
0.074867874015748
20
2.4954561417322836
11
0.0849085039370079
21
2.4864833070866141
0
LINE
8
BLACK
6
CONTINUOUS
10
0.0849085039370079
20
2.4864833070866141
11
0.0938813385826772
21
2.4764426771653545
0
LINE
8
BLACK
6
CONTINUOUS
10
0.0938813385826772
20
2.4764426771653545
11
0.1016735826771654
21
2.4654605511811023
0
LINE
8
BLACK
6
CONTINUOUS
10
0.1016735826771654
20
2.4654605511811023
11
0.1081872047244094
21
2.4536750000000001
0
LINE
8
BLACK
6
CONTINUOUS
10
0.1081872047244094
20
2.4536750000000001
11
0.1133403149606299
21
2.4412342913385827
0
LINE
8
BLACK
6
CONTINUOUS
10
0.1133403149606299
20
2.4412342913385827
11
0.1170681102362205
21
2.4282948425196849
0
LINE
8
BLACK
6
CONTINUOUS
10
0.1170681102362205
20
2.4282948425196849
11
0.1193237007874016
21
2.4150193700787401
0
LINE
8
BLACK
6
CONTINUOUS
10
0.1193237007874016
20
2.4150193700787401
11
0.1200787401574803
21
2.401574803149606
0
LINE
8
BLACK
6
CONTINUOUS
10
0.1200787401574803
20
2.401574803149606
11
0.1193237007874016
21
2.3881302362204724
0
LINE
8
BLACK
6
CONTINUOUS
10
0.1193237007874016
20
2.3881302362204724
11
0.1170681102362205
21
2.3748547637795276
0
LINE
8
BLACK
6
CONTINUOUS
10
0.1170681102362205
20
2.3748547637795276
11
0.1133403149606299
21
2.3619153149606298
0
LINE
8
BLACK
6
CONTINUOUS
10
0.1133403149606299
20
2.3619153149606298
11
0.1081872047244094
21
2.3494746062992125
0
LINE
8
BLACK
6
CONTINUOUS
10
0.1081872047244094
20
2.3494746062992125
11
0.1016735826771654
21
2.3376890551181102
0
LINE
8
BLACK
6
CONTINUOUS
10
0.1016735826771654
20
2.3376890551181102
11
0.0938813385826772
21
2.326706929133858
0
LINE
8
BLACK
6
CONTINUOUS
10
0.0938813385826772
20
2.326706929133858
11
0.0849085039370079
21
2.3166662992125984
0
LINE
8
BLACK
6
CONTINUOUS
10
0.0849085039370079
20
2.3166662992125984
11
0.074867874015748
21
2.3076934645669289
0
LINE
8
BLACK
6
CONTINUOUS
10
0.074867874015748
20
2.3076934645669289
11
0.0638857480314961
21
2.2999012204724409
0
LINE
8
BLACK
6
CONTINUOUS
10
0.0638857480314961
20
2.2999012204724409
11
0.0521001968503937
21
2.293387598425197
0
LINE
8
BLACK
6
CONTINUOUS
10
0.0521001968503937
20
2.293387598425197
11
0.0396594881889764
21
2.2882344881889765
0
LINE
8
BLACK
6
CONTINUOUS
10
0.0396594881889764
20
2.2882344881889765
11
0.0267200393700787
21
2.2845066929133857
0
LINE
8
BLACK
6
CONTINUOUS
10
0.0267200393700787
20
2.2845066929133857
11
0.0134445669291339
21
2.2822511023622045
0
LINE
8
BLACK
6
CONTINUOUS
10
0.0134445669291339
20
2.2822511023622045
11
0.
21
2.2814960629921259
0
LINE
8
BLACK
6
CONTINUOUS
10
0.
20
2.2814960629921259
11
-0.0134445669291339
21
2.2822511023622045
0
LINE
8
BLACK
6
CONTINUOUS
10
-0.0134445669291339
20
2.2822511023622045
11
-0.0267200393700787
21
2.2845066929133857
0
LINE
8
BLACK
6
CONTINUOUS
10
-0.0267200393700787
20
2.2845066929133857
11
-0.0396594881889764
21
2.2882344881889765
0
LINE
8
BLACK
6
CONTINUOUS
10
-0.0396594881889764
20
2.2882344881889765
11
-0.0521001968503937
21
2.293387598425197
0
LINE
8
BLACK
6
CONTINUOUS
10
-0.0521001968503937
20
2.293387598425197
11
-0.0638857480314961
21
2.2999012204724409
0
LINE
8
BLACK
6
CONTINUOUS
10
-0.0638857480314961
20
2.2999012204724409
11
-0.074867874015748
21
2.3076934645669289
0
LINE
8
BLACK
6
CONTINUOUS
10
-0.074867874015748
20
2.3076934645669289
11
-0.0849085039370079
21
2.3166662992125984
0
LINE
8
BLACK
6
CONTINUOUS
10
-0.0849085039370079
20
2.3166662992125984
11
-0.0938813385826772
21
2.326706929133858
0
LINE
8
BLACK
6
CONTINUOUS
10
-0.0938813385826772
20
2.326706929133858
11
-0.1016735826771654
21
2.3376890551181102
0
LINE
8
BLACK
6
CONTINUOUS
10
-0.1016735826771654
20
2.3376890551181102
11
-0.1081872047244094
21
2.3494746062992125
0
LINE
8
BLACK
6
CONTINUOUS
10
-0.1081872047244094
20
2.3494746062992125
11
-0.1133403149606299
21
2.3619153149606298
0
LINE
8
BLACK
6
CONTINUOUS
10
-0.1133403149606299
20
2.3619153149606298
11
-0.1170681102362205
21
2.3748547637795276
0
LINE
8
BLACK
6
CONTINUOUS
10
-0.1170681102362205
20
2.3748547637795276
11
-0.1193237007874016
21
2.3881302362204724
0
LINE
8
BLACK
6
CONTINUOUS
10
-0.1193237007874016
20
2.3881302362204724
11
-0.1200787401574803
21
2.401574803149606
0
LINE
8
BLACK
6
CONTINUOUS
10
-0.1200787401574803
20
2.401574803149606
11
-0.1193237007874016
21
2.4150193700787401
0
LINE
8
BLACK
6
CONTINUOUS
10
-0.1193237007874016
20
2.4150193700787401
11
-0.1170681102362205
21
2.4282948425196849
0
LINE
8
BLACK
6
CONTINUOUS
10
-0.1170681102362205
20
2.4282948425196849
11
-0.1133403149606299
21
2.4412342913385827
0
LINE
8
BLACK
6
CONTINUOUS
10
-0.1133403149606299
20
2.4412342913385827
11
-0.1081872047244094
21
2.4536750000000001
0
LINE
8
BLACK
6
CONTINUOUS
10
-0.1081872047244094
20
2.4536750000000001
11
-0.1016735826771654
21
2.4654605511811023
0
LINE
8
BLACK
6
CONTINUOUS
10
-0.1016735826771654
20
2.4654605511811023
11
-0.0938813385826772
21
2.4764426771653545
0
LINE
8
BLACK
6
CONTINUOUS
10
-0.0938813385826772
20
2.4764426771653545
11
-0.0849085039370079
21
2.4864833070866141
0
LINE
8
BLACK
6
CONTINUOUS
10
-0.0849085039370079
20
2.4864833070866141
11
-0.074867874015748
21
2.4954561417322836
0
LINE
8
BLACK
6
CONTINUOUS
10
-0.074867874015748
20
2.4954561417322836
11
-0.0638857480314961
21
2.5032483858267716
0
LINE
8
BLACK
6
CONTINUOUS
10
-0.0638857480314961
20
2.5032483858267716
11
-0.0521001968503937
21
2.5097620078740155
0
LINE
8
BLACK
6
CONTINUOUS
10
-0.0521001968503937
20
2.5097620078740155
11
-0.0396594881889764
21
2.514915118110236
0
LINE
8
BLACK
6
CONTINUOUS
10
-0.0396594881889764
20
2.514915118110236
11
-0.0267200393700787
21
2.5186429133858268
0
LINE
8
BLACK
6
CONTINUOUS
10
-0.0267200393700787
20
2.5186429133858268
11
-0.0134445669291339
21
2.520898503937008
0
LINE
8
BLACK
6
CONTINUOUS
10
-0.0134445669291339
20
2.520898503937008
11
0.
21
2.5216535433070866
0
LINE
8
BLACK
6
CONTINUOUS
10
0.
20
2.5216535433070866
11
0.0134445669291339
21
2.520898503937008
0
LINE
8
BLACK
6
CONTINUOUS
10
2.0134445669291337
20
2.520898503937008
11
2.0267200393700788
21
2.5186429133858268
0
LINE
8
BLACK
6
CONTINUOUS
10
2.0267200393700788
20
2.5186429133858268
11
2.0396594881889762
21
2.514915118110236
0
LINE
8
BLACK
6
CONTINUOUS
10
2.0396594881889762
20
2.514915118110236
11
2.0521001968503936
21
2.5097620078740155
0
LINE
8
BLACK
6
CONTINUOUS
10
2.0521001968503936
20
2.5097620078740155
11
2.0638857480314958
21
2.5032483858267716
0
LINE
8
BLACK
6
CONTINUOUS
10
2.0638857480314958
20
2.5032483858267716
11
2.074867874015748
21
2.4954561417322836
0
LINE
8
BLACK
6
CONTINUOUS
10
2.074867874015748
20
2.4954561417322836
11
2.0849085039370077
21
2.4864833070866141
0
LINE
8
BLACK
6
CONTINUOUS
10
2.0849085039370077
20
2.4864833070866141
11
2.0938813385826771
21
2.4764426771653545
0
LINE
8
BLACK
6
CONTINUOUS
10
2.0938813385826771
20
2.4764426771653545
11
2.1016735826771651
21
2.4654605511811023
0
LINE
8
BLACK
6
CONTINUOUS
10
2.1016735826771651
20
2.4654605511811023
11
2.1081872047244095
21
2.4536750000000001
0
LINE
8
BLACK
6
CONTINUOUS
10
2.1081872047244095
20
2.4536750000000001
11
2.11334031496063
21
2.4412342913385827
0
LINE
8
BLACK
6
CONTINUOUS
10
2.11334031496063
20
2.4412342913385827
11
2.1170681102362203
21
2.4282948425196849
0
LINE
8
BLACK
6
CONTINUOUS
10
2.1170681102362203
20
2.4282948425196849
11
2.1193237007874015
21
2.4150193700787401
0
LINE
8
BLACK
6
CONTINUOUS
10
2.1193237007874015
20
2.4150193700787401
11
2.1200787401574801
21
2.401574803149606
0
LINE
8
BLACK
6
CONTINUOUS
10
2.1200787401574801
20
2.401574803149606
11
2.1193237007874015
21
2.3881302362204724
0
LINE
8
BLACK
6
CONTINUOUS
10
2.1193237007874015
20
2.3881302362204724
11
2.1170681102362203
21
2.3748547637795276
0
LINE
8
BLACK
6
CONTINUOUS
10
2.1170681102362203
20
2.3748547637795276
11
2.11334031496063
21
2.3619153149606298
0
LINE
8
BLACK
6
CONTINUOUS
10
2.11334031496063
20
2.3619153149606298
11
2.1081872047244095
21
2.3494746062992125
0
LINE
8
BLACK
6
CONTINUOUS
10
2.1081872047244095
20
2.3494746062992125
11
2.1016735826771651
21
2.3376890551181102
0
LINE
8
BLACK
6
CONTINUOUS
10
2.1016735826771651
20
2.3376890551181102
11
2.0938813385826771
21
2.326706929133858
0
LINE
8
BLACK
6
CONTINUOUS
10
2.0938813385826771
20
2.326706929133858
11
2.0849085039370077
21
2.3166662992125984
0
LINE
8
BLACK
6
CONTINUOUS
10
2.0849085039370077
20
2.3166662992125984
11
2.074867874015748
21
2.3076934645669289
0
LINE
8
BLACK
6
CONTINUOUS
10
2.074867874015748
20
2.3076934645669289
11
2.0638857480314958
21
2.2999012204724409
0
LINE
8
BLACK
6
CONTINUOUS
10
2.0638857480314958
20
2.2999012204724409
11
2.0521001968503936
21
2.293387598425197
0
LINE
8
BLACK
6
CONTINUOUS
10
2.0521001968503936
20
2.293387598425197
11
2.0396594881889762
21
2.2882344881889765
0
LINE
8
BLACK
6
CONTINUOUS
10
2.0396594881889762
20
2.2882344881889765
11
2.0267200393700788
21
2.2845066929133857
0
LINE
8
BLACK
6
CONTINUOUS
10
2.0267200393700788
20
2.2845066929133857
11
2.0134445669291337
21
2.2822511023622045
0
LINE
8
BLACK
6
CONTINUOUS
10
2.0134445669291337
20
2.2822511023622045
11
2.
21
2.2814960629921259
0
LINE
8
BLACK
6
CONTINUOUS
10
2.
20
2.2814960629921259
11
1.9865554330708661
21
2.2822511023622045
0
LINE
8
BLACK
6
CONTINUOUS
10
1.9865554330708661
20
2.2822511023622045
11
1.9732799606299212
21
2.2845066929133857
0
LINE
8
BLACK
6
CONTINUOUS
10
1.9732799606299212
20
2.2845066929133857
11
1.9603405118110235
21
2.2882344881889765
0
LINE
8
BLACK
6
CONTINUOUS
10
1.9603405118110235
20
2.2882344881889765
11
1.9478998031496062
21
2.293387598425197
0
LINE
8
BLACK
6
CONTINUOUS
10
1.9478998031496062
20
2.293387598425197
11
1.936114251968504
21
2.2999012204724409
0
LINE
8
BLACK
6
CONTINUOUS
10
1.936114251968504
20
2.2999012204724409
11
1.925132125984252
21
2.3076934645669289
0
LINE
8
BLACK
6
CONTINUOUS
10
1.925132125984252
20
2.3076934645669289
11
1.9150914960629921
21
2.3166662992125984
0
LINE
8
BLACK
6
CONTINUOUS
10
1.9150914960629921
20
2.3166662992125984
11
1.9061186614173229
21
2.326706929133858
0
LINE
8
BLACK
6
CONTINUOUS
10
1.9061186614173229
20
2.326706929133858
11
1.8983264173228347
21
2.3376890551181102
0
LINE
8
BLACK
6
CONTINUOUS
10
1.8983264173228347
20
2.3376890551181102
11
1.8918127952755905
21
2.3494746062992125
0
LINE
8
BLACK
6
CONTINUOUS
10
1.8918127952755905
20
2.3494746062992125
11
1.88665968503937
21
2.3619153149606298
0
LINE
8
BLACK
6
CONTINUOUS
10
1.88665968503937
20
2.3619153149606298
11
1.8829318897637795
21
2.3748547637795276
0
LINE
8
BLACK
6
CONTINUOUS
10
1.8829318897637795
20
2.3748547637795276
11
1.8806762992125985
21
2.3881302362204724
0
LINE
8
BLACK
6
CONTINUOUS
10
1.8806762992125985
20
2.3881302362204724
11
1.8799212598425197
21
2.401574803149606
0
LINE
8
BLACK
6
CONTINUOUS
10
1.8799212598425197
20
2.401574803149606
11
1.8806762992125985
21
2.4150193700787401
0
LINE
8
BLACK
6
CONTINUOUS
10
1.8806762992125985
20
2.4150193700787401
11
1.8829318897637795
21
2.4282948425196849
0
LINE
8
BLACK
6
CONTINUOUS
10
1.8829318897637795
20
2.4282948425196849
11
1.88665968503937
21
2.4412342913385827
0
LINE
8
BLACK
6
CONTINUOUS
10
1.88665968503937
20
2.4412342913385827
11
1.8918127952755905
21
2.4536750000000001
0
LINE
8
BLACK
6
CONTINUOUS
10
1.8918127952755905
20
2.4536750000000001
11
1.8983264173228347
21
2.4654605511811023
0
LINE
8
BLACK
6
CONTINUOUS
10
1.8983264173228347
20
2.4654605511811023
11
1.9061186614173229
21
2.4764426771653545
0
LINE
8
BLACK
6
CONTINUOUS
10
1.9061186614173229
20
2.4764426771653545
11
1.9150914960629921
21
2.4864833070866141
0
LINE
8
BLACK
6
CONTINUOUS
10
1.9150914960629921
20
2.4864833070866141
11
1.925132125984252
21
2.4954561417322836
0
LINE
8
BLACK
6
CONTINUOUS
10
1.925132125984252
20
2.4954561417322836
11
1.936114251968504
21
2.5032483858267716
0
LINE
8
BLACK
6
CONTINUOUS
10
1.936114251968504
20
2.5032483858267716
11
1.9478998031496062
21
2.5097620078740155
0
LINE
8
BLACK
6
CONTINUOUS
10
1.9478998031496062
20
2.5097620078740155
11
1.9603405118110235
21
2.514915118110236
0
LINE
8
BLACK
6
CONTINUOUS
10
1.9603405118110235
20
2.514915118110236
11
1.9732799606299212
21
2.5186429133858268
0
LINE
8
BLACK
6
CONTINUOUS
10
1.9732799606299212
20
2.5186429133858268
11
1.9865554330708661
21
2.520898503937008
0
LINE
8
BLACK
6
CONTINUOUS
10
1.9865554330708661
20
2.520898503937008
11
2.
21
2.5216535433070866
0
LINE
8
BLACK
6
CONTINUOUS
10
2.
20
2.5216535433070866
11
2.0134445669291337
21
2.520898503937008
0
LINE
8
BLACK
6
CONTINUOUS
10
0.261461968503937
20
2.3794564566929135
11
0.2621005905511811
21
2.3790297244094489
0
LINE
8
BLACK
6
CONTINUOUS
10
0.2621005905511811
20
2.3790297244094489
11
0.2625273228346456
21
2.3783911023622046
0
LINE
8
BLACK
6
CONTINUOUS
10
0.2625273228346456
20
2.3783911023622046
11
0.2626771653543307
21
2.3776377952755907
0
LINE
8
BLACK
6
CONTINUOUS
10
0.2626771653543307
20
2.3776377952755907
11
0.2626771653543307
21
2.3176377952755907
0
LINE
8
BLACK
6
CONTINUOUS
10
0.2626771653543307
20
2.3176377952755907
11
0.2625273228346456
21
2.3168844881889763
0
LINE
8
BLACK
6
CONTINUOUS
10
0.2625273228346456
20
2.3168844881889763
11
0.2621005905511811
21
2.3162458661417324
0
LINE
8
BLACK
6
CONTINUOUS
10
0.2621005905511811
20
2.3162458661417324
11
0.261461968503937
21
2.3158191338582679
0
LINE
8
BLACK
6
CONTINUOUS
10
0.261461968503937
20
2.3158191338582679
11
0.2607086614173229
21
2.3156692913385828
0
LINE
8
BLACK
6
CONTINUOUS
10
0.2607086614173229
20
2.3156692913385828
11
0.2007086614173228
21
2.3156692913385828
0
LINE
8
BLACK
6
CONTINUOUS
10
0.2007086614173228
20
2.3156692913385828
11
0.1999553543307087
21
2.3158191338582679
0
LINE
8
BLACK
6
CONTINUOUS
10
0.1999553543307087
20
2.3158191338582679
11
0.1993167322834646
21
2.3162458661417324
0
LINE
8
BLACK
6
CONTINUOUS
10
0.1993167322834646
20
2.3162458661417324
11
0.19889
21
2.3168844881889763
0
LINE
8
BLACK
6
CONTINUOUS
10
0.19889
20
2.3168844881889763
11
0.198740157480315
21
2.3176377952755907
0
LINE
8
BLACK
6
CONTINUOUS
10
0.198740157480315
20
2.3176377952755907
11
0.198740157480315
21
2.3776377952755907
0
LINE
8
BLACK
6
CONTINUOUS
10
0.198740157480315
20
2.3776377952755907
11
0.19889
21
2.3783911023622046
0
LINE
8
BLACK
6
CONTINUOUS
10
0.19889
20
2.3783911023622046
11
0.1993167322834646
21
2.3790297244094489
0
LINE
8
BLACK
6
CONTINUOUS
10
0.1993167322834646
20
2.3790297244094489
11
0.1999553543307087
21
2.3794564566929135
0
LINE
8
BLACK
6
CONTINUOUS
10
0.1999553543307087
20
2.3794564566929135
11
0.2007086614173228
21
2.3796062992125986
0
LINE
8
BLACK
6
CONTINUOUS
10
0.2007086614173228
20
2.3796062992125986
11
0.2607086614173229
21
2.3796062992125986
0
LINE
8
BLACK
6
CONTINUOUS
10
0.2607086614173229
20
2.3796062992125986
11
0.261461968503937
21
2.3794564566929135
0
LINE
8
BLACK
6
CONTINUOUS
10
0.361461968503937
20
2.3794564566929135
11
0.3621005905511811
21
2.3790297244094489
0
LINE
8
BLACK
6
CONTINUOUS
10
0.3621005905511811
20
2.3790297244094489
11
0.3625273228346457
21
2.3783911023622046
0
LINE
8
BLACK
6
CONTINUOUS
10
0.3625273228346457
20
2.3783911023622046
11
0.3626771653543307
21
2.3776377952755907
0
LINE
8
BLACK
6
CONTINUOUS
10
0.3626771653543307
20
2.3776377952755907
11
0.3626771653543307
21
2.3176377952755907
0
LINE
8
BLACK
6
CONTINUOUS
10
0.3626771653543307
20
2.3176377952755907
11
0.3625273228346457
21
2.3168844881889763
0
LINE
8
BLACK
6
CONTINUOUS
10
0.3625273228346457
20
2.3168844881889763
11
0.3621005905511811
21
2.3162458661417324
0
LINE
8
BLACK
6
CONTINUOUS
10
0.3621005905511811
20
2.3162458661417324
11
0.361461968503937
21
2.3158191338582679
0
LINE
8
BLACK
6
CONTINUOUS
10
0.361461968503937
20
2.3158191338582679
11
0.3607086614173228
21
2.3156692913385828
0
LINE
8
BLACK
6
CONTINUOUS
10
0.3607086614173228
20
2.3156692913385828
11
0.3007086614173228
21
2.3156692913385828
0
LINE
8
BLACK
6
CONTINUOUS
10
0.3007086614173228
20
2.3156692913385828
11
0.2999553543307086
21
2.3158191338582679
0
LINE
8
BLACK
6
CONTINUOUS
10
0.2999553543307086
20
2.3158191338582679
11
0.2993167322834646
21
2.3162458661417324
0
LINE
8
BLACK
6
CONTINUOUS
10
0.2993167322834646
20
2.3162458661417324
11
0.29889
21
2.3168844881889763
0
LINE
8
BLACK
6
CONTINUOUS
10
0.29889
20
2.3168844881889763
11
0.298740157480315
21
2.3176377952755907
0
LINE
8
BLACK
6
CONTINUOUS
10
0.298740157480315
20
2.3176377952755907
11
0.298740157480315
21
2.3776377952755907
0
LINE
8
BLACK
6
CONTINUOUS
10
0.298740157480315
20
2.3776377952755907
11
0.29889
21
2.3783911023622046
0
LINE
8
BLACK
6
CONTINUOUS
10
0.29889
20
2.3783911023622046
11
0.2993167322834646
21
2.3790297244094489
0
LINE
8
BLACK
6
CONTINUOUS
10
0.2993167322834646
20
2.3790297244094489
11
0.2999553543307086
21
2.3794564566929135
0
LINE
8
BLACK
6
CONTINUOUS
10
0.2999553543307086
20
2.3794564566929135
11
0.3007086614173228
21
2.3796062992125986
0
LINE
8
BLACK
6
CONTINUOUS
10
0.3007086614173228
20
2.3796062992125986
11
0.3607086614173228
21
2.3796062992125986
0
LINE
8
BLACK
6
CONTINUOUS
10
0.3607086614173228
20
2.3796062992125986
11
0.361461968503937
21
2.3794564566929135
0
LINE
8
BLACK
6
CONTINUOUS
10
0.461461968503937
20
2.3794564566929135
11
0.4621005905511811
21
2.3790297244094489
0
LINE
8
BLACK
6
CONTINUOUS
10
0.4621005905511811
20
2.3790297244094489
11
0.4625273228346456
21
2.3783911023622046
0
LINE
8
BLACK
6
CONTINUOUS
10
0.4625273228346456
20
2.3783911023622046
11
0.4626771653543307
21
2.3776377952755907
0
LINE
8
BLACK
6
CONTINUOUS
10
0.4626771653543307
20
2.3776377952755907
11
0.4626771653543307
21
2.3176377952755907
0
LINE
8
BLACK
6
CONTINUOUS
10
0.4626771653543307
20
2.3176377952755907
11
0.4625273228346456
21
2.3168844881889763
0
LINE
8
BLACK
6
CONTINUOUS
10
0.4625273228346456
20
2.3168844881889763
11
0.4621005905511811
21
2.3162458661417324
0
LINE
8
BLACK
6
CONTINUOUS
10
0.4621005905511811
20
2.3162458661417324
11
0.461461968503937
21
2.3158191338582679
0
LINE
8
BLACK
6
CONTINUOUS
10
0.461461968503937
20
2.3158191338582679
11
0.4607086614173228
21
2.3156692913385828
0
LINE
8
BLACK
6
CONTINUOUS
10
0.4607086614173228
20
2.3156692913385828
11
0.4007086614173228
21
2.3156692913385828
0
LINE
8
BLACK
6
CONTINUOUS
10
0.4007086614173228
20
2.3156692913385828
11
0.3999553543307087
21
2.3158191338582679
0
LINE
8
BLACK
6
CONTINUOUS
10
0.3999553543307087
20
2.3158191338582679
11
0.3993167322834645
21
2.3162458661417324
0
LINE
8
BLACK
6
CONTINUOUS
10
0.3993167322834645
20
2.3162458661417324
11
0.39889
21
2.3168844881889763
0
LINE
8
BLACK
6
CONTINUOUS
10
0.39889
20
2.3168844881889763
11
0.3987401574803149
21
2.3176377952755907
0
LINE
8
BLACK
6
CONTINUOUS
10
0.3987401574803149
20
2.3176377952755907
11
0.3987401574803149
21
2.3776377952755907
0
LINE
8
BLACK
6
CONTINUOUS
10
0.3987401574803149
20
2.3776377952755907
11
0.39889
21
2.3783911023622046
0
LINE
8
BLACK
6
CONTINUOUS
10
0.39889
20
2.3783911023622046
11
0.3993167322834645
21
2.3790297244094489
0
LINE
8
BLACK
6
CONTINUOUS
10
0.3993167322834645
20
2.3790297244094489
11
0.3999553543307087
21
2.3794564566929135
0
LINE
8
BLACK
6
CONTINUOUS
10
0.3999553543307087
20
2.3794564566929135
11
0.4007086614173228
21
2.3796062992125986
0
LINE
8
BLACK
6
CONTINUOUS
10
0.4007086614173228
20
2.3796062992125986
11
0.4607086614173228
21
2.3796062992125986
0
LINE
8
BLACK
6
CONTINUOUS
10
0.4607086614173228
20
2.3796062992125986
11
0.461461968503937
21
2.3794564566929135
0
LINE
8
BLACK
6
CONTINUOUS
10
0.6008320472440944
20
2.3794564566929135
11
0.6014706692913385
21
2.3790297244094489
0
LINE
8
BLACK
6
CONTINUOUS
10
0.6014706692913385
20
2.3790297244094489
11
0.6018974015748031
21
2.3783911023622046
0
LINE
8
BLACK
6
CONTINUOUS
10
0.6018974015748031
20
2.3783911023622046
11
0.6020472440944882
21
2.3776377952755907
0
LINE
8
BLACK
6
CONTINUOUS
10
0.6020472440944882
20
2.3776377952755907
11
0.6020472440944882
21
2.3176377952755907
0
LINE
8
BLACK
6
CONTINUOUS
10
0.6020472440944882
20
2.3176377952755907
11
0.6018974015748031
21
2.3168844881889763
0
LINE
8
BLACK
6
CONTINUOUS
10
0.6018974015748031
20
2.3168844881889763
11
0.6014706692913385
21
2.3162458661417324
0
LINE
8
BLACK
6
CONTINUOUS
10
0.6014706692913385
20
2.3162458661417324
11
0.6008320472440944
21
2.3158191338582679
0
LINE
8
BLACK
6
CONTINUOUS
10
0.6008320472440944
20
2.3158191338582679
11
0.6000787401574803
21
2.3156692913385828
0
LINE
8
BLACK
6
CONTINUOUS
10
0.6000787401574803
20
2.3156692913385828
11
0.5400787401574803
21
2.3156692913385828
0
LINE
8
BLACK
6
CONTINUOUS
10
0.5400787401574803
20
2.3156692913385828
11
0.5393254330708661
21
2.3158191338582679
0
LINE
8
BLACK
6
CONTINUOUS
10
0.5393254330708661
20
2.3158191338582679
11
0.538686811023622
21
2.3162458661417324
0
LINE
8
BLACK
6
CONTINUOUS
10
0.538686811023622
20
2.3162458661417324
11
0.5382600787401575
21
2.3168844881889763
0
LINE
8
BLACK
6
CONTINUOUS
10
0.5382600787401575
20
2.3168844881889763
11
0.5381102362204724
21
2.3176377952755907
0
LINE
8
BLACK
6
CONTINUOUS
10
0.5381102362204724
20
2.3176377952755907
11
0.5381102362204724
21
2.3776377952755907
0
LINE
8
BLACK
6
CONTINUOUS
10
0.5381102362204724
20
2.3776377952755907
11
0.5382600787401575
21
2.3783911023622046
0
LINE
8
BLACK
6
CONTINUOUS
10
0.5382600787401575
20
2.3783911023622046
11
0.538686811023622
21
2.3790297244094489
0
LINE
8
BLACK
6
CONTINUOUS
10
0.538686811023622
20
2.3790297244094489
11
0.5393254330708661
21
2.3794564566929135
0
LINE
8
BLACK
6
CONTINUOUS
10
0.5393254330708661
20
2.3794564566929135
11
0.5400787401574803
21
2.3796062992125986
0
LINE
8
BLACK
6
CONTINUOUS
10
0.5400787401574803
20
2.3796062992125986
11
0.6000787401574803
21
2.3796062992125986
0
LINE
8
BLACK
6
CONTINUOUS
10
0.6000787401574803
20
2.3796062992125986
11
0.6008320472440944
21
2.3794564566929135
0
LINE
8
BLACK
6
CONTINUOUS
10
0.7008320472440944
20
2.3794564566929135
11
0.7014706692913386
21
2.3790297244094489
0
LINE
8
BLACK
6
CONTINUOUS
10
0.7014706692913386
20
2.3790297244094489
11
0.7018974015748032
21
2.3783911023622046
0
LINE
8
BLACK
6
CONTINUOUS
10
0.7018974015748032
20
2.3783911023622046
11
0.7020472440944882
21
2.3776377952755907
0
LINE
8
BLACK
6
CONTINUOUS
10
0.7020472440944882
20
2.3776377952755907
11
0.7020472440944882
21
2.3176377952755907
0
LINE
8
BLACK
6
CONTINUOUS
10
0.7020472440944882
20
2.3176377952755907
11
0.7018974015748032
21
2.3168844881889763
0
LINE
8
BLACK
6
CONTINUOUS
10
0.7018974015748032
20
2.3168844881889763
11
0.7014706692913386
21
2.3162458661417324
0
LINE
8
BLACK
6
CONTINUOUS
10
0.7014706692913386
20
2.3162458661417324
11
0.7008320472440944
21
2.3158191338582679
0
LINE
8
BLACK
6
CONTINUOUS
10
0.7008320472440944
20
2.3158191338582679
11
0.7000787401574803
21
2.3156692913385828
0
LINE
8
BLACK
6
CONTINUOUS
10
0.7000787401574803
20
2.3156692913385828
11
0.6400787401574803
21
2.3156692913385828
0
LINE
8
BLACK
6
CONTINUOUS
10
0.6400787401574803
20
2.3156692913385828
11
0.6393254330708661
21
2.3158191338582679
0
LINE
8
BLACK
6
CONTINUOUS
10
0.6393254330708661
20
2.3158191338582679
11
0.638686811023622
21
2.3162458661417324
0
LINE
8
BLACK
6
CONTINUOUS
10
0.638686811023622
20
2.3162458661417324
11
0.6382600787401574
21
2.3168844881889763
0
LINE
8
BLACK
6
CONTINUOUS
10
0.6382600787401574
20
2.3168844881889763
11
0.6381102362204725
21
2.3176377952755907
0
LINE
8
BLACK
6
CONTINUOUS
10
0.6381102362204725
20
2.3176377952755907
11
0.6381102362204725
21
2.3776377952755907
0
LINE
8
BLACK
6
CONTINUOUS
10
0.6381102362204725
20
2.3776377952755907
11
0.6382600787401574
21
2.3783911023622046
0
LINE
8
BLACK
6
CONTINUOUS
10
0.6382600787401574
20
2.3783911023622046
11
0.638686811023622
21
2.3790297244094489
0
LINE
8
BLACK
6
CONTINUOUS
10
0.638686811023622
20
2.3790297244094489
11
0.6393254330708661
21
2.3794564566929135
0
LINE
8
BLACK
6
CONTINUOUS
10
0.6393254330708661
20
2.3794564566929135
11
0.6400787401574803
21
2.3796062992125986
0
LINE
8
BLACK
6
CONTINUOUS
10
0.6400787401574803
20
2.3796062992125986
11
0.7000787401574803
21
2.3796062992125986
0
LINE
8
BLACK
6
CONTINUOUS
10
0.7000787401574803
20
2.3796062992125986
11
0.7008320472440944
21
2.3794564566929135
0
LINE
8
BLACK
6
CONTINUOUS
10
1.0016194488188976
20
2.3794564566929135
11
1.0022580708661417
21
2.3790297244094489
0
LINE
8
BLACK
6
CONTINUOUS
10
1.0022580708661417
20
2.3790297244094489
11
1.0026848031496063
21
2.3783911023622046
0
LINE
8
BLACK
6
CONTINUOUS
10
1.0026848031496063
20
2.3783911023622046
11
1.0028346456692914
21
2.3776377952755907
0
LINE
8
BLACK
6
CONTINUOUS
10
1.0028346456692914
20
2.3776377952755907
11
1.0028346456692914
21
2.3176377952755907
0
LINE
8
BLACK
6
CONTINUOUS
10
1.0028346456692914
20
2.3176377952755907
11
1.0026848031496063
21
2.3168844881889763
0
LINE
8
BLACK
6
CONTINUOUS
10
1.0026848031496063
20
2.3168844881889763
11
1.0022580708661417
21
2.3162458661417324
0
LINE
8
BLACK
6
CONTINUOUS
10
1.0022580708661417
20
2.3162458661417324
11
1.0016194488188976
21
2.3158191338582679
0
LINE
8
BLACK
6
CONTINUOUS
10
1.0016194488188976
20
2.3158191338582679
11
1.0008661417322835
21
2.3156692913385828
0
LINE
8
BLACK
6
CONTINUOUS
10
1.0008661417322835
20
2.3156692913385828
11
0.9408661417322834
21
2.3156692913385828
0
LINE
8
BLACK
6
CONTINUOUS
10
0.9408661417322834
20
2.3156692913385828
11
0.9401128346456693
21
2.3158191338582679
0
LINE
8
BLACK
6
CONTINUOUS
10
0.9401128346456693
20
2.3158191338582679
11
0.9394742125984252
21
2.3162458661417324
0
LINE
8
BLACK
6
CONTINUOUS
10
0.9394742125984252
20
2.3162458661417324
11
0.9390474803149607
21
2.3168844881889763
0
LINE
8
BLACK
6
CONTINUOUS
10
0.9390474803149607
20
2.3168844881889763
11
0.9388976377952756
21
2.3176377952755907
0
LINE
8
BLACK
6
CONTINUOUS
10
0.9388976377952756
20
2.3176377952755907
11
0.9388976377952756
21
2.3776377952755907
0
LINE
8
BLACK
6
CONTINUOUS
10
0.9388976377952756
20
2.3776377952755907
11
0.9390474803149607
21
2.3783911023622046
0
LINE
8
BLACK
6
CONTINUOUS
10
0.9390474803149607
20
2.3783911023622046
11
0.9394742125984252
21
2.3790297244094489
0
LINE
8
BLACK
6
CONTINUOUS
10
0.9394742125984252
20
2.3790297244094489
11
0.9401128346456693
21
2.3794564566929135
0
LINE
8
BLACK
6
CONTINUOUS
10
0.9401128346456693
20
2.3794564566929135
11
0.9408661417322834
21
2.3796062992125986
0
LINE
8
BLACK
6
CONTINUOUS
10
0.9408661417322834
20
2.3796062992125986
11
1.0008661417322835
21
2.3796062992125986
0
LINE
8
BLACK
6
CONTINUOUS
10
1.0008661417322835
20
2.3796062992125986
11
1.0016194488188976
21
2.3794564566929135
0
LINE
8
BLACK
6
CONTINUOUS
10
1.1016194488188975
20
2.3794564566929135
11
1.1022580708661418
21
2.3790297244094489
0
LINE
8
BLACK
6
CONTINUOUS
10
1.1022580708661418
20
2.3790297244094489
11
1.1026848031496064
21
2.3783911023622046
0
LINE
8
BLACK
6
CONTINUOUS
10
1.1026848031496064
20
2.3783911023622046
11
1.1028346456692912
21
2.3776377952755907
0
LINE
8
BLACK
6
CONTINUOUS
10
1.1028346456692912
20
2.3776377952755907
11
1.1028346456692912
21
2.3176377952755907
0
LINE
8
BLACK
6
CONTINUOUS
10
1.1028346456692912
20
2.3176377952755907
11
1.1026848031496064
21
2.3168844881889763
0
LINE
8
BLACK
6
CONTINUOUS
10
1.1026848031496064
20
2.3168844881889763
11
1.1022580708661418
21
2.3162458661417324
0
LINE
8
BLACK
6
CONTINUOUS
10
1.1022580708661418
20
2.3162458661417324
11
1.1016194488188975
21
2.3158191338582679
0
LINE
8
BLACK
6
CONTINUOUS
10
1.1016194488188975
20
2.3158191338582679
11
1.1008661417322834
21
2.3156692913385828
0
LINE
8
BLACK
6
CONTINUOUS
10
1.1008661417322834
20
2.3156692913385828
11
1.0408661417322835
21
2.3156692913385828
0
LINE
8
BLACK
6
CONTINUOUS
10
1.0408661417322835
20
2.3156692913385828
11
1.0401128346456692
21
2.3158191338582679
0
LINE
8
BLACK
6
CONTINUOUS
10
1.0401128346456692
20
2.3158191338582679
11
1.0394742125984251
21
2.3162458661417324
0
LINE
8
BLACK
6
CONTINUOUS
10
1.0394742125984251
20
2.3162458661417324
11
1.0390474803149605
21
2.3168844881889763
0
LINE
8
BLACK
6
CONTINUOUS
10
1.0390474803149605
20
2.3168844881889763
11
1.0388976377952757
21
2.3176377952755907
0
LINE
8
BLACK
6
CONTINUOUS
10
1.0388976377952757
20
2.3176377952755907
11
1.0388976377952757
21
2.3776377952755907
0
LINE
8
BLACK
6
CONTINUOUS
10
1.0388976377952757
20
2.3776377952755907
11
1.0390474803149605
21
2.3783911023622046
0
LINE
8
BLACK
6
CONTINUOUS
10
1.0390474803149605
20
2.3783911023622046
11
1.0394742125984251
21
2.3790297244094489
0
LINE
8
BLACK
6
CONTINUOUS
10
1.0394742125984251
20
2.3790297244094489
11
1.0401128346456692
21
2.3794564566929135
0
LINE
8
BLACK
6
CONTINUOUS
10
1.0401128346456692
20
2.3794564566929135
11
1.0408661417322835
21
2.3796062992125986
0
LINE
8
BLACK
6
CONTINUOUS
10
1.0408661417322835
20
2.3796062992125986
11
1.1008661417322834
21
2.3796062992125986
0
LINE
8
BLACK
6
CONTINUOUS
10
1.1008661417322834
20
2.3796062992125986
11
1.1016194488188975
21
2.3794564566929135
0
LINE
8
BLACK
6
CONTINUOUS
10
1.2016194488188976
20
2.3794564566929135
11
1.2022580708661417
21
2.3790297244094489
0
LINE
8
BLACK
6
CONTINUOUS
10
1.2022580708661417
20
2.3790297244094489
11
1.2026848031496062
21
2.3783911023622046
0
LINE
8
BLACK
6
CONTINUOUS
10
1.2026848031496062
20
2.3783911023622046
11
1.2028346456692913
21
2.3776377952755907
0
LINE
8
BLACK
6
CONTINUOUS
10
1.2028346456692913
20
2.3776377952755907
11
1.2028346456692913
21
2.3176377952755907
0
LINE
8
BLACK
6
CONTINUOUS
10
1.2028346456692913
20
2.3176377952755907
11
1.2026848031496062
21
2.3168844881889763
0
LINE
8
BLACK
6
CONTINUOUS
10
1.2026848031496062
20
2.3168844881889763
11
1.2022580708661417
21
2.3162458661417324
0
LINE
8
BLACK
6
CONTINUOUS
10
1.2022580708661417
20
2.3162458661417324
11
1.2016194488188976
21
2.3158191338582679
0
LINE
8
BLACK
6
CONTINUOUS
10
1.2016194488188976
20
2.3158191338582679
11
1.2008661417322835
21
2.3156692913385828
0
LINE
8
BLACK
6
CONTINUOUS
10
1.2008661417322835
20
2.3156692913385828
11
1.1408661417322834
21
2.3156692913385828
0
LINE
8
BLACK
6
CONTINUOUS
10
1.1408661417322834
20
2.3156692913385828
11
1.1401128346456693
21
2.3158191338582679
0
LINE
8
BLACK
6
CONTINUOUS
10
1.1401128346456693
20
2.3158191338582679
11
1.1394742125984252
21
2.3162458661417324
0
LINE
8
BLACK
6
CONTINUOUS
10
1.1394742125984252
20
2.3162458661417324
11
1.1390474803149606
21
2.3168844881889763
0
LINE
8
BLACK
6
CONTINUOUS
10
1.1390474803149606
20
2.3168844881889763
11
1.1388976377952755
21
2.3176377952755907
0
LINE
8
BLACK
6
CONTINUOUS
10
1.1388976377952755
20
2.3176377952755907
11
1.1388976377952755
21
2.3776377952755907
0
LINE
8
BLACK
6
CONTINUOUS
10
1.1388976377952755
20
2.3776377952755907
11
1.1390474803149606
21
2.3783911023622046
0
LINE
8
BLACK
6
CONTINUOUS
10
1.1390474803149606
20
2.3783911023622046
11
1.1394742125984252
21
2.3790297244094489
0
LINE
8
BLACK
6
CONTINUOUS
10
1.1394742125984252
20
2.3790297244094489
11
1.1401128346456693
21
2.3794564566929135
0
LINE
8
BLACK
6
CONTINUOUS
10
1.1401128346456693
20
2.3794564566929135
11
1.1408661417322834
21
2.3796062992125986
0
LINE
8
BLACK
6
CONTINUOUS
10
1.1408661417322834
20
2.3796062992125986
11
1.2008661417322835
21
2.3796062992125986
0
LINE
8
BLACK
6
CONTINUOUS
10
1.2008661417322835
20
2.3796062992125986
11
1.2016194488188976
21
2.3794564566929135
0
LINE
8
BLACK
6
CONTINUOUS
10
1.3504383464566929
20
2.3794564566929135
11
1.351076968503937
21
2.3790297244094489
0
LINE
8
BLACK
6
CONTINUOUS
10
1.351076968503937
20
2.3790297244094489
11
1.3515037007874016
21
2.3783911023622046
0
LINE
8
BLACK
6
CONTINUOUS
10
1.3515037007874016
20
2.3783911023622046
11
1.3516535433070866
21
2.3776377952755907
0
LINE
8
BLACK
6
CONTINUOUS
10
1.3516535433070866
20
2.3776377952755907
11
1.3516535433070866
21
2.3176377952755907
0
LINE
8
BLACK
6
CONTINUOUS
10
1.3516535433070866
20
2.3176377952755907
11
1.3515037007874016
21
2.3168844881889763
0
LINE
8
BLACK
6
CONTINUOUS
10
1.3515037007874016
20
2.3168844881889763
11
1.351076968503937
21
2.3162458661417324
0
LINE
8
BLACK
6
CONTINUOUS
10
1.351076968503937
20
2.3162458661417324
11
1.3504383464566929
21
2.3158191338582679
0
LINE
8
BLACK
6
CONTINUOUS
10
1.3504383464566929
20
2.3158191338582679
11
1.3496850393700788
21
2.3156692913385828
0
LINE
8
BLACK
6
CONTINUOUS
10
1.3496850393700788
20
2.3156692913385828
11
1.2896850393700787
21
2.3156692913385828
0
LINE
8
BLACK
6
CONTINUOUS
10
1.2896850393700787
20
2.3156692913385828
11
1.2889317322834646
21
2.3158191338582679
0
LINE
8
BLACK
6
CONTINUOUS
10
1.2889317322834646
20
2.3158191338582679
11
1.2882931102362205
21
2.3162458661417324
0
LINE
8
BLACK
6
CONTINUOUS
10
1.2882931102362205
20
2.3162458661417324
11
1.2878663779527559
21
2.3168844881889763
0
LINE
8
BLACK
6
CONTINUOUS
10
1.2878663779527559
20
2.3168844881889763
11
1.2877165354330709
21
2.3176377952755907
0
LINE
8
BLACK
6
CONTINUOUS
10
1.2877165354330709
20
2.3176377952755907
11
1.2877165354330709
21
2.3776377952755907
0
LINE
8
BLACK
6
CONTINUOUS
10
1.2877165354330709
20
2.3776377952755907
11
1.2878663779527559
21
2.3783911023622046
0
LINE
8
BLACK
6
CONTINUOUS
10
1.2878663779527559
20
2.3783911023622046
11
1.2882931102362205
21
2.3790297244094489
0
LINE
8
BLACK
6
CONTINUOUS
10
1.2882931102362205
20
2.3790297244094489
11
1.2889317322834646
21
2.3794564566929135
0
LINE
8
BLACK
6
CONTINUOUS
10
1.2889317322834646
20
2.3794564566929135
11
1.2896850393700787
21
2.3796062992125986
0
LINE
8
BLACK
6
CONTINUOUS
10
1.2896850393700787
20
2.3796062992125986
11
1.3496850393700788
21
2.3796062992125986
0
LINE
8
BLACK
6
CONTINUOUS
10
1.3496850393700788
20
2.3796062992125986
11
1.3504383464566929
21
2.3794564566929135
0
LINE
8
BLACK
6
CONTINUOUS
10
1.4504383464566928
20
2.3794564566929135
11
1.4510769685039371
21
2.3790297244094489
0
LINE
8
BLACK
6
CONTINUOUS
10
1.4510769685039371
20
2.3790297244094489
11
1.4515037007874017
21
2.3783911023622046
0
LINE
8
BLACK
6
CONTINUOUS
10
1.4515037007874017
20
2.3783911023622046
11
1.4516535433070865
21
2.3776377952755907
0
LINE
8
BLACK
6
CONTINUOUS
10
1.4516535433070865
20
2.3776377952755907
11
1.4516535433070865
21
2.3176377952755907
0
LINE
8
BLACK
6
CONTINUOUS
10
1.4516535433070865
20
2.3176377952755907
11
1.4515037007874017
21
2.3168844881889763
0
LINE
8
BLACK
6
CONTINUOUS
10
1.4515037007874017
20
2.3168844881889763
11
1.4510769685039371
21
2.3162458661417324
0
LINE
8
BLACK
6
CONTINUOUS
10
1.4510769685039371
20
2.3162458661417324
11
1.4504383464566928
21
2.3158191338582679
0
LINE
8
BLACK
6
CONTINUOUS
10
1.4504383464566928
20
2.3158191338582679
11
1.4496850393700786
21
2.3156692913385828
0
LINE
8
BLACK
6
CONTINUOUS
10
1.4496850393700786
20
2.3156692913385828
11
1.3896850393700788
21
2.3156692913385828
0
LINE
8
BLACK
6
CONTINUOUS
10
1.3896850393700788
20
2.3156692913385828
11
1.3889317322834644
21
2.3158191338582679
0
LINE
8
BLACK
6
CONTINUOUS
10
1.3889317322834644
20
2.3158191338582679
11
1.3882931102362204
21
2.3162458661417324
0
LINE
8
BLACK
6
CONTINUOUS
10
1.3882931102362204
20
2.3162458661417324
11
1.3878663779527558
21
2.3168844881889763
0
LINE
8
BLACK
6
CONTINUOUS
10
1.3878663779527558
20
2.3168844881889763
11
1.3877165354330709
21
2.3176377952755907
0
LINE
8
BLACK
6
CONTINUOUS
10
1.3877165354330709
20
2.3176377952755907
11
1.3877165354330709
21
2.3776377952755907
0
LINE
8
BLACK
6
CONTINUOUS
10
1.3877165354330709
20
2.3776377952755907
11
1.3878663779527558
21
2.3783911023622046
0
LINE
8
BLACK
6
CONTINUOUS
10
1.3878663779527558
20
2.3783911023622046
11
1.3882931102362204
21
2.3790297244094489
0
LINE
8
BLACK
6
CONTINUOUS
10
1.3882931102362204
20
2.3790297244094489
11
1.3889317322834644
21
2.3794564566929135
0
LINE
8
BLACK
6
CONTINUOUS
10
1.3889317322834644
20
2.3794564566929135
11
1.3896850393700788
21
2.3796062992125986
0
LINE
8
BLACK
6
CONTINUOUS
10
1.3896850393700788
20
2.3796062992125986
11
1.4496850393700786
21
2.3796062992125986
0
LINE
8
BLACK
6
CONTINUOUS
10
1.4496850393700786
20
2.3796062992125986
11
1.4504383464566928
21
2.3794564566929135
0
LINE
8
BLACK
6
CONTINUOUS
10
1.5504383464566929
20
2.3794564566929135
11
1.5510769685039369
21
2.3790297244094489
0
LINE
8
BLACK
6
CONTINUOUS
10
1.5510769685039369
20
2.3790297244094489
11
1.5515037007874015
21
2.3783911023622046
0
LINE
8
BLACK
6
CONTINUOUS
10
1.5515037007874015
20
2.3783911023622046
11
1.5516535433070866
21
2.3776377952755907
0
LINE
8
BLACK
6
CONTINUOUS
10
1.5516535433070866
20
2.3776377952755907
11
1.5516535433070866
21
2.3176377952755907
0
LINE
8
BLACK
6
CONTINUOUS
10
1.5516535433070866
20
2.3176377952755907
11
1.5515037007874015
21
2.3168844881889763
0
LINE
8
BLACK
6
CONTINUOUS
10
1.5515037007874015
20
2.3168844881889763
11
1.5510769685039369
21
2.3162458661417324
0
LINE
8
BLACK
6
CONTINUOUS
10
1.5510769685039369
20
2.3162458661417324
11
1.5504383464566929
21
2.3158191338582679
0
LINE
8
BLACK
6
CONTINUOUS
10
1.5504383464566929
20
2.3158191338582679
11
1.5496850393700787
21
2.3156692913385828
0
LINE
8
BLACK
6
CONTINUOUS
10
1.5496850393700787
20
2.3156692913385828
11
1.4896850393700787
21
2.3156692913385828
0
LINE
8
BLACK
6
CONTINUOUS
10
1.4896850393700787
20
2.3156692913385828
11
1.4889317322834645
21
2.3158191338582679
0
LINE
8
BLACK
6
CONTINUOUS
10
1.4889317322834645
20
2.3158191338582679
11
1.4882931102362205
21
2.3162458661417324
0
LINE
8
BLACK
6
CONTINUOUS
10
1.4882931102362205
20
2.3162458661417324
11
1.4878663779527559
21
2.3168844881889763
0
LINE
8
BLACK
6
CONTINUOUS
10
1.4878663779527559
20
2.3168844881889763
11
1.4877165354330708
21
2.3176377952755907
0
LINE
8
BLACK
6
CONTINUOUS
10
1.4877165354330708
20
2.3176377952755907
11
1.4877165354330708
21
2.3776377952755907
0
LINE
8
BLACK
6
CONTINUOUS
10
1.4877165354330708
20
2.3776377952755907
11
1.4878663779527559
21
2.3783911023622046
0
LINE
8
BLACK
6
CONTINUOUS
10
1.4878663779527559
20
2.3783911023622046
11
1.4882931102362205
21
2.3790297244094489
0
LINE
8
BLACK
6
CONTINUOUS
10
1.4882931102362205
20
2.3790297244094489
11
1.4889317322834645
21
2.3794564566929135
0
LINE
8
BLACK
6
CONTINUOUS
10
1.4889317322834645
20
2.3794564566929135
11
1.4896850393700787
21
2.3796062992125986
0
LINE
8
BLACK
6
CONTINUOUS
10
1.4896850393700787
20
2.3796062992125986
11
1.5496850393700787
21
2.3796062992125986
0
LINE
8
BLACK
6
CONTINUOUS
10
1.5496850393700787
20
2.3796062992125986
11
1.5504383464566929
21
2.3794564566929135
0
LINE
8
BLACK
6
CONTINUOUS
10
1.650438346456693
20
2.3794564566929135
11
1.651076968503937
21
2.3790297244094489
0
LINE
8
BLACK
6
CONTINUOUS
10
1.651076968503937
20
2.3790297244094489
11
1.6515037007874016
21
2.3783911023622046
0
LINE
8
BLACK
6
CONTINUOUS
10
1.6515037007874016
20
2.3783911023622046
11
1.6516535433070865
21
2.3776377952755907
0
LINE
8
BLACK
6
CONTINUOUS
10
1.6516535433070865
20
2.3776377952755907
11
1.6516535433070865
21
2.3176377952755907
0
LINE
8
BLACK
6
CONTINUOUS
10
1.6516535433070865
20
2.3176377952755907
11
1.6515037007874016
21
2.3168844881889763
0
LINE
8
BLACK
6
CONTINUOUS
10
1.6515037007874016
20
2.3168844881889763
11
1.651076968503937
21
2.3162458661417324
0
LINE
8
BLACK
6
CONTINUOUS
10
1.651076968503937
20
2.3162458661417324
11
1.650438346456693
21
2.3158191338582679
0
LINE
8
BLACK
6
CONTINUOUS
10
1.650438346456693
20
2.3158191338582679
11
1.6496850393700786
21
2.3156692913385828
0
LINE
8
BLACK
6
CONTINUOUS
10
1.6496850393700786
20
2.3156692913385828
11
1.5896850393700788
21
2.3156692913385828
0
LINE
8
BLACK
6
CONTINUOUS
10
1.5896850393700788
20
2.3156692913385828
11
1.5889317322834646
21
2.3158191338582679
0
LINE
8
BLACK
6
CONTINUOUS
10
1.5889317322834646
20
2.3158191338582679
11
1.5882931102362203
21
2.3162458661417324
0
LINE
8
BLACK
6
CONTINUOUS
10
1.5882931102362203
20
2.3162458661417324
11
1.5878663779527558
21
2.3168844881889763
0
LINE
8
BLACK
6
CONTINUOUS
10
1.5878663779527558
20
2.3168844881889763
11
1.5877165354330709
21
2.3176377952755907
0
LINE
8
BLACK
6
CONTINUOUS
10
1.5877165354330709
20
2.3176377952755907
11
1.5877165354330709
21
2.3776377952755907
0
LINE
8
BLACK
6
CONTINUOUS
10
1.5877165354330709
20
2.3776377952755907
11
1.5878663779527558
21
2.3783911023622046
0
LINE
8
BLACK
6
CONTINUOUS
10
1.5878663779527558
20
2.3783911023622046
11
1.5882931102362203
21
2.3790297244094489
0
LINE
8
BLACK
6
CONTINUOUS
10
1.5882931102362203
20
2.3790297244094489
11
1.5889317322834646
21
2.3794564566929135
0
LINE
8
BLACK
6
CONTINUOUS
10
1.5889317322834646
20
2.3794564566929135
11
1.5896850393700788
21
2.3796062992125986
0
LINE
8
BLACK
6
CONTINUOUS
10
1.5896850393700788
20
2.3796062992125986
11
1.6496850393700786
21
2.3796062992125986
0
LINE
8
BLACK
6
CONTINUOUS
10
1.6496850393700786
20
2.3796062992125986
11
1.650438346456693
21
2.3794564566929135
0
LINE
8
BLACK
6
CONTINUOUS
10
1.7504383464566928
20
2.3794564566929135
11
1.7510769685039369
21
2.3790297244094489
0
LINE
8
BLACK
6
CONTINUOUS
10
1.7510769685039369
20
2.3790297244094489
11
1.7515037007874015
21
2.3783911023622046
0
LINE
8
BLACK
6
CONTINUOUS
10
1.7515037007874015
20
2.3783911023622046
11
1.7516535433070866
21
2.3776377952755907
0
LINE
8
BLACK
6
CONTINUOUS
10
1.7516535433070866
20
2.3776377952755907
11
1.7516535433070866
21
2.3176377952755907
0
LINE
8
BLACK
6
CONTINUOUS
10
1.7516535433070866
20
2.3176377952755907
11
1.7515037007874015
21
2.3168844881889763
0
LINE
8
BLACK
6
CONTINUOUS
10
1.7515037007874015
20
2.3168844881889763
11
1.7510769685039369
21
2.3162458661417324
0
LINE
8
BLACK
6
CONTINUOUS
10
1.7510769685039369
20
2.3162458661417324
11
1.7504383464566928
21
2.3158191338582679
0
LINE
8
BLACK
6
CONTINUOUS
10
1.7504383464566928
20
2.3158191338582679
11
1.7496850393700787
21
2.3156692913385828
0
LINE
8
BLACK
6
CONTINUOUS
10
1.7496850393700787
20
2.3156692913385828
11
1.6896850393700786
21
2.3156692913385828
0
LINE
8
BLACK
6
CONTINUOUS
10
1.6896850393700786
20
2.3156692913385828
11
1.6889317322834645
21
2.3158191338582679
0
LINE
8
BLACK
6
CONTINUOUS
10
1.6889317322834645
20
2.3158191338582679
11
1.6882931102362204
21
2.3162458661417324
0
LINE
8
BLACK
6
CONTINUOUS
10
1.6882931102362204
20
2.3162458661417324
11
1.6878663779527558
21
2.3168844881889763
0
LINE
8
BLACK
6
CONTINUOUS
10
1.6878663779527558
20
2.3168844881889763
11
1.6877165354330708
21
2.3176377952755907
0
LINE
8
BLACK
6
CONTINUOUS
10
1.6877165354330708
20
2.3176377952755907
11
1.6877165354330708
21
2.3776377952755907
0
LINE
8
BLACK
6
CONTINUOUS
10
1.6877165354330708
20
2.3776377952755907
11
1.6878663779527558
21
2.3783911023622046
0
LINE
8
BLACK
6
CONTINUOUS
10
1.6878663779527558
20
2.3783911023622046
11
1.6882931102362204
21
2.3790297244094489
0
LINE
8
BLACK
6
CONTINUOUS
10
1.6882931102362204
20
2.3790297244094489
11
1.6889317322834645
21
2.3794564566929135
0
LINE
8
BLACK
6
CONTINUOUS
10
1.6889317322834645
20
2.3794564566929135
11
1.6896850393700786
21
2.3796062992125986
0
LINE
8
BLACK
6
CONTINUOUS
10
1.6896850393700786
20
2.3796062992125986
11
1.7496850393700787
21
2.3796062992125986
0
LINE
8
BLACK
6
CONTINUOUS
10
1.7496850393700787
20
2.3796062992125986
11
1.7504383464566928
21
2.3794564566929135
0
LINE
8
BLACK
6
CONTINUOUS
10
0.861461968503937
20
2.3822123622047244
11
0.862100590551181
21
2.3817856299212599
0
LINE
8
BLACK
6
CONTINUOUS
10
0.862100590551181
20
2.3817856299212599
11
0.8625273228346456
21
2.3811470078740156
0
LINE
8
BLACK
6
CONTINUOUS
10
0.8625273228346456
20
2.3811470078740156
11
0.8626771653543307
21
2.3803937007874016
0
LINE
8
BLACK
6
CONTINUOUS
10
0.8626771653543307
20
2.3803937007874016
11
0.8626771653543307
21
2.3203937007874016
0
LINE
8
BLACK
6
CONTINUOUS
10
0.8626771653543307
20
2.3203937007874016
11
0.8625273228346456
21
2.3196403937007872
0
LINE
8
BLACK
6
CONTINUOUS
10
0.8625273228346456
20
2.3196403937007872
11
0.862100590551181
21
2.3190017716535434
0
LINE
8
BLACK
6
CONTINUOUS
10
0.862100590551181
20
2.3190017716535434
11
0.861461968503937
21
2.3185750393700788
0
LINE
8
BLACK
6
CONTINUOUS
10
0.861461968503937
20
2.3185750393700788
11
0.8607086614173228
21
2.3184251968503937
0
LINE
8
BLACK
6
CONTINUOUS
10
0.8607086614173228
20
2.3184251968503937
11
0.8007086614173228
21
2.3184251968503937
0
LINE
8
BLACK
6
CONTINUOUS
10
0.8007086614173228
20
2.3184251968503937
11
0.7999553543307086
21
2.3185750393700788
0
LINE
8
BLACK
6
CONTINUOUS
10
0.7999553543307086
20
2.3185750393700788
11
0.7993167322834646
21
2.3190017716535434
0
LINE
8
BLACK
6
CONTINUOUS
10
0.7993167322834646
20
2.3190017716535434
11
0.79889
21
2.3196403937007872
0
LINE
8
BLACK
6
CONTINUOUS
10
0.79889
20
2.3196403937007872
11
0.7987401574803149
21
2.3203937007874016
0
LINE
8
BLACK
6
CONTINUOUS
10
0.7987401574803149
20
2.3203937007874016
11
0.7987401574803149
21
2.3803937007874016
0
LINE
8
BLACK
6
CONTINUOUS
10
0.7987401574803149
20
2.3803937007874016
11
0.79889
21
2.3811470078740156
0
LINE
8
BLACK
6
CONTINUOUS
10
0.79889
20
2.3811470078740156
11
0.7993167322834646
21
2.3817856299212599
0
LINE
8
BLACK
6
CONTINUOUS
10
0.7993167322834646
20
2.3817856299212599
11
0.7999553543307086
21
2.3822123622047244
0
LINE
8
BLACK
6
CONTINUOUS
10
0.7999553543307086
20
2.3822123622047244
11
0.8007086614173228
21
2.3823622047244095
0
LINE
8
BLACK
6
CONTINUOUS
10
0.8007086614173228
20
2.3823622047244095
11
0.8607086614173228
21
2.3823622047244095
0
LINE
8
BLACK
6
CONTINUOUS
10
0.8607086614173228
20
2.3823622047244095
11
0.861461968503937
21
2.3822123622047244
0
LINE
8
BLACK
6
CONTINUOUS
10
0.261461968503937
20
2.4794564566929131
11
0.2621005905511811
21
2.4790297244094486
0
LINE
8
BLACK
6
CONTINUOUS
10
0.2621005905511811
20
2.4790297244094486
11
0.2625273228346456
21
2.4783911023622047
0
LINE
8
BLACK
6
CONTINUOUS
10
0.2625273228346456
20
2.4783911023622047
11
0.2626771653543307
21
2.4776377952755904
0
LINE
8
BLACK
6
CONTINUOUS
10
0.2626771653543307
20
2.4776377952755904
11
0.2626771653543307
21
2.4176377952755903
0
LINE
8
BLACK
6
CONTINUOUS
10
0.2626771653543307
20
2.4176377952755903
11
0.2625273228346456
21
2.4168844881889764
0
LINE
8
BLACK
6
CONTINUOUS
10
0.2625273228346456
20
2.4168844881889764
11
0.2621005905511811
21
2.4162458661417321
0
LINE
8
BLACK
6
CONTINUOUS
10
0.2621005905511811
20
2.4162458661417321
11
0.261461968503937
21
2.4158191338582675
0
LINE
8
BLACK
6
CONTINUOUS
10
0.261461968503937
20
2.4158191338582675
11
0.2607086614173229
21
2.4156692913385824
0
LINE
8
BLACK
6
CONTINUOUS
10
0.2607086614173229
20
2.4156692913385824
11
0.2007086614173228
21
2.4156692913385824
0
LINE
8
BLACK
6
CONTINUOUS
10
0.2007086614173228
20
2.4156692913385824
11
0.1999553543307087
21
2.4158191338582675
0
LINE
8
BLACK
6
CONTINUOUS
10
0.1999553543307087
20
2.4158191338582675
11
0.1993167322834646
21
2.4162458661417321
0
LINE
8
BLACK
6
CONTINUOUS
10
0.1993167322834646
20
2.4162458661417321
11
0.19889
21
2.4168844881889764
0
LINE
8
BLACK
6
CONTINUOUS
10
0.19889
20
2.4168844881889764
11
0.198740157480315
21
2.4176377952755903
0
LINE
8
BLACK
6
CONTINUOUS
10
0.198740157480315
20
2.4176377952755903
11
0.198740157480315
21
2.4776377952755904
0
LINE
8
BLACK
6
CONTINUOUS
10
0.198740157480315
20
2.4776377952755904
11
0.19889
21
2.4783911023622047
0
LINE
8
BLACK
6
CONTINUOUS
10
0.19889
20
2.4783911023622047
11
0.1993167322834646
21
2.4790297244094486
0
LINE
8
BLACK
6
CONTINUOUS
10
0.1993167322834646
20
2.4790297244094486
11
0.1999553543307087
21
2.4794564566929131
0
LINE
8
BLACK
6
CONTINUOUS
10
0.1999553543307087
20
2.4794564566929131
11
0.2007086614173228
21
2.4796062992125982
0
LINE
8
BLACK
6
CONTINUOUS
10
0.2007086614173228
20
2.4796062992125982
11
0.2607086614173229
21
2.4796062992125982
0
LINE
8
BLACK
6
CONTINUOUS
10
0.2607086614173229
20
2.4796062992125982
11
0.261461968503937
21
2.4794564566929131
0
LINE
8
BLACK
6
CONTINUOUS
10
0.361461968503937
20
2.4794564566929131
11
0.3621005905511811
21
2.4790297244094486
0
LINE
8
BLACK
6
CONTINUOUS
10
0.3621005905511811
20
2.4790297244094486
11
0.3625273228346457
21
2.4783911023622047
0
LINE
8
BLACK
6
CONTINUOUS
10
0.3625273228346457
20
2.4783911023622047
11
0.3626771653543307
21
2.4776377952755904
0
LINE
8
BLACK
6
CONTINUOUS
10
0.3626771653543307
20
2.4776377952755904
11
0.3626771653543307
21
2.4176377952755903
0
LINE
8
BLACK
6
CONTINUOUS
10
0.3626771653543307
20
2.4176377952755903
11
0.3625273228346457
21
2.4168844881889764
0
LINE
8
BLACK
6
CONTINUOUS
10
0.3625273228346457
20
2.4168844881889764
11
0.3621005905511811
21
2.4162458661417321
0
LINE
8
BLACK
6
CONTINUOUS
10
0.3621005905511811
20
2.4162458661417321
11
0.361461968503937
21
2.4158191338582675
0
LINE
8
BLACK
6
CONTINUOUS
10
0.361461968503937
20
2.4158191338582675
11
0.3607086614173228
21
2.4156692913385824
0
LINE
8
BLACK
6
CONTINUOUS
10
0.3607086614173228
20
2.4156692913385824
11
0.3007086614173228
21
2.4156692913385824
0
LINE
8
BLACK
6
CONTINUOUS
10
0.3007086614173228
20
2.4156692913385824
11
0.2999553543307086
21
2.4158191338582675
0
LINE
8
BLACK
6
CONTINUOUS
10
0.2999553543307086
20
2.4158191338582675
11
0.2993167322834646
21
2.4162458661417321
0
LINE
8
BLACK
6
CONTINUOUS
10
0.2993167322834646
20
2.4162458661417321
11
0.29889
21
2.4168844881889764
0
LINE
8
BLACK
6
CONTINUOUS
10
0.29889
20
2.4168844881889764
11
0.298740157480315
21
2.4176377952755903
0
LINE
8
BLACK
6
CONTINUOUS
10
0.298740157480315
20
2.4176377952755903
11
0.298740157480315
21
2.4776377952755904
0
LINE
8
BLACK
6
CONTINUOUS
10
0.298740157480315
20
2.4776377952755904
11
0.29889
21
2.4783911023622047
0
LINE
8
BLACK
6
CONTINUOUS
10
0.29889
20
2.4783911023622047
11
0.2993167322834646
21
2.4790297244094486
0
LINE
8
BLACK
6
CONTINUOUS
10
0.2993167322834646
20
2.4790297244094486
11
0.2999553543307086
21
2.4794564566929131
0
LINE
8
BLACK
6
CONTINUOUS
10
0.2999553543307086
20
2.4794564566929131
11
0.3007086614173228
21
2.4796062992125982
0
LINE
8
BLACK
6
CONTINUOUS
10
0.3007086614173228
20
2.4796062992125982
11
0.3607086614173228
21
2.4796062992125982
0
LINE
8
BLACK
6
CONTINUOUS
10
0.3607086614173228
20
2.4796062992125982
11
0.361461968503937
21
2.4794564566929131
0
LINE
8
BLACK
6
CONTINUOUS
10
0.461461968503937
20
2.4794564566929131
11
0.4621005905511811
21
2.4790297244094486
0
LINE
8
BLACK
6
CONTINUOUS
10
0.4621005905511811
20
2.4790297244094486
11
0.4625273228346456
21
2.4783911023622047
0
LINE
8
BLACK
6
CONTINUOUS
10
0.4625273228346456
20
2.4783911023622047
11
0.4626771653543307
21
2.4776377952755904
0
LINE
8
BLACK
6
CONTINUOUS
10
0.4626771653543307
20
2.4776377952755904
11
0.4626771653543307
21
2.4176377952755903
0
LINE
8
BLACK
6
CONTINUOUS
10
0.4626771653543307
20
2.4176377952755903
11
0.4625273228346456
21
2.4168844881889764
0
LINE
8
BLACK
6
CONTINUOUS
10
0.4625273228346456
20
2.4168844881889764
11
0.4621005905511811
21
2.4162458661417321
0
LINE
8
BLACK
6
CONTINUOUS
10
0.4621005905511811
20
2.4162458661417321
11
0.461461968503937
21
2.4158191338582675
0
LINE
8
BLACK
6
CONTINUOUS
10
0.461461968503937
20
2.4158191338582675
11
0.4607086614173228
21
2.4156692913385824
0
LINE
8
BLACK
6
CONTINUOUS
10
0.4607086614173228
20
2.4156692913385824
11
0.4007086614173228
21
2.4156692913385824
0
LINE
8
BLACK
6
CONTINUOUS
10
0.4007086614173228
20
2.4156692913385824
11
0.3999553543307087
21
2.4158191338582675
0
LINE
8
BLACK
6
CONTINUOUS
10
0.3999553543307087
20
2.4158191338582675
11
0.3993167322834645
21
2.4162458661417321
0
LINE
8
BLACK
6
CONTINUOUS
10
0.3993167322834645
20
2.4162458661417321
11
0.39889
21
2.4168844881889764
0
LINE
8
BLACK
6
CONTINUOUS
10
0.39889
20
2.4168844881889764
11
0.3987401574803149
21
2.4176377952755903
0
LINE
8
BLACK
6
CONTINUOUS
10
0.3987401574803149
20
2.4176377952755903
11
0.3987401574803149
21
2.4776377952755904
0
LINE
8
BLACK
6
CONTINUOUS
10
0.3987401574803149
20
2.4776377952755904
11
0.39889
21
2.4783911023622047
0
LINE
8
BLACK
6
CONTINUOUS
10
0.39889
20
2.4783911023622047
11
0.3993167322834645
21
2.4790297244094486
0
LINE
8
BLACK
6
CONTINUOUS
10
0.3993167322834645
20
2.4790297244094486
11
0.3999553543307087
21
2.4794564566929131
0
LINE
8
BLACK
6
CONTINUOUS
10
0.3999553543307087
20
2.4794564566929131
11
0.4007086614173228
21
2.4796062992125982
0
LINE
8
BLACK
6
CONTINUOUS
10
0.4007086614173228
20
2.4796062992125982
11
0.4607086614173228
21
2.4796062992125982
0
LINE
8
BLACK
6
CONTINUOUS
10
0.4607086614173228
20
2.4796062992125982
11
0.461461968503937
21
2.4794564566929131
0
LINE
8
BLACK
6
CONTINUOUS
10
0.6008320472440944
20
2.4794564566929131
11
0.6014706692913385
21
2.4790297244094486
0
LINE
8
BLACK
6
CONTINUOUS
10
0.6014706692913385
20
2.4790297244094486
11
0.6018974015748031
21
2.4783911023622047
0
LINE
8
BLACK
6
CONTINUOUS
10
0.6018974015748031
20
2.4783911023622047
11
0.6020472440944882
21
2.4776377952755904
0
LINE
8
BLACK
6
CONTINUOUS
10
0.6020472440944882
20
2.4776377952755904
11
0.6020472440944882
21
2.4176377952755903
0
LINE
8
BLACK
6
CONTINUOUS
10
0.6020472440944882
20
2.4176377952755903
11
0.6018974015748031
21
2.4168844881889764
0
LINE
8
BLACK
6
CONTINUOUS
10
0.6018974015748031
20
2.4168844881889764
11
0.6014706692913385
21
2.4162458661417321
0
LINE
8
BLACK
6
CONTINUOUS
10
0.6014706692913385
20
2.4162458661417321
11
0.6008320472440944
21
2.4158191338582675
0
LINE
8
BLACK
6
CONTINUOUS
10
0.6008320472440944
20
2.4158191338582675
11
0.6000787401574803
21
2.4156692913385824
0
LINE
8
BLACK
6
CONTINUOUS
10
0.6000787401574803
20
2.4156692913385824
11
0.5400787401574803
21
2.4156692913385824
0
LINE
8
BLACK
6
CONTINUOUS
10
0.5400787401574803
20
2.4156692913385824
11
0.5393254330708661
21
2.4158191338582675
0
LINE
8
BLACK
6
CONTINUOUS
10
0.5393254330708661
20
2.4158191338582675
11
0.538686811023622
21
2.4162458661417321
0
LINE
8
BLACK
6
CONTINUOUS
10
0.538686811023622
20
2.4162458661417321
11
0.5382600787401575
21
2.4168844881889764
0
LINE
8
BLACK
6
CONTINUOUS
10
0.5382600787401575
20
2.4168844881889764
11
0.5381102362204724
21
2.4176377952755903
0
LINE
8
BLACK
6
CONTINUOUS
10
0.5381102362204724
20
2.4176377952755903
11
0.5381102362204724
21
2.4776377952755904
0
LINE
8
BLACK
6
CONTINUOUS
10
0.5381102362204724
20
2.4776377952755904
11
0.5382600787401575
21
2.4783911023622047
0
LINE
8
BLACK
6
CONTINUOUS
10
0.5382600787401575
20
2.4783911023622047
11
0.538686811023622
21
2.4790297244094486
0
LINE
8
BLACK
6
CONTINUOUS
10
0.538686811023622
20
2.4790297244094486
11
0.5393254330708661
21
2.4794564566929131
0
LINE
8
BLACK
6
CONTINUOUS
10
0.5393254330708661
20
2.4794564566929131
11
0.5400787401574803
21
2.4796062992125982
0
LINE
8
BLACK
6
CONTINUOUS
10
0.5400787401574803
20
2.4796062992125982
11
0.6000787401574803
21
2.4796062992125982
0
LINE
8
BLACK
6
CONTINUOUS
10
0.6000787401574803
20
2.4796062992125982
11
0.6008320472440944
21
2.4794564566929131
0
LINE
8
BLACK
6
CONTINUOUS
10
0.7008320472440944
20
2.4794564566929131
11
0.7014706692913386
21
2.4790297244094486
0
LINE
8
BLACK
6
CONTINUOUS
10
0.7014706692913386
20
2.4790297244094486
11
0.7018974015748032
21
2.4783911023622047
0
LINE
8
BLACK
6
CONTINUOUS
10
0.7018974015748032
20
2.4783911023622047
11
0.7020472440944882
21
2.4776377952755904
0
LINE
8
BLACK
6
CONTINUOUS
10
0.7020472440944882
20
2.4776377952755904
11
0.7020472440944882
21
2.4176377952755903
0
LINE
8
BLACK
6
CONTINUOUS
10
0.7020472440944882
20
2.4176377952755903
11
0.7018974015748032
21
2.4168844881889764
0
LINE
8
BLACK
6
CONTINUOUS
10
0.7018974015748032
20
2.4168844881889764
11
0.7014706692913386
21
2.4162458661417321
0
LINE
8
BLACK
6
CONTINUOUS
10
0.7014706692913386
20
2.4162458661417321
11
0.7008320472440944
21
2.4158191338582675
0
LINE
8
BLACK
6
CONTINUOUS
10
0.7008320472440944
20
2.4158191338582675
11
0.7000787401574803
21
2.4156692913385824
0
LINE
8
BLACK
6
CONTINUOUS
10
0.7000787401574803
20
2.4156692913385824
11
0.6400787401574803
21
2.4156692913385824
0
LINE
8
BLACK
6
CONTINUOUS
10
0.6400787401574803
20
2.4156692913385824
11
0.6393254330708661
21
2.4158191338582675
0
LINE
8
BLACK
6
CONTINUOUS
10
0.6393254330708661
20
2.4158191338582675
11
0.638686811023622
21
2.4162458661417321
0
LINE
8
BLACK
6
CONTINUOUS
10
0.638686811023622
20
2.4162458661417321
11
0.6382600787401574
21
2.4168844881889764
0
LINE
8
BLACK
6
CONTINUOUS
10
0.6382600787401574
20
2.4168844881889764
11
0.6381102362204725
21
2.4176377952755903
0
LINE
8
BLACK
6
CONTINUOUS
10
0.6381102362204725
20
2.4176377952755903
11
0.6381102362204725
21
2.4776377952755904
0
LINE
8
BLACK
6
CONTINUOUS
10
0.6381102362204725
20
2.4776377952755904
11
0.6382600787401574
21
2.4783911023622047
0
LINE
8
BLACK
6
CONTINUOUS
10
0.6382600787401574
20
2.4783911023622047
11
0.638686811023622
21
2.4790297244094486
0
LINE
8
BLACK
6
CONTINUOUS
10
0.638686811023622
20
2.4790297244094486
11
0.6393254330708661
21
2.4794564566929131
0
LINE
8
BLACK
6
CONTINUOUS
10
0.6393254330708661
20
2.4794564566929131
11
0.6400787401574803
21
2.4796062992125982
0
LINE
8
BLACK
6
CONTINUOUS
10
0.6400787401574803
20
2.4796062992125982
11
0.7000787401574803
21
2.4796062992125982
0
LINE
8
BLACK
6
CONTINUOUS
10
0.7000787401574803
20
2.4796062992125982
11
0.7008320472440944
21
2.4794564566929131
0
LINE
8
BLACK
6
CONTINUOUS
10
1.0016194488188976
20
2.4794564566929131
11
1.0022580708661417
21
2.4790297244094486
0
LINE
8
BLACK
6
CONTINUOUS
10
1.0022580708661417
20
2.4790297244094486
11
1.0026848031496063
21
2.4783911023622047
0
LINE
8
BLACK
6
CONTINUOUS
10
1.0026848031496063
20
2.4783911023622047
11
1.0028346456692914
21
2.4776377952755904
0
LINE
8
BLACK
6
CONTINUOUS
10
1.0028346456692914
20
2.4776377952755904
11
1.0028346456692914
21
2.4176377952755903
0
LINE
8
BLACK
6
CONTINUOUS
10
1.0028346456692914
20
2.4176377952755903
11
1.0026848031496063
21
2.4168844881889764
0
LINE
8
BLACK
6
CONTINUOUS
10
1.0026848031496063
20
2.4168844881889764
11
1.0022580708661417
21
2.4162458661417321
0
LINE
8
BLACK
6
CONTINUOUS
10
1.0022580708661417
20
2.4162458661417321
11
1.0016194488188976
21
2.4158191338582675
0
LINE
8
BLACK
6
CONTINUOUS
10
1.0016194488188976
20
2.4158191338582675
11
1.0008661417322835
21
2.4156692913385824
0
LINE
8
BLACK
6
CONTINUOUS
10
1.0008661417322835
20
2.4156692913385824
11
0.9408661417322834
21
2.4156692913385824
0
LINE
8
BLACK
6
CONTINUOUS
10
0.9408661417322834
20
2.4156692913385824
11
0.9401128346456693
21
2.4158191338582675
0
LINE
8
BLACK
6
CONTINUOUS
10
0.9401128346456693
20
2.4158191338582675
11
0.9394742125984252
21
2.4162458661417321
0
LINE
8
BLACK
6
CONTINUOUS
10
0.9394742125984252
20
2.4162458661417321
11
0.9390474803149607
21
2.4168844881889764
0
LINE
8
BLACK
6
CONTINUOUS
10
0.9390474803149607
20
2.4168844881889764
11
0.9388976377952756
21
2.4176377952755903
0
LINE
8
BLACK
6
CONTINUOUS
10
0.9388976377952756
20
2.4176377952755903
11
0.9388976377952756
21
2.4776377952755904
0
LINE
8
BLACK
6
CONTINUOUS
10
0.9388976377952756
20
2.4776377952755904
11
0.9390474803149607
21
2.4783911023622047
0
LINE
8
BLACK
6
CONTINUOUS
10
0.9390474803149607
20
2.4783911023622047
11
0.9394742125984252
21
2.4790297244094486
0
LINE
8
BLACK
6
CONTINUOUS
10
0.9394742125984252
20
2.4790297244094486
11
0.9401128346456693
21
2.4794564566929131
0
LINE
8
BLACK
6
CONTINUOUS
10
0.9401128346456693
20
2.4794564566929131
11
0.9408661417322834
21
2.4796062992125982
0
LINE
8
BLACK
6
CONTINUOUS
10
0.9408661417322834
20
2.4796062992125982
11
1.0008661417322835
21
2.4796062992125982
0
LINE
8
BLACK
6
CONTINUOUS
10
1.0008661417322835
20
2.4796062992125982
11
1.0016194488188976
21
2.4794564566929131
0
LINE
8
BLACK
6
CONTINUOUS
10
1.1016194488188975
20
2.4794564566929131
11
1.1022580708661418
21
2.4790297244094486
0
LINE
8
BLACK
6
CONTINUOUS
10
1.1022580708661418
20
2.4790297244094486
11
1.1026848031496064
21
2.4783911023622047
0
LINE
8
BLACK
6
CONTINUOUS
10
1.1026848031496064
20
2.4783911023622047
11
1.1028346456692912
21
2.4776377952755904
0
LINE
8
BLACK
6
CONTINUOUS
10
1.1028346456692912
20
2.4776377952755904
11
1.1028346456692912
21
2.4176377952755903
0
LINE
8
BLACK
6
CONTINUOUS
10
1.1028346456692912
20
2.4176377952755903
11
1.1026848031496064
21
2.4168844881889764
0
LINE
8
BLACK
6
CONTINUOUS
10
1.1026848031496064
20
2.4168844881889764
11
1.1022580708661418
21
2.4162458661417321
0
LINE
8
BLACK
6
CONTINUOUS
10
1.1022580708661418
20
2.4162458661417321
11
1.1016194488188975
21
2.4158191338582675
0
LINE
8
BLACK
6
CONTINUOUS
10
1.1016194488188975
20
2.4158191338582675
11
1.1008661417322834
21
2.4156692913385824
0
LINE
8
BLACK
6
CONTINUOUS
10
1.1008661417322834
20
2.4156692913385824
11
1.0408661417322835
21
2.4156692913385824
0
LINE
8
BLACK
6
CONTINUOUS
10
1.0408661417322835
20
2.4156692913385824
11
1.0401128346456692
21
2.4158191338582675
0
LINE
8
BLACK
6
CONTINUOUS
10
1.0401128346456692
20
2.4158191338582675
11
1.0394742125984251
21
2.4162458661417321
0
LINE
8
BLACK
6
CONTINUOUS
10
1.0394742125984251
20
2.4162458661417321
11
1.0390474803149605
21
2.4168844881889764
0
LINE
8
BLACK
6
CONTINUOUS
10
1.0390474803149605
20
2.4168844881889764
11
1.0388976377952757
21
2.4176377952755903
0
LINE
8
BLACK
6
CONTINUOUS
10
1.0388976377952757
20
2.4176377952755903
11
1.0388976377952757
21
2.4776377952755904
0
LINE
8
BLACK
6
CONTINUOUS
10
1.0388976377952757
20
2.4776377952755904
11
1.0390474803149605
21
2.4783911023622047
0
LINE
8
BLACK
6
CONTINUOUS
10
1.0390474803149605
20
2.4783911023622047
11
1.0394742125984251
21
2.4790297244094486
0
LINE
8
BLACK
6
CONTINUOUS
10
1.0394742125984251
20
2.4790297244094486
11
1.0401128346456692
21
2.4794564566929131
0
LINE
8
BLACK
6
CONTINUOUS
10
1.0401128346456692
20
2.4794564566929131
11
1.0408661417322835
21
2.4796062992125982
0
LINE
8
BLACK
6
CONTINUOUS
10
1.0408661417322835
20
2.4796062992125982
11
1.1008661417322834
21
2.4796062992125982
0
LINE
8
BLACK
6
CONTINUOUS
10
1.1008661417322834
20
2.4796062992125982
11
1.1016194488188975
21
2.4794564566929131
0
LINE
8
BLACK
6
CONTINUOUS
10
1.2016194488188976
20
2.4794564566929131
11
1.2022580708661417
21
2.4790297244094486
0
LINE
8
BLACK
6
CONTINUOUS
10
1.2022580708661417
20
2.4790297244094486
11
1.2026848031496062
21
2.4783911023622047
0
LINE
8
BLACK
6
CONTINUOUS
10
1.2026848031496062
20
2.4783911023622047
11
1.2028346456692913
21
2.4776377952755904
0
LINE
8
BLACK
6
CONTINUOUS
10
1.2028346456692913
20
2.4776377952755904
11
1.2028346456692913
21
2.4176377952755903
0
LINE
8
BLACK
6
CONTINUOUS
10
1.2028346456692913
20
2.4176377952755903
11
1.2026848031496062
21
2.4168844881889764
0
LINE
8
BLACK
6
CONTINUOUS
10
1.2026848031496062
20
2.4168844881889764
11
1.2022580708661417
21
2.4162458661417321
0
LINE
8
BLACK
6
CONTINUOUS
10
1.2022580708661417
20
2.4162458661417321
11
1.2016194488188976
21
2.4158191338582675
0
LINE
8
BLACK
6
CONTINUOUS
10
1.2016194488188976
20
2.4158191338582675
11
1.2008661417322835
21
2.4156692913385824
0
LINE
8
BLACK
6
CONTINUOUS
10
1.2008661417322835
20
2.4156692913385824
11
1.1408661417322834
21
2.4156692913385824
0
LINE
8
BLACK
6
CONTINUOUS
10
1.1408661417322834
20
2.4156692913385824
11
1.1401128346456693
21
2.4158191338582675
0
LINE
8
BLACK
6
CONTINUOUS
10
1.1401128346456693
20
2.4158191338582675
11
1.1394742125984252
21
2.4162458661417321
0
LINE
8
BLACK
6
CONTINUOUS
10
1.1394742125984252
20
2.4162458661417321
11
1.1390474803149606
21
2.4168844881889764
0
LINE
8
BLACK
6
CONTINUOUS
10
1.1390474803149606
20
2.4168844881889764
11
1.1388976377952755
21
2.4176377952755903
0
LINE
8
BLACK
6
CONTINUOUS
10
1.1388976377952755
20
2.4176377952755903
11
1.1388976377952755
21
2.4776377952755904
0
LINE
8
BLACK
6
CONTINUOUS
10
1.1388976377952755
20
2.4776377952755904
11
1.1390474803149606
21
2.4783911023622047
0
LINE
8
BLACK
6
CONTINUOUS
10
1.1390474803149606
20
2.4783911023622047
11
1.1394742125984252
21
2.4790297244094486
0
LINE
8
BLACK
6
CONTINUOUS
10
1.1394742125984252
20
2.4790297244094486
11
1.1401128346456693
21
2.4794564566929131
0
LINE
8
BLACK
6
CONTINUOUS
10
1.1401128346456693
20
2.4794564566929131
11
1.1408661417322834
21
2.4796062992125982
0
LINE
8
BLACK
6
CONTINUOUS
10
1.1408661417322834
20
2.4796062992125982
11
1.2008661417322835
21
2.4796062992125982
0
LINE
8
BLACK
6
CONTINUOUS
10
1.2008661417322835
20
2.4796062992125982
11
1.2016194488188976
21
2.4794564566929131
0
LINE
8
BLACK
6
CONTINUOUS
10
1.3504383464566929
20
2.4794564566929131
11
1.351076968503937
21
2.4790297244094486
0
LINE
8
BLACK
6
CONTINUOUS
10
1.351076968503937
20
2.4790297244094486
11
1.3515037007874016
21
2.4783911023622047
0
LINE
8
BLACK
6
CONTINUOUS
10
1.3515037007874016
20
2.4783911023622047
11
1.3516535433070866
21
2.4776377952755904
0
LINE
8
BLACK
6
CONTINUOUS
10
1.3516535433070866
20
2.4776377952755904
11
1.3516535433070866
21
2.4176377952755903
0
LINE
8
BLACK
6
CONTINUOUS
10
1.3516535433070866
20
2.4176377952755903
11
1.3515037007874016
21
2.4168844881889764
0
LINE
8
BLACK
6
CONTINUOUS
10
1.3515037007874016
20
2.4168844881889764
11
1.351076968503937
21
2.4162458661417321
0
LINE
8
BLACK
6
CONTINUOUS
10
1.351076968503937
20
2.4162458661417321
11
1.3504383464566929
21
2.4158191338582675
0
LINE
8
BLACK
6
CONTINUOUS
10
1.3504383464566929
20
2.4158191338582675
11
1.3496850393700788
21
2.4156692913385824
0
LINE
8
BLACK
6
CONTINUOUS
10
1.3496850393700788
20
2.4156692913385824
11
1.2896850393700787
21
2.4156692913385824
0
LINE
8
BLACK
6
CONTINUOUS
10
1.2896850393700787
20
2.4156692913385824
11
1.2889317322834646
21
2.4158191338582675
0
LINE
8
BLACK
6
CONTINUOUS
10
1.2889317322834646
20
2.4158191338582675
11
1.2882931102362205
21
2.4162458661417321
0
LINE
8
BLACK
6
CONTINUOUS
10
1.2882931102362205
20
2.4162458661417321
11
1.2878663779527559
21
2.4168844881889764
0
LINE
8
BLACK
6
CONTINUOUS
10
1.2878663779527559
20
2.4168844881889764
11
1.2877165354330709
21
2.4176377952755903
0
LINE
8
BLACK
6
CONTINUOUS
10
1.2877165354330709
20
2.4176377952755903
11
1.2877165354330709
21
2.4776377952755904
0
LINE
8
BLACK
6
CONTINUOUS
10
1.2877165354330709
20
2.4776377952755904
11
1.2878663779527559
21
2.4783911023622047
0
LINE
8
BLACK
6
CONTINUOUS
10
1.2878663779527559
20
2.4783911023622047
11
1.2882931102362205
21
2.4790297244094486
0
LINE
8
BLACK
6
CONTINUOUS
10
1.2882931102362205
20
2.4790297244094486
11
1.2889317322834646
21
2.4794564566929131
0
LINE
8
BLACK
6
CONTINUOUS
10
1.2889317322834646
20
2.4794564566929131
11
1.2896850393700787
21
2.4796062992125982
0
LINE
8
BLACK
6
CONTINUOUS
10
1.2896850393700787
20
2.4796062992125982
11
1.3496850393700788
21
2.4796062992125982
0
LINE
8
BLACK
6
CONTINUOUS
10
1.3496850393700788
20
2.4796062992125982
11
1.3504383464566929
21
2.4794564566929131
0
LINE
8
BLACK
6
CONTINUOUS
10
1.4504383464566928
20
2.4794564566929131
11
1.4510769685039371
21
2.4790297244094486
0
LINE
8
BLACK
6
CONTINUOUS
10
1.4510769685039371
20
2.4790297244094486
11
1.4515037007874017
21
2.4783911023622047
0
LINE
8
BLACK
6
CONTINUOUS
10
1.4515037007874017
20
2.4783911023622047
11
1.4516535433070865
21
2.4776377952755904
0
LINE
8
BLACK
6
CONTINUOUS
10
1.4516535433070865
20
2.4776377952755904
11
1.4516535433070865
21
2.4176377952755903
0
LINE
8
BLACK
6
CONTINUOUS
10
1.4516535433070865
20
2.4176377952755903
11
1.4515037007874017
21
2.4168844881889764
0
LINE
8
BLACK
6
CONTINUOUS
10
1.4515037007874017
20
2.4168844881889764
11
1.4510769685039371
21
2.4162458661417321
0
LINE
8
BLACK
6
CONTINUOUS
10
1.4510769685039371
20
2.4162458661417321
11
1.4504383464566928
21
2.4158191338582675
0
LINE
8
BLACK
6
CONTINUOUS
10
1.4504383464566928
20
2.4158191338582675
11
1.4496850393700786
21
2.4156692913385824
0
LINE
8
BLACK
6
CONTINUOUS
10
1.4496850393700786
20
2.4156692913385824
11
1.3896850393700788
21
2.4156692913385824
0
LINE
8
BLACK
6
CONTINUOUS
10
1.3896850393700788
20
2.4156692913385824
11
1.3889317322834644
21
2.4158191338582675
0
LINE
8
BLACK
6
CONTINUOUS
10
1.3889317322834644
20
2.4158191338582675
11
1.3882931102362204
21
2.4162458661417321
0
LINE
8
BLACK
6
CONTINUOUS
10
1.3882931102362204
20
2.4162458661417321
11
1.3878663779527558
21
2.4168844881889764
0
LINE
8
BLACK
6
CONTINUOUS
10
1.3878663779527558
20
2.4168844881889764
11
1.3877165354330709
21
2.4176377952755903
0
LINE
8
BLACK
6
CONTINUOUS
10
1.3877165354330709
20
2.4176377952755903
11
1.3877165354330709
21
2.4776377952755904
0
LINE
8
BLACK
6
CONTINUOUS
10
1.3877165354330709
20
2.4776377952755904
11
1.3878663779527558
21
2.4783911023622047
0
LINE
8
BLACK
6
CONTINUOUS
10
1.3878663779527558
20
2.4783911023622047
11
1.3882931102362204
21
2.4790297244094486
0
LINE
8
BLACK
6
CONTINUOUS
10
1.3882931102362204
20
2.4790297244094486
11
1.3889317322834644
21
2.4794564566929131
0
LINE
8
BLACK
6
CONTINUOUS
10
1.3889317322834644
20
2.4794564566929131
11
1.3896850393700788
21
2.4796062992125982
0
LINE
8
BLACK
6
CONTINUOUS
10
1.3896850393700788
20
2.4796062992125982
11
1.4496850393700786
21
2.4796062992125982
0
LINE
8
BLACK
6
CONTINUOUS
10
1.4496850393700786
20
2.4796062992125982
11
1.4504383464566928
21
2.4794564566929131
0
LINE
8
BLACK
6
CONTINUOUS
10
1.5504383464566929
20
2.4794564566929131
11
1.5510769685039369
21
2.4790297244094486
0
LINE
8
BLACK
6
CONTINUOUS
10
1.5510769685039369
20
2.4790297244094486
11
1.5515037007874015
21
2.4783911023622047
0
LINE
8
BLACK
6
CONTINUOUS
10
1.5515037007874015
20
2.4783911023622047
11
1.5516535433070866
21
2.4776377952755904
0
LINE
8
BLACK
6
CONTINUOUS
10
1.5516535433070866
20
2.4776377952755904
11
1.5516535433070866
21
2.4176377952755903
0
LINE
8
BLACK
6
CONTINUOUS
10
1.5516535433070866
20
2.4176377952755903
11
1.5515037007874015
21
2.4168844881889764
0
LINE
8
BLACK
6
CONTINUOUS
10
1.5515037007874015
20
2.4168844881889764
11
1.5510769685039369
21
2.4162458661417321
0
LINE
8
BLACK
6
CONTINUOUS
10
1.5510769685039369
20
2.4162458661417321
11
1.5504383464566929
21
2.4158191338582675
0
LINE
8
BLACK
6
CONTINUOUS
10
1.5504383464566929
20
2.4158191338582675
11
1.5496850393700787
21
2.4156692913385824
0
LINE
8
BLACK
6
CONTINUOUS
10
1.5496850393700787
20
2.4156692913385824
11
1.4896850393700787
21
2.4156692913385824
0
LINE
8
BLACK
6
CONTINUOUS
10
1.4896850393700787
20
2.4156692913385824
11
1.4889317322834645
21
2.4158191338582675
0
LINE
8
BLACK
6
CONTINUOUS
10
1.4889317322834645
20
2.4158191338582675
11
1.4882931102362205
21
2.4162458661417321
0
LINE
8
BLACK
6
CONTINUOUS
10
1.4882931102362205
20
2.4162458661417321
11
1.4878663779527559
21
2.4168844881889764
0
LINE
8
BLACK
6
CONTINUOUS
10
1.4878663779527559
20
2.4168844881889764
11
1.4877165354330708
21
2.4176377952755903
0
LINE
8
BLACK
6
CONTINUOUS
10
1.4877165354330708
20
2.4176377952755903
11
1.4877165354330708
21
2.4776377952755904
0
LINE
8
BLACK
6
CONTINUOUS
10
1.4877165354330708
20
2.4776377952755904
11
1.4878663779527559
21
2.4783911023622047
0
LINE
8
BLACK
6
CONTINUOUS
10
1.4878663779527559
20
2.4783911023622047
11
1.4882931102362205
21
2.4790297244094486
0
LINE
8
BLACK
6
CONTINUOUS
10
1.4882931102362205
20
2.4790297244094486
11
1.4889317322834645
21
2.4794564566929131
0
LINE
8
BLACK
6
CONTINUOUS
10
1.4889317322834645
20
2.4794564566929131
11
1.4896850393700787
21
2.4796062992125982
0
LINE
8
BLACK
6
CONTINUOUS
10
1.4896850393700787
20
2.4796062992125982
11
1.5496850393700787
21
2.4796062992125982
0
LINE
8
BLACK
6
CONTINUOUS
10
1.5496850393700787
20
2.4796062992125982
11
1.5504383464566929
21
2.4794564566929131
0
LINE
8
BLACK
6
CONTINUOUS
10
1.650438346456693
20
2.4794564566929131
11
1.651076968503937
21
2.4790297244094486
0
LINE
8
BLACK
6
CONTINUOUS
10
1.651076968503937
20
2.4790297244094486
11
1.6515037007874016
21
2.4783911023622047
0
LINE
8
BLACK
6
CONTINUOUS
10
1.6515037007874016
20
2.4783911023622047
11
1.6516535433070865
21
2.4776377952755904
0
LINE
8
BLACK
6
CONTINUOUS
10
1.6516535433070865
20
2.4776377952755904
11
1.6516535433070865
21
2.4176377952755903
0
LINE
8
BLACK
6
CONTINUOUS
10
1.6516535433070865
20
2.4176377952755903
11
1.6515037007874016
21
2.4168844881889764
0
LINE
8
BLACK
6
CONTINUOUS
10
1.6515037007874016
20
2.4168844881889764
11
1.651076968503937
21
2.4162458661417321
0
LINE
8
BLACK
6
CONTINUOUS
10
1.651076968503937
20
2.4162458661417321
11
1.650438346456693
21
2.4158191338582675
0
LINE
8
BLACK
6
CONTINUOUS
10
1.650438346456693
20
2.4158191338582675
11
1.6496850393700786
21
2.4156692913385824
0
LINE
8
BLACK
6
CONTINUOUS
10
1.6496850393700786
20
2.4156692913385824
11
1.5896850393700788
21
2.4156692913385824
0
LINE
8
BLACK
6
CONTINUOUS
10
1.5896850393700788
20
2.4156692913385824
11
1.5889317322834646
21
2.4158191338582675
0
LINE
8
BLACK
6
CONTINUOUS
10
1.5889317322834646
20
2.4158191338582675
11
1.5882931102362203
21
2.4162458661417321
0
LINE
8
BLACK
6
CONTINUOUS
10
1.5882931102362203
20
2.4162458661417321
11
1.5878663779527558
21
2.4168844881889764
0
LINE
8
BLACK
6
CONTINUOUS
10
1.5878663779527558
20
2.4168844881889764
11
1.5877165354330709
21
2.4176377952755903
0
LINE
8
BLACK
6
CONTINUOUS
10
1.5877165354330709
20
2.4176377952755903
11
1.5877165354330709
21
2.4776377952755904
0
LINE
8
BLACK
6
CONTINUOUS
10
1.5877165354330709
20
2.4776377952755904
11
1.5878663779527558
21
2.4783911023622047
0
LINE
8
BLACK
6
CONTINUOUS
10
1.5878663779527558
20
2.4783911023622047
11
1.5882931102362203
21
2.4790297244094486
0
LINE
8
BLACK
6
CONTINUOUS
10
1.5882931102362203
20
2.4790297244094486
11
1.5889317322834646
21
2.4794564566929131
0
LINE
8
BLACK
6
CONTINUOUS
10
1.5889317322834646
20
2.4794564566929131
11
1.5896850393700788
21
2.4796062992125982
0
LINE
8
BLACK
6
CONTINUOUS
10
1.5896850393700788
20
2.4796062992125982
11
1.6496850393700786
21
2.4796062992125982
0
LINE
8
BLACK
6
CONTINUOUS
10
1.6496850393700786
20
2.4796062992125982
11
1.650438346456693
21
2.4794564566929131
0
LINE
8
BLACK
6
CONTINUOUS
10
1.7504383464566928
20
2.4794564566929131
11
1.7510769685039369
21
2.4790297244094486
0
LINE
8
BLACK
6
CONTINUOUS
10
1.7510769685039369
20
2.4790297244094486
11
1.7515037007874015
21
2.4783911023622047
0
LINE
8
BLACK
6
CONTINUOUS
10
1.7515037007874015
20
2.4783911023622047
11
1.7516535433070866
21
2.4776377952755904
0
LINE
8
BLACK
6
CONTINUOUS
10
1.7516535433070866
20
2.4776377952755904
11
1.7516535433070866
21
2.4176377952755903
0
LINE
8
BLACK
6
CONTINUOUS
10
1.7516535433070866
20
2.4176377952755903
11
1.7515037007874015
21
2.4168844881889764
0
LINE
8
BLACK
6
CONTINUOUS
10
1.7515037007874015
20
2.4168844881889764
11
1.7510769685039369
21
2.4162458661417321
0
LINE
8
BLACK
6
CONTINUOUS
10
1.7510769685039369
20
2.4162458661417321
11
1.7504383464566928
21
2.4158191338582675
0
LINE
8
BLACK
6
CONTINUOUS
10
1.7504383464566928
20
2.4158191338582675
11
1.7496850393700787
21
2.4156692913385824
0
LINE
8
BLACK
6
CONTINUOUS
10
1.7496850393700787
20
2.4156692913385824
11
1.6896850393700786
21
2.4156692913385824
0
LINE
8
BLACK
6
CONTINUOUS
10
1.6896850393700786
20
2.4156692913385824
11
1.6889317322834645
21
2.4158191338582675
0
LINE
8
BLACK
6
CONTINUOUS
10
1.6889317322834645
20
2.4158191338582675
11
1.6882931102362204
21
2.4162458661417321
0
LINE
8
BLACK
6
CONTINUOUS
10
1.6882931102362204
20
2.4162458661417321
11
1.6878663779527558
21
2.4168844881889764
0
LINE
8
BLACK
6
CONTINUOUS
10
1.6878663779527558
20
2.4168844881889764
11
1.6877165354330708
21
2.4176377952755903
0
LINE
8
BLACK
6
CONTINUOUS
10
1.6877165354330708
20
2.4176377952755903
11
1.6877165354330708
21
2.4776377952755904
0
LINE
8
BLACK
6
CONTINUOUS
10
1.6877165354330708
20
2.4776377952755904
11
1.6878663779527558
21
2.4783911023622047
0
LINE
8
BLACK
6
CONTINUOUS
10
1.6878663779527558
20
2.4783911023622047
11
1.6882931102362204
21
2.4790297244094486
0
LINE
8
BLACK
6
CONTINUOUS
10
1.6882931102362204
20
2.4790297244094486
11
1.6889317322834645
21
2.4794564566929131
0
LINE
8
BLACK
6
CONTINUOUS
10
1.6889317322834645
20
2.4794564566929131
11
1.6896850393700786
21
2.4796062992125982
0
LINE
8
BLACK
6
CONTINUOUS
10
1.6896850393700786
20
2.4796062992125982
11
1.7496850393700787
21
2.4796062992125982
0
LINE
8
BLACK
6
CONTINUOUS
10
1.7496850393700787
20
2.4796062992125982
11
1.7504383464566928
21
2.4794564566929131
0
LINE
8
BLACK
6
CONTINUOUS
10
0.861461968503937
20
2.4822123622047245
11
0.862100590551181
21
2.48178562992126
0
LINE
8
BLACK
6
CONTINUOUS
10
0.862100590551181
20
2.48178562992126
11
0.8625273228346456
21
2.4811470078740157
0
LINE
8
BLACK
6
CONTINUOUS
10
0.8625273228346456
20
2.4811470078740157
11
0.8626771653543307
21
2.4803937007874017
0
LINE
8
BLACK
6
CONTINUOUS
10
0.8626771653543307
20
2.4803937007874017
11
0.8626771653543307
21
2.4203937007874017
0
LINE
8
BLACK
6
CONTINUOUS
10
0.8626771653543307
20
2.4203937007874017
11
0.8625273228346456
21
2.4196403937007873
0
LINE
8
BLACK
6
CONTINUOUS
10
0.8625273228346456
20
2.4196403937007873
11
0.862100590551181
21
2.4190017716535435
0
LINE
8
BLACK
6
CONTINUOUS
10
0.862100590551181
20
2.4190017716535435
11
0.861461968503937
21
2.4185750393700789
0
LINE
8
BLACK
6
CONTINUOUS
10
0.861461968503937
20
2.4185750393700789
11
0.8607086614173228
21
2.4184251968503938
0
LINE
8
BLACK
6
CONTINUOUS
10
0.8607086614173228
20
2.4184251968503938
11
0.8007086614173228
21
2.4184251968503938
0
LINE
8
BLACK
6
CONTINUOUS
10
0.8007086614173228
20
2.4184251968503938
11
0.7999553543307086
21
2.4185750393700789
0
LINE
8
BLACK
6
CONTINUOUS
10
0.7999553543307086
20
2.4185750393700789
11
0.7993167322834646
21
2.4190017716535435
0
LINE
8
BLACK
6
CONTINUOUS
10
0.7993167322834646
20
2.4190017716535435
11
0.79889
21
2.4196403937007873
0
LINE
8
BLACK
6
CONTINUOUS
10
0.79889
20
2.4196403937007873
11
0.7987401574803149
21
2.4203937007874017
0
LINE
8
BLACK
6
CONTINUOUS
10
0.7987401574803149
20
2.4203937007874017
11
0.7987401574803149
21
2.4803937007874017
0
LINE
8
BLACK
6
CONTINUOUS
10
0.7987401574803149
20
2.4803937007874017
11
0.79889
21
2.4811470078740157
0
LINE
8
BLACK
6
CONTINUOUS
10
0.79889
20
2.4811470078740157
11
0.7993167322834646
21
2.48178562992126
0
LINE
8
BLACK
6
CONTINUOUS
10
0.7993167322834646
20
2.48178562992126
11
0.7999553543307086
21
2.4822123622047245
0
LINE
8
BLACK
6
CONTINUOUS
10
0.7999553543307086
20
2.4822123622047245
11
0.8007086614173228
21
2.4823622047244096
0
LINE
8
BLACK
6
CONTINUOUS
10
0.8007086614173228
20
2.4823622047244096
11
0.8607086614173228
21
2.4823622047244096
0
LINE
8
BLACK
6
CONTINUOUS
10
0.8607086614173228
20
2.4823622047244096
11
0.861461968503937
21
2.4822123622047245
  0
ENDSEC
  0
EOF
