  0
SECTION
  2
HEADER
  9
$ANGBASE
  50
0.0
  9
$ANGDIR
  70
1
  9
$MEASUREMENT
  70
0
  0
ENDSEC
  0
SECTION
  2
TABLES
  0
TABLE
  2
LTYPE
  70
4
  0
LTYPE
  5
40F
  2
CONTINUOUS
  70
0
  3
Solid line
  72
65
  73
0
  40
0.0
  0
LTYPE
  5
410
  2
DASHDOT
 70
0
  3
Dash Dot ____ _ ____ _
 72
65
 73
4
 40
2.0
 49
1.25
 49
-0.25
 49
0.25
 49
-0.25
  0
LTYPE
  5
411
  2
DASHED
 70
0
  3
Dashed __ __ __ __ __
 72
65
 73
2
 40
0.75
 49
0.5
 49
-0.25
  0
LTYPE
  5
43B
  2
DOTTED
 70
0
  3
Dotted .  .  .  .
 72
65
 73
2
 40
0.2
 49
0.0
 49
-0.2
  0
ENDTAB
  0
TABLE
  2
STYLE
  70
4
  0
STYLE
  2
KICAD
  70
0
  40
0
  41
1
  42
1
  50
0
  71
0
  3
isocp.shx
  0
STYLE
  2
KICADB
  70
0
  40
0
  41
1
  42
1
  50
0
  71
0
  3
isocp.shx
  0
STYLE
  2
KICADI
  70
0
  40
0
  41
1
  42
1
  50
15
  71
0
  3
isocp.shx
  0
STYLE
  2
KICADBI
  70
0
  40
0
  41
1
  42
1
  50
15
  71
0
  3
isocp.shx
  0
ENDTAB
  0
TABLE
  2
LAYER
  70
1
  0
LAYER
  2
BLACK
  70
0
  62
7
  6
CONTINUOUS
  0
ENDTAB
  0
ENDSEC
  0
SECTION
  2
ENTITIES
0
LINE
8
BLACK
6
CONTINUOUS
10
2.01492
20
0.125098
11
2.02877
21
0.122656
0
LINE
8
BLACK
6
CONTINUOUS
10
2.02877
20
0.122656
11
2.04226
21
0.118684
0
LINE
8
BLACK
6
CONTINUOUS
10
2.04226
20
0.118684
11
2.05523
21
0.113234
0
LINE
8
BLACK
6
CONTINUOUS
10
2.05523
20
0.113234
11
2.06751
21
0.106372
0
LINE
8
BLACK
6
CONTINUOUS
10
2.06751
20
0.106372
11
2.07894
21
0.0981843
0
LINE
8
BLACK
6
CONTINUOUS
10
2.07894
20
0.0981843
11
2.08939
21
0.0887728
0
LINE
8
BLACK
6
CONTINUOUS
10
2.08939
20
0.0887728
11
2.09873
21
0.0782548
0
LINE
8
BLACK
6
CONTINUOUS
10
2.09873
20
0.0782548
11
2.10684
21
0.0667615
0
LINE
8
BLACK
6
CONTINUOUS
10
2.10684
20
0.0667615
11
2.11362
21
0.054436
0
LINE
8
BLACK
6
CONTINUOUS
10
2.11362
20
0.054436
11
2.11898
21
0.041432
0
LINE
8
BLACK
6
CONTINUOUS
10
2.11898
20
0.041432
11
2.12285
21
0.0279116
0
LINE
8
BLACK
6
CONTINUOUS
10
2.12285
20
0.0279116
11
2.1252
21
0.0140433
0
LINE
8
BLACK
6
CONTINUOUS
10
2.1252
20
0.0140433
11
2.12598
21
0
0
LINE
8
BLACK
6
CONTINUOUS
10
2.12598
20
0
11
2.12594
21
-0.00351768
0
LINE
8
BLACK
6
CONTINUOUS
10
2.12594
20
-0.00351768
11
2.12476
21
-0.0175336
0
LINE
8
BLACK
6
CONTINUOUS
10
2.12476
20
-0.0175336
11
2.12203
21
-0.031331
0
LINE
8
BLACK
6
CONTINUOUS
10
2.12203
20
-0.031331
11
2.11777
21
-0.0447379
0
LINE
8
BLACK
6
CONTINUOUS
10
2.11777
20
-0.0447379
11
2.11205
21
-0.0575871
0
LINE
8
BLACK
6
CONTINUOUS
10
2.11205
20
-0.0575871
11
2.10493
21
-0.0697186
0
LINE
8
BLACK
6
CONTINUOUS
10
2.10493
20
-0.0697186
11
2.09651
21
-0.0809811
0
LINE
8
BLACK
6
CONTINUOUS
10
2.09651
20
-0.0809811
11
2.08688
21
-0.0912343
0
LINE
8
BLACK
6
CONTINUOUS
10
2.08688
20
-0.0912343
11
2.07617
21
-0.10035
0
LINE
8
BLACK
6
CONTINUOUS
10
2.07617
20
-0.10035
11
2.06451
21
-0.108215
0
LINE
8
BLACK
6
CONTINUOUS
10
2.06451
20
-0.108215
11
2.05204
21
-0.114732
0
LINE
8
BLACK
6
CONTINUOUS
10
2.05204
20
-0.114732
11
2.03893
21
-0.119818
0
LINE
8
BLACK
6
CONTINUOUS
10
2.03893
20
-0.119818
11
2.02533
21
-0.123411
0
LINE
8
BLACK
6
CONTINUOUS
10
2.02533
20
-0.123411
11
2.01142
21
-0.125466
0
LINE
8
BLACK
6
CONTINUOUS
10
2.01142
20
-0.125466
11
1.99736
21
-0.125957
0
LINE
8
BLACK
6
CONTINUOUS
10
1.99736
20
-0.125957
11
1.98334
21
-0.124878
0
LINE
8
BLACK
6
CONTINUOUS
10
1.98334
20
-0.124878
11
1.96952
21
-0.122242
0
LINE
8
BLACK
6
CONTINUOUS
10
1.96952
20
-0.122242
11
1.95609
21
-0.118083
0
LINE
8
BLACK
6
CONTINUOUS
10
1.95609
20
-0.118083
11
1.9432
21
-0.112452
0
LINE
8
BLACK
6
CONTINUOUS
10
1.9432
20
-0.112452
11
1.93102
21
-0.105419
0
LINE
8
BLACK
6
CONTINUOUS
10
1.93102
20
-0.105419
11
1.91969
21
-0.0970725
0
LINE
8
BLACK
6
CONTINUOUS
10
1.91969
20
-0.0970725
11
1.90937
21
-0.087516
0
LINE
8
BLACK
6
CONTINUOUS
10
1.90937
20
-0.087516
11
1.90018
21
-0.0768687
0
LINE
8
BLACK
6
CONTINUOUS
10
1.90018
20
-0.0768687
11
1.89224
21
-0.0652632
0
LINE
8
BLACK
6
CONTINUOUS
10
1.89224
20
-0.0652632
11
1.88563
21
-0.0528444
0
LINE
8
BLACK
6
CONTINUOUS
10
1.88563
20
-0.0528444
11
1.88046
21
-0.0397668
0
LINE
8
BLACK
6
CONTINUOUS
10
1.88046
20
-0.0397668
11
1.87677
21
-0.0261936
0
LINE
8
BLACK
6
CONTINUOUS
10
1.87677
20
-0.0261936
11
1.87462
21
-0.0122939
0
LINE
8
BLACK
6
CONTINUOUS
10
1.87462
20
-0.0122939
11
1.87403
21
0.00175902
0
LINE
8
BLACK
6
CONTINUOUS
10
1.87403
20
0.00175902
11
1.87501
21
0.01579
0
LINE
8
BLACK
6
CONTINUOUS
10
1.87501
20
0.01579
11
1.87755
21
0.0296242
0
LINE
8
BLACK
6
CONTINUOUS
10
1.87755
20
0.0296242
11
1.88161
21
0.0430891
0
LINE
8
BLACK
6
CONTINUOUS
10
1.88161
20
0.0430891
11
1.88715
21
0.056017
0
LINE
8
BLACK
6
CONTINUOUS
10
1.88715
20
0.056017
11
1.8941
21
0.0682467
0
LINE
8
BLACK
6
CONTINUOUS
10
1.8941
20
0.0682467
11
1.90237
21
0.0796257
0
LINE
8
BLACK
6
CONTINUOUS
10
1.90237
20
0.0796257
11
1.91185
21
0.0900123
0
LINE
8
BLACK
6
CONTINUOUS
10
1.91185
20
0.0900123
11
1.92244
21
0.0992769
0
LINE
8
BLACK
6
CONTINUOUS
10
1.92244
20
0.0992769
11
1.93399
21
0.107304
0
LINE
8
BLACK
6
CONTINUOUS
10
1.93399
20
0.107304
11
1.94636
21
0.113994
0
LINE
8
BLACK
6
CONTINUOUS
10
1.94636
20
0.113994
11
1.9594
21
0.119263
0
LINE
8
BLACK
6
CONTINUOUS
10
1.9594
20
0.119263
11
1.97295
21
0.123045
0
LINE
8
BLACK
6
CONTINUOUS
10
1.97295
20
0.123045
11
1.98683
21
0.125294
0
LINE
8
BLACK
6
CONTINUOUS
10
1.98683
20
0.125294
11
2.00088
21
0.125981
0
LINE
8
BLACK
6
CONTINUOUS
10
2.00088
20
0.125981
11
2.01492
21
0.125098
0
LINE
8
BLACK
6
CONTINUOUS
10
0.014917
20
0.125098
11
0.0287686
21
0.122656
0
LINE
8
BLACK
6
CONTINUOUS
10
0.0287686
20
0.122656
11
0.0422616
21
0.118684
0
LINE
8
BLACK
6
CONTINUOUS
10
0.0422616
20
0.118684
11
0.0552279
21
0.113234
0
LINE
8
BLACK
6
CONTINUOUS
10
0.0552279
20
0.113234
11
0.0675057
21
0.106372
0
LINE
8
BLACK
6
CONTINUOUS
10
0.0675057
20
0.106372
11
0.0789422
21
0.0981843
0
LINE
8
BLACK
6
CONTINUOUS
10
0.0789422
20
0.0981843
11
0.0893947
21
0.0887728
0
LINE
8
BLACK
6
CONTINUOUS
10
0.0893947
20
0.0887728
11
0.098733
21
0.0782548
0
LINE
8
BLACK
6
CONTINUOUS
10
0.098733
20
0.0782548
11
0.106841
21
0.0667615
0
LINE
8
BLACK
6
CONTINUOUS
10
0.106841
20
0.0667615
11
0.113617
21
0.054436
0
LINE
8
BLACK
6
CONTINUOUS
10
0.113617
20
0.054436
11
0.118977
21
0.041432
0
LINE
8
BLACK
6
CONTINUOUS
10
0.118977
20
0.041432
11
0.122853
21
0.0279116
0
LINE
8
BLACK
6
CONTINUOUS
10
0.122853
20
0.0279116
11
0.125199
21
0.0140433
0
LINE
8
BLACK
6
CONTINUOUS
10
0.125199
20
0.0140433
11
0.125984
21
0
0
LINE
8
BLACK
6
CONTINUOUS
10
0.125984
20
0
11
0.125935
21
-0.00351768
0
LINE
8
BLACK
6
CONTINUOUS
10
0.125935
20
-0.00351768
11
0.124758
21
-0.0175336
0
LINE
8
BLACK
6
CONTINUOUS
10
0.124758
20
-0.0175336
11
0.122026
21
-0.031331
0
LINE
8
BLACK
6
CONTINUOUS
10
0.122026
20
-0.031331
11
0.117773
21
-0.0447379
0
LINE
8
BLACK
6
CONTINUOUS
10
0.117773
20
-0.0447379
11
0.112052
21
-0.0575871
0
LINE
8
BLACK
6
CONTINUOUS
10
0.112052
20
-0.0575871
11
0.104935
21
-0.0697186
0
LINE
8
BLACK
6
CONTINUOUS
10
0.104935
20
-0.0697186
11
0.0965095
21
-0.0809811
0
LINE
8
BLACK
6
CONTINUOUS
10
0.0965095
20
-0.0809811
11
0.0868812
21
-0.0912343
0
LINE
8
BLACK
6
CONTINUOUS
10
0.0868812
20
-0.0912343
11
0.07617
21
-0.10035
0
LINE
8
BLACK
6
CONTINUOUS
10
0.07617
20
-0.10035
11
0.0645093
21
-0.108215
0
LINE
8
BLACK
6
CONTINUOUS
10
0.0645093
20
-0.108215
11
0.0520446
21
-0.114732
0
LINE
8
BLACK
6
CONTINUOUS
10
0.0520446
20
-0.114732
11
0.0389313
21
-0.119818
0
LINE
8
BLACK
6
CONTINUOUS
10
0.0389313
20
-0.119818
11
0.0253326
21
-0.123411
0
LINE
8
BLACK
6
CONTINUOUS
10
0.0253326
20
-0.123411
11
0.0114183
21
-0.125466
0
LINE
8
BLACK
6
CONTINUOUS
10
0.0114183
20
-0.125466
11
-0.00263843
21
-0.125957
0
LINE
8
BLACK
6
CONTINUOUS
10
-0.00263843
20
-0.125957
11
-0.0166622
21
-0.124878
0
LINE
8
BLACK
6
CONTINUOUS
10
-0.0166622
20
-0.124878
11
-0.0304783
21
-0.122242
0
LINE
8
BLACK
6
CONTINUOUS
10
-0.0304783
20
-0.122242
11
-0.0439146
21
-0.118083
0
LINE
8
BLACK
6
CONTINUOUS
10
-0.0439146
20
-0.118083
11
-0.0568035
21
-0.112452
0
LINE
8
BLACK
6
CONTINUOUS
10
-0.0568035
20
-0.112452
11
-0.0689843
21
-0.105419
0
LINE
8
BLACK
6
CONTINUOUS
10
-0.0689843
20
-0.105419
11
-0.0803054
21
-0.0970725
0
LINE
8
BLACK
6
CONTINUOUS
10
-0.0803054
20
-0.0970725
11
-0.0906255
21
-0.087516
0
LINE
8
BLACK
6
CONTINUOUS
10
-0.0906255
20
-0.087516
11
-0.099816
21
-0.0768687
0
LINE
8
BLACK
6
CONTINUOUS
10
-0.099816
20
-0.0768687
11
-0.107762
21
-0.0652632
0
LINE
8
BLACK
6
CONTINUOUS
10
-0.107762
20
-0.0652632
11
-0.114366
21
-0.0528444
0
LINE
8
BLACK
6
CONTINUOUS
10
-0.114366
20
-0.0528444
11
-0.119543
21
-0.0397668
0
LINE
8
BLACK
6
CONTINUOUS
10
-0.119543
20
-0.0397668
11
-0.123231
21
-0.0261936
0
LINE
8
BLACK
6
CONTINUOUS
10
-0.123231
20
-0.0261936
11
-0.125383
21
-0.0122939
0
LINE
8
BLACK
6
CONTINUOUS
10
-0.125383
20
-0.0122939
11
-0.125972
21
0.00175902
0
LINE
8
BLACK
6
CONTINUOUS
10
-0.125972
20
0.00175902
11
-0.124991
21
0.01579
0
LINE
8
BLACK
6
CONTINUOUS
10
-0.124991
20
0.01579
11
-0.122452
21
0.0296242
0
LINE
8
BLACK
6
CONTINUOUS
10
-0.122452
20
0.0296242
11
-0.118386
21
0.0430891
0
LINE
8
BLACK
6
CONTINUOUS
10
-0.118386
20
0.0430891
11
-0.112846
21
0.056017
0
LINE
8
BLACK
6
CONTINUOUS
10
-0.112846
20
0.056017
11
-0.105898
21
0.0682467
0
LINE
8
BLACK
6
CONTINUOUS
10
-0.105898
20
0.0682467
11
-0.0976308
21
0.0796257
0
LINE
8
BLACK
6
CONTINUOUS
10
-0.0976308
20
0.0796257
11
-0.0881466
21
0.0900123
0
LINE
8
BLACK
6
CONTINUOUS
10
-0.0881466
20
0.0900123
11
-0.0775637
21
0.0992769
0
LINE
8
BLACK
6
CONTINUOUS
10
-0.0775637
20
0.0992769
11
-0.066014
21
0.107304
0
LINE
8
BLACK
6
CONTINUOUS
10
-0.066014
20
0.107304
11
-0.0536415
21
0.113994
0
LINE
8
BLACK
6
CONTINUOUS
10
-0.0536415
20
0.113994
11
-0.0406004
21
0.119263
0
LINE
8
BLACK
6
CONTINUOUS
10
-0.0406004
20
0.119263
11
-0.0270533
21
0.123045
0
LINE
8
BLACK
6
CONTINUOUS
10
-0.0270533
20
0.123045
11
-0.0131689
21
0.125294
0
LINE
8
BLACK
6
CONTINUOUS
10
-0.0131689
20
0.125294
11
0.000879528
21
0.125981
0
LINE
8
BLACK
6
CONTINUOUS
10
0.000879528
20
0.125981
11
0.014917
21
0.125098
0
LINE
8
BLACK
6
CONTINUOUS
10
1.48183
20
-0.0127254
11
1.48439
21
-0.0144322
0
LINE
8
BLACK
6
CONTINUOUS
10
1.48439
20
-0.0144322
11
1.48609
21
-0.0169867
0
LINE
8
BLACK
6
CONTINUOUS
10
1.48609
20
-0.0169867
11
1.48669
21
-0.02
0
LINE
8
BLACK
6
CONTINUOUS
10
1.48669
20
-0.02
11
1.48669
21
-0.08
0
LINE
8
BLACK
6
CONTINUOUS
10
1.48669
20
-0.08
11
1.48609
21
-0.0830133
0
LINE
8
BLACK
6
CONTINUOUS
10
1.48609
20
-0.0830133
11
1.48439
21
-0.0855678
0
LINE
8
BLACK
6
CONTINUOUS
10
1.48439
20
-0.0855678
11
1.48183
21
-0.0872746
0
LINE
8
BLACK
6
CONTINUOUS
10
1.48183
20
-0.0872746
11
1.47882
21
-0.087874
0
LINE
8
BLACK
6
CONTINUOUS
10
1.47882
20
-0.087874
11
1.41882
21
-0.087874
0
LINE
8
BLACK
6
CONTINUOUS
10
1.41882
20
-0.087874
11
1.41581
21
-0.0872746
0
LINE
8
BLACK
6
CONTINUOUS
10
1.41581
20
-0.0872746
11
1.41325
21
-0.0855678
0
LINE
8
BLACK
6
CONTINUOUS
10
1.41325
20
-0.0855678
11
1.41154
21
-0.0830133
0
LINE
8
BLACK
6
CONTINUOUS
10
1.41154
20
-0.0830133
11
1.41094
21
-0.08
0
LINE
8
BLACK
6
CONTINUOUS
10
1.41094
20
-0.08
11
1.41094
21
-0.02
0
LINE
8
BLACK
6
CONTINUOUS
10
1.41094
20
-0.02
11
1.41154
21
-0.0169867
0
LINE
8
BLACK
6
CONTINUOUS
10
1.41154
20
-0.0169867
11
1.41325
21
-0.0144322
0
LINE
8
BLACK
6
CONTINUOUS
10
1.41325
20
-0.0144322
11
1.41581
21
-0.0127254
0
LINE
8
BLACK
6
CONTINUOUS
10
1.41581
20
-0.0127254
11
1.41882
21
-0.012126
0
LINE
8
BLACK
6
CONTINUOUS
10
1.41882
20
-0.012126
11
1.47882
21
-0.012126
0
LINE
8
BLACK
6
CONTINUOUS
10
1.47882
20
-0.012126
11
1.48183
21
-0.0127254
0
LINE
8
BLACK
6
CONTINUOUS
10
1.58183
20
-0.0127254
11
1.58439
21
-0.0144322
0
LINE
8
BLACK
6
CONTINUOUS
10
1.58439
20
-0.0144322
11
1.58609
21
-0.0169867
0
LINE
8
BLACK
6
CONTINUOUS
10
1.58609
20
-0.0169867
11
1.58669
21
-0.02
0
LINE
8
BLACK
6
CONTINUOUS
10
1.58669
20
-0.02
11
1.58669
21
-0.08
0
LINE
8
BLACK
6
CONTINUOUS
10
1.58669
20
-0.08
11
1.58609
21
-0.0830133
0
LINE
8
BLACK
6
CONTINUOUS
10
1.58609
20
-0.0830133
11
1.58439
21
-0.0855678
0
LINE
8
BLACK
6
CONTINUOUS
10
1.58439
20
-0.0855678
11
1.58183
21
-0.0872746
0
LINE
8
BLACK
6
CONTINUOUS
10
1.58183
20
-0.0872746
11
1.57882
21
-0.087874
0
LINE
8
BLACK
6
CONTINUOUS
10
1.57882
20
-0.087874
11
1.51882
21
-0.087874
0
LINE
8
BLACK
6
CONTINUOUS
10
1.51882
20
-0.087874
11
1.51581
21
-0.0872746
0
LINE
8
BLACK
6
CONTINUOUS
10
1.51581
20
-0.0872746
11
1.51325
21
-0.0855678
0
LINE
8
BLACK
6
CONTINUOUS
10
1.51325
20
-0.0855678
11
1.51154
21
-0.0830133
0
LINE
8
BLACK
6
CONTINUOUS
10
1.51154
20
-0.0830133
11
1.51094
21
-0.08
0
LINE
8
BLACK
6
CONTINUOUS
10
1.51094
20
-0.08
11
1.51094
21
-0.02
0
LINE
8
BLACK
6
CONTINUOUS
10
1.51094
20
-0.02
11
1.51154
21
-0.0169867
0
LINE
8
BLACK
6
CONTINUOUS
10
1.51154
20
-0.0169867
11
1.51325
21
-0.0144322
0
LINE
8
BLACK
6
CONTINUOUS
10
1.51325
20
-0.0144322
11
1.51581
21
-0.0127254
0
LINE
8
BLACK
6
CONTINUOUS
10
1.51581
20
-0.0127254
11
1.51882
21
-0.012126
0
LINE
8
BLACK
6
CONTINUOUS
10
1.51882
20
-0.012126
11
1.57882
21
-0.012126
0
LINE
8
BLACK
6
CONTINUOUS
10
1.57882
20
-0.012126
11
1.58183
21
-0.0127254
0
LINE
8
BLACK
6
CONTINUOUS
10
1.38183
20
-0.0127254
11
1.38439
21
-0.0144322
0
LINE
8
BLACK
6
CONTINUOUS
10
1.38439
20
-0.0144322
11
1.38609
21
-0.0169867
0
LINE
8
BLACK
6
CONTINUOUS
10
1.38609
20
-0.0169867
11
1.38669
21
-0.02
0
LINE
8
BLACK
6
CONTINUOUS
10
1.38669
20
-0.02
11
1.38669
21
-0.08
0
LINE
8
BLACK
6
CONTINUOUS
10
1.38669
20
-0.08
11
1.38609
21
-0.0830133
0
LINE
8
BLACK
6
CONTINUOUS
10
1.38609
20
-0.0830133
11
1.38439
21
-0.0855678
0
LINE
8
BLACK
6
CONTINUOUS
10
1.38439
20
-0.0855678
11
1.38183
21
-0.0872746
0
LINE
8
BLACK
6
CONTINUOUS
10
1.38183
20
-0.0872746
11
1.37882
21
-0.087874
0
LINE
8
BLACK
6
CONTINUOUS
10
1.37882
20
-0.087874
11
1.31882
21
-0.087874
0
LINE
8
BLACK
6
CONTINUOUS
10
1.31882
20
-0.087874
11
1.31581
21
-0.0872746
0
LINE
8
BLACK
6
CONTINUOUS
10
1.31581
20
-0.0872746
11
1.31325
21
-0.0855678
0
LINE
8
BLACK
6
CONTINUOUS
10
1.31325
20
-0.0855678
11
1.31154
21
-0.0830133
0
LINE
8
BLACK
6
CONTINUOUS
10
1.31154
20
-0.0830133
11
1.31094
21
-0.08
0
LINE
8
BLACK
6
CONTINUOUS
10
1.31094
20
-0.08
11
1.31094
21
-0.02
0
LINE
8
BLACK
6
CONTINUOUS
10
1.31094
20
-0.02
11
1.31154
21
-0.0169867
0
LINE
8
BLACK
6
CONTINUOUS
10
1.31154
20
-0.0169867
11
1.31325
21
-0.0144322
0
LINE
8
BLACK
6
CONTINUOUS
10
1.31325
20
-0.0144322
11
1.31581
21
-0.0127254
0
LINE
8
BLACK
6
CONTINUOUS
10
1.31581
20
-0.0127254
11
1.31882
21
-0.012126
0
LINE
8
BLACK
6
CONTINUOUS
10
1.31882
20
-0.012126
11
1.37882
21
-0.012126
0
LINE
8
BLACK
6
CONTINUOUS
10
1.37882
20
-0.012126
11
1.38183
21
-0.0127254
0
LINE
8
BLACK
6
CONTINUOUS
10
1.38183
20
0.0872746
11
1.38439
21
0.0855678
0
LINE
8
BLACK
6
CONTINUOUS
10
1.38439
20
0.0855678
11
1.38609
21
0.0830133
0
LINE
8
BLACK
6
CONTINUOUS
10
1.38609
20
0.0830133
11
1.38669
21
0.08
0
LINE
8
BLACK
6
CONTINUOUS
10
1.38669
20
0.08
11
1.38669
21
0.02
0
LINE
8
BLACK
6
CONTINUOUS
10
1.38669
20
0.02
11
1.38609
21
0.0169867
0
LINE
8
BLACK
6
CONTINUOUS
10
1.38609
20
0.0169867
11
1.38439
21
0.0144322
0
LINE
8
BLACK
6
CONTINUOUS
10
1.38439
20
0.0144322
11
1.38183
21
0.0127254
0
LINE
8
BLACK
6
CONTINUOUS
10
1.38183
20
0.0127254
11
1.37882
21
0.012126
0
LINE
8
BLACK
6
CONTINUOUS
10
1.37882
20
0.012126
11
1.31882
21
0.012126
0
LINE
8
BLACK
6
CONTINUOUS
10
1.31882
20
0.012126
11
1.31581
21
0.0127254
0
LINE
8
BLACK
6
CONTINUOUS
10
1.31581
20
0.0127254
11
1.31325
21
0.0144322
0
LINE
8
BLACK
6
CONTINUOUS
10
1.31325
20
0.0144322
11
1.31154
21
0.0169867
0
LINE
8
BLACK
6
CONTINUOUS
10
1.31154
20
0.0169867
11
1.31094
21
0.02
0
LINE
8
BLACK
6
CONTINUOUS
10
1.31094
20
0.02
11
1.31094
21
0.08
0
LINE
8
BLACK
6
CONTINUOUS
10
1.31094
20
0.08
11
1.31154
21
0.0830133
0
LINE
8
BLACK
6
CONTINUOUS
10
1.31154
20
0.0830133
11
1.31325
21
0.0855678
0
LINE
8
BLACK
6
CONTINUOUS
10
1.31325
20
0.0855678
11
1.31581
21
0.0872746
0
LINE
8
BLACK
6
CONTINUOUS
10
1.31581
20
0.0872746
11
1.31882
21
0.087874
0
LINE
8
BLACK
6
CONTINUOUS
10
1.31882
20
0.087874
11
1.37882
21
0.087874
0
LINE
8
BLACK
6
CONTINUOUS
10
1.37882
20
0.087874
11
1.38183
21
0.0872746
0
LINE
8
BLACK
6
CONTINUOUS
10
1.48183
20
0.0872746
11
1.48439
21
0.0855678
0
LINE
8
BLACK
6
CONTINUOUS
10
1.48439
20
0.0855678
11
1.48609
21
0.0830133
0
LINE
8
BLACK
6
CONTINUOUS
10
1.48609
20
0.0830133
11
1.48669
21
0.08
0
LINE
8
BLACK
6
CONTINUOUS
10
1.48669
20
0.08
11
1.48669
21
0.02
0
LINE
8
BLACK
6
CONTINUOUS
10
1.48669
20
0.02
11
1.48609
21
0.0169867
0
LINE
8
BLACK
6
CONTINUOUS
10
1.48609
20
0.0169867
11
1.48439
21
0.0144322
0
LINE
8
BLACK
6
CONTINUOUS
10
1.48439
20
0.0144322
11
1.48183
21
0.0127254
0
LINE
8
BLACK
6
CONTINUOUS
10
1.48183
20
0.0127254
11
1.47882
21
0.012126
0
LINE
8
BLACK
6
CONTINUOUS
10
1.47882
20
0.012126
11
1.41882
21
0.012126
0
LINE
8
BLACK
6
CONTINUOUS
10
1.41882
20
0.012126
11
1.41581
21
0.0127254
0
LINE
8
BLACK
6
CONTINUOUS
10
1.41581
20
0.0127254
11
1.41325
21
0.0144322
0
LINE
8
BLACK
6
CONTINUOUS
10
1.41325
20
0.0144322
11
1.41154
21
0.0169867
0
LINE
8
BLACK
6
CONTINUOUS
10
1.41154
20
0.0169867
11
1.41094
21
0.02
0
LINE
8
BLACK
6
CONTINUOUS
10
1.41094
20
0.02
11
1.41094
21
0.08
0
LINE
8
BLACK
6
CONTINUOUS
10
1.41094
20
0.08
11
1.41154
21
0.0830133
0
LINE
8
BLACK
6
CONTINUOUS
10
1.41154
20
0.0830133
11
1.41325
21
0.0855678
0
LINE
8
BLACK
6
CONTINUOUS
10
1.41325
20
0.0855678
11
1.41581
21
0.0872746
0
LINE
8
BLACK
6
CONTINUOUS
10
1.41581
20
0.0872746
11
1.41882
21
0.087874
0
LINE
8
BLACK
6
CONTINUOUS
10
1.41882
20
0.087874
11
1.47882
21
0.087874
0
LINE
8
BLACK
6
CONTINUOUS
10
1.47882
20
0.087874
11
1.48183
21
0.0872746
0
LINE
8
BLACK
6
CONTINUOUS
10
1.58183
20
0.0872746
11
1.58439
21
0.0855678
0
LINE
8
BLACK
6
CONTINUOUS
10
1.58439
20
0.0855678
11
1.58609
21
0.0830133
0
LINE
8
BLACK
6
CONTINUOUS
10
1.58609
20
0.0830133
11
1.58669
21
0.08
0
LINE
8
BLACK
6
CONTINUOUS
10
1.58669
20
0.08
11
1.58669
21
0.02
0
LINE
8
BLACK
6
CONTINUOUS
10
1.58669
20
0.02
11
1.58609
21
0.0169867
0
LINE
8
BLACK
6
CONTINUOUS
10
1.58609
20
0.0169867
11
1.58439
21
0.0144322
0
LINE
8
BLACK
6
CONTINUOUS
10
1.58439
20
0.0144322
11
1.58183
21
0.0127254
0
LINE
8
BLACK
6
CONTINUOUS
10
1.58183
20
0.0127254
11
1.57882
21
0.012126
0
LINE
8
BLACK
6
CONTINUOUS
10
1.57882
20
0.012126
11
1.51882
21
0.012126
0
LINE
8
BLACK
6
CONTINUOUS
10
1.51882
20
0.012126
11
1.51581
21
0.0127254
0
LINE
8
BLACK
6
CONTINUOUS
10
1.51581
20
0.0127254
11
1.51325
21
0.0144322
0
LINE
8
BLACK
6
CONTINUOUS
10
1.51325
20
0.0144322
11
1.51154
21
0.0169867
0
LINE
8
BLACK
6
CONTINUOUS
10
1.51154
20
0.0169867
11
1.51094
21
0.02
0
LINE
8
BLACK
6
CONTINUOUS
10
1.51094
20
0.02
11
1.51094
21
0.08
0
LINE
8
BLACK
6
CONTINUOUS
10
1.51094
20
0.08
11
1.51154
21
0.0830133
0
LINE
8
BLACK
6
CONTINUOUS
10
1.51154
20
0.0830133
11
1.51325
21
0.0855678
0
LINE
8
BLACK
6
CONTINUOUS
10
1.51325
20
0.0855678
11
1.51581
21
0.0872746
0
LINE
8
BLACK
6
CONTINUOUS
10
1.51581
20
0.0872746
11
1.51882
21
0.087874
0
LINE
8
BLACK
6
CONTINUOUS
10
1.51882
20
0.087874
11
1.57882
21
0.087874
0
LINE
8
BLACK
6
CONTINUOUS
10
1.57882
20
0.087874
11
1.58183
21
0.0872746
0
LINE
8
BLACK
6
CONTINUOUS
10
0.279076
20
0.37192
11
0.281631
21
0.370213
0
LINE
8
BLACK
6
CONTINUOUS
10
0.281631
20
0.370213
11
0.283338
21
0.367659
0
LINE
8
BLACK
6
CONTINUOUS
10
0.283338
20
0.367659
11
0.283937
21
0.364646
0
LINE
8
BLACK
6
CONTINUOUS
10
0.283937
20
0.364646
11
0.283937
21
0.304646
0
LINE
8
BLACK
6
CONTINUOUS
10
0.283937
20
0.304646
11
0.283338
21
0.301632
0
LINE
8
BLACK
6
CONTINUOUS
10
0.283338
20
0.301632
11
0.281631
21
0.299078
0
LINE
8
BLACK
6
CONTINUOUS
10
0.281631
20
0.299078
11
0.279076
21
0.297371
0
LINE
8
BLACK
6
CONTINUOUS
10
0.279076
20
0.297371
11
0.276063
21
0.296772
0
LINE
8
BLACK
6
CONTINUOUS
10
0.276063
20
0.296772
11
0.216063
21
0.296772
0
LINE
8
BLACK
6
CONTINUOUS
10
0.216063
20
0.296772
11
0.21305
21
0.297371
0
LINE
8
BLACK
6
CONTINUOUS
10
0.21305
20
0.297371
11
0.210495
21
0.299078
0
LINE
8
BLACK
6
CONTINUOUS
10
0.210495
20
0.299078
11
0.208788
21
0.301632
0
LINE
8
BLACK
6
CONTINUOUS
10
0.208788
20
0.301632
11
0.208189
21
0.304646
0
LINE
8
BLACK
6
CONTINUOUS
10
0.208189
20
0.304646
11
0.208189
21
0.364646
0
LINE
8
BLACK
6
CONTINUOUS
10
0.208189
20
0.364646
11
0.208788
21
0.367659
0
LINE
8
BLACK
6
CONTINUOUS
10
0.208788
20
0.367659
11
0.210495
21
0.370213
0
LINE
8
BLACK
6
CONTINUOUS
10
0.210495
20
0.370213
11
0.21305
21
0.37192
0
LINE
8
BLACK
6
CONTINUOUS
10
0.21305
20
0.37192
11
0.216063
21
0.37252
0
LINE
8
BLACK
6
CONTINUOUS
10
0.216063
20
0.37252
11
0.276063
21
0.37252
0
LINE
8
BLACK
6
CONTINUOUS
10
0.276063
20
0.37252
11
0.279076
21
0.37192
0
LINE
8
BLACK
6
CONTINUOUS
10
1.97908
20
0.37192
11
1.98163
21
0.370213
0
LINE
8
BLACK
6
CONTINUOUS
10
1.98163
20
0.370213
11
1.98334
21
0.367659
0
LINE
8
BLACK
6
CONTINUOUS
10
1.98334
20
0.367659
11
1.98394
21
0.364646
0
LINE
8
BLACK
6
CONTINUOUS
10
1.98394
20
0.364646
11
1.98394
21
0.304646
0
LINE
8
BLACK
6
CONTINUOUS
10
1.98394
20
0.304646
11
1.98334
21
0.301632
0
LINE
8
BLACK
6
CONTINUOUS
10
1.98334
20
0.301632
11
1.98163
21
0.299078
0
LINE
8
BLACK
6
CONTINUOUS
10
1.98163
20
0.299078
11
1.97908
21
0.297371
0
LINE
8
BLACK
6
CONTINUOUS
10
1.97908
20
0.297371
11
1.97606
21
0.296772
0
LINE
8
BLACK
6
CONTINUOUS
10
1.97606
20
0.296772
11
1.91606
21
0.296772
0
LINE
8
BLACK
6
CONTINUOUS
10
1.91606
20
0.296772
11
1.91305
21
0.297371
0
LINE
8
BLACK
6
CONTINUOUS
10
1.91305
20
0.297371
11
1.9105
21
0.299078
0
LINE
8
BLACK
6
CONTINUOUS
10
1.9105
20
0.299078
11
1.90879
21
0.301632
0
LINE
8
BLACK
6
CONTINUOUS
10
1.90879
20
0.301632
11
1.90819
21
0.304646
0
LINE
8
BLACK
6
CONTINUOUS
10
1.90819
20
0.304646
11
1.90819
21
0.364646
0
LINE
8
BLACK
6
CONTINUOUS
10
1.90819
20
0.364646
11
1.90879
21
0.367659
0
LINE
8
BLACK
6
CONTINUOUS
10
1.90879
20
0.367659
11
1.9105
21
0.370213
0
LINE
8
BLACK
6
CONTINUOUS
10
1.9105
20
0.370213
11
1.91305
21
0.37192
0
LINE
8
BLACK
6
CONTINUOUS
10
1.91305
20
0.37192
11
1.91606
21
0.37252
0
LINE
8
BLACK
6
CONTINUOUS
10
1.91606
20
0.37252
11
1.97606
21
0.37252
0
LINE
8
BLACK
6
CONTINUOUS
10
1.97606
20
0.37252
11
1.97908
21
0.37192
0
LINE
8
BLACK
6
CONTINUOUS
10
1.87908
20
0.37192
11
1.88163
21
0.370213
0
LINE
8
BLACK
6
CONTINUOUS
10
1.88163
20
0.370213
11
1.88334
21
0.367659
0
LINE
8
BLACK
6
CONTINUOUS
10
1.88334
20
0.367659
11
1.88394
21
0.364646
0
LINE
8
BLACK
6
CONTINUOUS
10
1.88394
20
0.364646
11
1.88394
21
0.304646
0
LINE
8
BLACK
6
CONTINUOUS
10
1.88394
20
0.304646
11
1.88334
21
0.301632
0
LINE
8
BLACK
6
CONTINUOUS
10
1.88334
20
0.301632
11
1.88163
21
0.299078
0
LINE
8
BLACK
6
CONTINUOUS
10
1.88163
20
0.299078
11
1.87908
21
0.297371
0
LINE
8
BLACK
6
CONTINUOUS
10
1.87908
20
0.297371
11
1.87606
21
0.296772
0
LINE
8
BLACK
6
CONTINUOUS
10
1.87606
20
0.296772
11
1.81606
21
0.296772
0
LINE
8
BLACK
6
CONTINUOUS
10
1.81606
20
0.296772
11
1.81305
21
0.297371
0
LINE
8
BLACK
6
CONTINUOUS
10
1.81305
20
0.297371
11
1.8105
21
0.299078
0
LINE
8
BLACK
6
CONTINUOUS
10
1.8105
20
0.299078
11
1.80879
21
0.301632
0
LINE
8
BLACK
6
CONTINUOUS
10
1.80879
20
0.301632
11
1.80819
21
0.304646
0
LINE
8
BLACK
6
CONTINUOUS
10
1.80819
20
0.304646
11
1.80819
21
0.364646
0
LINE
8
BLACK
6
CONTINUOUS
10
1.80819
20
0.364646
11
1.80879
21
0.367659
0
LINE
8
BLACK
6
CONTINUOUS
10
1.80879
20
0.367659
11
1.8105
21
0.370213
0
LINE
8
BLACK
6
CONTINUOUS
10
1.8105
20
0.370213
11
1.81305
21
0.37192
0
LINE
8
BLACK
6
CONTINUOUS
10
1.81305
20
0.37192
11
1.81606
21
0.37252
0
LINE
8
BLACK
6
CONTINUOUS
10
1.81606
20
0.37252
11
1.87606
21
0.37252
0
LINE
8
BLACK
6
CONTINUOUS
10
1.87606
20
0.37252
11
1.87908
21
0.37192
0
LINE
8
BLACK
6
CONTINUOUS
10
1.77908
20
0.37192
11
1.78163
21
0.370213
0
LINE
8
BLACK
6
CONTINUOUS
10
1.78163
20
0.370213
11
1.78334
21
0.367659
0
LINE
8
BLACK
6
CONTINUOUS
10
1.78334
20
0.367659
11
1.78394
21
0.364646
0
LINE
8
BLACK
6
CONTINUOUS
10
1.78394
20
0.364646
11
1.78394
21
0.304646
0
LINE
8
BLACK
6
CONTINUOUS
10
1.78394
20
0.304646
11
1.78334
21
0.301632
0
LINE
8
BLACK
6
CONTINUOUS
10
1.78334
20
0.301632
11
1.78163
21
0.299078
0
LINE
8
BLACK
6
CONTINUOUS
10
1.78163
20
0.299078
11
1.77908
21
0.297371
0
LINE
8
BLACK
6
CONTINUOUS
10
1.77908
20
0.297371
11
1.77606
21
0.296772
0
LINE
8
BLACK
6
CONTINUOUS
10
1.77606
20
0.296772
11
1.71606
21
0.296772
0
LINE
8
BLACK
6
CONTINUOUS
10
1.71606
20
0.296772
11
1.71305
21
0.297371
0
LINE
8
BLACK
6
CONTINUOUS
10
1.71305
20
0.297371
11
1.7105
21
0.299078
0
LINE
8
BLACK
6
CONTINUOUS
10
1.7105
20
0.299078
11
1.70879
21
0.301632
0
LINE
8
BLACK
6
CONTINUOUS
10
1.70879
20
0.301632
11
1.70819
21
0.304646
0
LINE
8
BLACK
6
CONTINUOUS
10
1.70819
20
0.304646
11
1.70819
21
0.364646
0
LINE
8
BLACK
6
CONTINUOUS
10
1.70819
20
0.364646
11
1.70879
21
0.367659
0
LINE
8
BLACK
6
CONTINUOUS
10
1.70879
20
0.367659
11
1.7105
21
0.370213
0
LINE
8
BLACK
6
CONTINUOUS
10
1.7105
20
0.370213
11
1.71305
21
0.37192
0
LINE
8
BLACK
6
CONTINUOUS
10
1.71305
20
0.37192
11
1.71606
21
0.37252
0
LINE
8
BLACK
6
CONTINUOUS
10
1.71606
20
0.37252
11
1.77606
21
0.37252
0
LINE
8
BLACK
6
CONTINUOUS
10
1.77606
20
0.37252
11
1.77908
21
0.37192
0
LINE
8
BLACK
6
CONTINUOUS
10
0.179076
20
0.37192
11
0.181631
21
0.370213
0
LINE
8
BLACK
6
CONTINUOUS
10
0.181631
20
0.370213
11
0.183338
21
0.367659
0
LINE
8
BLACK
6
CONTINUOUS
10
0.183338
20
0.367659
11
0.183937
21
0.364646
0
LINE
8
BLACK
6
CONTINUOUS
10
0.183937
20
0.364646
11
0.183937
21
0.304646
0
LINE
8
BLACK
6
CONTINUOUS
10
0.183937
20
0.304646
11
0.183338
21
0.301632
0
LINE
8
BLACK
6
CONTINUOUS
10
0.183338
20
0.301632
11
0.181631
21
0.299078
0
LINE
8
BLACK
6
CONTINUOUS
10
0.181631
20
0.299078
11
0.179076
21
0.297371
0
LINE
8
BLACK
6
CONTINUOUS
10
0.179076
20
0.297371
11
0.176063
21
0.296772
0
LINE
8
BLACK
6
CONTINUOUS
10
0.176063
20
0.296772
11
0.116063
21
0.296772
0
LINE
8
BLACK
6
CONTINUOUS
10
0.116063
20
0.296772
11
0.11305
21
0.297371
0
LINE
8
BLACK
6
CONTINUOUS
10
0.11305
20
0.297371
11
0.110495
21
0.299078
0
LINE
8
BLACK
6
CONTINUOUS
10
0.110495
20
0.299078
11
0.108788
21
0.301632
0
LINE
8
BLACK
6
CONTINUOUS
10
0.108788
20
0.301632
11
0.108189
21
0.304646
0
LINE
8
BLACK
6
CONTINUOUS
10
0.108189
20
0.304646
11
0.108189
21
0.364646
0
LINE
8
BLACK
6
CONTINUOUS
10
0.108189
20
0.364646
11
0.108788
21
0.367659
0
LINE
8
BLACK
6
CONTINUOUS
10
0.108788
20
0.367659
11
0.110495
21
0.370213
0
LINE
8
BLACK
6
CONTINUOUS
10
0.110495
20
0.370213
11
0.11305
21
0.37192
0
LINE
8
BLACK
6
CONTINUOUS
10
0.11305
20
0.37192
11
0.116063
21
0.37252
0
LINE
8
BLACK
6
CONTINUOUS
10
0.116063
20
0.37252
11
0.176063
21
0.37252
0
LINE
8
BLACK
6
CONTINUOUS
10
0.176063
20
0.37252
11
0.179076
21
0.37192
0
LINE
8
BLACK
6
CONTINUOUS
10
0.0790763
20
0.37192
11
0.0816307
21
0.370213
0
LINE
8
BLACK
6
CONTINUOUS
10
0.0816307
20
0.370213
11
0.0833376
21
0.367659
0
LINE
8
BLACK
6
CONTINUOUS
10
0.0833376
20
0.367659
11
0.083937
21
0.364646
0
LINE
8
BLACK
6
CONTINUOUS
10
0.083937
20
0.364646
11
0.083937
21
0.304646
0
LINE
8
BLACK
6
CONTINUOUS
10
0.083937
20
0.304646
11
0.0833376
21
0.301632
0
LINE
8
BLACK
6
CONTINUOUS
10
0.0833376
20
0.301632
11
0.0816307
21
0.299078
0
LINE
8
BLACK
6
CONTINUOUS
10
0.0816307
20
0.299078
11
0.0790763
21
0.297371
0
LINE
8
BLACK
6
CONTINUOUS
10
0.0790763
20
0.297371
11
0.076063
21
0.296772
0
LINE
8
BLACK
6
CONTINUOUS
10
0.076063
20
0.296772
11
0.016063
21
0.296772
0
LINE
8
BLACK
6
CONTINUOUS
10
0.016063
20
0.296772
11
0.0130497
21
0.297371
0
LINE
8
BLACK
6
CONTINUOUS
10
0.0130497
20
0.297371
11
0.0104952
21
0.299078
0
LINE
8
BLACK
6
CONTINUOUS
10
0.0104952
20
0.299078
11
0.00878835
21
0.301632
0
LINE
8
BLACK
6
CONTINUOUS
10
0.00878835
20
0.301632
11
0.00818898
21
0.304646
0
LINE
8
BLACK
6
CONTINUOUS
10
0.00818898
20
0.304646
11
0.00818898
21
0.364646
0
LINE
8
BLACK
6
CONTINUOUS
10
0.00818898
20
0.364646
11
0.00878835
21
0.367659
0
LINE
8
BLACK
6
CONTINUOUS
10
0.00878835
20
0.367659
11
0.0104952
21
0.370213
0
LINE
8
BLACK
6
CONTINUOUS
10
0.0104952
20
0.370213
11
0.0130497
21
0.37192
0
LINE
8
BLACK
6
CONTINUOUS
10
0.0130497
20
0.37192
11
0.016063
21
0.37252
0
LINE
8
BLACK
6
CONTINUOUS
10
0.016063
20
0.37252
11
0.076063
21
0.37252
0
LINE
8
BLACK
6
CONTINUOUS
10
0.076063
20
0.37252
11
0.0790763
21
0.37192
0
LINE
8
BLACK
6
CONTINUOUS
10
1.17868
20
2.05696
11
1.18124
21
2.05525
0
LINE
8
BLACK
6
CONTINUOUS
10
1.18124
20
2.05525
11
1.18294
21
2.0527
0
LINE
8
BLACK
6
CONTINUOUS
10
1.18294
20
2.0527
11
1.18354
21
2.04969
0
LINE
8
BLACK
6
CONTINUOUS
10
1.18354
20
2.04969
11
1.18354
21
1.98969
0
LINE
8
BLACK
6
CONTINUOUS
10
1.18354
20
1.98969
11
1.18294
21
1.98667
0
LINE
8
BLACK
6
CONTINUOUS
10
1.18294
20
1.98667
11
1.18124
21
1.98412
0
LINE
8
BLACK
6
CONTINUOUS
10
1.18124
20
1.98412
11
1.17868
21
1.98241
0
LINE
8
BLACK
6
CONTINUOUS
10
1.17868
20
1.98241
11
1.17567
21
1.98181
0
LINE
8
BLACK
6
CONTINUOUS
10
1.17567
20
1.98181
11
1.11567
21
1.98181
0
LINE
8
BLACK
6
CONTINUOUS
10
1.11567
20
1.98181
11
1.11266
21
1.98241
0
LINE
8
BLACK
6
CONTINUOUS
10
1.11266
20
1.98241
11
1.1101
21
1.98412
0
LINE
8
BLACK
6
CONTINUOUS
10
1.1101
20
1.98412
11
1.10839
21
1.98667
0
LINE
8
BLACK
6
CONTINUOUS
10
1.10839
20
1.98667
11
1.1078
21
1.98969
0
LINE
8
BLACK
6
CONTINUOUS
10
1.1078
20
1.98969
11
1.1078
21
2.04969
0
LINE
8
BLACK
6
CONTINUOUS
10
1.1078
20
2.04969
11
1.10839
21
2.0527
0
LINE
8
BLACK
6
CONTINUOUS
10
1.10839
20
2.0527
11
1.1101
21
2.05525
0
LINE
8
BLACK
6
CONTINUOUS
10
1.1101
20
2.05525
11
1.11266
21
2.05696
0
LINE
8
BLACK
6
CONTINUOUS
10
1.11266
20
2.05696
11
1.11567
21
2.05756
0
LINE
8
BLACK
6
CONTINUOUS
10
1.11567
20
2.05756
11
1.17567
21
2.05756
0
LINE
8
BLACK
6
CONTINUOUS
10
1.17567
20
2.05756
11
1.17868
21
2.05696
0
LINE
8
BLACK
6
CONTINUOUS
10
1.77868
20
2.05696
11
1.78124
21
2.05525
0
LINE
8
BLACK
6
CONTINUOUS
10
1.78124
20
2.05525
11
1.78294
21
2.0527
0
LINE
8
BLACK
6
CONTINUOUS
10
1.78294
20
2.0527
11
1.78354
21
2.04969
0
LINE
8
BLACK
6
CONTINUOUS
10
1.78354
20
2.04969
11
1.78354
21
1.98969
0
LINE
8
BLACK
6
CONTINUOUS
10
1.78354
20
1.98969
11
1.78294
21
1.98667
0
LINE
8
BLACK
6
CONTINUOUS
10
1.78294
20
1.98667
11
1.78124
21
1.98412
0
LINE
8
BLACK
6
CONTINUOUS
10
1.78124
20
1.98412
11
1.77868
21
1.98241
0
LINE
8
BLACK
6
CONTINUOUS
10
1.77868
20
1.98241
11
1.77567
21
1.98181
0
LINE
8
BLACK
6
CONTINUOUS
10
1.77567
20
1.98181
11
1.71567
21
1.98181
0
LINE
8
BLACK
6
CONTINUOUS
10
1.71567
20
1.98181
11
1.71266
21
1.98241
0
LINE
8
BLACK
6
CONTINUOUS
10
1.71266
20
1.98241
11
1.7101
21
1.98412
0
LINE
8
BLACK
6
CONTINUOUS
10
1.7101
20
1.98412
11
1.70839
21
1.98667
0
LINE
8
BLACK
6
CONTINUOUS
10
1.70839
20
1.98667
11
1.7078
21
1.98969
0
LINE
8
BLACK
6
CONTINUOUS
10
1.7078
20
1.98969
11
1.7078
21
2.04969
0
LINE
8
BLACK
6
CONTINUOUS
10
1.7078
20
2.04969
11
1.70839
21
2.0527
0
LINE
8
BLACK
6
CONTINUOUS
10
1.70839
20
2.0527
11
1.7101
21
2.05525
0
LINE
8
BLACK
6
CONTINUOUS
10
1.7101
20
2.05525
11
1.71266
21
2.05696
0
LINE
8
BLACK
6
CONTINUOUS
10
1.71266
20
2.05696
11
1.71567
21
2.05756
0
LINE
8
BLACK
6
CONTINUOUS
10
1.71567
20
2.05756
11
1.77567
21
2.05756
0
LINE
8
BLACK
6
CONTINUOUS
10
1.77567
20
2.05756
11
1.77868
21
2.05696
0
LINE
8
BLACK
6
CONTINUOUS
10
1.87868
20
2.05696
11
1.88124
21
2.05525
0
LINE
8
BLACK
6
CONTINUOUS
10
1.88124
20
2.05525
11
1.88294
21
2.0527
0
LINE
8
BLACK
6
CONTINUOUS
10
1.88294
20
2.0527
11
1.88354
21
2.04969
0
LINE
8
BLACK
6
CONTINUOUS
10
1.88354
20
2.04969
11
1.88354
21
1.98969
0
LINE
8
BLACK
6
CONTINUOUS
10
1.88354
20
1.98969
11
1.88294
21
1.98667
0
LINE
8
BLACK
6
CONTINUOUS
10
1.88294
20
1.98667
11
1.88124
21
1.98412
0
LINE
8
BLACK
6
CONTINUOUS
10
1.88124
20
1.98412
11
1.87868
21
1.98241
0
LINE
8
BLACK
6
CONTINUOUS
10
1.87868
20
1.98241
11
1.87567
21
1.98181
0
LINE
8
BLACK
6
CONTINUOUS
10
1.87567
20
1.98181
11
1.81567
21
1.98181
0
LINE
8
BLACK
6
CONTINUOUS
10
1.81567
20
1.98181
11
1.81266
21
1.98241
0
LINE
8
BLACK
6
CONTINUOUS
10
1.81266
20
1.98241
11
1.8101
21
1.98412
0
LINE
8
BLACK
6
CONTINUOUS
10
1.8101
20
1.98412
11
1.80839
21
1.98667
0
LINE
8
BLACK
6
CONTINUOUS
10
1.80839
20
1.98667
11
1.8078
21
1.98969
0
LINE
8
BLACK
6
CONTINUOUS
10
1.8078
20
1.98969
11
1.8078
21
2.04969
0
LINE
8
BLACK
6
CONTINUOUS
10
1.8078
20
2.04969
11
1.80839
21
2.0527
0
LINE
8
BLACK
6
CONTINUOUS
10
1.80839
20
2.0527
11
1.8101
21
2.05525
0
LINE
8
BLACK
6
CONTINUOUS
10
1.8101
20
2.05525
11
1.81266
21
2.05696
0
LINE
8
BLACK
6
CONTINUOUS
10
1.81266
20
2.05696
11
1.81567
21
2.05756
0
LINE
8
BLACK
6
CONTINUOUS
10
1.81567
20
2.05756
11
1.87567
21
2.05756
0
LINE
8
BLACK
6
CONTINUOUS
10
1.87567
20
2.05756
11
1.87868
21
2.05696
0
LINE
8
BLACK
6
CONTINUOUS
10
1.97868
20
2.05696
11
1.98124
21
2.05525
0
LINE
8
BLACK
6
CONTINUOUS
10
1.98124
20
2.05525
11
1.98294
21
2.0527
0
LINE
8
BLACK
6
CONTINUOUS
10
1.98294
20
2.0527
11
1.98354
21
2.04969
0
LINE
8
BLACK
6
CONTINUOUS
10
1.98354
20
2.04969
11
1.98354
21
1.98969
0
LINE
8
BLACK
6
CONTINUOUS
10
1.98354
20
1.98969
11
1.98294
21
1.98667
0
LINE
8
BLACK
6
CONTINUOUS
10
1.98294
20
1.98667
11
1.98124
21
1.98412
0
LINE
8
BLACK
6
CONTINUOUS
10
1.98124
20
1.98412
11
1.97868
21
1.98241
0
LINE
8
BLACK
6
CONTINUOUS
10
1.97868
20
1.98241
11
1.97567
21
1.98181
0
LINE
8
BLACK
6
CONTINUOUS
10
1.97567
20
1.98181
11
1.91567
21
1.98181
0
LINE
8
BLACK
6
CONTINUOUS
10
1.91567
20
1.98181
11
1.91266
21
1.98241
0
LINE
8
BLACK
6
CONTINUOUS
10
1.91266
20
1.98241
11
1.9101
21
1.98412
0
LINE
8
BLACK
6
CONTINUOUS
10
1.9101
20
1.98412
11
1.90839
21
1.98667
0
LINE
8
BLACK
6
CONTINUOUS
10
1.90839
20
1.98667
11
1.9078
21
1.98969
0
LINE
8
BLACK
6
CONTINUOUS
10
1.9078
20
1.98969
11
1.9078
21
2.04969
0
LINE
8
BLACK
6
CONTINUOUS
10
1.9078
20
2.04969
11
1.90839
21
2.0527
0
LINE
8
BLACK
6
CONTINUOUS
10
1.90839
20
2.0527
11
1.9101
21
2.05525
0
LINE
8
BLACK
6
CONTINUOUS
10
1.9101
20
2.05525
11
1.91266
21
2.05696
0
LINE
8
BLACK
6
CONTINUOUS
10
1.91266
20
2.05696
11
1.91567
21
2.05756
0
LINE
8
BLACK
6
CONTINUOUS
10
1.91567
20
2.05756
11
1.97567
21
2.05756
0
LINE
8
BLACK
6
CONTINUOUS
10
1.97567
20
2.05756
11
1.97868
21
2.05696
0
LINE
8
BLACK
6
CONTINUOUS
10
1.67868
20
2.05696
11
1.68124
21
2.05525
0
LINE
8
BLACK
6
CONTINUOUS
10
1.68124
20
2.05525
11
1.68294
21
2.0527
0
LINE
8
BLACK
6
CONTINUOUS
10
1.68294
20
2.0527
11
1.68354
21
2.04969
0
LINE
8
BLACK
6
CONTINUOUS
10
1.68354
20
2.04969
11
1.68354
21
1.98969
0
LINE
8
BLACK
6
CONTINUOUS
10
1.68354
20
1.98969
11
1.68294
21
1.98667
0
LINE
8
BLACK
6
CONTINUOUS
10
1.68294
20
1.98667
11
1.68124
21
1.98412
0
LINE
8
BLACK
6
CONTINUOUS
10
1.68124
20
1.98412
11
1.67868
21
1.98241
0
LINE
8
BLACK
6
CONTINUOUS
10
1.67868
20
1.98241
11
1.67567
21
1.98181
0
LINE
8
BLACK
6
CONTINUOUS
10
1.67567
20
1.98181
11
1.61567
21
1.98181
0
LINE
8
BLACK
6
CONTINUOUS
10
1.61567
20
1.98181
11
1.61266
21
1.98241
0
LINE
8
BLACK
6
CONTINUOUS
10
1.61266
20
1.98241
11
1.6101
21
1.98412
0
LINE
8
BLACK
6
CONTINUOUS
10
1.6101
20
1.98412
11
1.60839
21
1.98667
0
LINE
8
BLACK
6
CONTINUOUS
10
1.60839
20
1.98667
11
1.6078
21
1.98969
0
LINE
8
BLACK
6
CONTINUOUS
10
1.6078
20
1.98969
11
1.6078
21
2.04969
0
LINE
8
BLACK
6
CONTINUOUS
10
1.6078
20
2.04969
11
1.60839
21
2.0527
0
LINE
8
BLACK
6
CONTINUOUS
10
1.60839
20
2.0527
11
1.6101
21
2.05525
0
LINE
8
BLACK
6
CONTINUOUS
10
1.6101
20
2.05525
11
1.61266
21
2.05696
0
LINE
8
BLACK
6
CONTINUOUS
10
1.61266
20
2.05696
11
1.61567
21
2.05756
0
LINE
8
BLACK
6
CONTINUOUS
10
1.61567
20
2.05756
11
1.67567
21
2.05756
0
LINE
8
BLACK
6
CONTINUOUS
10
1.67567
20
2.05756
11
1.67868
21
2.05696
0
LINE
8
BLACK
6
CONTINUOUS
10
0.0786826
20
2.05696
11
0.081237
21
2.05525
0
LINE
8
BLACK
6
CONTINUOUS
10
0.081237
20
2.05525
11
0.0829439
21
2.0527
0
LINE
8
BLACK
6
CONTINUOUS
10
0.0829439
20
2.0527
11
0.0835433
21
2.04969
0
LINE
8
BLACK
6
CONTINUOUS
10
0.0835433
20
2.04969
11
0.0835433
21
1.98969
0
LINE
8
BLACK
6
CONTINUOUS
10
0.0835433
20
1.98969
11
0.0829439
21
1.98667
0
LINE
8
BLACK
6
CONTINUOUS
10
0.0829439
20
1.98667
11
0.081237
21
1.98412
0
LINE
8
BLACK
6
CONTINUOUS
10
0.081237
20
1.98412
11
0.0786826
21
1.98241
0
LINE
8
BLACK
6
CONTINUOUS
10
0.0786826
20
1.98241
11
0.0756693
21
1.98181
0
LINE
8
BLACK
6
CONTINUOUS
10
0.0756693
20
1.98181
11
0.0156693
21
1.98181
0
LINE
8
BLACK
6
CONTINUOUS
10
0.0156693
20
1.98181
11
0.012656
21
1.98241
0
LINE
8
BLACK
6
CONTINUOUS
10
0.012656
20
1.98241
11
0.0101015
21
1.98412
0
LINE
8
BLACK
6
CONTINUOUS
10
0.0101015
20
1.98412
11
0.00839465
21
1.98667
0
LINE
8
BLACK
6
CONTINUOUS
10
0.00839465
20
1.98667
11
0.00779528
21
1.98969
0
LINE
8
BLACK
6
CONTINUOUS
10
0.00779528
20
1.98969
11
0.00779528
21
2.04969
0
LINE
8
BLACK
6
CONTINUOUS
10
0.00779528
20
2.04969
11
0.00839465
21
2.0527
0
LINE
8
BLACK
6
CONTINUOUS
10
0.00839465
20
2.0527
11
0.0101015
21
2.05525
0
LINE
8
BLACK
6
CONTINUOUS
10
0.0101015
20
2.05525
11
0.012656
21
2.05696
0
LINE
8
BLACK
6
CONTINUOUS
10
0.012656
20
2.05696
11
0.0156693
21
2.05756
0
LINE
8
BLACK
6
CONTINUOUS
10
0.0156693
20
2.05756
11
0.0756693
21
2.05756
0
LINE
8
BLACK
6
CONTINUOUS
10
0.0756693
20
2.05756
11
0.0786826
21
2.05696
0
LINE
8
BLACK
6
CONTINUOUS
10
1.57868
20
2.05696
11
1.58124
21
2.05525
0
LINE
8
BLACK
6
CONTINUOUS
10
1.58124
20
2.05525
11
1.58294
21
2.0527
0
LINE
8
BLACK
6
CONTINUOUS
10
1.58294
20
2.0527
11
1.58354
21
2.04969
0
LINE
8
BLACK
6
CONTINUOUS
10
1.58354
20
2.04969
11
1.58354
21
1.98969
0
LINE
8
BLACK
6
CONTINUOUS
10
1.58354
20
1.98969
11
1.58294
21
1.98667
0
LINE
8
BLACK
6
CONTINUOUS
10
1.58294
20
1.98667
11
1.58124
21
1.98412
0
LINE
8
BLACK
6
CONTINUOUS
10
1.58124
20
1.98412
11
1.57868
21
1.98241
0
LINE
8
BLACK
6
CONTINUOUS
10
1.57868
20
1.98241
11
1.57567
21
1.98181
0
LINE
8
BLACK
6
CONTINUOUS
10
1.57567
20
1.98181
11
1.51567
21
1.98181
0
LINE
8
BLACK
6
CONTINUOUS
10
1.51567
20
1.98181
11
1.51266
21
1.98241
0
LINE
8
BLACK
6
CONTINUOUS
10
1.51266
20
1.98241
11
1.5101
21
1.98412
0
LINE
8
BLACK
6
CONTINUOUS
10
1.5101
20
1.98412
11
1.50839
21
1.98667
0
LINE
8
BLACK
6
CONTINUOUS
10
1.50839
20
1.98667
11
1.5078
21
1.98969
0
LINE
8
BLACK
6
CONTINUOUS
10
1.5078
20
1.98969
11
1.5078
21
2.04969
0
LINE
8
BLACK
6
CONTINUOUS
10
1.5078
20
2.04969
11
1.50839
21
2.0527
0
LINE
8
BLACK
6
CONTINUOUS
10
1.50839
20
2.0527
11
1.5101
21
2.05525
0
LINE
8
BLACK
6
CONTINUOUS
10
1.5101
20
2.05525
11
1.51266
21
2.05696
0
LINE
8
BLACK
6
CONTINUOUS
10
1.51266
20
2.05696
11
1.51567
21
2.05756
0
LINE
8
BLACK
6
CONTINUOUS
10
1.51567
20
2.05756
11
1.57567
21
2.05756
0
LINE
8
BLACK
6
CONTINUOUS
10
1.57567
20
2.05756
11
1.57868
21
2.05696
0
LINE
8
BLACK
6
CONTINUOUS
10
1.47868
20
2.05696
11
1.48124
21
2.05525
0
LINE
8
BLACK
6
CONTINUOUS
10
1.48124
20
2.05525
11
1.48294
21
2.0527
0
LINE
8
BLACK
6
CONTINUOUS
10
1.48294
20
2.0527
11
1.48354
21
2.04969
0
LINE
8
BLACK
6
CONTINUOUS
10
1.48354
20
2.04969
11
1.48354
21
1.98969
0
LINE
8
BLACK
6
CONTINUOUS
10
1.48354
20
1.98969
11
1.48294
21
1.98667
0
LINE
8
BLACK
6
CONTINUOUS
10
1.48294
20
1.98667
11
1.48124
21
1.98412
0
LINE
8
BLACK
6
CONTINUOUS
10
1.48124
20
1.98412
11
1.47868
21
1.98241
0
LINE
8
BLACK
6
CONTINUOUS
10
1.47868
20
1.98241
11
1.47567
21
1.98181
0
LINE
8
BLACK
6
CONTINUOUS
10
1.47567
20
1.98181
11
1.41567
21
1.98181
0
LINE
8
BLACK
6
CONTINUOUS
10
1.41567
20
1.98181
11
1.41266
21
1.98241
0
LINE
8
BLACK
6
CONTINUOUS
10
1.41266
20
1.98241
11
1.4101
21
1.98412
0
LINE
8
BLACK
6
CONTINUOUS
10
1.4101
20
1.98412
11
1.40839
21
1.98667
0
LINE
8
BLACK
6
CONTINUOUS
10
1.40839
20
1.98667
11
1.4078
21
1.98969
0
LINE
8
BLACK
6
CONTINUOUS
10
1.4078
20
1.98969
11
1.4078
21
2.04969
0
LINE
8
BLACK
6
CONTINUOUS
10
1.4078
20
2.04969
11
1.40839
21
2.0527
0
LINE
8
BLACK
6
CONTINUOUS
10
1.40839
20
2.0527
11
1.4101
21
2.05525
0
LINE
8
BLACK
6
CONTINUOUS
10
1.4101
20
2.05525
11
1.41266
21
2.05696
0
LINE
8
BLACK
6
CONTINUOUS
10
1.41266
20
2.05696
11
1.41567
21
2.05756
0
LINE
8
BLACK
6
CONTINUOUS
10
1.41567
20
2.05756
11
1.47567
21
2.05756
0
LINE
8
BLACK
6
CONTINUOUS
10
1.47567
20
2.05756
11
1.47868
21
2.05696
0
LINE
8
BLACK
6
CONTINUOUS
10
1.37868
20
2.05696
11
1.38124
21
2.05525
0
LINE
8
BLACK
6
CONTINUOUS
10
1.38124
20
2.05525
11
1.38294
21
2.0527
0
LINE
8
BLACK
6
CONTINUOUS
10
1.38294
20
2.0527
11
1.38354
21
2.04969
0
LINE
8
BLACK
6
CONTINUOUS
10
1.38354
20
2.04969
11
1.38354
21
1.98969
0
LINE
8
BLACK
6
CONTINUOUS
10
1.38354
20
1.98969
11
1.38294
21
1.98667
0
LINE
8
BLACK
6
CONTINUOUS
10
1.38294
20
1.98667
11
1.38124
21
1.98412
0
LINE
8
BLACK
6
CONTINUOUS
10
1.38124
20
1.98412
11
1.37868
21
1.98241
0
LINE
8
BLACK
6
CONTINUOUS
10
1.37868
20
1.98241
11
1.37567
21
1.98181
0
LINE
8
BLACK
6
CONTINUOUS
10
1.37567
20
1.98181
11
1.31567
21
1.98181
0
LINE
8
BLACK
6
CONTINUOUS
10
1.31567
20
1.98181
11
1.31266
21
1.98241
0
LINE
8
BLACK
6
CONTINUOUS
10
1.31266
20
1.98241
11
1.3101
21
1.98412
0
LINE
8
BLACK
6
CONTINUOUS
10
1.3101
20
1.98412
11
1.30839
21
1.98667
0
LINE
8
BLACK
6
CONTINUOUS
10
1.30839
20
1.98667
11
1.3078
21
1.98969
0
LINE
8
BLACK
6
CONTINUOUS
10
1.3078
20
1.98969
11
1.3078
21
2.04969
0
LINE
8
BLACK
6
CONTINUOUS
10
1.3078
20
2.04969
11
1.30839
21
2.0527
0
LINE
8
BLACK
6
CONTINUOUS
10
1.30839
20
2.0527
11
1.3101
21
2.05525
0
LINE
8
BLACK
6
CONTINUOUS
10
1.3101
20
2.05525
11
1.31266
21
2.05696
0
LINE
8
BLACK
6
CONTINUOUS
10
1.31266
20
2.05696
11
1.31567
21
2.05756
0
LINE
8
BLACK
6
CONTINUOUS
10
1.31567
20
2.05756
11
1.37567
21
2.05756
0
LINE
8
BLACK
6
CONTINUOUS
10
1.37567
20
2.05756
11
1.37868
21
2.05696
0
LINE
8
BLACK
6
CONTINUOUS
10
1.27868
20
2.05696
11
1.28124
21
2.05525
0
LINE
8
BLACK
6
CONTINUOUS
10
1.28124
20
2.05525
11
1.28294
21
2.0527
0
LINE
8
BLACK
6
CONTINUOUS
10
1.28294
20
2.0527
11
1.28354
21
2.04969
0
LINE
8
BLACK
6
CONTINUOUS
10
1.28354
20
2.04969
11
1.28354
21
1.98969
0
LINE
8
BLACK
6
CONTINUOUS
10
1.28354
20
1.98969
11
1.28294
21
1.98667
0
LINE
8
BLACK
6
CONTINUOUS
10
1.28294
20
1.98667
11
1.28124
21
1.98412
0
LINE
8
BLACK
6
CONTINUOUS
10
1.28124
20
1.98412
11
1.27868
21
1.98241
0
LINE
8
BLACK
6
CONTINUOUS
10
1.27868
20
1.98241
11
1.27567
21
1.98181
0
LINE
8
BLACK
6
CONTINUOUS
10
1.27567
20
1.98181
11
1.21567
21
1.98181
0
LINE
8
BLACK
6
CONTINUOUS
10
1.21567
20
1.98181
11
1.21266
21
1.98241
0
LINE
8
BLACK
6
CONTINUOUS
10
1.21266
20
1.98241
11
1.2101
21
1.98412
0
LINE
8
BLACK
6
CONTINUOUS
10
1.2101
20
1.98412
11
1.20839
21
1.98667
0
LINE
8
BLACK
6
CONTINUOUS
10
1.20839
20
1.98667
11
1.2078
21
1.98969
0
LINE
8
BLACK
6
CONTINUOUS
10
1.2078
20
1.98969
11
1.2078
21
2.04969
0
LINE
8
BLACK
6
CONTINUOUS
10
1.2078
20
2.04969
11
1.20839
21
2.0527
0
LINE
8
BLACK
6
CONTINUOUS
10
1.20839
20
2.0527
11
1.2101
21
2.05525
0
LINE
8
BLACK
6
CONTINUOUS
10
1.2101
20
2.05525
11
1.21266
21
2.05696
0
LINE
8
BLACK
6
CONTINUOUS
10
1.21266
20
2.05696
11
1.21567
21
2.05756
0
LINE
8
BLACK
6
CONTINUOUS
10
1.21567
20
2.05756
11
1.27567
21
2.05756
0
LINE
8
BLACK
6
CONTINUOUS
10
1.27567
20
2.05756
11
1.27868
21
2.05696
0
LINE
8
BLACK
6
CONTINUOUS
10
1.07868
20
2.05696
11
1.08124
21
2.05525
0
LINE
8
BLACK
6
CONTINUOUS
10
1.08124
20
2.05525
11
1.08294
21
2.0527
0
LINE
8
BLACK
6
CONTINUOUS
10
1.08294
20
2.0527
11
1.08354
21
2.04969
0
LINE
8
BLACK
6
CONTINUOUS
10
1.08354
20
2.04969
11
1.08354
21
1.98969
0
LINE
8
BLACK
6
CONTINUOUS
10
1.08354
20
1.98969
11
1.08294
21
1.98667
0
LINE
8
BLACK
6
CONTINUOUS
10
1.08294
20
1.98667
11
1.08124
21
1.98412
0
LINE
8
BLACK
6
CONTINUOUS
10
1.08124
20
1.98412
11
1.07868
21
1.98241
0
LINE
8
BLACK
6
CONTINUOUS
10
1.07868
20
1.98241
11
1.07567
21
1.98181
0
LINE
8
BLACK
6
CONTINUOUS
10
1.07567
20
1.98181
11
1.01567
21
1.98181
0
LINE
8
BLACK
6
CONTINUOUS
10
1.01567
20
1.98181
11
1.01266
21
1.98241
0
LINE
8
BLACK
6
CONTINUOUS
10
1.01266
20
1.98241
11
1.0101
21
1.98412
0
LINE
8
BLACK
6
CONTINUOUS
10
1.0101
20
1.98412
11
1.00839
21
1.98667
0
LINE
8
BLACK
6
CONTINUOUS
10
1.00839
20
1.98667
11
1.0078
21
1.98969
0
LINE
8
BLACK
6
CONTINUOUS
10
1.0078
20
1.98969
11
1.0078
21
2.04969
0
LINE
8
BLACK
6
CONTINUOUS
10
1.0078
20
2.04969
11
1.00839
21
2.0527
0
LINE
8
BLACK
6
CONTINUOUS
10
1.00839
20
2.0527
11
1.0101
21
2.05525
0
LINE
8
BLACK
6
CONTINUOUS
10
1.0101
20
2.05525
11
1.01266
21
2.05696
0
LINE
8
BLACK
6
CONTINUOUS
10
1.01266
20
2.05696
11
1.01567
21
2.05756
0
LINE
8
BLACK
6
CONTINUOUS
10
1.01567
20
2.05756
11
1.07567
21
2.05756
0
LINE
8
BLACK
6
CONTINUOUS
10
1.07567
20
2.05756
11
1.07868
21
2.05696
0
LINE
8
BLACK
6
CONTINUOUS
10
0.978683
20
2.05696
11
0.981237
21
2.05525
0
LINE
8
BLACK
6
CONTINUOUS
10
0.981237
20
2.05525
11
0.982944
21
2.0527
0
LINE
8
BLACK
6
CONTINUOUS
10
0.982944
20
2.0527
11
0.983543
21
2.04969
0
LINE
8
BLACK
6
CONTINUOUS
10
0.983543
20
2.04969
11
0.983543
21
1.98969
0
LINE
8
BLACK
6
CONTINUOUS
10
0.983543
20
1.98969
11
0.982944
21
1.98667
0
LINE
8
BLACK
6
CONTINUOUS
10
0.982944
20
1.98667
11
0.981237
21
1.98412
0
LINE
8
BLACK
6
CONTINUOUS
10
0.981237
20
1.98412
11
0.978683
21
1.98241
0
LINE
8
BLACK
6
CONTINUOUS
10
0.978683
20
1.98241
11
0.975669
21
1.98181
0
LINE
8
BLACK
6
CONTINUOUS
10
0.975669
20
1.98181
11
0.915669
21
1.98181
0
LINE
8
BLACK
6
CONTINUOUS
10
0.915669
20
1.98181
11
0.912656
21
1.98241
0
LINE
8
BLACK
6
CONTINUOUS
10
0.912656
20
1.98241
11
0.910102
21
1.98412
0
LINE
8
BLACK
6
CONTINUOUS
10
0.910102
20
1.98412
11
0.908395
21
1.98667
0
LINE
8
BLACK
6
CONTINUOUS
10
0.908395
20
1.98667
11
0.907795
21
1.98969
0
LINE
8
BLACK
6
CONTINUOUS
10
0.907795
20
1.98969
11
0.907795
21
2.04969
0
LINE
8
BLACK
6
CONTINUOUS
10
0.907795
20
2.04969
11
0.908395
21
2.0527
0
LINE
8
BLACK
6
CONTINUOUS
10
0.908395
20
2.0527
11
0.910102
21
2.05525
0
LINE
8
BLACK
6
CONTINUOUS
10
0.910102
20
2.05525
11
0.912656
21
2.05696
0
LINE
8
BLACK
6
CONTINUOUS
10
0.912656
20
2.05696
11
0.915669
21
2.05756
0
LINE
8
BLACK
6
CONTINUOUS
10
0.915669
20
2.05756
11
0.975669
21
2.05756
0
LINE
8
BLACK
6
CONTINUOUS
10
0.975669
20
2.05756
11
0.978683
21
2.05696
0
LINE
8
BLACK
6
CONTINUOUS
10
0.878683
20
2.05696
11
0.881237
21
2.05525
0
LINE
8
BLACK
6
CONTINUOUS
10
0.881237
20
2.05525
11
0.882944
21
2.0527
0
LINE
8
BLACK
6
CONTINUOUS
10
0.882944
20
2.0527
11
0.883543
21
2.04969
0
LINE
8
BLACK
6
CONTINUOUS
10
0.883543
20
2.04969
11
0.883543
21
1.98969
0
LINE
8
BLACK
6
CONTINUOUS
10
0.883543
20
1.98969
11
0.882944
21
1.98667
0
LINE
8
BLACK
6
CONTINUOUS
10
0.882944
20
1.98667
11
0.881237
21
1.98412
0
LINE
8
BLACK
6
CONTINUOUS
10
0.881237
20
1.98412
11
0.878683
21
1.98241
0
LINE
8
BLACK
6
CONTINUOUS
10
0.878683
20
1.98241
11
0.875669
21
1.98181
0
LINE
8
BLACK
6
CONTINUOUS
10
0.875669
20
1.98181
11
0.815669
21
1.98181
0
LINE
8
BLACK
6
CONTINUOUS
10
0.815669
20
1.98181
11
0.812656
21
1.98241
0
LINE
8
BLACK
6
CONTINUOUS
10
0.812656
20
1.98241
11
0.810102
21
1.98412
0
LINE
8
BLACK
6
CONTINUOUS
10
0.810102
20
1.98412
11
0.808395
21
1.98667
0
LINE
8
BLACK
6
CONTINUOUS
10
0.808395
20
1.98667
11
0.807795
21
1.98969
0
LINE
8
BLACK
6
CONTINUOUS
10
0.807795
20
1.98969
11
0.807795
21
2.04969
0
LINE
8
BLACK
6
CONTINUOUS
10
0.807795
20
2.04969
11
0.808395
21
2.0527
0
LINE
8
BLACK
6
CONTINUOUS
10
0.808395
20
2.0527
11
0.810102
21
2.05525
0
LINE
8
BLACK
6
CONTINUOUS
10
0.810102
20
2.05525
11
0.812656
21
2.05696
0
LINE
8
BLACK
6
CONTINUOUS
10
0.812656
20
2.05696
11
0.815669
21
2.05756
0
LINE
8
BLACK
6
CONTINUOUS
10
0.815669
20
2.05756
11
0.875669
21
2.05756
0
LINE
8
BLACK
6
CONTINUOUS
10
0.875669
20
2.05756
11
0.878683
21
2.05696
0
LINE
8
BLACK
6
CONTINUOUS
10
0.778683
20
2.05696
11
0.781237
21
2.05525
0
LINE
8
BLACK
6
CONTINUOUS
10
0.781237
20
2.05525
11
0.782944
21
2.0527
0
LINE
8
BLACK
6
CONTINUOUS
10
0.782944
20
2.0527
11
0.783543
21
2.04969
0
LINE
8
BLACK
6
CONTINUOUS
10
0.783543
20
2.04969
11
0.783543
21
1.98969
0
LINE
8
BLACK
6
CONTINUOUS
10
0.783543
20
1.98969
11
0.782944
21
1.98667
0
LINE
8
BLACK
6
CONTINUOUS
10
0.782944
20
1.98667
11
0.781237
21
1.98412
0
LINE
8
BLACK
6
CONTINUOUS
10
0.781237
20
1.98412
11
0.778683
21
1.98241
0
LINE
8
BLACK
6
CONTINUOUS
10
0.778683
20
1.98241
11
0.775669
21
1.98181
0
LINE
8
BLACK
6
CONTINUOUS
10
0.775669
20
1.98181
11
0.715669
21
1.98181
0
LINE
8
BLACK
6
CONTINUOUS
10
0.715669
20
1.98181
11
0.712656
21
1.98241
0
LINE
8
BLACK
6
CONTINUOUS
10
0.712656
20
1.98241
11
0.710102
21
1.98412
0
LINE
8
BLACK
6
CONTINUOUS
10
0.710102
20
1.98412
11
0.708395
21
1.98667
0
LINE
8
BLACK
6
CONTINUOUS
10
0.708395
20
1.98667
11
0.707795
21
1.98969
0
LINE
8
BLACK
6
CONTINUOUS
10
0.707795
20
1.98969
11
0.707795
21
2.04969
0
LINE
8
BLACK
6
CONTINUOUS
10
0.707795
20
2.04969
11
0.708395
21
2.0527
0
LINE
8
BLACK
6
CONTINUOUS
10
0.708395
20
2.0527
11
0.710102
21
2.05525
0
LINE
8
BLACK
6
CONTINUOUS
10
0.710102
20
2.05525
11
0.712656
21
2.05696
0
LINE
8
BLACK
6
CONTINUOUS
10
0.712656
20
2.05696
11
0.715669
21
2.05756
0
LINE
8
BLACK
6
CONTINUOUS
10
0.715669
20
2.05756
11
0.775669
21
2.05756
0
LINE
8
BLACK
6
CONTINUOUS
10
0.775669
20
2.05756
11
0.778683
21
2.05696
0
LINE
8
BLACK
6
CONTINUOUS
10
0.678683
20
2.05696
11
0.681237
21
2.05525
0
LINE
8
BLACK
6
CONTINUOUS
10
0.681237
20
2.05525
11
0.682944
21
2.0527
0
LINE
8
BLACK
6
CONTINUOUS
10
0.682944
20
2.0527
11
0.683543
21
2.04969
0
LINE
8
BLACK
6
CONTINUOUS
10
0.683543
20
2.04969
11
0.683543
21
1.98969
0
LINE
8
BLACK
6
CONTINUOUS
10
0.683543
20
1.98969
11
0.682944
21
1.98667
0
LINE
8
BLACK
6
CONTINUOUS
10
0.682944
20
1.98667
11
0.681237
21
1.98412
0
LINE
8
BLACK
6
CONTINUOUS
10
0.681237
20
1.98412
11
0.678683
21
1.98241
0
LINE
8
BLACK
6
CONTINUOUS
10
0.678683
20
1.98241
11
0.675669
21
1.98181
0
LINE
8
BLACK
6
CONTINUOUS
10
0.675669
20
1.98181
11
0.615669
21
1.98181
0
LINE
8
BLACK
6
CONTINUOUS
10
0.615669
20
1.98181
11
0.612656
21
1.98241
0
LINE
8
BLACK
6
CONTINUOUS
10
0.612656
20
1.98241
11
0.610102
21
1.98412
0
LINE
8
BLACK
6
CONTINUOUS
10
0.610102
20
1.98412
11
0.608395
21
1.98667
0
LINE
8
BLACK
6
CONTINUOUS
10
0.608395
20
1.98667
11
0.607795
21
1.98969
0
LINE
8
BLACK
6
CONTINUOUS
10
0.607795
20
1.98969
11
0.607795
21
2.04969
0
LINE
8
BLACK
6
CONTINUOUS
10
0.607795
20
2.04969
11
0.608395
21
2.0527
0
LINE
8
BLACK
6
CONTINUOUS
10
0.608395
20
2.0527
11
0.610102
21
2.05525
0
LINE
8
BLACK
6
CONTINUOUS
10
0.610102
20
2.05525
11
0.612656
21
2.05696
0
LINE
8
BLACK
6
CONTINUOUS
10
0.612656
20
2.05696
11
0.615669
21
2.05756
0
LINE
8
BLACK
6
CONTINUOUS
10
0.615669
20
2.05756
11
0.675669
21
2.05756
0
LINE
8
BLACK
6
CONTINUOUS
10
0.675669
20
2.05756
11
0.678683
21
2.05696
0
LINE
8
BLACK
6
CONTINUOUS
10
0.578683
20
2.05696
11
0.581237
21
2.05525
0
LINE
8
BLACK
6
CONTINUOUS
10
0.581237
20
2.05525
11
0.582944
21
2.0527
0
LINE
8
BLACK
6
CONTINUOUS
10
0.582944
20
2.0527
11
0.583543
21
2.04969
0
LINE
8
BLACK
6
CONTINUOUS
10
0.583543
20
2.04969
11
0.583543
21
1.98969
0
LINE
8
BLACK
6
CONTINUOUS
10
0.583543
20
1.98969
11
0.582944
21
1.98667
0
LINE
8
BLACK
6
CONTINUOUS
10
0.582944
20
1.98667
11
0.581237
21
1.98412
0
LINE
8
BLACK
6
CONTINUOUS
10
0.581237
20
1.98412
11
0.578683
21
1.98241
0
LINE
8
BLACK
6
CONTINUOUS
10
0.578683
20
1.98241
11
0.575669
21
1.98181
0
LINE
8
BLACK
6
CONTINUOUS
10
0.575669
20
1.98181
11
0.515669
21
1.98181
0
LINE
8
BLACK
6
CONTINUOUS
10
0.515669
20
1.98181
11
0.512656
21
1.98241
0
LINE
8
BLACK
6
CONTINUOUS
10
0.512656
20
1.98241
11
0.510102
21
1.98412
0
LINE
8
BLACK
6
CONTINUOUS
10
0.510102
20
1.98412
11
0.508395
21
1.98667
0
LINE
8
BLACK
6
CONTINUOUS
10
0.508395
20
1.98667
11
0.507795
21
1.98969
0
LINE
8
BLACK
6
CONTINUOUS
10
0.507795
20
1.98969
11
0.507795
21
2.04969
0
LINE
8
BLACK
6
CONTINUOUS
10
0.507795
20
2.04969
11
0.508395
21
2.0527
0
LINE
8
BLACK
6
CONTINUOUS
10
0.508395
20
2.0527
11
0.510102
21
2.05525
0
LINE
8
BLACK
6
CONTINUOUS
10
0.510102
20
2.05525
11
0.512656
21
2.05696
0
LINE
8
BLACK
6
CONTINUOUS
10
0.512656
20
2.05696
11
0.515669
21
2.05756
0
LINE
8
BLACK
6
CONTINUOUS
10
0.515669
20
2.05756
11
0.575669
21
2.05756
0
LINE
8
BLACK
6
CONTINUOUS
10
0.575669
20
2.05756
11
0.578683
21
2.05696
0
LINE
8
BLACK
6
CONTINUOUS
10
0.478683
20
2.05696
11
0.481237
21
2.05525
0
LINE
8
BLACK
6
CONTINUOUS
10
0.481237
20
2.05525
11
0.482944
21
2.0527
0
LINE
8
BLACK
6
CONTINUOUS
10
0.482944
20
2.0527
11
0.483543
21
2.04969
0
LINE
8
BLACK
6
CONTINUOUS
10
0.483543
20
2.04969
11
0.483543
21
1.98969
0
LINE
8
BLACK
6
CONTINUOUS
10
0.483543
20
1.98969
11
0.482944
21
1.98667
0
LINE
8
BLACK
6
CONTINUOUS
10
0.482944
20
1.98667
11
0.481237
21
1.98412
0
LINE
8
BLACK
6
CONTINUOUS
10
0.481237
20
1.98412
11
0.478683
21
1.98241
0
LINE
8
BLACK
6
CONTINUOUS
10
0.478683
20
1.98241
11
0.475669
21
1.98181
0
LINE
8
BLACK
6
CONTINUOUS
10
0.475669
20
1.98181
11
0.415669
21
1.98181
0
LINE
8
BLACK
6
CONTINUOUS
10
0.415669
20
1.98181
11
0.412656
21
1.98241
0
LINE
8
BLACK
6
CONTINUOUS
10
0.412656
20
1.98241
11
0.410102
21
1.98412
0
LINE
8
BLACK
6
CONTINUOUS
10
0.410102
20
1.98412
11
0.408395
21
1.98667
0
LINE
8
BLACK
6
CONTINUOUS
10
0.408395
20
1.98667
11
0.407795
21
1.98969
0
LINE
8
BLACK
6
CONTINUOUS
10
0.407795
20
1.98969
11
0.407795
21
2.04969
0
LINE
8
BLACK
6
CONTINUOUS
10
0.407795
20
2.04969
11
0.408395
21
2.0527
0
LINE
8
BLACK
6
CONTINUOUS
10
0.408395
20
2.0527
11
0.410102
21
2.05525
0
LINE
8
BLACK
6
CONTINUOUS
10
0.410102
20
2.05525
11
0.412656
21
2.05696
0
LINE
8
BLACK
6
CONTINUOUS
10
0.412656
20
2.05696
11
0.415669
21
2.05756
0
LINE
8
BLACK
6
CONTINUOUS
10
0.415669
20
2.05756
11
0.475669
21
2.05756
0
LINE
8
BLACK
6
CONTINUOUS
10
0.475669
20
2.05756
11
0.478683
21
2.05696
0
LINE
8
BLACK
6
CONTINUOUS
10
0.378683
20
2.05696
11
0.381237
21
2.05525
0
LINE
8
BLACK
6
CONTINUOUS
10
0.381237
20
2.05525
11
0.382944
21
2.0527
0
LINE
8
BLACK
6
CONTINUOUS
10
0.382944
20
2.0527
11
0.383543
21
2.04969
0
LINE
8
BLACK
6
CONTINUOUS
10
0.383543
20
2.04969
11
0.383543
21
1.98969
0
LINE
8
BLACK
6
CONTINUOUS
10
0.383543
20
1.98969
11
0.382944
21
1.98667
0
LINE
8
BLACK
6
CONTINUOUS
10
0.382944
20
1.98667
11
0.381237
21
1.98412
0
LINE
8
BLACK
6
CONTINUOUS
10
0.381237
20
1.98412
11
0.378683
21
1.98241
0
LINE
8
BLACK
6
CONTINUOUS
10
0.378683
20
1.98241
11
0.375669
21
1.98181
0
LINE
8
BLACK
6
CONTINUOUS
10
0.375669
20
1.98181
11
0.315669
21
1.98181
0
LINE
8
BLACK
6
CONTINUOUS
10
0.315669
20
1.98181
11
0.312656
21
1.98241
0
LINE
8
BLACK
6
CONTINUOUS
10
0.312656
20
1.98241
11
0.310102
21
1.98412
0
LINE
8
BLACK
6
CONTINUOUS
10
0.310102
20
1.98412
11
0.308395
21
1.98667
0
LINE
8
BLACK
6
CONTINUOUS
10
0.308395
20
1.98667
11
0.307795
21
1.98969
0
LINE
8
BLACK
6
CONTINUOUS
10
0.307795
20
1.98969
11
0.307795
21
2.04969
0
LINE
8
BLACK
6
CONTINUOUS
10
0.307795
20
2.04969
11
0.308395
21
2.0527
0
LINE
8
BLACK
6
CONTINUOUS
10
0.308395
20
2.0527
11
0.310102
21
2.05525
0
LINE
8
BLACK
6
CONTINUOUS
10
0.310102
20
2.05525
11
0.312656
21
2.05696
0
LINE
8
BLACK
6
CONTINUOUS
10
0.312656
20
2.05696
11
0.315669
21
2.05756
0
LINE
8
BLACK
6
CONTINUOUS
10
0.315669
20
2.05756
11
0.375669
21
2.05756
0
LINE
8
BLACK
6
CONTINUOUS
10
0.375669
20
2.05756
11
0.378683
21
2.05696
0
LINE
8
BLACK
6
CONTINUOUS
10
0.278683
20
2.05696
11
0.281237
21
2.05525
0
LINE
8
BLACK
6
CONTINUOUS
10
0.281237
20
2.05525
11
0.282944
21
2.0527
0
LINE
8
BLACK
6
CONTINUOUS
10
0.282944
20
2.0527
11
0.283543
21
2.04969
0
LINE
8
BLACK
6
CONTINUOUS
10
0.283543
20
2.04969
11
0.283543
21
1.98969
0
LINE
8
BLACK
6
CONTINUOUS
10
0.283543
20
1.98969
11
0.282944
21
1.98667
0
LINE
8
BLACK
6
CONTINUOUS
10
0.282944
20
1.98667
11
0.281237
21
1.98412
0
LINE
8
BLACK
6
CONTINUOUS
10
0.281237
20
1.98412
11
0.278683
21
1.98241
0
LINE
8
BLACK
6
CONTINUOUS
10
0.278683
20
1.98241
11
0.275669
21
1.98181
0
LINE
8
BLACK
6
CONTINUOUS
10
0.275669
20
1.98181
11
0.215669
21
1.98181
0
LINE
8
BLACK
6
CONTINUOUS
10
0.215669
20
1.98181
11
0.212656
21
1.98241
0
LINE
8
BLACK
6
CONTINUOUS
10
0.212656
20
1.98241
11
0.210102
21
1.98412
0
LINE
8
BLACK
6
CONTINUOUS
10
0.210102
20
1.98412
11
0.208395
21
1.98667
0
LINE
8
BLACK
6
CONTINUOUS
10
0.208395
20
1.98667
11
0.207795
21
1.98969
0
LINE
8
BLACK
6
CONTINUOUS
10
0.207795
20
1.98969
11
0.207795
21
2.04969
0
LINE
8
BLACK
6
CONTINUOUS
10
0.207795
20
2.04969
11
0.208395
21
2.0527
0
LINE
8
BLACK
6
CONTINUOUS
10
0.208395
20
2.0527
11
0.210102
21
2.05525
0
LINE
8
BLACK
6
CONTINUOUS
10
0.210102
20
2.05525
11
0.212656
21
2.05696
0
LINE
8
BLACK
6
CONTINUOUS
10
0.212656
20
2.05696
11
0.215669
21
2.05756
0
LINE
8
BLACK
6
CONTINUOUS
10
0.215669
20
2.05756
11
0.275669
21
2.05756
0
LINE
8
BLACK
6
CONTINUOUS
10
0.275669
20
2.05756
11
0.278683
21
2.05696
0
LINE
8
BLACK
6
CONTINUOUS
10
0.178683
20
2.05696
11
0.181237
21
2.05525
0
LINE
8
BLACK
6
CONTINUOUS
10
0.181237
20
2.05525
11
0.182944
21
2.0527
0
LINE
8
BLACK
6
CONTINUOUS
10
0.182944
20
2.0527
11
0.183543
21
2.04969
0
LINE
8
BLACK
6
CONTINUOUS
10
0.183543
20
2.04969
11
0.183543
21
1.98969
0
LINE
8
BLACK
6
CONTINUOUS
10
0.183543
20
1.98969
11
0.182944
21
1.98667
0
LINE
8
BLACK
6
CONTINUOUS
10
0.182944
20
1.98667
11
0.181237
21
1.98412
0
LINE
8
BLACK
6
CONTINUOUS
10
0.181237
20
1.98412
11
0.178683
21
1.98241
0
LINE
8
BLACK
6
CONTINUOUS
10
0.178683
20
1.98241
11
0.175669
21
1.98181
0
LINE
8
BLACK
6
CONTINUOUS
10
0.175669
20
1.98181
11
0.115669
21
1.98181
0
LINE
8
BLACK
6
CONTINUOUS
10
0.115669
20
1.98181
11
0.112656
21
1.98241
0
LINE
8
BLACK
6
CONTINUOUS
10
0.112656
20
1.98241
11
0.110102
21
1.98412
0
LINE
8
BLACK
6
CONTINUOUS
10
0.110102
20
1.98412
11
0.108395
21
1.98667
0
LINE
8
BLACK
6
CONTINUOUS
10
0.108395
20
1.98667
11
0.107795
21
1.98969
0
LINE
8
BLACK
6
CONTINUOUS
10
0.107795
20
1.98969
11
0.107795
21
2.04969
0
LINE
8
BLACK
6
CONTINUOUS
10
0.107795
20
2.04969
11
0.108395
21
2.0527
0
LINE
8
BLACK
6
CONTINUOUS
10
0.108395
20
2.0527
11
0.110102
21
2.05525
0
LINE
8
BLACK
6
CONTINUOUS
10
0.110102
20
2.05525
11
0.112656
21
2.05696
0
LINE
8
BLACK
6
CONTINUOUS
10
0.112656
20
2.05696
11
0.115669
21
2.05756
0
LINE
8
BLACK
6
CONTINUOUS
10
0.115669
20
2.05756
11
0.175669
21
2.05756
0
LINE
8
BLACK
6
CONTINUOUS
10
0.175669
20
2.05756
11
0.178683
21
2.05696
0
LINE
8
BLACK
6
CONTINUOUS
10
0.849942
20
2.28964
11
0.852497
21
2.28793
0
LINE
8
BLACK
6
CONTINUOUS
10
0.852497
20
2.28793
11
0.854204
21
2.28538
0
LINE
8
BLACK
6
CONTINUOUS
10
0.854204
20
2.28538
11
0.854803
21
2.28236
0
LINE
8
BLACK
6
CONTINUOUS
10
0.854803
20
2.28236
11
0.854803
21
2.22236
0
LINE
8
BLACK
6
CONTINUOUS
10
0.854803
20
2.22236
11
0.854204
21
2.21935
0
LINE
8
BLACK
6
CONTINUOUS
10
0.854204
20
2.21935
11
0.852497
21
2.21679
0
LINE
8
BLACK
6
CONTINUOUS
10
0.852497
20
2.21679
11
0.849942
21
2.21509
0
LINE
8
BLACK
6
CONTINUOUS
10
0.849942
20
2.21509
11
0.846929
21
2.21449
0
LINE
8
BLACK
6
CONTINUOUS
10
0.846929
20
2.21449
11
0.786929
21
2.21449
0
LINE
8
BLACK
6
CONTINUOUS
10
0.786929
20
2.21449
11
0.783916
21
2.21509
0
LINE
8
BLACK
6
CONTINUOUS
10
0.783916
20
2.21509
11
0.781361
21
2.21679
0
LINE
8
BLACK
6
CONTINUOUS
10
0.781361
20
2.21679
11
0.779654
21
2.21935
0
LINE
8
BLACK
6
CONTINUOUS
10
0.779654
20
2.21935
11
0.779055
21
2.22236
0
LINE
8
BLACK
6
CONTINUOUS
10
0.779055
20
2.22236
11
0.779055
21
2.28236
0
LINE
8
BLACK
6
CONTINUOUS
10
0.779055
20
2.28236
11
0.779654
21
2.28538
0
LINE
8
BLACK
6
CONTINUOUS
10
0.779654
20
2.28538
11
0.781361
21
2.28793
0
LINE
8
BLACK
6
CONTINUOUS
10
0.781361
20
2.28793
11
0.783916
21
2.28964
0
LINE
8
BLACK
6
CONTINUOUS
10
0.783916
20
2.28964
11
0.786929
21
2.29024
0
LINE
8
BLACK
6
CONTINUOUS
10
0.786929
20
2.29024
11
0.846929
21
2.29024
0
LINE
8
BLACK
6
CONTINUOUS
10
0.846929
20
2.29024
11
0.849942
21
2.28964
0
LINE
8
BLACK
6
CONTINUOUS
10
0.014917
20
2.52667
11
0.0287686
21
2.52423
0
LINE
8
BLACK
6
CONTINUOUS
10
0.0287686
20
2.52423
11
0.0422616
21
2.52026
0
LINE
8
BLACK
6
CONTINUOUS
10
0.0422616
20
2.52026
11
0.0552279
21
2.51481
0
LINE
8
BLACK
6
CONTINUOUS
10
0.0552279
20
2.51481
11
0.0675057
21
2.50795
0
LINE
8
BLACK
6
CONTINUOUS
10
0.0675057
20
2.50795
11
0.0789422
21
2.49976
0
LINE
8
BLACK
6
CONTINUOUS
10
0.0789422
20
2.49976
11
0.0893947
21
2.49035
0
LINE
8
BLACK
6
CONTINUOUS
10
0.0893947
20
2.49035
11
0.098733
21
2.47983
0
LINE
8
BLACK
6
CONTINUOUS
10
0.098733
20
2.47983
11
0.106841
21
2.46834
0
LINE
8
BLACK
6
CONTINUOUS
10
0.106841
20
2.46834
11
0.113617
21
2.45601
0
LINE
8
BLACK
6
CONTINUOUS
10
0.113617
20
2.45601
11
0.118977
21
2.44301
0
LINE
8
BLACK
6
CONTINUOUS
10
0.118977
20
2.44301
11
0.122853
21
2.42949
0
LINE
8
BLACK
6
CONTINUOUS
10
0.122853
20
2.42949
11
0.125199
21
2.41562
0
LINE
8
BLACK
6
CONTINUOUS
10
0.125199
20
2.41562
11
0.125984
21
2.40157
0
LINE
8
BLACK
6
CONTINUOUS
10
0.125984
20
2.40157
11
0.125935
21
2.39806
0
LINE
8
BLACK
6
CONTINUOUS
10
0.125935
20
2.39806
11
0.124758
21
2.38404
0
LINE
8
BLACK
6
CONTINUOUS
10
0.124758
20
2.38404
11
0.122026
21
2.37024
0
LINE
8
BLACK
6
CONTINUOUS
10
0.122026
20
2.37024
11
0.117773
21
2.35684
0
LINE
8
BLACK
6
CONTINUOUS
10
0.117773
20
2.35684
11
0.112052
21
2.34399
0
LINE
8
BLACK
6
CONTINUOUS
10
0.112052
20
2.34399
11
0.104935
21
2.33186
0
LINE
8
BLACK
6
CONTINUOUS
10
0.104935
20
2.33186
11
0.0965095
21
2.32059
0
LINE
8
BLACK
6
CONTINUOUS
10
0.0965095
20
2.32059
11
0.0868812
21
2.31034
0
LINE
8
BLACK
6
CONTINUOUS
10
0.0868812
20
2.31034
11
0.07617
21
2.30122
0
LINE
8
BLACK
6
CONTINUOUS
10
0.07617
20
2.30122
11
0.0645093
21
2.29336
0
LINE
8
BLACK
6
CONTINUOUS
10
0.0645093
20
2.29336
11
0.0520446
21
2.28684
0
LINE
8
BLACK
6
CONTINUOUS
10
0.0520446
20
2.28684
11
0.0389313
21
2.28176
0
LINE
8
BLACK
6
CONTINUOUS
10
0.0389313
20
2.28176
11
0.0253326
21
2.27816
0
LINE
8
BLACK
6
CONTINUOUS
10
0.0253326
20
2.27816
11
0.0114183
21
2.27611
0
LINE
8
BLACK
6
CONTINUOUS
10
0.0114183
20
2.27611
11
-0.00263843
21
2.27562
0
LINE
8
BLACK
6
CONTINUOUS
10
-0.00263843
20
2.27562
11
-0.0166622
21
2.2767
0
LINE
8
BLACK
6
CONTINUOUS
10
-0.0166622
20
2.2767
11
-0.0304783
21
2.27933
0
LINE
8
BLACK
6
CONTINUOUS
10
-0.0304783
20
2.27933
11
-0.0439146
21
2.28349
0
LINE
8
BLACK
6
CONTINUOUS
10
-0.0439146
20
2.28349
11
-0.0568035
21
2.28912
0
LINE
8
BLACK
6
CONTINUOUS
10
-0.0568035
20
2.28912
11
-0.0689843
21
2.29616
0
LINE
8
BLACK
6
CONTINUOUS
10
-0.0689843
20
2.29616
11
-0.0803054
21
2.3045
0
LINE
8
BLACK
6
CONTINUOUS
10
-0.0803054
20
2.3045
11
-0.0906255
21
2.31406
0
LINE
8
BLACK
6
CONTINUOUS
10
-0.0906255
20
2.31406
11
-0.099816
21
2.32471
0
LINE
8
BLACK
6
CONTINUOUS
10
-0.099816
20
2.32471
11
-0.107762
21
2.33631
0
LINE
8
BLACK
6
CONTINUOUS
10
-0.107762
20
2.33631
11
-0.114366
21
2.34873
0
LINE
8
BLACK
6
CONTINUOUS
10
-0.114366
20
2.34873
11
-0.119543
21
2.36181
0
LINE
8
BLACK
6
CONTINUOUS
10
-0.119543
20
2.36181
11
-0.123231
21
2.37538
0
LINE
8
BLACK
6
CONTINUOUS
10
-0.123231
20
2.37538
11
-0.125383
21
2.38928
0
LINE
8
BLACK
6
CONTINUOUS
10
-0.125383
20
2.38928
11
-0.125972
21
2.40333
0
LINE
8
BLACK
6
CONTINUOUS
10
-0.125972
20
2.40333
11
-0.124991
21
2.41736
0
LINE
8
BLACK
6
CONTINUOUS
10
-0.124991
20
2.41736
11
-0.122452
21
2.4312
0
LINE
8
BLACK
6
CONTINUOUS
10
-0.122452
20
2.4312
11
-0.118386
21
2.44466
0
LINE
8
BLACK
6
CONTINUOUS
10
-0.118386
20
2.44466
11
-0.112846
21
2.45759
0
LINE
8
BLACK
6
CONTINUOUS
10
-0.112846
20
2.45759
11
-0.105898
21
2.46982
0
LINE
8
BLACK
6
CONTINUOUS
10
-0.105898
20
2.46982
11
-0.0976308
21
2.4812
0
LINE
8
BLACK
6
CONTINUOUS
10
-0.0976308
20
2.4812
11
-0.0881466
21
2.49159
0
LINE
8
BLACK
6
CONTINUOUS
10
-0.0881466
20
2.49159
11
-0.0775637
21
2.50085
0
LINE
8
BLACK
6
CONTINUOUS
10
-0.0775637
20
2.50085
11
-0.066014
21
2.50888
0
LINE
8
BLACK
6
CONTINUOUS
10
-0.066014
20
2.50888
11
-0.0536415
21
2.51557
0
LINE
8
BLACK
6
CONTINUOUS
10
-0.0536415
20
2.51557
11
-0.0406004
21
2.52084
0
LINE
8
BLACK
6
CONTINUOUS
10
-0.0406004
20
2.52084
11
-0.0270533
21
2.52462
0
LINE
8
BLACK
6
CONTINUOUS
10
-0.0270533
20
2.52462
11
-0.0131689
21
2.52687
0
LINE
8
BLACK
6
CONTINUOUS
10
-0.0131689
20
2.52687
11
0.000879528
21
2.52756
0
LINE
8
BLACK
6
CONTINUOUS
10
0.000879528
20
2.52756
11
0.014917
21
2.52667
0
LINE
8
BLACK
6
CONTINUOUS
10
2.01492
20
2.52667
11
2.02877
21
2.52423
0
LINE
8
BLACK
6
CONTINUOUS
10
2.02877
20
2.52423
11
2.04226
21
2.52026
0
LINE
8
BLACK
6
CONTINUOUS
10
2.04226
20
2.52026
11
2.05523
21
2.51481
0
LINE
8
BLACK
6
CONTINUOUS
10
2.05523
20
2.51481
11
2.06751
21
2.50795
0
LINE
8
BLACK
6
CONTINUOUS
10
2.06751
20
2.50795
11
2.07894
21
2.49976
0
LINE
8
BLACK
6
CONTINUOUS
10
2.07894
20
2.49976
11
2.08939
21
2.49035
0
LINE
8
BLACK
6
CONTINUOUS
10
2.08939
20
2.49035
11
2.09873
21
2.47983
0
LINE
8
BLACK
6
CONTINUOUS
10
2.09873
20
2.47983
11
2.10684
21
2.46834
0
LINE
8
BLACK
6
CONTINUOUS
10
2.10684
20
2.46834
11
2.11362
21
2.45601
0
LINE
8
BLACK
6
CONTINUOUS
10
2.11362
20
2.45601
11
2.11898
21
2.44301
0
LINE
8
BLACK
6
CONTINUOUS
10
2.11898
20
2.44301
11
2.12285
21
2.42949
0
LINE
8
BLACK
6
CONTINUOUS
10
2.12285
20
2.42949
11
2.1252
21
2.41562
0
LINE
8
BLACK
6
CONTINUOUS
10
2.1252
20
2.41562
11
2.12598
21
2.40157
0
LINE
8
BLACK
6
CONTINUOUS
10
2.12598
20
2.40157
11
2.12594
21
2.39806
0
LINE
8
BLACK
6
CONTINUOUS
10
2.12594
20
2.39806
11
2.12476
21
2.38404
0
LINE
8
BLACK
6
CONTINUOUS
10
2.12476
20
2.38404
11
2.12203
21
2.37024
0
LINE
8
BLACK
6
CONTINUOUS
10
2.12203
20
2.37024
11
2.11777
21
2.35684
0
LINE
8
BLACK
6
CONTINUOUS
10
2.11777
20
2.35684
11
2.11205
21
2.34399
0
LINE
8
BLACK
6
CONTINUOUS
10
2.11205
20
2.34399
11
2.10493
21
2.33186
0
LINE
8
BLACK
6
CONTINUOUS
10
2.10493
20
2.33186
11
2.09651
21
2.32059
0
LINE
8
BLACK
6
CONTINUOUS
10
2.09651
20
2.32059
11
2.08688
21
2.31034
0
LINE
8
BLACK
6
CONTINUOUS
10
2.08688
20
2.31034
11
2.07617
21
2.30122
0
LINE
8
BLACK
6
CONTINUOUS
10
2.07617
20
2.30122
11
2.06451
21
2.29336
0
LINE
8
BLACK
6
CONTINUOUS
10
2.06451
20
2.29336
11
2.05204
21
2.28684
0
LINE
8
BLACK
6
CONTINUOUS
10
2.05204
20
2.28684
11
2.03893
21
2.28176
0
LINE
8
BLACK
6
CONTINUOUS
10
2.03893
20
2.28176
11
2.02533
21
2.27816
0
LINE
8
BLACK
6
CONTINUOUS
10
2.02533
20
2.27816
11
2.01142
21
2.27611
0
LINE
8
BLACK
6
CONTINUOUS
10
2.01142
20
2.27611
11
1.99736
21
2.27562
0
LINE
8
BLACK
6
CONTINUOUS
10
1.99736
20
2.27562
11
1.98334
21
2.2767
0
LINE
8
BLACK
6
CONTINUOUS
10
1.98334
20
2.2767
11
1.96952
21
2.27933
0
LINE
8
BLACK
6
CONTINUOUS
10
1.96952
20
2.27933
11
1.95609
21
2.28349
0
LINE
8
BLACK
6
CONTINUOUS
10
1.95609
20
2.28349
11
1.9432
21
2.28912
0
LINE
8
BLACK
6
CONTINUOUS
10
1.9432
20
2.28912
11
1.93102
21
2.29616
0
LINE
8
BLACK
6
CONTINUOUS
10
1.93102
20
2.29616
11
1.91969
21
2.3045
0
LINE
8
BLACK
6
CONTINUOUS
10
1.91969
20
2.3045
11
1.90937
21
2.31406
0
LINE
8
BLACK
6
CONTINUOUS
10
1.90937
20
2.31406
11
1.90018
21
2.32471
0
LINE
8
BLACK
6
CONTINUOUS
10
1.90018
20
2.32471
11
1.89224
21
2.33631
0
LINE
8
BLACK
6
CONTINUOUS
10
1.89224
20
2.33631
11
1.88563
21
2.34873
0
LINE
8
BLACK
6
CONTINUOUS
10
1.88563
20
2.34873
11
1.88046
21
2.36181
0
LINE
8
BLACK
6
CONTINUOUS
10
1.88046
20
2.36181
11
1.87677
21
2.37538
0
LINE
8
BLACK
6
CONTINUOUS
10
1.87677
20
2.37538
11
1.87462
21
2.38928
0
LINE
8
BLACK
6
CONTINUOUS
10
1.87462
20
2.38928
11
1.87403
21
2.40333
0
LINE
8
BLACK
6
CONTINUOUS
10
1.87403
20
2.40333
11
1.87501
21
2.41736
0
LINE
8
BLACK
6
CONTINUOUS
10
1.87501
20
2.41736
11
1.87755
21
2.4312
0
LINE
8
BLACK
6
CONTINUOUS
10
1.87755
20
2.4312
11
1.88161
21
2.44466
0
LINE
8
BLACK
6
CONTINUOUS
10
1.88161
20
2.44466
11
1.88715
21
2.45759
0
LINE
8
BLACK
6
CONTINUOUS
10
1.88715
20
2.45759
11
1.8941
21
2.46982
0
LINE
8
BLACK
6
CONTINUOUS
10
1.8941
20
2.46982
11
1.90237
21
2.4812
0
LINE
8
BLACK
6
CONTINUOUS
10
1.90237
20
2.4812
11
1.91185
21
2.49159
0
LINE
8
BLACK
6
CONTINUOUS
10
1.91185
20
2.49159
11
1.92244
21
2.50085
0
LINE
8
BLACK
6
CONTINUOUS
10
1.92244
20
2.50085
11
1.93399
21
2.50888
0
LINE
8
BLACK
6
CONTINUOUS
10
1.93399
20
2.50888
11
1.94636
21
2.51557
0
LINE
8
BLACK
6
CONTINUOUS
10
1.94636
20
2.51557
11
1.9594
21
2.52084
0
LINE
8
BLACK
6
CONTINUOUS
10
1.9594
20
2.52084
11
1.97295
21
2.52462
0
LINE
8
BLACK
6
CONTINUOUS
10
1.97295
20
2.52462
11
1.98683
21
2.52687
0
LINE
8
BLACK
6
CONTINUOUS
10
1.98683
20
2.52687
11
2.00088
21
2.52756
0
LINE
8
BLACK
6
CONTINUOUS
10
2.00088
20
2.52756
11
2.01492
21
2.52667
0
LINE
8
BLACK
6
CONTINUOUS
10
1.3527
20
2.38491
11
1.35525
21
2.38321
0
LINE
8
BLACK
6
CONTINUOUS
10
1.35525
20
2.38321
11
1.35696
21
2.38065
0
LINE
8
BLACK
6
CONTINUOUS
10
1.35696
20
2.38065
11
1.35756
21
2.37764
0
LINE
8
BLACK
6
CONTINUOUS
10
1.35756
20
2.37764
11
1.35756
21
2.31764
0
LINE
8
BLACK
6
CONTINUOUS
10
1.35756
20
2.31764
11
1.35696
21
2.31462
0
LINE
8
BLACK
6
CONTINUOUS
10
1.35696
20
2.31462
11
1.35525
21
2.31207
0
LINE
8
BLACK
6
CONTINUOUS
10
1.35525
20
2.31207
11
1.3527
21
2.31036
0
LINE
8
BLACK
6
CONTINUOUS
10
1.3527
20
2.31036
11
1.34969
21
2.30976
0
LINE
8
BLACK
6
CONTINUOUS
10
1.34969
20
2.30976
11
1.28969
21
2.30976
0
LINE
8
BLACK
6
CONTINUOUS
10
1.28969
20
2.30976
11
1.28667
21
2.31036
0
LINE
8
BLACK
6
CONTINUOUS
10
1.28667
20
2.31036
11
1.28412
21
2.31207
0
LINE
8
BLACK
6
CONTINUOUS
10
1.28412
20
2.31207
11
1.28241
21
2.31462
0
LINE
8
BLACK
6
CONTINUOUS
10
1.28241
20
2.31462
11
1.28181
21
2.31764
0
LINE
8
BLACK
6
CONTINUOUS
10
1.28181
20
2.31764
11
1.28181
21
2.37764
0
LINE
8
BLACK
6
CONTINUOUS
10
1.28181
20
2.37764
11
1.28241
21
2.38065
0
LINE
8
BLACK
6
CONTINUOUS
10
1.28241
20
2.38065
11
1.28412
21
2.38321
0
LINE
8
BLACK
6
CONTINUOUS
10
1.28412
20
2.38321
11
1.28667
21
2.38491
0
LINE
8
BLACK
6
CONTINUOUS
10
1.28667
20
2.38491
11
1.28969
21
2.38551
0
LINE
8
BLACK
6
CONTINUOUS
10
1.28969
20
2.38551
11
1.34969
21
2.38551
0
LINE
8
BLACK
6
CONTINUOUS
10
1.34969
20
2.38551
11
1.3527
21
2.38491
0
LINE
8
BLACK
6
CONTINUOUS
10
1.4527
20
2.38491
11
1.45525
21
2.38321
0
LINE
8
BLACK
6
CONTINUOUS
10
1.45525
20
2.38321
11
1.45696
21
2.38065
0
LINE
8
BLACK
6
CONTINUOUS
10
1.45696
20
2.38065
11
1.45756
21
2.37764
0
LINE
8
BLACK
6
CONTINUOUS
10
1.45756
20
2.37764
11
1.45756
21
2.31764
0
LINE
8
BLACK
6
CONTINUOUS
10
1.45756
20
2.31764
11
1.45696
21
2.31462
0
LINE
8
BLACK
6
CONTINUOUS
10
1.45696
20
2.31462
11
1.45525
21
2.31207
0
LINE
8
BLACK
6
CONTINUOUS
10
1.45525
20
2.31207
11
1.4527
21
2.31036
0
LINE
8
BLACK
6
CONTINUOUS
10
1.4527
20
2.31036
11
1.44969
21
2.30976
0
LINE
8
BLACK
6
CONTINUOUS
10
1.44969
20
2.30976
11
1.38969
21
2.30976
0
LINE
8
BLACK
6
CONTINUOUS
10
1.38969
20
2.30976
11
1.38667
21
2.31036
0
LINE
8
BLACK
6
CONTINUOUS
10
1.38667
20
2.31036
11
1.38412
21
2.31207
0
LINE
8
BLACK
6
CONTINUOUS
10
1.38412
20
2.31207
11
1.38241
21
2.31462
0
LINE
8
BLACK
6
CONTINUOUS
10
1.38241
20
2.31462
11
1.38181
21
2.31764
0
LINE
8
BLACK
6
CONTINUOUS
10
1.38181
20
2.31764
11
1.38181
21
2.37764
0
LINE
8
BLACK
6
CONTINUOUS
10
1.38181
20
2.37764
11
1.38241
21
2.38065
0
LINE
8
BLACK
6
CONTINUOUS
10
1.38241
20
2.38065
11
1.38412
21
2.38321
0
LINE
8
BLACK
6
CONTINUOUS
10
1.38412
20
2.38321
11
1.38667
21
2.38491
0
LINE
8
BLACK
6
CONTINUOUS
10
1.38667
20
2.38491
11
1.38969
21
2.38551
0
LINE
8
BLACK
6
CONTINUOUS
10
1.38969
20
2.38551
11
1.44969
21
2.38551
0
LINE
8
BLACK
6
CONTINUOUS
10
1.44969
20
2.38551
11
1.4527
21
2.38491
0
LINE
8
BLACK
6
CONTINUOUS
10
1.5527
20
2.38491
11
1.55525
21
2.38321
0
LINE
8
BLACK
6
CONTINUOUS
10
1.55525
20
2.38321
11
1.55696
21
2.38065
0
LINE
8
BLACK
6
CONTINUOUS
10
1.55696
20
2.38065
11
1.55756
21
2.37764
0
LINE
8
BLACK
6
CONTINUOUS
10
1.55756
20
2.37764
11
1.55756
21
2.31764
0
LINE
8
BLACK
6
CONTINUOUS
10
1.55756
20
2.31764
11
1.55696
21
2.31462
0
LINE
8
BLACK
6
CONTINUOUS
10
1.55696
20
2.31462
11
1.55525
21
2.31207
0
LINE
8
BLACK
6
CONTINUOUS
10
1.55525
20
2.31207
11
1.5527
21
2.31036
0
LINE
8
BLACK
6
CONTINUOUS
10
1.5527
20
2.31036
11
1.54969
21
2.30976
0
LINE
8
BLACK
6
CONTINUOUS
10
1.54969
20
2.30976
11
1.48969
21
2.30976
0
LINE
8
BLACK
6
CONTINUOUS
10
1.48969
20
2.30976
11
1.48667
21
2.31036
0
LINE
8
BLACK
6
CONTINUOUS
10
1.48667
20
2.31036
11
1.48412
21
2.31207
0
LINE
8
BLACK
6
CONTINUOUS
10
1.48412
20
2.31207
11
1.48241
21
2.31462
0
LINE
8
BLACK
6
CONTINUOUS
10
1.48241
20
2.31462
11
1.48181
21
2.31764
0
LINE
8
BLACK
6
CONTINUOUS
10
1.48181
20
2.31764
11
1.48181
21
2.37764
0
LINE
8
BLACK
6
CONTINUOUS
10
1.48181
20
2.37764
11
1.48241
21
2.38065
0
LINE
8
BLACK
6
CONTINUOUS
10
1.48241
20
2.38065
11
1.48412
21
2.38321
0
LINE
8
BLACK
6
CONTINUOUS
10
1.48412
20
2.38321
11
1.48667
21
2.38491
0
LINE
8
BLACK
6
CONTINUOUS
10
1.48667
20
2.38491
11
1.48969
21
2.38551
0
LINE
8
BLACK
6
CONTINUOUS
10
1.48969
20
2.38551
11
1.54969
21
2.38551
0
LINE
8
BLACK
6
CONTINUOUS
10
1.54969
20
2.38551
11
1.5527
21
2.38491
0
LINE
8
BLACK
6
CONTINUOUS
10
1.20217
20
2.38491
11
1.20473
21
2.38321
0
LINE
8
BLACK
6
CONTINUOUS
10
1.20473
20
2.38321
11
1.20643
21
2.38065
0
LINE
8
BLACK
6
CONTINUOUS
10
1.20643
20
2.38065
11
1.20703
21
2.37764
0
LINE
8
BLACK
6
CONTINUOUS
10
1.20703
20
2.37764
11
1.20703
21
2.31764
0
LINE
8
BLACK
6
CONTINUOUS
10
1.20703
20
2.31764
11
1.20643
21
2.31462
0
LINE
8
BLACK
6
CONTINUOUS
10
1.20643
20
2.31462
11
1.20473
21
2.31207
0
LINE
8
BLACK
6
CONTINUOUS
10
1.20473
20
2.31207
11
1.20217
21
2.31036
0
LINE
8
BLACK
6
CONTINUOUS
10
1.20217
20
2.31036
11
1.19916
21
2.30976
0
LINE
8
BLACK
6
CONTINUOUS
10
1.19916
20
2.30976
11
1.13916
21
2.30976
0
LINE
8
BLACK
6
CONTINUOUS
10
1.13916
20
2.30976
11
1.13615
21
2.31036
0
LINE
8
BLACK
6
CONTINUOUS
10
1.13615
20
2.31036
11
1.13359
21
2.31207
0
LINE
8
BLACK
6
CONTINUOUS
10
1.13359
20
2.31207
11
1.13189
21
2.31462
0
LINE
8
BLACK
6
CONTINUOUS
10
1.13189
20
2.31462
11
1.13129
21
2.31764
0
LINE
8
BLACK
6
CONTINUOUS
10
1.13129
20
2.31764
11
1.13129
21
2.37764
0
LINE
8
BLACK
6
CONTINUOUS
10
1.13129
20
2.37764
11
1.13189
21
2.38065
0
LINE
8
BLACK
6
CONTINUOUS
10
1.13189
20
2.38065
11
1.13359
21
2.38321
0
LINE
8
BLACK
6
CONTINUOUS
10
1.13359
20
2.38321
11
1.13615
21
2.38491
0
LINE
8
BLACK
6
CONTINUOUS
10
1.13615
20
2.38491
11
1.13916
21
2.38551
0
LINE
8
BLACK
6
CONTINUOUS
10
1.13916
20
2.38551
11
1.19916
21
2.38551
0
LINE
8
BLACK
6
CONTINUOUS
10
1.19916
20
2.38551
11
1.20217
21
2.38491
0
LINE
8
BLACK
6
CONTINUOUS
10
1.10217
20
2.38491
11
1.10473
21
2.38321
0
LINE
8
BLACK
6
CONTINUOUS
10
1.10473
20
2.38321
11
1.10643
21
2.38065
0
LINE
8
BLACK
6
CONTINUOUS
10
1.10643
20
2.38065
11
1.10703
21
2.37764
0
LINE
8
BLACK
6
CONTINUOUS
10
1.10703
20
2.37764
11
1.10703
21
2.31764
0
LINE
8
BLACK
6
CONTINUOUS
10
1.10703
20
2.31764
11
1.10643
21
2.31462
0
LINE
8
BLACK
6
CONTINUOUS
10
1.10643
20
2.31462
11
1.10473
21
2.31207
0
LINE
8
BLACK
6
CONTINUOUS
10
1.10473
20
2.31207
11
1.10217
21
2.31036
0
LINE
8
BLACK
6
CONTINUOUS
10
1.10217
20
2.31036
11
1.09916
21
2.30976
0
LINE
8
BLACK
6
CONTINUOUS
10
1.09916
20
2.30976
11
1.03916
21
2.30976
0
LINE
8
BLACK
6
CONTINUOUS
10
1.03916
20
2.30976
11
1.03615
21
2.31036
0
LINE
8
BLACK
6
CONTINUOUS
10
1.03615
20
2.31036
11
1.03359
21
2.31207
0
LINE
8
BLACK
6
CONTINUOUS
10
1.03359
20
2.31207
11
1.03189
21
2.31462
0
LINE
8
BLACK
6
CONTINUOUS
10
1.03189
20
2.31462
11
1.03129
21
2.31764
0
LINE
8
BLACK
6
CONTINUOUS
10
1.03129
20
2.31764
11
1.03129
21
2.37764
0
LINE
8
BLACK
6
CONTINUOUS
10
1.03129
20
2.37764
11
1.03189
21
2.38065
0
LINE
8
BLACK
6
CONTINUOUS
10
1.03189
20
2.38065
11
1.03359
21
2.38321
0
LINE
8
BLACK
6
CONTINUOUS
10
1.03359
20
2.38321
11
1.03615
21
2.38491
0
LINE
8
BLACK
6
CONTINUOUS
10
1.03615
20
2.38491
11
1.03916
21
2.38551
0
LINE
8
BLACK
6
CONTINUOUS
10
1.03916
20
2.38551
11
1.09916
21
2.38551
0
LINE
8
BLACK
6
CONTINUOUS
10
1.09916
20
2.38551
11
1.10217
21
2.38491
0
LINE
8
BLACK
6
CONTINUOUS
10
1.00217
20
2.38491
11
1.00473
21
2.38321
0
LINE
8
BLACK
6
CONTINUOUS
10
1.00473
20
2.38321
11
1.00643
21
2.38065
0
LINE
8
BLACK
6
CONTINUOUS
10
1.00643
20
2.38065
11
1.00703
21
2.37764
0
LINE
8
BLACK
6
CONTINUOUS
10
1.00703
20
2.37764
11
1.00703
21
2.31764
0
LINE
8
BLACK
6
CONTINUOUS
10
1.00703
20
2.31764
11
1.00643
21
2.31462
0
LINE
8
BLACK
6
CONTINUOUS
10
1.00643
20
2.31462
11
1.00473
21
2.31207
0
LINE
8
BLACK
6
CONTINUOUS
10
1.00473
20
2.31207
11
1.00217
21
2.31036
0
LINE
8
BLACK
6
CONTINUOUS
10
1.00217
20
2.31036
11
0.99916
21
2.30976
0
LINE
8
BLACK
6
CONTINUOUS
10
0.99916
20
2.30976
11
0.93916
21
2.30976
0
LINE
8
BLACK
6
CONTINUOUS
10
0.93916
20
2.30976
11
0.936147
21
2.31036
0
LINE
8
BLACK
6
CONTINUOUS
10
0.936147
20
2.31036
11
0.933592
21
2.31207
0
LINE
8
BLACK
6
CONTINUOUS
10
0.933592
20
2.31207
11
0.931885
21
2.31462
0
LINE
8
BLACK
6
CONTINUOUS
10
0.931885
20
2.31462
11
0.931286
21
2.31764
0
LINE
8
BLACK
6
CONTINUOUS
10
0.931286
20
2.31764
11
0.931286
21
2.37764
0
LINE
8
BLACK
6
CONTINUOUS
10
0.931286
20
2.37764
11
0.931885
21
2.38065
0
LINE
8
BLACK
6
CONTINUOUS
10
0.931885
20
2.38065
11
0.933592
21
2.38321
0
LINE
8
BLACK
6
CONTINUOUS
10
0.933592
20
2.38321
11
0.936147
21
2.38491
0
LINE
8
BLACK
6
CONTINUOUS
10
0.936147
20
2.38491
11
0.93916
21
2.38551
0
LINE
8
BLACK
6
CONTINUOUS
10
0.93916
20
2.38551
11
0.99916
21
2.38551
0
LINE
8
BLACK
6
CONTINUOUS
10
0.99916
20
2.38551
11
1.00217
21
2.38491
0
LINE
8
BLACK
6
CONTINUOUS
10
0.653092
20
2.38491
11
0.655646
21
2.38321
0
LINE
8
BLACK
6
CONTINUOUS
10
0.655646
20
2.38321
11
0.657353
21
2.38065
0
LINE
8
BLACK
6
CONTINUOUS
10
0.657353
20
2.38065
11
0.657953
21
2.37764
0
LINE
8
BLACK
6
CONTINUOUS
10
0.657953
20
2.37764
11
0.657953
21
2.31764
0
LINE
8
BLACK
6
CONTINUOUS
10
0.657953
20
2.31764
11
0.657353
21
2.31462
0
LINE
8
BLACK
6
CONTINUOUS
10
0.657353
20
2.31462
11
0.655646
21
2.31207
0
LINE
8
BLACK
6
CONTINUOUS
10
0.655646
20
2.31207
11
0.653092
21
2.31036
0
LINE
8
BLACK
6
CONTINUOUS
10
0.653092
20
2.31036
11
0.650079
21
2.30976
0
LINE
8
BLACK
6
CONTINUOUS
10
0.650079
20
2.30976
11
0.590079
21
2.30976
0
LINE
8
BLACK
6
CONTINUOUS
10
0.590079
20
2.30976
11
0.587065
21
2.31036
0
LINE
8
BLACK
6
CONTINUOUS
10
0.587065
20
2.31036
11
0.584511
21
2.31207
0
LINE
8
BLACK
6
CONTINUOUS
10
0.584511
20
2.31207
11
0.582804
21
2.31462
0
LINE
8
BLACK
6
CONTINUOUS
10
0.582804
20
2.31462
11
0.582205
21
2.31764
0
LINE
8
BLACK
6
CONTINUOUS
10
0.582205
20
2.31764
11
0.582205
21
2.37764
0
LINE
8
BLACK
6
CONTINUOUS
10
0.582205
20
2.37764
11
0.582804
21
2.38065
0
LINE
8
BLACK
6
CONTINUOUS
10
0.582804
20
2.38065
11
0.584511
21
2.38321
0
LINE
8
BLACK
6
CONTINUOUS
10
0.584511
20
2.38321
11
0.587065
21
2.38491
0
LINE
8
BLACK
6
CONTINUOUS
10
0.587065
20
2.38491
11
0.590079
21
2.38551
0
LINE
8
BLACK
6
CONTINUOUS
10
0.590079
20
2.38551
11
0.650079
21
2.38551
0
LINE
8
BLACK
6
CONTINUOUS
10
0.650079
20
2.38551
11
0.653092
21
2.38491
0
LINE
8
BLACK
6
CONTINUOUS
10
1.7527
20
2.38491
11
1.75525
21
2.38321
0
LINE
8
BLACK
6
CONTINUOUS
10
1.75525
20
2.38321
11
1.75696
21
2.38065
0
LINE
8
BLACK
6
CONTINUOUS
10
1.75696
20
2.38065
11
1.75756
21
2.37764
0
LINE
8
BLACK
6
CONTINUOUS
10
1.75756
20
2.37764
11
1.75756
21
2.31764
0
LINE
8
BLACK
6
CONTINUOUS
10
1.75756
20
2.31764
11
1.75696
21
2.31462
0
LINE
8
BLACK
6
CONTINUOUS
10
1.75696
20
2.31462
11
1.75525
21
2.31207
0
LINE
8
BLACK
6
CONTINUOUS
10
1.75525
20
2.31207
11
1.7527
21
2.31036
0
LINE
8
BLACK
6
CONTINUOUS
10
1.7527
20
2.31036
11
1.74969
21
2.30976
0
LINE
8
BLACK
6
CONTINUOUS
10
1.74969
20
2.30976
11
1.68969
21
2.30976
0
LINE
8
BLACK
6
CONTINUOUS
10
1.68969
20
2.30976
11
1.68667
21
2.31036
0
LINE
8
BLACK
6
CONTINUOUS
10
1.68667
20
2.31036
11
1.68412
21
2.31207
0
LINE
8
BLACK
6
CONTINUOUS
10
1.68412
20
2.31207
11
1.68241
21
2.31462
0
LINE
8
BLACK
6
CONTINUOUS
10
1.68241
20
2.31462
11
1.68181
21
2.31764
0
LINE
8
BLACK
6
CONTINUOUS
10
1.68181
20
2.31764
11
1.68181
21
2.37764
0
LINE
8
BLACK
6
CONTINUOUS
10
1.68181
20
2.37764
11
1.68241
21
2.38065
0
LINE
8
BLACK
6
CONTINUOUS
10
1.68241
20
2.38065
11
1.68412
21
2.38321
0
LINE
8
BLACK
6
CONTINUOUS
10
1.68412
20
2.38321
11
1.68667
21
2.38491
0
LINE
8
BLACK
6
CONTINUOUS
10
1.68667
20
2.38491
11
1.68969
21
2.38551
0
LINE
8
BLACK
6
CONTINUOUS
10
1.68969
20
2.38551
11
1.74969
21
2.38551
0
LINE
8
BLACK
6
CONTINUOUS
10
1.74969
20
2.38551
11
1.7527
21
2.38491
0
LINE
8
BLACK
6
CONTINUOUS
10
1.6527
20
2.38491
11
1.65525
21
2.38321
0
LINE
8
BLACK
6
CONTINUOUS
10
1.65525
20
2.38321
11
1.65696
21
2.38065
0
LINE
8
BLACK
6
CONTINUOUS
10
1.65696
20
2.38065
11
1.65756
21
2.37764
0
LINE
8
BLACK
6
CONTINUOUS
10
1.65756
20
2.37764
11
1.65756
21
2.31764
0
LINE
8
BLACK
6
CONTINUOUS
10
1.65756
20
2.31764
11
1.65696
21
2.31462
0
LINE
8
BLACK
6
CONTINUOUS
10
1.65696
20
2.31462
11
1.65525
21
2.31207
0
LINE
8
BLACK
6
CONTINUOUS
10
1.65525
20
2.31207
11
1.6527
21
2.31036
0
LINE
8
BLACK
6
CONTINUOUS
10
1.6527
20
2.31036
11
1.64969
21
2.30976
0
LINE
8
BLACK
6
CONTINUOUS
10
1.64969
20
2.30976
11
1.58969
21
2.30976
0
LINE
8
BLACK
6
CONTINUOUS
10
1.58969
20
2.30976
11
1.58667
21
2.31036
0
LINE
8
BLACK
6
CONTINUOUS
10
1.58667
20
2.31036
11
1.58412
21
2.31207
0
LINE
8
BLACK
6
CONTINUOUS
10
1.58412
20
2.31207
11
1.58241
21
2.31462
0
LINE
8
BLACK
6
CONTINUOUS
10
1.58241
20
2.31462
11
1.58181
21
2.31764
0
LINE
8
BLACK
6
CONTINUOUS
10
1.58181
20
2.31764
11
1.58181
21
2.37764
0
LINE
8
BLACK
6
CONTINUOUS
10
1.58181
20
2.37764
11
1.58241
21
2.38065
0
LINE
8
BLACK
6
CONTINUOUS
10
1.58241
20
2.38065
11
1.58412
21
2.38321
0
LINE
8
BLACK
6
CONTINUOUS
10
1.58412
20
2.38321
11
1.58667
21
2.38491
0
LINE
8
BLACK
6
CONTINUOUS
10
1.58667
20
2.38491
11
1.58969
21
2.38551
0
LINE
8
BLACK
6
CONTINUOUS
10
1.58969
20
2.38551
11
1.64969
21
2.38551
0
LINE
8
BLACK
6
CONTINUOUS
10
1.64969
20
2.38551
11
1.6527
21
2.38491
0
LINE
8
BLACK
6
CONTINUOUS
10
0.301124
20
2.38688
11
0.303678
21
2.38517
0
LINE
8
BLACK
6
CONTINUOUS
10
0.303678
20
2.38517
11
0.305385
21
2.38262
0
LINE
8
BLACK
6
CONTINUOUS
10
0.305385
20
2.38262
11
0.305984
21
2.37961
0
LINE
8
BLACK
6
CONTINUOUS
10
0.305984
20
2.37961
11
0.305984
21
2.31961
0
LINE
8
BLACK
6
CONTINUOUS
10
0.305984
20
2.31961
11
0.305385
21
2.31659
0
LINE
8
BLACK
6
CONTINUOUS
10
0.305385
20
2.31659
11
0.303678
21
2.31404
0
LINE
8
BLACK
6
CONTINUOUS
10
0.303678
20
2.31404
11
0.301124
21
2.31233
0
LINE
8
BLACK
6
CONTINUOUS
10
0.301124
20
2.31233
11
0.29811
21
2.31173
0
LINE
8
BLACK
6
CONTINUOUS
10
0.29811
20
2.31173
11
0.23811
21
2.31173
0
LINE
8
BLACK
6
CONTINUOUS
10
0.23811
20
2.31173
11
0.235097
21
2.31233
0
LINE
8
BLACK
6
CONTINUOUS
10
0.235097
20
2.31233
11
0.232542
21
2.31404
0
LINE
8
BLACK
6
CONTINUOUS
10
0.232542
20
2.31404
11
0.230836
21
2.31659
0
LINE
8
BLACK
6
CONTINUOUS
10
0.230836
20
2.31659
11
0.230236
21
2.31961
0
LINE
8
BLACK
6
CONTINUOUS
10
0.230236
20
2.31961
11
0.230236
21
2.37961
0
LINE
8
BLACK
6
CONTINUOUS
10
0.230236
20
2.37961
11
0.230836
21
2.38262
0
LINE
8
BLACK
6
CONTINUOUS
10
0.230836
20
2.38262
11
0.232542
21
2.38517
0
LINE
8
BLACK
6
CONTINUOUS
10
0.232542
20
2.38517
11
0.235097
21
2.38688
0
LINE
8
BLACK
6
CONTINUOUS
10
0.235097
20
2.38688
11
0.23811
21
2.38748
0
LINE
8
BLACK
6
CONTINUOUS
10
0.23811
20
2.38748
11
0.29811
21
2.38748
0
LINE
8
BLACK
6
CONTINUOUS
10
0.29811
20
2.38748
11
0.301124
21
2.38688
0
LINE
8
BLACK
6
CONTINUOUS
10
0.401124
20
2.38688
11
0.403678
21
2.38517
0
LINE
8
BLACK
6
CONTINUOUS
10
0.403678
20
2.38517
11
0.405385
21
2.38262
0
LINE
8
BLACK
6
CONTINUOUS
10
0.405385
20
2.38262
11
0.405984
21
2.37961
0
LINE
8
BLACK
6
CONTINUOUS
10
0.405984
20
2.37961
11
0.405984
21
2.31961
0
LINE
8
BLACK
6
CONTINUOUS
10
0.405984
20
2.31961
11
0.405385
21
2.31659
0
LINE
8
BLACK
6
CONTINUOUS
10
0.405385
20
2.31659
11
0.403678
21
2.31404
0
LINE
8
BLACK
6
CONTINUOUS
10
0.403678
20
2.31404
11
0.401124
21
2.31233
0
LINE
8
BLACK
6
CONTINUOUS
10
0.401124
20
2.31233
11
0.39811
21
2.31173
0
LINE
8
BLACK
6
CONTINUOUS
10
0.39811
20
2.31173
11
0.33811
21
2.31173
0
LINE
8
BLACK
6
CONTINUOUS
10
0.33811
20
2.31173
11
0.335097
21
2.31233
0
LINE
8
BLACK
6
CONTINUOUS
10
0.335097
20
2.31233
11
0.332542
21
2.31404
0
LINE
8
BLACK
6
CONTINUOUS
10
0.332542
20
2.31404
11
0.330836
21
2.31659
0
LINE
8
BLACK
6
CONTINUOUS
10
0.330836
20
2.31659
11
0.330236
21
2.31961
0
LINE
8
BLACK
6
CONTINUOUS
10
0.330236
20
2.31961
11
0.330236
21
2.37961
0
LINE
8
BLACK
6
CONTINUOUS
10
0.330236
20
2.37961
11
0.330836
21
2.38262
0
LINE
8
BLACK
6
CONTINUOUS
10
0.330836
20
2.38262
11
0.332542
21
2.38517
0
LINE
8
BLACK
6
CONTINUOUS
10
0.332542
20
2.38517
11
0.335097
21
2.38688
0
LINE
8
BLACK
6
CONTINUOUS
10
0.335097
20
2.38688
11
0.33811
21
2.38748
0
LINE
8
BLACK
6
CONTINUOUS
10
0.33811
20
2.38748
11
0.39811
21
2.38748
0
LINE
8
BLACK
6
CONTINUOUS
10
0.39811
20
2.38748
11
0.401124
21
2.38688
0
LINE
8
BLACK
6
CONTINUOUS
10
0.501124
20
2.38688
11
0.503678
21
2.38517
0
LINE
8
BLACK
6
CONTINUOUS
10
0.503678
20
2.38517
11
0.505385
21
2.38262
0
LINE
8
BLACK
6
CONTINUOUS
10
0.505385
20
2.38262
11
0.505984
21
2.37961
0
LINE
8
BLACK
6
CONTINUOUS
10
0.505984
20
2.37961
11
0.505984
21
2.31961
0
LINE
8
BLACK
6
CONTINUOUS
10
0.505984
20
2.31961
11
0.505385
21
2.31659
0
LINE
8
BLACK
6
CONTINUOUS
10
0.505385
20
2.31659
11
0.503678
21
2.31404
0
LINE
8
BLACK
6
CONTINUOUS
10
0.503678
20
2.31404
11
0.501124
21
2.31233
0
LINE
8
BLACK
6
CONTINUOUS
10
0.501124
20
2.31233
11
0.49811
21
2.31173
0
LINE
8
BLACK
6
CONTINUOUS
10
0.49811
20
2.31173
11
0.43811
21
2.31173
0
LINE
8
BLACK
6
CONTINUOUS
10
0.43811
20
2.31173
11
0.435097
21
2.31233
0
LINE
8
BLACK
6
CONTINUOUS
10
0.435097
20
2.31233
11
0.432542
21
2.31404
0
LINE
8
BLACK
6
CONTINUOUS
10
0.432542
20
2.31404
11
0.430836
21
2.31659
0
LINE
8
BLACK
6
CONTINUOUS
10
0.430836
20
2.31659
11
0.430236
21
2.31961
0
LINE
8
BLACK
6
CONTINUOUS
10
0.430236
20
2.31961
11
0.430236
21
2.37961
0
LINE
8
BLACK
6
CONTINUOUS
10
0.430236
20
2.37961
11
0.430836
21
2.38262
0
LINE
8
BLACK
6
CONTINUOUS
10
0.430836
20
2.38262
11
0.432542
21
2.38517
0
LINE
8
BLACK
6
CONTINUOUS
10
0.432542
20
2.38517
11
0.435097
21
2.38688
0
LINE
8
BLACK
6
CONTINUOUS
10
0.435097
20
2.38688
11
0.43811
21
2.38748
0
LINE
8
BLACK
6
CONTINUOUS
10
0.43811
20
2.38748
11
0.49811
21
2.38748
0
LINE
8
BLACK
6
CONTINUOUS
10
0.49811
20
2.38748
11
0.501124
21
2.38688
0
LINE
8
BLACK
6
CONTINUOUS
10
0.849942
20
2.38964
11
0.852497
21
2.38793
0
LINE
8
BLACK
6
CONTINUOUS
10
0.852497
20
2.38793
11
0.854204
21
2.38538
0
LINE
8
BLACK
6
CONTINUOUS
10
0.854204
20
2.38538
11
0.854803
21
2.38236
0
LINE
8
BLACK
6
CONTINUOUS
10
0.854803
20
2.38236
11
0.854803
21
2.32236
0
LINE
8
BLACK
6
CONTINUOUS
10
0.854803
20
2.32236
11
0.854204
21
2.31935
0
LINE
8
BLACK
6
CONTINUOUS
10
0.854204
20
2.31935
11
0.852497
21
2.31679
0
LINE
8
BLACK
6
CONTINUOUS
10
0.852497
20
2.31679
11
0.849942
21
2.31509
0
LINE
8
BLACK
6
CONTINUOUS
10
0.849942
20
2.31509
11
0.846929
21
2.31449
0
LINE
8
BLACK
6
CONTINUOUS
10
0.846929
20
2.31449
11
0.786929
21
2.31449
0
LINE
8
BLACK
6
CONTINUOUS
10
0.786929
20
2.31449
11
0.783916
21
2.31509
0
LINE
8
BLACK
6
CONTINUOUS
10
0.783916
20
2.31509
11
0.781361
21
2.31679
0
LINE
8
BLACK
6
CONTINUOUS
10
0.781361
20
2.31679
11
0.779654
21
2.31935
0
LINE
8
BLACK
6
CONTINUOUS
10
0.779654
20
2.31935
11
0.779055
21
2.32236
0
LINE
8
BLACK
6
CONTINUOUS
10
0.779055
20
2.32236
11
0.779055
21
2.38236
0
LINE
8
BLACK
6
CONTINUOUS
10
0.779055
20
2.38236
11
0.779654
21
2.38538
0
LINE
8
BLACK
6
CONTINUOUS
10
0.779654
20
2.38538
11
0.781361
21
2.38793
0
LINE
8
BLACK
6
CONTINUOUS
10
0.781361
20
2.38793
11
0.783916
21
2.38964
0
LINE
8
BLACK
6
CONTINUOUS
10
0.783916
20
2.38964
11
0.786929
21
2.39024
0
LINE
8
BLACK
6
CONTINUOUS
10
0.786929
20
2.39024
11
0.846929
21
2.39024
0
LINE
8
BLACK
6
CONTINUOUS
10
0.846929
20
2.39024
11
0.849942
21
2.38964
0
LINE
8
BLACK
6
CONTINUOUS
10
0.653092
20
2.48491
11
0.655646
21
2.48321
0
LINE
8
BLACK
6
CONTINUOUS
10
0.655646
20
2.48321
11
0.657353
21
2.48065
0
LINE
8
BLACK
6
CONTINUOUS
10
0.657353
20
2.48065
11
0.657953
21
2.47764
0
LINE
8
BLACK
6
CONTINUOUS
10
0.657953
20
2.47764
11
0.657953
21
2.41764
0
LINE
8
BLACK
6
CONTINUOUS
10
0.657953
20
2.41764
11
0.657353
21
2.41462
0
LINE
8
BLACK
6
CONTINUOUS
10
0.657353
20
2.41462
11
0.655646
21
2.41207
0
LINE
8
BLACK
6
CONTINUOUS
10
0.655646
20
2.41207
11
0.653092
21
2.41036
0
LINE
8
BLACK
6
CONTINUOUS
10
0.653092
20
2.41036
11
0.650079
21
2.40976
0
LINE
8
BLACK
6
CONTINUOUS
10
0.650079
20
2.40976
11
0.590079
21
2.40976
0
LINE
8
BLACK
6
CONTINUOUS
10
0.590079
20
2.40976
11
0.587065
21
2.41036
0
LINE
8
BLACK
6
CONTINUOUS
10
0.587065
20
2.41036
11
0.584511
21
2.41207
0
LINE
8
BLACK
6
CONTINUOUS
10
0.584511
20
2.41207
11
0.582804
21
2.41462
0
LINE
8
BLACK
6
CONTINUOUS
10
0.582804
20
2.41462
11
0.582205
21
2.41764
0
LINE
8
BLACK
6
CONTINUOUS
10
0.582205
20
2.41764
11
0.582205
21
2.47764
0
LINE
8
BLACK
6
CONTINUOUS
10
0.582205
20
2.47764
11
0.582804
21
2.48065
0
LINE
8
BLACK
6
CONTINUOUS
10
0.582804
20
2.48065
11
0.584511
21
2.48321
0
LINE
8
BLACK
6
CONTINUOUS
10
0.584511
20
2.48321
11
0.587065
21
2.48491
0
LINE
8
BLACK
6
CONTINUOUS
10
0.587065
20
2.48491
11
0.590079
21
2.48551
0
LINE
8
BLACK
6
CONTINUOUS
10
0.590079
20
2.48551
11
0.650079
21
2.48551
0
LINE
8
BLACK
6
CONTINUOUS
10
0.650079
20
2.48551
11
0.653092
21
2.48491
0
LINE
8
BLACK
6
CONTINUOUS
10
1.20217
20
2.48491
11
1.20473
21
2.48321
0
LINE
8
BLACK
6
CONTINUOUS
10
1.20473
20
2.48321
11
1.20643
21
2.48065
0
LINE
8
BLACK
6
CONTINUOUS
10
1.20643
20
2.48065
11
1.20703
21
2.47764
0
LINE
8
BLACK
6
CONTINUOUS
10
1.20703
20
2.47764
11
1.20703
21
2.41764
0
LINE
8
BLACK
6
CONTINUOUS
10
1.20703
20
2.41764
11
1.20643
21
2.41462
0
LINE
8
BLACK
6
CONTINUOUS
10
1.20643
20
2.41462
11
1.20473
21
2.41207
0
LINE
8
BLACK
6
CONTINUOUS
10
1.20473
20
2.41207
11
1.20217
21
2.41036
0
LINE
8
BLACK
6
CONTINUOUS
10
1.20217
20
2.41036
11
1.19916
21
2.40976
0
LINE
8
BLACK
6
CONTINUOUS
10
1.19916
20
2.40976
11
1.13916
21
2.40976
0
LINE
8
BLACK
6
CONTINUOUS
10
1.13916
20
2.40976
11
1.13615
21
2.41036
0
LINE
8
BLACK
6
CONTINUOUS
10
1.13615
20
2.41036
11
1.13359
21
2.41207
0
LINE
8
BLACK
6
CONTINUOUS
10
1.13359
20
2.41207
11
1.13189
21
2.41462
0
LINE
8
BLACK
6
CONTINUOUS
10
1.13189
20
2.41462
11
1.13129
21
2.41764
0
LINE
8
BLACK
6
CONTINUOUS
10
1.13129
20
2.41764
11
1.13129
21
2.47764
0
LINE
8
BLACK
6
CONTINUOUS
10
1.13129
20
2.47764
11
1.13189
21
2.48065
0
LINE
8
BLACK
6
CONTINUOUS
10
1.13189
20
2.48065
11
1.13359
21
2.48321
0
LINE
8
BLACK
6
CONTINUOUS
10
1.13359
20
2.48321
11
1.13615
21
2.48491
0
LINE
8
BLACK
6
CONTINUOUS
10
1.13615
20
2.48491
11
1.13916
21
2.48551
0
LINE
8
BLACK
6
CONTINUOUS
10
1.13916
20
2.48551
11
1.19916
21
2.48551
0
LINE
8
BLACK
6
CONTINUOUS
10
1.19916
20
2.48551
11
1.20217
21
2.48491
0
LINE
8
BLACK
6
CONTINUOUS
10
1.10217
20
2.48491
11
1.10473
21
2.48321
0
LINE
8
BLACK
6
CONTINUOUS
10
1.10473
20
2.48321
11
1.10643
21
2.48065
0
LINE
8
BLACK
6
CONTINUOUS
10
1.10643
20
2.48065
11
1.10703
21
2.47764
0
LINE
8
BLACK
6
CONTINUOUS
10
1.10703
20
2.47764
11
1.10703
21
2.41764
0
LINE
8
BLACK
6
CONTINUOUS
10
1.10703
20
2.41764
11
1.10643
21
2.41462
0
LINE
8
BLACK
6
CONTINUOUS
10
1.10643
20
2.41462
11
1.10473
21
2.41207
0
LINE
8
BLACK
6
CONTINUOUS
10
1.10473
20
2.41207
11
1.10217
21
2.41036
0
LINE
8
BLACK
6
CONTINUOUS
10
1.10217
20
2.41036
11
1.09916
21
2.40976
0
LINE
8
BLACK
6
CONTINUOUS
10
1.09916
20
2.40976
11
1.03916
21
2.40976
0
LINE
8
BLACK
6
CONTINUOUS
10
1.03916
20
2.40976
11
1.03615
21
2.41036
0
LINE
8
BLACK
6
CONTINUOUS
10
1.03615
20
2.41036
11
1.03359
21
2.41207
0
LINE
8
BLACK
6
CONTINUOUS
10
1.03359
20
2.41207
11
1.03189
21
2.41462
0
LINE
8
BLACK
6
CONTINUOUS
10
1.03189
20
2.41462
11
1.03129
21
2.41764
0
LINE
8
BLACK
6
CONTINUOUS
10
1.03129
20
2.41764
11
1.03129
21
2.47764
0
LINE
8
BLACK
6
CONTINUOUS
10
1.03129
20
2.47764
11
1.03189
21
2.48065
0
LINE
8
BLACK
6
CONTINUOUS
10
1.03189
20
2.48065
11
1.03359
21
2.48321
0
LINE
8
BLACK
6
CONTINUOUS
10
1.03359
20
2.48321
11
1.03615
21
2.48491
0
LINE
8
BLACK
6
CONTINUOUS
10
1.03615
20
2.48491
11
1.03916
21
2.48551
0
LINE
8
BLACK
6
CONTINUOUS
10
1.03916
20
2.48551
11
1.09916
21
2.48551
0
LINE
8
BLACK
6
CONTINUOUS
10
1.09916
20
2.48551
11
1.10217
21
2.48491
0
LINE
8
BLACK
6
CONTINUOUS
10
1.00217
20
2.48491
11
1.00473
21
2.48321
0
LINE
8
BLACK
6
CONTINUOUS
10
1.00473
20
2.48321
11
1.00643
21
2.48065
0
LINE
8
BLACK
6
CONTINUOUS
10
1.00643
20
2.48065
11
1.00703
21
2.47764
0
LINE
8
BLACK
6
CONTINUOUS
10
1.00703
20
2.47764
11
1.00703
21
2.41764
0
LINE
8
BLACK
6
CONTINUOUS
10
1.00703
20
2.41764
11
1.00643
21
2.41462
0
LINE
8
BLACK
6
CONTINUOUS
10
1.00643
20
2.41462
11
1.00473
21
2.41207
0
LINE
8
BLACK
6
CONTINUOUS
10
1.00473
20
2.41207
11
1.00217
21
2.41036
0
LINE
8
BLACK
6
CONTINUOUS
10
1.00217
20
2.41036
11
0.99916
21
2.40976
0
LINE
8
BLACK
6
CONTINUOUS
10
0.99916
20
2.40976
11
0.93916
21
2.40976
0
LINE
8
BLACK
6
CONTINUOUS
10
0.93916
20
2.40976
11
0.936147
21
2.41036
0
LINE
8
BLACK
6
CONTINUOUS
10
0.936147
20
2.41036
11
0.933592
21
2.41207
0
LINE
8
BLACK
6
CONTINUOUS
10
0.933592
20
2.41207
11
0.931885
21
2.41462
0
LINE
8
BLACK
6
CONTINUOUS
10
0.931885
20
2.41462
11
0.931286
21
2.41764
0
LINE
8
BLACK
6
CONTINUOUS
10
0.931286
20
2.41764
11
0.931286
21
2.47764
0
LINE
8
BLACK
6
CONTINUOUS
10
0.931286
20
2.47764
11
0.931885
21
2.48065
0
LINE
8
BLACK
6
CONTINUOUS
10
0.931885
20
2.48065
11
0.933592
21
2.48321
0
LINE
8
BLACK
6
CONTINUOUS
10
0.933592
20
2.48321
11
0.936147
21
2.48491
0
LINE
8
BLACK
6
CONTINUOUS
10
0.936147
20
2.48491
11
0.93916
21
2.48551
0
LINE
8
BLACK
6
CONTINUOUS
10
0.93916
20
2.48551
11
0.99916
21
2.48551
0
LINE
8
BLACK
6
CONTINUOUS
10
0.99916
20
2.48551
11
1.00217
21
2.48491
0
LINE
8
BLACK
6
CONTINUOUS
10
1.3527
20
2.48491
11
1.35525
21
2.48321
0
LINE
8
BLACK
6
CONTINUOUS
10
1.35525
20
2.48321
11
1.35696
21
2.48065
0
LINE
8
BLACK
6
CONTINUOUS
10
1.35696
20
2.48065
11
1.35756
21
2.47764
0
LINE
8
BLACK
6
CONTINUOUS
10
1.35756
20
2.47764
11
1.35756
21
2.41764
0
LINE
8
BLACK
6
CONTINUOUS
10
1.35756
20
2.41764
11
1.35696
21
2.41462
0
LINE
8
BLACK
6
CONTINUOUS
10
1.35696
20
2.41462
11
1.35525
21
2.41207
0
LINE
8
BLACK
6
CONTINUOUS
10
1.35525
20
2.41207
11
1.3527
21
2.41036
0
LINE
8
BLACK
6
CONTINUOUS
10
1.3527
20
2.41036
11
1.34969
21
2.40976
0
LINE
8
BLACK
6
CONTINUOUS
10
1.34969
20
2.40976
11
1.28969
21
2.40976
0
LINE
8
BLACK
6
CONTINUOUS
10
1.28969
20
2.40976
11
1.28667
21
2.41036
0
LINE
8
BLACK
6
CONTINUOUS
10
1.28667
20
2.41036
11
1.28412
21
2.41207
0
LINE
8
BLACK
6
CONTINUOUS
10
1.28412
20
2.41207
11
1.28241
21
2.41462
0
LINE
8
BLACK
6
CONTINUOUS
10
1.28241
20
2.41462
11
1.28181
21
2.41764
0
LINE
8
BLACK
6
CONTINUOUS
10
1.28181
20
2.41764
11
1.28181
21
2.47764
0
LINE
8
BLACK
6
CONTINUOUS
10
1.28181
20
2.47764
11
1.28241
21
2.48065
0
LINE
8
BLACK
6
CONTINUOUS
10
1.28241
20
2.48065
11
1.28412
21
2.48321
0
LINE
8
BLACK
6
CONTINUOUS
10
1.28412
20
2.48321
11
1.28667
21
2.48491
0
LINE
8
BLACK
6
CONTINUOUS
10
1.28667
20
2.48491
11
1.28969
21
2.48551
0
LINE
8
BLACK
6
CONTINUOUS
10
1.28969
20
2.48551
11
1.34969
21
2.48551
0
LINE
8
BLACK
6
CONTINUOUS
10
1.34969
20
2.48551
11
1.3527
21
2.48491
0
LINE
8
BLACK
6
CONTINUOUS
10
1.4527
20
2.48491
11
1.45525
21
2.48321
0
LINE
8
BLACK
6
CONTINUOUS
10
1.45525
20
2.48321
11
1.45696
21
2.48065
0
LINE
8
BLACK
6
CONTINUOUS
10
1.45696
20
2.48065
11
1.45756
21
2.47764
0
LINE
8
BLACK
6
CONTINUOUS
10
1.45756
20
2.47764
11
1.45756
21
2.41764
0
LINE
8
BLACK
6
CONTINUOUS
10
1.45756
20
2.41764
11
1.45696
21
2.41462
0
LINE
8
BLACK
6
CONTINUOUS
10
1.45696
20
2.41462
11
1.45525
21
2.41207
0
LINE
8
BLACK
6
CONTINUOUS
10
1.45525
20
2.41207
11
1.4527
21
2.41036
0
LINE
8
BLACK
6
CONTINUOUS
10
1.4527
20
2.41036
11
1.44969
21
2.40976
0
LINE
8
BLACK
6
CONTINUOUS
10
1.44969
20
2.40976
11
1.38969
21
2.40976
0
LINE
8
BLACK
6
CONTINUOUS
10
1.38969
20
2.40976
11
1.38667
21
2.41036
0
LINE
8
BLACK
6
CONTINUOUS
10
1.38667
20
2.41036
11
1.38412
21
2.41207
0
LINE
8
BLACK
6
CONTINUOUS
10
1.38412
20
2.41207
11
1.38241
21
2.41462
0
LINE
8
BLACK
6
CONTINUOUS
10
1.38241
20
2.41462
11
1.38181
21
2.41764
0
LINE
8
BLACK
6
CONTINUOUS
10
1.38181
20
2.41764
11
1.38181
21
2.47764
0
LINE
8
BLACK
6
CONTINUOUS
10
1.38181
20
2.47764
11
1.38241
21
2.48065
0
LINE
8
BLACK
6
CONTINUOUS
10
1.38241
20
2.48065
11
1.38412
21
2.48321
0
LINE
8
BLACK
6
CONTINUOUS
10
1.38412
20
2.48321
11
1.38667
21
2.48491
0
LINE
8
BLACK
6
CONTINUOUS
10
1.38667
20
2.48491
11
1.38969
21
2.48551
0
LINE
8
BLACK
6
CONTINUOUS
10
1.38969
20
2.48551
11
1.44969
21
2.48551
0
LINE
8
BLACK
6
CONTINUOUS
10
1.44969
20
2.48551
11
1.4527
21
2.48491
0
LINE
8
BLACK
6
CONTINUOUS
10
1.5527
20
2.48491
11
1.55525
21
2.48321
0
LINE
8
BLACK
6
CONTINUOUS
10
1.55525
20
2.48321
11
1.55696
21
2.48065
0
LINE
8
BLACK
6
CONTINUOUS
10
1.55696
20
2.48065
11
1.55756
21
2.47764
0
LINE
8
BLACK
6
CONTINUOUS
10
1.55756
20
2.47764
11
1.55756
21
2.41764
0
LINE
8
BLACK
6
CONTINUOUS
10
1.55756
20
2.41764
11
1.55696
21
2.41462
0
LINE
8
BLACK
6
CONTINUOUS
10
1.55696
20
2.41462
11
1.55525
21
2.41207
0
LINE
8
BLACK
6
CONTINUOUS
10
1.55525
20
2.41207
11
1.5527
21
2.41036
0
LINE
8
BLACK
6
CONTINUOUS
10
1.5527
20
2.41036
11
1.54969
21
2.40976
0
LINE
8
BLACK
6
CONTINUOUS
10
1.54969
20
2.40976
11
1.48969
21
2.40976
0
LINE
8
BLACK
6
CONTINUOUS
10
1.48969
20
2.40976
11
1.48667
21
2.41036
0
LINE
8
BLACK
6
CONTINUOUS
10
1.48667
20
2.41036
11
1.48412
21
2.41207
0
LINE
8
BLACK
6
CONTINUOUS
10
1.48412
20
2.41207
11
1.48241
21
2.41462
0
LINE
8
BLACK
6
CONTINUOUS
10
1.48241
20
2.41462
11
1.48181
21
2.41764
0
LINE
8
BLACK
6
CONTINUOUS
10
1.48181
20
2.41764
11
1.48181
21
2.47764
0
LINE
8
BLACK
6
CONTINUOUS
10
1.48181
20
2.47764
11
1.48241
21
2.48065
0
LINE
8
BLACK
6
CONTINUOUS
10
1.48241
20
2.48065
11
1.48412
21
2.48321
0
LINE
8
BLACK
6
CONTINUOUS
10
1.48412
20
2.48321
11
1.48667
21
2.48491
0
LINE
8
BLACK
6
CONTINUOUS
10
1.48667
20
2.48491
11
1.48969
21
2.48551
0
LINE
8
BLACK
6
CONTINUOUS
10
1.48969
20
2.48551
11
1.54969
21
2.48551
0
LINE
8
BLACK
6
CONTINUOUS
10
1.54969
20
2.48551
11
1.5527
21
2.48491
0
LINE
8
BLACK
6
CONTINUOUS
10
1.7527
20
2.48491
11
1.75525
21
2.48321
0
LINE
8
BLACK
6
CONTINUOUS
10
1.75525
20
2.48321
11
1.75696
21
2.48065
0
LINE
8
BLACK
6
CONTINUOUS
10
1.75696
20
2.48065
11
1.75756
21
2.47764
0
LINE
8
BLACK
6
CONTINUOUS
10
1.75756
20
2.47764
11
1.75756
21
2.41764
0
LINE
8
BLACK
6
CONTINUOUS
10
1.75756
20
2.41764
11
1.75696
21
2.41462
0
LINE
8
BLACK
6
CONTINUOUS
10
1.75696
20
2.41462
11
1.75525
21
2.41207
0
LINE
8
BLACK
6
CONTINUOUS
10
1.75525
20
2.41207
11
1.7527
21
2.41036
0
LINE
8
BLACK
6
CONTINUOUS
10
1.7527
20
2.41036
11
1.74969
21
2.40976
0
LINE
8
BLACK
6
CONTINUOUS
10
1.74969
20
2.40976
11
1.68969
21
2.40976
0
LINE
8
BLACK
6
CONTINUOUS
10
1.68969
20
2.40976
11
1.68667
21
2.41036
0
LINE
8
BLACK
6
CONTINUOUS
10
1.68667
20
2.41036
11
1.68412
21
2.41207
0
LINE
8
BLACK
6
CONTINUOUS
10
1.68412
20
2.41207
11
1.68241
21
2.41462
0
LINE
8
BLACK
6
CONTINUOUS
10
1.68241
20
2.41462
11
1.68181
21
2.41764
0
LINE
8
BLACK
6
CONTINUOUS
10
1.68181
20
2.41764
11
1.68181
21
2.47764
0
LINE
8
BLACK
6
CONTINUOUS
10
1.68181
20
2.47764
11
1.68241
21
2.48065
0
LINE
8
BLACK
6
CONTINUOUS
10
1.68241
20
2.48065
11
1.68412
21
2.48321
0
LINE
8
BLACK
6
CONTINUOUS
10
1.68412
20
2.48321
11
1.68667
21
2.48491
0
LINE
8
BLACK
6
CONTINUOUS
10
1.68667
20
2.48491
11
1.68969
21
2.48551
0
LINE
8
BLACK
6
CONTINUOUS
10
1.68969
20
2.48551
11
1.74969
21
2.48551
0
LINE
8
BLACK
6
CONTINUOUS
10
1.74969
20
2.48551
11
1.7527
21
2.48491
0
LINE
8
BLACK
6
CONTINUOUS
10
1.6527
20
2.48491
11
1.65525
21
2.48321
0
LINE
8
BLACK
6
CONTINUOUS
10
1.65525
20
2.48321
11
1.65696
21
2.48065
0
LINE
8
BLACK
6
CONTINUOUS
10
1.65696
20
2.48065
11
1.65756
21
2.47764
0
LINE
8
BLACK
6
CONTINUOUS
10
1.65756
20
2.47764
11
1.65756
21
2.41764
0
LINE
8
BLACK
6
CONTINUOUS
10
1.65756
20
2.41764
11
1.65696
21
2.41462
0
LINE
8
BLACK
6
CONTINUOUS
10
1.65696
20
2.41462
11
1.65525
21
2.41207
0
LINE
8
BLACK
6
CONTINUOUS
10
1.65525
20
2.41207
11
1.6527
21
2.41036
0
LINE
8
BLACK
6
CONTINUOUS
10
1.6527
20
2.41036
11
1.64969
21
2.40976
0
LINE
8
BLACK
6
CONTINUOUS
10
1.64969
20
2.40976
11
1.58969
21
2.40976
0
LINE
8
BLACK
6
CONTINUOUS
10
1.58969
20
2.40976
11
1.58667
21
2.41036
0
LINE
8
BLACK
6
CONTINUOUS
10
1.58667
20
2.41036
11
1.58412
21
2.41207
0
LINE
8
BLACK
6
CONTINUOUS
10
1.58412
20
2.41207
11
1.58241
21
2.41462
0
LINE
8
BLACK
6
CONTINUOUS
10
1.58241
20
2.41462
11
1.58181
21
2.41764
0
LINE
8
BLACK
6
CONTINUOUS
10
1.58181
20
2.41764
11
1.58181
21
2.47764
0
LINE
8
BLACK
6
CONTINUOUS
10
1.58181
20
2.47764
11
1.58241
21
2.48065
0
LINE
8
BLACK
6
CONTINUOUS
10
1.58241
20
2.48065
11
1.58412
21
2.48321
0
LINE
8
BLACK
6
CONTINUOUS
10
1.58412
20
2.48321
11
1.58667
21
2.48491
0
LINE
8
BLACK
6
CONTINUOUS
10
1.58667
20
2.48491
11
1.58969
21
2.48551
0
LINE
8
BLACK
6
CONTINUOUS
10
1.58969
20
2.48551
11
1.64969
21
2.48551
0
LINE
8
BLACK
6
CONTINUOUS
10
1.64969
20
2.48551
11
1.6527
21
2.48491
0
LINE
8
BLACK
6
CONTINUOUS
10
0.301124
20
2.48688
11
0.303678
21
2.48517
0
LINE
8
BLACK
6
CONTINUOUS
10
0.303678
20
2.48517
11
0.305385
21
2.48262
0
LINE
8
BLACK
6
CONTINUOUS
10
0.305385
20
2.48262
11
0.305984
21
2.47961
0
LINE
8
BLACK
6
CONTINUOUS
10
0.305984
20
2.47961
11
0.305984
21
2.41961
0
LINE
8
BLACK
6
CONTINUOUS
10
0.305984
20
2.41961
11
0.305385
21
2.41659
0
LINE
8
BLACK
6
CONTINUOUS
10
0.305385
20
2.41659
11
0.303678
21
2.41404
0
LINE
8
BLACK
6
CONTINUOUS
10
0.303678
20
2.41404
11
0.301124
21
2.41233
0
LINE
8
BLACK
6
CONTINUOUS
10
0.301124
20
2.41233
11
0.29811
21
2.41173
0
LINE
8
BLACK
6
CONTINUOUS
10
0.29811
20
2.41173
11
0.23811
21
2.41173
0
LINE
8
BLACK
6
CONTINUOUS
10
0.23811
20
2.41173
11
0.235097
21
2.41233
0
LINE
8
BLACK
6
CONTINUOUS
10
0.235097
20
2.41233
11
0.232542
21
2.41404
0
LINE
8
BLACK
6
CONTINUOUS
10
0.232542
20
2.41404
11
0.230836
21
2.41659
0
LINE
8
BLACK
6
CONTINUOUS
10
0.230836
20
2.41659
11
0.230236
21
2.41961
0
LINE
8
BLACK
6
CONTINUOUS
10
0.230236
20
2.41961
11
0.230236
21
2.47961
0
LINE
8
BLACK
6
CONTINUOUS
10
0.230236
20
2.47961
11
0.230836
21
2.48262
0
LINE
8
BLACK
6
CONTINUOUS
10
0.230836
20
2.48262
11
0.232542
21
2.48517
0
LINE
8
BLACK
6
CONTINUOUS
10
0.232542
20
2.48517
11
0.235097
21
2.48688
0
LINE
8
BLACK
6
CONTINUOUS
10
0.235097
20
2.48688
11
0.23811
21
2.48748
0
LINE
8
BLACK
6
CONTINUOUS
10
0.23811
20
2.48748
11
0.29811
21
2.48748
0
LINE
8
BLACK
6
CONTINUOUS
10
0.29811
20
2.48748
11
0.301124
21
2.48688
0
LINE
8
BLACK
6
CONTINUOUS
10
0.401124
20
2.48688
11
0.403678
21
2.48517
0
LINE
8
BLACK
6
CONTINUOUS
10
0.403678
20
2.48517
11
0.405385
21
2.48262
0
LINE
8
BLACK
6
CONTINUOUS
10
0.405385
20
2.48262
11
0.405984
21
2.47961
0
LINE
8
BLACK
6
CONTINUOUS
10
0.405984
20
2.47961
11
0.405984
21
2.41961
0
LINE
8
BLACK
6
CONTINUOUS
10
0.405984
20
2.41961
11
0.405385
21
2.41659
0
LINE
8
BLACK
6
CONTINUOUS
10
0.405385
20
2.41659
11
0.403678
21
2.41404
0
LINE
8
BLACK
6
CONTINUOUS
10
0.403678
20
2.41404
11
0.401124
21
2.41233
0
LINE
8
BLACK
6
CONTINUOUS
10
0.401124
20
2.41233
11
0.39811
21
2.41173
0
LINE
8
BLACK
6
CONTINUOUS
10
0.39811
20
2.41173
11
0.33811
21
2.41173
0
LINE
8
BLACK
6
CONTINUOUS
10
0.33811
20
2.41173
11
0.335097
21
2.41233
0
LINE
8
BLACK
6
CONTINUOUS
10
0.335097
20
2.41233
11
0.332542
21
2.41404
0
LINE
8
BLACK
6
CONTINUOUS
10
0.332542
20
2.41404
11
0.330836
21
2.41659
0
LINE
8
BLACK
6
CONTINUOUS
10
0.330836
20
2.41659
11
0.330236
21
2.41961
0
LINE
8
BLACK
6
CONTINUOUS
10
0.330236
20
2.41961
11
0.330236
21
2.47961
0
LINE
8
BLACK
6
CONTINUOUS
10
0.330236
20
2.47961
11
0.330836
21
2.48262
0
LINE
8
BLACK
6
CONTINUOUS
10
0.330836
20
2.48262
11
0.332542
21
2.48517
0
LINE
8
BLACK
6
CONTINUOUS
10
0.332542
20
2.48517
11
0.335097
21
2.48688
0
LINE
8
BLACK
6
CONTINUOUS
10
0.335097
20
2.48688
11
0.33811
21
2.48748
0
LINE
8
BLACK
6
CONTINUOUS
10
0.33811
20
2.48748
11
0.39811
21
2.48748
0
LINE
8
BLACK
6
CONTINUOUS
10
0.39811
20
2.48748
11
0.401124
21
2.48688
0
LINE
8
BLACK
6
CONTINUOUS
10
0.501124
20
2.48688
11
0.503678
21
2.48517
0
LINE
8
BLACK
6
CONTINUOUS
10
0.503678
20
2.48517
11
0.505385
21
2.48262
0
LINE
8
BLACK
6
CONTINUOUS
10
0.505385
20
2.48262
11
0.505984
21
2.47961
0
LINE
8
BLACK
6
CONTINUOUS
10
0.505984
20
2.47961
11
0.505984
21
2.41961
0
LINE
8
BLACK
6
CONTINUOUS
10
0.505984
20
2.41961
11
0.505385
21
2.41659
0
LINE
8
BLACK
6
CONTINUOUS
10
0.505385
20
2.41659
11
0.503678
21
2.41404
0
LINE
8
BLACK
6
CONTINUOUS
10
0.503678
20
2.41404
11
0.501124
21
2.41233
0
LINE
8
BLACK
6
CONTINUOUS
10
0.501124
20
2.41233
11
0.49811
21
2.41173
0
LINE
8
BLACK
6
CONTINUOUS
10
0.49811
20
2.41173
11
0.43811
21
2.41173
0
LINE
8
BLACK
6
CONTINUOUS
10
0.43811
20
2.41173
11
0.435097
21
2.41233
0
LINE
8
BLACK
6
CONTINUOUS
10
0.435097
20
2.41233
11
0.432542
21
2.41404
0
LINE
8
BLACK
6
CONTINUOUS
10
0.432542
20
2.41404
11
0.430836
21
2.41659
0
LINE
8
BLACK
6
CONTINUOUS
10
0.430836
20
2.41659
11
0.430236
21
2.41961
0
LINE
8
BLACK
6
CONTINUOUS
10
0.430236
20
2.41961
11
0.430236
21
2.47961
0
LINE
8
BLACK
6
CONTINUOUS
10
0.430236
20
2.47961
11
0.430836
21
2.48262
0
LINE
8
BLACK
6
CONTINUOUS
10
0.430836
20
2.48262
11
0.432542
21
2.48517
0
LINE
8
BLACK
6
CONTINUOUS
10
0.432542
20
2.48517
11
0.435097
21
2.48688
0
LINE
8
BLACK
6
CONTINUOUS
10
0.435097
20
2.48688
11
0.43811
21
2.48748
0
LINE
8
BLACK
6
CONTINUOUS
10
0.43811
20
2.48748
11
0.49811
21
2.48748
0
LINE
8
BLACK
6
CONTINUOUS
10
0.49811
20
2.48748
11
0.501124
21
2.48688
0
LINE
8
BLACK
6
CONTINUOUS
10
0.849942
20
2.48964
11
0.852497
21
2.48793
0
LINE
8
BLACK
6
CONTINUOUS
10
0.852497
20
2.48793
11
0.854204
21
2.48538
0
LINE
8
BLACK
6
CONTINUOUS
10
0.854204
20
2.48538
11
0.854803
21
2.48236
0
LINE
8
BLACK
6
CONTINUOUS
10
0.854803
20
2.48236
11
0.854803
21
2.42236
0
LINE
8
BLACK
6
CONTINUOUS
10
0.854803
20
2.42236
11
0.854204
21
2.41935
0
LINE
8
BLACK
6
CONTINUOUS
10
0.854204
20
2.41935
11
0.852497
21
2.41679
0
LINE
8
BLACK
6
CONTINUOUS
10
0.852497
20
2.41679
11
0.849942
21
2.41509
0
LINE
8
BLACK
6
CONTINUOUS
10
0.849942
20
2.41509
11
0.846929
21
2.41449
0
LINE
8
BLACK
6
CONTINUOUS
10
0.846929
20
2.41449
11
0.786929
21
2.41449
0
LINE
8
BLACK
6
CONTINUOUS
10
0.786929
20
2.41449
11
0.783916
21
2.41509
0
LINE
8
BLACK
6
CONTINUOUS
10
0.783916
20
2.41509
11
0.781361
21
2.41679
0
LINE
8
BLACK
6
CONTINUOUS
10
0.781361
20
2.41679
11
0.779654
21
2.41935
0
LINE
8
BLACK
6
CONTINUOUS
10
0.779654
20
2.41935
11
0.779055
21
2.42236
0
LINE
8
BLACK
6
CONTINUOUS
10
0.779055
20
2.42236
11
0.779055
21
2.48236
0
LINE
8
BLACK
6
CONTINUOUS
10
0.779055
20
2.48236
11
0.779654
21
2.48538
0
LINE
8
BLACK
6
CONTINUOUS
10
0.779654
20
2.48538
11
0.781361
21
2.48793
0
LINE
8
BLACK
6
CONTINUOUS
10
0.781361
20
2.48793
11
0.783916
21
2.48964
0
LINE
8
BLACK
6
CONTINUOUS
10
0.783916
20
2.48964
11
0.786929
21
2.49024
0
LINE
8
BLACK
6
CONTINUOUS
10
0.786929
20
2.49024
11
0.846929
21
2.49024
0
LINE
8
BLACK
6
CONTINUOUS
10
0.846929
20
2.49024
11
0.849942
21
2.48964
  0
ENDSEC
  0
EOF
