  0
SECTION
  2
HEADER
  9
$ANGBASE
  50
0.0
  9
$ANGDIR
  70
1
  9
$MEASUREMENT
  70
0
  0
ENDSEC
  0
SECTION
  2
TABLES
  0
TABLE
  2
LTYPE
  70
4
  0
LTYPE
  5
40F
  2
CONTINUOUS
  70
0
  3
Solid line
  72
65
  73
0
  40
0.0
  0
LTYPE
  5
410
  2
DASHDOT
 70
0
  3
Dash Dot ____ _ ____ _
 72
65
 73
4
 40
2.0
 49
1.25
 49
-0.25
 49
0.25
 49
-0.25
  0
LTYPE
  5
411
  2
DASHED
 70
0
  3
Dashed __ __ __ __ __
 72
65
 73
2
 40
0.75
 49
0.5
 49
-0.25
  0
LTYPE
  5
43B
  2
DOTTED
 70
0
  3
Dotted .  .  .  .
 72
65
 73
2
 40
0.2
 49
0.0
 49
-0.2
  0
ENDTAB
  0
TABLE
  2
STYLE
  70
4
  0
STYLE
  2
KICAD
  70
0
  40
0
  41
1
  42
1
  50
0
  71
0
  3
isocp.shx
  0
STYLE
  2
KICADB
  70
0
  40
0
  41
1
  42
1
  50
0
  71
0
  3
isocp.shx
  0
STYLE
  2
KICADI
  70
0
  40
0
  41
1
  42
1
  50
15
  71
0
  3
isocp.shx
  0
STYLE
  2
KICADBI
  70
0
  40
0
  41
1
  42
1
  50
15
  71
0
  3
isocp.shx
  0
ENDTAB
  0
TABLE
  2
LAYER
  70
1
  0
LAYER
  2
BLACK
  70
0
  62
7
  6
CONTINUOUS
  0
ENDTAB
  0
ENDSEC
  0
SECTION
  2
ENTITIES
0
LINE
8
BLACK
6
CONTINUOUS
10
0.4433597637795276
20
0.2670437007874016
11
0.4601611023622047
21
0.2647365748031496
0
LINE
8
BLACK
6
CONTINUOUS
10
0.4601611023622047
20
0.2647365748031496
11
0.4766865748031496
21
0.2609264960629921
0
LINE
8
BLACK
6
CONTINUOUS
10
0.4766865748031496
20
0.2609264960629921
11
0.4928020078740157
21
0.2556444094488189
0
LINE
8
BLACK
6
CONTINUOUS
10
0.4928020078740157
20
0.2556444094488189
11
0.5083766141732283
21
0.2489331496062992
0
LINE
8
BLACK
6
CONTINUOUS
10
0.5083766141732283
20
0.2489331496062992
11
0.5232838582677165
21
0.2408472834645669
0
LINE
8
BLACK
6
CONTINUOUS
10
0.5232838582677165
20
0.2408472834645669
11
0.5374027952755905
21
0.2314523622047244
0
LINE
8
BLACK
6
CONTINUOUS
10
0.5374027952755905
20
0.2314523622047244
11
0.5506187401574804
21
0.2208247244094488
0
LINE
8
BLACK
6
CONTINUOUS
10
0.5506187401574804
20
0.2208247244094488
11
0.5628244488188976
21
0.2090506692913386
0
LINE
8
BLACK
6
CONTINUOUS
10
0.5628244488188976
20
0.2090506692913386
11
0.5739207874015748
21
0.1962257086614173
0
LINE
8
BLACK
6
CONTINUOUS
10
0.5739207874015748
20
0.1962257086614173
11
0.583817716535433
21
0.1824540157480315
0
LINE
8
BLACK
6
CONTINUOUS
10
0.583817716535433
20
0.1824540157480315
11
0.592434842519685
21
0.1678474015748032
0
LINE
8
BLACK
6
CONTINUOUS
10
0.592434842519685
20
0.1678474015748032
11
0.5997022047244094
21
0.1525244094488189
0
LINE
8
BLACK
6
CONTINUOUS
10
0.5997022047244094
20
0.1525244094488189
11
0.6055608267716536
21
0.1366094881889764
0
LINE
8
BLACK
6
CONTINUOUS
10
0.6055608267716536
20
0.1366094881889764
11
0.6099631102362204
21
0.1202318503937008
0
LINE
8
BLACK
6
CONTINUOUS
10
0.6099631102362204
20
0.1202318503937008
11
0.6128733858267716
21
0.1035244094488189
0
LINE
8
BLACK
6
CONTINUOUS
10
0.6128733858267716
20
0.1035244094488189
11
0.6142679527559055
21
0.0866228346456693
0
LINE
8
BLACK
6
CONTINUOUS
10
0.6142679527559055
20
0.0866228346456693
11
0.6141355118110237
21
0.0696643307086614
0
LINE
8
BLACK
6
CONTINUOUS
10
0.6141355118110237
20
0.0696643307086614
11
0.6124771653543307
21
0.0527865748031496
0
LINE
8
BLACK
6
CONTINUOUS
10
0.6124771653543307
20
0.0527865748031496
11
0.6093063385826771
21
0.0361266141732283
0
LINE
8
BLACK
6
CONTINUOUS
10
0.6093063385826771
20
0.0361266141732283
11
0.6046488188976378
21
0.0198197244094488
0
LINE
8
BLACK
6
CONTINUOUS
10
0.6046488188976378
20
0.0198197244094488
11
0.5985423622047243
21
0.0039982283464567
0
LINE
8
BLACK
6
CONTINUOUS
10
0.5985423622047243
20
0.0039982283464567
11
0.5910365748031496
21
-0.0112093700787402
0
LINE
8
BLACK
6
CONTINUOUS
10
0.5910365748031496
20
-0.0112093700787402
11
0.5821924015748031
21
-0.0256796456692913
0
LINE
8
BLACK
6
CONTINUOUS
10
0.5821924015748031
20
-0.0256796456692913
11
0.5720816535433071
21
-0.0392951181102362
0
LINE
8
BLACK
6
CONTINUOUS
10
0.5720816535433071
20
-0.0392951181102362
11
0.5607863385826771
21
-0.0519451968503937
0
LINE
8
BLACK
6
CONTINUOUS
10
0.5607863385826771
20
-0.0519451968503937
11
0.5483982677165354
21
-0.0635272440944882
0
LINE
8
BLACK
6
CONTINUOUS
10
0.5483982677165354
20
-0.0635272440944882
11
0.5354330708661417
21
-0.0736238582677165
0
LINE
8
BLACK
6
CONTINUOUS
10
0.5354330708661417
20
-0.0736238582677165
11
0.5354330708661417
21
-0.1664512598425197
0
LINE
8
BLACK
6
CONTINUOUS
10
0.5354330708661417
20
-0.1664512598425197
11
0.5353581496062992
21
-0.1668279133858268
0
LINE
8
BLACK
6
CONTINUOUS
10
0.5353581496062992
20
-0.1668279133858268
11
0.5348254724409449
21
-0.1673605905511811
0
LINE
8
BLACK
6
CONTINUOUS
10
0.5348254724409449
20
-0.1673605905511811
11
0.5344488188976377
21
-0.1674355118110236
0
LINE
8
BLACK
6
CONTINUOUS
10
0.5344488188976377
20
-0.1674355118110236
11
0.3179133858267716
21
-0.1674355118110236
0
LINE
8
BLACK
6
CONTINUOUS
10
0.3179133858267716
20
-0.1674355118110236
11
0.3175367322834646
21
-0.1673605905511811
0
LINE
8
BLACK
6
CONTINUOUS
10
0.3175367322834646
20
-0.1673605905511811
11
0.3170040551181103
21
-0.1668279133858268
0
LINE
8
BLACK
6
CONTINUOUS
10
0.3170040551181103
20
-0.1668279133858268
11
0.3169291338582677
21
-0.1664512598425197
0
LINE
8
BLACK
6
CONTINUOUS
10
0.3169291338582677
20
-0.1664512598425197
11
0.3169291338582677
21
-0.073650157480315
0
LINE
8
BLACK
6
CONTINUOUS
10
0.3169291338582677
20
-0.073650157480315
11
0.3036025984251968
21
-0.0632179133858268
0
LINE
8
BLACK
6
CONTINUOUS
10
0.3036025984251968
20
-0.0632179133858268
11
0.2912438188976378
21
-0.0516046062992126
0
LINE
8
BLACK
6
CONTINUOUS
10
0.2912438188976378
20
-0.0516046062992126
11
0.2799805118110236
21
-0.0389259842519685
0
LINE
8
BLACK
6
CONTINUOUS
10
0.2799805118110236
20
-0.0389259842519685
11
0.2699042125984252
21
-0.0252850393700787
0
LINE
8
BLACK
6
CONTINUOUS
10
0.2699042125984252
20
-0.0252850393700787
11
0.2610966141732283
21
-0.0107924803149606
0
LINE
8
BLACK
6
CONTINUOUS
10
0.2610966141732283
20
-0.0107924803149606
11
0.2536292913385827
21
0.0044340551181102
0
LINE
8
BLACK
6
CONTINUOUS
10
0.2536292913385827
20
0.0044340551181102
11
0.2475628346456693
21
0.0202709448818898
0
LINE
8
BLACK
6
CONTINUOUS
10
0.2475628346456693
20
0.0202709448818898
11
0.2429465354330708
21
0.0365895669291339
0
LINE
8
BLACK
6
CONTINUOUS
10
0.2429465354330708
20
0.0365895669291339
11
0.2398178346456693
21
0.0532574803149606
0
LINE
8
BLACK
6
CONTINUOUS
10
0.2398178346456693
20
0.0532574803149606
11
0.238202125984252
21
0.0701393700787402
0
LINE
8
BLACK
6
CONTINUOUS
10
0.238202125984252
20
0.0701393700787402
11
0.2381125590551181
21
0.0870981496062992
0
LINE
8
BLACK
6
CONTINUOUS
10
0.2381125590551181
20
0.0870981496062992
11
0.239549842519685
21
0.1039961417322835
0
LINE
8
BLACK
6
CONTINUOUS
10
0.239549842519685
20
0.1039961417322835
11
0.2425023228346457
21
0.1206961811023622
0
LINE
8
BLACK
6
CONTINUOUS
10
0.2425023228346457
20
0.1206961811023622
11
0.2469459842519685
21
0.1370626377952756
0
LINE
8
BLACK
6
CONTINUOUS
10
0.2469459842519685
20
0.1370626377952756
11
0.252844842519685
21
0.1529627165354331
0
LINE
8
BLACK
6
CONTINUOUS
10
0.252844842519685
20
0.1529627165354331
11
0.260150905511811
21
0.1682672834645669
0
LINE
8
BLACK
6
CONTINUOUS
10
0.260150905511811
20
0.1682672834645669
11
0.2688049212598425
21
0.1828520866141732
0
LINE
8
BLACK
6
CONTINUOUS
10
0.2688049212598425
20
0.1828520866141732
11
0.2787365748031496
21
0.1965987007874016
0
LINE
8
BLACK
6
CONTINUOUS
10
0.2787365748031496
20
0.1965987007874016
11
0.2898653149606299
21
0.2093955511811024
0
LINE
8
BLACK
6
CONTINUOUS
10
0.2898653149606299
20
0.2093955511811024
11
0.3021007086614173
21
0.2211387795275591
0
LINE
8
BLACK
6
CONTINUOUS
10
0.3021007086614173
20
0.2211387795275591
11
0.3153435039370079
21
0.2317329527559055
0
LINE
8
BLACK
6
CONTINUOUS
10
0.3153435039370079
20
0.2317329527559055
11
0.3294861417322835
21
0.2410921653543307
0
LINE
8
BLACK
6
CONTINUOUS
10
0.3294861417322835
20
0.2410921653543307
11
0.344413779527559
21
0.2491403543307087
0
LINE
8
BLACK
6
CONTINUOUS
10
0.344413779527559
20
0.2491403543307087
11
0.3600052755905512
21
0.2558122047244095
0
LINE
8
BLACK
6
CONTINUOUS
10
0.3600052755905512
20
0.2558122047244095
11
0.3761340157480315
21
0.2610535433070866
0
LINE
8
BLACK
6
CONTINUOUS
10
0.3761340157480315
20
0.2610535433070866
11
0.3926690551181102
21
0.2648218503937008
0
LINE
8
BLACK
6
CONTINUOUS
10
0.3926690551181102
20
0.2648218503937008
11
0.4094761811023622
21
0.2670865354330709
0
LINE
8
BLACK
6
CONTINUOUS
10
0.4094761811023622
20
0.2670865354330709
11
0.426418937007874
21
0.2678291338582677
0
LINE
8
BLACK
6
CONTINUOUS
10
0.426418937007874
20
0.2678291338582677
11
0.4433597637795276
21
0.2670437007874016
0
LINE
8
BLACK
6
CONTINUOUS
10
0.4012849212598425
20
0.2643787401574803
11
0.3847547637795276
21
0.2613877559055118
0
LINE
8
BLACK
6
CONTINUOUS
10
0.3847547637795276
20
0.2613877559055118
11
0.3685609448818897
21
0.2569210236220472
0
LINE
8
BLACK
6
CONTINUOUS
10
0.3685609448818897
20
0.2569210236220472
11
0.3528349212598425
21
0.2510147637795275
0
LINE
8
BLACK
6
CONTINUOUS
10
0.3528349212598425
20
0.2510147637795275
11
0.3377043700787402
21
0.243716968503937
0
LINE
8
BLACK
6
CONTINUOUS
10
0.3377043700787402
20
0.243716968503937
11
0.3232921259842519
21
0.2350868897637795
0
LINE
8
BLACK
6
CONTINUOUS
10
0.3232921259842519
20
0.2350868897637795
11
0.3097151968503937
21
0.2251945275590551
0
LINE
8
BLACK
6
CONTINUOUS
10
0.3097151968503937
20
0.2251945275590551
11
0.297083779527559
21
0.2141202755905512
0
LINE
8
BLACK
6
CONTINUOUS
10
0.297083779527559
20
0.2141202755905512
11
0.2855004724409449
21
0.2019539763779528
0
LINE
8
BLACK
6
CONTINUOUS
10
0.2855004724409449
20
0.2019539763779528
11
0.2750592913385826
21
0.1887944094488189
0
LINE
8
BLACK
6
CONTINUOUS
10
0.2750592913385826
20
0.1887944094488189
11
0.2658450393700788
21
0.1747484645669291
0
LINE
8
BLACK
6
CONTINUOUS
10
0.2658450393700788
20
0.1747484645669291
11
0.2579324803149606
21
0.1599301574803149
0
LINE
8
BLACK
6
CONTINUOUS
10
0.2579324803149606
20
0.1599301574803149
11
0.2513858267716536
21
0.1444597637795275
0
LINE
8
BLACK
6
CONTINUOUS
10
0.2513858267716536
20
0.1444597637795275
11
0.2462583070866142
21
0.128462874015748
0
LINE
8
BLACK
6
CONTINUOUS
10
0.2462583070866142
20
0.128462874015748
11
0.2425914960629921
21
0.1120694094488189
0
LINE
8
BLACK
6
CONTINUOUS
10
0.2425914960629921
20
0.1120694094488189
11
0.2404151574803149
21
0.0954124015748031
0
LINE
8
BLACK
6
CONTINUOUS
10
0.2404151574803149
20
0.0954124015748031
11
0.2397470078740157
21
0.078627125984252
0
LINE
8
BLACK
6
CONTINUOUS
10
0.2397470078740157
20
0.078627125984252
11
0.2405924409448819
21
0.0618498818897638
0
LINE
8
BLACK
6
CONTINUOUS
10
0.2405924409448819
20
0.0618498818897638
11
0.2429445669291339
21
0.045216811023622
0
LINE
8
BLACK
6
CONTINUOUS
10
0.2429445669291339
20
0.045216811023622
11
0.2467843307086614
21
0.0288629527559055
0
LINE
8
BLACK
6
CONTINUOUS
10
0.2467843307086614
20
0.0288629527559055
11
0.2520805511811023
21
0.0129211417322835
0
LINE
8
BLACK
6
CONTINUOUS
10
0.2520805511811023
20
0.0129211417322835
11
0.2587902362204724
21
-0.0024792519685039
0
LINE
8
BLACK
6
CONTINUOUS
10
0.2587902362204724
20
-0.0024792519685039
11
0.2668588976377952
21
-0.0172131496062992
0
LINE
8
BLACK
6
CONTINUOUS
10
0.2668588976377952
20
-0.0172131496062992
11
0.2762210236220473
21
-0.0311609842519685
0
LINE
8
BLACK
6
CONTINUOUS
10
0.2762210236220473
20
-0.0311609842519685
11
0.2868006299212598
21
-0.0442095275590551
0
LINE
8
BLACK
6
CONTINUOUS
10
0.2868006299212598
20
-0.0442095275590551
11
0.2985117716535433
21
-0.0562527559055118
0
LINE
8
BLACK
6
CONTINUOUS
10
0.2985117716535433
20
-0.0562527559055118
11
0.3112594488188976
21
-0.0671929921259842
0
LINE
8
BLACK
6
CONTINUOUS
10
0.3112594488188976
20
-0.0671929921259842
11
0.3180988582677166
21
-0.0720684645669291
0
LINE
8
BLACK
6
CONTINUOUS
10
0.3180988582677166
20
-0.0720684645669291
11
0.3180988582677166
21
-0.0720685039370079
0
LINE
8
BLACK
6
CONTINUOUS
10
0.3180988582677166
20
-0.0720685039370079
11
0.3182220472440945
21
-0.072234842519685
0
LINE
8
BLACK
6
CONTINUOUS
10
0.3182220472440945
20
-0.072234842519685
11
0.3182900393700787
21
-0.072234842519685
0
LINE
8
BLACK
6
CONTINUOUS
10
0.3182900393700787
20
-0.072234842519685
11
0.318822716535433
21
-0.0727675196850394
0
LINE
8
BLACK
6
CONTINUOUS
10
0.318822716535433
20
-0.0727675196850394
11
0.3188976377952756
21
-0.0731441732283465
0
LINE
8
BLACK
6
CONTINUOUS
10
0.3188976377952756
20
-0.0731441732283465
11
0.3188976377952756
21
-0.1654670078740157
0
LINE
8
BLACK
6
CONTINUOUS
10
0.3188976377952756
20
-0.1654670078740157
11
0.5334645669291338
21
-0.1654670078740157
0
LINE
8
BLACK
6
CONTINUOUS
10
0.5334645669291338
20
-0.1654670078740157
11
0.5334645669291338
21
-0.0731441732283465
0
LINE
8
BLACK
6
CONTINUOUS
10
0.5334645669291338
20
-0.0731441732283465
11
0.5335156692913385
21
-0.0728870866141732
0
LINE
8
BLACK
6
CONTINUOUS
10
0.5335156692913385
20
-0.0728870866141732
11
0.5335163779527559
21
-0.0728290551181102
0
LINE
8
BLACK
6
CONTINUOUS
10
0.5335163779527559
20
-0.0728290551181102
11
0.5335311811023622
21
-0.0728091338582677
0
LINE
8
BLACK
6
CONTINUOUS
10
0.5335311811023622
20
-0.0728091338582677
11
0.5335394881889763
21
-0.0727675196850394
0
LINE
8
BLACK
6
CONTINUOUS
10
0.5335394881889763
20
-0.0727675196850394
11
0.5336284251968504
21
-0.0726785433070866
0
LINE
8
BLACK
6
CONTINUOUS
10
0.5336284251968504
20
-0.0726785433070866
11
0.5338796850393701
21
-0.0723411811023622
0
LINE
8
BLACK
6
CONTINUOUS
10
0.5338796850393701
20
-0.0723411811023622
11
0.5338796456692914
21
-0.0723411417322835
0
LINE
8
BLACK
6
CONTINUOUS
10
0.5338796456692914
20
-0.0723411417322835
11
0.5407313779527559
21
-0.0674829527559055
0
LINE
8
BLACK
6
CONTINUOUS
10
0.5407313779527559
20
-0.0674829527559055
11
0.5535066535433071
21
-0.056575
0
LINE
8
BLACK
6
CONTINUOUS
10
0.5535066535433071
20
-0.056575
11
0.5652482283464567
21
-0.0445613779527559
0
LINE
8
BLACK
6
CONTINUOUS
10
0.5652482283464567
20
-0.0445613779527559
11
0.575860748031496
21
-0.0315396062992126
0
LINE
8
BLACK
6
CONTINUOUS
10
0.575860748031496
20
-0.0315396062992126
11
0.5852581102362204
21
-0.0176154724409449
0
LINE
8
BLACK
6
CONTINUOUS
10
0.5852581102362204
20
-0.0176154724409449
11
0.5933639763779528
21
-0.0029020078740157
0
LINE
8
BLACK
6
CONTINUOUS
10
0.5933639763779528
20
-0.0029020078740157
11
0.6001125196850393
21
0.0124813779527559
0
LINE
8
BLACK
6
CONTINUOUS
10
0.6001125196850393
20
0.0124813779527559
11
0.6054490157480314
21
0.0284097637795276
0
LINE
8
BLACK
6
CONTINUOUS
10
0.6054490157480314
20
0.0284097637795276
11
0.6093301181102362
21
0.0447538188976378
0
LINE
8
BLACK
6
CONTINUOUS
10
0.6093301181102362
20
0.0447538188976378
11
0.6117242913385826
21
0.061380905511811
0
LINE
8
BLACK
6
CONTINUOUS
10
0.6117242913385826
20
0.061380905511811
11
0.612612125984252
21
0.0781559842519685
0
LINE
8
BLACK
6
CONTINUOUS
10
0.612612125984252
20
0.0781559842519685
11
0.6119863779527559
21
0.094942874015748
0
LINE
8
BLACK
6
CONTINUOUS
10
0.6119863779527559
20
0.094942874015748
11
0.6098521653543307
21
0.1116053149606299
0
LINE
8
BLACK
6
CONTINUOUS
10
0.6098521653543307
20
0.1116053149606299
11
0.6062267716535433
21
0.128008031496063
0
LINE
8
BLACK
6
CONTINUOUS
10
0.6062267716535433
20
0.128008031496063
11
0.6011396850393701
21
0.1440177952755906
0
LINE
8
BLACK
6
CONTINUOUS
10
0.6011396850393701
20
0.1440177952755906
11
0.5946322047244095
21
0.1595046850393701
0
LINE
8
BLACK
6
CONTINUOUS
10
0.5946322047244095
20
0.1595046850393701
11
0.5867570866141733
21
0.1743429527559055
0
LINE
8
BLACK
6
CONTINUOUS
10
0.5867570866141733
20
0.1743429527559055
11
0.5775783464566929
21
0.1884121653543307
0
LINE
8
BLACK
6
CONTINUOUS
10
0.5775783464566929
20
0.1884121653543307
11
0.5671704724409449
21
0.201598031496063
0
LINE
8
BLACK
6
CONTINUOUS
10
0.5671704724409449
20
0.201598031496063
11
0.5556179527559055
21
0.2137935826771654
0
LINE
8
BLACK
6
CONTINUOUS
10
0.5556179527559055
20
0.2137935826771654
11
0.5430145669291339
21
0.2248997244094488
0
LINE
8
BLACK
6
CONTINUOUS
10
0.5430145669291339
20
0.2248997244094488
11
0.5294626771653543
21
0.2348263385826772
0
LINE
8
BLACK
6
CONTINUOUS
10
0.5294626771653543
20
0.2348263385826772
11
0.5150722834645669
21
0.243492874015748
0
LINE
8
BLACK
6
CONTINUOUS
10
0.5150722834645669
20
0.243492874015748
11
0.4999602362204724
21
0.2508288582677165
0
LINE
8
BLACK
6
CONTINUOUS
10
0.4999602362204724
20
0.2508288582677165
11
0.4842491732283464
21
0.256774842519685
0
LINE
8
BLACK
6
CONTINUOUS
10
0.4842491732283464
20
0.256774842519685
11
0.4680666929133858
21
0.2612824803149606
0
LINE
8
BLACK
6
CONTINUOUS
10
0.4680666929133858
20
0.2612824803149606
11
0.4515441732283464
21
0.2643152362204724
0
LINE
8
BLACK
6
CONTINUOUS
10
0.4515441732283464
20
0.2643152362204724
11
0.4348157086614173
21
0.2658484645669291
0
LINE
8
BLACK
6
CONTINUOUS
10
0.4348157086614173
20
0.2658484645669291
11
0.4180171653543307
21
0.2658696850393701
0
LINE
8
BLACK
6
CONTINUOUS
10
0.4180171653543307
20
0.2658696850393701
11
0.4012849212598425
21
0.2643787401574803
0
LINE
8
BLACK
6
CONTINUOUS
10
0.7592349212598425
20
0.0188227165354331
11
0.7597675984251968
21
0.0182900393700787
0
LINE
8
BLACK
6
CONTINUOUS
10
0.7597675984251968
20
0.0182900393700787
11
0.7598425196850394
21
0.0179133858267717
0
LINE
8
BLACK
6
CONTINUOUS
10
0.7598425196850394
20
0.0179133858267717
11
0.7598425196850394
21
-0.1143700787401575
0
LINE
8
BLACK
6
CONTINUOUS
10
0.7598425196850394
20
-0.1143700787401575
11
0.7597675984251968
21
-0.1147467322834646
0
LINE
8
BLACK
6
CONTINUOUS
10
0.7597675984251968
20
-0.1147467322834646
11
0.7592349212598425
21
-0.1152794094488189
0
LINE
8
BLACK
6
CONTINUOUS
10
0.7592349212598425
20
-0.1152794094488189
11
0.7588582677165354
21
-0.1153543307086614
0
LINE
8
BLACK
6
CONTINUOUS
10
0.7588582677165354
20
-0.1153543307086614
11
0.6840551181102362
21
-0.1153543307086614
0
LINE
8
BLACK
6
CONTINUOUS
10
0.6840551181102362
20
-0.1153543307086614
11
0.6836784645669292
21
-0.1152794094488189
0
LINE
8
BLACK
6
CONTINUOUS
10
0.6836784645669292
20
-0.1152794094488189
11
0.6831457874015748
21
-0.1147467322834646
0
LINE
8
BLACK
6
CONTINUOUS
10
0.6831457874015748
20
-0.1147467322834646
11
0.6830708661417323
21
-0.1143700787401575
0
LINE
8
BLACK
6
CONTINUOUS
10
0.6830708661417323
20
-0.1143700787401575
11
0.6830708661417323
21
0.0179133858267717
0
LINE
8
BLACK
6
CONTINUOUS
10
0.6830708661417323
20
0.0179133858267717
11
0.6831457874015748
21
0.0182900393700787
0
LINE
8
BLACK
6
CONTINUOUS
10
0.6831457874015748
20
0.0182900393700787
11
0.6836784645669292
21
0.0188227165354331
0
LINE
8
BLACK
6
CONTINUOUS
10
0.6836784645669292
20
0.0188227165354331
11
0.6840551181102362
21
0.0188976377952756
0
LINE
8
BLACK
6
CONTINUOUS
10
0.6840551181102362
20
0.0188976377952756
11
0.7588582677165354
21
0.0188976377952756
0
LINE
8
BLACK
6
CONTINUOUS
10
0.7588582677165354
20
0.0188976377952756
11
0.7592349212598425
21
0.0188227165354331
0
LINE
8
BLACK
6
CONTINUOUS
10
0.6850393700787402
20
0.0169291338582677
11
0.6850393700787402
21
-0.1133858267716535
0
LINE
8
BLACK
6
CONTINUOUS
10
0.6850393700787402
20
-0.1133858267716535
11
0.7578740157480315
21
-0.1133858267716535
0
LINE
8
BLACK
6
CONTINUOUS
10
0.7578740157480315
20
-0.1133858267716535
11
0.7578740157480315
21
0.0169291338582677
0
LINE
8
BLACK
6
CONTINUOUS
10
0.7578740157480315
20
0.0169291338582677
11
0.6850393700787402
21
0.0169291338582677
0
LINE
8
BLACK
6
CONTINUOUS
10
0.8478175984251969
20
0.0188227165354331
11
0.8483502755905512
21
0.0182900393700787
0
LINE
8
BLACK
6
CONTINUOUS
10
0.8483502755905512
20
0.0182900393700787
11
0.8484251968503936
21
0.0179133858267717
0
LINE
8
BLACK
6
CONTINUOUS
10
0.8484251968503936
20
0.0179133858267717
11
0.8484251968503936
21
-0.1143700787401575
0
LINE
8
BLACK
6
CONTINUOUS
10
0.8484251968503936
20
-0.1143700787401575
11
0.8483502755905512
21
-0.1147467322834646
0
LINE
8
BLACK
6
CONTINUOUS
10
0.8483502755905512
20
-0.1147467322834646
11
0.8478175984251969
21
-0.1152794094488189
0
LINE
8
BLACK
6
CONTINUOUS
10
0.8478175984251969
20
-0.1152794094488189
11
0.8474409448818897
21
-0.1153543307086614
0
LINE
8
BLACK
6
CONTINUOUS
10
0.8474409448818897
20
-0.1153543307086614
11
0.7726377952755905
21
-0.1153543307086614
0
LINE
8
BLACK
6
CONTINUOUS
10
0.7726377952755905
20
-0.1153543307086614
11
0.7722611417322834
21
-0.1152794094488189
0
LINE
8
BLACK
6
CONTINUOUS
10
0.7722611417322834
20
-0.1152794094488189
11
0.7717284645669291
21
-0.1147467322834646
0
LINE
8
BLACK
6
CONTINUOUS
10
0.7717284645669291
20
-0.1147467322834646
11
0.7716535433070866
21
-0.1143700787401575
0
LINE
8
BLACK
6
CONTINUOUS
10
0.7716535433070866
20
-0.1143700787401575
11
0.7716535433070866
21
0.0179133858267717
0
LINE
8
BLACK
6
CONTINUOUS
10
0.7716535433070866
20
0.0179133858267717
11
0.7717284645669291
21
0.0182900393700787
0
LINE
8
BLACK
6
CONTINUOUS
10
0.7717284645669291
20
0.0182900393700787
11
0.7722611417322834
21
0.0188227165354331
0
LINE
8
BLACK
6
CONTINUOUS
10
0.7722611417322834
20
0.0188227165354331
11
0.7726377952755905
21
0.0188976377952756
0
LINE
8
BLACK
6
CONTINUOUS
10
0.7726377952755905
20
0.0188976377952756
11
0.8474409448818897
21
0.0188976377952756
0
LINE
8
BLACK
6
CONTINUOUS
10
0.8474409448818897
20
0.0188976377952756
11
0.8478175984251969
21
0.0188227165354331
0
LINE
8
BLACK
6
CONTINUOUS
10
0.7736220472440944
20
0.0169291338582677
11
0.7736220472440944
21
-0.1133858267716535
0
LINE
8
BLACK
6
CONTINUOUS
10
0.7736220472440944
20
-0.1133858267716535
11
0.8464566929133858
21
-0.1133858267716535
0
LINE
8
BLACK
6
CONTINUOUS
10
0.8464566929133858
20
-0.1133858267716535
11
0.8464566929133858
21
0.0169291338582677
0
LINE
8
BLACK
6
CONTINUOUS
10
0.8464566929133858
20
0.0169291338582677
11
0.7736220472440944
21
0.0169291338582677
0
LINE
8
BLACK
6
CONTINUOUS
10
0.8576601181102362
20
0.3235471259842519
11
0.8581927952755906
21
0.3230144488188976
0
LINE
8
BLACK
6
CONTINUOUS
10
0.8581927952755906
20
0.3230144488188976
11
0.8582677165354331
21
0.3226377952755906
0
LINE
8
BLACK
6
CONTINUOUS
10
0.8582677165354331
20
0.3226377952755906
11
0.8582677165354331
21
0.1714566929133858
0
LINE
8
BLACK
6
CONTINUOUS
10
0.8582677165354331
20
0.1714566929133858
11
0.8581927952755906
21
0.1710800393700787
0
LINE
8
BLACK
6
CONTINUOUS
10
0.8581927952755906
20
0.1710800393700787
11
0.8576601181102362
21
0.1705473622047244
0
LINE
8
BLACK
6
CONTINUOUS
10
0.8576601181102362
20
0.1705473622047244
11
0.8572834645669292
21
0.1704724409448819
0
LINE
8
BLACK
6
CONTINUOUS
10
0.8572834645669292
20
0.1704724409448819
11
0.7234251968503936
21
0.1704724409448819
0
LINE
8
BLACK
6
CONTINUOUS
10
0.7234251968503936
20
0.1704724409448819
11
0.7230485433070866
21
0.1705473622047244
0
LINE
8
BLACK
6
CONTINUOUS
10
0.7230485433070866
20
0.1705473622047244
11
0.7225158661417322
21
0.1710800393700787
0
LINE
8
BLACK
6
CONTINUOUS
10
0.7225158661417322
20
0.1710800393700787
11
0.7224409448818897
21
0.1714566929133858
0
LINE
8
BLACK
6
CONTINUOUS
10
0.7224409448818897
20
0.1714566929133858
11
0.7224409448818897
21
0.3226377952755906
0
LINE
8
BLACK
6
CONTINUOUS
10
0.7224409448818897
20
0.3226377952755906
11
0.7225158661417322
21
0.3230144488188976
0
LINE
8
BLACK
6
CONTINUOUS
10
0.7225158661417322
20
0.3230144488188976
11
0.7230485433070866
21
0.3235471259842519
0
LINE
8
BLACK
6
CONTINUOUS
10
0.7230485433070866
20
0.3235471259842519
11
0.7234251968503936
21
0.3236220472440945
0
LINE
8
BLACK
6
CONTINUOUS
10
0.7234251968503936
20
0.3236220472440945
11
0.8572834645669292
21
0.3236220472440945
0
LINE
8
BLACK
6
CONTINUOUS
10
0.8572834645669292
20
0.3236220472440945
11
0.8576601181102362
21
0.3235471259842519
0
LINE
8
BLACK
6
CONTINUOUS
10
0.7244094488188976
20
0.3216535433070866
11
0.7244094488188976
21
0.1724409448818898
0
LINE
8
BLACK
6
CONTINUOUS
10
0.7244094488188976
20
0.1724409448818898
11
0.8562992125984252
21
0.1724409448818898
0
LINE
8
BLACK
6
CONTINUOUS
10
0.8562992125984252
20
0.1724409448818898
11
0.8562992125984252
21
0.3216535433070866
0
LINE
8
BLACK
6
CONTINUOUS
10
0.8562992125984252
20
0.3216535433070866
11
0.7244094488188976
21
0.3216535433070866
0
LINE
8
BLACK
6
CONTINUOUS
10
1.0284278346456692
20
0.3235471259842519
11
1.0289605118110237
21
0.3230144488188976
0
LINE
8
BLACK
6
CONTINUOUS
10
1.0289605118110237
20
0.3230144488188976
11
1.0290354330708662
21
0.3226377952755906
0
LINE
8
BLACK
6
CONTINUOUS
10
1.0290354330708662
20
0.3226377952755906
11
1.0290354330708662
21
0.1714566929133858
0
LINE
8
BLACK
6
CONTINUOUS
10
1.0290354330708662
20
0.1714566929133858
11
1.0289605118110237
21
0.1710800393700787
0
LINE
8
BLACK
6
CONTINUOUS
10
1.0289605118110237
20
0.1710800393700787
11
1.0284278346456692
21
0.1705473622047244
0
LINE
8
BLACK
6
CONTINUOUS
10
1.0284278346456692
20
0.1705473622047244
11
1.0280511811023623
21
0.1704724409448819
0
LINE
8
BLACK
6
CONTINUOUS
10
1.0280511811023623
20
0.1704724409448819
11
0.8941929133858267
21
0.1704724409448819
0
LINE
8
BLACK
6
CONTINUOUS
10
0.8941929133858267
20
0.1704724409448819
11
0.8938162598425197
21
0.1705473622047244
0
LINE
8
BLACK
6
CONTINUOUS
10
0.8938162598425197
20
0.1705473622047244
11
0.8932835826771653
21
0.1710800393700787
0
LINE
8
BLACK
6
CONTINUOUS
10
0.8932835826771653
20
0.1710800393700787
11
0.8932086614173228
21
0.1714566929133858
0
LINE
8
BLACK
6
CONTINUOUS
10
0.8932086614173228
20
0.1714566929133858
11
0.8932086614173228
21
0.3226377952755906
0
LINE
8
BLACK
6
CONTINUOUS
10
0.8932086614173228
20
0.3226377952755906
11
0.8932835826771653
21
0.3230144488188976
0
LINE
8
BLACK
6
CONTINUOUS
10
0.8932835826771653
20
0.3230144488188976
11
0.8938162598425197
21
0.3235471259842519
0
LINE
8
BLACK
6
CONTINUOUS
10
0.8938162598425197
20
0.3235471259842519
11
0.8941929133858267
21
0.3236220472440945
0
LINE
8
BLACK
6
CONTINUOUS
10
0.8941929133858267
20
0.3236220472440945
11
1.0280511811023623
21
0.3236220472440945
0
LINE
8
BLACK
6
CONTINUOUS
10
1.0280511811023623
20
0.3236220472440945
11
1.0284278346456692
21
0.3235471259842519
0
LINE
8
BLACK
6
CONTINUOUS
10
0.8951771653543307
20
0.3216535433070866
11
0.8951771653543307
21
0.1724409448818898
0
LINE
8
BLACK
6
CONTINUOUS
10
0.8951771653543307
20
0.1724409448818898
11
1.0270669291338583
21
0.1724409448818898
0
LINE
8
BLACK
6
CONTINUOUS
10
1.0270669291338583
20
0.1724409448818898
11
1.0270669291338583
21
0.3216535433070866
0
LINE
8
BLACK
6
CONTINUOUS
10
1.0270669291338583
20
0.3216535433070866
11
0.8951771653543307
21
0.3216535433070866
0
LINE
8
BLACK
6
CONTINUOUS
10
1.2021483070866141
20
0.3235471259842519
11
1.2026809842519686
21
0.3230144488188976
0
LINE
8
BLACK
6
CONTINUOUS
10
1.2026809842519686
20
0.3230144488188976
11
1.2027559055118109
21
0.3226377952755906
0
LINE
8
BLACK
6
CONTINUOUS
10
1.2027559055118109
20
0.3226377952755906
11
1.2027559055118109
21
0.1714566929133858
0
LINE
8
BLACK
6
CONTINUOUS
10
1.2027559055118109
20
0.1714566929133858
11
1.2026809842519686
21
0.1710800393700787
0
LINE
8
BLACK
6
CONTINUOUS
10
1.2026809842519686
20
0.1710800393700787
11
1.2021483070866141
21
0.1705473622047244
0
LINE
8
BLACK
6
CONTINUOUS
10
1.2021483070866141
20
0.1705473622047244
11
1.201771653543307
21
0.1704724409448819
0
LINE
8
BLACK
6
CONTINUOUS
10
1.201771653543307
20
0.1704724409448819
11
1.0679133858267715
21
0.1704724409448819
0
LINE
8
BLACK
6
CONTINUOUS
10
1.0679133858267715
20
0.1704724409448819
11
1.0675367322834646
21
0.1705473622047244
0
LINE
8
BLACK
6
CONTINUOUS
10
1.0675367322834646
20
0.1705473622047244
11
1.0670040551181101
21
0.1710800393700787
0
LINE
8
BLACK
6
CONTINUOUS
10
1.0670040551181101
20
0.1710800393700787
11
1.0669291338582676
21
0.1714566929133858
0
LINE
8
BLACK
6
CONTINUOUS
10
1.0669291338582676
20
0.1714566929133858
11
1.0669291338582676
21
0.3226377952755906
0
LINE
8
BLACK
6
CONTINUOUS
10
1.0669291338582676
20
0.3226377952755906
11
1.0670040551181101
21
0.3230144488188976
0
LINE
8
BLACK
6
CONTINUOUS
10
1.0670040551181101
20
0.3230144488188976
11
1.0675367322834646
21
0.3235471259842519
0
LINE
8
BLACK
6
CONTINUOUS
10
1.0675367322834646
20
0.3235471259842519
11
1.0679133858267715
21
0.3236220472440945
0
LINE
8
BLACK
6
CONTINUOUS
10
1.0679133858267715
20
0.3236220472440945
11
1.201771653543307
21
0.3236220472440945
0
LINE
8
BLACK
6
CONTINUOUS
10
1.201771653543307
20
0.3236220472440945
11
1.2021483070866141
21
0.3235471259842519
0
LINE
8
BLACK
6
CONTINUOUS
10
1.0688976377952755
20
0.3216535433070866
11
1.0688976377952755
21
0.1724409448818898
0
LINE
8
BLACK
6
CONTINUOUS
10
1.0688976377952755
20
0.1724409448818898
11
1.200787401574803
21
0.1724409448818898
0
LINE
8
BLACK
6
CONTINUOUS
10
1.200787401574803
20
0.1724409448818898
11
1.200787401574803
21
0.3216535433070866
0
LINE
8
BLACK
6
CONTINUOUS
10
1.200787401574803
20
0.3216535433070866
11
1.0688976377952755
21
0.3216535433070866
0
LINE
8
BLACK
6
CONTINUOUS
10
0.9826601181102362
20
0.5429368897637795
11
0.9831927952755906
21
0.5424042125984252
0
LINE
8
BLACK
6
CONTINUOUS
10
0.9831927952755906
20
0.5424042125984252
11
0.9832677165354331
21
0.5420275590551181
0
LINE
8
BLACK
6
CONTINUOUS
10
0.9832677165354331
20
0.5420275590551181
11
0.9832677165354331
21
0.409744094488189
0
LINE
8
BLACK
6
CONTINUOUS
10
0.9832677165354331
20
0.409744094488189
11
0.9831927952755906
21
0.4093674409448819
0
LINE
8
BLACK
6
CONTINUOUS
10
0.9831927952755906
20
0.4093674409448819
11
0.9826601181102362
21
0.4088347637795275
0
LINE
8
BLACK
6
CONTINUOUS
10
0.9826601181102362
20
0.4088347637795275
11
0.9822834645669292
21
0.4087598425196851
0
LINE
8
BLACK
6
CONTINUOUS
10
0.9822834645669292
20
0.4087598425196851
11
0.9074803149606299
21
0.4087598425196851
0
LINE
8
BLACK
6
CONTINUOUS
10
0.9074803149606299
20
0.4087598425196851
11
0.9071036614173228
21
0.4088347637795275
0
LINE
8
BLACK
6
CONTINUOUS
10
0.9071036614173228
20
0.4088347637795275
11
0.9065709842519685
21
0.4093674409448819
0
LINE
8
BLACK
6
CONTINUOUS
10
0.9065709842519685
20
0.4093674409448819
11
0.9064960629921259
21
0.409744094488189
0
LINE
8
BLACK
6
CONTINUOUS
10
0.9064960629921259
20
0.409744094488189
11
0.9064960629921259
21
0.5420275590551181
0
LINE
8
BLACK
6
CONTINUOUS
10
0.9064960629921259
20
0.5420275590551181
11
0.9065709842519685
21
0.5424042125984252
0
LINE
8
BLACK
6
CONTINUOUS
10
0.9065709842519685
20
0.5424042125984252
11
0.9071036614173228
21
0.5429368897637795
0
LINE
8
BLACK
6
CONTINUOUS
10
0.9071036614173228
20
0.5429368897637795
11
0.9074803149606299
21
0.5430118110236221
0
LINE
8
BLACK
6
CONTINUOUS
10
0.9074803149606299
20
0.5430118110236221
11
0.9822834645669292
21
0.5430118110236221
0
LINE
8
BLACK
6
CONTINUOUS
10
0.9822834645669292
20
0.5430118110236221
11
0.9826601181102362
21
0.5429368897637795
0
LINE
8
BLACK
6
CONTINUOUS
10
0.9084645669291338
20
0.5410433070866142
11
0.9084645669291338
21
0.4107283464566929
0
LINE
8
BLACK
6
CONTINUOUS
10
0.9084645669291338
20
0.4107283464566929
11
0.9812992125984251
21
0.4107283464566929
0
LINE
8
BLACK
6
CONTINUOUS
10
0.9812992125984251
20
0.4107283464566929
11
0.9812992125984251
21
0.5410433070866142
0
LINE
8
BLACK
6
CONTINUOUS
10
0.9812992125984251
20
0.5410433070866142
11
0.9084645669291338
21
0.5410433070866142
0
LINE
8
BLACK
6
CONTINUOUS
10
1.1165183858267715
20
0.5434290157480315
11
1.117051062992126
21
0.5428963385826772
0
LINE
8
BLACK
6
CONTINUOUS
10
1.117051062992126
20
0.5428963385826772
11
1.1171259842519685
21
0.5425196850393701
0
LINE
8
BLACK
6
CONTINUOUS
10
1.1171259842519685
20
0.5425196850393701
11
1.1171259842519685
21
0.410236220472441
0
LINE
8
BLACK
6
CONTINUOUS
10
1.1171259842519685
20
0.410236220472441
11
1.117051062992126
21
0.4098595669291338
0
LINE
8
BLACK
6
CONTINUOUS
10
1.117051062992126
20
0.4098595669291338
11
1.1165183858267715
21
0.4093268897637795
0
LINE
8
BLACK
6
CONTINUOUS
10
1.1165183858267715
20
0.4093268897637795
11
1.1161417322834646
21
0.409251968503937
0
LINE
8
BLACK
6
CONTINUOUS
10
1.1161417322834646
20
0.409251968503937
11
1.0413385826771653
21
0.409251968503937
0
LINE
8
BLACK
6
CONTINUOUS
10
1.0413385826771653
20
0.409251968503937
11
1.0409619291338583
21
0.4093268897637795
0
LINE
8
BLACK
6
CONTINUOUS
10
1.0409619291338583
20
0.4093268897637795
11
1.0404292519685039
21
0.4098595669291338
0
LINE
8
BLACK
6
CONTINUOUS
10
1.0404292519685039
20
0.4098595669291338
11
1.0403543307086613
21
0.410236220472441
0
LINE
8
BLACK
6
CONTINUOUS
10
1.0403543307086613
20
0.410236220472441
11
1.0403543307086613
21
0.5425196850393701
0
LINE
8
BLACK
6
CONTINUOUS
10
1.0403543307086613
20
0.5425196850393701
11
1.0404292519685039
21
0.5428963385826772
0
LINE
8
BLACK
6
CONTINUOUS
10
1.0404292519685039
20
0.5428963385826772
11
1.0409619291338583
21
0.5434290157480315
0
LINE
8
BLACK
6
CONTINUOUS
10
1.0409619291338583
20
0.5434290157480315
11
1.0413385826771653
21
0.543503937007874
0
LINE
8
BLACK
6
CONTINUOUS
10
1.0413385826771653
20
0.543503937007874
11
1.1161417322834646
21
0.543503937007874
0
LINE
8
BLACK
6
CONTINUOUS
10
1.1161417322834646
20
0.543503937007874
11
1.1165183858267715
21
0.5434290157480315
0
LINE
8
BLACK
6
CONTINUOUS
10
1.0423228346456692
20
0.5415354330708662
11
1.0423228346456692
21
0.4112204724409449
0
LINE
8
BLACK
6
CONTINUOUS
10
1.0423228346456692
20
0.4112204724409449
11
1.1151574803149606
21
0.4112204724409449
0
LINE
8
BLACK
6
CONTINUOUS
10
1.1151574803149606
20
0.4112204724409449
11
1.1151574803149606
21
0.5415354330708662
0
LINE
8
BLACK
6
CONTINUOUS
10
1.1151574803149606
20
0.5415354330708662
11
1.0423228346456692
21
0.5415354330708662
0
LINE
8
BLACK
6
CONTINUOUS
10
0.8534278346456693
20
0.492051062992126
11
0.8539605118110236
21
0.4915183858267717
0
LINE
8
BLACK
6
CONTINUOUS
10
0.8539605118110236
20
0.4915183858267717
11
0.8540354330708662
21
0.4911417322834646
0
LINE
8
BLACK
6
CONTINUOUS
10
0.8540354330708662
20
0.4911417322834646
11
0.8540354330708662
21
0.4163385826771653
0
LINE
8
BLACK
6
CONTINUOUS
10
0.8540354330708662
20
0.4163385826771653
11
0.8539605118110236
21
0.4159619291338583
0
LINE
8
BLACK
6
CONTINUOUS
10
0.8539605118110236
20
0.4159619291338583
11
0.8534278346456693
21
0.4154292519685039
0
LINE
8
BLACK
6
CONTINUOUS
10
0.8534278346456693
20
0.4154292519685039
11
0.8530511811023622
21
0.4153543307086614
0
LINE
8
BLACK
6
CONTINUOUS
10
0.8530511811023622
20
0.4153543307086614
11
0.720767716535433
21
0.4153543307086614
0
LINE
8
BLACK
6
CONTINUOUS
10
0.720767716535433
20
0.4153543307086614
11
0.720391062992126
21
0.4154292519685039
0
LINE
8
BLACK
6
CONTINUOUS
10
0.720391062992126
20
0.4154292519685039
11
0.7198583858267716
21
0.4159619291338583
0
LINE
8
BLACK
6
CONTINUOUS
10
0.7198583858267716
20
0.4159619291338583
11
0.7197834645669291
21
0.4163385826771653
0
LINE
8
BLACK
6
CONTINUOUS
10
0.7197834645669291
20
0.4163385826771653
11
0.7197834645669291
21
0.4911417322834646
0
LINE
8
BLACK
6
CONTINUOUS
10
0.7197834645669291
20
0.4911417322834646
11
0.7198583858267716
21
0.4915183858267717
0
LINE
8
BLACK
6
CONTINUOUS
10
0.7198583858267716
20
0.4915183858267717
11
0.720391062992126
21
0.492051062992126
0
LINE
8
BLACK
6
CONTINUOUS
10
0.720391062992126
20
0.492051062992126
11
0.720767716535433
21
0.4921259842519685
0
LINE
8
BLACK
6
CONTINUOUS
10
0.720767716535433
20
0.4921259842519685
11
0.8530511811023622
21
0.4921259842519685
0
LINE
8
BLACK
6
CONTINUOUS
10
0.8530511811023622
20
0.4921259842519685
11
0.8534278346456693
21
0.492051062992126
0
LINE
8
BLACK
6
CONTINUOUS
10
0.721751968503937
20
0.4901574803149606
11
0.721751968503937
21
0.4173228346456693
0
LINE
8
BLACK
6
CONTINUOUS
10
0.721751968503937
20
0.4173228346456693
11
0.8520669291338583
21
0.4173228346456693
0
LINE
8
BLACK
6
CONTINUOUS
10
0.8520669291338583
20
0.4173228346456693
11
0.8520669291338583
21
0.4901574803149606
0
LINE
8
BLACK
6
CONTINUOUS
10
0.8520669291338583
20
0.4901574803149606
11
0.721751968503937
21
0.4901574803149606
0
LINE
8
BLACK
6
CONTINUOUS
10
0.8891561811023622
20
0.6810274409448819
11
0.8896888582677165
21
0.6804947637795276
0
LINE
8
BLACK
6
CONTINUOUS
10
0.8896888582677165
20
0.6804947637795276
11
0.889763779527559
21
0.6801181102362205
0
LINE
8
BLACK
6
CONTINUOUS
10
0.889763779527559
20
0.6801181102362205
11
0.889763779527559
21
0.5423228346456693
0
LINE
8
BLACK
6
CONTINUOUS
10
0.889763779527559
20
0.5423228346456693
11
0.8896888582677165
21
0.5419461811023621
0
LINE
8
BLACK
6
CONTINUOUS
10
0.8896888582677165
20
0.5419461811023621
11
0.8891561811023622
21
0.5414135039370078
0
LINE
8
BLACK
6
CONTINUOUS
10
0.8891561811023622
20
0.5414135039370078
11
0.8887795275590551
21
0.5413385826771654
0
LINE
8
BLACK
6
CONTINUOUS
10
0.8887795275590551
20
0.5413385826771654
11
0.6131889763779528
21
0.5413385826771654
0
LINE
8
BLACK
6
CONTINUOUS
10
0.6131889763779528
20
0.5413385826771654
11
0.6128123228346457
21
0.5414135039370078
0
LINE
8
BLACK
6
CONTINUOUS
10
0.6128123228346457
20
0.5414135039370078
11
0.6122796456692913
21
0.5419461811023621
0
LINE
8
BLACK
6
CONTINUOUS
10
0.6122796456692913
20
0.5419461811023621
11
0.6122047244094488
21
0.5423228346456693
0
LINE
8
BLACK
6
CONTINUOUS
10
0.6122047244094488
20
0.5423228346456693
11
0.6122047244094488
21
0.6801181102362205
0
LINE
8
BLACK
6
CONTINUOUS
10
0.6122047244094488
20
0.6801181102362205
11
0.6122796456692913
21
0.6804947637795276
0
LINE
8
BLACK
6
CONTINUOUS
10
0.6122796456692913
20
0.6804947637795276
11
0.6128123228346457
21
0.6810274409448819
0
LINE
8
BLACK
6
CONTINUOUS
10
0.6128123228346457
20
0.6810274409448819
11
0.6131889763779528
21
0.6811023622047244
0
LINE
8
BLACK
6
CONTINUOUS
10
0.6131889763779528
20
0.6811023622047244
11
0.8887795275590551
21
0.6811023622047244
0
LINE
8
BLACK
6
CONTINUOUS
10
0.8887795275590551
20
0.6811023622047244
11
0.8891561811023622
21
0.6810274409448819
0
LINE
8
BLACK
6
CONTINUOUS
10
0.6141732283464567
20
0.6791338582677166
11
0.6141732283464567
21
0.5433070866141733
0
LINE
8
BLACK
6
CONTINUOUS
10
0.6141732283464567
20
0.5433070866141733
11
0.8877952755905512
21
0.5433070866141733
0
LINE
8
BLACK
6
CONTINUOUS
10
0.8877952755905512
20
0.5433070866141733
11
0.8877952755905512
21
0.6791338582677166
0
LINE
8
BLACK
6
CONTINUOUS
10
0.8877952755905512
20
0.6791338582677166
11
0.6141732283464567
21
0.6791338582677166
0
LINE
8
BLACK
6
CONTINUOUS
10
0.810612874015748
20
0.7627203543307086
11
0.8111455511811023
21
0.7621876771653543
0
LINE
8
BLACK
6
CONTINUOUS
10
0.8111455511811023
20
0.7621876771653543
11
0.8112204724409449
21
0.7618110236220472
0
LINE
8
BLACK
6
CONTINUOUS
10
0.8112204724409449
20
0.7618110236220472
11
0.8112204724409449
21
0.687007874015748
0
LINE
8
BLACK
6
CONTINUOUS
10
0.8112204724409449
20
0.687007874015748
11
0.8111455511811023
21
0.686631220472441
0
LINE
8
BLACK
6
CONTINUOUS
10
0.8111455511811023
20
0.686631220472441
11
0.810612874015748
21
0.6860985433070866
0
LINE
8
BLACK
6
CONTINUOUS
10
0.810612874015748
20
0.6860985433070866
11
0.8102362204724409
21
0.6860236220472441
0
LINE
8
BLACK
6
CONTINUOUS
10
0.8102362204724409
20
0.6860236220472441
11
0.6779527559055119
21
0.6860236220472441
0
LINE
8
BLACK
6
CONTINUOUS
10
0.6779527559055119
20
0.6860236220472441
11
0.6775761023622047
21
0.6860985433070866
0
LINE
8
BLACK
6
CONTINUOUS
10
0.6775761023622047
20
0.6860985433070866
11
0.6770434251968503
21
0.686631220472441
0
LINE
8
BLACK
6
CONTINUOUS
10
0.6770434251968503
20
0.686631220472441
11
0.6769685039370078
21
0.687007874015748
0
LINE
8
BLACK
6
CONTINUOUS
10
0.6769685039370078
20
0.687007874015748
11
0.6769685039370078
21
0.7618110236220472
0
LINE
8
BLACK
6
CONTINUOUS
10
0.6769685039370078
20
0.7618110236220472
11
0.6770434251968503
21
0.7621876771653543
0
LINE
8
BLACK
6
CONTINUOUS
10
0.6770434251968503
20
0.7621876771653543
11
0.6775761023622047
21
0.7627203543307086
0
LINE
8
BLACK
6
CONTINUOUS
10
0.6775761023622047
20
0.7627203543307086
11
0.6779527559055119
21
0.7627952755905512
0
LINE
8
BLACK
6
CONTINUOUS
10
0.6779527559055119
20
0.7627952755905512
11
0.8102362204724409
21
0.7627952755905512
0
LINE
8
BLACK
6
CONTINUOUS
10
0.8102362204724409
20
0.7627952755905512
11
0.810612874015748
21
0.7627203543307086
0
LINE
8
BLACK
6
CONTINUOUS
10
0.6789370078740158
20
0.7608267716535433
11
0.6789370078740158
21
0.687992125984252
0
LINE
8
BLACK
6
CONTINUOUS
10
0.6789370078740158
20
0.687992125984252
11
0.809251968503937
21
0.687992125984252
0
LINE
8
BLACK
6
CONTINUOUS
10
0.809251968503937
20
0.687992125984252
11
0.809251968503937
21
0.7608267716535433
0
LINE
8
BLACK
6
CONTINUOUS
10
0.809251968503937
20
0.7608267716535433
11
0.6789370078740158
21
0.7608267716535433
0
LINE
8
BLACK
6
CONTINUOUS
10
0.5554947637795276
20
1.2587833464566929
11
0.5560274409448819
21
1.2582506692913387
0
LINE
8
BLACK
6
CONTINUOUS
10
0.5560274409448819
20
1.2582506692913387
11
0.5561023622047244
21
1.2578740157480315
0
LINE
8
BLACK
6
CONTINUOUS
10
0.5561023622047244
20
1.2578740157480315
11
0.5561023622047244
21
1.0019685039370079
0
LINE
8
BLACK
6
CONTINUOUS
10
0.5561023622047244
20
1.0019685039370079
11
0.5560274409448819
21
1.0015918503937007
0
LINE
8
BLACK
6
CONTINUOUS
10
0.5560274409448819
20
1.0015918503937007
11
0.5554947637795276
21
1.0010591732283465
0
LINE
8
BLACK
6
CONTINUOUS
10
0.5554947637795276
20
1.0010591732283465
11
0.5551181102362205
21
1.0009842519685039
0
LINE
8
BLACK
6
CONTINUOUS
10
0.5551181102362205
20
1.0009842519685039
11
0.2795275590551181
21
1.0009842519685039
0
LINE
8
BLACK
6
CONTINUOUS
10
0.2795275590551181
20
1.0009842519685039
11
0.279150905511811
21
1.0010591732283465
0
LINE
8
BLACK
6
CONTINUOUS
10
0.279150905511811
20
1.0010591732283465
11
0.2786182283464567
21
1.0015918503937007
0
LINE
8
BLACK
6
CONTINUOUS
10
0.2786182283464567
20
1.0015918503937007
11
0.2785433070866142
21
1.0019685039370079
0
LINE
8
BLACK
6
CONTINUOUS
10
0.2785433070866142
20
1.0019685039370079
11
0.2785433070866142
21
1.2578740157480315
0
LINE
8
BLACK
6
CONTINUOUS
10
0.2785433070866142
20
1.2578740157480315
11
0.2786182283464567
21
1.2582506692913387
0
LINE
8
BLACK
6
CONTINUOUS
10
0.2786182283464567
20
1.2582506692913387
11
0.279150905511811
21
1.2587833464566929
0
LINE
8
BLACK
6
CONTINUOUS
10
0.279150905511811
20
1.2587833464566929
11
0.2795275590551181
21
1.2588582677165354
0
LINE
8
BLACK
6
CONTINUOUS
10
0.2795275590551181
20
1.2588582677165354
11
0.5551181102362205
21
1.2588582677165354
0
LINE
8
BLACK
6
CONTINUOUS
10
0.5551181102362205
20
1.2588582677165354
11
0.5554947637795276
21
1.2587833464566929
0
LINE
8
BLACK
6
CONTINUOUS
10
0.280511811023622
20
1.2568897637795275
11
0.280511811023622
21
1.0029527559055118
0
LINE
8
BLACK
6
CONTINUOUS
10
0.280511811023622
20
1.0029527559055118
11
0.5541338582677166
21
1.0029527559055118
0
LINE
8
BLACK
6
CONTINUOUS
10
0.5541338582677166
20
1.0029527559055118
11
0.5541338582677166
21
1.2568897637795275
0
LINE
8
BLACK
6
CONTINUOUS
10
0.5541338582677166
20
1.2568897637795275
11
0.280511811023622
21
1.2568897637795275
0
LINE
8
BLACK
6
CONTINUOUS
10
0.1873845275590551
20
1.335555
11
0.1879172047244095
21
1.3350223228346456
0
LINE
8
BLACK
6
CONTINUOUS
10
0.1879172047244095
20
1.3350223228346456
11
0.187992125984252
21
1.3346456692913387
0
LINE
8
BLACK
6
CONTINUOUS
10
0.187992125984252
20
1.3346456692913387
11
0.187992125984252
21
1.0590551181102361
0
LINE
8
BLACK
6
CONTINUOUS
10
0.187992125984252
20
1.0590551181102361
11
0.1879172047244095
21
1.0586784645669292
0
LINE
8
BLACK
6
CONTINUOUS
10
0.1879172047244095
20
1.0586784645669292
11
0.1873845275590551
21
1.0581457874015747
0
LINE
8
BLACK
6
CONTINUOUS
10
0.1873845275590551
20
1.0581457874015747
11
0.187007874015748
21
1.0580708661417322
0
LINE
8
BLACK
6
CONTINUOUS
10
0.187007874015748
20
1.0580708661417322
11
0.0492125984251968
21
1.0580708661417322
0
LINE
8
BLACK
6
CONTINUOUS
10
0.0492125984251968
20
1.0580708661417322
11
0.0488359448818898
21
1.0581457874015747
0
LINE
8
BLACK
6
CONTINUOUS
10
0.0488359448818898
20
1.0581457874015747
11
0.0483032677165354
21
1.0586784645669292
0
LINE
8
BLACK
6
CONTINUOUS
10
0.0483032677165354
20
1.0586784645669292
11
0.0482283464566929
21
1.0590551181102361
0
LINE
8
BLACK
6
CONTINUOUS
10
0.0482283464566929
20
1.0590551181102361
11
0.0482283464566929
21
1.3346456692913387
0
LINE
8
BLACK
6
CONTINUOUS
10
0.0482283464566929
20
1.3346456692913387
11
0.0483032677165354
21
1.3350223228346456
0
LINE
8
BLACK
6
CONTINUOUS
10
0.0483032677165354
20
1.3350223228346456
11
0.0488359448818898
21
1.335555
0
LINE
8
BLACK
6
CONTINUOUS
10
0.0488359448818898
20
1.335555
11
0.0492125984251968
21
1.3356299212598426
0
LINE
8
BLACK
6
CONTINUOUS
10
0.0492125984251968
20
1.3356299212598426
11
0.187007874015748
21
1.3356299212598426
0
LINE
8
BLACK
6
CONTINUOUS
10
0.187007874015748
20
1.3356299212598426
11
0.1873845275590551
21
1.335555
0
LINE
8
BLACK
6
CONTINUOUS
10
0.0501968503937008
20
1.3336614173228347
11
0.0501968503937008
21
1.0600393700787401
0
LINE
8
BLACK
6
CONTINUOUS
10
0.0501968503937008
20
1.0600393700787401
11
0.1860236220472441
21
1.0600393700787401
0
LINE
8
BLACK
6
CONTINUOUS
10
0.1860236220472441
20
1.0600393700787401
11
0.1860236220472441
21
1.3336614173228347
0
LINE
8
BLACK
6
CONTINUOUS
10
0.1860236220472441
20
1.3336614173228347
11
0.0501968503937008
21
1.3336614173228347
0
LINE
8
BLACK
6
CONTINUOUS
10
0.6491955511811024
20
1.258291220472441
11
0.6497282283464567
21
1.2577585433070866
0
LINE
8
BLACK
6
CONTINUOUS
10
0.6497282283464567
20
1.2577585433070866
11
0.6498031496062991
21
1.2573818897637794
0
LINE
8
BLACK
6
CONTINUOUS
10
0.6498031496062991
20
1.2573818897637794
11
0.6498031496062991
21
1.123523622047244
0
LINE
8
BLACK
6
CONTINUOUS
10
0.6498031496062991
20
1.123523622047244
11
0.6497282283464567
21
1.123146968503937
0
LINE
8
BLACK
6
CONTINUOUS
10
0.6497282283464567
20
1.123146968503937
11
0.6491955511811024
21
1.1226142913385826
0
LINE
8
BLACK
6
CONTINUOUS
10
0.6491955511811024
20
1.1226142913385826
11
0.6488188976377952
21
1.1225393700787401
0
LINE
8
BLACK
6
CONTINUOUS
10
0.6488188976377952
20
1.1225393700787401
11
0.5716535433070866
21
1.1225393700787401
0
LINE
8
BLACK
6
CONTINUOUS
10
0.5716535433070866
20
1.1225393700787401
11
0.5712768897637795
21
1.1226142913385826
0
LINE
8
BLACK
6
CONTINUOUS
10
0.5712768897637795
20
1.1226142913385826
11
0.5707442125984252
21
1.123146968503937
0
LINE
8
BLACK
6
CONTINUOUS
10
0.5707442125984252
20
1.123146968503937
11
0.5706692913385827
21
1.123523622047244
0
LINE
8
BLACK
6
CONTINUOUS
10
0.5706692913385827
20
1.123523622047244
11
0.5706692913385827
21
1.2573818897637794
0
LINE
8
BLACK
6
CONTINUOUS
10
0.5706692913385827
20
1.2573818897637794
11
0.5707442125984252
21
1.2577585433070866
0
LINE
8
BLACK
6
CONTINUOUS
10
0.5707442125984252
20
1.2577585433070866
11
0.5712768897637795
21
1.258291220472441
0
LINE
8
BLACK
6
CONTINUOUS
10
0.5712768897637795
20
1.258291220472441
11
0.5716535433070866
21
1.2583661417322833
0
LINE
8
BLACK
6
CONTINUOUS
10
0.5716535433070866
20
1.2583661417322833
11
0.6488188976377952
21
1.2583661417322833
0
LINE
8
BLACK
6
CONTINUOUS
10
0.6488188976377952
20
1.2583661417322833
11
0.6491955511811024
21
1.258291220472441
0
LINE
8
BLACK
6
CONTINUOUS
10
0.5726377952755906
20
1.2563976377952755
11
0.5726377952755906
21
1.1245078740157479
0
LINE
8
BLACK
6
CONTINUOUS
10
0.5726377952755906
20
1.1245078740157479
11
0.6478346456692913
21
1.1245078740157479
0
LINE
8
BLACK
6
CONTINUOUS
10
0.6478346456692913
20
1.1245078740157479
11
0.6478346456692913
21
1.2563976377952755
0
LINE
8
BLACK
6
CONTINUOUS
10
0.6478346456692913
20
1.2563976377952755
11
0.5726377952755906
21
1.2563976377952755
0
LINE
8
BLACK
6
CONTINUOUS
10
0.0389593307086614
20
1.3370313779527558
11
0.0394920078740157
21
1.3364987007874016
0
LINE
8
BLACK
6
CONTINUOUS
10
0.0394920078740157
20
1.3364987007874016
11
0.0395669291338583
21
1.3361220472440944
0
LINE
8
BLACK
6
CONTINUOUS
10
0.0395669291338583
20
1.3361220472440944
11
0.0395669291338583
21
1.202263779527559
0
LINE
8
BLACK
6
CONTINUOUS
10
0.0395669291338583
20
1.202263779527559
11
0.0394920078740157
21
1.2018871259842518
0
LINE
8
BLACK
6
CONTINUOUS
10
0.0394920078740157
20
1.2018871259842518
11
0.0389593307086614
21
1.2013544488188976
0
LINE
8
BLACK
6
CONTINUOUS
10
0.0389593307086614
20
1.2013544488188976
11
0.0385826771653543
21
1.2012795275590551
0
LINE
8
BLACK
6
CONTINUOUS
10
0.0385826771653543
20
1.2012795275590551
11
-0.0385826771653543
21
1.2012795275590551
0
LINE
8
BLACK
6
CONTINUOUS
10
-0.0385826771653543
20
1.2012795275590551
11
-0.0389593307086614
21
1.2013544488188976
0
LINE
8
BLACK
6
CONTINUOUS
10
-0.0389593307086614
20
1.2013544488188976
11
-0.0394920078740157
21
1.2018871259842518
0
LINE
8
BLACK
6
CONTINUOUS
10
-0.0394920078740157
20
1.2018871259842518
11
-0.0395669291338583
21
1.202263779527559
0
LINE
8
BLACK
6
CONTINUOUS
10
-0.0395669291338583
20
1.202263779527559
11
-0.0395669291338583
21
1.3361220472440944
0
LINE
8
BLACK
6
CONTINUOUS
10
-0.0395669291338583
20
1.3361220472440944
11
-0.0394920078740157
21
1.3364987007874016
0
LINE
8
BLACK
6
CONTINUOUS
10
-0.0394920078740157
20
1.3364987007874016
11
-0.0389593307086614
21
1.3370313779527558
0
LINE
8
BLACK
6
CONTINUOUS
10
-0.0389593307086614
20
1.3370313779527558
11
-0.0385826771653543
21
1.3371062992125984
0
LINE
8
BLACK
6
CONTINUOUS
10
-0.0385826771653543
20
1.3371062992125984
11
0.0385826771653543
21
1.3371062992125984
0
LINE
8
BLACK
6
CONTINUOUS
10
0.0385826771653543
20
1.3371062992125984
11
0.0389593307086614
21
1.3370313779527558
0
LINE
8
BLACK
6
CONTINUOUS
10
-0.0375984251968504
20
1.3351377952755905
11
-0.0375984251968504
21
1.203248031496063
0
LINE
8
BLACK
6
CONTINUOUS
10
-0.0375984251968504
20
1.203248031496063
11
0.0375984251968504
21
1.203248031496063
0
LINE
8
BLACK
6
CONTINUOUS
10
0.0375984251968504
20
1.203248031496063
11
0.0375984251968504
21
1.3351377952755905
0
LINE
8
BLACK
6
CONTINUOUS
10
0.0375984251968504
20
1.3351377952755905
11
-0.0375984251968504
21
1.3351377952755905
0
LINE
8
BLACK
6
CONTINUOUS
10
0.2661246850393701
20
1.5143935826771653
11
0.2666573622047244
21
1.5138609055118111
0
LINE
8
BLACK
6
CONTINUOUS
10
0.2666573622047244
20
1.5138609055118111
11
0.2667322834645669
21
1.5134842519685039
0
LINE
8
BLACK
6
CONTINUOUS
10
0.2667322834645669
20
1.5134842519685039
11
0.2667322834645669
21
1.3812007874015748
0
LINE
8
BLACK
6
CONTINUOUS
10
0.2667322834645669
20
1.3812007874015748
11
0.2667224803149606
21
1.3811515748031495
0
LINE
8
BLACK
6
CONTINUOUS
10
0.2667224803149606
20
1.3811515748031495
11
0.2667322834645669
21
1.3811023622047245
0
LINE
8
BLACK
6
CONTINUOUS
10
0.2667322834645669
20
1.3811023622047245
11
0.2667322834645669
21
1.2488188976377952
0
LINE
8
BLACK
6
CONTINUOUS
10
0.2667322834645669
20
1.2488188976377952
11
0.2666573622047244
21
1.2484422440944882
0
LINE
8
BLACK
6
CONTINUOUS
10
0.2666573622047244
20
1.2484422440944882
11
0.2661246850393701
21
1.2479095669291338
0
LINE
8
BLACK
6
CONTINUOUS
10
0.2661246850393701
20
1.2479095669291338
11
0.265748031496063
21
1.2478346456692913
0
LINE
8
BLACK
6
CONTINUOUS
10
0.265748031496063
20
1.2478346456692913
11
0.1909448818897638
21
1.2478346456692913
0
LINE
8
BLACK
6
CONTINUOUS
10
0.1909448818897638
20
1.2478346456692913
11
0.1905682283464567
21
1.2479095669291338
0
LINE
8
BLACK
6
CONTINUOUS
10
0.1905682283464567
20
1.2479095669291338
11
0.1900355511811024
21
1.2484422440944882
0
LINE
8
BLACK
6
CONTINUOUS
10
0.1900355511811024
20
1.2484422440944882
11
0.1899606299212598
21
1.2488188976377952
0
LINE
8
BLACK
6
CONTINUOUS
10
0.1899606299212598
20
1.2488188976377952
11
0.1899606299212598
21
1.3811023622047245
0
LINE
8
BLACK
6
CONTINUOUS
10
0.1899606299212598
20
1.3811023622047245
11
0.1899703937007874
21
1.3811515748031495
0
LINE
8
BLACK
6
CONTINUOUS
10
0.1899703937007874
20
1.3811515748031495
11
0.1899606299212598
21
1.3812007874015748
0
LINE
8
BLACK
6
CONTINUOUS
10
0.1899606299212598
20
1.3812007874015748
11
0.1899606299212598
21
1.5134842519685039
0
LINE
8
BLACK
6
CONTINUOUS
10
0.1899606299212598
20
1.5134842519685039
11
0.1900355511811024
21
1.5138609055118111
0
LINE
8
BLACK
6
CONTINUOUS
10
0.1900355511811024
20
1.5138609055118111
11
0.1905682283464567
21
1.5143935826771653
0
LINE
8
BLACK
6
CONTINUOUS
10
0.1905682283464567
20
1.5143935826771653
11
0.1909448818897638
21
1.5144685039370078
0
LINE
8
BLACK
6
CONTINUOUS
10
0.1909448818897638
20
1.5144685039370078
11
0.265748031496063
21
1.5144685039370078
0
LINE
8
BLACK
6
CONTINUOUS
10
0.265748031496063
20
1.5144685039370078
11
0.2661246850393701
21
1.5143935826771653
0
LINE
8
BLACK
6
CONTINUOUS
10
0.1919291338582677
20
1.3801181102362203
11
0.1919291338582677
21
1.2498031496062991
0
LINE
8
BLACK
6
CONTINUOUS
10
0.1919291338582677
20
1.2498031496062991
11
0.264763779527559
21
1.2498031496062991
0
LINE
8
BLACK
6
CONTINUOUS
10
0.264763779527559
20
1.2498031496062991
11
0.264763779527559
21
1.3801181102362203
0
LINE
8
BLACK
6
CONTINUOUS
10
0.264763779527559
20
1.3801181102362203
11
0.1919291338582677
21
1.3801181102362203
0
LINE
8
BLACK
6
CONTINUOUS
10
0.1919291338582677
20
1.5125
11
0.1919291338582677
21
1.3821850393700787
0
LINE
8
BLACK
6
CONTINUOUS
10
0.1919291338582677
20
1.3821850393700787
11
0.264763779527559
21
1.3821850393700787
0
LINE
8
BLACK
6
CONTINUOUS
10
0.264763779527559
20
1.3821850393700787
11
0.264763779527559
21
1.5125
0
LINE
8
BLACK
6
CONTINUOUS
10
0.264763779527559
20
1.5125
11
0.1919291338582677
21
1.5125
0
LINE
8
BLACK
6
CONTINUOUS
10
0.537791653543307
20
1.4447537007874016
11
0.5383243307086614
21
1.4442210236220472
0
LINE
8
BLACK
6
CONTINUOUS
10
0.5383243307086614
20
1.4442210236220472
11
0.5383992519685039
21
1.4438443700787402
0
LINE
8
BLACK
6
CONTINUOUS
10
0.5383992519685039
20
1.4438443700787402
11
0.5383992519685039
21
1.2824270472440944
0
LINE
8
BLACK
6
CONTINUOUS
10
0.5383992519685039
20
1.2824270472440944
11
0.5383243307086614
21
1.2820503937007874
0
LINE
8
BLACK
6
CONTINUOUS
10
0.5383243307086614
20
1.2820503937007874
11
0.537791653543307
21
1.281517716535433
0
LINE
8
BLACK
6
CONTINUOUS
10
0.537791653543307
20
1.281517716535433
11
0.537415
21
1.2814427952755905
0
LINE
8
BLACK
6
CONTINUOUS
10
0.537415
20
1.2814427952755905
11
0.4035567322834646
21
1.2814427952755905
0
LINE
8
BLACK
6
CONTINUOUS
10
0.4035567322834646
20
1.2814427952755905
11
0.4031800787401575
21
1.281517716535433
0
LINE
8
BLACK
6
CONTINUOUS
10
0.4031800787401575
20
1.281517716535433
11
0.4026474015748032
21
1.2820503937007874
0
LINE
8
BLACK
6
CONTINUOUS
10
0.4026474015748032
20
1.2820503937007874
11
0.4025724803149606
21
1.2824270472440944
0
LINE
8
BLACK
6
CONTINUOUS
10
0.4025724803149606
20
1.2824270472440944
11
0.4025724803149606
21
1.4438443700787402
0
LINE
8
BLACK
6
CONTINUOUS
10
0.4025724803149606
20
1.4438443700787402
11
0.4026474015748032
21
1.4442210236220472
0
LINE
8
BLACK
6
CONTINUOUS
10
0.4026474015748032
20
1.4442210236220472
11
0.4031800787401575
21
1.4447537007874016
0
LINE
8
BLACK
6
CONTINUOUS
10
0.4031800787401575
20
1.4447537007874016
11
0.4035567322834646
21
1.4448286220472442
0
LINE
8
BLACK
6
CONTINUOUS
10
0.4035567322834646
20
1.4448286220472442
11
0.537415
21
1.4448286220472442
0
LINE
8
BLACK
6
CONTINUOUS
10
0.537415
20
1.4448286220472442
11
0.537791653543307
21
1.4447537007874016
0
LINE
8
BLACK
6
CONTINUOUS
10
0.4045409842519685
20
1.4428601181102363
11
0.4045409842519685
21
1.2834112992125983
0
LINE
8
BLACK
6
CONTINUOUS
10
0.4045409842519685
20
1.2834112992125983
11
0.536430748031496
21
1.2834112992125983
0
LINE
8
BLACK
6
CONTINUOUS
10
0.536430748031496
20
1.2834112992125983
11
0.536430748031496
21
1.4428601181102363
0
LINE
8
BLACK
6
CONTINUOUS
10
0.536430748031496
20
1.4428601181102363
11
0.4045409842519685
21
1.4428601181102363
0
LINE
8
BLACK
6
CONTINUOUS
10
1.2988018503937007
20
1.4694132677165355
11
1.2993345275590551
21
1.468880590551181
0
LINE
8
BLACK
6
CONTINUOUS
10
1.2993345275590551
20
1.468880590551181
11
1.2994094488188976
21
1.4685039370078741
0
LINE
8
BLACK
6
CONTINUOUS
10
1.2994094488188976
20
1.4685039370078741
11
1.2994094488188976
21
1.3346456692913387
0
LINE
8
BLACK
6
CONTINUOUS
10
1.2994094488188976
20
1.3346456692913387
11
1.2993345275590551
21
1.3342690157480315
0
LINE
8
BLACK
6
CONTINUOUS
10
1.2993345275590551
20
1.3342690157480315
11
1.2988018503937007
21
1.333736338582677
0
LINE
8
BLACK
6
CONTINUOUS
10
1.2988018503937007
20
1.333736338582677
11
1.2984251968503937
21
1.3336614173228347
0
LINE
8
BLACK
6
CONTINUOUS
10
1.2984251968503937
20
1.3336614173228347
11
1.221259842519685
21
1.3336614173228347
0
LINE
8
BLACK
6
CONTINUOUS
10
1.221259842519685
20
1.3336614173228347
11
1.2208831889763778
21
1.333736338582677
0
LINE
8
BLACK
6
CONTINUOUS
10
1.2208831889763778
20
1.333736338582677
11
1.2203505118110236
21
1.3342690157480315
0
LINE
8
BLACK
6
CONTINUOUS
10
1.2203505118110236
20
1.3342690157480315
11
1.2202755905511811
21
1.3346456692913387
0
LINE
8
BLACK
6
CONTINUOUS
10
1.2202755905511811
20
1.3346456692913387
11
1.2202755905511811
21
1.4685039370078741
0
LINE
8
BLACK
6
CONTINUOUS
10
1.2202755905511811
20
1.4685039370078741
11
1.2203505118110236
21
1.468880590551181
0
LINE
8
BLACK
6
CONTINUOUS
10
1.2203505118110236
20
1.468880590551181
11
1.2208831889763778
21
1.4694132677165355
0
LINE
8
BLACK
6
CONTINUOUS
10
1.2208831889763778
20
1.4694132677165355
11
1.221259842519685
21
1.469488188976378
0
LINE
8
BLACK
6
CONTINUOUS
10
1.221259842519685
20
1.469488188976378
11
1.2984251968503937
21
1.469488188976378
0
LINE
8
BLACK
6
CONTINUOUS
10
1.2984251968503937
20
1.469488188976378
11
1.2988018503937007
21
1.4694132677165355
0
LINE
8
BLACK
6
CONTINUOUS
10
1.2222440944881889
20
1.4675196850393701
11
1.2222440944881889
21
1.3356299212598426
0
LINE
8
BLACK
6
CONTINUOUS
10
1.2222440944881889
20
1.3356299212598426
11
1.2974409448818898
21
1.3356299212598426
0
LINE
8
BLACK
6
CONTINUOUS
10
1.2974409448818898
20
1.3356299212598426
11
1.2974409448818898
21
1.4675196850393701
0
LINE
8
BLACK
6
CONTINUOUS
10
1.2974409448818898
20
1.4675196850393701
11
1.2222440944881889
21
1.4675196850393701
0
LINE
8
BLACK
6
CONTINUOUS
10
0.1322664173228346
20
1.4740392519685039
11
0.132799094488189
21
1.4735065748031495
0
LINE
8
BLACK
6
CONTINUOUS
10
0.132799094488189
20
1.4735065748031495
11
0.1328740157480315
21
1.4731299212598425
0
LINE
8
BLACK
6
CONTINUOUS
10
0.1328740157480315
20
1.4731299212598425
11
0.1328740157480315
21
1.3408464566929132
0
LINE
8
BLACK
6
CONTINUOUS
10
0.1328740157480315
20
1.3408464566929132
11
0.132799094488189
21
1.3404698031496063
0
LINE
8
BLACK
6
CONTINUOUS
10
0.132799094488189
20
1.3404698031496063
11
0.1322664173228346
21
1.3399371259842519
0
LINE
8
BLACK
6
CONTINUOUS
10
0.1322664173228346
20
1.3399371259842519
11
0.1318897637795275
21
1.3398622047244093
0
LINE
8
BLACK
6
CONTINUOUS
10
0.1318897637795275
20
1.3398622047244093
11
0.0570866141732283
21
1.3398622047244093
0
LINE
8
BLACK
6
CONTINUOUS
10
0.0570866141732283
20
1.3398622047244093
11
0.0567099606299213
21
1.3399371259842519
0
LINE
8
BLACK
6
CONTINUOUS
10
0.0567099606299213
20
1.3399371259842519
11
0.0561772834645669
21
1.3404698031496063
0
LINE
8
BLACK
6
CONTINUOUS
10
0.0561772834645669
20
1.3404698031496063
11
0.0561023622047244
21
1.3408464566929132
0
LINE
8
BLACK
6
CONTINUOUS
10
0.0561023622047244
20
1.3408464566929132
11
0.0561023622047244
21
1.4731299212598425
0
LINE
8
BLACK
6
CONTINUOUS
10
0.0561023622047244
20
1.4731299212598425
11
0.0561772834645669
21
1.4735065748031495
0
LINE
8
BLACK
6
CONTINUOUS
10
0.0561772834645669
20
1.4735065748031495
11
0.0567099606299213
21
1.4740392519685039
0
LINE
8
BLACK
6
CONTINUOUS
10
0.0567099606299213
20
1.4740392519685039
11
0.0570866141732283
21
1.4741141732283465
0
LINE
8
BLACK
6
CONTINUOUS
10
0.0570866141732283
20
1.4741141732283465
11
0.1318897637795275
21
1.4741141732283465
0
LINE
8
BLACK
6
CONTINUOUS
10
0.1318897637795275
20
1.4741141732283465
11
0.1322664173228346
21
1.4740392519685039
0
LINE
8
BLACK
6
CONTINUOUS
10
0.0580708661417323
20
1.4721456692913386
11
0.0580708661417323
21
1.3418307086614172
0
LINE
8
BLACK
6
CONTINUOUS
10
0.0580708661417323
20
1.3418307086614172
11
0.1309055118110236
21
1.3418307086614172
0
LINE
8
BLACK
6
CONTINUOUS
10
0.1309055118110236
20
1.3418307086614172
11
0.1309055118110236
21
1.4721456692913386
0
LINE
8
BLACK
6
CONTINUOUS
10
0.1309055118110236
20
1.4721456692913386
11
0.0580708661417323
21
1.4721456692913386
0
LINE
8
BLACK
6
CONTINUOUS
10
0.0389593307086614
20
1.4772872834645669
11
0.0394920078740157
21
1.4767546062992125
0
LINE
8
BLACK
6
CONTINUOUS
10
0.0394920078740157
20
1.4767546062992125
11
0.0395669291338583
21
1.4763779527559056
0
LINE
8
BLACK
6
CONTINUOUS
10
0.0395669291338583
20
1.4763779527559056
11
0.0395669291338583
21
1.3425196850393701
0
LINE
8
BLACK
6
CONTINUOUS
10
0.0395669291338583
20
1.3425196850393701
11
0.0394920078740157
21
1.342143031496063
0
LINE
8
BLACK
6
CONTINUOUS
10
0.0394920078740157
20
1.342143031496063
11
0.0389593307086614
21
1.3416103543307085
0
LINE
8
BLACK
6
CONTINUOUS
10
0.0389593307086614
20
1.3416103543307085
11
0.0385826771653543
21
1.3415354330708662
0
LINE
8
BLACK
6
CONTINUOUS
10
0.0385826771653543
20
1.3415354330708662
11
-0.0385826771653543
21
1.3415354330708662
0
LINE
8
BLACK
6
CONTINUOUS
10
-0.0385826771653543
20
1.3415354330708662
11
-0.0389593307086614
21
1.3416103543307085
0
LINE
8
BLACK
6
CONTINUOUS
10
-0.0389593307086614
20
1.3416103543307085
11
-0.0394920078740157
21
1.342143031496063
0
LINE
8
BLACK
6
CONTINUOUS
10
-0.0394920078740157
20
1.342143031496063
11
-0.0395669291338583
21
1.3425196850393701
0
LINE
8
BLACK
6
CONTINUOUS
10
-0.0395669291338583
20
1.3425196850393701
11
-0.0395669291338583
21
1.4763779527559056
0
LINE
8
BLACK
6
CONTINUOUS
10
-0.0395669291338583
20
1.4763779527559056
11
-0.0394920078740157
21
1.4767546062992125
0
LINE
8
BLACK
6
CONTINUOUS
10
-0.0394920078740157
20
1.4767546062992125
11
-0.0389593307086614
21
1.4772872834645669
0
LINE
8
BLACK
6
CONTINUOUS
10
-0.0389593307086614
20
1.4772872834645669
11
-0.0385826771653543
21
1.4773622047244095
0
LINE
8
BLACK
6
CONTINUOUS
10
-0.0385826771653543
20
1.4773622047244095
11
0.0385826771653543
21
1.4773622047244095
0
LINE
8
BLACK
6
CONTINUOUS
10
0.0385826771653543
20
1.4773622047244095
11
0.0389593307086614
21
1.4772872834645669
0
LINE
8
BLACK
6
CONTINUOUS
10
-0.0375984251968504
20
1.4753937007874016
11
-0.0375984251968504
21
1.3435039370078741
0
LINE
8
BLACK
6
CONTINUOUS
10
-0.0375984251968504
20
1.3435039370078741
11
0.0375984251968504
21
1.3435039370078741
0
LINE
8
BLACK
6
CONTINUOUS
10
0.0375984251968504
20
1.3435039370078741
11
0.0375984251968504
21
1.4753937007874016
0
LINE
8
BLACK
6
CONTINUOUS
10
0.0375984251968504
20
1.4753937007874016
11
-0.0375984251968504
21
1.4753937007874016
0
LINE
8
BLACK
6
CONTINUOUS
10
1.4890577559055118
20
1.6052400393700788
11
1.489590433070866
21
1.6047073622047243
0
LINE
8
BLACK
6
CONTINUOUS
10
1.489590433070866
20
1.6047073622047243
11
1.4896653543307086
21
1.6043307086614174
0
LINE
8
BLACK
6
CONTINUOUS
10
1.4896653543307086
20
1.6043307086614174
11
1.4896653543307086
21
1.4704724409448819
0
LINE
8
BLACK
6
CONTINUOUS
10
1.4896653543307086
20
1.4704724409448819
11
1.489590433070866
21
1.4700957874015748
0
LINE
8
BLACK
6
CONTINUOUS
10
1.489590433070866
20
1.4700957874015748
11
1.4890577559055118
21
1.4695631102362205
0
LINE
8
BLACK
6
CONTINUOUS
10
1.4890577559055118
20
1.4695631102362205
11
1.4886811023622046
21
1.469488188976378
0
LINE
8
BLACK
6
CONTINUOUS
10
1.4886811023622046
20
1.469488188976378
11
1.327263779527559
21
1.469488188976378
0
LINE
8
BLACK
6
CONTINUOUS
10
1.327263779527559
20
1.469488188976378
11
1.3268871259842518
21
1.4695631102362205
0
LINE
8
BLACK
6
CONTINUOUS
10
1.3268871259842518
20
1.4695631102362205
11
1.3263544488188976
21
1.4700957874015748
0
LINE
8
BLACK
6
CONTINUOUS
10
1.3263544488188976
20
1.4700957874015748
11
1.3262795275590551
21
1.4704724409448819
0
LINE
8
BLACK
6
CONTINUOUS
10
1.3262795275590551
20
1.4704724409448819
11
1.3262795275590551
21
1.6043307086614174
0
LINE
8
BLACK
6
CONTINUOUS
10
1.3262795275590551
20
1.6043307086614174
11
1.3263544488188976
21
1.6047073622047243
0
LINE
8
BLACK
6
CONTINUOUS
10
1.3263544488188976
20
1.6047073622047243
11
1.3268871259842518
21
1.6052400393700788
0
LINE
8
BLACK
6
CONTINUOUS
10
1.3268871259842518
20
1.6052400393700788
11
1.327263779527559
21
1.6053149606299213
0
LINE
8
BLACK
6
CONTINUOUS
10
1.327263779527559
20
1.6053149606299213
11
1.4886811023622046
21
1.6053149606299213
0
LINE
8
BLACK
6
CONTINUOUS
10
1.4886811023622046
20
1.6053149606299213
11
1.4890577559055118
21
1.6052400393700788
0
LINE
8
BLACK
6
CONTINUOUS
10
1.328248031496063
20
1.6033464566929134
11
1.328248031496063
21
1.4714566929133859
0
LINE
8
BLACK
6
CONTINUOUS
10
1.328248031496063
20
1.4714566929133859
11
1.4876968503937007
21
1.4714566929133859
0
LINE
8
BLACK
6
CONTINUOUS
10
1.4876968503937007
20
1.4714566929133859
11
1.4876968503937007
21
1.6033464566929134
0
LINE
8
BLACK
6
CONTINUOUS
10
1.4876968503937007
20
1.6033464566929134
11
1.328248031496063
21
1.6033464566929134
0
LINE
8
BLACK
6
CONTINUOUS
10
1.2988018503937007
20
1.6150825590551181
11
1.2993345275590551
21
1.6145498818897637
0
LINE
8
BLACK
6
CONTINUOUS
10
1.2993345275590551
20
1.6145498818897637
11
1.2994094488188976
21
1.6141732283464567
0
LINE
8
BLACK
6
CONTINUOUS
10
1.2994094488188976
20
1.6141732283464567
11
1.2994094488188976
21
1.4803149606299213
0
LINE
8
BLACK
6
CONTINUOUS
10
1.2994094488188976
20
1.4803149606299213
11
1.2993345275590551
21
1.4799383070866141
0
LINE
8
BLACK
6
CONTINUOUS
10
1.2993345275590551
20
1.4799383070866141
11
1.2988018503937007
21
1.4794056299212599
0
LINE
8
BLACK
6
CONTINUOUS
10
1.2988018503937007
20
1.4794056299212599
11
1.2984251968503937
21
1.4793307086614174
0
LINE
8
BLACK
6
CONTINUOUS
10
1.2984251968503937
20
1.4793307086614174
11
1.221259842519685
21
1.4793307086614174
0
LINE
8
BLACK
6
CONTINUOUS
10
1.221259842519685
20
1.4793307086614174
11
1.2208831889763778
21
1.4794056299212599
0
LINE
8
BLACK
6
CONTINUOUS
10
1.2208831889763778
20
1.4794056299212599
11
1.2203505118110236
21
1.4799383070866141
0
LINE
8
BLACK
6
CONTINUOUS
10
1.2203505118110236
20
1.4799383070866141
11
1.2202755905511811
21
1.4803149606299213
0
LINE
8
BLACK
6
CONTINUOUS
10
1.2202755905511811
20
1.4803149606299213
11
1.2202755905511811
21
1.6141732283464567
0
LINE
8
BLACK
6
CONTINUOUS
10
1.2202755905511811
20
1.6141732283464567
11
1.2203505118110236
21
1.6145498818897637
0
LINE
8
BLACK
6
CONTINUOUS
10
1.2203505118110236
20
1.6145498818897637
11
1.2208831889763778
21
1.6150825590551181
0
LINE
8
BLACK
6
CONTINUOUS
10
1.2208831889763778
20
1.6150825590551181
11
1.221259842519685
21
1.6151574803149606
0
LINE
8
BLACK
6
CONTINUOUS
10
1.221259842519685
20
1.6151574803149606
11
1.2984251968503937
21
1.6151574803149606
0
LINE
8
BLACK
6
CONTINUOUS
10
1.2984251968503937
20
1.6151574803149606
11
1.2988018503937007
21
1.6150825590551181
0
LINE
8
BLACK
6
CONTINUOUS
10
1.2222440944881889
20
1.6131889763779528
11
1.2222440944881889
21
1.4812992125984252
0
LINE
8
BLACK
6
CONTINUOUS
10
1.2222440944881889
20
1.4812992125984252
11
1.2974409448818898
21
1.4812992125984252
0
LINE
8
BLACK
6
CONTINUOUS
10
1.2974409448818898
20
1.4812992125984252
11
1.2974409448818898
21
1.6131889763779528
0
LINE
8
BLACK
6
CONTINUOUS
10
1.2974409448818898
20
1.6131889763779528
11
1.2222440944881889
21
1.6131889763779528
0
LINE
8
BLACK
6
CONTINUOUS
10
1.6519514566929134
20
1.6261061811023623
11
1.6524841338582676
21
1.6255735039370078
0
LINE
8
BLACK
6
CONTINUOUS
10
1.6524841338582676
20
1.6255735039370078
11
1.6525590551181102
21
1.6251968503937007
0
LINE
8
BLACK
6
CONTINUOUS
10
1.6525590551181102
20
1.6251968503937007
11
1.6525590551181102
21
1.5480314960629922
0
LINE
8
BLACK
6
CONTINUOUS
10
1.6525590551181102
20
1.5480314960629922
11
1.6524841338582676
21
1.547654842519685
0
LINE
8
BLACK
6
CONTINUOUS
10
1.6524841338582676
20
1.547654842519685
11
1.6519514566929134
21
1.5471221653543308
0
LINE
8
BLACK
6
CONTINUOUS
10
1.6519514566929134
20
1.5471221653543308
11
1.6515748031496063
21
1.5470472440944882
0
LINE
8
BLACK
6
CONTINUOUS
10
1.6515748031496063
20
1.5470472440944882
11
1.5177165354330708
21
1.5470472440944882
0
LINE
8
BLACK
6
CONTINUOUS
10
1.5177165354330708
20
1.5470472440944882
11
1.5173398818897637
21
1.5471221653543308
0
LINE
8
BLACK
6
CONTINUOUS
10
1.5173398818897637
20
1.5471221653543308
11
1.5168072047244094
21
1.547654842519685
0
LINE
8
BLACK
6
CONTINUOUS
10
1.5168072047244094
20
1.547654842519685
11
1.5167322834645669
21
1.5480314960629922
0
LINE
8
BLACK
6
CONTINUOUS
10
1.5167322834645669
20
1.5480314960629922
11
1.5167322834645669
21
1.6251968503937007
0
LINE
8
BLACK
6
CONTINUOUS
10
1.5167322834645669
20
1.6251968503937007
11
1.5168072047244094
21
1.6255735039370078
0
LINE
8
BLACK
6
CONTINUOUS
10
1.5168072047244094
20
1.6255735039370078
11
1.5173398818897637
21
1.6261061811023623
0
LINE
8
BLACK
6
CONTINUOUS
10
1.5173398818897637
20
1.6261061811023623
11
1.5177165354330708
21
1.6261811023622046
0
LINE
8
BLACK
6
CONTINUOUS
10
1.5177165354330708
20
1.6261811023622046
11
1.6515748031496063
21
1.6261811023622046
0
LINE
8
BLACK
6
CONTINUOUS
10
1.6515748031496063
20
1.6261811023622046
11
1.6519514566929134
21
1.6261061811023623
0
LINE
8
BLACK
6
CONTINUOUS
10
1.5187007874015748
20
1.6242125984251967
11
1.5187007874015748
21
1.5490157480314961
0
LINE
8
BLACK
6
CONTINUOUS
10
1.5187007874015748
20
1.5490157480314961
11
1.6505905511811023
21
1.5490157480314961
0
LINE
8
BLACK
6
CONTINUOUS
10
1.6505905511811023
20
1.5490157480314961
11
1.6505905511811023
21
1.6242125984251967
0
LINE
8
BLACK
6
CONTINUOUS
10
1.6505905511811023
20
1.6242125984251967
11
1.5187007874015748
21
1.6242125984251967
0
LINE
8
BLACK
6
CONTINUOUS
10
0.6667152362204725
20
1.9334683858267716
11
0.6672479133858268
21
1.9329357086614172
0
LINE
8
BLACK
6
CONTINUOUS
10
0.6672479133858268
20
1.9329357086614172
11
0.6673228346456693
21
1.9325590551181102
0
LINE
8
BLACK
6
CONTINUOUS
10
0.6673228346456693
20
1.9325590551181102
11
0.6673228346456693
21
1.6235039370078739
0
LINE
8
BLACK
6
CONTINUOUS
10
0.6673228346456693
20
1.6235039370078739
11
0.6672479133858268
21
1.6231272834645669
0
LINE
8
BLACK
6
CONTINUOUS
10
0.6672479133858268
20
1.6231272834645669
11
0.6667152362204725
21
1.6225946062992125
0
LINE
8
BLACK
6
CONTINUOUS
10
0.6667152362204725
20
1.6225946062992125
11
0.6663385826771654
21
1.6225196850393699
0
LINE
8
BLACK
6
CONTINUOUS
10
0.6663385826771654
20
1.6225196850393699
11
0.4458661417322834
21
1.6225196850393699
0
LINE
8
BLACK
6
CONTINUOUS
10
0.4458661417322834
20
1.6225196850393699
11
0.4454894881889764
21
1.6225946062992125
0
LINE
8
BLACK
6
CONTINUOUS
10
0.4454894881889764
20
1.6225946062992125
11
0.4449568110236221
21
1.6231272834645669
0
LINE
8
BLACK
6
CONTINUOUS
10
0.4449568110236221
20
1.6231272834645669
11
0.4448818897637795
21
1.6235039370078739
0
LINE
8
BLACK
6
CONTINUOUS
10
0.4448818897637795
20
1.6235039370078739
11
0.4448818897637795
21
1.9325590551181102
0
LINE
8
BLACK
6
CONTINUOUS
10
0.4448818897637795
20
1.9325590551181102
11
0.4449568110236221
21
1.9329357086614172
0
LINE
8
BLACK
6
CONTINUOUS
10
0.4449568110236221
20
1.9329357086614172
11
0.4454894881889764
21
1.9334683858267716
0
LINE
8
BLACK
6
CONTINUOUS
10
0.4454894881889764
20
1.9334683858267716
11
0.4458661417322834
21
1.9335433070866141
0
LINE
8
BLACK
6
CONTINUOUS
10
0.4458661417322834
20
1.9335433070866141
11
0.6663385826771654
21
1.9335433070866141
0
LINE
8
BLACK
6
CONTINUOUS
10
0.6663385826771654
20
1.9335433070866141
11
0.6667152362204725
21
1.9334683858267716
0
LINE
8
BLACK
6
CONTINUOUS
10
0.4468503937007874
20
1.9315748031496063
11
0.4468503937007874
21
1.6244881889763778
0
LINE
8
BLACK
6
CONTINUOUS
10
0.4468503937007874
20
1.6244881889763778
11
0.6653543307086615
21
1.6244881889763778
0
LINE
8
BLACK
6
CONTINUOUS
10
0.6653543307086615
20
1.6244881889763778
11
0.6653543307086615
21
1.9315748031496063
0
LINE
8
BLACK
6
CONTINUOUS
10
0.6653543307086615
20
1.9315748031496063
11
0.4468503937007874
21
1.9315748031496063
0
LINE
8
BLACK
6
CONTINUOUS
10
1.6519514960629922
20
1.7127203543307086
11
1.6524841732283464
21
1.7121876771653544
0
LINE
8
BLACK
6
CONTINUOUS
10
1.6524841732283464
20
1.7121876771653544
11
1.6525590944881889
21
1.7118110236220472
0
LINE
8
BLACK
6
CONTINUOUS
10
1.6525590944881889
20
1.7118110236220472
11
1.6525590944881889
21
1.6346456692913385
0
LINE
8
BLACK
6
CONTINUOUS
10
1.6525590944881889
20
1.6346456692913385
11
1.6524841732283464
21
1.6342690157480315
0
LINE
8
BLACK
6
CONTINUOUS
10
1.6524841732283464
20
1.6342690157480315
11
1.6519514960629922
21
1.6337363385826771
0
LINE
8
BLACK
6
CONTINUOUS
10
1.6519514960629922
20
1.6337363385826771
11
1.651574842519685
21
1.6336614173228345
0
LINE
8
BLACK
6
CONTINUOUS
10
1.651574842519685
20
1.6336614173228345
11
1.5177165748031496
21
1.6336614173228345
0
LINE
8
BLACK
6
CONTINUOUS
10
1.5177165748031496
20
1.6336614173228345
11
1.5173399212598424
21
1.6337363385826771
0
LINE
8
BLACK
6
CONTINUOUS
10
1.5173399212598424
20
1.6337363385826771
11
1.5168072440944882
21
1.6342690157480315
0
LINE
8
BLACK
6
CONTINUOUS
10
1.5168072440944882
20
1.6342690157480315
11
1.5167323228346457
21
1.6346456692913385
0
LINE
8
BLACK
6
CONTINUOUS
10
1.5167323228346457
20
1.6346456692913385
11
1.5167323228346457
21
1.7118110236220472
0
LINE
8
BLACK
6
CONTINUOUS
10
1.5167323228346457
20
1.7118110236220472
11
1.5168072440944882
21
1.7121876771653544
0
LINE
8
BLACK
6
CONTINUOUS
10
1.5168072440944882
20
1.7121876771653544
11
1.5173399212598424
21
1.7127203543307086
0
LINE
8
BLACK
6
CONTINUOUS
10
1.5173399212598424
20
1.7127203543307086
11
1.5177165748031496
21
1.7127952755905511
0
LINE
8
BLACK
6
CONTINUOUS
10
1.5177165748031496
20
1.7127952755905511
11
1.651574842519685
21
1.7127952755905511
0
LINE
8
BLACK
6
CONTINUOUS
10
1.651574842519685
20
1.7127952755905511
11
1.6519514960629922
21
1.7127203543307086
0
LINE
8
BLACK
6
CONTINUOUS
10
1.5187008267716535
20
1.7108267716535432
11
1.5187008267716535
21
1.6356299212598424
0
LINE
8
BLACK
6
CONTINUOUS
10
1.5187008267716535
20
1.6356299212598424
11
1.6505905905511811
21
1.6356299212598424
0
LINE
8
BLACK
6
CONTINUOUS
10
1.6505905905511811
20
1.6356299212598424
11
1.6505905905511811
21
1.7108267716535432
0
LINE
8
BLACK
6
CONTINUOUS
10
1.6505905905511811
20
1.7108267716535432
11
1.5187008267716535
21
1.7108267716535432
0
LINE
8
BLACK
6
CONTINUOUS
10
1.4019514566929134
20
1.8335864960629922
11
1.4024841338582676
21
1.8330538188976377
0
LINE
8
BLACK
6
CONTINUOUS
10
1.4024841338582676
20
1.8330538188976377
11
1.4025590551181102
21
1.8326771653543306
0
LINE
8
BLACK
6
CONTINUOUS
10
1.4025590551181102
20
1.8326771653543306
11
1.4025590551181102
21
1.671259842519685
0
LINE
8
BLACK
6
CONTINUOUS
10
1.4025590551181102
20
1.671259842519685
11
1.4024841338582676
21
1.670883188976378
0
LINE
8
BLACK
6
CONTINUOUS
10
1.4024841338582676
20
1.670883188976378
11
1.4019514566929134
21
1.6703505118110236
0
LINE
8
BLACK
6
CONTINUOUS
10
1.4019514566929134
20
1.6703505118110236
11
1.4015748031496063
21
1.670275590551181
0
LINE
8
BLACK
6
CONTINUOUS
10
1.4015748031496063
20
1.670275590551181
11
1.2677165354330708
21
1.670275590551181
0
LINE
8
BLACK
6
CONTINUOUS
10
1.2677165354330708
20
1.670275590551181
11
1.2673398818897637
21
1.6703505118110236
0
LINE
8
BLACK
6
CONTINUOUS
10
1.2673398818897637
20
1.6703505118110236
11
1.2668072047244094
21
1.670883188976378
0
LINE
8
BLACK
6
CONTINUOUS
10
1.2668072047244094
20
1.670883188976378
11
1.2667322834645669
21
1.671259842519685
0
LINE
8
BLACK
6
CONTINUOUS
10
1.2667322834645669
20
1.671259842519685
11
1.2667322834645669
21
1.8326771653543306
0
LINE
8
BLACK
6
CONTINUOUS
10
1.2667322834645669
20
1.8326771653543306
11
1.2668072047244094
21
1.8330538188976377
0
LINE
8
BLACK
6
CONTINUOUS
10
1.2668072047244094
20
1.8330538188976377
11
1.2673398818897637
21
1.8335864960629922
0
LINE
8
BLACK
6
CONTINUOUS
10
1.2673398818897637
20
1.8335864960629922
11
1.2677165354330708
21
1.8336614173228345
0
LINE
8
BLACK
6
CONTINUOUS
10
1.2677165354330708
20
1.8336614173228345
11
1.4015748031496063
21
1.8336614173228345
0
LINE
8
BLACK
6
CONTINUOUS
10
1.4015748031496063
20
1.8336614173228345
11
1.4019514566929134
21
1.8335864960629922
0
LINE
8
BLACK
6
CONTINUOUS
10
1.2687007874015748
20
1.8316929133858266
11
1.2687007874015748
21
1.6722440944881889
0
LINE
8
BLACK
6
CONTINUOUS
10
1.2687007874015748
20
1.6722440944881889
11
1.4005905511811023
21
1.6722440944881889
0
LINE
8
BLACK
6
CONTINUOUS
10
1.4005905511811023
20
1.6722440944881889
11
1.4005905511811023
21
1.8316929133858266
0
LINE
8
BLACK
6
CONTINUOUS
10
1.4005905511811023
20
1.8316929133858266
11
1.2687007874015748
21
1.8316929133858266
0
LINE
8
BLACK
6
CONTINUOUS
10
1.4877782283464567
20
1.835555
11
1.4883109055118109
21
1.8350223228346456
0
LINE
8
BLACK
6
CONTINUOUS
10
1.4883109055118109
20
1.8350223228346456
11
1.4883858267716534
21
1.8346456692913384
0
LINE
8
BLACK
6
CONTINUOUS
10
1.4883858267716534
20
1.8346456692913384
11
1.4883858267716534
21
1.700787401574803
0
LINE
8
BLACK
6
CONTINUOUS
10
1.4883858267716534
20
1.700787401574803
11
1.4883109055118109
21
1.7004107480314961
0
LINE
8
BLACK
6
CONTINUOUS
10
1.4883109055118109
20
1.7004107480314961
11
1.4877782283464567
21
1.6998780708661416
0
LINE
8
BLACK
6
CONTINUOUS
10
1.4877782283464567
20
1.6998780708661416
11
1.4874015748031495
21
1.6998031496062991
0
LINE
8
BLACK
6
CONTINUOUS
10
1.4874015748031495
20
1.6998031496062991
11
1.410236220472441
21
1.6998031496062991
0
LINE
8
BLACK
6
CONTINUOUS
10
1.410236220472441
20
1.6998031496062991
11
1.4098595669291338
21
1.6998780708661416
0
LINE
8
BLACK
6
CONTINUOUS
10
1.4098595669291338
20
1.6998780708661416
11
1.4093268897637794
21
1.7004107480314961
0
LINE
8
BLACK
6
CONTINUOUS
10
1.4093268897637794
20
1.7004107480314961
11
1.4092519685039371
21
1.700787401574803
0
LINE
8
BLACK
6
CONTINUOUS
10
1.4092519685039371
20
1.700787401574803
11
1.4092519685039371
21
1.8346456692913384
0
LINE
8
BLACK
6
CONTINUOUS
10
1.4092519685039371
20
1.8346456692913384
11
1.4093268897637794
21
1.8350223228346456
0
LINE
8
BLACK
6
CONTINUOUS
10
1.4093268897637794
20
1.8350223228346456
11
1.4098595669291338
21
1.835555
0
LINE
8
BLACK
6
CONTINUOUS
10
1.4098595669291338
20
1.835555
11
1.410236220472441
21
1.8356299212598424
0
LINE
8
BLACK
6
CONTINUOUS
10
1.410236220472441
20
1.8356299212598424
11
1.4874015748031495
21
1.8356299212598424
0
LINE
8
BLACK
6
CONTINUOUS
10
1.4874015748031495
20
1.8356299212598424
11
1.4877782283464567
21
1.835555
0
LINE
8
BLACK
6
CONTINUOUS
10
1.411220472440945
20
1.8336614173228345
11
1.411220472440945
21
1.701771653543307
0
LINE
8
BLACK
6
CONTINUOUS
10
1.411220472440945
20
1.701771653543307
11
1.4864173228346456
21
1.701771653543307
0
LINE
8
BLACK
6
CONTINUOUS
10
1.4864173228346456
20
1.701771653543307
11
1.4864173228346456
21
1.8336614173228345
0
LINE
8
BLACK
6
CONTINUOUS
10
1.4864173228346456
20
1.8336614173228345
11
1.411220472440945
21
1.8336614173228345
0
LINE
8
BLACK
6
CONTINUOUS
10
0.4275420078740158
20
1.8662636614173227
11
0.4280746850393701
21
1.8657309842519685
0
LINE
8
BLACK
6
CONTINUOUS
10
0.4280746850393701
20
1.8657309842519685
11
0.4281496062992126
21
1.8653543307086613
0
LINE
8
BLACK
6
CONTINUOUS
10
0.4281496062992126
20
1.8653543307086613
11
0.4281496062992126
21
1.7330708661417322
0
LINE
8
BLACK
6
CONTINUOUS
10
0.4281496062992126
20
1.7330708661417322
11
0.4280746850393701
21
1.7326942125984253
0
LINE
8
BLACK
6
CONTINUOUS
10
0.4280746850393701
20
1.7326942125984253
11
0.4275420078740158
21
1.7321615354330708
0
LINE
8
BLACK
6
CONTINUOUS
10
0.4275420078740158
20
1.7321615354330708
11
0.4271653543307086
21
1.7320866141732283
0
LINE
8
BLACK
6
CONTINUOUS
10
0.4271653543307086
20
1.7320866141732283
11
0.3523622047244094
21
1.7320866141732283
0
LINE
8
BLACK
6
CONTINUOUS
10
0.3523622047244094
20
1.7320866141732283
11
0.3519855511811024
21
1.7321615354330708
0
LINE
8
BLACK
6
CONTINUOUS
10
0.3519855511811024
20
1.7321615354330708
11
0.351452874015748
21
1.7326942125984253
0
LINE
8
BLACK
6
CONTINUOUS
10
0.351452874015748
20
1.7326942125984253
11
0.3513779527559055
21
1.7330708661417322
0
LINE
8
BLACK
6
CONTINUOUS
10
0.3513779527559055
20
1.7330708661417322
11
0.3513779527559055
21
1.8653543307086613
0
LINE
8
BLACK
6
CONTINUOUS
10
0.3513779527559055
20
1.8653543307086613
11
0.351452874015748
21
1.8657309842519685
0
LINE
8
BLACK
6
CONTINUOUS
10
0.351452874015748
20
1.8657309842519685
11
0.3519855511811024
21
1.8662636614173227
0
LINE
8
BLACK
6
CONTINUOUS
10
0.3519855511811024
20
1.8662636614173227
11
0.3523622047244094
21
1.8663385826771652
0
LINE
8
BLACK
6
CONTINUOUS
10
0.3523622047244094
20
1.8663385826771652
11
0.4271653543307086
21
1.8663385826771652
0
LINE
8
BLACK
6
CONTINUOUS
10
0.4271653543307086
20
1.8663385826771652
11
0.4275420078740158
21
1.8662636614173227
0
LINE
8
BLACK
6
CONTINUOUS
10
0.3533464566929134
20
1.8643700787401574
11
0.3533464566929134
21
1.7340551181102362
0
LINE
8
BLACK
6
CONTINUOUS
10
0.3533464566929134
20
1.7340551181102362
11
0.4261811023622047
21
1.7340551181102362
0
LINE
8
BLACK
6
CONTINUOUS
10
0.4261811023622047
20
1.7340551181102362
11
0.4261811023622047
21
1.8643700787401574
0
LINE
8
BLACK
6
CONTINUOUS
10
0.4261811023622047
20
1.8643700787401574
11
0.3533464566929134
21
1.8643700787401574
0
LINE
8
BLACK
6
CONTINUOUS
10
1.3996876377952756
20
1.9162636614173227
11
1.4002203149606298
21
1.9157309842519685
0
LINE
8
BLACK
6
CONTINUOUS
10
1.4002203149606298
20
1.9157309842519685
11
1.4002952362204724
21
1.9153543307086613
0
LINE
8
BLACK
6
CONTINUOUS
10
1.4002952362204724
20
1.9153543307086613
11
1.4002952362204724
21
1.8405511811023623
0
LINE
8
BLACK
6
CONTINUOUS
10
1.4002952362204724
20
1.8405511811023623
11
1.4002203149606298
21
1.8401745275590551
0
LINE
8
BLACK
6
CONTINUOUS
10
1.4002203149606298
20
1.8401745275590551
11
1.3996876377952756
21
1.8396418503937007
0
LINE
8
BLACK
6
CONTINUOUS
10
1.3996876377952756
20
1.8396418503937007
11
1.3993109842519684
21
1.8395669291338583
0
LINE
8
BLACK
6
CONTINUOUS
10
1.3993109842519684
20
1.8395669291338583
11
1.2670275196850393
21
1.8395669291338583
0
LINE
8
BLACK
6
CONTINUOUS
10
1.2670275196850393
20
1.8395669291338583
11
1.2666508661417322
21
1.8396418503937007
0
LINE
8
BLACK
6
CONTINUOUS
10
1.2666508661417322
20
1.8396418503937007
11
1.266118188976378
21
1.8401745275590551
0
LINE
8
BLACK
6
CONTINUOUS
10
1.266118188976378
20
1.8401745275590551
11
1.2660432677165354
21
1.8405511811023623
0
LINE
8
BLACK
6
CONTINUOUS
10
1.2660432677165354
20
1.8405511811023623
11
1.2660432677165354
21
1.9153543307086613
0
LINE
8
BLACK
6
CONTINUOUS
10
1.2660432677165354
20
1.9153543307086613
11
1.266118188976378
21
1.9157309842519685
0
LINE
8
BLACK
6
CONTINUOUS
10
1.266118188976378
20
1.9157309842519685
11
1.2666508661417322
21
1.9162636614173227
0
LINE
8
BLACK
6
CONTINUOUS
10
1.2666508661417322
20
1.9162636614173227
11
1.2670275196850393
21
1.9163385826771653
0
LINE
8
BLACK
6
CONTINUOUS
10
1.2670275196850393
20
1.9163385826771653
11
1.3993109842519684
21
1.9163385826771653
0
LINE
8
BLACK
6
CONTINUOUS
10
1.3993109842519684
20
1.9163385826771653
11
1.3996876377952756
21
1.9162636614173227
0
LINE
8
BLACK
6
CONTINUOUS
10
1.2680117716535433
20
1.9143700787401574
11
1.2680117716535433
21
1.8415354330708662
0
LINE
8
BLACK
6
CONTINUOUS
10
1.2680117716535433
20
1.8415354330708662
11
1.3983267322834645
21
1.8415354330708662
0
LINE
8
BLACK
6
CONTINUOUS
10
1.3983267322834645
20
1.8415354330708662
11
1.3983267322834645
21
1.9143700787401574
0
LINE
8
BLACK
6
CONTINUOUS
10
1.3983267322834645
20
1.9143700787401574
11
1.2680117716535433
21
1.9143700787401574
0
LINE
8
BLACK
6
CONTINUOUS
10
0.3704553937007874
20
1.9607518503937007
11
0.3709880708661417
21
1.9602191732283465
0
LINE
8
BLACK
6
CONTINUOUS
10
0.3709880708661417
20
1.9602191732283465
11
0.3710629921259843
21
1.9598425196850393
0
LINE
8
BLACK
6
CONTINUOUS
10
0.3710629921259843
20
1.9598425196850393
11
0.3710629921259843
21
1.8826771653543306
0
LINE
8
BLACK
6
CONTINUOUS
10
0.3710629921259843
20
1.8826771653543306
11
0.3709880708661417
21
1.8823005118110236
0
LINE
8
BLACK
6
CONTINUOUS
10
0.3709880708661417
20
1.8823005118110236
11
0.3704553937007874
21
1.8817678346456692
0
LINE
8
BLACK
6
CONTINUOUS
10
0.3704553937007874
20
1.8817678346456692
11
0.3700787401574803
21
1.8816929133858267
0
LINE
8
BLACK
6
CONTINUOUS
10
0.3700787401574803
20
1.8816929133858267
11
0.2362204724409449
21
1.8816929133858267
0
LINE
8
BLACK
6
CONTINUOUS
10
0.2362204724409449
20
1.8816929133858267
11
0.2358438188976378
21
1.8817678346456692
0
LINE
8
BLACK
6
CONTINUOUS
10
0.2358438188976378
20
1.8817678346456692
11
0.2353111417322835
21
1.8823005118110236
0
LINE
8
BLACK
6
CONTINUOUS
10
0.2353111417322835
20
1.8823005118110236
11
0.2352362204724409
21
1.8826771653543306
0
LINE
8
BLACK
6
CONTINUOUS
10
0.2352362204724409
20
1.8826771653543306
11
0.2352362204724409
21
1.9598425196850393
0
LINE
8
BLACK
6
CONTINUOUS
10
0.2352362204724409
20
1.9598425196850393
11
0.2353111417322835
21
1.9602191732283465
0
LINE
8
BLACK
6
CONTINUOUS
10
0.2353111417322835
20
1.9602191732283465
11
0.2358438188976378
21
1.9607518503937007
0
LINE
8
BLACK
6
CONTINUOUS
10
0.2358438188976378
20
1.9607518503937007
11
0.2362204724409449
21
1.9608267716535432
0
LINE
8
BLACK
6
CONTINUOUS
10
0.2362204724409449
20
1.9608267716535432
11
0.3700787401574803
21
1.9608267716535432
0
LINE
8
BLACK
6
CONTINUOUS
10
0.3700787401574803
20
1.9608267716535432
11
0.3704553937007874
21
1.9607518503937007
0
LINE
8
BLACK
6
CONTINUOUS
10
0.2372047244094488
20
1.9588582677165354
11
0.2372047244094488
21
1.8836614173228345
0
LINE
8
BLACK
6
CONTINUOUS
10
0.2372047244094488
20
1.8836614173228345
11
0.3690944881889764
21
1.8836614173228345
0
LINE
8
BLACK
6
CONTINUOUS
10
0.3690944881889764
20
1.8836614173228345
11
0.3690944881889764
21
1.9588582677165354
0
LINE
8
BLACK
6
CONTINUOUS
10
0.3690944881889764
20
1.9588582677165354
11
0.2372047244094488
21
1.9588582677165354
0
LINE
8
BLACK
6
CONTINUOUS
10
1.234628622047244
20
2.2048463385826773
11
1.2351612992125984
21
2.2043136614173227
0
LINE
8
BLACK
6
CONTINUOUS
10
1.2351612992125984
20
2.2043136614173227
11
1.235236220472441
21
2.2039370078740159
0
LINE
8
BLACK
6
CONTINUOUS
10
1.235236220472441
20
2.2039370078740159
11
1.235236220472441
21
2.0716535433070864
0
LINE
8
BLACK
6
CONTINUOUS
10
1.235236220472441
20
2.0716535433070864
11
1.2351612992125984
21
2.0712768897637797
0
LINE
8
BLACK
6
CONTINUOUS
10
1.2351612992125984
20
2.0712768897637797
11
1.234628622047244
21
2.070744212598425
0
LINE
8
BLACK
6
CONTINUOUS
10
1.234628622047244
20
2.070744212598425
11
1.234251968503937
21
2.0706692913385827
0
LINE
8
BLACK
6
CONTINUOUS
10
1.234251968503937
20
2.0706692913385827
11
1.1594488188976377
21
2.0706692913385827
0
LINE
8
BLACK
6
CONTINUOUS
10
1.1594488188976377
20
2.0706692913385827
11
1.1590721653543308
21
2.070744212598425
0
LINE
8
BLACK
6
CONTINUOUS
10
1.1590721653543308
20
2.070744212598425
11
1.1585394881889763
21
2.0712768897637797
0
LINE
8
BLACK
6
CONTINUOUS
10
1.1585394881889763
20
2.0712768897637797
11
1.1584645669291338
21
2.0716535433070864
0
LINE
8
BLACK
6
CONTINUOUS
10
1.1584645669291338
20
2.0716535433070864
11
1.1584645669291338
21
2.2039370078740159
0
LINE
8
BLACK
6
CONTINUOUS
10
1.1584645669291338
20
2.2039370078740159
11
1.1585394881889763
21
2.2043136614173227
0
LINE
8
BLACK
6
CONTINUOUS
10
1.1585394881889763
20
2.2043136614173227
11
1.1590721653543308
21
2.2048463385826773
0
LINE
8
BLACK
6
CONTINUOUS
10
1.1590721653543308
20
2.2048463385826773
11
1.1594488188976377
21
2.2049212598425196
0
LINE
8
BLACK
6
CONTINUOUS
10
1.1594488188976377
20
2.2049212598425196
11
1.234251968503937
21
2.2049212598425196
0
LINE
8
BLACK
6
CONTINUOUS
10
1.234251968503937
20
2.2049212598425196
11
1.234628622047244
21
2.2048463385826773
0
LINE
8
BLACK
6
CONTINUOUS
10
1.1604330708661417
20
2.2029527559055118
11
1.1604330708661417
21
2.0726377952755906
0
LINE
8
BLACK
6
CONTINUOUS
10
1.1604330708661417
20
2.0726377952755906
11
1.2332677165354331
21
2.0726377952755906
0
LINE
8
BLACK
6
CONTINUOUS
10
1.2332677165354331
20
2.0726377952755906
11
1.2332677165354331
21
2.2029527559055118
0
LINE
8
BLACK
6
CONTINUOUS
10
1.2332677165354331
20
2.2029527559055118
11
1.1604330708661417
21
2.2029527559055118
0
LINE
8
BLACK
6
CONTINUOUS
10
1.313368779527559
20
2.2048463385826773
11
1.3139014566929132
21
2.2043136614173227
0
LINE
8
BLACK
6
CONTINUOUS
10
1.3139014566929132
20
2.2043136614173227
11
1.3139763779527558
21
2.2039370078740159
0
LINE
8
BLACK
6
CONTINUOUS
10
1.3139763779527558
20
2.2039370078740159
11
1.3139763779527558
21
2.0716535433070864
0
LINE
8
BLACK
6
CONTINUOUS
10
1.3139763779527558
20
2.0716535433070864
11
1.3139014566929132
21
2.0712768897637797
0
LINE
8
BLACK
6
CONTINUOUS
10
1.3139014566929132
20
2.0712768897637797
11
1.313368779527559
21
2.070744212598425
0
LINE
8
BLACK
6
CONTINUOUS
10
1.313368779527559
20
2.070744212598425
11
1.3129921259842519
21
2.0706692913385827
0
LINE
8
BLACK
6
CONTINUOUS
10
1.3129921259842519
20
2.0706692913385827
11
1.2381889763779528
21
2.0706692913385827
0
LINE
8
BLACK
6
CONTINUOUS
10
1.2381889763779528
20
2.0706692913385827
11
1.2378123228346456
21
2.070744212598425
0
LINE
8
BLACK
6
CONTINUOUS
10
1.2378123228346456
20
2.070744212598425
11
1.2372796456692914
21
2.0712768897637797
0
LINE
8
BLACK
6
CONTINUOUS
10
1.2372796456692914
20
2.0712768897637797
11
1.2372047244094488
21
2.0716535433070864
0
LINE
8
BLACK
6
CONTINUOUS
10
1.2372047244094488
20
2.0716535433070864
11
1.2372047244094488
21
2.2039370078740159
0
LINE
8
BLACK
6
CONTINUOUS
10
1.2372047244094488
20
2.2039370078740159
11
1.2372796456692914
21
2.2043136614173227
0
LINE
8
BLACK
6
CONTINUOUS
10
1.2372796456692914
20
2.2043136614173227
11
1.2378123228346456
21
2.2048463385826773
0
LINE
8
BLACK
6
CONTINUOUS
10
1.2378123228346456
20
2.2048463385826773
11
1.2381889763779528
21
2.2049212598425196
0
LINE
8
BLACK
6
CONTINUOUS
10
1.2381889763779528
20
2.2049212598425196
11
1.3129921259842519
21
2.2049212598425196
0
LINE
8
BLACK
6
CONTINUOUS
10
1.3129921259842519
20
2.2049212598425196
11
1.313368779527559
21
2.2048463385826773
0
LINE
8
BLACK
6
CONTINUOUS
10
1.2391732283464567
20
2.2029527559055118
11
1.2391732283464567
21
2.0726377952755906
0
LINE
8
BLACK
6
CONTINUOUS
10
1.2391732283464567
20
2.0726377952755906
11
1.3120078740157479
21
2.0726377952755906
0
LINE
8
BLACK
6
CONTINUOUS
10
1.3120078740157479
20
2.0726377952755906
11
1.3120078740157479
21
2.2029527559055118
0
LINE
8
BLACK
6
CONTINUOUS
10
1.3120078740157479
20
2.2029527559055118
11
1.2391732283464567
21
2.2029527559055118
0
LINE
8
BLACK
6
CONTINUOUS
10
0.4656325984251968
20
2.1642951574803151
11
0.4661652755905512
21
2.1637624803149604
0
LINE
8
BLACK
6
CONTINUOUS
10
0.4661652755905512
20
2.1637624803149604
11
0.4662401968503937
21
2.1633858267716537
0
LINE
8
BLACK
6
CONTINUOUS
10
0.4662401968503937
20
2.1633858267716537
11
0.4662401968503937
21
2.0885826771653542
0
LINE
8
BLACK
6
CONTINUOUS
10
0.4662401968503937
20
2.0885826771653542
11
0.4661652755905512
21
2.088206023622047
0
LINE
8
BLACK
6
CONTINUOUS
10
0.4661652755905512
20
2.088206023622047
11
0.4656325984251968
21
2.0876733464566928
0
LINE
8
BLACK
6
CONTINUOUS
10
0.4656325984251968
20
2.0876733464566928
11
0.4652559448818898
21
2.0875984251968505
0
LINE
8
BLACK
6
CONTINUOUS
10
0.4652559448818898
20
2.0875984251968505
11
0.3329724803149606
21
2.0875984251968505
0
LINE
8
BLACK
6
CONTINUOUS
10
0.3329724803149606
20
2.0875984251968505
11
0.3325958267716536
21
2.0876733464566928
0
LINE
8
BLACK
6
CONTINUOUS
10
0.3325958267716536
20
2.0876733464566928
11
0.3320631496062992
21
2.088206023622047
0
LINE
8
BLACK
6
CONTINUOUS
10
0.3320631496062992
20
2.088206023622047
11
0.3319882283464567
21
2.0885826771653542
0
LINE
8
BLACK
6
CONTINUOUS
10
0.3319882283464567
20
2.0885826771653542
11
0.3319882283464567
21
2.1633858267716537
0
LINE
8
BLACK
6
CONTINUOUS
10
0.3319882283464567
20
2.1633858267716537
11
0.3320631496062992
21
2.1637624803149604
0
LINE
8
BLACK
6
CONTINUOUS
10
0.3320631496062992
20
2.1637624803149604
11
0.3325958267716536
21
2.1642951574803151
0
LINE
8
BLACK
6
CONTINUOUS
10
0.3325958267716536
20
2.1642951574803151
11
0.3329724803149606
21
2.1643700787401574
0
LINE
8
BLACK
6
CONTINUOUS
10
0.3329724803149606
20
2.1643700787401574
11
0.4652559448818898
21
2.1643700787401574
0
LINE
8
BLACK
6
CONTINUOUS
10
0.4652559448818898
20
2.1643700787401574
11
0.4656325984251968
21
2.1642951574803151
0
LINE
8
BLACK
6
CONTINUOUS
10
0.3339567322834646
20
2.1624015748031495
11
0.3339567322834646
21
2.0895669291338583
0
LINE
8
BLACK
6
CONTINUOUS
10
0.3339567322834646
20
2.0895669291338583
11
0.4642716929133858
21
2.0895669291338583
0
LINE
8
BLACK
6
CONTINUOUS
10
0.4642716929133858
20
2.0895669291338583
11
0.4642716929133858
21
2.1624015748031495
0
LINE
8
BLACK
6
CONTINUOUS
10
0.4642716929133858
20
2.1624015748031495
11
0.3339567322834646
21
2.1624015748031495
0
LINE
8
BLACK
6
CONTINUOUS
10
2.0074632677165356
20
2.2331927952755906
11
2.0079959448818898
21
2.2326601181102363
0
LINE
8
BLACK
6
CONTINUOUS
10
2.0079959448818898
20
2.2326601181102363
11
2.0080708661417321
21
2.2322834645669292
0
LINE
8
BLACK
6
CONTINUOUS
10
2.0080708661417321
20
2.2322834645669292
11
2.0080708661417321
21
2.0984251968503935
0
LINE
8
BLACK
6
CONTINUOUS
10
2.0080708661417321
20
2.0984251968503935
11
2.0079959448818898
21
2.0980485433070868
0
LINE
8
BLACK
6
CONTINUOUS
10
2.0079959448818898
20
2.0980485433070868
11
2.0074632677165356
21
2.0975158661417321
0
LINE
8
BLACK
6
CONTINUOUS
10
2.0074632677165356
20
2.0975158661417321
11
2.0070866141732284
21
2.0974409448818898
0
LINE
8
BLACK
6
CONTINUOUS
10
2.0070866141732284
20
2.0974409448818898
11
1.9299212598425197
21
2.0974409448818898
0
LINE
8
BLACK
6
CONTINUOUS
10
1.9299212598425197
20
2.0974409448818898
11
1.9295446062992125
21
2.0975158661417321
0
LINE
8
BLACK
6
CONTINUOUS
10
1.9295446062992125
20
2.0975158661417321
11
1.9290119291338583
21
2.0980485433070868
0
LINE
8
BLACK
6
CONTINUOUS
10
1.9290119291338583
20
2.0980485433070868
11
1.9289370078740158
21
2.0984251968503935
0
LINE
8
BLACK
6
CONTINUOUS
10
1.9289370078740158
20
2.0984251968503935
11
1.9289370078740158
21
2.2322834645669292
0
LINE
8
BLACK
6
CONTINUOUS
10
1.9289370078740158
20
2.2322834645669292
11
1.9290119291338583
21
2.2326601181102363
0
LINE
8
BLACK
6
CONTINUOUS
10
1.9290119291338583
20
2.2326601181102363
11
1.9295446062992125
21
2.2331927952755906
0
LINE
8
BLACK
6
CONTINUOUS
10
1.9295446062992125
20
2.2331927952755906
11
1.9299212598425197
21
2.2332677165354329
0
LINE
8
BLACK
6
CONTINUOUS
10
1.9299212598425197
20
2.2332677165354329
11
2.0070866141732284
21
2.2332677165354329
0
LINE
8
BLACK
6
CONTINUOUS
10
2.0070866141732284
20
2.2332677165354329
11
2.0074632677165356
21
2.2331927952755906
0
LINE
8
BLACK
6
CONTINUOUS
10
1.9309055118110237
20
2.231299212598425
11
1.9309055118110237
21
2.0994094488188977
0
LINE
8
BLACK
6
CONTINUOUS
10
1.9309055118110237
20
2.0994094488188977
11
2.0061023622047243
21
2.0994094488188977
0
LINE
8
BLACK
6
CONTINUOUS
10
2.0061023622047243
20
2.0994094488188977
11
2.0061023622047243
21
2.231299212598425
0
LINE
8
BLACK
6
CONTINUOUS
10
2.0061023622047243
20
2.231299212598425
11
1.9309055118110237
21
2.231299212598425
0
LINE
8
BLACK
6
CONTINUOUS
10
1.9196679921259843
20
2.2319132677165352
11
1.9202006692913385
21
2.231380590551181
0
LINE
8
BLACK
6
CONTINUOUS
10
1.9202006692913385
20
2.231380590551181
11
1.920275590551181
21
2.2310039370078738
0
LINE
8
BLACK
6
CONTINUOUS
10
1.920275590551181
20
2.2310039370078738
11
1.920275590551181
21
2.0987204724409447
0
LINE
8
BLACK
6
CONTINUOUS
10
1.920275590551181
20
2.0987204724409447
11
1.9202006692913385
21
2.0983438188976375
0
LINE
8
BLACK
6
CONTINUOUS
10
1.9202006692913385
20
2.0983438188976375
11
1.9196679921259843
21
2.0978111417322833
0
LINE
8
BLACK
6
CONTINUOUS
10
1.9196679921259843
20
2.0978111417322833
11
1.9192913385826771
21
2.097736220472441
0
LINE
8
BLACK
6
CONTINUOUS
10
1.9192913385826771
20
2.097736220472441
11
1.844488188976378
21
2.097736220472441
0
LINE
8
BLACK
6
CONTINUOUS
10
1.844488188976378
20
2.097736220472441
11
1.8441115354330708
21
2.0978111417322833
0
LINE
8
BLACK
6
CONTINUOUS
10
1.8441115354330708
20
2.0978111417322833
11
1.8435788582677164
21
2.0983438188976375
0
LINE
8
BLACK
6
CONTINUOUS
10
1.8435788582677164
20
2.0983438188976375
11
1.8435039370078741
21
2.0987204724409447
0
LINE
8
BLACK
6
CONTINUOUS
10
1.8435039370078741
20
2.0987204724409447
11
1.8435039370078741
21
2.2310039370078738
0
LINE
8
BLACK
6
CONTINUOUS
10
1.8435039370078741
20
2.2310039370078738
11
1.8435788582677164
21
2.231380590551181
0
LINE
8
BLACK
6
CONTINUOUS
10
1.8435788582677164
20
2.231380590551181
11
1.8441115354330708
21
2.2319132677165352
0
LINE
8
BLACK
6
CONTINUOUS
10
1.8441115354330708
20
2.2319132677165352
11
1.844488188976378
21
2.231988188976378
0
LINE
8
BLACK
6
CONTINUOUS
10
1.844488188976378
20
2.231988188976378
11
1.9192913385826771
21
2.231988188976378
0
LINE
8
BLACK
6
CONTINUOUS
10
1.9192913385826771
20
2.231988188976378
11
1.9196679921259843
21
2.2319132677165352
0
LINE
8
BLACK
6
CONTINUOUS
10
1.8454724409448819
20
2.2300196850393701
11
1.8454724409448819
21
2.0997047244094489
0
LINE
8
BLACK
6
CONTINUOUS
10
1.8454724409448819
20
2.0997047244094489
11
1.9183070866141732
21
2.0997047244094489
0
LINE
8
BLACK
6
CONTINUOUS
10
1.9183070866141732
20
2.0997047244094489
11
1.9183070866141732
21
2.2300196850393701
0
LINE
8
BLACK
6
CONTINUOUS
10
1.9183070866141732
20
2.2300196850393701
11
1.8454724409448819
21
2.2300196850393701
0
LINE
8
BLACK
6
CONTINUOUS
10
1.7988018503937007
20
2.1761061811023623
11
1.7993345275590551
21
2.1755735039370077
0
LINE
8
BLACK
6
CONTINUOUS
10
1.7993345275590551
20
2.1755735039370077
11
1.7994094488188976
21
2.1751968503937009
0
LINE
8
BLACK
6
CONTINUOUS
10
1.7994094488188976
20
2.1751968503937009
11
1.7994094488188976
21
2.1003937007874014
0
LINE
8
BLACK
6
CONTINUOUS
10
1.7994094488188976
20
2.1003937007874014
11
1.7993345275590551
21
2.1000170472440947
0
LINE
8
BLACK
6
CONTINUOUS
10
1.7993345275590551
20
2.1000170472440947
11
1.7988018503937007
21
2.09948437007874
0
LINE
8
BLACK
6
CONTINUOUS
10
1.7988018503937007
20
2.09948437007874
11
1.7984251968503937
21
2.0994094488188977
0
LINE
8
BLACK
6
CONTINUOUS
10
1.7984251968503937
20
2.0994094488188977
11
1.6661417322834646
21
2.0994094488188977
0
LINE
8
BLACK
6
CONTINUOUS
10
1.6661417322834646
20
2.0994094488188977
11
1.6657650787401574
21
2.09948437007874
0
LINE
8
BLACK
6
CONTINUOUS
10
1.6657650787401574
20
2.09948437007874
11
1.665232401574803
21
2.1000170472440947
0
LINE
8
BLACK
6
CONTINUOUS
10
1.665232401574803
20
2.1000170472440947
11
1.6651574803149607
21
2.1003937007874014
0
LINE
8
BLACK
6
CONTINUOUS
10
1.6651574803149607
20
2.1003937007874014
11
1.6651574803149607
21
2.1751968503937009
0
LINE
8
BLACK
6
CONTINUOUS
10
1.6651574803149607
20
2.1751968503937009
11
1.665232401574803
21
2.1755735039370077
0
LINE
8
BLACK
6
CONTINUOUS
10
1.665232401574803
20
2.1755735039370077
11
1.6657650787401574
21
2.1761061811023623
0
LINE
8
BLACK
6
CONTINUOUS
10
1.6657650787401574
20
2.1761061811023623
11
1.6661417322834646
21
2.1761811023622046
0
LINE
8
BLACK
6
CONTINUOUS
10
1.6661417322834646
20
2.1761811023622046
11
1.7984251968503937
21
2.1761811023622046
0
LINE
8
BLACK
6
CONTINUOUS
10
1.7984251968503937
20
2.1761811023622046
11
1.7988018503937007
21
2.1761061811023623
0
LINE
8
BLACK
6
CONTINUOUS
10
1.6671259842519686
20
2.1742125984251968
11
1.6671259842519686
21
2.1013779527559056
0
LINE
8
BLACK
6
CONTINUOUS
10
1.6671259842519686
20
2.1013779527559056
11
1.7974409448818898
21
2.1013779527559056
0
LINE
8
BLACK
6
CONTINUOUS
10
1.7974409448818898
20
2.1013779527559056
11
1.7974409448818898
21
2.1742125984251968
0
LINE
8
BLACK
6
CONTINUOUS
10
1.7974409448818898
20
2.1742125984251968
11
1.6671259842519686
21
2.1742125984251968
0
LINE
8
BLACK
6
CONTINUOUS
10
1.6283294094488188
20
2.2509093307086614
11
1.6288620866141732
21
2.2503766535433072
0
LINE
8
BLACK
6
CONTINUOUS
10
1.6288620866141732
20
2.2503766535433072
11
1.6289370078740157
21
2.25
0
LINE
8
BLACK
6
CONTINUOUS
10
1.6289370078740157
20
2.25
11
1.6289370078740157
21
2.1082677165354329
0
LINE
8
BLACK
6
CONTINUOUS
10
1.6289370078740157
20
2.1082677165354329
11
1.6288620866141732
21
2.1078910629921261
0
LINE
8
BLACK
6
CONTINUOUS
10
1.6288620866141732
20
2.1078910629921261
11
1.6283294094488188
21
2.1073583858267715
0
LINE
8
BLACK
6
CONTINUOUS
10
1.6283294094488188
20
2.1073583858267715
11
1.6279527559055118
21
2.1072834645669292
0
LINE
8
BLACK
6
CONTINUOUS
10
1.6279527559055118
20
2.1072834645669292
11
1.3956692913385826
21
2.1072834645669292
0
LINE
8
BLACK
6
CONTINUOUS
10
1.3956692913385826
20
2.1072834645669292
11
1.3952926377952755
21
2.1073583858267715
0
LINE
8
BLACK
6
CONTINUOUS
10
1.3952926377952755
20
2.1073583858267715
11
1.3947599606299212
21
2.1078910629921261
0
LINE
8
BLACK
6
CONTINUOUS
10
1.3947599606299212
20
2.1078910629921261
11
1.3946850393700787
21
2.1082677165354329
0
LINE
8
BLACK
6
CONTINUOUS
10
1.3946850393700787
20
2.1082677165354329
11
1.3946850393700787
21
2.25
0
LINE
8
BLACK
6
CONTINUOUS
10
1.3946850393700787
20
2.25
11
1.3947599606299212
21
2.2503766535433072
0
LINE
8
BLACK
6
CONTINUOUS
10
1.3947599606299212
20
2.2503766535433072
11
1.3952926377952755
21
2.2509093307086614
0
LINE
8
BLACK
6
CONTINUOUS
10
1.3952926377952755
20
2.2509093307086614
11
1.3956692913385826
21
2.2509842519685037
0
LINE
8
BLACK
6
CONTINUOUS
10
1.3956692913385826
20
2.2509842519685037
11
1.6279527559055118
21
2.2509842519685037
0
LINE
8
BLACK
6
CONTINUOUS
10
1.6279527559055118
20
2.2509842519685037
11
1.6283294094488188
21
2.2509093307086614
0
LINE
8
BLACK
6
CONTINUOUS
10
1.3966535433070866
20
2.2490157480314958
11
1.3966535433070866
21
2.109251968503937
0
LINE
8
BLACK
6
CONTINUOUS
10
1.3966535433070866
20
2.109251968503937
11
1.6269685039370079
21
2.109251968503937
0
LINE
8
BLACK
6
CONTINUOUS
10
1.6269685039370079
20
2.109251968503937
11
1.6269685039370079
21
2.2490157480314958
0
LINE
8
BLACK
6
CONTINUOUS
10
1.6269685039370079
20
2.2490157480314958
11
1.3966535433070866
21
2.2490157480314958
0
LINE
8
BLACK
6
CONTINUOUS
10
1.7988018503937007
20
2.2646888582677165
11
1.7993345275590551
21
2.2641561811023623
0
LINE
8
BLACK
6
CONTINUOUS
10
1.7993345275590551
20
2.2641561811023623
11
1.7994094488188976
21
2.2637795275590551
0
LINE
8
BLACK
6
CONTINUOUS
10
1.7994094488188976
20
2.2637795275590551
11
1.7994094488188976
21
2.188976377952756
0
LINE
8
BLACK
6
CONTINUOUS
10
1.7994094488188976
20
2.188976377952756
11
1.7993345275590551
21
2.1885997244094488
0
LINE
8
BLACK
6
CONTINUOUS
10
1.7993345275590551
20
2.1885997244094488
11
1.7988018503937007
21
2.1880670472440946
0
LINE
8
BLACK
6
CONTINUOUS
10
1.7988018503937007
20
2.1880670472440946
11
1.7984251968503937
21
2.1879921259842519
0
LINE
8
BLACK
6
CONTINUOUS
10
1.7984251968503937
20
2.1879921259842519
11
1.6661417322834646
21
2.1879921259842519
0
LINE
8
BLACK
6
CONTINUOUS
10
1.6661417322834646
20
2.1879921259842519
11
1.6657650787401574
21
2.1880670472440946
0
LINE
8
BLACK
6
CONTINUOUS
10
1.6657650787401574
20
2.1880670472440946
11
1.665232401574803
21
2.1885997244094488
0
LINE
8
BLACK
6
CONTINUOUS
10
1.665232401574803
20
2.1885997244094488
11
1.6651574803149607
21
2.188976377952756
0
LINE
8
BLACK
6
CONTINUOUS
10
1.6651574803149607
20
2.188976377952756
11
1.6651574803149607
21
2.2637795275590551
0
LINE
8
BLACK
6
CONTINUOUS
10
1.6651574803149607
20
2.2637795275590551
11
1.665232401574803
21
2.2641561811023623
0
LINE
8
BLACK
6
CONTINUOUS
10
1.665232401574803
20
2.2641561811023623
11
1.6657650787401574
21
2.2646888582677165
0
LINE
8
BLACK
6
CONTINUOUS
10
1.6657650787401574
20
2.2646888582677165
11
1.6661417322834646
21
2.2647637795275588
0
LINE
8
BLACK
6
CONTINUOUS
10
1.6661417322834646
20
2.2647637795275588
11
1.7984251968503937
21
2.2647637795275588
0
LINE
8
BLACK
6
CONTINUOUS
10
1.7984251968503937
20
2.2647637795275588
11
1.7988018503937007
21
2.2646888582677165
0
LINE
8
BLACK
6
CONTINUOUS
10
1.6671259842519686
20
2.2627952755905509
11
1.6671259842519686
21
2.1899606299212597
0
LINE
8
BLACK
6
CONTINUOUS
10
1.6671259842519686
20
2.1899606299212597
11
1.7974409448818898
21
2.1899606299212597
0
LINE
8
BLACK
6
CONTINUOUS
10
1.7974409448818898
20
2.1899606299212597
11
1.7974409448818898
21
2.2627952755905509
0
LINE
8
BLACK
6
CONTINUOUS
10
1.7974409448818898
20
2.2627952755905509
11
1.6671259842519686
21
2.2627952755905509
0
LINE
8
BLACK
6
CONTINUOUS
10
1.1263609055118109
20
2.2902794094488188
11
1.1268935826771653
21
2.2897467322834646
0
LINE
8
BLACK
6
CONTINUOUS
10
1.1268935826771653
20
2.2897467322834646
11
1.1269685039370079
21
2.2893700787401574
0
LINE
8
BLACK
6
CONTINUOUS
10
1.1269685039370079
20
2.2893700787401574
11
1.1269685039370079
21
2.2027559055118111
0
LINE
8
BLACK
6
CONTINUOUS
10
1.1269685039370079
20
2.2027559055118111
11
1.1268935826771653
21
2.2023792519685039
0
LINE
8
BLACK
6
CONTINUOUS
10
1.1268935826771653
20
2.2023792519685039
11
1.1263609055118109
21
2.2018465748031497
0
LINE
8
BLACK
6
CONTINUOUS
10
1.1263609055118109
20
2.2018465748031497
11
1.1259842519685039
21
2.201771653543307
0
LINE
8
BLACK
6
CONTINUOUS
10
1.1259842519685039
20
2.201771653543307
11
0.9173228346456692
21
2.201771653543307
0
LINE
8
BLACK
6
CONTINUOUS
10
0.9173228346456692
20
2.201771653543307
11
0.9169461811023621
21
2.2018465748031497
0
LINE
8
BLACK
6
CONTINUOUS
10
0.9169461811023621
20
2.2018465748031497
11
0.9164135039370078
21
2.2023792519685039
0
LINE
8
BLACK
6
CONTINUOUS
10
0.9164135039370078
20
2.2023792519685039
11
0.9163385826771653
21
2.2027559055118111
0
LINE
8
BLACK
6
CONTINUOUS
10
0.9163385826771653
20
2.2027559055118111
11
0.9163385826771653
21
2.2893700787401574
0
LINE
8
BLACK
6
CONTINUOUS
10
0.9163385826771653
20
2.2893700787401574
11
0.9164135039370078
21
2.2897467322834646
0
LINE
8
BLACK
6
CONTINUOUS
10
0.9164135039370078
20
2.2897467322834646
11
0.9169461811023621
21
2.2902794094488188
0
LINE
8
BLACK
6
CONTINUOUS
10
0.9169461811023621
20
2.2902794094488188
11
0.9173228346456692
21
2.2903543307086616
0
LINE
8
BLACK
6
CONTINUOUS
10
0.9173228346456692
20
2.2903543307086616
11
1.1259842519685039
21
2.2903543307086616
0
LINE
8
BLACK
6
CONTINUOUS
10
1.1259842519685039
20
2.2903543307086616
11
1.1263609055118109
21
2.2902794094488188
0
LINE
8
BLACK
6
CONTINUOUS
10
0.9183070866141733
20
2.2883858267716537
11
0.9183070866141733
21
2.2037401574803148
0
LINE
8
BLACK
6
CONTINUOUS
10
0.9183070866141733
20
2.2037401574803148
11
1.125
21
2.2037401574803148
0
LINE
8
BLACK
6
CONTINUOUS
10
1.125
20
2.2037401574803148
11
1.125
21
2.2883858267716537
0
LINE
8
BLACK
6
CONTINUOUS
10
1.125
20
2.2883858267716537
11
0.9183070866141733
21
2.2883858267716537
0
LINE
8
BLACK
6
CONTINUOUS
10
1.2661246850393701
20
2.2914605118110236
11
1.2666573622047244
21
2.2909278346456694
0
LINE
8
BLACK
6
CONTINUOUS
10
1.2666573622047244
20
2.2909278346456694
11
1.2667322834645669
21
2.2905511811023622
0
LINE
8
BLACK
6
CONTINUOUS
10
1.2667322834645669
20
2.2905511811023622
11
1.2667322834645669
21
2.2133858267716535
0
LINE
8
BLACK
6
CONTINUOUS
10
1.2667322834645669
20
2.2133858267716535
11
1.2666573622047244
21
2.2130091732283463
0
LINE
8
BLACK
6
CONTINUOUS
10
1.2666573622047244
20
2.2130091732283463
11
1.2661246850393701
21
2.2124764960629921
0
LINE
8
BLACK
6
CONTINUOUS
10
1.2661246850393701
20
2.2124764960629921
11
1.265748031496063
21
2.2124015748031494
0
LINE
8
BLACK
6
CONTINUOUS
10
1.265748031496063
20
2.2124015748031494
11
1.1318897637795275
21
2.2124015748031494
0
LINE
8
BLACK
6
CONTINUOUS
10
1.1318897637795275
20
2.2124015748031494
11
1.1315131102362204
21
2.2124764960629921
0
LINE
8
BLACK
6
CONTINUOUS
10
1.1315131102362204
20
2.2124764960629921
11
1.1309804330708662
21
2.2130091732283463
0
LINE
8
BLACK
6
CONTINUOUS
10
1.1309804330708662
20
2.2130091732283463
11
1.1309055118110236
21
2.2133858267716535
0
LINE
8
BLACK
6
CONTINUOUS
10
1.1309055118110236
20
2.2133858267716535
11
1.1309055118110236
21
2.2905511811023622
0
LINE
8
BLACK
6
CONTINUOUS
10
1.1309055118110236
20
2.2905511811023622
11
1.1309804330708662
21
2.2909278346456694
0
LINE
8
BLACK
6
CONTINUOUS
10
1.1309804330708662
20
2.2909278346456694
11
1.1315131102362204
21
2.2914605118110236
0
LINE
8
BLACK
6
CONTINUOUS
10
1.1315131102362204
20
2.2914605118110236
11
1.1318897637795275
21
2.2915354330708659
0
LINE
8
BLACK
6
CONTINUOUS
10
1.1318897637795275
20
2.2915354330708659
11
1.265748031496063
21
2.2915354330708659
0
LINE
8
BLACK
6
CONTINUOUS
10
1.265748031496063
20
2.2915354330708659
11
1.2661246850393701
21
2.2914605118110236
0
LINE
8
BLACK
6
CONTINUOUS
10
1.1328740157480315
20
2.2895669291338581
11
1.1328740157480315
21
2.2143700787401572
0
LINE
8
BLACK
6
CONTINUOUS
10
1.1328740157480315
20
2.2143700787401572
11
1.264763779527559
21
2.2143700787401572
0
LINE
8
BLACK
6
CONTINUOUS
10
1.264763779527559
20
2.2143700787401572
11
1.264763779527559
21
2.2895669291338581
0
LINE
8
BLACK
6
CONTINUOUS
10
1.264763779527559
20
2.2895669291338581
11
1.1328740157480315
21
2.2895669291338581
0
CIRCLE
8
BLACK
10
0.4307086614173228
20
2.4476377952755906
40
0.0068897637795276
0
CIRCLE
8
BLACK
10
0.4307086614173228
20
2.3476377952755905
40
0.0068897637795276
0
CIRCLE
8
BLACK
10
0.3307086614173228
20
2.4476377952755906
40
0.0068897637795276
0
CIRCLE
8
BLACK
10
0.3307086614173228
20
2.3476377952755905
40
0.0068897637795276
0
CIRCLE
8
BLACK
10
0.2307086614173228
20
2.4476377952755906
40
0.0068897637795276
0
CIRCLE
8
BLACK
10
0.2307086614173228
20
2.3476377952755905
40
0.0068897637795276
0
CIRCLE
8
BLACK
10
2.
20
0.
40
0.0068897637795276
0
CIRCLE
8
BLACK
10
0.
20
0.
40
0.0068897637795276
0
CIRCLE
8
BLACK
10
1.3196850393700787
20
2.3476377952755905
40
0.0068897637795276
0
CIRCLE
8
BLACK
10
1.3196850393700787
20
2.4476377952755906
40
0.0068897637795276
0
CIRCLE
8
BLACK
10
1.4196850393700786
20
2.3476377952755905
40
0.0068897637795276
0
CIRCLE
8
BLACK
10
1.4196850393700786
20
2.4476377952755906
40
0.0068897637795276
0
CIRCLE
8
BLACK
10
1.5196850393700787
20
2.3476377952755905
40
0.0068897637795276
0
CIRCLE
8
BLACK
10
1.5196850393700787
20
2.4476377952755906
40
0.0068897637795276
0
CIRCLE
8
BLACK
10
1.6196850393700788
20
2.3476377952755905
40
0.0068897637795276
0
CIRCLE
8
BLACK
10
1.6196850393700788
20
2.4476377952755906
40
0.0068897637795276
0
CIRCLE
8
BLACK
10
1.7196850393700787
20
2.3476377952755905
40
0.0068897637795276
0
CIRCLE
8
BLACK
10
1.7196850393700787
20
2.4476377952755906
40
0.0068897637795276
0
CIRCLE
8
BLACK
10
0.8307086614173228
20
2.2503937007874013
40
0.0068897637795276
0
CIRCLE
8
BLACK
10
0.8307086614173228
20
2.3503937007874014
40
0.0068897637795276
0
CIRCLE
8
BLACK
10
0.8307086614173228
20
2.4503937007874015
40
0.0068897637795276
0
CIRCLE
8
BLACK
10
0.
20
2.401574803149606
40
0.0068897637795276
0
CIRCLE
8
BLACK
10
2.
20
2.401574803149606
40
0.0068897637795276
0
CIRCLE
8
BLACK
10
0.05
20
0.3346456692913386
40
0.0068897637795276
0
CIRCLE
8
BLACK
10
0.15
20
0.3346456692913386
40
0.0068897637795276
0
CIRCLE
8
BLACK
10
0.25
20
0.3346456692913386
40
0.0068897637795276
0
CIRCLE
8
BLACK
10
1.75
20
0.3346456692913386
40
0.0068897637795276
0
CIRCLE
8
BLACK
10
1.8499999999999999
20
0.3346456692913386
40
0.0068897637795276
0
CIRCLE
8
BLACK
10
1.95
20
0.3346456692913386
40
0.0068897637795276
0
CIRCLE
8
BLACK
10
1.9496062992125984
20
2.0196850393700787
40
0.0068897637795276
0
CIRCLE
8
BLACK
10
1.8496062992125983
20
2.0196850393700787
40
0.0068897637795276
0
CIRCLE
8
BLACK
10
1.7496062992125985
20
2.0196850393700787
40
0.0068897637795276
0
CIRCLE
8
BLACK
10
1.6496062992125984
20
2.0196850393700787
40
0.0068897637795276
0
CIRCLE
8
BLACK
10
1.5496062992125983
20
2.0196850393700787
40
0.0068897637795276
0
CIRCLE
8
BLACK
10
1.4496062992125984
20
2.0196850393700787
40
0.0068897637795276
0
CIRCLE
8
BLACK
10
1.3496062992125983
20
2.0196850393700787
40
0.0068897637795276
0
CIRCLE
8
BLACK
10
1.2496062992125985
20
2.0196850393700787
40
0.0068897637795276
0
CIRCLE
8
BLACK
10
1.1496062992125984
20
2.0196850393700787
40
0.0068897637795276
0
CIRCLE
8
BLACK
10
1.0496062992125983
20
2.0196850393700787
40
0.0068897637795276
0
CIRCLE
8
BLACK
10
0.9496062992125984
20
2.0196850393700787
40
0.0068897637795276
0
CIRCLE
8
BLACK
10
0.8496062992125984
20
2.0196850393700787
40
0.0068897637795276
0
CIRCLE
8
BLACK
10
0.7496062992125984
20
2.0196850393700787
40
0.0068897637795276
0
CIRCLE
8
BLACK
10
0.6496062992125984
20
2.0196850393700787
40
0.0068897637795276
0
CIRCLE
8
BLACK
10
0.5496062992125984
20
2.0196850393700787
40
0.0068897637795276
0
CIRCLE
8
BLACK
10
0.4496062992125984
20
2.0196850393700787
40
0.0068897637795276
0
CIRCLE
8
BLACK
10
0.3496062992125984
20
2.0196850393700787
40
0.0068897637795276
0
CIRCLE
8
BLACK
10
0.2496062992125984
20
2.0196850393700787
40
0.0068897637795276
0
CIRCLE
8
BLACK
10
0.1496062992125984
20
2.0196850393700787
40
0.0068897637795276
0
CIRCLE
8
BLACK
10
0.0496062992125984
20
2.0196850393700787
40
0.0068897637795276
0
CIRCLE
8
BLACK
10
1.1708661417322834
20
2.4476377952755906
40
0.0068897637795276
0
CIRCLE
8
BLACK
10
1.1708661417322834
20
2.3476377952755905
40
0.0068897637795276
0
CIRCLE
8
BLACK
10
1.0708661417322833
20
2.4476377952755906
40
0.0068897637795276
0
CIRCLE
8
BLACK
10
1.0708661417322833
20
2.3476377952755905
40
0.0068897637795276
0
CIRCLE
8
BLACK
10
0.9708661417322835
20
2.4476377952755906
40
0.0068897637795276
0
CIRCLE
8
BLACK
10
0.9708661417322835
20
2.3476377952755905
40
0.0068897637795276
0
CIRCLE
8
BLACK
10
0.6700787401574803
20
2.4476377952755906
40
0.0068897637795276
0
CIRCLE
8
BLACK
10
0.6700787401574803
20
2.3476377952755905
40
0.0068897637795276
0
CIRCLE
8
BLACK
10
0.5700787401574803
20
2.4476377952755906
40
0.0068897637795276
0
CIRCLE
8
BLACK
10
0.5700787401574803
20
2.3476377952755905
40
0.0068897637795276
  0
ENDSEC
  0
EOF
