<?xml version='1.0' encoding='ASCII' standalone='yes'?>
<svg xmlns:svg="http://www.w3.org/2000/svg" xmlns="http://www.w3.org/2000/svg" xmlns:xlink="http://www.w3.org/1999/xlink" version="1.1" width="297.0022mm" height="210.0072mm" viewBox="0.0000 0.0000 297.0022 210.0072">
<title>SVG Image created as OLED01-F_Fab.svg date 2023/07/10 01:42:53 </title>
  <desc>Image generated by PCBNEW </desc>
<g style="fill:#848484; fill-opacity:1.0000;stroke:#848484; stroke-opacity:1.0000; stroke-linecap:round; stroke-linejoin:round;" transform="translate(0 0) scale(1 1)">
</g>
<g style="fill:#848484; fill-opacity:0.0;  stroke:#848484; stroke-width:0.0000; stroke-opacity:1;  stroke-linecap:round; stroke-linejoin:round;">
</g>
<g style="fill:#848484; fill-opacity:0.01;  stroke:#848484; stroke-width:0.4438; stroke-opacity:1;  stroke-linecap:round; stroke-linejoin:round;">
<text x="148.5011" y="111.1583" textLength="86.4696" font-size="3.9453" lengthAdjust="spacingAndGlyphs" text-anchor="middle" opacity="0.01" style="font-family:monospace">EA OLEDM128-6GGA, Precision socket</text>
<g class="stroked-text"><desc>EA OLEDM128-6GGA, Precision socket</desc>
<path d="M106.2297 109.4747 L107.2160 109.4747 "/>
<path d="M107.6388 111.0246 L106.2297 111.0246 "/>
<path d="M106.2297 111.0246 L106.2297 108.0656 "/>
<path d="M106.2297 108.0656 L107.6388 108.0656 "/>
<path d="M108.7660 110.1792 L110.1750 110.1792 "/>
<path d="M108.4842 111.0246 L109.4705 108.0656 "/>
<path d="M109.4705 108.0656 L110.4569 111.0246 "/>
<path d="M114.2613 108.0656 L114.8249 108.0656 "/>
<path d="M114.8249 108.0656 L115.1067 108.2065 "/>
<path d="M115.1067 108.2065 L115.3885 108.4883 "/>
<path d="M115.3885 108.4883 L115.5294 109.0520 "/>
<path d="M115.5294 109.0520 L115.5294 110.0383 "/>
<path d="M115.5294 110.0383 L115.3885 110.6019 "/>
<path d="M115.3885 110.6019 L115.1067 110.8837 "/>
<path d="M115.1067 110.8837 L114.8249 111.0246 "/>
<path d="M114.8249 111.0246 L114.2613 111.0246 "/>
<path d="M114.2613 111.0246 L113.9795 110.8837 "/>
<path d="M113.9795 110.8837 L113.6977 110.6019 "/>
<path d="M113.6977 110.6019 L113.5568 110.0383 "/>
<path d="M113.5568 110.0383 L113.5568 109.0520 "/>
<path d="M113.5568 109.0520 L113.6977 108.4883 "/>
<path d="M113.6977 108.4883 L113.9795 108.2065 "/>
<path d="M113.9795 108.2065 L114.2613 108.0656 "/>
<path d="M118.2066 111.0246 L116.7976 111.0246 "/>
<path d="M116.7976 111.0246 L116.7976 108.0656 "/>
<path d="M119.1929 109.4747 L120.1793 109.4747 "/>
<path d="M120.6020 111.0246 L119.1929 111.0246 "/>
<path d="M119.1929 111.0246 L119.1929 108.0656 "/>
<path d="M119.1929 108.0656 L120.6020 108.0656 "/>
<path d="M121.8701 111.0246 L121.8701 108.0656 "/>
<path d="M121.8701 108.0656 L122.5747 108.0656 "/>
<path d="M122.5747 108.0656 L122.9974 108.2065 "/>
<path d="M122.9974 108.2065 L123.2792 108.4883 "/>
<path d="M123.2792 108.4883 L123.4201 108.7701 "/>
<path d="M123.4201 108.7701 L123.5610 109.3338 "/>
<path d="M123.5610 109.3338 L123.5610 109.7565 "/>
<path d="M123.5610 109.7565 L123.4201 110.3201 "/>
<path d="M123.4201 110.3201 L123.2792 110.6019 "/>
<path d="M123.2792 110.6019 L122.9974 110.8837 "/>
<path d="M122.9974 110.8837 L122.5747 111.0246 "/>
<path d="M122.5747 111.0246 L121.8701 111.0246 "/>
<path d="M124.8291 111.0246 L124.8291 108.0656 "/>
<path d="M124.8291 108.0656 L125.8155 110.1792 "/>
<path d="M125.8155 110.1792 L126.8018 108.0656 "/>
<path d="M126.8018 108.0656 L126.8018 111.0246 "/>
<path d="M129.7608 111.0246 L128.0699 111.0246 "/>
<path d="M128.9154 111.0246 L128.9154 108.0656 "/>
<path d="M128.9154 108.0656 L128.6335 108.4883 "/>
<path d="M128.6335 108.4883 L128.3517 108.7701 "/>
<path d="M128.3517 108.7701 L128.0699 108.9111 "/>
<path d="M130.8880 108.3474 L131.0289 108.2065 "/>
<path d="M131.0289 108.2065 L131.3107 108.0656 "/>
<path d="M131.3107 108.0656 L132.0153 108.0656 "/>
<path d="M132.0153 108.0656 L132.2971 108.2065 "/>
<path d="M132.2971 108.2065 L132.4380 108.3474 "/>
<path d="M132.4380 108.3474 L132.5789 108.6292 "/>
<path d="M132.5789 108.6292 L132.5789 108.9111 "/>
<path d="M132.5789 108.9111 L132.4380 109.3338 "/>
<path d="M132.4380 109.3338 L130.7471 111.0246 "/>
<path d="M130.7471 111.0246 L132.5789 111.0246 "/>
<path d="M134.2697 109.3338 L133.9879 109.1929 "/>
<path d="M133.9879 109.1929 L133.8470 109.0520 "/>
<path d="M133.8470 109.0520 L133.7061 108.7701 "/>
<path d="M133.7061 108.7701 L133.7061 108.6292 "/>
<path d="M133.7061 108.6292 L133.8470 108.3474 "/>
<path d="M133.8470 108.3474 L133.9879 108.2065 "/>
<path d="M133.9879 108.2065 L134.2697 108.0656 "/>
<path d="M134.2697 108.0656 L134.8334 108.0656 "/>
<path d="M134.8334 108.0656 L135.1152 108.2065 "/>
<path d="M135.1152 108.2065 L135.2561 108.3474 "/>
<path d="M135.2561 108.3474 L135.3970 108.6292 "/>
<path d="M135.3970 108.6292 L135.3970 108.7701 "/>
<path d="M135.3970 108.7701 L135.2561 109.0520 "/>
<path d="M135.2561 109.0520 L135.1152 109.1929 "/>
<path d="M135.1152 109.1929 L134.8334 109.3338 "/>
<path d="M134.8334 109.3338 L134.2697 109.3338 "/>
<path d="M134.2697 109.3338 L133.9879 109.4747 "/>
<path d="M133.9879 109.4747 L133.8470 109.6156 "/>
<path d="M133.8470 109.6156 L133.7061 109.8974 "/>
<path d="M133.7061 109.8974 L133.7061 110.4610 "/>
<path d="M133.7061 110.4610 L133.8470 110.7428 "/>
<path d="M133.8470 110.7428 L133.9879 110.8837 "/>
<path d="M133.9879 110.8837 L134.2697 111.0246 "/>
<path d="M134.2697 111.0246 L134.8334 111.0246 "/>
<path d="M134.8334 111.0246 L135.1152 110.8837 "/>
<path d="M135.1152 110.8837 L135.2561 110.7428 "/>
<path d="M135.2561 110.7428 L135.3970 110.4610 "/>
<path d="M135.3970 110.4610 L135.3970 109.8974 "/>
<path d="M135.3970 109.8974 L135.2561 109.6156 "/>
<path d="M135.2561 109.6156 L135.1152 109.4747 "/>
<path d="M135.1152 109.4747 L134.8334 109.3338 "/>
<path d="M136.6651 109.8974 L138.9196 109.8974 "/>
<path d="M141.5968 108.0656 L141.0332 108.0656 "/>
<path d="M141.0332 108.0656 L140.7513 108.2065 "/>
<path d="M140.7513 108.2065 L140.6104 108.3474 "/>
<path d="M140.6104 108.3474 L140.3286 108.7701 "/>
<path d="M140.3286 108.7701 L140.1877 109.3338 "/>
<path d="M140.1877 109.3338 L140.1877 110.4610 "/>
<path d="M140.1877 110.4610 L140.3286 110.7428 "/>
<path d="M140.3286 110.7428 L140.4695 110.8837 "/>
<path d="M140.4695 110.8837 L140.7513 111.0246 "/>
<path d="M140.7513 111.0246 L141.3150 111.0246 "/>
<path d="M141.3150 111.0246 L141.5968 110.8837 "/>
<path d="M141.5968 110.8837 L141.7377 110.7428 "/>
<path d="M141.7377 110.7428 L141.8786 110.4610 "/>
<path d="M141.8786 110.4610 L141.8786 109.7565 "/>
<path d="M141.8786 109.7565 L141.7377 109.4747 "/>
<path d="M141.7377 109.4747 L141.5968 109.3338 "/>
<path d="M141.5968 109.3338 L141.3150 109.1929 "/>
<path d="M141.3150 109.1929 L140.7513 109.1929 "/>
<path d="M140.7513 109.1929 L140.4695 109.3338 "/>
<path d="M140.4695 109.3338 L140.3286 109.4747 "/>
<path d="M140.3286 109.4747 L140.1877 109.7565 "/>
<path d="M144.6967 108.2065 L144.4149 108.0656 "/>
<path d="M144.4149 108.0656 L143.9922 108.0656 "/>
<path d="M143.9922 108.0656 L143.5694 108.2065 "/>
<path d="M143.5694 108.2065 L143.2876 108.4883 "/>
<path d="M143.2876 108.4883 L143.1467 108.7701 "/>
<path d="M143.1467 108.7701 L143.0058 109.3338 "/>
<path d="M143.0058 109.3338 L143.0058 109.7565 "/>
<path d="M143.0058 109.7565 L143.1467 110.3201 "/>
<path d="M143.1467 110.3201 L143.2876 110.6019 "/>
<path d="M143.2876 110.6019 L143.5694 110.8837 "/>
<path d="M143.5694 110.8837 L143.9922 111.0246 "/>
<path d="M143.9922 111.0246 L144.2740 111.0246 "/>
<path d="M144.2740 111.0246 L144.6967 110.8837 "/>
<path d="M144.6967 110.8837 L144.8376 110.7428 "/>
<path d="M144.8376 110.7428 L144.8376 109.7565 "/>
<path d="M144.8376 109.7565 L144.2740 109.7565 "/>
<path d="M147.6557 108.2065 L147.3739 108.0656 "/>
<path d="M147.3739 108.0656 L146.9511 108.0656 "/>
<path d="M146.9511 108.0656 L146.5284 108.2065 "/>
<path d="M146.5284 108.2065 L146.2466 108.4883 "/>
<path d="M146.2466 108.4883 L146.1057 108.7701 "/>
<path d="M146.1057 108.7701 L145.9648 109.3338 "/>
<path d="M145.9648 109.3338 L145.9648 109.7565 "/>
<path d="M145.9648 109.7565 L146.1057 110.3201 "/>
<path d="M146.1057 110.3201 L146.2466 110.6019 "/>
<path d="M146.2466 110.6019 L146.5284 110.8837 "/>
<path d="M146.5284 110.8837 L146.9511 111.0246 "/>
<path d="M146.9511 111.0246 L147.2330 111.0246 "/>
<path d="M147.2330 111.0246 L147.6557 110.8837 "/>
<path d="M147.6557 110.8837 L147.7966 110.7428 "/>
<path d="M147.7966 110.7428 L147.7966 109.7565 "/>
<path d="M147.7966 109.7565 L147.2330 109.7565 "/>
<path d="M148.9238 110.1792 L150.3329 110.1792 "/>
<path d="M148.6420 111.0246 L149.6283 108.0656 "/>
<path d="M149.6283 108.0656 L150.6147 111.0246 "/>
<path d="M151.7419 110.8837 L151.7419 111.0246 "/>
<path d="M151.7419 111.0246 L151.6010 111.3064 "/>
<path d="M151.6010 111.3064 L151.4601 111.4473 "/>
<path d="M155.2645 111.0246 L155.2645 108.0656 "/>
<path d="M155.2645 108.0656 L156.3918 108.0656 "/>
<path d="M156.3918 108.0656 L156.6736 108.2065 "/>
<path d="M156.6736 108.2065 L156.8145 108.3474 "/>
<path d="M156.8145 108.3474 L156.9554 108.6292 "/>
<path d="M156.9554 108.6292 L156.9554 109.0520 "/>
<path d="M156.9554 109.0520 L156.8145 109.3338 "/>
<path d="M156.8145 109.3338 L156.6736 109.4747 "/>
<path d="M156.6736 109.4747 L156.3918 109.6156 "/>
<path d="M156.3918 109.6156 L155.2645 109.6156 "/>
<path d="M158.2235 111.0246 L158.2235 109.0520 "/>
<path d="M158.2235 109.6156 L158.3644 109.3338 "/>
<path d="M158.3644 109.3338 L158.5053 109.1929 "/>
<path d="M158.5053 109.1929 L158.7871 109.0520 "/>
<path d="M158.7871 109.0520 L159.0689 109.0520 "/>
<path d="M161.1825 110.8837 L160.9007 111.0246 "/>
<path d="M160.9007 111.0246 L160.3371 111.0246 "/>
<path d="M160.3371 111.0246 L160.0553 110.8837 "/>
<path d="M160.0553 110.8837 L159.9144 110.6019 "/>
<path d="M159.9144 110.6019 L159.9144 109.4747 "/>
<path d="M159.9144 109.4747 L160.0553 109.1929 "/>
<path d="M160.0553 109.1929 L160.3371 109.0520 "/>
<path d="M160.3371 109.0520 L160.9007 109.0520 "/>
<path d="M160.9007 109.0520 L161.1825 109.1929 "/>
<path d="M161.1825 109.1929 L161.3234 109.4747 "/>
<path d="M161.3234 109.4747 L161.3234 109.7565 "/>
<path d="M161.3234 109.7565 L159.9144 110.0383 "/>
<path d="M163.8597 110.8837 L163.5779 111.0246 "/>
<path d="M163.5779 111.0246 L163.0143 111.0246 "/>
<path d="M163.0143 111.0246 L162.7325 110.8837 "/>
<path d="M162.7325 110.8837 L162.5916 110.7428 "/>
<path d="M162.5916 110.7428 L162.4507 110.4610 "/>
<path d="M162.4507 110.4610 L162.4507 109.6156 "/>
<path d="M162.4507 109.6156 L162.5916 109.3338 "/>
<path d="M162.5916 109.3338 L162.7325 109.1929 "/>
<path d="M162.7325 109.1929 L163.0143 109.0520 "/>
<path d="M163.0143 109.0520 L163.5779 109.0520 "/>
<path d="M163.5779 109.0520 L163.8597 109.1929 "/>
<path d="M165.1278 111.0246 L165.1278 109.0520 "/>
<path d="M165.1278 108.0656 L164.9869 108.2065 "/>
<path d="M164.9869 108.2065 L165.1278 108.3474 "/>
<path d="M165.1278 108.3474 L165.2687 108.2065 "/>
<path d="M165.2687 108.2065 L165.1278 108.0656 "/>
<path d="M165.1278 108.0656 L165.1278 108.3474 "/>
<path d="M166.3960 110.8837 L166.6778 111.0246 "/>
<path d="M166.6778 111.0246 L167.2414 111.0246 "/>
<path d="M167.2414 111.0246 L167.5232 110.8837 "/>
<path d="M167.5232 110.8837 L167.6641 110.6019 "/>
<path d="M167.6641 110.6019 L167.6641 110.4610 "/>
<path d="M167.6641 110.4610 L167.5232 110.1792 "/>
<path d="M167.5232 110.1792 L167.2414 110.0383 "/>
<path d="M167.2414 110.0383 L166.8187 110.0383 "/>
<path d="M166.8187 110.0383 L166.5369 109.8974 "/>
<path d="M166.5369 109.8974 L166.3960 109.6156 "/>
<path d="M166.3960 109.6156 L166.3960 109.4747 "/>
<path d="M166.3960 109.4747 L166.5369 109.1929 "/>
<path d="M166.5369 109.1929 L166.8187 109.0520 "/>
<path d="M166.8187 109.0520 L167.2414 109.0520 "/>
<path d="M167.2414 109.0520 L167.5232 109.1929 "/>
<path d="M168.9323 111.0246 L168.9323 109.0520 "/>
<path d="M168.9323 108.0656 L168.7914 108.2065 "/>
<path d="M168.7914 108.2065 L168.9323 108.3474 "/>
<path d="M168.9323 108.3474 L169.0732 108.2065 "/>
<path d="M169.0732 108.2065 L168.9323 108.0656 "/>
<path d="M168.9323 108.0656 L168.9323 108.3474 "/>
<path d="M170.7640 111.0246 L170.4822 110.8837 "/>
<path d="M170.4822 110.8837 L170.3413 110.7428 "/>
<path d="M170.3413 110.7428 L170.2004 110.4610 "/>
<path d="M170.2004 110.4610 L170.2004 109.6156 "/>
<path d="M170.2004 109.6156 L170.3413 109.3338 "/>
<path d="M170.3413 109.3338 L170.4822 109.1929 "/>
<path d="M170.4822 109.1929 L170.7640 109.0520 "/>
<path d="M170.7640 109.0520 L171.1867 109.0520 "/>
<path d="M171.1867 109.0520 L171.4685 109.1929 "/>
<path d="M171.4685 109.1929 L171.6095 109.3338 "/>
<path d="M171.6095 109.3338 L171.7504 109.6156 "/>
<path d="M171.7504 109.6156 L171.7504 110.4610 "/>
<path d="M171.7504 110.4610 L171.6095 110.7428 "/>
<path d="M171.6095 110.7428 L171.4685 110.8837 "/>
<path d="M171.4685 110.8837 L171.1867 111.0246 "/>
<path d="M171.1867 111.0246 L170.7640 111.0246 "/>
<path d="M173.0185 109.0520 L173.0185 111.0246 "/>
<path d="M173.0185 109.3338 L173.1594 109.1929 "/>
<path d="M173.1594 109.1929 L173.4412 109.0520 "/>
<path d="M173.4412 109.0520 L173.8639 109.0520 "/>
<path d="M173.8639 109.0520 L174.1457 109.1929 "/>
<path d="M174.1457 109.1929 L174.2866 109.4747 "/>
<path d="M174.2866 109.4747 L174.2866 111.0246 "/>
<path d="M177.8093 110.8837 L178.0911 111.0246 "/>
<path d="M178.0911 111.0246 L178.6547 111.0246 "/>
<path d="M178.6547 111.0246 L178.9365 110.8837 "/>
<path d="M178.9365 110.8837 L179.0774 110.6019 "/>
<path d="M179.0774 110.6019 L179.0774 110.4610 "/>
<path d="M179.0774 110.4610 L178.9365 110.1792 "/>
<path d="M178.9365 110.1792 L178.6547 110.0383 "/>
<path d="M178.6547 110.0383 L178.2320 110.0383 "/>
<path d="M178.2320 110.0383 L177.9502 109.8974 "/>
<path d="M177.9502 109.8974 L177.8093 109.6156 "/>
<path d="M177.8093 109.6156 L177.8093 109.4747 "/>
<path d="M177.8093 109.4747 L177.9502 109.1929 "/>
<path d="M177.9502 109.1929 L178.2320 109.0520 "/>
<path d="M178.2320 109.0520 L178.6547 109.0520 "/>
<path d="M178.6547 109.0520 L178.9365 109.1929 "/>
<path d="M180.7683 111.0246 L180.4864 110.8837 "/>
<path d="M180.4864 110.8837 L180.3455 110.7428 "/>
<path d="M180.3455 110.7428 L180.2046 110.4610 "/>
<path d="M180.2046 110.4610 L180.2046 109.6156 "/>
<path d="M180.2046 109.6156 L180.3455 109.3338 "/>
<path d="M180.3455 109.3338 L180.4864 109.1929 "/>
<path d="M180.4864 109.1929 L180.7683 109.0520 "/>
<path d="M180.7683 109.0520 L181.1910 109.0520 "/>
<path d="M181.1910 109.0520 L181.4728 109.1929 "/>
<path d="M181.4728 109.1929 L181.6137 109.3338 "/>
<path d="M181.6137 109.3338 L181.7546 109.6156 "/>
<path d="M181.7546 109.6156 L181.7546 110.4610 "/>
<path d="M181.7546 110.4610 L181.6137 110.7428 "/>
<path d="M181.6137 110.7428 L181.4728 110.8837 "/>
<path d="M181.4728 110.8837 L181.1910 111.0246 "/>
<path d="M181.1910 111.0246 L180.7683 111.0246 "/>
<path d="M184.2909 110.8837 L184.0091 111.0246 "/>
<path d="M184.0091 111.0246 L183.4454 111.0246 "/>
<path d="M183.4454 111.0246 L183.1636 110.8837 "/>
<path d="M183.1636 110.8837 L183.0227 110.7428 "/>
<path d="M183.0227 110.7428 L182.8818 110.4610 "/>
<path d="M182.8818 110.4610 L182.8818 109.6156 "/>
<path d="M182.8818 109.6156 L183.0227 109.3338 "/>
<path d="M183.0227 109.3338 L183.1636 109.1929 "/>
<path d="M183.1636 109.1929 L183.4454 109.0520 "/>
<path d="M183.4454 109.0520 L184.0091 109.0520 "/>
<path d="M184.0091 109.0520 L184.2909 109.1929 "/>
<path d="M185.5590 111.0246 L185.5590 108.0656 "/>
<path d="M185.8408 109.8974 L186.6862 111.0246 "/>
<path d="M186.6862 109.0520 L185.5590 110.1792 "/>
<path d="M189.0816 110.8837 L188.7998 111.0246 "/>
<path d="M188.7998 111.0246 L188.2362 111.0246 "/>
<path d="M188.2362 111.0246 L187.9544 110.8837 "/>
<path d="M187.9544 110.8837 L187.8135 110.6019 "/>
<path d="M187.8135 110.6019 L187.8135 109.4747 "/>
<path d="M187.8135 109.4747 L187.9544 109.1929 "/>
<path d="M187.9544 109.1929 L188.2362 109.0520 "/>
<path d="M188.2362 109.0520 L188.7998 109.0520 "/>
<path d="M188.7998 109.0520 L189.0816 109.1929 "/>
<path d="M189.0816 109.1929 L189.2225 109.4747 "/>
<path d="M189.2225 109.4747 L189.2225 109.7565 "/>
<path d="M189.2225 109.7565 L187.8135 110.0383 "/>
<path d="M190.0680 109.0520 L191.1952 109.0520 "/>
<path d="M190.4907 108.0656 L190.4907 110.6019 "/>
<path d="M190.4907 110.6019 L190.6316 110.8837 "/>
<path d="M190.6316 110.8837 L190.9134 111.0246 "/>
<path d="M190.9134 111.0246 L191.1952 111.0246 "/>
</g><g transform="rotate(-270.000000 145.4288 188.6485)">
<text x="145.4288" y="190.1280" textLength="3.4768" font-size="3.9453" lengthAdjust="spacingAndGlyphs" text-anchor="middle" opacity="0.01" style="font-family:monospace">K</text>
</g>
<g class="stroked-text"><desc>K</desc>
<path d="M144.0830 187.8735 L147.0420 187.8735 "/>
<path d="M144.0830 189.5644 L145.7738 188.2963 "/>
<path d="M147.0420 189.5644 L145.3511 187.8735 "/>
</g><g transform="rotate(-270.000000 158.4853 188.3674)">
<text x="158.4853" y="189.8469" textLength="3.4768" font-size="3.9453" lengthAdjust="spacingAndGlyphs" text-anchor="middle" opacity="0.01" style="font-family:monospace">K</text>
</g>
<g class="stroked-text"><desc>K</desc>
<path d="M157.1395 187.5924 L160.0985 187.5924 "/>
<path d="M157.1395 189.2833 L158.8304 188.0152 "/>
<path d="M160.0985 189.2833 L158.4077 187.5924 "/>
</g><path d="M109.4719 7.4751 L109.4719 22.5068 "/>
<path d="M109.4719 22.5068 L86.9244 22.5068 "/>
<path d="M86.9244 22.5068 L86.9244 7.4751 "/>
<path d="M86.9244 7.4751 L109.4719 7.4751 "/>
</g>
<g style="fill:#848484; fill-opacity:0.0;  stroke:#848484; stroke-width:1.1274; stroke-opacity:1;  stroke-linecap:round; stroke-linejoin:round;">
<circle cx="223.6596" cy="195.1938" r="8.8762"/> 
<circle cx="73.3426" cy="195.1938" r="8.8762"/> 
</g>
<g style="fill:#848484; fill-opacity:0.0;  stroke:#848484; stroke-width:0.4438; stroke-opacity:1;  stroke-linecap:round; stroke-linejoin:round;">
<path d="M132.0195 29.8155 L132.0195 7.2679 "/>
<path d="M139.5353 29.8155 L132.0195 29.8155 "/>
<path d="M139.5353 7.2679 L139.5353 29.8155 "/>
<path d="M132.0195 7.2679 L139.5353 7.2679 "/>
</g>
<g style="fill:#848484; fill-opacity:0.0;  stroke:#848484; stroke-width:1.1274; stroke-opacity:1;  stroke-linecap:round; stroke-linejoin:round;">
<circle cx="73.3426" cy="14.6950" r="8.8762"/> 
<circle cx="223.6596" cy="14.6950" r="8.8762"/> 
</g>
<g style="fill:#848484; fill-opacity:0.0;  stroke:#848484; stroke-width:0.4438; stroke-opacity:1;  stroke-linecap:round; stroke-linejoin:round;">
<path d="M142.5535 7.4751 L165.1011 7.4751 "/>
<path d="M165.1011 7.4751 L165.1011 22.5068 "/>
<path d="M165.1011 22.5068 L142.5535 22.5068 "/>
<path d="M142.5535 22.5068 L142.5535 7.4751 "/>
<g>
</g>
<g>
</g>
<g>
</g>
<g>
</g>
<g>
</g>
<g>
</g>
<g>
</g>
<g>
</g>
<g>
</g>
<g>
</g>
<g>
</g>
<g>
</g>
<g>
</g>
<g>
</g>
<g>
</g>
<g>
</g>
<g>
</g>
<g>
</g>
<g>
</g>
<g>
</g>
<g>
</g>
<g>
</g>
<g>
</g>
<g>
</g>
<g>
</g>
<g>
</g>
<g>
</g>
<g>
</g>
<g>
</g>
<g>
</g>
<g>
</g>
<g>
</g>
<g>
</g>
<g>
</g>
<g>
</g>
<g>
</g>
<g>
</g>
<g>
</g>
<g>
</g>
<g>
</g>
<g>
</g>
<g>
</g>
<g>
</g>
<g>
</g>
<g>
</g>
<g>
</g>
<g>
</g>
<g>
</g>
<g>
</g>
<g>
</g>
<g>
</g>
<g>
</g>
<g>
</g>
<g>
</g>
<g>
</g>
<g>
</g>
<g>
</g>
</g> 
<svg:g><svg:g><svg:title>SVG Image created as OLED01-Edge_Cuts.svg date 2023/07/10 01:42:53 </svg:title>
  <svg:desc>Image generated by PCBNEW </svg:desc>
<svg:g style="fill:#C2C200; fill-opacity:1.0000;stroke:#C2C200; stroke-opacity:1.0000; stroke-linecap:round; stroke-linejoin:round;" transform="translate(0 0) scale(1 1)">
</svg:g>
<svg:g style="fill:#C2C200; fill-opacity:0.0;  stroke:#C2C200; stroke-width:0.0000; stroke-opacity:1;  stroke-linecap:round; stroke-linejoin:round;">
</svg:g>
<svg:g style="fill:#C2C200; fill-opacity:0.0;  stroke:#C2C200; stroke-width:0.1479; stroke-opacity:1;  stroke-linecap:round; stroke-linejoin:round;">
<svg:path d="M141.3995 30.3777 A1.7754 1.7754 0.0 0 0 141.3995 33.9285"/>
<svg:path style="fill:#C2C200; fill-opacity:0.0;  stroke:#C2C200; stroke-width:0.1479; stroke-opacity:1;  stroke-linecap:round; stroke-linejoin:round;fill:none" d="M 58.6068,0.0776 238.3954,0.0776 238.3954,209.9296 58.6068,209.9296 Z"/> 
<svg:path d="M141.3995 33.9285 L155.6027 33.9285 "/>
<svg:path d="M155.6027 30.3777 L141.3995 30.3777 "/>
<svg:path d="M155.6027 33.9285 A1.7754 1.7754 0.0 0 0 155.6027 30.3777"/>
<svg:path d="M143.5078 197.9161 L147.6504 197.9161 "/>
<svg:path d="M149.1299 196.4366 L149.1299 192.8858 "/>
<svg:path d="M143.5078 191.4063 L147.6504 191.4063 "/>
<svg:path d="M142.0283 196.4366 L142.0283 192.8858 "/>
<svg:path d="M142.0283 196.4366 A1.4795 1.4795 0.0 0 0 143.5078 197.9161"/>
<svg:path d="M149.1299 192.8858 A1.4795 1.4795 0.0 0 0 147.6504 191.4063"/>
<svg:path d="M147.6504 197.9161 A1.4795 1.4795 0.0 0 0 149.1299 196.4366"/>
<svg:path d="M143.5078 191.4063 A1.4795 1.4795 0.0 0 0 142.0283 192.8858"/>
<svg:path d="M155.0849 196.1555 L155.0849 192.6047 "/>
<svg:path d="M156.5644 197.6350 L160.7070 197.6350 "/>
<svg:path d="M156.5644 191.1252 L160.7070 191.1252 "/>
<svg:path d="M162.1865 196.1555 L162.1865 192.6047 "/>
<svg:path d="M155.0849 196.1555 A1.4795 1.4795 0.0 0 0 156.5644 197.6350"/>
<svg:path d="M162.1865 192.6047 A1.4795 1.4795 0.0 0 0 160.7070 191.1252"/>
<svg:path d="M156.5644 191.1252 A1.4795 1.4795 0.0 0 0 155.0849 192.6047"/>
<svg:path d="M160.7070 197.6350 A1.4795 1.4795 0.0 0 0 162.1865 196.1555"/>
<svg:g>
</svg:g>
<svg:g>
</svg:g>
<svg:g>
</svg:g>
<svg:g>
</svg:g>
<svg:g>
</svg:g>
<svg:g>
</svg:g>
<svg:g>
</svg:g>
<svg:g>
</svg:g>
<svg:g>
</svg:g>
<svg:g>
</svg:g>
<svg:g>
</svg:g>
<svg:g>
</svg:g>
<svg:g>
</svg:g>
<svg:g>
</svg:g>
<svg:g>
</svg:g>
<svg:g>
</svg:g>
<svg:g>
</svg:g>
<svg:g>
</svg:g>
<svg:g>
</svg:g>
<svg:g>
</svg:g>
<svg:g>
</svg:g>
<svg:g>
</svg:g>
<svg:g>
</svg:g>
<svg:g>
</svg:g>
<svg:g>
</svg:g>
<svg:g>
</svg:g>
<svg:g>
</svg:g>
<svg:g>
</svg:g>
<svg:g>
</svg:g>
<svg:g>
</svg:g>
<svg:g>
</svg:g>
<svg:g>
</svg:g>
<svg:g>
</svg:g>
<svg:g>
</svg:g>
<svg:g>
</svg:g>
<svg:g>
</svg:g>
<svg:g>
</svg:g>
<svg:g>
</svg:g>
<svg:g>
</svg:g>
<svg:g>
</svg:g>
<svg:g>
</svg:g>
<svg:g>
</svg:g>
<svg:g>
</svg:g>
<svg:g>
</svg:g>
<svg:g>
</svg:g>
<svg:g>
</svg:g>
<svg:g>
</svg:g>
<svg:g>
</svg:g>
<svg:g>
</svg:g>
<svg:g>
</svg:g>
<svg:g>
</svg:g>
<svg:g>
</svg:g>
<svg:g>
</svg:g>
<svg:g>
</svg:g>
<svg:g>
</svg:g>
<svg:g>
</svg:g>
<svg:g>
</svg:g>
</svg:g> 
</svg:g></svg:g></svg>
