<?xml version='1.0' encoding='ASCII' standalone='yes'?>
<svg xmlns:svg="http://www.w3.org/2000/svg" xmlns="http://www.w3.org/2000/svg" xmlns:xlink="http://www.w3.org/1999/xlink" version="1.1" width="297.0022mm" height="210.0072mm" viewBox="0.0000 0.0000 297.0022 210.0072">
<title>SVG Image created as OLED01-F_Fab0.svg date 2025/04/12 10:36:18 </title>
  <desc>Image generated by PCBNEW </desc>
<g style="fill:#848484; fill-opacity:1.0000;stroke:#848484; stroke-opacity:1.0000; stroke-linecap:round; stroke-linejoin:round;" transform="translate(0 0) scale(1 1)">
</g>
<g style="fill:none;  stroke:#848484; stroke-width:0.4438; stroke-opacity:1;  stroke-linecap:round; stroke-linejoin:round;">
<text x="148.5011" y="111.1583" textLength="37.6568" font-size="3.9453" lengthAdjust="spacingAndGlyphs" text-anchor="middle" opacity="0" stroke-opacity="0">EA_OLEDM128-6</text>
<g class="stroked-text"><desc>EA_OLEDM128-6</desc>
<path d="M130.7471 109.4747 L131.7334 109.4747 "/>
<path d="M132.1562 111.0246 L130.7471 111.0246 "/>
<path d="M130.7471 111.0246 L130.7471 108.0656 "/>
<path d="M130.7471 108.0656 L132.1562 108.0656 "/>
<path d="M133.2834 110.1792 L134.6924 110.1792 "/>
<path d="M133.0016 111.0246 L133.9879 108.0656 "/>
<path d="M133.9879 108.0656 L134.9743 111.0246 "/>
<path d="M135.2561 111.3064 L137.5105 111.3064 "/>
<path d="M138.7787 108.0656 L139.3423 108.0656 "/>
<path d="M139.3423 108.0656 L139.6241 108.2065 "/>
<path d="M139.6241 108.2065 L139.9059 108.4883 "/>
<path d="M139.9059 108.4883 L140.0468 109.0520 "/>
<path d="M140.0468 109.0520 L140.0468 110.0383 "/>
<path d="M140.0468 110.0383 L139.9059 110.6019 "/>
<path d="M139.9059 110.6019 L139.6241 110.8837 "/>
<path d="M139.6241 110.8837 L139.3423 111.0246 "/>
<path d="M139.3423 111.0246 L138.7787 111.0246 "/>
<path d="M138.7787 111.0246 L138.4969 110.8837 "/>
<path d="M138.4969 110.8837 L138.2151 110.6019 "/>
<path d="M138.2151 110.6019 L138.0742 110.0383 "/>
<path d="M138.0742 110.0383 L138.0742 109.0520 "/>
<path d="M138.0742 109.0520 L138.2151 108.4883 "/>
<path d="M138.2151 108.4883 L138.4969 108.2065 "/>
<path d="M138.4969 108.2065 L138.7787 108.0656 "/>
<path d="M142.7240 111.0246 L141.3150 111.0246 "/>
<path d="M141.3150 111.0246 L141.3150 108.0656 "/>
<path d="M143.7103 109.4747 L144.6967 109.4747 "/>
<path d="M145.1194 111.0246 L143.7103 111.0246 "/>
<path d="M143.7103 111.0246 L143.7103 108.0656 "/>
<path d="M143.7103 108.0656 L145.1194 108.0656 "/>
<path d="M146.3875 111.0246 L146.3875 108.0656 "/>
<path d="M146.3875 108.0656 L147.0921 108.0656 "/>
<path d="M147.0921 108.0656 L147.5148 108.2065 "/>
<path d="M147.5148 108.2065 L147.7966 108.4883 "/>
<path d="M147.7966 108.4883 L147.9375 108.7701 "/>
<path d="M147.9375 108.7701 L148.0784 109.3338 "/>
<path d="M148.0784 109.3338 L148.0784 109.7565 "/>
<path d="M148.0784 109.7565 L147.9375 110.3201 "/>
<path d="M147.9375 110.3201 L147.7966 110.6019 "/>
<path d="M147.7966 110.6019 L147.5148 110.8837 "/>
<path d="M147.5148 110.8837 L147.0921 111.0246 "/>
<path d="M147.0921 111.0246 L146.3875 111.0246 "/>
<path d="M149.3465 111.0246 L149.3465 108.0656 "/>
<path d="M149.3465 108.0656 L150.3329 110.1792 "/>
<path d="M150.3329 110.1792 L151.3192 108.0656 "/>
<path d="M151.3192 108.0656 L151.3192 111.0246 "/>
<path d="M154.2782 111.0246 L152.5873 111.0246 "/>
<path d="M153.4328 111.0246 L153.4328 108.0656 "/>
<path d="M153.4328 108.0656 L153.1510 108.4883 "/>
<path d="M153.1510 108.4883 L152.8691 108.7701 "/>
<path d="M152.8691 108.7701 L152.5873 108.9111 "/>
<path d="M155.4054 108.3474 L155.5463 108.2065 "/>
<path d="M155.5463 108.2065 L155.8281 108.0656 "/>
<path d="M155.8281 108.0656 L156.5327 108.0656 "/>
<path d="M156.5327 108.0656 L156.8145 108.2065 "/>
<path d="M156.8145 108.2065 L156.9554 108.3474 "/>
<path d="M156.9554 108.3474 L157.0963 108.6292 "/>
<path d="M157.0963 108.6292 L157.0963 108.9111 "/>
<path d="M157.0963 108.9111 L156.9554 109.3338 "/>
<path d="M156.9554 109.3338 L155.2645 111.0246 "/>
<path d="M155.2645 111.0246 L157.0963 111.0246 "/>
<path d="M158.7871 109.3338 L158.5053 109.1929 "/>
<path d="M158.5053 109.1929 L158.3644 109.0520 "/>
<path d="M158.3644 109.0520 L158.2235 108.7701 "/>
<path d="M158.2235 108.7701 L158.2235 108.6292 "/>
<path d="M158.2235 108.6292 L158.3644 108.3474 "/>
<path d="M158.3644 108.3474 L158.5053 108.2065 "/>
<path d="M158.5053 108.2065 L158.7871 108.0656 "/>
<path d="M158.7871 108.0656 L159.3508 108.0656 "/>
<path d="M159.3508 108.0656 L159.6326 108.2065 "/>
<path d="M159.6326 108.2065 L159.7735 108.3474 "/>
<path d="M159.7735 108.3474 L159.9144 108.6292 "/>
<path d="M159.9144 108.6292 L159.9144 108.7701 "/>
<path d="M159.9144 108.7701 L159.7735 109.0520 "/>
<path d="M159.7735 109.0520 L159.6326 109.1929 "/>
<path d="M159.6326 109.1929 L159.3508 109.3338 "/>
<path d="M159.3508 109.3338 L158.7871 109.3338 "/>
<path d="M158.7871 109.3338 L158.5053 109.4747 "/>
<path d="M158.5053 109.4747 L158.3644 109.6156 "/>
<path d="M158.3644 109.6156 L158.2235 109.8974 "/>
<path d="M158.2235 109.8974 L158.2235 110.4610 "/>
<path d="M158.2235 110.4610 L158.3644 110.7428 "/>
<path d="M158.3644 110.7428 L158.5053 110.8837 "/>
<path d="M158.5053 110.8837 L158.7871 111.0246 "/>
<path d="M158.7871 111.0246 L159.3508 111.0246 "/>
<path d="M159.3508 111.0246 L159.6326 110.8837 "/>
<path d="M159.6326 110.8837 L159.7735 110.7428 "/>
<path d="M159.7735 110.7428 L159.9144 110.4610 "/>
<path d="M159.9144 110.4610 L159.9144 109.8974 "/>
<path d="M159.9144 109.8974 L159.7735 109.6156 "/>
<path d="M159.7735 109.6156 L159.6326 109.4747 "/>
<path d="M159.6326 109.4747 L159.3508 109.3338 "/>
<path d="M161.1825 109.8974 L163.4370 109.8974 "/>
<path d="M166.1142 108.0656 L165.5506 108.0656 "/>
<path d="M165.5506 108.0656 L165.2687 108.2065 "/>
<path d="M165.2687 108.2065 L165.1278 108.3474 "/>
<path d="M165.1278 108.3474 L164.8460 108.7701 "/>
<path d="M164.8460 108.7701 L164.7051 109.3338 "/>
<path d="M164.7051 109.3338 L164.7051 110.4610 "/>
<path d="M164.7051 110.4610 L164.8460 110.7428 "/>
<path d="M164.8460 110.7428 L164.9869 110.8837 "/>
<path d="M164.9869 110.8837 L165.2687 111.0246 "/>
<path d="M165.2687 111.0246 L165.8324 111.0246 "/>
<path d="M165.8324 111.0246 L166.1142 110.8837 "/>
<path d="M166.1142 110.8837 L166.2551 110.7428 "/>
<path d="M166.2551 110.7428 L166.3960 110.4610 "/>
<path d="M166.3960 110.4610 L166.3960 109.7565 "/>
<path d="M166.3960 109.7565 L166.2551 109.4747 "/>
<path d="M166.2551 109.4747 L166.1142 109.3338 "/>
<path d="M166.1142 109.3338 L165.8324 109.1929 "/>
<path d="M165.8324 109.1929 L165.2687 109.1929 "/>
<path d="M165.2687 109.1929 L164.9869 109.3338 "/>
<path d="M164.9869 109.3338 L164.8460 109.4747 "/>
<path d="M164.8460 109.4747 L164.7051 109.7565 "/>
</g><g transform="rotate(-270.000000 145.4288 188.6485)">
<text x="145.4288" y="190.1280" textLength="3.6987" font-size="3.9453" lengthAdjust="spacingAndGlyphs" text-anchor="middle" opacity="0" stroke-opacity="0">K</text>
</g>
<g class="stroked-text"><desc>K</desc>
<path d="M144.0830 187.8735 L147.0420 187.8735 "/>
<path d="M144.0830 189.5644 L145.7738 188.2963 "/>
<path d="M147.0420 189.5644 L145.3511 187.8735 "/>
</g><g transform="rotate(-270.000000 158.4853 188.3674)">
<text x="158.4853" y="189.8469" textLength="3.6987" font-size="3.9453" lengthAdjust="spacingAndGlyphs" text-anchor="middle" opacity="0" stroke-opacity="0">K</text>
</g>
<g class="stroked-text"><desc>K</desc>
<path d="M157.1395 187.5924 L160.0985 187.5924 "/>
<path d="M157.1395 189.2833 L158.8304 188.0152 "/>
<path d="M160.0985 189.2833 L158.4077 187.5924 "/>
</g><path d="M86.9244 7.4751 L109.4719 7.4751 "/>
<path d="M86.9244 22.5068 L86.9244 7.4751 "/>
<path d="M109.4719 7.4751 L109.4719 22.5068 "/>
<path d="M109.4719 22.5068 L86.9244 22.5068 "/>
</g>
<g style="fill:none;  stroke:#848484; stroke-width:1.1274; stroke-opacity:1;  stroke-linecap:round; stroke-linejoin:round;">
<circle cx="223.6596" cy="195.1938" r="8.8762"/> 
<circle cx="73.3426" cy="195.1938" r="8.8762"/> 
</g>
<g style="fill:none;  stroke:#848484; stroke-width:0.4438; stroke-opacity:1;  stroke-linecap:round; stroke-linejoin:round;">
<path d="M132.0195 7.2679 L139.5353 7.2679 "/>
<path d="M132.0195 29.8155 L132.0195 7.2679 "/>
<path d="M139.5353 7.2679 L139.5353 29.8155 "/>
<path d="M139.5353 29.8155 L132.0195 29.8155 "/>
</g>
<g style="fill:none;  stroke:#848484; stroke-width:1.1274; stroke-opacity:1;  stroke-linecap:round; stroke-linejoin:round;">
<circle cx="73.3426" cy="14.6950" r="8.8762"/> 
<circle cx="223.6596" cy="14.6950" r="8.8762"/> 
</g>
<g style="fill:none;  stroke:#848484; stroke-width:0.4438; stroke-opacity:1;  stroke-linecap:round; stroke-linejoin:round;">
<path d="M142.5535 7.4751 L165.1011 7.4751 "/>
<path d="M142.5535 22.5068 L142.5535 7.4751 "/>
<path d="M165.1011 7.4751 L165.1011 22.5068 "/>
<path d="M165.1011 22.5068 L142.5535 22.5068 "/>
</g> 
<svg:g><svg:g><svg:title>SVG Image created as OLED01-Edge_Cuts1.svg date 2025/04/12 10:36:18 </svg:title>
  <svg:desc>Image generated by PCBNEW </svg:desc>
<svg:g style="fill:#C2C200; fill-opacity:1.0000;stroke:#C2C200; stroke-opacity:1.0000; stroke-linecap:round; stroke-linejoin:round;" transform="translate(0 0) scale(1 1)">
</svg:g>
<svg:g style="fill:none;  stroke:#C2C200; stroke-width:0.1479; stroke-opacity:1;  stroke-linecap:round; stroke-linejoin:round;">
<svg:path d="M141.3995 30.3777 A1.7754 1.7754 0.0 0 0 141.3995 33.9285"/>
<svg:path style="fill:none;  stroke:#C2C200; stroke-width:0.1479; stroke-opacity:1;  stroke-linecap:round; stroke-linejoin:round;fill:none" d="M 58.6068,0.0776 238.3954,0.0776 238.3954,209.9296 58.6068,209.9296 Z"/> 
<svg:path d="M141.3995 33.9285 L155.6027 33.9285 "/>
<svg:path d="M155.6027 30.3777 L141.3995 30.3777 "/>
<svg:path d="M155.6027 33.9285 A1.7754 1.7754 0.0 0 0 155.6027 30.3777"/>
<svg:path d="M142.0283 196.4366 L142.0283 192.8858 "/>
<svg:path d="M143.5078 191.4063 L147.6504 191.4063 "/>
<svg:path d="M143.5078 197.9161 L147.6504 197.9161 "/>
<svg:path d="M149.1299 196.4366 L149.1299 192.8858 "/>
<svg:path d="M143.5078 191.4063 A1.4795 1.4795 0.0 0 0 142.0283 192.8858"/>
<svg:path d="M142.0283 196.4366 A1.4795 1.4795 0.0 0 0 143.5078 197.9161"/>
<svg:path d="M149.1299 192.8858 A1.4795 1.4795 0.0 0 0 147.6504 191.4063"/>
<svg:path d="M147.6504 197.9161 A1.4795 1.4795 0.0 0 0 149.1299 196.4366"/>
<svg:path d="M155.0849 196.1555 L155.0849 192.6047 "/>
<svg:path d="M156.5644 191.1252 L160.7070 191.1252 "/>
<svg:path d="M156.5644 197.6350 L160.7070 197.6350 "/>
<svg:path d="M162.1865 196.1555 L162.1865 192.6047 "/>
<svg:path d="M156.5644 191.1252 A1.4795 1.4795 0.0 0 0 155.0849 192.6047"/>
<svg:path d="M155.0849 196.1555 A1.4795 1.4795 0.0 0 0 156.5644 197.6350"/>
<svg:path d="M162.1865 192.6047 A1.4795 1.4795 0.0 0 0 160.7070 191.1252"/>
<svg:path d="M160.7070 197.6350 A1.4795 1.4795 0.0 0 0 162.1865 196.1555"/>
</svg:g> 
</svg:g></svg:g></svg>
