<?xml version='1.0' encoding='ASCII' standalone='yes'?>
<svg xmlns:svg="http://www.w3.org/2000/svg" xmlns="http://www.w3.org/2000/svg" xmlns:xlink="http://www.w3.org/1999/xlink" version="1.1" width="29.700220cm" height="21.000720cm" viewBox="0 0 2970022 2100072">
<title>SVG Picture created as OLED01-B_Fab.svg date 2023/06/14 14:17:06 </title>
  <desc>Picture generated by PCBNEW </desc>
<g style="fill:#000084; fill-opacity:1.000000;stroke:#000084; stroke-opacity:1.000000; stroke-linecap:round; stroke-linejoin:round;" transform="translate(0 0) scale(1 1)">
</g>
<g style="fill:#000084; fill-opacity:0.0;  stroke:#000084; stroke-width:0.000000; stroke-opacity:1;  stroke-linecap:round; stroke-linejoin:round;">
</g>
<g style="fill:#000084; fill-opacity:0.0;  stroke:#000084; stroke-width:4438.495139; stroke-opacity:1;  stroke-linecap:round; stroke-linejoin:round;">
<g transform="rotate(-90.000000 1047079.470199 1102706.153304)">
<text x="1047079.470199" y="1117501.137100" transform="scale(-1 1) translate(-2094158.940397 0)" textLength="52134.682260" font-size="39453.280259" lengthAdjust="spacingAndGlyphs" text-anchor="middle" opacity="0.01" style="font-family:monospace">L1</text>
</g>
<g class="stroked-text"><desc>L1</desc>
<path d="M1060465 1097774 L1060465 1083684 L1030875 1083684 "/>
<path d="M1060465 1123137 L1060465 1106228 "/>
<path d="M1060465 1114683 L1030875 1114683 L1035102 1111864 L1037920 1109046 L1039329 1106228 "/>
</g></g>
<g style="fill:#000084; fill-opacity:0.0;  stroke:#000084; stroke-width:2367.197407; stroke-opacity:1;  stroke-linecap:round; stroke-linejoin:round;">
<g transform="rotate(-90.000000 1254209.243342 541976.267437)">
<text x="1254209.243342" y="549373.759335" transform="scale(-1 1) translate(-2508418.486685 0)" textLength="37205.863041" font-size="19726.625335" lengthAdjust="spacingAndGlyphs" text-anchor="middle" opacity="0.01" style="font-family:monospace">R10</text>
</g>
<g class="stroked-text"><desc>R10</desc>
<path d="M1260902 532465 L1253856 527533 "/>
<path d="M1260902 524010 L1246107 524010 L1246107 529647 L1246811 531056 L1247516 531760 L1248925 532465 L1251038 532465 L1252447 531760 L1253152 531056 L1253856 529647 L1253856 524010 "/>
<path d="M1260902 546555 L1260902 538101 "/>
<path d="M1260902 542328 L1246107 542328 L1248220 540919 L1249629 539510 L1250334 538101 "/>
<path d="M1246107 555714 L1246107 557123 L1246811 558532 L1247516 559237 L1248925 559941 L1251743 560646 L1255266 560646 L1258084 559941 L1259493 559237 L1260197 558532 L1260902 557123 L1260902 555714 L1260197 554305 L1259493 553600 L1258084 552896 L1255266 552191 L1251743 552191 L1248925 552896 L1247516 553600 L1246811 554305 L1246107 555714 "/>
</g></g>
<g style="fill:#000084; fill-opacity:0.0;  stroke:#000084; stroke-width:4438.495139; stroke-opacity:1;  stroke-linecap:round; stroke-linejoin:round;">
<g transform="rotate(-90.000000 1324485.416373 1988185.933493)">
<text x="1324485.416373" y="2002980.917289" transform="scale(-1 1) translate(-2648970.832746 0)" textLength="49057.355221" font-size="39453.280259" lengthAdjust="spacingAndGlyphs" text-anchor="middle" opacity="0.01" style="font-family:monospace"> R</text>
</g>
<g class="stroked-text"><desc> R</desc>
<path d="M1337871 2008617 L1323780 1998753 "/>
<path d="M1337871 1991708 L1308281 1991708 L1308281 2002980 L1309690 2005799 L1311099 2007208 L1313917 2008617 L1318144 2008617 L1320962 2007208 L1322371 2005799 L1323780 2002980 L1323780 1991708 "/>
</g></g>
<g style="fill:#000084; fill-opacity:0.0;  stroke:#000084; stroke-width:2367.197407; stroke-opacity:1;  stroke-linecap:round; stroke-linejoin:round;">
<g transform="rotate(-90.000000 1275661.969846 1988185.933493)">
<text x="1275661.969846" y="1995583.425391" transform="scale(-1 1) translate(-2551323.939693 0)" textLength="37205.863041" font-size="19726.625335" lengthAdjust="spacingAndGlyphs" text-anchor="middle" opacity="0.01" style="font-family:monospace">R19</text>
</g>
<g class="stroked-text"><desc>R19</desc>
<path d="M1282354 1978674 L1275309 1973743 "/>
<path d="M1282354 1970220 L1267559 1970220 L1267559 1975856 L1268264 1977265 L1268968 1977970 L1270378 1978674 L1272491 1978674 L1273900 1977970 L1274605 1977265 L1275309 1975856 L1275309 1970220 "/>
<path d="M1282354 1992765 L1282354 1984311 "/>
<path d="M1282354 1988538 L1267559 1988538 L1269673 1987129 L1271082 1985720 L1271787 1984311 "/>
<path d="M1282354 1999810 L1282354 2002628 L1281650 2004037 L1280945 2004742 L1278832 2006151 L1276014 2006855 L1270378 2006855 L1268968 2006151 L1268264 2005446 L1267559 2004037 L1267559 2001219 L1268264 1999810 L1268968 1999106 L1270378 1998401 L1273900 1998401 L1275309 1999106 L1276014 1999810 L1276718 2001219 L1276718 2004037 L1276014 2005446 L1275309 2006151 L1273900 2006855 "/>
</g><g transform="rotate(-90.000000 1990999.436382 718036.574609)">
<text x="1990999.436382" y="725434.066507" transform="scale(-1 1) translate(-3981998.872763 0)" textLength="25808.073834" font-size="19726.625335" lengthAdjust="spacingAndGlyphs" text-anchor="middle" opacity="0.01" style="font-family:monospace">R3</text>
</g>
<g class="stroked-text"><desc>R3</desc>
<path d="M1997692 715570 L1990647 710639 "/>
<path d="M1997692 707116 L1982897 707116 L1982897 712752 L1983601 714161 L1984306 714866 L1985715 715570 L1987829 715570 L1989238 714866 L1989942 714161 L1990647 712752 L1990647 707116 "/>
<path d="M1982897 720502 L1982897 729661 L1988533 724729 L1988533 726843 L1989238 728252 L1989942 728956 L1991351 729661 L1994874 729661 L1996283 728956 L1996987 728252 L1997692 726843 L1997692 722615 L1996987 721206 L1996283 720502 "/>
</g></g>
<g style="fill:#000084; fill-opacity:0.01;  stroke:#000084; stroke-width:2219.247569; stroke-opacity:1;  stroke-linecap:round; stroke-linejoin:round;">
<text x="1087036.016627" y="934823.122446" transform="scale(-1 1) translate(-2174072.033253 0)" textLength="26512.610962" font-size="19726.625335" lengthAdjust="spacingAndGlyphs" text-anchor="middle" opacity="0.01" style="font-family:monospace">U3</text>
<g class="stroked-text"><desc>U3</desc>
<path d="M1098308 919323 L1098308 931300 L1097603 932709 L1096899 933414 L1095490 934118 L1092672 934118 L1091263 933414 L1090558 932709 L1089854 931300 L1089854 919323 "/>
<path d="M1084217 919323 L1075059 919323 L1079990 924959 L1077877 924959 L1076468 925664 L1075763 926368 L1075059 927777 L1075059 931300 L1075763 932709 L1076468 933414 L1077877 934118 L1082104 934118 L1083513 933414 L1084217 932709 "/>
</g></g>
<g style="fill:#000084; fill-opacity:0.0;  stroke:#000084; stroke-width:4438.495139; stroke-opacity:1;  stroke-linecap:round; stroke-linejoin:round;">
<g transform="rotate(-90.000000 1526806.819783 1766261.176553)">
<text x="1526806.819783" y="1781056.160349" transform="scale(-1 1) translate(-3053613.639566 0)" textLength="233834.718895" font-size="39453.280259" lengthAdjust="spacingAndGlyphs" text-anchor="middle" opacity="0.01" style="font-family:monospace">BC817-25</text>
</g>
<g class="stroked-text"><desc>BC817-25</desc>
<path d="M1524693 1664809 L1526102 1669036 L1527511 1670446 L1530329 1671855 L1534556 1671855 L1537374 1670446 L1538783 1669036 L1540192 1666218 L1540192 1654946 L1510602 1654946 L1510602 1664809 L1512011 1667627 L1513420 1669036 L1516238 1670446 L1519057 1670446 L1521875 1669036 L1523284 1667627 L1524693 1664809 L1524693 1654946 "/>
<path d="M1537374 1701445 L1538783 1700035 L1540192 1695808 L1540192 1692990 L1538783 1688763 L1535965 1685945 L1533147 1684536 L1527511 1683127 L1523284 1683127 L1517648 1684536 L1514829 1685945 L1512011 1688763 L1510602 1692990 L1510602 1695808 L1512011 1700035 L1513420 1701445 "/>
<path d="M1523284 1718353 L1521875 1715535 L1520466 1714126 L1517648 1712717 L1516238 1712717 L1513420 1714126 L1512011 1715535 L1510602 1718353 L1510602 1723989 L1512011 1726807 L1513420 1728216 L1516238 1729625 L1517648 1729625 L1520466 1728216 L1521875 1726807 L1523284 1723989 L1523284 1718353 L1524693 1715535 L1526102 1714126 L1528920 1712717 L1534556 1712717 L1537374 1714126 L1538783 1715535 L1540192 1718353 L1540192 1723989 L1538783 1726807 L1537374 1728216 L1534556 1729625 L1528920 1729625 L1526102 1728216 L1524693 1726807 L1523284 1723989 "/>
<path d="M1540192 1757806 L1540192 1740898 "/>
<path d="M1540192 1749352 L1510602 1749352 L1514829 1746534 L1517648 1743716 L1519057 1740898 "/>
<path d="M1510602 1767670 L1510602 1787396 L1540192 1774715 "/>
<path d="M1528920 1798669 L1528920 1821213 "/>
<path d="M1513420 1833895 L1512011 1835304 L1510602 1838122 L1510602 1845167 L1512011 1847985 L1513420 1849394 L1516238 1850803 L1519057 1850803 L1523284 1849394 L1540192 1832486 L1540192 1850803 "/>
<path d="M1510602 1877575 L1510602 1863485 L1524693 1862076 L1523284 1863485 L1521875 1866303 L1521875 1873348 L1523284 1876166 L1524693 1877575 L1527511 1878984 L1534556 1878984 L1537374 1877575 L1538783 1876166 L1540192 1873348 L1540192 1866303 L1538783 1863485 L1537374 1862076 "/>
</g></g>
<g style="fill:#000084; fill-opacity:0.0;  stroke:#000084; stroke-width:1479.498380; stroke-opacity:1;  stroke-linecap:round; stroke-linejoin:round;">
<g transform="rotate(-90.000000 1455790.897562 1766261.176553)">
<text x="1455790.897562" y="1770995.571368" transform="scale(-1 1) translate(-2911581.795125 0)" textLength="13167.535578" font-size="12625.033113" lengthAdjust="spacingAndGlyphs" text-anchor="middle" opacity="0.01" style="font-family:monospace">Q1</text>
</g>
<g class="stroked-text"><desc>Q1</desc>
<path d="M1460976 1765359 L1460525 1764457 L1459623 1763555 L1458270 1762203 L1457819 1761301 L1457819 1760399 "/>
<path d="M1460074 1760850 L1459623 1759948 L1458721 1759046 L1456918 1758595 L1453761 1758595 L1451958 1759046 L1451056 1759948 L1450605 1760850 L1450605 1762654 L1451056 1763555 L1451958 1764457 L1453761 1764908 L1456918 1764908 L1458721 1764457 L1459623 1763555 L1460074 1762654 L1460074 1760850 "/>
<path d="M1460074 1773926 L1460074 1768515 "/>
<path d="M1460074 1771221 L1450605 1771221 L1451958 1770319 L1452860 1769417 L1453310 1768515 "/>
</g></g>
<g style="fill:#000084; fill-opacity:0.01;  stroke:#000084; stroke-width:4438.495139; stroke-opacity:1;  stroke-linecap:round; stroke-linejoin:round;">
<text x="1635919.825278" y="600268.503593" transform="scale(-1 1) translate(-3271839.650557 0)" textLength="106573.209807" font-size="39453.280259" lengthAdjust="spacingAndGlyphs" text-anchor="middle" opacity="0.01" style="font-family:monospace">10uF</text>
<g class="stroked-text"><desc>10uF</desc>
<path d="M1667623 598859 L1684531 598859 "/>
<path d="M1676077 598859 L1676077 569269 L1678895 573496 L1681713 576314 L1684531 577723 "/>
<path d="M1649305 569269 L1646487 569269 L1643669 570678 L1642260 572087 L1640851 574905 L1639442 580541 L1639442 587587 L1640851 593223 L1642260 596041 L1643669 597450 L1646487 598859 L1649305 598859 L1652123 597450 L1653532 596041 L1654941 593223 L1656350 587587 L1656350 580541 L1654941 574905 L1653532 572087 L1652123 570678 L1649305 569269 "/>
<path d="M1614079 579132 L1614079 598859 "/>
<path d="M1626761 579132 L1626761 594632 L1625351 597450 L1622533 598859 L1618306 598859 L1615488 597450 L1614079 596041 "/>
<path d="M1590125 583359 L1599989 583359 "/>
<path d="M1599989 598859 L1599989 569269 L1585898 569269 "/>
</g></g>
<g style="fill:#000084; fill-opacity:0.01;  stroke:#000084; stroke-width:2367.197407; stroke-opacity:1;  stroke-linecap:round; stroke-linejoin:round;">
<text x="1635919.825278" y="642582.157250" transform="scale(-1 1) translate(-3271839.650557 0)" textLength="23115.386783" font-size="19726.625335" lengthAdjust="spacingAndGlyphs" text-anchor="middle" opacity="0.01" style="font-family:monospace">C4</text>
<g class="stroked-text"><desc>C4</desc>
<path d="M1638385 640468 L1639090 641173 L1641203 641877 L1642612 641877 L1644726 641173 L1646135 639764 L1646839 638354 L1647544 635536 L1647544 633423 L1646839 630605 L1646135 629196 L1644726 627787 L1642612 627082 L1641203 627082 L1639090 627787 L1638385 628491 "/>
<path d="M1625704 632014 L1625704 641877 "/>
<path d="M1629226 626378 L1632749 636945 L1623590 636945 "/>
</g><g transform="rotate(-90.000000 1070751.444272 531619.778780)">
<text x="1070751.444272" y="539017.270678" transform="scale(-1 1) translate(-2141502.888544 0)" textLength="25808.073834" font-size="19726.625335" lengthAdjust="spacingAndGlyphs" text-anchor="middle" opacity="0.01" style="font-family:monospace">R1</text>
</g>
<g class="stroked-text"><desc>R1</desc>
<path d="M1077444 529153 L1070399 524222 "/>
<path d="M1077444 520699 L1062649 520699 L1062649 526335 L1063353 527744 L1064058 528449 L1065467 529153 L1067581 529153 L1068990 528449 L1069694 527744 L1070399 526335 L1070399 520699 "/>
<path d="M1077444 543244 L1077444 534790 "/>
<path d="M1077444 539017 L1062649 539017 L1064762 537608 L1066172 536199 L1066876 534790 "/>
</g><g transform="rotate(-90.000000 1863762.575736 617430.684796)">
<text x="1863762.575736" y="624828.176694" transform="scale(-1 1) translate(-3727525.151472 0)" textLength="25808.073834" font-size="19726.625335" lengthAdjust="spacingAndGlyphs" text-anchor="middle" opacity="0.01" style="font-family:monospace">R4</text>
</g>
<g class="stroked-text"><desc>R4</desc>
<path d="M1870455 614964 L1863410 610033 "/>
<path d="M1870455 606510 L1855660 606510 L1855660 612146 L1856365 613555 L1857069 614260 L1858478 614964 L1860592 614964 L1862001 614260 L1862705 613555 L1863410 612146 L1863410 606510 "/>
<path d="M1860592 627646 L1870455 627646 "/>
<path d="M1854956 624123 L1865523 620601 L1865523 629759 "/>
</g></g>
<g style="fill:#000084; fill-opacity:0.01;  stroke:#000084; stroke-width:4438.495139; stroke-opacity:1;  stroke-linecap:round; stroke-linejoin:round;">
<text x="1502764.971115" y="219445.620685" transform="scale(-1 1) translate(-3005529.942229 0)" textLength="54693.533888" font-size="39453.280259" lengthAdjust="spacingAndGlyphs" text-anchor="middle" opacity="0.01" style="font-family:monospace">D2</text>
<g class="stroked-text"><desc>D2</desc>
<path d="M1524605 218036 L1524605 188446 L1517559 188446 L1513332 189855 L1510514 192673 L1509105 195491 L1507696 201128 L1507696 205355 L1509105 210991 L1510514 213809 L1513332 216627 L1517559 218036 L1524605 218036 "/>
<path d="M1496424 191264 L1495015 189855 L1492197 188446 L1485151 188446 L1482333 189855 L1480924 191264 L1479515 194082 L1479515 196900 L1480924 201128 L1497833 218036 L1479515 218036 "/>
</g></g>
<g style="fill:#000084; fill-opacity:0.01;  stroke:#000084; stroke-width:2367.197407; stroke-opacity:1;  stroke-linecap:round; stroke-linejoin:round;">
<text x="1634440.326899" y="271228.063971" transform="scale(-1 1) translate(-3268880.653797 0)" textLength="23115.386783" font-size="19726.625335" lengthAdjust="spacingAndGlyphs" text-anchor="middle" opacity="0.01" style="font-family:monospace">C8</text>
<g class="stroked-text"><desc>C8</desc>
<path d="M1636906 269114 L1637610 269818 L1639724 270523 L1641133 270523 L1643246 269818 L1644655 268409 L1645360 267000 L1646064 264182 L1646064 262069 L1645360 259251 L1644655 257842 L1643246 256433 L1641133 255728 L1639724 255728 L1637610 256433 L1636906 257137 "/>
<path d="M1628451 262069 L1629860 261364 L1630565 260660 L1631269 259251 L1631269 258546 L1630565 257137 L1629860 256433 L1628451 255728 L1625633 255728 L1624224 256433 L1623520 257137 L1622815 258546 L1622815 259251 L1623520 260660 L1624224 261364 L1625633 262069 L1628451 262069 L1629860 262773 L1630565 263478 L1631269 264887 L1631269 267705 L1630565 269114 L1629860 269818 L1628451 270523 L1625633 270523 L1624224 269818 L1623520 269114 L1622815 267705 L1622815 264887 L1623520 263478 L1624224 262773 L1625633 262069 "/>
</g><text x="2035384.387769" y="346682.481330" transform="scale(-1 1) translate(-4070768.775539 0)" textLength="39898.550092" font-size="19726.625335" lengthAdjust="spacingAndGlyphs" text-anchor="middle" opacity="0.01" style="font-family:monospace">R13</text>
<g class="stroked-text"><desc>R13</desc>
<path d="M2044895 345977 L2049827 338932 "/>
<path d="M2053349 345977 L2053349 331182 L2047713 331182 L2046304 331887 L2045599 332592 L2044895 334001 L2044895 336114 L2045599 337523 L2046304 338228 L2047713 338932 L2053349 338932 "/>
<path d="M2030804 345977 L2039259 345977 "/>
<path d="M2035032 345977 L2035032 331182 L2036441 333296 L2037850 334705 L2039259 335410 "/>
<path d="M2025873 331182 L2016714 331182 L2021646 336819 L2019532 336819 L2018123 337523 L2017419 338228 L2016714 339637 L2016714 343159 L2017419 344568 L2018123 345273 L2019532 345977 L2023759 345977 L2025168 345273 L2025873 344568 "/>
</g></g>
<g style="fill:#000084; fill-opacity:0.0;  stroke:#000084; stroke-width:4438.495139; stroke-opacity:1;  stroke-linecap:round; stroke-linejoin:round;">
<g transform="rotate(-90.000000 748220.797520 1052403.208398)">
<text x="748220.797520" y="1067198.192194" transform="scale(-1 1) translate(-1496441.595040 0)" textLength="54693.533888" font-size="39453.280259" lengthAdjust="spacingAndGlyphs" text-anchor="middle" opacity="0.01" style="font-family:monospace">D1</text>
</g>
<g class="stroked-text"><desc>D1</desc>
<path d="M761606 1030562 L732016 1030562 L732016 1037608 L733425 1041835 L736243 1044653 L739061 1046062 L744698 1047471 L748925 1047471 L754561 1046062 L757379 1044653 L760197 1041835 L761606 1037608 L761606 1030562 "/>
<path d="M761606 1075652 L761606 1058743 "/>
<path d="M761606 1067198 L732016 1067198 L736243 1064380 L739061 1061561 L740471 1058743 "/>
</g><g transform="rotate(-90.000000 1718771.734536 743188.047062)">
<text x="1718771.734536" y="757983.030858" transform="scale(-1 1) translate(-3437543.469071 0)" textLength="378899.535015" font-size="39453.280259" lengthAdjust="spacingAndGlyphs" text-anchor="middle" opacity="0.01" style="font-family:monospace">MIC5504-2.5YM5</text>
</g>
<g class="stroked-text"><desc>MIC5504-2.5YM5</desc>
<path d="M1732157 557898 L1702567 557898 L1723703 567761 L1702567 577625 L1732157 577625 "/>
<path d="M1732157 591715 L1702567 591715 "/>
<path d="M1729339 622714 L1730748 621305 L1732157 617078 L1732157 614260 L1730748 610033 L1727930 607215 L1725112 605806 L1719476 604396 L1715249 604396 L1709612 605806 L1706794 607215 L1703976 610033 L1702567 614260 L1702567 617078 L1703976 621305 L1705385 622714 "/>
<path d="M1702567 649486 L1702567 635395 L1716658 633986 L1715249 635395 L1713840 638214 L1713840 645259 L1715249 648077 L1716658 649486 L1719476 650895 L1726521 650895 L1729339 649486 L1730748 648077 L1732157 645259 L1732157 638214 L1730748 635395 L1729339 633986 "/>
<path d="M1702567 677667 L1702567 663576 L1716658 662167 L1715249 663576 L1713840 666395 L1713840 673440 L1715249 676258 L1716658 677667 L1719476 679076 L1726521 679076 L1729339 677667 L1730748 676258 L1732157 673440 L1732157 666395 L1730748 663576 L1729339 662167 "/>
<path d="M1702567 697394 L1702567 700212 L1703976 703030 L1705385 704439 L1708203 705848 L1713840 707257 L1720885 707257 L1726521 705848 L1729339 704439 L1730748 703030 L1732157 700212 L1732157 697394 L1730748 694575 L1729339 693166 L1726521 691757 L1720885 690348 L1713840 690348 L1708203 691757 L1705385 693166 L1703976 694575 L1702567 697394 "/>
<path d="M1712431 732620 L1732157 732620 "/>
<path d="M1701158 725574 L1722294 718529 L1722294 736847 "/>
<path d="M1720885 748119 L1720885 770664 "/>
<path d="M1705385 783345 L1703976 784754 L1702567 787572 L1702567 794618 L1703976 797436 L1705385 798845 L1708203 800254 L1711021 800254 L1715249 798845 L1732157 781936 L1732157 800254 "/>
<path d="M1729339 812935 L1730748 814344 L1732157 812935 L1730748 811526 L1729339 812935 L1732157 812935 "/>
<path d="M1702567 841116 L1702567 827026 L1716658 825617 L1715249 827026 L1713840 829844 L1713840 836889 L1715249 839707 L1716658 841116 L1719476 842525 L1726521 842525 L1729339 841116 L1730748 839707 L1732157 836889 L1732157 829844 L1730748 827026 L1729339 825617 "/>
<path d="M1718067 860843 L1732157 860843 "/>
<path d="M1702567 850980 L1718067 860843 L1702567 870706 "/>
<path d="M1732157 880570 L1702567 880570 L1723703 890433 L1702567 900296 L1732157 900296 "/>
<path d="M1702567 928477 L1702567 914387 L1716658 912978 L1715249 914387 L1713840 917205 L1713840 924250 L1715249 927068 L1716658 928477 L1719476 929886 L1726521 929886 L1729339 928477 L1730748 927068 L1732157 924250 L1732157 917205 L1730748 914387 L1729339 912978 "/>
</g></g>
<g style="fill:#000084; fill-opacity:0.0;  stroke:#000084; stroke-width:1775.398056; stroke-opacity:1;  stroke-linecap:round; stroke-linejoin:round;">
<g transform="rotate(-90.000000 1647755.812315 743188.047062)">
<text x="1647755.812315" y="749106.040581" transform="scale(-1 1) translate(-3295511.624630 0)" textLength="17901.930393" font-size="15781.306186" lengthAdjust="spacingAndGlyphs" text-anchor="middle" opacity="0.01" style="font-family:monospace">U2</text>
</g>
<g class="stroked-text"><desc>U2</desc>
<path d="M1641274 734170 L1650855 734170 L1651982 734733 L1652546 735297 L1653110 736424 L1653110 738679 L1652546 739806 L1651982 740369 L1650855 740933 L1641274 740933 "/>
<path d="M1642401 746006 L1641837 746569 L1641274 747696 L1641274 750515 L1641837 751642 L1642401 752205 L1643528 752769 L1644655 752769 L1646346 752205 L1653110 745442 L1653110 752769 "/>
</g></g>
<g style="fill:#000084; fill-opacity:0.01;  stroke:#000084; stroke-width:4438.495139; stroke-opacity:1;  stroke-linecap:round; stroke-linejoin:round;">
<text x="1324855.290968" y="1674532.277018" transform="scale(-1 1) translate(-2649710.581936 0)" textLength="111824.718895" font-size="39453.280259" lengthAdjust="spacingAndGlyphs" text-anchor="middle" opacity="0.01" style="font-family:monospace">220R</text>
<g class="stroked-text"><desc>220R</desc>
<path d="M1376285 1646351 L1374876 1644942 L1372058 1643533 L1365013 1643533 L1362194 1644942 L1360785 1646351 L1359376 1649169 L1359376 1651987 L1360785 1656214 L1377694 1673123 L1359376 1673123 "/>
<path d="M1348104 1646351 L1346695 1644942 L1343877 1643533 L1336832 1643533 L1334014 1644942 L1332605 1646351 L1331195 1649169 L1331195 1651987 L1332605 1656214 L1349513 1673123 L1331195 1673123 "/>
<path d="M1312878 1643533 L1310060 1643533 L1307242 1644942 L1305833 1646351 L1304424 1649169 L1303015 1654805 L1303015 1661850 L1304424 1667487 L1305833 1670305 L1307242 1671714 L1310060 1673123 L1312878 1673123 L1315696 1671714 L1317105 1670305 L1318514 1667487 L1319923 1661850 L1319923 1654805 L1318514 1649169 L1317105 1646351 L1315696 1644942 L1312878 1643533 "/>
<path d="M1273425 1673123 L1283288 1659032 "/>
<path d="M1290333 1673123 L1290333 1643533 L1279061 1643533 L1276243 1644942 L1274834 1646351 L1273425 1649169 L1273425 1653396 L1274834 1656214 L1276243 1657623 L1279061 1659032 L1290333 1659032 "/>
</g></g>
<g style="fill:#000084; fill-opacity:0.01;  stroke:#000084; stroke-width:2367.197407; stroke-opacity:1;  stroke-linecap:round; stroke-linejoin:round;">
<text x="1324855.290968" y="1618311.338594" transform="scale(-1 1) translate(-2649710.581936 0)" textLength="37205.863041" font-size="19726.625335" lengthAdjust="spacingAndGlyphs" text-anchor="middle" opacity="0.01" style="font-family:monospace">R17</text>
<g class="stroked-text"><desc>R17</desc>
<path d="M1334366 1617606 L1339298 1610561 "/>
<path d="M1342820 1617606 L1342820 1602811 L1337184 1602811 L1335775 1603516 L1335070 1604220 L1334366 1605629 L1334366 1607743 L1335070 1609152 L1335775 1609857 L1337184 1610561 L1342820 1610561 "/>
<path d="M1320275 1617606 L1328730 1617606 "/>
<path d="M1324503 1617606 L1324503 1602811 L1325912 1604925 L1327321 1606334 L1328730 1607038 "/>
<path d="M1315344 1602811 L1305480 1602811 L1311821 1617606 "/>
</g></g>
<g style="fill:#000084; fill-opacity:0.01;  stroke:#000084; stroke-width:4438.495139; stroke-opacity:1;  stroke-linecap:round; stroke-linejoin:round;">
<text x="1869680.569255" y="404382.918134" transform="scale(-1 1) translate(-3739361.138509 0)" textLength="253369.039031" font-size="39453.280259" lengthAdjust="spacingAndGlyphs" text-anchor="middle" opacity="0.01" style="font-family:monospace">PCA9306DP</text>
<g class="stroked-text"><desc>PCA9306DP</desc>
<path d="M1990858 402973 L1990858 373383 L1979586 373383 L1976768 374792 L1975359 376201 L1973949 379020 L1973949 383247 L1975359 386065 L1976768 387474 L1979586 388883 L1990858 388883 "/>
<path d="M1944359 400155 L1945769 401564 L1949996 402973 L1952814 402973 L1957041 401564 L1959859 398746 L1961268 395928 L1962677 390292 L1962677 386065 L1961268 380429 L1959859 377611 L1957041 374792 L1952814 373383 L1949996 373383 L1945769 374792 L1944359 376201 "/>
<path d="M1933087 394519 L1918997 394519 "/>
<path d="M1935905 402973 L1926042 373383 L1916179 402973 "/>
<path d="M1904906 402973 L1899270 402973 L1896452 401564 L1895043 400155 L1892225 395928 L1890816 390292 L1890816 379020 L1892225 376201 L1893634 374792 L1896452 373383 L1902088 373383 L1904906 374792 L1906315 376201 L1907724 379020 L1907724 386065 L1906315 388883 L1904906 390292 L1902088 391701 L1896452 391701 L1893634 390292 L1892225 388883 L1890816 386065 "/>
<path d="M1880952 373383 L1862635 373383 L1872498 384656 L1868271 384656 L1865453 386065 L1864044 387474 L1862635 390292 L1862635 397337 L1864044 400155 L1865453 401564 L1868271 402973 L1876725 402973 L1879543 401564 L1880952 400155 "/>
<path d="M1844317 373383 L1841499 373383 L1838681 374792 L1837272 376201 L1835863 379020 L1834454 384656 L1834454 391701 L1835863 397337 L1837272 400155 L1838681 401564 L1841499 402973 L1844317 402973 L1847135 401564 L1848544 400155 L1849953 397337 L1851362 391701 L1851362 384656 L1849953 379020 L1848544 376201 L1847135 374792 L1844317 373383 "/>
<path d="M1809091 373383 L1814727 373383 L1817545 374792 L1818954 376201 L1821772 380429 L1823182 386065 L1823182 397337 L1821772 400155 L1820363 401564 L1817545 402973 L1811909 402973 L1809091 401564 L1807682 400155 L1806273 397337 L1806273 390292 L1807682 387474 L1809091 386065 L1811909 384656 L1817545 384656 L1820363 386065 L1821772 387474 L1823182 390292 "/>
<path d="M1793592 402973 L1793592 373383 L1786546 373383 L1782319 374792 L1779501 377611 L1778092 380429 L1776683 386065 L1776683 390292 L1778092 395928 L1779501 398746 L1782319 401564 L1786546 402973 L1793592 402973 "/>
<path d="M1764002 402973 L1764002 373383 L1752729 373383 L1749911 374792 L1748502 376201 L1747093 379020 L1747093 383247 L1748502 386065 L1749911 387474 L1752729 388883 L1764002 388883 "/>
</g><text x="1869680.569255" y="323010.507257" transform="scale(-1 1) translate(-3739361.138509 0)" textLength="29737.917430" font-size="23671.974074" lengthAdjust="spacingAndGlyphs" text-anchor="middle" opacity="0.01" style="font-family:monospace">U5</text>
<g class="stroked-text"><desc>U5</desc>
<path d="M1883207 304411 L1883207 318783 L1882361 320474 L1881516 321319 L1879825 322165 L1876443 322165 L1874753 321319 L1873907 320474 L1873062 318783 L1873062 304411 "/>
<path d="M1856153 304411 L1864607 304411 L1865453 312865 L1864607 312019 L1862917 311174 L1858689 311174 L1856999 312019 L1856153 312865 L1855308 314556 L1855308 318783 L1856153 320474 L1856999 321319 L1858689 322165 L1862917 322165 L1864607 321319 L1865453 320474 "/>
</g><text x="1453201.775398" y="1674532.277018" transform="scale(-1 1) translate(-2906403.550796 0)" textLength="74545.591095" font-size="39453.280259" lengthAdjust="spacingAndGlyphs" text-anchor="middle" opacity="0.01" style="font-family:monospace">20k</text>
<g class="stroked-text"><desc>20k</desc>
<path d="M1487723 1646351 L1486314 1644942 L1483496 1643533 L1476451 1643533 L1473632 1644942 L1472223 1646351 L1470814 1649169 L1470814 1651987 L1472223 1656214 L1489132 1673123 L1470814 1673123 "/>
<path d="M1452497 1643533 L1449679 1643533 L1446861 1644942 L1445452 1646351 L1444042 1649169 L1442633 1654805 L1442633 1661850 L1444042 1667487 L1445452 1670305 L1446861 1671714 L1449679 1673123 L1452497 1673123 L1455315 1671714 L1456724 1670305 L1458133 1667487 L1459542 1661850 L1459542 1654805 L1458133 1649169 L1456724 1646351 L1455315 1644942 L1452497 1643533 "/>
<path d="M1429952 1673123 L1429952 1643533 "/>
<path d="M1427134 1661850 L1418680 1673123 "/>
<path d="M1418680 1653396 L1429952 1664668 "/>
</g></g>
<g style="fill:#000084; fill-opacity:0.01;  stroke:#000084; stroke-width:2367.197407; stroke-opacity:1;  stroke-linecap:round; stroke-linejoin:round;">
<text x="1453201.775398" y="1618311.338594" transform="scale(-1 1) translate(-2906403.550796 0)" textLength="37205.863041" font-size="19726.625335" lengthAdjust="spacingAndGlyphs" text-anchor="middle" opacity="0.01" style="font-family:monospace">R15</text>
<g class="stroked-text"><desc>R15</desc>
<path d="M1462712 1617606 L1467644 1610561 "/>
<path d="M1471167 1617606 L1471167 1602811 L1465530 1602811 L1464121 1603516 L1463417 1604220 L1462712 1605629 L1462712 1607743 L1463417 1609152 L1464121 1609857 L1465530 1610561 L1471167 1610561 "/>
<path d="M1448622 1617606 L1457076 1617606 "/>
<path d="M1452849 1617606 L1452849 1602811 L1454258 1604925 L1455667 1606334 L1457076 1607038 "/>
<path d="M1435236 1602811 L1442281 1602811 L1442986 1609857 L1442281 1609152 L1440872 1608447 L1437349 1608447 L1435940 1609152 L1435236 1609857 L1434531 1611266 L1434531 1614788 L1435236 1616197 L1435940 1616902 L1437349 1617606 L1440872 1617606 L1442281 1616902 L1442986 1616197 "/>
</g><g transform="rotate(-90.000000 905047.625757 963633.305622)">
<text x="905047.625757" y="971030.797520" transform="scale(-1 1) translate(-1810095.251515 0)" textLength="25808.073834" font-size="19726.625335" lengthAdjust="spacingAndGlyphs" text-anchor="middle" opacity="0.01" style="font-family:monospace">R7</text>
</g>
<g class="stroked-text"><desc>R7</desc>
<path d="M911740 961167 L904695 956235 "/>
<path d="M911740 952713 L896945 952713 L896945 958349 L897650 959758 L898354 960462 L899763 961167 L901877 961167 L903286 960462 L903990 959758 L904695 958349 L904695 952713 "/>
<path d="M896945 966099 L896945 975962 L911740 969621 "/>
</g></g>
<g style="fill:#000084; fill-opacity:0.0;  stroke:#000084; stroke-width:4438.495139; stroke-opacity:1;  stroke-linecap:round; stroke-linejoin:round;">
<g transform="rotate(-90.000000 1398460.335353 1766261.176553)">
<text x="1398460.335353" y="1781056.160349" transform="scale(-1 1) translate(-2796920.670706 0)" textLength="233642.384106" font-size="39453.280259" lengthAdjust="spacingAndGlyphs" text-anchor="middle" opacity="0.01" style="font-family:monospace">BC817-25</text>
</g>
<g class="stroked-text"><desc>BC817-25</desc>
<path d="M1396346 1664809 L1397755 1669036 L1399164 1670446 L1401982 1671855 L1406210 1671855 L1409028 1670446 L1410437 1669036 L1411846 1666218 L1411846 1654946 L1382256 1654946 L1382256 1664809 L1383665 1667627 L1385074 1669036 L1387892 1670446 L1390710 1670446 L1393528 1669036 L1394937 1667627 L1396346 1664809 L1396346 1654946 "/>
<path d="M1409028 1701445 L1410437 1700035 L1411846 1695808 L1411846 1692990 L1410437 1688763 L1407619 1685945 L1404801 1684536 L1399164 1683127 L1394937 1683127 L1389301 1684536 L1386483 1685945 L1383665 1688763 L1382256 1692990 L1382256 1695808 L1383665 1700035 L1385074 1701445 "/>
<path d="M1394937 1718353 L1393528 1715535 L1392119 1714126 L1389301 1712717 L1387892 1712717 L1385074 1714126 L1383665 1715535 L1382256 1718353 L1382256 1723989 L1383665 1726807 L1385074 1728216 L1387892 1729625 L1389301 1729625 L1392119 1728216 L1393528 1726807 L1394937 1723989 L1394937 1718353 L1396346 1715535 L1397755 1714126 L1400573 1712717 L1406210 1712717 L1409028 1714126 L1410437 1715535 L1411846 1718353 L1411846 1723989 L1410437 1726807 L1409028 1728216 L1406210 1729625 L1400573 1729625 L1397755 1728216 L1396346 1726807 L1394937 1723989 "/>
<path d="M1411846 1757806 L1411846 1740898 "/>
<path d="M1411846 1749352 L1382256 1749352 L1386483 1746534 L1389301 1743716 L1390710 1740898 "/>
<path d="M1382256 1767670 L1382256 1787396 L1411846 1774715 "/>
<path d="M1400573 1798669 L1400573 1821213 "/>
<path d="M1385074 1833895 L1383665 1835304 L1382256 1838122 L1382256 1845167 L1383665 1847985 L1385074 1849394 L1387892 1850803 L1390710 1850803 L1394937 1849394 L1411846 1832486 L1411846 1850803 "/>
<path d="M1382256 1877575 L1382256 1863485 L1396346 1862076 L1394937 1863485 L1393528 1866303 L1393528 1873348 L1394937 1876166 L1396346 1877575 L1399164 1878984 L1406210 1878984 L1409028 1877575 L1410437 1876166 L1411846 1873348 L1411846 1866303 L1410437 1863485 L1409028 1862076 "/>
</g></g>
<g style="fill:#000084; fill-opacity:0.0;  stroke:#000084; stroke-width:1479.498380; stroke-opacity:1;  stroke-linecap:round; stroke-linejoin:round;">
<g transform="rotate(-90.000000 1327444.413132 1766261.176553)">
<text x="1327444.413132" y="1770995.571368" transform="scale(-1 1) translate(-2654888.826265 0)" textLength="13167.535578" font-size="12625.033113" lengthAdjust="spacingAndGlyphs" text-anchor="middle" opacity="0.01" style="font-family:monospace">Q2</text>
</g>
<g class="stroked-text"><desc>Q2</desc>
<path d="M1332629 1765359 L1332178 1764457 L1331276 1763555 L1329924 1762203 L1329473 1761301 L1329473 1760399 "/>
<path d="M1331727 1760850 L1331276 1759948 L1330375 1759046 L1328571 1758595 L1325415 1758595 L1323611 1759046 L1322710 1759948 L1322259 1760850 L1322259 1762654 L1322710 1763555 L1323611 1764457 L1325415 1764908 L1328571 1764908 L1330375 1764457 L1331276 1763555 L1331727 1762654 L1331727 1760850 "/>
<path d="M1323160 1768515 L1322710 1768966 L1322259 1769868 L1322259 1772122 L1322710 1773024 L1323160 1773475 L1324062 1773926 L1324964 1773926 L1326317 1773475 L1331727 1768064 L1331727 1773926 "/>
</g></g>
<g style="fill:#000084; fill-opacity:0.0;  stroke:#000084; stroke-width:4438.495139; stroke-opacity:1;  stroke-linecap:round; stroke-linejoin:round;">
<g transform="rotate(-90.000000 1722618.430323 871904.406087)">
<text x="1722618.430323" y="886699.389883" transform="scale(-1 1) translate(-3445236.860645 0)" textLength="106573.209807" font-size="39453.280259" lengthAdjust="spacingAndGlyphs" text-anchor="middle" opacity="0.01" style="font-family:monospace">10uF</text>
</g>
<g class="stroked-text"><desc>10uF</desc>
<path d="M1736004 840200 L1736004 823292 "/>
<path d="M1736004 831746 L1706414 831746 L1710641 828928 L1713459 826110 L1714868 823292 "/>
<path d="M1706414 858518 L1706414 861336 L1707823 864154 L1709232 865563 L1712050 866972 L1717686 868381 L1724731 868381 L1730368 866972 L1733186 865563 L1734595 864154 L1736004 861336 L1736004 858518 L1734595 855700 L1733186 854291 L1730368 852882 L1724731 851473 L1717686 851473 L1712050 852882 L1709232 854291 L1707823 855700 L1706414 858518 "/>
<path d="M1716277 893744 L1736004 893744 "/>
<path d="M1716277 881063 L1731777 881063 L1734595 882472 L1736004 885290 L1736004 889517 L1734595 892335 L1733186 893744 "/>
<path d="M1720504 917698 L1720504 907835 "/>
<path d="M1736004 907835 L1706414 907835 L1706414 921925 "/>
</g></g>
<g style="fill:#000084; fill-opacity:0.0;  stroke:#000084; stroke-width:2367.197407; stroke-opacity:1;  stroke-linecap:round; stroke-linejoin:round;">
<g transform="rotate(-90.000000 1672907.284768 871904.406087)">
<text x="1672907.284768" y="879301.897985" transform="scale(-1 1) translate(-3345814.569536 0)" textLength="23115.386783" font-size="19726.625335" lengthAdjust="spacingAndGlyphs" text-anchor="middle" opacity="0.01" style="font-family:monospace">C7</text>
</g>
<g class="stroked-text"><desc>C7</desc>
<path d="M1678191 869438 L1678895 868734 L1679600 866620 L1679600 865211 L1678895 863097 L1677486 861688 L1676077 860984 L1673259 860279 L1671145 860279 L1668327 860984 L1666918 861688 L1665509 863097 L1664805 865211 L1664805 866620 L1665509 868734 L1666214 869438 "/>
<path d="M1664805 874370 L1664805 884233 L1679600 877892 "/>
</g><g transform="rotate(-90.000000 733425.813724 892617.383401)">
<text x="733425.813724" y="900014.875299" transform="scale(-1 1) translate(-1466851.627448 0)" textLength="39898.550092" font-size="19726.625335" lengthAdjust="spacingAndGlyphs" text-anchor="middle" opacity="0.01" style="font-family:monospace">C11</text>
</g>
<g class="stroked-text"><desc>C11</desc>
<path d="M738709 883106 L739414 882401 L740118 880288 L740118 878879 L739414 876765 L738005 875356 L736596 874652 L733778 873947 L731664 873947 L728846 874652 L727437 875356 L726028 876765 L725323 878879 L725323 880288 L726028 882401 L726732 883106 "/>
<path d="M740118 897196 L740118 888742 "/>
<path d="M740118 892969 L725323 892969 L727437 891560 L728846 890151 L729550 888742 "/>
<path d="M740118 911287 L740118 902832 "/>
<path d="M740118 907060 L725323 907060 L727437 905651 L728846 904242 L729550 902832 "/>
</g></g>
<g style="fill:#000084; fill-opacity:0.0;  stroke:#000084; stroke-width:4438.495139; stroke-opacity:1;  stroke-linecap:round; stroke-linejoin:round;">
<g transform="rotate(-90.000000 1811388.333098 871904.406087)">
<text x="1811388.333098" y="886699.389883" transform="scale(-1 1) translate(-3622776.666197 0)" textLength="77238.278146" font-size="39453.280259" lengthAdjust="spacingAndGlyphs" text-anchor="middle" opacity="0.01" style="font-family:monospace">1uF</text>
</g>
<g class="stroked-text"><desc>1uF</desc>
<path d="M1824774 854291 L1824774 837382 "/>
<path d="M1824774 845837 L1795184 845837 L1799411 843018 L1802229 840200 L1803638 837382 "/>
<path d="M1805047 879654 L1824774 879654 "/>
<path d="M1805047 866972 L1820547 866972 L1823365 868381 L1824774 871199 L1824774 875427 L1823365 878245 L1821956 879654 "/>
<path d="M1809274 903607 L1809274 893744 "/>
<path d="M1824774 893744 L1795184 893744 L1795184 907835 "/>
</g></g>
<g style="fill:#000084; fill-opacity:0.0;  stroke:#000084; stroke-width:2367.197407; stroke-opacity:1;  stroke-linecap:round; stroke-linejoin:round;">
<g transform="rotate(-90.000000 1761677.187544 871904.406087)">
<text x="1761677.187544" y="879301.897985" transform="scale(-1 1) translate(-3523354.375088 0)" textLength="23115.386783" font-size="19726.625335" lengthAdjust="spacingAndGlyphs" text-anchor="middle" opacity="0.01" style="font-family:monospace">C6</text>
</g>
<g class="stroked-text"><desc>C6</desc>
<path d="M1766961 869438 L1767665 868734 L1768370 866620 L1768370 865211 L1767665 863097 L1766256 861688 L1764847 860984 L1762029 860279 L1759915 860279 L1757097 860984 L1755688 861688 L1754279 863097 L1753575 865211 L1753575 866620 L1754279 868734 L1754984 869438 "/>
<path d="M1753575 882119 L1753575 879301 L1754279 877892 L1754984 877188 L1757097 875779 L1759915 875074 L1765552 875074 L1766961 875779 L1767665 876483 L1768370 877892 L1768370 880710 L1767665 882119 L1766961 882824 L1765552 883529 L1762029 883529 L1760620 882824 L1759915 882119 L1759211 880710 L1759211 877892 L1759915 876483 L1760620 875779 L1762029 875074 "/>
</g><g transform="rotate(-90.000000 1507203.466253 741708.548683)">
<text x="1507203.466253" y="749106.040581" transform="scale(-1 1) translate(-3014406.932507 0)" textLength="25808.073834" font-size="19726.625335" lengthAdjust="spacingAndGlyphs" text-anchor="middle" opacity="0.01" style="font-family:monospace">R6</text>
</g>
<g class="stroked-text"><desc>R6</desc>
<path d="M1513896 739242 L1506851 734311 "/>
<path d="M1513896 730788 L1499101 730788 L1499101 736424 L1499805 737833 L1500510 738538 L1501919 739242 L1504033 739242 L1505442 738538 L1506146 737833 L1506851 736424 L1506851 730788 "/>
<path d="M1499101 751924 L1499101 749106 L1499805 747696 L1500510 746992 L1502624 745583 L1505442 744878 L1511078 744878 L1512487 745583 L1513191 746287 L1513896 747696 L1513896 750515 L1513191 751924 L1512487 752628 L1511078 753333 L1507555 753333 L1506146 752628 L1505442 751924 L1504737 750515 L1504737 747696 L1505442 746287 L1506146 745583 L1507555 744878 "/>
</g><g transform="rotate(-90.000000 1990999.436382 616321.061012)">
<text x="1990999.436382" y="623718.552910" transform="scale(-1 1) translate(-3981998.872763 0)" textLength="25808.073834" font-size="19726.625335" lengthAdjust="spacingAndGlyphs" text-anchor="middle" opacity="0.01" style="font-family:monospace">R2</text>
</g>
<g class="stroked-text"><desc>R2</desc>
<path d="M1997692 613855 L1990647 608923 "/>
<path d="M1997692 605400 L1982897 605400 L1982897 611037 L1983601 612446 L1984306 613150 L1985715 613855 L1987829 613855 L1989238 613150 L1989942 612446 L1990647 611037 L1990647 605400 "/>
<path d="M1984306 619491 L1983601 620195 L1982897 621604 L1982897 625127 L1983601 626536 L1984306 627241 L1985715 627945 L1987124 627945 L1989238 627241 L1997692 618786 L1997692 627945 "/>
</g></g>
<g style="fill:#000084; fill-opacity:0.0;  stroke:#000084; stroke-width:4438.495139; stroke-opacity:1;  stroke-linecap:round; stroke-linejoin:round;">
<g transform="rotate(-90.000000 1455790.897562 1946612.029026)">
<text x="1455790.897562" y="1965401.658447" transform="scale(-1 1) translate(-2911581.795125 0)" textLength="70291.678174" font-size="50105.668592" lengthAdjust="spacingAndGlyphs" text-anchor="middle" opacity="0.01" style="font-family:monospace">D4</text>
</g>
<g class="stroked-text"><desc>D4</desc>
<path d="M1472791 1918874 L1435211 1918874 L1435211 1927822 L1437001 1933190 L1440580 1936769 L1444159 1938559 L1451317 1940348 L1456685 1940348 L1463843 1938559 L1467422 1936769 L1471001 1933190 L1472791 1927822 L1472791 1918874 "/>
<path d="M1447738 1972559 L1472791 1972559 "/>
<path d="M1433422 1963612 L1460264 1954664 L1460264 1977928 "/>
</g><g transform="rotate(-90.000000 1454287.727209 1891746.311117)">
<text x="1454287.727209" y="1910535.940538" transform="scale(-1 1) translate(-2908575.454417 0)" textLength="31809.215161" font-size="50105.668592" lengthAdjust="spacingAndGlyphs" text-anchor="middle" opacity="0.01" style="font-family:monospace">K</text>
</g>
<g class="stroked-text"><desc>K</desc>
<path d="M1471287 1881904 L1433708 1881904 "/>
<path d="M1471287 1903377 L1449813 1887272 "/>
<path d="M1433708 1903377 L1455182 1881904 "/>
</g></g>
<g style="fill:#000084; fill-opacity:0.0;  stroke:#000084; stroke-width:2367.197407; stroke-opacity:1;  stroke-linecap:round; stroke-linejoin:round;">
<g transform="rotate(-90.000000 992338.030154 531619.778780)">
<text x="992338.030154" y="539017.270678" transform="scale(-1 1) translate(-1984676.060307 0)" textLength="23115.386783" font-size="19726.625335" lengthAdjust="spacingAndGlyphs" text-anchor="middle" opacity="0.01" style="font-family:monospace">C2</text>
</g>
<g class="stroked-text"><desc>C2</desc>
<path d="M997621 529153 L998326 528449 L999030 526335 L999030 524926 L998326 522813 L996917 521404 L995508 520699 L992690 519995 L990576 519995 L987758 520699 L986349 521404 L984940 522813 L984236 524926 L984236 526335 L984940 528449 L985645 529153 "/>
<path d="M985645 534790 L984940 535494 L984236 536903 L984236 540426 L984940 541835 L985645 542539 L987054 543244 L988463 543244 L990576 542539 L999030 534085 L999030 543244 "/>
</g><g transform="rotate(-90.000000 1597452.867409 541606.392842)">
<text x="1597452.867409" y="549003.884740" transform="scale(-1 1) translate(-3194905.734818 0)" textLength="39898.550092" font-size="19726.625335" lengthAdjust="spacingAndGlyphs" text-anchor="middle" opacity="0.01" style="font-family:monospace">R12</text>
</g>
<g class="stroked-text"><desc>R12</desc>
<path d="M1604145 532095 L1597100 527163 "/>
<path d="M1604145 523641 L1589350 523641 L1589350 529277 L1590055 530686 L1590759 531390 L1592168 532095 L1594282 532095 L1595691 531390 L1596396 530686 L1597100 529277 L1597100 523641 "/>
<path d="M1604145 546185 L1604145 537731 "/>
<path d="M1604145 541958 L1589350 541958 L1591464 540549 L1592873 539140 L1593577 537731 "/>
<path d="M1590759 551821 L1590055 552526 L1589350 553935 L1589350 557458 L1590055 558867 L1590759 559571 L1592168 560276 L1593577 560276 L1595691 559571 L1604145 551117 L1604145 560276 "/>
</g></g>
<g style="fill:#000084; fill-opacity:0.01;  stroke:#000084; stroke-width:4438.495139; stroke-opacity:1;  stroke-linecap:round; stroke-linejoin:round;">
<text x="1467996.759194" y="1556172.406651" transform="scale(-1 1) translate(-2935993.518388 0)" textLength="105419.201071" font-size="39453.280259" lengthAdjust="spacingAndGlyphs" text-anchor="middle" opacity="0.01" style="font-family:monospace">10uF</text>
<g class="stroked-text"><desc>10uF</desc>
<path d="M1499700 1554763 L1516608 1554763 "/>
<path d="M1508154 1554763 L1508154 1525173 L1510972 1529400 L1513790 1532218 L1516608 1533627 "/>
<path d="M1481382 1525173 L1478564 1525173 L1475746 1526582 L1474337 1527991 L1472928 1530809 L1471519 1536445 L1471519 1543490 L1472928 1549127 L1474337 1551945 L1475746 1553354 L1478564 1554763 L1481382 1554763 L1484200 1553354 L1485609 1551945 L1487018 1549127 L1488427 1543490 L1488427 1536445 L1487018 1530809 L1485609 1527991 L1484200 1526582 L1481382 1525173 "/>
<path d="M1446156 1535036 L1446156 1554763 "/>
<path d="M1458837 1535036 L1458837 1550536 L1457428 1553354 L1454610 1554763 L1450383 1554763 L1447565 1553354 L1446156 1551945 "/>
<path d="M1422202 1539263 L1432066 1539263 "/>
<path d="M1432066 1554763 L1432066 1525173 L1417975 1525173 "/>
</g></g>
<g style="fill:#000084; fill-opacity:0.01;  stroke:#000084; stroke-width:2367.197407; stroke-opacity:1;  stroke-linecap:round; stroke-linejoin:round;">
<text x="1467996.759194" y="1499951.468226" transform="scale(-1 1) translate(-2935993.518388 0)" textLength="37205.863041" font-size="19726.625335" lengthAdjust="spacingAndGlyphs" text-anchor="middle" opacity="0.01" style="font-family:monospace">C12</text>
<g class="stroked-text"><desc>C12</desc>
<path d="M1477507 1497837 L1478212 1498542 L1480325 1499246 L1481734 1499246 L1483848 1498542 L1485257 1497133 L1485962 1495724 L1486666 1492906 L1486666 1490792 L1485962 1487974 L1485257 1486565 L1483848 1485156 L1481734 1484451 L1480325 1484451 L1478212 1485156 L1477507 1485860 "/>
<path d="M1463417 1499246 L1471871 1499246 "/>
<path d="M1467644 1499246 L1467644 1484451 L1469053 1486565 L1470462 1487974 L1471871 1488679 "/>
<path d="M1457781 1485860 L1457076 1485156 L1455667 1484451 L1452144 1484451 L1450735 1485156 L1450031 1485860 L1449326 1487270 L1449326 1488679 L1450031 1490792 L1458485 1499246 L1449326 1499246 "/>
</g></g>
<g style="fill:#000084; fill-opacity:0.0;  stroke:#000084; stroke-width:4438.495139; stroke-opacity:1;  stroke-linecap:round; stroke-linejoin:round;">
<g transform="rotate(-90.000000 1657372.551782 1766261.176553)">
<text x="1657372.551782" y="1781056.160349" transform="scale(-1 1) translate(-3314745.103565 0)" textLength="233642.384106" font-size="39453.280259" lengthAdjust="spacingAndGlyphs" text-anchor="middle" opacity="0.01" style="font-family:monospace">BC817-25</text>
</g>
<g class="stroked-text"><desc>BC817-25</desc>
<path d="M1655258 1664809 L1656668 1669036 L1658077 1670446 L1660895 1671855 L1665122 1671855 L1667940 1670446 L1669349 1669036 L1670758 1666218 L1670758 1654946 L1641168 1654946 L1641168 1664809 L1642577 1667627 L1643986 1669036 L1646804 1670446 L1649622 1670446 L1652440 1669036 L1653849 1667627 L1655258 1664809 L1655258 1654946 "/>
<path d="M1667940 1701445 L1669349 1700035 L1670758 1695808 L1670758 1692990 L1669349 1688763 L1666531 1685945 L1663713 1684536 L1658077 1683127 L1653849 1683127 L1648213 1684536 L1645395 1685945 L1642577 1688763 L1641168 1692990 L1641168 1695808 L1642577 1700035 L1643986 1701445 "/>
<path d="M1653849 1718353 L1652440 1715535 L1651031 1714126 L1648213 1712717 L1646804 1712717 L1643986 1714126 L1642577 1715535 L1641168 1718353 L1641168 1723989 L1642577 1726807 L1643986 1728216 L1646804 1729625 L1648213 1729625 L1651031 1728216 L1652440 1726807 L1653849 1723989 L1653849 1718353 L1655258 1715535 L1656668 1714126 L1659486 1712717 L1665122 1712717 L1667940 1714126 L1669349 1715535 L1670758 1718353 L1670758 1723989 L1669349 1726807 L1667940 1728216 L1665122 1729625 L1659486 1729625 L1656668 1728216 L1655258 1726807 L1653849 1723989 "/>
<path d="M1670758 1757806 L1670758 1740898 "/>
<path d="M1670758 1749352 L1641168 1749352 L1645395 1746534 L1648213 1743716 L1649622 1740898 "/>
<path d="M1641168 1767670 L1641168 1787396 L1670758 1774715 "/>
<path d="M1659486 1798669 L1659486 1821213 "/>
<path d="M1643986 1833895 L1642577 1835304 L1641168 1838122 L1641168 1845167 L1642577 1847985 L1643986 1849394 L1646804 1850803 L1649622 1850803 L1653849 1849394 L1670758 1832486 L1670758 1850803 "/>
<path d="M1641168 1877575 L1641168 1863485 L1655258 1862076 L1653849 1863485 L1652440 1866303 L1652440 1873348 L1653849 1876166 L1655258 1877575 L1658077 1878984 L1665122 1878984 L1667940 1877575 L1669349 1876166 L1670758 1873348 L1670758 1866303 L1669349 1863485 L1667940 1862076 "/>
</g></g>
<g style="fill:#000084; fill-opacity:0.0;  stroke:#000084; stroke-width:1479.498380; stroke-opacity:1;  stroke-linecap:round; stroke-linejoin:round;">
<g transform="rotate(-90.000000 1586356.629562 1766261.176553)">
<text x="1586356.629562" y="1770995.571368" transform="scale(-1 1) translate(-3172713.259124 0)" textLength="13167.535578" font-size="12625.033113" lengthAdjust="spacingAndGlyphs" text-anchor="middle" opacity="0.01" style="font-family:monospace">Q3</text>
</g>
<g class="stroked-text"><desc>Q3</desc>
<path d="M1591541 1765359 L1591091 1764457 L1590189 1763555 L1588836 1762203 L1588385 1761301 L1588385 1760399 "/>
<path d="M1590640 1760850 L1590189 1759948 L1589287 1759046 L1587483 1758595 L1584327 1758595 L1582524 1759046 L1581622 1759948 L1581171 1760850 L1581171 1762654 L1581622 1763555 L1582524 1764457 L1584327 1764908 L1587483 1764908 L1589287 1764457 L1590189 1763555 L1590640 1762654 L1590640 1760850 "/>
<path d="M1581171 1768064 L1581171 1773926 L1584778 1770770 L1584778 1772122 L1585229 1773024 L1585680 1773475 L1586582 1773926 L1588836 1773926 L1589738 1773475 L1590189 1773024 L1590640 1772122 L1590640 1769417 L1590189 1768515 L1589738 1768064 "/>
</g></g>
<g style="fill:#000084; fill-opacity:0.0;  stroke:#000084; stroke-width:2367.197407; stroke-opacity:1;  stroke-linecap:round; stroke-linejoin:round;">
<g transform="rotate(-90.000000 1863762.575736 719146.198394)">
<text x="1863762.575736" y="726543.690292" transform="scale(-1 1) translate(-3727525.151472 0)" textLength="26962.082570" font-size="19726.625335" lengthAdjust="spacingAndGlyphs" text-anchor="middle" opacity="0.01" style="font-family:monospace">R5</text>
</g>
<g class="stroked-text"><desc>R5</desc>
<path d="M1870455 716680 L1863410 711748 "/>
<path d="M1870455 708226 L1855660 708226 L1855660 713862 L1856365 715271 L1857069 715975 L1858478 716680 L1860592 716680 L1862001 715975 L1862705 715271 L1863410 713862 L1863410 708226 "/>
<path d="M1855660 730066 L1855660 723021 L1862705 722316 L1862001 723021 L1861296 724430 L1861296 727952 L1862001 729361 L1862705 730066 L1864114 730770 L1867637 730770 L1869046 730066 L1869750 729361 L1870455 727952 L1870455 724430 L1869750 723021 L1869046 722316 "/>
</g><g transform="rotate(-90.000000 905047.625757 864137.039594)">
<text x="905047.625757" y="871534.531492" transform="scale(-1 1) translate(-1810095.251515 0)" textLength="25808.073834" font-size="19726.625335" lengthAdjust="spacingAndGlyphs" text-anchor="middle" opacity="0.01" style="font-family:monospace">R8</text>
</g>
<g class="stroked-text"><desc>R8</desc>
<path d="M911740 861671 L904695 856739 "/>
<path d="M911740 853216 L896945 853216 L896945 858853 L897650 860262 L898354 860966 L899763 861671 L901877 861671 L903286 860966 L903990 860262 L904695 858853 L904695 853216 "/>
<path d="M903286 870125 L902581 868716 L901877 868011 L900468 867307 L899763 867307 L898354 868011 L897650 868716 L896945 870125 L896945 872943 L897650 874352 L898354 875057 L899763 875761 L900468 875761 L901877 875057 L902581 874352 L903286 872943 L903286 870125 L903990 868716 L904695 868011 L906104 867307 L908922 867307 L910331 868011 L911036 868716 L911740 870125 L911740 872943 L911036 874352 L910331 875057 L908922 875761 L906104 875761 L904695 875057 L903990 874352 L903286 872943 "/>
</g></g>
<g style="fill:#000084; fill-opacity:0.0;  stroke:#000084; stroke-width:4438.495139; stroke-opacity:1;  stroke-linecap:round; stroke-linejoin:round;">
<g transform="rotate(-90.000000 1332030.858109 746147.043821)">
<text x="1332030.858109" y="760942.027617" transform="scale(-1 1) translate(-2664061.716218 0)" textLength="105419.201071" font-size="39453.280259" lengthAdjust="spacingAndGlyphs" text-anchor="middle" opacity="0.01" style="font-family:monospace">22nF</text>
</g>
<g class="stroked-text"><desc>22nF</desc>
<path d="M1318644 697534 L1317235 698943 L1315826 701762 L1315826 708807 L1317235 711625 L1318644 713034 L1321463 714443 L1324281 714443 L1328508 713034 L1345416 696125 L1345416 714443 "/>
<path d="M1318644 725715 L1317235 727124 L1315826 729942 L1315826 736988 L1317235 739806 L1318644 741215 L1321463 742624 L1324281 742624 L1328508 741215 L1345416 724306 L1345416 742624 "/>
<path d="M1325690 755305 L1345416 755305 "/>
<path d="M1328508 755305 L1327099 756714 L1325690 759532 L1325690 763760 L1327099 766578 L1329917 767987 L1345416 767987 "/>
<path d="M1329917 791941 L1329917 782077 "/>
<path d="M1345416 782077 L1315826 782077 L1315826 796168 "/>
</g></g>
<g style="fill:#000084; fill-opacity:0.0;  stroke:#000084; stroke-width:2367.197407; stroke-opacity:1;  stroke-linecap:round; stroke-linejoin:round;">
<g transform="rotate(-90.000000 1282319.712555 746147.043821)">
<text x="1282319.712555" y="753544.535719" transform="scale(-1 1) translate(-2564639.425109 0)" textLength="23115.386783" font-size="19726.625335" lengthAdjust="spacingAndGlyphs" text-anchor="middle" opacity="0.01" style="font-family:monospace">C1</text>
</g>
<g class="stroked-text"><desc>C1</desc>
<path d="M1287603 743681 L1288308 742976 L1289012 740863 L1289012 739454 L1288308 737340 L1286899 735931 L1285490 735226 L1282671 734522 L1280558 734522 L1277740 735226 L1276331 735931 L1274922 737340 L1274217 739454 L1274217 740863 L1274922 742976 L1275626 743681 "/>
<path d="M1289012 757771 L1289012 749317 "/>
<path d="M1289012 753544 L1274217 753544 L1276331 752135 L1277740 750726 L1278444 749317 "/>
</g><g transform="rotate(-90.000000 1443585.035931 541976.267437)">
<text x="1443585.035931" y="549373.759335" transform="scale(-1 1) translate(-2887170.071861 0)" textLength="39898.550092" font-size="19726.625335" lengthAdjust="spacingAndGlyphs" text-anchor="middle" opacity="0.01" style="font-family:monospace">R11</text>
</g>
<g class="stroked-text"><desc>R11</desc>
<path d="M1450277 532465 L1443232 527533 "/>
<path d="M1450277 524010 L1435483 524010 L1435483 529647 L1436187 531056 L1436892 531760 L1438301 532465 L1440414 532465 L1441823 531760 L1442528 531056 L1443232 529647 L1443232 524010 "/>
<path d="M1450277 546555 L1450277 538101 "/>
<path d="M1450277 542328 L1435483 542328 L1437596 540919 L1439005 539510 L1439710 538101 "/>
<path d="M1450277 560646 L1450277 552191 "/>
<path d="M1450277 556418 L1435483 556418 L1437596 555009 L1439005 553600 L1439710 552191 "/>
</g></g>
<g style="fill:#000084; fill-opacity:0.01;  stroke:#000084; stroke-width:4438.495139; stroke-opacity:1;  stroke-linecap:round; stroke-linejoin:round;">
<text x="1297854.445540" y="1584282.875863" transform="scale(-1 1) translate(-2595708.891081 0)" textLength="58920.667888" font-size="39453.280259" lengthAdjust="spacingAndGlyphs" text-anchor="middle" opacity="0.01" style="font-family:monospace">M4</text>
<g class="stroked-text"><desc>M4</desc>
<path d="M1321808 1582873 L1321808 1553283 L1311944 1574419 L1302081 1553283 L1302081 1582873 "/>
<path d="M1275309 1563147 L1275309 1582873 "/>
<path d="M1282354 1551874 L1289400 1573010 L1271082 1573010 "/>
</g><text x="1297854.445540" y="1433374.041144" transform="scale(-1 1) translate(-2595708.891081 0)" textLength="52000.846837" font-size="39453.280259" lengthAdjust="spacingAndGlyphs" text-anchor="middle" opacity="0.01" style="font-family:monospace">D3</text>
<g class="stroked-text"><desc>D3</desc>
<path d="M1319694 1431964 L1319694 1402374 L1312649 1402374 L1308422 1403784 L1305604 1406602 L1304195 1409420 L1302786 1415056 L1302786 1419283 L1304195 1424919 L1305604 1427737 L1308422 1430555 L1312649 1431964 L1319694 1431964 "/>
<path d="M1292922 1402374 L1274605 1402374 L1284468 1413647 L1280241 1413647 L1277423 1415056 L1276014 1416465 L1274605 1419283 L1274605 1426328 L1276014 1429146 L1277423 1430555 L1280241 1431964 L1288695 1431964 L1291513 1430555 L1292922 1429146 "/>
</g><g transform="rotate(-90.000000 1391062.843455 1988185.933493)">
<text x="1391062.843455" y="2002980.917289" transform="scale(-1 1) translate(-2782125.686910 0)" textLength="23819.923912" font-size="39453.280259" lengthAdjust="spacingAndGlyphs" text-anchor="middle" opacity="0.01" style="font-family:monospace">R</text>
</g>
<g class="stroked-text"><desc>R</desc>
<path d="M1404448 1997344 L1390358 1987481 "/>
<path d="M1404448 1980436 L1374858 1980436 L1374858 1991708 L1376267 1994526 L1377676 1995935 L1380494 1997344 L1384722 1997344 L1387540 1995935 L1388949 1994526 L1390358 1991708 L1390358 1980436 "/>
</g></g>
<g style="fill:#000084; fill-opacity:0.01;  stroke:#000084; stroke-width:2367.197407; stroke-opacity:1;  stroke-linecap:round; stroke-linejoin:round;">
<g transform="rotate(-90.000000 1342239.396928 1988185.933493)">
<text x="1342239.396928" y="1995583.425391" transform="scale(-1 1) translate(-2684478.793857 0)" textLength="37205.863041" font-size="19726.625335" lengthAdjust="spacingAndGlyphs" text-anchor="middle" opacity="0.01" style="font-family:monospace">R16</text>
</g>
<g class="stroked-text"><desc>R16</desc>
<path d="M1348932 1978674 L1341887 1973743 "/>
<path d="M1348932 1970220 L1334137 1970220 L1334137 1975856 L1334841 1977265 L1335546 1977970 L1336955 1978674 L1339069 1978674 L1340478 1977970 L1341182 1977265 L1341887 1975856 L1341887 1970220 "/>
<path d="M1348932 1992765 L1348932 1984311 "/>
<path d="M1348932 1988538 L1334137 1988538 L1336250 1987129 L1337659 1985720 L1338364 1984311 "/>
<path d="M1334137 2005446 L1334137 2002628 L1334841 2001219 L1335546 2000515 L1337659 1999106 L1340478 1998401 L1346114 1998401 L1347523 1999106 L1348227 1999810 L1348932 2001219 L1348932 2004037 L1348227 2005446 L1347523 2006151 L1346114 2006855 L1342591 2006855 L1341182 2006151 L1340478 2005446 L1339773 2004037 L1339773 2001219 L1340478 1999810 L1341182 1999106 L1342591 1998401 "/>
</g><text x="2035384.387769" y="286023.047767" transform="scale(-1 1) translate(-4070768.775539 0)" textLength="39898.550092" font-size="19726.625335" lengthAdjust="spacingAndGlyphs" text-anchor="middle" opacity="0.01" style="font-family:monospace">R14</text>
<g class="stroked-text"><desc>R14</desc>
<path d="M2044895 285318 L2049827 278273 "/>
<path d="M2053349 285318 L2053349 270523 L2047713 270523 L2046304 271228 L2045599 271932 L2044895 273341 L2044895 275455 L2045599 276864 L2046304 277568 L2047713 278273 L2053349 278273 "/>
<path d="M2030804 285318 L2039259 285318 "/>
<path d="M2035032 285318 L2035032 270523 L2036441 272637 L2037850 274046 L2039259 274750 "/>
<path d="M2018123 275455 L2018123 285318 "/>
<path d="M2021646 269818 L2025168 280386 L2016010 280386 "/>
</g><text x="1473175.003523" y="337805.491053" transform="scale(-1 1) translate(-2946350.007045 0)" textLength="25808.073834" font-size="19726.625335" lengthAdjust="spacingAndGlyphs" text-anchor="middle" opacity="0.01" style="font-family:monospace">C9</text>
<g class="stroked-text"><desc>C9</desc>
<path d="M1475640 335691 L1476345 336396 L1478458 337100 L1479867 337100 L1481981 336396 L1483390 334987 L1484095 333578 L1484799 330760 L1484799 328646 L1484095 325828 L1483390 324419 L1481981 323010 L1479867 322305 L1478458 322305 L1476345 323010 L1475640 323715 "/>
<path d="M1468595 337100 L1465777 337100 L1464368 336396 L1463663 335691 L1462254 333578 L1461550 330760 L1461550 325124 L1462254 323715 L1462959 323010 L1464368 322305 L1467186 322305 L1468595 323010 L1469300 323715 L1470004 325124 L1470004 328646 L1469300 330055 L1468595 330760 L1467186 331464 L1464368 331464 L1462959 330760 L1462254 330055 L1461550 328646 "/>
</g></g>
<g style="fill:#000084; fill-opacity:0.01;  stroke:#000084; stroke-width:4438.495139; stroke-opacity:1;  stroke-linecap:round; stroke-linejoin:round;">
<text x="1402159.081302" y="830478.451458" transform="scale(-1 1) translate(-2804318.162604 0)" textLength="432317.889249" font-size="39453.280259" lengthAdjust="spacingAndGlyphs" text-anchor="middle" opacity="0.01" style="font-family:monospace">TLV840CADL14DBVR</text>
<g class="stroked-text"><desc>TLV840CADL14DBVR</desc>
<path d="M1617038 799479 L1600130 799479 "/>
<path d="M1608584 829069 L1608584 799479 "/>
<path d="M1576176 829069 L1590266 829069 L1590266 799479 "/>
<path d="M1570540 799479 L1560676 829069 L1550813 799479 "/>
<path d="M1536722 812160 L1539541 810751 L1540950 809342 L1542359 806524 L1542359 805115 L1540950 802297 L1539541 800888 L1536722 799479 L1531086 799479 L1528268 800888 L1526859 802297 L1525450 805115 L1525450 806524 L1526859 809342 L1528268 810751 L1531086 812160 L1536722 812160 L1539541 813569 L1540950 814978 L1542359 817797 L1542359 823433 L1540950 826251 L1539541 827660 L1536722 829069 L1531086 829069 L1528268 827660 L1526859 826251 L1525450 823433 L1525450 817797 L1526859 814978 L1528268 813569 L1531086 812160 "/>
<path d="M1500087 809342 L1500087 829069 "/>
<path d="M1507133 798070 L1514178 819206 L1495860 819206 "/>
<path d="M1478952 799479 L1476134 799479 L1473315 800888 L1471906 802297 L1470497 805115 L1469088 810751 L1469088 817797 L1470497 823433 L1471906 826251 L1473315 827660 L1476134 829069 L1478952 829069 L1481770 827660 L1483179 826251 L1484588 823433 L1485997 817797 L1485997 810751 L1484588 805115 L1483179 802297 L1481770 800888 L1478952 799479 "/>
<path d="M1439498 826251 L1440907 827660 L1445134 829069 L1447953 829069 L1452180 827660 L1454998 824842 L1456407 822024 L1457816 816387 L1457816 812160 L1456407 806524 L1454998 803706 L1452180 800888 L1447953 799479 L1445134 799479 L1440907 800888 L1439498 802297 "/>
<path d="M1428226 820615 L1414135 820615 "/>
<path d="M1431044 829069 L1421181 799479 L1411317 829069 "/>
<path d="M1401454 829069 L1401454 799479 L1394409 799479 L1390182 800888 L1387364 803706 L1385955 806524 L1384545 812160 L1384545 816387 L1385955 822024 L1387364 824842 L1390182 827660 L1394409 829069 L1401454 829069 "/>
<path d="M1357774 829069 L1371864 829069 L1371864 799479 "/>
<path d="M1332411 829069 L1349319 829069 "/>
<path d="M1340865 829069 L1340865 799479 L1343683 803706 L1346501 806524 L1349319 807933 "/>
<path d="M1307048 809342 L1307048 829069 "/>
<path d="M1314093 798070 L1321138 819206 L1302821 819206 "/>
<path d="M1291548 829069 L1291548 799479 L1284503 799479 L1280276 800888 L1277458 803706 L1276049 806524 L1274640 812160 L1274640 816387 L1276049 822024 L1277458 824842 L1280276 827660 L1284503 829069 L1291548 829069 "/>
<path d="M1252095 813569 L1247868 814978 L1246459 816387 L1245050 819206 L1245050 823433 L1246459 826251 L1247868 827660 L1250686 829069 L1261958 829069 L1261958 799479 L1252095 799479 L1249277 800888 L1247868 802297 L1246459 805115 L1246459 807933 L1247868 810751 L1249277 812160 L1252095 813569 L1261958 813569 "/>
<path d="M1236596 799479 L1226732 829069 L1216869 799479 "/>
<path d="M1190097 829069 L1199960 814978 "/>
<path d="M1207006 829069 L1207006 799479 L1195733 799479 L1192915 800888 L1191506 802297 L1190097 805115 L1190097 809342 L1191506 812160 L1192915 813569 L1195733 814978 L1207006 814978 "/>
</g></g>
<g style="fill:#000084; fill-opacity:0.01;  stroke:#000084; stroke-width:1775.398056; stroke-opacity:1;  stroke-linecap:round; stroke-linejoin:round;">
<text x="1402159.081302" y="750585.538960" transform="scale(-1 1) translate(-2804318.162604 0)" textLength="17901.930393" font-size="15781.306186" lengthAdjust="spacingAndGlyphs" text-anchor="middle" opacity="0.01" style="font-family:monospace">U1</text>
<g class="stroked-text"><desc>U1</desc>
<path d="M1411176 738185 L1411176 747767 L1410613 748894 L1410049 749458 L1408922 750021 L1406668 750021 L1405540 749458 L1404977 748894 L1404413 747767 L1404413 738185 "/>
<path d="M1392577 750021 L1399340 750021 "/>
<path d="M1395959 750021 L1395959 738185 L1397086 739876 L1398213 741004 L1399340 741567 "/>
</g></g>
<g style="fill:#000084; fill-opacity:0.01;  stroke:#000084; stroke-width:4438.495139; stroke-opacity:1;  stroke-linecap:round; stroke-linejoin:round;">
<text x="1571561.645766" y="1674532.277018" transform="scale(-1 1) translate(-3143123.291532 0)" textLength="78007.617303" font-size="39453.280259" lengthAdjust="spacingAndGlyphs" text-anchor="middle" opacity="0.01" style="font-family:monospace">20k</text>
<g class="stroked-text"><desc>20k</desc>
<path d="M1606083 1646351 L1604674 1644942 L1601856 1643533 L1594810 1643533 L1591992 1644942 L1590583 1646351 L1589174 1649169 L1589174 1651987 L1590583 1656214 L1607492 1673123 L1589174 1673123 "/>
<path d="M1570857 1643533 L1568039 1643533 L1565220 1644942 L1563811 1646351 L1562402 1649169 L1560993 1654805 L1560993 1661850 L1562402 1667487 L1563811 1670305 L1565220 1671714 L1568039 1673123 L1570857 1673123 L1573675 1671714 L1575084 1670305 L1576493 1667487 L1577902 1661850 L1577902 1654805 L1576493 1649169 L1575084 1646351 L1573675 1644942 L1570857 1643533 "/>
<path d="M1548312 1673123 L1548312 1643533 "/>
<path d="M1545494 1661850 L1537040 1673123 "/>
<path d="M1537040 1653396 L1548312 1664668 "/>
</g></g>
<g style="fill:#000084; fill-opacity:0.01;  stroke:#000084; stroke-width:2367.197407; stroke-opacity:1;  stroke-linecap:round; stroke-linejoin:round;">
<text x="1571561.645766" y="1618311.338594" transform="scale(-1 1) translate(-3143123.291532 0)" textLength="37205.863041" font-size="19726.625335" lengthAdjust="spacingAndGlyphs" text-anchor="middle" opacity="0.01" style="font-family:monospace">R18</text>
<g class="stroked-text"><desc>R18</desc>
<path d="M1581072 1617606 L1586004 1610561 "/>
<path d="M1589526 1617606 L1589526 1602811 L1583890 1602811 L1582481 1603516 L1581777 1604220 L1581072 1605629 L1581072 1607743 L1581777 1609152 L1582481 1609857 L1583890 1610561 L1589526 1610561 "/>
<path d="M1566982 1617606 L1575436 1617606 "/>
<path d="M1571209 1617606 L1571209 1602811 L1572618 1604925 L1574027 1606334 L1575436 1607038 "/>
<path d="M1558527 1609152 L1559936 1608447 L1560641 1607743 L1561346 1606334 L1561346 1605629 L1560641 1604220 L1559936 1603516 L1558527 1602811 L1555709 1602811 L1554300 1603516 L1553596 1604220 L1552891 1605629 L1552891 1606334 L1553596 1607743 L1554300 1608447 L1555709 1609152 L1558527 1609152 L1559936 1609857 L1560641 1610561 L1561346 1611970 L1561346 1614788 L1560641 1616197 L1559936 1616902 L1558527 1617606 L1555709 1617606 L1554300 1616902 L1553596 1616197 L1552891 1614788 L1552891 1611970 L1553596 1610561 L1554300 1609857 L1555709 1609152 "/>
</g><g transform="rotate(-90.000000 804441.735945 894466.756376)">
<text x="804441.735945" y="901864.248274" transform="scale(-1 1) translate(-1608883.471890 0)" textLength="25808.073834" font-size="19726.625335" lengthAdjust="spacingAndGlyphs" text-anchor="middle" opacity="0.01" style="font-family:monospace">R9</text>
</g>
<g class="stroked-text"><desc>R9</desc>
<path d="M811134 892000 L804089 887069 "/>
<path d="M811134 883546 L796339 883546 L796339 889182 L797044 890591 L797748 891296 L799157 892000 L801271 892000 L802680 891296 L803384 890591 L804089 889182 L804089 883546 "/>
<path d="M811134 899046 L811134 901864 L810430 903273 L809725 903977 L807612 905386 L804793 906091 L799157 906091 L797748 905386 L797044 904682 L796339 903273 L796339 900455 L797044 899046 L797748 898341 L799157 897637 L802680 897637 L804089 898341 L804793 899046 L805498 900455 L805498 903273 L804793 904682 L804089 905386 L802680 906091 "/>
</g></g>
<g style="fill:#000084; fill-opacity:0.01;  stroke:#000084; stroke-width:4438.495139; stroke-opacity:1;  stroke-linecap:round; stroke-linejoin:round;">
<g transform="rotate(-90.000000 1584853.459208 1888935.264196)">
<text x="1584853.459208" y="1907724.893617" transform="scale(-1 1) translate(-3169706.918416 0)" textLength="34501.902212" font-size="50105.668592" lengthAdjust="spacingAndGlyphs" text-anchor="middle" opacity="0.01" style="font-family:monospace">K</text>
</g>
<g class="stroked-text"><desc>K</desc>
<path d="M1601853 1879093 L1564274 1879093 "/>
<path d="M1601853 1900566 L1580379 1884461 "/>
<path d="M1564274 1900566 L1585748 1879093 "/>
</g><g transform="rotate(-90.000000 1586356.629562 1943800.982105)">
<text x="1586356.629562" y="1962590.611526" transform="scale(-1 1) translate(-3172713.259124 0)" textLength="67598.991123" font-size="50105.668592" lengthAdjust="spacingAndGlyphs" text-anchor="middle" opacity="0.01" style="font-family:monospace">D5</text>
</g>
<g class="stroked-text"><desc>D5</desc>
<path d="M1603356 1916063 L1565777 1916063 L1565777 1925011 L1567567 1930379 L1571145 1933958 L1574724 1935748 L1581882 1937537 L1587251 1937537 L1594409 1935748 L1597988 1933958 L1601567 1930379 L1603356 1925011 L1603356 1916063 "/>
<path d="M1565777 1971538 L1565777 1953643 L1583672 1951853 L1581882 1953643 L1580093 1957222 L1580093 1966169 L1581882 1969748 L1583672 1971538 L1587251 1973327 L1596198 1973327 L1599777 1971538 L1601567 1969748 L1603356 1966169 L1603356 1957222 L1601567 1953643 L1599777 1951853 "/>
</g><text x="1524957.446809" y="699690.794702" transform="scale(-1 1) translate(-3049914.893617 0)" textLength="74545.591095" font-size="39453.280259" lengthAdjust="spacingAndGlyphs" text-anchor="middle" opacity="0.01" style="font-family:monospace">1uF</text>
<g class="stroked-text"><desc>1uF</desc>
<path d="M1542570 698281 L1559479 698281 "/>
<path d="M1551024 698281 L1551024 668691 L1553842 672918 L1556660 675737 L1559479 677146 "/>
<path d="M1517207 678555 L1517207 698281 "/>
<path d="M1529889 678555 L1529889 694054 L1528480 696872 L1525661 698281 L1521434 698281 L1518616 696872 L1517207 695463 "/>
<path d="M1493253 682782 L1503117 682782 "/>
<path d="M1503117 698281 L1503117 668691 L1489026 668691 "/>
</g></g>
<g style="fill:#000084; fill-opacity:0.01;  stroke:#000084; stroke-width:2367.197407; stroke-opacity:1;  stroke-linecap:round; stroke-linejoin:round;">
<text x="1524957.446809" y="642582.157250" transform="scale(-1 1) translate(-3049914.893617 0)" textLength="23115.386783" font-size="19726.625335" lengthAdjust="spacingAndGlyphs" text-anchor="middle" opacity="0.01" style="font-family:monospace">C3</text>
<g class="stroked-text"><desc>C3</desc>
<path d="M1527423 640468 L1528127 641173 L1530241 641877 L1531650 641877 L1533763 641173 L1535173 639764 L1535877 638354 L1536582 635536 L1536582 633423 L1535877 630605 L1535173 629196 L1533763 627787 L1531650 627082 L1530241 627082 L1528127 627787 L1527423 628491 "/>
<path d="M1522491 627082 L1513332 627082 L1518264 632718 L1516150 632718 L1514741 633423 L1514037 634127 L1513332 635536 L1513332 639059 L1514037 640468 L1514741 641173 L1516150 641877 L1520378 641877 L1521787 641173 L1522491 640468 "/>
</g><g transform="rotate(-90.000000 733425.813724 998031.642948)">
<text x="733425.813724" y="1005429.134846" transform="scale(-1 1) translate(-1466851.627448 0)" textLength="39898.550092" font-size="19726.625335" lengthAdjust="spacingAndGlyphs" text-anchor="middle" opacity="0.01" style="font-family:monospace">C10</text>
</g>
<g class="stroked-text"><desc>C10</desc>
<path d="M738709 988520 L739414 987816 L740118 985702 L740118 984293 L739414 982179 L738005 980770 L736596 980066 L733778 979361 L731664 979361 L728846 980066 L727437 980770 L726028 982179 L725323 984293 L725323 985702 L726028 987816 L726732 988520 "/>
<path d="M740118 1002611 L740118 994156 "/>
<path d="M740118 998383 L725323 998383 L727437 996974 L728846 995565 L729550 994156 "/>
<path d="M725323 1011769 L725323 1013178 L726028 1014587 L726732 1015292 L728141 1015996 L730959 1016701 L734482 1016701 L737300 1015996 L738709 1015292 L739414 1014587 L740118 1013178 L740118 1011769 L739414 1010360 L738709 1009656 L737300 1008951 L734482 1008247 L730959 1008247 L728141 1008951 L726732 1009656 L726028 1010360 L725323 1011769 "/>
</g></g>
<g style="fill:#000084; fill-opacity:0.01;  stroke:#000084; stroke-width:4438.495139; stroke-opacity:1;  stroke-linecap:round; stroke-linejoin:round;">
<text x="1053737.212907" y="1696454.359589" transform="scale(-1 1) translate(-2107474.425814 0)" textLength="621130.052135" font-size="39453.280259" lengthAdjust="spacingAndGlyphs" text-anchor="middle" opacity="0.01" style="font-family:monospace">LET9032ES-03L-2.7-16-R</text>
<g class="stroked-text"><desc>LET9032ES-03L-2.7-16-R</desc>
<path d="M1344705 1695045 L1358795 1695045 L1358795 1665455 "/>
<path d="M1334841 1679545 L1324978 1679545 "/>
<path d="M1320751 1695045 L1334841 1695045 L1334841 1665455 L1320751 1665455 "/>
<path d="M1312297 1665455 L1295388 1665455 "/>
<path d="M1303842 1695045 L1303842 1665455 "/>
<path d="M1284116 1695045 L1278480 1695045 L1275661 1693636 L1274252 1692227 L1271434 1688000 L1270025 1682363 L1270025 1671091 L1271434 1668273 L1272843 1666864 L1275661 1665455 L1281298 1665455 L1284116 1666864 L1285525 1668273 L1286934 1671091 L1286934 1678136 L1285525 1680954 L1284116 1682363 L1281298 1683772 L1275661 1683772 L1272843 1682363 L1271434 1680954 L1270025 1678136 "/>
<path d="M1251708 1665455 L1248890 1665455 L1246072 1666864 L1244662 1668273 L1243253 1671091 L1241844 1676727 L1241844 1683772 L1243253 1689409 L1244662 1692227 L1246072 1693636 L1248890 1695045 L1251708 1695045 L1254526 1693636 L1255935 1692227 L1257344 1689409 L1258753 1683772 L1258753 1676727 L1257344 1671091 L1255935 1668273 L1254526 1666864 L1251708 1665455 "/>
<path d="M1231981 1665455 L1213663 1665455 L1223527 1676727 L1219300 1676727 L1216482 1678136 L1215072 1679545 L1213663 1682363 L1213663 1689409 L1215072 1692227 L1216482 1693636 L1219300 1695045 L1227754 1695045 L1230572 1693636 L1231981 1692227 "/>
<path d="M1202391 1668273 L1200982 1666864 L1198164 1665455 L1191119 1665455 L1188301 1666864 L1186892 1668273 L1185482 1671091 L1185482 1673909 L1186892 1678136 L1203800 1695045 L1185482 1695045 "/>
<path d="M1172801 1679545 L1162938 1679545 "/>
<path d="M1158711 1695045 L1172801 1695045 L1172801 1665455 L1158711 1665455 "/>
<path d="M1147438 1693636 L1143211 1695045 L1136166 1695045 L1133348 1693636 L1131939 1692227 L1130530 1689409 L1130530 1686591 L1131939 1683772 L1133348 1682363 L1136166 1680954 L1141802 1679545 L1144620 1678136 L1146029 1676727 L1147438 1673909 L1147438 1671091 L1146029 1668273 L1144620 1666864 L1141802 1665455 L1134757 1665455 L1130530 1666864 "/>
<path d="M1117848 1683772 L1095304 1683772 "/>
<path d="M1075577 1665455 L1072759 1665455 L1069941 1666864 L1068532 1668273 L1067123 1671091 L1065714 1676727 L1065714 1683772 L1067123 1689409 L1068532 1692227 L1069941 1693636 L1072759 1695045 L1075577 1695045 L1078395 1693636 L1079804 1692227 L1081213 1689409 L1082622 1683772 L1082622 1676727 L1081213 1671091 L1079804 1668273 L1078395 1666864 L1075577 1665455 "/>
<path d="M1055850 1665455 L1037533 1665455 L1047396 1676727 L1043169 1676727 L1040351 1678136 L1038942 1679545 L1037533 1682363 L1037533 1689409 L1038942 1692227 L1040351 1693636 L1043169 1695045 L1051623 1695045 L1054441 1693636 L1055850 1692227 "/>
<path d="M1010761 1695045 L1024851 1695045 L1024851 1665455 "/>
<path d="M1000897 1683772 L978353 1683772 "/>
<path d="M965671 1668273 L964262 1666864 L961444 1665455 L954399 1665455 L951581 1666864 L950172 1668273 L948763 1671091 L948763 1673909 L950172 1678136 L967080 1695045 L948763 1695045 "/>
<path d="M936081 1692227 L934672 1693636 L936081 1695045 L937490 1693636 L936081 1692227 L936081 1695045 "/>
<path d="M924809 1665455 L905082 1665455 L917764 1695045 "/>
<path d="M893810 1683772 L871265 1683772 "/>
<path d="M841675 1695045 L858584 1695045 "/>
<path d="M850130 1695045 L850130 1665455 L852948 1669682 L855766 1672500 L858584 1673909 "/>
<path d="M816312 1665455 L821949 1665455 L824767 1666864 L826176 1668273 L828994 1672500 L830403 1678136 L830403 1689409 L828994 1692227 L827585 1693636 L824767 1695045 L819131 1695045 L816312 1693636 L814903 1692227 L813494 1689409 L813494 1682363 L814903 1679545 L816312 1678136 L819131 1676727 L824767 1676727 L827585 1678136 L828994 1679545 L830403 1682363 "/>
<path d="M800813 1683772 L778268 1683772 "/>
<path d="M747269 1695045 L757132 1680954 "/>
<path d="M764178 1695045 L764178 1665455 L752905 1665455 L750087 1666864 L748678 1668273 L747269 1671091 L747269 1675318 L748678 1678136 L750087 1679545 L752905 1680954 L764178 1680954 "/>
</g><text x="959789.065802" y="1965521.852896" transform="scale(-1 1) translate(-1919578.131605 0)" textLength="30865.147245" font-size="39453.280259" lengthAdjust="spacingAndGlyphs" text-anchor="middle" opacity="0.01" style="font-family:monospace">+</text>
<g class="stroked-text"><desc>+</desc>
<path d="M971061 1952840 L948516 1952840 "/>
<path d="M959789 1964112 L959789 1941568 "/>
</g><text x="1053737.212907" y="1906898.209102" transform="scale(-1 1) translate(-2107474.425814 0)" textLength="80181.769762" font-size="39453.280259" lengthAdjust="spacingAndGlyphs" text-anchor="middle" opacity="0.01" style="font-family:monospace">BZ1</text>
<g class="stroked-text"><desc>BZ1</desc>
<path d="M1079804 1889989 L1075577 1891398 L1074168 1892807 L1072759 1895625 L1072759 1899852 L1074168 1902671 L1075577 1904080 L1078395 1905489 L1089667 1905489 L1089667 1875899 L1079804 1875899 L1076986 1877308 L1075577 1878717 L1074168 1881535 L1074168 1884353 L1075577 1887171 L1076986 1888580 L1079804 1889989 L1089667 1889989 "/>
<path d="M1062895 1875899 L1043169 1875899 L1062895 1905489 L1043169 1905489 "/>
<path d="M1016397 1905489 L1033306 1905489 "/>
<path d="M1024851 1905489 L1024851 1875899 L1027669 1880126 L1030487 1882944 L1033306 1884353 "/>
</g></g>
<g style="fill:#000084; fill-opacity:0.0;  stroke:#000084; stroke-width:2367.197407; stroke-opacity:1;  stroke-linecap:round; stroke-linejoin:round;">
<g transform="rotate(-90.000000 1192070.311399 1057211.578132)">
<text x="1192070.311399" y="1064609.070030" transform="scale(-1 1) translate(-2384140.622798 0)" textLength="23115.386783" font-size="19726.625335" lengthAdjust="spacingAndGlyphs" text-anchor="middle" opacity="0.01" style="font-family:monospace">C5</text>
</g>
<g class="stroked-text"><desc>C5</desc>
<path d="M1197354 1054745 L1198058 1054041 L1198763 1051927 L1198763 1050518 L1198058 1048405 L1196649 1046995 L1195240 1046291 L1192422 1045586 L1190308 1045586 L1187490 1046291 L1186081 1046995 L1184672 1048405 L1183968 1050518 L1183968 1051927 L1184672 1054041 L1185377 1054745 "/>
<path d="M1183968 1068131 L1183968 1061086 L1191013 1060381 L1190308 1061086 L1189604 1062495 L1189604 1066018 L1190308 1067427 L1191013 1068131 L1192422 1068836 L1195945 1068836 L1197354 1068131 L1198058 1067427 L1198763 1066018 L1198763 1062495 L1198058 1061086 L1197354 1060381 "/>
</g></g>
<g style="fill:#000084; fill-opacity:0.0;  stroke:#000084; stroke-width:2958.996759; stroke-opacity:1;  stroke-linecap:round; stroke-linejoin:round;">
<path d="M1135849 1013936 L958309 1013936 "/>
<path d="M1135849 1191476 L958309 1191476 "/>
<path d="M958309 1191476 L958309 1013936 "/>
<path d="M1135849 1013936 L1135849 1191476 "/>
<path d="M1236455 571566 L1271963 571566 "/>
<path d="M1271963 571566 L1271963 512386 "/>
<path d="M1271963 512386 L1236455 512386 "/>
<path d="M1236455 512386 L1236455 571566 "/>
<path d="M1257168 2017775 L1294155 2017775 "/>
<path d="M1294155 1958595 L1257168 1958595 "/>
<path d="M1257168 1958595 L1257168 2017775 "/>
<path d="M1294155 2017775 L1294155 1958595 "/>
<path d="M2008753 747626 L2008753 688446 "/>
<path d="M1973245 688446 L1973245 747626 "/>
<path d="M2008753 688446 L1973245 688446 "/>
<path d="M1973245 747626 L2008753 747626 "/>
<path d="M1044130 953464 L1129941 953464 "/>
<path d="M1057446 901386 L1129941 901386 "/>
<path d="M1044130 953464 L1044130 914701 "/>
<path d="M1129941 953464 L1129941 901386 "/>
<path d="M1057446 901386 L1044130 914701 "/>
<path d="M1498696 1785494 L1498696 1747027 "/>
<path d="M1412885 1756644 L1412885 1785494 "/>
<path d="M1422502 1747027 L1412885 1756644 "/>
<path d="M1498696 1747027 L1422502 1747027 "/>
<path d="M1412885 1785494 L1498696 1785494 "/>
<path d="M1606329 653678 L1665509 653678 "/>
<path d="M1665509 653678 L1665509 616690 "/>
<path d="M1606329 616690 L1606329 653678 "/>
<path d="M1665509 616690 L1606329 616690 "/>
<path d="M1088505 561209 L1088505 502029 "/>
<path d="M1052997 502029 L1052997 561209 "/>
<path d="M1088505 502029 L1052997 502029 "/>
<path d="M1052997 561209 L1088505 561209 "/>
<path d="M1846008 587840 L1846008 647020 "/>
<path d="M1846008 647020 L1881516 647020 "/>
<path d="M1881516 647020 L1881516 587840 "/>
<path d="M1881516 587840 L1846008 587840 "/>
<path d="M1551588 287502 L1551588 240158 "/>
<path d="M1524957 263830 L1513121 263830 "/>
<path d="M1495367 275666 L1513121 263830 "/>
<path d="M1495367 263830 L1480572 263830 "/>
<path d="M1513121 263830 L1495367 251994 "/>
<path d="M1495367 251994 L1495367 275666 "/>
<path d="M1453941 287502 L1551588 287502 "/>
<path d="M1551588 240158 L1453941 240158 "/>
<path d="M1513121 263830 L1513121 247556 "/>
<path d="M1513121 263830 L1513121 280105 "/>
<path d="M1453941 240158 L1453941 287502 "/>
<path d="M1664030 246076 L1604850 246076 "/>
<path d="M1604850 246076 L1604850 281584 "/>
<path d="M1604850 281584 L1664030 281584 "/>
<path d="M1664030 281584 L1664030 246076 "/>
<path d="M2005794 357038 L2064974 357038 "/>
<path d="M2064974 357038 L2064974 321531 "/>
<path d="M2005794 321531 L2005794 357038 "/>
<path d="M2064974 321531 L2005794 321531 "/>
<path d="M777810 1120460 L866580 1120460 "/>
<path d="M822225 1067233 L822225 1096770 "/>
<path d="M866580 984346 L777810 984346 "/>
<path d="M844397 1067233 L798550 1067233 "/>
<path d="M866580 1120460 L866580 984346 "/>
<path d="M822225 1033186 L844397 1067233 "/>
<path d="M822225 1033186 L798550 1067233 "/>
<path d="M822225 1033186 L822225 1006505 "/>
<path d="M777810 1120460 L777810 984346 "/>
<path d="M798550 1033186 L845900 1033186 "/>
<path d="M1604850 766860 L1690661 766860 "/>
<path d="M1690661 766860 L1690661 719516 "/>
<path d="M1616686 719516 L1604850 731352 "/>
<path d="M1690661 719516 L1616686 719516 "/>
<path d="M1604850 731352 L1604850 766860 "/>
<path d="M1354445 1629407 L1354445 1592420 "/>
<path d="M1295265 1592420 L1295265 1629407 "/>
<path d="M1354445 1592420 L1295265 1592420 "/>
<path d="M1295265 1629407 L1354445 1629407 "/>
</g>
<g style="fill:#000084; fill-opacity:0.0;  stroke:#000084; stroke-width:4438.495139; stroke-opacity:1;  stroke-linecap:round; stroke-linejoin:round;">
<path d="M1884475 269748 L1825295 269748 "/>
<path d="M1914065 358518 L1914065 299338 "/>
<path d="M1825295 358518 L1914065 358518 "/>
<path d="M1914065 299338 L1884475 269748 "/>
<path d="M1825295 269748 L1825295 358518 "/>
</g>
<g style="fill:#000084; fill-opacity:0.0;  stroke:#000084; stroke-width:2958.996759; stroke-opacity:1;  stroke-linecap:round; stroke-linejoin:round;">
<path d="M1423611 1629407 L1482791 1629407 "/>
<path d="M1423611 1592420 L1423611 1629407 "/>
<path d="M1482791 1629407 L1482791 1592420 "/>
<path d="M1482791 1592420 L1423611 1592420 "/>
<path d="M922801 993223 L922801 934043 "/>
<path d="M887293 993223 L922801 993223 "/>
<path d="M887293 934043 L887293 993223 "/>
<path d="M922801 934043 L887293 934043 "/>
<path d="M1370349 1785494 L1370349 1747027 "/>
<path d="M1294155 1747027 L1284538 1756644 "/>
<path d="M1370349 1747027 L1294155 1747027 "/>
<path d="M1284538 1785494 L1370349 1785494 "/>
<path d="M1284538 1756644 L1284538 1785494 "/>
<path d="M1654413 842314 L1654413 901494 "/>
<path d="M1654413 901494 L1691401 901494 "/>
<path d="M1691401 901494 L1691401 842314 "/>
<path d="M1691401 842314 L1654413 842314 "/>
<path d="M751179 922207 L751179 863027 "/>
<path d="M751179 863027 L715671 863027 "/>
<path d="M715671 863027 L715671 922207 "/>
<path d="M715671 922207 L751179 922207 "/>
<path d="M1780170 901494 L1780170 842314 "/>
<path d="M1743183 842314 L1743183 901494 "/>
<path d="M1780170 842314 L1743183 842314 "/>
<path d="M1743183 901494 L1780170 901494 "/>
<path d="M1489449 771298 L1524957 771298 "/>
<path d="M1524957 771298 L1524957 712118 "/>
<path d="M1489449 712118 L1489449 771298 "/>
<path d="M1524957 712118 L1489449 712118 "/>
<path d="M2008753 645911 L2008753 586731 "/>
<path d="M1973245 645911 L2008753 645911 "/>
<path d="M1973245 586731 L1973245 645911 "/>
<path d="M2008753 586731 L1973245 586731 "/>
</g>
<g style="fill:#000084; fill-opacity:0.0;  stroke:#000084; stroke-width:4438.495139; stroke-opacity:1;  stroke-linecap:round; stroke-linejoin:round;">
<path d="M1413702 1874459 L1413702 2021018 "/>
<path d="M1497879 1872205 L1413702 1872205 "/>
<path d="M1413702 2021018 L1497879 2021018 "/>
<path d="M1497879 2019515 L1497879 1872956 "/>
</g>
<g style="fill:#000084; fill-opacity:0.0;  stroke:#000084; stroke-width:2958.996759; stroke-opacity:1;  stroke-linecap:round; stroke-linejoin:round;">
<path d="M974584 502029 L974584 561209 "/>
<path d="M1010092 502029 L974584 502029 "/>
<path d="M1010092 561209 L1010092 502029 "/>
<path d="M974584 561209 L1010092 561209 "/>
<path d="M1579698 571196 L1615206 571196 "/>
<path d="M1615206 512016 L1579698 512016 "/>
<path d="M1615206 571196 L1615206 512016 "/>
<path d="M1579698 512016 L1579698 571196 "/>
<path d="M1438406 1474060 L1438406 1511047 "/>
<path d="M1497586 1511047 L1497586 1474060 "/>
<path d="M1497586 1474060 L1438406 1474060 "/>
<path d="M1438406 1511047 L1497586 1511047 "/>
<path d="M1553067 1747027 L1543451 1756644 "/>
<path d="M1543451 1756644 L1543451 1785494 "/>
<path d="M1629262 1747027 L1553067 1747027 "/>
<path d="M1629262 1785494 L1629262 1747027 "/>
<path d="M1543451 1785494 L1629262 1785494 "/>
<path d="M1881516 689556 L1846008 689556 "/>
<path d="M1846008 689556 L1846008 748736 "/>
<path d="M1881516 748736 L1881516 689556 "/>
<path d="M1846008 748736 L1881516 748736 "/>
<path d="M887293 834547 L887293 893727 "/>
<path d="M922801 893727 L922801 834547 "/>
<path d="M887293 893727 L922801 893727 "/>
<path d="M922801 834547 L887293 834547 "/>
<path d="M1263825 775737 L1300813 775737 "/>
<path d="M1300813 775737 L1300813 716557 "/>
<path d="M1300813 716557 L1263825 716557 "/>
<path d="M1263825 716557 L1263825 775737 "/>
<path d="M1425831 571566 L1461339 571566 "/>
<path d="M1461339 571566 L1461339 512386 "/>
<path d="M1425831 512386 L1425831 571566 "/>
<path d="M1461339 512386 L1425831 512386 "/>
<path d="M1229797 1448169 L1229797 1536938 "/>
<path d="M1229797 1448169 L1365911 1448169 "/>
<path d="M1317071 1468909 L1317071 1516259 "/>
<path d="M1365911 1536938 L1365911 1448169 "/>
<path d="M1283024 1492584 L1253487 1492584 "/>
<path d="M1317071 1492584 L1343752 1492584 "/>
<path d="M1229797 1536938 L1365911 1536938 "/>
<path d="M1317071 1492584 L1283024 1514755 "/>
<path d="M1317071 1492584 L1283024 1468909 "/>
<path d="M1283024 1514755 L1283024 1468909 "/>
<path d="M1323745 1958595 L1323745 2017775 "/>
<path d="M1323745 2017775 L1360733 2017775 "/>
<path d="M1360733 2017775 L1360733 1958595 "/>
<path d="M1360733 1958595 L1323745 1958595 "/>
<path d="M2005794 296379 L2064974 296379 "/>
<path d="M2064974 296379 L2064974 260871 "/>
<path d="M2005794 260871 L2005794 296379 "/>
<path d="M2064974 260871 L2005794 260871 "/>
<path d="M1443585 348161 L1502764 348161 "/>
<path d="M1443585 312654 L1443585 348161 "/>
<path d="M1502764 312654 L1443585 312654 "/>
<path d="M1502764 348161 L1502764 312654 "/>
<path d="M1378487 701762 L1378487 787572 "/>
<path d="M1413995 701762 L1378487 701762 "/>
<path d="M1425831 787572 L1425831 713598 "/>
<path d="M1425831 713598 L1413995 701762 "/>
<path d="M1378487 787572 L1425831 787572 "/>
<path d="M1601151 1592420 L1541971 1592420 "/>
<path d="M1601151 1629407 L1601151 1592420 "/>
<path d="M1541971 1592420 L1541971 1629407 "/>
<path d="M1541971 1629407 L1601151 1629407 "/>
<path d="M786687 924056 L822195 924056 "/>
<path d="M822195 924056 L822195 864876 "/>
<path d="M786687 864876 L786687 924056 "/>
<path d="M822195 864876 L786687 864876 "/>
</g>
<g style="fill:#000084; fill-opacity:0.0;  stroke:#000084; stroke-width:4438.495139; stroke-opacity:1;  stroke-linecap:round; stroke-linejoin:round;">
<path d="M1628445 2016704 L1628445 1870145 "/>
<path d="M1544267 2018207 L1628445 2018207 "/>
<path d="M1628445 1869394 L1544267 1869394 "/>
<path d="M1544267 1871648 L1544267 2018207 "/>
</g>
<g style="fill:#000084; fill-opacity:0.0;  stroke:#000084; stroke-width:2958.996759; stroke-opacity:1;  stroke-linecap:round; stroke-linejoin:round;">
<path d="M1495367 616690 L1495367 653678 "/>
<path d="M1554547 653678 L1554547 616690 "/>
<path d="M1495367 653678 L1554547 653678 "/>
<path d="M1554547 616690 L1495367 616690 "/>
<path d="M751179 1027621 L751179 968441 "/>
<path d="M715671 968441 L715671 1027621 "/>
<path d="M715671 1027621 L751179 1027621 "/>
<path d="M751179 968441 L715671 968441 "/>
<path d="M979762 2069643 L1127712 2069643 "/>
<path d="M1127712 2069643 L1127712 2002769 "/>
<path d="M979762 2069643 L979762 2002769 "/>
<path d="M1127712.131702 2002769.703824 A133114.079188 133114.079188 0.0 1 0 979610.609885 2002668.160085"/>
<path d="M1174316 1027621 L1174316 1086801 "/>
<path d="M1174316 1086801 L1209824 1086801 "/>
<path d="M1209824 1027621 L1174316 1027621 "/>
<path d="M1209824 1086801 L1209824 1027621 "/>
<g>
</g>
<g>
</g>
<g>
</g>
<g>
</g>
<g>
</g>
<g>
</g>
<g>
</g>
<g>
</g>
<g>
</g>
<g>
</g>
<g>
</g>
<g>
</g>
<g>
</g>
<g>
</g>
<g>
</g>
<g>
</g>
<g>
</g>
<g>
</g>
<g>
</g>
<g>
</g>
<g>
</g>
<g>
</g>
<g>
</g>
<g>
</g>
<g>
</g>
<g>
</g>
<g>
</g>
<g>
</g>
<g>
</g>
<g>
</g>
<g>
</g>
<g>
</g>
<g>
</g>
<g>
</g>
<g>
</g>
<g>
</g>
<g>
</g>
<g>
</g>
<g>
</g>
<g>
</g>
<g>
</g>
<g>
</g>
<g>
</g>
<g>
</g>
<g>
</g>
<g>
</g>
<g>
</g>
<g>
</g>
<g>
</g>
<g>
</g>
<g>
</g>
<g>
</g>
<g>
</g>
<g>
</g>
<g>
</g>
<g>
</g>
<g>
</g>
<g>
</g>
<g>
</g>
<g>
</g>
</g> 
<svg:g><svg:g><svg:title>SVG Picture created as OLED01-Edge_Cuts.svg date 2023/06/14 14:17:06 </svg:title>
  <svg:desc>Picture generated by PCBNEW </svg:desc>
<svg:g style="fill:#C2C200; fill-opacity:1.000000;stroke:#C2C200; stroke-opacity:1.000000; stroke-linecap:round; stroke-linejoin:round;" transform="translate(0 0) scale(1 1)">
</svg:g>
<svg:g style="fill:#C2C200; fill-opacity:0.0;  stroke:#C2C200; stroke-width:0.000000; stroke-opacity:1;  stroke-linecap:round; stroke-linejoin:round;">
</svg:g>
<svg:g style="fill:#C2C200; fill-opacity:0.0;  stroke:#C2C200; stroke-width:1479.498380; stroke-opacity:1;  stroke-linecap:round; stroke-linejoin:round;">
<svg:path d="M586067 2099296 L2383954 2099296 "/>
<svg:path d="M2383954 2099296 L2383954 775 "/>
<svg:path d="M2383954 775 L586067 775 "/>
<svg:path d="M586067 775 L586067 2099296 "/>
<svg:path d="M1435077 1979160 L1476503 1979160 "/>
<svg:path d="M1491298 1964366 L1491298 1928858 "/>
<svg:path d="M1435077 1914063 L1476503 1914063 "/>
<svg:path d="M1420282 1964366 L1420282 1928858 "/>
<svg:path d="M1420282.936452 1964366.009582 A14795.013386 14795.013386 0.0 0 0 1435077.920248 1979160.993377"/>
<svg:path d="M1491298.858673 1928858.048471 A14794.983796 14794.983796 0.0 0 0 1476503.874877 1914063.064675"/>
<svg:path d="M1476503.874877 1979160.993377 A14795.013386 14795.013386 0.0 0 0 1491298.858673 1964366.009582"/>
<svg:path d="M1435077.920248 1914063.064675 A14794.983796 14794.983796 0.0 0 0 1420282.936452 1928858.048471"/>
<svg:path d="M1550848 1961554 L1550848 1926047 "/>
<svg:path d="M1565643 1976349 L1607069 1976349 "/>
<svg:path d="M1565643 1911252 L1607069 1911252 "/>
<svg:path d="M1621864 1961554 L1621864 1926047 "/>
<svg:path d="M1550848.668451 1961554.962660 A14795.013386 14795.013386 0.0 0 0 1565643.652247 1976349.946456"/>
<svg:path d="M1621864.590672 1926047.001550 A14794.983796 14794.983796 0.0 0 0 1607069.606876 1911252.017754"/>
<svg:path d="M1565643.652247 1911252.017754 A14794.983796 14794.983796 0.0 0 0 1550848.668451 1926047.001550"/>
<svg:path d="M1607069.606876 1976349.946456 A14795.013386 14795.013386 0.0 0 0 1621864.590672 1961554.962660"/>
<svg:g>
</svg:g>
<svg:g>
</svg:g>
<svg:g>
</svg:g>
<svg:g>
</svg:g>
<svg:g>
</svg:g>
<svg:g>
</svg:g>
<svg:g>
</svg:g>
<svg:g>
</svg:g>
<svg:g>
</svg:g>
<svg:g>
</svg:g>
<svg:g>
</svg:g>
<svg:g>
</svg:g>
<svg:g>
</svg:g>
<svg:g>
</svg:g>
<svg:g>
</svg:g>
<svg:g>
</svg:g>
<svg:g>
</svg:g>
<svg:g>
</svg:g>
<svg:g>
</svg:g>
<svg:g>
</svg:g>
<svg:g>
</svg:g>
<svg:g>
</svg:g>
<svg:g>
</svg:g>
<svg:g>
</svg:g>
<svg:g>
</svg:g>
<svg:g>
</svg:g>
<svg:g>
</svg:g>
<svg:g>
</svg:g>
<svg:g>
</svg:g>
<svg:g>
</svg:g>
<svg:g>
</svg:g>
<svg:g>
</svg:g>
<svg:g>
</svg:g>
<svg:g>
</svg:g>
<svg:g>
</svg:g>
<svg:g>
</svg:g>
<svg:g>
</svg:g>
<svg:g>
</svg:g>
<svg:g>
</svg:g>
<svg:g>
</svg:g>
<svg:g>
</svg:g>
<svg:g>
</svg:g>
<svg:g>
</svg:g>
<svg:g>
</svg:g>
<svg:g>
</svg:g>
<svg:g>
</svg:g>
<svg:g>
</svg:g>
<svg:g>
</svg:g>
<svg:g>
</svg:g>
<svg:g>
</svg:g>
<svg:g>
</svg:g>
<svg:g>
</svg:g>
<svg:g>
</svg:g>
<svg:g>
</svg:g>
<svg:g>
</svg:g>
<svg:g>
</svg:g>
<svg:g>
</svg:g>
<svg:g>
</svg:g>
<svg:g>
</svg:g>
<svg:g>
</svg:g>
</svg:g> 
</svg:g></svg:g></svg>
