<?xml version='1.0' encoding='ASCII' standalone='yes'?>
<svg xmlns:svg="http://www.w3.org/2000/svg" xmlns="http://www.w3.org/2000/svg" xmlns:xlink="http://www.w3.org/1999/xlink" version="1.1" width="29.700220cm" height="21.000720cm" viewBox="0 0 2970022 2100072">
<title>SVG Picture created as OLED01-F_Fab.svg date 2023/05/27 18:02:38 </title>
  <desc>Picture generated by PCBNEW </desc>
<g style="fill:#848484; fill-opacity:1.000000;stroke:#848484; stroke-opacity:1.000000; stroke-linecap:round; stroke-linejoin:round;" transform="translate(0 0) scale(1 1)">
</g>
<g style="fill:#848484; fill-opacity:0.0;  stroke:#848484; stroke-width:0.000000; stroke-opacity:1;  stroke-linecap:round; stroke-linejoin:round;">
</g>
<g style="fill:#848484; fill-opacity:0.01;  stroke:#848484; stroke-width:4438.495139; stroke-opacity:1;  stroke-linecap:round; stroke-linejoin:round;">
<text x="1611437.696773" y="1111583.143582" textLength="862595.461463" font-size="39453.280259" lengthAdjust="spacingAndGlyphs" text-anchor="middle" opacity="0.01" style="font-family:monospace">EA OLEDM128-6GGA, Precision socket</text>
<g class="stroked-text"><desc>EA OLEDM128-6GGA, Precision socket</desc>
<path d="M2034151 1094674 L2024288 1094674 "/>
<path d="M2020061 1110174 L2034151 1110174 L2034151 1080584 L2020061 1080584 "/>
<path d="M2008788 1101719 L1994698 1101719 "/>
<path d="M2011606 1110174 L2001743 1080584 L1991880 1110174 "/>
<path d="M1953835 1080584 L1948199 1080584 L1945381 1081993 L1942563 1084811 L1941154 1090447 L1941154 1100310 L1942563 1105946 L1945381 1108765 L1948199 1110174 L1953835 1110174 L1956653 1108765 L1959472 1105946 L1960881 1100310 L1960881 1090447 L1959472 1084811 L1956653 1081993 L1953835 1080584 "/>
<path d="M1914382 1110174 L1928473 1110174 L1928473 1080584 "/>
<path d="M1904519 1094674 L1894655 1094674 "/>
<path d="M1890428 1110174 L1904519 1110174 L1904519 1080584 L1890428 1080584 "/>
<path d="M1877747 1110174 L1877747 1080584 L1870702 1080584 L1866475 1081993 L1863656 1084811 L1862247 1087629 L1860838 1093265 L1860838 1097492 L1862247 1103128 L1863656 1105946 L1866475 1108765 L1870702 1110174 L1877747 1110174 "/>
<path d="M1848157 1110174 L1848157 1080584 L1838294 1101719 L1828430 1080584 L1828430 1110174 "/>
<path d="M1798840 1110174 L1815749 1110174 "/>
<path d="M1807295 1110174 L1807295 1080584 L1810113 1084811 L1812931 1087629 L1815749 1089038 "/>
<path d="M1787568 1083402 L1786159 1081993 L1783341 1080584 L1776296 1080584 L1773478 1081993 L1772068 1083402 L1770659 1086220 L1770659 1089038 L1772068 1093265 L1788977 1110174 L1770659 1110174 "/>
<path d="M1753751 1093265 L1756569 1091856 L1757978 1090447 L1759387 1087629 L1759387 1086220 L1757978 1083402 L1756569 1081993 L1753751 1080584 L1748115 1080584 L1745297 1081993 L1743888 1083402 L1742478 1086220 L1742478 1087629 L1743888 1090447 L1745297 1091856 L1748115 1093265 L1753751 1093265 L1756569 1094674 L1757978 1096083 L1759387 1098901 L1759387 1104537 L1757978 1107355 L1756569 1108765 L1753751 1110174 L1748115 1110174 L1745297 1108765 L1743888 1107355 L1742478 1104537 L1742478 1098901 L1743888 1096083 L1745297 1094674 L1748115 1093265 "/>
<path d="M1729797 1098901 L1707252 1098901 "/>
<path d="M1680480 1080584 L1686117 1080584 L1688935 1081993 L1690344 1083402 L1693162 1087629 L1694571 1093265 L1694571 1104537 L1693162 1107355 L1691753 1108765 L1688935 1110174 L1683299 1110174 L1680480 1108765 L1679071 1107355 L1677662 1104537 L1677662 1097492 L1679071 1094674 L1680480 1093265 L1683299 1091856 L1688935 1091856 L1691753 1093265 L1693162 1094674 L1694571 1097492 "/>
<path d="M1649481 1081993 L1652300 1080584 L1656527 1080584 L1660754 1081993 L1663572 1084811 L1664981 1087629 L1666390 1093265 L1666390 1097492 L1664981 1103128 L1663572 1105946 L1660754 1108765 L1656527 1110174 L1653709 1110174 L1649481 1108765 L1648072 1107355 L1648072 1097492 L1653709 1097492 "/>
<path d="M1619891 1081993 L1622710 1080584 L1626937 1080584 L1631164 1081993 L1633982 1084811 L1635391 1087629 L1636800 1093265 L1636800 1097492 L1635391 1103128 L1633982 1105946 L1631164 1108765 L1626937 1110174 L1624119 1110174 L1619891 1108765 L1618482 1107355 L1618482 1097492 L1624119 1097492 "/>
<path d="M1607210 1101719 L1593120 1101719 "/>
<path d="M1610028 1110174 L1600165 1080584 L1590302 1110174 "/>
<path d="M1579029 1108765 L1579029 1110174 L1580438 1112992 L1581847 1114401 "/>
<path d="M1543803 1110174 L1543803 1080584 L1532531 1080584 L1529713 1081993 L1528304 1083402 L1526894 1086220 L1526894 1090447 L1528304 1093265 L1529713 1094674 L1532531 1096083 L1543803 1096083 "/>
<path d="M1514213 1110174 L1514213 1090447 "/>
<path d="M1514213 1096083 L1512804 1093265 L1511395 1091856 L1508577 1090447 L1505759 1090447 "/>
<path d="M1484623 1108765 L1487441 1110174 L1493077 1110174 L1495895 1108765 L1497304 1105946 L1497304 1094674 L1495895 1091856 L1493077 1090447 L1487441 1090447 L1484623 1091856 L1483214 1094674 L1483214 1097492 L1497304 1100310 "/>
<path d="M1457851 1108765 L1460669 1110174 L1466305 1110174 L1469124 1108765 L1470533 1107355 L1471942 1104537 L1471942 1096083 L1470533 1093265 L1469124 1091856 L1466305 1090447 L1460669 1090447 L1457851 1091856 "/>
<path d="M1445170 1110174 L1445170 1090447 "/>
<path d="M1445170 1080584 L1446579 1081993 L1445170 1083402 L1443761 1081993 L1445170 1080584 L1445170 1083402 "/>
<path d="M1432488 1108765 L1429670 1110174 L1424034 1110174 L1421216 1108765 L1419807 1105946 L1419807 1104537 L1421216 1101719 L1424034 1100310 L1428261 1100310 L1431079 1098901 L1432488 1096083 L1432488 1094674 L1431079 1091856 L1428261 1090447 L1424034 1090447 L1421216 1091856 "/>
<path d="M1407126 1110174 L1407126 1090447 "/>
<path d="M1407126 1080584 L1408535 1081993 L1407126 1083402 L1405716 1081993 L1407126 1080584 L1407126 1083402 "/>
<path d="M1388808 1110174 L1391626 1108765 L1393035 1107355 L1394444 1104537 L1394444 1096083 L1393035 1093265 L1391626 1091856 L1388808 1090447 L1384581 1090447 L1381763 1091856 L1380354 1093265 L1378945 1096083 L1378945 1104537 L1380354 1107355 L1381763 1108765 L1384581 1110174 L1388808 1110174 "/>
<path d="M1366263 1090447 L1366263 1110174 "/>
<path d="M1366263 1093265 L1364854 1091856 L1362036 1090447 L1357809 1090447 L1354991 1091856 L1353582 1094674 L1353582 1110174 "/>
<path d="M1318356 1108765 L1315538 1110174 L1309901 1110174 L1307083 1108765 L1305674 1105946 L1305674 1104537 L1307083 1101719 L1309901 1100310 L1314128 1100310 L1316947 1098901 L1318356 1096083 L1318356 1094674 L1316947 1091856 L1314128 1090447 L1309901 1090447 L1307083 1091856 "/>
<path d="M1288766 1110174 L1291584 1108765 L1292993 1107355 L1294402 1104537 L1294402 1096083 L1292993 1093265 L1291584 1091856 L1288766 1090447 L1284539 1090447 L1281720 1091856 L1280311 1093265 L1278902 1096083 L1278902 1104537 L1280311 1107355 L1281720 1108765 L1284539 1110174 L1288766 1110174 "/>
<path d="M1253539 1108765 L1256358 1110174 L1261994 1110174 L1264812 1108765 L1266221 1107355 L1267630 1104537 L1267630 1096083 L1266221 1093265 L1264812 1091856 L1261994 1090447 L1256358 1090447 L1253539 1091856 "/>
<path d="M1240858 1110174 L1240858 1080584 "/>
<path d="M1238040 1098901 L1229586 1110174 "/>
<path d="M1229586 1090447 L1240858 1101719 "/>
<path d="M1205632 1108765 L1208450 1110174 L1214086 1110174 L1216904 1108765 L1218313 1105946 L1218313 1094674 L1216904 1091856 L1214086 1090447 L1208450 1090447 L1205632 1091856 L1204223 1094674 L1204223 1097492 L1218313 1100310 "/>
<path d="M1195769 1090447 L1184496 1090447 "/>
<path d="M1191541 1080584 L1191541 1105946 L1190132 1108765 L1187314 1110174 L1184496 1110174 "/>
</g></g>
<g style="fill:#848484; fill-opacity:0.0;  stroke:#848484; stroke-width:11273.777653; stroke-opacity:1;  stroke-linecap:round; stroke-linejoin:round;">
<circle cx="556259.452445" cy="1951938.223193" r="88762.209384"/> 
<circle cx="2360063.876849" cy="1951938.223193" r="88762.209384"/> 
</g>
<g style="fill:#848484; fill-opacity:0.0;  stroke:#848484; stroke-width:4438.495139; stroke-opacity:1;  stroke-linecap:round; stroke-linejoin:round;">
<path d="M1301038 286910 L1075563 286910 "/>
<path d="M1301038 362069 L1301038 286910 "/>
<path d="M1075563 362069 L1301038 362069 "/>
<path d="M1075563 286910 L1075563 362069 "/>
<path d="M2170983 74750 L1945508 74750 "/>
<path d="M1945508 74750 L1945508 225067 "/>
<path d="M1945508 225067 L2170983 225067 "/>
<path d="M2170983 225067 L2170983 74750 "/>
</g>
<g style="fill:#848484; fill-opacity:0.0;  stroke:#848484; stroke-width:11273.777653; stroke-opacity:1;  stroke-linecap:round; stroke-linejoin:round;">
<circle cx="2360063.876849" cy="448767.869522" r="88762.209384"/> 
<circle cx="2368940.867127" cy="416218.905171" r="88762.209384"/> 
</g>
<g style="fill:#848484; fill-opacity:0.0;  stroke:#848484; stroke-width:4438.495139; stroke-opacity:1;  stroke-linecap:round; stroke-linejoin:round;">
<path d="M1660852 74750 L1435377 74750 "/>
<path d="M1435377 74750 L1435377 225067 "/>
<path d="M1435377 225067 L1660852 225067 "/>
<path d="M1660852 225067 L1660852 74750 "/>
<path d="M1915918 225067 L1915918 74750 "/>
<path d="M1690442 74750 L1690442 225067 "/>
<path d="M1690442 225067 L1915918 225067 "/>
<path d="M1915918 74750 L1690442 74750 "/>
<g>
</g>
<g>
</g>
<g>
</g>
<g>
</g>
<g>
</g>
<g>
</g>
<g>
</g>
<g>
</g>
<g>
</g>
<g>
</g>
<g>
</g>
<g>
</g>
<g>
</g>
<g>
</g>
<g>
</g>
<g>
</g>
<g>
</g>
<g>
</g>
<g>
</g>
<g>
</g>
<g>
</g>
<g>
</g>
<g>
</g>
<g>
</g>
<g>
</g>
<g>
</g>
<g>
</g>
<g>
</g>
<g>
</g>
<g>
</g>
<g>
</g>
<g>
</g>
<g>
</g>
<g>
</g>
<g>
</g>
<g>
</g>
<g>
</g>
<g>
</g>
<g>
</g>
<g>
</g>
<g>
</g>
<g>
</g>
<g>
</g>
<g>
</g>
</g> 
<svg:g><svg:g><svg:title>SVG Picture created as OLED01-Edge_Cuts.svg date 2023/05/27 18:02:38 </svg:title>
  <svg:desc>Picture generated by PCBNEW </svg:desc>
<svg:g style="fill:#C2C200; fill-opacity:1.000000;stroke:#C2C200; stroke-opacity:1.000000; stroke-linecap:round; stroke-linejoin:round;" transform="translate(0 0) scale(1 1)">
</svg:g>
<svg:g style="fill:#C2C200; fill-opacity:0.0;  stroke:#C2C200; stroke-width:0.000000; stroke-opacity:1;  stroke-linecap:round; stroke-linejoin:round;">
</svg:g>
<svg:g style="fill:#C2C200; fill-opacity:0.0;  stroke:#C2C200; stroke-width:1479.498380; stroke-opacity:1;  stroke-linecap:round; stroke-linejoin:round;">
<svg:path d="M2507421 2099296 L709535 2099296 "/>
<svg:path d="M709535 2099296 L709535 775 "/>
<svg:path d="M709535 775 L2507421 775 "/>
<svg:path d="M2507421 775 L2507421 2099296 "/>
<svg:g>
</svg:g>
<svg:g>
</svg:g>
<svg:g>
</svg:g>
<svg:g>
</svg:g>
<svg:g>
</svg:g>
<svg:g>
</svg:g>
<svg:g>
</svg:g>
<svg:g>
</svg:g>
<svg:g>
</svg:g>
<svg:g>
</svg:g>
<svg:g>
</svg:g>
<svg:g>
</svg:g>
<svg:g>
</svg:g>
<svg:g>
</svg:g>
<svg:g>
</svg:g>
<svg:g>
</svg:g>
<svg:g>
</svg:g>
<svg:g>
</svg:g>
<svg:g>
</svg:g>
<svg:g>
</svg:g>
<svg:g>
</svg:g>
<svg:g>
</svg:g>
<svg:g>
</svg:g>
<svg:g>
</svg:g>
<svg:g>
</svg:g>
<svg:g>
</svg:g>
<svg:g>
</svg:g>
<svg:g>
</svg:g>
<svg:g>
</svg:g>
<svg:g>
</svg:g>
<svg:g>
</svg:g>
<svg:g>
</svg:g>
<svg:g>
</svg:g>
<svg:g>
</svg:g>
<svg:g>
</svg:g>
<svg:g>
</svg:g>
<svg:g>
</svg:g>
<svg:g>
</svg:g>
<svg:g>
</svg:g>
<svg:g>
</svg:g>
<svg:g>
</svg:g>
<svg:g>
</svg:g>
<svg:g>
</svg:g>
<svg:g>
</svg:g>
</svg:g> 
</svg:g></svg:g></svg>
