<?xml version='1.0' encoding='ASCII' standalone='yes'?>
<svg xmlns:svg="http://www.w3.org/2000/svg" xmlns="http://www.w3.org/2000/svg" xmlns:xlink="http://www.w3.org/1999/xlink" version="1.1" width="297.0022mm" height="210.0072mm" viewBox="0.0000 0.0000 297.0022 210.0072">
<title>SVG Image created as OLED01-F_Fab.svg date 2023/07/05 13:07:32 </title>
  <desc>Image generated by PCBNEW </desc>
<g style="fill:#848484; fill-opacity:1.0000;stroke:#848484; stroke-opacity:1.0000; stroke-linecap:round; stroke-linejoin:round;" transform="translate(0 0) scale(1 1)">
</g>
<g style="fill:#848484; fill-opacity:0.0;  stroke:#848484; stroke-width:0.0000; stroke-opacity:1;  stroke-linecap:round; stroke-linejoin:round;">
</g>
<g style="fill:#848484; fill-opacity:0.01;  stroke:#848484; stroke-width:0.4438; stroke-opacity:1;  stroke-linecap:round; stroke-linejoin:round;">
<text x="148.5011" y="111.1583" textLength="86.4696" font-size="3.9453" lengthAdjust="spacingAndGlyphs" text-anchor="middle" opacity="0.01" style="font-family:monospace">EA OLEDM128-6GGA, Precision socket</text>
<g class="stroked-text"><desc>EA OLEDM128-6GGA, Precision socket</desc>
<path d="M190.7725 109.4747 L189.7862 109.4747 "/>
<path d="M189.3634 111.0246 L190.7725 111.0246 "/>
<path d="M190.7725 111.0246 L190.7725 108.0656 "/>
<path d="M190.7725 108.0656 L189.3634 108.0656 "/>
<path d="M188.2362 110.1792 L186.8272 110.1792 "/>
<path d="M188.5180 111.0246 L187.5317 108.0656 "/>
<path d="M187.5317 108.0656 L186.5453 111.0246 "/>
<path d="M182.7409 108.0656 L182.1773 108.0656 "/>
<path d="M182.1773 108.0656 L181.8955 108.2065 "/>
<path d="M181.8955 108.2065 L181.6137 108.4883 "/>
<path d="M181.6137 108.4883 L181.4728 109.0520 "/>
<path d="M181.4728 109.0520 L181.4728 110.0383 "/>
<path d="M181.4728 110.0383 L181.6137 110.6019 "/>
<path d="M181.6137 110.6019 L181.8955 110.8837 "/>
<path d="M181.8955 110.8837 L182.1773 111.0246 "/>
<path d="M182.1773 111.0246 L182.7409 111.0246 "/>
<path d="M182.7409 111.0246 L183.0227 110.8837 "/>
<path d="M183.0227 110.8837 L183.3045 110.6019 "/>
<path d="M183.3045 110.6019 L183.4454 110.0383 "/>
<path d="M183.4454 110.0383 L183.4454 109.0520 "/>
<path d="M183.4454 109.0520 L183.3045 108.4883 "/>
<path d="M183.3045 108.4883 L183.0227 108.2065 "/>
<path d="M183.0227 108.2065 L182.7409 108.0656 "/>
<path d="M178.7956 111.0246 L180.2046 111.0246 "/>
<path d="M180.2046 111.0246 L180.2046 108.0656 "/>
<path d="M177.8093 109.4747 L176.8229 109.4747 "/>
<path d="M176.4002 111.0246 L177.8093 111.0246 "/>
<path d="M177.8093 111.0246 L177.8093 108.0656 "/>
<path d="M177.8093 108.0656 L176.4002 108.0656 "/>
<path d="M175.1321 111.0246 L175.1321 108.0656 "/>
<path d="M175.1321 108.0656 L174.4275 108.0656 "/>
<path d="M174.4275 108.0656 L174.0048 108.2065 "/>
<path d="M174.0048 108.2065 L173.7230 108.4883 "/>
<path d="M173.7230 108.4883 L173.5821 108.7701 "/>
<path d="M173.5821 108.7701 L173.4412 109.3338 "/>
<path d="M173.4412 109.3338 L173.4412 109.7565 "/>
<path d="M173.4412 109.7565 L173.5821 110.3201 "/>
<path d="M173.5821 110.3201 L173.7230 110.6019 "/>
<path d="M173.7230 110.6019 L174.0048 110.8837 "/>
<path d="M174.0048 110.8837 L174.4275 111.0246 "/>
<path d="M174.4275 111.0246 L175.1321 111.0246 "/>
<path d="M172.1731 111.0246 L172.1731 108.0656 "/>
<path d="M172.1731 108.0656 L171.1867 110.1792 "/>
<path d="M171.1867 110.1792 L170.2004 108.0656 "/>
<path d="M170.2004 108.0656 L170.2004 111.0246 "/>
<path d="M167.2414 111.0246 L168.9323 111.0246 "/>
<path d="M168.0868 111.0246 L168.0868 108.0656 "/>
<path d="M168.0868 108.0656 L168.3687 108.4883 "/>
<path d="M168.3687 108.4883 L168.6505 108.7701 "/>
<path d="M168.6505 108.7701 L168.9323 108.9111 "/>
<path d="M166.1142 108.3474 L165.9733 108.2065 "/>
<path d="M165.9733 108.2065 L165.6915 108.0656 "/>
<path d="M165.6915 108.0656 L164.9869 108.0656 "/>
<path d="M164.9869 108.0656 L164.7051 108.2065 "/>
<path d="M164.7051 108.2065 L164.5642 108.3474 "/>
<path d="M164.5642 108.3474 L164.4233 108.6292 "/>
<path d="M164.4233 108.6292 L164.4233 108.9111 "/>
<path d="M164.4233 108.9111 L164.5642 109.3338 "/>
<path d="M164.5642 109.3338 L166.2551 111.0246 "/>
<path d="M166.2551 111.0246 L164.4233 111.0246 "/>
<path d="M162.7325 109.3338 L163.0143 109.1929 "/>
<path d="M163.0143 109.1929 L163.1552 109.0520 "/>
<path d="M163.1552 109.0520 L163.2961 108.7701 "/>
<path d="M163.2961 108.7701 L163.2961 108.6292 "/>
<path d="M163.2961 108.6292 L163.1552 108.3474 "/>
<path d="M163.1552 108.3474 L163.0143 108.2065 "/>
<path d="M163.0143 108.2065 L162.7325 108.0656 "/>
<path d="M162.7325 108.0656 L162.1688 108.0656 "/>
<path d="M162.1688 108.0656 L161.8870 108.2065 "/>
<path d="M161.8870 108.2065 L161.7461 108.3474 "/>
<path d="M161.7461 108.3474 L161.6052 108.6292 "/>
<path d="M161.6052 108.6292 L161.6052 108.7701 "/>
<path d="M161.6052 108.7701 L161.7461 109.0520 "/>
<path d="M161.7461 109.0520 L161.8870 109.1929 "/>
<path d="M161.8870 109.1929 L162.1688 109.3338 "/>
<path d="M162.1688 109.3338 L162.7325 109.3338 "/>
<path d="M162.7325 109.3338 L163.0143 109.4747 "/>
<path d="M163.0143 109.4747 L163.1552 109.6156 "/>
<path d="M163.1552 109.6156 L163.2961 109.8974 "/>
<path d="M163.2961 109.8974 L163.2961 110.4610 "/>
<path d="M163.2961 110.4610 L163.1552 110.7428 "/>
<path d="M163.1552 110.7428 L163.0143 110.8837 "/>
<path d="M163.0143 110.8837 L162.7325 111.0246 "/>
<path d="M162.7325 111.0246 L162.1688 111.0246 "/>
<path d="M162.1688 111.0246 L161.8870 110.8837 "/>
<path d="M161.8870 110.8837 L161.7461 110.7428 "/>
<path d="M161.7461 110.7428 L161.6052 110.4610 "/>
<path d="M161.6052 110.4610 L161.6052 109.8974 "/>
<path d="M161.6052 109.8974 L161.7461 109.6156 "/>
<path d="M161.7461 109.6156 L161.8870 109.4747 "/>
<path d="M161.8870 109.4747 L162.1688 109.3338 "/>
<path d="M160.3371 109.8974 L158.0826 109.8974 "/>
<path d="M155.4054 108.0656 L155.9690 108.0656 "/>
<path d="M155.9690 108.0656 L156.2509 108.2065 "/>
<path d="M156.2509 108.2065 L156.3918 108.3474 "/>
<path d="M156.3918 108.3474 L156.6736 108.7701 "/>
<path d="M156.6736 108.7701 L156.8145 109.3338 "/>
<path d="M156.8145 109.3338 L156.8145 110.4610 "/>
<path d="M156.8145 110.4610 L156.6736 110.7428 "/>
<path d="M156.6736 110.7428 L156.5327 110.8837 "/>
<path d="M156.5327 110.8837 L156.2509 111.0246 "/>
<path d="M156.2509 111.0246 L155.6872 111.0246 "/>
<path d="M155.6872 111.0246 L155.4054 110.8837 "/>
<path d="M155.4054 110.8837 L155.2645 110.7428 "/>
<path d="M155.2645 110.7428 L155.1236 110.4610 "/>
<path d="M155.1236 110.4610 L155.1236 109.7565 "/>
<path d="M155.1236 109.7565 L155.2645 109.4747 "/>
<path d="M155.2645 109.4747 L155.4054 109.3338 "/>
<path d="M155.4054 109.3338 L155.6872 109.1929 "/>
<path d="M155.6872 109.1929 L156.2509 109.1929 "/>
<path d="M156.2509 109.1929 L156.5327 109.3338 "/>
<path d="M156.5327 109.3338 L156.6736 109.4747 "/>
<path d="M156.6736 109.4747 L156.8145 109.7565 "/>
<path d="M152.3055 108.2065 L152.5873 108.0656 "/>
<path d="M152.5873 108.0656 L153.0100 108.0656 "/>
<path d="M153.0100 108.0656 L153.4328 108.2065 "/>
<path d="M153.4328 108.2065 L153.7146 108.4883 "/>
<path d="M153.7146 108.4883 L153.8555 108.7701 "/>
<path d="M153.8555 108.7701 L153.9964 109.3338 "/>
<path d="M153.9964 109.3338 L153.9964 109.7565 "/>
<path d="M153.9964 109.7565 L153.8555 110.3201 "/>
<path d="M153.8555 110.3201 L153.7146 110.6019 "/>
<path d="M153.7146 110.6019 L153.4328 110.8837 "/>
<path d="M153.4328 110.8837 L153.0100 111.0246 "/>
<path d="M153.0100 111.0246 L152.7282 111.0246 "/>
<path d="M152.7282 111.0246 L152.3055 110.8837 "/>
<path d="M152.3055 110.8837 L152.1646 110.7428 "/>
<path d="M152.1646 110.7428 L152.1646 109.7565 "/>
<path d="M152.1646 109.7565 L152.7282 109.7565 "/>
<path d="M149.3465 108.2065 L149.6283 108.0656 "/>
<path d="M149.6283 108.0656 L150.0511 108.0656 "/>
<path d="M150.0511 108.0656 L150.4738 108.2065 "/>
<path d="M150.4738 108.2065 L150.7556 108.4883 "/>
<path d="M150.7556 108.4883 L150.8965 108.7701 "/>
<path d="M150.8965 108.7701 L151.0374 109.3338 "/>
<path d="M151.0374 109.3338 L151.0374 109.7565 "/>
<path d="M151.0374 109.7565 L150.8965 110.3201 "/>
<path d="M150.8965 110.3201 L150.7556 110.6019 "/>
<path d="M150.7556 110.6019 L150.4738 110.8837 "/>
<path d="M150.4738 110.8837 L150.0511 111.0246 "/>
<path d="M150.0511 111.0246 L149.7692 111.0246 "/>
<path d="M149.7692 111.0246 L149.3465 110.8837 "/>
<path d="M149.3465 110.8837 L149.2056 110.7428 "/>
<path d="M149.2056 110.7428 L149.2056 109.7565 "/>
<path d="M149.2056 109.7565 L149.7692 109.7565 "/>
<path d="M148.0784 110.1792 L146.6693 110.1792 "/>
<path d="M148.3602 111.0246 L147.3739 108.0656 "/>
<path d="M147.3739 108.0656 L146.3875 111.0246 "/>
<path d="M145.2603 110.8837 L145.2603 111.0246 "/>
<path d="M145.2603 111.0246 L145.4012 111.3064 "/>
<path d="M145.4012 111.3064 L145.5421 111.4473 "/>
<path d="M141.7377 111.0246 L141.7377 108.0656 "/>
<path d="M141.7377 108.0656 L140.6104 108.0656 "/>
<path d="M140.6104 108.0656 L140.3286 108.2065 "/>
<path d="M140.3286 108.2065 L140.1877 108.3474 "/>
<path d="M140.1877 108.3474 L140.0468 108.6292 "/>
<path d="M140.0468 108.6292 L140.0468 109.0520 "/>
<path d="M140.0468 109.0520 L140.1877 109.3338 "/>
<path d="M140.1877 109.3338 L140.3286 109.4747 "/>
<path d="M140.3286 109.4747 L140.6104 109.6156 "/>
<path d="M140.6104 109.6156 L141.7377 109.6156 "/>
<path d="M138.7787 111.0246 L138.7787 109.0520 "/>
<path d="M138.7787 109.6156 L138.6378 109.3338 "/>
<path d="M138.6378 109.3338 L138.4969 109.1929 "/>
<path d="M138.4969 109.1929 L138.2151 109.0520 "/>
<path d="M138.2151 109.0520 L137.9333 109.0520 "/>
<path d="M135.8197 110.8837 L136.1015 111.0246 "/>
<path d="M136.1015 111.0246 L136.6651 111.0246 "/>
<path d="M136.6651 111.0246 L136.9469 110.8837 "/>
<path d="M136.9469 110.8837 L137.0878 110.6019 "/>
<path d="M137.0878 110.6019 L137.0878 109.4747 "/>
<path d="M137.0878 109.4747 L136.9469 109.1929 "/>
<path d="M136.9469 109.1929 L136.6651 109.0520 "/>
<path d="M136.6651 109.0520 L136.1015 109.0520 "/>
<path d="M136.1015 109.0520 L135.8197 109.1929 "/>
<path d="M135.8197 109.1929 L135.6788 109.4747 "/>
<path d="M135.6788 109.4747 L135.6788 109.7565 "/>
<path d="M135.6788 109.7565 L137.0878 110.0383 "/>
<path d="M133.1425 110.8837 L133.4243 111.0246 "/>
<path d="M133.4243 111.0246 L133.9879 111.0246 "/>
<path d="M133.9879 111.0246 L134.2697 110.8837 "/>
<path d="M134.2697 110.8837 L134.4106 110.7428 "/>
<path d="M134.4106 110.7428 L134.5515 110.4610 "/>
<path d="M134.5515 110.4610 L134.5515 109.6156 "/>
<path d="M134.5515 109.6156 L134.4106 109.3338 "/>
<path d="M134.4106 109.3338 L134.2697 109.1929 "/>
<path d="M134.2697 109.1929 L133.9879 109.0520 "/>
<path d="M133.9879 109.0520 L133.4243 109.0520 "/>
<path d="M133.4243 109.0520 L133.1425 109.1929 "/>
<path d="M131.8744 111.0246 L131.8744 109.0520 "/>
<path d="M131.8744 108.0656 L132.0153 108.2065 "/>
<path d="M132.0153 108.2065 L131.8744 108.3474 "/>
<path d="M131.8744 108.3474 L131.7335 108.2065 "/>
<path d="M131.7335 108.2065 L131.8744 108.0656 "/>
<path d="M131.8744 108.0656 L131.8744 108.3474 "/>
<path d="M130.6062 110.8837 L130.3244 111.0246 "/>
<path d="M130.3244 111.0246 L129.7608 111.0246 "/>
<path d="M129.7608 111.0246 L129.4790 110.8837 "/>
<path d="M129.4790 110.8837 L129.3381 110.6019 "/>
<path d="M129.3381 110.6019 L129.3381 110.4610 "/>
<path d="M129.3381 110.4610 L129.4790 110.1792 "/>
<path d="M129.4790 110.1792 L129.7608 110.0383 "/>
<path d="M129.7608 110.0383 L130.1835 110.0383 "/>
<path d="M130.1835 110.0383 L130.4653 109.8974 "/>
<path d="M130.4653 109.8974 L130.6062 109.6156 "/>
<path d="M130.6062 109.6156 L130.6062 109.4747 "/>
<path d="M130.6062 109.4747 L130.4653 109.1929 "/>
<path d="M130.4653 109.1929 L130.1835 109.0520 "/>
<path d="M130.1835 109.0520 L129.7608 109.0520 "/>
<path d="M129.7608 109.0520 L129.4790 109.1929 "/>
<path d="M128.0699 111.0246 L128.0699 109.0520 "/>
<path d="M128.0699 108.0656 L128.2108 108.2065 "/>
<path d="M128.2108 108.2065 L128.0699 108.3474 "/>
<path d="M128.0699 108.3474 L127.9290 108.2065 "/>
<path d="M127.9290 108.2065 L128.0699 108.0656 "/>
<path d="M128.0699 108.0656 L128.0699 108.3474 "/>
<path d="M126.2382 111.0246 L126.5200 110.8837 "/>
<path d="M126.5200 110.8837 L126.6609 110.7428 "/>
<path d="M126.6609 110.7428 L126.8018 110.4610 "/>
<path d="M126.8018 110.4610 L126.8018 109.6156 "/>
<path d="M126.8018 109.6156 L126.6609 109.3338 "/>
<path d="M126.6609 109.3338 L126.5200 109.1929 "/>
<path d="M126.5200 109.1929 L126.2382 109.0520 "/>
<path d="M126.2382 109.0520 L125.8155 109.0520 "/>
<path d="M125.8155 109.0520 L125.5337 109.1929 "/>
<path d="M125.5337 109.1929 L125.3927 109.3338 "/>
<path d="M125.3927 109.3338 L125.2518 109.6156 "/>
<path d="M125.2518 109.6156 L125.2518 110.4610 "/>
<path d="M125.2518 110.4610 L125.3927 110.7428 "/>
<path d="M125.3927 110.7428 L125.5337 110.8837 "/>
<path d="M125.5337 110.8837 L125.8155 111.0246 "/>
<path d="M125.8155 111.0246 L126.2382 111.0246 "/>
<path d="M123.9837 109.0520 L123.9837 111.0246 "/>
<path d="M123.9837 109.3338 L123.8428 109.1929 "/>
<path d="M123.8428 109.1929 L123.5610 109.0520 "/>
<path d="M123.5610 109.0520 L123.1383 109.0520 "/>
<path d="M123.1383 109.0520 L122.8565 109.1929 "/>
<path d="M122.8565 109.1929 L122.7156 109.4747 "/>
<path d="M122.7156 109.4747 L122.7156 111.0246 "/>
<path d="M119.1929 110.8837 L118.9111 111.0246 "/>
<path d="M118.9111 111.0246 L118.3475 111.0246 "/>
<path d="M118.3475 111.0246 L118.0657 110.8837 "/>
<path d="M118.0657 110.8837 L117.9248 110.6019 "/>
<path d="M117.9248 110.6019 L117.9248 110.4610 "/>
<path d="M117.9248 110.4610 L118.0657 110.1792 "/>
<path d="M118.0657 110.1792 L118.3475 110.0383 "/>
<path d="M118.3475 110.0383 L118.7702 110.0383 "/>
<path d="M118.7702 110.0383 L119.0520 109.8974 "/>
<path d="M119.0520 109.8974 L119.1929 109.6156 "/>
<path d="M119.1929 109.6156 L119.1929 109.4747 "/>
<path d="M119.1929 109.4747 L119.0520 109.1929 "/>
<path d="M119.0520 109.1929 L118.7702 109.0520 "/>
<path d="M118.7702 109.0520 L118.3475 109.0520 "/>
<path d="M118.3475 109.0520 L118.0657 109.1929 "/>
<path d="M116.2339 111.0246 L116.5158 110.8837 "/>
<path d="M116.5158 110.8837 L116.6567 110.7428 "/>
<path d="M116.6567 110.7428 L116.7976 110.4610 "/>
<path d="M116.7976 110.4610 L116.7976 109.6156 "/>
<path d="M116.7976 109.6156 L116.6567 109.3338 "/>
<path d="M116.6567 109.3338 L116.5158 109.1929 "/>
<path d="M116.5158 109.1929 L116.2339 109.0520 "/>
<path d="M116.2339 109.0520 L115.8112 109.0520 "/>
<path d="M115.8112 109.0520 L115.5294 109.1929 "/>
<path d="M115.5294 109.1929 L115.3885 109.3338 "/>
<path d="M115.3885 109.3338 L115.2476 109.6156 "/>
<path d="M115.2476 109.6156 L115.2476 110.4610 "/>
<path d="M115.2476 110.4610 L115.3885 110.7428 "/>
<path d="M115.3885 110.7428 L115.5294 110.8837 "/>
<path d="M115.5294 110.8837 L115.8112 111.0246 "/>
<path d="M115.8112 111.0246 L116.2339 111.0246 "/>
<path d="M112.7113 110.8837 L112.9931 111.0246 "/>
<path d="M112.9931 111.0246 L113.5568 111.0246 "/>
<path d="M113.5568 111.0246 L113.8386 110.8837 "/>
<path d="M113.8386 110.8837 L113.9795 110.7428 "/>
<path d="M113.9795 110.7428 L114.1204 110.4610 "/>
<path d="M114.1204 110.4610 L114.1204 109.6156 "/>
<path d="M114.1204 109.6156 L113.9795 109.3338 "/>
<path d="M113.9795 109.3338 L113.8386 109.1929 "/>
<path d="M113.8386 109.1929 L113.5568 109.0520 "/>
<path d="M113.5568 109.0520 L112.9931 109.0520 "/>
<path d="M112.9931 109.0520 L112.7113 109.1929 "/>
<path d="M111.4432 111.0246 L111.4432 108.0656 "/>
<path d="M111.1614 109.8974 L110.3160 111.0246 "/>
<path d="M110.3160 109.0520 L111.4432 110.1792 "/>
<path d="M107.9206 110.8837 L108.2024 111.0246 "/>
<path d="M108.2024 111.0246 L108.7660 111.0246 "/>
<path d="M108.7660 111.0246 L109.0478 110.8837 "/>
<path d="M109.0478 110.8837 L109.1887 110.6019 "/>
<path d="M109.1887 110.6019 L109.1887 109.4747 "/>
<path d="M109.1887 109.4747 L109.0478 109.1929 "/>
<path d="M109.0478 109.1929 L108.7660 109.0520 "/>
<path d="M108.7660 109.0520 L108.2024 109.0520 "/>
<path d="M108.2024 109.0520 L107.9206 109.1929 "/>
<path d="M107.9206 109.1929 L107.7797 109.4747 "/>
<path d="M107.7797 109.4747 L107.7797 109.7565 "/>
<path d="M107.7797 109.7565 L109.1887 110.0383 "/>
<path d="M106.9342 109.0520 L105.8070 109.0520 "/>
<path d="M106.5115 108.0656 L106.5115 110.6019 "/>
<path d="M106.5115 110.6019 L106.3706 110.8837 "/>
<path d="M106.3706 110.8837 L106.0888 111.0246 "/>
<path d="M106.0888 111.0246 L105.8070 111.0246 "/>
</g><g transform="rotate(-270.000000 151.5734 188.6485)">
<text x="151.5734" y="190.1280" textLength="3.4768" font-size="3.9453" lengthAdjust="spacingAndGlyphs" text-anchor="middle" opacity="0.01" style="font-family:monospace">K</text>
</g>
<g class="stroked-text"><desc>K</desc>
<path d="M152.9192 187.8735 L149.9602 187.8735 "/>
<path d="M152.9192 189.5644 L151.2284 188.2963 "/>
<path d="M149.9602 189.5644 L151.6511 187.8735 "/>
</g><g transform="rotate(-270.000000 138.5169 188.3674)">
<text x="138.5169" y="189.8469" textLength="3.4768" font-size="3.9453" lengthAdjust="spacingAndGlyphs" text-anchor="middle" opacity="0.01" style="font-family:monospace">K</text>
</g>
<g class="stroked-text"><desc>K</desc>
<path d="M139.8627 187.5924 L136.9037 187.5924 "/>
<path d="M139.8627 189.2833 L138.1718 188.0152 "/>
<path d="M136.9037 189.2833 L138.5945 187.5924 "/>
</g><path d="M187.5303 7.4751 L187.5303 22.5068 "/>
<path d="M187.5303 22.5068 L210.0778 22.5068 "/>
<path d="M210.0778 22.5068 L210.0778 7.4751 "/>
<path d="M210.0778 7.4751 L187.5303 7.4751 "/>
</g>
<g style="fill:#848484; fill-opacity:0.0;  stroke:#848484; stroke-width:1.1274; stroke-opacity:1;  stroke-linecap:round; stroke-linejoin:round;">
<circle cx="73.3426" cy="195.1938" r="8.8762"/> 
<circle cx="223.6596" cy="195.1938" r="8.8762"/> 
</g>
<g style="fill:#848484; fill-opacity:0.0;  stroke:#848484; stroke-width:0.4438; stroke-opacity:1;  stroke-linecap:round; stroke-linejoin:round;">
<path d="M164.9827 29.8155 L164.9827 7.2679 "/>
<path d="M157.4669 29.8155 L164.9827 29.8155 "/>
<path d="M157.4669 7.2679 L157.4669 29.8155 "/>
<path d="M164.9827 7.2679 L157.4669 7.2679 "/>
</g>
<g style="fill:#848484; fill-opacity:0.0;  stroke:#848484; stroke-width:1.1274; stroke-opacity:1;  stroke-linecap:round; stroke-linejoin:round;">
<circle cx="223.6596" cy="14.6950" r="8.8762"/> 
<circle cx="73.3426" cy="14.6950" r="8.8762"/> 
</g>
<g style="fill:#848484; fill-opacity:0.0;  stroke:#848484; stroke-width:0.4438; stroke-opacity:1;  stroke-linecap:round; stroke-linejoin:round;">
<path d="M154.4487 7.4751 L131.9011 7.4751 "/>
<path d="M131.9011 7.4751 L131.9011 22.5068 "/>
<path d="M131.9011 22.5068 L154.4487 22.5068 "/>
<path d="M154.4487 22.5068 L154.4487 7.4751 "/>
<g>
</g>
<g>
</g>
<g>
</g>
<g>
</g>
<g>
</g>
<g>
</g>
<g>
</g>
<g>
</g>
<g>
</g>
<g>
</g>
<g>
</g>
<g>
</g>
<g>
</g>
<g>
</g>
<g>
</g>
<g>
</g>
<g>
</g>
<g>
</g>
<g>
</g>
<g>
</g>
<g>
</g>
<g>
</g>
<g>
</g>
<g>
</g>
<g>
</g>
<g>
</g>
<g>
</g>
<g>
</g>
<g>
</g>
<g>
</g>
<g>
</g>
<g>
</g>
<g>
</g>
<g>
</g>
<g>
</g>
<g>
</g>
<g>
</g>
<g>
</g>
<g>
</g>
<g>
</g>
<g>
</g>
<g>
</g>
<g>
</g>
<g>
</g>
<g>
</g>
<g>
</g>
<g>
</g>
<g>
</g>
<g>
</g>
<g>
</g>
<g>
</g>
<g>
</g>
<g>
</g>
<g>
</g>
<g>
</g>
<g>
</g>
<g>
</g>
</g> 
<svg:g><svg:g><svg:title>SVG Image created as OLED01-Edge_Cuts.svg date 2023/07/05 13:07:32 </svg:title>
  <svg:desc>Image generated by PCBNEW </svg:desc>
<svg:g style="fill:#C2C200; fill-opacity:1.0000;stroke:#C2C200; stroke-opacity:1.0000; stroke-linecap:round; stroke-linejoin:round;" transform="translate(0 0) scale(1 1)">
</svg:g>
<svg:g style="fill:#C2C200; fill-opacity:0.0;  stroke:#C2C200; stroke-width:0.0000; stroke-opacity:1;  stroke-linecap:round; stroke-linejoin:round;">
</svg:g>
<svg:g style="fill:#C2C200; fill-opacity:0.0;  stroke:#C2C200; stroke-width:0.1479; stroke-opacity:1;  stroke-linecap:round; stroke-linejoin:round;">
<svg:path d="M155.6027 33.9285 A1.7754 1.7754 0.0 0 0 155.6027 30.3777"/>
<svg:path style="fill:#C2C200; fill-opacity:0.0;  stroke:#C2C200; stroke-width:0.1479; stroke-opacity:1;  stroke-linecap:round; stroke-linejoin:round;fill:none" d="M 238.3954,0.0776 58.6068,0.0776 58.6068,209.9296 238.3954,209.9296 Z"/> 
<svg:path d="M155.6027 33.9285 L141.3995 33.9285 "/>
<svg:path d="M141.3995 30.3777 L155.6027 30.3777 "/>
<svg:path d="M141.3995 30.3777 A1.7754 1.7754 0.0 0 0 141.3995 33.9285"/>
<svg:path d="M153.4944 197.9161 L149.3518 197.9161 "/>
<svg:path d="M147.8723 196.4366 L147.8723 192.8858 "/>
<svg:path d="M153.4944 191.4063 L149.3518 191.4063 "/>
<svg:path d="M154.9739 196.4366 L154.9739 192.8858 "/>
<svg:path d="M153.4944 197.9161 A1.4795 1.4795 0.0 0 0 154.9739 196.4366"/>
<svg:path d="M149.3518 191.4063 A1.4795 1.4795 0.0 0 0 147.8723 192.8858"/>
<svg:path d="M147.8723 196.4366 A1.4795 1.4795 0.0 0 0 149.3518 197.9161"/>
<svg:path d="M154.9739 192.8858 A1.4795 1.4795 0.0 0 0 153.4944 191.4063"/>
<svg:path d="M141.9173 196.1555 L141.9173 192.6047 "/>
<svg:path d="M140.4378 197.6350 L136.2952 197.6350 "/>
<svg:path d="M140.4378 191.1252 L136.2952 191.1252 "/>
<svg:path d="M134.8157 196.1555 L134.8157 192.6047 "/>
<svg:path d="M140.4378 197.6350 A1.4795 1.4795 0.0 0 0 141.9173 196.1555"/>
<svg:path d="M136.2952 191.1252 A1.4795 1.4795 0.0 0 0 134.8157 192.6047"/>
<svg:path d="M141.9173 192.6047 A1.4795 1.4795 0.0 0 0 140.4378 191.1252"/>
<svg:path d="M134.8157 196.1555 A1.4795 1.4795 0.0 0 0 136.2952 197.6350"/>
<svg:g>
</svg:g>
<svg:g>
</svg:g>
<svg:g>
</svg:g>
<svg:g>
</svg:g>
<svg:g>
</svg:g>
<svg:g>
</svg:g>
<svg:g>
</svg:g>
<svg:g>
</svg:g>
<svg:g>
</svg:g>
<svg:g>
</svg:g>
<svg:g>
</svg:g>
<svg:g>
</svg:g>
<svg:g>
</svg:g>
<svg:g>
</svg:g>
<svg:g>
</svg:g>
<svg:g>
</svg:g>
<svg:g>
</svg:g>
<svg:g>
</svg:g>
<svg:g>
</svg:g>
<svg:g>
</svg:g>
<svg:g>
</svg:g>
<svg:g>
</svg:g>
<svg:g>
</svg:g>
<svg:g>
</svg:g>
<svg:g>
</svg:g>
<svg:g>
</svg:g>
<svg:g>
</svg:g>
<svg:g>
</svg:g>
<svg:g>
</svg:g>
<svg:g>
</svg:g>
<svg:g>
</svg:g>
<svg:g>
</svg:g>
<svg:g>
</svg:g>
<svg:g>
</svg:g>
<svg:g>
</svg:g>
<svg:g>
</svg:g>
<svg:g>
</svg:g>
<svg:g>
</svg:g>
<svg:g>
</svg:g>
<svg:g>
</svg:g>
<svg:g>
</svg:g>
<svg:g>
</svg:g>
<svg:g>
</svg:g>
<svg:g>
</svg:g>
<svg:g>
</svg:g>
<svg:g>
</svg:g>
<svg:g>
</svg:g>
<svg:g>
</svg:g>
<svg:g>
</svg:g>
<svg:g>
</svg:g>
<svg:g>
</svg:g>
<svg:g>
</svg:g>
<svg:g>
</svg:g>
<svg:g>
</svg:g>
<svg:g>
</svg:g>
<svg:g>
</svg:g>
<svg:g>
</svg:g>
</svg:g> 
</svg:g></svg:g></svg>
