<?xml version='1.0' encoding='ASCII' standalone='yes'?>
<svg xmlns:svg="http://www.w3.org/2000/svg" xmlns="http://www.w3.org/2000/svg" xmlns:xlink="http://www.w3.org/1999/xlink" version="1.1" width="29.700220cm" height="21.000720cm" viewBox="0 0 2970022 2100072">
<title>SVG Picture created as OLED01-B_Fab.svg date 2023/06/13 23:25:20 </title>
  <desc>Picture generated by PCBNEW </desc>
<g style="fill:#000084; fill-opacity:1.000000;stroke:#000084; stroke-opacity:1.000000; stroke-linecap:round; stroke-linejoin:round;" transform="translate(0 0) scale(1 1)">
</g>
<g style="fill:#000084; fill-opacity:0.0;  stroke:#000084; stroke-width:0.000000; stroke-opacity:1;  stroke-linecap:round; stroke-linejoin:round;">
</g>
<g style="fill:#000084; fill-opacity:0.0;  stroke:#000084; stroke-width:4438.495139; stroke-opacity:1;  stroke-linecap:round; stroke-linejoin:round;">
<g transform="rotate(-90.000000 1047079.470199 1102706.153304)">
<text x="1047079.470199" y="1117501.137100" transform="scale(-1 1) translate(-2094158.940397 0)" textLength="52134.682260" font-size="39453.280259" lengthAdjust="spacingAndGlyphs" text-anchor="middle" opacity="0.01" style="font-family:monospace">L1</text>
</g>
<g class="stroked-text"><desc>L1</desc>
<path d="M1060465 1097774 L1060465 1083684 L1030875 1083684 "/>
<path d="M1060465 1123137 L1060465 1106228 "/>
<path d="M1060465 1114683 L1030875 1114683 L1035102 1111864 L1037920 1109046 L1039329 1106228 "/>
</g></g>
<g style="fill:#000084; fill-opacity:0.0;  stroke:#000084; stroke-width:2367.197407; stroke-opacity:1;  stroke-linecap:round; stroke-linejoin:round;">
<g transform="rotate(-90.000000 1254209.243342 541976.267437)">
<text x="1254209.243342" y="549373.759335" transform="scale(-1 1) translate(-2508418.486685 0)" textLength="37205.863041" font-size="19726.625335" lengthAdjust="spacingAndGlyphs" text-anchor="middle" opacity="0.01" style="font-family:monospace">R10</text>
</g>
<g class="stroked-text"><desc>R10</desc>
<path d="M1260902 532465 L1253856 527533 "/>
<path d="M1260902 524010 L1246107 524010 L1246107 529647 L1246811 531056 L1247516 531760 L1248925 532465 L1251038 532465 L1252447 531760 L1253152 531056 L1253856 529647 L1253856 524010 "/>
<path d="M1260902 546555 L1260902 538101 "/>
<path d="M1260902 542328 L1246107 542328 L1248220 540919 L1249629 539510 L1250334 538101 "/>
<path d="M1246107 555714 L1246107 557123 L1246811 558532 L1247516 559237 L1248925 559941 L1251743 560646 L1255266 560646 L1258084 559941 L1259493 559237 L1260197 558532 L1260902 557123 L1260902 555714 L1260197 554305 L1259493 553600 L1258084 552896 L1255266 552191 L1251743 552191 L1248925 552896 L1247516 553600 L1246811 554305 L1246107 555714 "/>
</g></g>
<g style="fill:#000084; fill-opacity:0.0;  stroke:#000084; stroke-width:4438.495139; stroke-opacity:1;  stroke-linecap:round; stroke-linejoin:round;">
<g transform="rotate(-90.000000 1507203.466253 1988925.682683)">
<text x="1507203.466253" y="2003720.666479" transform="scale(-1 1) translate(-3014406.932507 0)" textLength="49057.355221" font-size="39453.280259" lengthAdjust="spacingAndGlyphs" text-anchor="middle" opacity="0.01" style="font-family:monospace"> R</text>
</g>
<g class="stroked-text"><desc> R</desc>
<path d="M1520589 2009356 L1506498 1999493 "/>
<path d="M1520589 1992448 L1490999 1992448 L1490999 2003720 L1492408 2006538 L1493817 2007947 L1496635 2009356 L1500862 2009356 L1503680 2007947 L1505089 2006538 L1506498 2003720 L1506498 1992448 "/>
</g></g>
<g style="fill:#000084; fill-opacity:0.0;  stroke:#000084; stroke-width:2367.197407; stroke-opacity:1;  stroke-linecap:round; stroke-linejoin:round;">
<g transform="rotate(-90.000000 1458380.019727 1988925.682683)">
<text x="1458380.019727" y="1996323.174581" transform="scale(-1 1) translate(-2916760.039453 0)" textLength="37205.863041" font-size="19726.625335" lengthAdjust="spacingAndGlyphs" text-anchor="middle" opacity="0.01" style="font-family:monospace">R19</text>
</g>
<g class="stroked-text"><desc>R19</desc>
<path d="M1465072 1979414 L1458027 1974482 "/>
<path d="M1465072 1970960 L1450277 1970960 L1450277 1976596 L1450982 1978005 L1451687 1978710 L1453096 1979414 L1455209 1979414 L1456618 1978710 L1457323 1978005 L1458027 1976596 L1458027 1970960 "/>
<path d="M1465072 1993505 L1465072 1985050 "/>
<path d="M1465072 1989277 L1450277 1989277 L1452391 1987868 L1453800 1986459 L1454505 1985050 "/>
<path d="M1465072 2000550 L1465072 2003368 L1464368 2004777 L1463663 2005481 L1461550 2006890 L1458732 2007595 L1453096 2007595 L1451687 2006890 L1450982 2006186 L1450277 2004777 L1450277 2001959 L1450982 2000550 L1451687 1999845 L1453096 1999141 L1456618 1999141 L1458027 1999845 L1458732 2000550 L1459436 2001959 L1459436 2004777 L1458732 2006186 L1458027 2006890 L1456618 2007595 "/>
</g><g transform="rotate(-90.000000 1990999.436382 718036.574609)">
<text x="1990999.436382" y="725434.066507" transform="scale(-1 1) translate(-3981998.872763 0)" textLength="25808.073834" font-size="19726.625335" lengthAdjust="spacingAndGlyphs" text-anchor="middle" opacity="0.01" style="font-family:monospace">R3</text>
</g>
<g class="stroked-text"><desc>R3</desc>
<path d="M1997692 715570 L1990647 710639 "/>
<path d="M1997692 707116 L1982897 707116 L1982897 712752 L1983601 714161 L1984306 714866 L1985715 715570 L1987829 715570 L1989238 714866 L1989942 714161 L1990647 712752 L1990647 707116 "/>
<path d="M1982897 720502 L1982897 729661 L1988533 724729 L1988533 726843 L1989238 728252 L1989942 728956 L1991351 729661 L1994874 729661 L1996283 728956 L1996987 728252 L1997692 726843 L1997692 722615 L1996987 721206 L1996283 720502 "/>
</g></g>
<g style="fill:#000084; fill-opacity:0.01;  stroke:#000084; stroke-width:2219.247569; stroke-opacity:1;  stroke-linecap:round; stroke-linejoin:round;">
<text x="1087036.016627" y="934823.122446" transform="scale(-1 1) translate(-2174072.033253 0)" textLength="26512.610962" font-size="19726.625335" lengthAdjust="spacingAndGlyphs" text-anchor="middle" opacity="0.01" style="font-family:monospace">U3</text>
<g class="stroked-text"><desc>U3</desc>
<path d="M1098308 919323 L1098308 931300 L1097603 932709 L1096899 933414 L1095490 934118 L1092672 934118 L1091263 933414 L1090558 932709 L1089854 931300 L1089854 919323 "/>
<path d="M1084217 919323 L1075059 919323 L1079990 924959 L1077877 924959 L1076468 925664 L1075763 926368 L1075059 927777 L1075059 931300 L1075763 932709 L1076468 933414 L1077877 934118 L1082104 934118 L1083513 933414 L1084217 932709 "/>
</g></g>
<g style="fill:#000084; fill-opacity:0.0;  stroke:#000084; stroke-width:4438.495139; stroke-opacity:1;  stroke-linecap:round; stroke-linejoin:round;">
<g transform="rotate(-90.000000 1709524.869663 1767000.925743)">
<text x="1709524.869663" y="1781795.909539" transform="scale(-1 1) translate(-3419049.739326 0)" textLength="233834.718895" font-size="39453.280259" lengthAdjust="spacingAndGlyphs" text-anchor="middle" opacity="0.01" style="font-family:monospace">BC817-25</text>
</g>
<g class="stroked-text"><desc>BC817-25</desc>
<path d="M1707411 1665549 L1708820 1669776 L1710229 1671185 L1713047 1672594 L1717274 1672594 L1720092 1671185 L1721501 1669776 L1722910 1666958 L1722910 1655686 L1693320 1655686 L1693320 1665549 L1694729 1668367 L1696138 1669776 L1698957 1671185 L1701775 1671185 L1704593 1669776 L1706002 1668367 L1707411 1665549 L1707411 1655686 "/>
<path d="M1720092 1702184 L1721501 1700775 L1722910 1696548 L1722910 1693730 L1721501 1689503 L1718683 1686685 L1715865 1685276 L1710229 1683867 L1706002 1683867 L1700366 1685276 L1697547 1686685 L1694729 1689503 L1693320 1693730 L1693320 1696548 L1694729 1700775 L1696138 1702184 "/>
<path d="M1706002 1719093 L1704593 1716275 L1703184 1714866 L1700366 1713457 L1698957 1713457 L1696138 1714866 L1694729 1716275 L1693320 1719093 L1693320 1724729 L1694729 1727547 L1696138 1728956 L1698957 1730365 L1700366 1730365 L1703184 1728956 L1704593 1727547 L1706002 1724729 L1706002 1719093 L1707411 1716275 L1708820 1714866 L1711638 1713457 L1717274 1713457 L1720092 1714866 L1721501 1716275 L1722910 1719093 L1722910 1724729 L1721501 1727547 L1720092 1728956 L1717274 1730365 L1711638 1730365 L1708820 1728956 L1707411 1727547 L1706002 1724729 "/>
<path d="M1722910 1758546 L1722910 1741638 "/>
<path d="M1722910 1750092 L1693320 1750092 L1697547 1747274 L1700366 1744456 L1701775 1741638 "/>
<path d="M1693320 1768409 L1693320 1788136 L1722910 1775455 "/>
<path d="M1711638 1799408 L1711638 1821953 "/>
<path d="M1696138 1834635 L1694729 1836044 L1693320 1838862 L1693320 1845907 L1694729 1848725 L1696138 1850134 L1698957 1851543 L1701775 1851543 L1706002 1850134 L1722910 1833226 L1722910 1851543 "/>
<path d="M1693320 1878315 L1693320 1864225 L1707411 1862816 L1706002 1864225 L1704593 1867043 L1704593 1874088 L1706002 1876906 L1707411 1878315 L1710229 1879724 L1717274 1879724 L1720092 1878315 L1721501 1876906 L1722910 1874088 L1722910 1867043 L1721501 1864225 L1720092 1862816 "/>
</g></g>
<g style="fill:#000084; fill-opacity:0.0;  stroke:#000084; stroke-width:1479.498380; stroke-opacity:1;  stroke-linecap:round; stroke-linejoin:round;">
<g transform="rotate(-90.000000 1638508.947443 1767000.925743)">
<text x="1638508.947443" y="1771735.320558" transform="scale(-1 1) translate(-3277017.894885 0)" textLength="13167.535578" font-size="12625.033113" lengthAdjust="spacingAndGlyphs" text-anchor="middle" opacity="0.01" style="font-family:monospace">Q1</text>
</g>
<g class="stroked-text"><desc>Q1</desc>
<path d="M1643694 1766099 L1643243 1765197 L1642341 1764295 L1640988 1762942 L1640537 1762041 L1640537 1761139 "/>
<path d="M1642792 1761590 L1642341 1760688 L1641439 1759786 L1639636 1759335 L1636479 1759335 L1634676 1759786 L1633774 1760688 L1633323 1761590 L1633323 1763393 L1633774 1764295 L1634676 1765197 L1636479 1765648 L1639636 1765648 L1641439 1765197 L1642341 1764295 L1642792 1763393 L1642792 1761590 "/>
<path d="M1642792 1774666 L1642792 1769255 "/>
<path d="M1642792 1771960 L1633323 1771960 L1634676 1771058 L1635578 1770157 L1636029 1769255 "/>
</g></g>
<g style="fill:#000084; fill-opacity:0.01;  stroke:#000084; stroke-width:4438.495139; stroke-opacity:1;  stroke-linecap:round; stroke-linejoin:round;">
<text x="1635919.825278" y="600268.503593" transform="scale(-1 1) translate(-3271839.650557 0)" textLength="106573.209807" font-size="39453.280259" lengthAdjust="spacingAndGlyphs" text-anchor="middle" opacity="0.01" style="font-family:monospace">10uF</text>
<g class="stroked-text"><desc>10uF</desc>
<path d="M1667623 598859 L1684531 598859 "/>
<path d="M1676077 598859 L1676077 569269 L1678895 573496 L1681713 576314 L1684531 577723 "/>
<path d="M1649305 569269 L1646487 569269 L1643669 570678 L1642260 572087 L1640851 574905 L1639442 580541 L1639442 587587 L1640851 593223 L1642260 596041 L1643669 597450 L1646487 598859 L1649305 598859 L1652123 597450 L1653532 596041 L1654941 593223 L1656350 587587 L1656350 580541 L1654941 574905 L1653532 572087 L1652123 570678 L1649305 569269 "/>
<path d="M1614079 579132 L1614079 598859 "/>
<path d="M1626761 579132 L1626761 594632 L1625351 597450 L1622533 598859 L1618306 598859 L1615488 597450 L1614079 596041 "/>
<path d="M1590125 583359 L1599989 583359 "/>
<path d="M1599989 598859 L1599989 569269 L1585898 569269 "/>
</g></g>
<g style="fill:#000084; fill-opacity:0.01;  stroke:#000084; stroke-width:2367.197407; stroke-opacity:1;  stroke-linecap:round; stroke-linejoin:round;">
<text x="1635919.825278" y="642582.157250" transform="scale(-1 1) translate(-3271839.650557 0)" textLength="23115.386783" font-size="19726.625335" lengthAdjust="spacingAndGlyphs" text-anchor="middle" opacity="0.01" style="font-family:monospace">C4</text>
<g class="stroked-text"><desc>C4</desc>
<path d="M1638385 640468 L1639090 641173 L1641203 641877 L1642612 641877 L1644726 641173 L1646135 639764 L1646839 638354 L1647544 635536 L1647544 633423 L1646839 630605 L1646135 629196 L1644726 627787 L1642612 627082 L1641203 627082 L1639090 627787 L1638385 628491 "/>
<path d="M1625704 632014 L1625704 641877 "/>
<path d="M1629226 626378 L1632749 636945 L1623590 636945 "/>
</g><g transform="rotate(-90.000000 1070751.444272 531619.778780)">
<text x="1070751.444272" y="539017.270678" transform="scale(-1 1) translate(-2141502.888544 0)" textLength="25808.073834" font-size="19726.625335" lengthAdjust="spacingAndGlyphs" text-anchor="middle" opacity="0.01" style="font-family:monospace">R1</text>
</g>
<g class="stroked-text"><desc>R1</desc>
<path d="M1077444 529153 L1070399 524222 "/>
<path d="M1077444 520699 L1062649 520699 L1062649 526335 L1063353 527744 L1064058 528449 L1065467 529153 L1067581 529153 L1068990 528449 L1069694 527744 L1070399 526335 L1070399 520699 "/>
<path d="M1077444 543244 L1077444 534790 "/>
<path d="M1077444 539017 L1062649 539017 L1064762 537608 L1066172 536199 L1066876 534790 "/>
</g><g transform="rotate(-90.000000 1863762.575736 617430.684796)">
<text x="1863762.575736" y="624828.176694" transform="scale(-1 1) translate(-3727525.151472 0)" textLength="25808.073834" font-size="19726.625335" lengthAdjust="spacingAndGlyphs" text-anchor="middle" opacity="0.01" style="font-family:monospace">R4</text>
</g>
<g class="stroked-text"><desc>R4</desc>
<path d="M1870455 614964 L1863410 610033 "/>
<path d="M1870455 606510 L1855660 606510 L1855660 612146 L1856365 613555 L1857069 614260 L1858478 614964 L1860592 614964 L1862001 614260 L1862705 613555 L1863410 612146 L1863410 606510 "/>
<path d="M1860592 627646 L1870455 627646 "/>
<path d="M1854956 624123 L1865523 620601 L1865523 629759 "/>
</g></g>
<g style="fill:#000084; fill-opacity:0.01;  stroke:#000084; stroke-width:4438.495139; stroke-opacity:1;  stroke-linecap:round; stroke-linejoin:round;">
<text x="1502764.971115" y="219445.620685" transform="scale(-1 1) translate(-3005529.942229 0)" textLength="54693.533888" font-size="39453.280259" lengthAdjust="spacingAndGlyphs" text-anchor="middle" opacity="0.01" style="font-family:monospace">D2</text>
<g class="stroked-text"><desc>D2</desc>
<path d="M1524605 218036 L1524605 188446 L1517559 188446 L1513332 189855 L1510514 192673 L1509105 195491 L1507696 201128 L1507696 205355 L1509105 210991 L1510514 213809 L1513332 216627 L1517559 218036 L1524605 218036 "/>
<path d="M1496424 191264 L1495015 189855 L1492197 188446 L1485151 188446 L1482333 189855 L1480924 191264 L1479515 194082 L1479515 196900 L1480924 201128 L1497833 218036 L1479515 218036 "/>
</g></g>
<g style="fill:#000084; fill-opacity:0.01;  stroke:#000084; stroke-width:2367.197407; stroke-opacity:1;  stroke-linecap:round; stroke-linejoin:round;">
<text x="1634440.326899" y="271228.063971" transform="scale(-1 1) translate(-3268880.653797 0)" textLength="23115.386783" font-size="19726.625335" lengthAdjust="spacingAndGlyphs" text-anchor="middle" opacity="0.01" style="font-family:monospace">C8</text>
<g class="stroked-text"><desc>C8</desc>
<path d="M1636906 269114 L1637610 269818 L1639724 270523 L1641133 270523 L1643246 269818 L1644655 268409 L1645360 267000 L1646064 264182 L1646064 262069 L1645360 259251 L1644655 257842 L1643246 256433 L1641133 255728 L1639724 255728 L1637610 256433 L1636906 257137 "/>
<path d="M1628451 262069 L1629860 261364 L1630565 260660 L1631269 259251 L1631269 258546 L1630565 257137 L1629860 256433 L1628451 255728 L1625633 255728 L1624224 256433 L1623520 257137 L1622815 258546 L1622815 259251 L1623520 260660 L1624224 261364 L1625633 262069 L1628451 262069 L1629860 262773 L1630565 263478 L1631269 264887 L1631269 267705 L1630565 269114 L1629860 269818 L1628451 270523 L1625633 270523 L1624224 269818 L1623520 269114 L1622815 267705 L1622815 264887 L1623520 263478 L1624224 262773 L1625633 262069 "/>
</g><text x="2035384.387769" y="346682.481330" transform="scale(-1 1) translate(-4070768.775539 0)" textLength="39898.550092" font-size="19726.625335" lengthAdjust="spacingAndGlyphs" text-anchor="middle" opacity="0.01" style="font-family:monospace">R13</text>
<g class="stroked-text"><desc>R13</desc>
<path d="M2044895 345977 L2049827 338932 "/>
<path d="M2053349 345977 L2053349 331182 L2047713 331182 L2046304 331887 L2045599 332592 L2044895 334001 L2044895 336114 L2045599 337523 L2046304 338228 L2047713 338932 L2053349 338932 "/>
<path d="M2030804 345977 L2039259 345977 "/>
<path d="M2035032 345977 L2035032 331182 L2036441 333296 L2037850 334705 L2039259 335410 "/>
<path d="M2025873 331182 L2016714 331182 L2021646 336819 L2019532 336819 L2018123 337523 L2017419 338228 L2016714 339637 L2016714 343159 L2017419 344568 L2018123 345273 L2019532 345977 L2023759 345977 L2025168 345273 L2025873 344568 "/>
</g></g>
<g style="fill:#000084; fill-opacity:0.0;  stroke:#000084; stroke-width:4438.495139; stroke-opacity:1;  stroke-linecap:round; stroke-linejoin:round;">
<g transform="rotate(-90.000000 748220.797520 1052403.208398)">
<text x="748220.797520" y="1067198.192194" transform="scale(-1 1) translate(-1496441.595040 0)" textLength="54693.533888" font-size="39453.280259" lengthAdjust="spacingAndGlyphs" text-anchor="middle" opacity="0.01" style="font-family:monospace">D1</text>
</g>
<g class="stroked-text"><desc>D1</desc>
<path d="M761606 1030562 L732016 1030562 L732016 1037608 L733425 1041835 L736243 1044653 L739061 1046062 L744698 1047471 L748925 1047471 L754561 1046062 L757379 1044653 L760197 1041835 L761606 1037608 L761606 1030562 "/>
<path d="M761606 1075652 L761606 1058743 "/>
<path d="M761606 1067198 L732016 1067198 L736243 1064380 L739061 1061561 L740471 1058743 "/>
</g><g transform="rotate(-90.000000 1718771.734536 743188.047062)">
<text x="1718771.734536" y="757983.030858" transform="scale(-1 1) translate(-3437543.469071 0)" textLength="378899.535015" font-size="39453.280259" lengthAdjust="spacingAndGlyphs" text-anchor="middle" opacity="0.01" style="font-family:monospace">MIC5504-2.5YM5</text>
</g>
<g class="stroked-text"><desc>MIC5504-2.5YM5</desc>
<path d="M1732157 557898 L1702567 557898 L1723703 567761 L1702567 577625 L1732157 577625 "/>
<path d="M1732157 591715 L1702567 591715 "/>
<path d="M1729339 622714 L1730748 621305 L1732157 617078 L1732157 614260 L1730748 610033 L1727930 607215 L1725112 605806 L1719476 604396 L1715249 604396 L1709612 605806 L1706794 607215 L1703976 610033 L1702567 614260 L1702567 617078 L1703976 621305 L1705385 622714 "/>
<path d="M1702567 649486 L1702567 635395 L1716658 633986 L1715249 635395 L1713840 638214 L1713840 645259 L1715249 648077 L1716658 649486 L1719476 650895 L1726521 650895 L1729339 649486 L1730748 648077 L1732157 645259 L1732157 638214 L1730748 635395 L1729339 633986 "/>
<path d="M1702567 677667 L1702567 663576 L1716658 662167 L1715249 663576 L1713840 666395 L1713840 673440 L1715249 676258 L1716658 677667 L1719476 679076 L1726521 679076 L1729339 677667 L1730748 676258 L1732157 673440 L1732157 666395 L1730748 663576 L1729339 662167 "/>
<path d="M1702567 697394 L1702567 700212 L1703976 703030 L1705385 704439 L1708203 705848 L1713840 707257 L1720885 707257 L1726521 705848 L1729339 704439 L1730748 703030 L1732157 700212 L1732157 697394 L1730748 694575 L1729339 693166 L1726521 691757 L1720885 690348 L1713840 690348 L1708203 691757 L1705385 693166 L1703976 694575 L1702567 697394 "/>
<path d="M1712431 732620 L1732157 732620 "/>
<path d="M1701158 725574 L1722294 718529 L1722294 736847 "/>
<path d="M1720885 748119 L1720885 770664 "/>
<path d="M1705385 783345 L1703976 784754 L1702567 787572 L1702567 794618 L1703976 797436 L1705385 798845 L1708203 800254 L1711021 800254 L1715249 798845 L1732157 781936 L1732157 800254 "/>
<path d="M1729339 812935 L1730748 814344 L1732157 812935 L1730748 811526 L1729339 812935 L1732157 812935 "/>
<path d="M1702567 841116 L1702567 827026 L1716658 825617 L1715249 827026 L1713840 829844 L1713840 836889 L1715249 839707 L1716658 841116 L1719476 842525 L1726521 842525 L1729339 841116 L1730748 839707 L1732157 836889 L1732157 829844 L1730748 827026 L1729339 825617 "/>
<path d="M1718067 860843 L1732157 860843 "/>
<path d="M1702567 850980 L1718067 860843 L1702567 870706 "/>
<path d="M1732157 880570 L1702567 880570 L1723703 890433 L1702567 900296 L1732157 900296 "/>
<path d="M1702567 928477 L1702567 914387 L1716658 912978 L1715249 914387 L1713840 917205 L1713840 924250 L1715249 927068 L1716658 928477 L1719476 929886 L1726521 929886 L1729339 928477 L1730748 927068 L1732157 924250 L1732157 917205 L1730748 914387 L1729339 912978 "/>
</g></g>
<g style="fill:#000084; fill-opacity:0.0;  stroke:#000084; stroke-width:1775.398056; stroke-opacity:1;  stroke-linecap:round; stroke-linejoin:round;">
<g transform="rotate(-90.000000 1647755.812315 743188.047062)">
<text x="1647755.812315" y="749106.040581" transform="scale(-1 1) translate(-3295511.624630 0)" textLength="17901.930393" font-size="15781.306186" lengthAdjust="spacingAndGlyphs" text-anchor="middle" opacity="0.01" style="font-family:monospace">U2</text>
</g>
<g class="stroked-text"><desc>U2</desc>
<path d="M1641274 734170 L1650855 734170 L1651982 734733 L1652546 735297 L1653110 736424 L1653110 738679 L1652546 739806 L1651982 740369 L1650855 740933 L1641274 740933 "/>
<path d="M1642401 746006 L1641837 746569 L1641274 747696 L1641274 750515 L1641837 751642 L1642401 752205 L1643528 752769 L1644655 752769 L1646346 752205 L1653110 745442 L1653110 752769 "/>
</g></g>
<g style="fill:#000084; fill-opacity:0.01;  stroke:#000084; stroke-width:4438.495139; stroke-opacity:1;  stroke-linecap:round; stroke-linejoin:round;">
<text x="1507573.340848" y="1675272.026208" transform="scale(-1 1) translate(-3015146.681696 0)" textLength="111824.718895" font-size="39453.280259" lengthAdjust="spacingAndGlyphs" text-anchor="middle" opacity="0.01" style="font-family:monospace">220R</text>
<g class="stroked-text"><desc>220R</desc>
<path d="M1559003 1647091 L1557594 1645682 L1554776 1644272 L1547731 1644272 L1544913 1645682 L1543503 1647091 L1542094 1649909 L1542094 1652727 L1543503 1656954 L1560412 1673862 L1542094 1673862 "/>
<path d="M1530822 1647091 L1529413 1645682 L1526595 1644272 L1519550 1644272 L1516732 1645682 L1515323 1647091 L1513914 1649909 L1513914 1652727 L1515323 1656954 L1532231 1673862 L1513914 1673862 "/>
<path d="M1495596 1644272 L1492778 1644272 L1489960 1645682 L1488551 1647091 L1487142 1649909 L1485733 1655545 L1485733 1662590 L1487142 1668226 L1488551 1671044 L1489960 1672453 L1492778 1673862 L1495596 1673862 L1498414 1672453 L1499823 1671044 L1501232 1668226 L1502641 1662590 L1502641 1655545 L1501232 1649909 L1499823 1647091 L1498414 1645682 L1495596 1644272 "/>
<path d="M1456143 1673862 L1466006 1659772 "/>
<path d="M1473051 1673862 L1473051 1644272 L1461779 1644272 L1458961 1645682 L1457552 1647091 L1456143 1649909 L1456143 1654136 L1457552 1656954 L1458961 1658363 L1461779 1659772 L1473051 1659772 "/>
</g></g>
<g style="fill:#000084; fill-opacity:0.01;  stroke:#000084; stroke-width:2367.197407; stroke-opacity:1;  stroke-linecap:round; stroke-linejoin:round;">
<text x="1507573.340848" y="1619051.087784" transform="scale(-1 1) translate(-3015146.681696 0)" textLength="37205.863041" font-size="19726.625335" lengthAdjust="spacingAndGlyphs" text-anchor="middle" opacity="0.01" style="font-family:monospace">R17</text>
<g class="stroked-text"><desc>R17</desc>
<path d="M1517084 1618346 L1522016 1611301 "/>
<path d="M1525538 1618346 L1525538 1603551 L1519902 1603551 L1518493 1604256 L1517788 1604960 L1517084 1606369 L1517084 1608483 L1517788 1609892 L1518493 1610596 L1519902 1611301 L1525538 1611301 "/>
<path d="M1502993 1618346 L1511448 1618346 "/>
<path d="M1507221 1618346 L1507221 1603551 L1508630 1605665 L1510039 1607074 L1511448 1607778 "/>
<path d="M1498062 1603551 L1488198 1603551 L1494539 1618346 "/>
</g></g>
<g style="fill:#000084; fill-opacity:0.01;  stroke:#000084; stroke-width:4438.495139; stroke-opacity:1;  stroke-linecap:round; stroke-linejoin:round;">
<text x="1869680.569255" y="404382.918134" transform="scale(-1 1) translate(-3739361.138509 0)" textLength="253369.039031" font-size="39453.280259" lengthAdjust="spacingAndGlyphs" text-anchor="middle" opacity="0.01" style="font-family:monospace">PCA9306DP</text>
<g class="stroked-text"><desc>PCA9306DP</desc>
<path d="M1990858 402973 L1990858 373383 L1979586 373383 L1976768 374792 L1975359 376201 L1973949 379020 L1973949 383247 L1975359 386065 L1976768 387474 L1979586 388883 L1990858 388883 "/>
<path d="M1944359 400155 L1945769 401564 L1949996 402973 L1952814 402973 L1957041 401564 L1959859 398746 L1961268 395928 L1962677 390292 L1962677 386065 L1961268 380429 L1959859 377611 L1957041 374792 L1952814 373383 L1949996 373383 L1945769 374792 L1944359 376201 "/>
<path d="M1933087 394519 L1918997 394519 "/>
<path d="M1935905 402973 L1926042 373383 L1916179 402973 "/>
<path d="M1904906 402973 L1899270 402973 L1896452 401564 L1895043 400155 L1892225 395928 L1890816 390292 L1890816 379020 L1892225 376201 L1893634 374792 L1896452 373383 L1902088 373383 L1904906 374792 L1906315 376201 L1907724 379020 L1907724 386065 L1906315 388883 L1904906 390292 L1902088 391701 L1896452 391701 L1893634 390292 L1892225 388883 L1890816 386065 "/>
<path d="M1880952 373383 L1862635 373383 L1872498 384656 L1868271 384656 L1865453 386065 L1864044 387474 L1862635 390292 L1862635 397337 L1864044 400155 L1865453 401564 L1868271 402973 L1876725 402973 L1879543 401564 L1880952 400155 "/>
<path d="M1844317 373383 L1841499 373383 L1838681 374792 L1837272 376201 L1835863 379020 L1834454 384656 L1834454 391701 L1835863 397337 L1837272 400155 L1838681 401564 L1841499 402973 L1844317 402973 L1847135 401564 L1848544 400155 L1849953 397337 L1851362 391701 L1851362 384656 L1849953 379020 L1848544 376201 L1847135 374792 L1844317 373383 "/>
<path d="M1809091 373383 L1814727 373383 L1817545 374792 L1818954 376201 L1821772 380429 L1823182 386065 L1823182 397337 L1821772 400155 L1820363 401564 L1817545 402973 L1811909 402973 L1809091 401564 L1807682 400155 L1806273 397337 L1806273 390292 L1807682 387474 L1809091 386065 L1811909 384656 L1817545 384656 L1820363 386065 L1821772 387474 L1823182 390292 "/>
<path d="M1793592 402973 L1793592 373383 L1786546 373383 L1782319 374792 L1779501 377611 L1778092 380429 L1776683 386065 L1776683 390292 L1778092 395928 L1779501 398746 L1782319 401564 L1786546 402973 L1793592 402973 "/>
<path d="M1764002 402973 L1764002 373383 L1752729 373383 L1749911 374792 L1748502 376201 L1747093 379020 L1747093 383247 L1748502 386065 L1749911 387474 L1752729 388883 L1764002 388883 "/>
</g><text x="1869680.569255" y="323010.507257" transform="scale(-1 1) translate(-3739361.138509 0)" textLength="29737.917430" font-size="23671.974074" lengthAdjust="spacingAndGlyphs" text-anchor="middle" opacity="0.01" style="font-family:monospace">U5</text>
<g class="stroked-text"><desc>U5</desc>
<path d="M1883207 304411 L1883207 318783 L1882361 320474 L1881516 321319 L1879825 322165 L1876443 322165 L1874753 321319 L1873907 320474 L1873062 318783 L1873062 304411 "/>
<path d="M1856153 304411 L1864607 304411 L1865453 312865 L1864607 312019 L1862917 311174 L1858689 311174 L1856999 312019 L1856153 312865 L1855308 314556 L1855308 318783 L1856153 320474 L1856999 321319 L1858689 322165 L1862917 322165 L1864607 321319 L1865453 320474 "/>
</g><text x="1635919.825278" y="1675272.026208" transform="scale(-1 1) translate(-3271839.650557 0)" textLength="74545.591095" font-size="39453.280259" lengthAdjust="spacingAndGlyphs" text-anchor="middle" opacity="0.01" style="font-family:monospace">20k</text>
<g class="stroked-text"><desc>20k</desc>
<path d="M1670441 1647091 L1669032 1645682 L1666214 1644272 L1659169 1644272 L1656350 1645682 L1654941 1647091 L1653532 1649909 L1653532 1652727 L1654941 1656954 L1671850 1673862 L1653532 1673862 "/>
<path d="M1635215 1644272 L1632397 1644272 L1629579 1645682 L1628170 1647091 L1626761 1649909 L1625351 1655545 L1625351 1662590 L1626761 1668226 L1628170 1671044 L1629579 1672453 L1632397 1673862 L1635215 1673862 L1638033 1672453 L1639442 1671044 L1640851 1668226 L1642260 1662590 L1642260 1655545 L1640851 1649909 L1639442 1647091 L1638033 1645682 L1635215 1644272 "/>
<path d="M1612670 1673862 L1612670 1644272 "/>
<path d="M1609852 1662590 L1601398 1673862 "/>
<path d="M1601398 1654136 L1612670 1665408 "/>
</g></g>
<g style="fill:#000084; fill-opacity:0.01;  stroke:#000084; stroke-width:2367.197407; stroke-opacity:1;  stroke-linecap:round; stroke-linejoin:round;">
<text x="1635919.825278" y="1619051.087784" transform="scale(-1 1) translate(-3271839.650557 0)" textLength="37205.863041" font-size="19726.625335" lengthAdjust="spacingAndGlyphs" text-anchor="middle" opacity="0.01" style="font-family:monospace">R15</text>
<g class="stroked-text"><desc>R15</desc>
<path d="M1645430 1618346 L1650362 1611301 "/>
<path d="M1653885 1618346 L1653885 1603551 L1648248 1603551 L1646839 1604256 L1646135 1604960 L1645430 1606369 L1645430 1608483 L1646135 1609892 L1646839 1610596 L1648248 1611301 L1653885 1611301 "/>
<path d="M1631340 1618346 L1639794 1618346 "/>
<path d="M1635567 1618346 L1635567 1603551 L1636976 1605665 L1638385 1607074 L1639794 1607778 "/>
<path d="M1617954 1603551 L1624999 1603551 L1625704 1610596 L1624999 1609892 L1623590 1609187 L1620068 1609187 L1618658 1609892 L1617954 1610596 L1617249 1612005 L1617249 1615528 L1617954 1616937 L1618658 1617642 L1620068 1618346 L1623590 1618346 L1624999 1617642 L1625704 1616937 "/>
</g><g transform="rotate(-90.000000 905047.625757 963633.305622)">
<text x="905047.625757" y="971030.797520" transform="scale(-1 1) translate(-1810095.251515 0)" textLength="25808.073834" font-size="19726.625335" lengthAdjust="spacingAndGlyphs" text-anchor="middle" opacity="0.01" style="font-family:monospace">R7</text>
</g>
<g class="stroked-text"><desc>R7</desc>
<path d="M911740 961167 L904695 956235 "/>
<path d="M911740 952713 L896945 952713 L896945 958349 L897650 959758 L898354 960462 L899763 961167 L901877 961167 L903286 960462 L903990 959758 L904695 958349 L904695 952713 "/>
<path d="M896945 966099 L896945 975962 L911740 969621 "/>
</g></g>
<g style="fill:#000084; fill-opacity:0.0;  stroke:#000084; stroke-width:4438.495139; stroke-opacity:1;  stroke-linecap:round; stroke-linejoin:round;">
<g transform="rotate(-90.000000 1581178.385233 1767000.925743)">
<text x="1581178.385233" y="1781795.909539" transform="scale(-1 1) translate(-3162356.770466 0)" textLength="233642.384106" font-size="39453.280259" lengthAdjust="spacingAndGlyphs" text-anchor="middle" opacity="0.01" style="font-family:monospace">BC817-25</text>
</g>
<g class="stroked-text"><desc>BC817-25</desc>
<path d="M1579064 1665549 L1580473 1669776 L1581882 1671185 L1584700 1672594 L1588928 1672594 L1591746 1671185 L1593155 1669776 L1594564 1666958 L1594564 1655686 L1564974 1655686 L1564974 1665549 L1566383 1668367 L1567792 1669776 L1570610 1671185 L1573428 1671185 L1576246 1669776 L1577655 1668367 L1579064 1665549 L1579064 1655686 "/>
<path d="M1591746 1702184 L1593155 1700775 L1594564 1696548 L1594564 1693730 L1593155 1689503 L1590337 1686685 L1587519 1685276 L1581882 1683867 L1577655 1683867 L1572019 1685276 L1569201 1686685 L1566383 1689503 L1564974 1693730 L1564974 1696548 L1566383 1700775 L1567792 1702184 "/>
<path d="M1577655 1719093 L1576246 1716275 L1574837 1714866 L1572019 1713457 L1570610 1713457 L1567792 1714866 L1566383 1716275 L1564974 1719093 L1564974 1724729 L1566383 1727547 L1567792 1728956 L1570610 1730365 L1572019 1730365 L1574837 1728956 L1576246 1727547 L1577655 1724729 L1577655 1719093 L1579064 1716275 L1580473 1714866 L1583291 1713457 L1588928 1713457 L1591746 1714866 L1593155 1716275 L1594564 1719093 L1594564 1724729 L1593155 1727547 L1591746 1728956 L1588928 1730365 L1583291 1730365 L1580473 1728956 L1579064 1727547 L1577655 1724729 "/>
<path d="M1594564 1758546 L1594564 1741638 "/>
<path d="M1594564 1750092 L1564974 1750092 L1569201 1747274 L1572019 1744456 L1573428 1741638 "/>
<path d="M1564974 1768409 L1564974 1788136 L1594564 1775455 "/>
<path d="M1583291 1799408 L1583291 1821953 "/>
<path d="M1567792 1834635 L1566383 1836044 L1564974 1838862 L1564974 1845907 L1566383 1848725 L1567792 1850134 L1570610 1851543 L1573428 1851543 L1577655 1850134 L1594564 1833226 L1594564 1851543 "/>
<path d="M1564974 1878315 L1564974 1864225 L1579064 1862816 L1577655 1864225 L1576246 1867043 L1576246 1874088 L1577655 1876906 L1579064 1878315 L1581882 1879724 L1588928 1879724 L1591746 1878315 L1593155 1876906 L1594564 1874088 L1594564 1867043 L1593155 1864225 L1591746 1862816 "/>
</g></g>
<g style="fill:#000084; fill-opacity:0.0;  stroke:#000084; stroke-width:1479.498380; stroke-opacity:1;  stroke-linecap:round; stroke-linejoin:round;">
<g transform="rotate(-90.000000 1510162.463013 1767000.925743)">
<text x="1510162.463013" y="1771735.320558" transform="scale(-1 1) translate(-3020324.926025 0)" textLength="13167.535578" font-size="12625.033113" lengthAdjust="spacingAndGlyphs" text-anchor="middle" opacity="0.01" style="font-family:monospace">Q2</text>
</g>
<g class="stroked-text"><desc>Q2</desc>
<path d="M1515347 1766099 L1514896 1765197 L1513995 1764295 L1512642 1762942 L1512191 1762041 L1512191 1761139 "/>
<path d="M1514445 1761590 L1513995 1760688 L1513093 1759786 L1511289 1759335 L1508133 1759335 L1506329 1759786 L1505428 1760688 L1504977 1761590 L1504977 1763393 L1505428 1764295 L1506329 1765197 L1508133 1765648 L1511289 1765648 L1513093 1765197 L1513995 1764295 L1514445 1763393 L1514445 1761590 "/>
<path d="M1505878 1769255 L1505428 1769706 L1504977 1770608 L1504977 1772862 L1505428 1773764 L1505878 1774215 L1506780 1774666 L1507682 1774666 L1509035 1774215 L1514445 1768804 L1514445 1774666 "/>
</g></g>
<g style="fill:#000084; fill-opacity:0.0;  stroke:#000084; stroke-width:4438.495139; stroke-opacity:1;  stroke-linecap:round; stroke-linejoin:round;">
<g transform="rotate(-90.000000 1722618.430323 871904.406087)">
<text x="1722618.430323" y="886699.389883" transform="scale(-1 1) translate(-3445236.860645 0)" textLength="106573.209807" font-size="39453.280259" lengthAdjust="spacingAndGlyphs" text-anchor="middle" opacity="0.01" style="font-family:monospace">10uF</text>
</g>
<g class="stroked-text"><desc>10uF</desc>
<path d="M1736004 840200 L1736004 823292 "/>
<path d="M1736004 831746 L1706414 831746 L1710641 828928 L1713459 826110 L1714868 823292 "/>
<path d="M1706414 858518 L1706414 861336 L1707823 864154 L1709232 865563 L1712050 866972 L1717686 868381 L1724731 868381 L1730368 866972 L1733186 865563 L1734595 864154 L1736004 861336 L1736004 858518 L1734595 855700 L1733186 854291 L1730368 852882 L1724731 851473 L1717686 851473 L1712050 852882 L1709232 854291 L1707823 855700 L1706414 858518 "/>
<path d="M1716277 893744 L1736004 893744 "/>
<path d="M1716277 881063 L1731777 881063 L1734595 882472 L1736004 885290 L1736004 889517 L1734595 892335 L1733186 893744 "/>
<path d="M1720504 917698 L1720504 907835 "/>
<path d="M1736004 907835 L1706414 907835 L1706414 921925 "/>
</g></g>
<g style="fill:#000084; fill-opacity:0.0;  stroke:#000084; stroke-width:2367.197407; stroke-opacity:1;  stroke-linecap:round; stroke-linejoin:round;">
<g transform="rotate(-90.000000 1672907.284768 871904.406087)">
<text x="1672907.284768" y="879301.897985" transform="scale(-1 1) translate(-3345814.569536 0)" textLength="23115.386783" font-size="19726.625335" lengthAdjust="spacingAndGlyphs" text-anchor="middle" opacity="0.01" style="font-family:monospace">C7</text>
</g>
<g class="stroked-text"><desc>C7</desc>
<path d="M1678191 869438 L1678895 868734 L1679600 866620 L1679600 865211 L1678895 863097 L1677486 861688 L1676077 860984 L1673259 860279 L1671145 860279 L1668327 860984 L1666918 861688 L1665509 863097 L1664805 865211 L1664805 866620 L1665509 868734 L1666214 869438 "/>
<path d="M1664805 874370 L1664805 884233 L1679600 877892 "/>
</g><g transform="rotate(-90.000000 733425.813724 892617.383401)">
<text x="733425.813724" y="900014.875299" transform="scale(-1 1) translate(-1466851.627448 0)" textLength="39898.550092" font-size="19726.625335" lengthAdjust="spacingAndGlyphs" text-anchor="middle" opacity="0.01" style="font-family:monospace">C11</text>
</g>
<g class="stroked-text"><desc>C11</desc>
<path d="M738709 883106 L739414 882401 L740118 880288 L740118 878879 L739414 876765 L738005 875356 L736596 874652 L733778 873947 L731664 873947 L728846 874652 L727437 875356 L726028 876765 L725323 878879 L725323 880288 L726028 882401 L726732 883106 "/>
<path d="M740118 897196 L740118 888742 "/>
<path d="M740118 892969 L725323 892969 L727437 891560 L728846 890151 L729550 888742 "/>
<path d="M740118 911287 L740118 902832 "/>
<path d="M740118 907060 L725323 907060 L727437 905651 L728846 904242 L729550 902832 "/>
</g></g>
<g style="fill:#000084; fill-opacity:0.0;  stroke:#000084; stroke-width:4438.495139; stroke-opacity:1;  stroke-linecap:round; stroke-linejoin:round;">
<g transform="rotate(-90.000000 1811388.333098 871904.406087)">
<text x="1811388.333098" y="886699.389883" transform="scale(-1 1) translate(-3622776.666197 0)" textLength="77238.278146" font-size="39453.280259" lengthAdjust="spacingAndGlyphs" text-anchor="middle" opacity="0.01" style="font-family:monospace">1uF</text>
</g>
<g class="stroked-text"><desc>1uF</desc>
<path d="M1824774 854291 L1824774 837382 "/>
<path d="M1824774 845837 L1795184 845837 L1799411 843018 L1802229 840200 L1803638 837382 "/>
<path d="M1805047 879654 L1824774 879654 "/>
<path d="M1805047 866972 L1820547 866972 L1823365 868381 L1824774 871199 L1824774 875427 L1823365 878245 L1821956 879654 "/>
<path d="M1809274 903607 L1809274 893744 "/>
<path d="M1824774 893744 L1795184 893744 L1795184 907835 "/>
</g></g>
<g style="fill:#000084; fill-opacity:0.0;  stroke:#000084; stroke-width:2367.197407; stroke-opacity:1;  stroke-linecap:round; stroke-linejoin:round;">
<g transform="rotate(-90.000000 1761677.187544 871904.406087)">
<text x="1761677.187544" y="879301.897985" transform="scale(-1 1) translate(-3523354.375088 0)" textLength="23115.386783" font-size="19726.625335" lengthAdjust="spacingAndGlyphs" text-anchor="middle" opacity="0.01" style="font-family:monospace">C6</text>
</g>
<g class="stroked-text"><desc>C6</desc>
<path d="M1766961 869438 L1767665 868734 L1768370 866620 L1768370 865211 L1767665 863097 L1766256 861688 L1764847 860984 L1762029 860279 L1759915 860279 L1757097 860984 L1755688 861688 L1754279 863097 L1753575 865211 L1753575 866620 L1754279 868734 L1754984 869438 "/>
<path d="M1753575 882119 L1753575 879301 L1754279 877892 L1754984 877188 L1757097 875779 L1759915 875074 L1765552 875074 L1766961 875779 L1767665 876483 L1768370 877892 L1768370 880710 L1767665 882119 L1766961 882824 L1765552 883529 L1762029 883529 L1760620 882824 L1759915 882119 L1759211 880710 L1759211 877892 L1759915 876483 L1760620 875779 L1762029 875074 "/>
</g><g transform="rotate(-90.000000 1507203.466253 741708.548683)">
<text x="1507203.466253" y="749106.040581" transform="scale(-1 1) translate(-3014406.932507 0)" textLength="25808.073834" font-size="19726.625335" lengthAdjust="spacingAndGlyphs" text-anchor="middle" opacity="0.01" style="font-family:monospace">R6</text>
</g>
<g class="stroked-text"><desc>R6</desc>
<path d="M1513896 739242 L1506851 734311 "/>
<path d="M1513896 730788 L1499101 730788 L1499101 736424 L1499805 737833 L1500510 738538 L1501919 739242 L1504033 739242 L1505442 738538 L1506146 737833 L1506851 736424 L1506851 730788 "/>
<path d="M1499101 751924 L1499101 749106 L1499805 747696 L1500510 746992 L1502624 745583 L1505442 744878 L1511078 744878 L1512487 745583 L1513191 746287 L1513896 747696 L1513896 750515 L1513191 751924 L1512487 752628 L1511078 753333 L1507555 753333 L1506146 752628 L1505442 751924 L1504737 750515 L1504737 747696 L1505442 746287 L1506146 745583 L1507555 744878 "/>
</g><g transform="rotate(-90.000000 1990999.436382 616321.061012)">
<text x="1990999.436382" y="623718.552910" transform="scale(-1 1) translate(-3981998.872763 0)" textLength="25808.073834" font-size="19726.625335" lengthAdjust="spacingAndGlyphs" text-anchor="middle" opacity="0.01" style="font-family:monospace">R2</text>
</g>
<g class="stroked-text"><desc>R2</desc>
<path d="M1997692 613855 L1990647 608923 "/>
<path d="M1997692 605400 L1982897 605400 L1982897 611037 L1983601 612446 L1984306 613150 L1985715 613855 L1987829 613855 L1989238 613150 L1989942 612446 L1990647 611037 L1990647 605400 "/>
<path d="M1984306 619491 L1983601 620195 L1982897 621604 L1982897 625127 L1983601 626536 L1984306 627241 L1985715 627945 L1987124 627945 L1989238 627241 L1997692 618786 L1997692 627945 "/>
</g></g>
<g style="fill:#000084; fill-opacity:0.0;  stroke:#000084; stroke-width:4438.495139; stroke-opacity:1;  stroke-linecap:round; stroke-linejoin:round;">
<g transform="rotate(-90.000000 1638508.947443 1947351.778216)">
<text x="1638508.947443" y="1966141.407637" transform="scale(-1 1) translate(-3277017.894885 0)" textLength="70291.678174" font-size="50105.668592" lengthAdjust="spacingAndGlyphs" text-anchor="middle" opacity="0.01" style="font-family:monospace">D4</text>
</g>
<g class="stroked-text"><desc>D4</desc>
<path d="M1655509 1919614 L1617929 1919614 L1617929 1928562 L1619719 1933930 L1623298 1937509 L1626877 1939299 L1634035 1941088 L1639403 1941088 L1646561 1939299 L1650140 1937509 L1653719 1933930 L1655509 1928562 L1655509 1919614 "/>
<path d="M1630456 1973299 L1655509 1973299 "/>
<path d="M1616140 1964351 L1642982 1955404 L1642982 1978667 "/>
</g><g transform="rotate(-90.000000 1637005.777089 1892486.060307)">
<text x="1637005.777089" y="1911275.689728" transform="scale(-1 1) translate(-3274011.554178 0)" textLength="31809.215161" font-size="50105.668592" lengthAdjust="spacingAndGlyphs" text-anchor="middle" opacity="0.01" style="font-family:monospace">K</text>
</g>
<g class="stroked-text"><desc>K</desc>
<path d="M1654005 1882643 L1616426 1882643 "/>
<path d="M1654005 1904117 L1632532 1888012 "/>
<path d="M1616426 1904117 L1637900 1882643 "/>
</g></g>
<g style="fill:#000084; fill-opacity:0.0;  stroke:#000084; stroke-width:2367.197407; stroke-opacity:1;  stroke-linecap:round; stroke-linejoin:round;">
<g transform="rotate(-90.000000 992338.030154 531619.778780)">
<text x="992338.030154" y="539017.270678" transform="scale(-1 1) translate(-1984676.060307 0)" textLength="23115.386783" font-size="19726.625335" lengthAdjust="spacingAndGlyphs" text-anchor="middle" opacity="0.01" style="font-family:monospace">C2</text>
</g>
<g class="stroked-text"><desc>C2</desc>
<path d="M997621 529153 L998326 528449 L999030 526335 L999030 524926 L998326 522813 L996917 521404 L995508 520699 L992690 519995 L990576 519995 L987758 520699 L986349 521404 L984940 522813 L984236 524926 L984236 526335 L984940 528449 L985645 529153 "/>
<path d="M985645 534790 L984940 535494 L984236 536903 L984236 540426 L984940 541835 L985645 542539 L987054 543244 L988463 543244 L990576 542539 L999030 534085 L999030 543244 "/>
</g><g transform="rotate(-90.000000 1597452.867409 541606.392842)">
<text x="1597452.867409" y="549003.884740" transform="scale(-1 1) translate(-3194905.734818 0)" textLength="39898.550092" font-size="19726.625335" lengthAdjust="spacingAndGlyphs" text-anchor="middle" opacity="0.01" style="font-family:monospace">R12</text>
</g>
<g class="stroked-text"><desc>R12</desc>
<path d="M1604145 532095 L1597100 527163 "/>
<path d="M1604145 523641 L1589350 523641 L1589350 529277 L1590055 530686 L1590759 531390 L1592168 532095 L1594282 532095 L1595691 531390 L1596396 530686 L1597100 529277 L1597100 523641 "/>
<path d="M1604145 546185 L1604145 537731 "/>
<path d="M1604145 541958 L1589350 541958 L1591464 540549 L1592873 539140 L1593577 537731 "/>
<path d="M1590759 551821 L1590055 552526 L1589350 553935 L1589350 557458 L1590055 558867 L1590759 559571 L1592168 560276 L1593577 560276 L1595691 559571 L1604145 551117 L1604145 560276 "/>
</g></g>
<g style="fill:#000084; fill-opacity:0.01;  stroke:#000084; stroke-width:4438.495139; stroke-opacity:1;  stroke-linecap:round; stroke-linejoin:round;">
<text x="1650714.809074" y="1556912.155840" transform="scale(-1 1) translate(-3301429.618149 0)" textLength="105419.201071" font-size="39453.280259" lengthAdjust="spacingAndGlyphs" text-anchor="middle" opacity="0.01" style="font-family:monospace">10uF</text>
<g class="stroked-text"><desc>10uF</desc>
<path d="M1682418 1555503 L1699326 1555503 "/>
<path d="M1690872 1555503 L1690872 1525913 L1693690 1530140 L1696508 1532958 L1699326 1534367 "/>
<path d="M1664100 1525913 L1661282 1525913 L1658464 1527322 L1657055 1528731 L1655646 1531549 L1654237 1537185 L1654237 1544230 L1655646 1549866 L1657055 1552684 L1658464 1554094 L1661282 1555503 L1664100 1555503 L1666918 1554094 L1668327 1552684 L1669736 1549866 L1671145 1544230 L1671145 1537185 L1669736 1531549 L1668327 1528731 L1666918 1527322 L1664100 1525913 "/>
<path d="M1628874 1535776 L1628874 1555503 "/>
<path d="M1641556 1535776 L1641556 1551275 L1640146 1554094 L1637328 1555503 L1633101 1555503 L1630283 1554094 L1628874 1552684 "/>
<path d="M1604920 1540003 L1614784 1540003 "/>
<path d="M1614784 1555503 L1614784 1525913 L1600693 1525913 "/>
</g></g>
<g style="fill:#000084; fill-opacity:0.01;  stroke:#000084; stroke-width:2367.197407; stroke-opacity:1;  stroke-linecap:round; stroke-linejoin:round;">
<text x="1650714.809074" y="1500691.217416" transform="scale(-1 1) translate(-3301429.618149 0)" textLength="37205.863041" font-size="19726.625335" lengthAdjust="spacingAndGlyphs" text-anchor="middle" opacity="0.01" style="font-family:monospace">C12</text>
<g class="stroked-text"><desc>C12</desc>
<path d="M1660225 1498577 L1660930 1499282 L1663043 1499986 L1664452 1499986 L1666566 1499282 L1667975 1497873 L1668680 1496464 L1669384 1493645 L1669384 1491532 L1668680 1488714 L1667975 1487305 L1666566 1485896 L1664452 1485191 L1663043 1485191 L1660930 1485896 L1660225 1486600 "/>
<path d="M1646135 1499986 L1654589 1499986 "/>
<path d="M1650362 1499986 L1650362 1485191 L1651771 1487305 L1653180 1488714 L1654589 1489418 "/>
<path d="M1640499 1486600 L1639794 1485896 L1638385 1485191 L1634863 1485191 L1633453 1485896 L1632749 1486600 L1632044 1488009 L1632044 1489418 L1632749 1491532 L1641203 1499986 L1632044 1499986 "/>
</g></g>
<g style="fill:#000084; fill-opacity:0.0;  stroke:#000084; stroke-width:4438.495139; stroke-opacity:1;  stroke-linecap:round; stroke-linejoin:round;">
<g transform="rotate(-90.000000 1840090.601663 1767000.925743)">
<text x="1840090.601663" y="1781795.909539" transform="scale(-1 1) translate(-3680181.203325 0)" textLength="233642.384106" font-size="39453.280259" lengthAdjust="spacingAndGlyphs" text-anchor="middle" opacity="0.01" style="font-family:monospace">BC817-25</text>
</g>
<g class="stroked-text"><desc>BC817-25</desc>
<path d="M1837977 1665549 L1839386 1669776 L1840795 1671185 L1843613 1672594 L1847840 1672594 L1850658 1671185 L1852067 1669776 L1853476 1666958 L1853476 1655686 L1823886 1655686 L1823886 1665549 L1825295 1668367 L1826704 1669776 L1829522 1671185 L1832340 1671185 L1835158 1669776 L1836567 1668367 L1837977 1665549 L1837977 1655686 "/>
<path d="M1850658 1702184 L1852067 1700775 L1853476 1696548 L1853476 1693730 L1852067 1689503 L1849249 1686685 L1846431 1685276 L1840795 1683867 L1836567 1683867 L1830931 1685276 L1828113 1686685 L1825295 1689503 L1823886 1693730 L1823886 1696548 L1825295 1700775 L1826704 1702184 "/>
<path d="M1836567 1719093 L1835158 1716275 L1833749 1714866 L1830931 1713457 L1829522 1713457 L1826704 1714866 L1825295 1716275 L1823886 1719093 L1823886 1724729 L1825295 1727547 L1826704 1728956 L1829522 1730365 L1830931 1730365 L1833749 1728956 L1835158 1727547 L1836567 1724729 L1836567 1719093 L1837977 1716275 L1839386 1714866 L1842204 1713457 L1847840 1713457 L1850658 1714866 L1852067 1716275 L1853476 1719093 L1853476 1724729 L1852067 1727547 L1850658 1728956 L1847840 1730365 L1842204 1730365 L1839386 1728956 L1837977 1727547 L1836567 1724729 "/>
<path d="M1853476 1758546 L1853476 1741638 "/>
<path d="M1853476 1750092 L1823886 1750092 L1828113 1747274 L1830931 1744456 L1832340 1741638 "/>
<path d="M1823886 1768409 L1823886 1788136 L1853476 1775455 "/>
<path d="M1842204 1799408 L1842204 1821953 "/>
<path d="M1826704 1834635 L1825295 1836044 L1823886 1838862 L1823886 1845907 L1825295 1848725 L1826704 1850134 L1829522 1851543 L1832340 1851543 L1836567 1850134 L1853476 1833226 L1853476 1851543 "/>
<path d="M1823886 1878315 L1823886 1864225 L1837977 1862816 L1836567 1864225 L1835158 1867043 L1835158 1874088 L1836567 1876906 L1837977 1878315 L1840795 1879724 L1847840 1879724 L1850658 1878315 L1852067 1876906 L1853476 1874088 L1853476 1867043 L1852067 1864225 L1850658 1862816 "/>
</g></g>
<g style="fill:#000084; fill-opacity:0.0;  stroke:#000084; stroke-width:1479.498380; stroke-opacity:1;  stroke-linecap:round; stroke-linejoin:round;">
<g transform="rotate(-90.000000 1769074.679442 1767000.925743)">
<text x="1769074.679442" y="1771735.320558" transform="scale(-1 1) translate(-3538149.358884 0)" textLength="13167.535578" font-size="12625.033113" lengthAdjust="spacingAndGlyphs" text-anchor="middle" opacity="0.01" style="font-family:monospace">Q3</text>
</g>
<g class="stroked-text"><desc>Q3</desc>
<path d="M1774259 1766099 L1773809 1765197 L1772907 1764295 L1771554 1762942 L1771103 1762041 L1771103 1761139 "/>
<path d="M1773358 1761590 L1772907 1760688 L1772005 1759786 L1770201 1759335 L1767045 1759335 L1765242 1759786 L1764340 1760688 L1763889 1761590 L1763889 1763393 L1764340 1764295 L1765242 1765197 L1767045 1765648 L1770201 1765648 L1772005 1765197 L1772907 1764295 L1773358 1763393 L1773358 1761590 "/>
<path d="M1763889 1768804 L1763889 1774666 L1767496 1771509 L1767496 1772862 L1767947 1773764 L1768398 1774215 L1769300 1774666 L1771554 1774666 L1772456 1774215 L1772907 1773764 L1773358 1772862 L1773358 1770157 L1772907 1769255 L1772456 1768804 "/>
</g></g>
<g style="fill:#000084; fill-opacity:0.0;  stroke:#000084; stroke-width:2367.197407; stroke-opacity:1;  stroke-linecap:round; stroke-linejoin:round;">
<g transform="rotate(-90.000000 1863762.575736 719146.198394)">
<text x="1863762.575736" y="726543.690292" transform="scale(-1 1) translate(-3727525.151472 0)" textLength="26962.082570" font-size="19726.625335" lengthAdjust="spacingAndGlyphs" text-anchor="middle" opacity="0.01" style="font-family:monospace">R5</text>
</g>
<g class="stroked-text"><desc>R5</desc>
<path d="M1870455 716680 L1863410 711748 "/>
<path d="M1870455 708226 L1855660 708226 L1855660 713862 L1856365 715271 L1857069 715975 L1858478 716680 L1860592 716680 L1862001 715975 L1862705 715271 L1863410 713862 L1863410 708226 "/>
<path d="M1855660 730066 L1855660 723021 L1862705 722316 L1862001 723021 L1861296 724430 L1861296 727952 L1862001 729361 L1862705 730066 L1864114 730770 L1867637 730770 L1869046 730066 L1869750 729361 L1870455 727952 L1870455 724430 L1869750 723021 L1869046 722316 "/>
</g><g transform="rotate(-90.000000 905047.625757 864137.039594)">
<text x="905047.625757" y="871534.531492" transform="scale(-1 1) translate(-1810095.251515 0)" textLength="25808.073834" font-size="19726.625335" lengthAdjust="spacingAndGlyphs" text-anchor="middle" opacity="0.01" style="font-family:monospace">R8</text>
</g>
<g class="stroked-text"><desc>R8</desc>
<path d="M911740 861671 L904695 856739 "/>
<path d="M911740 853216 L896945 853216 L896945 858853 L897650 860262 L898354 860966 L899763 861671 L901877 861671 L903286 860966 L903990 860262 L904695 858853 L904695 853216 "/>
<path d="M903286 870125 L902581 868716 L901877 868011 L900468 867307 L899763 867307 L898354 868011 L897650 868716 L896945 870125 L896945 872943 L897650 874352 L898354 875057 L899763 875761 L900468 875761 L901877 875057 L902581 874352 L903286 872943 L903286 870125 L903990 868716 L904695 868011 L906104 867307 L908922 867307 L910331 868011 L911036 868716 L911740 870125 L911740 872943 L911036 874352 L910331 875057 L908922 875761 L906104 875761 L904695 875057 L903990 874352 L903286 872943 "/>
</g></g>
<g style="fill:#000084; fill-opacity:0.0;  stroke:#000084; stroke-width:4438.495139; stroke-opacity:1;  stroke-linecap:round; stroke-linejoin:round;">
<g transform="rotate(-90.000000 1332030.858109 746147.043821)">
<text x="1332030.858109" y="760942.027617" transform="scale(-1 1) translate(-2664061.716218 0)" textLength="105419.201071" font-size="39453.280259" lengthAdjust="spacingAndGlyphs" text-anchor="middle" opacity="0.01" style="font-family:monospace">22nF</text>
</g>
<g class="stroked-text"><desc>22nF</desc>
<path d="M1318644 697534 L1317235 698943 L1315826 701762 L1315826 708807 L1317235 711625 L1318644 713034 L1321463 714443 L1324281 714443 L1328508 713034 L1345416 696125 L1345416 714443 "/>
<path d="M1318644 725715 L1317235 727124 L1315826 729942 L1315826 736988 L1317235 739806 L1318644 741215 L1321463 742624 L1324281 742624 L1328508 741215 L1345416 724306 L1345416 742624 "/>
<path d="M1325690 755305 L1345416 755305 "/>
<path d="M1328508 755305 L1327099 756714 L1325690 759532 L1325690 763760 L1327099 766578 L1329917 767987 L1345416 767987 "/>
<path d="M1329917 791941 L1329917 782077 "/>
<path d="M1345416 782077 L1315826 782077 L1315826 796168 "/>
</g></g>
<g style="fill:#000084; fill-opacity:0.0;  stroke:#000084; stroke-width:2367.197407; stroke-opacity:1;  stroke-linecap:round; stroke-linejoin:round;">
<g transform="rotate(-90.000000 1282319.712555 746147.043821)">
<text x="1282319.712555" y="753544.535719" transform="scale(-1 1) translate(-2564639.425109 0)" textLength="23115.386783" font-size="19726.625335" lengthAdjust="spacingAndGlyphs" text-anchor="middle" opacity="0.01" style="font-family:monospace">C1</text>
</g>
<g class="stroked-text"><desc>C1</desc>
<path d="M1287603 743681 L1288308 742976 L1289012 740863 L1289012 739454 L1288308 737340 L1286899 735931 L1285490 735226 L1282671 734522 L1280558 734522 L1277740 735226 L1276331 735931 L1274922 737340 L1274217 739454 L1274217 740863 L1274922 742976 L1275626 743681 "/>
<path d="M1289012 757771 L1289012 749317 "/>
<path d="M1289012 753544 L1274217 753544 L1276331 752135 L1277740 750726 L1278444 749317 "/>
</g><g transform="rotate(-90.000000 1443585.035931 541976.267437)">
<text x="1443585.035931" y="549373.759335" transform="scale(-1 1) translate(-2887170.071861 0)" textLength="39898.550092" font-size="19726.625335" lengthAdjust="spacingAndGlyphs" text-anchor="middle" opacity="0.01" style="font-family:monospace">R11</text>
</g>
<g class="stroked-text"><desc>R11</desc>
<path d="M1450277 532465 L1443232 527533 "/>
<path d="M1450277 524010 L1435483 524010 L1435483 529647 L1436187 531056 L1436892 531760 L1438301 532465 L1440414 532465 L1441823 531760 L1442528 531056 L1443232 529647 L1443232 524010 "/>
<path d="M1450277 546555 L1450277 538101 "/>
<path d="M1450277 542328 L1435483 542328 L1437596 540919 L1439005 539510 L1439710 538101 "/>
<path d="M1450277 560646 L1450277 552191 "/>
<path d="M1450277 556418 L1435483 556418 L1437596 555009 L1439005 553600 L1439710 552191 "/>
</g></g>
<g style="fill:#000084; fill-opacity:0.01;  stroke:#000084; stroke-width:4438.495139; stroke-opacity:1;  stroke-linecap:round; stroke-linejoin:round;">
<text x="1480572.495421" y="1585022.625053" transform="scale(-1 1) translate(-2961144.990841 0)" textLength="58920.667888" font-size="39453.280259" lengthAdjust="spacingAndGlyphs" text-anchor="middle" opacity="0.01" style="font-family:monospace">M4</text>
<g class="stroked-text"><desc>M4</desc>
<path d="M1504526 1583613 L1504526 1554023 L1494662 1575159 L1484799 1554023 L1484799 1583613 "/>
<path d="M1458027 1563886 L1458027 1583613 "/>
<path d="M1465072 1552614 L1472118 1573750 L1453800 1573750 "/>
</g><text x="1480572.495421" y="1434113.790334" transform="scale(-1 1) translate(-2961144.990841 0)" textLength="52000.846837" font-size="39453.280259" lengthAdjust="spacingAndGlyphs" text-anchor="middle" opacity="0.01" style="font-family:monospace">D3</text>
<g class="stroked-text"><desc>D3</desc>
<path d="M1502412 1432704 L1502412 1403114 L1495367 1403114 L1491140 1404523 L1488322 1407341 L1486913 1410160 L1485504 1415796 L1485504 1420023 L1486913 1425659 L1488322 1428477 L1491140 1431295 L1495367 1432704 L1502412 1432704 "/>
<path d="M1475640 1403114 L1457323 1403114 L1467186 1414387 L1462959 1414387 L1460141 1415796 L1458732 1417205 L1457323 1420023 L1457323 1427068 L1458732 1429886 L1460141 1431295 L1462959 1432704 L1471413 1432704 L1474231 1431295 L1475640 1429886 "/>
</g><g transform="rotate(-90.000000 1573780.893335 1988925.682683)">
<text x="1573780.893335" y="2003720.666479" transform="scale(-1 1) translate(-3147561.786670 0)" textLength="23819.923912" font-size="39453.280259" lengthAdjust="spacingAndGlyphs" text-anchor="middle" opacity="0.01" style="font-family:monospace">R</text>
</g>
<g class="stroked-text"><desc>R</desc>
<path d="M1587166 1998084 L1573076 1988221 "/>
<path d="M1587166 1981175 L1557576 1981175 L1557576 1992448 L1558985 1995266 L1560394 1996675 L1563213 1998084 L1567440 1998084 L1570258 1996675 L1571667 1995266 L1573076 1992448 L1573076 1981175 "/>
</g></g>
<g style="fill:#000084; fill-opacity:0.01;  stroke:#000084; stroke-width:2367.197407; stroke-opacity:1;  stroke-linecap:round; stroke-linejoin:round;">
<g transform="rotate(-90.000000 1524957.446809 1988925.682683)">
<text x="1524957.446809" y="1996323.174581" transform="scale(-1 1) translate(-3049914.893617 0)" textLength="37205.863041" font-size="19726.625335" lengthAdjust="spacingAndGlyphs" text-anchor="middle" opacity="0.01" style="font-family:monospace">R16</text>
</g>
<g class="stroked-text"><desc>R16</desc>
<path d="M1531650 1979414 L1524605 1974482 "/>
<path d="M1531650 1970960 L1516855 1970960 L1516855 1976596 L1517559 1978005 L1518264 1978710 L1519673 1979414 L1521787 1979414 L1523196 1978710 L1523900 1978005 L1524605 1976596 L1524605 1970960 "/>
<path d="M1531650 1993505 L1531650 1985050 "/>
<path d="M1531650 1989277 L1516855 1989277 L1518968 1987868 L1520378 1986459 L1521082 1985050 "/>
<path d="M1516855 2006186 L1516855 2003368 L1517559 2001959 L1518264 2001254 L1520378 1999845 L1523196 1999141 L1528832 1999141 L1530241 1999845 L1530945 2000550 L1531650 2001959 L1531650 2004777 L1530945 2006186 L1530241 2006890 L1528832 2007595 L1525309 2007595 L1523900 2006890 L1523196 2006186 L1522491 2004777 L1522491 2001959 L1523196 2000550 L1523900 1999845 L1525309 1999141 "/>
</g><text x="2035384.387769" y="286023.047767" transform="scale(-1 1) translate(-4070768.775539 0)" textLength="39898.550092" font-size="19726.625335" lengthAdjust="spacingAndGlyphs" text-anchor="middle" opacity="0.01" style="font-family:monospace">R14</text>
<g class="stroked-text"><desc>R14</desc>
<path d="M2044895 285318 L2049827 278273 "/>
<path d="M2053349 285318 L2053349 270523 L2047713 270523 L2046304 271228 L2045599 271932 L2044895 273341 L2044895 275455 L2045599 276864 L2046304 277568 L2047713 278273 L2053349 278273 "/>
<path d="M2030804 285318 L2039259 285318 "/>
<path d="M2035032 285318 L2035032 270523 L2036441 272637 L2037850 274046 L2039259 274750 "/>
<path d="M2018123 275455 L2018123 285318 "/>
<path d="M2021646 269818 L2025168 280386 L2016010 280386 "/>
</g><text x="1473175.003523" y="337805.491053" transform="scale(-1 1) translate(-2946350.007045 0)" textLength="25808.073834" font-size="19726.625335" lengthAdjust="spacingAndGlyphs" text-anchor="middle" opacity="0.01" style="font-family:monospace">C9</text>
<g class="stroked-text"><desc>C9</desc>
<path d="M1475640 335691 L1476345 336396 L1478458 337100 L1479867 337100 L1481981 336396 L1483390 334987 L1484095 333578 L1484799 330760 L1484799 328646 L1484095 325828 L1483390 324419 L1481981 323010 L1479867 322305 L1478458 322305 L1476345 323010 L1475640 323715 "/>
<path d="M1468595 337100 L1465777 337100 L1464368 336396 L1463663 335691 L1462254 333578 L1461550 330760 L1461550 325124 L1462254 323715 L1462959 323010 L1464368 322305 L1467186 322305 L1468595 323010 L1469300 323715 L1470004 325124 L1470004 328646 L1469300 330055 L1468595 330760 L1467186 331464 L1464368 331464 L1462959 330760 L1462254 330055 L1461550 328646 "/>
</g></g>
<g style="fill:#000084; fill-opacity:0.01;  stroke:#000084; stroke-width:4438.495139; stroke-opacity:1;  stroke-linecap:round; stroke-linejoin:round;">
<text x="1402159.081302" y="830478.451458" transform="scale(-1 1) translate(-2804318.162604 0)" textLength="432317.889249" font-size="39453.280259" lengthAdjust="spacingAndGlyphs" text-anchor="middle" opacity="0.01" style="font-family:monospace">TLV840CADL14DBVR</text>
<g class="stroked-text"><desc>TLV840CADL14DBVR</desc>
<path d="M1617038 799479 L1600130 799479 "/>
<path d="M1608584 829069 L1608584 799479 "/>
<path d="M1576176 829069 L1590266 829069 L1590266 799479 "/>
<path d="M1570540 799479 L1560676 829069 L1550813 799479 "/>
<path d="M1536722 812160 L1539541 810751 L1540950 809342 L1542359 806524 L1542359 805115 L1540950 802297 L1539541 800888 L1536722 799479 L1531086 799479 L1528268 800888 L1526859 802297 L1525450 805115 L1525450 806524 L1526859 809342 L1528268 810751 L1531086 812160 L1536722 812160 L1539541 813569 L1540950 814978 L1542359 817797 L1542359 823433 L1540950 826251 L1539541 827660 L1536722 829069 L1531086 829069 L1528268 827660 L1526859 826251 L1525450 823433 L1525450 817797 L1526859 814978 L1528268 813569 L1531086 812160 "/>
<path d="M1500087 809342 L1500087 829069 "/>
<path d="M1507133 798070 L1514178 819206 L1495860 819206 "/>
<path d="M1478952 799479 L1476134 799479 L1473315 800888 L1471906 802297 L1470497 805115 L1469088 810751 L1469088 817797 L1470497 823433 L1471906 826251 L1473315 827660 L1476134 829069 L1478952 829069 L1481770 827660 L1483179 826251 L1484588 823433 L1485997 817797 L1485997 810751 L1484588 805115 L1483179 802297 L1481770 800888 L1478952 799479 "/>
<path d="M1439498 826251 L1440907 827660 L1445134 829069 L1447953 829069 L1452180 827660 L1454998 824842 L1456407 822024 L1457816 816387 L1457816 812160 L1456407 806524 L1454998 803706 L1452180 800888 L1447953 799479 L1445134 799479 L1440907 800888 L1439498 802297 "/>
<path d="M1428226 820615 L1414135 820615 "/>
<path d="M1431044 829069 L1421181 799479 L1411317 829069 "/>
<path d="M1401454 829069 L1401454 799479 L1394409 799479 L1390182 800888 L1387364 803706 L1385955 806524 L1384545 812160 L1384545 816387 L1385955 822024 L1387364 824842 L1390182 827660 L1394409 829069 L1401454 829069 "/>
<path d="M1357774 829069 L1371864 829069 L1371864 799479 "/>
<path d="M1332411 829069 L1349319 829069 "/>
<path d="M1340865 829069 L1340865 799479 L1343683 803706 L1346501 806524 L1349319 807933 "/>
<path d="M1307048 809342 L1307048 829069 "/>
<path d="M1314093 798070 L1321138 819206 L1302821 819206 "/>
<path d="M1291548 829069 L1291548 799479 L1284503 799479 L1280276 800888 L1277458 803706 L1276049 806524 L1274640 812160 L1274640 816387 L1276049 822024 L1277458 824842 L1280276 827660 L1284503 829069 L1291548 829069 "/>
<path d="M1252095 813569 L1247868 814978 L1246459 816387 L1245050 819206 L1245050 823433 L1246459 826251 L1247868 827660 L1250686 829069 L1261958 829069 L1261958 799479 L1252095 799479 L1249277 800888 L1247868 802297 L1246459 805115 L1246459 807933 L1247868 810751 L1249277 812160 L1252095 813569 L1261958 813569 "/>
<path d="M1236596 799479 L1226732 829069 L1216869 799479 "/>
<path d="M1190097 829069 L1199960 814978 "/>
<path d="M1207006 829069 L1207006 799479 L1195733 799479 L1192915 800888 L1191506 802297 L1190097 805115 L1190097 809342 L1191506 812160 L1192915 813569 L1195733 814978 L1207006 814978 "/>
</g></g>
<g style="fill:#000084; fill-opacity:0.01;  stroke:#000084; stroke-width:1775.398056; stroke-opacity:1;  stroke-linecap:round; stroke-linejoin:round;">
<text x="1402159.081302" y="750585.538960" transform="scale(-1 1) translate(-2804318.162604 0)" textLength="17901.930393" font-size="15781.306186" lengthAdjust="spacingAndGlyphs" text-anchor="middle" opacity="0.01" style="font-family:monospace">U1</text>
<g class="stroked-text"><desc>U1</desc>
<path d="M1411176 738185 L1411176 747767 L1410613 748894 L1410049 749458 L1408922 750021 L1406668 750021 L1405540 749458 L1404977 748894 L1404413 747767 L1404413 738185 "/>
<path d="M1392577 750021 L1399340 750021 "/>
<path d="M1395959 750021 L1395959 738185 L1397086 739876 L1398213 741004 L1399340 741567 "/>
</g></g>
<g style="fill:#000084; fill-opacity:0.01;  stroke:#000084; stroke-width:4438.495139; stroke-opacity:1;  stroke-linecap:round; stroke-linejoin:round;">
<text x="1754279.695646" y="1675272.026208" transform="scale(-1 1) translate(-3508559.391292 0)" textLength="78007.617303" font-size="39453.280259" lengthAdjust="spacingAndGlyphs" text-anchor="middle" opacity="0.01" style="font-family:monospace">20k</text>
<g class="stroked-text"><desc>20k</desc>
<path d="M1788801 1647091 L1787392 1645682 L1784574 1644272 L1777528 1644272 L1774710 1645682 L1773301 1647091 L1771892 1649909 L1771892 1652727 L1773301 1656954 L1790210 1673862 L1771892 1673862 "/>
<path d="M1753575 1644272 L1750757 1644272 L1747938 1645682 L1746529 1647091 L1745120 1649909 L1743711 1655545 L1743711 1662590 L1745120 1668226 L1746529 1671044 L1747938 1672453 L1750757 1673862 L1753575 1673862 L1756393 1672453 L1757802 1671044 L1759211 1668226 L1760620 1662590 L1760620 1655545 L1759211 1649909 L1757802 1647091 L1756393 1645682 L1753575 1644272 "/>
<path d="M1731030 1673862 L1731030 1644272 "/>
<path d="M1728212 1662590 L1719758 1673862 "/>
<path d="M1719758 1654136 L1731030 1665408 "/>
</g></g>
<g style="fill:#000084; fill-opacity:0.01;  stroke:#000084; stroke-width:2367.197407; stroke-opacity:1;  stroke-linecap:round; stroke-linejoin:round;">
<text x="1754279.695646" y="1619051.087784" transform="scale(-1 1) translate(-3508559.391292 0)" textLength="37205.863041" font-size="19726.625335" lengthAdjust="spacingAndGlyphs" text-anchor="middle" opacity="0.01" style="font-family:monospace">R18</text>
<g class="stroked-text"><desc>R18</desc>
<path d="M1763790 1618346 L1768722 1611301 "/>
<path d="M1772245 1618346 L1772245 1603551 L1766608 1603551 L1765199 1604256 L1764495 1604960 L1763790 1606369 L1763790 1608483 L1764495 1609892 L1765199 1610596 L1766608 1611301 L1772245 1611301 "/>
<path d="M1749700 1618346 L1758154 1618346 "/>
<path d="M1753927 1618346 L1753927 1603551 L1755336 1605665 L1756745 1607074 L1758154 1607778 "/>
<path d="M1741245 1609892 L1742655 1609187 L1743359 1608483 L1744064 1607074 L1744064 1606369 L1743359 1604960 L1742655 1604256 L1741245 1603551 L1738427 1603551 L1737018 1604256 L1736314 1604960 L1735609 1606369 L1735609 1607074 L1736314 1608483 L1737018 1609187 L1738427 1609892 L1741245 1609892 L1742655 1610596 L1743359 1611301 L1744064 1612710 L1744064 1615528 L1743359 1616937 L1742655 1617642 L1741245 1618346 L1738427 1618346 L1737018 1617642 L1736314 1616937 L1735609 1615528 L1735609 1612710 L1736314 1611301 L1737018 1610596 L1738427 1609892 "/>
</g><g transform="rotate(-90.000000 804441.735945 894466.756376)">
<text x="804441.735945" y="901864.248274" transform="scale(-1 1) translate(-1608883.471890 0)" textLength="25808.073834" font-size="19726.625335" lengthAdjust="spacingAndGlyphs" text-anchor="middle" opacity="0.01" style="font-family:monospace">R9</text>
</g>
<g class="stroked-text"><desc>R9</desc>
<path d="M811134 892000 L804089 887069 "/>
<path d="M811134 883546 L796339 883546 L796339 889182 L797044 890591 L797748 891296 L799157 892000 L801271 892000 L802680 891296 L803384 890591 L804089 889182 L804089 883546 "/>
<path d="M811134 899046 L811134 901864 L810430 903273 L809725 903977 L807612 905386 L804793 906091 L799157 906091 L797748 905386 L797044 904682 L796339 903273 L796339 900455 L797044 899046 L797748 898341 L799157 897637 L802680 897637 L804089 898341 L804793 899046 L805498 900455 L805498 903273 L804793 904682 L804089 905386 L802680 906091 "/>
</g></g>
<g style="fill:#000084; fill-opacity:0.01;  stroke:#000084; stroke-width:4438.495139; stroke-opacity:1;  stroke-linecap:round; stroke-linejoin:round;">
<g transform="rotate(-90.000000 1767571.509088 1889675.013386)">
<text x="1767571.509088" y="1908464.642807" transform="scale(-1 1) translate(-3535143.018177 0)" textLength="34501.902212" font-size="50105.668592" lengthAdjust="spacingAndGlyphs" text-anchor="middle" opacity="0.01" style="font-family:monospace">K</text>
</g>
<g class="stroked-text"><desc>K</desc>
<path d="M1784571 1879832 L1746992 1879832 "/>
<path d="M1784571 1901306 L1763097 1885201 "/>
<path d="M1746992 1901306 L1768466 1879832 "/>
</g><g transform="rotate(-90.000000 1769074.679442 1944540.731295)">
<text x="1769074.679442" y="1963330.360716" transform="scale(-1 1) translate(-3538149.358884 0)" textLength="67598.991123" font-size="50105.668592" lengthAdjust="spacingAndGlyphs" text-anchor="middle" opacity="0.01" style="font-family:monospace">D5</text>
</g>
<g class="stroked-text"><desc>D5</desc>
<path d="M1786074 1916803 L1748495 1916803 L1748495 1925751 L1750285 1931119 L1753864 1934698 L1757442 1936488 L1764600 1938277 L1769969 1938277 L1777127 1936488 L1780706 1934698 L1784285 1931119 L1786074 1925751 L1786074 1916803 "/>
<path d="M1748495 1972277 L1748495 1954382 L1766390 1952593 L1764600 1954382 L1762811 1957961 L1762811 1966909 L1764600 1970488 L1766390 1972277 L1769969 1974067 L1778916 1974067 L1782495 1972277 L1784285 1970488 L1786074 1966909 L1786074 1957961 L1784285 1954382 L1782495 1952593 "/>
</g><text x="1524957.446809" y="699690.794702" transform="scale(-1 1) translate(-3049914.893617 0)" textLength="74545.591095" font-size="39453.280259" lengthAdjust="spacingAndGlyphs" text-anchor="middle" opacity="0.01" style="font-family:monospace">1uF</text>
<g class="stroked-text"><desc>1uF</desc>
<path d="M1542570 698281 L1559479 698281 "/>
<path d="M1551024 698281 L1551024 668691 L1553842 672918 L1556660 675737 L1559479 677146 "/>
<path d="M1517207 678555 L1517207 698281 "/>
<path d="M1529889 678555 L1529889 694054 L1528480 696872 L1525661 698281 L1521434 698281 L1518616 696872 L1517207 695463 "/>
<path d="M1493253 682782 L1503117 682782 "/>
<path d="M1503117 698281 L1503117 668691 L1489026 668691 "/>
</g></g>
<g style="fill:#000084; fill-opacity:0.01;  stroke:#000084; stroke-width:2367.197407; stroke-opacity:1;  stroke-linecap:round; stroke-linejoin:round;">
<text x="1524957.446809" y="642582.157250" transform="scale(-1 1) translate(-3049914.893617 0)" textLength="23115.386783" font-size="19726.625335" lengthAdjust="spacingAndGlyphs" text-anchor="middle" opacity="0.01" style="font-family:monospace">C3</text>
<g class="stroked-text"><desc>C3</desc>
<path d="M1527423 640468 L1528127 641173 L1530241 641877 L1531650 641877 L1533763 641173 L1535173 639764 L1535877 638354 L1536582 635536 L1536582 633423 L1535877 630605 L1535173 629196 L1533763 627787 L1531650 627082 L1530241 627082 L1528127 627787 L1527423 628491 "/>
<path d="M1522491 627082 L1513332 627082 L1518264 632718 L1516150 632718 L1514741 633423 L1514037 634127 L1513332 635536 L1513332 639059 L1514037 640468 L1514741 641173 L1516150 641877 L1520378 641877 L1521787 641173 L1522491 640468 "/>
</g><g transform="rotate(-90.000000 733425.813724 998031.642948)">
<text x="733425.813724" y="1005429.134846" transform="scale(-1 1) translate(-1466851.627448 0)" textLength="39898.550092" font-size="19726.625335" lengthAdjust="spacingAndGlyphs" text-anchor="middle" opacity="0.01" style="font-family:monospace">C10</text>
</g>
<g class="stroked-text"><desc>C10</desc>
<path d="M738709 988520 L739414 987816 L740118 985702 L740118 984293 L739414 982179 L738005 980770 L736596 980066 L733778 979361 L731664 979361 L728846 980066 L727437 980770 L726028 982179 L725323 984293 L725323 985702 L726028 987816 L726732 988520 "/>
<path d="M740118 1002611 L740118 994156 "/>
<path d="M740118 998383 L725323 998383 L727437 996974 L728846 995565 L729550 994156 "/>
<path d="M725323 1011769 L725323 1013178 L726028 1014587 L726732 1015292 L728141 1015996 L730959 1016701 L734482 1016701 L737300 1015996 L738709 1015292 L739414 1014587 L740118 1013178 L740118 1011769 L739414 1010360 L738709 1009656 L737300 1008951 L734482 1008247 L730959 1008247 L728141 1008951 L726732 1009656 L726028 1010360 L725323 1011769 "/>
</g></g>
<g style="fill:#000084; fill-opacity:0.01;  stroke:#000084; stroke-width:4438.495139; stroke-opacity:1;  stroke-linecap:round; stroke-linejoin:round;">
<text x="1236455.262787" y="1697194.108778" transform="scale(-1 1) translate(-2472910.525574 0)" textLength="621130.052135" font-size="39453.280259" lengthAdjust="spacingAndGlyphs" text-anchor="middle" opacity="0.01" style="font-family:monospace">LET9032ES-03L-2.7-16-R</text>
<g class="stroked-text"><desc>LET9032ES-03L-2.7-16-R</desc>
<path d="M1527423 1695785 L1541513 1695785 L1541513 1666195 "/>
<path d="M1517559 1680285 L1507696 1680285 "/>
<path d="M1503469 1695785 L1517559 1695785 L1517559 1666195 L1503469 1666195 "/>
<path d="M1495015 1666195 L1478106 1666195 "/>
<path d="M1486560 1695785 L1486560 1666195 "/>
<path d="M1466834 1695785 L1461198 1695785 L1458380 1694375 L1456970 1692966 L1454152 1688739 L1452743 1683103 L1452743 1671831 L1454152 1669013 L1455561 1667604 L1458380 1666195 L1464016 1666195 L1466834 1667604 L1468243 1669013 L1469652 1671831 L1469652 1678876 L1468243 1681694 L1466834 1683103 L1464016 1684512 L1458380 1684512 L1455561 1683103 L1454152 1681694 L1452743 1678876 "/>
<path d="M1434426 1666195 L1431608 1666195 L1428790 1667604 L1427380 1669013 L1425971 1671831 L1424562 1677467 L1424562 1684512 L1425971 1690148 L1427380 1692966 L1428790 1694375 L1431608 1695785 L1434426 1695785 L1437244 1694375 L1438653 1692966 L1440062 1690148 L1441471 1684512 L1441471 1677467 L1440062 1671831 L1438653 1669013 L1437244 1667604 L1434426 1666195 "/>
<path d="M1414699 1666195 L1396381 1666195 L1406245 1677467 L1402018 1677467 L1399200 1678876 L1397791 1680285 L1396381 1683103 L1396381 1690148 L1397791 1692966 L1399200 1694375 L1402018 1695785 L1410472 1695785 L1413290 1694375 L1414699 1692966 "/>
<path d="M1385109 1669013 L1383700 1667604 L1380882 1666195 L1373837 1666195 L1371019 1667604 L1369610 1669013 L1368201 1671831 L1368201 1674649 L1369610 1678876 L1386518 1695785 L1368201 1695785 "/>
<path d="M1355519 1680285 L1345656 1680285 "/>
<path d="M1341429 1695785 L1355519 1695785 L1355519 1666195 L1341429 1666195 "/>
<path d="M1330156 1694375 L1325929 1695785 L1318884 1695785 L1316066 1694375 L1314657 1692966 L1313248 1690148 L1313248 1687330 L1314657 1684512 L1316066 1683103 L1318884 1681694 L1324520 1680285 L1327338 1678876 L1328747 1677467 L1330156 1674649 L1330156 1671831 L1328747 1669013 L1327338 1667604 L1324520 1666195 L1317475 1666195 L1313248 1667604 "/>
<path d="M1300566 1684512 L1278022 1684512 "/>
<path d="M1258295 1666195 L1255477 1666195 L1252659 1667604 L1251250 1669013 L1249841 1671831 L1248432 1677467 L1248432 1684512 L1249841 1690148 L1251250 1692966 L1252659 1694375 L1255477 1695785 L1258295 1695785 L1261113 1694375 L1262522 1692966 L1263931 1690148 L1265340 1684512 L1265340 1677467 L1263931 1671831 L1262522 1669013 L1261113 1667604 L1258295 1666195 "/>
<path d="M1238568 1666195 L1220251 1666195 L1230114 1677467 L1225887 1677467 L1223069 1678876 L1221660 1680285 L1220251 1683103 L1220251 1690148 L1221660 1692966 L1223069 1694375 L1225887 1695785 L1234341 1695785 L1237159 1694375 L1238568 1692966 "/>
<path d="M1193479 1695785 L1207569 1695785 L1207569 1666195 "/>
<path d="M1183616 1684512 L1161071 1684512 "/>
<path d="M1148389 1669013 L1146980 1667604 L1144162 1666195 L1137117 1666195 L1134299 1667604 L1132890 1669013 L1131481 1671831 L1131481 1674649 L1132890 1678876 L1149798 1695785 L1131481 1695785 "/>
<path d="M1118799 1692966 L1117390 1694375 L1118799 1695785 L1120208 1694375 L1118799 1692966 L1118799 1695785 "/>
<path d="M1107527 1666195 L1087800 1666195 L1100482 1695785 "/>
<path d="M1076528 1684512 L1053983 1684512 "/>
<path d="M1024393 1695785 L1041302 1695785 "/>
<path d="M1032848 1695785 L1032848 1666195 L1035666 1670422 L1038484 1673240 L1041302 1674649 "/>
<path d="M999030 1666195 L1004667 1666195 L1007485 1667604 L1008894 1669013 L1011712 1673240 L1013121 1678876 L1013121 1690148 L1011712 1692966 L1010303 1694375 L1007485 1695785 L1001849 1695785 L999030 1694375 L997621 1692966 L996212 1690148 L996212 1683103 L997621 1680285 L999030 1678876 L1001849 1677467 L1007485 1677467 L1010303 1678876 L1011712 1680285 L1013121 1683103 "/>
<path d="M983531 1684512 L960986 1684512 "/>
<path d="M929987 1695785 L939851 1681694 "/>
<path d="M946896 1695785 L946896 1666195 L935623 1666195 L932805 1667604 L931396 1669013 L929987 1671831 L929987 1676058 L931396 1678876 L932805 1680285 L935623 1681694 L946896 1681694 "/>
</g><text x="1142507.115683" y="1966261.602085" transform="scale(-1 1) translate(-2285014.231365 0)" textLength="30865.147245" font-size="39453.280259" lengthAdjust="spacingAndGlyphs" text-anchor="middle" opacity="0.01" style="font-family:monospace">+</text>
<g class="stroked-text"><desc>+</desc>
<path d="M1153779 1953580 L1131234 1953580 "/>
<path d="M1142507 1964852 L1142507 1942307 "/>
</g><text x="1236455.262787" y="1907637.958292" transform="scale(-1 1) translate(-2472910.525574 0)" textLength="80181.769762" font-size="39453.280259" lengthAdjust="spacingAndGlyphs" text-anchor="middle" opacity="0.01" style="font-family:monospace">BZ1</text>
<g class="stroked-text"><desc>BZ1</desc>
<path d="M1262522 1890729 L1258295 1892138 L1256886 1893547 L1255477 1896365 L1255477 1900592 L1256886 1903410 L1258295 1904819 L1261113 1906228 L1272385 1906228 L1272385 1876638 L1262522 1876638 L1259704 1878047 L1258295 1879457 L1256886 1882275 L1256886 1885093 L1258295 1887911 L1259704 1889320 L1262522 1890729 L1272385 1890729 "/>
<path d="M1245614 1876638 L1225887 1876638 L1245614 1906228 L1225887 1906228 "/>
<path d="M1199115 1906228 L1216024 1906228 "/>
<path d="M1207569 1906228 L1207569 1876638 L1210387 1880866 L1213205 1883684 L1216024 1885093 "/>
</g></g>
<g style="fill:#000084; fill-opacity:0.0;  stroke:#000084; stroke-width:2367.197407; stroke-opacity:1;  stroke-linecap:round; stroke-linejoin:round;">
<g transform="rotate(-90.000000 1192070.311399 1057211.578132)">
<text x="1192070.311399" y="1064609.070030" transform="scale(-1 1) translate(-2384140.622798 0)" textLength="23115.386783" font-size="19726.625335" lengthAdjust="spacingAndGlyphs" text-anchor="middle" opacity="0.01" style="font-family:monospace">C5</text>
</g>
<g class="stroked-text"><desc>C5</desc>
<path d="M1197354 1054745 L1198058 1054041 L1198763 1051927 L1198763 1050518 L1198058 1048405 L1196649 1046995 L1195240 1046291 L1192422 1045586 L1190308 1045586 L1187490 1046291 L1186081 1046995 L1184672 1048405 L1183968 1050518 L1183968 1051927 L1184672 1054041 L1185377 1054745 "/>
<path d="M1183968 1068131 L1183968 1061086 L1191013 1060381 L1190308 1061086 L1189604 1062495 L1189604 1066018 L1190308 1067427 L1191013 1068131 L1192422 1068836 L1195945 1068836 L1197354 1068131 L1198058 1067427 L1198763 1066018 L1198763 1062495 L1198058 1061086 L1197354 1060381 "/>
</g></g>
<g style="fill:#000084; fill-opacity:0.0;  stroke:#000084; stroke-width:2958.996759; stroke-opacity:1;  stroke-linecap:round; stroke-linejoin:round;">
<path d="M1135849 1013936 L958309 1013936 "/>
<path d="M1135849 1191476 L958309 1191476 "/>
<path d="M958309 1191476 L958309 1013936 "/>
<path d="M1135849 1013936 L1135849 1191476 "/>
<path d="M1236455 571566 L1271963 571566 "/>
<path d="M1271963 571566 L1271963 512386 "/>
<path d="M1271963 512386 L1236455 512386 "/>
<path d="M1236455 512386 L1236455 571566 "/>
<path d="M1439886 2018515 L1476873 2018515 "/>
<path d="M1476873 1959335 L1439886 1959335 "/>
<path d="M1439886 1959335 L1439886 2018515 "/>
<path d="M1476873 2018515 L1476873 1959335 "/>
<path d="M2008753 747626 L2008753 688446 "/>
<path d="M1973245 688446 L1973245 747626 "/>
<path d="M2008753 688446 L1973245 688446 "/>
<path d="M1973245 747626 L2008753 747626 "/>
<path d="M1044130 953464 L1129941 953464 "/>
<path d="M1057446 901386 L1129941 901386 "/>
<path d="M1044130 953464 L1044130 914701 "/>
<path d="M1129941 953464 L1129941 901386 "/>
<path d="M1057446 901386 L1044130 914701 "/>
<path d="M1681414 1786234 L1681414 1747767 "/>
<path d="M1595603 1757384 L1595603 1786234 "/>
<path d="M1605220 1747767 L1595603 1757384 "/>
<path d="M1681414 1747767 L1605220 1747767 "/>
<path d="M1595603 1786234 L1681414 1786234 "/>
<path d="M1606329 653678 L1665509 653678 "/>
<path d="M1665509 653678 L1665509 616690 "/>
<path d="M1606329 616690 L1606329 653678 "/>
<path d="M1665509 616690 L1606329 616690 "/>
<path d="M1088505 561209 L1088505 502029 "/>
<path d="M1052997 502029 L1052997 561209 "/>
<path d="M1088505 502029 L1052997 502029 "/>
<path d="M1052997 561209 L1088505 561209 "/>
<path d="M1846008 587840 L1846008 647020 "/>
<path d="M1846008 647020 L1881516 647020 "/>
<path d="M1881516 647020 L1881516 587840 "/>
<path d="M1881516 587840 L1846008 587840 "/>
<path d="M1551588 287502 L1551588 240158 "/>
<path d="M1524957 263830 L1513121 263830 "/>
<path d="M1495367 275666 L1513121 263830 "/>
<path d="M1495367 263830 L1480572 263830 "/>
<path d="M1513121 263830 L1495367 251994 "/>
<path d="M1495367 251994 L1495367 275666 "/>
<path d="M1453941 287502 L1551588 287502 "/>
<path d="M1551588 240158 L1453941 240158 "/>
<path d="M1513121 263830 L1513121 247556 "/>
<path d="M1513121 263830 L1513121 280105 "/>
<path d="M1453941 240158 L1453941 287502 "/>
<path d="M1664030 246076 L1604850 246076 "/>
<path d="M1604850 246076 L1604850 281584 "/>
<path d="M1604850 281584 L1664030 281584 "/>
<path d="M1664030 281584 L1664030 246076 "/>
<path d="M2005794 357038 L2064974 357038 "/>
<path d="M2064974 357038 L2064974 321531 "/>
<path d="M2005794 321531 L2005794 357038 "/>
<path d="M2064974 321531 L2005794 321531 "/>
<path d="M777810 1120460 L866580 1120460 "/>
<path d="M822225 1067233 L822225 1096770 "/>
<path d="M866580 984346 L777810 984346 "/>
<path d="M844397 1067233 L798550 1067233 "/>
<path d="M866580 1120460 L866580 984346 "/>
<path d="M822225 1033186 L844397 1067233 "/>
<path d="M822225 1033186 L798550 1067233 "/>
<path d="M822225 1033186 L822225 1006505 "/>
<path d="M777810 1120460 L777810 984346 "/>
<path d="M798550 1033186 L845900 1033186 "/>
<path d="M1604850 766860 L1690661 766860 "/>
<path d="M1690661 766860 L1690661 719516 "/>
<path d="M1616686 719516 L1604850 731352 "/>
<path d="M1690661 719516 L1616686 719516 "/>
<path d="M1604850 731352 L1604850 766860 "/>
<path d="M1537163 1630147 L1537163 1593159 "/>
<path d="M1477983 1593159 L1477983 1630147 "/>
<path d="M1537163 1593159 L1477983 1593159 "/>
<path d="M1477983 1630147 L1537163 1630147 "/>
</g>
<g style="fill:#000084; fill-opacity:0.0;  stroke:#000084; stroke-width:4438.495139; stroke-opacity:1;  stroke-linecap:round; stroke-linejoin:round;">
<path d="M1884475 269748 L1825295 269748 "/>
<path d="M1914065 358518 L1914065 299338 "/>
<path d="M1825295 358518 L1914065 358518 "/>
<path d="M1914065 299338 L1884475 269748 "/>
<path d="M1825295 269748 L1825295 358518 "/>
</g>
<g style="fill:#000084; fill-opacity:0.0;  stroke:#000084; stroke-width:2958.996759; stroke-opacity:1;  stroke-linecap:round; stroke-linejoin:round;">
<path d="M1606329 1630147 L1665509 1630147 "/>
<path d="M1606329 1593159 L1606329 1630147 "/>
<path d="M1665509 1630147 L1665509 1593159 "/>
<path d="M1665509 1593159 L1606329 1593159 "/>
<path d="M922801 993223 L922801 934043 "/>
<path d="M887293 993223 L922801 993223 "/>
<path d="M887293 934043 L887293 993223 "/>
<path d="M922801 934043 L887293 934043 "/>
<path d="M1553067 1786234 L1553067 1747767 "/>
<path d="M1476873 1747767 L1467257 1757384 "/>
<path d="M1553067 1747767 L1476873 1747767 "/>
<path d="M1467257 1786234 L1553067 1786234 "/>
<path d="M1467257 1757384 L1467257 1786234 "/>
<path d="M1654413 842314 L1654413 901494 "/>
<path d="M1654413 901494 L1691401 901494 "/>
<path d="M1691401 901494 L1691401 842314 "/>
<path d="M1691401 842314 L1654413 842314 "/>
<path d="M751179 922207 L751179 863027 "/>
<path d="M751179 863027 L715671 863027 "/>
<path d="M715671 863027 L715671 922207 "/>
<path d="M715671 922207 L751179 922207 "/>
<path d="M1780170 901494 L1780170 842314 "/>
<path d="M1743183 842314 L1743183 901494 "/>
<path d="M1780170 842314 L1743183 842314 "/>
<path d="M1743183 901494 L1780170 901494 "/>
<path d="M1489449 771298 L1524957 771298 "/>
<path d="M1524957 771298 L1524957 712118 "/>
<path d="M1489449 712118 L1489449 771298 "/>
<path d="M1524957 712118 L1489449 712118 "/>
<path d="M2008753 645911 L2008753 586731 "/>
<path d="M1973245 645911 L2008753 645911 "/>
<path d="M1973245 586731 L1973245 645911 "/>
<path d="M2008753 586731 L1973245 586731 "/>
</g>
<g style="fill:#000084; fill-opacity:0.0;  stroke:#000084; stroke-width:4438.495139; stroke-opacity:1;  stroke-linecap:round; stroke-linejoin:round;">
<path d="M1596420 1875199 L1596420 2021758 "/>
<path d="M1680597 1872944 L1596420 1872944 "/>
<path d="M1596420 2021758 L1680597 2021758 "/>
<path d="M1680597 2020255 L1680597 1873696 "/>
</g>
<g style="fill:#000084; fill-opacity:0.0;  stroke:#000084; stroke-width:2958.996759; stroke-opacity:1;  stroke-linecap:round; stroke-linejoin:round;">
<path d="M974584 502029 L974584 561209 "/>
<path d="M1010092 502029 L974584 502029 "/>
<path d="M1010092 561209 L1010092 502029 "/>
<path d="M974584 561209 L1010092 561209 "/>
<path d="M1579698 571196 L1615206 571196 "/>
<path d="M1615206 512016 L1579698 512016 "/>
<path d="M1615206 571196 L1615206 512016 "/>
<path d="M1579698 512016 L1579698 571196 "/>
<path d="M1621124 1474799 L1621124 1511787 "/>
<path d="M1680304 1511787 L1680304 1474799 "/>
<path d="M1680304 1474799 L1621124 1474799 "/>
<path d="M1621124 1511787 L1680304 1511787 "/>
<path d="M1735785 1747767 L1726169 1757384 "/>
<path d="M1726169 1757384 L1726169 1786234 "/>
<path d="M1811980 1747767 L1735785 1747767 "/>
<path d="M1811980 1786234 L1811980 1747767 "/>
<path d="M1726169 1786234 L1811980 1786234 "/>
<path d="M1881516 689556 L1846008 689556 "/>
<path d="M1846008 689556 L1846008 748736 "/>
<path d="M1881516 748736 L1881516 689556 "/>
<path d="M1846008 748736 L1881516 748736 "/>
<path d="M887293 834547 L887293 893727 "/>
<path d="M922801 893727 L922801 834547 "/>
<path d="M887293 893727 L922801 893727 "/>
<path d="M922801 834547 L887293 834547 "/>
<path d="M1263825 775737 L1300813 775737 "/>
<path d="M1300813 775737 L1300813 716557 "/>
<path d="M1300813 716557 L1263825 716557 "/>
<path d="M1263825 716557 L1263825 775737 "/>
<path d="M1425831 571566 L1461339 571566 "/>
<path d="M1461339 571566 L1461339 512386 "/>
<path d="M1425831 512386 L1425831 571566 "/>
<path d="M1461339 512386 L1425831 512386 "/>
<path d="M1412515 1448908 L1412515 1537678 "/>
<path d="M1412515 1448908 L1548629 1448908 "/>
<path d="M1499789 1469648 L1499789 1516998 "/>
<path d="M1548629 1537678 L1548629 1448908 "/>
<path d="M1465742 1493323 L1436205 1493323 "/>
<path d="M1499789 1493323 L1526470 1493323 "/>
<path d="M1412515 1537678 L1548629 1537678 "/>
<path d="M1499789 1493323 L1465742 1515495 "/>
<path d="M1499789 1493323 L1465742 1469648 "/>
<path d="M1465742 1515495 L1465742 1469648 "/>
<path d="M1506463 1959335 L1506463 2018515 "/>
<path d="M1506463 2018515 L1543451 2018515 "/>
<path d="M1543451 2018515 L1543451 1959335 "/>
<path d="M1543451 1959335 L1506463 1959335 "/>
<path d="M2005794 296379 L2064974 296379 "/>
<path d="M2064974 296379 L2064974 260871 "/>
<path d="M2005794 260871 L2005794 296379 "/>
<path d="M2064974 260871 L2005794 260871 "/>
<path d="M1443585 348161 L1502764 348161 "/>
<path d="M1443585 312654 L1443585 348161 "/>
<path d="M1502764 312654 L1443585 312654 "/>
<path d="M1502764 348161 L1502764 312654 "/>
<path d="M1378487 701762 L1378487 787572 "/>
<path d="M1413995 701762 L1378487 701762 "/>
<path d="M1425831 787572 L1425831 713598 "/>
<path d="M1425831 713598 L1413995 701762 "/>
<path d="M1378487 787572 L1425831 787572 "/>
<path d="M1783869 1593159 L1724689 1593159 "/>
<path d="M1783869 1630147 L1783869 1593159 "/>
<path d="M1724689 1593159 L1724689 1630147 "/>
<path d="M1724689 1630147 L1783869 1630147 "/>
<path d="M786687 924056 L822195 924056 "/>
<path d="M822195 924056 L822195 864876 "/>
<path d="M786687 864876 L786687 924056 "/>
<path d="M822195 864876 L786687 864876 "/>
</g>
<g style="fill:#000084; fill-opacity:0.0;  stroke:#000084; stroke-width:4438.495139; stroke-opacity:1;  stroke-linecap:round; stroke-linejoin:round;">
<path d="M1811163 2017444 L1811163 1870885 "/>
<path d="M1726985 2018947 L1811163 2018947 "/>
<path d="M1811163 1870133 L1726985 1870133 "/>
<path d="M1726985 1872388 L1726985 2018947 "/>
</g>
<g style="fill:#000084; fill-opacity:0.0;  stroke:#000084; stroke-width:2958.996759; stroke-opacity:1;  stroke-linecap:round; stroke-linejoin:round;">
<path d="M1495367 616690 L1495367 653678 "/>
<path d="M1554547 653678 L1554547 616690 "/>
<path d="M1495367 653678 L1554547 653678 "/>
<path d="M1554547 616690 L1495367 616690 "/>
<path d="M751179 1027621 L751179 968441 "/>
<path d="M715671 968441 L715671 1027621 "/>
<path d="M715671 1027621 L751179 1027621 "/>
<path d="M751179 968441 L715671 968441 "/>
<path d="M1162480 2070382 L1310430 2070382 "/>
<path d="M1310430 2070382 L1310430 2003509 "/>
<path d="M1162480 2070382 L1162480 2003509 "/>
<path d="M1310430.181582 2003509.453014 A133114.079188 133114.079188 0.0 1 0 1162328.659765 2003407.909275"/>
<path d="M1174316 1027621 L1174316 1086801 "/>
<path d="M1174316 1086801 L1209824 1086801 "/>
<path d="M1209824 1027621 L1174316 1027621 "/>
<path d="M1209824 1086801 L1209824 1027621 "/>
<g>
</g>
<g>
</g>
<g>
</g>
<g>
</g>
<g>
</g>
<g>
</g>
<g>
</g>
<g>
</g>
<g>
</g>
<g>
</g>
<g>
</g>
<g>
</g>
<g>
</g>
<g>
</g>
<g>
</g>
<g>
</g>
<g>
</g>
<g>
</g>
<g>
</g>
<g>
</g>
<g>
</g>
<g>
</g>
<g>
</g>
<g>
</g>
<g>
</g>
<g>
</g>
<g>
</g>
<g>
</g>
<g>
</g>
<g>
</g>
<g>
</g>
<g>
</g>
<g>
</g>
<g>
</g>
<g>
</g>
<g>
</g>
<g>
</g>
<g>
</g>
<g>
</g>
<g>
</g>
<g>
</g>
<g>
</g>
<g>
</g>
<g>
</g>
<g>
</g>
<g>
</g>
<g>
</g>
<g>
</g>
<g>
</g>
<g>
</g>
<g>
</g>
<g>
</g>
<g>
</g>
<g>
</g>
<g>
</g>
<g>
</g>
<g>
</g>
<g>
</g>
<g>
</g>
<g>
</g>
</g> 
<svg:g><svg:g><svg:title>SVG Picture created as OLED01-Edge_Cuts.svg date 2023/06/13 23:25:20 </svg:title>
  <svg:desc>Picture generated by PCBNEW </svg:desc>
<svg:g style="fill:#C2C200; fill-opacity:1.000000;stroke:#C2C200; stroke-opacity:1.000000; stroke-linecap:round; stroke-linejoin:round;" transform="translate(0 0) scale(1 1)">
</svg:g>
<svg:g style="fill:#C2C200; fill-opacity:0.0;  stroke:#C2C200; stroke-width:0.000000; stroke-opacity:1;  stroke-linecap:round; stroke-linejoin:round;">
</svg:g>
<svg:g style="fill:#C2C200; fill-opacity:0.0;  stroke:#C2C200; stroke-width:1479.498380; stroke-opacity:1;  stroke-linecap:round; stroke-linejoin:round;">
<svg:path d="M586067 2099296 L2383954 2099296 "/>
<svg:path d="M2383954 2099296 L2383954 775 "/>
<svg:path d="M2383954 775 L586067 775 "/>
<svg:path d="M586067 775 L586067 2099296 "/>
<svg:path d="M1617795 1979900 L1659221 1979900 "/>
<svg:path d="M1674016 1965105 L1674016 1929597 "/>
<svg:path d="M1617795 1914802 L1659221 1914802 "/>
<svg:path d="M1603000 1965105 L1603000 1929597 "/>
<svg:path d="M1603000.986332 1965105.758771 A14795.013386 14795.013386 0.0 0 0 1617795.970128 1979900.742567"/>
<svg:path d="M1674016.908553 1929597.797661 A14794.983796 14794.983796 0.0 0 0 1659221.924757 1914802.813865"/>
<svg:path d="M1659221.924757 1979900.742567 A14795.013386 14795.013386 0.0 0 0 1674016.908553 1965105.758771"/>
<svg:path d="M1617795.970128 1914802.813865 A14794.983796 14794.983796 0.0 0 0 1603000.986332 1929597.797661"/>
<svg:path d="M1733566 1962294 L1733566 1926786 "/>
<svg:path d="M1748361 1977089 L1789787 1977089 "/>
<svg:path d="M1748361 1911991 L1789787 1911991 "/>
<svg:path d="M1804582 1962294 L1804582 1926786 "/>
<svg:path d="M1733566.718332 1962294.711850 A14795.013386 14795.013386 0.0 0 0 1748361.702128 1977089.695646"/>
<svg:path d="M1804582.640552 1926786.750740 A14794.983796 14794.983796 0.0 0 0 1789787.656756 1911991.766944"/>
<svg:path d="M1748361.702128 1911991.766944 A14794.983796 14794.983796 0.0 0 0 1733566.718332 1926786.750740"/>
<svg:path d="M1789787.656756 1977089.695646 A14795.013386 14795.013386 0.0 0 0 1804582.640552 1962294.711850"/>
<svg:g>
</svg:g>
<svg:g>
</svg:g>
<svg:g>
</svg:g>
<svg:g>
</svg:g>
<svg:g>
</svg:g>
<svg:g>
</svg:g>
<svg:g>
</svg:g>
<svg:g>
</svg:g>
<svg:g>
</svg:g>
<svg:g>
</svg:g>
<svg:g>
</svg:g>
<svg:g>
</svg:g>
<svg:g>
</svg:g>
<svg:g>
</svg:g>
<svg:g>
</svg:g>
<svg:g>
</svg:g>
<svg:g>
</svg:g>
<svg:g>
</svg:g>
<svg:g>
</svg:g>
<svg:g>
</svg:g>
<svg:g>
</svg:g>
<svg:g>
</svg:g>
<svg:g>
</svg:g>
<svg:g>
</svg:g>
<svg:g>
</svg:g>
<svg:g>
</svg:g>
<svg:g>
</svg:g>
<svg:g>
</svg:g>
<svg:g>
</svg:g>
<svg:g>
</svg:g>
<svg:g>
</svg:g>
<svg:g>
</svg:g>
<svg:g>
</svg:g>
<svg:g>
</svg:g>
<svg:g>
</svg:g>
<svg:g>
</svg:g>
<svg:g>
</svg:g>
<svg:g>
</svg:g>
<svg:g>
</svg:g>
<svg:g>
</svg:g>
<svg:g>
</svg:g>
<svg:g>
</svg:g>
<svg:g>
</svg:g>
<svg:g>
</svg:g>
<svg:g>
</svg:g>
<svg:g>
</svg:g>
<svg:g>
</svg:g>
<svg:g>
</svg:g>
<svg:g>
</svg:g>
<svg:g>
</svg:g>
<svg:g>
</svg:g>
<svg:g>
</svg:g>
<svg:g>
</svg:g>
<svg:g>
</svg:g>
<svg:g>
</svg:g>
<svg:g>
</svg:g>
<svg:g>
</svg:g>
<svg:g>
</svg:g>
<svg:g>
</svg:g>
<svg:g>
</svg:g>
</svg:g> 
</svg:g></svg:g></svg>
