<?xml version='1.0' encoding='ASCII' standalone='yes'?>
<svg xmlns:svg="http://www.w3.org/2000/svg" xmlns="http://www.w3.org/2000/svg" xmlns:xlink="http://www.w3.org/1999/xlink" version="1.1" width="29.700220cm" height="21.000720cm" viewBox="0 0 2970022 2100072">
<title>SVG Picture created as OLED01-F_Fab.svg date 2023/06/14 19:26:34 </title>
  <desc>Picture generated by PCBNEW </desc>
<g style="fill:#848484; fill-opacity:1.000000;stroke:#848484; stroke-opacity:1.000000; stroke-linecap:round; stroke-linejoin:round;" transform="translate(0 0) scale(1 1)">
</g>
<g style="fill:#848484; fill-opacity:0.0;  stroke:#848484; stroke-width:0.000000; stroke-opacity:1;  stroke-linecap:round; stroke-linejoin:round;">
</g>
<g style="fill:#848484; fill-opacity:0.01;  stroke:#848484; stroke-width:4438.495139; stroke-opacity:1;  stroke-linecap:round; stroke-linejoin:round;">
<text x="1487970.006200" y="1111583.143582" textLength="862595.461463" font-size="39453.280259" lengthAdjust="spacingAndGlyphs" text-anchor="middle" opacity="0.01" style="font-family:monospace">EA OLEDM128-6GGA, Precision socket</text>
<g class="stroked-text"><desc>EA OLEDM128-6GGA, Precision socket</desc>
<path d="M1910683 1094674 L1900820 1094674 "/>
<path d="M1896593 1110174 L1910683 1110174 L1910683 1080584 L1896593 1080584 "/>
<path d="M1885321 1101719 L1871230 1101719 "/>
<path d="M1888139 1110174 L1878275 1080584 L1868412 1110174 "/>
<path d="M1830368 1080584 L1824732 1080584 L1821913 1081993 L1819095 1084811 L1817686 1090447 L1817686 1100310 L1819095 1105946 L1821913 1108765 L1824732 1110174 L1830368 1110174 L1833186 1108765 L1836004 1105946 L1837413 1100310 L1837413 1090447 L1836004 1084811 L1833186 1081993 L1830368 1080584 "/>
<path d="M1790914 1110174 L1805005 1110174 L1805005 1080584 "/>
<path d="M1781051 1094674 L1771188 1094674 "/>
<path d="M1766961 1110174 L1781051 1110174 L1781051 1080584 L1766961 1080584 "/>
<path d="M1754279 1110174 L1754279 1080584 L1747234 1080584 L1743007 1081993 L1740189 1084811 L1738780 1087629 L1737371 1093265 L1737371 1097492 L1738780 1103128 L1740189 1105946 L1743007 1108765 L1747234 1110174 L1754279 1110174 "/>
<path d="M1724689 1110174 L1724689 1080584 L1714826 1101719 L1704963 1080584 L1704963 1110174 "/>
<path d="M1675373 1110174 L1692281 1110174 "/>
<path d="M1683827 1110174 L1683827 1080584 L1686645 1084811 L1689463 1087629 L1692281 1089038 "/>
<path d="M1664100 1083402 L1662691 1081993 L1659873 1080584 L1652828 1080584 L1650010 1081993 L1648601 1083402 L1647192 1086220 L1647192 1089038 L1648601 1093265 L1665509 1110174 L1647192 1110174 "/>
<path d="M1630283 1093265 L1633101 1091856 L1634510 1090447 L1635919 1087629 L1635919 1086220 L1634510 1083402 L1633101 1081993 L1630283 1080584 L1624647 1080584 L1621829 1081993 L1620420 1083402 L1619011 1086220 L1619011 1087629 L1620420 1090447 L1621829 1091856 L1624647 1093265 L1630283 1093265 L1633101 1094674 L1634510 1096083 L1635919 1098901 L1635919 1104537 L1634510 1107355 L1633101 1108765 L1630283 1110174 L1624647 1110174 L1621829 1108765 L1620420 1107355 L1619011 1104537 L1619011 1098901 L1620420 1096083 L1621829 1094674 L1624647 1093265 "/>
<path d="M1606329 1098901 L1583785 1098901 "/>
<path d="M1557013 1080584 L1562649 1080584 L1565467 1081993 L1566876 1083402 L1569694 1087629 L1571103 1093265 L1571103 1104537 L1569694 1107355 L1568285 1108765 L1565467 1110174 L1559831 1110174 L1557013 1108765 L1555604 1107355 L1554195 1104537 L1554195 1097492 L1555604 1094674 L1557013 1093265 L1559831 1091856 L1565467 1091856 L1568285 1093265 L1569694 1094674 L1571103 1097492 "/>
<path d="M1526014 1081993 L1528832 1080584 L1533059 1080584 L1537286 1081993 L1540104 1084811 L1541513 1087629 L1542922 1093265 L1542922 1097492 L1541513 1103128 L1540104 1105946 L1537286 1108765 L1533059 1110174 L1530241 1110174 L1526014 1108765 L1524605 1107355 L1524605 1097492 L1530241 1097492 "/>
<path d="M1496424 1081993 L1499242 1080584 L1503469 1080584 L1507696 1081993 L1510514 1084811 L1511923 1087629 L1513332 1093265 L1513332 1097492 L1511923 1103128 L1510514 1105946 L1507696 1108765 L1503469 1110174 L1500651 1110174 L1496424 1108765 L1495015 1107355 L1495015 1097492 L1500651 1097492 "/>
<path d="M1483742 1101719 L1469652 1101719 "/>
<path d="M1486560 1110174 L1476697 1080584 L1466834 1110174 "/>
<path d="M1455561 1108765 L1455561 1110174 L1456970 1112992 L1458380 1114401 "/>
<path d="M1420335 1110174 L1420335 1080584 L1409063 1080584 L1406245 1081993 L1404836 1083402 L1403427 1086220 L1403427 1090447 L1404836 1093265 L1406245 1094674 L1409063 1096083 L1420335 1096083 "/>
<path d="M1390745 1110174 L1390745 1090447 "/>
<path d="M1390745 1096083 L1389336 1093265 L1387927 1091856 L1385109 1090447 L1382291 1090447 "/>
<path d="M1361155 1108765 L1363973 1110174 L1369610 1110174 L1372428 1108765 L1373837 1105946 L1373837 1094674 L1372428 1091856 L1369610 1090447 L1363973 1090447 L1361155 1091856 L1359746 1094674 L1359746 1097492 L1373837 1100310 "/>
<path d="M1334383 1108765 L1337202 1110174 L1342838 1110174 L1345656 1108765 L1347065 1107355 L1348474 1104537 L1348474 1096083 L1347065 1093265 L1345656 1091856 L1342838 1090447 L1337202 1090447 L1334383 1091856 "/>
<path d="M1321702 1110174 L1321702 1090447 "/>
<path d="M1321702 1080584 L1323111 1081993 L1321702 1083402 L1320293 1081993 L1321702 1080584 L1321702 1083402 "/>
<path d="M1309021 1108765 L1306203 1110174 L1300566 1110174 L1297748 1108765 L1296339 1105946 L1296339 1104537 L1297748 1101719 L1300566 1100310 L1304794 1100310 L1307612 1098901 L1309021 1096083 L1309021 1094674 L1307612 1091856 L1304794 1090447 L1300566 1090447 L1297748 1091856 "/>
<path d="M1283658 1110174 L1283658 1090447 "/>
<path d="M1283658 1080584 L1285067 1081993 L1283658 1083402 L1282249 1081993 L1283658 1080584 L1283658 1083402 "/>
<path d="M1265340 1110174 L1268158 1108765 L1269567 1107355 L1270976 1104537 L1270976 1096083 L1269567 1093265 L1268158 1091856 L1265340 1090447 L1261113 1090447 L1258295 1091856 L1256886 1093265 L1255477 1096083 L1255477 1104537 L1256886 1107355 L1258295 1108765 L1261113 1110174 L1265340 1110174 "/>
<path d="M1242795 1090447 L1242795 1110174 "/>
<path d="M1242795 1093265 L1241386 1091856 L1238568 1090447 L1234341 1090447 L1231523 1091856 L1230114 1094674 L1230114 1110174 "/>
<path d="M1194888 1108765 L1192070 1110174 L1186434 1110174 L1183616 1108765 L1182207 1105946 L1182207 1104537 L1183616 1101719 L1186434 1100310 L1190661 1100310 L1193479 1098901 L1194888 1096083 L1194888 1094674 L1193479 1091856 L1190661 1090447 L1186434 1090447 L1183616 1091856 "/>
<path d="M1165298 1110174 L1168116 1108765 L1169525 1107355 L1170934 1104537 L1170934 1096083 L1169525 1093265 L1168116 1091856 L1165298 1090447 L1161071 1090447 L1158253 1091856 L1156844 1093265 L1155435 1096083 L1155435 1104537 L1156844 1107355 L1158253 1108765 L1161071 1110174 L1165298 1110174 "/>
<path d="M1130072 1108765 L1132890 1110174 L1138526 1110174 L1141344 1108765 L1142753 1107355 L1144162 1104537 L1144162 1096083 L1142753 1093265 L1141344 1091856 L1138526 1090447 L1132890 1090447 L1130072 1091856 "/>
<path d="M1117390 1110174 L1117390 1080584 "/>
<path d="M1114572 1098901 L1106118 1110174 "/>
<path d="M1106118 1090447 L1117390 1101719 "/>
<path d="M1082164 1108765 L1084982 1110174 L1090619 1110174 L1093437 1108765 L1094846 1105946 L1094846 1094674 L1093437 1091856 L1090619 1090447 L1084982 1090447 L1082164 1091856 L1080755 1094674 L1080755 1097492 L1094846 1100310 "/>
<path d="M1072301 1090447 L1061029 1090447 "/>
<path d="M1068074 1080584 L1068074 1105946 L1066665 1108765 L1063847 1110174 L1061029 1110174 "/>
</g><g transform="rotate(-270.000000 1515734.272791 1886485.214880)">
<text x="1515734.272791" y="1901280.198675" textLength="35360.011272" font-size="39453.280259" lengthAdjust="spacingAndGlyphs" text-anchor="middle" opacity="0.01" style="font-family:monospace">K</text>
</g>
<g class="stroked-text"><desc>K</desc>
<path d="M1529120 1878735 L1499530 1878735 "/>
<path d="M1529120 1895643 L1512211 1882962 "/>
<path d="M1499530 1895643 L1516438 1878735 "/>
</g><g transform="rotate(-270.000000 1385168.540792 1883674.167958)">
<text x="1385168.540792" y="1898469.151754" textLength="35360.011272" font-size="39453.280259" lengthAdjust="spacingAndGlyphs" text-anchor="middle" opacity="0.01" style="font-family:monospace">K</text>
</g>
<g class="stroked-text"><desc>K</desc>
<path d="M1398554 1875924 L1368964 1875924 "/>
<path d="M1398554 1892832 L1381645 1880151 "/>
<path d="M1368964 1892832 L1385873 1875924 "/>
</g><path d="M1260423 2027096 L1260423 1876779 "/>
<path d="M1260423 1876779 L1034947 1876779 "/>
<path d="M1034947 1876779 L1034947 2027096 "/>
<path d="M1034947 2027096 L1260423 2027096 "/>
</g>
<g style="fill:#848484; fill-opacity:0.0;  stroke:#848484; stroke-width:11273.777653; stroke-opacity:1;  stroke-linecap:round; stroke-linejoin:round;">
<circle cx="733425.832605" cy="1951938.223193" r="88762.209384"/> 
<circle cx="2236596.186276" cy="1951938.223193" r="88762.209384"/> 
</g>
<g style="fill:#848484; fill-opacity:0.0;  stroke:#848484; stroke-width:4438.495139; stroke-opacity:1;  stroke-linecap:round; stroke-linejoin:round;">
<path d="M1660183 296675 L1660183 71199 "/>
<path d="M1585025 296675 L1660183 296675 "/>
<path d="M1585025 71199 L1585025 296675 "/>
<path d="M1660183 71199 L1585025 71199 "/>
<path d="M2072667 73271 L1847192 73271 "/>
<path d="M1847192 73271 L1847192 223588 "/>
<path d="M1847192 223588 L2072667 223588 "/>
<path d="M2072667 223588 L2072667 73271 "/>
</g>
<g style="fill:#848484; fill-opacity:0.0;  stroke:#848484; stroke-width:11273.777653; stroke-opacity:1;  stroke-linecap:round; stroke-linejoin:round;">
<circle cx="2236596.186276" cy="146950.200085" r="88762.209384"/> 
<circle cx="733425.832605" cy="146950.200085" r="88762.209384"/> 
</g>
<g style="fill:#848484; fill-opacity:0.0;  stroke:#848484; stroke-width:4438.495139; stroke-opacity:1;  stroke-linecap:round; stroke-linejoin:round;">
<path d="M1545769 74750 L1320293 74750 "/>
<path d="M1320293 74750 L1320293 225067 "/>
<path d="M1320293 225067 L1545769 225067 "/>
<path d="M1545769 225067 L1545769 74750 "/>
<path d="M1808133 225067 L1808133 74750 "/>
<path d="M1808133 74750 L1732974 74750 "/>
<path d="M1732974 74750 L1732974 225067 "/>
<path d="M1732974 225067 L1808133 225067 "/>
<g>
</g>
<g>
</g>
<g>
</g>
<g>
</g>
<g>
</g>
<g>
</g>
<g>
</g>
<g>
</g>
<g>
</g>
<g>
</g>
<g>
</g>
<g>
</g>
<g>
</g>
<g>
</g>
<g>
</g>
<g>
</g>
<g>
</g>
<g>
</g>
<g>
</g>
<g>
</g>
<g>
</g>
<g>
</g>
<g>
</g>
<g>
</g>
<g>
</g>
<g>
</g>
<g>
</g>
<g>
</g>
<g>
</g>
<g>
</g>
<g>
</g>
<g>
</g>
<g>
</g>
<g>
</g>
<g>
</g>
<g>
</g>
<g>
</g>
<g>
</g>
<g>
</g>
<g>
</g>
<g>
</g>
<g>
</g>
<g>
</g>
<g>
</g>
<g>
</g>
<g>
</g>
<g>
</g>
<g>
</g>
<g>
</g>
<g>
</g>
<g>
</g>
<g>
</g>
<g>
</g>
<g>
</g>
<g>
</g>
<g>
</g>
<g>
</g>
<g>
</g>
<g>
</g>
<g>
</g>
<g>
</g>
<g>
</g>
</g> 
<svg:g><svg:g><svg:title>SVG Picture created as OLED01-Edge_Cuts.svg date 2023/06/14 19:26:34 </svg:title>
  <svg:desc>Picture generated by PCBNEW </svg:desc>
<svg:g style="fill:#C2C200; fill-opacity:1.000000;stroke:#C2C200; stroke-opacity:1.000000; stroke-linecap:round; stroke-linejoin:round;" transform="translate(0 0) scale(1 1)">
</svg:g>
<svg:g style="fill:#C2C200; fill-opacity:0.0;  stroke:#C2C200; stroke-width:0.000000; stroke-opacity:1;  stroke-linecap:round; stroke-linejoin:round;">
</svg:g>
<svg:g style="fill:#C2C200; fill-opacity:0.0;  stroke:#C2C200; stroke-width:1479.498380; stroke-opacity:1;  stroke-linecap:round; stroke-linejoin:round;">
<svg:path d="M2383954 2099296 L586067 2099296 "/>
<svg:path d="M586067 2099296 L586067 775 "/>
<svg:path d="M586067 775 L2383954 775 "/>
<svg:path d="M2383954 775 L2383954 2099296 "/>
<svg:path d="M1534944 1979160 L1493518 1979160 "/>
<svg:path d="M1478723 1964366 L1478723 1928858 "/>
<svg:path d="M1534944 1914063 L1493518 1914063 "/>
<svg:path d="M1549739 1964366 L1549739 1928858 "/>
<svg:path d="M1534944.079752 1979160.993377 A14795.013386 14795.013386 0.0 0 0 1549739.063548 1964366.009582"/>
<svg:path d="M1493518.125123 1914063.064675 A14794.983796 14794.983796 0.0 0 0 1478723.141327 1928858.048471"/>
<svg:path d="M1478723.141327 1964366.009582 A14795.013386 14795.013386 0.0 0 0 1493518.125123 1979160.993377"/>
<svg:path d="M1549739.063548 1928858.048471 A14794.983796 14794.983796 0.0 0 0 1534944.079752 1914063.064675"/>
<svg:path d="M1419173 1961554 L1419173 1926047 "/>
<svg:path d="M1404378 1976349 L1362952 1976349 "/>
<svg:path d="M1404378 1911252 L1362952 1911252 "/>
<svg:path d="M1348157 1961554 L1348157 1926047 "/>
<svg:path d="M1404378.347753 1976349.946456 A14795.013386 14795.013386 0.0 0 0 1419173.331549 1961554.962660"/>
<svg:path d="M1362952.393124 1911252.017754 A14794.983796 14794.983796 0.0 0 0 1348157.409328 1926047.001550"/>
<svg:path d="M1419173.331549 1926047.001550 A14794.983796 14794.983796 0.0 0 0 1404378.347753 1911252.017754"/>
<svg:path d="M1348157.409328 1961554.962660 A14795.013386 14795.013386 0.0 0 0 1362952.393124 1976349.946456"/>
<svg:g>
</svg:g>
<svg:g>
</svg:g>
<svg:g>
</svg:g>
<svg:g>
</svg:g>
<svg:g>
</svg:g>
<svg:g>
</svg:g>
<svg:g>
</svg:g>
<svg:g>
</svg:g>
<svg:g>
</svg:g>
<svg:g>
</svg:g>
<svg:g>
</svg:g>
<svg:g>
</svg:g>
<svg:g>
</svg:g>
<svg:g>
</svg:g>
<svg:g>
</svg:g>
<svg:g>
</svg:g>
<svg:g>
</svg:g>
<svg:g>
</svg:g>
<svg:g>
</svg:g>
<svg:g>
</svg:g>
<svg:g>
</svg:g>
<svg:g>
</svg:g>
<svg:g>
</svg:g>
<svg:g>
</svg:g>
<svg:g>
</svg:g>
<svg:g>
</svg:g>
<svg:g>
</svg:g>
<svg:g>
</svg:g>
<svg:g>
</svg:g>
<svg:g>
</svg:g>
<svg:g>
</svg:g>
<svg:g>
</svg:g>
<svg:g>
</svg:g>
<svg:g>
</svg:g>
<svg:g>
</svg:g>
<svg:g>
</svg:g>
<svg:g>
</svg:g>
<svg:g>
</svg:g>
<svg:g>
</svg:g>
<svg:g>
</svg:g>
<svg:g>
</svg:g>
<svg:g>
</svg:g>
<svg:g>
</svg:g>
<svg:g>
</svg:g>
<svg:g>
</svg:g>
<svg:g>
</svg:g>
<svg:g>
</svg:g>
<svg:g>
</svg:g>
<svg:g>
</svg:g>
<svg:g>
</svg:g>
<svg:g>
</svg:g>
<svg:g>
</svg:g>
<svg:g>
</svg:g>
<svg:g>
</svg:g>
<svg:g>
</svg:g>
<svg:g>
</svg:g>
<svg:g>
</svg:g>
<svg:g>
</svg:g>
<svg:g>
</svg:g>
<svg:g>
</svg:g>
<svg:g>
</svg:g>
<svg:g>
</svg:g>
</svg:g> 
</svg:g></svg:g></svg>
