<?xml version='1.0' encoding='ASCII' standalone='yes'?>
<svg xmlns:svg="http://www.w3.org/2000/svg" xmlns="http://www.w3.org/2000/svg" xmlns:xlink="http://www.w3.org/1999/xlink" version="1.1" width="29.700220cm" height="21.000720cm" viewBox="0 0 2970022 2100072">
<title>SVG Picture created as OLED01-B_Fab.svg date 2023/03/05 01:48:30 </title>
  <desc>Picture generated by PCBNEW </desc>
<g style="fill:#000084; fill-opacity:1.000000;stroke:#000084; stroke-opacity:1.000000; stroke-linecap:round; stroke-linejoin:round;" transform="translate(0 0) scale(1 1)">
</g>
<g style="fill:#000084; fill-opacity:0.0;  stroke:#000084; stroke-width:0.000000; stroke-opacity:1;  stroke-linecap:round; stroke-linejoin:round;">
</g>
<g style="fill:#000084; fill-opacity:0.0;  stroke:#000084; stroke-width:3192.297948; stroke-opacity:1;  stroke-linecap:round; stroke-linejoin:round;">
<g transform="rotate(-90.000000 1135986.418039 998161.167469)">
<text x="1135986.418039" y="1008802.160628" transform="scale(-1 1) translate(-2271972.836078 0)" textLength="37496.816823" font-size="28375.974664" lengthAdjust="spacingAndGlyphs" text-anchor="middle" opacity="0.01" style="font-family:monospace">L1</text>
</g>
<g class="stroked-text"><desc>L1</desc>
<path d="M1145613 994614 L1145613 984479 L1124331 984479 "/>
<path d="M1145613 1012855 L1145613 1000694 "/>
<path d="M1145613 1006775 L1124331 1006775 L1127372 1004748 L1129399 1002721 L1130412 1000694 "/>
</g></g>
<g style="fill:#000084; fill-opacity:0.0;  stroke:#000084; stroke-width:1702.558905; stroke-opacity:1;  stroke-linecap:round; stroke-linejoin:round;">
<g transform="rotate(-90.000000 1257293.740056 592473.303268)">
<text x="1257293.740056" y="597793.799848" transform="scale(-1 1) translate(-2514587.480111 0)" textLength="26759.565239" font-size="14187.976691" lengthAdjust="spacingAndGlyphs" text-anchor="middle" opacity="0.01" style="font-family:monospace">R10</text>
</g>
<g class="stroked-text"><desc>R10</desc>
<path d="M1262107 585632 L1257040 582085 "/>
<path d="M1262107 579552 L1251466 579552 L1251466 583605 L1251973 584619 L1252479 585125 L1253493 585632 L1255013 585632 L1256026 585125 L1256533 584619 L1257040 583605 L1257040 579552 "/>
<path d="M1262107 595766 L1262107 589686 "/>
<path d="M1262107 592726 L1251466 592726 L1252986 591713 L1254000 590699 L1254506 589686 "/>
<path d="M1251466 602354 L1251466 603367 L1251973 604381 L1252479 604887 L1253493 605394 L1255520 605901 L1258053 605901 L1260080 605394 L1261094 604887 L1261600 604381 L1262107 603367 L1262107 602354 L1261600 601340 L1261094 600834 L1260080 600327 L1258053 599820 L1255520 599820 L1253493 600327 L1252479 600834 L1251973 601340 L1251466 602354 "/>
</g><g transform="rotate(-90.000000 1814881.781606 721495.345326)">
<text x="1814881.781606" y="726815.841905" transform="scale(-1 1) translate(-3629763.563213 0)" textLength="18561.935647" font-size="14187.976691" lengthAdjust="spacingAndGlyphs" text-anchor="middle" opacity="0.01" style="font-family:monospace">R3</text>
</g>
<g class="stroked-text"><desc>R3</desc>
<path d="M1819695 719721 L1814628 716174 "/>
<path d="M1819695 713641 L1809054 713641 L1809054 717694 L1809561 718708 L1810067 719215 L1811081 719721 L1812601 719721 L1813614 719215 L1814121 718708 L1814628 717694 L1814628 713641 "/>
<path d="M1809054 723268 L1809054 729856 L1813108 726309 L1813108 727829 L1813614 728842 L1814121 729349 L1815135 729856 L1817668 729856 L1818682 729349 L1819188 728842 L1819695 727829 L1819695 724788 L1819188 723775 L1818682 723268 "/>
</g></g>
<g style="fill:#000084; fill-opacity:0.01;  stroke:#000084; stroke-width:1596.148974; stroke-opacity:1;  stroke-linecap:round; stroke-linejoin:round;">
<text x="1164724.356727" y="877414.689638" transform="scale(-1 1) translate(-2329448.713453 0)" textLength="19068.659742" font-size="14187.976691" lengthAdjust="spacingAndGlyphs" text-anchor="middle" opacity="0.01" style="font-family:monospace">U3</text>
<g class="stroked-text"><desc>U3</desc>
<path d="M1172831 866266 L1172831 874881 L1172325 875894 L1171818 876401 L1170804 876907 L1168778 876907 L1167764 876401 L1167257 875894 L1166751 874881 L1166751 866266 "/>
<path d="M1162697 866266 L1156110 866266 L1159657 870320 L1158137 870320 L1157123 870827 L1156616 871334 L1156110 872347 L1156110 874881 L1156616 875894 L1157123 876401 L1158137 876907 L1161177 876907 L1162190 876401 L1162697 875894 "/>
</g></g>
<g style="fill:#000084; fill-opacity:0.0;  stroke:#000084; stroke-width:1702.558905; stroke-opacity:1;  stroke-linecap:round; stroke-linejoin:round;">
<g transform="rotate(-90.000000 1153012.007094 587418.831518)">
<text x="1153012.007094" y="592739.328097" transform="scale(-1 1) translate(-2306024.014188 0)" textLength="18700.268558" font-size="14187.976691" lengthAdjust="spacingAndGlyphs" text-anchor="middle" opacity="0.01" style="font-family:monospace">R1</text>
</g>
<g class="stroked-text"><desc>R1</desc>
<path d="M1157825 585645 L1152758 582098 "/>
<path d="M1157825 579564 L1147184 579564 L1147184 583618 L1147691 584631 L1148198 585138 L1149211 585645 L1150731 585645 L1151745 585138 L1152251 584631 L1152758 583618 L1152758 579564 "/>
<path d="M1157825 595779 L1157825 589699 "/>
<path d="M1157825 592739 L1147184 592739 L1148704 591725 L1149718 590712 L1150225 589699 "/>
</g></g>
<g style="fill:#000084; fill-opacity:0.01;  stroke:#000084; stroke-width:3192.297948; stroke-opacity:1;  stroke-linecap:round; stroke-linejoin:round;">
<text x="1448831.616924" y="1288660.280720" transform="scale(-1 1) translate(-2897663.233848 0)" textLength="280533.057005" font-size="28375.974664" lengthAdjust="spacingAndGlyphs" text-anchor="middle" opacity="0.01" style="font-family:monospace">Conn_01x04_Male</text>
<g class="stroked-text"><desc>Conn_01x04_Male</desc>
<path d="M1572976 1285619 L1573989 1286633 L1577030 1287646 L1579057 1287646 L1582097 1286633 L1584124 1284606 L1585137 1282579 L1586151 1278525 L1586151 1275485 L1585137 1271432 L1584124 1269405 L1582097 1267378 L1579057 1266364 L1577030 1266364 L1573989 1267378 L1572976 1268391 "/>
<path d="M1560815 1287646 L1562842 1286633 L1563855 1285619 L1564869 1283593 L1564869 1277512 L1563855 1275485 L1562842 1274472 L1560815 1273458 L1557775 1273458 L1555748 1274472 L1554734 1275485 L1553721 1277512 L1553721 1283593 L1554734 1285619 L1555748 1286633 L1557775 1287646 L1560815 1287646 "/>
<path d="M1544600 1273458 L1544600 1287646 "/>
<path d="M1544600 1275485 L1543587 1274472 L1541560 1273458 L1538519 1273458 L1536493 1274472 L1535479 1276499 L1535479 1287646 "/>
<path d="M1525345 1273458 L1525345 1287646 "/>
<path d="M1525345 1275485 L1524331 1274472 L1522305 1273458 L1519264 1273458 L1517237 1274472 L1516224 1276499 L1516224 1287646 "/>
<path d="M1511157 1289673 L1494942 1289673 "/>
<path d="M1485821 1266364 L1483794 1266364 L1481768 1267378 L1480754 1268391 L1479741 1270418 L1478727 1274472 L1478727 1279539 L1479741 1283593 L1480754 1285619 L1481768 1286633 L1483794 1287646 L1485821 1287646 L1487848 1286633 L1488862 1285619 L1489875 1283593 L1490888 1279539 L1490888 1274472 L1489875 1270418 L1488862 1268391 L1487848 1267378 L1485821 1266364 "/>
<path d="M1458459 1287646 L1470620 1287646 "/>
<path d="M1464539 1287646 L1464539 1266364 L1466566 1269405 L1468593 1271432 L1470620 1272445 "/>
<path d="M1451365 1287646 L1440217 1273458 "/>
<path d="M1451365 1273458 L1440217 1287646 "/>
<path d="M1428056 1266364 L1426029 1266364 L1424002 1267378 L1422989 1268391 L1421975 1270418 L1420962 1274472 L1420962 1279539 L1421975 1283593 L1422989 1285619 L1424002 1286633 L1426029 1287646 L1428056 1287646 L1430083 1286633 L1431096 1285619 L1432110 1283593 L1433123 1279539 L1433123 1274472 L1432110 1270418 L1431096 1268391 L1430083 1267378 L1428056 1266364 "/>
<path d="M1402720 1273458 L1402720 1287646 "/>
<path d="M1407787 1265351 L1412854 1280552 L1399680 1280552 "/>
<path d="M1396640 1289673 L1380425 1289673 "/>
<path d="M1375358 1287646 L1375358 1266364 L1368264 1281566 L1361170 1266364 L1361170 1287646 "/>
<path d="M1341914 1287646 L1341914 1276499 L1342928 1274472 L1344955 1273458 L1349008 1273458 L1351035 1274472 "/>
<path d="M1341914 1286633 L1343941 1287646 L1349008 1287646 L1351035 1286633 L1352049 1284606 L1352049 1282579 L1351035 1280552 L1349008 1279539 L1343941 1279539 L1341914 1278525 "/>
<path d="M1328740 1287646 L1330767 1286633 L1331780 1284606 L1331780 1266364 "/>
<path d="M1312525 1286633 L1314552 1287646 L1318606 1287646 L1320632 1286633 L1321646 1284606 L1321646 1276499 L1320632 1274472 L1318606 1273458 L1314552 1273458 L1312525 1274472 L1311512 1276499 L1311512 1278525 L1321646 1280552 "/>
</g><text x="1448831.616924" y="1165224.760071" transform="scale(-1 1) translate(-2897663.233848 0)" textLength="32333.423866" font-size="28375.974664" lengthAdjust="spacingAndGlyphs" text-anchor="middle" opacity="0.01" style="font-family:monospace">J1</text>
<g class="stroked-text"><desc>J1</desc>
<path d="M1455925 1142929 L1455925 1158130 L1456939 1161171 L1458965 1163197 L1462006 1164211 L1464033 1164211 "/>
<path d="M1434643 1164211 L1446804 1164211 "/>
<path d="M1440724 1164211 L1440724 1142929 L1442751 1145969 L1444777 1147996 L1446804 1149009 "/>
</g></g>
<g style="fill:#000084; fill-opacity:0.0;  stroke:#000084; stroke-width:1702.558905; stroke-opacity:1;  stroke-linecap:round; stroke-linejoin:round;">
<g transform="rotate(-90.000000 1723369.240436 649136.591842)">
<text x="1723369.240436" y="654457.088422" transform="scale(-1 1) translate(-3446738.480872 0)" textLength="16625.274892" font-size="14187.976691" lengthAdjust="spacingAndGlyphs" text-anchor="middle" opacity="0.01" style="font-family:monospace">R4</text>
</g>
<g class="stroked-text"><desc>R4</desc>
<path d="M1728183 647363 L1723115 643816 "/>
<path d="M1728183 641282 L1717542 641282 L1717542 645336 L1718048 646349 L1718555 646856 L1719568 647363 L1721089 647363 L1722102 646856 L1722609 646349 L1723115 645336 L1723115 641282 "/>
<path d="M1721089 656483 L1728183 656483 "/>
<path d="M1717035 653950 L1724636 651416 L1724636 658004 "/>
</g></g>
<g style="fill:#000084; fill-opacity:0.01;  stroke:#000084; stroke-width:3192.297948; stroke-opacity:1;  stroke-linecap:round; stroke-linejoin:round;">
<text x="1389242.055232" y="391624.557385" transform="scale(-1 1) translate(-2778484.110464 0)" textLength="39337.219154" font-size="28375.974664" lengthAdjust="spacingAndGlyphs" text-anchor="middle" opacity="0.01" style="font-family:monospace">D2</text>
<g class="stroked-text"><desc>D2</desc>
<path d="M1404950 390611 L1404950 369329 L1399883 369329 L1396842 370342 L1394815 372369 L1393802 374396 L1392789 378449 L1392789 381490 L1393802 385543 L1394815 387570 L1396842 389597 L1399883 390611 L1404950 390611 "/>
<path d="M1384681 371355 L1383668 370342 L1381641 369329 L1376574 369329 L1374547 370342 L1373533 371355 L1372520 373382 L1372520 375409 L1373533 378449 L1385695 390611 L1372520 390611 "/>
</g></g>
<g style="fill:#000084; fill-opacity:0.0;  stroke:#000084; stroke-width:1702.558905; stroke-opacity:1;  stroke-linecap:round; stroke-linejoin:round;">
<g transform="rotate(-90.000000 1602061.918419 409448.220927)">
<text x="1602061.918419" y="414768.717507" transform="scale(-1 1) translate(-3204123.836838 0)" textLength="16625.274892" font-size="14187.976691" lengthAdjust="spacingAndGlyphs" text-anchor="middle" opacity="0.01" style="font-family:monospace">C8</text>
</g>
<g class="stroked-text"><desc>C8</desc>
<path d="M1605862 407674 L1606368 407168 L1606875 405647 L1606875 404634 L1606368 403114 L1605355 402100 L1604342 401594 L1602315 401087 L1600795 401087 L1598768 401594 L1597754 402100 L1596741 403114 L1596234 404634 L1596234 405647 L1596741 407168 L1597248 407674 "/>
<path d="M1600795 413755 L1600288 412741 L1599781 412235 L1598768 411728 L1598261 411728 L1597248 412235 L1596741 412741 L1596234 413755 L1596234 415782 L1596741 416795 L1597248 417302 L1598261 417808 L1598768 417808 L1599781 417302 L1600288 416795 L1600795 415782 L1600795 413755 L1601301 412741 L1601808 412235 L1602821 411728 L1604848 411728 L1605862 412235 L1606368 412741 L1606875 413755 L1606875 415782 L1606368 416795 L1605862 417302 L1604848 417808 L1602821 417808 L1601808 417302 L1601301 416795 L1600795 415782 "/>
</g><g transform="rotate(-90.000000 1312626.904484 592473.303268)">
<text x="1312626.904484" y="597793.799848" transform="scale(-1 1) translate(-2625253.808969 0)" textLength="28696.225994" font-size="14187.976691" lengthAdjust="spacingAndGlyphs" text-anchor="middle" opacity="0.01" style="font-family:monospace">R13</text>
</g>
<g class="stroked-text"><desc>R13</desc>
<path d="M1317440 585632 L1312373 582085 "/>
<path d="M1317440 579552 L1306799 579552 L1306799 583605 L1307306 584619 L1307813 585125 L1308826 585632 L1310346 585632 L1311360 585125 L1311866 584619 L1312373 583605 L1312373 579552 "/>
<path d="M1317440 595766 L1317440 589686 "/>
<path d="M1317440 592726 L1306799 592726 L1308319 591713 L1309333 590699 L1309839 589686 "/>
<path d="M1306799 599313 L1306799 605901 L1310853 602354 L1310853 603874 L1311360 604887 L1311866 605394 L1312880 605901 L1315413 605901 L1316427 605394 L1316933 604887 L1317440 603874 L1317440 600834 L1316933 599820 L1316427 599313 "/>
</g></g>
<g style="fill:#000084; fill-opacity:0.01;  stroke:#000084; stroke-width:3192.297948; stroke-opacity:1;  stroke-linecap:round; stroke-linejoin:round;">
<g transform="rotate(-90.000000 921038.356220 961981.790727)">
<text x="921038.356220" y="972622.783886" transform="scale(-1 1) translate(-1842076.712440 0)" textLength="39337.219154" font-size="28375.974664" lengthAdjust="spacingAndGlyphs" text-anchor="middle" opacity="0.01" style="font-family:monospace">D1</text>
</g>
<g class="stroked-text"><desc>D1</desc>
<path d="M930665 946273 L909383 946273 L909383 951340 L910397 954381 L912424 956407 L914451 957421 L918504 958434 L921545 958434 L925598 957421 L927625 956407 L929652 954381 L930665 951340 L930665 946273 "/>
<path d="M930665 978703 L930665 966542 "/>
<path d="M930665 972622 L909383 972622 L912424 970595 L914451 968569 L915464 966542 "/>
</g><text x="1521190.370408" y="1568518.400811" transform="scale(-1 1) translate(-3042380.740816 0)" textLength="272515.834811" font-size="28375.974664" lengthAdjust="spacingAndGlyphs" text-anchor="middle" opacity="0.01" style="font-family:monospace">MIC5504-2.5YM5</text>
<g class="stroked-text"><desc>MIC5504-2.5YM5</desc>
<path d="M1654456 1567504 L1654456 1546222 L1647362 1561424 L1640268 1546222 L1640268 1567504 "/>
<path d="M1630133 1567504 L1630133 1546222 "/>
<path d="M1607838 1565478 L1608851 1566491 L1611892 1567504 L1613919 1567504 L1616959 1566491 L1618986 1564464 L1619999 1562437 L1621013 1558384 L1621013 1555343 L1619999 1551290 L1618986 1549263 L1616959 1547236 L1613919 1546222 L1611892 1546222 L1608851 1547236 L1607838 1548249 "/>
<path d="M1588583 1546222 L1598717 1546222 L1599731 1556357 L1598717 1555343 L1596690 1554330 L1591623 1554330 L1589596 1555343 L1588583 1556357 L1587569 1558384 L1587569 1563451 L1588583 1565478 L1589596 1566491 L1591623 1567504 L1596690 1567504 L1598717 1566491 L1599731 1565478 "/>
<path d="M1568314 1546222 L1578449 1546222 L1579462 1556357 L1578449 1555343 L1576422 1554330 L1571355 1554330 L1569328 1555343 L1568314 1556357 L1567301 1558384 L1567301 1563451 L1568314 1565478 L1569328 1566491 L1571355 1567504 L1576422 1567504 L1578449 1566491 L1579462 1565478 "/>
<path d="M1554126 1546222 L1552099 1546222 L1550073 1547236 L1549059 1548249 L1548046 1550276 L1547032 1554330 L1547032 1559397 L1548046 1563451 L1549059 1565478 L1550073 1566491 L1552099 1567504 L1554126 1567504 L1556153 1566491 L1557167 1565478 L1558180 1563451 L1559193 1559397 L1559193 1554330 L1558180 1550276 L1557167 1548249 L1556153 1547236 L1554126 1546222 "/>
<path d="M1528791 1553316 L1528791 1567504 "/>
<path d="M1533858 1545209 L1538925 1560410 L1525750 1560410 "/>
<path d="M1517643 1559397 L1501428 1559397 "/>
<path d="M1492307 1548249 L1491294 1547236 L1489267 1546222 L1484200 1546222 L1482173 1547236 L1481159 1548249 L1480146 1550276 L1480146 1552303 L1481159 1555343 L1493321 1567504 L1480146 1567504 "/>
<path d="M1471025 1565478 L1470012 1566491 L1471025 1567504 L1472039 1566491 L1471025 1565478 L1471025 1567504 "/>
<path d="M1450757 1546222 L1460891 1546222 L1461904 1556357 L1460891 1555343 L1458864 1554330 L1453797 1554330 L1451770 1555343 L1450757 1556357 L1449743 1558384 L1449743 1563451 L1450757 1565478 L1451770 1566491 L1453797 1567504 L1458864 1567504 L1460891 1566491 L1461904 1565478 "/>
<path d="M1436569 1557370 L1436569 1567504 "/>
<path d="M1443663 1546222 L1436569 1557370 L1429475 1546222 "/>
<path d="M1422381 1567504 L1422381 1546222 L1415287 1561424 L1408193 1546222 L1408193 1567504 "/>
<path d="M1387924 1546222 L1398058 1546222 L1399072 1556357 L1398058 1555343 L1396032 1554330 L1390964 1554330 L1388938 1555343 L1387924 1556357 L1386911 1558384 L1386911 1563451 L1387924 1565478 L1388938 1566491 L1390964 1567504 L1396032 1567504 L1398058 1566491 L1399072 1565478 "/>
</g></g>
<g style="fill:#000084; fill-opacity:0.01;  stroke:#000084; stroke-width:1276.919179; stroke-opacity:1;  stroke-linecap:round; stroke-linejoin:round;">
<text x="1521190.370408" y="1511057.037750" transform="scale(-1 1) translate(-3042380.740816 0)" textLength="12875.601723" font-size="11350.385609" lengthAdjust="spacingAndGlyphs" text-anchor="middle" opacity="0.01" style="font-family:monospace">U2</text>
<g class="stroked-text"><desc>U2</desc>
<path d="M1527676 1502138 L1527676 1509030 L1527270 1509840 L1526865 1510246 L1526054 1510651 L1524433 1510651 L1523622 1510246 L1523217 1509840 L1522811 1509030 L1522811 1502138 "/>
<path d="M1519163 1502949 L1518758 1502544 L1517947 1502138 L1515920 1502138 L1515109 1502544 L1514704 1502949 L1514299 1503760 L1514299 1504571 L1514704 1505787 L1519568 1510651 L1514299 1510651 "/>
</g></g>
<g style="fill:#000084; fill-opacity:0.01;  stroke:#000084; stroke-width:3192.297948; stroke-opacity:1;  stroke-linecap:round; stroke-linejoin:round;">
<text x="1699959.055485" y="1516377.534330" transform="scale(-1 1) translate(-3399918.110970 0)" textLength="182783.893590" font-size="28375.974664" lengthAdjust="spacingAndGlyphs" text-anchor="middle" opacity="0.01" style="font-family:monospace">PCA9306DP</text>
<g class="stroked-text"><desc>PCA9306DP</desc>
<path d="M1787113 1515364 L1787113 1494082 L1779006 1494082 L1776979 1495095 L1775966 1496108 L1774952 1498135 L1774952 1501176 L1775966 1503202 L1776979 1504216 L1779006 1505229 L1787113 1505229 "/>
<path d="M1753670 1513337 L1754684 1514350 L1757724 1515364 L1759751 1515364 L1762791 1514350 L1764818 1512323 L1765831 1510296 L1766845 1506243 L1766845 1503202 L1765831 1499149 L1764818 1497122 L1762791 1495095 L1759751 1494082 L1757724 1494082 L1754684 1495095 L1753670 1496108 "/>
<path d="M1745563 1509283 L1735429 1509283 "/>
<path d="M1747590 1515364 L1740496 1494082 L1733402 1515364 "/>
<path d="M1725294 1515364 L1721241 1515364 L1719214 1514350 L1718200 1513337 L1716173 1510296 L1715160 1506243 L1715160 1498135 L1716173 1496108 L1717187 1495095 L1719214 1494082 L1723267 1494082 L1725294 1495095 L1726308 1496108 L1727321 1498135 L1727321 1503202 L1726308 1505229 L1725294 1506243 L1723267 1507256 L1719214 1507256 L1717187 1506243 L1716173 1505229 L1715160 1503202 "/>
<path d="M1708066 1494082 L1694891 1494082 L1701985 1502189 L1698945 1502189 L1696918 1503202 L1695905 1504216 L1694891 1506243 L1694891 1511310 L1695905 1513337 L1696918 1514350 L1698945 1515364 L1705026 1515364 L1707053 1514350 L1708066 1513337 "/>
<path d="M1681717 1494082 L1679690 1494082 L1677663 1495095 L1676650 1496108 L1675636 1498135 L1674623 1502189 L1674623 1507256 L1675636 1511310 L1676650 1513337 L1677663 1514350 L1679690 1515364 L1681717 1515364 L1683744 1514350 L1684757 1513337 L1685771 1511310 L1686784 1507256 L1686784 1502189 L1685771 1498135 L1684757 1496108 L1683744 1495095 L1681717 1494082 "/>
<path d="M1656381 1494082 L1660435 1494082 L1662462 1495095 L1663475 1496108 L1665502 1499149 L1666515 1503202 L1666515 1511310 L1665502 1513337 L1664489 1514350 L1662462 1515364 L1658408 1515364 L1656381 1514350 L1655368 1513337 L1654354 1511310 L1654354 1506243 L1655368 1504216 L1656381 1503202 L1658408 1502189 L1662462 1502189 L1664489 1503202 L1665502 1504216 L1666515 1506243 "/>
<path d="M1645233 1515364 L1645233 1494082 L1640166 1494082 L1637126 1495095 L1635099 1497122 L1634086 1499149 L1633072 1503202 L1633072 1506243 L1634086 1510296 L1635099 1512323 L1637126 1514350 L1640166 1515364 L1645233 1515364 "/>
<path d="M1623951 1515364 L1623951 1494082 L1615844 1494082 L1613817 1495095 L1612804 1496108 L1611790 1498135 L1611790 1501176 L1612804 1503202 L1613817 1504216 L1615844 1505229 L1623951 1505229 "/>
</g><text x="1699959.055485" y="1457852.071953" transform="scale(-1 1) translate(-3399918.110970 0)" textLength="21388.396250" font-size="17025.589055" lengthAdjust="spacingAndGlyphs" text-anchor="middle" opacity="0.01" style="font-family:monospace">U5</text>
<g class="stroked-text"><desc>U5</desc>
<path d="M1709687 1444474 L1709687 1454811 L1709079 1456027 L1708471 1456635 L1707255 1457244 L1704823 1457244 L1703607 1456635 L1702999 1456027 L1702391 1454811 L1702391 1444474 "/>
<path d="M1690230 1444474 L1696310 1444474 L1696918 1450555 L1696310 1449947 L1695094 1449339 L1692054 1449339 L1690838 1449947 L1690230 1450555 L1689622 1451771 L1689622 1454811 L1690230 1456027 L1690838 1456635 L1692054 1457244 L1695094 1457244 L1696310 1456635 L1696918 1456027 "/>
</g></g>
<g style="fill:#000084; fill-opacity:0.0;  stroke:#000084; stroke-width:1702.558905; stroke-opacity:1;  stroke-linecap:round; stroke-linejoin:round;">
<g transform="rotate(-90.000000 1033832.883709 898135.831771)">
<text x="1033832.883709" y="903456.328351" transform="scale(-1 1) translate(-2067665.767418 0)" textLength="16625.274892" font-size="14187.976691" lengthAdjust="spacingAndGlyphs" text-anchor="middle" opacity="0.01" style="font-family:monospace">R7</text>
</g>
<g class="stroked-text"><desc>R7</desc>
<path d="M1038646 896362 L1033579 892815 "/>
<path d="M1038646 890281 L1028005 890281 L1028005 894335 L1028512 895348 L1029019 895855 L1030032 896362 L1031552 896362 L1032566 895855 L1033072 895348 L1033579 894335 L1033579 890281 "/>
<path d="M1028005 899909 L1028005 907003 L1038646 902442 "/>
</g><g transform="rotate(-90.000000 910397.363061 847059.064606)">
<text x="910397.363061" y="852379.561186" transform="scale(-1 1) translate(-1820794.726121 0)" textLength="28696.225994" font-size="14187.976691" lengthAdjust="spacingAndGlyphs" text-anchor="middle" opacity="0.01" style="font-family:monospace">C11</text>
</g>
<g class="stroked-text"><desc>C11</desc>
<path d="M914197 840218 L914704 839711 L915211 838191 L915211 837178 L914704 835657 L913690 834644 L912677 834137 L910650 833631 L909130 833631 L907103 834137 L906090 834644 L905076 835657 L904570 837178 L904570 838191 L905076 839711 L905583 840218 "/>
<path d="M915211 850352 L915211 844272 "/>
<path d="M915211 847312 L904570 847312 L906090 846298 L907103 845285 L907610 844272 "/>
<path d="M915211 860486 L915211 854406 "/>
<path d="M915211 857446 L904570 857446 L906090 856433 L907103 855419 L907610 854406 "/>
</g></g>
<g style="fill:#000084; fill-opacity:0.01;  stroke:#000084; stroke-width:3192.297948; stroke-opacity:1;  stroke-linecap:round; stroke-linejoin:round;">
<text x="1757420.418546" y="931122.910565" transform="scale(-1 1) translate(-3514840.837091 0)" textLength="136626.308589" font-size="28375.974664" lengthAdjust="spacingAndGlyphs" text-anchor="middle" opacity="0.01" style="font-family:monospace">TSC2007</text>
<g class="stroked-text"><desc>TSC2007</desc>
<path d="M1824813 908827 L1812652 908827 "/>
<path d="M1818732 930109 L1818732 908827 "/>
<path d="M1806571 929096 L1803531 930109 L1798464 930109 L1796437 929096 L1795423 928082 L1794410 926055 L1794410 924028 L1795423 922002 L1796437 920988 L1798464 919975 L1802517 918961 L1804544 917948 L1805558 916934 L1806571 914908 L1806571 912881 L1805558 910854 L1804544 909840 L1802517 908827 L1797450 908827 L1794410 909840 "/>
<path d="M1773128 928082 L1774141 929096 L1777182 930109 L1779209 930109 L1782249 929096 L1784276 927069 L1785289 925042 L1786303 920988 L1786303 917948 L1785289 913894 L1784276 911867 L1782249 909840 L1779209 908827 L1777182 908827 L1774141 909840 L1773128 910854 "/>
<path d="M1765021 910854 L1764007 909840 L1761980 908827 L1756913 908827 L1754886 909840 L1753873 910854 L1752859 912881 L1752859 914908 L1753873 917948 L1766034 930109 L1752859 930109 "/>
<path d="M1739685 908827 L1737658 908827 L1735631 909840 L1734618 910854 L1733604 912881 L1732591 916934 L1732591 922002 L1733604 926055 L1734618 928082 L1735631 929096 L1737658 930109 L1739685 930109 L1741712 929096 L1742725 928082 L1743739 926055 L1744752 922002 L1744752 916934 L1743739 912881 L1742725 910854 L1741712 909840 L1739685 908827 "/>
<path d="M1719416 908827 L1717390 908827 L1715363 909840 L1714349 910854 L1713336 912881 L1712322 916934 L1712322 922002 L1713336 926055 L1714349 928082 L1715363 929096 L1717390 930109 L1719416 930109 L1721443 929096 L1722457 928082 L1723470 926055 L1724483 922002 L1724483 916934 L1723470 912881 L1722457 910854 L1721443 909840 L1719416 908827 "/>
<path d="M1705228 908827 L1691040 908827 L1700161 930109 "/>
</g><text x="1757420.418546" y="1004545.763365" transform="scale(-1 1) translate(-3514840.837091 0)" textLength="38413.985305" font-size="28375.974664" lengthAdjust="spacingAndGlyphs" text-anchor="middle" opacity="0.01" style="font-family:monospace">U4</text>
<g class="stroked-text"><desc>U4</desc>
<path d="M1773635 982250 L1773635 999478 L1772621 1001505 L1771608 1002518 L1769581 1003532 L1765527 1003532 L1763500 1002518 L1762487 1001505 L1761474 999478 L1761474 982250 "/>
<path d="M1742218 989344 L1742218 1003532 "/>
<path d="M1747286 981236 L1752353 996438 L1739178 996438 "/>
</g></g>
<g style="fill:#000084; fill-opacity:0.0;  stroke:#000084; stroke-width:1702.558905; stroke-opacity:1;  stroke-linecap:round; stroke-linejoin:round;">
<g transform="rotate(-90.000000 1022127.791234 293461.395490)">
<text x="1022127.791234" y="298781.892070" transform="scale(-1 1) translate(-2044255.582468 0)" textLength="16625.274892" font-size="14187.976691" lengthAdjust="spacingAndGlyphs" text-anchor="middle" opacity="0.01" style="font-family:monospace">R6</text>
</g>
<g class="stroked-text"><desc>R6</desc>
<path d="M1026941 291687 L1021874 288140 "/>
<path d="M1026941 285607 L1016300 285607 L1016300 289661 L1016807 290674 L1017313 291181 L1018327 291687 L1019847 291687 L1020861 291181 L1021367 290674 L1021874 289661 L1021874 285607 "/>
<path d="M1016300 300808 L1016300 298781 L1016807 297768 L1017313 297261 L1018834 296248 L1020861 295741 L1024914 295741 L1025928 296248 L1026434 296755 L1026941 297768 L1026941 299795 L1026434 300808 L1025928 301315 L1024914 301822 L1022381 301822 L1021367 301315 L1020861 300808 L1020354 299795 L1020354 297768 L1020861 296755 L1021367 296248 L1022381 295741 "/>
</g><g transform="rotate(-90.000000 1814881.781606 648338.517355)">
<text x="1814881.781606" y="653659.013935" transform="scale(-1 1) translate(-3629763.563213 0)" textLength="18561.935647" font-size="14187.976691" lengthAdjust="spacingAndGlyphs" text-anchor="middle" opacity="0.01" style="font-family:monospace">R2</text>
</g>
<g class="stroked-text"><desc>R2</desc>
<path d="M1819695 646565 L1814628 643018 "/>
<path d="M1819695 640484 L1809054 640484 L1809054 644538 L1809561 645551 L1810067 646058 L1811081 646565 L1812601 646565 L1813614 646058 L1814121 645551 L1814628 644538 L1814628 640484 "/>
<path d="M1810067 650618 L1809561 651125 L1809054 652138 L1809054 654672 L1809561 655685 L1810067 656192 L1811081 656699 L1812094 656699 L1813614 656192 L1819695 650112 L1819695 656699 "/>
</g></g>
<g style="fill:#000084; fill-opacity:0.01;  stroke:#000084; stroke-width:3192.297948; stroke-opacity:1;  stroke-linecap:round; stroke-linejoin:round;">
<text x="1653138.685584" y="1619595.167976" transform="scale(-1 1) translate(-3306277.371168 0)" textLength="427480.107423" font-size="28375.974664" lengthAdjust="spacingAndGlyphs" text-anchor="middle" opacity="0.01" style="font-family:monospace">SolderJumper_3_Bridged12</text>
<g class="stroked-text"><desc>SolderJumper_3_Bridged12</desc>
<path d="M1863931 1617568 L1860891 1618581 L1855824 1618581 L1853797 1617568 L1852783 1616554 L1851770 1614528 L1851770 1612501 L1852783 1610474 L1853797 1609460 L1855824 1608447 L1859877 1607434 L1861904 1606420 L1862918 1605407 L1863931 1603380 L1863931 1601353 L1862918 1599326 L1861904 1598313 L1859877 1597299 L1854810 1597299 L1851770 1598313 "/>
<path d="M1839609 1618581 L1841636 1617568 L1842649 1616554 L1843663 1614528 L1843663 1608447 L1842649 1606420 L1841636 1605407 L1839609 1604393 L1836569 1604393 L1834542 1605407 L1833528 1606420 L1832515 1608447 L1832515 1614528 L1833528 1616554 L1834542 1617568 L1836569 1618581 L1839609 1618581 "/>
<path d="M1820354 1618581 L1822381 1617568 L1823394 1615541 L1823394 1597299 "/>
<path d="M1803126 1618581 L1803126 1597299 "/>
<path d="M1803126 1617568 L1805152 1618581 L1809206 1618581 L1811233 1617568 L1812246 1616554 L1813260 1614528 L1813260 1608447 L1812246 1606420 L1811233 1605407 L1809206 1604393 L1805152 1604393 L1803126 1605407 "/>
<path d="M1784884 1617568 L1786911 1618581 L1790964 1618581 L1792991 1617568 L1794005 1615541 L1794005 1607434 L1792991 1605407 L1790964 1604393 L1786911 1604393 L1784884 1605407 L1783870 1607434 L1783870 1609460 L1794005 1611487 "/>
<path d="M1774750 1618581 L1774750 1604393 "/>
<path d="M1774750 1608447 L1773736 1606420 L1772723 1605407 L1770696 1604393 L1768669 1604393 "/>
<path d="M1755494 1597299 L1755494 1612501 L1756508 1615541 L1758535 1617568 L1761575 1618581 L1763602 1618581 "/>
<path d="M1736239 1604393 L1736239 1618581 "/>
<path d="M1745360 1604393 L1745360 1615541 L1744347 1617568 L1742320 1618581 L1739280 1618581 L1737253 1617568 L1736239 1616554 "/>
<path d="M1726105 1618581 L1726105 1604393 "/>
<path d="M1726105 1606420 L1725092 1605407 L1723065 1604393 L1720024 1604393 L1717998 1605407 L1716984 1607434 L1716984 1618581 "/>
<path d="M1716984 1607434 L1715971 1605407 L1713944 1604393 L1710904 1604393 L1708877 1605407 L1707863 1607434 L1707863 1618581 "/>
<path d="M1697729 1604393 L1697729 1625675 "/>
<path d="M1697729 1605407 L1695702 1604393 L1691648 1604393 L1689622 1605407 L1688608 1606420 L1687595 1608447 L1687595 1614528 L1688608 1616554 L1689622 1617568 L1691648 1618581 L1695702 1618581 L1697729 1617568 "/>
<path d="M1670366 1617568 L1672393 1618581 L1676447 1618581 L1678474 1617568 L1679487 1615541 L1679487 1607434 L1678474 1605407 L1676447 1604393 L1672393 1604393 L1670366 1605407 L1669353 1607434 L1669353 1609460 L1679487 1611487 "/>
<path d="M1660232 1618581 L1660232 1604393 "/>
<path d="M1660232 1608447 L1659219 1606420 L1658205 1605407 L1656178 1604393 L1654152 1604393 "/>
<path d="M1652125 1620608 L1635910 1620608 "/>
<path d="M1632870 1597299 L1619695 1597299 L1626789 1605407 L1623749 1605407 L1621722 1606420 L1620708 1607434 L1619695 1609460 L1619695 1614528 L1620708 1616554 L1621722 1617568 L1623749 1618581 L1629829 1618581 L1631856 1617568 L1632870 1616554 "/>
<path d="M1615641 1620608 L1599426 1620608 "/>
<path d="M1587265 1607434 L1584225 1608447 L1583212 1609460 L1582198 1611487 L1582198 1614528 L1583212 1616554 L1584225 1617568 L1586252 1618581 L1594359 1618581 L1594359 1597299 L1587265 1597299 L1585238 1598313 L1584225 1599326 L1583212 1601353 L1583212 1603380 L1584225 1605407 L1585238 1606420 L1587265 1607434 L1594359 1607434 "/>
<path d="M1573077 1618581 L1573077 1604393 "/>
<path d="M1573077 1608447 L1572064 1606420 L1571051 1605407 L1569024 1604393 L1566997 1604393 "/>
<path d="M1559903 1618581 L1559903 1604393 "/>
<path d="M1559903 1597299 L1560916 1598313 L1559903 1599326 L1558889 1598313 L1559903 1597299 L1559903 1599326 "/>
<path d="M1540648 1618581 L1540648 1597299 "/>
<path d="M1540648 1617568 L1542675 1618581 L1546728 1618581 L1548755 1617568 L1549769 1616554 L1550782 1614528 L1550782 1608447 L1549769 1606420 L1548755 1605407 L1546728 1604393 L1542675 1604393 L1540648 1605407 "/>
<path d="M1521393 1604393 L1521393 1621622 L1522406 1623648 L1523419 1624662 L1525446 1625675 L1528487 1625675 L1530513 1624662 "/>
<path d="M1521393 1617568 L1523419 1618581 L1527473 1618581 L1529500 1617568 L1530513 1616554 L1531527 1614528 L1531527 1608447 L1530513 1606420 L1529500 1605407 L1527473 1604393 L1523419 1604393 L1521393 1605407 "/>
<path d="M1503151 1617568 L1505178 1618581 L1509231 1618581 L1511258 1617568 L1512272 1615541 L1512272 1607434 L1511258 1605407 L1509231 1604393 L1505178 1604393 L1503151 1605407 L1502137 1607434 L1502137 1609460 L1512272 1611487 "/>
<path d="M1483896 1618581 L1483896 1597299 "/>
<path d="M1483896 1617568 L1485923 1618581 L1489976 1618581 L1492003 1617568 L1493017 1616554 L1494030 1614528 L1494030 1608447 L1493017 1606420 L1492003 1605407 L1489976 1604393 L1485923 1604393 L1483896 1605407 "/>
<path d="M1462614 1618581 L1474775 1618581 "/>
<path d="M1468694 1618581 L1468694 1597299 L1470721 1600340 L1472748 1602366 L1474775 1603380 "/>
<path d="M1454506 1599326 L1453493 1598313 L1451466 1597299 L1446399 1597299 L1444372 1598313 L1443359 1599326 L1442345 1601353 L1442345 1603380 L1443359 1606420 L1455520 1618581 L1442345 1618581 "/>
</g></g>
<g style="fill:#000084; fill-opacity:0.0;  stroke:#000084; stroke-width:1702.558905; stroke-opacity:1;  stroke-linecap:round; stroke-linejoin:round;">
<g transform="rotate(-90.000000 1074268.657715 586088.707373)">
<text x="1074268.657715" y="591409.203952" transform="scale(-1 1) translate(-2148537.315429 0)" textLength="16625.274892" font-size="14187.976691" lengthAdjust="spacingAndGlyphs" text-anchor="middle" opacity="0.01" style="font-family:monospace">C2</text>
</g>
<g class="stroked-text"><desc>C2</desc>
<path d="M1078069 584315 L1078575 583808 L1079082 582288 L1079082 581274 L1078575 579754 L1077562 578741 L1076548 578234 L1074521 577727 L1073001 577727 L1070975 578234 L1069961 578741 L1068948 579754 L1068441 581274 L1068441 582288 L1068948 583808 L1069454 584315 "/>
<path d="M1069454 588368 L1068948 588875 L1068441 589889 L1068441 592422 L1068948 593436 L1069454 593942 L1070468 594449 L1071481 594449 L1073001 593942 L1079082 587862 L1079082 594449 "/>
</g><g transform="rotate(-90.000000 1531831.363567 594601.501900)">
<text x="1531831.363567" y="599921.998480" transform="scale(-1 1) translate(-3063662.727135 0)" textLength="28696.225994" font-size="14187.976691" lengthAdjust="spacingAndGlyphs" text-anchor="middle" opacity="0.01" style="font-family:monospace">R12</text>
</g>
<g class="stroked-text"><desc>R12</desc>
<path d="M1536645 587760 L1531578 584213 "/>
<path d="M1536645 581680 L1526004 581680 L1526004 585734 L1526510 586747 L1527017 587254 L1528030 587760 L1529551 587760 L1530564 587254 L1531071 586747 L1531578 585734 L1531578 581680 "/>
<path d="M1536645 597895 L1536645 591814 "/>
<path d="M1536645 594854 L1526004 594854 L1527524 593841 L1528537 592827 L1529044 591814 "/>
<path d="M1527017 601948 L1526510 602455 L1526004 603468 L1526004 606002 L1526510 607015 L1527017 607522 L1528030 608029 L1529044 608029 L1530564 607522 L1536645 601442 L1536645 608029 "/>
</g><g transform="rotate(-90.000000 1723369.240436 722293.419813)">
<text x="1723369.240436" y="727613.916392" transform="scale(-1 1) translate(-3446738.480872 0)" textLength="18561.935647" font-size="14187.976691" lengthAdjust="spacingAndGlyphs" text-anchor="middle" opacity="0.01" style="font-family:monospace">R5</text>
</g>
<g class="stroked-text"><desc>R5</desc>
<path d="M1728183 720519 L1723115 716972 "/>
<path d="M1728183 714439 L1717542 714439 L1717542 718493 L1718048 719506 L1718555 720013 L1719568 720519 L1721089 720519 L1722102 720013 L1722609 719506 L1723115 718493 L1723115 714439 "/>
<path d="M1717542 730147 L1717542 725080 L1722609 724573 L1722102 725080 L1721595 726093 L1721595 728627 L1722102 729640 L1722609 730147 L1723622 730654 L1726156 730654 L1727169 730147 L1727676 729640 L1728183 728627 L1728183 726093 L1727676 725080 L1727169 724573 "/>
</g><g transform="rotate(-90.000000 1033832.883709 826575.152774)">
<text x="1033832.883709" y="831895.649354" transform="scale(-1 1) translate(-2067665.767418 0)" textLength="18561.935647" font-size="14187.976691" lengthAdjust="spacingAndGlyphs" text-anchor="middle" opacity="0.01" style="font-family:monospace">R8</text>
</g>
<g class="stroked-text"><desc>R8</desc>
<path d="M1038646 824801 L1033579 821254 "/>
<path d="M1038646 818721 L1028005 818721 L1028005 822774 L1028512 823788 L1029019 824294 L1030032 824801 L1031552 824801 L1032566 824294 L1033072 823788 L1033579 822774 L1033579 818721 "/>
<path d="M1032566 830882 L1032059 829868 L1031552 829362 L1030539 828855 L1030032 828855 L1029019 829362 L1028512 829868 L1028005 830882 L1028005 832909 L1028512 833922 L1029019 834429 L1030032 834935 L1030539 834935 L1031552 834429 L1032059 833922 L1032566 832909 L1032566 830882 L1033072 829868 L1033579 829362 L1034592 828855 L1036619 828855 L1037633 829362 L1038139 829868 L1038646 830882 L1038646 832909 L1038139 833922 L1037633 834429 L1036619 834935 L1034592 834935 L1033579 834429 L1033072 833922 L1032566 832909 "/>
</g></g>
<g style="fill:#000084; fill-opacity:0.01;  stroke:#000084; stroke-width:3192.297948; stroke-opacity:1;  stroke-linecap:round; stroke-linejoin:round;">
<text x="1956406.990626" y="610403.376742" transform="scale(-1 1) translate(-3912813.981252 0)" textLength="125478.591335" font-size="28375.974664" lengthAdjust="spacingAndGlyphs" text-anchor="middle" opacity="0.01" style="font-family:monospace">C_Small</text>
<g class="stroked-text"><desc>C_Small</desc>
<path d="M2003024 607363 L2004038 608376 L2007078 609389 L2009105 609389 L2012145 608376 L2014172 606349 L2015185 604322 L2016199 600269 L2016199 597228 L2015185 593175 L2014172 591148 L2012145 589121 L2009105 588107 L2007078 588107 L2004038 589121 L2003024 590134 "/>
<path d="M1998970 611416 L1982756 611416 "/>
<path d="M1978702 608376 L1975662 609389 L1970594 609389 L1968568 608376 L1967554 607363 L1966541 605336 L1966541 603309 L1967554 601282 L1968568 600269 L1970594 599255 L1974648 598242 L1976675 597228 L1977688 596215 L1978702 594188 L1978702 592161 L1977688 590134 L1976675 589121 L1974648 588107 L1969581 588107 L1966541 589121 "/>
<path d="M1957420 609389 L1957420 595201 "/>
<path d="M1957420 597228 L1956406 596215 L1954380 595201 L1951339 595201 L1949312 596215 L1948299 598242 L1948299 609389 "/>
<path d="M1948299 598242 L1947286 596215 L1945259 595201 L1942218 595201 L1940192 596215 L1939178 598242 L1939178 609389 "/>
<path d="M1919923 609389 L1919923 598242 L1920937 596215 L1922963 595201 L1927017 595201 L1929044 596215 "/>
<path d="M1919923 608376 L1921950 609389 L1927017 609389 L1929044 608376 L1930057 606349 L1930057 604322 L1929044 602295 L1927017 601282 L1921950 601282 L1919923 600269 "/>
<path d="M1906749 609389 L1908775 608376 L1909789 606349 L1909789 588107 "/>
<path d="M1895601 609389 L1897628 608376 L1898641 606349 L1898641 588107 "/>
</g></g>
<g style="fill:#000084; fill-opacity:0.01;  stroke:#000084; stroke-width:1702.558905; stroke-opacity:1;  stroke-linecap:round; stroke-linejoin:round;">
<text x="1956406.990626" y="569329.143147" transform="scale(-1 1) translate(-3912813.981252 0)" textLength="16625.274892" font-size="14187.976691" lengthAdjust="spacingAndGlyphs" text-anchor="middle" opacity="0.01" style="font-family:monospace">C1</text>
<g class="stroked-text"><desc>C1</desc>
<path d="M1958180 567808 L1958687 568315 L1960207 568822 L1961220 568822 L1962740 568315 L1963754 567302 L1964261 566288 L1964767 564261 L1964767 562741 L1964261 560715 L1963754 559701 L1962740 558688 L1961220 558181 L1960207 558181 L1958687 558688 L1958180 559194 "/>
<path d="M1948046 568822 L1954126 568822 "/>
<path d="M1951086 568822 L1951086 558181 L1952099 559701 L1953113 560715 L1954126 561221 "/>
</g><g transform="rotate(-90.000000 1446703.418292 591675.228781)">
<text x="1446703.418292" y="596995.725361" transform="scale(-1 1) translate(-2893406.836585 0)" textLength="28696.225994" font-size="14187.976691" lengthAdjust="spacingAndGlyphs" text-anchor="middle" opacity="0.01" style="font-family:monospace">R11</text>
</g>
<g class="stroked-text"><desc>R11</desc>
<path d="M1451517 584834 L1446450 581287 "/>
<path d="M1451517 578754 L1440876 578754 L1440876 582807 L1441382 583821 L1441889 584327 L1442903 584834 L1444423 584834 L1445436 584327 L1445943 583821 L1446450 582807 L1446450 578754 "/>
<path d="M1451517 594968 L1451517 588888 "/>
<path d="M1451517 591928 L1440876 591928 L1442396 590915 L1443409 589901 L1443916 588888 "/>
<path d="M1451517 605103 L1451517 599022 "/>
<path d="M1451517 602062 L1440876 602062 L1442396 601049 L1443409 600036 L1443916 599022 "/>
</g><g transform="rotate(-90.000000 1378601.062072 592473.303268)">
<text x="1378601.062072" y="597793.799848" transform="scale(-1 1) translate(-2757202.124145 0)" textLength="28696.225994" font-size="14187.976691" lengthAdjust="spacingAndGlyphs" text-anchor="middle" opacity="0.01" style="font-family:monospace">R14</text>
</g>
<g class="stroked-text"><desc>R14</desc>
<path d="M1383414 585632 L1378347 582085 "/>
<path d="M1383414 579552 L1372773 579552 L1372773 583605 L1373280 584619 L1373787 585125 L1374800 585632 L1376320 585632 L1377334 585125 L1377840 584619 L1378347 583605 L1378347 579552 "/>
<path d="M1383414 595766 L1383414 589686 "/>
<path d="M1383414 592726 L1372773 592726 L1374293 591713 L1375307 590699 L1375814 589686 "/>
<path d="M1376320 604887 L1383414 604887 "/>
<path d="M1372267 602354 L1379867 599820 L1379867 606407 "/>
</g><g transform="rotate(-90.000000 1559497.945782 409448.220927)">
<text x="1559497.945782" y="414768.717507" transform="scale(-1 1) translate(-3118995.891563 0)" textLength="18561.935647" font-size="14187.976691" lengthAdjust="spacingAndGlyphs" text-anchor="middle" opacity="0.01" style="font-family:monospace">C9</text>
</g>
<g class="stroked-text"><desc>C9</desc>
<path d="M1563298 407674 L1563804 407168 L1564311 405647 L1564311 404634 L1563804 403114 L1562791 402100 L1561778 401594 L1559751 401087 L1558231 401087 L1556204 401594 L1555190 402100 L1554177 403114 L1553670 404634 L1553670 405647 L1554177 407168 L1554684 407674 "/>
<path d="M1564311 412741 L1564311 414768 L1563804 415782 L1563298 416288 L1561778 417302 L1559751 417808 L1555697 417808 L1554684 417302 L1554177 416795 L1553670 415782 L1553670 413755 L1554177 412741 L1554684 412235 L1555697 411728 L1558231 411728 L1559244 412235 L1559751 412741 L1560258 413755 L1560258 415782 L1559751 416795 L1559244 417302 L1558231 417808 "/>
</g></g>
<g style="fill:#000084; fill-opacity:0.01;  stroke:#000084; stroke-width:3192.297948; stroke-opacity:1;  stroke-linecap:round; stroke-linejoin:round;">
<text x="1964653.760324" y="673610.876108" transform="scale(-1 1) translate(-3929307.520649 0)" textLength="110277.166456" font-size="28375.974664" lengthAdjust="spacingAndGlyphs" text-anchor="middle" opacity="0.01" style="font-family:monospace">TLV840</text>
<g class="stroked-text"><desc>TLV840</desc>
<path d="M2018872 651315 L2006711 651315 "/>
<path d="M2012791 672597 L2012791 651315 "/>
<path d="M1989482 672597 L1999617 672597 L1999617 651315 "/>
<path d="M1985429 651315 L1978335 672597 L1971241 651315 "/>
<path d="M1961106 660436 L1963133 659422 L1964147 658409 L1965160 656382 L1965160 655369 L1964147 653342 L1963133 652328 L1961106 651315 L1957053 651315 L1955026 652328 L1954012 653342 L1952999 655369 L1952999 656382 L1954012 658409 L1955026 659422 L1957053 660436 L1961106 660436 L1963133 661449 L1964147 662463 L1965160 664490 L1965160 668543 L1964147 670570 L1963133 671584 L1961106 672597 L1957053 672597 L1955026 671584 L1954012 670570 L1952999 668543 L1952999 664490 L1954012 662463 L1955026 661449 L1957053 660436 "/>
<path d="M1934757 658409 L1934757 672597 "/>
<path d="M1939824 650302 L1944891 665503 L1931717 665503 "/>
<path d="M1919556 651315 L1917529 651315 L1915502 652328 L1914489 653342 L1913475 655369 L1912462 659422 L1912462 664490 L1913475 668543 L1914489 670570 L1915502 671584 L1917529 672597 L1919556 672597 L1921583 671584 L1922596 670570 L1923609 668543 L1924623 664490 L1924623 659422 L1923609 655369 L1922596 653342 L1921583 652328 L1919556 651315 "/>
</g></g>
<g style="fill:#000084; fill-opacity:0.01;  stroke:#000084; stroke-width:1276.919179; stroke-opacity:1;  stroke-linecap:round; stroke-linejoin:round;">
<text x="1964653.760324" y="616149.513048" transform="scale(-1 1) translate(-3929307.520649 0)" textLength="12875.601723" font-size="11350.385609" lengthAdjust="spacingAndGlyphs" text-anchor="middle" opacity="0.01" style="font-family:monospace">U1</text>
<g class="stroked-text"><desc>U1</desc>
<path d="M1971139 607231 L1971139 614122 L1970734 614933 L1970328 615338 L1969518 615744 L1967896 615744 L1967085 615338 L1966680 614933 L1966275 614122 L1966275 607231 "/>
<path d="M1957762 615744 L1962626 615744 "/>
<path d="M1960194 615744 L1960194 607231 L1961005 608447 L1961816 609258 L1962626 609663 "/>
</g></g>
<g style="fill:#000084; fill-opacity:0.0;  stroke:#000084; stroke-width:1702.558905; stroke-opacity:1;  stroke-linecap:round; stroke-linejoin:round;">
<g transform="rotate(-90.000000 961474.130225 848389.188751)">
<text x="961474.130225" y="853709.685331" transform="scale(-1 1) translate(-1922948.260451 0)" textLength="19115.267292" font-size="14187.976691" lengthAdjust="spacingAndGlyphs" text-anchor="middle" opacity="0.01" style="font-family:monospace">R9</text>
</g>
<g class="stroked-text"><desc>R9</desc>
<path d="M966287 846615 L961220 843068 "/>
<path d="M966287 840535 L955646 840535 L955646 844588 L956153 845602 L956660 846108 L957673 846615 L959193 846615 L960207 846108 L960714 845602 L961220 844588 L961220 840535 "/>
<path d="M966287 851682 L966287 853709 L965781 854723 L965274 855229 L963754 856243 L961727 856749 L957673 856749 L956660 856243 L956153 855736 L955646 854723 L955646 852696 L956153 851682 L956660 851176 L957673 850669 L960207 850669 L961220 851176 L961727 851682 L962234 852696 L962234 854723 L961727 855736 L961220 856243 L960207 856749 "/>
</g><g transform="rotate(-90.000000 910397.363061 922876.140866)">
<text x="910397.363061" y="928196.637446" transform="scale(-1 1) translate(-1820794.726121 0)" textLength="28696.225994" font-size="14187.976691" lengthAdjust="spacingAndGlyphs" text-anchor="middle" opacity="0.01" style="font-family:monospace">C10</text>
</g>
<g class="stroked-text"><desc>C10</desc>
<path d="M914197 916035 L914704 915528 L915211 914008 L915211 912995 L914704 911475 L913690 910461 L912677 909954 L910650 909448 L909130 909448 L907103 909954 L906090 910461 L905076 911475 L904570 912995 L904570 914008 L905076 915528 L905583 916035 "/>
<path d="M915211 926169 L915211 920089 "/>
<path d="M915211 923129 L904570 923129 L906090 922116 L907103 921102 L907610 920089 "/>
<path d="M904570 932757 L904570 933770 L905076 934783 L905583 935290 L906596 935797 L908623 936304 L911157 936304 L913184 935797 L914197 935290 L914704 934783 L915211 933770 L915211 932757 L914704 931743 L914197 931236 L913184 930730 L911157 930223 L908623 930223 L906596 930730 L905583 931236 L905076 931743 L904570 932757 "/>
</g><g transform="rotate(-90.000000 1240268.151001 965440.113504)">
<text x="1240268.151001" y="970760.610084" transform="scale(-1 1) translate(-2480536.302002 0)" textLength="18561.935647" font-size="14187.976691" lengthAdjust="spacingAndGlyphs" text-anchor="middle" opacity="0.01" style="font-family:monospace">C5</text>
</g>
<g class="stroked-text"><desc>C5</desc>
<path d="M1244068 963666 L1244575 963159 L1245081 961639 L1245081 960626 L1244575 959106 L1243561 958092 L1242548 957586 L1240521 957079 L1239001 957079 L1236974 957586 L1235961 958092 L1234947 959106 L1234440 960626 L1234440 961639 L1234947 963159 L1235454 963666 "/>
<path d="M1234440 973294 L1234440 968227 L1239508 967720 L1239001 968227 L1238494 969240 L1238494 971774 L1239001 972787 L1239508 973294 L1240521 973800 L1243055 973800 L1244068 973294 L1244575 972787 L1245081 971774 L1245081 969240 L1244575 968227 L1244068 967720 "/>
</g></g>
<g style="fill:#000084; fill-opacity:0.0;  stroke:#000084; stroke-width:2128.198632; stroke-opacity:1;  stroke-linecap:round; stroke-linejoin:round;">
<path d="M1199832 934315 L1072140 934315 "/>
<path d="M1199832 1062007 L1072140 1062007 "/>
<path d="M1072140 1062007 L1072140 934315 "/>
<path d="M1199832 934315 L1199832 1062007 "/>
<path d="M1244524 613755 L1270062 613755 "/>
<path d="M1270062 613755 L1270062 571191 "/>
<path d="M1270062 571191 L1244524 571191 "/>
<path d="M1244524 571191 L1244524 613755 "/>
<path d="M1827650 742777 L1827650 700213 "/>
<path d="M1802112 700213 L1802112 742777 "/>
<path d="M1827650 700213 L1802112 700213 "/>
<path d="M1802112 742777 L1827650 742777 "/>
<path d="M1133865 890822 L1195583 890822 "/>
<path d="M1143442 853366 L1195583 853366 "/>
<path d="M1133865 890822 L1133865 862942 "/>
<path d="M1195583 890822 L1195583 853366 "/>
<path d="M1143442 853366 L1133865 862942 "/>
<path d="M1165781 608700 L1165781 566136 "/>
<path d="M1140242 566136 L1140242 608700 "/>
<path d="M1165781 566136 L1140242 566136 "/>
<path d="M1140242 608700 L1165781 608700 "/>
<path d="M1553858 1193104 L1553858 1097122 "/>
<path d="M1343805 1097122 L1343805 1193104 "/>
<path d="M1553858 1097122 L1343805 1097122 "/>
<path d="M1575672 1233539 L1553858 1233539 "/>
<path d="M1321990 1252480 L1575672 1252480 "/>
<path d="M1491395 1097122 L1480754 1118404 "/>
<path d="M1321990 1233539 L1321990 1252480 "/>
<path d="M1343805 1212045 L1343805 1233539 "/>
<path d="M1321990 1212045 L1575672 1212045 "/>
<path d="M1575672 1193104 L1553858 1193104 "/>
<path d="M1575672 1252480 L1575672 1233539 "/>
<path d="M1553858 1233539 L1553858 1212045 "/>
<path d="M1575672 1212045 L1575672 1193104 "/>
<path d="M1343805 1193104 L1321990 1193104 "/>
<path d="M1321990 1193104 L1321990 1212045 "/>
<path d="M1480754 1118404 L1470113 1097122 "/>
<path d="M1343805 1233539 L1321990 1233539 "/>
<path d="M1710600 627854 L1710600 670418 "/>
<path d="M1710600 670418 L1736138 670418 "/>
<path d="M1736138 670418 L1736138 627854 "/>
<path d="M1736138 627854 L1710600 627854 "/>
<path d="M1424357 440573 L1424357 406521 "/>
<path d="M1405203 423547 L1396690 423547 "/>
<path d="M1383921 432060 L1396690 423547 "/>
<path d="M1383921 423547 L1373280 423547 "/>
<path d="M1396690 423547 L1383921 415034 "/>
<path d="M1383921 415034 L1383921 432060 "/>
<path d="M1354126 440573 L1424357 440573 "/>
<path d="M1424357 406521 L1354126 406521 "/>
<path d="M1396690 423547 L1396690 411842 "/>
<path d="M1396690 423547 L1396690 435252 "/>
<path d="M1354126 406521 L1354126 440573 "/>
<path d="M1589292 388166 L1589292 430730 "/>
<path d="M1589292 430730 L1614831 430730 "/>
<path d="M1614831 430730 L1614831 388166 "/>
<path d="M1614831 388166 L1589292 388166 "/>
<path d="M1299857 571191 L1299857 613755 "/>
<path d="M1299857 613755 L1325396 613755 "/>
<path d="M1325396 571191 L1299857 571191 "/>
<path d="M1325396 613755 L1325396 571191 "/>
<path d="M942320 1010930 L1006166 1010930 "/>
<path d="M974265 972647 L974265 993892 "/>
<path d="M1006166 913033 L942320 913033 "/>
<path d="M990211 972647 L957237 972647 "/>
<path d="M1006166 1010930 L1006166 913033 "/>
<path d="M974265 948160 L990211 972647 "/>
<path d="M974265 948160 L957237 972647 "/>
<path d="M974265 948160 L974265 928970 "/>
<path d="M942320 1010930 L942320 913033 "/>
<path d="M957237 948160 L991292 948160 "/>
<path d="M1504164 1475941 L1504164 1537659 "/>
<path d="M1504164 1537659 L1538215 1537659 "/>
<path d="M1538215 1484454 L1529703 1475941 "/>
<path d="M1538215 1537659 L1538215 1484454 "/>
<path d="M1529703 1475941 L1504164 1475941 "/>
</g>
<g style="fill:#000084; fill-opacity:0.0;  stroke:#000084; stroke-width:3192.297948; stroke-opacity:1;  stroke-linecap:round; stroke-linejoin:round;">
<path d="M1710600 1419544 L1668036 1419544 "/>
<path d="M1731882 1483390 L1731882 1440826 "/>
<path d="M1668036 1483390 L1731882 1483390 "/>
<path d="M1731882 1440826 L1710600 1419544 "/>
<path d="M1668036 1419544 L1668036 1483390 "/>
</g>
<g style="fill:#000084; fill-opacity:0.0;  stroke:#000084; stroke-width:2128.198632; stroke-opacity:1;  stroke-linecap:round; stroke-linejoin:round;">
<path d="M1046602 919417 L1046602 876853 "/>
<path d="M1021063 919417 L1046602 919417 "/>
<path d="M1021063 876853 L1021063 919417 "/>
<path d="M1046602 876853 L1021063 876853 "/>
<path d="M923166 868341 L923166 825777 "/>
<path d="M923166 825777 L897628 825777 "/>
<path d="M897628 825777 L897628 868341 "/>
<path d="M897628 868341 L923166 868341 "/>
<path d="M1731882 1047109 L1804240 1047109 "/>
<path d="M1710600 1025827 L1731882 1047109 "/>
<path d="M1804240 1047109 L1804240 940699 "/>
<path d="M1710600 940699 L1710600 1025827 "/>
<path d="M1804240 940699 L1710600 940699 "/>
<path d="M1009358 314743 L1034896 314743 "/>
<path d="M1034896 314743 L1034896 272179 "/>
<path d="M1009358 272179 L1009358 314743 "/>
<path d="M1034896 272179 L1009358 272179 "/>
<path d="M1827650 669620 L1827650 627056 "/>
<path d="M1802112 669620 L1827650 669620 "/>
<path d="M1802112 627056 L1802112 669620 "/>
<path d="M1827650 627056 L1802112 627056 "/>
<path d="M1061499 564806 L1061499 607370 "/>
<path d="M1087037 564806 L1061499 564806 "/>
<path d="M1087037 607370 L1087037 564806 "/>
<path d="M1061499 607370 L1087037 607370 "/>
<path d="M1519062 615883 L1544600 615883 "/>
<path d="M1544600 573319 L1519062 573319 "/>
<path d="M1544600 615883 L1544600 573319 "/>
<path d="M1519062 573319 L1519062 615883 "/>
<path d="M1736138 701011 L1710600 701011 "/>
<path d="M1710600 701011 L1710600 743575 "/>
<path d="M1736138 743575 L1736138 701011 "/>
<path d="M1710600 743575 L1736138 743575 "/>
<path d="M1021063 805293 L1021063 847857 "/>
<path d="M1046602 847857 L1046602 805293 "/>
<path d="M1021063 847857 L1046602 847857 "/>
<path d="M1046602 805293 L1021063 805293 "/>
<path d="M1935125 550707 L1935125 577309 "/>
<path d="M1935125 577309 L1977688 577309 "/>
<path d="M1977688 577309 L1977688 550707 "/>
<path d="M1977688 550707 L1935125 550707 "/>
<path d="M1433934 612957 L1459472 612957 "/>
<path d="M1459472 612957 L1459472 570393 "/>
<path d="M1433934 570393 L1433934 612957 "/>
<path d="M1459472 570393 L1433934 570393 "/>
<path d="M1365831 571191 L1365831 613755 "/>
<path d="M1365831 613755 L1391370 613755 "/>
<path d="M1391370 571191 L1365831 571191 "/>
<path d="M1391370 613755 L1391370 571191 "/>
<path d="M1546728 388166 L1546728 430730 "/>
<path d="M1572267 388166 L1546728 388166 "/>
<path d="M1572267 430730 L1572267 388166 "/>
<path d="M1546728 430730 L1572267 430730 "/>
<path d="M1947628 581034 L1947628 642751 "/>
<path d="M1973166 581034 L1947628 581034 "/>
<path d="M1981679 642751 L1981679 589547 "/>
<path d="M1981679 589547 L1973166 581034 "/>
<path d="M1947628 642751 L1981679 642751 "/>
<path d="M948704 869671 L974243 869671 "/>
<path d="M974243 869671 L974243 827107 "/>
<path d="M948704 827107 L948704 869671 "/>
<path d="M974243 827107 L948704 827107 "/>
<path d="M923166 944158 L923166 901594 "/>
<path d="M897628 901594 L897628 944158 "/>
<path d="M897628 944158 L923166 944158 "/>
<path d="M923166 901594 L897628 901594 "/>
<path d="M1227498 944158 L1227498 986722 "/>
<path d="M1227498 986722 L1253037 986722 "/>
<path d="M1253037 944158 L1227498 944158 "/>
<path d="M1253037 986722 L1253037 944158 "/>
<g>
</g>
<g>
</g>
<g>
</g>
<g>
</g>
<g>
</g>
<g>
</g>
<g>
</g>
<g>
</g>
<g>
</g>
<g>
</g>
<g>
</g>
<g>
</g>
<g>
</g>
<g>
</g>
<g>
</g>
<g>
</g>
<g>
</g>
<g>
</g>
<g>
</g>
<g>
</g>
<g>
</g>
<g>
</g>
<g>
</g>
<g>
</g>
<g>
</g>
<g>
</g>
<g>
</g>
<g>
</g>
<g>
</g>
<g>
</g>
<g>
</g>
<g>
</g>
<g>
</g>
<g>
</g>
<g>
</g>
<g>
</g>
<g>
</g>
<g>
</g>
<g>
</g>
<g>
</g>
<g>
</g>
<g>
</g>
<g>
</g>
<g>
</g>
</g> 
<svg:g><svg:g><svg:title>SVG Picture created as OLED01-Edge_Cuts.svg date 2023/03/05 01:48:30 </svg:title>
  <svg:desc>Picture generated by PCBNEW </svg:desc>
<svg:g style="fill:#C2C200; fill-opacity:1.000000;stroke:#C2C200; stroke-opacity:1.000000; stroke-linecap:round; stroke-linejoin:round;" transform="translate(0 0) scale(1 1)">
</svg:g>
<svg:g style="fill:#C2C200; fill-opacity:0.0;  stroke:#C2C200; stroke-width:0.000000; stroke-opacity:1;  stroke-linecap:round; stroke-linejoin:round;">
</svg:g>
<svg:g style="fill:#C2C200; fill-opacity:0.0;  stroke:#C2C200; stroke-width:1064.099316; stroke-opacity:1;  stroke-linecap:round; stroke-linejoin:round;">
<svg:path d="M804413 1714938 L2097506 1714938 "/>
<svg:path d="M2097506 1714938 L2097506 205619 "/>
<svg:path d="M2097506 205619 L804413 205619 "/>
<svg:path d="M804413 205619 L804413 1714938 "/>
<svg:g>
</svg:g>
<svg:g>
</svg:g>
<svg:g>
</svg:g>
<svg:g>
</svg:g>
<svg:g>
</svg:g>
<svg:g>
</svg:g>
<svg:g>
</svg:g>
<svg:g>
</svg:g>
<svg:g>
</svg:g>
<svg:g>
</svg:g>
<svg:g>
</svg:g>
<svg:g>
</svg:g>
<svg:g>
</svg:g>
<svg:g>
</svg:g>
<svg:g>
</svg:g>
<svg:g>
</svg:g>
<svg:g>
</svg:g>
<svg:g>
</svg:g>
<svg:g>
</svg:g>
<svg:g>
</svg:g>
<svg:g>
</svg:g>
<svg:g>
</svg:g>
<svg:g>
</svg:g>
<svg:g>
</svg:g>
<svg:g>
</svg:g>
<svg:g>
</svg:g>
<svg:g>
</svg:g>
<svg:g>
</svg:g>
<svg:g>
</svg:g>
<svg:g>
</svg:g>
<svg:g>
</svg:g>
<svg:g>
</svg:g>
<svg:g>
</svg:g>
<svg:g>
</svg:g>
<svg:g>
</svg:g>
<svg:g>
</svg:g>
<svg:g>
</svg:g>
<svg:g>
</svg:g>
<svg:g>
</svg:g>
<svg:g>
</svg:g>
<svg:g>
</svg:g>
<svg:g>
</svg:g>
<svg:g>
</svg:g>
<svg:g>
</svg:g>
</svg:g> 
</svg:g></svg:g></svg>
