<?xml version='1.0' encoding='ASCII' standalone='yes'?>
<svg xmlns:svg="http://www.w3.org/2000/svg" xmlns="http://www.w3.org/2000/svg" xmlns:xlink="http://www.w3.org/1999/xlink" version="1.1" width="29.700220cm" height="21.000720cm" viewBox="0 0 2970022 2100072">
<title>SVG Picture created as OLED01-B_Fab.svg date 2023/04/13 01:16:29 </title>
  <desc>Picture generated by PCBNEW </desc>
<g style="fill:#000084; fill-opacity:1.000000;stroke:#000084; stroke-opacity:1.000000; stroke-linecap:round; stroke-linejoin:round;" transform="translate(0 0) scale(1 1)">
</g>
<g style="fill:#000084; fill-opacity:0.0;  stroke:#000084; stroke-width:0.000000; stroke-opacity:1;  stroke-linecap:round; stroke-linejoin:round;">
</g>
<g style="fill:#000084; fill-opacity:0.0;  stroke:#000084; stroke-width:4438.495139; stroke-opacity:1;  stroke-linecap:round; stroke-linejoin:round;">
<g transform="rotate(-90.000000 1047079.470199 1102706.153304)">
<text x="1047079.470199" y="1117501.137100" transform="scale(-1 1) translate(-2094158.940397 0)" textLength="49057.355221" font-size="39453.280259" lengthAdjust="spacingAndGlyphs" text-anchor="middle" opacity="0.01" style="font-family:monospace">L1</text>
</g>
<g class="stroked-text"><desc>L1</desc>
<path d="M1060465 1097774 L1060465 1083684 L1030875 1083684 "/>
<path d="M1060465 1123137 L1060465 1106228 "/>
<path d="M1060465 1114683 L1030875 1114683 L1035102 1111864 L1037920 1109046 L1039329 1106228 "/>
</g></g>
<g style="fill:#000084; fill-opacity:0.0;  stroke:#000084; stroke-width:2367.197407; stroke-opacity:1;  stroke-linecap:round; stroke-linejoin:round;">
<g transform="rotate(-90.000000 1215742.285473 538647.396083)">
<text x="1215742.285473" y="546044.887981" transform="scale(-1 1) translate(-2431484.570945 0)" textLength="37205.863041" font-size="19726.625335" lengthAdjust="spacingAndGlyphs" text-anchor="middle" opacity="0.01" style="font-family:monospace">R10</text>
</g>
<g class="stroked-text"><desc>R10</desc>
<path d="M1222435 529136 L1215390 524204 "/>
<path d="M1222435 520682 L1207640 520682 L1207640 526318 L1208344 527727 L1209049 528431 L1210458 529136 L1212571 529136 L1213980 528431 L1214685 527727 L1215390 526318 L1215390 520682 "/>
<path d="M1222435 543226 L1222435 534772 "/>
<path d="M1222435 538999 L1207640 538999 L1209753 537590 L1211162 536181 L1211867 534772 "/>
<path d="M1207640 552385 L1207640 553794 L1208344 555203 L1209049 555908 L1210458 556612 L1213276 557317 L1216799 557317 L1219617 556612 L1221026 555908 L1221730 555203 L1222435 553794 L1222435 552385 L1221730 550976 L1221026 550272 L1219617 549567 L1216799 548862 L1213276 548862 L1210458 549567 L1209049 550272 L1208344 550976 L1207640 552385 "/>
</g><g transform="rotate(-90.000000 1990999.436382 718036.574609)">
<text x="1990999.436382" y="725434.066507" transform="scale(-1 1) translate(-3981998.872763 0)" textLength="25808.073834" font-size="19726.625335" lengthAdjust="spacingAndGlyphs" text-anchor="middle" opacity="0.01" style="font-family:monospace">R3</text>
</g>
<g class="stroked-text"><desc>R3</desc>
<path d="M1997692 715570 L1990647 710639 "/>
<path d="M1997692 707116 L1982897 707116 L1982897 712752 L1983601 714161 L1984306 714866 L1985715 715570 L1987829 715570 L1989238 714866 L1989942 714161 L1990647 712752 L1990647 707116 "/>
<path d="M1982897 720502 L1982897 729661 L1988533 724729 L1988533 726843 L1989238 728252 L1989942 728956 L1991351 729661 L1994874 729661 L1996283 728956 L1996987 728252 L1997692 726843 L1997692 722615 L1996987 721206 L1996283 720502 "/>
</g></g>
<g style="fill:#000084; fill-opacity:0.01;  stroke:#000084; stroke-width:2219.247569; stroke-opacity:1;  stroke-linecap:round; stroke-linejoin:round;">
<text x="1087036.016627" y="934823.122446" transform="scale(-1 1) translate(-2174072.033253 0)" textLength="26512.610962" font-size="19726.625335" lengthAdjust="spacingAndGlyphs" text-anchor="middle" opacity="0.01" style="font-family:monospace">U3</text>
<g class="stroked-text"><desc>U3</desc>
<path d="M1098308 919323 L1098308 931300 L1097603 932709 L1096899 933414 L1095490 934118 L1092672 934118 L1091263 933414 L1090558 932709 L1089854 931300 L1089854 919323 "/>
<path d="M1084217 919323 L1075059 919323 L1079990 924959 L1077877 924959 L1076468 925664 L1075763 926368 L1075059 927777 L1075059 931300 L1075763 932709 L1076468 933414 L1077877 934118 L1082104 934118 L1083513 933414 L1084217 932709 "/>
</g></g>
<g style="fill:#000084; fill-opacity:0.0;  stroke:#000084; stroke-width:2367.197407; stroke-opacity:1;  stroke-linecap:round; stroke-linejoin:round;">
<g transform="rotate(-90.000000 1070751.444272 531619.778780)">
<text x="1070751.444272" y="539017.270678" transform="scale(-1 1) translate(-2141502.888544 0)" textLength="26000.408623" font-size="19726.625335" lengthAdjust="spacingAndGlyphs" text-anchor="middle" opacity="0.01" style="font-family:monospace">R1</text>
</g>
<g class="stroked-text"><desc>R1</desc>
<path d="M1077444 529153 L1070399 524222 "/>
<path d="M1077444 520699 L1062649 520699 L1062649 526335 L1063353 527744 L1064058 528449 L1065467 529153 L1067581 529153 L1068990 528449 L1069694 527744 L1070399 526335 L1070399 520699 "/>
<path d="M1077444 543244 L1077444 534790 "/>
<path d="M1077444 539017 L1062649 539017 L1064762 537608 L1066172 536199 L1066876 534790 "/>
</g></g>
<g style="fill:#000084; fill-opacity:0.01;  stroke:#000084; stroke-width:4438.495139; stroke-opacity:1;  stroke-linecap:round; stroke-linejoin:round;">
<text x="1482051.993800" y="1506609.210934" transform="scale(-1 1) translate(-2964103.987600 0)" textLength="390046.490066" font-size="39453.280259" lengthAdjust="spacingAndGlyphs" text-anchor="middle" opacity="0.01" style="font-family:monospace">Conn_01x04_Male</text>
<g class="stroked-text"><desc>Conn_01x04_Male</desc>
<path d="M1654660 1502382 L1656069 1503791 L1660296 1505200 L1663114 1505200 L1667341 1503791 L1670159 1500973 L1671568 1498154 L1672977 1492518 L1672977 1488291 L1671568 1482655 L1670159 1479837 L1667341 1477019 L1663114 1475610 L1660296 1475610 L1656069 1477019 L1654660 1478428 "/>
<path d="M1637751 1505200 L1640569 1503791 L1641978 1502382 L1643387 1499563 L1643387 1491109 L1641978 1488291 L1640569 1486882 L1637751 1485473 L1633524 1485473 L1630706 1486882 L1629297 1488291 L1627888 1491109 L1627888 1499563 L1629297 1502382 L1630706 1503791 L1633524 1505200 L1637751 1505200 "/>
<path d="M1615206 1485473 L1615206 1505200 "/>
<path d="M1615206 1488291 L1613797 1486882 L1610979 1485473 L1606752 1485473 L1603934 1486882 L1602525 1489700 L1602525 1505200 "/>
<path d="M1588434 1485473 L1588434 1505200 "/>
<path d="M1588434 1488291 L1587025 1486882 L1584207 1485473 L1579980 1485473 L1577162 1486882 L1575753 1489700 L1575753 1505200 "/>
<path d="M1568708 1508018 L1546163 1508018 "/>
<path d="M1533482 1475610 L1530664 1475610 L1527845 1477019 L1526436 1478428 L1525027 1481246 L1523618 1486882 L1523618 1493927 L1525027 1499563 L1526436 1502382 L1527845 1503791 L1530664 1505200 L1533482 1505200 L1536300 1503791 L1537709 1502382 L1539118 1499563 L1540527 1493927 L1540527 1486882 L1539118 1481246 L1537709 1478428 L1536300 1477019 L1533482 1475610 "/>
<path d="M1495437 1505200 L1512346 1505200 "/>
<path d="M1503892 1505200 L1503892 1475610 L1506710 1479837 L1509528 1482655 L1512346 1484064 "/>
<path d="M1485574 1505200 L1470075 1485473 "/>
<path d="M1485574 1485473 L1470075 1505200 "/>
<path d="M1453166 1475610 L1450348 1475610 L1447530 1477019 L1446121 1478428 L1444712 1481246 L1443303 1486882 L1443303 1493927 L1444712 1499563 L1446121 1502382 L1447530 1503791 L1450348 1505200 L1453166 1505200 L1455984 1503791 L1457393 1502382 L1458802 1499563 L1460211 1493927 L1460211 1486882 L1458802 1481246 L1457393 1478428 L1455984 1477019 L1453166 1475610 "/>
<path d="M1417940 1485473 L1417940 1505200 "/>
<path d="M1424985 1474201 L1432030 1495336 L1413713 1495336 "/>
<path d="M1409486 1508018 L1386941 1508018 "/>
<path d="M1379896 1505200 L1379896 1475610 L1370032 1496745 L1360169 1475610 L1360169 1505200 "/>
<path d="M1333397 1505200 L1333397 1489700 L1334806 1486882 L1337624 1485473 L1343260 1485473 L1346079 1486882 "/>
<path d="M1333397 1503791 L1336215 1505200 L1343260 1505200 L1346079 1503791 L1347488 1500973 L1347488 1498154 L1346079 1495336 L1343260 1493927 L1336215 1493927 L1333397 1492518 "/>
<path d="M1315080 1505200 L1317898 1503791 L1319307 1500973 L1319307 1475610 "/>
<path d="M1292535 1503791 L1295353 1505200 L1300989 1505200 L1303807 1503791 L1305216 1500973 L1305216 1489700 L1303807 1486882 L1300989 1485473 L1295353 1485473 L1292535 1486882 L1291126 1489700 L1291126 1492518 L1305216 1495336 "/>
</g><text x="1482051.993800" y="1334987.398901" transform="scale(-1 1) translate(-2964103.987600 0)" textLength="44955.623503" font-size="39453.280259" lengthAdjust="spacingAndGlyphs" text-anchor="middle" opacity="0.01" style="font-family:monospace">J1</text>
<g class="stroked-text"><desc>J1</desc>
<path d="M1491915 1303988 L1491915 1325124 L1493324 1329351 L1496142 1332169 L1500369 1333578 L1503187 1333578 "/>
<path d="M1462325 1333578 L1479233 1333578 "/>
<path d="M1470779 1333578 L1470779 1303988 L1473597 1308215 L1476415 1311033 L1479233 1312442 "/>
</g></g>
<g style="fill:#000084; fill-opacity:0.0;  stroke:#000084; stroke-width:2367.197407; stroke-opacity:1;  stroke-linecap:round; stroke-linejoin:round;">
<g transform="rotate(-90.000000 1863762.575736 617430.684796)">
<text x="1863762.575736" y="624828.176694" transform="scale(-1 1) translate(-3727525.151472 0)" textLength="23115.386783" font-size="19726.625335" lengthAdjust="spacingAndGlyphs" text-anchor="middle" opacity="0.01" style="font-family:monospace">R4</text>
</g>
<g class="stroked-text"><desc>R4</desc>
<path d="M1870455 614964 L1863410 610033 "/>
<path d="M1870455 606510 L1855660 606510 L1855660 612146 L1856365 613555 L1857069 614260 L1858478 614964 L1860592 614964 L1862001 614260 L1862705 613555 L1863410 612146 L1863410 606510 "/>
<path d="M1860592 627646 L1870455 627646 "/>
<path d="M1854956 624123 L1865523 620601 L1865523 629759 "/>
</g></g>
<g style="fill:#000084; fill-opacity:0.01;  stroke:#000084; stroke-width:4438.495139; stroke-opacity:1;  stroke-linecap:round; stroke-linejoin:round;">
<text x="1399200.084543" y="259392.076934" transform="scale(-1 1) translate(-2798400.169086 0)" textLength="54693.533888" font-size="39453.280259" lengthAdjust="spacingAndGlyphs" text-anchor="middle" opacity="0.01" style="font-family:monospace">D2</text>
<g class="stroked-text"><desc>D2</desc>
<path d="M1421040 257983 L1421040 228393 L1413995 228393 L1409767 229802 L1406949 232620 L1405540 235438 L1404131 241074 L1404131 245301 L1405540 250937 L1406949 253755 L1409767 256573 L1413995 257983 L1421040 257983 "/>
<path d="M1392859 231211 L1391450 229802 L1388632 228393 L1381586 228393 L1378768 229802 L1377359 231211 L1375950 234029 L1375950 236847 L1377359 241074 L1394268 257983 L1375950 257983 "/>
</g></g>
<g style="fill:#000084; fill-opacity:0.0;  stroke:#000084; stroke-width:2367.197407; stroke-opacity:1;  stroke-linecap:round; stroke-linejoin:round;">
<g transform="rotate(-90.000000 1695099.760462 284173.674792)">
<text x="1695099.760462" y="291571.166690" transform="scale(-1 1) translate(-3390199.520924 0)" textLength="23115.386783" font-size="19726.625335" lengthAdjust="spacingAndGlyphs" text-anchor="middle" opacity="0.01" style="font-family:monospace">C8</text>
</g>
<g class="stroked-text"><desc>C8</desc>
<path d="M1700383 281707 L1701088 281003 L1701792 278889 L1701792 277480 L1701088 275367 L1699679 273958 L1698270 273253 L1695451 272549 L1693338 272549 L1690520 273253 L1689111 273958 L1687702 275367 L1686997 277480 L1686997 278889 L1687702 281003 L1688406 281707 "/>
<path d="M1693338 290162 L1692633 288753 L1691929 288048 L1690520 287344 L1689815 287344 L1688406 288048 L1687702 288753 L1686997 290162 L1686997 292980 L1687702 294389 L1688406 295093 L1689815 295798 L1690520 295798 L1691929 295093 L1692633 294389 L1693338 292980 L1693338 290162 L1694042 288753 L1694747 288048 L1696156 287344 L1698974 287344 L1700383 288048 L1701088 288753 L1701792 290162 L1701792 292980 L1701088 294389 L1700383 295093 L1698974 295798 L1696156 295798 L1694747 295093 L1694042 294389 L1693338 292980 "/>
</g><g transform="rotate(-90.000000 1292676.201212 538647.396083)">
<text x="1292676.201212" y="546044.887981" transform="scale(-1 1) translate(-2585352.402424 0)" textLength="39898.550092" font-size="19726.625335" lengthAdjust="spacingAndGlyphs" text-anchor="middle" opacity="0.01" style="font-family:monospace">R13</text>
</g>
<g class="stroked-text"><desc>R13</desc>
<path d="M1299369 529136 L1292323 524204 "/>
<path d="M1299369 520682 L1284574 520682 L1284574 526318 L1285278 527727 L1285983 528431 L1287392 529136 L1289505 529136 L1290914 528431 L1291619 527727 L1292323 526318 L1292323 520682 "/>
<path d="M1299369 543226 L1299369 534772 "/>
<path d="M1299369 538999 L1284574 538999 L1286687 537590 L1288096 536181 L1288801 534772 "/>
<path d="M1284574 548158 L1284574 557317 L1290210 552385 L1290210 554499 L1290914 555908 L1291619 556612 L1293028 557317 L1296551 557317 L1297960 556612 L1298664 555908 L1299369 554499 L1299369 550272 L1298664 548862 L1297960 548158 "/>
</g></g>
<g style="fill:#000084; fill-opacity:0.01;  stroke:#000084; stroke-width:4438.495139; stroke-opacity:1;  stroke-linecap:round; stroke-linejoin:round;">
<g transform="rotate(-90.000000 748220.797520 1052403.208398)">
<text x="748220.797520" y="1067198.192194" transform="scale(-1 1) translate(-1496441.595040 0)" textLength="54693.533888" font-size="39453.280259" lengthAdjust="spacingAndGlyphs" text-anchor="middle" opacity="0.01" style="font-family:monospace">D1</text>
</g>
<g class="stroked-text"><desc>D1</desc>
<path d="M761606 1030562 L732016 1030562 L732016 1037608 L733425 1041835 L736243 1044653 L739061 1046062 L744698 1047471 L748925 1047471 L754561 1046062 L757379 1044653 L760197 1041835 L761606 1037608 L761606 1030562 "/>
<path d="M761606 1075652 L761606 1058743 "/>
<path d="M761606 1067198 L732016 1067198 L736243 1064380 L739061 1061561 L740471 1058743 "/>
</g><text x="1582657.883613" y="1895717.284768" transform="scale(-1 1) translate(-3165315.767226 0)" textLength="378899.535015" font-size="39453.280259" lengthAdjust="spacingAndGlyphs" text-anchor="middle" opacity="0.01" style="font-family:monospace">MIC5504-2.5YM5</text>
<g class="stroked-text"><desc>MIC5504-2.5YM5</desc>
<path d="M1767947 1894308 L1767947 1864718 L1758084 1885853 L1748220 1864718 L1748220 1894308 "/>
<path d="M1734130 1894308 L1734130 1864718 "/>
<path d="M1703131 1891490 L1704540 1892899 L1708767 1894308 L1711585 1894308 L1715812 1892899 L1718630 1890081 L1720039 1887262 L1721448 1881626 L1721448 1877399 L1720039 1871763 L1718630 1868945 L1715812 1866127 L1711585 1864718 L1708767 1864718 L1704540 1866127 L1703131 1867536 "/>
<path d="M1676359 1864718 L1690449 1864718 L1691858 1878808 L1690449 1877399 L1687631 1875990 L1680586 1875990 L1677768 1877399 L1676359 1878808 L1674950 1881626 L1674950 1888672 L1676359 1891490 L1677768 1892899 L1680586 1894308 L1687631 1894308 L1690449 1892899 L1691858 1891490 "/>
<path d="M1648178 1864718 L1662268 1864718 L1663678 1878808 L1662268 1877399 L1659450 1875990 L1652405 1875990 L1649587 1877399 L1648178 1878808 L1646769 1881626 L1646769 1888672 L1648178 1891490 L1649587 1892899 L1652405 1894308 L1659450 1894308 L1662268 1892899 L1663678 1891490 "/>
<path d="M1628451 1864718 L1625633 1864718 L1622815 1866127 L1621406 1867536 L1619997 1870354 L1618588 1875990 L1618588 1883035 L1619997 1888672 L1621406 1891490 L1622815 1892899 L1625633 1894308 L1628451 1894308 L1631269 1892899 L1632679 1891490 L1634088 1888672 L1635497 1883035 L1635497 1875990 L1634088 1870354 L1632679 1867536 L1631269 1866127 L1628451 1864718 "/>
<path d="M1593225 1874581 L1593225 1894308 "/>
<path d="M1600270 1863309 L1607316 1884444 L1588998 1884444 "/>
<path d="M1577726 1883035 L1555181 1883035 "/>
<path d="M1542500 1867536 L1541091 1866127 L1538272 1864718 L1531227 1864718 L1528409 1866127 L1527000 1867536 L1525591 1870354 L1525591 1873172 L1527000 1877399 L1543909 1894308 L1525591 1894308 "/>
<path d="M1512910 1891490 L1511501 1892899 L1512910 1894308 L1514319 1892899 L1512910 1891490 L1512910 1894308 "/>
<path d="M1484729 1864718 L1498819 1864718 L1500228 1878808 L1498819 1877399 L1496001 1875990 L1488956 1875990 L1486138 1877399 L1484729 1878808 L1483320 1881626 L1483320 1888672 L1484729 1891490 L1486138 1892899 L1488956 1894308 L1496001 1894308 L1498819 1892899 L1500228 1891490 "/>
<path d="M1465002 1880217 L1465002 1894308 "/>
<path d="M1474865 1864718 L1465002 1880217 L1455139 1864718 "/>
<path d="M1445275 1894308 L1445275 1864718 L1435412 1885853 L1425549 1864718 L1425549 1894308 "/>
<path d="M1397368 1864718 L1411458 1864718 L1412867 1878808 L1411458 1877399 L1408640 1875990 L1401595 1875990 L1398777 1877399 L1397368 1878808 L1395959 1881626 L1395959 1888672 L1397368 1891490 L1398777 1892899 L1401595 1894308 L1408640 1894308 L1411458 1892899 L1412867 1891490 "/>
</g></g>
<g style="fill:#000084; fill-opacity:0.01;  stroke:#000084; stroke-width:1775.398056; stroke-opacity:1;  stroke-linecap:round; stroke-linejoin:round;">
<text x="1582657.883613" y="1815824.372270" transform="scale(-1 1) translate(-3165315.767226 0)" textLength="17901.930393" font-size="15781.306186" lengthAdjust="spacingAndGlyphs" text-anchor="middle" opacity="0.01" style="font-family:monospace">U2</text>
<g class="stroked-text"><desc>U2</desc>
<path d="M1591675 1803424 L1591675 1813006 L1591112 1814133 L1590548 1814697 L1589421 1815260 L1587166 1815260 L1586039 1814697 L1585475 1814133 L1584912 1813006 L1584912 1803424 "/>
<path d="M1579839 1804551 L1579276 1803988 L1578148 1803424 L1575330 1803424 L1574203 1803988 L1573639 1804551 L1573076 1805679 L1573076 1806806 L1573639 1808497 L1580403 1815260 L1573076 1815260 "/>
</g></g>
<g style="fill:#000084; fill-opacity:0.01;  stroke:#000084; stroke-width:4438.495139; stroke-opacity:1;  stroke-linecap:round; stroke-linejoin:round;">
<text x="1831213.611385" y="1823221.864168" transform="scale(-1 1) translate(-3662427.222770 0)" textLength="254138.378188" font-size="39453.280259" lengthAdjust="spacingAndGlyphs" text-anchor="middle" opacity="0.01" style="font-family:monospace">PCA9306DP</text>
<g class="stroked-text"><desc>PCA9306DP</desc>
<path d="M1952391 1821812 L1952391 1792222 L1941119 1792222 L1938301 1793631 L1936892 1795040 L1935483 1797859 L1935483 1802086 L1936892 1804904 L1938301 1806313 L1941119 1807722 L1952391 1807722 "/>
<path d="M1905893 1818994 L1907302 1820403 L1911529 1821812 L1914347 1821812 L1918574 1820403 L1921392 1817585 L1922801 1814767 L1924210 1809131 L1924210 1804904 L1922801 1799268 L1921392 1796449 L1918574 1793631 L1914347 1792222 L1911529 1792222 L1907302 1793631 L1905893 1795040 "/>
<path d="M1894620 1813358 L1880530 1813358 "/>
<path d="M1897438 1821812 L1887575 1792222 L1877712 1821812 "/>
<path d="M1866439 1821812 L1860803 1821812 L1857985 1820403 L1856576 1818994 L1853758 1814767 L1852349 1809131 L1852349 1797859 L1853758 1795040 L1855167 1793631 L1857985 1792222 L1863621 1792222 L1866439 1793631 L1867848 1795040 L1869257 1797859 L1869257 1804904 L1867848 1807722 L1866439 1809131 L1863621 1810540 L1857985 1810540 L1855167 1809131 L1853758 1807722 L1852349 1804904 "/>
<path d="M1842485 1792222 L1824168 1792222 L1834031 1803495 L1829804 1803495 L1826986 1804904 L1825577 1806313 L1824168 1809131 L1824168 1816176 L1825577 1818994 L1826986 1820403 L1829804 1821812 L1838258 1821812 L1841076 1820403 L1842485 1818994 "/>
<path d="M1805850 1792222 L1803032 1792222 L1800214 1793631 L1798805 1795040 L1797396 1797859 L1795987 1803495 L1795987 1810540 L1797396 1816176 L1798805 1818994 L1800214 1820403 L1803032 1821812 L1805850 1821812 L1808668 1820403 L1810077 1818994 L1811486 1816176 L1812896 1810540 L1812896 1803495 L1811486 1797859 L1810077 1795040 L1808668 1793631 L1805850 1792222 "/>
<path d="M1770624 1792222 L1776260 1792222 L1779078 1793631 L1780487 1795040 L1783306 1799268 L1784715 1804904 L1784715 1816176 L1783306 1818994 L1781896 1820403 L1779078 1821812 L1773442 1821812 L1770624 1820403 L1769215 1818994 L1767806 1816176 L1767806 1809131 L1769215 1806313 L1770624 1804904 L1773442 1803495 L1779078 1803495 L1781896 1804904 L1783306 1806313 L1784715 1809131 "/>
<path d="M1755125 1821812 L1755125 1792222 L1748079 1792222 L1743852 1793631 L1741034 1796449 L1739625 1799268 L1738216 1804904 L1738216 1809131 L1739625 1814767 L1741034 1817585 L1743852 1820403 L1748079 1821812 L1755125 1821812 "/>
<path d="M1725535 1821812 L1725535 1792222 L1714262 1792222 L1711444 1793631 L1710035 1795040 L1708626 1797859 L1708626 1802086 L1710035 1804904 L1711444 1806313 L1714262 1807722 L1725535 1807722 "/>
</g><text x="1831213.611385" y="1741849.453290" transform="scale(-1 1) translate(-3662427.222770 0)" textLength="29737.917430" font-size="23671.974074" lengthAdjust="spacingAndGlyphs" text-anchor="middle" opacity="0.01" style="font-family:monospace">U5</text>
<g class="stroked-text"><desc>U5</desc>
<path d="M1844740 1723250 L1844740 1737622 L1843895 1739313 L1843049 1740158 L1841358 1741004 L1837977 1741004 L1836286 1740158 L1835440 1739313 L1834595 1737622 L1834595 1723250 "/>
<path d="M1817686 1723250 L1826141 1723250 L1826986 1731704 L1826141 1730858 L1824450 1730013 L1820223 1730013 L1818532 1730858 L1817686 1731704 L1816841 1733395 L1816841 1737622 L1817686 1739313 L1818532 1740158 L1820223 1741004 L1824450 1741004 L1826141 1740158 L1826986 1739313 "/>
</g></g>
<g style="fill:#000084; fill-opacity:0.0;  stroke:#000084; stroke-width:2367.197407; stroke-opacity:1;  stroke-linecap:round; stroke-linejoin:round;">
<g transform="rotate(-90.000000 905047.625757 963633.305622)">
<text x="905047.625757" y="971030.797520" transform="scale(-1 1) translate(-1810095.251515 0)" textLength="23115.386783" font-size="19726.625335" lengthAdjust="spacingAndGlyphs" text-anchor="middle" opacity="0.01" style="font-family:monospace">R7</text>
</g>
<g class="stroked-text"><desc>R7</desc>
<path d="M911740 961167 L904695 956235 "/>
<path d="M911740 952713 L896945 952713 L896945 958349 L897650 959758 L898354 960462 L899763 961167 L901877 961167 L903286 960462 L903990 959758 L904695 958349 L904695 952713 "/>
<path d="M896945 966099 L896945 975962 L911740 969621 "/>
</g><g transform="rotate(-90.000000 733425.813724 892617.383401)">
<text x="733425.813724" y="900014.875299" transform="scale(-1 1) translate(-1466851.627448 0)" textLength="39898.550092" font-size="19726.625335" lengthAdjust="spacingAndGlyphs" text-anchor="middle" opacity="0.01" style="font-family:monospace">C11</text>
</g>
<g class="stroked-text"><desc>C11</desc>
<path d="M738709 883106 L739414 882401 L740118 880288 L740118 878879 L739414 876765 L738005 875356 L736596 874652 L733778 873947 L731664 873947 L728846 874652 L727437 875356 L726028 876765 L725323 878879 L725323 880288 L726028 882401 L726732 883106 "/>
<path d="M740118 897196 L740118 888742 "/>
<path d="M740118 892969 L725323 892969 L727437 891560 L728846 890151 L729550 888742 "/>
<path d="M740118 911287 L740118 902832 "/>
<path d="M740118 907060 L725323 907060 L727437 905651 L728846 904242 L729550 902832 "/>
</g></g>
<g style="fill:#000084; fill-opacity:0.01;  stroke:#000084; stroke-width:4438.495139; stroke-opacity:1;  stroke-linecap:round; stroke-linejoin:round;">
<text x="1911106.523883" y="1009497.755390" transform="scale(-1 1) translate(-3822213.047767 0)" textLength="189961.969846" font-size="39453.280259" lengthAdjust="spacingAndGlyphs" text-anchor="middle" opacity="0.01" style="font-family:monospace">TSC2007</text>
<g class="stroked-text"><desc>TSC2007</desc>
<path d="M2004808 978498 L1987899 978498 "/>
<path d="M1996353 1008088 L1996353 978498 "/>
<path d="M1979445 1006679 L1975218 1008088 L1968172 1008088 L1965354 1006679 L1963945 1005270 L1962536 1002452 L1962536 999634 L1963945 996816 L1965354 995407 L1968172 993998 L1973809 992589 L1976627 991180 L1978036 989771 L1979445 986953 L1979445 984134 L1978036 981316 L1976627 979907 L1973809 978498 L1966763 978498 L1962536 979907 "/>
<path d="M1932946 1005270 L1934355 1006679 L1938582 1008088 L1941400 1008088 L1945628 1006679 L1948446 1003861 L1949855 1001043 L1951264 995407 L1951264 991180 L1949855 985543 L1948446 982725 L1945628 979907 L1941400 978498 L1938582 978498 L1934355 979907 L1932946 981316 "/>
<path d="M1921674 981316 L1920265 979907 L1917447 978498 L1910401 978498 L1907583 979907 L1906174 981316 L1904765 984134 L1904765 986953 L1906174 991180 L1923083 1008088 L1904765 1008088 "/>
<path d="M1886448 978498 L1883630 978498 L1880812 979907 L1879402 981316 L1877993 984134 L1876584 989771 L1876584 996816 L1877993 1002452 L1879402 1005270 L1880812 1006679 L1883630 1008088 L1886448 1008088 L1889266 1006679 L1890675 1005270 L1892084 1002452 L1893493 996816 L1893493 989771 L1892084 984134 L1890675 981316 L1889266 979907 L1886448 978498 "/>
<path d="M1858267 978498 L1855449 978498 L1852631 979907 L1851222 981316 L1849813 984134 L1848403 989771 L1848403 996816 L1849813 1002452 L1851222 1005270 L1852631 1006679 L1855449 1008088 L1858267 1008088 L1861085 1006679 L1862494 1005270 L1863903 1002452 L1865312 996816 L1865312 989771 L1863903 984134 L1862494 981316 L1861085 979907 L1858267 978498 "/>
<path d="M1838540 978498 L1818813 978498 L1831495 1008088 "/>
</g><text x="1911106.523883" y="1111583.143582" transform="scale(-1 1) translate(-3822213.047767 0)" textLength="53409.891503" font-size="39453.280259" lengthAdjust="spacingAndGlyphs" text-anchor="middle" opacity="0.01" style="font-family:monospace">U4</text>
<g class="stroked-text"><desc>U4</desc>
<path d="M1933651 1080584 L1933651 1104537 L1932242 1107355 L1930833 1108765 L1928015 1110174 L1922378 1110174 L1919560 1108765 L1918151 1107355 L1916742 1104537 L1916742 1080584 "/>
<path d="M1889970 1090447 L1889970 1110174 "/>
<path d="M1897016 1079175 L1904061 1100310 L1885743 1100310 "/>
</g></g>
<g style="fill:#000084; fill-opacity:0.0;  stroke:#000084; stroke-width:2367.197407; stroke-opacity:1;  stroke-linecap:round; stroke-linejoin:round;">
<g transform="rotate(-90.000000 888773.143582 122908.351416)">
<text x="888773.143582" y="130305.843314" transform="scale(-1 1) translate(-1777546.287164 0)" textLength="23115.386783" font-size="19726.625335" lengthAdjust="spacingAndGlyphs" text-anchor="middle" opacity="0.01" style="font-family:monospace">R6</text>
</g>
<g class="stroked-text"><desc>R6</desc>
<path d="M895466 120442 L888420 115510 "/>
<path d="M895466 111988 L880671 111988 L880671 117624 L881375 119033 L882080 119737 L883489 120442 L885602 120442 L887011 119737 L887716 119033 L888420 117624 L888420 111988 "/>
<path d="M880671 133123 L880671 130305 L881375 128896 L882080 128192 L884193 126783 L887011 126078 L892648 126078 L894057 126783 L894761 127487 L895466 128896 L895466 131714 L894761 133123 L894057 133828 L892648 134532 L889125 134532 L887716 133828 L887011 133123 L886307 131714 L886307 128896 L887011 127487 L887716 126783 L889125 126078 "/>
</g><g transform="rotate(-90.000000 1990999.436382 616321.061012)">
<text x="1990999.436382" y="623718.552910" transform="scale(-1 1) translate(-3981998.872763 0)" textLength="25808.073834" font-size="19726.625335" lengthAdjust="spacingAndGlyphs" text-anchor="middle" opacity="0.01" style="font-family:monospace">R2</text>
</g>
<g class="stroked-text"><desc>R2</desc>
<path d="M1997692 613855 L1990647 608923 "/>
<path d="M1997692 605400 L1982897 605400 L1982897 611037 L1983601 612446 L1984306 613150 L1985715 613855 L1987829 613855 L1989238 613150 L1989942 612446 L1990647 611037 L1990647 605400 "/>
<path d="M1984306 619491 L1983601 620195 L1982897 621604 L1982897 625127 L1983601 626536 L1984306 627241 L1985715 627945 L1987124 627945 L1989238 627241 L1997692 618786 L1997692 627945 "/>
</g></g>
<g style="fill:#000084; fill-opacity:0.01;  stroke:#000084; stroke-width:4438.495139; stroke-opacity:1;  stroke-linecap:round; stroke-linejoin:round;">
<text x="1766115.682683" y="1966733.206989" transform="scale(-1 1) translate(-3532231.365366 0)" textLength="594358.173876" font-size="39453.280259" lengthAdjust="spacingAndGlyphs" text-anchor="middle" opacity="0.01" style="font-family:monospace">SolderJumper_3_Bridged12</text>
<g class="stroked-text"><desc>SolderJumper_3_Bridged12</desc>
<path d="M2059197 1963915 L2054970 1965324 L2047924 1965324 L2045106 1963915 L2043697 1962506 L2042288 1959687 L2042288 1956869 L2043697 1954051 L2045106 1952642 L2047924 1951233 L2053561 1949824 L2056379 1948415 L2057788 1947006 L2059197 1944188 L2059197 1941370 L2057788 1938552 L2056379 1937143 L2053561 1935734 L2046515 1935734 L2042288 1937143 "/>
<path d="M2025380 1965324 L2028198 1963915 L2029607 1962506 L2031016 1959687 L2031016 1951233 L2029607 1948415 L2028198 1947006 L2025380 1945597 L2021153 1945597 L2018334 1947006 L2016925 1948415 L2015516 1951233 L2015516 1959687 L2016925 1962506 L2018334 1963915 L2021153 1965324 L2025380 1965324 "/>
<path d="M1998608 1965324 L2001426 1963915 L2002835 1961096 L2002835 1935734 "/>
<path d="M1974654 1965324 L1974654 1935734 "/>
<path d="M1974654 1963915 L1977472 1965324 L1983108 1965324 L1985926 1963915 L1987335 1962506 L1988744 1959687 L1988744 1951233 L1987335 1948415 L1985926 1947006 L1983108 1945597 L1977472 1945597 L1974654 1947006 "/>
<path d="M1949291 1963915 L1952109 1965324 L1957745 1965324 L1960564 1963915 L1961973 1961096 L1961973 1949824 L1960564 1947006 L1957745 1945597 L1952109 1945597 L1949291 1947006 L1947882 1949824 L1947882 1952642 L1961973 1955460 "/>
<path d="M1935201 1965324 L1935201 1945597 "/>
<path d="M1935201 1951233 L1933792 1948415 L1932383 1947006 L1929565 1945597 L1926746 1945597 "/>
<path d="M1908429 1935734 L1908429 1956869 L1909838 1961096 L1912656 1963915 L1916883 1965324 L1919701 1965324 "/>
<path d="M1881657 1945597 L1881657 1965324 "/>
<path d="M1894338 1945597 L1894338 1961096 L1892929 1963915 L1890111 1965324 L1885884 1965324 L1883066 1963915 L1881657 1962506 "/>
<path d="M1867566 1965324 L1867566 1945597 "/>
<path d="M1867566 1948415 L1866157 1947006 L1863339 1945597 L1859112 1945597 L1856294 1947006 L1854885 1949824 L1854885 1965324 "/>
<path d="M1854885 1949824 L1853476 1947006 L1850658 1945597 L1846431 1945597 L1843613 1947006 L1842204 1949824 L1842204 1965324 "/>
<path d="M1828113 1945597 L1828113 1975187 "/>
<path d="M1828113 1947006 L1825295 1945597 L1819659 1945597 L1816841 1947006 L1815432 1948415 L1814023 1951233 L1814023 1959687 L1815432 1962506 L1816841 1963915 L1819659 1965324 L1825295 1965324 L1828113 1963915 "/>
<path d="M1790069 1963915 L1792887 1965324 L1798523 1965324 L1801341 1963915 L1802750 1961096 L1802750 1949824 L1801341 1947006 L1798523 1945597 L1792887 1945597 L1790069 1947006 L1788660 1949824 L1788660 1952642 L1802750 1955460 "/>
<path d="M1775978 1965324 L1775978 1945597 "/>
<path d="M1775978 1951233 L1774569 1948415 L1773160 1947006 L1770342 1945597 L1767524 1945597 "/>
<path d="M1764706 1968142 L1742161 1968142 "/>
<path d="M1737934 1935734 L1719617 1935734 L1729480 1947006 L1725253 1947006 L1722435 1948415 L1721026 1949824 L1719617 1952642 L1719617 1959687 L1721026 1962506 L1722435 1963915 L1725253 1965324 L1733707 1965324 L1736525 1963915 L1737934 1962506 "/>
<path d="M1713980 1968142 L1691436 1968142 "/>
<path d="M1674527 1949824 L1670300 1951233 L1668891 1952642 L1667482 1955460 L1667482 1959687 L1668891 1962506 L1670300 1963915 L1673118 1965324 L1684391 1965324 L1684391 1935734 L1674527 1935734 L1671709 1937143 L1670300 1938552 L1668891 1941370 L1668891 1944188 L1670300 1947006 L1671709 1948415 L1674527 1949824 L1684391 1949824 "/>
<path d="M1654801 1965324 L1654801 1945597 "/>
<path d="M1654801 1951233 L1653391 1948415 L1651982 1947006 L1649164 1945597 L1646346 1945597 "/>
<path d="M1636483 1965324 L1636483 1945597 "/>
<path d="M1636483 1935734 L1637892 1937143 L1636483 1938552 L1635074 1937143 L1636483 1935734 L1636483 1938552 "/>
<path d="M1609711 1965324 L1609711 1935734 "/>
<path d="M1609711 1963915 L1612529 1965324 L1618165 1965324 L1620983 1963915 L1622392 1962506 L1623802 1959687 L1623802 1951233 L1622392 1948415 L1620983 1947006 L1618165 1945597 L1612529 1945597 L1609711 1947006 "/>
<path d="M1582939 1945597 L1582939 1969551 L1584348 1972369 L1585757 1973778 L1588575 1975187 L1592803 1975187 L1595621 1973778 "/>
<path d="M1582939 1963915 L1585757 1965324 L1591393 1965324 L1594212 1963915 L1595621 1962506 L1597030 1959687 L1597030 1951233 L1595621 1948415 L1594212 1947006 L1591393 1945597 L1585757 1945597 L1582939 1947006 "/>
<path d="M1557576 1963915 L1560394 1965324 L1566031 1965324 L1568849 1963915 L1570258 1961096 L1570258 1949824 L1568849 1947006 L1566031 1945597 L1560394 1945597 L1557576 1947006 L1556167 1949824 L1556167 1952642 L1570258 1955460 "/>
<path d="M1530804 1965324 L1530804 1935734 "/>
<path d="M1530804 1963915 L1533623 1965324 L1539259 1965324 L1542077 1963915 L1543486 1962506 L1544895 1959687 L1544895 1951233 L1543486 1948415 L1542077 1947006 L1539259 1945597 L1533623 1945597 L1530804 1947006 "/>
<path d="M1501215 1965324 L1518123 1965324 "/>
<path d="M1509669 1965324 L1509669 1935734 L1512487 1939961 L1515305 1942779 L1518123 1944188 "/>
<path d="M1489942 1938552 L1488533 1937143 L1485715 1935734 L1478670 1935734 L1475852 1937143 L1474443 1938552 L1473034 1941370 L1473034 1944188 L1474443 1948415 L1491351 1965324 L1473034 1965324 "/>
</g></g>
<g style="fill:#000084; fill-opacity:0.0;  stroke:#000084; stroke-width:2367.197407; stroke-opacity:1;  stroke-linecap:round; stroke-linejoin:round;">
<g transform="rotate(-90.000000 961268.564182 529770.405805)">
<text x="961268.564182" y="537167.897703" transform="scale(-1 1) translate(-1922537.128364 0)" textLength="23115.386783" font-size="19726.625335" lengthAdjust="spacingAndGlyphs" text-anchor="middle" opacity="0.01" style="font-family:monospace">C2</text>
</g>
<g class="stroked-text"><desc>C2</desc>
<path d="M966552 527304 L967256 526600 L967961 524486 L967961 523077 L967256 520963 L965847 519554 L964438 518850 L961620 518145 L959507 518145 L956689 518850 L955280 519554 L953871 520963 L953166 523077 L953166 524486 L953871 526600 L954575 527304 "/>
<path d="M954575 532940 L953871 533645 L953166 535054 L953166 538576 L953871 539985 L954575 540690 L955984 541395 L957393 541395 L959507 540690 L967961 532236 L967961 541395 "/>
</g><g transform="rotate(-90.000000 1597452.867409 541606.392842)">
<text x="1597452.867409" y="549003.884740" transform="scale(-1 1) translate(-3194905.734818 0)" textLength="39898.550092" font-size="19726.625335" lengthAdjust="spacingAndGlyphs" text-anchor="middle" opacity="0.01" style="font-family:monospace">R12</text>
</g>
<g class="stroked-text"><desc>R12</desc>
<path d="M1604145 532095 L1597100 527163 "/>
<path d="M1604145 523641 L1589350 523641 L1589350 529277 L1590055 530686 L1590759 531390 L1592168 532095 L1594282 532095 L1595691 531390 L1596396 530686 L1597100 529277 L1597100 523641 "/>
<path d="M1604145 546185 L1604145 537731 "/>
<path d="M1604145 541958 L1589350 541958 L1591464 540549 L1592873 539140 L1593577 537731 "/>
<path d="M1590759 551821 L1590055 552526 L1589350 553935 L1589350 557458 L1590055 558867 L1590759 559571 L1592168 560276 L1593577 560276 L1595691 559571 L1604145 551117 L1604145 560276 "/>
</g><g transform="rotate(-90.000000 1863762.575736 719146.198394)">
<text x="1863762.575736" y="726543.690292" transform="scale(-1 1) translate(-3727525.151472 0)" textLength="25808.073834" font-size="19726.625335" lengthAdjust="spacingAndGlyphs" text-anchor="middle" opacity="0.01" style="font-family:monospace">R5</text>
</g>
<g class="stroked-text"><desc>R5</desc>
<path d="M1870455 716680 L1863410 711748 "/>
<path d="M1870455 708226 L1855660 708226 L1855660 713862 L1856365 715271 L1857069 715975 L1858478 716680 L1860592 716680 L1862001 715975 L1862705 715271 L1863410 713862 L1863410 708226 "/>
<path d="M1855660 730066 L1855660 723021 L1862705 722316 L1862001 723021 L1861296 724430 L1861296 727952 L1862001 729361 L1862705 730066 L1864114 730770 L1867637 730770 L1869046 730066 L1869750 729361 L1870455 727952 L1870455 724430 L1869750 723021 L1869046 722316 "/>
</g><g transform="rotate(-90.000000 905047.625757 864137.039594)">
<text x="905047.625757" y="871534.531492" transform="scale(-1 1) translate(-1810095.251515 0)" textLength="25808.073834" font-size="19726.625335" lengthAdjust="spacingAndGlyphs" text-anchor="middle" opacity="0.01" style="font-family:monospace">R8</text>
</g>
<g class="stroked-text"><desc>R8</desc>
<path d="M911740 861671 L904695 856739 "/>
<path d="M911740 853216 L896945 853216 L896945 858853 L897650 860262 L898354 860966 L899763 861671 L901877 861671 L903286 860966 L903990 860262 L904695 858853 L904695 853216 "/>
<path d="M903286 870125 L902581 868716 L901877 868011 L900468 867307 L899763 867307 L898354 868011 L897650 868716 L896945 870125 L896945 872943 L897650 874352 L898354 875057 L899763 875761 L900468 875761 L901877 875057 L902581 874352 L903286 872943 L903286 870125 L903990 868716 L904695 868011 L906104 867307 L908922 867307 L910331 868011 L911036 868716 L911740 870125 L911740 872943 L911036 874352 L910331 875057 L908922 875761 L906104 875761 L904695 875057 L903990 874352 L903286 872943 "/>
</g></g>
<g style="fill:#000084; fill-opacity:0.01;  stroke:#000084; stroke-width:4438.495139; stroke-opacity:1;  stroke-linecap:round; stroke-linejoin:round;">
<text x="2187772.720868" y="563576.943779" transform="scale(-1 1) translate(-4375545.441736 0)" textLength="174462.448922" font-size="39453.280259" lengthAdjust="spacingAndGlyphs" text-anchor="middle" opacity="0.01" style="font-family:monospace">C_Small</text>
<g class="stroked-text"><desc>C_Small</desc>
<path d="M2252588 559349 L2253997 560758 L2258225 562167 L2261043 562167 L2265270 560758 L2268088 557940 L2269497 555122 L2270906 549486 L2270906 545259 L2269497 539623 L2268088 536805 L2265270 533986 L2261043 532577 L2258225 532577 L2253997 533986 L2252588 535396 "/>
<path d="M2246952 564985 L2224407 564985 "/>
<path d="M2218771 560758 L2214544 562167 L2207499 562167 L2204681 560758 L2203272 559349 L2201863 556531 L2201863 553713 L2203272 550895 L2204681 549486 L2207499 548077 L2213135 546668 L2215953 545259 L2217362 543850 L2218771 541032 L2218771 538214 L2217362 535396 L2215953 533986 L2213135 532577 L2206090 532577 L2201863 533986 "/>
<path d="M2189181 562167 L2189181 542441 "/>
<path d="M2189181 545259 L2187772 543850 L2184954 542441 L2180727 542441 L2177909 543850 L2176500 546668 L2176500 562167 "/>
<path d="M2176500 546668 L2175091 543850 L2172273 542441 L2168046 542441 L2165227 543850 L2163818 546668 L2163818 562167 "/>
<path d="M2137047 562167 L2137047 546668 L2138456 543850 L2141274 542441 L2146910 542441 L2149728 543850 "/>
<path d="M2137047 560758 L2139865 562167 L2146910 562167 L2149728 560758 L2151137 557940 L2151137 555122 L2149728 552304 L2146910 550895 L2139865 550895 L2137047 549486 "/>
<path d="M2118729 562167 L2121547 560758 L2122956 557940 L2122956 532577 "/>
<path d="M2103229 562167 L2106048 560758 L2107457 557940 L2107457 532577 "/>
</g></g>
<g style="fill:#000084; fill-opacity:0.01;  stroke:#000084; stroke-width:2367.197407; stroke-opacity:1;  stroke-linecap:round; stroke-linejoin:round;">
<text x="2187772.720868" y="506468.306327" transform="scale(-1 1) translate(-4375545.441736 0)" textLength="23115.386783" font-size="19726.625335" lengthAdjust="spacingAndGlyphs" text-anchor="middle" opacity="0.01" style="font-family:monospace">C1</text>
<g class="stroked-text"><desc>C1</desc>
<path d="M2190238 504354 L2190943 505059 L2193056 505763 L2194465 505763 L2196579 505059 L2197988 503650 L2198692 502241 L2199397 499423 L2199397 497309 L2198692 494491 L2197988 493082 L2196579 491673 L2194465 490968 L2193056 490968 L2190943 491673 L2190238 492377 "/>
<path d="M2176148 505763 L2184602 505763 "/>
<path d="M2180375 505763 L2180375 490968 L2181784 493082 L2183193 494491 L2184602 495195 "/>
</g><g transform="rotate(-90.000000 1479092.997041 537537.772298)">
<text x="1479092.997041" y="544935.264196" transform="scale(-1 1) translate(-2958185.994082 0)" textLength="39898.550092" font-size="19726.625335" lengthAdjust="spacingAndGlyphs" text-anchor="middle" opacity="0.01" style="font-family:monospace">R11</text>
</g>
<g class="stroked-text"><desc>R11</desc>
<path d="M1485785 528026 L1478740 523095 "/>
<path d="M1485785 519572 L1470990 519572 L1470990 525208 L1471695 526617 L1472400 527322 L1473809 528026 L1475922 528026 L1477331 527322 L1478036 526617 L1478740 525208 L1478740 519572 "/>
<path d="M1485785 542117 L1485785 533662 "/>
<path d="M1485785 537890 L1470990 537890 L1473104 536480 L1474513 535071 L1475218 533662 "/>
<path d="M1485785 556207 L1485785 547753 "/>
<path d="M1485785 551980 L1470990 551980 L1473104 550571 L1474513 549162 L1475218 547753 "/>
</g><g transform="rotate(-90.000000 1384405.100747 538647.396083)">
<text x="1384405.100747" y="546044.887981" transform="scale(-1 1) translate(-2768810.201494 0)" textLength="39898.550092" font-size="19726.625335" lengthAdjust="spacingAndGlyphs" text-anchor="middle" opacity="0.01" style="font-family:monospace">R14</text>
</g>
<g class="stroked-text"><desc>R14</desc>
<path d="M1391098 529136 L1384052 524204 "/>
<path d="M1391098 520682 L1376303 520682 L1376303 526318 L1377007 527727 L1377712 528431 L1379121 529136 L1381234 529136 L1382643 528431 L1383348 527727 L1384052 526318 L1384052 520682 "/>
<path d="M1391098 543226 L1391098 534772 "/>
<path d="M1391098 538999 L1376303 538999 L1378416 537590 L1379825 536181 L1380530 534772 "/>
<path d="M1381234 555908 L1391098 555908 "/>
<path d="M1375598 552385 L1386166 548862 L1386166 558021 "/>
</g><g transform="rotate(-90.000000 1635919.825278 284173.674792)">
<text x="1635919.825278" y="291571.166690" transform="scale(-1 1) translate(-3271839.650557 0)" textLength="25808.073834" font-size="19726.625335" lengthAdjust="spacingAndGlyphs" text-anchor="middle" opacity="0.01" style="font-family:monospace">C9</text>
</g>
<g class="stroked-text"><desc>C9</desc>
<path d="M1641203 281707 L1641908 281003 L1642612 278889 L1642612 277480 L1641908 275367 L1640499 273958 L1639090 273253 L1636272 272549 L1634158 272549 L1631340 273253 L1629931 273958 L1628522 275367 L1627817 277480 L1627817 278889 L1628522 281003 L1629226 281707 "/>
<path d="M1642612 288753 L1642612 291571 L1641908 292980 L1641203 293684 L1639090 295093 L1636272 295798 L1630635 295798 L1629226 295093 L1628522 294389 L1627817 292980 L1627817 290162 L1628522 288753 L1629226 288048 L1630635 287344 L1634158 287344 L1635567 288048 L1636272 288753 L1636976 290162 L1636976 292980 L1636272 294389 L1635567 295093 L1634158 295798 "/>
</g></g>
<g style="fill:#000084; fill-opacity:0.01;  stroke:#000084; stroke-width:4438.495139; stroke-opacity:1;  stroke-linecap:round; stroke-linejoin:round;">
<text x="2199238.833310" y="651459.147527" transform="scale(-1 1) translate(-4398477.666620 0)" textLength="153326.749331" font-size="39453.280259" lengthAdjust="spacingAndGlyphs" text-anchor="middle" opacity="0.01" style="font-family:monospace">TLV840</text>
<g class="stroked-text"><desc>TLV840</desc>
<path d="M2274622 620460 L2257714 620460 "/>
<path d="M2266168 650050 L2266168 620460 "/>
<path d="M2233760 650050 L2247850 650050 L2247850 620460 "/>
<path d="M2228124 620460 L2218260 650050 L2208397 620460 "/>
<path d="M2194307 633141 L2197125 631732 L2198534 630323 L2199943 627505 L2199943 626096 L2198534 623278 L2197125 621869 L2194307 620460 L2188670 620460 L2185852 621869 L2184443 623278 L2183034 626096 L2183034 627505 L2184443 630323 L2185852 631732 L2188670 633141 L2194307 633141 L2197125 634550 L2198534 635959 L2199943 638777 L2199943 644413 L2198534 647231 L2197125 648641 L2194307 650050 L2188670 650050 L2185852 648641 L2184443 647231 L2183034 644413 L2183034 638777 L2184443 635959 L2185852 634550 L2188670 633141 "/>
<path d="M2157671 630323 L2157671 650050 "/>
<path d="M2164717 619051 L2171762 640186 L2153444 640186 "/>
<path d="M2136536 620460 L2133718 620460 L2130900 621869 L2129491 623278 L2128082 626096 L2126672 631732 L2126672 638777 L2128082 644413 L2129491 647231 L2130900 648641 L2133718 650050 L2136536 650050 L2139354 648641 L2140763 647231 L2142172 644413 L2143581 638777 L2143581 631732 L2142172 626096 L2140763 623278 L2139354 621869 L2136536 620460 "/>
</g></g>
<g style="fill:#000084; fill-opacity:0.01;  stroke:#000084; stroke-width:1775.398056; stroke-opacity:1;  stroke-linecap:round; stroke-linejoin:round;">
<text x="2199238.833310" y="571566.235029" transform="scale(-1 1) translate(-4398477.666620 0)" textLength="17901.930393" font-size="15781.306186" lengthAdjust="spacingAndGlyphs" text-anchor="middle" opacity="0.01" style="font-family:monospace">U1</text>
<g class="stroked-text"><desc>U1</desc>
<path d="M2208256 559166 L2208256 568748 L2207693 569875 L2207129 570438 L2206002 571002 L2203747 571002 L2202620 570438 L2202056 569875 L2201493 568748 L2201493 559166 "/>
<path d="M2189657 571002 L2196420 571002 "/>
<path d="M2193039 571002 L2193039 559166 L2194166 560857 L2195293 561984 L2196420 562548 "/>
</g></g>
<g style="fill:#000084; fill-opacity:0.0;  stroke:#000084; stroke-width:2367.197407; stroke-opacity:1;  stroke-linecap:round; stroke-linejoin:round;">
<g transform="rotate(-90.000000 804441.735945 894466.756376)">
<text x="804441.735945" y="901864.248274" transform="scale(-1 1) translate(-1608883.471890 0)" textLength="26577.412991" font-size="19726.625335" lengthAdjust="spacingAndGlyphs" text-anchor="middle" opacity="0.01" style="font-family:monospace">R9</text>
</g>
<g class="stroked-text"><desc>R9</desc>
<path d="M811134 892000 L804089 887069 "/>
<path d="M811134 883546 L796339 883546 L796339 889182 L797044 890591 L797748 891296 L799157 892000 L801271 892000 L802680 891296 L803384 890591 L804089 889182 L804089 883546 "/>
<path d="M811134 899046 L811134 901864 L810430 903273 L809725 903977 L807612 905386 L804793 906091 L799157 906091 L797748 905386 L797044 904682 L796339 903273 L796339 900455 L797044 899046 L797748 898341 L799157 897637 L802680 897637 L804089 898341 L804793 899046 L805498 900455 L805498 903273 L804793 904682 L804089 905386 L802680 906091 "/>
</g><g transform="rotate(-90.000000 733425.813724 998031.642948)">
<text x="733425.813724" y="1005429.134846" transform="scale(-1 1) translate(-1466851.627448 0)" textLength="39898.550092" font-size="19726.625335" lengthAdjust="spacingAndGlyphs" text-anchor="middle" opacity="0.01" style="font-family:monospace">C10</text>
</g>
<g class="stroked-text"><desc>C10</desc>
<path d="M738709 988520 L739414 987816 L740118 985702 L740118 984293 L739414 982179 L738005 980770 L736596 980066 L733778 979361 L731664 979361 L728846 980066 L727437 980770 L726028 982179 L725323 984293 L725323 985702 L726028 987816 L726732 988520 "/>
<path d="M740118 1002611 L740118 994156 "/>
<path d="M740118 998383 L725323 998383 L727437 996974 L728846 995565 L729550 994156 "/>
<path d="M725323 1011769 L725323 1013178 L726028 1014587 L726732 1015292 L728141 1015996 L730959 1016701 L734482 1016701 L737300 1015996 L738709 1015292 L739414 1014587 L740118 1013178 L740118 1011769 L739414 1010360 L738709 1009656 L737300 1008951 L734482 1008247 L730959 1008247 L728141 1008951 L726732 1009656 L726028 1010360 L725323 1011769 "/>
</g><g transform="rotate(-90.000000 1192070.311399 1057211.578132)">
<text x="1192070.311399" y="1064609.070030" transform="scale(-1 1) translate(-2384140.622798 0)" textLength="25808.073834" font-size="19726.625335" lengthAdjust="spacingAndGlyphs" text-anchor="middle" opacity="0.01" style="font-family:monospace">C5</text>
</g>
<g class="stroked-text"><desc>C5</desc>
<path d="M1197354 1054745 L1198058 1054041 L1198763 1051927 L1198763 1050518 L1198058 1048405 L1196649 1046995 L1195240 1046291 L1192422 1045586 L1190308 1045586 L1187490 1046291 L1186081 1046995 L1184672 1048405 L1183968 1050518 L1183968 1051927 L1184672 1054041 L1185377 1054745 "/>
<path d="M1183968 1068131 L1183968 1061086 L1191013 1060381 L1190308 1061086 L1189604 1062495 L1189604 1066018 L1190308 1067427 L1191013 1068131 L1192422 1068836 L1195945 1068836 L1197354 1068131 L1198058 1067427 L1198763 1066018 L1198763 1062495 L1198058 1061086 L1197354 1060381 "/>
</g></g>
<g style="fill:#000084; fill-opacity:0.0;  stroke:#000084; stroke-width:2958.996759; stroke-opacity:1;  stroke-linecap:round; stroke-linejoin:round;">
<path d="M1135849 1013936 L958309 1013936 "/>
<path d="M1135849 1191476 L958309 1191476 "/>
<path d="M958309 1191476 L958309 1013936 "/>
<path d="M1135849 1013936 L1135849 1191476 "/>
<path d="M1197988 568237 L1233496 568237 "/>
<path d="M1233496 568237 L1233496 509057 "/>
<path d="M1233496 509057 L1197988 509057 "/>
<path d="M1197988 509057 L1197988 568237 "/>
<path d="M2008753 747626 L2008753 688446 "/>
<path d="M1973245 688446 L1973245 747626 "/>
<path d="M2008753 688446 L1973245 688446 "/>
<path d="M1973245 747626 L2008753 747626 "/>
<path d="M1044130 953464 L1129941 953464 "/>
<path d="M1057446 901386 L1129941 901386 "/>
<path d="M1044130 953464 L1044130 914701 "/>
<path d="M1129941 953464 L1129941 901386 "/>
<path d="M1057446 901386 L1044130 914701 "/>
<path d="M1088505 561209 L1088505 502029 "/>
<path d="M1052997 502029 L1052997 561209 "/>
<path d="M1088505 502029 L1052997 502029 "/>
<path d="M1052997 561209 L1088505 561209 "/>
<path d="M1628078 1373750 L1628078 1240299 "/>
<path d="M1336025 1240299 L1336025 1373750 "/>
<path d="M1628078 1240299 L1336025 1240299 "/>
<path d="M1658408 1429971 L1628078 1429971 "/>
<path d="M1305695 1456306 L1658408 1456306 "/>
<path d="M1541231 1240299 L1526436 1269889 "/>
<path d="M1305695 1429971 L1305695 1456306 "/>
<path d="M1336025 1400085 L1336025 1429971 "/>
<path d="M1305695 1400085 L1658408 1400085 "/>
<path d="M1658408 1373750 L1628078 1373750 "/>
<path d="M1658408 1456306 L1658408 1429971 "/>
<path d="M1628078 1429971 L1628078 1400085 "/>
<path d="M1658408 1400085 L1658408 1373750 "/>
<path d="M1336025 1373750 L1305695 1373750 "/>
<path d="M1305695 1373750 L1305695 1400085 "/>
<path d="M1526436 1269889 L1511641 1240299 "/>
<path d="M1336025 1429971 L1305695 1429971 "/>
<path d="M1846008 587840 L1846008 647020 "/>
<path d="M1846008 647020 L1881516 647020 "/>
<path d="M1881516 647020 L1881516 587840 "/>
<path d="M1881516 587840 L1846008 587840 "/>
<path d="M1448023 327449 L1448023 280105 "/>
<path d="M1421392 303777 L1409556 303777 "/>
<path d="M1391802 315613 L1409556 303777 "/>
<path d="M1391802 303777 L1377007 303777 "/>
<path d="M1409556 303777 L1391802 291941 "/>
<path d="M1391802 291941 L1391802 315613 "/>
<path d="M1350376 327449 L1448023 327449 "/>
<path d="M1448023 280105 L1350376 280105 "/>
<path d="M1409556 303777 L1409556 287502 "/>
<path d="M1409556 303777 L1409556 320051 "/>
<path d="M1350376 280105 L1350376 327449 "/>
<path d="M1677345 254583 L1677345 313763 "/>
<path d="M1677345 313763 L1712853 313763 "/>
<path d="M1712853 313763 L1712853 254583 "/>
<path d="M1712853 254583 L1677345 254583 "/>
<path d="M1274922 509057 L1274922 568237 "/>
<path d="M1274922 568237 L1310430 568237 "/>
<path d="M1310430 509057 L1274922 509057 "/>
<path d="M1310430 568237 L1310430 509057 "/>
<path d="M777810 1120460 L866580 1120460 "/>
<path d="M822225 1067233 L822225 1096770 "/>
<path d="M866580 984346 L777810 984346 "/>
<path d="M844397 1067233 L798550 1067233 "/>
<path d="M866580 1120460 L866580 984346 "/>
<path d="M822225 1033186 L844397 1067233 "/>
<path d="M822225 1033186 L798550 1067233 "/>
<path d="M822225 1033186 L822225 1006505 "/>
<path d="M777810 1120460 L777810 984346 "/>
<path d="M798550 1033186 L845900 1033186 "/>
<path d="M1558985 1767000 L1558985 1852811 "/>
<path d="M1558985 1852811 L1606329 1852811 "/>
<path d="M1606329 1778836 L1594493 1767000 "/>
<path d="M1606329 1852811 L1606329 1778836 "/>
<path d="M1594493 1767000 L1558985 1767000 "/>
</g>
<g style="fill:#000084; fill-opacity:0.0;  stroke:#000084; stroke-width:4438.495139; stroke-opacity:1;  stroke-linecap:round; stroke-linejoin:round;">
<path d="M1846008 1688587 L1786828 1688587 "/>
<path d="M1875598 1777357 L1875598 1718177 "/>
<path d="M1786828 1777357 L1875598 1777357 "/>
<path d="M1875598 1718177 L1846008 1688587 "/>
<path d="M1786828 1688587 L1786828 1777357 "/>
</g>
<g style="fill:#000084; fill-opacity:0.0;  stroke:#000084; stroke-width:2958.996759; stroke-opacity:1;  stroke-linecap:round; stroke-linejoin:round;">
<path d="M922801 993223 L922801 934043 "/>
<path d="M887293 993223 L922801 993223 "/>
<path d="M887293 934043 L887293 993223 "/>
<path d="M922801 934043 L887293 934043 "/>
<path d="M751179 922207 L751179 863027 "/>
<path d="M751179 863027 L715671 863027 "/>
<path d="M715671 863027 L715671 922207 "/>
<path d="M715671 922207 L751179 922207 "/>
<path d="M1875598 1170763 L1976204 1170763 "/>
<path d="M1846008 1141173 L1875598 1170763 "/>
<path d="M1976204 1170763 L1976204 1022813 "/>
<path d="M1846008 1022813 L1846008 1141173 "/>
<path d="M1976204 1022813 L1846008 1022813 "/>
<path d="M871019 152498 L906527 152498 "/>
<path d="M906527 152498 L906527 93318 "/>
<path d="M871019 93318 L871019 152498 "/>
<path d="M906527 93318 L871019 93318 "/>
<path d="M2008753 645911 L2008753 586731 "/>
<path d="M1973245 645911 L2008753 645911 "/>
<path d="M1973245 586731 L1973245 645911 "/>
<path d="M2008753 586731 L1973245 586731 "/>
<path d="M943514 500180 L943514 559360 "/>
<path d="M979022 500180 L943514 500180 "/>
<path d="M979022 559360 L979022 500180 "/>
<path d="M943514 559360 L979022 559360 "/>
<path d="M1579698 571196 L1615206 571196 "/>
<path d="M1615206 512016 L1579698 512016 "/>
<path d="M1615206 571196 L1615206 512016 "/>
<path d="M1579698 512016 L1579698 571196 "/>
<path d="M1881516 689556 L1846008 689556 "/>
<path d="M1846008 689556 L1846008 748736 "/>
<path d="M1881516 748736 L1881516 689556 "/>
<path d="M1846008 748736 L1881516 748736 "/>
<path d="M887293 834547 L887293 893727 "/>
<path d="M922801 893727 L922801 834547 "/>
<path d="M887293 893727 L922801 893727 "/>
<path d="M922801 834547 L887293 834547 "/>
<path d="M2158182 480577 L2158182 517564 "/>
<path d="M2158182 517564 L2217362 517564 "/>
<path d="M2217362 517564 L2217362 480577 "/>
<path d="M2217362 480577 L2158182 480577 "/>
<path d="M1461339 567127 L1496846 567127 "/>
<path d="M1496846 567127 L1496846 507947 "/>
<path d="M1461339 507947 L1461339 567127 "/>
<path d="M1496846 507947 L1461339 507947 "/>
<path d="M1366651 509057 L1366651 568237 "/>
<path d="M1366651 568237 L1402159 568237 "/>
<path d="M1402159 509057 L1366651 509057 "/>
<path d="M1402159 568237 L1402159 509057 "/>
<path d="M1618165 254583 L1618165 313763 "/>
<path d="M1653673 254583 L1618165 254583 "/>
<path d="M1653673 313763 L1653673 254583 "/>
<path d="M1618165 313763 L1653673 313763 "/>
<path d="M2175566 522742 L2175566 608553 "/>
<path d="M2211074 522742 L2175566 522742 "/>
<path d="M2222910 608553 L2222910 534578 "/>
<path d="M2222910 534578 L2211074 522742 "/>
<path d="M2175566 608553 L2222910 608553 "/>
<path d="M786687 924056 L822195 924056 "/>
<path d="M822195 924056 L822195 864876 "/>
<path d="M786687 864876 L786687 924056 "/>
<path d="M822195 864876 L786687 864876 "/>
<path d="M751179 1027621 L751179 968441 "/>
<path d="M715671 968441 L715671 1027621 "/>
<path d="M715671 1027621 L751179 1027621 "/>
<path d="M751179 968441 L715671 968441 "/>
<path d="M1174316 1027621 L1174316 1086801 "/>
<path d="M1174316 1086801 L1209824 1086801 "/>
<path d="M1209824 1027621 L1174316 1027621 "/>
<path d="M1209824 1086801 L1209824 1027621 "/>
<g>
</g>
<g>
</g>
<g>
</g>
<g>
</g>
<g>
</g>
<g>
</g>
<g>
</g>
<g>
</g>
<g>
</g>
<g>
</g>
<g>
</g>
<g>
</g>
<g>
</g>
<g>
</g>
<g>
</g>
<g>
</g>
<g>
</g>
<g>
</g>
<g>
</g>
<g>
</g>
<g>
</g>
<g>
</g>
<g>
</g>
<g>
</g>
<g>
</g>
<g>
</g>
<g>
</g>
<g>
</g>
<g>
</g>
<g>
</g>
<g>
</g>
<g>
</g>
<g>
</g>
<g>
</g>
<g>
</g>
<g>
</g>
<g>
</g>
<g>
</g>
<g>
</g>
<g>
</g>
<g>
</g>
<g>
</g>
<g>
</g>
<g>
</g>
</g> 
<svg:g><svg:g><svg:title>SVG Picture created as OLED01-Edge_Cuts.svg date 2023/04/13 01:16:29 </svg:title>
  <svg:desc>Picture generated by PCBNEW </svg:desc>
<svg:g style="fill:#C2C200; fill-opacity:1.000000;stroke:#C2C200; stroke-opacity:1.000000; stroke-linecap:round; stroke-linejoin:round;" transform="translate(0 0) scale(1 1)">
</svg:g>
<svg:g style="fill:#C2C200; fill-opacity:0.0;  stroke:#C2C200; stroke-width:0.000000; stroke-opacity:1;  stroke-linecap:round; stroke-linejoin:round;">
</svg:g>
<svg:g style="fill:#C2C200; fill-opacity:0.0;  stroke:#C2C200; stroke-width:1479.498380; stroke-opacity:1;  stroke-linecap:round; stroke-linejoin:round;">
<svg:path d="M586067 2099296 L2383954 2099296 "/>
<svg:path d="M2383954 2099296 L2383954 775 "/>
<svg:path d="M2383954 775 L586067 775 "/>
<svg:path d="M586067 775 L586067 2099296 "/>
<svg:g>
</svg:g>
<svg:g>
</svg:g>
<svg:g>
</svg:g>
<svg:g>
</svg:g>
<svg:g>
</svg:g>
<svg:g>
</svg:g>
<svg:g>
</svg:g>
<svg:g>
</svg:g>
<svg:g>
</svg:g>
<svg:g>
</svg:g>
<svg:g>
</svg:g>
<svg:g>
</svg:g>
<svg:g>
</svg:g>
<svg:g>
</svg:g>
<svg:g>
</svg:g>
<svg:g>
</svg:g>
<svg:g>
</svg:g>
<svg:g>
</svg:g>
<svg:g>
</svg:g>
<svg:g>
</svg:g>
<svg:g>
</svg:g>
<svg:g>
</svg:g>
<svg:g>
</svg:g>
<svg:g>
</svg:g>
<svg:g>
</svg:g>
<svg:g>
</svg:g>
<svg:g>
</svg:g>
<svg:g>
</svg:g>
<svg:g>
</svg:g>
<svg:g>
</svg:g>
<svg:g>
</svg:g>
<svg:g>
</svg:g>
<svg:g>
</svg:g>
<svg:g>
</svg:g>
<svg:g>
</svg:g>
<svg:g>
</svg:g>
<svg:g>
</svg:g>
<svg:g>
</svg:g>
<svg:g>
</svg:g>
<svg:g>
</svg:g>
<svg:g>
</svg:g>
<svg:g>
</svg:g>
<svg:g>
</svg:g>
<svg:g>
</svg:g>
</svg:g> 
</svg:g></svg:g></svg>
