<?xml version='1.0' encoding='ASCII' standalone='yes'?>
<svg xmlns:svg="http://www.w3.org/2000/svg" xmlns="http://www.w3.org/2000/svg" xmlns:xlink="http://www.w3.org/1999/xlink" version="1.1" width="29.700220cm" height="21.000720cm" viewBox="0 0 2970022 2100072">
<title>SVG Picture created as OLED01-F_Fab.svg date 2023/07/05 00:31:01 </title>
  <desc>Picture generated by PCBNEW </desc>
<g style="fill:#848484; fill-opacity:1.000000;stroke:#848484; stroke-opacity:1.000000; stroke-linecap:round; stroke-linejoin:round;" transform="translate(0 0) scale(1 1)">
</g>
<g style="fill:#848484; fill-opacity:0.0;  stroke:#848484; stroke-width:0.000000; stroke-opacity:1;  stroke-linecap:round; stroke-linejoin:round;">
</g>
<g style="fill:#848484; fill-opacity:0.01;  stroke:#848484; stroke-width:4438.495139; stroke-opacity:1;  stroke-linecap:round; stroke-linejoin:round;">
<text x="1485011.009441" y="1111583.143582" textLength="862595.461463" font-size="39453.280259" lengthAdjust="spacingAndGlyphs" text-anchor="middle" opacity="0.01" style="font-family:monospace">EA OLEDM128-6GGA, Precision socket</text>
<g class="stroked-text"><desc>EA OLEDM128-6GGA, Precision socket</desc>
<path d="M1907724 1094674 L1897861 1094674 "/>
<path d="M1893634 1110174 L1907724 1110174 L1907724 1080584 L1893634 1080584 "/>
<path d="M1882362 1101719 L1868271 1101719 "/>
<path d="M1885180 1110174 L1875316 1080584 L1865453 1110174 "/>
<path d="M1827409 1080584 L1821773 1080584 L1818954 1081993 L1816136 1084811 L1814727 1090447 L1814727 1100310 L1816136 1105946 L1818954 1108765 L1821773 1110174 L1827409 1110174 L1830227 1108765 L1833045 1105946 L1834454 1100310 L1834454 1090447 L1833045 1084811 L1830227 1081993 L1827409 1080584 "/>
<path d="M1787955 1110174 L1802046 1110174 L1802046 1080584 "/>
<path d="M1778092 1094674 L1768229 1094674 "/>
<path d="M1764002 1110174 L1778092 1110174 L1778092 1080584 L1764002 1080584 "/>
<path d="M1751320 1110174 L1751320 1080584 L1744275 1080584 L1740048 1081993 L1737230 1084811 L1735821 1087629 L1734412 1093265 L1734412 1097492 L1735821 1103128 L1737230 1105946 L1740048 1108765 L1744275 1110174 L1751320 1110174 "/>
<path d="M1721730 1110174 L1721730 1080584 L1711867 1101719 L1702004 1080584 L1702004 1110174 "/>
<path d="M1672414 1110174 L1689322 1110174 "/>
<path d="M1680868 1110174 L1680868 1080584 L1683686 1084811 L1686504 1087629 L1689322 1089038 "/>
<path d="M1661141 1083402 L1659732 1081993 L1656914 1080584 L1649869 1080584 L1647051 1081993 L1645642 1083402 L1644233 1086220 L1644233 1089038 L1645642 1093265 L1662550 1110174 L1644233 1110174 "/>
<path d="M1627324 1093265 L1630142 1091856 L1631551 1090447 L1632960 1087629 L1632960 1086220 L1631551 1083402 L1630142 1081993 L1627324 1080584 L1621688 1080584 L1618870 1081993 L1617461 1083402 L1616052 1086220 L1616052 1087629 L1617461 1090447 L1618870 1091856 L1621688 1093265 L1627324 1093265 L1630142 1094674 L1631551 1096083 L1632960 1098901 L1632960 1104537 L1631551 1107355 L1630142 1108765 L1627324 1110174 L1621688 1110174 L1618870 1108765 L1617461 1107355 L1616052 1104537 L1616052 1098901 L1617461 1096083 L1618870 1094674 L1621688 1093265 "/>
<path d="M1603370 1098901 L1580826 1098901 "/>
<path d="M1554054 1080584 L1559690 1080584 L1562508 1081993 L1563917 1083402 L1566735 1087629 L1568144 1093265 L1568144 1104537 L1566735 1107355 L1565326 1108765 L1562508 1110174 L1556872 1110174 L1554054 1108765 L1552645 1107355 L1551236 1104537 L1551236 1097492 L1552645 1094674 L1554054 1093265 L1556872 1091856 L1562508 1091856 L1565326 1093265 L1566735 1094674 L1568144 1097492 "/>
<path d="M1523055 1081993 L1525873 1080584 L1530100 1080584 L1534327 1081993 L1537145 1084811 L1538554 1087629 L1539963 1093265 L1539963 1097492 L1538554 1103128 L1537145 1105946 L1534327 1108765 L1530100 1110174 L1527282 1110174 L1523055 1108765 L1521646 1107355 L1521646 1097492 L1527282 1097492 "/>
<path d="M1493465 1081993 L1496283 1080584 L1500510 1080584 L1504737 1081993 L1507555 1084811 L1508964 1087629 L1510373 1093265 L1510373 1097492 L1508964 1103128 L1507555 1105946 L1504737 1108765 L1500510 1110174 L1497692 1110174 L1493465 1108765 L1492056 1107355 L1492056 1097492 L1497692 1097492 "/>
<path d="M1480783 1101719 L1466693 1101719 "/>
<path d="M1483601 1110174 L1473738 1080584 L1463875 1110174 "/>
<path d="M1452602 1108765 L1452602 1110174 L1454011 1112992 L1455421 1114401 "/>
<path d="M1417376 1110174 L1417376 1080584 L1406104 1080584 L1403286 1081993 L1401877 1083402 L1400468 1086220 L1400468 1090447 L1401877 1093265 L1403286 1094674 L1406104 1096083 L1417376 1096083 "/>
<path d="M1387786 1110174 L1387786 1090447 "/>
<path d="M1387786 1096083 L1386377 1093265 L1384968 1091856 L1382150 1090447 L1379332 1090447 "/>
<path d="M1358196 1108765 L1361014 1110174 L1366651 1110174 L1369469 1108765 L1370878 1105946 L1370878 1094674 L1369469 1091856 L1366651 1090447 L1361014 1090447 L1358196 1091856 L1356787 1094674 L1356787 1097492 L1370878 1100310 "/>
<path d="M1331424 1108765 L1334243 1110174 L1339879 1110174 L1342697 1108765 L1344106 1107355 L1345515 1104537 L1345515 1096083 L1344106 1093265 L1342697 1091856 L1339879 1090447 L1334243 1090447 L1331424 1091856 "/>
<path d="M1318743 1110174 L1318743 1090447 "/>
<path d="M1318743 1080584 L1320152 1081993 L1318743 1083402 L1317334 1081993 L1318743 1080584 L1318743 1083402 "/>
<path d="M1306062 1108765 L1303244 1110174 L1297607 1110174 L1294789 1108765 L1293380 1105946 L1293380 1104537 L1294789 1101719 L1297607 1100310 L1301835 1100310 L1304653 1098901 L1306062 1096083 L1306062 1094674 L1304653 1091856 L1301835 1090447 L1297607 1090447 L1294789 1091856 "/>
<path d="M1280699 1110174 L1280699 1090447 "/>
<path d="M1280699 1080584 L1282108 1081993 L1280699 1083402 L1279290 1081993 L1280699 1080584 L1280699 1083402 "/>
<path d="M1262381 1110174 L1265199 1108765 L1266608 1107355 L1268017 1104537 L1268017 1096083 L1266608 1093265 L1265199 1091856 L1262381 1090447 L1258154 1090447 L1255336 1091856 L1253927 1093265 L1252518 1096083 L1252518 1104537 L1253927 1107355 L1255336 1108765 L1258154 1110174 L1262381 1110174 "/>
<path d="M1239837 1090447 L1239837 1110174 "/>
<path d="M1239837 1093265 L1238427 1091856 L1235609 1090447 L1231382 1090447 L1228564 1091856 L1227155 1094674 L1227155 1110174 "/>
<path d="M1191929 1108765 L1189111 1110174 L1183475 1110174 L1180657 1108765 L1179248 1105946 L1179248 1104537 L1180657 1101719 L1183475 1100310 L1187702 1100310 L1190520 1098901 L1191929 1096083 L1191929 1094674 L1190520 1091856 L1187702 1090447 L1183475 1090447 L1180657 1091856 "/>
<path d="M1162339 1110174 L1165157 1108765 L1166566 1107355 L1167975 1104537 L1167975 1096083 L1166566 1093265 L1165157 1091856 L1162339 1090447 L1158112 1090447 L1155294 1091856 L1153885 1093265 L1152476 1096083 L1152476 1104537 L1153885 1107355 L1155294 1108765 L1158112 1110174 L1162339 1110174 "/>
<path d="M1127113 1108765 L1129931 1110174 L1135567 1110174 L1138385 1108765 L1139794 1107355 L1141203 1104537 L1141203 1096083 L1139794 1093265 L1138385 1091856 L1135567 1090447 L1129931 1090447 L1127113 1091856 "/>
<path d="M1114431 1110174 L1114431 1080584 "/>
<path d="M1111613 1098901 L1103159 1110174 "/>
<path d="M1103159 1090447 L1114431 1101719 "/>
<path d="M1079205 1108765 L1082023 1110174 L1087660 1110174 L1090478 1108765 L1091887 1105946 L1091887 1094674 L1090478 1091856 L1087660 1090447 L1082023 1090447 L1079205 1091856 L1077796 1094674 L1077796 1097492 L1091887 1100310 "/>
<path d="M1069342 1090447 L1058070 1090447 "/>
<path d="M1065115 1080584 L1065115 1105946 L1063706 1108765 L1060888 1110174 L1058070 1110174 "/>
</g><g transform="rotate(-270.000000 1515734.272791 1886485.214880)">
<text x="1515734.272791" y="1901280.198675" textLength="35360.011272" font-size="39453.280259" lengthAdjust="spacingAndGlyphs" text-anchor="middle" opacity="0.01" style="font-family:monospace">K</text>
</g>
<g class="stroked-text"><desc>K</desc>
<path d="M1529120 1878735 L1499530 1878735 "/>
<path d="M1529120 1895643 L1512211 1882962 "/>
<path d="M1499530 1895643 L1516438 1878735 "/>
</g><g transform="rotate(-270.000000 1385168.540792 1883674.167958)">
<text x="1385168.540792" y="1898469.151754" textLength="35360.011272" font-size="39453.280259" lengthAdjust="spacingAndGlyphs" text-anchor="middle" opacity="0.01" style="font-family:monospace">K</text>
</g>
<g class="stroked-text"><desc>K</desc>
<path d="M1398554 1875924 L1368964 1875924 "/>
<path d="M1398554 1892832 L1381645 1880151 "/>
<path d="M1368964 1892832 L1385873 1875924 "/>
</g><path d="M1875302 74750 L1875302 225067 "/>
<path d="M1875302 225067 L2100778 225067 "/>
<path d="M2100778 225067 L2100778 74750 "/>
<path d="M2100778 74750 L1875302 74750 "/>
</g>
<g style="fill:#848484; fill-opacity:0.0;  stroke:#848484; stroke-width:11273.777653; stroke-opacity:1;  stroke-linecap:round; stroke-linejoin:round;">
<circle cx="733425.832605" cy="1951938.223193" r="88762.209384"/> 
<circle cx="2236596.186276" cy="1951938.223193" r="88762.209384"/> 
</g>
<g style="fill:#848484; fill-opacity:0.0;  stroke:#848484; stroke-width:4438.495139; stroke-opacity:1;  stroke-linecap:round; stroke-linejoin:round;">
<path d="M1649827 298154 L1649827 72679 "/>
<path d="M1574668 298154 L1649827 298154 "/>
<path d="M1574668 72679 L1574668 298154 "/>
<path d="M1649827 72679 L1574668 72679 "/>
</g>
<g style="fill:#848484; fill-opacity:0.0;  stroke:#848484; stroke-width:11273.777653; stroke-opacity:1;  stroke-linecap:round; stroke-linejoin:round;">
<circle cx="2236596.186276" cy="146950.200085" r="88762.209384"/> 
<circle cx="733425.832605" cy="146950.200085" r="88762.209384"/> 
</g>
<g style="fill:#848484; fill-opacity:0.0;  stroke:#848484; stroke-width:4438.495139; stroke-opacity:1;  stroke-linecap:round; stroke-linejoin:round;">
<path d="M1544486 74750 L1319011 74750 "/>
<path d="M1319011 74750 L1319011 225067 "/>
<path d="M1319011 225067 L1544486 225067 "/>
<path d="M1544486 225067 L1544486 74750 "/>
<g>
</g>
<g>
</g>
<g>
</g>
<g>
</g>
<g>
</g>
<g>
</g>
<g>
</g>
<g>
</g>
<g>
</g>
<g>
</g>
<g>
</g>
<g>
</g>
<g>
</g>
<g>
</g>
<g>
</g>
<g>
</g>
<g>
</g>
<g>
</g>
<g>
</g>
<g>
</g>
<g>
</g>
<g>
</g>
<g>
</g>
<g>
</g>
<g>
</g>
<g>
</g>
<g>
</g>
<g>
</g>
<g>
</g>
<g>
</g>
<g>
</g>
<g>
</g>
<g>
</g>
<g>
</g>
<g>
</g>
<g>
</g>
<g>
</g>
<g>
</g>
<g>
</g>
<g>
</g>
<g>
</g>
<g>
</g>
<g>
</g>
<g>
</g>
<g>
</g>
<g>
</g>
<g>
</g>
<g>
</g>
<g>
</g>
<g>
</g>
<g>
</g>
<g>
</g>
<g>
</g>
<g>
</g>
<g>
</g>
<g>
</g>
<g>
</g>
</g> 
<svg:g><svg:g><svg:title>SVG Picture created as OLED01-Edge_Cuts.svg date 2023/07/05 00:31:01 </svg:title>
  <svg:desc>Picture generated by PCBNEW </svg:desc>
<svg:g style="fill:#C2C200; fill-opacity:1.000000;stroke:#C2C200; stroke-opacity:1.000000; stroke-linecap:round; stroke-linejoin:round;" transform="translate(0 0) scale(1 1)">
</svg:g>
<svg:g style="fill:#C2C200; fill-opacity:0.0;  stroke:#C2C200; stroke-width:0.000000; stroke-opacity:1;  stroke-linecap:round; stroke-linejoin:round;">
</svg:g>
<svg:g style="fill:#C2C200; fill-opacity:0.0;  stroke:#C2C200; stroke-width:1479.498380; stroke-opacity:1;  stroke-linecap:round; stroke-linejoin:round;">
<svg:path d="M1556026.931661 339284.989432 A17753.980555 17753.980555 0.0 0 0 1556026.931661 303777.028322"/>
<svg:path d="M2383954 2099296 L586067 2099296 "/>
<svg:path d="M586067 2099296 L586067 775 "/>
<svg:path d="M586067 775 L2383954 775 "/>
<svg:path d="M2383954 775 L2383954 2099296 "/>
<svg:path d="M1556026 339284 L1413995 339284 "/>
<svg:path d="M1413995 303777 L1556026 303777 "/>
<svg:path d="M1413995.087220 303777.028322 A17753.980555 17753.980555 0.0 0 0 1413995.087220 339284.989432"/>
<svg:path d="M1534944 1979160 L1493518 1979160 "/>
<svg:path d="M1478723 1964366 L1478723 1928858 "/>
<svg:path d="M1534944 1914063 L1493518 1914063 "/>
<svg:path d="M1549739 1964366 L1549739 1928858 "/>
<svg:path d="M1534944.079752 1979160.993377 A14795.013386 14795.013386 0.0 0 0 1549739.063548 1964366.009582"/>
<svg:path d="M1493518.125123 1914063.064675 A14794.983796 14794.983796 0.0 0 0 1478723.141327 1928858.048471"/>
<svg:path d="M1478723.141327 1964366.009582 A14795.013386 14795.013386 0.0 0 0 1493518.125123 1979160.993377"/>
<svg:path d="M1549739.063548 1928858.048471 A14794.983796 14794.983796 0.0 0 0 1534944.079752 1914063.064675"/>
<svg:path d="M1419173 1961554 L1419173 1926047 "/>
<svg:path d="M1404378 1976349 L1362952 1976349 "/>
<svg:path d="M1404378 1911252 L1362952 1911252 "/>
<svg:path d="M1348157 1961554 L1348157 1926047 "/>
<svg:path d="M1404378.347753 1976349.946456 A14795.013386 14795.013386 0.0 0 0 1419173.331549 1961554.962660"/>
<svg:path d="M1362952.393124 1911252.017754 A14794.983796 14794.983796 0.0 0 0 1348157.409328 1926047.001550"/>
<svg:path d="M1419173.331549 1926047.001550 A14794.983796 14794.983796 0.0 0 0 1404378.347753 1911252.017754"/>
<svg:path d="M1348157.409328 1961554.962660 A14795.013386 14795.013386 0.0 0 0 1362952.393124 1976349.946456"/>
<svg:g>
</svg:g>
<svg:g>
</svg:g>
<svg:g>
</svg:g>
<svg:g>
</svg:g>
<svg:g>
</svg:g>
<svg:g>
</svg:g>
<svg:g>
</svg:g>
<svg:g>
</svg:g>
<svg:g>
</svg:g>
<svg:g>
</svg:g>
<svg:g>
</svg:g>
<svg:g>
</svg:g>
<svg:g>
</svg:g>
<svg:g>
</svg:g>
<svg:g>
</svg:g>
<svg:g>
</svg:g>
<svg:g>
</svg:g>
<svg:g>
</svg:g>
<svg:g>
</svg:g>
<svg:g>
</svg:g>
<svg:g>
</svg:g>
<svg:g>
</svg:g>
<svg:g>
</svg:g>
<svg:g>
</svg:g>
<svg:g>
</svg:g>
<svg:g>
</svg:g>
<svg:g>
</svg:g>
<svg:g>
</svg:g>
<svg:g>
</svg:g>
<svg:g>
</svg:g>
<svg:g>
</svg:g>
<svg:g>
</svg:g>
<svg:g>
</svg:g>
<svg:g>
</svg:g>
<svg:g>
</svg:g>
<svg:g>
</svg:g>
<svg:g>
</svg:g>
<svg:g>
</svg:g>
<svg:g>
</svg:g>
<svg:g>
</svg:g>
<svg:g>
</svg:g>
<svg:g>
</svg:g>
<svg:g>
</svg:g>
<svg:g>
</svg:g>
<svg:g>
</svg:g>
<svg:g>
</svg:g>
<svg:g>
</svg:g>
<svg:g>
</svg:g>
<svg:g>
</svg:g>
<svg:g>
</svg:g>
<svg:g>
</svg:g>
<svg:g>
</svg:g>
<svg:g>
</svg:g>
<svg:g>
</svg:g>
<svg:g>
</svg:g>
<svg:g>
</svg:g>
<svg:g>
</svg:g>
</svg:g> 
</svg:g></svg:g></svg>
