%TF.GenerationSoftware,KiCad,Pcbnew,6.0.11+dfsg-1~bpo11+1*%
%TF.CreationDate,2023-06-15T06:59:51+00:00*%
%TF.ProjectId,OLED01,4f4c4544-3031-42e6-9b69-6361645f7063,rev?*%
%TF.SameCoordinates,PX72ba1e0PY737d6e0*%
%TF.FileFunction,Copper,L1,Top*%
%TF.FilePolarity,Positive*%
%FSLAX46Y46*%
G04 Gerber Fmt 4.6, Leading zero omitted, Abs format (unit mm)*
G04 Created by KiCad (PCBNEW 6.0.11+dfsg-1~bpo11+1) date 2023-06-15 06:59:51*
%MOMM*%
%LPD*%
G01*
G04 APERTURE LIST*
%TA.AperFunction,ComponentPad*%
%ADD10R,1.524000X1.524000*%
%TD*%
%TA.AperFunction,ComponentPad*%
%ADD11C,6.000000*%
%TD*%
%TA.AperFunction,ViaPad*%
%ADD12C,0.800000*%
%TD*%
%TA.AperFunction,Conductor*%
%ADD13C,0.400000*%
%TD*%
G04 APERTURE END LIST*
D10*
%TO.P,J1,1*%
%TO.N,/LED_B*%
X10940000Y62170000D03*
%TO.P,J1,2*%
X10940000Y59630000D03*
%TO.P,J1,3*%
%TO.N,/LED_A*%
X8400000Y62170000D03*
%TO.P,J1,4*%
X8400000Y59630000D03*
%TO.P,J1,5*%
%TO.N,/BUZZER*%
X5860000Y62170000D03*
%TO.P,J1,6*%
X5860000Y59630000D03*
%TD*%
D11*
%TO.P,H3,1,1*%
%TO.N,GND*%
X50800000Y0D03*
%TD*%
%TO.P,H4,1,1*%
%TO.N,GND*%
X0Y0D03*
%TD*%
D10*
%TO.P,J6,1*%
%TO.N,GND*%
X33520000Y59630000D03*
%TO.P,J6,2*%
X33520000Y62170000D03*
%TO.P,J6,3*%
%TO.N,/SCLIN*%
X36060000Y59630000D03*
%TO.P,J6,4*%
X36060000Y62170000D03*
%TO.P,J6,5*%
%TO.N,+5V*%
X38600000Y59630000D03*
%TO.P,J6,6*%
X38600000Y62170000D03*
%TO.P,J6,7*%
%TO.N,/SDAIN*%
X41140000Y59630000D03*
%TO.P,J6,8*%
X41140000Y62170000D03*
%TO.P,J6,9*%
%TO.N,GND*%
X43680000Y59630000D03*
%TO.P,J6,10*%
X43680000Y62170000D03*
%TD*%
%TO.P,J5,1*%
%TO.N,+2V5*%
X21100000Y57160000D03*
%TO.P,J5,2*%
%TO.N,/DC*%
X21100000Y59700000D03*
%TO.P,J5,3*%
%TO.N,GND*%
X21100000Y62240000D03*
%TD*%
D11*
%TO.P,H1,1,1*%
%TO.N,GND*%
X0Y61000000D03*
%TD*%
%TO.P,H2,1,1*%
%TO.N,GND*%
X50800000Y61000000D03*
%TD*%
D10*
%TO.P,DISP1,1,ESD_GND*%
%TO.N,GND*%
X1270000Y8500000D03*
%TO.P,DISP1,2*%
%TO.N,unconnected-(DISP1-Pad2)*%
X3810000Y8500000D03*
%TO.P,DISP1,3*%
%TO.N,unconnected-(DISP1-Pad3)*%
X6350000Y8500000D03*
%TO.P,DISP1,18*%
%TO.N,unconnected-(DISP1-Pad18)*%
X44450000Y8500000D03*
%TO.P,DISP1,19*%
%TO.N,unconnected-(DISP1-Pad19)*%
X46990000Y8500000D03*
%TO.P,DISP1,20,ESD_GND*%
%TO.N,GND*%
X49530000Y8500000D03*
%TO.P,DISP1,21,VCC*%
%TO.N,+12V*%
X49520000Y51300000D03*
%TO.P,DISP1,22,VCC*%
X46980000Y51300000D03*
%TO.P,DISP1,23,GND*%
%TO.N,GND*%
X44440000Y51300000D03*
%TO.P,DISP1,24,GND*%
X41900000Y51300000D03*
%TO.P,DISP1,25,VDD*%
%TO.N,+2V5*%
X39360000Y51300000D03*
%TO.P,DISP1,26,BS0*%
%TO.N,GND*%
X36820000Y51300000D03*
%TO.P,DISP1,27,BS1*%
%TO.N,+2V5*%
X34280000Y51300000D03*
%TO.P,DISP1,28,GND*%
%TO.N,GND*%
X31740000Y51300000D03*
%TO.P,DISP1,29,#CS*%
X29200000Y51300000D03*
%TO.P,DISP1,30,#RES*%
%TO.N,/#RES*%
X26660000Y51300000D03*
%TO.P,DISP1,31,D/C*%
%TO.N,/DC*%
X24120000Y51300000D03*
%TO.P,DISP1,32,D0*%
%TO.N,/D0*%
X21580000Y51300000D03*
%TO.P,DISP1,33,D1*%
%TO.N,/D1*%
X19040000Y51300000D03*
%TO.P,DISP1,34,D2*%
X16500000Y51300000D03*
%TO.P,DISP1,35,GND*%
%TO.N,GND*%
X13960000Y51300000D03*
%TO.P,DISP1,36,IRef*%
%TO.N,/Iref*%
X11420000Y51300000D03*
%TO.P,DISP1,37,VCOMH*%
%TO.N,/Vcomh*%
X8880000Y51300000D03*
%TO.P,DISP1,38,VCOMH*%
X6340000Y51300000D03*
%TO.P,DISP1,39,VCC*%
%TO.N,+12V*%
X3800000Y51300000D03*
%TO.P,DISP1,40,VCC*%
X1260000Y51300000D03*
%TD*%
%TO.P,J2,1*%
%TO.N,GND*%
X29740000Y62170000D03*
%TO.P,J2,2*%
X29740000Y59630000D03*
%TO.P,J2,3*%
%TO.N,+5V*%
X27200000Y62170000D03*
%TO.P,J2,4*%
X27200000Y59630000D03*
%TO.P,J2,5*%
%TO.N,GND*%
X24660000Y62170000D03*
%TO.P,J2,6*%
X24660000Y59630000D03*
%TD*%
%TO.P,J3,1*%
%TO.N,/#RES*%
X17020000Y62170000D03*
%TO.P,J3,2*%
X17020000Y59630000D03*
%TO.P,J3,3*%
%TO.N,/#INT*%
X14480000Y62170000D03*
%TO.P,J3,4*%
X14480000Y59630000D03*
%TD*%
D12*
%TO.N,GND*%
X40500000Y57200000D03*
X10000000Y55600000D03*
X-900000Y25500000D03*
X33400000Y39500000D03*
X15500000Y24000000D03*
X9500000Y24000000D03*
X10500000Y24000000D03*
X5200000Y54100000D03*
X26600000Y31800000D03*
X6000000Y30800000D03*
X20400000Y21800000D03*
X21075000Y9025000D03*
X16600000Y55100000D03*
X5000000Y48800000D03*
X8700000Y21800000D03*
X23800000Y21800000D03*
X600000Y29200000D03*
X8400000Y24000000D03*
X29825000Y9025000D03*
X900000Y34000000D03*
X45500000Y33350000D03*
X23100000Y58700000D03*
X16700000Y21800000D03*
X14400000Y24000000D03*
X29700000Y34700000D03*
X48200000Y33450000D03*
X8000000Y36100000D03*
X27700000Y36600000D03*
X36800000Y43000000D03*
X-1300000Y38100000D03*
X35600000Y39500000D03*
X9000000Y36100000D03*
X5100000Y46850000D03*
X-700000Y34000000D03*
X32600000Y57200000D03*
X1300000Y38100000D03*
X25000000Y33900000D03*
X10600000Y31600000D03*
X25325000Y9025000D03*
%TO.N,/#RES*%
X29100000Y49600000D03*
%TO.N,/DC*%
X17250000Y56250000D03*
%TO.N,/D1*%
X30800000Y53900000D03*
X13800000Y49700000D03*
X34700000Y56700000D03*
%TO.N,+2V5*%
X33250000Y55500000D03*
X17100000Y42200000D03*
%TO.N,+5V*%
X31100000Y38300000D03*
X44900000Y55650000D03*
X28050000Y47450000D03*
X13825000Y16275000D03*
X15550000Y32550000D03*
%TO.N,/LED_B*%
X-1550000Y24550000D03*
%TO.N,/D0*%
X32900000Y53400000D03*
X34900000Y55600000D03*
%TD*%
D13*
%TO.N,/#RES*%
X29100000Y49600000D02*
X28260000Y49600000D01*
X28260000Y49600000D02*
X26560000Y51300000D01*
X17020000Y59630000D02*
X17020000Y62170000D01*
%TO.N,/DC*%
X17250000Y56250000D02*
X20750000Y59750000D01*
%TO.N,/D1*%
X30800000Y53900000D02*
X31300000Y54400000D01*
X30500000Y53600000D02*
X20350000Y53600000D01*
X31300000Y54400000D02*
X33300000Y54400000D01*
X34100000Y55200000D02*
X34100000Y56100000D01*
X15800000Y49700000D02*
X16400000Y50300000D01*
X16400000Y50300000D02*
X16400000Y51300000D01*
X13800000Y49700000D02*
X15800000Y49700000D01*
X20350000Y53600000D02*
X18940000Y52190000D01*
X30800000Y53900000D02*
X30500000Y53600000D01*
X34100000Y56100000D02*
X34700000Y56700000D01*
X18940000Y52190000D02*
X18940000Y51300000D01*
X33300000Y54400000D02*
X34100000Y55200000D01*
%TO.N,+2V5*%
X17100000Y42200000D02*
X17800000Y42900000D01*
X32500000Y55500000D02*
X30790000Y57210000D01*
X30790000Y57210000D02*
X20750000Y57210000D01*
X17800000Y54260000D02*
X20750000Y57210000D01*
X33250000Y55500000D02*
X32500000Y55500000D01*
X17800000Y42900000D02*
X17800000Y54260000D01*
%TO.N,+5V*%
X38600000Y62170000D02*
X38600000Y57650000D01*
X30500000Y38300000D02*
X31100000Y38300000D01*
X40600000Y55650000D02*
X44900000Y55650000D01*
X30500000Y37600000D02*
X25450000Y32550000D01*
X30500000Y38300000D02*
X30500000Y37600000D01*
X25450000Y32550000D02*
X20050000Y32550000D01*
X38600000Y57650000D02*
X40600000Y55650000D01*
X20050000Y32550000D02*
X20050000Y23300000D01*
X20050000Y32550000D02*
X15550000Y32550000D01*
X13825000Y17025000D02*
X20050000Y23250000D01*
X28050000Y47450000D02*
X30500000Y45000000D01*
X30500000Y45000000D02*
X30500000Y38300000D01*
X13825000Y16275000D02*
X13825000Y17025000D01*
%TO.N,/LED_B*%
X10940000Y59530000D02*
X10940000Y62070000D01*
X10940000Y58440000D02*
X10940000Y59530000D01*
X600000Y56100000D02*
X8600000Y56100000D01*
X-3000000Y26000000D02*
X-3000000Y52500000D01*
X-3000000Y52500000D02*
X600000Y56100000D01*
X8600000Y56100000D02*
X10940000Y58440000D01*
X-1550000Y24550000D02*
X-3000000Y26000000D01*
%TO.N,/D0*%
X32450000Y52750000D02*
X22250000Y52750000D01*
X34900000Y55600000D02*
X34900000Y54000000D01*
X22250000Y52750000D02*
X21480000Y51980000D01*
X34900000Y54000000D02*
X33650000Y52750000D01*
X33650000Y52750000D02*
X32450000Y52750000D01*
X32900000Y53400000D02*
X32900000Y52800000D01*
X21480000Y51980000D02*
X21480000Y51300000D01*
%TD*%
%TA.AperFunction,Conductor*%
%TO.N,GND*%
G36*
X55238691Y65420593D02*
G01*
X55274655Y65371093D01*
X55279500Y65340500D01*
X55279500Y-4380500D01*
X55260593Y-4438691D01*
X55211093Y-4474655D01*
X55180500Y-4479500D01*
X-4380500Y-4479500D01*
X-4438691Y-4460593D01*
X-4474655Y-4411093D01*
X-4479500Y-4380500D01*
X-4479500Y-413823D01*
X22706891Y-413823D01*
X22707806Y-420820D01*
X22708873Y-428977D01*
X22709331Y-433177D01*
X22723436Y-594399D01*
X22768746Y-763498D01*
X22842732Y-922161D01*
X22943145Y-1065566D01*
X23066934Y-1189355D01*
X23210339Y-1289768D01*
X23369002Y-1363754D01*
X23438311Y-1382325D01*
X23533924Y-1407945D01*
X23533926Y-1407945D01*
X23538101Y-1409064D01*
X23565874Y-1411494D01*
X23668300Y-1420455D01*
X23676096Y-1421450D01*
X23696375Y-1424862D01*
X23696381Y-1424863D01*
X23700146Y-1425496D01*
X23703962Y-1425543D01*
X23703966Y-1425543D01*
X23706637Y-1425575D01*
X23712500Y-1425647D01*
X23741458Y-1421500D01*
X23755492Y-1420500D01*
X25062181Y-1420500D01*
X25078606Y-1421872D01*
X25096376Y-1424862D01*
X25096380Y-1424862D01*
X25100146Y-1425496D01*
X25103963Y-1425543D01*
X25103967Y-1425543D01*
X25106652Y-1425576D01*
X25112500Y-1425647D01*
X25116290Y-1425104D01*
X25116294Y-1425104D01*
X25133583Y-1422628D01*
X25138984Y-1422005D01*
X25286899Y-1409064D01*
X25455998Y-1363754D01*
X25614661Y-1289768D01*
X25758066Y-1189355D01*
X25881855Y-1065566D01*
X25982268Y-922161D01*
X26056254Y-763498D01*
X26101564Y-594399D01*
X26109875Y-499399D01*
X26112955Y-464200D01*
X26113950Y-456404D01*
X26117362Y-436125D01*
X26117363Y-436119D01*
X26117996Y-432354D01*
X26118147Y-420000D01*
X26114000Y-391042D01*
X26113000Y-377008D01*
X26113000Y-318823D01*
X27119391Y-318823D01*
X27120306Y-325820D01*
X27121373Y-333977D01*
X27121831Y-338177D01*
X27135936Y-499399D01*
X27181246Y-668498D01*
X27255232Y-827161D01*
X27355645Y-970566D01*
X27479434Y-1094355D01*
X27571777Y-1159014D01*
X27618649Y-1191834D01*
X27622839Y-1194768D01*
X27781502Y-1268754D01*
X27850664Y-1287286D01*
X27946424Y-1312945D01*
X27946426Y-1312945D01*
X27950601Y-1314064D01*
X27978374Y-1316494D01*
X28080800Y-1325455D01*
X28088596Y-1326450D01*
X28108875Y-1329862D01*
X28108881Y-1329863D01*
X28112646Y-1330496D01*
X28116462Y-1330543D01*
X28116466Y-1330543D01*
X28119137Y-1330575D01*
X28125000Y-1330647D01*
X28153958Y-1326500D01*
X28167992Y-1325500D01*
X29474681Y-1325500D01*
X29491106Y-1326872D01*
X29508876Y-1329862D01*
X29508880Y-1329862D01*
X29512646Y-1330496D01*
X29516463Y-1330543D01*
X29516467Y-1330543D01*
X29519152Y-1330576D01*
X29525000Y-1330647D01*
X29528790Y-1330104D01*
X29528794Y-1330104D01*
X29546083Y-1327628D01*
X29551484Y-1327005D01*
X29699399Y-1314064D01*
X29868498Y-1268754D01*
X30027161Y-1194768D01*
X30031352Y-1191834D01*
X30078223Y-1159014D01*
X30170566Y-1094355D01*
X30294355Y-970566D01*
X30394768Y-827161D01*
X30468754Y-668498D01*
X30514064Y-499399D01*
X30517487Y-460276D01*
X30525455Y-369200D01*
X30526450Y-361404D01*
X30529862Y-341125D01*
X30529863Y-341119D01*
X30530496Y-337354D01*
X30530647Y-325000D01*
X30526500Y-296042D01*
X30525500Y-282008D01*
X30525500Y824681D01*
X30526872Y841106D01*
X30529862Y858876D01*
X30529862Y858880D01*
X30530496Y862646D01*
X30530647Y875000D01*
X30529763Y881177D01*
X30527628Y896083D01*
X30527005Y901487D01*
X30514440Y1045098D01*
X30514064Y1049399D01*
X30468754Y1218498D01*
X30394768Y1377161D01*
X30294355Y1520566D01*
X30170566Y1644355D01*
X30027161Y1744768D01*
X29868498Y1818754D01*
X29799189Y1837325D01*
X29703576Y1862945D01*
X29703574Y1862945D01*
X29699399Y1864064D01*
X29671626Y1866494D01*
X29569200Y1875455D01*
X29561404Y1876450D01*
X29541125Y1879862D01*
X29541119Y1879863D01*
X29537354Y1880496D01*
X29533538Y1880543D01*
X29533534Y1880543D01*
X29530863Y1880575D01*
X29525000Y1880647D01*
X29496043Y1876500D01*
X29482008Y1875500D01*
X28175319Y1875500D01*
X28158894Y1876872D01*
X28141124Y1879862D01*
X28141120Y1879862D01*
X28137354Y1880496D01*
X28133537Y1880543D01*
X28133533Y1880543D01*
X28130848Y1880576D01*
X28125000Y1880647D01*
X28121210Y1880104D01*
X28121206Y1880104D01*
X28103917Y1877628D01*
X28098516Y1877005D01*
X27950601Y1864064D01*
X27781502Y1818754D01*
X27622839Y1744768D01*
X27479434Y1644355D01*
X27355645Y1520566D01*
X27255232Y1377161D01*
X27181246Y1218498D01*
X27135936Y1049399D01*
X27127625Y954399D01*
X27123853Y911291D01*
X27123051Y904690D01*
X27120476Y888152D01*
X27120476Y888146D01*
X27119391Y881177D01*
X27120306Y874181D01*
X27123664Y848500D01*
X27124500Y835664D01*
X27124500Y-278351D01*
X27123321Y-293581D01*
X27119391Y-318823D01*
X26113000Y-318823D01*
X26113000Y729681D01*
X26114372Y746106D01*
X26117362Y763876D01*
X26117362Y763880D01*
X26117996Y767646D01*
X26118147Y780000D01*
X26117263Y786177D01*
X26115128Y801083D01*
X26114505Y806487D01*
X26111476Y841106D01*
X26101564Y954399D01*
X26056254Y1123498D01*
X25982268Y1282161D01*
X25881855Y1425566D01*
X25758066Y1549355D01*
X25622392Y1644355D01*
X25618206Y1647286D01*
X25618204Y1647287D01*
X25614661Y1649768D01*
X25455998Y1723754D01*
X25370743Y1746598D01*
X25291076Y1767945D01*
X25291074Y1767945D01*
X25286899Y1769064D01*
X25259126Y1771494D01*
X25156700Y1780455D01*
X25148904Y1781450D01*
X25128625Y1784862D01*
X25128619Y1784863D01*
X25124854Y1785496D01*
X25121038Y1785543D01*
X25121034Y1785543D01*
X25118363Y1785575D01*
X25112500Y1785647D01*
X25083543Y1781500D01*
X25069508Y1780500D01*
X23762819Y1780500D01*
X23746394Y1781872D01*
X23728624Y1784862D01*
X23728620Y1784862D01*
X23724854Y1785496D01*
X23721037Y1785543D01*
X23721033Y1785543D01*
X23718348Y1785576D01*
X23712500Y1785647D01*
X23708710Y1785104D01*
X23708706Y1785104D01*
X23691417Y1782628D01*
X23686016Y1782005D01*
X23538101Y1769064D01*
X23369002Y1723754D01*
X23210339Y1649768D01*
X23206796Y1647287D01*
X23206794Y1647286D01*
X23202608Y1644355D01*
X23066934Y1549355D01*
X22943145Y1425566D01*
X22842732Y1282161D01*
X22768746Y1123498D01*
X22723436Y954399D01*
X22712811Y832951D01*
X22711353Y816291D01*
X22710551Y809690D01*
X22707976Y793152D01*
X22707976Y793146D01*
X22706891Y786177D01*
X22707806Y779181D01*
X22711164Y753500D01*
X22712000Y740664D01*
X22712000Y-373351D01*
X22710821Y-388581D01*
X22706891Y-413823D01*
X-4479500Y-413823D01*
X-4479500Y7718234D01*
X258000Y7718234D01*
X258948Y7708612D01*
X270603Y7650017D01*
X277922Y7632349D01*
X322341Y7565870D01*
X335870Y7552341D01*
X402349Y7507922D01*
X420017Y7500603D01*
X478612Y7488948D01*
X488234Y7488000D01*
X1000320Y7488000D01*
X1013005Y7492122D01*
X1016000Y7496243D01*
X1016000Y7503680D01*
X1524000Y7503680D01*
X1528122Y7490995D01*
X1532243Y7488000D01*
X2051766Y7488000D01*
X2061388Y7488948D01*
X2119983Y7500603D01*
X2137651Y7507922D01*
X2204130Y7552341D01*
X2217659Y7565870D01*
X2262078Y7632349D01*
X2269397Y7650017D01*
X2281052Y7708612D01*
X2282000Y7718234D01*
X2282000Y8230320D01*
X2277878Y8243005D01*
X2273757Y8246000D01*
X1539680Y8246000D01*
X1526995Y8241878D01*
X1524000Y8237757D01*
X1524000Y7503680D01*
X1016000Y7503680D01*
X1016000Y8230320D01*
X1011878Y8243005D01*
X1007757Y8246000D01*
X273680Y8246000D01*
X260995Y8241878D01*
X258000Y8237757D01*
X258000Y7718234D01*
X-4479500Y7718234D01*
X-4479500Y8769680D01*
X258000Y8769680D01*
X262122Y8756995D01*
X266243Y8754000D01*
X1000320Y8754000D01*
X1013005Y8758122D01*
X1016000Y8762243D01*
X1016000Y8769680D01*
X1524000Y8769680D01*
X1528122Y8756995D01*
X1532243Y8754000D01*
X2266320Y8754000D01*
X2279005Y8758122D01*
X2282000Y8762243D01*
X2282000Y9281766D01*
X2281052Y9291388D01*
X2280628Y9293519D01*
X2647500Y9293519D01*
X2647501Y7706482D01*
X2662354Y7612696D01*
X2719950Y7499658D01*
X2809658Y7409950D01*
X2816595Y7406415D01*
X2816597Y7406414D01*
X2915756Y7355890D01*
X2922696Y7352354D01*
X2930390Y7351135D01*
X2930391Y7351135D01*
X3012635Y7338109D01*
X3012637Y7338109D01*
X3016481Y7337500D01*
X3809898Y7337500D01*
X4603518Y7337501D01*
X4607361Y7338110D01*
X4607366Y7338110D01*
X4644217Y7343947D01*
X4697304Y7352354D01*
X4753823Y7381152D01*
X4803403Y7406414D01*
X4803405Y7406415D01*
X4810342Y7409950D01*
X4900050Y7499658D01*
X4926894Y7552341D01*
X4954110Y7605756D01*
X4954110Y7605757D01*
X4957646Y7612696D01*
X4972500Y7706481D01*
X4972499Y9293518D01*
X4972499Y9293519D01*
X5187500Y9293519D01*
X5187501Y7706482D01*
X5202354Y7612696D01*
X5259950Y7499658D01*
X5349658Y7409950D01*
X5356595Y7406415D01*
X5356597Y7406414D01*
X5455756Y7355890D01*
X5462696Y7352354D01*
X5470390Y7351135D01*
X5470391Y7351135D01*
X5552635Y7338109D01*
X5552637Y7338109D01*
X5556481Y7337500D01*
X6349898Y7337500D01*
X7143518Y7337501D01*
X7147361Y7338110D01*
X7147366Y7338110D01*
X7184217Y7343947D01*
X7237304Y7352354D01*
X7293823Y7381152D01*
X7343403Y7406414D01*
X7343405Y7406415D01*
X7350342Y7409950D01*
X7440050Y7499658D01*
X7466894Y7552341D01*
X7494110Y7605756D01*
X7494110Y7605757D01*
X7497646Y7612696D01*
X7512500Y7706481D01*
X7512499Y9293518D01*
X7512499Y9293519D01*
X43287500Y9293519D01*
X43287501Y7706482D01*
X43302354Y7612696D01*
X43359950Y7499658D01*
X43449658Y7409950D01*
X43456595Y7406415D01*
X43456597Y7406414D01*
X43555756Y7355890D01*
X43562696Y7352354D01*
X43570390Y7351135D01*
X43570391Y7351135D01*
X43652635Y7338109D01*
X43652637Y7338109D01*
X43656481Y7337500D01*
X44449898Y7337500D01*
X45243518Y7337501D01*
X45247361Y7338110D01*
X45247366Y7338110D01*
X45284217Y7343947D01*
X45337304Y7352354D01*
X45393823Y7381152D01*
X45443403Y7406414D01*
X45443405Y7406415D01*
X45450342Y7409950D01*
X45540050Y7499658D01*
X45566894Y7552341D01*
X45594110Y7605756D01*
X45594110Y7605757D01*
X45597646Y7612696D01*
X45612500Y7706481D01*
X45612499Y9293518D01*
X45612499Y9293519D01*
X45827500Y9293519D01*
X45827501Y7706482D01*
X45842354Y7612696D01*
X45899950Y7499658D01*
X45989658Y7409950D01*
X45996595Y7406415D01*
X45996597Y7406414D01*
X46095756Y7355890D01*
X46102696Y7352354D01*
X46110390Y7351135D01*
X46110391Y7351135D01*
X46192635Y7338109D01*
X46192637Y7338109D01*
X46196481Y7337500D01*
X46989898Y7337500D01*
X47783518Y7337501D01*
X47787361Y7338110D01*
X47787366Y7338110D01*
X47824217Y7343947D01*
X47877304Y7352354D01*
X47933823Y7381152D01*
X47983403Y7406414D01*
X47983405Y7406415D01*
X47990342Y7409950D01*
X48080050Y7499658D01*
X48106894Y7552341D01*
X48134110Y7605756D01*
X48134110Y7605757D01*
X48137646Y7612696D01*
X48152500Y7706481D01*
X48152500Y7718234D01*
X48518000Y7718234D01*
X48518948Y7708612D01*
X48530603Y7650017D01*
X48537922Y7632349D01*
X48582341Y7565870D01*
X48595870Y7552341D01*
X48662349Y7507922D01*
X48680017Y7500603D01*
X48738612Y7488948D01*
X48748234Y7488000D01*
X49260320Y7488000D01*
X49273005Y7492122D01*
X49276000Y7496243D01*
X49276000Y7503680D01*
X49784000Y7503680D01*
X49788122Y7490995D01*
X49792243Y7488000D01*
X50311766Y7488000D01*
X50321388Y7488948D01*
X50379983Y7500603D01*
X50397651Y7507922D01*
X50464130Y7552341D01*
X50477659Y7565870D01*
X50522078Y7632349D01*
X50529397Y7650017D01*
X50541052Y7708612D01*
X50542000Y7718234D01*
X50542000Y8230320D01*
X50537878Y8243005D01*
X50533757Y8246000D01*
X49799680Y8246000D01*
X49786995Y8241878D01*
X49784000Y8237757D01*
X49784000Y7503680D01*
X49276000Y7503680D01*
X49276000Y8230320D01*
X49271878Y8243005D01*
X49267757Y8246000D01*
X48533680Y8246000D01*
X48520995Y8241878D01*
X48518000Y8237757D01*
X48518000Y7718234D01*
X48152500Y7718234D01*
X48152499Y8769680D01*
X48518000Y8769680D01*
X48522122Y8756995D01*
X48526243Y8754000D01*
X49260320Y8754000D01*
X49273005Y8758122D01*
X49276000Y8762243D01*
X49276000Y8769680D01*
X49784000Y8769680D01*
X49788122Y8756995D01*
X49792243Y8754000D01*
X50526320Y8754000D01*
X50539005Y8758122D01*
X50542000Y8762243D01*
X50542000Y9281766D01*
X50541052Y9291388D01*
X50529397Y9349983D01*
X50522078Y9367651D01*
X50477659Y9434130D01*
X50464130Y9447659D01*
X50397651Y9492078D01*
X50379983Y9499397D01*
X50321388Y9511052D01*
X50311766Y9512000D01*
X49799680Y9512000D01*
X49786995Y9507878D01*
X49784000Y9503757D01*
X49784000Y8769680D01*
X49276000Y8769680D01*
X49276000Y9496320D01*
X49271878Y9509005D01*
X49267757Y9512000D01*
X48748234Y9512000D01*
X48738612Y9511052D01*
X48680017Y9499397D01*
X48662349Y9492078D01*
X48595870Y9447659D01*
X48582341Y9434130D01*
X48537922Y9367651D01*
X48530603Y9349983D01*
X48518948Y9291388D01*
X48518000Y9281766D01*
X48518000Y8769680D01*
X48152499Y8769680D01*
X48152499Y9293518D01*
X48137646Y9387304D01*
X48080050Y9500342D01*
X47990342Y9590050D01*
X47983405Y9593585D01*
X47983403Y9593586D01*
X47884244Y9644110D01*
X47884243Y9644110D01*
X47877304Y9647646D01*
X47869610Y9648865D01*
X47869609Y9648865D01*
X47787365Y9661891D01*
X47787363Y9661891D01*
X47783519Y9662500D01*
X46990102Y9662500D01*
X46196482Y9662499D01*
X46192639Y9661890D01*
X46192634Y9661890D01*
X46155783Y9656053D01*
X46102696Y9647646D01*
X46046177Y9618848D01*
X45996597Y9593586D01*
X45996595Y9593585D01*
X45989658Y9590050D01*
X45899950Y9500342D01*
X45896415Y9493405D01*
X45896414Y9493403D01*
X45866213Y9434130D01*
X45842354Y9387304D01*
X45827500Y9293519D01*
X45612499Y9293519D01*
X45597646Y9387304D01*
X45540050Y9500342D01*
X45450342Y9590050D01*
X45443405Y9593585D01*
X45443403Y9593586D01*
X45344244Y9644110D01*
X45344243Y9644110D01*
X45337304Y9647646D01*
X45329610Y9648865D01*
X45329609Y9648865D01*
X45247365Y9661891D01*
X45247363Y9661891D01*
X45243519Y9662500D01*
X44450102Y9662500D01*
X43656482Y9662499D01*
X43652639Y9661890D01*
X43652634Y9661890D01*
X43615783Y9656053D01*
X43562696Y9647646D01*
X43506177Y9618848D01*
X43456597Y9593586D01*
X43456595Y9593585D01*
X43449658Y9590050D01*
X43359950Y9500342D01*
X43356415Y9493405D01*
X43356414Y9493403D01*
X43326213Y9434130D01*
X43302354Y9387304D01*
X43287500Y9293519D01*
X7512499Y9293519D01*
X7497646Y9387304D01*
X7440050Y9500342D01*
X7350342Y9590050D01*
X7343405Y9593585D01*
X7343403Y9593586D01*
X7244244Y9644110D01*
X7244243Y9644110D01*
X7237304Y9647646D01*
X7229610Y9648865D01*
X7229609Y9648865D01*
X7147365Y9661891D01*
X7147363Y9661891D01*
X7143519Y9662500D01*
X6350102Y9662500D01*
X5556482Y9662499D01*
X5552639Y9661890D01*
X5552634Y9661890D01*
X5515783Y9656053D01*
X5462696Y9647646D01*
X5406177Y9618848D01*
X5356597Y9593586D01*
X5356595Y9593585D01*
X5349658Y9590050D01*
X5259950Y9500342D01*
X5256415Y9493405D01*
X5256414Y9493403D01*
X5226213Y9434130D01*
X5202354Y9387304D01*
X5187500Y9293519D01*
X4972499Y9293519D01*
X4957646Y9387304D01*
X4900050Y9500342D01*
X4810342Y9590050D01*
X4803405Y9593585D01*
X4803403Y9593586D01*
X4704244Y9644110D01*
X4704243Y9644110D01*
X4697304Y9647646D01*
X4689610Y9648865D01*
X4689609Y9648865D01*
X4607365Y9661891D01*
X4607363Y9661891D01*
X4603519Y9662500D01*
X3810102Y9662500D01*
X3016482Y9662499D01*
X3012639Y9661890D01*
X3012634Y9661890D01*
X2975783Y9656053D01*
X2922696Y9647646D01*
X2866177Y9618848D01*
X2816597Y9593586D01*
X2816595Y9593585D01*
X2809658Y9590050D01*
X2719950Y9500342D01*
X2716415Y9493405D01*
X2716414Y9493403D01*
X2686213Y9434130D01*
X2662354Y9387304D01*
X2647500Y9293519D01*
X2280628Y9293519D01*
X2269397Y9349983D01*
X2262078Y9367651D01*
X2217659Y9434130D01*
X2204130Y9447659D01*
X2137651Y9492078D01*
X2119983Y9499397D01*
X2061388Y9511052D01*
X2051766Y9512000D01*
X1539680Y9512000D01*
X1526995Y9507878D01*
X1524000Y9503757D01*
X1524000Y8769680D01*
X1016000Y8769680D01*
X1016000Y9496320D01*
X1011878Y9509005D01*
X1007757Y9512000D01*
X488234Y9512000D01*
X478612Y9511052D01*
X420017Y9499397D01*
X402349Y9492078D01*
X335870Y9447659D01*
X322341Y9434130D01*
X277922Y9367651D01*
X270603Y9349983D01*
X258948Y9291388D01*
X258000Y9281766D01*
X258000Y8769680D01*
X-4479500Y8769680D01*
X-4479500Y16286247D01*
X13019514Y16286247D01*
X13027424Y16205576D01*
X13036499Y16113016D01*
X13036500Y16113011D01*
X13037039Y16107514D01*
X13093726Y15937104D01*
X13096591Y15932373D01*
X13096593Y15932369D01*
X13183890Y15788225D01*
X13186759Y15783488D01*
X13311514Y15654301D01*
X13316139Y15651275D01*
X13316142Y15651272D01*
X13457163Y15558991D01*
X13461789Y15555964D01*
X13630116Y15493364D01*
X13635602Y15492632D01*
X13635606Y15492631D01*
X13797408Y15471043D01*
X13808130Y15469612D01*
X13813636Y15470113D01*
X13813638Y15470113D01*
X13897556Y15477750D01*
X13986981Y15485888D01*
X14009990Y15493364D01*
X14152517Y15539674D01*
X14152519Y15539675D01*
X14157782Y15541385D01*
X14162538Y15544220D01*
X14162540Y15544221D01*
X14307293Y15630511D01*
X14312044Y15633343D01*
X14442099Y15757193D01*
X14541483Y15906778D01*
X14605257Y16074664D01*
X14630251Y16252507D01*
X14630565Y16275000D01*
X14629921Y16280744D01*
X14611163Y16447975D01*
X14611162Y16447979D01*
X14610546Y16453472D01*
X14551485Y16623073D01*
X14485853Y16728107D01*
X14471051Y16787472D01*
X14493971Y16844203D01*
X14499806Y16850571D01*
X20502450Y22853215D01*
X20530210Y22889393D01*
X20570588Y22942013D01*
X20570590Y22942017D01*
X20574536Y22947159D01*
X20635044Y23093238D01*
X20655682Y23250000D01*
X20651347Y23282928D01*
X20650500Y23295849D01*
X20650500Y31850500D01*
X20669407Y31908691D01*
X20718907Y31944655D01*
X20749500Y31949500D01*
X25404151Y31949500D01*
X25417072Y31948653D01*
X25450000Y31944318D01*
X25482928Y31948653D01*
X25489361Y31949500D01*
X25606762Y31964956D01*
X25752841Y32025464D01*
X25878282Y32121718D01*
X25898498Y32148064D01*
X25907036Y32157801D01*
X30892203Y37142967D01*
X30901932Y37151499D01*
X30928282Y37171718D01*
X31024536Y37297159D01*
X31084333Y37441521D01*
X31124070Y37488046D01*
X31166824Y37502228D01*
X31221781Y37507230D01*
X31261981Y37510888D01*
X31267241Y37512597D01*
X31427517Y37564674D01*
X31427519Y37564675D01*
X31432782Y37566385D01*
X31437538Y37569220D01*
X31437540Y37569221D01*
X31582293Y37655511D01*
X31587044Y37658343D01*
X31717099Y37782193D01*
X31816483Y37931778D01*
X31880257Y38099664D01*
X31905251Y38277507D01*
X31905295Y38280625D01*
X31905522Y38296884D01*
X31905522Y38296892D01*
X31905565Y38300000D01*
X31885546Y38478472D01*
X31826485Y38648073D01*
X31731316Y38800375D01*
X31604770Y38927807D01*
X31453136Y39024037D01*
X31283951Y39084281D01*
X31278464Y39084935D01*
X31278461Y39084936D01*
X31187778Y39095749D01*
X31132235Y39121414D01*
X31102385Y39174824D01*
X31100500Y39194053D01*
X31100500Y44954151D01*
X31101347Y44967073D01*
X31104835Y44993567D01*
X31105682Y45000000D01*
X31085044Y45156762D01*
X31024536Y45302841D01*
X31020590Y45307983D01*
X31020588Y45307987D01*
X30952450Y45396785D01*
X30952449Y45396787D01*
X30932233Y45423134D01*
X30932229Y45423138D01*
X30928282Y45428282D01*
X30901936Y45448498D01*
X30892199Y45457036D01*
X28874562Y47474673D01*
X28846183Y47533642D01*
X28836163Y47622974D01*
X28836162Y47622976D01*
X28835546Y47628472D01*
X28776485Y47798073D01*
X28681316Y47950375D01*
X28554770Y48077807D01*
X28549855Y48080926D01*
X28407810Y48171071D01*
X28407809Y48171072D01*
X28403136Y48174037D01*
X28233951Y48234281D01*
X28228464Y48234935D01*
X28228461Y48234936D01*
X28061120Y48254890D01*
X28061117Y48254890D01*
X28055624Y48255545D01*
X27877017Y48236773D01*
X27871777Y48234989D01*
X27871776Y48234989D01*
X27712249Y48180682D01*
X27712245Y48180680D01*
X27707007Y48178897D01*
X27702297Y48175999D01*
X27702292Y48175997D01*
X27558907Y48087785D01*
X27554045Y48084794D01*
X27425732Y47959141D01*
X27328446Y47808183D01*
X27267022Y47639422D01*
X27244514Y47461247D01*
X27245054Y47455744D01*
X27261499Y47288016D01*
X27261500Y47288011D01*
X27262039Y47282514D01*
X27318726Y47112104D01*
X27321591Y47107373D01*
X27321593Y47107369D01*
X27408890Y46963225D01*
X27411759Y46958488D01*
X27536514Y46829301D01*
X27541139Y46826275D01*
X27541142Y46826272D01*
X27682163Y46733991D01*
X27686789Y46730964D01*
X27855116Y46668364D01*
X27860602Y46667632D01*
X27860606Y46667631D01*
X27968782Y46653198D01*
X28025693Y46625072D01*
X29870504Y44780261D01*
X29898281Y44725744D01*
X29899500Y44710257D01*
X29899500Y38345849D01*
X29898653Y38332928D01*
X29894318Y38300000D01*
X29895165Y38293567D01*
X29898653Y38267073D01*
X29899500Y38254151D01*
X29899500Y37889744D01*
X29880593Y37831553D01*
X29870504Y37819740D01*
X25230261Y33179496D01*
X25175744Y33151719D01*
X25160257Y33150500D01*
X20095849Y33150500D01*
X20082927Y33151347D01*
X20050000Y33155682D01*
X20017073Y33151347D01*
X20004151Y33150500D01*
X16122612Y33150500D01*
X16060580Y33172344D01*
X16058670Y33173880D01*
X16054770Y33177807D01*
X16049855Y33180926D01*
X15907810Y33271071D01*
X15907809Y33271072D01*
X15903136Y33274037D01*
X15733951Y33334281D01*
X15728464Y33334935D01*
X15728461Y33334936D01*
X15561120Y33354890D01*
X15561117Y33354890D01*
X15555624Y33355545D01*
X15377017Y33336773D01*
X15371777Y33334989D01*
X15371776Y33334989D01*
X15212249Y33280682D01*
X15212245Y33280680D01*
X15207007Y33278897D01*
X15202297Y33275999D01*
X15202292Y33275997D01*
X15058907Y33187785D01*
X15054045Y33184794D01*
X14925732Y33059141D01*
X14828446Y32908183D01*
X14767022Y32739422D01*
X14744514Y32561247D01*
X14745054Y32555744D01*
X14761499Y32388016D01*
X14761500Y32388011D01*
X14762039Y32382514D01*
X14818726Y32212104D01*
X14821591Y32207373D01*
X14821593Y32207369D01*
X14875860Y32117764D01*
X14911759Y32058488D01*
X14915607Y32054503D01*
X14915608Y32054502D01*
X14943650Y32025464D01*
X15036514Y31929301D01*
X15041139Y31926275D01*
X15041142Y31926272D01*
X15182163Y31833991D01*
X15186789Y31830964D01*
X15355116Y31768364D01*
X15360602Y31767632D01*
X15360606Y31767631D01*
X15522408Y31746043D01*
X15533130Y31744612D01*
X15538636Y31745113D01*
X15538638Y31745113D01*
X15622555Y31752750D01*
X15711981Y31760888D01*
X15734990Y31768364D01*
X15877517Y31814674D01*
X15877519Y31814675D01*
X15882782Y31816385D01*
X15887538Y31819220D01*
X15887540Y31819221D01*
X16032293Y31905511D01*
X16037044Y31908343D01*
X16051588Y31922193D01*
X16106767Y31948630D01*
X16119860Y31949500D01*
X19350500Y31949500D01*
X19408691Y31930593D01*
X19444655Y31881093D01*
X19449500Y31850500D01*
X19449500Y23539743D01*
X19430593Y23481552D01*
X19420504Y23469739D01*
X13432801Y17482036D01*
X13423064Y17473498D01*
X13396718Y17453282D01*
X13392771Y17448138D01*
X13392767Y17448134D01*
X13372551Y17421787D01*
X13372550Y17421785D01*
X13304412Y17332987D01*
X13304410Y17332983D01*
X13300464Y17327841D01*
X13239956Y17181762D01*
X13219318Y17025000D01*
X13220165Y17018567D01*
X13223653Y16992073D01*
X13224500Y16979151D01*
X13224500Y16847559D01*
X13202551Y16785922D01*
X13200732Y16784141D01*
X13103446Y16633183D01*
X13042022Y16464422D01*
X13019514Y16286247D01*
X-4479500Y16286247D01*
X-4479500Y26000000D01*
X-3605682Y26000000D01*
X-3600500Y25960639D01*
X-3585044Y25843238D01*
X-3524536Y25697159D01*
X-3428282Y25571718D01*
X-3423129Y25567764D01*
X-3401936Y25551502D01*
X-3392199Y25542964D01*
X-2374572Y24525337D01*
X-2346048Y24464994D01*
X-2337961Y24382514D01*
X-2281274Y24212104D01*
X-2278409Y24207373D01*
X-2278407Y24207369D01*
X-2191110Y24063225D01*
X-2188241Y24058488D01*
X-2063486Y23929301D01*
X-2058861Y23926275D01*
X-2058858Y23926272D01*
X-1917837Y23833991D01*
X-1913211Y23830964D01*
X-1744884Y23768364D01*
X-1739398Y23767632D01*
X-1739394Y23767631D01*
X-1577592Y23746043D01*
X-1566870Y23744612D01*
X-1561364Y23745113D01*
X-1561362Y23745113D01*
X-1477445Y23752750D01*
X-1388019Y23760888D01*
X-1365010Y23768364D01*
X-1222483Y23814674D01*
X-1222481Y23814675D01*
X-1217218Y23816385D01*
X-1212462Y23819220D01*
X-1212460Y23819221D01*
X-1067707Y23905511D01*
X-1062956Y23908343D01*
X-932901Y24032193D01*
X-833517Y24181778D01*
X-769743Y24349664D01*
X-744749Y24527507D01*
X-744435Y24550000D01*
X-764454Y24728472D01*
X-823515Y24898073D01*
X-918684Y25050375D01*
X-1045230Y25177807D01*
X-1196864Y25274037D01*
X-1366049Y25334281D01*
X-1371536Y25334935D01*
X-1371539Y25334936D01*
X-1467115Y25346332D01*
X-1525397Y25374632D01*
X-2370504Y26219739D01*
X-2398281Y26274256D01*
X-2399500Y26289743D01*
X-2399500Y52093519D01*
X97500Y52093519D01*
X97501Y50506482D01*
X98110Y50502639D01*
X98110Y50502634D01*
X100622Y50486773D01*
X112354Y50412696D01*
X169950Y50299658D01*
X259658Y50209950D01*
X266595Y50206415D01*
X266597Y50206414D01*
X330500Y50173854D01*
X372696Y50152354D01*
X380390Y50151135D01*
X380391Y50151135D01*
X462635Y50138109D01*
X462637Y50138109D01*
X466481Y50137500D01*
X1259898Y50137500D01*
X2053518Y50137501D01*
X2057361Y50138110D01*
X2057366Y50138110D01*
X2094217Y50143947D01*
X2147304Y50152354D01*
X2203823Y50181152D01*
X2253403Y50206414D01*
X2253405Y50206415D01*
X2260342Y50209950D01*
X2350050Y50299658D01*
X2376894Y50352341D01*
X2404110Y50405756D01*
X2404110Y50405757D01*
X2407646Y50412696D01*
X2410402Y50430093D01*
X2421891Y50502635D01*
X2421891Y50502637D01*
X2422500Y50506481D01*
X2422499Y52093518D01*
X2422499Y52093519D01*
X2637500Y52093519D01*
X2637501Y50506482D01*
X2638110Y50502639D01*
X2638110Y50502634D01*
X2640622Y50486773D01*
X2652354Y50412696D01*
X2709950Y50299658D01*
X2799658Y50209950D01*
X2806595Y50206415D01*
X2806597Y50206414D01*
X2870500Y50173854D01*
X2912696Y50152354D01*
X2920390Y50151135D01*
X2920391Y50151135D01*
X3002635Y50138109D01*
X3002637Y50138109D01*
X3006481Y50137500D01*
X3799898Y50137500D01*
X4593518Y50137501D01*
X4597361Y50138110D01*
X4597366Y50138110D01*
X4634217Y50143947D01*
X4687304Y50152354D01*
X4743823Y50181152D01*
X4793403Y50206414D01*
X4793405Y50206415D01*
X4800342Y50209950D01*
X4890050Y50299658D01*
X4916894Y50352341D01*
X4944110Y50405756D01*
X4944110Y50405757D01*
X4947646Y50412696D01*
X4950402Y50430093D01*
X4961891Y50502635D01*
X4961891Y50502637D01*
X4962500Y50506481D01*
X4962499Y52093518D01*
X4962499Y52093519D01*
X5177500Y52093519D01*
X5177501Y50506482D01*
X5178110Y50502639D01*
X5178110Y50502634D01*
X5180622Y50486773D01*
X5192354Y50412696D01*
X5249950Y50299658D01*
X5339658Y50209950D01*
X5346595Y50206415D01*
X5346597Y50206414D01*
X5410500Y50173854D01*
X5452696Y50152354D01*
X5460390Y50151135D01*
X5460391Y50151135D01*
X5542635Y50138109D01*
X5542637Y50138109D01*
X5546481Y50137500D01*
X6339898Y50137500D01*
X7133518Y50137501D01*
X7137361Y50138110D01*
X7137366Y50138110D01*
X7174217Y50143947D01*
X7227304Y50152354D01*
X7283823Y50181152D01*
X7333403Y50206414D01*
X7333405Y50206415D01*
X7340342Y50209950D01*
X7430050Y50299658D01*
X7456894Y50352341D01*
X7484110Y50405756D01*
X7484110Y50405757D01*
X7487646Y50412696D01*
X7490402Y50430093D01*
X7501891Y50502635D01*
X7501891Y50502637D01*
X7502500Y50506481D01*
X7502499Y52093518D01*
X7502499Y52093519D01*
X7717500Y52093519D01*
X7717501Y50506482D01*
X7718110Y50502639D01*
X7718110Y50502634D01*
X7720622Y50486773D01*
X7732354Y50412696D01*
X7789950Y50299658D01*
X7879658Y50209950D01*
X7886595Y50206415D01*
X7886597Y50206414D01*
X7950500Y50173854D01*
X7992696Y50152354D01*
X8000390Y50151135D01*
X8000391Y50151135D01*
X8082635Y50138109D01*
X8082637Y50138109D01*
X8086481Y50137500D01*
X8879898Y50137500D01*
X9673518Y50137501D01*
X9677361Y50138110D01*
X9677366Y50138110D01*
X9714217Y50143947D01*
X9767304Y50152354D01*
X9823823Y50181152D01*
X9873403Y50206414D01*
X9873405Y50206415D01*
X9880342Y50209950D01*
X9970050Y50299658D01*
X9996894Y50352341D01*
X10024110Y50405756D01*
X10024110Y50405757D01*
X10027646Y50412696D01*
X10030402Y50430093D01*
X10041891Y50502635D01*
X10041891Y50502637D01*
X10042500Y50506481D01*
X10042499Y52093518D01*
X10042499Y52093519D01*
X10257500Y52093519D01*
X10257501Y50506482D01*
X10258110Y50502639D01*
X10258110Y50502634D01*
X10260622Y50486773D01*
X10272354Y50412696D01*
X10329950Y50299658D01*
X10419658Y50209950D01*
X10426595Y50206415D01*
X10426597Y50206414D01*
X10490500Y50173854D01*
X10532696Y50152354D01*
X10540390Y50151135D01*
X10540391Y50151135D01*
X10622635Y50138109D01*
X10622637Y50138109D01*
X10626481Y50137500D01*
X11419898Y50137500D01*
X12213518Y50137501D01*
X12217361Y50138110D01*
X12217366Y50138110D01*
X12254217Y50143947D01*
X12307304Y50152354D01*
X12363823Y50181152D01*
X12413403Y50206414D01*
X12413405Y50206415D01*
X12420342Y50209950D01*
X12510050Y50299658D01*
X12536894Y50352341D01*
X12564110Y50405756D01*
X12564110Y50405757D01*
X12567646Y50412696D01*
X12570402Y50430093D01*
X12581891Y50502635D01*
X12581891Y50502637D01*
X12582500Y50506481D01*
X12582500Y50518234D01*
X12948000Y50518234D01*
X12948948Y50508612D01*
X12960603Y50450017D01*
X12967922Y50432349D01*
X13012341Y50365870D01*
X13025870Y50352341D01*
X13092350Y50307920D01*
X13098828Y50305237D01*
X13145353Y50265499D01*
X13159635Y50206004D01*
X13144156Y50160145D01*
X13129955Y50138109D01*
X13078446Y50058183D01*
X13017022Y49889422D01*
X13016328Y49883930D01*
X13016328Y49883929D01*
X13014286Y49867764D01*
X12994514Y49711247D01*
X12995054Y49705744D01*
X13011499Y49538016D01*
X13011500Y49538011D01*
X13012039Y49532514D01*
X13068726Y49362104D01*
X13071591Y49357373D01*
X13071593Y49357369D01*
X13125860Y49267764D01*
X13161759Y49208488D01*
X13165607Y49204503D01*
X13165608Y49204502D01*
X13201086Y49167764D01*
X13286514Y49079301D01*
X13291139Y49076275D01*
X13291142Y49076272D01*
X13416382Y48994318D01*
X13436789Y48980964D01*
X13605116Y48918364D01*
X13610602Y48917632D01*
X13610606Y48917631D01*
X13772408Y48896043D01*
X13783130Y48894612D01*
X13788636Y48895113D01*
X13788638Y48895113D01*
X13872556Y48902750D01*
X13961981Y48910888D01*
X13984990Y48918364D01*
X14127517Y48964674D01*
X14127519Y48964675D01*
X14132782Y48966385D01*
X14137538Y48969220D01*
X14137540Y48969221D01*
X14282293Y49055511D01*
X14287044Y49058343D01*
X14301588Y49072193D01*
X14356767Y49098630D01*
X14369860Y49099500D01*
X15754151Y49099500D01*
X15767072Y49098653D01*
X15800000Y49094318D01*
X15832928Y49098653D01*
X15839361Y49099500D01*
X15956762Y49114956D01*
X16102841Y49175464D01*
X16228282Y49271718D01*
X16248498Y49298064D01*
X16257036Y49307801D01*
X16792199Y49842964D01*
X16801936Y49851502D01*
X16823129Y49867764D01*
X16828282Y49871718D01*
X16924536Y49997159D01*
X16949813Y50058183D01*
X16957354Y50076387D01*
X16997091Y50122913D01*
X17048818Y50137501D01*
X17100500Y50137501D01*
X17158691Y50118594D01*
X17194655Y50069094D01*
X17199500Y50038501D01*
X17199500Y43189743D01*
X17180593Y43131552D01*
X17170509Y43119745D01*
X17075308Y43024543D01*
X17015652Y42996089D01*
X16970852Y42991380D01*
X16927017Y42986773D01*
X16921777Y42984989D01*
X16921776Y42984989D01*
X16762249Y42930682D01*
X16762245Y42930680D01*
X16757007Y42928897D01*
X16752297Y42925999D01*
X16752292Y42925997D01*
X16699577Y42893566D01*
X16604045Y42834794D01*
X16475732Y42709141D01*
X16378446Y42558183D01*
X16317022Y42389422D01*
X16294514Y42211247D01*
X16300274Y42152501D01*
X16311499Y42038016D01*
X16311500Y42038011D01*
X16312039Y42032514D01*
X16368726Y41862104D01*
X16371591Y41857373D01*
X16371593Y41857369D01*
X16458890Y41713225D01*
X16461759Y41708488D01*
X16586514Y41579301D01*
X16591139Y41576275D01*
X16591142Y41576272D01*
X16732163Y41483991D01*
X16736789Y41480964D01*
X16905116Y41418364D01*
X16910602Y41417632D01*
X16910606Y41417631D01*
X17072408Y41396043D01*
X17083130Y41394612D01*
X17088636Y41395113D01*
X17088638Y41395113D01*
X17172555Y41402750D01*
X17261981Y41410888D01*
X17284990Y41418364D01*
X17427517Y41464674D01*
X17427519Y41464675D01*
X17432782Y41466385D01*
X17437538Y41469220D01*
X17437540Y41469221D01*
X17582293Y41555511D01*
X17587044Y41558343D01*
X17717099Y41682193D01*
X17816483Y41831778D01*
X17880257Y41999664D01*
X17897127Y42119698D01*
X17925160Y42175924D01*
X18192203Y42442967D01*
X18201932Y42451499D01*
X18228282Y42471718D01*
X18324536Y42597159D01*
X18385044Y42743238D01*
X18396178Y42827807D01*
X18405682Y42900000D01*
X18401347Y42932928D01*
X18400500Y42945849D01*
X18400500Y50038500D01*
X18419407Y50096691D01*
X18468907Y50132655D01*
X18499500Y50137500D01*
X19779286Y50137501D01*
X19833518Y50137501D01*
X19837361Y50138110D01*
X19837366Y50138110D01*
X19874217Y50143947D01*
X19927304Y50152354D01*
X19983823Y50181152D01*
X20033403Y50206414D01*
X20033405Y50206415D01*
X20040342Y50209950D01*
X20130050Y50299658D01*
X20156894Y50352341D01*
X20184110Y50405756D01*
X20184110Y50405757D01*
X20187646Y50412696D01*
X20190402Y50430093D01*
X20201891Y50502635D01*
X20201891Y50502637D01*
X20202500Y50506481D01*
X20202499Y52093518D01*
X20187646Y52187304D01*
X20130050Y52300342D01*
X20084818Y52345574D01*
X20057041Y52400091D01*
X20066612Y52460523D01*
X20084818Y52485581D01*
X20569739Y52970503D01*
X20624256Y52998281D01*
X20639743Y52999500D01*
X21411256Y52999500D01*
X21469447Y52980593D01*
X21505411Y52931093D01*
X21505411Y52869907D01*
X21481260Y52830497D01*
X21142260Y52491496D01*
X21087743Y52463718D01*
X21072256Y52462499D01*
X20786482Y52462499D01*
X20782639Y52461890D01*
X20782634Y52461890D01*
X20745783Y52456053D01*
X20692696Y52447646D01*
X20636177Y52418848D01*
X20586597Y52393586D01*
X20586595Y52393585D01*
X20579658Y52390050D01*
X20489950Y52300342D01*
X20486415Y52293405D01*
X20486414Y52293403D01*
X20456213Y52234130D01*
X20432354Y52187304D01*
X20417500Y52093519D01*
X20417501Y50506482D01*
X20418110Y50502639D01*
X20418110Y50502634D01*
X20420622Y50486773D01*
X20432354Y50412696D01*
X20489950Y50299658D01*
X20579658Y50209950D01*
X20586595Y50206415D01*
X20586597Y50206414D01*
X20650500Y50173854D01*
X20692696Y50152354D01*
X20700390Y50151135D01*
X20700391Y50151135D01*
X20782635Y50138109D01*
X20782637Y50138109D01*
X20786481Y50137500D01*
X21579898Y50137500D01*
X22373518Y50137501D01*
X22377361Y50138110D01*
X22377366Y50138110D01*
X22414217Y50143947D01*
X22467304Y50152354D01*
X22523823Y50181152D01*
X22573403Y50206414D01*
X22573405Y50206415D01*
X22580342Y50209950D01*
X22670050Y50299658D01*
X22696894Y50352341D01*
X22724110Y50405756D01*
X22724110Y50405757D01*
X22727646Y50412696D01*
X22730402Y50430093D01*
X22741891Y50502635D01*
X22741891Y50502637D01*
X22742500Y50506481D01*
X22742499Y52050500D01*
X22761406Y52108691D01*
X22810906Y52144655D01*
X22841499Y52149500D01*
X22858500Y52149500D01*
X22916691Y52130593D01*
X22952655Y52081093D01*
X22957500Y52050500D01*
X22957501Y50506482D01*
X22958110Y50502639D01*
X22958110Y50502634D01*
X22960622Y50486773D01*
X22972354Y50412696D01*
X23029950Y50299658D01*
X23119658Y50209950D01*
X23126595Y50206415D01*
X23126597Y50206414D01*
X23190500Y50173854D01*
X23232696Y50152354D01*
X23240390Y50151135D01*
X23240391Y50151135D01*
X23322635Y50138109D01*
X23322637Y50138109D01*
X23326481Y50137500D01*
X24119898Y50137500D01*
X24913518Y50137501D01*
X24917361Y50138110D01*
X24917366Y50138110D01*
X24954217Y50143947D01*
X25007304Y50152354D01*
X25063823Y50181152D01*
X25113403Y50206414D01*
X25113405Y50206415D01*
X25120342Y50209950D01*
X25210050Y50299658D01*
X25236894Y50352341D01*
X25264110Y50405756D01*
X25264110Y50405757D01*
X25267646Y50412696D01*
X25270402Y50430093D01*
X25281891Y50502635D01*
X25281891Y50502637D01*
X25282500Y50506481D01*
X25282499Y52050500D01*
X25301406Y52108691D01*
X25350906Y52144655D01*
X25381499Y52149500D01*
X25398500Y52149500D01*
X25456691Y52130593D01*
X25492655Y52081093D01*
X25497500Y52050500D01*
X25497501Y50506482D01*
X25498110Y50502639D01*
X25498110Y50502634D01*
X25500622Y50486773D01*
X25512354Y50412696D01*
X25569950Y50299658D01*
X25659658Y50209950D01*
X25666595Y50206415D01*
X25666597Y50206414D01*
X25730500Y50173854D01*
X25772696Y50152354D01*
X25780390Y50151135D01*
X25780391Y50151135D01*
X25862635Y50138109D01*
X25862637Y50138109D01*
X25866481Y50137500D01*
X25953771Y50137500D01*
X26832256Y50137501D01*
X26890447Y50118594D01*
X26902260Y50108505D01*
X27802964Y49207801D01*
X27811502Y49198064D01*
X27831718Y49171718D01*
X27905692Y49114956D01*
X27957159Y49075464D01*
X28103238Y49014956D01*
X28260000Y48994318D01*
X28292928Y48998653D01*
X28305849Y48999500D01*
X28527423Y48999500D01*
X28585107Y48980758D01*
X28586514Y48979301D01*
X28612711Y48962158D01*
X28715933Y48894612D01*
X28736789Y48880964D01*
X28905116Y48818364D01*
X28910602Y48817632D01*
X28910606Y48817631D01*
X29072408Y48796043D01*
X29083130Y48794612D01*
X29088636Y48795113D01*
X29088638Y48795113D01*
X29172556Y48802750D01*
X29261981Y48810888D01*
X29284990Y48818364D01*
X29427517Y48864674D01*
X29427519Y48864675D01*
X29432782Y48866385D01*
X29437538Y48869220D01*
X29437540Y48869221D01*
X29582293Y48955511D01*
X29587044Y48958343D01*
X29717099Y49082193D01*
X29816483Y49231778D01*
X29880257Y49399664D01*
X29905251Y49577507D01*
X29905565Y49600000D01*
X29885546Y49778472D01*
X29826485Y49948073D01*
X29769979Y50038501D01*
X29734247Y50095685D01*
X29734245Y50095687D01*
X29731316Y50100375D01*
X29712581Y50119241D01*
X29684993Y50173854D01*
X29694775Y50234252D01*
X29738191Y50277366D01*
X29782828Y50288000D01*
X29981766Y50288000D01*
X29991388Y50288948D01*
X30049983Y50300603D01*
X30067651Y50307922D01*
X30134130Y50352341D01*
X30147659Y50365870D01*
X30192078Y50432349D01*
X30199397Y50450017D01*
X30211052Y50508612D01*
X30212000Y50518234D01*
X30728000Y50518234D01*
X30728948Y50508612D01*
X30740603Y50450017D01*
X30747922Y50432349D01*
X30792341Y50365870D01*
X30805870Y50352341D01*
X30872349Y50307922D01*
X30890017Y50300603D01*
X30948612Y50288948D01*
X30958234Y50288000D01*
X31470320Y50288000D01*
X31483005Y50292122D01*
X31486000Y50296243D01*
X31486000Y50303680D01*
X31994000Y50303680D01*
X31998122Y50290995D01*
X32002243Y50288000D01*
X32521766Y50288000D01*
X32531388Y50288948D01*
X32589983Y50300603D01*
X32607651Y50307922D01*
X32674130Y50352341D01*
X32687659Y50365870D01*
X32732078Y50432349D01*
X32739397Y50450017D01*
X32751052Y50508612D01*
X32752000Y50518234D01*
X32752000Y51030320D01*
X32747878Y51043005D01*
X32743757Y51046000D01*
X32009680Y51046000D01*
X31996995Y51041878D01*
X31994000Y51037757D01*
X31994000Y50303680D01*
X31486000Y50303680D01*
X31486000Y51030320D01*
X31481878Y51043005D01*
X31477757Y51046000D01*
X30743680Y51046000D01*
X30730995Y51041878D01*
X30728000Y51037757D01*
X30728000Y50518234D01*
X30212000Y50518234D01*
X30212000Y51030320D01*
X30207878Y51043005D01*
X30203757Y51046000D01*
X28203680Y51046000D01*
X28190995Y51041878D01*
X28188000Y51037757D01*
X28188000Y50760243D01*
X28169093Y50702052D01*
X28119593Y50666088D01*
X28058407Y50666088D01*
X28018996Y50690239D01*
X27851496Y50857739D01*
X27823719Y50912256D01*
X27822500Y50927743D01*
X27822499Y52050500D01*
X27841406Y52108691D01*
X27890906Y52144655D01*
X27921499Y52149500D01*
X28089000Y52149500D01*
X28147191Y52130593D01*
X28183155Y52081093D01*
X28188000Y52050500D01*
X28188000Y51569680D01*
X28192122Y51556995D01*
X28196243Y51554000D01*
X30196320Y51554000D01*
X30209005Y51558122D01*
X30212000Y51562243D01*
X30212000Y52050500D01*
X30230907Y52108691D01*
X30280407Y52144655D01*
X30311000Y52149500D01*
X30629000Y52149500D01*
X30687191Y52130593D01*
X30723155Y52081093D01*
X30728000Y52050500D01*
X30728000Y51569680D01*
X30732122Y51556995D01*
X30736243Y51554000D01*
X32736320Y51554000D01*
X32749005Y51558122D01*
X32752000Y51562243D01*
X32752000Y52050500D01*
X32770907Y52108691D01*
X32820407Y52144655D01*
X32851000Y52149500D01*
X33018500Y52149500D01*
X33076691Y52130593D01*
X33112655Y52081093D01*
X33117500Y52050500D01*
X33117501Y50506482D01*
X33118110Y50502639D01*
X33118110Y50502634D01*
X33120622Y50486773D01*
X33132354Y50412696D01*
X33189950Y50299658D01*
X33279658Y50209950D01*
X33286595Y50206415D01*
X33286597Y50206414D01*
X33350500Y50173854D01*
X33392696Y50152354D01*
X33400390Y50151135D01*
X33400391Y50151135D01*
X33482635Y50138109D01*
X33482637Y50138109D01*
X33486481Y50137500D01*
X34279898Y50137500D01*
X35073518Y50137501D01*
X35077361Y50138110D01*
X35077366Y50138110D01*
X35114217Y50143947D01*
X35167304Y50152354D01*
X35223823Y50181152D01*
X35273403Y50206414D01*
X35273405Y50206415D01*
X35280342Y50209950D01*
X35370050Y50299658D01*
X35396894Y50352341D01*
X35424110Y50405756D01*
X35424110Y50405757D01*
X35427646Y50412696D01*
X35430402Y50430093D01*
X35441891Y50502635D01*
X35441891Y50502637D01*
X35442500Y50506481D01*
X35442500Y50518234D01*
X35808000Y50518234D01*
X35808948Y50508612D01*
X35820603Y50450017D01*
X35827922Y50432349D01*
X35872341Y50365870D01*
X35885870Y50352341D01*
X35952349Y50307922D01*
X35970017Y50300603D01*
X36028612Y50288948D01*
X36038234Y50288000D01*
X36550320Y50288000D01*
X36563005Y50292122D01*
X36566000Y50296243D01*
X36566000Y50303680D01*
X37074000Y50303680D01*
X37078122Y50290995D01*
X37082243Y50288000D01*
X37601766Y50288000D01*
X37611388Y50288948D01*
X37669983Y50300603D01*
X37687651Y50307922D01*
X37754130Y50352341D01*
X37767659Y50365870D01*
X37812078Y50432349D01*
X37819397Y50450017D01*
X37831052Y50508612D01*
X37832000Y50518234D01*
X37832000Y51030320D01*
X37827878Y51043005D01*
X37823757Y51046000D01*
X37089680Y51046000D01*
X37076995Y51041878D01*
X37074000Y51037757D01*
X37074000Y50303680D01*
X36566000Y50303680D01*
X36566000Y51030320D01*
X36561878Y51043005D01*
X36557757Y51046000D01*
X35823680Y51046000D01*
X35810995Y51041878D01*
X35808000Y51037757D01*
X35808000Y50518234D01*
X35442500Y50518234D01*
X35442499Y51569680D01*
X35808000Y51569680D01*
X35812122Y51556995D01*
X35816243Y51554000D01*
X36550320Y51554000D01*
X36563005Y51558122D01*
X36566000Y51562243D01*
X36566000Y51569680D01*
X37074000Y51569680D01*
X37078122Y51556995D01*
X37082243Y51554000D01*
X37816320Y51554000D01*
X37829005Y51558122D01*
X37832000Y51562243D01*
X37832000Y52081766D01*
X37831052Y52091388D01*
X37830628Y52093519D01*
X38197500Y52093519D01*
X38197501Y50506482D01*
X38198110Y50502639D01*
X38198110Y50502634D01*
X38200622Y50486773D01*
X38212354Y50412696D01*
X38269950Y50299658D01*
X38359658Y50209950D01*
X38366595Y50206415D01*
X38366597Y50206414D01*
X38430500Y50173854D01*
X38472696Y50152354D01*
X38480390Y50151135D01*
X38480391Y50151135D01*
X38562635Y50138109D01*
X38562637Y50138109D01*
X38566481Y50137500D01*
X39359898Y50137500D01*
X40153518Y50137501D01*
X40157361Y50138110D01*
X40157366Y50138110D01*
X40194217Y50143947D01*
X40247304Y50152354D01*
X40303823Y50181152D01*
X40353403Y50206414D01*
X40353405Y50206415D01*
X40360342Y50209950D01*
X40450050Y50299658D01*
X40476894Y50352341D01*
X40504110Y50405756D01*
X40504110Y50405757D01*
X40507646Y50412696D01*
X40510402Y50430093D01*
X40521891Y50502635D01*
X40521891Y50502637D01*
X40522500Y50506481D01*
X40522500Y50518234D01*
X40888000Y50518234D01*
X40888948Y50508612D01*
X40900603Y50450017D01*
X40907922Y50432349D01*
X40952341Y50365870D01*
X40965870Y50352341D01*
X41032349Y50307922D01*
X41050017Y50300603D01*
X41108612Y50288948D01*
X41118234Y50288000D01*
X41630320Y50288000D01*
X41643005Y50292122D01*
X41646000Y50296243D01*
X41646000Y50303680D01*
X42154000Y50303680D01*
X42158122Y50290995D01*
X42162243Y50288000D01*
X42681766Y50288000D01*
X42691388Y50288948D01*
X42749983Y50300603D01*
X42767651Y50307922D01*
X42834130Y50352341D01*
X42847659Y50365870D01*
X42892078Y50432349D01*
X42899397Y50450017D01*
X42911052Y50508612D01*
X42912000Y50518234D01*
X43428000Y50518234D01*
X43428948Y50508612D01*
X43440603Y50450017D01*
X43447922Y50432349D01*
X43492341Y50365870D01*
X43505870Y50352341D01*
X43572349Y50307922D01*
X43590017Y50300603D01*
X43648612Y50288948D01*
X43658234Y50288000D01*
X44170320Y50288000D01*
X44183005Y50292122D01*
X44186000Y50296243D01*
X44186000Y50303680D01*
X44694000Y50303680D01*
X44698122Y50290995D01*
X44702243Y50288000D01*
X45221766Y50288000D01*
X45231388Y50288948D01*
X45289983Y50300603D01*
X45307651Y50307922D01*
X45374130Y50352341D01*
X45387659Y50365870D01*
X45432078Y50432349D01*
X45439397Y50450017D01*
X45451052Y50508612D01*
X45452000Y50518234D01*
X45452000Y51030320D01*
X45447878Y51043005D01*
X45443757Y51046000D01*
X44709680Y51046000D01*
X44696995Y51041878D01*
X44694000Y51037757D01*
X44694000Y50303680D01*
X44186000Y50303680D01*
X44186000Y51030320D01*
X44181878Y51043005D01*
X44177757Y51046000D01*
X43443680Y51046000D01*
X43430995Y51041878D01*
X43428000Y51037757D01*
X43428000Y50518234D01*
X42912000Y50518234D01*
X42912000Y51030320D01*
X42907878Y51043005D01*
X42903757Y51046000D01*
X42169680Y51046000D01*
X42156995Y51041878D01*
X42154000Y51037757D01*
X42154000Y50303680D01*
X41646000Y50303680D01*
X41646000Y51030320D01*
X41641878Y51043005D01*
X41637757Y51046000D01*
X40903680Y51046000D01*
X40890995Y51041878D01*
X40888000Y51037757D01*
X40888000Y50518234D01*
X40522500Y50518234D01*
X40522499Y51569680D01*
X40888000Y51569680D01*
X40892122Y51556995D01*
X40896243Y51554000D01*
X41630320Y51554000D01*
X41643005Y51558122D01*
X41646000Y51562243D01*
X41646000Y51569680D01*
X42154000Y51569680D01*
X42158122Y51556995D01*
X42162243Y51554000D01*
X42896320Y51554000D01*
X42909005Y51558122D01*
X42912000Y51562243D01*
X42912000Y51569680D01*
X43428000Y51569680D01*
X43432122Y51556995D01*
X43436243Y51554000D01*
X44170320Y51554000D01*
X44183005Y51558122D01*
X44186000Y51562243D01*
X44186000Y51569680D01*
X44694000Y51569680D01*
X44698122Y51556995D01*
X44702243Y51554000D01*
X45436320Y51554000D01*
X45449005Y51558122D01*
X45452000Y51562243D01*
X45452000Y52081766D01*
X45451052Y52091388D01*
X45450628Y52093519D01*
X45817500Y52093519D01*
X45817501Y50506482D01*
X45818110Y50502639D01*
X45818110Y50502634D01*
X45820622Y50486773D01*
X45832354Y50412696D01*
X45889950Y50299658D01*
X45979658Y50209950D01*
X45986595Y50206415D01*
X45986597Y50206414D01*
X46050500Y50173854D01*
X46092696Y50152354D01*
X46100390Y50151135D01*
X46100391Y50151135D01*
X46182635Y50138109D01*
X46182637Y50138109D01*
X46186481Y50137500D01*
X46979898Y50137500D01*
X47773518Y50137501D01*
X47777361Y50138110D01*
X47777366Y50138110D01*
X47814217Y50143947D01*
X47867304Y50152354D01*
X47923823Y50181152D01*
X47973403Y50206414D01*
X47973405Y50206415D01*
X47980342Y50209950D01*
X48070050Y50299658D01*
X48096894Y50352341D01*
X48124110Y50405756D01*
X48124110Y50405757D01*
X48127646Y50412696D01*
X48130402Y50430093D01*
X48141891Y50502635D01*
X48141891Y50502637D01*
X48142500Y50506481D01*
X48142499Y52093518D01*
X48142499Y52093519D01*
X48357500Y52093519D01*
X48357501Y50506482D01*
X48358110Y50502639D01*
X48358110Y50502634D01*
X48360622Y50486773D01*
X48372354Y50412696D01*
X48429950Y50299658D01*
X48519658Y50209950D01*
X48526595Y50206415D01*
X48526597Y50206414D01*
X48590500Y50173854D01*
X48632696Y50152354D01*
X48640390Y50151135D01*
X48640391Y50151135D01*
X48722635Y50138109D01*
X48722637Y50138109D01*
X48726481Y50137500D01*
X49519898Y50137500D01*
X50313518Y50137501D01*
X50317361Y50138110D01*
X50317366Y50138110D01*
X50354217Y50143947D01*
X50407304Y50152354D01*
X50463823Y50181152D01*
X50513403Y50206414D01*
X50513405Y50206415D01*
X50520342Y50209950D01*
X50610050Y50299658D01*
X50636894Y50352341D01*
X50664110Y50405756D01*
X50664110Y50405757D01*
X50667646Y50412696D01*
X50670402Y50430093D01*
X50681891Y50502635D01*
X50681891Y50502637D01*
X50682500Y50506481D01*
X50682499Y52093518D01*
X50667646Y52187304D01*
X50610050Y52300342D01*
X50520342Y52390050D01*
X50513405Y52393585D01*
X50513403Y52393586D01*
X50414244Y52444110D01*
X50414243Y52444110D01*
X50407304Y52447646D01*
X50399610Y52448865D01*
X50399609Y52448865D01*
X50317365Y52461891D01*
X50317363Y52461891D01*
X50313519Y52462500D01*
X49520102Y52462500D01*
X48726482Y52462499D01*
X48722639Y52461890D01*
X48722634Y52461890D01*
X48685783Y52456053D01*
X48632696Y52447646D01*
X48576177Y52418848D01*
X48526597Y52393586D01*
X48526595Y52393585D01*
X48519658Y52390050D01*
X48429950Y52300342D01*
X48426415Y52293405D01*
X48426414Y52293403D01*
X48396213Y52234130D01*
X48372354Y52187304D01*
X48357500Y52093519D01*
X48142499Y52093519D01*
X48127646Y52187304D01*
X48070050Y52300342D01*
X47980342Y52390050D01*
X47973405Y52393585D01*
X47973403Y52393586D01*
X47874244Y52444110D01*
X47874243Y52444110D01*
X47867304Y52447646D01*
X47859610Y52448865D01*
X47859609Y52448865D01*
X47777365Y52461891D01*
X47777363Y52461891D01*
X47773519Y52462500D01*
X46980102Y52462500D01*
X46186482Y52462499D01*
X46182639Y52461890D01*
X46182634Y52461890D01*
X46145783Y52456053D01*
X46092696Y52447646D01*
X46036177Y52418848D01*
X45986597Y52393586D01*
X45986595Y52393585D01*
X45979658Y52390050D01*
X45889950Y52300342D01*
X45886415Y52293405D01*
X45886414Y52293403D01*
X45856213Y52234130D01*
X45832354Y52187304D01*
X45817500Y52093519D01*
X45450628Y52093519D01*
X45439397Y52149983D01*
X45432078Y52167651D01*
X45387659Y52234130D01*
X45374130Y52247659D01*
X45307651Y52292078D01*
X45289983Y52299397D01*
X45231388Y52311052D01*
X45221766Y52312000D01*
X44709680Y52312000D01*
X44696995Y52307878D01*
X44694000Y52303757D01*
X44694000Y51569680D01*
X44186000Y51569680D01*
X44186000Y52296320D01*
X44181878Y52309005D01*
X44177757Y52312000D01*
X43658234Y52312000D01*
X43648612Y52311052D01*
X43590017Y52299397D01*
X43572349Y52292078D01*
X43505870Y52247659D01*
X43492341Y52234130D01*
X43447922Y52167651D01*
X43440603Y52149983D01*
X43428948Y52091388D01*
X43428000Y52081766D01*
X43428000Y51569680D01*
X42912000Y51569680D01*
X42912000Y52081766D01*
X42911052Y52091388D01*
X42899397Y52149983D01*
X42892078Y52167651D01*
X42847659Y52234130D01*
X42834130Y52247659D01*
X42767651Y52292078D01*
X42749983Y52299397D01*
X42691388Y52311052D01*
X42681766Y52312000D01*
X42169680Y52312000D01*
X42156995Y52307878D01*
X42154000Y52303757D01*
X42154000Y51569680D01*
X41646000Y51569680D01*
X41646000Y52296320D01*
X41641878Y52309005D01*
X41637757Y52312000D01*
X41118234Y52312000D01*
X41108612Y52311052D01*
X41050017Y52299397D01*
X41032349Y52292078D01*
X40965870Y52247659D01*
X40952341Y52234130D01*
X40907922Y52167651D01*
X40900603Y52149983D01*
X40888948Y52091388D01*
X40888000Y52081766D01*
X40888000Y51569680D01*
X40522499Y51569680D01*
X40522499Y52093518D01*
X40507646Y52187304D01*
X40450050Y52300342D01*
X40360342Y52390050D01*
X40353405Y52393585D01*
X40353403Y52393586D01*
X40254244Y52444110D01*
X40254243Y52444110D01*
X40247304Y52447646D01*
X40239610Y52448865D01*
X40239609Y52448865D01*
X40157365Y52461891D01*
X40157363Y52461891D01*
X40153519Y52462500D01*
X39360102Y52462500D01*
X38566482Y52462499D01*
X38562639Y52461890D01*
X38562634Y52461890D01*
X38525783Y52456053D01*
X38472696Y52447646D01*
X38416177Y52418848D01*
X38366597Y52393586D01*
X38366595Y52393585D01*
X38359658Y52390050D01*
X38269950Y52300342D01*
X38266415Y52293405D01*
X38266414Y52293403D01*
X38236213Y52234130D01*
X38212354Y52187304D01*
X38197500Y52093519D01*
X37830628Y52093519D01*
X37819397Y52149983D01*
X37812078Y52167651D01*
X37767659Y52234130D01*
X37754130Y52247659D01*
X37687651Y52292078D01*
X37669983Y52299397D01*
X37611388Y52311052D01*
X37601766Y52312000D01*
X37089680Y52312000D01*
X37076995Y52307878D01*
X37074000Y52303757D01*
X37074000Y51569680D01*
X36566000Y51569680D01*
X36566000Y52296320D01*
X36561878Y52309005D01*
X36557757Y52312000D01*
X36038234Y52312000D01*
X36028612Y52311052D01*
X35970017Y52299397D01*
X35952349Y52292078D01*
X35885870Y52247659D01*
X35872341Y52234130D01*
X35827922Y52167651D01*
X35820603Y52149983D01*
X35808948Y52091388D01*
X35808000Y52081766D01*
X35808000Y51569680D01*
X35442499Y51569680D01*
X35442499Y52093518D01*
X35427646Y52187304D01*
X35370050Y52300342D01*
X35280342Y52390050D01*
X35273405Y52393585D01*
X35273403Y52393586D01*
X35174244Y52444110D01*
X35174243Y52444110D01*
X35167304Y52447646D01*
X35159610Y52448865D01*
X35159609Y52448865D01*
X35077365Y52461891D01*
X35077363Y52461891D01*
X35073519Y52462500D01*
X35059707Y52462500D01*
X34450741Y52462499D01*
X34392551Y52481406D01*
X34356587Y52530906D01*
X34356587Y52592092D01*
X34380738Y52631503D01*
X35292199Y53542964D01*
X35301936Y53551502D01*
X35323129Y53567764D01*
X35328282Y53571718D01*
X35424536Y53697159D01*
X35485044Y53843238D01*
X35493720Y53909141D01*
X35505682Y54000000D01*
X35501347Y54032928D01*
X35500500Y54045849D01*
X35500500Y55027338D01*
X35518106Y55081524D01*
X35517099Y55082193D01*
X35593638Y55197393D01*
X35616483Y55231778D01*
X35680257Y55399664D01*
X35705251Y55577507D01*
X35705403Y55588370D01*
X35705522Y55596884D01*
X35705522Y55596892D01*
X35705565Y55600000D01*
X35697964Y55667764D01*
X35686163Y55772975D01*
X35686162Y55772979D01*
X35685546Y55778472D01*
X35626485Y55948073D01*
X35595599Y55997501D01*
X35534247Y56095685D01*
X35534245Y56095687D01*
X35531316Y56100375D01*
X35427294Y56205126D01*
X35399706Y56259738D01*
X35409489Y56320136D01*
X35412045Y56324492D01*
X35413420Y56327168D01*
X35416483Y56331778D01*
X35480257Y56499664D01*
X35505251Y56677507D01*
X35505322Y56682560D01*
X35505522Y56696884D01*
X35505522Y56696892D01*
X35505565Y56700000D01*
X35502819Y56724481D01*
X35486163Y56872975D01*
X35486162Y56872979D01*
X35485546Y56878472D01*
X35426485Y57048073D01*
X35331316Y57200375D01*
X35270109Y57262010D01*
X35208671Y57323879D01*
X35208669Y57323880D01*
X35204770Y57327807D01*
X35199855Y57330926D01*
X35057810Y57421071D01*
X35057809Y57421072D01*
X35053136Y57424037D01*
X34883951Y57484281D01*
X34878464Y57484935D01*
X34878461Y57484936D01*
X34711120Y57504890D01*
X34711117Y57504890D01*
X34705624Y57505545D01*
X34527017Y57486773D01*
X34521777Y57484989D01*
X34521776Y57484989D01*
X34362249Y57430682D01*
X34362245Y57430680D01*
X34357007Y57428897D01*
X34352297Y57425999D01*
X34352292Y57425997D01*
X34233889Y57353154D01*
X34204045Y57334794D01*
X34075732Y57209141D01*
X33978446Y57058183D01*
X33917022Y56889422D01*
X33916328Y56883928D01*
X33903461Y56782077D01*
X33875246Y56724481D01*
X33707801Y56557036D01*
X33698064Y56548498D01*
X33671718Y56528282D01*
X33667771Y56523138D01*
X33667767Y56523134D01*
X33647551Y56496787D01*
X33647550Y56496785D01*
X33579412Y56407987D01*
X33579410Y56407983D01*
X33575464Y56402841D01*
X33572983Y56396852D01*
X33572981Y56396848D01*
X33550119Y56341654D01*
X33510382Y56295128D01*
X33450887Y56280845D01*
X33437936Y56282862D01*
X33433951Y56284281D01*
X33428462Y56284936D01*
X33428460Y56284936D01*
X33261120Y56304890D01*
X33261117Y56304890D01*
X33255624Y56305545D01*
X33077017Y56286773D01*
X33071777Y56284989D01*
X33071776Y56284989D01*
X32912249Y56230682D01*
X32912245Y56230680D01*
X32907007Y56228897D01*
X32902297Y56225999D01*
X32902292Y56225997D01*
X32796119Y56160678D01*
X32736649Y56146291D01*
X32680080Y56169607D01*
X32674240Y56174995D01*
X31247036Y57602199D01*
X31238498Y57611936D01*
X31222236Y57633129D01*
X31218282Y57638282D01*
X31092841Y57734536D01*
X30946762Y57795044D01*
X30829361Y57810500D01*
X30796434Y57814835D01*
X30790000Y57815682D01*
X30757073Y57811347D01*
X30744151Y57810500D01*
X22361499Y57810500D01*
X22303308Y57829407D01*
X22267344Y57878907D01*
X22262499Y57909500D01*
X22262499Y57953518D01*
X22247646Y58047304D01*
X22204486Y58132010D01*
X22193586Y58153403D01*
X22193585Y58153405D01*
X22190050Y58160342D01*
X22100342Y58250050D01*
X22093405Y58253585D01*
X22093403Y58253586D01*
X21994244Y58304110D01*
X21994243Y58304110D01*
X21987304Y58307646D01*
X21979610Y58308865D01*
X21979609Y58308865D01*
X21897365Y58321891D01*
X21897363Y58321891D01*
X21893519Y58322500D01*
X21836394Y58322500D01*
X20410743Y58322499D01*
X20352552Y58341406D01*
X20316588Y58390906D01*
X20316588Y58452092D01*
X20340739Y58491503D01*
X20357740Y58508504D01*
X20412257Y58536281D01*
X20427744Y58537500D01*
X21762847Y58537501D01*
X21893518Y58537501D01*
X21897361Y58538110D01*
X21897366Y58538110D01*
X21934217Y58543947D01*
X21987304Y58552354D01*
X22043823Y58581152D01*
X22093403Y58606414D01*
X22093405Y58606415D01*
X22100342Y58609950D01*
X22190050Y58699658D01*
X22208444Y58735757D01*
X22244110Y58805756D01*
X22244110Y58805757D01*
X22247646Y58812696D01*
X22251414Y58836482D01*
X22253275Y58848234D01*
X23648000Y58848234D01*
X23648948Y58838612D01*
X23660603Y58780017D01*
X23667922Y58762349D01*
X23712341Y58695870D01*
X23725870Y58682341D01*
X23792349Y58637922D01*
X23810017Y58630603D01*
X23868612Y58618948D01*
X23878234Y58618000D01*
X24390320Y58618000D01*
X24403005Y58622122D01*
X24406000Y58626243D01*
X24406000Y58633680D01*
X24914000Y58633680D01*
X24918122Y58620995D01*
X24922243Y58618000D01*
X25441766Y58618000D01*
X25451388Y58618948D01*
X25509983Y58630603D01*
X25527651Y58637922D01*
X25594130Y58682341D01*
X25607659Y58695870D01*
X25652078Y58762349D01*
X25659397Y58780017D01*
X25671052Y58838612D01*
X25672000Y58848234D01*
X25672000Y59360320D01*
X25667878Y59373005D01*
X25663757Y59376000D01*
X24929680Y59376000D01*
X24916995Y59371878D01*
X24914000Y59367757D01*
X24914000Y58633680D01*
X24406000Y58633680D01*
X24406000Y59360320D01*
X24401878Y59373005D01*
X24397757Y59376000D01*
X23663680Y59376000D01*
X23650995Y59371878D01*
X23648000Y59367757D01*
X23648000Y58848234D01*
X22253275Y58848234D01*
X22261891Y58902635D01*
X22261891Y58902637D01*
X22262500Y58906481D01*
X22262499Y59899680D01*
X23648000Y59899680D01*
X23652122Y59886995D01*
X23656243Y59884000D01*
X24390320Y59884000D01*
X24403005Y59888122D01*
X24406000Y59892243D01*
X24406000Y59899680D01*
X24914000Y59899680D01*
X24918122Y59886995D01*
X24922243Y59884000D01*
X25656320Y59884000D01*
X25669005Y59888122D01*
X25672000Y59892243D01*
X25672000Y60411766D01*
X25671052Y60421388D01*
X25670628Y60423519D01*
X26037500Y60423519D01*
X26037501Y58836482D01*
X26052354Y58742696D01*
X26109950Y58629658D01*
X26199658Y58539950D01*
X26206595Y58536415D01*
X26206597Y58536414D01*
X26294740Y58491503D01*
X26312696Y58482354D01*
X26320390Y58481135D01*
X26320391Y58481135D01*
X26402635Y58468109D01*
X26402637Y58468109D01*
X26406481Y58467500D01*
X27199898Y58467500D01*
X27993518Y58467501D01*
X27997361Y58468110D01*
X27997366Y58468110D01*
X28034217Y58473947D01*
X28087304Y58482354D01*
X28155436Y58517069D01*
X28193403Y58536414D01*
X28193405Y58536415D01*
X28200342Y58539950D01*
X28290050Y58629658D01*
X28316894Y58682341D01*
X28344110Y58735756D01*
X28344110Y58735757D01*
X28347646Y58742696D01*
X28362500Y58836481D01*
X28362500Y58848234D01*
X28728000Y58848234D01*
X28728948Y58838612D01*
X28740603Y58780017D01*
X28747922Y58762349D01*
X28792341Y58695870D01*
X28805870Y58682341D01*
X28872349Y58637922D01*
X28890017Y58630603D01*
X28948612Y58618948D01*
X28958234Y58618000D01*
X29470320Y58618000D01*
X29483005Y58622122D01*
X29486000Y58626243D01*
X29486000Y58633680D01*
X29994000Y58633680D01*
X29998122Y58620995D01*
X30002243Y58618000D01*
X30521766Y58618000D01*
X30531388Y58618948D01*
X30589983Y58630603D01*
X30607651Y58637922D01*
X30674130Y58682341D01*
X30687659Y58695870D01*
X30732078Y58762349D01*
X30739397Y58780017D01*
X30751052Y58838612D01*
X30752000Y58848234D01*
X32508000Y58848234D01*
X32508948Y58838612D01*
X32520603Y58780017D01*
X32527922Y58762349D01*
X32572341Y58695870D01*
X32585870Y58682341D01*
X32652349Y58637922D01*
X32670017Y58630603D01*
X32728612Y58618948D01*
X32738234Y58618000D01*
X33250320Y58618000D01*
X33263005Y58622122D01*
X33266000Y58626243D01*
X33266000Y58633680D01*
X33774000Y58633680D01*
X33778122Y58620995D01*
X33782243Y58618000D01*
X34301766Y58618000D01*
X34311388Y58618948D01*
X34369983Y58630603D01*
X34387651Y58637922D01*
X34454130Y58682341D01*
X34467659Y58695870D01*
X34512078Y58762349D01*
X34519397Y58780017D01*
X34531052Y58838612D01*
X34532000Y58848234D01*
X34532000Y59360320D01*
X34527878Y59373005D01*
X34523757Y59376000D01*
X33789680Y59376000D01*
X33776995Y59371878D01*
X33774000Y59367757D01*
X33774000Y58633680D01*
X33266000Y58633680D01*
X33266000Y59360320D01*
X33261878Y59373005D01*
X33257757Y59376000D01*
X32523680Y59376000D01*
X32510995Y59371878D01*
X32508000Y59367757D01*
X32508000Y58848234D01*
X30752000Y58848234D01*
X30752000Y59360320D01*
X30747878Y59373005D01*
X30743757Y59376000D01*
X30009680Y59376000D01*
X29996995Y59371878D01*
X29994000Y59367757D01*
X29994000Y58633680D01*
X29486000Y58633680D01*
X29486000Y59360320D01*
X29481878Y59373005D01*
X29477757Y59376000D01*
X28743680Y59376000D01*
X28730995Y59371878D01*
X28728000Y59367757D01*
X28728000Y58848234D01*
X28362500Y58848234D01*
X28362499Y59899680D01*
X28728000Y59899680D01*
X28732122Y59886995D01*
X28736243Y59884000D01*
X29470320Y59884000D01*
X29483005Y59888122D01*
X29486000Y59892243D01*
X29486000Y59899680D01*
X29994000Y59899680D01*
X29998122Y59886995D01*
X30002243Y59884000D01*
X30736320Y59884000D01*
X30749005Y59888122D01*
X30752000Y59892243D01*
X30752000Y59899680D01*
X32508000Y59899680D01*
X32512122Y59886995D01*
X32516243Y59884000D01*
X33250320Y59884000D01*
X33263005Y59888122D01*
X33266000Y59892243D01*
X33266000Y59899680D01*
X33774000Y59899680D01*
X33778122Y59886995D01*
X33782243Y59884000D01*
X34516320Y59884000D01*
X34529005Y59888122D01*
X34532000Y59892243D01*
X34532000Y60411766D01*
X34531052Y60421388D01*
X34530628Y60423519D01*
X34897500Y60423519D01*
X34897501Y58836482D01*
X34912354Y58742696D01*
X34969950Y58629658D01*
X35059658Y58539950D01*
X35066595Y58536415D01*
X35066597Y58536414D01*
X35154740Y58491503D01*
X35172696Y58482354D01*
X35180390Y58481135D01*
X35180391Y58481135D01*
X35262635Y58468109D01*
X35262637Y58468109D01*
X35266481Y58467500D01*
X36059898Y58467500D01*
X36853518Y58467501D01*
X36857361Y58468110D01*
X36857366Y58468110D01*
X36894217Y58473947D01*
X36947304Y58482354D01*
X37015436Y58517069D01*
X37053403Y58536414D01*
X37053405Y58536415D01*
X37060342Y58539950D01*
X37150050Y58629658D01*
X37176894Y58682341D01*
X37204110Y58735756D01*
X37204110Y58735757D01*
X37207646Y58742696D01*
X37222500Y58836481D01*
X37222499Y60423518D01*
X37222499Y60423519D01*
X37437500Y60423519D01*
X37437501Y58836482D01*
X37452354Y58742696D01*
X37509950Y58629658D01*
X37599658Y58539950D01*
X37606595Y58536415D01*
X37606597Y58536414D01*
X37694740Y58491503D01*
X37712696Y58482354D01*
X37720390Y58481135D01*
X37720391Y58481135D01*
X37802635Y58468109D01*
X37802637Y58468109D01*
X37806481Y58467500D01*
X37900500Y58467500D01*
X37958691Y58448593D01*
X37994655Y58399093D01*
X37999500Y58368500D01*
X37999500Y57695849D01*
X37998653Y57682928D01*
X37994318Y57650000D01*
X37999500Y57610639D01*
X38014956Y57493238D01*
X38075464Y57347159D01*
X38171718Y57221718D01*
X38176871Y57217764D01*
X38198064Y57201502D01*
X38207801Y57192964D01*
X40142964Y55257801D01*
X40151502Y55248064D01*
X40171718Y55221718D01*
X40249409Y55162104D01*
X40297159Y55125464D01*
X40443238Y55064956D01*
X40600000Y55044318D01*
X40632928Y55048653D01*
X40645849Y55049500D01*
X44327423Y55049500D01*
X44385107Y55030758D01*
X44386514Y55029301D01*
X44536789Y54930964D01*
X44705116Y54868364D01*
X44710602Y54867632D01*
X44710606Y54867631D01*
X44872408Y54846043D01*
X44883130Y54844612D01*
X44888636Y54845113D01*
X44888638Y54845113D01*
X44972556Y54852750D01*
X45061981Y54860888D01*
X45084990Y54868364D01*
X45227517Y54914674D01*
X45227519Y54914675D01*
X45232782Y54916385D01*
X45237538Y54919220D01*
X45237540Y54919221D01*
X45362173Y54993517D01*
X45387044Y55008343D01*
X45517099Y55132193D01*
X45616483Y55281778D01*
X45680257Y55449664D01*
X45705251Y55627507D01*
X45705565Y55650000D01*
X45705218Y55653094D01*
X45686163Y55822975D01*
X45686162Y55822979D01*
X45685546Y55828472D01*
X45626485Y55998073D01*
X45560107Y56104300D01*
X45534247Y56145685D01*
X45534245Y56145687D01*
X45531316Y56150375D01*
X45430833Y56251562D01*
X45408671Y56273879D01*
X45408669Y56273880D01*
X45404770Y56277807D01*
X45399863Y56280921D01*
X45257810Y56371071D01*
X45257809Y56371072D01*
X45253136Y56374037D01*
X45083951Y56434281D01*
X45078464Y56434935D01*
X45078461Y56434936D01*
X44911120Y56454890D01*
X44911117Y56454890D01*
X44905624Y56455545D01*
X44727017Y56436773D01*
X44721777Y56434989D01*
X44721776Y56434989D01*
X44562249Y56380682D01*
X44562245Y56380680D01*
X44557007Y56378897D01*
X44552297Y56375999D01*
X44552292Y56375997D01*
X44420843Y56295128D01*
X44404045Y56284794D01*
X44400094Y56280925D01*
X44400089Y56280921D01*
X44397887Y56278765D01*
X44396358Y56278006D01*
X44395728Y56277514D01*
X44395627Y56277643D01*
X44343082Y56251562D01*
X44328623Y56250500D01*
X40889743Y56250500D01*
X40831552Y56269407D01*
X40819739Y56279496D01*
X39229496Y57869739D01*
X39201719Y57924256D01*
X39200500Y57939743D01*
X39200500Y58368501D01*
X39219407Y58426692D01*
X39268907Y58462656D01*
X39299500Y58467501D01*
X39393518Y58467501D01*
X39397361Y58468110D01*
X39397366Y58468110D01*
X39434217Y58473947D01*
X39487304Y58482354D01*
X39555436Y58517069D01*
X39593403Y58536414D01*
X39593405Y58536415D01*
X39600342Y58539950D01*
X39690050Y58629658D01*
X39716894Y58682341D01*
X39744110Y58735756D01*
X39744110Y58735757D01*
X39747646Y58742696D01*
X39762500Y58836481D01*
X39762499Y60423518D01*
X39762499Y60423519D01*
X39977500Y60423519D01*
X39977501Y58836482D01*
X39992354Y58742696D01*
X40049950Y58629658D01*
X40139658Y58539950D01*
X40146595Y58536415D01*
X40146597Y58536414D01*
X40234740Y58491503D01*
X40252696Y58482354D01*
X40260390Y58481135D01*
X40260391Y58481135D01*
X40342635Y58468109D01*
X40342637Y58468109D01*
X40346481Y58467500D01*
X41139898Y58467500D01*
X41933518Y58467501D01*
X41937361Y58468110D01*
X41937366Y58468110D01*
X41974217Y58473947D01*
X42027304Y58482354D01*
X42095436Y58517069D01*
X42133403Y58536414D01*
X42133405Y58536415D01*
X42140342Y58539950D01*
X42230050Y58629658D01*
X42256894Y58682341D01*
X42284110Y58735756D01*
X42284110Y58735757D01*
X42287646Y58742696D01*
X42302500Y58836481D01*
X42302500Y58848234D01*
X42668000Y58848234D01*
X42668948Y58838612D01*
X42680603Y58780017D01*
X42687922Y58762349D01*
X42732341Y58695870D01*
X42745870Y58682341D01*
X42812349Y58637922D01*
X42830017Y58630603D01*
X42888612Y58618948D01*
X42898234Y58618000D01*
X43410320Y58618000D01*
X43423005Y58622122D01*
X43426000Y58626243D01*
X43426000Y58633680D01*
X43934000Y58633680D01*
X43938122Y58620995D01*
X43942243Y58618000D01*
X44461766Y58618000D01*
X44471388Y58618948D01*
X44529983Y58630603D01*
X44547651Y58637922D01*
X44614130Y58682341D01*
X44627659Y58695870D01*
X44672078Y58762349D01*
X44679397Y58780017D01*
X44691052Y58838612D01*
X44692000Y58848234D01*
X44692000Y59360320D01*
X44687878Y59373005D01*
X44683757Y59376000D01*
X43949680Y59376000D01*
X43936995Y59371878D01*
X43934000Y59367757D01*
X43934000Y58633680D01*
X43426000Y58633680D01*
X43426000Y59360320D01*
X43421878Y59373005D01*
X43417757Y59376000D01*
X42683680Y59376000D01*
X42670995Y59371878D01*
X42668000Y59367757D01*
X42668000Y58848234D01*
X42302500Y58848234D01*
X42302499Y59899680D01*
X42668000Y59899680D01*
X42672122Y59886995D01*
X42676243Y59884000D01*
X43410320Y59884000D01*
X43423005Y59888122D01*
X43426000Y59892243D01*
X43426000Y59899680D01*
X43934000Y59899680D01*
X43938122Y59886995D01*
X43942243Y59884000D01*
X44676320Y59884000D01*
X44689005Y59888122D01*
X44692000Y59892243D01*
X44692000Y60411766D01*
X44691052Y60421388D01*
X44679397Y60479983D01*
X44672078Y60497651D01*
X44627659Y60564130D01*
X44614130Y60577659D01*
X44547651Y60622078D01*
X44529983Y60629397D01*
X44471388Y60641052D01*
X44461766Y60642000D01*
X43949680Y60642000D01*
X43936995Y60637878D01*
X43934000Y60633757D01*
X43934000Y59899680D01*
X43426000Y59899680D01*
X43426000Y60626320D01*
X43421878Y60639005D01*
X43417757Y60642000D01*
X42898234Y60642000D01*
X42888612Y60641052D01*
X42830017Y60629397D01*
X42812349Y60622078D01*
X42745870Y60577659D01*
X42732341Y60564130D01*
X42687922Y60497651D01*
X42680603Y60479983D01*
X42668948Y60421388D01*
X42668000Y60411766D01*
X42668000Y59899680D01*
X42302499Y59899680D01*
X42302499Y60423518D01*
X42287646Y60517304D01*
X42251979Y60587304D01*
X42233586Y60623403D01*
X42233585Y60623405D01*
X42230050Y60630342D01*
X42140342Y60720050D01*
X42133405Y60723585D01*
X42133403Y60723586D01*
X42034244Y60774110D01*
X42034243Y60774110D01*
X42027304Y60777646D01*
X42019610Y60778865D01*
X42019609Y60778865D01*
X41937365Y60791891D01*
X41937363Y60791891D01*
X41933519Y60792500D01*
X41140102Y60792500D01*
X40346482Y60792499D01*
X40342639Y60791890D01*
X40342634Y60791890D01*
X40305783Y60786053D01*
X40252696Y60777646D01*
X40196177Y60748848D01*
X40146597Y60723586D01*
X40146595Y60723585D01*
X40139658Y60720050D01*
X40049950Y60630342D01*
X40046415Y60623405D01*
X40046414Y60623403D01*
X40016213Y60564130D01*
X39992354Y60517304D01*
X39991135Y60509610D01*
X39991135Y60509609D01*
X39987970Y60489626D01*
X39977500Y60423519D01*
X39762499Y60423519D01*
X39747646Y60517304D01*
X39711979Y60587304D01*
X39693586Y60623403D01*
X39693585Y60623405D01*
X39690050Y60630342D01*
X39600342Y60720050D01*
X39593405Y60723585D01*
X39593403Y60723586D01*
X39494244Y60774110D01*
X39494243Y60774110D01*
X39487304Y60777646D01*
X39479610Y60778865D01*
X39479609Y60778865D01*
X39397365Y60791891D01*
X39397363Y60791891D01*
X39393519Y60792500D01*
X39299500Y60792500D01*
X39241309Y60811407D01*
X39205345Y60860907D01*
X39200500Y60891500D01*
X39200500Y60908501D01*
X39219407Y60966692D01*
X39268907Y61002656D01*
X39299500Y61007501D01*
X39393518Y61007501D01*
X39397361Y61008110D01*
X39397366Y61008110D01*
X39434217Y61013947D01*
X39487304Y61022354D01*
X39543823Y61051152D01*
X39593403Y61076414D01*
X39593405Y61076415D01*
X39600342Y61079950D01*
X39690050Y61169658D01*
X39716894Y61222341D01*
X39744110Y61275756D01*
X39744110Y61275757D01*
X39747646Y61282696D01*
X39751317Y61305870D01*
X39761891Y61372635D01*
X39761891Y61372637D01*
X39762500Y61376481D01*
X39762499Y62963518D01*
X39762499Y62963519D01*
X39977500Y62963519D01*
X39977501Y61376482D01*
X39978110Y61372639D01*
X39978110Y61372634D01*
X39983947Y61335783D01*
X39992354Y61282696D01*
X40049950Y61169658D01*
X40139658Y61079950D01*
X40146595Y61076415D01*
X40146597Y61076414D01*
X40245756Y61025890D01*
X40252696Y61022354D01*
X40260390Y61021135D01*
X40260391Y61021135D01*
X40342635Y61008109D01*
X40342637Y61008109D01*
X40346481Y61007500D01*
X41139898Y61007500D01*
X41933518Y61007501D01*
X41937361Y61008110D01*
X41937366Y61008110D01*
X41974217Y61013947D01*
X42027304Y61022354D01*
X42083823Y61051152D01*
X42133403Y61076414D01*
X42133405Y61076415D01*
X42140342Y61079950D01*
X42230050Y61169658D01*
X42256894Y61222341D01*
X42284110Y61275756D01*
X42284110Y61275757D01*
X42287646Y61282696D01*
X42291317Y61305870D01*
X42301891Y61372635D01*
X42301891Y61372637D01*
X42302500Y61376481D01*
X42302500Y61388234D01*
X42668000Y61388234D01*
X42668948Y61378612D01*
X42680603Y61320017D01*
X42687922Y61302349D01*
X42732341Y61235870D01*
X42745870Y61222341D01*
X42812349Y61177922D01*
X42830017Y61170603D01*
X42888612Y61158948D01*
X42898234Y61158000D01*
X43410320Y61158000D01*
X43423005Y61162122D01*
X43426000Y61166243D01*
X43426000Y61173680D01*
X43934000Y61173680D01*
X43938122Y61160995D01*
X43942243Y61158000D01*
X44461766Y61158000D01*
X44471388Y61158948D01*
X44529983Y61170603D01*
X44547651Y61177922D01*
X44614130Y61222341D01*
X44627659Y61235870D01*
X44672078Y61302349D01*
X44679397Y61320017D01*
X44691052Y61378612D01*
X44692000Y61388234D01*
X44692000Y61900320D01*
X44687878Y61913005D01*
X44683757Y61916000D01*
X43949680Y61916000D01*
X43936995Y61911878D01*
X43934000Y61907757D01*
X43934000Y61173680D01*
X43426000Y61173680D01*
X43426000Y61900320D01*
X43421878Y61913005D01*
X43417757Y61916000D01*
X42683680Y61916000D01*
X42670995Y61911878D01*
X42668000Y61907757D01*
X42668000Y61388234D01*
X42302500Y61388234D01*
X42302499Y62439680D01*
X42668000Y62439680D01*
X42672122Y62426995D01*
X42676243Y62424000D01*
X43410320Y62424000D01*
X43423005Y62428122D01*
X43426000Y62432243D01*
X43426000Y62439680D01*
X43934000Y62439680D01*
X43938122Y62426995D01*
X43942243Y62424000D01*
X44676320Y62424000D01*
X44689005Y62428122D01*
X44692000Y62432243D01*
X44692000Y62951766D01*
X44691052Y62961388D01*
X44679397Y63019983D01*
X44672078Y63037651D01*
X44627659Y63104130D01*
X44614130Y63117659D01*
X44547651Y63162078D01*
X44529983Y63169397D01*
X44471388Y63181052D01*
X44461766Y63182000D01*
X43949680Y63182000D01*
X43936995Y63177878D01*
X43934000Y63173757D01*
X43934000Y62439680D01*
X43426000Y62439680D01*
X43426000Y63166320D01*
X43421878Y63179005D01*
X43417757Y63182000D01*
X42898234Y63182000D01*
X42888612Y63181052D01*
X42830017Y63169397D01*
X42812349Y63162078D01*
X42745870Y63117659D01*
X42732341Y63104130D01*
X42687922Y63037651D01*
X42680603Y63019983D01*
X42668948Y62961388D01*
X42668000Y62951766D01*
X42668000Y62439680D01*
X42302499Y62439680D01*
X42302499Y62963518D01*
X42287646Y63057304D01*
X42230050Y63170342D01*
X42140342Y63260050D01*
X42133405Y63263585D01*
X42133403Y63263586D01*
X42034244Y63314110D01*
X42034243Y63314110D01*
X42027304Y63317646D01*
X42019610Y63318865D01*
X42019609Y63318865D01*
X41937365Y63331891D01*
X41937363Y63331891D01*
X41933519Y63332500D01*
X41140102Y63332500D01*
X40346482Y63332499D01*
X40342639Y63331890D01*
X40342634Y63331890D01*
X40305783Y63326053D01*
X40252696Y63317646D01*
X40196177Y63288848D01*
X40146597Y63263586D01*
X40146595Y63263585D01*
X40139658Y63260050D01*
X40049950Y63170342D01*
X40046415Y63163405D01*
X40046414Y63163403D01*
X40018007Y63107651D01*
X39992354Y63057304D01*
X39977500Y62963519D01*
X39762499Y62963519D01*
X39747646Y63057304D01*
X39690050Y63170342D01*
X39600342Y63260050D01*
X39593405Y63263585D01*
X39593403Y63263586D01*
X39494244Y63314110D01*
X39494243Y63314110D01*
X39487304Y63317646D01*
X39479610Y63318865D01*
X39479609Y63318865D01*
X39397365Y63331891D01*
X39397363Y63331891D01*
X39393519Y63332500D01*
X38600102Y63332500D01*
X37806482Y63332499D01*
X37802639Y63331890D01*
X37802634Y63331890D01*
X37765783Y63326053D01*
X37712696Y63317646D01*
X37656177Y63288848D01*
X37606597Y63263586D01*
X37606595Y63263585D01*
X37599658Y63260050D01*
X37509950Y63170342D01*
X37506415Y63163405D01*
X37506414Y63163403D01*
X37478007Y63107651D01*
X37452354Y63057304D01*
X37437500Y62963519D01*
X37437501Y61376482D01*
X37438110Y61372639D01*
X37438110Y61372634D01*
X37443947Y61335783D01*
X37452354Y61282696D01*
X37509950Y61169658D01*
X37599658Y61079950D01*
X37606595Y61076415D01*
X37606597Y61076414D01*
X37705756Y61025890D01*
X37712696Y61022354D01*
X37720390Y61021135D01*
X37720391Y61021135D01*
X37802635Y61008109D01*
X37802637Y61008109D01*
X37806481Y61007500D01*
X37900500Y61007500D01*
X37958691Y60988593D01*
X37994655Y60939093D01*
X37999500Y60908500D01*
X37999500Y60891499D01*
X37980593Y60833308D01*
X37931093Y60797344D01*
X37900500Y60792499D01*
X37806482Y60792499D01*
X37802639Y60791890D01*
X37802634Y60791890D01*
X37765783Y60786053D01*
X37712696Y60777646D01*
X37656177Y60748848D01*
X37606597Y60723586D01*
X37606595Y60723585D01*
X37599658Y60720050D01*
X37509950Y60630342D01*
X37506415Y60623405D01*
X37506414Y60623403D01*
X37476213Y60564130D01*
X37452354Y60517304D01*
X37451135Y60509610D01*
X37451135Y60509609D01*
X37447970Y60489626D01*
X37437500Y60423519D01*
X37222499Y60423519D01*
X37207646Y60517304D01*
X37171979Y60587304D01*
X37153586Y60623403D01*
X37153585Y60623405D01*
X37150050Y60630342D01*
X37060342Y60720050D01*
X37053405Y60723585D01*
X37053403Y60723586D01*
X36954244Y60774110D01*
X36954243Y60774110D01*
X36947304Y60777646D01*
X36939610Y60778865D01*
X36939609Y60778865D01*
X36857365Y60791891D01*
X36857363Y60791891D01*
X36853519Y60792500D01*
X36060102Y60792500D01*
X35266482Y60792499D01*
X35262639Y60791890D01*
X35262634Y60791890D01*
X35225783Y60786053D01*
X35172696Y60777646D01*
X35116177Y60748848D01*
X35066597Y60723586D01*
X35066595Y60723585D01*
X35059658Y60720050D01*
X34969950Y60630342D01*
X34966415Y60623405D01*
X34966414Y60623403D01*
X34936213Y60564130D01*
X34912354Y60517304D01*
X34911135Y60509610D01*
X34911135Y60509609D01*
X34907970Y60489626D01*
X34897500Y60423519D01*
X34530628Y60423519D01*
X34519397Y60479983D01*
X34512078Y60497651D01*
X34467659Y60564130D01*
X34454130Y60577659D01*
X34387651Y60622078D01*
X34369983Y60629397D01*
X34311388Y60641052D01*
X34301766Y60642000D01*
X33789680Y60642000D01*
X33776995Y60637878D01*
X33774000Y60633757D01*
X33774000Y59899680D01*
X33266000Y59899680D01*
X33266000Y60626320D01*
X33261878Y60639005D01*
X33257757Y60642000D01*
X32738234Y60642000D01*
X32728612Y60641052D01*
X32670017Y60629397D01*
X32652349Y60622078D01*
X32585870Y60577659D01*
X32572341Y60564130D01*
X32527922Y60497651D01*
X32520603Y60479983D01*
X32508948Y60421388D01*
X32508000Y60411766D01*
X32508000Y59899680D01*
X30752000Y59899680D01*
X30752000Y60411766D01*
X30751052Y60421388D01*
X30739397Y60479983D01*
X30732078Y60497651D01*
X30687659Y60564130D01*
X30674130Y60577659D01*
X30607651Y60622078D01*
X30589983Y60629397D01*
X30531388Y60641052D01*
X30521766Y60642000D01*
X30009680Y60642000D01*
X29996995Y60637878D01*
X29994000Y60633757D01*
X29994000Y59899680D01*
X29486000Y59899680D01*
X29486000Y60626320D01*
X29481878Y60639005D01*
X29477757Y60642000D01*
X28958234Y60642000D01*
X28948612Y60641052D01*
X28890017Y60629397D01*
X28872349Y60622078D01*
X28805870Y60577659D01*
X28792341Y60564130D01*
X28747922Y60497651D01*
X28740603Y60479983D01*
X28728948Y60421388D01*
X28728000Y60411766D01*
X28728000Y59899680D01*
X28362499Y59899680D01*
X28362499Y60423518D01*
X28347646Y60517304D01*
X28311979Y60587304D01*
X28293586Y60623403D01*
X28293585Y60623405D01*
X28290050Y60630342D01*
X28200342Y60720050D01*
X28193405Y60723585D01*
X28193403Y60723586D01*
X28094244Y60774110D01*
X28094243Y60774110D01*
X28087304Y60777646D01*
X28079610Y60778865D01*
X28079609Y60778865D01*
X27997365Y60791891D01*
X27997363Y60791891D01*
X27993519Y60792500D01*
X27200102Y60792500D01*
X26406482Y60792499D01*
X26402639Y60791890D01*
X26402634Y60791890D01*
X26365783Y60786053D01*
X26312696Y60777646D01*
X26256177Y60748848D01*
X26206597Y60723586D01*
X26206595Y60723585D01*
X26199658Y60720050D01*
X26109950Y60630342D01*
X26106415Y60623405D01*
X26106414Y60623403D01*
X26076213Y60564130D01*
X26052354Y60517304D01*
X26051135Y60509610D01*
X26051135Y60509609D01*
X26047970Y60489626D01*
X26037500Y60423519D01*
X25670628Y60423519D01*
X25659397Y60479983D01*
X25652078Y60497651D01*
X25607659Y60564130D01*
X25594130Y60577659D01*
X25527651Y60622078D01*
X25509983Y60629397D01*
X25451388Y60641052D01*
X25441766Y60642000D01*
X24929680Y60642000D01*
X24916995Y60637878D01*
X24914000Y60633757D01*
X24914000Y59899680D01*
X24406000Y59899680D01*
X24406000Y60626320D01*
X24401878Y60639005D01*
X24397757Y60642000D01*
X23878234Y60642000D01*
X23868612Y60641052D01*
X23810017Y60629397D01*
X23792349Y60622078D01*
X23725870Y60577659D01*
X23712341Y60564130D01*
X23667922Y60497651D01*
X23660603Y60479983D01*
X23648948Y60421388D01*
X23648000Y60411766D01*
X23648000Y59899680D01*
X22262499Y59899680D01*
X22262499Y60493518D01*
X22261845Y60497651D01*
X22249173Y60577659D01*
X22247646Y60587304D01*
X22190050Y60700342D01*
X22100342Y60790050D01*
X22093405Y60793585D01*
X22093403Y60793586D01*
X21994244Y60844110D01*
X21994243Y60844110D01*
X21987304Y60847646D01*
X21979610Y60848865D01*
X21979609Y60848865D01*
X21897365Y60861891D01*
X21897363Y60861891D01*
X21893519Y60862500D01*
X21100102Y60862500D01*
X20306482Y60862499D01*
X20302639Y60861890D01*
X20302634Y60861890D01*
X20265783Y60856053D01*
X20212696Y60847646D01*
X20156177Y60818848D01*
X20106597Y60793586D01*
X20106595Y60793585D01*
X20099658Y60790050D01*
X20009950Y60700342D01*
X20006415Y60693405D01*
X20006414Y60693403D01*
X19972234Y60626320D01*
X19952354Y60587304D01*
X19951135Y60579610D01*
X19951135Y60579609D01*
X19940048Y60509609D01*
X19937500Y60493519D01*
X19937500Y59827744D01*
X19918593Y59769553D01*
X19908504Y59757740D01*
X17225308Y57074543D01*
X17165652Y57046089D01*
X17120852Y57041380D01*
X17077017Y57036773D01*
X17071777Y57034989D01*
X17071776Y57034989D01*
X16912249Y56980682D01*
X16912245Y56980680D01*
X16907007Y56978897D01*
X16902297Y56975999D01*
X16902292Y56975997D01*
X16770020Y56894622D01*
X16754045Y56884794D01*
X16625732Y56759141D01*
X16528446Y56608183D01*
X16467022Y56439422D01*
X16444514Y56261247D01*
X16450017Y56205125D01*
X16461499Y56088016D01*
X16461500Y56088011D01*
X16462039Y56082514D01*
X16518726Y55912104D01*
X16521591Y55907373D01*
X16521593Y55907369D01*
X16607185Y55766041D01*
X16611759Y55758488D01*
X16736514Y55629301D01*
X16741139Y55626275D01*
X16741142Y55626272D01*
X16820373Y55574425D01*
X16886789Y55530964D01*
X17055116Y55468364D01*
X17060602Y55467632D01*
X17060606Y55467631D01*
X17222408Y55446043D01*
X17233130Y55444612D01*
X17238636Y55445113D01*
X17238638Y55445113D01*
X17322556Y55452750D01*
X17411981Y55460888D01*
X17434990Y55468364D01*
X17577517Y55514674D01*
X17577519Y55514675D01*
X17582782Y55516385D01*
X17587538Y55519220D01*
X17587540Y55519221D01*
X17686861Y55578428D01*
X17737044Y55608343D01*
X17867099Y55732193D01*
X17894195Y55772975D01*
X17963420Y55877168D01*
X17966483Y55881778D01*
X18030257Y56049664D01*
X18047127Y56169699D01*
X18075160Y56225925D01*
X19768496Y57919260D01*
X19823013Y57947037D01*
X19883445Y57937466D01*
X19926710Y57894201D01*
X19937500Y57849256D01*
X19937500Y57287743D01*
X19918593Y57229552D01*
X19908504Y57217739D01*
X17407801Y54717036D01*
X17398064Y54708498D01*
X17371718Y54688282D01*
X17322421Y54624037D01*
X17275464Y54562841D01*
X17214956Y54416762D01*
X17194318Y54260000D01*
X17195165Y54253567D01*
X17198653Y54227073D01*
X17199500Y54214151D01*
X17199500Y52561500D01*
X17180593Y52503309D01*
X17131093Y52467345D01*
X17100500Y52462500D01*
X15762985Y52462499D01*
X15706482Y52462499D01*
X15702639Y52461890D01*
X15702634Y52461890D01*
X15665783Y52456053D01*
X15612696Y52447646D01*
X15556177Y52418848D01*
X15506597Y52393586D01*
X15506595Y52393585D01*
X15499658Y52390050D01*
X15409950Y52300342D01*
X15406415Y52293405D01*
X15406414Y52293403D01*
X15376213Y52234130D01*
X15352354Y52187304D01*
X15337500Y52093519D01*
X15337501Y50506482D01*
X15338111Y50502631D01*
X15351991Y50414985D01*
X15342419Y50354553D01*
X15299154Y50311290D01*
X15254210Y50300500D01*
X15045629Y50300500D01*
X14987438Y50319407D01*
X14951474Y50368907D01*
X14951474Y50430093D01*
X14954165Y50437386D01*
X14959397Y50450017D01*
X14971052Y50508612D01*
X14972000Y50518234D01*
X14972000Y51030320D01*
X14967878Y51043005D01*
X14963757Y51046000D01*
X12963680Y51046000D01*
X12950995Y51041878D01*
X12948000Y51037757D01*
X12948000Y50518234D01*
X12582500Y50518234D01*
X12582499Y51569680D01*
X12948000Y51569680D01*
X12952122Y51556995D01*
X12956243Y51554000D01*
X13690320Y51554000D01*
X13703005Y51558122D01*
X13706000Y51562243D01*
X13706000Y51569680D01*
X14214000Y51569680D01*
X14218122Y51556995D01*
X14222243Y51554000D01*
X14956320Y51554000D01*
X14969005Y51558122D01*
X14972000Y51562243D01*
X14972000Y52081766D01*
X14971052Y52091388D01*
X14959397Y52149983D01*
X14952078Y52167651D01*
X14907659Y52234130D01*
X14894130Y52247659D01*
X14827651Y52292078D01*
X14809983Y52299397D01*
X14751388Y52311052D01*
X14741766Y52312000D01*
X14229680Y52312000D01*
X14216995Y52307878D01*
X14214000Y52303757D01*
X14214000Y51569680D01*
X13706000Y51569680D01*
X13706000Y52296320D01*
X13701878Y52309005D01*
X13697757Y52312000D01*
X13178234Y52312000D01*
X13168612Y52311052D01*
X13110017Y52299397D01*
X13092349Y52292078D01*
X13025870Y52247659D01*
X13012341Y52234130D01*
X12967922Y52167651D01*
X12960603Y52149983D01*
X12948948Y52091388D01*
X12948000Y52081766D01*
X12948000Y51569680D01*
X12582499Y51569680D01*
X12582499Y52093518D01*
X12567646Y52187304D01*
X12510050Y52300342D01*
X12420342Y52390050D01*
X12413405Y52393585D01*
X12413403Y52393586D01*
X12314244Y52444110D01*
X12314243Y52444110D01*
X12307304Y52447646D01*
X12299610Y52448865D01*
X12299609Y52448865D01*
X12217365Y52461891D01*
X12217363Y52461891D01*
X12213519Y52462500D01*
X11420102Y52462500D01*
X10626482Y52462499D01*
X10622639Y52461890D01*
X10622634Y52461890D01*
X10585783Y52456053D01*
X10532696Y52447646D01*
X10476177Y52418848D01*
X10426597Y52393586D01*
X10426595Y52393585D01*
X10419658Y52390050D01*
X10329950Y52300342D01*
X10326415Y52293405D01*
X10326414Y52293403D01*
X10296213Y52234130D01*
X10272354Y52187304D01*
X10257500Y52093519D01*
X10042499Y52093519D01*
X10027646Y52187304D01*
X9970050Y52300342D01*
X9880342Y52390050D01*
X9873405Y52393585D01*
X9873403Y52393586D01*
X9774244Y52444110D01*
X9774243Y52444110D01*
X9767304Y52447646D01*
X9759610Y52448865D01*
X9759609Y52448865D01*
X9677365Y52461891D01*
X9677363Y52461891D01*
X9673519Y52462500D01*
X8880102Y52462500D01*
X8086482Y52462499D01*
X8082639Y52461890D01*
X8082634Y52461890D01*
X8045783Y52456053D01*
X7992696Y52447646D01*
X7936177Y52418848D01*
X7886597Y52393586D01*
X7886595Y52393585D01*
X7879658Y52390050D01*
X7789950Y52300342D01*
X7786415Y52293405D01*
X7786414Y52293403D01*
X7756213Y52234130D01*
X7732354Y52187304D01*
X7717500Y52093519D01*
X7502499Y52093519D01*
X7487646Y52187304D01*
X7430050Y52300342D01*
X7340342Y52390050D01*
X7333405Y52393585D01*
X7333403Y52393586D01*
X7234244Y52444110D01*
X7234243Y52444110D01*
X7227304Y52447646D01*
X7219610Y52448865D01*
X7219609Y52448865D01*
X7137365Y52461891D01*
X7137363Y52461891D01*
X7133519Y52462500D01*
X6340102Y52462500D01*
X5546482Y52462499D01*
X5542639Y52461890D01*
X5542634Y52461890D01*
X5505783Y52456053D01*
X5452696Y52447646D01*
X5396177Y52418848D01*
X5346597Y52393586D01*
X5346595Y52393585D01*
X5339658Y52390050D01*
X5249950Y52300342D01*
X5246415Y52293405D01*
X5246414Y52293403D01*
X5216213Y52234130D01*
X5192354Y52187304D01*
X5177500Y52093519D01*
X4962499Y52093519D01*
X4947646Y52187304D01*
X4890050Y52300342D01*
X4800342Y52390050D01*
X4793405Y52393585D01*
X4793403Y52393586D01*
X4694244Y52444110D01*
X4694243Y52444110D01*
X4687304Y52447646D01*
X4679610Y52448865D01*
X4679609Y52448865D01*
X4597365Y52461891D01*
X4597363Y52461891D01*
X4593519Y52462500D01*
X3800102Y52462500D01*
X3006482Y52462499D01*
X3002639Y52461890D01*
X3002634Y52461890D01*
X2965783Y52456053D01*
X2912696Y52447646D01*
X2856177Y52418848D01*
X2806597Y52393586D01*
X2806595Y52393585D01*
X2799658Y52390050D01*
X2709950Y52300342D01*
X2706415Y52293405D01*
X2706414Y52293403D01*
X2676213Y52234130D01*
X2652354Y52187304D01*
X2637500Y52093519D01*
X2422499Y52093519D01*
X2407646Y52187304D01*
X2350050Y52300342D01*
X2260342Y52390050D01*
X2253405Y52393585D01*
X2253403Y52393586D01*
X2154244Y52444110D01*
X2154243Y52444110D01*
X2147304Y52447646D01*
X2139610Y52448865D01*
X2139609Y52448865D01*
X2057365Y52461891D01*
X2057363Y52461891D01*
X2053519Y52462500D01*
X1260102Y52462500D01*
X466482Y52462499D01*
X462639Y52461890D01*
X462634Y52461890D01*
X425783Y52456053D01*
X372696Y52447646D01*
X316177Y52418848D01*
X266597Y52393586D01*
X266595Y52393585D01*
X259658Y52390050D01*
X169950Y52300342D01*
X166415Y52293405D01*
X166414Y52293403D01*
X136213Y52234130D01*
X112354Y52187304D01*
X97500Y52093519D01*
X-2399500Y52093519D01*
X-2399500Y52210257D01*
X-2380593Y52268448D01*
X-2370504Y52280261D01*
X819739Y55470504D01*
X874256Y55498281D01*
X889743Y55499500D01*
X8554151Y55499500D01*
X8567072Y55498653D01*
X8600000Y55494318D01*
X8632928Y55498653D01*
X8639361Y55499500D01*
X8756762Y55514956D01*
X8902841Y55575464D01*
X9028282Y55671718D01*
X9048498Y55698064D01*
X9057036Y55707801D01*
X11332199Y57982964D01*
X11341936Y57991502D01*
X11363129Y58007764D01*
X11368282Y58011718D01*
X11464536Y58137159D01*
X11525044Y58283238D01*
X11537970Y58381424D01*
X11564311Y58436648D01*
X11618081Y58465843D01*
X11636123Y58467501D01*
X11733518Y58467501D01*
X11737361Y58468110D01*
X11737366Y58468110D01*
X11774217Y58473947D01*
X11827304Y58482354D01*
X11895436Y58517069D01*
X11933403Y58536414D01*
X11933405Y58536415D01*
X11940342Y58539950D01*
X12030050Y58629658D01*
X12056894Y58682341D01*
X12084110Y58735756D01*
X12084110Y58735757D01*
X12087646Y58742696D01*
X12102500Y58836481D01*
X12102499Y60423518D01*
X12102499Y60423519D01*
X13317500Y60423519D01*
X13317501Y58836482D01*
X13332354Y58742696D01*
X13389950Y58629658D01*
X13479658Y58539950D01*
X13486595Y58536415D01*
X13486597Y58536414D01*
X13574740Y58491503D01*
X13592696Y58482354D01*
X13600390Y58481135D01*
X13600391Y58481135D01*
X13682635Y58468109D01*
X13682637Y58468109D01*
X13686481Y58467500D01*
X14479898Y58467500D01*
X15273518Y58467501D01*
X15277361Y58468110D01*
X15277366Y58468110D01*
X15314217Y58473947D01*
X15367304Y58482354D01*
X15435436Y58517069D01*
X15473403Y58536414D01*
X15473405Y58536415D01*
X15480342Y58539950D01*
X15570050Y58629658D01*
X15596894Y58682341D01*
X15624110Y58735756D01*
X15624110Y58735757D01*
X15627646Y58742696D01*
X15642500Y58836481D01*
X15642499Y60423518D01*
X15642499Y60423519D01*
X15857500Y60423519D01*
X15857501Y58836482D01*
X15872354Y58742696D01*
X15929950Y58629658D01*
X16019658Y58539950D01*
X16026595Y58536415D01*
X16026597Y58536414D01*
X16114740Y58491503D01*
X16132696Y58482354D01*
X16140390Y58481135D01*
X16140391Y58481135D01*
X16222635Y58468109D01*
X16222637Y58468109D01*
X16226481Y58467500D01*
X17019898Y58467500D01*
X17813518Y58467501D01*
X17817361Y58468110D01*
X17817366Y58468110D01*
X17854217Y58473947D01*
X17907304Y58482354D01*
X17975436Y58517069D01*
X18013403Y58536414D01*
X18013405Y58536415D01*
X18020342Y58539950D01*
X18110050Y58629658D01*
X18136894Y58682341D01*
X18164110Y58735756D01*
X18164110Y58735757D01*
X18167646Y58742696D01*
X18182500Y58836481D01*
X18182499Y60423518D01*
X18167646Y60517304D01*
X18131979Y60587304D01*
X18113586Y60623403D01*
X18113585Y60623405D01*
X18110050Y60630342D01*
X18020342Y60720050D01*
X18013405Y60723585D01*
X18013403Y60723586D01*
X17914244Y60774110D01*
X17914243Y60774110D01*
X17907304Y60777646D01*
X17899610Y60778865D01*
X17899609Y60778865D01*
X17817365Y60791891D01*
X17817363Y60791891D01*
X17813519Y60792500D01*
X17719500Y60792500D01*
X17661309Y60811407D01*
X17625345Y60860907D01*
X17620500Y60891500D01*
X17620500Y60908501D01*
X17639407Y60966692D01*
X17688907Y61002656D01*
X17719500Y61007501D01*
X17813518Y61007501D01*
X17817361Y61008110D01*
X17817366Y61008110D01*
X17854217Y61013947D01*
X17907304Y61022354D01*
X17963823Y61051152D01*
X18013403Y61076414D01*
X18013405Y61076415D01*
X18020342Y61079950D01*
X18110050Y61169658D01*
X18136894Y61222341D01*
X18164110Y61275756D01*
X18164110Y61275757D01*
X18167646Y61282696D01*
X18171317Y61305870D01*
X18181891Y61372635D01*
X18181891Y61372637D01*
X18182500Y61376481D01*
X18182500Y61458234D01*
X20088000Y61458234D01*
X20088948Y61448612D01*
X20100603Y61390017D01*
X20107922Y61372349D01*
X20152341Y61305870D01*
X20165870Y61292341D01*
X20232349Y61247922D01*
X20250017Y61240603D01*
X20308612Y61228948D01*
X20318234Y61228000D01*
X20830320Y61228000D01*
X20843005Y61232122D01*
X20846000Y61236243D01*
X20846000Y61243680D01*
X21354000Y61243680D01*
X21358122Y61230995D01*
X21362243Y61228000D01*
X21881766Y61228000D01*
X21891388Y61228948D01*
X21949983Y61240603D01*
X21967651Y61247922D01*
X22034130Y61292341D01*
X22047659Y61305870D01*
X22092078Y61372349D01*
X22098658Y61388234D01*
X23648000Y61388234D01*
X23648948Y61378612D01*
X23660603Y61320017D01*
X23667922Y61302349D01*
X23712341Y61235870D01*
X23725870Y61222341D01*
X23792349Y61177922D01*
X23810017Y61170603D01*
X23868612Y61158948D01*
X23878234Y61158000D01*
X24390320Y61158000D01*
X24403005Y61162122D01*
X24406000Y61166243D01*
X24406000Y61173680D01*
X24914000Y61173680D01*
X24918122Y61160995D01*
X24922243Y61158000D01*
X25441766Y61158000D01*
X25451388Y61158948D01*
X25509983Y61170603D01*
X25527651Y61177922D01*
X25594130Y61222341D01*
X25607659Y61235870D01*
X25652078Y61302349D01*
X25659397Y61320017D01*
X25671052Y61378612D01*
X25672000Y61388234D01*
X25672000Y61900320D01*
X25667878Y61913005D01*
X25663757Y61916000D01*
X24929680Y61916000D01*
X24916995Y61911878D01*
X24914000Y61907757D01*
X24914000Y61173680D01*
X24406000Y61173680D01*
X24406000Y61900320D01*
X24401878Y61913005D01*
X24397757Y61916000D01*
X23663680Y61916000D01*
X23650995Y61911878D01*
X23648000Y61907757D01*
X23648000Y61388234D01*
X22098658Y61388234D01*
X22099397Y61390017D01*
X22111052Y61448612D01*
X22112000Y61458234D01*
X22112000Y61970320D01*
X22107878Y61983005D01*
X22103757Y61986000D01*
X21369680Y61986000D01*
X21356995Y61981878D01*
X21354000Y61977757D01*
X21354000Y61243680D01*
X20846000Y61243680D01*
X20846000Y61970320D01*
X20841878Y61983005D01*
X20837757Y61986000D01*
X20103680Y61986000D01*
X20090995Y61981878D01*
X20088000Y61977757D01*
X20088000Y61458234D01*
X18182500Y61458234D01*
X18182499Y62439680D01*
X23648000Y62439680D01*
X23652122Y62426995D01*
X23656243Y62424000D01*
X24390320Y62424000D01*
X24403005Y62428122D01*
X24406000Y62432243D01*
X24406000Y62439680D01*
X24914000Y62439680D01*
X24918122Y62426995D01*
X24922243Y62424000D01*
X25656320Y62424000D01*
X25669005Y62428122D01*
X25672000Y62432243D01*
X25672000Y62951766D01*
X25671052Y62961388D01*
X25670628Y62963519D01*
X26037500Y62963519D01*
X26037501Y61376482D01*
X26038110Y61372639D01*
X26038110Y61372634D01*
X26043947Y61335783D01*
X26052354Y61282696D01*
X26109950Y61169658D01*
X26199658Y61079950D01*
X26206595Y61076415D01*
X26206597Y61076414D01*
X26305756Y61025890D01*
X26312696Y61022354D01*
X26320390Y61021135D01*
X26320391Y61021135D01*
X26402635Y61008109D01*
X26402637Y61008109D01*
X26406481Y61007500D01*
X27199898Y61007500D01*
X27993518Y61007501D01*
X27997361Y61008110D01*
X27997366Y61008110D01*
X28034217Y61013947D01*
X28087304Y61022354D01*
X28143823Y61051152D01*
X28193403Y61076414D01*
X28193405Y61076415D01*
X28200342Y61079950D01*
X28290050Y61169658D01*
X28316894Y61222341D01*
X28344110Y61275756D01*
X28344110Y61275757D01*
X28347646Y61282696D01*
X28351317Y61305870D01*
X28361891Y61372635D01*
X28361891Y61372637D01*
X28362500Y61376481D01*
X28362500Y61388234D01*
X28728000Y61388234D01*
X28728948Y61378612D01*
X28740603Y61320017D01*
X28747922Y61302349D01*
X28792341Y61235870D01*
X28805870Y61222341D01*
X28872349Y61177922D01*
X28890017Y61170603D01*
X28948612Y61158948D01*
X28958234Y61158000D01*
X29470320Y61158000D01*
X29483005Y61162122D01*
X29486000Y61166243D01*
X29486000Y61173680D01*
X29994000Y61173680D01*
X29998122Y61160995D01*
X30002243Y61158000D01*
X30521766Y61158000D01*
X30531388Y61158948D01*
X30589983Y61170603D01*
X30607651Y61177922D01*
X30674130Y61222341D01*
X30687659Y61235870D01*
X30732078Y61302349D01*
X30739397Y61320017D01*
X30751052Y61378612D01*
X30752000Y61388234D01*
X32508000Y61388234D01*
X32508948Y61378612D01*
X32520603Y61320017D01*
X32527922Y61302349D01*
X32572341Y61235870D01*
X32585870Y61222341D01*
X32652349Y61177922D01*
X32670017Y61170603D01*
X32728612Y61158948D01*
X32738234Y61158000D01*
X33250320Y61158000D01*
X33263005Y61162122D01*
X33266000Y61166243D01*
X33266000Y61173680D01*
X33774000Y61173680D01*
X33778122Y61160995D01*
X33782243Y61158000D01*
X34301766Y61158000D01*
X34311388Y61158948D01*
X34369983Y61170603D01*
X34387651Y61177922D01*
X34454130Y61222341D01*
X34467659Y61235870D01*
X34512078Y61302349D01*
X34519397Y61320017D01*
X34531052Y61378612D01*
X34532000Y61388234D01*
X34532000Y61900320D01*
X34527878Y61913005D01*
X34523757Y61916000D01*
X33789680Y61916000D01*
X33776995Y61911878D01*
X33774000Y61907757D01*
X33774000Y61173680D01*
X33266000Y61173680D01*
X33266000Y61900320D01*
X33261878Y61913005D01*
X33257757Y61916000D01*
X32523680Y61916000D01*
X32510995Y61911878D01*
X32508000Y61907757D01*
X32508000Y61388234D01*
X30752000Y61388234D01*
X30752000Y61900320D01*
X30747878Y61913005D01*
X30743757Y61916000D01*
X30009680Y61916000D01*
X29996995Y61911878D01*
X29994000Y61907757D01*
X29994000Y61173680D01*
X29486000Y61173680D01*
X29486000Y61900320D01*
X29481878Y61913005D01*
X29477757Y61916000D01*
X28743680Y61916000D01*
X28730995Y61911878D01*
X28728000Y61907757D01*
X28728000Y61388234D01*
X28362500Y61388234D01*
X28362499Y62439680D01*
X28728000Y62439680D01*
X28732122Y62426995D01*
X28736243Y62424000D01*
X29470320Y62424000D01*
X29483005Y62428122D01*
X29486000Y62432243D01*
X29486000Y62439680D01*
X29994000Y62439680D01*
X29998122Y62426995D01*
X30002243Y62424000D01*
X30736320Y62424000D01*
X30749005Y62428122D01*
X30752000Y62432243D01*
X30752000Y62439680D01*
X32508000Y62439680D01*
X32512122Y62426995D01*
X32516243Y62424000D01*
X33250320Y62424000D01*
X33263005Y62428122D01*
X33266000Y62432243D01*
X33266000Y62439680D01*
X33774000Y62439680D01*
X33778122Y62426995D01*
X33782243Y62424000D01*
X34516320Y62424000D01*
X34529005Y62428122D01*
X34532000Y62432243D01*
X34532000Y62951766D01*
X34531052Y62961388D01*
X34530628Y62963519D01*
X34897500Y62963519D01*
X34897501Y61376482D01*
X34898110Y61372639D01*
X34898110Y61372634D01*
X34903947Y61335783D01*
X34912354Y61282696D01*
X34969950Y61169658D01*
X35059658Y61079950D01*
X35066595Y61076415D01*
X35066597Y61076414D01*
X35165756Y61025890D01*
X35172696Y61022354D01*
X35180390Y61021135D01*
X35180391Y61021135D01*
X35262635Y61008109D01*
X35262637Y61008109D01*
X35266481Y61007500D01*
X36059898Y61007500D01*
X36853518Y61007501D01*
X36857361Y61008110D01*
X36857366Y61008110D01*
X36894217Y61013947D01*
X36947304Y61022354D01*
X37003823Y61051152D01*
X37053403Y61076414D01*
X37053405Y61076415D01*
X37060342Y61079950D01*
X37150050Y61169658D01*
X37176894Y61222341D01*
X37204110Y61275756D01*
X37204110Y61275757D01*
X37207646Y61282696D01*
X37211317Y61305870D01*
X37221891Y61372635D01*
X37221891Y61372637D01*
X37222500Y61376481D01*
X37222499Y62963518D01*
X37207646Y63057304D01*
X37150050Y63170342D01*
X37060342Y63260050D01*
X37053405Y63263585D01*
X37053403Y63263586D01*
X36954244Y63314110D01*
X36954243Y63314110D01*
X36947304Y63317646D01*
X36939610Y63318865D01*
X36939609Y63318865D01*
X36857365Y63331891D01*
X36857363Y63331891D01*
X36853519Y63332500D01*
X36060102Y63332500D01*
X35266482Y63332499D01*
X35262639Y63331890D01*
X35262634Y63331890D01*
X35225783Y63326053D01*
X35172696Y63317646D01*
X35116177Y63288848D01*
X35066597Y63263586D01*
X35066595Y63263585D01*
X35059658Y63260050D01*
X34969950Y63170342D01*
X34966415Y63163405D01*
X34966414Y63163403D01*
X34938007Y63107651D01*
X34912354Y63057304D01*
X34897500Y62963519D01*
X34530628Y62963519D01*
X34519397Y63019983D01*
X34512078Y63037651D01*
X34467659Y63104130D01*
X34454130Y63117659D01*
X34387651Y63162078D01*
X34369983Y63169397D01*
X34311388Y63181052D01*
X34301766Y63182000D01*
X33789680Y63182000D01*
X33776995Y63177878D01*
X33774000Y63173757D01*
X33774000Y62439680D01*
X33266000Y62439680D01*
X33266000Y63166320D01*
X33261878Y63179005D01*
X33257757Y63182000D01*
X32738234Y63182000D01*
X32728612Y63181052D01*
X32670017Y63169397D01*
X32652349Y63162078D01*
X32585870Y63117659D01*
X32572341Y63104130D01*
X32527922Y63037651D01*
X32520603Y63019983D01*
X32508948Y62961388D01*
X32508000Y62951766D01*
X32508000Y62439680D01*
X30752000Y62439680D01*
X30752000Y62951766D01*
X30751052Y62961388D01*
X30739397Y63019983D01*
X30732078Y63037651D01*
X30687659Y63104130D01*
X30674130Y63117659D01*
X30607651Y63162078D01*
X30589983Y63169397D01*
X30531388Y63181052D01*
X30521766Y63182000D01*
X30009680Y63182000D01*
X29996995Y63177878D01*
X29994000Y63173757D01*
X29994000Y62439680D01*
X29486000Y62439680D01*
X29486000Y63166320D01*
X29481878Y63179005D01*
X29477757Y63182000D01*
X28958234Y63182000D01*
X28948612Y63181052D01*
X28890017Y63169397D01*
X28872349Y63162078D01*
X28805870Y63117659D01*
X28792341Y63104130D01*
X28747922Y63037651D01*
X28740603Y63019983D01*
X28728948Y62961388D01*
X28728000Y62951766D01*
X28728000Y62439680D01*
X28362499Y62439680D01*
X28362499Y62963518D01*
X28347646Y63057304D01*
X28290050Y63170342D01*
X28200342Y63260050D01*
X28193405Y63263585D01*
X28193403Y63263586D01*
X28094244Y63314110D01*
X28094243Y63314110D01*
X28087304Y63317646D01*
X28079610Y63318865D01*
X28079609Y63318865D01*
X27997365Y63331891D01*
X27997363Y63331891D01*
X27993519Y63332500D01*
X27200102Y63332500D01*
X26406482Y63332499D01*
X26402639Y63331890D01*
X26402634Y63331890D01*
X26365783Y63326053D01*
X26312696Y63317646D01*
X26256177Y63288848D01*
X26206597Y63263586D01*
X26206595Y63263585D01*
X26199658Y63260050D01*
X26109950Y63170342D01*
X26106415Y63163405D01*
X26106414Y63163403D01*
X26078007Y63107651D01*
X26052354Y63057304D01*
X26037500Y62963519D01*
X25670628Y62963519D01*
X25659397Y63019983D01*
X25652078Y63037651D01*
X25607659Y63104130D01*
X25594130Y63117659D01*
X25527651Y63162078D01*
X25509983Y63169397D01*
X25451388Y63181052D01*
X25441766Y63182000D01*
X24929680Y63182000D01*
X24916995Y63177878D01*
X24914000Y63173757D01*
X24914000Y62439680D01*
X24406000Y62439680D01*
X24406000Y63166320D01*
X24401878Y63179005D01*
X24397757Y63182000D01*
X23878234Y63182000D01*
X23868612Y63181052D01*
X23810017Y63169397D01*
X23792349Y63162078D01*
X23725870Y63117659D01*
X23712341Y63104130D01*
X23667922Y63037651D01*
X23660603Y63019983D01*
X23648948Y62961388D01*
X23648000Y62951766D01*
X23648000Y62439680D01*
X18182499Y62439680D01*
X18182499Y62509680D01*
X20088000Y62509680D01*
X20092122Y62496995D01*
X20096243Y62494000D01*
X20830320Y62494000D01*
X20843005Y62498122D01*
X20846000Y62502243D01*
X20846000Y62509680D01*
X21354000Y62509680D01*
X21358122Y62496995D01*
X21362243Y62494000D01*
X22096320Y62494000D01*
X22109005Y62498122D01*
X22112000Y62502243D01*
X22112000Y63021766D01*
X22111052Y63031388D01*
X22099397Y63089983D01*
X22092078Y63107651D01*
X22047659Y63174130D01*
X22034130Y63187659D01*
X21967651Y63232078D01*
X21949983Y63239397D01*
X21891388Y63251052D01*
X21881766Y63252000D01*
X21369680Y63252000D01*
X21356995Y63247878D01*
X21354000Y63243757D01*
X21354000Y62509680D01*
X20846000Y62509680D01*
X20846000Y63236320D01*
X20841878Y63249005D01*
X20837757Y63252000D01*
X20318234Y63252000D01*
X20308612Y63251052D01*
X20250017Y63239397D01*
X20232349Y63232078D01*
X20165870Y63187659D01*
X20152341Y63174130D01*
X20107922Y63107651D01*
X20100603Y63089983D01*
X20088948Y63031388D01*
X20088000Y63021766D01*
X20088000Y62509680D01*
X18182499Y62509680D01*
X18182499Y62963518D01*
X18167646Y63057304D01*
X18110050Y63170342D01*
X18020342Y63260050D01*
X18013405Y63263585D01*
X18013403Y63263586D01*
X17914244Y63314110D01*
X17914243Y63314110D01*
X17907304Y63317646D01*
X17899610Y63318865D01*
X17899609Y63318865D01*
X17817365Y63331891D01*
X17817363Y63331891D01*
X17813519Y63332500D01*
X17020102Y63332500D01*
X16226482Y63332499D01*
X16222639Y63331890D01*
X16222634Y63331890D01*
X16185783Y63326053D01*
X16132696Y63317646D01*
X16076177Y63288848D01*
X16026597Y63263586D01*
X16026595Y63263585D01*
X16019658Y63260050D01*
X15929950Y63170342D01*
X15926415Y63163405D01*
X15926414Y63163403D01*
X15898007Y63107651D01*
X15872354Y63057304D01*
X15857500Y62963519D01*
X15857501Y61376482D01*
X15858110Y61372639D01*
X15858110Y61372634D01*
X15863947Y61335783D01*
X15872354Y61282696D01*
X15929950Y61169658D01*
X16019658Y61079950D01*
X16026595Y61076415D01*
X16026597Y61076414D01*
X16125756Y61025890D01*
X16132696Y61022354D01*
X16140390Y61021135D01*
X16140391Y61021135D01*
X16222635Y61008109D01*
X16222637Y61008109D01*
X16226481Y61007500D01*
X16320500Y61007500D01*
X16378691Y60988593D01*
X16414655Y60939093D01*
X16419500Y60908500D01*
X16419500Y60891499D01*
X16400593Y60833308D01*
X16351093Y60797344D01*
X16320500Y60792499D01*
X16226482Y60792499D01*
X16222639Y60791890D01*
X16222634Y60791890D01*
X16185783Y60786053D01*
X16132696Y60777646D01*
X16076177Y60748848D01*
X16026597Y60723586D01*
X16026595Y60723585D01*
X16019658Y60720050D01*
X15929950Y60630342D01*
X15926415Y60623405D01*
X15926414Y60623403D01*
X15896213Y60564130D01*
X15872354Y60517304D01*
X15871135Y60509610D01*
X15871135Y60509609D01*
X15867970Y60489626D01*
X15857500Y60423519D01*
X15642499Y60423519D01*
X15627646Y60517304D01*
X15591979Y60587304D01*
X15573586Y60623403D01*
X15573585Y60623405D01*
X15570050Y60630342D01*
X15480342Y60720050D01*
X15473405Y60723585D01*
X15473403Y60723586D01*
X15374244Y60774110D01*
X15374243Y60774110D01*
X15367304Y60777646D01*
X15359610Y60778865D01*
X15359609Y60778865D01*
X15277365Y60791891D01*
X15277363Y60791891D01*
X15273519Y60792500D01*
X14480102Y60792500D01*
X13686482Y60792499D01*
X13682639Y60791890D01*
X13682634Y60791890D01*
X13645783Y60786053D01*
X13592696Y60777646D01*
X13536177Y60748848D01*
X13486597Y60723586D01*
X13486595Y60723585D01*
X13479658Y60720050D01*
X13389950Y60630342D01*
X13386415Y60623405D01*
X13386414Y60623403D01*
X13356213Y60564130D01*
X13332354Y60517304D01*
X13331135Y60509610D01*
X13331135Y60509609D01*
X13327970Y60489626D01*
X13317500Y60423519D01*
X12102499Y60423519D01*
X12087646Y60517304D01*
X12051979Y60587304D01*
X12033586Y60623403D01*
X12033585Y60623405D01*
X12030050Y60630342D01*
X11940342Y60720050D01*
X11933405Y60723585D01*
X11933403Y60723586D01*
X11834244Y60774110D01*
X11834243Y60774110D01*
X11827304Y60777646D01*
X11819610Y60778865D01*
X11819609Y60778865D01*
X11737365Y60791891D01*
X11737363Y60791891D01*
X11733519Y60792500D01*
X11639500Y60792500D01*
X11581309Y60811407D01*
X11545345Y60860907D01*
X11540500Y60891500D01*
X11540500Y60908501D01*
X11559407Y60966692D01*
X11608907Y61002656D01*
X11639500Y61007501D01*
X11733518Y61007501D01*
X11737361Y61008110D01*
X11737366Y61008110D01*
X11774217Y61013947D01*
X11827304Y61022354D01*
X11883823Y61051152D01*
X11933403Y61076414D01*
X11933405Y61076415D01*
X11940342Y61079950D01*
X12030050Y61169658D01*
X12056894Y61222341D01*
X12084110Y61275756D01*
X12084110Y61275757D01*
X12087646Y61282696D01*
X12091317Y61305870D01*
X12101891Y61372635D01*
X12101891Y61372637D01*
X12102500Y61376481D01*
X12102499Y62963518D01*
X12102499Y62963519D01*
X13317500Y62963519D01*
X13317501Y61376482D01*
X13318110Y61372639D01*
X13318110Y61372634D01*
X13323947Y61335783D01*
X13332354Y61282696D01*
X13389950Y61169658D01*
X13479658Y61079950D01*
X13486595Y61076415D01*
X13486597Y61076414D01*
X13585756Y61025890D01*
X13592696Y61022354D01*
X13600390Y61021135D01*
X13600391Y61021135D01*
X13682635Y61008109D01*
X13682637Y61008109D01*
X13686481Y61007500D01*
X14479898Y61007500D01*
X15273518Y61007501D01*
X15277361Y61008110D01*
X15277366Y61008110D01*
X15314217Y61013947D01*
X15367304Y61022354D01*
X15423823Y61051152D01*
X15473403Y61076414D01*
X15473405Y61076415D01*
X15480342Y61079950D01*
X15570050Y61169658D01*
X15596894Y61222341D01*
X15624110Y61275756D01*
X15624110Y61275757D01*
X15627646Y61282696D01*
X15631317Y61305870D01*
X15641891Y61372635D01*
X15641891Y61372637D01*
X15642500Y61376481D01*
X15642499Y62963518D01*
X15627646Y63057304D01*
X15570050Y63170342D01*
X15480342Y63260050D01*
X15473405Y63263585D01*
X15473403Y63263586D01*
X15374244Y63314110D01*
X15374243Y63314110D01*
X15367304Y63317646D01*
X15359610Y63318865D01*
X15359609Y63318865D01*
X15277365Y63331891D01*
X15277363Y63331891D01*
X15273519Y63332500D01*
X14480102Y63332500D01*
X13686482Y63332499D01*
X13682639Y63331890D01*
X13682634Y63331890D01*
X13645783Y63326053D01*
X13592696Y63317646D01*
X13536177Y63288848D01*
X13486597Y63263586D01*
X13486595Y63263585D01*
X13479658Y63260050D01*
X13389950Y63170342D01*
X13386415Y63163405D01*
X13386414Y63163403D01*
X13358007Y63107651D01*
X13332354Y63057304D01*
X13317500Y62963519D01*
X12102499Y62963519D01*
X12087646Y63057304D01*
X12030050Y63170342D01*
X11940342Y63260050D01*
X11933405Y63263585D01*
X11933403Y63263586D01*
X11834244Y63314110D01*
X11834243Y63314110D01*
X11827304Y63317646D01*
X11819610Y63318865D01*
X11819609Y63318865D01*
X11737365Y63331891D01*
X11737363Y63331891D01*
X11733519Y63332500D01*
X10940102Y63332500D01*
X10146482Y63332499D01*
X10142639Y63331890D01*
X10142634Y63331890D01*
X10105783Y63326053D01*
X10052696Y63317646D01*
X9996177Y63288848D01*
X9946597Y63263586D01*
X9946595Y63263585D01*
X9939658Y63260050D01*
X9849950Y63170342D01*
X9846415Y63163405D01*
X9846414Y63163403D01*
X9818007Y63107651D01*
X9792354Y63057304D01*
X9777500Y62963519D01*
X9777501Y61376482D01*
X9778110Y61372639D01*
X9778110Y61372634D01*
X9783947Y61335783D01*
X9792354Y61282696D01*
X9849950Y61169658D01*
X9939658Y61079950D01*
X9946595Y61076415D01*
X9946597Y61076414D01*
X10045756Y61025890D01*
X10052696Y61022354D01*
X10060390Y61021135D01*
X10060391Y61021135D01*
X10142635Y61008109D01*
X10142637Y61008109D01*
X10146481Y61007500D01*
X10240500Y61007500D01*
X10298691Y60988593D01*
X10334655Y60939093D01*
X10339500Y60908500D01*
X10339500Y60891499D01*
X10320593Y60833308D01*
X10271093Y60797344D01*
X10240500Y60792499D01*
X10146482Y60792499D01*
X10142639Y60791890D01*
X10142634Y60791890D01*
X10105783Y60786053D01*
X10052696Y60777646D01*
X9996177Y60748848D01*
X9946597Y60723586D01*
X9946595Y60723585D01*
X9939658Y60720050D01*
X9849950Y60630342D01*
X9846415Y60623405D01*
X9846414Y60623403D01*
X9816213Y60564130D01*
X9792354Y60517304D01*
X9791135Y60509610D01*
X9791135Y60509609D01*
X9787970Y60489626D01*
X9777500Y60423519D01*
X9777501Y58836482D01*
X9792354Y58742696D01*
X9849950Y58629658D01*
X9939658Y58539950D01*
X9946598Y58536414D01*
X9946602Y58536411D01*
X9984562Y58517069D01*
X10027827Y58473805D01*
X10037398Y58413373D01*
X10009621Y58358856D01*
X8380261Y56729496D01*
X8325744Y56701719D01*
X8310257Y56700500D01*
X645849Y56700500D01*
X632927Y56701347D01*
X600000Y56705682D01*
X593566Y56704835D01*
X560639Y56700500D01*
X443238Y56685044D01*
X437241Y56682560D01*
X414954Y56673329D01*
X297159Y56624536D01*
X171718Y56528282D01*
X167771Y56523138D01*
X167767Y56523134D01*
X151501Y56501935D01*
X142962Y56492197D01*
X-3392199Y52957036D01*
X-3401936Y52948498D01*
X-3428282Y52928282D01*
X-3515240Y52814956D01*
X-3524536Y52802841D01*
X-3585044Y52656762D01*
X-3605682Y52500000D01*
X-3604835Y52493567D01*
X-3601347Y52467073D01*
X-3600500Y52454151D01*
X-3600500Y26045849D01*
X-3601347Y26032928D01*
X-3605682Y26000000D01*
X-4479500Y26000000D01*
X-4479500Y60423519D01*
X4697500Y60423519D01*
X4697501Y58836482D01*
X4712354Y58742696D01*
X4769950Y58629658D01*
X4859658Y58539950D01*
X4866595Y58536415D01*
X4866597Y58536414D01*
X4954740Y58491503D01*
X4972696Y58482354D01*
X4980390Y58481135D01*
X4980391Y58481135D01*
X5062635Y58468109D01*
X5062637Y58468109D01*
X5066481Y58467500D01*
X5859898Y58467500D01*
X6653518Y58467501D01*
X6657361Y58468110D01*
X6657366Y58468110D01*
X6694217Y58473947D01*
X6747304Y58482354D01*
X6815436Y58517069D01*
X6853403Y58536414D01*
X6853405Y58536415D01*
X6860342Y58539950D01*
X6950050Y58629658D01*
X6976894Y58682341D01*
X7004110Y58735756D01*
X7004110Y58735757D01*
X7007646Y58742696D01*
X7022500Y58836481D01*
X7022499Y60423518D01*
X7022499Y60423519D01*
X7237500Y60423519D01*
X7237501Y58836482D01*
X7252354Y58742696D01*
X7309950Y58629658D01*
X7399658Y58539950D01*
X7406595Y58536415D01*
X7406597Y58536414D01*
X7494740Y58491503D01*
X7512696Y58482354D01*
X7520390Y58481135D01*
X7520391Y58481135D01*
X7602635Y58468109D01*
X7602637Y58468109D01*
X7606481Y58467500D01*
X8399898Y58467500D01*
X9193518Y58467501D01*
X9197361Y58468110D01*
X9197366Y58468110D01*
X9234217Y58473947D01*
X9287304Y58482354D01*
X9355436Y58517069D01*
X9393403Y58536414D01*
X9393405Y58536415D01*
X9400342Y58539950D01*
X9490050Y58629658D01*
X9516894Y58682341D01*
X9544110Y58735756D01*
X9544110Y58735757D01*
X9547646Y58742696D01*
X9562500Y58836481D01*
X9562499Y60423518D01*
X9547646Y60517304D01*
X9511979Y60587304D01*
X9493586Y60623403D01*
X9493585Y60623405D01*
X9490050Y60630342D01*
X9400342Y60720050D01*
X9393405Y60723585D01*
X9393403Y60723586D01*
X9294244Y60774110D01*
X9294243Y60774110D01*
X9287304Y60777646D01*
X9279610Y60778865D01*
X9279609Y60778865D01*
X9197365Y60791891D01*
X9197363Y60791891D01*
X9193519Y60792500D01*
X8400102Y60792500D01*
X7606482Y60792499D01*
X7602639Y60791890D01*
X7602634Y60791890D01*
X7565783Y60786053D01*
X7512696Y60777646D01*
X7456177Y60748848D01*
X7406597Y60723586D01*
X7406595Y60723585D01*
X7399658Y60720050D01*
X7309950Y60630342D01*
X7306415Y60623405D01*
X7306414Y60623403D01*
X7276213Y60564130D01*
X7252354Y60517304D01*
X7251135Y60509610D01*
X7251135Y60509609D01*
X7247970Y60489626D01*
X7237500Y60423519D01*
X7022499Y60423519D01*
X7007646Y60517304D01*
X6971979Y60587304D01*
X6953586Y60623403D01*
X6953585Y60623405D01*
X6950050Y60630342D01*
X6860342Y60720050D01*
X6853405Y60723585D01*
X6853403Y60723586D01*
X6754244Y60774110D01*
X6754243Y60774110D01*
X6747304Y60777646D01*
X6739610Y60778865D01*
X6739609Y60778865D01*
X6657365Y60791891D01*
X6657363Y60791891D01*
X6653519Y60792500D01*
X5860102Y60792500D01*
X5066482Y60792499D01*
X5062639Y60791890D01*
X5062634Y60791890D01*
X5025783Y60786053D01*
X4972696Y60777646D01*
X4916177Y60748848D01*
X4866597Y60723586D01*
X4866595Y60723585D01*
X4859658Y60720050D01*
X4769950Y60630342D01*
X4766415Y60623405D01*
X4766414Y60623403D01*
X4736213Y60564130D01*
X4712354Y60517304D01*
X4711135Y60509610D01*
X4711135Y60509609D01*
X4707970Y60489626D01*
X4697500Y60423519D01*
X-4479500Y60423519D01*
X-4479500Y62963519D01*
X4697500Y62963519D01*
X4697501Y61376482D01*
X4698110Y61372639D01*
X4698110Y61372634D01*
X4703947Y61335783D01*
X4712354Y61282696D01*
X4769950Y61169658D01*
X4859658Y61079950D01*
X4866595Y61076415D01*
X4866597Y61076414D01*
X4965756Y61025890D01*
X4972696Y61022354D01*
X4980390Y61021135D01*
X4980391Y61021135D01*
X5062635Y61008109D01*
X5062637Y61008109D01*
X5066481Y61007500D01*
X5859898Y61007500D01*
X6653518Y61007501D01*
X6657361Y61008110D01*
X6657366Y61008110D01*
X6694217Y61013947D01*
X6747304Y61022354D01*
X6803823Y61051152D01*
X6853403Y61076414D01*
X6853405Y61076415D01*
X6860342Y61079950D01*
X6950050Y61169658D01*
X6976894Y61222341D01*
X7004110Y61275756D01*
X7004110Y61275757D01*
X7007646Y61282696D01*
X7011317Y61305870D01*
X7021891Y61372635D01*
X7021891Y61372637D01*
X7022500Y61376481D01*
X7022499Y62963518D01*
X7022499Y62963519D01*
X7237500Y62963519D01*
X7237501Y61376482D01*
X7238110Y61372639D01*
X7238110Y61372634D01*
X7243947Y61335783D01*
X7252354Y61282696D01*
X7309950Y61169658D01*
X7399658Y61079950D01*
X7406595Y61076415D01*
X7406597Y61076414D01*
X7505756Y61025890D01*
X7512696Y61022354D01*
X7520390Y61021135D01*
X7520391Y61021135D01*
X7602635Y61008109D01*
X7602637Y61008109D01*
X7606481Y61007500D01*
X8399898Y61007500D01*
X9193518Y61007501D01*
X9197361Y61008110D01*
X9197366Y61008110D01*
X9234217Y61013947D01*
X9287304Y61022354D01*
X9343823Y61051152D01*
X9393403Y61076414D01*
X9393405Y61076415D01*
X9400342Y61079950D01*
X9490050Y61169658D01*
X9516894Y61222341D01*
X9544110Y61275756D01*
X9544110Y61275757D01*
X9547646Y61282696D01*
X9551317Y61305870D01*
X9561891Y61372635D01*
X9561891Y61372637D01*
X9562500Y61376481D01*
X9562499Y62963518D01*
X9547646Y63057304D01*
X9490050Y63170342D01*
X9400342Y63260050D01*
X9393405Y63263585D01*
X9393403Y63263586D01*
X9294244Y63314110D01*
X9294243Y63314110D01*
X9287304Y63317646D01*
X9279610Y63318865D01*
X9279609Y63318865D01*
X9197365Y63331891D01*
X9197363Y63331891D01*
X9193519Y63332500D01*
X8400102Y63332500D01*
X7606482Y63332499D01*
X7602639Y63331890D01*
X7602634Y63331890D01*
X7565783Y63326053D01*
X7512696Y63317646D01*
X7456177Y63288848D01*
X7406597Y63263586D01*
X7406595Y63263585D01*
X7399658Y63260050D01*
X7309950Y63170342D01*
X7306415Y63163405D01*
X7306414Y63163403D01*
X7278007Y63107651D01*
X7252354Y63057304D01*
X7237500Y62963519D01*
X7022499Y62963519D01*
X7007646Y63057304D01*
X6950050Y63170342D01*
X6860342Y63260050D01*
X6853405Y63263585D01*
X6853403Y63263586D01*
X6754244Y63314110D01*
X6754243Y63314110D01*
X6747304Y63317646D01*
X6739610Y63318865D01*
X6739609Y63318865D01*
X6657365Y63331891D01*
X6657363Y63331891D01*
X6653519Y63332500D01*
X5860102Y63332500D01*
X5066482Y63332499D01*
X5062639Y63331890D01*
X5062634Y63331890D01*
X5025783Y63326053D01*
X4972696Y63317646D01*
X4916177Y63288848D01*
X4866597Y63263586D01*
X4866595Y63263585D01*
X4859658Y63260050D01*
X4769950Y63170342D01*
X4766415Y63163405D01*
X4766414Y63163403D01*
X4738007Y63107651D01*
X4712354Y63057304D01*
X4697500Y62963519D01*
X-4479500Y62963519D01*
X-4479500Y65340500D01*
X-4460593Y65398691D01*
X-4411093Y65434655D01*
X-4380500Y65439500D01*
X55180500Y65439500D01*
X55238691Y65420593D01*
G37*
%TD.AperFunction*%
%TD*%
M02*
