M48
; DRILL file {KiCad 6.0.11+dfsg-1~bpo11+1} date Sun May 28 09:06:12 2023
; FORMAT={3:3/ absolute / metric / suppress leading zeros}
; #@! TF.CreationDate,2023-05-28T09:06:12+00:00
; #@! TF.GenerationSoftware,Kicad,Pcbnew,6.0.11+dfsg-1~bpo11+1
; #@! TF.FileFunction,Plated,1,2,PTH
FMAT,2
METRIC,TZ
; #@! TA.AperFunction,Plated,PTH,ViaDrill
T1C0.400
; #@! TA.AperFunction,Plated,PTH,ComponentDrill
T2C0.889
; #@! TA.AperFunction,Plated,PTH,ComponentDrill
T3C3.000
%
G90
G05
T1
X-3200Y29800
X-1300Y38100
X-900Y34000
X-800Y29800
X900Y34000
X1300Y38100
X5000Y48800
X5900Y48700
X6000Y30800
X8000Y36100
X8400Y24000
X8800Y55700
X8800Y54700
X9000Y36100
X9500Y24000
X10500Y24000
X10600Y31600
X14200Y55400
X14400Y24000
X15100Y54600
X15500Y24000
X20100Y45400
X20300Y53700
X21500Y44700
X22200Y35000
X22200Y31600
X22300Y54900
X23400Y35000
X23400Y31600
X24600Y35000
X24600Y31600
X35400Y49300
X40500Y45000
T2
X1160Y51300
X1170Y8500
X3700Y51300
X3710Y8500
X6240Y51300
X6250Y8500
X7660Y62170
X7660Y59630
X8780Y51300
X10200Y62170
X10200Y59630
X11320Y51300
X12740Y62170
X12740Y59630
X13860Y51300
X16280Y62170
X16280Y59630
X16400Y51300
X18820Y62170
X18820Y59630
X18940Y51300
X21360Y62170
X21360Y59630
X21480Y51300
X24020Y51300
X24900Y62170
X24900Y59630
X26560Y51300
X27440Y62170
X27440Y59630
X29100Y51300
X29980Y62170
X29980Y59630
X31640Y51300
X33520Y62170
X33520Y59630
X34180Y51300
X36060Y62170
X36060Y59630
X36720Y51300
X37060Y55000
X38600Y62170
X38600Y59630
X39260Y51300
X39600Y55000
X41140Y62170
X41140Y59630
X41800Y51300
X42140Y55000
X43680Y62170
X43680Y59630
X44340Y51300
X44350Y8500
X46880Y51300
X46890Y8500
X49420Y51300
X49430Y8500
T3
X0Y60960
X0Y0
X50800Y60960
X50800Y0
T0
M30
