%TF.GenerationSoftware,KiCad,Pcbnew,7.0.5.1-1-g8f565ef7f0-dirty-deb11*%
%TF.CreationDate,2023-07-05T15:13:44+00:00*%
%TF.ProjectId,OLED01,4f4c4544-3031-42e6-9b69-6361645f7063,rev?*%
%TF.SameCoordinates,PX72ba1e0PY737d6e0*%
%TF.FileFunction,Legend,Top*%
%TF.FilePolarity,Positive*%
%FSLAX46Y46*%
G04 Gerber Fmt 4.6, Leading zero omitted, Abs format (unit mm)*
G04 Created by KiCad (PCBNEW 7.0.5.1-1-g8f565ef7f0-dirty-deb11) date 2023-07-05 15:13:44*
%MOMM*%
%LPD*%
G01*
G04 APERTURE LIST*
%ADD10C,0.150000*%
%ADD11C,0.300000*%
%ADD12C,0.200000*%
%ADD13C,0.050000*%
%ADD14C,0.120000*%
%ADD15R,1.524000X1.524000*%
G04 APERTURE END LIST*
D10*
X25278571Y57795181D02*
X25835714Y57795181D01*
X25835714Y57795181D02*
X25535714Y57414229D01*
X25535714Y57414229D02*
X25664285Y57414229D01*
X25664285Y57414229D02*
X25750000Y57366610D01*
X25750000Y57366610D02*
X25792857Y57318991D01*
X25792857Y57318991D02*
X25835714Y57223753D01*
X25835714Y57223753D02*
X25835714Y56985658D01*
X25835714Y56985658D02*
X25792857Y56890420D01*
X25792857Y56890420D02*
X25750000Y56842800D01*
X25750000Y56842800D02*
X25664285Y56795181D01*
X25664285Y56795181D02*
X25407142Y56795181D01*
X25407142Y56795181D02*
X25321428Y56842800D01*
X25321428Y56842800D02*
X25278571Y56890420D01*
X26135714Y57461848D02*
X26350000Y56795181D01*
X26350000Y56795181D02*
X26564285Y57461848D01*
X26907142Y57176134D02*
X27592857Y57176134D01*
X28450000Y57795181D02*
X28021428Y57795181D01*
X28021428Y57795181D02*
X27978571Y57318991D01*
X27978571Y57318991D02*
X28021428Y57366610D01*
X28021428Y57366610D02*
X28107143Y57414229D01*
X28107143Y57414229D02*
X28321428Y57414229D01*
X28321428Y57414229D02*
X28407143Y57366610D01*
X28407143Y57366610D02*
X28450000Y57318991D01*
X28450000Y57318991D02*
X28492857Y57223753D01*
X28492857Y57223753D02*
X28492857Y56985658D01*
X28492857Y56985658D02*
X28450000Y56890420D01*
X28450000Y56890420D02*
X28407143Y56842800D01*
X28407143Y56842800D02*
X28321428Y56795181D01*
X28321428Y56795181D02*
X28107143Y56795181D01*
X28107143Y56795181D02*
X28021428Y56842800D01*
X28021428Y56842800D02*
X27978571Y56890420D01*
X28792857Y57461848D02*
X29007143Y56795181D01*
X29007143Y56795181D02*
X29221428Y57461848D01*
X28871428Y2168991D02*
X29014285Y2121372D01*
X29014285Y2121372D02*
X29061904Y2073753D01*
X29061904Y2073753D02*
X29109523Y1978515D01*
X29109523Y1978515D02*
X29109523Y1835658D01*
X29109523Y1835658D02*
X29061904Y1740420D01*
X29061904Y1740420D02*
X29014285Y1692800D01*
X29014285Y1692800D02*
X28919047Y1645181D01*
X28919047Y1645181D02*
X28538095Y1645181D01*
X28538095Y1645181D02*
X28538095Y2645181D01*
X28538095Y2645181D02*
X28871428Y2645181D01*
X28871428Y2645181D02*
X28966666Y2597562D01*
X28966666Y2597562D02*
X29014285Y2549943D01*
X29014285Y2549943D02*
X29061904Y2454705D01*
X29061904Y2454705D02*
X29061904Y2359467D01*
X29061904Y2359467D02*
X29014285Y2264229D01*
X29014285Y2264229D02*
X28966666Y2216610D01*
X28966666Y2216610D02*
X28871428Y2168991D01*
X28871428Y2168991D02*
X28538095Y2168991D01*
X18708557Y56400001D02*
X18708557Y56485715D01*
X18708557Y56485715D02*
X18751414Y56571429D01*
X18751414Y56571429D02*
X18794271Y56614286D01*
X18794271Y56614286D02*
X18879985Y56657144D01*
X18879985Y56657144D02*
X19051414Y56700001D01*
X19051414Y56700001D02*
X19265700Y56700001D01*
X19265700Y56700001D02*
X19437128Y56657144D01*
X19437128Y56657144D02*
X19522842Y56614286D01*
X19522842Y56614286D02*
X19565700Y56571429D01*
X19565700Y56571429D02*
X19608557Y56485715D01*
X19608557Y56485715D02*
X19608557Y56400001D01*
X19608557Y56400001D02*
X19565700Y56314286D01*
X19565700Y56314286D02*
X19522842Y56271429D01*
X19522842Y56271429D02*
X19437128Y56228572D01*
X19437128Y56228572D02*
X19265700Y56185715D01*
X19265700Y56185715D02*
X19051414Y56185715D01*
X19051414Y56185715D02*
X18879985Y56228572D01*
X18879985Y56228572D02*
X18794271Y56271429D01*
X18794271Y56271429D02*
X18751414Y56314286D01*
X18751414Y56314286D02*
X18708557Y56400001D01*
X19608557Y57000001D02*
X19008557Y57471429D01*
X19008557Y57000001D02*
X19608557Y57471429D01*
X18708557Y57728572D02*
X18708557Y58285715D01*
X18708557Y58285715D02*
X19051414Y57985715D01*
X19051414Y57985715D02*
X19051414Y58114286D01*
X19051414Y58114286D02*
X19094271Y58200000D01*
X19094271Y58200000D02*
X19137128Y58242858D01*
X19137128Y58242858D02*
X19222842Y58285715D01*
X19222842Y58285715D02*
X19437128Y58285715D01*
X19437128Y58285715D02*
X19522842Y58242858D01*
X19522842Y58242858D02*
X19565700Y58200000D01*
X19565700Y58200000D02*
X19608557Y58114286D01*
X19608557Y58114286D02*
X19608557Y57857143D01*
X19608557Y57857143D02*
X19565700Y57771429D01*
X19565700Y57771429D02*
X19522842Y57728572D01*
X19608557Y58671429D02*
X18708557Y58671429D01*
X18708557Y58671429D02*
X18708557Y58885715D01*
X18708557Y58885715D02*
X18751414Y59014286D01*
X18751414Y59014286D02*
X18837128Y59100001D01*
X18837128Y59100001D02*
X18922842Y59142858D01*
X18922842Y59142858D02*
X19094271Y59185715D01*
X19094271Y59185715D02*
X19222842Y59185715D01*
X19222842Y59185715D02*
X19394271Y59142858D01*
X19394271Y59142858D02*
X19479985Y59100001D01*
X19479985Y59100001D02*
X19565700Y59014286D01*
X19565700Y59014286D02*
X19608557Y58885715D01*
X19608557Y58885715D02*
X19608557Y58671429D01*
X18708557Y60428572D02*
X18708557Y60514286D01*
X18708557Y60514286D02*
X18751414Y60600000D01*
X18751414Y60600000D02*
X18794271Y60642857D01*
X18794271Y60642857D02*
X18879985Y60685715D01*
X18879985Y60685715D02*
X19051414Y60728572D01*
X19051414Y60728572D02*
X19265700Y60728572D01*
X19265700Y60728572D02*
X19437128Y60685715D01*
X19437128Y60685715D02*
X19522842Y60642857D01*
X19522842Y60642857D02*
X19565700Y60600000D01*
X19565700Y60600000D02*
X19608557Y60514286D01*
X19608557Y60514286D02*
X19608557Y60428572D01*
X19608557Y60428572D02*
X19565700Y60342857D01*
X19565700Y60342857D02*
X19522842Y60300000D01*
X19522842Y60300000D02*
X19437128Y60257143D01*
X19437128Y60257143D02*
X19265700Y60214286D01*
X19265700Y60214286D02*
X19051414Y60214286D01*
X19051414Y60214286D02*
X18879985Y60257143D01*
X18879985Y60257143D02*
X18794271Y60300000D01*
X18794271Y60300000D02*
X18751414Y60342857D01*
X18751414Y60342857D02*
X18708557Y60428572D01*
X19608557Y61028572D02*
X19008557Y61500000D01*
X19008557Y61028572D02*
X19608557Y61500000D01*
X18708557Y61757143D02*
X18708557Y62314286D01*
X18708557Y62314286D02*
X19051414Y62014286D01*
X19051414Y62014286D02*
X19051414Y62142857D01*
X19051414Y62142857D02*
X19094271Y62228571D01*
X19094271Y62228571D02*
X19137128Y62271429D01*
X19137128Y62271429D02*
X19222842Y62314286D01*
X19222842Y62314286D02*
X19437128Y62314286D01*
X19437128Y62314286D02*
X19522842Y62271429D01*
X19522842Y62271429D02*
X19565700Y62228571D01*
X19565700Y62228571D02*
X19608557Y62142857D01*
X19608557Y62142857D02*
X19608557Y61885714D01*
X19608557Y61885714D02*
X19565700Y61800000D01*
X19565700Y61800000D02*
X19522842Y61757143D01*
X19522842Y63214286D02*
X19565700Y63171429D01*
X19565700Y63171429D02*
X19608557Y63042857D01*
X19608557Y63042857D02*
X19608557Y62957143D01*
X19608557Y62957143D02*
X19565700Y62828572D01*
X19565700Y62828572D02*
X19479985Y62742857D01*
X19479985Y62742857D02*
X19394271Y62700000D01*
X19394271Y62700000D02*
X19222842Y62657143D01*
X19222842Y62657143D02*
X19094271Y62657143D01*
X19094271Y62657143D02*
X18922842Y62700000D01*
X18922842Y62700000D02*
X18837128Y62742857D01*
X18837128Y62742857D02*
X18751414Y62828572D01*
X18751414Y62828572D02*
X18708557Y62957143D01*
X18708557Y62957143D02*
X18708557Y63042857D01*
X18708557Y63042857D02*
X18751414Y63171429D01*
X18751414Y63171429D02*
X18794271Y63214286D01*
D11*
X7706891Y860696D02*
X7706891Y2160696D01*
X7706891Y2160696D02*
X8140225Y1232124D01*
X8140225Y1232124D02*
X8573558Y2160696D01*
X8573558Y2160696D02*
X8573558Y860696D01*
X9811653Y860696D02*
X9192605Y860696D01*
X9192605Y860696D02*
X9192605Y2160696D01*
X10183082Y1232124D02*
X10802129Y1232124D01*
X10059272Y860696D02*
X10492605Y2160696D01*
X10492605Y2160696D02*
X10925939Y860696D01*
X11792606Y1541648D02*
X11978320Y1479743D01*
X11978320Y1479743D02*
X12040225Y1417839D01*
X12040225Y1417839D02*
X12102129Y1294029D01*
X12102129Y1294029D02*
X12102129Y1108315D01*
X12102129Y1108315D02*
X12040225Y984505D01*
X12040225Y984505D02*
X11978320Y922600D01*
X11978320Y922600D02*
X11854510Y860696D01*
X11854510Y860696D02*
X11359272Y860696D01*
X11359272Y860696D02*
X11359272Y2160696D01*
X11359272Y2160696D02*
X11792606Y2160696D01*
X11792606Y2160696D02*
X11916415Y2098791D01*
X11916415Y2098791D02*
X11978320Y2036886D01*
X11978320Y2036886D02*
X12040225Y1913077D01*
X12040225Y1913077D02*
X12040225Y1789267D01*
X12040225Y1789267D02*
X11978320Y1665458D01*
X11978320Y1665458D02*
X11916415Y1603553D01*
X11916415Y1603553D02*
X11792606Y1541648D01*
X11792606Y1541648D02*
X11359272Y1541648D01*
X12659272Y984505D02*
X12721177Y922600D01*
X12721177Y922600D02*
X12659272Y860696D01*
X12659272Y860696D02*
X12597368Y922600D01*
X12597368Y922600D02*
X12659272Y984505D01*
X12659272Y984505D02*
X12659272Y860696D01*
X13835463Y922600D02*
X13711654Y860696D01*
X13711654Y860696D02*
X13464035Y860696D01*
X13464035Y860696D02*
X13340225Y922600D01*
X13340225Y922600D02*
X13278320Y984505D01*
X13278320Y984505D02*
X13216416Y1108315D01*
X13216416Y1108315D02*
X13216416Y1479743D01*
X13216416Y1479743D02*
X13278320Y1603553D01*
X13278320Y1603553D02*
X13340225Y1665458D01*
X13340225Y1665458D02*
X13464035Y1727362D01*
X13464035Y1727362D02*
X13711654Y1727362D01*
X13711654Y1727362D02*
X13835463Y1665458D01*
X14268797Y1727362D02*
X14949749Y1727362D01*
X14949749Y1727362D02*
X14268797Y860696D01*
X14268797Y860696D02*
X14949749Y860696D01*
X7644987Y-56114D02*
X7706891Y5791D01*
X7706891Y5791D02*
X7830701Y67696D01*
X7830701Y67696D02*
X8140225Y67696D01*
X8140225Y67696D02*
X8264034Y5791D01*
X8264034Y5791D02*
X8325939Y-56114D01*
X8325939Y-56114D02*
X8387844Y-179923D01*
X8387844Y-179923D02*
X8387844Y-303733D01*
X8387844Y-303733D02*
X8325939Y-489447D01*
X8325939Y-489447D02*
X7583082Y-1232304D01*
X7583082Y-1232304D02*
X8387844Y-1232304D01*
X9192605Y67696D02*
X9316415Y67696D01*
X9316415Y67696D02*
X9440224Y5791D01*
X9440224Y5791D02*
X9502129Y-56114D01*
X9502129Y-56114D02*
X9564034Y-179923D01*
X9564034Y-179923D02*
X9625939Y-427542D01*
X9625939Y-427542D02*
X9625939Y-737066D01*
X9625939Y-737066D02*
X9564034Y-984685D01*
X9564034Y-984685D02*
X9502129Y-1108495D01*
X9502129Y-1108495D02*
X9440224Y-1170400D01*
X9440224Y-1170400D02*
X9316415Y-1232304D01*
X9316415Y-1232304D02*
X9192605Y-1232304D01*
X9192605Y-1232304D02*
X9068796Y-1170400D01*
X9068796Y-1170400D02*
X9006891Y-1108495D01*
X9006891Y-1108495D02*
X8944986Y-984685D01*
X8944986Y-984685D02*
X8883082Y-737066D01*
X8883082Y-737066D02*
X8883082Y-427542D01*
X8883082Y-427542D02*
X8944986Y-179923D01*
X8944986Y-179923D02*
X9006891Y-56114D01*
X9006891Y-56114D02*
X9068796Y5791D01*
X9068796Y5791D02*
X9192605Y67696D01*
X10121177Y-56114D02*
X10183081Y5791D01*
X10183081Y5791D02*
X10306891Y67696D01*
X10306891Y67696D02*
X10616415Y67696D01*
X10616415Y67696D02*
X10740224Y5791D01*
X10740224Y5791D02*
X10802129Y-56114D01*
X10802129Y-56114D02*
X10864034Y-179923D01*
X10864034Y-179923D02*
X10864034Y-303733D01*
X10864034Y-303733D02*
X10802129Y-489447D01*
X10802129Y-489447D02*
X10059272Y-1232304D01*
X10059272Y-1232304D02*
X10864034Y-1232304D01*
X11297367Y67696D02*
X12102129Y67696D01*
X12102129Y67696D02*
X11668795Y-427542D01*
X11668795Y-427542D02*
X11854510Y-427542D01*
X11854510Y-427542D02*
X11978319Y-489447D01*
X11978319Y-489447D02*
X12040224Y-551352D01*
X12040224Y-551352D02*
X12102129Y-675161D01*
X12102129Y-675161D02*
X12102129Y-984685D01*
X12102129Y-984685D02*
X12040224Y-1108495D01*
X12040224Y-1108495D02*
X11978319Y-1170400D01*
X11978319Y-1170400D02*
X11854510Y-1232304D01*
X11854510Y-1232304D02*
X11483081Y-1232304D01*
X11483081Y-1232304D02*
X11359272Y-1170400D01*
X11359272Y-1170400D02*
X11297367Y-1108495D01*
D10*
X31378572Y57747562D02*
X31292858Y57795181D01*
X31292858Y57795181D02*
X31164286Y57795181D01*
X31164286Y57795181D02*
X31035715Y57747562D01*
X31035715Y57747562D02*
X30950000Y57652324D01*
X30950000Y57652324D02*
X30907143Y57557086D01*
X30907143Y57557086D02*
X30864286Y57366610D01*
X30864286Y57366610D02*
X30864286Y57223753D01*
X30864286Y57223753D02*
X30907143Y57033277D01*
X30907143Y57033277D02*
X30950000Y56938039D01*
X30950000Y56938039D02*
X31035715Y56842800D01*
X31035715Y56842800D02*
X31164286Y56795181D01*
X31164286Y56795181D02*
X31250000Y56795181D01*
X31250000Y56795181D02*
X31378572Y56842800D01*
X31378572Y56842800D02*
X31421429Y56890420D01*
X31421429Y56890420D02*
X31421429Y57223753D01*
X31421429Y57223753D02*
X31250000Y57223753D01*
X31807143Y56795181D02*
X31807143Y57795181D01*
X31807143Y57795181D02*
X32321429Y56795181D01*
X32321429Y56795181D02*
X32321429Y57795181D01*
X32750000Y56795181D02*
X32750000Y57795181D01*
X32750000Y57795181D02*
X32964286Y57795181D01*
X32964286Y57795181D02*
X33092857Y57747562D01*
X33092857Y57747562D02*
X33178572Y57652324D01*
X33178572Y57652324D02*
X33221429Y57557086D01*
X33221429Y57557086D02*
X33264286Y57366610D01*
X33264286Y57366610D02*
X33264286Y57223753D01*
X33264286Y57223753D02*
X33221429Y57033277D01*
X33221429Y57033277D02*
X33178572Y56938039D01*
X33178572Y56938039D02*
X33092857Y56842800D01*
X33092857Y56842800D02*
X32964286Y56795181D01*
X32964286Y56795181D02*
X32750000Y56795181D01*
X34292857Y56842800D02*
X34421429Y56795181D01*
X34421429Y56795181D02*
X34635714Y56795181D01*
X34635714Y56795181D02*
X34721429Y56842800D01*
X34721429Y56842800D02*
X34764286Y56890420D01*
X34764286Y56890420D02*
X34807143Y56985658D01*
X34807143Y56985658D02*
X34807143Y57080896D01*
X34807143Y57080896D02*
X34764286Y57176134D01*
X34764286Y57176134D02*
X34721429Y57223753D01*
X34721429Y57223753D02*
X34635714Y57271372D01*
X34635714Y57271372D02*
X34464286Y57318991D01*
X34464286Y57318991D02*
X34378571Y57366610D01*
X34378571Y57366610D02*
X34335714Y57414229D01*
X34335714Y57414229D02*
X34292857Y57509467D01*
X34292857Y57509467D02*
X34292857Y57604705D01*
X34292857Y57604705D02*
X34335714Y57699943D01*
X34335714Y57699943D02*
X34378571Y57747562D01*
X34378571Y57747562D02*
X34464286Y57795181D01*
X34464286Y57795181D02*
X34678571Y57795181D01*
X34678571Y57795181D02*
X34807143Y57747562D01*
X35707143Y56890420D02*
X35664286Y56842800D01*
X35664286Y56842800D02*
X35535714Y56795181D01*
X35535714Y56795181D02*
X35450000Y56795181D01*
X35450000Y56795181D02*
X35321429Y56842800D01*
X35321429Y56842800D02*
X35235714Y56938039D01*
X35235714Y56938039D02*
X35192857Y57033277D01*
X35192857Y57033277D02*
X35150000Y57223753D01*
X35150000Y57223753D02*
X35150000Y57366610D01*
X35150000Y57366610D02*
X35192857Y57557086D01*
X35192857Y57557086D02*
X35235714Y57652324D01*
X35235714Y57652324D02*
X35321429Y57747562D01*
X35321429Y57747562D02*
X35450000Y57795181D01*
X35450000Y57795181D02*
X35535714Y57795181D01*
X35535714Y57795181D02*
X35664286Y57747562D01*
X35664286Y57747562D02*
X35707143Y57699943D01*
X36521429Y56795181D02*
X36092857Y56795181D01*
X36092857Y56795181D02*
X36092857Y57795181D01*
X37378571Y57795181D02*
X37678571Y56795181D01*
X37678571Y56795181D02*
X37978571Y57795181D01*
X38792857Y56890420D02*
X38750000Y56842800D01*
X38750000Y56842800D02*
X38621428Y56795181D01*
X38621428Y56795181D02*
X38535714Y56795181D01*
X38535714Y56795181D02*
X38407143Y56842800D01*
X38407143Y56842800D02*
X38321428Y56938039D01*
X38321428Y56938039D02*
X38278571Y57033277D01*
X38278571Y57033277D02*
X38235714Y57223753D01*
X38235714Y57223753D02*
X38235714Y57366610D01*
X38235714Y57366610D02*
X38278571Y57557086D01*
X38278571Y57557086D02*
X38321428Y57652324D01*
X38321428Y57652324D02*
X38407143Y57747562D01*
X38407143Y57747562D02*
X38535714Y57795181D01*
X38535714Y57795181D02*
X38621428Y57795181D01*
X38621428Y57795181D02*
X38750000Y57747562D01*
X38750000Y57747562D02*
X38792857Y57699943D01*
X39692857Y56890420D02*
X39650000Y56842800D01*
X39650000Y56842800D02*
X39521428Y56795181D01*
X39521428Y56795181D02*
X39435714Y56795181D01*
X39435714Y56795181D02*
X39307143Y56842800D01*
X39307143Y56842800D02*
X39221428Y56938039D01*
X39221428Y56938039D02*
X39178571Y57033277D01*
X39178571Y57033277D02*
X39135714Y57223753D01*
X39135714Y57223753D02*
X39135714Y57366610D01*
X39135714Y57366610D02*
X39178571Y57557086D01*
X39178571Y57557086D02*
X39221428Y57652324D01*
X39221428Y57652324D02*
X39307143Y57747562D01*
X39307143Y57747562D02*
X39435714Y57795181D01*
X39435714Y57795181D02*
X39521428Y57795181D01*
X39521428Y57795181D02*
X39650000Y57747562D01*
X39650000Y57747562D02*
X39692857Y57699943D01*
X40721428Y56842800D02*
X40850000Y56795181D01*
X40850000Y56795181D02*
X41064285Y56795181D01*
X41064285Y56795181D02*
X41150000Y56842800D01*
X41150000Y56842800D02*
X41192857Y56890420D01*
X41192857Y56890420D02*
X41235714Y56985658D01*
X41235714Y56985658D02*
X41235714Y57080896D01*
X41235714Y57080896D02*
X41192857Y57176134D01*
X41192857Y57176134D02*
X41150000Y57223753D01*
X41150000Y57223753D02*
X41064285Y57271372D01*
X41064285Y57271372D02*
X40892857Y57318991D01*
X40892857Y57318991D02*
X40807142Y57366610D01*
X40807142Y57366610D02*
X40764285Y57414229D01*
X40764285Y57414229D02*
X40721428Y57509467D01*
X40721428Y57509467D02*
X40721428Y57604705D01*
X40721428Y57604705D02*
X40764285Y57699943D01*
X40764285Y57699943D02*
X40807142Y57747562D01*
X40807142Y57747562D02*
X40892857Y57795181D01*
X40892857Y57795181D02*
X41107142Y57795181D01*
X41107142Y57795181D02*
X41235714Y57747562D01*
X41621428Y56795181D02*
X41621428Y57795181D01*
X41621428Y57795181D02*
X41835714Y57795181D01*
X41835714Y57795181D02*
X41964285Y57747562D01*
X41964285Y57747562D02*
X42050000Y57652324D01*
X42050000Y57652324D02*
X42092857Y57557086D01*
X42092857Y57557086D02*
X42135714Y57366610D01*
X42135714Y57366610D02*
X42135714Y57223753D01*
X42135714Y57223753D02*
X42092857Y57033277D01*
X42092857Y57033277D02*
X42050000Y56938039D01*
X42050000Y56938039D02*
X41964285Y56842800D01*
X41964285Y56842800D02*
X41835714Y56795181D01*
X41835714Y56795181D02*
X41621428Y56795181D01*
X42478571Y57080896D02*
X42907143Y57080896D01*
X42392857Y56795181D02*
X42692857Y57795181D01*
X42692857Y57795181D02*
X42992857Y56795181D01*
X44450000Y57747562D02*
X44364286Y57795181D01*
X44364286Y57795181D02*
X44235714Y57795181D01*
X44235714Y57795181D02*
X44107143Y57747562D01*
X44107143Y57747562D02*
X44021428Y57652324D01*
X44021428Y57652324D02*
X43978571Y57557086D01*
X43978571Y57557086D02*
X43935714Y57366610D01*
X43935714Y57366610D02*
X43935714Y57223753D01*
X43935714Y57223753D02*
X43978571Y57033277D01*
X43978571Y57033277D02*
X44021428Y56938039D01*
X44021428Y56938039D02*
X44107143Y56842800D01*
X44107143Y56842800D02*
X44235714Y56795181D01*
X44235714Y56795181D02*
X44321428Y56795181D01*
X44321428Y56795181D02*
X44450000Y56842800D01*
X44450000Y56842800D02*
X44492857Y56890420D01*
X44492857Y56890420D02*
X44492857Y57223753D01*
X44492857Y57223753D02*
X44321428Y57223753D01*
X44878571Y56795181D02*
X44878571Y57795181D01*
X44878571Y57795181D02*
X45392857Y56795181D01*
X45392857Y56795181D02*
X45392857Y57795181D01*
X45821428Y56795181D02*
X45821428Y57795181D01*
X45821428Y57795181D02*
X46035714Y57795181D01*
X46035714Y57795181D02*
X46164285Y57747562D01*
X46164285Y57747562D02*
X46250000Y57652324D01*
X46250000Y57652324D02*
X46292857Y57557086D01*
X46292857Y57557086D02*
X46335714Y57366610D01*
X46335714Y57366610D02*
X46335714Y57223753D01*
X46335714Y57223753D02*
X46292857Y57033277D01*
X46292857Y57033277D02*
X46250000Y56938039D01*
X46250000Y56938039D02*
X46164285Y56842800D01*
X46164285Y56842800D02*
X46035714Y56795181D01*
X46035714Y56795181D02*
X45821428Y56795181D01*
D11*
X8015225Y5221672D02*
X8300939Y5221672D01*
X8300939Y5221672D02*
X8443796Y5150243D01*
X8443796Y5150243D02*
X8586653Y5007386D01*
X8586653Y5007386D02*
X8658082Y4721672D01*
X8658082Y4721672D02*
X8658082Y4221672D01*
X8658082Y4221672D02*
X8586653Y3935958D01*
X8586653Y3935958D02*
X8443796Y3793100D01*
X8443796Y3793100D02*
X8300939Y3721672D01*
X8300939Y3721672D02*
X8015225Y3721672D01*
X8015225Y3721672D02*
X7872368Y3793100D01*
X7872368Y3793100D02*
X7729510Y3935958D01*
X7729510Y3935958D02*
X7658082Y4221672D01*
X7658082Y4221672D02*
X7658082Y4721672D01*
X7658082Y4721672D02*
X7729510Y5007386D01*
X7729510Y5007386D02*
X7872368Y5150243D01*
X7872368Y5150243D02*
X8015225Y5221672D01*
X10015225Y3721672D02*
X9300939Y3721672D01*
X9300939Y3721672D02*
X9300939Y5221672D01*
X10515225Y4507386D02*
X11015225Y4507386D01*
X11229511Y3721672D02*
X10515225Y3721672D01*
X10515225Y3721672D02*
X10515225Y5221672D01*
X10515225Y5221672D02*
X11229511Y5221672D01*
X11872368Y3721672D02*
X11872368Y5221672D01*
X11872368Y5221672D02*
X12229511Y5221672D01*
X12229511Y5221672D02*
X12443797Y5150243D01*
X12443797Y5150243D02*
X12586654Y5007386D01*
X12586654Y5007386D02*
X12658083Y4864529D01*
X12658083Y4864529D02*
X12729511Y4578815D01*
X12729511Y4578815D02*
X12729511Y4364529D01*
X12729511Y4364529D02*
X12658083Y4078815D01*
X12658083Y4078815D02*
X12586654Y3935958D01*
X12586654Y3935958D02*
X12443797Y3793100D01*
X12443797Y3793100D02*
X12229511Y3721672D01*
X12229511Y3721672D02*
X11872368Y3721672D01*
X13658083Y5221672D02*
X13800940Y5221672D01*
X13800940Y5221672D02*
X13943797Y5150243D01*
X13943797Y5150243D02*
X14015226Y5078815D01*
X14015226Y5078815D02*
X14086654Y4935958D01*
X14086654Y4935958D02*
X14158083Y4650243D01*
X14158083Y4650243D02*
X14158083Y4293100D01*
X14158083Y4293100D02*
X14086654Y4007386D01*
X14086654Y4007386D02*
X14015226Y3864529D01*
X14015226Y3864529D02*
X13943797Y3793100D01*
X13943797Y3793100D02*
X13800940Y3721672D01*
X13800940Y3721672D02*
X13658083Y3721672D01*
X13658083Y3721672D02*
X13515226Y3793100D01*
X13515226Y3793100D02*
X13443797Y3864529D01*
X13443797Y3864529D02*
X13372368Y4007386D01*
X13372368Y4007386D02*
X13300940Y4293100D01*
X13300940Y4293100D02*
X13300940Y4650243D01*
X13300940Y4650243D02*
X13372368Y4935958D01*
X13372368Y4935958D02*
X13443797Y5078815D01*
X13443797Y5078815D02*
X13515226Y5150243D01*
X13515226Y5150243D02*
X13658083Y5221672D01*
X15586654Y3721672D02*
X14729511Y3721672D01*
X15158082Y3721672D02*
X15158082Y5221672D01*
X15158082Y5221672D02*
X15015225Y5007386D01*
X15015225Y5007386D02*
X14872368Y4864529D01*
X14872368Y4864529D02*
X14729511Y4793100D01*
X16729510Y4507386D02*
X16943796Y4435958D01*
X16943796Y4435958D02*
X17015225Y4364529D01*
X17015225Y4364529D02*
X17086653Y4221672D01*
X17086653Y4221672D02*
X17086653Y4007386D01*
X17086653Y4007386D02*
X17015225Y3864529D01*
X17015225Y3864529D02*
X16943796Y3793100D01*
X16943796Y3793100D02*
X16800939Y3721672D01*
X16800939Y3721672D02*
X16229510Y3721672D01*
X16229510Y3721672D02*
X16229510Y5221672D01*
X16229510Y5221672D02*
X16729510Y5221672D01*
X16729510Y5221672D02*
X16872368Y5150243D01*
X16872368Y5150243D02*
X16943796Y5078815D01*
X16943796Y5078815D02*
X17015225Y4935958D01*
X17015225Y4935958D02*
X17015225Y4793100D01*
X17015225Y4793100D02*
X16943796Y4650243D01*
X16943796Y4650243D02*
X16872368Y4578815D01*
X16872368Y4578815D02*
X16729510Y4507386D01*
X16729510Y4507386D02*
X16229510Y4507386D01*
D12*
X37428571Y63830904D02*
X37428571Y65030904D01*
X37942857Y64916618D02*
X38000000Y64973761D01*
X38000000Y64973761D02*
X38114286Y65030904D01*
X38114286Y65030904D02*
X38400000Y65030904D01*
X38400000Y65030904D02*
X38514286Y64973761D01*
X38514286Y64973761D02*
X38571428Y64916618D01*
X38571428Y64916618D02*
X38628571Y64802332D01*
X38628571Y64802332D02*
X38628571Y64688046D01*
X38628571Y64688046D02*
X38571428Y64516618D01*
X38571428Y64516618D02*
X37885714Y63830904D01*
X37885714Y63830904D02*
X38628571Y63830904D01*
X39828571Y63945189D02*
X39771428Y63888046D01*
X39771428Y63888046D02*
X39600000Y63830904D01*
X39600000Y63830904D02*
X39485714Y63830904D01*
X39485714Y63830904D02*
X39314285Y63888046D01*
X39314285Y63888046D02*
X39200000Y64002332D01*
X39200000Y64002332D02*
X39142857Y64116618D01*
X39142857Y64116618D02*
X39085714Y64345189D01*
X39085714Y64345189D02*
X39085714Y64516618D01*
X39085714Y64516618D02*
X39142857Y64745189D01*
X39142857Y64745189D02*
X39200000Y64859475D01*
X39200000Y64859475D02*
X39314285Y64973761D01*
X39314285Y64973761D02*
X39485714Y65030904D01*
X39485714Y65030904D02*
X39600000Y65030904D01*
X39600000Y65030904D02*
X39771428Y64973761D01*
X39771428Y64973761D02*
X39828571Y64916618D01*
X18814286Y64298115D02*
X19385715Y64298115D01*
X18700000Y63955258D02*
X19100000Y65155258D01*
X19100000Y65155258D02*
X19500000Y63955258D01*
X19900000Y63955258D02*
X19900000Y65155258D01*
X19900000Y65155258D02*
X20185714Y65155258D01*
X20185714Y65155258D02*
X20357143Y65098115D01*
X20357143Y65098115D02*
X20471428Y64983829D01*
X20471428Y64983829D02*
X20528571Y64869543D01*
X20528571Y64869543D02*
X20585714Y64640972D01*
X20585714Y64640972D02*
X20585714Y64469543D01*
X20585714Y64469543D02*
X20528571Y64240972D01*
X20528571Y64240972D02*
X20471428Y64126686D01*
X20471428Y64126686D02*
X20357143Y64012400D01*
X20357143Y64012400D02*
X20185714Y63955258D01*
X20185714Y63955258D02*
X19900000Y63955258D01*
X21100000Y63955258D02*
X21100000Y65155258D01*
X21100000Y65155258D02*
X21385714Y65155258D01*
X21385714Y65155258D02*
X21557143Y65098115D01*
X21557143Y65098115D02*
X21671428Y64983829D01*
X21671428Y64983829D02*
X21728571Y64869543D01*
X21728571Y64869543D02*
X21785714Y64640972D01*
X21785714Y64640972D02*
X21785714Y64469543D01*
X21785714Y64469543D02*
X21728571Y64240972D01*
X21728571Y64240972D02*
X21671428Y64126686D01*
X21671428Y64126686D02*
X21557143Y64012400D01*
X21557143Y64012400D02*
X21385714Y63955258D01*
X21385714Y63955258D02*
X21100000Y63955258D01*
X22985714Y63955258D02*
X22585714Y64526686D01*
X22300000Y63955258D02*
X22300000Y65155258D01*
X22300000Y65155258D02*
X22757143Y65155258D01*
X22757143Y65155258D02*
X22871428Y65098115D01*
X22871428Y65098115D02*
X22928571Y65040972D01*
X22928571Y65040972D02*
X22985714Y64926686D01*
X22985714Y64926686D02*
X22985714Y64755258D01*
X22985714Y64755258D02*
X22928571Y64640972D01*
X22928571Y64640972D02*
X22871428Y64583829D01*
X22871428Y64583829D02*
X22757143Y64526686D01*
X22757143Y64526686D02*
X22300000Y64526686D01*
D10*
X24161905Y1930896D02*
X24638095Y1930896D01*
X24066667Y1645181D02*
X24400000Y2645181D01*
X24400000Y2645181D02*
X24733333Y1645181D01*
X12447618Y57611848D02*
X13019047Y57611848D01*
X12676190Y58040420D02*
X12447618Y56754705D01*
X12942857Y57183277D02*
X12371428Y57183277D01*
X12714285Y56754705D02*
X12942857Y58040420D01*
X13285714Y56945181D02*
X13285714Y57945181D01*
X13666666Y56945181D02*
X13666666Y57945181D01*
X13666666Y57945181D02*
X14123809Y56945181D01*
X14123809Y56945181D02*
X14123809Y57945181D01*
X14390475Y57945181D02*
X14847618Y57945181D01*
X14619046Y56945181D02*
X14619046Y57945181D01*
X15685713Y57611848D02*
X16257142Y57611848D01*
X15914285Y58040420D02*
X15685713Y56754705D01*
X16180952Y57183277D02*
X15609523Y57183277D01*
X15952380Y56754705D02*
X16180952Y58040420D01*
X16980952Y56945181D02*
X16714285Y57421372D01*
X16523809Y56945181D02*
X16523809Y57945181D01*
X16523809Y57945181D02*
X16828571Y57945181D01*
X16828571Y57945181D02*
X16904761Y57897562D01*
X16904761Y57897562D02*
X16942856Y57849943D01*
X16942856Y57849943D02*
X16980952Y57754705D01*
X16980952Y57754705D02*
X16980952Y57611848D01*
X16980952Y57611848D02*
X16942856Y57516610D01*
X16942856Y57516610D02*
X16904761Y57468991D01*
X16904761Y57468991D02*
X16828571Y57421372D01*
X16828571Y57421372D02*
X16523809Y57421372D01*
X17285713Y56992800D02*
X17399999Y56945181D01*
X17399999Y56945181D02*
X17590475Y56945181D01*
X17590475Y56945181D02*
X17666666Y56992800D01*
X17666666Y56992800D02*
X17704761Y57040420D01*
X17704761Y57040420D02*
X17742856Y57135658D01*
X17742856Y57135658D02*
X17742856Y57230896D01*
X17742856Y57230896D02*
X17704761Y57326134D01*
X17704761Y57326134D02*
X17666666Y57373753D01*
X17666666Y57373753D02*
X17590475Y57421372D01*
X17590475Y57421372D02*
X17438094Y57468991D01*
X17438094Y57468991D02*
X17361904Y57516610D01*
X17361904Y57516610D02*
X17323809Y57564229D01*
X17323809Y57564229D02*
X17285713Y57659467D01*
X17285713Y57659467D02*
X17285713Y57754705D01*
X17285713Y57754705D02*
X17323809Y57849943D01*
X17323809Y57849943D02*
X17361904Y57897562D01*
X17361904Y57897562D02*
X17438094Y57945181D01*
X17438094Y57945181D02*
X17628571Y57945181D01*
X17628571Y57945181D02*
X17742856Y57897562D01*
X17971428Y57945181D02*
X18428571Y57945181D01*
X18199999Y56945181D02*
X18199999Y57945181D01*
D12*
X25600000Y63830904D02*
X25600000Y65030904D01*
X25600000Y65030904D02*
X26057143Y65030904D01*
X26057143Y65030904D02*
X26171428Y64973761D01*
X26171428Y64973761D02*
X26228571Y64916618D01*
X26228571Y64916618D02*
X26285714Y64802332D01*
X26285714Y64802332D02*
X26285714Y64630904D01*
X26285714Y64630904D02*
X26228571Y64516618D01*
X26228571Y64516618D02*
X26171428Y64459475D01*
X26171428Y64459475D02*
X26057143Y64402332D01*
X26057143Y64402332D02*
X25600000Y64402332D01*
X26685714Y65030904D02*
X26971428Y63830904D01*
X26971428Y63830904D02*
X27200000Y64688046D01*
X27200000Y64688046D02*
X27428571Y63830904D01*
X27428571Y63830904D02*
X27714286Y65030904D01*
X28857143Y63830904D02*
X28457143Y64402332D01*
X28171429Y63830904D02*
X28171429Y65030904D01*
X28171429Y65030904D02*
X28628572Y65030904D01*
X28628572Y65030904D02*
X28742857Y64973761D01*
X28742857Y64973761D02*
X28800000Y64916618D01*
X28800000Y64916618D02*
X28857143Y64802332D01*
X28857143Y64802332D02*
X28857143Y64630904D01*
X28857143Y64630904D02*
X28800000Y64516618D01*
X28800000Y64516618D02*
X28742857Y64459475D01*
X28742857Y64459475D02*
X28628572Y64402332D01*
X28628572Y64402332D02*
X28171429Y64402332D01*
D10*
X3923808Y64268991D02*
X4038094Y64221372D01*
X4038094Y64221372D02*
X4076189Y64173753D01*
X4076189Y64173753D02*
X4114285Y64078515D01*
X4114285Y64078515D02*
X4114285Y63935658D01*
X4114285Y63935658D02*
X4076189Y63840420D01*
X4076189Y63840420D02*
X4038094Y63792800D01*
X4038094Y63792800D02*
X3961904Y63745181D01*
X3961904Y63745181D02*
X3657142Y63745181D01*
X3657142Y63745181D02*
X3657142Y64745181D01*
X3657142Y64745181D02*
X3923808Y64745181D01*
X3923808Y64745181D02*
X3999999Y64697562D01*
X3999999Y64697562D02*
X4038094Y64649943D01*
X4038094Y64649943D02*
X4076189Y64554705D01*
X4076189Y64554705D02*
X4076189Y64459467D01*
X4076189Y64459467D02*
X4038094Y64364229D01*
X4038094Y64364229D02*
X3999999Y64316610D01*
X3999999Y64316610D02*
X3923808Y64268991D01*
X3923808Y64268991D02*
X3657142Y64268991D01*
X4799999Y64411848D02*
X4799999Y63745181D01*
X4457142Y64411848D02*
X4457142Y63888039D01*
X4457142Y63888039D02*
X4495237Y63792800D01*
X4495237Y63792800D02*
X4571427Y63745181D01*
X4571427Y63745181D02*
X4685713Y63745181D01*
X4685713Y63745181D02*
X4761904Y63792800D01*
X4761904Y63792800D02*
X4799999Y63840420D01*
X5104761Y64411848D02*
X5523809Y64411848D01*
X5523809Y64411848D02*
X5104761Y63745181D01*
X5104761Y63745181D02*
X5523809Y63745181D01*
X5752380Y64411848D02*
X6171428Y64411848D01*
X6171428Y64411848D02*
X5752380Y63745181D01*
X5752380Y63745181D02*
X6171428Y63745181D01*
X7466666Y63745181D02*
X7085714Y63745181D01*
X7085714Y63745181D02*
X7085714Y64745181D01*
X7733333Y64268991D02*
X7999999Y64268991D01*
X8114285Y63745181D02*
X7733333Y63745181D01*
X7733333Y63745181D02*
X7733333Y64745181D01*
X7733333Y64745181D02*
X8114285Y64745181D01*
X8457143Y63745181D02*
X8457143Y64745181D01*
X8457143Y64745181D02*
X8647619Y64745181D01*
X8647619Y64745181D02*
X8761905Y64697562D01*
X8761905Y64697562D02*
X8838095Y64602324D01*
X8838095Y64602324D02*
X8876190Y64507086D01*
X8876190Y64507086D02*
X8914286Y64316610D01*
X8914286Y64316610D02*
X8914286Y64173753D01*
X8914286Y64173753D02*
X8876190Y63983277D01*
X8876190Y63983277D02*
X8838095Y63888039D01*
X8838095Y63888039D02*
X8761905Y63792800D01*
X8761905Y63792800D02*
X8647619Y63745181D01*
X8647619Y63745181D02*
X8457143Y63745181D01*
X9219047Y64030896D02*
X9600000Y64030896D01*
X9142857Y63745181D02*
X9409524Y64745181D01*
X9409524Y64745181D02*
X9676190Y63745181D01*
X10933333Y63745181D02*
X10552381Y63745181D01*
X10552381Y63745181D02*
X10552381Y64745181D01*
X11200000Y64268991D02*
X11466666Y64268991D01*
X11580952Y63745181D02*
X11200000Y63745181D01*
X11200000Y63745181D02*
X11200000Y64745181D01*
X11200000Y64745181D02*
X11580952Y64745181D01*
X11923810Y63745181D02*
X11923810Y64745181D01*
X11923810Y64745181D02*
X12114286Y64745181D01*
X12114286Y64745181D02*
X12228572Y64697562D01*
X12228572Y64697562D02*
X12304762Y64602324D01*
X12304762Y64602324D02*
X12342857Y64507086D01*
X12342857Y64507086D02*
X12380953Y64316610D01*
X12380953Y64316610D02*
X12380953Y64173753D01*
X12380953Y64173753D02*
X12342857Y63983277D01*
X12342857Y63983277D02*
X12304762Y63888039D01*
X12304762Y63888039D02*
X12228572Y63792800D01*
X12228572Y63792800D02*
X12114286Y63745181D01*
X12114286Y63745181D02*
X11923810Y63745181D01*
X12990476Y64268991D02*
X13104762Y64221372D01*
X13104762Y64221372D02*
X13142857Y64173753D01*
X13142857Y64173753D02*
X13180953Y64078515D01*
X13180953Y64078515D02*
X13180953Y63935658D01*
X13180953Y63935658D02*
X13142857Y63840420D01*
X13142857Y63840420D02*
X13104762Y63792800D01*
X13104762Y63792800D02*
X13028572Y63745181D01*
X13028572Y63745181D02*
X12723810Y63745181D01*
X12723810Y63745181D02*
X12723810Y64745181D01*
X12723810Y64745181D02*
X12990476Y64745181D01*
X12990476Y64745181D02*
X13066667Y64697562D01*
X13066667Y64697562D02*
X13104762Y64649943D01*
X13104762Y64649943D02*
X13142857Y64554705D01*
X13142857Y64554705D02*
X13142857Y64459467D01*
X13142857Y64459467D02*
X13104762Y64364229D01*
X13104762Y64364229D02*
X13066667Y64316610D01*
X13066667Y64316610D02*
X12990476Y64268991D01*
X12990476Y64268991D02*
X12723810Y64268991D01*
D13*
%TO.C,J1*%
X12878709Y63292858D02*
X12878709Y63007144D01*
X12878709Y63150001D02*
X12378709Y63150001D01*
X12378709Y63150001D02*
X12450138Y63102382D01*
X12450138Y63102382D02*
X12497757Y63054763D01*
X12497757Y63054763D02*
X12521566Y63007144D01*
D10*
%TO.C,DISP1*%
X26347619Y21195181D02*
X26347619Y22195181D01*
X26347619Y22195181D02*
X26585714Y22195181D01*
X26585714Y22195181D02*
X26728571Y22147562D01*
X26728571Y22147562D02*
X26823809Y22052324D01*
X26823809Y22052324D02*
X26871428Y21957086D01*
X26871428Y21957086D02*
X26919047Y21766610D01*
X26919047Y21766610D02*
X26919047Y21623753D01*
X26919047Y21623753D02*
X26871428Y21433277D01*
X26871428Y21433277D02*
X26823809Y21338039D01*
X26823809Y21338039D02*
X26728571Y21242800D01*
X26728571Y21242800D02*
X26585714Y21195181D01*
X26585714Y21195181D02*
X26347619Y21195181D01*
X27347619Y21195181D02*
X27347619Y22195181D01*
X27776190Y21242800D02*
X27919047Y21195181D01*
X27919047Y21195181D02*
X28157142Y21195181D01*
X28157142Y21195181D02*
X28252380Y21242800D01*
X28252380Y21242800D02*
X28299999Y21290420D01*
X28299999Y21290420D02*
X28347618Y21385658D01*
X28347618Y21385658D02*
X28347618Y21480896D01*
X28347618Y21480896D02*
X28299999Y21576134D01*
X28299999Y21576134D02*
X28252380Y21623753D01*
X28252380Y21623753D02*
X28157142Y21671372D01*
X28157142Y21671372D02*
X27966666Y21718991D01*
X27966666Y21718991D02*
X27871428Y21766610D01*
X27871428Y21766610D02*
X27823809Y21814229D01*
X27823809Y21814229D02*
X27776190Y21909467D01*
X27776190Y21909467D02*
X27776190Y22004705D01*
X27776190Y22004705D02*
X27823809Y22099943D01*
X27823809Y22099943D02*
X27871428Y22147562D01*
X27871428Y22147562D02*
X27966666Y22195181D01*
X27966666Y22195181D02*
X28204761Y22195181D01*
X28204761Y22195181D02*
X28347618Y22147562D01*
X28776190Y21195181D02*
X28776190Y22195181D01*
X28776190Y22195181D02*
X29157142Y22195181D01*
X29157142Y22195181D02*
X29252380Y22147562D01*
X29252380Y22147562D02*
X29299999Y22099943D01*
X29299999Y22099943D02*
X29347618Y22004705D01*
X29347618Y22004705D02*
X29347618Y21861848D01*
X29347618Y21861848D02*
X29299999Y21766610D01*
X29299999Y21766610D02*
X29252380Y21718991D01*
X29252380Y21718991D02*
X29157142Y21671372D01*
X29157142Y21671372D02*
X28776190Y21671372D01*
X30299999Y21195181D02*
X29728571Y21195181D01*
X30014285Y21195181D02*
X30014285Y22195181D01*
X30014285Y22195181D02*
X29919047Y22052324D01*
X29919047Y22052324D02*
X29823809Y21957086D01*
X29823809Y21957086D02*
X29728571Y21909467D01*
D13*
X1155376Y49187144D02*
X1488709Y49187144D01*
X964900Y49068096D02*
X1322042Y48949049D01*
X1322042Y48949049D02*
X1322042Y49258572D01*
X988709Y49544286D02*
X988709Y49591905D01*
X988709Y49591905D02*
X1012519Y49639524D01*
X1012519Y49639524D02*
X1036328Y49663334D01*
X1036328Y49663334D02*
X1083947Y49687143D01*
X1083947Y49687143D02*
X1179185Y49710953D01*
X1179185Y49710953D02*
X1298233Y49710953D01*
X1298233Y49710953D02*
X1393471Y49687143D01*
X1393471Y49687143D02*
X1441090Y49663334D01*
X1441090Y49663334D02*
X1464900Y49639524D01*
X1464900Y49639524D02*
X1488709Y49591905D01*
X1488709Y49591905D02*
X1488709Y49544286D01*
X1488709Y49544286D02*
X1464900Y49496667D01*
X1464900Y49496667D02*
X1441090Y49472858D01*
X1441090Y49472858D02*
X1393471Y49449048D01*
X1393471Y49449048D02*
X1298233Y49425239D01*
X1298233Y49425239D02*
X1179185Y49425239D01*
X1179185Y49425239D02*
X1083947Y49449048D01*
X1083947Y49449048D02*
X1036328Y49472858D01*
X1036328Y49472858D02*
X1012519Y49496667D01*
X1012519Y49496667D02*
X988709Y49544286D01*
X49376328Y6019049D02*
X49352519Y6042858D01*
X49352519Y6042858D02*
X49328709Y6090477D01*
X49328709Y6090477D02*
X49328709Y6209525D01*
X49328709Y6209525D02*
X49352519Y6257144D01*
X49352519Y6257144D02*
X49376328Y6280953D01*
X49376328Y6280953D02*
X49423947Y6304763D01*
X49423947Y6304763D02*
X49471566Y6304763D01*
X49471566Y6304763D02*
X49542995Y6280953D01*
X49542995Y6280953D02*
X49828709Y5995239D01*
X49828709Y5995239D02*
X49828709Y6304763D01*
X49328709Y6614286D02*
X49328709Y6661905D01*
X49328709Y6661905D02*
X49352519Y6709524D01*
X49352519Y6709524D02*
X49376328Y6733334D01*
X49376328Y6733334D02*
X49423947Y6757143D01*
X49423947Y6757143D02*
X49519185Y6780953D01*
X49519185Y6780953D02*
X49638233Y6780953D01*
X49638233Y6780953D02*
X49733471Y6757143D01*
X49733471Y6757143D02*
X49781090Y6733334D01*
X49781090Y6733334D02*
X49804900Y6709524D01*
X49804900Y6709524D02*
X49828709Y6661905D01*
X49828709Y6661905D02*
X49828709Y6614286D01*
X49828709Y6614286D02*
X49804900Y6566667D01*
X49804900Y6566667D02*
X49781090Y6542858D01*
X49781090Y6542858D02*
X49733471Y6519048D01*
X49733471Y6519048D02*
X49638233Y6495239D01*
X49638233Y6495239D02*
X49519185Y6495239D01*
X49519185Y6495239D02*
X49423947Y6519048D01*
X49423947Y6519048D02*
X49376328Y6542858D01*
X49376328Y6542858D02*
X49352519Y6566667D01*
X49352519Y6566667D02*
X49328709Y6614286D01*
X1498709Y6991858D02*
X1498709Y6706144D01*
X1498709Y6849001D02*
X998709Y6849001D01*
X998709Y6849001D02*
X1070138Y6801382D01*
X1070138Y6801382D02*
X1117757Y6753763D01*
X1117757Y6753763D02*
X1141566Y6706144D01*
X49276328Y49019049D02*
X49252519Y49042858D01*
X49252519Y49042858D02*
X49228709Y49090477D01*
X49228709Y49090477D02*
X49228709Y49209525D01*
X49228709Y49209525D02*
X49252519Y49257144D01*
X49252519Y49257144D02*
X49276328Y49280953D01*
X49276328Y49280953D02*
X49323947Y49304763D01*
X49323947Y49304763D02*
X49371566Y49304763D01*
X49371566Y49304763D02*
X49442995Y49280953D01*
X49442995Y49280953D02*
X49728709Y48995239D01*
X49728709Y48995239D02*
X49728709Y49304763D01*
X49728709Y49780953D02*
X49728709Y49495239D01*
X49728709Y49638096D02*
X49228709Y49638096D01*
X49228709Y49638096D02*
X49300138Y49590477D01*
X49300138Y49590477D02*
X49347757Y49542858D01*
X49347757Y49542858D02*
X49371566Y49495239D01*
%TO.C,J3*%
X17248709Y63963858D02*
X17248709Y63678144D01*
X17248709Y63821001D02*
X16748709Y63821001D01*
X16748709Y63821001D02*
X16820138Y63773382D01*
X16820138Y63773382D02*
X16867757Y63725763D01*
X16867757Y63725763D02*
X16891566Y63678144D01*
D10*
%TO.C,J1*%
X12210000Y58360000D02*
X4590000Y58360000D01*
X4590000Y63440000D02*
X12210000Y63440000D01*
X12210000Y63440000D02*
X12210000Y58360000D01*
X4590000Y58360000D02*
X4590000Y63440000D01*
%TO.C,J6*%
X32250000Y63440000D02*
X44950000Y63440000D01*
X44950000Y58360000D02*
X32250000Y58360000D01*
X32250000Y58360000D02*
X32250000Y63440000D01*
X44950000Y63440000D02*
X44950000Y58360000D01*
%TO.C,J5*%
X22370000Y55890000D02*
X19830000Y55890000D01*
X19830000Y63510000D02*
X22370000Y63510000D01*
X22370000Y63510000D02*
X22370000Y55890000D01*
X19830000Y55890000D02*
X19830000Y63510000D01*
%TO.C,DISP1*%
X50790000Y50030000D02*
X-10000Y50030000D01*
D14*
X-1900000Y8500000D02*
X0Y8500000D01*
X52700000Y51300000D02*
X50790000Y51300000D01*
D10*
X50800000Y7230000D02*
X0Y7230000D01*
X-10000Y52570000D02*
X50790000Y52570000D01*
X0Y9770000D02*
X50800000Y9770000D01*
D14*
X-1900000Y51300000D02*
X-1900000Y8500000D01*
D10*
X0Y7230000D02*
X0Y9770000D01*
X-10000Y50030000D02*
X-10000Y52570000D01*
D14*
X52700000Y8500000D02*
X52700000Y51300000D01*
D10*
X50790000Y52570000D02*
X50790000Y50030000D01*
X50800000Y9770000D02*
X50800000Y7230000D01*
D14*
X-10000Y51300000D02*
X-1900000Y51300000D01*
X50800000Y8500000D02*
X52700000Y8500000D01*
X-100000Y43200000D02*
X50900000Y43200000D01*
X50900000Y43200000D02*
X50900000Y12200000D01*
X50900000Y12200000D02*
X-100000Y12200000D01*
X-100000Y12200000D02*
X-100000Y43200000D01*
X-100000Y43200000D02*
X50900000Y43200000D01*
X50900000Y43200000D02*
X50900000Y12200000D01*
X50900000Y12200000D02*
X-100000Y12200000D01*
X-100000Y12200000D02*
X-100000Y43200000D01*
D10*
%TO.C,J2*%
X31010000Y58360000D02*
X23390000Y58360000D01*
X31010000Y63440000D02*
X31010000Y58360000D01*
X23390000Y63440000D02*
X31010000Y63440000D01*
X23390000Y58360000D02*
X23390000Y63440000D01*
%TO.C,J3*%
X18290000Y63440000D02*
X18290000Y58360000D01*
X13210000Y63440000D02*
X18290000Y63440000D01*
X18290000Y58360000D02*
X13210000Y58360000D01*
X13210000Y58360000D02*
X13210000Y63440000D01*
%TD*%
D15*
%TO.C,J6*%
X33520000Y59630000D03*
X33520000Y62170000D03*
X36060000Y59630000D03*
X36060000Y62170000D03*
X38600000Y59630000D03*
X38600000Y62170000D03*
X41140000Y59630000D03*
X41140000Y62170000D03*
X43680000Y59630000D03*
X43680000Y62170000D03*
%TD*%
%TO.C,DISP1*%
X1270000Y8500000D03*
X3810000Y8500000D03*
X6350000Y8500000D03*
X44450000Y8500000D03*
X46990000Y8500000D03*
X49530000Y8500000D03*
X49520000Y51300000D03*
X46980000Y51300000D03*
X44440000Y51300000D03*
X41900000Y51300000D03*
X39360000Y51300000D03*
X36820000Y51300000D03*
X34280000Y51300000D03*
X31740000Y51300000D03*
X29200000Y51300000D03*
X26660000Y51300000D03*
X24120000Y51300000D03*
X21580000Y51300000D03*
X19040000Y51300000D03*
X16500000Y51300000D03*
X13960000Y51300000D03*
X11420000Y51300000D03*
X8880000Y51300000D03*
X6340000Y51300000D03*
X3800000Y51300000D03*
X1260000Y51300000D03*
%TD*%
%TO.C,J3*%
X17020000Y62170000D03*
X17020000Y59630000D03*
X14480000Y62170000D03*
X14480000Y59630000D03*
%TD*%
M02*
