%TF.GenerationSoftware,KiCad,Pcbnew,6.0.11+dfsg-1~bpo11+1*%
%TF.CreationDate,2023-07-05T12:26:52+00:00*%
%TF.ProjectId,OLED01,4f4c4544-3031-42e6-9b69-6361645f7063,rev?*%
%TF.SameCoordinates,PX72ba1e0PY737d6e0*%
%TF.FileFunction,Soldermask,Top*%
%TF.FilePolarity,Negative*%
%FSLAX46Y46*%
G04 Gerber Fmt 4.6, Leading zero omitted, Abs format (unit mm)*
G04 Created by KiCad (PCBNEW 6.0.11+dfsg-1~bpo11+1) date 2023-07-05 12:26:52*
%MOMM*%
%LPD*%
G01*
G04 APERTURE LIST*
G04 Aperture macros list*
%AMRoundRect*
0 Rectangle with rounded corners*
0 $1 Rounding radius*
0 $2 $3 $4 $5 $6 $7 $8 $9 X,Y pos of 4 corners*
0 Add a 4 corners polygon primitive as box body*
4,1,4,$2,$3,$4,$5,$6,$7,$8,$9,$2,$3,0*
0 Add four circle primitives for the rounded corners*
1,1,$1+$1,$2,$3*
1,1,$1+$1,$4,$5*
1,1,$1+$1,$6,$7*
1,1,$1+$1,$8,$9*
0 Add four rect primitives between the rounded corners*
20,1,$1+$1,$2,$3,$4,$5,0*
20,1,$1+$1,$4,$5,$6,$7,0*
20,1,$1+$1,$6,$7,$8,$9,0*
20,1,$1+$1,$8,$9,$2,$3,0*%
G04 Aperture macros list end*
%ADD10RoundRect,0.200000X-0.762000X0.762000X-0.762000X-0.762000X0.762000X-0.762000X0.762000X0.762000X0*%
%ADD11C,6.400000*%
%ADD12RoundRect,0.200000X0.762000X-0.762000X0.762000X0.762000X-0.762000X0.762000X-0.762000X-0.762000X0*%
%ADD13RoundRect,0.200000X0.762000X0.762000X-0.762000X0.762000X-0.762000X-0.762000X0.762000X-0.762000X0*%
G04 APERTURE END LIST*
D10*
%TO.C,J1*%
X10940000Y62170000D03*
X10940000Y59630000D03*
X8400000Y62170000D03*
X8400000Y59630000D03*
X5860000Y62170000D03*
X5860000Y59630000D03*
%TD*%
D11*
%TO.C,H3*%
X50800000Y0D03*
%TD*%
%TO.C,H4*%
X0Y0D03*
%TD*%
D12*
%TO.C,J6*%
X33520000Y59630000D03*
X33520000Y62170000D03*
X36060000Y59630000D03*
X36060000Y62170000D03*
X38600000Y59630000D03*
X38600000Y62170000D03*
X41140000Y59630000D03*
X41140000Y62170000D03*
X43680000Y59630000D03*
X43680000Y62170000D03*
%TD*%
D13*
%TO.C,J5*%
X21100000Y57160000D03*
X21100000Y59700000D03*
X21100000Y62240000D03*
%TD*%
D11*
%TO.C,H1*%
X0Y61000000D03*
%TD*%
%TO.C,H2*%
X50800000Y61000000D03*
%TD*%
D12*
%TO.C,DISP1*%
X1270000Y8500000D03*
X3810000Y8500000D03*
X6350000Y8500000D03*
X44450000Y8500000D03*
X46990000Y8500000D03*
X49530000Y8500000D03*
X49520000Y51300000D03*
X46980000Y51300000D03*
X44440000Y51300000D03*
X41900000Y51300000D03*
X39360000Y51300000D03*
X36820000Y51300000D03*
X34280000Y51300000D03*
X31740000Y51300000D03*
X29200000Y51300000D03*
X26660000Y51300000D03*
X24120000Y51300000D03*
X21580000Y51300000D03*
X19040000Y51300000D03*
X16500000Y51300000D03*
X13960000Y51300000D03*
X11420000Y51300000D03*
X8880000Y51300000D03*
X6340000Y51300000D03*
X3800000Y51300000D03*
X1260000Y51300000D03*
%TD*%
D10*
%TO.C,J2*%
X29740000Y62170000D03*
X29740000Y59630000D03*
X27200000Y62170000D03*
X27200000Y59630000D03*
X24660000Y62170000D03*
X24660000Y59630000D03*
%TD*%
%TO.C,J3*%
X17020000Y62170000D03*
X17020000Y59630000D03*
X14480000Y62170000D03*
X14480000Y59630000D03*
%TD*%
M02*
