%TF.GenerationSoftware,KiCad,Pcbnew,6.0.11+dfsg-1~bpo11+1*%
%TF.CreationDate,2023-06-15T06:59:51+00:00*%
%TF.ProjectId,OLED01,4f4c4544-3031-42e6-9b69-6361645f7063,rev?*%
%TF.SameCoordinates,PX72ba1e0PY737d6e0*%
%TF.FileFunction,Profile,NP*%
%FSLAX46Y46*%
G04 Gerber Fmt 4.6, Leading zero omitted, Abs format (unit mm)*
G04 Created by KiCad (PCBNEW 6.0.11+dfsg-1~bpo11+1) date 2023-06-15 06:59:51*
%MOMM*%
%LPD*%
G01*
G04 APERTURE LIST*
%TA.AperFunction,Profile*%
%ADD10C,0.050000*%
%TD*%
G04 APERTURE END LIST*
D10*
X23000000Y55700000D02*
G75*
G03*
X23000000Y54500000I0J-600000D01*
G01*
X-4980000Y-4980000D02*
X55780000Y-4980000D01*
X55780000Y-4980000D02*
X55780000Y65940000D01*
X55780000Y65940000D02*
X-4980000Y65940000D01*
X-4980000Y65940000D02*
X-4980000Y-4980000D01*
X23000000Y54500000D02*
X27800000Y54500000D01*
X27800000Y55700000D02*
X23000000Y55700000D01*
X27800000Y54500000D02*
G75*
G03*
X27800000Y55700000I0J600000D01*
G01*
%TO.C,D4*%
X23712500Y-920000D02*
X25112500Y-920000D01*
X25612500Y-420000D02*
X25612500Y780000D01*
X23712500Y1280000D02*
X25112500Y1280000D01*
X23212500Y-420000D02*
X23212500Y780000D01*
X23212500Y-420000D02*
G75*
G03*
X23712500Y-920000I500001J1D01*
G01*
X25612500Y780000D02*
G75*
G03*
X25112500Y1280000I-500000J0D01*
G01*
X25112500Y-920000D02*
G75*
G03*
X25612500Y-420000I-1J500001D01*
G01*
X23712500Y1280000D02*
G75*
G03*
X23212500Y780000I0J-500000D01*
G01*
%TO.C,D5*%
X27625000Y-325000D02*
X27625000Y875000D01*
X28125000Y-825000D02*
X29525000Y-825000D01*
X28125000Y1375000D02*
X29525000Y1375000D01*
X30025000Y-325000D02*
X30025000Y875000D01*
X27625000Y-325000D02*
G75*
G03*
X28125000Y-825000I500001J1D01*
G01*
X30025000Y875000D02*
G75*
G03*
X29525000Y1375000I-500000J0D01*
G01*
X28125000Y1375000D02*
G75*
G03*
X27625000Y875000I0J-500000D01*
G01*
X29525000Y-825000D02*
G75*
G03*
X30025000Y-325000I-1J500001D01*
G01*
%TD*%
M02*
