%TF.GenerationSoftware,KiCad,Pcbnew,6.0.11+dfsg-1~bpo11+1*%
%TF.CreationDate,2023-07-05T00:29:45+00:00*%
%TF.ProjectId,OLED01,4f4c4544-3031-42e6-9b69-6361645f7063,rev?*%
%TF.SameCoordinates,PX72ba1e0PY737d6e0*%
%TF.FileFunction,Legend,Top*%
%TF.FilePolarity,Positive*%
%FSLAX46Y46*%
G04 Gerber Fmt 4.6, Leading zero omitted, Abs format (unit mm)*
G04 Created by KiCad (PCBNEW 6.0.11+dfsg-1~bpo11+1) date 2023-07-05 00:29:45*
%MOMM*%
%LPD*%
G01*
G04 APERTURE LIST*
%ADD10C,0.150000*%
%ADD11C,0.300000*%
%ADD12C,0.200000*%
%ADD13C,0.050000*%
%ADD14C,0.120000*%
%ADD15R,1.524000X1.524000*%
G04 APERTURE END LIST*
D10*
X25278571Y57797620D02*
X25835714Y57797620D01*
X25535714Y57416667D01*
X25664285Y57416667D01*
X25750000Y57369048D01*
X25792857Y57321429D01*
X25835714Y57226191D01*
X25835714Y56988096D01*
X25792857Y56892858D01*
X25750000Y56845239D01*
X25664285Y56797620D01*
X25407142Y56797620D01*
X25321428Y56845239D01*
X25278571Y56892858D01*
X26135714Y57464286D02*
X26350000Y56797620D01*
X26564285Y57464286D01*
X26907142Y57178572D02*
X27592857Y57178572D01*
X28450000Y57797620D02*
X28021428Y57797620D01*
X27978571Y57321429D01*
X28021428Y57369048D01*
X28107142Y57416667D01*
X28321428Y57416667D01*
X28407142Y57369048D01*
X28450000Y57321429D01*
X28492857Y57226191D01*
X28492857Y56988096D01*
X28450000Y56892858D01*
X28407142Y56845239D01*
X28321428Y56797620D01*
X28107142Y56797620D01*
X28021428Y56845239D01*
X27978571Y56892858D01*
X28792857Y57464286D02*
X29007142Y56797620D01*
X29221428Y57464286D01*
X28871428Y2171429D02*
X29014285Y2123810D01*
X29061904Y2076191D01*
X29109523Y1980953D01*
X29109523Y1838096D01*
X29061904Y1742858D01*
X29014285Y1695239D01*
X28919047Y1647620D01*
X28538095Y1647620D01*
X28538095Y2647620D01*
X28871428Y2647620D01*
X28966666Y2600000D01*
X29014285Y2552381D01*
X29061904Y2457143D01*
X29061904Y2361905D01*
X29014285Y2266667D01*
X28966666Y2219048D01*
X28871428Y2171429D01*
X28538095Y2171429D01*
X18707142Y56400000D02*
X18707142Y56485715D01*
X18750000Y56571429D01*
X18792857Y56614286D01*
X18878571Y56657143D01*
X19050000Y56700000D01*
X19264285Y56700000D01*
X19435714Y56657143D01*
X19521428Y56614286D01*
X19564285Y56571429D01*
X19607142Y56485715D01*
X19607142Y56400000D01*
X19564285Y56314286D01*
X19521428Y56271429D01*
X19435714Y56228572D01*
X19264285Y56185715D01*
X19050000Y56185715D01*
X18878571Y56228572D01*
X18792857Y56271429D01*
X18750000Y56314286D01*
X18707142Y56400000D01*
X19607142Y57000000D02*
X19007142Y57471429D01*
X19007142Y57000000D02*
X19607142Y57471429D01*
X18707142Y57728572D02*
X18707142Y58285715D01*
X19050000Y57985715D01*
X19050000Y58114286D01*
X19092857Y58200000D01*
X19135714Y58242858D01*
X19221428Y58285715D01*
X19435714Y58285715D01*
X19521428Y58242858D01*
X19564285Y58200000D01*
X19607142Y58114286D01*
X19607142Y57857143D01*
X19564285Y57771429D01*
X19521428Y57728572D01*
X19607142Y58671429D02*
X18707142Y58671429D01*
X18707142Y58885715D01*
X18750000Y59014286D01*
X18835714Y59100000D01*
X18921428Y59142858D01*
X19092857Y59185715D01*
X19221428Y59185715D01*
X19392857Y59142858D01*
X19478571Y59100000D01*
X19564285Y59014286D01*
X19607142Y58885715D01*
X19607142Y58671429D01*
X18707142Y60428572D02*
X18707142Y60514286D01*
X18750000Y60600000D01*
X18792857Y60642858D01*
X18878571Y60685715D01*
X19050000Y60728572D01*
X19264285Y60728572D01*
X19435714Y60685715D01*
X19521428Y60642858D01*
X19564285Y60600000D01*
X19607142Y60514286D01*
X19607142Y60428572D01*
X19564285Y60342858D01*
X19521428Y60300000D01*
X19435714Y60257143D01*
X19264285Y60214286D01*
X19050000Y60214286D01*
X18878571Y60257143D01*
X18792857Y60300000D01*
X18750000Y60342858D01*
X18707142Y60428572D01*
X19607142Y61028572D02*
X19007142Y61500000D01*
X19007142Y61028572D02*
X19607142Y61500000D01*
X18707142Y61757143D02*
X18707142Y62314286D01*
X19050000Y62014286D01*
X19050000Y62142858D01*
X19092857Y62228572D01*
X19135714Y62271429D01*
X19221428Y62314286D01*
X19435714Y62314286D01*
X19521428Y62271429D01*
X19564285Y62228572D01*
X19607142Y62142858D01*
X19607142Y61885715D01*
X19564285Y61800000D01*
X19521428Y61757143D01*
X19521428Y63214286D02*
X19564285Y63171429D01*
X19607142Y63042858D01*
X19607142Y62957143D01*
X19564285Y62828572D01*
X19478571Y62742858D01*
X19392857Y62700000D01*
X19221428Y62657143D01*
X19092857Y62657143D01*
X18921428Y62700000D01*
X18835714Y62742858D01*
X18750000Y62828572D01*
X18707142Y62957143D01*
X18707142Y63042858D01*
X18750000Y63171429D01*
X18792857Y63214286D01*
D11*
X7704523Y858405D02*
X7704523Y2158405D01*
X8137857Y1229834D01*
X8571190Y2158405D01*
X8571190Y858405D01*
X9809285Y858405D02*
X9190238Y858405D01*
X9190238Y2158405D01*
X10180714Y1229834D02*
X10799761Y1229834D01*
X10056904Y858405D02*
X10490238Y2158405D01*
X10923571Y858405D01*
X11790238Y1539358D02*
X11975952Y1477453D01*
X12037857Y1415548D01*
X12099761Y1291739D01*
X12099761Y1106024D01*
X12037857Y982215D01*
X11975952Y920310D01*
X11852142Y858405D01*
X11356904Y858405D01*
X11356904Y2158405D01*
X11790238Y2158405D01*
X11914047Y2096500D01*
X11975952Y2034596D01*
X12037857Y1910786D01*
X12037857Y1786977D01*
X11975952Y1663167D01*
X11914047Y1601262D01*
X11790238Y1539358D01*
X11356904Y1539358D01*
X12656904Y982215D02*
X12718809Y920310D01*
X12656904Y858405D01*
X12595000Y920310D01*
X12656904Y982215D01*
X12656904Y858405D01*
X13833095Y920310D02*
X13709285Y858405D01*
X13461666Y858405D01*
X13337857Y920310D01*
X13275952Y982215D01*
X13214047Y1106024D01*
X13214047Y1477453D01*
X13275952Y1601262D01*
X13337857Y1663167D01*
X13461666Y1725072D01*
X13709285Y1725072D01*
X13833095Y1663167D01*
X14266428Y1725072D02*
X14947380Y1725072D01*
X14266428Y858405D01*
X14947380Y858405D01*
X7642619Y-58404D02*
X7704523Y3500D01*
X7828333Y65405D01*
X8137857Y65405D01*
X8261666Y3500D01*
X8323571Y-58404D01*
X8385476Y-182214D01*
X8385476Y-306023D01*
X8323571Y-491738D01*
X7580714Y-1234595D01*
X8385476Y-1234595D01*
X9190238Y65405D02*
X9314047Y65405D01*
X9437857Y3500D01*
X9499761Y-58404D01*
X9561666Y-182214D01*
X9623571Y-429833D01*
X9623571Y-739357D01*
X9561666Y-986976D01*
X9499761Y-1110785D01*
X9437857Y-1172690D01*
X9314047Y-1234595D01*
X9190238Y-1234595D01*
X9066428Y-1172690D01*
X9004523Y-1110785D01*
X8942619Y-986976D01*
X8880714Y-739357D01*
X8880714Y-429833D01*
X8942619Y-182214D01*
X9004523Y-58404D01*
X9066428Y3500D01*
X9190238Y65405D01*
X10118809Y-58404D02*
X10180714Y3500D01*
X10304523Y65405D01*
X10614047Y65405D01*
X10737857Y3500D01*
X10799761Y-58404D01*
X10861666Y-182214D01*
X10861666Y-306023D01*
X10799761Y-491738D01*
X10056904Y-1234595D01*
X10861666Y-1234595D01*
X11295000Y65405D02*
X12099761Y65405D01*
X11666428Y-429833D01*
X11852142Y-429833D01*
X11975952Y-491738D01*
X12037857Y-553642D01*
X12099761Y-677452D01*
X12099761Y-986976D01*
X12037857Y-1110785D01*
X11975952Y-1172690D01*
X11852142Y-1234595D01*
X11480714Y-1234595D01*
X11356904Y-1172690D01*
X11295000Y-1110785D01*
D10*
X31378571Y57750000D02*
X31292857Y57797620D01*
X31164285Y57797620D01*
X31035714Y57750000D01*
X30950000Y57654762D01*
X30907142Y57559524D01*
X30864285Y57369048D01*
X30864285Y57226191D01*
X30907142Y57035715D01*
X30950000Y56940477D01*
X31035714Y56845239D01*
X31164285Y56797620D01*
X31250000Y56797620D01*
X31378571Y56845239D01*
X31421428Y56892858D01*
X31421428Y57226191D01*
X31250000Y57226191D01*
X31807142Y56797620D02*
X31807142Y57797620D01*
X32321428Y56797620D01*
X32321428Y57797620D01*
X32750000Y56797620D02*
X32750000Y57797620D01*
X32964285Y57797620D01*
X33092857Y57750000D01*
X33178571Y57654762D01*
X33221428Y57559524D01*
X33264285Y57369048D01*
X33264285Y57226191D01*
X33221428Y57035715D01*
X33178571Y56940477D01*
X33092857Y56845239D01*
X32964285Y56797620D01*
X32750000Y56797620D01*
X34292857Y56845239D02*
X34421428Y56797620D01*
X34635714Y56797620D01*
X34721428Y56845239D01*
X34764285Y56892858D01*
X34807142Y56988096D01*
X34807142Y57083334D01*
X34764285Y57178572D01*
X34721428Y57226191D01*
X34635714Y57273810D01*
X34464285Y57321429D01*
X34378571Y57369048D01*
X34335714Y57416667D01*
X34292857Y57511905D01*
X34292857Y57607143D01*
X34335714Y57702381D01*
X34378571Y57750000D01*
X34464285Y57797620D01*
X34678571Y57797620D01*
X34807142Y57750000D01*
X35707142Y56892858D02*
X35664285Y56845239D01*
X35535714Y56797620D01*
X35450000Y56797620D01*
X35321428Y56845239D01*
X35235714Y56940477D01*
X35192857Y57035715D01*
X35150000Y57226191D01*
X35150000Y57369048D01*
X35192857Y57559524D01*
X35235714Y57654762D01*
X35321428Y57750000D01*
X35450000Y57797620D01*
X35535714Y57797620D01*
X35664285Y57750000D01*
X35707142Y57702381D01*
X36521428Y56797620D02*
X36092857Y56797620D01*
X36092857Y57797620D01*
X37378571Y57797620D02*
X37678571Y56797620D01*
X37978571Y57797620D01*
X38792857Y56892858D02*
X38750000Y56845239D01*
X38621428Y56797620D01*
X38535714Y56797620D01*
X38407142Y56845239D01*
X38321428Y56940477D01*
X38278571Y57035715D01*
X38235714Y57226191D01*
X38235714Y57369048D01*
X38278571Y57559524D01*
X38321428Y57654762D01*
X38407142Y57750000D01*
X38535714Y57797620D01*
X38621428Y57797620D01*
X38750000Y57750000D01*
X38792857Y57702381D01*
X39692857Y56892858D02*
X39650000Y56845239D01*
X39521428Y56797620D01*
X39435714Y56797620D01*
X39307142Y56845239D01*
X39221428Y56940477D01*
X39178571Y57035715D01*
X39135714Y57226191D01*
X39135714Y57369048D01*
X39178571Y57559524D01*
X39221428Y57654762D01*
X39307142Y57750000D01*
X39435714Y57797620D01*
X39521428Y57797620D01*
X39650000Y57750000D01*
X39692857Y57702381D01*
X40721428Y56845239D02*
X40850000Y56797620D01*
X41064285Y56797620D01*
X41150000Y56845239D01*
X41192857Y56892858D01*
X41235714Y56988096D01*
X41235714Y57083334D01*
X41192857Y57178572D01*
X41150000Y57226191D01*
X41064285Y57273810D01*
X40892857Y57321429D01*
X40807142Y57369048D01*
X40764285Y57416667D01*
X40721428Y57511905D01*
X40721428Y57607143D01*
X40764285Y57702381D01*
X40807142Y57750000D01*
X40892857Y57797620D01*
X41107142Y57797620D01*
X41235714Y57750000D01*
X41621428Y56797620D02*
X41621428Y57797620D01*
X41835714Y57797620D01*
X41964285Y57750000D01*
X42050000Y57654762D01*
X42092857Y57559524D01*
X42135714Y57369048D01*
X42135714Y57226191D01*
X42092857Y57035715D01*
X42050000Y56940477D01*
X41964285Y56845239D01*
X41835714Y56797620D01*
X41621428Y56797620D01*
X42478571Y57083334D02*
X42907142Y57083334D01*
X42392857Y56797620D02*
X42692857Y57797620D01*
X42992857Y56797620D01*
X44450000Y57750000D02*
X44364285Y57797620D01*
X44235714Y57797620D01*
X44107142Y57750000D01*
X44021428Y57654762D01*
X43978571Y57559524D01*
X43935714Y57369048D01*
X43935714Y57226191D01*
X43978571Y57035715D01*
X44021428Y56940477D01*
X44107142Y56845239D01*
X44235714Y56797620D01*
X44321428Y56797620D01*
X44450000Y56845239D01*
X44492857Y56892858D01*
X44492857Y57226191D01*
X44321428Y57226191D01*
X44878571Y56797620D02*
X44878571Y57797620D01*
X45392857Y56797620D01*
X45392857Y57797620D01*
X45821428Y56797620D02*
X45821428Y57797620D01*
X46035714Y57797620D01*
X46164285Y57750000D01*
X46250000Y57654762D01*
X46292857Y57559524D01*
X46335714Y57369048D01*
X46335714Y57226191D01*
X46292857Y57035715D01*
X46250000Y56940477D01*
X46164285Y56845239D01*
X46035714Y56797620D01*
X45821428Y56797620D01*
D11*
X8012857Y5221429D02*
X8298571Y5221429D01*
X8441428Y5150000D01*
X8584285Y5007143D01*
X8655714Y4721429D01*
X8655714Y4221429D01*
X8584285Y3935715D01*
X8441428Y3792858D01*
X8298571Y3721429D01*
X8012857Y3721429D01*
X7870000Y3792858D01*
X7727142Y3935715D01*
X7655714Y4221429D01*
X7655714Y4721429D01*
X7727142Y5007143D01*
X7870000Y5150000D01*
X8012857Y5221429D01*
X10012857Y3721429D02*
X9298571Y3721429D01*
X9298571Y5221429D01*
X10512857Y4507143D02*
X11012857Y4507143D01*
X11227142Y3721429D02*
X10512857Y3721429D01*
X10512857Y5221429D01*
X11227142Y5221429D01*
X11870000Y3721429D02*
X11870000Y5221429D01*
X12227142Y5221429D01*
X12441428Y5150000D01*
X12584285Y5007143D01*
X12655714Y4864286D01*
X12727142Y4578572D01*
X12727142Y4364286D01*
X12655714Y4078572D01*
X12584285Y3935715D01*
X12441428Y3792858D01*
X12227142Y3721429D01*
X11870000Y3721429D01*
X13655714Y5221429D02*
X13798571Y5221429D01*
X13941428Y5150000D01*
X14012857Y5078572D01*
X14084285Y4935715D01*
X14155714Y4650000D01*
X14155714Y4292858D01*
X14084285Y4007143D01*
X14012857Y3864286D01*
X13941428Y3792858D01*
X13798571Y3721429D01*
X13655714Y3721429D01*
X13512857Y3792858D01*
X13441428Y3864286D01*
X13370000Y4007143D01*
X13298571Y4292858D01*
X13298571Y4650000D01*
X13370000Y4935715D01*
X13441428Y5078572D01*
X13512857Y5150000D01*
X13655714Y5221429D01*
X15584285Y3721429D02*
X14727142Y3721429D01*
X15155714Y3721429D02*
X15155714Y5221429D01*
X15012857Y5007143D01*
X14870000Y4864286D01*
X14727142Y4792858D01*
X16727142Y4507143D02*
X16941428Y4435715D01*
X17012857Y4364286D01*
X17084285Y4221429D01*
X17084285Y4007143D01*
X17012857Y3864286D01*
X16941428Y3792858D01*
X16798571Y3721429D01*
X16227142Y3721429D01*
X16227142Y5221429D01*
X16727142Y5221429D01*
X16870000Y5150000D01*
X16941428Y5078572D01*
X17012857Y4935715D01*
X17012857Y4792858D01*
X16941428Y4650000D01*
X16870000Y4578572D01*
X16727142Y4507143D01*
X16227142Y4507143D01*
D12*
X37428571Y63832789D02*
X37428571Y65032789D01*
X37942857Y64918504D02*
X38000000Y64975646D01*
X38114285Y65032789D01*
X38400000Y65032789D01*
X38514285Y64975646D01*
X38571428Y64918504D01*
X38628571Y64804218D01*
X38628571Y64689932D01*
X38571428Y64518504D01*
X37885714Y63832789D01*
X38628571Y63832789D01*
X39828571Y63947075D02*
X39771428Y63889932D01*
X39600000Y63832789D01*
X39485714Y63832789D01*
X39314285Y63889932D01*
X39200000Y64004218D01*
X39142857Y64118504D01*
X39085714Y64347075D01*
X39085714Y64518504D01*
X39142857Y64747075D01*
X39200000Y64861361D01*
X39314285Y64975646D01*
X39485714Y65032789D01*
X39600000Y65032789D01*
X39771428Y64975646D01*
X39828571Y64918504D01*
X18814285Y64300000D02*
X19385714Y64300000D01*
X18700000Y63957143D02*
X19100000Y65157143D01*
X19500000Y63957143D01*
X19900000Y63957143D02*
X19900000Y65157143D01*
X20185714Y65157143D01*
X20357142Y65100000D01*
X20471428Y64985715D01*
X20528571Y64871429D01*
X20585714Y64642858D01*
X20585714Y64471429D01*
X20528571Y64242858D01*
X20471428Y64128572D01*
X20357142Y64014286D01*
X20185714Y63957143D01*
X19900000Y63957143D01*
X21100000Y63957143D02*
X21100000Y65157143D01*
X21385714Y65157143D01*
X21557142Y65100000D01*
X21671428Y64985715D01*
X21728571Y64871429D01*
X21785714Y64642858D01*
X21785714Y64471429D01*
X21728571Y64242858D01*
X21671428Y64128572D01*
X21557142Y64014286D01*
X21385714Y63957143D01*
X21100000Y63957143D01*
X22985714Y63957143D02*
X22585714Y64528572D01*
X22300000Y63957143D02*
X22300000Y65157143D01*
X22757142Y65157143D01*
X22871428Y65100000D01*
X22928571Y65042858D01*
X22985714Y64928572D01*
X22985714Y64757143D01*
X22928571Y64642858D01*
X22871428Y64585715D01*
X22757142Y64528572D01*
X22300000Y64528572D01*
D10*
X24161904Y1933334D02*
X24638095Y1933334D01*
X24066666Y1647620D02*
X24400000Y2647620D01*
X24733333Y1647620D01*
X12447619Y57614286D02*
X13019047Y57614286D01*
X12676190Y58042858D02*
X12447619Y56757143D01*
X12942857Y57185715D02*
X12371428Y57185715D01*
X12714285Y56757143D02*
X12942857Y58042858D01*
X13285714Y56947620D02*
X13285714Y57947620D01*
X13666666Y56947620D02*
X13666666Y57947620D01*
X14123809Y56947620D01*
X14123809Y57947620D01*
X14390476Y57947620D02*
X14847619Y57947620D01*
X14619047Y56947620D02*
X14619047Y57947620D01*
X15685714Y57614286D02*
X16257142Y57614286D01*
X15914285Y58042858D02*
X15685714Y56757143D01*
X16180952Y57185715D02*
X15609523Y57185715D01*
X15952380Y56757143D02*
X16180952Y58042858D01*
X16980952Y56947620D02*
X16714285Y57423810D01*
X16523809Y56947620D02*
X16523809Y57947620D01*
X16828571Y57947620D01*
X16904761Y57900000D01*
X16942857Y57852381D01*
X16980952Y57757143D01*
X16980952Y57614286D01*
X16942857Y57519048D01*
X16904761Y57471429D01*
X16828571Y57423810D01*
X16523809Y57423810D01*
X17285714Y56995239D02*
X17400000Y56947620D01*
X17590476Y56947620D01*
X17666666Y56995239D01*
X17704761Y57042858D01*
X17742857Y57138096D01*
X17742857Y57233334D01*
X17704761Y57328572D01*
X17666666Y57376191D01*
X17590476Y57423810D01*
X17438095Y57471429D01*
X17361904Y57519048D01*
X17323809Y57566667D01*
X17285714Y57661905D01*
X17285714Y57757143D01*
X17323809Y57852381D01*
X17361904Y57900000D01*
X17438095Y57947620D01*
X17628571Y57947620D01*
X17742857Y57900000D01*
X17971428Y57947620D02*
X18428571Y57947620D01*
X18200000Y56947620D02*
X18200000Y57947620D01*
D12*
X25600000Y63832789D02*
X25600000Y65032789D01*
X26057142Y65032789D01*
X26171428Y64975646D01*
X26228571Y64918504D01*
X26285714Y64804218D01*
X26285714Y64632789D01*
X26228571Y64518504D01*
X26171428Y64461361D01*
X26057142Y64404218D01*
X25600000Y64404218D01*
X26685714Y65032789D02*
X26971428Y63832789D01*
X27200000Y64689932D01*
X27428571Y63832789D01*
X27714285Y65032789D01*
X28857142Y63832789D02*
X28457142Y64404218D01*
X28171428Y63832789D02*
X28171428Y65032789D01*
X28628571Y65032789D01*
X28742857Y64975646D01*
X28800000Y64918504D01*
X28857142Y64804218D01*
X28857142Y64632789D01*
X28800000Y64518504D01*
X28742857Y64461361D01*
X28628571Y64404218D01*
X28171428Y64404218D01*
D10*
X3923809Y64271429D02*
X4038095Y64223810D01*
X4076190Y64176191D01*
X4114285Y64080953D01*
X4114285Y63938096D01*
X4076190Y63842858D01*
X4038095Y63795239D01*
X3961904Y63747620D01*
X3657142Y63747620D01*
X3657142Y64747620D01*
X3923809Y64747620D01*
X4000000Y64700000D01*
X4038095Y64652381D01*
X4076190Y64557143D01*
X4076190Y64461905D01*
X4038095Y64366667D01*
X4000000Y64319048D01*
X3923809Y64271429D01*
X3657142Y64271429D01*
X4800000Y64414286D02*
X4800000Y63747620D01*
X4457142Y64414286D02*
X4457142Y63890477D01*
X4495238Y63795239D01*
X4571428Y63747620D01*
X4685714Y63747620D01*
X4761904Y63795239D01*
X4800000Y63842858D01*
X5104761Y64414286D02*
X5523809Y64414286D01*
X5104761Y63747620D01*
X5523809Y63747620D01*
X5752380Y64414286D02*
X6171428Y64414286D01*
X5752380Y63747620D01*
X6171428Y63747620D01*
X7466666Y63747620D02*
X7085714Y63747620D01*
X7085714Y64747620D01*
X7733333Y64271429D02*
X8000000Y64271429D01*
X8114285Y63747620D02*
X7733333Y63747620D01*
X7733333Y64747620D01*
X8114285Y64747620D01*
X8457142Y63747620D02*
X8457142Y64747620D01*
X8647619Y64747620D01*
X8761904Y64700000D01*
X8838095Y64604762D01*
X8876190Y64509524D01*
X8914285Y64319048D01*
X8914285Y64176191D01*
X8876190Y63985715D01*
X8838095Y63890477D01*
X8761904Y63795239D01*
X8647619Y63747620D01*
X8457142Y63747620D01*
X9219047Y64033334D02*
X9600000Y64033334D01*
X9142857Y63747620D02*
X9409523Y64747620D01*
X9676190Y63747620D01*
X10933333Y63747620D02*
X10552380Y63747620D01*
X10552380Y64747620D01*
X11200000Y64271429D02*
X11466666Y64271429D01*
X11580952Y63747620D02*
X11200000Y63747620D01*
X11200000Y64747620D01*
X11580952Y64747620D01*
X11923809Y63747620D02*
X11923809Y64747620D01*
X12114285Y64747620D01*
X12228571Y64700000D01*
X12304761Y64604762D01*
X12342857Y64509524D01*
X12380952Y64319048D01*
X12380952Y64176191D01*
X12342857Y63985715D01*
X12304761Y63890477D01*
X12228571Y63795239D01*
X12114285Y63747620D01*
X11923809Y63747620D01*
X12990476Y64271429D02*
X13104761Y64223810D01*
X13142857Y64176191D01*
X13180952Y64080953D01*
X13180952Y63938096D01*
X13142857Y63842858D01*
X13104761Y63795239D01*
X13028571Y63747620D01*
X12723809Y63747620D01*
X12723809Y64747620D01*
X12990476Y64747620D01*
X13066666Y64700000D01*
X13104761Y64652381D01*
X13142857Y64557143D01*
X13142857Y64461905D01*
X13104761Y64366667D01*
X13066666Y64319048D01*
X12990476Y64271429D01*
X12723809Y64271429D01*
D13*
%TO.C,J1*%
X12876190Y63292858D02*
X12876190Y63007143D01*
X12876190Y63150000D02*
X12376190Y63150000D01*
X12447619Y63102381D01*
X12495238Y63054762D01*
X12519047Y63007143D01*
D10*
%TO.C,DISP1*%
X26347619Y21197620D02*
X26347619Y22197620D01*
X26585714Y22197620D01*
X26728571Y22150000D01*
X26823809Y22054762D01*
X26871428Y21959524D01*
X26919047Y21769048D01*
X26919047Y21626191D01*
X26871428Y21435715D01*
X26823809Y21340477D01*
X26728571Y21245239D01*
X26585714Y21197620D01*
X26347619Y21197620D01*
X27347619Y21197620D02*
X27347619Y22197620D01*
X27776190Y21245239D02*
X27919047Y21197620D01*
X28157142Y21197620D01*
X28252380Y21245239D01*
X28300000Y21292858D01*
X28347619Y21388096D01*
X28347619Y21483334D01*
X28300000Y21578572D01*
X28252380Y21626191D01*
X28157142Y21673810D01*
X27966666Y21721429D01*
X27871428Y21769048D01*
X27823809Y21816667D01*
X27776190Y21911905D01*
X27776190Y22007143D01*
X27823809Y22102381D01*
X27871428Y22150000D01*
X27966666Y22197620D01*
X28204761Y22197620D01*
X28347619Y22150000D01*
X28776190Y21197620D02*
X28776190Y22197620D01*
X29157142Y22197620D01*
X29252380Y22150000D01*
X29300000Y22102381D01*
X29347619Y22007143D01*
X29347619Y21864286D01*
X29300000Y21769048D01*
X29252380Y21721429D01*
X29157142Y21673810D01*
X28776190Y21673810D01*
X30300000Y21197620D02*
X29728571Y21197620D01*
X30014285Y21197620D02*
X30014285Y22197620D01*
X29919047Y22054762D01*
X29823809Y21959524D01*
X29728571Y21911905D01*
D13*
X1152857Y49187143D02*
X1486190Y49187143D01*
X962380Y49068096D02*
X1319523Y48949048D01*
X1319523Y49258572D01*
X986190Y49544286D02*
X986190Y49591905D01*
X1010000Y49639524D01*
X1033809Y49663334D01*
X1081428Y49687143D01*
X1176666Y49710953D01*
X1295714Y49710953D01*
X1390952Y49687143D01*
X1438571Y49663334D01*
X1462380Y49639524D01*
X1486190Y49591905D01*
X1486190Y49544286D01*
X1462380Y49496667D01*
X1438571Y49472858D01*
X1390952Y49449048D01*
X1295714Y49425239D01*
X1176666Y49425239D01*
X1081428Y49449048D01*
X1033809Y49472858D01*
X1010000Y49496667D01*
X986190Y49544286D01*
X49373809Y6019048D02*
X49350000Y6042858D01*
X49326190Y6090477D01*
X49326190Y6209524D01*
X49350000Y6257143D01*
X49373809Y6280953D01*
X49421428Y6304762D01*
X49469047Y6304762D01*
X49540476Y6280953D01*
X49826190Y5995239D01*
X49826190Y6304762D01*
X49326190Y6614286D02*
X49326190Y6661905D01*
X49350000Y6709524D01*
X49373809Y6733334D01*
X49421428Y6757143D01*
X49516666Y6780953D01*
X49635714Y6780953D01*
X49730952Y6757143D01*
X49778571Y6733334D01*
X49802380Y6709524D01*
X49826190Y6661905D01*
X49826190Y6614286D01*
X49802380Y6566667D01*
X49778571Y6542858D01*
X49730952Y6519048D01*
X49635714Y6495239D01*
X49516666Y6495239D01*
X49421428Y6519048D01*
X49373809Y6542858D01*
X49350000Y6566667D01*
X49326190Y6614286D01*
X1496190Y6991858D02*
X1496190Y6706143D01*
X1496190Y6849000D02*
X996190Y6849000D01*
X1067619Y6801381D01*
X1115238Y6753762D01*
X1139047Y6706143D01*
X49273809Y49019048D02*
X49250000Y49042858D01*
X49226190Y49090477D01*
X49226190Y49209524D01*
X49250000Y49257143D01*
X49273809Y49280953D01*
X49321428Y49304762D01*
X49369047Y49304762D01*
X49440476Y49280953D01*
X49726190Y48995239D01*
X49726190Y49304762D01*
X49726190Y49780953D02*
X49726190Y49495239D01*
X49726190Y49638096D02*
X49226190Y49638096D01*
X49297619Y49590477D01*
X49345238Y49542858D01*
X49369047Y49495239D01*
%TO.C,J3*%
X17246190Y63963858D02*
X17246190Y63678143D01*
X17246190Y63821000D02*
X16746190Y63821000D01*
X16817619Y63773381D01*
X16865238Y63725762D01*
X16889047Y63678143D01*
D10*
%TO.C,J1*%
X12210000Y58360000D02*
X4590000Y58360000D01*
X4590000Y63440000D02*
X12210000Y63440000D01*
X12210000Y63440000D02*
X12210000Y58360000D01*
X4590000Y58360000D02*
X4590000Y63440000D01*
%TO.C,J6*%
X32250000Y63440000D02*
X44950000Y63440000D01*
X44950000Y58360000D02*
X32250000Y58360000D01*
X32250000Y58360000D02*
X32250000Y63440000D01*
X44950000Y63440000D02*
X44950000Y58360000D01*
%TO.C,J5*%
X22370000Y55890000D02*
X19830000Y55890000D01*
X19830000Y63510000D02*
X22370000Y63510000D01*
X22370000Y63510000D02*
X22370000Y55890000D01*
X19830000Y55890000D02*
X19830000Y63510000D01*
%TO.C,DISP1*%
X50790000Y50030000D02*
X-10000Y50030000D01*
D14*
X-1900000Y8500000D02*
X0Y8500000D01*
X52700000Y51300000D02*
X50790000Y51300000D01*
D10*
X50800000Y7230000D02*
X0Y7230000D01*
X-10000Y52570000D02*
X50790000Y52570000D01*
X0Y9770000D02*
X50800000Y9770000D01*
D14*
X-1900000Y51300000D02*
X-1900000Y8500000D01*
D10*
X0Y7230000D02*
X0Y9770000D01*
X-10000Y50030000D02*
X-10000Y52570000D01*
D14*
X52700000Y8500000D02*
X52700000Y51300000D01*
D10*
X50790000Y52570000D02*
X50790000Y50030000D01*
X50800000Y9770000D02*
X50800000Y7230000D01*
D14*
X-10000Y51300000D02*
X-1900000Y51300000D01*
X50800000Y8500000D02*
X52700000Y8500000D01*
X-100000Y43200000D02*
X50900000Y43200000D01*
X50900000Y43200000D02*
X50900000Y12200000D01*
X50900000Y12200000D02*
X-100000Y12200000D01*
X-100000Y12200000D02*
X-100000Y43200000D01*
X-100000Y43200000D02*
X50900000Y43200000D01*
X50900000Y43200000D02*
X50900000Y12200000D01*
X50900000Y12200000D02*
X-100000Y12200000D01*
X-100000Y12200000D02*
X-100000Y43200000D01*
D10*
%TO.C,J2*%
X31010000Y58360000D02*
X23390000Y58360000D01*
X31010000Y63440000D02*
X31010000Y58360000D01*
X23390000Y63440000D02*
X31010000Y63440000D01*
X23390000Y58360000D02*
X23390000Y63440000D01*
%TO.C,J3*%
X18290000Y63440000D02*
X18290000Y58360000D01*
X13210000Y63440000D02*
X18290000Y63440000D01*
X18290000Y58360000D02*
X13210000Y58360000D01*
X13210000Y58360000D02*
X13210000Y63440000D01*
%TD*%
D15*
%TO.C,J6*%
X33520000Y59630000D03*
X33520000Y62170000D03*
X36060000Y59630000D03*
X36060000Y62170000D03*
X38600000Y59630000D03*
X38600000Y62170000D03*
X41140000Y59630000D03*
X41140000Y62170000D03*
X43680000Y59630000D03*
X43680000Y62170000D03*
%TD*%
%TO.C,DISP1*%
X1270000Y8500000D03*
X3810000Y8500000D03*
X6350000Y8500000D03*
X44450000Y8500000D03*
X46990000Y8500000D03*
X49530000Y8500000D03*
X49520000Y51300000D03*
X46980000Y51300000D03*
X44440000Y51300000D03*
X41900000Y51300000D03*
X39360000Y51300000D03*
X36820000Y51300000D03*
X34280000Y51300000D03*
X31740000Y51300000D03*
X29200000Y51300000D03*
X26660000Y51300000D03*
X24120000Y51300000D03*
X21580000Y51300000D03*
X19040000Y51300000D03*
X16500000Y51300000D03*
X13960000Y51300000D03*
X11420000Y51300000D03*
X8880000Y51300000D03*
X6340000Y51300000D03*
X3800000Y51300000D03*
X1260000Y51300000D03*
%TD*%
%TO.C,J3*%
X17020000Y62170000D03*
X17020000Y59630000D03*
X14480000Y62170000D03*
X14480000Y59630000D03*
%TD*%
M02*
