M48
; DRILL file {KiCad 7.0.5.1-1-g8f565ef7f0-dirty-deb11} date Thu Jul 20 11:59:33 2023
; FORMAT={3:3/ absolute / metric / suppress leading zeros}
; #@! TF.CreationDate,2023-07-20T11:59:33+00:00
; #@! TF.GenerationSoftware,Kicad,Pcbnew,7.0.5.1-1-g8f565ef7f0-dirty-deb11
; #@! TF.FileFunction,Plated,1,2,PTH
FMAT,2
METRIC,TZ
; #@! TA.AperFunction,Plated,PTH,ViaDrill
T1C0.400
; #@! TA.AperFunction,Plated,PTH,ComponentDrill
T2C0.889
; #@! TA.AperFunction,Plated,PTH,ComponentDrill
T3C3.000
%
G90
G05
T1
X-1550Y24550
X-1300Y38100
X-900Y25500
X-700Y34000
X600Y29200
X900Y34000
X1300Y38100
X5000Y48800
X5100Y46850
X5200Y54100
X6000Y30800
X8000Y36100
X8400Y24000
X8700Y21800
X9000Y36100
X9500Y24000
X10000Y55600
X10500Y24000
X10600Y31600
X13800Y49700
X13825Y16275
X14400Y24000
X15500Y24000
X15550Y32550
X16600Y55100
X16700Y21800
X17100Y42200
X17250Y56250
X20400Y21800
X21075Y9025
X23100Y58700
X23800Y21800
X25000Y33900
X25325Y9025
X26600Y31800
X27700Y36600
X28050Y47450
X29100Y49600
X29700Y34700
X29825Y9025
X30800Y53900
X31100Y38300
X32600Y57200
X32900Y53400
X33250Y55500
X33400Y39500
X34700Y56700
X34900Y55600
X35600Y39500
X36800Y43000
X40500Y57200
X44900Y55650
X45500Y33350
X48200Y33450
T2
X1260Y51300
X1270Y8500
X3800Y51300
X3810Y8500
X5860Y62170
X5860Y59630
X6340Y51300
X6350Y8500
X8400Y62170
X8400Y59630
X8880Y51300
X10940Y62170
X10940Y59630
X11420Y51300
X13960Y51300
X14480Y62170
X14480Y59630
X16500Y51300
X17020Y62170
X17020Y59630
X19040Y51300
X21100Y62240
X21100Y59700
X21100Y57160
X21580Y51300
X24120Y51300
X24660Y62170
X24660Y59630
X26660Y51300
X27200Y62170
X27200Y59630
X29200Y51300
X29740Y62170
X29740Y59630
X31740Y51300
X33520Y62170
X33520Y59630
X34280Y51300
X36060Y62170
X36060Y59630
X36820Y51300
X38600Y62170
X38600Y59630
X39360Y51300
X41140Y62170
X41140Y59630
X41900Y51300
X43680Y62170
X43680Y59630
X44440Y51300
X44450Y8500
X46980Y51300
X46990Y8500
X49520Y51300
X49530Y8500
T3
X0Y61000
X0Y0
X50800Y61000
X50800Y0
T0
M30
