%TF.GenerationSoftware,KiCad,Pcbnew,6.0.11+dfsg-1~bpo11+1*%
%TF.CreationDate,2023-06-14T14:16:14+00:00*%
%TF.ProjectId,OLED01,4f4c4544-3031-42e6-9b69-6361645f7063,rev?*%
%TF.SameCoordinates,PX72ba1e0PY737d6e0*%
%TF.FileFunction,Soldermask,Bot*%
%TF.FilePolarity,Negative*%
%FSLAX46Y46*%
G04 Gerber Fmt 4.6, Leading zero omitted, Abs format (unit mm)*
G04 Created by KiCad (PCBNEW 6.0.11+dfsg-1~bpo11+1) date 2023-06-14 14:16:14*
%MOMM*%
%LPD*%
G01*
G04 APERTURE LIST*
G04 Aperture macros list*
%AMRoundRect*
0 Rectangle with rounded corners*
0 $1 Rounding radius*
0 $2 $3 $4 $5 $6 $7 $8 $9 X,Y pos of 4 corners*
0 Add a 4 corners polygon primitive as box body*
4,1,4,$2,$3,$4,$5,$6,$7,$8,$9,$2,$3,0*
0 Add four circle primitives for the rounded corners*
1,1,$1+$1,$2,$3*
1,1,$1+$1,$4,$5*
1,1,$1+$1,$6,$7*
1,1,$1+$1,$8,$9*
0 Add four rect primitives between the rounded corners*
20,1,$1+$1,$2,$3,$4,$5,0*
20,1,$1+$1,$4,$5,$6,$7,0*
20,1,$1+$1,$6,$7,$8,$9,0*
20,1,$1+$1,$8,$9,$2,$3,0*%
%AMFreePoly0*
4,1,41,0.636777,0.930194,0.706366,0.874698,0.744986,0.794504,0.750000,0.750000,0.750000,-0.750000,0.730194,-0.836777,0.674698,-0.906366,0.594504,-0.944986,0.550000,-0.950000,0.000000,-0.950000,-0.023504,-0.944635,-0.083606,-0.943534,-0.139582,-0.934468,-0.274897,-0.892193,-0.326080,-0.867780,-0.444090,-0.789225,-0.486362,-0.751429,-0.577582,-0.642910,-0.607548,-0.594768,-0.664643,-0.465009,
-0.679893,-0.410393,-0.697476,-0.275933,-0.697084,-0.275882,-0.700000,-0.250000,-0.700000,0.250000,-0.697921,0.259109,-0.697582,0.286880,-0.675771,0.426957,-0.659192,0.481183,-0.598944,0.609508,-0.567811,0.656904,-0.473967,0.763162,-0.430783,0.799915,-0.310888,0.875563,-0.259125,0.898717,-0.122818,0.937674,-0.066635,0.945370,-0.042411,0.945222,0.000000,0.950000,0.550000,0.950000,
0.636777,0.930194,0.636777,0.930194,$1*%
%AMFreePoly1*
4,1,41,0.022678,0.944824,0.075125,0.944504,0.131210,0.936123,0.267031,0.895504,0.318507,0.871718,0.437469,0.794611,0.480202,0.757333,0.572740,0.649936,0.603290,0.602165,0.661967,0.473113,0.677883,0.418686,0.697980,0.278353,0.700000,0.250000,0.700000,-0.250000,0.699985,-0.252439,0.699836,-0.264655,0.697079,-0.295398,0.673559,-0.435199,0.656318,-0.489221,0.594506,-0.616800,
0.562797,-0.663810,0.467662,-0.768914,0.424032,-0.805137,0.303222,-0.879314,0.251181,-0.901834,0.114408,-0.939123,0.058135,-0.946132,0.037663,-0.945757,0.000000,-0.950000,-0.550000,-0.950000,-0.636777,-0.930194,-0.706366,-0.874698,-0.744986,-0.794504,-0.750000,-0.750000,-0.750000,0.750000,-0.730194,0.836777,-0.674698,0.906366,-0.594504,0.944986,-0.550000,0.950000,0.000000,0.950000,
0.022678,0.944824,0.022678,0.944824,$1*%
G04 Aperture macros list end*
%ADD10RoundRect,0.200000X0.762000X-0.762000X0.762000X0.762000X-0.762000X0.762000X-0.762000X-0.762000X0*%
%ADD11C,6.400000*%
%ADD12RoundRect,0.200000X0.762000X0.762000X-0.762000X0.762000X-0.762000X-0.762000X0.762000X-0.762000X0*%
%ADD13RoundRect,0.200000X-0.762000X0.762000X-0.762000X-0.762000X0.762000X-0.762000X0.762000X0.762000X0*%
%ADD14RoundRect,0.200000X1.175000X2.550000X-1.175000X2.550000X-1.175000X-2.550000X1.175000X-2.550000X0*%
%ADD15RoundRect,0.443750X-0.456250X0.243750X-0.456250X-0.243750X0.456250X-0.243750X0.456250X0.243750X0*%
%ADD16RoundRect,0.450000X-0.450000X0.262500X-0.450000X-0.262500X0.450000X-0.262500X0.450000X0.262500X0*%
%ADD17RoundRect,0.200000X-0.325000X0.610000X-0.325000X-0.610000X0.325000X-0.610000X0.325000X0.610000X0*%
%ADD18RoundRect,0.350000X-0.150000X0.587500X-0.150000X-0.587500X0.150000X-0.587500X0.150000X0.587500X0*%
%ADD19RoundRect,0.450000X-0.250000X-0.475000X0.250000X-0.475000X0.250000X0.475000X-0.250000X0.475000X0*%
%ADD20RoundRect,0.200000X0.650000X0.850000X-0.650000X0.850000X-0.650000X-0.850000X0.650000X-0.850000X0*%
%ADD21RoundRect,0.443750X-0.243750X-0.456250X0.243750X-0.456250X0.243750X0.456250X-0.243750X0.456250X0*%
%ADD22RoundRect,0.443750X0.243750X0.456250X-0.243750X0.456250X-0.243750X-0.456250X0.243750X-0.456250X0*%
%ADD23RoundRect,0.200000X-0.900000X1.250000X-0.900000X-1.250000X0.900000X-1.250000X0.900000X1.250000X0*%
%ADD24RoundRect,0.350000X-0.150000X0.512500X-0.150000X-0.512500X0.150000X-0.512500X0.150000X0.512500X0*%
%ADD25RoundRect,0.450000X0.262500X0.450000X-0.262500X0.450000X-0.262500X-0.450000X0.262500X-0.450000X0*%
%ADD26RoundRect,0.200000X0.550000X0.200000X-0.550000X0.200000X-0.550000X-0.200000X0.550000X-0.200000X0*%
%ADD27RoundRect,0.443750X0.456250X-0.243750X0.456250X0.243750X-0.456250X0.243750X-0.456250X-0.243750X0*%
%ADD28RoundRect,0.450000X-0.475000X0.250000X-0.475000X-0.250000X0.475000X-0.250000X0.475000X0.250000X0*%
%ADD29FreePoly0,0.000000*%
%ADD30RoundRect,0.200000X-0.500000X-0.750000X0.500000X-0.750000X0.500000X0.750000X-0.500000X0.750000X0*%
%ADD31FreePoly1,0.000000*%
%ADD32RoundRect,0.200000X-0.750000X0.750000X-0.750000X-0.750000X0.750000X-0.750000X0.750000X0.750000X0*%
%ADD33RoundRect,0.200000X0.750000X-0.750000X0.750000X0.750000X-0.750000X0.750000X-0.750000X-0.750000X0*%
%ADD34RoundRect,0.200000X1.250000X0.900000X-1.250000X0.900000X-1.250000X-0.900000X1.250000X-0.900000X0*%
%ADD35RoundRect,0.350000X0.512500X0.150000X-0.512500X0.150000X-0.512500X-0.150000X0.512500X-0.150000X0*%
%ADD36RoundRect,0.450000X0.250000X0.475000X-0.250000X0.475000X-0.250000X-0.475000X0.250000X-0.475000X0*%
%ADD37RoundRect,0.200000X-1.525000X-1.250000X1.525000X-1.250000X1.525000X1.250000X-1.525000X1.250000X0*%
G04 APERTURE END LIST*
D10*
%TO.C,J1*%
X34260000Y-1270000D03*
X34260000Y1270000D03*
X36800000Y-1270000D03*
X36800000Y1270000D03*
X39340000Y-1270000D03*
X39340000Y1270000D03*
%TD*%
D11*
%TO.C,H3*%
X50800000Y0D03*
%TD*%
%TO.C,H4*%
X0Y0D03*
%TD*%
D10*
%TO.C,J6*%
X33520000Y59630000D03*
X33520000Y62170000D03*
X36060000Y59630000D03*
X36060000Y62170000D03*
X38600000Y59630000D03*
X38600000Y62170000D03*
X41140000Y59630000D03*
X41140000Y62170000D03*
X43680000Y59630000D03*
X43680000Y62170000D03*
%TD*%
D12*
%TO.C,J5*%
X20750000Y57210000D03*
X20750000Y59750000D03*
X20750000Y62290000D03*
%TD*%
D13*
%TO.C,J4*%
X11890000Y62220000D03*
X11890000Y59680000D03*
X9350000Y62220000D03*
X9350000Y59680000D03*
X6810000Y62220000D03*
X6810000Y59680000D03*
%TD*%
D11*
%TO.C,H1*%
X0Y61000000D03*
%TD*%
%TO.C,H2*%
X50800000Y61000000D03*
%TD*%
D10*
%TO.C,DISP1*%
X1170000Y8500000D03*
X3710000Y8500000D03*
X6250000Y8500000D03*
X44350000Y8500000D03*
X46890000Y8500000D03*
X49430000Y8500000D03*
X49420000Y51300000D03*
X46880000Y51300000D03*
X44340000Y51300000D03*
X41800000Y51300000D03*
X39260000Y51300000D03*
X36720000Y51300000D03*
X34180000Y51300000D03*
X31640000Y51300000D03*
X29100000Y51300000D03*
X26560000Y51300000D03*
X24020000Y51300000D03*
X21480000Y51300000D03*
X18940000Y51300000D03*
X16400000Y51300000D03*
X13860000Y51300000D03*
X11320000Y51300000D03*
X8780000Y51300000D03*
X6240000Y51300000D03*
X3700000Y51300000D03*
X1160000Y51300000D03*
%TD*%
D13*
%TO.C,J2*%
X29696666Y62170000D03*
X29696666Y59630000D03*
X27156666Y62170000D03*
X27156666Y59630000D03*
X24616666Y62170000D03*
X24616666Y59630000D03*
%TD*%
D10*
%TO.C,J3*%
X15750000Y59630000D03*
X15750000Y62170000D03*
%TD*%
D14*
%TO.C,L1*%
X12675000Y28700000D03*
X8525000Y28700000D03*
%TD*%
D15*
%TO.C,R10*%
X17600000Y48587500D03*
X17600000Y46712500D03*
%TD*%
D16*
%TO.C,R19*%
X18325000Y-312500D03*
X18325000Y-2137500D03*
%TD*%
D15*
%TO.C,R3*%
X42500000Y42637500D03*
X42500000Y40762500D03*
%TD*%
D17*
%TO.C,U3*%
X11000341Y35933647D03*
X11950341Y35933647D03*
X12900341Y35933647D03*
X12900341Y33313647D03*
X11950341Y33313647D03*
X11000341Y33313647D03*
%TD*%
D18*
%TO.C,Q1*%
X23462500Y7212500D03*
X25362500Y7212500D03*
X24412500Y5337500D03*
%TD*%
D19*
%TO.C,C4*%
X29550000Y44500000D03*
X31450000Y44500000D03*
%TD*%
D15*
%TO.C,R1*%
X11400000Y48937500D03*
X11400000Y47062500D03*
%TD*%
%TO.C,R4*%
X38200000Y46037500D03*
X38200000Y44162500D03*
%TD*%
D20*
%TO.C,D2*%
X27750000Y57050000D03*
X24250000Y57050000D03*
%TD*%
D21*
%TO.C,C8*%
X29512500Y57050000D03*
X31387500Y57050000D03*
%TD*%
D22*
%TO.C,R13*%
X44937500Y54500000D03*
X43062500Y54500000D03*
%TD*%
D23*
%TO.C,D1*%
X3000000Y32400000D03*
X3000000Y28400000D03*
%TD*%
D24*
%TO.C,U2*%
X29950000Y41987500D03*
X30900000Y41987500D03*
X31850000Y41987500D03*
X31850000Y39712500D03*
X29950000Y39712500D03*
%TD*%
D25*
%TO.C,R17*%
X20900000Y11525000D03*
X19075000Y11525000D03*
%TD*%
D26*
%TO.C,U5*%
X40550000Y56325000D03*
X40550000Y55675000D03*
X40550000Y55025000D03*
X40550000Y54375000D03*
X36250000Y54375000D03*
X36250000Y55025000D03*
X36250000Y55675000D03*
X36250000Y56325000D03*
%TD*%
D25*
%TO.C,R15*%
X25237500Y11525000D03*
X23412500Y11525000D03*
%TD*%
D27*
%TO.C,R7*%
X5800000Y32462500D03*
X5800000Y34337500D03*
%TD*%
D18*
%TO.C,Q2*%
X19125000Y7212500D03*
X21025000Y7212500D03*
X20075000Y5337500D03*
%TD*%
D28*
%TO.C,C7*%
X31750000Y37450000D03*
X31750000Y35550000D03*
%TD*%
D15*
%TO.C,C11*%
X0Y36737500D03*
X0Y34862500D03*
%TD*%
D28*
%TO.C,C6*%
X34750000Y37450000D03*
X34750000Y35550000D03*
%TD*%
D15*
%TO.C,R6*%
X26150000Y41837500D03*
X26150000Y39962500D03*
%TD*%
%TO.C,R2*%
X42500000Y46075000D03*
X42500000Y44200000D03*
%TD*%
D29*
%TO.C,JP1*%
X29700000Y54407500D03*
D30*
X31000000Y54407500D03*
D31*
X32300000Y54407500D03*
%TD*%
D32*
%TO.C,D4*%
X24412500Y2060000D03*
D33*
X24412500Y-1700000D03*
%TD*%
D15*
%TO.C,C2*%
X8750000Y48937500D03*
X8750000Y47062500D03*
%TD*%
%TO.C,R12*%
X29200000Y48600000D03*
X29200000Y46725000D03*
%TD*%
D25*
%TO.C,C12*%
X25737500Y15525000D03*
X23912500Y15525000D03*
%TD*%
D18*
%TO.C,Q3*%
X27875000Y7212500D03*
X29775000Y7212500D03*
X28825000Y5337500D03*
%TD*%
D15*
%TO.C,R5*%
X38200000Y42600000D03*
X38200000Y40725000D03*
%TD*%
D27*
%TO.C,R8*%
X5800000Y35825000D03*
X5800000Y37700000D03*
%TD*%
D28*
%TO.C,C1*%
X18550000Y41700000D03*
X18550000Y39800000D03*
%TD*%
D15*
%TO.C,R11*%
X24000000Y48587500D03*
X24000000Y46712500D03*
%TD*%
D34*
%TO.C,D3*%
X21075000Y15525000D03*
X17075000Y15525000D03*
%TD*%
D16*
%TO.C,R16*%
X20575000Y-312500D03*
X20575000Y-2137500D03*
%TD*%
D22*
%TO.C,R14*%
X44937500Y56550000D03*
X43062500Y56550000D03*
%TD*%
%TO.C,C9*%
X25937500Y54800000D03*
X24062500Y54800000D03*
%TD*%
D35*
%TO.C,U1*%
X23737500Y41750000D03*
X23737500Y40800000D03*
X23737500Y39850000D03*
X21462500Y39850000D03*
X21462500Y41750000D03*
%TD*%
D25*
%TO.C,R18*%
X29237500Y11525000D03*
X27412500Y11525000D03*
%TD*%
D27*
%TO.C,R9*%
X2400000Y34800000D03*
X2400000Y36675000D03*
%TD*%
D32*
%TO.C,D5*%
X28825000Y2155000D03*
D33*
X28825000Y-1605000D03*
%TD*%
D36*
%TO.C,C3*%
X27700000Y44500000D03*
X25800000Y44500000D03*
%TD*%
D27*
%TO.C,C10*%
X0Y31300000D03*
X0Y33175000D03*
%TD*%
D37*
%TO.C,BZ1*%
X6600000Y2022138D03*
X15050000Y2022138D03*
%TD*%
D15*
%TO.C,C5*%
X15500000Y31175000D03*
X15500000Y29300000D03*
%TD*%
M02*
