%TF.GenerationSoftware,KiCad,Pcbnew,7.0.5.1-1-g8f565ef7f0-dirty-deb11*%
%TF.CreationDate,2023-07-21T03:42:21+00:00*%
%TF.ProjectId,OLED01,4f4c4544-3031-42e6-9b69-6361645f7063,rev?*%
%TF.SameCoordinates,PX72ba1e0PY737d6e0*%
%TF.FileFunction,Copper,L1,Top*%
%TF.FilePolarity,Positive*%
%FSLAX46Y46*%
G04 Gerber Fmt 4.6, Leading zero omitted, Abs format (unit mm)*
G04 Created by KiCad (PCBNEW 7.0.5.1-1-g8f565ef7f0-dirty-deb11) date 2023-07-21 03:42:21*
%MOMM*%
%LPD*%
G01*
G04 APERTURE LIST*
%TA.AperFunction,ComponentPad*%
%ADD10R,1.524000X1.524000*%
%TD*%
%TA.AperFunction,ComponentPad*%
%ADD11C,6.000000*%
%TD*%
%TA.AperFunction,ViaPad*%
%ADD12C,0.800000*%
%TD*%
%TA.AperFunction,Conductor*%
%ADD13C,0.400000*%
%TD*%
G04 APERTURE END LIST*
D10*
%TO.P,J1,1*%
%TO.N,/LED_B*%
X10940000Y62170000D03*
%TO.P,J1,2*%
X10940000Y59630000D03*
%TO.P,J1,3*%
%TO.N,/LED_A*%
X8400000Y62170000D03*
%TO.P,J1,4*%
X8400000Y59630000D03*
%TO.P,J1,5*%
%TO.N,/BUZZER*%
X5860000Y62170000D03*
%TO.P,J1,6*%
X5860000Y59630000D03*
%TD*%
D11*
%TO.P,H3,1,1*%
%TO.N,GND*%
X50800000Y0D03*
%TD*%
%TO.P,H4,1,1*%
%TO.N,GND*%
X0Y0D03*
%TD*%
D10*
%TO.P,J6,1*%
%TO.N,GND*%
X33520000Y59630000D03*
%TO.P,J6,2*%
X33520000Y62170000D03*
%TO.P,J6,3*%
%TO.N,/SCLIN*%
X36060000Y59630000D03*
%TO.P,J6,4*%
X36060000Y62170000D03*
%TO.P,J6,5*%
%TO.N,+5V*%
X38600000Y59630000D03*
%TO.P,J6,6*%
X38600000Y62170000D03*
%TO.P,J6,7*%
%TO.N,/SDAIN*%
X41140000Y59630000D03*
%TO.P,J6,8*%
X41140000Y62170000D03*
%TO.P,J6,9*%
%TO.N,GND*%
X43680000Y59630000D03*
%TO.P,J6,10*%
X43680000Y62170000D03*
%TD*%
%TO.P,J5,1*%
%TO.N,+2V5*%
X21100000Y57160000D03*
%TO.P,J5,2*%
%TO.N,/DC*%
X21100000Y59700000D03*
%TO.P,J5,3*%
%TO.N,GND*%
X21100000Y62240000D03*
%TD*%
D11*
%TO.P,H1,1,1*%
%TO.N,GND*%
X0Y61000000D03*
%TD*%
%TO.P,H2,1,1*%
%TO.N,GND*%
X50800000Y61000000D03*
%TD*%
D10*
%TO.P,DISP1,1,ESD_GND*%
%TO.N,GND*%
X1270000Y8500000D03*
%TO.P,DISP1,2*%
%TO.N,unconnected-(DISP1-Pad2)*%
X3810000Y8500000D03*
%TO.P,DISP1,3*%
%TO.N,unconnected-(DISP1-Pad3)*%
X6350000Y8500000D03*
%TO.P,DISP1,18*%
%TO.N,unconnected-(DISP1-Pad18)*%
X44450000Y8500000D03*
%TO.P,DISP1,19*%
%TO.N,unconnected-(DISP1-Pad19)*%
X46990000Y8500000D03*
%TO.P,DISP1,20,ESD_GND*%
%TO.N,GND*%
X49530000Y8500000D03*
%TO.P,DISP1,21,VCC*%
%TO.N,+12V*%
X49520000Y51300000D03*
%TO.P,DISP1,22,VCC*%
X46980000Y51300000D03*
%TO.P,DISP1,23,GND*%
%TO.N,GND*%
X44440000Y51300000D03*
%TO.P,DISP1,24,GND*%
X41900000Y51300000D03*
%TO.P,DISP1,25,VDD*%
%TO.N,+2V5*%
X39360000Y51300000D03*
%TO.P,DISP1,26,BS0*%
%TO.N,GND*%
X36820000Y51300000D03*
%TO.P,DISP1,27,BS1*%
%TO.N,+2V5*%
X34280000Y51300000D03*
%TO.P,DISP1,28,GND*%
%TO.N,GND*%
X31740000Y51300000D03*
%TO.P,DISP1,29,#CS*%
X29200000Y51300000D03*
%TO.P,DISP1,30,#RES*%
%TO.N,/#RES*%
X26660000Y51300000D03*
%TO.P,DISP1,31,D/C*%
%TO.N,/DC*%
X24120000Y51300000D03*
%TO.P,DISP1,32,D0*%
%TO.N,/D0*%
X21580000Y51300000D03*
%TO.P,DISP1,33,D1*%
%TO.N,/D1*%
X19040000Y51300000D03*
%TO.P,DISP1,34,D2*%
X16500000Y51300000D03*
%TO.P,DISP1,35,GND*%
%TO.N,GND*%
X13960000Y51300000D03*
%TO.P,DISP1,36,IRef*%
%TO.N,/Iref*%
X11420000Y51300000D03*
%TO.P,DISP1,37,VCOMH*%
%TO.N,/Vcomh*%
X8880000Y51300000D03*
%TO.P,DISP1,38,VCOMH*%
X6340000Y51300000D03*
%TO.P,DISP1,39,VCC*%
%TO.N,+12V*%
X3800000Y51300000D03*
%TO.P,DISP1,40,VCC*%
X1260000Y51300000D03*
%TD*%
%TO.P,J2,1*%
%TO.N,GND*%
X29740000Y62170000D03*
%TO.P,J2,2*%
X29740000Y59630000D03*
%TO.P,J2,3*%
%TO.N,+5V*%
X27200000Y62170000D03*
%TO.P,J2,4*%
X27200000Y59630000D03*
%TO.P,J2,5*%
%TO.N,GND*%
X24660000Y62170000D03*
%TO.P,J2,6*%
X24660000Y59630000D03*
%TD*%
%TO.P,J3,1*%
%TO.N,/#RES*%
X17020000Y62170000D03*
%TO.P,J3,2*%
X17020000Y59630000D03*
%TO.P,J3,3*%
%TO.N,/#INT*%
X14480000Y62170000D03*
%TO.P,J3,4*%
X14480000Y59630000D03*
%TD*%
D12*
%TO.N,GND*%
X40500000Y57200000D03*
X10000000Y55600000D03*
X-900000Y25500000D03*
X33400000Y39500000D03*
X15500000Y24000000D03*
X9500000Y24000000D03*
X10500000Y24000000D03*
X5200000Y54100000D03*
X26600000Y31800000D03*
X6000000Y30800000D03*
X20400000Y21800000D03*
X21075000Y9025000D03*
X16600000Y55100000D03*
X5000000Y48800000D03*
X8700000Y21800000D03*
X23800000Y21800000D03*
X600000Y29200000D03*
X8400000Y24000000D03*
X29825000Y9025000D03*
X900000Y34000000D03*
X45500000Y33350000D03*
X23100000Y58700000D03*
X16700000Y21800000D03*
X14400000Y24000000D03*
X29700000Y34700000D03*
X48200000Y33450000D03*
X8000000Y36100000D03*
X27700000Y36600000D03*
X36800000Y43000000D03*
X-1300000Y38100000D03*
X35600000Y39500000D03*
X9000000Y36100000D03*
X5100000Y46850000D03*
X-700000Y34000000D03*
X32600000Y57200000D03*
X1300000Y38100000D03*
X25000000Y33900000D03*
X10600000Y31600000D03*
X25325000Y9025000D03*
%TO.N,/#RES*%
X29100000Y49600000D03*
%TO.N,/DC*%
X17250000Y56250000D03*
%TO.N,/D1*%
X30800000Y53900000D03*
X13800000Y49700000D03*
X34700000Y56700000D03*
%TO.N,+2V5*%
X33250000Y55500000D03*
X17100000Y42200000D03*
%TO.N,+5V*%
X31100000Y38300000D03*
X44900000Y55650000D03*
X28050000Y47450000D03*
X13825000Y16275000D03*
X15550000Y32550000D03*
%TO.N,/LED_B*%
X-1550000Y24550000D03*
%TO.N,/D0*%
X32900000Y53400000D03*
X34900000Y55600000D03*
%TD*%
D13*
%TO.N,/#RES*%
X29100000Y49600000D02*
X28260000Y49600000D01*
X28260000Y49600000D02*
X26560000Y51300000D01*
X17020000Y59630000D02*
X17020000Y62170000D01*
%TO.N,/DC*%
X17250000Y56250000D02*
X20750000Y59750000D01*
%TO.N,/D1*%
X30800000Y53900000D02*
X31300000Y54400000D01*
X30500000Y53600000D02*
X20350000Y53600000D01*
X31300000Y54400000D02*
X33300000Y54400000D01*
X34100000Y55200000D02*
X34100000Y56100000D01*
X15800000Y49700000D02*
X16400000Y50300000D01*
X16400000Y50300000D02*
X16400000Y51300000D01*
X13800000Y49700000D02*
X15800000Y49700000D01*
X20350000Y53600000D02*
X18940000Y52190000D01*
X30800000Y53900000D02*
X30500000Y53600000D01*
X34100000Y56100000D02*
X34700000Y56700000D01*
X18940000Y52190000D02*
X18940000Y51300000D01*
X33300000Y54400000D02*
X34100000Y55200000D01*
%TO.N,+2V5*%
X17100000Y42200000D02*
X17800000Y42900000D01*
X32500000Y55500000D02*
X30790000Y57210000D01*
X30790000Y57210000D02*
X20750000Y57210000D01*
X17800000Y54260000D02*
X20750000Y57210000D01*
X33250000Y55500000D02*
X32500000Y55500000D01*
X17800000Y42900000D02*
X17800000Y54260000D01*
%TO.N,+5V*%
X38600000Y62170000D02*
X38600000Y57650000D01*
X30500000Y38300000D02*
X31100000Y38300000D01*
X40600000Y55650000D02*
X44900000Y55650000D01*
X30500000Y37600000D02*
X25450000Y32550000D01*
X30500000Y38300000D02*
X30500000Y37600000D01*
X25450000Y32550000D02*
X20050000Y32550000D01*
X38600000Y57650000D02*
X40600000Y55650000D01*
X20050000Y32550000D02*
X20050000Y23300000D01*
X20050000Y32550000D02*
X15550000Y32550000D01*
X13825000Y17025000D02*
X20050000Y23250000D01*
X28050000Y47450000D02*
X30500000Y45000000D01*
X30500000Y45000000D02*
X30500000Y38300000D01*
X13825000Y16275000D02*
X13825000Y17025000D01*
%TO.N,/LED_B*%
X10940000Y59530000D02*
X10940000Y62070000D01*
X10940000Y58440000D02*
X10940000Y59530000D01*
X600000Y56100000D02*
X8600000Y56100000D01*
X-3000000Y26000000D02*
X-3000000Y52500000D01*
X-3000000Y52500000D02*
X600000Y56100000D01*
X8600000Y56100000D02*
X10940000Y58440000D01*
X-1550000Y24550000D02*
X-3000000Y26000000D01*
%TO.N,/D0*%
X32450000Y52750000D02*
X22250000Y52750000D01*
X34900000Y55600000D02*
X34900000Y54000000D01*
X22250000Y52750000D02*
X21480000Y51980000D01*
X34900000Y54000000D02*
X33650000Y52750000D01*
X33650000Y52750000D02*
X32450000Y52750000D01*
X32900000Y53400000D02*
X32900000Y52800000D01*
X21480000Y51980000D02*
X21480000Y51300000D01*
%TD*%
%TA.AperFunction,Conductor*%
%TO.N,GND*%
G36*
X28147191Y52130593D02*
G01*
X28183155Y52081093D01*
X28188000Y52050500D01*
X28188000Y51554001D01*
X28188001Y51554000D01*
X28833382Y51554000D01*
X28781553Y51464228D01*
X28751736Y51333593D01*
X28761749Y51199972D01*
X28810703Y51075240D01*
X28834021Y51046000D01*
X28188000Y51046000D01*
X28188000Y50760243D01*
X28169093Y50702052D01*
X28119593Y50666088D01*
X28058407Y50666088D01*
X28018996Y50690240D01*
X27851495Y50857742D01*
X27823718Y50912258D01*
X27822499Y50927745D01*
X27822499Y52050500D01*
X27841406Y52108691D01*
X27890906Y52144655D01*
X27921499Y52149500D01*
X28089000Y52149500D01*
X28147191Y52130593D01*
G37*
%TD.AperFunction*%
%TA.AperFunction,Conductor*%
G36*
X55238691Y65420593D02*
G01*
X55274655Y65371093D01*
X55279500Y65340500D01*
X55279500Y-4380500D01*
X55260593Y-4438691D01*
X55211093Y-4474655D01*
X55180500Y-4479500D01*
X-4380500Y-4479500D01*
X-4438691Y-4460593D01*
X-4474655Y-4411093D01*
X-4479500Y-4380500D01*
X-4479500Y-507536D01*
X22712000Y-507536D01*
X22742399Y-679937D01*
X22742402Y-679948D01*
X22802273Y-844441D01*
X22802275Y-844445D01*
X22889808Y-996055D01*
X23002337Y-1130163D01*
X23136445Y-1242692D01*
X23288055Y-1330225D01*
X23452562Y-1390101D01*
X23624968Y-1420500D01*
X23624969Y-1420500D01*
X25200031Y-1420500D01*
X25200032Y-1420500D01*
X25372438Y-1390101D01*
X25536945Y-1330225D01*
X25688555Y-1242692D01*
X25822663Y-1130163D01*
X25935192Y-996055D01*
X26022725Y-844445D01*
X26082601Y-679938D01*
X26113000Y-507532D01*
X26113000Y-420000D01*
X26113000Y-412536D01*
X27124500Y-412536D01*
X27154899Y-584937D01*
X27154902Y-584948D01*
X27214773Y-749441D01*
X27214775Y-749445D01*
X27302308Y-901055D01*
X27414837Y-1035163D01*
X27548945Y-1147692D01*
X27700555Y-1235225D01*
X27865062Y-1295101D01*
X28037468Y-1325500D01*
X28037469Y-1325500D01*
X29612531Y-1325500D01*
X29612532Y-1325500D01*
X29784938Y-1295101D01*
X29949445Y-1235225D01*
X30101055Y-1147692D01*
X30235163Y-1035163D01*
X30347692Y-901055D01*
X30435225Y-749445D01*
X30495101Y-584938D01*
X30525500Y-412532D01*
X30525500Y-325000D01*
X30525500Y-259108D01*
X30525500Y910799D01*
X30525500Y962532D01*
X30495101Y1134938D01*
X30435225Y1299445D01*
X30347692Y1451055D01*
X30235163Y1585163D01*
X30101055Y1697692D01*
X29949445Y1785225D01*
X29949441Y1785227D01*
X29784948Y1845098D01*
X29784940Y1845100D01*
X29784938Y1845101D01*
X29750456Y1851181D01*
X29612536Y1875500D01*
X29612532Y1875500D01*
X29560799Y1875500D01*
X28190892Y1875500D01*
X28125000Y1875500D01*
X28037468Y1875500D01*
X28037463Y1875500D01*
X27865062Y1845101D01*
X27865051Y1845098D01*
X27700558Y1785227D01*
X27700552Y1785224D01*
X27548946Y1697693D01*
X27414838Y1585164D01*
X27414836Y1585162D01*
X27302307Y1451054D01*
X27214776Y1299448D01*
X27214773Y1299442D01*
X27154902Y1134949D01*
X27154899Y1134938D01*
X27124500Y962537D01*
X27124500Y-412536D01*
X26113000Y-412536D01*
X26113000Y-354108D01*
X26113000Y815799D01*
X26113000Y815800D01*
X26113000Y867532D01*
X26082601Y1039938D01*
X26022725Y1204445D01*
X25935192Y1356055D01*
X25822663Y1490163D01*
X25688555Y1602692D01*
X25536945Y1690225D01*
X25536941Y1690227D01*
X25372448Y1750098D01*
X25372440Y1750100D01*
X25372438Y1750101D01*
X25337956Y1756181D01*
X25200036Y1780500D01*
X25200032Y1780500D01*
X25148299Y1780500D01*
X23778392Y1780500D01*
X23712500Y1780500D01*
X23624968Y1780500D01*
X23624963Y1780500D01*
X23452562Y1750101D01*
X23452551Y1750098D01*
X23288058Y1690227D01*
X23288052Y1690224D01*
X23136446Y1602693D01*
X23002338Y1490164D01*
X23002336Y1490162D01*
X22889807Y1356054D01*
X22802276Y1204448D01*
X22802273Y1204442D01*
X22742402Y1039949D01*
X22742399Y1039938D01*
X22712000Y867537D01*
X22712000Y-507536D01*
X-4479500Y-507536D01*
X-4479500Y7713376D01*
X258000Y7713376D01*
X272506Y7640454D01*
X272507Y7640452D01*
X327758Y7557763D01*
X327762Y7557759D01*
X410451Y7502508D01*
X410453Y7502507D01*
X483375Y7488001D01*
X483377Y7488000D01*
X1015999Y7488000D01*
X1016000Y7488002D01*
X1016000Y8135195D01*
X1074960Y8094996D01*
X1203002Y8055500D01*
X1303312Y8055500D01*
X1402499Y8070450D01*
X1523224Y8128588D01*
X1523999Y8129308D01*
X1523999Y7488002D01*
X1524001Y7488000D01*
X2056623Y7488000D01*
X2056624Y7488001D01*
X2129546Y7502507D01*
X2129548Y7502508D01*
X2212237Y7557759D01*
X2212241Y7557763D01*
X2267492Y7640452D01*
X2267493Y7640454D01*
X2280627Y7706479D01*
X2647500Y7706479D01*
X2647501Y7706477D01*
X2662352Y7612701D01*
X2662354Y7612696D01*
X2719950Y7499658D01*
X2809658Y7409950D01*
X2922696Y7352354D01*
X3016481Y7337500D01*
X4603518Y7337501D01*
X4603521Y7337501D01*
X4603522Y7337502D01*
X4650410Y7344928D01*
X4697299Y7352353D01*
X4697299Y7352354D01*
X4697304Y7352354D01*
X4810342Y7409950D01*
X4900050Y7499658D01*
X4957646Y7612696D01*
X4972500Y7706479D01*
X5187500Y7706479D01*
X5187501Y7706477D01*
X5202352Y7612701D01*
X5202354Y7612696D01*
X5259950Y7499658D01*
X5349658Y7409950D01*
X5462696Y7352354D01*
X5556481Y7337500D01*
X7143518Y7337501D01*
X7143521Y7337501D01*
X7143522Y7337502D01*
X7190410Y7344928D01*
X7237299Y7352353D01*
X7237299Y7352354D01*
X7237304Y7352354D01*
X7350342Y7409950D01*
X7440050Y7499658D01*
X7497646Y7612696D01*
X7512500Y7706479D01*
X43287500Y7706479D01*
X43287501Y7706477D01*
X43302352Y7612701D01*
X43302354Y7612696D01*
X43359950Y7499658D01*
X43449658Y7409950D01*
X43562696Y7352354D01*
X43656481Y7337500D01*
X45243518Y7337501D01*
X45243521Y7337501D01*
X45243522Y7337502D01*
X45290410Y7344928D01*
X45337299Y7352353D01*
X45337299Y7352354D01*
X45337304Y7352354D01*
X45450342Y7409950D01*
X45540050Y7499658D01*
X45597646Y7612696D01*
X45612500Y7706479D01*
X45827500Y7706479D01*
X45827501Y7706477D01*
X45842352Y7612701D01*
X45842354Y7612696D01*
X45899950Y7499658D01*
X45989658Y7409950D01*
X46102696Y7352354D01*
X46196481Y7337500D01*
X47783518Y7337501D01*
X47783521Y7337501D01*
X47783522Y7337502D01*
X47830410Y7344928D01*
X47877299Y7352353D01*
X47877299Y7352354D01*
X47877304Y7352354D01*
X47990342Y7409950D01*
X48080050Y7499658D01*
X48137646Y7612696D01*
X48152500Y7706481D01*
X48152500Y7713376D01*
X48518000Y7713376D01*
X48532506Y7640454D01*
X48532507Y7640452D01*
X48587758Y7557763D01*
X48587762Y7557759D01*
X48670451Y7502508D01*
X48670453Y7502507D01*
X48743375Y7488001D01*
X48743377Y7488000D01*
X49275999Y7488000D01*
X49276000Y7488002D01*
X49276000Y8135195D01*
X49334960Y8094996D01*
X49463002Y8055500D01*
X49563312Y8055500D01*
X49662499Y8070450D01*
X49783224Y8128588D01*
X49784000Y8129309D01*
X49784000Y7488001D01*
X49784001Y7488000D01*
X50316623Y7488000D01*
X50316624Y7488001D01*
X50389546Y7502507D01*
X50389548Y7502508D01*
X50472237Y7557759D01*
X50472241Y7557763D01*
X50527492Y7640452D01*
X50527493Y7640454D01*
X50541999Y7713376D01*
X50542000Y7713378D01*
X50542000Y8245999D01*
X50541999Y8246000D01*
X49896618Y8246000D01*
X49948447Y8335772D01*
X49978264Y8466407D01*
X49968251Y8600028D01*
X49919297Y8724760D01*
X49895979Y8754000D01*
X50541999Y8754000D01*
X50542000Y8754001D01*
X50542000Y9286623D01*
X50541999Y9286625D01*
X50527493Y9359547D01*
X50527492Y9359549D01*
X50472241Y9442238D01*
X50472237Y9442242D01*
X50389548Y9497493D01*
X50389546Y9497494D01*
X50316624Y9512000D01*
X49784001Y9512000D01*
X49784000Y9511999D01*
X49784000Y8864806D01*
X49725040Y8905004D01*
X49596998Y8944500D01*
X49496688Y8944500D01*
X49397501Y8929550D01*
X49276776Y8871412D01*
X49276000Y8870692D01*
X49276000Y9512000D01*
X48743375Y9512000D01*
X48670453Y9497494D01*
X48670451Y9497493D01*
X48587762Y9442242D01*
X48587758Y9442238D01*
X48532507Y9359549D01*
X48532506Y9359547D01*
X48518000Y9286625D01*
X48518000Y8754001D01*
X48518001Y8754000D01*
X49163382Y8754000D01*
X49111553Y8664228D01*
X49081736Y8533593D01*
X49091749Y8399972D01*
X49140703Y8275240D01*
X49164021Y8246000D01*
X48518000Y8246000D01*
X48518000Y7713376D01*
X48152500Y7713376D01*
X48152499Y9293518D01*
X48152499Y9293519D01*
X48152499Y9293522D01*
X48152498Y9293524D01*
X48137647Y9387300D01*
X48137646Y9387302D01*
X48137646Y9387304D01*
X48080050Y9500342D01*
X47990342Y9590050D01*
X47877304Y9647646D01*
X47877305Y9647646D01*
X47783521Y9662500D01*
X46196478Y9662500D01*
X46196476Y9662499D01*
X46102700Y9647648D01*
X46102695Y9647646D01*
X45989659Y9590051D01*
X45899949Y9500341D01*
X45842354Y9387305D01*
X45827500Y9293522D01*
X45827500Y7706479D01*
X45612500Y7706479D01*
X45612500Y7706481D01*
X45612499Y9293518D01*
X45612499Y9293519D01*
X45612499Y9293522D01*
X45612498Y9293524D01*
X45597647Y9387300D01*
X45597646Y9387302D01*
X45597646Y9387304D01*
X45540050Y9500342D01*
X45450342Y9590050D01*
X45337304Y9647646D01*
X45337305Y9647646D01*
X45243521Y9662500D01*
X43656478Y9662500D01*
X43656476Y9662499D01*
X43562700Y9647648D01*
X43562695Y9647646D01*
X43449659Y9590051D01*
X43359949Y9500341D01*
X43302354Y9387305D01*
X43287500Y9293522D01*
X43287500Y7706479D01*
X7512500Y7706479D01*
X7512500Y7706481D01*
X7512499Y9293518D01*
X7512499Y9293519D01*
X7512499Y9293522D01*
X7512498Y9293524D01*
X7497647Y9387300D01*
X7497646Y9387302D01*
X7497646Y9387304D01*
X7440050Y9500342D01*
X7350342Y9590050D01*
X7237304Y9647646D01*
X7237305Y9647646D01*
X7143521Y9662500D01*
X5556478Y9662500D01*
X5556476Y9662499D01*
X5462700Y9647648D01*
X5462695Y9647646D01*
X5349659Y9590051D01*
X5259949Y9500341D01*
X5202354Y9387305D01*
X5187500Y9293522D01*
X5187500Y7706479D01*
X4972500Y7706479D01*
X4972500Y7706481D01*
X4972499Y9293518D01*
X4972499Y9293519D01*
X4972499Y9293522D01*
X4972498Y9293524D01*
X4957647Y9387300D01*
X4957646Y9387302D01*
X4957646Y9387304D01*
X4900050Y9500342D01*
X4810342Y9590050D01*
X4697304Y9647646D01*
X4697305Y9647646D01*
X4603521Y9662500D01*
X3016478Y9662500D01*
X3016476Y9662499D01*
X2922700Y9647648D01*
X2922695Y9647646D01*
X2809659Y9590051D01*
X2719949Y9500341D01*
X2662354Y9387305D01*
X2647500Y9293522D01*
X2647500Y7706479D01*
X2280627Y7706479D01*
X2281999Y7713376D01*
X2282000Y7713378D01*
X2282000Y8245999D01*
X2281999Y8246000D01*
X1636618Y8246000D01*
X1688447Y8335772D01*
X1718264Y8466407D01*
X1708251Y8600028D01*
X1659297Y8724760D01*
X1635979Y8754000D01*
X2281999Y8754000D01*
X2282000Y8754001D01*
X2282000Y9286623D01*
X2281999Y9286625D01*
X2267493Y9359547D01*
X2267492Y9359549D01*
X2212241Y9442238D01*
X2212237Y9442242D01*
X2129548Y9497493D01*
X2129546Y9497494D01*
X2056624Y9512000D01*
X1523999Y9512000D01*
X1523999Y8864807D01*
X1465040Y8905004D01*
X1336998Y8944500D01*
X1236688Y8944500D01*
X1137501Y8929550D01*
X1016776Y8871412D01*
X1016000Y8870692D01*
X1016000Y9511999D01*
X1015999Y9512000D01*
X483375Y9512000D01*
X410453Y9497494D01*
X410451Y9497493D01*
X327762Y9442242D01*
X327758Y9442238D01*
X272507Y9359549D01*
X272506Y9359547D01*
X258000Y9286625D01*
X258000Y8754001D01*
X258001Y8754000D01*
X903382Y8754000D01*
X851553Y8664228D01*
X821736Y8533593D01*
X831749Y8399972D01*
X880703Y8275240D01*
X904021Y8246000D01*
X258001Y8246000D01*
X258000Y8245999D01*
X258000Y7713376D01*
X-4479500Y7713376D01*
X-4479500Y16275000D01*
X13019435Y16275000D01*
X13039632Y16095743D01*
X13039633Y16095739D01*
X13099211Y15925478D01*
X13099211Y15925477D01*
X13195181Y15772742D01*
X13195184Y15772738D01*
X13322738Y15645184D01*
X13475478Y15549211D01*
X13543657Y15525354D01*
X13645738Y15489634D01*
X13645742Y15489633D01*
X13645745Y15489632D01*
X13825000Y15469435D01*
X14004255Y15489632D01*
X14174522Y15549211D01*
X14327262Y15645184D01*
X14454816Y15772738D01*
X14550789Y15925478D01*
X14610368Y16095745D01*
X14630565Y16275000D01*
X14610368Y16454255D01*
X14550789Y16624522D01*
X14550788Y16624524D01*
X14485892Y16727806D01*
X14470942Y16787137D01*
X14493721Y16843924D01*
X14499703Y16850470D01*
X20502450Y22853215D01*
X20574536Y22947159D01*
X20635044Y23093238D01*
X20655682Y23250000D01*
X20650924Y23286142D01*
X20650500Y23292610D01*
X20650500Y31850500D01*
X20669407Y31908691D01*
X20718907Y31944655D01*
X20749500Y31949500D01*
X25407391Y31949500D01*
X25413859Y31949076D01*
X25449999Y31944318D01*
X25450000Y31944318D01*
X25450001Y31944318D01*
X25489361Y31949500D01*
X25606762Y31964956D01*
X25752841Y32025464D01*
X25781869Y32047738D01*
X25841883Y32093789D01*
X25878280Y32121716D01*
X25878280Y32121717D01*
X25878282Y32121718D01*
X25900475Y32150643D01*
X25904744Y32155510D01*
X30894494Y37145259D01*
X30899361Y37149528D01*
X30928282Y37171718D01*
X31024536Y37297159D01*
X31084208Y37441221D01*
X31123944Y37487746D01*
X31164584Y37501712D01*
X31279255Y37514632D01*
X31449522Y37574211D01*
X31602262Y37670184D01*
X31729816Y37797738D01*
X31825789Y37950478D01*
X31885368Y38120745D01*
X31905565Y38300000D01*
X31885368Y38479255D01*
X31825789Y38649522D01*
X31729816Y38802262D01*
X31602262Y38929816D01*
X31602259Y38929818D01*
X31602258Y38929819D01*
X31449523Y39025789D01*
X31279261Y39085367D01*
X31279249Y39085370D01*
X31188415Y39095604D01*
X31132707Y39120907D01*
X31102512Y39174123D01*
X31100500Y39193981D01*
X31100500Y44957392D01*
X31100924Y44963860D01*
X31105682Y45000000D01*
X31105682Y45000001D01*
X31085044Y45156759D01*
X31085044Y45156762D01*
X31024536Y45302841D01*
X31024535Y45302843D01*
X30952450Y45396786D01*
X30928286Y45428277D01*
X30928285Y45428278D01*
X30928282Y45428282D01*
X30928277Y45428286D01*
X30928276Y45428287D01*
X30899365Y45450471D01*
X30894491Y45454745D01*
X28874514Y47474721D01*
X28846737Y47529238D01*
X28846140Y47533641D01*
X28835368Y47629255D01*
X28775789Y47799522D01*
X28679816Y47952262D01*
X28552262Y48079816D01*
X28552259Y48079818D01*
X28552258Y48079819D01*
X28399523Y48175789D01*
X28229261Y48235367D01*
X28229257Y48235368D01*
X28050000Y48255565D01*
X27870742Y48235368D01*
X27870738Y48235367D01*
X27700477Y48175789D01*
X27700476Y48175789D01*
X27547741Y48079819D01*
X27420181Y47952259D01*
X27324211Y47799524D01*
X27324211Y47799523D01*
X27264633Y47629262D01*
X27264632Y47629258D01*
X27244435Y47450000D01*
X27264632Y47270743D01*
X27264633Y47270739D01*
X27324211Y47100478D01*
X27324211Y47100477D01*
X27420181Y46947742D01*
X27420184Y46947738D01*
X27547738Y46820184D01*
X27700478Y46724211D01*
X27768657Y46700354D01*
X27870738Y46664634D01*
X27870742Y46664633D01*
X27870745Y46664632D01*
X27966360Y46653860D01*
X28022067Y46628556D01*
X28025279Y46625486D01*
X29870504Y44780262D01*
X29898281Y44725745D01*
X29899500Y44710258D01*
X29899500Y38342610D01*
X29899076Y38336142D01*
X29894318Y38300001D01*
X29894318Y38300000D01*
X29899076Y38263860D01*
X29899500Y38257392D01*
X29899500Y37889744D01*
X29880593Y37831553D01*
X29870504Y37819740D01*
X25230261Y33179496D01*
X25175744Y33151719D01*
X25160257Y33150500D01*
X20092609Y33150500D01*
X20086141Y33150924D01*
X20050001Y33155682D01*
X20049999Y33155682D01*
X20013859Y33150924D01*
X20007391Y33150500D01*
X16122585Y33150500D01*
X16064394Y33169407D01*
X16052587Y33179491D01*
X16052262Y33179816D01*
X16052259Y33179818D01*
X16052258Y33179819D01*
X15899523Y33275789D01*
X15729261Y33335367D01*
X15729257Y33335368D01*
X15550000Y33355565D01*
X15370742Y33335368D01*
X15370738Y33335367D01*
X15200477Y33275789D01*
X15200476Y33275789D01*
X15047741Y33179819D01*
X14920181Y33052259D01*
X14824211Y32899524D01*
X14824211Y32899523D01*
X14764633Y32729262D01*
X14764632Y32729258D01*
X14744435Y32550000D01*
X14764632Y32370743D01*
X14764633Y32370739D01*
X14824211Y32200478D01*
X14824211Y32200477D01*
X14852466Y32155510D01*
X14920184Y32047738D01*
X15047738Y31920184D01*
X15200478Y31824211D01*
X15268657Y31800354D01*
X15370738Y31764634D01*
X15370742Y31764633D01*
X15370745Y31764632D01*
X15550000Y31744435D01*
X15729255Y31764632D01*
X15899522Y31824211D01*
X16052262Y31920184D01*
X16052583Y31920506D01*
X16052807Y31920620D01*
X16056605Y31923648D01*
X16057225Y31922871D01*
X16107098Y31948281D01*
X16122585Y31949500D01*
X19350500Y31949500D01*
X19408691Y31930593D01*
X19444655Y31881093D01*
X19449500Y31850500D01*
X19449500Y23539744D01*
X19430593Y23481553D01*
X19420504Y23469740D01*
X13430510Y17479747D01*
X13425638Y17475475D01*
X13396719Y17453283D01*
X13396712Y17453276D01*
X13372550Y17421786D01*
X13300464Y17327843D01*
X13300462Y17327839D01*
X13239957Y17181767D01*
X13239955Y17181759D01*
X13219318Y17025001D01*
X13219318Y17025000D01*
X13224076Y16988860D01*
X13224500Y16982392D01*
X13224500Y16847586D01*
X13205593Y16789395D01*
X13195512Y16777591D01*
X13195189Y16777269D01*
X13195181Y16777259D01*
X13099211Y16624524D01*
X13099211Y16624523D01*
X13039633Y16454262D01*
X13039632Y16454258D01*
X13019435Y16275000D01*
X-4479500Y16275000D01*
X-4479500Y26000000D01*
X-3605682Y26000000D01*
X-3600500Y25960639D01*
X-3585045Y25843242D01*
X-3585043Y25843234D01*
X-3524538Y25697162D01*
X-3524538Y25697161D01*
X-3524536Y25697159D01*
X-3428282Y25571718D01*
X-3428278Y25571715D01*
X-3428277Y25571714D01*
X-3399366Y25549530D01*
X-3394492Y25545256D01*
X-2374516Y24525281D01*
X-2346739Y24470764D01*
X-2346143Y24466363D01*
X-2335369Y24370750D01*
X-2335367Y24370739D01*
X-2275789Y24200478D01*
X-2275789Y24200477D01*
X-2179819Y24047742D01*
X-2179816Y24047738D01*
X-2052262Y23920184D01*
X-1899522Y23824211D01*
X-1831343Y23800354D01*
X-1729262Y23764634D01*
X-1729258Y23764633D01*
X-1729255Y23764632D01*
X-1550000Y23744435D01*
X-1370745Y23764632D01*
X-1200478Y23824211D01*
X-1047738Y23920184D01*
X-920184Y24047738D01*
X-824211Y24200478D01*
X-764632Y24370745D01*
X-744435Y24550000D01*
X-764632Y24729255D01*
X-824211Y24899522D01*
X-920184Y25052262D01*
X-1047738Y25179816D01*
X-1047741Y25179818D01*
X-1047742Y25179819D01*
X-1200477Y25275789D01*
X-1370739Y25335367D01*
X-1370750Y25335369D01*
X-1466363Y25346143D01*
X-1522070Y25371447D01*
X-1525281Y25374516D01*
X-2370505Y26219740D01*
X-2398282Y26274257D01*
X-2399501Y26289732D01*
X-2399501Y50506479D01*
X97500Y50506479D01*
X97501Y50506477D01*
X112352Y50412701D01*
X112354Y50412696D01*
X169950Y50299658D01*
X259658Y50209950D01*
X372696Y50152354D01*
X466481Y50137500D01*
X2053518Y50137501D01*
X2053521Y50137501D01*
X2053522Y50137502D01*
X2100410Y50144928D01*
X2147299Y50152353D01*
X2147299Y50152354D01*
X2147304Y50152354D01*
X2260342Y50209950D01*
X2350050Y50299658D01*
X2407646Y50412696D01*
X2422500Y50506479D01*
X2637500Y50506479D01*
X2637501Y50506477D01*
X2652352Y50412701D01*
X2652354Y50412696D01*
X2709950Y50299658D01*
X2799658Y50209950D01*
X2912696Y50152354D01*
X3006481Y50137500D01*
X4593518Y50137501D01*
X4593521Y50137501D01*
X4593522Y50137502D01*
X4640410Y50144928D01*
X4687299Y50152353D01*
X4687299Y50152354D01*
X4687304Y50152354D01*
X4800342Y50209950D01*
X4890050Y50299658D01*
X4947646Y50412696D01*
X4962500Y50506479D01*
X5177500Y50506479D01*
X5177501Y50506477D01*
X5192352Y50412701D01*
X5192354Y50412696D01*
X5249950Y50299658D01*
X5339658Y50209950D01*
X5452696Y50152354D01*
X5546481Y50137500D01*
X7133518Y50137501D01*
X7133521Y50137501D01*
X7133522Y50137502D01*
X7180410Y50144928D01*
X7227299Y50152353D01*
X7227299Y50152354D01*
X7227304Y50152354D01*
X7340342Y50209950D01*
X7430050Y50299658D01*
X7487646Y50412696D01*
X7502500Y50506479D01*
X7717500Y50506479D01*
X7717501Y50506477D01*
X7732352Y50412701D01*
X7732354Y50412696D01*
X7789950Y50299658D01*
X7879658Y50209950D01*
X7992696Y50152354D01*
X8086481Y50137500D01*
X9673518Y50137501D01*
X9673521Y50137501D01*
X9673522Y50137502D01*
X9720410Y50144928D01*
X9767299Y50152353D01*
X9767299Y50152354D01*
X9767304Y50152354D01*
X9880342Y50209950D01*
X9970050Y50299658D01*
X10027646Y50412696D01*
X10042500Y50506479D01*
X10257500Y50506479D01*
X10257501Y50506477D01*
X10272352Y50412701D01*
X10272354Y50412696D01*
X10329950Y50299658D01*
X10419658Y50209950D01*
X10532696Y50152354D01*
X10626481Y50137500D01*
X12213518Y50137501D01*
X12213521Y50137501D01*
X12213522Y50137502D01*
X12260410Y50144928D01*
X12307299Y50152353D01*
X12307299Y50152354D01*
X12307304Y50152354D01*
X12420342Y50209950D01*
X12510050Y50299658D01*
X12567646Y50412696D01*
X12582500Y50506481D01*
X12582500Y50513376D01*
X12948000Y50513376D01*
X12962506Y50440454D01*
X12962507Y50440452D01*
X13017758Y50357763D01*
X13017762Y50357759D01*
X13108563Y50297087D01*
X13107358Y50295285D01*
X13143970Y50264018D01*
X13158256Y50204524D01*
X13143387Y50159616D01*
X13074211Y50049524D01*
X13074211Y50049523D01*
X13014633Y49879262D01*
X13014632Y49879258D01*
X12994435Y49700000D01*
X13014632Y49520743D01*
X13014633Y49520739D01*
X13074211Y49350478D01*
X13074211Y49350477D01*
X13170181Y49197742D01*
X13170184Y49197738D01*
X13297738Y49070184D01*
X13297740Y49070183D01*
X13297741Y49070182D01*
X13410905Y48999076D01*
X13450478Y48974211D01*
X13518657Y48950354D01*
X13620738Y48914634D01*
X13620742Y48914633D01*
X13620745Y48914632D01*
X13800000Y48894435D01*
X13979255Y48914632D01*
X14149522Y48974211D01*
X14302262Y49070184D01*
X14302583Y49070506D01*
X14302807Y49070620D01*
X14306605Y49073648D01*
X14307225Y49072871D01*
X14357098Y49098281D01*
X14372585Y49099500D01*
X15757391Y49099500D01*
X15763859Y49099076D01*
X15799999Y49094318D01*
X15800000Y49094318D01*
X15800001Y49094318D01*
X15839361Y49099500D01*
X15956762Y49114956D01*
X16102841Y49175464D01*
X16131869Y49197738D01*
X16200600Y49250477D01*
X16228280Y49271716D01*
X16228280Y49271717D01*
X16228282Y49271718D01*
X16250475Y49300643D01*
X16254744Y49305510D01*
X16794490Y49845256D01*
X16799357Y49849525D01*
X16828282Y49871718D01*
X16834066Y49879255D01*
X16854661Y49906097D01*
X16924536Y49997159D01*
X16957352Y50076387D01*
X16997090Y50122912D01*
X17048817Y50137501D01*
X17100500Y50137501D01*
X17158691Y50118594D01*
X17194655Y50069094D01*
X17199500Y50038501D01*
X17199500Y43189745D01*
X17180593Y43131554D01*
X17170504Y43119741D01*
X17075278Y43024515D01*
X17020761Y42996738D01*
X17016359Y42996142D01*
X16920750Y42985370D01*
X16920738Y42985367D01*
X16750477Y42925789D01*
X16750476Y42925789D01*
X16597741Y42829819D01*
X16470181Y42702259D01*
X16374211Y42549524D01*
X16374211Y42549523D01*
X16314633Y42379262D01*
X16314632Y42379258D01*
X16294435Y42200000D01*
X16314632Y42020743D01*
X16314633Y42020739D01*
X16374211Y41850478D01*
X16374211Y41850477D01*
X16470181Y41697742D01*
X16470184Y41697738D01*
X16597738Y41570184D01*
X16750478Y41474211D01*
X16818657Y41450354D01*
X16920738Y41414634D01*
X16920742Y41414633D01*
X16920745Y41414632D01*
X17100000Y41394435D01*
X17279255Y41414632D01*
X17449522Y41474211D01*
X17602262Y41570184D01*
X17729816Y41697738D01*
X17825789Y41850478D01*
X17885368Y42020745D01*
X17896140Y42116365D01*
X17921444Y42172070D01*
X17924491Y42175258D01*
X18194498Y42445264D01*
X18199356Y42449524D01*
X18228282Y42471718D01*
X18324536Y42597159D01*
X18385044Y42743238D01*
X18400500Y42860639D01*
X18405682Y42900000D01*
X18400924Y42936142D01*
X18400500Y42942610D01*
X18400500Y50038501D01*
X18419407Y50096692D01*
X18468907Y50132656D01*
X18499500Y50137501D01*
X19833521Y50137501D01*
X19833522Y50137502D01*
X19880410Y50144928D01*
X19927299Y50152353D01*
X19927299Y50152354D01*
X19927304Y50152354D01*
X20040342Y50209950D01*
X20130050Y50299658D01*
X20187646Y50412696D01*
X20202500Y50506481D01*
X20202499Y52093518D01*
X20202499Y52093519D01*
X20202499Y52093522D01*
X20202498Y52093524D01*
X20187647Y52187300D01*
X20187646Y52187302D01*
X20187646Y52187304D01*
X20130050Y52300342D01*
X20084814Y52345578D01*
X20057039Y52400092D01*
X20066610Y52460524D01*
X20084817Y52485583D01*
X20569740Y52970504D01*
X20624256Y52998281D01*
X20639743Y52999500D01*
X21411256Y52999500D01*
X21469447Y52980593D01*
X21505411Y52931093D01*
X21505411Y52869907D01*
X21481259Y52830496D01*
X21142258Y52491496D01*
X21087742Y52463719D01*
X21072255Y52462500D01*
X20786479Y52462500D01*
X20786476Y52462499D01*
X20692700Y52447648D01*
X20692695Y52447646D01*
X20579659Y52390051D01*
X20489949Y52300341D01*
X20432354Y52187305D01*
X20417500Y52093522D01*
X20417500Y50506479D01*
X20417501Y50506477D01*
X20432352Y50412701D01*
X20432354Y50412696D01*
X20489950Y50299658D01*
X20579658Y50209950D01*
X20692696Y50152354D01*
X20786481Y50137500D01*
X22373518Y50137501D01*
X22373521Y50137501D01*
X22373522Y50137502D01*
X22420410Y50144928D01*
X22467299Y50152353D01*
X22467299Y50152354D01*
X22467304Y50152354D01*
X22580342Y50209950D01*
X22670050Y50299658D01*
X22727646Y50412696D01*
X22742500Y50506481D01*
X22742499Y52050501D01*
X22761406Y52108691D01*
X22810906Y52144655D01*
X22841499Y52149500D01*
X22858500Y52149500D01*
X22916691Y52130593D01*
X22952655Y52081093D01*
X22957500Y52050500D01*
X22957500Y50506479D01*
X22957501Y50506477D01*
X22972352Y50412701D01*
X22972354Y50412696D01*
X23029950Y50299658D01*
X23119658Y50209950D01*
X23232696Y50152354D01*
X23326481Y50137500D01*
X24913518Y50137501D01*
X24913521Y50137501D01*
X24913522Y50137502D01*
X24960410Y50144928D01*
X25007299Y50152353D01*
X25007299Y50152354D01*
X25007304Y50152354D01*
X25120342Y50209950D01*
X25210050Y50299658D01*
X25267646Y50412696D01*
X25282500Y50506481D01*
X25282499Y52050501D01*
X25301406Y52108691D01*
X25350906Y52144655D01*
X25381499Y52149500D01*
X25398500Y52149500D01*
X25456691Y52130593D01*
X25492655Y52081093D01*
X25497500Y52050500D01*
X25497500Y50506479D01*
X25497501Y50506477D01*
X25512352Y50412701D01*
X25512354Y50412696D01*
X25569950Y50299658D01*
X25659658Y50209950D01*
X25772696Y50152354D01*
X25866481Y50137500D01*
X26832256Y50137501D01*
X26890447Y50118594D01*
X26902260Y50108505D01*
X27805255Y49205509D01*
X27809529Y49200635D01*
X27828843Y49175464D01*
X27831718Y49171718D01*
X27905692Y49114956D01*
X27957159Y49075464D01*
X27957160Y49075464D01*
X27957161Y49075463D01*
X28103233Y49014958D01*
X28103238Y49014956D01*
X28220639Y48999500D01*
X28259999Y48994318D01*
X28260000Y48994318D01*
X28260001Y48994318D01*
X28296141Y48999076D01*
X28302609Y48999500D01*
X28527415Y48999500D01*
X28585606Y48980593D01*
X28597412Y48970510D01*
X28597738Y48970184D01*
X28597740Y48970183D01*
X28597741Y48970182D01*
X28718291Y48894435D01*
X28750478Y48874211D01*
X28818657Y48850354D01*
X28920738Y48814634D01*
X28920742Y48814633D01*
X28920745Y48814632D01*
X29100000Y48794435D01*
X29279255Y48814632D01*
X29449522Y48874211D01*
X29602262Y48970184D01*
X29729816Y49097738D01*
X29825789Y49250478D01*
X29885368Y49420745D01*
X29905565Y49600000D01*
X29885368Y49779255D01*
X29825789Y49949522D01*
X29729816Y50102262D01*
X29713079Y50118999D01*
X29685304Y50173513D01*
X29694875Y50233945D01*
X29738140Y50277210D01*
X29783085Y50288000D01*
X29986623Y50288000D01*
X29986624Y50288001D01*
X30059546Y50302507D01*
X30059548Y50302508D01*
X30142237Y50357759D01*
X30142241Y50357763D01*
X30197492Y50440452D01*
X30197493Y50440454D01*
X30211999Y50513376D01*
X30212000Y50513378D01*
X30212000Y51045999D01*
X30211999Y51046000D01*
X29566618Y51046000D01*
X29618447Y51135772D01*
X29648264Y51266407D01*
X29638251Y51400028D01*
X29589297Y51524760D01*
X29565979Y51554000D01*
X30211999Y51554000D01*
X30212000Y51554001D01*
X30212000Y52050500D01*
X30230907Y52108691D01*
X30280407Y52144655D01*
X30311000Y52149500D01*
X30629000Y52149500D01*
X30687191Y52130593D01*
X30723155Y52081093D01*
X30728000Y52050500D01*
X30728000Y51554001D01*
X30728001Y51554000D01*
X31373382Y51554000D01*
X31321553Y51464228D01*
X31291736Y51333593D01*
X31301749Y51199972D01*
X31350703Y51075240D01*
X31374021Y51046000D01*
X30728001Y51046000D01*
X30728000Y51045999D01*
X30728000Y50513376D01*
X30742506Y50440454D01*
X30742507Y50440452D01*
X30797758Y50357763D01*
X30797762Y50357759D01*
X30880451Y50302508D01*
X30880453Y50302507D01*
X30953375Y50288001D01*
X30953377Y50288000D01*
X31485999Y50288000D01*
X31486000Y50288001D01*
X31486000Y50935195D01*
X31544960Y50894996D01*
X31673002Y50855500D01*
X31773312Y50855500D01*
X31872499Y50870450D01*
X31993224Y50928588D01*
X31994000Y50929309D01*
X31994000Y50288001D01*
X31994001Y50288000D01*
X32526623Y50288000D01*
X32526624Y50288001D01*
X32599546Y50302507D01*
X32599548Y50302508D01*
X32682237Y50357759D01*
X32682241Y50357763D01*
X32737492Y50440452D01*
X32737493Y50440454D01*
X32751999Y50513376D01*
X32752000Y50513378D01*
X32752000Y51046000D01*
X32106618Y51046000D01*
X32158447Y51135772D01*
X32188264Y51266407D01*
X32178251Y51400028D01*
X32129297Y51524760D01*
X32105979Y51554000D01*
X32751999Y51554000D01*
X32752000Y51554001D01*
X32752000Y52050500D01*
X32770907Y52108691D01*
X32820407Y52144655D01*
X32851000Y52149500D01*
X33018500Y52149500D01*
X33076691Y52130593D01*
X33112655Y52081093D01*
X33117500Y52050500D01*
X33117500Y50506479D01*
X33117501Y50506477D01*
X33132352Y50412701D01*
X33132354Y50412696D01*
X33189950Y50299658D01*
X33279658Y50209950D01*
X33392696Y50152354D01*
X33486481Y50137500D01*
X35073518Y50137501D01*
X35073521Y50137501D01*
X35073522Y50137502D01*
X35120410Y50144928D01*
X35167299Y50152353D01*
X35167299Y50152354D01*
X35167304Y50152354D01*
X35280342Y50209950D01*
X35370050Y50299658D01*
X35427646Y50412696D01*
X35442500Y50506481D01*
X35442500Y50513376D01*
X35808000Y50513376D01*
X35822506Y50440454D01*
X35822507Y50440452D01*
X35877758Y50357763D01*
X35877762Y50357759D01*
X35960451Y50302508D01*
X35960453Y50302507D01*
X36033375Y50288001D01*
X36033377Y50288000D01*
X36565999Y50288000D01*
X36566000Y50288001D01*
X36566000Y50935195D01*
X36624960Y50894996D01*
X36753002Y50855500D01*
X36853312Y50855500D01*
X36952499Y50870450D01*
X37073224Y50928588D01*
X37074000Y50929309D01*
X37074000Y50288001D01*
X37074001Y50288000D01*
X37606623Y50288000D01*
X37606624Y50288001D01*
X37679546Y50302507D01*
X37679548Y50302508D01*
X37762237Y50357759D01*
X37762241Y50357763D01*
X37817492Y50440452D01*
X37817493Y50440454D01*
X37830627Y50506479D01*
X38197500Y50506479D01*
X38197501Y50506477D01*
X38212352Y50412701D01*
X38212354Y50412696D01*
X38269950Y50299658D01*
X38359658Y50209950D01*
X38472696Y50152354D01*
X38566481Y50137500D01*
X40153518Y50137501D01*
X40153521Y50137501D01*
X40153522Y50137502D01*
X40200410Y50144928D01*
X40247299Y50152353D01*
X40247299Y50152354D01*
X40247304Y50152354D01*
X40360342Y50209950D01*
X40450050Y50299658D01*
X40507646Y50412696D01*
X40522500Y50506481D01*
X40522500Y50513376D01*
X40888000Y50513376D01*
X40902506Y50440454D01*
X40902507Y50440452D01*
X40957758Y50357763D01*
X40957762Y50357759D01*
X41040451Y50302508D01*
X41040453Y50302507D01*
X41113375Y50288001D01*
X41113377Y50288000D01*
X41645999Y50288000D01*
X41646000Y50288001D01*
X41646000Y50935195D01*
X41704960Y50894996D01*
X41833002Y50855500D01*
X41933312Y50855500D01*
X42032499Y50870450D01*
X42153224Y50928588D01*
X42154000Y50929309D01*
X42154000Y50288001D01*
X42154001Y50288000D01*
X42686623Y50288000D01*
X42686624Y50288001D01*
X42759546Y50302507D01*
X42759548Y50302508D01*
X42842237Y50357759D01*
X42842241Y50357763D01*
X42897492Y50440452D01*
X42897493Y50440454D01*
X42911999Y50513376D01*
X43428000Y50513376D01*
X43442506Y50440454D01*
X43442507Y50440452D01*
X43497758Y50357763D01*
X43497762Y50357759D01*
X43580451Y50302508D01*
X43580453Y50302507D01*
X43653375Y50288001D01*
X43653377Y50288000D01*
X44185999Y50288000D01*
X44186000Y50288002D01*
X44186000Y50935195D01*
X44244960Y50894996D01*
X44373002Y50855500D01*
X44473312Y50855500D01*
X44572499Y50870450D01*
X44693224Y50928588D01*
X44694000Y50929309D01*
X44694000Y50288001D01*
X44694001Y50288000D01*
X45226623Y50288000D01*
X45226624Y50288001D01*
X45299546Y50302507D01*
X45299548Y50302508D01*
X45382237Y50357759D01*
X45382241Y50357763D01*
X45437492Y50440452D01*
X45437493Y50440454D01*
X45450627Y50506479D01*
X45817500Y50506479D01*
X45817501Y50506477D01*
X45832352Y50412701D01*
X45832354Y50412696D01*
X45889950Y50299658D01*
X45979658Y50209950D01*
X46092696Y50152354D01*
X46186481Y50137500D01*
X47773518Y50137501D01*
X47773521Y50137501D01*
X47773522Y50137502D01*
X47820410Y50144928D01*
X47867299Y50152353D01*
X47867299Y50152354D01*
X47867304Y50152354D01*
X47980342Y50209950D01*
X48070050Y50299658D01*
X48127646Y50412696D01*
X48142500Y50506479D01*
X48357500Y50506479D01*
X48357501Y50506477D01*
X48372352Y50412701D01*
X48372354Y50412696D01*
X48429950Y50299658D01*
X48519658Y50209950D01*
X48632696Y50152354D01*
X48726481Y50137500D01*
X50313518Y50137501D01*
X50313521Y50137501D01*
X50313522Y50137502D01*
X50360410Y50144928D01*
X50407299Y50152353D01*
X50407299Y50152354D01*
X50407304Y50152354D01*
X50520342Y50209950D01*
X50610050Y50299658D01*
X50667646Y50412696D01*
X50682500Y50506481D01*
X50682499Y52093518D01*
X50682499Y52093519D01*
X50682499Y52093522D01*
X50682498Y52093524D01*
X50667647Y52187300D01*
X50667646Y52187302D01*
X50667646Y52187304D01*
X50610050Y52300342D01*
X50520342Y52390050D01*
X50407304Y52447646D01*
X50407305Y52447646D01*
X50313521Y52462500D01*
X48726478Y52462500D01*
X48726476Y52462499D01*
X48632700Y52447648D01*
X48632695Y52447646D01*
X48519659Y52390051D01*
X48429949Y52300341D01*
X48372354Y52187305D01*
X48357500Y52093522D01*
X48357500Y50506479D01*
X48142500Y50506479D01*
X48142500Y50506481D01*
X48142499Y52093518D01*
X48142499Y52093519D01*
X48142499Y52093522D01*
X48142498Y52093524D01*
X48127647Y52187300D01*
X48127646Y52187302D01*
X48127646Y52187304D01*
X48070050Y52300342D01*
X47980342Y52390050D01*
X47867304Y52447646D01*
X47867305Y52447646D01*
X47773521Y52462500D01*
X46186478Y52462500D01*
X46186476Y52462499D01*
X46092700Y52447648D01*
X46092695Y52447646D01*
X45979659Y52390051D01*
X45889949Y52300341D01*
X45832354Y52187305D01*
X45817500Y52093522D01*
X45817500Y50506479D01*
X45450627Y50506479D01*
X45451999Y50513376D01*
X45452000Y50513378D01*
X45452000Y51046000D01*
X44806618Y51046000D01*
X44858447Y51135772D01*
X44888264Y51266407D01*
X44878251Y51400028D01*
X44829297Y51524760D01*
X44805979Y51554000D01*
X45451999Y51554000D01*
X45452000Y51554001D01*
X45452000Y52086623D01*
X45451999Y52086625D01*
X45437493Y52159547D01*
X45437492Y52159549D01*
X45382241Y52242238D01*
X45382237Y52242242D01*
X45299548Y52297493D01*
X45299546Y52297494D01*
X45226624Y52312000D01*
X44694001Y52312000D01*
X44694000Y52311999D01*
X44694000Y51664806D01*
X44635040Y51705004D01*
X44506998Y51744500D01*
X44406688Y51744500D01*
X44307501Y51729550D01*
X44186776Y51671412D01*
X44186000Y51670692D01*
X44186000Y52311999D01*
X44185999Y52312000D01*
X43653375Y52312000D01*
X43580453Y52297494D01*
X43580451Y52297493D01*
X43497762Y52242242D01*
X43497758Y52242238D01*
X43442507Y52159549D01*
X43442506Y52159547D01*
X43428000Y52086625D01*
X43428000Y51554002D01*
X43428001Y51554000D01*
X44073382Y51554000D01*
X44021553Y51464228D01*
X43991736Y51333593D01*
X44001749Y51199972D01*
X44050703Y51075240D01*
X44074021Y51046000D01*
X43428001Y51046000D01*
X43428000Y51045999D01*
X43428000Y50513376D01*
X42911999Y50513376D01*
X42912000Y50513378D01*
X42912000Y51045999D01*
X42911999Y51046000D01*
X42266618Y51046000D01*
X42318447Y51135772D01*
X42348264Y51266407D01*
X42338251Y51400028D01*
X42289297Y51524760D01*
X42265979Y51554000D01*
X42911999Y51554000D01*
X42912000Y51554001D01*
X42912000Y52086623D01*
X42911999Y52086625D01*
X42897493Y52159547D01*
X42897492Y52159549D01*
X42842241Y52242238D01*
X42842237Y52242242D01*
X42759548Y52297493D01*
X42759546Y52297494D01*
X42686624Y52312000D01*
X42154001Y52312000D01*
X42154000Y52311999D01*
X42154000Y51664806D01*
X42095040Y51705004D01*
X41966998Y51744500D01*
X41866688Y51744500D01*
X41767501Y51729550D01*
X41646776Y51671412D01*
X41646000Y51670692D01*
X41646000Y52311999D01*
X41645999Y52312000D01*
X41113375Y52312000D01*
X41040453Y52297494D01*
X41040451Y52297493D01*
X40957762Y52242242D01*
X40957758Y52242238D01*
X40902507Y52159549D01*
X40902506Y52159547D01*
X40888000Y52086625D01*
X40888000Y51554001D01*
X40888001Y51554000D01*
X41533382Y51554000D01*
X41481553Y51464228D01*
X41451736Y51333593D01*
X41461749Y51199972D01*
X41510703Y51075240D01*
X41534021Y51046000D01*
X40888000Y51046000D01*
X40888000Y50513376D01*
X40522500Y50513376D01*
X40522499Y52093518D01*
X40522499Y52093519D01*
X40522499Y52093522D01*
X40522498Y52093524D01*
X40507647Y52187300D01*
X40507646Y52187302D01*
X40507646Y52187304D01*
X40450050Y52300342D01*
X40360342Y52390050D01*
X40247304Y52447646D01*
X40247305Y52447646D01*
X40153521Y52462500D01*
X38566478Y52462500D01*
X38566476Y52462499D01*
X38472700Y52447648D01*
X38472695Y52447646D01*
X38359659Y52390051D01*
X38269949Y52300341D01*
X38212354Y52187305D01*
X38197500Y52093522D01*
X38197500Y50506479D01*
X37830627Y50506479D01*
X37831999Y50513376D01*
X37832000Y50513378D01*
X37832000Y51045999D01*
X37831999Y51046000D01*
X37186618Y51046000D01*
X37238447Y51135772D01*
X37268264Y51266407D01*
X37258251Y51400028D01*
X37209297Y51524760D01*
X37185979Y51554000D01*
X37831999Y51554000D01*
X37832000Y51554001D01*
X37832000Y52086623D01*
X37831999Y52086625D01*
X37817493Y52159547D01*
X37817492Y52159549D01*
X37762241Y52242238D01*
X37762237Y52242242D01*
X37679548Y52297493D01*
X37679546Y52297494D01*
X37606624Y52312000D01*
X37074001Y52312000D01*
X37074000Y52311999D01*
X37074000Y51664806D01*
X37015040Y51705004D01*
X36886998Y51744500D01*
X36786688Y51744500D01*
X36687501Y51729550D01*
X36566776Y51671412D01*
X36566000Y51670692D01*
X36566000Y52311999D01*
X36565999Y52312000D01*
X36033375Y52312000D01*
X35960453Y52297494D01*
X35960451Y52297493D01*
X35877762Y52242242D01*
X35877758Y52242238D01*
X35822507Y52159549D01*
X35822506Y52159547D01*
X35808000Y52086625D01*
X35808000Y51554001D01*
X35808001Y51554000D01*
X36453382Y51554000D01*
X36401553Y51464228D01*
X36371736Y51333593D01*
X36381749Y51199972D01*
X36430703Y51075240D01*
X36454021Y51046000D01*
X35808001Y51046000D01*
X35808000Y51045999D01*
X35808000Y50513376D01*
X35442500Y50513376D01*
X35442499Y52093518D01*
X35442499Y52093519D01*
X35442499Y52093522D01*
X35442498Y52093524D01*
X35427647Y52187300D01*
X35427646Y52187302D01*
X35427646Y52187304D01*
X35370050Y52300342D01*
X35280342Y52390050D01*
X35167304Y52447646D01*
X35167305Y52447646D01*
X35073522Y52462500D01*
X35073519Y52462500D01*
X34450742Y52462500D01*
X34392551Y52481407D01*
X34356587Y52530907D01*
X34356587Y52592093D01*
X34380738Y52631504D01*
X35294490Y53545256D01*
X35299357Y53549525D01*
X35328282Y53571718D01*
X35334066Y53579255D01*
X35373075Y53630095D01*
X35424536Y53697159D01*
X35485044Y53843238D01*
X35500500Y53960639D01*
X35505682Y54000000D01*
X35505598Y54000635D01*
X35500924Y54036142D01*
X35500500Y54042610D01*
X35500500Y55027415D01*
X35519407Y55085606D01*
X35529490Y55097413D01*
X35529816Y55097738D01*
X35625789Y55250478D01*
X35685368Y55420745D01*
X35705565Y55600000D01*
X35685368Y55779255D01*
X35625789Y55949522D01*
X35586308Y56012355D01*
X35529818Y56102259D01*
X35529817Y56102260D01*
X35529816Y56102262D01*
X35425973Y56206105D01*
X35398198Y56260619D01*
X35407769Y56321051D01*
X35412148Y56328770D01*
X35425789Y56350478D01*
X35485368Y56520745D01*
X35505565Y56700000D01*
X35485368Y56879255D01*
X35425789Y57049522D01*
X35329816Y57202262D01*
X35202262Y57329816D01*
X35202259Y57329818D01*
X35202258Y57329819D01*
X35049523Y57425789D01*
X34879261Y57485367D01*
X34879257Y57485368D01*
X34700000Y57505565D01*
X34520742Y57485368D01*
X34520738Y57485367D01*
X34350477Y57425789D01*
X34350476Y57425789D01*
X34197741Y57329819D01*
X34070181Y57202259D01*
X33974211Y57049524D01*
X33974211Y57049523D01*
X33914633Y56879262D01*
X33914630Y56879250D01*
X33903858Y56783641D01*
X33878554Y56727933D01*
X33875485Y56724722D01*
X33705510Y56554747D01*
X33700638Y56550475D01*
X33671719Y56528283D01*
X33671713Y56528277D01*
X33595732Y56429255D01*
X33575465Y56402843D01*
X33575461Y56402836D01*
X33550272Y56342026D01*
X33510535Y56295501D01*
X33451040Y56281218D01*
X33434795Y56284639D01*
X33434679Y56284130D01*
X33429257Y56285368D01*
X33250000Y56305565D01*
X33070742Y56285368D01*
X33070738Y56285367D01*
X32900477Y56225789D01*
X32900476Y56225789D01*
X32797195Y56160893D01*
X32737864Y56145943D01*
X32681077Y56168722D01*
X32674520Y56174715D01*
X31244744Y57604492D01*
X31240470Y57609366D01*
X31218286Y57638277D01*
X31218285Y57638278D01*
X31218282Y57638282D01*
X31218277Y57638286D01*
X31218276Y57638287D01*
X31092838Y57734538D01*
X30946766Y57795043D01*
X30946758Y57795045D01*
X30829361Y57810500D01*
X30790000Y57815682D01*
X30789999Y57815682D01*
X30753859Y57810924D01*
X30747391Y57810500D01*
X22361499Y57810500D01*
X22303308Y57829407D01*
X22267344Y57878907D01*
X22262499Y57909500D01*
X22262499Y57953522D01*
X22262498Y57953524D01*
X22247647Y58047300D01*
X22247646Y58047302D01*
X22247646Y58047304D01*
X22190050Y58160342D01*
X22100342Y58250050D01*
X21987304Y58307646D01*
X21987305Y58307646D01*
X21893522Y58322500D01*
X20410741Y58322500D01*
X20352550Y58341407D01*
X20316586Y58390907D01*
X20316586Y58452093D01*
X20340737Y58491504D01*
X20357741Y58508507D01*
X20412259Y58536283D01*
X20427743Y58537501D01*
X21893521Y58537501D01*
X21893522Y58537502D01*
X21940410Y58544928D01*
X21987299Y58552353D01*
X21987299Y58552354D01*
X21987304Y58552354D01*
X22100342Y58609950D01*
X22190050Y58699658D01*
X22247646Y58812696D01*
X22252505Y58843376D01*
X23648000Y58843376D01*
X23662506Y58770454D01*
X23662507Y58770452D01*
X23717758Y58687763D01*
X23717762Y58687759D01*
X23800451Y58632508D01*
X23800453Y58632507D01*
X23873375Y58618001D01*
X23873377Y58618000D01*
X24405999Y58618000D01*
X24406000Y58618001D01*
X24406000Y59265195D01*
X24464960Y59224996D01*
X24593002Y59185500D01*
X24693312Y59185500D01*
X24792499Y59200450D01*
X24913224Y59258588D01*
X24914000Y59259309D01*
X24914000Y58618001D01*
X24914001Y58618000D01*
X25446623Y58618000D01*
X25446624Y58618001D01*
X25519546Y58632507D01*
X25519548Y58632508D01*
X25602237Y58687759D01*
X25602241Y58687763D01*
X25657492Y58770452D01*
X25657493Y58770454D01*
X25670627Y58836479D01*
X26037500Y58836479D01*
X26037501Y58836477D01*
X26052352Y58742701D01*
X26052354Y58742696D01*
X26109950Y58629658D01*
X26199658Y58539950D01*
X26312696Y58482354D01*
X26406481Y58467500D01*
X27993518Y58467501D01*
X27993521Y58467501D01*
X27993522Y58467502D01*
X28040410Y58474928D01*
X28087299Y58482353D01*
X28087299Y58482354D01*
X28087304Y58482354D01*
X28200342Y58539950D01*
X28290050Y58629658D01*
X28347646Y58742696D01*
X28362500Y58836481D01*
X28362500Y58843376D01*
X28728000Y58843376D01*
X28742506Y58770454D01*
X28742507Y58770452D01*
X28797758Y58687763D01*
X28797762Y58687759D01*
X28880451Y58632508D01*
X28880453Y58632507D01*
X28953375Y58618001D01*
X28953377Y58618000D01*
X29485999Y58618000D01*
X29486000Y58618001D01*
X29486000Y59265195D01*
X29544960Y59224996D01*
X29673002Y59185500D01*
X29773312Y59185500D01*
X29872499Y59200450D01*
X29993224Y59258588D01*
X29994000Y59259309D01*
X29994000Y58618001D01*
X29994001Y58618000D01*
X30526623Y58618000D01*
X30526624Y58618001D01*
X30599546Y58632507D01*
X30599548Y58632508D01*
X30682237Y58687759D01*
X30682241Y58687763D01*
X30737492Y58770452D01*
X30737493Y58770454D01*
X30751999Y58843376D01*
X32508000Y58843376D01*
X32522506Y58770454D01*
X32522507Y58770452D01*
X32577758Y58687763D01*
X32577762Y58687759D01*
X32660451Y58632508D01*
X32660453Y58632507D01*
X32733375Y58618001D01*
X32733377Y58618000D01*
X33265999Y58618000D01*
X33266000Y58618001D01*
X33266000Y59265195D01*
X33324960Y59224996D01*
X33453002Y59185500D01*
X33553312Y59185500D01*
X33652499Y59200450D01*
X33773224Y59258588D01*
X33774000Y59259309D01*
X33774000Y58618001D01*
X33774001Y58618000D01*
X34306623Y58618000D01*
X34306624Y58618001D01*
X34379546Y58632507D01*
X34379548Y58632508D01*
X34462237Y58687759D01*
X34462241Y58687763D01*
X34517492Y58770452D01*
X34517493Y58770454D01*
X34530627Y58836479D01*
X34897500Y58836479D01*
X34897501Y58836477D01*
X34912352Y58742701D01*
X34912354Y58742696D01*
X34969950Y58629658D01*
X35059658Y58539950D01*
X35172696Y58482354D01*
X35266481Y58467500D01*
X36853518Y58467501D01*
X36853521Y58467501D01*
X36853522Y58467502D01*
X36900410Y58474928D01*
X36947299Y58482353D01*
X36947299Y58482354D01*
X36947304Y58482354D01*
X37060342Y58539950D01*
X37150050Y58629658D01*
X37207646Y58742696D01*
X37222500Y58836479D01*
X37437500Y58836479D01*
X37437501Y58836477D01*
X37452352Y58742701D01*
X37452354Y58742696D01*
X37509950Y58629658D01*
X37599658Y58539950D01*
X37712696Y58482354D01*
X37806481Y58467500D01*
X37900500Y58467501D01*
X37958690Y58448594D01*
X37994654Y58399095D01*
X37999500Y58368501D01*
X37999500Y57692610D01*
X37999076Y57686142D01*
X37994318Y57650001D01*
X37994318Y57650000D01*
X37999500Y57610639D01*
X38014955Y57493242D01*
X38014957Y57493234D01*
X38075462Y57347162D01*
X38075462Y57347161D01*
X38152521Y57246736D01*
X38171718Y57221718D01*
X38171722Y57221715D01*
X38171723Y57221714D01*
X38200634Y57199530D01*
X38205508Y57195256D01*
X40145255Y55255509D01*
X40149529Y55250635D01*
X40149649Y55250478D01*
X40171718Y55221718D01*
X40251318Y55160639D01*
X40297159Y55125464D01*
X40297160Y55125464D01*
X40297161Y55125463D01*
X40426913Y55071718D01*
X40443238Y55064956D01*
X40554942Y55050250D01*
X40599999Y55044318D01*
X40600000Y55044318D01*
X40600001Y55044318D01*
X40636141Y55049076D01*
X40642609Y55049500D01*
X44327415Y55049500D01*
X44385606Y55030593D01*
X44397412Y55020510D01*
X44397738Y55020184D01*
X44397740Y55020183D01*
X44397741Y55020182D01*
X44549960Y54924536D01*
X44550478Y54924211D01*
X44618657Y54900354D01*
X44720738Y54864634D01*
X44720742Y54864633D01*
X44720745Y54864632D01*
X44900000Y54844435D01*
X45079255Y54864632D01*
X45249522Y54924211D01*
X45402262Y55020184D01*
X45529816Y55147738D01*
X45625789Y55300478D01*
X45685368Y55470745D01*
X45705565Y55650000D01*
X45685368Y55829255D01*
X45625789Y55999522D01*
X45617725Y56012355D01*
X45529818Y56152259D01*
X45529817Y56152260D01*
X45529816Y56152262D01*
X45402262Y56279816D01*
X45402259Y56279818D01*
X45402258Y56279819D01*
X45249523Y56375789D01*
X45079261Y56435367D01*
X45079257Y56435368D01*
X44900000Y56455565D01*
X44720742Y56435368D01*
X44720738Y56435367D01*
X44550477Y56375789D01*
X44550476Y56375789D01*
X44397741Y56279819D01*
X44397738Y56279817D01*
X44397738Y56279816D01*
X44397416Y56279495D01*
X44397192Y56279381D01*
X44393395Y56276352D01*
X44392774Y56277130D01*
X44342902Y56251719D01*
X44327415Y56250500D01*
X40889743Y56250500D01*
X40831552Y56269407D01*
X40819739Y56279496D01*
X39229496Y57869740D01*
X39201719Y57924257D01*
X39200500Y57939744D01*
X39200500Y58368501D01*
X39219407Y58426692D01*
X39268907Y58462656D01*
X39299500Y58467501D01*
X39393521Y58467501D01*
X39393522Y58467502D01*
X39440410Y58474928D01*
X39487299Y58482353D01*
X39487299Y58482354D01*
X39487304Y58482354D01*
X39600342Y58539950D01*
X39690050Y58629658D01*
X39747646Y58742696D01*
X39762500Y58836479D01*
X39977500Y58836479D01*
X39977501Y58836477D01*
X39992352Y58742701D01*
X39992354Y58742696D01*
X40049950Y58629658D01*
X40139658Y58539950D01*
X40252696Y58482354D01*
X40346481Y58467500D01*
X41933518Y58467501D01*
X41933521Y58467501D01*
X41933522Y58467502D01*
X41980410Y58474928D01*
X42027299Y58482353D01*
X42027299Y58482354D01*
X42027304Y58482354D01*
X42140342Y58539950D01*
X42230050Y58629658D01*
X42287646Y58742696D01*
X42302500Y58836481D01*
X42302500Y58843376D01*
X42668000Y58843376D01*
X42682506Y58770454D01*
X42682507Y58770452D01*
X42737758Y58687763D01*
X42737762Y58687759D01*
X42820451Y58632508D01*
X42820453Y58632507D01*
X42893375Y58618001D01*
X42893377Y58618000D01*
X43425999Y58618000D01*
X43426000Y58618001D01*
X43426000Y59265195D01*
X43484960Y59224996D01*
X43613002Y59185500D01*
X43713312Y59185500D01*
X43812499Y59200450D01*
X43933224Y59258588D01*
X43934000Y59259309D01*
X43934000Y58618001D01*
X43934001Y58618000D01*
X44466623Y58618000D01*
X44466624Y58618001D01*
X44539546Y58632507D01*
X44539548Y58632508D01*
X44622237Y58687759D01*
X44622241Y58687763D01*
X44677492Y58770452D01*
X44677493Y58770454D01*
X44691999Y58843376D01*
X44692000Y58843378D01*
X44692000Y59376000D01*
X44046618Y59376000D01*
X44098447Y59465772D01*
X44128264Y59596407D01*
X44118251Y59730028D01*
X44069297Y59854760D01*
X44045979Y59884000D01*
X44691999Y59884000D01*
X44692000Y59884001D01*
X44692000Y60416623D01*
X44691999Y60416625D01*
X44677493Y60489547D01*
X44677492Y60489549D01*
X44622241Y60572238D01*
X44622237Y60572242D01*
X44539548Y60627493D01*
X44539546Y60627494D01*
X44466624Y60642000D01*
X43934001Y60642000D01*
X43934000Y60641999D01*
X43934000Y59994806D01*
X43875040Y60035004D01*
X43746998Y60074500D01*
X43646688Y60074500D01*
X43547501Y60059550D01*
X43426776Y60001412D01*
X43426000Y60000692D01*
X43426000Y60641999D01*
X43425999Y60642000D01*
X42893375Y60642000D01*
X42820453Y60627494D01*
X42820451Y60627493D01*
X42737762Y60572242D01*
X42737758Y60572238D01*
X42682507Y60489549D01*
X42682506Y60489547D01*
X42668000Y60416625D01*
X42668000Y59884001D01*
X42668001Y59884000D01*
X43313382Y59884000D01*
X43261553Y59794228D01*
X43231736Y59663593D01*
X43241749Y59529972D01*
X43290703Y59405240D01*
X43314021Y59376000D01*
X42668001Y59376000D01*
X42668000Y59375999D01*
X42668000Y58843376D01*
X42302500Y58843376D01*
X42302499Y60423518D01*
X42302499Y60423519D01*
X42302499Y60423522D01*
X42302498Y60423524D01*
X42287647Y60517300D01*
X42287646Y60517302D01*
X42287646Y60517304D01*
X42230050Y60630342D01*
X42140342Y60720050D01*
X42027304Y60777646D01*
X42027305Y60777646D01*
X41933521Y60792500D01*
X40346478Y60792500D01*
X40346476Y60792499D01*
X40252700Y60777648D01*
X40252695Y60777646D01*
X40139659Y60720051D01*
X40049949Y60630341D01*
X39992354Y60517305D01*
X39977500Y60423522D01*
X39977500Y58836479D01*
X39762500Y58836479D01*
X39762500Y58836481D01*
X39762499Y60423518D01*
X39762499Y60423519D01*
X39762499Y60423522D01*
X39762498Y60423524D01*
X39747647Y60517300D01*
X39747646Y60517302D01*
X39747646Y60517304D01*
X39690050Y60630342D01*
X39600342Y60720050D01*
X39487304Y60777646D01*
X39487305Y60777646D01*
X39393522Y60792500D01*
X39393519Y60792500D01*
X39299500Y60792500D01*
X39241309Y60811407D01*
X39205345Y60860907D01*
X39200500Y60891500D01*
X39200500Y60908501D01*
X39219407Y60966692D01*
X39268907Y61002656D01*
X39299500Y61007501D01*
X39393521Y61007501D01*
X39393522Y61007502D01*
X39440410Y61014928D01*
X39487299Y61022353D01*
X39487299Y61022354D01*
X39487304Y61022354D01*
X39600342Y61079950D01*
X39690050Y61169658D01*
X39747646Y61282696D01*
X39762500Y61376479D01*
X39977500Y61376479D01*
X39977501Y61376477D01*
X39992352Y61282701D01*
X39992354Y61282696D01*
X40049950Y61169658D01*
X40139658Y61079950D01*
X40252696Y61022354D01*
X40346481Y61007500D01*
X41933518Y61007501D01*
X41933521Y61007501D01*
X41933522Y61007502D01*
X41980410Y61014928D01*
X42027299Y61022353D01*
X42027299Y61022354D01*
X42027304Y61022354D01*
X42140342Y61079950D01*
X42230050Y61169658D01*
X42287646Y61282696D01*
X42302500Y61376481D01*
X42302500Y61383376D01*
X42668000Y61383376D01*
X42682506Y61310454D01*
X42682507Y61310452D01*
X42737758Y61227763D01*
X42737762Y61227759D01*
X42820451Y61172508D01*
X42820453Y61172507D01*
X42893375Y61158001D01*
X42893377Y61158000D01*
X43425999Y61158000D01*
X43426000Y61158002D01*
X43426000Y61805195D01*
X43484960Y61764996D01*
X43613002Y61725500D01*
X43713312Y61725500D01*
X43812499Y61740450D01*
X43933224Y61798588D01*
X43934000Y61799309D01*
X43934000Y61158001D01*
X43934001Y61158000D01*
X44466623Y61158000D01*
X44466624Y61158001D01*
X44539546Y61172507D01*
X44539548Y61172508D01*
X44622237Y61227759D01*
X44622241Y61227763D01*
X44677492Y61310452D01*
X44677493Y61310454D01*
X44691999Y61383376D01*
X44692000Y61383378D01*
X44692000Y61915999D01*
X44691999Y61916000D01*
X44046618Y61916000D01*
X44098447Y62005772D01*
X44128264Y62136407D01*
X44118251Y62270028D01*
X44069297Y62394760D01*
X44045979Y62424000D01*
X44691999Y62424000D01*
X44692000Y62424002D01*
X44692000Y62956623D01*
X44691999Y62956625D01*
X44677493Y63029547D01*
X44677492Y63029549D01*
X44622241Y63112238D01*
X44622237Y63112242D01*
X44539548Y63167493D01*
X44539546Y63167494D01*
X44466624Y63182000D01*
X43934001Y63182000D01*
X43934000Y63181999D01*
X43934000Y62534806D01*
X43875040Y62575004D01*
X43746998Y62614500D01*
X43646688Y62614500D01*
X43547501Y62599550D01*
X43426776Y62541412D01*
X43426000Y62540692D01*
X43426000Y63181999D01*
X43425999Y63182000D01*
X42893375Y63182000D01*
X42820453Y63167494D01*
X42820451Y63167493D01*
X42737762Y63112242D01*
X42737758Y63112238D01*
X42682507Y63029549D01*
X42682506Y63029547D01*
X42668000Y62956625D01*
X42668000Y62424002D01*
X42668001Y62424000D01*
X43313382Y62424000D01*
X43261553Y62334228D01*
X43231736Y62203593D01*
X43241749Y62069972D01*
X43290703Y61945240D01*
X43314021Y61916000D01*
X42668001Y61916000D01*
X42668000Y61915999D01*
X42668000Y61383376D01*
X42302500Y61383376D01*
X42302499Y62963518D01*
X42302499Y62963519D01*
X42302499Y62963522D01*
X42302498Y62963524D01*
X42287647Y63057300D01*
X42287646Y63057302D01*
X42287646Y63057304D01*
X42230050Y63170342D01*
X42140342Y63260050D01*
X42027304Y63317646D01*
X42027305Y63317646D01*
X41933521Y63332500D01*
X40346478Y63332500D01*
X40346476Y63332499D01*
X40252700Y63317648D01*
X40252695Y63317646D01*
X40139659Y63260051D01*
X40049949Y63170341D01*
X39992354Y63057305D01*
X39977500Y62963522D01*
X39977500Y61376479D01*
X39762500Y61376479D01*
X39762500Y61376481D01*
X39762499Y62963518D01*
X39762499Y62963519D01*
X39762499Y62963522D01*
X39762498Y62963524D01*
X39747647Y63057300D01*
X39747646Y63057302D01*
X39747646Y63057304D01*
X39690050Y63170342D01*
X39600342Y63260050D01*
X39487304Y63317646D01*
X39487305Y63317646D01*
X39393521Y63332500D01*
X37806478Y63332500D01*
X37806476Y63332499D01*
X37712700Y63317648D01*
X37712695Y63317646D01*
X37599659Y63260051D01*
X37509949Y63170341D01*
X37452354Y63057305D01*
X37437500Y62963522D01*
X37437500Y61376479D01*
X37437501Y61376477D01*
X37452352Y61282701D01*
X37452354Y61282696D01*
X37509950Y61169658D01*
X37599658Y61079950D01*
X37712696Y61022354D01*
X37806481Y61007500D01*
X37900500Y61007501D01*
X37958690Y60988594D01*
X37994654Y60939095D01*
X37999500Y60908501D01*
X37999500Y60891500D01*
X37980593Y60833309D01*
X37931093Y60797345D01*
X37900501Y60792500D01*
X37806479Y60792500D01*
X37806476Y60792499D01*
X37712700Y60777648D01*
X37712695Y60777646D01*
X37599659Y60720051D01*
X37509949Y60630341D01*
X37452354Y60517305D01*
X37437500Y60423522D01*
X37437500Y58836479D01*
X37222500Y58836479D01*
X37222500Y58836481D01*
X37222499Y60423518D01*
X37222499Y60423519D01*
X37222499Y60423522D01*
X37222498Y60423524D01*
X37207647Y60517300D01*
X37207646Y60517302D01*
X37207646Y60517304D01*
X37150050Y60630342D01*
X37060342Y60720050D01*
X36947304Y60777646D01*
X36947305Y60777646D01*
X36853521Y60792500D01*
X35266478Y60792500D01*
X35266476Y60792499D01*
X35172700Y60777648D01*
X35172695Y60777646D01*
X35059659Y60720051D01*
X34969949Y60630341D01*
X34912354Y60517305D01*
X34897500Y60423522D01*
X34897500Y58836479D01*
X34530627Y58836479D01*
X34531999Y58843376D01*
X34532000Y58843378D01*
X34532000Y59375999D01*
X34531999Y59376000D01*
X33886618Y59376000D01*
X33938447Y59465772D01*
X33968264Y59596407D01*
X33958251Y59730028D01*
X33909297Y59854760D01*
X33885979Y59884000D01*
X34531999Y59884000D01*
X34532000Y59884001D01*
X34532000Y60416623D01*
X34531999Y60416625D01*
X34517493Y60489547D01*
X34517492Y60489549D01*
X34462241Y60572238D01*
X34462237Y60572242D01*
X34379548Y60627493D01*
X34379546Y60627494D01*
X34306624Y60642000D01*
X33774001Y60642000D01*
X33774000Y60641999D01*
X33774000Y59994806D01*
X33715040Y60035004D01*
X33586998Y60074500D01*
X33486688Y60074500D01*
X33387501Y60059550D01*
X33266776Y60001412D01*
X33266000Y60000692D01*
X33266000Y60642000D01*
X32733375Y60642000D01*
X32660453Y60627494D01*
X32660451Y60627493D01*
X32577762Y60572242D01*
X32577758Y60572238D01*
X32522507Y60489549D01*
X32522506Y60489547D01*
X32508000Y60416625D01*
X32508000Y59884001D01*
X32508001Y59884000D01*
X33153382Y59884000D01*
X33101553Y59794228D01*
X33071736Y59663593D01*
X33081749Y59529972D01*
X33130703Y59405240D01*
X33154021Y59376000D01*
X32508001Y59376000D01*
X32508000Y59375999D01*
X32508000Y58843376D01*
X30751999Y58843376D01*
X30752000Y58843378D01*
X30752000Y59375999D01*
X30751999Y59376000D01*
X30106618Y59376000D01*
X30158447Y59465772D01*
X30188264Y59596407D01*
X30178251Y59730028D01*
X30129297Y59854760D01*
X30105979Y59884000D01*
X30751999Y59884000D01*
X30752000Y59884002D01*
X30752000Y60416623D01*
X30751999Y60416625D01*
X30737493Y60489547D01*
X30737492Y60489549D01*
X30682241Y60572238D01*
X30682237Y60572242D01*
X30599548Y60627493D01*
X30599546Y60627494D01*
X30526624Y60642000D01*
X29994000Y60642000D01*
X29994000Y59994806D01*
X29935040Y60035004D01*
X29806998Y60074500D01*
X29706688Y60074500D01*
X29607501Y60059550D01*
X29486776Y60001412D01*
X29486000Y60000692D01*
X29486000Y60641999D01*
X29485999Y60642000D01*
X28953375Y60642000D01*
X28880453Y60627494D01*
X28880451Y60627493D01*
X28797762Y60572242D01*
X28797758Y60572238D01*
X28742507Y60489549D01*
X28742506Y60489547D01*
X28728000Y60416625D01*
X28728000Y59884001D01*
X28728001Y59884000D01*
X29373382Y59884000D01*
X29321553Y59794228D01*
X29291736Y59663593D01*
X29301749Y59529972D01*
X29350703Y59405240D01*
X29374021Y59376000D01*
X28728000Y59376000D01*
X28728000Y58843376D01*
X28362500Y58843376D01*
X28362499Y60423518D01*
X28362499Y60423519D01*
X28362499Y60423522D01*
X28362498Y60423524D01*
X28347647Y60517300D01*
X28347646Y60517302D01*
X28347646Y60517304D01*
X28290050Y60630342D01*
X28200342Y60720050D01*
X28087304Y60777646D01*
X28087305Y60777646D01*
X27993521Y60792500D01*
X26406478Y60792500D01*
X26406476Y60792499D01*
X26312700Y60777648D01*
X26312695Y60777646D01*
X26199659Y60720051D01*
X26109949Y60630341D01*
X26052354Y60517305D01*
X26037500Y60423522D01*
X26037500Y58836479D01*
X25670627Y58836479D01*
X25671999Y58843376D01*
X25672000Y58843378D01*
X25672000Y59376000D01*
X25026618Y59376000D01*
X25078447Y59465772D01*
X25108264Y59596407D01*
X25098251Y59730028D01*
X25049297Y59854760D01*
X25025979Y59884000D01*
X25671999Y59884000D01*
X25672000Y59884001D01*
X25672000Y60416623D01*
X25671999Y60416625D01*
X25657493Y60489547D01*
X25657492Y60489549D01*
X25602241Y60572238D01*
X25602237Y60572242D01*
X25519548Y60627493D01*
X25519546Y60627494D01*
X25446624Y60642000D01*
X24914000Y60642000D01*
X24914000Y59994806D01*
X24855040Y60035004D01*
X24726998Y60074500D01*
X24626688Y60074500D01*
X24527501Y60059550D01*
X24406776Y60001412D01*
X24406000Y60000692D01*
X24406000Y60641999D01*
X24405999Y60642000D01*
X23873375Y60642000D01*
X23800453Y60627494D01*
X23800451Y60627493D01*
X23717762Y60572242D01*
X23717758Y60572238D01*
X23662507Y60489549D01*
X23662506Y60489547D01*
X23648000Y60416625D01*
X23648000Y59884001D01*
X23648001Y59884000D01*
X24293382Y59884000D01*
X24241553Y59794228D01*
X24211736Y59663593D01*
X24221749Y59529972D01*
X24270703Y59405240D01*
X24294021Y59376000D01*
X23648001Y59376000D01*
X23648000Y59375999D01*
X23648000Y58843376D01*
X22252505Y58843376D01*
X22262500Y58906481D01*
X22262499Y60493518D01*
X22262499Y60493519D01*
X22262499Y60493522D01*
X22262498Y60493524D01*
X22247647Y60587300D01*
X22247646Y60587302D01*
X22247646Y60587304D01*
X22190050Y60700342D01*
X22100342Y60790050D01*
X21987304Y60847646D01*
X21987305Y60847646D01*
X21893521Y60862500D01*
X20306478Y60862500D01*
X20306476Y60862499D01*
X20212700Y60847648D01*
X20212695Y60847646D01*
X20099659Y60790051D01*
X20009949Y60700341D01*
X19952354Y60587305D01*
X19937500Y60493522D01*
X19937500Y59827745D01*
X19918593Y59769554D01*
X19908504Y59757741D01*
X17225278Y57074515D01*
X17170761Y57046738D01*
X17166359Y57046142D01*
X17070750Y57035370D01*
X17070738Y57035367D01*
X16900477Y56975789D01*
X16900476Y56975789D01*
X16747741Y56879819D01*
X16620181Y56752259D01*
X16524211Y56599524D01*
X16524211Y56599523D01*
X16464633Y56429262D01*
X16464632Y56429258D01*
X16444435Y56250000D01*
X16464632Y56070743D01*
X16464633Y56070739D01*
X16524211Y55900478D01*
X16524211Y55900477D01*
X16620181Y55747742D01*
X16620184Y55747738D01*
X16747738Y55620184D01*
X16747740Y55620183D01*
X16747741Y55620182D01*
X16779860Y55600000D01*
X16900478Y55524211D01*
X16968657Y55500354D01*
X17070738Y55464634D01*
X17070742Y55464633D01*
X17070745Y55464632D01*
X17250000Y55444435D01*
X17429255Y55464632D01*
X17599522Y55524211D01*
X17752262Y55620184D01*
X17879816Y55747738D01*
X17975789Y55900478D01*
X18035368Y56070745D01*
X18046140Y56166363D01*
X18071444Y56222069D01*
X18074492Y56225259D01*
X19768495Y57919262D01*
X19823013Y57947039D01*
X19883445Y57937468D01*
X19926710Y57894203D01*
X19937500Y57849258D01*
X19937500Y57287744D01*
X19918593Y57229553D01*
X19908504Y57217740D01*
X17405510Y54714747D01*
X17400638Y54710475D01*
X17371719Y54688283D01*
X17371712Y54688276D01*
X17347550Y54656786D01*
X17275464Y54562843D01*
X17275462Y54562839D01*
X17214957Y54416767D01*
X17214955Y54416759D01*
X17194318Y54260001D01*
X17194318Y54260000D01*
X17199076Y54223860D01*
X17199500Y54217392D01*
X17199500Y52561500D01*
X17180593Y52503309D01*
X17131093Y52467345D01*
X17100500Y52462500D01*
X15706478Y52462500D01*
X15706476Y52462499D01*
X15612700Y52447648D01*
X15612695Y52447646D01*
X15499659Y52390051D01*
X15409949Y52300341D01*
X15352354Y52187305D01*
X15337500Y52093522D01*
X15337500Y50506479D01*
X15351991Y50414986D01*
X15342419Y50354554D01*
X15299154Y50311290D01*
X15254210Y50300500D01*
X15047688Y50300500D01*
X14989497Y50319407D01*
X14953533Y50368907D01*
X14953533Y50430093D01*
X14956222Y50437380D01*
X14957492Y50440449D01*
X14971999Y50513376D01*
X14972000Y50513378D01*
X14972000Y51045999D01*
X14971999Y51046000D01*
X14326618Y51046000D01*
X14378447Y51135772D01*
X14408264Y51266407D01*
X14398251Y51400028D01*
X14349297Y51524760D01*
X14325979Y51554000D01*
X14971999Y51554000D01*
X14972000Y51554001D01*
X14972000Y52086623D01*
X14971999Y52086625D01*
X14957493Y52159547D01*
X14957492Y52159549D01*
X14902241Y52242238D01*
X14902237Y52242242D01*
X14819548Y52297493D01*
X14819546Y52297494D01*
X14746624Y52312000D01*
X14214001Y52312000D01*
X14214000Y52311999D01*
X14214000Y51664806D01*
X14155040Y51705004D01*
X14026998Y51744500D01*
X13926688Y51744500D01*
X13827501Y51729550D01*
X13706776Y51671412D01*
X13706000Y51670692D01*
X13706000Y52311999D01*
X13705999Y52312000D01*
X13173375Y52312000D01*
X13100453Y52297494D01*
X13100451Y52297493D01*
X13017762Y52242242D01*
X13017758Y52242238D01*
X12962507Y52159549D01*
X12962506Y52159547D01*
X12948000Y52086625D01*
X12948000Y51554001D01*
X12948001Y51554000D01*
X13593382Y51554000D01*
X13541553Y51464228D01*
X13511736Y51333593D01*
X13521749Y51199972D01*
X13570703Y51075240D01*
X13594021Y51046000D01*
X12948001Y51046000D01*
X12948000Y51045999D01*
X12948000Y50513376D01*
X12582500Y50513376D01*
X12582499Y52093518D01*
X12582499Y52093519D01*
X12582499Y52093522D01*
X12582498Y52093524D01*
X12567647Y52187300D01*
X12567646Y52187302D01*
X12567646Y52187304D01*
X12510050Y52300342D01*
X12420342Y52390050D01*
X12307304Y52447646D01*
X12307305Y52447646D01*
X12213521Y52462500D01*
X10626478Y52462500D01*
X10626476Y52462499D01*
X10532700Y52447648D01*
X10532695Y52447646D01*
X10419659Y52390051D01*
X10329949Y52300341D01*
X10272354Y52187305D01*
X10257500Y52093522D01*
X10257500Y50506479D01*
X10042500Y50506479D01*
X10042500Y50506481D01*
X10042499Y52093518D01*
X10042499Y52093519D01*
X10042499Y52093522D01*
X10042498Y52093524D01*
X10027647Y52187300D01*
X10027646Y52187302D01*
X10027646Y52187304D01*
X9970050Y52300342D01*
X9880342Y52390050D01*
X9767304Y52447646D01*
X9767305Y52447646D01*
X9673521Y52462500D01*
X8086478Y52462500D01*
X8086476Y52462499D01*
X7992700Y52447648D01*
X7992695Y52447646D01*
X7879659Y52390051D01*
X7789949Y52300341D01*
X7732354Y52187305D01*
X7717500Y52093522D01*
X7717500Y50506479D01*
X7502500Y50506479D01*
X7502500Y50506481D01*
X7502499Y52093518D01*
X7502499Y52093519D01*
X7502499Y52093522D01*
X7502498Y52093524D01*
X7487647Y52187300D01*
X7487646Y52187302D01*
X7487646Y52187304D01*
X7430050Y52300342D01*
X7340342Y52390050D01*
X7227304Y52447646D01*
X7227305Y52447646D01*
X7133521Y52462500D01*
X5546478Y52462500D01*
X5546476Y52462499D01*
X5452700Y52447648D01*
X5452695Y52447646D01*
X5339659Y52390051D01*
X5249949Y52300341D01*
X5192354Y52187305D01*
X5177500Y52093522D01*
X5177500Y50506479D01*
X4962500Y50506479D01*
X4962500Y50506481D01*
X4962499Y52093518D01*
X4962499Y52093519D01*
X4962499Y52093522D01*
X4962498Y52093524D01*
X4947647Y52187300D01*
X4947646Y52187302D01*
X4947646Y52187304D01*
X4890050Y52300342D01*
X4800342Y52390050D01*
X4687304Y52447646D01*
X4687305Y52447646D01*
X4593521Y52462500D01*
X3006478Y52462500D01*
X3006476Y52462499D01*
X2912700Y52447648D01*
X2912695Y52447646D01*
X2799659Y52390051D01*
X2709949Y52300341D01*
X2652354Y52187305D01*
X2637500Y52093522D01*
X2637500Y50506479D01*
X2422500Y50506479D01*
X2422500Y50506481D01*
X2422499Y52093518D01*
X2422499Y52093519D01*
X2422499Y52093522D01*
X2422498Y52093524D01*
X2407647Y52187300D01*
X2407646Y52187302D01*
X2407646Y52187304D01*
X2350050Y52300342D01*
X2260342Y52390050D01*
X2147304Y52447646D01*
X2147305Y52447646D01*
X2053521Y52462500D01*
X466478Y52462500D01*
X466476Y52462499D01*
X372700Y52447648D01*
X372695Y52447646D01*
X259659Y52390051D01*
X169949Y52300341D01*
X112354Y52187305D01*
X97500Y52093522D01*
X97500Y50506479D01*
X-2399501Y50506479D01*
X-2399501Y52210258D01*
X-2380594Y52268448D01*
X-2370505Y52280261D01*
X819739Y55470504D01*
X874256Y55498281D01*
X889743Y55499500D01*
X8557391Y55499500D01*
X8563859Y55499076D01*
X8599999Y55494318D01*
X8600000Y55494318D01*
X8600001Y55494318D01*
X8639361Y55499500D01*
X8756762Y55514956D01*
X8902841Y55575464D01*
X8971675Y55628282D01*
X9028282Y55671718D01*
X9050475Y55700643D01*
X9054744Y55705510D01*
X11334490Y57985256D01*
X11339357Y57989525D01*
X11368282Y58011718D01*
X11464536Y58137159D01*
X11525044Y58283238D01*
X11537970Y58381424D01*
X11564311Y58436648D01*
X11618081Y58465843D01*
X11636123Y58467501D01*
X11733521Y58467501D01*
X11733522Y58467502D01*
X11780410Y58474928D01*
X11827299Y58482353D01*
X11827299Y58482354D01*
X11827304Y58482354D01*
X11940342Y58539950D01*
X12030050Y58629658D01*
X12087646Y58742696D01*
X12102500Y58836479D01*
X13317500Y58836479D01*
X13317501Y58836477D01*
X13332352Y58742701D01*
X13332354Y58742696D01*
X13389950Y58629658D01*
X13479658Y58539950D01*
X13592696Y58482354D01*
X13686481Y58467500D01*
X15273518Y58467501D01*
X15273521Y58467501D01*
X15273522Y58467502D01*
X15320410Y58474928D01*
X15367299Y58482353D01*
X15367299Y58482354D01*
X15367304Y58482354D01*
X15480342Y58539950D01*
X15570050Y58629658D01*
X15627646Y58742696D01*
X15642500Y58836479D01*
X15857500Y58836479D01*
X15857501Y58836477D01*
X15872352Y58742701D01*
X15872354Y58742696D01*
X15929950Y58629658D01*
X16019658Y58539950D01*
X16132696Y58482354D01*
X16226481Y58467500D01*
X17813518Y58467501D01*
X17813521Y58467501D01*
X17813522Y58467502D01*
X17860410Y58474928D01*
X17907299Y58482353D01*
X17907299Y58482354D01*
X17907304Y58482354D01*
X18020342Y58539950D01*
X18110050Y58629658D01*
X18167646Y58742696D01*
X18182500Y58836481D01*
X18182499Y60423518D01*
X18182499Y60423519D01*
X18182499Y60423522D01*
X18182498Y60423524D01*
X18167647Y60517300D01*
X18167646Y60517302D01*
X18167646Y60517304D01*
X18110050Y60630342D01*
X18020342Y60720050D01*
X17907304Y60777646D01*
X17907305Y60777646D01*
X17813522Y60792500D01*
X17813519Y60792500D01*
X17719500Y60792500D01*
X17661309Y60811407D01*
X17625345Y60860907D01*
X17620500Y60891500D01*
X17620500Y60908501D01*
X17639407Y60966692D01*
X17688907Y61002656D01*
X17719500Y61007501D01*
X17813521Y61007501D01*
X17813522Y61007502D01*
X17860410Y61014928D01*
X17907299Y61022353D01*
X17907299Y61022354D01*
X17907304Y61022354D01*
X18020342Y61079950D01*
X18110050Y61169658D01*
X18167646Y61282696D01*
X18182500Y61376481D01*
X18182500Y61453376D01*
X20088000Y61453376D01*
X20102506Y61380454D01*
X20102507Y61380452D01*
X20157758Y61297763D01*
X20157762Y61297759D01*
X20240451Y61242508D01*
X20240453Y61242507D01*
X20313375Y61228001D01*
X20313377Y61228000D01*
X20845999Y61228000D01*
X20846000Y61228001D01*
X20846000Y61875195D01*
X20904960Y61834996D01*
X21033002Y61795500D01*
X21133312Y61795500D01*
X21232499Y61810450D01*
X21353224Y61868588D01*
X21354000Y61869309D01*
X21354000Y61228001D01*
X21354001Y61228000D01*
X21886623Y61228000D01*
X21886624Y61228001D01*
X21959546Y61242507D01*
X21959548Y61242508D01*
X22042237Y61297759D01*
X22042241Y61297763D01*
X22097492Y61380452D01*
X22097493Y61380454D01*
X22098074Y61383376D01*
X23648000Y61383376D01*
X23662506Y61310454D01*
X23662507Y61310452D01*
X23717758Y61227763D01*
X23717762Y61227759D01*
X23800451Y61172508D01*
X23800453Y61172507D01*
X23873375Y61158001D01*
X23873377Y61158000D01*
X24405999Y61158000D01*
X24406000Y61158001D01*
X24406000Y61805195D01*
X24464960Y61764996D01*
X24593002Y61725500D01*
X24693312Y61725500D01*
X24792499Y61740450D01*
X24913224Y61798588D01*
X24914000Y61799309D01*
X24914000Y61158001D01*
X24914001Y61158000D01*
X25446623Y61158000D01*
X25446624Y61158001D01*
X25519546Y61172507D01*
X25519548Y61172508D01*
X25602237Y61227759D01*
X25602241Y61227763D01*
X25657492Y61310452D01*
X25657493Y61310454D01*
X25670627Y61376479D01*
X26037500Y61376479D01*
X26037501Y61376477D01*
X26052352Y61282701D01*
X26052354Y61282696D01*
X26109950Y61169658D01*
X26199658Y61079950D01*
X26312696Y61022354D01*
X26406481Y61007500D01*
X27993518Y61007501D01*
X27993521Y61007501D01*
X27993522Y61007502D01*
X28040410Y61014928D01*
X28087299Y61022353D01*
X28087299Y61022354D01*
X28087304Y61022354D01*
X28200342Y61079950D01*
X28290050Y61169658D01*
X28347646Y61282696D01*
X28362500Y61376481D01*
X28362500Y61383376D01*
X28728000Y61383376D01*
X28742506Y61310454D01*
X28742507Y61310452D01*
X28797758Y61227763D01*
X28797762Y61227759D01*
X28880451Y61172508D01*
X28880453Y61172507D01*
X28953375Y61158001D01*
X28953377Y61158000D01*
X29485999Y61158000D01*
X29486000Y61158001D01*
X29486000Y61805195D01*
X29544960Y61764996D01*
X29673002Y61725500D01*
X29773312Y61725500D01*
X29872499Y61740450D01*
X29993224Y61798588D01*
X29994000Y61799309D01*
X29994000Y61158001D01*
X29994001Y61158000D01*
X30526623Y61158000D01*
X30526624Y61158001D01*
X30599546Y61172507D01*
X30599548Y61172508D01*
X30682237Y61227759D01*
X30682241Y61227763D01*
X30737492Y61310452D01*
X30737493Y61310454D01*
X30751999Y61383376D01*
X32508000Y61383376D01*
X32522506Y61310454D01*
X32522507Y61310452D01*
X32577758Y61227763D01*
X32577762Y61227759D01*
X32660451Y61172508D01*
X32660453Y61172507D01*
X32733375Y61158001D01*
X32733377Y61158000D01*
X33265999Y61158000D01*
X33266000Y61158001D01*
X33266000Y61805195D01*
X33324960Y61764996D01*
X33453002Y61725500D01*
X33553312Y61725500D01*
X33652499Y61740450D01*
X33773224Y61798588D01*
X33774000Y61799309D01*
X33774000Y61158001D01*
X33774001Y61158000D01*
X34306623Y61158000D01*
X34306624Y61158001D01*
X34379546Y61172507D01*
X34379548Y61172508D01*
X34462237Y61227759D01*
X34462241Y61227763D01*
X34517492Y61310452D01*
X34517493Y61310454D01*
X34530627Y61376479D01*
X34897500Y61376479D01*
X34897501Y61376477D01*
X34912352Y61282701D01*
X34912354Y61282696D01*
X34969950Y61169658D01*
X35059658Y61079950D01*
X35172696Y61022354D01*
X35266481Y61007500D01*
X36853518Y61007501D01*
X36853521Y61007501D01*
X36853522Y61007502D01*
X36900410Y61014928D01*
X36947299Y61022353D01*
X36947299Y61022354D01*
X36947304Y61022354D01*
X37060342Y61079950D01*
X37150050Y61169658D01*
X37207646Y61282696D01*
X37222500Y61376481D01*
X37222499Y62963518D01*
X37222499Y62963519D01*
X37222499Y62963522D01*
X37222498Y62963524D01*
X37207647Y63057300D01*
X37207646Y63057302D01*
X37207646Y63057304D01*
X37150050Y63170342D01*
X37060342Y63260050D01*
X36947304Y63317646D01*
X36947305Y63317646D01*
X36853521Y63332500D01*
X35266478Y63332500D01*
X35266476Y63332499D01*
X35172700Y63317648D01*
X35172695Y63317646D01*
X35059659Y63260051D01*
X34969949Y63170341D01*
X34912354Y63057305D01*
X34897500Y62963522D01*
X34897500Y61376479D01*
X34530627Y61376479D01*
X34531999Y61383376D01*
X34532000Y61383378D01*
X34532000Y61915999D01*
X34531999Y61916000D01*
X33886618Y61916000D01*
X33938447Y62005772D01*
X33968264Y62136407D01*
X33958251Y62270028D01*
X33909297Y62394760D01*
X33885979Y62424000D01*
X34531999Y62424000D01*
X34532000Y62424002D01*
X34532000Y62956623D01*
X34531999Y62956625D01*
X34517493Y63029547D01*
X34517492Y63029549D01*
X34462241Y63112238D01*
X34462237Y63112242D01*
X34379548Y63167493D01*
X34379546Y63167494D01*
X34306624Y63182000D01*
X33774000Y63182000D01*
X33774000Y62534806D01*
X33715040Y62575004D01*
X33586998Y62614500D01*
X33486688Y62614500D01*
X33387501Y62599550D01*
X33266776Y62541412D01*
X33266000Y62540692D01*
X33266000Y63182000D01*
X32733375Y63182000D01*
X32660453Y63167494D01*
X32660451Y63167493D01*
X32577762Y63112242D01*
X32577758Y63112238D01*
X32522507Y63029549D01*
X32522506Y63029547D01*
X32508000Y62956625D01*
X32508000Y62424002D01*
X32508001Y62424000D01*
X33153382Y62424000D01*
X33101553Y62334228D01*
X33071736Y62203593D01*
X33081749Y62069972D01*
X33130703Y61945240D01*
X33154021Y61916000D01*
X32508001Y61916000D01*
X32508000Y61915999D01*
X32508000Y61383376D01*
X30751999Y61383376D01*
X30752000Y61383378D01*
X30752000Y61915999D01*
X30751999Y61916000D01*
X30106618Y61916000D01*
X30158447Y62005772D01*
X30188264Y62136407D01*
X30178251Y62270028D01*
X30129297Y62394760D01*
X30105979Y62424000D01*
X30751999Y62424000D01*
X30752000Y62424002D01*
X30752000Y62956623D01*
X30751999Y62956625D01*
X30737493Y63029547D01*
X30737492Y63029549D01*
X30682241Y63112238D01*
X30682237Y63112242D01*
X30599548Y63167493D01*
X30599546Y63167494D01*
X30526624Y63182000D01*
X29994001Y63182000D01*
X29994000Y63181999D01*
X29994000Y62534806D01*
X29935040Y62575004D01*
X29806998Y62614500D01*
X29706688Y62614500D01*
X29607501Y62599550D01*
X29486776Y62541412D01*
X29486000Y62540692D01*
X29486000Y63181999D01*
X29485999Y63182000D01*
X28953375Y63182000D01*
X28880453Y63167494D01*
X28880451Y63167493D01*
X28797762Y63112242D01*
X28797758Y63112238D01*
X28742507Y63029549D01*
X28742506Y63029547D01*
X28728000Y62956625D01*
X28728000Y62424001D01*
X28728001Y62424000D01*
X29373382Y62424000D01*
X29321553Y62334228D01*
X29291736Y62203593D01*
X29301749Y62069972D01*
X29350703Y61945240D01*
X29374021Y61916000D01*
X28728001Y61916000D01*
X28728000Y61915999D01*
X28728000Y61383376D01*
X28362500Y61383376D01*
X28362499Y62963518D01*
X28362499Y62963519D01*
X28362499Y62963522D01*
X28362498Y62963524D01*
X28347647Y63057300D01*
X28347646Y63057302D01*
X28347646Y63057304D01*
X28290050Y63170342D01*
X28200342Y63260050D01*
X28087304Y63317646D01*
X28087305Y63317646D01*
X27993521Y63332500D01*
X26406478Y63332500D01*
X26406476Y63332499D01*
X26312700Y63317648D01*
X26312695Y63317646D01*
X26199659Y63260051D01*
X26109949Y63170341D01*
X26052354Y63057305D01*
X26037500Y62963522D01*
X26037500Y61376479D01*
X25670627Y61376479D01*
X25671999Y61383376D01*
X25672000Y61383378D01*
X25672000Y61915999D01*
X25671999Y61916000D01*
X25026618Y61916000D01*
X25078447Y62005772D01*
X25108264Y62136407D01*
X25098251Y62270028D01*
X25049297Y62394760D01*
X25025979Y62424000D01*
X25671999Y62424000D01*
X25672000Y62424002D01*
X25672000Y62956623D01*
X25671999Y62956625D01*
X25657493Y63029547D01*
X25657492Y63029549D01*
X25602241Y63112238D01*
X25602237Y63112242D01*
X25519548Y63167493D01*
X25519546Y63167494D01*
X25446624Y63182000D01*
X24914001Y63182000D01*
X24914000Y63181999D01*
X24914000Y62534806D01*
X24855040Y62575004D01*
X24726998Y62614500D01*
X24626688Y62614500D01*
X24527501Y62599550D01*
X24406776Y62541412D01*
X24406000Y62540692D01*
X24406000Y63181999D01*
X24405999Y63182000D01*
X23873375Y63182000D01*
X23800453Y63167494D01*
X23800451Y63167493D01*
X23717762Y63112242D01*
X23717758Y63112238D01*
X23662507Y63029549D01*
X23662506Y63029547D01*
X23648000Y62956625D01*
X23648000Y62424002D01*
X23648001Y62424000D01*
X24293382Y62424000D01*
X24241553Y62334228D01*
X24211736Y62203593D01*
X24221749Y62069972D01*
X24270703Y61945240D01*
X24294021Y61916000D01*
X23648001Y61916000D01*
X23648000Y61915999D01*
X23648000Y61383376D01*
X22098074Y61383376D01*
X22111999Y61453376D01*
X22112000Y61453378D01*
X22112000Y61986000D01*
X21466618Y61986000D01*
X21518447Y62075772D01*
X21548264Y62206407D01*
X21538251Y62340028D01*
X21489297Y62464760D01*
X21465979Y62494000D01*
X22111999Y62494000D01*
X22112000Y62494002D01*
X22112000Y63026623D01*
X22111999Y63026625D01*
X22097493Y63099547D01*
X22097492Y63099549D01*
X22042241Y63182238D01*
X22042237Y63182242D01*
X21959548Y63237493D01*
X21959546Y63237494D01*
X21886624Y63252000D01*
X21354000Y63252000D01*
X21354000Y62604806D01*
X21295040Y62645004D01*
X21166998Y62684500D01*
X21066688Y62684500D01*
X20967501Y62669550D01*
X20846776Y62611412D01*
X20846000Y62610692D01*
X20846000Y63252000D01*
X20313375Y63252000D01*
X20240453Y63237494D01*
X20240451Y63237493D01*
X20157762Y63182242D01*
X20157758Y63182238D01*
X20102507Y63099549D01*
X20102506Y63099547D01*
X20088000Y63026625D01*
X20088000Y62494001D01*
X20088001Y62494000D01*
X20733382Y62494000D01*
X20681553Y62404228D01*
X20651736Y62273593D01*
X20661749Y62139972D01*
X20710703Y62015240D01*
X20734021Y61986000D01*
X20088000Y61986000D01*
X20088000Y61453376D01*
X18182500Y61453376D01*
X18182499Y62963518D01*
X18182499Y62963519D01*
X18182499Y62963522D01*
X18182498Y62963524D01*
X18167647Y63057300D01*
X18167646Y63057302D01*
X18167646Y63057304D01*
X18110050Y63170342D01*
X18020342Y63260050D01*
X17907304Y63317646D01*
X17907305Y63317646D01*
X17813521Y63332500D01*
X16226478Y63332500D01*
X16226476Y63332499D01*
X16132700Y63317648D01*
X16132695Y63317646D01*
X16019659Y63260051D01*
X15929949Y63170341D01*
X15872354Y63057305D01*
X15857500Y62963522D01*
X15857500Y61376479D01*
X15857501Y61376477D01*
X15872352Y61282701D01*
X15872354Y61282696D01*
X15929950Y61169658D01*
X16019658Y61079950D01*
X16132696Y61022354D01*
X16226481Y61007500D01*
X16320500Y61007501D01*
X16378690Y60988594D01*
X16414654Y60939095D01*
X16419500Y60908501D01*
X16419500Y60891500D01*
X16400593Y60833309D01*
X16351093Y60797345D01*
X16320501Y60792500D01*
X16226479Y60792500D01*
X16226476Y60792499D01*
X16132700Y60777648D01*
X16132695Y60777646D01*
X16019659Y60720051D01*
X15929949Y60630341D01*
X15872354Y60517305D01*
X15857500Y60423522D01*
X15857500Y58836479D01*
X15642500Y58836479D01*
X15642500Y58836481D01*
X15642499Y60423518D01*
X15642499Y60423519D01*
X15642499Y60423522D01*
X15642498Y60423524D01*
X15627647Y60517300D01*
X15627646Y60517302D01*
X15627646Y60517304D01*
X15570050Y60630342D01*
X15480342Y60720050D01*
X15367304Y60777646D01*
X15367305Y60777646D01*
X15273521Y60792500D01*
X13686478Y60792500D01*
X13686476Y60792499D01*
X13592700Y60777648D01*
X13592695Y60777646D01*
X13479659Y60720051D01*
X13389949Y60630341D01*
X13332354Y60517305D01*
X13317500Y60423522D01*
X13317500Y58836479D01*
X12102500Y58836479D01*
X12102500Y58836481D01*
X12102499Y60423518D01*
X12102499Y60423519D01*
X12102499Y60423522D01*
X12102498Y60423524D01*
X12087647Y60517300D01*
X12087646Y60517302D01*
X12087646Y60517304D01*
X12030050Y60630342D01*
X11940342Y60720050D01*
X11827304Y60777646D01*
X11827305Y60777646D01*
X11733522Y60792500D01*
X11733519Y60792500D01*
X11639500Y60792500D01*
X11581309Y60811407D01*
X11545345Y60860907D01*
X11540500Y60891500D01*
X11540500Y60908501D01*
X11559407Y60966692D01*
X11608907Y61002656D01*
X11639500Y61007501D01*
X11733521Y61007501D01*
X11733522Y61007502D01*
X11780410Y61014928D01*
X11827299Y61022353D01*
X11827299Y61022354D01*
X11827304Y61022354D01*
X11940342Y61079950D01*
X12030050Y61169658D01*
X12087646Y61282696D01*
X12102500Y61376479D01*
X13317500Y61376479D01*
X13317501Y61376477D01*
X13332352Y61282701D01*
X13332354Y61282696D01*
X13389950Y61169658D01*
X13479658Y61079950D01*
X13592696Y61022354D01*
X13686481Y61007500D01*
X15273518Y61007501D01*
X15273521Y61007501D01*
X15273522Y61007502D01*
X15320410Y61014928D01*
X15367299Y61022353D01*
X15367299Y61022354D01*
X15367304Y61022354D01*
X15480342Y61079950D01*
X15570050Y61169658D01*
X15627646Y61282696D01*
X15642500Y61376481D01*
X15642499Y62963518D01*
X15642499Y62963519D01*
X15642499Y62963522D01*
X15642498Y62963524D01*
X15627647Y63057300D01*
X15627646Y63057302D01*
X15627646Y63057304D01*
X15570050Y63170342D01*
X15480342Y63260050D01*
X15367304Y63317646D01*
X15367305Y63317646D01*
X15273521Y63332500D01*
X13686478Y63332500D01*
X13686476Y63332499D01*
X13592700Y63317648D01*
X13592695Y63317646D01*
X13479659Y63260051D01*
X13389949Y63170341D01*
X13332354Y63057305D01*
X13317500Y62963522D01*
X13317500Y61376479D01*
X12102500Y61376479D01*
X12102500Y61376481D01*
X12102499Y62963518D01*
X12102499Y62963519D01*
X12102499Y62963522D01*
X12102498Y62963524D01*
X12087647Y63057300D01*
X12087646Y63057302D01*
X12087646Y63057304D01*
X12030050Y63170342D01*
X11940342Y63260050D01*
X11827304Y63317646D01*
X11827305Y63317646D01*
X11733521Y63332500D01*
X10146478Y63332500D01*
X10146476Y63332499D01*
X10052700Y63317648D01*
X10052695Y63317646D01*
X9939659Y63260051D01*
X9849949Y63170341D01*
X9792354Y63057305D01*
X9777500Y62963522D01*
X9777500Y61376479D01*
X9777501Y61376477D01*
X9792352Y61282701D01*
X9792354Y61282696D01*
X9849950Y61169658D01*
X9939658Y61079950D01*
X10052696Y61022354D01*
X10146481Y61007500D01*
X10240499Y61007501D01*
X10298689Y60988594D01*
X10334653Y60939095D01*
X10339499Y60908507D01*
X10339500Y60891506D01*
X10320596Y60833314D01*
X10271098Y60797347D01*
X10240501Y60792500D01*
X10146479Y60792500D01*
X10146476Y60792499D01*
X10052700Y60777648D01*
X10052695Y60777646D01*
X9939659Y60720051D01*
X9849949Y60630341D01*
X9792354Y60517305D01*
X9777500Y60423522D01*
X9777500Y58836479D01*
X9777501Y58836477D01*
X9792352Y58742701D01*
X9792354Y58742696D01*
X9849950Y58629658D01*
X9939658Y58539950D01*
X9973575Y58522668D01*
X9984562Y58517070D01*
X10027826Y58473805D01*
X10037397Y58413373D01*
X10009620Y58358857D01*
X8380261Y56729496D01*
X8325744Y56701719D01*
X8310257Y56700500D01*
X642609Y56700500D01*
X636141Y56700924D01*
X600001Y56705682D01*
X600000Y56705682D01*
X560639Y56700500D01*
X443241Y56685045D01*
X443233Y56685043D01*
X297161Y56624538D01*
X297160Y56624538D01*
X171723Y56528287D01*
X171715Y56528279D01*
X149526Y56499362D01*
X145253Y56494490D01*
X-3394490Y52954747D01*
X-3399362Y52950475D01*
X-3428281Y52928283D01*
X-3428287Y52928277D01*
X-3515240Y52814958D01*
X-3515239Y52814957D01*
X-3524536Y52802842D01*
X-3524537Y52802840D01*
X-3551086Y52738744D01*
X-3580082Y52668740D01*
X-3585043Y52656764D01*
X-3585045Y52656759D01*
X-3605682Y52500001D01*
X-3605682Y52499997D01*
X-3600925Y52463858D01*
X-3600501Y52457391D01*
X-3600501Y26042611D01*
X-3600925Y26036144D01*
X-3605682Y26000005D01*
X-3605682Y26000000D01*
X-4479500Y26000000D01*
X-4479500Y58836479D01*
X4697500Y58836479D01*
X4697501Y58836477D01*
X4712352Y58742701D01*
X4712354Y58742696D01*
X4769950Y58629658D01*
X4859658Y58539950D01*
X4972696Y58482354D01*
X5066481Y58467500D01*
X6653518Y58467501D01*
X6653521Y58467501D01*
X6653522Y58467502D01*
X6700410Y58474928D01*
X6747299Y58482353D01*
X6747299Y58482354D01*
X6747304Y58482354D01*
X6860342Y58539950D01*
X6950050Y58629658D01*
X7007646Y58742696D01*
X7022500Y58836479D01*
X7237500Y58836479D01*
X7237501Y58836477D01*
X7252352Y58742701D01*
X7252354Y58742696D01*
X7309950Y58629658D01*
X7399658Y58539950D01*
X7512696Y58482354D01*
X7606481Y58467500D01*
X9193518Y58467501D01*
X9193521Y58467501D01*
X9193522Y58467502D01*
X9240410Y58474928D01*
X9287299Y58482353D01*
X9287299Y58482354D01*
X9287304Y58482354D01*
X9400342Y58539950D01*
X9490050Y58629658D01*
X9547646Y58742696D01*
X9562500Y58836481D01*
X9562499Y60423518D01*
X9562499Y60423519D01*
X9562499Y60423522D01*
X9562498Y60423524D01*
X9547647Y60517300D01*
X9547646Y60517302D01*
X9547646Y60517304D01*
X9490050Y60630342D01*
X9400342Y60720050D01*
X9287304Y60777646D01*
X9287305Y60777646D01*
X9193521Y60792500D01*
X7606478Y60792500D01*
X7606476Y60792499D01*
X7512700Y60777648D01*
X7512695Y60777646D01*
X7399659Y60720051D01*
X7309949Y60630341D01*
X7252354Y60517305D01*
X7237500Y60423522D01*
X7237500Y58836479D01*
X7022500Y58836479D01*
X7022500Y58836481D01*
X7022499Y60423518D01*
X7022499Y60423519D01*
X7022499Y60423522D01*
X7022498Y60423524D01*
X7007647Y60517300D01*
X7007646Y60517302D01*
X7007646Y60517304D01*
X6950050Y60630342D01*
X6860342Y60720050D01*
X6747304Y60777646D01*
X6747305Y60777646D01*
X6653521Y60792500D01*
X5066478Y60792500D01*
X5066476Y60792499D01*
X4972700Y60777648D01*
X4972695Y60777646D01*
X4859659Y60720051D01*
X4769949Y60630341D01*
X4712354Y60517305D01*
X4697500Y60423522D01*
X4697500Y58836479D01*
X-4479500Y58836479D01*
X-4479500Y61376479D01*
X4697500Y61376479D01*
X4697501Y61376477D01*
X4712352Y61282701D01*
X4712354Y61282696D01*
X4769950Y61169658D01*
X4859658Y61079950D01*
X4972696Y61022354D01*
X5066481Y61007500D01*
X6653518Y61007501D01*
X6653521Y61007501D01*
X6653522Y61007502D01*
X6700410Y61014928D01*
X6747299Y61022353D01*
X6747299Y61022354D01*
X6747304Y61022354D01*
X6860342Y61079950D01*
X6950050Y61169658D01*
X7007646Y61282696D01*
X7022500Y61376479D01*
X7237500Y61376479D01*
X7237501Y61376477D01*
X7252352Y61282701D01*
X7252354Y61282696D01*
X7309950Y61169658D01*
X7399658Y61079950D01*
X7512696Y61022354D01*
X7606481Y61007500D01*
X9193518Y61007501D01*
X9193521Y61007501D01*
X9193522Y61007502D01*
X9240410Y61014928D01*
X9287299Y61022353D01*
X9287299Y61022354D01*
X9287304Y61022354D01*
X9400342Y61079950D01*
X9490050Y61169658D01*
X9547646Y61282696D01*
X9562500Y61376481D01*
X9562499Y62963518D01*
X9562499Y62963519D01*
X9562499Y62963522D01*
X9562498Y62963524D01*
X9547647Y63057300D01*
X9547646Y63057302D01*
X9547646Y63057304D01*
X9490050Y63170342D01*
X9400342Y63260050D01*
X9287304Y63317646D01*
X9287305Y63317646D01*
X9193521Y63332500D01*
X7606478Y63332500D01*
X7606476Y63332499D01*
X7512700Y63317648D01*
X7512695Y63317646D01*
X7399659Y63260051D01*
X7309949Y63170341D01*
X7252354Y63057305D01*
X7237500Y62963522D01*
X7237500Y61376479D01*
X7022500Y61376479D01*
X7022500Y61376481D01*
X7022499Y62963518D01*
X7022499Y62963519D01*
X7022499Y62963522D01*
X7022498Y62963524D01*
X7007647Y63057300D01*
X7007646Y63057302D01*
X7007646Y63057304D01*
X6950050Y63170342D01*
X6860342Y63260050D01*
X6747304Y63317646D01*
X6747305Y63317646D01*
X6653521Y63332500D01*
X5066478Y63332500D01*
X5066476Y63332499D01*
X4972700Y63317648D01*
X4972695Y63317646D01*
X4859659Y63260051D01*
X4769949Y63170341D01*
X4712354Y63057305D01*
X4697500Y62963522D01*
X4697500Y61376479D01*
X-4479500Y61376479D01*
X-4479500Y65340500D01*
X-4460593Y65398691D01*
X-4411093Y65434655D01*
X-4380500Y65439500D01*
X55180500Y65439500D01*
X55238691Y65420593D01*
G37*
%TD.AperFunction*%
%TD*%
M02*
