%TF.GenerationSoftware,KiCad,Pcbnew,7.0.5.1-1-g8f565ef7f0-dirty-deb11*%
%TF.CreationDate,2023-07-21T01:20:28+00:00*%
%TF.ProjectId,OLED01,4f4c4544-3031-42e6-9b69-6361645f7063,rev?*%
%TF.SameCoordinates,PX72ba1e0PY737d6e0*%
%TF.FileFunction,Soldermask,Bot*%
%TF.FilePolarity,Negative*%
%FSLAX46Y46*%
G04 Gerber Fmt 4.6, Leading zero omitted, Abs format (unit mm)*
G04 Created by KiCad (PCBNEW 7.0.5.1-1-g8f565ef7f0-dirty-deb11) date 2023-07-21 01:20:28*
%MOMM*%
%LPD*%
G01*
G04 APERTURE LIST*
G04 Aperture macros list*
%AMRoundRect*
0 Rectangle with rounded corners*
0 $1 Rounding radius*
0 $2 $3 $4 $5 $6 $7 $8 $9 X,Y pos of 4 corners*
0 Add a 4 corners polygon primitive as box body*
4,1,4,$2,$3,$4,$5,$6,$7,$8,$9,$2,$3,0*
0 Add four circle primitives for the rounded corners*
1,1,$1+$1,$2,$3*
1,1,$1+$1,$4,$5*
1,1,$1+$1,$6,$7*
1,1,$1+$1,$8,$9*
0 Add four rect primitives between the rounded corners*
20,1,$1+$1,$2,$3,$4,$5,0*
20,1,$1+$1,$4,$5,$6,$7,0*
20,1,$1+$1,$6,$7,$8,$9,0*
20,1,$1+$1,$8,$9,$2,$3,0*%
G04 Aperture macros list end*
%ADD10RoundRect,0.200000X-0.762000X0.762000X-0.762000X-0.762000X0.762000X-0.762000X0.762000X0.762000X0*%
%ADD11C,6.400000*%
%ADD12RoundRect,0.200000X0.762000X-0.762000X0.762000X0.762000X-0.762000X0.762000X-0.762000X-0.762000X0*%
%ADD13RoundRect,0.200000X0.762000X0.762000X-0.762000X0.762000X-0.762000X-0.762000X0.762000X-0.762000X0*%
%ADD14RoundRect,0.450000X-0.450000X0.262500X-0.450000X-0.262500X0.450000X-0.262500X0.450000X0.262500X0*%
%ADD15RoundRect,0.200000X1.175000X2.550000X-1.175000X2.550000X-1.175000X-2.550000X1.175000X-2.550000X0*%
%ADD16RoundRect,0.200000X-0.325000X0.610000X-0.325000X-0.610000X0.325000X-0.610000X0.325000X0.610000X0*%
%ADD17RoundRect,0.350000X-0.150000X0.587500X-0.150000X-0.587500X0.150000X-0.587500X0.150000X0.587500X0*%
%ADD18RoundRect,0.450000X0.475000X-0.250000X0.475000X0.250000X-0.475000X0.250000X-0.475000X-0.250000X0*%
%ADD19RoundRect,0.443750X0.243750X0.456250X-0.243750X0.456250X-0.243750X-0.456250X0.243750X-0.456250X0*%
%ADD20RoundRect,0.200000X0.650000X0.850000X-0.650000X0.850000X-0.650000X-0.850000X0.650000X-0.850000X0*%
%ADD21RoundRect,0.443750X-0.243750X-0.456250X0.243750X-0.456250X0.243750X0.456250X-0.243750X0.456250X0*%
%ADD22RoundRect,0.200000X-0.900000X1.250000X-0.900000X-1.250000X0.900000X-1.250000X0.900000X1.250000X0*%
%ADD23RoundRect,0.350000X-0.512500X-0.150000X0.512500X-0.150000X0.512500X0.150000X-0.512500X0.150000X0*%
%ADD24RoundRect,0.450000X0.262500X0.450000X-0.262500X0.450000X-0.262500X-0.450000X0.262500X-0.450000X0*%
%ADD25RoundRect,0.350000X-0.150000X-0.775000X0.150000X-0.775000X0.150000X0.775000X-0.150000X0.775000X0*%
%ADD26RoundRect,0.200000X-1.050000X-2.150000X1.050000X-2.150000X1.050000X2.150000X-1.050000X2.150000X0*%
%ADD27RoundRect,0.200000X-0.550000X-0.200000X0.550000X-0.200000X0.550000X0.200000X-0.550000X0.200000X0*%
%ADD28RoundRect,0.443750X0.456250X-0.243750X0.456250X0.243750X-0.456250X0.243750X-0.456250X-0.243750X0*%
%ADD29RoundRect,0.450000X-0.250000X-0.475000X0.250000X-0.475000X0.250000X0.475000X-0.250000X0.475000X0*%
%ADD30RoundRect,0.443750X-0.456250X0.243750X-0.456250X-0.243750X0.456250X-0.243750X0.456250X0.243750X0*%
%ADD31RoundRect,0.200000X-0.225000X-0.737500X0.225000X-0.737500X0.225000X0.737500X-0.225000X0.737500X0*%
%ADD32RoundRect,0.200000X-0.750000X0.750000X-0.750000X-0.750000X0.750000X-0.750000X0.750000X0.750000X0*%
%ADD33RoundRect,0.200000X0.750000X-0.750000X0.750000X0.750000X-0.750000X0.750000X-0.750000X-0.750000X0*%
%ADD34RoundRect,0.450000X0.450000X-0.262500X0.450000X0.262500X-0.450000X0.262500X-0.450000X-0.262500X0*%
%ADD35RoundRect,0.450000X-0.262500X-0.450000X0.262500X-0.450000X0.262500X0.450000X-0.262500X0.450000X0*%
%ADD36RoundRect,0.450000X-0.475000X0.250000X-0.475000X-0.250000X0.475000X-0.250000X0.475000X0.250000X0*%
%ADD37RoundRect,0.200000X1.250000X0.900000X-1.250000X0.900000X-1.250000X-0.900000X1.250000X-0.900000X0*%
%ADD38RoundRect,0.350000X-0.150000X0.512500X-0.150000X-0.512500X0.150000X-0.512500X0.150000X0.512500X0*%
%ADD39RoundRect,0.200000X-1.525000X-1.250000X1.525000X-1.250000X1.525000X1.250000X-1.525000X1.250000X0*%
G04 APERTURE END LIST*
D10*
%TO.C,J1*%
X10940000Y62170000D03*
X10940000Y59630000D03*
X8400000Y62170000D03*
X8400000Y59630000D03*
X5860000Y62170000D03*
X5860000Y59630000D03*
%TD*%
D11*
%TO.C,H3*%
X50800000Y0D03*
%TD*%
%TO.C,H4*%
X0Y0D03*
%TD*%
D12*
%TO.C,J6*%
X33520000Y59630000D03*
X33520000Y62170000D03*
X36060000Y59630000D03*
X36060000Y62170000D03*
X38600000Y59630000D03*
X38600000Y62170000D03*
X41140000Y59630000D03*
X41140000Y62170000D03*
X43680000Y59630000D03*
X43680000Y62170000D03*
%TD*%
D13*
%TO.C,J5*%
X21100000Y57160000D03*
X21100000Y59700000D03*
X21100000Y62240000D03*
%TD*%
D11*
%TO.C,H1*%
X0Y61000000D03*
%TD*%
%TO.C,H2*%
X50800000Y61000000D03*
%TD*%
D12*
%TO.C,DISP1*%
X1270000Y8500000D03*
X3810000Y8500000D03*
X6350000Y8500000D03*
X44450000Y8500000D03*
X46990000Y8500000D03*
X49530000Y8500000D03*
X49520000Y51300000D03*
X46980000Y51300000D03*
X44440000Y51300000D03*
X41900000Y51300000D03*
X39360000Y51300000D03*
X36820000Y51300000D03*
X34280000Y51300000D03*
X31740000Y51300000D03*
X29200000Y51300000D03*
X26660000Y51300000D03*
X24120000Y51300000D03*
X21580000Y51300000D03*
X19040000Y51300000D03*
X16500000Y51300000D03*
X13960000Y51300000D03*
X11420000Y51300000D03*
X8880000Y51300000D03*
X6340000Y51300000D03*
X3800000Y51300000D03*
X1260000Y51300000D03*
%TD*%
D10*
%TO.C,J2*%
X29740000Y62170000D03*
X29740000Y59630000D03*
X27200000Y62170000D03*
X27200000Y59630000D03*
X24660000Y62170000D03*
X24660000Y59630000D03*
%TD*%
%TO.C,J3*%
X17020000Y62170000D03*
X17020000Y59630000D03*
X14480000Y62170000D03*
X14480000Y59630000D03*
%TD*%
D14*
%TO.C,R22*%
X47800000Y55900000D03*
X47800000Y54075000D03*
%TD*%
D15*
%TO.C,L1*%
X12675000Y28700000D03*
X8525000Y28700000D03*
%TD*%
D14*
%TO.C,R19*%
X18325000Y-312500D03*
X18325000Y-2137500D03*
%TD*%
D16*
%TO.C,U3*%
X11000341Y35933647D03*
X11950341Y35933647D03*
X12900341Y35933647D03*
X12900341Y33313647D03*
X11950341Y33313647D03*
X11000341Y33313647D03*
%TD*%
D17*
%TO.C,Q1*%
X23462500Y7212500D03*
X25362500Y7212500D03*
X24412500Y5337500D03*
%TD*%
D18*
%TO.C,C4*%
X32000000Y38350000D03*
X32000000Y40250000D03*
%TD*%
D19*
%TO.C,R1*%
X11075001Y54000000D03*
X9200001Y54000000D03*
%TD*%
D20*
%TO.C,D2*%
X27700000Y57050000D03*
X24200000Y57050000D03*
%TD*%
D21*
%TO.C,C8*%
X29512500Y57200000D03*
X31387500Y57200000D03*
%TD*%
D19*
%TO.C,R13*%
X44937500Y54300000D03*
X43062500Y54300000D03*
%TD*%
D22*
%TO.C,D1*%
X3000000Y32400000D03*
X3000000Y28400000D03*
%TD*%
D23*
%TO.C,U2*%
X34625000Y38100000D03*
X34625000Y39050000D03*
X34625000Y40000000D03*
X36900000Y40000000D03*
X36900000Y38100000D03*
%TD*%
D14*
%TO.C,R20*%
X32400000Y55212500D03*
X32400000Y53387500D03*
%TD*%
D24*
%TO.C,R17*%
X20900000Y11525000D03*
X19075000Y11525000D03*
%TD*%
D25*
%TO.C,J4*%
X23900000Y42400000D03*
X24900000Y42400000D03*
X25900000Y42400000D03*
X26900000Y42400000D03*
D26*
X20450000Y45450000D03*
X30350000Y45450000D03*
%TD*%
D27*
%TO.C,U5*%
X36250000Y54375000D03*
X36250000Y55025000D03*
X36250000Y55675000D03*
X36250000Y56325000D03*
X40550000Y56325000D03*
X40550000Y55675000D03*
X40550000Y55025000D03*
X40550000Y54375000D03*
%TD*%
D14*
%TO.C,R15*%
X24000000Y13000000D03*
X24000000Y11175000D03*
%TD*%
D28*
%TO.C,R7*%
X5800000Y32462500D03*
X5800000Y34337500D03*
%TD*%
D17*
%TO.C,Q2*%
X19125000Y7212500D03*
X21025000Y7212500D03*
X20075000Y5337500D03*
%TD*%
D29*
%TO.C,C7*%
X39300001Y42500000D03*
X41200001Y42500000D03*
%TD*%
D30*
%TO.C,C11*%
X0Y36737500D03*
X0Y34862500D03*
%TD*%
D29*
%TO.C,C6*%
X39300000Y40300000D03*
X41200000Y40300000D03*
%TD*%
D31*
%TO.C,U4*%
X16400000Y42224000D03*
X15750000Y42224000D03*
X15100000Y42224000D03*
X14450000Y42224000D03*
X13800000Y42224000D03*
X13150000Y42224000D03*
X12500000Y42224000D03*
X11850000Y42224000D03*
X11850000Y48100000D03*
X12500000Y48100000D03*
X13150000Y48100000D03*
X13800000Y48100000D03*
X14450000Y48100000D03*
X15100000Y48100000D03*
X15750000Y48100000D03*
X16400000Y48100000D03*
%TD*%
D21*
%TO.C,R6*%
X32924999Y47700000D03*
X34799999Y47700000D03*
%TD*%
D32*
%TO.C,D4*%
X24412500Y2060000D03*
D33*
X24412500Y-1700000D03*
%TD*%
D19*
%TO.C,C2*%
X8637500Y48800000D03*
X6762500Y48800000D03*
%TD*%
D34*
%TO.C,R3*%
X9900000Y44787500D03*
X9900000Y46612500D03*
%TD*%
D35*
%TO.C,C12*%
X17987500Y18400000D03*
X19812500Y18400000D03*
%TD*%
D17*
%TO.C,Q3*%
X27875000Y7212500D03*
X29775000Y7212500D03*
X28825000Y5337500D03*
%TD*%
D28*
%TO.C,R8*%
X5800000Y35825000D03*
X5800000Y37700000D03*
%TD*%
D36*
%TO.C,C1*%
X36800000Y45850000D03*
X36800000Y43950000D03*
%TD*%
D14*
%TO.C,R21*%
X30400000Y55212500D03*
X30400000Y53387500D03*
%TD*%
D37*
%TO.C,D3*%
X21075000Y15525000D03*
X17075000Y15525000D03*
%TD*%
D14*
%TO.C,R16*%
X20575000Y-312500D03*
X20575000Y-2137500D03*
%TD*%
D19*
%TO.C,R14*%
X44937500Y56550000D03*
X43062500Y56550000D03*
%TD*%
D30*
%TO.C,C9*%
X50000000Y55937500D03*
X50000000Y54062500D03*
%TD*%
D38*
%TO.C,U1*%
X32950000Y45637500D03*
X33900000Y45637500D03*
X34850000Y45637500D03*
X34850000Y43362500D03*
X32950000Y43362500D03*
%TD*%
D14*
%TO.C,R18*%
X27400000Y13012500D03*
X27400000Y11187500D03*
%TD*%
D28*
%TO.C,R9*%
X2400000Y34800000D03*
X2400000Y36675000D03*
%TD*%
D32*
%TO.C,D5*%
X28825000Y2155000D03*
D33*
X28825000Y-1605000D03*
%TD*%
D36*
%TO.C,C3*%
X32000000Y36550000D03*
X32000000Y34650000D03*
%TD*%
D28*
%TO.C,C10*%
X0Y31300000D03*
X0Y33175000D03*
%TD*%
D39*
%TO.C,BZ1*%
X6600000Y2022138D03*
X15050000Y2022138D03*
%TD*%
D30*
%TO.C,C5*%
X15500000Y31175000D03*
X15500000Y29300000D03*
%TD*%
M02*
