%TF.GenerationSoftware,KiCad,Pcbnew,6.0.11+dfsg-1~bpo11+1*%
%TF.CreationDate,2023-06-14T18:53:05+00:00*%
%TF.ProjectId,OLED01,4f4c4544-3031-42e6-9b69-6361645f7063,rev?*%
%TF.SameCoordinates,PX72ba1e0PY737d6e0*%
%TF.FileFunction,Soldermask,Bot*%
%TF.FilePolarity,Negative*%
%FSLAX46Y46*%
G04 Gerber Fmt 4.6, Leading zero omitted, Abs format (unit mm)*
G04 Created by KiCad (PCBNEW 6.0.11+dfsg-1~bpo11+1) date 2023-06-14 18:53:05*
%MOMM*%
%LPD*%
G01*
G04 APERTURE LIST*
G04 Aperture macros list*
%AMRoundRect*
0 Rectangle with rounded corners*
0 $1 Rounding radius*
0 $2 $3 $4 $5 $6 $7 $8 $9 X,Y pos of 4 corners*
0 Add a 4 corners polygon primitive as box body*
4,1,4,$2,$3,$4,$5,$6,$7,$8,$9,$2,$3,0*
0 Add four circle primitives for the rounded corners*
1,1,$1+$1,$2,$3*
1,1,$1+$1,$4,$5*
1,1,$1+$1,$6,$7*
1,1,$1+$1,$8,$9*
0 Add four rect primitives between the rounded corners*
20,1,$1+$1,$2,$3,$4,$5,0*
20,1,$1+$1,$4,$5,$6,$7,0*
20,1,$1+$1,$6,$7,$8,$9,0*
20,1,$1+$1,$8,$9,$2,$3,0*%
G04 Aperture macros list end*
%ADD10RoundRect,0.200000X0.762000X-0.762000X0.762000X0.762000X-0.762000X0.762000X-0.762000X-0.762000X0*%
%ADD11C,6.400000*%
%ADD12RoundRect,0.200000X0.762000X0.762000X-0.762000X0.762000X-0.762000X-0.762000X0.762000X-0.762000X0*%
%ADD13RoundRect,0.200000X-0.762000X0.762000X-0.762000X-0.762000X0.762000X-0.762000X0.762000X0.762000X0*%
%ADD14RoundRect,0.450000X-0.450000X0.262500X-0.450000X-0.262500X0.450000X-0.262500X0.450000X0.262500X0*%
%ADD15RoundRect,0.200000X1.175000X2.550000X-1.175000X2.550000X-1.175000X-2.550000X1.175000X-2.550000X0*%
%ADD16RoundRect,0.443750X-0.456250X0.243750X-0.456250X-0.243750X0.456250X-0.243750X0.456250X0.243750X0*%
%ADD17RoundRect,0.200000X-0.325000X0.610000X-0.325000X-0.610000X0.325000X-0.610000X0.325000X0.610000X0*%
%ADD18RoundRect,0.350000X-0.150000X0.587500X-0.150000X-0.587500X0.150000X-0.587500X0.150000X0.587500X0*%
%ADD19RoundRect,0.450000X-0.250000X-0.475000X0.250000X-0.475000X0.250000X0.475000X-0.250000X0.475000X0*%
%ADD20RoundRect,0.200000X0.650000X0.850000X-0.650000X0.850000X-0.650000X-0.850000X0.650000X-0.850000X0*%
%ADD21RoundRect,0.443750X-0.243750X-0.456250X0.243750X-0.456250X0.243750X0.456250X-0.243750X0.456250X0*%
%ADD22RoundRect,0.443750X0.243750X0.456250X-0.243750X0.456250X-0.243750X-0.456250X0.243750X-0.456250X0*%
%ADD23RoundRect,0.200000X-0.900000X1.250000X-0.900000X-1.250000X0.900000X-1.250000X0.900000X1.250000X0*%
%ADD24RoundRect,0.350000X-0.150000X0.512500X-0.150000X-0.512500X0.150000X-0.512500X0.150000X0.512500X0*%
%ADD25RoundRect,0.450000X0.262500X0.450000X-0.262500X0.450000X-0.262500X-0.450000X0.262500X-0.450000X0*%
%ADD26RoundRect,0.200000X-0.550000X-0.200000X0.550000X-0.200000X0.550000X0.200000X-0.550000X0.200000X0*%
%ADD27RoundRect,0.443750X0.456250X-0.243750X0.456250X0.243750X-0.456250X0.243750X-0.456250X-0.243750X0*%
%ADD28RoundRect,0.450000X-0.475000X0.250000X-0.475000X-0.250000X0.475000X-0.250000X0.475000X0.250000X0*%
%ADD29RoundRect,0.200000X-0.750000X0.750000X-0.750000X-0.750000X0.750000X-0.750000X0.750000X0.750000X0*%
%ADD30RoundRect,0.200000X0.750000X-0.750000X0.750000X0.750000X-0.750000X0.750000X-0.750000X-0.750000X0*%
%ADD31RoundRect,0.200000X1.250000X0.900000X-1.250000X0.900000X-1.250000X-0.900000X1.250000X-0.900000X0*%
%ADD32RoundRect,0.350000X0.512500X0.150000X-0.512500X0.150000X-0.512500X-0.150000X0.512500X-0.150000X0*%
%ADD33RoundRect,0.450000X0.250000X0.475000X-0.250000X0.475000X-0.250000X-0.475000X0.250000X-0.475000X0*%
%ADD34RoundRect,0.200000X-1.525000X-1.250000X1.525000X-1.250000X1.525000X1.250000X-1.525000X1.250000X0*%
G04 APERTURE END LIST*
D10*
%TO.C,J1*%
X34260000Y-1270000D03*
X34260000Y1270000D03*
X36800000Y-1270000D03*
X36800000Y1270000D03*
X39340000Y-1270000D03*
X39340000Y1270000D03*
%TD*%
D11*
%TO.C,H3*%
X50800000Y0D03*
%TD*%
%TO.C,H4*%
X0Y0D03*
%TD*%
D10*
%TO.C,J6*%
X33520000Y59630000D03*
X33520000Y62170000D03*
X36060000Y59630000D03*
X36060000Y62170000D03*
X38600000Y59630000D03*
X38600000Y62170000D03*
X41140000Y59630000D03*
X41140000Y62170000D03*
X43680000Y59630000D03*
X43680000Y62170000D03*
%TD*%
D12*
%TO.C,J5*%
X20750000Y57210000D03*
X20750000Y59750000D03*
X20750000Y62290000D03*
%TD*%
D13*
%TO.C,J4*%
X11890000Y62220000D03*
X11890000Y59680000D03*
X9350000Y62220000D03*
X9350000Y59680000D03*
X6810000Y62220000D03*
X6810000Y59680000D03*
%TD*%
D11*
%TO.C,H1*%
X0Y61000000D03*
%TD*%
%TO.C,H2*%
X50800000Y61000000D03*
%TD*%
D10*
%TO.C,DISP1*%
X1170000Y8500000D03*
X3710000Y8500000D03*
X6250000Y8500000D03*
X44350000Y8500000D03*
X46890000Y8500000D03*
X49430000Y8500000D03*
X49420000Y51300000D03*
X46880000Y51300000D03*
X44340000Y51300000D03*
X41800000Y51300000D03*
X39260000Y51300000D03*
X36720000Y51300000D03*
X34180000Y51300000D03*
X31640000Y51300000D03*
X29100000Y51300000D03*
X26560000Y51300000D03*
X24020000Y51300000D03*
X21480000Y51300000D03*
X18940000Y51300000D03*
X16400000Y51300000D03*
X13860000Y51300000D03*
X11320000Y51300000D03*
X8780000Y51300000D03*
X6240000Y51300000D03*
X3700000Y51300000D03*
X1160000Y51300000D03*
%TD*%
D13*
%TO.C,J2*%
X29696666Y62170000D03*
X29696666Y59630000D03*
X27156666Y62170000D03*
X27156666Y59630000D03*
X24616666Y62170000D03*
X24616666Y59630000D03*
%TD*%
D10*
%TO.C,J3*%
X15750000Y59630000D03*
X15750000Y62170000D03*
%TD*%
D14*
%TO.C,R22*%
X50000000Y56212500D03*
X50000000Y54387500D03*
%TD*%
D15*
%TO.C,L1*%
X12675000Y28700000D03*
X8525000Y28700000D03*
%TD*%
D16*
%TO.C,R10*%
X17600000Y48587500D03*
X17600000Y46712500D03*
%TD*%
D14*
%TO.C,R19*%
X18325000Y-312500D03*
X18325000Y-2137500D03*
%TD*%
D16*
%TO.C,R3*%
X42500000Y42637500D03*
X42500000Y40762500D03*
%TD*%
D17*
%TO.C,U3*%
X11000341Y35933647D03*
X11950341Y35933647D03*
X12900341Y35933647D03*
X12900341Y33313647D03*
X11950341Y33313647D03*
X11000341Y33313647D03*
%TD*%
D18*
%TO.C,Q1*%
X23462500Y7212500D03*
X25362500Y7212500D03*
X24412500Y5337500D03*
%TD*%
D19*
%TO.C,C4*%
X29550000Y44500000D03*
X31450000Y44500000D03*
%TD*%
D16*
%TO.C,R1*%
X11400000Y48937500D03*
X11400000Y47062500D03*
%TD*%
%TO.C,R4*%
X38200000Y46037500D03*
X38200000Y44162500D03*
%TD*%
D20*
%TO.C,D2*%
X27750000Y57050000D03*
X24250000Y57050000D03*
%TD*%
D21*
%TO.C,C8*%
X29512500Y57200000D03*
X31387500Y57200000D03*
%TD*%
D22*
%TO.C,R13*%
X44937500Y54300000D03*
X43062500Y54300000D03*
%TD*%
D23*
%TO.C,D1*%
X3000000Y32400000D03*
X3000000Y28400000D03*
%TD*%
D24*
%TO.C,U2*%
X29950000Y41987500D03*
X30900000Y41987500D03*
X31850000Y41987500D03*
X31850000Y39712500D03*
X29950000Y39712500D03*
%TD*%
D14*
%TO.C,R20*%
X30000000Y55212500D03*
X30000000Y53387500D03*
%TD*%
D25*
%TO.C,R17*%
X20900000Y11525000D03*
X19075000Y11525000D03*
%TD*%
D26*
%TO.C,U5*%
X36250000Y54375000D03*
X36250000Y55025000D03*
X36250000Y55675000D03*
X36250000Y56325000D03*
X40550000Y56325000D03*
X40550000Y55675000D03*
X40550000Y55025000D03*
X40550000Y54375000D03*
%TD*%
D25*
%TO.C,R15*%
X25237500Y11525000D03*
X23412500Y11525000D03*
%TD*%
D27*
%TO.C,R7*%
X5800000Y32462500D03*
X5800000Y34337500D03*
%TD*%
D18*
%TO.C,Q2*%
X19125000Y7212500D03*
X21025000Y7212500D03*
X20075000Y5337500D03*
%TD*%
D28*
%TO.C,C7*%
X31750000Y37450000D03*
X31750000Y35550000D03*
%TD*%
D16*
%TO.C,C11*%
X0Y36737500D03*
X0Y34862500D03*
%TD*%
D28*
%TO.C,C6*%
X34750000Y37450000D03*
X34750000Y35550000D03*
%TD*%
D16*
%TO.C,R6*%
X26150000Y41837500D03*
X26150000Y39962500D03*
%TD*%
%TO.C,R2*%
X42500000Y46075000D03*
X42500000Y44200000D03*
%TD*%
D29*
%TO.C,D4*%
X24412500Y2060000D03*
D30*
X24412500Y-1700000D03*
%TD*%
D16*
%TO.C,C2*%
X8750000Y48937500D03*
X8750000Y47062500D03*
%TD*%
%TO.C,R12*%
X29200000Y48600000D03*
X29200000Y46725000D03*
%TD*%
D25*
%TO.C,C12*%
X25737500Y15525000D03*
X23912500Y15525000D03*
%TD*%
D18*
%TO.C,Q3*%
X27875000Y7212500D03*
X29775000Y7212500D03*
X28825000Y5337500D03*
%TD*%
D16*
%TO.C,R5*%
X38200000Y42600000D03*
X38200000Y40725000D03*
%TD*%
D27*
%TO.C,R8*%
X5800000Y35825000D03*
X5800000Y37700000D03*
%TD*%
D28*
%TO.C,C1*%
X18550000Y41700000D03*
X18550000Y39800000D03*
%TD*%
D14*
%TO.C,R21*%
X32100000Y55212500D03*
X32100000Y53387500D03*
%TD*%
D16*
%TO.C,R11*%
X24000000Y48587500D03*
X24000000Y46712500D03*
%TD*%
D31*
%TO.C,D3*%
X21075000Y15525000D03*
X17075000Y15525000D03*
%TD*%
D14*
%TO.C,R16*%
X20575000Y-312500D03*
X20575000Y-2137500D03*
%TD*%
D22*
%TO.C,R14*%
X44937500Y56550000D03*
X43062500Y56550000D03*
%TD*%
%TO.C,C9*%
X25937500Y54800000D03*
X24062500Y54800000D03*
%TD*%
D32*
%TO.C,U1*%
X23737500Y41750000D03*
X23737500Y40800000D03*
X23737500Y39850000D03*
X21462500Y39850000D03*
X21462500Y41750000D03*
%TD*%
D25*
%TO.C,R18*%
X29237500Y11525000D03*
X27412500Y11525000D03*
%TD*%
D27*
%TO.C,R9*%
X2400000Y34800000D03*
X2400000Y36675000D03*
%TD*%
D29*
%TO.C,D5*%
X28825000Y2155000D03*
D30*
X28825000Y-1605000D03*
%TD*%
D33*
%TO.C,C3*%
X27700000Y44500000D03*
X25800000Y44500000D03*
%TD*%
D27*
%TO.C,C10*%
X0Y31300000D03*
X0Y33175000D03*
%TD*%
D34*
%TO.C,BZ1*%
X6600000Y2022138D03*
X15050000Y2022138D03*
%TD*%
D16*
%TO.C,C5*%
X15500000Y31175000D03*
X15500000Y29300000D03*
%TD*%
M02*
