M48
; DRILL file {KiCad 6.0.11+dfsg-1~bpo11+1} date Wed Jun 14 14:16:14 2023
; FORMAT={3:3/ absolute / metric / suppress leading zeros}
; #@! TF.CreationDate,2023-06-14T14:16:14+00:00
; #@! TF.GenerationSoftware,Kicad,Pcbnew,6.0.11+dfsg-1~bpo11+1
; #@! TF.FileFunction,Plated,1,2,PTH
FMAT,2
METRIC,TZ
; #@! TA.AperFunction,Plated,PTH,ViaDrill
T1C0.400
; #@! TA.AperFunction,Plated,PTH,ComponentDrill
T2C0.889
; #@! TA.AperFunction,Plated,PTH,ComponentDrill
T3C3.000
%
G90
G05
T1
X-3200Y29800
X-1300Y38100
X-900Y34000
X-800Y29800
X900Y34000
X1300Y38100
X5000Y48800
X5100Y46850
X6000Y30800
X6450Y57750
X8000Y36100
X8400Y24000
X9000Y36100
X9500Y24000
X10500Y24000
X10600Y31600
X10650Y53250
X13825Y17025
X14400Y24000
X15500Y24000
X15550Y32550
X17250Y56250
X21075Y9025
X22500Y57250
X23800Y33800
X25325Y9025
X25350Y32000
X26900Y36800
X28150Y42500
X28550Y55450
X28800Y35300
X29825Y9025
X30250Y49750
X32600Y57200
X33250Y55500
X34900Y54600
X35400Y49300
X35500Y52750
X40500Y57200
X41125Y44375
X44900Y55650
X45500Y33350
X48200Y33450
T2
X1160Y51300
X1170Y8500
X3700Y51300
X3710Y8500
X6240Y51300
X6250Y8500
X6810Y62220
X6810Y59680
X8780Y51300
X9350Y62220
X9350Y59680
X11320Y51300
X11890Y62220
X11890Y59680
X13860Y51300
X15750Y62170
X15750Y59630
X16400Y51300
X18940Y51300
X20750Y62290
X20750Y59750
X20750Y57210
X21480Y51300
X24020Y51300
X24617Y62170
X24617Y59630
X26560Y51300
X27157Y62170
X27157Y59630
X29100Y51300
X29697Y62170
X29697Y59630
X31640Y51300
X33520Y62170
X33520Y59630
X34180Y51300
X34260Y1270
X34260Y-1270
X36060Y62170
X36060Y59630
X36720Y51300
X36800Y1270
X36800Y-1270
X38600Y62170
X38600Y59630
X39260Y51300
X39340Y1270
X39340Y-1270
X41140Y62170
X41140Y59630
X41800Y51300
X43680Y62170
X43680Y59630
X44340Y51300
X44350Y8500
X46880Y51300
X46890Y8500
X49420Y51300
X49430Y8500
T3
X0Y61000
X0Y0
X50800Y61000
X50800Y0
T0
M30
