%TF.GenerationSoftware,KiCad,Pcbnew,6.0.11+dfsg-1~bpo11+1*%
%TF.CreationDate,2023-06-13T23:24:27+00:00*%
%TF.ProjectId,OLED01,4f4c4544-3031-42e6-9b69-6361645f7063,rev?*%
%TF.SameCoordinates,PX72ba1e0PY737d6e0*%
%TF.FileFunction,Legend,Bot*%
%TF.FilePolarity,Positive*%
%FSLAX46Y46*%
G04 Gerber Fmt 4.6, Leading zero omitted, Abs format (unit mm)*
G04 Created by KiCad (PCBNEW 6.0.11+dfsg-1~bpo11+1) date 2023-06-13 23:24:27*
%MOMM*%
%LPD*%
G01*
G04 APERTURE LIST*
%ADD10C,0.120000*%
%ADD11C,0.660000*%
%ADD12C,0.100000*%
%ADD13C,0.150000*%
G04 APERTURE END LIST*
D10*
X50700000Y19800000D02*
X49500000Y19800000D01*
X49500000Y19800000D02*
X49500000Y18500000D01*
X49500000Y18500000D02*
X50700000Y18500000D01*
X50700000Y18500000D02*
X50700000Y19800000D01*
G36*
X50700000Y19800000D02*
G01*
X49500000Y19800000D01*
X49500000Y18500000D01*
X50700000Y18500000D01*
X50700000Y19800000D01*
G37*
D11*
X16630000Y45400000D02*
G75*
G03*
X16630000Y45400000I-330000J0D01*
G01*
D10*
X26500000Y49400000D02*
X25300000Y49400000D01*
X25300000Y49400000D02*
X25300000Y48100000D01*
X25300000Y48100000D02*
X26500000Y48100000D01*
X26500000Y48100000D02*
X26500000Y49400000D01*
G36*
X26500000Y49400000D02*
G01*
X25300000Y49400000D01*
X25300000Y48100000D01*
X26500000Y48100000D01*
X26500000Y49400000D01*
G37*
X52300000Y47300000D02*
X35300000Y47300000D01*
X35300000Y47300000D02*
X35300000Y39700000D01*
X35300000Y39700000D02*
X52300000Y39700000D01*
X52300000Y39700000D02*
X52300000Y47300000D01*
X49800000Y46500000D02*
X49800000Y40400000D01*
X-1875000Y24900000D02*
X16900000Y24900000D01*
X16900000Y24900000D02*
X16900000Y38800000D01*
X16900000Y38800000D02*
X-1875000Y38800000D01*
X-1875000Y38800000D02*
X-1875000Y24900000D01*
D11*
X46230000Y62200000D02*
G75*
G03*
X46230000Y62200000I-330000J0D01*
G01*
D10*
X51400000Y41750000D02*
X50200000Y41750000D01*
X50200000Y41750000D02*
X50200000Y40450000D01*
X50200000Y40450000D02*
X51400000Y40450000D01*
X51400000Y40450000D02*
X51400000Y41750000D01*
G36*
X51400000Y41750000D02*
G01*
X50200000Y41750000D01*
X50200000Y40450000D01*
X51400000Y40450000D01*
X51400000Y41750000D01*
G37*
X51300000Y22300000D02*
X46100000Y22300000D01*
X46100000Y22300000D02*
X46100000Y17900000D01*
X46100000Y17900000D02*
X51300000Y17900000D01*
X51300000Y17900000D02*
X51300000Y22300000D01*
D11*
X35230000Y54900000D02*
G75*
G03*
X35230000Y54900000I-330000J0D01*
G01*
X22330000Y45400000D02*
G75*
G03*
X22330000Y45400000I-330000J0D01*
G01*
X19230000Y45400000D02*
G75*
G03*
X19230000Y45400000I-330000J0D01*
G01*
X51130000Y43050000D02*
G75*
G03*
X51130000Y43050000I-330000J0D01*
G01*
X50430000Y21100000D02*
G75*
G03*
X50430000Y21100000I-330000J0D01*
G01*
X31330000Y49000000D02*
G75*
G03*
X31330000Y49000000I-330000J0D01*
G01*
D10*
X51500000Y44000000D02*
X47100000Y44000000D01*
D12*
X51900000Y48171429D02*
X51757142Y48123810D01*
X51709523Y48076191D01*
X51661904Y47980953D01*
X51661904Y47838096D01*
X51709523Y47742858D01*
X51757142Y47695239D01*
X51852380Y47647620D01*
X52233333Y47647620D01*
X52233333Y48647620D01*
X51900000Y48647620D01*
X51804761Y48600000D01*
X51757142Y48552381D01*
X51709523Y48457143D01*
X51709523Y48361905D01*
X51757142Y48266667D01*
X51804761Y48219048D01*
X51900000Y48171429D01*
X52233333Y48171429D01*
X50804761Y48314286D02*
X50804761Y47647620D01*
X51233333Y48314286D02*
X51233333Y47790477D01*
X51185714Y47695239D01*
X51090476Y47647620D01*
X50947619Y47647620D01*
X50852380Y47695239D01*
X50804761Y47742858D01*
X50376190Y47695239D02*
X50280952Y47647620D01*
X50090476Y47647620D01*
X49995238Y47695239D01*
X49947619Y47790477D01*
X49947619Y47838096D01*
X49995238Y47933334D01*
X50090476Y47980953D01*
X50233333Y47980953D01*
X50328571Y48028572D01*
X50376190Y48123810D01*
X50376190Y48171429D01*
X50328571Y48266667D01*
X50233333Y48314286D01*
X50090476Y48314286D01*
X49995238Y48266667D01*
X48804761Y47695239D02*
X48709523Y47647620D01*
X48519047Y47647620D01*
X48423809Y47695239D01*
X48376190Y47790477D01*
X48376190Y47838096D01*
X48423809Y47933334D01*
X48519047Y47980953D01*
X48661904Y47980953D01*
X48757142Y48028572D01*
X48804761Y48123810D01*
X48804761Y48171429D01*
X48757142Y48266667D01*
X48661904Y48314286D01*
X48519047Y48314286D01*
X48423809Y48266667D01*
X47566666Y47695239D02*
X47661904Y47647620D01*
X47852380Y47647620D01*
X47947619Y47695239D01*
X47995238Y47790477D01*
X47995238Y48171429D01*
X47947619Y48266667D01*
X47852380Y48314286D01*
X47661904Y48314286D01*
X47566666Y48266667D01*
X47519047Y48171429D01*
X47519047Y48076191D01*
X47995238Y47980953D01*
X46947619Y47647620D02*
X47042857Y47695239D01*
X47090476Y47790477D01*
X47090476Y48647620D01*
X46566666Y47742858D02*
X46519047Y47695239D01*
X46566666Y47647620D01*
X46614285Y47695239D01*
X46566666Y47742858D01*
X46566666Y47647620D01*
D13*
X13511904Y64095239D02*
X13369047Y64047620D01*
X13130952Y64047620D01*
X13035714Y64095239D01*
X12988095Y64142858D01*
X12940476Y64238096D01*
X12940476Y64333334D01*
X12988095Y64428572D01*
X13035714Y64476191D01*
X13130952Y64523810D01*
X13321428Y64571429D01*
X13416666Y64619048D01*
X13464285Y64666667D01*
X13511904Y64761905D01*
X13511904Y64857143D01*
X13464285Y64952381D01*
X13416666Y65000000D01*
X13321428Y65047620D01*
X13083333Y65047620D01*
X12940476Y65000000D01*
X12511904Y64047620D02*
X12511904Y65047620D01*
X12130952Y65047620D01*
X12035714Y65000000D01*
X11988095Y64952381D01*
X11940476Y64857143D01*
X11940476Y64714286D01*
X11988095Y64619048D01*
X12035714Y64571429D01*
X12130952Y64523810D01*
X12511904Y64523810D01*
X11511904Y64047620D02*
X11511904Y65047620D01*
X10273809Y64047620D02*
X10273809Y64714286D01*
X10273809Y64619048D02*
X10226190Y64666667D01*
X10130952Y64714286D01*
X9988095Y64714286D01*
X9892857Y64666667D01*
X9845238Y64571429D01*
X9845238Y64047620D01*
X9845238Y64571429D02*
X9797619Y64666667D01*
X9702380Y64714286D01*
X9559523Y64714286D01*
X9464285Y64666667D01*
X9416666Y64571429D01*
X9416666Y64047620D01*
X8511904Y64047620D02*
X8511904Y64571429D01*
X8559523Y64666667D01*
X8654761Y64714286D01*
X8845238Y64714286D01*
X8940476Y64666667D01*
X8511904Y64095239D02*
X8607142Y64047620D01*
X8845238Y64047620D01*
X8940476Y64095239D01*
X8988095Y64190477D01*
X8988095Y64285715D01*
X8940476Y64380953D01*
X8845238Y64428572D01*
X8607142Y64428572D01*
X8511904Y64476191D01*
X8130952Y64047620D02*
X7607142Y64714286D01*
X8130952Y64714286D02*
X7607142Y64047620D01*
X7321428Y65047620D02*
X6702380Y65047620D01*
X7035714Y64666667D01*
X6892857Y64666667D01*
X6797619Y64619048D01*
X6750000Y64571429D01*
X6702380Y64476191D01*
X6702380Y64238096D01*
X6750000Y64142858D01*
X6797619Y64095239D01*
X6892857Y64047620D01*
X7178571Y64047620D01*
X7273809Y64095239D01*
X7321428Y64142858D01*
X6369047Y64714286D02*
X6130952Y64047620D01*
X5892857Y64714286D01*
X5607142Y65047620D02*
X4988095Y65047620D01*
X5321428Y64666667D01*
X5178571Y64666667D01*
X5083333Y64619048D01*
X5035714Y64571429D01*
X4988095Y64476191D01*
X4988095Y64238096D01*
X5035714Y64142858D01*
X5083333Y64095239D01*
X5178571Y64047620D01*
X5464285Y64047620D01*
X5559523Y64095239D01*
X5607142Y64142858D01*
D12*
X16076190Y39347620D02*
X16647619Y39347620D01*
X16361904Y39347620D02*
X16361904Y40347620D01*
X16457142Y40204762D01*
X16552380Y40109524D01*
X16647619Y40061905D01*
X15695238Y40252381D02*
X15647619Y40300000D01*
X15552380Y40347620D01*
X15314285Y40347620D01*
X15219047Y40300000D01*
X15171428Y40252381D01*
X15123809Y40157143D01*
X15123809Y40061905D01*
X15171428Y39919048D01*
X15742857Y39347620D01*
X15123809Y39347620D01*
X14838095Y40347620D02*
X14504761Y39347620D01*
X14171428Y40347620D01*
X13123809Y39395239D02*
X13028571Y39347620D01*
X12838095Y39347620D01*
X12742857Y39395239D01*
X12695238Y39490477D01*
X12695238Y39538096D01*
X12742857Y39633334D01*
X12838095Y39680953D01*
X12980952Y39680953D01*
X13076190Y39728572D01*
X13123809Y39823810D01*
X13123809Y39871429D01*
X13076190Y39966667D01*
X12980952Y40014286D01*
X12838095Y40014286D01*
X12742857Y39966667D01*
X12123809Y39347620D02*
X12219047Y39395239D01*
X12266666Y39442858D01*
X12314285Y39538096D01*
X12314285Y39823810D01*
X12266666Y39919048D01*
X12219047Y39966667D01*
X12123809Y40014286D01*
X11980952Y40014286D01*
X11885714Y39966667D01*
X11838095Y39919048D01*
X11790476Y39823810D01*
X11790476Y39538096D01*
X11838095Y39442858D01*
X11885714Y39395239D01*
X11980952Y39347620D01*
X12123809Y39347620D01*
X10933333Y40014286D02*
X10933333Y39347620D01*
X11361904Y40014286D02*
X11361904Y39490477D01*
X11314285Y39395239D01*
X11219047Y39347620D01*
X11076190Y39347620D01*
X10980952Y39395239D01*
X10933333Y39442858D01*
X10457142Y39347620D02*
X10457142Y40014286D01*
X10457142Y39823810D02*
X10409523Y39919048D01*
X10361904Y39966667D01*
X10266666Y40014286D01*
X10171428Y40014286D01*
X9409523Y39395239D02*
X9504761Y39347620D01*
X9695238Y39347620D01*
X9790476Y39395239D01*
X9838095Y39442858D01*
X9885714Y39538096D01*
X9885714Y39823810D01*
X9838095Y39919048D01*
X9790476Y39966667D01*
X9695238Y40014286D01*
X9504761Y40014286D01*
X9409523Y39966667D01*
X8600000Y39395239D02*
X8695238Y39347620D01*
X8885714Y39347620D01*
X8980952Y39395239D01*
X9028571Y39490477D01*
X9028571Y39871429D01*
X8980952Y39966667D01*
X8885714Y40014286D01*
X8695238Y40014286D01*
X8600000Y39966667D01*
X8552380Y39871429D01*
X8552380Y39776191D01*
X9028571Y39680953D01*
D13*
X17250000Y57464286D02*
X16607142Y57464286D01*
X16992857Y57892858D02*
X17250000Y56607143D01*
X16692857Y57035715D02*
X17335714Y57035715D01*
X16950000Y56607143D02*
X16692857Y57892858D01*
X15792857Y56797620D02*
X16092857Y57273810D01*
X16307142Y56797620D02*
X16307142Y57797620D01*
X15964285Y57797620D01*
X15878571Y57750000D01*
X15835714Y57702381D01*
X15792857Y57607143D01*
X15792857Y57464286D01*
X15835714Y57369048D01*
X15878571Y57321429D01*
X15964285Y57273810D01*
X16307142Y57273810D01*
X15450000Y56845239D02*
X15321428Y56797620D01*
X15107142Y56797620D01*
X15021428Y56845239D01*
X14978571Y56892858D01*
X14935714Y56988096D01*
X14935714Y57083334D01*
X14978571Y57178572D01*
X15021428Y57226191D01*
X15107142Y57273810D01*
X15278571Y57321429D01*
X15364285Y57369048D01*
X15407142Y57416667D01*
X15450000Y57511905D01*
X15450000Y57607143D01*
X15407142Y57702381D01*
X15364285Y57750000D01*
X15278571Y57797620D01*
X15064285Y57797620D01*
X14935714Y57750000D01*
X14678571Y57797620D02*
X14164285Y57797620D01*
X14421428Y56797620D02*
X14421428Y57797620D01*
X47698857Y46104762D02*
X47736952Y45990477D01*
X47775047Y45952381D01*
X47851238Y45914286D01*
X47965523Y45914286D01*
X48041714Y45952381D01*
X48079809Y45990477D01*
X48117904Y46066667D01*
X48117904Y46371429D01*
X47317904Y46371429D01*
X47317904Y46104762D01*
X47356000Y46028572D01*
X47394095Y45990477D01*
X47470285Y45952381D01*
X47546476Y45952381D01*
X47622666Y45990477D01*
X47660761Y46028572D01*
X47698857Y46104762D01*
X47698857Y46371429D01*
X48079809Y45609524D02*
X48117904Y45495239D01*
X48117904Y45304762D01*
X48079809Y45228572D01*
X48041714Y45190477D01*
X47965523Y45152381D01*
X47889333Y45152381D01*
X47813142Y45190477D01*
X47775047Y45228572D01*
X47736952Y45304762D01*
X47698857Y45457143D01*
X47660761Y45533334D01*
X47622666Y45571429D01*
X47546476Y45609524D01*
X47470285Y45609524D01*
X47394095Y45571429D01*
X47356000Y45533334D01*
X47317904Y45457143D01*
X47317904Y45266667D01*
X47356000Y45152381D01*
X48117904Y44390477D02*
X48117904Y44847620D01*
X48117904Y44619048D02*
X47317904Y44619048D01*
X47432190Y44695239D01*
X47508380Y44771429D01*
X47546476Y44847620D01*
X48986857Y46104762D02*
X49024952Y45990477D01*
X49063047Y45952381D01*
X49139238Y45914286D01*
X49253523Y45914286D01*
X49329714Y45952381D01*
X49367809Y45990477D01*
X49405904Y46066667D01*
X49405904Y46371429D01*
X48605904Y46371429D01*
X48605904Y46104762D01*
X48644000Y46028572D01*
X48682095Y45990477D01*
X48758285Y45952381D01*
X48834476Y45952381D01*
X48910666Y45990477D01*
X48948761Y46028572D01*
X48986857Y46104762D01*
X48986857Y46371429D01*
X49367809Y45609524D02*
X49405904Y45495239D01*
X49405904Y45304762D01*
X49367809Y45228572D01*
X49329714Y45190477D01*
X49253523Y45152381D01*
X49177333Y45152381D01*
X49101142Y45190477D01*
X49063047Y45228572D01*
X49024952Y45304762D01*
X48986857Y45457143D01*
X48948761Y45533334D01*
X48910666Y45571429D01*
X48834476Y45609524D01*
X48758285Y45609524D01*
X48682095Y45571429D01*
X48644000Y45533334D01*
X48605904Y45457143D01*
X48605904Y45266667D01*
X48644000Y45152381D01*
X48605904Y44657143D02*
X48605904Y44580953D01*
X48644000Y44504762D01*
X48682095Y44466667D01*
X48758285Y44428572D01*
X48910666Y44390477D01*
X49101142Y44390477D01*
X49253523Y44428572D01*
X49329714Y44466667D01*
X49367809Y44504762D01*
X49405904Y44580953D01*
X49405904Y44657143D01*
X49367809Y44733334D01*
X49329714Y44771429D01*
X49253523Y44809524D01*
X49101142Y44847620D01*
X48910666Y44847620D01*
X48758285Y44809524D01*
X48682095Y44771429D01*
X48644000Y44733334D01*
X48605904Y44657143D01*
X48776190Y20647620D02*
X48776190Y21647620D01*
X48347619Y21552381D02*
X48300000Y21600000D01*
X48204761Y21647620D01*
X47966666Y21647620D01*
X47871428Y21600000D01*
X47823809Y21552381D01*
X47776190Y21457143D01*
X47776190Y21361905D01*
X47823809Y21219048D01*
X48395238Y20647620D01*
X47776190Y20647620D01*
X46776190Y20742858D02*
X46823809Y20695239D01*
X46966666Y20647620D01*
X47061904Y20647620D01*
X47204761Y20695239D01*
X47300000Y20790477D01*
X47347619Y20885715D01*
X47395238Y21076191D01*
X47395238Y21219048D01*
X47347619Y21409524D01*
X47300000Y21504762D01*
X47204761Y21600000D01*
X47061904Y21647620D01*
X46966666Y21647620D01*
X46823809Y21600000D01*
X46776190Y21552381D01*
D12*
X40507142Y41271429D02*
X40507142Y40128572D01*
X40607142Y46771429D02*
X40607142Y45628572D01*
X41178571Y46200000D02*
X40035714Y46200000D01*
D13*
X39576190Y63797620D02*
X39576190Y64797620D01*
X39147619Y64702381D02*
X39100000Y64750000D01*
X39004761Y64797620D01*
X38766666Y64797620D01*
X38671428Y64750000D01*
X38623809Y64702381D01*
X38576190Y64607143D01*
X38576190Y64511905D01*
X38623809Y64369048D01*
X39195238Y63797620D01*
X38576190Y63797620D01*
X37576190Y63892858D02*
X37623809Y63845239D01*
X37766666Y63797620D01*
X37861904Y63797620D01*
X38004761Y63845239D01*
X38100000Y63940477D01*
X38147619Y64035715D01*
X38195238Y64226191D01*
X38195238Y64369048D01*
X38147619Y64559524D01*
X38100000Y64654762D01*
X38004761Y64750000D01*
X37861904Y64797620D01*
X37766666Y64797620D01*
X37623809Y64750000D01*
X37576190Y64702381D01*
X22083333Y63928329D02*
X22083333Y64928329D01*
X21702380Y64928329D01*
X21607142Y64880709D01*
X21559523Y64833090D01*
X21511904Y64737852D01*
X21511904Y64594995D01*
X21559523Y64499757D01*
X21607142Y64452138D01*
X21702380Y64404519D01*
X22083333Y64404519D01*
X21178571Y64928329D02*
X20940476Y63928329D01*
X20750000Y64642614D01*
X20559523Y63928329D01*
X20321428Y64928329D01*
X19369047Y63928329D02*
X19702380Y64404519D01*
X19940476Y63928329D02*
X19940476Y64928329D01*
X19559523Y64928329D01*
X19464285Y64880709D01*
X19416666Y64833090D01*
X19369047Y64737852D01*
X19369047Y64594995D01*
X19416666Y64499757D01*
X19464285Y64452138D01*
X19559523Y64404519D01*
X19940476Y64404519D01*
X28473809Y64083334D02*
X27997618Y64083334D01*
X28569047Y63797620D02*
X28235714Y64797620D01*
X27902380Y63797620D01*
X27569047Y63797620D02*
X27569047Y64797620D01*
X27330952Y64797620D01*
X27188094Y64750000D01*
X27092856Y64654762D01*
X27045237Y64559524D01*
X26997618Y64369048D01*
X26997618Y64226191D01*
X27045237Y64035715D01*
X27092856Y63940477D01*
X27188094Y63845239D01*
X27330952Y63797620D01*
X27569047Y63797620D01*
X26569047Y63797620D02*
X26569047Y64797620D01*
X26330952Y64797620D01*
X26188094Y64750000D01*
X26092856Y64654762D01*
X26045237Y64559524D01*
X25997618Y64369048D01*
X25997618Y64226191D01*
X26045237Y64035715D01*
X26092856Y63940477D01*
X26188094Y63845239D01*
X26330952Y63797620D01*
X26569047Y63797620D01*
X24997618Y63797620D02*
X25330952Y64273810D01*
X25569047Y63797620D02*
X25569047Y64797620D01*
X25188094Y64797620D01*
X25092856Y64750000D01*
X25045237Y64702381D01*
X24997618Y64607143D01*
X24997618Y64464286D01*
X25045237Y64369048D01*
X25092856Y64321429D01*
X25188094Y64273810D01*
X25569047Y64273810D01*
X13442857Y56797620D02*
X13442857Y57797620D01*
X13142857Y57083334D01*
X12842857Y57797620D01*
X12842857Y56797620D01*
X12242857Y57797620D02*
X12071428Y57797620D01*
X11985714Y57750000D01*
X11900000Y57654762D01*
X11857142Y57464286D01*
X11857142Y57130953D01*
X11900000Y56940477D01*
X11985714Y56845239D01*
X12071428Y56797620D01*
X12242857Y56797620D01*
X12328571Y56845239D01*
X12414285Y56940477D01*
X12457142Y57130953D01*
X12457142Y57464286D01*
X12414285Y57654762D01*
X12328571Y57750000D01*
X12242857Y57797620D01*
X11514285Y56845239D02*
X11385714Y56797620D01*
X11171428Y56797620D01*
X11085714Y56845239D01*
X11042857Y56892858D01*
X11000000Y56988096D01*
X11000000Y57083334D01*
X11042857Y57178572D01*
X11085714Y57226191D01*
X11171428Y57273810D01*
X11342857Y57321429D01*
X11428571Y57369048D01*
X11471428Y57416667D01*
X11514285Y57511905D01*
X11514285Y57607143D01*
X11471428Y57702381D01*
X11428571Y57750000D01*
X11342857Y57797620D01*
X11128571Y57797620D01*
X11000000Y57750000D01*
X10614285Y56797620D02*
X10614285Y57797620D01*
X8985714Y56892858D02*
X9028571Y56845239D01*
X9157142Y56797620D01*
X9242857Y56797620D01*
X9371428Y56845239D01*
X9457142Y56940477D01*
X9500000Y57035715D01*
X9542857Y57226191D01*
X9542857Y57369048D01*
X9500000Y57559524D01*
X9457142Y57654762D01*
X9371428Y57750000D01*
X9242857Y57797620D01*
X9157142Y57797620D01*
X9028571Y57750000D01*
X8985714Y57702381D01*
X8171428Y56797620D02*
X8600000Y56797620D01*
X8600000Y57797620D01*
X7871428Y56797620D02*
X7871428Y57797620D01*
X7357142Y56797620D02*
X7742857Y57369048D01*
X7357142Y57797620D02*
X7871428Y57226191D01*
X6328571Y57464286D02*
X5685714Y57464286D01*
X6071428Y57892858D02*
X6328571Y56607143D01*
X5771428Y57035715D02*
X6414285Y57035715D01*
X6028571Y56607143D02*
X5771428Y57892858D01*
X4871428Y56892858D02*
X4914285Y56845239D01*
X5042857Y56797620D01*
X5128571Y56797620D01*
X5257142Y56845239D01*
X5342857Y56940477D01*
X5385714Y57035715D01*
X5428571Y57226191D01*
X5428571Y57369048D01*
X5385714Y57559524D01*
X5342857Y57654762D01*
X5257142Y57750000D01*
X5128571Y57797620D01*
X5042857Y57797620D01*
X4914285Y57750000D01*
X4871428Y57702381D01*
X4528571Y56845239D02*
X4400000Y56797620D01*
X4185714Y56797620D01*
X4100000Y56845239D01*
X4057142Y56892858D01*
X4014285Y56988096D01*
X4014285Y57083334D01*
X4057142Y57178572D01*
X4100000Y57226191D01*
X4185714Y57273810D01*
X4357142Y57321429D01*
X4442857Y57369048D01*
X4485714Y57416667D01*
X4528571Y57511905D01*
X4528571Y57607143D01*
X4485714Y57702381D01*
X4442857Y57750000D01*
X4357142Y57797620D01*
X4142857Y57797620D01*
X4014285Y57750000D01*
X48823809Y18795239D02*
X48680952Y18747620D01*
X48442857Y18747620D01*
X48347619Y18795239D01*
X48300000Y18842858D01*
X48252380Y18938096D01*
X48252380Y19033334D01*
X48300000Y19128572D01*
X48347619Y19176191D01*
X48442857Y19223810D01*
X48633333Y19271429D01*
X48728571Y19319048D01*
X48776190Y19366667D01*
X48823809Y19461905D01*
X48823809Y19557143D01*
X48776190Y19652381D01*
X48728571Y19700000D01*
X48633333Y19747620D01*
X48395238Y19747620D01*
X48252380Y19700000D01*
X47823809Y18747620D02*
X47823809Y19747620D01*
X47442857Y19747620D01*
X47347619Y19700000D01*
X47300000Y19652381D01*
X47252380Y19557143D01*
X47252380Y19414286D01*
X47300000Y19319048D01*
X47347619Y19271429D01*
X47442857Y19223810D01*
X47823809Y19223810D01*
X46823809Y18747620D02*
X46823809Y19747620D01*
X39698857Y43904762D02*
X39736952Y43790477D01*
X39775047Y43752381D01*
X39851238Y43714286D01*
X39965523Y43714286D01*
X40041714Y43752381D01*
X40079809Y43790477D01*
X40117904Y43866667D01*
X40117904Y44171429D01*
X39317904Y44171429D01*
X39317904Y43904762D01*
X39356000Y43828572D01*
X39394095Y43790477D01*
X39470285Y43752381D01*
X39546476Y43752381D01*
X39622666Y43790477D01*
X39660761Y43828572D01*
X39698857Y43904762D01*
X39698857Y44171429D01*
X40079809Y43409524D02*
X40117904Y43295239D01*
X40117904Y43104762D01*
X40079809Y43028572D01*
X40041714Y42990477D01*
X39965523Y42952381D01*
X39889333Y42952381D01*
X39813142Y42990477D01*
X39775047Y43028572D01*
X39736952Y43104762D01*
X39698857Y43257143D01*
X39660761Y43333334D01*
X39622666Y43371429D01*
X39546476Y43409524D01*
X39470285Y43409524D01*
X39394095Y43371429D01*
X39356000Y43333334D01*
X39317904Y43257143D01*
X39317904Y43066667D01*
X39356000Y42952381D01*
X40117904Y42190477D02*
X40117904Y42647620D01*
X40117904Y42419048D02*
X39317904Y42419048D01*
X39432190Y42495239D01*
X39508380Y42571429D01*
X39546476Y42647620D01*
X40986857Y43904762D02*
X41024952Y43790477D01*
X41063047Y43752381D01*
X41139238Y43714286D01*
X41253523Y43714286D01*
X41329714Y43752381D01*
X41367809Y43790477D01*
X41405904Y43866667D01*
X41405904Y44171429D01*
X40605904Y44171429D01*
X40605904Y43904762D01*
X40644000Y43828572D01*
X40682095Y43790477D01*
X40758285Y43752381D01*
X40834476Y43752381D01*
X40910666Y43790477D01*
X40948761Y43828572D01*
X40986857Y43904762D01*
X40986857Y44171429D01*
X41367809Y43409524D02*
X41405904Y43295239D01*
X41405904Y43104762D01*
X41367809Y43028572D01*
X41329714Y42990477D01*
X41253523Y42952381D01*
X41177333Y42952381D01*
X41101142Y42990477D01*
X41063047Y43028572D01*
X41024952Y43104762D01*
X40986857Y43257143D01*
X40948761Y43333334D01*
X40910666Y43371429D01*
X40834476Y43409524D01*
X40758285Y43409524D01*
X40682095Y43371429D01*
X40644000Y43333334D01*
X40605904Y43257143D01*
X40605904Y43066667D01*
X40644000Y42952381D01*
X40605904Y42457143D02*
X40605904Y42380953D01*
X40644000Y42304762D01*
X40682095Y42266667D01*
X40758285Y42228572D01*
X40910666Y42190477D01*
X41101142Y42190477D01*
X41253523Y42228572D01*
X41329714Y42266667D01*
X41367809Y42304762D01*
X41405904Y42380953D01*
X41405904Y42457143D01*
X41367809Y42533334D01*
X41329714Y42571429D01*
X41253523Y42609524D01*
X41101142Y42647620D01*
X40910666Y42647620D01*
X40758285Y42609524D01*
X40682095Y42571429D01*
X40644000Y42533334D01*
X40605904Y42457143D01*
X49400000Y42833572D02*
X48638095Y42833572D01*
X48161904Y42833572D02*
X47400000Y42833572D01*
X47780952Y42452620D02*
X47780952Y43214524D01*
X49400000Y41223572D02*
X48638095Y41223572D01*
X49019047Y40842620D02*
X49019047Y41604524D01*
X48161904Y41223572D02*
X47400000Y41223572D01*
%TO.C,L1*%
X15652380Y26466667D02*
X15652380Y26942858D01*
X14652380Y26942858D01*
X15652380Y25609524D02*
X15652380Y26180953D01*
X15652380Y25895239D02*
X14652380Y25895239D01*
X14795238Y25990477D01*
X14890476Y26085715D01*
X14938095Y26180953D01*
%TO.C,R10*%
X16452380Y48642858D02*
X15976190Y48976191D01*
X16452380Y49214286D02*
X15452380Y49214286D01*
X15452380Y48833334D01*
X15500000Y48738096D01*
X15547619Y48690477D01*
X15642857Y48642858D01*
X15785714Y48642858D01*
X15880952Y48690477D01*
X15928571Y48738096D01*
X15976190Y48833334D01*
X15976190Y49214286D01*
X16452380Y47690477D02*
X16452380Y48261905D01*
X16452380Y47976191D02*
X15452380Y47976191D01*
X15595238Y48071429D01*
X15690476Y48166667D01*
X15738095Y48261905D01*
X15452380Y47071429D02*
X15452380Y46976191D01*
X15500000Y46880953D01*
X15547619Y46833334D01*
X15642857Y46785715D01*
X15833333Y46738096D01*
X16071428Y46738096D01*
X16261904Y46785715D01*
X16357142Y46833334D01*
X16404761Y46880953D01*
X16452380Y46976191D01*
X16452380Y47071429D01*
X16404761Y47166667D01*
X16357142Y47214286D01*
X16261904Y47261905D01*
X16071428Y47309524D01*
X15833333Y47309524D01*
X15642857Y47261905D01*
X15547619Y47214286D01*
X15500000Y47166667D01*
X15452380Y47071429D01*
%TO.C,R19*%
X23302380Y-607142D02*
X22826190Y-273809D01*
X23302380Y-35714D02*
X22302380Y-35714D01*
X22302380Y-416666D01*
X22350000Y-511904D01*
X22397619Y-559523D01*
X22492857Y-607142D01*
X22635714Y-607142D01*
X22730952Y-559523D01*
X22778571Y-511904D01*
X22826190Y-416666D01*
X22826190Y-35714D01*
X23302380Y-1559523D02*
X23302380Y-988095D01*
X23302380Y-1273809D02*
X22302380Y-1273809D01*
X22445238Y-1178571D01*
X22540476Y-1083333D01*
X22588095Y-988095D01*
X23302380Y-2035714D02*
X23302380Y-2226190D01*
X23254761Y-2321428D01*
X23207142Y-2369047D01*
X23064285Y-2464285D01*
X22873809Y-2511904D01*
X22492857Y-2511904D01*
X22397619Y-2464285D01*
X22350000Y-2416666D01*
X22302380Y-2321428D01*
X22302380Y-2130952D01*
X22350000Y-2035714D01*
X22397619Y-1988095D01*
X22492857Y-1940476D01*
X22730952Y-1940476D01*
X22826190Y-1988095D01*
X22873809Y-2035714D01*
X22921428Y-2130952D01*
X22921428Y-2321428D01*
X22873809Y-2416666D01*
X22826190Y-2464285D01*
X22730952Y-2511904D01*
%TO.C,R3*%
X44852380Y41266667D02*
X44376190Y41600000D01*
X44852380Y41838096D02*
X43852380Y41838096D01*
X43852380Y41457143D01*
X43900000Y41361905D01*
X43947619Y41314286D01*
X44042857Y41266667D01*
X44185714Y41266667D01*
X44280952Y41314286D01*
X44328571Y41361905D01*
X44376190Y41457143D01*
X44376190Y41838096D01*
X43852380Y40933334D02*
X43852380Y40314286D01*
X44233333Y40647620D01*
X44233333Y40504762D01*
X44280952Y40409524D01*
X44328571Y40361905D01*
X44423809Y40314286D01*
X44661904Y40314286D01*
X44757142Y40361905D01*
X44804761Y40409524D01*
X44852380Y40504762D01*
X44852380Y40790477D01*
X44804761Y40885715D01*
X44757142Y40933334D01*
%TO.C,U3*%
X8952721Y35385552D02*
X9762245Y35385552D01*
X9857483Y35337933D01*
X9905102Y35290314D01*
X9952721Y35195076D01*
X9952721Y35004600D01*
X9905102Y34909362D01*
X9857483Y34861743D01*
X9762245Y34814124D01*
X8952721Y34814124D01*
X8952721Y34433171D02*
X8952721Y33814124D01*
X9333674Y34147457D01*
X9333674Y34004600D01*
X9381293Y33909362D01*
X9428912Y33861743D01*
X9524150Y33814124D01*
X9762245Y33814124D01*
X9857483Y33861743D01*
X9905102Y33909362D01*
X9952721Y34004600D01*
X9952721Y34290314D01*
X9905102Y34385552D01*
X9857483Y34433171D01*
%TO.C,Q1*%
X29895238Y8352381D02*
X29990476Y8400000D01*
X30085714Y8495239D01*
X30228571Y8638096D01*
X30323809Y8685715D01*
X30419047Y8685715D01*
X30371428Y8447620D02*
X30466666Y8495239D01*
X30561904Y8590477D01*
X30609523Y8780953D01*
X30609523Y9114286D01*
X30561904Y9304762D01*
X30466666Y9400000D01*
X30371428Y9447620D01*
X30180952Y9447620D01*
X30085714Y9400000D01*
X29990476Y9304762D01*
X29942857Y9114286D01*
X29942857Y8780953D01*
X29990476Y8590477D01*
X30085714Y8495239D01*
X30180952Y8447620D01*
X30371428Y8447620D01*
X28990476Y8447620D02*
X29561904Y8447620D01*
X29276190Y8447620D02*
X29276190Y9447620D01*
X29371428Y9304762D01*
X29466666Y9209524D01*
X29561904Y9161905D01*
%TO.C,C4*%
X33357142Y44416667D02*
X33404761Y44464286D01*
X33452380Y44607143D01*
X33452380Y44702381D01*
X33404761Y44845239D01*
X33309523Y44940477D01*
X33214285Y44988096D01*
X33023809Y45035715D01*
X32880952Y45035715D01*
X32690476Y44988096D01*
X32595238Y44940477D01*
X32500000Y44845239D01*
X32452380Y44702381D01*
X32452380Y44607143D01*
X32500000Y44464286D01*
X32547619Y44416667D01*
X32785714Y43559524D02*
X33452380Y43559524D01*
X32404761Y43797620D02*
X33119047Y44035715D01*
X33119047Y43416667D01*
%TO.C,R1*%
X11852380Y44966667D02*
X11376190Y45300000D01*
X11852380Y45538096D02*
X10852380Y45538096D01*
X10852380Y45157143D01*
X10900000Y45061905D01*
X10947619Y45014286D01*
X11042857Y44966667D01*
X11185714Y44966667D01*
X11280952Y45014286D01*
X11328571Y45061905D01*
X11376190Y45157143D01*
X11376190Y45538096D01*
X11852380Y44014286D02*
X11852380Y44585715D01*
X11852380Y44300000D02*
X10852380Y44300000D01*
X10995238Y44395239D01*
X11090476Y44490477D01*
X11138095Y44585715D01*
%TO.C,R4*%
X36952380Y46066667D02*
X36476190Y46400000D01*
X36952380Y46638096D02*
X35952380Y46638096D01*
X35952380Y46257143D01*
X36000000Y46161905D01*
X36047619Y46114286D01*
X36142857Y46066667D01*
X36285714Y46066667D01*
X36380952Y46114286D01*
X36428571Y46161905D01*
X36476190Y46257143D01*
X36476190Y46638096D01*
X36285714Y45209524D02*
X36952380Y45209524D01*
X35904761Y45447620D02*
X36619047Y45685715D01*
X36619047Y45066667D01*
%TO.C,D2*%
X23252380Y57788096D02*
X22252380Y57788096D01*
X22252380Y57550000D01*
X22300000Y57407143D01*
X22395238Y57311905D01*
X22490476Y57264286D01*
X22680952Y57216667D01*
X22823809Y57216667D01*
X23014285Y57264286D01*
X23109523Y57311905D01*
X23204761Y57407143D01*
X23252380Y57550000D01*
X23252380Y57788096D01*
X22347619Y56835715D02*
X22300000Y56788096D01*
X22252380Y56692858D01*
X22252380Y56454762D01*
X22300000Y56359524D01*
X22347619Y56311905D01*
X22442857Y56264286D01*
X22538095Y56264286D01*
X22680952Y56311905D01*
X23252380Y56883334D01*
X23252380Y56264286D01*
%TO.C,C8*%
X33416666Y57142858D02*
X33464285Y57095239D01*
X33607142Y57047620D01*
X33702380Y57047620D01*
X33845238Y57095239D01*
X33940476Y57190477D01*
X33988095Y57285715D01*
X34035714Y57476191D01*
X34035714Y57619048D01*
X33988095Y57809524D01*
X33940476Y57904762D01*
X33845238Y58000000D01*
X33702380Y58047620D01*
X33607142Y58047620D01*
X33464285Y58000000D01*
X33416666Y57952381D01*
X32845238Y57619048D02*
X32940476Y57666667D01*
X32988095Y57714286D01*
X33035714Y57809524D01*
X33035714Y57857143D01*
X32988095Y57952381D01*
X32940476Y58000000D01*
X32845238Y58047620D01*
X32654761Y58047620D01*
X32559523Y58000000D01*
X32511904Y57952381D01*
X32464285Y57857143D01*
X32464285Y57809524D01*
X32511904Y57714286D01*
X32559523Y57666667D01*
X32654761Y57619048D01*
X32845238Y57619048D01*
X32940476Y57571429D01*
X32988095Y57523810D01*
X33035714Y57428572D01*
X33035714Y57238096D01*
X32988095Y57142858D01*
X32940476Y57095239D01*
X32845238Y57047620D01*
X32654761Y57047620D01*
X32559523Y57095239D01*
X32511904Y57142858D01*
X32464285Y57238096D01*
X32464285Y57428572D01*
X32511904Y57523810D01*
X32559523Y57571429D01*
X32654761Y57619048D01*
%TO.C,R13*%
X47892857Y53947620D02*
X48226190Y54423810D01*
X48464285Y53947620D02*
X48464285Y54947620D01*
X48083333Y54947620D01*
X47988095Y54900000D01*
X47940476Y54852381D01*
X47892857Y54757143D01*
X47892857Y54614286D01*
X47940476Y54519048D01*
X47988095Y54471429D01*
X48083333Y54423810D01*
X48464285Y54423810D01*
X46940476Y53947620D02*
X47511904Y53947620D01*
X47226190Y53947620D02*
X47226190Y54947620D01*
X47321428Y54804762D01*
X47416666Y54709524D01*
X47511904Y54661905D01*
X46607142Y54947620D02*
X45988095Y54947620D01*
X46321428Y54566667D01*
X46178571Y54566667D01*
X46083333Y54519048D01*
X46035714Y54471429D01*
X45988095Y54376191D01*
X45988095Y54138096D01*
X46035714Y54042858D01*
X46083333Y53995239D01*
X46178571Y53947620D01*
X46464285Y53947620D01*
X46559523Y53995239D01*
X46607142Y54042858D01*
%TO.C,D1*%
X3938095Y25547620D02*
X3938095Y26547620D01*
X3700000Y26547620D01*
X3557142Y26500000D01*
X3461904Y26404762D01*
X3414285Y26309524D01*
X3366666Y26119048D01*
X3366666Y25976191D01*
X3414285Y25785715D01*
X3461904Y25690477D01*
X3557142Y25595239D01*
X3700000Y25547620D01*
X3938095Y25547620D01*
X2414285Y25547620D02*
X2985714Y25547620D01*
X2700000Y25547620D02*
X2700000Y26547620D01*
X2795238Y26404762D01*
X2890476Y26309524D01*
X2985714Y26261905D01*
%TO.C,U2*%
X30261904Y38547620D02*
X30261904Y37738096D01*
X30214285Y37642858D01*
X30166666Y37595239D01*
X30071428Y37547620D01*
X29880952Y37547620D01*
X29785714Y37595239D01*
X29738095Y37642858D01*
X29690476Y37738096D01*
X29690476Y38547620D01*
X29261904Y38452381D02*
X29214285Y38500000D01*
X29119047Y38547620D01*
X28880952Y38547620D01*
X28785714Y38500000D01*
X28738095Y38452381D01*
X28690476Y38357143D01*
X28690476Y38261905D01*
X28738095Y38119048D01*
X29309523Y37547620D01*
X28690476Y37547620D01*
%TO.C,R17*%
X26805357Y12697620D02*
X27138690Y13173810D01*
X27376785Y12697620D02*
X27376785Y13697620D01*
X26995833Y13697620D01*
X26900595Y13650000D01*
X26852976Y13602381D01*
X26805357Y13507143D01*
X26805357Y13364286D01*
X26852976Y13269048D01*
X26900595Y13221429D01*
X26995833Y13173810D01*
X27376785Y13173810D01*
X25852976Y12697620D02*
X26424404Y12697620D01*
X26138690Y12697620D02*
X26138690Y13697620D01*
X26233928Y13554762D01*
X26329166Y13459524D01*
X26424404Y13411905D01*
X25519642Y13697620D02*
X24852976Y13697620D01*
X25281547Y12697620D01*
%TO.C,U5*%
X36261904Y58047620D02*
X36261904Y57238096D01*
X36214285Y57142858D01*
X36166666Y57095239D01*
X36071428Y57047620D01*
X35880952Y57047620D01*
X35785714Y57095239D01*
X35738095Y57142858D01*
X35690476Y57238096D01*
X35690476Y58047620D01*
X34738095Y58047620D02*
X35214285Y58047620D01*
X35261904Y57571429D01*
X35214285Y57619048D01*
X35119047Y57666667D01*
X34880952Y57666667D01*
X34785714Y57619048D01*
X34738095Y57571429D01*
X34690476Y57476191D01*
X34690476Y57238096D01*
X34738095Y57142858D01*
X34785714Y57095239D01*
X34880952Y57047620D01*
X35119047Y57047620D01*
X35214285Y57095239D01*
X35261904Y57142858D01*
%TO.C,R15*%
X31142857Y12697620D02*
X31476190Y13173810D01*
X31714285Y12697620D02*
X31714285Y13697620D01*
X31333333Y13697620D01*
X31238095Y13650000D01*
X31190476Y13602381D01*
X31142857Y13507143D01*
X31142857Y13364286D01*
X31190476Y13269048D01*
X31238095Y13221429D01*
X31333333Y13173810D01*
X31714285Y13173810D01*
X30190476Y12697620D02*
X30761904Y12697620D01*
X30476190Y12697620D02*
X30476190Y13697620D01*
X30571428Y13554762D01*
X30666666Y13459524D01*
X30761904Y13411905D01*
X29285714Y13697620D02*
X29761904Y13697620D01*
X29809523Y13221429D01*
X29761904Y13269048D01*
X29666666Y13316667D01*
X29428571Y13316667D01*
X29333333Y13269048D01*
X29285714Y13221429D01*
X29238095Y13126191D01*
X29238095Y12888096D01*
X29285714Y12792858D01*
X29333333Y12745239D01*
X29428571Y12697620D01*
X29666666Y12697620D01*
X29761904Y12745239D01*
X29809523Y12792858D01*
%TO.C,R7*%
X7902380Y33566667D02*
X7426190Y33900000D01*
X7902380Y34138096D02*
X6902380Y34138096D01*
X6902380Y33757143D01*
X6950000Y33661905D01*
X6997619Y33614286D01*
X7092857Y33566667D01*
X7235714Y33566667D01*
X7330952Y33614286D01*
X7378571Y33661905D01*
X7426190Y33757143D01*
X7426190Y34138096D01*
X6902380Y33233334D02*
X6902380Y32566667D01*
X7902380Y32995239D01*
%TO.C,Q2*%
X25595238Y8352381D02*
X25690476Y8400000D01*
X25785714Y8495239D01*
X25928571Y8638096D01*
X26023809Y8685715D01*
X26119047Y8685715D01*
X26071428Y8447620D02*
X26166666Y8495239D01*
X26261904Y8590477D01*
X26309523Y8780953D01*
X26309523Y9114286D01*
X26261904Y9304762D01*
X26166666Y9400000D01*
X26071428Y9447620D01*
X25880952Y9447620D01*
X25785714Y9400000D01*
X25690476Y9304762D01*
X25642857Y9114286D01*
X25642857Y8780953D01*
X25690476Y8590477D01*
X25785714Y8495239D01*
X25880952Y8447620D01*
X26071428Y8447620D01*
X25261904Y9352381D02*
X25214285Y9400000D01*
X25119047Y9447620D01*
X24880952Y9447620D01*
X24785714Y9400000D01*
X24738095Y9352381D01*
X24690476Y9257143D01*
X24690476Y9161905D01*
X24738095Y9019048D01*
X25309523Y8447620D01*
X24690476Y8447620D01*
%TO.C,C7*%
X31916666Y33642858D02*
X31964285Y33595239D01*
X32107142Y33547620D01*
X32202380Y33547620D01*
X32345238Y33595239D01*
X32440476Y33690477D01*
X32488095Y33785715D01*
X32535714Y33976191D01*
X32535714Y34119048D01*
X32488095Y34309524D01*
X32440476Y34404762D01*
X32345238Y34500000D01*
X32202380Y34547620D01*
X32107142Y34547620D01*
X31964285Y34500000D01*
X31916666Y34452381D01*
X31583333Y34547620D02*
X30916666Y34547620D01*
X31345238Y33547620D01*
%TO.C,C11*%
X942857Y37742858D02*
X990476Y37695239D01*
X1133333Y37647620D01*
X1228571Y37647620D01*
X1371428Y37695239D01*
X1466666Y37790477D01*
X1514285Y37885715D01*
X1561904Y38076191D01*
X1561904Y38219048D01*
X1514285Y38409524D01*
X1466666Y38504762D01*
X1371428Y38600000D01*
X1228571Y38647620D01*
X1133333Y38647620D01*
X990476Y38600000D01*
X942857Y38552381D01*
X-9524Y37647620D02*
X561904Y37647620D01*
X276190Y37647620D02*
X276190Y38647620D01*
X371428Y38504762D01*
X466666Y38409524D01*
X561904Y38361905D01*
X-961905Y37647620D02*
X-390477Y37647620D01*
X-676191Y37647620D02*
X-676191Y38647620D01*
X-580953Y38504762D01*
X-485715Y38409524D01*
X-390477Y38361905D01*
%TO.C,C6*%
X34916666Y33642858D02*
X34964285Y33595239D01*
X35107142Y33547620D01*
X35202380Y33547620D01*
X35345238Y33595239D01*
X35440476Y33690477D01*
X35488095Y33785715D01*
X35535714Y33976191D01*
X35535714Y34119048D01*
X35488095Y34309524D01*
X35440476Y34404762D01*
X35345238Y34500000D01*
X35202380Y34547620D01*
X35107142Y34547620D01*
X34964285Y34500000D01*
X34916666Y34452381D01*
X34059523Y34547620D02*
X34250000Y34547620D01*
X34345238Y34500000D01*
X34392857Y34452381D01*
X34488095Y34309524D01*
X34535714Y34119048D01*
X34535714Y33738096D01*
X34488095Y33642858D01*
X34440476Y33595239D01*
X34345238Y33547620D01*
X34154761Y33547620D01*
X34059523Y33595239D01*
X34011904Y33642858D01*
X33964285Y33738096D01*
X33964285Y33976191D01*
X34011904Y34071429D01*
X34059523Y34119048D01*
X34154761Y34166667D01*
X34345238Y34166667D01*
X34440476Y34119048D01*
X34488095Y34071429D01*
X34535714Y33976191D01*
%TO.C,R6*%
X26416666Y38047620D02*
X26750000Y38523810D01*
X26988095Y38047620D02*
X26988095Y39047620D01*
X26607142Y39047620D01*
X26511904Y39000000D01*
X26464285Y38952381D01*
X26416666Y38857143D01*
X26416666Y38714286D01*
X26464285Y38619048D01*
X26511904Y38571429D01*
X26607142Y38523810D01*
X26988095Y38523810D01*
X25559523Y39047620D02*
X25750000Y39047620D01*
X25845238Y39000000D01*
X25892857Y38952381D01*
X25988095Y38809524D01*
X26035714Y38619048D01*
X26035714Y38238096D01*
X25988095Y38142858D01*
X25940476Y38095239D01*
X25845238Y38047620D01*
X25654761Y38047620D01*
X25559523Y38095239D01*
X25511904Y38142858D01*
X25464285Y38238096D01*
X25464285Y38476191D01*
X25511904Y38571429D01*
X25559523Y38619048D01*
X25654761Y38666667D01*
X25845238Y38666667D01*
X25940476Y38619048D01*
X25988095Y38571429D01*
X26035714Y38476191D01*
%TO.C,R2*%
X44852380Y46066667D02*
X44376190Y46400000D01*
X44852380Y46638096D02*
X43852380Y46638096D01*
X43852380Y46257143D01*
X43900000Y46161905D01*
X43947619Y46114286D01*
X44042857Y46066667D01*
X44185714Y46066667D01*
X44280952Y46114286D01*
X44328571Y46161905D01*
X44376190Y46257143D01*
X44376190Y46638096D01*
X43947619Y45685715D02*
X43900000Y45638096D01*
X43852380Y45542858D01*
X43852380Y45304762D01*
X43900000Y45209524D01*
X43947619Y45161905D01*
X44042857Y45114286D01*
X44138095Y45114286D01*
X44280952Y45161905D01*
X44852380Y45733334D01*
X44852380Y45114286D01*
%TO.C,JP1*%
X28583333Y54047620D02*
X28583333Y53333334D01*
X28630952Y53190477D01*
X28726190Y53095239D01*
X28869047Y53047620D01*
X28964285Y53047620D01*
X28107142Y53047620D02*
X28107142Y54047620D01*
X27726190Y54047620D01*
X27630952Y54000000D01*
X27583333Y53952381D01*
X27535714Y53857143D01*
X27535714Y53714286D01*
X27583333Y53619048D01*
X27630952Y53571429D01*
X27726190Y53523810D01*
X28107142Y53523810D01*
X26583333Y53047620D02*
X27154761Y53047620D01*
X26869047Y53047620D02*
X26869047Y54047620D01*
X26964285Y53904762D01*
X27059523Y53809524D01*
X27154761Y53761905D01*
%TO.C,C2*%
X9107142Y44904167D02*
X9154761Y44951786D01*
X9202380Y45094643D01*
X9202380Y45189881D01*
X9154761Y45332739D01*
X9059523Y45427977D01*
X8964285Y45475596D01*
X8773809Y45523215D01*
X8630952Y45523215D01*
X8440476Y45475596D01*
X8345238Y45427977D01*
X8250000Y45332739D01*
X8202380Y45189881D01*
X8202380Y45094643D01*
X8250000Y44951786D01*
X8297619Y44904167D01*
X8297619Y44523215D02*
X8250000Y44475596D01*
X8202380Y44380358D01*
X8202380Y44142262D01*
X8250000Y44047024D01*
X8297619Y43999405D01*
X8392857Y43951786D01*
X8488095Y43951786D01*
X8630952Y43999405D01*
X9202380Y44570834D01*
X9202380Y43951786D01*
%TO.C,R12*%
X27952380Y48892858D02*
X27476190Y49226191D01*
X27952380Y49464286D02*
X26952380Y49464286D01*
X26952380Y49083334D01*
X27000000Y48988096D01*
X27047619Y48940477D01*
X27142857Y48892858D01*
X27285714Y48892858D01*
X27380952Y48940477D01*
X27428571Y48988096D01*
X27476190Y49083334D01*
X27476190Y49464286D01*
X27952380Y47940477D02*
X27952380Y48511905D01*
X27952380Y48226191D02*
X26952380Y48226191D01*
X27095238Y48321429D01*
X27190476Y48416667D01*
X27238095Y48511905D01*
X27047619Y47559524D02*
X27000000Y47511905D01*
X26952380Y47416667D01*
X26952380Y47178572D01*
X27000000Y47083334D01*
X27047619Y47035715D01*
X27142857Y46988096D01*
X27238095Y46988096D01*
X27380952Y47035715D01*
X27952380Y47607143D01*
X27952380Y46988096D01*
%TO.C,C12*%
X31642857Y16792858D02*
X31690476Y16745239D01*
X31833333Y16697620D01*
X31928571Y16697620D01*
X32071428Y16745239D01*
X32166666Y16840477D01*
X32214285Y16935715D01*
X32261904Y17126191D01*
X32261904Y17269048D01*
X32214285Y17459524D01*
X32166666Y17554762D01*
X32071428Y17650000D01*
X31928571Y17697620D01*
X31833333Y17697620D01*
X31690476Y17650000D01*
X31642857Y17602381D01*
X30690476Y16697620D02*
X31261904Y16697620D01*
X30976190Y16697620D02*
X30976190Y17697620D01*
X31071428Y17554762D01*
X31166666Y17459524D01*
X31261904Y17411905D01*
X30309523Y17602381D02*
X30261904Y17650000D01*
X30166666Y17697620D01*
X29928571Y17697620D01*
X29833333Y17650000D01*
X29785714Y17602381D01*
X29738095Y17507143D01*
X29738095Y17411905D01*
X29785714Y17269048D01*
X30357142Y16697620D01*
X29738095Y16697620D01*
%TO.C,Q3*%
X34295238Y8352381D02*
X34390476Y8400000D01*
X34485714Y8495239D01*
X34628571Y8638096D01*
X34723809Y8685715D01*
X34819047Y8685715D01*
X34771428Y8447620D02*
X34866666Y8495239D01*
X34961904Y8590477D01*
X35009523Y8780953D01*
X35009523Y9114286D01*
X34961904Y9304762D01*
X34866666Y9400000D01*
X34771428Y9447620D01*
X34580952Y9447620D01*
X34485714Y9400000D01*
X34390476Y9304762D01*
X34342857Y9114286D01*
X34342857Y8780953D01*
X34390476Y8590477D01*
X34485714Y8495239D01*
X34580952Y8447620D01*
X34771428Y8447620D01*
X34009523Y9447620D02*
X33390476Y9447620D01*
X33723809Y9066667D01*
X33580952Y9066667D01*
X33485714Y9019048D01*
X33438095Y8971429D01*
X33390476Y8876191D01*
X33390476Y8638096D01*
X33438095Y8542858D01*
X33485714Y8495239D01*
X33580952Y8447620D01*
X33866666Y8447620D01*
X33961904Y8495239D01*
X34009523Y8542858D01*
%TO.C,R5*%
X36877380Y41166667D02*
X36401190Y41500000D01*
X36877380Y41738096D02*
X35877380Y41738096D01*
X35877380Y41357143D01*
X35925000Y41261905D01*
X35972619Y41214286D01*
X36067857Y41166667D01*
X36210714Y41166667D01*
X36305952Y41214286D01*
X36353571Y41261905D01*
X36401190Y41357143D01*
X36401190Y41738096D01*
X35877380Y40261905D02*
X35877380Y40738096D01*
X36353571Y40785715D01*
X36305952Y40738096D01*
X36258333Y40642858D01*
X36258333Y40404762D01*
X36305952Y40309524D01*
X36353571Y40261905D01*
X36448809Y40214286D01*
X36686904Y40214286D01*
X36782142Y40261905D01*
X36829761Y40309524D01*
X36877380Y40404762D01*
X36877380Y40642858D01*
X36829761Y40738096D01*
X36782142Y40785715D01*
%TO.C,R8*%
X7902380Y36929167D02*
X7426190Y37262500D01*
X7902380Y37500596D02*
X6902380Y37500596D01*
X6902380Y37119643D01*
X6950000Y37024405D01*
X6997619Y36976786D01*
X7092857Y36929167D01*
X7235714Y36929167D01*
X7330952Y36976786D01*
X7378571Y37024405D01*
X7426190Y37119643D01*
X7426190Y37500596D01*
X7330952Y36357739D02*
X7283333Y36452977D01*
X7235714Y36500596D01*
X7140476Y36548215D01*
X7092857Y36548215D01*
X6997619Y36500596D01*
X6950000Y36452977D01*
X6902380Y36357739D01*
X6902380Y36167262D01*
X6950000Y36072024D01*
X6997619Y36024405D01*
X7092857Y35976786D01*
X7140476Y35976786D01*
X7235714Y36024405D01*
X7283333Y36072024D01*
X7330952Y36167262D01*
X7330952Y36357739D01*
X7378571Y36452977D01*
X7426190Y36500596D01*
X7521428Y36548215D01*
X7711904Y36548215D01*
X7807142Y36500596D01*
X7854761Y36452977D01*
X7902380Y36357739D01*
X7902380Y36167262D01*
X7854761Y36072024D01*
X7807142Y36024405D01*
X7711904Y35976786D01*
X7521428Y35976786D01*
X7426190Y36024405D01*
X7378571Y36072024D01*
X7330952Y36167262D01*
%TO.C,C1*%
X18666666Y37892858D02*
X18714285Y37845239D01*
X18857142Y37797620D01*
X18952380Y37797620D01*
X19095238Y37845239D01*
X19190476Y37940477D01*
X19238095Y38035715D01*
X19285714Y38226191D01*
X19285714Y38369048D01*
X19238095Y38559524D01*
X19190476Y38654762D01*
X19095238Y38750000D01*
X18952380Y38797620D01*
X18857142Y38797620D01*
X18714285Y38750000D01*
X18666666Y38702381D01*
X17714285Y37797620D02*
X18285714Y37797620D01*
X18000000Y37797620D02*
X18000000Y38797620D01*
X18095238Y38654762D01*
X18190476Y38559524D01*
X18285714Y38511905D01*
%TO.C,R11*%
X22702380Y48892858D02*
X22226190Y49226191D01*
X22702380Y49464286D02*
X21702380Y49464286D01*
X21702380Y49083334D01*
X21750000Y48988096D01*
X21797619Y48940477D01*
X21892857Y48892858D01*
X22035714Y48892858D01*
X22130952Y48940477D01*
X22178571Y48988096D01*
X22226190Y49083334D01*
X22226190Y49464286D01*
X22702380Y47940477D02*
X22702380Y48511905D01*
X22702380Y48226191D02*
X21702380Y48226191D01*
X21845238Y48321429D01*
X21940476Y48416667D01*
X21988095Y48511905D01*
X22702380Y46988096D02*
X22702380Y47559524D01*
X22702380Y47273810D02*
X21702380Y47273810D01*
X21845238Y47369048D01*
X21940476Y47464286D01*
X21988095Y47559524D01*
%TO.C,D3*%
X25988095Y17547620D02*
X25988095Y18547620D01*
X25750000Y18547620D01*
X25607142Y18500000D01*
X25511904Y18404762D01*
X25464285Y18309524D01*
X25416666Y18119048D01*
X25416666Y17976191D01*
X25464285Y17785715D01*
X25511904Y17690477D01*
X25607142Y17595239D01*
X25750000Y17547620D01*
X25988095Y17547620D01*
X25083333Y18547620D02*
X24464285Y18547620D01*
X24797619Y18166667D01*
X24654761Y18166667D01*
X24559523Y18119048D01*
X24511904Y18071429D01*
X24464285Y17976191D01*
X24464285Y17738096D01*
X24511904Y17642858D01*
X24559523Y17595239D01*
X24654761Y17547620D01*
X24940476Y17547620D01*
X25035714Y17595239D01*
X25083333Y17642858D01*
%TO.C,R16*%
X28852380Y-557142D02*
X28376190Y-223809D01*
X28852380Y14286D02*
X27852380Y14286D01*
X27852380Y-366666D01*
X27900000Y-461904D01*
X27947619Y-509523D01*
X28042857Y-557142D01*
X28185714Y-557142D01*
X28280952Y-509523D01*
X28328571Y-461904D01*
X28376190Y-366666D01*
X28376190Y14286D01*
X28852380Y-1509523D02*
X28852380Y-938095D01*
X28852380Y-1223809D02*
X27852380Y-1223809D01*
X27995238Y-1128571D01*
X28090476Y-1033333D01*
X28138095Y-938095D01*
X27852380Y-2366666D02*
X27852380Y-2176190D01*
X27900000Y-2080952D01*
X27947619Y-2033333D01*
X28090476Y-1938095D01*
X28280952Y-1890476D01*
X28661904Y-1890476D01*
X28757142Y-1938095D01*
X28804761Y-1985714D01*
X28852380Y-2080952D01*
X28852380Y-2271428D01*
X28804761Y-2366666D01*
X28757142Y-2414285D01*
X28661904Y-2461904D01*
X28423809Y-2461904D01*
X28328571Y-2414285D01*
X28280952Y-2366666D01*
X28233333Y-2271428D01*
X28233333Y-2080952D01*
X28280952Y-1985714D01*
X28328571Y-1938095D01*
X28423809Y-1890476D01*
%TO.C,R14*%
X47892857Y56047620D02*
X48226190Y56523810D01*
X48464285Y56047620D02*
X48464285Y57047620D01*
X48083333Y57047620D01*
X47988095Y57000000D01*
X47940476Y56952381D01*
X47892857Y56857143D01*
X47892857Y56714286D01*
X47940476Y56619048D01*
X47988095Y56571429D01*
X48083333Y56523810D01*
X48464285Y56523810D01*
X46940476Y56047620D02*
X47511904Y56047620D01*
X47226190Y56047620D02*
X47226190Y57047620D01*
X47321428Y56904762D01*
X47416666Y56809524D01*
X47511904Y56761905D01*
X46083333Y56714286D02*
X46083333Y56047620D01*
X46321428Y57095239D02*
X46559523Y56380953D01*
X45940476Y56380953D01*
%TO.C,C9*%
X22416666Y54392858D02*
X22464285Y54345239D01*
X22607142Y54297620D01*
X22702380Y54297620D01*
X22845238Y54345239D01*
X22940476Y54440477D01*
X22988095Y54535715D01*
X23035714Y54726191D01*
X23035714Y54869048D01*
X22988095Y55059524D01*
X22940476Y55154762D01*
X22845238Y55250000D01*
X22702380Y55297620D01*
X22607142Y55297620D01*
X22464285Y55250000D01*
X22416666Y55202381D01*
X21940476Y54297620D02*
X21750000Y54297620D01*
X21654761Y54345239D01*
X21607142Y54392858D01*
X21511904Y54535715D01*
X21464285Y54726191D01*
X21464285Y55107143D01*
X21511904Y55202381D01*
X21559523Y55250000D01*
X21654761Y55297620D01*
X21845238Y55297620D01*
X21940476Y55250000D01*
X21988095Y55202381D01*
X22035714Y55107143D01*
X22035714Y54869048D01*
X21988095Y54773810D01*
X21940476Y54726191D01*
X21845238Y54678572D01*
X21654761Y54678572D01*
X21559523Y54726191D01*
X21511904Y54773810D01*
X21464285Y54869048D01*
%TO.C,U1*%
X23261904Y38797620D02*
X23261904Y37988096D01*
X23214285Y37892858D01*
X23166666Y37845239D01*
X23071428Y37797620D01*
X22880952Y37797620D01*
X22785714Y37845239D01*
X22738095Y37892858D01*
X22690476Y37988096D01*
X22690476Y38797620D01*
X21690476Y37797620D02*
X22261904Y37797620D01*
X21976190Y37797620D02*
X21976190Y38797620D01*
X22071428Y38654762D01*
X22166666Y38559524D01*
X22261904Y38511905D01*
%TO.C,R18*%
X35142857Y12697620D02*
X35476190Y13173810D01*
X35714285Y12697620D02*
X35714285Y13697620D01*
X35333333Y13697620D01*
X35238095Y13650000D01*
X35190476Y13602381D01*
X35142857Y13507143D01*
X35142857Y13364286D01*
X35190476Y13269048D01*
X35238095Y13221429D01*
X35333333Y13173810D01*
X35714285Y13173810D01*
X34190476Y12697620D02*
X34761904Y12697620D01*
X34476190Y12697620D02*
X34476190Y13697620D01*
X34571428Y13554762D01*
X34666666Y13459524D01*
X34761904Y13411905D01*
X33619047Y13269048D02*
X33714285Y13316667D01*
X33761904Y13364286D01*
X33809523Y13459524D01*
X33809523Y13507143D01*
X33761904Y13602381D01*
X33714285Y13650000D01*
X33619047Y13697620D01*
X33428571Y13697620D01*
X33333333Y13650000D01*
X33285714Y13602381D01*
X33238095Y13507143D01*
X33238095Y13459524D01*
X33285714Y13364286D01*
X33333333Y13316667D01*
X33428571Y13269048D01*
X33619047Y13269048D01*
X33714285Y13221429D01*
X33761904Y13173810D01*
X33809523Y13078572D01*
X33809523Y12888096D01*
X33761904Y12792858D01*
X33714285Y12745239D01*
X33619047Y12697620D01*
X33428571Y12697620D01*
X33333333Y12745239D01*
X33285714Y12792858D01*
X33238095Y12888096D01*
X33238095Y13078572D01*
X33285714Y13173810D01*
X33333333Y13221429D01*
X33428571Y13269048D01*
%TO.C,R9*%
X4552380Y35966667D02*
X4076190Y36300000D01*
X4552380Y36538096D02*
X3552380Y36538096D01*
X3552380Y36157143D01*
X3600000Y36061905D01*
X3647619Y36014286D01*
X3742857Y35966667D01*
X3885714Y35966667D01*
X3980952Y36014286D01*
X4028571Y36061905D01*
X4076190Y36157143D01*
X4076190Y36538096D01*
X4552380Y35490477D02*
X4552380Y35300000D01*
X4504761Y35204762D01*
X4457142Y35157143D01*
X4314285Y35061905D01*
X4123809Y35014286D01*
X3742857Y35014286D01*
X3647619Y35061905D01*
X3600000Y35109524D01*
X3552380Y35204762D01*
X3552380Y35395239D01*
X3600000Y35490477D01*
X3647619Y35538096D01*
X3742857Y35585715D01*
X3980952Y35585715D01*
X4076190Y35538096D01*
X4123809Y35490477D01*
X4171428Y35395239D01*
X4171428Y35204762D01*
X4123809Y35109524D01*
X4076190Y35061905D01*
X3980952Y35014286D01*
%TO.C,C3*%
X24607142Y44416667D02*
X24654761Y44464286D01*
X24702380Y44607143D01*
X24702380Y44702381D01*
X24654761Y44845239D01*
X24559523Y44940477D01*
X24464285Y44988096D01*
X24273809Y45035715D01*
X24130952Y45035715D01*
X23940476Y44988096D01*
X23845238Y44940477D01*
X23750000Y44845239D01*
X23702380Y44702381D01*
X23702380Y44607143D01*
X23750000Y44464286D01*
X23797619Y44416667D01*
X23702380Y44083334D02*
X23702380Y43464286D01*
X24083333Y43797620D01*
X24083333Y43654762D01*
X24130952Y43559524D01*
X24178571Y43511905D01*
X24273809Y43464286D01*
X24511904Y43464286D01*
X24607142Y43511905D01*
X24654761Y43559524D01*
X24702380Y43654762D01*
X24702380Y43940477D01*
X24654761Y44035715D01*
X24607142Y44083334D01*
%TO.C,C10*%
X-242858Y29442858D02*
X-195239Y29490477D01*
X-147620Y29633334D01*
X-147620Y29728572D01*
X-195239Y29871429D01*
X-290477Y29966667D01*
X-385715Y30014286D01*
X-576191Y30061905D01*
X-719048Y30061905D01*
X-909524Y30014286D01*
X-1004762Y29966667D01*
X-1100000Y29871429D01*
X-1147620Y29728572D01*
X-1147620Y29633334D01*
X-1100000Y29490477D01*
X-1052381Y29442858D01*
X-147620Y28490477D02*
X-147620Y29061905D01*
X-147620Y28776191D02*
X-1147620Y28776191D01*
X-1004762Y28871429D01*
X-909524Y28966667D01*
X-861905Y29061905D01*
X-1147620Y27871429D02*
X-1147620Y27776191D01*
X-1100000Y27680953D01*
X-1052381Y27633334D01*
X-957143Y27585715D01*
X-766667Y27538096D01*
X-528572Y27538096D01*
X-338096Y27585715D01*
X-242858Y27633334D01*
X-195239Y27680953D01*
X-147620Y27776191D01*
X-147620Y27871429D01*
X-195239Y27966667D01*
X-242858Y28014286D01*
X-338096Y28061905D01*
X-528572Y28109524D01*
X-766667Y28109524D01*
X-957143Y28061905D01*
X-1052381Y28014286D01*
X-1100000Y27966667D01*
X-1147620Y27871429D01*
%TO.C,BZ1*%
X17880952Y7568567D02*
X17738095Y7520948D01*
X17690476Y7473329D01*
X17642857Y7378091D01*
X17642857Y7235234D01*
X17690476Y7139996D01*
X17738095Y7092377D01*
X17833333Y7044758D01*
X18214285Y7044758D01*
X18214285Y8044758D01*
X17880952Y8044758D01*
X17785714Y7997138D01*
X17738095Y7949519D01*
X17690476Y7854281D01*
X17690476Y7759043D01*
X17738095Y7663805D01*
X17785714Y7616186D01*
X17880952Y7568567D01*
X18214285Y7568567D01*
X17309523Y8044758D02*
X16642857Y8044758D01*
X17309523Y7044758D01*
X16642857Y7044758D01*
X15738095Y7044758D02*
X16309523Y7044758D01*
X16023809Y7044758D02*
X16023809Y8044758D01*
X16119047Y7901900D01*
X16214285Y7806662D01*
X16309523Y7759043D01*
X14080952Y-2254290D02*
X13319047Y-2254290D01*
X13700000Y-2635242D02*
X13700000Y-1873338D01*
%TO.C,C5*%
X15857142Y33066667D02*
X15904761Y33114286D01*
X15952380Y33257143D01*
X15952380Y33352381D01*
X15904761Y33495239D01*
X15809523Y33590477D01*
X15714285Y33638096D01*
X15523809Y33685715D01*
X15380952Y33685715D01*
X15190476Y33638096D01*
X15095238Y33590477D01*
X15000000Y33495239D01*
X14952380Y33352381D01*
X14952380Y33257143D01*
X15000000Y33114286D01*
X15047619Y33066667D01*
X14952380Y32161905D02*
X14952380Y32638096D01*
X15428571Y32685715D01*
X15380952Y32638096D01*
X15333333Y32542858D01*
X15333333Y32304762D01*
X15380952Y32209524D01*
X15428571Y32161905D01*
X15523809Y32114286D01*
X15761904Y32114286D01*
X15857142Y32161905D01*
X15904761Y32209524D01*
X15952380Y32304762D01*
X15952380Y32542858D01*
X15904761Y32638096D01*
X15857142Y32685715D01*
D10*
%TO.C,L1*%
X7500000Y25600000D02*
X7500000Y26050000D01*
X13700000Y25600000D02*
X13700000Y26050000D01*
X13700000Y31800000D02*
X7500000Y31800000D01*
X13700000Y31800000D02*
X13700000Y31350000D01*
X7500000Y25600000D02*
X13700000Y25600000D01*
X7500000Y31800000D02*
X7500000Y31350000D01*
%TO.C,R10*%
X16890000Y47908578D02*
X16890000Y47391422D01*
X18310000Y47908578D02*
X18310000Y47391422D01*
%TO.C,R19*%
X23765000Y-1022936D02*
X23765000Y-1477064D01*
X25235000Y-1022936D02*
X25235000Y-1477064D01*
%TO.C,R3*%
X43210000Y41958578D02*
X43210000Y41441422D01*
X41790000Y41958578D02*
X41790000Y41441422D01*
%TO.C,U3*%
X10440341Y33743647D02*
X10440341Y36173647D01*
X13510341Y35503647D02*
X13510341Y33743647D01*
%TO.C,Q1*%
X32147500Y6250000D02*
X32147500Y6900000D01*
X29027500Y6250000D02*
X29027500Y7925000D01*
X29027500Y6250000D02*
X29027500Y5600000D01*
X32147500Y6250000D02*
X32147500Y5600000D01*
%TO.C,C4*%
X30238748Y45235000D02*
X30761252Y45235000D01*
X30238748Y43765000D02*
X30761252Y43765000D01*
%TO.C,R1*%
X10690000Y48258578D02*
X10690000Y47741422D01*
X12110000Y48258578D02*
X12110000Y47741422D01*
%TO.C,R4*%
X37490000Y45358578D02*
X37490000Y44841422D01*
X38910000Y45358578D02*
X38910000Y44841422D01*
%TO.C,D2*%
X28550000Y58050000D02*
X28550000Y56050000D01*
X28550000Y56050000D02*
X24250000Y56050000D01*
X24250000Y58050000D02*
X28550000Y58050000D01*
%TO.C,C8*%
X30191422Y57760000D02*
X30708578Y57760000D01*
X30191422Y56340000D02*
X30708578Y56340000D01*
%TO.C,R13*%
X44258578Y53790000D02*
X43741422Y53790000D01*
X44258578Y55210000D02*
X43741422Y55210000D01*
%TO.C,D1*%
X1350000Y33800000D02*
X4650000Y33800000D01*
X1350000Y33800000D02*
X1350000Y28400000D01*
X4650000Y33800000D02*
X4650000Y28400000D01*
%TO.C,U2*%
X32460000Y40850000D02*
X32460000Y40050000D01*
X29340000Y40850000D02*
X29340000Y40050000D01*
X32460000Y40850000D02*
X32460000Y41650000D01*
X29340000Y40850000D02*
X29340000Y42650000D01*
%TO.C,R17*%
X26389564Y12235000D02*
X25935436Y12235000D01*
X26389564Y10765000D02*
X25935436Y10765000D01*
D13*
%TO.C,U5*%
X40025000Y56975000D02*
X36775000Y56975000D01*
X40025000Y53725000D02*
X36775000Y53725000D01*
X40025000Y56850000D02*
X41100000Y56850000D01*
X36775000Y53725000D02*
X36775000Y53950000D01*
X40025000Y53725000D02*
X40025000Y53950000D01*
X36775000Y56975000D02*
X36775000Y56750000D01*
X40025000Y56975000D02*
X40025000Y56850000D01*
D10*
%TO.C,R15*%
X30727064Y12235000D02*
X30272936Y12235000D01*
X30727064Y10765000D02*
X30272936Y10765000D01*
%TO.C,R7*%
X5090000Y33141422D02*
X5090000Y33658578D01*
X6510000Y33141422D02*
X6510000Y33658578D01*
%TO.C,Q2*%
X24690000Y6250000D02*
X24690000Y7925000D01*
X24690000Y6250000D02*
X24690000Y5600000D01*
X27810000Y6250000D02*
X27810000Y5600000D01*
X27810000Y6250000D02*
X27810000Y6900000D01*
%TO.C,C7*%
X32485000Y36761252D02*
X32485000Y36238748D01*
X31015000Y36761252D02*
X31015000Y36238748D01*
%TO.C,C11*%
X710000Y36058578D02*
X710000Y35541422D01*
X-710000Y36058578D02*
X-710000Y35541422D01*
%TO.C,C6*%
X35485000Y36761252D02*
X35485000Y36238748D01*
X34015000Y36761252D02*
X34015000Y36238748D01*
%TO.C,R6*%
X26860000Y41158578D02*
X26860000Y40641422D01*
X25440000Y41158578D02*
X25440000Y40641422D01*
%TO.C,R2*%
X43210000Y45396078D02*
X43210000Y44878922D01*
X41790000Y45396078D02*
X41790000Y44878922D01*
%TO.C,JP1*%
X29800000Y55607500D02*
X30100000Y55907500D01*
X28950000Y54707500D02*
X28950000Y54107500D01*
X33050000Y54107500D02*
X33050000Y54707500D01*
X29600000Y53407500D02*
X32400000Y53407500D01*
X29800000Y55607500D02*
X29500000Y55907500D01*
X32400000Y55407500D02*
X29600000Y55407500D01*
X29500000Y55907500D02*
X30100000Y55907500D01*
X29650000Y55407500D02*
G75*
G03*
X28950000Y54707500I-1J-699999D01*
G01*
X28950000Y54107500D02*
G75*
G03*
X29650000Y53407500I699999J-1D01*
G01*
X33050000Y54707500D02*
G75*
G03*
X32350000Y55407500I-700000J0D01*
G01*
X32350000Y53407500D02*
G75*
G03*
X33050000Y54107500I0J700000D01*
G01*
%TO.C,C2*%
X9460000Y48258578D02*
X9460000Y47741422D01*
X8040000Y48258578D02*
X8040000Y47741422D01*
%TO.C,R12*%
X28490000Y47921078D02*
X28490000Y47403922D01*
X29910000Y47921078D02*
X29910000Y47403922D01*
%TO.C,C12*%
X31227064Y16235000D02*
X30772936Y16235000D01*
X31227064Y14765000D02*
X30772936Y14765000D01*
%TO.C,Q3*%
X36560000Y6250000D02*
X36560000Y5600000D01*
X36560000Y6250000D02*
X36560000Y6900000D01*
X33440000Y6250000D02*
X33440000Y7925000D01*
X33440000Y6250000D02*
X33440000Y5600000D01*
%TO.C,R5*%
X37490000Y41921078D02*
X37490000Y41403922D01*
X38910000Y41921078D02*
X38910000Y41403922D01*
%TO.C,R8*%
X6510000Y36503922D02*
X6510000Y37021078D01*
X5090000Y36503922D02*
X5090000Y37021078D01*
%TO.C,C1*%
X19285000Y41011252D02*
X19285000Y40488748D01*
X17815000Y41011252D02*
X17815000Y40488748D01*
%TO.C,R11*%
X24710000Y47908578D02*
X24710000Y47391422D01*
X23290000Y47908578D02*
X23290000Y47391422D01*
%TO.C,D3*%
X28650000Y17150000D02*
X28650000Y13850000D01*
X28650000Y17150000D02*
X23250000Y17150000D01*
X28650000Y13850000D02*
X23250000Y13850000D01*
%TO.C,R16*%
X27485000Y-1022936D02*
X27485000Y-1477064D01*
X26015000Y-1022936D02*
X26015000Y-1477064D01*
%TO.C,R14*%
X44258578Y55840000D02*
X43741422Y55840000D01*
X44258578Y57260000D02*
X43741422Y57260000D01*
%TO.C,C9*%
X25258578Y54090000D02*
X24741422Y54090000D01*
X25258578Y55510000D02*
X24741422Y55510000D01*
%TO.C,U1*%
X22600000Y39240000D02*
X21800000Y39240000D01*
X22600000Y39240000D02*
X23400000Y39240000D01*
X22600000Y42360000D02*
X24400000Y42360000D01*
X22600000Y42360000D02*
X21800000Y42360000D01*
%TO.C,R18*%
X34727064Y12235000D02*
X34272936Y12235000D01*
X34727064Y10765000D02*
X34272936Y10765000D01*
%TO.C,R9*%
X3110000Y35478922D02*
X3110000Y35996078D01*
X1690000Y35478922D02*
X1690000Y35996078D01*
%TO.C,C3*%
X27011252Y45235000D02*
X26488748Y45235000D01*
X27011252Y43765000D02*
X26488748Y43765000D01*
%TO.C,C10*%
X710000Y31978922D02*
X710000Y32496078D01*
X-710000Y31978922D02*
X-710000Y32496078D01*
%TO.C,BZ1*%
X21620000Y1997138D02*
G75*
G03*
X21620000Y1997138I-4620000J0D01*
G01*
%TO.C,C5*%
X14790000Y30496078D02*
X14790000Y29978922D01*
X16210000Y30496078D02*
X16210000Y29978922D01*
%TD*%
M02*
