%TF.GenerationSoftware,KiCad,Pcbnew,6.0.11+dfsg-1~bpo11+1*%
%TF.CreationDate,2023-06-13T23:24:27+00:00*%
%TF.ProjectId,OLED01,4f4c4544-3031-42e6-9b69-6361645f7063,rev?*%
%TF.SameCoordinates,PX72ba1e0PY737d6e0*%
%TF.FileFunction,Profile,NP*%
%FSLAX46Y46*%
G04 Gerber Fmt 4.6, Leading zero omitted, Abs format (unit mm)*
G04 Created by KiCad (PCBNEW 6.0.11+dfsg-1~bpo11+1) date 2023-06-13 23:24:27*
%MOMM*%
%LPD*%
G01*
G04 APERTURE LIST*
%TA.AperFunction,Profile*%
%ADD10C,0.050000*%
%TD*%
G04 APERTURE END LIST*
D10*
X-4980000Y-4980000D02*
X55780000Y-4980000D01*
X55780000Y-4980000D02*
X55780000Y65940000D01*
X55780000Y65940000D02*
X-4980000Y65940000D01*
X-4980000Y65940000D02*
X-4980000Y-4980000D01*
%TO.C,D4*%
X29887500Y-945000D02*
X31287500Y-945000D01*
X31787500Y-445000D02*
X31787500Y755000D01*
X29887500Y1255000D02*
X31287500Y1255000D01*
X29387500Y-445000D02*
X29387500Y755000D01*
X29387500Y-445000D02*
G75*
G03*
X29887500Y-945000I500001J1D01*
G01*
X31787500Y755000D02*
G75*
G03*
X31287500Y1255000I-500000J0D01*
G01*
X31287500Y-945000D02*
G75*
G03*
X31787500Y-445000I-1J500001D01*
G01*
X29887500Y1255000D02*
G75*
G03*
X29387500Y755000I0J-500000D01*
G01*
%TO.C,D5*%
X33800000Y-350000D02*
X33800000Y850000D01*
X34300000Y-850000D02*
X35700000Y-850000D01*
X34300000Y1350000D02*
X35700000Y1350000D01*
X36200000Y-350000D02*
X36200000Y850000D01*
X33800000Y-350000D02*
G75*
G03*
X34300000Y-850000I500001J1D01*
G01*
X36200000Y850000D02*
G75*
G03*
X35700000Y1350000I-500000J0D01*
G01*
X34300000Y1350000D02*
G75*
G03*
X33800000Y850000I0J-500000D01*
G01*
X35700000Y-850000D02*
G75*
G03*
X36200000Y-350000I-1J500001D01*
G01*
%TD*%
M02*
