%TF.GenerationSoftware,KiCad,Pcbnew,6.0.11+dfsg-1~bpo11+1*%
%TF.CreationDate,2023-06-14T17:58:32+00:00*%
%TF.ProjectId,OLED01,4f4c4544-3031-42e6-9b69-6361645f7063,rev?*%
%TF.SameCoordinates,PX72ba1e0PY737d6e0*%
%TF.FileFunction,Legend,Top*%
%TF.FilePolarity,Positive*%
%FSLAX46Y46*%
G04 Gerber Fmt 4.6, Leading zero omitted, Abs format (unit mm)*
G04 Created by KiCad (PCBNEW 6.0.11+dfsg-1~bpo11+1) date 2023-06-14 17:58:32*
%MOMM*%
%LPD*%
G01*
G04 APERTURE LIST*
%ADD10C,0.120000*%
%ADD11C,0.150000*%
%ADD12C,0.200000*%
%ADD13C,0.300000*%
%ADD14C,0.050000*%
%ADD15R,1.524000X1.524000*%
G04 APERTURE END LIST*
D10*
X26700000Y4300000D02*
X35300000Y4300000D01*
X33400000Y3700000D02*
X30700000Y3700000D01*
X24400000Y2000000D02*
X26700000Y4300000D01*
X35300000Y4300000D02*
X36800000Y2800000D01*
X34300000Y2800000D02*
X33400000Y3700000D01*
X30700000Y3700000D02*
X29000000Y2000000D01*
D11*
X3764285Y57464286D02*
X4407142Y57464286D01*
X4021428Y57892858D02*
X3764285Y56607143D01*
X4321428Y57035715D02*
X3678571Y57035715D01*
X4064285Y56607143D02*
X4321428Y57892858D01*
X5221428Y56892858D02*
X5178571Y56845239D01*
X5050000Y56797620D01*
X4964285Y56797620D01*
X4835714Y56845239D01*
X4750000Y56940477D01*
X4707142Y57035715D01*
X4664285Y57226191D01*
X4664285Y57369048D01*
X4707142Y57559524D01*
X4750000Y57654762D01*
X4835714Y57750000D01*
X4964285Y57797620D01*
X5050000Y57797620D01*
X5178571Y57750000D01*
X5221428Y57702381D01*
X5564285Y56845239D02*
X5692857Y56797620D01*
X5907142Y56797620D01*
X5992857Y56845239D01*
X6035714Y56892858D01*
X6078571Y56988096D01*
X6078571Y57083334D01*
X6035714Y57178572D01*
X5992857Y57226191D01*
X5907142Y57273810D01*
X5735714Y57321429D01*
X5650000Y57369048D01*
X5607142Y57416667D01*
X5564285Y57511905D01*
X5564285Y57607143D01*
X5607142Y57702381D01*
X5650000Y57750000D01*
X5735714Y57797620D01*
X5950000Y57797620D01*
X6078571Y57750000D01*
X7664285Y56892858D02*
X7621428Y56845239D01*
X7492857Y56797620D01*
X7407142Y56797620D01*
X7278571Y56845239D01*
X7192857Y56940477D01*
X7150000Y57035715D01*
X7107142Y57226191D01*
X7107142Y57369048D01*
X7150000Y57559524D01*
X7192857Y57654762D01*
X7278571Y57750000D01*
X7407142Y57797620D01*
X7492857Y57797620D01*
X7621428Y57750000D01*
X7664285Y57702381D01*
X8478571Y56797620D02*
X8050000Y56797620D01*
X8050000Y57797620D01*
X8778571Y56797620D02*
X8778571Y57797620D01*
X9292857Y56797620D02*
X8907142Y57369048D01*
X9292857Y57797620D02*
X8778571Y57226191D01*
X10364285Y56797620D02*
X10364285Y57797620D01*
X10664285Y57083334D01*
X10964285Y57797620D01*
X10964285Y56797620D01*
X11564285Y57797620D02*
X11735714Y57797620D01*
X11821428Y57750000D01*
X11907142Y57654762D01*
X11950000Y57464286D01*
X11950000Y57130953D01*
X11907142Y56940477D01*
X11821428Y56845239D01*
X11735714Y56797620D01*
X11564285Y56797620D01*
X11478571Y56845239D01*
X11392857Y56940477D01*
X11350000Y57130953D01*
X11350000Y57464286D01*
X11392857Y57654762D01*
X11478571Y57750000D01*
X11564285Y57797620D01*
X12292857Y56845239D02*
X12421428Y56797620D01*
X12635714Y56797620D01*
X12721428Y56845239D01*
X12764285Y56892858D01*
X12807142Y56988096D01*
X12807142Y57083334D01*
X12764285Y57178572D01*
X12721428Y57226191D01*
X12635714Y57273810D01*
X12464285Y57321429D01*
X12378571Y57369048D01*
X12335714Y57416667D01*
X12292857Y57511905D01*
X12292857Y57607143D01*
X12335714Y57702381D01*
X12378571Y57750000D01*
X12464285Y57797620D01*
X12678571Y57797620D01*
X12807142Y57750000D01*
X13192857Y56797620D02*
X13192857Y57797620D01*
X25278571Y57797620D02*
X25835714Y57797620D01*
X25535714Y57416667D01*
X25664285Y57416667D01*
X25750000Y57369048D01*
X25792857Y57321429D01*
X25835714Y57226191D01*
X25835714Y56988096D01*
X25792857Y56892858D01*
X25750000Y56845239D01*
X25664285Y56797620D01*
X25407142Y56797620D01*
X25321428Y56845239D01*
X25278571Y56892858D01*
X26135714Y57464286D02*
X26350000Y56797620D01*
X26564285Y57464286D01*
X26907142Y57178572D02*
X27592857Y57178572D01*
X28450000Y57797620D02*
X28021428Y57797620D01*
X27978571Y57321429D01*
X28021428Y57369048D01*
X28107142Y57416667D01*
X28321428Y57416667D01*
X28407142Y57369048D01*
X28450000Y57321429D01*
X28492857Y57226191D01*
X28492857Y56988096D01*
X28450000Y56892858D01*
X28407142Y56845239D01*
X28321428Y56797620D01*
X28107142Y56797620D01*
X28021428Y56845239D01*
X27978571Y56892858D01*
X28792857Y57464286D02*
X29007142Y56797620D01*
X29221428Y57464286D01*
D12*
X3428571Y64014286D02*
X3600000Y63957143D01*
X3885714Y63957143D01*
X4000000Y64014286D01*
X4057142Y64071429D01*
X4114285Y64185715D01*
X4114285Y64300000D01*
X4057142Y64414286D01*
X4000000Y64471429D01*
X3885714Y64528572D01*
X3657142Y64585715D01*
X3542857Y64642858D01*
X3485714Y64700000D01*
X3428571Y64814286D01*
X3428571Y64928572D01*
X3485714Y65042858D01*
X3542857Y65100000D01*
X3657142Y65157143D01*
X3942857Y65157143D01*
X4114285Y65100000D01*
X4628571Y63957143D02*
X4628571Y65157143D01*
X5085714Y65157143D01*
X5200000Y65100000D01*
X5257142Y65042858D01*
X5314285Y64928572D01*
X5314285Y64757143D01*
X5257142Y64642858D01*
X5200000Y64585715D01*
X5085714Y64528572D01*
X4628571Y64528572D01*
X5828571Y63957143D02*
X5828571Y65157143D01*
X7314285Y63957143D02*
X7314285Y64757143D01*
X7314285Y64642858D02*
X7371428Y64700000D01*
X7485714Y64757143D01*
X7657142Y64757143D01*
X7771428Y64700000D01*
X7828571Y64585715D01*
X7828571Y63957143D01*
X7828571Y64585715D02*
X7885714Y64700000D01*
X8000000Y64757143D01*
X8171428Y64757143D01*
X8285714Y64700000D01*
X8342857Y64585715D01*
X8342857Y63957143D01*
X9428571Y63957143D02*
X9428571Y64585715D01*
X9371428Y64700000D01*
X9257142Y64757143D01*
X9028571Y64757143D01*
X8914285Y64700000D01*
X9428571Y64014286D02*
X9314285Y63957143D01*
X9028571Y63957143D01*
X8914285Y64014286D01*
X8857142Y64128572D01*
X8857142Y64242858D01*
X8914285Y64357143D01*
X9028571Y64414286D01*
X9314285Y64414286D01*
X9428571Y64471429D01*
X9885714Y63957143D02*
X10514285Y64757143D01*
X9885714Y64757143D02*
X10514285Y63957143D01*
X11771428Y65157143D02*
X12514285Y65157143D01*
X12114285Y64700000D01*
X12285714Y64700000D01*
X12400000Y64642858D01*
X12457142Y64585715D01*
X12514285Y64471429D01*
X12514285Y64185715D01*
X12457142Y64071429D01*
X12400000Y64014286D01*
X12285714Y63957143D01*
X11942857Y63957143D01*
X11828571Y64014286D01*
X11771428Y64071429D01*
X12914285Y64757143D02*
X13200000Y63957143D01*
X13485714Y64757143D01*
X13828571Y65157143D02*
X14571428Y65157143D01*
X14171428Y64700000D01*
X14342857Y64700000D01*
X14457142Y64642858D01*
X14514285Y64585715D01*
X14571428Y64471429D01*
X14571428Y64185715D01*
X14514285Y64071429D01*
X14457142Y64014286D01*
X14342857Y63957143D01*
X14000000Y63957143D01*
X13885714Y64014286D01*
X13828571Y64071429D01*
D11*
X18007142Y56450000D02*
X18007142Y56535715D01*
X18050000Y56621429D01*
X18092857Y56664286D01*
X18178571Y56707143D01*
X18350000Y56750000D01*
X18564285Y56750000D01*
X18735714Y56707143D01*
X18821428Y56664286D01*
X18864285Y56621429D01*
X18907142Y56535715D01*
X18907142Y56450000D01*
X18864285Y56364286D01*
X18821428Y56321429D01*
X18735714Y56278572D01*
X18564285Y56235715D01*
X18350000Y56235715D01*
X18178571Y56278572D01*
X18092857Y56321429D01*
X18050000Y56364286D01*
X18007142Y56450000D01*
X18907142Y57050000D02*
X18307142Y57521429D01*
X18307142Y57050000D02*
X18907142Y57521429D01*
X18007142Y57778572D02*
X18007142Y58335715D01*
X18350000Y58035715D01*
X18350000Y58164286D01*
X18392857Y58250000D01*
X18435714Y58292858D01*
X18521428Y58335715D01*
X18735714Y58335715D01*
X18821428Y58292858D01*
X18864285Y58250000D01*
X18907142Y58164286D01*
X18907142Y57907143D01*
X18864285Y57821429D01*
X18821428Y57778572D01*
X18907142Y58721429D02*
X18007142Y58721429D01*
X18007142Y58935715D01*
X18050000Y59064286D01*
X18135714Y59150000D01*
X18221428Y59192858D01*
X18392857Y59235715D01*
X18521428Y59235715D01*
X18692857Y59192858D01*
X18778571Y59150000D01*
X18864285Y59064286D01*
X18907142Y58935715D01*
X18907142Y58721429D01*
X18007142Y60478572D02*
X18007142Y60564286D01*
X18050000Y60650000D01*
X18092857Y60692858D01*
X18178571Y60735715D01*
X18350000Y60778572D01*
X18564285Y60778572D01*
X18735714Y60735715D01*
X18821428Y60692858D01*
X18864285Y60650000D01*
X18907142Y60564286D01*
X18907142Y60478572D01*
X18864285Y60392858D01*
X18821428Y60350000D01*
X18735714Y60307143D01*
X18564285Y60264286D01*
X18350000Y60264286D01*
X18178571Y60307143D01*
X18092857Y60350000D01*
X18050000Y60392858D01*
X18007142Y60478572D01*
X18907142Y61078572D02*
X18307142Y61550000D01*
X18307142Y61078572D02*
X18907142Y61550000D01*
X18007142Y61807143D02*
X18007142Y62364286D01*
X18350000Y62064286D01*
X18350000Y62192858D01*
X18392857Y62278572D01*
X18435714Y62321429D01*
X18521428Y62364286D01*
X18735714Y62364286D01*
X18821428Y62321429D01*
X18864285Y62278572D01*
X18907142Y62192858D01*
X18907142Y61935715D01*
X18864285Y61850000D01*
X18821428Y61807143D01*
X18821428Y63264286D02*
X18864285Y63221429D01*
X18907142Y63092858D01*
X18907142Y63007143D01*
X18864285Y62878572D01*
X18778571Y62792858D01*
X18692857Y62750000D01*
X18521428Y62707143D01*
X18392857Y62707143D01*
X18221428Y62750000D01*
X18135714Y62792858D01*
X18050000Y62878572D01*
X18007142Y63007143D01*
X18007142Y63092858D01*
X18050000Y63221429D01*
X18092857Y63264286D01*
D13*
X7704523Y858405D02*
X7704523Y2158405D01*
X8137857Y1229834D01*
X8571190Y2158405D01*
X8571190Y858405D01*
X9809285Y858405D02*
X9190238Y858405D01*
X9190238Y2158405D01*
X10180714Y1229834D02*
X10799761Y1229834D01*
X10056904Y858405D02*
X10490238Y2158405D01*
X10923571Y858405D01*
X11790238Y1539358D02*
X11975952Y1477453D01*
X12037857Y1415548D01*
X12099761Y1291739D01*
X12099761Y1106024D01*
X12037857Y982215D01*
X11975952Y920310D01*
X11852142Y858405D01*
X11356904Y858405D01*
X11356904Y2158405D01*
X11790238Y2158405D01*
X11914047Y2096500D01*
X11975952Y2034596D01*
X12037857Y1910786D01*
X12037857Y1786977D01*
X11975952Y1663167D01*
X11914047Y1601262D01*
X11790238Y1539358D01*
X11356904Y1539358D01*
X12656904Y982215D02*
X12718809Y920310D01*
X12656904Y858405D01*
X12595000Y920310D01*
X12656904Y982215D01*
X12656904Y858405D01*
X13833095Y920310D02*
X13709285Y858405D01*
X13461666Y858405D01*
X13337857Y920310D01*
X13275952Y982215D01*
X13214047Y1106024D01*
X13214047Y1477453D01*
X13275952Y1601262D01*
X13337857Y1663167D01*
X13461666Y1725072D01*
X13709285Y1725072D01*
X13833095Y1663167D01*
X14266428Y1725072D02*
X14947380Y1725072D01*
X14266428Y858405D01*
X14947380Y858405D01*
X7642619Y-58404D02*
X7704523Y3500D01*
X7828333Y65405D01*
X8137857Y65405D01*
X8261666Y3500D01*
X8323571Y-58404D01*
X8385476Y-182214D01*
X8385476Y-306023D01*
X8323571Y-491738D01*
X7580714Y-1234595D01*
X8385476Y-1234595D01*
X9190238Y65405D02*
X9314047Y65405D01*
X9437857Y3500D01*
X9499761Y-58404D01*
X9561666Y-182214D01*
X9623571Y-429833D01*
X9623571Y-739357D01*
X9561666Y-986976D01*
X9499761Y-1110785D01*
X9437857Y-1172690D01*
X9314047Y-1234595D01*
X9190238Y-1234595D01*
X9066428Y-1172690D01*
X9004523Y-1110785D01*
X8942619Y-986976D01*
X8880714Y-739357D01*
X8880714Y-429833D01*
X8942619Y-182214D01*
X9004523Y-58404D01*
X9066428Y3500D01*
X9190238Y65405D01*
X10118809Y-58404D02*
X10180714Y3500D01*
X10304523Y65405D01*
X10614047Y65405D01*
X10737857Y3500D01*
X10799761Y-58404D01*
X10861666Y-182214D01*
X10861666Y-306023D01*
X10799761Y-491738D01*
X10056904Y-1234595D01*
X10861666Y-1234595D01*
X11295000Y65405D02*
X12099761Y65405D01*
X11666428Y-429833D01*
X11852142Y-429833D01*
X11975952Y-491738D01*
X12037857Y-553642D01*
X12099761Y-677452D01*
X12099761Y-986976D01*
X12037857Y-1110785D01*
X11975952Y-1172690D01*
X11852142Y-1234595D01*
X11480714Y-1234595D01*
X11356904Y-1172690D01*
X11295000Y-1110785D01*
D11*
X31378571Y57750000D02*
X31292857Y57797620D01*
X31164285Y57797620D01*
X31035714Y57750000D01*
X30950000Y57654762D01*
X30907142Y57559524D01*
X30864285Y57369048D01*
X30864285Y57226191D01*
X30907142Y57035715D01*
X30950000Y56940477D01*
X31035714Y56845239D01*
X31164285Y56797620D01*
X31250000Y56797620D01*
X31378571Y56845239D01*
X31421428Y56892858D01*
X31421428Y57226191D01*
X31250000Y57226191D01*
X31807142Y56797620D02*
X31807142Y57797620D01*
X32321428Y56797620D01*
X32321428Y57797620D01*
X32750000Y56797620D02*
X32750000Y57797620D01*
X32964285Y57797620D01*
X33092857Y57750000D01*
X33178571Y57654762D01*
X33221428Y57559524D01*
X33264285Y57369048D01*
X33264285Y57226191D01*
X33221428Y57035715D01*
X33178571Y56940477D01*
X33092857Y56845239D01*
X32964285Y56797620D01*
X32750000Y56797620D01*
X34292857Y56845239D02*
X34421428Y56797620D01*
X34635714Y56797620D01*
X34721428Y56845239D01*
X34764285Y56892858D01*
X34807142Y56988096D01*
X34807142Y57083334D01*
X34764285Y57178572D01*
X34721428Y57226191D01*
X34635714Y57273810D01*
X34464285Y57321429D01*
X34378571Y57369048D01*
X34335714Y57416667D01*
X34292857Y57511905D01*
X34292857Y57607143D01*
X34335714Y57702381D01*
X34378571Y57750000D01*
X34464285Y57797620D01*
X34678571Y57797620D01*
X34807142Y57750000D01*
X35192857Y56797620D02*
X35192857Y57797620D01*
X35407142Y57797620D01*
X35535714Y57750000D01*
X35621428Y57654762D01*
X35664285Y57559524D01*
X35707142Y57369048D01*
X35707142Y57226191D01*
X35664285Y57035715D01*
X35621428Y56940477D01*
X35535714Y56845239D01*
X35407142Y56797620D01*
X35192857Y56797620D01*
X36050000Y57083334D02*
X36478571Y57083334D01*
X35964285Y56797620D02*
X36264285Y57797620D01*
X36564285Y56797620D01*
X37421428Y57797620D02*
X37721428Y56797620D01*
X38021428Y57797620D01*
X38835714Y56892858D02*
X38792857Y56845239D01*
X38664285Y56797620D01*
X38578571Y56797620D01*
X38450000Y56845239D01*
X38364285Y56940477D01*
X38321428Y57035715D01*
X38278571Y57226191D01*
X38278571Y57369048D01*
X38321428Y57559524D01*
X38364285Y57654762D01*
X38450000Y57750000D01*
X38578571Y57797620D01*
X38664285Y57797620D01*
X38792857Y57750000D01*
X38835714Y57702381D01*
X39735714Y56892858D02*
X39692857Y56845239D01*
X39564285Y56797620D01*
X39478571Y56797620D01*
X39350000Y56845239D01*
X39264285Y56940477D01*
X39221428Y57035715D01*
X39178571Y57226191D01*
X39178571Y57369048D01*
X39221428Y57559524D01*
X39264285Y57654762D01*
X39350000Y57750000D01*
X39478571Y57797620D01*
X39564285Y57797620D01*
X39692857Y57750000D01*
X39735714Y57702381D01*
X40764285Y56845239D02*
X40892857Y56797620D01*
X41107142Y56797620D01*
X41192857Y56845239D01*
X41235714Y56892858D01*
X41278571Y56988096D01*
X41278571Y57083334D01*
X41235714Y57178572D01*
X41192857Y57226191D01*
X41107142Y57273810D01*
X40935714Y57321429D01*
X40850000Y57369048D01*
X40807142Y57416667D01*
X40764285Y57511905D01*
X40764285Y57607143D01*
X40807142Y57702381D01*
X40850000Y57750000D01*
X40935714Y57797620D01*
X41150000Y57797620D01*
X41278571Y57750000D01*
X42178571Y56892858D02*
X42135714Y56845239D01*
X42007142Y56797620D01*
X41921428Y56797620D01*
X41792857Y56845239D01*
X41707142Y56940477D01*
X41664285Y57035715D01*
X41621428Y57226191D01*
X41621428Y57369048D01*
X41664285Y57559524D01*
X41707142Y57654762D01*
X41792857Y57750000D01*
X41921428Y57797620D01*
X42007142Y57797620D01*
X42135714Y57750000D01*
X42178571Y57702381D01*
X42992857Y56797620D02*
X42564285Y56797620D01*
X42564285Y57797620D01*
X44450000Y57750000D02*
X44364285Y57797620D01*
X44235714Y57797620D01*
X44107142Y57750000D01*
X44021428Y57654762D01*
X43978571Y57559524D01*
X43935714Y57369048D01*
X43935714Y57226191D01*
X43978571Y57035715D01*
X44021428Y56940477D01*
X44107142Y56845239D01*
X44235714Y56797620D01*
X44321428Y56797620D01*
X44450000Y56845239D01*
X44492857Y56892858D01*
X44492857Y57226191D01*
X44321428Y57226191D01*
X44878571Y56797620D02*
X44878571Y57797620D01*
X45392857Y56797620D01*
X45392857Y57797620D01*
X45821428Y56797620D02*
X45821428Y57797620D01*
X46035714Y57797620D01*
X46164285Y57750000D01*
X46250000Y57654762D01*
X46292857Y57559524D01*
X46335714Y57369048D01*
X46335714Y57226191D01*
X46292857Y57035715D01*
X46250000Y56940477D01*
X46164285Y56845239D01*
X46035714Y56797620D01*
X45821428Y56797620D01*
D13*
X8012857Y5221429D02*
X8298571Y5221429D01*
X8441428Y5150000D01*
X8584285Y5007143D01*
X8655714Y4721429D01*
X8655714Y4221429D01*
X8584285Y3935715D01*
X8441428Y3792858D01*
X8298571Y3721429D01*
X8012857Y3721429D01*
X7870000Y3792858D01*
X7727142Y3935715D01*
X7655714Y4221429D01*
X7655714Y4721429D01*
X7727142Y5007143D01*
X7870000Y5150000D01*
X8012857Y5221429D01*
X10012857Y3721429D02*
X9298571Y3721429D01*
X9298571Y5221429D01*
X10512857Y4507143D02*
X11012857Y4507143D01*
X11227142Y3721429D02*
X10512857Y3721429D01*
X10512857Y5221429D01*
X11227142Y5221429D01*
X11870000Y3721429D02*
X11870000Y5221429D01*
X12227142Y5221429D01*
X12441428Y5150000D01*
X12584285Y5007143D01*
X12655714Y4864286D01*
X12727142Y4578572D01*
X12727142Y4364286D01*
X12655714Y4078572D01*
X12584285Y3935715D01*
X12441428Y3792858D01*
X12227142Y3721429D01*
X11870000Y3721429D01*
X13655714Y5221429D02*
X13798571Y5221429D01*
X13941428Y5150000D01*
X14012857Y5078572D01*
X14084285Y4935715D01*
X14155714Y4650000D01*
X14155714Y4292858D01*
X14084285Y4007143D01*
X14012857Y3864286D01*
X13941428Y3792858D01*
X13798571Y3721429D01*
X13655714Y3721429D01*
X13512857Y3792858D01*
X13441428Y3864286D01*
X13370000Y4007143D01*
X13298571Y4292858D01*
X13298571Y4650000D01*
X13370000Y4935715D01*
X13441428Y5078572D01*
X13512857Y5150000D01*
X13655714Y5221429D01*
X15584285Y3721429D02*
X14727142Y3721429D01*
X15155714Y3721429D02*
X15155714Y5221429D01*
X15012857Y5007143D01*
X14870000Y4864286D01*
X14727142Y4792858D01*
X16727142Y4507143D02*
X16941428Y4435715D01*
X17012857Y4364286D01*
X17084285Y4221429D01*
X17084285Y4007143D01*
X17012857Y3864286D01*
X16941428Y3792858D01*
X16798571Y3721429D01*
X16227142Y3721429D01*
X16227142Y5221429D01*
X16727142Y5221429D01*
X16870000Y5150000D01*
X16941428Y5078572D01*
X17012857Y4935715D01*
X17012857Y4792858D01*
X16941428Y4650000D01*
X16870000Y4578572D01*
X16727142Y4507143D01*
X16227142Y4507143D01*
D11*
X34671428Y-4052380D02*
X34195238Y-4052380D01*
X34195238Y-3052380D01*
X35004761Y-3528571D02*
X35338095Y-3528571D01*
X35480952Y-4052380D02*
X35004761Y-4052380D01*
X35004761Y-3052380D01*
X35480952Y-3052380D01*
X35909523Y-4052380D02*
X35909523Y-3052380D01*
X36147619Y-3052380D01*
X36290476Y-3100000D01*
X36385714Y-3195238D01*
X36433333Y-3290476D01*
X36480952Y-3480952D01*
X36480952Y-3623809D01*
X36433333Y-3814285D01*
X36385714Y-3909523D01*
X36290476Y-4004761D01*
X36147619Y-4052380D01*
X35909523Y-4052380D01*
X36861904Y-4004761D02*
X36957142Y-4052380D01*
X37147619Y-4052380D01*
X37242857Y-4004761D01*
X37290476Y-3909523D01*
X37290476Y-3861904D01*
X37242857Y-3766666D01*
X37147619Y-3719047D01*
X37004761Y-3719047D01*
X36909523Y-3671428D01*
X36861904Y-3576190D01*
X36861904Y-3528571D01*
X36909523Y-3433333D01*
X37004761Y-3385714D01*
X37147619Y-3385714D01*
X37242857Y-3433333D01*
X38814285Y-3528571D02*
X38957142Y-3576190D01*
X39004761Y-3623809D01*
X39052380Y-3719047D01*
X39052380Y-3861904D01*
X39004761Y-3957142D01*
X38957142Y-4004761D01*
X38861904Y-4052380D01*
X38480952Y-4052380D01*
X38480952Y-3052380D01*
X38814285Y-3052380D01*
X38909523Y-3100000D01*
X38957142Y-3147619D01*
X39004761Y-3242857D01*
X39004761Y-3338095D01*
X38957142Y-3433333D01*
X38909523Y-3480952D01*
X38814285Y-3528571D01*
X38480952Y-3528571D01*
X39909523Y-3385714D02*
X39909523Y-4052380D01*
X39480952Y-3385714D02*
X39480952Y-3909523D01*
X39528571Y-4004761D01*
X39623809Y-4052380D01*
X39766666Y-4052380D01*
X39861904Y-4004761D01*
X39909523Y-3957142D01*
X40290476Y-3385714D02*
X40814285Y-3385714D01*
X40290476Y-4052380D01*
X40814285Y-4052380D01*
X41100000Y-3385714D02*
X41623809Y-3385714D01*
X41100000Y-4052380D01*
X41623809Y-4052380D01*
X42385714Y-4004761D02*
X42290476Y-4052380D01*
X42100000Y-4052380D01*
X42004761Y-4004761D01*
X41957142Y-3909523D01*
X41957142Y-3528571D01*
X42004761Y-3433333D01*
X42100000Y-3385714D01*
X42290476Y-3385714D01*
X42385714Y-3433333D01*
X42433333Y-3528571D01*
X42433333Y-3623809D01*
X41957142Y-3719047D01*
X42861904Y-4052380D02*
X42861904Y-3385714D01*
X42861904Y-3576190D02*
X42909523Y-3480952D01*
X42957142Y-3433333D01*
X43052380Y-3385714D01*
X43147619Y-3385714D01*
D12*
X37428571Y63832789D02*
X37428571Y65032789D01*
X37942857Y64918504D02*
X38000000Y64975646D01*
X38114285Y65032789D01*
X38400000Y65032789D01*
X38514285Y64975646D01*
X38571428Y64918504D01*
X38628571Y64804218D01*
X38628571Y64689932D01*
X38571428Y64518504D01*
X37885714Y63832789D01*
X38628571Y63832789D01*
X39828571Y63947075D02*
X39771428Y63889932D01*
X39600000Y63832789D01*
X39485714Y63832789D01*
X39314285Y63889932D01*
X39200000Y64004218D01*
X39142857Y64118504D01*
X39085714Y64347075D01*
X39085714Y64518504D01*
X39142857Y64747075D01*
X39200000Y64861361D01*
X39314285Y64975646D01*
X39485714Y65032789D01*
X39600000Y65032789D01*
X39771428Y64975646D01*
X39828571Y64918504D01*
X18664285Y64300000D02*
X19235714Y64300000D01*
X18550000Y63957143D02*
X18950000Y65157143D01*
X19350000Y63957143D01*
X19750000Y63957143D02*
X19750000Y65157143D01*
X20035714Y65157143D01*
X20207142Y65100000D01*
X20321428Y64985715D01*
X20378571Y64871429D01*
X20435714Y64642858D01*
X20435714Y64471429D01*
X20378571Y64242858D01*
X20321428Y64128572D01*
X20207142Y64014286D01*
X20035714Y63957143D01*
X19750000Y63957143D01*
X20950000Y63957143D02*
X20950000Y65157143D01*
X21235714Y65157143D01*
X21407142Y65100000D01*
X21521428Y64985715D01*
X21578571Y64871429D01*
X21635714Y64642858D01*
X21635714Y64471429D01*
X21578571Y64242858D01*
X21521428Y64128572D01*
X21407142Y64014286D01*
X21235714Y63957143D01*
X20950000Y63957143D01*
X22835714Y63957143D02*
X22435714Y64528572D01*
X22150000Y63957143D02*
X22150000Y65157143D01*
X22607142Y65157143D01*
X22721428Y65100000D01*
X22778571Y65042858D01*
X22835714Y64928572D01*
X22835714Y64757143D01*
X22778571Y64642858D01*
X22721428Y64585715D01*
X22607142Y64528572D01*
X22150000Y64528572D01*
D11*
X14250000Y57464286D02*
X14892857Y57464286D01*
X14507142Y57892858D02*
X14250000Y56607143D01*
X14807142Y57035715D02*
X14164285Y57035715D01*
X14550000Y56607143D02*
X14807142Y57892858D01*
X15707142Y56797620D02*
X15407142Y57273810D01*
X15192857Y56797620D02*
X15192857Y57797620D01*
X15535714Y57797620D01*
X15621428Y57750000D01*
X15664285Y57702381D01*
X15707142Y57607143D01*
X15707142Y57464286D01*
X15664285Y57369048D01*
X15621428Y57321429D01*
X15535714Y57273810D01*
X15192857Y57273810D01*
X16050000Y56845239D02*
X16178571Y56797620D01*
X16392857Y56797620D01*
X16478571Y56845239D01*
X16521428Y56892858D01*
X16564285Y56988096D01*
X16564285Y57083334D01*
X16521428Y57178572D01*
X16478571Y57226191D01*
X16392857Y57273810D01*
X16221428Y57321429D01*
X16135714Y57369048D01*
X16092857Y57416667D01*
X16050000Y57511905D01*
X16050000Y57607143D01*
X16092857Y57702381D01*
X16135714Y57750000D01*
X16221428Y57797620D01*
X16435714Y57797620D01*
X16564285Y57750000D01*
X16821428Y57797620D02*
X17335714Y57797620D01*
X17078571Y56797620D02*
X17078571Y57797620D01*
D12*
X25600000Y63832789D02*
X25600000Y65032789D01*
X26057142Y65032789D01*
X26171428Y64975646D01*
X26228571Y64918504D01*
X26285714Y64804218D01*
X26285714Y64632789D01*
X26228571Y64518504D01*
X26171428Y64461361D01*
X26057142Y64404218D01*
X25600000Y64404218D01*
X26685714Y65032789D02*
X26971428Y63832789D01*
X27200000Y64689932D01*
X27428571Y63832789D01*
X27714285Y65032789D01*
X28857142Y63832789D02*
X28457142Y64404218D01*
X28171428Y63832789D02*
X28171428Y65032789D01*
X28628571Y65032789D01*
X28742857Y64975646D01*
X28800000Y64918504D01*
X28857142Y64804218D01*
X28857142Y64632789D01*
X28800000Y64518504D01*
X28742857Y64461361D01*
X28628571Y64404218D01*
X28171428Y64404218D01*
D14*
%TO.C,J1*%
X32776190Y-2107142D02*
X32776190Y-2392857D01*
X32776190Y-2250000D02*
X32276190Y-2250000D01*
X32347619Y-2297619D01*
X32395238Y-2345238D01*
X32419047Y-2392857D01*
D11*
%TO.C,DISP1*%
X26247619Y21197620D02*
X26247619Y22197620D01*
X26485714Y22197620D01*
X26628571Y22150000D01*
X26723809Y22054762D01*
X26771428Y21959524D01*
X26819047Y21769048D01*
X26819047Y21626191D01*
X26771428Y21435715D01*
X26723809Y21340477D01*
X26628571Y21245239D01*
X26485714Y21197620D01*
X26247619Y21197620D01*
X27247619Y21197620D02*
X27247619Y22197620D01*
X27676190Y21245239D02*
X27819047Y21197620D01*
X28057142Y21197620D01*
X28152380Y21245239D01*
X28200000Y21292858D01*
X28247619Y21388096D01*
X28247619Y21483334D01*
X28200000Y21578572D01*
X28152380Y21626191D01*
X28057142Y21673810D01*
X27866666Y21721429D01*
X27771428Y21769048D01*
X27723809Y21816667D01*
X27676190Y21911905D01*
X27676190Y22007143D01*
X27723809Y22102381D01*
X27771428Y22150000D01*
X27866666Y22197620D01*
X28104761Y22197620D01*
X28247619Y22150000D01*
X28676190Y21197620D02*
X28676190Y22197620D01*
X29057142Y22197620D01*
X29152380Y22150000D01*
X29200000Y22102381D01*
X29247619Y22007143D01*
X29247619Y21864286D01*
X29200000Y21769048D01*
X29152380Y21721429D01*
X29057142Y21673810D01*
X28676190Y21673810D01*
X30200000Y21197620D02*
X29628571Y21197620D01*
X29914285Y21197620D02*
X29914285Y22197620D01*
X29819047Y22054762D01*
X29723809Y21959524D01*
X29628571Y21911905D01*
D14*
X1052857Y49187143D02*
X1386190Y49187143D01*
X862380Y49068096D02*
X1219523Y48949048D01*
X1219523Y49258572D01*
X886190Y49544286D02*
X886190Y49591905D01*
X910000Y49639524D01*
X933809Y49663334D01*
X981428Y49687143D01*
X1076666Y49710953D01*
X1195714Y49710953D01*
X1290952Y49687143D01*
X1338571Y49663334D01*
X1362380Y49639524D01*
X1386190Y49591905D01*
X1386190Y49544286D01*
X1362380Y49496667D01*
X1338571Y49472858D01*
X1290952Y49449048D01*
X1195714Y49425239D01*
X1076666Y49425239D01*
X981428Y49449048D01*
X933809Y49472858D01*
X910000Y49496667D01*
X886190Y49544286D01*
X49273809Y6019048D02*
X49250000Y6042858D01*
X49226190Y6090477D01*
X49226190Y6209524D01*
X49250000Y6257143D01*
X49273809Y6280953D01*
X49321428Y6304762D01*
X49369047Y6304762D01*
X49440476Y6280953D01*
X49726190Y5995239D01*
X49726190Y6304762D01*
X49226190Y6614286D02*
X49226190Y6661905D01*
X49250000Y6709524D01*
X49273809Y6733334D01*
X49321428Y6757143D01*
X49416666Y6780953D01*
X49535714Y6780953D01*
X49630952Y6757143D01*
X49678571Y6733334D01*
X49702380Y6709524D01*
X49726190Y6661905D01*
X49726190Y6614286D01*
X49702380Y6566667D01*
X49678571Y6542858D01*
X49630952Y6519048D01*
X49535714Y6495239D01*
X49416666Y6495239D01*
X49321428Y6519048D01*
X49273809Y6542858D01*
X49250000Y6566667D01*
X49226190Y6614286D01*
X1396190Y6991858D02*
X1396190Y6706143D01*
X1396190Y6849000D02*
X896190Y6849000D01*
X967619Y6801381D01*
X1015238Y6753762D01*
X1039047Y6706143D01*
X49173809Y49019048D02*
X49150000Y49042858D01*
X49126190Y49090477D01*
X49126190Y49209524D01*
X49150000Y49257143D01*
X49173809Y49280953D01*
X49221428Y49304762D01*
X49269047Y49304762D01*
X49340476Y49280953D01*
X49626190Y48995239D01*
X49626190Y49304762D01*
X49626190Y49780953D02*
X49626190Y49495239D01*
X49626190Y49638096D02*
X49126190Y49638096D01*
X49197619Y49590477D01*
X49245238Y49542858D01*
X49269047Y49495239D01*
D11*
%TO.C,J1*%
X32990000Y2540000D02*
X40610000Y2540000D01*
X40610000Y-2540000D02*
X32990000Y-2540000D01*
X32990000Y-2540000D02*
X32990000Y2540000D01*
X40610000Y2540000D02*
X40610000Y-2540000D01*
%TO.C,J6*%
X32250000Y63440000D02*
X44950000Y63440000D01*
X44950000Y58360000D02*
X32250000Y58360000D01*
X32250000Y58360000D02*
X32250000Y63440000D01*
X44950000Y63440000D02*
X44950000Y58360000D01*
%TO.C,J5*%
X22020000Y55940000D02*
X19480000Y55940000D01*
X19480000Y63560000D02*
X22020000Y63560000D01*
X22020000Y63560000D02*
X22020000Y55940000D01*
X19480000Y55940000D02*
X19480000Y63560000D01*
%TO.C,J4*%
X13160000Y58410000D02*
X5540000Y58410000D01*
X5540000Y58410000D02*
X5540000Y63490000D01*
X13160000Y63490000D02*
X13160000Y58410000D01*
X5540000Y63490000D02*
X13160000Y63490000D01*
%TO.C,DISP1*%
X50690000Y50030000D02*
X-110000Y50030000D01*
D10*
X-2000000Y8500000D02*
X-100000Y8500000D01*
X52600000Y51300000D02*
X50690000Y51300000D01*
D11*
X50700000Y7230000D02*
X-100000Y7230000D01*
X-110000Y52570000D02*
X50690000Y52570000D01*
X-100000Y9770000D02*
X50700000Y9770000D01*
D10*
X-2000000Y51300000D02*
X-2000000Y8500000D01*
D11*
X-100000Y7230000D02*
X-100000Y9770000D01*
X-110000Y50030000D02*
X-110000Y52570000D01*
D10*
X52600000Y8500000D02*
X52600000Y51300000D01*
D11*
X50690000Y52570000D02*
X50690000Y50030000D01*
X50700000Y9770000D02*
X50700000Y7230000D01*
D10*
X-110000Y51300000D02*
X-2000000Y51300000D01*
X50700000Y8500000D02*
X52600000Y8500000D01*
X-200000Y43200000D02*
X50800000Y43200000D01*
X50800000Y43200000D02*
X50800000Y12200000D01*
X50800000Y12200000D02*
X-200000Y12200000D01*
X-200000Y12200000D02*
X-200000Y43200000D01*
X-200000Y43200000D02*
X50800000Y43200000D01*
X50800000Y43200000D02*
X50800000Y12200000D01*
X50800000Y12200000D02*
X-200000Y12200000D01*
X-200000Y12200000D02*
X-200000Y43200000D01*
D11*
%TO.C,J2*%
X30966666Y58360000D02*
X23346666Y58360000D01*
X30966666Y63440000D02*
X30966666Y58360000D01*
X23346666Y63440000D02*
X30966666Y63440000D01*
X23346666Y58360000D02*
X23346666Y63440000D01*
%TO.C,J3*%
X17020000Y63440000D02*
X17020000Y58360000D01*
X14734000Y63440000D02*
X17020000Y63440000D01*
X17020000Y58360000D02*
X14734000Y58360000D01*
%TD*%
D15*
%TO.C,J6*%
X33520000Y59630000D03*
X33520000Y62170000D03*
X36060000Y59630000D03*
X36060000Y62170000D03*
X38600000Y59630000D03*
X38600000Y62170000D03*
X41140000Y59630000D03*
X41140000Y62170000D03*
X43680000Y59630000D03*
X43680000Y62170000D03*
%TD*%
%TO.C,DISP1*%
X1170000Y8500000D03*
X3710000Y8500000D03*
X6250000Y8500000D03*
X44350000Y8500000D03*
X46890000Y8500000D03*
X49430000Y8500000D03*
X49420000Y51300000D03*
X46880000Y51300000D03*
X44340000Y51300000D03*
X41800000Y51300000D03*
X39260000Y51300000D03*
X36720000Y51300000D03*
X34180000Y51300000D03*
X31640000Y51300000D03*
X29100000Y51300000D03*
X26560000Y51300000D03*
X24020000Y51300000D03*
X21480000Y51300000D03*
X18940000Y51300000D03*
X16400000Y51300000D03*
X13860000Y51300000D03*
X11320000Y51300000D03*
X8780000Y51300000D03*
X6240000Y51300000D03*
X3700000Y51300000D03*
X1160000Y51300000D03*
%TD*%
M02*
